<?xml version="1.0" encoding="UTF-8" standalone="no"?>
<svg
   version="1.1"
   viewBox="0 0 24 24"
   id="svg1"
   sodipodi:docname="bookmark-add.svg"
   width="24"
   height="24"
   inkscape:version="1.4 (e7c3feb100, 2024-10-09)"
   xmlns:inkscape="http://www.inkscape.org/namespaces/inkscape"
   xmlns:sodipodi="http://sodipodi.sourceforge.net/DTD/sodipodi-0.dtd"
   xmlns="http://www.w3.org/2000/svg"
   xmlns:svg="http://www.w3.org/2000/svg">
  <sodipodi:namedview
     id="namedview1"
     pagecolor="#ffffff"
     bordercolor="#000000"
     borderopacity="0.25"
     inkscape:showpageshadow="2"
     inkscape:pageopacity="0.0"
     inkscape:pagecheckerboard="0"
     inkscape:deskcolor="#d1d1d1"
     inkscape:zoom="23.5625"
     inkscape:cx="13.135279"
     inkscape:cy="13.877984"
     inkscape:window-width="1920"
     inkscape:window-height="994"
     inkscape:window-x="0"
     inkscape:window-y="0"
     inkscape:window-maximized="1"
     inkscape:current-layer="svg1" />
  <defs
     id="defs1">
    <style
       type="text/css"
       id="current-color-scheme">.ColorScheme-Text { color:#fcfcfc; } </style>
  </defs>
  <path
     style="fill:currentColor;fill-opacity:1;stroke:none;stroke-width:1.33333"
     d="m 14.666663,13.333323 v 2.666681 h -2.66666 v 1.333315 h 2.66666 V 20 h 1.333335 v -2.666681 h 2.666661 V 16.000004 H 15.999998 V 13.333323 H 14.666663 M 5.3333409,6.6666639 c 0,2.6666638 0,13.3333191 0,13.3333191 l 5.3333281,-2.124998 v -1.333332 l -3.9999961,1.583332 c 0,0 0,-10.1249894 0,-11.4583213 0,-1.3333319 1.3333319,-1.3333319 1.3333319,-1.3333319 h 5.3333262 c 0,0 1.333332,0 1.333332,1.3333319 0,1.3333319 0,5.3333273 0,5.3333273 h 1.333332 c 0,0 0,-2.6666635 0,-5.3333273 0,-2.6666638 -2.666664,-2.6666638 -2.666664,-2.6666638 H 8.0000048 c 0,0 -2.6666639,0 -2.6666639,2.666664 z"
     class="ColorScheme-Text"
     id="path1" />
</svg>
