<?xml version="1.0" encoding="UTF-8" standalone="no"?>
<svg
   viewBox="0 0 24 24"
   version="1.1"
   id="svg2"
   sodipodi:docname="bookmark-remove.svg"
   width="24"
   height="24"
   inkscape:version="1.4 (e7c3feb100, 2024-10-09)"
   xmlns:inkscape="http://www.inkscape.org/namespaces/inkscape"
   xmlns:sodipodi="http://sodipodi.sourceforge.net/DTD/sodipodi-0.dtd"
   xmlns="http://www.w3.org/2000/svg"
   xmlns:svg="http://www.w3.org/2000/svg">
  <sodipodi:namedview
     id="namedview2"
     pagecolor="#ffffff"
     bordercolor="#000000"
     borderopacity="0.25"
     inkscape:showpageshadow="2"
     inkscape:pageopacity="0.0"
     inkscape:pagecheckerboard="0"
     inkscape:deskcolor="#d1d1d1"
     inkscape:zoom="23.5625"
     inkscape:cx="16.954907"
     inkscape:cy="10.058355"
     inkscape:window-width="1920"
     inkscape:window-height="994"
     inkscape:window-x="0"
     inkscape:window-y="0"
     inkscape:window-maximized="1"
     inkscape:current-layer="svg2" />
  <defs
     id="defs3051">
    <style
       type="text/css"
       id="current-color-scheme"> .ColorScheme-Text { color:#fcfcfc; } .ColorScheme-NegativeText { color:#da4453; } </style>
  </defs>
  <g
     transform="matrix(1.3300083,0,0,1.3300083,-560.84987,-705.94513)"
     id="g2">
    <path
       style="fill:currentColor;fill-opacity:1;stroke:none"
       d="m 425.71,535.79 c 0,2 0,10 0,10 l 4,-1.594 v -1 l -3,1.188 c 0,0 0,-7.594 0,-8.594 0,-1 1,-1 1,-1 h 4 c 0,0 1,0 1,1 0,1 0,4 0,4 h 1 c 0,0 0,-2 0,-4 0,-2 -2,-2 -2,-2 h -4 c 0,0 -2,0 -2,2 z"
       class="ColorScheme-Text"
       id="path1" />
    <path
       style="fill:currentColor;fill-opacity:1;stroke:none"
       class="ColorScheme-NegativeText"
       d="m 431.42,540.82 -0.707,0.707 1.793,1.793 -1.793,1.793 0.707,0.707 1.793,-1.793 1.793,1.793 0.707,-0.707 -1.793,-1.793 1.793,-1.793 -0.707,-0.707 -1.793,1.793 z"
       id="path2" />
  </g>
</svg>
