<?xml version="1.0" encoding="UTF-8" standalone="no"?>
<svg
   viewBox="0 0 62 62"
   version="1.1"
   id="svg1"
   sodipodi:docname="system-log-out.svg"
   inkscape:version="1.4 (e7c3feb100, 2024-10-09)"
   width="62"
   height="62"
   xmlns:inkscape="http://www.inkscape.org/namespaces/inkscape"
   xmlns:sodipodi="http://sodipodi.sourceforge.net/DTD/sodipodi-0.dtd"
   xmlns="http://www.w3.org/2000/svg"
   xmlns:svg="http://www.w3.org/2000/svg">
  <sodipodi:namedview
     id="namedview1"
     pagecolor="#ffffff"
     bordercolor="#000000"
     borderopacity="0.25"
     inkscape:showpageshadow="2"
     inkscape:pageopacity="0.0"
     inkscape:pagecheckerboard="0"
     inkscape:deskcolor="#d1d1d1"
     inkscape:zoom="8.7159092"
     inkscape:cx="21.168187"
     inkscape:cy="29.256844"
     inkscape:window-width="1920"
     inkscape:window-height="994"
     inkscape:window-x="0"
     inkscape:window-y="0"
     inkscape:window-maximized="1"
     inkscape:current-layer="svg1" />
  <defs
     id="defs1">
    <style
       type="text/css"
       id="style1">.ColorScheme-Text {
        color:#d8dee9;
      }</style>
  </defs>
  <g
     id="g2"
     transform="matrix(3.1111111,0,0,3.1111111,91.174915,-6.2510117)">
    <g
       id="g1"
       transform="matrix(1.0909091,0,0,1.0909091,-31.341937,-0.02645954)"
       style="stroke-width:0.916667">
      <circle
         id="path4140-7-6"
         cx="11"
         cy="10.999999"
         r="8.25"
         style="fill:#813d9c;fill-opacity:1" />
    </g>
    <path
       d="m -15.906795,8.7712523 c -1.14e-4,0.01209 -8e-4,0.0243 -0.0032,0.03614 l -0.676316,4.3478387 c -0.02938,0.192495 -0.268157,0.269458 -0.40656,0.131018 l -0.845296,-0.83621 -2.704831,2.675874 c -0.280167,0.276963 -0.734318,0.276963 -1.014495,0 l -1.01424,-1.003666 c -0.280085,-0.277043 -0.280085,-0.726132 0,-1.003189 l 2.705876,-2.675628 -0.845662,-0.8359872 c -0.140025,-0.1369414 -0.06199,-0.3731902 0.132747,-0.4020351 l 4.396842,-0.6687824 c 0.14483,-0.021981 0.275443,0.088748 0.275505,0.2336461 z m -0.526131,0.2828463 z"
       id="path8-2-1"
       style="fill:#fefeff;fill-opacity:1;stroke-width:0.297285"
       sodipodi:nodetypes="ccccccccccccccccccc" />
    <path
       d="m -25.003005,6.3243097 c -3.144151,3.1461438 -3.118427,8.2814093 0.07719,11.3949863 2.976539,2.900172 7.773143,3.01871 10.879643,0.25841 2.721948,-2.418597 3.444337,-6.271949 1.912993,-9.4538235 -0.183797,-0.3818853 -0.664941,-0.5129991 -1.027024,-0.293049 -0.324637,0.1972288 -0.434369,0.6070909 -0.271166,0.9502512 1.261741,2.6529863 0.614337,5.8688573 -1.722614,7.8311903 -2.370395,1.990414 -5.887328,2.02389 -8.293211,0.07655 -3.068424,-2.483566 -3.244238,-7.017048 -0.527454,-9.7355509 1.979937,-1.9811963 4.953113,-2.4701235 7.432967,-1.2868882 0.340898,0.162646 0.748286,0.050709 0.944286,-0.2722971 l 0.0016,-0.00265 c 0.218935,-0.3612309 0.08992,-0.8416985 -0.290429,-1.0252162 -3.037593,-1.4653991 -6.688358,-0.8722859 -9.116683,1.5575656 z"
       id="path1-0-9-9-6-1-2"
       style="fill:#fefeff;fill-opacity:1;stroke-width:0.363699" />
  </g>
</svg>
