<?xml version="1.0" encoding="UTF-8" standalone="no"?>
<svg
   viewBox="0 0 62 62"
   version="1.1"
   id="svg1"
   sodipodi:docname="system-lock-screen.svg"
   inkscape:version="1.4 (e7c3feb100, 2024-10-09)"
   width="62"
   height="62"
   xmlns:inkscape="http://www.inkscape.org/namespaces/inkscape"
   xmlns:sodipodi="http://sodipodi.sourceforge.net/DTD/sodipodi-0.dtd"
   xmlns="http://www.w3.org/2000/svg"
   xmlns:svg="http://www.w3.org/2000/svg">
  <sodipodi:namedview
     id="namedview1"
     pagecolor="#ffffff"
     bordercolor="#000000"
     borderopacity="0.25"
     inkscape:showpageshadow="2"
     inkscape:pageopacity="0.0"
     inkscape:pagecheckerboard="0"
     inkscape:deskcolor="#d1d1d1"
     inkscape:zoom="8.7159092"
     inkscape:cx="35.739243"
     inkscape:cy="32.239895"
     inkscape:window-width="1920"
     inkscape:window-height="994"
     inkscape:window-x="0"
     inkscape:window-y="0"
     inkscape:window-maximized="1"
     inkscape:current-layer="svg1" />
  <defs
     id="defs1">
    <style
       type="text/css"
       id="style1">.ColorScheme-Text {
        color:#d8dee9;
      }</style>
  </defs>
  <g
     id="g2"
     transform="matrix(3.111241,0,0,3.1114158,2.8343131,-3.7088547)">
    <g
       id="g1"
       transform="matrix(1.0909019,0,0,1.0909019,-2.9473668,-0.84542182)"
       style="stroke-width:0.916673">
      <rect
         width="16.49942"
         x="-19.250008"
         y="2.7515106"
         rx="8.2497101"
         height="16.498493"
         transform="scale(-1,1)"
         id="rect223-7"
         ry="8.2492466"
         style="fill:#1cb084;fill-opacity:1" />
    </g>
    <path
       class="fil0"
       d="m 5.454593,11.121198 c 0.760486,-0.732035 1.91874,-0.85446 2.8234261,-0.307438 L 12.227655,7.0118635 c 0.564227,-0.543079 1.390737,0.315464 0.8265,0.858671 l -0.245321,0.236079 0.543119,0.564264 c 0.425064,0.441567 -0.261831,1.102766 -0.686898,0.661191 l -0.543109,-0.564176 -0.22079,0.21248 0.543129,0.564207 C 12.892952,10.0107 12.206065,10.67194 11.757386,10.205787 L 11.214257,9.6416035 9.1045221,11.672407 c 0.53669,0.901208 0.369321,2.102194 -0.39117,2.834193 C 7.781149,15.403928 6.288623,15.3755 5.391281,14.44339 4.493938,13.511142 4.522385,12.01859 5.454561,11.121263 Z m 0.826502,0.858599 c -0.466103,0.448717 -0.479871,1.170887 -0.0312,1.636957 0.448664,0.466173 1.170862,0.479888 1.636966,0.03109 0.4661031,-0.448734 0.4798631,-1.170839 0.0312,-1.636982 -0.448672,-0.466173 -1.170862,-0.479875 -1.636974,-0.03108 z"
       id="path1-4-2-2"
       style="fill:#ffffff;fill-opacity:1;fill-rule:nonzero;stroke:#37c8ab;stroke-width:0.0340516;stroke-opacity:1;image-rendering:optimizeQuality;shape-rendering:geometricPrecision;text-rendering:geometricPrecision" />
    <path
       d="m 3.391908,5.5052505 c -3.14417098,3.146203 -3.11844298,8.2815015 0.0772,11.3950955 2.976563,2.900184 7.773192,3.018684 10.879734,0.258359 2.721965,-2.4186 3.444361,-6.271948 1.913,-9.4538585 -0.183785,-0.381871 -0.664953,-0.512967 -1.027032,-0.293071 -0.32464,0.197216 -0.43436,0.607135 -0.27116,0.950262 1.261757,2.6530205 0.61434,5.8689145 -1.722632,7.8312895 -2.370415,1.990441 -5.887372,2.023927 -8.293273,0.07637 -3.068434,-2.48357 -3.244258,-7.0170445 -0.527447,-9.7355925 1.979949,-1.981244 4.9531421,-2.47014 7.433023,-1.286918 0.340904,0.162648 0.748294,0.05112 0.944294,-0.272303 l 0.002,-0.0024 c 0.218782,-0.361201 0.08981,-0.841665 -0.29058,-1.025209 -3.0376489,-1.465469 -6.688444,-0.872294 -9.116784,1.557566 z"
       id="path1-0-9-9-7-9"
       style="fill:#ffffff;fill-opacity:1;stroke-width:0.290961" />
  </g>
</svg>
