<?xml version="1.0" encoding="UTF-8" standalone="no"?>
<svg
   clip-rule="evenodd"
   fill-rule="evenodd"
   stroke-linejoin="round"
   stroke-miterlimit="2"
   viewBox="0 0 62 62"
   version="1.1"
   id="svg12"
   sodipodi:docname="preferences-system-windows-effect-login.svg"
   width="62"
   height="62"
   inkscape:version="1.4 (e7c3feb100, 2024-10-09)"
   xmlns:inkscape="http://www.inkscape.org/namespaces/inkscape"
   xmlns:sodipodi="http://sodipodi.sourceforge.net/DTD/sodipodi-0.dtd"
   xmlns:xlink="http://www.w3.org/1999/xlink"
   xmlns="http://www.w3.org/2000/svg"
   xmlns:svg="http://www.w3.org/2000/svg">
  <defs
     id="defs12">
    <linearGradient
       id="linearGradient12"
       inkscape:collect="always">
      <stop
         style="stop-color:#4b545c;stop-opacity:1;"
         offset="0"
         id="stop12" />
      <stop
         style="stop-color:#6c7884;stop-opacity:1;"
         offset="1"
         id="stop13" />
    </linearGradient>
    <linearGradient
       inkscape:collect="always"
       xlink:href="#linearGradient12"
       id="linearGradient13"
       x1="30.332001"
       y1="2.332"
       x2="30.332001"
       y2="58.332001"
       gradientUnits="userSpaceOnUse"
       gradientTransform="translate(0.668,0.668)" />
  </defs>
  <sodipodi:namedview
     id="namedview12"
     pagecolor="#ffffff"
     bordercolor="#000000"
     borderopacity="0.25"
     inkscape:showpageshadow="2"
     inkscape:pageopacity="0.0"
     inkscape:pagecheckerboard="0"
     inkscape:deskcolor="#d1d1d1"
     inkscape:zoom="7.8541665"
     inkscape:cx="8.8488066"
     inkscape:cy="51.692309"
     inkscape:window-width="1920"
     inkscape:window-height="994"
     inkscape:window-x="0"
     inkscape:window-y="0"
     inkscape:window-maximized="1"
     inkscape:current-layer="svg12" />
  <linearGradient
     id="a"
     x2="1"
     gradientTransform="matrix(0,-46.799983,46.799983,0,631.81771,53.745883)"
     gradientUnits="userSpaceOnUse">
    <stop
       stop-color="#566069"
       offset="0"
       id="stop1" />
    <stop
       stop-color="#6c7884"
       offset="1"
       id="stop2" />
  </linearGradient>
  <linearGradient
     id="b"
     x2="1"
     gradientTransform="matrix(0,-25.373159,25.373159,0,2512.6636,48.880127)"
     gradientUnits="userSpaceOnUse">
    <stop
       stop-color="#b8b8b8"
       offset="0"
       id="stop3" />
    <stop
       stop-color="#bababa"
       offset="1"
       id="stop4" />
  </linearGradient>
  <path
     d="M 50.952003,3 C 55.394683,3 59,6.6053166 59,11.047997 V 50.952003 C 59,55.394683 55.394683,59 50.952003,59 H 11.047997 C 6.6053166,59 3,55.394683 3,50.952003 V 11.047997 C 3,6.6053166 6.6053166,3 11.047997,3 Z"
     id="path4"
     style="fill:url(#linearGradient13);fill-opacity:1" />
  <path
     d="M 3,12.376408 V 11.047997 C 3,6.6053166 6.6053166,3 11.047997,3 H 50.952003 C 55.394683,3 59,6.6053166 59,11.047997 v 1.328411 z"
     fill="#ebebeb"
     fill-opacity="0.1"
     id="path5"
     style="stroke-width:1.29223" />
  <path
     d="m 39.742706,7.688203 c 0,1.381249 -1.11925,2.500001 -2.500001,2.500001 -1.380749,0 -2.499999,-1.118752 -2.499999,-2.500001 0,-1.381249 1.11925,-2.499999 2.499999,-2.499999 1.380751,0 2.500001,1.11875 2.500001,2.499999 z"
     id="path443"
     style="fill:#ffffff;fill-opacity:1;stroke-width:1.24999" />
  <path
     d="m 47.242702,7.688203 c 0,1.381249 -1.119247,2.500001 -2.499997,2.500001 -1.380753,0 -2.500003,-1.118752 -2.500003,-2.500001 0,-1.381249 1.119253,-2.499999 2.500003,-2.499999 1.38075,0 2.499997,1.11875 2.499997,2.499999 z"
     id="path444"
     style="fill:#ffffff;fill-opacity:1;stroke-width:1.24999" />
  <path
     d="m 54.742701,7.688203 c 0,1.381249 -1.11925,2.500001 -2.499999,2.500001 -1.380751,0 -2.5,-1.118752 -2.5,-2.500001 0,-1.381249 1.119249,-2.499999 2.5,-2.499999 1.380749,0 2.499999,1.11875 2.499999,2.499999 z"
     id="path445"
     style="fill:#ffffff;fill-opacity:1;stroke-width:1.24999" />
  <g
     id="g2"
     transform="matrix(3.7795279,0,0,3.7795279,-1.2569851,-65.212655)">
    <path
       d="m 4.8376859,24.031501 c -0.4327987,0 -0.9137141,0.442277 -0.8655974,0.867492 v 0.433744 c 0,0.43375 0.4327987,0.867496 0.8910229,0.867496 h 7.7384506 c 0.459309,0 0.892104,-0.433746 0.892104,-0.867496 v -0.433744 c 0,-0.433747 -0.432795,-0.867492 -0.845788,-0.867492 z m -0.8655974,3.90372 v 0.433742 c 0,0.43375 0.4327987,0.867493 0.8501356,0.867493 H 12.62807 c 0.432801,0 0.865596,-0.433743 0.865596,-0.867493 v -0.433742 c 0,-0.433749 -0.432795,-0.867496 -0.885984,-0.867496 H 4.7595516 c -0.3546644,0 -0.7874631,0.433747 -0.7874631,0.867496 z"
       id="path41-2-3-3-5-7-3"
       sodipodi:nodetypes="cccccccccccccccccc"
       style="fill:#ffffff;fill-opacity:1;stroke-width:0.244232" />
    <path
       d="m 5.823055,23.673659 z m -0.4105438,3.950295 c -0.3174633,0 -0.5748253,0.257917 -0.5748253,0.576086 0,0.318159 0.257362,0.576082 0.5748253,0.576082 0.3174716,0 0.5748281,-0.257923 0.5748281,-0.576082 0,-0.318169 -0.2573565,-0.576086 -0.5748281,-0.576086 z m 2.2993076,0 c -0.3174744,0 -0.5748308,0.257917 -0.5748308,0.576086 0,0.318159 0.2573564,0.576082 0.5748308,0.576082 0.3174636,0 0.5748255,-0.257923 0.5748255,-0.576082 0,-0.318169 -0.2573619,-0.576086 -0.5748255,-0.576086 z m 2.2993022,0 c -0.3174688,0 -0.5748311,0.257917 -0.5748311,0.576086 0,0.318159 0.2573623,0.576082 0.5748311,0.576082 0.317469,0 0.574822,-0.257923 0.574822,-0.576082 0,-0.318169 -0.257353,-0.576086 -0.574822,-0.576086 z"
       fill="#4d4d4d"
       id="path43-9-6-6-3-5-6"
       style="fill:#000000;fill-opacity:1;stroke-width:1.08124"
       sodipodi:nodetypes="cccccsssssssssssssss" />
  </g>
  <path
     d="m 20.249238,12.615 z m -1.55167,14.930242 c -1.199861,0 -2.172568,0.974831 -2.172568,2.177337 0,1.202506 0.972707,2.17733 2.172568,2.17733 1.199881,0 2.172579,-0.974824 2.172579,-2.17733 0,-1.202506 -0.972698,-2.177337 -2.172579,-2.177337 z m 8.690298,0 c -1.199893,0 -2.172579,0.974831 -2.172579,2.177337 0,1.202506 0.972686,2.17733 2.172579,2.17733 1.199873,0 2.172569,-0.974824 2.172569,-2.17733 0,-1.202506 -0.972696,-2.177337 -2.172569,-2.177337 z m 8.690284,0 c -1.19988,0 -2.172566,0.974831 -2.172566,2.177337 0,1.202506 0.972686,2.17733 2.172566,2.17733 1.199898,0 2.172578,-0.974824 2.172578,-2.17733 0,-1.202506 -0.97268,-2.177337 -2.172578,-2.177337 z"
     fill="#4d4d4d"
     id="path43-9-2-7-7-5-3"
     style="fill:#000000;fill-opacity:1;stroke-width:4.08658"
     sodipodi:nodetypes="cccccsssssssssssssss" />
</svg>
