<?xml version="1.0" encoding="UTF-8" standalone="no"?>
<svg
   clip-rule="evenodd"
   fill-rule="evenodd"
   stroke-linejoin="round"
   stroke-miterlimit="2"
   viewBox="0 0 62 62"
   version="1.1"
   id="svg12"
   sodipodi:docname="preferences-system-windows-effect-logout.svg"
   width="62"
   height="62"
   inkscape:version="1.4 (e7c3feb100, 2024-10-09)"
   xmlns:inkscape="http://www.inkscape.org/namespaces/inkscape"
   xmlns:sodipodi="http://sodipodi.sourceforge.net/DTD/sodipodi-0.dtd"
   xmlns:xlink="http://www.w3.org/1999/xlink"
   xmlns="http://www.w3.org/2000/svg"
   xmlns:svg="http://www.w3.org/2000/svg">
  <defs
     id="defs12">
    <linearGradient
       id="linearGradient12"
       inkscape:collect="always">
      <stop
         style="stop-color:#4b545c;stop-opacity:1;"
         offset="0"
         id="stop12" />
      <stop
         style="stop-color:#6c7884;stop-opacity:1;"
         offset="1"
         id="stop13" />
    </linearGradient>
    <linearGradient
       inkscape:collect="always"
       xlink:href="#linearGradient12"
       id="linearGradient13"
       x1="30.332001"
       y1="2.332"
       x2="30.332001"
       y2="58.332001"
       gradientUnits="userSpaceOnUse"
       gradientTransform="translate(0.668,0.668)" />
  </defs>
  <sodipodi:namedview
     id="namedview12"
     pagecolor="#ffffff"
     bordercolor="#000000"
     borderopacity="0.25"
     inkscape:showpageshadow="2"
     inkscape:pageopacity="0.0"
     inkscape:pagecheckerboard="0"
     inkscape:deskcolor="#d1d1d1"
     inkscape:zoom="7.8541665"
     inkscape:cx="11.90451"
     inkscape:cy="44.816977"
     inkscape:window-width="1920"
     inkscape:window-height="994"
     inkscape:window-x="0"
     inkscape:window-y="0"
     inkscape:window-maximized="1"
     inkscape:current-layer="svg12" />
  <linearGradient
     id="a"
     x2="1"
     gradientTransform="matrix(0,-46.799983,46.799983,0,631.81771,53.745883)"
     gradientUnits="userSpaceOnUse">
    <stop
       stop-color="#566069"
       offset="0"
       id="stop1" />
    <stop
       stop-color="#6c7884"
       offset="1"
       id="stop2" />
  </linearGradient>
  <linearGradient
     id="b"
     x2="1"
     gradientTransform="matrix(0,-25.373159,25.373159,0,2512.6636,48.880127)"
     gradientUnits="userSpaceOnUse">
    <stop
       stop-color="#b8b8b8"
       offset="0"
       id="stop3" />
    <stop
       stop-color="#bababa"
       offset="1"
       id="stop4" />
  </linearGradient>
  <path
     d="M 50.952003,3 C 55.394683,3 59,6.6053166 59,11.047997 V 50.952003 C 59,55.394683 55.394683,59 50.952003,59 H 11.047997 C 6.6053166,59 3,55.394683 3,50.952003 V 11.047997 C 3,6.6053166 6.6053166,3 11.047997,3 Z"
     id="path4"
     style="fill:url(#linearGradient13);fill-opacity:1" />
  <path
     d="M 3,12.376408 V 11.047997 C 3,6.6053166 6.6053166,3 11.047997,3 H 50.952003 C 55.394683,3 59,6.6053166 59,11.047997 v 1.328411 z"
     fill="#ebebeb"
     fill-opacity="0.1"
     id="path5"
     style="stroke-width:1.29223" />
  <path
     d="m 39.742706,7.688203 c 0,1.381249 -1.11925,2.500001 -2.500001,2.500001 -1.380749,0 -2.499999,-1.118752 -2.499999,-2.500001 0,-1.381249 1.11925,-2.499999 2.499999,-2.499999 1.380751,0 2.500001,1.11875 2.500001,2.499999 z"
     id="path443"
     style="fill:#ffffff;fill-opacity:1;stroke-width:1.24999" />
  <path
     d="m 47.242702,7.688203 c 0,1.381249 -1.119247,2.500001 -2.499997,2.500001 -1.380753,0 -2.500003,-1.118752 -2.500003,-2.500001 0,-1.381249 1.119253,-2.499999 2.500003,-2.499999 1.38075,0 2.499997,1.11875 2.499997,2.499999 z"
     id="path444"
     style="fill:#ffffff;fill-opacity:1;stroke-width:1.24999" />
  <path
     d="m 54.742701,7.688203 c 0,1.381249 -1.11925,2.500001 -2.499999,2.500001 -1.380751,0 -2.5,-1.118752 -2.5,-2.500001 0,-1.381249 1.119249,-2.499999 2.5,-2.499999 1.380749,0 2.499999,1.11875 2.499999,2.499999 z"
     id="path445"
     style="fill:#ffffff;fill-opacity:1;stroke-width:1.24999" />
  <path
     d="m 25.900015,18.824934 a 1.7000014,1.6954158 0 0 0 -1.699997,1.695417 1.7000014,1.6954158 0 0 0 1.699997,1.695414 1.7000014,1.6954158 0 0 0 1.699997,-1.695414 1.7000014,1.6954158 0 0 0 -1.699997,-1.695417 z m 8.500005,0 -2.549997,2.543127 4.249985,4.238536 -4.249985,4.238541 2.549997,2.543119 6.799969,-6.78166 z m -11.475004,7.62937 a 2.1250012,2.1192698 0 0 0 -2.125004,2.119268 2.1250012,2.1192698 0 0 0 2.125004,2.119278 2.1250012,2.1192698 0 0 0 2.124993,-2.119278 2.1250012,2.1192698 0 0 0 -2.124993,-2.119268 z m 5.524998,7.629375 a 2.550002,2.543124 0 0 0 -2.549999,2.543127 2.550002,2.543124 0 0 0 2.549999,2.543137 2.550002,2.543124 0 0 0 2.550001,-2.543141 2.550002,2.543124 0 0 0 -2.550001,-2.543123 z"
     stroke-width="3.46041"
     id="path782-6-2"
     style="fill:#ffffff;fill-opacity:1" />
  <path
     inkscape:connector-curvature="0"
     d="m 24.845262,47.586626 c 0,0.835014 0.673083,1.507936 1.508288,1.507936 h 5.026719 l -1.077734,1.140493 c -0.573404,0.607148 -0.546945,1.557017 0.06039,2.130281 l 0.05208,0.04649 c 0.607289,0.573283 1.557423,0.546841 2.13082,-0.06026 0.743114,-0.938306 4.608939,-4.744783 4.608939,-4.744783 L 32.567773,42.79697 C 31.994381,42.18984 31.04424,42.163418 30.436966,42.7366 l -0.04938,0.04921 c -0.607277,0.573259 -0.636468,1.523154 -0.06311,2.130284 l 1.058555,1.118637 h -5.029453 c -0.835192,0 -1.508281,0.670179 -1.508281,1.505155 v 0.04649 z"
     id="rect2883"
     sodipodi:nodetypes="cscccccccccccsscc"
     stroke-miterlimit="4"
     stroke-dasharray="none"
     stroke-opacity="1"
     stroke-linejoin="round"
     fill-opacity="1"
     stroke-linecap="round"
     stroke-width="0.206481"
     style="fill:#ffffff;fill-opacity:1" />
</svg>
