<?xml version="1.0" encoding="UTF-8" standalone="no"?>
<svg
   clip-rule="evenodd"
   fill-rule="evenodd"
   stroke-linejoin="round"
   stroke-miterlimit="2"
   viewBox="0 0 62 62"
   version="1.1"
   id="svg12"
   sodipodi:docname="preferences-system-windows-effect-mousemark.svg"
   width="62"
   height="62"
   inkscape:version="1.4 (e7c3feb100, 2024-10-09)"
   xmlns:inkscape="http://www.inkscape.org/namespaces/inkscape"
   xmlns:sodipodi="http://sodipodi.sourceforge.net/DTD/sodipodi-0.dtd"
   xmlns:xlink="http://www.w3.org/1999/xlink"
   xmlns="http://www.w3.org/2000/svg"
   xmlns:svg="http://www.w3.org/2000/svg">
  <defs
     id="defs12">
    <linearGradient
       id="linearGradient12"
       inkscape:collect="always">
      <stop
         style="stop-color:#4b545c;stop-opacity:1;"
         offset="0"
         id="stop12" />
      <stop
         style="stop-color:#6c7884;stop-opacity:1;"
         offset="1"
         id="stop13" />
    </linearGradient>
    <linearGradient
       inkscape:collect="always"
       xlink:href="#linearGradient12"
       id="linearGradient13"
       x1="30.332001"
       y1="2.332"
       x2="30.332001"
       y2="58.332001"
       gradientUnits="userSpaceOnUse"
       gradientTransform="translate(0.668,0.668)" />
  </defs>
  <sodipodi:namedview
     id="namedview12"
     pagecolor="#ffffff"
     bordercolor="#000000"
     borderopacity="0.25"
     inkscape:showpageshadow="2"
     inkscape:pageopacity="0.0"
     inkscape:pagecheckerboard="0"
     inkscape:deskcolor="#d1d1d1"
     inkscape:zoom="7.8541667"
     inkscape:cx="32.02122"
     inkscape:cy="31.830239"
     inkscape:window-width="1920"
     inkscape:window-height="994"
     inkscape:window-x="0"
     inkscape:window-y="0"
     inkscape:window-maximized="1"
     inkscape:current-layer="svg12" />
  <linearGradient
     id="a"
     x2="1"
     gradientTransform="matrix(0,-46.799983,46.799983,0,631.81771,53.745883)"
     gradientUnits="userSpaceOnUse">
    <stop
       stop-color="#566069"
       offset="0"
       id="stop1" />
    <stop
       stop-color="#6c7884"
       offset="1"
       id="stop2" />
  </linearGradient>
  <linearGradient
     id="b"
     x2="1"
     gradientTransform="matrix(0,-25.373159,25.373159,0,2512.6636,48.880127)"
     gradientUnits="userSpaceOnUse">
    <stop
       stop-color="#b8b8b8"
       offset="0"
       id="stop3" />
    <stop
       stop-color="#bababa"
       offset="1"
       id="stop4" />
  </linearGradient>
  <path
     d="M 50.952003,3 C 55.394683,3 59,6.6053166 59,11.047997 V 50.952003 C 59,55.394683 55.394683,59 50.952003,59 H 11.047997 C 6.6053166,59 3,55.394683 3,50.952003 V 11.047997 C 3,6.6053166 6.6053166,3 11.047997,3 Z"
     id="path4"
     style="fill:url(#linearGradient13);fill-opacity:1" />
  <path
     d="M 3,12.376408 V 11.047997 C 3,6.6053166 6.6053166,3 11.047997,3 H 50.952003 C 55.394683,3 59,6.6053166 59,11.047997 v 1.328411 z"
     fill="#ebebeb"
     fill-opacity="0.1"
     id="path5"
     style="stroke-width:1.29223" />
  <path
     d="m 39.742706,7.688203 c 0,1.381249 -1.11925,2.500001 -2.500001,2.500001 -1.380749,0 -2.499999,-1.118752 -2.499999,-2.500001 0,-1.381249 1.11925,-2.499999 2.499999,-2.499999 1.380751,0 2.500001,1.11875 2.500001,2.499999 z"
     id="path443"
     style="fill:#ffffff;fill-opacity:1;stroke-width:1.24999" />
  <path
     d="m 47.242702,7.688203 c 0,1.381249 -1.119247,2.500001 -2.499997,2.500001 -1.380753,0 -2.500003,-1.118752 -2.500003,-2.500001 0,-1.381249 1.119253,-2.499999 2.500003,-2.499999 1.38075,0 2.499997,1.11875 2.499997,2.499999 z"
     id="path444"
     style="fill:#ffffff;fill-opacity:1;stroke-width:1.24999" />
  <path
     d="m 54.742701,7.688203 c 0,1.381249 -1.11925,2.500001 -2.499999,2.500001 -1.380751,0 -2.5,-1.118752 -2.5,-2.500001 0,-1.381249 1.119249,-2.499999 2.5,-2.499999 1.380749,0 2.499999,1.11875 2.499999,2.499999 z"
     id="path445"
     style="fill:#ffffff;fill-opacity:1;stroke-width:1.24999" />
  <g
     id="g1"
     transform="translate(-2.0371353,-49.355)">
    <path
       sodipodi:nodetypes="ccccccccc"
       inkscape:transform-center-y="0.64954115"
       inkscape:transform-center-x="-0.71504343"
       inkscape:connector-curvature="0"
       id="path4929-0-1-6"
       d="M 31.237319,65 C 23.374206,65 17,71.37444 17,79.236686 c 0.01064,7.073521 5.203314,13.068368 12.20332,14.077999 v 0 c -5.489351,-0.983568 -9.486627,-8.50008 -9.491472,-14.077999 0,-6.365482 5.160159,-11.525643 11.525472,-11.525643 6.10057,0 11.142779,4.759001 11.501585,10.848134 H 45.44018 C 45.078652,70.976102 38.829794,65.009789 31.237319,65 Z"
       style="fill:#ffa92d;fill-opacity:1;stroke:none;stroke-width:1.81541;stroke-miterlimit:4;stroke-dasharray:none;stroke-opacity:1" />
    <path
       sodipodi:nodetypes="cccccc"
       inkscape:connector-curvature="0"
       id="path3478-1-1"
       d="M 30.559282,78.559177 30.571628,105 38.691279,94.151862 H 50.894792 L 30.55962,78.559177 Z"
       style="fill:#ffffff;fill-opacity:1;stroke:none;stroke-width:0.907711;stroke-opacity:1" />
  </g>
</svg>
