<?xml version="1.0" encoding="UTF-8" standalone="no"?>
<svg
   clip-rule="evenodd"
   fill-rule="evenodd"
   stroke-linejoin="round"
   stroke-miterlimit="2"
   viewBox="0 0 62 62"
   version="1.1"
   id="svg10"
   sodipodi:docname="preferences-system-windows-effect-magnifier.svg"
   width="62"
   height="62"
   inkscape:version="1.4 (e7c3feb100, 2024-10-09)"
   xmlns:inkscape="http://www.inkscape.org/namespaces/inkscape"
   xmlns:sodipodi="http://sodipodi.sourceforge.net/DTD/sodipodi-0.dtd"
   xmlns:xlink="http://www.w3.org/1999/xlink"
   xmlns="http://www.w3.org/2000/svg"
   xmlns:svg="http://www.w3.org/2000/svg">
  <defs
     id="defs10">
    <linearGradient
       id="linearGradient1"
       inkscape:collect="always">
      <stop
         style="stop-color:#ffffff;stop-opacity:1;"
         offset="0"
         id="stop3" />
      <stop
         style="stop-color:#ffffff;stop-opacity:1;"
         offset="1"
         id="stop4" />
    </linearGradient>
    <linearGradient
       id="linearGradient10"
       inkscape:collect="always">
      <stop
         style="stop-color:#6c7884;stop-opacity:1;"
         offset="0"
         id="stop10" />
      <stop
         style="stop-color:#515862;stop-opacity:1;"
         offset="1"
         id="stop11" />
    </linearGradient>
    <linearGradient
       inkscape:collect="always"
       xlink:href="#linearGradient10"
       id="linearGradient11"
       x1="31"
       y1="59"
       x2="31"
       y2="3"
       gradientUnits="userSpaceOnUse" />
    <linearGradient
       y2="502.65509"
       x2="0"
       y1="543.79797"
       gradientTransform="matrix(0.81020777,0,0,0.77194559,-390.94184,-339.33963)"
       gradientUnits="userSpaceOnUse"
       id="linearGradient4643-8-2-8-02-9-9"
       xlink:href="#linearGradient4303-6"
       inkscape:collect="always" />
    <linearGradient
       inkscape:collect="always"
       id="linearGradient4303-6">
      <stop
         stop-color="#c6cdd1"
         id="stop12-3" />
      <stop
         offset="1"
         stop-color="#e0e5e7"
         id="stop14-6" />
    </linearGradient>
    <linearGradient
       inkscape:collect="always"
       xlink:href="#linearGradient4303"
       id="linearGradient5"
       gradientUnits="userSpaceOnUse"
       gradientTransform="matrix(-0.60765575,0,0,0.60765575,488.82078,-83.22401)"
       x1="759.85718"
       y1="179.93361"
       x2="779.85718"
       y2="199.93361" />
    <linearGradient
       inkscape:collect="always"
       id="linearGradient4303">
      <stop
         id="stop3582"
         stop-color="#197cf1" />
      <stop
         id="stop3584"
         stop-color="#21c9fb"
         offset="1" />
    </linearGradient>
    <linearGradient
       inkscape:collect="always"
       xlink:href="#linearGradient9932"
       id="linearGradient8"
       gradientUnits="userSpaceOnUse"
       gradientTransform="matrix(0.60765575,0,0,0.60765575,2.267801,-133.79221)"
       x1="26"
       y1="262.30957"
       x2="62"
       y2="262.30957" />
    <linearGradient
       inkscape:collect="always"
       id="linearGradient9932">
      <stop
         style="stop-color:#ffa92d;stop-opacity:1;"
         offset="0"
         id="stop9934" />
      <stop
         style="stop-color:#ffa92d;stop-opacity:0;"
         offset="1"
         id="stop9936" />
    </linearGradient>
    <linearGradient
       inkscape:collect="always"
       xlink:href="#linearGradient1"
       id="linearGradient4"
       x1="13.41475"
       y1="43.272596"
       x2="37.960207"
       y2="43.272596"
       gradientUnits="userSpaceOnUse" />
  </defs>
  <sodipodi:namedview
     id="namedview10"
     pagecolor="#ffffff"
     bordercolor="#000000"
     borderopacity="0.25"
     inkscape:showpageshadow="2"
     inkscape:pageopacity="0.0"
     inkscape:pagecheckerboard="0"
     inkscape:deskcolor="#d1d1d1"
     inkscape:zoom="7.8541667"
     inkscape:cx="12.668435"
     inkscape:cy="42.270557"
     inkscape:window-width="1920"
     inkscape:window-height="994"
     inkscape:window-x="0"
     inkscape:window-y="0"
     inkscape:window-maximized="1"
     inkscape:current-layer="svg10" />
  <linearGradient
     id="a"
     x2="1"
     gradientTransform="matrix(0,-46.799983,46.799983,0,632.48571,54.413883)"
     gradientUnits="userSpaceOnUse">
    <stop
       stop-color="#566069"
       offset="0"
       id="stop1" />
    <stop
       stop-color="#6c7884"
       offset="1"
       id="stop2" />
  </linearGradient>
  <path
     d="M 50.952003,3 C 55.394683,3 59,6.6053166 59,11.047997 V 50.952003 C 59,55.394683 55.394683,59 50.952003,59 H 11.047997 C 6.6053166,59 3,55.394683 3,50.952003 V 11.047997 C 3,6.6053166 6.6053166,3 11.047997,3 Z"
     id="path2"
     style="fill:url(#linearGradient11);fill-opacity:0.5" />
  <path
     d="M 3,12.376408 V 11.047997 C 3,6.6053166 6.6053166,3 11.047997,3 H 50.952003 C 55.394683,3 59,6.6053166 59,11.047997 v 1.328411 z"
     fill-opacity="0.1"
     id="path3"
     style="stroke-width:1.29223;fill:#e5e5e5;fill-opacity:0.1" />
  <path
     d="m 37.920424,7.8690441 c 0,1.381249 -1.11925,2.5000009 -2.500001,2.5000009 -1.380749,0 -2.499999,-1.1187519 -2.499999,-2.5000009 0,-1.381249 1.11925,-2.499999 2.499999,-2.499999 1.380751,0 2.500001,1.11875 2.500001,2.499999 z"
     id="path443"
     style="fill:#ffffff;fill-opacity:1;stroke-width:1.24999" />
  <path
     d="m 45.42042,7.8690441 c 0,1.381249 -1.119247,2.5000009 -2.499997,2.5000009 -1.380753,0 -2.500003,-1.1187519 -2.500003,-2.5000009 0,-1.381249 1.119253,-2.499999 2.500003,-2.499999 1.38075,0 2.499997,1.11875 2.499997,2.499999 z"
     id="path444"
     style="fill:#ffffff;fill-opacity:1;stroke-width:1.24999" />
  <path
     d="m 52.920419,7.8690441 c 0,1.381249 -1.11925,2.5000009 -2.499999,2.5000009 -1.380751,0 -2.5,-1.1187519 -2.5,-2.5000009 0,-1.381249 1.119249,-2.499999 2.5,-2.499999 1.380749,0 2.499999,1.11875 2.499999,2.499999 z"
     id="path445"
     style="fill:#ffffff;fill-opacity:1;stroke-width:1.24999" />
  <rect
     style="fill:#eff0f1;stroke-width:0.607651"
     id="rect43-4-4-9-8"
     rx="1.8181832"
     y="17.36388"
     x="46.142029"
     height="3.6363664"
     width="3.6363664"
     ry="1.8181832" />
  <path
     inkscape:connector-curvature="0"
     id="rect29-9-0-6-2-4"
     d="m 18.760994,32.817799 a 8.181822,8.181822 0 0 0 -4.437145,7.272736 8.181822,8.181822 0 0 0 8.181811,8.182192 8.181822,8.181822 0 0 0 8.181852,-8.182192 8.181822,8.181822 0 0 0 -4.451355,-7.272736 z"
     style="fill:url(#linearGradient4643-8-2-8-02-9-9);stroke-width:0.607651" />
  <path
     sodipodi:nodetypes="cccccccc"
     inkscape:connector-curvature="0"
     id="rect35-3-2-6-2-5"
     d="m 18.178419,32.817799 c -2.724045,1.402829 -4.166356,4.210075 -4.167047,7.272736 9.04e-4,1.262203 0.606416,2.506619 1.168307,3.635916 H 29.824576 C 30.388842,42.597637 30.996723,41.381857 31,40.119327 30.9969,37.052121 29.78073,34.21606 27.051139,32.817799 26.538407,31.903305 23.978107,31.509444 22.50566,31 Z"
     style="fill:#566069;stroke-width:0.607651" />
  <path
     inkscape:connector-curvature="0"
     id="rect37-7-4-1-8-0"
     d="m 15.179679,43.726451 a 8.181822,8.181822 0 0 0 1.241109,1.818862 h 12.171533 a 8.181822,8.181822 0 0 0 1.232255,-1.818862 z"
     style="fill:#3daee9;stroke-width:0.607651" />
  <rect
     style="fill:#eff0f1;stroke-width:0.607651"
     id="rect43-4-8-5-9-3"
     rx="3.6363614"
     y="34.635887"
     x="20.68746"
     height="7.2727227"
     width="7.2727227"
     ry="3.6363614" />
  <path
     inkscape:connector-curvature="0"
     id="path5346-7-4-5-7-6"
     d="m 22.50566,31 a 9.0909078,9.0909074 0 0 0 -9.09091,9.090535 9.0909078,9.0909074 0 0 0 9.09091,9.091356 9.0909078,9.0909074 0 0 0 6.091983,-2.356224 l 8.719822,8.719526 0.642742,-0.642829 -8.719823,-8.719983 A 9.0909078,9.0909074 0 0 0 31.59658,40.090535 9.0909078,9.0909074 0 0 0 22.50566,31 Z m 0,0.908493 a 8.181822,8.181822 0 0 1 8.181852,8.182042 8.181822,8.181822 0 0 1 -8.181852,8.182192 8.181822,8.181822 0 0 1 -8.181811,-8.182192 8.181822,8.181822 0 0 1 8.181811,-8.182042 z"
     style="fill:url(#linearGradient5);fill-opacity:1;stroke:none;stroke-width:1.21527;stroke-miterlimit:4;stroke-dasharray:none;stroke-opacity:1" />
  <path
     inkscape:connector-curvature="0"
     id="path5635-7-3-1"
     d="m 47.051139,15.545193 a 4.5454526,4.5454526 0 0 0 -4.545454,4.545197 4.5454526,4.5454526 0 0 0 4.545454,4.545669 4.5454526,4.5454526 0 0 0 4.545435,-4.545669 4.5454526,4.5454526 0 0 0 -4.545435,-4.545197 z m 0,0.909289 a 3.6363623,3.6363623 0 0 1 3.636359,3.635908 3.6363623,3.6363623 0 0 1 -3.636359,3.636064 3.6363623,3.6363623 0 0 1 -3.636379,-3.636064 3.6363623,3.6363623 0 0 1 3.636379,-3.635908 z"
     style="fill:#f9f9f9;fill-opacity:1;stroke:none;stroke-width:1.21527;stroke-miterlimit:4;stroke-dasharray:none;stroke-opacity:1" />
  <path
     inkscape:connector-curvature="0"
     id="path5346-7-4-5-9-6-0"
     d="m 22.50566,31 a 9.0909078,9.0909074 0 0 0 -9.09091,9.090535 9.0909078,9.0909074 0 0 0 9.09091,9.091356 9.0909078,9.0909074 0 0 0 6.091983,-2.356224 l 8.719822,8.719526 0.642742,-0.642829 -8.719823,-8.719983 A 9.0909078,9.0909074 0 0 0 31.59658,40.090535 9.0909078,9.0909074 0 0 0 22.50566,31 Z m 0,0.908493 a 8.181822,8.181822 0 0 1 8.181852,8.182042 8.181822,8.181822 0 0 1 -8.181852,8.182192 8.181822,8.181822 0 0 1 -8.181811,-8.182192 8.181822,8.181822 0 0 1 8.181811,-8.182042 z"
     style="fill:#f9f9f9;fill-opacity:1;stroke:url(#linearGradient4);stroke-width:1.21527;stroke-miterlimit:4;stroke-dasharray:none;stroke-opacity:1" />
  <path
     inkscape:connector-curvature="0"
     id="path9924-1-6"
     d="M 44.114977,16.664 19.4328,31.132664 a 9.0909078,9.0909074 0 0 1 3.773077,-0.832755 9.0909078,9.0909074 0 0 1 9.09092,9.090535 9.0909078,9.0909074 0 0 1 -1.57138,5.108815 l 19.75319,-21.472896 h -0.0032 a 4.5454526,4.5454526 0 0 1 -2.723701,0.913544 4.5454526,4.5454526 0 0 1 -4.54545,-4.545668 4.5454526,4.5454526 0 0 1 0.912659,-2.723939 h -0.0031 z m -26.280187,15.404092 -0.08379,0.04563 0.0034,0.01553 a 9.0909078,9.0909074 0 0 1 0.07785,-0.05679 z"
     style="fill:url(#linearGradient8);fill-opacity:1;fill-rule:evenodd;stroke:none;stroke-width:0.607651px;stroke-linecap:butt;stroke-linejoin:miter;stroke-opacity:1" />
</svg>
