<?xml version="1.0" encoding="UTF-8" standalone="no"?>
<svg
   clip-rule="evenodd"
   fill-rule="evenodd"
   stroke-linejoin="round"
   stroke-miterlimit="2"
   viewBox="0 0 62 62"
   version="1.1"
   id="svg12"
   sodipodi:docname="preferences-system-windows-effect-kscreen.svg"
   width="62"
   height="62"
   inkscape:version="1.4 (e7c3feb100, 2024-10-09)"
   xmlns:inkscape="http://www.inkscape.org/namespaces/inkscape"
   xmlns:sodipodi="http://sodipodi.sourceforge.net/DTD/sodipodi-0.dtd"
   xmlns:xlink="http://www.w3.org/1999/xlink"
   xmlns="http://www.w3.org/2000/svg"
   xmlns:svg="http://www.w3.org/2000/svg">
  <defs
     id="defs12">
    <linearGradient
       id="linearGradient12"
       inkscape:collect="always">
      <stop
         style="stop-color:#4b545c;stop-opacity:1;"
         offset="0"
         id="stop12" />
      <stop
         style="stop-color:#6c7884;stop-opacity:1;"
         offset="1"
         id="stop13" />
    </linearGradient>
    <linearGradient
       inkscape:collect="always"
       xlink:href="#linearGradient12"
       id="linearGradient13"
       x1="30.332001"
       y1="2.332"
       x2="30.332001"
       y2="58.332001"
       gradientUnits="userSpaceOnUse"
       gradientTransform="translate(0.668,0.668)" />
  </defs>
  <sodipodi:namedview
     id="namedview12"
     pagecolor="#ffffff"
     bordercolor="#000000"
     borderopacity="0.25"
     inkscape:showpageshadow="2"
     inkscape:pageopacity="0.0"
     inkscape:pagecheckerboard="0"
     inkscape:deskcolor="#d1d1d1"
     inkscape:zoom="7.8541665"
     inkscape:cx="8.8488065"
     inkscape:cy="31.193635"
     inkscape:window-width="1920"
     inkscape:window-height="994"
     inkscape:window-x="0"
     inkscape:window-y="0"
     inkscape:window-maximized="1"
     inkscape:current-layer="svg12" />
  <linearGradient
     id="a"
     x2="1"
     gradientTransform="matrix(0,-46.799983,46.799983,0,631.81771,53.745883)"
     gradientUnits="userSpaceOnUse">
    <stop
       stop-color="#566069"
       offset="0"
       id="stop1" />
    <stop
       stop-color="#6c7884"
       offset="1"
       id="stop2" />
  </linearGradient>
  <linearGradient
     id="b"
     x2="1"
     gradientTransform="matrix(0,-25.373159,25.373159,0,2512.6636,48.880127)"
     gradientUnits="userSpaceOnUse">
    <stop
       stop-color="#b8b8b8"
       offset="0"
       id="stop3" />
    <stop
       stop-color="#bababa"
       offset="1"
       id="stop4" />
  </linearGradient>
  <path
     d="M 50.952003,3 C 55.394683,3 59,6.6053166 59,11.047997 V 50.952003 C 59,55.394683 55.394683,59 50.952003,59 H 11.047997 C 6.6053166,59 3,55.394683 3,50.952003 V 11.047997 C 3,6.6053166 6.6053166,3 11.047997,3 Z"
     id="path4"
     style="fill:url(#linearGradient13);fill-opacity:1" />
  <path
     d="M 3,12.376408 V 11.047997 C 3,6.6053166 6.6053166,3 11.047997,3 H 50.952003 C 55.394683,3 59,6.6053166 59,11.047997 v 1.328411 z"
     fill="#ebebeb"
     fill-opacity="0.1"
     id="path5"
     style="stroke-width:1.29223" />
  <path
     d="m 39.742706,7.688203 c 0,1.381249 -1.11925,2.500001 -2.500001,2.500001 -1.380749,0 -2.499999,-1.118752 -2.499999,-2.500001 0,-1.381249 1.11925,-2.499999 2.499999,-2.499999 1.380751,0 2.500001,1.11875 2.500001,2.499999 z"
     id="path443"
     style="fill:#ffffff;fill-opacity:1;stroke-width:1.24999" />
  <path
     d="m 47.242702,7.688203 c 0,1.381249 -1.119247,2.500001 -2.499997,2.500001 -1.380753,0 -2.500003,-1.118752 -2.500003,-2.500001 0,-1.381249 1.119253,-2.499999 2.500003,-2.499999 1.38075,0 2.499997,1.11875 2.499997,2.499999 z"
     id="path444"
     style="fill:#ffffff;fill-opacity:1;stroke-width:1.24999" />
  <path
     d="m 54.742701,7.688203 c 0,1.381249 -1.11925,2.500001 -2.499999,2.500001 -1.380751,0 -2.5,-1.118752 -2.5,-2.500001 0,-1.381249 1.119249,-2.499999 2.5,-2.499999 1.380749,0 2.499999,1.11875 2.499999,2.499999 z"
     id="path445"
     style="fill:#ffffff;fill-opacity:1;stroke-width:1.24999" />
  <path
     style="fill:#f9f9f9;fill-opacity:1;stroke:none;stroke-width:3.75294;stroke-miterlimit:4;stroke-dasharray:none;stroke-opacity:0.0196078"
     d="m 43.168811,19.975975 c -0.250015,-0.03628 -0.49497,-0.05435 -0.730907,-0.0613 l -5.070781,-0.13511 a 1.4115593,1.4004095 0 1 0 -0.07287,2.798405 l 5.06987,0.136554 c 0.604011,0.01788 1.007815,0.154772 1.193999,0.310866 0.186104,0.156552 0.395032,0.409521 0.369071,1.387083 l -0.150274,5.71214 a 1.4115593,1.4004095 0 1 0 2.820506,0.0808 l 0.150237,-5.709911 c 0.04038,-1.522754 -0.444186,-2.815681 -1.356167,-3.590289 -0.683992,-0.580438 -1.472931,-0.82782 -2.222767,-0.924912 z m -17.879323,0.08076 a 1.4115593,1.4004095 0 0 0 -0.238749,-0.02646 L 19.97934,19.883746 c -0.943581,-0.03213 -2.049205,0.09332 -3.003154,0.814448 -0.953924,0.721124 -1.509402,1.991615 -1.554423,3.513816 l -0.17102,5.706149 a 1.4119914,1.4008382 0 1 0 2.822552,0.08916 l 0.168181,-5.712978 c 0.02699,-0.978677 0.252042,-1.218538 0.446707,-1.364794 0.194672,-0.147821 0.606429,-0.259238 1.210438,-0.240684 l 5.068482,0.146271 a 1.4115593,1.4004095 0 0 0 0.322662,-2.776538 z m 8.230691,8.289069 c -0.05802,-0.01663 -0.121039,-0.02646 -0.18909,-0.02797 l -2.055135,-0.02801 -0.755815,-0.01398 -2.055977,-0.0291 c -0.544368,-0.01356 -0.756048,0.476792 -0.993445,0.961963 l -0.567676,1.162819 -3.395422,-0.02797 c -0.86776,-0.01398 -1.571659,0.680793 -1.577885,1.541623 l -0.06554,9.198096 c -0.0051,0.860818 0.687071,1.560068 1.554828,1.564948 l 14.669734,0.111571 c 0.86776,0.01474 1.570685,-0.682669 1.576921,-1.543094 l 0.06656,-9.197907 c 0.0076,-0.859738 -0.687212,-1.558294 -1.554943,-1.564565 l -3.353315,-0.02646 -0.521581,-1.136355 C 34.105005,28.859969 33.926536,28.43346 33.520201,28.328574 Z m -1.981896,3.545443 c 2.37199,0.374141 4.003358,2.606599 3.625785,4.959956 -0.377571,2.352404 -2.626637,3.971524 -4.998629,3.596697 -2.371971,-0.374404 -4.004314,-2.605773 -3.62676,-4.95941 0.377637,-2.353077 2.62764,-3.970968 4.999604,-3.597243 z m -0.266294,1.659118 c -1.468032,-0.231497 -2.829473,0.744522 -3.063164,2.201532 -0.23362,1.457424 0.754909,2.804122 2.222947,3.036741 1.468004,0.23142 2.824659,-0.74634 3.058321,-2.20224 0.233697,-1.4577 -0.750089,-2.80411 -2.218104,-3.036033 z m 14.141616,6.476439 a 1.4115593,1.4004095 0 0 0 -1.639918,1.433478 l 0.129562,5.709354 c 0.02305,0.979367 -0.188938,1.231643 -0.375345,1.389325 -0.186671,0.157115 -0.590551,0.288378 -1.194659,0.300208 l -5.072531,0.115729 a 1.4123701,1.4012139 0 1 0 0.06066,2.80173 l 5.07238,-0.115578 c 0.943752,-0.0257 2.04288,-0.199824 2.95821,-0.970874 0.915292,-0.769856 1.404325,-2.06013 1.370532,-3.583027 l -0.12582,-5.708795 a 1.4115593,1.4004095 0 0 0 -1.183143,-1.372921 z m -28.527761,0.09751 a 1.4115593,1.4004095 0 0 0 -1.633837,1.436675 l 0.145716,5.710035 c 0.0385,1.522896 0.587164,2.791582 1.538008,3.517436 0.950824,0.725726 2.056796,0.852344 3.000484,0.82797 l 5.071004,-0.128088 a 1.4115593,1.4004095 0 1 0 -0.07231,-2.799322 l -5.070847,0.126614 c -0.604053,0.01852 -1.012763,-0.111459 -1.206669,-0.249563 -0.19423,-0.147892 -0.414827,-0.387628 -0.439525,-1.365362 L 18.07383,41.487817 a 1.4115593,1.4004095 0 0 0 -1.188005,-1.365249 z"
     id="rect1696-7-9"
     inkscape:connector-curvature="0" />
</svg>
