<?xml version="1.0" encoding="UTF-8" standalone="no"?>
<svg
   clip-rule="evenodd"
   fill-rule="evenodd"
   stroke-linejoin="round"
   stroke-miterlimit="2"
   viewBox="0 0 62 62"
   version="1.1"
   id="svg10"
   sodipodi:docname="preferences-system-windows-effect-slideback.svg"
   width="62"
   height="62"
   inkscape:version="1.4 (e7c3feb100, 2024-10-09)"
   xmlns:inkscape="http://www.inkscape.org/namespaces/inkscape"
   xmlns:sodipodi="http://sodipodi.sourceforge.net/DTD/sodipodi-0.dtd"
   xmlns:xlink="http://www.w3.org/1999/xlink"
   xmlns="http://www.w3.org/2000/svg"
   xmlns:svg="http://www.w3.org/2000/svg">
  <defs
     id="defs10">
    <linearGradient
       id="linearGradient1"
       inkscape:collect="always">
      <stop
         style="stop-color:#2a7fff;stop-opacity:1;"
         offset="0"
         id="stop3" />
      <stop
         style="stop-color:#2a7fff;stop-opacity:1;"
         offset="1"
         id="stop4" />
    </linearGradient>
    <linearGradient
       id="linearGradient10"
       inkscape:collect="always">
      <stop
         style="stop-color:#6c7884;stop-opacity:1;"
         offset="0"
         id="stop10" />
      <stop
         style="stop-color:#515862;stop-opacity:1;"
         offset="1"
         id="stop11" />
    </linearGradient>
    <linearGradient
       inkscape:collect="always"
       xlink:href="#linearGradient10"
       id="linearGradient11"
       x1="31"
       y1="59"
       x2="31"
       y2="3"
       gradientUnits="userSpaceOnUse" />
    <linearGradient
       inkscape:collect="always"
       xlink:href="#linearGradient1"
       id="linearGradient4"
       x1="15.923439"
       y1="43.261663"
       x2="27.822812"
       y2="43.261663"
       gradientUnits="userSpaceOnUse" />
  </defs>
  <sodipodi:namedview
     id="namedview10"
     pagecolor="#ffffff"
     bordercolor="#000000"
     borderopacity="0.25"
     inkscape:showpageshadow="2"
     inkscape:pageopacity="0.0"
     inkscape:pagecheckerboard="0"
     inkscape:deskcolor="#d1d1d1"
     inkscape:zoom="7.7180575"
     inkscape:cx="31.16069"
     inkscape:cy="53.122175"
     inkscape:window-width="1920"
     inkscape:window-height="994"
     inkscape:window-x="0"
     inkscape:window-y="0"
     inkscape:window-maximized="1"
     inkscape:current-layer="svg10" />
  <linearGradient
     id="a"
     x2="1"
     gradientTransform="matrix(0,-46.799983,46.799983,0,632.48571,54.413883)"
     gradientUnits="userSpaceOnUse">
    <stop
       stop-color="#566069"
       offset="0"
       id="stop1" />
    <stop
       stop-color="#6c7884"
       offset="1"
       id="stop2" />
  </linearGradient>
  <path
     d="M 50.952003,3 C 55.394683,3 59,6.6053166 59,11.047997 V 50.952003 C 59,55.394683 55.394683,59 50.952003,59 H 11.047997 C 6.6053166,59 3,55.394683 3,50.952003 V 11.047997 C 3,6.6053166 6.6053166,3 11.047997,3 Z"
     id="path2"
     style="fill:url(#linearGradient11);fill-opacity:0.5" />
  <path
     d="M 3,12.376408 V 11.047997 C 3,6.6053166 6.6053166,3 11.047997,3 H 50.952003 C 55.394683,3 59,6.6053166 59,11.047997 v 1.328411 z"
     fill-opacity="0.1"
     id="path3"
     style="stroke-width:1.29223;fill:#e5e5e5;fill-opacity:0.1" />
  <path
     d="m 39.575597,7.887999 c 0,1.381249 -1.11925,2.500001 -2.500001,2.500001 -1.380749,0 -2.499999,-1.118752 -2.499999,-2.500001 0,-1.381249 1.11925,-2.499999 2.499999,-2.499999 1.380751,0 2.500001,1.11875 2.500001,2.499999 z"
     id="path443"
     style="fill:#ffffff;fill-opacity:1;stroke-width:1.24999" />
  <path
     d="m 47.075593,7.887999 c 0,1.381249 -1.119247,2.500001 -2.499997,2.500001 -1.380753,0 -2.500003,-1.118752 -2.500003,-2.500001 0,-1.381249 1.119253,-2.499999 2.500003,-2.499999 1.38075,0 2.499997,1.11875 2.499997,2.499999 z"
     id="path444"
     style="fill:#ffffff;fill-opacity:1;stroke-width:1.24999" />
  <path
     d="m 54.575592,7.887999 c 0,1.381249 -1.11925,2.500001 -2.499999,2.500001 -1.380751,0 -2.5,-1.118752 -2.5,-2.500001 0,-1.381249 1.119249,-2.499999 2.5,-2.499999 1.380749,0 2.499999,1.11875 2.499999,2.499999 z"
     id="path445"
     style="fill:#ffffff;fill-opacity:1;stroke-width:1.24999" />
  <rect
     style="fill:#f9f9f9;fill-opacity:0.6;stroke:none;stroke-width:0.656963;stroke-linejoin:round;stroke-dashoffset:1;stroke-opacity:1"
     id="rect898-36"
     width="29.772564"
     height="23.946016"
     x="25.40127"
     y="17.516588"
     rx="2.1970637"
     ry="2.2379594" />
  <path
     id="path900-7"
     style="fill:#262626;fill-opacity:1;stroke:none;stroke-width:0.656963;stroke-linejoin:round;stroke-dashoffset:1;stroke-opacity:1"
     d="M 26.77207,17.167156 53.755093,17.167 c 0.759444,-4e-6 1.482413,0.764145 1.482413,1.563668 v 1.723219 H 25.401281 v -1.842871 c 0,-0.799704 0.611389,-1.443856 1.370789,-1.44386 z"
     sodipodi:nodetypes="sssccss" />
  <rect
     width="1.9890829"
     x="49.775269"
     y="17.866693"
     rx="2.7692297"
     height="2.0246358"
     id="rect25-8-7-7-3-3-53"
     style="fill:#ffffff;stroke-width:0.138468"
     inkscape:transform-center-x="4.8440924"
     inkscape:transform-center-y="-4.0394672"
     ry="2.769228" />
  <rect
     id="rect898-3"
     width="29.772562"
     height="23.946016"
     x="6.7760019"
     y="29.220987"
     rx="2.1970637"
     ry="2.2379594"
     style="fill:#f9f9f9;stroke-width:5.23315" />
  <path
     id="path900-6"
     style="fill:#2b2b2b;fill-opacity:1;stroke:none;stroke-width:0.656963;stroke-linejoin:round;stroke-dashoffset:1;stroke-opacity:1"
     d="m 8.146791,28.871504 26.983019,-1.68e-4 c 0.759418,-1.2e-5 1.482434,0.764139 1.482434,1.563659 v 1.723221 H 6.776 v -1.842867 c 0,-0.799701 0.611386,-1.443841 1.370791,-1.443845 z"
     sodipodi:nodetypes="sssccss" />
  <rect
     width="1.9890829"
     x="31.150009"
     y="29.570993"
     rx="2.7692297"
     height="2.0246358"
     id="rect25-8-7-7-3-3-7-5"
     style="fill:#ffffff;stroke-width:0.138468"
     inkscape:transform-center-x="4.844072"
     inkscape:transform-center-y="-4.0394952"
     ry="2.769228" />
  <path
     d="m 27.822812,48.3083 h -1.586163 -0.39706 V 38.215026 c 0,-1.677542 -1.326751,-3.028092 -2.974846,-3.028092 h -0.991627 v 1.00942 h 0.991627 c 1.09873,0 1.983226,0.900216 1.983226,2.018672 V 48.3083 h -1.983235 l 2.380287,3.028093 z m -5.949698,2.018678 h -0.991609 c -1.098706,0 -1.983234,-0.900226 -1.983234,-2.018678 V 38.215026 h 1.983234 l -2.380264,-3.028092 -2.577802,3.028092 h 1.586193 0.397046 V 48.3083 c 0,1.677543 1.326771,3.028093 2.974833,3.028093 h 0.991606 z"
     id="rect3375-3"
     inkscape:connector-curvature="0"
     sodipodi:nodetypes="cccssccsscccccssccccccsscc"
     class="ColorScheme-Text"
     style="stroke:url(#linearGradient4);stroke-width:1.3;stroke-dasharray:none;fill:#2a7fff" />
</svg>
