<?xml version="1.0" encoding="UTF-8" standalone="no"?>
<svg
   clip-rule="evenodd"
   fill-rule="evenodd"
   stroke-linejoin="round"
   stroke-miterlimit="2"
   viewBox="0 0 62 62"
   version="1.1"
   id="svg10"
   sodipodi:docname="preferences-system-windows-effect-startupfeedback.svg"
   width="62"
   height="62"
   inkscape:version="1.4 (e7c3feb100, 2024-10-09)"
   xmlns:inkscape="http://www.inkscape.org/namespaces/inkscape"
   xmlns:sodipodi="http://sodipodi.sourceforge.net/DTD/sodipodi-0.dtd"
   xmlns:xlink="http://www.w3.org/1999/xlink"
   xmlns="http://www.w3.org/2000/svg"
   xmlns:svg="http://www.w3.org/2000/svg">
  <defs
     id="defs10">
    <linearGradient
       id="linearGradient4"
       inkscape:collect="always">
      <stop
         id="stop3"
         stop-color="#95a5a6"
         style="stop-color:#e1e1e1;stop-opacity:1;"
         offset="0" />
      <stop
         id="stop4"
         stop-color="#eff0f1"
         offset="1" />
    </linearGradient>
    <linearGradient
       id="linearGradient10"
       inkscape:collect="always">
      <stop
         style="stop-color:#6c7884;stop-opacity:1;"
         offset="0"
         id="stop10" />
      <stop
         style="stop-color:#515862;stop-opacity:1;"
         offset="1"
         id="stop11" />
    </linearGradient>
    <linearGradient
       inkscape:collect="always"
       xlink:href="#linearGradient10"
       id="linearGradient11"
       x1="31"
       y1="59"
       x2="31"
       y2="3"
       gradientUnits="userSpaceOnUse" />
    <linearGradient
       inkscape:collect="always"
       xlink:href="#linearGradient979"
       id="linearGradient1"
       gradientUnits="userSpaceOnUse"
       gradientTransform="matrix(-0.8579715,0,0,-0.85549067,31.691743,20.250332)"
       x1="-5.5523267"
       y1="-9.0262012"
       x2="23.542997"
       y2="17.644512" />
    <linearGradient
       id="linearGradient979"
       inkscape:collect="always">
      <stop
         id="stop975"
         stop-color="#95a5a6"
         style="stop-color:#d2d2d2;stop-opacity:1;"
         offset="0" />
      <stop
         id="stop977"
         stop-color="#eff0f1"
         offset="1" />
    </linearGradient>
    <linearGradient
       inkscape:collect="always"
       xlink:href="#linearGradient4"
       id="linearGradient1000"
       gradientUnits="userSpaceOnUse"
       gradientTransform="matrix(-0.8579715,0,0,-0.85549067,31.691743,22.32457)"
       x1="-5.5523267"
       y1="-6.4075766"
       x2="16.269167"
       y2="15.413917" />
    <linearGradient
       id="linearGradient973"
       inkscape:collect="always">
      <stop
         id="stop969"
         stop-color="#95a5a6"
         style="stop-color:#e1e1e1;stop-opacity:1;"
         offset="0" />
      <stop
         id="stop971"
         stop-color="#eff0f1"
         offset="1" />
    </linearGradient>
    <linearGradient
       gradientTransform="matrix(0.85780531,-6.2020751e-4,-6.2020751e-4,0.85565685,37.060968,15.865905)"
       gradientUnits="userSpaceOnUse"
       x2="-14.393877"
       x1="-44.393879"
       id="linearGradient4464-4-2"
       xlink:href="#linearGradient4458"
       inkscape:collect="always" />
    <linearGradient
       id="linearGradient4458"
       inkscape:collect="always">
      <stop
         id="stop10698"
         stop-color="#95a5a6" />
      <stop
         id="stop10700"
         stop-color="#eff0f1"
         offset="1" />
    </linearGradient>
    <linearGradient
       inkscape:collect="always"
       xlink:href="#linearGradient973"
       id="linearGradient998"
       gradientUnits="userSpaceOnUse"
       gradientTransform="matrix(-0.8579715,0,0,-0.85549067,31.691743,24.917372)"
       x1="-5.5523267"
       y1="-4.9528136"
       x2="23.542997"
       y2="28.991732" />
    <linearGradient
       gradientTransform="matrix(0.79668719,0,0,0.79438357,-308.0297,-418.06596)"
       inkscape:collect="always"
       xlink:href="#linearGradient4143"
       id="linearGradient4149-8-6"
       y1="545.79797"
       x2="0"
       y2="517.79797"
       gradientUnits="userSpaceOnUse" />
    <linearGradient
       inkscape:collect="always"
       id="linearGradient4143">
      <stop
         id="stop10732"
         stop-color="#197cf1" />
      <stop
         id="stop10734"
         stop-color="#20bcfa"
         offset="1" />
    </linearGradient>
    <linearGradient
       gradientUnits="userSpaceOnUse"
       y2="543.79797"
       x2="0"
       y1="503.798"
       id="linearGradient4305-6-1"
       xlink:href="#linearGradient4299"
       inkscape:collect="always"
       gradientTransform="matrix(0.55768166,0,0,0.55606912,-216.75233,-286.88228)" />
    <linearGradient
       id="linearGradient4299"
       inkscape:collect="always">
      <stop
         id="stop10726"
         stop-color="#abf9c7" />
      <stop
         id="stop10728"
         stop-color="#54d883"
         offset="1" />
    </linearGradient>
  </defs>
  <sodipodi:namedview
     id="namedview10"
     pagecolor="#ffffff"
     bordercolor="#000000"
     borderopacity="0.25"
     inkscape:showpageshadow="2"
     inkscape:pageopacity="0.0"
     inkscape:pagecheckerboard="0"
     inkscape:deskcolor="#d1d1d1"
     inkscape:zoom="10.914982"
     inkscape:cx="30.645952"
     inkscape:cy="34.906151"
     inkscape:window-width="1920"
     inkscape:window-height="994"
     inkscape:window-x="0"
     inkscape:window-y="0"
     inkscape:window-maximized="1"
     inkscape:current-layer="svg10" />
  <linearGradient
     id="a"
     x2="1"
     gradientTransform="matrix(0,-46.799983,46.799983,0,632.48571,54.413883)"
     gradientUnits="userSpaceOnUse">
    <stop
       stop-color="#566069"
       offset="0"
       id="stop1" />
    <stop
       stop-color="#6c7884"
       offset="1"
       id="stop2" />
  </linearGradient>
  <path
     d="M 50.952003,3 C 55.394683,3 59,6.6053166 59,11.047997 V 50.952003 C 59,55.394683 55.394683,59 50.952003,59 H 11.047997 C 6.6053166,59 3,55.394683 3,50.952003 V 11.047997 C 3,6.6053166 6.6053166,3 11.047997,3 Z"
     id="path2"
     style="fill:url(#linearGradient11);fill-opacity:0.5" />
  <g
     id="g10738-8-8-3-8-0-3-9"
     inkscape:label="Layer 1"
     transform="matrix(0.4807123,0,0,0.4821063,26.051,31.559241)"
     style="stroke-width:0.856732">
    <path
       id="path10742-8-3-6-3-0-80-2"
       inkscape:connector-curvature="0"
       d="m 27.167969,43.736328 c 1.352286,-0.215111 2.678906,-0.568528 3.958984,-1.054688 l -0.34375,-3.117187 c 1.170276,-0.509278 2.279478,-1.148724 3.306641,-1.90625 l 2.521484,1.851562 c 1.06238,-0.865659 2.032974,-1.838216 2.896484,-2.902343 l -1.849609,-2.517578 c 0.762159,-1.025893 1.406202,-2.13446 1.919922,-3.304688 L 42.664062,31.125 c 0.488416,-1.28112 0.8438,-2.609067 1.060547,-3.962891 L 40.882812,25.914062 C 40.957857,25.278754 40.996982,24.639717 41,24 40.9929,23.362017 40.94984,22.724942 40.871094,22.091797 l 2.865234,-1.259766 C 43.521217,19.479745 43.1678,18.153125 42.68164,16.873047 l -3.117187,0.34375 c -0.509278,-1.170276 -1.148724,-2.279478 -1.90625,-3.306641 l 1.851562,-2.521484 C 38.644106,10.326292 37.671549,9.355698 36.607422,8.4921879 L 34.089844,10.341797 C 33.063951,9.5796379 31.955384,8.9355948 30.785156,8.4218749 L 31.125,5.3359379 C 29.84388,4.8475223 28.515933,4.4921376 27.162109,4.2753909 l -1.248047,2.841797 C 25.278754,7.0421425 24.639717,7.0030176 24,6.9999999 c -0.637983,0.00713 -1.275058,0.050163 -1.908203,0.128906 l -1.259766,-2.865234 c -1.352286,0.2151106 -2.678906,0.5685269 -3.958984,1.054687 l 0.34375,3.117188 C 16.046521,8.9448248 14.937319,9.5842706 13.910156,10.341797 L 11.388672,8.4902339 c -1.06238,0.865659 -2.0329741,1.8382171 -2.8964841,2.9023441 l 1.8496091,2.517578 c -0.7621591,1.025893 -1.4062022,2.13446 -1.9199221,3.304688 L 5.3359379,16.875 c -0.4884156,1.28112 -0.8438003,2.609067 -1.060547,3.962891 l 2.841797,1.248047 C 7.0421425,22.721246 7.0030176,23.360283 6.9999999,24 c 0.00713,0.637983 0.050163,1.275058 0.128906,1.908203 l -2.865234,1.259766 c 0.2151106,1.352286 0.5685269,2.678906 1.054687,3.958984 l 3.117188,-0.34375 c 0.5092779,1.170276 1.1487237,2.279478 1.9062501,3.306641 l -1.8515631,2.521484 c 0.865659,1.06238 1.8382171,2.032974 2.9023441,2.896484 l 2.517578,-1.849609 c 1.025893,0.762159 2.13446,1.406202 3.304688,1.919922 L 16.875,42.664062 c 1.28112,0.488416 2.609067,0.8438 3.962891,1.060547 l 1.248047,-2.841797 C 22.721246,40.957857 23.360283,40.996982 24,41 c 0.637983,-0.0071 1.275058,-0.05016 1.908203,-0.128906 z"
       style="color:#000000;fill:url(#linearGradient1);stroke-width:2.57019;stroke-linecap:round;stroke-linejoin:round"
       sodipodi:nodetypes="ccccccccccccccccccccccccccccccccccccccccccccccccccccc" />
    <path
       id="path10744-3-8-4-8-2-1-0"
       inkscape:connector-curvature="0"
       d="m 16.978516,5.2792969 c -0.03519,0.012922 -0.07035,0.025943 -0.105469,0.039063 l 0.238281,2.1699218 c 0.03509,-0.0177 0.07025,-0.035278 0.105469,-0.052734 z m 14.041015,0.021484 -0.234375,2.1210938 c 0.03521,0.015506 0.07037,0.031131 0.105469,0.046875 L 31.125,5.3359375 c -0.03512,-0.011817 -0.07028,-0.023535 -0.105469,-0.035157 z m 8.085938,5.6386721 -1.447266,1.970703 c 0.121646,0.169678 0.240156,0.341582 0.355469,0.515625 l 1.496094,-2.037109 C 39.377271,11.236905 39.24249,11.087148 39.105469,10.939453 Z m -30.2109378,0.002 c -0.1363799,0.148355 -0.2705098,0.298763 -0.4023437,0.451172 l 1.5,2.041016 C 10.105484,13.256972 10.22204,13.082463 10.341797,12.910156 Z m 34.6484378,8.97461 -2.671875,1.175781 c 0.03331,0.322162 0.05741,0.645211 0.07227,0.96875 l 2.792969,-1.228516 c -0.0573,-0.306805 -0.121767,-0.612227 -0.193359,-0.916015 z m -39.074219,0.0078 c -0.071562,0.30314 -0.1360327,0.607911 -0.1933594,0.914063 l 2.7753906,1.21875 c 0.012869,-0.324135 0.035014,-0.647835 0.066406,-0.970703 z m 2.5566406,3.501953 C 7.0136917,23.617031 7.0052269,23.808464 7,24 c 0.010206,0.313614 0.029094,0.626885 0.056641,0.939453 l 0.072266,-0.03125 C 7.0728099,24.415807 7.0382717,23.921194 7.0253906,23.425781 Z m 33.9492184,0.148438 c -0.01294,0.447649 -0.04356,0.894612 -0.0918,1.339843 l 0.06641,0.0293 C 40.974882,24.629437 40.991815,24.314863 41,24 40.9933,23.857972 40.98485,23.716034 40.97461,23.574219 Z m 2.556641,3.501953 c -0.207947,1.037583 -0.49792,2.05706 -0.867188,3.048793 l -3.085937,-0.339844 c -0.51372,1.170228 -1.157763,2.278795 -1.919922,3.304688 l 0.349609,0.476562 c 0.60956,-0.875749 1.135318,-1.806941 1.570313,-2.78125 L 42.664062,31.125 c 0.488416,-1.28112 0.8438,-2.609067 1.060547,-3.962891 z m -39.0742188,0.0078 -0.1933593,0.08398 c 0.2151108,1.352286 0.5685272,2.678906 1.0546875,3.958984 l 3.1171875,-0.34375 c 0.4282215,0.97693 0.947438,1.911389 1.5507812,2.791016 L 10.341797,33.089844 C 9.5842706,32.062681 8.9448248,30.953479 8.4355469,29.783203 l -3.1171875,0.34375 C 4.9513789,29.136955 4.6633693,28.119452 4.4570312,27.083984 Z m 34.6484378,8.97461 c -0.758217,0.888313 -1.592787,1.708505 -2.494141,2.451172 l -2.521484,-1.851563 c -1.027163,0.757526 -2.136365,1.396972 -3.306641,1.90625 l 0.105469,0.947266 c 1.131299,-0.499563 2.204709,-1.12108 3.201172,-1.853516 l 2.521484,1.851563 c 1.06238,-0.865659 2.032974,-1.838217 2.896484,-2.902344 z m -30.2109378,0.002 -0.4042968,0.550781 c 0.8656588,1.06238 1.8382166,2.032974 2.9023436,2.896484 l 2.517578,-1.849609 c 0.994938,0.739106 2.067722,1.367188 3.199219,1.873047 l 0.105469,-0.953125 c -1.170228,-0.51372 -2.278795,-1.157763 -3.304688,-1.919922 l -2.517578,1.849609 C 10.490038,37.76656 9.6541611,36.947675 8.8945312,36.060547 Z M 25.908203,39.871094 C 25.275058,39.949837 24.637983,39.992874 24,40 23.360283,39.997 22.721246,39.95786 22.085938,39.882812 l -1.248047,2.841797 c -1.316782,-0.212317 -2.609023,-0.555824 -3.857422,-1.02539 L 16.875,42.664062 c 1.28112,0.488416 2.609067,0.8438 3.962891,1.060547 l 1.248047,-2.841797 C 22.721246,40.957857 23.360283,40.996982 24,41 c 0.637983,-0.0071 1.275058,-0.05016 1.908203,-0.128906 l 1.259766,2.865234 c 1.352286,-0.215111 2.678906,-0.568527 3.958984,-1.054687 l -0.105469,-0.960938 c -1.247489,0.465989 -2.538401,0.806219 -3.853515,1.015625 z"
       style="color:#000000;fill:#95a5a6;stroke-width:2.57019;stroke-linecap:round;stroke-linejoin:round" />
  </g>
  <path
     d="m 12.575615,23.235146 0.01043,16.867262 5.16489,-6.920011 h 7.762114 L 12.575593,23.235146 Z"
     id="path3478-1-6-1-5-2-2"
     inkscape:connector-curvature="0"
     sodipodi:nodetypes="cccccc"
     style="fill:#c83771;stroke-width:0.999995" />
  <g
     id="g10738-8-8-3-8-6-3"
     inkscape:label="Layer 1"
     transform="matrix(0.4807123,0,0,0.4821063,26.051,24.639256)"
     style="stroke-width:0.856732">
    <path
       id="path10742-8-3-6-3-2-7"
       inkscape:connector-curvature="0"
       d="m 27.167969,43.736328 c 1.352286,-0.215111 2.678906,-0.568528 3.958984,-1.054688 l -0.34375,-3.117187 c 1.170276,-0.509278 2.279478,-1.148724 3.306641,-1.90625 l 2.521484,1.851562 c 1.06238,-0.865659 2.032974,-1.838216 2.896484,-2.902343 l -1.849609,-2.517578 c 0.762159,-1.025893 1.406202,-2.13446 1.919922,-3.304688 L 42.664062,31.125 c 0.488416,-1.28112 0.8438,-2.609067 1.060547,-3.962891 L 40.882812,25.914062 C 40.957857,25.278754 40.996982,24.639717 41,24 40.9929,23.362017 40.94984,22.724942 40.871094,22.091797 l 2.865234,-1.259766 C 43.521217,19.479745 43.1678,18.153125 42.68164,16.873047 l -3.117187,0.34375 c -0.509278,-1.170276 -1.148724,-2.279478 -1.90625,-3.306641 l 1.851562,-2.521484 C 38.644106,10.326292 37.671549,9.355698 36.607422,8.4921879 L 34.089844,10.341797 C 33.063951,9.5796379 31.955384,8.9355948 30.785156,8.4218749 L 31.125,5.3359379 C 29.84388,4.8475223 28.515933,4.4921376 27.162109,4.2753909 l -1.248047,2.841797 C 25.278754,7.0421425 24.639717,7.0030176 24,6.9999999 c -0.637983,0.00713 -1.275058,0.050163 -1.908203,0.128906 l -1.259766,-2.865234 c -1.352286,0.2151106 -2.678906,0.5685269 -3.958984,1.054687 l 0.34375,3.117188 C 16.046521,8.9448248 14.937319,9.5842706 13.910156,10.341797 L 11.388672,8.4902339 c -1.06238,0.865659 -2.0329741,1.8382171 -2.8964841,2.9023441 l 1.8496091,2.517578 c -0.7621591,1.025893 -1.4062022,2.13446 -1.9199221,3.304688 L 5.3359379,16.875 c -0.4884156,1.28112 -0.8438003,2.609067 -1.060547,3.962891 l 2.841797,1.248047 C 7.0421425,22.721246 7.0030176,23.360283 6.9999999,24 c 0.00713,0.637983 0.050163,1.275058 0.128906,1.908203 l -2.865234,1.259766 c 0.2151106,1.352286 0.5685269,2.678906 1.054687,3.958984 l 3.117188,-0.34375 c 0.5092779,1.170276 1.1487237,2.279478 1.9062501,3.306641 l -1.8515631,2.521484 c 0.865659,1.06238 1.8382171,2.032974 2.9023441,2.896484 l 2.517578,-1.849609 c 1.025893,0.762159 2.13446,1.406202 3.304688,1.919922 L 16.875,42.664062 c 1.28112,0.488416 2.609067,0.8438 3.962891,1.060547 l 1.248047,-2.841797 C 22.721246,40.957857 23.360283,40.996982 24,41 c 0.637983,-0.0071 1.275058,-0.05016 1.908203,-0.128906 z"
       style="color:#000000;fill:url(#linearGradient1000);stroke-width:2.57019;stroke-linecap:round;stroke-linejoin:round"
       sodipodi:nodetypes="ccccccccccccccccccccccccccccccccccccccccccccccccccccc" />
    <path
       id="path10744-3-8-4-8-0-5"
       inkscape:connector-curvature="0"
       d="m 16.978516,5.2792969 c -0.03519,0.012922 -0.07035,0.025943 -0.105469,0.039063 l 0.238281,2.1699218 c 0.03509,-0.0177 0.07025,-0.035278 0.105469,-0.052734 z m 14.041015,0.021484 -0.234375,2.1210938 c 0.03521,0.015506 0.07037,0.031131 0.105469,0.046875 L 31.125,5.3359375 c -0.03512,-0.011817 -0.07028,-0.023535 -0.105469,-0.035157 z m 8.085938,5.6386721 -1.447266,1.970703 c 0.121646,0.169678 0.240156,0.341582 0.355469,0.515625 l 1.496094,-2.037109 C 39.377271,11.236905 39.24249,11.087148 39.105469,10.939453 Z m -30.2109378,0.002 c -0.1363799,0.148355 -0.2705098,0.298763 -0.4023437,0.451172 l 1.5,2.041016 C 10.105484,13.256972 10.22204,13.082463 10.341797,12.910156 Z m 34.6484378,8.97461 -2.671875,1.175781 c 0.03331,0.322162 0.05741,0.645211 0.07227,0.96875 l 2.792969,-1.228516 c -0.0573,-0.306805 -0.121767,-0.612227 -0.193359,-0.916015 z m -39.074219,0.0078 c -0.071562,0.30314 -0.1360327,0.607911 -0.1933594,0.914063 l 2.7753906,1.21875 c 0.012869,-0.324135 0.035014,-0.647835 0.066406,-0.970703 z m 2.5566406,3.501953 C 7.0136917,23.617031 7.0052269,23.808464 7,24 c 0.010206,0.313614 0.029094,0.626885 0.056641,0.939453 l 0.072266,-0.03125 C 7.0728099,24.415807 7.0382717,23.921194 7.0253906,23.425781 Z m 33.9492184,0.148438 c -0.01294,0.447649 -0.04356,0.894612 -0.0918,1.339843 l 0.06641,0.0293 C 40.974882,24.629437 40.991815,24.314863 41,24 40.9933,23.857972 40.98485,23.716034 40.97461,23.574219 Z m 2.556641,3.501953 c -0.207947,1.037583 -0.49792,2.05706 -0.867188,3.048793 l -3.085937,-0.339844 c -0.51372,1.170228 -1.157763,2.278795 -1.919922,3.304688 l 0.349609,0.476562 c 0.60956,-0.875749 1.135318,-1.806941 1.570313,-2.78125 L 42.664062,31.125 c 0.488416,-1.28112 0.8438,-2.609067 1.060547,-3.962891 z m -39.0742188,0.0078 -0.1933593,0.08398 c 0.2151108,1.352286 0.5685272,2.678906 1.0546875,3.958984 l 3.1171875,-0.34375 c 0.4282215,0.97693 0.947438,1.911389 1.5507812,2.791016 L 10.341797,33.089844 C 9.5842706,32.062681 8.9448248,30.953479 8.4355469,29.783203 l -3.1171875,0.34375 C 4.9513789,29.136955 4.6633693,28.119452 4.4570312,27.083984 Z m 34.6484378,8.97461 c -0.758217,0.888313 -1.592787,1.708505 -2.494141,2.451172 l -2.521484,-1.851563 c -1.027163,0.757526 -2.136365,1.396972 -3.306641,1.90625 l 0.105469,0.947266 c 1.131299,-0.499563 2.204709,-1.12108 3.201172,-1.853516 l 2.521484,1.851563 c 1.06238,-0.865659 2.032974,-1.838217 2.896484,-2.902344 z m -30.2109378,0.002 -0.4042968,0.550781 c 0.8656588,1.06238 1.8382166,2.032974 2.9023436,2.896484 l 2.517578,-1.849609 c 0.994938,0.739106 2.067722,1.367188 3.199219,1.873047 l 0.105469,-0.953125 c -1.170228,-0.51372 -2.278795,-1.157763 -3.304688,-1.919922 l -2.517578,1.849609 C 10.490038,37.76656 9.6541611,36.947675 8.8945312,36.060547 Z M 25.908203,39.871094 C 25.275058,39.949837 24.637983,39.992874 24,40 23.360283,39.997 22.721246,39.95786 22.085938,39.882812 l -1.248047,2.841797 c -1.316782,-0.212317 -2.609023,-0.555824 -3.857422,-1.02539 L 16.875,42.664062 c 1.28112,0.488416 2.609067,0.8438 3.962891,1.060547 l 1.248047,-2.841797 C 22.721246,40.957857 23.360283,40.996982 24,41 c 0.637983,-0.0071 1.275058,-0.05016 1.908203,-0.128906 l 1.259766,2.865234 c 1.352286,-0.215111 2.678906,-0.568527 3.958984,-1.054687 l -0.105469,-0.960938 c -1.247489,0.465989 -2.538401,0.806219 -3.853515,1.015625 z"
       style="color:#000000;fill:#95a5a6;stroke-width:2.57019;stroke-linecap:round;stroke-linejoin:round" />
  </g>
  <g
     id="g10738-8-9"
     inkscape:label="Layer 1"
     transform="matrix(0.4807123,0,0,0.4821063,26.051,15.989248)"
     style="stroke-width:0.856732">
    <circle
       id="circle10740-2-2"
       transform="rotate(15)"
       r="15"
       cy="16.970562"
       cx="29.393879"
       style="color:#000000;fill:url(#linearGradient4464-4-2);stroke-width:2.57019;stroke-linecap:round;stroke-linejoin:round" />
    <path
       id="path10742-8-2"
       inkscape:connector-curvature="0"
       d="m 27.167969,43.736328 a 20,20 0 0 0 3.958984,-1.054688 l -0.34375,-3.117187 a 17,17 0 0 0 3.306641,-1.90625 l 2.521484,1.851562 a 20,20 0 0 0 2.896484,-2.902343 l -1.849609,-2.517578 a 17,17 0 0 0 1.919922,-3.304688 L 42.664062,31.125 a 20,20 0 0 0 1.060547,-3.962891 L 40.882812,25.914062 A 17,17 0 0 0 41,24 17,17 0 0 0 40.871094,22.091797 l 2.865234,-1.259766 A 20,20 0 0 0 42.68164,16.873047 l -3.117187,0.34375 a 17,17 0 0 0 -1.90625,-3.306641 l 1.851562,-2.521484 A 20,20 0 0 0 36.607422,8.4921879 L 34.089844,10.341797 A 17,17 0 0 0 30.785156,8.4218749 L 31.125,5.3359379 a 20,20 0 0 0 -3.962891,-1.060547 l -1.248047,2.841797 A 17,17 0 0 0 24,6.9999999 17,17 0 0 0 22.091797,7.1289059 l -1.259766,-2.865234 a 20,20 0 0 0 -3.958984,1.054687 l 0.34375,3.117188 A 17,17 0 0 0 13.910156,10.341797 L 11.388672,8.4902339 A 20,20 0 0 0 8.4921879,11.392578 l 1.8496091,2.517578 A 17,17 0 0 0 8.4218749,17.214844 L 5.3359379,16.875 a 20,20 0 0 0 -1.060547,3.962891 l 2.841797,1.248047 A 17,17 0 0 0 6.9999999,24 a 17,17 0 0 0 0.128906,1.908203 l -2.865234,1.259766 a 20,20 0 0 0 1.054687,3.958984 l 3.117188,-0.34375 a 17,17 0 0 0 1.9062501,3.306641 l -1.8515631,2.521484 a 20,20 0 0 0 2.9023441,2.896484 l 2.517578,-1.849609 a 17,17 0 0 0 3.304688,1.919922 L 16.875,42.664062 a 20,20 0 0 0 3.962891,1.060547 l 1.248047,-2.841797 A 17,17 0 0 0 24,41 17,17 0 0 0 25.908203,40.871094 Z M 24,38 A 14,14 0 0 1 9.9999999,24 14,14 0 0 1 24,9.9999999 14,14 0 0 1 38,24 14,14 0 0 1 24,38 Z"
       style="color:#000000;fill:url(#linearGradient998);stroke-width:2.57019;stroke-linecap:round;stroke-linejoin:round" />
    <path
       id="path10744-2-8"
       inkscape:connector-curvature="0"
       d="m 16.978516,5.2792969 c -0.03519,0.012922 -0.07035,0.025943 -0.105469,0.039063 l 0.238281,2.1699218 c 0.03509,-0.0177 0.07025,-0.035278 0.105469,-0.052734 z m 14.041015,0.021484 -0.234375,2.1210938 c 0.03521,0.015506 0.07037,0.031131 0.105469,0.046875 L 31.125,5.3359375 c -0.03512,-0.011817 -0.07028,-0.023535 -0.105469,-0.035157 z m 8.085938,5.6386721 -1.447266,1.970703 c 0.121646,0.169678 0.240156,0.341582 0.355469,0.515625 l 1.496094,-2.037109 C 39.377271,11.236905 39.24249,11.087148 39.105469,10.939453 Z m -30.2109378,0.002 c -0.1363799,0.148355 -0.2705098,0.298763 -0.4023437,0.451172 l 1.5,2.041016 C 10.105484,13.256972 10.22204,13.082463 10.341797,12.910156 Z m 34.6484378,8.97461 -2.671875,1.175781 c 0.03331,0.322162 0.05741,0.645211 0.07227,0.96875 l 2.792969,-1.228516 c -0.0573,-0.306805 -0.121767,-0.612227 -0.193359,-0.916015 z m -39.074219,0.0078 c -0.071562,0.30314 -0.1360327,0.607911 -0.1933594,0.914063 l 2.7753906,1.21875 c 0.012869,-0.324135 0.035014,-0.647835 0.066406,-0.970703 z m 2.5566406,3.501953 C 7.0136917,23.617031 7.0052269,23.808464 7,24 c 0.010206,0.313614 0.029094,0.626885 0.056641,0.939453 l 0.072266,-0.03125 C 7.0728099,24.415807 7.0382717,23.921194 7.0253906,23.425781 Z m 33.9492184,0.148438 c -0.01294,0.447649 -0.04356,0.894612 -0.0918,1.339843 l 0.06641,0.0293 C 40.974882,24.629437 40.991815,24.314863 41,24 40.9933,23.857972 40.98485,23.716034 40.97461,23.574219 Z m 2.556641,3.501953 c -0.207947,1.037583 -0.49792,2.05706 -0.867188,3.048793 l -3.085937,-0.339844 c -0.51372,1.170228 -1.157763,2.278795 -1.919922,3.304688 l 0.349609,0.476562 c 0.60956,-0.875749 1.135318,-1.806941 1.570313,-2.78125 L 42.664062,31.125 c 0.488416,-1.28112 0.8438,-2.609067 1.060547,-3.962891 z m -39.0742188,0.0078 -0.1933593,0.08398 c 0.2151108,1.352286 0.5685272,2.678906 1.0546875,3.958984 l 3.1171875,-0.34375 c 0.4282215,0.97693 0.947438,1.911389 1.5507812,2.791016 L 10.341797,33.089844 C 9.5842706,32.062681 8.9448248,30.953479 8.4355469,29.783203 l -3.1171875,0.34375 C 4.9513789,29.136955 4.6633693,28.119452 4.4570312,27.083984 Z m 34.6484378,8.97461 c -0.758217,0.888313 -1.592787,1.708505 -2.494141,2.451172 l -2.521484,-1.851563 c -1.027163,0.757526 -2.136365,1.396972 -3.306641,1.90625 l 0.105469,0.947266 c 1.131299,-0.499563 2.204709,-1.12108 3.201172,-1.853516 l 2.521484,1.851563 c 1.06238,-0.865659 2.032974,-1.838217 2.896484,-2.902344 z m -30.2109378,0.002 -0.4042968,0.550781 c 0.8656588,1.06238 1.8382166,2.032974 2.9023436,2.896484 l 2.517578,-1.849609 c 0.994938,0.739106 2.067722,1.367188 3.199219,1.873047 l 0.105469,-0.953125 c -1.170228,-0.51372 -2.278795,-1.157763 -3.304688,-1.919922 l -2.517578,1.849609 C 10.490038,37.76656 9.6541611,36.947675 8.8945312,36.060547 Z M 25.908203,39.871094 C 25.275058,39.949837 24.637983,39.992874 24,40 23.360283,39.997 22.721246,39.95786 22.085938,39.882812 l -1.248047,2.841797 c -1.316782,-0.212317 -2.609023,-0.555824 -3.857422,-1.02539 L 16.875,42.664062 c 1.28112,0.488416 2.609067,0.8438 3.962891,1.060547 l 1.248047,-2.841797 C 22.721246,40.957857 23.360283,40.996982 24,41 c 0.637983,-0.0071 1.275058,-0.05016 1.908203,-0.128906 l 1.259766,2.865234 c 1.352286,-0.215111 2.678906,-0.568527 3.958984,-1.054687 l -0.105469,-0.960938 c -1.247489,0.465989 -2.538401,0.806219 -3.853515,1.015625 z"
       style="color:#000000;fill:#95a5a6;stroke-width:2.57019;stroke-linecap:round;stroke-linejoin:round" />
    <rect
       id="rect10748-9-7"
       rx="11.153625"
       y="10.999994"
       x="10.999981"
       height="26"
       width="25.99999"
       style="fill:url(#linearGradient4149-8-6);stroke-width:0.856732"
       ry="11.121375" />
    <path
       id="path10750-6-3"
       inkscape:connector-curvature="0"
       d="m 23.999997,10.99999 c -0.94371,0 -1.861653,0.104048 -2.747265,0.29326 l -1.152737,2.306741 -1.741799,-1.306351 c -3.123984,1.502287 -5.543941,4.206749 -6.665036,7.529596 l 2.556835,-1.023244 1.95,1.300001 0.649999,-1.950001 8.450003,-4.550001 -0.51543,-2.574612 c -0.259884,-0.01534 -0.520703,-0.02542 -0.78457,-0.02542 z m 9.626859,4.269435 -0.526857,1.580567 0.65,0.65 -2.600001,3.900001 1.300001,4.550001 4.311327,0.539552 C 36.916384,25.684014 37,24.852111 37,23.999993 37,21.773885 36.443262,19.683531 35.465135,17.855458 l -1.065136,-0.355466 0.387205,-0.775684 c -0.347971,-0.516152 -0.743678,-0.995424 -1.160348,-1.454883 z m -22.36915,6.130568 c -0.143462,0.712238 -0.224887,1.447504 -0.247553,2.197559 l 4.539842,1.702442 -0.65,-1.950001 -1.300001,-1.95 z m 4.292289,3.900001 3.25,7.800002 v 2.819628 c 1.591708,0.692199 3.347846,1.080372 5.200002,1.080372 0.129148,0 0.256444,-0.0052 0.38467,-0.0089 l 4.165331,-7.141116 -10.400003,-5.850001 -2.6,1.3 z"
       style="fill:url(#linearGradient4305-6-1);fill-rule:evenodd;stroke-width:0.856732" />
    <path
       id="path10752-6-6"
       d="M 11.025391,23.5 C 11.019064,23.667367 11,23.83103 11,24 c 0,7.201997 5.798003,13 13,13 7.201997,0 13,-5.798003 13,-13 0,-0.16897 -0.01906,-0.332633 -0.02539,-0.5 C 36.711295,30.466332 31.033028,36 24,36 16.966972,36 11.288705,30.466332 11.025391,23.5 Z"
       inkscape:connector-curvature="0"
       style="opacity:0.2;fill:#172525;stroke-width:0.856732" />
  </g>
  <path
     d="M 3,12.376408 V 11.047997 C 3,6.6053166 6.6053166,3 11.047997,3 H 50.952003 C 55.394683,3 59,6.6053166 59,11.047997 v 1.328411 z"
     fill-opacity="0.1"
     id="path3"
     style="stroke-width:1.29223;fill:#e5e5e5;fill-opacity:0.1" />
  <path
     d="m 39.575597,7.887999 c 0,1.381249 -1.11925,2.500001 -2.500001,2.500001 -1.380749,0 -2.499999,-1.118752 -2.499999,-2.500001 0,-1.381249 1.11925,-2.499999 2.499999,-2.499999 1.380751,0 2.500001,1.11875 2.500001,2.499999 z"
     id="path443"
     style="fill:#ffffff;fill-opacity:1;stroke-width:1.24999" />
  <path
     d="m 47.075593,7.887999 c 0,1.381249 -1.119247,2.500001 -2.499997,2.500001 -1.380753,0 -2.500003,-1.118752 -2.500003,-2.500001 0,-1.381249 1.119253,-2.499999 2.500003,-2.499999 1.38075,0 2.499997,1.11875 2.499997,2.499999 z"
     id="path444"
     style="fill:#ffffff;fill-opacity:1;stroke-width:1.24999" />
  <path
     d="m 54.575592,7.887999 c 0,1.381249 -1.11925,2.500001 -2.499999,2.500001 -1.380751,0 -2.5,-1.118752 -2.5,-2.500001 0,-1.381249 1.119249,-2.499999 2.5,-2.499999 1.380749,0 2.499999,1.11875 2.499999,2.499999 z"
     id="path445"
     style="fill:#ffffff;fill-opacity:1;stroke-width:1.24999" />
</svg>
