<?xml version="1.0" encoding="UTF-8" standalone="no"?>
<svg
   clip-rule="evenodd"
   fill-rule="evenodd"
   stroke-linejoin="round"
   stroke-miterlimit="2"
   viewBox="0 0 62 62"
   version="1.1"
   id="svg10"
   sodipodi:docname="preferences-system-windows-effect-glide.svg"
   width="62"
   height="62"
   inkscape:version="1.4 (e7c3feb100, 2024-10-09)"
   xmlns:inkscape="http://www.inkscape.org/namespaces/inkscape"
   xmlns:sodipodi="http://sodipodi.sourceforge.net/DTD/sodipodi-0.dtd"
   xmlns:xlink="http://www.w3.org/1999/xlink"
   xmlns="http://www.w3.org/2000/svg"
   xmlns:svg="http://www.w3.org/2000/svg">
  <defs
     id="defs10">
    <linearGradient
       id="linearGradient1"
       inkscape:collect="always">
      <stop
         style="stop-color:#ffffff;stop-opacity:1;"
         offset="0"
         id="stop3" />
      <stop
         style="stop-color:#ffffff;stop-opacity:1;"
         offset="1"
         id="stop4" />
    </linearGradient>
    <linearGradient
       id="linearGradient10"
       inkscape:collect="always">
      <stop
         style="stop-color:#6c7884;stop-opacity:1;"
         offset="0"
         id="stop10" />
      <stop
         style="stop-color:#515862;stop-opacity:1;"
         offset="1"
         id="stop11" />
    </linearGradient>
    <linearGradient
       inkscape:collect="always"
       xlink:href="#linearGradient10"
       id="linearGradient11"
       x1="31"
       y1="59"
       x2="31"
       y2="3"
       gradientUnits="userSpaceOnUse" />
    <linearGradient
       inkscape:collect="always"
       xlink:href="#linearGradient1"
       id="linearGradient4"
       x1="3.7999545"
       y1="35.520432"
       x2="58.200046"
       y2="35.520432"
       gradientUnits="userSpaceOnUse"
       gradientTransform="matrix(0.95785511,0,0,0.95785511,1.3064924,1.3995988)" />
  </defs>
  <sodipodi:namedview
     id="namedview10"
     pagecolor="#ffffff"
     bordercolor="#000000"
     borderopacity="0.25"
     inkscape:showpageshadow="2"
     inkscape:pageopacity="0.0"
     inkscape:pagecheckerboard="0"
     inkscape:deskcolor="#d1d1d1"
     inkscape:zoom="7.8541667"
     inkscape:cx="12.668435"
     inkscape:cy="42.270557"
     inkscape:window-width="1920"
     inkscape:window-height="994"
     inkscape:window-x="0"
     inkscape:window-y="0"
     inkscape:window-maximized="1"
     inkscape:current-layer="svg10" />
  <linearGradient
     id="a"
     x2="1"
     gradientTransform="matrix(0,-46.799983,46.799983,0,632.48571,54.413883)"
     gradientUnits="userSpaceOnUse">
    <stop
       stop-color="#566069"
       offset="0"
       id="stop1" />
    <stop
       stop-color="#6c7884"
       offset="1"
       id="stop2" />
  </linearGradient>
  <path
     d="M 50.952003,3 C 55.394683,3 59,6.6053166 59,11.047997 V 50.952003 C 59,55.394683 55.394683,59 50.952003,59 H 11.047997 C 6.6053166,59 3,55.394683 3,50.952003 V 11.047997 C 3,6.6053166 6.6053166,3 11.047997,3 Z"
     id="path2"
     style="fill:url(#linearGradient11);fill-opacity:0.5" />
  <path
     d="M 3,12.376408 V 11.047997 C 3,6.6053166 6.6053166,3 11.047997,3 H 50.952003 C 55.394683,3 59,6.6053166 59,11.047997 v 1.328411 z"
     fill-opacity="0.1"
     id="path3"
     style="stroke-width:1.29223;fill:#e5e5e5;fill-opacity:0.1" />
  <path
     d="m 37.920424,7.8690441 c 0,1.381249 -1.11925,2.5000009 -2.500001,2.5000009 -1.380749,0 -2.499999,-1.1187519 -2.499999,-2.5000009 0,-1.381249 1.11925,-2.499999 2.499999,-2.499999 1.380751,0 2.500001,1.11875 2.500001,2.499999 z"
     id="path443"
     style="fill:#ffffff;fill-opacity:1;stroke-width:1.24999" />
  <path
     d="m 45.42042,7.8690441 c 0,1.381249 -1.119247,2.5000009 -2.499997,2.5000009 -1.380753,0 -2.500003,-1.1187519 -2.500003,-2.5000009 0,-1.381249 1.119253,-2.499999 2.500003,-2.499999 1.38075,0 2.499997,1.11875 2.499997,2.499999 z"
     id="path444"
     style="fill:#ffffff;fill-opacity:1;stroke-width:1.24999" />
  <path
     d="m 52.920419,7.8690441 c 0,1.381249 -1.11925,2.5000009 -2.499999,2.5000009 -1.380751,0 -2.5,-1.1187519 -2.5,-2.5000009 0,-1.381249 1.119249,-2.499999 2.5,-2.499999 1.380749,0 2.499999,1.11875 2.499999,2.499999 z"
     id="path445"
     style="fill:#ffffff;fill-opacity:1;stroke-width:1.24999" />
  <path
     inkscape:connector-curvature="0"
     id="rect4144-7"
     d="m 22.85822,19.139485 v 9.770137 h 17.911909 v -9.770137 z m 1.628354,1.628326 H 39.14177 v 6.513446 H 24.486574 Z m -10.380771,2.442561 c -0.563809,0 -1.017719,0.453659 -1.017719,1.017702 0,0.563849 0.453883,1.017736 1.017719,1.017736 0.563813,0 1.017728,-0.453803 1.017728,-1.017736 0,-0.564017 -0.453899,-1.017702 -1.017728,-1.017702 z m 33.78839,0 c -0.5639,0 -1.017726,0.453659 -1.017726,1.017702 0,0.563849 0.453701,1.017736 1.017726,1.017736 0.563902,0 1.017709,-0.453803 1.017709,-1.017736 0,-0.564017 -0.4537,-1.017702 -1.017709,-1.017702 z M 7.9994671,27.281257 c -0.5638216,0 -1.0177228,0.453657 -1.0177228,1.017727 0,0.563852 0.4538808,1.017712 1.0177228,1.017712 0.5638122,0 1.0177221,-0.453807 1.0177221,-1.017712 0,-0.564018 -0.4538857,-1.017727 -1.0177221,-1.017727 z m 46.0010439,0 c -0.563889,0 -1.017722,0.453657 -1.017722,1.017727 0,0.563852 0.453703,1.017712 1.017722,1.017712 0.563914,0 1.017734,-0.453807 1.017734,-1.017712 0,-0.564018 -0.453703,-1.017727 -1.017734,-1.017727 z M 5.9640216,33.387584 c -0.5638206,0 -1.0177235,0.453656 -1.0177235,1.017724 0,0.563851 0.4538809,1.017713 1.0177235,1.017713 0.5638189,0 1.0177227,-0.453798 1.0177227,-1.017713 0,-0.563958 -0.4538955,-1.017724 -1.0177227,-1.017724 z m 50.0719394,0 c -0.563896,0 -1.017716,0.453656 -1.017716,1.017724 0,0.563851 0.453701,1.017713 1.017716,1.017713 0.563908,0 1.017741,-0.453798 1.017741,-1.017713 0,-0.563958 -0.453706,-1.017724 -1.017741,-1.017724 z m -35.620277,4.070861 -1.44072,1.440608 4.668809,4.665746 h -4.652901 -1.831898 v 2.035439 h 1.831898 4.652901 l -4.668809,4.668825 1.44072,1.437502 6.701062,-6.701154 0.42302,-0.422595 -0.42302,-0.419636 z m 21.168624,0 -6.701053,6.704279 -0.423005,0.419588 0.423005,0.422633 6.701053,6.701171 1.440711,-1.437412 -4.668803,-4.668829 h 4.652901 1.831902 v -2.035263 h -1.831902 -4.652901 l 4.668803,-4.665725 z M 7.9994671,39.493883 c -0.5638216,0 -1.0177228,0.453657 -1.0177228,1.017752 0,0.563848 0.4538808,1.017704 1.0177228,1.017704 0.5638122,0 1.0177221,-0.453799 1.0177221,-1.017704 0,-0.564028 -0.4538857,-1.017752 -1.0177221,-1.017752 z m 46.0010439,0 c -0.563889,0 -1.017722,0.453657 -1.017722,1.017752 0,0.563848 0.453703,1.017704 1.017722,1.017704 0.563914,0 1.017734,-0.453799 1.017734,-1.017704 0,-0.564028 -0.453703,-1.017752 -1.017734,-1.017752 z m -39.894708,4.070916 c -0.563809,0 -1.017719,0.453656 -1.017719,1.017716 0,0.563837 0.453883,1.017723 1.017719,1.017723 0.563813,0 1.017728,-0.453797 1.017728,-1.017723 0,-0.564014 -0.453899,-1.017716 -1.017728,-1.017716 z m 33.78839,0 c -0.5639,0 -1.017726,0.453656 -1.017726,1.017716 0,0.563837 0.453701,1.017723 1.017726,1.017723 0.563902,0 1.017709,-0.453797 1.017709,-1.017723 0,-0.564014 -0.4537,-1.017716 -1.017709,-1.017716 z"
     style="fill:#f9f9f9;stroke:url(#linearGradient4);stroke-width:2.43297;stroke-dasharray:none" />
</svg>
