<?xml version="1.0" encoding="UTF-8" standalone="no"?>
<svg
   clip-rule="evenodd"
   fill-rule="evenodd"
   stroke-linejoin="round"
   stroke-miterlimit="2"
   viewBox="0 0 62 62"
   version="1.1"
   id="svg12"
   sodipodi:docname="preferences-system-windows-actions.svg"
   width="62"
   height="62"
   inkscape:version="1.4 (e7c3feb100, 2024-10-09)"
   xmlns:inkscape="http://www.inkscape.org/namespaces/inkscape"
   xmlns:sodipodi="http://sodipodi.sourceforge.net/DTD/sodipodi-0.dtd"
   xmlns:xlink="http://www.w3.org/1999/xlink"
   xmlns="http://www.w3.org/2000/svg"
   xmlns:svg="http://www.w3.org/2000/svg">
  <defs
     id="defs12">
    <linearGradient
       id="linearGradient12"
       inkscape:collect="always">
      <stop
         style="stop-color:#4b545c;stop-opacity:1;"
         offset="0"
         id="stop12" />
      <stop
         style="stop-color:#6c7884;stop-opacity:1;"
         offset="1"
         id="stop13" />
    </linearGradient>
    <linearGradient
       inkscape:collect="always"
       xlink:href="#linearGradient12"
       id="linearGradient13"
       x1="30.332001"
       y1="2.332"
       x2="30.332001"
       y2="58.332001"
       gradientUnits="userSpaceOnUse" />
  </defs>
  <sodipodi:namedview
     id="namedview12"
     pagecolor="#ffffff"
     bordercolor="#000000"
     borderopacity="0.25"
     inkscape:showpageshadow="2"
     inkscape:pageopacity="0.0"
     inkscape:pagecheckerboard="0"
     inkscape:deskcolor="#d1d1d1"
     inkscape:zoom="7.8541667"
     inkscape:cx="51.628647"
     inkscape:cy="25.973475"
     inkscape:window-width="1920"
     inkscape:window-height="994"
     inkscape:window-x="0"
     inkscape:window-y="0"
     inkscape:window-maximized="1"
     inkscape:current-layer="svg12" />
  <linearGradient
     id="a"
     x2="1"
     gradientTransform="matrix(0,-46.799983,46.799983,0,631.81771,53.745883)"
     gradientUnits="userSpaceOnUse">
    <stop
       stop-color="#566069"
       offset="0"
       id="stop1" />
    <stop
       stop-color="#6c7884"
       offset="1"
       id="stop2" />
  </linearGradient>
  <linearGradient
     id="b"
     x2="1"
     gradientTransform="matrix(0,-25.373159,25.373159,0,2512.6636,48.880127)"
     gradientUnits="userSpaceOnUse">
    <stop
       stop-color="#b8b8b8"
       offset="0"
       id="stop3" />
    <stop
       stop-color="#bababa"
       offset="1"
       id="stop4" />
  </linearGradient>
  <g
     id="g12"
     transform="translate(0.668,0.668)">
    <path
       d="m 50.284003,2.332 c 4.44268,0 8.047997,3.6053166 8.047997,8.047997 v 39.904006 c 0,4.44268 -3.605317,8.047997 -8.047997,8.047997 H 10.379997 C 5.9373166,58.332 2.332,54.726683 2.332,50.284003 V 10.379997 C 2.332,5.9373166 5.9373166,2.332 10.379997,2.332 Z"
       id="path4"
       style="fill:url(#linearGradient13);fill-opacity:1" />
    <path
       d="M 2.332,11.708408 V 10.379997 C 2.332,5.9373166 5.9373166,2.332 10.379997,2.332 h 39.904006 c 4.44268,0 8.047997,3.6053166 8.047997,8.047997 v 1.328411 z"
       fill="#ebebeb"
       fill-opacity="0.1"
       id="path5"
       style="stroke-width:1.29223" />
    <path
       d="m 43.165118,25.152749 c 0,-0.908436 -1.298689,-1.646298 -2.895883,-1.646298 h -27.72734 c -1.598486,0 -2.8945913,0.737862 -2.8945913,1.646298 v 22.081595 c 0,0.907145 1.2961053,1.645007 2.8945913,1.645007 h 27.72734 c 1.597194,0 2.895883,-0.737862 2.895883,-1.645007 z"
       id="path9"
       style="fill:#b8b8b8;fill-opacity:1" />
    <path
       d="M 9.6473037,23.506451 H 42.914426 v 1.951264 H 9.6473037 Z"
       fill="#404040"
       id="path10"
       style="stroke-width:1.29223" />
    <path
       d="m 49.312247,18.376305 c 0,-0.582795 -0.622854,-1.05575 -1.390437,-1.05575 H 34.613152 c -0.764999,0 -1.387853,0.472955 -1.387853,1.05575 V 32.54171 c 0,0.581503 0.622854,1.054458 1.387853,1.054458 H 47.92181 c 0.767583,0 1.390437,-0.472955 1.390437,-1.054458 z"
       id="path11"
       style="stroke-width:1.29223;fill:#f9f9f9;fill-opacity:1" />
    <path
       d="m 33.225299,17.320555 h 16.071442 v 1.951264 H 33.225299 Z"
       id="path12"
       style="stroke-width:1.29223;fill:#0066ff;fill-opacity:1" />
  </g>
  <path
     d="m 38.833128,8.3567619 c 0,1.38125 -1.11925,2.5000021 -2.50001,2.5000021 -1.38074,0 -2.49999,-1.1187521 -2.49999,-2.5000011 0,-1.38125 1.11925,-2.499999 2.49999,-2.499999 1.38076,0 2.50001,1.118749 2.50001,2.499998 z"
     id="path443"
     style="fill:#ffffff;fill-opacity:1;stroke-width:1.24999" />
  <path
     d="m 46.333118,8.3567619 c 0,1.38125 -1.11924,2.5000021 -2.5,2.5000021 -1.38075,0 -2.5,-1.1187521 -2.5,-2.5000011 0,-1.38125 1.11925,-2.499999 2.5,-2.499999 1.38076,0 2.5,1.118749 2.5,2.499998 z"
     id="path444"
     style="fill:#ffffff;fill-opacity:1;stroke-width:1.24999" />
  <path
     d="m 53.83312,8.3567619 c 0,1.38125 -1.11925,2.5000021 -2.5,2.5000021 -1.380752,0 -2.500002,-1.1187521 -2.500002,-2.5000011 0,-1.38125 1.11925,-2.499999 2.500002,-2.499999 1.38075,0 2.5,1.118749 2.5,2.499998 z"
     id="path445"
     style="fill:#ffffff;fill-opacity:1;stroke-width:1.24999" />
</svg>
