<?xml version="1.0" encoding="UTF-8" standalone="no"?>
<svg
   clip-rule="evenodd"
   fill-rule="evenodd"
   stroke-linejoin="round"
   stroke-miterlimit="2"
   viewBox="0 0 62 62"
   version="1.1"
   id="svg10"
   sodipodi:docname="preferences-system-windows-effect-trackmouse.svg"
   width="62"
   height="62"
   inkscape:version="1.4 (e7c3feb100, 2024-10-09)"
   xmlns:inkscape="http://www.inkscape.org/namespaces/inkscape"
   xmlns:sodipodi="http://sodipodi.sourceforge.net/DTD/sodipodi-0.dtd"
   xmlns:xlink="http://www.w3.org/1999/xlink"
   xmlns="http://www.w3.org/2000/svg"
   xmlns:svg="http://www.w3.org/2000/svg">
  <defs
     id="defs10">
    <linearGradient
       id="linearGradient10"
       inkscape:collect="always">
      <stop
         style="stop-color:#6c7884;stop-opacity:1;"
         offset="0"
         id="stop10" />
      <stop
         style="stop-color:#515862;stop-opacity:1;"
         offset="1"
         id="stop11" />
    </linearGradient>
    <linearGradient
       inkscape:collect="always"
       xlink:href="#linearGradient10"
       id="linearGradient11"
       x1="31"
       y1="59"
       x2="31"
       y2="3"
       gradientUnits="userSpaceOnUse" />
    <linearGradient
       inkscape:collect="always"
       xlink:href="#linearGradient4526"
       id="linearGradient1"
       gradientUnits="userSpaceOnUse"
       gradientTransform="matrix(0.64600129,0,0,0.64600129,6.238747,10.54581)"
       x1="20"
       y1="32.972656"
       x2="42"
       y2="32.972656" />
    <linearGradient
       id="linearGradient4526"
       inkscape:collect="always">
      <stop
         id="stop6552"
         stop-color="#ffc169" />
      <stop
         id="stop6554"
         stop-color="#ffa92d"
         offset="1" />
    </linearGradient>
    <linearGradient
       gradientUnits="userSpaceOnUse"
       y2="4"
       x2="0"
       y1="37"
       id="linearGradient4503-3"
       xlink:href="#linearGradient4816"
       inkscape:collect="always"
       gradientTransform="matrix(0.64600129,0,0,0.64600129,20.449776,10.350212)" />
    <linearGradient
       inkscape:collect="always"
       id="linearGradient4816">
      <stop
         id="stop10565"
         stop-color="#da4453" />
      <stop
         id="stop10567"
         stop-color="#ff7336"
         offset="1" />
    </linearGradient>
    <linearGradient
       inkscape:collect="always"
       xlink:href="#bevel"
       id="linearGradient2"
       gradientUnits="userSpaceOnUse"
       gradientTransform="matrix(0.64600129,0,0,0.64600129,20.449776,10.350212)"
       x1="20.4375"
       y1="22.3125"
       x2="23.53125"
       y2="25.40625" />
    <linearGradient
       id="bevel"
       inkscape:collect="always">
      <stop
         id="stop2685"
         offset="0"
         style="stop-color:#000000;stop-opacity:1;" />
      <stop
         id="stop2687"
         offset="1"
         style="stop-color:#000000;stop-opacity:0;" />
    </linearGradient>
  </defs>
  <sodipodi:namedview
     id="namedview10"
     pagecolor="#ffffff"
     bordercolor="#000000"
     borderopacity="0.25"
     inkscape:showpageshadow="2"
     inkscape:pageopacity="0.0"
     inkscape:pagecheckerboard="0"
     inkscape:deskcolor="#d1d1d1"
     inkscape:zoom="7.8541667"
     inkscape:cx="12.668435"
     inkscape:cy="52.456233"
     inkscape:window-width="1920"
     inkscape:window-height="994"
     inkscape:window-x="0"
     inkscape:window-y="0"
     inkscape:window-maximized="1"
     inkscape:current-layer="svg10" />
  <linearGradient
     id="a"
     x2="1"
     gradientTransform="matrix(0,-46.799983,46.799983,0,632.48571,54.413883)"
     gradientUnits="userSpaceOnUse">
    <stop
       stop-color="#566069"
       offset="0"
       id="stop1" />
    <stop
       stop-color="#6c7884"
       offset="1"
       id="stop2" />
  </linearGradient>
  <path
     d="M 50.952003,3 C 55.394683,3 59,6.6053166 59,11.047997 V 50.952003 C 59,55.394683 55.394683,59 50.952003,59 H 11.047997 C 6.6053166,59 3,55.394683 3,50.952003 V 11.047997 C 3,6.6053166 6.6053166,3 11.047997,3 Z"
     id="path2"
     style="fill:url(#linearGradient11);fill-opacity:0.5" />
  <path
     d="M 3,12.376408 V 11.047997 C 3,6.6053166 6.6053166,3 11.047997,3 H 50.952003 C 55.394683,3 59,6.6053166 59,11.047997 v 1.328411 z"
     fill-opacity="0.1"
     id="path3"
     style="stroke-width:1.29223;fill:#e5e5e5;fill-opacity:0.1" />
  <path
     d="m 37.920424,7.8690441 c 0,1.381249 -1.11925,2.5000009 -2.500001,2.5000009 -1.380749,0 -2.499999,-1.1187519 -2.499999,-2.5000009 0,-1.381249 1.11925,-2.499999 2.499999,-2.499999 1.380751,0 2.500001,1.11875 2.500001,2.499999 z"
     id="path443"
     style="fill:#ffffff;fill-opacity:1;stroke-width:1.24999" />
  <path
     d="m 45.42042,7.8690441 c 0,1.381249 -1.119247,2.5000009 -2.499997,2.5000009 -1.380753,0 -2.500003,-1.1187519 -2.500003,-2.5000009 0,-1.381249 1.119253,-2.499999 2.500003,-2.499999 1.38075,0 2.499997,1.11875 2.499997,2.499999 z"
     id="path444"
     style="fill:#ffffff;fill-opacity:1;stroke-width:1.24999" />
  <path
     d="m 52.920419,7.8690441 c 0,1.381249 -1.11925,2.5000009 -2.499999,2.5000009 -1.380751,0 -2.5,-1.1187519 -2.5,-2.5000009 0,-1.381249 1.119249,-2.499999 2.5,-2.499999 1.380749,0 2.499999,1.11875 2.499999,2.499999 z"
     id="path445"
     style="fill:#ffffff;fill-opacity:1;stroke-width:1.24999" />
  <g
     id="g1">
    <path
       sodipodi:nodetypes="sccccscccsssscccccccsccsssscss"
       inkscape:connector-curvature="0"
       id="path10677-1"
       d="m 24.488496,33.624234 c -6.037784,0 -10.932337,4.895388 -10.932337,10.933861 0.0046,5.648429 4.312707,10.363238 9.938445,10.876918 v -0.9897 c -5.078139,-0.51022 -8.944293,-4.785063 -8.944554,-9.887218 0,-5.490464 4.449554,-9.940174 9.938446,-9.940174 5.488893,0 9.938462,4.44971 9.938462,9.940174 h -0.01595 c 0.01595,3.975058 -4.220178,6.952294 -8.307933,6.955367 -4.089939,-0.0011 -8.571954,-2.980309 -8.571954,-6.955367 0,-3.8431 3.114785,-6.958156 6.956952,-6.958156 3.842187,0 6.956974,3.115056 6.956974,6.958156 0,2.193687 -2.447264,3.975058 -5.466219,3.975058 -3.018845,0 -5.466122,-1.781371 -5.466122,-3.975058 0.0031,-2.055247 1.987692,-3.976778 4.969231,-3.957544 0.993846,-0.02797 1.960662,1.356454 1.987737,2.46508 0,1.373076 -0.889965,2.485221 -1.987737,2.485221 -0.943616,0 -1.98777,-0.815992 -1.944971,-1.987234 h -1.001637 c -0.03489,1.987234 1.46617,2.978778 2.946617,2.980921 1.64666,0 2.981522,-1.557366 2.981522,-3.478908 0,-1.920937 -1.334862,-3.478307 -2.981522,-3.478307 -3.975447,0 -5.884969,2.410609 -5.963139,4.970771 0,2.743053 2.892261,4.968442 6.460015,4.968442 3.56777,0 6.460031,-2.225389 6.460031,-4.968442 0,-4.392163 -3.559706,-7.951394 -7.950768,-7.951394 -4.391094,0 -7.950769,3.559231 -7.950769,7.951394 0,4.968442 4.931245,7.943838 9.565752,7.949658 4.636754,0 9.317356,-2.981216 9.317356,-7.949658 0,-6.038473 -4.894554,-10.933861 -10.932339,-10.933861 z"
       style="fill:url(#linearGradient1);fill-opacity:1;stroke:none;stroke-width:1.29195;stroke-miterlimit:4;stroke-dasharray:none;stroke-opacity:1" />
    <path
       id="path10600-2"
       d="m 49.331272,15.435005 -2.315649,1.136768 c -2.317323,1.136462 -4.764998,3.726308 -4.764998,3.726308 l 0.36412,2.925849 c -0.137688,0.199245 -0.281462,0.41355 -0.42669,0.626307 l -1.029827,-1.845848 -1.675567,2.085846 1.183522,2.029231 c -0.0057,0.01652 -0.01587,0.03349 -0.02305,0.04179 l -1.481825,-1.684222 c 0,0 -0.964785,1.136773 -3.925835,5.368924 -2.961033,4.232617 -5.40791,9.160305 -5.40791,9.160305 l 0.113692,3.346459 c -0.159322,0.237165 -0.327908,0.492635 -0.483642,0.720166 l -0.46662,-2.740298 -1.029784,1.705667 -0.258917,1.644949 -0.577411,0.694594 c 0,0 -0.956231,3.575709 -0.773,4.223532 0.183212,0.646318 2.607847,-0.625066 2.607847,-0.625066 l 0.128167,-0.850919 1.962893,-0.630917 -2.184725,-0.436119 c 0.05277,-0.09366 0.117245,-0.196196 0.170687,-0.284486 0.261453,0.08617 0.569218,0.169437 1.146416,0.276511 1.383952,0.251981 2.315646,-0.25217 2.315646,-0.25217 l 0.99855,-1.264109 c 0,0 -0.772432,0.536746 -1.64146,0.695074 -0.856078,0.154129 -2.311632,-0.205493 -2.355447,-0.214677 0.07629,-0.129449 0.15831,-0.262866 0.236092,-0.392353 0.367544,-0.100308 3.679768,-0.957698 5.62695,-2.330014 2.059841,-1.453448 6.147548,-5.939918 6.147548,-5.939918 0,0 -0.985954,-0.01361 -3.11017,-0.04097 -2.001612,-0.03999 -3.770742,-0.02495 -3.97537,0 0.09276,-0.152012 0,-0.994005 0,-0.994005 l 8.533526,-1.337012 c 0,0 0.548598,-1.041849 1.385427,-2.715844 0.836818,-1.673845 3.001032,-5.885999 3.001032,-5.885999 0,0 -1.453474,-0.04318 -2.750736,-0.220026 -1.238113,-0.170418 -2.410235,-0.468405 -2.52048,-0.497176 0.0155,-0.03058 0.03061,-0.04754 0.04566,-0.06925 0.180245,-0.08443 1.337578,-0.616129 2.201899,-0.885206 0.933019,-0.290295 3.777835,-0.692152 3.777835,-0.692152 0,0 0.02192,-0.401546 0.227603,-1.228462 0.204851,-0.825998 0.614499,-2.725072 0.614499,-2.725072 l -4.949927,2.789855 c 0.208365,-0.286935 0.405267,-0.542 0.608799,-0.812614 l 4.523172,-2.64677 c 0,0 0.04562,-0.580618 0.136933,-1.339847 0.09135,-0.759385 0.07079,-1.611076 0.07079,-1.611076 z"
       inkscape:connector-curvature="0"
       style="fill:url(#linearGradient4503-3);fill-rule:evenodd;stroke-width:0.646001" />
    <path
       id="path10602-7"
       d="m 49.333163,15.435005 c 0,0 -4.592184,4.909846 -9.165385,11.204615 -4.573202,6.295228 -9.210664,13.41584 -13.848066,21.546765 -4.026954,7.060758 -2.569692,7.002168 -2.569692,7.002168 0,0 0.456595,-1.17525 3.654706,-6.719531 3.056894,-5.298003 6.924003,-12.14001 13.391159,-21.571094 3.082372,-4.494307 8.537278,-11.462923 8.537278,-11.462923 z"
       inkscape:connector-curvature="0"
       style="fill:#31363b;fill-rule:evenodd;stroke-width:0.646001" />
    <path
       id="path10604-0"
       d="m 49.331182,15.435005 -0.702668,0.87723 -2.560811,3.277385 -3.947725,4.997075 c 0.180247,-0.08616 1.336895,-0.614921 2.201231,-0.884612 0.93303,-0.28969 3.77734,-0.692465 3.77734,-0.692465 0,0 0.02457,-0.402615 0.229115,-1.229536 0.20485,-0.826001 0.61341,-2.724923 0.61341,-2.724923 l -4.273894,2.394306 c 0.208365,-0.286756 0.406,-0.541228 0.60954,-0.811537 l 3.846765,-2.252615 c 0,0 0.04513,-0.579533 0.13629,-1.338922 0.09135,-0.759385 0.07155,-1.611386 0.07155,-1.611386 z m -7.211204,9.15169 -7.694542,10.724773 8.53308,-1.335848 c 0,0 0.549154,-1.041691 1.385987,-2.717235 0.836829,-1.673842 3.000967,-5.884458 3.000967,-5.884458 0,0 -1.453353,-0.04179 -2.750599,-0.220006 -1.238106,-0.171058 -2.411295,-0.468494 -2.521459,-0.497523 0.0155,-0.03058 0.03137,-0.05208 0.04664,-0.06925 z m -7.694542,10.724773 -7.915833,13.43677 c 0.576762,0.202432 2.449633,-0.779837 2.449633,-0.779837 l 0.12833,-0.850005 1.964417,-0.631385 -2.185709,-0.436566 c 0.05269,-0.09366 0.1174,-0.195893 0.170861,-0.28388 0.261377,0.08504 0.569878,0.168831 1.147184,0.275263 1.38394,0.252699 2.313816,-0.25149 2.313816,-0.25149 l 0.999696,-1.26474 c 0,0 -0.773232,0.536255 -1.642245,0.69399 -0.856078,0.155225 -2.31071,-0.205153 -2.354507,-0.214677 0.0763,-0.129411 0.15713,-0.261506 0.23483,-0.390815 0.367483,-0.09861 3.680074,-0.957536 5.627248,-2.330453 2.059847,-1.45338 6.147482,-5.938617 6.147482,-5.938617 1.6e-5,0 -0.985371,-0.01361 -3.109587,-0.04097 -2.001611,-0.03591 -3.770821,-0.02495 -3.975391,0 0.09276,-0.152013 0,-0.994009 0,-0.994009 z"
       inkscape:connector-curvature="0"
       style="opacity:0.2;fill:url(#linearGradient2);fill-rule:evenodd;stroke-width:0.646001" />
  </g>
</svg>
