<?xml version="1.0" encoding="UTF-8" standalone="no"?>
<svg
   clip-rule="evenodd"
   fill-rule="evenodd"
   stroke-linejoin="round"
   stroke-miterlimit="2"
   viewBox="0 0 62 62"
   version="1.1"
   id="svg10"
   sodipodi:docname="preferences-system-windows-effect-blur.svg"
   width="62"
   height="62"
   inkscape:version="1.4 (e7c3feb100, 2024-10-09)"
   xmlns:inkscape="http://www.inkscape.org/namespaces/inkscape"
   xmlns:sodipodi="http://sodipodi.sourceforge.net/DTD/sodipodi-0.dtd"
   xmlns:xlink="http://www.w3.org/1999/xlink"
   xmlns="http://www.w3.org/2000/svg"
   xmlns:svg="http://www.w3.org/2000/svg">
  <defs
     id="defs10">
    <linearGradient
       id="linearGradient10"
       inkscape:collect="always">
      <stop
         style="stop-color:#6c7884;stop-opacity:1;"
         offset="0"
         id="stop10" />
      <stop
         style="stop-color:#515862;stop-opacity:1;"
         offset="1"
         id="stop11" />
    </linearGradient>
    <linearGradient
       inkscape:collect="always"
       xlink:href="#linearGradient10"
       id="linearGradient11"
       x1="31"
       y1="59"
       x2="31"
       y2="3"
       gradientUnits="userSpaceOnUse" />
  </defs>
  <sodipodi:namedview
     id="namedview10"
     pagecolor="#ffffff"
     bordercolor="#000000"
     borderopacity="0.25"
     inkscape:showpageshadow="2"
     inkscape:pageopacity="0.0"
     inkscape:pagecheckerboard="0"
     inkscape:deskcolor="#d1d1d1"
     inkscape:zoom="11.107469"
     inkscape:cx="23.272629"
     inkscape:cy="35.831745"
     inkscape:window-width="1920"
     inkscape:window-height="994"
     inkscape:window-x="0"
     inkscape:window-y="0"
     inkscape:window-maximized="1"
     inkscape:current-layer="svg10" />
  <linearGradient
     id="a"
     x2="1"
     gradientTransform="matrix(0,-46.799983,46.799983,0,632.48571,54.413883)"
     gradientUnits="userSpaceOnUse">
    <stop
       stop-color="#566069"
       offset="0"
       id="stop1" />
    <stop
       stop-color="#6c7884"
       offset="1"
       id="stop2" />
  </linearGradient>
  <path
     d="M 50.952003,3 C 55.394683,3 59,6.6053166 59,11.047997 V 50.952003 C 59,55.394683 55.394683,59 50.952003,59 H 11.047997 C 6.6053166,59 3,55.394683 3,50.952003 V 11.047997 C 3,6.6053166 6.6053166,3 11.047997,3 Z"
     id="path2"
     style="fill:url(#linearGradient11);fill-opacity:0.5" />
  <path
     d="M 3,12.376408 V 11.047997 C 3,6.6053166 6.6053166,3 11.047997,3 H 50.952003 C 55.394683,3 59,6.6053166 59,11.047997 v 1.328411 z"
     fill-opacity="0.1"
     id="path3"
     style="stroke-width:1.29223;fill:#e5e5e5;fill-opacity:0.1" />
  <path
     d="m 37.978038,7.6882027 c 0,1.3812495 -1.11925,2.5000013 -2.500001,2.5000013 -1.380749,0 -2.499999,-1.1187518 -2.499999,-2.5000013 0,-1.3812487 1.11925,-2.4999987 2.499999,-2.4999987 1.380751,0 2.500001,1.11875 2.500001,2.4999987 z"
     id="path443"
     style="fill:#ffffff;fill-opacity:1;stroke-width:1.24999" />
  <path
     d="m 45.478034,7.6882027 c 0,1.3812495 -1.119247,2.5000013 -2.499997,2.5000013 -1.380753,0 -2.500003,-1.1187518 -2.500003,-2.5000013 0,-1.3812487 1.119253,-2.4999987 2.500003,-2.4999987 1.38075,0 2.499997,1.11875 2.499997,2.4999987 z"
     id="path444"
     style="fill:#ffffff;fill-opacity:1;stroke-width:1.24999" />
  <path
     d="m 52.978033,7.6882027 c 0,1.3812495 -1.11925,2.5000013 -2.499999,2.5000013 -1.380751,0 -2.5,-1.1187518 -2.5,-2.5000013 0,-1.3812487 1.119249,-2.4999987 2.5,-2.4999987 1.380749,0 2.499999,1.11875 2.499999,2.4999987 z"
     id="path445"
     style="fill:#ffffff;fill-opacity:1;stroke-width:1.24999" />
  <path
     d="m 30.228016,17.938053 c -2.189054,7.661237 -7.547499,14.247645 -9.90968,19.520519 -0.826623,1.5678 -1.340322,3.327316 -1.340322,5.22948 0,6.232516 5.01748,11.250001 11.250002,11.250001 6.232387,0 11.25002,-5.017485 11.25002,-11.250001 0,-1.902164 -0.513697,-3.66168 -1.340327,-5.22948 C 37.775613,32.185698 32.417037,25.59929 30.228016,17.938053 Z m 13.500018,0 -1.292178,3.62988 -3.480309,-1.652353 1.652309,3.480463 -3.629844,1.292009 3.629844,1.292006 -1.652309,3.480458 3.480309,-1.652344 1.292178,3.62988 1.292192,-3.62988 3.480294,1.652344 -1.652313,-3.480458 3.629827,-1.292006 -3.629827,-1.292009 1.652313,-3.480463 -3.480294,1.652353 z m -8.362811,17.362796 c 2.334865,1.622681 3.862797,4.316168 3.862797,7.387203 0,4.986001 -4.014007,9.000001 -9.000003,9.000001 -3.07116,0 -5.764525,-1.527745 -7.387206,-3.8628 1.455843,1.01184 3.222288,1.6128 5.137205,1.6128 4.985997,0 8.999995,-4.014 8.999995,-9.000001 0,-1.914963 -0.601005,-3.681455 -1.612788,-5.137203 z"
     id="path1"
     style="fill:#ffffff;fill-opacity:1" />
</svg>
