<?xml version="1.0" encoding="UTF-8" standalone="no"?>
<svg
   clip-rule="evenodd"
   fill-rule="evenodd"
   stroke-linejoin="round"
   stroke-miterlimit="2"
   viewBox="0 0 62 62"
   version="1.1"
   id="svg12"
   sodipodi:docname="preferences-system-windows-effect-dimscreen.svg"
   width="62"
   height="62"
   inkscape:version="1.4 (e7c3feb100, 2024-10-09)"
   xmlns:inkscape="http://www.inkscape.org/namespaces/inkscape"
   xmlns:sodipodi="http://sodipodi.sourceforge.net/DTD/sodipodi-0.dtd"
   xmlns:xlink="http://www.w3.org/1999/xlink"
   xmlns="http://www.w3.org/2000/svg"
   xmlns:svg="http://www.w3.org/2000/svg">
  <defs
     id="defs12">
    <linearGradient
       id="linearGradient12"
       inkscape:collect="always">
      <stop
         style="stop-color:#4b545c;stop-opacity:1;"
         offset="0"
         id="stop12" />
      <stop
         style="stop-color:#6c7884;stop-opacity:1;"
         offset="1"
         id="stop13" />
    </linearGradient>
    <linearGradient
       inkscape:collect="always"
       xlink:href="#linearGradient12"
       id="linearGradient13"
       x1="30.332001"
       y1="2.332"
       x2="30.332001"
       y2="58.332001"
       gradientUnits="userSpaceOnUse"
       gradientTransform="translate(0.668,0.668)" />
    <linearGradient
       inkscape:collect="always"
       xlink:href="#linearGradient931"
       id="linearGradient933"
       x1="-2.3504074"
       y1="-35.968418"
       x2="-2.3504074"
       y2="-28.273981"
       gradientUnits="userSpaceOnUse"
       gradientTransform="matrix(2.1480025,0,0,2.2454982,0.99571015,29.732264)" />
    <linearGradient
       inkscape:collect="always"
       id="linearGradient931">
      <stop
         style="stop-color:#ff2a2a;stop-opacity:1"
         offset="0"
         id="stop927" />
      <stop
         style="stop-color:#c83771;stop-opacity:1"
         offset="1"
         id="stop929" />
    </linearGradient>
  </defs>
  <sodipodi:namedview
     id="namedview12"
     pagecolor="#ffffff"
     bordercolor="#000000"
     borderopacity="0.25"
     inkscape:showpageshadow="2"
     inkscape:pageopacity="0.0"
     inkscape:pagecheckerboard="0"
     inkscape:deskcolor="#d1d1d1"
     inkscape:zoom="7.8541665"
     inkscape:cx="11.90451"
     inkscape:cy="34.6313"
     inkscape:window-width="1920"
     inkscape:window-height="994"
     inkscape:window-x="0"
     inkscape:window-y="0"
     inkscape:window-maximized="1"
     inkscape:current-layer="svg12" />
  <linearGradient
     id="a"
     x2="1"
     gradientTransform="matrix(0,-46.799983,46.799983,0,631.81771,53.745883)"
     gradientUnits="userSpaceOnUse">
    <stop
       stop-color="#566069"
       offset="0"
       id="stop1" />
    <stop
       stop-color="#6c7884"
       offset="1"
       id="stop2" />
  </linearGradient>
  <linearGradient
     id="b"
     x2="1"
     gradientTransform="matrix(0,-25.373159,25.373159,0,2512.6636,48.880127)"
     gradientUnits="userSpaceOnUse">
    <stop
       stop-color="#b8b8b8"
       offset="0"
       id="stop3" />
    <stop
       stop-color="#bababa"
       offset="1"
       id="stop4" />
  </linearGradient>
  <path
     d="M 50.952003,3 C 55.394683,3 59,6.6053166 59,11.047997 V 50.952003 C 59,55.394683 55.394683,59 50.952003,59 H 11.047997 C 6.6053166,59 3,55.394683 3,50.952003 V 11.047997 C 3,6.6053166 6.6053166,3 11.047997,3 Z"
     id="path4"
     style="fill:url(#linearGradient13);fill-opacity:1" />
  <path
     d="M 3,12.376408 V 11.047997 C 3,6.6053166 6.6053166,3 11.047997,3 H 50.952003 C 55.394683,3 59,6.6053166 59,11.047997 v 1.328411 z"
     fill="#ebebeb"
     fill-opacity="0.1"
     id="path5"
     style="stroke-width:1.29223" />
  <path
     d="m 47.884253,24.547539 c 0,-0.908436 -1.298689,-1.646298 -2.895883,-1.646298 H 17.26103 c -1.598486,0 -2.894572,0.737862 -2.894591,1.646298 L 14.366,45.829 c -2.9e-5,1.416429 1.296544,2.445141 2.89503,2.445141 h 27.72734 c 1.597194,0 2.895883,-0.901391 2.895883,-2.445141 z"
     id="path9"
     style="fill:#ffffff;fill-opacity:1"
     sodipodi:nodetypes="sssssssss" />
  <path
     d="m 14.366439,22.77392 h 33.517814 v 3.292596 H 14.366439 Z"
     fill="#404040"
     id="path10"
     style="fill:#262626;fill-opacity:1;stroke-width:1.68492" />
  <path
     d="m 39.742706,7.688203 c 0,1.381249 -1.11925,2.500001 -2.500001,2.500001 -1.380749,0 -2.499999,-1.118752 -2.499999,-2.500001 0,-1.381249 1.11925,-2.499999 2.499999,-2.499999 1.380751,0 2.500001,1.11875 2.500001,2.499999 z"
     id="path443"
     style="fill:#ffffff;fill-opacity:1;stroke-width:1.24999" />
  <path
     d="m 47.242702,7.688203 c 0,1.381249 -1.119247,2.500001 -2.499997,2.500001 -1.380753,0 -2.500003,-1.118752 -2.500003,-2.500001 0,-1.381249 1.119253,-2.499999 2.500003,-2.499999 1.38075,0 2.499997,1.11875 2.499997,2.499999 z"
     id="path444"
     style="fill:#ffffff;fill-opacity:1;stroke-width:1.24999" />
  <path
     d="m 54.742701,7.688203 c 0,1.381249 -1.11925,2.500001 -2.499999,2.500001 -1.380751,0 -2.5,-1.118752 -2.5,-2.500001 0,-1.381249 1.119249,-2.499999 2.5,-2.499999 1.380749,0 2.499999,1.11875 2.499999,2.499999 z"
     id="path445"
     style="fill:#ffffff;fill-opacity:1;stroke-width:1.24999" />
  <g
     transform="matrix(1.8333334,0,0,1.7500001,34.791793,94.020425)"
     id="g40-2-6"
     style="stroke-width:1.30267">
    <path
       d="m -2,-36.353955 a 2,2 0 0 0 -2,2 v 2 h -1 v 4 h 6 v -4 H 0 v -2 a 2,2 0 0 0 -2,-2 z m 0,1 a 1,1 0 0 1 1,1 v 2 h -2 v -2 a 1,1 0 0 1 1,-1 z"
       id="path38-9-0"
       style="fill:url(#linearGradient933);fill-opacity:1;stroke-width:1.30267" />
  </g>
</svg>
