<?xml version="1.0" encoding="UTF-8" standalone="no"?>
<svg
   clip-rule="evenodd"
   fill-rule="evenodd"
   stroke-linejoin="round"
   stroke-miterlimit="2"
   viewBox="0 0 62 62"
   version="1.1"
   id="svg10"
   sodipodi:docname="preferences-system-windows-effect-wobblywindows.svg"
   width="62"
   height="62"
   inkscape:version="1.4 (e7c3feb100, 2024-10-09)"
   xmlns:inkscape="http://www.inkscape.org/namespaces/inkscape"
   xmlns:sodipodi="http://sodipodi.sourceforge.net/DTD/sodipodi-0.dtd"
   xmlns:xlink="http://www.w3.org/1999/xlink"
   xmlns="http://www.w3.org/2000/svg"
   xmlns:svg="http://www.w3.org/2000/svg">
  <defs
     id="defs10">
    <linearGradient
       id="linearGradient10"
       inkscape:collect="always">
      <stop
         style="stop-color:#6c7884;stop-opacity:1;"
         offset="0"
         id="stop10" />
      <stop
         style="stop-color:#515862;stop-opacity:1;"
         offset="1"
         id="stop11" />
    </linearGradient>
    <linearGradient
       inkscape:collect="always"
       xlink:href="#linearGradient10"
       id="linearGradient11"
       x1="31"
       y1="59"
       x2="31"
       y2="3"
       gradientUnits="userSpaceOnUse" />
    <linearGradient
       id="linearGradient4227">
      <stop
         id="stop6538"
         stop-color="#2e3436" />
      <stop
         id="stop6540-9"
         stop-color="#555753"
         offset="1" />
    </linearGradient>
  </defs>
  <sodipodi:namedview
     id="namedview10"
     pagecolor="#ffffff"
     bordercolor="#000000"
     borderopacity="0.25"
     inkscape:showpageshadow="2"
     inkscape:pageopacity="0.0"
     inkscape:pagecheckerboard="0"
     inkscape:deskcolor="#d1d1d1"
     inkscape:zoom="11.107469"
     inkscape:cx="27.594045"
     inkscape:cy="26.468676"
     inkscape:window-width="1920"
     inkscape:window-height="994"
     inkscape:window-x="0"
     inkscape:window-y="0"
     inkscape:window-maximized="1"
     inkscape:current-layer="svg10" />
  <linearGradient
     id="a"
     x2="1"
     gradientTransform="matrix(0,-46.799983,46.799983,0,632.48571,54.413883)"
     gradientUnits="userSpaceOnUse">
    <stop
       stop-color="#566069"
       offset="0"
       id="stop1" />
    <stop
       stop-color="#6c7884"
       offset="1"
       id="stop2" />
  </linearGradient>
  <path
     d="M 50.952003,3 C 55.394683,3 59,6.6053166 59,11.047997 V 50.952003 C 59,55.394683 55.394683,59 50.952003,59 H 11.047997 C 6.6053166,59 3,55.394683 3,50.952003 V 11.047997 C 3,6.6053166 6.6053166,3 11.047997,3 Z"
     id="path2"
     style="fill:url(#linearGradient11);fill-opacity:0.5" />
  <path
     d="M 3,12.376408 V 11.047997 C 3,6.6053166 6.6053166,3 11.047997,3 H 50.952003 C 55.394683,3 59,6.6053166 59,11.047997 v 1.328411 z"
     fill-opacity="0.1"
     id="path3"
     style="stroke-width:1.29223;fill:#e5e5e5;fill-opacity:0.1" />
  <path
     d="m 37.920424,7.8690441 c 0,1.381249 -1.11925,2.5000009 -2.500001,2.5000009 -1.380749,0 -2.499999,-1.1187519 -2.499999,-2.5000009 0,-1.381249 1.11925,-2.499999 2.499999,-2.499999 1.380751,0 2.500001,1.11875 2.500001,2.499999 z"
     id="path443"
     style="fill:#ffffff;fill-opacity:1;stroke-width:1.24999" />
  <path
     d="m 45.42042,7.8690441 c 0,1.381249 -1.119247,2.5000009 -2.499997,2.5000009 -1.380753,0 -2.500003,-1.1187519 -2.500003,-2.5000009 0,-1.381249 1.119253,-2.499999 2.500003,-2.499999 1.38075,0 2.499997,1.11875 2.499997,2.499999 z"
     id="path444"
     style="fill:#ffffff;fill-opacity:1;stroke-width:1.24999" />
  <path
     d="m 52.920419,7.8690441 c 0,1.381249 -1.11925,2.5000009 -2.499999,2.5000009 -1.380751,0 -2.5,-1.1187519 -2.5,-2.5000009 0,-1.381249 1.119249,-2.499999 2.5,-2.499999 1.380749,0 2.499999,1.11875 2.499999,2.499999 z"
     id="path445"
     style="fill:#ffffff;fill-opacity:1;stroke-width:1.24999" />
  <g
     id="g926"
     transform="matrix(4.2897404,-3.952104,3.9615919,4.2794666,-102.59462,105.38168)"
     style="stroke-width:0.737962">
    <rect
       id="rect898-3-3"
       width="5.6103959"
       height="4.4331903"
       x="22.121889"
       y="4.561492"
       rx="0.30982146"
       ry="0.31558836"
       style="fill:#f9f9f9;stroke-width:0.737962" />
    <path
       id="path900-6-6"
       style="fill:#282828;fill-opacity:1;stroke:none;stroke-width:0.0926412;stroke-linejoin:round;stroke-dashoffset:1;stroke-opacity:1"
       d="m 22.380206,4.4967927 5.084725,-2.9e-5 c 0.14311,-1e-6 0.279353,0.141467 0.279353,0.289484 v 0.319025 H 22.121892 V 4.7640988 c 0,-0.1480531 0.115212,-0.267305 0.258314,-0.2673061 z"
       sodipodi:nodetypes="sssccss" />
    <rect
       width="0.37482631"
       x="26.714972"
       y="4.626298"
       rx="0.39050585"
       height="0.37482631"
       id="rect25-8-7-7-3-3-7-7"
       style="fill:#ffffff;stroke-width:0.0195251"
       inkscape:transform-center-x="3.4500537"
       inkscape:transform-center-y="-2.8264864"
       ry="0.39050585" />
  </g>
</svg>
