<?xml version="1.0" encoding="UTF-8" standalone="no"?>
<svg
   version="1.1"
   viewBox="0 0 32 32"
   id="svg1"
   sodipodi:docname="bookmark-new.svg"
   width="32"
   height="32"
   inkscape:version="1.4 (e7c3feb100, 2024-10-09)"
   xmlns:inkscape="http://www.inkscape.org/namespaces/inkscape"
   xmlns:sodipodi="http://sodipodi.sourceforge.net/DTD/sodipodi-0.dtd"
   xmlns="http://www.w3.org/2000/svg"
   xmlns:svg="http://www.w3.org/2000/svg">
  <sodipodi:namedview
     id="namedview1"
     pagecolor="#ffffff"
     bordercolor="#000000"
     borderopacity="0.25"
     inkscape:showpageshadow="2"
     inkscape:pageopacity="0.0"
     inkscape:pagecheckerboard="0"
     inkscape:deskcolor="#d1d1d1"
     inkscape:zoom="23.5625"
     inkscape:cx="13.135279"
     inkscape:cy="17.27321"
     inkscape:window-width="1920"
     inkscape:window-height="994"
     inkscape:window-x="0"
     inkscape:window-y="0"
     inkscape:window-maximized="1"
     inkscape:current-layer="svg1" />
  <defs
     id="defs1">
    <style
       type="text/css"
       id="current-color-scheme">.ColorScheme-Text { color:#fcfcfc; } </style>
  </defs>
  <path
     style="fill:currentColor;fill-opacity:1;stroke:none;stroke-width:1.99991"
     d="m 19.999993,17.999979 v 4.000025 h -3.999978 v 1.999971 h 3.999978 V 28 h 2.000015 v -4.000025 h 3.999977 V 22.000004 H 22.000008 V 17.999979 H 19.999993 M 6.0000149,7.9999948 c 0,3.9999942 0,19.9999822 0,19.9999822 l 7.9999861,-3.187494 v -2.000012 l -5.9999884,2.375004 c 0,0 0,-15.1874832 0,-17.1874803 0,-1.9999972 1.9999974,-1.9999972 1.9999974,-1.9999972 h 7.999991 c 0,0 1.999992,0 1.999992,1.9999972 0,1.9999971 0,7.9999923 0,7.9999923 h 2.000012 c 0,0 0,-3.999999 0,-7.9999923 C 22.000005,4 18.000001,4 18.000001,4 H 10.00001 c 0,0 -3.9999951,0 -3.9999951,3.9999948 z"
     class="ColorScheme-Text"
     id="path1" />
</svg>
