<?xml version="1.0" encoding="UTF-8" standalone="no"?>
<svg
   version="1.1"
   viewBox="0 0 32 32"
   id="svg1"
   sodipodi:docname="bookmark-edit.svg"
   width="32"
   height="32"
   inkscape:version="1.4 (e7c3feb100, 2024-10-09)"
   xmlns:inkscape="http://www.inkscape.org/namespaces/inkscape"
   xmlns:sodipodi="http://sodipodi.sourceforge.net/DTD/sodipodi-0.dtd"
   xmlns="http://www.w3.org/2000/svg"
   xmlns:svg="http://www.w3.org/2000/svg">
  <sodipodi:namedview
     id="namedview1"
     pagecolor="#ffffff"
     bordercolor="#000000"
     borderopacity="0.25"
     inkscape:showpageshadow="2"
     inkscape:pageopacity="0.0"
     inkscape:pagecheckerboard="0"
     inkscape:deskcolor="#d1d1d1"
     inkscape:zoom="16.661204"
     inkscape:cx="16.955558"
     inkscape:cy="19.566414"
     inkscape:window-width="1920"
     inkscape:window-height="994"
     inkscape:window-x="0"
     inkscape:window-y="0"
     inkscape:window-maximized="1"
     inkscape:current-layer="svg1" />
  <defs
     id="defs1">
    <style
       type="text/css"
       id="current-color-scheme">.ColorScheme-Text { color:#fcfcfc; }</style>
  </defs>
  <path
     style="fill:currentColor;fill-opacity:1;stroke:none;stroke-width:1.99991"
     d="m 22.000007,16 -8.000017,7.999977 v 4.000002 h 4.000014 l 7.999991,-7.99997 z m -0.621212,3.378902 1.18381,1.183694 -5.937606,5.999985 -1.1875,-1.187612 z M 6.0000049,8.0000009 c 0,3.9999981 0,19.9999991 0,19.9999991 l 6.0000001,-2.390623 v -2.003915 l -4.0000003,1.582036 c 0,0 0,-15.187498 0,-17.1874971 0,-2.0000018 2.0000013,-2.0000018 2.0000013,-2.0000018 h 7.999998 c 0,0 1.999991,0 1.999991,2.0000018 0,1.9999991 0,6.0000081 0,6.0000081 h 2.000012 c 0,0 0,-2.00001 0,-6.0000081 C 22.000007,4 18.000004,4 18.000004,4 h -7.999998 c 0,0 -4.000001,0 -4.0000011,4.0000009 z"
     class="ColorScheme-Text"
     id="path1" />
</svg>
