<?xml version="1.0" encoding="UTF-8" standalone="no"?>
<svg
   viewBox="0 0 62 62"
   version="1.1"
   id="svg1"
   sodipodi:docname="system-shutdown.svg"
   inkscape:version="1.4 (e7c3feb100, 2024-10-09)"
   width="62"
   height="62"
   xmlns:inkscape="http://www.inkscape.org/namespaces/inkscape"
   xmlns:sodipodi="http://sodipodi.sourceforge.net/DTD/sodipodi-0.dtd"
   xmlns="http://www.w3.org/2000/svg"
   xmlns:svg="http://www.w3.org/2000/svg">
  <sodipodi:namedview
     id="namedview1"
     pagecolor="#ffffff"
     bordercolor="#000000"
     borderopacity="0.25"
     inkscape:showpageshadow="2"
     inkscape:pageopacity="0.0"
     inkscape:pagecheckerboard="0"
     inkscape:deskcolor="#d1d1d1"
     inkscape:zoom="12.326157"
     inkscape:cx="33.059777"
     inkscape:cy="28.800542"
     inkscape:window-width="1920"
     inkscape:window-height="994"
     inkscape:window-x="0"
     inkscape:window-y="0"
     inkscape:window-maximized="1"
     inkscape:current-layer="svg1"
     showguides="false" />
  <defs
     id="defs1">
    <style
       type="text/css"
       id="style1">.ColorScheme-Text {
        color:#d8dee9;
      }</style>
  </defs>
  <g
     id="g1"
     transform="translate(28.502489,-0.29805374)">
    <circle
       cx="2.4975109"
       cy="31.298054"
       r="28"
       id="circle2-0-5"
       fill="#ae1b29"
       style="stroke-width:3.11111" />
    <path
       d="m -15.114358,13.721397 c -9.782055,9.788275 -9.702025,25.765126 0.23996,35.452105 9.2606327,9.023016 24.1837741,9.391823 33.848802,0.803949 8.468599,-7.524733 10.716075,-19.513266 5.951741,-29.412747 -0.571813,-1.18812 -2.068746,-1.596037 -3.195266,-0.911721 -1.010019,0.613602 -1.351392,1.888775 -0.843643,2.956427 3.925515,8.253968 1.911323,18.259208 -5.359377,24.364363 -7.3747989,6.192629 -18.3166763,6.296776 -25.801873,0.238124 -9.546444,-7.72693 -10.093452,-21.831519 -1.64098,-30.289295 6.1600061,-6.163921 15.4100923,-7.685075 23.125443,-4.003802 1.060621,0.506044 2.328072,0.157795 2.937859,-0.847166 l 0.0062,-0.0067 C 14.835671,10.94113 14.43425,9.4463096 13.25097,8.875342 3.8000743,4.316215 -7.5581724,6.1615092 -15.113191,13.721275 Z"
       id="path1-0-4-6"
       style="fill:#ffffff;fill-opacity:1;stroke-width:0.905203" />
    <path
       d="m -8.5010101,32.989773 c -0.039698,-0.239089 -0.072116,-0.480408 -0.097533,-0.723956 0.013689,0.144823 0.031204,0.286845 0.044551,0.431627 -0.1120622,-1.099526 -0.084342,-2.210112 0.07784,-3.30298 -0.020533,0.143765 -0.0434,0.285165 -0.065738,0.428923 0.1692755,-1.099921 0.479668,-2.169957 0.9258728,-3.191008 -0.0588,0.135738 -0.1175688,0.271382 -0.1757155,0.402239 0.4561698,-1.035241 1.0454671,-2.00951 1.7552267,-2.896685 -0.094298,0.117973 -0.1908045,0.238339 -0.2851645,0.356236 0.717024,-0.889368 1.544536,-1.677498 2.4677209,-2.350209 -0.1226711,0.08824 -0.2474578,0.1792 -0.3696529,0.267671 0.9304742,-0.674958 1.9443231,-1.222822 3.0171773,-1.629742 -0.1385377,0.05213 -0.2768888,0.103855 -0.4102186,0.156069 1.02422753,-0.384063 2.09554176,-0.634664 3.1852302,-0.752558 -0.1447289,0.01758 -0.2870311,0.02893 -0.4314862,0.0448 1.091916,-0.110621 2.1924249,-0.08394 3.2775182,0.07942 -0.14364,-0.02396 -0.2848844,-0.04285 -0.4287516,-0.06586 1.08262,0.16576 2.1377129,0.470396 3.146332,0.903775 -0.1353955,-0.0586 -0.2711333,-0.117152 -0.4019337,-0.175715 1.0512786,0.45845 2.0413866,1.054947 2.9347453,1.771741 -0.1180978,-0.09414 -0.2380311,-0.191085 -0.3559298,-0.285258 0.8885335,0.716702 1.6757535,1.543975 2.3475765,2.467054 -0.08848,-0.122329 -0.17892,-0.247146 -0.267587,-0.369662 0.674035,0.930381 1.221011,1.944249 1.624538,3.019576 -0.05208,-0.138289 -0.103631,-0.276733 -0.155462,-0.410265 0.383152,1.024349 0.632927,2.095934 0.747544,3.188316 -0.01369,-0.14476 -0.03018,-0.286906 -0.0444,-0.431632 0.109947,1.092274 0.08232,2.193215 -0.08182,3.278831 0.02862,-0.14364 0.04334,-0.285227 0.06583,-0.428938 -0.166506,1.083158 -0.471697,2.138895 -0.90794,3.145731 0.05864,-0.135644 0.117071,-0.271289 0.175809,-0.402223 -0.45902,1.052038 -1.058295,2.040466 -1.775465,2.934702 0.09417,-0.117942 0.191209,-0.238125 0.285227,-0.356278 -0.716993,0.889392 -1.5468601,1.675044 -2.4677024,2.35022 0.1224223,-0.08823 0.2475511,-0.179231 0.3696809,-0.267649 -0.918148,0.663205 -1.9174835,1.206645 -2.9782666,1.611431 0.13832,-0.05186 0.2769511,-0.103662 0.4102404,-0.156084 -1.0388622,0.393316 -2.1271911,0.650726 -3.2312653,0.768258 0.1447289,-0.01587 0.2869689,-0.02862 0.4314551,-0.04486 -1.0967351,0.110756 -2.1972409,0.08353 -3.28712224,-0.07977 0.14373333,0.02458 0.28479111,0.04287 0.42872355,0.0658 -0.27785333,-0.04539 -0.55538933,-0.09551 -0.82800978,-0.154965 0.23348889,0.955743 0.46687823,1.91151 0.69790934,2.864808 0.009956,-0.014 0.0289333,-0.02458 0.0394178,-0.03727 C 1.2229512,44.713183 1.4245139,44.258697 1.4377267,43.82367 1.4479934,43.405372 1.2757312,42.903313 0.96795519,42.609609 0.65065608,42.306057 0.23350897,42.074634 -0.22104925,42.080443 c -0.45219378,0.01027 -0.87894175,0.151884 -1.21389025,0.470832 -0.00996,0.01338 -0.029244,0.0252 -0.039449,0.03752 -0.4334555,0.41281 -0.6198173,1.040894 -0.4828817,1.623863 0.1328755,0.563675 0.5997537,1.113812 1.18316796,1.243409 2.52284354,0.549487 5.20509114,0.491876 7.67053464,-0.321468 2.2400249,-0.739374 4.3070756,-1.966434 5.9579056,-3.665387 1.650765,-1.694187 2.892751,-3.773479 3.567284,-6.044543 0.695358,-2.337923 0.777519,-4.861469 0.262609,-7.243187 -0.502274,-2.328585 -1.609549,-4.493762 -3.138993,-6.3132 C 12.788628,20.969614 11.90408,20.188107 10.959768,19.49168 10.005948,18.79018 8.9613796,18.254934 7.8690841,17.802691 6.7481974,17.340148 5.5887423,17.073881 4.3932605,16.902959 3.1619139,16.723974 1.9397232,16.756861 0.71018408,16.890297 -0.35301325,17.006528 -1.400347,17.25761 -2.4002613,17.632642 c -1.1090675,0.413248 -2.1649848,0.911999 -3.1458497,1.583312 -0.9711365,0.666765 -1.8792574,1.409608 -2.6681231,2.287642 -0.786408,0.875696 -1.4930534,1.830303 -2.0502779,2.867892 -1.154929,2.155978 -1.783152,4.594131 -1.755342,7.045811 0.0068,0.786688 0.08546,1.579956 0.213111,2.355142 0.069,0.417795 0.428313,0.854663 0.778898,1.06522 0.350557,0.210467 0.867424,0.309649 1.2669562,0.196529 0.4285929,-0.121987 0.8484933,-0.376301 1.0653222,-0.779949 0.217,-0.403633 0.26796,-0.808896 0.1949422,-1.265258 z"
       id="path2-2-8-0"
       style="fill:#ffffff;fill-opacity:1;stroke-width:0.0339985" />
    <path
       d="M -17.370128,52.502733 2.1497792,34.533142 C 2.6310992,34.090055 2.6709214,32.790432 1.895477,31.948133 1.1200916,31.105837 -0.33088081,31.178599 -0.81220392,31.62169 L -20.179583,49.450908 c -0.48132,0.443109 -0.521074,1.742629 0.254364,2.584922 0.775411,0.842324 2.07378,0.910056 2.555094,0.466919 z"
       id="path2653-4-7-6"
       style="fill:#ffffff;fill-opacity:1;stroke-width:0.783897"
       sodipodi:nodetypes="sssssss" />
  </g>
</svg>
