<?xml version="1.0" encoding="UTF-8" standalone="no"?>
<svg
   viewBox="0 0 62 62"
   version="1.1"
   id="svg1"
   sodipodi:docname="system-shutdown-update.svg"
   inkscape:version="1.4 (e7c3feb100, 2024-10-09)"
   width="62"
   height="62"
   xmlns:inkscape="http://www.inkscape.org/namespaces/inkscape"
   xmlns:sodipodi="http://sodipodi.sourceforge.net/DTD/sodipodi-0.dtd"
   xmlns="http://www.w3.org/2000/svg"
   xmlns:svg="http://www.w3.org/2000/svg">
  <sodipodi:namedview
     id="namedview1"
     pagecolor="#ffffff"
     bordercolor="#000000"
     borderopacity="0.25"
     inkscape:showpageshadow="2"
     inkscape:pageopacity="0.0"
     inkscape:pagecheckerboard="0"
     inkscape:deskcolor="#d1d1d1"
     inkscape:zoom="8.7159092"
     inkscape:cx="16.923077"
     inkscape:cy="27.306388"
     inkscape:window-width="1920"
     inkscape:window-height="994"
     inkscape:window-x="0"
     inkscape:window-y="0"
     inkscape:window-maximized="1"
     inkscape:current-layer="svg1"
     showguides="false" />
  <defs
     id="defs1">
    <style
       type="text/css"
       id="style1">.ColorScheme-Text {
        color:#d8dee9;
      }</style>
  </defs>
  <g
     id="g1"
     transform="matrix(3.1111111,0,0,3.1111111,82.341077,-0.44583161)">
    <circle
       cx="-16.502489"
       cy="10.107589"
       r="9"
       id="circle2-0-5"
       fill="#ae1b29" />
    <path
       d="m -22.163447,4.4579496 c -3.144232,3.1462313 -3.118508,8.2816474 0.07713,11.3953194 2.976632,2.900255 7.773356,3.0188 10.879972,0.258412 2.7220498,-2.418664 3.4444528,-6.2721212 1.9130598,-9.4540969 -0.183797,-0.3818958 -0.664954,-0.513012 -1.0270498,-0.2930531 -0.324649,0.197229 -0.434376,0.6071061 -0.271171,0.9502799 1.2617728,2.6530609 0.6143538,5.8690311 -1.722657,7.8314021 -2.370471,1.990488 -5.887503,2.023964 -8.293459,0.07654 -3.0685,-2.483656 -3.244324,-7.0172737 -0.527458,-9.7358447 1.980002,-1.9812601 4.953244,-2.4702026 7.433178,-1.2869363 0.340914,0.162657 0.748309,0.05072 0.944312,-0.2723033 l 0.002,-0.00215 c 0.218938,-0.3612263 0.08991,-0.8417043 -0.29043,-1.0252296 -3.037788,-1.4654337 -6.688653,-0.8723034 -9.117052,1.5576212 z"
       id="path1-0-4-6"
       style="fill:#ffffff;fill-opacity:1;stroke-width:0.290958" />
    <path
       d="m -22.888516,16.923379 6.274256,-5.77594 c 0.15471,-0.142421 0.16751,-0.560157 -0.08174,-0.830896 -0.249231,-0.270738 -0.715615,-0.24735 -0.870326,-0.104928 l -6.225229,5.73082 c -0.15471,0.142428 -0.167488,0.560131 0.08176,0.830868 0.249239,0.270747 0.666572,0.292518 0.82128,0.150081 z"
       id="path2653-4-7-6"
       style="fill:#ffffff;fill-opacity:1;stroke-width:0.251967"
       sodipodi:nodetypes="sssssss" />
    <path
       d="m -16.43378,7.1534278 c 0.0062,0.00587 0.01191,0.012122 0.01678,0.019043 l 1.879662,2.438533 c 0.08347,0.107677 0.0076,0.265663 -0.129993,0.268987 l -0.832908,0.02478 0.0508,2.6593992 c 0.0049,0.275362 -0.214335,0.505277 -0.490304,0.513591 l -0.999544,0.02959 c -0.275979,0.0082 -0.503886,-0.208282 -0.509127,-0.483649 l -0.05017,-2.6598102 -0.832965,0.02507 c -0.137154,0.00492 -0.219335,-0.148531 -0.139857,-0.261024 l 1.78558,-2.5483379 c 0.05882,-0.083918 0.17816,-0.096657 0.251725,-0.026831 z m -0.110734,0.4027186 z"
       id="path8-2-1"
       style="fill:#fefeff;fill-opacity:1;stroke-width:0.297285"
       sodipodi:nodetypes="ccccccccccccccccccc" />
    <path
       d="m -20.037828,10.651428 c -0.01276,-0.07685 -0.02318,-0.154417 -0.03135,-0.2327 0.0044,0.04655 0.01003,0.0922 0.01432,0.138737 -0.03602,-0.353419 -0.02711,-0.7103932 0.02502,-1.0616722 -0.0066,0.04621 -0.01395,0.09166 -0.02113,0.137868 0.05441,-0.353546 0.154179,-0.6974859 0.297602,-1.0256799 -0.0189,0.04363 -0.03779,0.08723 -0.05648,0.129291 0.146626,-0.332756 0.336043,-0.645915 0.56418,-0.931077 -0.03031,0.03792 -0.06133,0.07661 -0.09166,0.114504 0.230472,-0.285868 0.496458,-0.539196 0.793196,-0.755424 -0.03943,0.02836 -0.07954,0.0576 -0.118817,0.08604 0.299081,-0.216951 0.624961,-0.39305 0.969807,-0.523846 -0.04453,0.01675 -0.089,0.03338 -0.131856,0.05016 0.329215,-0.123449 0.673566,-0.203999 1.023823,-0.241893 -0.04652,0.0056 -0.09226,0.0093 -0.138692,0.0144 0.350973,-0.03556 0.704708,-0.02698 1.053488,0.02553 -0.04617,-0.0077 -0.09157,-0.01377 -0.137813,-0.02117 0.347985,0.05328 0.687122,0.151198 1.011321,0.290499 -0.04352,-0.01884 -0.08715,-0.03766 -0.129193,-0.05648 0.337911,0.147359 0.65616,0.33909 0.943311,0.569488 -0.03796,-0.03026 -0.07651,-0.06142 -0.114406,-0.09169 0.2856,0.230369 0.538635,0.496278 0.754578,0.792982 -0.02844,-0.03932 -0.05751,-0.07944 -0.08601,-0.11882 0.216654,0.299051 0.392468,0.624937 0.522173,0.970578 -0.01674,-0.04445 -0.03331,-0.08895 -0.04997,-0.131872 0.123156,0.3292549 0.203441,0.6736929 0.240282,1.0248159 -0.0044,-0.04653 -0.0097,-0.09222 -0.01427,-0.138739 0.03534,0.3510882 0.02646,0.7049622 -0.0263,1.0539102 0.0092,-0.04617 0.01393,-0.09168 0.02116,-0.137873 -0.05352,0.348158 -0.151617,0.687502 -0.291838,1.011128 0.01885,-0.0436 0.03763,-0.0872 0.05651,-0.129286 -0.147542,0.338155 -0.340166,0.655864 -0.570685,0.943297 0.03027,-0.03791 0.06146,-0.07654 0.09168,-0.114518 -0.230462,0.285876 -0.497205,0.538407 -0.79319,0.755428 0.03935,-0.02836 0.07957,-0.05761 0.118826,-0.08603 -0.295119,0.213173 -0.616334,0.38785 -0.9573,0.51796 0.04446,-0.01667 0.08902,-0.03332 0.131863,-0.05017 -0.33392,0.126423 -0.68374,0.209162 -1.038621,0.24694 0.04652,-0.0051 0.09224,-0.0092 0.138682,-0.01442 -0.352522,0.0356 -0.706256,0.02685 -1.056575,-0.02564 0.0462,0.0079 0.09154,0.01378 0.137804,0.02115 -0.08931,-0.01459 -0.178518,-0.0307 -0.266146,-0.04981 0.07505,0.307203 0.150068,0.614414 0.224328,0.920831 0.0032,-0.0045 0.0093,-0.0079 0.01267,-0.01198 0.101236,-0.09651 0.166024,-0.242595 0.170271,-0.382425 0.0033,-0.134453 -0.05207,-0.295829 -0.150998,-0.390234 -0.101989,-0.09757 -0.236072,-0.171956 -0.38218,-0.170089 -0.145347,0.0033 -0.282516,0.04882 -0.390178,0.151339 -0.0032,0.0043 -0.0094,0.0081 -0.01268,0.01206 -0.139325,0.132689 -0.199227,0.334573 -0.155212,0.521956 0.04271,0.181181 0.192778,0.358011 0.380304,0.399667 0.810913,0.176621 1.673064,0.158103 2.465528,-0.103329 0.720008,-0.237656 1.384417,-0.632068 1.915041,-1.17816 0.530603,-0.54456 0.929813,-1.212904 1.146627,-1.942889 0.223508,-0.751475 0.249917,-1.5626152 0.08441,-2.3281671 -0.161445,-0.748473 -0.517355,-1.444423 -1.008962,-2.029242 -0.243196,-0.288858 -0.527515,-0.540057 -0.831044,-0.763908 -0.306585,-0.225482 -0.642339,-0.397525 -0.993434,-0.542889 -0.360285,-0.148675 -0.732967,-0.23426 -1.117229,-0.2892 -0.39579,-0.05753 -0.788637,-0.04696 -1.183846,-0.0041 -0.341742,0.03736 -0.678384,0.118065 -0.999785,0.238611 -0.356486,0.13283 -0.695888,0.293143 -1.011166,0.508922 -0.312151,0.214317 -0.604047,0.453088 -0.857611,0.735313 -0.252774,0.281474 -0.47991,0.588312 -0.659018,0.921823 -0.371227,0.692993 -0.573156,1.4766839 -0.564217,2.2647241 0.0022,0.252864 0.02747,0.507843 0.0685,0.75701 0.02218,0.134291 0.137672,0.274713 0.25036,0.342392 0.112679,0.06765 0.278815,0.09953 0.407236,0.06317 0.137762,-0.03921 0.27273,-0.120954 0.342425,-0.250698 0.06975,-0.129739 0.08613,-0.260002 0.06266,-0.40669 z"
       id="path2-2-8-0"
       style="fill:#ffffff;fill-opacity:1;stroke-width:0.0109281" />
  </g>
</svg>
