<?xml version="1.0" encoding="UTF-8" standalone="no"?>
<svg
   width="62"
   height="62"
   version="1.1"
   id="svg10"
   sodipodi:docname="preferences-desktop-locale.svg"
   inkscape:version="1.4 (e7c3feb100, 2024-10-09)"
   xmlns:inkscape="http://www.inkscape.org/namespaces/inkscape"
   xmlns:sodipodi="http://sodipodi.sourceforge.net/DTD/sodipodi-0.dtd"
   xmlns="http://www.w3.org/2000/svg"
   xmlns:svg="http://www.w3.org/2000/svg">
  <defs
     id="defs10" />
  <sodipodi:namedview
     id="namedview10"
     pagecolor="#ffffff"
     bordercolor="#000000"
     borderopacity="0.25"
     inkscape:showpageshadow="2"
     inkscape:pageopacity="0.0"
     inkscape:pagecheckerboard="0"
     inkscape:deskcolor="#d1d1d1"
     inkscape:zoom="8.5681818"
     inkscape:cx="52.578249"
     inkscape:cy="21.241379"
     inkscape:window-width="1920"
     inkscape:window-height="994"
     inkscape:window-x="0"
     inkscape:window-y="0"
     inkscape:window-maximized="1"
     inkscape:current-layer="svg10" />
  <g
     id="g10"
     transform="translate(2.5,2)">
    <path
       style="opacity:0.2;stroke-width:2.74084"
       d="m 16.627197,13.292683 16.01123,24.761433 -0.71167,8.019055 H 27.576173 L 30.959961,57 H 52.342287 C 54.353607,57 56,55.389306 56,53.4173 V 16.875381 c 0,-1.972006 -1.646393,-3.582698 -3.657713,-3.582698 z"
       id="path1" />
    <path
       style="fill:#e4e4e4;stroke-width:2.74084"
       d="m 52.341045,55.634149 c 2.01132,0 3.658953,-1.61047 3.658953,-3.582478 V 15.509309 c 0,-1.972006 -1.64763,-3.582477 -3.658953,-3.582477 h -35.71335 l 16.011867,24.760132 -1.679135,18.947185 z"
       id="path2" />
    <path
       style="opacity:0.2;fill:#ffffff;stroke-width:2.74084"
       d="m 16.627197,11.926829 0.883546,1.365854 h 34.831544 c 2.01132,0 3.657713,1.610692 3.657713,3.582698 v -1.365853 c 0,-1.972006 -1.646393,-3.582699 -3.657713,-3.582699 z m 15.90381,25.96189 -1.571046,17.745427 h 0.120834 l 1.557618,-17.58003 z"
       id="path3" />
    <path
       style="opacity:0.1;stroke-width:2.74084"
       d="M 36.750687,24.219512 V 26.95122 H 30.1335 v 2.734376 h 1.117187 v -0.0027 h 8.25 v 0.0027 h 3.824219 c -0.705339,2.432377 -2.265729,4.779985 -3.78662,6.565166 -1.908346,-2.211593 -2.460753,-3.351111 -2.626465,-3.836191 h -2.803709 c 0.206029,0.62514 0.974909,2.291446 3.821532,5.556785 -1.228835,1.229672 -2.159179,1.958079 -2.159179,1.958079 l 0.859375,2.633003 c 0,0 1.298971,-1.094292 2.924558,-2.782394 1.631101,1.731246 3.736568,3.812146 6.458741,6.293064 l 1.769777,-1.731326 c -2.915039,-2.588785 -5.052079,-4.642712 -6.622561,-6.293065 2.104997,-2.437772 4.242478,-5.558609 4.694338,-8.368519 h 4.642558 v 0.0052 h 0.0055 V 26.95122 h -11.00207 v -2.731708 z"
       id="path4" />
    <path
       id="polygon6"
       style="fill:#4352b8;stroke-width:2.74084"
       d="m 40.372305,44.707317 -12.795309,6e-6 3.383431,10.926826 z" />
    <path
       style="fill:#5a717f;stroke-width:2.74084"
       d="m 36.750687,22.853659 v 2.731707 H 30.1335 v 2.734376 h 1.117187 v -0.0027 h 8.25 v 0.0027 h 3.824219 c -0.705339,2.432378 -2.265729,4.779985 -3.78662,6.565167 -1.908346,-2.211593 -2.460753,-3.351111 -2.626465,-3.836192 h -2.803709 c 0.206029,0.625141 0.974909,2.291447 3.821532,5.556785 -1.228835,1.229672 -2.159179,1.958079 -2.159179,1.958079 l 0.859375,2.633003 c 0,0 1.298971,-1.094292 2.924558,-2.782394 1.631101,1.731247 3.736568,3.812147 6.458741,6.293064 l 1.769777,-1.731326 c -2.915039,-2.588784 -5.052079,-4.642711 -6.622561,-6.293064 2.104997,-2.437773 4.242478,-5.558609 4.694338,-8.36852 h 4.642558 v 0.0052 h 0.0055 v -2.734178 h -11.00207 v -2.731707 z"
       id="path5" />
    <path
       style="opacity:0.2;stroke-width:2.74084"
       d="m 4.6589546,2.3658537 c -2.0113209,0 -3.6589513,1.6135927 -3.6589513,3.58876 V 42.489807 c 0,1.969769 1.6476304,3.583364 3.6589513,3.583364 H 40.372305 L 26.039577,2.3658537 Z"
       id="path6" />
    <path
       fill="#4285f4"
       d="M 4.6589546,1 C 2.6476337,1 1.0000033,2.6135927 1.0000033,4.58876 v 36.535194 c 0,1.969768 1.6476304,3.583363 3.6589513,3.583363 H 40.372305 L 26.039577,1 Z"
       id="path7"
       style="stroke-width:2.74084" />
    <g
       style="font-size:40px;line-height:1.25;opacity:0.2"
       transform="matrix(0.59782608,0,0,0.57148688,3.2717392,16.984488)"
       id="g8">
      <path
         d="M 31.5399,27 28.5401,17.44 H 19.06105 L 16.0601,27 H 10 L 20.08,-1.68 h 7.4 L 37.6,27 Z M 27.3307,12.66 23.8,2.76 l -3.44905,9.9 z"
         id="path8" />
    </g>
    <g
       style="font-size:40px;line-height:1.25;fill:#ffffff"
       transform="matrix(0.59782608,0,0,0.57148688,3.2717392,15.618635)"
       id="g9">
      <path
         style="fill:#ffffff"
         d="M 31.5399,27 28.5401,17.44 H 19.06105 L 16.0601,27 H 10 L 20.08,-1.68 h 7.4 L 37.6,27 Z M 27.3307,12.66 23.8,2.76 l -3.44905,9.9 z"
         id="path9" />
    </g>
    <path
       style="opacity:0.2;fill:#ffffff;stroke-width:2.74084"
       d="M 4.6577149,1 C 2.6463935,1 1,2.6128664 1,4.5880334 V 5.953887 C 1,3.97872 2.6463935,2.3658537 4.6577149,2.3658537 H 26.040039 L 39.924316,44.707317 h 0.448487 L 26.040039,1 Z"
       id="path10" />
  </g>
</svg>
