<?xml version="1.0" encoding="UTF-8" standalone="no"?>
<svg
   height="62"
   width="62"
   version="1.1"
   id="svg10"
   sodipodi:docname="preferences-web-browser-stylesheets.svg"
   inkscape:version="1.4 (e7c3feb100, 2024-10-09)"
   xmlns:inkscape="http://www.inkscape.org/namespaces/inkscape"
   xmlns:sodipodi="http://sodipodi.sourceforge.net/DTD/sodipodi-0.dtd"
   xmlns="http://www.w3.org/2000/svg"
   xmlns:svg="http://www.w3.org/2000/svg">
  <defs
     id="defs10" />
  <sodipodi:namedview
     id="namedview10"
     pagecolor="#ffffff"
     bordercolor="#000000"
     borderopacity="0.25"
     inkscape:showpageshadow="2"
     inkscape:pageopacity="0.0"
     inkscape:pagecheckerboard="0"
     inkscape:deskcolor="#d1d1d1"
     inkscape:zoom="8.5681818"
     inkscape:cx="37.639258"
     inkscape:cy="42.366048"
     inkscape:window-width="1920"
     inkscape:window-height="994"
     inkscape:window-x="0"
     inkscape:window-y="0"
     inkscape:window-maximized="1"
     inkscape:current-layer="svg10" />
  <linearGradient
     id="a"
     gradientUnits="userSpaceOnUse"
     x1="24.018"
     x2="24.018"
     y1="18.382999"
     y2="0.38299999"
     gradientTransform="matrix(1.1111107,0,0,1.1111107,-0.22222142,-0.22222142)">
    <stop
       offset="0"
       stop-color="#a5a5a5"
       id="stop1" />
    <stop
       offset="1"
       stop-color="#f5f2f5"
       id="stop2" />
  </linearGradient>
  <linearGradient
     id="b"
     gradientUnits="userSpaceOnUse"
     x1="6"
     x2="6"
     y1="11"
     y2="6"
     gradientTransform="matrix(1.1111107,0,0,1.1111107,-0.22222142,-0.22222142)">
    <stop
       offset="0"
       stop-color="#ffd42a"
       id="stop3" />
    <stop
       offset="1"
       stop-color="#ffdf62"
       id="stop4" />
  </linearGradient>
  <linearGradient
     id="c"
     gradientUnits="userSpaceOnUse"
     x1="4"
     x2="18"
     y1="6"
     y2="20"
     gradientTransform="matrix(1.1111107,0,0,1.1111107,-0.22222142,-0.22222142)">
    <stop
       offset="0"
       stop-color="#292c2f"
       id="stop5" />
    <stop
       offset="1"
       stop-opacity="0"
       id="stop6" />
  </linearGradient>
  <g
     id="g10"
     transform="matrix(2.8,0,0,2.8,-2.6000182,-2.6)">
    <circle
       cx="12"
       cy="12"
       fill="#484f56"
       r="10"
       id="circle6"
       style="stroke-width:1.1112" />
    <path
       d="M 11.999996,2 A 9.9999967,9.9999967 0 0 0 3.0503463,7.555554 h 1.171875 L 5.3333328,8.6666639 V 7.555554 H 6.4444426 V 6.4444426 L 8.6666639,4.2222213 V 5.3333328 L 9.7777754,4.2222213 V 3.1111116 h 1.1111036 v 1.1111097 h 1.111117 l 1.11112,-1.1111097 V 2.0629346 A 9.9999967,9.9999967 0 0 0 11.999996,2 Z m 7.068145,2.9318569 -0.401485,0.4014759 v 1.1111098 h 1.111118 L 20.092437,6.1297735 A 9.9999967,9.9999967 0 0 0 19.068141,4.9318569 Z m 1.469186,1.8641479 -0.759553,0.7595492 -2.22222,1.1111099 -1.111118,3.3333321 h 1.111118 v 1.11112 l 2.22222,1.1111 2.131069,-1.065542 a 9.9999967,9.9999967 0 0 0 0.09117,-1.156678 9.9999967,9.9999967 0 0 0 -1.462666,-5.2039912 z M 3.1111116,9.7777754 V 10.888879 H 2.086805 A 9.9999967,9.9999967 0 0 0 2,11.999996 h 1.1111116 l 2.2222212,2.22222 h 1.1111098 v 1.111119 H 5.3333328 v 1.111101 l 2.2222212,2.22222 v 2.282986 a 9.9999967,9.9999967 0 0 0 4.444442,1.050351 l 1.11112,-1.111117 v -1.111102 h 1.1111 l 1.111119,-1.111118 v -1.111102 l 1.111101,-1.111118 -1.111101,-1.111101 h -2.222219 l -1.11112,-1.111119 h -1.111117 l -1.1111036,-1.1111 H 7.555554 v -1.11112 l -1.1111114,1.11112 H 5.3333328 v -1.11112 L 4.2222213,10.888879 V 9.7777754 Z"
       fill="url(#a)"
       stroke-linejoin="round"
       stroke-width="2.2222"
       id="path6"
       style="fill:url(#a)" />
    <path
       d="M 21.971782,11.288192 A 9.9999967,9.9999967 0 0 1 11.999996,20.888876 9.9999967,9.9999967 0 0 1 2.0390622,11.444437 9.9999967,9.9999967 0 0 0 2,11.999996 a 9.9999967,9.9999967 0 0 0 9.999996,9.999997 9.9999967,9.9999967 0 0 0 9.999997,-9.999997 9.9999967,9.9999967 0 0 0 -0.02819,-0.711804 z"
       fill="#292c2f"
       opacity="0.3"
       stroke-linejoin="round"
       stroke-width="2.20995"
       id="path7" />
    <path
       d="m 4.3719608,11.999996 3.1835932,3.183594 0.818142,2.664935 4.153649,4.151468 h 9.472648 V 12.527345 L 15.626305,6.1514747 Z"
       fill="url(#c)"
       opacity="0.2"
       id="path8"
       style="fill:url(#c);stroke-width:1.1112" />
    <path
       d="m 10.333333,5.3333328 c -1.5209625,0 -2.777779,1.2568129 -2.777779,2.777777 V 9.979598 l -3.1835932,2.020398 3.1835932,2.020399 v 1.868481 c 0,1.520965 1.2568128,2.77778 2.777779,2.77778 h 3.333324 c 1.520966,0 2.777779,-1.256815 2.777779,-2.77778 V 14.020395 L 19.628028,11.999996 16.444436,9.979598 V 8.1111098 c 0,-1.5209641 -1.256815,-2.777777 -2.777779,-2.777777 z"
       fill="#484f56"
       id="path9"
       style="stroke-width:1.1112" />
    <path
       d="m 10.333333,6.4444426 c -0.9204754,0 -1.6666691,0.7461921 -1.6666691,1.6666672 v 2.4782962 l -2.2222213,1.41059 2.2222213,1.410591 v 2.478289 c 0,0.920485 0.7461917,1.666678 1.6666691,1.666678 h 0.555546 V 16.444436 H 10.305121 C 10.02105,16.430036 9.792175,16.201168 9.7777754,15.917104 V 12.811625 L 8.6666639,11.999996 9.7777754,11.188367 V 8.0828974 C 9.792175,7.7988268 10.02105,7.5699536 10.305121,7.555554 h 0.583758 V 6.4444426 Z m 2.777783,0 V 7.555554 h 0.583752 c 0.284082,0.0144 0.512948,0.2432728 0.527348,0.5273434 v 3.1054696 l 1.111119,0.811629 -1.111119,0.811629 v 3.105479 c -0.01436,0.284064 -0.243267,0.512932 -0.527348,0.527332 h -0.583752 v 1.111118 h 0.555541 c 0.920487,0 1.666678,-0.746193 1.666678,-1.666678 v -2.478289 l 2.222219,-1.410591 -2.222219,-1.41059 V 8.1111098 c 0,-0.9204751 -0.746193,-1.6666672 -1.666678,-1.6666672 z"
       fill="url(#b)"
       id="path10"
       style="fill:url(#b);stroke-width:1.1112" />
  </g>
</svg>
