<?xml version="1.0" encoding="UTF-8" standalone="no"?>
<svg
   width="62"
   height="62"
   version="1"
   id="svg5"
   sodipodi:docname="preferences-system-network-sharing.svg"
   inkscape:version="1.4 (e7c3feb100, 2024-10-09)"
   xmlns:inkscape="http://www.inkscape.org/namespaces/inkscape"
   xmlns:sodipodi="http://sodipodi.sourceforge.net/DTD/sodipodi-0.dtd"
   xmlns="http://www.w3.org/2000/svg"
   xmlns:svg="http://www.w3.org/2000/svg">
  <defs
     id="defs5" />
  <sodipodi:namedview
     id="namedview5"
     pagecolor="#ffffff"
     bordercolor="#000000"
     borderopacity="0.25"
     inkscape:showpageshadow="2"
     inkscape:pageopacity="0.0"
     inkscape:pagecheckerboard="0"
     inkscape:deskcolor="#d1d1d1"
     inkscape:zoom="8.3306018"
     inkscape:cx="46.875365"
     inkscape:cy="34.691371"
     inkscape:window-width="1920"
     inkscape:window-height="994"
     inkscape:window-x="0"
     inkscape:window-y="0"
     inkscape:window-maximized="1"
     inkscape:current-layer="svg5" />
  <g
     id="g2"
     transform="matrix(2.7991022,0,0,2.8,0.20987552,0.2)">
    <path
       style="opacity:0.2;stroke-width:0.350877"
       d="m 1.1932452,10.824848 c -0.00414,0.11719 -0.017824,0.232274 -0.017824,0.350868 C 1.1754211,16.618369 5.5570518,21 10.999706,21 c 5.442653,0 9.824284,-4.381631 9.824284,-9.824284 0,-0.118481 -0.0137,-0.233425 -0.01782,-0.350868 -0.185258,5.277746 -4.48268,9.473417 -9.806741,9.473417 -5.3242006,0 -9.6214829,-4.195671 -9.8067409,-9.473417 z"
       id="path1" />
    <rect
       style="fill:#009999;fill-opacity:1;stroke-width:0.350877"
       width="19.649122"
       height="19.649122"
       x="1.1754214"
       y="1"
       rx="9.8245611"
       ry="9.8245611"
       id="rect1" />
    <path
       style="opacity:0.2;fill:#ffffff;stroke-width:0.350877"
       d="m 10.999983,1.0006853 c -5.442654,0 -9.8245617,4.3812224 -9.8245617,9.8238757 0,0.03981 0.00396,0.07864 0.00617,0.117873 0.1237003,-5.3334786 4.4541175,-9.5908715 9.8183937,-9.5908715 5.364276,0 9.694693,4.2573929 9.818394,9.5908715 0.0022,-0.03923 0.0062,-0.07807 0.0062,-0.117873 0,-5.4426533 -4.381907,-9.8238757 -9.824561,-9.8238757 z"
       id="path2" />
    <g
       id="g1"
       transform="translate(-0.8858286,-1.2109814)">
      <path
         style="opacity:0.4;fill:none;stroke:#000000;stroke-width:1.70566"
         d="M 14.8144,7.7564639 7.9572574,11.998935 14.8144,16.241406"
         id="path3" />
      <path
         style="opacity:0.2;fill-rule:evenodd;stroke-width:0.426416"
         d="M 14.8144,5.6350734 A 2.5714284,2.5454828 0 0 0 12.242972,8.1805559 2.5714284,2.5454828 0 0 0 14.8144,10.726039 2.5714284,2.5454828 0 0 0 17.385829,8.1805559 2.5714284,2.5454828 0 0 0 14.8144,5.6350734 Z M 7.9572574,9.8775442 A 2.5714284,2.5454828 0 0 0 5.3858286,12.423027 2.5714284,2.5454828 0 0 0 7.9572574,14.96851 2.5714284,2.5454828 0 0 0 10.528687,12.423027 2.5714284,2.5454828 0 0 0 7.9572574,9.8775442 Z M 14.8144,14.120015 a 2.5714284,2.5454828 0 0 0 -2.571428,2.545483 2.5714284,2.5454828 0 0 0 2.571428,2.545483 2.5714284,2.5454828 0 0 0 2.571429,-2.545483 2.5714284,2.5454828 0 0 0 -2.571429,-2.545483 z"
         id="path4" />
      <path
         style="fill:#ffffff;fill-rule:evenodd;stroke-width:0.426416"
         d="M 14.8144,5.2109814 A 2.5714284,2.5454828 0 0 0 12.242972,7.7564639 2.5714284,2.5454828 0 0 0 14.8144,10.301947 2.5714284,2.5454828 0 0 0 17.385829,7.7564639 2.5714284,2.5454828 0 0 0 14.8144,5.2109814 Z M 7.9572574,9.4534522 A 2.5714284,2.5454828 0 0 0 5.3858286,11.998935 2.5714284,2.5454828 0 0 0 7.9572574,14.544418 2.5714284,2.5454828 0 0 0 10.528687,11.998935 2.5714284,2.5454828 0 0 0 7.9572574,9.4534522 Z M 14.8144,13.695923 a 2.5714284,2.5454828 0 0 0 -2.571428,2.545483 2.5714284,2.5454828 0 0 0 2.571428,2.545483 2.5714284,2.5454828 0 0 0 2.571429,-2.545483 2.5714284,2.5454828 0 0 0 -2.571429,-2.545483 z"
         id="path5" />
    </g>
  </g>
</svg>
