<?xml version="1.0" encoding="UTF-8" standalone="no"?>
<svg
   width="62"
   height="62"
   version="1"
   id="svg7"
   sodipodi:docname="preferences-other.svg"
   inkscape:version="1.4 (e7c3feb100, 2024-10-09)"
   xmlns:inkscape="http://www.inkscape.org/namespaces/inkscape"
   xmlns:sodipodi="http://sodipodi.sourceforge.net/DTD/sodipodi-0.dtd"
   xmlns:xlink="http://www.w3.org/1999/xlink"
   xmlns="http://www.w3.org/2000/svg"
   xmlns:svg="http://www.w3.org/2000/svg">
  <defs
     id="defs7">
    <linearGradient
       id="linearGradient7"
       inkscape:collect="always">
      <stop
         style="stop-color:#384850;stop-opacity:1;"
         offset="0"
         id="stop8" />
      <stop
         style="stop-color:#384850;stop-opacity:1;"
         offset="0.57661754"
         id="stop10" />
      <stop
         style="stop-color:#f0f4f4;stop-opacity:1;"
         offset="1"
         id="stop9" />
    </linearGradient>
    <linearGradient
       id="linearGradient1"
       inkscape:collect="always">
      <stop
         style="stop-color:#303c47;stop-opacity:1;"
         offset="0"
         id="stop5" />
      <stop
         style="stop-color:#303b46;stop-opacity:1;"
         offset="0.23364122"
         id="stop7" />
      <stop
         style="stop-color:#3e4e5b;stop-opacity:1;"
         offset="1"
         id="stop6" />
    </linearGradient>
    <linearGradient
       id="c-3"
       gradientUnits="userSpaceOnUse"
       x1="24.072048"
       x2="23.959682"
       y1="0.75082099"
       y2="46.056854">
      <stop
         offset="0"
         stop-color="#fff"
         id="stop3" />
      <stop
         offset="1"
         stop-color="#d9d9d9"
         id="stop4" />
    </linearGradient>
    <linearGradient
       id="b-6"
       gradientUnits="userSpaceOnUse"
       x1="29.203026"
       x2="34.121048"
       xlink:href="#a-7"
       y1="24.827356"
       y2="29.224836" />
    <linearGradient
       id="a-7">
      <stop
         offset="0"
         id="stop1" />
      <stop
         offset="1"
         stop-opacity="0"
         id="stop2" />
    </linearGradient>
    <linearGradient
       id="d"
       gradientUnits="userSpaceOnUse"
       x1="15.948756"
       x2="25.031786"
       xlink:href="#a-7"
       y1="23.618279"
       y2="33.69899" />
    <linearGradient
       id="e"
       gradientUnits="userSpaceOnUse"
       x1="21.990562"
       x2="29.320522"
       xlink:href="#a-7"
       y1="33.780373"
       y2="41.931858" />
    <linearGradient
       id="paint154_linear_890_11"
       x1="778"
       y1="812.29199"
       x2="788"
       y2="812.29199"
       gradientUnits="userSpaceOnUse"
       gradientTransform="translate(-751,-696)">
      <stop
         stop-color="#EFF2F6"
         id="stop1050" />
      <stop
         offset="0.600785"
         stop-color="#B7C6CD"
         id="stop1051" />
    </linearGradient>
    <linearGradient
       id="paint155_linear_890_11"
       x1="783"
       y1="813"
       x2="783"
       y2="817"
       gradientUnits="userSpaceOnUse"
       gradientTransform="translate(-751,-696)">
      <stop
         stop-color="#EFF2F6"
         id="stop1052" />
      <stop
         offset="0.734138"
         stop-color="#B7C6CD"
         id="stop1053" />
    </linearGradient>
    <radialGradient
       id="paint156_radial_890_11"
       cx="0"
       cy="0"
       r="1"
       gradientUnits="userSpaceOnUse"
       gradientTransform="matrix(27.999986,27.999976,-27.999986,27.999976,32.302392,33.999998)">
      <stop
         offset="0.60067803"
         stop-color="#B7C6CD"
         id="stop1054"
         style="stop-color:#384850;stop-opacity:1;" />
      <stop
         offset="0.876735"
         stop-color="#EFF2F6"
         id="stop1055" />
    </radialGradient>
    <linearGradient
       id="paint157_linear_890_11"
       x1="796.84485"
       y1="799.43359"
       x2="768.90088"
       y2="770.81476"
       gradientUnits="userSpaceOnUse"
       gradientTransform="matrix(1.1666666,0,0,1.1666668,-881.19764,-881.8333)">
      <stop
         offset="0.00000057"
         stop-color="#2E2E41"
         id="stop1056"
         style="stop-color:#424b58;stop-opacity:1;" />
      <stop
         offset="0.71113902"
         stop-color="#566C80"
         id="stop1057"
         style="stop-color:#303c47;stop-opacity:1;" />
    </linearGradient>
    <linearGradient
       id="paint158_linear_890_11"
       x1="792"
       y1="794"
       x2="774"
       y2="776"
       gradientUnits="userSpaceOnUse"
       gradientTransform="translate(-751,-696)">
      <stop
         offset="0.304478"
         stop-color="#2E2E41"
         id="stop1058" />
      <stop
         offset="1"
         stop-color="#566C80"
         id="stop1059" />
    </linearGradient>
    <linearGradient
       id="paint159_linear_890_11"
       x1="788"
       y1="790"
       x2="778"
       y2="780"
       gradientUnits="userSpaceOnUse"
       gradientTransform="translate(-751,-696)">
      <stop
         offset="0.391394"
         stop-color="#5200FF"
         id="stop1060" />
      <stop
         offset="1"
         stop-color="#0085FF"
         id="stop1061" />
    </linearGradient>
    <linearGradient
       id="paint160_linear_890_11"
       x1="784"
       y1="798"
       x2="782"
       y2="796"
       gradientUnits="userSpaceOnUse"
       gradientTransform="translate(-751,-696)">
      <stop
         stop-color="#FF7E07"
         id="stop1062" />
      <stop
         offset="1"
         stop-color="#FFE607"
         id="stop1063" />
    </linearGradient>
    <linearGradient
       id="c-3-6"
       gradientUnits="userSpaceOnUse"
       x1="24.072048"
       x2="23.959682"
       y1="0.75082099"
       y2="46.056854"
       gradientTransform="matrix(0.91471346,0,0,0.90068147,9.0468769,9.3836444)">
      <stop
         offset="0"
         stop-color="#fff"
         id="stop3-2" />
      <stop
         offset="1"
         stop-color="#d9d9d9"
         id="stop4-9" />
    </linearGradient>
    <linearGradient
       id="b-6-1"
       gradientUnits="userSpaceOnUse"
       x1="29.203026"
       x2="34.121048"
       xlink:href="#a-7"
       y1="24.827356"
       y2="29.224836"
       gradientTransform="matrix(1.1104534,0,0,1.0934187,4.3491158,4.7861435)" />
    <linearGradient
       id="d-0"
       gradientUnits="userSpaceOnUse"
       x1="15.948756"
       x2="25.031786"
       xlink:href="#a-7"
       y1="23.618279"
       y2="33.69899"
       gradientTransform="matrix(1.1104534,0,0,1.0934187,4.3491158,4.7861435)" />
    <linearGradient
       id="e-9"
       gradientUnits="userSpaceOnUse"
       x1="21.990562"
       x2="29.320522"
       xlink:href="#a-7"
       y1="33.780373"
       y2="41.931858"
       gradientTransform="matrix(1.1104534,0,0,1.0934187,4.3491158,4.7861435)" />
    <linearGradient
       inkscape:collect="always"
       xlink:href="#linearGradient1"
       id="linearGradient6"
       x1="16.339075"
       y1="16.981503"
       x2="49.874992"
       y2="49.351608"
       gradientUnits="userSpaceOnUse" />
    <radialGradient
       inkscape:collect="always"
       xlink:href="#linearGradient7"
       id="radialGradient9"
       cx="32.302387"
       cy="34"
       fx="32.302387"
       fy="34"
       r="28"
       gradientUnits="userSpaceOnUse"
       gradientTransform="matrix(0.99999999,1,-0.99999999,0.99999997,34.000001,-32.302387)" />
  </defs>
  <sodipodi:namedview
     id="namedview7"
     pagecolor="#ffffff"
     bordercolor="#000000"
     borderopacity="0.25"
     inkscape:showpageshadow="2"
     inkscape:pageopacity="0.0"
     inkscape:pagecheckerboard="0"
     inkscape:deskcolor="#d1d1d1"
     inkscape:zoom="8.330602"
     inkscape:cx="35.471626"
     inkscape:cy="24.848144"
     inkscape:window-width="1920"
     inkscape:window-height="994"
     inkscape:window-x="0"
     inkscape:window-y="0"
     inkscape:window-maximized="1"
     inkscape:current-layer="svg7" />
  <g
     id="g2"
     transform="translate(2.0000001,2)">
    <g
       id="g1"
       transform="translate(-3.3023873,-5)">
      <path
         d="m 60.302387,34 c 0,15.46415 -12.535828,28 -28.000002,28 C 16.838222,62 4.3023873,49.46415 4.3023873,34 4.3023873,18.535835 16.838222,6 32.302385,6 47.766559,6 60.302387,18.535835 60.302387,34 Z"
         id="path154"
         style="fill:url(#radialGradient9)" />
      <path
         d="m 55.63572,34 c 0,12.88701 -10.446332,23.33332 -23.333335,23.33332 C 19.415386,57.33332 8.9690543,46.88701 8.9690543,34 c 0,-12.886994 10.4463317,-23.333332 23.3333307,-23.333332 12.887003,0 23.333335,10.446338 23.333335,23.333332 z"
         id="path155"
         style="fill:url(#linearGradient6)" />
    </g>
    <path
       style="opacity:0.2;stroke-width:0.982456"
       d="m 12.491983,24.087723 c -3.2555727,0 -5.8947368,2.639161 -5.8947368,5.894735 0,3.255571 2.6391641,5.894737 5.8947368,5.894737 3.255573,0 5.894738,-2.639166 5.894738,-5.894737 0,-3.255574 -2.639165,-5.894738 -5.894738,-5.894735 z m 16.701754,0 c -3.255573,0 -5.894735,2.639161 -5.894735,5.894735 0,3.255571 2.639162,5.894737 5.894735,5.894737 3.255574,0 5.894737,-2.639166 5.894737,-5.894737 0,-3.255574 -2.639163,-5.894738 -5.894737,-5.894735 z m 16.701754,0 c -3.255571,0 -5.894736,2.639161 -5.894736,5.894735 0,3.255571 2.639165,5.894737 5.894736,5.894737 3.255574,0 5.894736,-2.639166 5.894736,-5.894737 0,-3.255574 -2.639162,-5.894738 -5.894736,-5.894735 z"
       id="path2" />
    <circle
       style="fill:#2196f3;stroke-width:0.982456"
       cx="29.193737"
       cy="29"
       r="5.8947372"
       id="circle3" />
    <circle
       style="fill:#2196f3;stroke-width:0.982456"
       cx="45.895489"
       cy="29"
       r="5.8947372"
       id="circle4" />
    <circle
       style="fill:#2196f3;stroke-width:0.982456"
       cx="12.491982"
       cy="29"
       r="5.8947372"
       id="circle5" />
    <path
       style="opacity:0.2;fill:#ffffff;stroke-width:0.982456"
       d="m 12.491983,23.105264 c -3.2555727,0 -5.8947368,2.639166 -5.8947368,5.894736 0.00253,0.158928 0.011508,0.317679 0.026852,0.475879 0.2627352,-3.045968 2.8105969,-5.385535 5.8678728,-5.388156 3.068914,0.0019 5.62296,2.358122 5.871709,5.416938 0.01484,-0.167804 0.02268,-0.336188 0.02296,-0.504661 5.6e-5,-3.25557 -2.639107,-5.894736 -5.89468,-5.894736 z m 16.701754,0 c -3.255573,0 -5.894735,2.639166 -5.894735,5.894736 0.0026,0.158928 0.01148,0.317679 0.02688,0.475879 0.262752,-3.045968 2.810606,-5.385535 5.867883,-5.388156 3.068915,0.0019 5.62296,2.358122 5.87171,5.416938 0.01484,-0.167804 0.02268,-0.336188 0.02296,-0.504661 -2.8e-5,-3.25557 -2.639191,-5.894736 -5.894765,-5.894736 z m 16.701754,0 c -3.255571,0 -5.894736,2.639166 -5.894736,5.894736 0.0026,0.158928 0.01148,0.317679 0.02688,0.475879 0.262752,-3.045968 2.8106,-5.385535 5.867875,-5.388156 3.068915,0.0019 5.622963,2.358122 5.871712,5.416938 0.01484,-0.167804 0.02268,-0.336188 0.02296,-0.504661 0,-3.25557 -2.639162,-5.894736 -5.894736,-5.894736 z"
       id="path6" />
  </g>
</svg>
