<?xml version="1.0" encoding="UTF-8" standalone="no"?>
<svg
   width="62"
   height="62"
   version="1.1"
   id="svg6"
   sodipodi:docname="preferences-system-network-server-web.svg"
   inkscape:version="1.4 (e7c3feb100, 2024-10-09)"
   xmlns:inkscape="http://www.inkscape.org/namespaces/inkscape"
   xmlns:sodipodi="http://sodipodi.sourceforge.net/DTD/sodipodi-0.dtd"
   xmlns="http://www.w3.org/2000/svg"
   xmlns:svg="http://www.w3.org/2000/svg">
  <defs
     id="defs6" />
  <sodipodi:namedview
     id="namedview6"
     pagecolor="#ffffff"
     bordercolor="#000000"
     borderopacity="0.25"
     inkscape:showpageshadow="2"
     inkscape:pageopacity="0.0"
     inkscape:pagecheckerboard="0"
     inkscape:deskcolor="#d1d1d1"
     inkscape:zoom="8.3306018"
     inkscape:cx="31.150211"
     inkscape:cy="73.824198"
     inkscape:window-width="1920"
     inkscape:window-height="994"
     inkscape:window-x="0"
     inkscape:window-y="0"
     inkscape:window-maximized="1"
     inkscape:current-layer="svg6"
     showgrid="false">
    <inkscape:grid
       id="grid1"
       units="px"
       originx="0"
       originy="0"
       spacingx="1"
       spacingy="1"
       empcolor="#0099e5"
       empopacity="0.30196078"
       color="#0099e5"
       opacity="0.14901961"
       empspacing="5"
       enabled="true"
       visible="false" />
  </sodipodi:namedview>
  <g
     id="g6"
     transform="translate(-3,-3)">
    <rect
       x="6"
       y="6"
       width="56"
       height="56"
       rx="5"
       ry="5"
       style="fill:#434a56;fill-opacity:1;stroke-width:1.07686;paint-order:stroke markers fill"
       id="rect1" />
    <path
       d="M 12.461534,15.692318 H 38.307702 V 17.84616 H 12.461534 Z"
       id="path1"
       style="fill:#ffffff;fill-opacity:1" />
    <circle
       cx="45.846199"
       cy="16.769222"
       r="2.1538472"
       id="circle1"
       style="stroke-width:1.07686;fill:#72d406;fill-opacity:1" />
    <circle
       cx="54.461586"
       cy="16.769222"
       r="2.1538472"
       id="circle2"
       style="stroke-width:1.07686;fill:#72d406;fill-opacity:1" />
    <path
       d="m 12.461534,32.92309 h 25.846168 v 2.153844 H 12.461534 Z"
       id="path2"
       style="stroke-width:1.07686;fill:#ffffff;fill-opacity:1" />
    <circle
       cx="45.846199"
       cy="34"
       r="2.1538472"
       id="circle3"
       style="stroke-width:1.07686;fill:#72d406;fill-opacity:1" />
    <circle
       cx="54.461586"
       cy="34"
       r="2.1538472"
       id="circle4"
       style="stroke-width:1.07686;fill:#72d406;fill-opacity:1" />
    <path
       d="m 12.461534,50.153864 h 27.846 v 2.320493 h -27.846 z"
       id="path4"
       style="fill:#ffffff;fill-opacity:1;stroke-width:1.16021" />
    <rect
       x="6"
       y="23.230778"
       width="56"
       height="3.2307711"
       rx="0"
       ry="0"
       fill-rule="evenodd"
       opacity="0.5"
       style="stroke-width:1.07686;paint-order:fill markers stroke;fill:#000000;fill-opacity:1"
       id="rect4" />
    <rect
       x="6"
       y="40.461555"
       width="56"
       height="3.2307711"
       rx="0"
       ry="0"
       fill-rule="evenodd"
       opacity="0.5"
       style="stroke-width:1.07686;paint-order:fill markers stroke;fill:#000000;fill-opacity:1"
       id="rect5" />
    <circle
       cx="45.846199"
       cy="51.230782"
       r="2.1538472"
       id="circle5"
       style="stroke-width:1.07686;fill:#72d406;fill-opacity:1" />
    <circle
       cx="54.461586"
       cy="51.230782"
       r="2.1538472"
       id="circle6"
       style="stroke-width:1.07686;fill:#72d406;fill-opacity:1" />
  </g>
  <circle
     cx="46.75"
     cy="46.75"
     r="11.25"
     style="fill:#2a7fff;fill-rule:evenodd;stroke-width:0.999999;paint-order:fill markers stroke"
     id="circle24" />
  <path
     d="m 46.750023,39.250015 a 7.5000022,7.5000022 0 1 0 0,14.999994 7.5000022,7.5000022 0 0 0 0,-14.999994 z m 0,1.249996 c 0.216303,0 0.415008,0.01776 0.625013,0.03874 0.04981,0.0045 0.106281,-0.006 0.156548,0 0.06603,0.0087 0.130205,0.0291 0.194722,0.04002 0.180207,0.02759 0.333807,0.07374 0.508743,0.116259 0.319748,0.08005 0.637508,0.186255 0.937455,0.312491 0.164069,0.07004 0.311017,0.151219 0.468801,0.235011 v 0.03874 c 0.03742,0.01587 0.0553,0.08375 0.116032,0.117544 0.02343,0.01285 0.02192,0.02759 0.03991,0.0387 0.03742,0.02041 0.08496,0.04248 0.07778,0.07873 -0.01172,0.04997 -0.08239,0.0387 -0.117354,0.07752 0.0079,0.07253 -0.05839,0.06875 -0.07775,0.117505 0.01361,0.03099 0.07242,0.04002 0.07775,0.07752 -0.0098,0.04002 -0.09226,0.03742 -0.07775,0.07873 0.0672,0.05246 0.131641,0.01285 0.194759,0 0.140296,-0.01776 0.265096,-0.0072 0.351421,-0.07873 -0.01361,-0.06622 0.124838,-0.05628 0.117279,-0.11622 0.03832,0.02494 0.0813,0.04997 0.117278,0.07752 -0.01474,0.01285 -0.02683,0.0325 -0.03991,0.03874 -0.02683,0.01247 -0.0539,0.02457 -0.07767,0.04002 l -0.117241,0.07752 c -0.03024,0.02041 -0.08769,0.117506 -0.116031,0.117506 -0.03833,0 -0.09105,-0.04747 -0.117317,-0.04002 -0.03832,0.01285 -0.03832,0.06372 -0.07899,0.07873 -0.08228,0.02986 -0.244876,-0.04498 -0.272655,0.07873 0.03742,0.07121 0.171477,0.03742 0.233915,0.07752 a 0.38750018,0.38750018 0 0 1 0.117279,0.156208 0.73749985,0.73749985 0 0 1 0,0.235011 c -0.03848,0.09997 -0.158514,0.07873 -0.273903,0.07752 h -0.07899 c -0.192264,-0.01285 -0.381226,-0.09997 -0.468707,0.0387 0.0098,0.106205 0.02721,0.181267 0,0.273752 -0.01814,0.06754 -0.120227,0.137499 -0.116031,0.195023 0,0.02986 0.07011,0.07502 0.07767,0.117506 0.0079,0.0223 -0.01172,0.05628 0,0.07873 0.03439,0.06127 0.09982,-0.01285 0.156661,0 0.05514,0.01247 0.117279,0.09377 0.117279,0.156246 a 0.32499975,0.32499975 0 0 1 -0.03847,0.156246 c -0.05511,0.08251 -0.156662,0.07124 -0.234785,0.11622 -0.06467,0.03742 -0.07767,0.131263 -0.116031,0.196233 -0.04112,0.07004 -0.09524,0.09498 -0.07895,0.195024 a 0.45624972,0.45624972 0 0 1 -0.234709,0.233726 c -0.03591,0.01474 -0.08496,0.01776 -0.116032,0.04002 -0.02683,0.01776 -0.04392,0.07623 -0.07895,0.116221 -0.04396,0.04997 -0.09388,0.08005 -0.116031,0.117505 -0.02192,0.0291 -0.0223,0.07752 -0.03991,0.117506 -0.02873,0.05246 -0.08232,0.06372 -0.116032,0.11622 -0.01814,0.02495 -0.02343,0.08496 -0.0398,0.117506 -0.03987,0.07253 -0.08496,0.132472 -0.07767,0.196233 0.0098,0.05998 0.07476,0.06251 0.07767,0.11622 0.006,0.02986 -0.03987,0.04498 -0.03851,0.07873 0.0012,0.04747 0.03742,0.07873 0.03851,0.11622 0.01172,0.09248 -0.06028,0.132473 -0.07767,0.196233 -0.01172,0.02986 0.0102,0.05246 0,0.07752 -0.01587,0.0463 -0.07778,0.101292 -0.07895,0.156246 0,0.03874 0.07476,0.06248 0.07895,0.117506 0.0042,0.03628 -0.04653,0.08251 -0.03987,0.117543 0.01474,0.06754 0.143509,0.142488 0.196536,0.195024 0.07158,0.07124 0.163956,0.120037 0.194683,0.195023 0.02759,0.06372 0.03213,0.187503 0.07896,0.235011 0.03742,0.03515 0.109682,0.04003 0.15651,0.07752 0.04248,0.03364 0.07015,0.04124 0.116031,0.07873 0.07608,0.05998 0.191245,0.203754 0.312341,0.195024 0.06376,-0.01285 0.124762,-0.06501 0.196535,-0.07873 0.07355,-0.01285 0.158514,-0.04498 0.233915,-0.03742 0.05726,0.01285 0.134778,0.04123 0.194646,0.03742 0.06282,-0.01285 0.124875,-0.0072 0.196535,-0.03742 0.123591,-0.05499 0.327534,-0.143773 0.507496,-0.118715 0.137651,0.02041 0.137651,0.173782 0.233726,0.235011 0.109682,0.01285 0.186029,-0.02117 0.273903,0 0.06607,0.01587 0.149745,0.103748 0.15651,0.156246 0.0098,0.05378 -0.07147,0.122532 -0.07895,0.156245 -0.01814,0.07253 0.01512,0.15001 0,0.195024 -0.0121,0.03742 -0.03987,0.08122 -0.03833,0.117505 0,0.0325 0.04396,0.112517 0.07771,0.156246 0.04105,0.05246 0.106243,0.09997 0.156586,0.156208 0.09101,0.104995 0.131414,0.212485 0.194684,0.351231 0.01738,0.03515 -0.0155,0.07253 0,0.117506 -0.02873,0.209991 -0.09763,0.353764 -0.234747,0.58625 -0.06369,0.07502 -0.157304,0.139956 -0.156623,0.233726 -0.006,0.224958 0.127445,0.368731 0.117316,0.58625 -0.02305,0.292498 0.02305,0.312492 0,0.468749 0.09982,0.04997 0.03024,0.208743 0,0.312529 -0.04248,0.123742 -0.09226,0.151219 -0.116069,0.235011 0.06607,0.0291 0.159874,0.01587 0.233801,0 l -0.117354,0.116258 a 6.5037515,6.5037515 0 0 1 -0.937519,0.781251 6.1750033,6.1750033 0 0 1 -2.14749,0.937501 6.2312476,6.2312476 0 0 1 -1.328743,0.117505 c -0.237165,0 -0.472509,-0.01247 -0.703751,-0.03874 -0.182741,-0.02116 -0.36756,-0.04248 -0.546248,-0.07873 -0.353613,-0.07253 -0.686253,-0.221254 -1.016251,-0.35127 -0.01361,-0.02116 -0.04105,-0.05246 -0.03832,-0.07873 0.06376,-0.02759 0.185953,0.09249 0.233915,0 0.02532,-0.0438 -0.03364,-0.15001 0,-0.195024 0.02343,-0.02986 0.148724,-0.02986 0.194645,-0.03874 0.06607,-0.01285 0.157304,-0.02116 0.194684,-0.0387 0.04112,-0.02646 0.08648,-0.118715 0.07895,-0.196234 -0.006,-0.03628 -0.04981,-0.04498 -0.07895,-0.07752 -0.02532,-0.02759 0.01814,-0.05246 0,-0.07873 -0.03213,-0.04377 -0.105298,-0.05246 -0.116032,-0.116221 0.08901,-0.01776 0.22133,0.07502 0.35006,0.03874 0.06282,-0.01776 0.167358,-0.137499 0.196574,-0.195023 0.01172,-0.01776 -0.01172,-0.05628 0,-0.07873 0.01361,-0.0223 0.03742,-0.06504 0.03848,-0.07752 0.01172,-0.03364 -0.0102,-0.01776 0,-0.04002 0.02343,-0.06251 0.08024,-0.110022 0.117317,-0.156246 0.03024,-0.03515 0.09093,-0.08005 0.117354,-0.11622 0.03213,-0.03874 0.02192,-0.04377 0.03867,-0.07873 0.02192,-0.112516 -0.06614,-0.212485 -0.03867,-0.312491 0.03213,-0.112517 0.203528,-0.182476 0.31234,-0.233726 0.03833,-0.01776 0.08651,-0.0291 0.116032,-0.04002 0.07476,-0.02457 0.165354,-0.0525 0.234671,-0.07752 0.117316,-0.04248 0.137688,-0.127483 0.194683,-0.235011 0.02872,-0.04997 0.07355,-0.118715 0.07895,-0.156245 0.0079,-0.0325 -0.0098,-0.03874 0,-0.07752 0.0098,-0.03628 -0.01209,-0.07502 0,-0.117506 0.01474,-0.05378 0.03851,-0.174992 0.03851,-0.233726 0,-0.05 -0.03833,-0.07253 -0.03851,-0.117543 -0.01172,-0.16252 0.05719,-0.14623 0.116032,-0.235011 0.03213,-0.04377 0.05718,-0.124989 0.07895,-0.156246 0.100989,-0.150009 0.28611,-0.201222 0.273903,-0.42875 -0.0079,-0.07502 -0.06282,-0.249978 -0.117355,-0.273713 -0.03364,-0.01361 -0.07147,-0.0223 -0.117278,-0.0387 -0.14778,-0.05499 -0.27515,-0.222463 -0.428746,-0.235011 h -0.07888 c -0.06028,0 -0.127446,-0.02986 -0.194684,-0.03874 -0.04248,-0.01247 -0.131452,0.01285 -0.156548,0 -0.03848,-0.0189 -0.04721,-0.09626 -0.07888,-0.117505 -0.02684,-0.01776 -0.07903,-0.02495 -0.116032,-0.03874 -0.06278,-0.0223 -0.08644,-0.07374 -0.156623,-0.07873 -0.02343,0 -0.0539,0.01285 -0.07896,0 -0.03855,-0.01285 -0.08111,-0.01587 -0.117354,-0.03742 -0.04517,-0.0291 -0.09849,-0.04002 -0.116032,-0.07873 0.04112,-0.134967 -0.0898,-0.156245 -0.117316,-0.235011 -0.01474,-0.03628 0.01512,-0.123704 0,-0.156245 -0.01814,-0.04626 -0.06603,-0.07752 -0.117317,-0.116221 a 0.46749975,0.46749975 0 0 0 -0.273902,-0.117505 c -0.05722,-0.01285 -0.126123,0.01285 -0.194684,0 A 0.44499991,0.44499991 0 0 1 44.483991,46.90665 c -0.05269,-0.06127 -0.07026,-0.127483 -0.116031,-0.156246 -0.04396,-0.02797 -0.08769,-0.04997 -0.117355,-0.07873 -0.01512,-0.01247 -0.02759,-0.0102 -0.03847,-0.03742 -0.02343,-0.04747 -0.0672,-0.06248 -0.03976,-0.118715 -0.04978,-0.02494 -0.02532,0.04876 -0.07775,0.04003 -0.04857,-0.06875 -0.08496,-0.137462 -0.194683,-0.117506 -0.04982,0.01247 -0.09766,0.116221 -0.156548,0.117506 -0.04978,0 -0.09222,-0.107528 -0.156548,-0.117506 -0.04981,-0.01285 -0.12276,0.04498 -0.156549,0.03874 -0.0539,-0.01285 -0.06905,-0.04498 -0.117316,-0.07752 -0.03832,-0.02495 -0.09755,-0.08005 -0.117279,-0.07873 -0.06282,0 -0.10851,0.124989 -0.194683,0.07873 -0.04248,-0.05375 0.08901,-0.06754 0.03866,-0.117543 -0.03832,-0.03628 -0.04721,0.02116 -0.07771,0.03874 -0.03742,0.0223 -0.07899,0.02457 -0.117354,0.04002 -0.0864,0.0325 -0.167358,0.04124 -0.234784,0.07752 a 0.23125007,0.23125007 0 0 0 -0.116032,0.117506 c -0.03024,0.0525 -0.07355,0.153713 -0.117354,0.156246 -0.05261,0 -0.07026,-0.05749 -0.117355,-0.07873 -0.14347,-0.06248 -0.232781,0.03742 -0.351382,0.04002 -0.109682,0 -0.278589,-0.169965 -0.273903,-0.275036 0.006,-0.06251 0.03439,-0.155036 0.0398,-0.233726 0.0079,-0.06251 0.07608,-0.137499 0.07767,-0.195024 0.0012,-0.07752 -0.145247,-0.108737 -0.194683,-0.117505 -0.117317,-0.02117 -0.257726,0.05246 -0.39125,0 -0.02683,-0.04248 0.02684,-0.07502 0.0398,-0.116221 0.0102,-0.0223 -0.01172,-0.05246 0,-0.07873 0.01512,-0.04002 0.0977,-0.07502 0.116031,-0.117506 0.01512,-0.0325 -0.01512,-0.07502 0,-0.11622 0.01814,-0.04498 0.07487,-0.08496 0.07896,-0.117544 0.0079,-0.04248 -0.04509,-0.08995 -0.07896,-0.117505 -0.103861,0.01285 -0.174689,0.0087 -0.233726,0.0387 -0.134815,0.06251 -0.09849,0.231232 -0.234784,0.273714 a 1.1424999,1.1424999 0 0 1 -0.15651,0.03874 c -0.02343,0.01285 -0.05261,-0.0025 -0.07775,0 0.0042,-0.01285 -0.0042,-0.02457 0,-0.03874 0.0079,-0.0291 0.03439,-0.04997 0.03851,-0.07873 a 6.1375024,6.1375024 0 0 1 0.391295,-1.171238 h 0.03832 c 0.04845,0.01285 0.07775,0.07502 0.118564,0.07873 0.114142,0.01285 0.138935,-0.106205 0.233915,-0.156246 0.09774,0.01285 0.146457,-0.01285 0.234671,0 0.06028,0.01285 0.147779,0.07253 0.194721,0.07752 0.03984,0 0.03984,-0.04377 0.07771,-0.03874 0.03829,0.01285 0.111534,0.07124 0.117355,0.116221 0.0098,0.05628 -0.05514,0.133757 -0.03851,0.196233 0.05847,0.05998 0.190262,0.08126 0.272655,0.11622 0.05522,-0.04626 0.01172,-0.129978 0,-0.195024 0,-0.0291 0.006,-0.08999 0,-0.11622 -0.0079,-0.04498 -0.03832,-0.07873 -0.03832,-0.117506 0,-0.178771 0.152202,-0.242532 0.272655,-0.312491 0.0514,-0.02986 0.111534,-0.09498 0.15651,-0.117505 0.06376,-0.03099 0.103975,-0.0087 0.156548,-0.03874 0.09528,-0.05378 0.161046,-0.134967 0.234709,-0.196233 0.03591,-0.08122 -0.006,-0.192529 0,-0.272504 0.03591,-0.02116 0.08013,0 0.116032,0 0.05718,-0.01285 0.08496,-0.08496 0.117316,-0.117505 0.02192,-0.0189 0.05514,-0.02041 0.07895,-0.0387 0.05601,-0.04498 0.06603,-0.09747 0.116032,-0.117543 a 0.32499975,0.32499975 0 0 1 0.07892,-0.03874 c 0.03832,-0.01285 0.09642,-0.01776 0.156549,-0.04002 0.03832,-0.01285 0.140976,-0.0223 0.156585,-0.03742 0.02192,-0.02041 -0.0079,-0.08999 0,-0.118715 0.03175,-0.139955 0.22526,-0.147514 0.351421,-0.195023 0.08772,-0.0325 0.174652,-0.133758 0.273902,-0.116221 -0.02192,0.06754 -0.09517,0.07502 -0.07895,0.156246 0.0223,0.112517 0.156586,-0.02343 0.196573,-0.04002 0.07487,-0.0325 0.212447,-0.07873 0.312416,-0.116221 0.08772,-0.03099 0.237203,-0.05628 0.156548,-0.156245 -0.06901,-0.01285 -0.09762,0.0525 -0.156548,0.07752 -0.04116,0.01285 -0.04396,-0.03515 -0.07895,-0.03874 -0.03591,0 -0.04392,0.04498 -0.07895,0.03874 -0.03591,-0.01285 -0.07223,-0.07502 -0.07771,-0.117544 -0.01512,-0.104995 0.07476,-0.117505 0.117279,-0.195023 -0.03024,-0.09498 -0.155301,-0.04124 -0.234709,-0.07873 a 0.1412498,0.1412498 0 0 1 0.117317,-0.11622 c 0.0539,-0.01285 0.202356,0.0102 0.234633,0.03874 0.02192,0.01587 -0.03024,0.0525 0,0.07873 0.03439,0.0291 0.07487,0.01285 0.116031,0 0.01625,-0.07124 -0.08984,-0.0325 -0.07774,-0.07873 0.08496,-0.05499 0.24771,-0.02495 0.35142,-0.03874 a 0.84999984,0.84999984 0 0 0 0.194683,-0.07873 c 0.04981,-0.0291 0.06471,-0.08629 0.117355,-0.03874 0.01587,0.05129 -0.01209,0.08999 -0.03848,0.117506 -0.09642,0.08496 -0.199105,0.174992 -0.27394,0.272504 0.04656,0.04498 0.117317,0.03099 0.194721,0.04002 0.03213,0.01285 0.08648,-0.006 0.117241,0 0.03833,0.01285 0.08765,-0.01285 0.117317,0 0.05276,0.01285 0.06467,0.11622 0.116031,0.11622 0.08496,0 0.04982,-0.09997 0,-0.156208 0.01587,-0.05877 0.06138,-0.113726 0.03984,-0.156208 -0.03848,-0.07752 -0.187767,0.02343 -0.196536,-0.07752 -0.006,-0.06251 0.05594,-0.07003 0.07895,-0.117505 -0.01209,-0.120038 0.08991,-0.124989 0.07895,-0.233726 -0.0098,-0.04498 -0.04728,-0.03628 -0.07895,-0.07873 -0.01814,-0.0223 -0.02192,-0.100006 -0.03832,-0.11622 -0.06467,-0.05499 -0.187729,-0.01285 -0.196535,-0.117506 -0.0042,-0.06251 0.01172,-0.128768 0,-0.196233 -0.01021,-0.06251 -0.06278,-0.259994 -0.116032,-0.272504 -0.07026,-0.01474 -0.112743,0.116221 -0.196535,0.156246 a 0.46999979,0.46999979 0 0 1 -0.194684,0.03874 c -0.03213,-0.01285 -0.07484,-0.0189 -0.07771,-0.07873 -0.0079,-0.05246 0.05843,-0.07502 0.07771,-0.11622 0.0079,-0.0102 -0.0042,-0.02494 0,-0.04002 0.09101,-0.02494 0.18138,-0.05628 0.273903,-0.07752 0.05269,-0.01285 0.103974,-0.0291 0.156623,-0.0387 0.03832,-0.0072 0.08028,0.006 0.117279,0 a 6.2599992,6.2599992 0 0 1 1.132505,-0.117505 z m -2.538792,0.58625 c -0.0398,0.22749 -0.253719,0.318728 -0.508743,0.312492 -0.05598,0.05499 -0.01021,0.15753 -0.03833,0.233726 -0.02872,0.06372 -0.132396,0.122532 -0.196497,0.117543 -0.04664,0 -0.117317,-0.07374 -0.117317,-0.117543 0,-0.05378 0.0864,-0.05499 0.03976,-0.116221 0.0012,-0.01247 0.02684,-0.02759 0.03832,-0.04002 0.02759,-0.01474 0.0539,-0.02343 0.07896,-0.03874 0.225864,-0.139956 0.458725,-0.241248 0.703702,-0.35127 z m 5.233804,0.233726 c -0.02343,0.01285 -0.02192,0.02759 -0.03867,0.04002 -0.04713,0.0291 -0.08111,0.06372 -0.117354,0.07752 -0.04982,0.0189 -0.108662,0.03099 -0.116032,0.07873 -0.0102,0.03742 0.0398,0.04127 0.03833,0.07752 -0.02003,0.0463 -0.02873,0.06127 -0.03833,0.117506 0.06282,0.103748 0.193512,-0.02343 0.272655,-0.04002 0.03742,-0.01285 0.06028,-0.0087 0.07892,-0.03742 0.02192,-0.03515 0.02343,-0.07003 0.03851,-0.118715 0.02003,-0.05246 0.08496,-0.07 0.07892,-0.11622 -0.0079,-0.04626 -0.118564,-0.08496 -0.196536,-0.07873 z m -6.835046,0.781248 c 0.05839,0.04747 0.142375,0.150009 0.03829,0.196233 a 0.64500006,0.64500006 0 0 1 -0.193587,0.03742 c -0.01512,0 -0.03024,-0.0291 -0.0398,-0.03742 0.06471,-0.06251 0.128919,-0.136252 0.196611,-0.196233 z m 0.233764,0.235011 c 0.03213,0 0.04248,0.07502 0.07892,0.07752 0.03591,0 0.05718,-0.04381 0.07771,-0.0387 0.05265,0.01361 0.08897,0.117506 0.03848,0.156246 -0.04105,0.01247 -0.04724,-0.04381 -0.07771,-0.0387 -0.08496,0.01474 -0.132095,0.200012 -0.196573,0.195023 -0.06028,-0.01247 -0.09982,-0.151219 -0.03833,-0.195023 0,-0.03742 -0.006,-0.04003 0,-0.07873 0.02003,-0.0223 0.0661,-0.08122 0.116032,-0.07752 z m -0.312378,0.0387 c 0.02003,0 0.03439,-0.01247 0.03832,0 -0.01172,0.06622 -0.02759,0.08629 -0.07767,0.117505 -0.08901,0.05378 -0.166148,0.120038 -0.196573,0.233726 -0.01021,0.03364 -0.112819,0.124989 -0.156586,0.117506 -0.09744,-0.02116 0.05601,-0.206249 0.07895,-0.235011 0.02721,-0.03099 0.04966,-0.04124 0.07899,-0.07752 0.02873,-0.03515 0.04981,-0.09747 0.07775,-0.117506 a 0.30749997,0.30749997 0 0 1 0.156624,-0.03874 z m 8.476215,0.195024 c 0.09982,-0.01247 0.149745,0.09747 0.196535,0.156245 0.03829,0.04997 0.133531,0.122533 0.194684,0.156246 0.03742,0.0189 0.07778,0.06127 0.116107,0.07873 0.081,0.03628 0.231382,0.153713 0.234784,0.233726 0.0013,0.04002 -0.04517,0.08005 -0.03832,0.117505 0.06138,0.01285 0.114708,-0.09498 0.116069,-0.156208 0.114671,0.16252 0.213883,0.33498 0.31234,0.507504 0.04717,0.08251 0.11263,0.150009 0.15651,0.235011 -0.05526,0.01587 -0.06898,0.02457 -0.07771,0.07752 -0.01398,0.07 0.02721,0.183761 -0.07895,0.196233 -0.06474,0.01285 -0.142413,-0.05749 -0.233915,-0.07873 -0.03832,-0.01285 -0.08768,0.01247 -0.117392,0 -0.06894,-0.0223 -0.05734,-0.115049 -0.11607,-0.156246 a 0.6262502,0.6262502 0 0 0 -0.196573,-0.07873 c -0.0359,0 -0.04248,0.01285 -0.07763,0 -0.04248,-0.01285 -0.121361,0.01776 -0.156511,0 a 0.40125022,0.40125022 0 0 1 -0.117354,-0.11622 c -0.01512,-0.04626 0.114784,-0.07873 0.117354,-0.117544 0.0042,-0.02986 -0.0359,-0.07121 -0.03991,-0.117505 -0.006,-0.02759 0.0098,-0.05877 0,-0.07752 -0.01172,-0.0325 -0.06474,-0.03742 -0.116107,-0.04002 h -0.117317 c -0.05507,0 -0.165884,-0.0045 -0.234671,0 -0.04101,0 -0.07778,-0.0042 -0.116031,0 -0.108511,0.01285 -0.188901,-0.01285 -0.273941,0 a 0.7850002,0.7850002 0 0 0 -0.234708,0.07873 l -0.07778,0.03874 a 0.51375021,0.51375021 0 0 1 -0.07892,0.04003 c -0.0359,0.01587 -0.08232,0.06754 -0.116031,0.07752 -0.04981,0.01285 -0.107263,-0.01285 -0.196535,0 -0.06282,0 -0.154092,-0.04124 -0.156586,-0.117506 0,-0.11622 0.203527,-0.05628 0.312302,-0.07752 0.04112,-0.01285 0.0672,-0.04876 0.117317,-0.07873 0.02683,-0.01285 0.02003,-0.02343 0.0398,-0.03874 0.03832,-0.02646 0.109682,-0.08746 0.116032,-0.117505 0.0079,-0.02759 -0.006,-0.05628 0,-0.07752 0.0079,-0.02646 0.0452,-0.04381 0.07892,-0.07873 0.05265,-0.0525 0.09105,-0.122532 0.156548,-0.156246 0.04396,-0.0223 0.09642,-0.04127 0.116032,-0.07752 0.0079,-0.04002 0,-0.04123 0,-0.07873 a 0.16249986,0.16249986 0 0 1 0.07895,-0.0387 c 0.0672,-0.01474 0.116031,0.0042 0.194683,0 0.03591,0 0.08111,0.01587 0.117355,0 0.03213,-0.02041 0.0474,-0.06251 0.07895,-0.07873 a 0.3087499,0.3087499 0 0 1 0.116032,-0.03742 z m 0.703786,0.742503 h -0.156435 c -0.05514,0 -0.124914,-0.0291 -0.15651,0 0.04668,0.07502 0.130242,0.09876 0.233915,0.117505 a 0.24125029,0.24125029 0 0 0 0.07884,-0.117505 z m -8.554962,-0.703742 h 0.117354 c 0.03364,0 0.06474,-0.01285 0.07771,0 -0.0223,0.08251 -0.208479,0.07003 -0.272656,0.04002 0.0042,-0.03099 0.03833,-0.03515 0.07775,-0.04002 z m -0.273902,0.156245 c -0.0539,0.04003 -0.108473,0.09124 -0.194646,0.117544 -0.04751,0.01474 -0.10851,0.01361 -0.117354,-0.0387 -0.01172,-0.06504 0.07487,-0.0325 0.117354,-0.03874 0.05499,-0.01285 0.131225,-0.03742 0.194646,-0.04002 z m 8.124957,0 c -0.04105,0.01361 -0.06142,0.104996 0,0.117544 0.03024,-0.01776 0.04747,-0.06251 0.0398,-0.116221 -0.01814,-0.01776 -0.02872,-0.01285 -0.0398,0 z m -0.07778,0.196233 c 0,0.07004 0.01474,0.133758 0,0.195024 0.03984,0.07752 0.136365,0.01285 0.156548,-0.0387 0.02532,-0.129978 -0.02192,-0.172498 -0.07892,-0.156246 -0.0223,0.01285 -0.05605,-0.01587 -0.07775,0 z m -10.352485,2.928753 c 0.07147,0.06372 0.112668,0.153713 0.196573,0.196233 a 0.58749991,0.58749991 0 0 0 0.116032,0.03874 c 0.0359,0.01247 0.04702,-0.0102 0.07895,0 0.06614,0.0223 0.142261,0.05375 0.194683,0.07873 0.08043,0.03515 0.165997,0.155036 0.234633,0.195023 0.0042,0.04002 -0.01474,0.08746 0,0.116221 0.03439,0.04377 0.06388,0.0875 0.116032,0.117505 0.06376,0.03515 0.09766,0.08999 0.156548,0.117506 0.0223,0.01285 0.04668,-0.01285 0.07895,0 0.08236,0.02495 0.124914,0.137499 0.194722,0.117543 0.04634,-0.01361 0.03439,-0.07253 0.03976,-0.117543 0.03364,-0.03364 0.0672,-0.07873 0.116032,-0.07873 0.07778,0 0.08897,0.12 0.117316,0.196233 0.01814,0.04248 0.0672,0.07124 0.07899,0.116221 a 1.1787502,1.1787502 0 0 1 0,0.352479 c -0.0223,0.05749 -0.109681,0.05378 -0.156548,0.11622 -0.02343,0.02986 -0.02343,0.09627 -0.03984,0.117506 -0.03213,0.03742 -0.05522,0.04377 -0.07775,0.07873 a 0.56249999,0.56249999 0 0 0 -0.03987,0.07752 c -0.03832,0.08005 -0.108586,0.137499 -0.07778,0.235011 0.01512,0.03742 0.07895,0.07003 0.07895,0.116221 0,0.05499 -0.108624,0.09626 -0.117317,0.156245 -0.0098,0.04377 0.02684,0.09876 0.03848,0.156246 0.01209,0.04381 0.09101,0.08878 0.117354,0.117506 0.04396,0.04997 0.07771,0.133757 0.116032,0.196233 0.07895,0.121247 0.118564,0.271256 0.196611,0.390002 0.04116,0.06127 0.128957,0.09127 0.15651,0.156245 0.01474,0.0325 -0.01512,0.0875 0,0.117506 0.04513,0.09997 0.250167,0.223786 0.351421,0.272542 0.04743,0.02457 0.112592,0.01474 0.156585,0.04002 0.06603,0.03742 0.200051,0.137461 0.234671,0.195023 0.03024,0.0525 0.02532,0.190035 0.03833,0.273714 0.02192,0.110022 -0.006,0.193738 0,0.312491 0.0079,0.06501 0.03987,0.09128 0.03987,0.156246 v 0.11622 c -0.0013,0.07752 0.0102,0.156246 0,0.235011 a 0.73999989,0.73999989 0 0 0 0,0.117506 c 0.006,0.03742 0.03829,0.04248 0.03844,0.07752 0.0042,0.03742 -0.04248,0.08878 -0.03844,0.117506 0.01172,0.07873 0.06278,0.122532 0.07892,0.195023 0.01474,0.05745 0.04653,0.20504 0.03833,0.273714 -0.006,0.03628 -0.03439,0.07502 -0.03833,0.117543 -0.006,0.0325 0.006,0.04747 0,0.07752 -0.006,0.0291 0.0102,0.05499 0,0.07873 -0.03991,-0.02495 -0.07892,-0.0525 -0.117354,-0.07873 a 6.5037515,6.5037515 0 0 1 -0.937436,-0.781255 l -0.117279,-0.11622 a 6.5000018,6.5000018 0 0 1 -0.62516,-0.781248 c -0.02003,-0.02457 -0.02343,-0.05374 -0.03833,-0.07873 a 6.0300024,6.0300024 0 0 1 -0.548062,-1.016202 c -0.01361,-0.02457 -0.02872,-0.04997 -0.03848,-0.07752 A 6.2724992,6.2724992 0 0 1 40.617608,47.882475 6.2599992,6.2599992 0 0 1 40.500254,46.74997 c 0,-0.297487 0.03832,-0.573748 0.07895,-0.859998 z m 2.422545,0.665004 c 0.06028,-0.02759 0.0486,0.06875 0,0.07752 -0.04649,0.01247 -0.04513,-0.05499 0,-0.07752 z"
     fill="#ffffff"
     id="path28-3"
     style="stroke-width:0.999999" />
</svg>
