<?xml version="1.0" encoding="UTF-8" standalone="no"?>
<svg
   width="62"
   height="62"
   version="1.1"
   id="svg6"
   sodipodi:docname="preferences-system-network-server-dns.svg"
   inkscape:version="1.4 (e7c3feb100, 2024-10-09)"
   xmlns:inkscape="http://www.inkscape.org/namespaces/inkscape"
   xmlns:sodipodi="http://sodipodi.sourceforge.net/DTD/sodipodi-0.dtd"
   xmlns="http://www.w3.org/2000/svg"
   xmlns:svg="http://www.w3.org/2000/svg">
  <defs
     id="defs6" />
  <sodipodi:namedview
     id="namedview6"
     pagecolor="#ffffff"
     bordercolor="#000000"
     borderopacity="0.25"
     inkscape:showpageshadow="2"
     inkscape:pageopacity="0.0"
     inkscape:pagecheckerboard="0"
     inkscape:deskcolor="#d1d1d1"
     inkscape:zoom="8.3306018"
     inkscape:cx="31.150211"
     inkscape:cy="73.58412"
     inkscape:window-width="1920"
     inkscape:window-height="994"
     inkscape:window-x="0"
     inkscape:window-y="0"
     inkscape:window-maximized="1"
     inkscape:current-layer="svg6"
     showgrid="false">
    <inkscape:grid
       id="grid1"
       units="px"
       originx="0"
       originy="0"
       spacingx="1"
       spacingy="1"
       empcolor="#0099e5"
       empopacity="0.30196078"
       color="#0099e5"
       opacity="0.14901961"
       empspacing="5"
       enabled="true"
       visible="false" />
  </sodipodi:namedview>
  <g
     id="g6"
     transform="translate(-3,-3)">
    <rect
       x="6"
       y="6"
       width="56"
       height="56"
       rx="5"
       ry="5"
       style="fill:#434a56;fill-opacity:1;stroke-width:1.07686;paint-order:stroke markers fill"
       id="rect1" />
    <path
       d="M 12.461534,15.692318 H 38.307702 V 17.84616 H 12.461534 Z"
       id="path1"
       style="fill:#ffffff;fill-opacity:1" />
    <circle
       cx="45.846199"
       cy="16.769222"
       r="2.1538472"
       id="circle1"
       style="stroke-width:1.07686;fill:#72d406;fill-opacity:1" />
    <circle
       cx="54.461586"
       cy="16.769222"
       r="2.1538472"
       id="circle2"
       style="stroke-width:1.07686;fill:#72d406;fill-opacity:1" />
    <path
       d="m 12.461534,32.92309 h 25.846168 v 2.153844 H 12.461534 Z"
       id="path2"
       style="stroke-width:1.07686;fill:#ffffff;fill-opacity:1" />
    <circle
       cx="45.846199"
       cy="34"
       r="2.1538472"
       id="circle3"
       style="stroke-width:1.07686;fill:#72d406;fill-opacity:1" />
    <circle
       cx="54.461586"
       cy="34"
       r="2.1538472"
       id="circle4"
       style="stroke-width:1.07686;fill:#72d406;fill-opacity:1" />
    <path
       d="m 12.461534,50.153864 h 27.846 v 2.320493 h -27.846 z"
       id="path4"
       style="fill:#ffffff;fill-opacity:1;stroke-width:1.16021" />
    <rect
       x="6"
       y="23.230778"
       width="56"
       height="3.2307711"
       rx="0"
       ry="0"
       fill-rule="evenodd"
       opacity="0.5"
       style="stroke-width:1.07686;paint-order:fill markers stroke;fill:#000000;fill-opacity:1"
       id="rect4" />
    <rect
       x="6"
       y="40.461555"
       width="56"
       height="3.2307711"
       rx="0"
       ry="0"
       fill-rule="evenodd"
       opacity="0.5"
       style="stroke-width:1.07686;paint-order:fill markers stroke;fill:#000000;fill-opacity:1"
       id="rect5" />
    <circle
       cx="45.846199"
       cy="51.230782"
       r="2.1538472"
       id="circle5"
       style="stroke-width:1.07686;fill:#72d406;fill-opacity:1" />
    <circle
       cx="54.461586"
       cy="51.230782"
       r="2.1538472"
       id="circle6"
       style="stroke-width:1.07686;fill:#72d406;fill-opacity:1" />
  </g>
  <circle
     cx="46.75"
     cy="46.75"
     r="11.250001"
     style="fill:#ff9955;fill-rule:evenodd;stroke-width:0.999999;paint-order:fill markers stroke"
     id="circle24-3" />
  <path
     d="m 46.750028,39.250018 a 7.5000026,7.5000026 0 0 0 -7.500001,7.500009 7.5000026,7.5000026 0 0 0 7.500001,7.5 7.5000026,7.5000026 0 0 0 4.337499,-1.393753 l -0.892501,-0.893749 a 6.2500023,6.2500023 0 0 1 -3.444998,1.037495 6.2500023,6.2500023 0 0 1 -6.250013,-6.249993 6.2500023,6.2500023 0 0 1 6.250013,-6.250001 6.2500023,6.2500023 0 0 1 6.250001,6.250001 1.2500002,2.5000011 0 0 1 -1.25,2.499999 1.2500002,1.2500002 0 0 1 -1.250003,-1.25 v -5.000002 h -1.249999 v 0.962503 a 3.7500021,3.7500021 0 0 0 -2.499999,-0.962503 3.7500021,3.7500021 0 0 0 -3.750002,3.750003 3.7500021,3.7500021 0 0 0 3.750002,3.749987 3.7500021,3.7500021 0 0 0 2.7875,-1.249988 h 0.05 a 2.5000011,2.5000011 0 0 0 2.162491,1.249988 2.5000011,3.7500021 0 0 0 2.500003,-3.749987 7.5000026,7.5000026 0 0 0 -7.499997,-7.500009 z m 0,5.00001 a 2.5000011,2.5000011 0 0 1 2.499999,2.499999 2.5000011,2.5000011 0 0 1 -2.499999,2.499999 2.5000011,2.5000011 0 0 1 -2.500003,-2.499999 2.5000011,2.5000011 0 0 1 2.500003,-2.499999 z"
     fill="#ffffff"
     id="path28-6"
     style="stroke-width:0.999999" />
</svg>
