<?xml version="1.0" encoding="UTF-8" standalone="no"?>
<svg
   width="62"
   height="62"
   version="1"
   id="svg3"
   sodipodi:docname="preferences-plugin.svg"
   inkscape:version="1.4 (e7c3feb100, 2024-10-09)"
   xmlns:inkscape="http://www.inkscape.org/namespaces/inkscape"
   xmlns:sodipodi="http://sodipodi.sourceforge.net/DTD/sodipodi-0.dtd"
   xmlns="http://www.w3.org/2000/svg"
   xmlns:svg="http://www.w3.org/2000/svg">
  <defs
     id="defs3" />
  <sodipodi:namedview
     id="namedview3"
     pagecolor="#ffffff"
     bordercolor="#000000"
     borderopacity="0.25"
     inkscape:showpageshadow="2"
     inkscape:pageopacity="0.0"
     inkscape:pagecheckerboard="0"
     inkscape:deskcolor="#d1d1d1"
     inkscape:zoom="11.78125"
     inkscape:cx="31.95756"
     inkscape:cy="32"
     inkscape:window-width="1920"
     inkscape:window-height="994"
     inkscape:window-x="0"
     inkscape:window-y="0"
     inkscape:window-maximized="1"
     inkscape:current-layer="svg3" />
  <g
     id="g3"
     transform="matrix(2.8,0,0,2.8,-5.4000126,-5.4)">
    <path
       style="opacity:0.2;stroke-width:0.341894"
       d="m 11.275863,3.3391186 c -1.146207,0 -2.0689662,0.9071123 -2.0689662,2.0338841 V 7.4068871 H 4.3793105 C 3.6151725,7.4068871 3,8.0116288 3,8.7628098 v 4.0677692 h 2.0689657 c 1.1462069,0 2.0689654,0.907112 2.0689654,2.033884 0,1.126772 -0.9227585,2.033884 -2.0689654,2.033884 H 3 v 4.74573 C 3,22.395258 3.6151725,23 4.3793105,23 h 4.8275863 v -1.355923 c 0,-1.126772 0.9227592,-2.033884 2.0689662,-2.033884 1.146205,0 2.068964,0.907112 2.068964,2.033884 V 23 h 4.137932 c 0.764137,0 1.379311,-0.604742 1.379311,-1.355923 v -4.74573 h 2.068964 C 22.077242,16.898347 23,15.991235 23,14.864463 23,13.737691 22.077242,12.830579 20.931034,12.830579 H 18.86207 V 8.7628098 c 0,-0.751181 -0.615174,-1.3559227 -1.379311,-1.3559227 H 13.344827 V 5.3730027 c 0,-1.1267718 -0.922759,-2.0338841 -2.068964,-2.0338841 z"
       id="path1" />
    <path
       style="fill:#0780da;stroke-width:0.341894"
       d="m 11.275863,3.0001402 c -1.146207,0 -2.0689662,0.9071124 -2.0689662,2.0338843 V 7.0679088 H 4.3793105 C 3.6151725,7.0679088 3,7.6726502 3,8.4238315 V 12.4916 h 2.0689657 c 1.1462069,0 2.0689654,0.907113 2.0689654,2.033884 0,1.126772 -0.9227585,2.033885 -2.0689654,2.033885 H 3 v 4.74573 c 0,0.751181 0.6151725,1.355922 1.3793105,1.355922 h 4.8275863 v -1.355922 c 0,-1.126772 0.9227592,-2.033885 2.0689662,-2.033885 1.146205,0 2.068964,0.907113 2.068964,2.033885 v 1.355922 h 4.137932 c 0.764137,0 1.379311,-0.604741 1.379311,-1.355922 v -4.74573 h 2.068964 C 22.077242,16.559369 23,15.652256 23,14.525484 23,13.398713 22.077242,12.4916 20.931034,12.4916 H 18.86207 V 8.4238315 c 0,-0.7511813 -0.615174,-1.3559227 -1.379311,-1.3559227 H 13.344827 V 5.0340245 c 0,-1.1267719 -0.922759,-2.0338843 -2.068964,-2.0338843 z"
       id="path2" />
    <path
       style="opacity:0.1;fill:#ffffff;stroke-width:0.341894"
       d="M 11.275919,3 C 10.129711,3 9.2069394,3.9071264 9.2069394,5.0338983 v 0.3389831 c 0,-1.1267719 0.9227716,-2.0338983 2.0689796,-2.0338983 1.146208,0 2.068981,0.9071264 2.068981,2.0338983 V 5.0338983 C 13.3449,3.9071264 12.422127,3 11.275919,3 Z M 4.3793198,7.0677966 C 3.6151819,7.0677966 3,7.6725475 3,8.4237288 V 8.7627119 C 3,8.0115305 3.6151819,7.4067797 4.3793198,7.4067797 H 9.2069394 V 7.0677966 Z m 8.9655802,0 v 0.3389831 h 4.137959 c 0.764138,0 1.37932,0.6047508 1.37932,1.3559322 V 8.4237288 c 0,-0.7511813 -0.615182,-1.3559322 -1.37932,-1.3559322 z m 5.517279,5.4237284 v 0.338983 h 2.06898 c 1.084119,0 1.966939,0.811831 2.05955,1.853152 0.0054,-0.05203 0.0093,-0.104432 0.0093,-0.158236 0,-1.126772 -0.922773,-2.033899 -2.06898,-2.033899 z M 7.1029381,14.864407 C 6.9388,15.827112 6.0965659,16.559322 5.0689797,16.559322 H 3 v 0.338983 h 2.0689797 c 1.0275862,0 1.8698203,-0.73221 2.0339584,-1.694915 0.010468,0.06161 0.019093,0.123514 0.025593,0.186043 0.00562,-0.06133 0.00944,-0.123224 0.00944,-0.186043 0,-0.116609 -0.016126,-0.227797 -0.035021,-0.338983 z"
       id="path3" />
  </g>
</svg>
