<?xml version="1.0" encoding="UTF-8" standalone="no"?>
<svg
   width="62"
   height="62"
   version="1.1"
   id="svg14"
   sodipodi:docname="preferences-system-network-ntp.svg"
   inkscape:version="1.4 (e7c3feb100, 2024-10-09)"
   xmlns:inkscape="http://www.inkscape.org/namespaces/inkscape"
   xmlns:sodipodi="http://sodipodi.sourceforge.net/DTD/sodipodi-0.dtd"
   xmlns:xlink="http://www.w3.org/1999/xlink"
   xmlns="http://www.w3.org/2000/svg"
   xmlns:svg="http://www.w3.org/2000/svg">
  <sodipodi:namedview
     id="namedview14"
     pagecolor="#ffffff"
     bordercolor="#000000"
     borderopacity="0.25"
     inkscape:showpageshadow="2"
     inkscape:pageopacity="0.0"
     inkscape:pagecheckerboard="0"
     inkscape:deskcolor="#d1d1d1"
     inkscape:zoom="5.890625"
     inkscape:cx="26.567639"
     inkscape:cy="48.891247"
     inkscape:window-width="1920"
     inkscape:window-height="994"
     inkscape:window-x="0"
     inkscape:window-y="0"
     inkscape:window-maximized="1"
     inkscape:current-layer="svg14" />
  <defs
     id="defs8">
    <linearGradient
       id="linearGradient1"
       inkscape:collect="always">
      <stop
         style="stop-color:#ededed;stop-opacity:1;"
         offset="0"
         id="stop7" />
      <stop
         style="stop-color:#b3b3b3;stop-opacity:1;"
         offset="1"
         id="stop8" />
    </linearGradient>
    <linearGradient
       id="linearGradient16"
       inkscape:collect="always">
      <stop
         style="stop-color:#535d6c;stop-opacity:1"
         offset="0"
         id="stop16" />
      <stop
         style="stop-color:#6f7c91;stop-opacity:1"
         offset="1"
         id="stop17" />
    </linearGradient>
    <linearGradient
       id="linearGradient14"
       inkscape:collect="always">
      <stop
         style="stop-color:#2d87ee;stop-opacity:1;"
         offset="0"
         id="stop14" />
      <stop
         style="stop-color:#76b2f4;stop-opacity:1;"
         offset="1"
         id="stop15" />
    </linearGradient>
    <linearGradient
       id="b"
       x1="400.56"
       x2="400.56"
       y1="546.92999"
       y2="516.47998"
       gradientTransform="matrix(1.0619,0,0,1.0611,-24.729,-32.522)"
       gradientUnits="userSpaceOnUse">
      <stop
         offset="0"
         stop-color="#187ced"
         id="stop1" />
      <stop
         offset="1"
         stop-color="#42d6fc"
         id="stop2" />
    </linearGradient>
    <linearGradient
       id="c"
       x1="16.038"
       x2="16.038"
       y1="29.504999"
       y2="2.3199999"
       gradientTransform="matrix(1.1024,0,0,1.0988,382.95,514.19)"
       gradientUnits="userSpaceOnUse">
      <stop
         offset="0"
         stop-color="#0164c2"
         id="stop3"
         style="stop-color:#0163c1;stop-opacity:1;" />
      <stop
         offset="1"
         stop-color="#00a9f3"
         id="stop4" />
    </linearGradient>
    <linearGradient
       id="d"
       x1="417"
       x2="417"
       y1="51.537998"
       y2="573.97998"
       gradientTransform="matrix(0.13257206,0,0,0.13257206,-24.120888,-1.431428)"
       gradientUnits="userSpaceOnUse">
      <stop
         offset="0"
         stop-color="#f3f3f3"
         id="stop5" />
      <stop
         offset="1"
         stop-color="#b7b7b7"
         id="stop6" />
    </linearGradient>
    <filter
       id="a"
       width="1.0720013"
       height="1.0720014"
       x="-0.036000636"
       y="-0.036000706"
       color-interpolation-filters="sRGB">
      <feGaussianBlur
         stdDeviation="15.3"
         id="feGaussianBlur6" />
    </filter>
    <filter
       id="e"
       width="1.3585653"
       height="1.0400489"
       x="-0.17928265"
       y="-0.020024471"
       color-interpolation-filters="sRGB">
      <feGaussianBlur
         stdDeviation=".15"
         id="feGaussianBlur7" />
    </filter>
    <filter
       id="f"
       width="1.0719941"
       height="1.0720118"
       x="-0.035997052"
       y="-0.036005903"
       color-interpolation-filters="sRGB">
      <feGaussianBlur
         stdDeviation=".244"
         id="feGaussianBlur8" />
    </filter>
    <linearGradient
       inkscape:collect="always"
       xlink:href="#linearGradient14"
       id="linearGradient15"
       x1="405.82803"
       y1="517.13"
       x2="405.98883"
       y2="545.26294"
       gradientUnits="userSpaceOnUse" />
    <linearGradient
       inkscape:collect="always"
       xlink:href="#linearGradient16"
       id="linearGradient17"
       x1="396.84863"
       y1="518.31006"
       x2="405.34863"
       y2="545.69733"
       gradientUnits="userSpaceOnUse" />
    <linearGradient
       id="paint188_linear_890_11"
       x1="385"
       y1="782.52899"
       x2="381"
       y2="782.52899"
       gradientUnits="userSpaceOnUse"
       gradientTransform="matrix(0.94714663,0,0,0.94714663,-331.5969,-717.09824)">
      <stop
         offset="0.252542"
         stop-color="#71706E"
         id="stop1118" />
      <stop
         offset="1"
         stop-color="#B9AA99"
         id="stop1119" />
    </linearGradient>
    <linearGradient
       id="paint189_linear_890_11"
       x1="392.53299"
       y1="795.03198"
       x2="389.30399"
       y2="798.26001"
       gradientUnits="userSpaceOnUse"
       gradientTransform="matrix(0.94714663,0,0,0.94714663,-331.5969,-717.09824)">
      <stop
         offset="0.252542"
         stop-color="#71706E"
         id="stop1120" />
      <stop
         offset="1"
         stop-color="#B9AA99"
         id="stop1121" />
    </linearGradient>
    <linearGradient
       id="paint190_linear_890_11"
       x1="365"
       y1="778"
       x2="375.836"
       y2="795.15601"
       gradientUnits="userSpaceOnUse"
       gradientTransform="matrix(0.94714663,0,0,0.94714663,-331.5969,-717.09824)">
      <stop
         stop-color="#F15700"
         id="stop1122" />
      <stop
         offset="1"
         stop-color="#FF0000"
         id="stop1123" />
    </linearGradient>
    <linearGradient
       id="paint191_linear_890_11"
       x1="380"
       y1="786"
       x2="386"
       y2="792"
       gradientUnits="userSpaceOnUse"
       gradientTransform="matrix(0.94714663,0,0,0.94714663,-331.5969,-717.09824)">
      <stop
         stop-color="white"
         id="stop1124" />
      <stop
         offset="0.705"
         stop-color="#EAEFEF"
         id="stop1125" />
    </linearGradient>
    <linearGradient
       id="paint192_linear_890_11"
       x1="382"
       y1="788"
       x2="384"
       y2="790"
       gradientUnits="userSpaceOnUse"
       gradientTransform="matrix(0.94714663,0,0,0.94714663,-331.5969,-717.09824)">
      <stop
         stop-color="#F15700"
         id="stop1126" />
      <stop
         offset="1"
         stop-color="#FF0000"
         id="stop1127" />
    </linearGradient>
    <linearGradient
       id="paint184_linear_890_11"
       x1="406.478"
       y1="791"
       x2="406.478"
       y2="787"
       gradientUnits="userSpaceOnUse"
       gradientTransform="translate(-352,-758)">
      <stop
         offset="0.34068099"
         stop-color="#2E2E41"
         id="stop1110"
         style="stop-color:#2e2e41;stop-opacity:1;" />
      <stop
         offset="1"
         stop-color="#566C80"
         id="stop1111"
         style="stop-color:#566c80;stop-opacity:1;" />
    </linearGradient>
    <linearGradient
       id="paint185_linear_890_11"
       x1="366.478"
       y1="791"
       x2="366.478"
       y2="787"
       gradientUnits="userSpaceOnUse"
       gradientTransform="translate(-352,-758)">
      <stop
         offset="0.340681"
         stop-color="#2E2E41"
         id="stop1112" />
      <stop
         offset="1"
         stop-color="#566C80"
         id="stop1113" />
    </linearGradient>
    <linearGradient
       id="paint186_linear_890_11"
       x1="385"
       y1="769"
       x2="381"
       y2="769"
       gradientUnits="userSpaceOnUse"
       gradientTransform="translate(-352,-758)">
      <stop
         offset="0.340681"
         stop-color="#2E2E41"
         id="stop1114" />
      <stop
         offset="1"
         stop-color="#566C80"
         id="stop1115" />
    </linearGradient>
    <linearGradient
       id="paint187_linear_890_11"
       x1="385"
       y1="809"
       x2="381"
       y2="809"
       gradientUnits="userSpaceOnUse"
       gradientTransform="translate(-352,-758)">
      <stop
         offset="0.340681"
         stop-color="#2E2E41"
         id="stop1116" />
      <stop
         offset="1"
         stop-color="#566C80"
         id="stop1117" />
    </linearGradient>
    <linearGradient
       id="paint188_linear_890_11-3"
       x1="385"
       y1="782.52899"
       x2="381"
       y2="782.52899"
       gradientUnits="userSpaceOnUse"
       gradientTransform="translate(-352,-758)">
      <stop
         offset="0.25254199"
         stop-color="#71706E"
         id="stop1118-6"
         style="stop-color:#a7a6a4;stop-opacity:1;" />
      <stop
         offset="1"
         stop-color="#B9AA99"
         id="stop1119-0"
         style="stop-color:#d6cdc2;stop-opacity:1;" />
    </linearGradient>
    <linearGradient
       id="paint189_linear_890_11-6"
       x1="392.53299"
       y1="795.03198"
       x2="389.30399"
       y2="798.26001"
       gradientUnits="userSpaceOnUse"
       gradientTransform="translate(-352,-758)">
      <stop
         offset="0.25254199"
         stop-color="#71706E"
         id="stop1120-2"
         style="stop-color:#a7a7a5;stop-opacity:1;" />
      <stop
         offset="1"
         stop-color="#B9AA99"
         id="stop1121-6"
         style="stop-color:#d7cec5;stop-opacity:1;" />
    </linearGradient>
    <linearGradient
       id="paint190_linear_890_11-1"
       x1="365"
       y1="778"
       x2="375.836"
       y2="795.15601"
       gradientUnits="userSpaceOnUse"
       gradientTransform="translate(-352,-758)">
      <stop
         stop-color="#F15700"
         id="stop1122-8" />
      <stop
         offset="1"
         stop-color="#FF0000"
         id="stop1123-7" />
    </linearGradient>
    <linearGradient
       id="paint191_linear_890_11-9"
       x1="380"
       y1="786"
       x2="386"
       y2="792"
       gradientUnits="userSpaceOnUse"
       gradientTransform="translate(-352,-758)">
      <stop
         stop-color="white"
         id="stop1124-2" />
      <stop
         offset="0.705"
         stop-color="#EAEFEF"
         id="stop1125-0" />
    </linearGradient>
    <linearGradient
       id="paint192_linear_890_11-2"
       x1="382"
       y1="788"
       x2="384"
       y2="790"
       gradientUnits="userSpaceOnUse"
       gradientTransform="translate(-352,-758)">
      <stop
         stop-color="#F15700"
         id="stop1126-3" />
      <stop
         offset="1"
         stop-color="#FF0000"
         id="stop1127-7" />
    </linearGradient>
    <linearGradient
       inkscape:collect="always"
       xlink:href="#linearGradient1"
       id="linearGradient8"
       x1="29"
       y1="24"
       x2="33"
       y2="24"
       gradientUnits="userSpaceOnUse" />
    <linearGradient
       inkscape:collect="always"
       xlink:href="#linearGradient1"
       id="linearGradient13"
       x1="36.478001"
       y1="39.521999"
       x2="39.521999"
       y2="36.478001"
       gradientUnits="userSpaceOnUse" />
  </defs>
  <path
     d="m 984.88,316.75 q -9.292,-22.529 -20.962,-44.139 A 452,452 0 0 0 949.98,248.408 C 928.856,214.156 903.086,181.794 872.669,151.379 773.101,51.811 652.839,1.999 511.999,1.999 c -140.85,0 -261.05,49.811 -360.61,149.38 -99.569,99.572 -149.38,219.78 -149.38,360.61 0,140.83 49.811,261.11 149.38,360.67 99.568,99.568 219.78,149.32 360.61,149.32 140.84,0 261.11,-49.758 360.67,-149.32 54.836,-54.89 94.598,-116.04 119.23,-183.42 20.043,-54.943 30.092,-113.99 30.092,-177.25 0,-48.515 -5.889,-94.598 -17.72,-138.25 a 657,657 0 0 0 -4.214,-14.695 498,498 0 0 0 -15.18,-42.302 z"
     filter="url(#a)"
     opacity="0.25"
     transform="matrix(0.05572055,0,0,0.05572055,2.634116,2.6346732)"
     id="path8" />
  <g
     stroke-width="0.8"
     transform="matrix(1.9309484,0,0,1.9324637,-742.39812,-996.49875)"
     id="g9">
    <ellipse
       cx="400.60001"
       cy="531.78003"
       rx="14.715"
       ry="14.704"
       id="ellipse8"
       style="fill:url(#linearGradient15)" />
    <path
       d="m 400.62,517.13 c -1.854,0 -3.618,0.352 -5.249,0.971 -0.118,0.109 -0.273,0.192 -0.395,0.182 -0.017,-0.002 -0.033,-0.011 -0.05,-0.018 -0.804,0.335 -1.567,0.745 -2.29,1.211 0.094,0.152 0.122,0.322 -0.07,0.404 a 4,4 0 0 1 -0.585,0.052 14.6,14.6 0 0 0 -4.76,5.83 c 0.018,-0.003 0.032,-0.01 0.05,-0.011 0.16,-0.003 0.39,0.043 0.544,0.075 0.142,0.03 0.256,0.124 0.379,0.133 0.348,0.027 0.432,-0.243 0.716,-0.394 0.294,0.04 0.488,-0.05 0.754,-0.02 0.18,0.02 0.31,0.212 0.452,0.222 0.118,0.012 0.222,-0.11 0.337,-0.093 0.111,0.018 0.303,0.26 0.321,0.395 0.024,0.169 -0.124,0.321 -0.075,0.507 0.177,0.18 0.5,0.216 0.753,0.32 0.165,-0.136 0.022,-0.387 0,-0.584 -0.003,-0.086 0.012,-0.163 0,-0.243 -0.014,-0.135 -0.073,-0.259 -0.074,-0.375 -0.003,-0.534 0.433,-0.784 0.792,-0.995 0.156,-0.092 0.279,-0.254 0.414,-0.32 0.19,-0.096 0.333,-0.118 0.49,-0.207 0.286,-0.16 0.531,-0.288 0.754,-0.47 0.103,-0.242 0.01,-0.567 0.02,-0.806 0.102,-0.063 0.191,0.027 0.3,0.019 0.173,-0.036 0.187,-0.279 0.285,-0.375 0.056,-0.056 0.212,-0.095 0.283,-0.15 0.171,-0.135 0.227,-0.337 0.377,-0.395 0.054,-0.022 0.178,-0.015 0.263,-0.038 0.111,-0.03 0.27,-0.161 0.452,-0.224 0.118,-0.04 0.39,-0.049 0.435,-0.094 0.055,-0.056 -10e-4,-0.215 0.019,-0.3 0.091,-0.424 0.732,-0.514 1.11,-0.657 0.266,-0.1 0.539,-0.284 0.83,-0.227 -0.057,0.201 -0.328,0.13 -0.282,0.374 0.063,0.34 0.52,-0.096 0.64,-0.147 0.23,-0.096 0.624,-0.155 0.926,-0.265 0.264,-0.096 0.738,-0.243 0.489,-0.545 -0.208,-0.011 -0.308,0.244 -0.49,0.32 -0.125,0.021 -0.1,-0.104 -0.208,-0.114 -0.1,-0.011 -0.158,0.094 -0.262,0.076 -0.104,-0.017 -0.25,-0.18 -0.266,-0.3 -0.04,-0.314 0.266,-0.444 0.396,-0.678 -0.086,-0.283 -0.48,-0.057 -0.717,-0.168 0.023,-0.17 0.198,-0.286 0.396,-0.318 0.162,-0.027 0.526,-0.013 0.623,0.072 0.056,0.048 0.004,0.166 0.094,0.245 0.096,0.087 0.215,0.077 0.34,0.057 0.043,-0.214 -0.28,-0.16 -0.245,-0.301 0.255,-0.166 0.669,-0.03 0.98,-0.076 0.18,-0.027 0.368,-0.153 0.527,-0.242 0.151,-0.086 0.348,-0.235 0.508,-0.094 0.043,0.153 -0.14,0.204 -0.225,0.28 a 6,6 0 0 0 -0.81,0.846 c 0.138,0.133 0.388,0.066 0.62,0.094 0.091,0.012 0.206,0.038 0.302,0.056 0.112,0.02 0.232,0.014 0.32,0.037 0.158,0.038 0.2,0.208 0.357,0.208 0.258,0 0.261,-0.279 0.115,-0.453 0.046,-0.177 0.119,-0.269 0.056,-0.393 -0.116,-0.232 -0.542,-0.012 -0.564,-0.3 -0.013,-0.188 0.157,-0.18 0.226,-0.32 -0.031,-0.361 0.297,-0.388 0.262,-0.712 -0.014,-0.136 -0.13,-0.137 -0.225,-0.265 -0.049,-0.062 -0.072,-0.182 -0.128,-0.236 -0.44,-0.038 -0.884,-0.062 -1.335,-0.062 z m -7.584,2.956 h 0.002 c 0.088,0.011 0.194,0.106 0.3,0.114 0.1,0.003 0.183,-0.055 0.245,-0.038 0.158,0.041 0.224,0.279 0.076,0.395 -0.123,0.015 -0.171,-0.054 -0.264,-0.037 -0.256,0.043 -0.354,0.543 -0.546,0.526 -0.18,-0.014 -0.278,-0.453 -0.094,-0.583 0.011,-0.114 -0.084,-0.133 -0.078,-0.245 0.055,-0.07 0.21,-0.144 0.36,-0.132 z m -0.848,0.059 q 0.08,0.002 0.112,0.036 c -0.025,0.2 -0.182,0.188 -0.338,0.28 -0.268,0.162 -0.422,0.408 -0.508,0.752 -0.024,0.1 -0.288,0.366 -0.416,0.34 -0.299,-0.064 0.083,-0.613 0.15,-0.696 0.077,-0.093 0.177,-0.174 0.266,-0.28 0.086,-0.104 0.143,-0.244 0.226,-0.301 0.09,-0.063 0.35,-0.138 0.508,-0.132 z m 2.23,0.675 c 0.096,0.002 0.182,0.017 0.221,0.056 -0.061,0.248 -0.597,0.182 -0.793,0.093 0.011,-0.094 0.159,-0.12 0.282,-0.132 0.087,-0.003 0.195,-0.02 0.29,-0.017 m -1.22,0.458 a 0.7,0.7 0 0 1 0.195,0.03 c -0.173,0.144 -0.36,0.226 -0.658,0.32 -0.144,0.045 -0.391,0.1 -0.415,-0.059 -0.03,-0.195 0.21,-0.15 0.34,-0.167 0.165,-0.023 0.345,-0.119 0.538,-0.125 z m 18.717,1.113 a 0.4,0.4 0 0 0 -0.036,0.157 c 0.012,0.09 0.112,0.178 0.134,0.3 0.011,0.066 -0.03,0.206 0,0.265 0.09,0.176 0.328,0.05 0.498,0.06 a 14,14 0 0 0 -0.596,-0.782 m 0.963,1.292 a 1.4,1.4 0 0 1 -0.186,0.406 c -0.165,0.249 -0.388,0.26 -0.623,0.393 -0.197,0.111 -0.281,0.297 -0.396,0.49 -0.125,0.208 -0.203,0.334 -0.151,0.636 -0.169,0.333 -0.423,0.537 -0.772,0.696 -0.103,0.046 -0.244,0.063 -0.339,0.131 -0.075,0.054 -0.118,0.2 -0.225,0.32 -0.132,0.146 -0.271,0.208 -0.34,0.32 -0.054,0.086 -0.073,0.258 -0.133,0.374 -0.08,0.158 -0.251,0.235 -0.357,0.395 -0.048,0.074 -0.08,0.224 -0.133,0.32 -0.12,0.217 -0.324,0.373 -0.302,0.563 0.022,0.184 0.231,0.216 0.246,0.376 0.003,0.09 -0.06,0.146 -0.057,0.245 0.003,0.144 0.1,0.245 0.112,0.356 0.028,0.279 -0.095,0.39 -0.148,0.581 -0.025,0.091 -0.013,0.194 -0.038,0.265 -0.047,0.14 -0.241,0.265 -0.245,0.43 -0.002,0.118 0.12,0.212 0.13,0.377 0.003,0.113 -0.056,0.234 -0.035,0.339 0.04,0.204 0.406,0.442 0.565,0.6 0.213,0.213 0.493,0.377 0.584,0.601 0.078,0.19 0.077,0.438 0.226,0.581 0.11,0.106 0.292,0.172 0.433,0.282 0.132,0.103 0.275,0.191 0.415,0.3 0.23,0.18 0.576,0.536 0.942,0.508 0.19,-0.013 0.386,-0.169 0.602,-0.207 0.223,-0.04 0.512,-0.06 0.737,-0.037 0.172,0.017 0.349,0.12 0.528,0.112 0.189,-0.012 0.405,-0.152 0.62,-0.245 0.173,-0.075 0.384,-0.158 0.617,-0.219 q 0.162,-1.073 0.164,-2.192 c 0,-3 -0.9,-5.78 -2.44,-8.097 z m -24.309,4.922 c -0.313,0.018 -0.518,0.032 -0.696,0.112 -0.408,0.185 -0.329,0.734 -0.736,0.864 -0.141,0.045 -0.334,0.047 -0.49,0.075 -0.134,0.025 -0.297,0.097 -0.434,0.095 -0.039,0 -0.093,-0.03 -0.141,-0.044 a 17,17 0 0 0 -0.09,0.78 c 0.388,0.073 0.588,0.586 0.93,0.755 0.095,0.047 0.217,0.05 0.338,0.076 0.097,0.022 0.172,0.062 0.265,0.094 0.2,0.067 0.444,0.06 0.603,0.13 0.24,0.107 0.417,0.557 0.623,0.677 0.012,0.122 -0.024,0.285 0.02,0.375 0.096,0.132 0.235,0.103 0.395,0.189 0.193,0.103 0.252,0.37 0.434,0.452 0.063,0.028 0.22,0.024 0.32,0.055 0.25,0.075 0.331,0.363 0.545,0.3 0.14,-0.04 0.13,-0.185 0.152,-0.319 0.093,-0.1 0.195,-0.259 0.34,-0.262 0.233,-0.011 0.254,0.241 0.34,0.468 0.048,0.128 0.173,0.24 0.206,0.375 0.059,0.233 0.03,0.932 -0.02,1.071 -0.06,0.172 -0.292,0.244 -0.435,0.434 -0.068,0.09 -0.1,0.22 -0.151,0.282 -0.092,0.112 -0.23,0.141 -0.299,0.244 -0.038,0.059 -0.076,0.184 -0.114,0.262 -0.114,0.24 -0.265,0.409 -0.17,0.696 0.04,0.118 0.225,0.197 0.226,0.336 0,0.163 -0.35,0.31 -0.376,0.489 -0.02,0.133 0.108,0.372 0.15,0.545 0.031,0.131 0.28,0.213 0.358,0.3 0.132,0.149 0.238,0.358 0.358,0.544 0.24,0.366 0.427,0.812 0.66,1.166 0.122,0.186 0.295,0.353 0.377,0.545 0.041,0.097 0.036,0.213 0.074,0.3 0.134,0.304 0.73,0.62 1.036,0.77 0.144,0.07 0.303,0.095 0.435,0.168 0.2,0.11 0.595,0.409 0.696,0.583 0.09,0.157 0.146,0.54 0.19,0.789 0.058,0.33 0,0.583 0.019,0.94 0.011,0.193 0.073,0.387 0.076,0.58 0,0.068 -0.036,0.119 -0.039,0.188 0,0.01 0.004,0.024 0.004,0.035 a 14.7,14.7 0 0 0 6.073,1.31 c 0.392,0 0.78,-0.02 1.164,-0.05 q 0.023,-0.044 0.053,-0.086 a 3,3 0 0 0 0.226,-0.319 c 0.056,-0.343 -0.137,-0.582 -0.056,-0.882 0.09,-0.338 0.557,-0.543 0.885,-0.696 0.113,-0.052 0.228,-0.137 0.32,-0.168 0.227,-0.08 0.51,-0.036 0.718,-0.112 0.353,-0.129 0.39,-0.506 0.564,-0.827 0.082,-0.152 0.19,-0.304 0.207,-0.412 0.014,-0.097 -0.036,-0.189 -0.02,-0.303 0.016,-0.114 0.118,-0.212 0.15,-0.336 0.041,-0.163 0.059,-0.402 0.059,-0.583 0,-0.149 -0.07,-0.279 -0.075,-0.413 -0.025,-0.487 0.176,-0.542 0.357,-0.807 0.091,-0.132 0.125,-0.282 0.188,-0.376 0.304,-0.452 0.83,-0.67 0.792,-1.352 -0.011,-0.226 -0.154,-0.737 -0.321,-0.809 -0.095,-0.04 -0.314,-0.003 -0.452,-0.056 -0.446,-0.165 -0.707,-0.716 -1.168,-0.75 -0.099,-0.012 -0.19,0.04 -0.3,0.037 -0.183,-0.011 -0.458,-0.127 -0.66,-0.15 -0.13,-0.013 -0.301,0.038 -0.378,0 -0.118,-0.057 -0.13,-0.273 -0.225,-0.338 -0.076,-0.052 -0.224,-0.07 -0.34,-0.114 -0.185,-0.07 -0.332,-0.154 -0.546,-0.169 -0.066,-0.003 -0.148,0.032 -0.225,0.02 -0.119,-0.02 -0.213,-0.159 -0.322,-0.225 -0.137,-0.084 -0.263,-0.124 -0.32,-0.242 0.124,-0.405 -0.218,-0.517 -0.301,-0.751 -0.04,-0.11 -0.022,-0.242 -0.057,-0.34 -0.05,-0.14 -0.188,-0.22 -0.34,-0.337 -0.273,-0.21 -0.514,-0.406 -0.904,-0.453 -0.171,-0.022 -0.341,0.051 -0.548,0.038 -0.22,-0.013 -0.495,-0.205 -0.66,-0.392 -0.159,-0.183 -0.236,-0.347 -0.375,-0.434 -0.132,-0.084 -0.307,-0.082 -0.396,-0.167 -0.04,-0.037 -0.033,-0.1 -0.076,-0.189 -0.066,-0.137 -0.178,-0.213 -0.095,-0.376 -0.15,-0.077 -0.154,0.143 -0.319,0.114 -0.146,-0.207 -0.27,-0.305 -0.602,-0.244 -0.153,0.028 -0.238,0.22 -0.415,0.224 -0.146,0.012 -0.26,-0.161 -0.452,-0.189 -0.145,-0.02 -0.31,0.04 -0.414,0.02 -0.16,-0.032 -0.21,-0.165 -0.357,-0.262 -0.108,-0.07 -0.317,-0.19 -0.378,-0.188 -0.189,0.011 -0.324,0.4 -0.585,0.263 -0.127,-0.16 0.207,-0.245 0.056,-0.395 -0.114,-0.114 -0.21,0.052 -0.301,0.114 -0.105,0.072 -0.203,0.144 -0.319,0.186 -0.259,0.097 -0.42,0.047 -0.623,0.15 -0.187,0.097 -0.195,0.26 -0.301,0.451 -0.087,0.158 -0.285,0.387 -0.415,0.397 -0.158,0.011 -0.309,-0.22 -0.452,-0.282 -0.432,-0.187 -0.64,0.165 -1,0.17 -0.332,0.012 -0.807,-0.535 -0.79,-0.847 0.003,-0.19 0.11,-0.479 0.132,-0.714 0.02,-0.187 0.149,-0.3 0.15,-0.47 0.004,-0.229 -0.303,-0.404 -0.451,-0.431 -0.352,-0.065 -0.841,0.141 -1.245,-0.02 -0.077,-0.128 0.09,-0.216 0.134,-0.34 0.024,-0.07 0.01,-0.164 0.036,-0.241 0.044,-0.12 0.17,-0.213 0.226,-0.34 0.042,-0.096 0.053,-0.236 0.095,-0.356 0.05,-0.136 0.14,-0.224 0.15,-0.32 a 0.42,0.42 0 0 0 -0.133,-0.356 z m 5.038,3.976 c 0.128,0.012 0.144,0.275 0.013,0.296 -0.14,0.023 -0.213,-0.22 -0.076,-0.283 a 0.1,0.1 0 0 1 0.063,-0.01 z"
       id="path9"
       style="fill:url(#linearGradient17)" />
  </g>
  <g
     id="g2">
    <path
       d="m 47,31 c 0,-1.105 0.895,-2 2,-2 h 4 c 1.105,0 2,0.895 2,2 0,1.105 -0.895,2 -2,2 h -4 c -1.105,0 -2,-0.895 -2,-2 z"
       id="path182"
       style="fill:url(#paint184_linear_890_11)" />
    <path
       d="m 7,31 c 0,-1.105 0.895,-2 2,-2 h 4 c 1.105,0 2,0.895 2,2 0,1.105 -0.895,2 -2,2 H 9 C 7.895,33 7,32.105 7,31 Z"
       id="path183"
       style="fill:url(#paint185_linear_890_11)" />
    <path
       d="m 31,15 c -1.105,0 -2,-0.895 -2,-2 V 9 c 0,-1.105 0.895,-2 2,-2 1.105,0 2,0.895 2,2 v 4 c 0,1.105 -0.895,2 -2,2 z"
       id="path184"
       style="fill:url(#paint186_linear_890_11)" />
    <path
       d="m 31,55 c -1.105,0 -2,-0.895 -2,-2 v -4 c 0,-1.105 0.895,-2 2,-2 1.105,0 2,0.895 2,2 v 4 c 0,1.105 -0.895,2 -2,2 z"
       id="path185"
       style="fill:url(#paint187_linear_890_11)" />
    <path
       d="M 29,17.118 C 29,15.948 29.895,15 31,15 c 1.105,0 2,0.948 2,2.118 V 30.882 C 33,32.052 32.105,33 31,33 29.895,33 29,32.052 29,30.882 Z"
       id="path186"
       style="fill:url(#linearGradient8);fill-opacity:1" />
    <path
       d="m 29.63,29.63 c -0.84,0.841 -0.84,2.203 0,3.044 L 43.326,46.37 c 0.841,0.84 2.203,0.84 3.044,0 0.84,-0.841 0.84,-2.203 0,-3.044 L 32.674,29.63 c -0.841,-0.84 -2.203,-0.84 -3.044,0 z"
       id="path187"
       style="fill:url(#linearGradient13)" />
    <path
       d="m 13.138,20.522 c 0.284,-0.499 0.914,-0.67 1.406,-0.382 l 16.941,9.913 c 0.492,0.288 0.661,0.926 0.377,1.425 -0.284,0.499 -0.914,0.67 -1.406,0.382 L 13.515,21.947 c -0.492,-0.288 -0.661,-0.926 -0.377,-1.425 z"
       id="path188"
       style="fill:#ff5555;fill-opacity:1" />
    <path
       d="m 34,31 c 0,1.657 -1.343,3 -3,3 -1.657,0 -3,-1.343 -3,-3 0,-1.657 1.343,-3 3,-3 1.657,0 3,1.343 3,3 z"
       id="path189"
       style="fill:#ffffff;fill-opacity:1" />
    <path
       d="m 32,31 c 0,0.552 -0.448,1 -1,1 -0.552,0 -1,-0.448 -1,-1 0,-0.552 0.448,-1 1,-1 0.552,0 1,0.448 1,1 z"
       id="path190"
       style="fill:#ff5555;fill-opacity:1" />
  </g>
</svg>
