<?xml version="1.0" encoding="UTF-8" standalone="no"?>
<svg
   height="62"
   width="62"
   version="1.1"
   id="svg21"
   sodipodi:docname="preferences-security-apparmor.svg"
   inkscape:version="1.4 (e7c3feb100, 2024-10-09)"
   xmlns:inkscape="http://www.inkscape.org/namespaces/inkscape"
   xmlns:sodipodi="http://sodipodi.sourceforge.net/DTD/sodipodi-0.dtd"
   xmlns:xlink="http://www.w3.org/1999/xlink"
   xmlns="http://www.w3.org/2000/svg"
   xmlns:svg="http://www.w3.org/2000/svg">
  <defs
     id="defs21" />
  <sodipodi:namedview
     id="namedview21"
     pagecolor="#ffffff"
     bordercolor="#000000"
     borderopacity="0.25"
     inkscape:showpageshadow="2"
     inkscape:pageopacity="0.0"
     inkscape:pagecheckerboard="0"
     inkscape:deskcolor="#d1d1d1"
     inkscape:zoom="11.78125"
     inkscape:cx="28.222812"
     inkscape:cy="32.424403"
     inkscape:window-width="1920"
     inkscape:window-height="994"
     inkscape:window-x="0"
     inkscape:window-y="0"
     inkscape:window-maximized="1"
     inkscape:current-layer="svg21" />
  <linearGradient
     id="m"
     gradientUnits="userSpaceOnUse"
     x1="20.308001"
     x2="24.077"
     xlink:href="#a"
     y1="19.231001"
     y2="23" />
  <linearGradient
     id="j"
     gradientUnits="userSpaceOnUse"
     x1="32"
     x2="32"
     xlink:href="#b"
     y1="54"
     y2="9"
     gradientTransform="matrix(0.53846,0,0,0.53846,-1.23,-1.23)" />
  <linearGradient
     id="k"
     gradientUnits="userSpaceOnUse"
     x1="32"
     x2="32"
     xlink:href="#c"
     y1="54"
     y2="9"
     gradientTransform="matrix(0.53846,0,0,0.53846,-1.23,-1.23)" />
  <linearGradient
     id="l"
     gradientUnits="userSpaceOnUse"
     x1="37"
     x2="37"
     y1="46"
     y2="38"
     gradientTransform="matrix(0.53846,0,0,0.53846,-1.23,-1.23)">
    <stop
       offset="0"
       stop-color="#be4434"
       id="stop1" />
    <stop
       offset=".25"
       stop-color="#c44837"
       id="stop2" />
    <stop
       offset="1"
       stop-color="#cb4c3b"
       id="stop3" />
  </linearGradient>
  <linearGradient
     id="i"
     gradientUnits="userSpaceOnUse"
     x1="12.769"
     x2="25.691999"
     xlink:href="#a"
     y1="7.3850002"
     y2="20.308001" />
  <linearGradient
     id="h"
     gradientUnits="userSpaceOnUse"
     x1="9.5380001"
     x2="23"
     xlink:href="#a"
     y1="10.615"
     y2="24.077" />
  <linearGradient
     id="g"
     gradientUnits="userSpaceOnUse"
     x1="28.385"
     x2="28.385"
     xlink:href="#b"
     y1="27.846001"
     y2="3.615" />
  <linearGradient
     id="f"
     gradientUnits="userSpaceOnUse"
     x1="28.385"
     x2="28.385"
     xlink:href="#c"
     y1="27.846001"
     y2="3.615" />
  <linearGradient
     id="e"
     gradientUnits="userSpaceOnUse"
     x1="21.923"
     x2="23.538"
     xlink:href="#a"
     y1="22.462"
     y2="24.077" />
  <linearGradient
     id="d"
     gradientUnits="userSpaceOnUse"
     x1="16"
     x2="16"
     y1="30"
     y2="2">
    <stop
       offset="0"
       stop-color="#173f4f"
       id="stop4" />
    <stop
       offset="1"
       stop-color="#2f5361"
       id="stop5" />
  </linearGradient>
  <linearGradient
     id="c">
    <stop
       offset="0"
       stop-color="#bf4231"
       id="stop6" />
    <stop
       offset="1"
       stop-color="#e05e4c"
       id="stop7" />
  </linearGradient>
  <linearGradient
     id="b">
    <stop
       offset="0"
       stop-color="#eff0f1"
       id="stop8" />
    <stop
       offset="1"
       stop-color="#fcfcfc"
       id="stop9" />
  </linearGradient>
  <linearGradient
     id="a">
    <stop
       offset="0"
       stop-color="#292c2f"
       id="stop10" />
    <stop
       offset="1"
       stop-opacity="0"
       id="stop11" />
  </linearGradient>
  <g
     id="g21"
     transform="matrix(2,0,0,2,-1.4414032,-1)">
    <path
       d="M 16,2 C 12.59,3.806 9.18,4.544 5.77,5.23 V 18.693 C 5.77,22.463 11.296,27.611 16,30 20.704,27.611 26.23,22.463 26.23,18.693 V 5.231 C 22.82,4.544 19.41,3.806 16,2 Z"
       id="path11"
       style="fill:#424c57;fill-opacity:1" />
    <path
       d="m 24.615,6.308 -14.164,17.395 6.036,6.035 c 4.59,-2.485 9.744,-7.404 9.744,-11.045 V 7.923 Z"
       fill="url(#e)"
       opacity="0.2"
       id="path12"
       style="fill:url(#e);stroke-width:0.538" />
    <path
       d="m 20.752,5.419 -9.487,18.974 c 1.473,1.373 3.127,2.636 4.735,3.453 3.98,-2.021 8.615,-6.503 8.615,-9.692 V 6.308 A 61.098,61.098 0 0 1 20.752,5.419 Z"
       id="path13"
       style="fill:#bf4231;fill-opacity:1" />
    <path
       d="M 16,3.615 C 13.114,5.144 10.27,5.727 7.385,6.308 v 11.846 c 0,1.9 1.707,4.215 3.88,6.24 L 20.752,5.419 C 19.172,4.993 17.592,4.459 16,3.615 Z"
       id="path14"
       style="fill:#f7f7f7;fill-opacity:1" />
    <path
       d="m 11.69304,6.30844 8.61536,17.23072 4.30768,-8.61536 h -2.15384 l -0.53846,1.07692 H 18.69302 L 13.84688,6.30844 Z m 7.53844,10.7692 h 2.15384 l -1.07692,2.15384 z"
       id="path17"
       style="fill:#f2f2f2;fill-opacity:1" />
    <path
       d="M 11.69304,6.30844 7.38536,14.9238 H 9.5392 l 0.53846,-1.07692 h 3.23076 l 4.57691,9.15382 h 2.15384 z m 0,4.30768 1.07692,2.15384 h -2.15384 z"
       id="path18"
       style="fill:#bf4231;fill-opacity:1" />
    <path
       d="m 16.00072,19.23148 2.15384,4.30768 h 2.15384 l -2.15384,-4.30768 z"
       fill="url(#l)"
       id="path19"
       style="fill:url(#l);stroke-width:0.99992" />
    <path
       d="m 24.615,14.923 -4.307,8.615 1.947,1.948 c 2.161,-2.093 3.78,-4.428 3.959,-6.428 a 4.38,4.38 0 0 0 0.017,-0.365 v -2.155 z"
       fill="url(#m)"
       opacity="0.2"
       id="path20"
       style="fill:url(#m)" />
    <path
       d="m 5.77,17.693 v 1 c 0,3.77 5.526,8.918 10.23,11.307 4.704,-2.389 10.23,-7.537 10.23,-11.307 v -1 C 26.23,21.463 20.704,26.611 16,29 11.296,26.611 5.77,21.463 5.77,17.693 Z"
       id="path21"
       style="fill:#232629;fill-opacity:1"
       opacity="0.2" />
  </g>
</svg>
