<?xml version="1.0" encoding="UTF-8" standalone="no"?>
<svg
   clip-rule="evenodd"
   fill-rule="evenodd"
   stroke-linejoin="round"
   stroke-miterlimit="2"
   viewBox="0 0 62 62"
   version="1.1"
   id="svg10"
   sodipodi:docname="preferences-security-firewall.svg"
   width="62"
   height="62"
   inkscape:version="1.4 (e7c3feb100, 2024-10-09)"
   xmlns:inkscape="http://www.inkscape.org/namespaces/inkscape"
   xmlns:sodipodi="http://sodipodi.sourceforge.net/DTD/sodipodi-0.dtd"
   xmlns:xlink="http://www.w3.org/1999/xlink"
   xmlns="http://www.w3.org/2000/svg"
   xmlns:svg="http://www.w3.org/2000/svg">
  <defs
     id="defs10">
    <linearGradient
       id="linearGradient10"
       inkscape:collect="always">
      <stop
         style="stop-color:#6c7884;stop-opacity:1;"
         offset="0"
         id="stop10" />
      <stop
         style="stop-color:#515862;stop-opacity:1;"
         offset="1"
         id="stop11" />
    </linearGradient>
    <linearGradient
       inkscape:collect="always"
       xlink:href="#linearGradient10"
       id="linearGradient11"
       x1="31"
       y1="59"
       x2="31"
       y2="3"
       gradientUnits="userSpaceOnUse" />
  </defs>
  <sodipodi:namedview
     id="namedview10"
     pagecolor="#ffffff"
     bordercolor="#000000"
     borderopacity="0.25"
     inkscape:showpageshadow="2"
     inkscape:pageopacity="0.0"
     inkscape:pagecheckerboard="0"
     inkscape:deskcolor="#d1d1d1"
     inkscape:zoom="7.8541667"
     inkscape:cx="7.9575596"
     inkscape:cy="21.899204"
     inkscape:window-width="1920"
     inkscape:window-height="994"
     inkscape:window-x="0"
     inkscape:window-y="0"
     inkscape:window-maximized="1"
     inkscape:current-layer="svg10" />
  <linearGradient
     id="a"
     x2="1"
     gradientTransform="matrix(0,-46.799983,46.799983,0,632.48571,54.413883)"
     gradientUnits="userSpaceOnUse">
    <stop
       stop-color="#566069"
       offset="0"
       id="stop1" />
    <stop
       stop-color="#6c7884"
       offset="1"
       id="stop2" />
  </linearGradient>
  <path
     d="M 50.952003,3 C 55.394683,3 59,6.6053166 59,11.047997 V 50.952003 C 59,55.394683 55.394683,59 50.952003,59 H 11.047997 C 6.6053166,59 3,55.394683 3,50.952003 V 11.047997 C 3,6.6053166 6.6053166,3 11.047997,3 Z"
     id="path2"
     style="fill:url(#linearGradient11);fill-opacity:0.5" />
  <path
     d="M 3,12.376408 V 11.047997 C 3,6.6053166 6.6053166,3 11.047997,3 H 50.952003 C 55.394683,3 59,6.6053166 59,11.047997 v 1.328411 z"
     fill-opacity="0.1"
     id="path3"
     style="stroke-width:1.29223;fill:#e5e5e5;fill-opacity:0.1" />
  <g
     id="g1"
     transform="translate(0.12732095)">
    <path
       d="m 13.159476,12.376408 c -1.353365,0 -2.443296,1.086014 -2.443296,2.434512 v 7.301546 c 0,1.348498 1.089931,2.434508 2.443296,2.434508 h 14.453016 c 1.353366,0 2.443297,-1.08601 2.443297,-2.434508 V 14.81092 c 0,-1.348498 -1.089931,-2.434512 -2.443297,-2.434512 z m 21.375356,0 c -1.353365,0 -2.443295,1.086014 -2.443295,2.434512 v 7.301546 c 0,1.348498 1.08993,2.434508 2.443295,2.434508 h 14.452994 c 1.353362,0 2.443294,-1.08601 2.443294,-2.434508 V 14.81092 c 0,-1.348498 -1.089932,-2.434512 -2.443294,-2.434512 z M 22.320343,26.575403 c -1.353365,0 -2.443296,1.086009 -2.443296,2.434508 v 7.301543 c 0,1.348498 1.089931,2.434507 2.443296,2.434507 h 14.452993 c 1.353366,0 2.443306,-1.086009 2.443306,-2.434507 v -7.301543 c 0,-1.348499 -1.08994,-2.434508 -2.443306,-2.434508 z m 21.375335,0 c -1.353362,0 -2.443295,1.086009 -2.443295,2.434508 v 7.301543 c 0,1.348498 1.089933,2.434507 2.443295,2.434507 H 51.43112 V 26.575403 Z M 13.159476,40.774392 c -1.353365,0 -2.443296,1.08601 -2.443296,2.434508 v 7.301545 c 0,1.348494 1.089931,2.434507 2.443296,2.434507 h 14.453016 c 1.353366,0 2.443297,-1.086013 2.443297,-2.434507 V 43.2089 c 0,-1.348498 -1.089931,-2.434508 -2.443297,-2.434508 z m 21.375356,0 c -1.353365,0 -2.443295,1.08601 -2.443295,2.434508 v 7.301545 c 0,1.348494 1.08993,2.434507 2.443295,2.434507 h 14.452994 c 1.353362,0 2.443294,-1.086013 2.443294,-2.434507 V 43.2089 c 0,-1.348498 -1.089932,-2.434508 -2.443294,-2.434508 z"
       id="path2-6"
       style="fill:#c83771;fill-opacity:1;stroke-width:0.999999" />
    <path
       d="m 28.020041,12.418007 v 8.072113 c 0,1.123747 -0.907944,2.028428 -2.035749,2.028428 H 10.757929 c 0.194083,1.152608 1.188042,2.028426 2.401547,2.028426 h 14.453016 c 1.353366,0 2.443297,-1.08601 2.443297,-2.434508 V 14.81092 c 0,-1.209141 -0.878981,-2.19953 -2.035748,-2.392913 z m 21.375331,0 v 8.072113 c 0,1.123747 -0.907937,2.028428 -2.035741,2.028428 H 32.133286 c 0.194082,1.152608 1.188043,2.028426 2.401546,2.028426 h 14.452994 c 1.353362,0 2.443294,-1.08601 2.443294,-2.434508 V 14.81092 c 0,-1.209141 -0.878974,-2.19953 -2.035748,-2.392913 z M 37.180887,26.617002 v 8.072112 c 0,1.123748 -0.907934,2.028424 -2.035733,2.028424 H 19.918797 c 0.194079,1.152612 1.188042,2.028423 2.401546,2.028423 h 14.452993 c 1.353366,0 2.443306,-1.086009 2.443306,-2.434507 v -7.301543 c 0,-1.209142 -0.878982,-2.19953 -2.035755,-2.392909 z m 4.113245,10.100536 c 0.194078,1.152612 1.188045,2.028423 2.401546,2.028423 H 51.43112 V 36.717538 Z M 28.020041,40.81599 v 8.072108 c 0,1.123748 -0.907944,2.028431 -2.035749,2.028431 H 10.757929 c 0.194083,1.152608 1.188042,2.028423 2.401547,2.028423 h 14.453016 c 1.353366,0 2.443297,-1.086013 2.443297,-2.434507 V 43.2089 c 0,-1.209139 -0.878981,-2.199527 -2.035748,-2.39291 z m 21.375331,0 v 8.072108 c 0,1.123748 -0.907937,2.028431 -2.035741,2.028431 H 32.133286 c 0.194082,1.152608 1.188043,2.028423 2.401546,2.028423 h 14.452994 c 1.353362,0 2.443294,-1.086013 2.443294,-2.434507 V 43.2089 c 0,-1.209139 -0.878974,-2.199527 -2.035748,-2.39291 z"
       fill="#101010"
       opacity="0.23"
       id="path3-7"
       style="opacity:0.439825;fill:#a5a5a5;fill-opacity:1;stroke-width:0.999999" />
    <path
       fill="#ffd33f"
       d="m 39.819337,28.563633 c -0.10337,4.303046 -1.468199,8.073662 -4.0944,11.310215 -0.103408,-1.274181 -0.498765,-2.548366 -1.190245,-3.82254 -0.06861,0.96428 -0.459071,2.247524 -1.166287,3.848921 -0.708873,1.599727 -1.149746,2.760155 -1.321793,3.482994 -0.380498,1.823894 -0.164588,3.425257 0.64766,4.802502 0.811442,1.376372 2.409477,2.736273 4.793357,4.079642 3.606373,1.399464 4.998475,1.467065 7.982038,0 1.69318,-0.964245 3.040589,-2.02331 4.0423,-3.177193 1.002497,-1.153009 1.640213,-2.271458 1.916511,-3.356039 0.276624,-1.083787 0.353122,-2.203056 0.232252,-3.356058 -0.120718,-1.153852 -0.395289,-2.194798 -0.827074,-3.124494 A 19.596944,19.526469 0 0 0 49.355619,36.61834 c -0.553349,-0.825825 -1.052126,-1.479398 -1.501312,-1.961545 -0.449132,-0.482146 -0.812262,-0.825827 -1.089335,-1.032697 0.242343,0.654399 0.327458,1.359897 0.258973,2.118142 -0.06973,0.756592 -0.239886,1.445603 -0.516967,2.065389 -0.10348,-1.032695 -0.407872,-2.066211 -0.909113,-3.098909 -0.500455,-1.0327 -1.035598,-1.885726 -1.605547,-2.557432 a 16.133646,16.075627 0 0 0 -1.968601,-1.935173 c -0.742795,-0.619784 -1.253976,-1.023632 -1.530214,-1.212368 a 13.772121,13.722594 0 0 0 -0.674166,-0.440114 z"
       overflow="visible"
       style="color:#000000;isolation:auto;mix-blend-mode:normal;stroke-width:0.555598"
       id="path6" />
    <path
       fill="#fff3cb"
       d="m 45.469667,52.265363 c 1.139808,-2.272249 1.364792,-4.724992 0.67327,-7.358235 -0.690674,-2.634111 -2.055481,-4.656639 -4.094389,-6.067631 0.173594,0.757425 0.0779,2.005221 -0.28456,3.743441 -0.362835,1.739029 -0.941318,3.055208 -1.737003,3.950298 0.138822,-1.101105 0.173593,-1.996195 0.104503,-2.685173 -0.06875,-0.688191 -0.173102,-1.204127 -0.311168,-1.549482 l -0.258936,-0.463997 c -0.206626,1.239545 -0.742813,2.478285 -1.606322,3.717846 -0.449166,0.654429 -0.78579,1.256889 -1.010778,1.807438 -0.223937,0.550538 -0.311093,1.25607 -0.258897,2.117299 0.05133,0.860478 0.319143,1.790159 0.802329,2.788196 0,0 1.366466,1.111041 2.889264,1.111041 3.690732,0 3.858668,-0.408778 5.092801,-1.111041 z"
       overflow="visible"
       style="color:#000000;isolation:auto;mix-blend-mode:normal;stroke-width:0.555598"
       id="path8" />
  </g>
</svg>
