<?xml version="1.0" encoding="UTF-8" standalone="no"?>
<svg
   width="62"
   height="62"
   version="1"
   id="svg7"
   sodipodi:docname="preferences-security-kerberos.svg"
   inkscape:version="1.4 (e7c3feb100, 2024-10-09)"
   xmlns:inkscape="http://www.inkscape.org/namespaces/inkscape"
   xmlns:sodipodi="http://sodipodi.sourceforge.net/DTD/sodipodi-0.dtd"
   xmlns:xlink="http://www.w3.org/1999/xlink"
   xmlns="http://www.w3.org/2000/svg"
   xmlns:svg="http://www.w3.org/2000/svg">
  <defs
     id="defs7">
    <linearGradient
       id="c-3"
       gradientUnits="userSpaceOnUse"
       x1="24.072048"
       x2="23.959682"
       y1="0.75082099"
       y2="46.056854">
      <stop
         offset="0"
         stop-color="#fff"
         id="stop3" />
      <stop
         offset="1"
         stop-color="#d9d9d9"
         id="stop4" />
    </linearGradient>
    <linearGradient
       id="b-6"
       gradientUnits="userSpaceOnUse"
       x1="29.203026"
       x2="34.121048"
       xlink:href="#a-7"
       y1="24.827356"
       y2="29.224836" />
    <linearGradient
       id="a-7">
      <stop
         offset="0"
         id="stop1" />
      <stop
         offset="1"
         stop-opacity="0"
         id="stop2" />
    </linearGradient>
    <linearGradient
       id="d"
       gradientUnits="userSpaceOnUse"
       x1="15.948756"
       x2="25.031786"
       xlink:href="#a-7"
       y1="23.618279"
       y2="33.69899" />
    <linearGradient
       id="e"
       gradientUnits="userSpaceOnUse"
       x1="21.990562"
       x2="29.320522"
       xlink:href="#a-7"
       y1="33.780373"
       y2="41.931858" />
    <linearGradient
       id="paint154_linear_890_11"
       x1="778"
       y1="812.29199"
       x2="788"
       y2="812.29199"
       gradientUnits="userSpaceOnUse"
       gradientTransform="translate(-751,-696)">
      <stop
         stop-color="#EFF2F6"
         id="stop1050" />
      <stop
         offset="0.600785"
         stop-color="#B7C6CD"
         id="stop1051" />
    </linearGradient>
    <linearGradient
       id="paint155_linear_890_11"
       x1="783"
       y1="813"
       x2="783"
       y2="817"
       gradientUnits="userSpaceOnUse"
       gradientTransform="translate(-751,-696)">
      <stop
         stop-color="#EFF2F6"
         id="stop1052" />
      <stop
         offset="0.734138"
         stop-color="#B7C6CD"
         id="stop1053" />
    </linearGradient>
    <radialGradient
       id="paint156_radial_890_11"
       cx="0"
       cy="0"
       r="1"
       gradientUnits="userSpaceOnUse"
       gradientTransform="matrix(27.999986,27.999976,-27.999986,27.999976,32.302392,33.999998)">
      <stop
         offset="0.60067803"
         stop-color="#B7C6CD"
         id="stop1054"
         style="stop-color:#384850;stop-opacity:1;" />
      <stop
         offset="0.876735"
         stop-color="#EFF2F6"
         id="stop1055" />
    </radialGradient>
    <linearGradient
       id="paint157_linear_890_11"
       x1="796.84485"
       y1="799.43359"
       x2="768.90088"
       y2="770.81476"
       gradientUnits="userSpaceOnUse"
       gradientTransform="matrix(1.1666666,0,0,1.1666668,-881.19764,-881.8333)">
      <stop
         offset="0.00000057"
         stop-color="#2E2E41"
         id="stop1056"
         style="stop-color:#424b58;stop-opacity:1;" />
      <stop
         offset="0.71113902"
         stop-color="#566C80"
         id="stop1057"
         style="stop-color:#303c47;stop-opacity:1;" />
    </linearGradient>
    <linearGradient
       id="paint158_linear_890_11"
       x1="792"
       y1="794"
       x2="774"
       y2="776"
       gradientUnits="userSpaceOnUse"
       gradientTransform="translate(-751,-696)">
      <stop
         offset="0.304478"
         stop-color="#2E2E41"
         id="stop1058" />
      <stop
         offset="1"
         stop-color="#566C80"
         id="stop1059" />
    </linearGradient>
    <linearGradient
       id="paint159_linear_890_11"
       x1="788"
       y1="790"
       x2="778"
       y2="780"
       gradientUnits="userSpaceOnUse"
       gradientTransform="translate(-751,-696)">
      <stop
         offset="0.391394"
         stop-color="#5200FF"
         id="stop1060" />
      <stop
         offset="1"
         stop-color="#0085FF"
         id="stop1061" />
    </linearGradient>
    <linearGradient
       id="paint160_linear_890_11"
       x1="784"
       y1="798"
       x2="782"
       y2="796"
       gradientUnits="userSpaceOnUse"
       gradientTransform="translate(-751,-696)">
      <stop
         stop-color="#FF7E07"
         id="stop1062" />
      <stop
         offset="1"
         stop-color="#FFE607"
         id="stop1063" />
    </linearGradient>
    <linearGradient
       id="c-3-6"
       gradientUnits="userSpaceOnUse"
       x1="24.072048"
       x2="23.959682"
       y1="0.75082099"
       y2="46.056854"
       gradientTransform="matrix(0.91471346,0,0,0.90068147,9.0468769,9.3836444)">
      <stop
         offset="0"
         stop-color="#fff"
         id="stop3-2" />
      <stop
         offset="1"
         stop-color="#d9d9d9"
         id="stop4-9" />
    </linearGradient>
    <linearGradient
       id="b-6-1"
       gradientUnits="userSpaceOnUse"
       x1="29.203026"
       x2="34.121048"
       xlink:href="#a-7"
       y1="24.827356"
       y2="29.224836"
       gradientTransform="matrix(1.1104534,0,0,1.0934187,4.3491158,4.7861435)" />
    <linearGradient
       id="d-0"
       gradientUnits="userSpaceOnUse"
       x1="15.948756"
       x2="25.031786"
       xlink:href="#a-7"
       y1="23.618279"
       y2="33.69899"
       gradientTransform="matrix(1.1104534,0,0,1.0934187,4.3491158,4.7861435)" />
    <linearGradient
       id="e-9"
       gradientUnits="userSpaceOnUse"
       x1="21.990562"
       x2="29.320522"
       xlink:href="#a-7"
       y1="33.780373"
       y2="41.931858"
       gradientTransform="matrix(1.1104534,0,0,1.0934187,4.3491158,4.7861435)" />
  </defs>
  <sodipodi:namedview
     id="namedview7"
     pagecolor="#ffffff"
     bordercolor="#000000"
     borderopacity="0.25"
     inkscape:showpageshadow="2"
     inkscape:pageopacity="0.0"
     inkscape:pagecheckerboard="0"
     inkscape:deskcolor="#d1d1d1"
     inkscape:zoom="8.330602"
     inkscape:cx="35.471626"
     inkscape:cy="23.047554"
     inkscape:window-width="1920"
     inkscape:window-height="994"
     inkscape:window-x="0"
     inkscape:window-y="0"
     inkscape:window-maximized="1"
     inkscape:current-layer="svg7" />
  <g
     id="g2"
     transform="translate(2.0000001,2)">
    <g
       id="g1"
       transform="translate(-3.3023873,-5)">
      <path
         d="m 60.302387,34 c 0,15.46415 -12.535828,28 -28.000002,28 C 16.838222,62 4.3023873,49.46415 4.3023873,34 4.3023873,18.535835 16.838222,6 32.302385,6 47.766559,6 60.302387,18.535835 60.302387,34 Z"
         id="path154"
         style="fill:url(#paint156_radial_890_11);stroke-width:1.16667" />
      <path
         d="m 55.63572,34 c 0,12.88701 -10.446332,23.33332 -23.333335,23.33332 C 19.415386,57.33332 8.9690543,46.88701 8.9690543,34 c 0,-12.886994 10.4463317,-23.333332 23.3333307,-23.333332 12.887003,0 23.333335,10.446338 23.333335,23.333332 z"
         id="path155"
         style="fill:url(#paint157_linear_890_11);stroke-width:1.16667" />
    </g>
    <g
       transform="matrix(-1.3517241,0,0,1.3507379,71.945627,-13.103934)"
       fill="#ffffff"
       id="g16"
       style="fill:#000001;fill-opacity:1;stroke-width:0.9273">
      <path
         d="m 17.804,33.038 c 0.769,-0.268 1.574,-0.524 1.967,-0.918 0.25,-0.25 0.375,-0.541 0.438,-0.853 0.062,-0.313 0.062,-0.646 0.062,-0.979 0,0 -3,0 -3,1 0,0 0,1 0.533,1.75 z"
         opacity="1"
         stroke-width="0.79087"
         id="path4"
         style="fill:#939dac;fill-opacity:1" />
      <path
         transform="translate(-0.22881,-0.82886)"
         d="m 39.5,21.117 c -1,0 -2.332,2.665 -3.832,4.332 -1.5,1.667 -2.834,1.668 -3.834,2.168 -1,0.5 -1.667,1.499 -2.668,2.166 -1.001,0.667 -2.331,1.001 -5,1.168 -2.669,0.167 -3.666,0.16602 -3.666,0.16602 0,0.333 -5e-4,0.66552 -0.0625,0.97852 a 1.607,1.607 0 0 1 -0.14453,0.43945 c -0.0015,0.0032 -0.0023,0.0066 -0.0039,0.0098 a 1.607,1.607 0 0 1 -0.0039,0.0059 1.607,1.607 0 0 1 -0.2793,0.39062 c -0.0024,0.0025 -0.0034,0.0054 -0.0059,0.0078 -0.393,0.394 -1.1978,0.64997 -1.9668,0.91797 0.313,1.237 0.4198,2.213 1.4668,3.25 2,2 3.972,1.673 6,2 2.028,0.327 4,0 6,0 2,0 2,0 4,2 l 0.5293,0.5293 a 15.34,15.34 0 0 0 4.4707,-2.5294 15.336,15.336 0 0 0 3.9883,-4.9785 c -1.3911,-0.76939 -2.9883,-1.8886 -2.9883,-3.0215 0,-2 -1,-10 -2,-10 z M 39,23.949 c 0.833,0.167 1.165,2.166 0.83203,3.5 -0.332,1.334 -1.3281,1.999 -2.1641,1.832 -0.836,-0.167 -1.501,-1.164 -1.168,-2.498 0.334,-1.334 1.668,-3 2.5,-2.834 z m -6.541,4.293 c 0.29175,-1.26e-4 0.54248,0.12355 0.70898,0.37305 0.333,0.499 0.33106,1.498 -0.33594,2 -0.668,0.502 -1.9971,0.501 -2.3301,0 l -0.002,0.002 c -0.333,-0.501 0.334,-1.501 1,-2 0.3335,-0.25 0.66723,-0.37488 0.95898,-0.375 z"
         stroke-width="0.87269"
         id="path6-1"
         style="fill:#e6e6e6;fill-opacity:1" />
      <g
         stroke-width="0.79087"
         id="g14"
         style="fill:#000001;fill-opacity:1">
        <path
           d="m 30.271,29.788 c -0.333,-0.501 0.334,-1.501 1,-2 0.667,-0.5 1.334,-0.5 1.667,-0.001 0.333,0.499 0.333,1.497 -0.334,1.999 -0.668,0.502 -1.999,0.502 -2.332,10e-4 z"
           opacity="1"
           id="path8"
           style="fill:#939dac;fill-opacity:1" />
        <path
           d="m 38.771,23.12 c 0.833,0.167 1.166,2.166 0.833,3.5 -0.332,1.334 -1.33,2 -2.166,1.833 -0.836,-0.167 -1.5,-1.165 -1.167,-2.499 0.334,-1.334 1.668,-3 2.5,-2.834 z"
           opacity="1"
           id="path10"
           style="fill:#939dac;fill-opacity:1" />
        <path
           d="m 44.271,33.288 a 15.336,15.336 0 0 1 -4,5 15.34,15.34 0 0 1 -4.47,2.53 l 1.236,1.236 a 15.328,15.328 0 0 0 5.234,-2.766 15.336,15.336 0 0 0 4,-5 z"
           opacity="1"
           id="path12"
           style="fill:#939dac;fill-opacity:1" />
      </g>
    </g>
  </g>
</svg>
