<?xml version="1.0" encoding="UTF-8" standalone="no"?>
<svg
   clip-rule="evenodd"
   fill-rule="evenodd"
   stroke-linejoin="round"
   stroke-miterlimit="2"
   viewBox="0 0 62 62"
   version="1.1"
   id="svg10"
   sodipodi:docname="preferences-tabs.svg"
   width="62"
   height="62"
   inkscape:version="1.4 (e7c3feb100, 2024-10-09)"
   xmlns:inkscape="http://www.inkscape.org/namespaces/inkscape"
   xmlns:sodipodi="http://sodipodi.sourceforge.net/DTD/sodipodi-0.dtd"
   xmlns:xlink="http://www.w3.org/1999/xlink"
   xmlns="http://www.w3.org/2000/svg"
   xmlns:svg="http://www.w3.org/2000/svg">
  <defs
     id="defs10">
    <linearGradient
       id="linearGradient10"
       inkscape:collect="always">
      <stop
         style="stop-color:#6c7884;stop-opacity:1;"
         offset="0"
         id="stop10" />
      <stop
         style="stop-color:#515862;stop-opacity:1;"
         offset="1"
         id="stop11" />
    </linearGradient>
    <linearGradient
       inkscape:collect="always"
       xlink:href="#linearGradient10"
       id="linearGradient11"
       x1="31"
       y1="59"
       x2="31"
       y2="3"
       gradientUnits="userSpaceOnUse" />
  </defs>
  <sodipodi:namedview
     id="namedview10"
     pagecolor="#ffffff"
     bordercolor="#000000"
     borderopacity="0.25"
     inkscape:showpageshadow="2"
     inkscape:pageopacity="0.0"
     inkscape:pagecheckerboard="0"
     inkscape:deskcolor="#d1d1d1"
     inkscape:zoom="7.7180575"
     inkscape:cx="34.140715"
     inkscape:cy="32.39157"
     inkscape:window-width="1920"
     inkscape:window-height="994"
     inkscape:window-x="0"
     inkscape:window-y="0"
     inkscape:window-maximized="1"
     inkscape:current-layer="svg10" />
  <linearGradient
     id="a"
     x2="1"
     gradientTransform="matrix(0,-46.799983,46.799983,0,632.48571,54.413883)"
     gradientUnits="userSpaceOnUse">
    <stop
       stop-color="#566069"
       offset="0"
       id="stop1" />
    <stop
       stop-color="#6c7884"
       offset="1"
       id="stop2" />
  </linearGradient>
  <path
     d="M 50.952003,3 C 55.394683,3 59,6.6053166 59,11.047997 V 50.952003 C 59,55.394683 55.394683,59 50.952003,59 H 11.047997 C 6.6053166,59 3,55.394683 3,50.952003 V 11.047997 C 3,6.6053166 6.6053166,3 11.047997,3 Z"
     id="path2"
     style="fill:url(#linearGradient11);fill-opacity:0.5" />
  <path
     d="M 3,12.376408 V 11.047997 C 3,6.6053166 6.6053166,3 11.047997,3 H 50.952003 C 55.394683,3 59,6.6053166 59,11.047997 v 1.328411 z"
     fill-opacity="1"
     id="path3"
     style="stroke-width:1.29223;fill:#2a7fff;fill-opacity:0.40000001" />
  <path
     d="m 39.575597,7.887999 c 0,1.381249 -1.11925,2.500001 -2.500001,2.500001 -1.380749,0 -2.499999,-1.118752 -2.499999,-2.500001 0,-1.381249 1.11925,-2.499999 2.499999,-2.499999 1.380751,0 2.500001,1.11875 2.500001,2.499999 z"
     id="path443"
     style="fill:#ffffff;fill-opacity:1;stroke-width:1.24999" />
  <path
     d="m 47.075593,7.887999 c 0,1.381249 -1.119247,2.500001 -2.499997,2.500001 -1.380753,0 -2.500003,-1.118752 -2.500003,-2.500001 0,-1.381249 1.119253,-2.499999 2.500003,-2.499999 1.38075,0 2.499997,1.11875 2.499997,2.499999 z"
     id="path444"
     style="fill:#ffffff;fill-opacity:1;stroke-width:1.24999" />
  <path
     d="m 54.575592,7.887999 c 0,1.381249 -1.11925,2.500001 -2.499999,2.500001 -1.380751,0 -2.5,-1.118752 -2.5,-2.500001 0,-1.381249 1.119249,-2.499999 2.5,-2.499999 1.380749,0 2.499999,1.11875 2.499999,2.499999 z"
     id="path445"
     style="fill:#ffffff;fill-opacity:1;stroke-width:1.24999" />
</svg>
