<?xml version="1.0" encoding="UTF-8" standalone="no"?>
<svg
   width="62"
   height="62"
   version="1"
   id="svg8"
   sodipodi:docname="preferences-system-network-proxy.svg"
   inkscape:version="1.4 (e7c3feb100, 2024-10-09)"
   xmlns:inkscape="http://www.inkscape.org/namespaces/inkscape"
   xmlns:sodipodi="http://sodipodi.sourceforge.net/DTD/sodipodi-0.dtd"
   xmlns="http://www.w3.org/2000/svg"
   xmlns:svg="http://www.w3.org/2000/svg">
  <defs
     id="defs8" />
  <sodipodi:namedview
     id="namedview8"
     pagecolor="#ffffff"
     bordercolor="#000000"
     borderopacity="0.25"
     inkscape:showpageshadow="2"
     inkscape:pageopacity="0.0"
     inkscape:pagecheckerboard="0"
     inkscape:deskcolor="#d1d1d1"
     inkscape:zoom="12.117239"
     inkscape:cx="37.09591"
     inkscape:cy="33.918618"
     inkscape:window-width="1920"
     inkscape:window-height="994"
     inkscape:window-x="0"
     inkscape:window-y="0"
     inkscape:window-maximized="1"
     inkscape:current-layer="svg8" />
  <g
     id="g1"
     transform="translate(-1,0.875)">
    <path
       style="opacity:0.2;stroke-width:3.1"
       d="m 19.6,57.25 -6.2,-6.2 H 5.65 C 3.0739,51.05 1,48.9761 1,46.4 V 9.2 C 1,6.6239 3.0739,4.55 5.65,4.55 h 52.7 C 60.9261,4.55 63,6.6239 63,9.2 v 37.2 c 0,2.5761 -2.0739,4.65 -4.65,4.65 H 50.6 l -6.2,6.2 z"
       id="path1" />
    <path
       style="fill:#c2cbd6;fill-opacity:1;stroke-width:3.1"
       d="M 19.6,55.7 13.4,49.5 H 5.65 C 3.0739,49.5 1,47.4261 1,44.85 V 7.65 C 1,5.0739 3.0739,3 5.65,3 h 52.7 C 60.9261,3 63,5.0739 63,7.65 v 37.2 c 0,2.5761 -2.0739,4.65 -4.65,4.65 H 50.6 l -6.2,6.2 z"
       id="path2" />
    <path
       style="opacity:1;fill:#374552;fill-opacity:1;stroke-width:3.1"
       d="M 25.8,46.4 18.825,40.2 H 10.3 V 12.3 h 43.4 v 27.9 h -9.3 l -6.2,6.2 z"
       id="path3" />
    <g
       style="fill:#f8c44e"
       transform="matrix(3.1,0,0,-3.1,-2.1,-6.3)"
       id="g7">
      <rect
         width="1"
         height="2"
         x="7"
         y="-8"
         id="rect3" />
      <rect
         width="1"
         height="2"
         x="9"
         y="-8"
         id="rect4" />
      <rect
         width="1"
         height="2"
         x="11"
         y="-8"
         id="rect5" />
      <rect
         width="1"
         height="2"
         x="13"
         y="-8"
         id="rect6" />
      <rect
         width="1"
         height="2"
         x="15"
         y="-8"
         id="rect7" />
    </g>
    <path
       style="opacity:0.2;fill:#ffffff;stroke-width:3.1"
       d="M 5.65,3 C 3.0739,3 1,5.0739 1,7.65 V 9.2 C 1,6.6239 3.0739,4.55 5.65,4.55 h 52.7 C 60.9261,4.55 63,6.6239 63,9.2 V 7.65 C 63,5.0739 60.9261,3 58.35,3 Z"
       id="path7" />
    <path
       style="opacity:0.2;fill:#ffffff;stroke-width:3.1"
       d="m 10.3,40.2 v 1.55 h 8.525 l 6.975,6.2 h 12.4 l 6.2,-6.2 h 9.3 V 40.2 h -9.3 l -6.2,6.2 H 25.8 l -6.975,-6.2 z"
       id="path8" />
  </g>
</svg>
