<?xml version="1.0" encoding="UTF-8" standalone="no"?>
<!-- Created with Inkscape (http://www.inkscape.org/) -->

<svg
   width="62"
   height="62"
   viewBox="0 0 62 62"
   version="1.1"
   id="svg1"
   inkscape:version="1.4 (e7c3feb100, 2024-10-09)"
   sodipodi:docname="preferences-web-browser-adblock.svg"
   xmlns:inkscape="http://www.inkscape.org/namespaces/inkscape"
   xmlns:sodipodi="http://sodipodi.sourceforge.net/DTD/sodipodi-0.dtd"
   xmlns:xlink="http://www.w3.org/1999/xlink"
   xmlns="http://www.w3.org/2000/svg"
   xmlns:svg="http://www.w3.org/2000/svg">
  <sodipodi:namedview
     id="namedview1"
     pagecolor="#ffffff"
     bordercolor="#000000"
     borderopacity="0.25"
     inkscape:showpageshadow="2"
     inkscape:pageopacity="0.0"
     inkscape:pagecheckerboard="0"
     inkscape:deskcolor="#d1d1d1"
     inkscape:document-units="px"
     inkscape:zoom="10.74725"
     inkscape:cx="29.914629"
     inkscape:cy="37.9632"
     inkscape:window-width="1920"
     inkscape:window-height="994"
     inkscape:window-x="0"
     inkscape:window-y="0"
     inkscape:window-maximized="1"
     inkscape:current-layer="layer1" />
  <defs
     id="defs1">
    <linearGradient
       id="linearGradient3"
       inkscape:collect="always">
      <stop
         style="stop-color:#a6927d;stop-opacity:1;"
         offset="0"
         id="stop3" />
      <stop
         style="stop-color:#d5ccc3;stop-opacity:1;"
         offset="1"
         id="stop4" />
    </linearGradient>
    <linearGradient
       id="linearGradient1"
       inkscape:collect="always">
      <stop
         style="stop-color:#566c80;stop-opacity:1;"
         offset="0"
         id="stop1" />
      <stop
         style="stop-color:#33414c;stop-opacity:1;"
         offset="1"
         id="stop2" />
    </linearGradient>
    <radialGradient
       id="paint664_radial_890_11"
       cx="0"
       cy="0"
       r="1"
       gradientUnits="userSpaceOnUse"
       gradientTransform="matrix(-16.000099,-9.999913,9.999913,-16.000099,583,171)">
      <stop
         offset="0.42141"
         stop-color="#B7C6CD"
         id="stop2071" />
      <stop
         offset="1"
         stop-color="#EFF2F6"
         id="stop2072" />
    </radialGradient>
    <linearGradient
       id="paint665_linear_890_11"
       x1="605"
       y1="180"
       x2="601.466"
       y2="162.72301"
       gradientUnits="userSpaceOnUse">
      <stop
         stop-color="#5200FF"
         id="stop2073" />
      <stop
         offset="1"
         stop-color="#0085FF"
         id="stop2074" />
    </linearGradient>
    <linearGradient
       id="paint666_linear_890_11"
       x1="567"
       y1="181"
       x2="562.11798"
       y2="174.183"
       gradientUnits="userSpaceOnUse">
      <stop
         stop-color="#5200FF"
         id="stop2075" />
      <stop
         offset="0.670391"
         stop-color="#0085FF"
         id="stop2076" />
    </linearGradient>
    <linearGradient
       id="paint667_linear_890_11"
       x1="605"
       y1="180"
       x2="597.32001"
       y2="174.24001"
       gradientUnits="userSpaceOnUse">
      <stop
         stop-color="#5200FF"
         id="stop2077" />
      <stop
         offset="1"
         stop-color="#0085FF"
         id="stop2078" />
    </linearGradient>
    <linearGradient
       id="paint668_linear_890_11"
       x1="567"
       y1="180"
       x2="561.23999"
       y2="172.32001"
       gradientUnits="userSpaceOnUse">
      <stop
         stop-color="#5200FF"
         id="stop2079" />
      <stop
         offset="1"
         stop-color="#0085FF"
         id="stop2080" />
    </linearGradient>
    <linearGradient
       id="paint669_linear_890_11"
       x1="607"
       y1="179"
       x2="602.50598"
       y2="171.80901"
       gradientUnits="userSpaceOnUse">
      <stop
         stop-color="#5200FF"
         id="stop2081" />
      <stop
         offset="1"
         stop-color="#0085FF"
         id="stop2082" />
    </linearGradient>
    <linearGradient
       id="paint670_linear_890_11"
       x1="607"
       y1="217"
       x2="568.82599"
       y2="170.01601"
       gradientUnits="userSpaceOnUse">
      <stop
         stop-color="#5200FF"
         id="stop2083" />
      <stop
         offset="1"
         stop-color="#0085FF"
         id="stop2084" />
    </linearGradient>
    <radialGradient
       id="paint671_radial_890_11"
       cx="0"
       cy="0"
       r="1"
       gradientUnits="userSpaceOnUse"
       gradientTransform="matrix(0,20,-16,0,583,187)">
      <stop
         offset="0.869716"
         stop-color="#EFF2F6"
         id="stop2085" />
      <stop
         offset="1"
         stop-color="#B7C6CD"
         id="stop2086" />
    </radialGradient>
    <linearGradient
       id="paint193_linear_890_11"
       x1="259"
       y1="805"
       x2="261.595"
       y2="820.56799"
       gradientUnits="userSpaceOnUse"
       gradientTransform="matrix(1.107143,0,0,1.1041669,-279.32144,-837.68758)">
      <stop
         offset="0.278002"
         stop-color="#EFF2F6"
         id="stop1128" />
      <stop
         offset="0.706499"
         stop-color="#B7C6CD"
         id="stop1129" />
    </linearGradient>
    <linearGradient
       id="paint194_linear_890_11"
       x1="311"
       y1="807"
       x2="278.0307"
       y2="765"
       gradientUnits="userSpaceOnUse"
       gradientTransform="translate(-252,-758)">
      <stop
         offset="0.310045"
         stop-color="#2E2E41"
         id="stop1130"
         style="stop-color:#5e5e83;stop-opacity:1;" />
      <stop
         offset="1"
         stop-color="#566C80"
         id="stop1131" />
    </linearGradient>
    <linearGradient
       id="paint195_linear_890_11"
       x1="284"
       y1="769"
       x2="282"
       y2="767"
       gradientUnits="userSpaceOnUse"
       gradientTransform="translate(-252,-758)">
      <stop
         stop-color="#71706E"
         id="stop1132" />
      <stop
         offset="1"
         stop-color="#B9AA99"
         id="stop1133" />
    </linearGradient>
    <linearGradient
       id="paint196_linear_890_11"
       x1="307"
       y1="801"
       x2="280.034"
       y2="757.854"
       gradientUnits="userSpaceOnUse"
       gradientTransform="translate(-252,-758)">
      <stop
         offset="0.193196"
         stop-color="#71706E"
         id="stop1134"
         style="stop-color:#b9b8b8;stop-opacity:1;" />
      <stop
         offset="0.88844502"
         stop-color="#B9AA99"
         id="stop1135"
         style="stop-color:#a6927d;stop-opacity:1;" />
    </linearGradient>
    <linearGradient
       id="paint197_linear_890_11"
       x1="292"
       y1="787"
       x2="292"
       y2="791"
       gradientUnits="userSpaceOnUse"
       gradientTransform="translate(-252,-758)">
      <stop
         stop-color="white"
         id="stop1136" />
      <stop
         offset="0.705"
         stop-color="#E6E6E6"
         id="stop1137" />
    </linearGradient>
    <linearGradient
       id="paint198_linear_890_11"
       x1="295"
       y1="779"
       x2="295"
       y2="783"
       gradientUnits="userSpaceOnUse"
       gradientTransform="translate(-252,-758)">
      <stop
         stop-color="white"
         id="stop1138" />
      <stop
         offset="0.705"
         stop-color="#E6E6E6"
         id="stop1139" />
    </linearGradient>
    <linearGradient
       id="paint199_linear_890_11"
       x1="279"
       y1="792"
       x2="265"
       y2="778"
       gradientUnits="userSpaceOnUse"
       gradientTransform="translate(-252,-758)">
      <stop
         offset="0.353839"
         stop-color="#FF7E07"
         id="stop1140" />
      <stop
         offset="1"
         stop-color="#FFE607"
         id="stop1141" />
    </linearGradient>
    <linearGradient
       id="paint200_linear_890_11"
       x1="269"
       y1="782"
       x2="276.38501"
       y2="793.07703"
       gradientUnits="userSpaceOnUse"
       gradientTransform="translate(-252,-758)">
      <stop
         stop-color="white"
         id="stop1142" />
      <stop
         offset="0.705"
         stop-color="#EAEFEF"
         id="stop1143" />
    </linearGradient>
    <linearGradient
       inkscape:collect="always"
       xlink:href="#linearGradient1"
       id="linearGradient2"
       x1="16.026588"
       y1="10.414106"
       x2="59"
       y2="49"
       gradientUnits="userSpaceOnUse"
       gradientTransform="matrix(1.107143,0,0,1.1041669,-0.32142859,-0.72916703)" />
    <linearGradient
       inkscape:collect="always"
       xlink:href="#linearGradient3"
       id="linearGradient4"
       x1="26.725977"
       y1="0"
       x2="55"
       y2="43"
       gradientUnits="userSpaceOnUse"
       gradientTransform="matrix(1.107143,0,0,1.1041669,-0.32142859,-0.72916703)" />
  </defs>
  <g
     inkscape:label="Layer 1"
     inkscape:groupmode="layer"
     id="layer1">
    <g
       id="g2"
       transform="translate(-3,-2.5)">
      <path
         d="M 7.4285715,51.166669 H 60.57143 v 4.416665 C 60.57143,58.02244 58.591855,60 56.14618,60 52.46493,60 45.83093,60 34,60 22.16907,60 15.53507,60 11.85382,60 9.408143,60 7.4285715,58.02244 7.4285715,55.583334 Z"
         id="path191"
         style="fill:url(#paint193_linear_890_11);stroke-width:1.10566" />
      <path
         d="M 3,11.416666 C 3,8.9775628 4.982893,7 7.4285715,7 H 60.57143 C 63.01711,7 65,8.9775628 65,11.416666 v 37.54167 c 0,2.439106 -1.98289,4.416666 -4.42857,4.416666 H 7.4285715 C 4.982893,53.375002 3,51.397442 3,48.958336 Z"
         id="path192"
         style="fill:url(#linearGradient2);stroke-width:1.10566" />
      <path
         d="m 35.107145,10.312501 c 0,0.609498 -0.496,1.104165 -1.107145,1.104165 -0.611145,0 -1.107145,-0.494667 -1.107145,-1.104165 0,-0.6095011 0.496,-1.1041678 1.107145,-1.1041678 0.611145,0 1.107145,0.4946667 1.107145,1.1041678 z"
         id="path193"
         style="fill:#bcbcbc;fill-opacity:1;stroke-width:1.10566" />
      <path
         d="m 7.4285715,15.573855 c 0,-1.076563 0.990893,-1.948857 2.2142855,-1.948857 h 48.714288 c 1.22339,0 2.214285,0.872294 2.214285,1.948857 v 29.227292 c 0,1.076563 -0.990895,1.948857 -2.214285,1.948857 H 9.642857 c -1.2233925,0 -2.2142855,-0.872294 -2.2142855,-1.948857 z"
         id="path194"
         style="fill:url(#linearGradient4);stroke-width:1.10566" />
      <g
         id="g1"
         transform="matrix(1.107143,0,0,1.1041669,0.10817915,-0.72916698)">
        <path
           style="opacity:0.1;stroke-width:2.62949"
           d="m 36.163695,37.5 6.344824,-15.692308 h 4.758623 L 53.611967,37.5 H 48.85335 L 44.887186,28.084613 40.922316,37.5 h -4.758303 z"
           id="path2" />
        <path
           style="fill:#404040;fill-opacity:1;stroke-width:2.62949"
           d="M 36.163695,36.192308 42.508519,20.5 h 4.758623 l 6.344825,15.692308 H 48.85335 l -3.966164,-9.415382 -3.96487,9.415382 h -4.758303 z"
           id="path4" />
        <path
           style="opacity:0.1;stroke-width:2.62949"
           d="m 31.405073,37.5 6.34483,-15.692308 h 4.758616 L 48.85335,37.5 H 44.094732 L 40.128565,28.084613 36.163695,37.5 h -4.758303 z"
           id="path5" />
        <path
           style="fill:#b0b0b5;fill-opacity:1;stroke-width:2.62949"
           d="M 31.405073,36.192308 37.749903,20.5 h 4.758616 l 6.344831,15.692308 h -4.758618 l -3.966167,-9.415382 -3.96487,9.415382 h -4.758303 z"
           id="path6" />
        <path
           style="opacity:0.1;stroke-width:2.62949"
           d="m 23.474038,37.5 6.344831,-15.692308 h 4.758622 L 40.922316,37.5 H 36.163695 L 32.197537,28.084613 28.232661,37.5 h -4.758297 z"
           id="path7" />
        <path
           style="fill:#404040;fill-opacity:1;stroke-width:2.62949"
           d="M 23.474038,36.192308 29.818869,20.5 h 4.758622 l 6.344825,15.692308 h -4.758621 l -3.966158,-9.415382 -3.964876,9.415382 h -4.758297 z"
           id="path8" />
        <path
           style="opacity:0.1;stroke-width:2.62949"
           d="m 18.715414,37.5 6.34483,-15.692308 h 4.758625 L 36.163695,37.5 H 31.405073 L 27.438915,28.084613 23.474038,37.5 h -4.758305 z"
           id="path9" />
        <path
           style="fill:#b0b0b5;fill-opacity:1;stroke-width:2.62949"
           d="M 18.715414,36.192308 25.060244,20.5 h 4.758625 l 6.344826,15.692308 h -4.758622 l -3.966158,-9.415382 -3.964877,9.415382 h -4.758305 z"
           id="path10" />
        <path
           style="opacity:0.1;stroke-width:2.62949"
           d="M 7.6119672,21.807692 13.956798,37.5 h 4.758616 l 6.34483,-15.692308 H 20.301622 L 16.33546,31.223074 12.370586,21.807692 H 7.6122919 Z"
           id="path11" />
        <path
           style="fill:#a53655;stroke-width:2.62949"
           d="m 7.6119672,20.5 6.3448308,15.692308 h 4.758616 L 25.060244,20.5 H 20.301622 L 16.33546,29.915387 12.370586,20.5 H 7.6122919 Z"
           id="path12" />
      </g>
    </g>
    <g
       id="g3"
       transform="rotate(-90,31.000001,48.000001)">
      <path
         id="rect843-5"
         d="m 31.000001,39 c 4.986002,0 9.000001,4.014002 9.000001,9.000001 0,4.986002 -4.013999,9.000001 -9.000001,9.000001 C 26.014003,57.000002 22,52.986003 22,48.000001 22,43.014002 26.014003,39 31.000001,39 Z"
         style="vector-effect:none;fill:#a6927d;fill-opacity:1;stroke:none;stroke-width:2.23615;stroke-linecap:round;stroke-linejoin:round;stroke-miterlimit:4;stroke-dasharray:none;stroke-dashoffset:0;stroke-opacity:1"
         inkscape:connector-curvature="0" />
      <path
         id="rect843-6-6"
         d="m 31.000001,40.000002 c 4.432003,0 8.000002,3.568 8.000002,7.999999 0,4.432003 -3.567999,8.000002 -8.000002,8.000002 -4.431999,0 -8.000002,-3.567999 -8.000002,-8.000002 0,-4.431999 3.568003,-7.999999 8.000002,-7.999999 z"
         style="vector-effect:none;fill:#d5ccc3;fill-opacity:1;stroke:none;stroke-width:1.98769;stroke-linecap:round;stroke-linejoin:round;stroke-miterlimit:4;stroke-dasharray:none;stroke-dashoffset:0;stroke-opacity:1"
         inkscape:connector-curvature="0" />
    </g>
    <path
       d="m 31.000009,42.750001 c -2.899307,0 -5.249999,2.350693 -5.249999,5.250006 0,2.899291 2.350692,5.249995 5.249999,5.249995 2.89929,0 5.249983,-2.350704 5.249983,-5.249995 0,-2.899313 -2.350693,-5.250006 -5.249983,-5.250006 z m 0,0.874984 c 2.416286,0 4.374984,1.95871 4.374984,4.375022 0,1.054368 -0.388501,2.008124 -1.010192,2.763244 l -6.12847,-6.128494 c 0.755546,-0.621275 1.709299,-1.009772 2.763678,-1.009772 z m -3.364801,1.611779 6.128486,6.128463 c -0.755569,0.621272 -1.709322,1.009758 -2.763685,1.009758 -2.416309,0 -4.375016,-1.958688 -4.375016,-4.374978 0,-1.054386 0.38894,-2.008135 1.010215,-2.763243 z"
       color="#000000"
       id="path16"
       style="fill:#796753;fill-opacity:1;stroke:#796753;stroke-width:1.5;stroke-miterlimit:4;stroke-dasharray:none;stroke-opacity:1" />
  </g>
</svg>
