<?xml version="1.0" encoding="UTF-8" standalone="no"?>
<svg
   width="62"
   height="62"
   version="1.1"
   id="svg6"
   sodipodi:docname="preferences-system-network-server-mail.svg"
   inkscape:version="1.4 (e7c3feb100, 2024-10-09)"
   xmlns:inkscape="http://www.inkscape.org/namespaces/inkscape"
   xmlns:sodipodi="http://sodipodi.sourceforge.net/DTD/sodipodi-0.dtd"
   xmlns="http://www.w3.org/2000/svg"
   xmlns:svg="http://www.w3.org/2000/svg">
  <defs
     id="defs6" />
  <sodipodi:namedview
     id="namedview6"
     pagecolor="#ffffff"
     bordercolor="#000000"
     borderopacity="0.25"
     inkscape:showpageshadow="2"
     inkscape:pageopacity="0.0"
     inkscape:pagecheckerboard="0"
     inkscape:deskcolor="#d1d1d1"
     inkscape:zoom="8.3306018"
     inkscape:cx="31.150211"
     inkscape:cy="73.824198"
     inkscape:window-width="1920"
     inkscape:window-height="994"
     inkscape:window-x="0"
     inkscape:window-y="0"
     inkscape:window-maximized="1"
     inkscape:current-layer="svg6"
     showgrid="false">
    <inkscape:grid
       id="grid1"
       units="px"
       originx="0"
       originy="0"
       spacingx="1"
       spacingy="1"
       empcolor="#0099e5"
       empopacity="0.30196078"
       color="#0099e5"
       opacity="0.14901961"
       empspacing="5"
       enabled="true"
       visible="false" />
  </sodipodi:namedview>
  <g
     id="g6"
     transform="translate(-3,-3)">
    <rect
       x="6"
       y="6"
       width="56"
       height="56"
       rx="5"
       ry="5"
       style="fill:#434a56;fill-opacity:1;stroke-width:1.07686;paint-order:stroke markers fill"
       id="rect1" />
    <path
       d="M 12.461534,15.692318 H 38.307702 V 17.84616 H 12.461534 Z"
       id="path1"
       style="fill:#ffffff;fill-opacity:1" />
    <circle
       cx="45.846199"
       cy="16.769222"
       r="2.1538472"
       id="circle1"
       style="stroke-width:1.07686;fill:#72d406;fill-opacity:1" />
    <circle
       cx="54.461586"
       cy="16.769222"
       r="2.1538472"
       id="circle2"
       style="stroke-width:1.07686;fill:#72d406;fill-opacity:1" />
    <path
       d="m 12.461534,32.92309 h 25.846168 v 2.153844 H 12.461534 Z"
       id="path2"
       style="stroke-width:1.07686;fill:#ffffff;fill-opacity:1" />
    <circle
       cx="45.846199"
       cy="34"
       r="2.1538472"
       id="circle3"
       style="stroke-width:1.07686;fill:#72d406;fill-opacity:1" />
    <circle
       cx="54.461586"
       cy="34"
       r="2.1538472"
       id="circle4"
       style="stroke-width:1.07686;fill:#72d406;fill-opacity:1" />
    <path
       d="m 12.461534,50.153864 h 27.846 v 2.320493 h -27.846 z"
       id="path4"
       style="fill:#ffffff;fill-opacity:1;stroke-width:1.16021" />
    <rect
       x="6"
       y="23.230778"
       width="56"
       height="3.2307711"
       rx="0"
       ry="0"
       fill-rule="evenodd"
       opacity="0.5"
       style="stroke-width:1.07686;paint-order:fill markers stroke;fill:#000000;fill-opacity:1"
       id="rect4" />
    <rect
       x="6"
       y="40.461555"
       width="56"
       height="3.2307711"
       rx="0"
       ry="0"
       fill-rule="evenodd"
       opacity="0.5"
       style="stroke-width:1.07686;paint-order:fill markers stroke;fill:#000000;fill-opacity:1"
       id="rect5" />
    <circle
       cx="45.846199"
       cy="51.230782"
       r="2.1538472"
       id="circle5"
       style="stroke-width:1.07686;fill:#72d406;fill-opacity:1" />
    <circle
       cx="54.461586"
       cy="51.230782"
       r="2.1538472"
       id="circle6"
       style="stroke-width:1.07686;fill:#72d406;fill-opacity:1" />
  </g>
  <circle
     cx="46.749992"
     cy="46.749992"
     r="11.249994"
     style="fill:#00ccff;fill-rule:evenodd;stroke-width:0.999999;paint-order:fill markers stroke"
     id="circle24-3" />
  <path
     d="m 39.234377,39.250016 a 10.624999,10.624999 0 0 0 -1.234387,1.475003 v 12.031246 a 10.624999,10.624999 0 0 0 1.233136,1.493749 h 15.033113 a 10.624999,10.624999 0 0 0 1.234375,-1.474999 V 40.743141 A 10.624999,10.624999 0 0 0 54.26749,39.250016 Z m 0.9,1.25 h 13.23249 l -6.616877,6.616252 -6.614997,-6.616252 z m -0.884383,0.883752 4.917498,4.916874 -4.917498,5.737498 z m 14.999997,0 v 10.656874 l -4.916875,-5.74 z m -9.196872,5.803748 1.696871,1.696252 1.696876,-1.696875 4.980624,5.813125 H 40.070616 l 4.983126,-5.812502 z"
     fill="#ffffff"
     style="fill-rule:evenodd;stroke-width:0.999999;paint-order:fill markers stroke"
     id="path26" />
</svg>
