<?xml version="1.0" encoding="UTF-8" standalone="no"?>
<svg
   width="62"
   height="62"
   version="1.1"
   id="svg6"
   sodipodi:docname="preferences-system-network-server-share.svg"
   inkscape:version="1.4 (e7c3feb100, 2024-10-09)"
   xmlns:inkscape="http://www.inkscape.org/namespaces/inkscape"
   xmlns:sodipodi="http://sodipodi.sourceforge.net/DTD/sodipodi-0.dtd"
   xmlns="http://www.w3.org/2000/svg"
   xmlns:svg="http://www.w3.org/2000/svg">
  <defs
     id="defs6" />
  <sodipodi:namedview
     id="namedview6"
     pagecolor="#ffffff"
     bordercolor="#000000"
     borderopacity="0.25"
     inkscape:showpageshadow="2"
     inkscape:pageopacity="0.0"
     inkscape:pagecheckerboard="0"
     inkscape:deskcolor="#d1d1d1"
     inkscape:zoom="8.3306018"
     inkscape:cx="31.150211"
     inkscape:cy="73.824198"
     inkscape:window-width="1920"
     inkscape:window-height="994"
     inkscape:window-x="0"
     inkscape:window-y="0"
     inkscape:window-maximized="1"
     inkscape:current-layer="svg6"
     showgrid="false">
    <inkscape:grid
       id="grid1"
       units="px"
       originx="0"
       originy="0"
       spacingx="1"
       spacingy="1"
       empcolor="#0099e5"
       empopacity="0.30196078"
       color="#0099e5"
       opacity="0.14901961"
       empspacing="5"
       enabled="true"
       visible="false" />
  </sodipodi:namedview>
  <g
     id="g6"
     transform="translate(-3,-3)">
    <rect
       x="6"
       y="6"
       width="56"
       height="56"
       rx="5"
       ry="5"
       style="fill:#434a56;fill-opacity:1;stroke-width:1.07686;paint-order:stroke markers fill"
       id="rect1" />
    <path
       d="M 12.461534,15.692318 H 38.307702 V 17.84616 H 12.461534 Z"
       id="path1"
       style="fill:#ffffff;fill-opacity:1" />
    <circle
       cx="45.846199"
       cy="16.769222"
       r="2.1538472"
       id="circle1"
       style="stroke-width:1.07686;fill:#72d406;fill-opacity:1" />
    <circle
       cx="54.461586"
       cy="16.769222"
       r="2.1538472"
       id="circle2"
       style="stroke-width:1.07686;fill:#72d406;fill-opacity:1" />
    <path
       d="m 12.461534,32.92309 h 25.846168 v 2.153844 H 12.461534 Z"
       id="path2"
       style="stroke-width:1.07686;fill:#ffffff;fill-opacity:1" />
    <circle
       cx="45.846199"
       cy="34"
       r="2.1538472"
       id="circle3"
       style="stroke-width:1.07686;fill:#72d406;fill-opacity:1" />
    <circle
       cx="54.461586"
       cy="34"
       r="2.1538472"
       id="circle4"
       style="stroke-width:1.07686;fill:#72d406;fill-opacity:1" />
    <path
       d="m 12.461534,50.153864 h 27.846 v 2.320493 h -27.846 z"
       id="path4"
       style="fill:#ffffff;fill-opacity:1;stroke-width:1.16021" />
    <rect
       x="6"
       y="23.230778"
       width="56"
       height="3.2307711"
       rx="0"
       ry="0"
       fill-rule="evenodd"
       opacity="0.5"
       style="stroke-width:1.07686;paint-order:fill markers stroke;fill:#000000;fill-opacity:1"
       id="rect4" />
    <rect
       x="6"
       y="40.461555"
       width="56"
       height="3.2307711"
       rx="0"
       ry="0"
       fill-rule="evenodd"
       opacity="0.5"
       style="stroke-width:1.07686;paint-order:fill markers stroke;fill:#000000;fill-opacity:1"
       id="rect5" />
    <circle
       cx="45.846199"
       cy="51.230782"
       r="2.1538472"
       id="circle5"
       style="stroke-width:1.07686;fill:#72d406;fill-opacity:1" />
    <circle
       cx="54.461586"
       cy="51.230782"
       r="2.1538472"
       id="circle6"
       style="stroke-width:1.07686;fill:#72d406;fill-opacity:1" />
  </g>
  <circle
     cx="46.75"
     cy="46.75"
     r="11.250001"
     style="fill:#d38d5f;fill-rule:evenodd;stroke-width:0.999999;paint-order:fill markers stroke"
     id="circle24-3" />
  <path
     d="m 51.32502,39.500009 c -1.191099,0 -2.150014,0.958934 -2.150014,2.15 0,1.191107 0.958915,2.150033 2.150014,2.150033 1.191088,0 2.150004,-0.958926 2.150004,-2.150033 0,-1.191066 -0.958916,-2.15 -2.150004,-2.15 z m -9.675009,5.375029 c -1.191084,0 -2.149992,0.95887 -2.149992,2.149977 0,1.191118 0.958908,2.149988 2.149992,2.149988 1.191107,0 2.150011,-0.95887 2.150011,-2.149988 0,-1.191107 -0.958904,-2.149977 -2.150011,-2.149977 z m 9.675009,5.374965 c -1.191099,0 -2.150014,0.958912 -2.150014,2.15003 0,1.191069 0.958915,2.149981 2.150014,2.149981 1.191088,0 2.150004,-0.958912 2.150004,-2.149981 0,-1.191118 -0.958916,-2.15003 -2.150004,-2.15003 z m -3.762497,-7.524998 a 0.53751958,0.53751958 0 1 0 0,1.075037 0.53751958,0.53751958 0 1 0 0,-1.075037 z m -2.150019,1.075037 a 0.53749978,0.53749978 0 1 0 0,1.074996 0.53749978,0.53749978 0 1 0 0,-1.074996 z m 0,5.374961 a 0.53750148,0.53750148 0 1 0 0,1.075 0.53750148,0.53750148 0 1 0 0,-1.075 z m 2.150019,1.075 a 0.5375175,0.5375175 0 1 0 0,1.075034 0.5375175,0.5375175 0 1 0 0,-1.075034 z"
     id="path5079-7-1"
     style="fill:#f9f9f9;stroke-width:0.624998" />
</svg>
