<?xml version="1.0" encoding="UTF-8" standalone="no"?>
<!-- Created with Inkscape (http://www.inkscape.org/) -->

<svg
   width="62"
   height="62"
   viewBox="0 0 62 62"
   version="1.1"
   id="svg1"
   inkscape:version="1.4 (e7c3feb100, 2024-10-09)"
   sodipodi:docname="preferences-system-network-ldap.svg"
   xmlns:inkscape="http://www.inkscape.org/namespaces/inkscape"
   xmlns:sodipodi="http://sodipodi.sourceforge.net/DTD/sodipodi-0.dtd"
   xmlns:xlink="http://www.w3.org/1999/xlink"
   xmlns="http://www.w3.org/2000/svg"
   xmlns:svg="http://www.w3.org/2000/svg">
  <sodipodi:namedview
     id="namedview1"
     pagecolor="#ffffff"
     bordercolor="#000000"
     borderopacity="0.25"
     inkscape:showpageshadow="2"
     inkscape:pageopacity="0.0"
     inkscape:pagecheckerboard="0"
     inkscape:deskcolor="#d1d1d1"
     inkscape:document-units="px"
     inkscape:zoom="7.5994533"
     inkscape:cx="19.804056"
     inkscape:cy="22.501619"
     inkscape:window-width="1920"
     inkscape:window-height="994"
     inkscape:window-x="0"
     inkscape:window-y="0"
     inkscape:window-maximized="1"
     inkscape:current-layer="layer1"
     showgrid="false">
    <inkscape:grid
       id="grid2"
       units="px"
       originx="0"
       originy="0"
       spacingx="1"
       spacingy="1"
       empcolor="#0099e5"
       empopacity="0.30196078"
       color="#0099e5"
       opacity="0.14901961"
       empspacing="5"
       enabled="true"
       visible="false" />
  </sodipodi:namedview>
  <defs
     id="defs1">
    <linearGradient
       id="linearGradient1"
       inkscape:collect="always">
      <stop
         style="stop-color:#6f7c91;stop-opacity:1"
         offset="0"
         id="stop1" />
      <stop
         style="stop-color:#5f6d81;stop-opacity:1;"
         offset="0.26855257"
         id="stop3" />
      <stop
         style="stop-color:#38485c;stop-opacity:1;"
         offset="0.84299111"
         id="stop4" />
      <stop
         style="stop-color:#2e3f52;stop-opacity:1;"
         offset="1"
         id="stop2" />
    </linearGradient>
    <radialGradient
       id="paint664_radial_890_11"
       cx="0"
       cy="0"
       r="1"
       gradientUnits="userSpaceOnUse"
       gradientTransform="matrix(-16.000099,-9.999913,9.999913,-16.000099,583,171)">
      <stop
         offset="0.42141"
         stop-color="#B7C6CD"
         id="stop2071" />
      <stop
         offset="1"
         stop-color="#EFF2F6"
         id="stop2072" />
    </radialGradient>
    <linearGradient
       id="paint665_linear_890_11"
       x1="605"
       y1="180"
       x2="601.466"
       y2="162.72301"
       gradientUnits="userSpaceOnUse">
      <stop
         stop-color="#5200FF"
         id="stop2073" />
      <stop
         offset="1"
         stop-color="#0085FF"
         id="stop2074" />
    </linearGradient>
    <linearGradient
       id="paint666_linear_890_11"
       x1="567"
       y1="181"
       x2="562.11798"
       y2="174.183"
       gradientUnits="userSpaceOnUse">
      <stop
         stop-color="#5200FF"
         id="stop2075" />
      <stop
         offset="0.670391"
         stop-color="#0085FF"
         id="stop2076" />
    </linearGradient>
    <linearGradient
       id="paint667_linear_890_11"
       x1="605"
       y1="180"
       x2="597.32001"
       y2="174.24001"
       gradientUnits="userSpaceOnUse">
      <stop
         stop-color="#5200FF"
         id="stop2077" />
      <stop
         offset="1"
         stop-color="#0085FF"
         id="stop2078" />
    </linearGradient>
    <linearGradient
       id="paint668_linear_890_11"
       x1="567"
       y1="180"
       x2="561.23999"
       y2="172.32001"
       gradientUnits="userSpaceOnUse">
      <stop
         stop-color="#5200FF"
         id="stop2079" />
      <stop
         offset="1"
         stop-color="#0085FF"
         id="stop2080" />
    </linearGradient>
    <linearGradient
       id="paint669_linear_890_11"
       x1="607"
       y1="179"
       x2="602.50598"
       y2="171.80901"
       gradientUnits="userSpaceOnUse">
      <stop
         stop-color="#5200FF"
         id="stop2081" />
      <stop
         offset="1"
         stop-color="#0085FF"
         id="stop2082" />
    </linearGradient>
    <linearGradient
       id="paint670_linear_890_11"
       x1="607"
       y1="217"
       x2="568.82599"
       y2="170.01601"
       gradientUnits="userSpaceOnUse">
      <stop
         stop-color="#5200FF"
         id="stop2083" />
      <stop
         offset="1"
         stop-color="#0085FF"
         id="stop2084" />
    </linearGradient>
    <radialGradient
       id="paint671_radial_890_11"
       cx="0"
       cy="0"
       r="1"
       gradientUnits="userSpaceOnUse"
       gradientTransform="matrix(0,20,-16,0,583,187)">
      <stop
         offset="0.869716"
         stop-color="#EFF2F6"
         id="stop2085" />
      <stop
         offset="1"
         stop-color="#B7C6CD"
         id="stop2086" />
    </radialGradient>
    <linearGradient
       id="paint451_linear_890_11"
       x1="55"
       y1="461"
       x2="111"
       y2="517"
       gradientUnits="userSpaceOnUse"
       gradientTransform="matrix(0.35714286,0,0,0.35714286,-18.642857,-163.64286)">
      <stop
         offset="0.303571"
         stop-color="#EFF2F6"
         id="stop1644" />
      <stop
         offset="1"
         stop-color="#B7C6CD"
         id="stop1645" />
    </linearGradient>
    <linearGradient
       id="paint452_linear_890_11"
       x1="107"
       y1="513"
       x2="67.655701"
       y2="465.78699"
       gradientUnits="userSpaceOnUse"
       gradientTransform="matrix(0.35714286,0,0,0.42857143,-18.642857,-200.28572)">
      <stop
         stop-color="#2E2E41"
         id="stop1646" />
      <stop
         offset="1"
         stop-color="#566C80"
         id="stop1647" />
    </linearGradient>
    <linearGradient
       id="paint453_linear_890_11"
       x1="61"
       y1="465"
       x2="65"
       y2="469"
       gradientUnits="userSpaceOnUse"
       gradientTransform="translate(-53,-457)">
      <stop
         offset="0.236371"
         stop-color="#F15700"
         id="stop1648" />
      <stop
         offset="0.855848"
         stop-color="#FF0000"
         id="stop1649" />
    </linearGradient>
    <linearGradient
       id="paint454_linear_890_11"
       x1="71"
       y1="469"
       x2="67"
       y2="465"
       gradientUnits="userSpaceOnUse"
       gradientTransform="translate(-53,-457)">
      <stop
         stop-color="#FF7E07"
         id="stop1650" />
      <stop
         offset="1"
         stop-color="#FFE607"
         id="stop1651" />
    </linearGradient>
    <linearGradient
       id="paint455_linear_890_11"
       x1="77"
       y1="469"
       x2="73"
       y2="465"
       gradientUnits="userSpaceOnUse"
       gradientTransform="translate(-53,-457)">
      <stop
         stop-color="#089953"
         id="stop1652" />
      <stop
         offset="1"
         stop-color="#16D96F"
         id="stop1653" />
    </linearGradient>
    <linearGradient
       id="paint456_linear_890_11"
       x1="80"
       y1="486"
       x2="80"
       y2="492"
       gradientUnits="userSpaceOnUse"
       gradientTransform="translate(-53,-457)">
      <stop
         offset="0.189495"
         stop-color="#EFF2F6"
         id="stop1654" />
      <stop
         offset="0.850463"
         stop-color="#B7C6CD"
         id="stop1655" />
    </linearGradient>
    <linearGradient
       id="paint457_linear_890_11"
       x1="82"
       y1="494"
       x2="82"
       y2="500"
       gradientUnits="userSpaceOnUse">
      <stop
         offset="0.189495"
         stop-color="#EFF2F6"
         id="stop1656" />
      <stop
         offset="0.850463"
         stop-color="#B7C6CD"
         id="stop1657" />
    </linearGradient>
    <linearGradient
       id="paint334_linear_890_11"
       x1="501"
       y1="565"
       x2="509.82401"
       y2="570.29401"
       gradientUnits="userSpaceOnUse"
       gradientTransform="matrix(0.375,0,0,0.35714286,-168.98214,-199.35714)">
      <stop
         stop-color="#F15700"
         id="stop1410" />
      <stop
         offset="1"
         stop-color="#FF0000"
         id="stop1411" />
    </linearGradient>
    <linearGradient
       id="paint335_linear_890_11"
       x1="507"
       y1="587"
       x2="498.17599"
       y2="581.70599"
       gradientUnits="userSpaceOnUse"
       gradientTransform="matrix(0.375,0,0,0.35714286,-168.98214,-199.35714)">
      <stop
         stop-color="#FF7E07"
         id="stop1412" />
      <stop
         offset="1"
         stop-color="#FFE607"
         id="stop1413" />
    </linearGradient>
    <linearGradient
       id="paint336_linear_890_11"
       x1="507"
       y1="599"
       x2="498.17599"
       y2="593.70599"
       gradientUnits="userSpaceOnUse"
       gradientTransform="matrix(0.375,0,0,0.35714286,-168.98214,-199.35714)">
      <stop
         stop-color="#5200FF"
         id="stop1414" />
      <stop
         offset="1"
         stop-color="#0085FF"
         id="stop1415" />
    </linearGradient>
    <linearGradient
       id="paint337_linear_890_11"
       x1="482.68591"
       y1="561"
       x2="482.74106"
       y2="617"
       gradientUnits="userSpaceOnUse"
       gradientTransform="matrix(0.40909097,0,0,0.35714286,-185.77275,-199.35714)">
      <stop
         stop-color="#EFF2F6"
         id="stop1416"
         offset="0"
         style="stop-color:#6883a9;stop-opacity:1;" />
      <stop
         offset="1"
         stop-color="#B7C6CD"
         id="stop1417"
         style="stop-color:#405772;stop-opacity:1;" />
    </linearGradient>
    <linearGradient
       id="paint338_linear_890_11"
       x1="493"
       y1="599"
       x2="490.17599"
       y2="587.70599"
       gradientUnits="userSpaceOnUse"
       gradientTransform="matrix(0.375,0,0,0.35714286,-168.98214,-199.35714)">
      <stop
         stop-color="#2E2E41"
         id="stop1418" />
      <stop
         offset="1"
         stop-color="#566C80"
         id="stop1419" />
    </linearGradient>
    <linearGradient
       id="paint339_linear_890_11"
       x1="487"
       y1="589"
       x2="475"
       y2="577"
       gradientUnits="userSpaceOnUse"
       gradientTransform="matrix(0.375,0,0,0.35714286,-168.98214,-199.35714)">
      <stop
         stop-color="#2E2E41"
         id="stop1420" />
      <stop
         offset="1"
         stop-color="#566C80"
         id="stop1421" />
    </linearGradient>
    <linearGradient
       inkscape:collect="always"
       xlink:href="#linearGradient1"
       id="linearGradient2"
       x1="19.574919"
       y1="20.14784"
       x2="3.0908892"
       y2="1.7237363"
       gradientUnits="userSpaceOnUse" />
  </defs>
  <g
     inkscape:label="Layer 1"
     inkscape:groupmode="layer"
     id="layer1">
    <g
       id="g3"
       transform="translate(1.14,2)">
      <g
         id="g2"
         transform="matrix(2.8,0,0,2.8,-3.6,-1.8)">
        <path
           d="m 19.65,2.829 h 1.5 c 0.414375,0 0.75,0.3196429 0.75,0.7142857 v 2.1428572 c 0,0.3946428 -0.335625,0.7142857 -0.75,0.7142857 h -1.5 z"
           id="path326"
           style="fill:#ff2a2a" />
        <path
           d="m 19.65,7.1147143 h 1.5 c 0.414375,0 0.75,0.3196429 0.75,0.7142857 v 2.1428572 c 0,0.3946428 -0.335625,0.7142858 -0.75,0.7142858 h -1.5 z"
           id="path327"
           style="fill:#ffcc00;fill-opacity:1" />
        <path
           d="m 19.65,11.400429 h 1.5 c 0.414375,0 0.75,0.319642 0.75,0.714285 v 2.142857 c 0,0.394643 -0.335625,0.714286 -0.75,0.714286 h -1.5 z"
           id="path328"
           style="fill:#2a7fff;fill-opacity:1" />
        <path
           d="M 2,3 C 2,2 3,1 4,1 h 14 c 1,0 2,1 2,2 v 16 c 0,1 -1,2 -2,2 H 4 C 3,21 2,20 2,19 Z"
           id="path329"
           sodipodi:nodetypes="sssssssss"
           style="fill:url(#linearGradient2)" />
      </g>
      <g
         id="g1"
         transform="matrix(2.8,0,0,2.8,-2.018168,1.6787872)">
        <path
           style="opacity:0.2;stroke-width:0.423924"
           d="m 13.823858,5.7272728 c -1.169989,0 -2.118004,0.9498786 -2.118004,2.1212128 0,1.1713324 0.948015,2.1212122 2.118004,2.1212122 1.16998,0 2.117995,-0.9498798 2.117995,-2.1212122 0,-1.1713342 -0.948015,-2.1212128 -2.117995,-2.1212128 z M 9.5878597,13.957576 v 1.103028 c 0,0 0.7819643,1.696972 4.2359983,1.696972 3.454033,0 4.235998,-1.696972 4.235998,-1.696972 v -1.103028 c 0,0 0.101657,-2.697755 -4.235998,-2.715151 -4.3372406,-0.01653 -4.2359983,2.715151 -4.2359983,2.715151 z M 7.0462587,3.181818 c -1.1699826,0 -2.117999,0.949879 -2.117999,2.1212128 0,1.1713333 0.9480164,2.1212118 2.117999,2.1212118 1.1699825,0 2.1179985,-0.9498785 2.1179985,-2.1212118 0,-1.1713338 -0.948016,-2.1212128 -2.1179985,-2.1212128 z m -4.2359971,8.230305 v 1.103028 c 0,0 0.7819647,1.696972 4.2359971,1.696972 3.4540293,0 4.2359983,-1.696972 4.2359983,-1.696972 v -1.103028 c 0,0 0.101663,-2.6977589 -4.2359983,-2.7151525 C 2.7090208,8.6804225 2.8102616,11.412123 2.8102616,11.412123 Z"
           id="path1" />
        <path
           style="fill:#9955ff;stroke-width:0.423924"
           d="m 7.0462587,2.757576 c -1.1699826,0 -2.117999,0.949879 -2.117999,2.1212119 0,1.1713333 0.9480164,2.1212127 2.117999,2.1212127 1.1699825,0 2.1179985,-0.9498794 2.1179985,-2.1212127 0,-1.1713329 -0.948016,-2.1212119 -2.1179985,-2.1212119 z m -4.2359971,8.230302 v 1.103029 c 0,0 0.7819647,1.696971 4.2359971,1.696971 3.4540293,0 4.2359983,-1.696971 4.2359983,-1.696971 v -1.103029 c 0,0 0.101663,-2.6977568 -4.2359983,-2.7151504 C 2.7090208,8.2561806 2.8102616,10.987878 2.8102616,10.987878 Z"
           id="path2" />
        <path
           style="fill:#0f56d9;stroke-width:0.423924"
           d="m 13.823858,5.3030308 c -1.169989,0 -2.118004,0.9498786 -2.118004,2.1212118 0,1.1713334 0.948015,2.1212113 2.118004,2.1212113 1.16998,0 2.117995,-0.9498779 2.117995,-2.1212113 0,-1.1713332 -0.948015,-2.1212118 -2.117995,-2.1212118 z M 9.5878597,13.533331 v 1.103035 c 0,0 0.7819643,1.696965 4.2359983,1.696965 3.454033,0 4.235998,-1.696965 4.235998,-1.696965 v -1.103035 c 0,0 0.101657,-2.697755 -4.235998,-2.715151 -4.3372406,-0.01653 -4.2359983,2.715151 -4.2359983,2.715151 z"
           id="path3" />
        <path
           style="opacity:0.2;fill:#ffffff;stroke-width:0.423924"
           d="m 7.0462587,2.757576 c -1.1699826,0 -2.117999,0.949879 -2.117999,2.1212119 0,0.071698 0.00378,0.1425461 0.010588,0.2121215 C 5.0451712,4.0192728 5.9478621,3.181818 7.0462562,3.181818 c 1.0983947,0 2.0010857,0.8374548 2.1074097,1.9090914 0.00685,-0.06958 0.010584,-0.1404238 0.010584,-0.2121215 0,-1.1713329 -0.9480162,-2.1212119 -2.1179987,-2.1212119 z m 6.7775993,2.5454548 c -1.169989,0 -2.118004,0.9498786 -2.118004,2.1212118 0,0.071699 0.0041,0.1425453 0.01058,0.2121215 0.106326,-1.0716365 1.009013,-1.9090913 2.107413,-1.9090913 1.098391,0 2.001086,0.8374548 2.107407,1.9090913 0.007,-0.06958 0.01055,-0.1404246 0.01055,-0.2121215 0,-1.1713332 -0.948015,-2.1212118 -2.117995,-2.1212118 z M 7.0462587,8.2727276 C 2.7090208,8.256181 2.8102616,10.987878 2.8102616,10.987878 v 0.424245 c 0,0 -0.1012408,-2.7316986 4.2359971,-2.7151525 3.7264083,0.014849 4.1750003,2.0036995 4.2275253,2.5653955 -1.7397206,0.769578 -1.6859243,2.270965 -1.6859243,2.270965 v 0.424245 c 0,0 -0.1012423,-2.731698 4.2359983,-2.715151 4.337655,0.01742 4.235998,2.715151 4.235998,2.715151 v -0.424245 c 0,0 0.101657,-2.697755 -4.235998,-2.715151 -1.115345,-0.0045 -1.935855,0.173943 -2.541601,0.439943 v -0.270245 c 0,0 0.101663,-2.6977568 -4.2359983,-2.7151504 z"
           id="path4" />
      </g>
    </g>
  </g>
</svg>
