<?xml version="1.0" encoding="UTF-8" standalone="no"?>
<svg
   width="62"
   height="62"
   version="1.1"
   id="svg6"
   sodipodi:docname="preferences-system-network-server-share-windows.svg"
   inkscape:version="1.4 (e7c3feb100, 2024-10-09)"
   xmlns:inkscape="http://www.inkscape.org/namespaces/inkscape"
   xmlns:sodipodi="http://sodipodi.sourceforge.net/DTD/sodipodi-0.dtd"
   xmlns="http://www.w3.org/2000/svg"
   xmlns:svg="http://www.w3.org/2000/svg">
  <defs
     id="defs6" />
  <sodipodi:namedview
     id="namedview6"
     pagecolor="#ffffff"
     bordercolor="#000000"
     borderopacity="0.25"
     inkscape:showpageshadow="2"
     inkscape:pageopacity="0.0"
     inkscape:pagecheckerboard="0"
     inkscape:deskcolor="#d1d1d1"
     inkscape:zoom="8.3306018"
     inkscape:cx="31.150211"
     inkscape:cy="73.824198"
     inkscape:window-width="1920"
     inkscape:window-height="994"
     inkscape:window-x="0"
     inkscape:window-y="0"
     inkscape:window-maximized="1"
     inkscape:current-layer="svg6"
     showgrid="false">
    <inkscape:grid
       id="grid1"
       units="px"
       originx="0"
       originy="0"
       spacingx="1"
       spacingy="1"
       empcolor="#0099e5"
       empopacity="0.30196078"
       color="#0099e5"
       opacity="0.14901961"
       empspacing="5"
       enabled="true"
       visible="false" />
  </sodipodi:namedview>
  <g
     id="g6"
     transform="translate(-3,-3)">
    <rect
       x="6"
       y="6"
       width="56"
       height="56"
       rx="5"
       ry="5"
       style="fill:#434a56;fill-opacity:1;stroke-width:1.07686;paint-order:stroke markers fill"
       id="rect1" />
    <path
       d="M 12.461534,15.692318 H 38.307702 V 17.84616 H 12.461534 Z"
       id="path1"
       style="fill:#ffffff;fill-opacity:1" />
    <circle
       cx="45.846199"
       cy="16.769222"
       r="2.1538472"
       id="circle1"
       style="stroke-width:1.07686;fill:#72d406;fill-opacity:1" />
    <circle
       cx="54.461586"
       cy="16.769222"
       r="2.1538472"
       id="circle2"
       style="stroke-width:1.07686;fill:#72d406;fill-opacity:1" />
    <path
       d="m 12.461534,32.92309 h 25.846168 v 2.153844 H 12.461534 Z"
       id="path2"
       style="stroke-width:1.07686;fill:#ffffff;fill-opacity:1" />
    <circle
       cx="45.846199"
       cy="34"
       r="2.1538472"
       id="circle3"
       style="stroke-width:1.07686;fill:#72d406;fill-opacity:1" />
    <circle
       cx="54.461586"
       cy="34"
       r="2.1538472"
       id="circle4"
       style="stroke-width:1.07686;fill:#72d406;fill-opacity:1" />
    <path
       d="m 12.461534,50.153864 h 27.846 v 2.320493 h -27.846 z"
       id="path4"
       style="fill:#ffffff;fill-opacity:1;stroke-width:1.16021" />
    <rect
       x="6"
       y="23.230778"
       width="56"
       height="3.2307711"
       rx="0"
       ry="0"
       fill-rule="evenodd"
       opacity="0.5"
       style="stroke-width:1.07686;paint-order:fill markers stroke;fill:#000000;fill-opacity:1"
       id="rect4" />
    <rect
       x="6"
       y="40.461555"
       width="56"
       height="3.2307711"
       rx="0"
       ry="0"
       fill-rule="evenodd"
       opacity="0.5"
       style="stroke-width:1.07686;paint-order:fill markers stroke;fill:#000000;fill-opacity:1"
       id="rect5" />
    <circle
       cx="45.846199"
       cy="51.230782"
       r="2.1538472"
       id="circle5"
       style="stroke-width:1.07686;fill:#72d406;fill-opacity:1" />
    <circle
       cx="54.461586"
       cy="51.230782"
       r="2.1538472"
       id="circle6"
       style="stroke-width:1.07686;fill:#72d406;fill-opacity:1" />
  </g>
  <circle
     cx="46.75"
     cy="46.75"
     r="11.250001"
     style="fill:#2a7fff;fill-rule:evenodd;stroke-width:0.999999;paint-order:fill markers stroke"
     id="circle24" />
  <path
     d="m 47.999999,38.097499 v 1.152374 1.874998 0.624994 h 3.749991 v 1.249999 h -3.749991 v 2.500003 h 4.999998 1.249999 1.151123 A 8.7500036,8.7500036 0 0 0 54.249996,42.26743 v -0.006 a 8.7500036,8.7500036 0 0 0 -0.01852,-0.02683 8.7500036,8.7500036 0 0 0 -0.0038,-0.0072 8.7500036,8.7500036 0 0 0 -0.09763,-0.144076 8.7500036,8.7500036 0 0 0 -0.384432,-0.571399 8.7500036,8.7500036 0 0 0 -0.201411,-0.242911 8.7500036,8.7500036 0 0 0 -0.352743,-0.424845 8.7500036,8.7500036 0 0 0 -0.285657,-0.2832 8.7500036,8.7500036 0 0 0 -0.338116,-0.332032 8.7500036,8.7500036 0 0 0 -0.272202,-0.219704 8.7500036,8.7500036 0 0 0 -0.412592,-0.332031 8.7500036,8.7500036 0 0 0 -0.124384,-0.08179 8.7500036,8.7500036 0 0 0 -0.521235,-0.345449 h -0.0102 a 8.7500036,8.7500036 0 0 0 -3.227452,-1.152358 z m -2.500011,0.0049 a 8.7500036,8.7500036 0 0 0 -3.222625,1.147445 h -0.01663 a 8.7500036,8.7500036 0 0 0 -3.011498,3.012662 v 0.01701 a 8.7500036,8.7500036 0 0 0 -1.148905,3.220195 h 1.148693 1.875005 0.705544 a 2.5000015,2.5000015 0 0 1 -0.08069,-0.625001 v -0.625025 a 2.5000015,2.5000015 0 0 1 2.50004,-2.499998 h 1.250007 v -0.624889 -1.875001 -1.147434 z m -1.249973,4.897436 a 1.2587504,1.2587504 0 0 0 -0.368693,0.05616 1.2462504,1.2462504 0 0 0 -0.437026,0.238035 1.2500004,1.2500004 0 0 0 -0.307692,0.389408 1.2462504,1.2462504 0 0 0 -0.136932,0.566415 v 0.625002 a 1.2500004,1.2500004 0 0 0 0.170948,0.624975 h 2.329145 v -2.499995 h -1.249991 z m -6.151136,4.999998 a 8.7500036,8.7500036 0 0 0 1.151101,3.232449 v 0.006 a 8.7500036,8.7500036 0 0 0 0.02079,0.02683 8.7500036,8.7500036 0 0 0 0.101216,0.15137 8.7500036,8.7500036 0 0 0 0.384521,0.571287 8.7500036,8.7500036 0 0 0 0.201336,0.24291 8.7500036,8.7500036 0 0 0 0.352743,0.424804 8.7500036,8.7500036 0 0 0 0.285506,0.2832 8.7500036,8.7500036 0 0 0 0.338003,0.332032 8.7500036,8.7500036 0 0 0 0.272277,0.219741 8.7500036,8.7500036 0 0 0 0.412604,0.332032 8.7500036,8.7500036 0 0 0 0.124308,0.08179 8.7500036,8.7500036 0 0 0 0.521246,0.345449 h 0.0098 a 8.7500036,8.7500036 0 0 0 3.227468,1.152385 v -1.152246 -1.249999 -1.25 h -3.750755 v -1.249999 h 3.75001 v -2.499987 h -4.374987 -1.874983 -1.151127 z m 9.901256,0 v 2.500003 h 1.24998 a 1.2587504,1.2587504 0 0 0 0.368693,-0.05616 1.2462504,1.2462504 0 0 0 0.437016,-0.238035 1.2500004,1.2500004 0 0 0 0.307729,-0.389404 1.2462504,1.2462504 0 0 0 0.136781,-0.566408 v -0.624994 a 1.2500004,1.2500004 0 0 0 -0.170948,-0.624998 h -2.32913 z m 3.66943,0 a 2.5000015,2.5000015 0 0 1 0.08066,0.625002 v 0.625005 a 2.5000015,2.5000015 0 0 1 -2.500037,2.499999 h -1.249961 v 1.25 1.250003 1.147438 a 8.7500036,8.7500036 0 0 0 3.222603,-1.147438 h 0.01701 a 8.7500036,8.7500036 0 0 0 3.011191,-3.012688 v -0.01701 a 8.7500036,8.7500036 0 0 0 1.148667,-3.220192 h -1.148689 -1.25 -1.250007 -0.08065 z"
     fill="#ffffff"
     style="fill-rule:evenodd;stroke-width:0.999999;paint-order:fill markers stroke"
     id="path26" />
</svg>
