<?xml version="1.0" encoding="UTF-8" standalone="no"?>
<svg
   clip-rule="evenodd"
   fill-rule="evenodd"
   stroke-linejoin="round"
   stroke-miterlimit="2"
   viewBox="0 0 62 62"
   version="1.1"
   id="svg2"
   sodipodi:docname="yast-support.svg"
   width="62"
   height="62"
   inkscape:version="1.4 (e7c3feb100, 2024-10-09)"
   xmlns:inkscape="http://www.inkscape.org/namespaces/inkscape"
   xmlns:sodipodi="http://sodipodi.sourceforge.net/DTD/sodipodi-0.dtd"
   xmlns:xlink="http://www.w3.org/1999/xlink"
   xmlns="http://www.w3.org/2000/svg"
   xmlns:svg="http://www.w3.org/2000/svg">
  <defs
     id="defs2">
    <linearGradient
       id="linearGradient2"
       inkscape:collect="always">
      <stop
         style="stop-color:#028353;stop-opacity:1;"
         offset="0"
         id="stop3" />
      <stop
         style="stop-color:#03c97f;stop-opacity:1;"
         offset="1"
         id="stop4" />
    </linearGradient>
    <linearGradient
       inkscape:collect="always"
       xlink:href="#linearGradient2"
       id="linearGradient4"
       x1="32.341839"
       y1="1.4022814"
       x2="32.035549"
       y2="57.080647"
       gradientUnits="userSpaceOnUse" />
  </defs>
  <sodipodi:namedview
     id="namedview2"
     pagecolor="#ffffff"
     bordercolor="#000000"
     borderopacity="0.25"
     inkscape:showpageshadow="2"
     inkscape:pageopacity="0.0"
     inkscape:pagecheckerboard="0"
     inkscape:deskcolor="#d1d1d1"
     inkscape:zoom="7.8541667"
     inkscape:cx="22.344828"
     inkscape:cy="16.297082"
     inkscape:window-width="1920"
     inkscape:window-height="994"
     inkscape:window-x="0"
     inkscape:window-y="0"
     inkscape:window-maximized="1"
     inkscape:current-layer="svg2" />
  <linearGradient
     id="a"
     x2="1"
     gradientTransform="matrix(0,-54.000159,54.000159,0,160.34154,55.906725)"
     gradientUnits="userSpaceOnUse">
    <stop
       stop-color="#028353"
       offset="0"
       id="stop1" />
    <stop
       stop-color="#4bd694"
       offset="1"
       id="stop2" />
  </linearGradient>
  <g
     id="g2"
     transform="translate(1.8040009,1.7749996)">
    <circle
       cx="29.195999"
       cy="29.225"
       r="28"
       id="circle2"
       style="fill:url(#linearGradient4)" />
    <path
       d="M 31.697241,47.194779 C 31.015347,47.881593 30.154082,48.225 29.114866,48.225 c -1.040636,0 -1.918983,-0.343407 -2.635044,-1.030221 -0.681895,-0.686816 -1.022131,-1.510149 -1.022131,-2.471408 0,-0.96126 0.340236,-1.784594 1.022131,-2.471408 0.716061,-0.686815 1.594408,-1.030222 2.635044,-1.030222 1.039216,0 1.900481,0.343407 2.582375,1.030222 0.71606,0.686814 1.074804,1.510148 1.074804,2.471408 0,0.961259 -0.358744,1.784592 -1.074804,2.471408 z m -0.05411,-10.708964 h -5.056552 v -2.42074 c 0,-1.545334 0.341659,-2.86689 1.022128,-3.964667 0.681897,-1.132963 1.883397,-2.454519 3.604504,-3.964667 0.968034,-0.858518 1.648505,-1.49326 2.044261,-1.90563 0.429919,-0.446148 0.841335,-1.047111 1.237091,-1.801482 0.429922,-0.789555 0.644883,-1.595999 0.644883,-2.42074 0,-1.579111 -0.538114,-2.848592 -1.614341,-3.809852 -1.039213,-0.961259 -2.491264,-1.441185 -4.356155,-1.441185 -3.083473,0 -5.200335,1.646667 -6.34774,4.942815 l -4.625211,-1.853556 c 0.753073,-1.957703 2.04426,-3.708518 3.872139,-5.252445 1.864886,-1.579111 4.232299,-2.368666 7.100812,-2.368666 3.262846,0 5.916399,0.927482 7.960659,2.781037 2.044259,1.818371 3.06639,4.15326 3.06639,7.001852 0,1.235704 -0.34166,2.489704 -1.022131,3.759185 -0.681894,1.269481 -1.291184,2.180075 -1.829298,2.728963 -0.502523,0.515112 -1.218584,1.18363 -2.151029,2.00837 -0.108193,0.102739 -0.197878,0.188593 -0.269056,0.257556 -2.188043,1.887333 -3.281354,3.774667 -3.281354,5.663407 z"
       fill-opacity="0.85"
       fill-rule="nonzero"
       id="path2"
       style="fill:#ffffff;fill-opacity:0.85;stroke-width:1.41546" />
  </g>
</svg>
