<?xml version="1.0" encoding="UTF-8" standalone="no"?>
<svg
   viewBox="0 0 16 16"
   version="1.1"
   id="svg6"
   sodipodi:docname="folder-slot.svg"
   inkscape:version="1.4 (e7c3feb100, 2024-10-09)"
   xmlns:inkscape="http://www.inkscape.org/namespaces/inkscape"
   xmlns:sodipodi="http://sodipodi.sourceforge.net/DTD/sodipodi-0.dtd"
   xmlns="http://www.w3.org/2000/svg"
   xmlns:svg="http://www.w3.org/2000/svg"
   xmlns:rdf="http://www.w3.org/1999/02/22-rdf-syntax-ns#"
   xmlns:cc="http://creativecommons.org/ns#"
   xmlns:dc="http://purl.org/dc/elements/1.1/">
  <metadata
     id="metadata10">
    <rdf:RDF>
      <cc:Work
         rdf:about="">
        <dc:format>image/svg+xml</dc:format>
        <dc:type
           rdf:resource="http://purl.org/dc/dcmitype/StillImage" />
      </cc:Work>
    </rdf:RDF>
  </metadata>
  <sodipodi:namedview
     pagecolor="#ffffff"
     bordercolor="#666666"
     borderopacity="1"
     objecttolerance="10"
     gridtolerance="10"
     guidetolerance="10"
     inkscape:pageopacity="0"
     inkscape:pageshadow="2"
     inkscape:window-width="1920"
     inkscape:window-height="998"
     id="namedview8"
     showgrid="false"
     inkscape:zoom="39.25"
     inkscape:cx="8.0254777"
     inkscape:cy="8.0254777"
     inkscape:window-x="0"
     inkscape:window-y="0"
     inkscape:window-maximized="1"
     inkscape:current-layer="svg6"
     inkscape:showpageshadow="2"
     inkscape:pagecheckerboard="0"
     inkscape:deskcolor="#d1d1d1">
    <inkscape:grid
       type="xygrid"
       id="grid863"
       originx="0"
       originy="0"
       spacingy="1"
       spacingx="1"
       units="px"
       visible="false" />
  </sodipodi:namedview>
  <defs
     id="defs3051">
    <style
       type="text/css"
       id="current-color-scheme">.ColorScheme-Text { color:#eff0f1; }
</style>
  </defs>
  <path
     d="m 13.487206,3.8014761 -1.285529,-1.671187 c -0.128553,-0.128553 -0.342808,-0.171404 -0.514212,-0.085702 l -0.51421,0.257107 C 9.9305767,2.9016061 8.5593465,3.0301601 7.2309672,2.6445001 6.6739048,2.4730971 6.0739916,2.4302461 5.5169292,2.4302461 h -2.656758 c -0.257106,0 -0.4285096,0.171404 -0.4285096,0.428509 v 4.97071 c 0,0.257106 0.1714042,0.428509 0.4285096,0.428509 h 1.7140375 c 0.257106,0 0.4285096,-0.171403 0.4285096,-0.428509 0,-0.685615 0.5570624,-1.242677 1.2855284,-1.242677 H 7.5309236 L 6.8881594,7.3581051 C 5.3883765,9.1578431 4.3171032,11.214689 3.71719,13.485789 c 0,0.0857 0,0.257106 0.085702,0.342807 C 3.888594,13.914296 4.0171465,14 4.1456992,14 h 5.5706225 c 0.257107,0 0.4285103,-0.171404 0.4285103,-0.428509 0,-2.356802 0.642764,-4.6707529 1.84259,-6.7275979 l 1.499784,-2.571057 c 0.128552,-0.128553 0.0857,-0.299956 0,-0.47136 z"
     id="path1"
     style="fill:#edf2f8;fill-opacity:1;stroke-width:0.42851"
     sodipodi:nodetypes="ccsccsssssssscscssssscc" />
</svg>
