<?xml version="1.0" encoding="UTF-8" standalone="no"?>
<svg
   width="62"
   height="62"
   version="1"
   id="svg7"
   sodipodi:docname="memory.svg"
   inkscape:version="1.4 (e7c3feb100, 2024-10-09)"
   xmlns:inkscape="http://www.inkscape.org/namespaces/inkscape"
   xmlns:sodipodi="http://sodipodi.sourceforge.net/DTD/sodipodi-0.dtd"
   xmlns:xlink="http://www.w3.org/1999/xlink"
   xmlns="http://www.w3.org/2000/svg"
   xmlns:svg="http://www.w3.org/2000/svg">
  <defs
     id="defs7">
    <linearGradient
       id="linearGradient7"
       inkscape:collect="always">
      <stop
         style="stop-color:#566c80;stop-opacity:1;"
         offset="0"
         id="stop7" />
      <stop
         style="stop-color:#29323d;stop-opacity:1;"
         offset="1"
         id="stop8" />
    </linearGradient>
    <linearGradient
       id="paint587_linear_890_11"
       x1="407"
       y1="317"
       x2="351.659"
       y2="269.565"
       gradientUnits="userSpaceOnUse">
      <stop
         stop-color="#2E2E41"
         id="stop1917" />
      <stop
         offset="1"
         stop-color="#566C80"
         id="stop1918" />
    </linearGradient>
    <linearGradient
       id="paint588_linear_890_11"
       x1="401"
       y1="311"
       x2="388.077"
       y2="291.61499"
       gradientUnits="userSpaceOnUse">
      <stop
         stop-color="#71706E"
         id="stop1919" />
      <stop
         offset="1"
         stop-color="#B9AA99"
         id="stop1920" />
    </linearGradient>
    <linearGradient
       id="paint590_linear_890_11"
       x1="401"
       y1="280"
       x2="392.694"
       y2="256.99899"
       gradientUnits="userSpaceOnUse">
      <stop
         stop-color="#FF7E07"
         id="stop1923" />
      <stop
         offset="1"
         stop-color="#FFE607"
         id="stop1924" />
    </linearGradient>
    <linearGradient
       inkscape:collect="always"
       xlink:href="#paint588_linear_890_11"
       id="linearGradient1"
       gradientUnits="userSpaceOnUse"
       x1="401"
       y1="311"
       x2="388.077"
       y2="291.61499" />
    <linearGradient
       inkscape:collect="always"
       xlink:href="#paint588_linear_890_11"
       id="linearGradient2"
       gradientUnits="userSpaceOnUse"
       x1="401"
       y1="311"
       x2="388.077"
       y2="291.61499" />
    <linearGradient
       inkscape:collect="always"
       xlink:href="#paint590_linear_890_11"
       id="linearGradient3"
       gradientUnits="userSpaceOnUse"
       x1="401"
       y1="280"
       x2="392.694"
       y2="256.99899" />
    <linearGradient
       inkscape:collect="always"
       xlink:href="#paint590_linear_890_11"
       id="linearGradient4"
       gradientUnits="userSpaceOnUse"
       x1="401"
       y1="280"
       x2="392.694"
       y2="256.99899" />
    <linearGradient
       inkscape:collect="always"
       xlink:href="#paint590_linear_890_11"
       id="linearGradient5"
       gradientUnits="userSpaceOnUse"
       x1="401"
       y1="280"
       x2="392.694"
       y2="256.99899" />
    <linearGradient
       inkscape:collect="always"
       xlink:href="#paint590_linear_890_11"
       id="linearGradient6"
       gradientUnits="userSpaceOnUse"
       x1="401"
       y1="280"
       x2="392.694"
       y2="256.99899" />
    <linearGradient
       inkscape:collect="always"
       xlink:href="#linearGradient7"
       id="linearGradient8"
       x1="355.60477"
       y1="273.89124"
       x2="407"
       y2="317"
       gradientUnits="userSpaceOnUse" />
  </defs>
  <sodipodi:namedview
     id="namedview7"
     pagecolor="#ffffff"
     bordercolor="#000000"
     borderopacity="0.25"
     inkscape:showpageshadow="2"
     inkscape:pageopacity="0.0"
     inkscape:pagecheckerboard="0"
     inkscape:deskcolor="#d1d1d1"
     inkscape:zoom="5.890625"
     inkscape:cx="22.66313"
     inkscape:cy="14.769231"
     inkscape:window-width="1920"
     inkscape:window-height="994"
     inkscape:window-x="0"
     inkscape:window-y="0"
     inkscape:window-maximized="1"
     inkscape:current-layer="svg7" />
  <g
     id="g2272"
     transform="translate(-352,-258)">
    <path
       d="m 359,311 v -44 c 0,-3.314 2.686,-6 6,-6 h 30.786 c 1.5,0 2.947,0.562 4.053,1.576 l 5.215,4.779 c 1.24,1.136 1.946,2.741 1.946,4.423 V 277 c 0,0.552 -0.448,1 -1,1 -0.552,0 -1,0.448 -1,1 v 4 c 0,0.552 0.448,1 1,1 0.552,0 1,0.448 1,1 v 26 c 0,3.314 -2.686,6 -6,6 h -36 c -3.314,0 -6,-2.686 -6,-6 z"
       id="path574"
       style="fill:url(#linearGradient8)" />
    <path
       d="m 393.52,306.556 c 0,0.056 0.029,0.084 0.085,0.084 l 0.197,-0.014 c 0.15,-0.01 0.277,-0.079 0.38,-0.21 0.104,-0.13 0.16,-0.298 0.17,-0.503 v -3.84 c 0,-0.215 -0.052,-0.387 -0.155,-0.517 -0.104,-0.13 -0.24,-0.196 -0.409,-0.196 h -0.183 c -0.056,0 -0.085,0.028 -0.085,0.084 z"
       fill="url(#paint588_linear_890_11)"
       id="path575"
       style="fill:url(#linearGradient1)" />
    <path
       fill-rule="evenodd"
       clip-rule="evenodd"
       d="m 380,301 c 0,-2.209 1.791,-4 4,-4 h 13 c 2.209,0 4,1.791 4,4 v 6 c 0,2.209 -1.791,4 -4,4 h -13 c -2.209,0 -4,-1.791 -4,-4 z m 11.083,7.888 c -0.066,0 -0.117,-0.018 -0.155,-0.056 -0.037,-0.037 -0.056,-0.088 -0.056,-0.153 v -9.358 c 0,-0.065 0.019,-0.116 0.056,-0.153 0.038,-0.038 0.089,-0.056 0.155,-0.056 h 2.775 c 0.62,0 1.165,0.116 1.635,0.349 0.479,0.233 0.85,0.563 1.113,0.992 0.263,0.419 0.394,0.903 0.394,1.452 v 4.19 c 0,0.549 -0.131,1.038 -0.394,1.466 -0.263,0.419 -0.634,0.745 -1.113,0.978 -0.47,0.233 -1.015,0.349 -1.635,0.349 z m -5.648,-0.223 c 0.437,0.223 0.947,0.335 1.531,0.335 0.874,0 1.58,-0.251 2.118,-0.754 0.537,-0.503 0.806,-1.178 0.806,-2.025 0,-0.457 -0.086,-0.852 -0.26,-1.187 -0.164,-0.345 -0.396,-0.652 -0.696,-0.922 -0.292,-0.27 -0.729,-0.624 -1.312,-1.062 -0.438,-0.326 -0.729,-0.572 -0.875,-0.74 -0.146,-0.177 -0.219,-0.358 -0.219,-0.545 0,-0.158 0.032,-0.284 0.096,-0.377 0.073,-0.093 0.168,-0.139 0.287,-0.139 0.118,0 0.214,0.046 0.287,0.139 0.073,0.084 0.109,0.196 0.109,0.335 v 0.364 c 0,0.065 0.018,0.116 0.055,0.153 0.036,0.037 0.086,0.056 0.15,0.056 h 2.118 c 0.064,0 0.114,-0.019 0.151,-0.056 0.036,-0.037 0.054,-0.088 0.054,-0.153 v -0.308 c 0,-0.549 -0.123,-1.033 -0.369,-1.452 -0.236,-0.419 -0.578,-0.745 -1.024,-0.978 -0.438,-0.233 -0.948,-0.349 -1.531,-0.349 -0.574,0 -1.084,0.116 -1.531,0.349 -0.437,0.233 -0.779,0.559 -1.025,0.978 -0.237,0.419 -0.355,0.903 -0.355,1.452 0,0.531 0.109,1.001 0.328,1.411 0.219,0.41 0.474,0.749 0.765,1.019 0.301,0.271 0.679,0.568 1.135,0.894 0.464,0.336 0.769,0.582 0.915,0.741 0.146,0.149 0.219,0.302 0.219,0.46 0,0.131 -0.037,0.238 -0.109,0.322 -0.073,0.083 -0.164,0.125 -0.274,0.125 -0.109,0 -0.2,-0.046 -0.273,-0.139 -0.073,-0.093 -0.109,-0.214 -0.109,-0.363 v -0.308 c 0,-0.065 -0.019,-0.116 -0.055,-0.153 -0.037,-0.038 -0.087,-0.056 -0.15,-0.056 h -2.132 c -0.064,0 -0.114,0.018 -0.151,0.056 -0.036,0.037 -0.054,0.088 -0.054,0.153 v 0.433 c 0,0.512 0.118,0.969 0.355,1.369 0.246,0.391 0.588,0.698 1.025,0.922 z"
       id="path576"
       style="fill:url(#linearGradient2)" />
    <path
       d="m 367,267 c -1.105,0 -2,0.895 -2,2 v 9 c 0,1.105 0.895,2 2,2 h 2 c 1.105,0 2,-0.895 2,-2 v -9 c 0,-1.105 -0.895,-2 -2,-2 z"
       id="path577"
       style="fill:url(#linearGradient3)" />
    <path
       d="m 377,267 c -1.105,0 -2,0.895 -2,2 v 9 c 0,1.105 0.895,2 2,2 h 2 c 1.105,0 2,-0.895 2,-2 v -9 c 0,-1.105 -0.895,-2 -2,-2 z"
       id="path578"
       style="fill:url(#linearGradient4)" />
    <path
       d="m 385,269 c 0,-1.105 0.895,-2 2,-2 h 2 c 1.105,0 2,0.895 2,2 v 9 c 0,1.105 -0.895,2 -2,2 h -2 c -1.105,0 -2,-0.895 -2,-2 z"
       id="path579"
       style="fill:url(#linearGradient5)" />
    <path
       d="m 397,270 c -1.105,0 -2,0.895 -2,2 v 6 c 0,1.105 0.895,2 2,2 h 2 c 1.105,0 2,-0.895 2,-2 v -6 c 0,-1.105 -0.895,-2 -2,-2 z"
       id="path580"
       style="fill:url(#linearGradient6)" />
  </g>
</svg>
