<?xml version="1.0" encoding="UTF-8" standalone="no"?>
<svg
   width="62"
   height="62"
   viewBox="0 0 16.404167 16.404167"
   version="1.1"
   id="svg1114"
   inkscape:version="1.4 (e7c3feb100, 2024-10-09)"
   sodipodi:docname="media-optical.svg"
   xmlns:inkscape="http://www.inkscape.org/namespaces/inkscape"
   xmlns:sodipodi="http://sodipodi.sourceforge.net/DTD/sodipodi-0.dtd"
   xmlns="http://www.w3.org/2000/svg"
   xmlns:svg="http://www.w3.org/2000/svg"
   xmlns:rdf="http://www.w3.org/1999/02/22-rdf-syntax-ns#"
   xmlns:cc="http://creativecommons.org/ns#"
   xmlns:dc="http://purl.org/dc/elements/1.1/">
  <style
     type="text/css"
     id="current-color-scheme">.ColorScheme-Highlight { color:#5599ff; }
</style>
  <defs
     id="defs1108">
    <linearGradient
       id="linearGradient1167"
       x1="40.751999"
       x2="40.751999"
       y1="28.507999"
       y2="17.205999"
       gradientUnits="userSpaceOnUse">
      <stop
         style="stop-color:#84fb6e;stop-opacity:1"
         stop-color="#0ab816"
         offset="0"
         id="stop1163" />
      <stop
         style="stop-color:#0dd41a;stop-opacity:1"
         stop-color="#0cf36c"
         offset="1"
         id="stop1165" />
    </linearGradient>
    <linearGradient
       id="paint2_linear_77:3-7"
       x1="79.398094"
       y1="-197.84389"
       x2="82.901054"
       y2="-199.97827"
       gradientUnits="userSpaceOnUse"
       gradientTransform="matrix(1.9248511,0,0,1.7314595,-40.88733,399.61741)">
      <stop
         stop-color="#EBFAFF"
         stop-opacity="0.1"
         id="stop29-5-7"
         offset="0"
         style="stop-color:#c3c3c3;stop-opacity:1;" />
      <stop
         offset="1"
         stop-color="#70A9FF"
         stop-opacity="0.5"
         id="stop30-0-1"
         style="stop-color:#05c7ff;stop-opacity:0.80000001;" />
    </linearGradient>
    <linearGradient
       id="s"
       x1="-1129.7"
       x2="-1106.6"
       y1="944.53003"
       y2="962.73999"
       gradientTransform="matrix(0,0.40207388,0.41695162,0,-390.17644,457.42892)"
       gradientUnits="userSpaceOnUse">
      <stop
         stop-color="#BFBFBF"
         offset="0"
         id="stop5-6" />
      <stop
         stop-color="#fff"
         offset=".5"
         id="stop6-7" />
      <stop
         stop-color="#BFBFBF"
         offset="1"
         id="stop7-3" />
    </linearGradient>
    <linearGradient
       id="r"
       x1="-1196.7"
       x2="-1197.3"
       y1="860.46002"
       y2="818.53998"
       gradientTransform="matrix(0.13146862,0,0,0.12678365,-0.90065977,-0.19696512)"
       gradientUnits="userSpaceOnUse">
      <stop
         stop-color="#323232"
         offset="0"
         id="stop8-5"
         style="stop-color:#000000;stop-opacity:1;" />
      <stop
         offset="1"
         id="stop9-6" />
    </linearGradient>
  </defs>
  <sodipodi:namedview
     id="base"
     pagecolor="#e2e2e2"
     bordercolor="#666666"
     borderopacity="1.0"
     inkscape:pageopacity="0"
     inkscape:pageshadow="2"
     inkscape:zoom="9.7248729"
     inkscape:cx="33.727947"
     inkscape:cy="39.383548"
     inkscape:document-units="px"
     inkscape:current-layer="layer1"
     inkscape:document-rotation="0"
     showgrid="false"
     units="px"
     inkscape:window-width="1920"
     inkscape:window-height="994"
     inkscape:window-x="0"
     inkscape:window-y="0"
     inkscape:window-maximized="1"
     inkscape:object-paths="true"
     inkscape:snap-grids="true"
     inkscape:snap-intersection-paths="true"
     inkscape:snap-smooth-nodes="true"
     inkscape:snap-midpoints="true"
     inkscape:showpageshadow="2"
     inkscape:pagecheckerboard="0"
     inkscape:deskcolor="#d1d1d1">
    <inkscape:grid
       id="grid2"
       units="px"
       originx="0"
       originy="0"
       spacingx="0.26458333"
       spacingy="0.26458333"
       empcolor="#0099e5"
       empopacity="0.30196078"
       color="#0099e5"
       opacity="0.14902"
       empspacing="5"
       dotted="false"
       gridanglex="30"
       gridanglez="30"
       visible="false" />
  </sodipodi:namedview>
  <metadata
     id="metadata1111">
    <rdf:RDF>
      <cc:Work
         rdf:about="">
        <dc:format>image/svg+xml</dc:format>
        <dc:type
           rdf:resource="http://purl.org/dc/dcmitype/StillImage" />
      </cc:Work>
    </rdf:RDF>
  </metadata>
  <g
     inkscape:label="Layer 1"
     inkscape:groupmode="layer"
     id="layer1">
    <g
       id="g1"
       transform="translate(0.04625308,-0.3671815)">
      <path
         d="m 15.440454,8.5692634 c 0,-4.037794 -3.246831,-7.2846234 -7.2846244,-7.2846234 -4.0378839,0 -7.28462267,3.2468294 -7.28462267,7.2846234 0,4.0378946 3.24692537,7.2846266 7.28462267,7.2846266 4.0379804,0 7.2846244,-3.246732 7.2846244,-7.2846266 z m -4.619619,0 c 0,1.4668226 -1.1687924,2.6650796 -2.6650984,2.6650796 -1.5256202,0 -2.6650971,-1.227785 -2.6650971,-2.6650796 0,-1.466625 1.0807526,-2.665078 2.6650971,-2.665078 1.584345,0 2.6650984,1.227498 2.6650984,2.665078 z"
         stroke="#999999"
         stroke-width="0.247415"
         id="path12"
         style="fill:url(#s)" />
      <path
         d="m 8.1667526,5.8081474 c -1.5215118,0 -2.756404,1.234854 -2.756404,2.756373 0,1.5214196 1.2348922,2.7563726 2.756404,2.7563726 1.521514,0 2.7564074,-1.234853 2.7564074,-2.7563726 0,-1.521422 -1.2348934,-2.756373 -2.7564074,-2.756373 z m 0,1.378138 c 0.760747,0 1.378203,0.617456 1.378203,1.378138 0,0.76076 -0.617456,1.378143 -1.378203,1.378143 -0.7607463,0 -1.3782019,-0.617461 -1.3782019,-1.378143 0,-0.760758 0.6174556,-1.378138 1.3782019,-1.378138 z"
         enable-background="new    "
         fill="#323232"
         opacity="0.2"
         id="path13"
         style="stroke-width:0.935121" />
      <path
         d="m 8.1723546,11.3116 c -1.5267403,0 -2.7544437,-1.227689 -2.7544437,-2.7544366 0,-1.526747 1.2277034,-2.754437 2.7544437,-2.754437 1.526741,0 2.7544464,1.22769 2.7544464,2.754437 0,1.5267476 -1.2277054,2.7544366 -2.7544464,2.7544366 z"
         enable-background="new    "
         fill="none"
         opacity="0.1"
         stroke-width="2.96901"
         id="path14-7"
         style="opacity:0.304158;stroke:url(#r)" />
    </g>
    <path
       d="M 8.2020827,6.879167 C 8.932714,6.879167 9.525,7.471453 9.525,8.202083 9.525,8.932714 8.9327139,9.525 8.2020827,9.525 7.4714533,9.525 6.8791669,8.932714 6.8791669,8.202083 c 0,-0.73063 0.5922864,-1.322916 1.3229158,-1.322916 z"
       id="path4"
       style="fill:#637382;fill-opacity:1;stroke-width:0.120266" />
  </g>
</svg>
