<?xml version="1.0" encoding="UTF-8" standalone="no"?>
<svg
   width="62"
   height="62"
   viewBox="0 0 16.404167 16.404167"
   version="1.1"
   id="svg1114"
   inkscape:version="1.4 (e7c3feb100, 2024-10-09)"
   sodipodi:docname="media-optical-dvd.svg"
   xmlns:inkscape="http://www.inkscape.org/namespaces/inkscape"
   xmlns:sodipodi="http://sodipodi.sourceforge.net/DTD/sodipodi-0.dtd"
   xmlns="http://www.w3.org/2000/svg"
   xmlns:svg="http://www.w3.org/2000/svg"
   xmlns:rdf="http://www.w3.org/1999/02/22-rdf-syntax-ns#"
   xmlns:cc="http://creativecommons.org/ns#"
   xmlns:dc="http://purl.org/dc/elements/1.1/">
  <style
     type="text/css"
     id="current-color-scheme">.ColorScheme-Highlight { color:#5599ff; }
</style>
  <defs
     id="defs1108">
    <linearGradient
       id="linearGradient1167"
       x1="40.751999"
       x2="40.751999"
       y1="28.507999"
       y2="17.205999"
       gradientUnits="userSpaceOnUse">
      <stop
         style="stop-color:#84fb6e;stop-opacity:1"
         stop-color="#0ab816"
         offset="0"
         id="stop1163" />
      <stop
         style="stop-color:#0dd41a;stop-opacity:1"
         stop-color="#0cf36c"
         offset="1"
         id="stop1165" />
    </linearGradient>
    <linearGradient
       id="paint2_linear_77:3-7"
       x1="79.398094"
       y1="-197.84389"
       x2="82.901054"
       y2="-199.97827"
       gradientUnits="userSpaceOnUse"
       gradientTransform="matrix(1.9248511,0,0,1.7314595,-40.88733,399.61741)">
      <stop
         stop-color="#EBFAFF"
         stop-opacity="0.1"
         id="stop29-5-7"
         offset="0"
         style="stop-color:#c3c3c3;stop-opacity:1;" />
      <stop
         offset="1"
         stop-color="#70A9FF"
         stop-opacity="0.5"
         id="stop30-0-1"
         style="stop-color:#05c7ff;stop-opacity:0.80000001;" />
    </linearGradient>
    <linearGradient
       id="s"
       x1="-1129.7"
       x2="-1106.6"
       y1="944.53003"
       y2="962.73999"
       gradientTransform="matrix(0,0.40207391,0.41695166,0,-403.17754,457.59493)"
       gradientUnits="userSpaceOnUse">
      <stop
         stop-color="#BFBFBF"
         offset="0"
         id="stop5-6" />
      <stop
         stop-color="#fff"
         offset=".5"
         id="stop6-7" />
      <stop
         stop-color="#BFBFBF"
         offset="1"
         id="stop7-3" />
    </linearGradient>
    <linearGradient
       id="r"
       x1="-1196.7"
       x2="-1197.3"
       y1="860.46002"
       y2="818.53998"
       gradientTransform="matrix(0.13146863,0,0,0.12678366,-13.901726,-0.03100634)"
       gradientUnits="userSpaceOnUse">
      <stop
         stop-color="#323232"
         offset="0"
         id="stop8-5"
         style="stop-color:#000000;stop-opacity:1;" />
      <stop
         offset="1"
         id="stop9-6" />
    </linearGradient>
  </defs>
  <sodipodi:namedview
     id="base"
     pagecolor="#e2e2e2"
     bordercolor="#666666"
     borderopacity="1.0"
     inkscape:pageopacity="0"
     inkscape:pageshadow="2"
     inkscape:zoom="6.8765236"
     inkscape:cx="-1.7450678"
     inkscape:cy="36.646424"
     inkscape:document-units="px"
     inkscape:current-layer="layer1"
     inkscape:document-rotation="0"
     showgrid="false"
     units="px"
     inkscape:window-width="1920"
     inkscape:window-height="994"
     inkscape:window-x="0"
     inkscape:window-y="0"
     inkscape:window-maximized="1"
     inkscape:object-paths="true"
     inkscape:snap-grids="true"
     inkscape:snap-intersection-paths="true"
     inkscape:snap-smooth-nodes="true"
     inkscape:snap-midpoints="true"
     inkscape:showpageshadow="2"
     inkscape:pagecheckerboard="0"
     inkscape:deskcolor="#d1d1d1">
    <inkscape:grid
       id="grid2"
       units="px"
       originx="0"
       originy="0"
       spacingx="0.26458333"
       spacingy="0.26458333"
       empcolor="#0099e5"
       empopacity="0.30196078"
       color="#0099e5"
       opacity="0.14902"
       empspacing="5"
       dotted="false"
       gridanglex="30"
       gridanglez="30"
       visible="false" />
  </sodipodi:namedview>
  <metadata
     id="metadata1111">
    <rdf:RDF>
      <cc:Work
         rdf:about="">
        <dc:format>image/svg+xml</dc:format>
        <dc:type
           rdf:resource="http://purl.org/dc/dcmitype/StillImage" />
      </cc:Work>
    </rdf:RDF>
  </metadata>
  <g
     inkscape:label="Layer 1"
     inkscape:groupmode="layer"
     id="layer1">
    <g
       id="g1"
       transform="translate(13.047319,-0.5331406)">
      <path
         d="m 2.4393877,8.7352235 c 0,-4.0377948 -3.24683174,-7.2846243 -7.2846241,-7.2846243 -4.0378843,0 -7.2846226,3.2468295 -7.2846226,7.2846243 0,4.0378935 3.246925,7.2846255 7.2846226,7.2846255 4.03797984,0 7.2846241,-3.246732 7.2846241,-7.2846255 z m -4.619619,0 c 0,1.4668215 -1.1687928,2.6650785 -2.6650986,2.6650785 -1.5256199,0 -2.6650969,-1.227785 -2.6650969,-2.6650785 0,-1.4666255 1.0807526,-2.6650781 2.6650969,-2.6650781 1.5843451,0 2.6650986,1.2274969 2.6650986,2.6650781 z"
         stroke="#999999"
         stroke-width="0.247415"
         id="path12"
         style="fill:url(#s)" />
      <path
         d="m -4.8343133,5.9741065 c -1.521512,0 -2.7564043,1.2348545 -2.7564043,2.7563735 0,1.52142 1.2348923,2.756373 2.7564043,2.756373 1.5215139,0 2.7564061,-1.234853 2.7564061,-2.756373 0,-1.5214221 -1.2348922,-2.7563735 -2.7564061,-2.7563735 z m 0,1.3781383 c 0.7607469,0 1.3782027,0.6174562 1.3782027,1.3781386 0,0.7607591 -0.6174558,1.3781416 -1.3782027,1.3781416 -0.7607466,0 -1.3782021,-0.6174596 -1.3782021,-1.3781416 0,-0.7607595 0.6174555,-1.3781386 1.3782021,-1.3781386 z"
         enable-background="new    "
         fill="#323232"
         opacity="0.2"
         id="path13"
         style="stroke-width:0.935121" />
      <path
         d="m -4.8287116,11.477559 c -1.5267402,0 -2.7544437,-1.227689 -2.7544437,-2.7544367 0,-1.526747 1.2277035,-2.7544372 2.7544437,-2.7544372 1.5267409,0 2.7544456,1.2276902 2.7544456,2.7544372 0,1.5267477 -1.2277047,2.7544367 -2.7544456,2.7544367 z"
         enable-background="new    "
         fill="none"
         opacity="0.1"
         stroke-width="2.96901"
         id="path14-7"
         style="opacity:0.304158;stroke:url(#r)" />
    </g>
    <path
       d="m 8.2020825,6.8791669 c 0.7306313,0 1.3229177,0.5922864 1.3229177,1.3229166 0,0.7306306 -0.5922864,1.3229166 -1.3229177,1.3229166 -0.7306293,0 -1.3229157,-0.592286 -1.3229157,-1.3229166 0,-0.7306302 0.5922864,-1.3229166 1.3229157,-1.3229166 z"
       id="path4"
       style="fill:#ab37c8;stroke-width:0.120266" />
  </g>
</svg>
