<?xml version="1.0" encoding="UTF-8" standalone="no"?>
<svg
   width="62"
   height="62"
   viewBox="0 0 16.404167 16.404167"
   version="1.1"
   id="svg1114"
   inkscape:version="1.4 (e7c3feb100, 2024-10-09)"
   sodipodi:docname="media-optical-recordable.svg"
   xmlns:inkscape="http://www.inkscape.org/namespaces/inkscape"
   xmlns:sodipodi="http://sodipodi.sourceforge.net/DTD/sodipodi-0.dtd"
   xmlns="http://www.w3.org/2000/svg"
   xmlns:svg="http://www.w3.org/2000/svg"
   xmlns:rdf="http://www.w3.org/1999/02/22-rdf-syntax-ns#"
   xmlns:cc="http://creativecommons.org/ns#"
   xmlns:dc="http://purl.org/dc/elements/1.1/">
  <style
     type="text/css"
     id="current-color-scheme">.ColorScheme-Highlight { color:#5599ff; }
</style>
  <defs
     id="defs1108">
    <linearGradient
       id="linearGradient1167"
       x1="40.751999"
       x2="40.751999"
       y1="28.507999"
       y2="17.205999"
       gradientUnits="userSpaceOnUse">
      <stop
         style="stop-color:#84fb6e;stop-opacity:1"
         stop-color="#0ab816"
         offset="0"
         id="stop1163" />
      <stop
         style="stop-color:#0dd41a;stop-opacity:1"
         stop-color="#0cf36c"
         offset="1"
         id="stop1165" />
    </linearGradient>
    <linearGradient
       id="paint2_linear_77:3-7"
       x1="79.398094"
       y1="-197.84389"
       x2="82.901054"
       y2="-199.97827"
       gradientUnits="userSpaceOnUse"
       gradientTransform="matrix(1.9248511,0,0,1.7314595,-40.88733,399.61741)">
      <stop
         stop-color="#EBFAFF"
         stop-opacity="0.1"
         id="stop29-5-7"
         offset="0"
         style="stop-color:#c3c3c3;stop-opacity:1;" />
      <stop
         offset="1"
         stop-color="#70A9FF"
         stop-opacity="0.5"
         id="stop30-0-1"
         style="stop-color:#05c7ff;stop-opacity:0.80000001;" />
    </linearGradient>
    <linearGradient
       id="s"
       x1="-1129.7"
       x2="-1106.6"
       y1="944.53003"
       y2="962.73999"
       gradientTransform="matrix(0,0.33027508,0.34249609,0,-318.20579,377.70211)"
       gradientUnits="userSpaceOnUse">
      <stop
         stop-color="#BFBFBF"
         offset="0"
         id="stop5-6" />
      <stop
         stop-color="#fff"
         offset=".5"
         id="stop6-7" />
      <stop
         stop-color="#BFBFBF"
         offset="1"
         id="stop7-3" />
    </linearGradient>
    <linearGradient
       id="r"
       x1="-1196.7"
       x2="-1197.3"
       y1="860.46002"
       y2="818.53998"
       gradientTransform="matrix(0.10799212,0,0,0.10414375,1.5565706,1.7949999)"
       gradientUnits="userSpaceOnUse">
      <stop
         stop-color="#323232"
         offset="0"
         id="stop8-5"
         style="stop-color:#000000;stop-opacity:1;" />
      <stop
         offset="1"
         id="stop9-6" />
    </linearGradient>
  </defs>
  <sodipodi:namedview
     id="base"
     pagecolor="#e2e2e2"
     bordercolor="#666666"
     borderopacity="1.0"
     inkscape:pageopacity="0"
     inkscape:pageshadow="2"
     inkscape:zoom="9.7248729"
     inkscape:cx="22.519575"
     inkscape:cy="31.774194"
     inkscape:document-units="px"
     inkscape:current-layer="layer1"
     inkscape:document-rotation="0"
     showgrid="false"
     units="px"
     inkscape:window-width="1920"
     inkscape:window-height="994"
     inkscape:window-x="0"
     inkscape:window-y="0"
     inkscape:window-maximized="1"
     inkscape:object-paths="true"
     inkscape:snap-grids="true"
     inkscape:snap-intersection-paths="true"
     inkscape:snap-smooth-nodes="true"
     inkscape:snap-midpoints="true"
     inkscape:showpageshadow="2"
     inkscape:pagecheckerboard="0"
     inkscape:deskcolor="#d1d1d1">
    <inkscape:grid
       id="grid2"
       units="px"
       originx="0"
       originy="0"
       spacingx="0.26458333"
       spacingy="0.26458333"
       empcolor="#0099e5"
       empopacity="0.30196078"
       color="#0099e5"
       opacity="0.14902"
       empspacing="5"
       dotted="false"
       gridanglex="30"
       gridanglez="30"
       visible="false" />
  </sodipodi:namedview>
  <metadata
     id="metadata1111">
    <rdf:RDF>
      <cc:Work
         rdf:about="">
        <dc:format>image/svg+xml</dc:format>
        <dc:type
           rdf:resource="http://purl.org/dc/dcmitype/StillImage" />
      </cc:Work>
    </rdf:RDF>
  </metadata>
  <g
     inkscape:label="Layer 1"
     inkscape:groupmode="layer"
     id="layer1">
    <g
       id="g1"
       transform="matrix(1.2173911,0,0,1.2173911,-2.7493629,-2.749365)">
      <path
         d="m 14.979632,8.9958335 c 0,-3.3167609 -2.667041,-5.9838001 -5.9837999,-5.9838001 -3.3168344,0 -5.9837992,2.6670392 -5.9837992,5.9838001 0,3.3168425 2.6671182,5.9838015 5.9837992,5.9838015 3.3169129,0 5.9837999,-2.666959 5.9837999,-5.9838015 z m -3.794688,0 c 0,1.2048895 -0.96008,2.1891725 -2.1891887,2.1891725 -1.2531881,0 -2.1891873,-1.008538 -2.1891873,-2.1891725 0,-1.2047284 0.8877613,-2.1891719 2.1891873,-2.1891719 1.3014267,0 2.1891887,1.0083013 2.1891887,2.1891719 z"
         stroke="#999999"
         stroke-width="0.203234"
         id="path12"
         style="fill:url(#s)" />
      <path
         d="m 9.0048047,6.7277725 c -1.2498138,0 -2.2641899,1.014345 -2.2641899,2.2641645 0,1.249738 1.0143761,2.264164 2.2641899,2.264164 1.2498153,0 2.2641913,-1.014344 2.2641913,-2.264164 0,-1.2497399 -1.014376,-2.2641645 -2.2641913,-2.2641645 z m 0,1.1320425 c 0.6248994,0 1.1320953,0.5071963 1.1320953,1.1320427 0,0.6249094 -0.5071959,1.1320453 -1.1320953,1.1320453 -0.6248992,0 -1.1320949,-0.5071992 -1.1320949,-1.1320453 0,-0.6249098 0.5071957,-1.1320427 1.1320949,-1.1320427 z"
         enable-background="new    "
         fill="#323232"
         opacity="0.2"
         id="path13"
         style="stroke-width:0.768135" />
      <path
         d="m 9.0094061,11.248467 c -1.2541084,0 -2.2625794,-1.008459 -2.2625794,-2.2625738 0,-1.2541139 1.008471,-2.262574 2.2625794,-2.262574 1.2541089,0 2.2625809,1.0084601 2.2625809,2.262574 0,1.2541148 -1.008472,2.2625738 -2.2625809,2.2625738 z"
         enable-background="new    "
         fill="none"
         opacity="0.1"
         stroke-width="2.43883"
         id="path14-7"
         style="opacity:0.304158;stroke:url(#r)" />
    </g>
    <circle
       cx="13.096873"
       cy="13.096875"
       id="path4207-6"
       r="2.5135417"
       style="fill:#d4aa00;stroke-width:1.1875" />
    <path
       inkscape:connector-curvature="0"
       style="fill:#ffffff;stroke-width:0.314195"
       id="rect4132-4"
       d="m 13.870106,11.678615 -2.238466,2.251591 0.0022,0.0025 -0.0027,0.699951 h 0.184657 0.36931 0.186097 l 0.02551,0.0024 2.21558,-2.21558 v 0 0 l -0.738527,-0.738528 -0.0062,-0.0025 z m -0.323423,0.672971 0.348195,0.350796 -1.344534,1.354656 0.0046,-0.169397 h -0.184637 -0.184656 l -4.93e-4,-0.16432 v 0 z m -1.545262,1.556887 -4.92e-4,0.165229 h 0.184653 0.184658 l 4.91e-4,0.164297 v 0 l -0.206944,0.208517 -0.1633,-2.28e-4 -0.184045,-0.18667 -2.37e-4,-0.164525 z"
       inkscape:transform-center-x="2.3364438"
       inkscape:transform-center-y="-0.30165983" />
    <path
       d="m 8.2020825,6.8791668 c 0.7306311,0 1.322918,0.5922864 1.322918,1.3229167 0,0.7306306 -0.592287,1.3229166 -1.322918,1.3229166 -0.730629,0 -1.322916,-0.592286 -1.322916,-1.3229166 0,-0.7306303 0.5922871,-1.3229167 1.322916,-1.3229167 z"
       id="path4"
       style="fill:#ffcc00;fill-opacity:1;stroke-width:0.120266" />
  </g>
</svg>
