<?xml version="1.0" encoding="UTF-8" standalone="no"?>
<svg
   width="62"
   height="62"
   version="1"
   id="svg11"
   sodipodi:docname="institution.svg"
   inkscape:version="1.4 (e7c3feb100, 2024-10-09)"
   xmlns:inkscape="http://www.inkscape.org/namespaces/inkscape"
   xmlns:sodipodi="http://sodipodi.sourceforge.net/DTD/sodipodi-0.dtd"
   xmlns="http://www.w3.org/2000/svg"
   xmlns:svg="http://www.w3.org/2000/svg">
  <defs
     id="defs11" />
  <sodipodi:namedview
     id="namedview11"
     pagecolor="#ffffff"
     bordercolor="#000000"
     borderopacity="0.25"
     inkscape:showpageshadow="2"
     inkscape:pageopacity="0.0"
     inkscape:pagecheckerboard="0"
     inkscape:deskcolor="#d1d1d1"
     inkscape:zoom="5.5537345"
     inkscape:cx="31.420299"
     inkscape:cy="33.490978"
     inkscape:window-width="1920"
     inkscape:window-height="994"
     inkscape:window-x="0"
     inkscape:window-y="0"
     inkscape:window-maximized="1"
     inkscape:current-layer="svg11" />
  <g
     id="g11"
     transform="matrix(1.0091699,0,0,1,-0.55501962,-1)">
    <path
       style="opacity:0.2;fill-rule:evenodd;stroke-width:1.36585"
       d="M 8.7692721,54.536585 C 7.2351752,54.536585 6,55.569438 6,56.852258 V 60 h 50.536584 v -3.147742 c 0,-1.28282 -1.235176,-2.315673 -2.769272,-2.315673 z"
       id="path1" />
    <rect
       style="fill:#4f4f4f;stroke-width:1.36585"
       width="34.146343"
       height="34.146343"
       x="15.560976"
       y="20.390244"
       id="rect1" />
    <rect
       style="fill:#d4d4d4;stroke-width:1.36585"
       width="6.8292685"
       height="24.585365"
       x="11.463414"
       y="25.853659"
       id="rect2" />
    <rect
       style="fill:#d4d4d4;stroke-width:1.36585"
       width="6.8292685"
       height="24.585365"
       x="44.243904"
       y="25.853659"
       id="rect3" />
    <rect
       style="fill:#d4d4d4;stroke-width:1.36585"
       width="6.8292685"
       height="24.585365"
       x="27.853659"
       y="25.853659"
       id="rect4" />
    <rect
       style="opacity:0.2;stroke-width:1.36585"
       width="42.341465"
       height="8.1951218"
       x="10.097561"
       y="20.390244"
       rx="2.3192194"
       ry="2.3424392"
       id="rect5" />
    <rect
       style="fill:#969696;stroke-width:1.36585"
       width="42.341465"
       height="8.1951218"
       x="10.097561"
       y="49.07317"
       rx="2.3192194"
       ry="2.3424392"
       id="rect6" />
    <rect
       style="fill:#969696;stroke-width:1.36585"
       width="42.341465"
       height="8.1951218"
       x="10.097561"
       y="19.024391"
       rx="2.3192194"
       ry="2.3424392"
       id="rect7" />
    <path
       style="opacity:0.2;fill-rule:evenodd;stroke-width:1.36585"
       d="M 29.129563,6.2380017 18.634146,11.789818 8.1727656,17.323632 C 5.8690258,18.465259 6.1794617,17.949099 6,20.136302 v 4.008862 c 0,0.189873 0.1392477,0.342641 0.3121516,0.342641 H 56.224432 c 0.172909,0 0.312152,-0.152768 0.312152,-0.342641 v -3.919693 c -0.0051,-2.306918 -0.06249,-1.785545 -2.257682,-2.946759 L 43.902439,11.789818 33.464426,6.2683674 C 31.532034,4.9322295 31.064231,5.2146079 29.129563,6.2380061 Z"
       id="path7" />
    <path
       style="fill:#d4d4d4;fill-rule:evenodd;stroke-width:1.36585"
       d="M 29.129563,4.8721481 18.634146,10.423965 8.1727656,15.957778 C 5.8690258,17.099405 6.1794617,16.583245 6,18.770448 v 4.008862 c 0,0.189873 0.1392477,0.342641 0.3121516,0.342641 H 56.224432 c 0.172909,0 0.312152,-0.152768 0.312152,-0.342641 v -3.919692 c -0.0051,-2.306919 -0.06249,-1.785545 -2.257682,-2.94676 L 43.902439,10.423965 33.464426,4.9025137 C 31.532034,3.5663759 31.064231,3.8487542 29.129563,4.8721525 Z"
       id="path8" />
    <path
       style="fill:#d4d4d4;fill-rule:evenodd;stroke-width:1.36585"
       d="M 8.7692721,53.170732 C 7.2351752,53.170732 6,54.203585 6,55.486404 v 3.147742 h 50.536584 v -3.147742 c 0,-1.282819 -1.235176,-2.315672 -2.769272,-2.315672 z"
       id="path9" />
    <path
       style="opacity:0.2;fill:#ffffff;fill-rule:evenodd;stroke-width:1.36585"
       d="m 31.297637,4.0026676 c -0.600333,0.031502 -1.201491,0.3579656 -2.168826,0.8696647 L 18.634146,10.42378 8.171494,15.956555 C 5.8677541,17.098181 6.1794617,16.583757 6,18.77096 v 1.365854 C 6.1794617,17.949611 5.8677541,18.464035 8.171494,17.322408 L 18.634146,11.789634 29.128811,6.238186 C 31.06348,5.2147878 31.531404,4.9313925 33.463796,6.26753 l 10.438643,5.522104 10.377286,5.490091 c 2.1952,1.161215 2.251807,0.638204 2.25686,2.945122 v -1.365853 c -0.0051,-2.306919 -0.06165,-1.783908 -2.25686,-2.945122 L 43.902439,10.42378 33.463796,4.9016768 C 32.497599,4.233608 31.89797,3.9711656 31.297637,4.0026676 Z"
       id="path10" />
    <path
       style="opacity:0.2;fill:#ffffff;fill-rule:evenodd;stroke-width:1.36585"
       d="M 8.7690549,53.170732 C 7.2349579,53.170732 6,54.203462 6,55.48628 v 1.365853 C 6,55.569316 7.2349579,54.536585 8.7690549,54.536585 H 53.76753 c 1.534097,0 2.769055,1.032731 2.769055,2.315548 V 55.48628 c 0,-1.282818 -1.234958,-2.315548 -2.769055,-2.315548 z"
       id="path11" />
  </g>
</svg>
