<?xml version="1.0" encoding="UTF-8" standalone="no"?>
<!-- Created with Inkscape (http://www.inkscape.org/) -->

<svg
   width="62"
   height="62"
   viewBox="0 0 62 62"
   version="1.1"
   id="svg1"
   inkscape:version="1.4 (e7c3feb100, 2024-10-09)"
   sodipodi:docname="image-missing.svg"
   xmlns:inkscape="http://www.inkscape.org/namespaces/inkscape"
   xmlns:sodipodi="http://sodipodi.sourceforge.net/DTD/sodipodi-0.dtd"
   xmlns="http://www.w3.org/2000/svg"
   xmlns:svg="http://www.w3.org/2000/svg">
  <sodipodi:namedview
     id="namedview1"
     pagecolor="#ffffff"
     bordercolor="#000000"
     borderopacity="0.25"
     inkscape:showpageshadow="2"
     inkscape:pageopacity="0.0"
     inkscape:pagecheckerboard="0"
     inkscape:deskcolor="#d1d1d1"
     inkscape:document-units="px"
     inkscape:zoom="10.74725"
     inkscape:cx="29.914629"
     inkscape:cy="29.868106"
     inkscape:window-width="1920"
     inkscape:window-height="994"
     inkscape:window-x="0"
     inkscape:window-y="0"
     inkscape:window-maximized="1"
     inkscape:current-layer="layer1" />
  <defs
     id="defs1">
    <radialGradient
       id="paint664_radial_890_11"
       cx="0"
       cy="0"
       r="1"
       gradientUnits="userSpaceOnUse"
       gradientTransform="matrix(-16.000099,-9.999913,9.999913,-16.000099,583,171)">
      <stop
         offset="0.42141"
         stop-color="#B7C6CD"
         id="stop2071" />
      <stop
         offset="1"
         stop-color="#EFF2F6"
         id="stop2072" />
    </radialGradient>
    <linearGradient
       id="paint665_linear_890_11"
       x1="605"
       y1="180"
       x2="601.466"
       y2="162.72301"
       gradientUnits="userSpaceOnUse">
      <stop
         stop-color="#5200FF"
         id="stop2073" />
      <stop
         offset="1"
         stop-color="#0085FF"
         id="stop2074" />
    </linearGradient>
    <linearGradient
       id="paint666_linear_890_11"
       x1="567"
       y1="181"
       x2="562.11798"
       y2="174.183"
       gradientUnits="userSpaceOnUse">
      <stop
         stop-color="#5200FF"
         id="stop2075" />
      <stop
         offset="0.670391"
         stop-color="#0085FF"
         id="stop2076" />
    </linearGradient>
    <linearGradient
       id="paint667_linear_890_11"
       x1="605"
       y1="180"
       x2="597.32001"
       y2="174.24001"
       gradientUnits="userSpaceOnUse">
      <stop
         stop-color="#5200FF"
         id="stop2077" />
      <stop
         offset="1"
         stop-color="#0085FF"
         id="stop2078" />
    </linearGradient>
    <linearGradient
       id="paint668_linear_890_11"
       x1="567"
       y1="180"
       x2="561.23999"
       y2="172.32001"
       gradientUnits="userSpaceOnUse">
      <stop
         stop-color="#5200FF"
         id="stop2079" />
      <stop
         offset="1"
         stop-color="#0085FF"
         id="stop2080" />
    </linearGradient>
    <linearGradient
       id="paint669_linear_890_11"
       x1="607"
       y1="179"
       x2="602.50598"
       y2="171.80901"
       gradientUnits="userSpaceOnUse">
      <stop
         stop-color="#5200FF"
         id="stop2081" />
      <stop
         offset="1"
         stop-color="#0085FF"
         id="stop2082" />
    </linearGradient>
    <linearGradient
       id="paint670_linear_890_11"
       x1="607"
       y1="217"
       x2="568.82599"
       y2="170.01601"
       gradientUnits="userSpaceOnUse">
      <stop
         stop-color="#5200FF"
         id="stop2083" />
      <stop
         offset="1"
         stop-color="#0085FF"
         id="stop2084" />
    </linearGradient>
    <radialGradient
       id="paint671_radial_890_11"
       cx="0"
       cy="0"
       r="1"
       gradientUnits="userSpaceOnUse"
       gradientTransform="matrix(0,20,-16,0,583,187)">
      <stop
         offset="0.869716"
         stop-color="#EFF2F6"
         id="stop2085" />
      <stop
         offset="1"
         stop-color="#B7C6CD"
         id="stop2086" />
    </radialGradient>
    <linearGradient
       id="paint451_linear_890_11"
       x1="55"
       y1="461"
       x2="111"
       y2="517"
       gradientUnits="userSpaceOnUse"
       gradientTransform="translate(-53,-457)">
      <stop
         offset="0.303571"
         stop-color="#EFF2F6"
         id="stop1644" />
      <stop
         offset="1"
         stop-color="#B7C6CD"
         id="stop1645" />
    </linearGradient>
    <linearGradient
       id="paint452_linear_890_11"
       x1="107"
       y1="513"
       x2="67.655701"
       y2="465.78699"
       gradientUnits="userSpaceOnUse"
       gradientTransform="matrix(1,0,0,1.2,-53,-559.6)">
      <stop
         stop-color="#2E2E41"
         id="stop1646" />
      <stop
         offset="1"
         stop-color="#566C80"
         id="stop1647" />
    </linearGradient>
    <linearGradient
       id="paint453_linear_890_11"
       x1="61"
       y1="465"
       x2="65"
       y2="469"
       gradientUnits="userSpaceOnUse"
       gradientTransform="translate(-53,-457)">
      <stop
         offset="0.236371"
         stop-color="#F15700"
         id="stop1648" />
      <stop
         offset="0.855848"
         stop-color="#FF0000"
         id="stop1649" />
    </linearGradient>
    <linearGradient
       id="paint454_linear_890_11"
       x1="71"
       y1="469"
       x2="67"
       y2="465"
       gradientUnits="userSpaceOnUse"
       gradientTransform="translate(-53,-457)">
      <stop
         stop-color="#FF7E07"
         id="stop1650" />
      <stop
         offset="1"
         stop-color="#FFE607"
         id="stop1651" />
    </linearGradient>
    <linearGradient
       id="paint455_linear_890_11"
       x1="77"
       y1="469"
       x2="73"
       y2="465"
       gradientUnits="userSpaceOnUse"
       gradientTransform="translate(-53,-457)">
      <stop
         stop-color="#089953"
         id="stop1652" />
      <stop
         offset="1"
         stop-color="#16D96F"
         id="stop1653" />
    </linearGradient>
    <linearGradient
       id="paint456_linear_890_11"
       x1="80"
       y1="486"
       x2="80"
       y2="492"
       gradientUnits="userSpaceOnUse"
       gradientTransform="translate(-53,-457)">
      <stop
         offset="0.189495"
         stop-color="#EFF2F6"
         id="stop1654" />
      <stop
         offset="0.850463"
         stop-color="#B7C6CD"
         id="stop1655" />
    </linearGradient>
    <linearGradient
       id="paint457_linear_890_11"
       x1="82"
       y1="494"
       x2="82"
       y2="500"
       gradientUnits="userSpaceOnUse">
      <stop
         offset="0.189495"
         stop-color="#EFF2F6"
         id="stop1656" />
      <stop
         offset="0.850463"
         stop-color="#B7C6CD"
         id="stop1657" />
    </linearGradient>
    <filter
       id="b-2"
       x="-0.053588778"
       y="-0.053588778"
       width="1.1071776"
       height="1.1071776"
       color-interpolation-filters="sRGB">
      <feGaussianBlur
         stdDeviation="0.179835"
         id="feGaussianBlur10-9" />
    </filter>
    <filter
       id="filter1"
       x="-0.053588778"
       y="-0.053588778"
       width="1.1071776"
       height="1.1071776"
       color-interpolation-filters="sRGB">
      <feGaussianBlur
         stdDeviation="0.179835"
         id="feGaussianBlur1" />
    </filter>
  </defs>
  <g
     inkscape:label="Layer 1"
     inkscape:groupmode="layer"
     id="layer1">
    <path
       d="M 2,10 C 2,6.686 4.6863,4 8,4 h 44 c 3.314,0 6,2.686 6,6 v 44 c 0,3.314 -2.686,6 -6,6 H 8 C 4.6863,60 2,57.314 2,54 Z"
       id="path441"
       style="fill:#6f7c91;fill-opacity:1" />
    <path
       d="M 6,10.4 C 6,9.074 6.8954,8 8,8 h 44 c 1.105,0 2,1.074 2,2.4 V 51.2 C 54,53.8508 52.209,56 50,56 H 10 C 7.7909,56 6,53.8508 6,51.2 Z"
       id="path442"
       style="fill:url(#paint452_linear_890_11);stroke-width:1.09545" />
    <path
       d="m 16,10.011 c 3.305,0 6,2.71 6,6.003 0,3.291 -2.695,5.975 -6,5.975 -3.305,0 -6,-2.684 -6,-5.975 0,-3.292 2.695,-6.003 6,-6.003 z m 0,1.73 a 4.27,4.27 0 0 0 -4.29,4.273 c 0,2.368 1.912,4.245 4.29,4.245 2.378,0 4.29,-1.877 4.29,-4.245 A 4.27,4.27 0 0 0 16,11.74 Z"
       overflow="visible"
       style="text-indent:0;text-transform:none;opacity:0.5;stroke-width:0.650616;filter:url(#b-2)"
       id="path19-93"
       transform="matrix(3.0104865,0,0,3.016186,-18.167785,-15.058989)" />
    <path
       d="m 13.177,11.973 6.85,6.85 -1.204,1.204 -6.85,-6.85 z"
       overflow="visible"
       style="text-indent:0;text-transform:none;opacity:0.5;stroke-width:0.650616;filter:url(#b-2)"
       id="path21-6"
       transform="matrix(3.0104865,0,0,3.016186,-18.167785,-16.157286)" />
    <path
       d="m 30.00003,14.03778 c 9.949628,0 18.062887,8.173898 18.062887,18.106188 0,9.926248 -8.113259,18.021783 -18.062887,18.021783 -9.949675,0 -18.062944,-8.095535 -18.062944,-18.021783 0,-9.929289 8.113269,-18.106188 18.062944,-18.106188 z m 0,5.218014 A 12.854779,12.879121 0 0 0 17.085019,32.143968 c 0,7.142335 5.756055,12.803733 12.915011,12.803733 7.158934,0 12.914944,-5.661398 12.914944,-12.803733 A 12.854779,12.879121 0 0 0 30.00003,19.252797 Z"
       overflow="visible"
       style="text-indent:0;text-transform:none;fill:#c83771;stroke-width:1.96048"
       id="path27-2" />
    <path
       d="M 21.501395,19.955575 42.123223,40.616443 38.498652,44.247961 17.876772,23.587044 Z"
       overflow="visible"
       style="text-indent:0;text-transform:none;fill:#c83771;stroke-width:1.96048"
       id="path29-6" />
  </g>
</svg>
