<?xml version="1.0" encoding="UTF-8" standalone="no"?>
<svg
   width="62"
   height="62"
   version="1"
   id="svg6"
   sodipodi:docname="security-low.svg"
   inkscape:version="1.4 (e7c3feb100, 2024-10-09)"
   xmlns:inkscape="http://www.inkscape.org/namespaces/inkscape"
   xmlns:sodipodi="http://sodipodi.sourceforge.net/DTD/sodipodi-0.dtd"
   xmlns="http://www.w3.org/2000/svg"
   xmlns:svg="http://www.w3.org/2000/svg">
  <defs
     id="defs6" />
  <sodipodi:namedview
     id="namedview6"
     pagecolor="#ffffff"
     bordercolor="#000000"
     borderopacity="0.25"
     inkscape:showpageshadow="2"
     inkscape:pageopacity="0.0"
     inkscape:pagecheckerboard="0"
     inkscape:deskcolor="#d1d1d1"
     inkscape:zoom="11.78125"
     inkscape:cx="31.95756"
     inkscape:cy="32"
     inkscape:window-width="1920"
     inkscape:window-height="994"
     inkscape:window-x="0"
     inkscape:window-y="0"
     inkscape:window-maximized="1"
     inkscape:current-layer="svg6" />
  <g
     id="g6"
     transform="translate(0,-0.99999996)">
    <g
       style="opacity:0.2"
       transform="matrix(0.16155185,0,0,0.15601599,7.2824812,0.83465206)"
       id="g1">
      <path
         d="m 153.00034,26.585781 c -3.08843,0 -6.18237,0.51471 -9.1349,1.556119 L 16.566632,73.029934 c -10.9028258,3.845169 -18.3151784,14.32115 -18.3151784,25.885431 0,49.504535 12.7255444,104.519855 35.0423344,153.636785 18.116448,39.87821 50.50828,94.45406 107.138492,123.62164 3.92272,2.01865 8.25938,3.05239 12.56806,3.05239 4.30867,0 8.64534,-1.03374 12.56805,-3.05239 56.62579,-29.17286 89.00424,-83.7503 107.12337,-123.62164 a 23.108569,23.10857 0 0 0 0.0155,0 c 22.3156,-49.12005 35.04233,-104.13858 35.04233,-153.636785 0,-11.564281 -7.41235,-22.040262 -18.31518,-25.885431 a 23.108569,23.10857 0 0 0 -0.0302,0 L 162.13524,28.1419 c -2.95561,-1.043801 -6.04293,-1.556119 -9.1349,-1.556119 z"
         id="path1" />
    </g>
    <g
       style="fill:#e43636"
       transform="matrix(0.16155185,0,0,0.15601599,7.2824812,-0.14780405)"
       id="g2">
      <path
         style="fill:#e43636"
         d="m 153.00034,26.585781 c -3.08843,0 -6.18237,0.51471 -9.1349,1.556119 L 16.566632,73.029934 c -10.9028258,3.845169 -18.3151784,14.32115 -18.3151784,25.885431 0,49.504535 12.7255444,104.519855 35.0423344,153.636785 18.116448,39.87821 50.50828,94.45406 107.138492,123.62164 3.92272,2.01865 8.25938,3.05239 12.56806,3.05239 4.30867,0 8.64534,-1.03374 12.56805,-3.05239 56.62579,-29.17286 89.00424,-83.7503 107.12337,-123.62164 a 23.108569,23.10857 0 0 0 0.0155,0 c 22.3156,-49.12005 35.04233,-104.13858 35.04233,-153.636785 0,-11.564281 -7.41235,-22.040262 -18.31518,-25.885431 a 23.108569,23.10857 0 0 0 -0.0302,0 L 162.13524,28.1419 c -2.95561,-1.043801 -6.04293,-1.556119 -9.1349,-1.556119 z"
         id="path2" />
    </g>
    <g
       style="opacity:0.15;fill:#ffffff"
       transform="matrix(0.16155185,0,0,0.15601599,7.2824812,-0.14780405)"
       id="g3">
      <path
         style="fill:#ffffff"
         transform="matrix(8.5971705,0,0,8.8160099,-53.331569,-8.6782565)"
         d="M 24,4 C 23.640762,4 23.28093,4.057654 22.9375,4.1757812 L 8.1308594,9.2675781 C 6.8626717,9.7037356 6,10.893342 6,12.205078 c 0,5.6153 1.4803422,11.854448 4.076172,17.425781 2.107257,4.523386 5.875815,10.714959 12.46289,14.023438 C 22.995343,43.883272 23.498826,44 24,44 Z"
         id="path3" />
    </g>
    <g
       style="opacity:0.2;fill:#ffffff"
       transform="matrix(0.16155185,0,0,0.15601599,7.2824812,-0.14780405)"
       id="g4">
      <path
         style="fill:#ffffff"
         transform="matrix(6.1899632,0,0,6.2971503,-45.07829,1.397161)"
         d="M 32,4 C 31.501058,4 31.000423,4.080716 30.523438,4.2460938 L 9.9570312,11.375 C 8.1956595,11.985621 7,13.647944 7,15.484375 7,15.66968 7.0115507,15.858529 7.0253906,16.048828 7.1973917,14.389766 8.3363024,12.936863 9.9570312,12.375 L 30.523438,5.2460938 C 31.000423,5.080716 31.501058,5 32,5 c 0.499514,0 0.999079,0.080336 1.476562,0.2460938 L 54.035156,12.375 a 3.7332323,3.669687 0 0 1 0.0078,0 c 1.620731,0.561863 2.75964,2.014766 2.93164,3.673828 C 56.988447,15.858565 57,15.669776 57,15.484375 57,13.647944 55.804343,11.985621 54.042969,11.375 a 3.7332323,3.669687 0 0 0 -0.0078,0 L 33.476562,4.2460938 C 32.999079,4.080336 32.499514,4 32,4 Z"
         id="path4" />
    </g>
    <path
       style="opacity:0.2;stroke-width:0.99119"
       d="m 31.999988,18.736843 a 2.9999987,2.9473679 0 0 0 -2.999991,2.94737 v 11.789469 a 2.9999987,2.9473679 0 0 0 2.999991,2.94737 2.9999987,2.9473679 0 0 0 3,-2.94737 V 21.684213 a 2.9999987,2.9473679 0 0 0 -3,-2.94737 z m 0,19.649119 a 2.9999987,2.9473679 0 0 0 -2.999991,2.94737 2.9999987,2.9473679 0 0 0 2.999991,2.94737 2.9999987,2.9473679 0 0 0 3,-2.94737 2.9999987,2.9473679 0 0 0 -3,-2.94737 z"
       id="path5" />
    <path
       style="fill:none;stroke:#fcfcfc;stroke-width:5.94709;stroke-linecap:round;stroke-linejoin:round"
       d="M 31.999988,20.701752 V 32.491231"
       id="path6" />
    <ellipse
       style="fill:#ffffff;stroke-width:0.99119"
       cx="31.999994"
       cy="40.350891"
       id="circle6"
       rx="3"
       ry="2.9473691" />
  </g>
</svg>
