<?xml version="1.0" encoding="UTF-8" standalone="no"?>
<svg
   viewBox="0 0 16 16"
   version="1.1"
   id="svg6"
   sodipodi:docname="folder-neon.svg"
   inkscape:version="1.4 (e7c3feb100, 2024-10-09)"
   xmlns:inkscape="http://www.inkscape.org/namespaces/inkscape"
   xmlns:sodipodi="http://sodipodi.sourceforge.net/DTD/sodipodi-0.dtd"
   xmlns="http://www.w3.org/2000/svg"
   xmlns:svg="http://www.w3.org/2000/svg"
   xmlns:rdf="http://www.w3.org/1999/02/22-rdf-syntax-ns#"
   xmlns:cc="http://creativecommons.org/ns#"
   xmlns:dc="http://purl.org/dc/elements/1.1/">
  <metadata
     id="metadata10">
    <rdf:RDF>
      <cc:Work
         rdf:about="">
        <dc:format>image/svg+xml</dc:format>
        <dc:type
           rdf:resource="http://purl.org/dc/dcmitype/StillImage" />
      </cc:Work>
    </rdf:RDF>
  </metadata>
  <sodipodi:namedview
     pagecolor="#ffffff"
     bordercolor="#666666"
     borderopacity="1"
     objecttolerance="10"
     gridtolerance="10"
     guidetolerance="10"
     inkscape:pageopacity="0"
     inkscape:pageshadow="2"
     inkscape:window-width="1920"
     inkscape:window-height="994"
     id="namedview8"
     showgrid="false"
     inkscape:zoom="27.753941"
     inkscape:cx="15.096955"
     inkscape:cy="8.7555133"
     inkscape:window-x="0"
     inkscape:window-y="0"
     inkscape:window-maximized="1"
     inkscape:current-layer="svg6"
     inkscape:showpageshadow="2"
     inkscape:pagecheckerboard="0"
     inkscape:deskcolor="#d1d1d1" />
  <defs
     id="defs3051">
    <style
       type="text/css"
       id="current-color-scheme">.ColorScheme-Text { color:#eff0f1; }
</style>
  </defs>
  <g
     id="g1"
     transform="translate(-0.130819,2.011309)">
    <path
       style="stroke-width:0.238694;stroke:none;fill-rule:nonzero;fill-opacity:1;fill:currentColor;"
       d="m 8.130819,-0.01130909 c -0.246153,0 -0.457809,0.1389277 -0.562238,0.3431235 C 6.417066,0.44463511 5.368115,0.89684951 4.52336,1.5896232 4.30611,1.5215582 4.060889,1.5737712 3.888395,1.7462666 3.715901,1.9187609 3.663686,2.1639822 3.731751,2.3812318 3.038978,3.2259868 2.585831,4.2749378 2.473943,5.426453 2.269747,5.530882 2.130819,5.7425373 2.130819,5.988691 c 0,0.2461539 0.138928,0.4578092 0.343124,0.5622382 0.11282,1.1515155 0.565035,2.2004657 1.257808,3.0452203 -0.06807,0.2172504 -0.01585,0.4624705 0.156644,0.6349655 0.172494,0.172493 0.417715,0.224708 0.634965,0.156644 0.844755,0.692773 1.893706,1.144987 3.045221,1.257808 0.104429,0.204196 0.316085,0.343124 0.562238,0.343124 0.246154,0 0.457809,-0.139861 0.562238,-0.343124 1.151516,-0.112821 2.200466,-0.565035 3.045221,-1.257808 0.21725,0.06806 0.462471,0.01585 0.634966,-0.156644 0.172493,-0.172495 0.224707,-0.4177151 0.156643,-0.6349655 0.692773,-0.8447546 1.145921,-1.8937049 1.257809,-3.0452203 0.203262,-0.104429 0.343123,-0.3160843 0.343123,-0.5622382 0,-0.2461537 -0.139861,-0.457809 -0.343123,-0.562238 C 13.675808,4.2749378 13.22266,3.2259868 12.529887,2.3812318 12.597947,2.1639822 12.545737,1.9187609 12.373244,1.7462666 12.200749,1.5737725 11.955528,1.521558 11.738278,1.5896232 10.893523,0.89684951 9.844573,0.44463511 8.693057,0.33181441 8.588628,0.12761861 8.376973,-0.01130909 8.130819,-0.01130909 Z m 0,0.316084 c 0.175291,0 0.316085,0.1407926 0.316085,0.3160839 0,0.1743591 -0.140794,0.3151514 -0.316085,0.3151514 -0.175292,0 -0.316084,-0.1407923 -0.316084,-0.3151514 0,-0.1752913 0.140792,-0.3160839 0.316084,-0.3160839 z M 7.600282,0.96398241 C 7.71217,1.1374088 7.907977,1.2520942 8.130819,1.2520942 c 0.222843,0 0.418649,-0.1146854 0.530537,-0.28811179 0.999534,0.10349629 1.910488,0.49510489 2.648019,1.09184149 -0.04476,0.2032633 0.01212,0.4242423 0.170628,0.5836829 0.159441,0.158508 0.38042,0.2153846 0.583683,0.1706293 0.596736,0.7375293 0.988346,1.6484849 1.091841,2.6480187 -0.173426,0.1118875 -0.288111,0.3076933 -0.288111,0.5305362 0,0.222843 0.114685,0.418649 0.288111,0.5305372 C 13.052032,7.518762 12.660422,8.4297161 12.063686,9.1672463 11.860423,9.1224913 11.639444,9.1793713 11.480003,9.3378747 11.321496,9.4973155 11.26462,9.7182943 11.309375,9.9215571 10.571844,10.518294 9.66089,10.909903 8.661356,11.013399 8.549468,10.839973 8.353662,10.725287 8.130819,10.725287 c -0.222842,0 -0.418649,0.114686 -0.530537,0.288112 C 6.600749,10.909903 5.689793,10.518294 4.952264,9.9215571 4.997024,9.7182943 4.940144,9.4973155 4.781635,9.3378747 4.622194,9.1793672 4.401215,9.122491 4.197952,9.1672463 3.601215,8.4297161 3.209607,7.518762 3.106111,6.5192282 3.279537,6.40734 3.394222,6.211534 3.394222,5.988691 3.394222,5.7658481 3.279537,5.5700423 3.106111,5.4581548 3.209607,4.458621 3.601215,3.5476654 4.197952,2.8101361 4.401215,2.8548911 4.622194,2.7980151 4.781635,2.6395068 4.940143,2.4800662 4.99702,2.2590872 4.952264,2.0558239 5.689793,1.4590873 6.600749,1.0674787 7.600282,0.96398241 Z M 4.335015,1.8768029 c 0.08112,0 0.161305,0.030769 0.222844,0.092308 0.124009,0.1240095 0.124009,0.3235431 0,0.4466201 -0.123077,0.1240092 -0.322611,0.1240092 -0.44662,0 -0.123077,-0.123077 -0.123077,-0.3226106 0,-0.4466201 0.06247,-0.061538 0.142657,-0.092308 0.223776,-0.092308 z m 7.591607,0 c 0.08112,0 0.161306,0.030769 0.223777,0.092308 0.123078,0.1240095 0.123078,0.3235431 0,0.4466201 -0.124009,0.1240092 -0.323544,0.1240092 -0.446619,0 -0.124009,-0.123077 -0.124009,-0.3226106 0,-0.4466201 0.06154,-0.061538 0.141724,-0.092308 0.222842,-0.092308 z m -3.795803,0.00653 c -0.251748,0 -0.468066,0.1463869 -0.569697,0.358042 -1.827506,0.2731934 -3.21958,1.8414918 -3.21958,3.7473196 0,1.9058262 1.392074,3.4741266 3.21958,3.7473198 0.101631,0.2116553 0.317949,0.3580417 0.569697,0.3580417 0.251749,0 0.468066,-0.1463864 0.569698,-0.3580417 1.827505,-0.2731932 3.21958,-1.8414936 3.21958,-3.7473198 0,-1.9058278 -1.392075,-3.4741262 -3.21958,-3.7473196 C 8.598885,2.0297198 8.382568,1.8833329 8.130819,1.8833329 Z m 0,0.316084 c 0.175291,0 0.316085,0.1407926 0.316085,0.316084 0,0.174359 -0.140794,0.3151515 -0.316085,0.3151515 -0.175292,0 -0.316084,-0.1407925 -0.316084,-0.3151515 0,-0.1752914 0.140792,-0.316084 0.316084,-0.316084 z m -0.521211,0.674126 c 0.113753,0.1650349 0.304894,0.2731934 0.521211,0.2731934 0.216317,0 0.407459,-0.1081585 0.521212,-0.2731934 1.4993,0.2470861 2.63683,1.5431233 2.63683,3.1151516 0,1.5720286 -1.13753,2.8680643 -2.63683,3.1151513 C 8.538278,8.93881 8.347136,8.8306528 8.130819,8.8306528 7.914502,8.8306528 7.723361,8.93881 7.609608,9.1038458 6.110306,8.8567588 4.972777,7.5607231 4.972777,5.9886945 c 0,-1.5720283 1.137529,-2.8680655 2.636831,-3.1151516 z M 2.762987,5.672611 c 0.174359,0 0.315151,0.1407916 0.315151,0.3160841 0,0.1752904 -0.140792,0.3160844 -0.315151,0.3160844 -0.175291,0 -0.316084,-0.140794 -0.316084,-0.3160844 0,-0.1752925 0.140793,-0.3160841 0.316084,-0.3160841 z m 10.735664,0 c 0.175292,0 0.316084,0.1407916 0.316084,0.3160841 0,0.1752904 -0.140792,0.3160844 -0.316084,0.3160844 -0.174359,0 -0.315151,-0.140794 -0.315151,-0.3160844 0,-0.1752925 0.140792,-0.3160841 0.315151,-0.3160841 z M 8.130819,9.1467369 c 0.175291,0 0.316085,0.1407916 0.316085,0.3151509 0,0.1752925 -0.140794,0.3160843 -0.316085,0.3160843 -0.175292,0 -0.316084,-0.1407918 -0.316084,-0.3160843 0,-0.1743593 0.140792,-0.3151509 0.316084,-0.3151509 z m -3.795804,0.321677 c 0.08112,0 0.161305,0.03077 0.222844,0.093241 0.124009,0.1230756 0.124009,0.32261 0,0.4466191 -0.123077,0.123078 -0.322611,0.123078 -0.44662,0 -0.123077,-0.1240091 -0.123077,-0.3235435 0,-0.4466191 0.06247,-0.062471 0.142657,-0.093241 0.223776,-0.093241 z m 7.591607,0 c 0.08112,0 0.161306,0.03077 0.223777,0.093241 0.123078,0.1230756 0.123078,0.32261 0,0.4466191 -0.124009,0.123078 -0.323544,0.123078 -0.446619,0 -0.124009,-0.1240091 -0.124009,-0.3235435 0,-0.4466191 0.06154,-0.062471 0.141724,-0.093241 0.222842,-0.093241 z M 8.130819,11.041376 c 0.175291,0 0.316085,0.140791 0.316085,0.315151 0,0.175292 -0.140794,0.316084 -0.316085,0.316084 -0.175292,0 -0.316084,-0.140792 -0.316084,-0.316084 0,-0.17436 0.140792,-0.315151 0.316084,-0.315151 z m 0,0"
       id="path3"
       class="ColorScheme-Text" />
    <path
       style="stroke-width:0.382622;stroke:none;fill-rule:nonzero;fill-opacity:1;fill:currentColor;mix-blend-mode:normal;"
       d="m 8,3.9496235 c 1.117933,0 2.025188,0.9072257 2.025188,2.0251881 C 10.025188,7.0927747 9.117933,8 8,8 6.882066,8 5.974812,7.0927747 5.974812,5.9748116 5.974812,4.8568492 6.882066,3.9496235 8,3.9496235 Z m 0,0"
       id="path2"
       class="ColorScheme-Text" />
  </g>
</svg>
