<?xml version="1.0" encoding="UTF-8" standalone="no"?>
<svg
   width="64"
   version="1.1"
   viewBox="0 0 64 64"
   height="64"
   id="svg26"
   inkscape:version="1.4 (e7c3feb100, 2024-10-09)"
   sodipodi:docname="application-x-rpm.svg"
   xmlns:inkscape="http://www.inkscape.org/namespaces/inkscape"
   xmlns:sodipodi="http://sodipodi.sourceforge.net/DTD/sodipodi-0.dtd"
   xmlns:xlink="http://www.w3.org/1999/xlink"
   xmlns="http://www.w3.org/2000/svg"
   xmlns:svg="http://www.w3.org/2000/svg"
   xmlns:rdf="http://www.w3.org/1999/02/22-rdf-syntax-ns#"
   xmlns:cc="http://creativecommons.org/ns#"
   xmlns:dc="http://purl.org/dc/elements/1.1/">
  <sodipodi:namedview
     pagecolor="#ffffff"
     bordercolor="#666666"
     borderopacity="1"
     objecttolerance="10"
     gridtolerance="10"
     guidetolerance="10"
     inkscape:pageopacity="0"
     inkscape:pageshadow="2"
     inkscape:window-width="1920"
     inkscape:window-height="994"
     id="namedview48"
     showgrid="true"
     inkscape:zoom="3.8984375"
     inkscape:cx="51.302605"
     inkscape:cy="32.064128"
     inkscape:window-x="0"
     inkscape:window-y="0"
     inkscape:window-maximized="1"
     inkscape:current-layer="svg26"
     inkscape:snap-bbox="true"
     inkscape:bbox-nodes="true"
     inkscape:showpageshadow="2"
     inkscape:pagecheckerboard="0"
     inkscape:deskcolor="#d1d1d1">
    <inkscape:grid
       type="xygrid"
       id="grid4150"
       originx="0"
       originy="0"
       spacingy="1"
       spacingx="1"
       units="px" />
  </sodipodi:namedview>
  <defs
     id="defs4">
    <linearGradient
       id="linearGradient6251"
       inkscape:collect="always">
      <stop
         id="stop6253"
         offset="0"
         style="stop-color:#ffffff;stop-opacity:0" />
      <stop
         id="stop6255"
         offset="1"
         style="stop-color:#ffffff;stop-opacity:0.2" />
    </linearGradient>
    <linearGradient
       inkscape:collect="always"
       xlink:href="#linearGradient6251"
       id="linearGradient832"
       gradientUnits="userSpaceOnUse"
       gradientTransform="matrix(1,0,0,0.84587337,-46.999997,-272.73457)"
       x1="58"
       y1="393.95328"
       x2="58"
       y2="324.65894" />
  </defs>
  <metadata
     id="metadata84">
    <rdf:RDF>
      <cc:Work
         rdf:about="">
        <dc:format>image/svg+xml</dc:format>
        <dc:type
           rdf:resource="http://purl.org/dc/dcmitype/StillImage" />
      </cc:Work>
    </rdf:RDF>
  </metadata>
  <path
     style="color:#000000;clip-rule:nonzero;display:inline;overflow:visible;visibility:visible;opacity:1;isolation:auto;mix-blend-mode:normal;color-interpolation:sRGB;color-interpolation-filters:linearRGB;solid-color:#000000;solid-opacity:1;fill:#db3333;fill-opacity:1;fill-rule:nonzero;stroke:none;stroke-width:1;stroke-linecap:butt;stroke-linejoin:miter;stroke-miterlimit:4;stroke-dasharray:none;stroke-dashoffset:0;stroke-opacity:1;marker:none;color-rendering:auto;image-rendering:auto;shape-rendering:auto;text-rendering:auto;enable-background:accumulate"
     d="m 13.083984,10.999992 c -0.842518,0 -1.644779,0.169553 -2.373046,0.476562 C 9.982669,11.783565 9.32711,12.22757 8.777344,12.777336 8.227578,13.327102 7.783572,13.98266 7.476562,14.71093 7.169553,15.439198 7,16.241458 7,17.083976 v 37.832032 c 0,0.842518 0.169553,1.644778 0.476562,2.373046 0.307011,0.728269 0.751016,1.383828 1.300782,1.933594 0.549766,0.549766 1.205325,0.993772 1.933594,1.300782 0.728267,0.307009 1.530528,0.476562 2.373046,0.476562 H 50.91602 c 0.84251,0 1.64477,-0.169553 2.37304,-0.476562 0.72827,-0.30701 1.38383,-0.751016 1.9336,-1.300782 0.54976,-0.549766 0.99377,-1.205324 1.30078,-1.933594 C 56.83045,56.560787 57,55.758526 57,54.916008 V 17.083976 c 0,-0.842518 -0.16955,-1.644779 -0.47656,-2.373046 -0.30701,-0.728269 -0.75102,-1.383828 -1.30078,-1.933594 -0.54977,-0.549766 -1.20533,-0.993771 -1.9336,-1.300782 -0.72827,-0.307009 -1.53053,-0.476562 -2.37304,-0.476562 z"
     id="path859"
     inkscape:connector-curvature="0" />
  <path
     inkscape:connector-curvature="0"
     id="path5715"
     d="m 24.44926,40.01241 c -6.06454,-0.35857 -11.27151,4.26702 -11.6301,10.33155 -0.0883,1.49354 0.12971,2.93519 0.59304,4.26509 l 0.94114,-0.33174 c -0.42068,-1.20841 -0.61616,-2.51738 -0.53592,-3.87433 0.32598,-5.51322 5.05959,-9.7183 10.57281,-9.39231 5.51322,0.32598 9.7183,5.05959 9.39232,10.57281 -0.0327,0.5528 -0.12047,1.08855 -0.23813,1.61181 l 0.97275,0.22577 c 0.1302,-0.57751 0.22755,-1.16829 0.26363,-1.77855 0.35858,-6.06454 -4.26701,-11.27152 -10.33154,-11.6301 z m -0.11805,1.99651 c -0.80769,-0.0448 -1.6177,0.0202 -2.40812,0.19218 l 0.18435,0.98526 c 0.71009,-0.15787 1.43838,-0.21814 2.16474,-0.17918 4.41058,0.26079 7.77465,4.04769 7.51386,8.45825 -0.0217,0.33379 -0.0654,0.66576 -0.12922,0.99411 l 1.00215,0.0593 c 0.0602,-0.32886 0.1021,-0.66081 0.12532,-0.99433 0.29339,-4.9619 -3.49118,-9.22215 -8.45308,-9.51554 z m -5.00045,1.18347 c -1.607,0.91844 -2.8917,2.31001 -3.67914,3.9851 l 0.86944,0.51707 c 0.68607,-1.5113 1.82521,-2.77181 3.25959,-3.60686 l -0.44989,-0.89531 z m -4.40448,6.35854 c -0.0523,0.30164 -0.0893,0.60569 -0.11061,0.91108 -0.0177,0.33372 -0.0176,0.66817 10e-4,1.00183 l 1.00996,0.0597 c -0.0254,-0.33357 -0.0297,-0.66839 -0.0131,-1.00252 0.0149,-0.2356 0.0408,-0.4704 0.0768,-0.70372 l -0.96448,-0.26638 z"
     style="color:#000000;clip-rule:nonzero;display:inline;overflow:visible;visibility:visible;opacity:0.75;isolation:auto;mix-blend-mode:normal;color-interpolation:sRGB;color-interpolation-filters:linearRGB;solid-color:#000000;solid-opacity:1;fill:#ffffff;fill-opacity:1;fill-rule:nonzero;stroke:none;stroke-width:2;stroke-linecap:square;stroke-linejoin:miter;stroke-miterlimit:4;stroke-dasharray:none;stroke-dashoffset:0;stroke-opacity:1;marker:none;color-rendering:auto;image-rendering:auto;shape-rendering:auto;text-rendering:auto;enable-background:accumulate" />
  <path
     sodipodi:nodetypes="ccccccccccccccccsssss"
     inkscape:connector-curvature="0"
     d="m 33.71587,53.79424 -7.8019,-2.59393 7.2e-4,-0.0117 c -0.16965,-2.85418 -3.80404,-2.34333 -3.99303,-0.23611 -0.0652,1.10265 0.77582,2.04938 1.87846,2.11458 0.73849,0.0433 1.44055,-0.32461 1.82526,-0.95645 -0.008,0.0134 -0.0162,0.0265 -0.0239,0.0397 l 7.8001,2.59337 0.31463,-0.94983 z m -7.82099,-2.43658 c -0.005,0.0331 -0.0109,0.066 -0.0176,0.0987 0.007,-0.0327 0.0119,-0.0658 0.0176,-0.0987 z m -0.17266,0.57088 c -0.0163,0.0333 -0.033,0.0663 -0.0508,0.0987 0.0181,-0.0323 0.0348,-0.0654 0.0508,-0.0987 z M 24.91641,51.1296 c -0.0326,0.5513 -0.50595,0.97182 -1.05727,0.93922 -0.55133,-0.0326 -0.97184,-0.50595 -0.93924,-1.05727 0.0326,-0.55133 0.50596,-0.97184 1.05728,-0.93924 0.55133,0.0326 0.97183,0.50597 0.93923,1.05729 z"
     id="path5740"
     style="fill:#fcbcbe" />
  <path
     style="color:#000000;clip-rule:nonzero;display:inline;overflow:visible;visibility:visible;opacity:0.5;isolation:auto;mix-blend-mode:normal;color-interpolation:sRGB;color-interpolation-filters:linearRGB;solid-color:#000000;solid-opacity:1;fill:#ffffff;fill-opacity:1;fill-rule:nonzero;stroke:none;stroke-width:1;stroke-linecap:butt;stroke-linejoin:miter;stroke-miterlimit:4;stroke-dasharray:none;stroke-dashoffset:0;stroke-opacity:1;marker:none;color-rendering:auto;image-rendering:auto;shape-rendering:auto;text-rendering:auto;enable-background:accumulate"
     d="m 13.083984,10.999992 c -0.842518,0 -1.644778,0.169553 -2.373046,0.476562 C 9.982669,11.783565 9.32711,12.22757 8.777344,12.777336 8.227578,13.327102 7.783572,13.98266 7.476562,14.71093 7.169553,15.439198 7,16.241458 7,17.083976 v 1.013672 c 0,-0.842518 0.169553,-1.644779 0.476562,-2.373047 0.30701,-0.728269 0.751016,-1.383827 1.300782,-1.933593 0.549766,-0.549766 1.205325,-0.993772 1.933594,-1.300782 0.728268,-0.307009 1.530528,-0.476562 2.373046,-0.476562 H 50.91602 c 0.84251,0 1.64477,0.169553 2.37304,0.476562 0.72827,0.30701 1.38383,0.751016 1.9336,1.300782 0.54976,0.549766 0.99377,1.205324 1.30078,1.933593 C 56.83045,16.452869 57,17.25513 57,18.097648 v -1.013672 c 0,-0.842518 -0.16955,-1.644779 -0.47656,-2.373046 -0.30701,-0.72827 -0.75102,-1.383828 -1.30078,-1.933594 -0.54977,-0.549766 -1.20533,-0.993771 -1.9336,-1.300782 -0.72827,-0.307008 -1.53053,-0.476562 -2.37304,-0.476562 z"
     id="path824-2-6"
     inkscape:connector-curvature="0" />
  <path
     style="color:#000000;clip-rule:nonzero;display:inline;overflow:visible;visibility:visible;opacity:0.25;isolation:auto;mix-blend-mode:normal;color-interpolation:sRGB;color-interpolation-filters:linearRGB;solid-color:#000000;solid-opacity:1;fill:#000000;fill-opacity:1;fill-rule:nonzero;stroke:none;stroke-width:1;stroke-linecap:butt;stroke-linejoin:miter;stroke-miterlimit:4;stroke-dasharray:none;stroke-dashoffset:0;stroke-opacity:1;marker:none;color-rendering:auto;image-rendering:auto;shape-rendering:auto;text-rendering:auto;enable-background:accumulate"
     d="m 57,54.029289 c 0,0.842518 -0.16955,1.644779 -0.47656,2.373047 -0.30701,0.728269 -0.75102,1.383828 -1.30078,1.933594 -0.54977,0.549766 -1.20533,0.993771 -1.9336,1.300781 -0.72827,0.307009 -1.53053,0.476562 -2.37304,0.476562 H 13.083984 c -0.842518,0 -1.644779,-0.169553 -2.373046,-0.476562 C 9.982668,59.329701 9.32711,58.885695 8.777344,58.33593 8.227578,57.786164 7.783572,57.130605 7.476562,56.402336 7.169553,55.674068 7,54.871807 7,54.029289 v 0.886719 c 0,0.842518 0.169553,1.644778 0.476562,2.373046 0.30701,0.728269 0.751016,1.383828 1.300782,1.933594 0.549766,0.549766 1.205324,0.993772 1.933594,1.300782 0.728267,0.307009 1.530528,0.476562 2.373046,0.476562 H 50.91602 c 0.84251,0 1.64477,-0.169553 2.37304,-0.476562 0.72827,-0.30701 1.38383,-0.751016 1.9336,-1.300782 0.54976,-0.549766 0.99377,-1.205324 1.30078,-1.933594 C 56.83045,56.560787 57,55.758526 57,54.916008 Z"
     id="path947"
     inkscape:connector-curvature="0" />
  <path
     style="color:#000000;clip-rule:nonzero;display:inline;overflow:visible;visibility:visible;opacity:0.55199998;isolation:auto;mix-blend-mode:normal;color-interpolation:sRGB;color-interpolation-filters:linearRGB;solid-color:#000000;solid-opacity:1;fill:url(#linearGradient832);fill-opacity:1;fill-rule:nonzero;stroke:none;stroke-width:1;stroke-linecap:butt;stroke-linejoin:miter;stroke-miterlimit:4;stroke-dasharray:none;stroke-dashoffset:0;stroke-opacity:1;marker:none;color-rendering:auto;image-rendering:auto;shape-rendering:auto;text-rendering:auto;enable-background:accumulate"
     d="m 13.083984,10.999992 c -0.842518,0 -1.644778,0.169553 -2.373046,0.476562 C 9.982669,11.783564 9.32711,12.22757 8.777344,12.777336 8.227578,13.327102 7.783572,13.982661 7.476562,14.71093 7.169553,15.439198 7,16.241458 7,17.083976 v 37.832032 c 0,0.842518 0.169553,1.644778 0.476562,2.373046 0.30701,0.728269 0.751016,1.383828 1.300782,1.933594 0.549766,0.549766 1.205325,0.993772 1.933594,1.300782 0.728268,0.307009 1.530528,0.476562 2.373046,0.476562 H 50.91602 c 0.84251,0 1.64477,-0.169553 2.37304,-0.476562 0.72827,-0.30701 1.38383,-0.751016 1.9336,-1.300782 0.54976,-0.549766 0.99377,-1.205325 1.30078,-1.933594 C 56.83045,56.560786 57,55.758526 57,54.916008 V 17.083976 c 0,-0.842518 -0.16955,-1.644778 -0.47656,-2.373046 -0.30701,-0.728269 -0.75102,-1.383828 -1.30078,-1.933594 -0.54977,-0.549766 -1.20533,-0.993772 -1.9336,-1.300782 -0.72827,-0.307009 -1.53053,-0.476562 -2.37304,-0.476562 z"
     id="path824"
     inkscape:connector-curvature="0" />
  <rect
     style="opacity:0.2;stroke-width:0.8938"
     width="8.9285717"
     height="24.157896"
     x="39.642773"
     y="12.263112"
     id="rect3" />
  <rect
     style="fill:#ffffff;stroke-width:0.8938"
     width="2.6785719"
     height="2.6842108"
     x="44.107052"
     y="12.263112"
     id="rect4" />
  <rect
     style="fill:#ffffff;stroke-width:0.8938"
     width="2.6785719"
     height="2.6842108"
     x="41.428486"
     y="31.052584"
     id="rect5" />
  <path
     style="fill:#4b4b4b;stroke-width:0.8938"
     d="m 44.107052,31.052585 c 3.348215,0 3.348215,5.010526 4.464286,5.010526 v 6.263157 c 0,0.693961 -0.497766,1.25263 -1.116071,1.25263 h -6.696429 c -0.618303,0 -1.116072,-0.558669 -1.116072,-1.25263 v -6.263157 c 1.116072,0 1.116072,-5.010526 4.464286,-5.010526 z"
     id="path5" />
  <path
     style="opacity:0.2;stroke-width:0.8938"
     d="m 43.810598,37.315744 c -2.308334,0 -4.167832,1.881385 -4.167832,4.215047 v 8.569902 c 0,2.333666 1.859498,4.215049 4.167832,4.215049 h 0.592913 c 2.30833,0 4.167827,-1.881383 4.167827,-4.215049 v -8.569902 c 0,-2.333662 -1.859497,-4.215047 -4.167827,-4.215047 z m 0.296454,8.947366 c 1.972449,4e-6 3.571432,1.60416 3.571432,3.580696 0,1.97654 -1.598983,3.577201 -3.571432,3.577201 -1.972445,0 -3.571427,-1.600661 -3.571427,-3.577201 0,-1.976536 1.598982,-3.580692 3.571427,-3.580696 z"
     id="path6" />
  <path
     style="fill:#ffffff;stroke-width:0.8938"
     d="m 43.810598,36.421006 c -2.308334,0 -4.167832,1.881385 -4.167832,4.215049 v 8.569901 c 0,2.333664 1.859498,4.21505 4.167832,4.21505 h 0.592913 c 2.30833,0 4.167827,-1.881385 4.167827,-4.21505 v -8.569901 c 0,-2.333665 -1.859497,-4.215049 -4.167827,-4.215049 z m 0.296454,8.947367 c 1.972449,4e-6 3.571432,1.604157 3.571432,3.580697 0,1.976537 -1.598983,3.577199 -3.571432,3.577199 -1.972445,0 -3.571427,-1.600662 -3.571427,-3.577199 0,-1.97654 1.598982,-3.580692 3.571427,-3.580697 z"
     id="path7" />
  <path
     style="fill:#909090;stroke-width:0.8938"
     d="m 44.093104,32.842168 a 0.89294645,0.89170128 0 0 0 -0.878907,0.903802 v 5.349672 a 0.89294645,0.89170128 0 1 0 1.785713,0 V 33.74597 a 0.89294645,0.89170128 0 0 0 -0.906806,-0.903802 z"
     id="path8" />
  <rect
     style="fill:#ffffff;stroke-width:0.8938"
     width="2.6785719"
     height="2.6842108"
     x="41.428486"
     y="14.947322"
     id="rect8" />
  <rect
     style="fill:#ffffff;stroke-width:0.8938"
     width="2.6785719"
     height="2.6842108"
     x="44.107052"
     y="17.631531"
     id="rect9" />
  <rect
     style="fill:#ffffff;stroke-width:0.8938"
     width="2.6785719"
     height="2.6842108"
     x="41.428486"
     y="20.315744"
     id="rect10" />
  <rect
     style="fill:#ffffff;stroke-width:0.8938"
     width="2.6785719"
     height="2.6842108"
     x="44.107052"
     y="22.999958"
     id="rect11" />
  <rect
     style="fill:#ffffff;stroke-width:0.8938"
     width="2.6785719"
     height="2.6842108"
     x="41.428486"
     y="25.684166"
     id="rect12" />
  <rect
     style="fill:#ffffff;stroke-width:0.8938"
     width="2.6785719"
     height="2.6842108"
     x="44.107052"
     y="28.368378"
     id="rect13" />
</svg>
