<?xml version="1.0" encoding="UTF-8" standalone="no"?>
<svg
   width="62"
   height="62"
   version="1.1"
   id="svg6"
   sodipodi:docname="applications-other.svg"
   inkscape:version="1.4 (e7c3feb100, 2024-10-09)"
   xmlns:inkscape="http://www.inkscape.org/namespaces/inkscape"
   xmlns:sodipodi="http://sodipodi.sourceforge.net/DTD/sodipodi-0.dtd"
   xmlns="http://www.w3.org/2000/svg"
   xmlns:svg="http://www.w3.org/2000/svg">
  <defs
     id="defs6" />
  <sodipodi:namedview
     id="namedview6"
     pagecolor="#ffffff"
     bordercolor="#000000"
     borderopacity="0.25"
     inkscape:showpageshadow="2"
     inkscape:pageopacity="0.0"
     inkscape:pagecheckerboard="0"
     inkscape:deskcolor="#d1d1d1"
     inkscape:zoom="11.78125"
     inkscape:cx="31.95756"
     inkscape:cy="32"
     inkscape:window-width="1920"
     inkscape:window-height="994"
     inkscape:window-x="0"
     inkscape:window-y="0"
     inkscape:window-maximized="1"
     inkscape:current-layer="svg6" />
  <g
     id="g6"
     transform="translate(-1,-1.5)">
    <circle
       style="opacity:0.2"
       cx="32"
       cy="33"
       r="28"
       id="circle1" />
    <circle
       style="fill:#454564"
       cx="32"
       cy="32"
       r="28"
       id="circle2" />
    <path
       style="opacity:0.2"
       d="m 15,27 c -3.313708,0 -6,2.686292 -6,6 0,3.313708 2.686292,6 6,6 3.313708,0 6,-2.686292 6,-6 0,-3.313708 -2.686292,-6 -6,-6 z m 17,0 c -3.313708,0 -6,2.686292 -6,6 0,3.313708 2.686292,6 6,6 3.313708,0 6,-2.686292 6,-6 0,-3.313708 -2.686292,-6 -6,-6 z m 17,0 c -3.313708,0 -6,2.686292 -6,6 0,3.313708 2.686292,6 6,6 3.313708,0 6,-2.686292 6,-6 0,-3.313708 -2.686292,-6 -6,-6 z"
       id="path2" />
    <circle
       style="fill:#2196f3"
       cx="32"
       cy="32"
       r="6"
       id="circle3" />
    <circle
       style="fill:#2196f3"
       cx="49"
       cy="32"
       r="6"
       id="circle4" />
    <circle
       style="fill:#2196f3"
       cx="15"
       cy="32"
       r="6"
       id="circle5" />
    <path
       style="opacity:0.1;fill:#ffffff"
       d="M 32,4 A 28,28 0 0 0 4,32 28,28 0 0 0 4.0175781,32.492188 28,28 0 0 1 32,5 28,28 0 0 1 59.974609,32.492188 28,28 0 0 0 60,32 28,28 0 0 0 32,4 Z"
       id="path5" />
    <path
       style="opacity:0.2;fill:#ffffff"
       d="m 15,26 c -3.313708,0 -6,2.686292 -6,6 0.00258,0.161761 0.011703,0.323351 0.027344,0.484375 C 9.2947693,29.384016 11.88813,27.00267 15,27 c 3.123716,0.0019 5.723371,2.400234 5.976562,5.513672 C 20.991711,32.342862 20.999531,32.17148 21,32 21,28.686292 18.313708,26 15,26 Z m 17,0 c -3.313708,0 -6,2.686292 -6,6 0.0026,0.161761 0.0117,0.323351 0.02734,0.484375 C 26.294769,29.384016 28.88813,27.00267 32,27 c 3.123716,0.0019 5.723371,2.400234 5.976562,5.513672 C 37.991711,32.342862 37.999531,32.17148 38,32 38,28.686292 35.313708,26 32,26 Z m 17,0 c -3.313708,0 -6,2.686292 -6,6 0.0026,0.161761 0.0117,0.323351 0.02734,0.484375 C 43.294769,29.384016 45.88813,27.00267 49,27 c 3.123716,0.0019 5.723371,2.400234 5.976562,5.513672 C 54.991711,32.342862 54.999531,32.17148 55,32 55,28.686292 52.313708,26 49,26 Z"
       id="path6" />
  </g>
</svg>
