<?xml version="1.0" encoding="UTF-8" standalone="no"?>
<svg
   width="22"
   height="22"
   viewBox="0 0 5.8208328 5.8208328"
   version="1.1"
   id="svg1114"
   inkscape:version="1.4 (e7c3feb100, 2024-10-09)"
   sodipodi:docname="system-run.svg"
   xmlns:inkscape="http://www.inkscape.org/namespaces/inkscape"
   xmlns:sodipodi="http://sodipodi.sourceforge.net/DTD/sodipodi-0.dtd"
   xmlns:xlink="http://www.w3.org/1999/xlink"
   xmlns="http://www.w3.org/2000/svg"
   xmlns:svg="http://www.w3.org/2000/svg"
   xmlns:rdf="http://www.w3.org/1999/02/22-rdf-syntax-ns#"
   xmlns:cc="http://creativecommons.org/ns#"
   xmlns:dc="http://purl.org/dc/elements/1.1/">
  <style
     type="text/css"
     id="current-color-scheme">.ColorScheme-Highlight { color:#5599ff; }
</style>
  <defs
     id="defs1108">
    <linearGradient
       id="linearGradient1167"
       x1="40.751999"
       x2="40.751999"
       y1="28.507999"
       y2="17.205999"
       gradientUnits="userSpaceOnUse">
      <stop
         style="stop-color:#84fb6e;stop-opacity:1"
         stop-color="#0ab816"
         offset="0"
         id="stop1163" />
      <stop
         style="stop-color:#0dd41a;stop-opacity:1"
         stop-color="#0cf36c"
         offset="1"
         id="stop1165" />
    </linearGradient>
    <linearGradient
       id="paint2_linear_77:3-7"
       x1="79.398094"
       y1="-197.84389"
       x2="82.901054"
       y2="-199.97827"
       gradientUnits="userSpaceOnUse"
       gradientTransform="matrix(1.9248511,0,0,1.7314595,-40.88733,399.61741)">
      <stop
         stop-color="#EBFAFF"
         stop-opacity="0.1"
         id="stop29-5-7"
         offset="0"
         style="stop-color:#c3c3c3;stop-opacity:1;" />
      <stop
         offset="1"
         stop-color="#70A9FF"
         stop-opacity="0.5"
         id="stop30-0-1"
         style="stop-color:#05c7ff;stop-opacity:0.80000001;" />
    </linearGradient>
    <linearGradient
       id="paint451_linear_890_11"
       x1="55"
       y1="461"
       x2="111"
       y2="517"
       gradientUnits="userSpaceOnUse"
       gradientTransform="matrix(0.08504464,0,0,0.08504464,-4.4128712,-38.940986)">
      <stop
         offset="0.303571"
         stop-color="#EFF2F6"
         id="stop1644"
         style="stop-color:#5599ff;stop-opacity:1" />
      <stop
         offset="1"
         stop-color="#B7C6CD"
         id="stop1645"
         style="stop-color:#b380ff;stop-opacity:1" />
    </linearGradient>
    <linearGradient
       id="paint452_linear_890_11"
       x1="102.6"
       y1="509.33331"
       x2="67.655701"
       y2="465.78699"
       gradientUnits="userSpaceOnUse"
       gradientTransform="matrix(0.08504464,0,0,0.10205362,-4.4128712,-47.666577)">
      <stop
         stop-color="#2E2E41"
         id="stop1646" />
      <stop
         offset="1"
         stop-color="#566C80"
         id="stop1647" />
    </linearGradient>
    <linearGradient
       id="paint453_linear_890_11"
       x1="61"
       y1="465"
       x2="65"
       y2="469"
       gradientUnits="userSpaceOnUse"
       gradientTransform="matrix(0.1322916,0,0,0.1322916,-5.0081808,-60.949989)">
      <stop
         offset="0.236371"
         stop-color="#F15700"
         id="stop1648" />
      <stop
         offset="0.855848"
         stop-color="#FF0000"
         id="stop1649" />
    </linearGradient>
    <linearGradient
       id="paint454_linear_890_11"
       x1="71"
       y1="469"
       x2="67"
       y2="465"
       gradientUnits="userSpaceOnUse"
       gradientTransform="matrix(0.1322916,0,0,0.1322916,-5.0081808,-60.949989)">
      <stop
         stop-color="#FF7E07"
         id="stop1650" />
      <stop
         offset="1"
         stop-color="#FFE607"
         id="stop1651" />
    </linearGradient>
    <linearGradient
       id="paint455_linear_890_11"
       x1="77"
       y1="469"
       x2="73"
       y2="465"
       gradientUnits="userSpaceOnUse"
       gradientTransform="matrix(0.1322916,0,0,0.1322916,-5.0081808,-60.949989)">
      <stop
         stop-color="#089953"
         id="stop1652" />
      <stop
         offset="1"
         stop-color="#16D96F"
         id="stop1653" />
    </linearGradient>
    <linearGradient
       id="paint456_linear_890_11"
       x1="80"
       y1="486"
       x2="80"
       y2="492"
       gradientUnits="userSpaceOnUse"
       gradientTransform="matrix(0.09449404,0,0,0.09449404,-4.9325889,-43.297169)">
      <stop
         offset="0.189495"
         stop-color="#EFF2F6"
         id="stop1654" />
      <stop
         offset="0.850463"
         stop-color="#B7C6CD"
         id="stop1655" />
    </linearGradient>
    <linearGradient
       id="paint457_linear_890_11"
       x1="82"
       y1="494"
       x2="82"
       y2="500"
       gradientUnits="userSpaceOnUse">
      <stop
         offset="0.189495"
         stop-color="#EFF2F6"
         id="stop1656" />
      <stop
         offset="0.850463"
         stop-color="#B7C6CD"
         id="stop1657" />
    </linearGradient>
    <linearGradient
       id="linearGradient3954">
      <stop
         style="stop-color:#b3b3b3;stop-opacity:1;"
         offset="0"
         id="stop3956" />
      <stop
         id="stop3962"
         offset="0.52879584"
         style="stop-color:#ffffff;stop-opacity:1;" />
      <stop
         style="stop-color:#c5c5c5;stop-opacity:1;"
         offset="1"
         id="stop3958" />
    </linearGradient>
    <linearGradient
       id="linearGradient4601">
      <stop
         style="stop-color:white;stop-opacity:0"
         offset="0"
         id="stop4603" />
      <stop
         id="stop4609"
         offset="0.60768723"
         style="stop-color:white;stop-opacity:0;" />
      <stop
         style="stop-color:white;stop-opacity:1;"
         offset="0.80807632"
         id="stop4613" />
      <stop
         style="stop-color:white;stop-opacity:0;"
         offset="0.94315338"
         id="stop4611" />
      <stop
         style="stop-color:white;stop-opacity:0"
         offset="1"
         id="stop4605" />
    </linearGradient>
    <linearGradient
       id="linearGradient6728">
      <stop
         style="stop-color:#002246;stop-opacity:0;"
         offset="0"
         id="stop6730" />
      <stop
         id="stop6736"
         offset="0.86725664"
         style="stop-color:#002246;stop-opacity:0;" />
      <stop
         style="stop-color:#002246;stop-opacity:0.71530247;"
         offset="1"
         id="stop6732" />
    </linearGradient>
    <radialGradient
       inkscape:collect="always"
       xlink:href="#linearGradient8361"
       id="radialGradient2922"
       gradientUnits="userSpaceOnUse"
       gradientTransform="matrix(-0.02446993,0,0,0.02541196,4.5139146,1.402754)"
       cx="64.49144"
       cy="66.580559"
       fx="64.407242"
       fy="37.039101"
       r="63.144386" />
    <linearGradient
       id="linearGradient8361">
      <stop
         id="stop8363"
         offset="0"
         style="stop-color:#002246;stop-opacity:0;" />
      <stop
         style="stop-color:#002246;stop-opacity:0;"
         offset="0.78761059"
         id="stop8365" />
      <stop
         id="stop8367"
         offset="1"
         style="stop-color:#00438a;stop-opacity:1;" />
    </linearGradient>
    <linearGradient
       id="linearGradient3937">
      <stop
         style="stop-color:black;stop-opacity:0;"
         offset="0"
         id="stop3939" />
      <stop
         id="stop3945"
         offset="0.72566372"
         style="stop-color:black;stop-opacity:0;" />
      <stop
         style="stop-color:black;stop-opacity:1;"
         offset="1"
         id="stop3941" />
    </linearGradient>
    <linearGradient
       inkscape:collect="always"
       xlink:href="#linearGradient3954"
       id="linearGradient3921"
       gradientUnits="userSpaceOnUse"
       gradientTransform="matrix(0.04032139,-0.00740348,0.00741731,0.04024625,-0.11550042,0.8978847)"
       x1="15.924325"
       y1="123.32511"
       x2="129.0378"
       y2="16.425045" />
    <linearGradient
       inkscape:collect="always"
       xlink:href="#linearGradient3954"
       id="linearGradient3923"
       gradientUnits="userSpaceOnUse"
       gradientTransform="matrix(0.05688176,-0.01044416,0.01046365,0.05677577,-1.3592117,0.15774737)"
       x1="64.03125"
       y1="122.58837"
       x2="62.680851"
       y2="36.132423" />
    <linearGradient
       inkscape:collect="always"
       xlink:href="#linearGradient3954"
       id="linearGradient3925"
       gradientUnits="userSpaceOnUse"
       x1="60.915264"
       y1="-128.66283"
       x2="63.859375"
       y2="130.06842"
       gradientTransform="matrix(0.04523825,0,0,0.04515396,0.02152991,0.18868095)" />
    <linearGradient
       id="linearGradient2990">
      <stop
         id="stop2992"
         offset="0"
         style="stop-color:#d7d7d7;stop-opacity:1;" />
      <stop
         id="stop2994"
         offset="1"
         style="stop-color:#ffffff;stop-opacity:1;" />
    </linearGradient>
    <clipPath
       clipPathUnits="userSpaceOnUse"
       id="clipPath6097">
      <path
         style="fill:url(#radialGradient6101);fill-opacity:1;fill-rule:evenodd;stroke:none;stroke-width:7.99998;stroke-linecap:round;stroke-linejoin:round;stroke-miterlimit:4;stroke-dasharray:none;stroke-opacity:1"
         d="m 151.42888,45.294924 c -5.42224,0.212474 -9.70739,4.671813 -9.70376,10.098216 v 25.245539 c 0.0171,3.487235 1.83207,6.718917 4.80092,8.54838 2.96888,1.829463 6.67151,1.997824 9.79416,0.445344 l 25.24554,-12.62277 c 3.37866,-1.725896 5.50499,-5.199776 5.50499,-8.993723 0,-3.793948 -2.12633,-7.267827 -5.50499,-8.993724 L 156.3202,46.399416 c -1.51165,-0.77352 -3.19397,-1.153395 -4.89132,-1.104492 z"
         id="path6099" />
    </clipPath>
    <radialGradient
       inkscape:collect="always"
       xlink:href="#linearGradient3184"
       id="radialGradient6101"
       gradientUnits="userSpaceOnUse"
       gradientTransform="matrix(0.9739412,0,0,0.9750591,-92.994702,1.6957237)"
       cx="255"
       cy="63.005722"
       fx="262.43524"
       fy="71.574997"
       r="23.279442" />
    <linearGradient
       id="linearGradient3184">
      <stop
         style="stop-color:#fcfcfc;stop-opacity:1;"
         offset="0"
         id="stop3186" />
      <stop
         style="stop-color:#c0c0c0;stop-opacity:1;"
         offset="1"
         id="stop3188" />
    </linearGradient>
  </defs>
  <sodipodi:namedview
     id="base"
     pagecolor="#e2e2e2"
     bordercolor="#666666"
     borderopacity="1.0"
     inkscape:pageopacity="0"
     inkscape:pageshadow="2"
     inkscape:zoom="19.449746"
     inkscape:cx="-2.2879476"
     inkscape:cy="10.539983"
     inkscape:document-units="px"
     inkscape:current-layer="layer1"
     inkscape:document-rotation="0"
     showgrid="false"
     units="px"
     inkscape:window-width="1920"
     inkscape:window-height="994"
     inkscape:window-x="0"
     inkscape:window-y="0"
     inkscape:window-maximized="1"
     inkscape:object-paths="true"
     inkscape:snap-grids="true"
     inkscape:snap-intersection-paths="true"
     inkscape:snap-smooth-nodes="true"
     inkscape:snap-midpoints="true"
     inkscape:showpageshadow="2"
     inkscape:pagecheckerboard="0"
     inkscape:deskcolor="#d1d1d1">
    <inkscape:grid
       id="grid1"
       units="px"
       originx="0"
       originy="0"
       spacingx="0.26458331"
       spacingy="0.26458331"
       empcolor="#0099e5"
       empopacity="0.30196078"
       color="#0099e5"
       opacity="0.14902"
       empspacing="5"
       enabled="true"
       visible="false" />
  </sodipodi:namedview>
  <metadata
     id="metadata1111">
    <rdf:RDF>
      <cc:Work
         rdf:about="">
        <dc:format>image/svg+xml</dc:format>
        <dc:type
           rdf:resource="http://purl.org/dc/dcmitype/StillImage" />
      </cc:Work>
    </rdf:RDF>
  </metadata>
  <g
     inkscape:label="Layer 1"
     inkscape:groupmode="layer"
     id="layer1">
    <ellipse
       transform="scale(-1,1)"
       inkscape:r_cy="true"
       inkscape:r_cx="true"
       id="path6664"
       style="fill:#0057ae;fill-opacity:1;fill-rule:nonzero;stroke:none;stroke-width:0.0158209;stroke-linecap:round;stroke-linejoin:round;stroke-miterlimit:4;stroke-dasharray:none;stroke-dashoffset:4;stroke-opacity:0.990826"
       cx="-2.9520383"
       cy="2.8897464"
       rx="1.4284744"
       ry="1.4258136" />
    <path
       d="M 2.5714738,2.1228472 C 2.5203558,2.0901372 2.4546614,2.0870912 2.400446,2.1149372 2.346307,2.1427872 2.312479,2.1969652 2.312479,2.2560023 v 1.2674835 c 0,0.059037 0.033824,0.1132148 0.087967,0.1410651 0.054214,0.027851 0.1199082,0.024808 0.1710278,-0.00791 0.2825546,-0.1809546 0.72919,-0.4669293 0.9897715,-0.6337414 0.046289,-0.029664 0.07415,-0.079635 0.07415,-0.1331598 0,-0.053526 -0.02786,-0.1034958 -0.07415,-0.1331597 C 3.3006638,2.5897771 2.8540284,2.3038025 2.5714738,2.1228472 Z"
       fill-opacity="0.85"
       id="path3"
       style="stroke-width:0.0740023;fill:#ffffff;fill-opacity:1" />
    <path
       style="opacity:0.5;fill:url(#radialGradient2922);fill-opacity:1;fill-rule:nonzero;stroke:none;stroke-width:0.0274643;stroke-linecap:round;stroke-linejoin:round;stroke-miterlimit:4;stroke-dasharray:none;stroke-dashoffset:4;stroke-opacity:0.990826"
       d="m 2.951555,1.4639308 c 0.025135,0 0.050445,7.404e-4 0.075262,0.00203 0.023991,0.00123 0.047529,0.00266 0.071194,0.00506 0.015981,0.00162 0.03198,0.00393 0.047801,0.00608 3.338e-4,4.71e-5 6.833e-4,-4.7e-5 0.00102,0 0.031302,0.00427 0.061929,0.00994 0.092552,0.016202 0.029243,0.00598 0.057887,0.012512 0.08645,0.020253 0.00405,0.0011 0.00817,0.00191 0.012205,0.00304 0.027749,0.00779 0.055343,0.016937 0.082381,0.026329 0.029351,0.010196 0.058003,0.021396 0.08645,0.033418 2.867e-4,1.215e-4 7.305e-4,-1.215e-4 0.00102,0 0.027174,0.011504 0.054063,0.024361 0.080347,0.037468 0.00258,0.00129 0.00556,0.00173 0.00814,0.00304 0.025781,0.013052 0.050408,0.02698 0.075262,0.041519 0.021732,0.012713 0.043093,0.026699 0.064074,0.040506 0.00453,0.00298 0.00974,0.00507 0.014239,0.0081 3.887e-4,2.588e-4 6.303e-4,7.519e-4 0.00102,0.00101 0.00544,0.00368 0.010885,0.00739 0.016273,0.011139 0.016957,0.011782 0.033425,0.02397 0.049836,0.036455 0.00575,0.00438 0.011605,0.0087 0.01729,0.013165 0.020545,0.016149 0.04039,0.033406 0.060006,0.050633 0.022676,0.019914 0.043722,0.040482 0.065091,0.061772 5.129e-4,5.104e-4 0.00152,5.013e-4 0.00203,0.00101 0.021177,0.021162 0.042219,0.043376 0.06204,0.065822 0.019645,0.022247 0.038708,0.044405 0.056955,0.067848 7.449e-4,9.569e-4 0.00129,0.00208 0.00203,0.00304 0.018354,0.023703 0.036027,0.048061 0.052887,0.072911 2.67e-4,3.92e-4 7.516e-4,6.205e-4 0.00102,0.00101 0.016841,0.024875 0.032523,0.051008 0.047801,0.076961 -0.020388,0.080476 -0.066203,0.1557797 -0.1311998,0.2248084 -0.0095,-0.011251 -0.019672,-0.022294 -0.029495,-0.033418 -0.019821,-0.022446 -0.040863,-0.044661 -0.06204,-0.065822 -5.121e-4,-5.112e-4 -0.00152,-5.025e-4 -0.00203,-0.00101 -0.021369,-0.021289 -0.042416,-0.041858 -0.065091,-0.061772 -0.019616,-0.017227 -0.039461,-0.034483 -0.060006,-0.050632 -0.00568,-0.00447 -0.011536,-0.00878 -0.01729,-0.013165 -0.016411,-0.012486 -0.032878,-0.024674 -0.049836,-0.036455 -0.00539,-0.00375 -0.010831,-0.00746 -0.016273,-0.011139 -3.849e-4,-2.627e-4 -6.299e-4,-7.522e-4 -0.00102,-0.00101 -0.00449,-0.00303 -0.00971,-0.00512 -0.014239,-0.0081 -0.020981,-0.013807 -0.042342,-0.027793 -0.064074,-0.040506 -0.024854,-0.014539 -0.049481,-0.028467 -0.075262,-0.041519 -0.00257,-0.0013 -0.00555,-0.00175 -0.00814,-0.00304 -0.026284,-0.013107 -0.053173,-0.025964 -0.080347,-0.037468 -2.867e-4,-1.215e-4 -7.305e-4,1.215e-4 -0.00102,0 -0.028446,-0.012021 -0.057098,-0.023222 -0.08645,-0.033418 -0.027038,-0.00939 -0.054633,-0.018544 -0.082381,-0.026329 -0.00403,-0.00113 -0.00816,-0.00194 -0.012205,-0.00304 -0.028563,-0.00774 -0.057207,-0.014271 -0.08645,-0.020253 -0.030623,-0.00626 -0.06125,-0.011934 -0.092552,-0.016202 -3.338e-4,-4.7e-5 -6.833e-4,4.7e-5 -0.00102,0 -0.015821,-0.00215 -0.03182,-0.00445 -0.047801,-0.00608 -0.023664,-0.0024 -0.047203,-0.00383 -0.071194,-0.00506 -0.024817,-0.00128 -0.050127,-0.00203 -0.075262,-0.00203 -0.030968,0 -0.061055,0.0011 -0.091535,0.00304 -0.00478,3.019e-4 -0.00947,6.621e-4 -0.014239,0.00101 -0.020172,0.00149 -0.040075,0.00376 -0.060006,0.00608 -0.0126,0.00146 -0.025133,0.00226 -0.037631,0.00405 -0.00442,6.319e-4 -0.00882,0.00135 -0.013222,0.00203 -0.00477,7.271e-4 -0.00949,0.00226 -0.014239,0.00304 -0.018755,0.00306 -0.037435,0.00634 -0.055938,0.010127 -0.023241,0.00475 -0.046344,0.00933 -0.06916,0.01519 -7.148e-4,1.842e-4 -0.00132,8.278e-4 -0.00203,0.00101 -0.022082,0.00571 -0.044453,0.0115 -0.066108,0.018228 -0.00641,0.00199 -0.012956,0.004 -0.019324,0.00608 -0.00451,0.00147 -0.00873,0.00355 -0.013222,0.00506 -0.02129,0.00718 -0.042229,0.01515 -0.063057,0.023291 -0.00199,7.781e-4 -0.00412,0.00124 -0.0061,0.00203 -0.00308,0.00122 -0.00609,0.00281 -0.00915,0.00405 -0.023955,0.00968 -0.047905,0.019456 -0.071194,0.030379 -0.025048,0.011758 -0.050016,0.024325 -0.074245,0.037468 -0.00107,5.785e-4 -0.00199,0.00144 -0.00305,0.00203 -0.019141,0.010446 -0.038358,0.021122 -0.056955,0.032405 -0.00608,0.00369 -0.012287,0.00736 -0.018307,0.011139 -0.00658,0.00413 -0.012813,0.00893 -0.019324,0.013164 -0.017607,0.011452 -0.034811,0.023249 -0.05187,0.035443 -0.016523,0.011811 -0.032831,0.023969 -0.048819,0.036455 -0.00666,0.0052 -0.013775,0.00987 -0.020341,0.01519 -0.020924,0.016942 -0.041101,0.034584 -0.061023,0.052658 -0.00141,0.00128 -0.00266,0.00277 -0.00407,0.00405 -0.021182,0.019367 -0.041044,0.039152 -0.061023,0.059746 -0.016353,0.016856 -0.032287,0.034983 -0.047801,0.052658 -0.067472,-0.081218 -0.1081814,-0.1705788 -0.114927,-0.2653144 0.014123,-0.021096 0.028533,-0.04149 0.043733,-0.061772 0.00203,-0.00271 0.00406,-0.00541 0.0061,-0.0081 0.011843,-0.015571 0.024154,-0.030508 0.036614,-0.045569 0.00577,-0.00698 0.011387,-0.014396 0.01729,-0.021266 0.00309,-0.00359 0.00705,-0.00657 0.010171,-0.010126 0.015806,-0.018014 0.032136,-0.036474 0.048819,-0.05367 0.019979,-0.020594 0.039842,-0.04038 0.061023,-0.059746 0.00141,-0.00129 0.00266,-0.00277 0.00407,-0.00405 0.019922,-0.018074 0.040099,-0.035716 0.061023,-0.052658 0.00657,-0.00532 0.01368,-0.00999 0.020341,-0.01519 0.015988,-0.012487 0.032295,-0.024644 0.048819,-0.036455 0.017059,-0.012194 0.034263,-0.023991 0.05187,-0.035443 0.00651,-0.00423 0.01274,-0.00903 0.019324,-0.013165 0.00602,-0.00378 0.012227,-0.00745 0.018307,-0.011139 0.018598,-0.011283 0.037814,-0.021958 0.056955,-0.032405 0.00107,-5.813e-4 0.00198,-0.00145 0.00305,-0.00203 0.024228,-0.013143 0.049197,-0.02571 0.074245,-0.037468 0.023289,-0.010924 0.047239,-0.020695 0.071194,-0.03038 0.00307,-0.00124 0.00608,-0.00283 0.00915,-0.00405 0.00199,-7.867e-4 0.00411,-0.00125 0.0061,-0.00203 0.020828,-0.00814 0.041767,-0.016111 0.063057,-0.023291 0.00449,-0.00152 0.00871,-0.00359 0.013222,-0.00506 0.00637,-0.00208 0.012917,-0.00409 0.019324,-0.00608 0.021655,-0.00673 0.044026,-0.012515 0.066108,-0.018228 7.144e-4,-1.842e-4 0.00132,-8.29e-4 0.00203,-0.00101 0.022815,-0.00586 0.045919,-0.010439 0.06916,-0.01519 0.018503,-0.00378 0.037183,-0.00707 0.055938,-0.010126 0.00475,-7.742e-4 0.00947,-0.00231 0.014239,-0.00304 0.0044,-6.723e-4 0.00881,-0.00139 0.013222,-0.00203 0.012498,-0.00179 0.025031,-0.00259 0.037631,-0.00405 0.019931,-0.00232 0.039834,-0.00459 0.060006,-0.00608 0.00477,-3.489e-4 0.00946,-7.091e-4 0.014239,-0.00101 0.030479,-0.00194 0.060567,-0.00304 0.091535,-0.00304 z"
       id="path8340" />
    <path
       style="opacity:0.1;fill:none;fill-opacity:1;fill-rule:nonzero;stroke:#000000;stroke-width:0.337241;stroke-linecap:round;stroke-linejoin:round;stroke-miterlimit:4;stroke-dasharray:none;stroke-dashoffset:4;stroke-opacity:1"
       d="M 2.7301702,0.55555686 C 2.563174,0.56825699 2.4007332,0.59730933 2.2452727,0.64304265 L 2.2438589,1.0226181 C 2.1145512,1.0684034 1.990523,1.1268688 1.8762981,1.1961786 L 1.5822495,0.95770931 C 1.4461654,1.0509379 1.3196264,1.1590346 1.2062066,1.2780202 L 1.3956417,1.6067974 C 1.3083155,1.7093706 1.2301703,1.820437 1.1652094,1.9383968 L 0.78916649,1.8805433 C 0.71872958,2.0268812 0.66277331,2.1821674 0.62376414,2.3433714 l 0.32797732,0.1919043 c -0.0242445,0.1312133 -0.03425,0.2666524 -0.0311013,0.4035635 L 0.56580262,3.0743011 c 0.0126229,0.166737 0.0419116,0.328764 0.0876491,0.483994 l 0.38169778,0.00141 C 1.0810205,3.6887718 1.1395949,3.8111581 1.209034,3.92517 L 0.9687058,4.2200829 c 0.0935946,0.1364617 0.2012979,0.2616572 0.3209088,0.375342 L 1.6204194,4.4063428 c 0.1027647,0.087163 0.2140382,0.1637524 0.3322184,0.2285919 l -0.059375,0.3781646 c 0.1464899,0.070247 0.3023312,0.1261621 0.4636921,0.1650941 l 0.193676,-0.3301882 c 0.1314584,0.024199 0.2657365,0.035597 0.4029032,0.032454 L 3.0920762,5.236047 C 3.258702,5.2233298 3.4204214,5.1941692 3.5755601,5.1485609 l 0.00141,-0.3823976 C 3.7062813,4.7203778 3.8288961,4.6619127 3.9431209,4.592603 l 0.296876,0.2398803 C 4.3763937,4.7390151 4.5024231,4.6315135 4.6160396,4.5121723 L 4.4251911,4.1819842 C 4.5125173,4.0794108 4.5892489,3.9669337 4.6542095,3.8489738 l 0.3802841,0.059264 C 5.1048833,3.7614916 5.1596782,3.6056441 5.1984823,3.4439992 L 4.8676777,3.253506 C 4.8919225,3.1222924 4.9033409,2.9868537 4.9001926,2.8499425 L 5.2550302,2.7144806 C 5.2422369,2.5475376 5.2133687,2.3858697 5.1673812,2.2304866 L 4.7856834,2.2290754 C 4.7398121,2.1000086 4.6812382,1.9776225 4.6117988,1.8636106 L 4.8507134,1.5672877 C 4.7571102,1.4314308 4.6492366,1.3065333 4.5298044,1.1933565 L 4.1989998,1.3824387 C 4.0962348,1.2952752 3.9849615,1.2186865 3.8667814,1.1538468 L 3.9261565,0.77709347 C 3.7783124,0.70629739 3.6225909,0.65088955 3.459637,0.61199931 L 3.2702018,0.93936552 C 3.1387433,0.91516613 3.0030516,0.90517951 2.865885,0.90832214 Z"
       id="path3933"
       sodipodi:nodetypes="ccccccccccccccccccccccccccccccccccccccccccccccccc" />
    <path
       sodipodi:nodetypes="ccccccccccccccccccccccccccccccccccccccccccccccccc"
       id="path3931"
       d="M 2.7301702,0.55555686 C 2.563174,0.56825699 2.4007332,0.59730933 2.2452727,0.64304265 L 2.2438589,1.0226181 C 2.1145512,1.0684034 1.990523,1.1268688 1.8762981,1.1961786 L 1.5822495,0.95770931 C 1.4461654,1.0509379 1.3196264,1.1590346 1.2062066,1.2780202 L 1.3956417,1.6067974 C 1.3083155,1.7093706 1.2301703,1.820437 1.1652094,1.9383968 L 0.78916649,1.8805433 C 0.71872958,2.0268812 0.66277331,2.1821674 0.62376414,2.3433714 l 0.32797732,0.1919043 c -0.0242445,0.1312133 -0.03425,0.2666524 -0.0311013,0.4035635 L 0.56580262,3.0743011 c 0.0126229,0.166737 0.0419116,0.328764 0.0876491,0.483994 l 0.38169778,0.00141 C 1.0810205,3.6887718 1.1395949,3.8111581 1.209034,3.92517 L 0.9687058,4.2200829 c 0.0935946,0.1364617 0.2012979,0.2616572 0.3209088,0.375342 L 1.6204194,4.4063428 c 0.1027647,0.087163 0.2140382,0.1637524 0.3322184,0.2285919 l -0.059375,0.3781646 c 0.1464899,0.070247 0.3023312,0.1261621 0.4636921,0.1650941 l 0.193676,-0.3301882 c 0.1314584,0.024199 0.2657365,0.035597 0.4029032,0.032454 L 3.0920762,5.236047 C 3.258702,5.2233298 3.4204214,5.1941692 3.5755601,5.1485609 l 0.00141,-0.3823976 C 3.7062813,4.7203778 3.8288961,4.6619127 3.9431209,4.592603 l 0.296876,0.2398803 C 4.3763937,4.7390151 4.5024231,4.6315135 4.6160396,4.5121723 L 4.4251911,4.1819842 C 4.5125173,4.0794108 4.5892489,3.9669337 4.6542095,3.8489738 l 0.3802841,0.059264 C 5.1048833,3.7614916 5.1596782,3.6056441 5.1984823,3.4439992 L 4.8676777,3.253506 C 4.8919225,3.1222924 4.9033409,2.9868537 4.9001926,2.8499425 L 5.2550302,2.7144806 C 5.2422369,2.5475376 5.2133687,2.3858697 5.1673812,2.2304866 L 4.7856834,2.2290754 C 4.7398121,2.1000086 4.6812382,1.9776225 4.6117988,1.8636106 L 4.8507134,1.5672877 C 4.7571102,1.4314308 4.6492366,1.3065333 4.5298044,1.1933565 L 4.1989998,1.3824387 C 4.0962348,1.2952752 3.9849615,1.2186865 3.8667814,1.1538468 L 3.9261565,0.77709347 C 3.7783124,0.70629739 3.6225909,0.65088955 3.459637,0.61199931 L 3.2702018,0.93936552 C 3.1387433,0.91516613 3.0030516,0.90517951 2.865885,0.90832214 Z"
       style="opacity:0.2;fill:none;fill-opacity:1;fill-rule:nonzero;stroke:#000000;stroke-width:0.25293;stroke-linecap:round;stroke-linejoin:round;stroke-miterlimit:4;stroke-dasharray:none;stroke-dashoffset:4;stroke-opacity:1" />
    <path
       style="opacity:0.3;fill:none;fill-opacity:1;fill-rule:nonzero;stroke:#000000;stroke-width:0.16862;stroke-linecap:round;stroke-linejoin:round;stroke-miterlimit:4;stroke-dasharray:none;stroke-dashoffset:4;stroke-opacity:1"
       d="M 2.7301702,0.55555686 C 2.563174,0.56825699 2.4007332,0.59730933 2.2452727,0.64304265 L 2.2438589,1.0226181 C 2.1145512,1.0684034 1.990523,1.1268688 1.8762981,1.1961786 L 1.5822495,0.95770931 C 1.4461654,1.0509379 1.3196264,1.1590346 1.2062066,1.2780202 L 1.3956417,1.6067974 C 1.3083155,1.7093706 1.2301703,1.820437 1.1652094,1.9383968 L 0.78916649,1.8805433 C 0.71872958,2.0268812 0.66277331,2.1821674 0.62376414,2.3433714 l 0.32797732,0.1919043 c -0.0242445,0.1312133 -0.03425,0.2666524 -0.0311013,0.4035635 L 0.56580262,3.0743011 c 0.0126229,0.166737 0.0419116,0.328764 0.0876491,0.483994 l 0.38169778,0.00141 C 1.0810205,3.6887718 1.1395949,3.8111581 1.209034,3.92517 L 0.9687058,4.2200829 c 0.0935946,0.1364617 0.2012979,0.2616572 0.3209088,0.375342 L 1.6204194,4.4063428 c 0.1027647,0.087163 0.2140382,0.1637524 0.3322184,0.2285919 l -0.059375,0.3781646 c 0.1464899,0.070247 0.3023312,0.1261621 0.4636921,0.1650941 l 0.193676,-0.3301882 c 0.1314584,0.024199 0.2657365,0.035597 0.4029032,0.032454 L 3.0920762,5.236047 C 3.258702,5.2233298 3.4204214,5.1941692 3.5755601,5.1485609 l 0.00141,-0.3823976 C 3.7062813,4.7203778 3.8288961,4.6619127 3.9431209,4.592603 l 0.296876,0.2398803 C 4.3763937,4.7390151 4.5024231,4.6315135 4.6160396,4.5121723 L 4.4251911,4.1819842 C 4.5125173,4.0794108 4.5892489,3.9669337 4.6542095,3.8489738 l 0.3802841,0.059264 C 5.1048833,3.7614916 5.1596782,3.6056441 5.1984823,3.4439992 L 4.8676777,3.253506 C 4.8919225,3.1222924 4.9033409,2.9868537 4.9001926,2.8499425 L 5.2550302,2.7144806 C 5.2422369,2.5475376 5.2133687,2.3858697 5.1673812,2.2304866 L 4.7856834,2.2290754 C 4.7398121,2.1000086 4.6812382,1.9776225 4.6117988,1.8636106 L 4.8507134,1.5672877 C 4.7571102,1.4314308 4.6492366,1.3065333 4.5298044,1.1933565 L 4.1989998,1.3824387 C 4.0962348,1.2952752 3.9849615,1.2186865 3.8667814,1.1538468 L 3.9261565,0.77709347 C 3.7783124,0.70629739 3.6225909,0.65088955 3.459637,0.61199931 L 3.2702018,0.93936552 C 3.1387433,0.91516613 3.0030516,0.90517951 2.865885,0.90832214 Z"
       id="path3927"
       sodipodi:nodetypes="ccccccccccccccccccccccccccccccccccccccccccccccccc" />
    <path
       style="fill:url(#linearGradient3921);fill-opacity:1;fill-rule:nonzero;stroke:none;stroke-width:0.0286718;stroke-linecap:round;stroke-linejoin:round;stroke-miterlimit:4;stroke-dasharray:none;stroke-dashoffset:4;stroke-opacity:0.990826"
       d="M 2.7304126,0.55589516 C 2.5634163,0.56859529 2.4003037,0.59712009 2.2448433,0.64285343 L 2.2435623,1.0226565 C 2.1142545,1.0684418 1.9900869,1.1272632 1.875862,1.196573 L 1.5824704,0.95743778 C 1.4463862,1.0506665 1.3192218,1.1594305 1.2058018,1.2784161 L 1.3954173,1.6070672 C 1.3080911,1.7096404 1.2297649,1.8203161 1.1648039,1.9382759 L 0.78941656,1.88073 C 0.7189796,2.027068 0.66315282,2.1824509 0.62414363,2.3436549 L 0.95212711,2.5354747 C 0.92788263,2.6666881 0.91694875,2.8013849 0.92009746,2.9382961 L 0.56520909,3.0738487 c 0.0126229,0.166737 0.0426642,0.3294345 0.0884018,0.4846645 l 0.38179331,0.00128 c 0.045871,0.1290666 0.104802,0.2517244 0.1742412,0.3657363 L 0.96878253,4.2196519 C 1.0623771,4.3561138 1.169468,4.4819337 1.2890789,4.5956186 l 0.331827,-0.189262 C 1.7236708,4.4935196 1.8345528,4.5704213 1.952733,4.6352612 L 1.893798,5.0125066 c 0.1464899,0.070247 0.3024282,0.1273118 0.4637891,0.1662439 l 0.193459,-0.3312087 c 0.1314584,0.024199 0.2651255,0.036392 0.4022923,0.033249 l 0.138368,0.3555059 C 3.2583326,5.2235791 3.4208563,5.1936675 3.575995,5.1480592 L 3.577275,4.7656988 C 3.7065841,4.7199129 3.8294705,4.6623706 3.9436954,4.5930609 L 4.2396493,4.832196 C 4.3760466,4.7387278 4.5027011,4.6318376 4.6163181,4.5124965 L 4.4254212,4.1825667 C 4.5127478,4.0799933 4.5897929,3.9667603 4.6547534,3.8488004 l 0.3792312,0.058825 C 5.1043748,3.7608783 5.159172,3.6050663 5.1979761,3.4434213 L 4.8674303,3.2528804 C 4.8916755,3.1216669 4.9038895,2.9869703 4.9007412,2.850059 L 5.2556295,2.7145064 C 5.2428361,2.5475634 5.2132156,2.3865039 5.1672276,2.2311207 L 4.7854344,2.228563 C 4.7395631,2.0994961 4.6806326,1.9781175 4.6111932,1.8641056 L 4.8507751,1.5674244 C 4.7571722,1.4315674 4.6486299,1.3059134 4.5291973,1.1927365 L 4.1986513,1.3819987 C 4.0958859,1.2948353 3.9850043,1.2192123 3.8668241,1.1543727 L 3.9257586,0.77712724 C 3.7779144,0.70633115 3.6223611,0.65105254 3.4594071,0.61216228 L 3.2697916,0.93953462 C 3.1383332,0.91533523 3.0033849,0.90570085 2.8662182,0.90884344 Z M 2.9097785,1.4919754 c 0.7766018,0 1.4080229,0.6289658 1.4080229,1.4041204 0,0.7751546 -0.6314212,1.4041203 -1.4080229,1.4041203 -0.7766016,-1e-7 -1.4067416,-0.6289657 -1.4067416,-1.4041203 -10e-8,-0.7751547 0.6301399,-1.4041204 1.4067416,-1.4041204 z"
       id="path6662" />
    <path
       id="path3023"
       d="M 2.6387629,1.4193687 C 1.8236399,1.5690352 1.2819472,2.3534836 1.4318931,3.1670875 1.5818391,3.9806915 2.3677518,4.5213749 3.1828745,4.3717086 3.9979971,4.2220421 4.5396905,3.4375937 4.3897443,2.6239898 4.2397985,1.8103859 3.4538857,1.2697022 2.6387629,1.4193687 Z m 0.020927,0.1135515 C 3.4132597,1.3945557 4.1373579,1.8927127 4.2759809,2.6448782 4.4146037,3.3970437 3.9155168,4.1197924 3.1619472,4.258157 2.4083774,4.3965212 1.6842795,3.8983646 1.5456566,3.1461992 1.4070337,2.3940337 1.9061207,1.6712848 2.6596899,1.5329202 Z"
       style="fill:url(#linearGradient3923);fill-opacity:1;stroke:none;stroke-width:0.164354;stroke-linecap:round;stroke-linejoin:round;stroke-miterlimit:4;stroke-dasharray:none;stroke-dashoffset:4;stroke-opacity:1" />
    <path
       sodipodi:nodetypes="ccccccccccccccccccccccccccccccccccccccccccccccccc"
       style="fill:none;fill-opacity:1;fill-rule:nonzero;stroke:url(#linearGradient3925);stroke-width:0.0858724;stroke-linecap:round;stroke-linejoin:round;stroke-miterlimit:4;stroke-dasharray:none;stroke-dashoffset:4;stroke-opacity:1"
       d="M 2.7301702,0.55555686 C 2.563174,0.56825699 2.4007332,0.59730933 2.2452727,0.64304265 L 2.2438589,1.0226181 C 2.1145512,1.0684034 1.990523,1.1268688 1.8762981,1.1961786 L 1.5822495,0.95770931 C 1.4461654,1.0509379 1.3196264,1.1590346 1.2062066,1.2780202 L 1.3956417,1.6067974 C 1.3083155,1.7093706 1.2301703,1.820437 1.1652094,1.9383968 L 0.78916649,1.8805433 C 0.71872958,2.0268812 0.66277331,2.1821674 0.62376414,2.3433714 l 0.32797732,0.1919043 c -0.0242445,0.1312133 -0.03425,0.2666524 -0.0311013,0.4035635 L 0.56580262,3.0743011 c 0.0126229,0.166737 0.0419116,0.328764 0.0876491,0.483994 l 0.38169778,0.00141 C 1.0810205,3.6887718 1.1395949,3.8111581 1.209034,3.92517 L 0.9687058,4.2200829 c 0.0935946,0.1364617 0.2012979,0.2616572 0.3209088,0.375342 L 1.6204194,4.4063428 c 0.1027647,0.087163 0.2140382,0.1637524 0.3322184,0.2285919 l -0.059375,0.3781646 c 0.1464899,0.070247 0.3023312,0.1261621 0.4636921,0.1650941 l 0.193676,-0.3301882 c 0.1314584,0.024199 0.2657365,0.035597 0.4029032,0.032454 L 3.0920762,5.236047 C 3.258702,5.2233298 3.4204214,5.1941692 3.5755601,5.1485609 l 0.00141,-0.3823976 C 3.7062813,4.7203778 3.8288961,4.6619127 3.9431209,4.592603 l 0.296876,0.2398803 C 4.3763937,4.7390151 4.5024231,4.6315135 4.6160396,4.5121723 L 4.4251911,4.1819842 C 4.5125173,4.0794108 4.5892489,3.9669337 4.6542095,3.8489738 l 0.3802841,0.059264 C 5.1048833,3.7614916 5.1596782,3.6056441 5.1984823,3.4439992 L 4.8676777,3.253506 C 4.8919225,3.1222924 4.9033409,2.9868537 4.9001926,2.8499425 L 5.2550302,2.7144806 C 5.2422369,2.5475376 5.2133687,2.3858697 5.1673812,2.2304866 L 4.7856834,2.2290754 C 4.7398121,2.1000086 4.6812382,1.9776225 4.6117988,1.8636106 L 4.8507134,1.5672877 C 4.7571102,1.4314308 4.6492366,1.3065333 4.5298044,1.1933565 L 4.1989998,1.3824387 C 4.0962348,1.2952752 3.9849615,1.2186865 3.8667814,1.1538468 L 3.9261565,0.77709347 C 3.7783124,0.70629739 3.6225909,0.65088955 3.459637,0.61199931 L 3.2702018,0.93936552 C 3.1387433,0.91516613 3.0030516,0.90517951 2.865885,0.90832214 Z"
       id="path3021" />
    <path
       sodipodi:nodetypes="ccc"
       id="path7919"
       d="M 5.4210543,5.6786015 V 5.5690529 Z"
       style="fill:#ffffff;fill-opacity:0.756881;fill-rule:nonzero;stroke:none;stroke-width:0.0196174;stroke-linecap:round;stroke-linejoin:round;stroke-miterlimit:4;stroke-dasharray:none;stroke-dashoffset:4;stroke-opacity:1" />
    <path
       sodipodi:nodetypes="ccc"
       id="path3206"
       d="M 0.72808095,2.2828204 V 2.1732718 Z"
       style="fill:#ffffff;fill-opacity:0.756881;fill-rule:nonzero;stroke:none;stroke-width:0.0196174;stroke-linecap:round;stroke-linejoin:round;stroke-miterlimit:4;stroke-dasharray:none;stroke-dashoffset:4;stroke-opacity:1" />
  </g>
</svg>
