<?xml version="1.0" encoding="UTF-8" standalone="no"?>
<svg
   viewBox="0 0 62 62"
   version="1.1"
   id="svg1"
   sodipodi:docname="system-log-out-rtl.svg"
   inkscape:version="1.4 (e7c3feb100, 2024-10-09)"
   width="62"
   height="62"
   xmlns:inkscape="http://www.inkscape.org/namespaces/inkscape"
   xmlns:sodipodi="http://sodipodi.sourceforge.net/DTD/sodipodi-0.dtd"
   xmlns="http://www.w3.org/2000/svg"
   xmlns:svg="http://www.w3.org/2000/svg">
  <sodipodi:namedview
     id="namedview1"
     pagecolor="#ffffff"
     bordercolor="#000000"
     borderopacity="0.25"
     inkscape:showpageshadow="2"
     inkscape:pageopacity="0.0"
     inkscape:pagecheckerboard="0"
     inkscape:deskcolor="#d1d1d1"
     inkscape:zoom="8.7159092"
     inkscape:cx="19.102998"
     inkscape:cy="31.207301"
     inkscape:window-width="1920"
     inkscape:window-height="994"
     inkscape:window-x="0"
     inkscape:window-y="0"
     inkscape:window-maximized="1"
     inkscape:current-layer="svg1" />
  <defs
     id="defs1">
    <style
       type="text/css"
       id="style1">.ColorScheme-Text {
        color:#d8dee9;
      }</style>
  </defs>
  <g
     id="g3"
     transform="matrix(3.1111111,0,0,3.1111111,93.194107,2.9999999)">
    <g
       id="g1"
       transform="matrix(1.0909091,0,0,1.0909091,-31.990963,-2.999999)"
       style="stroke-width:0.916667">
      <circle
         id="path4140-7-6"
         cx="11"
         cy="10.999999"
         r="8.25"
         style="fill:#813d9c;fill-opacity:1" />
    </g>
    <g
       id="g2"
       transform="rotate(-90,-5.4957818,25.495499)">
      <path
         d="m 14.435184,7.7977129 c -1.14e-4,0.01209 -8e-4,0.0243 -0.0032,0.03614 l -0.676316,4.3478391 c -0.02938,0.192495 -0.268157,0.269458 -0.40656,0.131018 L 12.503812,11.4765 9.7989816,14.152374 c -0.280167,0.276963 -0.734318,0.276963 -1.014495,0 l -1.01424,-1.003666 c -0.280085,-0.277043 -0.280085,-0.726132 0,-1.003189 L 10.476122,9.4698904 9.6304606,8.6339034 C 9.4904356,8.496962 9.5684706,8.2607132 9.7632076,8.2318683 L 14.160049,7.5630859 c 0.14483,-0.021981 0.275443,0.088748 0.275505,0.2336461 z m -0.526131,0.2828463 z"
         id="path8-2-1"
         style="fill:#fefeff;fill-opacity:1;stroke-width:0.297285"
         sodipodi:nodetypes="ccccccccccccccccccc" />
      <path
         d="m 5.3389746,5.3507703 c -3.144151,3.1461438 -3.118427,8.2814097 0.07719,11.3949867 2.976539,2.900172 7.7731424,3.01871 10.8796424,0.25841 C 19.017755,14.58557 19.740144,10.732218 18.2088,7.5503431 18.025003,7.1684578 17.543859,7.037344 17.181776,7.2572941 16.857139,7.4545229 16.747407,7.864385 16.91061,8.2075453 18.172351,10.860532 17.524947,14.076403 15.187996,16.038736 12.817601,18.02915 9.3006686,18.062626 6.8947856,16.115286 3.8263616,13.63172 3.6505476,9.0982374 6.3673316,6.3797347 8.3472686,4.3985384 11.320444,3.9096112 13.800298,5.0928465 c 0.340898,0.162646 0.748286,0.050709 0.944286,-0.2722971 l 0.0016,-0.00265 C 14.965119,4.4566685 14.836104,3.9762009 14.455755,3.7926832 11.418162,2.3272841 7.7673976,2.9203973 5.3390726,5.3502488 Z"
         id="path1-0-9-9-6-1-2"
         style="fill:#fefeff;fill-opacity:1;stroke-width:0.363699" />
    </g>
  </g>
</svg>
