<?xml version="1.0" encoding="UTF-8" standalone="no"?>
<!-- Created with Inkscape (http://www.inkscape.org/) -->

<svg
   width="62"
   height="62"
   viewBox="0 0 62 62"
   version="1.1"
   id="svg1"
   inkscape:version="1.4 (e7c3feb100, 2024-10-09)"
   sodipodi:docname="folder-neon.svg"
   xmlns:inkscape="http://www.inkscape.org/namespaces/inkscape"
   xmlns:sodipodi="http://sodipodi.sourceforge.net/DTD/sodipodi-0.dtd"
   xmlns:xlink="http://www.w3.org/1999/xlink"
   xmlns="http://www.w3.org/2000/svg"
   xmlns:svg="http://www.w3.org/2000/svg">
  <sodipodi:namedview
     id="namedview1"
     pagecolor="#ffffff"
     bordercolor="#000000"
     borderopacity="0.25"
     inkscape:showpageshadow="2"
     inkscape:pageopacity="0.0"
     inkscape:pagecheckerboard="0"
     inkscape:deskcolor="#d1d1d1"
     inkscape:document-units="px"
     inkscape:zoom="10.74725"
     inkscape:cx="30.8451"
     inkscape:cy="28.658494"
     inkscape:window-width="1920"
     inkscape:window-height="994"
     inkscape:window-x="0"
     inkscape:window-y="0"
     inkscape:window-maximized="1"
     inkscape:current-layer="layer1"
     showgrid="true">
    <inkscape:grid
       id="grid1"
       units="px"
       originx="0"
       originy="0"
       spacingx="1"
       spacingy="1"
       empcolor="#0099e5"
       empopacity="0.30196078"
       color="#0099e5"
       opacity="0.14901961"
       empspacing="5"
       enabled="true"
       visible="true" />
  </sodipodi:namedview>
  <defs
     id="defs1">
    <linearGradient
       id="linearGradient5"
       inkscape:collect="always">
      <stop
         style="stop-color:#566c80;stop-opacity:1;"
         offset="0"
         id="stop5" />
      <stop
         style="stop-color:#323e4a;stop-opacity:1;"
         offset="0.79546875"
         id="stop7" />
      <stop
         style="stop-color:#29333d;stop-opacity:1;"
         offset="1"
         id="stop6" />
    </linearGradient>
    <linearGradient
       id="linearGradient3"
       inkscape:collect="always">
      <stop
         style="stop-color:#9292ff;stop-opacity:1;"
         offset="0"
         id="stop3" />
      <stop
         style="stop-color:#005ce6;stop-opacity:1;"
         offset="1"
         id="stop4" />
    </linearGradient>
    <linearGradient
       id="linearGradient1"
       inkscape:collect="always">
      <stop
         style="stop-color:#66a3ff;stop-opacity:1;"
         offset="0"
         id="stop1" />
      <stop
         style="stop-color:#0088aa;stop-opacity:1;"
         offset="1"
         id="stop2" />
    </linearGradient>
    <radialGradient
       id="paint664_radial_890_11"
       cx="0"
       cy="0"
       r="1"
       gradientUnits="userSpaceOnUse"
       gradientTransform="matrix(-16.000099,-9.999913,9.999913,-16.000099,583,171)">
      <stop
         offset="0.42141"
         stop-color="#B7C6CD"
         id="stop2071" />
      <stop
         offset="1"
         stop-color="#EFF2F6"
         id="stop2072" />
    </radialGradient>
    <linearGradient
       id="paint665_linear_890_11"
       x1="605"
       y1="180"
       x2="601.466"
       y2="162.72301"
       gradientUnits="userSpaceOnUse">
      <stop
         stop-color="#5200FF"
         id="stop2073" />
      <stop
         offset="1"
         stop-color="#0085FF"
         id="stop2074" />
    </linearGradient>
    <linearGradient
       id="paint666_linear_890_11"
       x1="567"
       y1="181"
       x2="562.11798"
       y2="174.183"
       gradientUnits="userSpaceOnUse">
      <stop
         stop-color="#5200FF"
         id="stop2075" />
      <stop
         offset="0.670391"
         stop-color="#0085FF"
         id="stop2076" />
    </linearGradient>
    <linearGradient
       id="paint667_linear_890_11"
       x1="605"
       y1="180"
       x2="597.32001"
       y2="174.24001"
       gradientUnits="userSpaceOnUse">
      <stop
         stop-color="#5200FF"
         id="stop2077" />
      <stop
         offset="1"
         stop-color="#0085FF"
         id="stop2078" />
    </linearGradient>
    <linearGradient
       id="paint668_linear_890_11"
       x1="567"
       y1="180"
       x2="561.23999"
       y2="172.32001"
       gradientUnits="userSpaceOnUse">
      <stop
         stop-color="#5200FF"
         id="stop2079" />
      <stop
         offset="1"
         stop-color="#0085FF"
         id="stop2080" />
    </linearGradient>
    <linearGradient
       id="paint669_linear_890_11"
       x1="607"
       y1="179"
       x2="602.50598"
       y2="171.80901"
       gradientUnits="userSpaceOnUse">
      <stop
         stop-color="#5200FF"
         id="stop2081" />
      <stop
         offset="1"
         stop-color="#0085FF"
         id="stop2082" />
    </linearGradient>
    <linearGradient
       id="paint670_linear_890_11"
       x1="607"
       y1="217"
       x2="568.82599"
       y2="170.01601"
       gradientUnits="userSpaceOnUse">
      <stop
         stop-color="#5200FF"
         id="stop2083" />
      <stop
         offset="1"
         stop-color="#0085FF"
         id="stop2084" />
    </linearGradient>
    <radialGradient
       id="paint671_radial_890_11"
       cx="0"
       cy="0"
       r="1"
       gradientUnits="userSpaceOnUse"
       gradientTransform="matrix(0,20,-16,0,583,187)">
      <stop
         offset="0.869716"
         stop-color="#EFF2F6"
         id="stop2085" />
      <stop
         offset="1"
         stop-color="#B7C6CD"
         id="stop2086" />
    </radialGradient>
    <linearGradient
       id="paint497_linear_890_11"
       x1="497"
       y1="413"
       x2="447.457"
       y2="376.79599"
       gradientUnits="userSpaceOnUse"
       gradientTransform="translate(-452,-358)">
      <stop
         offset="0.636456"
         stop-color="#71706E"
         id="stop1737" />
      <stop
         offset="1"
         stop-color="#B9AA99"
         id="stop1738" />
    </linearGradient>
    <linearGradient
       id="paint498_linear_890_11"
       x1="507"
       y1="413"
       x2="457.457"
       y2="376.79599"
       gradientUnits="userSpaceOnUse"
       gradientTransform="translate(-452,-358)">
      <stop
         offset="0.544933"
         stop-color="#FF7E07"
         id="stop1739" />
      <stop
         offset="1"
         stop-color="#FFE607"
         id="stop1740" />
    </linearGradient>
    <linearGradient
       id="paint499_linear_890_11"
       x1="473"
       y1="365"
       x2="486.28699"
       y2="389.91299"
       gradientUnits="userSpaceOnUse"
       gradientTransform="translate(-452,-358)">
      <stop
         stop-color="white"
         id="stop1741" />
      <stop
         offset="0.705"
         stop-color="#EAEFEF"
         id="stop1742" />
    </linearGradient>
    <linearGradient
       id="paint500_linear_890_11"
       x1="480"
       y1="371.5"
       x2="480"
       y2="368.5"
       gradientUnits="userSpaceOnUse"
       gradientTransform="translate(-452,-358)">
      <stop
         offset="0.155999"
         stop-color="#71706E"
         id="stop1743" />
      <stop
         offset="0.796276"
         stop-color="#B9AA99"
         id="stop1744" />
    </linearGradient>
    <linearGradient
       id="paint501_linear_890_11"
       x1="479"
       y1="375.5"
       x2="479"
       y2="372.5"
       gradientUnits="userSpaceOnUse"
       gradientTransform="translate(-452,-358)">
      <stop
         offset="0.155999"
         stop-color="#71706E"
         id="stop1745" />
      <stop
         offset="0.796276"
         stop-color="#B9AA99"
         id="stop1746" />
    </linearGradient>
    <linearGradient
       id="paint502_linear_890_11"
       x1="508"
       y1="414"
       x2="459"
       y2="383.64755"
       gradientUnits="userSpaceOnUse"
       gradientTransform="translate(-452,-361.55289)">
      <stop
         offset="0.207424"
         stop-color="#2E2E41"
         id="stop1747"
         style="stop-color:#29333d;stop-opacity:1;" />
      <stop
         offset="1"
         stop-color="#566C80"
         id="stop1748" />
    </linearGradient>
    <linearGradient
       inkscape:collect="always"
       xlink:href="#linearGradient1"
       id="linearGradient2"
       x1="29"
       y1="4.3000002"
       x2="28.613653"
       y2="27.61554"
       gradientUnits="userSpaceOnUse"
       gradientTransform="matrix(1,0,0,0.76923076,0,9.1394207)" />
    <linearGradient
       inkscape:collect="always"
       xlink:href="#linearGradient3"
       id="linearGradient4"
       x1="12"
       y1="3"
       x2="12"
       y2="22.5"
       gradientUnits="userSpaceOnUse"
       gradientTransform="matrix(1,0,0,0.92307692,0,0.67788209)" />
    <linearGradient
       inkscape:collect="always"
       xlink:href="#linearGradient5"
       id="linearGradient6"
       x1="7"
       y1="21.447113"
       x2="55"
       y2="51.447113"
       gradientUnits="userSpaceOnUse" />
  </defs>
  <g
     inkscape:label="Layer 1"
     inkscape:groupmode="layer"
     id="layer1">
    <g
       id="g1"
       transform="translate(0,1.552887)">
      <path
         d="m 7,8.0624979 c 0,-2.5486158 2.239,-4.615385 5,-4.615385 h 28 c 2.761,0 5,2.0667692 5,4.615385 V 46.831728 c 0,2.548616 -2.239,4.615385 -5,4.615385 H 12 c -2.761,0 -5,-2.066769 -5,-4.615385 z"
         id="path487"
         style="fill:url(#linearGradient4);stroke-width:0.960769" />
      <path
         d="m 17,16.447113 c 0,-3 2,-5 5,-5 h 28 c 3,0 5,2 5,5 v 31.153846 c 0,2.123846 -2.239,3.846154 -5,3.846154 H 22 c -2.761,0 -5,-1.722308 -5,-3.846154 z"
         id="path488"
         style="fill:url(#linearGradient2);fill-opacity:1;stroke-width:0.877058"
         sodipodi:nodetypes="sssssssss" />
      <path
         d="m 3,51.447113 v -30 c 0,-2.209 1.791,-4 4,-4 h 9 c 0.657,0 1.303,0.162 1.882,0.47 l 39,21.795 c 1.304,0.696 2.118,2.053 2.118,3.53 v 8.205 c 0,2.209 -1.791,4 -4,4 H 7 c -2.209,0 -4,-1.791 -4,-4 z"
         id="path492"
         style="fill:url(#linearGradient6)" />
    </g>
    <path
       d="m 22,29 c -0.451267,0 -0.839305,0.254701 -1.030766,0.629054 -2.111102,0.206849 -4.034172,1.035906 -5.582903,2.305976 -0.3983,-0.124759 -0.847855,-0.02898 -1.164113,0.287185 -0.316233,0.316258 -0.411946,0.765812 -0.287173,1.164115 C 12.66496,34.935036 11.8342,36.858119 11.629063,38.969208 11.254713,39.160663 11,39.548748 11,40.000003 c 0,0.451251 0.254713,0.839335 0.629063,1.030787 0.206842,2.111069 1.035897,4.034188 2.305982,5.582845 -0.124773,0.398339 -0.02895,0.847907 0.287173,1.164112 0.316258,0.316234 0.765813,0.411991 1.164113,0.287216 1.548731,1.270068 3.471801,2.099076 5.582903,2.305898 C 21.160695,50.745262 21.548733,51 22,51 c 0.451283,0 0.839309,-0.256458 1.030773,-0.629139 2.111111,-0.206822 4.034199,-1.03583 5.58288,-2.305898 0.398328,0.124775 0.847881,0.02904 1.164118,-0.287216 0.316237,-0.316205 0.411959,-0.765773 0.287201,-1.164112 1.270047,-1.548657 2.100851,-3.471776 2.305962,-5.582845 0.372644,-0.191452 0.629063,-0.579536 0.629063,-1.030787 0,-0.451255 -0.256419,-0.83934 -0.629063,-1.030795 -0.205111,-2.111089 -1.035915,-4.034172 -2.305962,-5.582878 0.124758,-0.398303 0.029,-0.847857 -0.287201,-1.164115 -0.316237,-0.316233 -0.76579,-0.411944 -1.164118,-0.287185 -1.548681,-1.27007 -3.471769,-2.099127 -5.58288,-2.305976 C 22.839309,29.254701 22.451283,29 22,29 Z m 0,0.579483 c 0.321373,0 0.579485,0.258123 0.579485,0.579483 0,0.31966 -0.258112,0.577785 -0.579485,0.577785 -0.321373,0 -0.57948,-0.258125 -0.57948,-0.577785 0,-0.32136 0.258107,-0.579483 0.57948,-0.579483 z m -0.972629,1.208546 c 0.205112,0.317956 0.564089,0.528205 0.972629,0.528205 0.408544,0 0.767533,-0.210249 0.972645,-0.528205 1.83249,0.189763 3.502587,0.907698 4.854737,2.001702 -0.0821,0.372667 0.02209,0.777784 0.312809,1.070093 0.292305,0.2906 0.697418,0.394878 1.070071,0.312821 1.094004,1.352128 1.811944,3.022222 2.001711,4.85472 -0.317966,0.205089 -0.528224,0.564085 -0.528224,0.972638 0,0.408553 0.210258,0.767549 0.528224,0.97262 -0.189767,1.832471 -0.907707,3.502556 -2.001711,4.854755 -0.372653,-0.08202 -0.777766,0.02209 -1.070071,0.312813 -0.290598,0.29232 -0.394869,0.697413 -0.312809,1.070049 -1.35215,1.094027 -3.022247,1.811968 -4.854737,2.001732 C 22.767533,48.894021 22.408544,48.683725 22,48.683725 c -0.40854,0 -0.767517,0.210296 -0.972629,0.528247 -1.832499,-0.189764 -3.502585,-0.907705 -4.854725,-2.001732 0.08206,-0.372636 -0.02209,-0.777729 -0.31282,-1.070049 -0.292285,-0.290625 -0.697425,-0.394964 -1.07008,-0.312813 -1.094013,-1.352199 -1.811954,-3.022284 -2.001715,-4.854755 0.317954,-0.205071 0.528213,-0.564067 0.528213,-0.97262 0,-0.408553 -0.210259,-0.767549 -0.528213,-0.972638 0.189761,-1.832498 0.907702,-3.502592 2.001715,-4.85472 0.372655,0.08205 0.777795,-0.02209 1.07008,-0.312821 0.2906,-0.292309 0.39488,-0.697426 0.31282,-1.070093 1.35214,-1.094004 3.022226,-1.811939 4.854725,-2.001702 z m -5.986347,1.673511 c 0.14872,0 0.295742,0.05645 0.40855,0.169218 0.227357,0.227375 0.227357,0.593171 0,0.818814 -0.225638,0.227348 -0.591437,0.227348 -0.818816,0 -0.225606,-0.225643 -0.225606,-0.591439 0,-0.818814 0.114532,-0.11281 0.261556,-0.169218 0.410266,-0.169218 z m 13.917937,0 c 0.148755,0 0.295755,0.05645 0.410276,0.169218 0.22561,0.227375 0.22561,0.593171 0,0.818814 -0.227364,0.227348 -0.593171,0.227348 -0.818816,0 -0.227344,-0.225643 -0.227344,-0.591439 0,-0.818814 0.11286,-0.11281 0.259859,-0.169218 0.40854,-0.169218 z M 22,32.47354 c -0.461551,0 -0.85813,0.268372 -1.044433,0.656399 -3.350433,0.500861 -5.902572,3.376066 -5.902572,6.870117 0,3.493996 2.552139,6.369221 5.902572,6.870099 C 21.14187,47.25814 21.538449,47.52652 22,47.52652 c 0.461556,0 0.858125,-0.26838 1.04446,-0.656365 3.350412,-0.50088 5.902555,-3.376092 5.902555,-6.870097 0,-3.494051 -2.552143,-6.369256 -5.902555,-6.870117 C 22.858125,32.741914 22.461556,32.473542 22,32.473542 Z m 0,0.579485 c 0.321373,0 0.579485,0.258116 0.579485,0.579491 0,0.319659 -0.258112,0.577768 -0.579485,0.577768 -0.321373,0 -0.57948,-0.258109 -0.57948,-0.577768 0,-0.321375 0.258107,-0.579491 0.57948,-0.579491 z m -0.955543,1.23589 c 0.20855,0.302568 0.558966,0.500852 0.955543,0.500852 0.396587,0 0.74702,-0.198284 0.95555,-0.500852 2.748724,0.452992 4.834198,2.829068 4.834198,5.711141 0,2.882012 -2.085474,5.258052 -4.834198,5.71113 C 22.74702,45.408543 22.396587,45.210268 22,45.210268 c -0.396577,0 -0.746993,0.198275 -0.955543,0.500918 -2.748732,-0.453074 -4.834196,-2.829114 -4.834196,-5.711125 0,-2.882074 2.085464,-5.25815 4.834196,-5.711141 z m -8.885488,5.131652 c 0.31966,0 0.577784,0.258115 0.577784,0.579471 0,0.321358 -0.258124,0.579445 -0.577784,0.579445 -0.321356,0 -0.579484,-0.258091 -0.579484,-0.579445 0,-0.32136 0.258128,-0.579471 0.579484,-0.579471 z m 19.682042,0 c 0.32138,0 0.579511,0.258115 0.579511,0.579471 0,0.321358 -0.258131,0.579445 -0.579511,0.579445 -0.319634,0 -0.577756,-0.258091 -0.577756,-0.579445 0,-0.32136 0.258122,-0.579471 0.577756,-0.579471 z M 22,45.789772 c 0.321373,0 0.579485,0.258073 0.579485,0.577753 0,0.321334 -0.258112,0.579494 -0.579485,0.579494 -0.321373,0 -0.57948,-0.258165 -0.57948,-0.579494 0,-0.31968 0.258107,-0.577753 0.57948,-0.577753 z m -6.958976,0.589754 c 0.14872,0 0.295742,0.05636 0.40855,0.170868 0.227357,0.225651 0.227357,0.591511 0,0.818861 -0.225639,0.225599 -0.591438,0.225599 -0.818816,0 -0.225606,-0.22735 -0.225606,-0.593205 0,-0.818861 0.114532,-0.114526 0.261555,-0.170868 0.410266,-0.170868 z m 13.917937,0 c 0.148755,0 0.295755,0.05636 0.410276,0.170868 0.22561,0.225651 0.22561,0.591511 0,0.818861 -0.227364,0.225599 -0.593171,0.225599 -0.818816,0 -0.227344,-0.22735 -0.227344,-0.593205 0,-0.818861 0.11286,-0.114526 0.259859,-0.170868 0.40854,-0.170868 z M 22,49.263241 c 0.321373,0 0.579485,0.258258 0.579485,0.577782 0,0.321376 -0.258112,0.579515 -0.579485,0.579515 -0.321373,0 -0.57948,-0.258139 -0.57948,-0.579515 0,-0.319524 0.258107,-0.577782 0.57948,-0.577782 z m 0,0"
       id="path3-3"
       style="fill:#f9f9f9;fill-opacity:0.5;stroke-width:1.1" />
    <path
       d="m 21.760173,36.261714 c 2.049543,0 3.712838,1.663244 3.712838,3.712804 0,2.049632 -1.663295,3.712893 -3.712838,3.712893 -2.049541,0 -3.712848,-1.663261 -3.712848,-3.712893 0,-2.04956 1.663307,-3.712804 3.712848,-3.712804 z m 0,0"
       id="path2-6"
       style="fill:#f9f9f9;fill-opacity:0.5;stroke-width:1.1" />
  </g>
</svg>
