<?xml version="1.0" encoding="UTF-8" standalone="no"?>
<!-- Created with Inkscape (http://www.inkscape.org/) -->

<svg
   width="62"
   height="62"
   viewBox="0 0 62 62"
   version="1.1"
   id="svg1"
   inkscape:version="1.4 (e7c3feb100, 2024-10-09)"
   sodipodi:docname="folder-reddit.svg"
   xmlns:inkscape="http://www.inkscape.org/namespaces/inkscape"
   xmlns:sodipodi="http://sodipodi.sourceforge.net/DTD/sodipodi-0.dtd"
   xmlns:xlink="http://www.w3.org/1999/xlink"
   xmlns="http://www.w3.org/2000/svg"
   xmlns:svg="http://www.w3.org/2000/svg">
  <sodipodi:namedview
     id="namedview1"
     pagecolor="#ffffff"
     bordercolor="#000000"
     borderopacity="0.25"
     inkscape:showpageshadow="2"
     inkscape:pageopacity="0.0"
     inkscape:pagecheckerboard="0"
     inkscape:deskcolor="#d1d1d1"
     inkscape:document-units="px"
     inkscape:zoom="10.74725"
     inkscape:cx="29.2633"
     inkscape:cy="31.822094"
     inkscape:window-width="1920"
     inkscape:window-height="994"
     inkscape:window-x="0"
     inkscape:window-y="0"
     inkscape:window-maximized="1"
     inkscape:current-layer="layer1"
     showgrid="true">
    <inkscape:grid
       id="grid1"
       units="px"
       originx="0"
       originy="0"
       spacingx="1"
       spacingy="1"
       empcolor="#0099e5"
       empopacity="0.30196078"
       color="#0099e5"
       opacity="0.14901961"
       empspacing="5"
       enabled="true"
       visible="true" />
  </sodipodi:namedview>
  <defs
     id="defs1">
    <linearGradient
       id="linearGradient5"
       inkscape:collect="always">
      <stop
         style="stop-color:#566c80;stop-opacity:1;"
         offset="0"
         id="stop5" />
      <stop
         style="stop-color:#323e4b;stop-opacity:1;"
         offset="0.79015332"
         id="stop7" />
      <stop
         style="stop-color:#29333d;stop-opacity:1;"
         offset="1"
         id="stop6" />
    </linearGradient>
    <linearGradient
       id="linearGradient3"
       inkscape:collect="always">
      <stop
         style="stop-color:#db7ea4;stop-opacity:1;"
         offset="0"
         id="stop3" />
      <stop
         style="stop-color:#6631b4;stop-opacity:1;"
         offset="1"
         id="stop4" />
    </linearGradient>
    <linearGradient
       id="linearGradient1"
       inkscape:collect="always">
      <stop
         style="stop-color:#ff5555;stop-opacity:1"
         offset="0"
         id="stop1" />
      <stop
         style="stop-color:#ffaaaa;stop-opacity:1"
         offset="1"
         id="stop2" />
    </linearGradient>
    <radialGradient
       id="paint664_radial_890_11"
       cx="0"
       cy="0"
       r="1"
       gradientUnits="userSpaceOnUse"
       gradientTransform="matrix(-16.000099,-9.999913,9.999913,-16.000099,583,171)">
      <stop
         offset="0.42141"
         stop-color="#B7C6CD"
         id="stop2071" />
      <stop
         offset="1"
         stop-color="#EFF2F6"
         id="stop2072" />
    </radialGradient>
    <linearGradient
       id="paint665_linear_890_11"
       x1="605"
       y1="180"
       x2="601.466"
       y2="162.72301"
       gradientUnits="userSpaceOnUse">
      <stop
         stop-color="#5200FF"
         id="stop2073" />
      <stop
         offset="1"
         stop-color="#0085FF"
         id="stop2074" />
    </linearGradient>
    <linearGradient
       id="paint666_linear_890_11"
       x1="567"
       y1="181"
       x2="562.11798"
       y2="174.183"
       gradientUnits="userSpaceOnUse">
      <stop
         stop-color="#5200FF"
         id="stop2075" />
      <stop
         offset="0.670391"
         stop-color="#0085FF"
         id="stop2076" />
    </linearGradient>
    <linearGradient
       id="paint667_linear_890_11"
       x1="605"
       y1="180"
       x2="597.32001"
       y2="174.24001"
       gradientUnits="userSpaceOnUse">
      <stop
         stop-color="#5200FF"
         id="stop2077" />
      <stop
         offset="1"
         stop-color="#0085FF"
         id="stop2078" />
    </linearGradient>
    <linearGradient
       id="paint668_linear_890_11"
       x1="567"
       y1="180"
       x2="561.23999"
       y2="172.32001"
       gradientUnits="userSpaceOnUse">
      <stop
         stop-color="#5200FF"
         id="stop2079" />
      <stop
         offset="1"
         stop-color="#0085FF"
         id="stop2080" />
    </linearGradient>
    <linearGradient
       id="paint669_linear_890_11"
       x1="607"
       y1="179"
       x2="602.50598"
       y2="171.80901"
       gradientUnits="userSpaceOnUse">
      <stop
         stop-color="#5200FF"
         id="stop2081" />
      <stop
         offset="1"
         stop-color="#0085FF"
         id="stop2082" />
    </linearGradient>
    <linearGradient
       id="paint670_linear_890_11"
       x1="607"
       y1="217"
       x2="568.82599"
       y2="170.01601"
       gradientUnits="userSpaceOnUse">
      <stop
         stop-color="#5200FF"
         id="stop2083" />
      <stop
         offset="1"
         stop-color="#0085FF"
         id="stop2084" />
    </linearGradient>
    <radialGradient
       id="paint671_radial_890_11"
       cx="0"
       cy="0"
       r="1"
       gradientUnits="userSpaceOnUse"
       gradientTransform="matrix(0,20,-16,0,583,187)">
      <stop
         offset="0.869716"
         stop-color="#EFF2F6"
         id="stop2085" />
      <stop
         offset="1"
         stop-color="#B7C6CD"
         id="stop2086" />
    </radialGradient>
    <linearGradient
       id="paint497_linear_890_11"
       x1="497"
       y1="413"
       x2="447.457"
       y2="376.79599"
       gradientUnits="userSpaceOnUse"
       gradientTransform="translate(-452,-358)">
      <stop
         offset="0.636456"
         stop-color="#71706E"
         id="stop1737" />
      <stop
         offset="1"
         stop-color="#B9AA99"
         id="stop1738" />
    </linearGradient>
    <linearGradient
       id="paint498_linear_890_11"
       x1="507"
       y1="413"
       x2="457.457"
       y2="376.79599"
       gradientUnits="userSpaceOnUse"
       gradientTransform="translate(-452,-358)">
      <stop
         offset="0.544933"
         stop-color="#FF7E07"
         id="stop1739" />
      <stop
         offset="1"
         stop-color="#FFE607"
         id="stop1740" />
    </linearGradient>
    <linearGradient
       id="paint499_linear_890_11"
       x1="473"
       y1="365"
       x2="486.28699"
       y2="389.91299"
       gradientUnits="userSpaceOnUse"
       gradientTransform="translate(-452,-358)">
      <stop
         stop-color="white"
         id="stop1741" />
      <stop
         offset="0.705"
         stop-color="#EAEFEF"
         id="stop1742" />
    </linearGradient>
    <linearGradient
       id="paint500_linear_890_11"
       x1="480"
       y1="371.5"
       x2="480"
       y2="368.5"
       gradientUnits="userSpaceOnUse"
       gradientTransform="translate(-452,-358)">
      <stop
         offset="0.155999"
         stop-color="#71706E"
         id="stop1743" />
      <stop
         offset="0.796276"
         stop-color="#B9AA99"
         id="stop1744" />
    </linearGradient>
    <linearGradient
       id="paint501_linear_890_11"
       x1="479"
       y1="375.5"
       x2="479"
       y2="372.5"
       gradientUnits="userSpaceOnUse"
       gradientTransform="translate(-452,-358)">
      <stop
         offset="0.155999"
         stop-color="#71706E"
         id="stop1745" />
      <stop
         offset="0.796276"
         stop-color="#B9AA99"
         id="stop1746" />
    </linearGradient>
    <linearGradient
       id="paint502_linear_890_11"
       x1="508"
       y1="414"
       x2="459"
       y2="383.64755"
       gradientUnits="userSpaceOnUse"
       gradientTransform="translate(-452,-361.55289)">
      <stop
         offset="0.207424"
         stop-color="#2E2E41"
         id="stop1747"
         style="stop-color:#29333d;stop-opacity:1;" />
      <stop
         offset="1"
         stop-color="#566C80"
         id="stop1748" />
    </linearGradient>
    <linearGradient
       inkscape:collect="always"
       xlink:href="#linearGradient1"
       id="linearGradient2"
       x1="34"
       y1="29"
       x2="34"
       y2="2.9999995"
       gradientUnits="userSpaceOnUse"
       gradientTransform="matrix(1,0,0,0.76923076,0,9.139421)" />
    <linearGradient
       inkscape:collect="always"
       xlink:href="#linearGradient3"
       id="linearGradient4"
       x1="12"
       y1="3"
       x2="13"
       y2="25.75"
       gradientUnits="userSpaceOnUse"
       gradientTransform="matrix(1,0,0,0.92307692,0,0.67788209)" />
    <linearGradient
       inkscape:collect="always"
       xlink:href="#linearGradient5"
       id="linearGradient6"
       x1="7"
       y1="20.447113"
       x2="55"
       y2="51.447113"
       gradientUnits="userSpaceOnUse" />
  </defs>
  <g
     inkscape:label="Layer 1"
     inkscape:groupmode="layer"
     id="layer1">
    <g
       id="g1"
       transform="translate(0,1.552887)">
      <path
         d="m 7,8.0624979 c 0,-2.5486158 2.239,-4.615385 5,-4.615385 h 28 c 2.761,0 5,2.0667692 5,4.615385 V 46.831728 c 0,2.548616 -2.239,4.615385 -5,4.615385 H 12 c -2.761,0 -5,-2.066769 -5,-4.615385 z"
         id="path487"
         style="fill:url(#linearGradient4);stroke-width:0.960769" />
      <path
         d="m 17,16.447113 c 0,-3 2,-5 5,-5 h 28 c 3,0 5,2 5,5 v 31.153846 c 0,2.123846 -2.239,3.846154 -5,3.846154 H 22 c -2.761,0 -5,-1.722308 -5,-3.846154 z"
         id="path488"
         style="fill:url(#linearGradient2);fill-opacity:1;stroke-width:0.877058"
         sodipodi:nodetypes="sssssssss" />
      <path
         d="m 3,51.447113 v -30 c 0,-2.209 1.791,-4 4,-4 h 9 c 0.657,0 1.303,0.162 1.882,0.47 l 39,21.795 c 1.304,0.696 2.118,2.053 2.118,3.53 v 8.205 c 0,2.209 -1.791,4 -4,4 H 7 c -2.209,0 -4,-1.791 -4,-4 z"
         id="path492"
         style="fill:url(#linearGradient6)" />
    </g>
    <path
       d="m 23.149213,29.004105 c -0.329552,-5.5e-4 -0.611973,0.231361 -0.659226,0.55303 l -1.126331,7.226711 c -2.588138,0.07595 -5.043284,0.796062 -6.895357,2.021766 C 13.97757,38.32967 13.31687,38.063237 12.628081,38.063237 11.176568,38.063237 10,39.221935 10,40.649741 c 0,0.965051 0.546897,1.849934 1.416018,2.295335 -0.06482,0.31146 -0.09909,0.62591 -0.101959,0.940401 0,3.929859 4.706292,7.114518 10.510807,7.114518 5.804469,0 10.510789,-3.184659 10.510789,-7.114518 -4.58e-4,-0.314491 -0.03955,-0.627404 -0.104591,-0.938971 0.87197,-0.443965 1.418922,-1.330429 1.418922,-2.296765 0,-1.427806 -1.176601,-2.586504 -2.628093,-2.586504 -0.690254,0 -1.352411,0.26789 -1.844596,0.745283 -1.7501,-1.164442 -4.047087,-1.876173 -6.491867,-2.014554 l 0.997751,-6.357661 3.415847,0.74807 c 0.121221,0.97088 0.957832,1.70151 1.95263,1.702974 1.087824,0 1.970235,-0.868884 1.970235,-1.940138 0,-1.07274 -0.882411,-1.941646 -1.970235,-1.941646 -0.678503,3.26e-4 -1.308147,0.344857 -1.668801,0.909625 L 23.285561,29.02156 C 23.240981,29.01926 23.195401,29 23.149561,29 Z m -4.608726,11.645636 c 1.087859,0 1.970319,0.868905 1.970319,1.941758 0,1.071215 -0.88246,1.940321 -1.970319,1.940321 -1.089356,0 -1.971813,-0.869106 -1.971813,-1.940321 0,-1.072853 0.882457,-1.941758 1.971813,-1.941758 z m 6.568682,0 c 1.089371,0 1.971777,0.868905 1.971777,1.941758 0,1.071215 -0.882406,1.940321 -1.971777,1.940321 -1.087876,0 -1.970319,-0.869106 -1.970319,-1.940321 0,-1.072853 0.882443,-1.941758 1.970319,-1.941758 z m 1.278599,5.800458 c 0.610414,-0.05114 0.95483,0.675198 0.523197,1.103098 0,0 -0.430102,0.449777 -1.248993,0.822232 -0.820333,0.371443 -2.078218,0.716302 -3.851907,0.687134 -1.764888,-0.03048 -3.000585,-0.37406 -3.812035,-0.726363 -0.81002,-0.350753 -1.241629,-0.765655 -1.241629,-0.765655 -0.40202,-0.388602 -0.153769,-1.062536 0.407966,-1.10605 0.02228,-3.39e-4 0.04289,-4.58e-4 0.06504,-4.58e-4 0.177345,4.58e-4 0.347377,0.07575 0.468553,0.202148 0,0 0.187734,0.208257 0.835124,0.487708 0.645969,0.280862 1.704215,0.582198 3.306524,0.611329 1.593384,0.02718 2.629523,-0.273666 3.266579,-0.563296 0.638536,-0.2882 0.826252,-0.515272 0.826252,-0.515272 0.113839,-0.135158 0.277915,-0.21973 0.455314,-0.234364 z"
       id="path1-3"
       style="fill:#f9f9f9;fill-opacity:0.7;stroke-width:1.1" />
  </g>
</svg>
