<?xml version="1.0" encoding="UTF-8" standalone="no"?>
<!-- Created with Inkscape (http://www.inkscape.org/) -->

<svg
   width="62"
   height="62"
   viewBox="0 0 62 62"
   version="1.1"
   id="svg1"
   inkscape:version="1.4 (e7c3feb100, 2024-10-09)"
   sodipodi:docname="folder-openSUSE.svg"
   xmlns:inkscape="http://www.inkscape.org/namespaces/inkscape"
   xmlns:sodipodi="http://sodipodi.sourceforge.net/DTD/sodipodi-0.dtd"
   xmlns:xlink="http://www.w3.org/1999/xlink"
   xmlns="http://www.w3.org/2000/svg"
   xmlns:svg="http://www.w3.org/2000/svg">
  <sodipodi:namedview
     id="namedview1"
     pagecolor="#ffffff"
     bordercolor="#000000"
     borderopacity="0.25"
     inkscape:showpageshadow="2"
     inkscape:pageopacity="0.0"
     inkscape:pagecheckerboard="0"
     inkscape:deskcolor="#d1d1d1"
     inkscape:document-units="px"
     inkscape:zoom="10.74725"
     inkscape:cx="30.659006"
     inkscape:cy="32.008188"
     inkscape:window-width="1920"
     inkscape:window-height="994"
     inkscape:window-x="0"
     inkscape:window-y="0"
     inkscape:window-maximized="1"
     inkscape:current-layer="layer1"
     showgrid="true">
    <inkscape:grid
       id="grid1"
       units="px"
       originx="0"
       originy="0"
       spacingx="1"
       spacingy="1"
       empcolor="#0099e5"
       empopacity="0.30196078"
       color="#0099e5"
       opacity="0.14901961"
       empspacing="5"
       enabled="true"
       visible="true" />
  </sodipodi:namedview>
  <defs
     id="defs1">
    <linearGradient
       id="linearGradient5"
       inkscape:collect="always">
      <stop
         style="stop-color:#566c80;stop-opacity:1;"
         offset="0"
         id="stop5" />
      <stop
         style="stop-color:#313f4a;stop-opacity:1;"
         offset="0.78662658"
         id="stop7" />
      <stop
         style="stop-color:#28333c;stop-opacity:1;"
         offset="1"
         id="stop6" />
    </linearGradient>
    <linearGradient
       id="linearGradient3"
       inkscape:collect="always">
      <stop
         style="stop-color:#00e95d;stop-opacity:1;"
         offset="0"
         id="stop3" />
      <stop
         style="stop-color:#7b24ff;stop-opacity:1;"
         offset="1"
         id="stop4" />
    </linearGradient>
    <linearGradient
       id="linearGradient1"
       inkscape:collect="always">
      <stop
         style="stop-color:#00cccc;stop-opacity:1;"
         offset="0"
         id="stop1" />
      <stop
         style="stop-color:#00973d;stop-opacity:1;"
         offset="1"
         id="stop2" />
    </linearGradient>
    <radialGradient
       id="paint664_radial_890_11"
       cx="0"
       cy="0"
       r="1"
       gradientUnits="userSpaceOnUse"
       gradientTransform="matrix(-16.000099,-9.999913,9.999913,-16.000099,583,171)">
      <stop
         offset="0.42141"
         stop-color="#B7C6CD"
         id="stop2071" />
      <stop
         offset="1"
         stop-color="#EFF2F6"
         id="stop2072" />
    </radialGradient>
    <linearGradient
       id="paint665_linear_890_11"
       x1="605"
       y1="180"
       x2="601.466"
       y2="162.72301"
       gradientUnits="userSpaceOnUse">
      <stop
         stop-color="#5200FF"
         id="stop2073" />
      <stop
         offset="1"
         stop-color="#0085FF"
         id="stop2074" />
    </linearGradient>
    <linearGradient
       id="paint666_linear_890_11"
       x1="567"
       y1="181"
       x2="562.11798"
       y2="174.183"
       gradientUnits="userSpaceOnUse">
      <stop
         stop-color="#5200FF"
         id="stop2075" />
      <stop
         offset="0.670391"
         stop-color="#0085FF"
         id="stop2076" />
    </linearGradient>
    <linearGradient
       id="paint667_linear_890_11"
       x1="605"
       y1="180"
       x2="597.32001"
       y2="174.24001"
       gradientUnits="userSpaceOnUse">
      <stop
         stop-color="#5200FF"
         id="stop2077" />
      <stop
         offset="1"
         stop-color="#0085FF"
         id="stop2078" />
    </linearGradient>
    <linearGradient
       id="paint668_linear_890_11"
       x1="567"
       y1="180"
       x2="561.23999"
       y2="172.32001"
       gradientUnits="userSpaceOnUse">
      <stop
         stop-color="#5200FF"
         id="stop2079" />
      <stop
         offset="1"
         stop-color="#0085FF"
         id="stop2080" />
    </linearGradient>
    <linearGradient
       id="paint669_linear_890_11"
       x1="607"
       y1="179"
       x2="602.50598"
       y2="171.80901"
       gradientUnits="userSpaceOnUse">
      <stop
         stop-color="#5200FF"
         id="stop2081" />
      <stop
         offset="1"
         stop-color="#0085FF"
         id="stop2082" />
    </linearGradient>
    <linearGradient
       id="paint670_linear_890_11"
       x1="607"
       y1="217"
       x2="568.82599"
       y2="170.01601"
       gradientUnits="userSpaceOnUse">
      <stop
         stop-color="#5200FF"
         id="stop2083" />
      <stop
         offset="1"
         stop-color="#0085FF"
         id="stop2084" />
    </linearGradient>
    <radialGradient
       id="paint671_radial_890_11"
       cx="0"
       cy="0"
       r="1"
       gradientUnits="userSpaceOnUse"
       gradientTransform="matrix(0,20,-16,0,583,187)">
      <stop
         offset="0.869716"
         stop-color="#EFF2F6"
         id="stop2085" />
      <stop
         offset="1"
         stop-color="#B7C6CD"
         id="stop2086" />
    </radialGradient>
    <linearGradient
       id="paint497_linear_890_11"
       x1="497"
       y1="413"
       x2="447.457"
       y2="376.79599"
       gradientUnits="userSpaceOnUse"
       gradientTransform="translate(-452,-358)">
      <stop
         offset="0.636456"
         stop-color="#71706E"
         id="stop1737" />
      <stop
         offset="1"
         stop-color="#B9AA99"
         id="stop1738" />
    </linearGradient>
    <linearGradient
       id="paint498_linear_890_11"
       x1="507"
       y1="413"
       x2="457.457"
       y2="376.79599"
       gradientUnits="userSpaceOnUse"
       gradientTransform="translate(-452,-358)">
      <stop
         offset="0.544933"
         stop-color="#FF7E07"
         id="stop1739" />
      <stop
         offset="1"
         stop-color="#FFE607"
         id="stop1740" />
    </linearGradient>
    <linearGradient
       id="paint499_linear_890_11"
       x1="473"
       y1="365"
       x2="486.28699"
       y2="389.91299"
       gradientUnits="userSpaceOnUse"
       gradientTransform="translate(-452,-358)">
      <stop
         stop-color="white"
         id="stop1741" />
      <stop
         offset="0.705"
         stop-color="#EAEFEF"
         id="stop1742" />
    </linearGradient>
    <linearGradient
       id="paint500_linear_890_11"
       x1="480"
       y1="371.5"
       x2="480"
       y2="368.5"
       gradientUnits="userSpaceOnUse"
       gradientTransform="translate(-452,-358)">
      <stop
         offset="0.155999"
         stop-color="#71706E"
         id="stop1743" />
      <stop
         offset="0.796276"
         stop-color="#B9AA99"
         id="stop1744" />
    </linearGradient>
    <linearGradient
       id="paint501_linear_890_11"
       x1="479"
       y1="375.5"
       x2="479"
       y2="372.5"
       gradientUnits="userSpaceOnUse"
       gradientTransform="translate(-452,-358)">
      <stop
         offset="0.155999"
         stop-color="#71706E"
         id="stop1745" />
      <stop
         offset="0.796276"
         stop-color="#B9AA99"
         id="stop1746" />
    </linearGradient>
    <linearGradient
       id="paint502_linear_890_11"
       x1="508"
       y1="414"
       x2="459"
       y2="383.64755"
       gradientUnits="userSpaceOnUse"
       gradientTransform="translate(-452,-361.55289)">
      <stop
         offset="0.207424"
         stop-color="#2E2E41"
         id="stop1747"
         style="stop-color:#29333d;stop-opacity:1;" />
      <stop
         offset="1"
         stop-color="#566C80"
         id="stop1748" />
    </linearGradient>
    <linearGradient
       inkscape:collect="always"
       xlink:href="#linearGradient1"
       id="linearGradient2"
       x1="31"
       y1="3"
       x2="32"
       y2="29"
       gradientUnits="userSpaceOnUse"
       gradientTransform="matrix(1,0,0,0.76923076,0,9.1394207)" />
    <linearGradient
       inkscape:collect="always"
       xlink:href="#linearGradient3"
       id="linearGradient4"
       x1="12"
       y1="3"
       x2="12"
       y2="23.583334"
       gradientUnits="userSpaceOnUse"
       gradientTransform="matrix(1,0,0,0.92307692,0,0.67788209)" />
    <linearGradient
       inkscape:collect="always"
       xlink:href="#linearGradient5"
       id="linearGradient6"
       x1="8"
       y1="20.447113"
       x2="55"
       y2="51.447113"
       gradientUnits="userSpaceOnUse" />
  </defs>
  <g
     inkscape:label="Layer 1"
     inkscape:groupmode="layer"
     id="layer1">
    <g
       id="g1"
       transform="translate(0,1.552887)">
      <path
         d="m 7,8.0624979 c 0,-2.5486158 2.239,-4.615385 5,-4.615385 h 28 c 2.761,0 5,2.0667692 5,4.615385 V 46.831728 c 0,2.548616 -2.239,4.615385 -5,4.615385 H 12 c -2.761,0 -5,-2.066769 -5,-4.615385 z"
         id="path487"
         style="fill:url(#linearGradient4);stroke-width:0.960769" />
      <path
         d="m 17,16.447113 c 0,-3 2,-5 5,-5 h 28 c 3,0 5,2 5,5 v 31.153846 c 0,2.123846 -2.239,3.846154 -5,3.846154 H 22 c -2.761,0 -5,-1.722308 -5,-3.846154 z"
         id="path488"
         style="fill:url(#linearGradient2);fill-opacity:1;stroke-width:0.877058"
         sodipodi:nodetypes="sssssssss" />
      <path
         d="m 3,51.447113 v -30 c 0,-2.209 1.791,-4 4,-4 h 9 c 0.657,0 1.303,0.162 1.882,0.47 l 39,21.795 c 1.304,0.696 2.118,2.053 2.118,3.53 v 8.205 c 0,2.209 -1.791,4 -4,4 H 7 c -2.209,0 -4,-1.791 -4,-4 z"
         id="path492"
         style="fill:url(#linearGradient6)" />
    </g>
    <path
       style="color:#eff0f1;font-size:20.4884px;font-family:TrebuchetMS-Bold;fill:#eff0f1;fill-opacity:0.504559;fill-rule:evenodd;stroke:none;stroke-width:0.157495;stroke-miterlimit:4"
       d="m 22,29 c -6.074797,0 -11,4.9247 -11,11 0,6.0753 4.925203,11 11,11 6.074773,0 11.000001,-4.9247 11.000001,-11 0,-6.0753 -4.925228,-11 -11.000001,-11 z m 0.0542,1.5235 c 5.234048,0 9.480535,4.24314 9.480535,9.4765 0,5.234284 -4.247078,9.4765 -9.480536,9.4765 -2.82634,0 -5.362332,-1.2386 -7.09852,-3.200737 0.714068,-0.554066 1.90828,-0.418724 3.379055,-0.251063 0.704973,0.0792 1.508494,0.17072 2.337865,0.19008 2.316968,0.022 4.809957,-0.409619 6.34877,-1.081696 0.994844,-0.436348 1.631612,-0.723536 2.029724,-1.086096 0.14366,-0.11902 0.21912,-0.31449 0.295944,-0.518342 l 0.05324,-0.13838 c 0.06292,-0.16478 0.15818,-0.519684 0.19866,-0.713086 0.022,-0.08316 0.0286,-0.17556 -0.03278,-0.223058 l -0.214725,0.03894 c -0.675069,0.404888 -2.3619,1.175966 -3.942087,1.207382 -1.958218,0.03916 -5.904798,-1.971288 -6.316489,-2.18383 l -0.03897,-0.0495 c -0.09866,-0.235488 -0.689336,-1.63768 -0.814349,-1.932656 2.840673,1.870704 5.195993,2.906134 7.000965,3.067042 2.007016,0.17886 3.572561,-0.9174 4.242065,-1.385582 0.1298,-0.09042 0.23045,-0.15994 0.271502,-0.1738 l 0.0451,-0.07392 c -0.112022,-0.70543 -1.163992,-4.11906 -1.956894,-4.93889 -0.219778,-0.22495 -0.394636,-0.443652 -0.749557,-0.652256 -2.870093,-1.672836 -9.68426,-2.680194 -10.003323,-2.726856 l -0.0536,0.022 -0.022,0.0451 c 0,0 -0.0272,1.41493 -0.02894,1.571966 -0.233682,-0.07678 -0.95891,-0.314842 -1.997422,-0.599588 1.35504,-1.676576 3.43171,-3.16426 7.066002,-3.16426 z m 2.503803,5.01589 c 0.04951,-7.92e-4 0.09838,-0.0015 0.144807,0 1.607676,0.05632 2.870842,1.411872 2.815864,3.018422 -0.02923,0.776886 -0.356288,1.495296 -0.923804,2.02576 -0.569382,0.532928 -1.308948,0.810942 -2.090583,0.785928 -1.605066,-0.05962 -2.868164,-1.414226 -2.815805,-3.0184 0.0286,-0.778536 0.35684,-1.500972 0.927764,-2.030072 0.533094,-0.499928 1.215335,-0.770814 1.940786,-0.781638 z m -0.077,0.858616 c -0.468216,0.02926 -0.910217,0.2189 -1.255981,0.542894 -0.394173,0.370106 -0.626835,0.8712 -0.644361,1.414226 -0.036,1.121626 0.840566,2.065448 1.961109,2.10661 0.544504,0.022 1.061036,-0.17336 1.458576,-0.542608 0.396505,-0.371778 0.627464,-0.877558 0.644121,-1.418406 0.037,-1.122858 -0.84392,-2.06349 -1.965057,-2.102716 -0.06957,-0.0044 -0.131354,-0.0066 -0.198441,0 z m 0.534803,1.01717 c 0.49788,0 0.89952,0.2706 0.89949,0.603724 0,0.331496 -0.40161,0.603394 -0.89949,0.603394 -0.49962,0 -0.903579,-0.272822 -0.903579,-0.603394 0,-0.333124 0.403959,-0.603724 0.903579,-0.603724 z"
       id="path2445"
       class="ColorScheme-Text "
       inkscape:connector-curvature="0" />
  </g>
</svg>
