<?xml version="1.0" encoding="UTF-8" standalone="no"?>
<!-- Created with Inkscape (http://www.inkscape.org/) -->

<svg
   width="62"
   height="62"
   viewBox="0 0 62 62"
   version="1.1"
   id="svg1"
   inkscape:version="1.4 (e7c3feb100, 2024-10-09)"
   sodipodi:docname="folder-music.svg"
   xmlns:inkscape="http://www.inkscape.org/namespaces/inkscape"
   xmlns:sodipodi="http://sodipodi.sourceforge.net/DTD/sodipodi-0.dtd"
   xmlns:xlink="http://www.w3.org/1999/xlink"
   xmlns="http://www.w3.org/2000/svg"
   xmlns:svg="http://www.w3.org/2000/svg">
  <sodipodi:namedview
     id="namedview1"
     pagecolor="#ffffff"
     bordercolor="#000000"
     borderopacity="0.25"
     inkscape:showpageshadow="2"
     inkscape:pageopacity="0.0"
     inkscape:pagecheckerboard="0"
     inkscape:deskcolor="#d1d1d1"
     inkscape:document-units="px"
     inkscape:zoom="10.74725"
     inkscape:cx="28.146735"
     inkscape:cy="28.565447"
     inkscape:window-width="1920"
     inkscape:window-height="994"
     inkscape:window-x="0"
     inkscape:window-y="0"
     inkscape:window-maximized="1"
     inkscape:current-layer="layer1"
     showgrid="true">
    <inkscape:grid
       id="grid1"
       units="px"
       originx="0"
       originy="0"
       spacingx="1"
       spacingy="1"
       empcolor="#0099e5"
       empopacity="0.30196078"
       color="#0099e5"
       opacity="0.14901961"
       empspacing="5"
       enabled="true"
       visible="true" />
  </sodipodi:namedview>
  <defs
     id="defs1">
    <linearGradient
       id="linearGradient5"
       inkscape:collect="always">
      <stop
         style="stop-color:#566c80;stop-opacity:1;"
         offset="0"
         id="stop5" />
      <stop
         style="stop-color:#313f4b;stop-opacity:1;"
         offset="0.80121887"
         id="stop7" />
      <stop
         style="stop-color:#29343e;stop-opacity:1;"
         offset="1"
         id="stop6" />
    </linearGradient>
    <linearGradient
       id="linearGradient3"
       inkscape:collect="always">
      <stop
         style="stop-color:#ff8080;stop-opacity:1"
         offset="0"
         id="stop3" />
      <stop
         style="stop-color:#5a2ca0;stop-opacity:1;"
         offset="1"
         id="stop4" />
    </linearGradient>
    <linearGradient
       id="linearGradient1"
       inkscape:collect="always">
      <stop
         style="stop-color:#cd87de;stop-opacity:1"
         offset="0"
         id="stop1" />
      <stop
         style="stop-color:#ffd11a;stop-opacity:1;"
         offset="1"
         id="stop2" />
    </linearGradient>
    <radialGradient
       id="paint664_radial_890_11"
       cx="0"
       cy="0"
       r="1"
       gradientUnits="userSpaceOnUse"
       gradientTransform="matrix(-16.000099,-9.999913,9.999913,-16.000099,583,171)">
      <stop
         offset="0.42141"
         stop-color="#B7C6CD"
         id="stop2071" />
      <stop
         offset="1"
         stop-color="#EFF2F6"
         id="stop2072" />
    </radialGradient>
    <linearGradient
       id="paint665_linear_890_11"
       x1="605"
       y1="180"
       x2="601.466"
       y2="162.72301"
       gradientUnits="userSpaceOnUse">
      <stop
         stop-color="#5200FF"
         id="stop2073" />
      <stop
         offset="1"
         stop-color="#0085FF"
         id="stop2074" />
    </linearGradient>
    <linearGradient
       id="paint666_linear_890_11"
       x1="567"
       y1="181"
       x2="562.11798"
       y2="174.183"
       gradientUnits="userSpaceOnUse">
      <stop
         stop-color="#5200FF"
         id="stop2075" />
      <stop
         offset="0.670391"
         stop-color="#0085FF"
         id="stop2076" />
    </linearGradient>
    <linearGradient
       id="paint667_linear_890_11"
       x1="605"
       y1="180"
       x2="597.32001"
       y2="174.24001"
       gradientUnits="userSpaceOnUse">
      <stop
         stop-color="#5200FF"
         id="stop2077" />
      <stop
         offset="1"
         stop-color="#0085FF"
         id="stop2078" />
    </linearGradient>
    <linearGradient
       id="paint668_linear_890_11"
       x1="567"
       y1="180"
       x2="561.23999"
       y2="172.32001"
       gradientUnits="userSpaceOnUse">
      <stop
         stop-color="#5200FF"
         id="stop2079" />
      <stop
         offset="1"
         stop-color="#0085FF"
         id="stop2080" />
    </linearGradient>
    <linearGradient
       id="paint669_linear_890_11"
       x1="607"
       y1="179"
       x2="602.50598"
       y2="171.80901"
       gradientUnits="userSpaceOnUse">
      <stop
         stop-color="#5200FF"
         id="stop2081" />
      <stop
         offset="1"
         stop-color="#0085FF"
         id="stop2082" />
    </linearGradient>
    <linearGradient
       id="paint670_linear_890_11"
       x1="607"
       y1="217"
       x2="568.82599"
       y2="170.01601"
       gradientUnits="userSpaceOnUse">
      <stop
         stop-color="#5200FF"
         id="stop2083" />
      <stop
         offset="1"
         stop-color="#0085FF"
         id="stop2084" />
    </linearGradient>
    <radialGradient
       id="paint671_radial_890_11"
       cx="0"
       cy="0"
       r="1"
       gradientUnits="userSpaceOnUse"
       gradientTransform="matrix(0,20,-16,0,583,187)">
      <stop
         offset="0.869716"
         stop-color="#EFF2F6"
         id="stop2085" />
      <stop
         offset="1"
         stop-color="#B7C6CD"
         id="stop2086" />
    </radialGradient>
    <linearGradient
       id="paint497_linear_890_11"
       x1="497"
       y1="413"
       x2="447.457"
       y2="376.79599"
       gradientUnits="userSpaceOnUse"
       gradientTransform="translate(-452,-358)">
      <stop
         offset="0.636456"
         stop-color="#71706E"
         id="stop1737" />
      <stop
         offset="1"
         stop-color="#B9AA99"
         id="stop1738" />
    </linearGradient>
    <linearGradient
       id="paint498_linear_890_11"
       x1="507"
       y1="413"
       x2="457.457"
       y2="376.79599"
       gradientUnits="userSpaceOnUse"
       gradientTransform="translate(-452,-358)">
      <stop
         offset="0.544933"
         stop-color="#FF7E07"
         id="stop1739" />
      <stop
         offset="1"
         stop-color="#FFE607"
         id="stop1740" />
    </linearGradient>
    <linearGradient
       id="paint499_linear_890_11"
       x1="473"
       y1="365"
       x2="486.28699"
       y2="389.91299"
       gradientUnits="userSpaceOnUse"
       gradientTransform="translate(-452,-358)">
      <stop
         stop-color="white"
         id="stop1741" />
      <stop
         offset="0.705"
         stop-color="#EAEFEF"
         id="stop1742" />
    </linearGradient>
    <linearGradient
       id="paint500_linear_890_11"
       x1="480"
       y1="371.5"
       x2="480"
       y2="368.5"
       gradientUnits="userSpaceOnUse"
       gradientTransform="translate(-452,-358)">
      <stop
         offset="0.155999"
         stop-color="#71706E"
         id="stop1743" />
      <stop
         offset="0.796276"
         stop-color="#B9AA99"
         id="stop1744" />
    </linearGradient>
    <linearGradient
       id="paint501_linear_890_11"
       x1="479"
       y1="375.5"
       x2="479"
       y2="372.5"
       gradientUnits="userSpaceOnUse"
       gradientTransform="translate(-452,-358)">
      <stop
         offset="0.155999"
         stop-color="#71706E"
         id="stop1745" />
      <stop
         offset="0.796276"
         stop-color="#B9AA99"
         id="stop1746" />
    </linearGradient>
    <linearGradient
       id="paint502_linear_890_11"
       x1="508"
       y1="414"
       x2="459"
       y2="383.64755"
       gradientUnits="userSpaceOnUse"
       gradientTransform="translate(-452,-361.55289)">
      <stop
         offset="0.207424"
         stop-color="#2E2E41"
         id="stop1747"
         style="stop-color:#29333d;stop-opacity:1;" />
      <stop
         offset="1"
         stop-color="#566C80"
         id="stop1748" />
    </linearGradient>
    <linearGradient
       inkscape:collect="always"
       xlink:href="#linearGradient1"
       id="linearGradient2"
       x1="29"
       y1="3"
       x2="50"
       y2="40.700001"
       gradientUnits="userSpaceOnUse"
       gradientTransform="matrix(1,0,0,0.76923076,0,9.1394207)" />
    <linearGradient
       inkscape:collect="always"
       xlink:href="#linearGradient3"
       id="linearGradient4"
       x1="12"
       y1="3"
       x2="17"
       y2="29"
       gradientUnits="userSpaceOnUse"
       gradientTransform="matrix(1,0,0,0.92307692,0,0.67788209)" />
    <linearGradient
       inkscape:collect="always"
       xlink:href="#linearGradient5"
       id="linearGradient6"
       x1="7"
       y1="21.447113"
       x2="55"
       y2="51.447113"
       gradientUnits="userSpaceOnUse" />
  </defs>
  <g
     inkscape:label="Layer 1"
     inkscape:groupmode="layer"
     id="layer1">
    <g
       id="g1"
       transform="translate(0,1.552887)">
      <path
         d="m 7,8.0624979 c 0,-2.5486158 2.239,-4.615385 5,-4.615385 h 28 c 2.761,0 5,2.0667692 5,4.615385 V 46.831728 c 0,2.548616 -2.239,4.615385 -5,4.615385 H 12 c -2.761,0 -5,-2.066769 -5,-4.615385 z"
         id="path487"
         style="fill:url(#linearGradient4);stroke-width:0.960769" />
      <path
         d="m 17,16.447113 c 0,-3 2,-5 5,-5 h 28 c 3,0 5,2 5,5 v 31.153846 c 0,2.123846 -2.239,3.846154 -5,3.846154 H 22 c -2.761,0 -5,-1.722308 -5,-3.846154 z"
         id="path488"
         style="fill:url(#linearGradient2);fill-opacity:1;stroke-width:0.877058"
         sodipodi:nodetypes="sssssssss" />
      <path
         d="m 3,51.447113 v -30 c 0,-2.209 1.791,-4 4,-4 h 9 c 0.657,0 1.303,0.162 1.882,0.47 l 39,21.795 c 1.304,0.696 2.118,2.053 2.118,3.53 v 8.205 c 0,2.209 -1.791,4 -4,4 H 7 c -2.209,0 -4,-1.791 -4,-4 z"
         id="path492"
         style="fill:url(#linearGradient6)" />
    </g>
    <path
       d="m 23.299718,39.845878 c -0.439957,0 -0.835911,-0.2431 -1.022896,-0.641251 l -1.594835,-3.195237 -0.461946,0.862356 c -0.253144,0.47542 -0.758933,0.773912 -1.29788,0.773912 h -0.80293 c -0.450971,0 -0.824911,-0.375888 -0.824911,-0.829207 0,-0.453301 0.37394,-0.829219 0.824911,-0.829219 h 0.70394 l 0.868903,-1.614203 c 0.209025,-0.375917 0.626926,-0.630198 1.022898,-0.60808 0.428958,0 0.813908,0.254449 1.011883,0.630182 l 1.572863,3.16206 0.373959,-0.762885 c 0.253146,-0.508596 0.747926,-0.818136 1.319869,-0.818136 h 0.890912 c 0.450983,0 0.824925,0.375888 0.824925,0.829211 0,0.453297 -0.373942,0.829209 -0.824925,0.829209 h -0.780917 l -0.780938,1.558961 c -0.198067,0.409099 -0.582935,0.6523 -1.022926,0.6523 z"
       id="path1-3-6-3"
       style="fill:#f9f9f9;fill-opacity:0.504525;stroke-width:1.1" />
    <path
       d="m 11.826879,47.353197 c -0.450976,0 -0.82493,-0.37581 -0.82493,-0.829226 v -6.301959 c -0.055,-2.99622 1.055891,-5.826609 3.123685,-7.94939 C 16.19345,30.160897 18.965172,29 21.945872,29 c 6.093391,0 11.053915,4.986311 11.053915,11.111454 v 6.301969 c 0,0.453336 -0.373964,0.82923 -0.824936,0.82923 -0.45095,0 -0.824932,-0.375894 -0.824932,-0.82923 v -6.301969 c 0,-5.207471 -4.212565,-9.45303 -9.404067,-9.45303 -2.540731,0 -4.894501,0.983991 -6.643322,2.775077 -1.759839,1.802175 -2.69474,4.201339 -2.65075,6.766389 v 6.313028 c 0,0.464446 -0.362949,0.840256 -0.824901,0.840279 z"
       id="path2-6-7-6"
       style="fill:#f9f9f9;fill-opacity:0.504525;stroke-width:1.1" />
    <path
       d="m 15.33573,40.49664 h -0.143 c -2.309781,0 -4.190582,1.890612 -4.190582,4.212368 v 2.078578 C 11.002148,49.109433 12.882975,51 15.19273,51 h 0.143 c 2.309781,0 4.190587,-1.890574 4.190587,-4.212414 v -2.078578 c 0,-2.321779 -1.880816,-4.212368 -4.190587,-4.212368 z"
       id="path3-7-5-7"
       style="fill:#f9f9f9;fill-opacity:0.504525;stroke-width:1.1" />
    <path
       d="m 28.809428,40.49664 h -0.142981 c -2.309817,0 -4.190616,1.890612 -4.190616,4.212368 v 2.078578 C 24.475831,49.109433 26.356656,51 28.666447,51 h 0.142981 c 2.309757,0 4.190565,-1.890574 4.190565,-4.212414 v -2.078578 c 0,-2.321779 -1.880817,-4.212368 -4.190565,-4.212368 z"
       id="path4-7-5-3-5"
       style="fill:#f9f9f9;fill-opacity:0.504525;stroke-width:1.1" />
  </g>
</svg>
