<?xml version="1.0" encoding="UTF-8" standalone="no"?>
<!-- Created with Inkscape (http://www.inkscape.org/) -->

<svg
   width="62"
   height="62"
   viewBox="0 0 62 62"
   version="1.1"
   id="svg1"
   inkscape:version="1.4 (e7c3feb100, 2024-10-09)"
   sodipodi:docname="folder-docker.svg"
   xmlns:inkscape="http://www.inkscape.org/namespaces/inkscape"
   xmlns:sodipodi="http://sodipodi.sourceforge.net/DTD/sodipodi-0.dtd"
   xmlns:xlink="http://www.w3.org/1999/xlink"
   xmlns="http://www.w3.org/2000/svg"
   xmlns:svg="http://www.w3.org/2000/svg">
  <sodipodi:namedview
     id="namedview1"
     pagecolor="#ffffff"
     bordercolor="#000000"
     borderopacity="0.25"
     inkscape:showpageshadow="2"
     inkscape:pageopacity="0.0"
     inkscape:pagecheckerboard="0"
     inkscape:deskcolor="#d1d1d1"
     inkscape:document-units="px"
     inkscape:zoom="10.74725"
     inkscape:cx="30.0542"
     inkscape:cy="45.686106"
     inkscape:window-width="1920"
     inkscape:window-height="994"
     inkscape:window-x="0"
     inkscape:window-y="0"
     inkscape:window-maximized="1"
     inkscape:current-layer="layer1"
     showgrid="true">
    <inkscape:grid
       id="grid1"
       units="px"
       originx="0"
       originy="0"
       spacingx="1"
       spacingy="1"
       empcolor="#0099e5"
       empopacity="0.30196078"
       color="#0099e5"
       opacity="0.14901961"
       empspacing="5"
       enabled="true"
       visible="true" />
  </sodipodi:namedview>
  <defs
     id="defs1">
    <linearGradient
       id="linearGradient5"
       inkscape:collect="always">
      <stop
         style="stop-color:#566c80;stop-opacity:1;"
         offset="0"
         id="stop5" />
      <stop
         style="stop-color:#323f4b;stop-opacity:1;"
         offset="0.7836225"
         id="stop7" />
      <stop
         style="stop-color:#29333d;stop-opacity:1;"
         offset="1"
         id="stop6" />
    </linearGradient>
    <linearGradient
       id="linearGradient3"
       inkscape:collect="always">
      <stop
         style="stop-color:#b89be3;stop-opacity:1;"
         offset="0"
         id="stop3" />
      <stop
         style="stop-color:#422277;stop-opacity:1;"
         offset="1"
         id="stop4" />
    </linearGradient>
    <linearGradient
       id="linearGradient1"
       inkscape:collect="always">
      <stop
         style="stop-color:#80b2ff;stop-opacity:1;"
         offset="0"
         id="stop1" />
      <stop
         style="stop-color:#007a99;stop-opacity:1;"
         offset="1"
         id="stop2" />
    </linearGradient>
    <radialGradient
       id="paint664_radial_890_11"
       cx="0"
       cy="0"
       r="1"
       gradientUnits="userSpaceOnUse"
       gradientTransform="matrix(-16.000099,-9.999913,9.999913,-16.000099,583,171)">
      <stop
         offset="0.42141"
         stop-color="#B7C6CD"
         id="stop2071" />
      <stop
         offset="1"
         stop-color="#EFF2F6"
         id="stop2072" />
    </radialGradient>
    <linearGradient
       id="paint665_linear_890_11"
       x1="605"
       y1="180"
       x2="601.466"
       y2="162.72301"
       gradientUnits="userSpaceOnUse">
      <stop
         stop-color="#5200FF"
         id="stop2073" />
      <stop
         offset="1"
         stop-color="#0085FF"
         id="stop2074" />
    </linearGradient>
    <linearGradient
       id="paint666_linear_890_11"
       x1="567"
       y1="181"
       x2="562.11798"
       y2="174.183"
       gradientUnits="userSpaceOnUse">
      <stop
         stop-color="#5200FF"
         id="stop2075" />
      <stop
         offset="0.670391"
         stop-color="#0085FF"
         id="stop2076" />
    </linearGradient>
    <linearGradient
       id="paint667_linear_890_11"
       x1="605"
       y1="180"
       x2="597.32001"
       y2="174.24001"
       gradientUnits="userSpaceOnUse">
      <stop
         stop-color="#5200FF"
         id="stop2077" />
      <stop
         offset="1"
         stop-color="#0085FF"
         id="stop2078" />
    </linearGradient>
    <linearGradient
       id="paint668_linear_890_11"
       x1="567"
       y1="180"
       x2="561.23999"
       y2="172.32001"
       gradientUnits="userSpaceOnUse">
      <stop
         stop-color="#5200FF"
         id="stop2079" />
      <stop
         offset="1"
         stop-color="#0085FF"
         id="stop2080" />
    </linearGradient>
    <linearGradient
       id="paint669_linear_890_11"
       x1="607"
       y1="179"
       x2="602.50598"
       y2="171.80901"
       gradientUnits="userSpaceOnUse">
      <stop
         stop-color="#5200FF"
         id="stop2081" />
      <stop
         offset="1"
         stop-color="#0085FF"
         id="stop2082" />
    </linearGradient>
    <linearGradient
       id="paint670_linear_890_11"
       x1="607"
       y1="217"
       x2="568.82599"
       y2="170.01601"
       gradientUnits="userSpaceOnUse">
      <stop
         stop-color="#5200FF"
         id="stop2083" />
      <stop
         offset="1"
         stop-color="#0085FF"
         id="stop2084" />
    </linearGradient>
    <radialGradient
       id="paint671_radial_890_11"
       cx="0"
       cy="0"
       r="1"
       gradientUnits="userSpaceOnUse"
       gradientTransform="matrix(0,20,-16,0,583,187)">
      <stop
         offset="0.869716"
         stop-color="#EFF2F6"
         id="stop2085" />
      <stop
         offset="1"
         stop-color="#B7C6CD"
         id="stop2086" />
    </radialGradient>
    <linearGradient
       id="paint497_linear_890_11"
       x1="497"
       y1="413"
       x2="447.457"
       y2="376.79599"
       gradientUnits="userSpaceOnUse"
       gradientTransform="translate(-452,-358)">
      <stop
         offset="0.636456"
         stop-color="#71706E"
         id="stop1737" />
      <stop
         offset="1"
         stop-color="#B9AA99"
         id="stop1738" />
    </linearGradient>
    <linearGradient
       id="paint498_linear_890_11"
       x1="507"
       y1="413"
       x2="457.457"
       y2="376.79599"
       gradientUnits="userSpaceOnUse"
       gradientTransform="translate(-452,-358)">
      <stop
         offset="0.544933"
         stop-color="#FF7E07"
         id="stop1739" />
      <stop
         offset="1"
         stop-color="#FFE607"
         id="stop1740" />
    </linearGradient>
    <linearGradient
       id="paint499_linear_890_11"
       x1="473"
       y1="365"
       x2="486.28699"
       y2="389.91299"
       gradientUnits="userSpaceOnUse"
       gradientTransform="translate(-452,-358)">
      <stop
         stop-color="white"
         id="stop1741" />
      <stop
         offset="0.705"
         stop-color="#EAEFEF"
         id="stop1742" />
    </linearGradient>
    <linearGradient
       id="paint500_linear_890_11"
       x1="480"
       y1="371.5"
       x2="480"
       y2="368.5"
       gradientUnits="userSpaceOnUse"
       gradientTransform="translate(-452,-358)">
      <stop
         offset="0.155999"
         stop-color="#71706E"
         id="stop1743" />
      <stop
         offset="0.796276"
         stop-color="#B9AA99"
         id="stop1744" />
    </linearGradient>
    <linearGradient
       id="paint501_linear_890_11"
       x1="479"
       y1="375.5"
       x2="479"
       y2="372.5"
       gradientUnits="userSpaceOnUse"
       gradientTransform="translate(-452,-358)">
      <stop
         offset="0.155999"
         stop-color="#71706E"
         id="stop1745" />
      <stop
         offset="0.796276"
         stop-color="#B9AA99"
         id="stop1746" />
    </linearGradient>
    <linearGradient
       id="paint502_linear_890_11"
       x1="511"
       y1="417"
       x2="459"
       y2="383.64755"
       gradientUnits="userSpaceOnUse"
       gradientTransform="translate(-452,-361.55289)">
      <stop
         offset="0.207424"
         stop-color="#2E2E41"
         id="stop1747"
         style="stop-color:#3e3e57;stop-opacity:1;" />
      <stop
         offset="1"
         stop-color="#566C80"
         id="stop1748" />
    </linearGradient>
    <linearGradient
       inkscape:collect="always"
       xlink:href="#linearGradient1"
       id="linearGradient2"
       x1="31"
       y1="2.9650395"
       x2="31"
       y2="30.283407"
       gradientUnits="userSpaceOnUse"
       gradientTransform="matrix(1,0,0,0.76871358,2.0970049e-7,9.1678469)" />
    <linearGradient
       inkscape:collect="always"
       xlink:href="#linearGradient3"
       id="linearGradient4"
       x1="12"
       y1="3"
       x2="16"
       y2="27.916666"
       gradientUnits="userSpaceOnUse"
       gradientTransform="matrix(1,0,0,0.92307692,0,0.67788209)" />
    <linearGradient
       inkscape:collect="always"
       xlink:href="#linearGradient5"
       id="linearGradient6"
       x1="7"
       y1="21.447113"
       x2="55"
       y2="52.447113"
       gradientUnits="userSpaceOnUse" />
  </defs>
  <g
     inkscape:label="Layer 1"
     inkscape:groupmode="layer"
     id="layer1">
    <g
       id="g1"
       transform="translate(0,1.552887)">
      <path
         d="m 7,8.0624979 c 0,-2.5486158 2.239,-4.615385 5,-4.615385 h 28 c 2.761,0 5,2.0667692 5,4.615385 V 46.831728 c 0,2.548616 -2.239,4.615385 -5,4.615385 H 12 c -2.761,0 -5,-2.066769 -5,-4.615385 z"
         id="path487"
         style="fill:url(#linearGradient4);stroke-width:0.960769" />
      <path
         d="m 17,16.443751 c 0,-2.997983 1.998655,-4.996638 5,-4.996638 h 27.999999 c 2.975797,0 4.971994,1.998655 4.974452,4.996638 l 0.02555,31.159775 c 0.0017,2.122418 -2.239,3.843568 -5,3.843568 H 22 c -2.761,0 -5,-1.72115 -5,-3.843568 z"
         id="path488"
         style="fill:url(#linearGradient2);fill-opacity:1;stroke-width:0.876763"
         sodipodi:nodetypes="sssssssss" />
      <path
         d="m 3,51.447113 v -30 c 0,-2.209 1.791,-4 4,-4 h 9 c 0.657,0 1.303,0.162 1.882,0.47 l 39,21.795 c 1.304,0.696 2.118,2.053 2.118,3.53 v 8.205 c 0,2.209 -1.791,4 -4,4 H 7 c -2.209,0 -4,-1.791 -4,-4 z"
         id="path492"
         style="fill:url(#linearGradient6)" />
    </g>
    <path
       d="M 17.553169,50.000004 C 12.894291,50.000004 10,46.487668 10,40.833327 c 0,-0.460168 0.375805,-0.833324 0.839236,-0.833324 h 13.546699 c -0.07935,-0.32026 -0.118836,-0.638411 -0.118836,-0.952601 0,-2.122811 1.820211,-3.765821 1.898084,-3.835067 0.317997,-0.283178 0.801566,-0.283178 1.119544,0 0.07792,0.06938 1.898128,1.712256 1.898128,3.835067 0,0.08184 -0.0015,0.164 -0.0069,0.246178 2.227586,-0.134624 4.037996,1.796923 4.11016,1.876668 0.285165,0.3166 0.285165,0.79508 0,1.111671 -0.06981,0.07682 -1.723541,1.884762 -3.862593,1.884762 -0.545037,0 -1.097396,-0.115232 -1.651451,-0.34344 -1.631796,3.479825 -5.989047,6.176763 -10.217639,6.176763 z M 11.7076,41.66668 c 0.156925,2.279067 1.079769,6.666649 5.845569,6.666649 3.84824,0 7.95886,-2.7144 8.975935,-5.927324 0.07871,-0.247003 0.267972,-0.443924 0.512246,-0.533003 0.247502,-0.08931 0.517164,-0.05949 0.738476,0.07938 0.576884,0.36334 1.129347,0.547676 1.642382,0.547676 0.767135,0 1.487561,-0.409745 1.976831,-0.774773 -0.487679,-0.364163 -1.207249,-0.77306 -1.976831,-0.77306 -0.329487,0 -0.676942,0.08046 -1.062129,0.24616 -0.315566,0.136334 -0.683581,0.066 -0.926947,-0.175337 -0.243378,-0.241675 -0.313874,-0.606233 -0.176993,-0.9204 0.167176,-0.382928 0.248315,-0.727915 0.248315,-1.055095 0,-0.761329 -0.413087,-1.476658 -0.780233,-1.962508 -0.367252,0.48459 -0.778657,1.198674 -0.778657,1.962421 0,0.432168 0.136063,0.89842 0.404849,1.385507 0.142605,0.2584 0.136878,0.571675 -0.01402,0.82516 -0.150829,0.253152 -0.425351,0.4086 -0.721988,0.4086 z"
       id="path2-7-3"
       style="fill:#f9f9f9;fill-opacity:0.5" />
    <g
       id="g31"
       style="fill:#f9f9f9;fill-opacity:0.5"
       transform="translate(-8.8)">
      <g
         id="g30"
         style="fill:#f9f9f9;fill-opacity:0.5">
        <path
           d="m 31.388609,39.166679 h -2.51772 c -0.463431,0 -0.839229,-0.373179 -0.839229,-0.833356 v -2.499996 c 0,-0.460168 0.375798,-0.833325 0.839229,-0.833325 h 2.51772 c 0.463855,0 0.839232,0.373157 0.839232,0.833325 v 2.499996 c 0,0.460177 -0.375377,0.833356 -0.839232,0.833356 z m -1.678488,-1.666676 h 0.83926 V 36.66668 h -0.83926 z"
           id="path4-5-6"
           style="fill:#f9f9f9;fill-opacity:0.5;stroke-width:2.41627" />
        <path
           d="M 23.835448,39.166679 H 21.31772 c -0.463426,0 -0.839225,-0.373179 -0.839225,-0.833356 v -2.499996 c 0,-0.460168 0.375799,-0.833325 0.839225,-0.833325 h 2.517728 c 0.463428,0 0.83923,0.373157 0.83923,0.833325 v 2.499996 c 0,0.460177 -0.375802,0.833356 -0.83923,0.833356 z m -1.678489,-1.666676 h 0.839256 V 36.66668 h -0.839256 z"
           id="path6-3-7"
           style="fill:#f9f9f9;fill-opacity:0.5;stroke-width:2.41627" />
        <path
           d="m 26.353169,36.66668 h -2.517721 c -0.463434,0 -0.839233,-0.373174 -0.839233,-0.833353 v -2.500002 c 0,-0.460168 0.375799,-0.833324 0.839233,-0.833324 h 2.517721 c 0.463426,0 0.839229,0.373156 0.839229,0.833324 v 2.500002 c 0,0.460179 -0.375803,0.833353 -0.839229,0.833353 z m -1.678491,-1.666678 h 0.83926 v -0.833323 h -0.83926 z"
           id="path8-5-5"
           style="fill:#f9f9f9;fill-opacity:0.5;stroke-width:2.41627" />
        <path
           d="m 26.353169,39.166679 h -2.517721 c -0.463434,0 -0.839233,-0.373179 -0.839233,-0.833356 v -2.499996 c 0,-0.460168 0.375799,-0.833325 0.839233,-0.833325 h 2.517721 c 0.463426,0 0.839229,0.373157 0.839229,0.833325 v 2.499996 c 0,0.460177 -0.375803,0.833356 -0.839229,0.833356 z m -1.678491,-1.666676 h 0.83926 V 36.66668 h -0.83926 z"
           id="path10-5-6-3"
           style="fill:#f9f9f9;fill-opacity:0.5;stroke-width:2.41627" />
        <path
           d="m 28.870889,34.166679 h -2.51772 c -0.463433,0 -0.839231,-0.373174 -0.839231,-0.833354 V 30.833324 C 25.513938,30.373157 25.889736,30 26.353169,30 h 2.51772 c 0.463424,0 0.839232,0.373157 0.839232,0.833324 v 2.500001 c 0,0.46018 -0.375808,0.833354 -0.839232,0.833354 z M 27.192398,32.500001 H 28.03166 V 31.66668 h -0.839262 z"
           id="path12-2-5"
           style="fill:#f9f9f9;fill-opacity:0.5;stroke-width:2.41627" />
        <path
           d="m 28.870889,36.66668 h -2.51772 c -0.463433,0 -0.839231,-0.373174 -0.839231,-0.833353 v -2.500002 c 0,-0.460168 0.375798,-0.833324 0.839231,-0.833324 h 2.51772 c 0.463424,0 0.839232,0.373156 0.839232,0.833324 v 2.500002 c 0,0.460179 -0.375808,0.833353 -0.839232,0.833353 z m -1.678491,-1.666678 h 0.839262 v -0.833323 h -0.839262 z"
           id="path14-9-6"
           style="fill:#f9f9f9;fill-opacity:0.5;stroke-width:2.41627" />
        <path
           d="m 28.870889,39.166679 h -2.51772 c -0.463433,0 -0.839231,-0.373179 -0.839231,-0.833356 v -2.499996 c 0,-0.460168 0.375798,-0.833325 0.839231,-0.833325 h 2.51772 c 0.463424,0 0.839232,0.373157 0.839232,0.833325 v 2.499996 c 0,0.460177 -0.375808,0.833356 -0.839232,0.833356 z M 27.192398,37.500003 H 28.03166 V 36.66668 h -0.839262 z"
           id="path16-1-2"
           style="fill:#f9f9f9;fill-opacity:0.5;stroke-width:2.41627" />
      </g>
    </g>
    <ellipse
       cx="14.615632"
       cy="43.749489"
       id="circle18-2-9"
       style="fill:#f9f9f9;fill-opacity:0.5;stroke-width:2.41627"
       rx="1.2588611"
       ry="1.2500006" />
  </g>
</svg>
