<?xml version="1.0" encoding="UTF-8" standalone="no"?>
<!-- Created with Inkscape (http://www.inkscape.org/) -->

<svg
   width="62"
   height="62"
   viewBox="0 0 62 62"
   version="1.1"
   id="svg1"
   inkscape:version="1.4 (e7c3feb100, 2024-10-09)"
   sodipodi:docname="folder-deb.svg"
   xmlns:inkscape="http://www.inkscape.org/namespaces/inkscape"
   xmlns:sodipodi="http://sodipodi.sourceforge.net/DTD/sodipodi-0.dtd"
   xmlns:xlink="http://www.w3.org/1999/xlink"
   xmlns="http://www.w3.org/2000/svg"
   xmlns:svg="http://www.w3.org/2000/svg">
  <sodipodi:namedview
     id="namedview1"
     pagecolor="#ffffff"
     bordercolor="#000000"
     borderopacity="0.25"
     inkscape:showpageshadow="2"
     inkscape:pageopacity="0.0"
     inkscape:pagecheckerboard="0"
     inkscape:deskcolor="#d1d1d1"
     inkscape:document-units="px"
     inkscape:zoom="10.74725"
     inkscape:cx="30.0542"
     inkscape:cy="45.686106"
     inkscape:window-width="1920"
     inkscape:window-height="994"
     inkscape:window-x="0"
     inkscape:window-y="0"
     inkscape:window-maximized="1"
     inkscape:current-layer="layer1"
     showgrid="true">
    <inkscape:grid
       id="grid1"
       units="px"
       originx="0"
       originy="0"
       spacingx="1"
       spacingy="1"
       empcolor="#0099e5"
       empopacity="0.30196078"
       color="#0099e5"
       opacity="0.14901961"
       empspacing="5"
       enabled="true"
       visible="true" />
  </sodipodi:namedview>
  <defs
     id="defs1">
    <linearGradient
       id="linearGradient5"
       inkscape:collect="always">
      <stop
         style="stop-color:#566c80;stop-opacity:1;"
         offset="0"
         id="stop5" />
      <stop
         style="stop-color:#323f4b;stop-opacity:1;"
         offset="0.7836225"
         id="stop7" />
      <stop
         style="stop-color:#29333d;stop-opacity:1;"
         offset="1"
         id="stop6" />
    </linearGradient>
    <linearGradient
       id="linearGradient3"
       inkscape:collect="always">
      <stop
         style="stop-color:#de87aa;stop-opacity:1"
         offset="0"
         id="stop3" />
      <stop
         style="stop-color:#a02c5a;stop-opacity:1"
         offset="1"
         id="stop4" />
    </linearGradient>
    <linearGradient
       id="linearGradient1"
       inkscape:collect="always">
      <stop
         style="stop-color:#de8787;stop-opacity:1"
         offset="0"
         id="stop1" />
      <stop
         style="stop-color:#a02c2c;stop-opacity:1"
         offset="1"
         id="stop2" />
    </linearGradient>
    <radialGradient
       id="paint664_radial_890_11"
       cx="0"
       cy="0"
       r="1"
       gradientUnits="userSpaceOnUse"
       gradientTransform="matrix(-16.000099,-9.999913,9.999913,-16.000099,583,171)">
      <stop
         offset="0.42141"
         stop-color="#B7C6CD"
         id="stop2071" />
      <stop
         offset="1"
         stop-color="#EFF2F6"
         id="stop2072" />
    </radialGradient>
    <linearGradient
       id="paint665_linear_890_11"
       x1="605"
       y1="180"
       x2="601.466"
       y2="162.72301"
       gradientUnits="userSpaceOnUse">
      <stop
         stop-color="#5200FF"
         id="stop2073" />
      <stop
         offset="1"
         stop-color="#0085FF"
         id="stop2074" />
    </linearGradient>
    <linearGradient
       id="paint666_linear_890_11"
       x1="567"
       y1="181"
       x2="562.11798"
       y2="174.183"
       gradientUnits="userSpaceOnUse">
      <stop
         stop-color="#5200FF"
         id="stop2075" />
      <stop
         offset="0.670391"
         stop-color="#0085FF"
         id="stop2076" />
    </linearGradient>
    <linearGradient
       id="paint667_linear_890_11"
       x1="605"
       y1="180"
       x2="597.32001"
       y2="174.24001"
       gradientUnits="userSpaceOnUse">
      <stop
         stop-color="#5200FF"
         id="stop2077" />
      <stop
         offset="1"
         stop-color="#0085FF"
         id="stop2078" />
    </linearGradient>
    <linearGradient
       id="paint668_linear_890_11"
       x1="567"
       y1="180"
       x2="561.23999"
       y2="172.32001"
       gradientUnits="userSpaceOnUse">
      <stop
         stop-color="#5200FF"
         id="stop2079" />
      <stop
         offset="1"
         stop-color="#0085FF"
         id="stop2080" />
    </linearGradient>
    <linearGradient
       id="paint669_linear_890_11"
       x1="607"
       y1="179"
       x2="602.50598"
       y2="171.80901"
       gradientUnits="userSpaceOnUse">
      <stop
         stop-color="#5200FF"
         id="stop2081" />
      <stop
         offset="1"
         stop-color="#0085FF"
         id="stop2082" />
    </linearGradient>
    <linearGradient
       id="paint670_linear_890_11"
       x1="607"
       y1="217"
       x2="568.82599"
       y2="170.01601"
       gradientUnits="userSpaceOnUse">
      <stop
         stop-color="#5200FF"
         id="stop2083" />
      <stop
         offset="1"
         stop-color="#0085FF"
         id="stop2084" />
    </linearGradient>
    <radialGradient
       id="paint671_radial_890_11"
       cx="0"
       cy="0"
       r="1"
       gradientUnits="userSpaceOnUse"
       gradientTransform="matrix(0,20,-16,0,583,187)">
      <stop
         offset="0.869716"
         stop-color="#EFF2F6"
         id="stop2085" />
      <stop
         offset="1"
         stop-color="#B7C6CD"
         id="stop2086" />
    </radialGradient>
    <linearGradient
       id="paint497_linear_890_11"
       x1="497"
       y1="413"
       x2="447.457"
       y2="376.79599"
       gradientUnits="userSpaceOnUse"
       gradientTransform="translate(-452,-358)">
      <stop
         offset="0.636456"
         stop-color="#71706E"
         id="stop1737" />
      <stop
         offset="1"
         stop-color="#B9AA99"
         id="stop1738" />
    </linearGradient>
    <linearGradient
       id="paint498_linear_890_11"
       x1="507"
       y1="413"
       x2="457.457"
       y2="376.79599"
       gradientUnits="userSpaceOnUse"
       gradientTransform="translate(-452,-358)">
      <stop
         offset="0.544933"
         stop-color="#FF7E07"
         id="stop1739" />
      <stop
         offset="1"
         stop-color="#FFE607"
         id="stop1740" />
    </linearGradient>
    <linearGradient
       id="paint499_linear_890_11"
       x1="473"
       y1="365"
       x2="486.28699"
       y2="389.91299"
       gradientUnits="userSpaceOnUse"
       gradientTransform="translate(-452,-358)">
      <stop
         stop-color="white"
         id="stop1741" />
      <stop
         offset="0.705"
         stop-color="#EAEFEF"
         id="stop1742" />
    </linearGradient>
    <linearGradient
       id="paint500_linear_890_11"
       x1="480"
       y1="371.5"
       x2="480"
       y2="368.5"
       gradientUnits="userSpaceOnUse"
       gradientTransform="translate(-452,-358)">
      <stop
         offset="0.155999"
         stop-color="#71706E"
         id="stop1743" />
      <stop
         offset="0.796276"
         stop-color="#B9AA99"
         id="stop1744" />
    </linearGradient>
    <linearGradient
       id="paint501_linear_890_11"
       x1="479"
       y1="375.5"
       x2="479"
       y2="372.5"
       gradientUnits="userSpaceOnUse"
       gradientTransform="translate(-452,-358)">
      <stop
         offset="0.155999"
         stop-color="#71706E"
         id="stop1745" />
      <stop
         offset="0.796276"
         stop-color="#B9AA99"
         id="stop1746" />
    </linearGradient>
    <linearGradient
       id="paint502_linear_890_11"
       x1="511"
       y1="417"
       x2="459"
       y2="383.64755"
       gradientUnits="userSpaceOnUse"
       gradientTransform="translate(-452,-361.55289)">
      <stop
         offset="0.207424"
         stop-color="#2E2E41"
         id="stop1747"
         style="stop-color:#3e3e57;stop-opacity:1;" />
      <stop
         offset="1"
         stop-color="#566C80"
         id="stop1748" />
    </linearGradient>
    <linearGradient
       inkscape:collect="always"
       xlink:href="#linearGradient1"
       id="linearGradient2"
       x1="31"
       y1="2.9650395"
       x2="31"
       y2="30.283407"
       gradientUnits="userSpaceOnUse"
       gradientTransform="matrix(1,0,0,0.76871358,2.0970049e-7,9.1678469)" />
    <linearGradient
       inkscape:collect="always"
       xlink:href="#linearGradient3"
       id="linearGradient4"
       x1="12"
       y1="3"
       x2="12"
       y2="18.166666"
       gradientUnits="userSpaceOnUse"
       gradientTransform="matrix(1,0,0,0.92307692,0,0.67788209)" />
    <linearGradient
       inkscape:collect="always"
       xlink:href="#linearGradient5"
       id="linearGradient6"
       x1="7"
       y1="21.447113"
       x2="55"
       y2="52.447113"
       gradientUnits="userSpaceOnUse" />
  </defs>
  <g
     inkscape:label="Layer 1"
     inkscape:groupmode="layer"
     id="layer1">
    <g
       id="g1"
       transform="translate(0,1.552887)">
      <path
         d="m 7,8.0624979 c 0,-2.5486158 2.239,-4.615385 5,-4.615385 h 28 c 2.761,0 5,2.0667692 5,4.615385 V 46.831728 c 0,2.548616 -2.239,4.615385 -5,4.615385 H 12 c -2.761,0 -5,-2.066769 -5,-4.615385 z"
         id="path487"
         style="fill:url(#linearGradient4);stroke-width:0.960769" />
      <path
         d="m 17,16.443751 c 0,-2.997983 1.998655,-4.996638 5,-4.996638 h 27.999999 c 2.975797,0 4.971994,1.998655 4.974452,4.996638 l 0.02555,31.159775 c 0.0017,2.122418 -2.239,3.843568 -5,3.843568 H 22 c -2.761,0 -5,-1.72115 -5,-3.843568 z"
         id="path488"
         style="fill:url(#linearGradient2);fill-opacity:1;stroke-width:0.876763"
         sodipodi:nodetypes="sssssssss" />
      <path
         d="m 3,51.447113 v -30 c 0,-2.209 1.791,-4 4,-4 h 9 c 0.657,0 1.303,0.162 1.882,0.47 l 39,21.795 c 1.304,0.696 2.118,2.053 2.118,3.53 v 8.205 c 0,2.209 -1.791,4 -4,4 H 7 c -2.209,0 -4,-1.791 -4,-4 z"
         id="path492"
         style="fill:url(#linearGradient6)" />
    </g>
    <path
       d="m 20.274968,50.884238 c -1.174378,-0.199865 -2.838092,-0.899407 -3.81667,-1.548947 -2.250917,-1.499058 -3.724091,-3.166429 -4.634663,-5.247447 -0.293571,-0.699508 -0.467799,-1.199202 -0.97858,-2.997947 -0.09767,-0.449692 -0.264,-0.953642 -0.325194,-1.110624 -0.102766,-0.264861 -0.107905,-0.354215 -0.06238,-1.237733 0.04268,-0.799481 0.195709,-1.9986 0.293502,-2.094563 0.01376,-0.02344 0.04928,-0.0293 0.07536,-0.01222 0.09274,0.05507 0.17711,-0.20213 0.260681,-0.790079 0.04642,-0.322293 0.118043,-0.66004 0.15991,-0.75084 0.04202,-0.09135 0.113855,-0.291215 0.158725,-0.445283 0.103294,-0.354596 0.245449,-0.627161 0.683154,-1.315067 0.192493,-0.302508 0.392578,-0.632132 0.444676,-0.732236 0.06048,-0.118333 0.12822,-0.175656 0.189673,-0.163809 0.05862,0.01219 0.156885,-0.0647 0.259308,-0.202846 0.44495,-0.599781 2.541092,-2.369425 2.73507,-2.309036 0.05358,0.01564 0.274206,-0.05692 0.491567,-0.165171 0.393268,-0.194087 0.566484,-0.238856 0.566484,-0.146693 0,0.02759 -0.056,0.08669 -0.126208,0.134162 -0.12205,0.08207 -0.119597,0.0834 0.07074,0.03823 0.108121,-0.02648 0.290036,-0.06131 0.404362,-0.08049 0.14145,-0.02381 0.198795,-0.05716 0.17929,-0.107595 -0.01628,-0.0436 0.02398,-0.0867 0.100356,-0.106876 0.193338,-0.05129 0.494394,-0.04201 0.494394,0.01282 0,0.06753 -0.17218,0.135129 -0.30884,0.121878 -0.09394,-0.011 -0.09702,-7.28e-4 -0.02872,0.04603 0.07051,0.04737 0.07096,0.05654 0.0066,0.05654 -0.04388,3.62e-4 -0.06522,0.01416 -0.0484,0.03321 0.01672,0.01636 0.134765,-0.01955 0.260185,-0.0822 0.125381,-0.06204 0.355282,-0.14074 0.510659,-0.173338 0.1913,-0.03933 0.282468,-0.08659 0.282468,-0.144502 0,-0.07498 0.08942,-0.07949 0.687629,-0.04946 0.378269,0.01955 0.94903,0.07729 1.268363,0.128996 0.580528,0.09365 0.580571,0.09365 0.796965,-0.02992 0.259459,-0.14636 0.676946,-0.165363 0.786636,-0.03494 0.03948,0.04812 0.150561,0.125472 0.245449,0.173514 0.154767,0.07767 0.164979,0.07791 0.09879,0.0012 -0.12429,-0.146793 -0.0012,-0.143119 0.478876,0.01356 1.546843,0.507638 2.807802,1.411764 3.743481,2.684034 0.221883,0.301776 0.235412,0.437416 0.02596,0.253831 l -0.120263,-0.104386 0.0924,0.176049 c 0.05126,0.09797 0.09262,0.205749 0.09262,0.241786 0,0.0353 0.148764,0.303522 0.330606,0.594101 0.409775,0.654979 0.524339,0.875517 0.49681,0.956437 -0.012,0.03371 -0.193239,-0.195982 -0.40333,-0.512577 -0.210048,-0.316537 -0.520976,-0.743182 -0.690818,-0.947893 -0.253641,-0.305761 -0.320068,-0.358058 -0.371834,-0.29263 -0.03398,0.04372 -0.11935,0.08732 -0.188122,0.09733 l -0.12513,0.01683 0.123797,0.237737 c 0.06876,0.130803 0.13276,0.211209 0.143827,0.178761 0.05874,-0.173622 0.334137,0.05483 0.459231,0.381226 0.03994,0.105285 0.148368,0.323936 0.23958,0.484551 0.09196,0.160646 0.154431,0.303347 0.14034,0.317062 -0.0132,0.01282 -0.09702,-0.03125 -0.184854,-0.0981 l -0.159327,-0.122791 0.108791,0.182794 c 0.05918,0.0995 0.159798,0.22348 0.222345,0.273292 0.07711,0.06131 0.115525,0.160262 0.118877,0.312795 0.0088,0.281659 0.171151,0.614417 0.260605,0.526721 0.139556,-0.136741 0.168178,-0.05201 0.133121,0.396399 -0.02674,0.329803 -0.01199,0.547119 0.04972,0.777852 0.09394,0.350432 0.07385,0.436865 -0.06281,0.273115 -0.08668,-0.103906 -0.08778,-0.103548 -0.04928,0.0048 0.08254,0.231712 0.145291,0.578165 0.127998,0.714207 -0.03189,0.253856 -0.129505,0.148344 -0.16289,-0.176747 l -0.03222,-0.317406 -0.01201,0.337675 c -0.0066,0.185774 -0.05038,0.544764 -0.09836,0.79769 -0.05038,0.255556 -0.07546,0.565022 -0.05588,0.696489 0.03312,0.247358 0.01201,0.256968 -0.200985,0.07877 -0.0857,-0.07266 -0.100216,-0.05679 -0.159608,0.157119 -0.05026,0.180574 -0.04982,0.283287 0.0022,0.434523 0.03608,0.108928 0.05742,0.256774 0.04828,0.328351 -0.0252,0.165379 -0.159754,0.216938 -0.159754,0.06008 0,-0.196078 -0.07579,-0.126265 -0.308663,0.283076 -0.628215,1.105377 -1.622193,1.960866 -2.747051,2.364358 -0.663282,0.237928 -1.108067,0.326137 -1.856009,0.368085 l -0.673567,0.03713 0.332775,0.09985 c 0.268434,0.08049 0.425933,0.09367 0.813894,0.06179 0.508326,-0.03944 1.105135,-0.148303 1.375746,-0.249153 0.108126,-0.03944 0.180951,-0.04163 0.21832,-0.0075 0.08834,0.08585 -0.69375,0.425277 -1.15787,0.502093 -0.789673,0.130779 -1.846603,-0.0122 -2.779638,-0.371517 -0.633032,-0.244941 -1.572453,-0.882844 -1.428493,-0.969952 0.02772,-0.01586 0.205966,0.06706 0.397168,0.185282 0.244258,0.151443 0.347525,0.19128 0.347525,0.134257 0,-0.107474 0.03542,-0.102056 0.230309,0.03284 0.175287,0.122267 0.714543,0.349512 1.102944,0.464629 0.423305,0.125464 0.259108,-0.02737 -0.30878,-0.286109 -1.795786,-0.82042 -2.541272,-1.640982 -2.912787,-3.206133 -0.13625,-0.573961 0.01197,-1.832231 0.258201,-2.226269 0.06265,-0.09927 0.114807,-0.22264 0.114807,-0.272898 0,-0.217988 0.370979,-0.793989 0.751582,-1.166995 0.670774,-0.657263 1.368093,-0.930152 2.273341,-0.889524 0.437617,0.01918 0.624507,0.05654 0.988698,0.199451 0.413,0.161199 0.933235,0.498688 0.773931,0.502149 -0.03684,7.26e-4 -0.201728,-0.05376 -0.364915,-0.119923 -0.24816,-0.100533 -0.407221,-0.121633 -0.970328,-0.123754 -0.790817,-0.0037 -1.177405,0.106466 -1.740268,0.494996 -0.797845,0.550183 -1.241589,1.183864 -1.398735,1.997693 -0.105177,0.546031 -0.108683,0.697391 -0.02738,1.239037 0.04828,0.312157 0.08052,0.40375 0.140373,0.381497 0.05048,-0.01796 0.077,0.011 0.077,0.07633 0,0.193474 0.429521,0.978202 0.72749,1.328982 0.716941,0.844363 1.876843,1.383238 2.977313,1.383238 0.571214,0 1.032929,-0.107113 1.457885,-0.339229 0.170712,-0.09378 0.386125,-0.206877 0.478746,-0.252914 0.326811,-0.162348 0.529543,-0.347731 0.766572,-0.701078 0.131745,-0.196399 0.27509,-0.357097 0.318387,-0.357097 0.06392,0 0.06048,0.02895 -0.01408,0.151337 -0.250529,0.405189 0.337534,-0.331624 0.641984,-0.804471 l 0.341072,-0.529547 -0.03663,-0.347879 c -0.03498,-0.334285 -0.03091,-0.35468 0.132716,-0.522531 0.1572,-0.16172 0.171259,-0.209579 0.189421,-0.641796 0.01574,-0.386805 0.0066,-0.467114 -0.06458,-0.467552 -0.06478,-3.63e-4 -0.09318,-0.101593 -0.120481,-0.440619 -0.03628,-0.447748 -0.40895,-1.954525 -0.495567,-2.006961 -0.02674,-0.01529 -0.09814,-0.160739 -0.161206,-0.321968 -0.211005,-0.544184 -0.581141,-1.06743 -1.158133,-1.637483 -0.830295,-0.820205 -1.876173,-1.453546 -2.864167,-1.734426 -0.840357,-0.238864 -2.267377,-0.152169 -3.283804,0.199576 -0.496115,0.171644 -0.984883,0.398912 -1.067361,0.496289 -0.03674,0.04421 -0.0923,0.06606 -0.120582,0.04936 -0.03092,-0.0176 -0.02212,-0.06815 0.01958,-0.117606 0.187242,-0.221115 -0.434152,0.183561 -0.834159,0.543222 -0.241828,0.217442 -0.448523,0.401978 -0.459303,0.410059 -0.01204,0.0099 0.03564,3.65e-4 0.104137,-0.01637 0.113985,-0.02983 0.118405,-0.02123 0.05599,0.09233 -0.03872,0.07291 -0.245267,0.20243 -0.497536,0.314581 -0.423753,0.188365 -0.697919,0.395436 -0.915731,0.69164 -0.08702,0.118583 -0.09252,0.143799 -0.02354,0.118218 0.04918,-0.01735 0.08811,-0.0086 0.08811,0.02601 0,0.157157 -0.145553,0.332521 -0.361342,0.435215 -0.477998,0.227625 -1.317843,1.443262 -1.767733,2.558972 -0.200467,0.497159 -0.19718,0.479889 -0.08878,0.479889 0.115172,0 0.106835,0.127882 -0.0518,0.814675 -0.229826,1.000453 -0.23012,0.968405 0.01992,2.375873 0.304999,1.71488 0.483246,2.287733 0.821982,2.642694 0.07876,0.08243 0.156774,0.260351 0.191214,0.43833 0.04069,0.212469 0.110385,0.352689 0.239364,0.48617 0.117797,0.121636 0.157057,0.196248 0.112065,0.212437 -0.08932,0.03247 0.189138,0.437794 0.442678,0.646886 0.127567,0.104691 0.222136,0.140541 0.324556,0.121265 0.224403,-0.04164 0.452906,0.08389 0.804061,0.445745 0.36493,0.375297 0.401481,0.476149 0.160008,0.441451 -0.15576,-0.02247 -0.159326,-0.01744 -0.08196,0.09744 0.04434,0.06595 0.206712,0.22445 0.361503,0.352225 0.217321,0.179581 0.273276,0.257247 0.245889,0.341384 -0.03841,0.121138 0.0736,0.234155 0.32571,0.328979 0.156926,0.05801 0.207561,0.18554 0.09008,0.22417 -0.03487,0.01217 0.185296,0.234543 0.491185,0.49539 0.344643,0.293808 0.576371,0.454941 0.609493,0.423404 0.08756,-0.08231 0.199012,-0.05679 0.201048,0.04579 0.0022,0.112843 0.100883,0.230993 0.457735,0.546647 0.225204,0.19944 0.281385,0.224608 0.419409,0.187362 0.126534,-0.03409 0.206066,-0.01222 0.384048,0.105165 0.35517,0.235316 0.570552,0.329194 0.755088,0.329194 0.181391,0 0.207242,0.05174 0.113268,0.223701 -0.0506,0.09209 -0.0384,0.105868 0.07546,0.105868 0.07424,0 0.280358,0.05019 0.459868,0.110033 0.407948,0.137609 0.578177,0.146939 0.476019,0.027 -0.151086,-0.178361 0.011,-0.129629 0.548912,0.167003 0.754275,0.414566 1.135835,0.461852 2.637852,0.327385 0.222311,-0.0194 0.294669,-0.0099 0.294669,0.04812 0,0.0486 -0.192974,0.11968 -0.547306,0.203386 -0.465854,0.110529 -0.714477,0.131853 -1.670008,0.143525 -0.752937,0.011 -1.267323,-0.01221 -1.561704,-0.06033 z M 19.507129,42.63777 c 0,-0.01223 -0.07018,-0.06193 -0.154407,-0.113456 l -0.154338,-0.09295 0.132482,0.113443 c 0.12932,0.110646 0.176263,0.13508 0.176263,0.09268 z m 7.728724,-5.7651 c -0.01704,-0.04384 -0.03146,-0.0314 -0.033,0.03284 -0.0034,0.05703 0.01199,0.09099 0.03036,0.0729 0.01804,-0.01744 0.02046,-0.0657 0.0044,-0.104924 z M 14.497184,31.103381 c 0.0704,-0.08708 0.06854,-0.08952 -0.02112,-0.02053 -0.05391,0.04102 -0.09766,0.08415 -0.09766,0.0972 0,0.04555 0.04676,0.01564 0.119356,-0.07572 z m 0.638331,-0.508902 c 0.05578,-0.05997 0.08954,-0.11004 0.07469,-0.11004 -0.01496,0 -0.07469,0.05032 -0.129725,0.11004 -0.055,0.05997 -0.08954,0.110027 -0.07414,0.110027 0.01496,0 0.07469,-0.05019 0.129656,-0.110027 z m 0.70664,-0.386641 c 0.185106,-0.06058 0.290267,-0.07292 0.32923,-0.03409 0.03828,0.03774 0.183733,0.01502 0.453268,-0.07169 0.217778,-0.07083 0.385975,-0.137028 0.373844,-0.149007 -0.01221,-0.0122 -0.191589,0.03336 -0.398519,0.100532 -0.284221,0.09368 -0.386532,0.106466 -0.41816,0.05595 -0.05358,-0.08426 -0.564324,0.08182 -0.783939,0.256931 l -0.150084,0.119437 0.161283,-0.0955 c 0.0892,-0.05311 0.283614,-0.13548 0.433077,-0.185073 z m 1.618271,-0.139743 c 0.163106,-0.04823 0.286684,-0.09673 0.274948,-0.107126 -0.02718,-0.02648 -0.606973,0.137361 -0.606973,0.170434 0,0.03321 0.0066,0.03212 0.332025,-0.06217 z m 0.93089,-0.299801 0.224601,-0.03933 -0.196505,-0.0062 c -0.108126,-0.0037 -0.259558,0.03274 -0.336728,0.07864 -0.09162,0.05472 -0.100356,0.07135 -0.02872,0.04531 0.06104,-0.02149 0.213298,-0.05641 0.336801,-0.07839 z m 0.445858,-0.103433 c 0.01651,-0.02796 -0.01863,-0.03614 -0.0802,-0.02088 -0.131132,0.03346 -0.147759,0.07169 -0.03186,0.07169 0.04488,0 0.09538,-0.02259 0.112531,-0.0508 z m 1.812426,0.01601 c -0.01804,-0.01745 -0.06754,-0.0198 -0.107586,-0.0048 -0.04519,0.0166 -0.03146,0.03115 0.03366,0.0331 0.05862,0.0025 0.09284,-0.01223 0.07384,-0.02959 z m -0.335589,-0.0591 c -0.05412,-0.01282 -0.142476,-0.01282 -0.196516,0 -0.05412,0.01294 -0.01199,0.02591 0.09799,0.02591 0.108127,0 0.152232,-0.0122 0.09745,-0.02591 z m -0.559828,-0.05593 c -0.115293,-0.0122 -0.317075,-0.0122 -0.44918,-3.63e-4 -0.131929,0.0122 -0.03729,0.02114 0.209041,0.02135 0.247061,1.81e-4 0.355041,-0.011 0.240139,-0.02088 z m -0.732439,-0.04922 c -0.01804,-0.01745 -0.06754,-0.01991 -0.107584,-0.0048 -0.04521,0.01661 -0.03191,0.03162 0.03322,0.03284 0.05862,0.0025 0.09306,-0.01223 0.07436,-0.02958 z m -0.380007,13.221951 c -0.57174,-0.401488 -0.783569,-0.609156 -0.783569,-0.768174 0,-0.08354 0.01902,-0.153393 0.04322,-0.153393 0.07998,0 1.036857,0.977854 1.01588,1.039292 -0.01196,0.03454 -0.127463,-0.01272 -0.275535,-0.117967 z m -0.294201,-1.01934 c -0.296943,-0.29407 -0.392106,-0.452276 -0.272073,-0.452276 0.07294,0 0.624659,0.619988 0.624659,0.700953 0,0.03737 -0.0088,0.06997 -0.01518,0.06997 -0.011,0 -0.160172,-0.143036 -0.336736,-0.317812 z m 3.285635,-1.203816 c -0.156764,-0.06106 -0.05842,-0.176907 0.196483,-0.230494 0.146646,-0.03202 0.379628,-0.105167 0.51782,-0.166436 0.138226,-0.05997 0.261291,-0.09985 0.273419,-0.08866 0.01232,0.0122 -0.05116,0.134212 -0.138944,0.271635 -0.160173,0.248417 -0.163021,0.249984 -0.46986,0.245779 -0.169841,-0.0025 -0.340342,-0.01549 -0.378918,-0.03237 z m 1.683988,-1.230554 c -0.151488,-0.05911 -0.157826,-0.161183 -0.03146,-0.507023 0.108669,-0.297114 0.221359,-0.355741 0.158635,-0.08206 -0.02288,0.09844 -0.0528,0.240787 -0.06742,0.316348 l -0.02684,0.137603 0.112422,-0.12519 c 0.06678,-0.07499 0.127778,-0.248001 0.150491,-0.425799 0.0209,-0.165284 0.05984,-0.28685 0.08856,-0.270407 0.07018,0.04164 0.06148,0.477063 -0.01232,0.769492 -0.06589,0.255407 -0.124724,0.285233 -0.372298,0.187606 z M 10.03336,38.594416 C 10.01532,38.545666 10,38.358829 10,38.177343 c 0,-0.239614 0.01868,-0.323913 0.07092,-0.307449 0.08272,0.02796 0.132396,0.811595 0.05148,0.811595 -0.02982,0 -0.06864,-0.03844 -0.0868,-0.08683 z M 23.537714,37.3078 c -0.08744,-0.115895 -0.114327,-0.206892 -0.09009,-0.303456 0.05175,-0.198412 0.183701,-0.17025 0.281801,0.05911 0.152472,0.357605 0.01991,0.525319 -0.19245,0.243573 z M 10.021871,36.434678 c -0.0048,-0.311949 -3.5e-5,-0.321621 0.140807,-0.316333 0.119484,0.0048 0.148358,0.03468 0.162054,0.173411 0.01496,0.155684 -0.157279,0.464626 -0.259846,0.464626 -0.02112,0 -0.04005,-0.144907 -0.04304,-0.321704 z M 24.572516,29.67212 c 0.01005,-0.492295 0.09306,-0.659055 0.158422,-0.314438 0.04664,0.240181 -0.012,0.664255 -0.1012,0.736869 -0.04906,0.03848 -0.06248,-0.06839 -0.056,-0.422431 z M 17.196601,29.377243 C 17.219481,29.310813 17.993491,29 18.136314,29 c 0.167861,0 -0.133176,0.201401 -0.480433,0.321667 -0.387231,0.133833 -0.490267,0.14622 -0.45928,0.05558 z"
       id="path7225-4-2-3"
       style="fill:#f9f9f9;fill-opacity:0.498869;stroke-width:1.1" />
  </g>
</svg>
