<?xml version="1.0" encoding="UTF-8" standalone="no"?>
<svg
   id="svg2"
   height="62"
   version="1.1"
   width="62"
   sodipodi:docname="plasmavault.svg"
   inkscape:version="1.4 (e7c3feb100, 2024-10-09)"
   xmlns:inkscape="http://www.inkscape.org/namespaces/inkscape"
   xmlns:sodipodi="http://sodipodi.sourceforge.net/DTD/sodipodi-0.dtd"
   xmlns:xlink="http://www.w3.org/1999/xlink"
   xmlns="http://www.w3.org/2000/svg"
   xmlns:svg="http://www.w3.org/2000/svg"
   xmlns:rdf="http://www.w3.org/1999/02/22-rdf-syntax-ns#"
   xmlns:cc="http://creativecommons.org/ns#"
   xmlns:dc="http://purl.org/dc/elements/1.1/">
  <sodipodi:namedview
     pagecolor="#ffffff"
     bordercolor="#666666"
     borderopacity="1"
     objecttolerance="10"
     gridtolerance="10"
     guidetolerance="10"
     inkscape:pageopacity="0"
     inkscape:pageshadow="2"
     inkscape:window-width="1920"
     inkscape:window-height="994"
     id="namedview40"
     showgrid="false"
     inkscape:zoom="7.9999996"
     inkscape:cx="27.312501"
     inkscape:cy="32.875001"
     inkscape:window-x="0"
     inkscape:window-y="0"
     inkscape:window-maximized="1"
     inkscape:current-layer="g5881"
     inkscape:showpageshadow="2"
     inkscape:pagecheckerboard="0"
     inkscape:deskcolor="#d1d1d1">
    <inkscape:grid
       id="grid1"
       units="px"
       originx="0"
       originy="0"
       spacingx="1"
       spacingy="1"
       empcolor="#0099e5"
       empopacity="0.30196078"
       color="#0099e5"
       opacity="0.14901961"
       empspacing="5"
       enabled="true"
       visible="false" />
  </sodipodi:namedview>
  <defs
     id="defs5455">
    <linearGradient
       id="linearGradient11"
       inkscape:collect="always">
      <stop
         style="stop-color:#f0f3f4;stop-opacity:1;"
         offset="0"
         id="stop11" />
      <stop
         style="stop-color:#b7c6cd;stop-opacity:1;"
         offset="1"
         id="stop12" />
    </linearGradient>
    <linearGradient
       id="linearGradient10"
       inkscape:collect="always">
      <stop
         style="stop-color:#566c80;stop-opacity:1;"
         offset="0"
         id="stop8" />
      <stop
         style="stop-color:#323c4a;stop-opacity:1;"
         offset="0.75882953"
         id="stop9" />
      <stop
         style="stop-color:#323e4b;stop-opacity:1;"
         offset="1"
         id="stop10" />
    </linearGradient>
    <linearGradient
       id="linearGradient3"
       inkscape:collect="always">
      <stop
         style="stop-color:#566c80;stop-opacity:1;"
         offset="0"
         id="stop4" />
      <stop
         style="stop-color:#2b3440;stop-opacity:1;"
         offset="0.75882953"
         id="stop6" />
      <stop
         style="stop-color:#29333d;stop-opacity:1;"
         offset="1"
         id="stop5" />
    </linearGradient>
    <linearGradient
       id="linearGradient1"
       inkscape:collect="always">
      <stop
         style="stop-color:#0ce17a;stop-opacity:1;"
         offset="0"
         id="stop1" />
      <stop
         style="stop-color:#09b05f;stop-opacity:1;"
         offset="0.67168474"
         id="stop3" />
      <stop
         style="stop-color:#089953;stop-opacity:1;"
         offset="1"
         id="stop2" />
    </linearGradient>
    <linearGradient
       id="linearGradient4172-5">
      <stop
         id="stop4174-6"
         style="stop-color:#3e3e3e" />
      <stop
         id="stop4176-6"
         style="stop-color:#494949"
         offset="1" />
    </linearGradient>
    <linearGradient
       gradientTransform="matrix(1,0,0,0.99967455,0,0.176455)"
       x2="0"
       gradientUnits="userSpaceOnUse"
       y2="499.78421"
       y1="541.79797"
       xlink:href="#linearGradient4172-5"
       id="linearGradient4178-3-3-1" />
    <linearGradient
       gradientTransform="matrix(1.3864587,0,0,1.3864587,-27.204389,7.4029791)"
       id="b-5"
       y1="45.538715"
       y2="11.687484"
       x2="17.84823"
       gradientUnits="userSpaceOnUse"
       x1="36.312538">
      <stop
         stop-color="#536161"
         id="stop12-6"
         style="stop-color:#bfc9c9;stop-opacity:1" />
      <stop
         offset="1"
         stop-color="#f4f5f5"
         id="stop14-2"
         style="stop-color:#fbfbfb;stop-opacity:1" />
    </linearGradient>
    <linearGradient
       id="c-7"
       y1="527.01447"
       x1="406.50085"
       y2="539.82538"
       x2="419.97357"
       gradientUnits="userSpaceOnUse"
       gradientTransform="matrix(1.3864587,0,0,1.3864587,-540.60244,-686.30462)">
      <stop
         stop-color="#292c2f"
         id="stop17-5" />
      <stop
         offset="1"
         stop-opacity="0"
         id="stop19-3" />
    </linearGradient>
    <linearGradient
       id="c-7-3"
       y1="527.01447"
       x1="406.50085"
       y2="539.82538"
       x2="419.97357"
       gradientUnits="userSpaceOnUse"
       gradientTransform="matrix(1.0039873,0,0,1.0039873,122.55512,-58.87445)">
      <stop
         stop-color="#292c2f"
         id="stop17-5-6" />
      <stop
         offset="1"
         stop-opacity="0"
         id="stop19-3-7" />
    </linearGradient>
    <linearGradient
       gradientTransform="matrix(1.049963,0,0,1.0499041,-966.55642,-86.13977)"
       gradientUnits="userSpaceOnUse"
       x2="426.69501"
       y2="499.92099"
       y1="547.67499"
       id="a-6"
       x1="389.32001">
      <stop
         stop-color="#18222a"
         style="stop-color:#1e2b35;stop-opacity:1"
         id="stop216" />
      <stop
         stop-color="#566069"
         offset="1"
         style="stop-color:#6d7983;stop-opacity:1"
         id="stop218" />
    </linearGradient>
    <linearGradient
       id="a-6-3"
       y1="543.79999"
       y2="503.79999"
       x2="0"
       gradientUnits="userSpaceOnUse">
      <stop
         stop-color="#a1adb3"
         id="stop2-7" />
      <stop
         offset="1"
         stop-color="#bfc7cb"
         id="stop4-5" />
    </linearGradient>
    <linearGradient
       xlink:href="#a-6-3"
       id="b-3"
       y1="537.79999"
       y2="509.79999"
       x2="0"
       gradientUnits="userSpaceOnUse"
       gradientTransform="matrix(1.0499997,0,0,1.0499997,17.57304,-962.78785)" />
    <linearGradient
       id="linearGradient482"
       y1="543.79999"
       y2="503.79999"
       x2="0"
       gradientUnits="userSpaceOnUse">
      <stop
         stop-color="#a1adb3"
         id="stop478" />
      <stop
         offset="1"
         stop-color="#bfc7cb"
         id="stop480" />
    </linearGradient>
    <linearGradient
       id="paint3_linear"
       x1="69.25"
       y1="28.75"
       x2="75.501099"
       y2="35.5"
       gradientUnits="userSpaceOnUse"
       gradientTransform="matrix(0.642,0,0,0.642,-67.471,-33.235)">
      <stop
         id="stop67" />
      <stop
         offset="1"
         stop-opacity="0"
         id="stop69" />
    </linearGradient>
    <linearGradient
       id="paint481_linear_890_11"
       x1="806.65198"
       y1="373.082"
       x2="773.34003"
       y2="350.104"
       gradientUnits="userSpaceOnUse">
      <stop
         offset="0.423361"
         stop-color="#089953"
         id="stop1705" />
      <stop
         offset="1"
         stop-color="#16D96F"
         id="stop1706" />
    </linearGradient>
    <linearGradient
       id="paint482_linear_890_11"
       x1="763"
       y1="367"
       x2="784.17603"
       y2="402.29401"
       gradientUnits="userSpaceOnUse">
      <stop
         stop-color="white"
         id="stop1707" />
      <stop
         offset="0.705"
         stop-color="#EAEFEF"
         id="stop1708" />
    </linearGradient>
    <linearGradient
       id="paint483_linear_890_11"
       x1="809"
       y1="417"
       x2="773.23102"
       y2="366.17099"
       gradientUnits="userSpaceOnUse">
      <stop
         offset="0.266972"
         stop-color="#2E2E41"
         id="stop1709" />
      <stop
         offset="1"
         stop-color="#566C80"
         id="stop1710" />
    </linearGradient>
    <linearGradient
       id="paint484_linear_890_11"
       x1="809.69598"
       y1="404"
       x2="809.69598"
       y2="390"
       gradientUnits="userSpaceOnUse">
      <stop
         offset="0.340681"
         stop-color="#2E2E41"
         id="stop1711" />
      <stop
         offset="1"
         stop-color="#566C80"
         id="stop1712"
         style="stop-color:#566c80;stop-opacity:1;" />
    </linearGradient>
    <linearGradient
       id="paint485_linear_890_11"
       x1="798"
       y1="400"
       x2="798"
       y2="394"
       gradientUnits="userSpaceOnUse">
      <stop
         stop-color="#71706E"
         id="stop1713" />
      <stop
         offset="1"
         stop-color="#B9AA99"
         id="stop1714" />
    </linearGradient>
    <linearGradient
       inkscape:collect="always"
       xlink:href="#linearGradient1"
       id="linearGradient2"
       x1="775.50012"
       y1="348.875"
       x2="808.99986"
       y2="379"
       gradientUnits="userSpaceOnUse" />
    <linearGradient
       inkscape:collect="always"
       xlink:href="#linearGradient3"
       id="linearGradient5"
       x1="771.5"
       y1="361.00012"
       x2="811.5"
       y2="416.25"
       gradientUnits="userSpaceOnUse" />
    <linearGradient
       inkscape:collect="always"
       xlink:href="#linearGradient10"
       id="linearGradient8"
       x1="791"
       y1="397"
       x2="811"
       y2="397"
       gradientUnits="userSpaceOnUse" />
    <linearGradient
       inkscape:collect="always"
       xlink:href="#linearGradient11"
       id="linearGradient12"
       x1="795"
       y1="397"
       x2="801"
       y2="397"
       gradientUnits="userSpaceOnUse" />
    <linearGradient
       inkscape:collect="always"
       xlink:href="#linearGradient11"
       id="linearGradient14"
       x1="770.25018"
       y1="366.99973"
       x2="804.37482"
       y2="391.75"
       gradientUnits="userSpaceOnUse" />
  </defs>
  <metadata
     id="metadata5458">
    <rdf:RDF>
      <cc:Work
         rdf:about="">
        <dc:format>image/svg+xml</dc:format>
        <dc:type
           rdf:resource="http://purl.org/dc/dcmitype/StillImage" />
      </cc:Work>
    </rdf:RDF>
  </metadata>
  <g
     id="g5881"
     transform="translate(-418.57144,-384.798)">
    <g
       id="g2272"
       transform="translate(-333.42856,26.797942)">
      <path
         d="m 757.165,378.398 c -0.603,-1.801 0.5,-3.781 2.463,-4.422 l 39.102,-12.774 c 1.963,-0.642 4.043,0.298 4.646,2.099 l 5.459,16.301 c 0.603,1.801 -0.5,3.781 -2.463,4.422 l -39.102,12.774 c -1.963,0.642 -4.043,-0.298 -4.646,-2.099 z"
         id="path471"
         style="fill:url(#linearGradient2)" />
      <path
         fill-rule="evenodd"
         clip-rule="evenodd"
         d="m 765.624,377.429 c 0.52,1.524 -0.333,3.168 -1.905,3.672 -0.472,0.151 -0.839,0.627 -0.682,1.084 l 1.977,5.796 c 0.156,0.457 0.743,0.627 1.215,0.476 1.572,-0.504 3.268,0.323 3.788,1.846 0.156,0.458 0.647,0.813 1.119,0.662 l 28.749,-9.217 c 0.472,-0.151 0.647,-0.72 0.491,-1.177 -0.52,-1.524 0.333,-3.168 1.905,-3.672 0.472,-0.151 0.839,-0.627 0.682,-1.084 l -1.977,-5.796 c -0.156,-0.457 -0.743,-0.627 -1.215,-0.476 -1.572,0.504 -3.268,-0.323 -3.788,-1.846 -0.156,-0.458 -0.647,-0.813 -1.119,-0.662 l -28.749,9.217 c -0.472,0.151 -0.647,0.72 -0.491,1.177 z m 29.388,-0.24 c 1.048,-0.336 1.617,-1.431 1.27,-2.447 -0.346,-1.016 -1.477,-1.567 -2.525,-1.231 -1.048,0.336 -1.616,1.432 -1.27,2.448 0.347,1.015 1.477,1.566 2.525,1.23 z m -21.499,4.852 c 0.346,1.016 -0.222,2.112 -1.27,2.448 -1.048,0.336 -2.179,-0.215 -2.525,-1.231 -0.347,-1.016 0.222,-2.111 1.27,-2.447 1.048,-0.336 2.178,0.215 2.525,1.23 z m 10.742,0.637 c 2.096,-0.672 3.233,-2.863 2.54,-4.895 -0.693,-2.031 -2.954,-3.133 -5.05,-2.461 -2.096,0.672 -3.233,2.863 -2.54,4.895 0.693,2.031 2.954,3.133 5.05,2.461 z"
         id="path472"
         style="fill:url(#linearGradient14)" />
      <path
         d="m 755,385 c 0,-3.314 2.686,-6 6,-6 h 42 c 3.314,0 6,2.686 6,6 v 26 c 0,3.314 -2.686,6 -6,6 h -42 c -3.314,0 -6,-2.686 -6,-6 z"
         id="path473"
         style="fill:url(#linearGradient5)" />
      <path
         d="m 791,397 c 0,-3.866 3.134,-7 7,-7 h 11 c 1.105,0 2,0.895 2,2 v 10 c 0,1.105 -0.895,2 -2,2 h -11 c -3.866,0 -7,-3.134 -7,-7 z"
         id="path474"
         style="fill:url(#linearGradient8)" />
      <path
         d="m 798,400 c 1.657,0 3,-1.343 3,-3 0,-1.657 -1.343,-3 -3,-3 -1.657,0 -3,1.343 -3,3 0,1.657 1.343,3 3,3 z"
         id="path475"
         style="fill:url(#linearGradient12)" />
    </g>
  </g>
</svg>
