<?xml version="1.0" encoding="UTF-8" standalone="no"?>
<!-- Created with Inkscape (http://www.inkscape.org/) -->

<svg
   width="62"
   height="62"
   viewBox="0 0 62 62"
   version="1.1"
   id="svg1"
   inkscape:version="1.4 (e7c3feb100, 2024-10-09)"
   sodipodi:docname="folder-flatpak.svg"
   xmlns:inkscape="http://www.inkscape.org/namespaces/inkscape"
   xmlns:sodipodi="http://sodipodi.sourceforge.net/DTD/sodipodi-0.dtd"
   xmlns:xlink="http://www.w3.org/1999/xlink"
   xmlns="http://www.w3.org/2000/svg"
   xmlns:svg="http://www.w3.org/2000/svg">
  <sodipodi:namedview
     id="namedview1"
     pagecolor="#ffffff"
     bordercolor="#000000"
     borderopacity="0.25"
     inkscape:showpageshadow="2"
     inkscape:pageopacity="0.0"
     inkscape:pagecheckerboard="0"
     inkscape:deskcolor="#d1d1d1"
     inkscape:document-units="px"
     inkscape:zoom="10.74725"
     inkscape:cx="30.0542"
     inkscape:cy="53.12987"
     inkscape:window-width="1920"
     inkscape:window-height="994"
     inkscape:window-x="0"
     inkscape:window-y="0"
     inkscape:window-maximized="1"
     inkscape:current-layer="layer1"
     showgrid="true">
    <inkscape:grid
       id="grid1"
       units="px"
       originx="0"
       originy="0"
       spacingx="1"
       spacingy="1"
       empcolor="#0099e5"
       empopacity="0.30196078"
       color="#0099e5"
       opacity="0.14901961"
       empspacing="5"
       enabled="true"
       visible="true" />
  </sodipodi:namedview>
  <defs
     id="defs1">
    <linearGradient
       id="linearGradient5"
       inkscape:collect="always">
      <stop
         style="stop-color:#566c80;stop-opacity:1;"
         offset="0"
         id="stop5" />
      <stop
         style="stop-color:#323f4b;stop-opacity:1;"
         offset="0.7836225"
         id="stop7" />
      <stop
         style="stop-color:#29333d;stop-opacity:1;"
         offset="1"
         id="stop6" />
    </linearGradient>
    <linearGradient
       id="linearGradient3"
       inkscape:collect="always">
      <stop
         style="stop-color:#b89be3;stop-opacity:1;"
         offset="0"
         id="stop3" />
      <stop
         style="stop-color:#422277;stop-opacity:1;"
         offset="1"
         id="stop4" />
    </linearGradient>
    <linearGradient
       id="linearGradient1"
       inkscape:collect="always">
      <stop
         style="stop-color:#80b2ff;stop-opacity:1;"
         offset="0"
         id="stop1" />
      <stop
         style="stop-color:#007a99;stop-opacity:1;"
         offset="1"
         id="stop2" />
    </linearGradient>
    <radialGradient
       id="paint664_radial_890_11"
       cx="0"
       cy="0"
       r="1"
       gradientUnits="userSpaceOnUse"
       gradientTransform="matrix(-16.000099,-9.999913,9.999913,-16.000099,583,171)">
      <stop
         offset="0.42141"
         stop-color="#B7C6CD"
         id="stop2071" />
      <stop
         offset="1"
         stop-color="#EFF2F6"
         id="stop2072" />
    </radialGradient>
    <linearGradient
       id="paint665_linear_890_11"
       x1="605"
       y1="180"
       x2="601.466"
       y2="162.72301"
       gradientUnits="userSpaceOnUse">
      <stop
         stop-color="#5200FF"
         id="stop2073" />
      <stop
         offset="1"
         stop-color="#0085FF"
         id="stop2074" />
    </linearGradient>
    <linearGradient
       id="paint666_linear_890_11"
       x1="567"
       y1="181"
       x2="562.11798"
       y2="174.183"
       gradientUnits="userSpaceOnUse">
      <stop
         stop-color="#5200FF"
         id="stop2075" />
      <stop
         offset="0.670391"
         stop-color="#0085FF"
         id="stop2076" />
    </linearGradient>
    <linearGradient
       id="paint667_linear_890_11"
       x1="605"
       y1="180"
       x2="597.32001"
       y2="174.24001"
       gradientUnits="userSpaceOnUse">
      <stop
         stop-color="#5200FF"
         id="stop2077" />
      <stop
         offset="1"
         stop-color="#0085FF"
         id="stop2078" />
    </linearGradient>
    <linearGradient
       id="paint668_linear_890_11"
       x1="567"
       y1="180"
       x2="561.23999"
       y2="172.32001"
       gradientUnits="userSpaceOnUse">
      <stop
         stop-color="#5200FF"
         id="stop2079" />
      <stop
         offset="1"
         stop-color="#0085FF"
         id="stop2080" />
    </linearGradient>
    <linearGradient
       id="paint669_linear_890_11"
       x1="607"
       y1="179"
       x2="602.50598"
       y2="171.80901"
       gradientUnits="userSpaceOnUse">
      <stop
         stop-color="#5200FF"
         id="stop2081" />
      <stop
         offset="1"
         stop-color="#0085FF"
         id="stop2082" />
    </linearGradient>
    <linearGradient
       id="paint670_linear_890_11"
       x1="607"
       y1="217"
       x2="568.82599"
       y2="170.01601"
       gradientUnits="userSpaceOnUse">
      <stop
         stop-color="#5200FF"
         id="stop2083" />
      <stop
         offset="1"
         stop-color="#0085FF"
         id="stop2084" />
    </linearGradient>
    <radialGradient
       id="paint671_radial_890_11"
       cx="0"
       cy="0"
       r="1"
       gradientUnits="userSpaceOnUse"
       gradientTransform="matrix(0,20,-16,0,583,187)">
      <stop
         offset="0.869716"
         stop-color="#EFF2F6"
         id="stop2085" />
      <stop
         offset="1"
         stop-color="#B7C6CD"
         id="stop2086" />
    </radialGradient>
    <linearGradient
       id="paint497_linear_890_11"
       x1="497"
       y1="413"
       x2="447.457"
       y2="376.79599"
       gradientUnits="userSpaceOnUse"
       gradientTransform="translate(-452,-358)">
      <stop
         offset="0.636456"
         stop-color="#71706E"
         id="stop1737" />
      <stop
         offset="1"
         stop-color="#B9AA99"
         id="stop1738" />
    </linearGradient>
    <linearGradient
       id="paint498_linear_890_11"
       x1="507"
       y1="413"
       x2="457.457"
       y2="376.79599"
       gradientUnits="userSpaceOnUse"
       gradientTransform="translate(-452,-358)">
      <stop
         offset="0.544933"
         stop-color="#FF7E07"
         id="stop1739" />
      <stop
         offset="1"
         stop-color="#FFE607"
         id="stop1740" />
    </linearGradient>
    <linearGradient
       id="paint499_linear_890_11"
       x1="473"
       y1="365"
       x2="486.28699"
       y2="389.91299"
       gradientUnits="userSpaceOnUse"
       gradientTransform="translate(-452,-358)">
      <stop
         stop-color="white"
         id="stop1741" />
      <stop
         offset="0.705"
         stop-color="#EAEFEF"
         id="stop1742" />
    </linearGradient>
    <linearGradient
       id="paint500_linear_890_11"
       x1="480"
       y1="371.5"
       x2="480"
       y2="368.5"
       gradientUnits="userSpaceOnUse"
       gradientTransform="translate(-452,-358)">
      <stop
         offset="0.155999"
         stop-color="#71706E"
         id="stop1743" />
      <stop
         offset="0.796276"
         stop-color="#B9AA99"
         id="stop1744" />
    </linearGradient>
    <linearGradient
       id="paint501_linear_890_11"
       x1="479"
       y1="375.5"
       x2="479"
       y2="372.5"
       gradientUnits="userSpaceOnUse"
       gradientTransform="translate(-452,-358)">
      <stop
         offset="0.155999"
         stop-color="#71706E"
         id="stop1745" />
      <stop
         offset="0.796276"
         stop-color="#B9AA99"
         id="stop1746" />
    </linearGradient>
    <linearGradient
       id="paint502_linear_890_11"
       x1="511"
       y1="417"
       x2="459"
       y2="383.64755"
       gradientUnits="userSpaceOnUse"
       gradientTransform="translate(-452,-361.55289)">
      <stop
         offset="0.207424"
         stop-color="#2E2E41"
         id="stop1747"
         style="stop-color:#3e3e57;stop-opacity:1;" />
      <stop
         offset="1"
         stop-color="#566C80"
         id="stop1748" />
    </linearGradient>
    <linearGradient
       inkscape:collect="always"
       xlink:href="#linearGradient1"
       id="linearGradient2"
       x1="31"
       y1="2.9650395"
       x2="31"
       y2="30.283407"
       gradientUnits="userSpaceOnUse"
       gradientTransform="matrix(1,0,0,0.76871358,2.0970049e-7,9.1678469)" />
    <linearGradient
       inkscape:collect="always"
       xlink:href="#linearGradient3"
       id="linearGradient4"
       x1="12"
       y1="3"
       x2="16"
       y2="27.916666"
       gradientUnits="userSpaceOnUse"
       gradientTransform="matrix(1,0,0,0.92307692,0,0.67788209)" />
    <linearGradient
       inkscape:collect="always"
       xlink:href="#linearGradient5"
       id="linearGradient6"
       x1="7"
       y1="21.447113"
       x2="55"
       y2="52.447113"
       gradientUnits="userSpaceOnUse" />
    <linearGradient
       inkscape:collect="always"
       xlink:href="#linearGradient2-5"
       id="linearGradient4-7"
       x1="7.2860355"
       y1="9.562089"
       x2="10.533126"
       y2="13.178877"
       gradientUnits="userSpaceOnUse"
       gradientTransform="matrix(4.2953909,0,0,4.2953909,-15.024795,-5.7380345)" />
    <linearGradient
       id="linearGradient2-5"
       inkscape:collect="always">
      <stop
         style="stop-color:#ffffff;stop-opacity:0.5;"
         offset="0"
         id="stop1-3" />
      <stop
         style="stop-color:#ffffff;stop-opacity:0.49756098;"
         offset="1"
         id="stop2-5" />
    </linearGradient>
  </defs>
  <g
     inkscape:label="Layer 1"
     inkscape:groupmode="layer"
     id="layer1">
    <g
       id="g1"
       transform="translate(0,1.552887)">
      <path
         d="m 7,8.0624979 c 0,-2.5486158 2.239,-4.615385 5,-4.615385 h 28 c 2.761,0 5,2.0667692 5,4.615385 V 46.831728 c 0,2.548616 -2.239,4.615385 -5,4.615385 H 12 c -2.761,0 -5,-2.066769 -5,-4.615385 z"
         id="path487"
         style="fill:url(#linearGradient4);stroke-width:0.960769" />
      <path
         d="m 17,16.443751 c 0,-2.997983 1.998655,-4.996638 5,-4.996638 h 27.999999 c 2.975797,0 4.971994,1.998655 4.974452,4.996638 l 0.02555,31.159775 c 0.0017,2.122418 -2.239,3.843568 -5,3.843568 H 22 c -2.761,0 -5,-1.72115 -5,-3.843568 z"
         id="path488"
         style="fill:url(#linearGradient2);fill-opacity:1;stroke-width:0.876763"
         sodipodi:nodetypes="sssssssss" />
      <path
         d="m 3,51.447113 v -30 c 0,-2.209 1.791,-4 4,-4 h 9 c 0.657,0 1.303,0.162 1.882,0.47 l 39,21.795 c 1.304,0.696 2.118,2.053 2.118,3.53 v 8.205 c 0,2.209 -1.791,4 -4,4 H 7 c -2.209,0 -4,-1.791 -4,-4 z"
         id="path492"
         style="fill:url(#linearGradient6)" />
    </g>
    <path
       d="m 9.951956,35.334884 c -0.0032,0.04214 -0.0047,0.08436 -0.0052,0.126502 v 8.612365 c 2.46e-4,0.899592 0.490346,1.730726 1.28571,2.180436 l 7.564779,4.278668 c 0.795546,0.450066 1.775829,0.450066 2.571541,0 l 7.564751,-4.278643 c 0.795712,-0.449881 1.285774,-1.281516 1.285595,-2.181445 v -8.611352 c -0.0015,-0.03181 -0.0036,-0.06345 -0.0058,-0.09516"
       stroke-width="0.429541"
       id="path2-7"
       style="fill:#f9f9f9;fill-opacity:0.5" />
    <path
       d="m 19.682911,29 v 0.0019 c -0.02033,2.82e-4 -0.03996,8e-4 -0.06008,0.0019 v 13.438943 c 0.451008,0.0022 0.894447,-0.11378 1.286109,-0.335261 l 7.570447,-4.32933 c 0.366543,-0.20992 0.675304,-0.50626 0.8984,-0.862675 0.223267,-0.356587 0.354166,-0.762 0.381346,-1.180668 C 29.735363,35.312595 29.606045,34.90287 29.382599,34.542527 29.159326,34.18217 28.848854,33.88255 28.479378,33.670618 L 20.908862,29.341116 C 20.53544,29.127611 20.114016,29.010435 19.682963,29.000397 Z"
       fill="url(#paint2_linear)"
       id="path3-0"
       style="fill:#f9f9f9;fill-opacity:0.5;stroke-width:1.13645" />
    <path
       d="m 9.458206,35.220704 c -0.0022,0.02752 -0.0032,0.05528 -0.004,0.0828 0.0033,-0.02754 0.0062,-0.0553 0.0098,-0.0828 z m -0.0049,0.105147 c -1.32e-4,0.0075 -7.77e-4,0.01389 -8.44e-4,0.02054 v 8.551291 c 2.75e-4,0.893244 0.529918,1.718833 1.388904,2.165363 l 8.169295,4.247968 c 0.442065,0.230053 0.895475,0.341973 1.388974,0.335252 v -8.642409 c -0.487647,8.23e-4 -0.967036,-0.115289 -1.389837,-0.336623 L 10.833902,37.368585 C 10.436254,37.158487 10.10198,36.861979 9.861079,36.505566 9.620176,36.149145 9.480183,35.743727 9.453594,35.325838 Z"
       fill="url(#paint3_linear)"
       id="path4"
       style="fill:#f9f9f9;fill-opacity:0.278281;stroke:url(#linearGradient4-7);stroke-width:0.706924" />
    <path
       d="m 19.683254,29 v 0.0014 c -0.471994,-0.01154 -0.938133,0.105914 -1.347171,0.33926 l -7.570637,4.329493 c -0.366499,0.210074 -0.674943,0.50643 -0.89806,0.862863 -0.223124,0.356446 -0.353943,0.761874 -0.380908,1.180408 0.02366,0.422204 0.15285,0.831801 0.376107,1.192086 0.223266,0.360441 0.533555,0.659969 0.902877,0.871898 l 7.57063,4.329514 c 0.391143,0.223839 0.834933,0.341636 1.28663,0.341636 0.451696,0 0.895475,-0.117815 1.286622,-0.341636 L 28.47997,37.77741 c 0.366381,-0.209918 0.674965,-0.50643 0.898061,-0.86284 0.223095,-0.356427 0.353992,-0.761833 0.380826,-1.180337 -0.02357,-0.422164 -0.152745,-0.831845 -0.376012,-1.192153 -0.223269,-0.360344 -0.533569,-0.65999 -0.902875,-0.871954 l -7.570634,-4.32965 c -0.373423,-0.213434 -0.795028,-0.33047 -1.226082,-0.340369 z"
       stroke-width="1.28862"
       id="path5"
       style="fill:#f9f9f9;fill-opacity:0.35" />
  </g>
</svg>
