<?xml version="1.0" encoding="UTF-8" standalone="no"?>
<!-- Created with Inkscape (http://www.inkscape.org/) -->

<svg
   width="62"
   height="62"
   viewBox="0 0 62 62"
   version="1.1"
   id="svg1"
   inkscape:version="1.4 (e7c3feb100, 2024-10-09)"
   sodipodi:docname="folder-github.svg"
   xmlns:inkscape="http://www.inkscape.org/namespaces/inkscape"
   xmlns:sodipodi="http://sodipodi.sourceforge.net/DTD/sodipodi-0.dtd"
   xmlns:xlink="http://www.w3.org/1999/xlink"
   xmlns="http://www.w3.org/2000/svg"
   xmlns:svg="http://www.w3.org/2000/svg">
  <sodipodi:namedview
     id="namedview1"
     pagecolor="#ffffff"
     bordercolor="#000000"
     borderopacity="0.25"
     inkscape:showpageshadow="2"
     inkscape:pageopacity="0.0"
     inkscape:pagecheckerboard="0"
     inkscape:deskcolor="#d1d1d1"
     inkscape:document-units="px"
     inkscape:zoom="10.74725"
     inkscape:cx="27.821071"
     inkscape:cy="31.636"
     inkscape:window-width="1920"
     inkscape:window-height="994"
     inkscape:window-x="0"
     inkscape:window-y="0"
     inkscape:window-maximized="1"
     inkscape:current-layer="layer1"
     showgrid="true">
    <inkscape:grid
       id="grid1"
       units="px"
       originx="0"
       originy="0"
       spacingx="1"
       spacingy="1"
       empcolor="#0099e5"
       empopacity="0.30196078"
       color="#0099e5"
       opacity="0.14901961"
       empspacing="5"
       enabled="true"
       visible="true" />
  </sodipodi:namedview>
  <defs
     id="defs1">
    <linearGradient
       id="linearGradient5"
       inkscape:collect="always">
      <stop
         style="stop-color:#566c80;stop-opacity:1;"
         offset="0"
         id="stop5" />
      <stop
         style="stop-color:#323f4b;stop-opacity:1;"
         offset="0.78924465"
         id="stop7" />
      <stop
         style="stop-color:#29333d;stop-opacity:1;"
         offset="1"
         id="stop6" />
    </linearGradient>
    <linearGradient
       id="linearGradient3"
       inkscape:collect="always">
      <stop
         style="stop-color:#66a3ff;stop-opacity:1;"
         offset="0"
         id="stop3" />
      <stop
         style="stop-color:#434c59;stop-opacity:1;"
         offset="1"
         id="stop4" />
    </linearGradient>
    <linearGradient
       id="linearGradient1"
       inkscape:collect="always">
      <stop
         style="stop-color:#8ba0b1;stop-opacity:1;"
         offset="0"
         id="stop1" />
      <stop
         style="stop-color:#3164b4;stop-opacity:1;"
         offset="1"
         id="stop2" />
    </linearGradient>
    <radialGradient
       id="paint664_radial_890_11"
       cx="0"
       cy="0"
       r="1"
       gradientUnits="userSpaceOnUse"
       gradientTransform="matrix(-16.000099,-9.999913,9.999913,-16.000099,583,171)">
      <stop
         offset="0.42141"
         stop-color="#B7C6CD"
         id="stop2071" />
      <stop
         offset="1"
         stop-color="#EFF2F6"
         id="stop2072" />
    </radialGradient>
    <linearGradient
       id="paint665_linear_890_11"
       x1="605"
       y1="180"
       x2="601.466"
       y2="162.72301"
       gradientUnits="userSpaceOnUse">
      <stop
         stop-color="#5200FF"
         id="stop2073" />
      <stop
         offset="1"
         stop-color="#0085FF"
         id="stop2074" />
    </linearGradient>
    <linearGradient
       id="paint666_linear_890_11"
       x1="567"
       y1="181"
       x2="562.11798"
       y2="174.183"
       gradientUnits="userSpaceOnUse">
      <stop
         stop-color="#5200FF"
         id="stop2075" />
      <stop
         offset="0.670391"
         stop-color="#0085FF"
         id="stop2076" />
    </linearGradient>
    <linearGradient
       id="paint667_linear_890_11"
       x1="605"
       y1="180"
       x2="597.32001"
       y2="174.24001"
       gradientUnits="userSpaceOnUse">
      <stop
         stop-color="#5200FF"
         id="stop2077" />
      <stop
         offset="1"
         stop-color="#0085FF"
         id="stop2078" />
    </linearGradient>
    <linearGradient
       id="paint668_linear_890_11"
       x1="567"
       y1="180"
       x2="561.23999"
       y2="172.32001"
       gradientUnits="userSpaceOnUse">
      <stop
         stop-color="#5200FF"
         id="stop2079" />
      <stop
         offset="1"
         stop-color="#0085FF"
         id="stop2080" />
    </linearGradient>
    <linearGradient
       id="paint669_linear_890_11"
       x1="607"
       y1="179"
       x2="602.50598"
       y2="171.80901"
       gradientUnits="userSpaceOnUse">
      <stop
         stop-color="#5200FF"
         id="stop2081" />
      <stop
         offset="1"
         stop-color="#0085FF"
         id="stop2082" />
    </linearGradient>
    <linearGradient
       id="paint670_linear_890_11"
       x1="607"
       y1="217"
       x2="568.82599"
       y2="170.01601"
       gradientUnits="userSpaceOnUse">
      <stop
         stop-color="#5200FF"
         id="stop2083" />
      <stop
         offset="1"
         stop-color="#0085FF"
         id="stop2084" />
    </linearGradient>
    <radialGradient
       id="paint671_radial_890_11"
       cx="0"
       cy="0"
       r="1"
       gradientUnits="userSpaceOnUse"
       gradientTransform="matrix(0,20,-16,0,583,187)">
      <stop
         offset="0.869716"
         stop-color="#EFF2F6"
         id="stop2085" />
      <stop
         offset="1"
         stop-color="#B7C6CD"
         id="stop2086" />
    </radialGradient>
    <linearGradient
       id="paint497_linear_890_11"
       x1="497"
       y1="413"
       x2="447.457"
       y2="376.79599"
       gradientUnits="userSpaceOnUse"
       gradientTransform="translate(-452,-358)">
      <stop
         offset="0.636456"
         stop-color="#71706E"
         id="stop1737" />
      <stop
         offset="1"
         stop-color="#B9AA99"
         id="stop1738" />
    </linearGradient>
    <linearGradient
       id="paint498_linear_890_11"
       x1="507"
       y1="413"
       x2="457.457"
       y2="376.79599"
       gradientUnits="userSpaceOnUse"
       gradientTransform="translate(-452,-358)">
      <stop
         offset="0.544933"
         stop-color="#FF7E07"
         id="stop1739" />
      <stop
         offset="1"
         stop-color="#FFE607"
         id="stop1740" />
    </linearGradient>
    <linearGradient
       id="paint499_linear_890_11"
       x1="473"
       y1="365"
       x2="486.28699"
       y2="389.91299"
       gradientUnits="userSpaceOnUse"
       gradientTransform="translate(-452,-358)">
      <stop
         stop-color="white"
         id="stop1741" />
      <stop
         offset="0.705"
         stop-color="#EAEFEF"
         id="stop1742" />
    </linearGradient>
    <linearGradient
       id="paint500_linear_890_11"
       x1="480"
       y1="371.5"
       x2="480"
       y2="368.5"
       gradientUnits="userSpaceOnUse"
       gradientTransform="translate(-452,-358)">
      <stop
         offset="0.155999"
         stop-color="#71706E"
         id="stop1743" />
      <stop
         offset="0.796276"
         stop-color="#B9AA99"
         id="stop1744" />
    </linearGradient>
    <linearGradient
       id="paint501_linear_890_11"
       x1="479"
       y1="375.5"
       x2="479"
       y2="372.5"
       gradientUnits="userSpaceOnUse"
       gradientTransform="translate(-452,-358)">
      <stop
         offset="0.155999"
         stop-color="#71706E"
         id="stop1745" />
      <stop
         offset="0.796276"
         stop-color="#B9AA99"
         id="stop1746" />
    </linearGradient>
    <linearGradient
       id="paint502_linear_890_11"
       x1="507"
       y1="414"
       x2="462.66074"
       y2="382.72644"
       gradientUnits="userSpaceOnUse"
       gradientTransform="translate(-452,-358)">
      <stop
         offset="0.22383125"
         stop-color="#2E2E41"
         id="stop1747"
         style="stop-color:#29333d;stop-opacity:1;" />
      <stop
         offset="1"
         stop-color="#566C80"
         id="stop1748" />
    </linearGradient>
    <linearGradient
       inkscape:collect="always"
       xlink:href="#linearGradient1"
       id="linearGradient2"
       x1="32"
       y1="2.9999995"
       x2="32"
       y2="25.1"
       gradientUnits="userSpaceOnUse"
       gradientTransform="matrix(1,0,0,0.76923076,0,12.692308)" />
    <linearGradient
       inkscape:collect="always"
       xlink:href="#linearGradient3"
       id="linearGradient4"
       x1="17"
       y1="3"
       x2="17"
       y2="26.434027"
       gradientUnits="userSpaceOnUse"
       gradientTransform="matrix(1,0,0,0.92307692,0,4.2307692)" />
    <linearGradient
       inkscape:collect="always"
       xlink:href="#linearGradient5"
       id="linearGradient6"
       x1="7"
       y1="25"
       x2="54"
       y2="54"
       gradientUnits="userSpaceOnUse" />
  </defs>
  <g
     inkscape:label="Layer 1"
     inkscape:groupmode="layer"
     id="layer1">
    <g
       id="g1"
       transform="translate(0,-2)">
      <path
         d="M 7,11.615385 C 7,9.0667692 9.239,7 12,7 h 28 c 2.761,0 5,2.0667692 5,4.615385 v 38.76923 C 45,52.933231 42.761,55 40,55 H 12 C 9.239,55 7,52.933231 7,50.384615 Z"
         id="path487"
         style="fill:url(#linearGradient4);stroke-width:0.960769" />
      <path
         d="m 17,20 c 0,-3 2,-5 5,-5 h 28 c 3,0 5,2 5,5 V 51.153846 C 55,53.277693 52.761,55 50,55 H 22 c -2.761,0 -5,-1.722307 -5,-3.846154 z"
         id="path488"
         style="fill:url(#linearGradient2);fill-opacity:1;stroke-width:0.877058"
         sodipodi:nodetypes="sssssssss" />
      <path
         d="M 3,55 V 25 c 0,-2.209 1.791,-4 4,-4 h 9 c 0.657,0 1.303,0.162 1.882,0.47 l 39,21.795 C 58.186,43.961 59,45.318 59,46.795 V 55 c 0,2.209 -1.791,4 -4,4 H 7 C 4.791,59 3,57.209 3,55 Z"
         id="path492"
         style="fill:url(#linearGradient6)" />
    </g>
    <path
       d="m 16.852317,50.990094 a 0.92475861,0.9338064 0 0 0 0.563639,-0.272694 0.91125805,0.92017385 0 0 0 0.253119,-0.473666 c 0.0202,-0.102235 0.02378,-0.214763 0.0202,-1.226956 v -0.998471 l -0.668253,-8.94e-4 a 37.135491,37.498808 0 0 1 -0.81675,-0.0177 6.0953083,6.1549461 0 0 1 -0.661512,-0.08536 C 14.779997,47.767027 14.182612,47.48074 13.75398,47.058156 A 2.3793974,2.4026772 0 0 1 13.17347,46.100072 4.1377884,4.1782707 0 0 0 12.147458,44.484701 7.2259398,7.2966372 0 0 0 11.438716,43.861033 C 11.087747,43.574238 11,43.475372 11,43.386799 c 0,-0.05811 0.04062,-0.102205 0.15862,-0.156755 a 1.0530101,1.0633119 0 0 1 0.519763,-0.105618 1.6875164,1.7040264 0 0 1 0.729009,0.207872 c 0.310501,0.160191 0.631126,0.40557 0.968639,0.73956 0.205868,0.204483 0.354364,0.37143 0.587241,0.664528 0.70876,0.886116 1.157642,1.220158 1.802265,1.329127 0.189015,0.03473 0.270009,0.04163 0.600756,0.04163 a 3.7125352,3.7488572 0 0 0 0.583885,-0.03024 2.4367725,2.4606129 0 0 0 0.681762,-0.170317 l 0.0573,-0.02691 0.0023,-0.115854 a 2.3760222,2.3992688 0 0 1 1.039574,-1.939274 c 0,0 -0.01328,-8.94e-4 -0.03384,-8.94e-4 a 15.336146,15.486197 0 0 1 -0.523133,-0.09594 8.9640863,9.0517812 0 0 1 -3.132011,-1.2098 5.6531759,5.7084871 0 0 1 -1.326393,-1.186028 5.4270537,5.4801534 0 0 1 -1.150885,-2.849145 8.6164555,8.7007599 0 0 1 -0.01345,-1.806225 c 0.128251,-1.373475 0.563622,-2.556018 1.30951,-3.578487 0.01342,-0.01734 0.01342,-0.01734 -0.0202,-0.146526 a 7.161815,7.2318837 0 0 1 0.06746,-3.892273 l 0.01344,-0.05116 h 0.121512 c 0.506249,0.0023 1.164386,0.156771 1.795512,0.412377 a 7.3474412,7.4193241 0 0 1 1.832641,1.083755 12.112991,12.231502 0 0 1 2.625794,-0.50437 c 0.398238,-0.03402 0.688507,-0.04422 1.16099,-0.04422 a 12.656365,12.780199 0 0 1 3.678767,0.511181 l 0.111399,0.03406 0.101198,-0.07491 c 0.138394,-0.112445 0.236275,-0.184008 0.411779,-0.299909 0.999001,-0.674787 2.153255,-1.090568 3.105005,-1.121234 L 28.994995,29 l 0.01016,0.03743 0.03709,0.146542 a 7.2968171,7.3682113 0 0 1 0.01673,3.8204 6.5576893,6.6218436 0 0 1 1.137343,2.273152 c 0.18224,0.637338 0.276789,1.277989 0.300491,2.0381 0.02133,0.763311 -0.06451,1.48584 -0.249772,2.133385 A 5.1671714,5.2177287 0 0 1 28.6945,41.933514 c -0.84377,0.749704 -1.92038,1.288181 -3.283893,1.642645 a 13.446127,13.577679 0 0 1 -1.214973,0.252066 c -8.89e-4,4.31e-4 0.02383,0.02679 0.06072,0.05822 a 2.497523,2.5219576 0 0 1 0.641257,0.715657 c 0.13498,0.238523 0.243002,0.528214 0.286863,0.807672 0.03709,0.218106 0.03351,0.0226 0.0407,2.494731 0,2.112976 0,2.26627 0.01331,2.317455 a 0.95850907,0.96788683 0 0 0 0.148488,0.368127 0.96188394,0.97129463 0 0 0 0.691855,0.409025 C 26.105917,50.999541 24.026785,51 21.45504,51 c -3.830686,0 -4.657564,0 -4.603566,-0.01026 z"
       id="path6-6-3"
       style="fill:#f9f9f9;fill-opacity:0.5;stroke-width:1.09167" />
  </g>
</svg>
