<?xml version="1.0" encoding="UTF-8" standalone="no"?>
<!-- Created with Inkscape (http://www.inkscape.org/) -->

<svg
   width="62"
   height="62"
   viewBox="0 0 62 62"
   version="1.1"
   id="svg1"
   inkscape:version="1.4 (e7c3feb100, 2024-10-09)"
   sodipodi:docname="folder-development.svg"
   xmlns:inkscape="http://www.inkscape.org/namespaces/inkscape"
   xmlns:sodipodi="http://sodipodi.sourceforge.net/DTD/sodipodi-0.dtd"
   xmlns:xlink="http://www.w3.org/1999/xlink"
   xmlns="http://www.w3.org/2000/svg"
   xmlns:svg="http://www.w3.org/2000/svg">
  <sodipodi:namedview
     id="namedview1"
     pagecolor="#ffffff"
     bordercolor="#000000"
     borderopacity="0.25"
     inkscape:showpageshadow="2"
     inkscape:pageopacity="0.0"
     inkscape:pagecheckerboard="0"
     inkscape:deskcolor="#d1d1d1"
     inkscape:document-units="px"
     inkscape:zoom="10.74725"
     inkscape:cx="30.19377"
     inkscape:cy="36.3814"
     inkscape:window-width="1920"
     inkscape:window-height="994"
     inkscape:window-x="0"
     inkscape:window-y="0"
     inkscape:window-maximized="1"
     inkscape:current-layer="layer1"
     showgrid="true">
    <inkscape:grid
       id="grid1"
       units="px"
       originx="0"
       originy="0"
       spacingx="1"
       spacingy="1"
       empcolor="#0099e5"
       empopacity="0.30196078"
       color="#0099e5"
       opacity="0.14901961"
       empspacing="5"
       enabled="true"
       visible="true" />
  </sodipodi:namedview>
  <defs
     id="defs1">
    <linearGradient
       id="linearGradient5"
       inkscape:collect="always">
      <stop
         style="stop-color:#566c80;stop-opacity:1;"
         offset="0"
         id="stop5" />
      <stop
         style="stop-color:#303d48;stop-opacity:1;"
         offset="0.82903594"
         id="stop7" />
      <stop
         style="stop-color:#29343d;stop-opacity:1;"
         offset="1"
         id="stop6" />
    </linearGradient>
    <linearGradient
       id="linearGradient3"
       inkscape:collect="always">
      <stop
         style="stop-color:#74d89b;stop-opacity:1;"
         offset="0"
         id="stop3" />
      <stop
         style="stop-color:#7136c9;stop-opacity:1;"
         offset="1"
         id="stop4" />
    </linearGradient>
    <linearGradient
       id="linearGradient1"
       inkscape:collect="always">
      <stop
         style="stop-color:#00c5c5;stop-opacity:1;"
         offset="0"
         id="stop1" />
      <stop
         style="stop-color:#6500fb;stop-opacity:1;"
         offset="1"
         id="stop2" />
    </linearGradient>
    <radialGradient
       id="paint664_radial_890_11"
       cx="0"
       cy="0"
       r="1"
       gradientUnits="userSpaceOnUse"
       gradientTransform="matrix(-16.000099,-9.999913,9.999913,-16.000099,583,171)">
      <stop
         offset="0.42141"
         stop-color="#B7C6CD"
         id="stop2071" />
      <stop
         offset="1"
         stop-color="#EFF2F6"
         id="stop2072" />
    </radialGradient>
    <linearGradient
       id="paint665_linear_890_11"
       x1="605"
       y1="180"
       x2="601.466"
       y2="162.72301"
       gradientUnits="userSpaceOnUse">
      <stop
         stop-color="#5200FF"
         id="stop2073" />
      <stop
         offset="1"
         stop-color="#0085FF"
         id="stop2074" />
    </linearGradient>
    <linearGradient
       id="paint666_linear_890_11"
       x1="567"
       y1="181"
       x2="562.11798"
       y2="174.183"
       gradientUnits="userSpaceOnUse">
      <stop
         stop-color="#5200FF"
         id="stop2075" />
      <stop
         offset="0.670391"
         stop-color="#0085FF"
         id="stop2076" />
    </linearGradient>
    <linearGradient
       id="paint667_linear_890_11"
       x1="605"
       y1="180"
       x2="597.32001"
       y2="174.24001"
       gradientUnits="userSpaceOnUse">
      <stop
         stop-color="#5200FF"
         id="stop2077" />
      <stop
         offset="1"
         stop-color="#0085FF"
         id="stop2078" />
    </linearGradient>
    <linearGradient
       id="paint668_linear_890_11"
       x1="567"
       y1="180"
       x2="561.23999"
       y2="172.32001"
       gradientUnits="userSpaceOnUse">
      <stop
         stop-color="#5200FF"
         id="stop2079" />
      <stop
         offset="1"
         stop-color="#0085FF"
         id="stop2080" />
    </linearGradient>
    <linearGradient
       id="paint669_linear_890_11"
       x1="607"
       y1="179"
       x2="602.50598"
       y2="171.80901"
       gradientUnits="userSpaceOnUse">
      <stop
         stop-color="#5200FF"
         id="stop2081" />
      <stop
         offset="1"
         stop-color="#0085FF"
         id="stop2082" />
    </linearGradient>
    <linearGradient
       id="paint670_linear_890_11"
       x1="607"
       y1="217"
       x2="568.82599"
       y2="170.01601"
       gradientUnits="userSpaceOnUse">
      <stop
         stop-color="#5200FF"
         id="stop2083" />
      <stop
         offset="1"
         stop-color="#0085FF"
         id="stop2084" />
    </linearGradient>
    <radialGradient
       id="paint671_radial_890_11"
       cx="0"
       cy="0"
       r="1"
       gradientUnits="userSpaceOnUse"
       gradientTransform="matrix(0,20,-16,0,583,187)">
      <stop
         offset="0.869716"
         stop-color="#EFF2F6"
         id="stop2085" />
      <stop
         offset="1"
         stop-color="#B7C6CD"
         id="stop2086" />
    </radialGradient>
    <linearGradient
       id="paint497_linear_890_11"
       x1="497"
       y1="413"
       x2="447.457"
       y2="376.79599"
       gradientUnits="userSpaceOnUse"
       gradientTransform="translate(-452,-358)">
      <stop
         offset="0.636456"
         stop-color="#71706E"
         id="stop1737" />
      <stop
         offset="1"
         stop-color="#B9AA99"
         id="stop1738" />
    </linearGradient>
    <linearGradient
       id="paint498_linear_890_11"
       x1="507"
       y1="413"
       x2="457.457"
       y2="376.79599"
       gradientUnits="userSpaceOnUse"
       gradientTransform="translate(-452,-358)">
      <stop
         offset="0.544933"
         stop-color="#FF7E07"
         id="stop1739" />
      <stop
         offset="1"
         stop-color="#FFE607"
         id="stop1740" />
    </linearGradient>
    <linearGradient
       id="paint499_linear_890_11"
       x1="473"
       y1="365"
       x2="486.28699"
       y2="389.91299"
       gradientUnits="userSpaceOnUse"
       gradientTransform="translate(-452,-358)">
      <stop
         stop-color="white"
         id="stop1741" />
      <stop
         offset="0.705"
         stop-color="#EAEFEF"
         id="stop1742" />
    </linearGradient>
    <linearGradient
       id="paint500_linear_890_11"
       x1="480"
       y1="371.5"
       x2="480"
       y2="368.5"
       gradientUnits="userSpaceOnUse"
       gradientTransform="translate(-452,-358)">
      <stop
         offset="0.155999"
         stop-color="#71706E"
         id="stop1743" />
      <stop
         offset="0.796276"
         stop-color="#B9AA99"
         id="stop1744" />
    </linearGradient>
    <linearGradient
       id="paint501_linear_890_11"
       x1="479"
       y1="375.5"
       x2="479"
       y2="372.5"
       gradientUnits="userSpaceOnUse"
       gradientTransform="translate(-452,-358)">
      <stop
         offset="0.155999"
         stop-color="#71706E"
         id="stop1745" />
      <stop
         offset="0.796276"
         stop-color="#B9AA99"
         id="stop1746" />
    </linearGradient>
    <linearGradient
       id="paint502_linear_890_11"
       x1="507"
       y1="414"
       x2="462.66074"
       y2="382.72644"
       gradientUnits="userSpaceOnUse"
       gradientTransform="translate(-452,-358)">
      <stop
         offset="0.20298037"
         stop-color="#2E2E41"
         id="stop1747"
         style="stop-color:#29333d;stop-opacity:1;" />
      <stop
         offset="1"
         stop-color="#566C80"
         id="stop1748" />
    </linearGradient>
    <linearGradient
       inkscape:collect="always"
       xlink:href="#linearGradient1"
       id="linearGradient2"
       x1="29"
       y1="2.9999995"
       x2="28.796904"
       y2="33.029537"
       gradientUnits="userSpaceOnUse"
       gradientTransform="matrix(1,0,0,0.76923076,0,12.692308)" />
    <linearGradient
       inkscape:collect="always"
       xlink:href="#linearGradient3"
       id="linearGradient4"
       x1="16"
       y1="3"
       x2="16"
       y2="27.916666"
       gradientUnits="userSpaceOnUse"
       gradientTransform="matrix(1,0,0,0.92307692,0,4.2307692)" />
    <linearGradient
       inkscape:collect="always"
       xlink:href="#linearGradient5"
       id="linearGradient6"
       x1="8"
       y1="25"
       x2="55"
       y2="56"
       gradientUnits="userSpaceOnUse" />
  </defs>
  <g
     inkscape:label="Layer 1"
     inkscape:groupmode="layer"
     id="layer1">
    <g
       id="g1"
       transform="translate(0,-2)">
      <path
         d="M 7,11.615385 C 7,9.0667692 9.239,7 12,7 h 28 c 2.761,0 5,2.0667692 5,4.615385 v 38.76923 C 45,52.933231 42.761,55 40,55 H 12 C 9.239,55 7,52.933231 7,50.384615 Z"
         id="path487"
         style="fill:url(#linearGradient4);stroke-width:0.960769" />
      <path
         d="m 17,20 c 0,-3 2,-5 5,-5 h 28 c 3,0 5,2 5,5 V 51.153846 C 55,53.277693 52.761,55 50,55 H 22 c -2.761,0 -5,-1.722307 -5,-3.846154 z"
         id="path488"
         style="fill:url(#linearGradient2);fill-opacity:1;stroke-width:0.877058"
         sodipodi:nodetypes="sssssssss" />
      <path
         d="M 3,55 V 25 c 0,-2.209 1.791,-4 4,-4 h 9 c 0.657,0 1.303,0.162 1.882,0.47 l 39,21.795 C 58.186,43.961 59,45.318 59,46.795 V 55 c 0,2.209 -1.791,4 -4,4 H 7 C 4.791,59 3,57.209 3,55 Z"
         id="path492"
         style="fill:url(#linearGradient6)" />
    </g>
    <g
       id="g2-9-0-6"
       transform="matrix(0.1543624,0,0,0.15172414,10.228188,28.696552)"
       style="fill:#f9f9f9;fill-opacity:0.5;stroke-width:2.74302">
      <path
         id="path1-9-2"
         d="m 150.294,39.6925 h -10.781 c -0.808,-2.8483 -1.995,-5.5067 -3.467,-7.9753 l 7.694,-7.6904 c 1.472,-1.4716 1.472,-3.8452 0,-5.2693 l -6.459,-6.4562 c -1.425,-1.519 -3.8,-1.519 -5.225,-0.0474 l -7.789,7.7853 c -2.47,-1.4241 -5.082,-2.5635 -7.885,-3.323 V 5.75026 C 116.382,3.70898 114.72,2 112.63,2 h -9.166 c -2.043,0 -3.7525,1.66151 -3.7525,3.75026 V 16.5263 c -2.8972,0.7121 -5.6995,1.8039 -8.2167,3.1806 l -7.5043,-7.453 c -1.4724,-1.4716 -3.8472,-1.4716 -5.272,0 L 72.2591,18.71 c -1.4724,1.4716 -1.4724,3.8452 0,5.2694 l 7.1243,7.1207 C 77.721,33.711 76.4387,36.6068 75.5837,39.645 H 65.7522 C 63.7098,39.645 62,41.3065 62,43.3953 v 9.162 c 0,2.0413 1.6623,3.7502 3.7522,3.7502 h 9.4516 c 0.7599,3.2756 1.9948,6.3138 3.6571,9.1146 l -6.6018,6.5985 c -1.4724,1.4717 -1.4724,3.8452 0,5.2694 l 6.4594,6.4561 c 1.4723,1.4716 3.8471,1.4716 5.272,0 l 6.5069,-6.5036 c 2.8022,1.6615 5.9369,2.9433 9.2141,3.7503 v 9.2569 c 0,2.0413 1.6625,3.7503 3.7525,3.7503 h 9.119 c 2.042,0 3.752,-1.6615 3.752,-3.7503 v -9.4943 c 3.182,-0.8545 6.127,-2.1837 8.834,-3.8927 l 6.887,6.8834 c 1.472,1.4716 3.847,1.4716 5.272,0 l 6.459,-6.4561 c 1.473,-1.4716 1.473,-3.8452 0,-5.2694 l -7.171,-7.1682 c 1.472,-2.6584 2.612,-5.5067 3.277,-8.5449 h 10.354 c 2.042,0 3.752,-1.6615 3.752,-3.7502 v -9.1146 c 0.048,-2.0887 -1.615,-3.7502 -3.705,-3.7502 z m -42.746,21.7903 c -9.1664,0 -12.6342,-8.3276 -12.6342,-12.6897 0,-4.3621 3.4678,-12.2931 12.6342,-12.2931 9.167,0 12.745,8.7241 12.745,12.2931 0,4.7586 -3.578,12.6897 -12.745,12.6897 z"
         style="fill:#f9f9f9;fill-opacity:0.5" />
    </g>
    <g
       id="g3-2-3-9"
       transform="matrix(0.1543624,0,0,0.15172414,10.228188,28.696552)"
       style="fill:#f9f9f9;fill-opacity:0.5;stroke-width:2.74302">
      <path
         d="M 116.328,78.5253 H 102.734 C 101.716,74.934 100.218,71.582 98.3619,68.4696 l 9.7011,-9.6966 c 1.857,-1.8556 1.857,-4.8483 0,-6.644 l -8.144,-8.1404 c -1.7966,-1.9153 -4.7909,-1.9153 -6.5875,-0.0598 l -9.8212,9.8163 C 80.3962,51.9494 77.1025,50.5129 73.5692,49.5552 V 35.7286 C 73.5692,33.1548 71.4732,31 68.8382,31 H 57.2803 c -2.5751,0 -4.731,2.0949 -4.731,4.7286 v 13.5872 c -3.653,0.8978 -7.1863,2.2745 -10.3602,4.0103 l -9.462,-9.3973 c -1.8564,-1.8555 -4.8507,-1.8555 -6.6473,0 l -8.1445,8.1403 c -1.8564,1.8556 -1.8564,4.8483 0,6.644 l 8.9829,8.9783 c -2.096,3.2921 -3.7129,6.9433 -4.7909,10.774 H 9.73098 C 7.15589,78.4654 5,80.5604 5,83.194 v 11.5521 c 0,2.5738 2.096,4.7286 4.73098,4.7286 H 21.6482 c 0.9582,4.1303 2.5152,7.9613 4.6113,11.4923 l -8.3242,8.32 c -1.8564,1.855 -1.8564,4.848 0,6.644 l 8.1445,8.14 c 1.8565,1.856 4.8507,1.856 6.6473,0 l 8.2044,-8.2 c 3.5332,2.095 7.4857,3.711 11.6178,4.729 v 11.671 c 0,2.574 2.096,4.729 4.731,4.729 h 11.4981 c 2.575,0 4.7309,-2.095 4.7309,-4.729 V 130.3 c 4.0124,-1.077 7.7253,-2.753 11.1388,-4.908 l 8.6834,8.679 c 1.8565,1.856 4.8508,1.856 6.6473,0 l 8.1442,-8.14 c 1.857,-1.856 1.857,-4.848 0,-6.644 l -9.0424,-9.038 c 1.8564,-3.352 3.2934,-6.944 4.1324,-10.7743 h 13.055 c 2.575,0 4.731,-2.0949 4.731,-4.7286 V 83.2539 c 0.06,-2.6337 -2.036,-4.7286 -4.671,-4.7286 z M 62.4305,106 C 50.8725,106 46.5,95.5 46.5,90 46.5,84.5 50.8725,74.5 62.4305,74.5 73.9884,74.5 78.5,85.5 78.5,90 c 0,6 -4.5116,16 -16.0695,16 z"
         shape-rendering="crispEdges"
         id="path2-0-6-1"
         style="fill:#f9f9f9;fill-opacity:0.5" />
    </g>
  </g>
</svg>
