<?xml version="1.0" encoding="UTF-8" standalone="no"?>
<svg
   width="62"
   height="62"
   version="1.1"
   id="svg10"
   sodipodi:docname="1cedt.svg"
   inkscape:version="1.4 (e7c3feb100, 2024-10-09)"
   xmlns:inkscape="http://www.inkscape.org/namespaces/inkscape"
   xmlns:sodipodi="http://sodipodi.sourceforge.net/DTD/sodipodi-0.dtd"
   xmlns:xlink="http://www.w3.org/1999/xlink"
   xmlns="http://www.w3.org/2000/svg"
   xmlns:svg="http://www.w3.org/2000/svg">
  <defs
     id="defs10">
    <linearGradient
       id="linearGradient10"
       inkscape:collect="always">
      <stop
         style="stop-color:#b7c6cd;stop-opacity:1;"
         offset="0"
         id="stop10" />
      <stop
         style="stop-color:#eff2f6;stop-opacity:1;"
         offset="1"
         id="stop11" />
    </linearGradient>
    <linearGradient
       inkscape:collect="always"
       xlink:href="#linearGradient10"
       id="linearGradient11"
       x1="29.920319"
       y1="58.972126"
       x2="31.499992"
       y2="4.9824557"
       gradientUnits="userSpaceOnUse" />
  </defs>
  <sodipodi:namedview
     id="namedview10"
     pagecolor="#ffffff"
     bordercolor="#000000"
     borderopacity="0.25"
     inkscape:showpageshadow="2"
     inkscape:pageopacity="0.0"
     inkscape:pagecheckerboard="0"
     inkscape:deskcolor="#d1d1d1"
     inkscape:zoom="11.6875"
     inkscape:cx="31.957219"
     inkscape:cy="32"
     inkscape:window-width="1920"
     inkscape:window-height="994"
     inkscape:window-x="0"
     inkscape:window-y="0"
     inkscape:window-maximized="1"
     inkscape:current-layer="svg10" />
  <g
     id="g10"
     transform="translate(-0.5,-1)">
    <ellipse
       style="opacity:0.2;stroke-width:0.982302"
       cx="31.5"
       cy="32.491226"
       id="circle1"
       rx="27.5"
       ry="27.508774" />
    <ellipse
       style="fill:url(#linearGradient11);stroke-width:0.982302"
       cx="31.5"
       cy="31.508774"
       id="circle2"
       rx="27.5"
       ry="27.508774" />
    <path
       style="opacity:0.1;stroke-width:0.982302"
       d="m 39.909587,14.008402 -7.047641,12.203945 3.399139,1.96491 7.051477,-12.203945 z"
       id="path2" />
    <path
       style="opacity:0.1;stroke-width:0.982302"
       d="m 26.577774,37.084913 -6.944056,12.019733 3.402966,1.968746 6.944057,-12.019732 z"
       id="path3" />
    <path
       style="fill:#7f80a1;stroke-width:0.982302"
       d="m 26.577774,36.102517 -6.944056,12.019732 3.402966,1.968754 6.944057,-12.01974 z"
       id="path4" />
    <path
       style="fill:#0d73f2;stroke-width:0.982302;fill-opacity:1"
       d="m 39.909587,13.026318 -7.047641,12.203944 3.399139,1.964911 7.051477,-12.203945 z"
       id="path5" />
    <path
       style="opacity:0.1;stroke-width:0.982302"
       d="m 20.151644,24.631576 -7.937706,13.754382 7.937706,13.754384 H 36.02706 L 43.964766,38.385958 36.02706,24.631576 Z m 2.267363,3.929821 h 11.340684 l 5.670337,9.824561 -5.670337,9.824563 H 22.419007 l -5.670336,-9.824563 z"
       id="path6" />
    <path
       style="fill:#7f80a1;stroke-width:0.982302"
       d="m 20.151644,23.649118 -7.937706,13.754387 7.937706,13.754378 H 36.02706 L 43.964766,37.403505 36.02706,23.649118 Z m 2.267363,3.929827 h 11.340684 l 5.670337,9.82456 -5.670337,9.824558 H 22.419007 l -5.670336,-9.824558 z"
       id="path7" />
    <path
       style="opacity:0.1;stroke-width:0.982302"
       d="m 26.97293,12.842107 -7.937706,13.75438 7.937706,13.754385 h 15.875417 l 7.937706,-13.754385 -7.933871,-13.75438 z m 2.267369,3.929821 h 11.344513 l 5.666503,9.824559 -5.670338,9.824558 H 29.244135 l -5.674179,-9.824558 z"
       id="path8" />
    <path
       style="fill:#0d73f2;stroke-width:0.982302;fill-opacity:1"
       d="m 26.97293,11.859648 -7.937706,13.754386 7.937706,13.75438 h 15.875417 l 7.937706,-13.75438 -7.933871,-13.754386 z m 2.267369,3.929821 h 11.344513 l 5.666503,9.824565 -5.670338,9.824559 H 29.244135 l -5.674179,-9.824559 z"
       id="path9" />
    <path
       style="opacity:0.2;fill:#ffffff;stroke-width:0.982302"
       d="M 31.499992,4 A 27.499992,27.508766 0 0 0 4,31.508766 27.499992,27.508766 0 0 0 4.0172646,31.992322 27.499992,27.508766 0 0 1 31.499992,4.9824558 27.499992,27.508766 0 0 1 58.975049,31.992322 27.499992,27.508766 0 0 0 58.999984,31.508766 27.499992,27.508766 0 0 0 31.499992,4 Z"
       id="path10" />
  </g>
</svg>
