<?xml version="1.0" encoding="UTF-8" standalone="no"?>
<svg
   clip-rule="evenodd"
   fill-rule="evenodd"
   stroke-linejoin="round"
   stroke-miterlimit="2"
   viewBox="0 0 62 62"
   version="1.1"
   id="svg9"
   sodipodi:docname="2048.svg"
   width="62"
   height="62"
   inkscape:version="1.4 (e7c3feb100, 2024-10-09)"
   xmlns:inkscape="http://www.inkscape.org/namespaces/inkscape"
   xmlns:sodipodi="http://sodipodi.sourceforge.net/DTD/sodipodi-0.dtd"
   xmlns:xlink="http://www.w3.org/1999/xlink"
   xmlns="http://www.w3.org/2000/svg"
   xmlns:svg="http://www.w3.org/2000/svg">
  <defs
     id="defs9">
    <linearGradient
       id="linearGradient11"
       inkscape:collect="always">
      <stop
         style="stop-color:#9955ff;stop-opacity:1"
         offset="0"
         id="stop11" />
      <stop
         style="stop-color:#6f7c91;stop-opacity:1"
         offset="1"
         id="stop12" />
    </linearGradient>
    <linearGradient
       inkscape:collect="always"
       xlink:href="#linearGradient11"
       id="linearGradient12"
       x1="5.7696657"
       y1="30.332001"
       x2="58.332"
       y2="30.332"
       gradientUnits="userSpaceOnUse" />
  </defs>
  <sodipodi:namedview
     id="namedview9"
     pagecolor="#ffffff"
     bordercolor="#000000"
     borderopacity="0.25"
     inkscape:showpageshadow="2"
     inkscape:pageopacity="0.0"
     inkscape:pagecheckerboard="0"
     inkscape:deskcolor="#d1d1d1"
     inkscape:zoom="7.8541667"
     inkscape:cx="23.872679"
     inkscape:cy="25.718833"
     inkscape:window-width="1920"
     inkscape:window-height="994"
     inkscape:window-x="0"
     inkscape:window-y="0"
     inkscape:window-maximized="1"
     inkscape:current-layer="svg9" />
  <linearGradient
     id="a"
     x2="1"
     gradientTransform="matrix(-1.8807735,-56.60205,56.60205,-1.8807735,171.41748,52.315645)"
     gradientUnits="userSpaceOnUse">
    <stop
       stop-color="#d3d3d3"
       offset="0"
       id="stop1" />
    <stop
       stop-color="#fcf9f9"
       offset="1"
       id="stop2" />
  </linearGradient>
  <linearGradient
     id="b"
     x2="1"
     gradientTransform="matrix(-0.43902549,-38.953056,38.953056,-0.43902549,612.96022,678.85869)"
     gradientUnits="userSpaceOnUse">
    <stop
       stop-color="#f15400"
       offset="0"
       id="stop3" />
    <stop
       stop-color="#fa8c00"
       offset="1"
       id="stop4" />
  </linearGradient>
  <g
     id="g10"
     transform="translate(0.668,0.668)">
    <path
       d="M 58.332,10.379997 C 58.332,5.9373166 54.726683,2.332 50.284003,2.332 H 10.379997 C 5.9373166,2.332 2.332,5.9373166 2.332,10.379997 v 39.904006 c 0,4.44268 3.6053166,8.047997 8.047997,8.047997 h 39.904006 c 4.44268,0 8.047997,-3.605317 8.047997,-8.047997 z"
       id="path4"
       style="fill:#b7b7c8;fill-opacity:1" />
    <path
       d="m 50.284003,2.332 c 4.44268,0 8.047997,3.6053166 8.047997,8.047997 V 30.332 h -28 v 28 H 10.379997 C 5.9373166,58.332 2.332,54.726683 2.332,50.284003 V 30.332 h 28 v -28 z"
       id="path5"
       style="fill:url(#linearGradient12);fill-opacity:1" />
    <g
       fill-opacity="0.81"
       fill-rule="nonzero"
       id="g9"
       transform="matrix(1.2922282,0,0,1.2922282,-0.68147609,-0.68147609)">
      <path
         d="M 16.708,18.962 H 9.424 v -1.537 c 2.183,-2.194 3.581,-3.625 4.194,-4.294 0.545,-0.612 0.913,-1.074 1.102,-1.386 0.19,-0.323 0.284,-0.719 0.284,-1.186 0,-0.479 -0.189,-0.902 -0.568,-1.27 -0.378,-0.368 -0.885,-0.551 -1.52,-0.551 -0.579,0 -1.047,0.172 -1.403,0.518 -0.357,0.334 -0.585,0.696 -0.685,1.086 L 9.424,9.774 c 0.19,-0.602 0.585,-1.17 1.187,-1.705 0.601,-0.534 1.381,-0.801 2.338,-0.801 1.058,0 1.927,0.323 2.607,0.969 0.679,0.645 1.019,1.42 1.019,2.322 0,1.113 -0.607,2.305 -1.821,3.575 l -3.342,3.358 h 5.296 z"
         id="path6" />
      <path
         d="m 38.001,17.28 c -0.828,1.121 -1.911,1.682 -3.25,1.682 -1.34,0 -2.423,-0.561 -3.251,-1.682 -0.827,-1.122 -1.241,-2.51 -1.241,-4.165 0,-1.666 0.414,-3.055 1.241,-4.165 0.828,-1.122 1.911,-1.682 3.251,-1.682 1.339,0 2.422,0.56 3.25,1.682 0.827,1.11 1.241,2.499 1.241,4.165 0,1.655 -0.414,3.043 -1.241,4.165 z m -3.25,0.245 c 0.892,0 1.606,-0.42 2.139,-1.258 0.545,-0.838 0.817,-1.889 0.817,-3.152 0,-1.274 -0.272,-2.325 -0.817,-3.153 -0.533,-0.838 -1.247,-1.257 -2.139,-1.257 -0.904,0 -1.623,0.419 -2.156,1.257 -0.534,0.828 -0.801,1.879 -0.801,3.153 0,1.263 0.267,2.314 0.801,3.152 0.533,0.838 1.252,1.258 2.156,1.258 z"
         fill="#ffffff"
         id="path7" />
      <path
         d="M 15.677,40.831 H 14.104 V 38.369 H 8.547 v -1.197 l 5.42,-8.036 h 1.71 v 7.762 h 1.504 v 1.471 h -1.504 z m -1.573,-3.933 v -5.454 h -0.069 l -3.71,5.454 z"
         fill="#ffffff"
         id="path8" />
      <path
         d="m 37.425,39.867 c -0.729,0.642 -1.627,0.964 -2.695,0.964 -1.067,0 -1.965,-0.322 -2.694,-0.964 -0.73,-0.642 -1.095,-1.437 -1.095,-2.385 0,-0.62 0.169,-1.165 0.507,-1.633 0.337,-0.479 0.778,-0.855 1.323,-1.127 v -0.065 c -0.425,-0.272 -0.774,-0.615 -1.046,-1.029 -0.272,-0.425 -0.408,-0.866 -0.408,-1.323 0,-0.904 0.321,-1.655 0.964,-2.254 0.642,-0.61 1.459,-0.915 2.449,-0.915 0.991,0 1.808,0.305 2.45,0.915 0.643,0.599 0.964,1.35 0.964,2.254 0,0.457 -0.136,0.898 -0.408,1.323 -0.272,0.414 -0.621,0.757 -1.046,1.029 v 0.065 c 0.545,0.272 0.986,0.648 1.323,1.127 0.338,0.468 0.507,1.013 0.507,1.633 0,0.948 -0.365,1.743 -1.095,2.385 z m -4.05,-6.321 c 0.359,0.316 0.811,0.474 1.355,0.474 0.545,0 0.991,-0.158 1.34,-0.474 0.359,-0.327 0.539,-0.751 0.539,-1.274 0,-0.523 -0.18,-0.936 -0.539,-1.241 -0.349,-0.305 -0.795,-0.457 -1.34,-0.457 -0.544,0 -0.996,0.152 -1.355,0.457 -0.349,0.305 -0.523,0.718 -0.523,1.241 0,0.523 0.174,0.947 0.523,1.274 z m -0.245,5.292 c 0.435,0.37 0.969,0.555 1.6,0.555 0.632,0 1.166,-0.185 1.601,-0.555 0.436,-0.37 0.653,-0.849 0.653,-1.437 0,-0.577 -0.217,-1.051 -0.653,-1.421 -0.435,-0.37 -0.969,-0.556 -1.601,-0.556 -0.631,0 -1.165,0.186 -1.6,0.556 -0.436,0.37 -0.653,0.844 -0.653,1.421 0,0.588 0.217,1.067 0.653,1.437 z"
         id="path9" />
    </g>
  </g>
</svg>
