<?xml version="1.0" encoding="UTF-8" standalone="no"?>
<svg
   height="62"
   width="62"
   version="1.1"
   id="svg12"
   sodipodi:docname="3D-Coat.svg"
   inkscape:version="1.4 (e7c3feb100, 2024-10-09)"
   xmlns:inkscape="http://www.inkscape.org/namespaces/inkscape"
   xmlns:sodipodi="http://sodipodi.sourceforge.net/DTD/sodipodi-0.dtd"
   xmlns:xlink="http://www.w3.org/1999/xlink"
   xmlns="http://www.w3.org/2000/svg"
   xmlns:svg="http://www.w3.org/2000/svg">
  <defs
     id="defs16">
    <linearGradient
       inkscape:collect="always"
       id="linearGradient811">
      <stop
         style="stop-color:#aa87de;stop-opacity:1;"
         offset="0"
         id="stop807" />
      <stop
         style="stop-color:#5599ff;stop-opacity:1"
         offset="1"
         id="stop809" />
    </linearGradient>
    <linearGradient
       inkscape:collect="always"
       xlink:href="#linearGradient811"
       id="linearGradient1428"
       gradientUnits="userSpaceOnUse"
       gradientTransform="matrix(1.3303935,0,0,1.3333333,89.71846,8.9721553)"
       x1="3"
       y1="24"
       x2="63.290558"
       y2="23.403431" />
    <inkscape:path-effect
       effect="fillet_chamfer"
       id="path-effect4"
       is_visible="true"
       lpeversion="1"
       nodesatellites_param="F,0,0,1,0,0,0,1 @ F,0,0,1,0,0,0,1 @ F,0,0,1,0,0,0,1 @ F,0,0,1,0,0,0,1 @ F,0,1,1,0,3.4222554,0,1 @ F,0,0,1,0,0,0,1 @ F,0,0,1,0,0,0,1 @ F,0,0,1,0,0,0,1 @ F,0,0,1,0,1.4632273,0,1 @ F,0,0,1,0,0,0,1 @ F,0,0,1,0,0,0,1 @ F,0,0,1,0,0,0,1 @ F,0,0,1,0,0,0,1 @ F,0,0,1,0,0,0,1 @ F,0,0,1,0,0,0,1 @ F,0,0,1,0,0,0,1 @ F,0,0,1,0,0,0,1 @ F,0,0,1,0,0,0,1 @ F,0,0,1,0,0,0,1 @ F,0,0,1,0,0,0,1 @ F,0,0,1,0,0,0,1 @ F,0,0,1,0,0,0,1 @ F,0,0,1,0,0,0,1 @ F,0,0,1,0,0,0,1 @ F,0,0,1,0,0,0,1 @ F,0,0,1,0,0,0,1"
       radius="0"
       unit="px"
       method="auto"
       mode="F"
       chamfer_steps="1"
       flexible="false"
       use_knot_distance="true"
       apply_no_radius="true"
       apply_with_radius="true"
       only_selected="false"
       hide_knots="false" />
    <filter
       inkscape:collect="always"
       style="color-interpolation-filters:sRGB"
       id="filter1"
       x="-0.10809997"
       y="-0.14863745"
       width="1.2161999"
       height="1.2972749">
      <feGaussianBlur
         inkscape:collect="always"
         stdDeviation="1.8188796"
         id="feGaussianBlur1" />
    </filter>
    <inkscape:path-effect
       effect="fillet_chamfer"
       id="path-effect4-3"
       is_visible="true"
       lpeversion="1"
       nodesatellites_param="F,0,0,1,0,0,0,1 @ F,0,0,1,0,0,0,1 @ F,0,0,1,0,0,0,1 @ F,0,0,1,0,0,0,1 @ F,0,1,1,0,3.4222554,0,1 @ F,0,0,1,0,0,0,1 @ F,0,0,1,0,0,0,1 @ F,0,0,1,0,0,0,1 @ F,0,0,1,0,1.4632273,0,1 @ F,0,0,1,0,0,0,1 @ F,0,0,1,0,0,0,1 @ F,0,0,1,0,0,0,1 @ F,0,0,1,0,0,0,1 @ F,0,0,1,0,0,0,1 @ F,0,0,1,0,0,0,1 @ F,0,0,1,0,0,0,1 @ F,0,0,1,0,0,0,1 @ F,0,0,1,0,0,0,1 @ F,0,0,1,0,0,0,1 @ F,0,0,1,0,0,0,1 @ F,0,0,1,0,0,0,1 @ F,0,0,1,0,0,0,1 @ F,0,0,1,0,0,0,1 @ F,0,0,1,0,0,0,1 @ F,0,0,1,0,0,0,1 @ F,0,0,1,0,0,0,1"
       radius="0"
       unit="px"
       method="auto"
       mode="F"
       chamfer_steps="1"
       flexible="false"
       use_knot_distance="true"
       apply_no_radius="true"
       apply_with_radius="true"
       only_selected="false"
       hide_knots="false" />
  </defs>
  <sodipodi:namedview
     id="namedview14"
     pagecolor="#ffffff"
     bordercolor="#666666"
     borderopacity="1.0"
     inkscape:pageshadow="2"
     inkscape:pageopacity="0.0"
     inkscape:pagecheckerboard="0"
     showgrid="false"
     inkscape:zoom="5.7894368"
     inkscape:cx="72.632281"
     inkscape:cy="61.664029"
     inkscape:window-width="1920"
     inkscape:window-height="994"
     inkscape:window-x="0"
     inkscape:window-y="0"
     inkscape:window-maximized="1"
     inkscape:current-layer="svg12"
     inkscape:showpageshadow="2"
     inkscape:deskcolor="#d1d1d1" />
  <g
     id="g1"
     transform="translate(-90.709642,-9.972155)">
    <path
       id="path2-7"
       style="fill:url(#linearGradient1428);fill-opacity:1;stroke-width:1.41923"
       d="M 121.71084,12.972155 A 27.999928,28.001136 0 0 0 93.709643,40.972156 27.999928,28.001136 0 0 0 121.71084,68.972155 27.999928,28.001136 0 0 0 149.70964,40.972156 27.999928,28.001136 0 0 0 121.71084,12.972155 Z" />
    <path
       style="fill:#ffffff;stroke-width:1.3036"
       d="m 22,22 c -2,0 -2,2 -2,2 v 2 c 0,0 0,6 -5,6 -1.255992,0 -2.19314,-0.377185 -2.893528,-0.942548 -1.447646,-1.168559 -2.053861,-1.364422 -2.10018,0.523164 C 10.002863,31.720361 10.000765,31.860162 10,32 10,44.150264 19.849736,54 32,54 44.150264,54 54,44.150264 54,32 53.993555,30.829991 53.893788,29.663143 53.702015,28.51051 53.56941,27.713498 52.666824,27.254865 52.288338,27.941752 52.002956,28.459672 52,29 52,29 v 7 c 0,0 0,2 -2,2 -2,0 -2,-2 -2,-2 v -6 c 0,0 0,-2 -2,-2 -2,0 -2,2 -2,2 v 8 c 0,0 0,3 -4,3 -4,0 -4,-4 -4,-4 V 26 c 0,0 0,-4 -4,-4 -4,0 -4,4 -4,4 v 17 c 0,0 0,2 -2,2 -2,0 -2,-2 -2,-2 V 24 c 0,0 0,-2 -2,-2 z"
       id="path4"
       inkscape:path-effect="#path-effect4"
       inkscape:original-d="m 22,22 c -2,0 -2,2 -2,2 v 2 c 0,0 0,6 -5,6 -2.965502,0 -4.153541,-2.102701 -4.644531,-3.820312 A 22,22 0 0 0 10,32 22,22 0 0 0 32,54 22,22 0 0 0 54,32 22,22 0 0 0 53.414062,27.076172 C 52.008607,27.426942 52,29 52,29 v 7 c 0,0 0,2 -2,2 -2,0 -2,-2 -2,-2 v -6 c 0,0 0,-2 -2,-2 -2,0 -2,2 -2,2 v 8 c 0,0 0,3 -4,3 -4,0 -4,-4 -4,-4 V 26 c 0,0 0,-4 -4,-4 -4,0 -4,4 -4,4 v 17 c 0,0 0,2 -2,2 -2,0 -2,-2 -2,-2 V 24 c 0,0 0,-2 -2,-2 z"
       transform="matrix(0.97802368,0,0,0.96259068,90.593051,11.832287)" />
    <path
       style="mix-blend-mode:normal;fill:none;stroke:#001aff;stroke-width:0.782175;stroke-dasharray:none;stroke-opacity:1;filter:url(#filter1)"
       d="m 22,22 c -2,0 -2,2 -2,2 v 2 c 0,0 0,6 -5,6 -1.255992,0 -2.19314,-0.377185 -2.893528,-0.942548 -1.447646,-1.168559 -2.053861,-1.364422 -2.10018,0.523164 C 10.002863,31.720361 10.000765,31.860162 10,32 10,44.150264 19.849736,54 32,54 44.150264,54 54,44.150264 54,32 53.993555,30.829991 53.893788,29.663143 53.702015,28.51051 53.56941,27.713498 52.666824,27.254865 52.288338,27.941752 52.002956,28.459672 52,29 52,29 v 7 c 0,0 0,2 -2,2 -2,0 -2,-2 -2,-2 v -6 c 0,0 0,-2 -2,-2 -2,0 -2,2 -2,2 v 8 c 0,0 0,3 -4,3 -4,0 -4,-4 -4,-4 V 26 c 0,0 0,-4 -4,-4 -4,0 -4,4 -4,4 v 17 c 0,0 0,2 -2,2 -2,0 -2,-2 -2,-2 V 24 c 0,0 0,-2 -2,-2 z"
       id="path4-5-4"
       inkscape:path-effect="#path-effect4-3"
       inkscape:original-d="m 22,22 c -2,0 -2,2 -2,2 v 2 c 0,0 0,6 -5,6 -2.965502,0 -4.153541,-2.102701 -4.644531,-3.820312 A 22,22 0 0 0 10,32 22,22 0 0 0 32,54 22,22 0 0 0 54,32 22,22 0 0 0 53.414062,27.076172 C 52.008607,27.426942 52,29 52,29 v 7 c 0,0 0,2 -2,2 -2,0 -2,-2 -2,-2 v -6 c 0,0 0,-2 -2,-2 -2,0 -2,2 -2,2 v 8 c 0,0 0,3 -4,3 -4,0 -4,-4 -4,-4 V 26 c 0,0 0,-4 -4,-4 -4,0 -4,4 -4,4 v 17 c 0,0 0,2 -2,2 -2,0 -2,-2 -2,-2 V 24 c 0,0 0,-2 -2,-2 z"
       transform="matrix(0.97802368,0,0,0.96259068,90.351151,11.881055)" />
  </g>
</svg>
