<?xml version="1.0" encoding="UTF-8" standalone="no"?>
<svg
   width="62"
   height="62"
   version="1.1"
   id="svg6"
   sodipodi:docname="3depict.svg"
   inkscape:version="1.4 (e7c3feb100, 2024-10-09)"
   xmlns:inkscape="http://www.inkscape.org/namespaces/inkscape"
   xmlns:sodipodi="http://sodipodi.sourceforge.net/DTD/sodipodi-0.dtd"
   xmlns="http://www.w3.org/2000/svg"
   xmlns:svg="http://www.w3.org/2000/svg">
  <defs
     id="defs6" />
  <sodipodi:namedview
     id="namedview6"
     pagecolor="#ffffff"
     bordercolor="#000000"
     borderopacity="0.25"
     inkscape:showpageshadow="2"
     inkscape:pageopacity="0.0"
     inkscape:pagecheckerboard="0"
     inkscape:deskcolor="#d1d1d1"
     inkscape:zoom="11.78125"
     inkscape:cx="31.95756"
     inkscape:cy="32"
     inkscape:window-width="1920"
     inkscape:window-height="994"
     inkscape:window-x="0"
     inkscape:window-y="0"
     inkscape:window-maximized="1"
     inkscape:current-layer="svg6" />
  <g
     id="g6"
     transform="translate(-1.000157,-1.500001)">
    <ellipse
       cx="43.709297"
       cy="25.35416"
       style="opacity:0.49854651;stroke-width:1.01953;fill:#e54333;fill-opacity:1"
       id="circle1"
       rx="16.291"
       ry="16.333334" />
    <ellipse
       cx="43.709297"
       cy="24.333334"
       style="fill:#e54333;stroke-width:1.01953"
       id="circle2"
       rx="16.291"
       ry="16.333334" />
    <path
       d="m 43.709312,8 a 16.291002,16.333335 0 0 0 -16.291,16.333335 16.291002,16.333335 0 0 0 0.02187,0.592164 A 16.291002,16.333335 0 0 1 43.709312,9.0208335 16.291002,16.333335 0 0 1 59.97844,24.762001 16.291002,16.333335 0 0 0 60.000314,24.333335 16.291002,16.333335 0 0 0 43.709312,8 Z"
       style="opacity:0.2;fill:#ffffff;stroke-width:1.01953"
       id="path2" />
    <ellipse
       cx="20.291"
       cy="31.479172"
       style="opacity:0.59593023;stroke-width:1.01953;fill:#0fd925;fill-opacity:1"
       id="circle3"
       rx="16.291"
       ry="16.333334" />
    <ellipse
       cx="20.291"
       cy="30.458345"
       style="fill:#0fd925;stroke-width:1.01953"
       id="circle4"
       rx="16.291"
       ry="16.333334" />
    <ellipse
       cx="38.618362"
       cy="40.666668"
       style="opacity:0.65261628;stroke-width:1.01953;fill:#4168b5;fill-opacity:1"
       id="circle5"
       rx="16.291"
       ry="16.333334" />
    <path
       d="M 20.291002,14.124999 A 16.291002,16.333335 0 0 0 4,30.458336 16.291002,16.333335 0 0 0 4.0218755,31.050501 16.291002,16.333335 0 0 1 20.291002,15.14583 16.291002,16.333335 0 0 1 36.560128,30.887 16.291002,16.333335 0 0 0 36.582003,30.458336 16.291002,16.333335 0 0 0 20.291002,14.124999 Z"
       style="opacity:0.2;fill:#ffffff;stroke-width:1.01953"
       id="path5" />
    <ellipse
       cx="38.618362"
       cy="39.645813"
       style="fill:#4168b5;stroke-width:1.01953"
       id="circle6"
       rx="16.291"
       ry="16.333334" />
    <path
       d="m 38.618373,23.312502 a 16.291002,16.333335 0 0 0 -16.291,16.333336 16.291002,16.333335 0 0 0 0.02187,0.592156 A 16.291002,16.333335 0 0 1 38.618371,24.333335 16.291002,16.333335 0 0 1 54.8875,40.074502 16.291002,16.333335 0 0 0 54.90938,39.645838 16.291002,16.333335 0 0 0 38.618381,23.312502 Z"
       style="opacity:0.2;fill:#ffffff;stroke-width:1.01953"
       id="path6" />
  </g>
</svg>
