<?xml version="1.0" encoding="UTF-8" standalone="no"?>
<svg
   height="62"
   width="62"
   version="1.1"
   id="svg12"
   sodipodi:docname="4kvideotomp3.svg"
   inkscape:version="1.4 (e7c3feb100, 2024-10-09)"
   xmlns:inkscape="http://www.inkscape.org/namespaces/inkscape"
   xmlns:sodipodi="http://sodipodi.sourceforge.net/DTD/sodipodi-0.dtd"
   xmlns:xlink="http://www.w3.org/1999/xlink"
   xmlns="http://www.w3.org/2000/svg"
   xmlns:svg="http://www.w3.org/2000/svg">
  <defs
     id="defs16">
    <linearGradient
       inkscape:collect="always"
       id="linearGradient811">
      <stop
         style="stop-color:#aa87de;stop-opacity:1;"
         offset="0"
         id="stop807" />
      <stop
         style="stop-color:#5599ff;stop-opacity:1"
         offset="1"
         id="stop809" />
    </linearGradient>
    <linearGradient
       inkscape:collect="always"
       xlink:href="#linearGradient811"
       id="linearGradient1428"
       gradientUnits="userSpaceOnUse"
       gradientTransform="matrix(1.3303936,0,0,1.3333333,5.6311746,8.6393993)"
       x1="3"
       y1="24"
       x2="63.290558"
       y2="23.403431" />
    <inkscape:path-effect
       effect="fillet_chamfer"
       id="path-effect4"
       is_visible="true"
       lpeversion="1"
       nodesatellites_param="F,0,0,1,0,0,0,1 @ F,0,0,1,0,0,0,1 @ F,0,0,1,0,0,0,1 @ F,0,0,1,0,0,0,1 @ F,0,1,1,0,3.4222554,0,1 @ F,0,0,1,0,0,0,1 @ F,0,0,1,0,0,0,1 @ F,0,0,1,0,0,0,1 @ F,0,0,1,0,1.4632273,0,1 @ F,0,0,1,0,0,0,1 @ F,0,0,1,0,0,0,1 @ F,0,0,1,0,0,0,1 @ F,0,0,1,0,0,0,1 @ F,0,0,1,0,0,0,1 @ F,0,0,1,0,0,0,1 @ F,0,0,1,0,0,0,1 @ F,0,0,1,0,0,0,1 @ F,0,0,1,0,0,0,1 @ F,0,0,1,0,0,0,1 @ F,0,0,1,0,0,0,1 @ F,0,0,1,0,0,0,1 @ F,0,0,1,0,0,0,1 @ F,0,0,1,0,0,0,1 @ F,0,0,1,0,0,0,1 @ F,0,0,1,0,0,0,1 @ F,0,0,1,0,0,0,1"
       radius="0"
       unit="px"
       method="auto"
       mode="F"
       chamfer_steps="1"
       flexible="false"
       use_knot_distance="true"
       apply_no_radius="true"
       apply_with_radius="true"
       only_selected="false"
       hide_knots="false" />
    <inkscape:path-effect
       effect="fillet_chamfer"
       id="path-effect4-3"
       is_visible="true"
       lpeversion="1"
       nodesatellites_param="F,0,0,1,0,0,0,1 @ F,0,0,1,0,0,0,1 @ F,0,0,1,0,0,0,1 @ F,0,0,1,0,0,0,1 @ F,0,1,1,0,3.4222554,0,1 @ F,0,0,1,0,0,0,1 @ F,0,0,1,0,0,0,1 @ F,0,0,1,0,0,0,1 @ F,0,0,1,0,1.4632273,0,1 @ F,0,0,1,0,0,0,1 @ F,0,0,1,0,0,0,1 @ F,0,0,1,0,0,0,1 @ F,0,0,1,0,0,0,1 @ F,0,0,1,0,0,0,1 @ F,0,0,1,0,0,0,1 @ F,0,0,1,0,0,0,1 @ F,0,0,1,0,0,0,1 @ F,0,0,1,0,0,0,1 @ F,0,0,1,0,0,0,1 @ F,0,0,1,0,0,0,1 @ F,0,0,1,0,0,0,1 @ F,0,0,1,0,0,0,1 @ F,0,0,1,0,0,0,1 @ F,0,0,1,0,0,0,1 @ F,0,0,1,0,0,0,1 @ F,0,0,1,0,0,0,1"
       radius="0"
       unit="px"
       method="auto"
       mode="F"
       chamfer_steps="1"
       flexible="false"
       use_knot_distance="true"
       apply_no_radius="true"
       apply_with_radius="true"
       only_selected="false"
       hide_knots="false" />
  </defs>
  <sodipodi:namedview
     id="namedview14"
     pagecolor="#ffffff"
     bordercolor="#666666"
     borderopacity="1.0"
     inkscape:pageshadow="2"
     inkscape:pageopacity="0.0"
     inkscape:pagecheckerboard="0"
     showgrid="false"
     inkscape:zoom="5.7894368"
     inkscape:cx="72.632281"
     inkscape:cy="61.664029"
     inkscape:window-width="1920"
     inkscape:window-height="994"
     inkscape:window-x="0"
     inkscape:window-y="0"
     inkscape:window-maximized="1"
     inkscape:current-layer="svg12"
     inkscape:showpageshadow="2"
     inkscape:deskcolor="#d1d1d1" />
  <g
     id="g2"
     transform="translate(-6.6223552,-9.6393985)">
    <path
       id="path2-7"
       style="fill:url(#linearGradient1428);fill-opacity:1;stroke-width:1.41923"
       d="M 37.623557,12.639399 A 27.999928,28.001135 0 0 0 9.6223555,40.6394 27.999928,28.001135 0 0 0 37.623557,68.639398 27.999928,28.001135 0 0 0 65.622355,40.6394 27.999928,28.001135 0 0 0 37.623557,12.639399 Z" />
    <path
       d="m 39.918739,38.286121 c -0.798156,0 -1.516463,-0.442 -1.8557,-1.165922 l -2.893287,-5.809534 -0.838067,1.567927 c -0.459266,0.8644 -1.376851,1.407129 -2.354597,1.407129 h -1.456635 c -0.81814,0 -1.496547,-0.683456 -1.496547,-1.507658 0,-0.824198 0.678407,-1.507658 1.496547,-1.507658 h 1.277059 l 1.576356,-2.93494 c 0.379188,-0.683454 1.137353,-1.1458 1.855686,-1.105601 0.778214,0 1.476577,0.462657 1.835756,1.145801 l 2.853429,5.749198 0.678421,-1.38707 c 0.459266,-0.924728 1.356882,-1.487528 2.394495,-1.487528 h 1.616257 c 0.818138,0 1.496559,0.683459 1.496559,1.507668 0,0.82419 -0.678421,1.507672 -1.496559,1.507672 h -1.416723 l -1.41675,2.834463 c -0.35934,0.7438 -1.057557,1.186 -1.85578,1.186 z"
       id="path1-3-6-3"
       style="fill:#f9f9f9;fill-opacity:0.9;stroke-width:1.33185" />
    <path
       d="m 19.10501,51.935844 c -0.818125,0 -1.49656,-0.683446 -1.49656,-1.507664 V 38.970008 c -0.09978,-5.447716 1.915594,-10.593857 5.666918,-14.453458 3.751365,-3.8395 8.779774,-5.950214 14.187252,-5.950214 11.054493,0 20.053701,9.066045 20.053701,20.202632 v 11.458216 c 0,0.824182 -0.678408,1.507665 -1.49656,1.507665 -0.818113,0 -1.496559,-0.683483 -1.496559,-1.507665 V 38.768968 c 0,-9.468113 -7.642341,-17.187313 -17.060609,-17.187313 -4.609309,0 -8.879446,1.78906 -12.052156,5.045596 -3.192625,3.27666 -4.888678,7.638801 -4.80888,12.302508 v 11.478306 c 0,0.844276 -0.658452,1.527725 -1.496547,1.527779 z"
       id="path2-6-7-6"
       style="fill:#f9f9f9;fill-opacity:0.998869;stroke-width:1.33185" />
    <path
       d="m 25.470691,39.469325 h -0.259427 c -4.190341,0 -7.602441,3.437484 -7.602441,7.658901 v 3.779199 c 0,4.221477 3.41214,7.658909 7.602441,7.658909 h 0.259427 c 4.190341,0 7.602442,-3.437467 7.602442,-7.658909 v -3.779199 c 0,-4.221449 -3.412128,-7.658901 -7.602442,-7.658901 z"
       id="path3-7-5-7"
       style="fill:#f9f9f9;fill-opacity:0.90724;stroke-width:1.33185" />
    <path
       d="m 49.914279,39.469325 h -0.259412 c -4.190356,0 -7.602456,3.437484 -7.602456,7.658901 v 3.779199 c 0,4.221477 3.41214,7.658909 7.602456,7.658909 h 0.259412 c 4.190341,0 7.602441,-3.437467 7.602441,-7.658909 v -3.779199 c 0,-4.221449 -3.412127,-7.658901 -7.602441,-7.658901 z"
       id="path4-7-5-3-5"
       style="fill:#f9f9f9;fill-opacity:0.902715;stroke-width:1.33185" />
    <ellipse
       style="opacity:0.2;stroke-width:1.33181"
       cx="56.274708"
       cy="58.955574"
       id="circle5"
       rx="8.3593225"
       ry="8.3777943" />
    <ellipse
       style="fill:#f1f1f1;fill-opacity:0.6;stroke-width:1.33181"
       cx="56.274708"
       cy="58.377792"
       id="circle6"
       rx="8.3593225"
       ry="8.3777943" />
    <ellipse
       style="fill:#3f3f3f;stroke-width:1.33181"
       cx="56.274708"
       cy="54.333344"
       id="circle7"
       rx="2.0177674"
       ry="2.0222259" />
    <ellipse
       style="fill:#3f3f3f;stroke-width:1.33181"
       cx="56.274708"
       cy="62.422249"
       id="circle8"
       rx="2.0177674"
       ry="2.0222259" />
    <ellipse
       style="fill:#3f3f3f;stroke-width:1.33181"
       cx="58.377792"
       cy="-60.310268"
       transform="rotate(90)"
       id="circle9"
       rx="2.0222259"
       ry="2.0177674" />
    <ellipse
       style="fill:#3f3f3f;stroke-width:1.33181"
       cx="58.377792"
       cy="-52.239174"
       transform="rotate(90)"
       id="circle10"
       rx="2.0222259"
       ry="2.0177674" />
  </g>
</svg>
