<?xml version="1.0" encoding="UTF-8" standalone="no"?>
<svg
   width="62"
   height="62"
   version="1"
   id="svg13"
   sodipodi:docname="7-zipa.svg"
   inkscape:version="1.4 (e7c3feb100, 2024-10-09)"
   xmlns:inkscape="http://www.inkscape.org/namespaces/inkscape"
   xmlns:sodipodi="http://sodipodi.sourceforge.net/DTD/sodipodi-0.dtd"
   xmlns="http://www.w3.org/2000/svg"
   xmlns:svg="http://www.w3.org/2000/svg">
  <defs
     id="defs13" />
  <sodipodi:namedview
     id="namedview13"
     pagecolor="#ffffff"
     bordercolor="#000000"
     borderopacity="0.25"
     inkscape:showpageshadow="2"
     inkscape:pageopacity="0.0"
     inkscape:pagecheckerboard="0"
     inkscape:deskcolor="#d1d1d1"
     inkscape:zoom="11.78125"
     inkscape:cx="31.95756"
     inkscape:cy="32.679045"
     inkscape:window-width="1920"
     inkscape:window-height="994"
     inkscape:window-x="0"
     inkscape:window-y="0"
     inkscape:window-maximized="1"
     inkscape:current-layer="svg13" />
  <g
     id="g13"
     transform="translate(-0.5,-1.0000005)">
    <rect
       style="opacity:0.2;stroke-width:0.982303"
       width="55"
       height="55.017544"
       x="4"
       y="4.9824572"
       rx="5.5"
       ry="5.5017543"
       id="rect1" />
    <rect
       style="fill:#008080;stroke-width:0.982303"
       width="55"
       height="55.017544"
       x="4"
       y="4"
       rx="5.5"
       ry="5.5017543"
       id="rect2" />
    <rect
       style="opacity:0.2;stroke-width:0.982303"
       width="9.8214293"
       height="26.526318"
       x="25.607143"
       y="4"
       id="rect3" />
    <rect
       style="fill:#ffffff;stroke-width:0.982303"
       width="2.946429"
       height="2.9473689"
       x="30.517859"
       y="4"
       id="rect4" />
    <rect
       style="fill:#ffffff;stroke-width:0.982303"
       width="2.946429"
       height="2.9473689"
       x="27.571432"
       y="24.631577"
       id="rect5" />
    <path
       style="fill:#4b4b4b;stroke-width:0.982303"
       d="m 30.517856,24.631579 c 3.683037,0 3.683037,5.501754 4.910715,5.501754 v 6.877192 c 0,0.761996 -0.547543,1.375437 -1.227678,1.375437 h -7.366072 c -0.680134,0 -1.227679,-0.613441 -1.227679,-1.375437 v -6.877192 c 1.227679,0 1.227679,-5.501754 4.910714,-5.501754 z"
       id="path5" />
    <path
       style="opacity:0.2;stroke-width:0.982303"
       d="m 30.191757,31.508773 c -2.539168,0 -4.584615,2.065834 -4.584615,4.628287 v 9.410089 c 0,2.562456 2.045447,4.62829 4.584615,4.62829 h 0.652204 c 2.539163,0 4.58461,-2.065833 4.58461,-4.62829 V 36.13706 c 0,-2.562453 -2.045447,-4.628287 -4.58461,-4.628287 z m 0.326099,9.824559 c 2.169694,4e-6 3.928575,1.76143 3.928575,3.931744 0,2.170319 -1.758881,3.927907 -3.928575,3.927907 -2.169689,0 -3.928569,-1.757588 -3.928569,-3.927907 0,-2.170314 1.75888,-3.93174 3.928569,-3.931744 z"
       id="path6" />
    <path
       style="fill:#ffffff;stroke-width:0.982303"
       d="m 30.191757,30.526315 c -2.539168,0 -4.584615,2.065835 -4.584615,4.628291 v 9.410087 c 0,2.562455 2.045447,4.62829 4.584615,4.62829 h 0.652204 c 2.539163,0 4.58461,-2.065834 4.58461,-4.62829 v -9.410087 c 0,-2.562456 -2.045447,-4.628291 -4.58461,-4.628291 z m 0.326099,9.824562 c 2.169694,4e-6 3.928575,1.761426 3.928575,3.931744 0,2.170317 -1.758881,3.927905 -3.928575,3.927905 -2.169689,0 -3.928569,-1.757588 -3.928569,-3.927905 0,-2.170318 1.75888,-3.93174 3.928569,-3.931744 z"
       id="path7" />
    <path
       style="fill:#909090;stroke-width:0.982303"
       d="m 30.502513,26.596612 a 0.98224109,0.97912299 0 0 0 -0.966797,0.99241 v 5.87415 a 0.98224109,0.97912299 0 1 0 1.964284,0 v -5.87415 a 0.98224109,0.97912299 0 0 0 -0.997487,-0.99241 z"
       id="path8" />
    <rect
       style="fill:#ffffff;stroke-width:0.982303"
       width="2.946429"
       height="2.9473689"
       x="27.571432"
       y="6.9473677"
       id="rect8" />
    <rect
       style="fill:#ffffff;stroke-width:0.982303"
       width="2.946429"
       height="2.9473689"
       x="30.517859"
       y="9.8947353"
       id="rect9" />
    <rect
       style="fill:#ffffff;stroke-width:0.982303"
       width="2.946429"
       height="2.9473689"
       x="27.571432"
       y="12.842106"
       id="rect10" />
    <rect
       style="fill:#ffffff;stroke-width:0.982303"
       width="2.946429"
       height="2.9473689"
       x="30.517859"
       y="15.789476"
       id="rect11" />
    <rect
       style="fill:#ffffff;stroke-width:0.982303"
       width="2.946429"
       height="2.9473689"
       x="27.571432"
       y="18.736843"
       id="rect12" />
    <rect
       style="fill:#ffffff;stroke-width:0.982303"
       width="2.946429"
       height="2.9473689"
       x="30.517859"
       y="21.684212"
       id="rect13" />
    <path
       style="opacity:0.2;fill:#ffffff;stroke-width:0.982303"
       d="M 9.4996163,4 C 6.4526163,4 4,6.4533987 4,9.5013706 V 10.483829 C 4,7.4358546 6.4526163,4.982456 9.4996163,4.982456 H 53.500384 C 56.547384,4.982456 59,7.4358546 59,10.483829 V 9.5013706 C 59,6.4533987 56.547384,4 53.500384,4 Z"
       id="path13" />
  </g>
</svg>
