<?xml version="1.0" encoding="UTF-8" standalone="no"?>
<svg
   width="62"
   height="62"
   version="1.1"
   id="svg5"
   sodipodi:docname="8bitmmo.svg"
   inkscape:version="1.4 (e7c3feb100, 2024-10-09)"
   xmlns:inkscape="http://www.inkscape.org/namespaces/inkscape"
   xmlns:sodipodi="http://sodipodi.sourceforge.net/DTD/sodipodi-0.dtd"
   xmlns="http://www.w3.org/2000/svg"
   xmlns:svg="http://www.w3.org/2000/svg">
  <defs
     id="defs5" />
  <sodipodi:namedview
     id="namedview5"
     pagecolor="#ffffff"
     bordercolor="#000000"
     borderopacity="0.25"
     inkscape:showpageshadow="2"
     inkscape:pageopacity="0.0"
     inkscape:pagecheckerboard="0"
     inkscape:deskcolor="#d1d1d1"
     inkscape:zoom="11.6875"
     inkscape:cx="31.957219"
     inkscape:cy="32.941176"
     inkscape:window-width="1920"
     inkscape:window-height="998"
     inkscape:window-x="0"
     inkscape:window-y="0"
     inkscape:window-maximized="1"
     inkscape:current-layer="svg5" />
  <rect
     style="opacity:0.2;stroke-width:0.9823"
     width="55"
     height="55.017544"
     x="3.5"
     y="3.9824562"
     rx="8.25"
     ry="8.2526312"
     id="rect1" />
  <rect
     style="fill:#212e3f;stroke-width:0.9823"
     width="55"
     height="55.017544"
     x="3.5"
     y="3"
     rx="8.25"
     ry="8.2526312"
     id="rect2" />
  <path
     style="opacity:0.1;fill:#ffffff;stroke-width:0.9823"
     d="M 11.748466,3 C 7.1779651,3 3.4999999,6.6791384 3.4999999,11.251097 v 0.982456 c 0,-4.5719585 3.6779652,-8.2510968 8.2484661,-8.2510968 h 38.503068 c 4.5705,0 8.248466,3.6791383 8.248466,8.2510968 V 11.251097 C 58.5,6.6791384 54.822034,3 50.251534,3 Z"
     id="path4" />
  <g
     id="g1"
     transform="matrix(0.74509804,0,0,0.9767442,7.9019608,7.572068)">
    <path
       d="m 9.5,10.652406 v 28 h 4 v 4 h -4 v 4 h -4 v 6 h 51 v -5 h -4 v -5 h -4 v -4 h 4 v -28 z"
       style="opacity:0.2"
       id="path2" />
    <path
       d="M 9.5,9.6524064 V 37.652406 h 4 v 4 h -4 v 4 h -4 v 6 h 51 v -5 h -4 v -5 h -4 v -4 h 4 V 9.6524064 Z"
       style="fill:#456487;fill-opacity:1"
       id="path3" />
    <path
       d="m 13.5,14.652406 v 24 h 35 v -24 z m 5,6 h 8 v 4 h -8 z m 17,0 h 8 v 4 h -8 z m -22,22 v 5 h 3 v 5 h 27 v -6 h 5 v -4 z"
       style="opacity:0.2"
       id="path4-3" />
    <path
       d="m 13.5,13.652406 v 24 h 35 v -24 z m 5,6 h 8 v 4 h -8 z m 17,0 h 8 v 4 h -8 z m -22,22 v 5 h 3 v 5 h 27 v -6 h 5 v -4 z"
       style="fill:#ffffff"
       id="path5" />
    <path
       d="m 9.5,9.6524064 v 0.9999996 h 43 V 9.6524064 Z m 0,31.9999996 v 1 h 4 v -1 z m 39,0 v 1 h 4 v -1 z m -43,4 v 1 h 4 v -1 z m 47,1 v 1 h 4 v -1 z"
       style="opacity:0.1;fill:#ffffff"
       id="path6" />
  </g>
</svg>
