<?xml version="1.0" encoding="UTF-8" standalone="no"?>
<svg
   width="62"
   height="62"
   version="1"
   id="svg5"
   sodipodi:docname="a-boy-and-his-blob.svg"
   inkscape:version="1.4 (unknown)"
   xmlns:inkscape="http://www.inkscape.org/namespaces/inkscape"
   xmlns:sodipodi="http://sodipodi.sourceforge.net/DTD/sodipodi-0.dtd"
   xmlns="http://www.w3.org/2000/svg"
   xmlns:svg="http://www.w3.org/2000/svg">
  <defs
     id="defs5" />
  <sodipodi:namedview
     id="namedview5"
     pagecolor="#ffffff"
     bordercolor="#000000"
     borderopacity="0.25"
     inkscape:showpageshadow="2"
     inkscape:pageopacity="0.0"
     inkscape:pagecheckerboard="0"
     inkscape:deskcolor="#d1d1d1"
     inkscape:zoom="8.3306018"
     inkscape:cx="32.650702"
     inkscape:cy="43.574283"
     inkscape:window-width="1920"
     inkscape:window-height="998"
     inkscape:window-x="0"
     inkscape:window-y="0"
     inkscape:window-maximized="1"
     inkscape:current-layer="svg5" />
  <g
     id="g2">
    <path
       style="fill:#586a8f;fill-opacity:1;stroke-width:0.968596"
       d="M 31.000003,3 C 16.037057,3 3.9910781,15.145789 3.9910781,30.232713 c 0,0.110342 0.010882,0.217973 0.016952,0.326733 C 4.3471304,15.774264 16.251898,3.9725967 31,3.9725967 c 14.748099,0 26.652867,11.8016673 26.991967,26.5868493 0.0062,-0.10876 0.01696,-0.216391 0.01696,-0.326733 C 58.008926,15.145789 45.962946,3 31.000003,3 Z"
       id="path4" />
    <path
       d="m 47.498159,26.835762 c 0,-8.465053 -6.028612,-15.403641 -14.600056,-15.518562 -0.06967,-0.0012 -0.140556,-0.0012 -0.209611,-0.0012 -8.680833,0 -14.997889,7.249658 -14.997889,15.834446 V 39.98551 c 0,0.107099 -0.02322,0.642596 -0.04767,1.308055 -0.077,2.12213 -0.946,4.142571 -2.437111,5.676261 l -0.861054,0.88447 c -0.264611,0.2503 -0.273778,0.66787 -0.01956,0.929 l 0.110611,0.11372 c 1.098166,1.12694 2.573388,1.69373 4.051666,1.69373 1.286389,0 2.574611,-0.4296 3.617778,-1.29181 1.037055,0.8598 2.325278,1.29181 3.615333,1.29181 1.285778,0 2.574,-0.429 3.617167,-1.29181 1.037055,0.8598 2.325889,1.29181 3.615333,1.29181 1.285778,0 2.572778,-0.429 3.615944,-1.29061 0.02628,-0.0217 0.07211,-0.0319 0.134445,-0.0319 0.633111,0 2.967555,1.03249 4.044333,1.03249 0.09289,0 0.176611,-0.008 0.249334,-0.0247 7.761111,-1.80324 6.501,-9.885626 6.501,-15.702079 0,-2.580009 0,-5.158815 0,-7.738223 z M 28.134492,20.163719 c 0,-0.938623 0.773055,-1.699148 1.725778,-1.699148 0.953333,0 1.725777,0.760525 1.725777,1.699148 0,0.938623 -0.773055,1.699148 -1.725777,1.699148 -0.953334,0 -1.725778,-0.761127 -1.725778,-1.699148 z m 9.079889,10.572141 c 0,1.629955 -1.346889,2.95606 -3.002389,2.95606 H 33.79277 c -1.6555,0 -3.002389,-1.326105 -3.002389,-2.95606 v -3.714178 c 0,-1.629955 1.346889,-2.95606 3.002389,-2.95606 h 0.419222 c 1.6555,0 3.002389,1.326105 3.002389,2.95606 z m 0.930722,-8.872993 c -0.953333,0 -1.725778,-0.760525 -1.725778,-1.699148 0,-0.938623 0.772445,-1.699148 1.725778,-1.699148 0.953333,0 1.725778,0.760525 1.725778,1.699148 0,0.938021 -0.772445,1.699148 -1.725778,1.699148 z"
       fill="none"
       id="path1"
       style="fill:#ebeef3;fill-opacity:1;stroke-width:0.606378" />
    <path
       d="m 30.790382,3.874895 c -15.187944,0 -27.5000001,12.122072 -27.5000001,27.075656 0,14.953579 12.3120561,27.075659 27.5000001,27.075659 15.187944,0 27.5,-12.12208 27.5,-27.075659 0,-14.953584 -12.312056,-27.075656 -27.5,-27.075656 z M 40.930549,50.27294 c -0.07272,0.0168 -0.155834,0.0247 -0.249334,0.0247 -1.076778,0 -3.411222,-1.03248 -4.044333,-1.03248 -0.06233,0 -0.108167,0.0102 -0.134445,0.0319 -1.043166,0.8616 -2.330166,1.2906 -3.615944,1.2906 -1.290056,0 -2.578278,-0.432 -3.615333,-1.29181 -1.043167,0.86221 -2.330778,1.29181 -3.617167,1.29181 -1.290055,0 -2.578278,-0.432 -3.615333,-1.29181 -1.043167,0.86221 -2.331389,1.29181 -3.617778,1.29181 -1.477667,0 -2.9535,-0.56678 -4.051667,-1.69373 l -0.110611,-0.11372 c -0.254222,-0.26053 -0.245055,-0.6787 0.01956,-0.92899 l 0.861055,-0.88568 C 16.630942,45.43185 17.49933,43.41141 17.57633,41.28928 17.60078,40.62382 17.624,40.08832 17.624,39.98122 V 27.147926 c 0,-8.584788 6.317056,-15.834446 14.997889,-15.834446 0.06967,0 0.139944,6.02e-4 0.209611,0.0012 8.571444,0.114921 14.600056,7.053509 14.600056,15.518562 v 7.737621 c 0,5.816457 1.2595,13.898837 -6.501,15.702077 z"
       id="path2"
       style="fill:#3d4963;fill-opacity:1;stroke-width:0.606378"
       sodipodi:nodetypes="sssssssscscscscccccssscssss" />
    <ellipse
       cx="29.86027"
       cy="20.264149"
       id="circle2"
       rx="1.7257777"
       ry="1.6991478"
       style="stroke-width:0.606378" />
    <ellipse
       cx="38.145103"
       cy="20.264149"
       id="circle3"
       rx="1.7257777"
       ry="1.6991478"
       style="stroke-width:0.606378" />
    <path
       d="m 34.211993,24.066 h -0.419222 c -1.6555,0 -3.002389,1.326105 -3.002389,2.95606 v 3.714178 c 0,1.629955 1.346889,2.95606 3.002389,2.95606 h 0.419222 c 1.6555,0 3.002389,-1.326105 3.002389,-2.95606 V 27.02206 c 0,-1.629955 -1.346889,-2.95606 -3.002389,-2.95606 z"
       id="path3-3"
       style="stroke-width:0.606378" />
    <path
       style="opacity:0.314711;fill:#586a8f;fill-opacity:1;stroke-width:0.968596"
       d="m 30.999997,59 c 14.962946,0 27.008925,-12.145788 27.008925,-27.232712 0,-0.110342 -0.01088,-0.217973 -0.01695,-0.326733 C 57.652869,46.225737 45.748102,58.027404 31,58.027404 c -14.748099,0 -26.6528685,-11.801667 -26.9919671,-26.586848 -0.00619,0.10876 -0.016962,0.216391 -0.016962,0.326732 C 3.9910743,46.854212 16.037053,59 30.999997,59 Z"
       id="path4-3" />
  </g>
</svg>
