<?xml version="1.0" encoding="UTF-8" standalone="no"?>
<svg
   width="62"
   height="62"
   version="1"
   id="svg5"
   sodipodi:docname="a-story-about-my-uncle.svg"
   inkscape:version="1.4 (e7c3feb100, 2024-10-09)"
   xmlns:inkscape="http://www.inkscape.org/namespaces/inkscape"
   xmlns:sodipodi="http://sodipodi.sourceforge.net/DTD/sodipodi-0.dtd"
   xmlns="http://www.w3.org/2000/svg"
   xmlns:svg="http://www.w3.org/2000/svg">
  <defs
     id="defs5" />
  <sodipodi:namedview
     id="namedview5"
     pagecolor="#ffffff"
     bordercolor="#000000"
     borderopacity="0.25"
     inkscape:showpageshadow="2"
     inkscape:pageopacity="0.0"
     inkscape:pagecheckerboard="0"
     inkscape:deskcolor="#d1d1d1"
     inkscape:zoom="11.78125"
     inkscape:cx="32"
     inkscape:cy="32.084881"
     inkscape:window-width="1920"
     inkscape:window-height="998"
     inkscape:window-x="0"
     inkscape:window-y="0"
     inkscape:window-maximized="1"
     inkscape:current-layer="svg5" />
  <rect
     style="opacity:0.542151;fill:#3d4963;fill-opacity:1;stroke-width:0.982303"
     width="54.999989"
     height="55.017544"
     x="4"
     y="4.9824572"
     rx="27.499994"
     ry="27.508772"
     id="rect1" />
  <rect
     style="fill:#3d4963;stroke-width:0.982303"
     width="54.999989"
     height="55.017544"
     x="4"
     y="4"
     rx="27.499994"
     ry="27.508772"
     id="rect2" />
  <path
     style="fill:#586a8f;fill-opacity:1;stroke-width:0.982303"
     d="M 31.499996,4 C 16.264997,4 4,16.268912 4,31.508773 4,31.620233 4.011076,31.728956 4.017263,31.838818 4.3625296,16.903757 16.483747,4.982456 31.499996,4.982456 c 15.016246,0 27.137465,11.921301 27.48273,26.856362 C 58.989024,31.728956 59,31.620233 59,31.508773 58.99999,16.268912 46.734993,4 31.499996,4 Z"
     id="path4" />
  <path
     style="opacity:0.2;stroke-width:0.993054"
     d="m 30.986069,4.7194962 a 28,27.6124 0 0 0 -2,0.071269 V 18.737566 L 16.521225,31.97557 a 2.0002,1.9725116 0 0 0 0.05078,2.736971 l 12.414064,12.242217 v 12.889383 a 28,27.6124 0 0 0 2,0.100156 28,27.6124 0 0 0 2,-0.07127 V 47.016393 l 7.927734,-7.036001 1.658204,1.635249 a 2.0002,1.9725116 0 1 0 2.828124,-2.788975 l -3,-2.958471 a 2.0002,1.9725116 0 0 0 -2.751953,-0.07127 l -8.589843,7.623458 -10.294922,-10.152411 10.27539,-10.915143 8.533204,8.415079 a 2.0002,1.9725116 0 0 0 2.828124,0 l 3,-2.958471 a 2.0002,1.9725116 0 1 0 -2.828124,-2.788971 l -1.585938,1.563983 -8,-7.889257 V 4.8196532 a 28,27.6124 0 0 0 -2,-0.100157 z m 0,25.6400858 a 3,2.9584715 0 0 0 -3,2.958472 3,2.9584715 0 0 0 3,2.958471 3,2.9584715 0 0 0 3,-2.958471 3,2.9584715 0 0 0 -3,-2.958472 z"
     id="path3" />
  <path
     style="fill:#af83f8;stroke-width:0.990355"
     d="m 30.986069,4.033 c -0.667315,2.449e-4 -1.334408,0.023888 -2,0.070883 V 17.974968 L 16.521225,31.141105 c -0.732238,0.773101 -0.709803,1.975799 0.05078,2.722111 L 28.986069,46.038971 V 58.85838 c 0.665242,0.05659 1.332335,0.08981 2,0.09962 0.667315,-2.44e-4 1.334407,-0.02389 2,-0.07088 V 46.100279 l 7.927734,-6.997804 1.658204,1.626372 c 1.885018,1.925631 4.791444,-0.925004 2.828124,-2.773835 l -3,-2.942409 c -0.752212,-0.737479 -1.961314,-0.768621 -2.751953,-0.07088 l -8.589843,7.582071 -10.294922,-10.097296 10.27539,-10.855885 8.533204,8.369396 c 0.78106,0.765749 2.047064,0.765749 2.828124,0 l 3,-2.942411 c 1.963523,-1.848829 -0.943113,-4.699662 -2.828124,-2.773829 l -1.585938,1.555491 -8,-7.846427 L 32.986,4.033 c -0.665242,-0.056584 -1.332267,0.0098 -1.999931,0 z m 0,25.50089 c -1.656854,0 -3,1.317362 -3,2.94241 0,1.625048 1.343146,2.94241 3,2.94241 1.656854,0 3,-1.317362 3,-2.94241 0,-1.625048 -1.343146,-2.94241 -3,-2.94241 z"
     id="path4-3"
     sodipodi:nodetypes="ccccccccccccccccccccccccccsssss" />
  <path
     style="opacity:0.2;fill:#ffffff;stroke-width:0.993054"
     d="m 30.986069,3.733339 a 28,27.6124 0 0 0 -2,0.07127 v 0.9861571 a 28,27.6124 0 0 1 2,-0.071269 28,27.6124 0 0 1 2,0.1001561 V 3.8334951 a 28,27.6124 0 0 0 -2,-0.1001561 z m 2,13.975696 v 0.986157 l 8,7.889257 1.585938,-1.563983 a 2.0002,1.9725116 0 0 1 3.376953,0.870592 2.0002,1.9725116 0 0 0 -3.376953,-1.856749 l -1.585938,1.563983 z m -4,0.04237 -12.464844,13.238004 a 2.0002,1.9725116 0 0 0 -0.470703,1.837488 2.0002,1.9725116 0 0 1 0.470703,-0.851331 l 12.464844,-13.238 z m 2,11.622015 a 3,2.9584715 0 0 0 -3,2.958472 3,2.9584715 0 0 0 0.04297,0.479595 3,2.9584715 0 0 1 2.95703,-2.45191 3,2.9584715 0 0 1 2.957031,2.478876 3,2.9584715 0 0 0 0.04297,-0.506561 3,2.9584715 0 0 0 -3.000001,-2.958472 z m -9.742188,3.382211 -0.480468,0.51234 10.294922,10.152411 8.589843,-7.623458 a 2.0002,1.9725116 0 0 1 2.751953,0.07127 l 3,2.958471 a 2.0002,1.9725116 0 0 1 0.548829,0.932227 2.0002,1.9725116 0 0 0 -0.548829,-1.918384 l -3,-2.958471 a 2.0002,1.9725116 0 0 0 -2.751953,-0.07127 l -8.589843,7.623458 z"
     id="path5" />
</svg>
