<?xml version="1.0" encoding="UTF-8" standalone="no"?>
<svg
   width="62"
   height="62"
   version="1"
   id="svg5"
   sodipodi:docname="a7800.svg"
   inkscape:version="1.4 (e7c3feb100, 2024-10-09)"
   xmlns:inkscape="http://www.inkscape.org/namespaces/inkscape"
   xmlns:sodipodi="http://sodipodi.sourceforge.net/DTD/sodipodi-0.dtd"
   xmlns="http://www.w3.org/2000/svg"
   xmlns:svg="http://www.w3.org/2000/svg">
  <defs
     id="defs5" />
  <sodipodi:namedview
     id="namedview5"
     pagecolor="#ffffff"
     bordercolor="#000000"
     borderopacity="0.25"
     inkscape:showpageshadow="2"
     inkscape:pageopacity="0.0"
     inkscape:pagecheckerboard="0"
     inkscape:deskcolor="#d1d1d1"
     inkscape:zoom="11.75"
     inkscape:cx="32"
     inkscape:cy="32"
     inkscape:window-width="1920"
     inkscape:window-height="998"
     inkscape:window-x="0"
     inkscape:window-y="0"
     inkscape:window-maximized="1"
     inkscape:current-layer="svg5" />
  <g
     id="g5"
     transform="translate(-0.50010084,-0.96195808)">
    <path
       style="opacity:0.2;stroke-width:0.98257"
       d="m 25.6001,4.9812924 v 0.037565 53.3016036 c -0.07631,1.565359 -0.01221,1.60984 1.453225,1.60984 h 9.172115 c 1.520132,0.166468 1.174659,-0.312073 1.174659,-1.709108 V 5.0188552 4.9812924 Z m 11.799999,0.037565 c 0,13.7547006 -0.444376,24.3480256 2.148288,33.4121016 2.447644,8.557085 7.324668,15.532032 14.965152,20.825891 1.13231,0.760942 1.476354,1.191925 2.179034,-0.46685 l 3.839508,-6.737162 C 61.289823,50.723452 61.154627,50.723414 59.927086,49.927861 48.856673,41.649865 45.378221,24.289308 45.180801,6.3362364 45.173734,5.2276951 45.278167,4.8534509 43.960333,5.018856 Z m -11.799999,0 H 19.039863 C 17.722019,4.8534502 17.826508,5.2276943 17.819396,6.3362356 17.621977,24.289308 14.143526,41.649865 3.0731165,49.927861 1.8455732,50.723414 1.7103797,50.723452 2.4681201,52.052838 L 6.3076218,58.79 c 0.7026837,1.658775 1.0467309,1.227791 2.179036,0.46685 C 16.127147,53.96299 21.004165,46.988044 23.45181,38.430958 26.044481,29.366883 25.6001,18.773558 25.6001,5.0188574 Z"
       id="path1" />
    <path
       style="fill:#975cf6;stroke-width:0.98257"
       d="m 37.400118,3.9993077 h 6.560215 C 45.278179,3.8339026 45.173699,4.208146 45.1808,5.3166872 45.37822,23.26976 48.856671,40.63032 59.927087,48.908317 c 1.22754,0.795552 1.362736,0.79559 0.604994,2.124975 l -3.839506,6.737155 c -0.702681,1.658775 -1.046724,1.227798 -2.179034,0.466858 C 46.873057,52.943444 41.996033,45.968491 39.548388,37.411413 36.955724,28.347338 37.400118,17.754006 37.400118,3.9993077 Z"
       id="path2" />
    <path
       style="fill:#b42b6f;stroke-width:0.98257"
       d="M 25.60008,4.0370619 H 19.039863 C 17.722019,3.8716569 17.826508,4.2459003 17.819396,5.3544416 17.621977,23.307511 14.143526,40.668069 3.0731165,48.946065 1.8455732,49.741625 1.7103797,49.741663 2.4681201,51.071049 l 3.8395017,6.737156 c 0.7026837,1.658775 1.0467309,1.227793 2.179036,0.466849 7.6404892,-5.293853 12.5175072,-12.268806 14.9651522,-20.82589 2.592671,-9.064076 2.14827,-19.6574 2.14827,-33.4121021 z"
       id="path3" />
    <path
       style="fill:#20c997;stroke-width:0.98257"
       d="m 25.6001,3.9994982 v 0.037564 53.3016028 c -0.07631,1.565357 -0.01221,1.609839 1.453225,1.609839 h 9.172115 c 1.520132,0.166469 1.174659,-0.312073 1.174659,-1.709107 V 4.0370609 3.9994982 Z"
       id="path4" />
    <path
       style="opacity:0.2;fill:#ffffff;stroke-width:0.98257"
       d="m 25.60008,3.9993077 v 0.038352 h -6.5607 C 17.721534,3.8722541 17.826919,4.2464949 17.819817,5.3550369 17.622397,23.308106 14.144013,40.667464 3.0736054,48.945458 2.0525552,49.607195 1.8259579,49.76095 2.2016622,50.544719 2.3743672,50.37477 2.6565889,50.197521 3.0736054,49.92726 14.144013,41.649265 17.622397,24.289909 17.819817,6.3368371 17.827028,5.2282959 17.721523,4.854055 19.03938,5.0194601 h 6.5607 v -0.038351 h 11.800038 v 0.038351 h 6.560699 c 1.317842,-0.1654043 1.212487,0.2088357 1.219572,1.317377 0.19742,17.9530679 3.675799,35.3124279 14.746203,43.5904219 0.417022,0.270261 0.699244,0.44751 0.871948,0.617459 0.375702,-0.783771 0.149107,-0.937525 -0.871948,-1.599262 C 48.856188,40.667464 45.377809,23.308105 45.180389,5.3550369 c -0.0071,-1.108542 0.09827,-1.482782 -1.219572,-1.3173778 H 37.400118 V 3.9993077 Z M 37.400118,57.23899 v 0.981802 c 0,0.123279 0.0078,0.201486 0.01153,0.310647 0.0438,-0.282948 -0.01153,-0.701244 -0.01153,-1.292449 z M 25.60008,57.3387 c -0.0212,0.434969 -0.02753,0.744266 0,0.976049 z"
       id="path5" />
  </g>
</svg>
