<?xml version="1.0" encoding="UTF-8" standalone="no"?>
<svg
   width="62"
   height="62"
   version="1.1"
   id="svg8"
   sodipodi:docname="a7xpg.svg"
   inkscape:version="1.4 (e7c3feb100, 2024-10-09)"
   xmlns:inkscape="http://www.inkscape.org/namespaces/inkscape"
   xmlns:sodipodi="http://sodipodi.sourceforge.net/DTD/sodipodi-0.dtd"
   xmlns="http://www.w3.org/2000/svg"
   xmlns:svg="http://www.w3.org/2000/svg">
  <defs
     id="defs8" />
  <sodipodi:namedview
     id="namedview8"
     pagecolor="#ffffff"
     bordercolor="#000000"
     borderopacity="0.25"
     inkscape:showpageshadow="2"
     inkscape:pageopacity="0.0"
     inkscape:pagecheckerboard="0"
     inkscape:deskcolor="#d1d1d1"
     inkscape:zoom="11.75"
     inkscape:cx="32"
     inkscape:cy="32"
     inkscape:window-width="1920"
     inkscape:window-height="998"
     inkscape:window-x="0"
     inkscape:window-y="0"
     inkscape:window-maximized="1"
     inkscape:current-layer="svg8" />
  <g
     id="g8"
     transform="translate(-0.9976823,-0.50030831)">
    <path
       d="M 8.1734624,27.003363 C 5.273638,26.878807 3.2108817,29.787792 4.2874228,32.483635 l 7.9986022,19.99928 c 0.67529,1.68926 2.405245,2.71004 4.2102,2.484285 L 31.997422,53.029769 47.498619,54.9672 c 1.804958,0.225757 3.534912,-0.795027 4.210202,-2.484285 l 7.998602,-19.99928 c 1.081363,-2.705599 -0.999614,-5.622693 -3.909472,-5.480272 -0.797305,0.03981 -1.564458,0.31733 -2.202742,0.796847 L 31.997422,43.998845 10.399635,27.80021 C 9.754828,27.316284 8.9788557,27.038529 8.1734624,27.003363 Z"
       style="opacity:0.2;stroke-width:0.99992"
       id="path1" />
    <path
       d="M 8.1734624,26.003258 C 5.273638,25.878703 3.2108817,28.787688 4.2874228,31.483531 l 7.9986022,19.99928 c 0.67529,1.689258 2.405245,2.71004 4.2102,2.484283 l 15.997204,-1.999927 c 3.566229,-0.449114 4.776257,-5.009088 1.902011,-7.16771 L 10.399635,26.800105 C 9.754828,26.316178 8.9788557,26.038424 8.1734624,26.003258 Z"
       style="fill:#8660cb;stroke-width:0.99992"
       id="path2" />
    <path
       d="m 55.797951,26.003258 c -0.797305,0.03981 -1.564458,0.317331 -2.202742,0.796847 L 29.599403,44.799457 c -2.874246,2.158622 -1.664217,6.718596 1.902011,7.16771 l 15.997205,1.999927 c 1.804958,0.225759 3.534912,-0.795025 4.210202,-2.484283 l 7.998602,-19.99928 c 1.081363,-2.705597 -0.999614,-5.622694 -3.909472,-5.480273 z"
       style="fill:#8660cb;stroke-width:0.99992"
       id="path3" />
    <path
       d="m 8.1732711,26.001305 c -2.5457154,-0.109345 -4.4441655,2.120233 -4.1420256,4.490073 0.2523486,-1.95913 1.9592664,-3.583865 4.1420256,-3.490109 0.8053933,0.03517 1.5814585,0.312919 2.2262659,0.796846 L 31.998218,43.996751 53.594946,27.798115 c 0.638285,-0.479517 1.405528,-0.757028 2.202833,-0.796846 2.193169,-0.107343 3.913095,1.523877 4.165459,3.492062 0.30577,-2.379942 -1.608819,-4.617158 -4.165459,-4.492026 -0.797305,0.03981 -1.564548,0.31733 -2.202833,0.796846 L 31.998218,42.996786 10.399537,26.798151 C 9.7547296,26.314224 8.9786644,26.036471 8.1732711,26.001305 Z"
       style="opacity:0.2;fill:#ffffff;stroke-width:0.99992"
       id="path4" />
    <path
       d="m 31.884159,9.0048334 c -1.567468,0.043998 -2.964643,1.0000086 -3.573593,2.4452246 l -15.997203,37.99863 c -1.191908,2.836393 1.130284,5.900551 4.182862,5.519334 l 15.501197,-1.937431 15.501197,1.937431 c 3.05258,0.381217 5.374773,-2.682941 4.182863,-5.519334 L 35.684277,11.450058 C 35.04335,9.9288761 33.533981,8.9576591 31.884159,9.0048334 Z"
       style="opacity:0.2;stroke-width:0.99992"
       id="path5" />
    <path
       d="m 31.884159,8.0039048 c -1.567468,0.043998 -2.964643,1.000008 -3.573593,2.4452232 L 12.313363,48.447761 c -1.191908,2.836392 1.130284,5.90055 4.182862,5.519333 l 15.501197,-1.937429 15.501197,1.937429 c 3.05258,0.381217 5.374773,-2.682941 4.182863,-5.519333 L 35.684277,10.449128 C 35.04335,8.9279496 33.533981,7.9567306 31.884159,8.0039048 Z"
       style="fill:#20c997;stroke-width:0.99992"
       id="path6" />
    <path
       d="m 18.780982,33.085035 -6.467619,15.362726 c -0.442803,1.053742 -0.396197,2.138023 -0.0118,3.066295 0.0146,0.03547 0.03532,0.0667 0.05077,0.101557 0.11334,0.253017 0.252268,0.490802 0.413991,0.714819 0.0318,0.04407 0.06029,0.09024 0.09373,0.132815 0.186728,0.237911 0.396963,0.457098 0.632702,0.648414 0.03574,0.02876 0.07661,0.05064 0.11326,0.07811 0.193827,0.146575 0.405051,0.272996 0.624891,0.382799 0.08455,0.04187 0.166431,0.08522 0.253861,0.121096 0.257771,0.106236 0.52896,0.184593 0.812359,0.234367 0.07467,0.0134 0.150813,0.0182 0.226522,0.02734 0.314363,0.03655 0.636752,0.05363 0.972487,0.01181 l 15.501195,-1.937513 15.501197,1.937429 c 0.335735,0.04195 0.658125,0.02482 0.972486,-0.01181 0.07571,-0.0092 0.151854,-0.014 0.226523,-0.02734 0.2834,-0.04978 0.554589,-0.128115 0.812357,-0.234367 0.08745,-0.03587 0.169311,-0.07922 0.253863,-0.121096 0.219838,-0.109795 0.431068,-0.236226 0.624892,-0.382798 0.03668,-0.0275 0.07753,-0.04935 0.11326,-0.07812 0.235741,-0.191313 0.44597,-0.410503 0.632702,-0.648414 0.03346,-0.04257 0.06193,-0.08874 0.09375,-0.132814 0.161732,-0.224018 0.300651,-0.461803 0.41399,-0.71482 0.0154,-0.03486 0.03624,-0.0661 0.05077,-0.101555 0.384481,-0.928274 0.431089,-2.012554 -0.0118,-3.066296 L 45.213763,33.085026 31.997323,42.99873 Z"
       style="fill:#17a2b8;stroke-width:0.99992"
       id="path7" />
    <path
       d="M 31.884952,8.0019531 C 30.317484,8.0459514 28.92016,9.0019611 28.31121,10.447178 L 12.313344,48.44581 c -0.28927,0.688377 -0.368069,1.389958 -0.283165,2.052659 0.04539,-0.349348 0.136382,-0.703396 0.283165,-1.052696 L 28.31121,11.447142 c 0.60895,-1.445217 2.006274,-2.4012266 3.573742,-2.4452249 1.649822,-0.047175 3.159347,0.9240416 3.800274,2.4452249 L 51.68114,49.445773 c 0.146783,0.3493 0.237771,0.703348 0.283165,1.052696 0.08491,-0.662701 0.0061,-1.364282 -0.283165,-2.052659 L 35.685226,10.447178 C 35.044299,8.9259952 33.534774,7.9547787 31.884952,8.0019531 Z"
       style="opacity:0.2;fill:#ffffff;stroke-width:0.99992"
       id="path8" />
  </g>
</svg>
