<?xml version="1.0" encoding="UTF-8" standalone="no"?>
<svg
   width="62"
   height="62"
   version="1.1"
   id="svg5"
   sodipodi:docname="aaaaxy.svg"
   inkscape:version="1.4 (e7c3feb100, 2024-10-09)"
   xmlns:inkscape="http://www.inkscape.org/namespaces/inkscape"
   xmlns:sodipodi="http://sodipodi.sourceforge.net/DTD/sodipodi-0.dtd"
   xmlns="http://www.w3.org/2000/svg"
   xmlns:svg="http://www.w3.org/2000/svg">
  <defs
     id="defs5" />
  <sodipodi:namedview
     id="namedview5"
     pagecolor="#ffffff"
     bordercolor="#000000"
     borderopacity="0.25"
     inkscape:showpageshadow="2"
     inkscape:pageopacity="0.0"
     inkscape:pagecheckerboard="0"
     inkscape:deskcolor="#d1d1d1"
     inkscape:zoom="11.6875"
     inkscape:cx="31.914439"
     inkscape:cy="32.256684"
     inkscape:window-width="1920"
     inkscape:window-height="998"
     inkscape:window-x="0"
     inkscape:window-y="0"
     inkscape:window-maximized="1"
     inkscape:current-layer="svg5" />
  <rect
     style="opacity:0.2;stroke-width:0.9823"
     width="55"
     height="55.017544"
     x="3.5"
     y="3.9824562"
     rx="8.25"
     ry="8.2526312"
     id="rect1" />
  <rect
     style="fill:#212e3f;stroke-width:0.9823"
     width="55"
     height="55.017544"
     x="3.5"
     y="3"
     rx="8.25"
     ry="8.2526312"
     id="rect2" />
  <path
     style="opacity:0.1;fill:#ffffff;stroke-width:0.9823"
     d="M 11.748466,3 C 7.1779651,3 3.4999999,6.6791384 3.4999999,11.251097 v 0.982456 c 0,-4.5719585 3.6779652,-8.2510968 8.2484661,-8.2510968 h 38.503068 c 4.5705,0 8.248466,3.6791383 8.248466,8.2510968 V 11.251097 C 58.5,6.6791384 54.822034,3 50.251534,3 Z"
     id="path4" />
  <g
     id="g1"
     transform="translate(-1.99976,-1.99976)">
    <path
       d="M 23.999753,50.999758 V 47.999755 H 20.999767 V 44.999753 H 17.999765 V 41.999767 H 14.999762 V 23.999753 h 3.000003 v -2.999986 h 3.000002 v -3.000002 h 2.999986 v -3.000003 h 18.000014 v 3.000003 h 2.999986 v 3.000002 h 3.000002 v 2.999986 h 3.000003 v 18.000014 h -3.000003 v 2.999986 h -3.000002 v 3.000002 h -2.999986 v 3.000003 z m 15.000012,-3.000003 v -3.000002 h 3.000002 v -2.999986 h 2.999986 v -3.000002 h 3.000002 v -12.00001 h -3.000002 v -3.000002 h -2.999986 v -2.999986 h -3.000002 v -3.000002 h -12.00001 v 3.000002 h -3.000002 v 2.999986 h -2.999986 v 3.000002 h -3.000002 v 12.00001 h 3.000002 v 3.000002 h 2.999986 v 2.999986 h 3.000002 v 3.000002 z"
       style="fill:#81b4fe;stroke-width:0.375003"
       id="path2-6" />
    <path
       d="M 29.999758,44.999753 V 29.999758 h -3.000003 v 3.000002 h -5.999988 v -3.000002 h 2.999986 v -3.000003 h 3.000002 v -3.000002 h 3.000003 v -2.999986 h 6.000004 v 2.999986 h 3.000003 v 3.000002 h 3.000002 v 3.000003 h 2.999986 v 3.000002 h -5.999988 v -3.000002 h -3.000003 v 14.999995 z"
       style="fill:#67dab8;stroke-width:0.375003"
       id="path3-7" />
    <path
       d="M 17.999765,53.99976 V 50.999758 H 14.999762 V 47.999755 H 11.99976 V 11.99976 h 42 v 35.999995 h -3.000002 v 3.000003 h -3.000003 v 3.000002 z m 24.000002,-3.000002 v -3.000003 h 2.999986 v -3.000002 h 3.000002 v -2.999986 h 3.000003 V 23.999753 H 47.999755 V 20.999767 H 44.999753 V 17.999765 H 41.999767 V 14.999762 H 23.999753 v 3.000003 h -2.999986 v 3.000002 h -3.000002 v 2.999986 h -3.000003 v 18.000014 h 3.000003 v 2.999986 h 3.000002 v 3.000002 h 2.999986 v 3.000003 z"
       style="fill:#9d7ed5;stroke-width:0.375003"
       id="path4-5" />
    <path
       d="m 26.999755,47.999755 v -3.000002 h -3.000002 v -2.999986 h -2.999986 v -3.000002 h -3.000002 v -12.00001 h 3.000002 v -3.000002 h 2.999986 v -2.999986 h 3.000002 v -3.000002 h 12.00001 v 3.000002 h 3.000002 v 2.999986 h 2.999986 v 3.000002 h 3.000002 v 12.00001 h -3.000002 v 3.000002 h -2.999986 v 2.999986 h -3.000002 v 3.000002 z m 9.000007,-3.000002 V 29.999758 h 3.000003 v 3.000002 h 5.999988 v -3.000002 h -2.999986 v -3.000003 h -3.000002 v -3.000002 h -3.000003 v -2.999986 h -6.000004 v 2.999986 h -3.000003 v 3.000002 h -3.000002 v 3.000003 h -2.999986 v 3.000002 h 5.999988 v -3.000002 h 3.000003 v 14.999995 z"
       style="fill:#b42b6f;stroke-width:0.375003"
       id="path5" />
  </g>
</svg>
