<?xml version="1.0" encoding="UTF-8" standalone="no"?>
<svg
   width="62"
   height="62"
   version="1.1"
   id="svg6"
   sodipodi:docname="actionaz.svg"
   inkscape:version="1.4 (e7c3feb100, 2024-10-09)"
   xmlns:inkscape="http://www.inkscape.org/namespaces/inkscape"
   xmlns:sodipodi="http://sodipodi.sourceforge.net/DTD/sodipodi-0.dtd"
   xmlns="http://www.w3.org/2000/svg"
   xmlns:svg="http://www.w3.org/2000/svg">
  <defs
     id="defs6" />
  <sodipodi:namedview
     id="namedview6"
     pagecolor="#ffffff"
     bordercolor="#000000"
     borderopacity="0.25"
     inkscape:showpageshadow="2"
     inkscape:pageopacity="0.0"
     inkscape:pagecheckerboard="0"
     inkscape:deskcolor="#d1d1d1"
     inkscape:zoom="11.78125"
     inkscape:cx="31.95756"
     inkscape:cy="32"
     inkscape:window-width="1920"
     inkscape:window-height="994"
     inkscape:window-x="0"
     inkscape:window-y="0"
     inkscape:window-maximized="1"
     inkscape:current-layer="svg6" />
  <g
     id="g7"
     transform="translate(-0.5,-1)">
    <g
       id="g6">
      <path
         d="M 6.9464284,60 H 17.750005 L 31.5,29.54386 45.250005,60 H 56.05358 L 37.392861,18.73684 H 25.607144 Z"
         style="opacity:1;stroke-width:0.982303;fill:#2aa5bb;fill-opacity:1"
         id="path1" />
      <path
         d="M 6.9464284,59.01754 H 17.750005 L 31.5,28.5614 45.250005,59.01754 H 56.05358 L 37.392861,17.75439 H 25.607144 Z"
         style="fill:#57b3c8;stroke-width:0.982303"
         id="path2" />
      <path
         d="M 25.607144,17.75439 6.9464284,59.01754 h 0.445034 L 25.607144,18.73684 h 11.785717 l 18.215686,40.2807 H 56.05358 L 37.392861,17.75439 Z"
         style="opacity:0.1;fill:#ffffff;stroke-width:0.982303"
         id="path3" />
      <path
         d="M 15.785711,4.982456 C 9.2564287,4.982456 4,10.24056 4,16.77193 v 20.63158 c 0,6.53137 5.2564287,11.78947 11.785711,11.78947 H 47.214289 C 53.743576,49.19298 59,43.93488 59,37.40351 V 16.77193 C 59,10.24056 53.743576,4.982456 47.214289,4.982456 H 40.339291 V 15.78947 h 1.964284 c 3.264639,0 5.89286,2.62906 5.89286,5.89474 v 10.80702 c 0,3.26568 -2.628221,5.894735 -5.89286,5.894735 h -21.60715 c -3.264639,0 -5.89285,-2.629055 -5.89285,-5.894735 V 21.68421 c 0,-3.26568 2.628211,-5.89474 5.89285,-5.89474 h 1.964294 V 4.982456 Z"
         style="opacity:1;stroke-width:0.982303;fill:#29a4bc;fill-opacity:1"
         id="path4" />
      <path
         d="M 15.785711,4 C 9.2564287,4 4,9.258105 4,15.78947 v 20.63158 c 0,6.53137 5.2564287,11.78948 11.785711,11.78948 H 47.214289 C 53.743576,48.21053 59,42.95242 59,36.42105 V 15.78947 C 59,9.258105 53.743576,4 47.214289,4 h -6.874998 v 10.80702 h 1.964284 c 3.264639,0 5.89286,2.62905 5.89286,5.89473 v 10.80702 c 0,3.26569 -2.628221,5.89474 -5.89286,5.89474 h -21.60715 c -3.264639,0 -5.89285,-2.62905 -5.89285,-5.89474 V 20.70175 c 0,-3.26568 2.628211,-5.89473 5.89285,-5.89473 h 1.964294 V 4 Z"
         style="fill:#69cbde;stroke-width:0.982303"
         id="path5" />
      <path
         d="M 15.785711,4 C 9.2564287,4 4,9.258105 4,15.78947 v 0.98246 C 4,10.24056 9.2564287,4.982456 15.785711,4.982456 h 6.875008 V 4 Z m 24.55358,0 v 0.982456 h 6.874998 C 53.743576,4.982456 59,10.24056 59,16.77193 V 15.78947 C 59,9.258105 53.743576,4 47.214289,4 Z M 14.803575,31.50877 v 0.98246 c 0,3.26568 2.628211,5.894735 5.89285,5.894735 h 21.60715 c 3.264639,0 5.89286,-2.629055 5.89286,-5.894735 v -0.98246 c 0,3.26569 -2.628221,5.89474 -5.89286,5.89474 h -21.60715 c -3.264639,0 -5.89285,-2.62905 -5.89285,-5.89474 z"
         style="opacity:0.2;fill:#ffffff;stroke-width:0.982303"
         id="path6" />
    </g>
  </g>
</svg>
