<?xml version="1.0" encoding="UTF-8" standalone="no"?>
<svg
   width="62"
   height="62"
   version="1.1"
   id="svg7"
   sodipodi:docname="AdobeSpeedgrade.svg"
   inkscape:version="1.4 (e7c3feb100, 2024-10-09)"
   xmlns:inkscape="http://www.inkscape.org/namespaces/inkscape"
   xmlns:sodipodi="http://sodipodi.sourceforge.net/DTD/sodipodi-0.dtd"
   xmlns:xlink="http://www.w3.org/1999/xlink"
   xmlns="http://www.w3.org/2000/svg"
   xmlns:svg="http://www.w3.org/2000/svg">
  <defs
     id="defs7">
    <linearGradient
       inkscape:collect="always"
       xlink:href="#linearGradient8"
       id="linearGradient10"
       x1="31.5"
       y1="59.017544"
       x2="31.5"
       y2="4.9824562"
       gradientUnits="userSpaceOnUse"
       gradientTransform="translate(-0.5,-0.5087719)" />
    <linearGradient
       id="linearGradient8"
       inkscape:collect="always">
      <stop
         style="stop-color:#0e6571;stop-opacity:1;"
         offset="0"
         id="stop8" />
      <stop
         style="stop-color:#3bb1c4;stop-opacity:1;"
         offset="1"
         id="stop10" />
    </linearGradient>
  </defs>
  <sodipodi:namedview
     id="namedview7"
     pagecolor="#ffffff"
     bordercolor="#000000"
     borderopacity="0.25"
     inkscape:showpageshadow="2"
     inkscape:pageopacity="0.0"
     inkscape:pagecheckerboard="0"
     inkscape:deskcolor="#d1d1d1"
     inkscape:zoom="5.875"
     inkscape:cx="82.212766"
     inkscape:cy="57.361702"
     inkscape:window-width="1920"
     inkscape:window-height="998"
     inkscape:window-x="0"
     inkscape:window-y="0"
     inkscape:window-maximized="1"
     inkscape:current-layer="svg7" />
  <g
     id="g7"
     transform="translate(0,-0.4912281)">
    <rect
       style="opacity:0.2;stroke-width:0.9823"
       width="55"
       height="55.017544"
       x="3.5"
       y="4.4736843"
       rx="8.25"
       ry="8.2526312"
       id="rect1" />
    <rect
       style="fill:url(#linearGradient10);stroke-width:0.9823"
       width="55"
       height="55.017544"
       x="3.5"
       y="3.4912281"
       rx="8.25"
       ry="8.2526312"
       id="rect2" />
    <path
       style="opacity:0.1;fill:#ffffff;stroke-width:0.9823"
       d="M 11.748466,3.4912281 C 7.1779652,3.4912281 3.5,7.1703661 3.5,11.742325 v 0.982456 c 0,-4.5719589 3.6779652,-8.2510969 8.248466,-8.2510969 h 38.503068 c 4.5705,0 8.248466,3.679138 8.248466,8.2510969 v -0.982456 c 0,-4.5719589 -3.677966,-8.2510969 -8.248466,-8.2510969 z"
       id="path4-3" />
  </g>
  <g
     id="g1"
     transform="translate(-85.893615,-16.413924)"
     style="fill:#000000;fill-opacity:1">
    <path
       d="m 98.893617,51.405118 v 3.999959 c 0,0 2.011073,3.99996 8.044263,3.99996 8.04428,0 10.05535,-3.99996 10.05535,-7.999919 0,-5.999942 -12.06641,-5.999942 -12.06641,-9.999901 0,-2.828401 2.01106,-5.999941 6.03322,-5.999941 2.01105,0 6.03319,3.99996 6.03319,3.99996 v -5.99994 c 0,0 -4.02214,-1.99998 -6.03319,-1.99998 -8.04429,0 -12.066423,2.113195 -12.066423,9.999901 0,7.99992 12.066423,5.99994 12.066423,9.999901 0,1.885599 -2.01109,3.999959 -4.02216,3.999959 -4.02213,0 -8.044263,-3.999959 -8.044263,-3.999959 z"
       style="opacity:0.2;stroke-width:1.00276;fill:#000000;fill-opacity:1"
       id="path3-6" />
    <path
       d="m 98.893617,50.405127 v 3.999961 c 0,0 2.011073,3.999959 8.044263,3.999959 8.04428,0 10.05535,-3.999959 10.05535,-7.99992 0,-5.99994 -12.06641,-5.99994 -12.06641,-9.9999 0,-2.8284 2.01106,-5.999941 6.03322,-5.999941 2.01105,0 6.03319,3.999961 6.03319,3.999961 v -5.999941 c 0,0 -4.02214,-1.99998 -6.03319,-1.99998 -8.04429,0 -12.066423,2.113195 -12.066423,9.999901 0,7.99992 12.066423,5.99994 12.066423,9.9999 0,1.8856 -2.01109,3.999961 -4.02216,3.999961 -4.02213,0 -8.044263,-3.999961 -8.044263,-3.999961 z"
       style="fill:#9dd7e2;stroke-width:1.00276;fill-opacity:1"
       id="path4-2" />
    <path
       d="m 128.05411,37.405257 c -3.8874,0 -7.03874,4.029397 -7.03874,8.99991 0,4.970513 3.15134,8.99991 7.03874,8.99991 1.04407,-0.0033 2.07449,-0.303491 3.01661,-0.878897 v 4.878857 c 0,0 -1.06306,1.999981 -2.01108,1.999981 -6.03322,0 -8.04427,-1.999981 -8.04427,-1.999981 v 3.999961 c 0,0 2.01105,1.99998 8.04427,1.99998 6.0332,0 5.8332,-6.000724 5.8332,-6.000724 V 37.404473 l -3.82212,7.84e-4 v 0.878897 c -0.94212,-0.575407 -1.97254,-0.875624 -3.01661,-0.878897 z m 0,3.99996 c 1.66603,0 3.01661,2.238554 3.01661,4.99995 0,2.761397 -1.35058,4.999951 -3.01661,4.999951 -1.66604,0 -3.0166,-2.238554 -3.0166,-4.999951 0,-2.761396 1.35056,-4.99995 3.0166,-4.99995 z"
       style="opacity:0.2;stroke-width:1.00276;fill:#000000;fill-opacity:1"
       id="path5-9" />
    <path
       d="m 128.05411,36.405266 c -3.8874,0 -7.03874,4.029399 -7.03874,8.99991 0,4.970513 3.15134,8.999912 7.03874,8.999912 1.04407,-0.0033 2.07449,-0.303492 3.01661,-0.878898 v 4.878857 c 0,0 -1.06306,1.999981 -2.01108,1.999981 -6.03322,0 -8.04427,-1.999981 -8.04427,-1.999981 v 3.99996 c 0,0 2.01105,1.999981 8.04427,1.999981 6.0332,0 5.8332,-6.000723 5.8332,-6.000723 V 36.404483 l -3.82212,7.83e-4 v 0.878897 c -0.94212,-0.575406 -1.97254,-0.875624 -3.01661,-0.878897 z m 0,3.999961 c 1.66603,0 3.01661,2.238553 3.01661,4.999949 0,2.761397 -1.35058,4.999951 -3.01661,4.999951 -1.66604,0 -3.0166,-2.238554 -3.0166,-4.999951 0,-2.761396 1.35056,-4.999949 3.0166,-4.999949 z"
       style="fill:#9dd7e2;stroke-width:1.00276;fill-opacity:1"
       id="path6" />
  </g>
</svg>
