<?xml version="1.0" encoding="UTF-8" standalone="no"?>
<svg
   width="62"
   height="62"
   version="1.1"
   id="svg7"
   sodipodi:docname="AdobePrelude.svg"
   inkscape:version="1.4 (e7c3feb100, 2024-10-09)"
   xmlns:inkscape="http://www.inkscape.org/namespaces/inkscape"
   xmlns:sodipodi="http://sodipodi.sourceforge.net/DTD/sodipodi-0.dtd"
   xmlns:xlink="http://www.w3.org/1999/xlink"
   xmlns="http://www.w3.org/2000/svg"
   xmlns:svg="http://www.w3.org/2000/svg">
  <defs
     id="defs7">
    <linearGradient
       inkscape:collect="always"
       xlink:href="#linearGradient8"
       id="linearGradient10"
       x1="31.5"
       y1="59.017544"
       x2="31.5"
       y2="4.9824562"
       gradientUnits="userSpaceOnUse"
       gradientTransform="translate(-0.5,-0.5087719)" />
    <linearGradient
       id="linearGradient8"
       inkscape:collect="always">
      <stop
         style="stop-color:#373a95;stop-opacity:1;"
         offset="0"
         id="stop8" />
      <stop
         style="stop-color:#696ac9;stop-opacity:1;"
         offset="1"
         id="stop10" />
    </linearGradient>
  </defs>
  <sodipodi:namedview
     id="namedview7"
     pagecolor="#ffffff"
     bordercolor="#000000"
     borderopacity="0.25"
     inkscape:showpageshadow="2"
     inkscape:pageopacity="0.0"
     inkscape:pagecheckerboard="0"
     inkscape:deskcolor="#d1d1d1"
     inkscape:zoom="5.875"
     inkscape:cx="66.212766"
     inkscape:cy="57.361702"
     inkscape:window-width="1920"
     inkscape:window-height="998"
     inkscape:window-x="0"
     inkscape:window-y="0"
     inkscape:window-maximized="1"
     inkscape:current-layer="svg7" />
  <g
     id="g7"
     transform="translate(0,-0.4912281)">
    <rect
       style="opacity:0.2;stroke-width:0.9823"
       width="55"
       height="55.017544"
       x="3.5"
       y="4.4736843"
       rx="8.25"
       ry="8.2526312"
       id="rect1" />
    <rect
       style="fill:url(#linearGradient10);stroke-width:0.9823"
       width="55"
       height="55.017544"
       x="3.5"
       y="3.4912281"
       rx="8.25"
       ry="8.2526312"
       id="rect2" />
    <path
       style="opacity:0.1;fill:#ffffff;stroke-width:0.9823"
       d="M 11.748466,3.4912281 C 7.1779652,3.4912281 3.5,7.1703661 3.5,11.742325 v 0.982456 c 0,-4.5719589 3.6779652,-8.2510969 8.248466,-8.2510969 h 38.503068 c 4.5705,0 8.248466,3.679138 8.248466,8.2510969 v -0.982456 c 0,-4.5719589 -3.677966,-8.2510969 -8.248466,-8.2510969 z"
       id="path4-3" />
  </g>
  <g
     id="g1"
     transform="translate(-64.324469,-10.978723)">
    <path
       d="m 78.575205,27.206866 c 0,0 4.692162,-0.126893 8.554879,-0.126893 5.35992,9.67e-4 11.543929,1.766633 11.543929,11.03567 0,9.269035 -6.184455,11.034567 -11.5446,11.003004 -1.186171,0.05112 -1.855042,0.06332 -1.855042,0.06332 v 8.796756 h -6.699903 z m 6.699458,17.516931 c 0.681267,0.06815 0.679253,0.03534 1.689045,0.0229 3.363349,-0.03973 5.011521,-3.670098 5.011521,-6.850261 0,-2.855744 -1.281913,-6.278667 -4.511266,-6.400046 -1.288613,-0.04856 -2.188856,0 -2.188856,0 z"
       style="opacity:0.2;stroke-width:1.11004"
       id="path2" />
    <path
       d="m 78.575205,26.105616 c 0,0 4.692162,-0.126893 8.554879,-0.126893 5.35992,0 11.543929,1.765529 11.543929,11.034566 0,9.269038 -6.184455,11.034565 -11.5446,11.003008 -1.186171,0.05112 -1.855042,0.06332 -1.855042,0.06332 v 8.796756 h -6.699903 z m 6.699458,17.516933 c 0.681267,0.06815 0.679253,0.03537 1.689045,0.0229 3.363349,-0.04193 5.011521,-3.672305 5.011521,-6.852469 0,-2.855743 -1.281913,-6.278663 -4.511266,-6.400044 -1.288613,-0.04856 -2.188856,0 -2.188856,0 z"
       style="fill:#c7c7eb;stroke-width:1.11004;fill-opacity:1"
       id="path3-6" />
    <path
       d="M 103.14113,27.081497 V 52.46136 c 0,0 0,5.517362 5.58335,5.517362 h 3.34999 V 52.46136 h -3.34999 V 27.081497 Z"
       style="opacity:0.2;stroke-width:1.11004"
       id="path5-7" />
    <path
       d="m 103.14104,25.979143 v 25.379863 c 0,0 0,5.517364 5.58335,5.517364 h 3.34996 v -5.517364 h -3.34996 V 25.979143 Z"
       style="fill:#c7c7eb;stroke-width:1.11004;fill-opacity:1"
       id="path6-5" />
  </g>
</svg>
