<?xml version="1.0" encoding="UTF-8" standalone="no"?>
<svg
   width="62"
   height="62"
   version="1.1"
   id="svg7"
   sodipodi:docname="AdobePremiereRush.svg"
   inkscape:version="1.4 (e7c3feb100, 2024-10-09)"
   xmlns:inkscape="http://www.inkscape.org/namespaces/inkscape"
   xmlns:sodipodi="http://sodipodi.sourceforge.net/DTD/sodipodi-0.dtd"
   xmlns:xlink="http://www.w3.org/1999/xlink"
   xmlns="http://www.w3.org/2000/svg"
   xmlns:svg="http://www.w3.org/2000/svg">
  <defs
     id="defs7">
    <linearGradient
       inkscape:collect="always"
       xlink:href="#linearGradient8"
       id="linearGradient10"
       x1="31.5"
       y1="59.017544"
       x2="31.5"
       y2="4.9824562"
       gradientUnits="userSpaceOnUse"
       gradientTransform="translate(-0.5,-0.5087719)" />
    <linearGradient
       id="linearGradient8"
       inkscape:collect="always">
      <stop
         style="stop-color:#7400e2;stop-opacity:1;"
         offset="0"
         id="stop8" />
      <stop
         style="stop-color:#8506ff;stop-opacity:1;"
         offset="1"
         id="stop10" />
    </linearGradient>
  </defs>
  <sodipodi:namedview
     id="namedview7"
     pagecolor="#ffffff"
     bordercolor="#000000"
     borderopacity="0.25"
     inkscape:showpageshadow="2"
     inkscape:pageopacity="0.0"
     inkscape:pagecheckerboard="0"
     inkscape:deskcolor="#d1d1d1"
     inkscape:zoom="5.875"
     inkscape:cx="66.212766"
     inkscape:cy="57.361702"
     inkscape:window-width="1920"
     inkscape:window-height="998"
     inkscape:window-x="0"
     inkscape:window-y="0"
     inkscape:window-maximized="1"
     inkscape:current-layer="svg7" />
  <g
     id="g7"
     transform="translate(0,-0.4912281)">
    <rect
       style="opacity:0.2;stroke-width:0.9823"
       width="55"
       height="55.017544"
       x="3.5"
       y="4.4736843"
       rx="8.25"
       ry="8.2526312"
       id="rect1" />
    <rect
       style="fill:url(#linearGradient10);stroke-width:0.9823"
       width="55"
       height="55.017544"
       x="3.5"
       y="3.4912281"
       rx="8.25"
       ry="8.2526312"
       id="rect2" />
    <path
       style="opacity:0.1;fill:#ffffff;stroke-width:0.9823"
       d="M 11.748466,3.4912281 C 7.1779652,3.4912281 3.5,7.1703661 3.5,11.742325 v 0.982456 c 0,-4.5719589 3.6779652,-8.2510969 8.248466,-8.2510969 h 38.503068 c 4.5705,0 8.248466,3.679138 8.248466,8.2510969 v -0.982456 c 0,-4.5719589 -3.677966,-8.2510969 -8.248466,-8.2510969 z"
       id="path4-3" />
  </g>
  <g
     id="g3"
     transform="translate(-71.893619,-7.11191)">
    <path
       d="m 91.40707,23.215373 c -3.843499,0 -8.513453,0.127153 -8.513453,0.127153 v 30.769335 h 6.666667 v -8.797397 c 0,0 0.666513,-0.01138 1.846786,-0.06247 0.115769,6.88e-4 0.235094,-0.01406 0.351567,-0.01505 l 4.468311,8.87497 h 6.666712 L 97.811152,44.019202 c 2.892498,-1.402679 5.082508,-4.248819 5.082508,-9.769377 0,-9.268818 -6.153333,-11.034462 -11.48659,-11.034462 z m -1.236979,4.396538 c 0.384218,-0.0063 0.927905,-0.0072 1.569015,0.01729 3.213282,0.121375 4.487842,3.545171 4.487842,6.400847 0,3.136786 -1.597206,6.703493 -4.852428,6.840504 h -1.599391 c -0.07659,-0.0063 -0.11347,-0.0029 -0.214845,-0.01294 V 27.629157 c 0,0 0.225591,-0.01117 0.609807,-0.01729 z"
       style="opacity:0.2;stroke-width:1.10725"
       id="path2" />
    <path
       d="m 91.40707,22.111928 c -3.843499,0 -8.513453,0.127157 -8.513453,0.127157 v 30.769331 h 6.666667 V 44.21102 c 0,0 0.666513,-0.01132 1.846786,-0.06247 0.115769,6.9e-4 0.235094,-0.01406 0.351567,-0.01505 l 4.468311,8.874976 h 6.666712 L 97.811152,42.915743 c 2.892498,-1.402682 5.082508,-4.248817 5.082508,-9.769375 0,-9.268818 -6.153333,-11.034462 -11.48659,-11.034462 z m -1.236979,4.396544 c 0.384218,-0.0063 0.927905,-0.0072 1.569015,0.01729 3.213282,0.121371 4.487842,3.545165 4.487842,6.400843 0,3.136791 -1.597206,6.7035 -4.852428,6.840507 h -1.599391 c -0.07659,-0.0063 -0.11347,-0.0029 -0.214845,-0.01292 v -13.22847 c 0,0 0.225591,-0.01117 0.609807,-0.01729 z"
       style="fill:#c88eff;stroke-width:1.10725"
       id="path3-7" />
    <path
       d="m 122.89362,29.836048 v 22.068923 c 0,0 -2.22224,2.20689 -7.77781,2.20689 -5.55555,0 -7.77775,-3.310335 -7.77775,-5.517231 V 29.836048 h 4.44444 v 17.655137 c 0,0 0,2.20689 2.22225,2.20689 h 4.44447 V 29.836048 Z"
       style="opacity:0.2;stroke-width:1.10725"
       id="path5-5" />
    <path
       d="m 122.89362,28.732604 v 22.068922 c 0,0 -2.22224,2.20689 -7.77781,2.20689 -5.55555,0 -7.77775,-3.310341 -7.77775,-5.517231 V 28.732604 h 4.44444 V 46.38774 c 0,0 0,2.20689 2.22225,2.20689 h 4.44447 V 28.732604 Z"
       style="fill:#c88eff;stroke-width:1.10725"
       id="path6-3" />
  </g>
</svg>
