<?xml version="1.0" encoding="UTF-8" standalone="no"?>
<svg
   width="62"
   height="62"
   version="1.1"
   id="svg7"
   sodipodi:docname="AdobeFlashBuilder.svg"
   inkscape:version="1.4 (e7c3feb100, 2024-10-09)"
   xmlns:inkscape="http://www.inkscape.org/namespaces/inkscape"
   xmlns:sodipodi="http://sodipodi.sourceforge.net/DTD/sodipodi-0.dtd"
   xmlns:xlink="http://www.w3.org/1999/xlink"
   xmlns="http://www.w3.org/2000/svg"
   xmlns:svg="http://www.w3.org/2000/svg">
  <defs
     id="defs7">
    <linearGradient
       inkscape:collect="always"
       xlink:href="#linearGradient8"
       id="linearGradient10"
       x1="31.5"
       y1="59.017544"
       x2="31.5"
       y2="4.9824562"
       gradientUnits="userSpaceOnUse"
       gradientTransform="translate(-0.5,-0.5087719)" />
    <linearGradient
       id="linearGradient8"
       inkscape:collect="always">
      <stop
         style="stop-color:#b92d3a;stop-opacity:1"
         offset="0"
         id="stop8" />
      <stop
         style="stop-color:#e77681;stop-opacity:1"
         offset="1"
         id="stop10" />
    </linearGradient>
  </defs>
  <sodipodi:namedview
     id="namedview7"
     pagecolor="#ffffff"
     bordercolor="#000000"
     borderopacity="0.25"
     inkscape:showpageshadow="2"
     inkscape:pageopacity="0.0"
     inkscape:pagecheckerboard="0"
     inkscape:deskcolor="#d1d1d1"
     inkscape:zoom="5.875"
     inkscape:cx="66.212766"
     inkscape:cy="57.361702"
     inkscape:window-width="1920"
     inkscape:window-height="998"
     inkscape:window-x="0"
     inkscape:window-y="0"
     inkscape:window-maximized="1"
     inkscape:current-layer="svg7" />
  <g
     id="g7"
     transform="translate(0,-0.4912281)">
    <rect
       style="opacity:0.2;stroke-width:0.9823"
       width="55"
       height="55.017544"
       x="3.5"
       y="4.4736843"
       rx="8.25"
       ry="8.2526312"
       id="rect1" />
    <rect
       style="fill:url(#linearGradient10);stroke-width:0.9823"
       width="55"
       height="55.017544"
       x="3.5"
       y="3.4912281"
       rx="8.25"
       ry="8.2526312"
       id="rect2" />
    <path
       style="opacity:0.1;fill:#ffffff;stroke-width:0.9823"
       d="M 11.748466,3.4912281 C 7.1779652,3.4912281 3.5,7.1703661 3.5,11.742325 v 0.982456 c 0,-4.5719589 3.6779652,-8.2510969 8.248466,-8.2510969 h 38.503068 c 4.5705,0 8.248466,3.679138 8.248466,8.2510969 v -0.982456 c 0,-4.5719589 -3.677966,-8.2510969 -8.248466,-8.2510969 z"
       id="path4-3" />
  </g>
  <g
     id="g1"
     transform="translate(-37,-28)">
    <path
       d="M 48,44.103446 V 75 h 6.66667 V 66.172416 H 65.777772 V 61.758624 H 54.66667 V 48.517238 H 68.000001 L 66.888892,44.103446 H 54.66667 Z"
       style="opacity:0.2;stroke-width:1.10729"
       id="path3" />
    <path
       d="m 48,43 v 30.896554 h 6.66667 V 65.06897 H 65.777772 V 60.655168 H 54.66667 V 47.413792 H 68.000001 L 66.888892,43 H 54.66667 Z"
       style="fill:#f2b6bc;stroke-width:1.10729"
       id="path4" />
    <path
       d="M 79.111113,44.103446 V 55.13793 C 88,55.13793 88,65.06897 88,65.06897 88,65.06897 88,75 80.222223,75 72.444444,75 72.444444,72.7931 72.444444,72.7931 V 44.103446 Z m 1.11111,15.448276 h -1.11111 v 11.034486 h 1.11111 c 0,0 3.333334,0 3.333334,-5.517238 0,-5.517248 -3.333334,-5.517248 -3.333334,-5.517248 z"
       style="opacity:0.2;stroke-width:1.10729"
       id="path5" />
    <path
       d="M 79.111113,43 V 54.034484 C 88,54.034484 88,63.965516 88,63.965516 c 0,0 0,9.931038 -7.777777,9.931038 -7.777779,0 -7.777779,-2.2069 -7.777779,-2.2069 V 43 Z m 1.11111,15.448278 h -1.11111 v 11.034484 h 1.11111 c 0,0 3.333334,0 3.333334,-5.517246 0,-5.517238 -3.333334,-5.517238 -3.333334,-5.517238 z"
       style="fill:#f2b6bc;stroke-width:1.10729"
       id="path6" />
  </g>
</svg>
