<?xml version="1.0" encoding="UTF-8" standalone="no"?>
<svg
   width="62"
   height="62"
   version="1.1"
   id="svg7"
   sodipodi:docname="AdobePhotoshop.svg"
   inkscape:version="1.4 (e7c3feb100, 2024-10-09)"
   xmlns:inkscape="http://www.inkscape.org/namespaces/inkscape"
   xmlns:sodipodi="http://sodipodi.sourceforge.net/DTD/sodipodi-0.dtd"
   xmlns:xlink="http://www.w3.org/1999/xlink"
   xmlns="http://www.w3.org/2000/svg"
   xmlns:svg="http://www.w3.org/2000/svg">
  <defs
     id="defs7">
    <linearGradient
       inkscape:collect="always"
       xlink:href="#linearGradient8"
       id="linearGradient10"
       x1="31.5"
       y1="59.017544"
       x2="31.5"
       y2="4.9824562"
       gradientUnits="userSpaceOnUse"
       gradientTransform="translate(-0.5,-0.5087719)" />
    <linearGradient
       id="linearGradient8"
       inkscape:collect="always">
      <stop
         style="stop-color:#2e307b;stop-opacity:1;"
         offset="0"
         id="stop8" />
      <stop
         style="stop-color:#696ac9;stop-opacity:1;"
         offset="1"
         id="stop10" />
    </linearGradient>
  </defs>
  <sodipodi:namedview
     id="namedview7"
     pagecolor="#ffffff"
     bordercolor="#000000"
     borderopacity="0.25"
     inkscape:showpageshadow="2"
     inkscape:pageopacity="0.0"
     inkscape:pagecheckerboard="0"
     inkscape:deskcolor="#d1d1d1"
     inkscape:zoom="5.875"
     inkscape:cx="66.212766"
     inkscape:cy="57.361702"
     inkscape:window-width="1920"
     inkscape:window-height="998"
     inkscape:window-x="0"
     inkscape:window-y="0"
     inkscape:window-maximized="1"
     inkscape:current-layer="svg7" />
  <g
     id="g7"
     transform="translate(0,-0.4912281)">
    <rect
       style="opacity:0.2;stroke-width:0.9823"
       width="55"
       height="55.017544"
       x="3.5"
       y="4.4736843"
       rx="8.25"
       ry="8.2526312"
       id="rect1" />
    <rect
       style="fill:url(#linearGradient10);stroke-width:0.9823"
       width="55"
       height="55.017544"
       x="3.5"
       y="3.4912281"
       rx="8.25"
       ry="8.2526312"
       id="rect2" />
    <path
       style="opacity:0.1;fill:#ffffff;stroke-width:0.9823"
       d="M 11.748466,3.4912281 C 7.1779652,3.4912281 3.5,7.1703661 3.5,11.742325 v 0.982456 c 0,-4.5719589 3.6779652,-8.2510969 8.248466,-8.2510969 h 38.503068 c 4.5705,0 8.248466,3.679138 8.248466,8.2510969 v -0.982456 c 0,-4.5719589 -3.677966,-8.2510969 -8.248466,-8.2510969 z"
       id="path4-3" />
  </g>
  <g
     id="g1"
     transform="translate(-81.255319,-3.001942)">
    <path
       style="opacity:0.2;stroke-width:1.10732"
       d="m 92.256051,19.230086 c 0,0 4.668921,-0.126896 8.512479,-0.126896 5.33336,9.76e-4 11.48678,1.766634 11.48678,11.035667 0,9.269032 -6.15384,11.03456 -11.48741,11.00299 -1.180312,0.05112 -1.84586,0.06334 -1.84586,0.06334 V 50.00194 H 92.255319 Z M 98.922331,36.747 c 0.677894,0.06812 0.675879,0.03535 1.680669,0.02288 3.34667,-0.03968 4.9867,-3.670093 4.9867,-6.850253 0,-2.855739 -1.2756,-6.278666 -4.48893,-6.400039 -1.282223,-0.04854 -2.178004,0 -2.178004,0 z"
       id="path2-6" />
    <path
       style="fill:#4ebae4;stroke-width:1.10732;fill-opacity:1"
       d="m 92.256051,18.12884 c 0,0 4.668921,-0.126896 8.512479,-0.126896 5.33336,0 11.48678,1.765526 11.48678,11.034559 0,9.269034 -6.15384,11.034553 -11.48741,11.002993 -1.180312,0.05112 -1.84586,0.06334 -1.84586,0.06334 v 8.796754 h -6.666721 z m 6.66628,17.516917 c 0.677894,0.06812 0.675879,0.03535 1.680669,0.02288 3.34667,-0.04192 4.9867,-3.6723 4.9867,-6.852461 0,-2.855744 -1.2756,-6.278651 -4.48893,-6.400043 -1.282223,-0.04854 -2.178004,0 -2.178004,0 z"
       id="path3" />
    <g
       style="opacity:0.2"
       transform="matrix(0.23800179,0,0,0.25719347,78.108484,-2.640075)"
       id="g4">
      <path
         d="m 162.15,178.93 c 5.109,3.135 14.876,8.5808 23.094,8.5808 8.396,0 14.252,-4.7723 14.252,-9.3853 0,-4.619 -1.5608,-10.288 -11.968,-13.796 -18.439,-6.279 -25.559,-13.795 -25.375,-24.315 0,-16.991 14.238,-29.731 36.328,-29.731 10.352,0 24.357,8.5808 24.357,8.5808 v 17.162 c -4.019,-2.218 -15.777,-8.5808 -23.443,-8.5808 -6.758,0 -13.479,4.9994 -13.479,9.6124 0,5.9349 6.3605,6.464 17.313,10.344 16.976,5.908 24.096,14.584 24.277,27.879 0,16.805 -12.954,30.168 -38.701,29.357 -8.835,-0.278 -19.901,-4.8568 -26.656,-8.5458 -1.9e-4,-6.7093 -1.4e-4,-10.452 0.001,-17.162 z"
         id="path4" />
    </g>
    <g
       style="fill:#219fd1"
       transform="matrix(0.23800179,0,0,0.25719347,78.108484,-3.7424279)"
       id="g5">
      <path
         d="m 162.15,178.93 c 5.109,3.135 14.876,8.5808 23.094,8.5808 8.396,0 14.252,-4.7723 14.252,-9.3853 0,-4.619 -1.5608,-10.288 -11.968,-13.796 -18.439,-6.279 -25.559,-13.795 -25.375,-24.315 0,-16.991 14.238,-29.731 36.328,-29.731 10.352,0 24.357,8.5808 24.357,8.5808 v 17.162 c -4.019,-2.218 -15.777,-8.5808 -23.443,-8.5808 -6.758,0 -13.479,4.9994 -13.479,9.6124 0,5.9349 6.3605,6.464 17.313,10.344 16.976,5.908 24.096,14.584 24.277,27.879 0,16.805 -12.954,30.168 -38.701,29.357 -8.835,-0.278 -19.901,-4.8568 -26.656,-8.5458 -1.9e-4,-6.7093 -1.4e-4,-10.452 0.001,-17.162 z"
         id="path5"
         style="fill:#4ebae4;fill-opacity:1" />
    </g>
  </g>
</svg>
