<?xml version="1.0" encoding="UTF-8" standalone="no"?>
<svg
   width="62"
   height="62"
   version="1.1"
   id="svg7"
   sodipodi:docname="AdobePremierePro.svg"
   inkscape:version="1.4 (e7c3feb100, 2024-10-09)"
   xmlns:inkscape="http://www.inkscape.org/namespaces/inkscape"
   xmlns:sodipodi="http://sodipodi.sourceforge.net/DTD/sodipodi-0.dtd"
   xmlns:xlink="http://www.w3.org/1999/xlink"
   xmlns="http://www.w3.org/2000/svg"
   xmlns:svg="http://www.w3.org/2000/svg">
  <defs
     id="defs7">
    <linearGradient
       inkscape:collect="always"
       xlink:href="#linearGradient8"
       id="linearGradient10"
       x1="31.5"
       y1="59.017544"
       x2="31.5"
       y2="4.9824562"
       gradientUnits="userSpaceOnUse"
       gradientTransform="translate(-0.5,-0.5087719)" />
    <linearGradient
       id="linearGradient8"
       inkscape:collect="always">
      <stop
         style="stop-color:#735478;stop-opacity:1;"
         offset="0"
         id="stop8" />
      <stop
         style="stop-color:#a786ac;stop-opacity:1;"
         offset="1"
         id="stop10" />
    </linearGradient>
  </defs>
  <sodipodi:namedview
     id="namedview7"
     pagecolor="#ffffff"
     bordercolor="#000000"
     borderopacity="0.25"
     inkscape:showpageshadow="2"
     inkscape:pageopacity="0.0"
     inkscape:pagecheckerboard="0"
     inkscape:deskcolor="#d1d1d1"
     inkscape:zoom="5.875"
     inkscape:cx="66.212766"
     inkscape:cy="57.361702"
     inkscape:window-width="1920"
     inkscape:window-height="998"
     inkscape:window-x="0"
     inkscape:window-y="0"
     inkscape:window-maximized="1"
     inkscape:current-layer="svg7" />
  <g
     id="g7"
     transform="translate(0,-0.4912281)">
    <rect
       style="opacity:0.2;stroke-width:0.9823"
       width="55"
       height="55.017544"
       x="3.5"
       y="4.4736843"
       rx="8.25"
       ry="8.2526312"
       id="rect1" />
    <rect
       style="fill:url(#linearGradient10);stroke-width:0.9823"
       width="55"
       height="55.017544"
       x="3.5"
       y="3.4912281"
       rx="8.25"
       ry="8.2526312"
       id="rect2" />
    <path
       style="opacity:0.1;fill:#ffffff;stroke-width:0.9823"
       d="M 11.748466,3.4912281 C 7.1779652,3.4912281 3.5,7.1703661 3.5,11.742325 v 0.982456 c 0,-4.5719589 3.6779652,-8.2510969 8.248466,-8.2510969 h 38.503068 c 4.5705,0 8.248466,3.679138 8.248466,8.2510969 v -0.982456 c 0,-4.5719589 -3.677966,-8.2510969 -8.248466,-8.2510969 z"
       id="path4-3" />
  </g>
  <g
     id="g1"
     transform="translate(-77.680851,-9.5083909)">
    <path
       d="m 88.681576,26.107846 c 0,0 4.668749,-0.12739 8.512174,-0.12739 5.33315,0 11.48623,1.772471 11.48623,11.077956 0,9.305466 -6.15349,11.077939 -11.486894,11.046257 -1.180245,0.0513 -1.845783,0.06361 -1.845783,0.06361 v 8.83134 h -6.666452 z m 6.666017,17.585808 c 0.677865,0.0683 0.675868,0.03546 1.680601,0.02292 3.346586,-0.04205 4.986616,-3.686739 4.986616,-6.879412 0,-2.866976 -1.27562,-6.303356 -4.48885,-6.425207 -1.282183,-0.04867 -2.177932,0 -2.177932,0 z"
       style="opacity:0.2;stroke-width:1.10939"
       id="path2" />
    <path
       d="m 88.682332,25.127009 c 0,0 4.668717,-0.12739 8.512163,-0.12739 5.333055,0 11.486345,1.772473 11.486345,11.077956 0,9.305467 -6.15368,11.077935 -11.487008,11.046252 -1.180263,0.0513 -1.845804,0.06361 -1.845804,0.06361 v 8.831341 h -6.666452 z m 6.665988,17.585808 c 0.677864,0.0683 0.675871,0.03547 1.680623,0.02292 3.346597,-0.04205 4.986557,-3.68675 4.986557,-6.879412 0,-2.86697 -1.27562,-6.303355 -4.488795,-6.425198 -1.282182,-0.04867 -2.177928,0 -2.177928,0 z"
       style="fill:#dccdde;stroke-width:1.10939"
       id="path3-3" />
    <path
       d="m 113.12482,32.627746 v 24.371836 h 5.55544 V 40.382413 c 3.33342,-3.323416 9.99993,-2.215622 9.99993,-2.215622 v -5.539045 c 0,0 -6.66651,0 -9.99993,2.215624 v -2.215624 z"
       style="opacity:0.2;stroke-width:1.10939"
       id="path5" />
    <path
       d="m 113.12548,31.646909 v 24.371836 h 5.55548 V 39.401577 c 3.33338,-3.323437 9.99989,-2.215623 9.99989,-2.215623 v -5.539045 c 0,0 -6.66651,0 -9.99989,2.215624 v -2.215624 z"
       style="fill:#dccdde;stroke-width:1.10939"
       id="path6" />
  </g>
</svg>
