<?xml version="1.0" encoding="UTF-8" standalone="no"?>
<svg
   width="62"
   height="62"
   version="1.1"
   id="svg7"
   sodipodi:docname="AdobeCharacterAnimator.svg"
   inkscape:version="1.4 (e7c3feb100, 2024-10-09)"
   xmlns:inkscape="http://www.inkscape.org/namespaces/inkscape"
   xmlns:sodipodi="http://sodipodi.sourceforge.net/DTD/sodipodi-0.dtd"
   xmlns:xlink="http://www.w3.org/1999/xlink"
   xmlns="http://www.w3.org/2000/svg"
   xmlns:svg="http://www.w3.org/2000/svg">
  <defs
     id="defs7">
    <linearGradient
       inkscape:collect="always"
       xlink:href="#linearGradient8"
       id="linearGradient10"
       x1="31.5"
       y1="59.017544"
       x2="31.5"
       y2="4.9824562"
       gradientUnits="userSpaceOnUse"
       gradientTransform="translate(-0.5,-0.5087719)" />
    <linearGradient
       id="linearGradient8"
       inkscape:collect="always">
      <stop
         style="stop-color:#633aac;stop-opacity:1;"
         offset="0"
         id="stop8" />
      <stop
         style="stop-color:#9d7ed5;stop-opacity:1"
         offset="1"
         id="stop10" />
    </linearGradient>
  </defs>
  <sodipodi:namedview
     id="namedview7"
     pagecolor="#ffffff"
     bordercolor="#000000"
     borderopacity="0.25"
     inkscape:showpageshadow="2"
     inkscape:pageopacity="0.0"
     inkscape:pagecheckerboard="0"
     inkscape:deskcolor="#d1d1d1"
     inkscape:zoom="5.875"
     inkscape:cx="66.212766"
     inkscape:cy="57.361702"
     inkscape:window-width="1920"
     inkscape:window-height="998"
     inkscape:window-x="0"
     inkscape:window-y="0"
     inkscape:window-maximized="1"
     inkscape:current-layer="svg7" />
  <g
     id="g7"
     transform="translate(0,-0.4912281)">
    <rect
       style="opacity:0.2;stroke-width:0.9823"
       width="55"
       height="55.017544"
       x="3.5"
       y="4.4736843"
       rx="8.25"
       ry="8.2526312"
       id="rect1" />
    <rect
       style="fill:url(#linearGradient10);stroke-width:0.9823"
       width="55"
       height="55.017544"
       x="3.5"
       y="3.4912281"
       rx="8.25"
       ry="8.2526312"
       id="rect2" />
    <path
       style="opacity:0.1;fill:#ffffff;stroke-width:0.9823"
       d="M 11.748466,3.4912281 C 7.1779652,3.4912281 3.5,7.1703661 3.5,11.742325 v 0.982456 c 0,-4.5719589 3.6779652,-8.2510969 8.248466,-8.2510969 h 38.503068 c 4.5705,0 8.248466,3.679138 8.248466,8.2510969 v -0.982456 c 0,-4.5719589 -3.677966,-8.2510969 -8.248466,-8.2510969 z"
       id="path4-3" />
  </g>
  <g
     id="g1"
     transform="matrix(1.0128679,0,0,1,0.2981437,0)">
    <path
       d="M 33.622156,17.206895 V 47 h 4.413807 V 32.655172 h 4.41379 c 2.20688,0 2.20688,2.206898 2.20688,2.206898 V 47 h 4.41379 V 33.758621 c 0,-2.206898 -2.20688,-5.517242 -7.72411,-5.517242 -1.28382,0 -2.37112,0.126969 -3.31035,0.310344 V 17.206895 Z"
       style="opacity:0.2;stroke-width:1.10344"
       id="path3" />
    <path
       d="m 33.622156,16.103449 v 29.793102 h 4.413807 V 31.551723 h 4.41379 c 2.20688,0 2.20688,2.206898 2.20688,2.206898 v 12.13793 h 4.41379 V 32.655172 c 0,-2.206895 -2.20688,-5.517242 -7.72411,-5.517242 -1.28382,0 -2.37112,0.126969 -3.31035,0.310347 V 16.103449 Z"
       style="fill:#b49ddf;stroke-width:1.10344"
       id="path4" />
    <path
       d="M 24.242847,16.103449 A 12.689656,15.448277 0 0 0 11.553191,31.551723 12.689656,15.448277 0 0 0 24.242847,47 12.689656,15.448277 0 0 0 28.104914,46.260775 v -7.918104 a 6.0689656,8.8275863 0 0 1 -3.862067,2.036641 6.0689656,8.8275863 0 0 1 -6.068968,-8.827589 6.0689656,8.8275863 0 0 1 6.068968,-8.827586 6.0689656,8.8275863 0 0 1 3.862067,2.034484 v -7.903019 a 12.689656,15.448277 0 0 0 -3.862067,-0.752153 z"
       style="opacity:0.2;stroke-width:1.10344"
       id="path5" />
    <path
       d="m 24.242847,15 a 12.689656,15.448277 0 0 0 -12.689656,15.448277 12.689656,15.448277 0 0 0 12.689656,15.448274 12.689656,15.448277 0 0 0 3.862067,-0.739225 v -7.918104 a 6.0689656,8.8275863 0 0 1 -3.862067,2.036641 6.0689656,8.8275863 0 0 1 -6.068968,-8.827586 6.0689656,8.8275863 0 0 1 6.068968,-8.827589 6.0689656,8.8275863 0 0 1 3.862067,2.034484 V 15.752156 A 12.689656,15.448277 0 0 0 24.242847,15 Z"
       style="fill:#b49ddf;stroke-width:1.10344"
       id="path6-9" />
  </g>
</svg>
