<?xml version="1.0" encoding="UTF-8" standalone="no"?>
<svg
   width="62"
   height="62"
   version="1.1"
   id="svg7"
   sodipodi:docname="AdobeAnimate.svg"
   inkscape:version="1.4 (e7c3feb100, 2024-10-09)"
   xmlns:inkscape="http://www.inkscape.org/namespaces/inkscape"
   xmlns:sodipodi="http://sodipodi.sourceforge.net/DTD/sodipodi-0.dtd"
   xmlns:xlink="http://www.w3.org/1999/xlink"
   xmlns="http://www.w3.org/2000/svg"
   xmlns:svg="http://www.w3.org/2000/svg">
  <defs
     id="defs7">
    <linearGradient
       inkscape:collect="always"
       xlink:href="#linearGradient8"
       id="linearGradient10"
       x1="31.5"
       y1="59.017544"
       x2="31.5"
       y2="4.9824562"
       gradientUnits="userSpaceOnUse"
       gradientTransform="translate(-0.5,-0.5087719)" />
    <linearGradient
       id="linearGradient8"
       inkscape:collect="always">
      <stop
         style="stop-color:#b42b6f;stop-opacity:1"
         offset="0"
         id="stop8" />
      <stop
         style="stop-color:#dc3545;stop-opacity:1"
         offset="1"
         id="stop10" />
    </linearGradient>
  </defs>
  <sodipodi:namedview
     id="namedview7"
     pagecolor="#ffffff"
     bordercolor="#000000"
     borderopacity="0.25"
     inkscape:showpageshadow="2"
     inkscape:pageopacity="0.0"
     inkscape:pagecheckerboard="0"
     inkscape:deskcolor="#d1d1d1"
     inkscape:zoom="5.875"
     inkscape:cx="66.212766"
     inkscape:cy="57.361702"
     inkscape:window-width="1920"
     inkscape:window-height="998"
     inkscape:window-x="0"
     inkscape:window-y="0"
     inkscape:window-maximized="1"
     inkscape:current-layer="svg7" />
  <g
     id="g7"
     transform="translate(0,-0.4912281)">
    <rect
       style="opacity:0.2;stroke-width:0.9823"
       width="55"
       height="55.017544"
       x="3.5"
       y="4.4736843"
       rx="8.25"
       ry="8.2526312"
       id="rect1" />
    <rect
       style="fill:url(#linearGradient10);stroke-width:0.9823"
       width="55"
       height="55.017544"
       x="3.5"
       y="3.4912281"
       rx="8.25"
       ry="8.2526312"
       id="rect2" />
    <path
       style="opacity:0.1;fill:#ffffff;stroke-width:0.9823"
       d="M 11.748466,3.4912281 C 7.1779652,3.4912281 3.5,7.1703661 3.5,11.742325 v 0.982456 c 0,-4.5719589 3.6779652,-8.2510969 8.248466,-8.2510969 h 38.503068 c 4.5705,0 8.248466,3.679138 8.248466,8.2510969 v -0.982456 c 0,-4.5719589 -3.677966,-8.2510969 -8.248466,-8.2510969 z"
       id="path4-3" />
  </g>
  <g
     id="g1"
     transform="translate(-79.415271,-5.353297)">
    <path
       style="opacity:0.2;stroke-width:1.10346"
       d="m 97.173883,21.456743 -6.620692,30.896554 h 6.620692 l 1.161638,-8.827584 h 3.831859 l 1.62719,8.827584 h 6.6207 l -7.72416,-30.896554 z m 25.379307,6.620692 c -5.51722,0 -7.72416,2.206892 -7.72416,2.206892 v 22.06897 h 4.41386 v -19.86207 h 4.41376 c 2.20684,0 2.20684,2.206902 2.20684,2.206902 v 17.655168 h 4.41386 V 33.594673 c 0,-2.206892 -2.20694,-5.517238 -7.72416,-5.517238 z m -22.620691,3.310346 1.422451,7.72414 h -2.439694 z"
       id="path2" />
    <path
       style="fill:#eeb4aa;stroke-width:1.10346;fill-opacity:1"
       d="m 97.173883,20.353297 -6.620692,30.896554 h 6.620692 l 1.161638,-8.827584 h 3.831859 l 1.62719,8.827584 h 6.6207 l -7.72416,-30.896554 z m 25.379307,6.620692 c -5.51722,0 -7.72416,2.206892 -7.72416,2.206892 v 22.06897 h 4.41386 v -19.86207 h 4.41376 c 2.20684,0 2.20684,2.206892 2.20684,2.206892 v 17.655178 h 4.41386 V 32.491227 c 0,-2.2069 -2.20694,-5.517238 -7.72416,-5.517238 z m -22.620691,3.310338 1.422451,7.724138 h -2.439694 z"
       id="path4-6" />
  </g>
</svg>
