<?xml version="1.0" encoding="UTF-8" standalone="no"?>
<svg
   width="62"
   height="62"
   version="1.1"
   id="svg7"
   sodipodi:docname="AdobeMediaEncoder.svg"
   inkscape:version="1.4 (e7c3feb100, 2024-10-09)"
   xmlns:inkscape="http://www.inkscape.org/namespaces/inkscape"
   xmlns:sodipodi="http://sodipodi.sourceforge.net/DTD/sodipodi-0.dtd"
   xmlns:xlink="http://www.w3.org/1999/xlink"
   xmlns="http://www.w3.org/2000/svg"
   xmlns:svg="http://www.w3.org/2000/svg">
  <defs
     id="defs7">
    <linearGradient
       inkscape:collect="always"
       xlink:href="#linearGradient8"
       id="linearGradient10"
       x1="31.5"
       y1="59.017544"
       x2="31.5"
       y2="4.9824562"
       gradientUnits="userSpaceOnUse"
       gradientTransform="translate(-0.5,-0.5087719)" />
    <linearGradient
       id="linearGradient8"
       inkscape:collect="always">
      <stop
         style="stop-color:#373895;stop-opacity:1;"
         offset="0"
         id="stop8" />
      <stop
         style="stop-color:#5556c4;stop-opacity:1;"
         offset="1"
         id="stop10" />
    </linearGradient>
  </defs>
  <sodipodi:namedview
     id="namedview7"
     pagecolor="#ffffff"
     bordercolor="#000000"
     borderopacity="0.25"
     inkscape:showpageshadow="2"
     inkscape:pageopacity="0.0"
     inkscape:pagecheckerboard="0"
     inkscape:deskcolor="#d1d1d1"
     inkscape:zoom="5.875"
     inkscape:cx="66.212766"
     inkscape:cy="57.361702"
     inkscape:window-width="1920"
     inkscape:window-height="998"
     inkscape:window-x="0"
     inkscape:window-y="0"
     inkscape:window-maximized="1"
     inkscape:current-layer="svg7" />
  <g
     id="g7"
     transform="translate(0,-0.4912281)">
    <rect
       style="opacity:0.2;stroke-width:0.9823"
       width="55"
       height="55.017544"
       x="3.5"
       y="4.4736843"
       rx="8.25"
       ry="8.2526312"
       id="rect1" />
    <rect
       style="fill:url(#linearGradient10);stroke-width:0.9823"
       width="55"
       height="55.017544"
       x="3.5"
       y="3.4912281"
       rx="8.25"
       ry="8.2526312"
       id="rect2" />
    <path
       style="opacity:0.1;fill:#ffffff;stroke-width:0.9823"
       d="M 11.748466,3.4912281 C 7.1779652,3.4912281 3.5,7.1703661 3.5,11.742325 v 0.982456 c 0,-4.5719589 3.6779652,-8.2510969 8.248466,-8.2510969 h 38.503068 c 4.5705,0 8.248466,3.679138 8.248466,8.2510969 v -0.982456 c 0,-4.5719589 -3.677966,-8.2510969 -8.248466,-8.2510969 z"
       id="path4-3" />
  </g>
  <g
     id="g1"
     transform="translate(3.1276889,-0.5)">
    <path
       d="M 9.8727973,14 V 50 H 45.872282 v -4 h -3.99994 v -4 h -3.99994 v -4 h -3.99995 v -4 h -3.99994 v -4 h -3.99994 v -4 h -3.99995 v -4 h -3.99994 v -4 h -3.99994 v -4 z m 7.9998847,4 h 3.99994 v -4 h -3.99994 z m 3.99994,0 v 4 h 3.99995 v -4 z m 3.99995,4 v 4 h 3.99994 v -4 z m 3.99994,0 h 3.99994 v -4 h -3.99994 z m 0,4 v 4 h 3.99994 v -4 z m 3.99994,4 v 4 h 3.99995 v -4 z m 3.99995,0 h 3.99994 v -4 h -3.99994 z m 3.99994,0 v 4 h 3.99994 v -4 z m 0,4 h -3.99994 v 4 h 3.99994 z m 0,4 v 4 h 3.99994 v -4 z m -3.99994,-20 v 4 h 3.99994 v -4 z"
       style="opacity:0.2"
       id="path2" />
    <path
       d="M 9.8723403,13 V 49 H 45.871822 v -4 h -3.99994 v -4 h -3.99994 v -4 h -3.99994 v -4 h -3.99995 v -4 h -3.99994 v -4 h -3.99994 v -4 h -3.99995 v -4 h -3.99994 v -4 z m 7.9998817,4 h 3.99995 v -4 h -3.99995 z m 3.99995,0 v 4 h 3.99994 v -4 z m 3.99994,4 v 4 h 3.99994 v -4 z m 3.99994,0 h 3.99995 v -4 h -3.99995 z m 0,4 v 4 h 3.99995 v -4 z m 3.99995,4 v 4 h 3.99994 v -4 z m 3.99994,0 h 3.99994 v -4 h -3.99994 z m 3.99994,0 v 4 h 3.99994 v -4 z m 0,4 h -3.99994 v 4 h 3.99994 z m 0,4 v 4 h 3.99994 v -4 z m -3.99994,-20 v 4 h 3.99994 v -4 z"
       style="fill:#a2a5f5"
       id="path3-9" />
  </g>
</svg>
