<?xml version="1.0" encoding="UTF-8" standalone="no"?>
<svg
   width="62"
   height="62"
   version="1"
   id="svg7"
   sodipodi:docname="adventure-capitalist.svg"
   inkscape:version="1.4 (e7c3feb100, 2024-10-09)"
   xmlns:inkscape="http://www.inkscape.org/namespaces/inkscape"
   xmlns:sodipodi="http://sodipodi.sourceforge.net/DTD/sodipodi-0.dtd"
   xmlns:xlink="http://www.w3.org/1999/xlink"
   xmlns="http://www.w3.org/2000/svg"
   xmlns:svg="http://www.w3.org/2000/svg">
  <defs
     id="defs7">
    <linearGradient
       id="linearGradient17"
       inkscape:collect="always">
      <stop
         style="stop-color:#ffffff;stop-opacity:1;"
         offset="0"
         id="stop16" />
      <stop
         style="stop-color:#b7bec8;stop-opacity:1;"
         offset="1"
         id="stop17" />
    </linearGradient>
    <linearGradient
       id="linearGradient14"
       inkscape:collect="always">
      <stop
         style="stop-color:#ffffff;stop-opacity:1;"
         offset="0"
         id="stop14" />
      <stop
         style="stop-color:#b7bdc8;stop-opacity:1;"
         offset="1"
         id="stop15" />
    </linearGradient>
    <linearGradient
       id="linearGradient9"
       inkscape:collect="always">
      <stop
         style="stop-color:#008080;stop-opacity:1"
         offset="0"
         id="stop9" />
      <stop
         style="stop-color:#55ff99;stop-opacity:1;"
         offset="0.75855494"
         id="stop11" />
      <stop
         style="stop-color:#55ff99;stop-opacity:1;"
         offset="1"
         id="stop10" />
    </linearGradient>
    <linearGradient
       id="linearGradient2"
       inkscape:collect="always">
      <stop
         style="stop-color:#55ff99;stop-opacity:1;"
         offset="0"
         id="stop7" />
      <stop
         style="stop-color:#008080;stop-opacity:1"
         offset="1"
         id="stop8" />
    </linearGradient>
    <linearGradient
       id="c-3"
       gradientUnits="userSpaceOnUse"
       x1="24.072048"
       x2="23.959682"
       y1="0.75082099"
       y2="46.056854">
      <stop
         offset="0"
         stop-color="#fff"
         id="stop3" />
      <stop
         offset="1"
         stop-color="#d9d9d9"
         id="stop4" />
    </linearGradient>
    <linearGradient
       id="b-6"
       gradientUnits="userSpaceOnUse"
       x1="29.203026"
       x2="34.121048"
       xlink:href="#a-7"
       y1="24.827356"
       y2="29.224836" />
    <linearGradient
       id="a-7">
      <stop
         offset="0"
         id="stop1" />
      <stop
         offset="1"
         stop-opacity="0"
         id="stop2" />
    </linearGradient>
    <linearGradient
       id="d"
       gradientUnits="userSpaceOnUse"
       x1="15.948756"
       x2="25.031786"
       xlink:href="#a-7"
       y1="23.618279"
       y2="33.69899" />
    <linearGradient
       id="e"
       gradientUnits="userSpaceOnUse"
       x1="21.990562"
       x2="29.320522"
       xlink:href="#a-7"
       y1="33.780373"
       y2="41.931858" />
    <linearGradient
       id="paint154_linear_890_11"
       x1="778"
       y1="812.29199"
       x2="788"
       y2="812.29199"
       gradientUnits="userSpaceOnUse"
       gradientTransform="translate(-751,-696)">
      <stop
         stop-color="#EFF2F6"
         id="stop1050" />
      <stop
         offset="0.600785"
         stop-color="#B7C6CD"
         id="stop1051" />
    </linearGradient>
    <linearGradient
       id="paint155_linear_890_11"
       x1="783"
       y1="813"
       x2="783"
       y2="817"
       gradientUnits="userSpaceOnUse"
       gradientTransform="translate(-751,-696)">
      <stop
         stop-color="#EFF2F6"
         id="stop1052" />
      <stop
         offset="0.734138"
         stop-color="#B7C6CD"
         id="stop1053" />
    </linearGradient>
    <radialGradient
       id="paint156_radial_890_11"
       cx="0"
       cy="0"
       r="1"
       gradientUnits="userSpaceOnUse"
       gradientTransform="matrix(27.999986,27.999976,-27.999986,27.999976,32.302392,33.999998)">
      <stop
         offset="0.60067803"
         stop-color="#B7C6CD"
         id="stop1054"
         style="stop-color:#384850;stop-opacity:1;" />
      <stop
         offset="0.876735"
         stop-color="#EFF2F6"
         id="stop1055" />
    </radialGradient>
    <linearGradient
       id="paint157_linear_890_11"
       x1="796.84485"
       y1="799.43359"
       x2="768.90088"
       y2="770.81476"
       gradientUnits="userSpaceOnUse"
       gradientTransform="matrix(1.1666666,0,0,1.1666668,-881.19764,-881.8333)">
      <stop
         offset="0.00000057"
         stop-color="#2E2E41"
         id="stop1056"
         style="stop-color:#424b58;stop-opacity:1;" />
      <stop
         offset="0.71113902"
         stop-color="#566C80"
         id="stop1057"
         style="stop-color:#303c47;stop-opacity:1;" />
    </linearGradient>
    <linearGradient
       id="paint158_linear_890_11"
       x1="792"
       y1="794"
       x2="774"
       y2="776"
       gradientUnits="userSpaceOnUse"
       gradientTransform="translate(-751,-696)">
      <stop
         offset="0.304478"
         stop-color="#2E2E41"
         id="stop1058" />
      <stop
         offset="1"
         stop-color="#566C80"
         id="stop1059" />
    </linearGradient>
    <linearGradient
       id="paint159_linear_890_11"
       x1="788"
       y1="790"
       x2="778"
       y2="780"
       gradientUnits="userSpaceOnUse"
       gradientTransform="translate(-751,-696)">
      <stop
         offset="0.391394"
         stop-color="#5200FF"
         id="stop1060" />
      <stop
         offset="1"
         stop-color="#0085FF"
         id="stop1061" />
    </linearGradient>
    <linearGradient
       id="paint160_linear_890_11"
       x1="784"
       y1="798"
       x2="782"
       y2="796"
       gradientUnits="userSpaceOnUse"
       gradientTransform="translate(-751,-696)">
      <stop
         stop-color="#FF7E07"
         id="stop1062" />
      <stop
         offset="1"
         stop-color="#FFE607"
         id="stop1063" />
    </linearGradient>
    <linearGradient
       id="c-3-6"
       gradientUnits="userSpaceOnUse"
       x1="24.072048"
       x2="23.959682"
       y1="0.75082099"
       y2="46.056854"
       gradientTransform="matrix(0.91471346,0,0,0.90068147,9.0468769,9.3836444)">
      <stop
         offset="0"
         stop-color="#fff"
         id="stop3-2" />
      <stop
         offset="1"
         stop-color="#d9d9d9"
         id="stop4-9" />
    </linearGradient>
    <linearGradient
       id="b-6-1"
       gradientUnits="userSpaceOnUse"
       x1="29.203026"
       x2="34.121048"
       xlink:href="#a-7"
       y1="24.827356"
       y2="29.224836"
       gradientTransform="matrix(1.1104534,0,0,1.0934187,4.3491158,4.7861435)" />
    <linearGradient
       id="d-0"
       gradientUnits="userSpaceOnUse"
       x1="15.948756"
       x2="25.031786"
       xlink:href="#a-7"
       y1="23.618279"
       y2="33.69899"
       gradientTransform="matrix(1.1104534,0,0,1.0934187,4.3491158,4.7861435)" />
    <linearGradient
       id="e-9"
       gradientUnits="userSpaceOnUse"
       x1="21.990562"
       x2="29.320522"
       xlink:href="#a-7"
       y1="33.780373"
       y2="41.931858"
       gradientTransform="matrix(1.1104534,0,0,1.0934187,4.3491158,4.7861435)" />
    <linearGradient
       id="paint539_linear_890_11"
       x1="1015.7629"
       y1="328.28369"
       x2="971.90527"
       y2="280.45508"
       gradientUnits="userSpaceOnUse"
       gradientTransform="translate(-952,-258)">
      <stop
         offset="0.223912"
         stop-color="#5200FF"
         id="stop1821"
         style="stop-color:#55ff99;stop-opacity:1" />
      <stop
         offset="0.902995"
         stop-color="#0085FF"
         id="stop1822"
         style="stop-color:#008080;stop-opacity:1" />
    </linearGradient>
    <linearGradient
       id="paint540_linear_890_11"
       x1="974.5"
       y1="274"
       x2="974.5"
       y2="280"
       gradientUnits="userSpaceOnUse"
       gradientTransform="translate(-956.76287,-248.99466)">
      <stop
         offset="0.189495"
         stop-color="#EFF2F6"
         id="stop1823" />
      <stop
         offset="0.850463"
         stop-color="#B7C6CD"
         id="stop1824" />
    </linearGradient>
    <linearGradient
       id="paint541_linear_890_11"
       x1="983"
       y1="282"
       x2="983"
       y2="288"
       gradientUnits="userSpaceOnUse"
       gradientTransform="translate(-956.76287,-248.99466)">
      <stop
         offset="0.189495"
         stop-color="#EFF2F6"
         id="stop1825" />
      <stop
         offset="0.850463"
         stop-color="#B7C6CD"
         id="stop1826" />
    </linearGradient>
    <linearGradient
       id="paint542_linear_890_11"
       x1="983"
       y1="290"
       x2="983"
       y2="296"
       gradientUnits="userSpaceOnUse"
       gradientTransform="translate(-956.76287,-248.99466)">
      <stop
         offset="0.189495"
         stop-color="#EFF2F6"
         id="stop1827" />
      <stop
         offset="0.850463"
         stop-color="#B7C6CD"
         id="stop1828" />
    </linearGradient>
    <linearGradient
       id="paint543_linear_890_11"
       x1="978.5"
       y1="298"
       x2="978.5"
       y2="304"
       gradientUnits="userSpaceOnUse"
       gradientTransform="translate(-956.76287,-248.99466)">
      <stop
         offset="0.189495"
         stop-color="#EFF2F6"
         id="stop1829" />
      <stop
         offset="0.850463"
         stop-color="#B7C6CD"
         id="stop1830" />
    </linearGradient>
    <linearGradient
       id="paint544_linear_890_11"
       x1="993"
       y1="261"
       x2="1007"
       y2="275"
       gradientUnits="userSpaceOnUse"
       gradientTransform="translate(-952,-258)">
      <stop
         stop-color="#EFF2F6"
         id="stop1831" />
      <stop
         offset="1"
         stop-color="#B7C6CD"
         id="stop1832" />
    </linearGradient>
    <linearGradient
       id="paint545_linear_890_11"
       x1="1000.58"
       y1="267.41699"
       x2="994.75"
       y2="273.25"
       gradientUnits="userSpaceOnUse"
       gradientTransform="translate(-952,-258)">
      <stop
         stop-color="#5200FF"
         id="stop1833"
         style="stop-color:#008080;stop-opacity:1" />
      <stop
         offset="1"
         stop-color="#0085FF"
         id="stop1834"
         style="stop-color:#55ff99;stop-opacity:1" />
    </linearGradient>
    <linearGradient
       inkscape:collect="always"
       xlink:href="#paint541_linear_890_11"
       id="linearGradient6"
       x1="5.2031999"
       y1="8.4664898"
       x2="11.7298"
       y2="8.4664898"
       gradientUnits="userSpaceOnUse" />
    <linearGradient
       inkscape:collect="always"
       xlink:href="#linearGradient2"
       id="linearGradient8"
       x1="41.990452"
       y1="14.303634"
       x2="48"
       y2="10"
       gradientUnits="userSpaceOnUse" />
    <linearGradient
       inkscape:collect="always"
       xlink:href="#linearGradient9"
       id="linearGradient10"
       x1="22.004919"
       y1="17.262474"
       x2="55"
       y2="56.088223"
       gradientUnits="userSpaceOnUse" />
    <linearGradient
       id="c"
       x2="1"
       gradientTransform="matrix(28.349555,-6.0638276,6.2411134,27.544255,239.97157,997.65531)"
       gradientUnits="userSpaceOnUse">
      <stop
         stop-color="#f6fbff"
         offset="0"
         id="stop5" />
      <stop
         stop-color="#eaeff2"
         offset="1"
         id="stop6" />
    </linearGradient>
    <linearGradient
       id="paint644_linear_890_11"
       x1="770"
       y1="206"
       x2="770"
       y2="200"
       gradientUnits="userSpaceOnUse">
      <stop
         offset="0.155999"
         stop-color="#71706E"
         id="stop2031" />
      <stop
         offset="0.796276"
         stop-color="#B9AA99"
         id="stop2032" />
    </linearGradient>
    <linearGradient
       id="paint646_linear_890_11"
       x1="789"
       y1="182"
       x2="789"
       y2="176"
       gradientUnits="userSpaceOnUse"
       gradientTransform="translate(-750.59823,-156)">
      <stop
         offset="0.155999"
         stop-color="#71706E"
         id="stop2035" />
      <stop
         offset="0.796276"
         stop-color="#B9AA99"
         id="stop2036" />
    </linearGradient>
    <linearGradient
       id="paint647_linear_890_11"
       x1="789"
       y1="190"
       x2="789"
       y2="184"
       gradientUnits="userSpaceOnUse"
       gradientTransform="translate(-750.59823,-156)">
      <stop
         offset="0.155999"
         stop-color="#71706E"
         id="stop2037" />
      <stop
         offset="0.796276"
         stop-color="#B9AA99"
         id="stop2038" />
    </linearGradient>
    <linearGradient
       id="paint648_linear_890_11"
       x1="779"
       y1="194"
       x2="759.07098"
       y2="181.31799"
       gradientUnits="userSpaceOnUse"
       gradientTransform="translate(-750.59823,-156)">
      <stop
         stop-color="#089953"
         id="stop2039" />
      <stop
         offset="1"
         stop-color="#16D96F"
         id="stop2040" />
    </linearGradient>
    <linearGradient
       inkscape:collect="always"
       xlink:href="#linearGradient14"
       id="linearGradient13"
       x1="14.401771"
       y1="27"
       x2="28.401772"
       y2="27"
       gradientUnits="userSpaceOnUse" />
    <linearGradient
       inkscape:collect="always"
       xlink:href="#linearGradient17"
       id="linearGradient15"
       x1="46.881927"
       y1="12.040669"
       x2="53.116726"
       y2="5.8430409"
       gradientUnits="userSpaceOnUse" />
    <linearGradient
       inkscape:collect="always"
       xlink:href="#linearGradient17"
       id="linearGradient19"
       x1="44.004921"
       y1="21"
       x2="44.039684"
       y2="25"
       gradientUnits="userSpaceOnUse" />
    <linearGradient
       inkscape:collect="always"
       xlink:href="#linearGradient17"
       id="linearGradient21"
       x1="44.004921"
       y1="29"
       x2="43.799606"
       y2="33"
       gradientUnits="userSpaceOnUse" />
    <linearGradient
       inkscape:collect="always"
       xlink:href="#linearGradient17"
       id="linearGradient23"
       x1="19.401772"
       y1="45"
       x2="19.401772"
       y2="49"
       gradientUnits="userSpaceOnUse" />
    <linearGradient
       inkscape:collect="always"
       xlink:href="#linearGradient17"
       id="linearGradient25"
       x1="31.401772"
       y1="45"
       x2="31.401772"
       y2="49"
       gradientUnits="userSpaceOnUse" />
  </defs>
  <sodipodi:namedview
     id="namedview7"
     pagecolor="#ffffff"
     bordercolor="#000000"
     borderopacity="0.25"
     inkscape:showpageshadow="2"
     inkscape:pageopacity="0.0"
     inkscape:pagecheckerboard="0"
     inkscape:deskcolor="#d1d1d1"
     inkscape:zoom="8.3306018"
     inkscape:cx="26.588715"
     inkscape:cy="23.647751"
     inkscape:window-width="1920"
     inkscape:window-height="994"
     inkscape:window-x="0"
     inkscape:window-y="0"
     inkscape:window-maximized="1"
     inkscape:current-layer="svg7" />
  <path
     d="M 7,9 C 7,5.686 9.686,3 13,3 h 34 c 4.42,0 8,3.582 8,8 v 42 c 0,3.314 -2.69,6 -6,6 H 13 C 9.686,59 7,56.314 7,53 Z"
     id="path526"
     style="fill:url(#linearGradient10)" />
  <path
     d="m 41,3 h 8 c 3.31,0 6,2.686 6,6 v 8 h -6 c -4.418,0 -8,-3.582 -8,-8 z"
     id="path531"
     style="fill:url(#linearGradient15)" />
  <path
     d="M 41,11 V 3 l 14,14 h -8 c -3.314,0 -6,-2.686 -6,-6 z"
     id="path532"
     style="fill:url(#linearGradient8)" />
  <g
     transform="matrix(3.2481416,0,0,3.2481416,2.5772696,-10.025019)"
     fill="#ffffff"
     aria-label="T"
     id="g14"
     style="fill:url(#linearGradient6);fill-opacity:0.665699" />
  <path
     d="m 16.401771,45 c -1.105,0 -2,0.895 -2,2 0,1.105 0.895,2 2,2 h 6 c 1.105,0 2,-0.895 2,-2 0,-1.105 -0.895,-2 -2,-2 z"
     id="path627"
     style="fill:url(#linearGradient23)"
     sodipodi:nodetypes="sssssss" />
  <path
     d="m 30.401771,45 c -1.105,0 -2,0.895 -2,2 0,1.105 0.895,2 2,2 h 2 c 1.105,0 2,-0.895 2,-2 0,-1.105 -0.895,-2 -2,-2 z"
     id="path628"
     style="fill:url(#linearGradient25)" />
  <path
     d="m 34.401771,23 c 0,-1.105 0.895,-2 2,-2 h 12 c 1.105,0 2,0.895 2,2 0,1.105 -0.895,2 -2,2 h -12 c -1.105,0 -2,-0.895 -2,-2 z"
     id="path629"
     style="fill:url(#linearGradient19)" />
  <path
     d="m 34.401771,31 c 0,-1.105 0.895,-2 2,-2 h 12 c 1.105,0 2,0.895 2,2 0,1.105 -0.895,2 -2,2 h -12 c -1.105,0 -2,-0.895 -2,-2 z"
     id="path630"
     style="fill:url(#linearGradient21)"
     sodipodi:nodetypes="sssssss" />
  <path
     d="M 20.401771,38 V 16 h 2 v 22 z m 3.431,-14.3 c -0.043,-0.573 -0.247,-1.02 -0.612,-1.341 -0.359,-0.32 -0.905,-0.481 -1.64,-0.481 -0.467,0 -0.851,0.06 -1.15,0.181 -0.294,0.114 -0.511,0.272 -0.653,0.472 -0.141,0.201 -0.214,0.43 -0.22,0.688 -0.011,0.212 0.025,0.404 0.106,0.576 0.087,0.166 0.223,0.318 0.408,0.455 0.185,0.132 0.422,0.252 0.71,0.361 0.288,0.109 0.631,0.206 1.028,0.292 l 1.371,0.31 c 0.924,0.206 1.716,0.478 2.374,0.816 0.658,0.338 1.196,0.736 1.615,1.194 0.419,0.453 0.726,0.963 0.922,1.53 0.201,0.567 0.305,1.186 0.31,1.856 -0.005,1.158 -0.28,2.137 -0.824,2.939 -0.544,0.803 -1.322,1.413 -2.333,1.831 -1.007,0.418 -2.217,0.627 -3.631,0.627 -1.452,0 -2.719,-0.226 -3.802,-0.679 -1.077,-0.452 -1.914,-1.148 -2.513,-2.088 -0.592,-0.945 -0.892,-2.154 -0.897,-3.626 h 4.308 c 0.027,0.538 0.155,0.991 0.383,1.357 0.229,0.367 0.549,0.645 0.963,0.834 0.419,0.189 0.916,0.283 1.493,0.283 0.484,0 0.889,-0.063 1.215,-0.189 0.327,-0.126 0.574,-0.3 0.743,-0.524 0.169,-0.223 0.256,-0.478 0.261,-0.765 -0.005,-0.269 -0.09,-0.504 -0.253,-0.704 -0.158,-0.207 -0.419,-0.39 -0.783,-0.55 -0.365,-0.166 -0.857,-0.321 -1.477,-0.464 l -1.664,-0.379 c -1.48,-0.338 -2.646,-0.902 -3.5,-1.692 -0.849,-0.797 -1.27,-1.882 -1.265,-3.257 -0.005,-1.118 0.278,-2.095 0.849,-2.931 0.576,-0.842 1.373,-1.498 2.39,-1.968 1.023,-0.47 2.195,-0.705 3.516,-0.705 1.349,0 2.516,0.238 3.5,0.714 0.985,0.475 1.744,1.145 2.277,2.011 0.538,0.859 0.81,1.864 0.816,3.016 z"
     id="path631"
     style="fill:url(#linearGradient13);fill-opacity:1" />
</svg>
