<?xml version="1.0" encoding="UTF-8" standalone="no"?>
<svg
   width="62"
   height="62"
   version="1.1"
   id="svg10"
   sodipodi:docname="aeskulap.svg"
   inkscape:version="1.4 (unknown)"
   xmlns:inkscape="http://www.inkscape.org/namespaces/inkscape"
   xmlns:sodipodi="http://sodipodi.sourceforge.net/DTD/sodipodi-0.dtd"
   xmlns:xlink="http://www.w3.org/1999/xlink"
   xmlns="http://www.w3.org/2000/svg"
   xmlns:svg="http://www.w3.org/2000/svg">
  <defs
     id="defs10">
    <linearGradient
       id="linearGradient11"
       inkscape:collect="always">
      <stop
         style="stop-color:#002969;stop-opacity:1;"
         offset="0"
         id="stop11" />
      <stop
         style="stop-color:#5599ff;stop-opacity:1"
         offset="1"
         id="stop12" />
    </linearGradient>
    <linearGradient
       inkscape:collect="always"
       xlink:href="#linearGradient11"
       id="linearGradient12"
       x1="30.978724"
       y1="60"
       x2="30.553192"
       y2="5.9255319"
       gradientUnits="userSpaceOnUse"
       gradientTransform="matrix(1,0,0,0.98245614,-1,-0.92982455)" />
    <linearGradient
       id="paint1_linear_69_124"
       x1="3.99999"
       y1="59.111801"
       x2="71.222702"
       y2="29.3402"
       gradientUnits="userSpaceOnUse">
      <stop
         stop-color="#0357D1"
         id="stop5" />
      <stop
         offset="1"
         stop-color="#27CDFC"
         id="stop6" />
    </linearGradient>
  </defs>
  <sodipodi:namedview
     id="namedview10"
     pagecolor="#ffffff"
     bordercolor="#000000"
     borderopacity="0.25"
     inkscape:showpageshadow="2"
     inkscape:pageopacity="0.0"
     inkscape:pagecheckerboard="0"
     inkscape:deskcolor="#d1d1d1"
     inkscape:zoom="11.75"
     inkscape:cx="32.042553"
     inkscape:cy="35.617021"
     inkscape:window-width="1920"
     inkscape:window-height="998"
     inkscape:window-x="0"
     inkscape:window-y="0"
     inkscape:window-maximized="1"
     inkscape:current-layer="svg10" />
  <rect
     style="opacity:0.2;stroke-width:0.991189"
     width="56"
     height="55.017544"
     x="3"
     y="3.9824562"
     rx="16.799999"
     ry="16.505262"
     id="rect1" />
  <rect
     style="fill:url(#linearGradient12);stroke-width:0.991189"
     width="56"
     height="55.017544"
     x="3"
     y="3"
     rx="16.799999"
     ry="16.505262"
     id="rect2" />
  <path
     style="opacity:0.1;fill:#ffffff;stroke-width:0.991189"
     d="M 19.800781,3 C 10.493582,3 3,10.362116 3,19.50603 v 0.982457 C 3,11.344572 10.493582,3.9824562 19.800781,3.9824562 H 42.199219 C 51.506418,3.9824562 59,11.344572 59,20.488487 V 19.50603 C 59,10.362116 51.506418,3 42.199219,3 Z"
     id="path9" />
  <path
     d="M 29.300461,53.480931 C 27.300685,50.021494 27.221488,48.10149 28.967465,45.363759 l 0.991783,-1.553137 -2.154574,-1.632007 c -3.310154,-2.508005 -4.409949,-4.119437 -4.409949,-6.469736 0,-1.932008 1.162797,-4.416013 2.066378,-4.416013 0.217802,0 0.394202,-0.221148 0.394202,-0.48857 0,-0.269141 -1.060204,-0.666858 -2.357991,-0.884582 -2.969964,-0.498853 -4.579137,-1.59771 -4.606135,-3.14229 -0.01609,-1.032004 1.609173,-2.232007 4.789736,-3.5383 2.453378,-1.008005 3.347965,-1.594282 2.950168,-1.932007 -0.313191,-0.267425 -1.16998,-0.337707 -1.902572,-0.157706 -0.766791,0.190281 -1.333786,0.09768 -1.333786,-0.216001 0,-0.298294 -0.87479,-0.552004 -1.947577,-0.56057 -3.623366,-0.0343 -4.251543,-0.09768 -4.705141,-0.474856 -0.248405,-0.20743 -0.99359,-0.433726 -1.657793,-0.504008 -0.662382,-0.07032 -1.479581,-0.495427 -1.812583,-0.944574 -0.53638,-0.723431 -0.376175,-0.864003 1.375192,-1.210294 2.676579,-0.528001 5.254147,-2.118859 7.12792,-4.398864 3.340754,-4.0628721 4.366754,-4.3422971 5.189343,-1.407436 0.401391,1.429727 2.062779,3.00344 2.545166,2.408585 0.09175,-0.114852 -0.170991,-1.056003 -0.584989,-2.091438 -0.712796,-1.7811501 -0.716396,-1.9611501 -0.05759,-3.3154391 0.838779,-1.721148 2.674761,-1.932004 3.689944,-0.42343 0.865792,1.290863 0.864005,2.7685741 -0.0086,4.0663021 -1.052995,1.566858 -0.102575,2.562859 1.28158,1.342278 0.574197,-0.507422 1.045784,-1.165708 1.045784,-1.462278 0,-0.296579 0.372602,-1.040581 0.829801,-1.656007 0.995384,-1.3405781 1.679375,-0.9788621 4.499949,2.382863 2.179767,2.598859 4.37575,3.989154 7.126115,4.513725 1.798183,0.342855 1.938568,0.469716 1.375178,1.227433 -0.345591,0.464574 -1.153785,0.90171 -1.79638,0.970287 -0.644387,0.07032 -1.493978,0.317145 -1.888176,0.550295 -0.395991,0.233131 -1.168188,0.272571 -1.717178,0.08738 -0.55079,-0.186856 -1.121393,-0.072 -1.270792,0.255426 -0.16739,0.360001 -0.881985,0.454286 -1.828767,0.238286 -0.964801,-0.219431 -1.661386,-0.123468 -1.834187,0.253714 -0.167396,0.365148 -0.820789,0.471433 -1.636177,0.265721 -0.777593,-0.197146 -1.466985,-0.09768 -1.618185,0.231428 -0.158398,0.344574 0.925189,1.044003 2.719766,1.753711 3.589167,1.419433 4.829351,2.406877 4.829351,3.843443 0,1.501723 -1.463385,2.628013 -3.997753,3.075443 -1.18439,0.209139 -2.152783,0.500574 -2.152783,0.649709 0,0.149147 0.554401,1.119432 1.229384,2.156581 1.340985,2.053724 1.479584,2.941725 0.756,4.782868 -0.550801,1.397148 -1.339186,2.221725 -4.343349,4.549734 l -2.179782,1.686859 0.844196,1.313147 c 0.466189,0.721718 0.94859,1.949151 1.074589,2.727436 0.124227,0.780003 0.300593,1.733153 0.388792,2.11886 0.217792,0.949717 -2.61537,5.101735 -3.454162,5.064013 -0.369001,-0.01711 -1.056584,-0.699426 -1.52998,-1.518858 z m 4.345147,-3.929159 c 0,-1.230858 -1.540784,-4.458865 -2.127571,-4.458865 -0.183606,0 -0.333004,2.120579 -0.333004,4.712586 v 4.710867 l 1.229382,-1.885712 c 0.676803,-1.037149 1.231193,-2.4223 1.231193,-3.078876 z m -2.899773,0.615437 c -0.01615,-1.728004 -0.172791,-3.639445 -0.35099,-4.246301 -0.293396,-1.009709 -0.397796,-0.937709 -1.209591,0.828003 -0.94499,2.05715 -0.890989,3.680584 0.199795,5.952019 0.907194,1.885723 1.393188,0.980576 1.360786,-2.533721 z M 30.364247,37.088886 c 0,-5.214874 -0.0049,-5.244018 -1.015194,-5.244018 -1.803576,0 -4.301958,1.674858 -4.559341,3.058296 -0.417598,2.238868 0.230392,3.48858 2.833162,5.475446 1.394991,1.066287 2.582974,1.940581 2.640571,1.945717 0.05585,0.0049 0.102539,-2.35201 0.102539,-5.235441 z m 3.936555,3.258863 c 2.716161,-1.937144 3.034757,-2.348572 3.034757,-3.915442 0,-2.168577 -0.723583,-3.396008 -2.363371,-4.008008 -3.335358,-1.248002 -3.37676,-1.194858 -3.37676,4.388585 0,2.732577 0.156603,4.968013 0.349199,4.968013 0.1908,0 1.25279,-0.644576 2.356175,-1.433148 z M 30.211248,27.910577 c -0.140408,-0.94801 -0.255594,-2.936583 -0.255594,-4.416016 0,-1.479443 -0.183609,-2.691445 -0.405008,-2.691445 -0.223191,0 -0.36179,0.536576 -0.307792,1.191442 0.08639,1.068002 -0.325789,1.338858 -4.003157,2.631435 -5.497132,1.933713 -5.497132,2.768576 0,3.985718 5.641138,1.249728 5.268544,1.302872 4.971551,-0.701134 z m 7.909107,0.435427 c 1.447181,-0.353148 2.705364,-0.93772 2.793563,-1.297721 0.160197,-0.648004 -3.716959,-2.44972 -6.962321,-3.234866 -1.603774,-0.389146 -1.996177,-1.150297 -0.887389,-1.724575 0.523801,-0.269145 0.543601,-0.426854 0.102565,-0.802285 -1.038591,-0.886296 -1.160997,-0.466296 -1.160997,3.966863 v 4.450294 l 1.742388,-0.356561 c 0.95759,-0.197147 2.924962,-0.646295 4.372152,-1.001149 z"
     fill="#ffffff"
     fill-rule="nonzero"
     id="path2"
     style="stroke-width:1.75663" />
</svg>
