<?xml version="1.0" encoding="UTF-8" standalone="no"?>
<svg
   width="62"
   height="62"
   version="1"
   id="svg7"
   sodipodi:docname="aim.svg"
   inkscape:version="1.4 (e7c3feb100, 2024-10-09)"
   xmlns:inkscape="http://www.inkscape.org/namespaces/inkscape"
   xmlns:sodipodi="http://sodipodi.sourceforge.net/DTD/sodipodi-0.dtd"
   xmlns:xlink="http://www.w3.org/1999/xlink"
   xmlns="http://www.w3.org/2000/svg"
   xmlns:svg="http://www.w3.org/2000/svg">
  <defs
     id="defs7">
    <linearGradient
       id="linearGradient7"
       inkscape:collect="always">
      <stop
         style="stop-color:#384850;stop-opacity:1;"
         offset="0"
         id="stop8" />
      <stop
         style="stop-color:#384850;stop-opacity:1;"
         offset="0.59162253"
         id="stop10" />
      <stop
         style="stop-color:#eff2f6;stop-opacity:1;"
         offset="0.92173076"
         id="stop11" />
      <stop
         style="stop-color:#eff2f6;stop-opacity:1;"
         offset="1"
         id="stop9" />
    </linearGradient>
    <linearGradient
       id="linearGradient1"
       inkscape:collect="always">
      <stop
         style="stop-color:#566c80;stop-opacity:1;"
         offset="0"
         id="stop5" />
      <stop
         style="stop-color:#566c80;stop-opacity:1;"
         offset="0.28848785"
         id="stop7" />
      <stop
         style="stop-color:#495361;stop-opacity:1;"
         offset="1"
         id="stop6" />
    </linearGradient>
    <linearGradient
       id="c-3"
       gradientUnits="userSpaceOnUse"
       x1="24.072048"
       x2="23.959682"
       y1="0.75082099"
       y2="46.056854">
      <stop
         offset="0"
         stop-color="#fff"
         id="stop3" />
      <stop
         offset="1"
         stop-color="#d9d9d9"
         id="stop4" />
    </linearGradient>
    <linearGradient
       id="b-6"
       gradientUnits="userSpaceOnUse"
       x1="29.203026"
       x2="34.121048"
       xlink:href="#a-7"
       y1="24.827356"
       y2="29.224836" />
    <linearGradient
       id="a-7">
      <stop
         offset="0"
         id="stop1" />
      <stop
         offset="1"
         stop-opacity="0"
         id="stop2" />
    </linearGradient>
    <linearGradient
       id="d"
       gradientUnits="userSpaceOnUse"
       x1="15.948756"
       x2="25.031786"
       xlink:href="#a-7"
       y1="23.618279"
       y2="33.69899" />
    <linearGradient
       id="e"
       gradientUnits="userSpaceOnUse"
       x1="21.990562"
       x2="29.320522"
       xlink:href="#a-7"
       y1="33.780373"
       y2="41.931858" />
    <linearGradient
       id="paint154_linear_890_11"
       x1="778"
       y1="812.29199"
       x2="788"
       y2="812.29199"
       gradientUnits="userSpaceOnUse"
       gradientTransform="translate(-751,-696)">
      <stop
         stop-color="#EFF2F6"
         id="stop1050" />
      <stop
         offset="0.600785"
         stop-color="#B7C6CD"
         id="stop1051" />
    </linearGradient>
    <linearGradient
       id="paint155_linear_890_11"
       x1="783"
       y1="813"
       x2="783"
       y2="817"
       gradientUnits="userSpaceOnUse"
       gradientTransform="translate(-751,-696)">
      <stop
         stop-color="#EFF2F6"
         id="stop1052" />
      <stop
         offset="0.734138"
         stop-color="#B7C6CD"
         id="stop1053" />
    </linearGradient>
    <radialGradient
       id="paint156_radial_890_11"
       cx="0"
       cy="0"
       r="1"
       gradientUnits="userSpaceOnUse"
       gradientTransform="matrix(27.999986,27.999976,-27.999986,27.999976,32.302392,33.999998)">
      <stop
         offset="0.60067803"
         stop-color="#B7C6CD"
         id="stop1054"
         style="stop-color:#384850;stop-opacity:1;" />
      <stop
         offset="0.876735"
         stop-color="#EFF2F6"
         id="stop1055" />
    </radialGradient>
    <linearGradient
       id="paint157_linear_890_11"
       x1="796.84485"
       y1="799.43359"
       x2="768.90088"
       y2="770.81476"
       gradientUnits="userSpaceOnUse"
       gradientTransform="matrix(1.1666666,0,0,1.1666668,-881.19764,-881.8333)">
      <stop
         offset="0.00000057"
         stop-color="#2E2E41"
         id="stop1056"
         style="stop-color:#495361;stop-opacity:1;" />
      <stop
         offset="0.711139"
         stop-color="#566C80"
         id="stop1057" />
    </linearGradient>
    <linearGradient
       id="paint158_linear_890_11"
       x1="792"
       y1="794"
       x2="774"
       y2="776"
       gradientUnits="userSpaceOnUse"
       gradientTransform="translate(-751,-696)">
      <stop
         offset="0.304478"
         stop-color="#2E2E41"
         id="stop1058" />
      <stop
         offset="1"
         stop-color="#566C80"
         id="stop1059" />
    </linearGradient>
    <linearGradient
       id="paint159_linear_890_11"
       x1="788"
       y1="790"
       x2="778"
       y2="780"
       gradientUnits="userSpaceOnUse"
       gradientTransform="translate(-751,-696)">
      <stop
         offset="0.391394"
         stop-color="#5200FF"
         id="stop1060" />
      <stop
         offset="1"
         stop-color="#0085FF"
         id="stop1061" />
    </linearGradient>
    <linearGradient
       id="paint160_linear_890_11"
       x1="784"
       y1="798"
       x2="782"
       y2="796"
       gradientUnits="userSpaceOnUse"
       gradientTransform="translate(-751,-696)">
      <stop
         stop-color="#FF7E07"
         id="stop1062" />
      <stop
         offset="1"
         stop-color="#FFE607"
         id="stop1063" />
    </linearGradient>
    <linearGradient
       inkscape:collect="always"
       xlink:href="#linearGradient1"
       id="linearGradient6"
       x1="17.408081"
       y1="16.037786"
       x2="49.155514"
       y2="50.137749"
       gradientUnits="userSpaceOnUse" />
    <radialGradient
       inkscape:collect="always"
       xlink:href="#linearGradient7"
       id="radialGradient9"
       cx="32.302387"
       cy="34"
       fx="32.302387"
       fy="34"
       r="28"
       gradientUnits="userSpaceOnUse"
       gradientTransform="matrix(0.99999999,1,-1,0.99999999,34,-32.302387)" />
  </defs>
  <sodipodi:namedview
     id="namedview7"
     pagecolor="#ffffff"
     bordercolor="#000000"
     borderopacity="0.25"
     inkscape:showpageshadow="2"
     inkscape:pageopacity="0.0"
     inkscape:pagecheckerboard="0"
     inkscape:deskcolor="#d1d1d1"
     inkscape:zoom="8.3306018"
     inkscape:cx="35.111509"
     inkscape:cy="30.850112"
     inkscape:window-width="1920"
     inkscape:window-height="994"
     inkscape:window-x="0"
     inkscape:window-y="0"
     inkscape:window-maximized="1"
     inkscape:current-layer="svg7" />
  <g
     id="g1"
     transform="translate(-1.3023872,-3)">
    <path
       d="m 60.302387,34 c 0,15.46415 -12.535828,28 -28.000002,28 C 16.838222,62 4.3023873,49.46415 4.3023873,34 4.3023873,18.535835 16.838222,6 32.302385,6 47.766559,6 60.302387,18.535835 60.302387,34 Z"
       id="path154"
       style="fill:url(#radialGradient9)" />
    <path
       d="m 55.63572,34 c 0,12.88701 -10.446332,23.33332 -23.333335,23.33332 C 19.415386,57.33332 8.9690543,46.88701 8.9690543,34 c 0,-12.886994 10.4463317,-23.333332 23.3333307,-23.333332 12.887003,0 23.333335,10.446338 23.333335,23.333332 z"
       id="path155"
       style="fill:url(#linearGradient6)" />
  </g>
  <path
     style="fill:#f3f3f3;stroke-width:0.530498"
     inkscape:connector-curvature="0"
     id="path4303-3"
     d="m 16.76711,39.564985 c 0.369972,-0.187403 0.961258,-0.635963 1.314021,-0.996873 0.352759,-0.360776 0.723772,-0.656167 0.824497,-0.656167 0.100698,0 0.335801,0.297292 0.522526,0.660606 0.551887,1.073997 1.295434,1.383306 2.623769,1.091386 0.48915,-0.107536 1.551332,-1.069509 1.551332,-1.405047 0,-0.07625 -0.293675,-0.185367 -0.652596,-0.242445 -0.443962,-0.07055 -0.790894,-0.266789 -1.085205,-0.6141 -0.568654,-0.67099 -0.5727,-1.703128 -0.01446,-3.770666 0.229323,-0.849868 0.416943,-1.717726 0.416943,-1.928567 0,-0.474651 -0.655228,-0.926423 -1.508195,-1.039999 -0.73459,-0.09771 -0.646144,-0.278298 -1.239148,2.524711 -0.472567,2.23351 -0.874604,2.972492 -2.071636,3.807763 -0.606569,0.423092 -0.875857,0.501919 -1.718573,0.501919 -0.956307,0 -1.027068,-0.02824 -1.643676,-0.685822 -0.372666,-0.396718 -0.727352,-0.990739 -0.841266,-1.408961 -0.271148,-0.995498 -0.122804,-2.874305 0.302032,-3.825618 0.517353,-1.158556 1.70347,-2.327221 2.921452,-2.878557 0.929561,-0.420902 1.219346,-0.470046 2.710375,-0.461324 1.874145,0.01084 2.791936,0.268312 3.788354,1.061724 0.338938,0.269864 0.653546,0.430691 0.699162,0.357565 0.136269,-0.21873 -0.224821,-1.559362 -0.569051,-2.112307 -0.722106,-1.159968 -3.039708,-1.842343 -5.300158,-1.560523 -4.292841,0.535153 -7.053992,3.842134 -7.04755,8.440671 0.0031,2.878575 1.006147,4.749962 2.919707,5.452353 0.697174,0.255729 2.294053,0.09524 3.097568,-0.311901 z m 11.833273,0.173717 c 0.682668,-0.194298 1.51405,-0.941347 1.51405,-1.360333 0,-0.22302 -0.128499,-0.300373 -0.498239,-0.300373 -0.312613,0 -0.697863,-0.177014 -1.034151,-0.475432 -0.4775,-0.423513 -0.54301,-0.590684 -0.601057,-1.533195 -0.05383,-0.87461 0.0857,-1.632165 0.805042,-4.373006 1.198746,-4.566892 1.167622,-4.227598 0.387357,-4.222828 -0.858825,0.0035 -1.917696,0.258248 -2.063752,0.492695 -0.159929,0.257049 -1.310948,6.099049 -1.486039,7.542527 -0.266303,2.195875 0.17931,3.706332 1.22728,4.159534 0.618656,0.267635 1.00313,0.282945 1.749509,0.07057 z M 50.15456,39.528074 c 0.703038,-0.352188 1.242467,-1.022683 1.059358,-1.316805 -0.04675,-0.0736 -0.344986,-0.133534 -0.665172,-0.133534 -0.401958,0 -0.714381,-0.13138 -1.009641,-0.424392 -0.398811,-0.396016 -0.422051,-0.504195 -0.344582,-1.616171 0.04683,-0.655434 0.248394,-1.937566 0.450978,-2.849233 0.42889,-1.931745 0.383452,-3.186389 -0.155801,-4.291884 -0.853157,-1.749776 -3.170402,-1.6765 -5.172201,0.163444 -0.531391,0.488505 -1.018055,0.83658 -1.08147,0.773614 -0.06333,-0.06278 -0.256692,-0.432216 -0.429778,-0.820342 -0.814967,-1.829163 -3.342074,-1.840424 -5.240907,-0.02279 -0.819687,0.784413 -1.273556,0.920892 -1.273556,0.382873 0,-0.483394 -0.502041,-1.232229 -0.996253,-1.48597 -1.26834,-0.651164 -3.344228,0.02684 -3.538178,1.156716 -0.04844,0.283356 0.05989,0.344235 0.756995,0.424218 1.599743,0.183837 1.665524,0.712776 0.723251,5.813502 -0.410468,2.221944 -0.691184,4.099695 -0.623854,4.172773 0.06716,0.0731 0.603145,0.11032 1.190688,0.08295 l 1.068229,-0.05035 0.190194,-0.828789 c 0.104753,-0.455774 0.351327,-1.676486 0.547982,-2.712621 0.82038,-4.321536 2.447711,-6.659169 4.044995,-5.810453 0.462741,0.245446 0.809786,1.144638 0.809028,2.094737 -3.5e-4,0.435893 -0.263174,2.172581 -0.583673,3.859167 -0.320771,1.686567 -0.583379,3.162995 -0.58374,3.280962 -5.1e-4,0.160278 0.304717,0.202161 1.206237,0.165888 l 1.206889,-0.0492 0.453306,-2.462282 c 0.52723,-2.862876 1.083947,-4.623199 1.824497,-5.768978 1.18262,-1.829726 2.962061,-1.709797 3.333764,0.224614 0.139713,0.726703 0.02555,1.77158 -0.424469,3.862639 -0.439363,2.045571 -0.267614,3.407515 0.514885,4.085342 0.646823,0.560122 1.743661,0.60012 2.741799,0.09994 z M 30.328463,24.922919 c 1.223772,-0.514264 1.591975,-1.793123 0.728558,-2.530461 -0.800979,-0.68404 -2.645891,-0.430923 -3.108049,0.426414 -0.301938,0.560189 -0.204355,1.413891 0.203744,1.782527 0.654057,0.590799 1.305752,0.687076 2.175748,0.321446 z" />
</svg>
