<?xml version="1.0" encoding="UTF-8" standalone="no"?>
<svg
   clip-rule="evenodd"
   fill-rule="evenodd"
   stroke-linejoin="round"
   stroke-miterlimit="2"
   viewBox="0 0 62 62"
   version="1.1"
   id="svg5"
   sodipodi:docname="aks.svg"
   width="62"
   height="62"
   inkscape:version="1.4 (e7c3feb100, 2024-10-09)"
   xmlns:inkscape="http://www.inkscape.org/namespaces/inkscape"
   xmlns:sodipodi="http://sodipodi.sourceforge.net/DTD/sodipodi-0.dtd"
   xmlns:xlink="http://www.w3.org/1999/xlink"
   xmlns="http://www.w3.org/2000/svg"
   xmlns:svg="http://www.w3.org/2000/svg">
  <defs
     id="defs5">
    <linearGradient
       id="linearGradient7"
       inkscape:collect="always">
      <stop
         style="stop-color:#d491d4;stop-opacity:1;"
         offset="0"
         id="stop7" />
      <stop
         style="stop-color:#b648b6;stop-opacity:1;"
         offset="1"
         id="stop8" />
    </linearGradient>
    <linearGradient
       id="linearGradient5"
       inkscape:collect="always">
      <stop
         style="stop-color:#6f7c91;stop-opacity:1"
         offset="0"
         id="stop5" />
      <stop
         style="stop-color:#373e49;stop-opacity:1;"
         offset="1"
         id="stop6" />
    </linearGradient>
    <linearGradient
       inkscape:collect="always"
       xlink:href="#linearGradient5"
       id="linearGradient6"
       x1="28.280748"
       y1="4"
       x2="28.037941"
       y2="42.381588"
       gradientUnits="userSpaceOnUse" />
    <linearGradient
       inkscape:collect="always"
       xlink:href="#linearGradient7"
       id="linearGradient8"
       x1="26.368513"
       y1="12.017387"
       x2="24.5415"
       y2="35.98204"
       gradientUnits="userSpaceOnUse" />
  </defs>
  <sodipodi:namedview
     id="namedview5"
     pagecolor="#ffffff"
     bordercolor="#000000"
     borderopacity="0.25"
     inkscape:showpageshadow="2"
     inkscape:pageopacity="0.0"
     inkscape:pagecheckerboard="0"
     inkscape:deskcolor="#d1d1d1"
     inkscape:zoom="7.8541667"
     inkscape:cx="25.018568"
     inkscape:cy="24.06366"
     inkscape:window-width="1920"
     inkscape:window-height="994"
     inkscape:window-x="0"
     inkscape:window-y="0"
     inkscape:window-maximized="1"
     inkscape:current-layer="svg5" />
  <linearGradient
     id="a"
     x2="1"
     gradientTransform="matrix(0.187385,-40.0823,40.0823,0.187385,23.8126,43.9077)"
     gradientUnits="userSpaceOnUse">
    <stop
       stop-color="#2c2b34"
       offset="0"
       id="stop1" />
    <stop
       stop-color="#58536a"
       offset="1"
       id="stop2"
       style="stop-color:#6f7c91;stop-opacity:1" />
  </linearGradient>
  <linearGradient
     id="b"
     x2="1"
     gradientTransform="matrix(0,-23.9649,23.9649,0,24,35.9825)"
     gradientUnits="userSpaceOnUse">
    <stop
       stop-color="#b648b6"
       offset="0"
       id="stop3" />
    <stop
       stop-color="#b16ee0"
       offset="1"
       id="stop4"
       style="stop-color:#b06ce0;stop-opacity:1;" />
  </linearGradient>
  <g
     fill-rule="nonzero"
     id="g5"
     transform="matrix(1.2547062,0,0,1.2547062,0.88696337,0.88745074)">
    <path
       transform="matrix(1.11582,0,0,1.11582,-2.77961,-2.77958)"
       d="M 24.107,4 V 4.002 C 23.27,3.981 22.443,4.191 21.717,4.607 L 8.283,12.334 C 6.872,13.145 6,14.65 6,16.273 v 15.454 c 0,1.622 0.873,3.126 2.283,3.937 l 13.434,7.727 c 1.411,0.811 3.155,0.811 4.566,0 L 39.717,35.664 C 41.127,34.853 42,33.349 42,31.727 V 16.273 C 42,14.65 41.128,13.145 39.717,12.334 L 26.283,4.607 C 25.621,4.227 24.872,4.018 24.107,4 Z"
       id="path4"
       style="fill:url(#linearGradient6)" />
    <path
       transform="matrix(1.11582,0,0,1.11582,-2.77961,-2.77958)"
       d="m 27.15,35.954 c 0,-0.031 0.216,-0.131 0.48,-0.222 0.311,-0.107 0.508,-0.229 0.559,-0.345 0.043,-0.099 0.325,-0.322 0.626,-0.496 0.3,-0.174 0.822,-0.5 1.158,-0.724 0.528,-0.353 0.606,-0.436 0.564,-0.602 -0.032,-0.127 -0.006,-0.208 0.077,-0.24 0.151,-0.058 0.165,-0.22 0.02,-0.219 -0.058,0 -0.273,0.114 -0.48,0.254 -0.519,0.352 -1.108,0.646 -1.217,0.607 -0.05,-0.018 -0.294,0.062 -0.542,0.178 -0.249,0.116 -0.551,0.211 -0.671,0.211 -0.12,0 -0.379,0.057 -0.574,0.126 -0.195,0.069 -0.394,0.125 -0.442,0.125 -0.151,0 0.285,-0.405 0.833,-0.773 0.549,-0.368 0.679,-0.532 0.313,-0.393 -0.283,0.108 -0.704,0.104 -0.704,-0.006 0,-0.048 0.116,-0.151 0.258,-0.229 0.584,-0.322 1.01,-0.613 0.965,-0.659 -0.027,-0.026 -0.31,0.107 -0.63,0.297 -0.319,0.189 -0.621,0.345 -0.67,0.345 -0.22,0 -0.046,-0.195 0.495,-0.555 0.607,-0.403 0.746,-0.608 0.191,-0.281 -0.446,0.263 -1.109,0.514 -1.109,0.42 0,-0.044 0.322,-0.292 0.716,-0.551 0.394,-0.26 0.784,-0.582 0.866,-0.717 0.082,-0.135 0.396,-0.449 0.698,-0.698 0.302,-0.249 0.585,-0.519 0.629,-0.6 0.043,-0.081 0.308,-0.429 0.589,-0.773 0.616,-0.754 1.369,-2.223 1.585,-3.087 0.092,-0.372 0.18,-1.134 0.216,-1.878 0.053,-1.111 0.039,-1.353 -0.125,-2.163 -0.481,-2.378 -1.324,-3.953 -2.671,-4.989 -1.365,-1.051 -2.494,-1.43 -4.256,-1.43 -1.32,0 -2.127,0.189 -3.514,0.824 -1.327,0.607 -1.713,0.872 -2.638,1.815 -0.784,0.8 -0.793,0.815 -1.521,2.439 l -0.262,0.584 0.054,-0.417 c 0.068,-0.531 0.498,-1.466 0.963,-2.097 0.717,-0.973 2.028,-2.046 2.788,-2.283 0.184,-0.057 0.687,-0.297 1.119,-0.532 l 0.785,-0.429 -0.368,-0.022 c -0.202,-0.013 -0.452,-0.066 -0.555,-0.119 -0.137,-0.069 -0.267,-0.071 -0.48,-0.006 -0.45,0.138 -0.349,-0.035 0.168,-0.289 0.463,-0.227 0.516,-0.317 0.274,-0.47 -0.166,-0.104 -0.94,0.218 -1.79,0.746 -0.947,0.588 -1.918,1.534 -1.186,1.156 l 0.261,-0.135 -0.057,0.229 c -0.038,0.148 -0.021,0.252 0.046,0.293 0.074,0.046 0.011,0.173 -0.225,0.451 -0.482,0.567 -1.047,1.313 -1.308,1.726 -0.126,0.199 -0.372,0.54 -0.546,0.757 -0.326,0.408 -0.769,1.567 -0.769,2.014 0,0.127 -0.037,0.299 -0.082,0.383 -0.059,0.111 -0.051,0.165 0.032,0.197 0.168,0.064 0.236,0.552 0.257,1.85 0.022,1.385 0.139,1.77 0.845,2.802 0.248,0.361 0.45,0.677 0.45,0.702 0,0.025 -0.103,0.023 -0.229,-0.006 -0.195,-0.044 -0.138,0.04 0.383,0.559 0.337,0.336 0.577,0.622 0.534,0.637 -0.043,0.014 -0.248,-0.047 -0.456,-0.136 -0.342,-0.147 -0.545,-0.342 -1.138,-1.095 -0.201,-0.255 -0.326,-0.166 -0.189,0.136 0.17,0.372 0.046,0.31 -0.288,-0.145 -0.175,-0.239 -0.333,-0.393 -0.349,-0.342 -0.041,0.121 0.062,0.304 0.586,1.046 0.24,0.34 0.501,0.737 0.58,0.881 0.094,0.173 0.227,0.279 0.391,0.312 0.136,0.027 0.268,0.103 0.293,0.168 0.058,0.151 1.126,0.635 1.276,0.577 0.061,-0.023 0.3,0.032 0.53,0.122 0.23,0.091 0.614,0.165 0.854,0.165 1.184,0.001 2.643,1.291 2.645,2.34 0.001,0.515 -0.411,1.202 -0.927,1.547 -0.652,0.437 -2.073,0.593 -2.97,0.327 -1.107,-0.329 -4.239,-3.089 -5.491,-4.839 -0.743,-1.039 -1.142,-1.904 -1.5,-3.255 -0.486,-2.158 0.146,-5.139 0.717,-6.831 0.474,-1.393 0.617,-1.691 0.836,-1.748 0.205,-0.053 0.243,0.01 0.152,0.249 -0.148,0.39 -0.106,0.472 0.214,0.42 0.37,-0.06 0.37,-0.043 -0.005,1.076 -0.294,0.881 -0.355,1.328 -0.075,0.561 0.45,-1.238 0.79,-1.752 0.673,-1.02 -0.077,0.479 0.098,0.395 0.378,-0.181 0.121,-0.249 0.341,-0.565 0.488,-0.703 l 0.267,-0.25 -0.232,0.477 c -0.128,0.263 -0.206,0.505 -0.174,0.537 0.092,0.093 0.192,-0.05 0.469,-0.669 0.192,-0.429 0.224,-0.559 0.126,-0.522 -0.078,0.03 -0.02,-0.104 0.146,-0.335 0.151,-0.211 0.32,-0.402 0.375,-0.423 0.055,-0.022 0.27,-0.27 0.479,-0.553 0.675,-0.917 1.546,-1.488 3.518,-2.307 0.454,-0.189 1.076,-0.493 1.381,-0.677 0.775,-0.468 1.047,-0.53 2.257,-0.519 1.301,0.012 2.022,0.127 3.148,0.501 1.578,0.525 2.965,1.33 4.218,2.449 0.366,0.327 0.679,0.552 0.696,0.501 0.097,-0.292 -1.375,-1.796 -2.255,-2.303 -0.62,-0.358 -0.796,-0.538 -0.527,-0.538 0.068,0 0.474,0.188 0.904,0.418 0.845,0.451 0.949,0.482 0.99,0.291 0.048,-0.221 0.723,0.191 1.365,0.832 1.685,1.686 2.882,4.426 3.208,7.346 0.187,1.676 0.107,2.525 -0.467,4.964 -0.256,1.085 -1.068,2.78 -1.739,3.63 -0.254,0.321 -0.615,0.784 -0.804,1.029 -0.385,0.502 -2.136,1.844 -2.996,2.297 -0.854,0.449 -2.754,1.07 -2.754,0.899 z m 2.173,-0.931 c 0.182,-0.093 0.33,-0.186 0.33,-0.207 0,-0.058 -0.411,0.111 -0.611,0.251 -0.251,0.177 -0.107,0.154 0.281,-0.044 z m 0.668,-18.976 c -0.199,-0.24 -1.042,-0.746 -1.626,-0.977 -0.918,-0.362 -0.92,-0.275 -0.005,0.205 0.459,0.24 1.021,0.556 1.25,0.701 0.422,0.269 0.568,0.296 0.381,0.071 z M 27.04,14.614 c -0.306,-0.166 -1.373,-0.387 -1.497,-0.311 -0.105,0.065 0.084,0.132 0.898,0.318 0.701,0.16 0.903,0.158 0.599,-0.006 z m 2.447,15.194 c 0,-0.042 0.777,-1.073 0.942,-1.25 0.105,-0.114 -0.253,0.594 -0.497,0.98 -0.108,0.172 -0.253,0.313 -0.321,0.313 -0.069,0 -0.124,-0.02 -0.124,-0.043 z m 1.384,-2.272 c 0.236,-0.623 0.428,-1.335 0.589,-2.18 0.02,-0.108 0.053,-0.181 0.073,-0.161 0.061,0.06 -0.186,1.416 -0.338,1.861 -0.143,0.417 -0.518,1.21 -0.572,1.21 -0.016,0 0.096,-0.329 0.248,-0.73 z m 0.639,-3.15 c 10e-4,-0.184 0.018,-0.249 0.038,-0.145 0.02,0.103 0.019,0.254 -0.002,0.333 -0.021,0.08 -0.037,-0.005 -0.036,-0.188 z m -0.097,-1.398 c -0.065,-0.402 -0.095,-0.753 -0.068,-0.781 0.093,-0.092 0.236,0.64 0.211,1.077 -0.025,0.426 -0.027,0.421 -0.143,-0.296 z M 16.119,16.36 c 0.404,-0.572 2.105,-2.014 1.974,-1.672 -0.037,0.097 -1.045,1.009 -1.911,1.729 l -0.25,0.209 z m 4.69,-0.11 c 0,-0.046 0.058,-0.083 0.13,-0.083 0.071,0 0.107,0.037 0.078,0.083 -0.028,0.046 -0.087,0.084 -0.13,0.084 -0.043,0 -0.078,-0.038 -0.078,-0.084 z m -5.09,-0.411 c 0,-0.088 0.103,-0.242 0.229,-0.341 0.191,-0.151 0.234,-0.16 0.256,-0.053 C 16.238,15.614 15.981,16 15.835,16 15.771,16 15.719,15.928 15.719,15.839 Z m 8.094,-3.019 c 0,-0.08 0.329,-0.155 0.688,-0.156 0.172,-10e-4 0.313,0.036 0.313,0.082 0,0.09 -0.009,0.091 -0.605,0.114 -0.218,0.008 -0.396,-0.01 -0.396,-0.04 z m -0.167,-0.4 c 0,-0.246 1.248,-0.522 1.573,-0.348 0.263,0.14 0.228,0.34 -0.059,0.34 -0.131,0 -0.525,0.024 -0.876,0.054 -0.47,0.04 -0.638,0.028 -0.638,-0.046 z"
       id="path5"
       style="fill:url(#linearGradient8)" />
  </g>
</svg>
