<?xml version="1.0" encoding="UTF-8" standalone="no"?>
<svg
   clip-rule="evenodd"
   fill-rule="evenodd"
   stroke-linejoin="round"
   stroke-miterlimit="2"
   viewBox="0 0 62 62"
   version="1.1"
   id="svg3"
   sodipodi:docname="alan-wake.svg"
   width="62"
   height="62"
   inkscape:version="1.4 (unknown)"
   xmlns:inkscape="http://www.inkscape.org/namespaces/inkscape"
   xmlns:sodipodi="http://sodipodi.sourceforge.net/DTD/sodipodi-0.dtd"
   xmlns="http://www.w3.org/2000/svg"
   xmlns:svg="http://www.w3.org/2000/svg">
  <defs
     id="defs3" />
  <sodipodi:namedview
     id="namedview3"
     pagecolor="#ffffff"
     bordercolor="#000000"
     borderopacity="0.25"
     inkscape:showpageshadow="2"
     inkscape:pageopacity="0.0"
     inkscape:pagecheckerboard="0"
     inkscape:deskcolor="#d1d1d1"
     inkscape:zoom="6.6666667"
     inkscape:cx="37.425"
     inkscape:cy="34.875"
     inkscape:window-width="1920"
     inkscape:window-height="998"
     inkscape:window-x="0"
     inkscape:window-y="0"
     inkscape:window-maximized="1"
     inkscape:current-layer="svg3" />
  <g
     id="g4"
     transform="translate(2.3203127,1.2350004)">
    <g
       fill-rule="nonzero"
       id="g3"
       transform="matrix(1.2592759,0,0,1.2592759,-2.1725722,-0.45762198)">
      <path
         d="m 16.162,1.765 c -1.11,0 -2.049,0.818 -2.202,1.917 L 11.326,22.652 20.285,39.61 38.884,31.355 35.04,3.682 C 34.887,2.583 33.948,1.765 32.838,1.765 Z"
         fill="#d8e0e5"
         id="path1" />
      <path
         d="M 11.326,22.649 8.401,43.706 c -0.186,1.336 0.852,2.529 2.202,2.529 h 27.794 c 1.35,0 2.388,-1.193 2.202,-2.529 L 38.884,31.355 c -4.154,0.648 -9.217,1.086 -13.828,0.427 -6.575,-0.939 -12.094,-7.14 -13.73,-9.133 z"
         fill="#a6b9c4"
         id="path2" />
      <path
         d="m 27.313,44.007 c 1.189,-0.524 2.223,-0.465 3.291,-0.04 l -2.163,-8.434 0.24,-0.72 -0.88,-4.117 c 0,0 0.352,-0.037 0.64,-0.36 -0.306,-1.657 -1.159,-5.636 -1.159,-5.636 0,0 0.59,0.333 0.879,0.24 0.703,-0.226 1.63,-0.596 1.399,-1.719 -0.511,-2.481 -0.56,-4.325 -1.169,-4.78 -1.083,-0.81 -3.188,-1.536 -3.188,-1.536 0,0 0.337,-1.262 0.226,-1.919 -0.149,-0.886 -0.665,-2.105 -1.559,-2.198 -0.975,-0.101 -2.196,1.119 -2.158,1.999 0.052,1.204 1.772,3.317 1.772,3.317 l -1.481,0.365 -0.078,0.874 -0.879,0.36 -0.88,6.956 -1.496,4.397 -1.319,0.719 -0.04,2.319 0.52,-0.04 0.12,-0.64 h 0.439 l 0.32,-1.039 c 0,0 0.613,0.166 1.099,-0.132 0.208,-0.128 0.146,-0.839 0.146,-0.839 l 0.654,-0.029 v 5.876 l -0.643,1 0.32,1.359 -0.439,0.52 -0.311,3.197 c 1.073,-0.427 1.769,-0.427 3.296,0.44 l -0.307,-1.559 -0.44,-0.599 0.56,-1.439 0.239,-3.398 1.399,-4.99 1.559,3.231 1.24,5.196 -0.04,1.36 0.759,1.359 z"
         fill="#173545"
         id="path3" />
    </g>
    <circle
       cx="30.780157"
       cy="28.36467"
       r="1.4003148"
       fill="#ffffff"
       id="circle3"
       style="stroke-width:1.25934" />
  </g>
</svg>
