<?xml version="1.0" encoding="UTF-8" standalone="no"?>
<svg
   clip-rule="evenodd"
   fill-rule="evenodd"
   stroke-linejoin="round"
   stroke-miterlimit="2"
   viewBox="0 0 62 62"
   version="1.1"
   id="svg3"
   sodipodi:docname="albert.svg"
   width="62"
   height="62"
   inkscape:version="1.4 (e7c3feb100, 2024-10-09)"
   xmlns:inkscape="http://www.inkscape.org/namespaces/inkscape"
   xmlns:sodipodi="http://sodipodi.sourceforge.net/DTD/sodipodi-0.dtd"
   xmlns:xlink="http://www.w3.org/1999/xlink"
   xmlns="http://www.w3.org/2000/svg"
   xmlns:svg="http://www.w3.org/2000/svg">
  <defs
     id="defs3">
    <linearGradient
       id="linearGradient4"
       inkscape:collect="always">
      <stop
         style="stop-color:#7d8a9b;stop-opacity:1;"
         offset="0"
         id="stop4" />
      <stop
         style="stop-color:#363e49;stop-opacity:1;"
         offset="1"
         id="stop5" />
    </linearGradient>
    <linearGradient
       inkscape:collect="always"
       xlink:href="#linearGradient4"
       id="linearGradient5"
       x1="31.997782"
       y1="2.332"
       x2="31.339958"
       y2="58.332001"
       gradientUnits="userSpaceOnUse" />
  </defs>
  <sodipodi:namedview
     id="namedview3"
     pagecolor="#ffffff"
     bordercolor="#000000"
     borderopacity="0.25"
     inkscape:showpageshadow="2"
     inkscape:pageopacity="0.0"
     inkscape:pagecheckerboard="0"
     inkscape:deskcolor="#d1d1d1"
     inkscape:zoom="7.8541667"
     inkscape:cx="27.564987"
     inkscape:cy="43.161804"
     inkscape:window-width="1920"
     inkscape:window-height="994"
     inkscape:window-x="0"
     inkscape:window-y="0"
     inkscape:window-maximized="1"
     inkscape:current-layer="svg3" />
  <linearGradient
     id="a"
     x2="1"
     gradientTransform="matrix(0,-56.001681,56.001681,0,260.2194,58.332906)"
     gradientUnits="userSpaceOnUse">
    <stop
       stop-color="#535353"
       offset="0"
       id="stop1" />
    <stop
       stop-color="#7a7a7a"
       offset="1"
       id="stop2" />
  </linearGradient>
  <g
     id="g3"
     transform="translate(0.668,0.668)">
    <path
       d="M 58.332,10.379997 C 58.332,5.9373166 54.726683,2.332 50.284003,2.332 H 10.379997 C 5.9373166,2.332 2.332,5.9373166 2.332,10.379997 v 39.904006 c 0,4.44268 3.6053166,8.047997 8.047997,8.047997 h 39.904006 c 4.44268,0 8.047997,-3.605317 8.047997,-8.047997 z"
       fill="url(#a)"
       id="path2"
       style="fill:url(#linearGradient5);stroke-width:1.29223" />
  </g>
  <g
     id="g4"
     transform="translate(-0.87832106,-0.61273235)">
    <path
       style="opacity:0.2;stroke-width:1.20196"
       d="m 58.378321,35.177577 c -7.308372,9.125332 -0.228318,0.398757 -7.213416,9.17236 -2.431599,1.45012 -6.889909,2.545569 -8.905528,2.128517 C 39.433908,46.05369 36.337649,42.899221 34.066723,39.77563 31.193839,35.822773 29.08925,30.3007 26.177661,26.907894 c -2.70162,-3.147934 -6.542124,-5.08378 -10.191044,-2.528363 -1.803669,1.264869 -3.56475,3.540253 -4.930072,5.975276 -2.1810302,3.886558 -0.919797,8.939472 4.791147,10.041991 4.494235,0.385855 6.769411,-0.216122 12.7311,-2.864715 7.685364,-3.590284 13.161343,-8.284298 27.793108,-19.354858 -8.173182,8.45973 -0.426544,0.217488 -8.440541,8.626759 -4.069789,4.270523 -12.218565,9.152173 -20.767685,14.120159 -4.051555,2.31611 -7.612324,3.790515 -12.820092,5.055511 -3.116731,0.757559 -7.7061898,1.459524 -8.7115533,-1.837092 -1.0469742,-3.436084 1.4514405,-8.733734 1.972028,-9.882115 3.9285683,-8.6592 9.7952843,-17.649838 20.0531033,-16.314631 9.782714,1.274315 10.24417,16.486344 17.545887,20.483836 3.595609,1.968177 6.277494,0.345149 13.175274,-3.252075 z"
       id="path2-7" />
    <path
       style="fill:#00dada;stroke-width:1.20196"
       d="m 58.378321,33.9776 c -7.308372,9.125331 -0.228318,0.398757 -7.213416,9.17236 -2.431599,1.450119 -6.889909,2.545568 -8.905528,2.128517 -2.825469,-0.424767 -5.921728,-3.579234 -8.192654,-6.702824 -2.872884,-3.952847 -4.977473,-9.47493 -7.889062,-12.867737 -2.70162,-3.147934 -6.542124,-5.08378 -10.191044,-2.528363 -1.803669,1.264871 -3.56475,3.540253 -4.930072,5.975276 -2.1810302,3.886558 -0.919797,8.939472 4.791147,10.041992 4.494235,0.385855 6.769411,-0.216123 12.7311,-2.864716 7.685364,-3.590284 13.161343,-8.284298 27.793108,-19.354858 -8.173182,8.45973 -0.426544,0.217489 -8.440541,8.626759 C 43.86157,29.87453 35.712794,34.75618 27.163674,39.724165 23.112119,42.040276 19.55135,43.51468 14.343582,44.779677 11.226851,45.537236 6.6373922,46.2392 5.6320287,42.942584 4.5850545,39.50651 7.0834692,34.208851 7.6040567,33.060471 11.532625,24.401269 17.399341,15.410631 27.65716,16.745835 c 9.782714,1.274318 10.24417,16.486347 17.545887,20.483839 3.595609,1.968178 6.277494,0.345149 13.175274,-3.252074 z"
       id="path3" />
    <path
       style="opacity:0.2;fill:#ffffff;stroke-width:1.20196"
       d="M 25.784194,16.613309 C 16.673077,16.532569 11.28818,24.943429 7.6051386,33.06143 7.1458127,34.074696 5.1490821,38.315597 5.4041861,41.66049 5.5976039,38.570024 7.1993645,35.156542 7.6051386,34.261407 11.533702,25.602206 17.400477,16.611668 27.658293,17.946875 c 6.313008,0.822348 8.746939,7.441591 11.639669,13.113027 3.212268,-2.298122 7.262702,-5.397188 12.161697,-9.1381 1.606713,-1.648701 -1.230297,1.412598 4.912174,-4.945218 -7.666798,5.800787 -12.799625,9.825451 -17.073871,12.883337 -2.89273,-5.671422 -5.326661,-12.290675 -11.639669,-13.113027 -0.641114,-0.08348 -1.26669,-0.128204 -1.874099,-0.133585 z M 40.77467,32.55285 c -0.163287,0.111513 -0.327728,0.223197 -0.493799,0.335148 1.338627,2.362491 2.851789,4.407362 4.921579,5.540513 3.273521,1.79187 5.946451,0.515439 11.576179,-2.425735 0.524353,-0.663445 0.03081,-0.06688 1.598988,-2.024953 -6.89778,3.597213 -9.579562,5.218887 -13.175167,3.250711 -1.815976,-0.9942 -3.209379,-2.681082 -4.42778,-4.675684 z m -30.693447,0.855443 c -0.2977015,3.11246 1.482538,6.162039 5.765749,6.988936 4.494237,0.385852 6.769055,-0.215419 12.730741,-2.864008 1.069198,-0.49949 2.094336,-1.030275 3.108616,-1.586691 -0.17105,-0.304926 -0.339114,-0.612986 -0.50792,-0.921073 -0.85031,0.454733 -1.708627,0.891046 -2.600696,1.307783 -5.961686,2.648592 -8.236504,3.249864 -12.730741,2.864012 -3.728734,-0.719855 -5.550368,-3.125221 -5.765749,-5.788959 z"
       id="path5" />
  </g>
</svg>
