<?xml version="1.0" encoding="UTF-8" standalone="no"?>
<svg
   clip-rule="evenodd"
   fill-rule="evenodd"
   stroke-linejoin="round"
   stroke-miterlimit="1.41421"
   viewBox="0 0 62 62"
   version="1.1"
   id="svg5"
   sodipodi:docname="alienfx.svg"
   width="62"
   height="62"
   inkscape:version="1.4 (unknown)"
   xmlns:inkscape="http://www.inkscape.org/namespaces/inkscape"
   xmlns:sodipodi="http://sodipodi.sourceforge.net/DTD/sodipodi-0.dtd"
   xmlns="http://www.w3.org/2000/svg"
   xmlns:svg="http://www.w3.org/2000/svg">
  <defs
     id="defs5" />
  <sodipodi:namedview
     id="namedview5"
     pagecolor="#ffffff"
     bordercolor="#000000"
     borderopacity="0.25"
     inkscape:showpageshadow="2"
     inkscape:pageopacity="0.0"
     inkscape:pagecheckerboard="0"
     inkscape:deskcolor="#d1d1d1"
     inkscape:zoom="12.109375"
     inkscape:cx="31.95871"
     inkscape:cy="32"
     inkscape:window-width="1920"
     inkscape:window-height="998"
     inkscape:window-x="0"
     inkscape:window-y="0"
     inkscape:window-maximized="1"
     inkscape:current-layer="svg5" />
  <linearGradient
     id="a"
     x2="0.55452561"
     gradientTransform="matrix(39,0,0,56,12,32)"
     gradientUnits="userSpaceOnUse"
     x1="0.53995037"
     y1="0.5"
     y2="-0.49794301">
    <stop
       stop-color="#00357b"
       offset="0"
       id="stop1"
       style="stop-color:#004bad;stop-opacity:1;" />
    <stop
       stop-color="#356db6"
       offset="1"
       id="stop2"
       style="stop-color:#78a1d8;stop-opacity:1;" />
  </linearGradient>
  <g
     fill-rule="nonzero"
     id="g5"
     transform="translate(-0.5,-1)">
    <path
       d="M 51,23.6 C 51,43.2 39.857,60 31.5,60 23.143,60 12,43.2 12,23.6 12,12.775 20.73,4 31.5,4 42.27,4 51,12.775 51,23.6 Z"
       fill="url(#a)"
       id="path2"
       style="fill:url(#a)" />
    <g
       fill="#ffffff"
       id="g4">
      <path
         d="m 34.016,44.819 c -0.211,-0.541 1.661,-5.253 2.782,-7.001 2.092,-3.263 4.951,-5.173 8.529,-5.697 1.707,-0.25 1.751,-0.219 1.634,1.141 -0.252,2.937 -1.145,5.031 -3.104,7.277 -2.108,2.417 -5.434,4.09 -8.784,4.417 -0.82,0.08 -0.98,0.06 -1.057,-0.137 z"
         id="path3" />
      <path
         d="m 28.984,44.819 c 0.211,-0.541 -1.661,-5.253 -2.782,-7.001 -2.092,-3.263 -4.951,-5.173 -8.529,-5.697 -1.707,-0.25 -1.751,-0.219 -1.634,1.141 0.252,2.937 1.145,5.031 3.104,7.277 2.108,2.417 5.434,4.09 8.784,4.417 0.82,0.08 0.98,0.06 1.057,-0.137 z"
         id="path4" />
    </g>
  </g>
</svg>
