<?xml version="1.0" encoding="UTF-8" standalone="no"?>
<svg
   width="62"
   height="62"
   version="1.1"
   id="svg5"
   sodipodi:docname="allegorithmic-Substance_Alchemist.svg"
   inkscape:version="1.4 (e7c3feb100, 2024-10-09)"
   xmlns:inkscape="http://www.inkscape.org/namespaces/inkscape"
   xmlns:sodipodi="http://sodipodi.sourceforge.net/DTD/sodipodi-0.dtd"
   xmlns="http://www.w3.org/2000/svg"
   xmlns:svg="http://www.w3.org/2000/svg">
  <defs
     id="defs5" />
  <sodipodi:namedview
     id="namedview5"
     pagecolor="#ffffff"
     bordercolor="#000000"
     borderopacity="0.25"
     inkscape:showpageshadow="2"
     inkscape:pageopacity="0.0"
     inkscape:pagecheckerboard="0"
     inkscape:deskcolor="#d1d1d1"
     inkscape:zoom="8.2643105"
     inkscape:cx="32.610101"
     inkscape:cy="29.645546"
     inkscape:window-width="1920"
     inkscape:window-height="994"
     inkscape:window-x="0"
     inkscape:window-y="0"
     inkscape:window-maximized="1"
     inkscape:current-layer="svg5" />
  <g
     id="g7"
     transform="translate(0,0.40838021)">
    <g
       id="g6">
      <g
         id="g5"
         transform="matrix(1.1140541,0,0,1.0980392,-4.6497869,-5.0946541)">
        <path
           style="opacity:1;fill:#ffc299;fill-opacity:1"
           d="M 32,8 A 3,3 0 0 0 29.402,9.498 L 4.5741,52.502 A 3,3 0 0 0 4.5761,55.5 H 4.578 A 3,3 0 0 0 7.1738,57 H 56.826 a 3,3 0 0 0 2.596,-1.5 h 0.002 a 3,3 0 0 0 0.002,-2.998 L 34.598,9.5 A 3,3 0 0 0 32,8.0019 Z"
           id="path1" />
        <path
           style="fill:#ff8b1a;fill-opacity:1"
           d="M 32,7 A 3,3 0 0 0 29.402,8.498 L 4.5741,51.502 A 3,3 0 0 0 4.5761,54.5 H 4.578 A 3,3 0 0 0 7.1738,56 H 56.826 a 3,3 0 0 0 2.596,-1.5 h 0.002 a 3,3 0 0 0 0.002,-2.998 L 34.598,8.5 A 3,3 0 0 0 32,7.0019 Z"
           id="path2" />
        <path
           style="opacity:0.2;fill:#ffffff"
           d="M 32,7 A 3,3 0 0 0 29.402,8.498 L 4.5742,51.502 A 3,3 0 0 0 4.2188,53.506 3,3 0 0 1 4.5742,52.502 L 29.402,9.498 A 3,3 0 0 1 32,8 V 8.002 A 3,3 0 0 1 34.598,9.5 l 24.828,43.002 a 3,3 0 0 1 0.355,0.99 3,3 0 0 0 -0.355,-1.99 L 34.598,8.5 A 3,3 0 0 0 32,7.002 Z"
           id="path3" />
        <path
           style="opacity:0.2"
           d="m 32,21 -16,9 v 8 l 23,8 -7,4 -9,-5 V 43 L 16,40.5 V 49 l 16,9 16,-9 v -8 l -23,-8 7,-4 9,5 v 2 l 7,2.5 V 30 Z"
           id="path4" />
        <path
           style="fill:#ffffff"
           d="m 32,20 -16,9 v 8 l 23,8 -7,4 -9,-5 V 42 L 16,39.5 V 48 l 16,9 16,-9 v -8 l -23,-8 7,-4 9,5 v 2 l 7,2.5 V 29 Z"
           id="path5" />
      </g>
    </g>
  </g>
</svg>
