<?xml version="1.0" encoding="UTF-8" standalone="no"?>
<svg
   width="62"
   height="62"
   version="1.1"
   id="svg5"
   sodipodi:docname="allegorithmic-Substance_Designer.svg"
   inkscape:version="1.4 (e7c3feb100, 2024-10-09)"
   xmlns:inkscape="http://www.inkscape.org/namespaces/inkscape"
   xmlns:sodipodi="http://sodipodi.sourceforge.net/DTD/sodipodi-0.dtd"
   xmlns="http://www.w3.org/2000/svg"
   xmlns:svg="http://www.w3.org/2000/svg">
  <defs
     id="defs5" />
  <sodipodi:namedview
     id="namedview5"
     pagecolor="#ffffff"
     bordercolor="#000000"
     borderopacity="0.25"
     inkscape:showpageshadow="2"
     inkscape:pageopacity="0.0"
     inkscape:pagecheckerboard="0"
     inkscape:deskcolor="#d1d1d1"
     inkscape:zoom="11.6875"
     inkscape:cx="31.957219"
     inkscape:cy="32"
     inkscape:window-width="1920"
     inkscape:window-height="994"
     inkscape:window-x="0"
     inkscape:window-y="0"
     inkscape:window-maximized="1"
     inkscape:current-layer="svg5" />
  <g
     id="g5"
     transform="matrix(1.0344826,0,0,1.037037,-2.1034485,-2.185184)">
    <path
       style="opacity:0.64941785;fill:#ff4c4c;fill-opacity:1"
       d="m 32,6 a 3,3 0 0 0 -3,3 v 2 H 12 C 9.784,11 8,12.784 8,15 V 32 H 6 a 3,3 0 0 0 -3,3 3,3 0 0 0 3,3 h 2 v 17 c 0,2.216 1.784,4 4,4 h 40 c 2.216,0 4,-1.784 4,-4 V 38 h 2 a 3,3 0 0 0 3,-3 3,3 0 0 0 -3,-3 H 56 V 15 c 0,-2.216 -1.784,-4 -4,-4 H 35 V 9 A 3,3 0 0 0 32,6 Z"
       id="path1" />
    <path
       style="fill:#ff5555"
       d="m 32,5 a 3,3 0 0 0 -3,3 v 2 H 12 C 9.784,10 8,11.784 8,14 V 31 H 6 a 3,3 0 0 0 -3,3 3,3 0 0 0 3,3 h 2 v 17 c 0,2.216 1.784,4 4,4 h 40 c 2.216,0 4,-1.784 4,-4 V 37 h 2 a 3,3 0 0 0 3,-3 3,3 0 0 0 -3,-3 H 56 V 14 c 0,-2.216 -1.784,-4 -4,-4 H 35 V 8 A 3,3 0 0 0 32,5 Z"
       id="path2" />
    <path
       style="opacity:0.2"
       d="m 32,17 -16,9 v 8 l 23,8 -7,4 -9,-5 V 39 L 16,36.551 V 45 l 16,9 16,-9 v -8 l -23,-8 7,-4 9,5 v 2 l 7,2.502 V 26 Z"
       id="path3" />
    <path
       style="fill:#ffffff"
       d="m 32,16 -16,9 v 8 l 23,8 -7,4 -9,-5 V 38 L 16,35.551 V 44 l 16,9 16,-9 v -8 l -23,-8 7,-4 9,5 v 2 l 7,2.502 V 25 Z"
       id="path4" />
    <path
       style="opacity:0.2;fill:#ffffff"
       d="m 32,5 a 3,3 0 0 0 -3,3 v 1 a 3,3 0 0 1 3,-3 3,3 0 0 1 3,3 V 8 A 3,3 0 0 0 32,5 Z m -20,5 c -2.216,0 -4,1.784 -4,4 v 1 c 0,-2.216 1.784,-4 4,-4 h 17 v -1 z m 23,0 v 1 h 17 c 2.216,0 4,1.784 4,4 v -1 c 0,-2.216 -1.784,-4 -4,-4 z M 6,31 A 3,3 0 0 0 3,34 3,3 0 0 0 3.043,34.486 3,3 0 0 1 6,32 h 2 v -1 z m 50,0 v 1 h 2 A 3,3 0 0 1 60.957,34.514 3,3 0 0 0 61,34 3,3 0 0 0 58,31 Z"
       id="path5" />
  </g>
</svg>
