<?xml version="1.0" encoding="UTF-8" standalone="no"?>
<!-- Created with Inkscape (http://www.inkscape.org/) -->

<svg
   width="62"
   height="62"
   viewBox="0 0 62 62"
   version="1.1"
   id="svg1"
   inkscape:version="1.4 (unknown)"
   sodipodi:docname="altmediawriter.svg"
   xmlns:inkscape="http://www.inkscape.org/namespaces/inkscape"
   xmlns:sodipodi="http://sodipodi.sourceforge.net/DTD/sodipodi-0.dtd"
   xmlns:xlink="http://www.w3.org/1999/xlink"
   xmlns="http://www.w3.org/2000/svg"
   xmlns:svg="http://www.w3.org/2000/svg">
  <sodipodi:namedview
     id="namedview1"
     pagecolor="#ffffff"
     bordercolor="#000000"
     borderopacity="0.25"
     inkscape:showpageshadow="2"
     inkscape:pageopacity="0.0"
     inkscape:pagecheckerboard="0"
     inkscape:deskcolor="#d1d1d1"
     inkscape:document-units="px"
     inkscape:zoom="10.74725"
     inkscape:cx="30.19377"
     inkscape:cy="32.706041"
     inkscape:window-width="1920"
     inkscape:window-height="998"
     inkscape:window-x="0"
     inkscape:window-y="0"
     inkscape:window-maximized="1"
     inkscape:current-layer="layer1"
     showgrid="false">
    <inkscape:grid
       id="grid1"
       units="px"
       originx="0"
       originy="0"
       spacingx="1"
       spacingy="1"
       empcolor="#0099e5"
       empopacity="0.30196078"
       color="#0099e5"
       opacity="0.14901961"
       empspacing="5"
       enabled="true"
       visible="false" />
  </sodipodi:namedview>
  <defs
     id="defs1">
    <linearGradient
       id="linearGradient3"
       inkscape:collect="always">
      <stop
         style="stop-color:#566c80;stop-opacity:1;"
         offset="0"
         id="stop3" />
      <stop
         style="stop-color:#2a343e;stop-opacity:1;"
         offset="1"
         id="stop4" />
    </linearGradient>
    <radialGradient
       id="paint664_radial_890_11"
       cx="0"
       cy="0"
       r="1"
       gradientUnits="userSpaceOnUse"
       gradientTransform="matrix(-16.000099,-9.999913,9.999913,-16.000099,583,171)">
      <stop
         offset="0.42141"
         stop-color="#B7C6CD"
         id="stop2071" />
      <stop
         offset="1"
         stop-color="#EFF2F6"
         id="stop2072" />
    </radialGradient>
    <linearGradient
       id="paint665_linear_890_11"
       x1="605"
       y1="180"
       x2="601.466"
       y2="162.72301"
       gradientUnits="userSpaceOnUse">
      <stop
         stop-color="#5200FF"
         id="stop2073" />
      <stop
         offset="1"
         stop-color="#0085FF"
         id="stop2074" />
    </linearGradient>
    <linearGradient
       id="paint666_linear_890_11"
       x1="567"
       y1="181"
       x2="562.11798"
       y2="174.183"
       gradientUnits="userSpaceOnUse">
      <stop
         stop-color="#5200FF"
         id="stop2075" />
      <stop
         offset="0.670391"
         stop-color="#0085FF"
         id="stop2076" />
    </linearGradient>
    <linearGradient
       id="paint667_linear_890_11"
       x1="605"
       y1="180"
       x2="597.32001"
       y2="174.24001"
       gradientUnits="userSpaceOnUse">
      <stop
         stop-color="#5200FF"
         id="stop2077" />
      <stop
         offset="1"
         stop-color="#0085FF"
         id="stop2078" />
    </linearGradient>
    <linearGradient
       id="paint668_linear_890_11"
       x1="567"
       y1="180"
       x2="561.23999"
       y2="172.32001"
       gradientUnits="userSpaceOnUse">
      <stop
         stop-color="#5200FF"
         id="stop2079" />
      <stop
         offset="1"
         stop-color="#0085FF"
         id="stop2080" />
    </linearGradient>
    <linearGradient
       id="paint669_linear_890_11"
       x1="607"
       y1="179"
       x2="602.50598"
       y2="171.80901"
       gradientUnits="userSpaceOnUse">
      <stop
         stop-color="#5200FF"
         id="stop2081" />
      <stop
         offset="1"
         stop-color="#0085FF"
         id="stop2082" />
    </linearGradient>
    <linearGradient
       id="paint670_linear_890_11"
       x1="607"
       y1="217"
       x2="568.82599"
       y2="170.01601"
       gradientUnits="userSpaceOnUse">
      <stop
         stop-color="#5200FF"
         id="stop2083" />
      <stop
         offset="1"
         stop-color="#0085FF"
         id="stop2084" />
    </linearGradient>
    <radialGradient
       id="paint671_radial_890_11"
       cx="0"
       cy="0"
       r="1"
       gradientUnits="userSpaceOnUse"
       gradientTransform="matrix(0,20,-16,0,583,187)">
      <stop
         offset="0.869716"
         stop-color="#EFF2F6"
         id="stop2085" />
      <stop
         offset="1"
         stop-color="#B7C6CD"
         id="stop2086" />
    </radialGradient>
    <linearGradient
       id="paint497_linear_890_11"
       x1="497"
       y1="413"
       x2="447.457"
       y2="376.79599"
       gradientUnits="userSpaceOnUse"
       gradientTransform="translate(-452,-358)">
      <stop
         offset="0.636456"
         stop-color="#71706E"
         id="stop1737" />
      <stop
         offset="1"
         stop-color="#B9AA99"
         id="stop1738" />
    </linearGradient>
    <linearGradient
       id="paint498_linear_890_11"
       x1="507"
       y1="413"
       x2="457.457"
       y2="376.79599"
       gradientUnits="userSpaceOnUse"
       gradientTransform="translate(-452,-358)">
      <stop
         offset="0.544933"
         stop-color="#FF7E07"
         id="stop1739" />
      <stop
         offset="1"
         stop-color="#FFE607"
         id="stop1740" />
    </linearGradient>
    <linearGradient
       id="paint499_linear_890_11"
       x1="473"
       y1="365"
       x2="486.28699"
       y2="389.91299"
       gradientUnits="userSpaceOnUse"
       gradientTransform="translate(-452,-358)">
      <stop
         stop-color="white"
         id="stop1741" />
      <stop
         offset="0.705"
         stop-color="#EAEFEF"
         id="stop1742" />
    </linearGradient>
    <linearGradient
       id="paint500_linear_890_11"
       x1="480"
       y1="371.5"
       x2="480"
       y2="368.5"
       gradientUnits="userSpaceOnUse"
       gradientTransform="translate(-452,-358)">
      <stop
         offset="0.155999"
         stop-color="#71706E"
         id="stop1743" />
      <stop
         offset="0.796276"
         stop-color="#B9AA99"
         id="stop1744" />
    </linearGradient>
    <linearGradient
       id="paint501_linear_890_11"
       x1="479"
       y1="375.5"
       x2="479"
       y2="372.5"
       gradientUnits="userSpaceOnUse"
       gradientTransform="translate(-452,-358)">
      <stop
         offset="0.155999"
         stop-color="#71706E"
         id="stop1745" />
      <stop
         offset="0.796276"
         stop-color="#B9AA99"
         id="stop1746" />
    </linearGradient>
    <linearGradient
       id="paint502_linear_890_11"
       x1="511"
       y1="417"
       x2="455.64352"
       y2="380.82346"
       gradientUnits="userSpaceOnUse"
       gradientTransform="translate(-452,-358)">
      <stop
         offset="0.18397722"
         stop-color="#2E2E41"
         id="stop1747"
         style="stop-color:#33424d;stop-opacity:1;" />
      <stop
         offset="1"
         stop-color="#566C80"
         id="stop1748" />
    </linearGradient>
    <linearGradient
       id="paint745_linear_890_11"
       x1="172"
       y1="61"
       x2="195.978"
       y2="83.979202"
       gradientUnits="userSpaceOnUse">
      <stop
         stop-color="#EFF2F6"
         id="stop2233" />
      <stop
         offset="1"
         stop-color="#ACD1CF"
         id="stop2234" />
    </linearGradient>
    <linearGradient
       id="paint746_linear_890_11"
       x1="176"
       y1="84"
       x2="175.47501"
       y2="78.479202"
       gradientUnits="userSpaceOnUse">
      <stop
         offset="0.404925"
         stop-color="#2E2E41"
         id="stop2235" />
      <stop
         offset="1"
         stop-color="#566C80"
         id="stop2236" />
    </linearGradient>
    <linearGradient
       id="paint747_linear_890_11"
       x1="202"
       y1="84"
       x2="201.47501"
       y2="78.479202"
       gradientUnits="userSpaceOnUse">
      <stop
         offset="0.404925"
         stop-color="#2E2E41"
         id="stop2237" />
      <stop
         offset="1"
         stop-color="#566C80"
         id="stop2238" />
    </linearGradient>
    <linearGradient
       id="paint748_linear_890_11"
       x1="155"
       y1="82"
       x2="186.461"
       y2="132.33701"
       gradientUnits="userSpaceOnUse">
      <stop
         offset="0.205721"
         stop-color="#EFF2F6"
         id="stop2239" />
      <stop
         offset="1"
         stop-color="#B7C6CD"
         id="stop2240" />
    </linearGradient>
    <radialGradient
       id="paint750_radial_890_11"
       cx="0"
       cy="0"
       r="1"
       gradientUnits="userSpaceOnUse"
       gradientTransform="matrix(5.6470608,5.6470608,-5.6470608,5.6470608,172,96)">
      <stop
         offset="0.340843"
         stop-color="#2E2E41"
         id="stop2243" />
      <stop
         offset="1"
         stop-color="#566C80"
         id="stop2244" />
    </radialGradient>
    <linearGradient
       id="paint751_linear_890_11"
       x1="166"
       y1="90"
       x2="178"
       y2="102"
       gradientUnits="userSpaceOnUse">
      <stop
         stop-color="white"
         id="stop2245" />
      <stop
         offset="0.705"
         stop-color="#EAEFEF"
         id="stop2246" />
    </linearGradient>
    <linearGradient
       id="paint752_linear_890_11"
       x1="193"
       y1="88"
       x2="199"
       y2="94"
       gradientUnits="userSpaceOnUse">
      <stop
         stop-color="#FFE607"
         id="stop2247" />
      <stop
         offset="0.802569"
         stop-color="#FF7E07"
         id="stop2248" />
    </linearGradient>
    <linearGradient
       id="paint753_linear_890_11"
       x1="199"
       y1="104"
       x2="193"
       y2="98"
       gradientUnits="userSpaceOnUse">
      <stop
         offset="0.253846"
         stop-color="#089953"
         id="stop2249" />
      <stop
         offset="1"
         stop-color="#16D96F"
         id="stop2250" />
    </linearGradient>
    <linearGradient
       id="paint754_linear_890_11"
       x1="198"
       y1="93"
       x2="204"
       y2="99"
       gradientUnits="userSpaceOnUse">
      <stop
         offset="0.30755"
         stop-color="#F15700"
         id="stop2251" />
      <stop
         offset="0.832479"
         stop-color="#FF0000"
         id="stop2252" />
    </linearGradient>
    <linearGradient
       id="paint755_linear_890_11"
       x1="194"
       y1="99"
       x2="188"
       y2="93"
       gradientUnits="userSpaceOnUse">
      <stop
         offset="0.320751"
         stop-color="#5200FF"
         id="stop2253" />
      <stop
         offset="1"
         stop-color="#0085FF"
         id="stop2254" />
    </linearGradient>
    <linearGradient
       id="paint711_linear_890_11"
       x1="785.19843"
       y1="61.085037"
       x2="785.21344"
       y2="116.9138"
       gradientUnits="userSpaceOnUse"
       gradientTransform="matrix(0.35714286,0,0,0.35714286,-293.53986,16.980161)">
      <stop
         offset="0.0001"
         stop-color="#EFF2F6"
         id="stop2165"
         style="stop-color:#547097;stop-opacity:1;" />
      <stop
         offset="0.61014605"
         stop-color="#EFF2F6"
         id="stop1"
         style="stop-color:#9955ff;stop-opacity:1" />
      <stop
         offset="1"
         stop-color="#B7C6CD"
         id="stop2166"
         style="stop-color:#475b63;stop-opacity:1;" />
    </linearGradient>
    <radialGradient
       id="paint712_radial_890_11"
       cx="0"
       cy="0"
       r="1"
       gradientUnits="userSpaceOnUse"
       gradientTransform="matrix(22.216699,21.999996,-21.99894,22.215633,30.867,31)">
      <stop
         offset="0.420978"
         stop-color="#F15700"
         id="stop2167" />
      <stop
         offset="0.792773"
         stop-color="#FF0000"
         id="stop2168" />
    </radialGradient>
    <radialGradient
       id="paint713_radial_890_11"
       cx="0"
       cy="0"
       r="1"
       gradientUnits="userSpaceOnUse"
       gradientTransform="matrix(-16.688097,16.851418,-13.741875,-13.608691,50.791,10.8957)">
      <stop
         stop-color="#FFE607"
         id="stop2169" />
      <stop
         offset="0.903378"
         stop-color="#FF7E07"
         id="stop2170" />
    </radialGradient>
    <radialGradient
       id="paint714_radial_890_11"
       cx="0"
       cy="0"
       r="1"
       gradientUnits="userSpaceOnUse"
       gradientTransform="matrix(-22.961171,-7.4640815,7.4454397,-22.903825,31.961,30.8155)">
      <stop
         offset="0.440692"
         stop-color="#001AFF"
         id="stop2171" />
      <stop
         offset="1"
         stop-color="#0085FF"
         id="stop2172" />
    </radialGradient>
    <linearGradient
       id="a"
       x1="3.9389999"
       x2="7.4949999"
       y1="19.903999"
       y2="29.028"
       gradientUnits="userSpaceOnUse"
       gradientTransform="matrix(1.5769232,0,0,1.5769232,6.5427079,5.7692283)">
      <stop
         stop-color="#F25565"
         id="stop12-3" />
      <stop
         offset=".5"
         stop-color="#DA4453"
         id="stop13-6" />
      <stop
         offset="1"
         stop-color="#832932"
         id="stop14-7" />
    </linearGradient>
    <linearGradient
       id="b"
       x1="12"
       x2="19.5"
       y1="6.5"
       y2="20"
       gradientUnits="userSpaceOnUse"
       gradientTransform="matrix(1.5769232,0,0,1.5769232,6.5427079,5.7692283)">
      <stop
         stop-color="#C5CACD"
         id="stop15" />
      <stop
         offset="0.53799999"
         stop-color="#ACB6BC"
         id="stop16"
         style="stop-color:#c9d0d3;stop-opacity:1;" />
      <stop
         offset="0.87300003"
         stop-color="#9BA3A8"
         id="stop17-5"
         style="stop-color:#cdd2d4;stop-opacity:1;" />
      <stop
         offset="1"
         stop-color="#A0AAB0"
         id="stop18-3"
         style="stop-color:#d3d8db;stop-opacity:1;" />
    </linearGradient>
    <linearGradient
       id="c"
       x1="20"
       x2="20"
       y1="3"
       y2="9.5"
       gradientUnits="userSpaceOnUse"
       gradientTransform="matrix(1.5769232,0,0,1.5769232,6.5427079,5.7692283)">
      <stop
         stop-color="#fff"
         id="stop19-5" />
      <stop
         offset="1"
         stop-color="#fff"
         stop-opacity="0"
         id="stop20-6" />
    </linearGradient>
    <linearGradient
       id="e"
       x1="22"
       x2="14"
       y1="20.5"
       y2="3.5"
       gradientUnits="userSpaceOnUse">
      <stop
         stop-color="#C9D1D9"
         id="stop23" />
      <stop
         offset=".435"
         stop-color="#2D3B49"
         id="stop24" />
      <stop
         offset=".6"
         stop-color="#6D7E91"
         id="stop25" />
      <stop
         offset="1"
         stop-color="#A4A9AF"
         id="stop26" />
    </linearGradient>
    <linearGradient
       id="g"
       x1="20"
       x2="23"
       y1="16"
       y2="19"
       gradientUnits="userSpaceOnUse"
       gradientTransform="matrix(1.5769232,0,0,1.5769232,6.5427079,5.7692283)">
      <stop
         offset=".5"
         stop-color="#222E3C"
         stop-opacity="0"
         id="stop31" />
      <stop
         offset="1"
         stop-color="#222E3C"
         id="stop32" />
    </linearGradient>
    <radialGradient
       id="h"
       cx="0"
       cy="0"
       r="1"
       gradientTransform="matrix(4.7307691,4.7307691,-3.4124135,3.4124135,50.696527,18.384601)"
       gradientUnits="userSpaceOnUse">
      <stop
         stop-color="#fff"
         id="stop33" />
      <stop
         offset="1"
         stop-color="#fff"
         stop-opacity="0"
         id="stop34" />
    </radialGradient>
    <filter
       id="filter30427-0-36"
       x="-0.1339518"
       y="-0.3388412"
       width="1.2679036"
       height="1.6776824"
       color-interpolation-filters="sRGB">
      <feGaussianBlur
         stdDeviation="0.48299559"
         id="feGaussianBlur37-2-7" />
    </filter>
    <linearGradient
       id="paint512_linear_890_11"
       x1="309"
       y1="411"
       x2="263.34399"
       y2="359.388"
       gradientUnits="userSpaceOnUse"
       gradientTransform="matrix(0.39285964,0,0,0.39583333,-100.17928,-142.97917)">
      <stop
         offset="0.285926"
         stop-color="#2E2E41"
         id="stop1767"
         style="stop-color:#535d6c;stop-opacity:1" />
      <stop
         offset="1"
         stop-color="#566C80"
         id="stop1768"
         style="stop-color:#6f7c91;stop-opacity:1" />
    </linearGradient>
    <linearGradient
       id="paint513_linear_890_11"
       x1="261"
       y1="371"
       x2="291.44299"
       y2="412.85901"
       gradientUnits="userSpaceOnUse"
       gradientTransform="matrix(0.39285964,0,0,0.39583333,-100.17928,-142.97917)">
      <stop
         offset="0.554849"
         stop-color="#EFF2F6"
         id="stop1769" />
      <stop
         offset="1"
         stop-color="#B7C6CD"
         id="stop1770" />
    </linearGradient>
    <linearGradient
       id="paint514_linear_890_11"
       x1="279"
       y1="381"
       x2="273"
       y2="375"
       gradientUnits="userSpaceOnUse"
       gradientTransform="matrix(0.39285964,0,0,0.39583333,-128.12504,-141.26852)">
      <stop
         offset="0.178269"
         stop-color="#5200FF"
         id="stop1771" />
      <stop
         offset="0.732905"
         stop-color="#0085FF"
         id="stop1772" />
    </linearGradient>
    <linearGradient
       id="paint515_linear_890_11"
       x1="279"
       y1="389"
       x2="273"
       y2="383"
       gradientUnits="userSpaceOnUse"
       gradientTransform="matrix(0.39285964,0,0,0.39583333,-128.12504,-141.26852)">
      <stop
         offset="0.158885"
         stop-color="#FF7E07"
         id="stop1773" />
      <stop
         offset="0.804651"
         stop-color="#FFC807"
         id="stop1774" />
    </linearGradient>
    <linearGradient
       id="paint516_linear_890_11"
       x1="265"
       y1="375"
       x2="271"
       y2="381"
       gradientUnits="userSpaceOnUse"
       gradientTransform="matrix(0.39285964,0,0,0.39583333,-128.12504,-141.26852)">
      <stop
         offset="0.243963"
         stop-color="#F15700"
         id="stop1775" />
      <stop
         offset="0.831224"
         stop-color="#FF0000"
         id="stop1776" />
    </linearGradient>
    <linearGradient
       id="paint517_linear_890_11"
       x1="271"
       y1="389"
       x2="265"
       y2="383"
       gradientUnits="userSpaceOnUse"
       gradientTransform="matrix(0.39285964,0,0,0.39583333,-128.12504,-141.26852)">
      <stop
         stop-color="#089953"
         id="stop1777" />
      <stop
         offset="1"
         stop-color="#16D96F"
         id="stop1778" />
    </linearGradient>
    <linearGradient
       id="paint518_linear_890_11"
       x1="284"
       y1="369"
       x2="282"
       y2="367"
       gradientUnits="userSpaceOnUse"
       gradientTransform="matrix(0.39285964,0,0,0.39583333,-128.12504,-141.26852)">
      <stop
         stop-color="#71706E"
         id="stop1779" />
      <stop
         offset="1"
         stop-color="#B9AA99"
         id="stop1780" />
    </linearGradient>
    <linearGradient
       id="paint519_linear_890_11"
       x1="292.52399"
       y1="413.5"
       x2="292.52399"
       y2="407"
       gradientUnits="userSpaceOnUse"
       gradientTransform="matrix(0.39285964,0,0,0.39583333,-100.17928,-142.97917)">
      <stop
         offset="0.298086"
         stop-color="#2E2E41"
         id="stop1781"
         style="stop-color:#535d6c;stop-opacity:1" />
      <stop
         offset="1"
         stop-color="#566C80"
         id="stop1782"
         style="stop-color:#6f7c91;stop-opacity:1" />
    </linearGradient>
    <linearGradient
       id="paint520_linear_890_11"
       x1="288"
       y1="409"
       x2="287.23099"
       y2="405.15399"
       gradientUnits="userSpaceOnUse"
       gradientTransform="matrix(0.39285964,0,0,0.39583333,-100.17928,-142.97917)">
      <stop
         offset="0.384873"
         stop-color="#2E2E41"
         id="stop1783" />
      <stop
         offset="1"
         stop-color="#566C80"
         id="stop1784" />
    </linearGradient>
    <filter
       id="filter30427-0-36-3"
       x="-0.1339518"
       y="-0.3388412"
       width="1.2679036"
       height="1.6776824"
       color-interpolation-filters="sRGB">
      <feGaussianBlur
         stdDeviation="0.48299559"
         id="feGaussianBlur37-2-7-8" />
    </filter>
    <linearGradient
       id="paint256_linear_890_11"
       x1="411"
       y1="669"
       x2="403.32001"
       y2="663.23999"
       gradientUnits="userSpaceOnUse"
       gradientTransform="matrix(0.35714286,0,0,0.35714286,-125.78572,-235.07143)">
      <stop
         stop-color="#2E2E41"
         id="stop1254"
         style="stop-color:#ff2a2a;stop-opacity:1" />
      <stop
         offset="1"
         stop-color="#566C80"
         id="stop1255" />
    </linearGradient>
    <linearGradient
       id="paint257_linear_890_11"
       x1="399"
       y1="717"
       x2="361"
       y2="665"
       gradientUnits="userSpaceOnUse"
       gradientTransform="matrix(0.36363639,0,0,0.35714286,-126.09093,-235.07143)">
      <stop
         stop-color="#2E2E41"
         id="stop1256"
         offset="0"
         style="stop-color:#444460;stop-opacity:1;" />
      <stop
         offset="1"
         stop-color="#566C80"
         id="stop1257"
         style="stop-color:#768ea3;stop-opacity:1;" />
    </linearGradient>
    <linearGradient
       id="paint258_linear_890_11"
       x1="359"
       y1="665"
       x2="402.129"
       y2="700.28699"
       gradientUnits="userSpaceOnUse"
       gradientTransform="matrix(0.36363639,0,0,0.35714286,-126.09093,-235.07143)">
      <stop
         offset="0.467853"
         stop-color="#EFF2F6"
         id="stop1258" />
      <stop
         offset="1"
         stop-color="#B7C6CD"
         id="stop1259" />
    </linearGradient>
    <linearGradient
       id="paint259_linear_890_11"
       x1="379"
       y1="715"
       x2="375"
       y2="711"
       gradientUnits="userSpaceOnUse">
      <stop
         stop-color="#71706E"
         id="stop1260"
         offset="0"
         style="stop-color:#72716f;stop-opacity:1;" />
      <stop
         offset="1"
         stop-color="#B9AA99"
         id="stop1261" />
    </linearGradient>
    <linearGradient
       id="paint260_linear_890_11"
       x1="411"
       y1="696.5"
       x2="405"
       y2="696.5"
       gradientUnits="userSpaceOnUse"
       gradientTransform="matrix(0.35714286,0,0,0.35714286,-125.78572,-235.07143)">
      <stop
         stop-color="#2E2E41"
         id="stop1262"
         offset="0"
         style="stop-color:#5f5f88;stop-opacity:1;" />
      <stop
         offset="1"
         stop-color="#566C80"
         id="stop1263"
         style="stop-color:#7d93a7;stop-opacity:1;" />
    </linearGradient>
    <linearGradient
       id="paint261_linear_890_11"
       x1="387"
       y1="697"
       x2="367"
       y2="677"
       gradientUnits="userSpaceOnUse">
      <stop
         offset="0.445689"
         stop-color="#FF7E07"
         id="stop1264" />
      <stop
         offset="1"
         stop-color="#FFE607"
         id="stop1265" />
    </linearGradient>
    <linearGradient
       id="paint675_linear_890_11"
       x1="397"
       y1="173"
       x2="388.31"
       y2="152.724"
       gradientUnits="userSpaceOnUse">
      <stop
         stop-color="#71706E"
         id="stop2093" />
      <stop
         offset="1"
         stop-color="#B9AA99"
         id="stop2094" />
    </linearGradient>
    <linearGradient
       id="paint676_linear_890_11"
       x1="401"
       y1="217"
       x2="356.34799"
       y2="182.05499"
       gradientUnits="userSpaceOnUse">
      <stop
         offset="0.281945"
         stop-color="#2E2E41"
         id="stop2095" />
      <stop
         offset="1"
         stop-color="#566C80"
         id="stop2096" />
    </linearGradient>
    <linearGradient
       id="paint677_linear_890_11"
       x1="383"
       y1="167"
       x2="383"
       y2="165"
       gradientUnits="userSpaceOnUse">
      <stop
         offset="0.26477"
         stop-color="#2E2E41"
         id="stop2097" />
      <stop
         offset="1"
         stop-color="#566C80"
         id="stop2098" />
    </linearGradient>
    <linearGradient
       id="paint679_linear_890_11"
       x1="392"
       y1="205"
       x2="367.65201"
       y2="189.67"
       gradientUnits="userSpaceOnUse">
      <stop
         stop-color="#71706E"
         id="stop2101" />
      <stop
         offset="1"
         stop-color="#B9AA99"
         id="stop2102" />
    </linearGradient>
    <linearGradient
       inkscape:collect="always"
       xlink:href="#linearGradient3"
       id="linearGradient4"
       x1="359.97546"
       y1="183.05766"
       x2="401"
       y2="217"
       gradientUnits="userSpaceOnUse" />
    <linearGradient
       inkscape:collect="always"
       xlink:href="#linearGradient3"
       id="linearGradient7"
       x1="377"
       y1="165"
       x2="377"
       y2="167"
       gradientUnits="userSpaceOnUse" />
    <linearGradient
       inkscape:collect="always"
       xlink:href="#linearGradient3"
       id="linearGradient9"
       x1="389.64398"
       y1="165"
       x2="389.7225"
       y2="167"
       gradientUnits="userSpaceOnUse" />
  </defs>
  <g
     inkscape:label="Layer 1"
     inkscape:groupmode="layer"
     id="layer1">
    <g
       id="g2273"
       transform="matrix(1.0111111,0,0,1,-356.25555,-158)">
      <path
         d="m 369,163 c 0,-1.105 0.895,-2 2,-2 h 24 c 1.105,0 2,0.895 2,2 v 10 h -28 z"
         id="path658"
         style="fill:#e5f0ff;fill-opacity:1" />
      <path
         d="m 365,173 c 0,-1.105 0.895,-2 2,-2 h 32 c 1.105,0 2,0.895 2,2 v 26 c 0,9.941 -8.059,18 -18,18 -9.941,0 -18,-8.059 -18,-18 z"
         id="path659"
         style="fill:url(#linearGradient4)" />
      <path
         d="m 375,165 c -0.552,0 -1,0.448 -1,1 0,0.552 0.448,1 1,1 h 4 c 0.552,0 1,-0.448 1,-1 0,-0.552 -0.448,-1 -1,-1 z"
         id="path660"
         style="fill:url(#linearGradient7)" />
      <path
         d="m 387,165 c -0.552,0 -1,0.448 -1,1 0,0.552 0.448,1 1,1 h 4 c 0.552,0 1,-0.448 1,-1 0,-0.552 -0.448,-1 -1,-1 z"
         id="path661"
         style="fill:url(#linearGradient9)" />
    </g>
    <g
       id="g1"
       transform="translate(1.5305012,1.37)">
      <path
         style="opacity:0.2;stroke-width:0.848222"
         d="m 28.381412,18.752002 c -2.480095,0.5695 -4.452319,2.167502 -5.281838,4.505004 -0.600979,1.691501 -0.719482,3.485003 -1.117312,5.219005 -0.237006,1.0625 -1.134241,2.584003 -3.047215,4.794005 l -0.465546,0.05947 v 0.841501 l 1.278137,-0.051 c 1.945981,-0.07729 3.868269,1.224001 5.078691,2.482003 0.727945,0.756501 1.802934,2.558502 1.802934,2.558502 0.694088,1.173001 1.320461,2.388503 1.963759,3.587004 0.956489,1.810497 1.760613,3.714499 2.945643,5.406001 0.88877,1.266501 2.090725,2.541502 3.377329,3.476503 h 1.328922 c -0.369051,-4.278905 1.286603,-9.333004 1.523608,-13.328009 0.05927,-1.326001 -0.05079,-2.686002 -0.270863,-4.003504 -0.448619,-2.703003 -2.4547,-5.899006 -0.499406,-8.381008 0.228541,-0.289001 0.490941,-0.484501 0.82952,-0.790502 1.041132,-0.952 2.023012,-2.159001 2.183837,-3.570003 0.04229,-0.322998 0.03386,-0.595 0.05921,-0.782 0.279329,-0.2975 0.440155,-0.756502 0.389368,-1.156002 -0.02544,-0.195499 -0.101575,-0.373999 -0.253936,-0.518499 -0.143897,-0.136001 -0.363973,-0.229502 -0.660231,-0.246502 0.0762,0.195501 0.06772,0.357002 0.04232,0.501502 -0.03386,0.136 -0.09315,0.271999 -0.203149,0.416499 -0.03386,0.051 -0.0762,0.09347 -0.126967,0.1445 0.01693,-0.102 0.01693,-0.1955 0,-0.289 -0.03386,-0.135999 -0.101574,-0.263499 -0.194683,-0.382499 -0.09313,-0.1105 -0.203147,-0.221001 -0.338579,-0.323002 -0.457082,0.068 -0.922629,0.09345 -1.438961,0.085 -0.304722,0 -0.634838,-0.017 -0.99881,-0.051 -1.678503,-0.120701 -3.676119,-0.476001 -5.256445,-0.476001 -0.88877,0 -1.769076,0.068 -2.649382,0.272 z"
         id="path6" />
      <path
         style="fill:#ffcc00;stroke-width:0.848222"
         d="m 28.381412,17.902001 c -2.480095,0.5695 -4.452319,2.167502 -5.281838,4.505004 -0.600979,1.691502 -0.719482,3.485003 -1.117312,5.219005 -0.237006,1.062501 -1.134241,2.584003 -3.047215,4.794005 l -0.465546,0.05948 v 0.841501 l 1.278137,-0.051 c 1.945981,-0.07729 3.868269,1.224001 5.078691,2.482003 0.727945,0.7565 1.802934,2.558502 1.802934,2.558502 0.694088,1.173001 1.320461,2.388503 1.963759,3.587004 0.956489,1.810502 1.760613,3.714498 2.945643,5.406 0.88877,1.266502 2.090725,2.541503 3.377329,3.476504 h 1.328922 c -0.369051,-4.278906 1.286603,-9.333005 1.523608,-13.328008 0.05927,-1.326002 -0.05079,-2.686002 -0.270863,-4.003505 -0.448619,-2.703002 -2.4547,-5.899006 -0.499406,-8.381009 0.228541,-0.289 0.490941,-0.4845 0.82952,-0.7905 1.041132,-0.952001 2.023012,-2.159002 2.183837,-3.570004 0.04229,-0.323 0.03386,-0.595001 0.05921,-0.782001 0.279329,-0.2975 0.440155,-0.7565 0.389368,-1.156001 -0.02544,-0.1955 -0.101575,-0.374001 -0.253936,-0.518501 -0.143897,-0.136 -0.363973,-0.2295 -0.660231,-0.2465 0.0762,0.1955 0.06772,0.357 0.04232,0.501501 -0.03386,0.136 -0.09315,0.272 -0.203149,0.4165 -0.03386,0.051 -0.0762,0.09345 -0.126967,0.1445 0.01693,-0.102 0.01693,-0.1955 0,-0.289 -0.03386,-0.136 -0.101574,-0.2635 -0.194683,-0.382501 -0.09313,-0.1105 -0.203147,-0.221 -0.338579,-0.323 -0.457082,0.068 -0.922629,0.09348 -1.438961,0.085 -0.304722,0 -0.634838,-0.017 -0.99881,-0.051 C 34.608706,17.9853 32.611089,17.63 31.030764,17.63 c -0.88877,0 -1.769077,0.068 -2.649382,0.272 z"
         id="path7" />
      <path
         style="fill:#2a343e;stroke-width:0.848222;fill-opacity:1"
         d="m 38.404195,18.523349 c -2.793278,0.4165 -3.979142,0.3995 -6.450771,0.136 -2.556275,-0.2635 -4.672395,0.925654 -6.136752,2.703002 0.414761,0.3655 0.516335,1.0778 0.194683,1.7408 -0.363972,0.7735 -1.142704,1.199356 -1.760612,0.961356 -0.506175,1.497701 -0.948872,3.006445 -1.608252,4.446347 -1.295065,2.490501 -2.11612,3.00816 -2.894853,3.934661 2.674776,-0.04248 4.173832,0.942643 5.181105,1.639643 0.237005,0.17 0.463853,0.349356 0.68393,0.544858 1.388174,1.224002 2.261708,2.932505 3.065833,4.539006 l 0.219239,0.449643 c 1.041131,2.091003 2.675613,6.893501 5.138778,8.347003 -1.278137,-1.555501 -1.956132,-2.719145 -2.929548,-4.903643 -0.541726,-1.215502 -0.931093,-2.729359 -2.344663,-5.500362 -1.413567,-2.771002 -4.477711,-6.052006 -3.182645,-9.350008 0.143896,2.244001 1.150317,3.825859 2.293021,4.786359 -1.963759,-3.332001 -1.683578,-7.062662 -1.00642,-8.456663 0.516335,-1.071 1.193494,-1.9465 2.192302,-2.754 -0.567122,1.3855 -0.237006,1.996657 -0.237006,1.996657 0,0 0.313186,-1.564002 1.142706,-2.388503 0.821055,-0.816 1.397476,-1.003 1.812235,-1.572501 0.313186,-0.4335 1.734384,-0.884855 2.775515,-0.03491 -0.854914,1.402504 -1.718291,1.301344 -2.759421,1.037842 2.437771,1.258003 3.377327,-0.875502 3.377327,-0.875502 0,0 -0.14306,-0.254999 -0.430852,-0.492999 1.09192,0.17 2.776351,0.05191 3.665121,-0.934141 z m -5.477355,1.104154 c -0.2624,0.102001 -0.558657,0.459001 -0.482477,0.740346 0.06772,0.2635 0.423224,0.2805 0.711018,0.0765 -0.135432,-0.04247 -0.24547,-0.1547 -0.287794,-0.315347 -0.0423,-0.162352 -0.01693,-0.34 0.05917,-0.501501 z"
         id="path9" />
    </g>
  </g>
</svg>
