<?xml version="1.0" encoding="UTF-8" standalone="no"?>
<svg
   width="62"
   height="62"
   version="1"
   id="svg7"
   sodipodi:docname="amsynth.svg"
   inkscape:version="1.4 (e7c3feb100, 2024-10-09)"
   xmlns:inkscape="http://www.inkscape.org/namespaces/inkscape"
   xmlns:sodipodi="http://sodipodi.sourceforge.net/DTD/sodipodi-0.dtd"
   xmlns:xlink="http://www.w3.org/1999/xlink"
   xmlns="http://www.w3.org/2000/svg"
   xmlns:svg="http://www.w3.org/2000/svg">
  <defs
     id="defs7">
    <linearGradient
       id="linearGradient7"
       inkscape:collect="always">
      <stop
         style="stop-color:#ffa466;stop-opacity:1;"
         offset="0"
         id="stop7" />
      <stop
         style="stop-color:#d45e5e;stop-opacity:1;"
         offset="1"
         id="stop8" />
    </linearGradient>
    <linearGradient
       id="linearGradient1"
       inkscape:collect="always">
      <stop
         style="stop-color:#ffe6d5;stop-opacity:1"
         offset="0"
         id="stop5" />
      <stop
         style="stop-color:#d35f5f;stop-opacity:1;"
         offset="1"
         id="stop6" />
    </linearGradient>
    <linearGradient
       id="c-3"
       gradientUnits="userSpaceOnUse"
       x1="24.072048"
       x2="23.959682"
       y1="0.75082099"
       y2="46.056854">
      <stop
         offset="0"
         stop-color="#fff"
         id="stop3" />
      <stop
         offset="1"
         stop-color="#d9d9d9"
         id="stop4" />
    </linearGradient>
    <linearGradient
       id="b-6"
       gradientUnits="userSpaceOnUse"
       x1="29.203026"
       x2="34.121048"
       xlink:href="#a-7"
       y1="24.827356"
       y2="29.224836" />
    <linearGradient
       id="a-7">
      <stop
         offset="0"
         id="stop1" />
      <stop
         offset="1"
         stop-opacity="0"
         id="stop2" />
    </linearGradient>
    <linearGradient
       id="d"
       gradientUnits="userSpaceOnUse"
       x1="15.948756"
       x2="25.031786"
       xlink:href="#a-7"
       y1="23.618279"
       y2="33.69899" />
    <linearGradient
       id="e"
       gradientUnits="userSpaceOnUse"
       x1="21.990562"
       x2="29.320522"
       xlink:href="#a-7"
       y1="33.780373"
       y2="41.931858" />
    <linearGradient
       id="paint154_linear_890_11"
       x1="778"
       y1="812.29199"
       x2="788"
       y2="812.29199"
       gradientUnits="userSpaceOnUse"
       gradientTransform="translate(-751,-696)">
      <stop
         stop-color="#EFF2F6"
         id="stop1050" />
      <stop
         offset="0.600785"
         stop-color="#B7C6CD"
         id="stop1051" />
    </linearGradient>
    <linearGradient
       id="paint155_linear_890_11"
       x1="783"
       y1="813"
       x2="783"
       y2="817"
       gradientUnits="userSpaceOnUse"
       gradientTransform="translate(-751,-696)">
      <stop
         stop-color="#EFF2F6"
         id="stop1052" />
      <stop
         offset="0.734138"
         stop-color="#B7C6CD"
         id="stop1053" />
    </linearGradient>
    <radialGradient
       id="paint156_radial_890_11"
       cx="0"
       cy="0"
       r="1"
       gradientUnits="userSpaceOnUse"
       gradientTransform="matrix(27.999986,27.999976,-27.999986,27.999976,32.302392,33.999998)">
      <stop
         offset="0.60067803"
         stop-color="#B7C6CD"
         id="stop1054"
         style="stop-color:#384850;stop-opacity:1;" />
      <stop
         offset="0.876735"
         stop-color="#EFF2F6"
         id="stop1055" />
    </radialGradient>
    <linearGradient
       id="paint157_linear_890_11"
       x1="796.84485"
       y1="799.43359"
       x2="768.90088"
       y2="770.81476"
       gradientUnits="userSpaceOnUse"
       gradientTransform="matrix(1.1666666,0,0,1.1666668,-881.19764,-881.8333)">
      <stop
         offset="0.00000057"
         stop-color="#2E2E41"
         id="stop1056"
         style="stop-color:#424b58;stop-opacity:1;" />
      <stop
         offset="0.71113902"
         stop-color="#566C80"
         id="stop1057"
         style="stop-color:#303c47;stop-opacity:1;" />
    </linearGradient>
    <linearGradient
       id="paint158_linear_890_11"
       x1="792"
       y1="794"
       x2="774"
       y2="776"
       gradientUnits="userSpaceOnUse"
       gradientTransform="translate(-751,-696)">
      <stop
         offset="0.304478"
         stop-color="#2E2E41"
         id="stop1058" />
      <stop
         offset="1"
         stop-color="#566C80"
         id="stop1059" />
    </linearGradient>
    <linearGradient
       id="paint159_linear_890_11"
       x1="788"
       y1="790"
       x2="778"
       y2="780"
       gradientUnits="userSpaceOnUse"
       gradientTransform="translate(-751,-696)">
      <stop
         offset="0.391394"
         stop-color="#5200FF"
         id="stop1060" />
      <stop
         offset="1"
         stop-color="#0085FF"
         id="stop1061" />
    </linearGradient>
    <linearGradient
       id="paint160_linear_890_11"
       x1="784"
       y1="798"
       x2="782"
       y2="796"
       gradientUnits="userSpaceOnUse"
       gradientTransform="translate(-751,-696)">
      <stop
         stop-color="#FF7E07"
         id="stop1062" />
      <stop
         offset="1"
         stop-color="#FFE607"
         id="stop1063" />
    </linearGradient>
    <linearGradient
       id="c-3-6"
       gradientUnits="userSpaceOnUse"
       x1="24.072048"
       x2="23.959682"
       y1="0.75082099"
       y2="46.056854"
       gradientTransform="matrix(0.91471346,0,0,0.90068147,9.0468769,9.3836444)">
      <stop
         offset="0"
         stop-color="#fff"
         id="stop3-2" />
      <stop
         offset="1"
         stop-color="#d9d9d9"
         id="stop4-9" />
    </linearGradient>
    <linearGradient
       id="b-6-1"
       gradientUnits="userSpaceOnUse"
       x1="29.203026"
       x2="34.121048"
       xlink:href="#a-7"
       y1="24.827356"
       y2="29.224836"
       gradientTransform="matrix(1.1104534,0,0,1.0934187,4.3491158,4.7861435)" />
    <linearGradient
       id="d-0"
       gradientUnits="userSpaceOnUse"
       x1="15.948756"
       x2="25.031786"
       xlink:href="#a-7"
       y1="23.618279"
       y2="33.69899"
       gradientTransform="matrix(1.1104534,0,0,1.0934187,4.3491158,4.7861435)" />
    <linearGradient
       id="e-9"
       gradientUnits="userSpaceOnUse"
       x1="21.990562"
       x2="29.320522"
       xlink:href="#a-7"
       y1="33.780373"
       y2="41.931858"
       gradientTransform="matrix(1.1104534,0,0,1.0934187,4.3491158,4.7861435)" />
    <linearGradient
       id="paint539_linear_890_11"
       x1="1007"
       y1="317"
       x2="951.659"
       y2="269.565"
       gradientUnits="userSpaceOnUse"
       gradientTransform="translate(-952,-258)">
      <stop
         offset="0.223912"
         stop-color="#5200FF"
         id="stop1821"
         style="stop-color:#de8787;stop-opacity:1" />
      <stop
         offset="0.902995"
         stop-color="#0085FF"
         id="stop1822"
         style="stop-color:#d38d5f;stop-opacity:1" />
    </linearGradient>
    <linearGradient
       id="paint540_linear_890_11"
       x1="974.5"
       y1="274"
       x2="974.5"
       y2="280"
       gradientUnits="userSpaceOnUse"
       gradientTransform="translate(-952,-258)">
      <stop
         offset="0.189495"
         stop-color="#EFF2F6"
         id="stop1823" />
      <stop
         offset="0.850463"
         stop-color="#B7C6CD"
         id="stop1824" />
    </linearGradient>
    <linearGradient
       id="paint541_linear_890_11"
       x1="983"
       y1="282"
       x2="983"
       y2="288"
       gradientUnits="userSpaceOnUse"
       gradientTransform="translate(-952,-258)">
      <stop
         offset="0.189495"
         stop-color="#EFF2F6"
         id="stop1825" />
      <stop
         offset="0.850463"
         stop-color="#B7C6CD"
         id="stop1826" />
    </linearGradient>
    <linearGradient
       id="paint542_linear_890_11"
       x1="983"
       y1="290"
       x2="983"
       y2="296"
       gradientUnits="userSpaceOnUse"
       gradientTransform="translate(-952,-270.7)">
      <stop
         offset="0.189495"
         stop-color="#EFF2F6"
         id="stop1827" />
      <stop
         offset="0.850463"
         stop-color="#B7C6CD"
         id="stop1828" />
    </linearGradient>
    <linearGradient
       id="paint543_linear_890_11"
       x1="978.5"
       y1="298"
       x2="978.5"
       y2="304"
       gradientUnits="userSpaceOnUse"
       gradientTransform="translate(-948.5,-270.7)">
      <stop
         offset="0.189495"
         stop-color="#EFF2F6"
         id="stop1829" />
      <stop
         offset="0.850463"
         stop-color="#B7C6CD"
         id="stop1830" />
    </linearGradient>
    <linearGradient
       id="paint544_linear_890_11"
       x1="993"
       y1="261"
       x2="1007"
       y2="275"
       gradientUnits="userSpaceOnUse"
       gradientTransform="translate(-952,-258)">
      <stop
         stop-color="#EFF2F6"
         id="stop1831" />
      <stop
         offset="1"
         stop-color="#B7C6CD"
         id="stop1832" />
    </linearGradient>
    <linearGradient
       id="paint545_linear_890_11"
       x1="1000.58"
       y1="267.41699"
       x2="994.75"
       y2="273.25"
       gradientUnits="userSpaceOnUse"
       gradientTransform="translate(-952,-258)">
      <stop
         stop-color="#5200FF"
         id="stop1833"
         style="stop-color:#d35f5f;stop-opacity:1" />
      <stop
         offset="1"
         stop-color="#0085FF"
         id="stop1834"
         style="stop-color:#ff9955;stop-opacity:1" />
    </linearGradient>
    <linearGradient
       inkscape:collect="always"
       xlink:href="#linearGradient1"
       id="linearGradient6"
       x1="42.401054"
       y1="14.853983"
       x2="48"
       y2="10"
       gradientUnits="userSpaceOnUse" />
    <linearGradient
       inkscape:collect="always"
       xlink:href="#linearGradient7"
       id="linearGradient8"
       x1="10.481141"
       y1="6.7520518"
       x2="55"
       y2="59"
       gradientUnits="userSpaceOnUse" />
    <linearGradient
       inkscape:collect="always"
       xlink:href="#linearGradient2546"
       id="linearGradient2548"
       x1="9.5045633"
       y1="7.9633036"
       x2="9.5045633"
       y2="70.504845"
       gradientUnits="userSpaceOnUse"
       gradientTransform="matrix(1.3075112,0,0,1.3075112,11.581615,69.052965)" />
    <linearGradient
       inkscape:collect="always"
       id="linearGradient2546">
      <stop
         style="stop-color:#ffffff;stop-opacity:1;"
         offset="0"
         id="stop2542" />
      <stop
         style="stop-color:#ee4f22;stop-opacity:0.97647059"
         offset="1"
         id="stop2544" />
    </linearGradient>
  </defs>
  <sodipodi:namedview
     id="namedview7"
     pagecolor="#ffffff"
     bordercolor="#000000"
     borderopacity="0.25"
     inkscape:showpageshadow="2"
     inkscape:pageopacity="0.0"
     inkscape:pagecheckerboard="0"
     inkscape:deskcolor="#d1d1d1"
     inkscape:zoom="11.78125"
     inkscape:cx="34.164456"
     inkscape:cy="30.217507"
     inkscape:window-width="1920"
     inkscape:window-height="994"
     inkscape:window-x="0"
     inkscape:window-y="0"
     inkscape:window-maximized="1"
     inkscape:current-layer="svg7" />
  <path
     d="M 7,9 C 7,5.686 9.686,3 13,3 h 34 c 4.42,0 8,3.582 8,8 v 42 c 0,3.314 -2.69,6 -6,6 H 13 C 9.686,59 7,56.314 7,53 Z"
     id="path526"
     style="fill:url(#linearGradient8)" />
  <path
     d="m 41,3 h 8 c 3.31,0 6,2.686 6,6 v 8 h -6 c -4.418,0 -8,-3.582 -8,-8 z"
     id="path531"
     style="fill:url(#paint544_linear_890_11)" />
  <path
     d="M 41,11 V 3 l 14,14 h -8 c -3.314,0 -6,-2.686 -6,-6 z"
     id="path532"
     style="fill:url(#linearGradient6);fill-opacity:1" />
  <g
     id="g1"
     transform="matrix(1.384615,0,0,1.384615,-18.810258,-93.612524)">
    <path
       style="color:#000000;fill:#200000;fill-opacity:0.0559602;stroke-width:2.88859;stroke-linecap:round;stroke-linejoin:round;-inkscape-stroke:none"
       d="m 28.445561,80.183037 c -1.715288,-0.0017 -3.107066,1.387576 -3.108493,3.102844 V 101.886 c -0.0041,1.71754 1.390948,3.11036 3.108493,3.10849 1.715323,-0.001 3.104708,-1.39315 3.102835,-3.10849 V 87.420134 c 0,0 -0.251785,-1.557445 2.253808,-1.557445 2.505645,0 2.253766,1.557445 2.253766,1.557445 v 14.415096 c -0.0041,1.71527 1.387581,3.10706 3.102843,3.10848 h 4.705042 c 1.715343,-10e-4 3.104712,-1.39314 3.102838,-3.10848 -0.0012,-1.71314 -1.389684,-3.101595 -3.102838,-3.102841 H 42.267287 V 83.285881 c -0.0037,-1.715268 -1.393201,-3.104542 -3.108474,-3.102844 z"
       id="path3661"
       sodipodi:nodetypes="cccccczcccccccccc" />
    <path
       style="color:#000000;fill:#200000;fill-opacity:0.0559602;stroke-width:2.88859;stroke-linecap:round;stroke-linejoin:round;-inkscape-stroke:none"
       d="m 28.78485,80.518546 c -1.715275,-0.0017 -3.107094,1.387572 -3.108507,3.102842 v 18.600122 c -0.0042,1.71754 1.390952,3.11035 3.108507,3.10849 1.715306,-0.001 3.104691,-1.39315 3.102847,-3.10849 V 87.755637 c 0,0 -0.251826,-1.557442 2.253773,-1.557442 2.505673,0 2.253764,1.557442 2.253764,1.557442 v 14.415103 c -0.0041,1.71527 1.387586,3.10705 3.10285,3.10848 h 4.705051 c 1.715343,-10e-4 3.104728,-1.39314 3.102831,-3.10848 -0.0012,-1.71314 -1.389691,-3.1016 -3.102831,-3.102844 H 42.606588 V 83.621388 c -0.0037,-1.71527 -1.393228,-3.104544 -3.108504,-3.102842 z"
       id="path3897"
       sodipodi:nodetypes="cccccczcccccccccc" />
    <path
       style="color:#000000;fill:#200000;fill-opacity:0.0559602;stroke-width:2.88859;stroke-linecap:round;stroke-linejoin:round;-inkscape-stroke:none"
       d="m 29.20233,81.07539 c -1.715256,-0.0017 -3.107065,1.387578 -3.108499,3.102844 v 18.600136 c -0.0042,1.71753 1.39094,3.11036 3.108499,3.10848 1.715346,-10e-4 3.10472,-1.39315 3.102857,-3.10848 V 88.312487 c 0,0 -0.25186,-1.557444 2.253792,-1.557444 2.505666,0 2.253783,1.557444 2.253783,1.557444 v 14.415103 c -0.0042,1.71526 1.387571,3.10706 3.102865,3.10848 h 4.705027 c 1.715341,-0.001 3.104703,-1.39315 3.102832,-3.10848 -0.0013,-1.71314 -1.389702,-3.101601 -3.102832,-3.102846 h -1.596568 v -15.44651 c -0.003,-1.715266 -1.393205,-3.104541 -3.108459,-3.102844 z"
       id="path3899"
       sodipodi:nodetypes="cccccczcccccccccc" />
    <path
       style="color:#000000;fill:url(#linearGradient2548);fill-opacity:1;stroke-width:2.88859;stroke-linecap:round;stroke-linejoin:round;-inkscape-stroke:none"
       d="m 28.068805,79.886847 c -1.715272,-0.0017 -3.107059,1.387574 -3.108481,3.102842 v 18.600121 c -0.0042,1.71755 1.390936,3.11036 3.108481,3.10849 1.715346,-0.001 3.104709,-1.39314 3.102843,-3.10849 V 87.123941 c 0,0 -0.251826,-1.557443 2.253797,-1.557443 2.505663,0 2.253785,1.557443 2.253785,1.557443 v 14.415099 c -0.0042,1.71527 1.387578,3.10707 3.102839,3.10848 h 4.705039 c 1.715339,-0.001 3.104716,-1.39314 3.10286,-3.10848 -0.0013,-1.713136 -1.389728,-3.101597 -3.10286,-3.102842 H 41.890554 V 82.989689 c -0.0037,-1.715268 -1.393211,-3.104543 -3.108485,-3.102842 z"
       id="path1074"
       sodipodi:nodetypes="cccccczcccccccccc" />
  </g>
</svg>
