<?xml version="1.0" encoding="UTF-8" standalone="no"?>
<svg
   width="62"
   height="62"
   version="1.1"
   id="svg49"
   sodipodi:docname="android-sdk.svg"
   inkscape:version="1.4 (e7c3feb100, 2024-10-09)"
   xmlns:inkscape="http://www.inkscape.org/namespaces/inkscape"
   xmlns:sodipodi="http://sodipodi.sourceforge.net/DTD/sodipodi-0.dtd"
   xmlns:xlink="http://www.w3.org/1999/xlink"
   xmlns="http://www.w3.org/2000/svg"
   xmlns:svg="http://www.w3.org/2000/svg"
   xmlns:rdf="http://www.w3.org/1999/02/22-rdf-syntax-ns#"
   xmlns:cc="http://creativecommons.org/ns#"
   xmlns:dc="http://purl.org/dc/elements/1.1/">
  <sodipodi:namedview
     id="namedview51"
     pagecolor="#ffffff"
     bordercolor="#666666"
     borderopacity="1.0"
     inkscape:showpageshadow="2"
     inkscape:pageopacity="0.0"
     inkscape:pagecheckerboard="0"
     inkscape:deskcolor="#d1d1d1"
     showgrid="false"
     inkscape:zoom="7.375"
     inkscape:cx="9.559322"
     inkscape:cy="31.186441"
     inkscape:window-width="1920"
     inkscape:window-height="994"
     inkscape:window-x="0"
     inkscape:window-y="0"
     inkscape:window-maximized="1"
     inkscape:current-layer="svg49" />
  <metadata
     id="metadata2">
    <rdf:RDF>
      <cc:Work
         rdf:about="">
        <dc:format>image/svg+xml</dc:format>
        <dc:type
           rdf:resource="http://purl.org/dc/dcmitype/StillImage" />
      </cc:Work>
    </rdf:RDF>
  </metadata>
  <defs
     id="defs19">
    <linearGradient
       id="linearGradient1"
       inkscape:collect="always">
      <stop
         style="stop-color:#37c8ab;stop-opacity:1;"
         offset="0"
         id="stop1" />
      <stop
         style="stop-color:#268c78;stop-opacity:1;"
         offset="1"
         id="stop2" />
    </linearGradient>
    <linearGradient
       id="b"
       x1="24"
       x2="24"
       y1="26"
       y2="44"
       gradientTransform="matrix(1.5,0,0,1.5,-4,-4)"
       gradientUnits="userSpaceOnUse">
      <stop
         stop-color="#009632"
         offset="0"
         id="stop4"
         style="stop-color:#008080;stop-opacity:1" />
      <stop
         stop-color="#00783c"
         offset="1"
         id="stop6"
         style="stop-color:#00d455;stop-opacity:1" />
    </linearGradient>
    <filter
       id="c"
       x="-0.054049861"
       y="-0.067422114"
       width="1.1080997"
       height="1.1348442"
       color-interpolation-filters="sRGB">
      <feGaussianBlur
         stdDeviation="1.0109576"
         id="feGaussianBlur9" />
    </filter>
    <linearGradient
       id="linearGradient1005-6"
       x1="0.73910999"
       x2="16.388"
       y1="16.296"
       y2="0.64687002"
       gradientTransform="matrix(3.6006065,0,0,3.5846499,1.4691576,1.6258415)"
       gradientUnits="userSpaceOnUse">
      <stop
         stop-color="#cfdef0"
         offset="0"
         id="stop12"
         style="stop-color:#ffff00;stop-opacity:1" />
      <stop
         stop-color="#f5faff"
         offset="0.53725457"
         id="stop14"
         style="stop-color:#aed7ff;stop-opacity:1;" />
      <stop
         stop-color="#f5faff"
         offset="1"
         id="stop16"
         style="stop-color:#ffb380;stop-opacity:1" />
    </linearGradient>
    <linearGradient
       id="e-3"
       x1="24.705"
       x2="25.061001"
       y1="43.938999"
       y2="4.4050002"
       gradientTransform="translate(8.5029,9.2229)"
       gradientUnits="userSpaceOnUse">
      <stop
         stop-color="#14cd46"
         offset="0"
         id="stop9-6" />
      <stop
         stop-color="#5adc19"
         offset="1"
         id="stop11-5" />
    </linearGradient>
    <linearGradient
       id="d-6"
       x1="31"
       x2="31"
       y1="34"
       y2="24"
       gradientTransform="translate(8.5029,9.2229)"
       gradientUnits="userSpaceOnUse">
      <stop
         stop-color="#323232"
         offset="0"
         id="stop14-3" />
      <stop
         stop-color="#3c503c"
         offset="1"
         id="stop16-9" />
    </linearGradient>
    <linearGradient
       id="c-4"
       x1="18"
       x2="18"
       y1="34"
       y2="24"
       gradientTransform="translate(8.5029,9.2229)"
       gradientUnits="userSpaceOnUse">
      <stop
         stop-color="#323232"
         offset="0"
         id="stop19-8" />
      <stop
         stop-color="#3c503c"
         offset="1"
         id="stop21-1" />
    </linearGradient>
    <linearGradient
       inkscape:collect="always"
       xlink:href="#linearGradient1"
       id="linearGradient2"
       x1="28.288136"
       y1="3.1694913"
       x2="28.14706"
       y2="59.019009"
       gradientUnits="userSpaceOnUse" />
  </defs>
  <g
     transform="matrix(3.7796,0,0,3.7796,-82.522,3.3896)"
     image-rendering="optimizeSpeed"
     stroke-width="0.26458"
     id="g29">
    <circle
       cx="-330.35001"
       cy="-328.38"
       r="0"
       id="circle21" />
    <circle
       cx="-312.10999"
       cy="-326.25"
       r="0"
       id="circle23" />
    <circle
       cx="-306.01999"
       cy="-333.07001"
       r="0"
       id="circle25" />
    <circle
       cx="-308.84"
       cy="-326.01001"
       r="0"
       id="circle27" />
  </g>
  <g
     id="g1"
     transform="translate(-0.06779775,-0.1694912)">
    <path
       d="m 59.067798,31.169398 c 0,3.356629 -0.590827,6.57485 -1.674292,9.557296 -0.753152,2.073116 -1.743919,4.033013 -2.941752,5.846009 -0.501703,0.762245 -1.041117,1.498369 -1.613716,2.205836 -1.833143,2.26388 -4.011525,4.235451 -6.457115,5.835647 -0.900576,0.589726 -1.8366,1.129142 -2.805673,1.612516 -3.763171,1.88336 -8.011481,2.942789 -12.507496,2.942789 -4.495824,0 -8.744141,-1.059429 -12.507496,-2.942888 -0.969168,-0.483481 -1.906319,-1.022836 -2.80688,-1.612513 -2.476585,-1.621751 -4.681096,-3.624211 -6.5290835,-5.925623 -0.573662,-0.713132 -1.112058,-1.455995 -1.613721,-2.225152 -1.165725,-1.782839 -2.13134,-3.706339 -2.869608,-5.739419 -1.0833053,-2.98171 -1.673168,-6.198894 -1.673168,-9.554498 0,-15.464346 12.5354975,-27.9999066 27.9997645,-27.9999066 7.762381,0 14.78575,3.158856 19.858372,8.2604406 1.461681,1.469614 2.761249,3.10183 3.867141,4.86619 1.045792,1.661805 1.919944,3.442309 2.599964,5.315317 1.083692,2.982837 1.674383,6.201156 1.674383,9.557311 z"
       image-rendering="optimizeSpeed"
       stroke-width="0.109377"
       id="path31"
       style="fill:url(#linearGradient2);fill-opacity:1" />
    <path
       d="m 24.322038,11.170664 a 1.1717692,1.1717692 0 0 0 -0.817653,2.010602 l 2.082357,2.082358 a 10.576512,10.576512 0 0 0 -4.514137,6.494136 h 20.623618 a 10.580041,10.580041 0 0 0 -5.248266,-6.936484 l 1.642357,-1.64001 a 1.1717692,1.1717692 0 0 0 -0.817653,-2.011775 1.1717692,1.1717692 0 0 0 -0.838827,0.354123 l -2.350581,2.35058 a 10.541217,10.541217 0 0 0 -6.291787,0.28 l -2.630602,-2.63058 a 1.1717692,1.1717692 0 0 0 -0.838826,-0.35295 z m 3.534133,5.88239 a 1.1764752,1.1764752 0 0 1 1.176478,1.176466 1.1764752,1.1764752 0 0 1 -1.176478,1.176462 1.1764752,1.1764752 0 0 1 -1.17648,-1.176462 1.1764752,1.1764752 0 0 1 1.17648,-1.176466 z m 7.058838,0 a 1.1764752,1.1764752 0 0 1 1.17648,1.176466 1.1764752,1.1764752 0 0 1 -1.17648,1.176462 1.1764752,1.1764752 0 0 1 -1.17648,-1.176462 1.1764752,1.1764752 0 0 1 1.17648,-1.176466 z m -18.823587,7.058837 c -1.303528,0 -2.352957,1.049429 -2.352957,2.35296 v 8.235317 c 0,1.303539 1.049429,2.35295 2.352957,2.35295 1.303523,0 2.352952,-1.049411 2.352952,-2.35295 v -8.235317 c 0,-1.303531 -1.049429,-2.35296 -2.352952,-2.35296 z m 4.70588,0 v 16.470664 c 0,1.955299 1.574133,3.529419 3.529432,3.529419 h 1.176477 v 4.705893 c 0,1.303528 1.04943,2.352957 2.35296,2.352957 1.303523,0 2.35295,-1.049429 2.35295,-2.352957 v -4.705893 h 2.352946 v 4.705893 c 0,1.303528 1.049411,2.352957 2.352942,2.352957 1.303552,0 2.352952,-1.049429 2.352952,-2.352957 v -4.705893 h 1.176477 c 1.955307,0 3.529437,-1.57412 3.529437,-3.529419 V 24.111891 Z m 25.882457,0 c -1.303533,0 -2.352933,1.049429 -2.352933,2.35296 v 8.235317 c 0,1.303539 1.0494,2.35295 2.352933,2.35295 1.303551,0 2.352955,-1.049411 2.352955,-2.35295 v -8.235317 c 0,-1.303531 -1.049404,-2.35296 -2.352955,-2.35296 z"
       fill="#d7f1f1"
       id="path1"
       style="stroke-width:1.17648" />
    <path
       d="m 25.666667,32.638418 5.333333,8 5.333334,-8 z"
       id="path8"
       style="fill:#37c8ab;fill-opacity:1;stroke-width:1.77784" />
    <path
       d="m 28.333334,27.305084 h 5.333332 v 5.333334 h -5.333332 z"
       id="path11"
       style="fill:#37c8ab;fill-opacity:1;stroke-width:1.77784" />
  </g>
</svg>
