<?xml version="1.0" encoding="UTF-8" standalone="no"?>
<svg
   clip-rule="evenodd"
   fill-rule="evenodd"
   stroke-linejoin="round"
   stroke-miterlimit="2"
   viewBox="0 0 62 62"
   version="1.1"
   id="svg3"
   sodipodi:docname="android-file-transfer.svg"
   width="62"
   height="62"
   inkscape:version="1.4 (e7c3feb100, 2024-10-09)"
   xmlns:inkscape="http://www.inkscape.org/namespaces/inkscape"
   xmlns:sodipodi="http://sodipodi.sourceforge.net/DTD/sodipodi-0.dtd"
   xmlns:xlink="http://www.w3.org/1999/xlink"
   xmlns="http://www.w3.org/2000/svg"
   xmlns:svg="http://www.w3.org/2000/svg">
  <defs
     id="defs3">
    <linearGradient
       id="linearGradient3"
       inkscape:collect="always">
      <stop
         style="stop-color:#475ad0;stop-opacity:1;"
         offset="0"
         id="stop3" />
      <stop
         style="stop-color:#24348e;stop-opacity:1;"
         offset="1"
         id="stop4" />
    </linearGradient>
    <filter
       id="b-3-36"
       width="1.2393739"
       height="1.1966286"
       x="-0.11968695"
       y="-0.098314282"
       color-interpolation-filters="sRGB">
      <feGaussianBlur
         stdDeviation="1.147"
         id="feGaussianBlur7-6" />
    </filter>
    <filter
       id="b-3-36-6"
       width="1.2393739"
       height="1.1966286"
       x="-0.11968695"
       y="-0.098314282"
       color-interpolation-filters="sRGB">
      <feGaussianBlur
         stdDeviation="1.147"
         id="feGaussianBlur7-6-7" />
    </filter>
    <linearGradient
       inkscape:collect="always"
       xlink:href="#linearGradient3"
       id="linearGradient4"
       x1="31.996025"
       y1="5.0983038"
       x2="32.182014"
       y2="58.017544"
       gradientUnits="userSpaceOnUse" />
  </defs>
  <sodipodi:namedview
     id="namedview3"
     pagecolor="#ffffff"
     bordercolor="#000000"
     borderopacity="0.25"
     inkscape:showpageshadow="2"
     inkscape:pageopacity="0.0"
     inkscape:pagecheckerboard="0"
     inkscape:deskcolor="#d1d1d1"
     inkscape:zoom="11.019081"
     inkscape:cx="23.913065"
     inkscape:cy="28.677528"
     inkscape:window-width="1920"
     inkscape:window-height="994"
     inkscape:window-x="0"
     inkscape:window-y="0"
     inkscape:window-maximized="1"
     inkscape:current-layer="svg3" />
  <linearGradient
     id="a"
     x2="1"
     gradientTransform="matrix(0,-43.53155,43.53155,0,1192.407,51.589413)"
     gradientUnits="userSpaceOnUse">
    <stop
       stop-color="#161616"
       offset="0"
       id="stop1" />
    <stop
       stop-color="#343434"
       offset="1"
       id="stop2" />
  </linearGradient>
  <g
     id="g3"
     transform="translate(3.487626,-1.843205)" />
  <rect
     style="opacity:0.2;stroke-width:0.9823"
     width="55"
     height="55.017544"
     x="3.5"
     y="3.9824562"
     rx="8.25"
     ry="8.2526312"
     id="rect1-3" />
  <rect
     style="fill:url(#linearGradient4);stroke-width:0.9823"
     width="55"
     height="55.017544"
     x="3.5"
     y="3"
     rx="8.25"
     ry="8.2526312"
     id="rect2-5" />
  <path
     style="opacity:0.1;fill:#ffffff;stroke-width:0.9823"
     d="M 11.748466,3 C 7.1779651,3 3.4999999,6.6791384 3.4999999,11.251097 v 0.982456 c 0,-4.5719585 3.6779652,-8.2510968 8.2484661,-8.2510968 h 38.503068 c 4.5705,0 8.248466,3.6791383 8.248466,8.2510968 V 11.251097 C 58.5,6.6791384 54.822034,3 50.251534,3 Z"
     id="path4-6" />
  <g
     id="g1"
     transform="matrix(1.0449934,0,0,1.0453591,6.2750336,-59.084418)">
    <path
       style="opacity:0.2;stroke-width:0.982303"
       d="m 14.839992,68.982456 c -2.646924,-0.03755 -2.646924,3.967404 0,3.929827 h 7.837961 c 2.646924,-0.03755 2.646924,3.967403 0,3.929823 h -1.945105 c -2.646924,-0.03756 -2.646924,3.967402 0,3.929824 h 1.945105 c 2.646924,-0.03756 2.646924,3.967407 0,3.929827 h -9.802247 c -2.646922,-0.03756 -2.646922,3.967399 0,3.92982 h 9.802247 c 2.646924,-0.03756 2.646924,3.967408 0,3.929828 h -5.873675 c -2.646924,-0.03754 -2.646924,3.967402 0,3.929823 h 5.873675 c 2.646924,-0.03754 2.646924,3.967402 0,3.929822 h -3.928574 c -2.646923,-0.0375 -2.646923,3.96741 0,3.92983 h 3.928574 7.81494 8.881486 c 1.632322,0 2.94643,-1.31453 2.94643,-2.94737 V 80.77193 L 30.535096,68.982456 h -3.947757 -3.909386 z m -7.857143,7.85965 c -2.643799,-0.03756 -2.643799,3.967402 0,3.929824 h 7.818777 c 2.643796,0.03756 2.643796,-3.967401 0,-3.929824 z m 1.945102,15.719299 c -1.084846,0 -1.964287,0.879721 -1.964287,1.964912 0,1.085189 0.879441,1.964911 1.964287,1.964911 1.084844,0 1.964287,-0.879721 1.964287,-1.964911 0,-1.08519 -0.879443,-1.964912 -1.964287,-1.964912 z m 0.01531,7.859645 c -2.637565,-0.0375 -2.637565,3.96741 0,3.92983 h 3.897883 c 2.637566,0.0375 2.637566,-3.96741 0,-3.92983 z"
       id="path2" />
    <path
       style="fill:#ffffff;stroke-width:0.982303"
       d="m 14.839992,68.000262 c -2.646924,-0.03755 -2.646924,3.967405 0,3.929828 h 7.837961 c 2.646924,-0.03755 2.646924,3.967402 0,3.929824 h -1.945105 c -2.646924,-0.03756 -2.646924,3.967403 0,3.929824 h 1.945105 c 2.646924,-0.03756 2.646924,3.967406 0,3.929827 h -9.802247 c -2.646922,-0.03756 -2.646922,3.9674 0,3.92982 h 9.802247 c 2.646924,-0.03756 2.646924,3.967407 0,3.929828 h -5.873675 c -2.646924,-0.03754 -2.646924,3.967402 0,3.929822 h 5.873675 c 2.646924,-0.03754 2.646924,3.967405 0,3.929827 h -3.928574 c -2.646923,-0.03754 -2.646923,3.967408 0,3.929828 h 3.928574 7.81494 8.881486 c 1.632322,0 2.94643,-1.31453 2.94643,-2.94737 V 79.789738 L 30.535096,68.000262 h -3.947757 -3.909386 z m -7.857143,7.859652 c -2.643799,-0.03756 -2.643799,3.967403 0,3.929824 h 7.818777 c 2.643796,0.03756 2.643796,-3.967402 0,-3.929824 z m 1.945102,15.719298 c -1.084846,0 -1.964287,0.879722 -1.964287,1.964912 0,1.08519 0.879441,1.96491 1.964287,1.96491 1.084844,0 1.964287,-0.87972 1.964287,-1.96491 0,-1.085191 -0.879443,-1.964912 -1.964287,-1.964912 z m 0.01531,7.859649 c -2.637565,-0.03754 -2.637565,3.967399 0,3.929829 h 3.897883 c 2.637566,0.0375 2.637566,-3.967409 0,-3.929828 z"
       id="path3" />
    <path
       style="fill:#979797;stroke-width:0.982303"
       d="m 30.535096,68.000262 v 9.169592 c 0,1.451417 1.168093,2.619882 2.619044,2.619882 h 9.166669 z"
       id="path4" />
    <path
       style="fill:#595959;fill-opacity:1;stroke-width:0.982303"
       d="m 27.588668,94.526579 v 4.421054 l 1.688056,-1.688599 3.161273,3.162276 h 1.043526 v -1.043855 l -3.161274,-3.162281 1.688059,-1.688595 z m 5.892855,0 v 1.04386 l 3.161273,3.162281 -1.688058,1.68859 h 4.419641 v -4.421045 l -1.688057,1.688597 -3.16511,-3.162282 z"
       id="path5" />
  </g>
</svg>
