<?xml version="1.0" encoding="UTF-8" standalone="no"?>
<svg
   width="62"
   height="62"
   version="1.1"
   viewBox="0 0 62 62"
   id="svg6"
   sodipodi:docname="android-studio.svg"
   inkscape:version="1.4 (e7c3feb100, 2024-10-09)"
   xmlns:inkscape="http://www.inkscape.org/namespaces/inkscape"
   xmlns:sodipodi="http://sodipodi.sourceforge.net/DTD/sodipodi-0.dtd"
   xmlns="http://www.w3.org/2000/svg"
   xmlns:svg="http://www.w3.org/2000/svg">
  <defs
     id="defs6" />
  <sodipodi:namedview
     id="namedview6"
     pagecolor="#ffffff"
     bordercolor="#000000"
     borderopacity="0.25"
     inkscape:showpageshadow="2"
     inkscape:pageopacity="0.0"
     inkscape:pagecheckerboard="0"
     inkscape:deskcolor="#d1d1d1"
     inkscape:zoom="11.78125"
     inkscape:cx="31.95756"
     inkscape:cy="32"
     inkscape:window-width="1920"
     inkscape:window-height="994"
     inkscape:window-x="0"
     inkscape:window-y="0"
     inkscape:window-maximized="1"
     inkscape:current-layer="svg6" />
  <g
     transform="matrix(1.4978868,0,0,1.4766365,-4.9507803,-1489.0038)"
     stroke-width="0.69231"
     id="g6">
    <circle
       cx="24.000999"
       cy="1029.1"
       r="18.693001"
       stroke-width="0.69231"
       id="circle1"
       style="fill:#55a83d;fill-opacity:1" />
    <circle
       cx="24.000999"
       cy="1029.1"
       r="15.231"
       opacity="0.15"
       id="circle2"
       style="fill:#000000;fill-opacity:1" />
    <path
       d="m 23.298,1021.6 -2.5981,1.5 13.5,23.383 2.799,1.848 -0.20091,-3.348 z"
       id="path2"
       style="fill:#ececec;fill-opacity:1" />
    <path
       d="m 35,1026.4 c 0,4.0083 -1.1911,4.9591 -2.6407,6.6529 -0.74918,0.8632 -1.6287,1.5961 -2.6384,2.1498 -1.3681,0.7655 -3.448,1.189 -5.1256,1.189 -1.6775,0 -3.2573,-0.4398 -4.6091,-1.189 -0.98621,-0.7944 -2.9862,2.2056 -1.6612,2.5989 1.8567,1.0424 4.0065,1.6067 6.2866,1.6067 2.2801,0 4.9301,-0.5643 6.7868,-1.6067 0.99349,-0.5537 1.9055,-1.2377 2.7036,-2.0195 2.4104,-2.3453 3.9251,-5.7336 3.9251,-9.3655 -1.0284,-0.01 -2.1151,0 -3.0271,-0.01 z"
       stroke-width="0.69231"
       id="path3"
       style="fill:#cccccc;fill-opacity:1" />
    <path
       d="m 24.701,1021.6 2.5981,1.5 -13.5,23.383 -2.799,1.848 0.20091,-3.348 z"
       id="path4"
       style="fill:#cccccc;fill-opacity:1" />
    <path
       d="m 27.114,1021.4 h -1.1138 v -3.0002 h -4 v 3.0002 h -1.1301 c -1.0244,0 -1.8699,0.8465 -1.8699,1.8592 v 4.8955 h 0.01627 c -0.01627,0.1608 0.08127,0.3377 0.29268,0.5466 l 3.7561,3.3129 c 0.26016,0.2572 0.60163,0.3858 0.92683,0.3858 v -0.016 l 0.01627,0.016 c 0.34146,0 0.68292,-0.1286 0.92683,-0.3858 l 3.7561,-3.3129 c 0.21138,-0.2089 0.29268,-0.4019 0.29268,-0.5466 h 0.01627 v -4.8794 c -0.01627,-1.0287 -0.84553,-1.8753 -1.8862,-1.8753 z"
       stroke-width="0.69231"
       id="path5"
       style="fill:#363c3e;fill-opacity:1" />
    <path
       d="m 24.007,1027.4 h -0.01304 c -1.0945,0 -1.9935,-0.8902 -1.9935,-1.9867 0,-1.0966 0.89902,-1.9868 1.9935,-1.9868 v -0.026 l 0.01304,0.026 c 1.0945,0.013 1.9935,0.8902 1.9935,1.9868 0,1.0965 -0.89902,1.9738 -1.9935,1.9867 z"
       stroke-width="0.69231"
       id="path6"
       style="fill:#ffffff;fill-opacity:1" />
  </g>
</svg>
