<?xml version="1.0" encoding="UTF-8" standalone="no"?>
<svg
   width="62"
   height="62"
   version="1.1"
   id="svg5"
   sodipodi:docname="another-redis-desktop-manager.svg"
   inkscape:version="1.4 (unknown)"
   xmlns:inkscape="http://www.inkscape.org/namespaces/inkscape"
   xmlns:sodipodi="http://sodipodi.sourceforge.net/DTD/sodipodi-0.dtd"
   xmlns:xlink="http://www.w3.org/1999/xlink"
   xmlns="http://www.w3.org/2000/svg"
   xmlns:svg="http://www.w3.org/2000/svg">
  <defs
     id="defs5">
    <linearGradient
       id="linearGradient8"
       inkscape:collect="always">
      <stop
         style="stop-color:#2d3d53;stop-opacity:1;"
         offset="0"
         id="stop8" />
      <stop
         style="stop-color:#354864;stop-opacity:1;"
         offset="1"
         id="stop10" />
    </linearGradient>
    <linearGradient
       id="linearGradient4217">
      <stop
         style="stop-color:#000000;stop-opacity:1;"
         offset="0"
         id="stop2" />
      <stop
         style="stop-color:#000000;stop-opacity:0;"
         offset="1"
         id="stop4" />
    </linearGradient>
    <linearGradient
       id="linearGradient4161">
      <stop
         style="stop-color:#334545;stop-opacity:1;"
         offset="0"
         id="stop7" />
      <stop
         style="stop-color:#4d6868;stop-opacity:1"
         offset="1"
         id="stop9" />
    </linearGradient>
    <linearGradient
       id="a-1-2"
       y1="510.79999"
       y2="527.14001"
       gradientUnits="userSpaceOnUse"
       x2="0">
      <stop
         stop-color="#7cbaf8"
         id="stop2-2-7" />
      <stop
         offset="1"
         stop-color="#f4fcff"
         id="stop4-70-0" />
    </linearGradient>
    <linearGradient
       id="c"
       y1="503.79999"
       x1="400.57001"
       y2="519.79999"
       x2="416.57001"
       gradientUnits="userSpaceOnUse">
      <stop
         stop-color="#292c2f"
         id="stop12" />
      <stop
         offset="1"
         stop-opacity="0"
         id="stop14" />
    </linearGradient>
    <linearGradient
       id="b"
       y1="542.79999"
       x1="408.57001"
       y2="521.79999"
       x2="387.57001"
       gradientUnits="userSpaceOnUse"
       gradientTransform="translate(-384.57,-499.8)">
      <stop
         stop-color="#197cf1"
         id="stop7-8" />
      <stop
         offset="1"
         stop-color="#20bcfa"
         id="stop9-7" />
    </linearGradient>
    <linearGradient
       xlink:href="#linearGradient1389"
       id="linearGradient4503-5-6"
       y1="37"
       y2="4"
       x2="0"
       gradientUnits="userSpaceOnUse"
       gradientTransform="matrix(1.0218446,0,0,0.99999999,21.748946,8.2587777)" />
    <linearGradient
       id="linearGradient1389">
      <stop
         style="stop-color:#ffaaaa;stop-opacity:1"
         id="stop1385"
         offset="0" />
      <stop
         offset="1"
         style="stop-color:#ff5555;stop-opacity:1"
         id="stop1387" />
    </linearGradient>
    <linearGradient
       id="paint543_linear_890_11"
       x1="978.5"
       y1="298"
       x2="978.5"
       y2="304"
       gradientUnits="userSpaceOnUse"
       gradientTransform="matrix(0.75000004,0,0,0.75000004,-717.38333,-173.49123)">
      <stop
         offset="0.189495"
         stop-color="#EFF2F6"
         id="stop1829" />
      <stop
         offset="0.850463"
         stop-color="#B7C6CD"
         id="stop1830" />
    </linearGradient>
    <linearGradient
       inkscape:collect="always"
       xlink:href="#linearGradient8"
       id="linearGradient10"
       x1="31.5"
       y1="59.017544"
       x2="31.5"
       y2="4.9824562"
       gradientUnits="userSpaceOnUse"
       gradientTransform="translate(-0.5,-1)" />
    <linearGradient
       id="linearGradient4144">
      <stop
         style="stop-color:#c83771;stop-opacity:1"
         offset="0"
         id="stop1141" />
      <stop
         style="stop-color:#de87aa;stop-opacity:1"
         offset="1"
         id="stop1143" />
    </linearGradient>
    <linearGradient
       id="c-0"
       gradientUnits="userSpaceOnUse"
       x1="10"
       x2="24"
       y1="10"
       y2="24"
       gradientTransform="translate(59.728813,26.237288)">
      <stop
         offset="0"
         stop-color="#292c2f"
         id="stop12-2" />
      <stop
         offset="1"
         stop-opacity="0"
         id="stop14-3" />
    </linearGradient>
    <linearGradient
       id="d"
       gradientUnits="userSpaceOnUse"
       x1="24"
       x2="24"
       y1="25"
       y2="7"
       gradientTransform="translate(59.728813,26.237288)">
      <stop
         offset="0"
         stop-color="#bb9d71"
         id="stop2-7" />
      <stop
         offset="1"
         stop-color="#f9f2e7"
         id="stop4-5" />
    </linearGradient>
  </defs>
  <sodipodi:namedview
     id="namedview5"
     pagecolor="#ffffff"
     bordercolor="#000000"
     borderopacity="0.25"
     inkscape:showpageshadow="2"
     inkscape:pageopacity="0.0"
     inkscape:pagecheckerboard="0"
     inkscape:deskcolor="#d1d1d1"
     inkscape:zoom="8.2643105"
     inkscape:cx="25.228965"
     inkscape:cy="47.372373"
     inkscape:window-width="1920"
     inkscape:window-height="998"
     inkscape:window-x="0"
     inkscape:window-y="0"
     inkscape:window-maximized="1"
     inkscape:current-layer="svg5" />
  <rect
     style="opacity:0.2;stroke-width:0.9823"
     width="55"
     height="55.017544"
     x="3.5"
     y="3.9824562"
     rx="8.25"
     ry="8.2526312"
     id="rect1" />
  <rect
     style="fill:url(#linearGradient10);stroke-width:0.9823"
     width="55"
     height="55.017544"
     x="3.5"
     y="3"
     rx="8.25"
     ry="8.2526312"
     id="rect2" />
  <path
     style="opacity:0.1;fill:#ffffff;stroke-width:0.9823"
     d="M 11.748466,3 C 7.1779652,3 3.5,6.6791384 3.5,11.251097 v 0.982456 c 0,-4.5719585 3.6779652,-8.2510969 8.248466,-8.2510969 h 38.503068 c 4.5705,0 8.248466,3.6791384 8.248466,8.2510969 V 11.251097 C 58.5,6.6791384 54.822034,3 50.251534,3 Z"
     id="path4" />
  <g
     fill="#ffffff"
     id="g3"
     transform="matrix(1.3118949,0,0,1.3032204,2.4435549,-1.4955293)"
     style="fill:#c83771">
    <path
       transform="matrix(1.11613,0,0,1.11613,-2.7871,-2.7871)"
       d="m 27.16,13 c -1.498,0.085 -2.613,1.188 -3.916,1.789 -1.113,0.635 -2.226,1.272 -3.351,1.887 -1.347,-0.936 -2.554,-2.081 -3.998,-2.869 -0.571,-0.159 -1.163,-0.439 -1.745,-0.168 -1.387,0.18 -2.223,1.514 -2.15,2.838 -0.025,2.037 -0.024,4.075 0,6.113 -1.253,1.342 -2.558,2.641 -3.66,4.103 -0.792,1.414 -0.153,3.397 1.394,3.996 1.154,0.604 2.336,1.15 3.508,1.717 0.611,2.351 1.087,4.739 1.77,7.069 0.73,1.647 3.188,2.058 4.431,0.746 1.614,-1.739 3.493,-5.387 3.493,-5.387 0,0 5.404,1.014 7.568,0.949 1.293,-0.086 2.375,-1.109 2.471,-2.392 0.242,-1.753 -1.285,-2.993 -2.125,-4.352 -1.043,-1.508 -2.177,-2.953 -3.194,-4.478 0.769,-2.899 1.783,-5.739 2.375,-8.68 0.018,-1.324 -0.893,-2.674 -2.299,-2.809 C 27.543,13.04 27.353,13.005 27.16,13 Z m -0.34,3.27 c -0.558,2.379 -1.344,4.813 -2.062,7.521 l -0.348,1.309 0.75,1.125 c 1.102,1.653 2.247,3.112 3.221,4.521 l -0.082,-0.129 c 0.633,1.024 1.235,1.675 1.508,2.092 0.013,0.021 -0.003,-0.005 0.009,0.014 -0.782,-0.037 -2.126,-0.154 -3.459,-0.356 -1.563,-0.236 -2.869,-0.48 -2.869,-0.48 l -2.197,-0.412 -1.023,1.986 c 0,0 -1.591,2.709 -2.639,4.121 -0.503,-1.883 -0.939,-3.836 -1.483,-5.93 l -0.349,-1.343 -1.248,-0.604 c -1.197,-0.579 -2.342,-1.11 -3.403,-1.664 0.879,-1.09 1.9,-2.175 3.047,-3.404 L 15.014,23.758 15,22.555 c -0.023,-1.908 -0.02,-3.816 0,-5.723 0.887,0.579 1.816,1.358 3.182,2.307 l 1.521,1.058 1.629,-0.888 c 1.157,-0.632 2.281,-1.276 3.387,-1.907 -0.097,0.046 -0.112,0.06 -0.219,0.11 l 0.23,-0.117 c 1.356,-0.643 1.816,-0.965 2.09,-1.125 z"
       fill-rule="nonzero"
       id="path2-5"
       style="fill:#c83771" />
    <circle
       cx="34.045189"
       cy="9.4903297"
       r="3.3483901"
       stroke-width="1.11613"
       id="circle3"
       style="fill:#c83771" />
  </g>
</svg>
