<?xml version="1.0" encoding="UTF-8" standalone="no"?>
<svg
   width="62"
   height="62"
   version="1.1"
   viewBox="0 0 16.403844 16.403844"
   id="svg2"
   sodipodi:docname="anydesk.svg"
   inkscape:version="1.4 (e7c3feb100, 2024-10-09)"
   xmlns:inkscape="http://www.inkscape.org/namespaces/inkscape"
   xmlns:sodipodi="http://sodipodi.sourceforge.net/DTD/sodipodi-0.dtd"
   xmlns="http://www.w3.org/2000/svg"
   xmlns:svg="http://www.w3.org/2000/svg">
  <defs
     id="defs2" />
  <sodipodi:namedview
     id="namedview2"
     pagecolor="#ffffff"
     bordercolor="#000000"
     borderopacity="0.25"
     inkscape:showpageshadow="2"
     inkscape:pageopacity="0.0"
     inkscape:pagecheckerboard="0"
     inkscape:deskcolor="#d1d1d1"
     inkscape:zoom="11.78125"
     inkscape:cx="31.95756"
     inkscape:cy="32.084881"
     inkscape:window-width="1920"
     inkscape:window-height="994"
     inkscape:window-x="0"
     inkscape:window-y="0"
     inkscape:window-maximized="1"
     inkscape:current-layer="svg2" />
  <g
     transform="matrix(1.9374949,0,0,1.9999765,-8.768389,-8.9160187)"
     stroke-width="0.52916"
     id="g2">
    <path
       d="m 7.7005,5.3841 c -0.16631,0 -0.33274,0.06199 -0.45706,0.18631 l -2.5315,2.5318 C 4.46329,8.35085 4.46365,8.76695 4.712297,9.01559 l 2.5315,2.5318 c 0.24865,0.24864 0.66512,0.24899 0.91377,3.56e-4 l 2.5315,-2.5318 c 0.24865,-0.24864 0.24865,-0.6651 0,-0.91374 l -2.5315,-2.5318 c -0.12432,-0.12432 -0.29075,-0.18631 -0.45706,-0.18631 z"
       id="path1"
       style="fill:#8c8c8c;fill-opacity:1" />
    <rect
       transform="rotate(45)"
       x="9.9524002"
       y="-0.94037998"
       width="3.0919001"
       height="3.0919001"
       rx="0.16827001"
       ry="0.16827001"
       id="rect1"
       style="fill:#f2f2f2;fill-opacity:1" />
    <path
       d="m 9.8171,5.3841 c -0.16631,0 -0.33274,0.06199 -0.45706,0.18631 l -2.5315,2.5318 C 6.57989,8.35085 6.58025,8.76695 6.8288972,9.01559 l 2.5315,2.5318 c 0.24865,0.24864 0.6651198,0.24899 0.9137698,3.56e-4 l 2.5315,-2.5318 c 0.24865,-0.24864 0.24865,-0.6651 0,-0.91374 l -2.5315,-2.5318 C 10.149847,5.446086 9.9834172,5.384096 9.8171072,5.384096 Z"
       id="path2"
       style="fill:#e6333d;fill-opacity:1" />
  </g>
</svg>
