<?xml version="1.0" encoding="UTF-8" standalone="no"?>
<svg
   width="62"
   height="62"
   version="1"
   id="svg7"
   sodipodi:docname="apachedirectorystudio.svg"
   inkscape:version="1.4 (e7c3feb100, 2024-10-09)"
   xmlns:inkscape="http://www.inkscape.org/namespaces/inkscape"
   xmlns:sodipodi="http://sodipodi.sourceforge.net/DTD/sodipodi-0.dtd"
   xmlns:xlink="http://www.w3.org/1999/xlink"
   xmlns="http://www.w3.org/2000/svg"
   xmlns:svg="http://www.w3.org/2000/svg">
  <defs
     id="defs7">
    <linearGradient
       id="linearGradient7"
       inkscape:collect="always">
      <stop
         style="stop-color:#3485fd;stop-opacity:1"
         offset="0"
         id="stop8" />
      <stop
         style="stop-color:#073984;stop-opacity:1"
         offset="0.58519185"
         id="stop10" />
      <stop
         style="stop-color:#eff2f6;stop-opacity:1;"
         offset="0.86599815"
         id="stop11" />
      <stop
         style="stop-color:#eff2f6;stop-opacity:1;"
         offset="1"
         id="stop9" />
    </linearGradient>
    <linearGradient
       id="linearGradient1"
       inkscape:collect="always">
      <stop
         style="stop-color:#0d6efd;stop-opacity:1"
         offset="0"
         id="stop5" />
      <stop
         style="stop-color:#3485fd;stop-opacity:1"
         offset="0.25046653"
         id="stop7" />
      <stop
         style="stop-color:#5a9cfe;stop-opacity:1"
         offset="0.91934216"
         id="stop12" />
      <stop
         style="stop-color:#3485fd;stop-opacity:1"
         offset="1"
         id="stop6" />
    </linearGradient>
    <linearGradient
       id="c-3"
       gradientUnits="userSpaceOnUse"
       x1="24.072048"
       x2="23.959682"
       y1="0.75082099"
       y2="46.056854">
      <stop
         offset="0"
         stop-color="#fff"
         id="stop3" />
      <stop
         offset="1"
         stop-color="#d9d9d9"
         id="stop4" />
    </linearGradient>
    <linearGradient
       id="b-6"
       gradientUnits="userSpaceOnUse"
       x1="29.203026"
       x2="34.121048"
       xlink:href="#a-7"
       y1="24.827356"
       y2="29.224836" />
    <linearGradient
       id="a-7">
      <stop
         offset="0"
         id="stop1" />
      <stop
         offset="1"
         stop-opacity="0"
         id="stop2" />
    </linearGradient>
    <linearGradient
       id="d"
       gradientUnits="userSpaceOnUse"
       x1="15.948756"
       x2="25.031786"
       xlink:href="#a-7"
       y1="23.618279"
       y2="33.69899" />
    <linearGradient
       id="e"
       gradientUnits="userSpaceOnUse"
       x1="21.990562"
       x2="29.320522"
       xlink:href="#a-7"
       y1="33.780373"
       y2="41.931858" />
    <linearGradient
       id="paint154_linear_890_11"
       x1="778"
       y1="812.29199"
       x2="788"
       y2="812.29199"
       gradientUnits="userSpaceOnUse"
       gradientTransform="translate(-751,-696)">
      <stop
         stop-color="#EFF2F6"
         id="stop1050" />
      <stop
         offset="0.600785"
         stop-color="#B7C6CD"
         id="stop1051" />
    </linearGradient>
    <linearGradient
       id="paint155_linear_890_11"
       x1="783"
       y1="813"
       x2="783"
       y2="817"
       gradientUnits="userSpaceOnUse"
       gradientTransform="translate(-751,-696)">
      <stop
         stop-color="#EFF2F6"
         id="stop1052" />
      <stop
         offset="0.734138"
         stop-color="#B7C6CD"
         id="stop1053" />
    </linearGradient>
    <radialGradient
       id="paint156_radial_890_11"
       cx="0"
       cy="0"
       r="1"
       gradientUnits="userSpaceOnUse"
       gradientTransform="matrix(27.999986,27.999976,-27.999986,27.999976,32.302392,33.999998)">
      <stop
         offset="0.60067803"
         stop-color="#B7C6CD"
         id="stop1054"
         style="stop-color:#424b58;stop-opacity:1;" />
      <stop
         offset="0.876735"
         stop-color="#EFF2F6"
         id="stop1055" />
    </radialGradient>
    <linearGradient
       id="paint157_linear_890_11"
       x1="796.84485"
       y1="799.43359"
       x2="768.90088"
       y2="770.81476"
       gradientUnits="userSpaceOnUse"
       gradientTransform="matrix(1.1666666,0,0,1.1666668,-881.19764,-881.8333)">
      <stop
         offset="0.00000057"
         stop-color="#2E2E41"
         id="stop1056"
         style="stop-color:#424b58;stop-opacity:1;" />
      <stop
         offset="0.71113902"
         stop-color="#566C80"
         id="stop1057"
         style="stop-color:#303c47;stop-opacity:1;" />
    </linearGradient>
    <linearGradient
       id="paint158_linear_890_11"
       x1="792"
       y1="794"
       x2="774"
       y2="776"
       gradientUnits="userSpaceOnUse"
       gradientTransform="translate(-751,-696)">
      <stop
         offset="0.304478"
         stop-color="#2E2E41"
         id="stop1058" />
      <stop
         offset="1"
         stop-color="#566C80"
         id="stop1059" />
    </linearGradient>
    <linearGradient
       id="paint159_linear_890_11"
       x1="788"
       y1="790"
       x2="778"
       y2="780"
       gradientUnits="userSpaceOnUse"
       gradientTransform="translate(-751,-696)">
      <stop
         offset="0.391394"
         stop-color="#5200FF"
         id="stop1060" />
      <stop
         offset="1"
         stop-color="#0085FF"
         id="stop1061" />
    </linearGradient>
    <linearGradient
       id="paint160_linear_890_11"
       x1="784"
       y1="798"
       x2="782"
       y2="796"
       gradientUnits="userSpaceOnUse"
       gradientTransform="translate(-751,-696)">
      <stop
         stop-color="#FF7E07"
         id="stop1062" />
      <stop
         offset="1"
         stop-color="#FFE607"
         id="stop1063" />
    </linearGradient>
    <linearGradient
       id="c-3-6"
       gradientUnits="userSpaceOnUse"
       x1="24.072048"
       x2="23.959682"
       y1="0.75082099"
       y2="46.056854"
       gradientTransform="matrix(0.91471346,0,0,0.90068147,9.0468769,9.3836444)">
      <stop
         offset="0"
         stop-color="#fff"
         id="stop3-2" />
      <stop
         offset="1"
         stop-color="#d9d9d9"
         id="stop4-9" />
    </linearGradient>
    <linearGradient
       id="b-6-1"
       gradientUnits="userSpaceOnUse"
       x1="29.203026"
       x2="34.121048"
       xlink:href="#a-7"
       y1="24.827356"
       y2="29.224836"
       gradientTransform="matrix(1.1104534,0,0,1.0934187,4.3491158,4.7861435)" />
    <linearGradient
       id="d-0"
       gradientUnits="userSpaceOnUse"
       x1="15.948756"
       x2="25.031786"
       xlink:href="#a-7"
       y1="23.618279"
       y2="33.69899"
       gradientTransform="matrix(1.1104534,0,0,1.0934187,4.3491158,4.7861435)" />
    <linearGradient
       id="e-9"
       gradientUnits="userSpaceOnUse"
       x1="21.990562"
       x2="29.320522"
       xlink:href="#a-7"
       y1="33.780373"
       y2="41.931858"
       gradientTransform="matrix(1.1104534,0,0,1.0934187,4.3491158,4.7861435)" />
    <linearGradient
       inkscape:collect="always"
       xlink:href="#linearGradient1"
       id="linearGradient6"
       x1="15.60323"
       y1="17.703012"
       x2="48.302387"
       y2="50"
       gradientUnits="userSpaceOnUse" />
    <radialGradient
       inkscape:collect="always"
       xlink:href="#linearGradient7"
       id="radialGradient9"
       cx="32.302387"
       cy="34"
       fx="32.302387"
       fy="34"
       r="28"
       gradientUnits="userSpaceOnUse"
       gradientTransform="matrix(0.99999999,1,-1,0.99999999,34,-32.302387)" />
  </defs>
  <sodipodi:namedview
     id="namedview7"
     pagecolor="#ffffff"
     bordercolor="#000000"
     borderopacity="0.25"
     inkscape:showpageshadow="2"
     inkscape:pageopacity="0.0"
     inkscape:pagecheckerboard="0"
     inkscape:deskcolor="#d1d1d1"
     inkscape:zoom="5.890625"
     inkscape:cx="41.082228"
     inkscape:cy="53.474801"
     inkscape:window-width="1920"
     inkscape:window-height="998"
     inkscape:window-x="0"
     inkscape:window-y="0"
     inkscape:window-maximized="1"
     inkscape:current-layer="svg7" />
  <g
     id="g1"
     transform="translate(-1.3023872,-3)">
    <path
       d="m 60.302387,34 c 0,15.46415 -12.535828,28 -28.000002,28 C 16.838222,62 4.3023873,49.46415 4.3023873,34 4.3023873,18.535835 16.838222,6 32.302385,6 47.766559,6 60.302387,18.535835 60.302387,34 Z"
       id="path154"
       style="fill:url(#radialGradient9)" />
    <path
       d="m 55.63572,34 c 0,12.88701 -10.446332,23.33332 -23.333335,23.33332 C 19.415386,57.33332 8.9690543,46.88701 8.9690543,34 c 0,-12.886994 10.4463317,-23.333332 23.3333307,-23.333332 12.887003,0 23.333335,10.446338 23.333335,23.333332 z"
       id="path155"
       style="fill:url(#linearGradient6)" />
  </g>
  <g
     id="g2"
     transform="translate(-0.66964625,0.05149)">
    <path
       style="opacity:0.2;stroke-width:0.900882"
       d="m 29.535791,51.742978 c -1.514886,-0.395425 0.666221,-2.458998 0.132433,-3.652554 -0.177385,-1.668299 0.618876,-4.413381 -1.425089,-5.1561 -1.772224,0.203122 -2.430888,2.092132 -3.532673,3.315011 -0.781772,0.898484 0.937267,-1.682752 -0.488171,-0.820338 -1.177849,0.420843 -1.660722,0.170628 -0.209905,-0.178877 1.085326,0.01279 1.736914,-1.166357 0.725308,-1.326737 0.98482,-0.913812 4.766485,-1.205842 2.829736,-3.065761 -0.471622,-1.008266 -1.877791,-2.406382 -2.503984,-0.869826 -1.182523,0.136693 -1.370101,3.4058 -2.079258,2.279887 -0.700125,1.352756 -0.851209,2.977482 -2.405879,3.673612 0.161894,-0.206139 1.922547,-2.394201 1.323379,-3.001744 -0.814376,0.943279 -1.370071,0.213045 -2.231109,0.777055 1.104848,-0.868907 3.458013,-1.258922 3.329155,-2.877184 -1.147419,-0.474427 -2.53724,2.36756 -2.931079,1.401018 0.104312,-0.99619 -2.777561,2.265262 -1.795614,0.651737 -1.866258,0.11544 1.817788,-1.002576 1.630483,-1.584108 1.204245,-0.944579 3.771566,-0.35971 4.235315,-1.895788 -1.689207,-0.896748 -3.768534,-0.767767 -5.184415,0.569003 -0.43823,0.269867 -1.892257,1.250512 -0.906963,0.20749 -2.817544,0.185443 3.134172,-0.932238 0.224782,-1.092225 -0.09405,0.07418 3.246332,-0.659109 1.276909,-1.268336 -1.48292,-0.95033 -4.186837,-0.303006 -5.131857,-0.883776 0.83725,-0.295299 3.391747,0.220273 1.487396,-0.809933 -1.395421,-0.866974 1.396954,0.462626 1.817894,0.588341 0.727006,0.415251 2.195639,0.634575 0.944398,-0.375923 -0.902448,-1.262988 1.492145,1.490229 2.242129,1.488222 1.114024,-0.08322 3.541149,0.08329 3.970422,-0.703268 -1.368135,-1.455589 -3.388026,-2.060202 -5.116218,-2.983409 -1.910927,-0.08942 -3.866689,0.346824 -5.805875,0.588798 -0.199994,-0.674999 2.604595,-0.576561 3.484682,-0.817822 0.569301,-0.862639 -2.525267,-1.289068 -3.502021,-1.391105 -0.840243,0.207238 -0.876958,-0.725439 -0.867727,-0.694201 1.028747,0.286796 4.587502,1.354946 2.28599,-0.422696 0.261128,-1.305583 -4.022592,-2.782617 -1.138386,-1.900128 -0.407257,-0.57612 -1.154494,-1.959258 0.02533,-0.755434 1.121474,1.432435 2.047423,3.234205 3.670642,4.143212 0.620968,0.474454 2.876969,0.931568 1.281787,-0.168251 -1.314152,-0.649413 -1.272883,-1.479237 -2.319332,-2.475031 1.708262,0.557527 2.376396,2.4809 3.798066,3.476992 1.402672,0.356671 2.652124,1.841532 3.902619,1.97961 -0.546279,-1.908437 -2.768362,-2.17004 -4.064353,-3.411252 -0.865119,-0.44675 -1.45399,-0.766717 -0.157435,-0.486097 1.189208,0.403448 1.883345,1.461733 3.308395,1.889811 -1.284419,-1.363632 -2.787557,-2.998405 -4.601429,-3.541113 -1.236946,-0.08199 -3.956016,-1.218572 -4.068301,-1.621246 1.100089,0.324536 3.970015,1.976189 4.225678,0.757517 -0.456852,-1.049659 -2.672018,-1.433257 -2.687972,-1.979748 0.812975,0.525314 2.010648,0.490701 0.637782,-0.366645 -0.750573,-0.427353 -2.572881,-1.956859 -0.752688,-0.901703 1.843912,1.189263 -1.972767,-2.72099 -0.109685,-0.955498 0.793351,0.677201 2.263433,2.934226 2.573381,2.607437 -0.398628,-0.827807 -1.057282,-2.908522 -0.146879,-0.994524 0.758363,2.022626 1.955829,3.931091 3.836724,5.078795 -0.04509,-1.340735 -1.473689,-2.905047 -2.405927,-4.11405 -0.67428,-0.784183 -1.348518,-2.280335 -0.145255,-0.735604 0.28398,0.980483 1.682939,1.883166 0.744029,0.356192 -0.565144,-1.36025 -2.756838,-2.511831 -2.921321,-3.511536 1.052339,1.173846 0.298556,-0.585564 0.660994,-0.192811 0.08497,1.016813 1.85024,2.649189 1.580071,1.605836 0.386541,0.689966 1.225464,1.546281 0.582006,0.131631 -0.515789,-1.00044 -0.538326,-1.843064 0.101332,-0.391804 0.283535,2.243902 2.510001,3.309116 3.873117,4.879006 0.563954,0.697729 1.964047,1.578792 0.914496,0.135126 -0.522164,-1.426827 -2.974038,-2.880049 -3.203722,-3.586071 0.598526,0.658047 2.416847,1.666343 1.056953,0.107963 -1.444013,-1.508463 -2.836903,-3.122897 -4.696615,-4.126742 -0.911588,-0.498721 -1.360911,-1.408014 -0.115214,-0.371733 1.71861,1.185967 -2.43005,-2.861493 -0.682833,-1.552339 1.56598,1.370134 2.734656,3.15755 4.468697,4.347805 1.505657,0.793772 -0.368264,-1.923676 -0.894403,-2.334906 -0.723572,-1.052883 -3.06537,-2.407854 -2.72439,-3.175281 0.973344,0.563214 -1.570835,-2.420619 -0.105033,-1.169021 0.717405,0.904581 0.611681,0.327818 0.288667,-0.3817 1.096347,1.157382 1.75756,3.391421 2.974668,4.010143 -0.310575,-0.884974 -0.35618,-1.979643 -0.95249,-2.718863 -0.596791,-0.534499 -1.912399,-2.030705 -0.372662,-0.831363 1.326807,1.039989 1.475703,2.959683 2.111567,4.45306 0.43981,1.184162 1.0726,3.584476 1.669488,4.00081 0.307312,-1.435482 -0.654472,-2.769024 -0.469789,-4.165082 0.308977,1.274013 1.130495,2.271503 2.042175,3.181371 0.540326,0.892076 1.695129,1.513959 0.646121,0.110592 -1.697365,-2.58146 -3.715933,-5.012413 -4.672838,-7.999453 -0.511895,-0.609614 -2.137744,-1.328944 -0.383069,-0.73658 -0.245843,-2.170323 1.681456,3.201444 1.023679,0.393243 -0.303099,-0.858728 -0.38872,-1.791011 5.4e-5,-0.451804 0.632509,2.197985 1.316198,4.554733 2.881674,6.282218 -0.0666,-1.581005 -1.38594,-2.55957 -1.155832,-3.638219 -0.339732,-1.098566 -1.076673,-2.415928 -1.23727,-3.341482 0.63972,1.072014 0.512301,0.200361 0.204439,-0.418226 1.103484,-0.168651 1.217741,2.474476 1.921404,2.54503 -0.05011,-0.690245 -1.346005,-2.898354 -0.782462,-2.829355 0.98623,1.777804 1.28526,3.981903 2.764426,5.463214 0.535102,0.773559 1.667958,2.312154 0.928228,0.504339 -0.778182,-2.031387 -1.676373,-4.070647 -3.266909,-5.606941 -1.112583,-1.706924 1.947795,1.991539 0.836092,-0.236447 -0.995301,-1.269852 0.410771,-0.831573 0.371753,0.32161 0.170956,0.905539 0.895629,1.665711 0.512404,0.155259 0.08957,-0.221392 1.013125,4.303046 0.897737,1.716952 0.213466,-1.826804 -1.420604,-2.866509 -1.598395,-4.527629 0.590892,1.828958 0.869586,-1.862072 0.90354,0.177892 0.03056,0.839919 0.264285,1.84154 0.663236,1.401312 0.281697,1.821004 0.186054,3.721014 0.900378,5.454111 -0.03968,-0.92387 -0.506217,-3.673622 0.356278,-1.67005 0.643133,2.180703 0.406953,-1.891487 -0.203507,-2.554356 0.218968,-1.240402 -1.621779,-2.503069 -1.065877,-3.065547 0.845529,0.492023 1.055034,2.141877 1.400916,2.452195 0.261175,-0.833669 -0.613612,-3.732583 0.196551,-1.5561 0.78767,2.036771 0.362235,-0.264447 0.198738,-1.134854 0.515501,0.501849 0.944241,3.61694 1.262182,3.097184 0.02391,-0.913498 -1.18498,-3.77772 0.04839,-1.889585 0.373386,1.830094 0.482797,3.709514 0.685424,5.552565 0.543864,-1.788275 0.385948,-3.723367 0.09164,-5.456213 0.262189,1.374705 0.401854,0.488093 0.589287,-0.227981 0.004,1.635777 0.342895,1.028125 0.664481,0.608642 0.150694,0.838622 -1.628363,3.767887 0.185746,2.213514 0.858204,-0.656647 0.05437,-2.792107 0.621452,-3.076985 0.364688,1.667388 0.0089,3.086102 -0.239155,4.792033 0.272647,1.082122 -0.77061,3.317875 -0.0655,2.990338 -0.129065,1.690634 -1.040993,3.2162 -0.82588,4.960661 0.0198,2.571893 -0.03014,5.159665 0.20294,7.719537 0.933663,-1.910476 0.790592,-4.251033 1.341077,-6.322376 1.05236,-4.60625 0.221843,-9.343987 0.499096,-14.004525 0.325803,0.599547 0.283435,3.392551 0.671511,1.166587 0.440918,1.390487 -0.519993,3.750328 -0.155107,5.51203 0.815751,-1.047114 1.033382,-2.691083 1.145305,-4.06044 -0.133262,-0.764773 0.899534,-2.839417 0.510774,-0.916875 -0.324505,1.899454 -0.541531,3.850775 -1.255982,5.647862 0.554639,-0.356485 1.614501,-3.138786 1.004131,-0.89886 -0.40648,1.066001 -1.307008,2.819961 -0.06103,1.558973 0.991667,-1.372513 1.845458,-3.113932 1.241488,-4.829222 0.261492,-2.447183 0.320211,2.647938 0.759841,0.352962 0.521813,-1.47765 0.522587,0.875569 -0.04401,1.297997 -0.672073,1.667157 -1.646867,3.23746 -2.234879,4.924663 0.0049,0.873326 -0.259385,2.912825 0.82868,1.235859 -0.112481,1.872085 -2.202467,2.931366 -2.416566,4.698989 0.524954,-0.738949 1.366942,-2.069313 0.745954,-0.344434 1.070865,-1.068638 1.667167,-2.729829 2.355112,-4.131271 1.418718,-2.630533 1.027347,-5.777057 2.213788,-8.468018 -0.14478,0.859844 -0.61077,3.060287 0.285104,1.140517 0.247609,1.01419 -1.446885,3.457412 -0.907111,4.541827 0.587661,-0.745521 2.354744,-2.689799 0.98706,-0.817622 -0.927129,1.517114 -2.083939,2.880221 -2.659781,4.588242 -0.42649,1.414334 -2.22779,3.442262 -1.744677,4.508479 1.833949,-1.180846 1.876284,-3.677798 2.683101,-5.537232 0.745837,-1.133051 -1.178384,3.748566 0.147212,1.152413 1.319749,-2.468568 3.113917,-4.979041 2.824859,-7.922673 -0.02795,-1.172763 0.352907,0.556878 0.657567,-0.794271 0.02203,0.8972 -0.50104,3.187825 0.334474,1.242975 0.186553,-1.098731 1.280294,-1.793388 0.508479,-0.279428 -0.51543,0.648614 -0.672673,1.934168 0.173253,0.609222 1.400619,-2.046034 0.0041,0.691638 -0.619271,1.343396 -1.128585,1.213568 -1.793347,2.859549 -2.754976,4.257565 -0.779541,1.520675 -1.832283,3.440298 -2.197405,4.820017 1.505344,-1.099961 2.218826,-2.946603 3.464106,-4.30671 0.8329,-0.909185 1.002117,-2.451981 1.768109,-2.430144 0.764439,-0.712686 1.467335,-3.224317 1.810558,-1.552641 -1.177379,1.042606 -2.504987,2.521502 -2.918734,3.882024 1.313586,-0.417375 2.054705,-2.226153 2.701781,-1.796843 0.906359,-1.13888 1.964271,-1.1261 2.973157,-1.963537 -0.656398,1.695261 -2.381027,2.487274 -3.019445,4.294002 -0.655641,1.106785 1.156995,-0.101658 0.03912,1.034667 -0.404713,0.831846 -0.837502,1.996752 0.399582,0.840347 0.84503,-0.989305 2.823754,-0.668658 3.446788,-2.031765 0.203615,-0.923047 1.173706,-2.484312 0.564256,-0.598425 -0.32559,1.023411 0.289513,0.966027 -0.600404,1.9287 -1.407659,2.295956 2.622765,-2.408179 0.897424,-0.02982 -1.46105,1.525457 1.48839,-0.759614 0.875529,0.466332 -1.790853,0.390986 -2.680782,2.156844 -4.095726,3.226052 -1.804913,1.463383 1.370899,0.498058 1.706002,0.451759 0.993727,0.160328 2.874675,-1.186504 2.783083,-0.256671 -0.600051,0.306144 -3.783998,0.600897 -1.512125,0.779615 1.194283,0.011 0.513115,1.028184 -0.40414,0.301853 -1.667736,-0.537644 -3.224792,0.252906 -4.822169,0.44413 -1.124001,0.405478 -2.000819,2.233025 0.0075,1.794424 1.133014,0.281058 3.009067,0.135613 3.651626,-0.348458 -1.344667,1.110282 2.025482,0.240573 2.640184,0.543799 1.901186,0.280379 -0.983399,0.160506 -1.646026,0.269283 -0.7472,0.769648 -4.132053,1.610017 -1.610278,0.469916 1.681578,-0.669503 -1.607927,-0.324835 -2.179616,-0.490328 -0.902891,-0.661615 -3.776735,0.384732 -2.168554,1.23191 0.712227,0.573432 2.977923,0.143481 2.958599,0.194287 -0.03904,1.488638 2.786066,-0.672449 3.157242,-0.244387 -1.248876,0.436494 -1.167128,1.054878 0.166644,1.005378 1.456311,-0.407218 1.712397,1.358198 0.256248,0.405237 -2.118384,-0.288523 -4.284217,-0.307671 -6.383894,-0.799994 -1.387035,-0.289758 -3.74618,3.027001 -0.991639,2.522491 1.326194,0.393837 3.462094,-0.178895 4.336002,0.235579 -0.961401,-0.03629 -3.134362,0.22897 -0.926998,0.563989 0.597089,0.218854 2.935778,0.272059 1.143057,0.62414 0.425267,0.673954 3.628157,1.452605 1.437804,1.095527 -1.552842,-0.813476 -2.818725,-1.058296 -4.215368,-1.705393 -1.184174,-0.382096 -4.079188,-0.94125 -4.333494,0.476785 0.776822,1.854877 2.309937,3.112644 4.390991,2.332454 1.008211,-0.08439 0.05408,0.247305 0.461973,0.931405 -0.868091,-0.756832 -3.476318,-0.387262 -1.480634,0.666125 0.830486,0.24668 2.644524,1.988065 0.917218,0.748201 -1.453768,-1.082999 -0.802305,0.280761 -0.435629,1.078649 -1.106414,-0.642434 -1.886354,-2.783107 -2.902117,-3.125876 -0.273912,1.168638 1.571282,3.149561 1.251048,3.352772 -1.96259,-1.03823 -1.458494,-3.118497 -2.105757,-4.880704 -0.982959,-1.814057 -4.215696,1.521097 -2.360871,2.434369 0.253234,0.753198 3.317198,2.665552 1.199363,1.665912 -0.842837,-0.822536 -1.792237,-0.71794 -0.940191,0.53964 0.486471,0.732186 0.94108,2.387636 0.03964,0.738193 -0.536447,-0.91764 -1.424489,-4.5436 -2.32445,-1.978221 -0.668606,2.196609 -1.569981,4.875075 -0.181542,6.975599 -1.132887,0.919792 -3.14803,0.392148 -4.629686,0.329944 z m 3.801471,-8.754761 c 1.136406,-1.013409 -0.800547,-1.971062 -0.50206,-0.315182 -0.0094,0.436836 0.04071,1.238217 0.50206,0.315182 z M 29.15903,40.504299 c 0.475512,-1.330229 -2.25463,-1.725798 -0.824823,-0.286949 0.235192,0.278537 1.079928,1.433082 0.824823,0.286949 z m 4.967395,0.270107 c -0.233906,-0.701881 -0.267694,0.709684 -2.22e-4,-9e-6 z m 2.128612,-0.979132 c 0.898377,-0.831228 3.168469,-2.323358 2.986304,-3.070074 -1.686925,0.286574 -3.220142,1.565249 -3.456371,3.29428 0.150532,0.179758 0.345423,-0.316428 0.470067,-0.224206 z M 33.517959,39.50786 c 1.580325,-0.690076 2.055206,-2.352742 1.899696,-3.941655 -0.802636,0.314885 -2.11738,2.502115 -2.327053,3.86401 -0.151828,0.409154 0.29823,0.228162 0.427357,0.07761 z m -8.092914,-0.671404 c 1.274561,-0.291677 -0.858171,-1.066735 -1.396877,-0.677564 -2.389241,0.06583 0.903348,0.916296 1.396877,0.677564 z m 3.0971,-0.185871 c 0.321985,-1.24559 -1.748501,-2.76982 -2.911053,-3.377613 -0.675189,0.726094 1.006938,2.683199 1.718658,3.370578 0.395031,0.04034 0.797751,0.06458 1.192395,0.007 z m 1.396483,-0.873334 c -0.37588,-2.802012 -2.321067,-5.134226 -4.602684,-6.684515 -1.258607,-0.862718 -2.36738,-2.532667 -3.671372,-2.972462 0.775329,2.044748 1.61314,4.196861 3.126153,5.815686 1.283768,0.298071 -0.936741,-1.700136 -1.149154,-2.43319 -0.545336,-1.46341 1.428048,1.246276 1.699594,1.742105 1.270236,1.775247 3.012468,3.159779 4.287194,4.939719 0.307838,0.49576 0.38612,-0.309373 0.310269,-0.407343 z m 6.665197,-0.488571 c 1.282765,-1.209518 3.643581,-1.377595 4.378004,-2.881213 -0.492608,-0.902198 -2.561828,0.05753 -3.208885,0.707691 -0.142219,0.40468 -2.90398,2.92914 -1.169119,2.173522 z m -2.407459,-2.410782 c 0.846863,-1.056658 2.152946,-2.489859 1.815812,-3.847806 -1.140681,1.03032 -2.052421,2.541812 -2.083802,4.070051 l 0.268007,-0.222228 z m -4.126378,-0.643997 c 0.05182,-1.949736 -0.758109,-4.194258 -2.962387,-4.518017 -1.697287,-0.49507 0.680451,1.87224 0.928194,2.521647 0.62008,0.712562 1.593686,2.615245 2.079764,2.527612 l -0.01729,-0.242413 -0.02827,-0.288866 z m 11.096027,-0.654354 c 0.18649,-0.942204 1.55373,-3.35388 0.642737,-3.608599 -0.903133,0.894477 -2.04124,2.368296 -2.131475,3.464552 0.450383,0.0768 1.062615,0.467956 1.488738,0.144041 z m -2.846549,-0.474999 c 1.280758,0.258714 2.42604,-2.625414 1.575948,-2.945255 -0.99439,0.665311 -2.245083,2.12431 -2.359506,2.989469 0.259358,-0.03951 0.522021,-0.04132 0.783558,-0.04421 z m -1.160178,-1.301117 c 1.563383,-1.149008 3.126661,-2.426995 3.933164,-4.241609 0.532632,-0.741209 2.129113,-3.729611 0.22313,-1.986706 -1.634754,1.033742 -2.207375,3.101819 -3.582416,4.404534 -0.142817,0.201951 -1.726774,2.430097 -0.573878,1.823781 z m 6.368179,-0.859146 c 0.467586,-0.696729 0.923948,-0.787697 0.424436,0.177616 1.495952,-0.727685 3.557169,-3.116118 3.108046,-4.444672 -1.735909,0.577064 -3.674664,1.345493 -4.299743,3.228563 -0.499498,0.890897 -0.59385,2.786522 0.574369,1.250492 l 0.192852,-0.212005 z M 30.390388,29.926501 c 0.527051,-2.050177 -1.152855,-3.781734 -1.853459,-5.581158 -0.313362,-1.38695 -3.924788,-3.084759 -2.266498,-0.60687 1.298553,2.333239 2.59669,4.666795 3.787588,7.057626 0.276288,0.161928 0.230327,-0.73578 0.332369,-0.869598 z m -2.14622,-0.755569 c -0.991882,-1.278683 -2.268216,-3.102668 -3.498068,-3.757479 -0.438658,2.105636 0.940912,4.179843 3.245367,3.802899 l 0.199148,-0.0023 0.05354,-0.04317 z m 3.398437,-0.306028 c 0.294056,-2.772703 -0.383174,-5.544465 -1.737054,-7.964691 -0.278128,-0.749523 -0.707008,-1.955751 -0.823091,-0.443506 -0.186395,1.126027 -0.293254,2.299853 0.271949,3.332634 0.297474,0.786835 1.003961,3.127548 0.995409,0.94 1.032456,0.110791 0.569467,3.992866 1.292787,4.135563 z m 10.654495,-2.1059 c 0.532001,-0.597749 0.935282,-2.140582 0.08517,-0.63785 -0.386642,0.542874 -1.143903,2.382054 -0.232403,0.874689 l 0.147267,-0.236828 z m 2.835562,-3.750701 C 44.91893,22.460869 42.92013,24.93156 44.645453,23.437375 l 0.214487,-0.174159 0.272722,-0.254924 z M 31.947204,22.699792 c 0.107094,-1.257271 0.349154,-3.730659 -0.1189,-4.286915 -0.0089,1.623519 -0.710935,3.753564 -0.06561,5.075487 0.08876,-0.25594 0.134129,-0.523543 0.184514,-0.788572 z m -4.779058,-0.540124 c -1.013086,-1.333308 -1.899405,-2.763444 -2.93735,-4.075153 -0.007,1.819289 1.41783,2.039497 2.036202,3.578612 0.172518,0.222993 0.619815,0.633448 0.901148,0.496541 z m 3.313265,-2.551734 c 0.193732,-1.160319 -0.440385,-4.278474 -1.316517,-4.060308 0.07596,1.692611 0.616344,3.198154 1.235647,4.866812 0.07696,-0.261995 0.06345,-0.53749 0.08087,-0.806504 z m 2.245164,-1.653169 c 0.145738,-2.051815 -0.712692,1.140008 -0.101711,0.442414 l 0.04831,-0.195006 z M 21.357633,45.947194 c 0.571466,-0.844889 0.298903,0.245522 0,0 z m 17.946099,-1.062025 c 0.308662,-0.431197 0.195091,0.397075 0,0 z m 5.525054,-3.946826 c -0.911823,-0.731693 0.674595,-0.05144 0,0 z m 3.895669,-0.630492 c -2.604925,-0.93342 2.988384,0.683691 0.426268,0.120897 l -0.207941,-0.05838 -0.218343,-0.06251 z m 1.433285,-3.550365 c 0.108643,-0.561518 0.530676,0.251376 0,0 z M 13.731786,36.212085 c 0.01206,-0.499326 0.552452,0.339921 0,0 z m 35.297534,-0.69306 c -1.271381,-0.233731 2.700729,-0.752405 0.652064,-0.0491 -0.150784,0.298854 -0.444747,-0.0087 -0.652064,0.0491 z M 13.610276,33.806462 c -1.242362,-0.628302 1.57268,0.218274 0,0 z m 34.690252,-0.04715 c 0.668261,-0.634332 2.11441,0.315547 0.458501,0.05319 l -0.223711,-0.0126 -0.23479,-0.04046 z m 1.64342,-1.587664 c 0.259472,-0.07633 0.0806,-0.04317 0,0 z M 17.053551,31.454724 c -0.525974,-0.690473 1.034502,0.65136 0,0 z m -2.638156,-0.28467 c -1.779151,-0.705918 0.172092,-0.406782 0.66425,0.131451 -0.22875,0.02848 -0.450213,-0.07173 -0.66425,-0.131451 z m -1.489552,-0.867139 c -0.07125,-0.390406 0.505867,0.34057 0,0 z m 2.71094,-3.442406 c -0.638278,-0.536772 0.70166,0.114721 0,0 z m 29.748768,-0.97968 c 0.408823,-0.885178 0.266273,-1.447338 0.801125,-0.882739 0.643439,-0.18176 -1.710099,2.70238 -0.800886,0.882717 z M 42.305116,21.86619 c 0.150799,-1.140431 0.775672,-1.443114 0.16318,-0.135953 0.135789,-0.101803 -0.193099,0.325629 -0.16318,0.135953 z M 21.151432,18.25016 c -0.486405,-1.50176 0.522241,0.579336 0,0 z m 22.086403,-0.828753 c 0.131623,-0.536703 0.301233,0.1483 -4e-6,-1.7e-5 z M 24.949577,14.705448 c -0.55221,-0.922289 0.615426,0.652213 0,0 z"
       id="path3" />
    <path
       style="fill:#ffffff;stroke-width:0.900882"
       d="m 29.535791,50.842381 c -1.514886,-0.395429 0.666221,-2.459001 0.132433,-3.652558 -0.177385,-1.6683 0.618876,-4.413381 -1.425089,-5.156096 -1.772224,0.20312 -2.430888,2.092129 -3.532673,3.315008 -0.781772,0.898485 0.937267,-1.682752 -0.488171,-0.820338 -1.177849,0.420841 -1.660722,0.170627 -0.209905,-0.178876 1.085326,0.01279 1.736914,-1.166359 0.725308,-1.326737 0.98482,-0.913811 4.766485,-1.205842 2.829736,-3.065761 -0.471622,-1.008266 -1.877791,-2.406381 -2.503984,-0.869828 -1.182523,0.136691 -1.370101,3.405801 -2.079258,2.279887 -0.700125,1.352758 -0.851209,2.977486 -2.405879,3.673613 0.161894,-0.20614 1.922547,-2.3942 1.323379,-3.001746 -0.814376,0.94328 -1.370071,0.213048 -2.231109,0.777057 1.104848,-0.868909 3.458013,-1.258924 3.329155,-2.877184 -1.147419,-0.474428 -2.53724,2.367561 -2.931079,1.401019 0.104312,-0.996191 -2.777561,2.265261 -1.795614,0.651736 -1.866258,0.11544 1.817788,-1.002573 1.630483,-1.58411 1.204245,-0.944572 3.771566,-0.359709 4.235315,-1.895788 -1.689207,-0.896747 -3.768534,-0.767763 -5.184415,0.569002 -0.43823,0.269869 -1.892257,1.250515 -0.906963,0.207497 -2.817544,0.185438 3.134172,-0.932245 0.224782,-1.092229 -0.09405,0.07418 3.246332,-0.65911 1.276909,-1.268338 -1.48292,-0.950328 -4.186837,-0.303003 -5.131857,-0.883774 0.83725,-0.295299 3.391747,0.220271 1.487396,-0.809933 -1.395421,-0.866972 1.396954,0.462626 1.817894,0.588341 0.727006,0.41525 2.195639,0.634577 0.944398,-0.375924 -0.902448,-1.262985 1.492145,1.490229 2.242129,1.488222 1.114024,-0.08322 3.541149,0.08329 3.970422,-0.703269 -1.368135,-1.455585 -3.388026,-2.0602 -5.116218,-2.98341 -1.910927,-0.08942 -3.866689,0.346825 -5.805875,0.588798 -0.199994,-0.674994 2.604595,-0.576558 3.484682,-0.81782 0.569301,-0.862638 -2.525267,-1.289066 -3.502021,-1.391102 -0.840243,0.207237 -0.876958,-0.725443 -0.867727,-0.694206 1.028747,0.286799 4.587502,1.354949 2.28599,-0.422693 0.261128,-1.305582 -4.022592,-2.782619 -1.138386,-1.900128 -0.407257,-0.576121 -1.154494,-1.959258 0.02533,-0.755434 1.121474,1.432434 2.047423,3.234206 3.670642,4.143213 0.620968,0.474456 2.876969,0.931568 1.281787,-0.168251 -1.314152,-0.649414 -1.272883,-1.479239 -2.319332,-2.475033 1.708262,0.557527 2.376396,2.4809 3.798066,3.476992 1.402672,0.356674 2.652124,1.841534 3.902619,1.979612 -0.546276,-1.908438 -2.768359,-2.17004 -4.06435,-3.411253 -0.865119,-0.446749 -1.45399,-0.766717 -0.157435,-0.486096 1.189208,0.403446 1.883345,1.461731 3.308395,1.889808 -1.284419,-1.363631 -2.787557,-2.998406 -4.601429,-3.541109 -1.236946,-0.08197 -3.956016,-1.218575 -4.068301,-1.62125 1.100089,0.324538 3.970015,1.976193 4.225678,0.757516 -0.456852,-1.049657 -2.672018,-1.433254 -2.687972,-1.979744 0.812975,0.525311 2.010648,0.490699 0.637782,-0.366648 -0.750573,-0.427351 -2.572881,-1.956857 -0.752688,-0.901701 1.843912,1.189261 -1.972767,-2.720991 -0.109685,-0.955499 0.793351,0.6772 2.263433,2.934229 2.573381,2.607439 -0.398627,-0.827809 -1.057282,-2.908524 -0.146878,-0.994526 0.758362,2.022627 1.955828,3.931092 3.836723,5.078794 -0.04509,-1.340734 -1.473689,-2.905044 -2.405927,-4.114049 -0.67428,-0.78418 -1.348518,-2.280334 -0.145255,-0.7356 0.28398,0.98048 1.682939,1.883162 0.744029,0.35619 -0.565144,-1.360253 -2.756838,-2.511832 -2.921321,-3.511538 1.052339,1.173848 0.298556,-0.585563 0.660994,-0.192812 0.08496,1.016815 1.85024,2.649192 1.580071,1.605839 0.386541,0.689966 1.225464,1.546282 0.582007,0.131631 -0.51579,-1.000441 -0.538327,-1.843067 0.101331,-0.391807 0.283535,2.243905 2.510001,3.309117 3.873117,4.879009 0.563954,0.697726 1.964047,1.578792 0.914496,0.135127 -0.522164,-1.426831 -2.974038,-2.880051 -3.203721,-3.586072 0.598525,0.658045 2.416846,1.66634 1.056952,0.107964 -1.444013,-1.508466 -2.836903,-3.122901 -4.696615,-4.126745 -0.911586,-0.498719 -1.360911,-1.408013 -0.115214,-0.371732 1.71861,1.185967 -2.43005,-2.861491 -0.682833,-1.55234 1.56598,1.370135 2.734656,3.157549 4.468697,4.347806 1.505657,0.793773 -0.368264,-1.923674 -0.894403,-2.334906 -0.723572,-1.052882 -3.06537,-2.407856 -2.72439,-3.175278 0.973344,0.563211 -1.570835,-2.420622 -0.105033,-1.169024 0.717405,0.904582 0.611681,0.327821 0.288667,-0.381698 1.096347,1.157379 1.75756,3.391416 2.974668,4.010141 -0.310575,-0.884973 -0.35618,-1.979643 -0.95249,-2.718864 -0.596791,-0.534494 -1.912399,-2.030702 -0.372662,-0.83136 1.326807,1.039987 1.475703,2.959679 2.111567,4.453058 0.43981,1.184161 1.0726,3.584476 1.669488,4.000812 0.307312,-1.435483 -0.654472,-2.769026 -0.469789,-4.165087 0.308977,1.274017 1.130495,2.271507 2.042175,3.181372 0.540326,0.89208 1.695129,1.51396 0.646121,0.110595 -1.697365,-2.581461 -3.715933,-5.012416 -4.672838,-7.999454 -0.511895,-0.609618 -2.137744,-1.328943 -0.383069,-0.736578 -0.245843,-2.170322 1.681456,3.201442 1.023679,0.393245 -0.303099,-0.858729 -0.38872,-1.791015 5.4e-5,-0.451807 0.632509,2.197985 1.316198,4.554731 2.881674,6.282215 -0.0666,-1.581002 -1.38594,-2.559567 -1.155832,-3.638217 -0.339732,-1.098566 -1.076673,-2.415926 -1.23727,-3.341484 0.63972,1.072019 0.512301,0.200361 0.204439,-0.418223 1.103484,-0.168653 1.217741,2.474474 1.921404,2.545035 -0.05011,-0.69025 -1.346005,-2.898362 -0.782462,-2.82936 0.98623,1.777806 1.28526,3.981903 2.764426,5.463216 0.535102,0.773556 1.667958,2.312151 0.928228,0.504336 -0.778182,-2.031386 -1.676373,-4.070646 -3.266909,-5.606938 -1.112583,-1.706926 1.947795,1.991536 0.836092,-0.236448 -0.995301,-1.269853 0.410771,-0.831578 0.371753,0.32161 0.170956,0.905536 0.895629,1.665708 0.512404,0.155258 0.08957,-0.221394 1.013125,4.303045 0.897737,1.716953 0.213466,-1.826804 -1.420604,-2.866509 -1.598395,-4.527628 0.590892,1.828953 0.869586,-1.862075 0.90354,0.177891 0.03056,0.839919 0.264285,1.841537 0.663236,1.401316 0.281697,1.821002 0.186054,3.72101 0.900378,5.454104 -0.03968,-0.923868 -0.506217,-3.67362 0.356278,-1.670046 0.643133,2.1807 0.406953,-1.891487 -0.203507,-2.554358 0.218968,-1.240403 -1.621778,-2.503071 -1.065877,-3.065548 0.845529,0.492023 1.055034,2.141881 1.400916,2.452199 0.261175,-0.833671 -0.613612,-3.732586 0.196551,-1.556103 0.78767,2.036769 0.362235,-0.264453 0.198738,-1.134851 0.515501,0.501845 0.944241,3.616937 1.262182,3.097179 0.02391,-0.913495 -1.18498,-3.777718 0.04839,-1.889585 0.373386,1.830097 0.482797,3.709516 0.685424,5.552567 0.543864,-1.788273 0.385948,-3.723365 0.09164,-5.456214 0.262189,1.374703 0.401854,0.488096 0.589287,-0.22798 0.004,1.635779 0.342895,1.028124 0.664481,0.608641 0.150694,0.838621 -1.628363,3.767888 0.185746,2.213515 0.858204,-0.656649 0.05437,-2.792108 0.621452,-3.076986 0.364688,1.667388 0.0089,3.086106 -0.239155,4.792035 0.272647,1.082121 -0.77061,3.317872 -0.0655,2.990335 -0.129065,1.690637 -1.040993,3.216201 -0.82588,4.96066 0.0198,2.571895 -0.03014,5.159666 0.20294,7.719538 0.933663,-1.910473 0.790592,-4.251032 1.341077,-6.322377 1.05236,-4.606249 0.221843,-9.343982 0.499096,-14.004523 0.325803,0.599546 0.283435,3.392553 0.671511,1.166598 0.440918,1.390475 -0.519993,3.750317 -0.155107,5.512022 0.815751,-1.047117 1.033383,-2.691084 1.145305,-4.060441 -0.133262,-0.764775 0.899534,-2.839419 0.510774,-0.916875 -0.324505,1.899455 -0.541531,3.850775 -1.255982,5.64786 0.554639,-0.356482 1.614501,-3.138786 1.004131,-0.89886 -0.40648,1.066001 -1.307008,2.81996 -0.06103,1.558973 0.991667,-1.372513 1.845458,-3.11393 1.241488,-4.82922 0.261492,-2.447183 0.320211,2.647938 0.759841,0.352963 0.521813,-1.477653 0.522587,0.875566 -0.04401,1.297995 -0.672073,1.667153 -1.646867,3.237459 -2.234879,4.924661 0.0049,0.873329 -0.259385,2.912826 0.82868,1.23586 -0.112481,1.872084 -2.202467,2.931367 -2.416566,4.698987 0.524957,-0.738948 1.366942,-2.069311 0.745954,-0.344432 1.070865,-1.068635 1.667167,-2.72983 2.355112,-4.131271 1.418719,-2.630531 1.027347,-5.777057 2.213788,-8.468018 -0.14478,0.859848 -0.61077,3.060289 0.285104,1.140517 0.247609,1.01419 -1.446885,3.457411 -0.907111,4.541825 0.587661,-0.74552 2.354745,-2.689794 0.98706,-0.817619 -0.927129,1.517112 -2.083939,2.880222 -2.659781,4.588241 -0.42649,1.414333 -2.22779,3.442261 -1.744677,4.508482 1.833949,-1.180848 1.876284,-3.677802 2.683101,-5.537234 0.745838,-1.133052 -1.178384,3.748567 0.147212,1.152412 1.319749,-2.46857 3.113917,-4.979044 2.824859,-7.922671 -0.02795,-1.172766 0.352907,0.556877 0.657567,-0.794271 0.02201,0.8972 -0.50104,3.187822 0.334474,1.242976 0.186553,-1.098733 1.280294,-1.793387 0.508479,-0.27943 -0.51543,0.648614 -0.672673,1.934166 0.173257,0.609219 1.400615,-2.046031 0.0041,0.691639 -0.619275,1.343401 -1.128585,1.213566 -1.793347,2.859544 -2.754976,4.257562 -0.779539,1.520674 -1.832283,3.440296 -2.197405,4.820018 1.505345,-1.099961 2.218826,-2.946602 3.464106,-4.30671 0.8329,-0.909188 1.002117,-2.451985 1.768109,-2.430143 0.764439,-0.712686 1.467335,-3.224318 1.810558,-1.552644 -1.177379,1.042609 -2.504987,2.521501 -2.918734,3.882026 1.313586,-0.417377 2.054705,-2.226152 2.701781,-1.796843 0.906359,-1.138881 1.964271,-1.126099 2.973157,-1.96354 -0.656398,1.695264 -2.381027,2.487275 -3.019444,4.294003 -0.655642,1.106787 1.156994,-0.101649 0.03912,1.034669 -0.404713,0.831844 -0.837502,1.996751 0.399582,0.840344 0.84503,-0.989304 2.823754,-0.668656 3.446788,-2.031762 0.203615,-0.923048 1.173706,-2.484314 0.564256,-0.598426 -0.32559,1.023412 0.289513,0.966028 -0.600404,1.928701 -1.407659,2.295955 2.622765,-2.40818 0.897424,-0.02985 -1.46105,1.525461 1.48839,-0.759613 0.875529,0.466334 -1.790853,0.390984 -2.680781,2.156842 -4.095726,3.226049 -1.804913,1.463384 1.370899,0.498059 1.706002,0.451763 0.993727,0.160325 2.874675,-1.186507 2.783083,-0.256673 -0.600051,0.306143 -3.783998,0.600896 -1.512125,0.779617 1.194283,0.011 0.513115,1.028182 -0.40414,0.301851 -1.667736,-0.537644 -3.224792,0.252907 -4.822169,0.44413 -1.124001,0.405479 -2.000819,2.233024 0.0075,1.794424 1.133014,0.281057 3.009067,0.135613 3.651626,-0.348458 -1.344667,1.110281 2.025482,0.240572 2.640184,0.543799 1.901186,0.280378 -0.983399,0.160505 -1.646026,0.269282 -0.7472,0.769649 -4.132053,1.610018 -1.610278,0.469918 1.681578,-0.669505 -1.607927,-0.324835 -2.179616,-0.490327 -0.902891,-0.661619 -3.776735,0.384729 -2.168554,1.231908 0.712227,0.573435 2.977923,0.143484 2.958599,0.194289 -0.03904,1.488638 2.786066,-0.672449 3.157242,-0.244388 -1.248876,0.436494 -1.167128,1.054877 0.166644,1.005374 1.456311,-0.407214 1.712398,1.358202 0.256248,0.40524 -2.118384,-0.288524 -4.284217,-0.307672 -6.383894,-0.799994 -1.387035,-0.289756 -3.74618,3.027001 -0.991639,2.52249 1.326194,0.393839 3.462094,-0.178894 4.336002,0.23558 -0.961401,-0.03629 -3.134362,0.22897 -0.926998,0.563988 0.597089,0.218855 2.935778,0.272059 1.143057,0.624144 0.425267,0.673951 3.628157,1.452603 1.437804,1.095523 -1.552842,-0.813475 -2.818725,-1.058293 -4.215368,-1.705392 -1.184174,-0.382097 -4.079188,-0.94125 -4.333494,0.476786 0.776823,1.854874 2.309937,3.112643 4.390991,2.332453 1.008211,-0.08439 0.05408,0.247305 0.461974,0.931402 -0.868092,-0.756827 -3.476319,-0.387259 -1.480635,0.666128 0.830486,0.246675 2.644524,1.988066 0.917218,0.748202 -1.453768,-1.083 -0.802305,0.280761 -0.435629,1.07865 -1.106414,-0.642436 -1.886353,-2.78311 -2.902117,-3.125877 -0.273912,1.168637 1.571282,3.149562 1.251048,3.352771 -1.96259,-1.038229 -1.458494,-3.118498 -2.105757,-4.880702 -0.982959,-1.814061 -4.215695,1.521095 -2.360871,2.434367 0.253234,0.753198 3.317198,2.66555 1.199363,1.665912 -0.842837,-0.822534 -1.792237,-0.717941 -0.940191,0.539641 0.486471,0.732186 0.94108,2.387634 0.03964,0.738192 -0.536447,-0.917639 -1.424489,-4.543598 -2.32445,-1.978219 -0.668606,2.196606 -1.569981,4.875073 -0.181542,6.975596 -1.132887,0.919793 -3.14803,0.392148 -4.629686,0.329944 z m 3.801471,-8.754763 c 1.136406,-1.013408 -0.800547,-1.971063 -0.50206,-0.315183 -0.0094,0.436835 0.04071,1.238216 0.50206,0.315183 z M 29.15903,39.603702 c 0.475512,-1.330233 -2.25463,-1.725802 -0.824823,-0.28695 0.235192,0.278531 1.079928,1.433079 0.824823,0.28695 z m 4.967395,0.270107 c -0.233906,-0.701888 -0.267694,0.709679 -2.22e-4,-1e-5 z m 2.128612,-0.979133 c 0.898377,-0.83123 3.168469,-2.323361 2.986304,-3.070076 -1.686925,0.286573 -3.220142,1.565251 -3.456371,3.294278 0.150532,0.179762 0.345423,-0.316429 0.470067,-0.224202 z m -2.737078,-0.287415 c 1.580325,-0.690076 2.055206,-2.352746 1.899696,-3.941655 -0.802636,0.314887 -2.11738,2.502114 -2.327053,3.864008 -0.151828,0.409154 0.29823,0.228163 0.427357,0.07763 z m -8.092914,-0.671406 c 1.274561,-0.291677 -0.858171,-1.066735 -1.396877,-0.677564 -2.389241,0.06586 0.903348,0.916296 1.396877,0.677564 z m 3.0971,-0.18587 c 0.321985,-1.245589 -1.748501,-2.769819 -2.911053,-3.377615 -0.675189,0.726099 1.006938,2.683199 1.718658,3.370579 0.395031,0.04034 0.797751,0.06458 1.192395,0.007 z m 1.396483,-0.873335 c -0.37588,-2.80201 -2.321067,-5.134225 -4.602684,-6.684515 -1.258607,-0.862716 -2.36738,-2.532668 -3.671372,-2.97246 0.775329,2.044747 1.61314,4.196863 3.126153,5.815684 1.283768,0.29807 -0.936741,-1.700135 -1.149154,-2.43319 -0.545336,-1.463407 1.428048,1.246276 1.699594,1.742106 1.270236,1.775248 3.012468,3.159781 4.287194,4.939718 0.307838,0.49576 0.38612,-0.309375 0.310269,-0.407343 z m 6.665197,-0.488572 c 1.282765,-1.209517 3.643581,-1.377592 4.378004,-2.88121 -0.492608,-0.902201 -2.561828,0.05753 -3.208885,0.707689 -0.142219,0.404683 -2.90398,2.929143 -1.169119,2.173521 z M 34.176366,33.9773 c 0.846863,-1.05666 2.152946,-2.489861 1.815812,-3.847808 -1.140681,1.030321 -2.052421,2.541814 -2.083802,4.07005 l 0.268007,-0.222227 z m -4.126378,-0.643999 c 0.05182,-1.949735 -0.758109,-4.194256 -2.962387,-4.518018 -1.697287,-0.495069 0.680451,1.872241 0.928194,2.521647 0.62008,0.712561 1.593686,2.615247 2.079764,2.527615 l -0.01728,-0.242414 -0.02826,-0.288864 z m 11.096027,-0.654353 c 0.18649,-0.942207 1.55373,-3.353881 0.642737,-3.6086 -0.903133,0.894479 -2.04124,2.368297 -2.131475,3.464553 0.450383,0.0768 1.062615,0.467957 1.488738,0.144042 z m -2.846549,-0.475 c 1.280758,0.258712 2.42604,-2.625415 1.575948,-2.945255 -0.99439,0.665312 -2.245083,2.12431 -2.359506,2.989468 0.259358,-0.03951 0.522021,-0.04132 0.783558,-0.04419 z m -1.160178,-1.301115 c 1.563383,-1.149012 3.126661,-2.426999 3.933164,-4.24161 0.532632,-0.74121 2.129113,-3.729612 0.22313,-1.986706 -1.634754,1.033743 -2.207375,3.101819 -3.582416,4.404534 -0.142817,0.201949 -1.726774,2.430094 -0.573878,1.823782 z m 6.368179,-0.859149 c 0.467586,-0.696731 0.923948,-0.787695 0.424436,0.177617 1.495952,-0.727687 3.557169,-3.116118 3.108046,-4.444672 -1.735909,0.577066 -3.674664,1.345491 -4.299743,3.228565 -0.499498,0.890895 -0.59385,2.786519 0.574369,1.250489 l 0.192852,-0.212004 z M 30.390388,29.0259 c 0.527051,-2.050178 -1.152855,-3.781733 -1.853459,-5.581158 -0.313362,-1.38695 -3.924788,-3.084757 -2.266498,-0.606869 1.298553,2.333238 2.59669,4.666793 3.787588,7.057624 0.276288,0.161929 0.230327,-0.73578 0.332369,-0.869597 z m -2.14622,-0.755566 c -0.991882,-1.278685 -2.268216,-3.102666 -3.498068,-3.757483 -0.438658,2.105638 0.940912,4.179843 3.245367,3.802898 l 0.199148,-0.0023 0.05354,-0.04317 z m 3.398437,-0.306032 c 0.294056,-2.772699 -0.383174,-5.544465 -1.737054,-7.964688 -0.278128,-0.749524 -0.707008,-1.95575 -0.823091,-0.443505 -0.186395,1.126024 -0.293254,2.299852 0.271949,3.332631 0.297474,0.786836 1.003961,3.12755 0.995409,0.94 1.032456,0.110793 0.569467,3.992867 1.292787,4.135562 z M 42.2971,25.858406 c 0.532001,-0.597751 0.935282,-2.140583 0.08517,-0.637852 -0.386642,0.542874 -1.143903,2.382053 -0.232403,0.87469 l 0.147267,-0.236828 z m 2.835562,-3.750704 c -0.213732,-0.547434 -2.212532,1.923257 -0.487209,0.429075 l 0.214487,-0.17416 0.272722,-0.254927 z m -13.185458,-0.30851 c 0.107094,-1.25727 0.349154,-3.73066 -0.1189,-4.286914 -0.0089,1.623517 -0.710935,3.753562 -0.06561,5.075484 0.08876,-0.255938 0.134129,-0.52354 0.184514,-0.78857 z m -4.779058,-0.540124 c -1.013086,-1.333311 -1.899405,-2.763445 -2.93735,-4.075153 -0.007,1.819292 1.41783,2.039497 2.036202,3.57861 0.172518,0.222994 0.619815,0.633453 0.901148,0.496543 z m 3.313265,-2.551735 c 0.193732,-1.160316 -0.440385,-4.278474 -1.316517,-4.060304 0.07596,1.692609 0.616344,3.198151 1.235647,4.866807 0.07696,-0.261993 0.06345,-0.537487 0.08087,-0.806503 z m 2.245164,-1.653168 c 0.145738,-2.051817 -0.712692,1.140006 -0.101711,0.442413 l 0.04831,-0.195003 z M 21.357633,45.046593 c 0.571466,-0.844888 0.298903,0.245522 0,0 z m 17.946099,-1.062022 c 0.308662,-0.431198 0.195091,0.397074 0,0 z m 5.525054,-3.946828 c -0.911823,-0.731692 0.674595,-0.05143 0,0 z m 3.895669,-0.630494 c -2.604925,-0.933419 2.988384,0.683692 0.426268,0.120898 l -0.207941,-0.05839 -0.218343,-0.06253 z m 1.433285,-3.550362 c 0.108643,-0.561517 0.530676,0.251373 0,0 z m -36.425954,-0.5454 c 0.01206,-0.499327 0.552452,0.339918 0,0 z M 49.02932,34.618429 c -1.271381,-0.233737 2.700729,-0.752407 0.652064,-0.0491 -0.150784,0.298851 -0.444747,-0.0087 -0.652064,0.0491 z M 13.610276,32.90586 c -1.242362,-0.6283 1.57268,0.218278 0,0 z m 34.690252,-0.04715 c 0.668261,-0.634331 2.11441,0.315546 0.458501,0.05319 l -0.223711,-0.0126 -0.23479,-0.04046 z m 1.64342,-1.587666 c 0.259472,-0.07633 0.0806,-0.04317 0,0 z M 17.053551,30.554128 c -0.525974,-0.69047 1.034502,0.651363 0,0 z m -2.638156,-0.284669 c -1.779151,-0.705916 0.172092,-0.40678 0.66425,0.131451 -0.22875,0.02848 -0.450213,-0.07173 -0.66425,-0.131451 z m -1.489552,-0.867127 c -0.07125,-0.390407 0.505867,0.34057 0,0 z m 2.71094,-3.442406 c -0.638278,-0.536774 0.70166,0.114717 0,0 z m 29.748768,-0.979691 c 0.408823,-0.885174 0.266273,-1.447336 0.801125,-0.882734 0.643439,-0.181763 -1.710099,2.702375 -0.800886,0.882716 z m -3.080435,-4.014634 c 0.150799,-1.140431 0.775672,-1.443115 0.16318,-0.135955 0.135789,-0.101809 -0.193099,0.325629 -0.16318,0.135955 z M 21.151432,17.349564 c -0.486405,-1.50176 0.522241,0.579334 0,0 z m 22.086403,-0.828753 c 0.131623,-0.536709 0.301233,0.148298 -4e-6,-1.9e-5 z M 24.949577,13.80485 c -0.55221,-0.922289 0.615426,0.652214 0,0 z"
       id="path4" />
  </g>
</svg>
