<?xml version="1.0" encoding="UTF-8" standalone="no"?>
<svg
   width="62"
   height="62"
   version="1.1"
   id="svg5"
   sodipodi:docname="aperture-desk-job.svg"
   inkscape:version="1.4 (unknown)"
   xmlns:inkscape="http://www.inkscape.org/namespaces/inkscape"
   xmlns:sodipodi="http://sodipodi.sourceforge.net/DTD/sodipodi-0.dtd"
   xmlns:xlink="http://www.w3.org/1999/xlink"
   xmlns="http://www.w3.org/2000/svg"
   xmlns:svg="http://www.w3.org/2000/svg">
  <defs
     id="defs5">
    <linearGradient
       id="linearGradient8"
       inkscape:collect="always">
      <stop
         style="stop-color:#2d3d53;stop-opacity:1;"
         offset="0"
         id="stop8" />
      <stop
         style="stop-color:#354864;stop-opacity:1;"
         offset="1"
         id="stop10" />
    </linearGradient>
    <linearGradient
       id="linearGradient4217">
      <stop
         style="stop-color:#000000;stop-opacity:1;"
         offset="0"
         id="stop2" />
      <stop
         style="stop-color:#000000;stop-opacity:0;"
         offset="1"
         id="stop4" />
    </linearGradient>
    <linearGradient
       id="linearGradient4161">
      <stop
         style="stop-color:#334545;stop-opacity:1;"
         offset="0"
         id="stop7" />
      <stop
         style="stop-color:#4d6868;stop-opacity:1"
         offset="1"
         id="stop9" />
    </linearGradient>
    <linearGradient
       id="a-1-2"
       y1="510.79999"
       y2="527.14001"
       gradientUnits="userSpaceOnUse"
       x2="0">
      <stop
         stop-color="#7cbaf8"
         id="stop2-2-7" />
      <stop
         offset="1"
         stop-color="#f4fcff"
         id="stop4-70-0" />
    </linearGradient>
    <linearGradient
       id="c"
       y1="503.79999"
       x1="400.57001"
       y2="519.79999"
       x2="416.57001"
       gradientUnits="userSpaceOnUse">
      <stop
         stop-color="#292c2f"
         id="stop12" />
      <stop
         offset="1"
         stop-opacity="0"
         id="stop14" />
    </linearGradient>
    <linearGradient
       id="b"
       y1="542.79999"
       x1="408.57001"
       y2="521.79999"
       x2="387.57001"
       gradientUnits="userSpaceOnUse"
       gradientTransform="translate(-384.57,-499.8)">
      <stop
         stop-color="#197cf1"
         id="stop7-8" />
      <stop
         offset="1"
         stop-color="#20bcfa"
         id="stop9-7" />
    </linearGradient>
    <linearGradient
       xlink:href="#linearGradient1389"
       id="linearGradient4503-5-6"
       y1="37"
       y2="4"
       x2="0"
       gradientUnits="userSpaceOnUse"
       gradientTransform="matrix(1.0218446,0,0,0.99999999,21.748946,8.2587777)" />
    <linearGradient
       id="linearGradient1389">
      <stop
         style="stop-color:#ffaaaa;stop-opacity:1"
         id="stop1385"
         offset="0" />
      <stop
         offset="1"
         style="stop-color:#ff5555;stop-opacity:1"
         id="stop1387" />
    </linearGradient>
    <linearGradient
       id="paint543_linear_890_11"
       x1="978.5"
       y1="298"
       x2="978.5"
       y2="304"
       gradientUnits="userSpaceOnUse"
       gradientTransform="matrix(0.75000004,0,0,0.75000004,-717.38333,-173.49123)">
      <stop
         offset="0.189495"
         stop-color="#EFF2F6"
         id="stop1829" />
      <stop
         offset="0.850463"
         stop-color="#B7C6CD"
         id="stop1830" />
    </linearGradient>
    <linearGradient
       inkscape:collect="always"
       xlink:href="#linearGradient8"
       id="linearGradient10"
       x1="31.5"
       y1="59.017544"
       x2="31.5"
       y2="4.9824562"
       gradientUnits="userSpaceOnUse"
       gradientTransform="translate(-0.5,-1)" />
    <linearGradient
       id="linearGradient4144">
      <stop
         style="stop-color:#c83771;stop-opacity:1"
         offset="0"
         id="stop1141" />
      <stop
         style="stop-color:#de87aa;stop-opacity:1"
         offset="1"
         id="stop1143" />
    </linearGradient>
    <linearGradient
       id="c-0"
       gradientUnits="userSpaceOnUse"
       x1="10"
       x2="24"
       y1="10"
       y2="24"
       gradientTransform="translate(59.728813,26.237288)">
      <stop
         offset="0"
         stop-color="#292c2f"
         id="stop12-2" />
      <stop
         offset="1"
         stop-opacity="0"
         id="stop14-3" />
    </linearGradient>
    <linearGradient
       id="d"
       gradientUnits="userSpaceOnUse"
       x1="24"
       x2="24"
       y1="25"
       y2="7"
       gradientTransform="translate(59.728813,26.237288)">
      <stop
         offset="0"
         stop-color="#bb9d71"
         id="stop2-7" />
      <stop
         offset="1"
         stop-color="#f9f2e7"
         id="stop4-5" />
    </linearGradient>
  </defs>
  <sodipodi:namedview
     id="namedview5"
     pagecolor="#ffffff"
     bordercolor="#000000"
     borderopacity="0.25"
     inkscape:showpageshadow="2"
     inkscape:pageopacity="0.0"
     inkscape:pagecheckerboard="0"
     inkscape:deskcolor="#d1d1d1"
     inkscape:zoom="8.2643105"
     inkscape:cx="25.228965"
     inkscape:cy="37.692195"
     inkscape:window-width="1920"
     inkscape:window-height="998"
     inkscape:window-x="0"
     inkscape:window-y="0"
     inkscape:window-maximized="1"
     inkscape:current-layer="svg5" />
  <rect
     style="opacity:0.2;stroke-width:0.9823"
     width="55"
     height="55.017544"
     x="3.5"
     y="3.9824562"
     rx="8.25"
     ry="8.2526312"
     id="rect1" />
  <rect
     style="fill:url(#linearGradient10);stroke-width:0.9823"
     width="55"
     height="55.017544"
     x="3.5"
     y="3"
     rx="8.25"
     ry="8.2526312"
     id="rect2" />
  <path
     style="opacity:0.1;fill:#ffffff;stroke-width:0.9823"
     d="M 11.748466,3 C 7.1779652,3 3.5,6.6791384 3.5,11.251097 v 0.982456 c 0,-4.5719585 3.6779652,-8.2510969 8.248466,-8.2510969 h 38.503068 c 4.5705,0 8.248466,3.6791384 8.248466,8.2510969 V 11.251097 C 58.5,6.6791384 54.822034,3 50.251534,3 Z"
     id="path4" />
  <g
     id="g1"
     transform="translate(5.5,-56)">
    <path
       style="opacity:0.2;stroke-width:1.02591"
       d="m 25.475922,67.02439 c -6.164447,0 -9.583598,2.15313 -13.235074,5.12195 H 38.767504 C 35.101075,69.165397 31.64037,67.02439 25.475922,67.02439 Z M 10.875488,73.17073 C 9.6590631,74.399133 8.6032238,75.775896 7.7330669,77.26829 H 18.681383 c 2.014425,-1.332301 4.377222,-2.04476 6.794539,-2.04878 2.424151,8.6e-5 4.794482,0.712718 6.814608,2.04878 h 10.976406 c -0.865172,-1.491493 -1.91558,-2.868215 -3.126371,-4.09756 z M 6.6655252,79.31707 C 5.6807436,81.587468 5.1164642,84.016907 5,86.4878 h 8.219262 c 0.219265,-2.660519 1.301176,-5.177574 3.082224,-7.17073 z m 27.9968658,0 c 1.785426,1.991555 2.871632,4.508769 3.094268,7.17073 H 46 C 45.873374,84.014919 45.298192,81.585393 44.302369,79.31707 Z M 5.076253,89.56098 c 0.206307,2.118654 0.7424979,4.192312 1.5892722,6.14634 h 9.6359608 c -1.550297,-1.728832 -2.578493,-3.859642 -2.96584,-6.14634 z m 32.539936,0 c -0.387337,2.286698 -1.415534,4.417508 -2.96583,6.14634 h 9.635959 c 0.846773,-1.954028 1.382963,-4.027686 1.589273,-6.14634 z M 9.1056195,99.80488 c 3.8661855,5.13989 9.9266395,8.17377 16.3703025,8.19512 6.443664,-0.0209 12.504117,-3.05523 16.370299,-8.19512 H 25.475922 Z"
       id="path2" />
    <path
       style="fill:#ff7122;fill-opacity:1;stroke-width:1.02591"
       d="m 25.475922,66 c -6.164447,0 -9.583598,2.15312 -13.235074,5.12195 H 38.767504 C 35.101075,68.141007 31.64037,66 25.475922,66 Z M 10.875488,72.14634 C 9.6590631,73.374743 8.6032238,74.751506 7.7330669,76.2439 H 18.681383 c 2.014425,-1.332301 4.377222,-2.04476 6.794539,-2.04878 2.424151,8.6e-5 4.794482,0.712718 6.814608,2.04878 h 10.976406 c -0.865172,-1.491493 -1.91558,-2.868215 -3.126371,-4.09756 z M 6.6655252,78.29268 C 5.6807436,80.563078 5.1164642,82.992517 5,85.46341 h 8.219262 c 0.219265,-2.660519 1.301176,-5.177574 3.082224,-7.17073 z m 27.9968658,0 c 1.785426,1.991555 2.871632,4.508769 3.094268,7.17073 H 46 C 45.873374,82.990529 45.298192,80.561003 44.302369,78.29268 Z M 5.076253,88.53659 c 0.206307,2.118654 0.7424979,4.192312 1.5892722,6.14634 h 9.6359608 c -1.550297,-1.728832 -2.578493,-3.859642 -2.96584,-6.14634 z m 32.539936,0 c -0.387337,2.286698 -1.415534,4.417508 -2.96583,6.14634 h 9.635959 c 0.846773,-1.954028 1.382963,-4.027686 1.589273,-6.14634 z M 9.1056195,98.78049 c 3.8661855,5.13988 9.9266395,8.17376 16.3703025,8.19511 6.443664,-0.0209 12.504117,-3.05523 16.370299,-8.19511 H 25.475922 Z"
       id="path3" />
  </g>
</svg>
