<?xml version="1.0" encoding="UTF-8" standalone="no"?>
<svg
   width="62"
   height="62"
   viewBox="0 0 62 62"
   fill="none"
   version="1.1"
   id="svg2"
   sodipodi:docname="gummi.svg"
   inkscape:version="1.4 (unknown)"
   xmlns:inkscape="http://www.inkscape.org/namespaces/inkscape"
   xmlns:sodipodi="http://sodipodi.sourceforge.net/DTD/sodipodi-0.dtd"
   xmlns:xlink="http://www.w3.org/1999/xlink"
   xmlns="http://www.w3.org/2000/svg"
   xmlns:svg="http://www.w3.org/2000/svg">
  <sodipodi:namedview
     id="namedview2"
     pagecolor="#ffffff"
     bordercolor="#000000"
     borderopacity="0.25"
     inkscape:showpageshadow="2"
     inkscape:pageopacity="0.0"
     inkscape:pagecheckerboard="0"
     inkscape:deskcolor="#d1d1d1"
     inkscape:zoom="6.0546875"
     inkscape:cx="64"
     inkscape:cy="64"
     inkscape:window-width="1920"
     inkscape:window-height="998"
     inkscape:window-x="0"
     inkscape:window-y="0"
     inkscape:window-maximized="1"
     inkscape:current-layer="svg2" />
  <path
     d="M 53.552047,18.554663 C 53.09136,18.554452 52.68773,18.25305 52.522368,17.822793 49.863005,10.904126 42.053974,9.275817 35.719357,9.220766 c -5.771226,0 -10.011775,2.159158 -12.721591,5.96723 -2.68805,3.783188 -4.442733,7.659729 -4.442733,15.82965 0,8.098386 1.705814,12.19703 4.292481,16.029351 2.586774,3.808019 7.855998,5.690923 12.088093,5.712055 3.513432,0.01743 7.415279,-1.408479 10.958878,-2.826521 0.400038,-0.160026 0.661341,-0.548018 0.661341,-0.978856 v -10.43585 c 0,-0.583573 -0.473051,-1.056624 -1.056624,-1.056624 h -4.109051 c -0.583573,0 -1.056624,-0.473103 -1.056624,-1.056624 V 35.16706 c 0,-0.583521 0.473051,-1.056624 1.056624,-1.056624 h 16.553754 c 0.583785,0 1.056624,0.473103 1.056624,1.056624 v 16.976509 c 0,0.390422 -0.215024,0.749674 -0.561596,0.9293 C 50.435536,57.219061 42.051438,58.966188 33.70485,59 24.153553,59 16.642279,56.505311 11.170025,51.516463 5.7229715,46.527138 2.9994715,39.694058 2.9994715,31.017329 c 0,-8.700715 2.723553,-15.545894 8.1705535,-20.534954 C 16.642596,5.49453 24.152919,3 33.704216,3 c 7.88981,0.257446 14.768167,1.817868 21.515185,4.406068 0.405215,0.155429 0.670427,0.545958 0.670427,0.979966 v 9.11264 c 0,0.583784 -0.473368,1.05694 -1.057153,1.056623 z"
     id="path1"
     style="fill:url(#linearGradient4)" />
  <defs
     id="defs2">
    <linearGradient
       id="linearGradient2"
       inkscape:collect="always">
      <stop
         style="stop-color:#67ff80;stop-opacity:1;"
         offset="0"
         id="stop3" />
      <stop
         style="stop-color:#008080;stop-opacity:1"
         offset="1"
         id="stop4" />
    </linearGradient>
    <linearGradient
       id="paint0_linear_731_12"
       x1="63.999901"
       y1="116.998"
       x2="63.999901"
       y2="11"
       gradientUnits="userSpaceOnUse"
       gradientTransform="matrix(0.52831185,0,0,0.52831185,-2.8119589,-2.8114304)">
      <stop
         stop-color="#02AA93"
         id="stop1" />
      <stop
         offset="1"
         stop-color="#67FF80"
         id="stop2" />
    </linearGradient>
    <linearGradient
       inkscape:collect="always"
       xlink:href="#linearGradient2"
       id="linearGradient4"
       x1="2.9994714"
       y1="3"
       x2="59.00053"
       y2="59"
       gradientUnits="userSpaceOnUse" />
  </defs>
</svg>
