<?xml version="1.0" encoding="UTF-8" standalone="no"?>
<svg
   width="62"
   height="62"
   version="1.1"
   id="svg1"
   sodipodi:docname="tutanota-desktop.svg"
   inkscape:version="1.4 (e7c3feb100, 2024-10-09)"
   xmlns:inkscape="http://www.inkscape.org/namespaces/inkscape"
   xmlns:sodipodi="http://sodipodi.sourceforge.net/DTD/sodipodi-0.dtd"
   xmlns="http://www.w3.org/2000/svg"
   xmlns:svg="http://www.w3.org/2000/svg">
  <defs
     id="defs1" />
  <sodipodi:namedview
     id="namedview1"
     pagecolor="#ffffff"
     bordercolor="#000000"
     borderopacity="0.25"
     inkscape:showpageshadow="2"
     inkscape:pageopacity="0.0"
     inkscape:pagecheckerboard="0"
     inkscape:deskcolor="#d1d1d1"
     inkscape:zoom="8.2643105"
     inkscape:cx="27.165001"
     inkscape:cy="26.741493"
     inkscape:window-width="1920"
     inkscape:window-height="994"
     inkscape:window-x="0"
     inkscape:window-y="0"
     inkscape:window-maximized="1"
     inkscape:current-layer="svg1" />
  <rect
     x="3.0000381"
     y="3.0005379"
     width="55.999924"
     height="55.998924"
     rx="8.6153727"
     ry="8.6152191"
     style="stroke-width:1.07691;paint-order:stroke fill markers;fill:#c83771;fill-opacity:1"
     id="rect1" />
  <path
     d="m 35.292609,22.587238 c 0,0 3.993225,0.648295 3.981379,2.288417 0,0.05923 0.0011,0.107691 -0.01077,0.165843 -0.233692,1.464588 -4.235533,1.683199 -7.01076,1.836119 -0.57723,0.03231 -1.10169,0.06246 -1.529228,0.09908 -0.358615,0.03123 -0.807692,0.05385 -1.318152,0.07969 h -0.0043 c -2.995996,0.15615 -8.089835,0.421068 -9.538295,2.950712 a 0.96492175,0.9649045 0 0 0 -0.12923,0.449068 c -0.0043,1.109209 2.367073,2.073037 5.218762,3.230707 4.092302,1.660584 9.175372,3.722852 9.645987,7.199093 0.02369,0.188457 0.03661,0.389838 0.03661,0.578296 -0.01077,5.750659 -11.79983,10.862714 -26.5407329,16.782446 1.074768,0.480296 2.2636889,0.753829 3.5215339,0.753829 h 38.769175 c 4.77184,0 8.615373,-3.843464 8.615373,-8.615219 V 46.659236 C 57.449194,43.117304 54.909813,39.908135 50.816434,37.783407 45.469518,34.999614 38.431835,33.491951 33.177535,32.367665 29.079848,31.48999 26.065545,30.844925 25.786622,30.008172 a 0.88092187,0.88090612 0 0 1 -0.03554,-0.236919 c 0.01077,-1.308436 4.077225,-1.615353 6.739375,-1.744581 2.815073,-0.142152 7.078606,-0.520144 7.596605,-2.549028 0.01615,-0.06462 0.02692,-0.128151 0.03231,-0.191688 0.0022,-0.03123 0.0022,-0.06031 0.0022,-0.09046 0.01077,-1.887809 -4.829993,-2.608257 -4.829993,-2.608257 z"
     id="path1"
     style="stroke-width:1.07691;fill:#f2f2f2;fill-opacity:1" />
</svg>
