<?xml version="1.0" encoding="UTF-8" standalone="no"?>
<svg
   width="62"
   height="62"
   version="1"
   id="svg7"
   sodipodi:docname="AppImage.svg"
   inkscape:version="1.4 (e7c3feb100, 2024-10-09)"
   xmlns:inkscape="http://www.inkscape.org/namespaces/inkscape"
   xmlns:sodipodi="http://sodipodi.sourceforge.net/DTD/sodipodi-0.dtd"
   xmlns:xlink="http://www.w3.org/1999/xlink"
   xmlns="http://www.w3.org/2000/svg"
   xmlns:svg="http://www.w3.org/2000/svg">
  <defs
     id="defs7">
    <linearGradient
       id="linearGradient3"
       inkscape:collect="always">
      <stop
         style="stop-color:#2a7fff;stop-opacity:1"
         offset="0"
         id="stop5" />
      <stop
         style="stop-color:#8ab9ff;stop-opacity:1;"
         offset="1"
         id="stop6" />
    </linearGradient>
    <linearGradient
       id="linearGradient7"
       inkscape:collect="always">
      <stop
         style="stop-color:#384850;stop-opacity:1;"
         offset="0"
         id="stop8" />
      <stop
         style="stop-color:#384850;stop-opacity:1;"
         offset="0.59162253"
         id="stop10" />
      <stop
         style="stop-color:#eff2f6;stop-opacity:1;"
         offset="0.92173076"
         id="stop11" />
      <stop
         style="stop-color:#eff2f6;stop-opacity:1;"
         offset="1"
         id="stop9" />
    </linearGradient>
    <linearGradient
       id="c-3"
       gradientUnits="userSpaceOnUse"
       x1="24.072048"
       x2="23.959682"
       y1="0.75082099"
       y2="46.056854">
      <stop
         offset="0"
         stop-color="#fff"
         id="stop3" />
      <stop
         offset="1"
         stop-color="#d9d9d9"
         id="stop4" />
    </linearGradient>
    <linearGradient
       id="b-6"
       gradientUnits="userSpaceOnUse"
       x1="29.203026"
       x2="34.121048"
       xlink:href="#a-7"
       y1="24.827356"
       y2="29.224836" />
    <linearGradient
       id="a-7">
      <stop
         offset="0"
         id="stop1" />
      <stop
         offset="1"
         stop-opacity="0"
         id="stop2" />
    </linearGradient>
    <linearGradient
       id="d"
       gradientUnits="userSpaceOnUse"
       x1="15.948756"
       x2="25.031786"
       xlink:href="#a-7"
       y1="23.618279"
       y2="33.69899" />
    <linearGradient
       id="e"
       gradientUnits="userSpaceOnUse"
       x1="21.990562"
       x2="29.320522"
       xlink:href="#a-7"
       y1="33.780373"
       y2="41.931858" />
    <linearGradient
       id="paint154_linear_890_11"
       x1="778"
       y1="812.29199"
       x2="788"
       y2="812.29199"
       gradientUnits="userSpaceOnUse"
       gradientTransform="translate(-751,-696)">
      <stop
         stop-color="#EFF2F6"
         id="stop1050" />
      <stop
         offset="0.600785"
         stop-color="#B7C6CD"
         id="stop1051" />
    </linearGradient>
    <linearGradient
       id="paint155_linear_890_11"
       x1="783"
       y1="813"
       x2="783"
       y2="817"
       gradientUnits="userSpaceOnUse"
       gradientTransform="translate(-751,-696)">
      <stop
         stop-color="#EFF2F6"
         id="stop1052" />
      <stop
         offset="0.734138"
         stop-color="#B7C6CD"
         id="stop1053" />
    </linearGradient>
    <radialGradient
       id="paint156_radial_890_11"
       cx="0"
       cy="0"
       r="1"
       gradientUnits="userSpaceOnUse"
       gradientTransform="matrix(27.999986,27.999976,-27.999986,27.999976,32.302392,33.999998)">
      <stop
         offset="0.60067803"
         stop-color="#B7C6CD"
         id="stop1054"
         style="stop-color:#384850;stop-opacity:1;" />
      <stop
         offset="0.876735"
         stop-color="#EFF2F6"
         id="stop1055" />
    </radialGradient>
    <linearGradient
       id="paint157_linear_890_11"
       x1="796.84485"
       y1="799.43359"
       x2="768.90088"
       y2="770.81476"
       gradientUnits="userSpaceOnUse"
       gradientTransform="matrix(1.1666666,0,0,1.1666668,-881.19764,-881.8333)">
      <stop
         offset="0.00000057"
         stop-color="#2E2E41"
         id="stop1056"
         style="stop-color:#495361;stop-opacity:1;" />
      <stop
         offset="0.711139"
         stop-color="#566C80"
         id="stop1057" />
    </linearGradient>
    <linearGradient
       id="paint158_linear_890_11"
       x1="792"
       y1="794"
       x2="774"
       y2="776"
       gradientUnits="userSpaceOnUse"
       gradientTransform="translate(-751,-696)">
      <stop
         offset="0.304478"
         stop-color="#2E2E41"
         id="stop1058" />
      <stop
         offset="1"
         stop-color="#566C80"
         id="stop1059" />
    </linearGradient>
    <linearGradient
       id="paint159_linear_890_11"
       x1="788"
       y1="790"
       x2="778"
       y2="780"
       gradientUnits="userSpaceOnUse"
       gradientTransform="translate(-751,-696)">
      <stop
         offset="0.391394"
         stop-color="#5200FF"
         id="stop1060" />
      <stop
         offset="1"
         stop-color="#0085FF"
         id="stop1061" />
    </linearGradient>
    <linearGradient
       id="paint160_linear_890_11"
       x1="784"
       y1="798"
       x2="782"
       y2="796"
       gradientUnits="userSpaceOnUse"
       gradientTransform="translate(-751,-696)">
      <stop
         stop-color="#FF7E07"
         id="stop1062" />
      <stop
         offset="1"
         stop-color="#FFE607"
         id="stop1063" />
    </linearGradient>
    <radialGradient
       inkscape:collect="always"
       xlink:href="#linearGradient7"
       id="radialGradient9"
       cx="32.302387"
       cy="34"
       fx="32.302387"
       fy="34"
       r="28"
       gradientUnits="userSpaceOnUse"
       gradientTransform="matrix(0.99999999,1,-1,0.99999999,34,-32.302387)" />
    <linearGradient
       inkscape:collect="always"
       xlink:href="#linearGradient933"
       id="linearGradient935"
       x1="63.855331"
       y1="122.63078"
       x2="63.855331"
       y2="15.286823"
       gradientUnits="userSpaceOnUse"
       gradientTransform="matrix(0.39895775,0,0,0.39895809,11.857905,45.742507)" />
    <linearGradient
       inkscape:collect="always"
       id="linearGradient933">
      <stop
         style="stop-color:#393f4a;stop-opacity:1;"
         offset="0"
         id="stop929" />
      <stop
         style="stop-color:#6f7c91;stop-opacity:1"
         offset="1"
         id="stop931" />
    </linearGradient>
    <linearGradient
       id="paint0_linear_54_1196"
       x1="64"
       y1="120"
       x2="64"
       y2="8"
       gradientUnits="userSpaceOnUse"
       gradientTransform="matrix(0.28571429,0,0,0.28571429,12.714302,12.714286)">
      <stop
         stop-color="#5570FF"
         id="stop2-6" />
      <stop
         offset="1"
         stop-color="#4DD3FF"
         id="stop3-8" />
    </linearGradient>
    <linearGradient
       inkscape:collect="always"
       xlink:href="#linearGradient3"
       id="linearGradient6"
       x1="36.607105"
       y1="47"
       x2="36.436516"
       y2="15"
       gradientUnits="userSpaceOnUse" />
  </defs>
  <sodipodi:namedview
     id="namedview7"
     pagecolor="#ffffff"
     bordercolor="#000000"
     borderopacity="0.25"
     inkscape:showpageshadow="2"
     inkscape:pageopacity="0.0"
     inkscape:pagecheckerboard="0"
     inkscape:deskcolor="#d1d1d1"
     inkscape:zoom="8.3306018"
     inkscape:cx="35.111509"
     inkscape:cy="40.573299"
     inkscape:window-width="1920"
     inkscape:window-height="994"
     inkscape:window-x="0"
     inkscape:window-y="0"
     inkscape:window-maximized="1"
     inkscape:current-layer="svg7" />
  <g
     id="g1"
     transform="translate(-1.3023872,-3)">
    <path
       d="m 60.302387,34 c 0,15.46415 -12.535828,28 -28.000002,28 C 16.838222,62 4.3023873,49.46415 4.3023873,34 4.3023873,18.535835 16.838222,6 32.302385,6 47.766559,6 60.302387,18.535835 60.302387,34 Z"
       id="path154"
       style="fill:url(#radialGradient9)" />
  </g>
  <g
     id="g2"
     transform="translate(-6.3334846,-40.333549)">
    <circle
       style="fill:url(#linearGradient935);fill-opacity:1;stroke:none;stroke-width:0.604378;stroke-linecap:round;stroke-miterlimit:4;stroke-dasharray:none;stroke-opacity:1"
       id="path1096"
       cx="37.333485"
       cy="71.333549"
       r="23.3335" />
    <g
       id="g1009"
       transform="matrix(1.0617363,0,0,1.0617371,26.342866,223.78528)" />
  </g>
  <g
     id="g3"
     transform="matrix(1.125,0,0,1.125,-3.8749999,-3.875)">
    <path
       opacity="1"
       d="m 46.545449,34.792 c -0.32686,-0.48 -0.79172,-0.96 -1.394,-1.264 -0.482,-0.224 -0.79172,-0.592 -1.06715,-1.024 -0.878,-1.376 -0.36142,-3.184 1.10143,-4 1.72115,-0.912 2.272,-2.944 1.27371,-4.528 l -1.15314,-1.888 c -0.98114,-1.584 -3.13257,-2.144 -4.8366,-1.216 -1.51465,0.768 -3.4596,0.256 -4.3374,-1.104 -0.2754,-0.448 -0.43031,-0.928 -0.39588,-1.408 0.0516,-0.624 -0.15492,-1.216 -0.46471,-1.696 C 34.634849,15.672 33.481649,15 32.207989,15 h -2.426886 c -1.256489,0.032 -2.409685,0.672 -3.046515,1.664 -0.327029,0.48 -0.516373,1.072 -0.48194,1.696 0.03446,0.48 -0.120487,0.96 -0.395859,1.408 -0.877832,1.36 -2.822776,1.872 -4.320199,1.104 -1.721201,-0.928 -3.855455,-0.368 -4.853774,1.216 l -1.153187,1.888 c -0.98108,1.584 -0.430296,3.616 1.273672,4.528 1.463028,0.816 1.979374,2.624 1.118772,4 -0.292603,0.432 -0.602398,0.8 -1.084343,1.024 -0.585201,0.304 -1.10154,0.784 -1.376944,1.264 -0.636843,0.992 -0.602417,2.24 0.03445,3.28 l 1.187604,1.92 c 0.636855,1.024 1.824484,1.664 3.063741,1.664 0.5852,0 1.273684,-0.16 1.824457,-0.48 0.430287,-0.272 0.94666,-0.368 1.51466,-0.368 1.70397,0 3.13254,1.328 3.166974,2.912 0,1.84 1.583507,3.28 3.580083,3.28 h 2.340824 c 1.97937,0 3.56285,-1.44 3.56285,-3.28 0.0516,-1.584 1.48023,-2.912 3.1842,-2.912 0.5508,0 1.06715,0.096 1.51466,0.368 0.55078,0.32 1.22217,0.48 1.82446,0.48 1.222,0 2.40971,-0.64 3.04657,-1.664 l 1.20485,-1.92 c 0.61944,-1.072 0.67115,-2.288 0.0343,-3.28 z"
       id="path1-9"
       style="fill:url(#linearGradient6)" />
    <path
       d="m 29.376072,21.857143 c -0.502513,0 -0.852255,0.404544 -0.852255,0.907027 v 10.331059 c 0,0.105142 -0.08529,0.190483 -0.190487,0.190483 h -3.212368 c -0.161491,0 -0.249714,0.188367 -0.146317,0.312378 l 5.942514,7.131053 c 0.07617,0.09144 0.216515,0.09144 0.292687,0 l 5.942543,-7.131053 c 0.10343,-0.124011 0.0151,-0.312378 -0.14628,-0.312378 h -3.21238 c -0.10534,0 -0.19048,-0.08534 -0.19048,-0.190483 V 22.76417 c 0,-0.502483 -0.34992,-0.907027 -0.85238,-0.907027 z"
       id="path2-1"
       style="fill:#e5efff;fill-opacity:1" />
  </g>
</svg>
