<?xml version="1.0" encoding="UTF-8" standalone="no"?>
<svg
   width="62"
   height="62"
   version="1.1"
   id="svg10"
   sodipodi:docname="cryptr.svg"
   inkscape:version="1.4 (unknown)"
   xmlns:inkscape="http://www.inkscape.org/namespaces/inkscape"
   xmlns:sodipodi="http://sodipodi.sourceforge.net/DTD/sodipodi-0.dtd"
   xmlns:xlink="http://www.w3.org/1999/xlink"
   xmlns="http://www.w3.org/2000/svg"
   xmlns:svg="http://www.w3.org/2000/svg">
  <defs
     id="defs10">
    <linearGradient
       id="linearGradient11"
       inkscape:collect="always">
      <stop
         style="stop-color:#2c3842;stop-opacity:1;"
         offset="0"
         id="stop11" />
      <stop
         style="stop-color:#4a5e6f;stop-opacity:1;"
         offset="1"
         id="stop12" />
    </linearGradient>
    <linearGradient
       inkscape:collect="always"
       xlink:href="#linearGradient11"
       id="linearGradient12"
       x1="30.978724"
       y1="60"
       x2="32"
       y2="4"
       gradientUnits="userSpaceOnUse"
       gradientTransform="matrix(1,0,0,0.98245614,-1,-0.92982455)" />
  </defs>
  <sodipodi:namedview
     id="namedview10"
     pagecolor="#ffffff"
     bordercolor="#000000"
     borderopacity="0.25"
     inkscape:showpageshadow="2"
     inkscape:pageopacity="0.0"
     inkscape:pagecheckerboard="0"
     inkscape:deskcolor="#d1d1d1"
     inkscape:zoom="5.875"
     inkscape:cx="70.042553"
     inkscape:cy="54.893617"
     inkscape:window-width="1920"
     inkscape:window-height="998"
     inkscape:window-x="0"
     inkscape:window-y="0"
     inkscape:window-maximized="1"
     inkscape:current-layer="svg10" />
  <rect
     style="opacity:0.2;stroke-width:0.991189"
     width="56"
     height="55.017544"
     x="3"
     y="3.9824562"
     rx="16.799999"
     ry="16.505262"
     id="rect1" />
  <rect
     style="fill:url(#linearGradient12);stroke-width:0.991189"
     width="56"
     height="55.017544"
     x="3"
     y="3"
     rx="16.799999"
     ry="16.505262"
     id="rect2" />
  <path
     style="opacity:0.1;fill:#ffffff;stroke-width:0.991189"
     d="M 19.800781,3 C 10.493582,3 3,10.362116 3,19.50603 v 0.982457 C 3,11.344572 10.493582,3.9824562 19.800781,3.9824562 H 42.199219 C 51.506418,3.9824562 59,11.344572 59,20.488487 V 19.50603 C 59,10.362116 51.506418,3 42.199219,3 Z"
     id="path9" />
  <g
     id="g1"
     style="fill:#e5e5e5;fill-opacity:1">
    <path
       style="opacity:0.1;stroke-width:0.940584;fill:#e5e5e5;fill-opacity:1"
       d="M 21.599999,7.47057 A 1.8800003,1.8823525 0 0 0 19.720006,9.352934 1.8800003,1.8823525 0 0 0 21.599999,11.235279 1.8800003,1.8823525 0 0 0 23.48001,9.352934 1.8800003,1.8823525 0 0 0 21.599999,7.47057 Z m 19.739975,0 a 1.8800003,1.8823525 0 0 0 -1.88003,1.882364 1.8800003,1.8823525 0 0 0 1.88003,1.882345 1.8800003,1.8823525 0 0 0 1.88003,-1.882345 1.8800003,1.8823525 0 0 0 -1.88003,-1.882364 z m -25.958298,6.588245 c -0.721054,0 -1.301671,0.581357 -1.301671,1.303304 v 31.275739 c 0,0.721955 0.580617,1.3033 1.301671,1.3033 h 31.236638 c 0.72112,0 1.30177,-0.581345 1.30177,-1.3033 V 15.362119 c 0,-0.721947 -0.58065,-1.303304 -1.30177,-1.303304 z m -6.0016854,4.705881 a 1.8800003,1.8823525 0 0 0 -1.879993,1.882345 1.8800003,1.8823525 0 0 0 1.879993,1.882363 1.8800003,1.8823525 0 0 0 1.8800114,-1.882363 1.8800003,1.8823525 0 0 0 -1.8800114,-1.882345 z m 43.2399834,0.941172 a 1.8800003,1.8823525 0 0 0 -1.88004,1.882347 1.8800003,1.8823525 0 0 0 1.88004,1.882362 1.8800003,1.8823525 0 0 0 1.88002,-1.882362 1.8800003,1.8823525 0 0 0 -1.88002,-1.882347 z M 9.3799906,38.529394 a 1.8800003,1.8823525 0 0 0 -1.879993,1.882361 1.8800003,1.8823525 0 0 0 1.879993,1.882346 1.8800003,1.8823525 0 0 0 1.8800114,-1.882346 1.8800003,1.8823525 0 0 0 -1.8800114,-1.882361 z m 43.2399834,0.941188 a 1.8800003,1.8823525 0 0 0 -1.88004,1.882346 1.8800003,1.8823525 0 0 0 1.88004,1.882347 1.8800003,1.8823525 0 0 0 1.88002,-1.882347 1.8800003,1.8823525 0 0 0 -1.88002,-1.882346 z M 20.660002,50.764691 a 1.8800003,1.8823525 0 0 0 -1.879992,1.882361 1.8800003,1.8823525 0 0 0 1.879992,1.882347 1.8800003,1.8823525 0 0 0 1.879995,-1.882347 1.8800003,1.8823525 0 0 0 -1.879995,-1.882361 z m 19.739962,0 a 1.8800003,1.8823525 0 0 0 -1.88003,1.882361 1.8800003,1.8823525 0 0 0 1.88003,1.882347 1.8800003,1.8823525 0 0 0 1.88002,-1.882347 1.8800003,1.8823525 0 0 0 -1.88002,-1.882361 z"
       id="path2" />
    <rect
       style="fill:#e5e5e5;stroke-width:0.940584;fill-opacity:1"
       width="33.840034"
       height="33.882374"
       x="14.080009"
       y="13.117638"
       rx="1.3019001"
       ry="1.303529"
       id="rect3" />
    <path
       style="opacity:0.2;stroke-width:0.940584;fill:#e5e5e5;fill-opacity:1"
       d="m 30.999994,20.647041 a 5.6400023,5.647059 0 0 0 -5.639991,5.64707 5.6400023,5.647059 0 0 0 2.770461,4.854767 l -2.770461,8.321704 h 11.280081 l -2.77058,-8.321704 a 5.6400023,5.647059 0 0 0 2.77058,-4.854767 5.6400023,5.647059 0 0 0 -5.64009,-5.64707 z"
       id="path3" />
    <ellipse
       style="fill:#2c3842;stroke-width:0.940584;fill-opacity:1"
       cx="31"
       cy="25.352938"
       id="circle3"
       rx="5.6400056"
       ry="5.6470623" />
    <path
       style="fill:#2c3842;stroke-width:1.35066;fill-opacity:1"
       d="m 31.000004,21.588215 5.64008,16.94118 -11.280081,-2e-6 z"
       id="path4" />
    <ellipse
       style="fill:#e5e5e5;stroke-width:0.940584;fill-opacity:1"
       cx="9.3800049"
       cy="19.705877"
       id="circle4"
       rx="1.8800006"
       ry="1.8823528" />
    <ellipse
       style="fill:#e5e5e5;stroke-width:0.940584;fill-opacity:1"
       cx="9.3800049"
       cy="39.470596"
       id="circle5"
       rx="1.8800006"
       ry="1.8823528" />
    <ellipse
       style="fill:#e5e5e5;stroke-width:0.940584;fill-opacity:1"
       cx="8.4117517"
       cy="-41.34008"
       transform="rotate(90)"
       id="circle6"
       rx="1.8823528"
       ry="1.8800006" />
    <ellipse
       style="fill:#e5e5e5;stroke-width:0.940584;fill-opacity:1"
       cx="8.4117517"
       cy="-21.600014"
       transform="rotate(90)"
       id="circle7"
       rx="1.8823528"
       ry="1.8800006" />
    <ellipse
       style="fill:#e5e5e5;stroke-width:0.940584;fill-opacity:1"
       cx="-52.61998"
       cy="-40.411774"
       transform="scale(-1)"
       id="circle8"
       rx="1.8800006"
       ry="1.8823528" />
    <ellipse
       style="fill:#e5e5e5;stroke-width:0.940584;fill-opacity:1"
       cx="-52.61998"
       cy="-20.647053"
       transform="scale(-1)"
       id="circle9"
       rx="1.8800006"
       ry="1.8823528" />
    <ellipse
       style="fill:#e5e5e5;stroke-width:0.940584;fill-opacity:1"
       cx="-51.705894"
       cy="20.660011"
       transform="rotate(-90)"
       id="circle10"
       rx="1.8823528"
       ry="1.8800006" />
    <ellipse
       style="fill:#e5e5e5;stroke-width:0.940584;fill-opacity:1"
       cx="-51.705894"
       cy="40.400017"
       transform="rotate(-90)"
       id="circle11"
       rx="1.8823528"
       ry="1.8800006" />
  </g>
</svg>
