<?xml version="1.0" encoding="UTF-8" standalone="no"?>
<svg
   width="62"
   height="62"
   version="1"
   id="svg5"
   sodipodi:docname="appimagekit-clickup-desktop.svg"
   inkscape:version="1.4 (unknown)"
   xmlns:inkscape="http://www.inkscape.org/namespaces/inkscape"
   xmlns:sodipodi="http://sodipodi.sourceforge.net/DTD/sodipodi-0.dtd"
   xmlns="http://www.w3.org/2000/svg"
   xmlns:svg="http://www.w3.org/2000/svg">
  <defs
     id="defs5" />
  <sodipodi:namedview
     id="namedview5"
     pagecolor="#ffffff"
     bordercolor="#000000"
     borderopacity="0.25"
     inkscape:showpageshadow="2"
     inkscape:pageopacity="0.0"
     inkscape:pagecheckerboard="0"
     inkscape:deskcolor="#d1d1d1"
     inkscape:zoom="12.140625"
     inkscape:cx="32.082368"
     inkscape:cy="25.410553"
     inkscape:window-width="1920"
     inkscape:window-height="1000"
     inkscape:window-x="0"
     inkscape:window-y="0"
     inkscape:window-maximized="1"
     inkscape:current-layer="svg5" />
  <ellipse
     style="opacity:0.2;stroke-width:1.05715"
     cx="31"
     cy="31.528301"
     id="circle1"
     rx="27.5"
     ry="27.471699" />
  <ellipse
     style="fill:#d9d9d9;stroke-width:1.05715;fill-opacity:1"
     cx="31"
     cy="30.471699"
     id="circle2"
     rx="27.5"
     ry="27.471699" />
  <path
     style="opacity:0.2;fill:#ffffff;stroke-width:1.05715"
     d="M 31,2.9999993 A 27.5,27.471699 0 0 0 3.5000002,30.471698 27.5,27.471699 0 0 0 3.5227406,31.095094 27.5,27.471699 0 0 1 31,4.0566031 27.5,27.471699 0 0 1 58.477788,30.904906 27.5,27.471699 0 0 0 58.5,30.471698 27.5,27.471699 0 0 0 31,2.9999993 Z"
     id="path5" />
  <g
     transform="matrix(1.3548169,0,0,1.3548208,-9.644778,-11.677132)"
     id="g2">
    <path
       d="m 30,16 -13.826,11.549 4.2227,4.8574 9.6035,-8.0215 9.6035,8.0215 4.2226,-4.8574 z"
       fill="#ff6d6f"
       style="paint-order:stroke markers fill"
       id="path1" />
    <path
       d="m 39.539,35.706 a 11,11 0 0 1 -9.8605,5.2851 11,11 0 0 1 -8.9408,-5.2855 l -4.8025,3.6164 a 17,17 0 0 0 13.495,7.6639 17,17 0 0 0 14.635,-7.245 z"
       fill="#6a7efb"
       style="paint-order:stroke markers fill"
       id="path2-3" />
  </g>
</svg>
