<?xml version="1.0" encoding="UTF-8" standalone="no"?>
<svg
   width="62"
   height="62"
   version="1.1"
   id="svg6"
   sodipodi:docname="AppImageLauncher.svg"
   inkscape:version="1.4 (e7c3feb100, 2024-10-09)"
   xmlns:inkscape="http://www.inkscape.org/namespaces/inkscape"
   xmlns:sodipodi="http://sodipodi.sourceforge.net/DTD/sodipodi-0.dtd"
   xmlns:xlink="http://www.w3.org/1999/xlink"
   xmlns="http://www.w3.org/2000/svg"
   xmlns:svg="http://www.w3.org/2000/svg">
  <defs
     id="defs6">
    <linearGradient
       id="linearGradient6"
       inkscape:collect="always">
      <stop
         style="stop-color:#1b627c;stop-opacity:1;"
         offset="0"
         id="stop6" />
      <stop
         style="stop-color:#b49ddf;stop-opacity:1"
         offset="1"
         id="stop7" />
    </linearGradient>
    <linearGradient
       inkscape:collect="always"
       xlink:href="#linearGradient6"
       id="linearGradient7"
       x1="31.122631"
       y1="58.507599"
       x2="32"
       y2="5"
       gradientUnits="userSpaceOnUse" />
  </defs>
  <sodipodi:namedview
     id="namedview6"
     pagecolor="#ffffff"
     bordercolor="#000000"
     borderopacity="0.25"
     inkscape:showpageshadow="2"
     inkscape:pageopacity="0.0"
     inkscape:pagecheckerboard="0"
     inkscape:deskcolor="#d1d1d1"
     inkscape:zoom="11.75"
     inkscape:cx="32"
     inkscape:cy="32"
     inkscape:window-width="1920"
     inkscape:window-height="998"
     inkscape:window-x="0"
     inkscape:window-y="0"
     inkscape:window-maximized="1"
     inkscape:current-layer="svg6" />
  <g
     id="g6"
     transform="matrix(0.98214286,0,0,0.98245614,-0.42857152,-0.92982455)">
    <circle
       style="opacity:0.2"
       cx="32"
       cy="33"
       r="28"
       id="circle1" />
    <circle
       style="fill:url(#linearGradient7)"
       cx="32"
       cy="32"
       r="28"
       id="circle2" />
    <path
       style="opacity:0.2"
       d="M 32,13.750084 14.812522,42.62505 29.84927,34.142562 32,32.930128 Z m 0,0 L 49.187476,42.62505 34.150728,34.142562 32,32.930128 Z"
       id="path2" />
    <path
       style="opacity:0.2"
       d="M 32,11 A 22.000016,22.000028 0 0 0 10.000001,33 22.000016,22.000028 0 0 0 32,55 22.000016,22.000028 0 0 0 54,33 22.000016,22.000028 0 0 0 32,11 Z m 0,2.75 A 19.25001,19.250021 0 0 1 51.25,33 19.25001,19.250021 0 0 1 32,52.25 19.25001,19.250021 0 0 1 12.750001,33 19.25001,19.250021 0 0 1 32,13.75 Z"
       id="path3" />
    <path
       style="fill:#ffffff"
       d="M 32,10 A 22.000016,22.000028 0 0 0 10.000001,32 22.000016,22.000028 0 0 0 32,54 22.000016,22.000028 0 0 0 54,32 22.000016,22.000028 0 0 0 32,10 Z m 0,2.75 A 19.25001,19.250021 0 0 1 51.25,32 19.25001,19.250021 0 0 1 32,51.25 19.25001,19.250021 0 0 1 12.750001,32 19.25001,19.250021 0 0 1 32,12.75 Z"
       id="path4" />
    <path
       style="fill:#ffffff"
       d="M 32,12.750084 14.812522,41.62505 29.84927,33.142562 32,31.930128 Z m 0,0 L 49.187476,41.62505 34.150728,33.142562 32,31.930128 Z"
       id="path5" />
    <path
       style="opacity:0.1;fill:#ffffff"
       d="M 32,4 A 28,28 0 0 0 4,32 28,28 0 0 0 4.0175781,32.492188 28,28 0 0 1 32,5 28,28 0 0 1 59.974609,32.492188 28,28 0 0 0 60,32 28,28 0 0 0 32,4 Z"
       id="path6" />
  </g>
</svg>
