<?xml version="1.0" encoding="UTF-8" standalone="no"?>
<svg
   width="62"
   height="62"
   version="1.0"
   id="svg2"
   sodipodi:docname="applications-electronics-SchematicPCB.svg"
   inkscape:version="1.4 (e7c3feb100, 2024-10-09)"
   xmlns:inkscape="http://www.inkscape.org/namespaces/inkscape"
   xmlns:sodipodi="http://sodipodi.sourceforge.net/DTD/sodipodi-0.dtd"
   xmlns="http://www.w3.org/2000/svg"
   xmlns:svg="http://www.w3.org/2000/svg">
  <defs
     id="defs2" />
  <sodipodi:namedview
     id="namedview2"
     pagecolor="#ffffff"
     bordercolor="#000000"
     borderopacity="0.25"
     inkscape:showpageshadow="2"
     inkscape:pageopacity="0.0"
     inkscape:pagecheckerboard="0"
     inkscape:deskcolor="#d1d1d1"
     inkscape:zoom="12.109375"
     inkscape:cx="32"
     inkscape:cy="32"
     inkscape:window-width="1920"
     inkscape:window-height="998"
     inkscape:window-x="0"
     inkscape:window-y="0"
     inkscape:window-maximized="1"
     inkscape:current-layer="svg2" />
  <g
     id="g2"
     transform="translate(-3,-3)">
    <rect
       x="6"
       y="6"
       width="56"
       height="56"
       rx="8.615387"
       ry="8.615387"
       fill="#666666"
       fill-opacity="0.9098"
       id="rect1"
       style="stroke-width:1.07686" />
    <rect
       x="6"
       y="21.076921"
       width="56"
       height="25.846165"
       fill="#474747"
       fill-opacity="0.96078"
       opacity="0.75"
       stroke-linecap="round"
       stroke-linejoin="round"
       stroke-width="0.685792"
       id="rect2" />
    <path
       d="m 30.561394,41.793699 q 0,4.460296 -3.163142,6.94864 -3.163137,2.488335 -8.526861,2.488335 -2.75057,0 -5.088571,-0.422557 -2.338001,-0.422547 -3.8966343,-1.17373 v -4.037716 q 1.6503893,0.751214 4.0800273,1.361562 2.47553,0.610356 5.088573,0.610356 3.667465,0 5.501147,-1.455462 1.879549,-1.455461 1.879549,-3.943803 0,-1.643275 -0.687657,-2.770059 -0.687636,-1.126792 -2.383878,-2.065872 -1.650385,-0.985951 -4.630124,-2.065861 -4.171675,-1.549365 -6.326385,-3.802941 -2.108835,-2.253564 -2.108835,-6.150523 0,-2.676148 1.329461,-4.554196 1.329462,-1.925006 3.667463,-2.957879 2.383878,-1.032916 5.455373,-1.032916 2.704694,0 4.951049,0.516458 2.246349,0.516448 4.080029,1.361551 l -1.283582,3.615126 Q 26.80224,21.511 24.785055,20.994564 q -1.971199,-0.516446 -4.125911,-0.516446 -3.071493,0 -4.630121,1.36155 -1.558629,1.314604 -1.558629,3.521323 0,1.690229 0.687648,2.817023 0.687658,1.126782 2.246351,2.018904 1.558629,0.892059 4.217554,1.924999 2.888096,1.079836 4.859402,2.347477 2.017077,1.220694 3.025617,2.957879 1.054396,1.737184 1.054396,4.366385 z M 45.826779,17.238771 q 6.418034,0 9.352005,2.582245 2.933965,2.582254 2.933965,7.277317 0,2.770056 -1.237813,5.211444 -1.191935,2.394435 -4.080031,3.896844 -2.842321,1.502416 -7.74749,1.502416 h -3.759112 v 13.052315 h -4.12591 V 17.238877 Z m -0.366748,3.615127 h -4.171675 v 13.239694 h 3.300662 q 4.676004,0 6.968124,-1.549372 2.292123,-1.549366 2.292123,-5.258402 0,-3.239601 -2.017076,-4.83592 -2.017079,-1.596326 -6.372158,-1.596326 z"
       fill="#ffffff"
       stroke-width="0.148368"
       aria-label="SP"
       id="path2" />
  </g>
</svg>
