<?xml version="1.0" encoding="UTF-8" standalone="no"?>
<svg
   width="62"
   height="62"
   version="1.1"
   id="svg5"
   sodipodi:docname="applixware.svg"
   inkscape:version="1.4 (unknown)"
   xmlns:inkscape="http://www.inkscape.org/namespaces/inkscape"
   xmlns:sodipodi="http://sodipodi.sourceforge.net/DTD/sodipodi-0.dtd"
   xmlns:xlink="http://www.w3.org/1999/xlink"
   xmlns="http://www.w3.org/2000/svg"
   xmlns:svg="http://www.w3.org/2000/svg">
  <defs
     id="defs5">
    <linearGradient
       id="linearGradient1"
       inkscape:collect="always">
      <stop
         style="stop-color:#b3b3b3;stop-opacity:1"
         offset="0"
         id="stop1" />
      <stop
         style="stop-color:#ececec;stop-opacity:1"
         offset="1"
         id="stop2" />
    </linearGradient>
    <linearGradient
       id="paint1_linear_54_1200"
       x1="16"
       y1="26"
       x2="16"
       y2="6"
       gradientUnits="userSpaceOnUse"
       gradientTransform="matrix(3.0397983,0,0,3.0420943,35.820936,133.83376)">
      <stop
         stop-color="#5570FF"
         id="stop3" />
      <stop
         offset="1"
         stop-color="#4DD3FF"
         id="stop4" />
    </linearGradient>
    <linearGradient
       id="b"
       x2="1"
       gradientTransform="matrix(0,53.924267,-54.848095,0,-82.617655,4.9995256)"
       gradientUnits="userSpaceOnUse">
      <stop
         stop-color="#7cb3ff"
         offset="0"
         id="stop3-3" />
      <stop
         stop-color="#003ccd"
         offset="1"
         id="stop4-6" />
    </linearGradient>
    <linearGradient
       inkscape:collect="always"
       xlink:href="#linearGradient1"
       id="linearGradient2"
       x1="31.5"
       y1="59.017544"
       x2="31.5"
       y2="4.9824562"
       gradientUnits="userSpaceOnUse" />
  </defs>
  <sodipodi:namedview
     id="namedview5"
     pagecolor="#ffffff"
     bordercolor="#000000"
     borderopacity="0.25"
     inkscape:showpageshadow="2"
     inkscape:pageopacity="0.0"
     inkscape:pagecheckerboard="0"
     inkscape:deskcolor="#d1d1d1"
     inkscape:zoom="5.84375"
     inkscape:cx="20.278075"
     inkscape:cy="29.176471"
     inkscape:window-width="1920"
     inkscape:window-height="996"
     inkscape:window-x="0"
     inkscape:window-y="0"
     inkscape:window-maximized="1"
     inkscape:current-layer="svg5" />
  <rect
     style="opacity:0.2;stroke-width:0.9823"
     width="55"
     height="55.017544"
     x="4"
     y="4.9824562"
     rx="8.25"
     ry="8.2526312"
     id="rect1" />
  <rect
     style="fill:url(#linearGradient2);stroke-width:0.9823;fill-opacity:1"
     width="55"
     height="55.017544"
     x="4"
     y="4"
     rx="8.25"
     ry="8.2526312"
     id="rect2" />
  <path
     style="opacity:0.25;fill:#ffffff;stroke-width:0.9823"
     d="M 12.248466,4 C 7.6779652,4 4,7.6791384 4,12.251097 v 0.982456 C 4,8.6615945 7.6779652,4.9824561 12.248466,4.9824561 H 50.751534 C 55.322034,4.9824561 59,8.6615945 59,13.233553 V 12.251097 C 59,7.6791384 55.322034,4 50.751534,4 Z"
     id="path4" />
  <path
     d="m 28.171663,12.515391 c -0.723902,0.0494 -0.845503,0.392353 -1.249258,1.403157 L 13.016251,48.775135 c -0.73055,1.681505 -0.912001,1.68246 0.990856,1.68246 h 4.915318 c 1.894306,0.147243 2.011159,0.06841 2.636261,-1.499113 l 2.80536,-7.000575 h 14.271906 l 2.805359,7.000575 c 0.626056,1.567511 0.742905,1.646356 2.637213,1.499113 h 4.914367 c 1.902859,0 1.721407,-9.55e-4 0.990857,-1.68246 L 36.077592,13.918548 c -0.402801,-1.010804 -0.52535,-1.353758 -1.248304,-1.403157 -0.241301,-0.01614 -0.550053,-0.0019 -0.957605,0.03327 h -4.742416 c -0.407553,-0.03513 -0.716303,-0.0494 -0.957604,-0.03327 z m 3.328813,11.520698 4.111615,10.32179 H 27.38886 Z"
     fill="#4f4f4f"
     fill-rule="nonzero"
     id="path3"
     style="fill:#233143;fill-opacity:1;stroke-width:0.950003" />
</svg>
