<?xml version="1.0" encoding="UTF-8" standalone="no"?>
<svg
   width="62"
   height="62"
   version="1.1"
   id="svg4"
   sodipodi:docname="apple-music.svg"
   inkscape:version="1.4 (e7c3feb100, 2024-10-09)"
   xmlns:inkscape="http://www.inkscape.org/namespaces/inkscape"
   xmlns:sodipodi="http://sodipodi.sourceforge.net/DTD/sodipodi-0.dtd"
   xmlns="http://www.w3.org/2000/svg"
   xmlns:svg="http://www.w3.org/2000/svg">
  <defs
     id="defs4" />
  <sodipodi:namedview
     id="namedview4"
     pagecolor="#ffffff"
     bordercolor="#000000"
     borderopacity="0.25"
     inkscape:showpageshadow="2"
     inkscape:pageopacity="0.0"
     inkscape:pagecheckerboard="0"
     inkscape:deskcolor="#d1d1d1"
     inkscape:zoom="11.75"
     inkscape:cx="32"
     inkscape:cy="32"
     inkscape:window-width="1920"
     inkscape:window-height="998"
     inkscape:window-x="0"
     inkscape:window-y="0"
     inkscape:window-maximized="1"
     inkscape:current-layer="svg4" />
  <g
     id="g4"
     transform="translate(-0.5,-1.0000002)">
    <rect
       x="4"
       y="4.9824567"
       width="55"
       height="55.017544"
       rx="7.8571401"
       style="opacity:0.2;stroke-width:0.982302"
       id="rect1" />
    <rect
       x="4"
       y="4"
       width="55"
       height="55.017544"
       rx="7.8571401"
       style="fill:#d32f2f;stroke-width:0.982302"
       id="rect2" />
    <path
       d="m 44.4942,15.106631 c -0.06526,0.0043 -0.132417,0.01186 -0.199499,0.02304 L 24.59814,18.414746 c -1.07341,0.178963 -1.937428,1.198723 -1.937428,2.287283 v 18.021925 a 5.8928557,5.8947353 0 0 0 -1.964291,-0.33772 5.8928557,5.8947353 0 0 0 -5.89285,5.894738 5.8928557,5.8947353 0 0 0 5.89285,5.89473 5.8928557,5.8947353 0 0 0 5.892859,-5.89473 V 25.940511 L 42.303562,23.319344 V 34.79412 a 5.8928557,5.8947353 0 0 0 -1.964283,-0.337713 5.8928557,5.8947353 0 0 0 -5.892859,5.89473 5.8928557,5.8947353 0 0 0 5.892859,5.894738 5.8928557,5.8947353 0 0 0 5.89285,-5.894738 V 16.7722 c 0,-1.020527 -0.758531,-1.728594 -1.737929,-1.665569 z"
       style="opacity:0.2;stroke-width:0.982302"
       id="path2" />
    <path
       d="m 44.4942,14.124171 c -0.06526,0.0043 -0.132417,0.01186 -0.199499,0.02304 L 24.59814,17.432294 c -1.07341,0.178955 -1.937428,1.198716 -1.937428,2.287276 v 18.021921 a 5.8928557,5.8947353 0 0 0 -1.964291,-0.33772 5.8928557,5.8947353 0 0 0 -5.89285,5.894738 5.8928557,5.8947353 0 0 0 5.89285,5.894738 5.8928557,5.8947353 0 0 0 5.892859,-5.894738 V 24.958052 l 15.714282,-2.62116 v 11.474776 a 5.8928557,5.8947353 0 0 0 -1.964283,-0.337719 5.8928557,5.8947353 0 0 0 -5.892859,5.894738 5.8928557,5.8947353 0 0 0 5.892859,5.894729 5.8928557,5.8947353 0 0 0 5.89285,-5.894729 V 15.789743 c 0,-1.020529 -0.758531,-1.728588 -1.737929,-1.665572 z"
       style="fill:#ffffff;stroke-width:0.982302"
       id="path3" />
    <path
       d="M 11.857142,4 C 7.5042851,4 4,7.5054029 4,11.859648 v 0.982459 C 4,8.4878588 7.5042851,4.9824557 11.857142,4.9824557 h 39.2857 c 4.352858,0 7.857141,3.5054031 7.857141,7.8596513 V 11.859648 C 58.999983,7.5054029 55.4957,4 51.142842,4 Z"
       style="opacity:0.2;fill:#ffffff;stroke-width:0.982302"
       id="path4" />
  </g>
</svg>
