<?xml version="1.0" encoding="UTF-8" standalone="no"?>
<!-- Created with Inkscape (http://www.inkscape.org/) -->

<svg
   width="62"
   height="62"
   viewBox="0 0 62 62"
   version="1.1"
   id="svg1"
   inkscape:version="1.4 (e7c3feb100, 2024-10-09)"
   sodipodi:docname="application-x-firmware.svg"
   xmlns:inkscape="http://www.inkscape.org/namespaces/inkscape"
   xmlns:sodipodi="http://sodipodi.sourceforge.net/DTD/sodipodi-0.dtd"
   xmlns:xlink="http://www.w3.org/1999/xlink"
   xmlns="http://www.w3.org/2000/svg"
   xmlns:svg="http://www.w3.org/2000/svg">
  <sodipodi:namedview
     id="namedview1"
     pagecolor="#ffffff"
     bordercolor="#000000"
     borderopacity="0.25"
     inkscape:showpageshadow="2"
     inkscape:pageopacity="0.0"
     inkscape:pagecheckerboard="0"
     inkscape:deskcolor="#d1d1d1"
     inkscape:document-units="px"
     inkscape:zoom="10.74725"
     inkscape:cx="20.702971"
     inkscape:cy="33.403894"
     inkscape:window-width="1920"
     inkscape:window-height="994"
     inkscape:window-x="0"
     inkscape:window-y="0"
     inkscape:window-maximized="1"
     inkscape:current-layer="layer1" />
  <defs
     id="defs1">
    <linearGradient
       id="linearGradient6"
       inkscape:collect="always">
      <stop
         style="stop-color:#f0f3f4;stop-opacity:1;"
         offset="0"
         id="stop6" />
      <stop
         style="stop-color:#b7c6cd;stop-opacity:1;"
         offset="0.48438522"
         id="stop8" />
      <stop
         style="stop-color:#b7c6cd;stop-opacity:1;"
         offset="1"
         id="stop7" />
    </linearGradient>
    <linearGradient
       id="linearGradient3"
       inkscape:collect="always">
      <stop
         style="stop-color:#008080;stop-opacity:1"
         offset="0"
         id="stop3" />
      <stop
         style="stop-color:#7137c8;stop-opacity:1"
         offset="1"
         id="stop4" />
    </linearGradient>
    <linearGradient
       id="linearGradient1"
       inkscape:collect="always">
      <stop
         style="stop-color:#566c80;stop-opacity:1;"
         offset="0"
         id="stop1" />
      <stop
         style="stop-color:#29323d;stop-opacity:1;"
         offset="1"
         id="stop2" />
    </linearGradient>
    <radialGradient
       id="paint664_radial_890_11"
       cx="0"
       cy="0"
       r="1"
       gradientUnits="userSpaceOnUse"
       gradientTransform="matrix(-16.000099,-9.999913,9.999913,-16.000099,583,171)">
      <stop
         offset="0.42141"
         stop-color="#B7C6CD"
         id="stop2071" />
      <stop
         offset="1"
         stop-color="#EFF2F6"
         id="stop2072" />
    </radialGradient>
    <linearGradient
       id="paint665_linear_890_11"
       x1="605"
       y1="180"
       x2="601.466"
       y2="162.72301"
       gradientUnits="userSpaceOnUse">
      <stop
         stop-color="#5200FF"
         id="stop2073" />
      <stop
         offset="1"
         stop-color="#0085FF"
         id="stop2074" />
    </linearGradient>
    <linearGradient
       id="paint666_linear_890_11"
       x1="567"
       y1="181"
       x2="562.11798"
       y2="174.183"
       gradientUnits="userSpaceOnUse">
      <stop
         stop-color="#5200FF"
         id="stop2075" />
      <stop
         offset="0.670391"
         stop-color="#0085FF"
         id="stop2076" />
    </linearGradient>
    <linearGradient
       id="paint667_linear_890_11"
       x1="605"
       y1="180"
       x2="597.32001"
       y2="174.24001"
       gradientUnits="userSpaceOnUse">
      <stop
         stop-color="#5200FF"
         id="stop2077" />
      <stop
         offset="1"
         stop-color="#0085FF"
         id="stop2078" />
    </linearGradient>
    <linearGradient
       id="paint668_linear_890_11"
       x1="567"
       y1="180"
       x2="561.23999"
       y2="172.32001"
       gradientUnits="userSpaceOnUse">
      <stop
         stop-color="#5200FF"
         id="stop2079" />
      <stop
         offset="1"
         stop-color="#0085FF"
         id="stop2080" />
    </linearGradient>
    <linearGradient
       id="paint669_linear_890_11"
       x1="607"
       y1="179"
       x2="602.50598"
       y2="171.80901"
       gradientUnits="userSpaceOnUse">
      <stop
         stop-color="#5200FF"
         id="stop2081" />
      <stop
         offset="1"
         stop-color="#0085FF"
         id="stop2082" />
    </linearGradient>
    <linearGradient
       id="paint670_linear_890_11"
       x1="607"
       y1="217"
       x2="568.82599"
       y2="170.01601"
       gradientUnits="userSpaceOnUse">
      <stop
         stop-color="#5200FF"
         id="stop2083" />
      <stop
         offset="1"
         stop-color="#0085FF"
         id="stop2084" />
    </linearGradient>
    <radialGradient
       id="paint671_radial_890_11"
       cx="0"
       cy="0"
       r="1"
       gradientUnits="userSpaceOnUse"
       gradientTransform="matrix(0,20,-16,0,583,187)">
      <stop
         offset="0.869716"
         stop-color="#EFF2F6"
         id="stop2085" />
      <stop
         offset="1"
         stop-color="#B7C6CD"
         id="stop2086" />
    </radialGradient>
    <linearGradient
       id="paint65_linear_890_11"
       x1="83"
       y1="975"
       x2="83"
       y2="1017"
       gradientUnits="userSpaceOnUse"
       gradientTransform="matrix(0.46590913,0,0,0.47619047,-27.134741,-462.30924)">
      <stop
         stop-color="#EFF2F6"
         id="stop872"
         offset="0"
         style="stop-color:#51697b;stop-opacity:1;" />
      <stop
         offset="1"
         stop-color="#B7C6CD"
         id="stop873"
         style="stop-color:#3d4f5c;stop-opacity:1;" />
    </linearGradient>
    <linearGradient
       id="paint574_linear_890_11"
       x1="711"
       y1="309"
       x2="710.43103"
       y2="301.04099"
       gradientUnits="userSpaceOnUse"
       gradientTransform="matrix(0.36563713,0,0,0.35714286,-238.1823,-91.844947)">
      <stop
         stop-color="#2E2E41"
         id="stop1891"
         offset="0"
         style="stop-color:#33404c;stop-opacity:1;" />
      <stop
         offset="1"
         stop-color="#566C80"
         id="stop1892"
         style="stop-color:#6a839a;stop-opacity:1;" />
    </linearGradient>
    <linearGradient
       id="paint575_linear_890_11"
       x1="711.06653"
       y1="273.83536"
       x2="710.26135"
       y2="284.30927"
       gradientUnits="userSpaceOnUse"
       gradientTransform="matrix(-0.36563713,0,0,-0.35714286,261.27805,105.83859)"
       xlink:href="#paint574_linear_890_11">
      <stop
         stop-color="#2E2E41"
         id="stop1893"
         offset="0"
         style="stop-color:#313d48;stop-opacity:1;" />
      <stop
         offset="1"
         stop-color="#566C80"
         id="stop1894"
         style="stop-color:#70889f;stop-opacity:1;" />
    </linearGradient>
    <linearGradient
       id="paint431_linear_890_11"
       x1="213"
       y1="517"
       x2="157"
       y2="461"
       gradientUnits="userSpaceOnUse">
      <stop
         offset="0.405339"
         stop-color="#5200FF"
         id="stop1604" />
      <stop
         offset="1"
         stop-color="#0085FF"
         id="stop1605" />
    </linearGradient>
    <linearGradient
       id="paint432_linear_890_11"
       x1="175"
       y1="489"
       x2="177"
       y2="489"
       gradientUnits="userSpaceOnUse">
      <stop
         stop-color="#EFF2F6"
         id="stop1606" />
      <stop
         offset="1"
         stop-color="#B7C6CD"
         id="stop1607" />
    </linearGradient>
    <linearGradient
       id="paint434_linear_890_11"
       x1="181"
       y1="489"
       x2="183"
       y2="489"
       gradientUnits="userSpaceOnUse">
      <stop
         stop-color="#EFF2F6"
         id="stop1610" />
      <stop
         offset="1"
         stop-color="#B7C6CD"
         id="stop1611" />
    </linearGradient>
    <linearGradient
       id="paint436_linear_890_11"
       x1="187"
       y1="489"
       x2="189"
       y2="489"
       gradientUnits="userSpaceOnUse">
      <stop
         stop-color="#EFF2F6"
         id="stop1614" />
      <stop
         offset="1"
         stop-color="#B7C6CD"
         id="stop1615" />
    </linearGradient>
    <linearGradient
       id="paint438_linear_890_11"
       x1="193"
       y1="489"
       x2="195"
       y2="489"
       gradientUnits="userSpaceOnUse">
      <stop
         stop-color="#EFF2F6"
         id="stop1618" />
      <stop
         offset="1"
         stop-color="#B7C6CD"
         id="stop1619" />
    </linearGradient>
    <linearGradient
       id="paint440_linear_890_11"
       x1="185"
       y1="479"
       x2="185"
       y2="481"
       gradientUnits="userSpaceOnUse">
      <stop
         stop-color="#EFF2F6"
         id="stop1622" />
      <stop
         offset="1"
         stop-color="#B7C6CD"
         id="stop1623" />
    </linearGradient>
    <linearGradient
       id="paint442_linear_890_11"
       x1="185"
       y1="485"
       x2="185"
       y2="487"
       gradientUnits="userSpaceOnUse">
      <stop
         stop-color="#EFF2F6"
         id="stop1626" />
      <stop
         offset="1"
         stop-color="#B7C6CD"
         id="stop1627" />
    </linearGradient>
    <linearGradient
       id="paint444_linear_890_11"
       x1="185"
       y1="491"
       x2="185"
       y2="493"
       gradientUnits="userSpaceOnUse">
      <stop
         stop-color="#EFF2F6"
         id="stop1630" />
      <stop
         offset="1"
         stop-color="#B7C6CD"
         id="stop1631" />
    </linearGradient>
    <linearGradient
       id="paint446_linear_890_11"
       x1="185"
       y1="497"
       x2="185"
       y2="499"
       gradientUnits="userSpaceOnUse">
      <stop
         stop-color="#EFF2F6"
         id="stop1634" />
      <stop
         offset="1"
         stop-color="#B7C6CD"
         id="stop1635" />
    </linearGradient>
    <linearGradient
       id="paint448_linear_890_11"
       x1="167"
       y1="471"
       x2="203"
       y2="507"
       gradientUnits="userSpaceOnUse">
      <stop
         stop-color="#EFF2F6"
         id="stop1638" />
      <stop
         offset="0.493056"
         stop-color="#B7C6CD"
         id="stop1639" />
    </linearGradient>
    <linearGradient
       id="paint449_linear_890_11"
       x1="201"
       y1="505"
       x2="169"
       y2="473"
       gradientUnits="userSpaceOnUse">
      <stop
         offset="0.389454"
         stop-color="#2E2E41"
         id="stop1640" />
      <stop
         offset="1"
         stop-color="#566C80"
         id="stop1641" />
    </linearGradient>
    <linearGradient
       id="paint450_linear_890_11"
       x1="177"
       y1="481"
       x2="193"
       y2="497"
       gradientUnits="userSpaceOnUse">
      <stop
         offset="0.18393"
         stop-color="#566C80"
         id="stop1642" />
      <stop
         offset="0.912398"
         stop-color="#2E2E41"
         id="stop1643" />
    </linearGradient>
    <linearGradient
       inkscape:collect="always"
       xlink:href="#paint432_linear_890_11"
       id="linearGradient5"
       gradientUnits="userSpaceOnUse"
       x1="175"
       y1="489"
       x2="177"
       y2="489" />
    <linearGradient
       inkscape:collect="always"
       xlink:href="#paint432_linear_890_11"
       id="linearGradient8"
       gradientUnits="userSpaceOnUse"
       x1="175"
       y1="489"
       x2="177"
       y2="489" />
    <linearGradient
       inkscape:collect="always"
       xlink:href="#paint434_linear_890_11"
       id="linearGradient9"
       gradientUnits="userSpaceOnUse"
       x1="181"
       y1="489"
       x2="183"
       y2="489" />
    <linearGradient
       inkscape:collect="always"
       xlink:href="#paint434_linear_890_11"
       id="linearGradient10"
       gradientUnits="userSpaceOnUse"
       x1="181"
       y1="489"
       x2="183"
       y2="489" />
    <linearGradient
       inkscape:collect="always"
       xlink:href="#paint436_linear_890_11"
       id="linearGradient11"
       gradientUnits="userSpaceOnUse"
       x1="187"
       y1="489"
       x2="189"
       y2="489" />
    <linearGradient
       inkscape:collect="always"
       xlink:href="#paint436_linear_890_11"
       id="linearGradient12"
       gradientUnits="userSpaceOnUse"
       x1="187"
       y1="489"
       x2="189"
       y2="489" />
    <linearGradient
       inkscape:collect="always"
       xlink:href="#paint438_linear_890_11"
       id="linearGradient13"
       gradientUnits="userSpaceOnUse"
       x1="193"
       y1="489"
       x2="195"
       y2="489" />
    <linearGradient
       inkscape:collect="always"
       xlink:href="#paint438_linear_890_11"
       id="linearGradient14"
       gradientUnits="userSpaceOnUse"
       x1="193"
       y1="489"
       x2="195"
       y2="489" />
    <linearGradient
       inkscape:collect="always"
       xlink:href="#paint440_linear_890_11"
       id="linearGradient15"
       gradientUnits="userSpaceOnUse"
       x1="185"
       y1="479"
       x2="185"
       y2="481" />
    <linearGradient
       inkscape:collect="always"
       xlink:href="#paint440_linear_890_11"
       id="linearGradient16"
       gradientUnits="userSpaceOnUse"
       x1="185"
       y1="479"
       x2="185"
       y2="481" />
    <linearGradient
       inkscape:collect="always"
       xlink:href="#paint442_linear_890_11"
       id="linearGradient17"
       gradientUnits="userSpaceOnUse"
       x1="185"
       y1="485"
       x2="185"
       y2="487" />
    <linearGradient
       inkscape:collect="always"
       xlink:href="#paint442_linear_890_11"
       id="linearGradient18"
       gradientUnits="userSpaceOnUse"
       x1="185"
       y1="485"
       x2="185"
       y2="487" />
    <linearGradient
       inkscape:collect="always"
       xlink:href="#paint444_linear_890_11"
       id="linearGradient19"
       gradientUnits="userSpaceOnUse"
       x1="185"
       y1="491"
       x2="185"
       y2="493" />
    <linearGradient
       inkscape:collect="always"
       xlink:href="#paint444_linear_890_11"
       id="linearGradient20"
       gradientUnits="userSpaceOnUse"
       x1="185"
       y1="491"
       x2="185"
       y2="493" />
    <linearGradient
       inkscape:collect="always"
       xlink:href="#paint446_linear_890_11"
       id="linearGradient21"
       gradientUnits="userSpaceOnUse"
       x1="185"
       y1="497"
       x2="185"
       y2="499" />
    <linearGradient
       inkscape:collect="always"
       xlink:href="#paint446_linear_890_11"
       id="linearGradient22"
       gradientUnits="userSpaceOnUse"
       x1="185"
       y1="497"
       x2="185"
       y2="499" />
    <linearGradient
       inkscape:collect="always"
       xlink:href="#linearGradient1"
       id="linearGradient2"
       x1="172.40001"
       y1="476.39999"
       x2="198.78548"
       y2="502.8082"
       gradientUnits="userSpaceOnUse" />
    <linearGradient
       inkscape:collect="always"
       xlink:href="#linearGradient3"
       id="linearGradient4"
       x1="161.55931"
       y1="463.4679"
       x2="209.87361"
       y2="514.01105"
       gradientUnits="userSpaceOnUse" />
    <linearGradient
       inkscape:collect="always"
       xlink:href="#linearGradient6"
       id="linearGradient7"
       x1="171"
       y1="473"
       x2="203"
       y2="507"
       gradientUnits="userSpaceOnUse" />
  </defs>
  <g
     inkscape:label="Layer 1"
     inkscape:groupmode="layer"
     id="layer1">
    <g
       id="g1"
       transform="translate(2,2)">
      <g
         id="g2274"
         transform="translate(-156,-460)">
        <g
           id="g2273">
          <path
             d="m 157,467 c 0,-3.314 2.686,-6 6,-6 h 44 c 3.314,0 6,2.686 6,6 v 44 c 0,3.314 -2.686,6 -6,6 h -44 c -3.314,0 -6,-2.686 -6,-6 z"
             id="path421"
             style="fill:url(#linearGradient4)" />
          <path
             d="m 176,467 c -0.552,0 -1,0.448 -1,1 v 4 c 0,0.552 0.448,1 1,1 0.552,0 1,-0.448 1,-1 v -4 c 0,-0.552 -0.448,-1 -1,-1 z"
             fill="url(#paint432_linear_890_11)"
             id="path422"
             style="fill:url(#linearGradient5)" />
          <path
             d="m 176,505 c -0.552,0 -1,0.448 -1,1 v 4 c 0,0.552 0.448,1 1,1 0.552,0 1,-0.448 1,-1 v -4 c 0,-0.552 -0.448,-1 -1,-1 z"
             fill="url(#paint433_linear_890_11)"
             id="path423"
             style="fill:url(#linearGradient8)" />
          <path
             d="m 182,467 c -0.552,0 -1,0.448 -1,1 v 4 c 0,0.552 0.448,1 1,1 0.552,0 1,-0.448 1,-1 v -4 c 0,-0.552 -0.448,-1 -1,-1 z"
             fill="url(#paint434_linear_890_11)"
             id="path424"
             style="fill:url(#linearGradient9)" />
          <path
             d="m 182,505 c -0.552,0 -1,0.448 -1,1 v 4 c 0,0.552 0.448,1 1,1 0.552,0 1,-0.448 1,-1 v -4 c 0,-0.552 -0.448,-1 -1,-1 z"
             fill="url(#paint435_linear_890_11)"
             id="path425"
             style="fill:url(#linearGradient10)" />
          <path
             d="m 188,467 c -0.552,0 -1,0.448 -1,1 v 4 c 0,0.552 0.448,1 1,1 0.552,0 1,-0.448 1,-1 v -4 c 0,-0.552 -0.448,-1 -1,-1 z"
             fill="url(#paint436_linear_890_11)"
             id="path426"
             style="fill:url(#linearGradient11)" />
          <path
             d="m 188,505 c -0.552,0 -1,0.448 -1,1 v 4 c 0,0.552 0.448,1 1,1 0.552,0 1,-0.448 1,-1 v -4 c 0,-0.552 -0.448,-1 -1,-1 z"
             fill="url(#paint437_linear_890_11)"
             id="path427"
             style="fill:url(#linearGradient12)" />
          <path
             d="m 194,467 c -0.552,0 -1,0.448 -1,1 v 4 c 0,0.552 0.448,1 1,1 0.552,0 1,-0.448 1,-1 v -4 c 0,-0.552 -0.448,-1 -1,-1 z"
             fill="url(#paint438_linear_890_11)"
             id="path428"
             style="fill:url(#linearGradient13)" />
          <path
             d="m 194,505 c -0.552,0 -1,0.448 -1,1 v 4 c 0,0.552 0.448,1 1,1 0.552,0 1,-0.448 1,-1 v -4 c 0,-0.552 -0.448,-1 -1,-1 z"
             fill="url(#paint439_linear_890_11)"
             id="path429"
             style="fill:url(#linearGradient14)" />
          <path
             d="m 207,480 c 0,-0.552 -0.448,-1 -1,-1 h -4 c -0.552,0 -1,0.448 -1,1 0,0.552 0.448,1 1,1 h 4 c 0.552,0 1,-0.448 1,-1 z"
             fill="url(#paint440_linear_890_11)"
             id="path430"
             style="fill:url(#linearGradient15)" />
          <path
             d="m 169,480 c 0,-0.552 -0.448,-1 -1,-1 h -4 c -0.552,0 -1,0.448 -1,1 0,0.552 0.448,1 1,1 h 4 c 0.552,0 1,-0.448 1,-1 z"
             fill="url(#paint441_linear_890_11)"
             id="path431"
             style="fill:url(#linearGradient16)" />
          <path
             d="m 207,486 c 0,-0.552 -0.448,-1 -1,-1 h -4 c -0.552,0 -1,0.448 -1,1 0,0.552 0.448,1 1,1 h 4 c 0.552,0 1,-0.448 1,-1 z"
             fill="url(#paint442_linear_890_11)"
             id="path432"
             style="fill:url(#linearGradient17)" />
          <path
             d="m 169,486 c 0,-0.552 -0.448,-1 -1,-1 h -4 c -0.552,0 -1,0.448 -1,1 0,0.552 0.448,1 1,1 h 4 c 0.552,0 1,-0.448 1,-1 z"
             fill="url(#paint443_linear_890_11)"
             id="path433"
             style="fill:url(#linearGradient18)" />
          <path
             d="m 207,492 c 0,-0.552 -0.448,-1 -1,-1 h -4 c -0.552,0 -1,0.448 -1,1 0,0.552 0.448,1 1,1 h 4 c 0.552,0 1,-0.448 1,-1 z"
             fill="url(#paint444_linear_890_11)"
             id="path434"
             style="fill:url(#linearGradient19)" />
          <path
             d="m 169,492 c 0,-0.552 -0.448,-1 -1,-1 h -4 c -0.552,0 -1,0.448 -1,1 0,0.552 0.448,1 1,1 h 4 c 0.552,0 1,-0.448 1,-1 z"
             fill="url(#paint445_linear_890_11)"
             id="path435"
             style="fill:url(#linearGradient20)" />
          <path
             d="m 207,498 c 0,-0.552 -0.448,-1 -1,-1 h -4 c -0.552,0 -1,0.448 -1,1 0,0.552 0.448,1 1,1 h 4 c 0.552,0 1,-0.448 1,-1 z"
             fill="url(#paint446_linear_890_11)"
             id="path436"
             style="fill:url(#linearGradient21)" />
          <path
             d="m 169,498 c 0,-0.552 -0.448,-1 -1,-1 h -4 c -0.552,0 -1,0.448 -1,1 0,0.552 0.448,1 1,1 h 4 c 0.552,0 1,-0.448 1,-1 z"
             fill="url(#paint447_linear_890_11)"
             id="path437"
             style="fill:url(#linearGradient22)" />
          <path
             d="m 167,474.789 c 0,-2.092 1.697,-3.789 3.789,-3.789 h 28.422 c 2.092,0 3.789,1.697 3.789,3.789 v 28.422 c 0,2.092 -1.697,3.789 -3.789,3.789 H 170.789 C 168.697,507 167,505.303 167,503.211 Z"
             id="path438"
             style="fill:url(#linearGradient7)" />
          <path
             d="m 169,475 c 0,-1.105 0.895,-2 2,-2 h 28 c 1.105,0 2,0.895 2,2 v 28 c 0,1.105 -0.895,2 -2,2 h -28 c -1.105,0 -2,-0.895 -2,-2 z"
             id="path439"
             style="fill:url(#linearGradient2)" />
        </g>
      </g>
    </g>
    <g
       style="opacity:0.5;fill:#ffffff"
       id="g20"
       transform="matrix(-2,0,0,-2,56,56)">
      <rect
         width="1"
         height="2"
         x="9"
         y="6"
         id="rect13" />
      <rect
         width="1"
         height="2"
         x="9"
         y="9"
         id="rect14" />
      <rect
         width="1"
         height="4"
         x="9"
         y="12"
         id="rect15" />
      <rect
         width="1"
         height="5"
         x="12"
         y="6"
         id="rect16" />
      <rect
         width="1"
         height="5"
         x="12"
         y="12"
         id="rect17" />
      <rect
         width="1"
         height="4"
         x="15"
         y="6"
         id="rect18" />
      <rect
         width="1"
         height="2"
         x="15"
         y="11"
         id="rect19" />
      <rect
         width="1"
         height="5"
         x="15"
         y="14"
         id="rect20" />
    </g>
  </g>
</svg>
