<?xml version="1.0" encoding="UTF-8" standalone="no"?>
<svg
   width="62"
   height="62"
   version="1"
   id="svg7"
   sodipodi:docname="applications-education-preschool.svg"
   inkscape:version="1.4 (unknown)"
   xmlns:inkscape="http://www.inkscape.org/namespaces/inkscape"
   xmlns:sodipodi="http://sodipodi.sourceforge.net/DTD/sodipodi-0.dtd"
   xmlns:xlink="http://www.w3.org/1999/xlink"
   xmlns="http://www.w3.org/2000/svg"
   xmlns:svg="http://www.w3.org/2000/svg">
  <defs
     id="defs7">
    <linearGradient
       id="linearGradient1"
       inkscape:collect="always">
      <stop
         style="stop-color:#ffb380;stop-opacity:1"
         offset="0"
         id="stop5" />
      <stop
         style="stop-color:#ffdd55;stop-opacity:1"
         offset="1"
         id="stop6" />
    </linearGradient>
    <linearGradient
       id="linearGradient7"
       inkscape:collect="always">
      <stop
         style="stop-color:#ffc299;stop-opacity:1;"
         offset="0"
         id="stop8" />
      <stop
         style="stop-color:#ff9955;stop-opacity:1"
         offset="0.59162253"
         id="stop10" />
      <stop
         style="stop-color:#eff2f6;stop-opacity:1;"
         offset="0.92173076"
         id="stop11" />
      <stop
         style="stop-color:#eff2f6;stop-opacity:1;"
         offset="1"
         id="stop9" />
    </linearGradient>
    <linearGradient
       id="c-3"
       gradientUnits="userSpaceOnUse"
       x1="24.072048"
       x2="23.959682"
       y1="0.75082099"
       y2="46.056854">
      <stop
         offset="0"
         stop-color="#fff"
         id="stop3" />
      <stop
         offset="1"
         stop-color="#d9d9d9"
         id="stop4" />
    </linearGradient>
    <linearGradient
       id="b-6"
       gradientUnits="userSpaceOnUse"
       x1="29.203026"
       x2="34.121048"
       xlink:href="#a-7"
       y1="24.827356"
       y2="29.224836" />
    <linearGradient
       id="a-7">
      <stop
         offset="0"
         id="stop1" />
      <stop
         offset="1"
         stop-opacity="0"
         id="stop2" />
    </linearGradient>
    <linearGradient
       id="d"
       gradientUnits="userSpaceOnUse"
       x1="15.948756"
       x2="25.031786"
       xlink:href="#a-7"
       y1="23.618279"
       y2="33.69899" />
    <linearGradient
       id="e"
       gradientUnits="userSpaceOnUse"
       x1="21.990562"
       x2="29.320522"
       xlink:href="#a-7"
       y1="33.780373"
       y2="41.931858" />
    <linearGradient
       id="paint154_linear_890_11"
       x1="778"
       y1="812.29199"
       x2="788"
       y2="812.29199"
       gradientUnits="userSpaceOnUse"
       gradientTransform="translate(-751,-696)">
      <stop
         stop-color="#EFF2F6"
         id="stop1050" />
      <stop
         offset="0.600785"
         stop-color="#B7C6CD"
         id="stop1051" />
    </linearGradient>
    <linearGradient
       id="paint155_linear_890_11"
       x1="783"
       y1="813"
       x2="783"
       y2="817"
       gradientUnits="userSpaceOnUse"
       gradientTransform="translate(-751,-696)">
      <stop
         stop-color="#EFF2F6"
         id="stop1052" />
      <stop
         offset="0.734138"
         stop-color="#B7C6CD"
         id="stop1053" />
    </linearGradient>
    <radialGradient
       id="paint156_radial_890_11"
       cx="0"
       cy="0"
       r="1"
       gradientUnits="userSpaceOnUse"
       gradientTransform="matrix(27.999986,27.999976,-27.999986,27.999976,32.302392,33.999998)">
      <stop
         offset="0.60067803"
         stop-color="#B7C6CD"
         id="stop1054"
         style="stop-color:#384850;stop-opacity:1;" />
      <stop
         offset="0.876735"
         stop-color="#EFF2F6"
         id="stop1055" />
    </radialGradient>
    <linearGradient
       id="paint157_linear_890_11"
       x1="796.84485"
       y1="799.43359"
       x2="768.90088"
       y2="770.81476"
       gradientUnits="userSpaceOnUse"
       gradientTransform="matrix(1.1666666,0,0,1.1666668,-881.19764,-881.8333)">
      <stop
         offset="0.00000057"
         stop-color="#2E2E41"
         id="stop1056"
         style="stop-color:#495361;stop-opacity:1;" />
      <stop
         offset="0.711139"
         stop-color="#566C80"
         id="stop1057" />
    </linearGradient>
    <linearGradient
       id="paint158_linear_890_11"
       x1="792"
       y1="794"
       x2="774"
       y2="776"
       gradientUnits="userSpaceOnUse"
       gradientTransform="translate(-751,-696)">
      <stop
         offset="0.304478"
         stop-color="#2E2E41"
         id="stop1058" />
      <stop
         offset="1"
         stop-color="#566C80"
         id="stop1059" />
    </linearGradient>
    <linearGradient
       id="paint159_linear_890_11"
       x1="788"
       y1="790"
       x2="778"
       y2="780"
       gradientUnits="userSpaceOnUse"
       gradientTransform="translate(-751,-696)">
      <stop
         offset="0.391394"
         stop-color="#5200FF"
         id="stop1060" />
      <stop
         offset="1"
         stop-color="#0085FF"
         id="stop1061" />
    </linearGradient>
    <linearGradient
       id="paint160_linear_890_11"
       x1="784"
       y1="798"
       x2="782"
       y2="796"
       gradientUnits="userSpaceOnUse"
       gradientTransform="translate(-751,-696)">
      <stop
         stop-color="#FF7E07"
         id="stop1062" />
      <stop
         offset="1"
         stop-color="#FFE607"
         id="stop1063" />
    </linearGradient>
    <radialGradient
       inkscape:collect="always"
       xlink:href="#linearGradient7"
       id="radialGradient9"
       cx="32.302387"
       cy="34"
       fx="32.302387"
       fy="34"
       r="28"
       gradientUnits="userSpaceOnUse"
       gradientTransform="matrix(0.99999999,1,-1,0.99999999,32.697613,-35.302387)" />
    <linearGradient
       id="c-3-6"
       gradientUnits="userSpaceOnUse"
       x1="24.072048"
       x2="23.959682"
       y1="0.75082099"
       y2="46.056854"
       gradientTransform="matrix(0.91471346,0,0,0.90068147,9.0468769,9.3836444)">
      <stop
         offset="0"
         stop-color="#fff"
         id="stop3-2" />
      <stop
         offset="1"
         stop-color="#d9d9d9"
         id="stop4-9" />
    </linearGradient>
    <linearGradient
       id="b-6-1"
       gradientUnits="userSpaceOnUse"
       x1="29.203026"
       x2="34.121048"
       xlink:href="#a-7"
       y1="24.827356"
       y2="29.224836"
       gradientTransform="matrix(1.1104534,0,0,1.0934187,4.3491158,4.7861435)" />
    <linearGradient
       id="d-0"
       gradientUnits="userSpaceOnUse"
       x1="15.948756"
       x2="25.031786"
       xlink:href="#a-7"
       y1="23.618279"
       y2="33.69899"
       gradientTransform="matrix(1.1104534,0,0,1.0934187,4.3491158,4.7861435)" />
    <linearGradient
       id="e-9"
       gradientUnits="userSpaceOnUse"
       x1="21.990562"
       x2="29.320522"
       xlink:href="#a-7"
       y1="33.780373"
       y2="41.931858"
       gradientTransform="matrix(1.1104534,0,0,1.0934187,4.3491158,4.7861435)" />
    <linearGradient
       id="linearGradient773"
       gradientTransform="matrix(2.0428665,-6.8308524,5.7819337,2.3633129,-33.356582,5.3194785)"
       gradientUnits="userSpaceOnUse"
       x1="24"
       x2="24"
       y1="35"
       y2="13">
      <stop
         offset="0"
         stop-color="#cd7223"
         id="stop224-5"
         style="stop-color:#ffb380;stop-opacity:1" />
      <stop
         offset=".53"
         stop-color="#f48e00"
         id="stop226-3" />
      <stop
         offset="1"
         stop-color="#ffa92d"
         id="stop228-5" />
    </linearGradient>
    <linearGradient
       id="linearGradient4432">
      <stop
         style="stop-color:#eff1f1;stop-opacity:1"
         offset="0"
         id="stop17" />
      <stop
         style="stop-color:#6f8181;stop-opacity:1"
         offset="1"
         id="stop19" />
    </linearGradient>
    <linearGradient
       id="a-2">
      <stop
         stop-color="#969692"
         offset="0"
         id="stop3-3" />
      <stop
         stop-color="#969692"
         stop-opacity="0"
         offset="1"
         id="stop4-6" />
    </linearGradient>
    <linearGradient
       id="e-1"
       x1="-1.1176227"
       x2="-0.41036412"
       y1="289.6546"
       y2="289.64532"
       gradientTransform="matrix(6.7456967,0.0127412,0.01265839,6.7456978,-29.126969,-1911.263)"
       gradientUnits="userSpaceOnUse"
       xlink:href="#a-2" />
    <linearGradient
       id="d-09"
       x1="-0.86155176"
       x2="-0.1469878"
       y1="289.66055"
       y2="289.70197"
       gradientTransform="matrix(6.7456967,0.0127412,0.01265839,6.7456978,-38.91316,-1913.9109)"
       gradientUnits="userSpaceOnUse"
       xlink:href="#a-2" />
    <linearGradient
       id="c-2"
       x1="-0.59261101"
       x2="0.11464758"
       y1="289.77438"
       y2="289.76511"
       gradientTransform="matrix(6.7456967,0.0127412,0.01265839,6.7456978,-48.766822,-1916.5629)"
       gradientUnits="userSpaceOnUse"
       xlink:href="#a-2" />
    <linearGradient
       id="b-0"
       x1="-0.30974263"
       x2="0.37280104"
       y1="289.83627"
       y2="289.84122"
       gradientTransform="matrix(6.7456967,0.0127412,0.01265839,6.7456978,-58.553025,-1919.2116)"
       gradientUnits="userSpaceOnUse"
       xlink:href="#a-2" />
    <linearGradient
       id="a"
       gradientUnits="userSpaceOnUse"
       x1="400.60785"
       x2="400.60785"
       y1="547.29376"
       y2="516.19379">
      <stop
         offset="0"
         stop-color="#f7a744"
         id="stop1-3" />
      <stop
         offset="1"
         stop-color="#ffe66f"
         id="stop2-6" />
    </linearGradient>
    <linearGradient
       inkscape:collect="always"
       xlink:href="#linearGradient1"
       id="linearGradient6"
       x1="400.99255"
       y1="547.42401"
       x2="400.99255"
       y2="516.32404"
       gradientUnits="userSpaceOnUse" />
  </defs>
  <sodipodi:namedview
     id="namedview7"
     pagecolor="#ffffff"
     bordercolor="#000000"
     borderopacity="0.25"
     inkscape:showpageshadow="2"
     inkscape:pageopacity="0.0"
     inkscape:pagecheckerboard="0"
     inkscape:deskcolor="#d1d1d1"
     inkscape:zoom="8.3306018"
     inkscape:cx="23.587732"
     inkscape:cy="27.909148"
     inkscape:window-width="1920"
     inkscape:window-height="996"
     inkscape:window-x="0"
     inkscape:window-y="0"
     inkscape:window-maximized="1"
     inkscape:current-layer="svg7" />
  <path
     d="M 59,31 C 59,46.46415 46.464172,59 30.999998,59 15.535835,59 3.0000001,46.46415 3.0000001,31 3.0000001,15.535835 15.535835,3 30.999998,3 46.464172,3 59,15.535835 59,31 Z"
     id="path154"
     style="fill:url(#radialGradient9)" />
  <g
     transform="matrix(1.5005466,0,0,1.5005466,-570.70801,-767.10176)"
     id="g4">
    <circle
       cx="400.99255"
       cy="531.87402"
       r="15.55"
       id="circle2"
       style="fill:url(#linearGradient6)" />
    <g
       fill="#ffffd9"
       transform="matrix(0.08144405,0,0,0.08144405,389.01191,519.99518)"
       id="g3">
      <path
         d="m 298.184,149.092 c 0,-14.357 -33.491,-23.242 -37.697,-36.197 -4.36,-13.428 17.358,-40.274 9.225,-51.451 C 261.497,50.156 229.198,62.561 217.91,54.346 206.734,46.212 208.599,11.622 195.173,7.262 182.217,3.056 163.449,32 149.092,32 134.735,32 115.967,3.056 103.011,7.263 89.585,11.623 91.45,46.212 80.274,54.347 68.986,62.562 36.688,50.157 28.473,61.445 20.339,72.621 42.057,99.468 37.698,112.895 33.491,125.85 0,134.735 0,149.092 c 0,14.357 33.491,23.242 37.698,36.197 4.359,13.427 -17.358,40.274 -9.225,51.45 8.215,11.287 40.513,-1.117 51.801,7.098 11.176,8.135 9.311,42.725 22.737,47.084 12.955,4.207 31.723,-24.737 46.08,-24.737 14.357,0 33.125,28.944 46.081,24.737 13.426,-4.359 11.561,-38.95 22.736,-47.084 11.288,-8.215 43.586,4.19 51.801,-7.098 8.134,-11.176 -13.584,-38.022 -9.225,-51.45 4.208,-12.955 37.7,-21.839 37.7,-36.197 z m -149.092,98.739 c -54.444,0 -98.738,-44.294 -98.738,-98.738 0,-54.444 44.294,-98.738 98.738,-98.738 54.445,0 98.739,44.294 98.739,98.738 0,54.444 -44.294,98.738 -98.739,98.738 z"
         id="path2"
         style="fill:#ffffff;fill-opacity:1" />
      <path
         d="m 149.092,66.354 c -45.622,0 -82.738,37.116 -82.738,82.738 0,45.622 37.116,82.738 82.738,82.738 45.623,0 82.739,-37.116 82.739,-82.738 0,-45.622 -37.116,-82.738 -82.739,-82.738 z m 25.333,49.907 c 4.418,0 8,3.582 8,8 0,4.419 -3.582,8 -8,8 -4.418,0 -8,-3.581 -8,-8 0,-4.418 3.582,-8 8,-8 z m -50,0 c 4.418,0 8,3.582 8,8 0,4.419 -3.582,8 -8,8 -4.418,0 -8,-3.581 -8,-8 0,-4.418 3.582,-8 8,-8 z m 71.267,50.562 c -6.173,17.727 -22.193,30.591 -40.815,32.77 -1.898,0.223 -3.794,0.332 -5.679,0.332 -16.852,0 -32.883,-8.708 -41.942,-23.174 -1.953,-3.118 -3.556,-6.458 -4.765,-9.928 -1.454,-4.172 0.75,-8.732 4.923,-10.187 4.173,-1.456 8.732,0.749 10.186,4.923 0.815,2.34 1.898,4.594 3.216,6.699 6.81,10.874 19.449,16.927 32.199,15.443 12.575,-1.473 23.396,-10.163 27.567,-22.142 1.452,-4.172 6.008,-6.378 10.186,-4.924 4.173,1.454 6.377,6.015 4.924,10.188 z"
         id="path3"
         style="fill:#ffffff;fill-opacity:1" />
    </g>
  </g>
</svg>
