<?xml version="1.0" encoding="UTF-8" standalone="no"?>
<!-- Created with Inkscape (http://www.inkscape.org/) -->

<svg
   width="62"
   height="62"
   viewBox="0 0 62 62"
   version="1.1"
   id="svg1"
   inkscape:version="1.4 (e7c3feb100, 2024-10-09)"
   sodipodi:docname="applications-games.svg"
   xmlns:inkscape="http://www.inkscape.org/namespaces/inkscape"
   xmlns:sodipodi="http://sodipodi.sourceforge.net/DTD/sodipodi-0.dtd"
   xmlns:xlink="http://www.w3.org/1999/xlink"
   xmlns="http://www.w3.org/2000/svg"
   xmlns:svg="http://www.w3.org/2000/svg">
  <sodipodi:namedview
     id="namedview1"
     pagecolor="#ffffff"
     bordercolor="#000000"
     borderopacity="0.25"
     inkscape:showpageshadow="2"
     inkscape:pageopacity="0.0"
     inkscape:pagecheckerboard="0"
     inkscape:deskcolor="#d1d1d1"
     inkscape:document-units="px"
     inkscape:zoom="10.74725"
     inkscape:cx="30.891623"
     inkscape:cy="37.777106"
     inkscape:window-width="1920"
     inkscape:window-height="996"
     inkscape:window-x="0"
     inkscape:window-y="0"
     inkscape:window-maximized="1"
     inkscape:current-layer="layer1"
     showgrid="false">
    <inkscape:grid
       id="grid1"
       units="px"
       originx="0"
       originy="0"
       spacingx="1"
       spacingy="1"
       empcolor="#0099e5"
       empopacity="0.30196078"
       color="#0099e5"
       opacity="0.14901961"
       empspacing="5"
       enabled="true"
       visible="false" />
  </sodipodi:namedview>
  <defs
     id="defs1">
    <linearGradient
       id="linearGradient12"
       x1="155"
       y1="82"
       x2="186.461"
       y2="132.33701"
       gradientUnits="userSpaceOnUse">
      <stop
         offset="0.20572101"
         stop-color="#EFF2F6"
         id="stop11"
         style="stop-color:#ced8e3;stop-opacity:1;" />
      <stop
         offset="1"
         stop-color="#B7C6CD"
         id="stop12"
         style="stop-color:#a0b4bd;stop-opacity:1;" />
    </linearGradient>
    <linearGradient
       id="linearGradient5"
       inkscape:collect="always">
      <stop
         style="stop-color:#6f7c91;stop-opacity:1"
         offset="0"
         id="stop5" />
      <stop
         style="stop-color:#b7bec8;stop-opacity:1"
         offset="1"
         id="stop6" />
    </linearGradient>
    <linearGradient
       id="linearGradient8"
       inkscape:collect="always">
      <stop
         style="stop-color:#2e2e41;stop-opacity:1;"
         offset="0"
         id="stop8" />
      <stop
         style="stop-color:#2e2e41;stop-opacity:1;"
         offset="0.37468708"
         id="stop10" />
      <stop
         style="stop-color:#6f7c91;stop-opacity:1"
         offset="1"
         id="stop9" />
    </linearGradient>
    <linearGradient
       id="linearGradient3"
       inkscape:collect="always">
      <stop
         style="stop-color:#ff0000;stop-opacity:1;"
         offset="0"
         id="stop3" />
      <stop
         style="stop-color:#ffb2b2;stop-opacity:1;"
         offset="1"
         id="stop4" />
    </linearGradient>
    <radialGradient
       id="paint664_radial_890_11"
       cx="0"
       cy="0"
       r="1"
       gradientUnits="userSpaceOnUse"
       gradientTransform="matrix(-16.000099,-9.999913,9.999913,-16.000099,583,171)">
      <stop
         offset="0.42141"
         stop-color="#B7C6CD"
         id="stop2071" />
      <stop
         offset="1"
         stop-color="#EFF2F6"
         id="stop2072" />
    </radialGradient>
    <linearGradient
       id="paint665_linear_890_11"
       x1="605"
       y1="180"
       x2="601.466"
       y2="162.72301"
       gradientUnits="userSpaceOnUse">
      <stop
         stop-color="#5200FF"
         id="stop2073" />
      <stop
         offset="1"
         stop-color="#0085FF"
         id="stop2074" />
    </linearGradient>
    <linearGradient
       id="paint666_linear_890_11"
       x1="567"
       y1="181"
       x2="562.11798"
       y2="174.183"
       gradientUnits="userSpaceOnUse">
      <stop
         stop-color="#5200FF"
         id="stop2075" />
      <stop
         offset="0.670391"
         stop-color="#0085FF"
         id="stop2076" />
    </linearGradient>
    <linearGradient
       id="paint667_linear_890_11"
       x1="605"
       y1="180"
       x2="597.32001"
       y2="174.24001"
       gradientUnits="userSpaceOnUse">
      <stop
         stop-color="#5200FF"
         id="stop2077" />
      <stop
         offset="1"
         stop-color="#0085FF"
         id="stop2078" />
    </linearGradient>
    <linearGradient
       id="paint668_linear_890_11"
       x1="567"
       y1="180"
       x2="561.23999"
       y2="172.32001"
       gradientUnits="userSpaceOnUse">
      <stop
         stop-color="#5200FF"
         id="stop2079" />
      <stop
         offset="1"
         stop-color="#0085FF"
         id="stop2080" />
    </linearGradient>
    <linearGradient
       id="paint669_linear_890_11"
       x1="607"
       y1="179"
       x2="602.50598"
       y2="171.80901"
       gradientUnits="userSpaceOnUse">
      <stop
         stop-color="#5200FF"
         id="stop2081" />
      <stop
         offset="1"
         stop-color="#0085FF"
         id="stop2082" />
    </linearGradient>
    <linearGradient
       id="paint670_linear_890_11"
       x1="607"
       y1="217"
       x2="568.82599"
       y2="170.01601"
       gradientUnits="userSpaceOnUse">
      <stop
         stop-color="#5200FF"
         id="stop2083" />
      <stop
         offset="1"
         stop-color="#0085FF"
         id="stop2084" />
    </linearGradient>
    <radialGradient
       id="paint671_radial_890_11"
       cx="0"
       cy="0"
       r="1"
       gradientUnits="userSpaceOnUse"
       gradientTransform="matrix(0,20,-16,0,583,187)">
      <stop
         offset="0.869716"
         stop-color="#EFF2F6"
         id="stop2085" />
      <stop
         offset="1"
         stop-color="#B7C6CD"
         id="stop2086" />
    </radialGradient>
    <linearGradient
       id="paint497_linear_890_11"
       x1="497"
       y1="413"
       x2="447.457"
       y2="376.79599"
       gradientUnits="userSpaceOnUse"
       gradientTransform="translate(-452,-358)">
      <stop
         offset="0.636456"
         stop-color="#71706E"
         id="stop1737" />
      <stop
         offset="1"
         stop-color="#B9AA99"
         id="stop1738" />
    </linearGradient>
    <linearGradient
       id="paint498_linear_890_11"
       x1="507"
       y1="413"
       x2="457.457"
       y2="376.79599"
       gradientUnits="userSpaceOnUse"
       gradientTransform="translate(-452,-358)">
      <stop
         offset="0.544933"
         stop-color="#FF7E07"
         id="stop1739" />
      <stop
         offset="1"
         stop-color="#FFE607"
         id="stop1740" />
    </linearGradient>
    <linearGradient
       id="paint499_linear_890_11"
       x1="473"
       y1="365"
       x2="486.28699"
       y2="389.91299"
       gradientUnits="userSpaceOnUse"
       gradientTransform="translate(-452,-358)">
      <stop
         stop-color="white"
         id="stop1741" />
      <stop
         offset="0.705"
         stop-color="#EAEFEF"
         id="stop1742" />
    </linearGradient>
    <linearGradient
       id="paint500_linear_890_11"
       x1="480"
       y1="371.5"
       x2="480"
       y2="368.5"
       gradientUnits="userSpaceOnUse"
       gradientTransform="translate(-452,-358)">
      <stop
         offset="0.155999"
         stop-color="#71706E"
         id="stop1743" />
      <stop
         offset="0.796276"
         stop-color="#B9AA99"
         id="stop1744" />
    </linearGradient>
    <linearGradient
       id="paint501_linear_890_11"
       x1="479"
       y1="375.5"
       x2="479"
       y2="372.5"
       gradientUnits="userSpaceOnUse"
       gradientTransform="translate(-452,-358)">
      <stop
         offset="0.155999"
         stop-color="#71706E"
         id="stop1745" />
      <stop
         offset="0.796276"
         stop-color="#B9AA99"
         id="stop1746" />
    </linearGradient>
    <linearGradient
       id="paint502_linear_890_11"
       x1="511"
       y1="417"
       x2="455.64352"
       y2="380.82346"
       gradientUnits="userSpaceOnUse"
       gradientTransform="translate(-452,-358)">
      <stop
         offset="0.18397722"
         stop-color="#2E2E41"
         id="stop1747"
         style="stop-color:#33424d;stop-opacity:1;" />
      <stop
         offset="1"
         stop-color="#566C80"
         id="stop1748" />
    </linearGradient>
    <linearGradient
       id="paint745_linear_890_11"
       x1="172"
       y1="61"
       x2="195.978"
       y2="83.979202"
       gradientUnits="userSpaceOnUse"
       gradientTransform="matrix(1.1071487,0,0,1.4300676,-163.27933,-83.787456)">
      <stop
         stop-color="#EFF2F6"
         id="stop2233" />
      <stop
         offset="1"
         stop-color="#ACD1CF"
         id="stop2234" />
    </linearGradient>
    <linearGradient
       id="paint746_linear_890_11"
       x1="176"
       y1="84"
       x2="175.47501"
       y2="78.479202"
       gradientUnits="userSpaceOnUse"
       gradientTransform="matrix(1.1052717,0,0,1.1052717,-171.31716,-74.363497)">
      <stop
         offset="0.404925"
         stop-color="#2E2E41"
         id="stop2235"
         style="stop-color:#ff0000;stop-opacity:1" />
      <stop
         offset="1"
         stop-color="#566C80"
         id="stop2236"
         style="stop-color:#ffaaaa;stop-opacity:1" />
    </linearGradient>
    <linearGradient
       id="paint747_linear_890_11"
       x1="202"
       y1="84"
       x2="201.47501"
       y2="78.479202"
       gradientUnits="userSpaceOnUse"
       gradientTransform="matrix(1.1052717,0,0,1.1052717,-171.31716,-74.363497)">
      <stop
         offset="0.404925"
         stop-color="#2E2E41"
         id="stop2237"
         style="stop-color:#ff0000;stop-opacity:1" />
      <stop
         offset="1"
         stop-color="#566C80"
         id="stop2238"
         style="stop-color:#ffaaaa;stop-opacity:1" />
    </linearGradient>
    <linearGradient
       id="paint748_linear_890_11"
       x1="155"
       y1="82"
       x2="186.461"
       y2="132.33701"
       gradientUnits="userSpaceOnUse">
      <stop
         offset="0.20572101"
         stop-color="#EFF2F6"
         id="stop2239"
         style="stop-color:#ced8e3;stop-opacity:1;" />
      <stop
         offset="1"
         stop-color="#B7C6CD"
         id="stop2240"
         style="stop-color:#9fb2bc;stop-opacity:1;" />
    </linearGradient>
    <radialGradient
       id="paint750_radial_890_11"
       cx="0"
       cy="0"
       r="1"
       gradientUnits="userSpaceOnUse"
       gradientTransform="matrix(6.2415363,6.2415363,-6.2415363,6.2415363,18.789562,31.742584)">
      <stop
         offset="0.340843"
         stop-color="#2E2E41"
         id="stop2243" />
      <stop
         offset="1"
         stop-color="#566C80"
         id="stop2244" />
    </radialGradient>
    <linearGradient
       id="paint751_linear_890_11"
       x1="166"
       y1="90"
       x2="178"
       y2="102"
       gradientUnits="userSpaceOnUse"
       gradientTransform="matrix(1.1052717,0,0,1.1052717,-171.31716,-74.363497)">
      <stop
         stop-color="white"
         id="stop2245" />
      <stop
         offset="0.705"
         stop-color="#EAEFEF"
         id="stop2246" />
    </linearGradient>
    <linearGradient
       id="paint752_linear_890_11"
       x1="193"
       y1="88"
       x2="199"
       y2="94"
       gradientUnits="userSpaceOnUse"
       gradientTransform="matrix(1.1052717,0,0,1.1052717,-171.31716,-74.363497)">
      <stop
         stop-color="#FFE607"
         id="stop2247" />
      <stop
         offset="0.802569"
         stop-color="#FF7E07"
         id="stop2248" />
    </linearGradient>
    <linearGradient
       id="paint753_linear_890_11"
       x1="199"
       y1="104"
       x2="193"
       y2="98"
       gradientUnits="userSpaceOnUse"
       gradientTransform="matrix(1.1052717,0,0,1.1052717,-171.31716,-74.363497)">
      <stop
         offset="0.253846"
         stop-color="#089953"
         id="stop2249" />
      <stop
         offset="1"
         stop-color="#16D96F"
         id="stop2250" />
    </linearGradient>
    <linearGradient
       id="paint754_linear_890_11"
       x1="198"
       y1="93"
       x2="204"
       y2="99"
       gradientUnits="userSpaceOnUse"
       gradientTransform="matrix(1.1052717,0,0,1.1052717,-171.31716,-74.363497)">
      <stop
         offset="0.30755"
         stop-color="#F15700"
         id="stop2251" />
      <stop
         offset="0.832479"
         stop-color="#FF0000"
         id="stop2252" />
    </linearGradient>
    <linearGradient
       id="paint755_linear_890_11"
       x1="194"
       y1="99"
       x2="188"
       y2="93"
       gradientUnits="userSpaceOnUse"
       gradientTransform="matrix(1.1052717,0,0,1.1052717,-171.31716,-74.363497)">
      <stop
         offset="0.320751"
         stop-color="#5200FF"
         id="stop2253" />
      <stop
         offset="1"
         stop-color="#0085FF"
         id="stop2254" />
    </linearGradient>
    <linearGradient
       inkscape:collect="always"
       xlink:href="#paint748_linear_890_11"
       id="linearGradient1"
       gradientUnits="userSpaceOnUse"
       x1="155"
       y1="82"
       x2="186.12425"
       y2="132.25282"
       gradientTransform="matrix(1.1052717,0,0,1.1052717,-171.31716,-74.363497)" />
    <linearGradient
       inkscape:collect="always"
       xlink:href="#linearGradient12"
       id="linearGradient2"
       gradientUnits="userSpaceOnUse"
       x1="155"
       y1="82"
       x2="186.461"
       y2="132.33701"
       gradientTransform="matrix(1.1052717,0,0,1.1052717,-171.31716,-74.363497)" />
    <linearGradient
       inkscape:collect="always"
       xlink:href="#linearGradient3"
       id="linearGradient4"
       x1="47.710018"
       y1="18.479324"
       x2="47.667549"
       y2="12.952965"
       gradientUnits="userSpaceOnUse" />
    <linearGradient
       inkscape:collect="always"
       xlink:href="#linearGradient3"
       id="linearGradient6"
       x1="18.972954"
       y1="18.479324"
       x2="18.930485"
       y2="12.952965"
       gradientUnits="userSpaceOnUse" />
    <radialGradient
       inkscape:collect="always"
       xlink:href="#linearGradient8"
       id="radialGradient9"
       cx="18.789562"
       cy="31.742584"
       fx="18.789562"
       fy="31.742584"
       r="8.842173"
       gradientUnits="userSpaceOnUse"
       gradientTransform="matrix(0.7071068,0.70710676,-0.75000003,0.75000009,29.310274,-5.3505832)" />
    <linearGradient
       inkscape:collect="always"
       xlink:href="#linearGradient5"
       id="linearGradient7"
       x1="27.150242"
       y1="20.607472"
       x2="52.53411"
       y2="20.607472"
       gradientUnits="userSpaceOnUse" />
  </defs>
  <g
     inkscape:label="Layer 1"
     inkscape:groupmode="layer"
     id="layer1">
    <path
       fill-rule="evenodd"
       clip-rule="evenodd"
       d="m 48.811607,5.258418 c 0.09189,-0.121985 0.177144,-0.261559 0.249108,-0.4293066 0.296716,-0.690722 0.728504,-1.382445 1.33965,-1.382445 h 1.107149 c 0.611146,0 1.120434,0.645675 1.011934,1.423059 C 52.336768,6.1831 51.891694,7.32129 51.193084,8.248976 c -0.895684,1.189673 -2.080333,1.865523 -3.270518,2.275666 -2.288476,0.78811 -7.885113,0.787395 -7.885113,0.787395 0,0 -0.102965,0 -0.155001,0 -2.845372,0 -5.364135,0.01602 -7.184287,0.642673 -0.884612,0.30489 -1.429329,0.701591 -1.744867,1.120744 -0.271251,0.36052 -0.48161,0.876202 -0.48161,1.811752 0,1.09057 0.194859,1.685478 0.391931,2.03184 0.19818,0.349652 0.52036,0.658117 1.067291,0.893649 1.196828,0.515254 2.942802,0.480361 5.072956,0.296882 0.27568,-0.02374 0.55911,-0.05019 0.848076,-0.07723 1.74708,-0.163457 3.689019,-0.345075 5.226849,-0.03604 0.923362,0.185479 1.941939,0.584326 2.740193,1.517731 0.862469,1.007912 1.259935,2.388784 1.259935,3.953564 0,2.292828 -0.558003,3.959572 -1.558865,5.17942 -0.724076,0.883494 -1.668473,1.470251 -2.346048,1.891407 -0.12068,0.07523 -0.233609,0.145151 -0.334359,0.210505 -0.779433,0.502955 -1.302007,0.937982 -1.678438,1.613974 -0.363145,0.651968 -0.725182,3.211074 -0.725182,5.405369 h -3.321446 c 0,-2.81094 0.468324,-6.329621 1.350721,-7.912134 0.869112,-1.558488 2.007261,-2.374769 2.888551,-2.944366 0.186001,-0.120125 0.355395,-0.227095 0.509288,-0.324625 0.667611,-0.423157 1.058435,-0.670702 1.377293,-1.059251 0.24468,-0.299599 0.517039,-0.777957 0.517039,-2.060299 0,-0.577175 -0.119572,-0.717321 -0.166072,-0.771378 -0.109608,-0.128134 -0.389717,-0.333492 -1.023006,-0.460768 -1.131506,-0.227238 -2.620621,-0.09153 -4.411987,0.07165 -0.302252,0.02746 -0.612254,0.05577 -0.931112,0.08324 -2.021654,0.174039 -4.427488,0.317905 -6.34507,-0.507531 -1.009719,-0.43474 -1.985117,-1.176516 -2.6948,-2.424537 -0.710789,-1.251309 -1.035184,-2.801502 -1.035184,-4.571067 0,-1.924585 0.48161,-3.554004 1.421579,-4.80231 0.895684,-1.189674 2.080333,-1.865523 3.271625,-2.275667 2.287369,-0.78811 5.233492,-0.787681 7.884006,-0.787396 0.05204,0 0.104072,0 0.155,0 2.845373,0 5.364136,-0.01602 7.184288,-0.642671 0.884612,-0.30489 1.429329,-0.701591 1.744867,-1.120745 z"
       id="path725"
       style="fill:url(#linearGradient7)" />
    <g
       id="g2"
       transform="translate(0.05244945,-0.09304706)">
      <g
         id="g1">
        <path
           d="m 9.947389,15.163509 c 0,-1.220884 0.989218,-2.210544 2.210543,-2.210544 h 8.842174 c 1.221324,0 2.210543,0.98966 2.210543,2.210544 v 3.315815 H 9.947389 Z"
           id="path726"
           style="fill:url(#linearGradient6)" />
        <path
           d="m 38.684452,15.163509 c 0,-1.220884 0.989218,-2.210544 2.210543,-2.210544 h 8.842174 c 1.221325,0 2.210543,0.98966 2.210543,2.210544 v 3.315815 h -13.26326 z"
           id="path727"
           style="fill:url(#linearGradient4)" />
        <path
           d="m 15.473747,16.26878 c 3.27492,0 11.945776,1.095767 15.220696,1.095767 2.0967,0 3.78445,1.657354 3.741344,3.714708 l -0.348159,16.60527 c -0.06521,3.106918 -0.226582,5.65899 -3.393185,5.65899 -7.641848,0 -8.637698,2.296755 -17.465503,8.670857 C 1.2212691,60.685228 -2.1144409,48.749399 1.2212691,34.672991 5.5870922,16.247338 11.614138,16.26878 15.473747,16.26878 Z"
           id="path728"
           style="fill:url(#linearGradient1);stroke-width:1.10527" />
        <path
           d="m 46.421354,16.26878 c -3.27492,0 -11.978935,1.095767 -15.253854,1.095767 -2.0967,0 -3.751293,1.657354 -3.708187,3.714708 l 0.348161,16.60527 c 0.06521,3.106918 0.22658,5.65899 3.393184,5.65899 7.641848,0 8.637698,2.296755 17.465503,8.670857 C 60.673832,60.685228 64.009542,48.749399 60.673832,34.672991 56.308009,16.247338 50.280962,16.26878 46.421354,16.26878 Z"
           id="path729"
           style="fill:url(#linearGradient2);stroke-width:1.10527" />
        <path
           d="m 27.631735,31.742584 c 0,4.88309 -3.959083,8.842173 -8.842173,8.842173 -4.883091,0 -8.842173,-3.959083 -8.842173,-8.842173 0,-4.883422 3.959082,-8.842173 8.842173,-8.842173 4.88309,0 8.842173,3.958751 8.842173,8.842173 z"
           id="path730"
           style="fill:url(#radialGradient9)" />
        <path
           d="m 21.000106,26.584612 c 0,-0.813811 -0.659848,-1.473658 -1.473327,-1.473658 h -1.474433 c -0.81348,0 -1.473327,0.659847 -1.473327,1.473658 0,1.627845 -1.319695,2.947429 -2.94776,2.947429 -0.81348,0 -1.473327,0.659847 -1.473327,1.473658 v 1.473769 c 0,0.813812 0.659847,1.473659 1.473327,1.473659 1.628065,0 2.94776,1.319584 2.94776,2.947759 0,0.813481 0.659847,1.473327 1.473327,1.473327 h 1.474433 c 0.813479,0 1.473327,-0.659846 1.473327,-1.473327 0,-1.628175 1.319693,-2.947759 2.947759,-2.947759 0.81348,0 1.473327,-0.659847 1.473327,-1.473659 v -1.473769 c 0,-0.813811 -0.659847,-1.473658 -1.473327,-1.473658 -1.628066,0 -2.947759,-1.319584 -2.947759,-2.947429 z"
           id="path731"
           style="fill:#e2e5e9;fill-opacity:1" />
        <circle
           cx="45.316086"
           cy="26.216236"
           r="3.3158152"
           id="circle731"
           style="fill:url(#paint752_linear_890_11);stroke-width:1.10527" />
        <circle
           cx="45.316086"
           cy="37.268955"
           r="3.3158152"
           id="circle732"
           style="fill:url(#paint753_linear_890_11);stroke-width:1.10527" />
        <circle
           cx="50.842445"
           cy="31.742596"
           r="3.3158152"
           id="circle733"
           style="fill:url(#paint754_linear_890_11);stroke-width:1.10527" />
        <circle
           cx="39.789726"
           cy="31.742596"
           r="3.3158152"
           id="circle734"
           style="fill:url(#paint755_linear_890_11);stroke-width:1.10527" />
      </g>
    </g>
  </g>
</svg>
