<?xml version="1.0" encoding="UTF-8" standalone="no"?>
<!-- Created with Inkscape (http://www.inkscape.org/) -->

<svg
   width="62"
   height="62"
   viewBox="0 0 62 62"
   version="1.1"
   id="svg1"
   inkscape:version="1.4 (unknown)"
   sodipodi:docname="applications-education-university.svg"
   xmlns:inkscape="http://www.inkscape.org/namespaces/inkscape"
   xmlns:sodipodi="http://sodipodi.sourceforge.net/DTD/sodipodi-0.dtd"
   xmlns:xlink="http://www.w3.org/1999/xlink"
   xmlns="http://www.w3.org/2000/svg"
   xmlns:svg="http://www.w3.org/2000/svg">
  <sodipodi:namedview
     id="namedview1"
     pagecolor="#ffffff"
     bordercolor="#000000"
     borderopacity="0.25"
     inkscape:showpageshadow="2"
     inkscape:pageopacity="0.0"
     inkscape:pagecheckerboard="0"
     inkscape:deskcolor="#d1d1d1"
     inkscape:document-units="px"
     inkscape:zoom="5.373625"
     inkscape:cx="37.032729"
     inkscape:cy="11.444788"
     inkscape:window-width="1920"
     inkscape:window-height="996"
     inkscape:window-x="0"
     inkscape:window-y="0"
     inkscape:window-maximized="1"
     inkscape:current-layer="layer1"
     showgrid="false">
    <inkscape:grid
       id="grid1"
       units="px"
       originx="0"
       originy="0"
       spacingx="1"
       spacingy="1"
       empcolor="#0099e5"
       empopacity="0.30196078"
       color="#0099e5"
       opacity="0.14901961"
       empspacing="5"
       enabled="true"
       visible="false" />
  </sodipodi:namedview>
  <defs
     id="defs1">
    <linearGradient
       id="linearGradient1"
       inkscape:collect="always">
      <stop
         style="stop-color:#535d6c;stop-opacity:1"
         offset="0"
         id="stop1" />
      <stop
         style="stop-color:#aa87de;stop-opacity:1"
         offset="1"
         id="stop2" />
    </linearGradient>
    <radialGradient
       id="paint664_radial_890_11"
       cx="0"
       cy="0"
       r="1"
       gradientUnits="userSpaceOnUse"
       gradientTransform="matrix(-16.000099,-9.999913,9.999913,-16.000099,583,171)">
      <stop
         offset="0.42141"
         stop-color="#B7C6CD"
         id="stop2071" />
      <stop
         offset="1"
         stop-color="#EFF2F6"
         id="stop2072" />
    </radialGradient>
    <linearGradient
       id="paint665_linear_890_11"
       x1="605"
       y1="180"
       x2="601.466"
       y2="162.72301"
       gradientUnits="userSpaceOnUse">
      <stop
         stop-color="#5200FF"
         id="stop2073" />
      <stop
         offset="1"
         stop-color="#0085FF"
         id="stop2074" />
    </linearGradient>
    <linearGradient
       id="paint666_linear_890_11"
       x1="567"
       y1="181"
       x2="562.11798"
       y2="174.183"
       gradientUnits="userSpaceOnUse">
      <stop
         stop-color="#5200FF"
         id="stop2075" />
      <stop
         offset="0.670391"
         stop-color="#0085FF"
         id="stop2076" />
    </linearGradient>
    <linearGradient
       id="paint667_linear_890_11"
       x1="605"
       y1="180"
       x2="597.32001"
       y2="174.24001"
       gradientUnits="userSpaceOnUse">
      <stop
         stop-color="#5200FF"
         id="stop2077" />
      <stop
         offset="1"
         stop-color="#0085FF"
         id="stop2078" />
    </linearGradient>
    <linearGradient
       id="paint668_linear_890_11"
       x1="567"
       y1="180"
       x2="561.23999"
       y2="172.32001"
       gradientUnits="userSpaceOnUse">
      <stop
         stop-color="#5200FF"
         id="stop2079" />
      <stop
         offset="1"
         stop-color="#0085FF"
         id="stop2080" />
    </linearGradient>
    <linearGradient
       id="paint669_linear_890_11"
       x1="607"
       y1="179"
       x2="602.50598"
       y2="171.80901"
       gradientUnits="userSpaceOnUse">
      <stop
         stop-color="#5200FF"
         id="stop2081" />
      <stop
         offset="1"
         stop-color="#0085FF"
         id="stop2082" />
    </linearGradient>
    <linearGradient
       id="paint670_linear_890_11"
       x1="607"
       y1="217"
       x2="568.82599"
       y2="170.01601"
       gradientUnits="userSpaceOnUse">
      <stop
         stop-color="#5200FF"
         id="stop2083" />
      <stop
         offset="1"
         stop-color="#0085FF"
         id="stop2084" />
    </linearGradient>
    <radialGradient
       id="paint671_radial_890_11"
       cx="0"
       cy="0"
       r="1"
       gradientUnits="userSpaceOnUse"
       gradientTransform="matrix(0,20,-16,0,583,187)">
      <stop
         offset="0.869716"
         stop-color="#EFF2F6"
         id="stop2085" />
      <stop
         offset="1"
         stop-color="#B7C6CD"
         id="stop2086" />
    </radialGradient>
    <linearGradient
       id="paint497_linear_890_11"
       x1="497"
       y1="413"
       x2="447.457"
       y2="376.79599"
       gradientUnits="userSpaceOnUse"
       gradientTransform="translate(-452,-358)">
      <stop
         offset="0.636456"
         stop-color="#71706E"
         id="stop1737" />
      <stop
         offset="1"
         stop-color="#B9AA99"
         id="stop1738" />
    </linearGradient>
    <linearGradient
       id="paint498_linear_890_11"
       x1="507"
       y1="413"
       x2="457.457"
       y2="376.79599"
       gradientUnits="userSpaceOnUse"
       gradientTransform="translate(-452,-358)">
      <stop
         offset="0.544933"
         stop-color="#FF7E07"
         id="stop1739" />
      <stop
         offset="1"
         stop-color="#FFE607"
         id="stop1740" />
    </linearGradient>
    <linearGradient
       id="paint499_linear_890_11"
       x1="473"
       y1="365"
       x2="486.28699"
       y2="389.91299"
       gradientUnits="userSpaceOnUse"
       gradientTransform="translate(-452,-358)">
      <stop
         stop-color="white"
         id="stop1741" />
      <stop
         offset="0.705"
         stop-color="#EAEFEF"
         id="stop1742" />
    </linearGradient>
    <linearGradient
       id="paint500_linear_890_11"
       x1="480"
       y1="371.5"
       x2="480"
       y2="368.5"
       gradientUnits="userSpaceOnUse"
       gradientTransform="translate(-452,-358)">
      <stop
         offset="0.155999"
         stop-color="#71706E"
         id="stop1743" />
      <stop
         offset="0.796276"
         stop-color="#B9AA99"
         id="stop1744" />
    </linearGradient>
    <linearGradient
       id="paint501_linear_890_11"
       x1="479"
       y1="375.5"
       x2="479"
       y2="372.5"
       gradientUnits="userSpaceOnUse"
       gradientTransform="translate(-452,-358)">
      <stop
         offset="0.155999"
         stop-color="#71706E"
         id="stop1745" />
      <stop
         offset="0.796276"
         stop-color="#B9AA99"
         id="stop1746" />
    </linearGradient>
    <linearGradient
       id="paint502_linear_890_11"
       x1="511"
       y1="417"
       x2="455.64352"
       y2="380.82346"
       gradientUnits="userSpaceOnUse"
       gradientTransform="translate(-452,-358)">
      <stop
         offset="0.18397722"
         stop-color="#2E2E41"
         id="stop1747"
         style="stop-color:#33424d;stop-opacity:1;" />
      <stop
         offset="1"
         stop-color="#566C80"
         id="stop1748" />
    </linearGradient>
    <linearGradient
       id="paint745_linear_890_11"
       x1="172"
       y1="61"
       x2="195.978"
       y2="83.979202"
       gradientUnits="userSpaceOnUse">
      <stop
         stop-color="#EFF2F6"
         id="stop2233" />
      <stop
         offset="1"
         stop-color="#ACD1CF"
         id="stop2234" />
    </linearGradient>
    <linearGradient
       id="paint746_linear_890_11"
       x1="176"
       y1="84"
       x2="175.47501"
       y2="78.479202"
       gradientUnits="userSpaceOnUse">
      <stop
         offset="0.404925"
         stop-color="#2E2E41"
         id="stop2235" />
      <stop
         offset="1"
         stop-color="#566C80"
         id="stop2236" />
    </linearGradient>
    <linearGradient
       id="paint747_linear_890_11"
       x1="202"
       y1="84"
       x2="201.47501"
       y2="78.479202"
       gradientUnits="userSpaceOnUse">
      <stop
         offset="0.404925"
         stop-color="#2E2E41"
         id="stop2237" />
      <stop
         offset="1"
         stop-color="#566C80"
         id="stop2238" />
    </linearGradient>
    <linearGradient
       id="paint748_linear_890_11"
       x1="155"
       y1="82"
       x2="186.461"
       y2="132.33701"
       gradientUnits="userSpaceOnUse">
      <stop
         offset="0.205721"
         stop-color="#EFF2F6"
         id="stop2239" />
      <stop
         offset="1"
         stop-color="#B7C6CD"
         id="stop2240" />
    </linearGradient>
    <radialGradient
       id="paint750_radial_890_11"
       cx="0"
       cy="0"
       r="1"
       gradientUnits="userSpaceOnUse"
       gradientTransform="matrix(5.6470608,5.6470608,-5.6470608,5.6470608,172,96)">
      <stop
         offset="0.340843"
         stop-color="#2E2E41"
         id="stop2243" />
      <stop
         offset="1"
         stop-color="#566C80"
         id="stop2244" />
    </radialGradient>
    <linearGradient
       id="paint751_linear_890_11"
       x1="166"
       y1="90"
       x2="178"
       y2="102"
       gradientUnits="userSpaceOnUse">
      <stop
         stop-color="white"
         id="stop2245" />
      <stop
         offset="0.705"
         stop-color="#EAEFEF"
         id="stop2246" />
    </linearGradient>
    <linearGradient
       id="paint752_linear_890_11"
       x1="193"
       y1="88"
       x2="199"
       y2="94"
       gradientUnits="userSpaceOnUse">
      <stop
         stop-color="#FFE607"
         id="stop2247" />
      <stop
         offset="0.802569"
         stop-color="#FF7E07"
         id="stop2248" />
    </linearGradient>
    <linearGradient
       id="paint753_linear_890_11"
       x1="199"
       y1="104"
       x2="193"
       y2="98"
       gradientUnits="userSpaceOnUse">
      <stop
         offset="0.253846"
         stop-color="#089953"
         id="stop2249" />
      <stop
         offset="1"
         stop-color="#16D96F"
         id="stop2250" />
    </linearGradient>
    <linearGradient
       id="paint754_linear_890_11"
       x1="198"
       y1="93"
       x2="204"
       y2="99"
       gradientUnits="userSpaceOnUse">
      <stop
         offset="0.30755"
         stop-color="#F15700"
         id="stop2251" />
      <stop
         offset="0.832479"
         stop-color="#FF0000"
         id="stop2252" />
    </linearGradient>
    <linearGradient
       id="paint755_linear_890_11"
       x1="194"
       y1="99"
       x2="188"
       y2="93"
       gradientUnits="userSpaceOnUse">
      <stop
         offset="0.320751"
         stop-color="#5200FF"
         id="stop2253" />
      <stop
         offset="1"
         stop-color="#0085FF"
         id="stop2254" />
    </linearGradient>
    <linearGradient
       inkscape:collect="always"
       xlink:href="#linearGradient1"
       id="linearGradient2"
       x1="33.282806"
       y1="41.341057"
       x2="33.736019"
       y2="13.264877"
       gradientUnits="userSpaceOnUse" />
  </defs>
  <g
     inkscape:label="Layer 1"
     inkscape:groupmode="layer"
     id="layer1">
    <g
       id="g1"
       transform="translate(-2.9998349,-3.1052168)">
      <path
         style="opacity:0.2;stroke-width:1.11175"
         d="M 11.857134,28.189088 H 56.142706 V 45.37967 c 0,0 -3.163255,9.3767 -22.142785,9.3767 -18.979533,0 -22.142787,-9.3767 -22.142787,-9.3767 z"
         id="path1" />
      <path
         style="fill:#535d6c;stroke-width:1.11175"
         d="m 11.857134,27.072804 h 44.285572 v 17.190598 c 0,0 -3.163255,9.376701 -22.142785,9.376701 -18.979533,0 -22.142787,-9.376701 -22.142787,-9.376701 z"
         id="path2" />
      <path
         style="opacity:0.2;stroke-width:1.11175"
         d="m 33.270735,11.242383 a 6.5220771,3.2879788 0 0 0 -3.880203,0.940102 L 4.9066918,24.527342 a 6.5220771,3.2879788 0 0 0 0,4.646277 L 29.390532,41.51546 a 6.5220771,3.2879788 0 0 0 9.218793,0 L 63.093158,29.173619 a 6.5220771,3.2879788 0 0 0 0,-4.646277 L 38.609325,12.182485 a 6.5220771,3.2879788 0 0 0 -5.33859,-0.940102 z"
         id="path3" />
      <path
         style="fill:url(#linearGradient2);stroke-width:1.11175"
         d="m 33.270735,10.126098 a 6.5220771,3.2879788 0 0 0 -3.880203,0.940103 L 4.9066918,23.411063 a 6.5220771,3.2879788 0 0 0 0,4.646274 L 29.390532,40.399179 a 6.5220771,3.2879788 0 0 0 9.218793,0 L 63.093158,28.057337 a 6.5220771,3.2879788 0 0 0 0,-4.646274 L 38.609325,11.066201 a 6.5220771,3.2879788 0 0 0 -5.33859,-0.940103 z"
         id="path4" />
      <path
         style="opacity:0.2;stroke-width:1.11175"
         d="m 34.300491,23.520217 -23.016386,3.579941 c -2.1787624,0.183309 -3.6567357,1.501305 -4.2966575,2.703473 -0.648279,1.217886 -0.6660134,2.402623 -0.6660134,2.402623 a 1.6608747,1.6745834 0 0 0 0,0.0415 V 42.560223 A 1.2459518,1.3024483 0 0 0 5.5148658,43.526027 L 3.023803,56.548526 a 1.2459518,1.3024483 0 0 0 1.2217448,1.556691 H 11.7209 a 1.2459518,1.3024483 0 0 0 1.221751,-1.556695 L 10.449418,43.526007 A 1.2459518,1.3024483 0 0 0 9.6428524,42.560159 V 32.291283 c 0,0 0.022649,-0.439535 0.2702986,-0.904797 0.247661,-0.465262 0.492656,-0.869549 1.68449,-0.952766 a 1.6608747,1.6745834 0 0 0 0.138401,-0.01519 l 23.070449,-3.588659 a 1.6607097,1.6744171 0 0 0 1.388247,-1.909883 1.6607097,1.6744171 0 0 0 -1.894247,-1.399707 z"
         id="path5" />
      <path
         style="fill:none;stroke:#c5aee9;stroke-width:3.33515;stroke-linecap:round;stroke-linejoin:round;stroke-opacity:1"
         d="M 34.553492,24.058727 11.48287,27.646523 C 8.0652597,27.885128 7.9821879,31.1321 7.9821879,31.1321 v 13.354458"
         id="path6" />
      <path
         style="fill:#8d5fd3;stroke-width:1.11175"
         d="M 6.7371313,41.360997 A 1.2459518,1.3024483 0 0 0 5.5156357,42.408946 L 3.0239814,55.432131 a 1.2459518,1.3024483 0 0 0 1.2214951,1.556676 h 7.4749555 a 1.2459518,1.3024483 0 0 0 1.221507,-1.556676 L 10.450282,42.408946 A 1.2459518,1.3024483 0 0 0 9.2287853,41.360997 Z"
         id="path7" />
      <path
         style="opacity:0.1;fill:#ffffff;stroke-width:1.11175"
         d="m 34.730807,10.124878 a 6.5220771,3.2879788 0 0 0 -1.459604,0.002 6.5220771,3.2879788 0 0 0 -3.881483,0.939681 L 4.9072373,23.411199 A 6.5220771,3.2879788 0 0 0 3.1470587,26.291293 6.5220771,3.2879788 0 0 1 4.9072373,24.527481 L 29.38972,12.183026 a 6.5220771,3.2879788 0 0 1 3.881483,-0.939686 6.5220771,3.2879788 0 0 1 5.338915,0.939686 l 24.48249,12.344455 a 6.5220771,3.2879788 0 0 1 1.805586,1.763812 6.5220771,3.2879788 0 0 0 -1.805586,-2.880094 L 38.610118,11.066741 a 6.5220771,3.2879788 0 0 0 -3.879311,-0.941863 z"
         id="path8" />
    </g>
  </g>
</svg>
