<?xml version="1.0" encoding="UTF-8" standalone="no"?>
<!-- Created with Inkscape (http://www.inkscape.org/) -->

<svg
   width="62"
   height="62"
   viewBox="0 0 62 62"
   version="1.1"
   id="svg1"
   inkscape:version="1.4 (e7c3feb100, 2024-10-09)"
   sodipodi:docname="application-default-icon.svg"
   xmlns:inkscape="http://www.inkscape.org/namespaces/inkscape"
   xmlns:sodipodi="http://sodipodi.sourceforge.net/DTD/sodipodi-0.dtd"
   xmlns:xlink="http://www.w3.org/1999/xlink"
   xmlns="http://www.w3.org/2000/svg"
   xmlns:svg="http://www.w3.org/2000/svg">
  <sodipodi:namedview
     id="namedview1"
     pagecolor="#ffffff"
     bordercolor="#000000"
     borderopacity="0.25"
     inkscape:showpageshadow="2"
     inkscape:pageopacity="0.0"
     inkscape:pagecheckerboard="0"
     inkscape:deskcolor="#d1d1d1"
     inkscape:document-units="px"
     inkscape:zoom="10.74725"
     inkscape:cx="29.914629"
     inkscape:cy="31.822094"
     inkscape:window-width="1920"
     inkscape:window-height="994"
     inkscape:window-x="0"
     inkscape:window-y="0"
     inkscape:window-maximized="1"
     inkscape:current-layer="layer1"
     showgrid="false">
    <inkscape:grid
       id="grid1"
       units="px"
       originx="0"
       originy="0"
       spacingx="1"
       spacingy="1"
       empcolor="#0099e5"
       empopacity="0.30196078"
       color="#0099e5"
       opacity="0.14901961"
       empspacing="5"
       enabled="true"
       visible="false" />
  </sodipodi:namedview>
  <defs
     id="defs1">
    <linearGradient
       id="linearGradient1"
       inkscape:collect="always">
      <stop
         style="stop-color:#5570ff;stop-opacity:1;"
         offset="0"
         id="stop1" />
      <stop
         style="stop-color:#4dd3ff;stop-opacity:1;"
         offset="1"
         id="stop2" />
    </linearGradient>
    <radialGradient
       id="paint664_radial_890_11"
       cx="0"
       cy="0"
       r="1"
       gradientUnits="userSpaceOnUse"
       gradientTransform="matrix(-16.000099,-9.999913,9.999913,-16.000099,583,171)">
      <stop
         offset="0.42141"
         stop-color="#B7C6CD"
         id="stop2071" />
      <stop
         offset="1"
         stop-color="#EFF2F6"
         id="stop2072" />
    </radialGradient>
    <linearGradient
       id="paint665_linear_890_11"
       x1="605"
       y1="180"
       x2="601.466"
       y2="162.72301"
       gradientUnits="userSpaceOnUse">
      <stop
         stop-color="#5200FF"
         id="stop2073" />
      <stop
         offset="1"
         stop-color="#0085FF"
         id="stop2074" />
    </linearGradient>
    <linearGradient
       id="paint666_linear_890_11"
       x1="567"
       y1="181"
       x2="562.11798"
       y2="174.183"
       gradientUnits="userSpaceOnUse">
      <stop
         stop-color="#5200FF"
         id="stop2075" />
      <stop
         offset="0.670391"
         stop-color="#0085FF"
         id="stop2076" />
    </linearGradient>
    <linearGradient
       id="paint667_linear_890_11"
       x1="605"
       y1="180"
       x2="597.32001"
       y2="174.24001"
       gradientUnits="userSpaceOnUse">
      <stop
         stop-color="#5200FF"
         id="stop2077" />
      <stop
         offset="1"
         stop-color="#0085FF"
         id="stop2078" />
    </linearGradient>
    <linearGradient
       id="paint668_linear_890_11"
       x1="567"
       y1="180"
       x2="561.23999"
       y2="172.32001"
       gradientUnits="userSpaceOnUse">
      <stop
         stop-color="#5200FF"
         id="stop2079" />
      <stop
         offset="1"
         stop-color="#0085FF"
         id="stop2080" />
    </linearGradient>
    <linearGradient
       id="paint669_linear_890_11"
       x1="607"
       y1="179"
       x2="602.50598"
       y2="171.80901"
       gradientUnits="userSpaceOnUse">
      <stop
         stop-color="#5200FF"
         id="stop2081" />
      <stop
         offset="1"
         stop-color="#0085FF"
         id="stop2082" />
    </linearGradient>
    <linearGradient
       id="paint670_linear_890_11"
       x1="607"
       y1="217"
       x2="568.82599"
       y2="170.01601"
       gradientUnits="userSpaceOnUse">
      <stop
         stop-color="#5200FF"
         id="stop2083" />
      <stop
         offset="1"
         stop-color="#0085FF"
         id="stop2084" />
    </linearGradient>
    <radialGradient
       id="paint671_radial_890_11"
       cx="0"
       cy="0"
       r="1"
       gradientUnits="userSpaceOnUse"
       gradientTransform="matrix(0,20,-16,0,583,187)">
      <stop
         offset="0.869716"
         stop-color="#EFF2F6"
         id="stop2085" />
      <stop
         offset="1"
         stop-color="#B7C6CD"
         id="stop2086" />
    </radialGradient>
    <linearGradient
       id="paint451_linear_890_11"
       x1="55"
       y1="461"
       x2="111"
       y2="517"
       gradientUnits="userSpaceOnUse"
       gradientTransform="translate(-53,-457)">
      <stop
         offset="0.303571"
         stop-color="#EFF2F6"
         id="stop1644" />
      <stop
         offset="1"
         stop-color="#B7C6CD"
         id="stop1645" />
    </linearGradient>
    <linearGradient
       id="paint452_linear_890_11"
       x1="107"
       y1="513"
       x2="67.655701"
       y2="465.78699"
       gradientUnits="userSpaceOnUse"
       gradientTransform="matrix(1,0,0,1.2,-53,-559.6)">
      <stop
         stop-color="#2E2E41"
         id="stop1646" />
      <stop
         offset="1"
         stop-color="#566C80"
         id="stop1647" />
    </linearGradient>
    <linearGradient
       id="paint453_linear_890_11"
       x1="61"
       y1="465"
       x2="65"
       y2="469"
       gradientUnits="userSpaceOnUse"
       gradientTransform="translate(-53,-457)">
      <stop
         offset="0.236371"
         stop-color="#F15700"
         id="stop1648" />
      <stop
         offset="0.855848"
         stop-color="#FF0000"
         id="stop1649" />
    </linearGradient>
    <linearGradient
       id="paint454_linear_890_11"
       x1="71"
       y1="469"
       x2="67"
       y2="465"
       gradientUnits="userSpaceOnUse"
       gradientTransform="translate(-53,-457)">
      <stop
         stop-color="#FF7E07"
         id="stop1650" />
      <stop
         offset="1"
         stop-color="#FFE607"
         id="stop1651" />
    </linearGradient>
    <linearGradient
       id="paint455_linear_890_11"
       x1="77"
       y1="469"
       x2="73"
       y2="465"
       gradientUnits="userSpaceOnUse"
       gradientTransform="translate(-53,-457)">
      <stop
         stop-color="#089953"
         id="stop1652" />
      <stop
         offset="1"
         stop-color="#16D96F"
         id="stop1653" />
    </linearGradient>
    <linearGradient
       id="paint456_linear_890_11"
       x1="80"
       y1="486"
       x2="80"
       y2="492"
       gradientUnits="userSpaceOnUse"
       gradientTransform="translate(-53,-457)">
      <stop
         offset="0.189495"
         stop-color="#EFF2F6"
         id="stop1654" />
      <stop
         offset="0.850463"
         stop-color="#B7C6CD"
         id="stop1655" />
    </linearGradient>
    <linearGradient
       id="paint457_linear_890_11"
       x1="82"
       y1="494"
       x2="82"
       y2="500"
       gradientUnits="userSpaceOnUse">
      <stop
         offset="0.189495"
         stop-color="#EFF2F6"
         id="stop1656" />
      <stop
         offset="0.850463"
         stop-color="#B7C6CD"
         id="stop1657" />
    </linearGradient>
    <linearGradient
       id="paint159_linear_890_11"
       x1="788"
       y1="790"
       x2="778"
       y2="780"
       gradientUnits="userSpaceOnUse"
       gradientTransform="translate(-753,-753)">
      <stop
         offset="0.39139399"
         stop-color="#5200FF"
         id="stop1060"
         style="stop-color:#854cff;stop-opacity:1;" />
      <stop
         offset="1"
         stop-color="#0085FF"
         id="stop1061"
         style="stop-color:#40a4ff;stop-opacity:1;" />
    </linearGradient>
    <linearGradient
       inkscape:collect="always"
       xlink:href="#linearGradient1"
       id="linearGradient2"
       x1="30.055222"
       y1="59"
       x2="30.942734"
       y2="3"
       gradientUnits="userSpaceOnUse" />
    <linearGradient
       inkscape:collect="always"
       xlink:href="#linearGradient1"
       id="linearGradient4"
       x1="13.922293"
       y1="28.666605"
       x2="14.538294"
       y2="3"
       gradientUnits="userSpaceOnUse" />
  </defs>
  <g
     inkscape:label="Layer 1"
     inkscape:groupmode="layer"
     id="layer1">
    <g
       id="g1"
       transform="matrix(0.92857143,0,0,0.92857143,2.2142857,2.2142857)">
      <path
         d="M 22.743968,3 H 8.923168 C 5.651967,3 3,5.651804 3,8.923046 v 13.820502 c 0,3.271037 2.651732,5.923057 5.923168,5.923057 h 13.8208 c 3.271019,0 5.923164,-2.652033 5.923164,-5.923057 V 8.923046 C 28.667132,5.651895 26.014987,3 22.743968,3 Z"
         id="path2"
         style="fill:url(#linearGradient4);fill-opacity:1;stroke-width:0.424238" />
      <path
         opacity="0.5"
         fill-rule="evenodd"
         clip-rule="evenodd"
         d="M 53.077086,3 H 39.256052 c -3.271075,0 -5.922921,2.651804 -5.922921,5.923046 v 13.820502 c 0,3.271037 2.651964,5.923057 5.922921,5.923057 H 53.077086 C 56.348158,28.666605 59,26.014572 59,22.743548 V 8.923046 C 59,5.651895 56.348044,3 53.077086,3 Z M 22.743968,33.3334 H 8.923168 C 5.651967,33.3334 3,35.985135 3,39.256439 V 53.076944 C 3,56.348097 5.651732,59 8.923168,59 h 13.8208 c 3.271019,0 5.923164,-2.651857 5.923164,-5.923056 V 39.256439 c 0,-3.271095 -2.652145,-5.923039 -5.923164,-5.923039 z m 16.512084,0 H 53.077086 C 56.348158,33.3334 59,35.985135 59,39.256439 V 53.076944 C 59,56.348097 56.348044,59 53.077086,59 H 39.256052 c -3.271075,0 -5.922921,-2.651857 -5.922921,-5.923056 V 39.256439 c 0,-3.271095 2.651964,-5.923039 5.922921,-5.923039 z"
         id="path3-3"
         style="fill:url(#linearGradient2);stroke-width:9.62055" />
      <path
         fill-rule="evenodd"
         clip-rule="evenodd"
         d="m 29.910453,13.509555 c -1.170968,0 -2.296867,0.458532 -3.122755,1.27709 -0.821156,0.813504 -1.282141,1.919781 -1.282243,3.066805 -0.01804,1.198015 -0.981453,2.137973 -2.195942,2.140068 -0.360419,-0.0056 -0.711425,-0.10345 -1.022131,-0.286549 -0.0061,-0.0046 -0.01294,-0.0064 -0.01802,-0.0094 -2.102898,-1.188127 -4.814952,-0.465162 -6.025092,1.60608 l -1.143449,1.85403 c -0.0056,0.0087 -0.0094,0.016 -0.01497,0.01998 -1.208898,2.068572 -0.485756,4.74138 1.606523,5.941816 l 0.0053,0.0053 c 0.682788,0.388807 1.10026,1.101974 1.10026,1.879332 0,0.777769 -0.417181,1.490907 -1.10026,1.879369 -2.091994,1.193635 -2.819171,3.864122 -1.611425,5.928542 l 1.082795,1.845297 0.0056,0.0056 c 0.570129,1.011454 1.526485,1.759792 2.655211,2.076058 1.130702,0.315943 2.344329,0.176475 3.369603,-0.392844 0.0053,-0.0043 0.0097,-0.0061 0.01498,-0.0094 0.500264,-0.288396 1.09513,-0.365908 1.654492,-0.218599 0.559598,0.146924 1.037508,0.507945 1.325517,1.003871 0.0041,0.0064 0.0061,0.0135 0.0094,0.01724 0.187664,0.306018 0.286594,0.654617 0.290744,1.012403 0.0064,2.389058 1.993792,4.34836 4.418146,4.34836 h 2.169996 c 2.419729,0 4.406447,-1.953841 4.417985,-4.339874 v -0.0097 c -0.0046,-0.575547 0.228944,-1.126288 0.641052,-1.533589 0.410459,-0.40467 0.966148,-0.628214 1.546378,-0.627842 0.36645,0.0135 0.729102,0.112074 1.048071,0.290219 2.097097,1.187609 4.808741,0.473114 6.025082,-1.58925 l 1.130465,-1.862434 c 0.0043,-0.0056 0.0064,-0.0099 0.0094,-0.01501 0.589728,-0.998338 0.752258,-2.185211 0.450314,-3.301807 -0.301667,-1.116566 -1.042181,-2.072249 -2.05747,-2.648149 -0.504799,-0.288387 -0.872221,-0.756527 -1.02216,-1.311376 -0.148546,-0.554738 -0.07321,-1.144076 0.220943,-1.640319 0.0015,-0.0041 0.0046,-0.0064 0.0056,-0.0094 0.19099,-0.323284 0.462427,-0.595144 0.792599,-0.781959 0.0043,-0.0013 0.0064,-0.0043 0.0097,-0.0053 1.993934,-1.150233 2.718322,-3.632984 1.723756,-5.655112 -0.02485,-0.09858 -0.06562,-0.194999 -0.116642,-0.288389 l -1.077502,-1.846386 c -1.21,-2.070809 -3.921816,-2.794244 -6.024938,-1.606116 -0.0059,0.0043 -0.0094,0.0064 -0.01472,0.0094 -0.500414,0.289861 -1.096507,0.374649 -1.658944,0.231473 -0.562042,-0.142825 -1.044412,-0.505155 -1.33818,-0.999636 -0.187665,-0.306021 -0.286599,-0.658841 -0.291128,-1.016749 v 0.04239 c 0.03487,-1.177082 -0.415302,-2.320833 -1.247652,-3.165341 -0.832189,-0.844304 -1.976543,-1.320244 -3.170701,-1.319752 z m 1.089328,16.508564 z"
         id="path4-5"
         style="fill:#f2f2f2;fill-opacity:1;stroke-width:0.419852"
         sodipodi:nodetypes="cccccccccccscccccccccccsscccccccccccccccccccccccccccscccs" />
      <path
         d="m 36,31 c 0,2.761 -2.239,5 -5,5 -2.761,0 -5,-2.239 -5,-5 0,-2.761 2.239,-5 5,-5 2.761,0 5,2.239 5,5 z"
         id="path157"
         style="fill:#000000;fill-opacity:1" />
    </g>
  </g>
</svg>
