<?xml version="1.0" encoding="UTF-8" standalone="no"?>
<svg
   clip-rule="evenodd"
   fill-rule="evenodd"
   stroke-linejoin="round"
   stroke-miterlimit="2"
   viewBox="0 0 62 62"
   version="1.1"
   id="svg3"
   sodipodi:docname="ardour.svg"
   width="62"
   height="62"
   inkscape:version="1.4 (e7c3feb100, 2024-10-09)"
   xmlns:inkscape="http://www.inkscape.org/namespaces/inkscape"
   xmlns:sodipodi="http://sodipodi.sourceforge.net/DTD/sodipodi-0.dtd"
   xmlns:xlink="http://www.w3.org/1999/xlink"
   xmlns="http://www.w3.org/2000/svg"
   xmlns:svg="http://www.w3.org/2000/svg">
  <defs
     id="defs3">
    <linearGradient
       id="linearGradient3"
       inkscape:collect="always">
      <stop
         style="stop-color:#ff5555;stop-opacity:1"
         offset="0"
         id="stop3" />
      <stop
         style="stop-color:#c83771;stop-opacity:1"
         offset="1"
         id="stop4" />
    </linearGradient>
    <linearGradient
       inkscape:collect="always"
       xlink:href="#linearGradient3"
       id="linearGradient4"
       x1="5.6766462"
       y1="3.0389028"
       x2="45.667999"
       y2="45.667999"
       gradientUnits="userSpaceOnUse" />
  </defs>
  <sodipodi:namedview
     id="namedview3"
     pagecolor="#ffffff"
     bordercolor="#000000"
     borderopacity="0.25"
     inkscape:showpageshadow="2"
     inkscape:pageopacity="0.0"
     inkscape:pagecheckerboard="0"
     inkscape:deskcolor="#d1d1d1"
     inkscape:zoom="7.8541667"
     inkscape:cx="49.464191"
     inkscape:cy="26.737401"
     inkscape:window-width="1920"
     inkscape:window-height="994"
     inkscape:window-x="0"
     inkscape:window-y="0"
     inkscape:window-maximized="1"
     inkscape:current-layer="svg3" />
  <linearGradient
     id="a"
     x2="1"
     gradientTransform="matrix(0,-43.3368,43.3368,0,211.734,45.6685)"
     gradientUnits="userSpaceOnUse">
    <stop
       stop-color="#b8b8b8"
       offset="0"
       id="stop1"
       style="stop-color:#dc7fa4;stop-opacity:1;" />
    <stop
       stop-color="#eee"
       offset="1"
       id="stop2"
       style="stop-color:#c83771;stop-opacity:1;" />
  </linearGradient>
  <g
     id="g3"
     transform="matrix(1.2922282,0,0,1.2922282,-0.0134768,-0.0134768)">
    <path
       d="m 45.668,8.56 c 0,-3.438 -2.79,-6.228 -6.228,-6.228 H 8.56 c -3.438,0 -6.228,2.79 -6.228,6.228 v 30.88 c 0,3.438 2.79,6.228 6.228,6.228 h 30.88 c 3.438,0 6.228,-2.79 6.228,-6.228 z"
       id="path2"
       style="fill:url(#linearGradient4)" />
    <path
       d="M 24.000004,10.070571 7.7490005,37.929428 h 0.2810223 c 0.5565517,-0.01193 0.7772177,-0.913746 1.0659107,-0.913746 0.189903,0 0.465436,0.141247 0.656451,0.141247 0.3611605,0 0.4654355,-1.890507 0.7706225,-1.883984 0.304076,0.006 0.24699,1.614533 0.818924,1.635176 0.593878,0.02069 0.203064,-3.708214 0.783783,-3.708214 0.506064,0 0.252477,3.181265 0.942958,3.202991 0.669609,0.02069 0.151496,-5.511792 0.819998,-5.565029 0.77941,-0.06299 0.285429,5.148902 1.091157,5.148902 0.703676,0 0.239316,-7.31755 0.861738,-7.31755 0.621312,0 0.433599,7.069826 1.067019,7.01007 0.610346,0 0.02087,-8.526825 0.725591,-8.526825 0.901255,0 0.440193,8.463812 1.058243,8.460552 0.694853,-0.002 0.12733,-9.291714 0.938551,-9.291714 0.839786,0 0.266772,9.382977 0.968229,9.357987 0.73767,-0.02599 -0.03737,-8.790844 0.776106,-8.790844 0.782676,0 0.250265,8.91362 0.933064,8.91362 0.723429,0 -0.05149,-8.798454 0.89358,-8.737606 0.915518,0.05975 0.316132,8.99402 0.970388,8.99402 0.623534,0 0.2514,-7.805389 0.995667,-7.763014 0.872708,0.04899 0.364453,8.004218 0.967096,8.004218 0.558767,0 0.305181,-6.350572 1.04507,-6.350572 0.781594,0 0.193203,6.590685 0.913309,6.560262 0.719022,-0.0293 0.397382,-5.025044 1.096646,-5.025044 0.67072,0 0.116359,5.44878 0.872706,5.44878 0.787083,0 0.389704,-3.814687 1.083483,-3.814687 0.715724,0 0.264558,4.167798 0.812324,4.167798 0.532416,0 0.376538,-2.626061 0.90234,-2.626061 0.526922,0 0.279933,2.778172 0.722317,2.778172 0.45887,0 0.271154,-1.603673 0.756348,-1.603673 0.486305,0 0.312861,1.731876 0.686103,1.752521 0.330405,0.01841 0.287592,-1.091932 0.592771,-1.091932 0.310669,0 0.180039,1.23426 0.607048,1.233176 0.411652,-9.98e-4 0.285421,-0.683404 0.579608,-0.683404 0.287612,0 0.296393,0.801833 0.636691,0.801833 0.242608,-0.004 0.500574,-0.366149 0.809049,-0.366149 0.40506,0 0.530204,0.448723 1.568678,0.448723 h 0.431409 z"
       fill-rule="nonzero"
       id="path3"
       style="fill:#f8d3da;fill-opacity:1;stroke-width:1.09203" />
  </g>
</svg>
