<?xml version="1.0" encoding="UTF-8" standalone="no"?>
<svg
   width="62"
   height="62"
   version="1"
   id="svg7"
   sodipodi:docname="arduino.svg"
   inkscape:version="1.4 (e7c3feb100, 2024-10-09)"
   xmlns:inkscape="http://www.inkscape.org/namespaces/inkscape"
   xmlns:sodipodi="http://sodipodi.sourceforge.net/DTD/sodipodi-0.dtd"
   xmlns:xlink="http://www.w3.org/1999/xlink"
   xmlns="http://www.w3.org/2000/svg"
   xmlns:svg="http://www.w3.org/2000/svg">
  <defs
     id="defs7">
    <linearGradient
       id="linearGradient7"
       inkscape:collect="always">
      <stop
         style="stop-color:#384850;stop-opacity:1;"
         offset="0"
         id="stop8" />
      <stop
         style="stop-color:#384850;stop-opacity:1;"
         offset="0.57661754"
         id="stop10" />
      <stop
         style="stop-color:#f0f4f4;stop-opacity:1;"
         offset="1"
         id="stop9" />
    </linearGradient>
    <linearGradient
       id="linearGradient1"
       inkscape:collect="always">
      <stop
         style="stop-color:#303c47;stop-opacity:1;"
         offset="0"
         id="stop5" />
      <stop
         style="stop-color:#303b46;stop-opacity:1;"
         offset="0.23364122"
         id="stop7" />
      <stop
         style="stop-color:#3e4e5b;stop-opacity:1;"
         offset="1"
         id="stop6" />
    </linearGradient>
    <linearGradient
       id="c-3"
       gradientUnits="userSpaceOnUse"
       x1="24.072048"
       x2="23.959682"
       y1="0.75082099"
       y2="46.056854">
      <stop
         offset="0"
         stop-color="#fff"
         id="stop3" />
      <stop
         offset="1"
         stop-color="#d9d9d9"
         id="stop4" />
    </linearGradient>
    <linearGradient
       id="b-6"
       gradientUnits="userSpaceOnUse"
       x1="29.203026"
       x2="34.121048"
       xlink:href="#a-7"
       y1="24.827356"
       y2="29.224836" />
    <linearGradient
       id="a-7">
      <stop
         offset="0"
         id="stop1" />
      <stop
         offset="1"
         stop-opacity="0"
         id="stop2" />
    </linearGradient>
    <linearGradient
       id="d"
       gradientUnits="userSpaceOnUse"
       x1="15.948756"
       x2="25.031786"
       xlink:href="#a-7"
       y1="23.618279"
       y2="33.69899" />
    <linearGradient
       id="e"
       gradientUnits="userSpaceOnUse"
       x1="21.990562"
       x2="29.320522"
       xlink:href="#a-7"
       y1="33.780373"
       y2="41.931858" />
    <linearGradient
       id="paint154_linear_890_11"
       x1="778"
       y1="812.29199"
       x2="788"
       y2="812.29199"
       gradientUnits="userSpaceOnUse"
       gradientTransform="translate(-751,-696)">
      <stop
         stop-color="#EFF2F6"
         id="stop1050" />
      <stop
         offset="0.600785"
         stop-color="#B7C6CD"
         id="stop1051" />
    </linearGradient>
    <linearGradient
       id="paint155_linear_890_11"
       x1="783"
       y1="813"
       x2="783"
       y2="817"
       gradientUnits="userSpaceOnUse"
       gradientTransform="translate(-751,-696)">
      <stop
         stop-color="#EFF2F6"
         id="stop1052" />
      <stop
         offset="0.734138"
         stop-color="#B7C6CD"
         id="stop1053" />
    </linearGradient>
    <radialGradient
       id="paint156_radial_890_11"
       cx="0"
       cy="0"
       r="1"
       gradientUnits="userSpaceOnUse"
       gradientTransform="matrix(27.999986,27.999976,-27.999986,27.999976,32.302392,33.999998)">
      <stop
         offset="0.60067803"
         stop-color="#B7C6CD"
         id="stop1054"
         style="stop-color:#384850;stop-opacity:1;" />
      <stop
         offset="0.876735"
         stop-color="#EFF2F6"
         id="stop1055" />
    </radialGradient>
    <linearGradient
       id="paint157_linear_890_11"
       x1="796.84485"
       y1="799.43359"
       x2="768.90088"
       y2="770.81476"
       gradientUnits="userSpaceOnUse"
       gradientTransform="matrix(1.1666666,0,0,1.1666668,-881.19764,-881.8333)">
      <stop
         offset="0.00000057"
         stop-color="#2E2E41"
         id="stop1056"
         style="stop-color:#424b58;stop-opacity:1;" />
      <stop
         offset="0.71113902"
         stop-color="#566C80"
         id="stop1057"
         style="stop-color:#303c47;stop-opacity:1;" />
    </linearGradient>
    <linearGradient
       id="paint158_linear_890_11"
       x1="792"
       y1="794"
       x2="774"
       y2="776"
       gradientUnits="userSpaceOnUse"
       gradientTransform="translate(-751,-696)">
      <stop
         offset="0.304478"
         stop-color="#2E2E41"
         id="stop1058" />
      <stop
         offset="1"
         stop-color="#566C80"
         id="stop1059" />
    </linearGradient>
    <linearGradient
       id="paint159_linear_890_11"
       x1="788"
       y1="790"
       x2="778"
       y2="780"
       gradientUnits="userSpaceOnUse"
       gradientTransform="translate(-751,-696)">
      <stop
         offset="0.391394"
         stop-color="#5200FF"
         id="stop1060" />
      <stop
         offset="1"
         stop-color="#0085FF"
         id="stop1061" />
    </linearGradient>
    <linearGradient
       id="paint160_linear_890_11"
       x1="784"
       y1="798"
       x2="782"
       y2="796"
       gradientUnits="userSpaceOnUse"
       gradientTransform="translate(-751,-696)">
      <stop
         stop-color="#FF7E07"
         id="stop1062" />
      <stop
         offset="1"
         stop-color="#FFE607"
         id="stop1063" />
    </linearGradient>
    <linearGradient
       id="c-3-6"
       gradientUnits="userSpaceOnUse"
       x1="24.072048"
       x2="23.959682"
       y1="0.75082099"
       y2="46.056854"
       gradientTransform="matrix(0.91471346,0,0,0.90068147,9.0468769,9.3836444)">
      <stop
         offset="0"
         stop-color="#fff"
         id="stop3-2" />
      <stop
         offset="1"
         stop-color="#d9d9d9"
         id="stop4-9" />
    </linearGradient>
    <linearGradient
       id="b-6-1"
       gradientUnits="userSpaceOnUse"
       x1="29.203026"
       x2="34.121048"
       xlink:href="#a-7"
       y1="24.827356"
       y2="29.224836"
       gradientTransform="matrix(1.1104534,0,0,1.0934187,4.3491158,4.7861435)" />
    <linearGradient
       id="d-0"
       gradientUnits="userSpaceOnUse"
       x1="15.948756"
       x2="25.031786"
       xlink:href="#a-7"
       y1="23.618279"
       y2="33.69899"
       gradientTransform="matrix(1.1104534,0,0,1.0934187,4.3491158,4.7861435)" />
    <linearGradient
       id="e-9"
       gradientUnits="userSpaceOnUse"
       x1="21.990562"
       x2="29.320522"
       xlink:href="#a-7"
       y1="33.780373"
       y2="41.931858"
       gradientTransform="matrix(1.1104534,0,0,1.0934187,4.3491158,4.7861435)" />
    <linearGradient
       inkscape:collect="always"
       xlink:href="#linearGradient1"
       id="linearGradient6"
       x1="16.339075"
       y1="16.981503"
       x2="49.874992"
       y2="49.351608"
       gradientUnits="userSpaceOnUse" />
    <radialGradient
       inkscape:collect="always"
       xlink:href="#linearGradient7"
       id="radialGradient9"
       cx="32.302387"
       cy="34"
       fx="32.302387"
       fy="34"
       r="28"
       gradientUnits="userSpaceOnUse"
       gradientTransform="matrix(0.99999999,1,-0.99999999,0.99999997,34.000001,-32.302387)" />
  </defs>
  <sodipodi:namedview
     id="namedview7"
     pagecolor="#ffffff"
     bordercolor="#000000"
     borderopacity="0.25"
     inkscape:showpageshadow="2"
     inkscape:pageopacity="0.0"
     inkscape:pagecheckerboard="0"
     inkscape:deskcolor="#d1d1d1"
     inkscape:zoom="5.8906252"
     inkscape:cx="60.010608"
     inkscape:cy="44.647214"
     inkscape:window-width="1920"
     inkscape:window-height="994"
     inkscape:window-x="0"
     inkscape:window-y="0"
     inkscape:window-maximized="1"
     inkscape:current-layer="svg7" />
  <g
     id="g1"
     transform="translate(-1.3023872,-3)">
    <path
       d="m 60.302387,34 c 0,15.46415 -12.535828,28 -28.000002,28 C 16.838222,62 4.3023873,49.46415 4.3023873,34 4.3023873,18.535835 16.838222,6 32.302385,6 47.766559,6 60.302387,18.535835 60.302387,34 Z"
       id="path154"
       style="fill:url(#radialGradient9)" />
    <path
       d="m 55.63572,34 c 0,12.88701 -10.446332,23.33332 -23.333335,23.33332 C 19.415386,57.33332 8.9690543,46.88701 8.9690543,34 c 0,-12.886994 10.4463317,-23.333332 23.3333307,-23.333332 12.887003,0 23.333335,10.446338 23.333335,23.333332 z"
       id="path155"
       style="fill:url(#linearGradient6)" />
  </g>
  <g
     id="g8"
     transform="matrix(0.73684001,0,0,0.73327398,7.0526874,7.5352326)">
    <path
       style="opacity:0.1"
       d="m 47,18 c -3.795455,0 -6.928747,2.005313 -9.425781,4.449219 -2.497035,2.443906 -4.582585,5.439396 -6.636719,8.302734 -2.054134,2.863338 -4.075294,5.590919 -6.085938,7.453125 C 22.840919,40.067285 21.041667,41 19,41 13.958333,41 12.280756,39.009145 11.160156,36.861328 10.039557,34.713512 10,32.5 10,32.5 H 4 c 0,0 -0.039557,3.536487 1.8398438,7.138672 C 7.719244,43.240856 12.041667,47 19,47 c 3.958333,0 7.284081,-1.942285 9.929688,-4.392578 2.645606,-2.450294 4.811946,-5.472713 6.882812,-8.359375 2.070866,-2.886662 4.047816,-5.641172 5.957031,-7.509766 C 43.678747,24.869687 45.295455,24 47,24 c 4.454546,0 5.87884,1.872199 6.917969,4.044922 C 54.957097,30.217645 55,32.5 55,32.5 h 6 c 0,0 0.0429,-3.467646 -1.667969,-7.044922 C 57.62116,21.877802 53.545454,18 47,18 Z m -0.523438,8.978516 A 1.50015,1.50015 0 0 0 45,28.5 V 31 h -2.525391 a 1.50015,1.50015 0 1 0 0,3 H 45 v 2.5 a 1.50015,1.50015 0 1 0 3,0 V 34 h 2.5 a 1.50015,1.50015 0 1 0 0,-3 H 48 V 28.5 A 1.50015,1.50015 0 0 0 46.476562,26.978516 Z M 14.5,31 a 1.50015,1.50015 0 1 0 0,3 h 8 a 1.50015,1.50015 0 1 0 0,-3 z"
       id="path2-9" />
    <path
       style="fill:none;stroke:#2196f3;stroke-width:3;stroke-linecap:round;stroke-linejoin:round;stroke-opacity:1"
       d="m 14.5,31.500002 h 8"
       id="path3" />
    <path
       style="fill:none;stroke:#2196f3;stroke-width:6;stroke-opacity:1"
       d="M 7,31.5 C 7,31.5 7,43 19,43 31,43 36,20 47,20 58,20 58,31.5 58,31.5 v 0 0"
       id="path4" />
    <path
       style="fill:none;stroke:#2196f3;stroke-width:3;stroke-linecap:round;stroke-linejoin:round;stroke-opacity:1"
       d="m 46.5,27.5 v 8 M 42.474974,31.500002 H 50.5"
       id="path5" />
    <path
       style="opacity:0.1"
       d="M 19,18 C 12.041667,18 7.7192439,21.759144 5.8398438,25.361328 4.5443491,27.84436 4.1836832,30.216183 4.0703125,31.5 h 6.0390625 c 0.121022,-0.844465 0.385042,-2.085323 1.050781,-3.361328 C 12.280756,25.990855 13.958333,24 19,24 c 2.041667,0 3.840919,0.932715 5.851562,2.794922 2.010644,1.862206 4.031804,4.589787 6.085938,7.453125 2.054134,2.863338 4.139684,5.858828 6.636719,8.302734 C 40.071253,44.994687 43.204545,47 47,47 53.545454,47 57.62116,43.122198 59.332031,39.544922 61.042903,35.967646 61,32.5 61,32.5 h -6 c 0,0 -0.0429,2.282355 -1.082031,4.455078 C 52.87884,39.127801 51.454546,41 47,41 45.295455,41 43.678747,40.130313 41.769531,38.261719 39.860316,36.393125 37.883366,33.638615 35.8125,30.751953 33.741634,27.865291 31.575294,24.842872 28.929688,22.392578 26.284081,19.942285 22.958333,18 19,18 Z"
       id="path6-3" />
    <path
       style="fill:none;stroke:#6ebaf7;stroke-width:6;stroke-opacity:1"
       d="M 7,31.500002 C 7,31.500002 7,20 19,20 31,20 36,43 47,43 58,43 58,31.500002 58,31.500002 v 0 0"
       id="path7" />
  </g>
</svg>
