<?xml version="1.0" encoding="UTF-8" standalone="no"?>
<svg
   width="62"
   height="62"
   version="1.1"
   id="svg7"
   sodipodi:docname="around.svg"
   inkscape:version="1.4 (e7c3feb100, 2024-10-09)"
   xmlns:inkscape="http://www.inkscape.org/namespaces/inkscape"
   xmlns:sodipodi="http://sodipodi.sourceforge.net/DTD/sodipodi-0.dtd"
   xmlns:xlink="http://www.w3.org/1999/xlink"
   xmlns="http://www.w3.org/2000/svg"
   xmlns:svg="http://www.w3.org/2000/svg">
  <defs
     id="defs7">
    <linearGradient
       inkscape:collect="always"
       xlink:href="#linearGradient8"
       id="linearGradient10"
       x1="31.5"
       y1="59.017544"
       x2="31.5"
       y2="4.9824562"
       gradientUnits="userSpaceOnUse"
       gradientTransform="translate(-0.5,-0.5087719)" />
    <linearGradient
       id="linearGradient8"
       inkscape:collect="always">
      <stop
         style="stop-color:#2d3d53;stop-opacity:1;"
         offset="0"
         id="stop8" />
      <stop
         style="stop-color:#354864;stop-opacity:1;"
         offset="1"
         id="stop10" />
    </linearGradient>
    <linearGradient
       id="paint3_linear_332_93"
       x1="37.304401"
       y1="24.2272"
       x2="23.255199"
       y2="12.9039"
       gradientUnits="userSpaceOnUse"
       gradientTransform="matrix(1,0,0,1.0089403,-0.9999998,-0.28624446)">
      <stop
         stop-color="#731FFF"
         id="stop9" />
      <stop
         offset="0.905415"
         stop-color="#EB1AFF"
         id="stop10-5" />
    </linearGradient>
    <linearGradient
       id="paint1_linear_332_93"
       x1="2"
       y1="61.696899"
       x2="14.6751"
       y2="28.2421"
       gradientUnits="userSpaceOnUse"
       gradientTransform="matrix(0.91578336,0,0,1,1.7216248,-7.2011443)">
      <stop
         stop-color="#731FFF"
         id="stop5" />
      <stop
         offset="0.905415"
         stop-color="#EB1AFF"
         id="stop6" />
    </linearGradient>
    <linearGradient
       id="paint2_linear_332_93"
       x1="54.645401"
       y1="46.748501"
       x2="26.243099"
       y2="10.4978"
       gradientUnits="userSpaceOnUse"
       gradientTransform="matrix(0.91578336,0,0,1,1.7216248,-7.2011443)">
      <stop
         offset="0.118093"
         stop-color="#731FFF"
         id="stop7" />
      <stop
         offset="0.905415"
         stop-color="#EB1AFF"
         id="stop8-3" />
    </linearGradient>
    <linearGradient
       id="linearGradient4"
       x1="16"
       x2="47"
       y1="16"
       y2="48"
       gradientUnits="userSpaceOnUse"
       gradientTransform="matrix(1.1935485,0,0,1.1875,-6.5967725,-6.999994)">
      <stop
         stop-color="#ffffff"
         offset="0"
         id="stop1" />
      <stop
         stop-color="#ffffff"
         offset=".45161"
         id="stop2" />
      <stop
         stop-color="#fef0cb"
         offset=".59375"
         id="stop3" />
      <stop
         stop-color="#ffbcc3"
         offset="1"
         id="stop4" />
    </linearGradient>
  </defs>
  <sodipodi:namedview
     id="namedview7"
     pagecolor="#ffffff"
     bordercolor="#000000"
     borderopacity="0.25"
     inkscape:showpageshadow="2"
     inkscape:pageopacity="0.0"
     inkscape:pagecheckerboard="0"
     inkscape:deskcolor="#d1d1d1"
     inkscape:zoom="8.3085046"
     inkscape:cx="36.16776"
     inkscape:cy="50.490434"
     inkscape:window-width="1920"
     inkscape:window-height="998"
     inkscape:window-x="0"
     inkscape:window-y="0"
     inkscape:window-maximized="1"
     inkscape:current-layer="svg7"
     showgrid="false">
    <inkscape:grid
       id="grid1"
       units="px"
       originx="0"
       originy="0"
       spacingx="1"
       spacingy="1"
       empcolor="#0099e5"
       empopacity="0.30196078"
       color="#0099e5"
       opacity="0.14901961"
       empspacing="5"
       enabled="true"
       visible="false" />
  </sodipodi:namedview>
  <g
     id="g7"
     transform="translate(0,-0.4912281)">
    <rect
       style="opacity:0.2;stroke-width:0.9823"
       width="55"
       height="55.017544"
       x="3.5"
       y="4.4736843"
       rx="8.25"
       ry="8.2526312"
       id="rect1" />
    <rect
       style="fill:url(#linearGradient10);stroke-width:0.9823"
       width="55"
       height="55.017544"
       x="3.5"
       y="3.4912281"
       rx="8.25"
       ry="8.2526312"
       id="rect2" />
    <path
       style="opacity:0.1;fill:#ffffff;stroke-width:0.9823"
       d="M 11.748466,3.4912281 C 7.1779652,3.4912281 3.5,7.1703661 3.5,11.742325 v 0.982456 c 0,-4.5719589 3.6779652,-8.2510969 8.248466,-8.2510969 h 38.503068 c 4.5705,0 8.248466,3.679138 8.248466,8.2510969 v -0.982456 c 0,-4.5719589 -3.677966,-8.2510969 -8.248466,-8.2510969 z"
       id="path4-3" />
  </g>
  <g
     id="g1"
     transform="translate(1.6565368,-0.091228)">
    <path
       style="opacity:0.2;stroke-width:1.11921"
       d="m 21.514516,18.211228 a 13.421053,13.44 0 0 0 -13.4210526,13.44 13.421053,13.44 0 0 0 13.4210526,13.44 13.421053,13.44 0 0 0 3.914473,-0.595 13.421053,13.44 0 0 0 3.914474,0.595 13.421053,13.44 0 0 0 3.914474,-0.595 13.421053,13.44 0 0 0 3.914474,0.595 13.421053,13.44 0 0 0 13.421052,-13.44 13.421053,13.44 0 0 0 -13.421052,-13.44 13.421053,13.44 0 0 0 -3.901367,0.590626 13.421053,13.44 0 0 0 -3.927581,-0.590626 13.421053,13.44 0 0 0 -3.901366,0.590626 13.421053,13.44 0 0 0 -3.927581,-0.590626 z"
       id="path2" />
    <path
       style="fill:#248afd;stroke-width:1.11921"
       d="m 34.935569,30.531228 a 13.421053,13.44 0 0 1 -13.421053,13.44 13.421053,13.44 0 0 1 -13.4210526,-13.44 13.421053,13.44 0 0 1 13.4210526,-13.44 13.421053,13.44 0 0 1 13.421053,13.44 z"
       id="path3" />
    <path
       style="fill:#e97e10;stroke-width:1.11921"
       d="m 23.751358,30.531228 a 13.421053,13.44 0 0 0 13.421053,13.44 13.421053,13.44 0 0 0 13.421052,-13.44 13.421053,13.44 0 0 0 -13.421052,-13.44 13.421053,13.44 0 0 0 -13.421053,13.44 z"
       id="path4-36" />
    <path
       style="opacity:0.2;fill:#ffffff;stroke-width:1.11921"
       d="m 37.172411,17.091228 a 13.421053,13.44 0 0 0 -13.421053,13.44 13.421053,13.44 0 0 0 0.03716,0.542503 13.421053,13.44 0 0 1 13.38392,-12.862503 13.421053,13.44 0 0 1 13.397026,12.667813 13.421053,13.44 0 0 0 0.02399,-0.347813 13.421053,13.44 0 0 0 -13.421052,-13.44 z"
       id="path5" />
    <path
       style="fill:#e3424a;stroke-width:1.11921"
       d="m 42.764516,30.531228 a 13.421053,13.44 0 0 1 -13.421053,13.44 13.421053,13.44 0 0 1 -13.421053,-13.44 13.421053,13.44 0 0 1 13.421053,-13.44 13.421053,13.44 0 0 1 13.421053,13.44 z"
       id="path6" />
    <path
       style="opacity:0.2;fill:#ffffff;stroke-width:1.11921"
       d="m 29.343463,17.091228 a 13.421053,13.44 0 0 0 -13.421053,13.44 13.421053,13.44 0 0 0 0.03716,0.542503 13.421053,13.44 0 0 1 13.383919,-12.862503 13.421053,13.44 0 0 1 13.397027,12.667813 13.421053,13.44 0 0 0 0.024,-0.347813 13.421053,13.44 0 0 0 -13.421053,-13.44 z"
       id="path7" />
    <path
       style="opacity:0.2;fill:#ffffff;stroke-width:1.11921"
       d="m 21.514516,17.091228 a 13.421053,13.44 0 0 0 -13.4210526,13.44 13.421053,13.44 0 0 0 0.037134,0.542503 13.421053,13.44 0 0 1 13.3839186,-12.862503 13.421053,13.44 0 0 1 13.397025,12.667813 13.421053,13.44 0 0 0 0.024,-0.347813 13.421053,13.44 0 0 0 -13.421053,-13.44 z"
       id="path8" />
    <path
       style="fill:#fecd38;stroke-width:1.11921"
       d="m 33.271044,17.681854 a 13.421053,13.44 0 0 0 -9.519686,12.849374 13.421053,13.44 0 0 0 9.506579,12.845 13.421053,13.44 0 0 0 9.506579,-12.845 13.421053,13.44 0 0 0 -9.493472,-12.849374 z"
       id="path9" />
    <path
       style="fill:#50beee;stroke-width:1.11921"
       d="m 25.442097,17.681854 a 13.421053,13.44 0 0 0 -9.519687,12.849374 13.421053,13.44 0 0 0 9.506579,12.845 13.421053,13.44 0 0 0 9.50658,-12.845 13.421053,13.44 0 0 0 -9.493472,-12.849374 z"
       id="path10" />
    <path
       style="fill:#ff90b8;stroke-width:1.11921"
       d="M 29.365307,19.637477 A 13.421053,13.44 0 0 0 23.751358,30.531228 13.421053,13.44 0 0 0 29.343463,41.407477 13.421053,13.44 0 0 0 34.935569,30.531228 13.421053,13.44 0 0 0 29.365307,19.637477 Z"
       id="path11" />
  </g>
</svg>
