<?xml version="1.0" encoding="UTF-8" standalone="no"?>
<svg
   width="62"
   height="62"
   version="1.1"
   id="svg8"
   sodipodi:docname="artikulate.svg"
   inkscape:version="1.4 (e7c3feb100, 2024-10-09)"
   xmlns:inkscape="http://www.inkscape.org/namespaces/inkscape"
   xmlns:sodipodi="http://sodipodi.sourceforge.net/DTD/sodipodi-0.dtd"
   xmlns:xlink="http://www.w3.org/1999/xlink"
   xmlns="http://www.w3.org/2000/svg"
   xmlns:svg="http://www.w3.org/2000/svg">
  <defs
     id="defs8">
    <linearGradient
       id="linearGradient11"
       inkscape:collect="always">
      <stop
         style="stop-color:#0066ff;stop-opacity:1"
         offset="0"
         id="stop11" />
      <stop
         style="stop-color:#5599ff;stop-opacity:1"
         offset="1"
         id="stop12" />
    </linearGradient>
    <linearGradient
       id="linearGradient9"
       inkscape:collect="always">
      <stop
         style="stop-color:#7214ff;stop-opacity:1;"
         offset="0"
         id="stop9" />
      <stop
         style="stop-color:#b380ff;stop-opacity:1"
         offset="1"
         id="stop10" />
    </linearGradient>
    <linearGradient
       inkscape:collect="always"
       xlink:href="#linearGradient9"
       id="linearGradient10"
       x1="352.76498"
       y1="545.36664"
       x2="368.50616"
       y2="508.2468"
       gradientUnits="userSpaceOnUse" />
    <linearGradient
       inkscape:collect="always"
       xlink:href="#linearGradient11"
       id="linearGradient12"
       x1="364.4967"
       y1="547.63074"
       x2="379.26456"
       y2="530.19958"
       gradientUnits="userSpaceOnUse" />
  </defs>
  <sodipodi:namedview
     id="namedview8"
     pagecolor="#ffffff"
     bordercolor="#000000"
     borderopacity="0.25"
     inkscape:showpageshadow="2"
     inkscape:pageopacity="0.0"
     inkscape:pagecheckerboard="0"
     inkscape:deskcolor="#d1d1d1"
     inkscape:zoom="5.5095403"
     inkscape:cx="37.480441"
     inkscape:cy="19.239355"
     inkscape:window-width="1920"
     inkscape:window-height="994"
     inkscape:window-x="0"
     inkscape:window-y="0"
     inkscape:window-maximized="1"
     inkscape:current-layer="svg8" />
  <linearGradient
     id="a"
     x1="355.73465"
     x2="355.6907"
     y1="546.99841"
     y2="505.32748"
     gradientUnits="userSpaceOnUse">
    <stop
       stop-color="#1297ca"
       offset="0"
       id="stop1" />
    <stop
       stop-color="#70e2ec"
       offset="1"
       id="stop2" />
  </linearGradient>
  <linearGradient
     id="b"
     x1="374.54285"
     x2="374.54285"
     y1="507.15387"
     y2="548.64636"
     gradientTransform="matrix(-0.56777405,0,0,0.61822428,579.27321,212.13023)"
     gradientUnits="userSpaceOnUse">
    <stop
       stop-color="#fdcc59"
       offset="0"
       id="stop3" />
    <stop
       stop-color="#f5a844"
       offset="1"
       id="stop4" />
  </linearGradient>
  <g
     id="g9"
     transform="translate(2.9696355,1.9989638)">
    <g
       transform="matrix(1.1370288,0,0,1.168798,-376.02639,-587.41123)"
       id="g6">
      <path
         d="m 372.72396,511.00526 c -4.64376,-3.77923 -10.8097,-5.86043 -17.36188,-5.86043 -6.5523,0 -12.71825,2.08134 -17.3619,5.86043 -4.68415,3.81204 -7.26383,8.89248 -7.26383,14.30562 0,5.1665 2.35146,10.0291 6.6381,13.77566 -0.0773,0.17385 -0.13864,0.35675 -0.1778,0.54904 l -1.40852,6.92833 c -0.16748,0.8234 0.0576,1.31439 0.27567,1.58146 0.25214,0.30847 0.62586,0.47846 1.05242,0.47846 0.32207,0 0.66821,-0.095 1.02889,-0.28251 l 8.19253,-4.25611 c 2.83641,0.91297 5.88571,1.3917 9.02427,1.3917 6.55233,0 12.71811,-2.0813 17.36192,-5.8604 4.68401,-3.81192 7.26369,-8.89237 7.26369,-14.3055 0,-5.41327 -2.57956,-10.49371 -7.26357,-14.30575 z"
         id="path4"
         style="fill:url(#linearGradient10)" />
      <path
         transform="matrix(1.1602089,0,0,1.1602089,-26.182377,-92.589987)"
         d="m 325.55443,521.87526 2.00286,0.47687 q -0.28612,0.76299 -0.66762,1.43061 h 9.63281 v 7.53458 h -14.30615 v 1.23986 h 16.88126 v 1.52599 h -16.88126 v 1.23987 h 17.07201 q -0.28612,6.19933 -0.95374,7.4392 -0.57225,1.33524 -2.19361,1.33524 -0.763,0 -2.38436,-0.28612 l -0.3815,-1.90749 q 1.81211,0.28612 2.57511,0.28612 0.57224,0 0.76299,-0.57224 0.28612,-0.66762 0.47687,-4.67335 h -16.88126 v -13.16166 h 4.4826 q 0.47687,-0.95374 0.76299,-1.90748 z m -3.3381,3.43347 v 1.52599 H 334.615 v -1.52599 z m 0,2.95661 v 1.52599 H 334.615 v -1.52599 z m 4.1011,9.25131 h 1.90748 v 2.57511 h 4.67335 v -2.38436 h 1.81211 v 3.91035 h -12.97091 v 1.62136 h -1.90749 v -5.43634 h 1.90749 v 2.28899 h 4.57797 z"
         opacity="0.8"
         id="path5"
         style="fill:#ffffff;fill-opacity:1" />
      <path
         d="m 358.65242,529.1544 c 2.32189,-2.05752 5.40486,-3.19058 8.68093,-3.19058 3.27614,0 6.35912,1.13313 8.68094,3.19058 2.34206,2.07537 3.63191,4.8413 3.63191,7.78837 0,2.81279 -1.17574,5.46009 -3.31906,7.49984 0.0388,0.0947 0.0694,0.19423 0.0889,0.29891 l 0.70425,3.77197 c 0.0837,0.44829 -0.0287,0.7156 -0.13788,0.861 -0.12614,0.16793 -0.31294,0.26049 -0.52621,0.26049 -0.16104,0 -0.3341,-0.0517 -0.51444,-0.15382 l -4.09627,-2.31712 c -1.4182,0.49704 -2.94284,0.75766 -4.51213,0.75766 -3.27614,0 -6.35905,-1.13311 -8.68093,-3.19056 -2.342,-2.07531 -3.63185,-4.84125 -3.63185,-7.7883 0,-2.94714 1.28978,-5.71307 3.63178,-7.78844 z"
         id="path6"
         style="fill:url(#linearGradient12)" />
    </g>
    <g
       transform="matrix(0.09804187,0,0,0.10078122,22.056536,18.275674)"
       fill="#ffffff"
       fill-opacity="0.85"
       id="g8">
      <path
         d="m 120.31878,192.70649 h 59.117 c -1.666,10.675 -7.326,22.046 -16.84,33.827 -6.064,-9.714 -9.964,-19.135 -12.188,-25.408 -0.562,-1.583 -2.058,-2.641 -3.736,-2.641 h -9.728 c -1.264,0 -2.453,0.603 -3.2,1.623 -0.746,1.021 -0.961,2.335 -0.579,3.542 2.305,7.258 7.614,21.507 17.429,35.986 -11.594,11.271 -23.143,19.394 -27.611,22.387 -1.778,1.192 -2.289,3.581 -1.153,5.396 l 4.882,7.808 c 0.565,0.903 1.473,1.542 2.515,1.771 0.28,0.063 0.564,0.093 0.846,0.093 0.769,0 1.527,-0.224 2.178,-0.651 4.601,-3.024 16.538,-11.28 29.038,-23.255 4.625,4.82 15.499,13.268 21.942,17.954 0.983,0.715 2.242,0.938 3.415,0.607 1.172,-0.334 2.124,-1.188 2.586,-2.312 l 3.642,-8.903 c 0.732,-1.789 0.065,-3.85 -1.579,-4.867 -4.198,-2.604 -12.101,-7.952 -18.552,-14.902 14.163,-16.575 22.24,-32.734 24.018,-48.049 h 3.121 c 2.189,0 3.964,-1.775 3.964,-3.965 v -10.567 c 0,-2.189 -1.774,-3.964 -3.964,-3.964 h -30.872 v -5.426 c 0,-2.19 -1.774,-3.965 -3.964,-3.965 h -9.89 c -2.189,0 -3.964,1.774 -3.964,3.965 v 5.426 h -30.872 c -2.189,0 -3.964,1.774 -3.964,3.964 v 10.567 c -10e-4,2.184 1.774,3.959 3.963,3.959 z"
         id="path7"
         style="fill:#ffffff;fill-opacity:0.80000001" />
      <path
         d="m 256.10311,180.09731 c -0.516,-1.66 -2.049,-2.791 -3.787,-2.791 h -22.026 c -1.743,0 -3.281,1.139 -3.791,2.805 l -26.318,86.05 c -0.369,1.202 -0.145,2.508 0.604,3.521 0.748,1.009 1.93,1.604 3.188,1.604 h 13.664 c 1.779,0 3.342,-1.188 3.819,-2.901 l 5.9,-21.229 h 26.923 l 6.389,21.307 c 0.502,1.678 2.047,2.825 3.797,2.825 h 14.523 c 1.262,0 2.444,-0.599 3.19,-1.61 0.748,-1.015 0.969,-2.323 0.594,-3.526 z m -25.697,51.186 9.917,-38.067 h 0.27 l 10.604,38.067 z"
         id="path8"
         style="fill:#ffffff;fill-opacity:0.80000001" />
    </g>
  </g>
</svg>
