<?xml version="1.0" encoding="UTF-8" standalone="no"?>
<svg
   width="62"
   height="62"
   viewBox="0 0 16.404166 16.404167"
   version="1.1"
   id="svg1443"
   inkscape:version="1.4 (e7c3feb100, 2024-10-09)"
   sodipodi:docname="asbru-cm.svg"
   xmlns:inkscape="http://www.inkscape.org/namespaces/inkscape"
   xmlns:sodipodi="http://sodipodi.sourceforge.net/DTD/sodipodi-0.dtd"
   xmlns:xlink="http://www.w3.org/1999/xlink"
   xmlns="http://www.w3.org/2000/svg"
   xmlns:svg="http://www.w3.org/2000/svg"
   xmlns:rdf="http://www.w3.org/1999/02/22-rdf-syntax-ns#"
   xmlns:cc="http://creativecommons.org/ns#"
   xmlns:dc="http://purl.org/dc/elements/1.1/">
  <defs
     id="defs1437">
    <linearGradient
       gradientTransform="matrix(0.4711726,0,0,0.47114666,-53.953909,-18.000765)"
       gradientUnits="userSpaceOnUse"
       y2="70.679932"
       x2="132.21078"
       y1="42.151531"
       x1="132.21078"
       id="linearGradient1632"
       xlink:href="#linearGradient1630"
       inkscape:collect="always" />
    <linearGradient
       id="linearGradient1630"
       inkscape:collect="always">
      <stop
         id="stop1626"
         offset="0"
         style="stop-color:#fafafc;stop-opacity:1" />
      <stop
         id="stop1628"
         offset="1"
         style="stop-color:#e2e6ea;stop-opacity:1" />
    </linearGradient>
    <filter
       color-interpolation-filters="sRGB"
       height="1.1311001"
       width="1.1106"
       y="-0.065563001"
       x="-0.055319"
       id="c-9">
      <feGaussianBlur
         id="feGaussianBlur1093"
         stdDeviation="1.1062912" />
    </filter>
    <linearGradient
       gradientUnits="userSpaceOnUse"
       gradientTransform="matrix(0.13235,0,0,0.13075,-32.379,1.0873)"
       y2="269.48999"
       y1="235.14999"
       x2="657.65002"
       x1="319.20999"
       id="a-12">
      <stop
         id="stop1076"
         offset="0"
         stop-color="#e54c18" />
      <stop
         id="stop1078"
         offset="1"
         stop-color="#fec350" />
    </linearGradient>
  </defs>
  <sodipodi:namedview
     id="base"
     pagecolor="#ffffff"
     bordercolor="#666666"
     borderopacity="1.0"
     inkscape:pageopacity="0.0"
     inkscape:pageshadow="2"
     inkscape:zoom="11.313709"
     inkscape:cx="29.919454"
     inkscape:cy="34.250483"
     inkscape:document-units="px"
     inkscape:current-layer="layer1"
     inkscape:document-rotation="0"
     showgrid="false"
     units="px"
     inkscape:window-width="1920"
     inkscape:window-height="998"
     inkscape:window-x="0"
     inkscape:window-y="0"
     inkscape:window-maximized="1"
     inkscape:showpageshadow="2"
     inkscape:pagecheckerboard="0"
     inkscape:deskcolor="#d1d1d1" />
  <metadata
     id="metadata1440">
    <rdf:RDF>
      <cc:Work
         rdf:about="">
        <dc:format>image/svg+xml</dc:format>
        <dc:type
           rdf:resource="http://purl.org/dc/dcmitype/StillImage" />
      </cc:Work>
    </rdf:RDF>
  </metadata>
  <g
     inkscape:label="Capa 1"
     inkscape:groupmode="layer"
     id="layer1">
    <g
       style="opacity:0.295"
       transform="matrix(0.47117252,0,0,0.47114656,-31.72741,-18.000762)"
       id="g1702">
      <rect
         ry="6.6098609"
         rx="6.6098609"
         y="40.709618"
         x="69.839508"
         height="29.810888"
         width="29.810888"
         id="rect1634"
         style="fill:none;fill-opacity:1;stroke:#000000;stroke-width:0.1;stroke-linecap:round;stroke-linejoin:round;stroke-miterlimit:4;stroke-dasharray:none;stroke-opacity:0.02" />
      <rect
         style="fill:none;fill-opacity:1;stroke:#000000;stroke-width:0.2;stroke-linecap:round;stroke-linejoin:round;stroke-miterlimit:4;stroke-dasharray:none;stroke-opacity:0.02"
         id="rect1638"
         width="29.810888"
         height="29.810888"
         x="69.839508"
         y="40.709618"
         rx="6.6098609"
         ry="6.6098609" />
      <rect
         ry="6.6098609"
         rx="6.6098609"
         y="40.709618"
         x="69.839508"
         height="29.810888"
         width="29.810888"
         id="rect1640"
         style="fill:none;fill-opacity:1;stroke:#000000;stroke-width:0.3;stroke-linecap:round;stroke-linejoin:round;stroke-miterlimit:4;stroke-dasharray:none;stroke-opacity:0.02" />
      <rect
         style="fill:none;fill-opacity:1;stroke:#000000;stroke-width:0.4;stroke-linecap:round;stroke-linejoin:round;stroke-miterlimit:4;stroke-dasharray:none;stroke-opacity:0.02"
         id="rect1642"
         width="29.810888"
         height="29.810888"
         x="69.839508"
         y="40.709618"
         rx="6.6098609"
         ry="6.6098609" />
      <rect
         ry="6.6098609"
         rx="6.6098609"
         y="40.709618"
         x="69.839508"
         height="29.810888"
         width="29.810888"
         id="rect1644"
         style="fill:none;fill-opacity:1;stroke:#000000;stroke-width:0.5;stroke-linecap:round;stroke-linejoin:round;stroke-miterlimit:4;stroke-dasharray:none;stroke-opacity:0.02" />
      <rect
         style="fill:none;fill-opacity:1;stroke:#000000;stroke-width:0.6;stroke-linecap:round;stroke-linejoin:round;stroke-miterlimit:4;stroke-dasharray:none;stroke-opacity:0.02"
         id="rect1646"
         width="29.810888"
         height="29.810888"
         x="69.839508"
         y="40.709618"
         rx="6.6098609"
         ry="6.6098609" />
      <rect
         ry="6.6098609"
         rx="6.6098609"
         y="40.709618"
         x="69.839508"
         height="29.810888"
         width="29.810888"
         id="rect1648"
         style="fill:none;fill-opacity:1;stroke:#000000;stroke-width:0.7;stroke-linecap:round;stroke-linejoin:round;stroke-miterlimit:4;stroke-dasharray:none;stroke-opacity:0.02" />
      <rect
         style="fill:none;fill-opacity:1;stroke:#000000;stroke-width:0.8;stroke-linecap:round;stroke-linejoin:round;stroke-miterlimit:4;stroke-dasharray:none;stroke-opacity:0.02"
         id="rect1650"
         width="29.810888"
         height="29.810888"
         x="69.839508"
         y="40.709618"
         rx="6.6098609"
         ry="6.6098609" />
      <rect
         ry="6.6098609"
         rx="6.6098609"
         y="40.709618"
         x="69.839508"
         height="29.810888"
         width="29.810888"
         id="rect1652"
         style="fill:none;fill-opacity:1;stroke:#000000;stroke-width:1;stroke-linecap:round;stroke-linejoin:round;stroke-miterlimit:4;stroke-dasharray:none;stroke-opacity:0.02" />
      <rect
         style="fill:none;fill-opacity:1;stroke:#000000;stroke-width:1.2;stroke-linecap:round;stroke-linejoin:round;stroke-miterlimit:4;stroke-dasharray:none;stroke-opacity:0.02"
         id="rect1654"
         width="29.810888"
         height="29.810888"
         x="69.839508"
         y="40.709618"
         rx="6.6098609"
         ry="6.6098609" />
      <rect
         ry="6.6098609"
         rx="6.6098609"
         y="40.709618"
         x="69.839508"
         height="29.810888"
         width="29.810888"
         id="rect1656"
         style="fill:none;fill-opacity:1;stroke:#000000;stroke-width:1.4;stroke-linecap:round;stroke-linejoin:round;stroke-miterlimit:4;stroke-dasharray:none;stroke-opacity:0.02" />
      <rect
         style="fill:none;fill-opacity:1;stroke:#000000;stroke-width:1.6;stroke-linecap:round;stroke-linejoin:round;stroke-miterlimit:4;stroke-dasharray:none;stroke-opacity:0.02"
         id="rect1658"
         width="29.810888"
         height="29.810888"
         x="69.839508"
         y="40.709618"
         rx="6.6098609"
         ry="6.6098609" />
      <rect
         ry="6.6098609"
         rx="6.6098609"
         y="40.709618"
         x="69.839508"
         height="29.810888"
         width="29.810888"
         id="rect1660"
         style="fill:none;fill-opacity:1;stroke:#000000;stroke-width:1.8;stroke-linecap:round;stroke-linejoin:round;stroke-miterlimit:4;stroke-dasharray:none;stroke-opacity:0.02" />
      <rect
         style="fill:none;fill-opacity:1;stroke:#000000;stroke-width:2;stroke-linecap:round;stroke-linejoin:round;stroke-miterlimit:4;stroke-dasharray:none;stroke-opacity:0.02"
         id="rect1662"
         width="29.810888"
         height="29.810888"
         x="69.839508"
         y="40.709618"
         rx="6.6098609"
         ry="6.6098609" />
      <rect
         ry="6.6098609"
         rx="6.6098609"
         y="40.709618"
         x="69.839508"
         height="29.810888"
         width="29.810888"
         id="rect1664"
         style="fill:none;fill-opacity:1;stroke:#000000;stroke-width:2.2;stroke-linecap:round;stroke-linejoin:round;stroke-miterlimit:4;stroke-dasharray:none;stroke-opacity:0.02" />
      <rect
         style="fill:none;fill-opacity:1;stroke:#000000;stroke-width:2.6;stroke-linecap:round;stroke-linejoin:round;stroke-miterlimit:4;stroke-dasharray:none;stroke-opacity:0.02"
         id="rect1666"
         width="29.810888"
         height="29.810888"
         x="69.839508"
         y="40.709618"
         rx="6.6098609"
         ry="6.6098609" />
      <rect
         ry="6.6098609"
         rx="6.6098609"
         y="40.709618"
         x="69.839508"
         height="29.810888"
         width="29.810888"
         id="rect1668"
         style="fill:none;fill-opacity:1;stroke:#000000;stroke-width:3;stroke-linecap:round;stroke-linejoin:round;stroke-miterlimit:4;stroke-dasharray:none;stroke-opacity:0.02" />
      <rect
         style="fill:none;fill-opacity:1;stroke:#000000;stroke-width:3.4;stroke-linecap:round;stroke-linejoin:round;stroke-miterlimit:4;stroke-dasharray:none;stroke-opacity:0.02"
         id="rect1670"
         width="29.810888"
         height="29.810888"
         x="69.839508"
         y="40.709618"
         rx="6.6098609"
         ry="6.6098609" />
      <rect
         ry="6.6098609"
         rx="6.6098609"
         y="40.709618"
         x="69.839508"
         height="29.810888"
         width="29.810888"
         id="rect1672"
         style="fill:none;fill-opacity:1;stroke:#000000;stroke-width:3.8;stroke-linecap:round;stroke-linejoin:round;stroke-miterlimit:4;stroke-dasharray:none;stroke-opacity:0.02" />
      <rect
         style="fill:none;fill-opacity:1;stroke:#000000;stroke-width:4.2;stroke-linecap:round;stroke-linejoin:round;stroke-miterlimit:4;stroke-dasharray:none;stroke-opacity:0.02"
         id="rect1674"
         width="29.810888"
         height="29.810888"
         x="69.839508"
         y="40.709618"
         rx="6.6098609"
         ry="6.6098609" />
      <rect
         ry="6.6098609"
         rx="6.6098609"
         y="40.709618"
         x="69.839508"
         height="29.810888"
         width="29.810888"
         id="rect1676"
         style="fill:none;fill-opacity:1;stroke:#000000;stroke-width:4.6;stroke-linecap:round;stroke-linejoin:round;stroke-miterlimit:4;stroke-dasharray:none;stroke-opacity:0.02" />
      <rect
         style="fill:none;fill-opacity:1;stroke:#000000;stroke-width:5;stroke-linecap:round;stroke-linejoin:round;stroke-miterlimit:4;stroke-dasharray:none;stroke-opacity:0.02"
         id="rect1678"
         width="29.810888"
         height="29.810888"
         x="69.839508"
         y="40.709618"
         rx="6.6098609"
         ry="6.6098609" />
    </g>
    <rect
       ry="3.1142132"
       rx="3.1143851"
       y="1.1794344"
       x="1.1790471"
       height="14.045296"
       width="14.04607"
       id="rect849"
       style="fill:url(#linearGradient1632);fill-opacity:1;stroke-width:1.29783;stroke-linecap:round;stroke-linejoin:round" />
    <g
       id="g1"
       transform="matrix(1.020904,0,0,0.9404934,0.77250474,-15.18093)">
      <path
         d="m 13.266758,18.364865 c -1.307095,0.479927 -2.61501,1.0659 -3.9113359,1.769401 -3.4551937,1.875022 -6.4836145,4.366154 -8.95720406,7.215981 v 2.264463 c 0,0.282257 0.0561261,0.550545 0.15554589,0.796343 2.45993707,-3.24538 5.70944377,-6.125634 9.54828307,-8.208698 1.349031,-0.732076 2.70563,-1.327071 4.054475,-1.797818 v -0.314721 c 0,-0.714084 -0.35126,-1.341967 -0.889873,-1.724951 z"
         fill="#fe6230"
         id="path1"
         style="stroke-width:0.264583" />
      <path
         d="m 13.996479,19.280455 c -1.428301,0.489823 -2.859882,1.115219 -4.2767256,1.884125 -3.6724166,1.992973 -6.837627,4.724664 -9.32127078,7.846483 v 0.603567 c 0,0.688129 0.32689271,1.295453 0.83251148,1.68156 2.3448698,-3.196696 5.4816374,-6.02324 9.2366039,-8.061061 1.227667,-0.666247 2.461472,-1.213485 3.689086,-1.650021 v -1.495504 c 0,-0.287126 -0.0575,-0.560044 -0.160198,-0.809255 z"
         fill="#fef600"
         id="path2"
         style="stroke-width:0.264583" />
      <path
         d="m 14.156551,20.411284 c -1.354693,0.460746 -2.712243,1.04955 -4.056062,1.778715 -3.8301085,2.078461 -7.060671,4.997979 -9.49457305,8.338079 0.30614938,0.641535 0.92379275,1.102624 1.66086895,1.188032 2.187866,-2.955131 5.0977271,-5.569215 8.5799081,-7.458869 1.101302,-0.597641 2.20816,-1.091089 3.309938,-1.491377 v -2.354368 z"
         fill="#00bb00"
         id="path3-3"
         style="stroke-width:0.264583" />
      <path
         d="m 14.156551,21.58577 c -1.233196,0.428413 -2.468218,0.971126 -3.690672,1.634516 -3.7115756,2.014247 -6.837363,4.874683 -9.1508797,8.139113 0.3407304,0.234267 0.8032719,0.594849 1.2016438,0.813828 0.4057735,0.223047 0.7810041,0.27513 1.1256917,0.15625 1.9942968,-2.543149 4.5251611,-5.386186 7.5718382,-7.039567 0.979355,-0.531442 1.962838,-0.97491 2.942431,-1.338924 v -2.365243 z"
         fill="#009bfe"
         id="path4-6"
         style="stroke-width:0.264583"
         sodipodi:nodetypes="cccsccccc" />
      <path
         d="m 5.014668,20.419486 -2.3349743,2.046473 0.078698,1.875737 5.4964541,4.945327 3.5419772,-3.279246 0.07851,-2.046472 -6.8603805,-3.541977 z"
         color="#000000"
         fill-rule="evenodd"
         stroke-linecap="round"
         stroke-linejoin="round"
         stroke-miterlimit="10"
         stroke-width="0.610976"
         id="path5"
         style="fill:#55739d;fill-opacity:0.52732646;stroke:#bac7d9;stroke-opacity:1" />
      <path
         d="m 2.6535264,22.509166 0.075367,1.808824 5.5020104,4.895056 3.15e-5,-1.955694 -5.5774166,-4.748213 z"
         color="#000000"
         fill="#a6a6a6"
         fill-rule="evenodd"
         stroke-width="0.2862"
         id="path6" />
      <path
         d="m 8.2306784,27.257643 v 1.955694 l 3.5425066,-3.236913 0.0489,-1.971437 z"
         color="#000000"
         fill="#7f7f7f"
         fill-rule="evenodd"
         stroke-width="0.2862"
         id="path7-7" />
      <path
         d="M 2.6535264,22.512605 8.230943,27.257643 11.822397,24.004855 4.9903264,20.398849 2.6537381,22.512526 Z"
         color="#000000"
         fill="#f2f2f2"
         fill-rule="evenodd"
         stroke-width="0.2862"
         id="path8-5" />
      <path
         d="m 3.0091264,22.191401 0.8879946,0.619707 c 0,0 0.2072534,0.07546 0.3014662,0 0.094091,-0.07546 0.075456,-0.301519 0.075456,-0.301519 L 3.4330921,21.805771 Z"
         color="#000000"
         fill="#ffc11a"
         fill-rule="evenodd"
         stroke-width="0.2862"
         id="path9" />
      <path
         d="m 3.6719076,21.591591 0.9031023,0.616743 c 0,0 0.2071264,0.07546 0.3012281,0 0.094401,-0.07516 0.075457,-0.301519 0.075457,-0.301519 L 4.0809243,21.221597 Z"
         color="#000000"
         fill="#ffc11a"
         fill-rule="evenodd"
         stroke-width="0.2862"
         id="path10" />
      <path
         d="m 4.3293972,20.997072 0.8868039,0.645848 c 0,0 0.2071265,0.07546 0.3015192,0 0.094091,-0.07537 0.07515,-0.301493 0.07515,-0.301493 L 4.7217558,20.642133 Z"
         color="#000000"
         fill="#ffc11a"
         fill-rule="evenodd"
         stroke-width="0.2862"
         id="path11" />
      <path
         d="m 10.735489,26.49723 c -0.0333,5.03e-4 -0.06658,0.0029 -0.09973,0.0078 -0.269954,0.03963 -0.498263,0.220274 -0.598937,0.473869 -0.1556678,0.392007 0.0359,0.835978 0.427884,0.991658 0,0 2.095407,1.577237 3.295081,2.686715 0.188174,-0.316548 0.39665,-0.645825 0.39665,-1.042276 V 28.92356 c -1.365223,-1.128818 -3.127904,-2.372995 -3.127904,-2.372995 -0.09349,-0.03703 -0.193111,-0.05476 -0.292999,-0.05323 z"
         stroke-width="0.0700035"
         id="path12"
         sodipodi:nodetypes="cccccscccc"
         style="fill:#2d3d53;fill-opacity:1" />
      <path
         d="m 5.9695493,23.489182 4.5973997,3.4671 c 0.52758,0.33909 1.036532,-0.05652 1.356678,-0.45212 0.320463,-0.395605 0.263948,-0.866722 -0.07546,-1.130617 L 6.9491452,22.735596 Z"
         color="#000000"
         fill="#a0a0a1"
         fill-rule="evenodd"
         stroke-width="0.2862"
         id="path13" />
      <path
         d="m 5.7811659,23.489182 4.7106421,2.864379 c 0.263641,0.188183 0.828781,-0.03788 1.055158,-0.301519 0.226071,-0.263948 0.03758,-0.640635 -0.150913,-0.753665 L 6.91163,22.622645 Z"
         color="#000000"
         fill="#f2f2f2"
         fill-rule="evenodd"
         stroke-width="0.2862"
         id="path14" />
    </g>
  </g>
</svg>
