<?xml version="1.0" encoding="UTF-8" standalone="no"?>
<svg
   width="62"
   height="62"
   version="1.1"
   id="svg9"
   sodipodi:docname="assaultcube.svg"
   inkscape:version="1.4 (e7c3feb100, 2024-10-09)"
   xmlns:inkscape="http://www.inkscape.org/namespaces/inkscape"
   xmlns:sodipodi="http://sodipodi.sourceforge.net/DTD/sodipodi-0.dtd"
   xmlns:xlink="http://www.w3.org/1999/xlink"
   xmlns="http://www.w3.org/2000/svg"
   xmlns:svg="http://www.w3.org/2000/svg">
  <sodipodi:namedview
     id="namedview9"
     pagecolor="#ffffff"
     bordercolor="#000000"
     borderopacity="0.25"
     inkscape:showpageshadow="2"
     inkscape:pageopacity="0.0"
     inkscape:pagecheckerboard="0"
     inkscape:deskcolor="#d1d1d1"
     inkscape:zoom="5.875"
     inkscape:cx="40.340426"
     inkscape:cy="48.680851"
     inkscape:window-width="1920"
     inkscape:window-height="998"
     inkscape:window-x="0"
     inkscape:window-y="0"
     inkscape:window-maximized="1"
     inkscape:current-layer="svg9" />
  <defs
     id="defs3">
    <linearGradient
       id="linearGradient10"
       inkscape:collect="always">
      <stop
         style="stop-color:#b01c2f;stop-opacity:1;"
         offset="0"
         id="stop10" />
      <stop
         style="stop-color:#e1515f;stop-opacity:1;"
         offset="1"
         id="stop11" />
    </linearGradient>
    <filter
       id="c"
       width="1.1499287"
       height="1.1499757"
       x="-0.074964348"
       y="-0.074987834"
       color-interpolation-filters="sRGB">
      <feGaussianBlur
         stdDeviation="1.348"
         id="feGaussianBlur1" />
    </filter>
    <filter
       id="a"
       width="1.07776"
       height="1.07776"
       x="-0.03888"
       y="-0.03888"
       color-interpolation-filters="sRGB">
      <feGaussianBlur
         stdDeviation=".972"
         id="feGaussianBlur2" />
    </filter>
    <linearGradient
       id="b"
       x1="7.9369998"
       x2="7.9369998"
       y1="15.081"
       y2="1.852"
       gradientTransform="matrix(3.8824785,0,0,3.8824785,-2.2054861,-2.172888)"
       gradientUnits="userSpaceOnUse">
      <stop
         offset="0"
         stop-color="#b81e31"
         id="stop2" />
      <stop
         offset="1"
         stop-color="#ff5c5c"
         id="stop3" />
    </linearGradient>
    <linearGradient
       inkscape:collect="always"
       xlink:href="#linearGradient10"
       id="linearGradient11"
       x1="30.686373"
       y1="59.473705"
       x2="29.090298"
       y2="1.9893802"
       gradientUnits="userSpaceOnUse"
       gradientTransform="translate(0.33471699,0.33375821)" />
  </defs>
  <g
     id="g1">
    <rect
       width="60"
       height="60"
       x="2"
       y="2"
       filter="url(#a)"
       opacity="0.35"
       rx="30"
       ry="30"
       id="rect3"
       transform="matrix(0.95877872,0,0,0.95877872,0.32099852,0.32003974)" />
    <rect
       width="57.52673"
       height="57.52673"
       x="2.2385559"
       y="2.237597"
       rx="28.763365"
       ry="28.763365"
       id="rect4"
       style="fill:url(#linearGradient11)" />
    <rect
       width="61.361832"
       height="61.361832"
       fill="none"
       rx="0"
       ry="0"
       style="stroke-width:0.958779;paint-order:stroke fill markers"
       id="rect5"
       x="0.32099855"
       y="0.32003975" />
    <circle
       cx="31.02109"
       cy="31.043142"
       r="28.76432"
       fill="none"
       id="circle5"
       style="stroke-width:0.958779" />
    <path
       d="m 24.948,13.465 c -1.433,0 -2.64,2.738 0.169,2.136 1.095,-0.358 0.962,-2.136 -0.169,-2.136 m 16.518,1.798 c -0.836,0 -1.629,0.969 -1.237,1.517 0.106,0.147 0.66,0.302 1.18,0.338 0.715,0.049 0.898,-0.169 0.898,-0.899 0,-0.674 -0.232,-0.955 -0.843,-0.955 M 13.711,31.17 c -2.324,-0.716 -4.86,2.128 -0.169,2.078 2.963,-0.35 3.287,0.343 0.73,1.686 -1.735,0.906 -2.288,1.271 -2.303,2.303 -0.014,1.012 0.457,1.334 1.742,1.853 2.837,1.005 4.038,1.385 4.383,4.944 0,1.075 -0.169,2.922 0.843,3.54 0.984,0.604 1.23,1.032 1.068,1.742 -0.273,1.25 0.575,1.609 2.247,1.017 1.875,-0.667 2.136,-0.188 0.675,1.124 -0.8,0.71 -1.18,1.532 -1.18,2.36 0.022,1.847 5.64,3.14 4.72,-0.787 -0.421,-1.783 -1.32,-3.11 0.625,-3.596 1.285,-0.478 2.486,1.455 3.595,1.798 2.586,0.793 4.51,-0.35 6.068,-1.692 0.94,-0.814 1.93,-0.695 2.52,-0.562 2.177,0.45 10.625,1.186 7.416,-4.1 -1.32,-1.924 -1.054,-2.304 1.629,-2.248 2.205,0.041 2.387,-0.041 2.527,-0.899 0.085,-0.512 -0.126,-1.327 -0.45,-1.853 -0.485,-0.788 -0.463,-1.012 0.057,-1.293 0.49,-0.266 0.125,-1.686 -0.45,-3.04 -1.186,-3.827 2.59,-10.513 -1.18,-11.734 -2.275,-0.822 0.752,-5.287 -2.696,-4.221 -0.998,0.288 -1.699,-0.225 -2.865,-1.012 m 9.43,11.523 c -0.28,0.063 -0.533,0.26 -0.843,0.498 -0.85,0.66 -0.899,0.715 -0.169,1.404 1.054,1.005 2.185,0.744 2.36,-0.563 0.141,-1.025 -0.504,-1.558 -1.348,-1.348 M 32.131,52.619 c -0.302,0.063 -0.372,0.4 -0.28,0.954 0.084,0.486 0.464,0.9 0.843,0.9 0.408,0 0.703,0.427 0.788,1.067 0.084,0.597 0.357,1.068 0.562,1.068 0.21,0 0.478,-0.47 0.626,-1.068 0.196,-0.85 0.07,-1.551 -0.899,-2.247 -0.78,-0.556 -1.327,-0.737 -1.629,-0.674 m 4.263,0.563 c -0.28,-0.036 -0.563,0.106 -0.563,0.449 0,0.343 0.33,0.618 0.73,0.618 0.394,0 0.66,-0.183 0.563,-0.45 -0.14,-0.357 -0.45,-0.582 -0.73,-0.617 m -6.91,0.674 c -0.254,0 -0.634,0.365 -0.62,0.954 0.03,0.955 0.274,1.145 0.62,0.45 0.533,-1.068 0.533,-1.404 0,-1.404"
       filter="url(#c)"
       opacity="0.1"
       id="path5"
       transform="matrix(1.0679537,0,0,1.0682749,-3.1723825,-3.1847968)" />
    <path
       d="m 21.550753,9.2787699 c -1.530376,0 -2.819402,2.9249301 0.180486,2.2818341 1.169405,-0.382437 1.027362,-2.2818341 -0.180486,-2.2818341 m 17.640455,1.9207571 c -0.892808,0 -1.739696,1.035156 -1.321058,1.620569 0.113205,0.157044 0.704848,0.322623 1.26018,0.361082 0.763599,0.05239 0.959025,-0.180538 0.959025,-0.960378 0,-0.720023 -0.247761,-1.019138 -0.900283,-1.019138 m -13.140098,0.600379 c -1.785624,-0.134606 -3.801921,1.432555 -4.139397,3.24755 -0.216794,1.140921 -0.04377,1.822477 -1.018825,1.561824 -0.601262,-0.165596 -1.979986,-1.448582 -2.820465,-1.561824 -1.321058,0.19656 -2.872797,1.719922 -1.920182,3.841516 0.945139,1.10246 1.267665,1.904734 0,1.91969 -2.849304,0.750998 -3.899099,1.388753 -2.93901,4.613882 0.187963,0.546955 0.120679,1.243468 -0.661056,2.046814 -1.155531,1.207149 -1.238835,1.266978 -3.0009555,0.72002 -2.4819249,-0.763819 -5.1891877,2.274354 -0.179418,2.21987 3.1632795,-0.373893 3.5092995,0.367482 0.7796015,1.802178 -1.8528985,0.967854 -2.4456025,1.356712 -2.4605595,2.460242 -0.01498,1.081098 0.48806,1.424003 1.860376,1.979515 3.0297845,1.073615 4.3123995,1.478491 4.6808395,5.281549 0,1.148401 -0.180486,3.120434 0.90135,3.781692 1.049809,0.645245 1.313584,1.101391 1.13951,1.860945 -0.291547,1.334268 0.615146,1.718854 2.400761,1.086425 2.002411,-0.712533 2.280078,-0.201902 0.719802,1.200749 -0.854358,0.75847 -1.260183,1.635525 -1.260183,2.521125 0.02345,1.972033 6.023262,3.353321 5.040743,-0.840738 -0.449613,-1.905793 -1.409697,-3.32233 0.667468,-3.841516 1.373383,-0.510629 2.654933,1.554342 3.840359,1.920758 2.760669,0.847149 4.814344,-0.373891 6.479285,-1.807519 1.003875,-0.869575 2.061141,-0.743517 2.691237,-0.601436 2.326007,0.480721 11.348079,1.268044 7.919948,-4.37993 -1.409705,-2.055362 -1.124559,-2.460236 1.739694,-2.400417 2.355902,0.04378 2.549203,-0.04488 2.699782,-0.961445 0.0897,-0.546959 -0.134552,-1.416528 -0.480578,-1.979513 -0.517954,-0.840729 -0.495528,-1.081093 0.05975,-1.380214 0.523301,-0.284154 0.134566,-1.802177 -0.480577,-3.24755 -1.266589,-4.08936 2.766004,-11.230776 -1.259114,-12.535143 -2.430667,-0.878126 0.803104,-5.647965 -2.880274,-4.509187 -1.064749,0.306599 -1.81339,-0.24036 -3.059687,-1.082167 -1.78562,-0.900552 -2.332412,-0.936869 -4.560159,-0.840731 -1.896688,0.07475 -2.789499,-2.431386 -5.039676,-0.779838 -1.889209,1.980586 -1.431058,1.004171 -3.839295,-0.539475 -0.480579,-0.480728 -1.019896,-0.736051 -1.621158,-0.779841 m 25.131102,15.25069 c -0.299023,0.06734 -0.57028,0.277748 -0.900282,0.532003 -0.907761,0.705057 -0.960087,0.764886 -0.180486,1.499861 1.125625,1.07361 2.33241,0.794788 2.52037,-0.601443 0.149513,-1.093912 -0.539314,-1.664369 -1.439602,-1.440036 M 29.22079,51.106011 c -0.322526,0.06734 -0.397279,0.428377 -0.299032,1.020204 0.0897,0.518108 0.495536,0.960379 0.900293,0.960379 0.435719,0 0.750771,0.456152 0.840475,1.139852 0.09073,0.637756 0.38232,1.14091 0.60126,1.14091 0.224269,0 0.51048,-0.502087 0.668532,-1.14091 0.209322,-0.908042 0.07474,-1.655834 -0.961155,-2.400426 -0.833005,-0.592886 -1.416106,-0.787313 -1.738627,-0.720009 m 4.552681,0.601442 c -0.299025,-0.03842 -0.601248,0.113229 -0.601248,0.480723 0,0.366413 0.35242,0.660185 0.779605,0.660185 0.419701,0 0.704842,-0.196555 0.600192,-0.480725 -0.14952,-0.381366 -0.479515,-0.621731 -0.779617,-0.660183 m -7.379554,0.720012 c -0.270195,0 -0.676019,0.389926 -0.659997,1.020202 0.02994,1.019135 0.291552,1.223177 0.659997,0.479657 0.570284,-1.140914 0.570284,-1.499859 0,-1.499859"
       id="path6"
       style="fill:#721c24;fill-opacity:1;stroke-width:1.06812" />
    <path
       fill="#f9f9f9"
       d="M 31,15.127572 17.118738,23.062717 31.002136,46.869224 44.88233,23.062717"
       id="path7"
       style="stroke-width:1.92047" />
    <path
       fill="#e5e5e5"
       d="M 31,46.869224 V 31 L 17.118738,23.062717 v 15.870292"
       id="path8"
       style="stroke-width:1.92047" />
    <path
       fill="#c1c1c1"
       d="M 44.883398,23.062717 31,30.998932 v 15.870292 l 13.883398,-7.935146"
       id="path9"
       style="stroke-width:1.92047" />
  </g>
</svg>
