<?xml version="1.0" encoding="UTF-8" standalone="no"?>
<svg
   width="62"
   height="62"
   version="1"
   id="svg5"
   sodipodi:docname="atomic.svg"
   inkscape:version="1.4 (e7c3feb100, 2024-10-09)"
   xmlns:inkscape="http://www.inkscape.org/namespaces/inkscape"
   xmlns:sodipodi="http://sodipodi.sourceforge.net/DTD/sodipodi-0.dtd"
   xmlns="http://www.w3.org/2000/svg"
   xmlns:svg="http://www.w3.org/2000/svg">
  <defs
     id="defs5" />
  <sodipodi:namedview
     id="namedview5"
     pagecolor="#ffffff"
     bordercolor="#000000"
     borderopacity="0.25"
     inkscape:showpageshadow="2"
     inkscape:pageopacity="0.0"
     inkscape:pagecheckerboard="0"
     inkscape:deskcolor="#d1d1d1"
     inkscape:zoom="11.78125"
     inkscape:cx="31.95756"
     inkscape:cy="32"
     inkscape:window-width="1920"
     inkscape:window-height="994"
     inkscape:window-x="0"
     inkscape:window-y="0"
     inkscape:window-maximized="1"
     inkscape:current-layer="svg5" />
  <g
     id="g5">
    <rect
       style="opacity:0.54215116;stroke-width:0.982303;fill:#3d4963;fill-opacity:1"
       width="54.999989"
       height="55.017544"
       x="4"
       y="4.9824572"
       rx="27.499994"
       ry="27.508772"
       id="rect1" />
    <rect
       style="fill:#3d4963;stroke-width:0.982303"
       width="54.999989"
       height="55.017544"
       x="4"
       y="4"
       rx="27.499994"
       ry="27.508772"
       id="rect2" />
    <path
       style="opacity:0.2;stroke-width:0.982303"
       d="m 31.499996,14.800172 c -3.377474,-0.200836 -6.111119,2.608219 -7.089844,5.633772 -3.192167,8.419088 -6.290442,16.870814 -9.303499,25.35581 l 5.988768,-2.09923 c 2.834213,-7.312692 5.585217,-14.660957 8.44029,-21.963268 0.45505,-1.120572 1.934803,-2.351699 3.019319,-1.212719 1.409233,1.400504 1.672855,3.493748 2.478375,5.242323 2.279471,5.982187 4.574597,11.958031 6.871165,17.933664 l 5.992604,2.09923 c -3.139011,-8.79252 -6.316418,-17.574933 -9.687148,-26.2807 -1.135604,-2.649451 -3.688245,-4.887961 -6.71003,-4.708882 z m 0,17.691885 a 3.9285707,3.9298245 0 0 0 -3.928573,3.929825 3.9285707,3.9298245 0 0 0 3.928573,3.929824 3.9285707,3.9298245 0 0 0 3.92857,-3.929824 3.9285707,3.9298245 0 0 0 -3.92857,-3.929825 z"
       id="path2" />
    <ellipse
       style="fill:#2698fa;stroke-width:0.982303"
       cx="31.499994"
       cy="35.438591"
       id="circle2"
       rx="3.928571"
       ry="3.9298248" />
    <path
       style="fill:#2698fa;stroke-width:0.982303"
       d="m 31.499996,13.816948 c -3.377474,-0.200838 -6.109219,2.607252 -7.087943,5.632805 -3.192169,8.41909 -6.29426,16.872547 -9.307317,25.357546 1.99715,-0.700259 3.994302,-1.400514 5.991453,-2.100769 2.834213,-7.312691 5.583317,-14.661765 8.438391,-21.964079 0.45505,-1.120573 1.935976,-2.349489 3.020493,-1.210511 1.409234,1.400504 1.672814,3.491704 2.478334,5.240278 2.279471,5.982183 4.573823,11.958682 6.870396,17.934312 1.997149,0.700255 3.994303,1.40051 5.991453,2.100769 -3.13901,-8.792519 -6.314401,-17.575155 -9.68513,-26.280924 -1.135607,-2.649449 -3.688345,-4.888508 -6.71013,-4.709427 z"
       id="path3" />
    <path
       style="opacity:1;fill:#586a8f;stroke-width:0.982303;fill-opacity:1"
       d="M 31.499996,4 C 16.264997,4 4,16.268912 4,31.508773 4,31.620233 4.011076,31.728956 4.017263,31.838818 4.3625296,16.903757 16.483747,4.982456 31.499996,4.982456 c 15.016246,0 27.137465,11.921301 27.48273,26.856362 C 58.989024,31.728956 59,31.620233 59,31.508773 58.99999,16.268912 46.734993,4 31.499996,4 Z"
       id="path4" />
    <path
       style="opacity:0.2;fill:#ffffff;stroke-width:0.982303"
       d="m 32.060122,13.811128 c -0.184962,-0.0073 -0.371264,-0.0055 -0.560126,0.0059 -3.377474,-0.200839 -6.111119,2.608218 -7.089844,5.63377 -3.192167,8.419091 -6.290442,16.870816 -9.303499,25.355812 l 0.40475,-0.142006 c 2.886964,-8.106793 5.847822,-16.184822 8.898749,-24.231398 0.978725,-3.025551 3.71237,-5.83461 7.089844,-5.633772 3.021785,-0.179081 5.574426,2.059432 6.710029,4.708881 3.226842,8.334142 6.272057,16.740003 9.280481,25.15625 l 0.406668,0.141995 C 44.758164,36.013981 41.580755,27.231567 38.210025,18.525798 37.1454,16.04194 34.8346,13.919234 32.060122,13.811159 Z m -0.560126,17.697645 a 3.9285707,3.9298245 0 0 0 -3.928573,3.929823 3.9285707,3.9298245 0 0 0 0.03645,0.489311 3.9285707,3.9298245 0 0 1 3.892125,-3.436677 3.9285707,3.9298245 0 0 1 3.894041,3.438592 3.9285707,3.9298245 0 0 0 0.03454,-0.491226 3.9285707,3.9298245 0 0 0 -3.928571,-3.929823 z"
       id="path5" />
  </g>
</svg>
