<?xml version="1.0" encoding="UTF-8" standalone="no"?>
<svg
   version="1"
   width="62"
   height="62"
   id="svg22"
   sodipodi:docname="atom.svg"
   inkscape:version="1.4 (e7c3feb100, 2024-10-09)"
   xmlns:inkscape="http://www.inkscape.org/namespaces/inkscape"
   xmlns:sodipodi="http://sodipodi.sourceforge.net/DTD/sodipodi-0.dtd"
   xmlns:xlink="http://www.w3.org/1999/xlink"
   xmlns="http://www.w3.org/2000/svg"
   xmlns:svg="http://www.w3.org/2000/svg">
  <sodipodi:namedview
     id="namedview24"
     pagecolor="#ffffff"
     bordercolor="#666666"
     borderopacity="1.0"
     inkscape:showpageshadow="2"
     inkscape:pageopacity="0.0"
     inkscape:pagecheckerboard="0"
     inkscape:deskcolor="#d1d1d1"
     showgrid="false"
     inkscape:zoom="9.8333334"
     inkscape:cx="18.864407"
     inkscape:cy="29.898305"
     inkscape:window-width="1920"
     inkscape:window-height="994"
     inkscape:window-x="0"
     inkscape:window-y="0"
     inkscape:window-maximized="1"
     inkscape:current-layer="svg22" />
  <defs
     id="defs8">
    <linearGradient
       id="linearGradient1"
       inkscape:collect="always">
      <stop
         style="stop-color:#009467;stop-opacity:1;"
         offset="0"
         id="stop1" />
      <stop
         style="stop-color:#80ff80;stop-opacity:1"
         offset="1"
         id="stop3" />
    </linearGradient>
    <linearGradient
       id="linearGradient4167">
      <stop
         style="stop-color:#009467;stop-opacity:1"
         offset="0"
         id="stop2" />
      <stop
         style="stop-color:#87d770;stop-opacity:1"
         offset="1"
         id="stop4" />
    </linearGradient>
    <linearGradient
       xlink:href="#linearGradient4167"
       id="linearGradient4161"
       x1="-44"
       y1="-24"
       x2="-4"
       y2="-24"
       gradientUnits="userSpaceOnUse"
       gradientTransform="matrix(1.0499999,0,0,1.0499999,19.939387,62.827118)" />
    <linearGradient
       gradientUnits="userSpaceOnUse"
       x2="0"
       y2="503.79999"
       y1="544.79999"
       id="linearGradient4173-36">
      <stop
         offset="0"
         stop-color="#44484c"
         id="stop2-7" />
      <stop
         stop-color="#1d1e1e"
         offset="1"
         id="stop4-5" />
    </linearGradient>
    <linearGradient
       xlink:href="#b-6-5"
       id="linearGradient4248-5-3"
       gradientUnits="userSpaceOnUse"
       gradientTransform="matrix(-0.38071101,-0.65992039,0.65941083,-0.38100522,-162.28029,498.26659)"
       y1="544.79999"
       x2="0"
       y2="503.79999" />
    <linearGradient
       id="b-6-5"
       y1="544.79999"
       y2="503.79999"
       gradientUnits="userSpaceOnUse"
       x2="0"
       gradientTransform="translate(-384.57,-499.8)">
      <stop
         stop-color="#4ea979"
         id="stop12-2-6" />
      <stop
         offset="1"
         stop-color="#5eb085"
         id="stop14-9-2" />
    </linearGradient>
    <linearGradient
       xlink:href="#b-6-5"
       id="linearGradient4193-1-9"
       gradientUnits="userSpaceOnUse"
       gradientTransform="matrix(0.76142202,0,0,0.76201041,-283.1001,-371.13253)"
       y1="544.79999"
       x2="0"
       y2="503.79999" />
    <linearGradient
       id="linearGradient518"
       y1="544.79999"
       y2="503.79999"
       gradientUnits="userSpaceOnUse"
       x2="0"
       gradientTransform="translate(-384.57,-499.8)">
      <stop
         stop-color="#4ea979"
         id="stop514" />
      <stop
         offset="1"
         stop-color="#5eb085"
         id="stop516" />
    </linearGradient>
    <linearGradient
       xlink:href="#b-6-5"
       id="linearGradient4219-2-1"
       gradientUnits="userSpaceOnUse"
       gradientTransform="matrix(-0.38071101,0.65992039,-0.65941083,-0.38100522,529.87364,-40.681475)"
       y1="544.79999"
       x2="0"
       y2="503.79999" />
    <linearGradient
       id="linearGradient525"
       y1="544.79999"
       y2="503.79999"
       gradientUnits="userSpaceOnUse"
       x2="0"
       gradientTransform="translate(-384.57,-499.8)">
      <stop
         stop-color="#4ea979"
         id="stop521" />
      <stop
         offset="1"
         stop-color="#5eb085"
         id="stop523" />
    </linearGradient>
    <linearGradient
       id="linearGradient4282">
      <stop
         style="stop-color:#000000;stop-opacity:1;"
         offset="0"
         id="stop7" />
      <stop
         style="stop-color:#000000;stop-opacity:0;"
         offset="1"
         id="stop9" />
    </linearGradient>
    <linearGradient
       inkscape:collect="always"
       xlink:href="#linearGradient1"
       id="linearGradient3"
       x1="-55.999996"
       y1="39.847321"
       x2="0"
       y2="39.847321"
       gradientUnits="userSpaceOnUse" />
  </defs>
  <g
     id="g1"
     transform="translate(70.847327,3)">
    <rect
       ry="27.999998"
       rx="27.999998"
       height="55.999996"
       width="55.999996"
       y="11.847322"
       x="-55.999996"
       id="rect10-5"
       transform="matrix(0,-1,-1,0,0,0)"
       style="fill:url(#linearGradient3);fill-opacity:1" />
    <path
       d="m -67.830963,27.299993 c -0.0057,0.233794 -0.01637,0.4648 -0.01637,0.7 0,15.512004 12.488004,28.000007 28.000004,28.000007 15.512004,0 28.000007,-12.488003 28.000007,-28.000007 0,-0.2352 -0.01067,-0.466206 -0.0168,-0.7 C -12.233725,42.484397 -24.570528,54.6 -39.847332,54.6 c -15.2768,0 -27.613604,-12.115603 -27.983204,-27.300007 z"
       style="opacity:0.15;stroke-width:1.4"
       id="path12-6" />
    <path
       style="fill:#ffffff;stroke-width:1.4"
       d="m -39.13339,26.591145 c -1.159201,0 -2.100001,0.946275 -2.100001,2.105475 0,1.1592 0.9408,2.100001 2.100001,2.100001 1.1592,0 2.1,-0.940801 2.1,-2.100001 0,-1.1592 -0.9408,-2.105475 -2.1,-2.105475 z"
       id="path14-2" />
    <path
       style="fill:none;stroke:#ffffff;stroke-width:1.4px;stroke-linecap:round;stroke-linejoin:round;stroke-opacity:1"
       d="m -26.547334,32.899994 c 0,0 4.258788,-1.513813 4.200001,-4.200001 -0.106267,-4.854911 -12.941523,-6.904494 -17.500004,-7.000001 -9.898259,-0.207368 -17.264019,1.90114 -17.500001,5.600001 -0.235981,3.698861 4.200001,4.200001 4.200001,4.200001"
       id="path16-9" />
    <path
       d="m -30.747335,18.899991 c 0,0 1.569187,-5.273822 -0.786494,-6.566001 -4.257614,-2.3354423 -12.450243,7.896088 -14.812198,11.796097 -5.12871,8.468474 -6.98557,15.901653 -3.900259,17.95546 3.085324,2.053796 5.498947,-0.785551 5.498947,-0.785551"
       style="fill:none;stroke:#ffffff;stroke-width:1.4px;stroke-linecap:round;stroke-linejoin:round;stroke-opacity:1"
       id="path18-1" />
    <path
       d="m -43.347338,14.69999 c 0,0 -3.03546,-3.298499 -5.332373,-1.90451 -4.151356,2.51947 0.49128,14.659945 2.687824,18.655447 4.769549,8.675843 10.278444,14.000513 13.599751,12.355454 7.232282,-2.771951 -1.1552,-17.906388 -1.1552,-17.906388"
       style="fill:none;stroke:#ffffff;stroke-width:1.4px;stroke-linecap:round;stroke-linejoin:round;stroke-opacity:1"
       id="path20-2" />
  </g>
</svg>
