<?xml version="1.0" encoding="UTF-8" standalone="no"?>
<svg
   height="62"
   viewBox="0 0 62 62"
   width="62"
   version="1.1"
   id="svg25"
   sodipodi:docname="authy.svg"
   inkscape:version="1.4 (e7c3feb100, 2024-10-09)"
   xmlns:inkscape="http://www.inkscape.org/namespaces/inkscape"
   xmlns:sodipodi="http://sodipodi.sourceforge.net/DTD/sodipodi-0.dtd"
   xmlns:xlink="http://www.w3.org/1999/xlink"
   xmlns="http://www.w3.org/2000/svg"
   xmlns:svg="http://www.w3.org/2000/svg">
  <defs
     id="defs29">
    <linearGradient
       id="linearGradient8"
       inkscape:collect="always">
      <stop
         style="stop-color:#eff2f6;stop-opacity:1;"
         offset="0"
         id="stop6" />
      <stop
         style="stop-color:#c5d1d7;stop-opacity:1;"
         offset="0.73462391"
         id="stop10" />
      <stop
         style="stop-color:#b7c6cd;stop-opacity:1;"
         offset="1"
         id="stop8" />
    </linearGradient>
    <linearGradient
       id="linearGradient1"
       inkscape:collect="always">
      <stop
         style="stop-color:#eff2f6;stop-opacity:1;"
         offset="0"
         id="stop1" />
      <stop
         style="stop-color:#c7d3d9;stop-opacity:1;"
         offset="0.69886869"
         id="stop11" />
      <stop
         style="stop-color:#b7c6cd;stop-opacity:1;"
         offset="1"
         id="stop3" />
    </linearGradient>
    <linearGradient
       id="linearGradient4054"
       gradientUnits="userSpaceOnUse"
       x1="4"
       x2="4"
       y1="44"
       y2="4"
       gradientTransform="matrix(1.0499999,0,0,1.0499999,-41.235474,-52.345686)">
      <stop
         offset="0"
         stop-color="#be1111"
         id="stop2-0" />
      <stop
         offset="1"
         stop-color="#e74c3c"
         id="stop4-6" />
    </linearGradient>
    <linearGradient
       id="linearGradient4058"
       gradientUnits="userSpaceOnUse"
       x1="20"
       x2="40"
       y1="24"
       y2="44"
       gradientTransform="matrix(1.0499999,0,0,1.0499999,-41.235474,-52.345686)">
      <stop
         offset="0"
         id="stop12-8" />
      <stop
         offset="1"
         stop-opacity="0"
         id="stop14-9" />
    </linearGradient>
    <linearGradient
       id="linearGradient4062"
       gradientUnits="userSpaceOnUse"
       x1="9"
       x2="64"
       y1="13"
       y2="68"
       gradientTransform="matrix(1.0499999,0,0,1.0499999,-41.235474,-52.345686)">
      <stop
         offset="0"
         stop-color="#fcfcfc"
         id="stop7-2" />
      <stop
         offset="1"
         stop-color="#e74c3c"
         id="stop9-6" />
    </linearGradient>
    <linearGradient
       inkscape:collect="always"
       xlink:href="#linearGradient1"
       id="linearGradient3"
       x1="184.8145"
       y1="274.034"
       x2="202.49123"
       y2="333.41815"
       gradientUnits="userSpaceOnUse" />
    <linearGradient
       inkscape:collect="always"
       xlink:href="#linearGradient8"
       id="linearGradient6"
       x1="184.8145"
       y1="298.00639"
       x2="255.63827"
       y2="298.00639"
       gradientUnits="userSpaceOnUse" />
  </defs>
  <sodipodi:namedview
     id="namedview27"
     pagecolor="#ffffff"
     bordercolor="#666666"
     borderopacity="1.0"
     inkscape:showpageshadow="2"
     inkscape:pageopacity="0.0"
     inkscape:pagecheckerboard="0"
     inkscape:deskcolor="#d1d1d1"
     showgrid="false"
     inkscape:zoom="9.8333334"
     inkscape:cx="24.152542"
     inkscape:cy="36.610169"
     inkscape:window-width="1920"
     inkscape:window-height="994"
     inkscape:window-x="0"
     inkscape:window-y="0"
     inkscape:window-maximized="1"
     inkscape:current-layer="svg25" />
  <linearGradient
     id="a"
     gradientUnits="userSpaceOnUse"
     x1="4"
     x2="4"
     y1="44"
     y2="4"
     gradientTransform="matrix(1.0499999,0,0,1.0499999,-41.235474,-52.345686)">
    <stop
       offset="0"
       stop-color="#be1111"
       id="stop2" />
    <stop
       offset="1"
       stop-color="#e74c3c"
       id="stop4" />
  </linearGradient>
  <linearGradient
     id="b"
     gradientUnits="userSpaceOnUse"
     x1="9"
     x2="64"
     y1="13"
     y2="68"
     gradientTransform="matrix(1.0499999,0,0,1.0499999,-41.235474,-52.345686)">
    <stop
       offset="0"
       stop-color="#fcfcfc"
       id="stop7" />
    <stop
       offset="1"
       stop-color="#e74c3c"
       id="stop9" />
  </linearGradient>
  <linearGradient
     id="c"
     gradientUnits="userSpaceOnUse"
     x1="20"
     x2="40"
     y1="24"
     y2="44"
     gradientTransform="matrix(1.0499999,0,0,1.0499999,-41.235474,-52.345686)">
    <stop
       offset="0"
       id="stop12" />
    <stop
       offset="1"
       stop-opacity="0"
       id="stop14" />
  </linearGradient>
  <g
     id="g1"
     transform="translate(68.406778,12.22865)">
    <path
       style="opacity:0.57438551;stroke-width:1.33333;fill:#c83771;fill-opacity:1"
       d="m -65.355979,18.280925 c -0.0116,0.328131 -0.05079,0.650367 -0.05079,0.982428 0,15.23943 12.487653,27.507997 27.99921,27.507997 15.511565,0 27.9992115,-12.268567 27.9992115,-27.507997 0,-0.331746 -0.03904,-0.65359 -0.050787,-0.982428 -0.5279854,14.777689 -12.7756375,26.525568 -27.9492065,26.525568 -15.173974,0 -27.421229,-11.747879 -27.949213,-26.525568 z"
       id="path1" />
    <rect
       style="fill:#c83771;stroke-width:1.33333"
       width="56"
       height="55.017544"
       x="-65.406776"
       y="-9.2286501"
       rx="37.332001"
       ry="37.332001"
       id="rect1" />
    <path
       style="opacity:0.26131953;fill:#ffffff;stroke-width:1.33333"
       d="m -37.407568,-9.2270432 c -15.511559,0 -27.999211,12.268566 -27.999211,27.5079952 0,0.331747 0.03905,0.653591 0.05077,0.982429 0.528186,-14.7769021 12.775242,-26.5255672 27.949212,-26.5255672 15.173972,0 27.4212269,11.7486651 27.9492122,26.5255672 0.012,-0.328838 0.0508,-0.650682 0.0508,-0.982429 0,-15.2394292 -12.4876492,-27.5079952 -27.9992122,-27.5079952 z"
       id="path2" />
    <g
       style="opacity:0.2;stroke-width:1.34518;enable-background:new"
       transform="matrix(0.40224868,0,0,0.39519168,-120.23522,-99.716592)"
       id="g4">
      <path
         d="m 199.99,286.44 16.56,16.561 c 2.394,2.393 6.273,2.391 8.667,-0.002 2.395,-2.396 2.397,-6.275 0.003,-8.668 l -16.561,-16.562 c -11.85,-11.851 -31.001,-12.044 -43.104,-0.6 -0.111,0.094 -0.222,0.191 -0.326,0.295 -0.051,0.052 -0.099,0.105 -0.148,0.158 -0.052,0.05 -0.107,0.097 -0.157,0.146 -0.106,0.106 -0.2,0.215 -0.294,0.325 -11.445,12.105 -11.25,31.254 0.6,43.105 l 16.561,16.559 c 2.394,2.394 6.272,2.394 8.666,0 2.394,-2.396 2.396,-6.275 0.002,-8.667 l -16.56,-16.562 c -7.225,-7.225 -7.275,-18.949 -0.149,-26.24 7.289,-7.123 19.014,-7.074 26.24,0.152 z"
         id="path3"
         style="stroke-width:1.34518" />
      <path
         d="m 221.37,264.39 c -2.394,2.394 -2.392,6.274 0.002,8.667 l 16.56,16.56 c 7.226,7.228 7.271,18.951 0.147,26.242 -7.29,7.122 -19.013,7.075 -26.239,-0.15 l -16.559,-16.561 c -2.394,-2.393 -6.277,-2.393 -8.671,0 -2.394,2.396 -2.394,6.279 0,8.672 l 16.56,16.56 c 11.851,11.851 31.002,12.044 43.102,0.6 0.111,-0.095 0.222,-0.188 0.327,-0.295 0.051,-0.053 0.097,-0.104 0.149,-0.155 0.051,-0.052 0.107,-0.1 0.159,-0.15 0.104,-0.106 0.196,-0.216 0.291,-0.327 11.447,-12.1 11.253,-31.251 -0.598,-43.102 l -16.558,-16.56 c -2.394,-2.395 -6.279,-2.395 -8.672,-0.001 z"
         id="path4-36"
         style="stroke-width:1.34518" />
    </g>
    <g
       style="fill:#ff8bff;stroke-width:1.34518;enable-background:new"
       transform="matrix(0.40224868,0,0,0.39519168,-120.23522,-100.69899)"
       id="g6">
      <path
         d="m 199.99,286.44 16.56,16.561 c 2.394,2.393 6.273,2.391 8.667,-0.002 2.395,-2.396 2.397,-6.275 0.003,-8.668 l -16.561,-16.562 c -11.85,-11.851 -31.001,-12.044 -43.104,-0.6 -0.111,0.094 -0.222,0.191 -0.326,0.295 -0.051,0.052 -0.099,0.105 -0.148,0.158 -0.052,0.05 -0.107,0.097 -0.157,0.146 -0.106,0.106 -0.2,0.215 -0.294,0.325 -11.445,12.105 -11.25,31.254 0.6,43.105 l 16.561,16.559 c 2.394,2.394 6.272,2.394 8.666,0 2.394,-2.396 2.396,-6.275 0.002,-8.667 l -16.56,-16.562 c -7.225,-7.225 -7.275,-18.949 -0.149,-26.24 7.289,-7.123 19.014,-7.074 26.24,0.152 z"
         id="path5"
         style="fill:url(#linearGradient3)" />
      <path
         d="m 221.37,264.39 c -2.394,2.394 -2.392,6.274 0.002,8.667 l 16.56,16.56 c 7.226,7.228 7.271,18.951 0.147,26.242 -7.29,7.122 -19.013,7.075 -26.239,-0.15 l -16.559,-16.561 c -2.394,-2.393 -6.277,-2.393 -8.671,0 -2.394,2.396 -2.394,6.279 0,8.672 l 16.56,16.56 c 11.851,11.851 31.002,12.044 43.102,0.6 0.111,-0.095 0.222,-0.188 0.327,-0.295 0.051,-0.053 0.097,-0.104 0.149,-0.155 0.051,-0.052 0.107,-0.1 0.159,-0.15 0.104,-0.106 0.196,-0.216 0.291,-0.327 11.447,-12.1 11.253,-31.251 -0.598,-43.102 l -16.558,-16.56 c -2.394,-2.395 -6.279,-2.395 -8.672,-0.001 z"
         id="path6"
         style="fill:url(#linearGradient6);opacity:0.75" />
    </g>
  </g>
</svg>
