<?xml version="1.0" encoding="UTF-8" standalone="no"?>
<svg
   height="62"
   viewBox="0 0 62 62"
   width="62"
   version="1.1"
   id="svg25"
   sodipodi:docname="babe.svg"
   inkscape:version="1.4 (e7c3feb100, 2024-10-09)"
   xmlns:inkscape="http://www.inkscape.org/namespaces/inkscape"
   xmlns:sodipodi="http://sodipodi.sourceforge.net/DTD/sodipodi-0.dtd"
   xmlns="http://www.w3.org/2000/svg"
   xmlns:svg="http://www.w3.org/2000/svg">
  <defs
     id="defs29">
    <linearGradient
       id="linearGradient4054"
       gradientUnits="userSpaceOnUse"
       x1="4"
       x2="4"
       y1="44"
       y2="4"
       gradientTransform="matrix(1.0499999,0,0,1.0499999,-41.235474,-52.345686)">
      <stop
         offset="0"
         stop-color="#be1111"
         id="stop2-0" />
      <stop
         offset="1"
         stop-color="#e74c3c"
         id="stop4-6" />
    </linearGradient>
    <linearGradient
       id="linearGradient4058"
       gradientUnits="userSpaceOnUse"
       x1="20"
       x2="40"
       y1="24"
       y2="44"
       gradientTransform="matrix(1.0499999,0,0,1.0499999,-41.235474,-52.345686)">
      <stop
         offset="0"
         id="stop12-8" />
      <stop
         offset="1"
         stop-opacity="0"
         id="stop14-9" />
    </linearGradient>
    <linearGradient
       id="linearGradient4062"
       gradientUnits="userSpaceOnUse"
       x1="9"
       x2="64"
       y1="13"
       y2="68"
       gradientTransform="matrix(1.0499999,0,0,1.0499999,-41.235474,-52.345686)">
      <stop
         offset="0"
         stop-color="#fcfcfc"
         id="stop7-2" />
      <stop
         offset="1"
         stop-color="#e74c3c"
         id="stop9-6" />
    </linearGradient>
  </defs>
  <sodipodi:namedview
     id="namedview27"
     pagecolor="#ffffff"
     bordercolor="#666666"
     borderopacity="1.0"
     inkscape:showpageshadow="2"
     inkscape:pageopacity="0.0"
     inkscape:pagecheckerboard="0"
     inkscape:deskcolor="#d1d1d1"
     showgrid="false"
     inkscape:zoom="4.9166667"
     inkscape:cx="-19.830508"
     inkscape:cy="40.677966"
     inkscape:window-width="1920"
     inkscape:window-height="994"
     inkscape:window-x="0"
     inkscape:window-y="0"
     inkscape:window-maximized="1"
     inkscape:current-layer="svg25" />
  <linearGradient
     id="a"
     gradientUnits="userSpaceOnUse"
     x1="4"
     x2="4"
     y1="44"
     y2="4"
     gradientTransform="matrix(1.0499999,0,0,1.0499999,-41.235474,-52.345686)">
    <stop
       offset="0"
       stop-color="#be1111"
       id="stop2" />
    <stop
       offset="1"
       stop-color="#e74c3c"
       id="stop4" />
  </linearGradient>
  <linearGradient
     id="b"
     gradientUnits="userSpaceOnUse"
     x1="9"
     x2="64"
     y1="13"
     y2="68"
     gradientTransform="matrix(1.0499999,0,0,1.0499999,-41.235474,-52.345686)">
    <stop
       offset="0"
       stop-color="#fcfcfc"
       id="stop7" />
    <stop
       offset="1"
       stop-color="#e74c3c"
       id="stop9" />
  </linearGradient>
  <linearGradient
     id="c"
     gradientUnits="userSpaceOnUse"
     x1="20"
     x2="40"
     y1="24"
     y2="44"
     gradientTransform="matrix(1.0499999,0,0,1.0499999,-41.235474,-52.345686)">
    <stop
       offset="0"
       id="stop12" />
    <stop
       offset="1"
       stop-opacity="0"
       id="stop14" />
  </linearGradient>
  <g
     id="g22"
     transform="matrix(1.0714286,0,0,1.0869565,-3.2857152,-4.8695645)">
    <path
       style="opacity:0.2"
       d="m 20,11 c -2.700778,0.0033 -5.158777,1.559897 -6.316406,4 H 11 c -3.8658331,3.87e-4 -6.9996135,3.134167 -7,7 v 18 c 3.865e-4,3.865833 3.1341669,6.999613 7,7 h 3.257812 C 15.566175,48.878784 17.710537,49.999104 20,50 h 2.080078 C 22.577008,53.440744 25.52356,55.995586 29,56 h 6 c 3.477182,-0.0034 6.424838,-2.558524 6.921875,-6 H 44 c 2.286701,-0.0034 4.427592,-1.123479 5.734375,-3 H 53 c 3.865833,-3.87e-4 6.999613,-3.134167 7,-7 V 22 c -3.87e-4,-3.865833 -3.134167,-6.999613 -7,-7 H 50.314453 C 49.157127,12.560533 46.700072,11.004069 44,11 h -6 c -2.460278,0.0034 -4.738165,1.298107 -6,3.410156 C 30.738165,12.298107 28.460278,11.003448 26,11 Z"
       id="path1" />
    <path
       style="fill:#c83771"
       d="m 20,10 c -2.700778,0.0033 -5.158777,1.559897 -6.316406,4 H 11 c -3.8658331,3.87e-4 -6.9996135,3.134167 -7,7 v 18 c 3.865e-4,3.865833 3.1341669,6.999613 7,7 h 3.257812 C 15.566175,47.878784 17.710537,48.999104 20,49 h 2.080078 C 22.577008,52.440744 25.52356,54.995586 29,55 h 6 c 3.477182,-0.0034 6.424838,-2.558524 6.921875,-6 H 44 c 2.286701,-0.0034 4.427592,-1.123479 5.734375,-3 H 53 c 3.865833,-3.87e-4 6.999613,-3.134167 7,-7 V 21 c -3.87e-4,-3.865833 -3.134167,-6.999613 -7,-7 H 50.314453 C 49.157127,11.560533 46.700072,10.004069 44,10 h -6 c -2.460278,0.0034 -4.738165,1.298107 -6,3.410156 C 30.738165,11.298107 28.460278,10.003448 26,10 Z"
       id="path2" />
    <path
       style="opacity:0.2"
       d="m 11,22 c 0,1.333348 0,2.666652 0,4 2.000001,0 4,0 6,0 0,-1.333348 0,-2.666652 0,-4 -2,0 -3.999999,0 -6,0 z"
       id="path3" />
    <path
       style="opacity:0.2"
       d="m 11,29 c 0,1.333348 0,2.666652 0,4 2.000001,0 4,0 6,0 0,-1.333348 0,-2.666652 0,-4 -2,0 -3.999999,0 -6,0 z"
       id="path4" />
    <path
       style="opacity:0.2"
       d="m 11,36 c 0,1.333348 0,2.666652 0,4 2.000001,0 4,0 6,0 0,-1.333348 0,-2.666652 0,-4 -2,0 -3.999999,0 -6,0 z"
       id="path5" />
    <path
       style="opacity:0.2"
       d="m 20,18 c 0,1.333348 0,2.666652 0,4 2.000002,0 4,0 6,0 0,-1.333348 0,-2.666652 0,-4 -2,0 -3.999998,0 -6,0 z"
       id="path6" />
    <path
       style="opacity:0.2"
       d="m 20,25 c 0,1.333348 0,2.666652 0,4 2.000002,0 4,0 6,0 0,-1.333348 0,-2.666652 0,-4 -2,0 -3.999998,0 -6,0 z"
       id="path7" />
    <path
       style="opacity:0.2"
       d="m 20,32 c 0,1.333348 0,2.666652 0,4 2.000002,0 4,0 6,0 0,-1.333348 0,-2.666652 0,-4 -2,0 -3.999998,0 -6,0 z"
       id="path8" />
    <path
       style="opacity:0.2"
       d="m 20,39 c 0,1.333348 0,2.666652 0,4 2.000002,0 4,0 6,0 0,-1.333348 0,-2.666652 0,-4 -2,0 -3.999998,0 -6,0 z"
       id="path9" />
    <path
       style="opacity:0.2"
       d="m 29,24 c 0,1.333348 0,2.666652 0,4 2.000002,0 4,0 6,0 0,-1.333348 0,-2.666652 0,-4 -2,0 -3.999998,0 -6,0 z"
       id="path10" />
    <path
       style="opacity:0.2"
       d="m 29,31 c 0,1.333348 0,2.666652 0,4 2.000002,0 4,0 6,0 0,-1.333348 0,-2.666652 0,-4 -2,0 -3.999998,0 -6,0 z"
       id="path11" />
    <path
       style="opacity:0.2"
       d="m 29,38 c 0,1.333348 0,2.666652 0,4 2.000002,0 4,0 6,0 0,-1.333348 0,-2.666652 0,-4 -2,0 -3.999998,0 -6,0 z"
       id="path12" />
    <path
       style="opacity:0.2"
       d="m 29,45 c 0,1.333348 0,2.666652 0,4 2.000002,0 4,0 6,0 0,-1.333348 0,-2.666652 0,-4 -2,0 -3.999998,0 -6,0 z"
       id="path13" />
    <path
       style="opacity:0.2"
       d="m 53,22 c 0,1.333348 0,2.666652 0,4 -2.000001,0 -4,0 -6,0 0,-1.333348 0,-2.666652 0,-4 2,0 3.999999,0 6,0 z"
       id="path14" />
    <path
       style="opacity:0.2"
       d="m 53,29 c 0,1.333348 0,2.666652 0,4 -2.000001,0 -4,0 -6,0 0,-1.333348 0,-2.666652 0,-4 2,0 3.999999,0 6,0 z"
       id="path15" />
    <path
       style="opacity:0.2"
       d="m 53,36 c 0,1.333348 0,2.666652 0,4 -2.000001,0 -4,0 -6,0 0,-1.333348 0,-2.666652 0,-4 2,0 3.999999,0 6,0 z"
       id="path16" />
    <path
       style="opacity:0.2"
       d="m 44,18 c 0,1.333348 0,2.666652 0,4 -2.000002,0 -4,0 -6,0 0,-1.333348 0,-2.666652 0,-4 2,0 3.999998,0 6,0 z"
       id="path17" />
    <path
       style="opacity:0.2"
       d="m 44,25 c 0,1.333348 0,2.666652 0,4 -2.000002,0 -4,0 -6,0 0,-1.333348 0,-2.666652 0,-4 2,0 3.999998,0 6,0 z"
       id="path18" />
    <path
       style="opacity:0.2"
       d="m 44,32 c 0,1.333348 0,2.666652 0,4 -2.000002,0 -4,0 -6,0 0,-1.333348 0,-2.666652 0,-4 2,0 3.999998,0 6,0 z"
       id="path19" />
    <path
       style="opacity:0.2"
       d="m 44,39 c 0,1.333348 0,2.666652 0,4 -2.000002,0 -4,0 -6,0 0,-1.333348 0,-2.666652 0,-4 2,0 3.999998,0 6,0 z"
       id="path20" />
    <path
       style="fill:#ffffff"
       d="m 20,17 v 4 h 6 v -4 z m 18,0 v 4 h 6 v -4 z m -27,4 v 4 h 6 v -4 z m 36,0 v 4 h 6 v -4 z m -18,2 v 4 h 6 v -4 z m -9,1 v 4 h 6 v -4 z m 18,0 v 4 h 6 v -4 z m -27,4 v 4 h 6 v -4 z m 36,0 v 4 h 6 v -4 z m -18,2 v 4 h 6 v -4 z m -9,1 v 4 h 6 v -4 z m 18,0 v 4 h 6 v -4 z m -27,4 v 4 h 6 v -4 z m 36,0 v 4 h 6 v -4 z m -18,2 v 4 h 6 v -4 z m -9,1 v 4 h 6 v -4 z m 18,0 v 4 h 6 v -4 z m -9,6 v 4 h 6 v -4 z"
       id="path21" />
    <path
       style="opacity:0.2;fill:#ffffff"
       d="m 20,10 c -2.700778,0.0033 -5.158777,1.559897 -6.316406,4 H 11 c -3.8658331,3.87e-4 -6.9996135,3.134167 -7,7 v 1 c 3.865e-4,-3.865833 3.1341669,-6.999613 7,-7 h 2.683594 C 14.841223,12.559897 17.299222,11.0033 20,11 h 6 c 2.460278,0.0034 4.738165,1.298107 6,3.410156 C 33.261835,12.298107 35.539722,11.0034 38,11 h 6 c 2.700072,0.0041 5.157127,1.560533 6.314453,4 H 53 c 3.865833,3.87e-4 6.999613,3.134167 7,7 v -1 c -3.87e-4,-3.865833 -3.134167,-6.999613 -7,-7 H 50.314453 C 49.157127,11.560533 46.700072,10.004069 44,10 h -6 c -2.460278,0.0034 -4.738165,1.298107 -6,3.410156 C 30.738165,11.298107 28.460278,10.003448 26,10 Z"
       id="path22" />
  </g>
</svg>
