<?xml version="1.0" encoding="UTF-8" standalone="no"?>
<svg
   height="62"
   width="62"
   version="1.1"
   id="svg6"
   sodipodi:docname="baiji-manga-viewer.svg"
   inkscape:version="1.4 (e7c3feb100, 2024-10-09)"
   xmlns:inkscape="http://www.inkscape.org/namespaces/inkscape"
   xmlns:sodipodi="http://sodipodi.sourceforge.net/DTD/sodipodi-0.dtd"
   xmlns:xlink="http://www.w3.org/1999/xlink"
   xmlns="http://www.w3.org/2000/svg"
   xmlns:svg="http://www.w3.org/2000/svg">
  <defs
     id="defs6">
    <linearGradient
       id="linearGradient6"
       inkscape:collect="always">
      <stop
         style="stop-color:#b7c6cd;stop-opacity:1;"
         offset="0"
         id="stop6" />
      <stop
         style="stop-color:#eff2f6;stop-opacity:1;"
         offset="1"
         id="stop7" />
    </linearGradient>
    <linearGradient
       inkscape:collect="always"
       xlink:href="#linearGradient6"
       id="linearGradient7"
       x1="31.119627"
       y1="46.245602"
       x2="32.078438"
       y2="16.115557"
       gradientUnits="userSpaceOnUse" />
  </defs>
  <sodipodi:namedview
     id="namedview6"
     pagecolor="#ffffff"
     bordercolor="#000000"
     borderopacity="0.25"
     inkscape:showpageshadow="2"
     inkscape:pageopacity="0.0"
     inkscape:pagecheckerboard="0"
     inkscape:deskcolor="#d1d1d1"
     inkscape:zoom="11.6875"
     inkscape:cx="31.957219"
     inkscape:cy="32"
     inkscape:window-width="1920"
     inkscape:window-height="994"
     inkscape:window-x="0"
     inkscape:window-y="0"
     inkscape:window-maximized="1"
     inkscape:current-layer="svg6" />
  <g
     id="g6"
     transform="translate(-0.5,-1)">
    <ellipse
       cx="31.5"
       cy="32.491226"
       style="opacity:1;stroke-width:0.982302;fill:#66a4ff;fill-opacity:1"
       id="circle1"
       rx="27.5"
       ry="27.508774" />
    <ellipse
       cx="31.5"
       cy="31.508774"
       style="fill:#2a7fff;stroke-width:0.982302"
       id="circle2"
       rx="27.5"
       ry="27.508774" />
    <path
       style="opacity:0.2;stroke-width:0.982302"
       d="M 31.499992,4.9824558 A 27.499992,27.508766 0 0 0 6.0659526,22.06606 c 5.1631194,1.517479 13.7920334,3.114563 26.4161844,2.565516 0,0 15.565075,-0.0088 24.724287,-1.884319 A 27.499992,27.508766 0 0 0 31.499992,4.9824558 Z"
       id="path2" />
    <path
       style="fill:#80b3ff;stroke-width:0.982302"
       d="M 31.499992,4 A 27.499992,27.508766 0 0 0 6.0659526,21.083607 c 5.1631194,1.51748 13.7920334,3.114565 26.4161844,2.565511 0,0 15.565075,-0.0088 24.724287,-1.884319 A 27.499992,27.508766 0 0 0 31.499992,4 Z"
       id="path3" />
    <path
       d="M 31.499992,4 A 27.499992,27.508766 0 0 0 4,31.508766 27.499992,27.508766 0 0 0 4.0211163,32.084486 27.499992,27.508766 0 0 1 31.499992,4.9824558 27.499992,27.508766 0 0 1 58.97936,31.915505 27.499992,27.508766 0 0 0 58.999984,31.508766 27.499992,27.508766 0 0 0 31.499992,4 Z"
       style="opacity:0.2;fill:#ffffff;stroke-width:0.982302"
       id="path4" />
    <path
       style="opacity:0.2;stroke-width:0.982302"
       d="m 28.553563,15.789469 c -4.910712,0 -6.874996,2.947369 -6.874996,2.947369 l -2.946429,-0.982451 c 0,0 -3.928567,-1.964918 -3.928567,0.982451 0,0.982459 2.946429,4.91228 8.83928,9.824559 1.813603,1.51182 5.892857,3.929827 5.892857,3.929827 0.982146,0.982452 0.982146,0.982452 0.982146,3.929821 0,2.947369 -3.928574,2.947369 -3.928574,2.947369 l -1.964284,-0.982456 c 0,0 1.964284,-1.964913 1.964284,-4.912282 0,-2.947362 -2.946429,-3.929821 -2.946429,-3.929821 l -4.910713,3.929821 v 0.982459 L 17.75,33.473676 11.857141,34.456135 c 0,0 -0.982145,2.94737 0.982146,5.894737 1.964284,2.947369 6.874996,0.982452 6.874996,0.982452 0,0 1.964284,5.894739 9.821425,5.894739 12.767855,0 13.749999,-11.78947 13.749999,-11.78947 v -2.947369 c 0,0 7.857135,-1.96491 7.857135,-3.929827 0,0 -2.946422,-5.894731 -10.803564,-5.894731 -3.928574,-4.912279 -5.892857,-6.877197 -11.785715,-6.877197 z m -0.491066,4.912279 a 1.4732138,1.4736838 0 0 1 1.473211,1.473688 1.4732138,1.4736838 0 0 1 -1.473211,1.473682 1.4732138,1.4736838 0 0 1 -1.473217,-1.473682 1.4732138,1.4736838 0 0 1 1.473217,-1.473688 z"
       id="path5" />
    <path
       style="fill:url(#linearGradient7);stroke-width:0.982302"
       d="m 28.553563,14.807018 c -4.910712,0 -6.874996,2.947369 -6.874996,2.947369 l -2.946429,-0.982459 c 0,0 -3.928567,-1.96491 -3.928567,0.982459 0,0.982451 2.946429,4.912279 8.83928,9.824558 1.813603,1.511813 5.892857,3.929821 5.892857,3.929821 0.982146,0.982458 0.982146,0.982458 0.982146,3.929827 0,2.947365 -3.928574,2.947365 -3.928574,2.947365 l -1.964284,-0.982453 c 0,0 1.964284,-1.964912 1.964284,-4.912281 0,-2.947369 -2.946429,-3.929827 -2.946429,-3.929827 l -4.910713,3.929827 v 0.982452 L 17.75,32.491224 11.857141,33.473676 c 0,0 -0.982145,2.947369 0.982146,5.894738 1.964284,2.94737 6.874996,0.982458 6.874996,0.982458 0,0 1.964284,5.894731 9.821425,5.894731 12.767855,0 13.749999,-11.789468 13.749999,-11.789468 v -2.947369 c 0,0 7.857135,-1.964911 7.857135,-3.929821 0,0 -2.946422,-5.894738 -10.803564,-5.894738 -3.928574,-4.912279 -5.892857,-6.877189 -11.785715,-6.877189 z m -0.491066,4.912279 a 1.4732138,1.4736838 0 0 1 1.473211,1.473681 1.4732138,1.4736838 0 0 1 -1.473211,1.473688 1.4732138,1.4736838 0 0 1 -1.473217,-1.473688 1.4732138,1.4736838 0 0 1 1.473217,-1.473681 z"
       id="path6" />
  </g>
</svg>
