<?xml version="1.0" encoding="UTF-8" standalone="no"?>
<svg
   width="62"
   height="62"
   viewBox="0 0 16.404166 16.404167"
   version="1.1"
   id="svg1443"
   inkscape:version="1.4 (e7c3feb100, 2024-10-09)"
   sodipodi:docname="atlauncher.svg"
   xmlns:inkscape="http://www.inkscape.org/namespaces/inkscape"
   xmlns:sodipodi="http://sodipodi.sourceforge.net/DTD/sodipodi-0.dtd"
   xmlns:xlink="http://www.w3.org/1999/xlink"
   xmlns="http://www.w3.org/2000/svg"
   xmlns:svg="http://www.w3.org/2000/svg"
   xmlns:rdf="http://www.w3.org/1999/02/22-rdf-syntax-ns#"
   xmlns:cc="http://creativecommons.org/ns#"
   xmlns:dc="http://purl.org/dc/elements/1.1/">
  <defs
     id="defs1437">
    <linearGradient
       gradientTransform="matrix(0.47123666,0,0,0.47123666,-53.994274,-17.905932)"
       gradientUnits="userSpaceOnUse"
       y2="70.679932"
       x2="132.21078"
       y1="42.151531"
       x1="132.21078"
       id="linearGradient1632"
       xlink:href="#linearGradient1630"
       inkscape:collect="always" />
    <linearGradient
       id="linearGradient1630"
       inkscape:collect="always">
      <stop
         id="stop1626"
         offset="0"
         style="stop-color:#fafafc;stop-opacity:1" />
      <stop
         id="stop1628"
         offset="1"
         style="stop-color:#e2e6ea;stop-opacity:1" />
    </linearGradient>
    <filter
       color-interpolation-filters="sRGB"
       height="1.1311001"
       width="1.1106"
       y="-0.065563001"
       x="-0.055319"
       id="c-9">
      <feGaussianBlur
         id="feGaussianBlur1093"
         stdDeviation="1.1062912" />
    </filter>
    <linearGradient
       gradientUnits="userSpaceOnUse"
       gradientTransform="matrix(0.13235,0,0,0.13075,-32.379,1.0873)"
       y2="269.48999"
       y1="235.14999"
       x2="657.65002"
       x1="319.20999"
       id="a-12">
      <stop
         id="stop1076"
         offset="0"
         stop-color="#e54c18" />
      <stop
         id="stop1078"
         offset="1"
         stop-color="#fec350" />
    </linearGradient>
    <filter
       id="filter3932"
       x="-0.08125"
       y="-0.069641436"
       width="1.1625"
       height="1.1392829"
       color-interpolation-filters="sRGB">
      <feGaussianBlur
         stdDeviation="1.421875"
         id="feGaussianBlur7" />
    </filter>
    <filter
       id="filter3936"
       x="-0.12184576"
       y="-0.1384724"
       width="1.2436915"
       height="1.2769448"
       color-interpolation-filters="sRGB">
      <feGaussianBlur
         stdDeviation="1.421875"
         id="feGaussianBlur10" />
    </filter>
  </defs>
  <sodipodi:namedview
     id="base"
     pagecolor="#ffffff"
     bordercolor="#666666"
     borderopacity="1.0"
     inkscape:pageopacity="0.0"
     inkscape:pageshadow="2"
     inkscape:zoom="8"
     inkscape:cx="32.875"
     inkscape:cy="43.125"
     inkscape:document-units="px"
     inkscape:current-layer="layer1"
     inkscape:document-rotation="0"
     showgrid="false"
     units="px"
     inkscape:window-width="1920"
     inkscape:window-height="998"
     inkscape:window-x="0"
     inkscape:window-y="0"
     inkscape:window-maximized="1"
     inkscape:pagecheckerboard="0"
     inkscape:showpageshadow="2"
     inkscape:deskcolor="#d1d1d1" />
  <metadata
     id="metadata1440">
    <rdf:RDF>
      <cc:Work
         rdf:about="">
        <dc:format>image/svg+xml</dc:format>
        <dc:type
           rdf:resource="http://purl.org/dc/dcmitype/StillImage" />
      </cc:Work>
    </rdf:RDF>
  </metadata>
  <g
     inkscape:label="Capa 1"
     inkscape:groupmode="layer"
     id="layer1">
    <rect
       ry="3.1148088"
       rx="3.1148088"
       y="1.2779329"
       x="1.1461798"
       height="14.047983"
       width="14.047983"
       id="rect1634"
       style="opacity:0.295;fill:none;fill-opacity:1;stroke:#000000;stroke-width:0.0471237;stroke-linecap:round;stroke-linejoin:round;stroke-miterlimit:4;stroke-dasharray:none;stroke-opacity:0.02" />
    <rect
       style="opacity:0.295;fill:none;fill-opacity:1;stroke:#000000;stroke-width:0.0942473;stroke-linecap:round;stroke-linejoin:round;stroke-miterlimit:4;stroke-dasharray:none;stroke-opacity:0.02"
       id="rect1638"
       width="14.047983"
       height="14.047983"
       x="1.1461798"
       y="1.2779329"
       rx="3.1148088"
       ry="3.1148088" />
    <rect
       ry="3.1148088"
       rx="3.1148088"
       y="1.2779329"
       x="1.1461798"
       height="14.047983"
       width="14.047983"
       id="rect1640"
       style="opacity:0.295;fill:none;fill-opacity:1;stroke:#000000;stroke-width:0.141371;stroke-linecap:round;stroke-linejoin:round;stroke-miterlimit:4;stroke-dasharray:none;stroke-opacity:0.02" />
    <rect
       style="opacity:0.295;fill:none;fill-opacity:1;stroke:#000000;stroke-width:0.188495;stroke-linecap:round;stroke-linejoin:round;stroke-miterlimit:4;stroke-dasharray:none;stroke-opacity:0.02"
       id="rect1642"
       width="14.047983"
       height="14.047983"
       x="1.1461798"
       y="1.2779329"
       rx="3.1148088"
       ry="3.1148088" />
    <rect
       ry="3.1148088"
       rx="3.1148088"
       y="1.2779329"
       x="1.1461798"
       height="14.047983"
       width="14.047983"
       id="rect1644"
       style="opacity:0.295;fill:none;fill-opacity:1;stroke:#000000;stroke-width:0.235618;stroke-linecap:round;stroke-linejoin:round;stroke-miterlimit:4;stroke-dasharray:none;stroke-opacity:0.02" />
    <rect
       style="opacity:0.295;fill:none;fill-opacity:1;stroke:#000000;stroke-width:0.282742;stroke-linecap:round;stroke-linejoin:round;stroke-miterlimit:4;stroke-dasharray:none;stroke-opacity:0.02"
       id="rect1646"
       width="14.047983"
       height="14.047983"
       x="1.1461798"
       y="1.2779329"
       rx="3.1148088"
       ry="3.1148088" />
    <rect
       ry="3.1148088"
       rx="3.1148088"
       y="1.2779329"
       x="1.1461798"
       height="14.047983"
       width="14.047983"
       id="rect1648"
       style="opacity:0.295;fill:none;fill-opacity:1;stroke:#000000;stroke-width:0.329866;stroke-linecap:round;stroke-linejoin:round;stroke-miterlimit:4;stroke-dasharray:none;stroke-opacity:0.02" />
    <rect
       style="opacity:0.295;fill:none;fill-opacity:1;stroke:#000000;stroke-width:0.376989;stroke-linecap:round;stroke-linejoin:round;stroke-miterlimit:4;stroke-dasharray:none;stroke-opacity:0.02"
       id="rect1650"
       width="14.047983"
       height="14.047983"
       x="1.1461798"
       y="1.2779329"
       rx="3.1148088"
       ry="3.1148088" />
    <rect
       ry="3.1148088"
       rx="3.1148088"
       y="1.2779329"
       x="1.1461798"
       height="14.047983"
       width="14.047983"
       id="rect1652"
       style="opacity:0.295;fill:none;fill-opacity:1;stroke:#000000;stroke-width:0.471237;stroke-linecap:round;stroke-linejoin:round;stroke-miterlimit:4;stroke-dasharray:none;stroke-opacity:0.02" />
    <rect
       style="opacity:0.295;fill:none;fill-opacity:1;stroke:#000000;stroke-width:0.565484;stroke-linecap:round;stroke-linejoin:round;stroke-miterlimit:4;stroke-dasharray:none;stroke-opacity:0.02"
       id="rect1654"
       width="14.047983"
       height="14.047983"
       x="1.1461798"
       y="1.2779329"
       rx="3.1148088"
       ry="3.1148088" />
    <rect
       ry="3.1148088"
       rx="3.1148088"
       y="1.2779329"
       x="1.1461798"
       height="14.047983"
       width="14.047983"
       id="rect1656"
       style="opacity:0.295;fill:none;fill-opacity:1;stroke:#000000;stroke-width:0.659731;stroke-linecap:round;stroke-linejoin:round;stroke-miterlimit:4;stroke-dasharray:none;stroke-opacity:0.02" />
    <rect
       style="opacity:0.295;fill:none;fill-opacity:1;stroke:#000000;stroke-width:0.753979;stroke-linecap:round;stroke-linejoin:round;stroke-miterlimit:4;stroke-dasharray:none;stroke-opacity:0.02"
       id="rect1658"
       width="14.047983"
       height="14.047983"
       x="1.1461798"
       y="1.2779329"
       rx="3.1148088"
       ry="3.1148088" />
    <rect
       ry="3.1148088"
       rx="3.1148088"
       y="1.2779329"
       x="1.1461798"
       height="14.047983"
       width="14.047983"
       id="rect1660"
       style="opacity:0.295;fill:none;fill-opacity:1;stroke:#000000;stroke-width:0.848226;stroke-linecap:round;stroke-linejoin:round;stroke-miterlimit:4;stroke-dasharray:none;stroke-opacity:0.02" />
    <rect
       style="opacity:0.295;fill:none;fill-opacity:1;stroke:#000000;stroke-width:0.942473;stroke-linecap:round;stroke-linejoin:round;stroke-miterlimit:4;stroke-dasharray:none;stroke-opacity:0.02"
       id="rect1662"
       width="14.047983"
       height="14.047983"
       x="1.1461798"
       y="1.2779329"
       rx="3.1148088"
       ry="3.1148088" />
    <rect
       ry="3.1148088"
       rx="3.1148088"
       y="1.2779329"
       x="1.1461798"
       height="14.047983"
       width="14.047983"
       id="rect1664"
       style="opacity:0.295;fill:none;fill-opacity:1;stroke:#000000;stroke-width:1.03672;stroke-linecap:round;stroke-linejoin:round;stroke-miterlimit:4;stroke-dasharray:none;stroke-opacity:0.02" />
    <rect
       style="opacity:0.295;fill:none;fill-opacity:1;stroke:#000000;stroke-width:1.22522;stroke-linecap:round;stroke-linejoin:round;stroke-miterlimit:4;stroke-dasharray:none;stroke-opacity:0.02"
       id="rect1666"
       width="14.047983"
       height="14.047983"
       x="1.1461798"
       y="1.2779329"
       rx="3.1148088"
       ry="3.1148088" />
    <rect
       ry="3.1148088"
       rx="3.1148088"
       y="1.2779329"
       x="1.1461798"
       height="14.047983"
       width="14.047983"
       id="rect1668"
       style="opacity:0.295;fill:none;fill-opacity:1;stroke:#000000;stroke-width:1.41371;stroke-linecap:round;stroke-linejoin:round;stroke-miterlimit:4;stroke-dasharray:none;stroke-opacity:0.02" />
    <rect
       style="opacity:0.295;fill:none;fill-opacity:1;stroke:#000000;stroke-width:1.6022;stroke-linecap:round;stroke-linejoin:round;stroke-miterlimit:4;stroke-dasharray:none;stroke-opacity:0.02"
       id="rect1670"
       width="14.047983"
       height="14.047983"
       x="1.1461798"
       y="1.2779329"
       rx="3.1148088"
       ry="3.1148088" />
    <rect
       ry="3.1148088"
       rx="3.1148088"
       y="1.2779329"
       x="1.1461798"
       height="14.047983"
       width="14.047983"
       id="rect1672"
       style="opacity:0.295;fill:none;fill-opacity:1;stroke:#000000;stroke-width:1.7907;stroke-linecap:round;stroke-linejoin:round;stroke-miterlimit:4;stroke-dasharray:none;stroke-opacity:0.02" />
    <rect
       style="opacity:0.295;fill:none;fill-opacity:1;stroke:#000000;stroke-width:1.97919;stroke-linecap:round;stroke-linejoin:round;stroke-miterlimit:4;stroke-dasharray:none;stroke-opacity:0.02"
       id="rect1674"
       width="14.047983"
       height="14.047983"
       x="1.1461798"
       y="1.2779329"
       rx="3.1148088"
       ry="3.1148088" />
    <rect
       ry="3.1148088"
       rx="3.1148088"
       y="1.2779329"
       x="1.1461798"
       height="14.047983"
       width="14.047983"
       id="rect1676"
       style="opacity:0.295;fill:none;fill-opacity:1;stroke:#000000;stroke-width:2.16769;stroke-linecap:round;stroke-linejoin:round;stroke-miterlimit:4;stroke-dasharray:none;stroke-opacity:0.02" />
    <rect
       style="opacity:0.295;fill:none;fill-opacity:1;stroke:#000000;stroke-width:2.35618;stroke-linecap:round;stroke-linejoin:round;stroke-miterlimit:4;stroke-dasharray:none;stroke-opacity:0.02"
       id="rect1678"
       width="14.047983"
       height="14.047983"
       x="1.1461798"
       y="1.2779329"
       rx="3.1148088"
       ry="3.1148088" />
    <rect
       ry="3.1148088"
       rx="3.1148088"
       y="1.2779326"
       x="1.1461804"
       height="14.047983"
       width="14.047983"
       id="rect849"
       style="fill:url(#linearGradient1632);fill-opacity:1;stroke-width:1.29803;stroke-linecap:round;stroke-linejoin:round" />
    <g
       id="g1"
       transform="translate(-0.62838479,0.27490813)">
      <path
         style="opacity:0.1;fill-rule:evenodd;stroke-width:0.243176"
         d="m 3.8984085,4.2023751 c 0.04459,-0.032935 -0.022157,-0.076672 -0.054447,-0.074503 -0.087499,0.00587 -0.1176784,0.1127542 -0.09377,0.1839774 0.042768,0.127401 0.1983558,0.1654783 0.3115601,0.1140358 C 4.2278821,4.3503916 4.274442,4.1387227 4.1948438,3.9834261 4.0887523,3.7764396 3.8215423,3.7207688 3.6261737,3.8298575 3.3803213,3.9671332 3.3160867,4.293454 3.4537574,4.5307986 3.6204928,4.8182546 4.0028331,4.8917613 4.2795395,4.7238997 4.6056279,4.5260806 4.6876421,4.0834305 4.491279,3.7644769 4.264569,3.3962321 3.766164,3.3048243 3.4083853,3.5318428 3.0018517,3.7897963 2.9020127,4.3493581 3.1573225,4.7497477 3.4437392,5.1989244 4.0585941,5.3082648 4.4973281,5.0219144 4.9844058,4.7040122 5.1020919,4.0272654 4.7877139,3.545528"
         id="path2" />
      <path
         style="opacity:0.1;stroke-width:0.243176"
         d="m 9.1101522,3.9512701 c 0.2311161,0.4704229 0.2154957,1.0515862 -0.079578,1.51434 -0.1029938,0.1615203 -0.2325391,0.2937745 -0.3761045,0.4028714 1.7110203,-0.017704 3.2485753,0.867957 3.5905243,2.6153374 2.25e-4,9.16e-4 4.77e-4,0.0024 0.0011,0.004 l 0.003,-0.0011 c 0.101142,0.519614 0.608162,0.858723 1.130207,0.755266 0.468039,-0.09258 0.790471,-0.509777 0.779687,-0.969562 -0.0098,-0.05365 -0.01689,-0.106641 -0.02744,-0.160967 C 13.639983,5.5999546 11.533523,4.1106915 9.1101522,3.9512701 Z"
         id="path3" />
      <path
         style="fill:#4062d0;stroke-width:0.243176"
         d="M 9.1101522,3.7074524 C 9.3412683,4.1778751 9.3256479,4.7590384 9.0305732,5.2217921 8.9275793,5.3833126 8.798034,5.5155655 8.6544686,5.6246636 10.36549,5.6069586 11.903044,6.4926243 12.244993,8.2399969 c 2.24e-4,9.15e-4 4.77e-4,0.0024 0.0011,0.004 l 0.003,-0.0011 c 0.101141,0.519622 0.608162,0.85873 1.130207,0.755263 0.468039,-0.09257 0.790471,-0.509775 0.779687,-0.969561 -0.0098,-0.05365 -0.01688,-0.106632 -0.02743,-0.160963 C 13.639983,5.3561366 11.533523,3.866873 9.1101522,3.7074524 Z"
         id="path4" />
      <path
         style="opacity:0.1;stroke-width:0.243176"
         d="M 8.6383633,5.8808625 C 8.2725942,6.1513943 7.8063431,6.2551441 7.361313,6.1723025 7.1520342,6.133345 6.9474309,6.0535605 6.7616303,5.9322937 6.7454446,5.9217314 6.733748,5.9071218 6.7180536,5.8961006 6.6355346,7.5274109 5.4666697,8.9610919 3.8020577,9.2905109 c -0.026947,0.0057 -0.05503,0.0093 -0.082424,0.01427 -0.482184,0.128299 -0.7888434,0.617242 -0.6906311,1.1209901 0.096587,0.491514 0.5442467,0.824841 1.0250517,0.780987 0.03956,-0.0071 0.079591,-0.0137 0.1193673,-0.02092 2.5853813,-0.511374 4.3882209,-2.7625961 4.4649409,-5.3049535 z"
         id="path5" />
      <path
         style="opacity:0.1;fill-rule:evenodd;stroke-width:0.243176"
         d="M 7.7528899,4.546186 C 7.6915231,4.5008631 7.7833912,4.4406634 7.8278234,4.4436484 7.9482433,4.4517536 7.9897811,4.5988298 7.9568771,4.696853 7.8980205,4.8721913 7.6838867,4.9245959 7.5280876,4.8537975 7.2994455,4.7498972 7.2353652,4.4585831 7.3449145,4.2448517 7.4909256,3.9599813 7.8586807,3.883363 8.1275605,4.0334994 8.4659192,4.2224297 8.5543237,4.6715358 8.3648522,4.9981861 8.1353779,5.3938049 7.6091729,5.4949707 7.2283506,5.2639469 6.7795642,4.9916931 6.6666888,4.3824856 6.9369393,3.9435172 7.2489541,3.436712 7.9348941,3.3109108 8.4272978,3.62335 8.9867966,3.9783643 9.1242024,4.7484753 8.7728278,5.2995205 8.3786385,5.9177101 7.5324311,6.0681916 6.9286132,5.674096 6.2582621,5.2365743 6.0962931,4.305187 6.5289639,3.6421844"
         id="path6" />
      <path
         style="fill:#4d8a17;stroke-width:0.243176"
         d="M 8.6383633,5.6370446 C 8.2725942,5.9075752 7.8063431,6.0113251 7.361313,5.9284846 7.1520342,5.889527 6.9474309,5.8097426 6.7616303,5.6884746 c -0.016186,-0.010562 -0.027883,-0.025171 -0.043576,-0.036192 -0.082519,1.6313203 -1.251384,3.0649873 -2.915996,3.3944063 -0.026947,0.0057 -0.05503,0.0093 -0.082424,0.01427 -0.482184,0.128299 -0.7888434,0.617245 -0.6906311,1.1210051 0.096587,0.4915 0.5442466,0.824827 1.0250517,0.780972 0.039558,-0.0071 0.079591,-0.0137 0.1193673,-0.02092 C 6.7588035,10.430649 8.5616431,8.1794209 8.638363,5.6370686 Z"
         id="path7" />
      <path
         style="opacity:0.1;stroke-width:0.243176"
         class="st0"
         d="m 7.2197672,10.721188 c 0.51587,0.102081 1.0198551,-0.24173 1.1225145,-0.7664451 C 8.4366477,9.4727379 8.1593906,9.0031169 7.713164,8.8513299 7.67,8.8448299 7.62714,8.8373499 7.5846483,8.8291799 5.8537271,8.4867189 4.927558,6.9516839 4.9333963,5.2403945 4.6547949,5.5254642 4.2413502,5.6686867 3.8207496,5.5850911 3.4731747,5.5164508 3.1894316,5.3059371 3.0150414,5.0262932 2.9045046,7.7275749 4.495286,10.188116 7.2139522,10.725447 c 0.00118,4.66e-4 0.00312,4.66e-4 0.00499,4.66e-4 z"
         id="path8" />
      <path
         style="fill:#06aff2;stroke-width:0.243176"
         class="st0"
         d="M 7.2197672,10.477364 C 7.7356372,10.579446 8.2396223,10.235635 8.3422817,9.7109209 8.4366467,9.2289169 8.1593906,8.7592939 7.713164,8.6075079 7.670004,8.6009079 7.627138,8.5935279 7.5846483,8.5853679 5.8537271,8.2428979 4.927558,6.7078619 4.9333963,4.9965768 4.6547949,5.2816451 4.2413502,5.4248688 3.8207496,5.3412732 3.4731747,5.2726328 3.1894316,5.0621186 3.0150414,4.7824753 2.9045046,7.4837669 4.495286,9.9443099 7.2139522,10.481625 c 0.00118,4.67e-4 0.00312,4.67e-4 0.00499,4.67e-4 z"
         id="path9" />
      <path
         style="opacity:0.1;stroke-width:0.243176"
         class="st2"
         d="m 13.610183,4.8625368 c 0.479919,-0.042788 0.927022,0.289833 1.022756,0.7806657 0.09862,0.5051807 -0.209657,0.9955599 -0.69337,1.1229664 -0.01534,0.00265 -0.02997,0.00434 -0.0445,0.00739 -1.73231,0.342639 -2.934363,1.782748 -2.925839,3.4957481 C 10.689745,9.9919159 10.281716,9.8535989 9.8664912,9.9356789 9.5128692,10.005069 9.2248378,10.222006 9.0522563,10.508418 8.9268903,7.7959239 10.795799,5.4162788 13.524104,4.8771029 c 0.02854,-0.00545 0.0573,-0.00901 0.08608,-0.014359"
         id="path10" />
      <path
         style="opacity:0.1;fill-rule:evenodd;stroke-width:0.243176"
         d="m 9.9882982,11.378579 c 0.073633,0.05441 -0.036601,0.126624 -0.089923,0.123043 -0.1445027,-0.01 -0.1943477,-0.186224 -0.1548636,-0.303845 0.070633,-0.210415 0.3275874,-0.273295 0.5145464,-0.188337 0.274374,0.124686 0.351265,0.474264 0.219805,0.730731 -0.175207,0.341855 -0.6165142,0.433785 -0.9391707,0.253632 -0.40603,-0.226728 -0.5121163,-0.765655 -0.2847501,-1.157635 0.2753698,-0.474737 0.9068158,-0.596139 1.3638078,-0.31891 0.538543,0.326712 0.673994,1.057756 0.349685,1.584522 -0.374409,0.608156 -1.1975429,0.759123 -1.7884273,0.384195 C 8.5076096,12.059962 8.3427219,11.135828 8.7643712,10.474578 9.2373987,9.7327389 10.25285,9.5521689 10.977424,10.025077 c 0.80443,0.525032 0.998788,1.642689 0.479585,2.438293"
         id="path11" />
      <path
         style="fill:#00b7b7;stroke-width:0.243176"
         class="st2"
         d="m 13.610183,4.6187193 c 0.479919,-0.042787 0.927022,0.2898326 1.022756,0.7806654 0.09862,0.5051807 -0.209657,0.9955572 -0.69337,1.1229645 -0.01534,0.00248 -0.02997,0.00417 -0.0445,0.0071 -1.732311,0.3426477 -2.934364,1.7827507 -2.92584,3.4957548 C 10.689745,9.7478829 10.281715,9.6095739 9.8664909,9.6916549 9.5128685,9.7610349 9.2248371,9.9779769 9.0522555,10.264392 8.9268897,7.5518909 10.795799,5.1722463 13.524104,4.6330702 c 0.02854,-0.00544 0.0573,-0.00901 0.08608,-0.014356"
         id="path12" />
      <path
         style="fill:#4062d0;fill-rule:evenodd;stroke-width:0.243176"
         d="m 9.9882982,11.134758 c 0.073633,0.05441 -0.036601,0.126622 -0.089923,0.123041 -0.1445025,-0.0099 -0.1943475,-0.186223 -0.1548634,-0.303846 0.070633,-0.2104 0.3275872,-0.273294 0.5145462,-0.188336 0.274374,0.124685 0.351265,0.474265 0.219805,0.730733 -0.175207,0.341854 -0.6165143,0.433786 -0.9391707,0.25363 -0.4060299,-0.226711 -0.5121162,-0.765639 -0.28475,-1.15762 0.2753698,-0.474752 0.9068157,-0.5961451 1.3638077,-0.318924 0.538543,0.326712 0.673994,1.057756 0.349685,1.58452 C 10.593026,12.466129 9.7698922,12.61708 9.1790078,12.242162 8.5076094,11.816139 8.3427217,10.892005 8.764371,10.230755 9.2373985,9.4889319 10.25285,9.3083449 10.977424,9.7812689 c 0.80443,0.5250161 0.998788,1.6426901 0.479585,2.4382941"
         id="path13" />
      <path
         style="fill:#06aff2;fill-rule:evenodd;stroke-width:0.243176"
         d="m 7.7528899,4.3023592 c -0.061366,-0.045324 0.0305,-0.1055227 0.074932,-0.1025378 0.1204204,0.0081 0.161958,0.1551816 0.1290535,0.2532036 C 7.898021,4.6283642 7.683887,4.680769 7.5280879,4.6099705 7.2994455,4.5060701 7.2353652,4.2147561 7.3449145,4.0010246 7.4909256,3.7161544 7.8586807,3.6395357 8.1275605,3.7896722 8.4659192,3.9786029 8.5543237,4.4277087 8.3648522,4.7543591 8.1353779,5.1499776 7.6091729,5.2511438 7.2283506,5.02012 6.7795642,4.7478655 6.6666888,4.1386588 6.9369393,3.6996903 7.2489541,3.1928849 7.9348941,3.0670837 8.4272978,3.379523 8.9867966,3.7345371 9.1242024,4.5046483 8.7728278,5.0556934 8.3786385,5.6738831 7.5324311,5.8243648 6.9286132,5.4302689 6.2582621,4.9927474 6.0962931,4.06136 6.5289639,3.3983576"
         id="path14" />
      <path
         style="fill:#00b7b7;fill-rule:evenodd;stroke-width:0.243176"
         d="M 3.8984085,3.958548 C 3.9429985,3.925615 3.8762505,3.881875 3.8439615,3.884044 3.7564625,3.889884 3.7262829,3.996798 3.7501925,4.0680215 3.7929625,4.1954227 3.9485479,4.2335 4.0617523,4.1820576 4.2278824,4.1065642 4.2744424,3.8948955 4.1948441,3.7395988 4.0887523,3.5326128 3.8215423,3.4769414 3.6261737,3.5860305 3.3803213,3.7233062 3.3160867,4.0496272 3.4537574,4.2869715 3.6204928,4.5744275 4.0028331,4.6479344 4.2795395,4.4800729 4.6056279,4.2822537 4.6876421,3.8396037 4.491279,3.5206499 4.264569,3.1524052 3.766164,3.0609971 3.4083853,3.2880159 3.0018517,3.5459691 2.9020127,4.105531 3.1573225,4.5059205 3.4437392,4.9550975 4.0585941,5.0644378 4.4973281,4.7780875 4.9844058,4.460185 5.1020919,3.7834381 4.7877139,3.3017009"
         id="path15" />
    </g>
  </g>
</svg>
