<?xml version="1.0" encoding="UTF-8" standalone="no"?>
<svg
   width="62"
   height="62"
   version="1.1"
   id="svg13"
   sodipodi:docname="basilisk2.svg"
   inkscape:version="1.4 (e7c3feb100, 2024-10-09)"
   xmlns:inkscape="http://www.inkscape.org/namespaces/inkscape"
   xmlns:sodipodi="http://sodipodi.sourceforge.net/DTD/sodipodi-0.dtd"
   xmlns="http://www.w3.org/2000/svg"
   xmlns:svg="http://www.w3.org/2000/svg">
  <defs
     id="defs13" />
  <sodipodi:namedview
     id="namedview13"
     pagecolor="#ffffff"
     bordercolor="#000000"
     borderopacity="0.25"
     inkscape:showpageshadow="2"
     inkscape:pageopacity="0.0"
     inkscape:pagecheckerboard="0"
     inkscape:deskcolor="#d1d1d1"
     inkscape:zoom="11.75"
     inkscape:cx="32"
     inkscape:cy="32"
     inkscape:window-width="1920"
     inkscape:window-height="998"
     inkscape:window-x="0"
     inkscape:window-y="0"
     inkscape:window-maximized="1"
     inkscape:current-layer="svg13" />
  <g
     id="g13"
     transform="matrix(1.0018717,0,0,0.98245614,-1.016845,-0.92982455)">
    <path
       d="m 13.625042,53 c 2.123191,4.549734 4.748501,8 7.374989,8 5.999992,0 7.999989,-2 11.999984,-2 3.999994,0 5.999991,2 11.999982,2 2.622015,0 5.220719,-3.462688 7.335928,-8 z"
       style="opacity:0.2"
       id="path1" />
    <path
       d="m 13.625042,52 c 2.123191,4.549734 4.748501,8 7.374989,8 5.999992,0 7.999989,-2 11.999984,-2 3.999994,0 5.999991,2 11.999982,2 2.622015,0 5.220719,-3.462688 7.335928,-8 z"
       style="fill:#009bda"
       id="path2" />
    <path
       d="m 10.734422,45 c 0.775725,2.745146 1.736979,5.52789 2.89062,8 h 38.710883 c 0.976859,-2.09545 1.861374,-4.399126 2.578121,-6.734376 A 11.999983,12 0 0 1 52.414049,45 Z"
       style="opacity:0.2"
       id="path3" />
    <path
       d="m 10.734422,44 c 0.775725,2.745146 1.736979,5.52789 2.89062,8 h 38.710883 c 0.976859,-2.09545 1.861374,-4.399126 2.578121,-6.734376 A 11.999983,12 0 0 1 52.414049,44 Z"
       style="fill:#953c96"
       id="path4" />
    <path
       d="m 9.3789526,39 c 0.289078,1.86455 0.7644914,3.908646 1.3554694,6 h 41.679627 a 11.999983,12 0 0 1 -4.714837,-6 z"
       style="opacity:0.2"
       id="path5" />
    <path
       d="m 9.3789526,38 c 0.289078,1.86455 0.7644914,3.908646 1.3554694,6 h 41.679627 a 11.999983,12 0 0 1 -4.714837,-6 z"
       style="fill:#de393d"
       id="path6" />
    <path
       d="m 9.4961406,31 c -0.311859,1.309432 -0.496093,2.652322 -0.496093,4 0,1.14556 0.15046,2.526556 0.378905,4 H 47.699212 a 11.999983,12 0 0 1 -0.699217,-4 11.999983,12 0 0 1 0.703123,-4 z"
       style="opacity:0.2"
       id="path7" />
    <path
       d="m 9.4961406,30 c -0.311859,1.309432 -0.496093,2.652322 -0.496093,4 0,1.14556 0.15046,2.526556 0.378905,4 H 47.699212 a 11.999983,12 0 0 1 -0.699217,-4 11.999983,12 0 0 1 0.703123,-4 z"
       style="fill:#f4811e"
       id="path8" />
    <path
       d="m 12.058638,25 c -1.157945,1.781458 -2.047533,3.837778 -2.5624974,6 H 47.703118 a 11.999983,12 0 0 1 4.679681,-6 z"
       style="opacity:0.2"
       id="path9" />
    <path
       d="m 12.058638,24 c -1.157945,1.781458 -2.047533,3.837778 -2.5624974,6 H 47.703118 a 11.999983,12 0 0 1 4.679681,-6 z"
       style="fill:#fbb625"
       id="path10" />
    <path
       d="M 43,5 C 43,5 39.000006,5 35.000012,8.9999999 31.000017,13 31.000017,19 31.000017,19 c 0,0 5.999992,0 9.999986,-6 C 42.568931,10.646606 43,4.9999999 43,5 Z M 21.000031,19 c -3.320205,0 -6.63789,2.45614 -8.941393,6 h 40.324161 a 11.999983,12 0 0 1 1.105469,-0.65625 C 51.213801,21.158846 48.110157,19 44.999997,19 37.000009,19 37.000009,21 33.000015,21 29.00002,21 29.00002,19 21.000031,19 Z"
       style="opacity:0.2"
       id="path11" />
    <path
       d="m 43,4 c 0,0 -3.999994,0 -7.999988,4 -3.999995,4 -3.999995,10 -3.999995,10 0,0 5.999992,0 9.999986,-6 C 42.568931,9.6466059 43,4 43,4 Z M 21.000031,18 c -3.320205,0 -6.63789,2.45614 -8.941393,6 h 40.324161 a 11.999983,12 0 0 1 1.105469,-0.65625 C 51.213801,20.158846 48.110157,18 44.999997,18 37.000009,18 37.000009,20 33.000015,20 29.00002,20 29.00002,18 21.000031,18 Z"
       style="fill:#60ba45"
       id="path12" />
    <path
       d="m 43,4 c 0,0 -4.000006,0 -8,4 -3.999995,4 -4,10 -4,10 0,0 0.05233,-0.0018 0.0625,-0.002 C 31.25027,16.122291 32.000869,11.999135 35,9 38.846562,5.1534324 42.605097,5.0154252 42.894531,5.0097656 42.965371,4.4025305 43,4 43,4 Z M 21,18 C 15.000008,18 9,26 9,34 9,34.160794 9.016685,34.348931 9.021484,34.517578 9.2557552,26.681762 15.120765,19 21,19 c 7.999989,0 8.000005,2 12,2 3.999994,0 4.000011,-2 12,-2 2.875869,0 5.736845,1.8582 7.951172,4.654297 A 11.999984,12 0 0 1 53.488281,23.34375 C 51.213814,20.158846 48.11016,18 45,18 37.000011,18 36.999994,20 33,20 29.000005,20 28.999989,18 21,18 Z M 47.023438,34.533203 A 11.999984,12 0 0 0 47,35 11.999984,12 0 0 0 54.621094,46.142578 c 0.09504,-0.293431 0.202718,-0.582907 0.292968,-0.876953 A 11.999984,12 0 0 1 47.023438,34.533203 Z"
       style="opacity:0.2;fill:#ffffff"
       id="path13" />
  </g>
</svg>
