<?xml version="1.0" encoding="UTF-8" standalone="no"?>
<svg
   width="62"
   height="62"
   version="1"
   id="svg7"
   sodipodi:docname="bauh.svg"
   inkscape:version="1.4 (e7c3feb100, 2024-10-09)"
   xmlns:inkscape="http://www.inkscape.org/namespaces/inkscape"
   xmlns:sodipodi="http://sodipodi.sourceforge.net/DTD/sodipodi-0.dtd"
   xmlns="http://www.w3.org/2000/svg"
   xmlns:svg="http://www.w3.org/2000/svg">
  <defs
     id="defs7" />
  <sodipodi:namedview
     id="namedview7"
     pagecolor="#ffffff"
     bordercolor="#000000"
     borderopacity="0.25"
     inkscape:showpageshadow="2"
     inkscape:pageopacity="0.0"
     inkscape:pagecheckerboard="0"
     inkscape:deskcolor="#d1d1d1"
     inkscape:zoom="5.875"
     inkscape:cx="66.723404"
     inkscape:cy="9.8723404"
     inkscape:window-width="1920"
     inkscape:window-height="998"
     inkscape:window-x="0"
     inkscape:window-y="0"
     inkscape:window-maximized="1"
     inkscape:current-layer="svg7" />
  <g
     id="g8"
     transform="translate(-0.322033,0.5)">
    <path
       style="opacity:0.2;stroke-width:0.955324"
       d="m 31.471228,3.949153 v 0.00273 A 6.341217,6.2591223 0 0 0 28.150923,4.7851369 L 9.4931501,15.418933 A 6.341217,6.2591223 0 0 0 6.322035,20.840676 V 42.10829 a 6.341217,6.2591223 0 0 0 3.1711151,5.41905 L 28.150923,58.161147 a 6.341217,6.2591223 0 0 0 6.342224,0 L 53.150922,47.52734 a 6.341217,6.2591223 0 0 0 3.171113,-5.41905 V 20.840676 A 6.341217,6.2591223 0 0 0 53.150922,15.418933 L 34.493147,4.7851275 A 6.341217,6.2591223 0 0 0 31.471228,3.949153 Z"
       id="path1" />
    <path
       style="fill:#a86743;stroke-width:0.955324"
       d="M 31.471228,3 V 3.00273 A 6.341217,6.2591223 0 0 0 28.150923,3.8359792 L 9.4931501,14.469781 a 6.341217,6.2591223 0 0 0 -3.171115,5.421743 v 21.267614 a 6.341217,6.2591223 0 0 0 3.171115,5.41905 L 28.150923,57.211995 a 6.341217,6.2591223 0 0 0 6.342224,0 L 53.150922,46.578188 a 6.341217,6.2591223 0 0 0 3.171113,-5.41905 V 19.891524 A 6.341217,6.2591223 0 0 0 53.150922,14.469781 L 34.493147,3.8359745 A 6.341217,6.2591223 0 0 0 31.471228,3 Z"
       id="path2" />
    <path
       style="fill:#cc8342;stroke-width:0.955324"
       d="m 31.322033,3.005376 a 6.341217,6.2591223 0 0 0 -3.17111,0.8305985 L 9.4931501,14.469781 a 6.341217,6.2591223 0 0 0 -3.171115,5.421743 v 21.267614 a 6.341217,6.2591223 0 0 0 3.171115,5.41905 L 28.150923,57.211995 a 6.341217,6.2591223 0 0 0 3.17111,0.833287 z"
       id="path3" />
    <path
       style="opacity:0.5;fill:#2e0000;stroke-width:0.955324"
       d="M 31.470402,3 V 3.00187 C 30.307044,2.97396 29.158343,3.262565 28.150084,3.8360858 L 9.4939854,14.469546 c -1.4051506,0.803671 -2.44436,2.10884 -2.9033959,3.646449 0.45995,1.540935 1.4990552,2.84863 2.9033959,3.653865 L 28.150084,32.53193 c 1.962662,1.122613 4.381246,1.122613 6.343903,0 L 53.150089,21.76986 c 1.406969,-0.808314 2.446409,-2.121082 2.903396,-3.666843 -0.462005,-1.532788 -1.500881,-2.832889 -2.903396,-3.633471 L 34.493987,3.8360698 C 33.573069,3.3115901 32.533335,3.0240862 31.470402,3 Z"
       id="path4" />
    <path
       style="opacity:0.1;fill:#ffffff;stroke-width:0.955324"
       d="M 31.470402,3 V 3.00187 C 30.307044,2.97396 29.158343,3.262565 28.150084,3.8360858 L 9.4939854,14.469546 c -1.4051506,0.803671 -2.44436,2.10884 -2.9033959,3.646449 0.048115,0.161204 0.1065923,0.318786 0.1671426,0.47458 0.5177341,-1.329973 1.4785342,-2.452533 2.7362533,-3.171877 L 28.150084,4.7852224 c 1.008259,-0.5735212 2.15696,-0.8621279 3.320318,-0.8342159 v -0.00186 c 1.062933,0.024086 2.102667,0.3115902 3.023585,0.8360698 L 53.150089,15.418698 c 1.255448,0.716631 2.216498,1.835007 2.736246,3.160754 0.06032,-0.156386 0.11931,-0.314633 0.16715,-0.476435 -0.462005,-1.532788 -1.500881,-2.832889 -2.903396,-3.633471 L 34.493987,3.8360698 C 33.573069,3.3115901 32.533335,3.0240862 31.470402,3 Z"
       id="path5" />
  </g>
  <g
     id="g9"
     transform="matrix(0.97552814,0,0,0.9783164,-53.544208,57.006354)">
    <rect
       style="opacity:0.2;stroke-width:0.949152"
       width="25.627117"
       height="25.627117"
       x="90.765411"
       y="-22.56712"
       rx="12.813559"
       ry="12.813559"
       id="rect4" />
    <rect
       style="fill:#206fe4;stroke-width:0.949152"
       width="25.627117"
       height="25.627117"
       x="90.765411"
       y="-23.516272"
       rx="12.813559"
       ry="12.813559"
       id="rect5" />
    <path
       style="opacity:0.2;fill:#ffffff;stroke-width:0.949152"
       d="m 103.57897,-23.516271 c -7.098715,0 -12.813564,5.714848 -12.813564,12.813562 0,0.160197 0.01835,0.315839 0.02413,0.474572 0.24996,-6.875308 5.850947,-12.338981 12.789464,-12.338981 6.93851,0 12.5395,5.463673 12.78945,12.338981 0.006,-0.158733 0.0241,-0.314375 0.0241,-0.474572 -6e-5,-7.098714 -5.71491,-12.813562 -12.81361,-12.813562 z"
       id="path7" />
    <g
       id="g7"
       transform="translate(-1.0258505,-1.151543)">
      <circle
         cx="104.60484"
         cy="-9.5531225"
         r="6.7105584"
         opacity="0.15"
         id="circle5"
         style="stroke-width:1.95073;paint-order:stroke markers fill" />
      <path
         d="m 104.60482,-15.229785 a 5.6766642,5.6766642 0 0 0 -5.676664,5.6766661 5.6766642,5.6766642 0 0 0 5.676664,5.676663 5.6766642,5.6766642 0 0 0 5.67667,-5.676663 5.6766642,5.6766642 0 0 0 -5.67667,-5.6766661 z m 0,2.580836 a 3.0958302,3.0958302 0 0 1 3.09583,3.0958301 3.0958302,3.0958302 0 0 1 -3.09583,3.0977795 3.0958302,3.0958302 0 0 1 -3.09778,-3.0977795 3.0958302,3.0958302 0 0 1 3.09778,-3.0958301 z"
         id="path5-6"
         style="fill:#ffffff;stroke-width:1.95073;paint-order:stroke markers fill" />
      <path
         d="m 103.57286,-17.55117 h 2.06391 v 3.612779 h -2.06391 z m 0,12.3872221 h 2.06391 V -1.55117 h -2.06391 z m 9.03196,-5.4191651 v 2.0638869 h -3.61278 v -2.0638869 z m -12.38722,0 v 2.0638869 h -3.612779 v -2.0638869 z m 10.77199,5.9614724 -1.45719,1.4572061 -2.55548,-2.5554746 1.45917,-1.4572062 z m -8.75884,-8.7588384 -1.45719,1.457206 -2.555474,-2.555475 1.459156,-1.457206 z m -2.553508,10.2160445 -1.459156,-1.4591571 2.555474,-2.5554746 1.45916,1.461108 z m 8.758848,-8.7588385 -1.45917,-1.459158 2.55548,-2.555474 1.45915,1.461107 z"
         id="path6"
         style="fill:#ffffff;stroke-width:1.95073;paint-order:stroke markers fill" />
    </g>
  </g>
</svg>
