<?xml version="1.0" encoding="UTF-8" standalone="no"?>
<svg
   width="62"
   height="62"
   version="1.1"
   id="svg7"
   sodipodi:docname="bcloud.svg"
   inkscape:version="1.4 (e7c3feb100, 2024-10-09)"
   xmlns:inkscape="http://www.inkscape.org/namespaces/inkscape"
   xmlns:sodipodi="http://sodipodi.sourceforge.net/DTD/sodipodi-0.dtd"
   xmlns:xlink="http://www.w3.org/1999/xlink"
   xmlns="http://www.w3.org/2000/svg"
   xmlns:svg="http://www.w3.org/2000/svg">
  <defs
     id="defs7">
    <linearGradient
       inkscape:collect="always"
       xlink:href="#linearGradient8"
       id="linearGradient10"
       x1="31.5"
       y1="59.017544"
       x2="31.5"
       y2="4.9824562"
       gradientUnits="userSpaceOnUse"
       gradientTransform="translate(-0.5,-0.5087719)" />
    <linearGradient
       id="linearGradient8"
       inkscape:collect="always">
      <stop
         style="stop-color:#2d3d53;stop-opacity:1;"
         offset="0"
         id="stop8" />
      <stop
         style="stop-color:#0b93d3;stop-opacity:1;"
         offset="1"
         id="stop10" />
    </linearGradient>
    <linearGradient
       id="paint3_linear_332_93"
       x1="37.304401"
       y1="24.2272"
       x2="23.255199"
       y2="12.9039"
       gradientUnits="userSpaceOnUse"
       gradientTransform="matrix(1,0,0,1.0089403,-0.9999998,-0.28624446)">
      <stop
         stop-color="#731FFF"
         id="stop9" />
      <stop
         offset="0.905415"
         stop-color="#EB1AFF"
         id="stop10-5" />
    </linearGradient>
    <linearGradient
       id="paint1_linear_332_93"
       x1="2"
       y1="61.696899"
       x2="14.6751"
       y2="28.2421"
       gradientUnits="userSpaceOnUse"
       gradientTransform="matrix(0.91578336,0,0,1,1.7216248,-7.2011443)">
      <stop
         stop-color="#731FFF"
         id="stop5" />
      <stop
         offset="0.905415"
         stop-color="#EB1AFF"
         id="stop6" />
    </linearGradient>
    <linearGradient
       id="paint2_linear_332_93"
       x1="54.645401"
       y1="46.748501"
       x2="26.243099"
       y2="10.4978"
       gradientUnits="userSpaceOnUse"
       gradientTransform="matrix(0.91578336,0,0,1,1.7216248,-7.2011443)">
      <stop
         offset="0.118093"
         stop-color="#731FFF"
         id="stop7" />
      <stop
         offset="0.905415"
         stop-color="#EB1AFF"
         id="stop8-3" />
    </linearGradient>
    <linearGradient
       id="linearGradient4"
       x1="16"
       x2="47"
       y1="16"
       y2="48"
       gradientUnits="userSpaceOnUse"
       gradientTransform="matrix(1.1935485,0,0,1.1875,-6.5967725,-6.999994)">
      <stop
         stop-color="#ffffff"
         offset="0"
         id="stop1" />
      <stop
         stop-color="#ffffff"
         offset=".45161"
         id="stop2" />
      <stop
         stop-color="#fef0cb"
         offset=".59375"
         id="stop3" />
      <stop
         stop-color="#ffbcc3"
         offset="1"
         id="stop4" />
    </linearGradient>
    <filter
       id="a"
       color-interpolation-filters="sRGB"
       x="-1.4942099"
       y="-1.222743"
       width="3.9884199"
       height="3.445486">
      <feColorMatrix
         result="result7"
         values="1 0 0 0 0 0 1 0 0 0 0 0 1 0 0 0 0 0 1 0"
         id="feColorMatrix1" />
      <feGaussianBlur
         result="result6"
         stdDeviation="5"
         id="feGaussianBlur1" />
      <feComposite
         in="result6"
         in2="result7"
         operator="atop"
         result="result91"
         id="feComposite1" />
      <feComposite
         in2="result91"
         operator="in"
         id="feComposite2" />
    </filter>
  </defs>
  <sodipodi:namedview
     id="namedview7"
     pagecolor="#ffffff"
     bordercolor="#000000"
     borderopacity="0.25"
     inkscape:showpageshadow="2"
     inkscape:pageopacity="0.0"
     inkscape:pagecheckerboard="0"
     inkscape:deskcolor="#d1d1d1"
     inkscape:zoom="8.3085046"
     inkscape:cx="36.16776"
     inkscape:cy="40.861745"
     inkscape:window-width="1920"
     inkscape:window-height="998"
     inkscape:window-x="0"
     inkscape:window-y="0"
     inkscape:window-maximized="1"
     inkscape:current-layer="svg7"
     showgrid="false">
    <inkscape:grid
       id="grid1"
       units="px"
       originx="0"
       originy="0"
       spacingx="1"
       spacingy="1"
       empcolor="#0099e5"
       empopacity="0.30196078"
       color="#0099e5"
       opacity="0.14901961"
       empspacing="5"
       enabled="true"
       visible="false" />
  </sodipodi:namedview>
  <g
     id="g7"
     transform="translate(0,-0.4912281)">
    <rect
       style="opacity:0.2;stroke-width:0.9823"
       width="55"
       height="55.017544"
       x="3.5"
       y="4.4736843"
       rx="8.25"
       ry="8.2526312"
       id="rect1" />
    <rect
       style="fill:url(#linearGradient10);stroke-width:0.9823"
       width="55"
       height="55.017544"
       x="3.5"
       y="3.4912281"
       rx="8.25"
       ry="8.2526312"
       id="rect2" />
    <path
       style="opacity:0.1;fill:#ffffff;stroke-width:0.9823"
       d="M 11.748466,3.4912281 C 7.1779652,3.4912281 3.5,7.1703661 3.5,11.742325 v 0.982456 c 0,-4.5719589 3.6779652,-8.2510969 8.248466,-8.2510969 h 38.503068 c 4.5705,0 8.248466,3.679138 8.248466,8.2510969 v -0.982456 c 0,-4.5719589 -3.677966,-8.2510969 -8.248466,-8.2510969 z"
       id="path4-3" />
  </g>
  <g
     id="g1"
     transform="matrix(1.0238354,0,0,1.0194844,-5.7414432,-10.006592)">
    <circle
       cx="48.831219"
       cy="37.062881"
       r="5.2498674"
       opacity="0.25"
       id="circle3"
       style="fill:#ffffff;stroke-width:3.7796;paint-order:stroke markers fill" />
    <circle
       cx="48.831219"
       cy="37.062881"
       r="5.2498674"
       opacity="0.25"
       id="circle4"
       style="fill:#ffffff;stroke-width:3.7796;paint-order:stroke markers fill" />
    <circle
       cx="37.163589"
       cy="37.667629"
       r="11.667631"
       id="circle5"
       style="fill:#ffffff;stroke-width:3.7796;paint-order:stroke markers fill" />
    <circle
       cx="36.830982"
       cy="39.670818"
       r="10.000827"
       id="circle6"
       style="fill:#ffffff;stroke-width:3.7796;paint-order:stroke markers fill" />
    <circle
       cx="24.331837"
       cy="42.316586"
       r="9.3318377"
       id="circle7"
       style="fill:#ffffff;stroke-width:3.7796;paint-order:stroke markers fill" />
    <circle
       cx="25.83234"
       cy="43.677185"
       r="8.0014181"
       id="circle8"
       style="fill:#ffffff;stroke-width:3.7796;paint-order:stroke markers fill" />
    <circle
       cx="49.999115"
       cy="44.65992"
       r="6.9998231"
       id="circle9"
       style="fill:#ffffff;stroke-width:3.7796;paint-order:stroke markers fill" />
    <circle
       cx="47.833405"
       cy="45.68037"
       r="5.9982285"
       id="circle10"
       style="fill:#ffffff;stroke-width:3.7796;paint-order:stroke markers fill" />
    <path
       d="M 24.331838,38.839345 H 49.999115 V 51.671094 H 24.331838 Z"
       id="path10"
       style="fill:#ffffff;stroke-width:3.7796;paint-order:stroke markers fill" />
    <path
       d="M 25.83234,40.653554 H 47.833403 V 51.652196 H 25.83234 Z"
       id="path11"
       style="fill:#ffffff;stroke-width:3.7796;paint-order:stroke markers fill" />
    <path
       d="m 35.863404,32.882692 a 5.3897125,5.3897125 0 1 0 0,10.779425 5.3897125,5.3897125 0 0 0 0,-10.779425 z m 0.02268,2.366031 a 3.0425796,3.0425796 0 0 1 3.042579,3.04258 3.0425796,3.0425796 0 0 1 -3.042579,3.042579 3.0425796,3.0425796 0 0 1 -3.04258,-3.042579 3.0425796,3.0425796 0 0 1 3.04258,-3.04258 z"
       fill="#1793e6"
       id="path12"
       style="stroke-width:3.7796" />
    <path
       d="m 41.959902,38.665483 c -1.413571,0 -2.675958,0.559381 -3.635977,1.443808 l 1.542077,1.783972 a 3.2164413,3.2164413 0 0 1 0.408197,-0.340164 2.706195,2.706195 0 0 1 1.345539,-0.480009 c 0.166302,-0.01512 0.340164,-0.0076 0.529144,0 a 2.8384811,2.8384811 0 0 1 2.505876,1.636567 3.1332901,3.1332901 0 0 1 0.321266,1.5194 v 0.0076 a 1.1830154,1.1830154 0 0 0 2.362252,0 v -0.19276 a 3.3751846,3.3751846 0 0 0 -0.01512,-0.275911 l -0.0038,-0.0378 -0.0038,-0.09449 h -0.0038 A 5.3708144,5.3708144 0 0 0 41.95606,38.665519 m -12.298825,-0.01512 a 5.3897125,5.3897125 0 1 0 0,10.779425 5.3897125,5.3897125 0 0 0 0,-10.779425 z m 0.02268,2.366031 a 3.0425796,3.0425796 0 0 1 3.0388,3.042579 3.0425796,3.0425796 0 0 1 -3.0388,3.04258 3.0425796,3.0425796 0 0 1 -3.04258,-3.04258 3.0425796,3.0425796 0 0 1 3.04258,-3.042579 z"
       fill="#1793e6"
       id="path13"
       style="stroke-width:3.7796" />
    <path
       transform="matrix(0.77005611,0,0,0.77005611,24.267585,32.867574)"
       d="m 6.973,7.471 c -0.365,0 -0.744,0.04 -1.094,0.094 a 2.842,2.842 0 0 1 1.719,2.594 c 0,0.16 -0.036,0.316 -0.063,0.469 a 3.839,3.839 0 0 1 2.938,2.063 c 0.791,1.577 0.522,3.357 -0.719,4.594 0.962,-0.959 2.934,-2.702 4.156,-3.844 C 13.398,10.066 10.501,7.472 6.972,7.472 Z"
       fill="#ff4444"
       filter="url(#a)"
       id="path14" />
    <path
       d="m 31.996871,48.212758 -2.4643,0.09827 8.674186,-8.050553 1.549637,1.738617 -6.727692,6.247682 z"
       fill="#1793e6"
       id="path15"
       style="stroke-width:3.7796" />
    <circle
       cx="46.211956"
       cy="47.381237"
       r="1.1565582"
       fill="#1793e6"
       id="circle15"
       style="stroke-width:3.7796" />
  </g>
</svg>
