<?xml version="1.0" encoding="UTF-8" standalone="no"?>
<svg
   width="62"
   height="62"
   version="1"
   id="svg9"
   sodipodi:docname="bcompare.svg"
   inkscape:version="1.4 (e7c3feb100, 2024-10-09)"
   xmlns:inkscape="http://www.inkscape.org/namespaces/inkscape"
   xmlns:sodipodi="http://sodipodi.sourceforge.net/DTD/sodipodi-0.dtd"
   xmlns="http://www.w3.org/2000/svg"
   xmlns:svg="http://www.w3.org/2000/svg">
  <defs
     id="defs9" />
  <sodipodi:namedview
     id="namedview9"
     pagecolor="#ffffff"
     bordercolor="#000000"
     borderopacity="0.25"
     inkscape:showpageshadow="2"
     inkscape:pageopacity="0.0"
     inkscape:pagecheckerboard="0"
     inkscape:deskcolor="#d1d1d1"
     inkscape:zoom="11.75"
     inkscape:cx="32"
     inkscape:cy="31.744681"
     inkscape:window-width="1920"
     inkscape:window-height="998"
     inkscape:window-x="0"
     inkscape:window-y="0"
     inkscape:window-maximized="1"
     inkscape:current-layer="svg9" />
  <g
     id="g9"
     transform="matrix(0.99968119,0,0,1,0.00127523,0)">
    <circle
       style="opacity:0.2;stroke-width:0.98246"
       cx="31.50877"
       cy="32.49123"
       r="27.50877"
       id="circle1" />
    <path
       style="fill:#364763;stroke-width:0.98246;fill-opacity:1"
       d="M 59.01753,31.508766 C 59.01753,16.268908 46.748622,4 31.508766,4 28.78148,4 27.4742,7.1630679 24.990499,7.8956202 15.689403,10.638924 7.1451033,15.375038 4.8058989,24.845683 4.2792771,26.977794 4,29.209466 4,31.508766 4,46.748622 16.268908,59.01753 31.508766,59.01753 c 1.400027,0 3.015863,-2.512362 4.358534,-2.712236 10.103738,-1.504082 18.138579,-6.054422 21.514505,-15.396881 1.058886,-2.930339 1.635725,-6.095154 1.635725,-9.399647 z"
       id="path1" />
    <path
       style="opacity:0.1;fill:#ffffff;stroke-width:0.98246"
       d="M 31.508766,4 A 27.508766,27.508766 0 0 0 4,31.508766 27.508766,27.508766 0 0 0 4.0172701,31.992321 27.508766,27.508766 0 0 1 31.508766,4.9824559 27.508766,27.508766 0 0 1 58.992588,31.992321 27.508766,27.508766 0 0 0 59.01753,31.508766 27.508766,27.508766 0 0 0 31.508766,4 Z"
       id="path2" />
    <circle
       style="opacity:0.2;stroke-width:0.98246"
       cx="31.50877"
       cy="32.49123"
       r="15.719293"
       id="circle2" />
    <circle
       style="fill:#ffe9a6;stroke-width:0.98246"
       cx="31.50877"
       cy="31.50877"
       r="15.719293"
       id="circle3" />
    <path
       style="opacity:0.2;stroke-width:0.98246"
       d="m 31.508766,4.9824559 c -8.500552,0 -16.092119,3.8626176 -21.138152,9.9204991 L 6.8283985,11.360747 A 1.6581056,1.6581056 0 0 0 5.6348681,10.877189 1.6581056,1.6581056 0 0 0 4,12.535088 v 14.368417 a 1.6581056,1.6581056 0 0 0 1.6578946,1.657891 H 20.026314 a 1.6581056,1.6581056 0 0 0 1.174342,-2.828395 l -2.413927,-2.413925 c 2.855022,-3.953074 7.47319,-6.547148 12.722037,-6.547148 z"
       id="path3" />
    <path
       style="fill:#dc3545;stroke-width:0.98246"
       d="M 5.6341933,9.8942518 A 1.6581056,1.6581056 0 0 0 4,11.552193 v 14.368808 a 1.6581056,1.6581056 0 0 0 1.6579399,1.657943 H 20.026752 a 1.6581056,1.6581056 0 0 0 1.172216,-2.830155 L 6.8301552,10.379975 A 1.6581056,1.6581056 0 0 0 5.6341933,9.8942518 Z"
       id="path4" />
    <path
       style="fill:#0d6efd;stroke-width:0.98246"
       d="M 57.383342,53.122634 A 1.6581056,1.6581056 0 0 0 59.01753,51.464697 V 37.095883 A 1.6581056,1.6581056 0 0 0 57.359593,35.437945 H 42.990782 a 1.6581056,1.6581056 0 0 0 -1.172216,2.830154 l 14.368809,14.36881 a 1.6581056,1.6581056 0 0 0 1.195967,0.485725 z"
       id="path5" />
    <circle
       style="opacity:0.2;stroke-width:0.98246"
       cx="31.50877"
       cy="32.49123"
       r="5.8947368"
       id="circle5" />
    <circle
       style="fill:#ffffff;stroke-width:0.98246"
       cx="31.50877"
       cy="31.50877"
       r="5.8947368"
       id="circle6" />
    <path
       style="fill:#0d6efd;stroke-width:0.98246"
       d="M 57.377702,40.886537 C 53.543178,51.461984 43.408318,59.01753 31.508766,59.01753 V 47.228061 c 5.931501,0 11.095682,-3.285273 13.772199,-8.135474 z"
       id="path6" />
    <path
       style="opacity:0.2;fill:#ffffff;stroke-width:0.98246"
       d="m 42.991221,35.438592 a 1.6581056,1.6581056 0 0 0 -1.577306,2.151042 1.6581056,1.6581056 0 0 1 1.577306,-1.168589 h 14.368418 a 1.6581056,1.6581056 0 0 1 1.657891,1.657897 v -0.982458 a 1.6581056,1.6581056 0 0 0 -1.657891,-1.657892 z"
       id="path7" />
    <path
       style="fill:#dc3545;stroke-width:0.98246"
       d="M 31.508766,4 C 20.783524,4 11.49187,10.137879 6.9547822,19.092657 l 9.8856528,6.753137 c 2.272858,-5.883262 7.98326,-10.056326 14.668331,-10.056326 z"
       id="path8" />
    <path
       style="opacity:0.2;fill:#ffffff;stroke-width:0.98246"
       d="M 31.508766,4 C 23.008352,4 15.41857,7.8647064 10.372527,13.922418 L 6.8303176,10.38021 C 6.5137219,10.06362 6.0825526,9.888523 5.6348682,9.8947357 4.7282918,9.9074418 4.0000269,10.645963 4,11.552629 v 0.982459 c 2.69e-5,-0.906665 0.7282918,-1.645188 1.6348682,-1.657899 0.4476844,-0.0063 0.8788537,0.168891 1.1954494,0.485471 l 3.5422094,3.542217 C 15.41857,8.8471629 23.008352,4.9824559 31.508766,4.9824559 Z"
       id="path9" />
  </g>
</svg>
