<?xml version="1.0" encoding="UTF-8" standalone="no"?>
<svg
   width="62"
   height="62"
   version="1.1"
   id="svg5"
   sodipodi:docname="beekeeper-studio.svg"
   inkscape:version="1.4 (e7c3feb100, 2024-10-09)"
   xmlns:inkscape="http://www.inkscape.org/namespaces/inkscape"
   xmlns:sodipodi="http://sodipodi.sourceforge.net/DTD/sodipodi-0.dtd"
   xmlns="http://www.w3.org/2000/svg"
   xmlns:svg="http://www.w3.org/2000/svg">
  <defs
     id="defs5" />
  <sodipodi:namedview
     id="namedview5"
     pagecolor="#ffffff"
     bordercolor="#000000"
     borderopacity="0.25"
     inkscape:showpageshadow="2"
     inkscape:pageopacity="0.0"
     inkscape:pagecheckerboard="0"
     inkscape:deskcolor="#d1d1d1"
     inkscape:zoom="11.6875"
     inkscape:cx="31.957219"
     inkscape:cy="32"
     inkscape:window-width="1920"
     inkscape:window-height="994"
     inkscape:window-x="0"
     inkscape:window-y="0"
     inkscape:window-maximized="1"
     inkscape:current-layer="svg5" />
  <g
     id="g5"
     transform="translate(-1,-0.9999999)">
    <path
       style="opacity:1;stroke-width:0.991196;fill:#cca300;fill-opacity:1"
       d="m 31.948461,4.9824558 c -1.482492,0 -2.960116,0.3866613 -4.27789,1.1578624 l -4.291447,2.4822849 -4.668516,2.6703379 -7.41916,4.287584 C 8.6182567,17.122924 7,19.945256 7,23.030066 v 18.923388 c 0,3.047187 1.6182555,5.907141 4.291448,7.44954 l 16.417097,9.440209 c 2.673191,1.542396 5.94736,1.542396 8.582906,0 L 52.708547,49.402994 C 55.381736,47.860595 57,45.038257 57,41.953454 V 23.030066 c -0.03762,-3.08481 -1.693892,-5.907142 -4.329434,-7.449541 L 36.253469,6.1403182 C 34.916874,5.3691171 33.430952,4.9824558 31.948461,4.9824558 Z"
       id="path1" />
    <path
       style="fill:#fad83b;stroke-width:0.991196"
       d="m 31.948461,3.9999998 c -1.482492,0 -2.960116,0.386661 -4.27789,1.1578624 l -4.291447,2.4822845 -4.668516,2.6703343 -7.41916,4.287587 C 8.6182567,16.140474 7,18.962807 7,22.047606 v 18.923391 c 0,3.047187 1.6182555,5.907141 4.291448,7.449544 l 16.417097,9.440201 c 2.673191,1.542404 5.94736,1.542404 8.582906,0 L 52.708547,48.420541 C 55.381736,46.878138 57,44.055804 57,40.970997 V 22.047606 C 56.9624,18.962807 55.306108,16.140474 52.670566,14.598068 L 36.253469,5.1578622 C 34.916874,4.3866608 33.430952,3.9999998 31.948461,3.9999998 Z"
       id="path2" />
    <path
       style="opacity:0.461837;stroke-width:0.991196;fill:#463800;fill-opacity:1"
       d="M 23,8.8389955 18.71094,11.2913 16.999998,12.281433 v 9.126092 7.295505 1.85399 2.839913 c 0,3.232806 1.711237,6.189515 4.535157,7.805918 l 4.929689,2.839911 c 1.392071,0.827917 2.980086,1.220398 4.531251,1.220398 1.551161,0 3.143078,-0.431908 4.535146,-1.220398 l 4.933606,-2.839911 c 2.823917,-1.616403 4.53515,-4.612535 4.53515,-7.805918 v -4.651688 c 0,-3.23281 -1.711233,-6.193348 -4.53515,-7.809758 l -4.933606,-2.839916 c -1.392068,-0.827909 -2.980086,-1.220387 -4.53124,-1.220387 v 5.791111 c 4.418279,0 8.000001,3.518893 8.000001,7.85965 0,4.340768 -3.581722,7.85965 -8.000001,7.85965 C 26.999996,38.385595 23,34.455775 23,31.539105 v -0.422148 -0.591012 -9.828396 -2.64035 z m 6.999997,8.2472615 c -0.452847,0.11827 -1.547147,0.236532 -1.999998,0.433657 v 5.725882 c 0.641581,-0.25306 1.313858,-0.423336 1.999998,-0.506583 z m -3.000001,1.013153 -1.999998,0.786739 v 6.455042 c 0.573242,-0.640322 1.248739,-1.184718 1.999998,-1.611844 z"
       id="path3" />
    <path
       style="fill:#2d323b;stroke-width:0.991196;fill-opacity:1"
       d="m 23,7.8569082 -4.28906,2.4523068 -1.710942,0.990125 v 9.1261 7.295502 1.85399 2.839909 c 0,3.232809 1.711237,6.189519 4.535157,7.805922 l 4.929689,2.839914 c 1.392071,0.827911 2.980086,1.220395 4.531251,1.220395 1.551161,0 3.143078,-0.431905 4.535146,-1.220395 l 4.933606,-2.839914 c 2.823917,-1.616403 4.53515,-4.612532 4.53515,-7.805922 V 27.76316 c 0,-3.23281 -1.711233,-6.193358 -4.53515,-7.809758 l -4.933606,-2.839916 c -1.392068,-0.827916 -2.980086,-1.220397 -4.53124,-1.220397 v 5.791121 c 4.418279,0 8.000001,3.518882 8.000001,7.85965 0,4.340765 -3.581722,7.85965 -8.000001,7.85965 C 26.999996,37.40351 23,33.473683 23,30.55702 v -0.422151 -0.591009 -9.828396 -2.64035 z m 6.999997,8.2472538 c -0.452847,0.118276 -1.547147,0.236542 -1.999998,0.433667 v 5.725875 c 0.641581,-0.253054 1.313858,-0.423332 1.999998,-0.506576 z m -3.000001,1.01316 -1.999998,0.786732 v 6.455045 c 0.573242,-0.640315 1.248739,-1.184711 1.999998,-1.611837 z"
       id="path4" />
    <path
       style="opacity:0.2;fill:#ffffff;stroke-width:0.991196"
       d="m 31.949211,4 c -1.482496,0 -2.959565,0.3877901 -4.277334,1.1589915 l -4.292971,2.483004 -4.667966,2.6672195 -7.417974,4.290567 C 8.6197772,16.142186 7,18.963994 7,22.048794 v 0.98246 c 0,-3.08481 1.6197772,-5.906615 4.292966,-7.44902 l 7.417974,-4.290569 4.667966,-2.6672131 4.292971,-2.4830044 c 1.317769,-0.7712014 2.794838,-1.1589915 4.277334,-1.1589915 1.482494,0 2.968096,0.3877899 4.304694,1.1589915 l 16.41797,9.4407865 c 2.635541,1.542404 4.290477,4.36421 4.328125,7.44902 v -0.98246 c -0.0376,-3.0848 -1.692584,-5.906608 -4.328125,-7.449012 L 36.253905,5.1589915 C 34.917307,4.3877899 33.431705,4 31.949211,4 Z"
       id="path5" />
  </g>
</svg>
