<?xml version="1.0" encoding="UTF-8" standalone="no"?>
<svg
   width="62"
   height="62"
   version="1.1"
   id="svg6"
   sodipodi:docname="bitdefender.svg"
   inkscape:version="1.4 (e7c3feb100, 2024-10-09)"
   xmlns:inkscape="http://www.inkscape.org/namespaces/inkscape"
   xmlns:sodipodi="http://sodipodi.sourceforge.net/DTD/sodipodi-0.dtd"
   xmlns:xlink="http://www.w3.org/1999/xlink"
   xmlns="http://www.w3.org/2000/svg"
   xmlns:svg="http://www.w3.org/2000/svg">
  <defs
     id="defs6">
    <linearGradient
       id="linearGradient6"
       inkscape:collect="always">
      <stop
         style="stop-color:#c83771;stop-opacity:1"
         offset="0"
         id="stop6" />
      <stop
         style="stop-color:#ff8080;stop-opacity:1"
         offset="1"
         id="stop7" />
    </linearGradient>
    <linearGradient
       inkscape:collect="always"
       xlink:href="#linearGradient6"
       id="linearGradient7"
       x1="547.72137"
       y1="965.42938"
       x2="570.6723"
       y2="2.1316282e-14"
       gradientUnits="userSpaceOnUse" />
  </defs>
  <sodipodi:namedview
     id="namedview6"
     pagecolor="#ffffff"
     bordercolor="#000000"
     borderopacity="0.25"
     inkscape:showpageshadow="2"
     inkscape:pageopacity="0.0"
     inkscape:pagecheckerboard="0"
     inkscape:deskcolor="#d1d1d1"
     inkscape:zoom="7.7916667"
     inkscape:cx="31.636364"
     inkscape:cy="21.433155"
     inkscape:window-width="1920"
     inkscape:window-height="994"
     inkscape:window-x="0"
     inkscape:window-y="0"
     inkscape:window-maximized="1"
     inkscape:current-layer="svg6" />
  <linearGradient
     id="a"
     x1="34.902462"
     x2="946.34857"
     y1="490.62549"
     y2="490.62549"
     gradientUnits="userSpaceOnUse">
    <stop
       stop-color="#197cf1"
       offset="0"
       id="stop1" />
    <stop
       stop-color="#20bcfa"
       offset="1"
       id="stop2" />
  </linearGradient>
  <linearGradient
     id="b"
     x1="487.74164"
     x2="493.5094"
     y1="985.34576"
     y2="11.610633"
     gradientUnits="userSpaceOnUse">
    <stop
       stop-color="#ff3069"
       offset="0"
       id="stop3" />
    <stop
       stop-color="#ffa548"
       offset="1"
       id="stop4" />
  </linearGradient>
  <g
     transform="matrix(1.100203,0,0,1.1005465,-507.50656,-565.66928)"
     stroke-width="9.51244"
     id="g6">
    <path
       transform="matrix(0.05185606,0,0,0.05185606,464.01918,516.71536)"
       d="m 946.23,206.651 c -0.3,-23 -18,-42 -40.899,-44.101 -190.3,-17.8 -345.601,-119.5 -396.8,-156.7 -10.7,-7.8 -25.2,-7.8 -35.9,0 -51.1,37.2 -206.4,138.9 -396.7,156.7 -22.9,2.101 -40.5,21.101 -40.9,44.101 -2.3,150.1 21.8,659.699 444.1,773.1 7.5,2 15.4,2 22.9,0 422.3,-113.3 446.399,-623.001 444.199,-773.1 z"
       id="path4"
       style="fill:url(#linearGradient7)" />
    <path
       transform="matrix(0.03985431,0,0,0.04023645,469.87887,522.85863)"
       d="m 946.23,206.651 c -0.3,-23 -18,-42 -40.899,-44.101 -190.3,-17.8 -345.601,-119.5 -396.8,-156.7 -10.7,-7.8 -25.2,-7.8 -35.9,0 -51.1,37.2 -206.4,138.9 -396.7,156.7 -22.9,2.101 -40.5,21.101 -40.9,44.101 -2.3,150.1 21.8,659.699 444.1,773.1 7.5,2 15.4,2 22.9,0 422.3,-113.3 446.399,-623.001 444.199,-773.1 z"
       opacity="0.675"
       id="path5"
       fill="#ffffff" />
    <path
       d="m 494.95602,541.07091 v -2.27474 c 0,-3.08705 -2.51167,-5.59941 -5.599,-5.59941 -3.08733,0 -5.59902,2.51236 -5.59902,5.59941 v 2.27474 c -0.44123,0.0918 -0.77368,0.48473 -0.77368,0.95336 v 8.52389 c 0,0.53676 0.4369,0.97388 0.97392,0.97388 h 10.79751 c 0.53701,0 0.97392,-0.43712 0.97392,-0.97388 v -8.52389 c 0,-0.46863 -0.3324,-0.86046 -0.77365,-0.95336 z m -10.53045,9.39373 c -0.33838,0 -0.61274,-0.27435 -0.61274,-0.61274 0,-0.3384 0.2743,-0.61263 0.61274,-0.61263 0.33844,0 0.61275,0.27423 0.61275,0.61263 0,0.33818 -0.27436,0.61274 -0.61275,0.61274 z m 0,-7.13187 c -0.33838,0 -0.61274,-0.27414 -0.61274,-0.61254 0,-0.33849 0.2743,-0.61273 0.61274,-0.61273 0.33844,0 0.61275,0.27444 0.61275,0.61273 0,0.3384 -0.27436,0.61254 -0.61275,0.61254 z m 6.23951,5.00442 c 0.0199,0.10689 -0.0515,0.19142 -0.15864,0.19142 h -2.27298 c -0.10711,0 -0.17852,-0.0846 -0.15867,-0.19142 l 0.36193,-1.91798 c -0.27397,-0.24977 -0.44591,-0.60937 -0.44591,-1.00947 0,-0.7549 0.61166,-1.36663 1.36621,-1.36663 0.75453,0 1.36622,0.61173 1.36622,1.36663 0,0.38908 -0.16294,0.73972 -0.42401,0.98866 z m 2.34311,-7.2869 h -7.30234 v -2.25412 c 0,-2.01332 1.63788,-3.65113 3.65117,-3.65113 2.01328,0 3.65117,1.63791 3.65117,3.65113 z m 1.28027,9.41435 c -0.33838,0 -0.61274,-0.27435 -0.61274,-0.61274 0,-0.3384 0.27429,-0.61263 0.61274,-0.61263 0.33843,0 0.61274,0.27423 0.61274,0.61263 0,0.33818 -0.27434,0.61274 -0.61274,0.61274 z m 0,-7.13187 c -0.33838,0 -0.61274,-0.27414 -0.61274,-0.61254 0,-0.33849 0.27429,-0.61273 0.61274,-0.61273 0.33843,0 0.61274,0.27444 0.61274,0.61273 0,0.3384 -0.27434,0.61254 -0.61274,0.61254 z"
       id="path6"
       style="fill:#c83771" />
  </g>
</svg>
