<?xml version="1.0" encoding="UTF-8" standalone="no"?>
<svg
   clip-rule="evenodd"
   fill-rule="evenodd"
   stroke-linejoin="round"
   stroke-miterlimit="1.41421"
   viewBox="0 0 62 62"
   version="1.1"
   id="svg16"
   sodipodi:docname="bitwig-studio.svg"
   width="62"
   height="62"
   inkscape:version="1.4 (e7c3feb100, 2024-10-09)"
   xmlns:inkscape="http://www.inkscape.org/namespaces/inkscape"
   xmlns:sodipodi="http://sodipodi.sourceforge.net/DTD/sodipodi-0.dtd"
   xmlns:xlink="http://www.w3.org/1999/xlink"
   xmlns="http://www.w3.org/2000/svg"
   xmlns:svg="http://www.w3.org/2000/svg">
  <defs
     id="defs16">
    <linearGradient
       inkscape:collect="always"
       xlink:href="#a"
       id="linearGradient4"
       x1="13.605374"
       y1="10.857492"
       x2="56.064171"
       y2="54.761356"
       gradientUnits="userSpaceOnUse" />
  </defs>
  <sodipodi:namedview
     id="namedview16"
     pagecolor="#ffffff"
     bordercolor="#000000"
     borderopacity="0.25"
     inkscape:showpageshadow="2"
     inkscape:pageopacity="0.0"
     inkscape:pagecheckerboard="0"
     inkscape:deskcolor="#d1d1d1"
     inkscape:zoom="11.6875"
     inkscape:cx="31.957219"
     inkscape:cy="32"
     inkscape:window-width="1920"
     inkscape:window-height="994"
     inkscape:window-x="0"
     inkscape:window-y="0"
     inkscape:window-maximized="1"
     inkscape:current-layer="svg16" />
  <linearGradient
     id="a"
     x2="0.93619037"
     gradientTransform="matrix(12.4145,56.985136,-56.9831,12.414944,26.6024,5.706081)"
     gradientUnits="userSpaceOnUse"
     y2="-0.30669895"
     x1="0.024854034"
     y1="0.20891306">
    <stop
       stop-color="#e02036"
       offset="0"
       id="stop1"
       style="stop-color:#c83771;stop-opacity:1" />
    <stop
       stop-color="#8b1120"
       offset="1"
       id="stop2"
       style="stop-color:#782144;stop-opacity:1" />
  </linearGradient>
  <g
     id="g17"
     transform="translate(-1,-1.002)">
    <path
       d="m 32.001,4.002 c 15.453,0 27.999,12.546448 27.999,28 0,15.453552 -12.546,28 -27.999,28 -15.453,0 -27.999,-12.546448 -27.999,-28 0,-15.453552 12.546,-28 27.999,-28 z"
       id="path2"
       style="fill:url(#linearGradient4)" />
    <path
       d="M 32,4.002 C 16.488,4.002 4,16.488446 4,32.001 4,32.114004 4.011,32.225008 4.018,32.337012 4.369,17.135469 16.711,5.0000356 32,5.0000356 c 15.289,0 27.631,12.1354334 27.982,27.3369764 C 59.989,32.225008 60,32.114004 60,32.001 60,16.488446 47.512,4.002 32,4.002 Z"
       fill="#ffffff"
       fill-opacity="0.1"
       fill-rule="nonzero"
       id="path3"
       style="stroke-width:1.00002" />
    <g
       opacity="0.2"
       stroke-width="1.99994"
       id="g16"
       transform="matrix(1,0,0,1.0000357,0,-1.4292987e-4)">
      <circle
         cx="19.99971"
         cy="25.000481"
         r="2.9999101"
         id="circle3" />
      <circle
         cx="27.99947"
         cy="25.000481"
         r="2.9999101"
         id="circle4" />
      <circle
         cx="35.999229"
         cy="25.000481"
         r="2.9999101"
         id="circle5" />
      <circle
         cx="43.998989"
         cy="25.000481"
         r="2.9999101"
         id="circle6" />
      <circle
         cx="11.99995"
         cy="33.00024"
         r="2.9999101"
         id="circle7" />
      <circle
         cx="19.99971"
         cy="33.00024"
         r="2.9999101"
         id="circle8" />
      <circle
         cx="27.99947"
         cy="33.00024"
         r="2.9999101"
         id="circle9" />
      <circle
         cx="35.999229"
         cy="33.00024"
         r="2.9999101"
         id="circle10" />
      <circle
         cx="43.998989"
         cy="33.00024"
         r="2.9999101"
         id="circle11" />
      <circle
         cx="51.998749"
         cy="33.00024"
         r="2.9999101"
         id="circle12" />
      <circle
         cx="11.99995"
         cy="41"
         r="2.9999101"
         id="circle13" />
      <circle
         cx="19.99971"
         cy="41"
         r="2.9999101"
         id="circle14" />
      <circle
         cx="43.998989"
         cy="41"
         r="2.9999101"
         id="circle15" />
      <circle
         cx="51.998749"
         cy="41"
         r="2.9999101"
         id="circle16" />
    </g>
    <path
       d="m 20.001,21.002607 c -1.646,0 -3,1.354048 -3,3.000108 10e-4,1.645058 1.355,2.998106 3,2.998106 1.645,0 2.999,-1.353048 3,-2.998106 0,-1.64606 -1.354,-3.000108 -3,-3.000108 z m 8,0 c -1.646,0 -3,1.354048 -3,3.000108 10e-4,1.645058 1.355,2.998106 3,2.998106 1.645,0 2.999,-1.353048 3,-2.998106 0,-1.64606 -1.354,-3.000108 -3,-3.000108 z m 8,0 c -1.646,0 -3,1.354048 -3,3.000108 0.001,1.645058 1.355,2.998106 3,2.998106 1.645,0 2.999,-1.353048 3,-2.998106 0,-1.64606 -1.354,-3.000108 -3,-3.000108 z m 7.998,0 c -1.646,0 -3,1.354048 -3,3.000108 10e-4,1.645058 1.355,2.998106 3,2.998106 1.645,0 2.999,-1.353048 3,-2.998106 0,-1.64606 -1.354,-3.000108 -3,-3.000108 z m -31.998,7.998286 c -1.646,0 -3,1.354048 -3,3.000107 0,1.646059 1.354,3.000108 3,3.000108 1.646,0 3,-1.354049 3,-3.000108 0,-1.646059 -1.354,-3.000107 -3,-3.000107 z m 8,0 c -1.646,0 -3,1.354048 -3,3.000107 0,1.646059 1.354,3.000108 3,3.000108 1.646,0 3,-1.354049 3,-3.000108 0,-1.646059 -1.354,-3.000107 -3,-3.000107 z m 8,0 c -1.646,0 -3,1.354048 -3,3.000107 0,1.646059 1.354,3.000108 3,3.000108 1.646,0 3,-1.354049 3,-3.000108 0,-1.646059 -1.354,-3.000107 -3,-3.000107 z m 8,0 c -1.646,0 -3,1.354048 -3,3.000107 0,1.646059 1.354,3.000108 3,3.000108 1.646,0 3,-1.354049 3,-3.000108 0,-1.646059 -1.354,-3.000107 -3,-3.000107 z m 7.998,0 c -1.646,0 -3,1.354048 -3,3.000107 0,1.646059 1.354,3.000108 3,3.000108 1.646,0 3,-1.354049 3,-3.000108 0,-1.646059 -1.354,-3.000107 -3,-3.000107 z m 8,0 c -1.646,0 -3,1.354048 -3,3.000107 0,1.646059 1.354,3.000108 3,3.000108 1.646,0 3,-1.354049 3,-3.000108 0,-1.646059 -1.354,-3.000107 -3,-3.000107 z m -39.998,8.000285 c -1.646,0 -3,1.354049 -3,3.000107 0,1.64606 1.354,3.000108 3,3.000108 1.646,0 3,-1.354048 3,-3.000108 0,-1.646058 -1.354,-3.000107 -3,-3.000107 z m 8,0 c -1.646,0 -3,1.354049 -3,3.000107 0,1.64606 1.354,3.000108 3,3.000108 1.646,0 3,-1.354048 3,-3.000108 0,-1.646058 -1.354,-3.000107 -3,-3.000107 z m 23.998,0 c -1.646,0 -3,1.354049 -3,3.000107 0,1.64606 1.354,3.000108 3,3.000108 1.646,0 3,-1.354048 3,-3.000108 0,-1.646058 -1.354,-3.000107 -3,-3.000107 z m 8,0 c -1.646,0 -3,1.354049 -3,3.000107 0,1.64606 1.354,3.000108 3,3.000108 1.646,0 3,-1.354048 3,-3.000108 0,-1.646058 -1.354,-3.000107 -3,-3.000107 z"
       fill-rule="nonzero"
       id="path16"
       style="stroke-width:1.00002;fill:#ffffff;fill-opacity:1" />
  </g>
</svg>
