<?xml version="1.0" encoding="UTF-8" standalone="no"?>
<svg
   width="62"
   height="62"
   version="1.1"
   id="svg8"
   sodipodi:docname="blackmagicraw-speedtest.svg"
   inkscape:version="1.4 (e7c3feb100, 2024-10-09)"
   xmlns:inkscape="http://www.inkscape.org/namespaces/inkscape"
   xmlns:sodipodi="http://sodipodi.sourceforge.net/DTD/sodipodi-0.dtd"
   xmlns="http://www.w3.org/2000/svg"
   xmlns:svg="http://www.w3.org/2000/svg">
  <defs
     id="defs8" />
  <sodipodi:namedview
     id="namedview8"
     pagecolor="#ffffff"
     bordercolor="#000000"
     borderopacity="0.25"
     inkscape:showpageshadow="2"
     inkscape:pageopacity="0.0"
     inkscape:pagecheckerboard="0"
     inkscape:deskcolor="#d1d1d1"
     inkscape:zoom="12.109375"
     inkscape:cx="32"
     inkscape:cy="32"
     inkscape:window-width="1920"
     inkscape:window-height="998"
     inkscape:window-x="0"
     inkscape:window-y="0"
     inkscape:window-maximized="1"
     inkscape:current-layer="svg8" />
  <g
     id="g8"
     transform="translate(-0.499991,0.482767)">
    <ellipse
       style="opacity:0.2;stroke-width:0.965217"
       cx="31.5"
       cy="31.482758"
       id="circle1"
       rx="27.5"
       ry="27.517242" />
    <ellipse
       style="fill:#374762;stroke-width:0.965217;fill-opacity:1"
       cx="31.5"
       cy="30.517242"
       id="circle2"
       rx="27.5"
       ry="27.517242" />
    <path
       style="opacity:0.45;fill:#9def75;stroke-width:0.965217"
       d="M 31.499991,8.5034467 45.249986,12.631036 52.12499,23.637931 31.499991,30.517233 Z"
       id="path2" />
    <path
       style="opacity:0.2;stroke-width:0.965217"
       d="m 31.533907,7.8276969 c -13.074974,0 -23.6742591,10.6059341 -23.6742591,23.6891091 0.00527,6.280749 2.5037201,12.301511 6.9447241,16.740026 0.948065,0.827481 1.721758,0.173208 2.71759,-0.739224 l 3.394154,-3.394388 c 0.928128,-0.901727 0.283208,-2.481467 -1.013919,-2.483566 -0.390022,-0.0016 -0.763221,0.154917 -1.034638,0.433723 l -3.109584,3.11341 C 12.803167,41.759743 11.104246,37.457853 10.807157,32.931144 h 4.276139 c 0.812108,0.01192 1.47326,-0.65394 1.460557,-1.470912 -0.01245,-0.79925 -0.666077,-1.437283 -1.460557,-1.425643 h -4.272374 c 0.323371,-4.660717 2.16678,-8.871984 5.031867,-12.17079 l 3.02477,3.028545 c 0.566164,0.58337 1.504862,0.57994 2.073054,-0.0078 0.556773,-0.573805 0.545807,-1.48808 -0.02457,-2.042294 L 17.889407,15.815655 C 21.186178,12.948803 25.39477,11.1042 30.05257,10.780632 v 4.275053 c -0.02767,1.948053 2.922415,1.948053 2.894742,0 v -4.278811 c 4.666553,0.306953 8.894209,2.130525 12.208398,4.993532 l -3.071889,3.071942 c -0.5703,0.554216 -0.581272,1.46849 -0.02458,2.042296 0.568197,0.587488 1.506893,0.590916 2.073057,0.0078 l 3.083204,-3.086997 c 2.86787,3.289251 4.714931,7.511071 5.029979,12.229253 h -0.02263 -4.272373 c -0.794491,-0.01166 -1.448158,0.626395 -1.460569,1.425643 -0.01275,0.816975 0.64846,1.482803 1.460569,1.470902 h 4.27614 c -0.07178,1.094306 -0.228123,2.175261 -0.461726,3.234105 l -3.301805,-0.88442 -0.373156,1.39924 3.307467,0.886311 c -0.377218,1.284737 -0.875133,2.526915 -1.490717,3.713099 l -3.00404,-1.734914 -0.723685,1.255923 3.021003,1.744341 c -0.566934,0.925122 -1.207318,1.810551 -1.924172,2.641967 l -3.109563,-3.113411 c -0.271418,-0.278805 -0.644622,-0.435276 -1.034643,-0.433725 -1.297115,0.0022 -1.942049,1.581843 -1.013907,2.48357 l 3.394149,3.394387 c 0.995836,0.912433 1.76952,1.566701 2.717585,0.739224 4.441015,-4.438514 6.939426,-10.459288 6.944728,-16.740025 0,-0.498582 -0.0037,-0.991289 -0.03394,-1.482217 C 54.403657,17.524774 44.05757,7.8419916 31.533907,7.8276969 Z"
       id="path3" />
    <path
       style="fill:#9def75;stroke-width:0.965217"
       d="m 31.533907,6.8620679 c -13.074974,0 -23.6742591,10.6059291 -23.6742591,23.6891031 0.00527,6.28075 2.5037201,12.301513 6.9447241,16.740041 0.948065,0.827467 1.721758,0.173191 2.71759,-0.739229 l 3.394154,-3.394401 c 0.928128,-0.901726 0.283208,-2.481466 -1.013919,-2.483566 -0.390022,-0.0016 -0.763221,0.154916 -1.034638,0.433723 l -3.109584,3.113423 c -2.954808,-3.427046 -4.653729,-7.728943 -4.950818,-12.25565 h 4.276139 c 0.812108,0.01192 1.47326,-0.65393 1.460557,-1.470912 -0.01245,-0.799239 -0.666077,-1.437284 -1.460557,-1.425644 h -4.272374 c 0.323371,-4.660717 2.16678,-8.871983 5.031867,-12.17079 l 3.02477,3.028556 c 0.566164,0.583359 1.504862,0.579943 2.073054,-0.0078 0.556773,-0.573802 0.545808,-1.488072 -0.02457,-2.042296 l -3.026648,-3.026637 c 3.296771,-2.866847 7.505363,-4.711452 12.163163,-5.0350208 v 4.2750648 c -0.02767,1.948058 2.922416,1.948058 2.894742,0 V 9.8113586 c 4.666557,0.3069634 8.894214,2.1305224 12.208403,4.9935344 l -3.071889,3.071936 c -0.5703,0.554224 -0.581272,1.468492 -0.02457,2.042296 0.568197,0.587488 1.506893,0.590906 2.073057,0.0078 l 3.083197,-3.087021 c 2.867871,3.289259 4.71493,7.511093 5.029978,12.229265 H 55.14023 C 54.403657,16.55914 44.05757,6.8763619 31.533907,6.8620679 Z"
       id="path4" />
    <path
       style="opacity:0.2;fill:none;stroke:#000000;stroke-width:2.89569;stroke-linecap:round;stroke-linejoin:round"
       d="M 51.763142,24.724132 31.519554,31.476133"
       id="path5" />
    <path
       style="fill:none;stroke:#9def75;stroke-width:2.89569;stroke-linecap:round;stroke-linejoin:round"
       d="m 51.763142,23.758615 -20.243588,6.752"
       id="path6" />
    <path
       style="fill:#f14133;stroke-width:0.965217"
       d="m 47.950616,29.068956 c -0.794492,-0.01166 -1.448158,0.626406 -1.460569,1.425644 -0.01275,0.816983 0.64846,1.482812 1.460569,1.470912 h 4.276139 c -0.07178,1.094307 -0.228127,2.17525 -0.461726,3.234107 l -3.301804,-0.884434 -0.373158,1.39924 3.30746,0.886325 c -0.377212,1.284729 -0.875126,2.5269 -1.49071,3.713085 l -3.00404,-1.734915 -0.723683,1.255922 3.021003,1.744356 c -0.566934,0.925122 -1.207319,1.810539 -1.924172,2.641968 l -3.109583,-3.113425 c -0.271419,-0.278805 -0.644617,-0.435261 -1.034638,-0.433721 -1.297117,0.0022 -1.942049,1.58184 -1.013909,2.483566 l 3.39415,3.394401 c 0.995836,0.91242 1.769519,1.566692 2.717584,0.739225 4.441015,-4.438528 6.939426,-10.459291 6.944727,-16.740041 0,-0.498567 -0.0037,-0.991276 -0.03394,-1.482215 h -2.917348 z"
       id="path7" />
    <path
       style="opacity:0.1;fill:#ffffff;stroke-width:0.965217"
       d="M 31.499991,3 A 27.499991,27.517233 0 0 0 4,30.517233 27.499991,27.517233 0 0 0 4.020731,31.079199 27.499991,27.517233 0 0 1 31.499991,3.9655175 27.499991,27.517233 0 0 1 58.979251,30.920784 27.499991,27.517233 0 0 0 58.999978,30.517233 27.499991,27.517233 0 0 0 31.499991,3 Z"
       id="path8" />
  </g>
</svg>
