<?xml version="1.0" encoding="UTF-8" standalone="no"?>
<svg
   width="62"
   height="62"
   version="1"
   id="svg11"
   sodipodi:docname="com.rafaelmardojai.Blanket.svg"
   inkscape:version="1.4 (e7c3feb100, 2024-10-09)"
   xmlns:inkscape="http://www.inkscape.org/namespaces/inkscape"
   xmlns:sodipodi="http://sodipodi.sourceforge.net/DTD/sodipodi-0.dtd"
   xmlns="http://www.w3.org/2000/svg"
   xmlns:svg="http://www.w3.org/2000/svg">
  <defs
     id="defs11" />
  <sodipodi:namedview
     id="namedview11"
     pagecolor="#ffffff"
     bordercolor="#000000"
     borderopacity="0.25"
     inkscape:showpageshadow="2"
     inkscape:pageopacity="0.0"
     inkscape:pagecheckerboard="0"
     inkscape:deskcolor="#d1d1d1"
     inkscape:zoom="11.75"
     inkscape:cx="32"
     inkscape:cy="32"
     inkscape:window-width="1920"
     inkscape:window-height="998"
     inkscape:window-x="0"
     inkscape:window-y="0"
     inkscape:window-maximized="1"
     inkscape:current-layer="svg11" />
  <g
     id="g11"
     transform="matrix(0.98214285,0,0,0.98245211,-0.4285711,-0.92957873)">
    <path
       style="fill:#1a5fb4"
       d="m 11,3.9997662 c -3.8780002,0 -7.0000002,3.122 -7.0000002,6.9999998 v 21 17.5 V 56 H 8.0000001 V 50 H 11 v 6 h 4 v -6 h 3 v -18.000234 -21 C 18,7.1217662 14.878,3.9997662 11,3.9997662 Z"
       id="path1" />
    <path
       style="fill:#3584e4"
       d="M 38.461539,3.9997662 V 4.027125 C 38.639931,4.0136028 38.818032,3.9997662 39,3.9997662 Z m 0.538461,0 c 3.878,0 7,3.122 7,6.9999998 0,16.333334 0,-9.3333332 0,7 h 14 c 0,-16.3333332 0,9.333334 0,-7 0,-3.8779998 -3.122,-6.9999998 -7,-6.9999998 -0.181968,0 -0.360069,0.013832 -0.538461,0.027359 v -0.027359 z"
       id="path2" />
    <rect
       style="fill:#99c1f1"
       width="14"
       height="14"
       x="46"
       y="18"
       id="rect2" />
    <rect
       style="fill:#3584e4"
       width="14"
       height="14"
       x="46"
       y="32"
       id="rect3" />
    <path
       style="fill:#b4d6ff"
       d="M 24.461539,3.9997662 V 4.027125 C 24.639931,4.0136028 24.818032,3.9997662 25,3.9997662 Z m 0.538461,0 c 3.878,0 7,3.122 7,6.9999998 0,16.333334 0,-9.3333332 0,7 h 14 c 0,-16.3333332 0,9.333334 0,-7 0,-3.8779998 -3.122,-6.9999998 -7,-6.9999998 -0.181968,0 -0.360069,0.013832 -0.538461,0.027359 v -0.027359 z"
       id="path3" />
    <rect
       style="fill:#1c71d8"
       width="14"
       height="14"
       x="32"
       y="18"
       id="rect4" />
    <path
       style="fill:#3584e4"
       d="M 10.461538,3.9997662 V 4.027125 C 10.639931,4.0136028 10.818033,3.9997662 11,3.9997662 Z m 0.538462,0 c 3.878,0 7,3.122 7,6.9999998 0,16.333334 0,-9.3333332 0,7 h 14 c 0,-16.3333332 0,9.333334 0,-7 0,-3.8779998 -3.122,-6.9999998 -7,-6.9999998 -0.181968,0 -0.360069,0.013832 -0.538461,0.027359 v -0.027359 z"
       id="path4" />
    <rect
       style="fill:#99c1f1"
       width="14"
       height="14"
       x="18"
       y="18"
       id="rect5" />
    <rect
       style="fill:#3584e4"
       width="14"
       height="14"
       x="18"
       y="32"
       id="rect6" />
    <rect
       style="fill:#b4d6ff"
       width="14"
       height="14"
       x="32"
       y="32"
       id="rect7" />
    <path
       style="fill:#99c1f1"
       d="m 46,45.999766 v 7.000468 7 h 4 v -7 h 3 v 7 h 4 v -7 h 3 v -7.000468 z"
       id="path7" />
    <path
       style="fill:#1c71d8"
       d="m 32,45.999766 v 7.000468 7 h 4 v -7 h 3 v 7 h 4 v -7 h 3 v -7.000468 z"
       id="path8" />
    <path
       style="fill:#99c1f1"
       d="m 18,45.999766 v 7.000468 7 h 4 v -7 h 3 v 7 h 4 v -7 h 3 v -7.000468 z"
       id="path9" />
    <path
       style="opacity:0.2;fill:#ffffff"
       d="M 10.460938,4 V 4.027344 C 10.639329,4.0138216 10.818033,4 11,4 Z M 11,4 c 1.321587,0 2.551174,0.3684758 3.603516,1 H 24.460938 25 38.460938 39 52.460938 V 5.027344 C 52.63933,5.0138168 52.818032,5 53,5 c 3.878,0 7,3.1220002 7,7 V 11 C 60,7.1220002 56.878,4 53,4 52.818032,4 52.63933,4.0138168 52.460938,4.0273438 V 4 H 39 38.460938 25 24.460938 Z m 7,14 v 1 h 14 v -1 z m 28,0 v 1 H 60 V 18 Z M 32,32 v 1 H 46 V 32 Z M 18,46 v 1 h 14 v -1 z m 28,0 v 1 h 14 v -1 z"
       id="path10" />
    <path
       style="opacity:0.2"
       d="m 32,18 v 1 H 46 V 18 Z M 18,32 v 1 h 14 v -1 z m 28,0 v 1 H 60 V 32 Z M 32,46 v 1 H 46 V 46 Z M 8,50 v 1 h 3 v -1 z m 7,0 v 1 h 3 v -1 z m 7,3 v 1 h 3 v -1 z m 7,0 v 1 h 3 v -1 z m 7,0 v 1 h 3 v -1 z m 7,0 v 1 h 3 v -1 z m 7,0 v 1 h 3 v -1 z m 7,0 v 1 h 3 V 53 Z M 4,56 v 1 h 4 v -1 z m 7,0 v 1 h 4 v -1 z m 7,4 v 1 h 4 v -1 z m 7,0 v 1 h 4 v -1 z m 7,0 v 1 h 4 v -1 z m 7,0 v 1 h 4 v -1 z m 7,0 v 1 h 4 v -1 z m 7,0 v 1 h 4 v -1 z"
       id="path11" />
  </g>
</svg>
