<?xml version="1.0" encoding="UTF-8" standalone="no"?>
<svg
   width="62"
   height="62"
   version="1.1"
   id="svg5"
   sodipodi:docname="blender.svg"
   inkscape:version="1.4 (e7c3feb100, 2024-10-09)"
   xmlns:inkscape="http://www.inkscape.org/namespaces/inkscape"
   xmlns:sodipodi="http://sodipodi.sourceforge.net/DTD/sodipodi-0.dtd"
   xmlns="http://www.w3.org/2000/svg"
   xmlns:svg="http://www.w3.org/2000/svg">
  <defs
     id="defs5" />
  <sodipodi:namedview
     id="namedview5"
     pagecolor="#ffffff"
     bordercolor="#000000"
     borderopacity="0.25"
     inkscape:showpageshadow="2"
     inkscape:pageopacity="0.0"
     inkscape:pagecheckerboard="0"
     inkscape:deskcolor="#d1d1d1"
     inkscape:zoom="5.84375"
     inkscape:cx="32.427807"
     inkscape:cy="51.336898"
     inkscape:window-width="1920"
     inkscape:window-height="994"
     inkscape:window-x="0"
     inkscape:window-y="0"
     inkscape:window-maximized="1"
     inkscape:current-layer="svg5" />
  <path
     style="opacity:0.2;stroke-width:1.05451"
     d="M 30.191607,4.0626886 C 28.84212,3.9847526 27.483048,4.5593041 26.598806,5.7222252 25.184105,7.5828314 25.539993,10.221434 27.397193,11.638737 L 31.36906,14.66903 H 9.9294105 c -2.334657,0 -4.2141821,1.882982 -4.2141821,4.221934 0,2.338951 1.8795251,4.221933 4.2141821,4.221933 H 19.51425 L 3.1653324,35.582378 c -1.857506,1.416881 -2.2146579,4.055484 -0.8004522,5.916513 1.4142794,1.860922 4.0480377,2.218731 5.9056493,0.801924 l 8.0122125,-6.109138 a 22.124455,22.165152 0 0 0 -0.03265,0.64279 22.124455,22.165152 0 0 0 20.505156,22.082824 c 0.466057,0.03851 0.935654,0.06329 1.409537,0.07215 a 22.124455,22.165152 0 0 0 0.209657,0.01056 22.124455,22.165152 0 0 0 0.08429,-0.0021 c 0.03998,2.19e-4 0.07932,0.002 0.119345,0.0021 12.108399,0 21.923228,-9.828661 21.921122,-21.950888 -1.5e-5,-0.0483 -0.0038,-0.09605 -0.0041,-0.144306 a 22.124455,22.165152 0 0 0 0.0042,-0.06966 22.124455,22.165152 0 0 0 -0.01686,-0.492911 c -0.0053,-0.160285 -0.0098,-0.320603 -0.01852,-0.480329 A 22.124455,22.165152 0 0 0 48.929694,17.358222 C 43.584004,13.140511 37.930679,9.0642344 32.504919,4.9235726 31.808525,4.3917145 31.001509,4.1103226 30.191334,4.0635647 Z"
     id="path1" />
  <path
     style="fill:#f3aa26;stroke-width:1.05451;fill-opacity:1"
     d="m 30.191607,3.0072052 c -1.348538,-0.078 -2.707611,0.496605 -3.592589,1.659431 -1.414913,1.8607118 -1.058814,4.4991032 0.798586,5.9166178 l 3.971867,3.030293 H 9.9298215 c -2.334656,0 -4.2141822,1.882982 -4.2141822,4.221933 0,2.338951 1.8795262,4.221934 4.2141822,4.221934 H 19.514977 L 3.1660594,34.526895 c -1.857506,1.417514 -2.2146579,4.056223 -0.8003786,5.91704 1.4142795,1.860817 4.0480378,2.218626 5.9058597,0.802167 l 8.0122125,-6.110193 a 22.124455,22.165152 0 0 0 -0.03267,0.642789 22.124455,22.165152 0 0 0 20.505157,22.082824 c 0.465667,0.038 0.935547,0.06333 1.409644,0.07177 a 22.124455,22.165152 0 0 0 0.209655,0.01056 22.124455,22.165152 0 0 0 0.08429,-0.0021 c 0.04003,0 0.07902,0.0021 0.11905,0.0021 12.108398,0 21.923228,-9.828662 21.92112,-21.950889 0,-0.04855 -0.0042,-0.09605 -0.0042,-0.144601 a 22.124455,22.165152 0 0 0 0.0042,-0.06966 22.124455,22.165152 0 0 0 -0.01686,-0.492911 c -0.0053,-0.160433 -0.0095,-0.320866 -0.01791,-0.480244 A 22.124455,22.165152 0 0 0 48.929968,16.301863 C 43.584278,12.084151 37.930953,8.0078744 32.505194,3.8672131 31.8088,3.335355 31.001783,3.0539631 30.191607,3.0072052 Z"
     id="path2" />
  <g
     id="g5"
     transform="translate(0,1.240103)">
    <path
       style="opacity:0.2;stroke-width:1.08143"
       d="M 38.731921,24.185337 A 12.998918,12.96432 0 0 1 51.729755,37.148577 12.998918,12.96432 0 0 1 38.731921,50.112897 12.998918,12.96432 0 0 1 25.733003,37.148577 12.998918,12.96432 0 0 1 38.731921,24.185337 Z"
       id="path3" />
    <path
       style="fill:#ffffff;stroke-width:1.08143"
       d="m 38.738418,23.112897 a 12.994585,12.96 0 0 1 12.994585,12.96 12.994585,12.96 0 0 1 -12.994585,12.959999 12.994585,12.96 0 0 1 -12.994587,-12.959999 12.994585,12.96 0 0 1 12.994587,-12.96 z"
       id="path4" />
    <ellipse
       style="fill:#408ef4;stroke-width:1.08143"
       cx="38.731926"
       cy="36.066425"
       id="circle4"
       rx="6.4994588"
       ry="6.4821587" />
  </g>
  <path
     style="opacity:0.2;fill:#ffffff;stroke-width:1.05451"
     d="M 18.131672,23.112897 3.1660594,34.526895 c -1.226327,0.935348 -1.7830204,2.401119 -1.6235137,3.826127 0.1490346,-1.06171 0.7007869,-2.066847 1.6235137,-2.770644 L 19.514977,23.112897 Z m -8.2018505,-9.49935 c -2.334656,0 -4.2141822,1.882982 -4.2141822,4.221933 0,0.180762 0.029647,0.353081 0.051442,0.527742 C 6.0273071,16.277587 7.7756665,14.66903 9.9298515,14.66903 H 31.3695 L 29.986723,13.613547 Z M 30.191607,3.0069941 c -1.349487,-0.077936 -2.708559,0.4966155 -3.592801,1.6595366 -0.711512,0.935781 -0.973055,2.0687475 -0.823083,3.1437577 0.08244,-0.73334 0.342424,-1.4561453 0.823083,-2.0882743 0.884198,-1.1629316 2.243314,-1.7374312 3.592801,-1.6595366 0.809672,0.046761 1.616454,0.3281498 2.312849,0.8596385 5.426497,4.1409784 11.079084,8.217571 16.424774,12.43465 a 22.124455,22.165152 0 0 1 11.535269,18.503679 c 0.0088,0.159727 0.01326,0.320044 0.01852,0.48033 a 22.124455,22.165152 0 0 1 0.0041,0.127808 c 0.0034,-0.158871 0.01238,-0.316518 0.01235,-0.476202 -1.5e-5,-0.0483 -0.0038,-0.09605 -0.0041,-0.144306 a 22.124455,22.165152 0 0 0 0.0042,-0.06861 22.124455,22.165152 0 0 0 -0.01686,-0.492911 c -0.0053,-0.160286 -0.0098,-0.320603 -0.01852,-0.480329 A 22.124455,22.165152 0 0 0 48.929988,16.302549 C 43.584299,12.084837 37.930973,8.0085604 32.505214,3.8678992 31.80882,3.3360411 31.001805,3.0546492 30.191628,3.0078913 Z"
     id="path5" />
</svg>
