<?xml version="1.0" encoding="UTF-8" standalone="no"?>
<svg
   id="svg2817"
   height="62"
   width="62"
   version="1"
   sodipodi:docname="blinken.svg"
   inkscape:version="1.4 (e7c3feb100, 2024-10-09)"
   xmlns:inkscape="http://www.inkscape.org/namespaces/inkscape"
   xmlns:sodipodi="http://sodipodi.sourceforge.net/DTD/sodipodi-0.dtd"
   xmlns:xlink="http://www.w3.org/1999/xlink"
   xmlns="http://www.w3.org/2000/svg"
   xmlns:svg="http://www.w3.org/2000/svg">
  <sodipodi:namedview
     id="namedview41"
     pagecolor="#ffffff"
     bordercolor="#666666"
     borderopacity="1.0"
     inkscape:showpageshadow="2"
     inkscape:pageopacity="0.0"
     inkscape:pagecheckerboard="0"
     inkscape:deskcolor="#d1d1d1"
     showgrid="false"
     inkscape:zoom="6.9532167"
     inkscape:cx="26.390663"
     inkscape:cy="49.04205"
     inkscape:window-width="1920"
     inkscape:window-height="994"
     inkscape:window-x="0"
     inkscape:window-y="0"
     inkscape:window-maximized="1"
     inkscape:current-layer="svg2817" />
  <defs
     id="defs429">
    <linearGradient
       id="linearGradient4626">
      <stop
         style="stop-color:#000000;stop-opacity:1;"
         offset="0"
         id="stop4628" />
      <stop
         style="stop-color:#000000;stop-opacity:0;"
         offset="1"
         id="stop4630" />
    </linearGradient>
    <linearGradient
       id="linearGradient4656">
      <stop
         style="stop-color:#ffffff;stop-opacity:1;"
         offset="0"
         id="stop4658" />
      <stop
         style="stop-color:#536161;stop-opacity:1"
         offset="1"
         id="stop4660" />
    </linearGradient>
    <linearGradient
       id="linearGradient4598">
      <stop
         style="stop-color:#172525;stop-opacity:1;"
         offset="0"
         id="stop4600" />
      <stop
         style="stop-color:#334545;stop-opacity:1"
         offset="1"
         id="stop4602" />
    </linearGradient>
    <linearGradient
       id="linearGradient4590">
      <stop
         id="stop4594"
         offset="0"
         style="stop-color:#54d883;stop-opacity:1" />
      <stop
         id="stop4592"
         offset="1"
         style="stop-color:#3bb566;stop-opacity:1;" />
    </linearGradient>
    <linearGradient
       id="linearGradient4582">
      <stop
         id="stop4586"
         offset="0"
         style="stop-color:#7cbcec;stop-opacity:1" />
      <stop
         id="stop4584"
         offset="1"
         style="stop-color:#3b85b5;stop-opacity:1;" />
    </linearGradient>
    <linearGradient
       id="linearGradient4574">
      <stop
         style="stop-color:#bf4231;stop-opacity:1;"
         offset="0"
         id="stop4576" />
      <stop
         style="stop-color:#f58273;stop-opacity:1"
         offset="1"
         id="stop4578" />
    </linearGradient>
    <linearGradient
       id="linearGradient4564">
      <stop
         style="stop-color:#ffa92d;stop-opacity:1;"
         offset="0"
         id="stop4566" />
      <stop
         style="stop-color:#ffc169;stop-opacity:1"
         offset="1"
         id="stop4568" />
    </linearGradient>
    <linearGradient
       xlink:href="#linearGradient4564"
       id="linearGradient4570"
       x1="18.653"
       y1="20.191"
       x2="7.4320002"
       y2="8.5249996"
       gradientUnits="userSpaceOnUse"
       gradientTransform="matrix(0.95454537,0,0,1.1052629,-80.265022,-22.922914)" />
    <linearGradient
       xlink:href="#linearGradient4574"
       id="linearGradient4580"
       x1="28.615"
       y1="21.502001"
       x2="39.939999"
       y2="10.118"
       gradientUnits="userSpaceOnUse"
       gradientTransform="matrix(0.95454537,0,0,1.1052629,-80.265022,-22.922914)" />
    <linearGradient
       xlink:href="#linearGradient4582"
       id="linearGradient4588"
       x1="19.830999"
       y1="26.561001"
       x2="9.6899996"
       y2="37.881001"
       gradientUnits="userSpaceOnUse"
       gradientTransform="matrix(0.95454537,0,0,1.1052629,-80.265022,-22.922914)" />
    <linearGradient
       xlink:href="#linearGradient4590"
       id="linearGradient4596"
       x1="33.241001"
       y1="30.191"
       x2="40.393002"
       y2="37.416"
       gradientUnits="userSpaceOnUse"
       gradientTransform="matrix(0.95454537,0,0,1.1052629,-80.265022,-22.922914)" />
    <linearGradient
       xlink:href="#linearGradient4598"
       id="linearGradient4604"
       x1="27.197001"
       y1="33.474998"
       x2="21.365999"
       y2="14.901"
       gradientUnits="userSpaceOnUse"
       gradientTransform="matrix(1.0499999,0,0,1.2599997,-82.555932,-26.636598)" />
    <style
       id="current-color-scheme"
       type="text/css">
   .ColorScheme-Text { color:#4d4d4d; }
  </style>
    <linearGradient
       xlink:href="#linearGradient4656"
       id="linearGradient4662"
       x1="19.025"
       y1="15.232"
       x2="29.945999"
       y2="31.764999"
       gradientUnits="userSpaceOnUse"
       gradientTransform="matrix(1.0499999,0,0,1.0499999,-81.505932,-21.596598)" />
    <linearGradient
       xlink:href="#linearGradient4626"
       id="linearGradient4632"
       x1="23.693001"
       y1="21.277"
       x2="34.937"
       y2="32.521999"
       gradientUnits="userSpaceOnUse"
       gradientTransform="matrix(1.0499999,0,0,1.0499999,-82.555932,-21.596598)" />
    <linearGradient
       id="c"
       gradientUnits="userSpaceOnUse"
       x1="11.072659"
       x2="10.958864"
       y1="19.88957"
       y2="1.993852"
       gradientTransform="matrix(1.888889,0,0,1.888889,-119.04897,29.730695)">
      <stop
         offset="0"
         stop-color="#197cf1"
         id="stop12" />
      <stop
         offset="1"
         stop-color="#21c9fb"
         id="stop14" />
    </linearGradient>
    <linearGradient
       id="b-9"
       gradientUnits="userSpaceOnUse"
       x1="6"
       x2="20"
       y1="5"
       y2="19">
      <stop
         offset="0"
         stop-color="#292c2f"
         id="stop7-1" />
      <stop
         offset="1"
         stop-opacity="0"
         id="stop9-2" />
    </linearGradient>
    <linearGradient
       id="a-70"
       gradientUnits="userSpaceOnUse"
       x1="0"
       x2="0"
       y1="26"
       y2="0">
      <stop
         offset="0"
         stop-color="#7cbaf8"
         id="stop2-9" />
      <stop
         offset="1"
         stop-color="#f4fcff"
         id="stop4-36" />
    </linearGradient>
    <linearGradient
       inkscape:collect="always"
       xlink:href="#linearGradient4564"
       id="linearGradient897"
       gradientUnits="userSpaceOnUse"
       gradientTransform="matrix(1.2727271,0,0,1.4736838,-64.291213,-21.368419)"
       x1="18.653"
       y1="20.191"
       x2="7.4320002"
       y2="8.5249996" />
    <linearGradient
       inkscape:collect="always"
       xlink:href="#linearGradient4574"
       id="linearGradient899"
       gradientUnits="userSpaceOnUse"
       gradientTransform="matrix(1.2727271,0,0,1.4736838,-64.291213,-21.368419)"
       x1="28.615"
       y1="21.502001"
       x2="39.939999"
       y2="10.118" />
    <linearGradient
       inkscape:collect="always"
       xlink:href="#linearGradient4590"
       id="linearGradient901"
       gradientUnits="userSpaceOnUse"
       gradientTransform="matrix(1.2727271,0,0,1.4736838,-64.291213,-21.368419)"
       x1="33.241001"
       y1="30.191"
       x2="40.393002"
       y2="37.416" />
    <linearGradient
       inkscape:collect="always"
       xlink:href="#linearGradient4582"
       id="linearGradient903"
       gradientUnits="userSpaceOnUse"
       gradientTransform="matrix(1.2727271,0,0,1.4736838,-64.291213,-21.368419)"
       x1="19.830999"
       y1="26.561001"
       x2="9.6899996"
       y2="37.881001" />
    <linearGradient
       inkscape:collect="always"
       xlink:href="#linearGradient4626"
       id="linearGradient905"
       gradientUnits="userSpaceOnUse"
       gradientTransform="matrix(1.3999998,0,0,1.3999998,-67.345759,-19.599998)"
       x1="23.693001"
       y1="21.277"
       x2="34.937"
       y2="32.521999" />
    <linearGradient
       inkscape:collect="always"
       xlink:href="#linearGradient4598"
       id="linearGradient907"
       gradientUnits="userSpaceOnUse"
       gradientTransform="matrix(1.3999998,0,0,1.6799996,-67.345759,-26.319998)"
       x1="27.197001"
       y1="33.474998"
       x2="21.365999"
       y2="14.901" />
    <linearGradient
       inkscape:collect="always"
       xlink:href="#linearGradient4656"
       id="linearGradient909"
       gradientUnits="userSpaceOnUse"
       gradientTransform="matrix(1.3999998,0,0,1.3999998,-66.291649,-19.374448)"
       x1="19.025"
       y1="15.232"
       x2="29.945999"
       y2="31.764999" />
  </defs>
  <g
     id="g1"
     transform="translate(64.745762,17)">
    <path
       style="fill:url(#linearGradient897);fill-opacity:1;stroke-width:1.4"
       id="rect4203-6"
       d="m -33.745762,-14 c -15.512,0 -28,12.488 -28,28 h 28 z" />
    <path
       style="fill:url(#linearGradient899);fill-opacity:1;stroke-width:1.4"
       id="path4556-0"
       d="m -33.745762,-14 c 15.512,0 28,12.488 28,28 h -28 z" />
    <path
       style="fill:url(#linearGradient901);fill-opacity:1;stroke-width:1.4"
       id="path4564-6"
       d="m -33.745762,42 c 15.512,0 28,-12.488 28,-28 h -28 z" />
    <path
       style="fill:url(#linearGradient903);fill-opacity:1;stroke-width:1.4"
       id="path4566-2"
       d="m -33.745762,42 c -15.512,0 -28,-12.488 -28,-28 h 28 z" />
    <path
       style="opacity:0.2;fill:url(#linearGradient905);fill-opacity:1;stroke-width:1.4"
       d="M -31.930142,0.57695067 -33.745762,2.994144 V 14 h -8.263285 l -3.636715,4.845309 -0.607032,6.453132 16.425389,16.425388 C -17.496917,40.011137 -7.7905447,30.333348 -6.0356113,18.016801 L -22.780921,1.2714893 Z"
       id="path4598-6" />
    <circle
       id="path4181-1"
       cx="-33.745777"
       cy="13.999988"
       style="fill:url(#linearGradient907);fill-opacity:1;stroke-width:1.4"
       r="16.799997" />
    <path
       style="color:#4d4d4d;fill:url(#linearGradient909);fill-opacity:1;stroke:none;stroke-width:1.4"
       d="m -31.52681,2.5743735 -3.964841,0.3718733 V 18.261486 l 3.921095,-0.535936 v -6.546089 l 5.230864,7.246089 4.096082,-1.235936 -5.359366,-6.956253 5.403118,-6.5898382 -4.183589,-0.9050853 -5.187109,6.587112 z m -9.624994,4.1972627 c -0.04436,0 -0.09779,0.025613 -0.131267,0.0438 l -1.525765,1.4820253 c -0.06501,0.064387 -0.09133,0.17106 -0.0438,0.2461 l 1.788292,2.8000005 c -0.320774,0.509453 -0.557292,1.067049 -0.741018,1.646091 l -3.311329,0.65899 c -0.09233,0.02375 -0.175005,0.07707 -0.175005,0.166786 v 2.05624 c 0,0.0868 0.08608,0.183948 0.174993,0.205085 l 3.223831,0.743755 c 0.171712,0.671299 0.432821,1.307816 0.78477,1.892183 l -1.873046,2.676953 c -0.05196,0.0756 -0.02496,0.182954 0.0438,0.246087 l 1.523053,1.441022 c 0.06501,0.05877 0.183223,0.09132 0.262499,0.0438 l 2.920304,-1.68985 c 0.57412,0.312901 1.174876,0.574133 1.829301,0.741013 l 0.697263,3.089845 c 0.02007,0.0896 0.08097,0.164064 0.175005,0.164064 h 2.179295 c 0.09179,0 0.196792,-0.07879 0.218754,-0.164064 l 0.782024,-3.089845 c 0.674571,-0.172059 1.331443,-0.454712 1.919532,-0.782027 l 2.876571,1.812887 c 0.07912,0.0476 0.192448,0.02207 0.259761,-0.0438 l 1.52577,-1.441011 c 0.06539,-0.0644 0.0916,-0.171334 0.0438,-0.246102 l -1.044583,-1.646114 -0.35,0.123053 c -0.04979,0.02379 -0.101987,9.78e-4 -0.131187,-0.04099 0,0 -0.659652,-0.943181 -1.525786,-2.14102 -1.035428,1.914639 -3.145471,3.210158 -5.578127,3.210158 -3.456211,0 -6.275389,-2.621612 -6.275389,-5.887109 0,-2.401975 1.52794,-4.469521 3.705072,-5.3949285 V 8.1716682 c -0.396252,0.13164 -0.768176,0.2661853 -1.132023,0.4539186 h -0.0438 l -2.920323,-1.8128946 c -0.03968,-0.02376 -0.08677,-0.042533 -0.131186,-0.03832 v -0.00267 z"
       id="path4653-8" />
    <path
       style="opacity:0.15;fill:#000000;fill-opacity:1;stroke-width:1.4"
       d="m -61.745762,14 c 0,15.512 12.488,28 28,28 15.512,0 28,-12.488 28,-28 h -0.03552 c -0.7255267,14.855776 -12.922547,26.6 -27.96448,26.6 -15.041936,0 -27.238953,-11.744224 -27.964452,-26.6 z"
       id="path4634-7" />
  </g>
</svg>
