<?xml version="1.0" encoding="UTF-8" standalone="no"?>
<svg
   width="62"
   height="62"
   version="1"
   id="svg9"
   sodipodi:docname="bloomrpc.svg"
   inkscape:version="1.4 (e7c3feb100, 2024-10-09)"
   xmlns:inkscape="http://www.inkscape.org/namespaces/inkscape"
   xmlns:sodipodi="http://sodipodi.sourceforge.net/DTD/sodipodi-0.dtd"
   xmlns="http://www.w3.org/2000/svg"
   xmlns:svg="http://www.w3.org/2000/svg">
  <defs
     id="defs9" />
  <sodipodi:namedview
     id="namedview9"
     pagecolor="#ffffff"
     bordercolor="#000000"
     borderopacity="0.25"
     inkscape:showpageshadow="2"
     inkscape:pageopacity="0.0"
     inkscape:pagecheckerboard="0"
     inkscape:deskcolor="#d1d1d1"
     inkscape:zoom="11.6875"
     inkscape:cx="31.957219"
     inkscape:cy="32"
     inkscape:window-width="1920"
     inkscape:window-height="994"
     inkscape:window-x="0"
     inkscape:window-y="0"
     inkscape:window-maximized="1"
     inkscape:current-layer="svg9" />
  <g
     id="g9"
     transform="translate(-1.0000001,-1)">
    <path
       style="opacity:0.2;stroke-width:0.991193"
       d="M 19.347662,4.982456 C 17.571567,7.611161 15.993865,10.226421 14.613281,12.81524 11.322705,9.33985 8.3938546,6.9509924 6.621094,6.45614 1.2689816,38.11548 9.0415991,55.968284 31.984376,60 33.03045,59.624334 34.027866,59.21912 35.003913,58.80263 54.978895,50.541132 62.557322,36.526106 57.457031,6.3563596 56.441212,6.1780602 53.698398,7.9791644 50.390622,11.310856 49.290682,9.212962 48.081962,7.104135 46.648446,4.982456 41.071955,6.4556474 36.524705,8.929992 32.906251,12.04386 29.401034,8.929978 24.924161,6.4556524 19.347662,4.982456 Z"
       id="path1" />
    <path
       style="fill:#5edd86;stroke-width:0.991193"
       d="M 6.619705,5.472887 C 14.332227,7.6257744 43.576821,44.56947 31.985415,59.01754 9.0426397,54.985834 1.2675932,37.132218 6.619705,5.472887 Z"
       id="path2" />
    <path
       style="opacity:0.2;fill:#ffffff;stroke-width:0.991193"
       d="m 6.6210938,5.473684 c -1.099249,6.502386 -1.6118649,12.388923 -1.5859379,17.726425 0.0015,-0.07254 0.0081,-0.149837 0.00976,-0.222583 C 5.095217,17.960583 5.6034832,12.475614 6.6210938,6.45614 12.987259,8.233205 34.000626,33.705101 34.630859,50.672419 34.817334,33.725136 13.11212,7.2856036 6.6210938,5.473684 Z"
       id="path3" />
    <path
       style="fill:#077cc5;stroke-width:0.991193"
       d="M 46.648545,4 C 16.555616,11.949927 16.244954,48.986042 31.985415,59.01754 58.126269,49.629812 62.359443,27.252856 46.648545,4 Z"
       id="path4" />
    <path
       style="opacity:0.1;fill:#ffffff;stroke-width:0.991193"
       d="M 46.648446,4 C 28.62398,8.7616844 21.29354,23.955508 21.687506,37.533992 c 0.0011,-0.0421 0.0066,-0.08455 0.0078,-0.126646 0.0255,-13.287519 7.41633,-27.7920565 24.953049,-32.42489 5.896567,8.727199 8.971603,17.329777 9.144524,25.169685 C 55.867549,22.050707 52.792869,13.09405 46.648446,4 Z"
       id="path5" />
    <path
       style="fill:#218ef2;stroke-width:0.991193"
       d="M 19.346277,4 C 49.43921,11.949927 47.725873,48.986042 31.985415,59.01754 16.435056,53.433088 9.1686922,43.252156 9.0000006,31.024672 8.8851131,22.697192 12.981292,13.420481 19.346277,4 Z"
       id="path6" />
    <path
       style="opacity:0.2;fill:#ffffff;stroke-width:0.991193"
       d="M 19.347662,4 C 12.982667,13.420481 8.8851129,22.697742 9.0000004,31.025222 c 0.0012,0.08722 0.00783,0.172618 0.011718,0.259042 C 9.1337,23.143708 13.165551,14.132247 19.347662,4.982456 36.179085,9.4289676 43.02503,22.970923 43.066405,35.801261 c 0.0014,0.04408 0.0066,0.0883 0.0078,0.132405 C 43.435808,22.782706 36.666604,8.5753026 19.347662,4 Z"
       id="path7" />
    <path
       style="fill:#0dd8c1;stroke-width:0.991193"
       d="M 57.455467,5.3754382 C 53.928607,4.7563938 29.855125,27.312654 31.985415,59.01754 54.234034,50.919152 62.807576,37.034768 57.455467,5.3754382 Z"
       id="path8" />
    <path
       style="opacity:0.2;fill:#ffffff;stroke-width:0.991193"
       d="M 57.45703,5.3739035 C 54.028612,4.7721369 31.186711,26.075737 31.871094,56.388709 c 1.48e-4,-0.01423 0.0018,-0.02801 0.002,-0.04223 -0.152981,-29.763867 22.19451,-50.5850556 25.583938,-49.9901345 1.011439,5.9829385 1.49463,11.2970415 1.509762,16.0877185 3.13e-4,0.01748 0.0017,0.03627 0.002,0.05369 0.05682,-5.054941 -0.427346,-10.709268 -1.511765,-17.1239041 z"
       id="path9" />
  </g>
</svg>
