<?xml version="1.0" encoding="UTF-8" standalone="no"?>
<svg
   width="62"
   height="62"
   version="1"
   id="svg7"
   sodipodi:docname="org.fooyin.fooyin.svg"
   inkscape:version="1.4 (e7c3feb100, 2024-10-09)"
   xmlns:inkscape="http://www.inkscape.org/namespaces/inkscape"
   xmlns:sodipodi="http://sodipodi.sourceforge.net/DTD/sodipodi-0.dtd"
   xmlns:xlink="http://www.w3.org/1999/xlink"
   xmlns="http://www.w3.org/2000/svg"
   xmlns:svg="http://www.w3.org/2000/svg">
  <defs
     id="defs7">
    <linearGradient
       id="linearGradient7"
       inkscape:collect="always">
      <stop
         style="stop-color:#384850;stop-opacity:1;"
         offset="0"
         id="stop8" />
      <stop
         style="stop-color:#384850;stop-opacity:1;"
         offset="0.59162253"
         id="stop10" />
      <stop
         style="stop-color:#eff2f6;stop-opacity:1;"
         offset="0.92173076"
         id="stop11" />
      <stop
         style="stop-color:#eff2f6;stop-opacity:1;"
         offset="1"
         id="stop9" />
    </linearGradient>
    <linearGradient
       id="linearGradient1"
       inkscape:collect="always">
      <stop
         style="stop-color:#566c80;stop-opacity:1;"
         offset="0"
         id="stop5" />
      <stop
         style="stop-color:#566c80;stop-opacity:1;"
         offset="0.28848785"
         id="stop7" />
      <stop
         style="stop-color:#495361;stop-opacity:1;"
         offset="1"
         id="stop6" />
    </linearGradient>
    <linearGradient
       id="c-3"
       gradientUnits="userSpaceOnUse"
       x1="24.072048"
       x2="23.959682"
       y1="0.75082099"
       y2="46.056854">
      <stop
         offset="0"
         stop-color="#fff"
         id="stop3" />
      <stop
         offset="1"
         stop-color="#d9d9d9"
         id="stop4" />
    </linearGradient>
    <linearGradient
       id="b-6"
       gradientUnits="userSpaceOnUse"
       x1="29.203026"
       x2="34.121048"
       xlink:href="#a-7"
       y1="24.827356"
       y2="29.224836" />
    <linearGradient
       id="a-7">
      <stop
         offset="0"
         id="stop1" />
      <stop
         offset="1"
         stop-opacity="0"
         id="stop2" />
    </linearGradient>
    <linearGradient
       id="d"
       gradientUnits="userSpaceOnUse"
       x1="15.948756"
       x2="25.031786"
       xlink:href="#a-7"
       y1="23.618279"
       y2="33.69899" />
    <linearGradient
       id="e"
       gradientUnits="userSpaceOnUse"
       x1="21.990562"
       x2="29.320522"
       xlink:href="#a-7"
       y1="33.780373"
       y2="41.931858" />
    <linearGradient
       id="paint154_linear_890_11"
       x1="778"
       y1="812.29199"
       x2="788"
       y2="812.29199"
       gradientUnits="userSpaceOnUse"
       gradientTransform="translate(-751,-696)">
      <stop
         stop-color="#EFF2F6"
         id="stop1050" />
      <stop
         offset="0.600785"
         stop-color="#B7C6CD"
         id="stop1051" />
    </linearGradient>
    <linearGradient
       id="paint155_linear_890_11"
       x1="783"
       y1="813"
       x2="783"
       y2="817"
       gradientUnits="userSpaceOnUse"
       gradientTransform="translate(-751,-696)">
      <stop
         stop-color="#EFF2F6"
         id="stop1052" />
      <stop
         offset="0.734138"
         stop-color="#B7C6CD"
         id="stop1053" />
    </linearGradient>
    <radialGradient
       id="paint156_radial_890_11"
       cx="0"
       cy="0"
       r="1"
       gradientUnits="userSpaceOnUse"
       gradientTransform="matrix(27.999986,27.999976,-27.999986,27.999976,32.302392,33.999998)">
      <stop
         offset="0.60067803"
         stop-color="#B7C6CD"
         id="stop1054"
         style="stop-color:#384850;stop-opacity:1;" />
      <stop
         offset="0.876735"
         stop-color="#EFF2F6"
         id="stop1055" />
    </radialGradient>
    <linearGradient
       id="paint157_linear_890_11"
       x1="796.84485"
       y1="799.43359"
       x2="768.90088"
       y2="770.81476"
       gradientUnits="userSpaceOnUse"
       gradientTransform="matrix(1.1666666,0,0,1.1666668,-881.19764,-881.8333)">
      <stop
         offset="0.00000057"
         stop-color="#2E2E41"
         id="stop1056"
         style="stop-color:#495361;stop-opacity:1;" />
      <stop
         offset="0.711139"
         stop-color="#566C80"
         id="stop1057" />
    </linearGradient>
    <linearGradient
       id="paint158_linear_890_11"
       x1="792"
       y1="794"
       x2="774"
       y2="776"
       gradientUnits="userSpaceOnUse"
       gradientTransform="translate(-751,-696)">
      <stop
         offset="0.304478"
         stop-color="#2E2E41"
         id="stop1058" />
      <stop
         offset="1"
         stop-color="#566C80"
         id="stop1059" />
    </linearGradient>
    <linearGradient
       id="paint159_linear_890_11"
       x1="788"
       y1="790"
       x2="778"
       y2="780"
       gradientUnits="userSpaceOnUse"
       gradientTransform="translate(-751,-696)">
      <stop
         offset="0.391394"
         stop-color="#5200FF"
         id="stop1060" />
      <stop
         offset="1"
         stop-color="#0085FF"
         id="stop1061" />
    </linearGradient>
    <linearGradient
       id="paint160_linear_890_11"
       x1="784"
       y1="798"
       x2="782"
       y2="796"
       gradientUnits="userSpaceOnUse"
       gradientTransform="translate(-751,-696)">
      <stop
         stop-color="#FF7E07"
         id="stop1062" />
      <stop
         offset="1"
         stop-color="#FFE607"
         id="stop1063" />
    </linearGradient>
    <linearGradient
       inkscape:collect="always"
       xlink:href="#linearGradient1"
       id="linearGradient6"
       x1="17.408081"
       y1="16.037786"
       x2="49.155514"
       y2="50.137749"
       gradientUnits="userSpaceOnUse" />
    <radialGradient
       inkscape:collect="always"
       xlink:href="#linearGradient7"
       id="radialGradient9"
       cx="32.302387"
       cy="34"
       fx="32.302387"
       fy="34"
       r="28"
       gradientUnits="userSpaceOnUse"
       gradientTransform="matrix(0.99999999,1,-1,0.99999999,34,-32.302387)" />
    <linearGradient
       id="c-3-6"
       gradientUnits="userSpaceOnUse"
       x1="24.072048"
       x2="23.959682"
       y1="0.75082099"
       y2="46.056854"
       gradientTransform="matrix(0.91471346,0,0,0.90068147,9.0468769,9.3836444)">
      <stop
         offset="0"
         stop-color="#fff"
         id="stop3-2" />
      <stop
         offset="1"
         stop-color="#d9d9d9"
         id="stop4-9" />
    </linearGradient>
    <linearGradient
       id="b-6-1"
       gradientUnits="userSpaceOnUse"
       x1="29.203026"
       x2="34.121048"
       xlink:href="#a-7"
       y1="24.827356"
       y2="29.224836"
       gradientTransform="matrix(1.1104534,0,0,1.0934187,4.3491158,4.7861435)" />
    <linearGradient
       id="d-0"
       gradientUnits="userSpaceOnUse"
       x1="15.948756"
       x2="25.031786"
       xlink:href="#a-7"
       y1="23.618279"
       y2="33.69899"
       gradientTransform="matrix(1.1104534,0,0,1.0934187,4.3491158,4.7861435)" />
    <linearGradient
       id="e-9"
       gradientUnits="userSpaceOnUse"
       x1="21.990562"
       x2="29.320522"
       xlink:href="#a-7"
       y1="33.780373"
       y2="41.931858"
       gradientTransform="matrix(1.1104534,0,0,1.0934187,4.3491158,4.7861435)" />
  </defs>
  <sodipodi:namedview
     id="namedview7"
     pagecolor="#ffffff"
     bordercolor="#000000"
     borderopacity="0.25"
     inkscape:showpageshadow="2"
     inkscape:pageopacity="0.0"
     inkscape:pagecheckerboard="0"
     inkscape:deskcolor="#d1d1d1"
     inkscape:zoom="8.3306018"
     inkscape:cx="23.647751"
     inkscape:cy="37.092158"
     inkscape:window-width="1920"
     inkscape:window-height="998"
     inkscape:window-x="0"
     inkscape:window-y="0"
     inkscape:window-maximized="1"
     inkscape:current-layer="svg7" />
  <g
     id="g1"
     transform="translate(-1.3023872,-3)">
    <path
       d="m 60.302387,34 c 0,15.46415 -12.535828,28 -28.000002,28 C 16.838222,62 4.3023873,49.46415 4.3023873,34 4.3023873,18.535835 16.838222,6 32.302385,6 47.766559,6 60.302387,18.535835 60.302387,34 Z"
       id="path154"
       style="fill:url(#radialGradient9)" />
    <path
       d="m 55.63572,34 c 0,12.88701 -10.446332,23.33332 -23.333335,23.33332 C 19.415386,57.33332 8.9690543,46.88701 8.9690543,34 c 0,-12.886994 10.4463317,-23.333332 23.3333307,-23.333332 12.887003,0 23.333335,10.446338 23.333335,23.333332 z"
       id="path155"
       style="fill:url(#linearGradient6)" />
  </g>
  <g
     id="g2"
     transform="matrix(0.73333333,0,0,0.73469387,17.2775,-32.997039)">
    <path
       style="opacity:0.2"
       d="m 22.594714,63.60776 c -3.35194,0.2182 -6.796332,1.117375 -9.847992,2.542859 -6.487424,3.47714 -9.032372,8.949821 -11.108998,14.802423 -1.23907104,3.115684 -2.855751,4.607294 -6.588507,6.310824 -2.0718588,0.944568 -4.3346208,1.983072 -6.202886,3.526668 -1.806441,1.052202 -1.145934,2.763934 0.393088,2.817226 H 2.468826 c 0.195424,0.819112 0.396549,1.926848 0.614256,2.806716 0.387204,1.620882 0.807548,3.044282 0.774872,4.363004 -0.05194,2.09598 -0.925219,3.92751 -2.448563,5.86721 -1.09162304,1.39079 -0.93890404,4.54078 0.770897,4.89649 0,0 6.692492,0.23319 9.931502,-0.17772 12.287474,-1.69696 34.141674,-10.29122 34.141674,-10.29122 1.333892,-0.51804 1.903452,-2.127798 1.202108,-3.39753 C 43.517824,91.895266 39.43907,85.66611 35.05893,80.710598 32.793228,78.127934 30.215394,73.036019 33.37771,71.921739 l 2.372792,-0.207958 c 2.338744,-0.204973 2.43421,-1.865019 1.574904,-3.481653 -1.313178,-1.967198 -4.199634,-2.533124 -6.13972,-3.113786 -2.695684,-0.803093 -5.748378,-1.485711 -8.590972,-1.510582 z"
       id="path1" />
    <path
       style="fill:#8660cb"
       d="m 22.595845,63.607082 c -3.35194,0.2182 -5.891367,1.023471 -8.943027,2.448955 -6.487424,3.47714 -9.938468,8.043725 -12.015094,13.896327 -1.23907104,3.115684 -2.855751,4.607294 -6.588507,6.310824 -2.0718588,0.944568 -4.3346208,1.983072 -6.202886,3.526668 -1.806441,1.052202 -1.145934,2.763934 0.393088,2.817226 H 2.468826 c 0.195424,0.819112 1.1379,1.844476 1.355607,2.724344 0.387204,1.620882 1.301782,2.797165 1.269106,4.115884 -0.05194,2.09598 -0.760475,4.50412 -2.283819,6.44382 -1.091623,1.39079 -1.021276,3.55231 0.688525,3.90802 0,0 5.621652,0.2332 8.860662,-0.17772 C 24.646381,107.92447 45.676858,99.577328 45.676858,99.577328 47.01075,99.059286 47.086076,97.861392 46.384732,96.59166 42.446984,90.812216 38.532974,85.242038 34.152834,80.286526 33.370512,79.39476 33.457071,77.627223 32.849475,76.404173 31.697399,74.085121 31.307308,71.650592 33.37771,70.921061 l 2.372792,-0.207958 c 2.338744,-0.204973 2.43421,-1.865019 1.574904,-3.481653 -0.978193,-1.465376 -2.829373,-2.153209 -4.512079,-2.648786 -0.576246,-0.169711 -1.626969,0.09498 -2.121875,-0.05314 -2.695684,-0.803092 -5.253013,-0.897571 -8.095607,-0.922442 z"
       id="path2" />
    <path
       style="opacity:0.1"
       d="m 22.595845,63.607082 c -3.35194,0.218199 -6.79795,1.117484 -9.84961,2.542969 -3.991594,2.139421 -6.484979,4.8872 -8.300781,8.044922 0,0 5.560188,2.117187 8.625,2.117187 3.99843,0 8.657893,-1.030374 10.007812,-1.347656 0.490438,-0.752298 1.059214,-1.454026 1.746094,-2.087891 3.19128,-2.504178 3.606737,-2.387962 7.296875,-4.148437 0.558028,-0.266223 1.366141,-2.09852 1.101563,-2.966797 -0.698848,-0.239973 -1.393647,-0.450576 -2.035156,-0.642578 -2.695684,-0.803093 -5.749205,-1.486848 -8.591797,-1.511719 z m 10.019531,13.412109 c -3.124422,5.435448 -5.672735,10.55257 -9.283203,14.738282 -0.1969,2.212046 -0.467697,4.308292 -0.873047,5.976562 -0.87234,3.590225 -3.887317,9.338145 -5.144531,11.650395 12.393261,-2.80747 28.939453,-9.3125 28.939453,-9.3125 0.774562,-0.30082 1.279523,-0.973763 1.439453,-1.730473 -0.04834,-0.227245 -0.119666,-0.453225 -0.238281,-0.667969 -3.937746,-5.779444 -8.016345,-12.00738 -12.396485,-16.96289 -0.894062,-1.019136 -1.823979,-2.364761 -2.443359,-3.691407 z"
       id="path3" />
    <path
       style="fill:#3f83d0"
       d="m 22.595848,62.607082 c -3.35194,0.2182 -6.797592,1.116759 -9.849252,2.542244 -3.991594,2.139421 -6.484914,4.88812 -8.300716,8.045842 0,0 5.559562,2.411914 8.624374,2.411914 3.99843,0 8.65837,-1.325341 10.00829,-1.642623 0.490438,-0.752298 1.059758,-1.453423 1.746638,-2.087288 3.19128,-2.504178 3.606122,-2.389282 7.29626,-4.149757 0.558028,-0.266223 1.36669,-2.098593 1.102112,-2.96687 -0.698848,-0.239973 -1.395304,-0.450452 -2.036814,-0.642454 -2.695684,-0.803093 -5.7483,-1.486137 -8.590892,-1.511008 z m 10.69746,2.178278 c -0.06976,-0.02482 0,0 0,0 z M 32.6153,76.018658 c -3.124422,5.435448 -5.672382,10.55213 -9.28285,14.737842 -0.1969,2.212046 -0.46797,4.309588 -0.87332,5.977858 -1.102428,4.537182 -5.767254,12.785662 -5.767254,12.785662 12.454128,-2.72417 29.561708,-9.44931 29.561708,-9.44931 1.333892,-0.518044 1.903902,-2.127282 1.202556,-3.397014 C 43.518394,90.894252 39.439616,84.66621 35.059476,79.7107 34.165414,78.691564 33.23468,77.345304 32.6153,76.018658 Z"
       id="path4-6" />
    <path
       style="opacity:0.1"
       d="m 4.41811,74.241848 c -1.122096,1.96124 -1.986754,4.07886 -2.779297,6.3125 -0.185034,0.465272 -0.386086,0.882298 -0.59375,1.28125 -0.24936004,2.96747 -0.07787,7.348488 0.955079,10.771484 h 0.46875 c 0.195423,0.819112 0.395574,1.926773 0.613281,2.806641 0.540238,2.261501 0.716058,4.134215 0.390625,5.878907 -0.0092,0.14108 -0.0049,0.28679 -0.01953,0.42578 -0.0917,0.86885 -0.292222,1.70474 -0.625,2.52148 -0.332775,0.81675 -0.797525,1.61428 -1.417968,2.4043 -0.158208,0.20156 -0.28361,0.44549 -0.388672,0.70703 -0.02939,0.0733 -0.0491,0.15389 -0.07422,0.23047 -0.06229,0.18994 -0.112843,0.38606 -0.148437,0.58985 -0.01836,0.10566 -0.03387,0.21088 -0.04492,0.31835 -0.0011,0.0104 -9.6e-4,0.0208 -0.002,0.0312 0.123605,0.98784 0.584945,1.8442 1.427734,2.01954 0,0 6.692631,0.23318 9.931641,-0.17774 1.594369,-0.22019 3.355257,-0.55991 5.203125,-0.97851 1.257354,-2.31253 4.272241,-8.06038 5.144531,-11.650395 0.40535,-1.66827 0.676157,-3.764516 0.873047,-5.976562 -2.469604,2.863078 -5.631117,6.093873 -9.632813,7.876953 -0.13812,0.04292 -0.280911,0.06587 -0.425781,0.06641 -0.788972,0 -1.429688,-0.632423 -1.429687,-1.412109 -0.07916,-0.651814 0.934712,-1.27812 1.855468,-2.16211 6.45747,-6.478066 5.783885,-15.647608 9.378906,-21.162109 -1.349855,0.317278 -6.009338,0.642574 -10.007768,0.642574 -2.35599,0 -6.726559,-0.70336 -8.652344,-1.365234 z"
       id="path5-7" />
    <path
       style="fill:#ffffff"
       d="m 4.417977,73.242042 c -2.288673,3.717212 -3.70003304,7.80306 -3.66002304,11.927902 0.02298,2.369217 0.71121704,4.751298 1.51160004,7.083778 0.554967,2.375083 1.33964,4.865563 1.4884,7.133252 v 0.0028 c -0.215889,2.798066 -1.624969,4.862956 -2.735602,6.962216 -0.02939,0.0733 -0.05021,0.15228 -0.07533,0.22886 -0.06229,0.18994 -0.112284,0.38627 -0.147878,0.59006 -0.01836,0.10566 -0.03359,0.21237 -0.04464,0.31985 -0.02049,0.19992 -0.02757,0.40132 -0.02233,0.6011 0.0024,0.0913 4.62e-4,0.18294 0.0084,0.27297 0.02561,0.29107 0.07224,0.57561 0.156248,0.83547 v 0.003 c 0.06567,0.20297 0.15441,0.38495 0.256694,0.55422 0.02871,0.0475 0.06321,0.0882 0.09487,0.13236 0.0866,0.12092 0.184164,0.22763 0.292967,0.31985 0.03991,0.0338 0.07983,0.0671 0.12277,0.0965 0.154414,0.10572 0.322098,0.194 0.516179,0.23437 0,0 6.691158,0.23445 9.930168,-0.17648 0.7315,-0.10102 1.503618,-0.23111 2.296298,-0.37775 0.0038,-6.8e-4 0.0076,-0.002 0.0112,-0.003 0.737842,-0.13814 1.497562,-0.2934 2.273978,-0.46323 0,0 4.664826,-8.24849 5.767254,-12.785664 0.40535,-1.66827 0.676428,-3.765812 0.873318,-5.977858 -2.469604,2.863078 -5.63114,6.094144 -9.632836,7.877224 -0.13812,0.04292 -0.282064,0.06544 -0.426934,0.06598 -0.788972,0 -1.42856,-0.63206 -1.42856,-1.411746 -0.07916,-0.651814 0.934698,-1.277744 1.855454,-2.161734 6.45747,-6.478066 5.783908,-15.64746 9.37893,-21.161961 -1.3499,0.317282 -6.00984,1.642701 -10.00827,1.642701 -2.35599,0 -6.698637,-1.75004 -8.624422,-2.411914 z"
       id="path6" />
    <circle
       style="fill:#3f3f3f"
       cx="12.757954"
       cy="81.607086"
       r="3"
       id="circle6" />
  </g>
</svg>
