<?xml version="1.0" encoding="UTF-8" standalone="no"?>
<svg
   width="62"
   height="62"
   version="1"
   id="svg6"
   sodipodi:docname="bluegriffon.svg"
   inkscape:version="1.4 (e7c3feb100, 2024-10-09)"
   xmlns:inkscape="http://www.inkscape.org/namespaces/inkscape"
   xmlns:sodipodi="http://sodipodi.sourceforge.net/DTD/sodipodi-0.dtd"
   xmlns="http://www.w3.org/2000/svg"
   xmlns:svg="http://www.w3.org/2000/svg">
  <defs
     id="defs6" />
  <sodipodi:namedview
     id="namedview6"
     pagecolor="#ffffff"
     bordercolor="#000000"
     borderopacity="0.25"
     inkscape:showpageshadow="2"
     inkscape:pageopacity="0.0"
     inkscape:pagecheckerboard="0"
     inkscape:deskcolor="#d1d1d1"
     inkscape:zoom="11.6875"
     inkscape:cx="31.957219"
     inkscape:cy="32"
     inkscape:window-width="1920"
     inkscape:window-height="994"
     inkscape:window-x="0"
     inkscape:window-y="0"
     inkscape:window-maximized="1"
     inkscape:current-layer="svg6" />
  <g
     id="g6"
     transform="matrix(1,0,0,0.99420505,-3.4866308,-1.6362535)">
    <path
       style="opacity:0.2;stroke-width:1.1073"
       d="m 50.099714,7.2842376 c -0.418501,0.030339 -0.789389,0.2384786 -1.118202,0.6337297 -0.370889,0.4472889 -0.558003,1.0506833 -0.503765,1.5854353 0.0808,0.7904974 0.313338,1.4437274 1.26658,3.3369284 0.523689,1.041845 0.695301,1.457004 0.875765,2.291813 0.254624,1.178004 0.357588,2.21097 0.35539,3.577176 -0.002,1.259953 -0.07875,2.177765 -0.279001,3.373497 -0.176037,1.050662 -0.54139,2.292895 -0.54139,2.292895 0,0 -0.380878,-4.520478 -0.633301,-5.462672 -0.391928,-1.763693 -1.261044,-2.508777 -2.702548,-2.290696 -0.404117,0.06096 -1.118204,0.33438 -1.118204,0.33438 l 1.098279,3.37236 -0.279001,0.09509 c 0,0 -0.965428,-1.581003 -1.658504,-2.272984 -0.970966,-1.15142 -2.019434,-1.702769 -3.111087,-1.639656 l -1.101617,0.242464 2.70366,10.155842 -0.670926,6.280864 c 0,0 -4.302367,-0.04424 -4.735253,0.01776 -0.439539,0.06408 -1.079494,0.223648 -1.676234,0.428465 -1.866656,0.639928 -3.499699,1.772541 -4.864817,3.392309 -1.257706,1.494631 -2.323893,3.396712 -3.373472,6.020657 l -1.154745,3.187492 c -0.396346,1.265463 -0.616686,2.60843 -0.653223,4.063211 -0.031,1.295354 0.06654,2.360432 0.335463,3.446549 0.315539,1.274316 0.786078,2.261898 1.435968,3.094476 l 0.540297,0.614464 c 0.837003,0.838117 1.74597,1.328577 2.906252,1.565504 0.829262,0.16941 2.275193,0.03866 2.275193,0.03866 l -1.118203,-3.30041 0.222514,-0.129535 0.428489,0.59675 c 0.868004,1.318615 1.536703,2.073692 2.294008,2.590727 0.450588,0.307781 1.509018,0.614469 1.509018,0.614469 0,0 0.738492,0.121776 1.267691,-0.01984 l 0.746228,-0.242458 -2.23866,-3.671311 c 0,0 2.416896,2.003936 4.752983,2.629473 1.709428,0.458363 3.313694,0.243579 4.532663,-0.672037 l 0.760615,-0.744007 -6.298559,-2.683709 c 0,0 5.446053,0.540275 7.436687,0.538075 0,0 1.597619,-0.04425 2.441272,-0.222538 1.31528,-0.2768 2.722473,-0.939965 3.875012,-1.807967 0.469428,-0.353189 0.672039,-0.61449 0.672039,-0.61449 l -10.902073,-0.0188 0.427353,-1.174691 0.298925,0.112951 c 2.482233,1.474704 7.825328,1.093855 11.702539,-0.839229 1.112693,-0.554689 1.845619,-1.077238 2.573009,-1.80797 0.870228,-0.872422 1.383929,-1.825691 1.455911,-2.739078 l -0.0586,-0.278997 c 0,0 -3.113301,0.896802 -3.68901,1.078352 -3.759863,1.19019 -5.31984,1.510157 -7.362525,1.548917 -1.166929,0.02218 -2.177772,-0.149462 -2.177772,-0.149462 0,0 9.499333,-2.212085 11.947231,-3.187497 2.946122,-1.173557 4.614586,-3.086717 5.140479,-5.871186 0.1373,-0.724075 0.131761,-1.992879 0.131761,-1.992879 l -6.766907,3.727775 -0.24135,-0.541392 0.542503,-0.297837 c 1.412729,-0.760587 2.484432,-1.561053 3.650274,-2.722472 2.178857,-2.171091 3.453175,-4.675479 3.764288,-7.360302 0.08288,-0.721847 0.05642,-2.04158 -0.05642,-2.70366 -0.133975,-0.783848 -0.535863,-1.974042 -0.535863,-1.974042 l -6.411488,9.317754 c 0,0 4.429679,-7.962601 4.657757,-8.554913 0.800463,-2.08146 0.911189,-3.848464 0.352073,-5.535747 0,0 -0.236924,-0.81154 -0.853613,-1.750392 l -0.804883,-1.024112 -3.986828,9.484921 -5.628745,9.560219 c 0,0 4.75298,-9.455032 5.738333,-11.162263 1.455919,-2.884119 2.158951,-5.213557 2.33166,-7.753337 0,0 0.08637,-0.276801 0,-1.098307 -0.182688,-1.754808 -0.802689,-3.941431 -1.455897,-5.164825 -0.379767,-0.709687 -0.869118,-1.2765356 -1.303118,-1.4891069 0,0 -0.262387,-0.1129303 -0.577928,-0.1129303 -0.326612,0 -0.633291,0.1295356 -0.633291,0.1295356 -0.607824,0.2856459 -0.782751,0.7340396 -0.782751,1.8843556 9.25e-4,0.617804 0.592312,3.51851 0.204812,7.007136 -0.248001,2.238659 -0.856926,4.812782 -1.753705,7.546329 l -0.892378,2.55417 0.839224,-3.933676 c 1.062845,-4.355512 1.31528,-5.909967 1.359572,-8.105443 0.02996,-1.521198 -0.0721,-2.57078 -0.354294,-3.801937 -0.169446,-0.738448 -0.236983,-0.93218 -0.484984,-1.43595 C 53.706804,9.8776211 52.49006,8.3807562 51.495834,7.7319668 50.983217,7.3971656 50.518215,7.2539026 50.099714,7.2842376 Z M 36.662281,19.174321 c -0.360926,0.0042 -0.7462,0.03866 -0.968739,0.07629 -1.398343,0.236919 -2.514347,0.750619 -3.094474,1.452549 -0.45504,0.549147 -0.583488,1.236688 -0.354301,1.90099 l 0.03866,0.186 -6.077128,0.689747 0.521462,2.143426 -0.297838,-0.203697 c -0.622206,-0.446191 -1.184632,-0.662082 -1.789134,-0.68977 -0.667616,-0.031 -1.09054,0.14946 -1.465881,0.510389 -0.375314,0.360939 -0.466089,0.472767 -0.622202,0.793844 -0.226962,0.468311 -0.341001,0.883503 -0.372002,1.435966 -0.03658,0.644349 0.105183,1.45812 0.335464,1.992853 l 0.07523,0.186001 h 0.315539 c 0.824842,0 1.473618,-1.055118 2.162273,-1.379503 0.479386,-0.117349 1.362887,-0.117349 1.957429,0 2.145659,0.426267 3.752126,1.882158 3.671289,3.336937 -0.02217,0.387501 -0.159427,0.642151 -0.50374,0.987574 -0.286761,0.287855 -0.660965,0.542501 -1.304232,0.893469 l -1.584311,0.9145 c -0.340999,0.22585 -0.763921,0.689759 -0.763921,0.689759 0,0 0.215883,0.1107 1.118203,-0.0188 l 1.041841,-0.149464 c 1.626391,-0.231389 2.713608,-0.545817 3.561674,-1.09828 0.806003,-0.524799 1.412728,-1.361802 1.639691,-2.238659 l 0.093,-0.241349 0.317755,0.168276 c 0.956563,0.59565 1.744868,0.809343 2.404717,0.669843 0.590115,-0.125116 1.155855,-0.480501 2.198804,-1.379504 l 0.540279,-0.445079 0.988697,2.142315 1.937504,-0.280107 c 0,0 -0.140615,-0.700819 -0.315539,-1.118206 -0.284538,-0.672042 -0.775002,-1.278769 -1.362908,-1.658505 0,0 -3.138758,-1.385043 -3.578299,-1.678429 -0.434002,-0.291192 -0.800464,-0.726307 -0.800464,-0.726307 l 0.335457,-0.129537 c 1.309762,-0.455037 2.206543,-1.318613 2.795545,-2.703643 0.242463,-0.570178 1.284286,-4.882521 1.284286,-4.882521 l -5.533521,2.663799 2.255266,-2.010582 0.03763,-0.093 c 0,0 0.03658,-0.130653 0.03658,-0.298926 0,-0.311116 -0.0122,-0.331039 -0.112945,-0.373116 -0.08184,-0.03432 -0.401893,-0.04112 -0.762818,-0.03762 z M 30.176613,30.67427 c -1.543359,0.191538 -3.065674,0.558001 -4.533757,1.072814 -1.52123,0.555806 -3.039124,1.28982 -4.162861,2.486659 0,0 -0.509305,0.457244 -0.344342,0.533654 l 9.171607,-2.584085 c 0.151688,-0.177153 0.178264,-1.609803 -0.130647,-1.509042 z m -19.141457,0.335463 c 0,0 -0.751744,0.05856 -1.044038,0.131739 -0.829364,0.20704 -1.3281318,0.701929 -1.6217478,1.602045 l -0.093,0.353185 h 0.3546172 c 0.6762474,-0.187114 1.2100022,-0.502651 1.6413526,-0.949928 0.352078,-0.365373 0.762816,-1.137041 0.762816,-1.137041 z m 2.627273,0.297813 c -0.445075,0.02764 -1.019691,0.164967 -1.379504,0.335467 -1.029653,0.489377 -1.631959,1.377302 -1.917586,2.778933 -0.167184,0.819301 -0.197077,1.267691 -0.20593,3.44655 l -0.03849,2.086969 -0.1297559,-0.093 -1.565615,-2.740173 C 8.197873,36.776866 7.778264,36.343951 7.4935055,36.153527 7.2500433,35.990787 6.8836884,35.855711 6.6372377,35.855711 c -0.7118954,0 -1.3400896,0.652116 -1.5288593,1.584319 -0.1815703,0.89569 0.1710544,1.639693 0.9126217,1.920894 0.5715098,0.1528 1.210886,0.10963 1.210886,0.10963 0,0 0.697171,1.606467 1.3061002,2.627269 0.6434749,1.079468 1.2303735,2.348249 1.2303735,2.34936 0,0 1.0719462,3.93259 1.1915232,4.603515 0.132851,0.735153 0.07521,1.398316 0.07521,1.398316 0,0 -0.140613,0.47499 -0.261273,0.763953 -0.333266,0.801575 -0.357618,1.101592 -0.129542,1.733782 0.455045,1.257728 1.253279,2.112433 2.404711,2.590735 0.29119,0.120661 0.338801,0.128425 0.408535,-0.03658 0,0 0.333269,-0.959894 0.428467,-1.734897 0.114034,-0.912299 0.02996,-1.562191 -0.448391,-3.671306 l -0.315537,-2.162248 5.499208,4.752978 c 0.659852,0.583467 1.052889,0.835891 1.602044,1.025206 l 0.670923,0.131763 c 0.617777,0 0.897893,-0.259078 0.931118,-0.859153 0.02213,-0.422929 -0.106273,-0.910081 -0.447305,-1.602042 -0.334349,-0.677579 -0.601159,-1.031854 -1.118198,-1.528969 -0.908971,-0.908964 -4.677708,-3.132121 -5.777101,-4.231511 -0.784963,-0.788277 -1.117114,-1.440396 -1.154767,-2.291782 -0.031,-0.700843 0.143921,-1.148118 0.596765,-1.603158 0.465002,-0.467228 0.976503,-0.724079 2.477779,-1.246657 1.586543,-0.552462 2.178861,-0.900113 2.441279,-1.435965 0,0 0.093,-0.246887 0.093,-0.560223 0,-0.300042 -0.07316,-0.521465 -0.07316,-0.521465 -0.345423,-0.658745 -1.388367,-1.057321 -3.077876,-1.156971 l -0.427365,-0.01675 -2.889654,2.832087 1.565509,-8.255997 c 0,0 -0.03308,-0.07754 -0.372004,-0.05642 z m 3.039099,2.627272 0.0167,0.13174 c 0.02334,0.252428 0.155,0.846965 0.262389,1.138152 0.333266,0.916703 0.913419,1.476931 1.863341,1.788043 0,0 0.329928,0.07977 0.354277,0.03658 0.03554,-0.06096 -0.131734,-1.247763 -0.131734,-1.247763 -0.218116,-0.931115 -0.776118,-1.492431 -1.731586,-1.733788 z M 3.7288741,37.812031 C 3.533462,38.10542 3.486631,38.709922 3.486631,38.950185 c 0,0.633279 0.289297,1.156966 0.8389952,1.528967 0.2129044,0.143926 0.2434623,0.143926 0.2422433,0.05329 L 4.25001,37.849703 Z m 19.9410519,8.219453 c 0,0 -0.397463,0.343227 -0.556915,0.577954 -0.439513,0.647666 -0.782741,1.612004 -0.988666,2.795545 -0.07316,0.420702 -0.07316,1.528968 -0.07316,1.528968 -9.26e-4,1.152542 0.02334,1.411591 0.241349,2.067044 0.240267,0.721853 0.638842,1.203467 1.118233,1.379504 0,0 0.130635,0.05642 0.315538,0.05642 0.601164,0.0062 1.160277,-0.663185 1.41713,-1.678457 0.219221,-0.862463 0.05642,-1.587628 -0.744003,-3.278247 -0.512589,-1.082777 -0.648781,-1.509042 -0.72959,-2.16227 -0.03866,-0.315509 0,-1.286503 0,-1.286503 z M 8.6115024,53.132735 c -0.050158,0 -0.04772,0.106255 0.036746,0.521462 0.1380613,0.67758 0.3832933,1.083893 0.8389949,1.323045 0.2797774,0.14615 0.4581369,0.191537 0.8780907,0.262387 0.153895,0.02646 0.315548,0.05538 0.315548,0.05538 0.109592,0.01426 0.0221,-0.425149 -0.168305,-0.821502 C 10.337655,54.107012 9.9191528,53.709551 9.4872543,53.488125 9.1728262,53.327586 8.6115018,53.132736 8.6115021,53.132736 Z"
       id="path1" />
    <path
       style="fill:#2a7fff;stroke-width:1.1073"
       d="m 50.099714,6.1759838 c -0.418501,0.030337 -0.789389,0.2379243 -1.118202,0.6336211 -0.370889,0.446844 -0.558003,1.0507922 -0.503765,1.5855438 0.0808,0.7905027 0.314426,1.4426128 1.267693,3.3358313 0.523688,1.041815 0.695275,1.458117 0.875739,2.292892 0.25465,1.178004 0.356501,2.210971 0.354303,3.578316 -0.002,1.25993 -0.07875,2.177742 -0.279001,3.373473 -0.176037,1.050668 -0.540304,2.292897 -0.540304,2.292897 0,0 -0.38085,-4.520479 -0.633276,-5.462673 -0.391927,-1.764776 -1.262155,-2.509893 -2.703659,-2.291777 -0.404117,0.06096 -1.118204,0.334348 -1.118204,0.334348 l 1.09939,3.373472 -0.279002,0.09508 c 0,0 -0.965426,-1.582118 -1.658505,-2.275198 -0.970965,-1.151415 -2.020543,-1.701687 -3.112196,-1.63857 l -1.100504,0.242461 2.702547,10.156973 -0.669817,6.280846 c 0,0 -4.303476,-0.04423 -4.736362,0.01777 -0.439539,0.06408 -1.078381,0.223642 -1.675121,0.428482 -1.866657,0.639927 -3.500812,1.772537 -4.86593,3.392285 -1.257706,1.494657 -2.323893,3.396743 -3.373472,6.02067 l -1.154745,3.187471 c -0.396346,1.265469 -0.616686,2.608435 -0.653223,4.063218 -0.031,1.295377 0.06654,2.360458 0.335463,3.446547 0.315539,1.274343 0.786078,2.261922 1.435968,3.094472 l 0.540297,0.614492 c 0.837003,0.839204 1.74597,1.328554 2.906252,1.565506 0.829262,0.169388 2.275193,0.03866 2.275193,0.03866 l -1.118203,-3.299292 0.222514,-0.130643 0.428489,0.596736 c 0.868004,1.318617 1.536703,2.073695 2.294008,2.590732 0.450588,0.307778 1.510129,0.614468 1.510129,0.614468 0,0 0.737381,0.121774 1.26658,-0.01984 l 0.746228,-0.241348 -2.237547,-3.672427 c 0,0 2.416895,2.003956 4.752979,2.629468 1.709431,0.458379 3.311474,0.244691 4.530443,-0.672012 l 0.762812,-0.744005 -6.299645,-2.683735 c 0,0 5.446053,0.540278 7.436687,0.53808 0,0 1.597619,-0.04421 2.441272,-0.222542 1.31528,-0.2768 2.722473,-0.939962 3.875012,-1.807966 0.469428,-0.35319 0.673153,-0.613355 0.673153,-0.613355 l -10.903187,-0.01985 0.428462,-1.173554 0.297816,0.111815 c 2.482233,1.474714 7.826411,1.093854 11.703653,-0.839226 1.112689,-0.554665 1.845617,-1.077246 2.573008,-1.807968 0.870228,-0.872431 1.381729,-1.82567 1.453691,-2.739089 l -0.05642,-0.279001 c 0,0 -3.113311,0.896804 -3.689012,1.078381 -3.759889,1.190167 -5.320965,1.510128 -7.363638,1.548892 -1.166929,0.0223 -2.178856,-0.149464 -2.178856,-0.149464 0,0 9.499306,-2.212083 11.9472,-3.187475 2.946126,-1.173576 4.615704,-3.086732 5.141597,-5.871203 0.137298,-0.72408 0.13176,-1.992859 0.13176,-1.992859 l -6.765786,3.727749 -0.242464,-0.540277 0.541388,-0.298924 c 1.412732,-0.760618 2.485549,-1.561081 3.651391,-2.722472 2.178856,-2.171124 3.454285,-4.676594 3.765397,-7.361438 0.08288,-0.721853 0.05642,-2.040471 -0.05642,-2.702547 C 65.247803,24.81306 64.843684,23.62288 64.843684,23.62288 l -6.411481,9.317744 c 0,0 4.429674,-7.962602 4.65775,-8.554914 0.800468,-2.081431 0.913407,-3.848435 0.354304,-5.535745 0,0 -0.239152,-0.811538 -0.855844,-1.751508 l -0.802665,-1.025207 -3.987943,9.487129 -5.628739,9.560209 c 0,0 4.754088,-9.455034 5.739443,-11.162236 1.455889,-2.884125 2.15783,-5.213556 2.330544,-7.754479 0,0 0.08639,-0.277891 0,-1.099393 C 60.056345,13.349665 59.437455,11.164158 58.78425,9.9407561 58.40449,9.2310736 57.914026,8.6642147 57.480024,8.4516426 c 0,0 -0.261279,-0.1129294 -0.576815,-0.1129294 -0.326615,0 -0.634413,0.1295356 -0.634413,0.1295356 -0.607815,0.2856449 -0.78274,0.7329318 -0.78274,1.8832542 9.08e-4,0.617789 0.593426,3.519628 0.205925,7.009338 -0.248,2.238655 -0.856927,4.812777 -1.75372,7.546325 l -0.893483,2.554197 0.839233,-3.933701 c 1.062852,-4.355512 1.316391,-5.909942 1.360693,-8.106524 0.02996,-1.521243 -0.07316,-2.570818 -0.35542,-3.801945 -0.169416,-0.73846 -0.235847,-0.932232 -0.483847,-1.435968 C 53.707916,8.7693652 52.491172,7.2728337 51.496948,6.6236044 50.984331,6.2889112 50.518215,6.1456491 50.099714,6.1759838 Z"
       id="path2" />
    <path
       style="fill:#2a7fff;stroke-width:1.1073"
       d="m 8.612056,52.025581 c -0.050158,0 -0.047266,0.10627 0.0372,0.521464 0.1380619,0.677577 0.3830739,1.085004 0.8387757,1.324153 0.2797747,0.146152 0.4563649,0.189312 0.8761973,0.260191 0.153889,0.02646 0.316653,0.05642 0.316653,0.05642 0.109592,0.01425 0.0221,-0.424036 -0.168302,-0.820389 C 10.337656,53.000992 9.9199298,52.601304 9.4880317,52.379881 9.1736003,52.219341 8.612056,52.025579 8.612056,52.025579 Z m 15.058957,-7.101226 c 0,0 -0.399664,0.343203 -0.559089,0.577928 -0.439541,0.647689 -0.781654,1.612005 -0.987579,2.795546 -0.07316,0.420702 -0.0742,1.528968 -0.0742,1.528968 -9.12e-4,1.152541 0.02438,1.412704 0.242464,2.068157 0.240263,0.721853 0.638843,1.203467 1.118229,1.379505 0,0 0.131738,0.05538 0.316654,0.05538 0.60116,0.0062 1.159162,-0.662078 1.416016,-1.677319 0.21922,-0.862483 0.05537,-1.588767 -0.745092,-3.279386 -0.512614,-1.08278 -0.646577,-1.509042 -0.727413,-2.162245 -0.03866,-0.315539 0,-1.286507 0,-1.28651 z M 3.7288741,36.704903 C 3.533462,36.998291 3.486631,37.601681 3.486631,37.841919 c 0,0.633302 0.2889663,1.156993 0.8386643,1.528995 0.2129044,0.143924 0.2435704,0.146125 0.2423544,0.05538 l -0.3168662,-2.68377 z m 12.9715669,-3.876127 0.0188,0.130628 c 0.02334,0.251335 0.155001,0.845875 0.261275,1.137041 0.334379,0.916726 0.913418,1.478044 1.863346,1.789154 0,0 0.329924,0.07979 0.354273,0.03658 0.03554,-0.06096 -0.130646,-1.247742 -0.130646,-1.247742 C 18.8494,33.743319 18.290282,33.181984 17.33482,32.94063 Z m -5.665285,-2.926199 c 0,0 -0.751744,0.05746 -1.0439261,0.130652 -0.8293645,0.20704 -1.3279123,0.703041 -1.6215284,1.603159 l -0.093207,0.35316 h 0.3541713 c 0.6762443,-0.187109 1.2093364,-0.502648 1.6405662,-0.949932 0.352074,-0.365346 0.763926,-1.137039 0.763924,-1.137039 z"
       id="path3" />
    <path
       style="fill:#545d6e;stroke-width:1.1073;fill-opacity:1"
       d="m 13.662429,30.200396 c -0.445075,0.0278 -1.018577,0.164989 -1.378421,0.335489 -1.029624,0.489348 -1.634127,1.376164 -1.919779,2.777817 -0.167187,0.819282 -0.195967,1.268784 -0.20482,3.447664 l -0.03775,2.08697 -0.1304225,-0.093 -1.5656178,-2.739087 C 8.1979855,35.670825 7.7784854,35.236823 7.4937296,35.046398 7.2502667,34.883634 6.8829161,34.748561 6.6364651,34.748561 c -0.7118946,0 -1.3395383,0.652113 -1.5283049,1.584341 -0.1815734,0.895665 0.1716082,1.638555 0.9131731,1.919781 0.5715093,0.152776 1.2114415,0.111815 1.2114415,0.111815 0,0 0.6957299,1.606467 1.3046619,2.627267 0.6434723,1.079466 1.2301501,2.348249 1.2301501,2.348249 0,0 1.0727202,3.93259 1.1922972,4.603514 0.132851,0.735154 0.07519,1.398342 0.07519,1.398342 0,0 -0.140613,0.474965 -0.261272,0.763927 -0.333264,0.80158 -0.35873,1.10162 -0.130651,1.733783 0.45504,1.257732 1.253273,2.11243 2.404705,2.590735 0.291188,0.120684 0.339915,0.127311 0.409653,-0.03762 0,0 0.333265,-0.958779 0.428464,-1.733782 0.114038,-0.912303 0.031,-1.562193 -0.447273,-3.67131 l -0.316656,-2.162248 5.498096,4.752981 c 0.65985,0.583464 1.054003,0.835889 1.603158,1.025219 l 0.67092,0.130634 c 0.617776,0 0.899005,-0.257964 0.932208,-0.858041 0.0223,-0.422926 -0.106266,-0.91008 -0.447278,-1.602042 -0.334347,-0.677575 -0.601187,-1.031854 -1.118227,-1.528969 -0.908964,-0.908964 -4.678789,-3.131009 -5.778184,-4.230401 -0.784962,-0.788279 -1.118228,-1.441508 -1.15588,-2.292896 -0.031,-0.700838 0.143956,-1.147005 0.59677,-1.602044 0.465001,-0.467225 0.977611,-0.7263 2.478889,-1.248851 1.586542,-0.552476 2.178858,-0.899005 2.441279,-1.434883 0,0 0.093,-0.246888 0.093,-0.560201 0,-0.30004 -0.0742,-0.521466 -0.0742,-0.521466 -0.345421,-0.658764 -1.386154,-1.056229 -3.075664,-1.155878 l -0.428459,-0.01777 -2.88855,2.832087 1.565504,-8.256008 c 0,0 -0.03435,-0.07756 -0.373101,-0.05642 z M 36.662281,18.067189 c -0.360926,0.0043 -0.747315,0.03762 -0.969853,0.07524 -1.398342,0.236921 -2.513233,0.751768 -3.09336,1.453695 -0.45504,0.549155 -0.583488,1.236668 -0.354301,1.900967 l 0.03762,0.186 -6.076022,0.68974 0.521465,2.14346 -0.297836,-0.204841 c -0.622206,-0.446161 -1.184632,-0.662078 -1.789132,-0.689738 -0.667619,-0.031 -1.090542,0.150577 -1.46588,0.511502 -0.375317,0.360923 -0.466091,0.471625 -0.622202,0.792701 -0.226964,0.468341 -0.341002,0.883502 -0.372002,1.435971 -0.03658,0.644377 0.105194,1.459225 0.335461,1.993969 l 0.0742,0.186001 h 0.316627 c 0.824839,0 1.473613,-1.055092 2.162268,-1.379507 0.479386,-0.117356 1.361781,-0.117356 1.956318,0 2.145655,0.426262 3.753237,1.882155 3.672403,3.336962 -0.02217,0.387501 -0.159425,0.642126 -0.503742,0.987556 -0.286759,0.287873 -0.660965,0.543609 -1.304226,0.894574 l -1.584323,0.913419 c -0.341001,0.225847 -0.763926,0.689733 -0.763926,0.689733 0,0 0.215885,0.11073 1.118207,-0.0188 l 1.042953,-0.149461 c 1.626388,-0.231413 2.712508,-0.546951 3.56056,-1.099415 0.806004,-0.524784 1.41273,-1.359553 1.639693,-2.236438 l 0.093,-0.24246 0.317764,0.168302 c 0.956555,0.595627 1.743741,0.810426 2.403597,0.670926 0.590113,-0.125117 1.156966,-0.480501 2.199921,-1.379504 l 0.540272,-0.447301 0.987581,2.143431 1.938619,-0.280088 c 0,0 -0.141726,-0.70084 -0.316652,-1.118234 -0.284537,-0.672035 -0.772775,-1.278735 -1.36069,-1.658502 0,0 -3.139863,-1.383929 -3.579402,-1.677316 -0.434004,-0.291192 -0.800467,-0.727417 -0.800467,-0.727417 L 36.66228,25.80283 c 1.309768,-0.455037 2.206539,-1.317504 2.795541,-2.702543 0.242467,-0.57019 1.285398,-4.883629 1.285398,-4.883629 l -5.534631,2.66489 2.255266,-2.012776 0.03658,-0.093 c 0,0 0.03761,-0.12954 0.03761,-0.297845 0,-0.311105 -0.01116,-0.331039 -0.111842,-0.373105 -0.08184,-0.03434 -0.403001,-0.04112 -0.763927,-0.03762 z"
       id="path4" />
    <path
       style="fill:#d54c41;stroke-width:1.1073"
       d="m 28.608905,24.373485 c 0,0 0.829241,-0.577926 1.57989,-0.54804 0.873541,0.03554 1.450358,0.806003 1.450358,0.806003 -1.934169,1.192392 -3.030248,-0.257963 -3.030248,-0.257963 z m 1.567708,5.193627 c -1.543359,0.191539 -3.066791,0.558002 -4.534873,1.072823 -1.521225,0.555798 -3.039119,1.289838 -4.16286,2.486654 0,0 -0.50819,0.457267 -0.343227,0.533652 l 9.170496,-2.584087 c 0.151685,-0.177144 0.179375,-1.609772 -0.129536,-1.509042 z"
       id="path5" />
    <path
       style="opacity:0.2;fill:#ffffff;stroke-width:1.1073"
       d="m 50.099714,6.1765378 c -0.418501,0.030339 -0.789389,0.2379241 -1.118202,0.6336209 -0.370889,0.4468439 -0.558003,1.0502384 -0.503765,1.58499 0.01324,0.1339658 0.04112,0.2668212 0.06654,0.3996793 0.08184,-0.3155367 0.224749,-0.6222147 0.437327,-0.8779656 0.328812,-0.3952513 0.699699,-0.6028437 1.1182,-0.6331786 0.418503,-0.030337 0.883506,0.1132616 1.39612,0.447178 0.994228,0.6487868 2.210968,2.1456491 2.90847,3.5594642 0.248002,0.503766 0.31554,0.697502 0.48493,1.435968 0.211481,0.922268 0.322187,1.743771 0.352073,2.738001 0,-0.0155 0.002,-0.02892 0.002,-0.0432 0.02996,-1.521238 -0.07212,-2.570815 -0.354308,-3.801938 C 54.71966,10.880688 54.652121,10.68692 54.404121,10.18318 53.706804,8.7693652 52.49006,7.2733875 51.495834,6.6241582 50.983217,6.289465 50.518215,6.1462029 50.099714,6.1765378 Z m 6.802324,2.1621457 c -0.326612,0 -0.633303,0.1295357 -0.633303,0.1295357 -0.607812,0.2856459 -0.782737,0.7340399 -0.782737,1.8843678 0,0.04644 0.02996,0.293387 0.03658,0.365351 0.07755,-0.623315 0.291178,-0.9277841 0.746204,-1.14257 0,0 0.30669,-0.129538 0.633301,-0.129538 0.315541,0 0.577928,0.1129302 0.577928,0.1129302 0.434001,0.2125715 0.923355,0.7794408 1.303119,1.4891038 0.653199,1.223394 1.271004,3.401163 1.455892,5.155979 0,0 0.08637,-0.276773 0,-1.098277 C 60.05632,13.350749 59.436317,11.16413 58.783118,9.940728 58.403353,9.2310441 57.914,8.6641848 57.479999,8.4516143 c 0,0 -0.262388,-0.1129308 -0.57793,-0.1129308 z m -15.151313,7.0646935 -1.101617,0.242464 0.279001,1.04627 0.822616,-0.181578 c 1.091653,-0.06304 2.140121,0.488268 3.111087,1.639695 0.693076,0.69308 1.658504,2.274085 1.658504,2.274085 l 0.279001,-0.0951 -0.380852,-1.169148 C 46.270113,18.91977 45.492888,17.673113 44.861812,17.04315 43.890846,15.891723 42.842378,15.340373 41.750725,15.403457 Z m 5.583354,0.07316 c -0.162761,-0.002 -0.335462,0.0095 -0.514837,0.03762 -0.404117,0.06096 -1.118204,0.334347 -1.118204,0.334347 l 0.322164,0.993118 c 0.244689,-0.08534 0.551375,-0.183775 0.79604,-0.220309 1.441504,-0.218119 2.31062,0.527002 2.702548,2.291777 0.252423,0.942196 0.633301,5.462672 0.633301,5.462672 0,0 0.365353,-1.242235 0.54139,-2.292897 0.200386,-1.195731 0.276774,-2.113545 0.279001,-3.373493 0,-0.19043 -0.01777,-0.339897 -0.02229,-0.518132 -0.02438,0.961002 -0.09092,1.794669 -0.256849,2.784468 -0.176035,1.050679 -0.541387,2.292898 -0.541387,2.292898 0,0 -0.38088,-4.520478 -0.633302,-5.462666 -0.343198,-1.544474 -1.050671,-2.308402 -2.187704,-2.329438 z m 8.471883,0.115154 c -0.01673,0.569075 -0.04649,1.154739 -0.115153,1.769216 -0.248,2.238643 -0.856928,4.812766 -1.753705,7.54631 l -0.286762,0.821506 -0.605619,2.839825 0.892381,-2.554174 c 0.896777,-2.733546 1.505705,-5.30767 1.753705,-7.546329 0.115153,-1.037388 0.131762,-1.988429 0.115153,-2.876354 z m 5.978595,0.48271 -3.986855,9.486045 -1.490202,2.529819 c -1.743772,3.377899 -4.138514,8.137527 -4.138514,8.137527 l 5.628716,-9.560218 3.986855,-9.486036 0.80489,1.024117 c 0.616689,0.939966 0.853614,1.751506 0.853614,1.751506 0.176039,0.53032 0.27789,1.070618 0.319962,1.624197 0.07523,-0.95327 -0.02892,-1.853379 -0.319962,-2.731349 0,0 -0.236925,-0.811538 -0.853614,-1.751509 z m -25.122276,1.992872 c -0.360926,0.0042 -0.7462,0.03866 -0.968739,0.0763 -1.398343,0.236922 -2.514347,0.750653 -3.094474,1.452578 -0.437337,0.527002 -0.564653,1.181312 -0.372028,1.821248 0.07524,-0.252434 0.190452,-0.494895 0.372028,-0.714092 0.580127,-0.701953 1.696131,-1.215657 3.094474,-1.452577 0.222539,-0.03762 0.607813,-0.07212 0.968739,-0.07626 0.205927,-9.31e-4 0.293389,0.01426 0.436229,0.0222 l 0.365349,-0.326593 0.03763,-0.093 c 0,0 0.03658,-0.130647 0.03658,-0.298949 0,-0.311094 -0.0122,-0.331015 -0.112954,-0.373094 -0.08184,-0.03444 -0.401887,-0.04112 -0.762815,-0.03762 z m 4.079828,0.149462 -3.228438,1.554433 c -0.0062,0.03204 -0.0122,0.112922 -0.0122,0.112922 l -0.03763,0.093 -2.255266,2.010585 5.222427,-2.514316 c 0.125084,-0.505969 0.311085,-1.256626 0.311084,-1.256626 z m -8.582581,3.479756 -5.953133,0.676466 0.262387,1.077258 5.814747,-0.659849 -0.03866,-0.186 c -0.105187,-0.303378 -0.126202,-0.611162 -0.08534,-0.90788 z m -7.518637,1.926443 c -0.667616,-0.031 -1.090541,0.149467 -1.46588,0.510397 -0.375316,0.360925 -0.46609,0.472737 -0.622202,0.793814 -0.226963,0.46832 -0.341001,0.883503 -0.372001,1.435968 -0.01428,0.25686 0.0042,0.542501 0.04112,0.825925 0.05084,-0.412962 0.14615,-0.775003 0.331033,-1.154741 0.156119,-0.321079 0.246895,-0.432887 0.622226,-0.793832 0.375318,-0.360937 0.798244,-0.541397 1.465861,-0.510397 0.604501,0.02766 1.166927,0.243577 1.789155,0.689768 l 0.297804,0.203693 -0.322184,-1.326354 c -0.612282,-0.434024 -1.16808,-0.6466 -1.764823,-0.674272 z m 40.203825,0 -3.348011,4.864795 c -1.356268,2.485546 -3.063502,5.560091 -3.063502,5.560091 l 6.411513,-9.317751 c 0,0 0.401888,1.190192 0.535853,1.974045 0.0432,0.248002 0.05851,0.628866 0.07626,0.995344 0.02763,-0.721881 0.0122,-1.585457 -0.07626,-2.10249 -0.133965,-0.783863 -0.535853,-1.974035 -0.535853,-1.974034 z m -21.576101,2.969358 -0.586773,5.491443 c 0,0 -4.302367,-0.04423 -4.735253,0.01776 -0.439539,0.06408 -1.079494,0.223629 -1.676234,0.428464 -1.866656,0.639926 -3.499699,1.77254 -4.864817,3.392289 -1.257706,1.494654 -2.323893,3.39673 -3.373472,6.020667 l -1.154745,3.187477 c -0.396346,1.265466 -0.616686,2.608434 -0.653223,4.063222 -0.0062,0.260178 0.01776,0.480502 0.02228,0.724066 0.06304,-1.306431 0.270152,-2.527599 0.63108,-3.680136 l 1.154751,-3.187473 c 1.049573,-2.623962 2.115763,-4.52602 3.373489,-6.020671 1.365097,-1.619769 2.998135,-2.752372 4.864792,-3.39231 0.596759,-0.204815 1.236692,-0.364247 1.676233,-0.428464 0.432887,-0.062 4.735254,-0.01777 4.735254,-0.01777 l 0.670938,-6.28087 z M 13.662429,30.20046 c -0.445075,0.02765 -1.019691,0.164978 -1.379504,0.335478 -1.029653,0.489348 -1.631959,1.377276 -1.917586,2.778931 -0.167184,0.819271 -0.197077,1.267664 -0.20593,3.446547 l -0.03851,2.086953 -0.1297532,-0.093 -1.5656177,-2.740198 C 8.1978723,35.669708 7.778263,35.23682 7.4935048,35.046395 7.2500426,34.883631 6.8836877,34.748558 6.637237,34.748558 c -0.7118954,0 -1.3400897,0.652112 -1.5288596,1.584342 -0.072067,0.3565 -0.037654,0.674239 0.04981,0.963202 0.2237549,-0.849191 0.8073297,-1.440394 1.4790364,-1.440394 0.2464503,0 0.6128056,0.135076 0.8562676,0.297816 0.2847588,0.190424 0.7043678,0.623339 0.9319958,0.968764 l 1.5656175,2.740174 0.1297583,0.093 0.0385,-2.086969 c 0.0085,-2.17886 0.03871,-2.627249 0.205931,-3.44655 0.285628,-1.401632 0.887938,-2.289556 1.917588,-2.778933 0.359816,-0.1705 0.93443,-0.307779 1.379501,-0.335467 0.093,-0.0052 0.118465,0.0052 0.171588,0.01116 l 0.200419,-1.061745 c 0,0 -0.03308,-0.07742 -0.372004,-0.05642 z m 1.696126,5.480381 -2.631666,2.579652 -0.257964,1.359561 2.88963,-2.832071 0.427383,0.01677 c 1.665127,0.09858 2.697008,0.488251 3.057934,1.129294 9.13e-4,-0.0032 0.093,-0.246897 0.093,-0.558002 0,-0.300041 -0.07316,-0.521463 -0.07316,-0.521463 -0.345421,-0.658764 -1.388351,-1.057327 -3.077858,-1.156967 z m -1.9707,6.979446 c -0.04649,0.20039 -0.07079,0.414078 -0.05992,0.66873 0.03762,0.851387 0.369805,1.503507 1.154771,2.291784 1.099389,1.099392 4.868121,3.322549 5.777094,4.231514 0.517034,0.497113 0.78385,0.851386 1.1182,1.528967 0.171615,0.34765 0.288962,0.642153 0.360924,0.904542 0.04776,-0.11404 0.07751,-0.246889 0.08638,-0.409653 0.02212,-0.422928 -0.106279,-0.910081 -0.447299,-1.602046 -0.334333,-0.677571 -0.601143,-1.03186 -1.118183,-1.528975 -0.908967,-0.908964 -4.677704,-3.132123 -5.777093,-4.231514 -0.643268,-0.645466 -0.972075,-1.205667 -1.094966,-1.85336 z"
       id="path6" />
  </g>
</svg>
