<?xml version="1.0" encoding="UTF-8" standalone="no"?>
<svg
   width="62"
   height="62"
   version="1"
   id="svg9"
   sodipodi:docname="bluefish.svg"
   inkscape:version="1.4 (e7c3feb100, 2024-10-09)"
   xmlns:inkscape="http://www.inkscape.org/namespaces/inkscape"
   xmlns:sodipodi="http://sodipodi.sourceforge.net/DTD/sodipodi-0.dtd"
   xmlns="http://www.w3.org/2000/svg"
   xmlns:svg="http://www.w3.org/2000/svg">
  <sodipodi:namedview
     id="namedview9"
     pagecolor="#ffffff"
     bordercolor="#000000"
     borderopacity="0.25"
     inkscape:showpageshadow="2"
     inkscape:pageopacity="0.0"
     inkscape:pagecheckerboard="0"
     inkscape:deskcolor="#d1d1d1"
     inkscape:zoom="11.6875"
     inkscape:cx="31.957219"
     inkscape:cy="32"
     inkscape:window-width="1920"
     inkscape:window-height="994"
     inkscape:window-x="0"
     inkscape:window-y="0"
     inkscape:window-maximized="1"
     inkscape:current-layer="svg9" />
  <defs
     id="defs2">
    <linearGradient
       id="a"
       x1="45"
       x2="45"
       y1="54"
       y2="21"
       gradientUnits="userSpaceOnUse">
      <stop
         offset="0"
         id="stop1" />
      <stop
         stop-opacity="0"
         offset="1"
         id="stop2" />
    </linearGradient>
  </defs>
  <g
     transform="matrix(1.4761825,0,0,1.4721826,-4.4286022,-27.888017)"
     stroke-width="0.77778"
     id="g9">
    <path
       d="M 19.029,24 C 10.1479,24.24291 4,31.4392 4,40.756 4,50.0729 11.0104,57.879 19.152,58 c 7.3681,0.10071 15.296,-7.6712 17.93,-13.703 1.2253,2.9283 3.6304,6.7034 7.918,6.7031 0,0 -2,-5.2857 -2,-10.143 0,-4.8573 2,-9.8574 2,-9.8574 -4.3656,0 -6.7864,3.861 -7.9902,6.7676 -2.664,-5.2439 -10.348,-13.67 -17.98,-13.768 z"
       stroke-width="0.77778"
       id="path2"
       style="fill:#4b81c4;fill-opacity:1" />
    <path
       d="m 20,32.999 a 6,7.9971 0 1 1 -12,0 6,7.9971 0 1 1 12,0 z"
       opacity="0.9"
       stroke-width="0.77778"
       id="path3"
       style="fill:#ffffff;fill-opacity:1" />
    <g
       id="g8">
      <g
         stroke-width="0.77778"
         id="g6">
        <path
           d="M 20,33 C 19.00581,32.11198 15.7442,26.7954 8,30.1751 8,26.8018 9.3438,22 13.7444,22 19.3768,22.17463 20,29.6267 20,33 Z"
           id="path4"
           style="fill:#75bfd4;fill-opacity:1" />
        <path
           d="m 16,34.001 a 2,2 0 0 1 -4,0 2,2 0 1 1 4,0 z"
           id="path5"
           style="fill:#272b2d;fill-opacity:1" />
        <path
           d="m 14.5,33.1 a 1,1 0 0 1 -2,0 1,1 0 1 1 2,0 z"
           opacity="0.35"
           id="path6"
           style="fill:#ffffff;fill-opacity:1;opacity:0.69469599" />
      </g>
      <path
         d="M 14,47.5 C 14,49.433 8.433,51 6.5,51 4.567,51 3,49.433 3,47.5 3,45.567 4.567,44 6.5,44 8.433,44 14,45.567 14,47.5 Z"
         id="path7"
         style="fill:#75bfd4;fill-opacity:1" />
      <path
         transform="matrix(0.77778,0,0,0.77778,-0.88889,15.111)"
         d="m 59,20.428 c -5.6129,0 -8.7257,4.9641 -10.273,8.7012 -0.68844,-1.3552 -1.6477,-2.8778 -2.8047,-4.4434 a 35.593,35.593 0 0 1 0.04492,1.2812 35.593,35.593 0 0 1 -13.141,27.594 c 7.0466,-3.105 13.447,-10.203 15.994,-16.037 1.5753,3.7649 4.6671,8.6194 10.18,8.6191 0,0 -2.5723,-6.7964 -2.5723,-13.041 0,-6.2446 2.5723,-12.674 2.5723,-12.674 z"
         opacity="0.15"
         stroke-width="1"
         id="path8"
         style="fill:#24456e;fill-opacity:1" />
    </g>
  </g>
</svg>
