<?xml version="1.0" encoding="UTF-8" standalone="no"?>
<svg
   width="62"
   height="62"
   version="1"
   id="svg5"
   sodipodi:docname="boinc.svg"
   inkscape:version="1.4 (e7c3feb100, 2024-10-09)"
   xmlns:inkscape="http://www.inkscape.org/namespaces/inkscape"
   xmlns:sodipodi="http://sodipodi.sourceforge.net/DTD/sodipodi-0.dtd"
   xmlns="http://www.w3.org/2000/svg"
   xmlns:svg="http://www.w3.org/2000/svg">
  <defs
     id="defs5" />
  <sodipodi:namedview
     id="namedview5"
     pagecolor="#ffffff"
     bordercolor="#000000"
     borderopacity="0.25"
     inkscape:showpageshadow="2"
     inkscape:pageopacity="0.0"
     inkscape:pagecheckerboard="0"
     inkscape:deskcolor="#d1d1d1"
     inkscape:zoom="11.75"
     inkscape:cx="32"
     inkscape:cy="32"
     inkscape:window-width="1920"
     inkscape:window-height="998"
     inkscape:window-x="0"
     inkscape:window-y="0"
     inkscape:window-maximized="1"
     inkscape:current-layer="svg5" />
  <g
     id="g5"
     transform="matrix(0.98214286,0,0,0.98245614,-0.42857152,-0.92982455)">
    <path
       style="opacity:0.2"
       d="M 32,5 C 16.488,5 4,17.488 4,33 4,48.512 16.488,61 32,61 47.512,61 60,48.512 60,33 60,17.488 47.512,5 32,5 Z"
       id="path1" />
    <path
       style="fill:#212e3f;fill-opacity:1"
       d="M 32,4 C 16.488,4 4,16.488 4,32 4,47.512 16.488,60 32,60 47.512,60 60,47.512 60,32 60,16.488 47.512,4 32,4 Z"
       id="path2" />
    <circle
       style="opacity:0.2"
       cx="32"
       cy="33"
       r="8"
       id="circle2" />
    <circle
       style="fill:#ffd556"
       cx="32"
       cy="32"
       r="8"
       id="circle3" />
    <path
       style="opacity:0.2"
       d="m 48.515624,10.394499 -4.031248,6.980469 -3.058594,5.296876 A 14,14 0 0 1 46,32.999968 14,14 0 0 1 45.339844,37.23825 l 5.28125,3.05078 A 20,20 0 0 0 52,32.999968 20,20 0 0 0 48.714844,22.046844 l 4.335938,-7.507814 c -1.353996,-1.54404 -2.87346,-2.930753 -4.535158,-4.144531 z m -34.976562,1.554688 c -1.54404,1.353996 -2.930753,2.873459 -4.1445308,4.535156 L 16.375,20.515592 21.671876,23.574186 A 14,14 0 0 1 32,18.999968 a 14,14 0 0 1 4.238282,0.660156 l 3.05078,-5.28125 A 20,20 0 0 0 32,12.999968 20,20 0 0 0 21.046876,16.285124 Z M 13.378906,25.710906 A 20,20 0 0 0 12,32.999968 20,20 0 0 0 15.285156,43.953092 L 11.65625,50.23825 c 1.39992,1.480428 2.942872,2.822836 4.636719,3.96875 l 3.222656,-5.582032 3.058593,-5.296876 A 14,14 0 0 1 18,32.999968 14,14 0 0 1 18.660156,28.761686 Z M 42.328124,42.42575 A 14,14 0 0 1 32,46.999968 14,14 0 0 1 27.761718,46.339812 l -3.05078,5.28125 A 20,20 0 0 0 32,52.999968 20,20 0 0 0 42.953124,49.714812 l 6.07422,3.507812 c 1.66153,-1.272846 3.187176,-2.70792 4.523438,-4.316406 L 47.625,45.484344 Z"
       id="path3" />
    <path
       style="fill:#5a9cfe"
       d="M 48.515624,9.3945312 44.484376,16.375 41.425782,21.671876 A 14,14 0 0 1 46,32 14,14 0 0 1 45.339844,36.238282 l 5.28125,3.05078 A 20,20 0 0 0 52,32 20,20 0 0 0 48.714844,21.046876 l 4.335938,-7.507814 c -1.353996,-1.54404 -2.87346,-2.930753 -4.535158,-4.1445308 z M 13.539062,10.949219 c -1.54404,1.353996 -2.930753,2.873459 -4.1445308,4.535156 l 6.9804688,4.03125 5.296876,3.058593 A 14,14 0 0 1 32,18 a 14,14 0 0 1 4.238282,0.660156 l 3.05078,-5.28125 A 20,20 0 0 0 32,12 20,20 0 0 0 21.046876,15.285156 Z M 13.378906,24.710938 A 20,20 0 0 0 12,32 20,20 0 0 0 15.285156,42.953124 l -4.335937,7.507814 c 1.353996,1.54404 2.873459,2.930752 4.535156,4.14453 L 19.515625,47.625 22.574218,42.328124 A 14,14 0 0 1 18,32 14,14 0 0 1 18.660156,27.761718 Z M 42.328124,41.425782 A 14,14 0 0 1 32,46 14,14 0 0 1 27.761718,45.339844 l -3.05078,5.28125 A 20,20 0 0 0 32,52 20,20 0 0 0 42.953124,48.714844 l 7.507814,4.335938 c 1.54404,-1.353996 2.930752,-2.87346 4.14453,-4.535158 L 47.625,44.484376 Z"
       id="path4" />
    <path
       style="opacity:0.1;fill:#ffffff"
       d="M 32,4 C 16.488,4 4,16.488 4,32 4,32.11345 4.01128,32.224113 4.017578,32.335938 4.3691213,17.134181 16.710728,5 32,5 47.289272,5 59.630879,17.134181 59.982422,32.335938 59.98872,32.224113 60,32.11345 60,32 60,16.488 47.512,4 32,4 Z"
       id="path5" />
  </g>
</svg>
