<?xml version="1.0" encoding="UTF-8" standalone="no"?>
<svg
   width="62"
   height="62"
   version="1"
   id="svg4"
   sodipodi:docname="bomi.svg"
   inkscape:version="1.4 (e7c3feb100, 2024-10-09)"
   xmlns:inkscape="http://www.inkscape.org/namespaces/inkscape"
   xmlns:sodipodi="http://sodipodi.sourceforge.net/DTD/sodipodi-0.dtd"
   xmlns="http://www.w3.org/2000/svg"
   xmlns:svg="http://www.w3.org/2000/svg">
  <defs
     id="defs4" />
  <sodipodi:namedview
     id="namedview4"
     pagecolor="#ffffff"
     bordercolor="#000000"
     borderopacity="0.25"
     inkscape:showpageshadow="2"
     inkscape:pageopacity="0.0"
     inkscape:pagecheckerboard="0"
     inkscape:deskcolor="#d1d1d1"
     inkscape:zoom="11.6875"
     inkscape:cx="31.914439"
     inkscape:cy="32"
     inkscape:window-width="1920"
     inkscape:window-height="994"
     inkscape:window-x="0"
     inkscape:window-y="0"
     inkscape:window-maximized="1"
     inkscape:current-layer="svg4" />
  <g
     id="g4"
     transform="translate(-0.5,-1.0000005)">
    <rect
       style="opacity:0.2;stroke-width:0.982303"
       width="55"
       height="55.017544"
       x="4"
       y="4.9824572"
       rx="16.499996"
       ry="16.50526"
       id="rect1" />
    <rect
       style="fill:#c83771;stroke-width:0.982303"
       width="55"
       height="55.017544"
       x="4"
       y="4"
       rx="16.499996"
       ry="16.50526"
       id="rect2" />
    <path
       style="opacity:0.2;stroke-width:0.982303"
       d="m 31.5,14.807019 c -2.008652,0.0069 -4.001465,0.35585 -5.892858,1.032342 v 22.546868 c 0,1.088535 -0.876071,1.964865 -1.964284,1.964865 -1.088215,0 -1.964286,-0.87633 -1.964286,-1.964865 V 17.804228 c -4.90462,3.278004 -7.851693,8.786982 -7.857145,14.687395 0,9.766502 7.914969,17.683816 17.678573,17.683816 9.763604,0 17.678572,-7.917314 17.678572,-17.683816 0,-9.766503 -7.914968,-17.683819 -17.678572,-17.683819 z m -2.076248,9.824343 c 0.144111,0.0026 0.285286,0.04239 0.410533,0.115927 l 6.016608,3.48371 6.014642,3.487641 c 0.584803,0.338432 0.584803,1.205963 0,1.544388 l -6.014642,3.487641 -6.016608,3.483713 c -0.572257,0.331674 -1.279466,-0.09362 -1.280715,-0.770228 V 25.517517 c -3.21e-4,-0.493691 0.391138,-0.892339 0.870182,-0.886155 z"
       id="path2" />
    <path
       style="fill:#ffffff;stroke-width:0.982303"
       d="m 31.5,13.82456 c -2.008652,0.0069 -4.001465,0.355854 -5.892858,1.032346 v 22.546863 c 0,1.088537 -0.876071,1.964869 -1.964284,1.964869 -1.088215,0 -1.964286,-0.876332 -1.964286,-1.964869 V 16.821772 c -4.90462,3.278004 -7.851693,8.786983 -7.857145,14.687392 0,9.766502 7.914969,17.683819 17.678573,17.683819 9.763604,0 17.678572,-7.917317 17.678572,-17.683819 0,-9.766501 -7.914968,-17.683815 -17.678572,-17.683815 z m -2.076248,9.824345 c 0.144111,0.0026 0.285286,0.0424 0.410533,0.115927 l 6.016608,3.483712 6.014642,3.487642 c 0.584803,0.338427 0.584803,1.205958 0,1.54439 l -6.014642,3.48764 -6.016608,3.483711 c -0.572257,0.331676 -1.279466,-0.09362 -1.280715,-0.770231 V 24.535062 c -3.21e-4,-0.493691 0.391138,-0.89234 0.870182,-0.886157 z"
       id="path3" />
    <path
       style="opacity:0.2;fill:#ffffff;stroke-width:0.982303"
       d="M 20.500766,4 C 11.359768,4 4,11.362116 4,20.50603 v 0.982457 C 4,12.344572 11.359768,4.982456 20.500766,4.982456 H 42.499232 C 51.640232,4.982456 59,12.344572 59,21.488487 V 20.50603 C 59,11.362116 51.640232,4 42.499232,4 Z"
       id="path4" />
  </g>
</svg>
