<?xml version="1.0" encoding="UTF-8" standalone="no"?>
<svg
   width="62"
   height="62"
   version="1"
   id="svg5"
   sodipodi:docname="boostnote.svg"
   inkscape:version="1.4 (e7c3feb100, 2024-10-09)"
   xmlns:inkscape="http://www.inkscape.org/namespaces/inkscape"
   xmlns:sodipodi="http://sodipodi.sourceforge.net/DTD/sodipodi-0.dtd"
   xmlns="http://www.w3.org/2000/svg"
   xmlns:svg="http://www.w3.org/2000/svg">
  <defs
     id="defs5" />
  <sodipodi:namedview
     id="namedview5"
     pagecolor="#ffffff"
     bordercolor="#000000"
     borderopacity="0.25"
     inkscape:showpageshadow="2"
     inkscape:pageopacity="0.0"
     inkscape:pagecheckerboard="0"
     inkscape:deskcolor="#d1d1d1"
     inkscape:zoom="11.6875"
     inkscape:cx="31.957219"
     inkscape:cy="32.256684"
     inkscape:window-width="1920"
     inkscape:window-height="994"
     inkscape:window-x="0"
     inkscape:window-y="0"
     inkscape:window-maximized="1"
     inkscape:current-layer="svg5" />
  <g
     id="g5"
     transform="translate(-0.5,-1)">
    <ellipse
       style="opacity:0.2;stroke-width:0.982303"
       cx="31.5"
       cy="32.49123"
       id="circle1"
       rx="27.5"
       ry="27.50877" />
    <ellipse
       style="fill:#009968;stroke-width:0.982303;fill-opacity:1"
       cx="31.5"
       cy="31.50877"
       id="circle2"
       rx="27.5"
       ry="27.50877" />
    <path
       style="opacity:0.2;fill:#ffffff;stroke-width:0.982303"
       d="M 31.499996,4 A 27.499996,27.508766 0 0 0 4,31.508766 27.499996,27.508766 0 0 0 4.0172646,31.992321 27.499996,27.508766 0 0 1 31.499996,4.9824559 27.499996,27.508766 0 0 1 58.975056,31.992321 27.499996,27.508766 0 0 0 58.99999,31.508766 27.499996,27.508766 0 0 0 31.499996,4 Z"
       id="path2" />
    <path
       style="opacity:0.2;stroke-width:0.982303"
       d="m 43.285711,21.684207 -29.464284,9.433111 10.907155,4.536185 3.824984,0.767542 0.821014,3.92599 4.481023,10.810848 z m -19.777133,17.71107 c 0,-0.05192 -0.344535,-0.02212 -0.636857,0.05369 -1.117877,0.291861 -2.739961,1.49098 -3.610148,2.671052 -0.986917,1.338392 -1.513914,2.907582 -1.511573,4.505489 5.77e-4,0.446926 0.02204,0.522764 0.153454,0.579495 0.148957,0.06432 1.413362,-0.0147 1.925924,-0.118972 1.477869,-0.302063 2.734522,-0.990594 3.859516,-2.118422 0.707216,-0.708976 1.12426,-1.293638 1.534599,-2.149125 0.268635,-0.560031 0.453944,-1.241978 0.360629,-1.335524 -0.01869,-0.0177 -0.168437,0.0689 -0.329939,0.195727 -1.219742,0.781912 -2.193407,1.347946 -3.575614,1.619522 0.358696,-1.359656 0.74066,-2.397093 1.454032,-3.373359 0.206677,-0.278549 0.375977,-0.51572 0.375977,-0.529604 z"
       id="path3" />
    <path
       style="fill:#ffffff;stroke-width:0.982303"
       d="m 43.285711,19.719297 -29.464284,9.431188 10.907156,4.538107 3.824983,0.767542 0.821014,3.924069 4.482943,10.812769 z M 23.29949,37.40926 c -0.122871,0.01041 -0.281607,0.03687 -0.427769,0.07487 -1.117877,0.291862 -2.741877,1.492896 -3.612061,2.672973 -0.986919,1.338382 -1.512001,2.905656 -1.50966,4.503563 5.77e-4,0.446926 0.02009,0.522764 0.151542,0.579494 0.148956,0.06431 1.413352,-0.0129 1.925919,-0.11705 1.47787,-0.302062 2.73644,-0.994431 3.861432,-2.122257 0.707218,-0.708978 1.126176,-1.293639 1.536513,-2.149126 0.268642,-0.560032 0.450109,-1.240059 0.356797,-1.333604 -0.01869,-0.0177 -0.166523,0.0689 -0.328019,0.19572 -1.219744,0.781915 -2.193408,1.347943 -3.575615,1.61952 0.358696,-1.359656 0.740661,-2.395172 1.454033,-3.371434 0.206677,-0.278553 0.375975,-0.51764 0.375975,-0.531524 0,-0.02591 -0.08626,-0.03149 -0.209087,-0.02108 z"
       id="path4" />
    <path
       style="fill:#c4f1e3;stroke-width:0.982303"
       d="m 13.821427,29.150874 10.906723,4.537337 3.825414,0.767923 14.732147,-14.736837 z"
       id="path5" />
  </g>
</svg>
