<?xml version="1.0" encoding="UTF-8" standalone="no"?>
<svg
   width="62"
   height="62"
   version="1"
   id="svg6"
   sodipodi:docname="bovo.svg"
   inkscape:version="1.4 (e7c3feb100, 2024-10-09)"
   xmlns:inkscape="http://www.inkscape.org/namespaces/inkscape"
   xmlns:sodipodi="http://sodipodi.sourceforge.net/DTD/sodipodi-0.dtd"
   xmlns:xlink="http://www.w3.org/1999/xlink"
   xmlns="http://www.w3.org/2000/svg"
   xmlns:svg="http://www.w3.org/2000/svg">
  <defs
     id="defs6">
    <linearGradient
       id="linearGradient2"
       inkscape:collect="always">
      <stop
         style="stop-color:#b7c6cd;stop-opacity:1;"
         offset="0"
         id="stop11" />
      <stop
         style="stop-color:#f0f2f5;stop-opacity:1;"
         offset="1"
         id="stop12" />
    </linearGradient>
    <linearGradient
       inkscape:collect="always"
       xlink:href="#linearGradient1"
       id="linearGradient3"
       x1="2.2407002"
       y1="1.9924343"
       x2="13.939299"
       y2="14.687953"
       gradientUnits="userSpaceOnUse"
       gradientTransform="matrix(3.7795276,0,0,3.7795276,0.1627749,-0.29954578)" />
    <linearGradient
       id="linearGradient1"
       inkscape:collect="always">
      <stop
         style="stop-color:#6f7c91;stop-opacity:1"
         offset="0"
         id="stop1" />
      <stop
         style="stop-color:#647083;stop-opacity:1;"
         offset="0.18713774"
         id="stop14" />
      <stop
         style="stop-color:#454e5a;stop-opacity:1;"
         offset="0.7402221"
         id="stop13" />
      <stop
         style="stop-color:#373e48;stop-opacity:1;"
         offset="1"
         id="stop3" />
    </linearGradient>
    <linearGradient
       inkscape:collect="always"
       xlink:href="#linearGradient2"
       id="linearGradient8"
       gradientUnits="userSpaceOnUse"
       gradientTransform="matrix(0,1.125,-1,0,68.254575,0.62500504)"
       x1="27"
       y1="46.479176"
       x2="27"
       y2="42.479176" />
    <linearGradient
       inkscape:collect="always"
       xlink:href="#linearGradient2"
       id="linearGradient9"
       gradientUnits="userSpaceOnUse"
       gradientTransform="matrix(0,1.125,-1,0,82.864201,0.6250052)"
       x1="27"
       y1="46.479176"
       x2="27"
       y2="42.479176" />
    <linearGradient
       inkscape:collect="always"
       xlink:href="#linearGradient2"
       id="linearGradient10"
       gradientUnits="userSpaceOnUse"
       gradientTransform="matrix(0,1.125,-1,0,12.817313,-3.2947871)"
       x1="27"
       y1="46.479176"
       x2="27"
       y2="42.479176" />
    <linearGradient
       inkscape:collect="always"
       xlink:href="#linearGradient2"
       id="linearGradient11"
       gradientUnits="userSpaceOnUse"
       gradientTransform="matrix(0,1.125,-1,0,27.426939,-3.2947869)"
       x1="27"
       y1="46.479176"
       x2="27"
       y2="42.479176" />
  </defs>
  <sodipodi:namedview
     id="namedview6"
     pagecolor="#ffffff"
     bordercolor="#000000"
     borderopacity="0.25"
     inkscape:showpageshadow="2"
     inkscape:pageopacity="0.0"
     inkscape:pagecheckerboard="0"
     inkscape:deskcolor="#d1d1d1"
     inkscape:zoom="11.6875"
     inkscape:cx="30.502674"
     inkscape:cy="33.796791"
     inkscape:window-width="1920"
     inkscape:window-height="994"
     inkscape:window-x="0"
     inkscape:window-y="0"
     inkscape:window-maximized="1"
     inkscape:current-layer="svg6" />
  <g
     style="opacity:0.296765"
     transform="matrix(1.7810519,0,0,1.7810519,-119.93516,-68.053311)"
     id="g1702">
    <rect
       ry="6.6098609"
       rx="6.6098609"
       y="40.709618"
       x="69.839508"
       height="29.810888"
       width="29.810888"
       id="rect1634"
       style="fill:none;fill-opacity:1;stroke:#000000;stroke-width:0.1;stroke-linecap:round;stroke-linejoin:round;stroke-miterlimit:4;stroke-dasharray:none;stroke-opacity:0.02" />
    <rect
       style="fill:none;fill-opacity:1;stroke:#000000;stroke-width:0.2;stroke-linecap:round;stroke-linejoin:round;stroke-miterlimit:4;stroke-dasharray:none;stroke-opacity:0.02"
       id="rect1638"
       width="29.810888"
       height="29.810888"
       x="69.839508"
       y="40.709618"
       rx="6.6098609"
       ry="6.6098609" />
    <rect
       ry="6.6098609"
       rx="6.6098609"
       y="40.709618"
       x="69.839508"
       height="29.810888"
       width="29.810888"
       id="rect1640"
       style="fill:none;fill-opacity:1;stroke:#000000;stroke-width:0.3;stroke-linecap:round;stroke-linejoin:round;stroke-miterlimit:4;stroke-dasharray:none;stroke-opacity:0.02" />
    <rect
       style="fill:none;fill-opacity:1;stroke:#000000;stroke-width:0.4;stroke-linecap:round;stroke-linejoin:round;stroke-miterlimit:4;stroke-dasharray:none;stroke-opacity:0.02"
       id="rect1642"
       width="29.810888"
       height="29.810888"
       x="69.839508"
       y="40.709618"
       rx="6.6098609"
       ry="6.6098609" />
    <rect
       ry="6.6098609"
       rx="6.6098609"
       y="40.709618"
       x="69.839508"
       height="29.810888"
       width="29.810888"
       id="rect1644"
       style="fill:none;fill-opacity:1;stroke:#000000;stroke-width:0.5;stroke-linecap:round;stroke-linejoin:round;stroke-miterlimit:4;stroke-dasharray:none;stroke-opacity:0.02" />
    <rect
       style="fill:none;fill-opacity:1;stroke:#000000;stroke-width:0.6;stroke-linecap:round;stroke-linejoin:round;stroke-miterlimit:4;stroke-dasharray:none;stroke-opacity:0.02"
       id="rect1646"
       width="29.810888"
       height="29.810888"
       x="69.839508"
       y="40.709618"
       rx="6.6098609"
       ry="6.6098609" />
    <rect
       ry="6.6098609"
       rx="6.6098609"
       y="40.709618"
       x="69.839508"
       height="29.810888"
       width="29.810888"
       id="rect1648"
       style="fill:none;fill-opacity:1;stroke:#000000;stroke-width:0.7;stroke-linecap:round;stroke-linejoin:round;stroke-miterlimit:4;stroke-dasharray:none;stroke-opacity:0.02" />
    <rect
       style="fill:none;fill-opacity:1;stroke:#000000;stroke-width:0.8;stroke-linecap:round;stroke-linejoin:round;stroke-miterlimit:4;stroke-dasharray:none;stroke-opacity:0.02"
       id="rect1650"
       width="29.810888"
       height="29.810888"
       x="69.839508"
       y="40.709618"
       rx="6.6098609"
       ry="6.6098609" />
    <rect
       ry="6.6098609"
       rx="6.6098609"
       y="40.709618"
       x="69.839508"
       height="29.810888"
       width="29.810888"
       id="rect1652"
       style="fill:none;fill-opacity:1;stroke:#000000;stroke-width:1;stroke-linecap:round;stroke-linejoin:round;stroke-miterlimit:4;stroke-dasharray:none;stroke-opacity:0.02" />
    <rect
       style="fill:none;fill-opacity:1;stroke:#000000;stroke-width:1.2;stroke-linecap:round;stroke-linejoin:round;stroke-miterlimit:4;stroke-dasharray:none;stroke-opacity:0.02"
       id="rect1654"
       width="29.810888"
       height="29.810888"
       x="69.839508"
       y="40.709618"
       rx="6.6098609"
       ry="6.6098609" />
    <rect
       ry="6.6098609"
       rx="6.6098609"
       y="40.709618"
       x="69.839508"
       height="29.810888"
       width="29.810888"
       id="rect1656"
       style="fill:none;fill-opacity:1;stroke:#000000;stroke-width:1.4;stroke-linecap:round;stroke-linejoin:round;stroke-miterlimit:4;stroke-dasharray:none;stroke-opacity:0.02" />
    <rect
       style="fill:none;fill-opacity:1;stroke:#000000;stroke-width:1.6;stroke-linecap:round;stroke-linejoin:round;stroke-miterlimit:4;stroke-dasharray:none;stroke-opacity:0.02"
       id="rect1658"
       width="29.810888"
       height="29.810888"
       x="69.839508"
       y="40.709618"
       rx="6.6098609"
       ry="6.6098609" />
    <rect
       ry="6.6098609"
       rx="6.6098609"
       y="40.709618"
       x="69.839508"
       height="29.810888"
       width="29.810888"
       id="rect1660"
       style="fill:none;fill-opacity:1;stroke:#000000;stroke-width:1.8;stroke-linecap:round;stroke-linejoin:round;stroke-miterlimit:4;stroke-dasharray:none;stroke-opacity:0.02" />
    <rect
       style="fill:none;fill-opacity:1;stroke:#000000;stroke-width:2;stroke-linecap:round;stroke-linejoin:round;stroke-miterlimit:4;stroke-dasharray:none;stroke-opacity:0.02"
       id="rect1662"
       width="29.810888"
       height="29.810888"
       x="69.839508"
       y="40.709618"
       rx="6.6098609"
       ry="6.6098609" />
    <rect
       ry="6.6098609"
       rx="6.6098609"
       y="40.709618"
       x="69.839508"
       height="29.810888"
       width="29.810888"
       id="rect1664"
       style="fill:none;fill-opacity:1;stroke:#000000;stroke-width:2.2;stroke-linecap:round;stroke-linejoin:round;stroke-miterlimit:4;stroke-dasharray:none;stroke-opacity:0.02" />
    <rect
       style="fill:none;fill-opacity:1;stroke:#000000;stroke-width:2.6;stroke-linecap:round;stroke-linejoin:round;stroke-miterlimit:4;stroke-dasharray:none;stroke-opacity:0.02"
       id="rect1666"
       width="29.810888"
       height="29.810888"
       x="69.839508"
       y="40.709618"
       rx="6.6098609"
       ry="6.6098609" />
    <rect
       ry="6.6098609"
       rx="6.6098609"
       y="40.709618"
       x="69.839508"
       height="29.810888"
       width="29.810888"
       id="rect1668"
       style="fill:none;fill-opacity:1;stroke:#000000;stroke-width:3;stroke-linecap:round;stroke-linejoin:round;stroke-miterlimit:4;stroke-dasharray:none;stroke-opacity:0.02" />
    <rect
       style="fill:none;fill-opacity:1;stroke:#000000;stroke-width:3.4;stroke-linecap:round;stroke-linejoin:round;stroke-miterlimit:4;stroke-dasharray:none;stroke-opacity:0.02"
       id="rect1670"
       width="29.810888"
       height="29.810888"
       x="69.839508"
       y="40.709618"
       rx="6.6098609"
       ry="6.6098609" />
    <rect
       ry="6.6098609"
       rx="6.6098609"
       y="40.709618"
       x="69.839508"
       height="29.810888"
       width="29.810888"
       id="rect1672"
       style="fill:none;fill-opacity:1;stroke:#000000;stroke-width:3.8;stroke-linecap:round;stroke-linejoin:round;stroke-miterlimit:4;stroke-dasharray:none;stroke-opacity:0.02" />
    <rect
       style="fill:none;fill-opacity:1;stroke:#000000;stroke-width:4.2;stroke-linecap:round;stroke-linejoin:round;stroke-miterlimit:4;stroke-dasharray:none;stroke-opacity:0.02"
       id="rect1674"
       width="29.810888"
       height="29.810888"
       x="69.839508"
       y="40.709618"
       rx="6.6098609"
       ry="6.6098609" />
    <rect
       ry="6.6098609"
       rx="6.6098609"
       y="40.709618"
       x="69.839508"
       height="29.810888"
       width="29.810888"
       id="rect1676"
       style="fill:none;fill-opacity:1;stroke:#000000;stroke-width:4.6;stroke-linecap:round;stroke-linejoin:round;stroke-miterlimit:4;stroke-dasharray:none;stroke-opacity:0.02" />
    <rect
       style="fill:none;fill-opacity:1;stroke:#000000;stroke-width:5;stroke-linecap:round;stroke-linejoin:round;stroke-miterlimit:4;stroke-dasharray:none;stroke-opacity:0.02"
       id="rect1678"
       width="29.810888"
       height="29.810888"
       x="69.839508"
       y="40.709618"
       rx="6.6098609"
       ry="6.6098609" />
  </g>
  <rect
     ry="11.772506"
     rx="11.772506"
     y="4.4526353"
     x="4.4714041"
     height="53.094742"
     width="53.094742"
     id="rect849"
     style="fill:url(#linearGradient3);stroke-width:3.77953" />
  <path
     d="m 23.775401,13.000006 c 1.105,0 2,1.006875 2,2.25 v 31.5 c 0,1.243126 -0.895,2.25 -2,2.25 -1.105,0 -2,-1.006874 -2,-2.25 v -31.5 c 0,-1.243125 0.895,-2.25 2,-2.25 z"
     id="path529-1"
     style="fill:url(#linearGradient8);stroke-width:1.06066" />
  <path
     d="m 38.385027,13.000006 c 1.105,0 2,1.006875 2,2.25 v 31.5 c 0,1.243126 -0.895,2.25 -2,2.25 -1.105,0 -2,-1.006874 -2,-2.25 v -31.5 c 0,-1.243125 0.895,-2.25 2,-2.25 z"
     id="path529-1-0"
     style="fill:url(#linearGradient9);stroke-width:1.06066" />
  <g
     id="g11"
     transform="rotate(90,1.3709674,56.728022)">
    <path
       d="m -31.661861,9.0802139 c 1.105,0 2,1.0068751 2,2.2500001 v 31.5 c 0,1.243126 -0.895,2.25 -2,2.25 -1.105,0 -2,-1.006874 -2,-2.25 v -31.5 c 0,-1.243125 0.895,-2.2500001 2,-2.2500001 z"
       id="path529-1-6"
       style="fill:url(#linearGradient10);stroke-width:1.06066" />
    <path
       d="m -17.052235,9.0802139 c 1.105,0 2,1.0068751 2,2.2500001 v 31.5 c 0,1.243126 -0.895,2.25 -2,2.25 -1.105,0 -2,-1.006874 -2,-2.25 v -31.5 c 0,-1.243125 0.895,-2.2500001 2,-2.2500001 z"
       id="path529-1-0-2"
       style="fill:url(#linearGradient11);stroke-width:1.06066" />
  </g>
  <path
     style="fill:#ffd42a"
     d="m 17,13.000006 a 4,4 0 0 0 -4,4 4,4 0 0 0 4,4 4,4 0 0 0 4,-4 4,4 0 0 0 -4,-4 z m 0,2 a 2,2 0 0 1 2,2 2,2 0 0 1 -2,2 2,2 0 0 1 -2,-2 2,2 0 0 1 2,-2 z"
     id="path3-6" />
  <path
     style="fill:#b380ff"
     d="m 45.5,41.5 a 4,4 0 0 0 -4,4 4,4 0 0 0 4,4 4,4 0 0 0 4,-4 4,4 0 0 0 -4,-4 z m 0,2 a 2,2 0 0 1 2,2 2,2 0 0 1 -2,2 2,2 0 0 1 -2,-2 2,2 0 0 1 2,-2 z"
     id="path3-1" />
  <path
     style="fill:#e74c3c;stroke-width:1.13122"
     d="m 33.48067,27.000007 -2.400456,2.400456 -2.400456,-2.400456 -1.599544,1.599544 2.400456,2.400456 -2.400456,2.400456 1.599544,1.599544 2.400456,-2.400456 2.400456,2.400456 1.599544,-1.599544 -2.400456,-2.400456 2.400456,-2.400456 z"
     id="path6-8" />
</svg>
