<?xml version="1.0" encoding="UTF-8" standalone="no"?>
<svg
   width="62"
   height="62"
   version="1"
   id="svg13"
   sodipodi:docname="Boxy-SVG.svg"
   inkscape:version="1.4 (e7c3feb100, 2024-10-09)"
   xmlns:inkscape="http://www.inkscape.org/namespaces/inkscape"
   xmlns:sodipodi="http://sodipodi.sourceforge.net/DTD/sodipodi-0.dtd"
   xmlns:xlink="http://www.w3.org/1999/xlink"
   xmlns="http://www.w3.org/2000/svg"
   xmlns:svg="http://www.w3.org/2000/svg">
  <defs
     id="defs13">
    <linearGradient
       inkscape:collect="always"
       xlink:href="#linearGradient4212"
       id="linearGradient1742"
       gradientUnits="userSpaceOnUse"
       gradientTransform="matrix(1.4,0,0,1.4,75.416157,-46.270689)"
       x1="40.262001"
       y1="16.121"
       x2="24.035999"
       y2="7.3169999" />
    <linearGradient
       id="linearGradient4212">
      <stop
         style="stop-color:#cd7223;stop-opacity:1"
         offset="0"
         id="stop2" />
      <stop
         style="stop-color:#ffc169;stop-opacity:1"
         offset="1"
         id="stop4" />
    </linearGradient>
    <linearGradient
       inkscape:collect="always"
       xlink:href="#linearGradient4204"
       id="linearGradient1744"
       gradientUnits="userSpaceOnUse"
       gradientTransform="matrix(1.4,0,0,1.4,75.416157,-46.270689)"
       x1="42.560001"
       y1="31.190001"
       x2="29.652"
       y2="18.775999" />
    <linearGradient
       id="linearGradient4204">
      <stop
         style="stop-color:#ffa92d;stop-opacity:1"
         offset="0"
         id="stop7" />
      <stop
         style="stop-color:#edf573;stop-opacity:1"
         offset="1"
         id="stop9" />
    </linearGradient>
    <linearGradient
       inkscape:collect="always"
       xlink:href="#linearGradient4196"
       id="linearGradient1746"
       gradientUnits="userSpaceOnUse"
       gradientTransform="matrix(1.4,0,0,1.4,75.416157,-46.270689)"
       x1="33.953999"
       y1="41.036999"
       x2="25.384001"
       y2="31.490999" />
    <linearGradient
       id="linearGradient4196">
      <stop
         style="stop-color:#2b4d37;stop-opacity:1"
         offset="0"
         id="stop12" />
      <stop
         style="stop-color:#3bb566;stop-opacity:1"
         offset="1"
         id="stop14" />
    </linearGradient>
    <linearGradient
       inkscape:collect="always"
       xlink:href="#linearGradient4188"
       id="linearGradient1748"
       gradientUnits="userSpaceOnUse"
       gradientTransform="matrix(1.4,0,0,1.4,75.416157,-46.270689)"
       x1="21.153"
       y1="41.487999"
       x2="14.308"
       y2="30.856001" />
    <linearGradient
       id="linearGradient4188">
      <stop
         style="stop-color:#375a7d;stop-opacity:1"
         offset="0"
         id="stop17" />
      <stop
         style="stop-color:#54a3d8;stop-opacity:1"
         offset="1"
         id="stop19" />
    </linearGradient>
    <linearGradient
       inkscape:collect="always"
       xlink:href="#linearGradient4174"
       id="linearGradient1750"
       gradientUnits="userSpaceOnUse"
       gradientTransform="matrix(1.4,0,0,1.4,75.285321,-46.270689)"
       x1="16.92"
       y1="29.540001"
       x2="5.9169998"
       y2="11.505" />
    <linearGradient
       id="linearGradient4174">
      <stop
         style="stop-color:#68377d;stop-opacity:1"
         offset="0"
         id="stop22" />
      <stop
         style="stop-color:#cb7cec;stop-opacity:1"
         offset="1"
         id="stop24" />
    </linearGradient>
    <linearGradient
       id="m"
       y1="268.70001"
       y2="231.53999"
       x1="272.35001"
       gradientUnits="userSpaceOnUse"
       x2="220.97"
       gradientTransform="matrix(0.09843327,0,0,0.09842756,-76.25537,-36.529597)">
      <stop
         stop-color="#b0b0b0"
         offset="0"
         id="stop37" />
      <stop
         stop-color="#ffffff"
         offset="1"
         id="stop39" />
    </linearGradient>
    <linearGradient
       id="linearGradient4366">
      <stop
         style="stop-color:#010609;stop-opacity:1;"
         offset="0"
         id="stop32" />
      <stop
         style="stop-color:#010609;stop-opacity:0;"
         offset="1"
         id="stop34" />
    </linearGradient>
    <linearGradient
       inkscape:collect="always"
       xlink:href="#linearGradient4166"
       id="linearGradient1756"
       gradientUnits="userSpaceOnUse"
       gradientTransform="matrix(1.4,0,0,1.4,75.416157,-46.270689)"
       x1="21.523001"
       y1="22.219"
       x2="13.091"
       y2="6.4580002" />
    <linearGradient
       id="linearGradient4166">
      <stop
         style="stop-color:#bf4231;stop-opacity:1"
         offset="0"
         id="stop27" />
      <stop
         style="stop-color:#f58273;stop-opacity:1"
         offset="1"
         id="stop29" />
    </linearGradient>
    <linearGradient
       inkscape:collect="always"
       xlink:href="#linearGradient4174"
       id="linearGradient13"
       gradientUnits="userSpaceOnUse"
       gradientTransform="matrix(0.13124436,0,0,0.13123674,75.543457,-46.194909)"
       x1="272.35001"
       y1="268.70001"
       x2="220.97"
       y2="231.53999" />
    <linearGradient
       id="linearGradient4564">
      <stop
         style="stop-color:#ffa92d;stop-opacity:1;"
         offset="0"
         id="stop4566" />
      <stop
         style="stop-color:#ffc169;stop-opacity:1"
         offset="1"
         id="stop4568" />
    </linearGradient>
    <linearGradient
       id="linearGradient4590">
      <stop
         id="stop4594"
         offset="0"
         style="stop-color:#54d883;stop-opacity:1" />
      <stop
         id="stop4592"
         offset="1"
         style="stop-color:#3bb566;stop-opacity:1;" />
    </linearGradient>
    <linearGradient
       id="linearGradient4582">
      <stop
         id="stop4586"
         offset="0"
         style="stop-color:#7cbcec;stop-opacity:1" />
      <stop
         id="stop4584"
         offset="1"
         style="stop-color:#3b85b5;stop-opacity:1;" />
    </linearGradient>
  </defs>
  <sodipodi:namedview
     id="namedview13"
     pagecolor="#ffffff"
     bordercolor="#000000"
     borderopacity="0.25"
     inkscape:showpageshadow="2"
     inkscape:pageopacity="0.0"
     inkscape:pagecheckerboard="0"
     inkscape:deskcolor="#d1d1d1"
     showgrid="false"
     inkscape:zoom="8.4742328"
     inkscape:cx="28.026136"
     inkscape:cy="37.053502"
     inkscape:window-width="1920"
     inkscape:window-height="994"
     inkscape:window-x="0"
     inkscape:window-y="0"
     inkscape:window-maximized="1"
     inkscape:current-layer="svg13">
    <inkscape:grid
       id="grid13"
       units="px"
       originx="0"
       originy="0"
       spacingx="1"
       spacingy="1"
       empcolor="#0099e5"
       empopacity="0.30196078"
       color="#0099e5"
       opacity="0.14901961"
       empspacing="5"
       dotted="false"
       gridanglex="30"
       gridanglez="30"
       visible="false" />
  </sodipodi:namedview>
  <g
     id="g1"
     transform="translate(-78.016161,43.670691)">
    <circle
       style="fill:#383d48;fill-opacity:1;stroke:none;stroke-width:2.8;stroke-linecap:round;stroke-linejoin:round;stroke-miterlimit:4;stroke-dasharray:none;stroke-opacity:0"
       cx="109.01616"
       cy="-12.670703"
       r="27.299997"
       id="circle51-6" />
    <path
       style="fill:url(#linearGradient1742);fill-opacity:1;stroke-width:1.4"
       d="m 114.11153,-40.139829 -6.67573,18.877854 26.28283,-4.393118 c -3.89406,-7.428356 -11.06864,-12.886232 -19.61263,-14.484736"
       id="path53-1" />
    <path
       style="fill:url(#linearGradient1744);fill-opacity:1;stroke-width:1.4"
       d="m 135.44732,-21.541292 -19.79504,3.696199 16.97468,20.4182825 c 4.52971,-7.0632947 5.70152,-15.9643125 2.82035,-24.1144815"
       id="path55-8" />
    <path
       style="fill:url(#linearGradient1746);fill-opacity:1;stroke-width:1.4"
       d="M 130.07192,5.6720335 116.9526,-9.5096253 107.63893,15.303166 c 8.42239,0.363674 16.76878,-3.078092 22.43436,-9.6311325"
       id="path57-7" />
    <path
       style="fill:url(#linearGradient1748);fill-opacity:1;stroke-width:1.4"
       d="M 103.74763,14.812276 110.42336,-4.0655852 84.140532,0.32753879 C 88.03459,7.7558935 95.209169,13.213764 103.75316,14.812276"
       id="path59-9" />
    <path
       style="fill:url(#linearGradient1750);fill-opacity:1;stroke-width:1.4"
       d="M 82.585005,-3.8139146 102.38004,-7.5101186 85.405366,-27.928408 c -4.52971,7.063296 -5.701521,15.964328 -2.820361,24.1144934"
       id="path61-2" />
    <path
       style="fill:url(#linearGradient1756);fill-opacity:1;stroke-width:1.4"
       d="m 87.897788,-31.013416 13.119302,15.181659 9.31368,-24.812792 c -8.42238,-0.363672 -16.768772,3.078094 -22.434364,9.631133"
       id="path67-3" />
    <path
       style="opacity:0.15;fill:#000000;fill-opacity:1;stroke-width:1.4"
       d="m 81.04077,-13.384361 c -0.04956,3.203641 0.438836,6.4414318 1.544923,9.5703064 l 0.352735,-0.0656 A 28.000001,28.000001 0 0 1 81.04077,-13.384361 Z m 55.95626,0.328125 c -0.13392,5.0337121 -1.63515,9.9658801 -4.36954,14.2296868 l -0.0903,-0.1094267 a 28.000001,28.000001 0 0 1 -0.50314,0.7957054 l 0.59336,0.7136786 c 2.9872,-4.6580133 4.50272,-10.1156467 4.36954,-15.6296891 z M 84.860693,0.20821479 84.141553,0.32854812 C 88.034809,7.7553668 95.205356,13.21276 103.74702,14.812527 l 0.47032,-1.326175 a 28.000001,28.000001 0 0 1 -1.33438,-0.259772 c -0.6758,-0.148861 -1.34517,-0.314841 -2.00156,-0.511328 a 28.000001,28.000001 0 0 1 -0.0902,-0.02457 28.000001,28.000001 0 0 1 -0.21876,-0.07379 C 99.734164,12.355203 98.913588,12.05581 98.111473,11.719928 92.548761,9.3905255 87.901436,5.3290268 84.860693,0.20820812 Z M 129.48023,4.9878975 a 28.000001,28.000001 0 0 1 -16.80548,8.6679745 c -0.0973,0.01267 -0.19506,0.02319 -0.29258,0.03552 a 28.000001,28.000001 0 0 1 -2.69336,0.213284 c -0.0133,4.08e-4 -0.0273,0.0023 -0.0409,0.0027 a 28.000001,28.000001 0 0 1 -0.0245,0 28.000001,28.000001 0 0 1 -0.60704,0.02187 28.000001,28.000001 0 0 1 -0.39923,-0.01912 c -0.15231,-0.0013 -0.30421,0.0036 -0.45663,0 l -0.52228,1.391793 c 8.42239,0.36368 16.76996,-3.077423 22.43556,-9.6304642 h -0.003 z"
       id="path69-7" />
    <path
       style="opacity:0.1;stroke-width:0.982857"
       d="m 109.19273,-28.537907 c -2.59345,0 -4.73947,2.14808 -4.73947,4.741955 0,0.368876 0.13698,0.697196 0.21841,1.044291 -0.84368,-1.335038 -2.26473,-2.279355 -3.94119,-2.279355 -2.592931,0 -4.741948,2.145499 -4.741948,4.739461 0,1.676786 0.946162,3.097514 2.28187,3.941159 -0.348009,-0.0818 -0.677266,-0.218385 -1.046792,-0.218385 -2.592988,0 -4.73946,2.146648 -4.73946,4.739442 0,2.5929977 2.147023,4.7394591 4.73946,4.7394591 0.369231,0 0.698842,-0.1368693 1.046792,-0.2184053 -1.335717,0.8439253 -2.28187,2.2666466 -2.28187,3.943688 0,2.59259865 2.145224,4.7394507 4.739448,4.7394507 1.67872,0 3.10055,-0.94728804 3.94369,-2.28437205 -0.0821,0.34873333 -0.21841,0.67872267 -0.21841,1.04929467 0,2.59376268 2.14675,4.73945868 4.73947,4.73945868 2.59231,0 4.73944,-2.1458733 4.73944,-4.73945868 0,-0.36973733 -0.13676,-0.6989 -0.2184,-1.04679334 0.84331,1.33573868 2.2635,2.28187072 3.94118,2.28187072 2.59413,0 4.73946,-2.14667872 4.73946,-4.7394507 0,-1.6774707 -0.94581,-3.0998774 -2.28186,-3.943688 0.34914,0.082173 0.68124,0.2184053 1.05181,0.2184053 2.59212,0 4.73695,-2.1460907 4.73695,-4.7394591 0,-2.593164 -2.14427,-4.739442 -4.73695,-4.739442 -0.37041,0 -0.70091,0.13647 -1.04931,0.218385 1.33558,-0.843608 2.28186,-2.264261 2.28186,-3.941159 0,-2.593041 -2.14666,-4.739461 -4.73944,-4.739461 -1.67838,0 -3.10047,0.946741 -3.9437,2.284376 0.0821,-0.348532 0.2184,-0.678633 0.2184,-1.049312 0,-2.5948 -2.14713,-4.741955 -4.73944,-4.741955 z"
       id="path9-3" />
    <path
       style="fill:#373e48;stroke-width:0.982857;fill-opacity:1"
       d="m 109.19273,-29.520765 c -2.59345,0 -4.73947,2.148089 -4.73947,4.741957 0,0.368881 0.13698,0.697199 0.21841,1.044295 -0.84368,-1.335043 -2.26473,-2.279352 -3.94119,-2.279352 -2.592931,0 -4.741948,2.145498 -4.741948,4.739436 0,1.676793 0.946162,3.097529 2.28187,3.941184 -0.348009,-0.08175 -0.677266,-0.218403 -1.046792,-0.218403 -2.592988,0 -4.73946,2.146659 -4.73946,4.73946 0,2.592988 2.147023,4.7394414 4.73946,4.7394414 0.369231,0 0.698842,-0.136852 1.046792,-0.218388 -1.335717,0.843916 -2.28187,2.2666387 -2.28187,3.943684 0,2.5925934 2.145224,4.73944672 4.739448,4.73944672 1.67872,0 3.10055,-0.94729867 3.94369,-2.28436672 -0.0821,0.348728 -0.21841,0.6787174 -0.21841,1.04929738 0,2.59376402 2.14675,4.73944932 4.73947,4.73944932 2.59231,0 4.73944,-2.1458733 4.73944,-4.73944932 0,-0.36975468 -0.13676,-0.69890938 -0.2184,-1.04679598 0.84331,1.33572665 2.2635,2.28186532 3.94118,2.28186532 2.59413,0 4.73946,-2.14667072 4.73946,-4.73944672 0,-1.677476 -0.94581,-3.0998986 -2.28186,-3.943684 0.34914,0.082147 0.68124,0.218388 1.05181,0.218388 2.59212,0 4.73695,-2.1460824 4.73695,-4.7394414 0,-2.593172 -2.14427,-4.73946 -4.73695,-4.73946 -0.37041,0 -0.70091,0.136479 -1.04931,0.218403 1.33558,-0.843608 2.28186,-2.264271 2.28186,-3.941184 0,-2.593018 -2.14666,-4.739436 -4.73944,-4.739436 -1.67838,0 -3.10047,0.946737 -3.9437,2.284374 0.0821,-0.348546 0.2184,-0.678644 0.2184,-1.049317 0,-2.594803 -2.14713,-4.741957 -4.73944,-4.741957 z"
       id="path10-6" />
    <path
       style="opacity:0.2;stroke-width:0.982857"
       d="m 113.41135,-10.081693 h 5.20657 c 0.4578,0.4765664 1.10129,0.7724144 1.81593,0.7724144 1.39064,0 2.51888,-1.1275014 2.51888,-2.5200304 0,-1.391787 -1.12824,-2.519852 -2.51888,-2.519852 -0.71314,0 -1.35813,0.297344 -1.81593,0.77334 h -5.20657 l 3.6809,-3.682452 c 0.0168,0 0.0324,0.0019 0.0492,0.0019 1.39176,0 2.5198,-1.128244 2.5198,-2.520029 0,-1.391975 -1.12804,-2.519845 -2.5198,-2.519845 -1.39196,0 -2.51998,1.127872 -2.51998,2.519845 0,0.01552 9.2e-4,0.03232 9.2e-4,0.04808 l -3.68108,3.681709 v -5.205549 c 0.47542,-0.458911 0.7724,-1.10206 0.7724,-1.815037 0,-1.393826 -1.12935,-2.521516 -2.51999,-2.521516 -1.39213,0 -2.52075,1.12843 -2.52075,2.521516 0,0.712977 0.2968,1.356126 0.77259,1.815037 v 5.205541 l -3.68145,-3.681738 c 0,-0.01568 7.4e-4,-0.03249 7.4e-4,-0.04808 0,-1.391974 -1.12748,-2.519848 -2.5198,-2.519848 -1.392306,0 -2.521284,1.127878 -2.521284,2.519848 0,1.391782 1.12786,2.520025 2.520174,2.520025 0.0159,0 0.0324,-0.0019 0.0479,-0.0019 l 3.68238,3.682462 h -5.206752 c -0.458336,-0.476911 -1.102026,-0.773308 -1.815184,-0.773308 -1.391767,0 -2.519622,1.128053 -2.519622,2.51984 0,1.392524 1.127855,2.5200304 2.519622,2.5200304 0.713158,0 1.357768,-0.2958533 1.815184,-0.7724144 h 5.206752 l -3.68238,3.6815318 c -0.0155,0 -0.032,-0.00187 -0.0479,-0.00187 -1.392314,0 -2.520174,1.127876 -2.520174,2.5211453 0,1.39104 1.12786,2.5202214 2.520174,2.5202214 1.39213,0 2.52017,-1.1291814 2.52017,-2.5202214 0,-0.016853 -9.8e-4,-0.032547 -9.8e-4,-0.049053 l 3.68127,-3.6820867 v 5.2072147 c -0.47543,0.4578 -0.77201,1.1009547 -0.77201,1.81541735 0,1.39195867 1.12877,2.51965465 2.5209,2.51965465 1.39064,0 2.51924,-1.12769598 2.51924,-2.51965465 0,-0.71336005 -0.29677,-1.35761735 -0.77201,-1.81541735 v -5.2071854 l 3.68127,3.6820841 c 0,0.016507 -9.9e-4,0.031267 -9.9e-4,0.049027 0,1.3910414 1.12768,2.5202214 2.5198,2.5202214 1.39195,0 2.52,-1.12918 2.52,-2.5202214 0,-1.393268 -1.12805,-2.5211453 -2.52,-2.5211453 -0.0168,0 -0.032,0.00187 -0.0488,0.00187 z"
       id="path11-7" />
    <path
       style="fill:#ffffff;stroke-width:0.982857"
       d="m 113.41135,-11.064488 h 5.20657 c 0.4578,0.47656 1.10129,0.772415 1.81593,0.772415 1.39064,0 2.51888,-1.127506 2.51888,-2.520031 0,-1.391787 -1.12824,-2.519857 -2.51888,-2.519857 -0.71314,0 -1.35813,0.297341 -1.81593,0.773345 h -5.20657 l 3.6809,-3.682452 c 0.0168,0 0.0324,0.0019 0.0492,0.0019 1.39176,0 2.5198,-1.128244 2.5198,-2.520031 0,-1.391975 -1.12804,-2.519843 -2.5198,-2.519843 -1.39196,0 -2.51998,1.12787 -2.51998,2.519843 0,0.01552 9.2e-4,0.03232 9.2e-4,0.04808 l -3.68108,3.681707 v -5.205552 c 0.47542,-0.45891 0.7724,-1.10206 0.7724,-1.81504 0,-1.393823 -1.12935,-2.521516 -2.51999,-2.521516 -1.39213,0 -2.52075,1.128432 -2.52075,2.521516 0,0.71298 0.2968,1.35613 0.77259,1.81504 v 5.205541 l -3.68145,-3.681739 c 0,-0.01568 7.4e-4,-0.03253 7.4e-4,-0.04808 0,-1.391977 -1.12748,-2.51985 -2.5198,-2.51985 -1.392306,0 -2.521284,1.127876 -2.521284,2.51985 0,1.39178 1.12786,2.520024 2.520174,2.520024 0.0159,0 0.0324,-0.0019 0.0479,-0.0019 l 3.68238,3.682454 h -5.206752 c -0.458336,-0.476904 -1.102026,-0.773308 -1.815184,-0.773308 -1.391767,0 -2.519622,1.128058 -2.519622,2.519844 0,1.392528 1.127855,2.520032 2.519622,2.520032 0.713158,0 1.357768,-0.295853 1.815184,-0.772417 h 5.206752 l -3.68238,3.6815348 c -0.0155,0 -0.032,-0.00187 -0.0479,-0.00187 -1.392314,0 -2.520174,1.1278773 -2.520174,2.5211467 0,1.39104 1.12786,2.52022 2.520174,2.52022 1.39213,0 2.52017,-1.12918 2.52017,-2.52022 0,-0.016867 -9.8e-4,-0.032547 -9.8e-4,-0.04904 l 3.68127,-3.6820867 v 5.207212 c -0.47544,0.4578013 -0.77201,1.1009547 -0.77201,1.81542 0,1.39196135 1.12877,2.51965469 2.5209,2.51965469 1.39064,0 2.51924,-1.12769334 2.51924,-2.51965469 0,-0.7133613 -0.29677,-1.3576187 -0.77201,-1.81542 v -5.207212 l 3.68127,3.6820867 c 0,0.016507 -9.9e-4,0.031253 -9.9e-4,0.04904 0,1.39104 1.12768,2.52022 2.5198,2.52022 1.39195,0 2.52,-1.12918 2.52,-2.52022 0,-1.3932667 -1.12805,-2.5211467 -2.52,-2.5211467 -0.0168,0 -0.032,0.00187 -0.0488,0.00187 z"
       id="path12-5" />
    <circle
       style="fill:url(#linearGradient13);stroke-width:1.4"
       cy="-12.604034"
       cx="109.14948"
       r="4.1999998"
       id="circle63-0-6" />
  </g>
</svg>
