<?xml version="1.0" encoding="UTF-8" standalone="no"?>
<svg
   width="62"
   height="62"
   version="1.1"
   id="svg5"
   sodipodi:docname="brave.svg"
   inkscape:version="1.4 (e7c3feb100, 2024-10-09)"
   xmlns:inkscape="http://www.inkscape.org/namespaces/inkscape"
   xmlns:sodipodi="http://sodipodi.sourceforge.net/DTD/sodipodi-0.dtd"
   xmlns="http://www.w3.org/2000/svg"
   xmlns:svg="http://www.w3.org/2000/svg">
  <defs
     id="defs5" />
  <sodipodi:namedview
     id="namedview5"
     pagecolor="#ffffff"
     bordercolor="#000000"
     borderopacity="0.25"
     inkscape:showpageshadow="2"
     inkscape:pageopacity="0.0"
     inkscape:pagecheckerboard="0"
     inkscape:deskcolor="#d1d1d1"
     inkscape:zoom="11.6875"
     inkscape:cx="31.957219"
     inkscape:cy="32"
     inkscape:window-width="1920"
     inkscape:window-height="994"
     inkscape:window-x="0"
     inkscape:window-y="0"
     inkscape:window-maximized="1"
     inkscape:current-layer="svg5" />
  <g
     id="g5"
     transform="translate(-1,-1.5)">
    <path
       style="opacity:0.2"
       d="M 23.144,5 18.432,9.7938 C 18.37,9.8144 17.909,9.43 17.407,9.2824 16.061,8.8871 14.352,8.9545 13.191,9.482 12.432,9.8271 12.137,10.07 10.331,11.845 8.3843,13.757 8,14.216 8,14.623 c 0,0.105 0.7035,1.132 1.0498,1.936 l 0.6283,1.462 -0.8074,2.215 c -0.4439,1.218 -0.827,2.282 -0.8542,2.366 -0.0688,0.213 6.2345,24.488 6.5635,25.27 0.598,1.42 1.538,2.693 2.755,3.735 1.1,0.942 12.257,8.557 13.362,9.12 0.327,0.166 0.853,0.262 1.303,0.273 0.45,-0.011 0.976,-0.107 1.303,-0.273 1.105,-0.563 12.262,-8.178 13.362,-9.12 1.217,-1.042 2.157,-2.315 2.755,-3.735 0.329,-0.782 6.632,-25.057 6.563,-25.27 -0.027,-0.084 -0.41,-1.148 -0.854,-2.366 L 54.322,18.021 54.95,16.559 C 55.297,15.755 56,14.728 56,14.623 56,14.216 55.616,13.757 53.669,11.845 51.863,10.07 51.568,9.8271 50.809,9.482 49.648,8.9545 47.939,8.8871 46.593,9.2824 46.091,9.43 45.63,9.8144 45.568,9.7938 L 40.856,5 H 32 Z"
       id="path1" />
    <path
       style="fill:#c83771"
       d="M 23.144,4 18.432,8.7938 C 18.37,8.8144 17.909,8.43 17.407,8.2824 16.061,7.8871 14.352,7.9545 13.191,8.482 12.432,8.8271 12.137,9.0699 10.331,10.845 8.3843,12.757 8,13.216 8,13.623 c 0,0.105 0.7035,1.132 1.0498,1.936 l 0.6283,1.462 -0.8074,2.215 c -0.4439,1.218 -0.827,2.282 -0.8542,2.366 -0.0688,0.213 6.2345,24.488 6.5635,25.27 0.598,1.42 1.538,2.693 2.755,3.735 1.1,0.942 12.257,8.557 13.362,9.12 0.327,0.166 0.853,0.262 1.303,0.273 0.45,-0.011 0.976,-0.107 1.303,-0.273 1.105,-0.563 12.262,-8.178 13.362,-9.12 1.217,-1.042 2.157,-2.315 2.755,-3.735 0.329,-0.782 6.632,-25.057 6.563,-25.27 -0.027,-0.084 -0.41,-1.148 -0.854,-2.366 L 54.322,17.021 54.95,15.559 C 55.297,14.755 56,13.728 56,13.623 56,13.216 55.616,12.757 53.669,10.845 51.863,9.0699 51.568,8.8271 50.809,8.482 49.648,7.9545 47.939,7.8871 46.593,8.2824 46.091,8.43 45.63,8.8144 45.568,8.7938 L 40.856,4 H 32 Z"
       id="path2" />
    <path
       style="opacity:0.2"
       d="m 34.257,47.494 c 0,0 2.454,-1.617 4.639,-3.18 1.229,-0.88 1.423,-1.104 1.222,-1.415 -0.161,-0.248 -4.127,-2.198 -6.022,-2.961 -1.994,-0.802 -2.204,-0.803 -4.138,-0.016 -1.735,0.704 -5.637,2.633 -5.965,2.949 -0.338,0.326 -0.168,0.625 0.684,1.201 1.756,1.187 5.122,3.471 5.122,3.471 2.288,1.95 2.111,1.951 4.458,-0.048 z m -9.2,-6.975 c 2.38,-1.118 2.736,-1.349 4.556,-2.96 1.529,-1.354 1.812,-1.757 1.595,-2.27 -0.074,-0.173 -1.223,-1.233 -2.554,-2.355 -3.146,-2.651 -3.015,-2.277 -1.818,-5.154 0.711,-1.709 0.897,-2.281 0.894,-2.755 -0.004,-0.715 -0.269,-1.252 -0.803,-1.623 -0.217,-0.151 -2.118,-0.917 -4.224,-1.703 -2.107,-0.786 -3.819,-1.482 -3.804,-1.545 0.033,-0.146 2.357,-0.399 4.044,-0.44 l 1.275,-0.032 2.346,0.818 c 2.046,0.715 2.367,0.861 2.521,1.151 0.097,0.183 0.175,0.429 0.173,0.546 -10e-4,0.117 -0.381,1.815 -0.843,3.773 -0.809,3.428 -0.832,3.567 -0.621,3.776 0.333,0.333 3.605,1.104 4.626,1.026 1.167,-0.089 3.55,-0.8 3.791,-1.038 0.194,-0.194 0.157,-0.412 -0.635,-3.764 -0.463,-1.958 -0.843,-3.656 -0.844,-3.773 -0.002,-0.117 0.077,-0.364 0.174,-0.548 0.154,-0.29 0.456,-0.432 2.278,-1.069 2.939,-1.028 2.879,-1.019 5.549,-0.782 1.245,0.11 2.313,0.247 2.374,0.304 0.066,0.062 -0.008,0.15 -0.182,0.215 -0.161,0.061 -1.879,0.706 -3.817,1.432 -1.938,0.727 -3.727,1.453 -3.976,1.614 -0.585,0.377 -0.868,0.917 -0.872,1.658 -0.003,0.469 0.181,1.036 0.873,2.69 0.482,1.153 0.877,2.205 0.877,2.337 0,0.535 -0.399,0.967 -2.611,2.826 -1.271,1.069 -2.399,2.1 -2.507,2.292 -0.108,0.192 -0.169,0.485 -0.137,0.652 0.056,0.285 1.578,1.755 3.128,3.022 0.651,0.532 4.594,2.999 5.226,3.099 0.529,0.084 1.094,-0.705 2.02,-1.471 0.907,-0.752 1.448,-1.504 1.815,-2.526 0.345,-0.958 0.258,-1.603 -0.424,-3.156 -0.52,-1.185 -0.658,-1.836 -0.484,-2.28 0.041,-0.102 1.449,-1.434 3.129,-2.96 3.661,-3.324 4.535,-3.919 4.736,-4.513 0.223,-0.66 0.066,-2.527 -0.435,-3.401 C 50.27,19.542 45.3,13 44.878,13 c -2.174,0.348 -3.993,1.117 -6.284,1.47 -0.18,0 -0.946,-0.187 -1.701,-0.417 C 33.666,13.075 32.62,13 31.995,13 c -0.625,0 -1.671,0.075 -4.898,1.053 -0.755,0.229 -1.529,0.417 -1.719,0.417 -2.257,-0.326 -3.93,-1.204 -6.267,-1.47 -0.364,0.241 -3.596,4.673 -4.934,6.61 -1.573,2.276 -2.018,3.569 -2.146,4.436 -0.179,1.213 0.276,1.417 4.977,5.677 1.581,1.432 2.907,2.687 2.947,2.787 0.176,0.449 0.037,1.126 -0.476,2.312 -0.704,1.629 -0.767,2.081 -0.427,3.065 0.369,1.069 0.996,1.934 1.942,2.68 0.88,0.694 1.22,1.39 1.74,1.401 0.185,0.004 1.231,-0.936 2.323,-1.449 z"
       id="path3" />
    <path
       style="fill:#ffffff"
       d="m 34.257,46.494 c 0,0 2.454,-1.617 4.639,-3.18 1.229,-0.88 1.423,-1.104 1.222,-1.415 -0.161,-0.248 -4.127,-2.198 -6.022,-2.961 -1.994,-0.802 -2.204,-0.803 -4.138,-0.016 -1.735,0.704 -5.637,2.633 -5.965,2.949 -0.338,0.326 -0.168,0.625 0.684,1.201 1.756,1.187 5.122,3.471 5.122,3.471 2.288,1.95 2.111,1.951 4.458,-0.048 z m -9.2,-6.975 c 2.38,-1.118 2.736,-1.349 4.556,-2.96 1.529,-1.354 1.812,-1.757 1.595,-2.27 -0.074,-0.173 -1.223,-1.233 -2.554,-2.355 -3.146,-2.651 -3.015,-2.277 -1.818,-5.154 0.711,-1.709 0.897,-2.281 0.894,-2.755 -0.004,-0.715 -0.269,-1.252 -0.803,-1.623 -0.217,-0.151 -2.118,-0.917 -4.224,-1.703 -2.107,-0.786 -3.819,-1.482 -3.804,-1.545 0.033,-0.146 2.357,-0.399 4.044,-0.44 l 1.275,-0.032 2.346,0.818 c 2.046,0.715 2.367,0.861 2.521,1.151 0.097,0.183 0.175,0.429 0.173,0.546 -10e-4,0.117 -0.381,1.815 -0.843,3.773 -0.809,3.428 -0.832,3.567 -0.621,3.776 0.333,0.333 3.605,1.104 4.626,1.026 1.167,-0.089 3.55,-0.8 3.791,-1.038 0.194,-0.194 0.157,-0.412 -0.635,-3.764 -0.463,-1.958 -0.843,-3.656 -0.844,-3.773 -0.002,-0.117 0.077,-0.364 0.174,-0.548 0.154,-0.29 0.456,-0.432 2.278,-1.069 2.939,-1.028 2.879,-1.019 5.549,-0.782 1.245,0.11 2.313,0.247 2.374,0.304 0.066,0.062 -0.008,0.15 -0.182,0.215 -0.161,0.061 -1.879,0.706 -3.817,1.432 -1.938,0.727 -3.727,1.453 -3.976,1.614 -0.585,0.377 -0.868,0.917 -0.872,1.658 -0.003,0.469 0.181,1.036 0.873,2.69 0.482,1.153 0.877,2.205 0.877,2.337 0,0.535 -0.399,0.967 -2.611,2.826 -1.271,1.069 -2.399,2.1 -2.507,2.292 -0.108,0.192 -0.169,0.486 -0.137,0.652 0.056,0.285 1.578,1.755 3.128,3.022 0.651,0.532 4.594,2.999 5.226,3.099 0.529,0.084 1.094,-0.705 2.02,-1.471 0.907,-0.752 1.448,-1.504 1.815,-2.525 0.345,-0.959 0.258,-1.604 -0.424,-3.157 -0.52,-1.185 -0.658,-1.836 -0.484,-2.28 0.041,-0.102 1.449,-1.434 3.129,-2.96 3.661,-3.324 4.535,-3.919 4.736,-4.513 0.223,-0.659 0.066,-2.527 -0.435,-3.401 C 50.27,18.542 45.3,12 44.878,12 c -2.174,0.348 -3.993,1.117 -6.284,1.47 -0.18,0 -0.946,-0.187 -1.701,-0.417 C 33.666,12.075 32.62,12 31.995,12 c -0.625,0 -1.671,0.075 -4.898,1.053 -0.755,0.229 -1.529,0.417 -1.719,0.417 -2.257,-0.326 -3.93,-1.204 -6.267,-1.47 -0.364,0.241 -3.596,4.673 -4.934,6.61 -1.573,2.276 -2.018,3.569 -2.146,4.436 -0.179,1.213 0.276,1.417 4.977,5.677 1.581,1.432 2.907,2.687 2.947,2.787 0.176,0.449 0.037,1.126 -0.476,2.312 -0.704,1.629 -0.767,2.081 -0.427,3.065 0.369,1.069 0.996,1.934 1.942,2.68 0.88,0.694 1.22,1.39 1.74,1.401 0.185,0.004 1.231,-0.936 2.323,-1.449 z"
       id="path4" />
    <path
       style="opacity:0.1;fill:#ffffff"
       d="M 23.145,4 18.432,8.793 C 18.369,8.8136 17.908,8.4307 17.406,8.2832 16.06,7.8878 14.352,7.9549 13.191,8.4824 12.432,8.8275 12.138,9.0691 10.332,10.844 8.3852,12.757 8,13.217 8,13.623 c 0,0.033 0.1409,0.263 0.2461,0.441 0.2768,-0.4 0.8464,-1.002 2.0859,-2.22 1.806,-1.775 2.1,-2.0165 2.859,-2.3616 1.161,-0.5275 2.869,-0.5946 4.215,-0.1992 0.502,0.1475 0.963,0.5304 1.026,0.5098 L 23.145,5 H 32 40.855 l 4.713,4.793 c 0.063,0.0206 0.524,-0.3623 1.026,-0.5098 1.346,-0.3954 3.054,-0.3283 4.215,0.1992 0.759,0.3451 1.053,0.5866 2.859,2.3616 1.24,1.218 1.809,1.82 2.086,2.22 C 55.859,13.886 56,13.656 56,13.623 56,13.217 55.615,12.757 53.668,10.844 51.862,9.0691 51.568,8.8275 50.809,8.4824 49.648,7.9549 47.94,7.8878 46.594,8.2832 46.092,8.4307 45.631,8.8136 45.568,8.793 L 40.855,4 H 32 Z M 9.4805,17.562 8.8711,19.236 c -0.4439,1.218 -0.8283,2.282 -0.8555,2.366 -0.0026,0.008 0.1293,0.524 0.1446,0.599 0.1156,-0.325 0.3421,-0.953 0.7109,-1.965 l 0.8066,-2.215 z m 45.0395,0 -0.198,0.459 0.807,2.215 c 0.369,1.012 0.595,1.64 0.711,1.965 0.015,-0.075 0.147,-0.591 0.144,-0.599 -0.027,-0.084 -0.411,-1.148 -0.855,-2.366 z"
       id="path5" />
  </g>
</svg>
