<?xml version="1.0" encoding="UTF-8" standalone="no"?>
<svg
   width="62"
   height="62"
   version="1.1"
   id="svg6"
   sodipodi:docname="AppImageLauncher.svg"
   inkscape:version="1.4 (e7c3feb100, 2024-10-09)"
   xmlns:inkscape="http://www.inkscape.org/namespaces/inkscape"
   xmlns:sodipodi="http://sodipodi.sourceforge.net/DTD/sodipodi-0.dtd"
   xmlns:xlink="http://www.w3.org/1999/xlink"
   xmlns="http://www.w3.org/2000/svg"
   xmlns:svg="http://www.w3.org/2000/svg">
  <defs
     id="defs6">
    <linearGradient
       id="linearGradient6"
       inkscape:collect="always">
      <stop
         style="stop-color:#e25563;stop-opacity:1"
         offset="0"
         id="stop6" />
      <stop
         style="stop-color:#b49ddf;stop-opacity:1"
         offset="1"
         id="stop7" />
    </linearGradient>
    <linearGradient
       inkscape:collect="always"
       xlink:href="#linearGradient6"
       id="linearGradient7"
       x1="31.5"
       y1="59.017548"
       x2="31.5"
       y2="4.9824524"
       gradientUnits="userSpaceOnUse"
       gradientTransform="translate(-0.5,-1)" />
  </defs>
  <sodipodi:namedview
     id="namedview6"
     pagecolor="#ffffff"
     bordercolor="#000000"
     borderopacity="0.25"
     inkscape:showpageshadow="2"
     inkscape:pageopacity="0.0"
     inkscape:pagecheckerboard="0"
     inkscape:deskcolor="#d1d1d1"
     inkscape:zoom="4.1542523"
     inkscape:cx="37.792601"
     inkscape:cy="44.532682"
     inkscape:window-width="1920"
     inkscape:window-height="998"
     inkscape:window-x="0"
     inkscape:window-y="0"
     inkscape:window-maximized="1"
     inkscape:current-layer="svg6" />
  <ellipse
     style="opacity:0.2;stroke-width:0.982302"
     cx="31"
     cy="31.491226"
     id="circle1"
     rx="27.5"
     ry="27.508774" />
  <ellipse
     style="fill:url(#linearGradient7);stroke-width:0.982302"
     cx="31"
     cy="30.508774"
     id="circle2"
     rx="27.5"
     ry="27.508774" />
  <path
     style="opacity:0.1;fill:#ffffff;stroke-width:0.982302"
     d="M 30.999992,3 A 27.499992,27.508766 0 0 0 3.5,30.508766 27.499992,27.508766 0 0 0 3.5172646,30.992322 27.499992,27.508766 0 0 1 30.999992,3.9824558 27.499992,27.508766 0 0 1 58.475049,30.992322 27.499992,27.508766 0 0 0 58.499984,30.508766 27.499992,27.508766 0 0 0 30.999992,3 Z"
     id="path6" />
  <path
     d="M 31.247682,3 C 29.843375,3.0083898 28.441738,3.123461 27.054884,3.3442191 24.339779,5.8658219 6.2390692,23.845259 4.0445591,26.19875 c -0.021066,0.135931 -0.041089,0.272021 -0.060069,0.408259 0.5646459,-0.460288 1.4416498,-1.164736 2.3466848,-1.985257 0.4725413,-0.428274 1.0572097,-0.936594 1.2974855,-1.128717 0.240274,-0.192123 0.6887867,-0.576369 0.9891309,-0.852543 0.8329523,-0.772496 2.8072078,-2.521602 3.3878738,-3.001913 0.280323,-0.240148 1.38559,-1.208764 2.450805,-2.153368 1.065223,-0.9486 2.4428,-2.161376 3.059501,-2.693709 0.616702,-0.536345 1.894165,-1.697085 2.843256,-2.585646 1.826089,-1.713088 7.472547,-6.7162725 8.097264,-7.1805678 0.204232,-0.1480933 0.396448,-0.2521606 0.42448,-0.2241426 0.06006,0.060039 -0.292329,0.656416 -1.549774,2.5936491 C 23.975224,12.579034 20.626058,17.767672 17.283705,22.960694 l -5.045776,7.812972 -5.0617876,7.844985 C 6.5754549,39.54324 6.0644038,40.459637 5.712,41.036 9.6586075,50.769224 18.801026,57.281184 29.281433,58.035 l 0.01997,-0.50032 c 0.04407,-0.640407 0.144185,-2.221416 0.216268,-3.50623 C 30.306594,39.979515 35.092074,22.900656 42.676745,7.0465732 42.95707,6.4581991 43.20135,6.1379958 43.365542,5.8418071 39.595591,3.984256 35.450822,3.0122498 31.247682,3 Z"
     fill="#c63166"
     id="path2-3"
     style="fill:#ffdf7e;stroke-width:3.71393"
     sodipodi:nodetypes="cccccscccccccccccccccccc" />
  <path
     d="m 37.971073,38.134244 a 28.002034,27.983727 0 0 0 -1.790828,0.150516 28.002034,27.983727 0 0 1 1.790828,-0.150516 z m -25.865251,23.431642 -0.0081,0.01221 a 28.002034,27.983727 0 0 0 -0.06512,0.406799 28.002034,27.983727 0 0 1 0.07326,-0.419003 z"
     fill="#d8d342"
     id="path3-6"
     style="stroke-width:3.77467" />
</svg>
