<?xml version="1.0" encoding="UTF-8" standalone="no"?>
<svg
   width="62"
   height="62"
   version="1.1"
   id="svg4"
   sodipodi:docname="1brosix.svg"
   inkscape:version="1.4 (e7c3feb100, 2024-10-09)"
   xmlns:inkscape="http://www.inkscape.org/namespaces/inkscape"
   xmlns:sodipodi="http://sodipodi.sourceforge.net/DTD/sodipodi-0.dtd"
   xmlns:xlink="http://www.w3.org/1999/xlink"
   xmlns="http://www.w3.org/2000/svg"
   xmlns:svg="http://www.w3.org/2000/svg">
  <defs
     id="defs4">
    <linearGradient
       id="linearGradient4"
       inkscape:collect="always">
      <stop
         style="stop-color:#2097d4;stop-opacity:1;"
         offset="0"
         id="stop4" />
      <stop
         style="stop-color:#9d7ed5;stop-opacity:1"
         offset="1"
         id="stop5" />
    </linearGradient>
    <linearGradient
       inkscape:collect="always"
       xlink:href="#linearGradient4"
       id="linearGradient5"
       x1="30.212767"
       y1="59.017544"
       x2="31.5"
       y2="4.9824572"
       gradientUnits="userSpaceOnUse"
       gradientTransform="translate(-0.5,-1.0000005)" />
    <linearGradient
       id="b"
       x1="32"
       x2="32"
       y1="51"
       y2="13"
       gradientUnits="userSpaceOnUse"
       gradientTransform="matrix(0.92497686,0,0,0.92392944,1.4012083,1.4342522)">
      <stop
         offset="0"
         stop-color="#f4c3ca"
         id="stop7-3"
         style="stop-color:#cbbbe9;stop-opacity:1" />
      <stop
         offset="1"
         stop-color="#fff"
         id="stop9-6"
         style="stop-color:#d8f0f3;stop-opacity:1;" />
    </linearGradient>
  </defs>
  <sodipodi:namedview
     id="namedview4"
     pagecolor="#ffffff"
     bordercolor="#000000"
     borderopacity="0.25"
     inkscape:showpageshadow="2"
     inkscape:pageopacity="0.0"
     inkscape:pagecheckerboard="0"
     inkscape:deskcolor="#d1d1d1"
     inkscape:zoom="11.75"
     inkscape:cx="32"
     inkscape:cy="27.021277"
     inkscape:window-width="1920"
     inkscape:window-height="998"
     inkscape:window-x="0"
     inkscape:window-y="0"
     inkscape:window-maximized="1"
     inkscape:current-layer="svg4" />
  <rect
     x="3.5"
     y="3.9824567"
     width="55"
     height="55.017544"
     ry="14.736842"
     style="opacity:0.2;stroke-width:0.982303"
     id="rect1" />
  <rect
     x="3.5"
     y="2.9999995"
     width="55"
     height="55.017544"
     ry="14.736842"
     style="fill:url(#linearGradient5);stroke-width:0.982303"
     id="rect2" />
  <path
     d="M 18.232143,2.9999995 C 10.070534,2.9999995 3.5,9.5726295 3.5,17.736843 v 0.982455 C 3.5,10.555089 10.070534,3.9824555 18.232143,3.9824555 H 43.767858 C 51.929464,3.9824555 58.5,10.555089 58.5,18.719298 V 17.736843 C 58.5,9.5726295 51.929464,2.9999995 43.767858,2.9999995 Z"
     style="opacity:0.2;fill:#ffffff;stroke-width:0.982303"
     id="path4" />
  <path
     fill="url(#b)"
     d="m 31.463886,13 a 18.020401,17.999994 0 0 0 -12.045058,4.675085 h 5.831985 a 14.748753,14.732052 0 0 1 6.21585,-1.407141 14.748753,14.732052 0 0 1 14.762619,14.715424 v 0.01657 A 14.748753,14.732052 0 0 1 31.48331,45.73206 14.748753,14.732052 0 0 1 25.232307,44.324918 H 19.39571 A 18.020401,17.999994 0 0 0 31.48423,49 18.020401,17.999994 0 0 0 49.5,31.000006 v -0.02031 A 18.020401,17.999994 0 0 0 31.462953,13.000206 Z m -3.865477,18.904523 h 7.925192 c 1.012848,0 1.828681,0.814902 1.828681,1.826603 v 4.889441 a 1.8240546,1.821989 0 0 1 -1.828681,1.826608 h -7.925192 a 1.8249791,1.8229125 0 0 1 -1.82868,-1.826608 v -4.889441 c 0,-1.011701 0.81582,-1.826603 1.82868,-1.826603 z m -13.269727,0 h 7.925201 c 1.012853,0 1.828684,0.814902 1.828684,1.826603 v 4.889441 a 1.8240546,1.821989 0 0 1 -1.828684,1.826608 h -7.925201 a 1.8249791,1.8229125 0 0 1 -1.828678,-1.826608 v -4.889441 c 0,-1.011701 0.815836,-1.826603 1.828678,-1.826603 z M 27.750094,21.55189 h 7.925204 c 1.012849,0 1.828682,0.814911 1.828682,1.826612 v 4.889433 a 1.8240546,1.821989 0 0 1 -1.828682,1.826608 h -7.925204 a 1.8249791,1.8229125 0 0 1 -1.828668,-1.826608 v -4.889433 c 0,-1.011701 0.81582,-1.826612 1.828668,-1.826612 z m -13.269712,0 h 7.925201 c 1.012853,0 1.828678,0.814911 1.828678,1.826612 v 4.889433 a 1.8240546,1.821989 0 0 1 -1.828678,1.826608 h -7.925201 a 1.8249791,1.8229125 0 0 1 -1.828679,-1.826608 v -4.889433 c 0,-1.011701 0.815831,-1.826612 1.828679,-1.826612 z"
     id="path22"
     style="fill:url(#b);stroke-width:0.924449" />
</svg>
