<?xml version="1.0" encoding="UTF-8" standalone="no"?>
<svg
   width="62"
   height="62"
   version="1.1"
   id="svg12"
   sodipodi:docname="builder.svg"
   inkscape:version="1.4 (e7c3feb100, 2024-10-09)"
   xmlns:inkscape="http://www.inkscape.org/namespaces/inkscape"
   xmlns:sodipodi="http://sodipodi.sourceforge.net/DTD/sodipodi-0.dtd"
   xmlns="http://www.w3.org/2000/svg"
   xmlns:svg="http://www.w3.org/2000/svg">
  <defs
     id="defs12" />
  <sodipodi:namedview
     id="namedview12"
     pagecolor="#ffffff"
     bordercolor="#000000"
     borderopacity="0.25"
     inkscape:showpageshadow="2"
     inkscape:pageopacity="0.0"
     inkscape:pagecheckerboard="0"
     inkscape:deskcolor="#d1d1d1"
     inkscape:zoom="11.78125"
     inkscape:cx="31.95756"
     inkscape:cy="37.092838"
     inkscape:window-width="1920"
     inkscape:window-height="994"
     inkscape:window-x="0"
     inkscape:window-y="0"
     inkscape:window-maximized="1"
     inkscape:current-layer="svg12" />
  <g
     id="g12"
     transform="translate(2.8851644e-4,-0.0058592)">
    <path
       style="fill:none;stroke:#cbbb2e;stroke-width:11.5859"
       d="M 35.827269,10.730466 20.379144,26.17859"
       id="path1" />
    <rect
       style="fill:#cbbb2e;stroke-width:0.965729"
       width="15.447688"
       height="32.826794"
       x="-24.245878"
       y="22.314653"
       ry="0"
       transform="scale(-1,1)"
       id="rect1" />
    <path
       style="fill:#d6c84a;stroke-width:0.965729"
       d="m 24.241166,51.281796 c 1.931021,0 1.931021,1.931023 1.931021,1.931023 v 3.862027 H 6.8620313 v -3.862027 c 0,-1.931023 1.9310166,-1.931023 1.9310166,-1.931023 z"
       id="path2" />
    <path
       style="fill:#4f4f4f;stroke-width:0.965729"
       d="m 28.103206,53.212819 c 1.931022,0 1.931022,1.931007 1.931022,1.931007 v 3.862033 H 3.0000002 v -3.862033 c 0,-1.931007 1.9310166,-1.931007 1.9310166,-1.931007 z"
       id="path3" />
    <path
       style="fill:none;stroke:#cbbb2e;stroke-width:7.72412;stroke-linecap:square"
       d="m 35.827269,10.730466 7.724062,7.724063"
       id="path4" />
    <rect
       style="opacity:0.2;stroke-width:0.965729"
       width="15.447688"
       height="15.447688"
       x="-43.550682"
       y="3.9659214"
       ry="7.7238441"
       transform="scale(-1,1)"
       id="rect4" />
    <rect
       style="opacity:0.2;stroke-width:0.965729"
       width="23.172487"
       height="23.172487"
       x="-28.099112"
       y="19.417471"
       ry="11.585761"
       transform="scale(-1,1)"
       id="rect5" />
    <rect
       style="fill:#d6c84a;stroke-width:0.965729"
       width="23.172487"
       height="23.172487"
       x="-28.099112"
       y="18.451744"
       ry="11.585761"
       transform="scale(-1,1)"
       id="rect6" />
    <rect
       style="fill:#4f4f4f;stroke-width:0.965729"
       width="15.447688"
       height="15.447688"
       x="-24.245878"
       y="22.314653"
       ry="7.7238441"
       transform="scale(-1,1)"
       id="rect7" />
    <rect
       style="opacity:0.1;fill:#ffffff;stroke-width:0.965729"
       width="11.585761"
       height="11.585761"
       x="-22.314425"
       y="24.246069"
       ry="5.7933621"
       transform="scale(-1,1)"
       id="rect8" />
    <rect
       style="fill:#d6c84a;stroke-width:0.965729"
       width="15.447688"
       height="15.447688"
       x="-43.550682"
       y="3.0098579"
       ry="7.7238441"
       transform="scale(-1,1)"
       id="rect9" />
    <path
       style="fill:none;stroke:#4f4f4f;stroke-width:3.86196;stroke-linecap:round"
       d="m 47.41336,31.971639 -3.862029,-1.931007 v -7.724063 l 3.862029,-3.86204 h 7.724062 l 1.931021,3.86204"
       id="path9" />
    <rect
       style="fill:#4f4f4f;stroke-width:0.965729"
       width="7.7238441"
       height="7.7238441"
       x="-39.687775"
       y="6.8727469"
       ry="3.861922"
       transform="scale(-1,1)"
       id="rect10" />
    <path
       style="opacity:0.2;fill:#ffffff;stroke-width:0.965729"
       d="m 16.516338,18.453641 c -6.418695,0 -11.5848944,5.168073 -11.5848944,11.586768 0,0.160625 0.015785,0.317038 0.024517,0.475313 0.2571681,-6.187692 5.3072454,-11.096369 11.5603784,-11.096369 6.25568,0 11.308901,4.912649 11.562252,11.103923 0.0093,-0.160742 0.02459,-0.319848 0.02459,-0.482867 0,-6.418695 -5.168072,-11.586768 -11.586767,-11.586768 z"
       id="path10" />
    <path
       style="opacity:0.2;fill:#ffffff;stroke-width:0.965729"
       d="m 35.826996,3.0058594 c -4.279125,0 -7.723889,3.4447563 -7.723889,7.7238816 0,0.112401 0.02222,0.218606 0.03201,0.328196 0.323554,-3.9772024 3.628432,-7.0863558 7.691819,-7.0863558 4.063386,0 7.368268,3.1091534 7.691822,7.0863558 0.01,-0.10959 0.03201,-0.215795 0.03201,-0.328196 0,-4.2791253 -3.444759,-7.7238816 -7.723889,-7.7238816 z"
       id="path11" />
    <path
       style="opacity:0.1;fill:#ffffff;stroke-width:0.965729"
       d="m 4.9314436,53.212073 c 0,0 -1.9314436,4.3e-4 -1.9314436,1.931444 v 0.971379 C 3,54.183889 4.9314436,54.183453 4.9314436,54.183453 H 28.103107 c 1.93102,0 1.931443,1.931443 1.931443,1.931443 v -0.971379 c 0,0 -4.23e-4,-1.931444 -1.931443,-1.931444 z"
       id="path12" />
  </g>
</svg>
