<?xml version="1.0" encoding="UTF-8" standalone="no"?>
<svg
   width="62"
   height="62"
   version="1.1"
   id="svg4"
   sodipodi:docname="cacher.svg"
   inkscape:version="1.4 (e7c3feb100, 2024-10-09)"
   xmlns:inkscape="http://www.inkscape.org/namespaces/inkscape"
   xmlns:sodipodi="http://sodipodi.sourceforge.net/DTD/sodipodi-0.dtd"
   xmlns="http://www.w3.org/2000/svg"
   xmlns:svg="http://www.w3.org/2000/svg">
  <defs
     id="defs4" />
  <sodipodi:namedview
     id="namedview4"
     pagecolor="#ffffff"
     bordercolor="#000000"
     borderopacity="0.25"
     inkscape:showpageshadow="2"
     inkscape:pageopacity="0.0"
     inkscape:pagecheckerboard="0"
     inkscape:deskcolor="#d1d1d1"
     inkscape:zoom="11.75"
     inkscape:cx="32"
     inkscape:cy="32"
     inkscape:window-width="1920"
     inkscape:window-height="998"
     inkscape:window-x="0"
     inkscape:window-y="0"
     inkscape:window-maximized="1"
     inkscape:current-layer="svg4" />
  <g
     id="g4"
     transform="matrix(0.98214286,0,0,0.98245614,-0.42857152,-0.92982455)">
    <circle
       style="opacity:0.2"
       cx="32"
       cy="33"
       r="28"
       id="circle1" />
    <circle
       style="fill:#3485fd"
       cx="32"
       cy="32"
       r="28"
       id="circle2" />
    <path
       style="opacity:0.2"
       d="m 33.400391,19 -8.333985,25 h 4.429688 L 37.830078,19 Z M 24,25.796875 23.142578,26.183594 11,31.453125 11.0059,35.285156 23.148479,40.519531 24,40.900391 v -4.59961 L 17.001953,33.361328 24,30.402344 Z m 15,0 v 4.605469 L 45.998047,33.361328 39,36.300781 v 4.59961 L 39.851562,40.519531 51.994141,35.285156 52,31.453125 39.857422,26.183594 Z"
       id="path2" />
    <path
       style="fill:#ffffff"
       d="m 33.400391,18 -8.333985,25 h 4.429688 L 37.830078,18 Z M 24,24.796875 23.142578,25.183594 11,30.453125 11.0059,34.285156 23.148479,39.519531 24,39.900391 v -4.59961 L 17.001953,32.361328 24,29.402344 Z m 15,0 v 4.605469 L 45.998047,32.361328 39,35.300781 v 4.59961 L 39.851562,39.519531 51.994141,34.285156 52,30.453125 39.857422,25.183594 Z"
       id="path3" />
    <path
       style="opacity:0.2;fill:#ffffff"
       d="M 32,4 A 28,28 0 0 0 4,32 28,28 0 0 0 4.0214844,32.585938 28,28 0 0 1 32,5 28,28 0 0 1 59.978516,32.414062 28,28 0 0 0 60,32 28,28 0 0 0 32,4 Z"
       id="path4" />
  </g>
</svg>
