<?xml version="1.0" encoding="UTF-8" standalone="no"?>
<!-- Created with Inkscape (http://www.inkscape.org/) -->

<svg
   width="62"
   height="62"
   version="1.1"
   viewBox="0 0 62 62"
   id="svg5104"
   sodipodi:docname="cadence.svg"
   inkscape:version="1.4 (e7c3feb100, 2024-10-09)"
   xmlns:inkscape="http://www.inkscape.org/namespaces/inkscape"
   xmlns:sodipodi="http://sodipodi.sourceforge.net/DTD/sodipodi-0.dtd"
   xmlns:xlink="http://www.w3.org/1999/xlink"
   xmlns="http://www.w3.org/2000/svg"
   xmlns:svg="http://www.w3.org/2000/svg">
  <sodipodi:namedview
     id="namedview5106"
     pagecolor="#ffffff"
     bordercolor="#666666"
     borderopacity="1.0"
     inkscape:showpageshadow="2"
     inkscape:pageopacity="0.0"
     inkscape:pagecheckerboard="0"
     inkscape:deskcolor="#d1d1d1"
     showgrid="false"
     inkscape:zoom="3.6875"
     inkscape:cx="-10.983051"
     inkscape:cy="97.355932"
     inkscape:window-width="1920"
     inkscape:window-height="994"
     inkscape:window-x="0"
     inkscape:window-y="0"
     inkscape:window-maximized="1"
     inkscape:current-layer="svg5104" />
  <defs
     id="defs5064">
    <linearGradient
       id="linearGradient1"
       inkscape:collect="always">
      <stop
         style="stop-color:#eff2f6;stop-opacity:1;"
         offset="0"
         id="stop1" />
      <stop
         style="stop-color:#b7c6cd;stop-opacity:1;"
         offset="1"
         id="stop3" />
    </linearGradient>
    <linearGradient
       id="linearGradient959"
       x1="22.816"
       x2="38.476002"
       y1="14.449"
       y2="-1.0493"
       gradientTransform="matrix(2.6456692,0,0,2.6456693,-120.52517,-19.257458)"
       gradientUnits="userSpaceOnUse">
      <stop
         stop-color="#dc3282"
         offset="0"
         id="stop5034" />
      <stop
         stop-color="#f05a50"
         offset="1"
         id="stop5036"
         style="stop-color:#ff9955;stop-opacity:1" />
    </linearGradient>
    <linearGradient
       id="linearGradient875"
       x1="-123.61"
       x2="-124.83"
       y1="-218.50999"
       y2="-149.55"
       gradientTransform="matrix(0.044571,0,0,0.045384,11.938,21.687)"
       gradientUnits="userSpaceOnUse">
      <stop
         stop-color="#d9d9d9"
         offset="0"
         id="stop5039" />
      <stop
         stop-color="#fff"
         offset="1"
         id="stop5041" />
    </linearGradient>
    <linearGradient
       id="linearGradient841"
       x1="-194.48"
       x2="-194.66"
       y1="-239.97"
       y2="-166.64"
       gradientTransform="matrix(0.044571,0,0,0.045384,11.938,21.687)"
       gradientUnits="userSpaceOnUse">
      <stop
         stop-color="#f35966"
         offset="0"
         id="stop5044" />
      <stop
         stop-color="#e0283f"
         offset="1"
         id="stop5046" />
    </linearGradient>
    <linearGradient
       id="linearGradient851"
       x1="-145.39999"
       x2="-145.58"
       y1="-167.25999"
       y2="-280.64999"
       gradientTransform="matrix(0.044571,0,0,0.045384,11.938,21.687)"
       gradientUnits="userSpaceOnUse">
      <stop
         stop-color="#f06712"
         offset="0"
         id="stop5049" />
      <stop
         stop-color="#ffb436"
         offset="1"
         id="stop5051" />
    </linearGradient>
    <linearGradient
       id="linearGradient859"
       x1="-98.577003"
       x2="-101.03"
       y1="-166.03"
       y2="-348.97"
       gradientTransform="matrix(0.044571,0,0,0.045384,11.938,21.687)"
       gradientUnits="userSpaceOnUse">
      <stop
         stop-color="#01bb22"
         offset="0"
         id="stop5054" />
      <stop
         stop-color="#51e784"
         offset="1"
         id="stop5056" />
    </linearGradient>
    <linearGradient
       id="linearGradient867"
       x1="-50.257999"
       x2="-52.706001"
       y1="-167.99001"
       y2="-309.35001"
       gradientTransform="matrix(0.044571,0,0,0.045384,11.938,21.687)"
       gradientUnits="userSpaceOnUse">
      <stop
         stop-color="#017bf5"
         offset="0"
         id="stop5059" />
      <stop
         stop-color="#52cdfb"
         offset="1"
         id="stop5061" />
    </linearGradient>
    <linearGradient
       id="a"
       y1="543.77002"
       x1="407.63"
       y2="504.13"
       x2="407.69"
       gradientUnits="userSpaceOnUse"
       gradientTransform="matrix(1.0500005,0,0,1.0500005,-485.74445,-538.54524)">
      <stop
         stop-color="#da4453"
         id="stop2" />
      <stop
         offset="1"
         stop-color="#e06571"
         id="stop4" />
    </linearGradient>
    <linearGradient
       id="b"
       y1="13.1"
       x1="19"
       y2="44"
       x2="44"
       gradientUnits="userSpaceOnUse"
       gradientTransform="matrix(1.0500005,0,0,1.0500005,-81.945771,-13.755001)">
      <stop
         stop-color="#292c2f"
         id="stop7" />
      <stop
         offset="1"
         stop-color="#292c2f"
         stop-opacity="0"
         id="stop9" />
    </linearGradient>
    <linearGradient
       inkscape:collect="always"
       xlink:href="#linearGradient959"
       id="linearGradient670"
       gradientUnits="userSpaceOnUse"
       gradientTransform="matrix(3.5275588,0,0,3.527559,-76.72847,7.365351)"
       x1="22.816"
       y1="14.449"
       x2="38.476002"
       y2="-1.0493" />
    <linearGradient
       inkscape:collect="always"
       xlink:href="#linearGradient1"
       id="linearGradient3"
       x1="-14.422843"
       y1="89.980865"
       x2="2.9990547"
       y2="105.05857"
       gradientUnits="userSpaceOnUse" />
  </defs>
  <circle
     id="circle5066-7"
     style="fill:url(#linearGradient670);stroke-width:3.52756"
     cy="31"
     cx="31"
     r="28" />
  <g
     id="g1"
     transform="matrix(1.3076919,0,0,1.3076919,45.384613,-95.84612)">
    <path
       style="opacity:0.2"
       d="m -11.000035,85.000002 c -1.407714,0.02344 -2.777551,0.353209 -3.333832,0.962148 -0.593232,0.649384 -0.722357,1.56264 -0.556615,2.572913 0.315975,1.926035 2.188547,4.287351 3.757641,6.411709 -0.01095,0.01374 -0.02223,0.02941 -0.0332,0.04311 -0.79034,0.987929 -1.818126,1.894148 -2.587771,2.661094 0.124068,-0.561306 0.213806,-1.170762 0.234364,-1.559817 0.01761,-0.333268 0.0072,-0.592677 -0.0957,-0.803423 -0.05146,-0.105371 -0.142891,-0.206117 -0.269519,-0.246906 -0.126633,-0.04079 -0.257699,-0.01413 -0.371076,0.03919 -0.226753,0.106667 -0.442729,0.320589 -0.716765,0.664294 -0.274035,0.343708 -0.59572,0.919974 -0.974565,1.551978 -0.378846,0.632001 -0.646631,1.139059 -0.820275,1.542181 -0.08941,0.20758 -0.155775,0.387093 -0.197257,0.54476 -0.03908,0.148525 -0.05738,0.279008 -0.05078,0.399752 0.216409,0.293125 0.567156,0.252105 0.851524,0.270425 0.123441,-0.001 0.251966,-0.0231 0.394513,-0.109741 0.334522,-0.20327 0.743909,-0.525625 1.181586,-0.901401 -0.312156,1.037812 -0.519638,1.993732 -1.017532,3.154902 -0.0069,0.0162 -0.01646,0.0328 -0.02344,0.049 -2.627177,-0.35922 -5.369403,-0.13171 -7.224279,0.50949 -0.972946,0.33633 -1.721452,1.08495 -2.01358,1.91254 -0.292125,0.8276 -0.112931,1.87843 0.621065,3.18234 0.733998,1.30391 1.541598,1.9031 2.404188,2.0889 0.862591,0.1858 1.723724,-0.0577 2.521369,-0.70544 1.520669,-1.23494 2.893804,-4.0992 3.960756,-6.51165 0.01751,0.003 0.03524,0.003 0.05273,0.006 1.25649,0.18619 2.462042,0.94779 3.515464,1.22669 -0.551601,0.17397 -1.041028,0.35216 -1.390562,0.52908 -0.299266,0.15149 -0.520095,0.29008 -0.652313,0.48402 -0.06611,0.097 -0.109791,0.22532 -0.08203,0.35468 0.02776,0.12936 0.117523,0.22891 0.220694,0.29981 0.206338,0.1418 0.500879,0.22214 0.937457,0.2861 0.436579,0.064 1.011624,0.10169 1.751873,0.11169 0.0022,3e-5 0.0037,-2e-5 0.0059,0 0.0022,-2e-5 0.0037,3e-5 0.0059,0 0.74025,-0.01 1.315294,-0.0477 1.751873,-0.11169 0.436578,-0.064 0.73112,-0.1443 0.937457,-0.2861 0.103171,-0.0709 0.192936,-0.17045 0.220694,-0.29981 0.02777,-0.12936 -0.01592,-0.25771 -0.08203,-0.35468 -0.132218,-0.19394 -0.353047,-0.33253 -0.652313,-0.48402 -0.349534,-0.17692 -0.838961,-0.35511 -1.390562,-0.52908 1.053422,-0.2789 2.258974,-1.0405 3.515465,-1.22669 0.01749,-0.002 0.03522,-0.003 0.05273,-0.006 1.066952,2.41245 2.440088,5.27671 3.960756,6.51165 0.797646,0.64776 1.658778,0.89124 2.52137,0.70544 0.862589,-0.1858 1.670189,-0.78499 2.404187,-2.0889 0.733996,-1.30391 0.91319,-2.35474 0.621065,-3.18234 -0.292126,-0.82759 -1.040634,-1.57621 -2.01358,-1.91254 -1.854876,-0.6412 -4.597101,-0.86871 -7.224279,-0.50949 -0.007,-0.0162 -0.01654,-0.0328 -0.02344,-0.049 -0.497893,-1.16117 -0.705376,-2.11709 -1.017531,-3.154902 0.437677,0.375776 0.847063,0.698131 1.181585,0.901401 0.142547,0.08662 0.271073,0.108431 0.394513,0.109741 0.284368,-0.0183 0.635115,0.0227 0.851524,-0.270425 0.0066,-0.120744 -0.0117,-0.251227 -0.05078,-0.399752 -0.04148,-0.157667 -0.107841,-0.33718 -0.197257,-0.54476 -0.173644,-0.403122 -0.441429,-0.91018 -0.820275,-1.542181 -0.378844,-0.632004 -0.70053,-1.20827 -0.974565,-1.551978 -0.274036,-0.343705 -0.490012,-0.557627 -0.716764,-0.664294 -0.113378,-0.05333 -0.244444,-0.07999 -0.371076,-0.03919 -0.126629,0.04079 -0.218062,0.141535 -0.26952,0.246906 -0.102895,0.210746 -0.113308,0.470155 -0.0957,0.803423 0.02056,0.389055 0.110296,0.998511 0.234365,1.559817 -0.769646,-0.766946 -1.797432,-1.673165 -2.587772,-2.661094 -0.01097,-0.0137 -0.02225,-0.02938 -0.0332,-0.04311 1.569093,-2.124358 3.441665,-4.485674 3.757641,-6.411709 0.165741,-1.010273 0.03662,-1.923529 -0.556616,-2.572913 -0.556368,-0.608939 -1.926206,-0.938701 -3.333919,-0.962148 z"
       id="path3" />
    <path
       style="fill:url(#linearGradient3)"
       d="m -11.000035,84.000002 c -1.407714,0.02344 -2.777551,0.353209 -3.333832,0.962148 -0.593232,0.649384 -0.722357,1.56264 -0.556615,2.572913 0.315975,1.926035 2.188547,4.287351 3.757641,6.411709 -0.01095,0.01374 -0.02223,0.02941 -0.0332,0.04311 -0.79034,0.987929 -1.818126,1.894148 -2.587771,2.661094 0.124068,-0.561306 0.213806,-1.170762 0.234364,-1.559817 0.01761,-0.333268 0.0072,-0.592677 -0.0957,-0.803423 -0.05146,-0.105371 -0.142891,-0.206117 -0.269519,-0.246906 -0.126633,-0.04079 -0.257699,-0.01413 -0.371076,0.03919 -0.226753,0.106667 -0.442729,0.320589 -0.716765,0.664294 -0.274035,0.343708 -0.59572,0.919974 -0.974565,1.551978 -0.378846,0.632001 -0.646631,1.139059 -0.820275,1.542181 -0.08941,0.20758 -0.155775,0.387093 -0.197257,0.54476 -0.03908,0.148525 -0.05738,0.279008 -0.05078,0.399752 0.216409,0.29312 0.567156,0.252102 0.851524,0.27042 0.123441,-0.0013 0.251966,-0.02312 0.394513,-0.109736 0.334522,-0.20327 0.743909,-0.525625 1.181586,-0.901401 -0.312156,1.037809 -0.519638,1.993732 -1.017532,3.154902 -0.0069,0.0162 -0.01646,0.0328 -0.02344,0.049 -2.627177,-0.35922 -5.369403,-0.13171 -7.224279,0.50949 -0.972946,0.33633 -1.721452,1.08495 -2.01358,1.91254 -0.292125,0.8276 -0.112931,1.87843 0.621065,3.18234 0.733998,1.30391 1.541598,1.9031 2.404188,2.0889 0.862591,0.1858 1.723724,-0.0577 2.521369,-0.70544 1.520669,-1.23494 2.893804,-4.0992 3.960756,-6.51165 0.01751,0.003 0.03524,0.003 0.05273,0.006 1.25649,0.18619 2.462042,0.94779 3.515464,1.22669 -0.551601,0.17397 -1.041028,0.35216 -1.390562,0.52908 -0.299266,0.15149 -0.520095,0.29008 -0.652313,0.48402 -0.06611,0.097 -0.109791,0.22532 -0.08203,0.35468 0.02776,0.12936 0.117523,0.22891 0.220694,0.29981 0.206338,0.1418 0.500879,0.22214 0.937457,0.2861 0.436579,0.064 1.011624,0.10169 1.751873,0.11169 0.0022,3e-5 0.0037,-2e-5 0.0059,0 0.0022,-2e-5 0.0037,3e-5 0.0059,0 0.74025,-0.01 1.315294,-0.0477 1.751873,-0.11169 0.436578,-0.064 0.73112,-0.1443 0.937457,-0.2861 0.103171,-0.0709 0.192936,-0.17045 0.220694,-0.29981 0.02777,-0.12936 -0.01592,-0.25771 -0.08203,-0.35468 -0.132218,-0.19394 -0.353047,-0.33253 -0.652313,-0.48402 -0.349534,-0.17692 -0.838961,-0.35511 -1.390562,-0.52908 1.053422,-0.2789 2.258974,-1.0405 3.515465,-1.22669 0.01749,-0.002 0.03522,-0.003 0.05273,-0.006 1.066952,2.41245 2.440088,5.27671 3.960756,6.51165 0.797646,0.64776 1.658778,0.89124 2.52137,0.70544 0.862589,-0.1858 1.670189,-0.78499 2.404187,-2.0889 0.733996,-1.30391 0.91319,-2.35474 0.621065,-3.18234 -0.292126,-0.82759 -1.040634,-1.57621 -2.01358,-1.91254 -1.854876,-0.6412 -4.597101,-0.86871 -7.224279,-0.50949 -0.007,-0.0162 -0.01654,-0.0328 -0.02344,-0.049 -0.497893,-1.16117 -0.705376,-2.117093 -1.017531,-3.154902 0.437677,0.375776 0.847063,0.698131 1.181585,0.901401 0.142547,0.08662 0.271073,0.108432 0.394513,0.109736 0.284368,-0.01832 0.635115,0.0227 0.851524,-0.27042 0.0066,-0.120744 -0.0117,-0.251227 -0.05078,-0.399752 -0.04148,-0.157667 -0.107841,-0.33718 -0.197257,-0.54476 -0.173644,-0.403122 -0.441429,-0.91018 -0.820275,-1.542181 -0.378844,-0.632004 -0.70053,-1.20827 -0.974565,-1.551978 -0.274036,-0.343705 -0.490012,-0.557627 -0.716764,-0.664294 -0.113378,-0.05333 -0.244444,-0.07999 -0.371076,-0.03919 -0.126629,0.04079 -0.218062,0.141535 -0.26952,0.246906 -0.102895,0.210746 -0.113308,0.470155 -0.0957,0.803423 0.02056,0.389055 0.110296,0.998511 0.234365,1.559817 -0.769646,-0.766946 -1.797432,-1.673165 -2.587772,-2.661094 -0.01097,-0.0137 -0.02225,-0.02938 -0.0332,-0.04311 1.569093,-2.124358 3.441665,-4.485674 3.757641,-6.411709 0.165741,-1.010273 0.03662,-1.923529 -0.556616,-2.572913 -0.556368,-0.608939 -1.926206,-0.938701 -3.333919,-0.962148 z"
       id="path4" />
    <path
       style="opacity:0.1;fill:#ffffff"
       d="m -11,84 c -1.407714,0.02344 -2.777703,0.353952 -3.333984,0.962891 -0.544458,0.595993 -0.684691,1.418543 -0.578125,2.330078 0.06924,-0.505841 0.242641,-0.962839 0.578125,-1.330078 C -13.777703,85.353952 -12.407714,85.02344 -11,85 c 1.407713,0.02345 2.777616,0.353952 3.333984,0.962891 0.335487,0.367239 0.508887,0.824237 0.578125,1.330078 0.106565,-0.911535 -0.03366,-1.734085 -0.578125,-2.330078 C -8.222384,84.353952 -9.592287,84.023447 -11,84 Z m -3.074219,10.025391 c -0.06277,0.0082 -0.124952,0.02803 -0.18164,0.05469 -0.226753,0.106667 -0.442761,0.320358 -0.716797,0.664063 -0.274035,0.343708 -0.595765,0.92073 -0.97461,1.552734 -0.378846,0.632001 -0.646668,1.137894 -0.820312,1.541016 -0.08941,0.20758 -0.155784,0.387254 -0.197266,0.544921 -0.03908,0.148525 -0.05738,0.279647 -0.05078,0.400391 0.0591,0.08005 0.130023,0.133652 0.205078,0.171875 0.0171,-0.04217 0.02371,-0.07248 0.04297,-0.117187 0.173644,-0.403122 0.441466,-0.909015 0.820312,-1.541016 0.378845,-0.632004 0.700575,-1.209026 0.97461,-1.552734 0.274036,-0.343705 0.490044,-0.557396 0.716797,-0.664063 0.113377,-0.05332 0.24446,-0.07985 0.371093,-0.03906 0.126628,0.04079 0.218072,0.140722 0.269532,0.246093 0.02884,0.05907 0.03701,0.131949 0.05273,0.199219 0.01548,-0.13528 0.0373,-0.287173 0.04297,-0.394531 0.01761,-0.333268 0.0072,-0.593942 -0.0957,-0.804688 -0.05146,-0.105371 -0.142904,-0.205304 -0.269532,-0.246093 -0.06332,-0.0204 -0.126685,-0.02386 -0.189453,-0.01563 z m 6.148438,0 c -0.06277,-0.0082 -0.126137,-0.0048 -0.189453,0.01563 -0.126629,0.04079 -0.218074,0.140722 -0.269532,0.246093 -0.102895,0.210746 -0.113311,0.47142 -0.0957,0.804688 0.0057,0.107358 0.02749,0.259251 0.04297,0.394531 0.01573,-0.06727 0.02389,-0.140149 0.05273,-0.199219 0.05146,-0.105371 0.142903,-0.205303 0.269532,-0.246093 0.126632,-0.0408 0.257715,-0.01427 0.371093,0.03906 0.226752,0.106667 0.442761,0.320358 0.716797,0.664063 0.274035,0.343708 0.595766,0.92073 0.97461,1.552734 0.378846,0.632001 0.646668,1.137894 0.820312,1.541016 0.01926,0.04471 0.02587,0.07502 0.04297,0.117187 0.07505,-0.03822 0.145975,-0.09182 0.205078,-0.171875 0.0066,-0.120744 -0.0117,-0.251865 -0.05078,-0.400391 -0.04148,-0.157667 -0.10785,-0.337341 -0.197266,-0.544921 -0.173644,-0.403122 -0.441466,-0.909015 -0.820312,-1.541016 -0.378844,-0.632004 -0.700575,-1.209026 -0.97461,-1.552734 -0.274036,-0.343705 -0.490045,-0.557396 -0.716797,-0.664063 -0.05669,-0.02667 -0.118872,-0.04646 -0.18164,-0.05469 z m -3.605469,0.384765 c -0.661944,0.751035 -1.401008,1.43855 -2.029297,2.052735 -0.04008,0.359382 -0.101499,0.771907 -0.193359,1.1875 0.769645,-0.766946 1.79755,-1.672228 2.58789,-2.660157 0.01097,-0.0137 0.02225,-0.02923 0.0332,-0.04297 -0.129572,-0.175424 -0.265775,-0.358833 -0.398438,-0.53711 z m 1.0625,0 c -0.132663,0.178277 -0.268866,0.361686 -0.398438,0.53711 0.01095,0.01373 0.02223,0.02927 0.0332,0.04297 0.79034,0.987929 1.818244,1.893211 2.58789,2.660157 -0.09186,-0.415593 -0.153283,-0.828118 -0.193359,-1.1875 -0.62829,-0.614185 -1.367353,-1.3017 -2.029297,-2.052735 z m -4.119141,4.632813 c -0.130682,0.112199 -0.250601,0.207667 -0.375,0.308593 -0.168865,0.584351 -0.357408,1.180638 -0.642578,1.845708 -0.0069,0.0162 -0.01646,0.0327 -0.02344,0.0488 -2.627177,-0.35922 -5.369734,-0.13144 -7.22461,0.50976 -0.972946,0.33633 -1.721543,1.08452 -2.013672,1.91211 -0.143962,0.40785 -0.171132,0.87078 -0.07617,1.39063 0.02231,-0.13148 0.0332,-0.2689 0.07617,-0.39063 0.292129,-0.82759 1.040726,-1.57578 2.013672,-1.91211 1.854876,-0.6412 4.597433,-0.86898 7.22461,-0.50976 0.007,-0.0162 0.01654,-0.0326 0.02344,-0.0488 0.497894,-1.16118 0.705422,-2.11649 1.017578,-3.154301 z m 7.175782,0 c 0.312155,1.037811 0.519685,1.993121 1.017578,3.154301 0.0069,0.0162 0.01644,0.0327 0.02344,0.0488 2.627178,-0.35922 5.369734,-0.13144 7.22461,0.50976 0.972946,0.33633 1.721545,1.08452 2.013672,1.91211 0.04297,0.12173 0.05386,0.25915 0.07617,0.39063 0.09496,-0.51986 0.06779,-0.98278 -0.07617,-1.39063 -0.292127,-0.82759 -1.040726,-1.57578 -2.013672,-1.91211 -1.854876,-0.6412 -4.597432,-0.86898 -7.22461,-0.50976 -0.007,-0.0162 -0.01654,-0.0326 -0.02344,-0.0488 -0.285169,-0.66507 -0.473713,-1.261357 -0.642578,-1.845708 -0.124398,-0.100926 -0.244318,-0.196394 -0.375,-0.308593 z m -5.705079,4.414061 c -0.01891,0.009 -0.04629,0.0181 -0.06445,0.0273 -0.299266,0.15148 -0.520125,0.29044 -0.652343,0.48438 -0.06611,0.097 -0.109793,0.22415 -0.08203,0.35351 0.02776,0.12937 0.117533,0.22988 0.220704,0.30078 0.04213,0.0289 0.106313,0.0461 0.15625,0.0703 0.1035,-0.0709 0.219712,-0.13928 0.357421,-0.20898 0.349534,-0.17692 0.839024,-0.35533 1.390625,-0.5293 -0.418478,-0.11079 -0.866021,-0.30123 -1.326172,-0.49804 z m 4.234376,0 c -0.460151,0.19681 -0.907694,0.38725 -1.326172,0.49805 0.551601,0.17397 1.041091,0.35237 1.390625,0.5293 0.137709,0.0697 0.253921,0.13808 0.357421,0.20898 0.04994,-0.0242 0.114125,-0.0414 0.15625,-0.0703 0.103171,-0.0709 0.192946,-0.17142 0.220704,-0.30078 0.02777,-0.12936 -0.01592,-0.25655 -0.08203,-0.35352 -0.132218,-0.19393 -0.353077,-0.33289 -0.652343,-0.48437 -0.01816,-0.009 -0.04555,-0.0182 -0.06445,-0.0273 z"
       id="path5" />
  </g>
</svg>
