<?xml version="1.0" encoding="UTF-8" standalone="no"?>
<svg
   width="62"
   height="62"
   version="1.1"
   id="svg47"
   sodipodi:docname="caffeine.svg"
   inkscape:version="1.4 (e7c3feb100, 2024-10-09)"
   xmlns:inkscape="http://www.inkscape.org/namespaces/inkscape"
   xmlns:sodipodi="http://sodipodi.sourceforge.net/DTD/sodipodi-0.dtd"
   xmlns:xlink="http://www.w3.org/1999/xlink"
   xmlns="http://www.w3.org/2000/svg"
   xmlns:svg="http://www.w3.org/2000/svg">
  <sodipodi:namedview
     id="namedview47"
     pagecolor="#ffffff"
     bordercolor="#000000"
     borderopacity="0.25"
     inkscape:showpageshadow="2"
     inkscape:pageopacity="0.0"
     inkscape:pagecheckerboard="0"
     inkscape:deskcolor="#d1d1d1"
     inkscape:zoom="8.5626212"
     inkscape:cx="26.10182"
     inkscape:cy="27.386474"
     inkscape:window-width="1920"
     inkscape:window-height="998"
     inkscape:window-x="0"
     inkscape:window-y="0"
     inkscape:window-maximized="1"
     inkscape:current-layer="svg47" />
  <defs
     id="defs29">
    <linearGradient
       id="a">
      <stop
         offset="0"
         stop-color="#ad9177"
         stop-opacity=".373"
         id="stop1" />
      <stop
         offset=".251"
         stop-color="#947b62"
         id="stop2" />
      <stop
         offset=".721"
         stop-color="#947b62"
         id="stop3" />
      <stop
         offset="1"
         stop-color="#947b62"
         stop-opacity=".009"
         id="stop4" />
    </linearGradient>
    <linearGradient
       xlink:href="#a"
       id="r"
       x1="56.576"
       x2="56.576"
       y1="13.28"
       y2="18.039"
       gradientTransform="matrix(2.0785794,0,0,2.3972634,-135.26107,-41.98739)"
       gradientUnits="userSpaceOnUse" />
    <linearGradient
       xlink:href="#a"
       id="s"
       x1="56.576"
       x2="56.576"
       y1="13.718"
       y2="18.039"
       gradientTransform="matrix(2.0785794,0,0,2.3972634,-129.47443,-42.093425)"
       gradientUnits="userSpaceOnUse" />
    <linearGradient
       xlink:href="#a"
       id="t"
       x1="56.576"
       x2="56.576"
       y1="13.28"
       y2="18.039"
       gradientTransform="matrix(2.0785794,0,0,2.3972634,-123.77842,-42.093425)"
       gradientUnits="userSpaceOnUse" />
    <linearGradient
       id="e"
       x1="-37.637001"
       x2="-36.792999"
       y1="280.01001"
       y2="273.35999"
       gradientTransform="matrix(1.7729092,0,0,1.7667393,105.71876,-447.56699)"
       gradientUnits="userSpaceOnUse">
      <stop
         offset="0"
         stop-color="#fefefe"
         id="stop5" />
      <stop
         offset="1"
         stop-color="#8c8c8c"
         id="stop6" />
    </linearGradient>
    <linearGradient
       id="b">
      <stop
         offset="0"
         id="stop7" />
      <stop
         offset="1"
         stop-opacity="0"
         id="stop8" />
    </linearGradient>
    <linearGradient
       id="n"
       x1="5.684"
       x2="35.033001"
       y1="16.365999"
       y2="16.365999"
       gradientTransform="matrix(0.53459096,0,0,0.38966977,26.578869,15.980365)"
       gradientUnits="userSpaceOnUse"
       spreadMethod="reflect">
      <stop
         offset="0"
         stop-color="#d1d1d1"
         id="stop9" />
      <stop
         offset="1"
         stop-color="#959594"
         id="stop10" />
    </linearGradient>
    <linearGradient
       id="p"
       x1="87.050003"
       x2="87.050003"
       y1="53.75"
       y2="41.73"
       gradientTransform="translate(-64.303,-0.031)"
       gradientUnits="userSpaceOnUse">
      <stop
         offset="0"
         stop-color="#fff"
         id="stop11" />
      <stop
         offset="1"
         stop-color="#fff"
         stop-opacity="0"
         id="stop12" />
    </linearGradient>
    <linearGradient
       id="d"
       x1="408.25"
       x2="407.94"
       y1="547.59998"
       y2="498.89001"
       gradientTransform="matrix(1.2797488,0,0,1.2797488,-492.05958,-639.43291)"
       gradientUnits="userSpaceOnUse">
      <stop
         offset="0"
         stop-color="#fff"
         id="stop13" />
      <stop
         offset="1"
         stop-color="#e6e6e6"
         id="stop14" />
    </linearGradient>
    <radialGradient
       id="f"
       cx="-42.763"
       cy="277.01999"
       r="7.1999998"
       gradientTransform="matrix(1.7729092,0,0,0.82961951,105.71876,-187.96392)"
       gradientUnits="userSpaceOnUse">
      <stop
         offset="0"
         stop-color="#fff"
         id="stop15" />
      <stop
         offset="1"
         stop-color="#ccc"
         id="stop16" />
    </radialGradient>
    <radialGradient
       xlink:href="#b"
       id="g"
       cx="62.625"
       cy="4.625"
       r="10.625"
       gradientTransform="matrix(1.6764165,0,0,0.55436174,-75.65161,39.934682)"
       gradientUnits="userSpaceOnUse" />
    <radialGradient
       id="h"
       cx="118.48"
       cy="58.118999"
       r="13.983"
       gradientTransform="matrix(-0.38960231,0.39111572,-0.24624271,-0.24912488,106.51882,-1.1645654)"
       gradientUnits="userSpaceOnUse">
      <stop
         offset="0"
         stop-color="#fefefe"
         id="stop17" />
      <stop
         offset="1"
         stop-color="#b4b4b3"
         id="stop18" />
    </radialGradient>
    <radialGradient
       id="i"
       cx="94.238998"
       cy="62.312"
       r="13.983"
       gradientTransform="matrix(-0.43381896,0.0222385,-0.01923097,-0.38098455,94.18017,44.617583)"
       gradientUnits="userSpaceOnUse">
      <stop
         offset="0"
         stop-color="#fff"
         id="stop19" />
      <stop
         offset="1"
         stop-color="#fff"
         stop-opacity="0"
         id="stop20" />
    </radialGradient>
    <radialGradient
       xlink:href="#b"
       id="j"
       cx="106.33"
       cy="65.468002"
       r="13.983"
       gradientTransform="matrix(-0.3338567,3.6630348e-4,0,-0.12527576,82.436291,33.341223)"
       gradientUnits="userSpaceOnUse" />
    <radialGradient
       xlink:href="#b"
       id="k"
       cx="62.625"
       cy="4.625"
       r="10.625"
       gradientTransform="matrix(2.3026993,0,0,0.76146776,-114.87302,38.97651)"
       gradientUnits="userSpaceOnUse" />
    <radialGradient
       id="l"
       cx="-6.454"
       cy="29.205999"
       r="32"
       gradientTransform="matrix(0,0.79064674,-0.82493468,0,45.16106,34.452662)"
       gradientUnits="userSpaceOnUse">
      <stop
         offset="0"
         stop-color="#eeeeec"
         id="stop21" />
      <stop
         offset=".5"
         stop-color="#cacac9"
         id="stop22" />
      <stop
         offset="1"
         stop-color="#6b6b6b"
         id="stop23" />
    </radialGradient>
    <radialGradient
       id="o"
       cx="8.4379997"
       cy="32.535"
       r="26.406"
       gradientTransform="matrix(0.65958723,0,0,0.2692909,24.088003,17.913096)"
       gradientUnits="userSpaceOnUse">
      <stop
         offset="0"
         stop-color="#8b6a35"
         id="stop24" />
      <stop
         offset=".371"
         stop-color="#885f22"
         id="stop25" />
      <stop
         offset=".686"
         stop-color="#754d0d"
         id="stop26" />
      <stop
         offset="1"
         stop-color="#483816"
         id="stop27" />
    </radialGradient>
    <filter
       id="m"
       width="1.1126191"
       height="1.2251997"
       x="-0.056309549"
       y="-0.11259987"
       color-interpolation-filters="sRGB">
      <feGaussianBlur
         stdDeviation="1.374"
         id="feGaussianBlur27" />
    </filter>
    <filter
       id="q"
       width="1.063555"
       height="1.1961078"
       x="-0.031777475"
       y="-0.098053888"
       color-interpolation-filters="sRGB">
      <feGaussianBlur
         stdDeviation=".655"
         id="feGaussianBlur28" />
    </filter>
    <filter
       id="c"
       width="1.0720223"
       height="1.0720223"
       x="-0.036011127"
       y="-0.036011127"
       color-interpolation-filters="sRGB">
      <feGaussianBlur
         stdDeviation=".89"
         id="feGaussianBlur29" />
    </filter>
  </defs>
  <g
     id="g48">
    <rect
       width="59.314999"
       height="59.314999"
       x="386.85001"
       y="486.31"
       filter="url(#c)"
       opacity="0.25"
       ry="29.657"
       transform="matrix(0.97504203,0,0,0.97504203,-375.11233,-472.09)"
       id="rect29" />
    <rect
       width="57.834476"
       height="57.834476"
       x="2.0866601"
       y="2.0781841"
       fill="url(#d)"
       ry="28.916763"
       id="rect30"
       style="fill:url(#d);stroke-width:0.96396" />
    <rect
       width="61.693222"
       height="61.693222"
       fill="none"
       rx="0"
       ry="0"
       style="stroke-width:0.96396;paint-order:stroke fill markers"
       id="rect31"
       x="0.17513512"
       y="0.17147826" />
    <ellipse
       cx="30.090548"
       cy="41.745964"
       fill="#808080"
       rx="16.750671"
       ry="8.3921986"
       id="ellipse31"
       style="stroke-width:0.96396" />
    <ellipse
       cx="30.090548"
       cy="40.809944"
       fill="url(#e)"
       rx="16.750671"
       ry="8.3921986"
       id="ellipse32"
       style="fill:url(#e);stroke-width:0.96396" />
    <ellipse
       cx="30.090548"
       cy="41.860653"
       fill="url(#f)"
       rx="12.764702"
       ry="5.9726758"
       id="ellipse33"
       style="fill:url(#f);stroke-width:0.96396" />
    <path
       fill="url(#g)"
       fill-rule="evenodd"
       d="m 47.146796,42.497837 c 0,3.253348 -7.974808,5.889769 -17.811984,5.889769 -9.837171,0 -17.811985,-2.636421 -17.811985,-5.889769 0,-3.253354 7.974814,-5.889777 17.811985,-5.889777 9.837176,0 17.811984,2.636423 17.811984,5.889777"
       opacity="0.3"
       id="path33"
       style="fill:url(#g);stroke-width:0.96396" />
    <path
       fill="url(#h)"
       d="m 43.151198,37.316569 c 3.417226,-0.304608 10.94669,-1.148076 10.405905,-9.886339 -0.02894,-0.464621 -0.148445,-0.940816 -0.353767,-1.308091 A 3.2774513,3.2774513 0 0 0 52.282757,25.103242 C 50.526425,23.834677 47.34441,24.03229 45.062724,24.03229 37.581456,25.605464 35.99864,38.301735 43.151198,37.317534 Z M 44.35036,27.063926 c 0,0 6.017977,-0.904187 6.225231,0.252563 0.676696,7.060977 -6.206917,6.082558 -6.206917,6.082558 l -0.01832,-5.925438 z"
       id="path34"
       style="fill:url(#h);stroke-width:0.96396" />
    <path
       d="m 45.107064,24.312796 c -3.597482,0.756711 -5.790484,4.215381 -6.209804,7.362698 -0.210142,1.574141 0.02601,3.052851 0.713326,4.048623 0.687306,0.997694 1.802597,1.551002 3.513621,1.315798 h 0.01737 c 1.551968,-0.138809 5.61986,-0.986131 7.767557,-3.014293 1.074814,-1.014085 0.585122,-2.940064 1.277245,-3.96283 0.693083,-1.023719 1.096016,-1.97321 1.096016,-2.629664 0,-0.400043 -0.144592,-0.842501 -0.330634,-1.174103 a 2.8918687,2.8918687 0 0 0 -0.8348,-0.92926 c -1.604032,-1.158664 -4.716643,-1.018892 -7.009896,-1.016969 m -0.800082,2.874517 a 0.28918687,0.28918687 0 0 1 0.05203,0 c 0,0 3.963787,-0.163872 5.285372,-0.163872 0.07422,0 -0.05203,-0.05201 0,0 0.05305,0.05308 0,-0.07328 0,0 0,1.565467 0.245809,4.140197 -0.860815,4.860266 a 10.217939,10.217939 0 0 1 -2.208427,1.069995 0.27954729,0.27954729 0 0 1 -0.2487,-0.03854 0.27954729,0.27954729 0 0 1 -0.116638,-0.225569 l -2.130336,-5.221749 a 0.27954729,0.27954729 0 0 1 0.226529,-0.279547 z"
       id="path35"
       style="fill:url(#i);stroke-width:0.96396" />
    <path
       d="m 45.385649,24.03229 c -3.597487,0.756702 -5.790486,4.21538 -6.209807,7.362696 -0.210142,1.57414 0.02601,3.052848 0.713328,4.048615 0.687302,0.997692 1.802599,1.551009 3.513619,1.315799 h 0.01736 c 1.551973,-0.138812 6.277286,-0.813578 8.424979,-2.842708 1.074813,-1.014075 -0.07234,-3.111645 0.619826,-4.134404 0.692117,-1.022764 1.096019,-1.973224 1.096019,-2.629671 0,-0.400049 -0.144597,-0.842499 -0.330642,-1.1741 A 2.8918687,2.8918687 0 0 0 52.395553,25.049263 C 50.791528,23.890584 47.678909,24.030362 45.385661,24.03229 m -0.800084,2.874517 a 0.28918687,0.28918687 0 0 1 0.05203,0 c 0,0 4.950876,0.131092 6.272464,0.131092 a 0.27665548,0.27665548 0 0 1 0.27762,0.280517 c 0,1.565467 -1.018906,3.564704 -2.125524,4.284789 a 10.217939,10.217939 0 0 1 -2.208425,1.069989 0.27954729,0.27954729 0 0 1 -0.249664,-0.03855 0.27954729,0.27954729 0 0 1 -0.115675,-0.225559 l -2.130331,-5.22177 a 0.27954729,0.27954729 0 0 1 0.22653,-0.27954 z"
       opacity="0.3"
       id="path36"
       style="fill:url(#j);stroke-width:0.96396" />
    <path
       fill-rule="evenodd"
       d="m 53.800989,42.497837 c 0,4.4689 -10.954402,8.090483 -24.466177,8.090483 -13.512742,0 -24.4661742,-3.62255 -24.4661742,-8.090483 0,-4.467938 10.9543992,-8.090484 24.4661742,-8.090484 13.512741,0 24.466177,3.622546 24.466177,8.090484"
       opacity="0.3"
       id="path37"
       style="fill:url(#k);stroke-width:0.96396" />
    <path
       d="m 29.653885,15.449221 c -9.311819,0 -16.934782,2.699072 -17.498701,6.100878 h -0.03475 v 4.101637 c 0.125312,10.870536 7.933363,19.651209 17.533404,19.651209 9.601001,0 17.40808,-8.780673 17.533398,-19.651209 v -4.101637 h -0.03473 c -0.563874,-3.400835 -8.18684,-6.099912 -17.498655,-6.099912 z"
       id="path38"
       style="fill:url(#l);stroke-width:0.96396" />
    <path
       d="m 45.307569,22.357894 c 0.002,3.151175 -7.00796,5.706619 -15.653684,5.706619 -8.645726,0 -15.654658,-2.555444 -15.653687,-5.706619 -0.002,-3.15117 7.007961,-5.706617 15.653687,-5.706617 8.645724,0 15.654648,2.555447 15.653684,5.706617"
       id="path40"
       style="fill:url(#n);stroke-width:0.96396" />
    <path
       fill="#36290f"
       d="m 29.652915,19.218288 c -7.250878,0 -13.572504,2.027203 -15.348111,4.289609 1.247362,2.249875 7.743466,4.526736 14.984703,4.526736 7.240276,0 14.985665,-2.357837 15.826233,-4.770616 -1.777536,-2.262407 -8.212903,-4.045729 -15.462825,-4.045729"
       id="path41"
       style="stroke-width:0.96396" />
    <path
       d="m 29.652915,19.697378 c -7.250878,0 -13.318981,1.764038 -15.09459,4.189354 1.784285,2.419524 7.852389,4.22502 15.09459,4.22502 7.240277,0 13.305494,-1.812238 15.090739,-4.23177 -1.776569,-2.424348 -7.840817,-4.182604 -15.090739,-4.182604"
       id="path42"
       style="fill:url(#o);stroke-width:0.96396" />
    <path
       fill="none"
       d="m 45.789546,22.357894 c 0.002,3.251422 -7.222925,5.886884 -16.135661,5.886884 -8.912747,0 -16.1376,-2.634491 -16.135664,-5.886884 -0.002,-3.25142 7.222917,-5.886881 16.135664,-5.886881 8.912736,0 16.13759,2.635461 16.135661,5.886881"
       opacity="0.4"
       id="path44"
       style="stroke-width:0.96396" />
  </g>
</svg>
