<?xml version="1.0" encoding="UTF-8" standalone="no"?>
<svg
   width="62"
   height="62"
   version="1"
   id="svg7"
   sodipodi:docname="calligraflow.svg"
   inkscape:version="1.4 (e7c3feb100, 2024-10-09)"
   xmlns:inkscape="http://www.inkscape.org/namespaces/inkscape"
   xmlns:sodipodi="http://sodipodi.sourceforge.net/DTD/sodipodi-0.dtd"
   xmlns:xlink="http://www.w3.org/1999/xlink"
   xmlns="http://www.w3.org/2000/svg"
   xmlns:svg="http://www.w3.org/2000/svg">
  <defs
     id="defs7">
    <linearGradient
       id="linearGradient11"
       inkscape:collect="always">
      <stop
         style="stop-color:#efc3d4;stop-opacity:1;"
         offset="0"
         id="stop11" />
      <stop
         style="stop-color:#c83771;stop-opacity:1"
         offset="1"
         id="stop12" />
    </linearGradient>
    <linearGradient
       id="linearGradient1"
       inkscape:collect="always">
      <stop
         style="stop-color:#de8787;stop-opacity:1;"
         offset="0"
         id="stop5" />
      <stop
         style="stop-color:#da7883;stop-opacity:1;"
         offset="0.17952757"
         id="stop7" />
      <stop
         style="stop-color:#cb4574;stop-opacity:1;"
         offset="0.82017738"
         id="stop8" />
      <stop
         style="stop-color:#c83771;stop-opacity:1"
         offset="1"
         id="stop6" />
    </linearGradient>
    <linearGradient
       id="c-3"
       gradientUnits="userSpaceOnUse"
       x1="24.072048"
       x2="23.959682"
       y1="0.75082099"
       y2="46.056854">
      <stop
         offset="0"
         stop-color="#fff"
         id="stop3" />
      <stop
         offset="1"
         stop-color="#d9d9d9"
         id="stop4" />
    </linearGradient>
    <linearGradient
       id="b-6"
       gradientUnits="userSpaceOnUse"
       x1="29.203026"
       x2="34.121048"
       xlink:href="#a-7"
       y1="24.827356"
       y2="29.224836" />
    <linearGradient
       id="a-7">
      <stop
         offset="0"
         id="stop1" />
      <stop
         offset="1"
         stop-opacity="0"
         id="stop2" />
    </linearGradient>
    <linearGradient
       id="d"
       gradientUnits="userSpaceOnUse"
       x1="15.948756"
       x2="25.031786"
       xlink:href="#a-7"
       y1="23.618279"
       y2="33.69899" />
    <linearGradient
       id="e"
       gradientUnits="userSpaceOnUse"
       x1="21.990562"
       x2="29.320522"
       xlink:href="#a-7"
       y1="33.780373"
       y2="41.931858" />
    <linearGradient
       id="paint154_linear_890_11"
       x1="778"
       y1="812.29199"
       x2="788"
       y2="812.29199"
       gradientUnits="userSpaceOnUse"
       gradientTransform="translate(-751,-696)">
      <stop
         stop-color="#EFF2F6"
         id="stop1050" />
      <stop
         offset="0.600785"
         stop-color="#B7C6CD"
         id="stop1051" />
    </linearGradient>
    <linearGradient
       id="paint155_linear_890_11"
       x1="783"
       y1="813"
       x2="783"
       y2="817"
       gradientUnits="userSpaceOnUse"
       gradientTransform="translate(-751,-696)">
      <stop
         stop-color="#EFF2F6"
         id="stop1052" />
      <stop
         offset="0.734138"
         stop-color="#B7C6CD"
         id="stop1053" />
    </linearGradient>
    <radialGradient
       id="paint156_radial_890_11"
       cx="0"
       cy="0"
       r="1"
       gradientUnits="userSpaceOnUse"
       gradientTransform="matrix(27.999986,27.999976,-27.999986,27.999976,32.302392,33.999998)">
      <stop
         offset="0.60067803"
         stop-color="#B7C6CD"
         id="stop1054"
         style="stop-color:#384850;stop-opacity:1;" />
      <stop
         offset="0.876735"
         stop-color="#EFF2F6"
         id="stop1055" />
    </radialGradient>
    <linearGradient
       id="paint157_linear_890_11"
       x1="796.84485"
       y1="799.43359"
       x2="768.90088"
       y2="770.81476"
       gradientUnits="userSpaceOnUse"
       gradientTransform="matrix(1.1666666,0,0,1.1666668,-881.19764,-881.8333)">
      <stop
         offset="0.00000057"
         stop-color="#2E2E41"
         id="stop1056"
         style="stop-color:#424b58;stop-opacity:1;" />
      <stop
         offset="0.71113902"
         stop-color="#566C80"
         id="stop1057"
         style="stop-color:#303c47;stop-opacity:1;" />
    </linearGradient>
    <linearGradient
       id="paint158_linear_890_11"
       x1="792"
       y1="794"
       x2="774"
       y2="776"
       gradientUnits="userSpaceOnUse"
       gradientTransform="translate(-751,-696)">
      <stop
         offset="0.304478"
         stop-color="#2E2E41"
         id="stop1058" />
      <stop
         offset="1"
         stop-color="#566C80"
         id="stop1059" />
    </linearGradient>
    <linearGradient
       id="paint159_linear_890_11"
       x1="788"
       y1="790"
       x2="778"
       y2="780"
       gradientUnits="userSpaceOnUse"
       gradientTransform="translate(-751,-696)">
      <stop
         offset="0.391394"
         stop-color="#5200FF"
         id="stop1060" />
      <stop
         offset="1"
         stop-color="#0085FF"
         id="stop1061" />
    </linearGradient>
    <linearGradient
       id="paint160_linear_890_11"
       x1="784"
       y1="798"
       x2="782"
       y2="796"
       gradientUnits="userSpaceOnUse"
       gradientTransform="translate(-751,-696)">
      <stop
         stop-color="#FF7E07"
         id="stop1062" />
      <stop
         offset="1"
         stop-color="#FFE607"
         id="stop1063" />
    </linearGradient>
    <linearGradient
       id="c-3-6"
       gradientUnits="userSpaceOnUse"
       x1="24.072048"
       x2="23.959682"
       y1="0.75082099"
       y2="46.056854"
       gradientTransform="matrix(0.91471346,0,0,0.90068147,9.0468769,9.3836444)">
      <stop
         offset="0"
         stop-color="#fff"
         id="stop3-2" />
      <stop
         offset="1"
         stop-color="#d9d9d9"
         id="stop4-9" />
    </linearGradient>
    <linearGradient
       id="b-6-1"
       gradientUnits="userSpaceOnUse"
       x1="29.203026"
       x2="34.121048"
       xlink:href="#a-7"
       y1="24.827356"
       y2="29.224836"
       gradientTransform="matrix(1.1104534,0,0,1.0934187,4.3491158,4.7861435)" />
    <linearGradient
       id="d-0"
       gradientUnits="userSpaceOnUse"
       x1="15.948756"
       x2="25.031786"
       xlink:href="#a-7"
       y1="23.618279"
       y2="33.69899"
       gradientTransform="matrix(1.1104534,0,0,1.0934187,4.3491158,4.7861435)" />
    <linearGradient
       id="e-9"
       gradientUnits="userSpaceOnUse"
       x1="21.990562"
       x2="29.320522"
       xlink:href="#a-7"
       y1="33.780373"
       y2="41.931858"
       gradientTransform="matrix(1.1104534,0,0,1.0934187,4.3491158,4.7861435)" />
    <linearGradient
       id="paint539_linear_890_11"
       x1="1007"
       y1="317"
       x2="951.659"
       y2="269.565"
       gradientUnits="userSpaceOnUse"
       gradientTransform="translate(-952,-258)">
      <stop
         offset="0.223912"
         stop-color="#5200FF"
         id="stop1821"
         style="stop-color:#c83771;stop-opacity:1" />
      <stop
         offset="0.902995"
         stop-color="#0085FF"
         id="stop1822"
         style="stop-color:#de8787;stop-opacity:1" />
    </linearGradient>
    <linearGradient
       id="paint540_linear_890_11"
       x1="974.5"
       y1="274"
       x2="974.5"
       y2="280"
       gradientUnits="userSpaceOnUse"
       gradientTransform="translate(-956.76287,-248.99466)">
      <stop
         offset="0.189495"
         stop-color="#EFF2F6"
         id="stop1823" />
      <stop
         offset="0.850463"
         stop-color="#B7C6CD"
         id="stop1824" />
    </linearGradient>
    <linearGradient
       id="paint541_linear_890_11"
       x1="983"
       y1="282"
       x2="983"
       y2="288"
       gradientUnits="userSpaceOnUse"
       gradientTransform="translate(-956.76287,-248.99466)">
      <stop
         offset="0.189495"
         stop-color="#EFF2F6"
         id="stop1825" />
      <stop
         offset="0.850463"
         stop-color="#B7C6CD"
         id="stop1826" />
    </linearGradient>
    <linearGradient
       id="paint542_linear_890_11"
       x1="983"
       y1="290"
       x2="983"
       y2="296"
       gradientUnits="userSpaceOnUse"
       gradientTransform="translate(-956.76287,-248.99466)">
      <stop
         offset="0.189495"
         stop-color="#EFF2F6"
         id="stop1827" />
      <stop
         offset="0.850463"
         stop-color="#B7C6CD"
         id="stop1828" />
    </linearGradient>
    <linearGradient
       id="paint543_linear_890_11"
       x1="978.5"
       y1="298"
       x2="978.5"
       y2="304"
       gradientUnits="userSpaceOnUse"
       gradientTransform="translate(-956.76287,-248.99466)">
      <stop
         offset="0.189495"
         stop-color="#EFF2F6"
         id="stop1829" />
      <stop
         offset="0.850463"
         stop-color="#B7C6CD"
         id="stop1830" />
    </linearGradient>
    <linearGradient
       id="paint544_linear_890_11"
       x1="993"
       y1="261"
       x2="1007"
       y2="275"
       gradientUnits="userSpaceOnUse"
       gradientTransform="translate(-952,-258)">
      <stop
         stop-color="#EFF2F6"
         id="stop1831" />
      <stop
         offset="1"
         stop-color="#B7C6CD"
         id="stop1832" />
    </linearGradient>
    <linearGradient
       id="paint545_linear_890_11"
       x1="1000.58"
       y1="267.41699"
       x2="994.75"
       y2="273.25"
       gradientUnits="userSpaceOnUse"
       gradientTransform="translate(-952,-258)">
      <stop
         stop-color="#5200FF"
         id="stop1833"
         style="stop-color:#c83771;stop-opacity:1" />
      <stop
         offset="1"
         stop-color="#0085FF"
         id="stop1834"
         style="stop-color:#e9afc6;stop-opacity:1" />
    </linearGradient>
    <linearGradient
       inkscape:collect="always"
       xlink:href="#paint541_linear_890_11"
       id="linearGradient6"
       x1="5.2031999"
       y1="8.4664898"
       x2="11.7298"
       y2="8.4664898"
       gradientUnits="userSpaceOnUse" />
    <linearGradient
       inkscape:collect="always"
       xlink:href="#linearGradient1"
       id="linearGradient7"
       x1="0"
       y1="14.554609"
       x2="53.800045"
       y2="56.599194"
       gradientUnits="userSpaceOnUse" />
    <linearGradient
       inkscape:collect="always"
       xlink:href="#linearGradient11"
       id="linearGradient12"
       x1="43.261257"
       y1="14.57356"
       x2="48"
       y2="10"
       gradientUnits="userSpaceOnUse" />
  </defs>
  <sodipodi:namedview
     id="namedview7"
     pagecolor="#ffffff"
     bordercolor="#000000"
     borderopacity="0.25"
     inkscape:showpageshadow="2"
     inkscape:pageopacity="0.0"
     inkscape:pagecheckerboard="0"
     inkscape:deskcolor="#d1d1d1"
     inkscape:zoom="8.3306018"
     inkscape:cx="26.588715"
     inkscape:cy="33.250899"
     inkscape:window-width="1920"
     inkscape:window-height="994"
     inkscape:window-x="0"
     inkscape:window-y="0"
     inkscape:window-maximized="1"
     inkscape:current-layer="svg7" />
  <path
     d="M 7,9 C 7,5.686 9.686,3 13,3 h 34 c 4.42,0 8,3.582 8,8 v 42 c 0,3.314 -2.69,6 -6,6 H 13 C 9.686,59 7,56.314 7,53 Z"
     id="path526"
     style="fill:url(#linearGradient7)" />
  <path
     d="m 41,3 h 8 c 3.31,0 6,2.686 6,6 v 8 h -6 c -4.418,0 -8,-3.582 -8,-8 z"
     id="path531"
     style="fill:url(#paint544_linear_890_11)" />
  <path
     d="M 41,11 V 3 l 14,14 h -8 c -3.314,0 -6,-2.686 -6,-6 z"
     id="path532"
     style="fill:url(#linearGradient12)" />
  <g
     transform="matrix(3.2481416,0,0,3.2481416,2.5772696,-10.025019)"
     fill="#ffffff"
     aria-label="T"
     id="g14"
     style="fill:url(#linearGradient6);fill-opacity:0.665699" />
  <path
     d="m 48.5,30.496873 v -9.545787 c 0,-0.879188 -0.713019,-1.590968 -1.592207,-1.590968 h -9.544548 c -0.879188,0 -1.590968,0.713019 -1.590968,1.590968 v 3.976793 c -7.771303,0 -14.301333,5.342068 -16.157667,12.541716 l -1.654204,-0.291404 c -0.297605,-0.05084 -0.597699,0.06816 -0.777497,0.310008 -0.178572,0.241802 -0.20709,0.565452 -0.07067,0.833299 l 1.723641,3.40266 C 15.815148,42.216452 13.5,44.837888 13.5,47.997497 c 0,3.508058 2.854563,6.362621 6.36386,6.362621 3.238973,0 5.91373,-2.435428 6.308059,-5.567761 h 5.623565 v 1.590968 c 0,0.301326 0.169882,0.575375 0.43897,0.711777 0.270327,0.133924 0.592739,0.10538 0.834546,-0.07691 l 2.780158,-2.085742 c 0.455093,3.065374 3.096373,5.426398 6.285741,5.426398 3.509299,0.0013 6.365101,-2.853293 6.365101,-6.361351 0,-3.240212 -2.435428,-5.914969 -5.570241,-6.309298 v -5.623565 h 1.592206 c 0.300094,0 0.576617,-0.169882 0.710539,-0.43897 0.135163,-0.269088 0.107889,-0.591498 -0.07441,-0.833307 l -2.028698,-2.704516 h 3.775913 c 0.881662,0 1.594681,-0.713019 1.594683,-1.590968 z m -9.461474,5.12755 c 0.135164,0.270329 0.410453,0.440211 0.710545,0.440211 h 1.592208 v 5.622324 c -2.826045,0.35589 -5.074227,2.566873 -5.490882,5.373074 l -2.782636,-2.086981 c -0.240568,-0.181045 -0.56298,-0.208323 -0.832066,-0.07567 -0.269087,0.136403 -0.440211,0.410451 -0.440211,0.711778 v 1.590967 H 26.17316 c -0.360851,-2.87564 -2.646234,-5.158549 -5.524354,-5.514439 0.0026,-0.01739 0.01074,-0.03345 0.01074,-0.0533 v -0.0072 l 2.406909,-2.254383 c 0.219485,-0.205843 0.303808,-0.518337 0.219485,-0.807264 -0.08682,-0.290167 -0.327366,-0.504693 -0.624976,-0.556771 l -1.476756,-0.260484 c 1.72241,-6.453143 7.600173,-11.22728 14.589016,-11.22728 v 3.978031 c 0,0.877949 0.711785,1.589728 1.590967,1.589728 h 3.77715 l -2.028701,2.70452 c -0.181047,0.241803 -0.209565,0.564216 -0.07441,0.833301 z"
     fill-opacity="0.75"
     fill-rule="nonzero"
     id="path7"
     style="stroke-width:1.24002;fill:#ffffff;fill-opacity:0.75" />
</svg>
