<?xml version="1.0" encoding="UTF-8" standalone="no"?>
<svg
   width="62"
   height="62"
   version="1.1"
   id="svg3"
   sodipodi:docname="cantata.svg"
   inkscape:version="1.4 (e7c3feb100, 2024-10-09)"
   xmlns:inkscape="http://www.inkscape.org/namespaces/inkscape"
   xmlns:sodipodi="http://sodipodi.sourceforge.net/DTD/sodipodi-0.dtd"
   xmlns="http://www.w3.org/2000/svg"
   xmlns:svg="http://www.w3.org/2000/svg">
  <defs
     id="defs3" />
  <sodipodi:namedview
     id="namedview3"
     pagecolor="#ffffff"
     bordercolor="#000000"
     borderopacity="0.25"
     inkscape:showpageshadow="2"
     inkscape:pageopacity="0.0"
     inkscape:pagecheckerboard="0"
     inkscape:deskcolor="#d1d1d1"
     inkscape:zoom="11.78125"
     inkscape:cx="31.95756"
     inkscape:cy="32"
     inkscape:window-width="1920"
     inkscape:window-height="994"
     inkscape:window-x="0"
     inkscape:window-y="0"
     inkscape:window-maximized="1"
     inkscape:current-layer="svg3" />
  <g
     id="g4"
     transform="translate(-1.4999998,-1.307532)">
    <g
       transform="matrix(1.375,0,0,1.3649923,-0.50000025,-22.29216)"
       stroke-linejoin="round"
       stroke-width="1.4815"
       id="g2">
      <circle
         transform="translate(0,16)"
         cx="24"
         cy="24"
         r="20"
         stroke-linecap="round"
         id="circle1"
         fill="#b3b3b3" />
      <path
         d="M 24,20 A 20,20 0 0 0 4,40 20,20 0 0 0 24,60 20,20 0 0 0 38.13281,54.13281 L 24,40 38.13,25.867 A 20,20 0 0 0 24,20"
         fill="#39c458"
         id="path1" />
      <circle
         cx="24"
         cy="40"
         r="16"
         fill="#fcfcfc"
         stroke-linecap="round"
         id="circle2" />
    </g>
    <g
       transform="matrix(1.0185188,0,0,1.0111055,-0.09259282,16.129845)"
       fill-rule="evenodd"
       id="g3">
      <path
         d="m 32,-11.692 4.1539,1.3846 c 0,0 1.7197,5.2921 3.1044,6.6767 2.1891,2.1891 10.742,7.1697 10.742,18.247 0,8.3078 -5.5386,13.846 -12.462,18 6.9232,-6.9232 9.6925,-9.6925 9.6925,-18 0,-11.077 -11.077,-12.462 -11.077,-12.462 v 30.151 c 0,3.0808 -2.9036,8.1943 -7.6418,10.162 -6.0066,2.4882 -12.3,1.0676 -14.054,-3.1722 -1.7543,-4.2384 1.6893,-9.6911 7.6945,-12.178 3.5876,-1.4871 6.9509,-1.8277 9.849,-0.5774 z"
         fill="#4d4d4d"
         id="path2"
         style="fill:#33414c;fill-opacity:1" />
    </g>
  </g>
</svg>
