<?xml version="1.0" encoding="UTF-8" standalone="no"?>
<svg
   width="62"
   height="62"
   version="1"
   id="svg5"
   sodipodi:docname="standard-notes.svg"
   inkscape:version="1.4 (e7c3feb100, 2024-10-09)"
   xmlns:inkscape="http://www.inkscape.org/namespaces/inkscape"
   xmlns:sodipodi="http://sodipodi.sourceforge.net/DTD/sodipodi-0.dtd"
   xmlns:xlink="http://www.w3.org/1999/xlink"
   xmlns="http://www.w3.org/2000/svg"
   xmlns:svg="http://www.w3.org/2000/svg">
  <defs
     id="defs5">
    <linearGradient
       id="linearGradient7"
       inkscape:collect="always">
      <stop
         style="stop-color:#27313a;stop-opacity:1;"
         offset="0"
         id="stop7" />
      <stop
         style="stop-color:#566c80;stop-opacity:1;"
         offset="1"
         id="stop8" />
    </linearGradient>
    <linearGradient
       id="linearGradient5"
       inkscape:collect="always">
      <stop
         style="stop-color:#b7c6cd;stop-opacity:1;"
         offset="0"
         id="stop5" />
      <stop
         style="stop-color:#eff2f6;stop-opacity:1;"
         offset="1"
         id="stop6" />
    </linearGradient>
    <linearGradient
       inkscape:collect="always"
       xlink:href="#linearGradient5"
       id="linearGradient6"
       x1="-59.229946"
       y1="-31.828876"
       x2="-4.2299461"
       y2="-31.828876"
       gradientUnits="userSpaceOnUse" />
    <linearGradient
       inkscape:collect="always"
       xlink:href="#linearGradient7"
       id="linearGradient8"
       x1="50.379681"
       y1="54.807487"
       x2="50.379681"
       y2="23.807487"
       gradientUnits="userSpaceOnUse" />
  </defs>
  <sodipodi:namedview
     id="namedview5"
     pagecolor="#ffffff"
     bordercolor="#000000"
     borderopacity="0.25"
     inkscape:showpageshadow="2"
     inkscape:pageopacity="0.0"
     inkscape:pagecheckerboard="0"
     inkscape:deskcolor="#d1d1d1"
     inkscape:zoom="11.6875"
     inkscape:cx="31.957219"
     inkscape:cy="45.68984"
     inkscape:window-width="1920"
     inkscape:window-height="994"
     inkscape:window-x="0"
     inkscape:window-y="0"
     inkscape:window-maximized="1"
     inkscape:current-layer="svg5" />
  <g
     id="g5"
     transform="translate(-0.82887675,-0.72994656)">
    <rect
       style="opacity:0.2"
       width="56"
       height="56"
       x="3.828877"
       y="4.2299466"
       rx="2.8"
       ry="2.8"
       id="rect1" />
    <rect
       style="fill:url(#linearGradient6)"
       width="55"
       height="56"
       x="-59.229946"
       y="-59.828876"
       rx="2.8"
       ry="2.8"
       transform="matrix(0,-1,-1,0,0,0)"
       id="rect2" />
    <path
       style="opacity:0.2"
       d="m 3.828877,17.229947 v 1 h 56 v -1 z"
       id="path2" />
    <path
       style="fill:#3771c8"
       d="m 6.629677,3.2299465 c -1.5512,0 -2.8008,1.25 -2.8008,2.8 V 17.229947 h 56 V 6.0299465 c 0,-1.55 -1.25,-2.8 -2.8,-2.8 z"
       id="path3" />
    <path
       style="opacity:0.2;fill:#ffffff"
       d="m 6.629677,3.2299465 c -1.5512,0 -2.8008,1.2508 -2.8008,2.8008 v 1 c 0,-1.55 1.2496,-2.8008 2.8008,-2.8008 h 50.3982 c 1.55,0 2.801,1.2508 2.801,2.8008 v -1 c 0,-1.55 -1.251,-2.8008 -2.801,-2.8008 z"
       id="path5" />
  </g>
  <path
     id="rect943-3"
     d="m 12.073037,23.807487 c -0.937932,0 -1.693358,0.667275 -1.693358,1.495474 0,0.82825 0.755292,1.493577 1.693358,1.493577 h 20.678397 c 0.937848,0 1.691256,-0.665579 1.691256,-1.493577 0,-0.828266 -0.753847,-1.495474 -1.691256,-1.495474 z m 0,7.002304 c -0.937932,0 -1.693358,0.667269 -1.693358,1.495428 0,0.828258 0.755292,1.495508 1.693358,1.495508 h 14.193286 c 0.937897,0 1.693378,-0.667272 1.693378,-1.495508 0,-0.828272 -0.755209,-1.495428 -1.693378,-1.495428 z m 21.323344,0 c -0.937964,0 -1.69336,0.667269 -1.69336,1.495428 0,0.828258 0.75521,1.495508 1.69336,1.495508 h 9.721146 c 0.937932,0 1.691318,-0.667272 1.691318,-1.495508 0,-0.828272 -0.753755,-1.495428 -1.691318,-1.495428 z m -21.323344,7.002246 c -0.937932,0 -1.693358,0.667271 -1.693358,1.495431 0,0.828275 0.755292,1.495432 1.693358,1.495432 h 18.21181 c 0.93804,0 1.691351,-0.667267 1.691351,-1.495432 0,-0.828265 -0.753828,-1.495431 -1.691351,-1.495431 z m 0,7.002258 c -0.937932,0 -1.693358,0.667259 -1.693358,1.495434 0,0.828304 0.755292,1.495507 1.693358,1.495507 h 25.366105 c 0.937991,0 1.693369,-0.66724 1.693369,-1.495507 0,-0.82826 -0.755229,-1.495434 -1.693369,-1.495434 z m 31.903218,0 c -0.937956,0 -1.691301,0.667259 -1.691301,1.495434 0,0.828304 0.753826,1.495507 1.691301,1.495507 h 4.5762 c 0.937953,0 1.693382,-0.66724 1.693382,-1.495507 0,-0.82826 -0.755261,-1.495434 -1.693382,-1.495434 z m -31.903218,7.002273 c -0.937932,0 -1.693358,0.667279 -1.693358,1.495474 0,0.828285 0.755292,1.495445 1.693358,1.495445 h 18.21181 c 0.93804,0 1.691351,-0.667272 1.691351,-1.495445 0,-0.82829 -0.753828,-1.495474 -1.691351,-1.495474 z m 23.93112,0 c -0.937912,0 -1.69335,0.667279 -1.69335,1.495474 8e-6,0.828285 0.755261,1.495445 1.69335,1.495445 h 12.682152 c 0.937866,0 1.69337,-0.667272 1.69337,-1.495445 0,-0.82829 -0.755212,-1.495474 -1.69337,-1.495474 z"
     style="fill:url(#linearGradient8)" />
</svg>
