<?xml version="1.0" encoding="UTF-8" standalone="no"?>
<svg
   width="62"
   height="62"
   version="1.1"
   id="svg11"
   sodipodi:docname="celestia.svg"
   inkscape:version="1.4 (e7c3feb100, 2024-10-09)"
   xmlns:inkscape="http://www.inkscape.org/namespaces/inkscape"
   xmlns:sodipodi="http://sodipodi.sourceforge.net/DTD/sodipodi-0.dtd"
   xmlns="http://www.w3.org/2000/svg"
   xmlns:svg="http://www.w3.org/2000/svg">
  <defs
     id="defs11" />
  <sodipodi:namedview
     id="namedview11"
     pagecolor="#ffffff"
     bordercolor="#000000"
     borderopacity="0.25"
     inkscape:showpageshadow="2"
     inkscape:pageopacity="0.0"
     inkscape:pagecheckerboard="0"
     inkscape:deskcolor="#d1d1d1"
     inkscape:zoom="8.3085047"
     inkscape:cx="47.902723"
     inkscape:cy="35.866863"
     inkscape:window-width="1920"
     inkscape:window-height="998"
     inkscape:window-x="0"
     inkscape:window-y="0"
     inkscape:window-maximized="1"
     inkscape:current-layer="svg11" />
  <g
     id="g11"
     transform="matrix(0.96666667,0,0,0.96721667,-1.8666668,1.4998916)">
    <circle
       style="opacity:0.2"
       cx="32"
       cy="33"
       r="28"
       id="circle1" />
    <circle
       style="fill:#2c3d53;fill-opacity:1"
       cx="32"
       cy="32"
       r="28"
       id="circle2" />
    <path
       style="opacity:0.1;fill:#ffffff"
       d="M 32,4 A 27.999998,27.999998 0 0 0 4,32 27.999998,27.999998 0 0 0 4.0175781,32.492188 27.999998,27.999998 0 0 1 32,5 27.999998,27.999998 0 0 1 59.974609,32.492188 27.999998,27.999998 0 0 0 60,32 27.999998,27.999998 0 0 0 32,4 Z"
       id="path2" />
    <circle
       style="opacity:0.2"
       cx="49"
       cy="16"
       r="15"
       id="circle3" />
    <circle
       style="opacity:0.2"
       cx="55"
       cy="48"
       r="7"
       id="circle4" />
    <circle
       style="fill:#425c7d;fill-opacity:1"
       cx="55"
       cy="47"
       r="7"
       id="circle5" />
    <circle
       style="fill:#d6a206"
       cx="49"
       cy="15"
       r="15"
       id="circle6" />
    <circle
       style="opacity:0.2"
       cx="49"
       cy="16"
       r="10"
       id="circle7" />
    <circle
       style="fill:#ffdf7e"
       cx="49"
       cy="15"
       r="10"
       id="circle8" />
    <circle
       style="opacity:0.2"
       cx="49"
       cy="16"
       r="4"
       id="circle9" />
    <circle
       style="fill:#ffffff"
       cx="49"
       cy="15"
       r="4"
       id="circle10" />
    <path
       style="opacity:0.1;fill:#ffffff"
       d="m 55,40 a 6.9999996,6.9999996 0 0 0 -7,7 6.9999996,6.9999996 0 0 0 0.02539,0.445312 A 6.9999996,6.9999996 0 0 1 55,41 6.9999996,6.9999996 0 0 1 61.974609,47.476562 6.9999996,6.9999996 0 0 0 62,47 6.9999996,6.9999996 0 0 0 55,40 Z"
       id="path10" />
    <path
       style="opacity:0.2;fill:#ffffff"
       d="M 49,0 A 15,15 0 0 0 34,15 15,15 0 0 0 34.017578,15.474609 15,15 0 0 1 49,1 15,15 0 0 1 63.976562,15.507812 15,15 0 0 0 64,15 15,15 0 0 0 49,0 Z"
       id="path11" />
  </g>
</svg>
