<?xml version="1.0" encoding="UTF-8" standalone="no"?>
<svg
   width="62"
   height="62"
   version="1.1"
   id="svg4"
   sodipodi:docname="cemu.svg"
   inkscape:version="1.4 (e7c3feb100, 2024-10-09)"
   xmlns:inkscape="http://www.inkscape.org/namespaces/inkscape"
   xmlns:sodipodi="http://sodipodi.sourceforge.net/DTD/sodipodi-0.dtd"
   xmlns:xlink="http://www.w3.org/1999/xlink"
   xmlns="http://www.w3.org/2000/svg"
   xmlns:svg="http://www.w3.org/2000/svg">
  <defs
     id="defs4">
    <linearGradient
       id="linearGradient4"
       inkscape:collect="always">
      <stop
         style="stop-color:#2097d4;stop-opacity:1;"
         offset="0"
         id="stop4" />
      <stop
         style="stop-color:#9d7ed5;stop-opacity:1"
         offset="1"
         id="stop5" />
    </linearGradient>
    <linearGradient
       inkscape:collect="always"
       xlink:href="#linearGradient4"
       id="linearGradient5"
       x1="30.212767"
       y1="59.017544"
       x2="31.5"
       y2="4.9824572"
       gradientUnits="userSpaceOnUse"
       gradientTransform="translate(-0.5,-1.0000005)" />
  </defs>
  <sodipodi:namedview
     id="namedview4"
     pagecolor="#ffffff"
     bordercolor="#000000"
     borderopacity="0.25"
     inkscape:showpageshadow="2"
     inkscape:pageopacity="0.0"
     inkscape:pagecheckerboard="0"
     inkscape:deskcolor="#d1d1d1"
     inkscape:zoom="11.75"
     inkscape:cx="32"
     inkscape:cy="32.085106"
     inkscape:window-width="1920"
     inkscape:window-height="998"
     inkscape:window-x="0"
     inkscape:window-y="0"
     inkscape:window-maximized="1"
     inkscape:current-layer="svg4" />
  <rect
     x="3.5"
     y="3.9824567"
     width="55"
     height="55.017544"
     ry="14.736842"
     style="opacity:0.2;stroke-width:0.982303"
     id="rect1" />
  <rect
     x="3.5"
     y="2.9999995"
     width="55"
     height="55.017544"
     ry="14.736842"
     style="fill:url(#linearGradient5);stroke-width:0.982303"
     id="rect2" />
  <path
     d="M 18.232143,2.9999995 C 10.070534,2.9999995 3.5,9.5726295 3.5,17.736843 v 0.982455 C 3.5,10.555089 10.070534,3.9824555 18.232143,3.9824555 H 43.767858 C 51.929464,3.9824555 58.5,10.555089 58.5,18.719298 V 17.736843 C 58.5,9.5726295 51.929464,2.9999995 43.767858,2.9999995 Z"
     style="opacity:0.2;fill:#ffffff;stroke-width:0.982303"
     id="path4" />
  <g
     id="g1"
     transform="translate(-0.84042605,-2.7108996)">
    <path
       style="opacity:0.2"
       d="m 22.340426,34.52777 c 0.07224,4.392472 0.427732,9.725154 3.551676,13.323264 2.551666,2.843664 6.756048,3.63594 10.45045,2.31419 3.49612,-1.345946 5.5933,-4.982832 6.901272,-8.045848 l 5.096602,1.869144 c -1.837374,4.238418 -5.11374,8.309514 -10.056098,9.888498 -3.980882,1.237296 -8.479866,1.036806 -12.402804,-0.292056 -4.7685,-1.700376 -7.994674,-5.772592 -9.291117,-10.11801 -1.561165,-5.2695 -1.578454,-10.869604 -0.503413,-16.216548 0.917479,-4.493758 3.570858,-9.055857 8.389534,-11.046208 4.05085,-1.696787 8.824952,-1.909363 13.113254,-0.872905 4.410848,1.110403 7.720672,4.375742 9.456458,8.078659 0.998458,1.008074 -0.234564,1.174516 -1.09713,1.467788 l -3.859232,1.339526 c -1.206436,-3.593232 -4.65558,-7.248498 -9.045266,-7.349528 -3.302578,-0.210988 -6.268492,1.025291 -7.995058,3.660784 -2.387856,3.447312 -2.64698,8.046796 -2.709128,11.99925 z"
       id="path2-7" />
    <path
       style="fill:#ffffff"
       d="m 22.340426,33.52777 c 0.07224,4.392472 0.427732,9.725152 3.551676,13.323262 2.551666,2.843666 6.756048,3.63594 10.45045,2.314192 3.49612,-1.345948 5.5933,-4.982834 6.901272,-8.045848 l 5.096602,1.869144 c -1.837374,4.238418 -5.11374,8.309514 -10.056098,9.888498 -3.980882,1.237296 -8.479866,1.036806 -12.402804,-0.292056 -4.7685,-1.700376 -7.994674,-5.772592 -9.291117,-10.11801 -1.561165,-5.2695 -1.578454,-10.869604 -0.503413,-16.216548 0.917479,-4.49376 3.570858,-9.055857 8.389534,-11.046209 4.05085,-1.696787 8.824952,-1.909363 13.113254,-0.872905 4.410848,1.110404 7.720672,4.375742 9.456458,8.07866 0.998458,1.008074 -0.234564,1.174514 -1.09713,1.467786 l -3.859232,1.339526 c -1.206436,-3.593231 -4.65558,-7.248497 -9.045266,-7.349526 -3.302578,-0.210988 -6.268492,1.02529 -7.995058,3.660784 -2.387856,3.447312 -2.64698,8.046796 -2.709128,11.99925 z"
       id="path3-0" />
  </g>
</svg>
