<?xml version="1.0" encoding="UTF-8" standalone="no"?>
<svg
   width="62"
   height="62"
   version="1.1"
   id="svg2"
   sodipodi:docname="knights.svg"
   inkscape:version="1.4 (e7c3feb100, 2024-10-09)"
   xmlns:inkscape="http://www.inkscape.org/namespaces/inkscape"
   xmlns:sodipodi="http://sodipodi.sourceforge.net/DTD/sodipodi-0.dtd"
   xmlns:xlink="http://www.w3.org/1999/xlink"
   xmlns="http://www.w3.org/2000/svg"
   xmlns:svg="http://www.w3.org/2000/svg">
  <defs
     id="defs2">
    <linearGradient
       id="linearGradient2"
       inkscape:collect="always">
      <stop
         style="stop-color:#c87137;stop-opacity:1;"
         offset="0"
         id="stop2" />
      <stop
         style="stop-color:#cd87de;stop-opacity:1"
         offset="1"
         id="stop3" />
    </linearGradient>
    <linearGradient
       inkscape:collect="always"
       xlink:href="#linearGradient2"
       id="linearGradient3"
       x1="-410.10294"
       y1="543.81165"
       x2="-410.07455"
       y2="503.88"
       gradientUnits="userSpaceOnUse" />
  </defs>
  <sodipodi:namedview
     id="namedview2"
     pagecolor="#ffffff"
     bordercolor="#000000"
     borderopacity="0.25"
     inkscape:showpageshadow="2"
     inkscape:pageopacity="0.0"
     inkscape:pagecheckerboard="0"
     inkscape:deskcolor="#d1d1d1"
     inkscape:zoom="11.78125"
     inkscape:cx="31.95756"
     inkscape:cy="32"
     inkscape:window-width="1920"
     inkscape:window-height="994"
     inkscape:window-x="0"
     inkscape:window-y="0"
     inkscape:window-maximized="1"
     inkscape:current-layer="svg2" />
  <g
     transform="matrix(1.4,0,0,1.4,-540.80199,-702.43201)"
     id="g2">
    <rect
       transform="scale(-1,1)"
       x="-428.42999"
       y="503.88"
       width="40"
       height="40"
       rx="20"
       id="rect1"
       style="fill:url(#linearGradient3);fill-opacity:1" />
    <path
       d="m 405.18,508.8 c 0,0 3.197,2.193 3.416,3.438 0,0 6.764,-2.139 12.707,3.562 h -3 c 0,0 7.863,4.914 8,8 -0.137,-0.086 -1.445,-0.768 -2,-1 0,0 1.91,4.4 0.457,8.691 -2.714,5.14 -7.778,9.632 -15.189,10.306 -1.992,0.182 0,0.003 -2,0.003 v -6 h 2 v -3 c 3.205,-0.155 3.983,-7.806 -0.268,-10 0,0 -2.687,3.771 -5.842,4.137 0,0 -0.368,3.232 -4.181,1.18 -1.018,-0.546 -1.397,-2.35 -0.37,-3.815 l 0.809,-1.17 c 0,0 2.677,-6.43 4.584,-8.332 0,0 1,-3 0,-5 0,0 1.133,0.842 1.5,1.5 0,0 -0.255,-2.136 -0.623,-2.5 z"
       fill="#ffffff"
       id="path1" />
    <path
       d="m 421.73,535.8 c -4.715,0.005 -9.447,0 -14.162,0 l -0.013,1.003 13.189,0.005 c 0.805,-0.801 0.452,-0.44 0.986,-1.008 z m 2.29,-3.01 c -4.715,0.005 -9.732,0.004 -14.447,0.004 v 1 l 13.77,0.004 c 0.606,-0.91 0.335,-0.483 0.678,-1.008 z"
       fill-rule="evenodd"
       id="path2"
       style="fill:#7f7f7f;fill-opacity:1" />
  </g>
</svg>
