<?xml version="1.0" encoding="UTF-8" standalone="no"?>
<svg
   width="62"
   height="62"
   version="1.1"
   id="svg8115"
   sodipodi:docname="choqok.svg"
   inkscape:version="1.4 (e7c3feb100, 2024-10-09)"
   xmlns:inkscape="http://www.inkscape.org/namespaces/inkscape"
   xmlns:sodipodi="http://sodipodi.sourceforge.net/DTD/sodipodi-0.dtd"
   xmlns:xlink="http://www.w3.org/1999/xlink"
   xmlns="http://www.w3.org/2000/svg"
   xmlns:svg="http://www.w3.org/2000/svg">
  <sodipodi:namedview
     id="namedview8117"
     pagecolor="#ffffff"
     bordercolor="#666666"
     borderopacity="1.0"
     inkscape:showpageshadow="2"
     inkscape:pageopacity="0.0"
     inkscape:pagecheckerboard="0"
     inkscape:deskcolor="#d1d1d1"
     showgrid="false"
     inkscape:zoom="9.8333334"
     inkscape:cx="16.932203"
     inkscape:cy="29.59322"
     inkscape:window-width="1920"
     inkscape:window-height="994"
     inkscape:window-x="0"
     inkscape:window-y="0"
     inkscape:window-maximized="1"
     inkscape:current-layer="svg8115" />
  <defs
     id="defs8061">
    <linearGradient
       id="a"
       y1="44"
       y2="8.0699997"
       x2="0"
       gradientUnits="userSpaceOnUse">
      <stop
         stop-color="#42a603"
         id="stop8032" />
      <stop
         offset="1"
         stop-color="#78da06"
         id="stop8034" />
    </linearGradient>
    <linearGradient
       id="b"
       y1="519.46002"
       x1="406.13"
       y2="525.15002"
       x2="416.44"
       gradientUnits="userSpaceOnUse"
       gradientTransform="matrix(1.27402,-0.19577,0.10158,1,-166.77,85.12)">
      <stop
         stop-color="#ffc35a"
         id="stop8037" />
      <stop
         offset="1"
         stop-color="#faae2a"
         id="stop8039" />
    </linearGradient>
    <linearGradient
       id="c"
       y1="529.47998"
       x1="410.03"
       y2="538.66998"
       x2="417.07999"
       gradientUnits="userSpaceOnUse">
      <stop
         id="stop8042" />
      <stop
         offset="1"
         stop-opacity="0"
         id="stop8044" />
    </linearGradient>
    <linearGradient
       id="d"
       y1="511.79999"
       x1="388.57001"
       y2="527.59003"
       x2="400.57001"
       gradientUnits="userSpaceOnUse">
      <stop
         stop-color="#ffffff"
         id="stop8047" />
      <stop
         offset="1"
         stop-color="#d9fafd"
         id="stop8049" />
    </linearGradient>
    <linearGradient
       xlink:href="#d"
       id="e"
       y1="507.79999"
       x1="418.57001"
       y2="523.31"
       x2="430.07001"
       gradientUnits="userSpaceOnUse" />
    <linearGradient
       id="f"
       y1="529.39001"
       x1="417.19"
       y2="532.27002"
       x2="420.64001"
       gradientUnits="userSpaceOnUse">
      <stop
         stop-color="#f39c12"
         id="stop8053" />
      <stop
         offset="1"
         stop-color="#f5ab35"
         id="stop8055" />
    </linearGradient>
    <linearGradient
       xlink:href="#c"
       id="g"
       y1="518.98999"
       x1="393.76001"
       y2="525.90997"
       x2="400.69"
       gradientUnits="userSpaceOnUse" />
    <linearGradient
       xlink:href="#c"
       id="h"
       y1="518.79999"
       x1="418.57001"
       y2="525.79999"
       x2="425.57001"
       gradientUnits="userSpaceOnUse" />
    <linearGradient
       xlink:href="#a"
       id="i"
       y1="508.04999"
       x1="419.63"
       y2="504.42001"
       x2="422.26001"
       gradientUnits="userSpaceOnUse" />
    <linearGradient
       xlink:href="#c-6"
       id="d-0"
       gradientUnits="userSpaceOnUse"
       y1="44"
       x2="0"
       y2="8.0699997"
       gradientTransform="matrix(0.8325,0,0,0.8325,-93.329223,-17.812496)" />
    <linearGradient
       id="c-6"
       y1="44"
       y2="8.0699997"
       x2="0"
       gradientUnits="userSpaceOnUse">
      <stop
         stop-color="#42a603"
         id="stop2" />
      <stop
         offset="1"
         stop-color="#78da06"
         id="stop4" />
    </linearGradient>
    <linearGradient
       xlink:href="#c"
       id="e-2"
       y1="518.79999"
       x1="418.57001"
       y2="525.79999"
       x2="425.57001"
       gradientUnits="userSpaceOnUse"
       gradientTransform="matrix(0.8325,0,0,0.8325,-413.48374,-433.896)" />
    <linearGradient
       xlink:href="#c"
       id="f-1"
       y1="518.98999"
       x1="393.76001"
       y2="525.90997"
       x2="400.69"
       gradientUnits="userSpaceOnUse"
       gradientTransform="matrix(0.8325,0,0,0.8325,-413.48374,-433.896)" />
    <linearGradient
       id="g-8"
       y1="529.39001"
       x1="417.19"
       y2="532.27002"
       x2="420.64001"
       gradientUnits="userSpaceOnUse"
       gradientTransform="matrix(0.8325,0,0,0.8325,-413.48374,-433.896)">
      <stop
         stop-color="#f39c12"
         id="stop23" />
      <stop
         offset="1"
         stop-color="#f5ab35"
         id="stop25" />
    </linearGradient>
    <linearGradient
       xlink:href="#d"
       id="h-7"
       gradientUnits="userSpaceOnUse"
       x1="388.57001"
       y1="511.79999"
       x2="400.57001"
       y2="527.59003"
       gradientTransform="matrix(0.8325,0,0,0.8325,-413.48374,-433.896)" />
    <linearGradient
       xlink:href="#d"
       id="i-2"
       y1="507.79999"
       x1="418.57001"
       y2="523.31"
       x2="430.07001"
       gradientUnits="userSpaceOnUse"
       gradientTransform="matrix(0.8325,0,0,0.8325,-413.48374,-433.896)" />
    <linearGradient
       xlink:href="#c"
       id="j"
       gradientUnits="userSpaceOnUse"
       x1="410.03"
       y1="529.47998"
       x2="417.07999"
       y2="538.66998"
       gradientTransform="matrix(0.8325,0,0,0.8325,-413.48374,-433.896)" />
    <linearGradient
       id="k"
       y1="519.46002"
       x1="406.13"
       y2="525.15002"
       x2="416.44"
       gradientUnits="userSpaceOnUse"
       gradientTransform="matrix(1.0606217,-0.16297853,0.08456535,0.8325,-552.31977,-363.0336)">
      <stop
         stop-color="#ffc35a"
         id="stop7" />
      <stop
         offset="1"
         stop-color="#faae2a"
         id="stop9" />
    </linearGradient>
    <linearGradient
       xlink:href="#c-6"
       id="l"
       y1="508.04999"
       x1="419.63"
       y2="504.42001"
       x2="422.26001"
       gradientUnits="userSpaceOnUse"
       gradientTransform="matrix(0.8325,0,0,0.8325,-413.48374,-433.896)" />
    <linearGradient
       id="linearGradient8449"
       y1="44"
       y2="8.0699997"
       x2="0"
       gradientUnits="userSpaceOnUse">
      <stop
         stop-color="#42a603"
         id="stop8445" />
      <stop
         offset="1"
         stop-color="#78da06"
         id="stop8447" />
    </linearGradient>
    <linearGradient
       xlink:href="#linearGradient4167"
       id="linearGradient4161"
       x1="-44"
       y1="-24"
       x2="-4"
       y2="-24"
       gradientUnits="userSpaceOnUse"
       gradientTransform="matrix(1.0499999,0,0,1.0499999,25.200004,73.200009)" />
    <linearGradient
       id="linearGradient4167">
      <stop
         style="stop-color:#53ffcb;stop-opacity:1;"
         offset="0"
         id="stop2-0" />
      <stop
         style="stop-color:#87d770;stop-opacity:1"
         offset="1"
         id="stop4-2" />
    </linearGradient>
    <linearGradient
       xlink:href="#c-6-7"
       id="d-0-3"
       gradientUnits="userSpaceOnUse"
       y1="44"
       x2="0"
       y2="8.0699997"
       gradientTransform="matrix(0.8325,0,0,0.8325,-68.259793,-19.115998)" />
    <linearGradient
       id="c-6-7"
       y1="44"
       y2="8.0699997"
       x2="0"
       gradientUnits="userSpaceOnUse">
      <stop
         stop-color="#42a603"
         id="stop2-5" />
      <stop
         offset="1"
         stop-color="#78da06"
         id="stop4-9" />
    </linearGradient>
    <linearGradient
       id="linearGradient9661"
       y1="44"
       y2="8.0699997"
       x2="0"
       gradientUnits="userSpaceOnUse">
      <stop
         stop-color="#42a603"
         id="stop9657" />
      <stop
         offset="1"
         stop-color="#78da06"
         id="stop9659" />
    </linearGradient>
    <linearGradient
       id="linearGradient4141">
      <stop
         style="stop-color:#55ff99;stop-opacity:1"
         offset="0"
         id="stop7-3" />
      <stop
         style="stop-color:#b7c8be;stop-opacity:1"
         offset="1"
         id="stop9-6" />
    </linearGradient>
    <linearGradient
       xlink:href="#d-5"
       id="g-7"
       y1="4.7160001"
       x1="17.483"
       y2="39.833"
       x2="37.757999"
       gradientUnits="userSpaceOnUse"
       gradientTransform="matrix(0.99376,0.0067,-0.00423,-1.56572,0.177,35.628)" />
    <linearGradient
       id="d-5"
       y1="4.7160001"
       x1="17.483"
       y2="39.833"
       x2="37.757999"
       gradientUnits="userSpaceOnUse"
       gradientTransform="matrix(-0.99376,-0.0067,0.00423,1.56572,47.823,12.372)">
      <stop
         stop-color="#148e76"
         id="stop7680" />
      <stop
         offset="1"
         stop-color="#218059"
         id="stop7682" />
    </linearGradient>
    <linearGradient
       id="a-3"
       y1="4.7160001"
       x1="17.483"
       y2="39.833"
       x2="37.757999"
       gradientUnits="userSpaceOnUse"
       gradientTransform="matrix(-0.99376,-0.00423,0.00423,0.98887,47.823,2.34)">
      <stop
         stop-color="#3fc380"
         id="stop7673" />
      <stop
         offset="1"
         stop-color="#3f8ed3"
         id="stop7675" />
    </linearGradient>
    <linearGradient
       xlink:href="#a-3"
       id="b-5"
       y1="4.7160001"
       x1="17.483"
       y2="39.833"
       x2="37.757999"
       gradientUnits="userSpaceOnUse"
       gradientTransform="matrix(-0.99376,-0.00423,0.00423,0.98887,47.823,31.34)" />
    <linearGradient
       xlink:href="#a-3"
       id="c-62"
       y1="4.7160001"
       x1="17.483"
       y2="39.833"
       x2="37.757999"
       gradientUnits="userSpaceOnUse"
       gradientTransform="matrix(-0.99376,-0.00423,0.00423,0.98887,47.823,16.34)" />
    <linearGradient
       id="e-9"
       y1="18"
       x1="4"
       y2="31"
       x2="43"
       gradientUnits="userSpaceOnUse"
       gradientTransform="translate(0,-2)">
      <stop
         stop-color="#292c2f"
         id="stop7685" />
      <stop
         offset="1"
         stop-opacity="0"
         id="stop7687" />
    </linearGradient>
    <linearGradient
       xlink:href="#e-9"
       id="f-12"
       y1="18"
       x1="4"
       y2="31"
       x2="43"
       gradientUnits="userSpaceOnUse"
       gradientTransform="translate(0,14)" />
    <linearGradient
       xlink:href="#c-6-7-3"
       id="d-0-3-9"
       gradientUnits="userSpaceOnUse"
       y1="44"
       x2="0"
       y2="8.0699997"
       gradientTransform="matrix(0.8325,0,0,0.8325,-64.25979,-15.8175)" />
    <linearGradient
       id="c-6-7-3"
       y1="44"
       y2="8.0699997"
       x2="0"
       gradientUnits="userSpaceOnUse">
      <stop
         stop-color="#42a603"
         id="stop2-5-6" />
      <stop
         offset="1"
         stop-color="#78da06"
         id="stop4-9-0" />
    </linearGradient>
    <linearGradient
       id="c-6-0"
       y1="44"
       y2="8.0699997"
       x2="0"
       gradientUnits="userSpaceOnUse">
      <stop
         stop-color="#42a603"
         id="stop2-2" />
      <stop
         offset="1"
         stop-color="#78da06"
         id="stop4-3" />
    </linearGradient>
    <linearGradient
       inkscape:collect="always"
       xlink:href="#c"
       id="linearGradient1398"
       gradientUnits="userSpaceOnUse"
       gradientTransform="matrix(0.8325,0,0,0.8325,-384.41431,-431.90099)"
       x1="418.57001"
       y1="518.79999"
       x2="425.57001"
       y2="525.79999" />
    <linearGradient
       inkscape:collect="always"
       xlink:href="#c"
       id="linearGradient1400"
       gradientUnits="userSpaceOnUse"
       gradientTransform="matrix(0.8325,0,0,0.8325,-384.41431,-431.90099)"
       x1="393.76001"
       y1="518.98999"
       x2="400.69"
       y2="525.90997" />
    <linearGradient
       inkscape:collect="always"
       xlink:href="#g-8"
       id="linearGradient1402"
       gradientUnits="userSpaceOnUse"
       gradientTransform="matrix(0.8325,0,0,0.8325,-384.41431,-431.90099)"
       x1="417.19"
       y1="529.39001"
       x2="420.64001"
       y2="532.27002" />
    <linearGradient
       inkscape:collect="always"
       xlink:href="#d"
       id="linearGradient1404"
       gradientUnits="userSpaceOnUse"
       gradientTransform="matrix(0.8325,0,0,0.8325,-384.41431,-431.90099)"
       x1="388.57001"
       y1="511.79999"
       x2="400.57001"
       y2="527.59003" />
    <linearGradient
       inkscape:collect="always"
       xlink:href="#d"
       id="linearGradient1406"
       gradientUnits="userSpaceOnUse"
       gradientTransform="matrix(0.8325,0,0,0.8325,-384.41431,-431.90099)"
       x1="418.57001"
       y1="507.79999"
       x2="430.07001"
       y2="523.31" />
    <linearGradient
       inkscape:collect="always"
       xlink:href="#c"
       id="linearGradient1408"
       gradientUnits="userSpaceOnUse"
       gradientTransform="matrix(0.8325,0,0,0.8325,-384.41431,-431.90099)"
       x1="410.03"
       y1="529.47998"
       x2="417.07999"
       y2="538.66998" />
    <linearGradient
       inkscape:collect="always"
       xlink:href="#k"
       id="linearGradient1410"
       gradientUnits="userSpaceOnUse"
       gradientTransform="matrix(1.0606217,-0.16297853,0.08456535,0.8325,-523.25034,-361.03859)"
       x1="406.13"
       y1="519.46002"
       x2="416.44"
       y2="525.15002" />
    <linearGradient
       inkscape:collect="always"
       xlink:href="#c-6"
       id="linearGradient1412"
       gradientUnits="userSpaceOnUse"
       gradientTransform="matrix(0.8325,0,0,0.8325,-384.41431,-431.90099)"
       x1="419.63"
       y1="508.04999"
       x2="422.26001"
       y2="504.42001" />
  </defs>
  <g
     id="g1"
     transform="matrix(1.5515161,0,0,1.5615616,99.698868,24.5)">
    <path
       d="m -53.476415,-9.1575 c -1.0323,0 -2.01465,0.208125 -2.90709,0.583583 a 7.43256,7.43256 0 0 0 -2.367631,1.59507 7.43256,7.43256 0 0 0 -1.59507,2.367629 7.467525,7.467525 0 0 0 -0.583583,2.90709 V 8.364127 c 0,1.0323 0.208125,2.01465 0.583583,2.90709 a 7.43256,7.43256 0 0 0 1.59507,2.36763 7.43256,7.43256 0 0 0 2.367631,1.59507 7.467525,7.467525 0 0 0 2.90709,0.583583 h 12.526596 l 5.827501,4.995 v -4.995 h 0.039 c 1.0323,0 2.01465,-0.208125 2.90709,-0.583583 a 7.43256,7.43256 0 0 0 2.36763,-1.59507 7.43256,7.43256 0 0 0 1.59507,-2.36763 7.467525,7.467525 0 0 0 0.58359,-2.90709 V -9.1575 h -7.45338 z"
       id="path36-2-9"
       style="fill:url(#d-0-3-9);fill-rule:evenodd;stroke-width:0.8325"
       inkscape:connector-curvature="0" />
    <path
       d="m -35.954818,0 8.325,8.325 V 0 Z"
       id="path38-9-2"
       style="opacity:0.1;fill:url(#linearGradient1398);fill-rule:evenodd;stroke-width:0.8325"
       inkscape:connector-curvature="0" />
    <path
       d="m -52.396663,-4.270725 8.325,8.325 -9.365625,8.012812 -7.492501,-7.4925 z"
       id="path40-3-2"
       style="opacity:0.1;fill:url(#linearGradient1400);fill-rule:evenodd;stroke-width:0.8325"
       inkscape:connector-curvature="0" />
    <path
       d="m -50.939788,9.1575 c 6.562598,6.256237 12.639805,6.026467 15.59769,2.456707 2.95872,-3.56976 0.74508,-6.619207 0.74508,-6.619207 z"
       id="path42-1-8"
       style="fill:url(#linearGradient1402);fill-rule:evenodd;stroke-width:0.8325"
       inkscape:connector-curvature="0" />
    <path
       d="m -59.139081,-6.58674 a 7.3268325,7.3268325 0 0 0 -1.207125,1.975523 7.467525,7.467525 0 0 0 -0.583583,2.90709 v 6.274552 a 6.2079525,6.2079525 0 0 0 3.746251,1.257075 c 3.448215,0 7.102058,-1.546785 7.102058,-4.995 0,-3.448215 -3.653843,-7.4925 -7.102058,-7.4925 -0.650182,0 -1.366133,-0.01497 -1.955543,0.07326 z"
       id="path44-9-9"
       style="color:#000000;fill:url(#linearGradient1404);stroke-width:0.8325"
       inkscape:connector-curvature="0" />
    <path
       d="m -35.122318,-9.1575 c -1.77489,2.170328 -2.907088,4.799363 -2.06625,7.360965 1.1763,3.58308 5.23395,4.030132 8.56557,2.936227 a 5.9082525,5.9082525 0 0 0 0.99318,-0.437062 v -9.859298 z"
       id="path46-4-7"
       style="color:#000000;fill:url(#linearGradient1406);stroke-width:0.8325"
       inkscape:connector-curvature="0" />
    <g
       transform="matrix(0.8325,0,0,0.8325,-384.41433,-431.90099)"
       id="g52-7-3"
       style="color:#000000;fill:#31363b;stroke-width:3;stroke-linecap:round;stroke-linejoin:round">
      <circle
         cx="395.07001"
         cy="518.29999"
         r="3.5"
         id="circle48-8-6" />
      <circle
         cx="421.07001"
         cy="514.29999"
         r="3.5"
         id="circle50-4-1" />
    </g>
    <path
       d="m -50.107288,9.1575 c 4.986675,5.13819 11.557555,4.87845 13.80531,1.947217 2.24859,-2.932065 0.5661,-5.436225 0.5661,-5.436225 z"
       id="path54-5-2"
       inkscape:connector-curvature="0"
       style="fill:#192629;fill-rule:evenodd;stroke-width:0.8325" />
    <path
       d="m -38.077681,10.697625 c -1.714946,0.06077 -3.778699,0.595237 -5.685124,1.567597 2.70063,0.784215 4.553732,0.357143 6.029769,-0.563602 0.535288,-0.333833 0.928228,-0.576923 1.056478,-0.933233 a 7.7114475,7.7114475 0 0 0 -1.401123,-0.07076"
       id="path56-0-9"
       inkscape:connector-curvature="0"
       style="fill:#da4453;fill-rule:evenodd;stroke-width:0.8325" />
    <path
       d="m -44.279788,15.8175 h 3.329969 l 5.827501,4.995 v -4.995 h 0.039 c 1.0323,0 2.01465,-0.208125 2.90709,-0.583583 a 7.43256,7.43256 0 0 0 2.36763,-1.59507 7.43256,7.43256 0 0 0 1.59507,-2.36763 c 0.0213,-0.05079 0.0134,-0.114052 0.0333,-0.1665 L -34.289938,4.995 -50.939916,9.1575 Z"
       id="path58-3-3"
       style="opacity:0.2;fill:url(#linearGradient1408);fill-rule:evenodd;stroke-width:0.8325"
       inkscape:connector-curvature="0" />
    <path
       d="m -50.939788,9.1575 c 0,0 1.19214,-3.595568 7.435058,-5.217278 6.242902,-1.621709 9.215782,1.054778 9.215782,1.054778 0.83163,2.42091 -7.212787,6.182977 -7.212787,6.182977 0,0 -8.906918,0.47952 -9.435555,-2.020477"
       id="path60-6-1"
       style="fill:url(#linearGradient1410);fill-rule:evenodd;stroke-width:0.8325"
       inkscape:connector-curvature="0" />
    <path
       d="m -27.629818,-9.1575 c 0,-2.4975 -3.95436,-3.33 -3.95436,-3.33 0,0 -0.49032,1.05561 0,1.665 -1.87314,-1.665 -3.53814,-0.8325 -3.53814,-0.8325 0,0 0.41958,1.09224 1.04064,1.665 -0.99819,-0.478687 -2.08125,0 -2.08125,0 0,0 0.56529,0.8325 1.04061,0.8325 z"
       id="path62-1-9"
       style="fill:url(#linearGradient1412);fill-rule:evenodd;stroke-width:0.8325"
       inkscape:connector-curvature="0" />
    <g
       id="g68-0-4"
       style="fill:#31363b;fill-rule:evenodd"
       transform="matrix(0.8325,0,0,0.8325,-64.259789,-15.8175)">
      <path
         d="m 44.002,20 c 0,0 4.255,-0.491 3.81,-1.531 C 47.369,17.43 44.003,20 44.003,20 m -10e-4,0 c 0,0 3.067,-2.902 2.063,-3.464 C 45.06,15.974 44.002,20 44.002,20"
         id="path64-6-7"
         inkscape:connector-curvature="0" />
      <path
         d="m 44.002,20 c 0,0 3.685,2.122 3.985,1.035 C 48.287,19.948 44.002,20 44.002,20"
         id="path66-3-8"
         inkscape:connector-curvature="0" />
    </g>
    <g
       id="g74-2-4"
       style="fill:#31363b;fill-rule:evenodd"
       transform="matrix(0.8325,0,0,0.8325,-64.259789,-15.8175)">
      <path
         d="m 4.001,27 c 0,0 -3.685,2.122 -3.985,1.035 C -0.284,26.948 4.001,27 4.001,27 m 0,0 c 0,0 -4.255,-0.491 -3.811,-1.531 C 0.634,24.43 4.001,27 4.001,27"
         id="path70-0-5"
         inkscape:connector-curvature="0" />
      <path
         d="m 4.001,27 c 0,0 -1.591,3.858 -2.511,3.173 C 0.569,29.488 4,27 4,27"
         id="path72-6-0"
         inkscape:connector-curvature="0" />
    </g>
  </g>
</svg>
