<?xml version="1.0" encoding="UTF-8" standalone="no"?>
<svg
   width="62"
   height="62"
   version="1.1"
   id="svg5"
   sodipodi:docname="chrome-acgopffjcnoglomfkekpjmckhhgmkmci.svg"
   inkscape:version="1.4 (unknown)"
   xmlns:inkscape="http://www.inkscape.org/namespaces/inkscape"
   xmlns:sodipodi="http://sodipodi.sourceforge.net/DTD/sodipodi-0.dtd"
   xmlns="http://www.w3.org/2000/svg"
   xmlns:svg="http://www.w3.org/2000/svg">
  <defs
     id="defs5" />
  <sodipodi:namedview
     id="namedview5"
     pagecolor="#ffffff"
     bordercolor="#000000"
     borderopacity="0.25"
     inkscape:showpageshadow="2"
     inkscape:pageopacity="0.0"
     inkscape:pagecheckerboard="0"
     inkscape:deskcolor="#d1d1d1"
     inkscape:zoom="11.6875"
     inkscape:cx="31.957219"
     inkscape:cy="31.957219"
     inkscape:window-width="1920"
     inkscape:window-height="998"
     inkscape:window-x="0"
     inkscape:window-y="0"
     inkscape:window-maximized="1"
     inkscape:current-layer="svg5" />
  <rect
     style="opacity:0.2;stroke-width:0.9823"
     width="55"
     height="55.017544"
     x="4"
     y="4.9824562"
     rx="8.25"
     ry="8.2526312"
     id="rect1" />
  <rect
     style="fill:#233143;stroke-width:0.9823;fill-opacity:1"
     width="55"
     height="55.017544"
     x="4"
     y="4"
     rx="8.25"
     ry="8.2526312"
     id="rect2" />
  <path
     style="opacity:0.1;fill:#ffffff;stroke-width:0.9823"
     d="M 12.248466,4 C 7.6779652,4 4,7.6791384 4,12.251097 v 0.982456 C 4,8.6615945 7.6779652,4.9824561 12.248466,4.9824561 H 50.751534 C 55.322034,4.9824561 59,8.6615945 59,13.233553 V 12.251097 C 59,7.6791384 55.322034,4 50.751534,4 Z"
     id="path4" />
  <g
     stroke-width="0.294"
     transform="matrix(3.5277779,0,0,3.5273356,58.637436,-3.9162063)"
     id="g4">
    <path
       fill="#09c37b"
       d="m -9.677,12.025 a 1.984,1.984 0 0 0 -1.984,1.984 1.984,1.984 0 0 0 1.984,1.985 1.984,1.984 0 0 0 1.985,-1.985 v -1.984 z"
       id="path1" />
    <path
       fill="#9154dd"
       d="m -9.677,8.056 h 1.985 v 3.969 h -1.985 a 1.98,1.98 0 0 1 -1.984,-1.984 c 0,-1.1 0.885,-1.985 1.984,-1.985 z"
       id="path2-7" />
    <circle
       cx="-5.7080002"
       cy="10.04"
       r="1.984"
       fill="#01b1f8"
       id="circle2" />
    <path
       fill="#f24e1e"
       d="m -9.677,4.087 a 1.98,1.98 0 0 0 -1.984,1.985 1.98,1.98 0 0 0 1.984,1.984 h 1.985 V 4.087 Z"
       id="path3-7" />
    <path
       fill="#ff7262"
       d="m -7.692,4.087 h 1.984 c 1.1,0 1.984,0.885 1.984,1.985 a 1.98,1.98 0 0 1 -1.984,1.984 h -1.984 z"
       id="path4-1" />
  </g>
</svg>
