<?xml version="1.0" encoding="UTF-8" standalone="no"?>
<!-- Created with Inkscape (http://www.inkscape.org/) -->

<svg
   width="62"
   height="62"
   viewBox="0 0 62 62"
   version="1.1"
   id="svg1"
   inkscape:version="1.4 (e7c3feb100, 2024-10-09)"
   sodipodi:docname="clawsker.svg"
   xmlns:inkscape="http://www.inkscape.org/namespaces/inkscape"
   xmlns:sodipodi="http://sodipodi.sourceforge.net/DTD/sodipodi-0.dtd"
   xmlns:xlink="http://www.w3.org/1999/xlink"
   xmlns="http://www.w3.org/2000/svg"
   xmlns:svg="http://www.w3.org/2000/svg">
  <sodipodi:namedview
     id="namedview1"
     pagecolor="#ffffff"
     bordercolor="#000000"
     borderopacity="0.25"
     inkscape:showpageshadow="2"
     inkscape:pageopacity="0.0"
     inkscape:pagecheckerboard="0"
     inkscape:deskcolor="#d1d1d1"
     inkscape:document-units="px"
     inkscape:zoom="7.5994534"
     inkscape:cx="35.792048"
     inkscape:cy="45.792767"
     inkscape:window-width="1920"
     inkscape:window-height="998"
     inkscape:window-x="0"
     inkscape:window-y="0"
     inkscape:window-maximized="1"
     inkscape:current-layer="layer1"
     showgrid="false">
    <inkscape:grid
       id="grid7"
       units="px"
       originx="0"
       originy="0"
       spacingx="1"
       spacingy="1"
       empcolor="#0099e5"
       empopacity="0.30196078"
       color="#0099e5"
       opacity="0.14901961"
       empspacing="5"
       enabled="true"
       visible="false" />
  </sodipodi:namedview>
  <defs
     id="defs1">
    <linearGradient
       id="linearGradient1"
       inkscape:collect="always">
      <stop
         style="stop-color:#96acb6;stop-opacity:1;"
         offset="0"
         id="stop3" />
      <stop
         style="stop-color:#eff2f6;stop-opacity:1;"
         offset="1"
         id="stop6" />
    </linearGradient>
    <linearGradient
       id="linearGradient13"
       inkscape:collect="always">
      <stop
         style="stop-color:#f0f3f4;stop-opacity:1;"
         offset="0"
         id="stop13" />
      <stop
         style="stop-color:#b7c6cd;stop-opacity:1;"
         offset="1"
         id="stop14" />
    </linearGradient>
    <linearGradient
       id="linearGradient11"
       inkscape:collect="always">
      <stop
         style="stop-color:#7137c8;stop-opacity:1;"
         offset="0"
         id="stop11" />
      <stop
         style="stop-color:#b496e3;stop-opacity:1;"
         offset="1"
         id="stop12" />
    </linearGradient>
    <linearGradient
       id="linearGradient9"
       inkscape:collect="always">
      <stop
         style="stop-color:#7137c8;stop-opacity:1;"
         offset="0"
         id="stop9" />
      <stop
         style="stop-color:#c1a7e7;stop-opacity:1;"
         offset="1"
         id="stop10" />
    </linearGradient>
    <linearGradient
       id="linearGradient7"
       inkscape:collect="always">
      <stop
         style="stop-color:#8d5fd3;stop-opacity:1;"
         offset="0"
         id="stop7" />
      <stop
         style="stop-color:#b79ae3;stop-opacity:1;"
         offset="1"
         id="stop8" />
    </linearGradient>
    <linearGradient
       id="linearGradient3"
       x1="205"
       y1="217"
       x2="173.5"
       y2="168"
       gradientUnits="userSpaceOnUse"
       gradientTransform="translate(-152,-158.00006)">
      <stop
         offset="0.444717"
         stop-color="#FF7E07"
         id="stop1"
         style="stop-color:#373e48;stop-opacity:1" />
      <stop
         offset="1"
         stop-color="#FFE607"
         id="stop2"
         style="stop-color:#6f7c91;stop-opacity:1" />
    </linearGradient>
    <radialGradient
       id="paint664_radial_890_11"
       cx="0"
       cy="0"
       r="1"
       gradientUnits="userSpaceOnUse"
       gradientTransform="matrix(-16.000099,-9.999913,9.999913,-16.000099,583,171)">
      <stop
         offset="0.42141"
         stop-color="#B7C6CD"
         id="stop2071" />
      <stop
         offset="1"
         stop-color="#EFF2F6"
         id="stop2072" />
    </radialGradient>
    <linearGradient
       id="paint665_linear_890_11"
       x1="605"
       y1="180"
       x2="601.466"
       y2="162.72301"
       gradientUnits="userSpaceOnUse">
      <stop
         stop-color="#5200FF"
         id="stop2073" />
      <stop
         offset="1"
         stop-color="#0085FF"
         id="stop2074" />
    </linearGradient>
    <linearGradient
       id="paint666_linear_890_11"
       x1="567"
       y1="181"
       x2="562.11798"
       y2="174.183"
       gradientUnits="userSpaceOnUse">
      <stop
         stop-color="#5200FF"
         id="stop2075" />
      <stop
         offset="0.670391"
         stop-color="#0085FF"
         id="stop2076" />
    </linearGradient>
    <linearGradient
       id="paint667_linear_890_11"
       x1="605"
       y1="180"
       x2="597.32001"
       y2="174.24001"
       gradientUnits="userSpaceOnUse">
      <stop
         stop-color="#5200FF"
         id="stop2077" />
      <stop
         offset="1"
         stop-color="#0085FF"
         id="stop2078" />
    </linearGradient>
    <linearGradient
       id="paint668_linear_890_11"
       x1="567"
       y1="180"
       x2="561.23999"
       y2="172.32001"
       gradientUnits="userSpaceOnUse">
      <stop
         stop-color="#5200FF"
         id="stop2079" />
      <stop
         offset="1"
         stop-color="#0085FF"
         id="stop2080" />
    </linearGradient>
    <linearGradient
       id="paint669_linear_890_11"
       x1="607"
       y1="179"
       x2="602.50598"
       y2="171.80901"
       gradientUnits="userSpaceOnUse">
      <stop
         stop-color="#5200FF"
         id="stop2081" />
      <stop
         offset="1"
         stop-color="#0085FF"
         id="stop2082" />
    </linearGradient>
    <linearGradient
       id="paint670_linear_890_11"
       x1="607"
       y1="217"
       x2="568.82599"
       y2="170.01601"
       gradientUnits="userSpaceOnUse">
      <stop
         stop-color="#5200FF"
         id="stop2083" />
      <stop
         offset="1"
         stop-color="#0085FF"
         id="stop2084" />
    </linearGradient>
    <radialGradient
       id="paint671_radial_890_11"
       cx="0"
       cy="0"
       r="1"
       gradientUnits="userSpaceOnUse"
       gradientTransform="matrix(0,20,-16,0,583,187)">
      <stop
         offset="0.869716"
         stop-color="#EFF2F6"
         id="stop2085" />
      <stop
         offset="1"
         stop-color="#B7C6CD"
         id="stop2086" />
    </radialGradient>
    <linearGradient
       id="paint65_linear_890_11"
       x1="83"
       y1="975"
       x2="83"
       y2="1017"
       gradientUnits="userSpaceOnUse"
       gradientTransform="matrix(1.3181819,0,0,1.3333333,-78.409088,-1297)">
      <stop
         stop-color="#EFF2F6"
         id="stop872"
         offset="0"
         style="stop-color:#dae2ec;stop-opacity:1;" />
      <stop
         offset="1"
         stop-color="#B7C6CD"
         id="stop873"
         style="stop-color:#92a8b3;stop-opacity:1;" />
    </linearGradient>
    <linearGradient
       id="paint553_linear_890_11"
       x1="759"
       y1="261"
       x2="795.98602"
       y2="307.71899"
       gradientUnits="userSpaceOnUse"
       gradientTransform="translate(-752,-258)">
      <stop
         stop-color="#EFF2F6"
         id="stop1849" />
      <stop
         offset="1"
         stop-color="#B7C6CD"
         id="stop1850" />
    </linearGradient>
    <linearGradient
       id="paint554_linear_890_11"
       x1="807"
       y1="317"
       x2="795.164"
       y2="285.43799"
       gradientUnits="userSpaceOnUse"
       gradientTransform="translate(-752,-258)">
      <stop
         stop-color="#FF7E07"
         id="stop1851" />
      <stop
         offset="1"
         stop-color="#FFE607"
         id="stop1852" />
    </linearGradient>
    <linearGradient
       id="paint555_linear_890_11"
       x1="792"
       y1="281"
       x2="792"
       y2="275"
       gradientUnits="userSpaceOnUse"
       gradientTransform="translate(-752,-258)">
      <stop
         offset="0.155999"
         stop-color="#71706E"
         id="stop1853" />
      <stop
         offset="0.796276"
         stop-color="#B9AA99"
         id="stop1854" />
    </linearGradient>
    <linearGradient
       id="paint556_linear_890_11"
       x1="791.5"
       y1="287"
       x2="791.5"
       y2="281"
       gradientUnits="userSpaceOnUse"
       gradientTransform="translate(-752,-258)">
      <stop
         offset="0.155999"
         stop-color="#71706E"
         id="stop1855" />
      <stop
         offset="0.796276"
         stop-color="#B9AA99"
         id="stop1856" />
    </linearGradient>
    <linearGradient
       id="paint557_linear_890_11"
       x1="765"
       y1="271"
       x2="786.90002"
       y2="290.91"
       gradientUnits="userSpaceOnUse"
       gradientTransform="translate(-752,-258)">
      <stop
         stop-color="white"
         id="stop1857" />
      <stop
         offset="0.705"
         stop-color="#EAEFEF"
         id="stop1858" />
    </linearGradient>
    <linearGradient
       id="paint558_linear_890_11"
       x1="781"
       y1="289"
       x2="778.59998"
       y2="281.79999"
       gradientUnits="userSpaceOnUse"
       gradientTransform="translate(-752,-258)">
      <stop
         stop-color="#2E2E41"
         id="stop1859" />
      <stop
         offset="1"
         stop-color="#566C80"
         id="stop1860" />
    </linearGradient>
    <linearGradient
       id="paint559_linear_890_11"
       x1="779"
       y1="283"
       x2="771"
       y2="275"
       gradientUnits="userSpaceOnUse"
       gradientTransform="translate(-752,-258)">
      <stop
         stop-color="#2E2E41"
         id="stop1861" />
      <stop
         offset="1"
         stop-color="#566C80"
         id="stop1862" />
    </linearGradient>
    <linearGradient
       id="paint560_linear_890_11"
       x1="801"
       y1="311"
       x2="797.612"
       y2="295.75299"
       gradientUnits="userSpaceOnUse">
      <stop
         stop-color="#2E2E41"
         id="stop1863" />
      <stop
         offset="1"
         stop-color="#566C80"
         id="stop1864" />
    </linearGradient>
    <linearGradient
       id="paint683_linear_890_11"
       x1="211"
       y1="177.05701"
       x2="199.468"
       y2="143.019"
       gradientUnits="userSpaceOnUse"
       gradientTransform="translate(-152,-158.00006)">
      <stop
         offset="0.222053"
         stop-color="#FF7E07"
         id="stop2109"
         style="stop-color:#c6afe9;stop-opacity:1" />
      <stop
         offset="1"
         stop-color="#FFE607"
         id="stop2110"
         style="stop-color:#8d5fd3;stop-opacity:1" />
    </linearGradient>
    <linearGradient
       id="paint684_linear_890_11"
       x1="159"
       y1="167"
       x2="195.98599"
       y2="213.71899"
       gradientUnits="userSpaceOnUse"
       gradientTransform="translate(-152,-158.00006)">
      <stop
         offset="0.448054"
         stop-color="#EFF2F6"
         id="stop2111" />
      <stop
         offset="1"
         stop-color="#B7C6CD"
         id="stop2112" />
    </linearGradient>
    <linearGradient
       id="paint685_linear_890_11"
       x1="167"
       y1="178"
       x2="167"
       y2="172"
       gradientUnits="userSpaceOnUse"
       gradientTransform="translate(-152,-158.00006)">
      <stop
         offset="0.155999"
         stop-color="#71706E"
         id="stop2113" />
      <stop
         offset="0.796276"
         stop-color="#B9AA99"
         id="stop2114" />
    </linearGradient>
    <linearGradient
       id="paint686_linear_890_11"
       x1="169"
       y1="194"
       x2="169"
       y2="188"
       gradientUnits="userSpaceOnUse"
       gradientTransform="translate(-152,-158.00006)">
      <stop
         offset="0.155999"
         stop-color="#71706E"
         id="stop2115" />
      <stop
         offset="0.796276"
         stop-color="#B9AA99"
         id="stop2116" />
    </linearGradient>
    <linearGradient
       id="paint687_linear_890_11"
       x1="170.5"
       y1="186"
       x2="170.5"
       y2="180"
       gradientUnits="userSpaceOnUse"
       gradientTransform="translate(-152,-158.00006)">
      <stop
         offset="0.155999"
         stop-color="#71706E"
         id="stop2117" />
      <stop
         offset="0.796276"
         stop-color="#B9AA99"
         id="stop2118" />
    </linearGradient>
    <linearGradient
       id="paint688_linear_890_11"
       x1="209.46899"
       y1="217"
       x2="150.498"
       y2="187.968"
       gradientUnits="userSpaceOnUse"
       gradientTransform="translate(-152,-158.00006)">
      <stop
         stop-color="#FF7E07"
         id="stop2119"
         style="stop-color:#c6afe9;stop-opacity:1" />
      <stop
         offset="1"
         stop-color="#FFE607"
         id="stop2120"
         style="stop-color:#7137c8;stop-opacity:1" />
    </linearGradient>
    <linearGradient
       id="paint689_linear_890_11"
       x1="205"
       y1="217"
       x2="173.5"
       y2="168"
       gradientUnits="userSpaceOnUse"
       gradientTransform="translate(-152,-158.00006)"
       xlink:href="#paint683_linear_890_11">
      <stop
         offset="0.444717"
         stop-color="#FF7E07"
         id="stop2121"
         style="stop-color:#c6afe9;stop-opacity:1" />
      <stop
         offset="1"
         stop-color="#FFE607"
         id="stop2122"
         style="stop-color:#7137c8;stop-opacity:1" />
    </linearGradient>
    <linearGradient
       id="paint690_linear_890_11"
       x1="191"
       y1="173"
       x2="201"
       y2="183"
       gradientUnits="userSpaceOnUse"
       gradientTransform="translate(-152,-158.00006)">
      <stop
         stop-color="#F15700"
         id="stop2123" />
      <stop
         offset="1"
         stop-color="#FF0000"
         id="stop2124" />
    </linearGradient>
    <linearGradient
       id="paint1_linear_60_456"
       x1="63.921902"
       y1="90"
       x2="63.921902"
       y2="14"
       gradientUnits="userSpaceOnUse"
       gradientTransform="matrix(0.2938946,0,0,0.28947449,12.213699,9.4461003)">
      <stop
         stop-color="#FD3A84"
         id="stop4" />
      <stop
         offset="1"
         stop-color="#FFA68D"
         id="stop5" />
    </linearGradient>
    <linearGradient
       inkscape:collect="always"
       xlink:href="#linearGradient7"
       id="linearGradient8"
       x1="46.950531"
       y1="-13.740062"
       x2="62"
       y2="20.209749"
       gradientUnits="userSpaceOnUse" />
    <linearGradient
       inkscape:collect="always"
       xlink:href="#linearGradient13"
       id="linearGradient14"
       x1="10.346163"
       y1="14.358226"
       x2="47.682476"
       y2="54.852272"
       gradientUnits="userSpaceOnUse" />
    <linearGradient
       id="paint541_linear_890_11-6"
       x1="983"
       y1="282"
       x2="983"
       y2="288"
       gradientUnits="userSpaceOnUse"
       gradientTransform="matrix(0.90000006,0,0,0.90000006,-852.09249,-241.10008)">
      <stop
         offset="0.189495"
         stop-color="#EFF2F6"
         id="stop1825-2" />
      <stop
         offset="0.850463"
         stop-color="#B7C6CD"
         id="stop1826-9" />
    </linearGradient>
    <linearGradient
       id="paint542_linear_890_11-1"
       x1="983"
       y1="290"
       x2="983"
       y2="296"
       gradientUnits="userSpaceOnUse"
       gradientTransform="matrix(0.90000006,0,0,0.90000006,-852.09249,-241.10008)">
      <stop
         offset="0.189495"
         stop-color="#EFF2F6"
         id="stop1827-2" />
      <stop
         offset="0.850463"
         stop-color="#B7C6CD"
         id="stop1828-7" />
    </linearGradient>
    <linearGradient
       id="paint543_linear_890_11-0"
       x1="978.5"
       y1="298"
       x2="978.5"
       y2="304"
       gradientUnits="userSpaceOnUse"
       gradientTransform="matrix(0.90000006,0,0,0.90000006,-852.09249,-241.10008)">
      <stop
         offset="0.189495"
         stop-color="#EFF2F6"
         id="stop1829-9" />
      <stop
         offset="0.850463"
         stop-color="#B7C6CD"
         id="stop1830-3" />
    </linearGradient>
    <linearGradient
       inkscape:collect="always"
       xlink:href="#linearGradient1"
       id="linearGradient6"
       x1="28.557592"
       y1="31.599939"
       x2="28.557592"
       y2="27.999941"
       gradientUnits="userSpaceOnUse" />
    <linearGradient
       inkscape:collect="always"
       xlink:href="#linearGradient1"
       id="linearGradient16"
       x1="32.607594"
       y1="24.39994"
       x2="32.607594"
       y2="20.79994"
       gradientUnits="userSpaceOnUse" />
    <linearGradient
       inkscape:collect="always"
       xlink:href="#linearGradient1"
       id="linearGradient18"
       x1="32.607594"
       y1="17.19994"
       x2="32.607594"
       y2="13.59994"
       gradientUnits="userSpaceOnUse" />
    <linearGradient
       inkscape:collect="always"
       xlink:href="#linearGradient9"
       id="linearGradient2"
       gradientUnits="userSpaceOnUse"
       x1="19.316828"
       y1="8.7080345"
       x2="48.447281"
       y2="55.448818"
       gradientTransform="translate(0,6e-5)" />
    <linearGradient
       inkscape:collect="always"
       xlink:href="#linearGradient11"
       id="linearGradient4"
       gradientUnits="userSpaceOnUse"
       x1="-5.2115483"
       y1="33.578461"
       x2="59"
       y2="58.999939" />
  </defs>
  <g
     inkscape:label="Layer 1"
     inkscape:groupmode="layer"
     id="layer1">
    <path
       d="m 3,20.08994 c 0,-0.688 0.353,-1.327 0.934,-1.693 l 22.98,-14.474 c 1.896,-1.194 4.299,-1.232 6.232,-0.099 l 24.866,14.582 c 0.612,0.359 0.988,1.016 0.988,1.725 v 32.867 c 0,3.315 -2.686,6.002 -6,6.002 H 9 c -3.314,0 -6,-2.687 -6,-6.002 z"
       id="path664"
       style="fill:url(#linearGradient8)" />
    <path
       d="m 7,12.99994 c 0,-2.209 1.791,-4 4,-4 h 40 c 2.209,0 4,1.791 4,4 v 30 c 0,2.209 -1.791,4 -4,4 H 11 c -2.209,0 -4,-1.791 -4,-4 z"
       id="path665"
       style="fill:url(#linearGradient14)" />
    <path
       d="m 18.207592,15.39994 c 0,-0.9945 0.8055,-1.8 1.8,-1.8 h 25.2 c 0.9945,0 1.8,0.8055 1.8,1.8 0,0.9945 -0.8055,1.8 -1.8,1.8 h -25.2 c -0.9945,0 -1.8,-0.8055 -1.8,-1.8 z"
       id="path528"
       style="fill:url(#linearGradient18)" />
    <path
       d="m 18.207592,22.59994 c 0,-0.9945 0.8055,-1.8 1.8,-1.8 h 25.2 c 0.9945,0 1.8,0.8055 1.8,1.8 0,0.9945 -0.8055,1.8 -1.8,1.8 h -25.2 c -0.9945,0 -1.8,-0.8055 -1.8,-1.8 z"
       id="path529"
       style="fill:url(#linearGradient16)" />
    <path
       d="m 18.207592,29.79994 c 0,-0.9945 0.8055,-1.8 1.8,-1.8 h 17.1 c 0.9945,0 1.8,0.8055 1.8,1.8 0,0.9945 -0.8055,1.8 -1.8,1.8 h -17.1 c -0.9945,0 -1.8,-0.8055 -1.8,-1.8 z"
       id="path530"
       style="fill:url(#linearGradient6)" />
    <path
       style="opacity:1;fill:#263448;fill-opacity:1"
       d="m 14.757592,9.59994 a 0.750075,0.66673333 0 0 0 -0.75,0.666016 v 6.667968 a 0.750075,0.66673333 0 0 0 0.75,0.666016 h 4.5 a 0.750075,0.66673333 0 0 0 0.75,-0.666016 v -6.667968 a 0.750075,0.66673333 0 0 0 -0.75,-0.666016 z m 9.742188,0 a 0.49998983,0.66507862 0 0 0 -0.492188,0.675781 v 6.650391 a 0.5,0.66509215 0 1 0 1,0 V 10.275721 A 0.49998983,0.66507862 0 0 0 24.49978,9.59994 Z m 6,0 a 0.49998983,0.66507862 0 0 0 -0.492188,0.675781 v 6.650391 a 0.5,0.66509215 0 1 0 1,0 V 10.275721 A 0.49998983,0.66507862 0 0 0 30.49978,9.59994 Z m 4.257812,0 a 0.750075,0.66673333 0 0 0 -0.75,0.666016 v 6.667968 a 0.750075,0.66673333 0 0 0 0.75,0.666016 h 4.5 a 0.750075,0.66673333 0 0 0 0.75,-0.666016 v -6.667968 a 0.750075,0.66673333 0 0 0 -0.75,-0.666016 z m 10,0 a 0.750075,0.66673333 0 0 0 -0.75,0.666016 v 6.667968 a 0.750075,0.66673333 0 0 0 0.75,0.666016 h 4.5 a 0.750075,0.66673333 0 0 0 0.75,-0.666016 v -6.667968 a 0.750075,0.66673333 0 0 0 -0.75,-0.666016 z m -29.75,1 h 4 v 6 h -4 z m 20,0 h 4 v 6 h -4 z m 10,0 h 4 v 6 h -4 z m -28.492188,11 a 0.49998983,0.66507862 0 0 0 -0.507812,0.675781 v 6.650391 a 0.5,0.66509215 0 1 0 1,0 V 22.275721 A 0.49998983,0.66507862 0 0 0 16.515404,21.59994 Z m 6.242188,0 a 0.750075,0.66673333 0 0 0 -0.75,0.666016 v 6.667968 a 0.750075,0.66673333 0 0 0 0.75,0.666016 h 4.5 a 0.750075,0.66673333 0 0 0 0.75,-0.666016 v -6.667968 a 0.750075,0.66673333 0 0 0 -0.75,-0.666016 z m 11.742188,0 a 0.49998983,0.66507862 0 0 0 -0.492188,0.675781 v 6.650391 a 0.5,0.66509215 0 1 0 1,0 V 22.275721 A 0.49998983,0.66507862 0 0 0 34.49978,21.59994 Z m 4,0 a 0.49998983,0.66507862 0 0 0 -0.492188,0.675781 v 6.650391 a 0.5,0.66509215 0 1 0 1,0 V 22.275721 A 0.49998983,0.66507862 0 0 0 38.49978,21.59994 Z m 6.257812,0 a 0.750075,0.66673333 0 0 0 -0.75,0.666016 v 6.667968 a 0.750075,0.66673333 0 0 0 0.75,0.666016 h 4.5 a 0.750075,0.66673333 0 0 0 0.75,-0.666016 v -6.667968 a 0.750075,0.66673333 0 0 0 -0.75,-0.666016 z m -21.75,1 h 4 v 6 h -4 z m 22,0 h 4 v 6 h -4 z m -30.25,11 a 0.750075,0.66673333 0 0 0 -0.75,0.666016 v 6.667968 a 0.750075,0.66673333 0 0 0 0.75,0.666016 h 4.5 a 0.750075,0.66673333 0 0 0 0.75,-0.666016 v -6.667968 a 0.750075,0.66673333 0 0 0 -0.75,-0.666016 z m 10,0 a 0.750075,0.66673333 0 0 0 -0.75,0.666016 v 6.667968 a 0.750075,0.66673333 0 0 0 0.75,0.666016 h 4.5 a 0.750075,0.66673333 0 0 0 0.75,-0.666016 v -6.667968 a 0.750075,0.66673333 0 0 0 -0.75,-0.666016 z m 8.757812,0 a 0.49998983,0.66507862 0 0 0 -0.507812,0.675781 v 6.650391 a 0.5,0.66509215 0 1 0 1,0 V 34.275721 A 0.49998983,0.66507862 0 0 0 33.515404,33.59994 Z m 6,0 a 0.49998983,0.66507862 0 0 0 -0.507812,0.675781 v 6.650391 a 0.5,0.66509215 0 1 0 1,0 V 34.275721 A 0.49998983,0.66507862 0 0 0 39.515404,33.59994 Z m 5.242188,0 a 0.750075,0.66673333 0 0 0 -0.75,0.666016 v 6.667968 a 0.750075,0.66673333 0 0 0 0.75,0.666016 h 4.5 a 0.750075,0.66673333 0 0 0 0.75,-0.666016 v -6.667968 a 0.750075,0.66673333 0 0 0 -0.75,-0.666016 z m -29.75,1 h 4 v 6 h -4 z m 10,0 h 4 v 6 h -4 z m 20,0 h 4 v 6 h -4 z m -30.25,11 a 0.750075,0.66673333 0 0 0 -0.75,0.666016 v 6.667968 a 0.750075,0.66673333 0 0 0 0.75,0.666016 h 4.5 a 0.750075,0.66673333 0 0 0 0.75,-0.666016 v -6.667968 a 0.750075,0.66673333 0 0 0 -0.75,-0.666016 z m 10.757812,0 a 0.49998983,0.66507862 0 0 0 -0.507812,0.675781 v 6.650391 a 0.5,0.66509215 0 1 0 1,0 V 46.275721 A 0.49998983,0.66507862 0 0 0 25.515404,45.59994 Z m 4,0 a 0.49998983,0.66507862 0 0 0 -0.507812,0.675781 v 6.650391 a 0.5,0.66509215 0 1 0 1,0 V 46.275721 A 0.49998983,0.66507862 0 0 0 29.515404,45.59994 Z m 7.242188,0 a 0.750075,0.66673333 0 0 0 -0.75,0.666016 v 6.667968 a 0.750075,0.66673333 0 0 0 0.75,0.666016 h 4.5 a 0.750075,0.66673333 0 0 0 0.75,-0.666016 v -6.667968 a 0.750075,0.66673333 0 0 0 -0.75,-0.666016 z m 10.742188,0 a 0.49998983,0.66507862 0 0 0 -0.492188,0.675781 v 6.650391 a 0.5,0.66509215 0 1 0 1,0 V 46.275721 A 0.49998983,0.66507862 0 0 0 47.49978,45.59994 Z m -32.492188,1 h 4 v 6 h -4 z m 22,0 h 4 v 6 h -4 z"
       id="path5" />
    <path
       d="M 3,53 V 20 L 53,59 H 9 C 5.686,59 3,56.314 3,53 Z"
       id="path670-7"
       style="fill:url(#linearGradient2)" />
    <path
       d="m 59,52.99994 v -33 l -50,39 h 44 c 3.314,0 6,-2.686 6,-6 z"
       id="path669-6"
       style="fill:url(#linearGradient4)" />
    <g
       id="g4"
       transform="matrix(0.625,0,0,0.60606061,25.2,20.424242)">
      <path
         style="opacity:0.2;fill-rule:evenodd"
         d="M 51.958,44.848 A 16,16 0 0 1 36,60 16,16 0 0 1 20.042,45.152 16,16 0 0 0 20,46 16,16 0 0 0 36,62 16,16 0 0 0 52,46 16,16 0 0 0 51.95704,44.84766 Z"
         id="path8" />
      <g
         style="fill:#1aa348"
         transform="matrix(2,0,0,2,-6,-1)"
         id="g8">
        <circle
           style="fill:#3485fd"
           cx="21"
           cy="23"
           r="8"
           id="circle8" />
      </g>
      <path
         style="fill:#ffffff"
         d="M 28,49.436 V 53 h 3.5638 l 9.0008,-9.0008 -3.5638,-3.5638 z m 15.7172,-8.5782 c 0.37696,-0.37694 0.37696,-0.9709 0,-1.34786 l -2.2274,-2.2274 c -0.37696,-0.37696 -0.97092,-0.37696 -1.34786,0 l -1.862,1.874 3.564,3.564 z"
         id="path9" />
    </g>
  </g>
</svg>
