<?xml version="1.0" encoding="UTF-8" standalone="no"?>
<svg
   width="62"
   height="62"
   version="1"
   id="svg5"
   sodipodi:docname="clipgrab.svg"
   inkscape:version="1.4 (unknown)"
   xmlns:inkscape="http://www.inkscape.org/namespaces/inkscape"
   xmlns:sodipodi="http://sodipodi.sourceforge.net/DTD/sodipodi-0.dtd"
   xmlns="http://www.w3.org/2000/svg"
   xmlns:svg="http://www.w3.org/2000/svg">
  <defs
     id="defs5" />
  <sodipodi:namedview
     id="namedview5"
     pagecolor="#ffffff"
     bordercolor="#000000"
     borderopacity="0.25"
     inkscape:showpageshadow="2"
     inkscape:pageopacity="0.0"
     inkscape:pagecheckerboard="0"
     inkscape:deskcolor="#d1d1d1"
     inkscape:zoom="8.5"
     inkscape:cx="35.529412"
     inkscape:cy="28.823529"
     inkscape:window-width="1920"
     inkscape:window-height="998"
     inkscape:window-x="0"
     inkscape:window-y="0"
     inkscape:window-maximized="1"
     inkscape:current-layer="svg5" />
  <path
     style="opacity:0.2;stroke-width:0.982302"
     d="M 3.5498924,30.509208 C 3.5383034,30.837344 3.4999994,31.159585 3.4999994,31.49165 3.4999996,46.731274 15.764826,59 30.999601,59 46.234376,59 58.499203,46.731274 58.499203,31.49165 c 0,-0.332065 -0.03929,-0.654306 -0.04908,-0.982442 C 57.931557,45.287085 45.902443,57.03512 30.999626,57.03512 16.096411,57.03512 4.0676948,45.287085 3.5491311,30.509208 Z"
     id="path1" />
  <rect
     style="fill:#0d6efd;stroke-width:0.982302"
     width="55"
     height="55.017498"
     x="3.4999998"
     y="3.0000608"
     rx="27.5"
     ry="27.508749"
     id="rect1" />
  <path
     style="opacity:1;fill:#9d7ed5;stroke-width:0.982302;fill-opacity:0.80000001"
     d="m 30.963545,3.0000606 c -6.276001,0.00814 -12.043664,2.1024926 -16.658059,5.6241715 0.06508,15.1845529 12.499793,27.7793019 27.693734,27.7793019 6.209018,0 11.905825,-2.455807 16.49885,-5.902407 -4.9e-4,-1.902263 -0.191633,-3.757802 -0.55629,-5.549339 -4.08e-4,-0.002 -0.0015,-0.0038 -0.002,-0.0059 -0.273791,-1.343602 -0.644084,-2.650991 -1.104908,-3.914469 -4.91e-4,-0.0014 -0.0015,-0.0025 -0.002,-0.0039 -0.615209,-1.68618 -1.390769,-3.294867 -2.307533,-4.806637 C 51.546168,11.308136 47.071003,7.4119875 41.72296,5.1567502 c -5.48e-4,-2.31e-4 -0.0014,2.31e-4 -0.002,0 -0.410885,-0.1732231 -0.825926,-0.3376147 -1.246845,-0.4912096 -5.67e-4,-2.071e-4 -0.0014,2.069e-4 -0.002,0 C 37.521756,3.5891291 34.331653,3.0038101 30.999902,3.00381 30.988412,3.00381 30.974972,3.00007 30.963452,3 Z"
     id="path2" />
  <g
     id="g6"
     transform="translate(-4.178317,0.640582)">
    <g
       id="g5">
      <path
         style="opacity:0.2;stroke-width:1.19757"
         d="m 31.174316,11.885716 c -1.106001,0 -1.581553,0.704 -1.595513,1.576493 V 38.518935 H 21.178317 L 35.178318,52.859418 49.178317,38.518935 H 40.778954 V 13.462209 c 0,-0.873991 -0.496235,-1.577529 -1.602239,-1.577529 h -8.002399 z"
         id="path3" />
      <path
         style="fill:#ffffff;stroke-width:1.19757"
         d="m 31.174316,10.86044 c -1.106001,0 -1.581553,0.704016 -1.595513,1.57651 V 37.493675 H 21.178317 L 35.178318,51.834159 49.178317,37.493675 H 40.778954 V 12.43695 c 0,-0.873997 -0.496235,-1.577532 -1.602239,-1.577532 h -8.002399 z"
         id="path4" />
    </g>
  </g>
  <path
     style="opacity:0.2;fill:#ffffff;stroke-width:0.982302"
     d="m 30.999993,3.0000606 c -15.234777,0 -27.4999933,12.2691184 -27.4999933,27.5087414 0,0.111561 0.011082,0.220102 0.017264,0.330045 C 3.8625243,15.904016 15.983961,3.9825157 30.999993,3.9825157 c 15.016031,0 27.13747,11.9215003 27.482728,26.8563313 0.0064,-0.109943 0.01728,-0.218484 0.01728,-0.330045 C 58.499991,15.269179 46.234781,3.0000606 30.999999,3.0000606 Z"
     id="path5" />
</svg>
