<?xml version="1.0" encoding="UTF-8" standalone="no"?>
<svg
   width="62"
   height="62"
   version="1.1"
   id="svg5"
   sodipodi:docname="cmus.svg"
   inkscape:version="1.4 (unknown)"
   xmlns:inkscape="http://www.inkscape.org/namespaces/inkscape"
   xmlns:sodipodi="http://sodipodi.sourceforge.net/DTD/sodipodi-0.dtd"
   xmlns="http://www.w3.org/2000/svg"
   xmlns:svg="http://www.w3.org/2000/svg">
  <defs
     id="defs5">
    <linearGradient
       id="paint1_linear_335_176"
       x1="180.987"
       y1="163.291"
       x2="125.995"
       y2="71.064003"
       gradientUnits="userSpaceOnUse"
       gradientTransform="matrix(0.38181789,0,0,0.38181789,-67.240522,-23.8934)">
      <stop
         stop-color="#248EFE"
         id="stop4" />
      <stop
         offset="1"
         stop-color="#1DF4FF"
         id="stop5" />
    </linearGradient>
  </defs>
  <sodipodi:namedview
     id="namedview5"
     pagecolor="#ffffff"
     bordercolor="#000000"
     borderopacity="0.25"
     inkscape:showpageshadow="2"
     inkscape:pageopacity="0.0"
     inkscape:pagecheckerboard="0"
     inkscape:deskcolor="#d1d1d1"
     inkscape:zoom="5.84375"
     inkscape:cx="-8.1283422"
     inkscape:cy="43.208556"
     inkscape:window-width="1920"
     inkscape:window-height="998"
     inkscape:window-x="0"
     inkscape:window-y="0"
     inkscape:window-maximized="1"
     inkscape:current-layer="svg5" />
  <rect
     style="opacity:0.2;stroke-width:0.9823"
     width="55"
     height="55.017544"
     x="4"
     y="4.9824562"
     rx="8.25"
     ry="8.2526312"
     id="rect1" />
  <rect
     style="fill:#233143;stroke-width:0.9823;fill-opacity:1"
     width="55"
     height="55.017544"
     x="4"
     y="4"
     rx="8.25"
     ry="8.2526312"
     id="rect2" />
  <path
     style="opacity:0.1;fill:#ffffff;stroke-width:0.9823"
     d="M 12.248466,4 C 7.6779652,4 4,7.6791384 4,12.251097 v 0.982456 C 4,8.6615945 7.6779652,4.9824561 12.248466,4.9824561 H 50.751534 C 55.322034,4.9824561 59,8.6615945 59,13.233553 V 12.251097 C 59,7.6791384 55.322034,4 50.751534,4 Z"
     id="path4" />
  <g
     id="g1"
     transform="matrix(0.71854953,0,0,0.73809522,43.490377,12.547619)">
    <path
       fill-rule="evenodd"
       clip-rule="evenodd"
       d="m -7.3439862,24.923544 -0.00229,-0.0011 V 39.31426 c -3.818e-4,1.48489 -0.4952178,2.92778 -1.4066171,4.100342 -0.9110175,1.173327 -2.1866707,2.009126 -3.6257427,2.377199 -1.43869,0.36769 -2.959089,0.24589 -4.321415,-0.345927 -1.361944,-0.591818 -2.488689,-1.620054 -3.201925,-2.922816 -0.712854,-1.302763 -0.97249,-2.805598 -0.736908,-4.27216 0.235582,-1.466181 0.952254,-2.812471 2.03738,-3.826579 1.085127,-1.014109 2.476853,-1.637999 3.956015,-1.773544 0.247418,-0.02291 0.495218,-0.03169 0.741872,-0.02711 1.588363,0.03131 3.470725,-1.031672 3.470725,-2.620798 V 17.309332 c 0,-1.259236 0,-2.327562 0.09431,-3.204292 0.101182,-0.934347 0.3234,-1.792559 0.8541266,-2.591093 0.5311087,-0.798496 1.23709,-1.333613 2.0602894,-1.786373 0.7716539,-0.4260324 1.7555986,-0.8396939 2.9182341,-1.3254045 L -0.19635525,6.59934 C 2.281261,5.5620935 4.302605,4.7162141 5.9325855,4.3004908 7.6179297,3.8703348 9.2540205,3.8024476 10.711419,4.7697068 l 0.01413,0.010309 c 0.509345,0.3405434 0.943853,0.7817721 1.276035,1.2965772 0.545236,0.8376321 0.82549,1.8378422 0.985854,2.9121251 0.03169,0.2155362 0.05918,0.4316451 0.08247,0.6482886 0.164563,1.5723643 0.164563,3.5439953 0.164563,5.8964903 v 19.666676 c -7.64e-4,1.48489 -0.4956,2.927779 -1.406617,4.100342 C 10.916837,40.473841 9.640802,41.30964 8.2021111,41.677713 6.7630394,42.045403 5.2426406,41.923985 3.8806962,41.331786 2.51837,40.74035 1.3920072,39.711733 0.67877136,38.40897 c -0.71323582,-1.302762 -0.97249017,-2.805598 -0.73690853,-4.27216 0.23519982,-1.466181 0.951872,-2.812471 2.03699847,-3.826579 1.0855082,-1.014108 2.4768526,-1.637999 3.9560151,-1.773544 0.2477999,-0.02291 0.4955997,-0.03169 0.7418722,-0.02673 1.5887442,0.03093 3.4707254,-1.032054 3.4707254,-2.62118 v -4.991124 c 0,-1.423035 -1.4371622,-2.395907 -2.7582532,-1.867471 z M -41.182444,16.61786 c -0.717779,-0.715145 -1.680915,-1.130563 -2.69384,-1.16149 -1.012886,-0.03093 -1.999618,0.324927 -2.759703,0.995017 -0.760085,0.670472 -1.236594,1.604781 -1.332659,2.613543 -0.0961,1.008763 0.195376,2.016381 0.815257,2.818198 l 0.331037,0.374946 6.300491,6.300377 c 1.192685,1.192417 1.192914,3.126324 4.96e-4,4.319123 l -6.296978,6.299996 c -0.722973,0.71629 -1.144881,1.681525 -1.179359,2.698688 -0.03452,1.016781 0.320994,2.008744 0.993757,2.771998 0.672725,0.763636 1.611844,1.240908 2.625113,1.334835 1.013268,0.09355 2.024054,-0.203509 2.825452,-0.830454 l 0.370936,-0.331036 11.283788,-11.283863 c 0.686776,-0.686891 1.099177,-1.600581 1.160268,-2.570017 0.06109,-0.969435 -0.234054,-1.927416 -0.829194,-2.69487 l -0.331074,-0.374945 z"
       id="path2"
       style="fill:#5599ff" />
  </g>
</svg>
