<?xml version="1.0" encoding="UTF-8" standalone="no"?>
<svg
   width="62"
   height="62"
   version="1"
   id="svg6"
   sodipodi:docname="codelite.svg"
   inkscape:version="1.4 (e7c3feb100, 2024-10-09)"
   xmlns:inkscape="http://www.inkscape.org/namespaces/inkscape"
   xmlns:sodipodi="http://sodipodi.sourceforge.net/DTD/sodipodi-0.dtd"
   xmlns="http://www.w3.org/2000/svg"
   xmlns:svg="http://www.w3.org/2000/svg">
  <defs
     id="defs6" />
  <sodipodi:namedview
     id="namedview6"
     pagecolor="#ffffff"
     bordercolor="#000000"
     borderopacity="0.25"
     inkscape:showpageshadow="2"
     inkscape:pageopacity="0.0"
     inkscape:pagecheckerboard="0"
     inkscape:deskcolor="#d1d1d1"
     inkscape:zoom="11.75"
     inkscape:cx="32"
     inkscape:cy="32"
     inkscape:window-width="1920"
     inkscape:window-height="998"
     inkscape:window-x="0"
     inkscape:window-y="0"
     inkscape:window-maximized="1"
     inkscape:current-layer="svg6" />
  <g
     id="g6"
     transform="translate(-0.49999905,-1.0418072)">
    <rect
       style="opacity:0.2;stroke-width:0.983035"
       width="35.357143"
       height="35.421234"
       x="23.642855"
       y="24.66238"
       rx="2.7195539"
       ry="2.7244833"
       id="rect1" />
    <rect
       style="fill:#3485fd;stroke-width:0.983035"
       width="35.357143"
       height="35.421234"
       x="23.642855"
       y="23.678461"
       rx="2.7195539"
       ry="2.7244833"
       id="rect2" />
    <path
       style="opacity:0.2;fill:#ffffff;stroke-width:0.983035"
       d="m 26.362927,23.678459 c -1.506756,0 -2.720074,1.215517 -2.720074,2.725004 v 0.983926 c 0,-1.509488 1.213318,-2.725006 2.720074,-2.725006 h 29.916989 c 1.506761,0 2.720074,1.215518 2.720074,2.725006 v -0.983926 c 0,-1.509487 -1.213313,-2.725004 -2.720074,-2.725004 z"
       id="path2" />
    <rect
       style="opacity:0.2;stroke-width:0.983035"
       width="35.357143"
       height="35.421234"
       x="13.821426"
       y="14.823151"
       rx="2.7195539"
       ry="2.7244833"
       id="rect3" />
    <rect
       style="fill:#20c997;stroke-width:0.983035"
       width="35.357143"
       height="35.421234"
       x="13.821426"
       y="13.83923"
       rx="2.7195539"
       ry="2.7244833"
       id="rect4" />
    <rect
       style="opacity:0.2;stroke-width:0.983035"
       width="35.357143"
       height="35.421234"
       x="4"
       y="4.9839244"
       rx="2.7195539"
       ry="2.7244833"
       id="rect5" />
    <path
       style="opacity:0.2;fill:#ffffff;stroke-width:0.983035"
       d="m 16.5415,13.839229 c -1.506755,0 -2.720074,1.215518 -2.720074,2.725005 v 0.983925 c 0,-1.509492 1.213319,-2.725004 2.720074,-2.725004 h 29.916988 c 1.506762,0 2.720075,1.215512 2.720075,2.725004 v -0.983925 c 0,-1.509487 -1.213313,-2.725005 -2.720075,-2.725005 z"
       id="path5" />
    <rect
       style="fill:#ffd556;stroke-width:0.983035"
       width="35.357143"
       height="35.421234"
       x="4"
       y="4"
       rx="2.7195539"
       ry="2.7244833"
       id="rect6" />
    <path
       style="opacity:0.2;fill:#ffffff;stroke-width:0.983035"
       d="M 6.720075,4 C 5.2133171,4 4,5.2155164 4,6.7250056 v 0.983923 C 4,6.1994393 5.2133171,4.9839229 6.720075,4.9839229 h 29.916988 c 1.506756,0 2.720073,1.2155164 2.720073,2.7250057 V 6.7250056 C 39.357136,5.2155165 38.143819,4 36.637063,4 Z"
       id="path6" />
  </g>
</svg>
