<?xml version="1.0" encoding="UTF-8" standalone="no"?>
<svg
   width="62"
   height="62"
   version="1.1"
   id="svg3"
   sodipodi:docname="colorgrab.svg"
   inkscape:version="1.4 (e7c3feb100, 2024-10-09)"
   xmlns:inkscape="http://www.inkscape.org/namespaces/inkscape"
   xmlns:sodipodi="http://sodipodi.sourceforge.net/DTD/sodipodi-0.dtd"
   xmlns="http://www.w3.org/2000/svg"
   xmlns:svg="http://www.w3.org/2000/svg">
  <defs
     id="defs3">
    <linearGradient
       id="a"
       x2="1"
       gradientTransform="matrix(-28.036158,-33.614998,33.614998,-28.036158,375.9446,-236.60772)"
       gradientUnits="userSpaceOnUse">
      <stop
         stop-color="#546cb9"
         offset="0"
         id="stop1-3"
         style="stop-color:#3f559b;stop-opacity:1;" />
      <stop
         stop-color="#83b7fa"
         offset="1"
         id="stop2-6"
         style="stop-color:#3c8ef7;stop-opacity:1;" />
    </linearGradient>
    <linearGradient
       id="b"
       x2="1"
       gradientTransform="matrix(-3.7706027,36.876992,-36.876992,-3.7706027,-462.50922,-36.468629)"
       gradientUnits="userSpaceOnUse">
      <stop
         stop-color="#8eafe1"
         offset="0"
         id="stop3-7"
         style="stop-color:#9db9e5;stop-opacity:1;" />
      <stop
         stop-color="#bbd4ff"
         offset="1"
         id="stop4-5"
         style="stop-color:#ebf2ff;stop-opacity:1;" />
    </linearGradient>
    <linearGradient
       id="c"
       x2="1"
       gradientTransform="matrix(31.682283,-10.681953,10.681953,31.682283,22.520655,57.431108)"
       gradientUnits="userSpaceOnUse">
      <stop
         stop-color="#2a52a9"
         offset="0"
         id="stop5-3" />
      <stop
         stop-color="#4270d5"
         offset="1"
         id="stop6-5" />
    </linearGradient>
    <linearGradient
       id="d"
       x2="1"
       gradientTransform="matrix(0,-24.493243,24.493243,0,697.92642,39.81797)"
       gradientUnits="userSpaceOnUse">
      <stop
         stop-color="#f2f6f7"
         offset="0"
         id="stop7-6" />
      <stop
         stop-color="#ecf0f1"
         offset="1"
         id="stop8-2" />
    </linearGradient>
    <linearGradient
       id="e"
       x2="1"
       gradientTransform="matrix(-0.05596558,-20.039244,20.039244,-0.05596558,349.50688,37.410712)"
       gradientUnits="userSpaceOnUse">
      <stop
         stop-color="#3077ff"
         offset="0"
         id="stop9-9" />
      <stop
         stop-color="#80b3ff"
         offset="1"
         id="stop10-1" />
    </linearGradient>
    <linearGradient
       id="paint711_linear_890_11"
       x1="755"
       y1="61"
       x2="820"
       y2="124"
       gradientUnits="userSpaceOnUse">
      <stop
         offset="0.404924"
         stop-color="#EFF2F6"
         id="stop2165" />
      <stop
         offset="1"
         stop-color="#B7C6CD"
         id="stop2166" />
    </linearGradient>
    <radialGradient
       id="paint712_radial_890_11"
       cx="0"
       cy="0"
       r="1"
       gradientUnits="userSpaceOnUse"
       gradientTransform="matrix(22.216699,21.999996,-21.99894,22.215633,782.867,89)">
      <stop
         offset="0.420978"
         stop-color="#F15700"
         id="stop2167" />
      <stop
         offset="0.792773"
         stop-color="#FF0000"
         id="stop2168" />
    </radialGradient>
    <radialGradient
       id="paint713_radial_890_11"
       cx="0"
       cy="0"
       r="1"
       gradientUnits="userSpaceOnUse"
       gradientTransform="matrix(-16.688097,16.851418,-13.741875,-13.608691,802.791,68.8957)">
      <stop
         stop-color="#FFE607"
         id="stop2169" />
      <stop
         offset="0.903378"
         stop-color="#FF7E07"
         id="stop2170" />
    </radialGradient>
    <radialGradient
       id="paint714_radial_890_11"
       cx="0"
       cy="0"
       r="1"
       gradientUnits="userSpaceOnUse"
       gradientTransform="matrix(-22.961171,-7.4640815,7.4454397,-22.903825,783.961,88.8155)">
      <stop
         offset="0.440692"
         stop-color="#001AFF"
         id="stop2171" />
      <stop
         offset="1"
         stop-color="#0085FF"
         id="stop2172" />
    </radialGradient>
  </defs>
  <sodipodi:namedview
     id="namedview3"
     pagecolor="#ffffff"
     bordercolor="#000000"
     borderopacity="0.25"
     inkscape:showpageshadow="2"
     inkscape:pageopacity="0.0"
     inkscape:pagecheckerboard="0"
     inkscape:deskcolor="#d1d1d1"
     inkscape:zoom="5.890625"
     inkscape:cx="28.944297"
     inkscape:cy="63.660477"
     inkscape:window-width="1920"
     inkscape:window-height="994"
     inkscape:window-x="0"
     inkscape:window-y="0"
     inkscape:window-maximized="1"
     inkscape:current-layer="svg3" />
  <g
     id="g2272"
     transform="translate(-752,-58)">
    <path
       d="m 811,89 c 0,15.464 -12.536,28 -28,28 -15.464,0 -28,-12.536 -28,-28 0,-15.464 12.536,-28 28,-28 15.464,0 28,12.536 28,28 z"
       id="path691"
       style="fill:url(#paint711_linear_890_11)" />
    <path
       d="m 803.064,89 c 1.116,0 2.03,0.8973 1.928,1.9973 -0.335,3.6463 -1.586,7.1634 -3.652,10.2257 -2.441,3.617 -5.911,6.437 -9.971,8.102 -4.059,1.665 -8.526,2.101 -12.836,1.252 -3.647,-0.718 -7.043,-2.329 -9.884,-4.673 -0.857,-0.707 -0.852,-1.981 -0.063,-2.762 l 4.213,-4.1718 c 0.789,-0.781 2.06,-0.7649 2.968,-0.123 1.403,0.9926 3.01,1.6838 4.717,2.0198 2.37,0.467 4.827,0.228 7.059,-0.688 2.233,-0.9159 4.142,-2.4668 5.484,-4.4566 0.967,-1.4327 1.609,-3.0467 1.893,-4.7315 C 795.104,89.9014 795.991,89 797.106,89 Z"
       id="path692"
       style="fill:url(#paint712_radial_890_11)" />
    <path
       d="m 787.575,69.5407 c 0.283,-1.1277 1.422,-1.8195 2.509,-1.4326 3.125,1.113 5.983,2.8996 8.37,5.245 2.387,2.3454 4.234,5.1814 5.421,8.3059 0.413,1.0861 -0.241,2.2548 -1.349,2.5712 l -5.922,1.6903 c -1.108,0.3165 -2.246,-0.3454 -2.738,-1.3975 -0.642,-1.3752 -1.525,-2.6285 -2.613,-3.6968 -1.087,-1.0682 -2.352,-1.9257 -3.731,-2.5365 -1.055,-0.4674 -1.741,-1.5975 -1.458,-2.7253 z"
       id="path693"
       style="fill:url(#paint713_radial_890_11)" />
    <path
       d="m 765.653,98.7357 c -0.956,0.5479 -2.186,0.2225 -2.646,-0.7764 -1.325,-2.8734 -2.013,-6.0065 -2.007,-9.1846 0.007,-3.8433 1.029,-7.6171 2.963,-10.942 1.934,-3.3249 4.711,-6.0837 8.054,-7.9992 2.764,-1.5839 5.833,-2.545 8.993,-2.8262 1.098,-0.0978 1.992,0.8044 1.99,1.9037 l -0.011,5.8718 c -0.002,1.0993 -0.904,1.9721 -1.992,2.1509 -1.422,0.2338 -2.796,0.7203 -4.054,1.4417 -1.839,1.0535 -3.366,2.5709 -4.43,4.3996 -1.064,1.8287 -1.626,3.9042 -1.63,6.0181 -0.002,1.4475 0.257,2.878 0.76,4.2245 0.384,1.0302 0.072,2.2438 -0.884,2.7916 z"
       id="path694"
       style="fill:url(#paint714_radial_890_11)" />
  </g>
</svg>
