<?xml version="1.0" encoding="UTF-8" standalone="no"?>
<svg
   width="62"
   height="62"
   version="1.1"
   id="svg13"
   sodipodi:docname="com.github.alexhuntley.Plots.svg"
   inkscape:version="1.4 (unknown)"
   xmlns:inkscape="http://www.inkscape.org/namespaces/inkscape"
   xmlns:sodipodi="http://sodipodi.sourceforge.net/DTD/sodipodi-0.dtd"
   xmlns:xlink="http://www.w3.org/1999/xlink"
   xmlns="http://www.w3.org/2000/svg"
   xmlns:svg="http://www.w3.org/2000/svg">
  <defs
     id="defs13">
    <linearGradient
       inkscape:collect="always"
       xlink:href="#linearGradient18-3"
       id="linearGradient20"
       x1="63.824364"
       y1="58.552788"
       x2="72.811554"
       y2="63.414581"
       gradientUnits="userSpaceOnUse" />
    <linearGradient
       id="linearGradient18-3"
       inkscape:collect="always">
      <stop
         style="stop-color:#8d5fd3;stop-opacity:1"
         offset="0"
         id="stop18-6" />
      <stop
         style="stop-color:#c6afe9;stop-opacity:1"
         offset="1"
         id="stop19" />
    </linearGradient>
    <linearGradient
       inkscape:collect="always"
       xlink:href="#linearGradient3"
       id="linearGradient16"
       x1="64.213181"
       y1="88"
       x2="70.213181"
       y2="88"
       gradientUnits="userSpaceOnUse" />
    <linearGradient
       id="linearGradient3"
       inkscape:collect="always">
      <stop
         style="stop-color:#7137c8;stop-opacity:1"
         offset="0"
         id="stop13-1" />
      <stop
         style="stop-color:#566c80;stop-opacity:1;"
         offset="1"
         id="stop14-0" />
    </linearGradient>
  </defs>
  <sodipodi:namedview
     id="namedview13"
     pagecolor="#ffffff"
     bordercolor="#000000"
     borderopacity="0.25"
     inkscape:showpageshadow="2"
     inkscape:pageopacity="0.0"
     inkscape:pagecheckerboard="0"
     inkscape:deskcolor="#d1d1d1"
     inkscape:zoom="12.109375"
     inkscape:cx="32"
     inkscape:cy="32"
     inkscape:window-width="1920"
     inkscape:window-height="998"
     inkscape:window-x="0"
     inkscape:window-y="0"
     inkscape:window-maximized="1"
     inkscape:current-layer="svg13" />
  <g
     id="g13"
     transform="matrix(1.0713935,0,0,1.0713935,-0.21418019,-2.213198)">
    <rect
       style="opacity:0.2;stroke-width:0.933364"
       width="52.268375"
       height="39.201283"
       x="3"
       y="11.86604"
       rx="3.7334554"
       ry="3.7334554"
       id="rect1" />
    <rect
       style="fill:#e4e4e4;stroke-width:0.933364"
       width="52.268375"
       height="39.201283"
       x="3"
       y="10.932676"
       rx="3.7334554"
       ry="3.7334554"
       id="rect2" />
    <path
       style="fill:#8d5fd3;stroke-width:0.933364"
       d="M 6.7334556,10.932677 V 35.200138 H 3.0000001 v 1.866728 H 6.7334556 V 50.13396 H 8.6001834 V 37.066866 H 55.268377 V 35.200138 H 8.6001834 V 10.932677 Z"
       id="path2" />
    <path
       style="opacity:0.1;stroke-width:0.933364"
       d="m 3.0000001,16.990209 v 5.1055 c 0.3173437,1.325377 0.6533547,2.828093 0.9706984,4.461479 0.7466911,3.882794 1.5027159,8.362941 2.2680743,12.059062 0.7560247,3.705454 1.5120494,5.82419 2.3147424,7.737586 0.4013465,0.952031 0.7933593,1.680055 1.3627113,2.202739 0.2893425,0.261342 0.6533545,0.476016 1.0827025,0.522684 0.43868,0.04667 0.877361,-0.10267 1.213372,-0.336011 0.606687,-0.438681 0.9987,-1.064035 1.40938,-1.829393 0.401346,-0.756025 0.793359,-1.652054 1.176038,-2.613419 0.765359,-1.913396 1.521384,-3.341443 2.249407,-4.984163 v 0 c 0.737358,-1.661388 1.474715,-3.397445 2.137404,-4.200138 0.326677,-0.401346 0.634687,-0.662688 0.849361,-0.774692 0.214674,-0.112004 0.298676,-0.121337 0.438681,-0.07467 0.336011,0.09334 1.073368,0.71869 1.792058,1.605386 0.728024,0.886696 1.484049,2.146737 2.305409,3.014765 0.774692,0.812027 1.568052,1.558718 2.43608,2.109403 0.858695,0.550684 1.829393,0.914696 2.865427,0.802693 1.997399,-0.214674 3.509448,-1.708056 4.825491,-2.342744 v 0 c 1.446714,-0.700023 2.818759,-0.970698 4.078801,-0.914696 1.297375,0.056 2.762757,0.588019 4.358809,0.942697 0.504016,0.112004 0.998699,-0.20534 1.110703,-0.700023 0.112004,-0.504016 -0.20534,-0.998699 -0.700023,-1.110703 -1.418713,-0.317344 -2.968097,-0.92403 -4.685487,-0.989366 -1.74539,-0.06533 -3.388111,0.345345 -4.956162,1.10137 -1.698722,0.82136 -3.201438,2.062734 -4.218805,2.174738 -0.476015,0.056 -1.008033,-0.112004 -1.661387,-0.522684 -0.644021,-0.41068 -1.362712,-1.064035 -2.090735,-1.829393 -0.681356,-0.709357 -1.428047,-1.941397 -2.212073,-2.902762 -0.784026,-0.961365 -1.558718,-1.885395 -2.725422,-2.221406 -0.616021,-0.177339 -1.288043,-0.056 -1.829394,0.233341 -0.541351,0.289343 -0.989365,0.71869 -1.409379,1.250708 -0.849361,1.054701 -1.61472,2.884094 -2.389412,4.620151 v 0 c -0.774692,1.754724 -1.530716,3.192104 -2.277407,5.049498 -0.373346,0.924031 -0.737358,1.773392 -1.082703,2.426746 -0.336011,0.625354 -0.662688,1.017367 -0.812026,1.138704 v 0 C 10.970928,47.025858 10.616249,46.484507 10.261571,45.64448 9.5615482,43.973758 8.7961898,41.892357 8.0494987,38.252238 7.3028076,34.593451 6.5467828,30.122638 5.7907581,26.211844 5.0347334,22.291715 4.372045,19.052943 3.4293475,17.363554 3.3360111,17.195549 3.1773392,17.064878 3.0000001,16.990209 Z"
       id="path3" />
    <path
       style="fill:#233143;fill-opacity:1;stroke-width:0.933364"
       d="m 3.0000001,16.056845 v 5.1055 c 0.3173437,1.325377 0.6533547,2.828093 0.9706984,4.461479 0.7466911,3.882794 1.5027159,8.362941 2.2680743,12.059062 0.7560247,3.705454 1.5120494,5.82419 2.3147424,7.737586 0.4013465,0.952032 0.7933593,1.680055 1.3627113,2.202739 0.2893425,0.261342 0.6533545,0.476016 1.0827025,0.522684 0.43868,0.04667 0.877361,-0.10267 1.213372,-0.336011 0.606687,-0.438681 0.9987,-1.064035 1.40938,-1.829393 0.401346,-0.756025 0.793359,-1.652054 1.176038,-2.613419 0.765359,-1.913396 1.521384,-3.341443 2.249407,-4.984163 v 0 c 0.737358,-1.661388 1.474715,-3.397445 2.137404,-4.200138 0.326677,-0.401346 0.634687,-0.662688 0.849361,-0.774692 0.214674,-0.112003 0.298676,-0.121337 0.438681,-0.07467 0.336011,0.09334 1.073368,0.71869 1.792058,1.605386 0.728024,0.886696 1.484049,2.146737 2.305409,3.014765 0.774692,0.812027 1.568052,1.558718 2.43608,2.109403 0.858695,0.550684 1.829393,0.914696 2.865427,0.802693 1.997399,-0.214674 3.509448,-1.708056 4.825491,-2.342744 v 0 c 1.446714,-0.700023 2.818759,-0.970698 4.078801,-0.914696 1.297375,0.056 2.762757,0.588019 4.358809,0.942697 0.504016,0.112004 0.998699,-0.20534 1.110703,-0.700023 0.112004,-0.504016 -0.20534,-0.998699 -0.700023,-1.110703 -1.418713,-0.317343 -2.968097,-0.92403 -4.685487,-0.989365 -1.74539,-0.06534 -3.388111,0.345344 -4.956162,1.101369 -1.698722,0.82136 -3.201438,2.062734 -4.218805,2.174738 -0.476015,0.056 -1.008033,-0.112004 -1.661387,-0.522684 -0.644021,-0.41068 -1.362712,-1.064035 -2.090735,-1.829393 -0.681356,-0.709357 -1.428047,-1.941397 -2.212073,-2.902762 -0.784026,-0.961365 -1.558718,-1.885395 -2.725422,-2.221406 -0.616021,-0.177339 -1.288043,-0.056 -1.829394,0.233341 -0.541351,0.289343 -0.989365,0.71869 -1.409379,1.250708 -0.849361,1.054701 -1.61472,2.884094 -2.389412,4.620151 v 0 c -0.774692,1.754724 -1.530716,3.192104 -2.277407,5.049498 -0.373346,0.924031 -0.737358,1.773392 -1.082703,2.426747 -0.336011,0.625353 -0.662688,1.017366 -0.812026,1.138704 v 0 C 10.970928,46.092494 10.616249,45.551143 10.261571,44.711116 9.5615482,43.040394 8.7961898,40.958993 8.0494987,37.318874 7.3028076,33.669421 6.5467828,29.189274 5.7907581,25.27848 5.0347334,21.358352 4.372045,18.119579 3.4293475,16.43019 3.3360111,16.262185 3.1773392,16.131514 3.0000001,16.056845 Z"
       id="path4" />
    <path
       style="opacity:0.2;fill:#ffffff;stroke-width:0.933364"
       d="m 6.7334556,10.932677 c -2.0683343,0 -3.7334555,1.665121 -3.7334555,3.733456 v 0.933363 c 0,-2.068334 1.6651212,-3.733455 3.7334555,-3.733455 H 51.534922 c 2.068334,0 3.733455,1.665121 3.733455,3.733455 v -0.933363 c 0,-2.068335 -1.665121,-3.733456 -3.733455,-3.733456 z"
       id="path5" />
  </g>
  <g
     id="g2"
     transform="matrix(0.33781899,0.32270694,-0.32270694,0.33781899,52.945817,-24.567706)">
    <path
       d="m 64.213181,60 c 0,-1.657 1.343,-3 3,-3 1.657,0 3,1.343 3,3 v 5 h -6 z"
       id="path250"
       style="fill:url(#linearGradient20)" />
    <path
       d="m 64.213181,63 v 43.056 c 0,0.621 0.145,1.233 0.422,1.789 l 2.578,5.155 2.578,-5.155 c 0.277,-0.556 0.422,-1.168 0.422,-1.789 V 63 Z"
       id="path254"
       style="fill:url(#linearGradient16)" />
  </g>
</svg>
