<?xml version="1.0" encoding="UTF-8" standalone="no"?>
<svg
   width="62"
   height="62"
   version="1"
   id="svg7"
   sodipodi:docname="com.github.bartzaalberg.lottery.svg"
   inkscape:version="1.4 (e7c3feb100, 2024-10-09)"
   xmlns:inkscape="http://www.inkscape.org/namespaces/inkscape"
   xmlns:sodipodi="http://sodipodi.sourceforge.net/DTD/sodipodi-0.dtd"
   xmlns:xlink="http://www.w3.org/1999/xlink"
   xmlns="http://www.w3.org/2000/svg"
   xmlns:svg="http://www.w3.org/2000/svg">
  <defs
     id="defs7">
    <linearGradient
       id="linearGradient7"
       inkscape:collect="always">
      <stop
         style="stop-color:#92235a;stop-opacity:1"
         offset="0"
         id="stop8" />
      <stop
         style="stop-color:#92235a;stop-opacity:1"
         offset="0.58519185"
         id="stop10" />
      <stop
         style="stop-color:#eff2f6;stop-opacity:1;"
         offset="0.86599815"
         id="stop11" />
      <stop
         style="stop-color:#eff2f6;stop-opacity:1;"
         offset="1"
         id="stop9" />
    </linearGradient>
    <linearGradient
       id="linearGradient1"
       inkscape:collect="always">
      <stop
         style="stop-color:#96242f;stop-opacity:1"
         offset="0"
         id="stop5" />
      <stop
         style="stop-color:#b92d3a;stop-opacity:1"
         offset="0.25046653"
         id="stop7" />
      <stop
         style="stop-color:#b92d3a;stop-opacity:1"
         offset="0.77708155"
         id="stop12" />
      <stop
         style="stop-color:#96242f;stop-opacity:1"
         offset="1"
         id="stop6" />
    </linearGradient>
    <linearGradient
       id="c-3"
       gradientUnits="userSpaceOnUse"
       x1="24.072048"
       x2="23.959682"
       y1="0.75082099"
       y2="46.056854">
      <stop
         offset="0"
         stop-color="#fff"
         id="stop3" />
      <stop
         offset="1"
         stop-color="#d9d9d9"
         id="stop4" />
    </linearGradient>
    <linearGradient
       id="b-6"
       gradientUnits="userSpaceOnUse"
       x1="29.203026"
       x2="34.121048"
       xlink:href="#a-7"
       y1="24.827356"
       y2="29.224836" />
    <linearGradient
       id="a-7">
      <stop
         offset="0"
         id="stop1" />
      <stop
         offset="1"
         stop-opacity="0"
         id="stop2" />
    </linearGradient>
    <linearGradient
       id="d"
       gradientUnits="userSpaceOnUse"
       x1="15.948756"
       x2="25.031786"
       xlink:href="#a-7"
       y1="23.618279"
       y2="33.69899" />
    <linearGradient
       id="e"
       gradientUnits="userSpaceOnUse"
       x1="21.990562"
       x2="29.320522"
       xlink:href="#a-7"
       y1="33.780373"
       y2="41.931858" />
    <linearGradient
       id="paint154_linear_890_11"
       x1="778"
       y1="812.29199"
       x2="788"
       y2="812.29199"
       gradientUnits="userSpaceOnUse"
       gradientTransform="translate(-751,-696)">
      <stop
         stop-color="#EFF2F6"
         id="stop1050" />
      <stop
         offset="0.600785"
         stop-color="#B7C6CD"
         id="stop1051" />
    </linearGradient>
    <linearGradient
       id="paint155_linear_890_11"
       x1="783"
       y1="813"
       x2="783"
       y2="817"
       gradientUnits="userSpaceOnUse"
       gradientTransform="translate(-751,-696)">
      <stop
         stop-color="#EFF2F6"
         id="stop1052" />
      <stop
         offset="0.734138"
         stop-color="#B7C6CD"
         id="stop1053" />
    </linearGradient>
    <radialGradient
       id="paint156_radial_890_11"
       cx="0"
       cy="0"
       r="1"
       gradientUnits="userSpaceOnUse"
       gradientTransform="matrix(27.999986,27.999976,-27.999986,27.999976,32.302392,33.999998)">
      <stop
         offset="0.60067803"
         stop-color="#B7C6CD"
         id="stop1054"
         style="stop-color:#424b58;stop-opacity:1;" />
      <stop
         offset="0.876735"
         stop-color="#EFF2F6"
         id="stop1055" />
    </radialGradient>
    <linearGradient
       id="paint157_linear_890_11"
       x1="796.84485"
       y1="799.43359"
       x2="768.90088"
       y2="770.81476"
       gradientUnits="userSpaceOnUse"
       gradientTransform="matrix(1.1666666,0,0,1.1666668,-881.19764,-881.8333)">
      <stop
         offset="0.00000057"
         stop-color="#2E2E41"
         id="stop1056"
         style="stop-color:#424b58;stop-opacity:1;" />
      <stop
         offset="0.71113902"
         stop-color="#566C80"
         id="stop1057"
         style="stop-color:#303c47;stop-opacity:1;" />
    </linearGradient>
    <linearGradient
       id="paint158_linear_890_11"
       x1="792"
       y1="794"
       x2="774"
       y2="776"
       gradientUnits="userSpaceOnUse"
       gradientTransform="translate(-751,-696)">
      <stop
         offset="0.304478"
         stop-color="#2E2E41"
         id="stop1058" />
      <stop
         offset="1"
         stop-color="#566C80"
         id="stop1059" />
    </linearGradient>
    <linearGradient
       id="paint159_linear_890_11"
       x1="788"
       y1="790"
       x2="778"
       y2="780"
       gradientUnits="userSpaceOnUse"
       gradientTransform="translate(-751,-696)">
      <stop
         offset="0.391394"
         stop-color="#5200FF"
         id="stop1060" />
      <stop
         offset="1"
         stop-color="#0085FF"
         id="stop1061" />
    </linearGradient>
    <linearGradient
       id="paint160_linear_890_11"
       x1="784"
       y1="798"
       x2="782"
       y2="796"
       gradientUnits="userSpaceOnUse"
       gradientTransform="translate(-751,-696)">
      <stop
         stop-color="#FF7E07"
         id="stop1062" />
      <stop
         offset="1"
         stop-color="#FFE607"
         id="stop1063" />
    </linearGradient>
    <linearGradient
       id="c-3-6"
       gradientUnits="userSpaceOnUse"
       x1="24.072048"
       x2="23.959682"
       y1="0.75082099"
       y2="46.056854"
       gradientTransform="matrix(0.91471346,0,0,0.90068147,9.0468769,9.3836444)">
      <stop
         offset="0"
         stop-color="#fff"
         id="stop3-2" />
      <stop
         offset="1"
         stop-color="#d9d9d9"
         id="stop4-9" />
    </linearGradient>
    <linearGradient
       id="b-6-1"
       gradientUnits="userSpaceOnUse"
       x1="29.203026"
       x2="34.121048"
       xlink:href="#a-7"
       y1="24.827356"
       y2="29.224836"
       gradientTransform="matrix(1.1104534,0,0,1.0934187,4.3491158,4.7861435)" />
    <linearGradient
       id="d-0"
       gradientUnits="userSpaceOnUse"
       x1="15.948756"
       x2="25.031786"
       xlink:href="#a-7"
       y1="23.618279"
       y2="33.69899"
       gradientTransform="matrix(1.1104534,0,0,1.0934187,4.3491158,4.7861435)" />
    <linearGradient
       id="e-9"
       gradientUnits="userSpaceOnUse"
       x1="21.990562"
       x2="29.320522"
       xlink:href="#a-7"
       y1="33.780373"
       y2="41.931858"
       gradientTransform="matrix(1.1104534,0,0,1.0934187,4.3491158,4.7861435)" />
    <linearGradient
       inkscape:collect="always"
       xlink:href="#linearGradient1"
       id="linearGradient6"
       x1="15.60323"
       y1="17.703012"
       x2="48.302387"
       y2="50"
       gradientUnits="userSpaceOnUse"
       gradientTransform="translate(-1.3023872,-3)" />
    <radialGradient
       inkscape:collect="always"
       xlink:href="#linearGradient7"
       id="radialGradient9"
       cx="32.302387"
       cy="34"
       fx="32.302387"
       fy="34"
       r="28"
       gradientUnits="userSpaceOnUse"
       gradientTransform="matrix(0.99999999,1,-1,0.99999999,32.697613,-35.302387)" />
    <radialGradient
       id="radialGradient867"
       cx="6.6805"
       cy="8.2870998"
       r="3.7376001"
       gradientTransform="matrix(4.8485492,0,0,4.8159411,-9.9298686,-9.7737847)"
       gradientUnits="userSpaceOnUse">
      <stop
         stop-color="#c8d7ea"
         stop-opacity=".99608"
         offset="0"
         id="stop1-5" />
      <stop
         stop-color="#91acd0"
         stop-opacity=".99608"
         offset="1"
         id="stop2-4" />
    </radialGradient>
    <linearGradient
       id="linearGradient8945"
       x1="3.8726001"
       x2="4.7592001"
       y1="-3.2832"
       y2="-2.3964"
       gradientTransform="matrix(1.3622,-0.36501,0.36501,1.3622,2.977,21.076)"
       gradientUnits="userSpaceOnUse">
      <stop
         stop-color="#bdc2cf"
         offset="0"
         id="stop3-7" />
      <stop
         stop-color="#eaf0f5"
         offset="1"
         id="stop4-4" />
    </linearGradient>
    <linearGradient
       id="linearGradient26151"
       x1="4.9973001"
       x2="6.1075001"
       y1="-4.6547999"
       y2="-3.5313001"
       gradientTransform="matrix(1.3622,-0.36501,0.36501,1.3622,2.977,21.076)"
       gradientUnits="userSpaceOnUse">
      <stop
         stop-color="#7dbc53"
         offset="0"
         id="stop5-4" />
      <stop
         stop-color="#93d159"
         offset=".11589"
         id="stop6-3" />
      <stop
         stop-color="#699d51"
         offset="1"
         id="stop7-0" />
    </linearGradient>
  </defs>
  <sodipodi:namedview
     id="namedview7"
     pagecolor="#ffffff"
     bordercolor="#000000"
     borderopacity="0.25"
     inkscape:showpageshadow="2"
     inkscape:pageopacity="0.0"
     inkscape:pagecheckerboard="0"
     inkscape:deskcolor="#d1d1d1"
     inkscape:zoom="8.3306018"
     inkscape:cx="52.697273"
     inkscape:cy="30.489994"
     inkscape:window-width="1920"
     inkscape:window-height="998"
     inkscape:window-x="0"
     inkscape:window-y="0"
     inkscape:window-maximized="1"
     inkscape:current-layer="svg7" />
  <path
     d="M 59,31 C 59,46.46415 46.464172,59 30.999998,59 15.535835,59 3.0000001,46.46415 3.0000001,31 3.0000001,15.535835 15.535835,3 30.999998,3 46.464172,3 59,15.535835 59,31 Z"
     id="path154"
     style="fill:url(#radialGradient9)" />
  <path
     d="m 54.333333,31 c 0,12.88701 -10.446332,23.33332 -23.333335,23.33332 C 18.112999,54.33332 7.6666671,43.88701 7.6666671,31 7.6666671,18.113006 18.112999,7.666668 30.999998,7.666668 43.887001,7.666668 54.333333,18.113006 54.333333,31 Z"
     id="path155"
     style="fill:url(#linearGradient6)" />
  <g
     id="g1"
     transform="translate(-0.63299595,0.49988433)">
    <path
       style="opacity:0.2"
       d="m 31.632996,15.499884 a 3,3 0 0 0 -3,3 3,3 0 0 0 1.173828,2.376953 c -1.538279,2.603459 -3.076957,5.20433 -4.615234,7.677735 -0.794092,1.209622 -1.984644,1.976562 -3.175782,1.976562 -4.161207,-0.02918 -4.10252,-2.27205 -5.847656,-4.75 a 2,2 0 0 0 0.464844,-1.28125 2,2 0 0 0 -2,-2 2,2 0 0 0 -2,2 2,2 0 0 0 1.859375,1.992188 l 0.111328,0.314453 c 0.79409,3.09125 1.455911,6.450854 2.25,9.945312 0.132349,0.537606 0.5292,0.941406 1.058594,0.941406 4.499843,0.537608 9.133433,0.806641 13.765625,0.806641 4.632192,0 9.26383,-0.269033 13.763672,-0.806641 0.397046,0 0.793441,-0.4038 0.925781,-0.941406 0.79409,-3.494458 1.45591,-6.854062 2.25,-9.945312 l 0.107422,-0.310547 a 2,2 0 0 0 1.908203,-1.996094 2,2 0 0 0 -2,-2 2,2 0 0 0 -2,2 2,2 0 0 0 0.605469,1.431641 c -1.987582,2.213341 -2.819644,4.454764 -6.164063,4.599609 -1.323482,0 -2.383644,-0.766941 -3.177734,-1.976562 -1.520849,-2.445378 -3.039698,-5.01599 -4.560547,-7.589844 a 3,3 0 0 0 1.296875,-2.464844 3,3 0 0 0 -3,-3 z M 18.461121,40.50379 c -0.438495,0.01763 -0.828125,0.42962 -0.828125,0.839844 v 2.460938 c 0,0.58603 0.381214,1.171858 1.017578,1.289062 8.52727,1.875308 17.437572,1.875308 25.964844,0 0.509092,-0.1172 1.017578,-0.703033 1.017578,-1.289062 v -2.460938 c 0,-0.586036 -0.381212,-0.939474 -1.017578,-0.822266 -4.243924,0.583324 -8.582941,1.175039 -12.921875,1.177735 -4.379244,0.0028 -8.759621,-0.588991 -13.042969,-1.177735 -0.06364,-0.01465 -0.126811,-0.0201 -0.189453,-0.01758 z"
       id="path2" />
    <path
       style="fill:#ffd556"
       d="m 49.077583,24.465531 -0.459766,1.34159 c -0.79409,3.09125 -1.455993,6.451308 -2.250083,9.945766 -0.13234,0.537606 -0.529392,0.940815 -0.926438,0.940815 -4.499842,0.537607 -9.132034,0.806413 -13.764226,0.806413 v 0 c -4.632192,0 -9.264386,-0.268806 -13.764229,-0.806414 -0.529394,0 -0.926439,-0.403208 -1.058788,-0.940814 -0.794089,-3.494458 -1.456029,-6.854516 -2.250119,-9.945766 l -0.459765,-1.290506 c -0.926439,-0.1344 -0.311054,-0.583218 -0.311054,-1.524034 0,-1.20962 -0.59913,-0.32685 0.592005,-0.595652 1.191136,-0.268806 1.245638,-0.14394 1.245638,1.200068 0,0.806414 0.753512,0.253084 0.224119,0.790692 2.060747,2.630752 1.738119,5.112426 6.120761,5.143164 1.191138,0 2.38227,-0.766882 3.176362,-1.976504 1.588178,-2.55364 3.17636,-5.241684 4.76454,-7.92973 -0.397046,-0.537606 -0.661742,-1.209618 -0.661742,-1.88163 0,-1.478425 0.977524,-1.800747 2.301008,-1.800747 1.191134,0 2.198836,0.322322 2.198836,1.800747 0,0.672012 -0.264696,1.344024 -0.661742,1.88163 v 0 c 1.58818,2.688046 3.176362,5.37609 4.764542,7.92973 0.79409,1.209622 1.852876,1.976504 3.176358,1.976504 3.715116,-0.1609 4.316379,-2.90848 6.861905,-5.331332 -0.529392,-0.537612 -0.0747,-0.08854 -0.0747,-0.894956 0,-1.344022 -0.555026,-1.212052 0.636106,-0.94325 1.191138,0.268808 1.095876,0.405642 1.095876,1.615262 -0.13234,0.672012 0.411048,0.22015 -0.515404,0.488954 z"
       id="path3" />
    <path
       style="fill:#ffd556"
       d="m 45.632996,40.343021 c 0,-0.586036 -0.381816,-0.937656 -1.018182,-0.820448 -4.243924,0.583324 -8.582422,1.174846 -12.921356,1.177542 -4.379244,0.0028 -8.758932,-0.588798 -13.04228,-1.177542 -0.509092,-0.1172 -1.018182,0.35162 -1.018182,0.820448 v 2.461342 c 0,0.58603 0.381818,1.172068 1.018182,1.289272 8.52727,1.875308 17.436364,1.875308 25.963636,0 0.509092,-0.1172 1.018182,-0.703242 1.018182,-1.289272 z"
       id="path4" />
    <circle
       style="fill:#ffe15b"
       cx="14.632997"
       cy="23.500116"
       r="2"
       id="circle4" />
    <circle
       style="fill:#ffe15b"
       cx="48.632996"
       cy="23.500116"
       r="2"
       id="circle5" />
    <circle
       style="fill:#ffe15b"
       cx="31.632996"
       cy="17.500116"
       r="3"
       id="circle6" />
  </g>
</svg>
