<?xml version="1.0" encoding="UTF-8" standalone="no"?>
<svg
   width="62"
   height="62"
   version="1"
   id="svg8"
   sodipodi:docname="mednaffe.svg"
   inkscape:version="1.4 (unknown)"
   xmlns:inkscape="http://www.inkscape.org/namespaces/inkscape"
   xmlns:sodipodi="http://sodipodi.sourceforge.net/DTD/sodipodi-0.dtd"
   xmlns:xlink="http://www.w3.org/1999/xlink"
   xmlns="http://www.w3.org/2000/svg"
   xmlns:svg="http://www.w3.org/2000/svg">
  <defs
     id="defs8">
    <linearGradient
       id="linearGradient1"
       inkscape:collect="always">
      <stop
         style="stop-color:#bc5fd3;stop-opacity:1"
         offset="0"
         id="stop1" />
      <stop
         style="stop-color:#2a7fff;stop-opacity:1"
         offset="1"
         id="stop2" />
    </linearGradient>
    <linearGradient
       id="paint1_linear_357_175"
       x1="11.9494"
       y1="40.796299"
       x2="18.703199"
       y2="12.3657"
       gradientUnits="userSpaceOnUse">
      <stop
         stop-color="#FE3661"
         id="stop6" />
      <stop
         offset="0.330956"
         stop-color="#C723C7"
         id="stop7" />
      <stop
         offset="0.549719"
         stop-color="#AA35D6"
         id="stop8" />
      <stop
         offset="1"
         stop-color="#1EA3FD"
         id="stop9" />
    </linearGradient>
    <linearGradient
       inkscape:collect="always"
       xlink:href="#linearGradient1"
       id="linearGradient2"
       x1="17.788658"
       y1="34.376099"
       x2="38.564705"
       y2="10.530347"
       gradientUnits="userSpaceOnUse" />
  </defs>
  <sodipodi:namedview
     id="namedview8"
     pagecolor="#ffffff"
     bordercolor="#000000"
     borderopacity="0.25"
     inkscape:showpageshadow="2"
     inkscape:pageopacity="0.0"
     inkscape:pagecheckerboard="0"
     inkscape:deskcolor="#d1d1d1"
     inkscape:zoom="12.109375"
     inkscape:cx="32"
     inkscape:cy="32"
     inkscape:window-width="1920"
     inkscape:window-height="998"
     inkscape:window-x="0"
     inkscape:window-y="0"
     inkscape:window-maximized="1"
     inkscape:current-layer="svg8" />
  <path
     style="opacity:0.2;stroke-width:0.982314"
     d="M 3.5498919,30.508758 C 3.5383026,30.836898 3.5,31.159144 3.5,31.491214 3.5000004,46.731082 15.76465,59 30.999215,59 46.233779,59 58.49843,46.731082 58.49843,31.491214 c 0,-0.331756 -0.03834,-0.653609 -0.04987,-0.982456 C 57.93,45.286871 45.901058,57.035087 30.998448,57.035087 16.095445,57.035087 4.0668957,45.286871 3.5483391,30.508758 Z"
     id="path1" />
  <path
     style="fill:#233143;fill-opacity:1;stroke-width:0.982314"
     d="m 30.999215,3.0000001 c -15.234565,0 -27.4992146,12.2689179 -27.4992146,27.5087849 0,15.239868 12.2646496,27.508786 27.4992146,27.508786 15.234564,0 27.499215,-12.268918 27.499215,-27.508786 0,-15.239867 -12.264651,-27.5087849 -27.499215,-27.5087849 z"
     id="path2" />
  <path
     style="opacity:0.1;fill:#ffffff;stroke-width:0.982314"
     d="m 31,3.0002921 c -15.234564,0 -27.499999,12.2677849 -27.499999,27.5076519 0,0.111564 0.011083,0.220112 0.017264,0.330054 C 3.862521,15.902931 15.98418,3.9808578 31,3.9808578 c 15.015821,0 27.13748,11.9220732 27.482736,26.8571402 C 58.488895,30.728135 58.5,30.619402 58.5,30.507944 58.5,15.268077 46.234565,3.0002921 31,3.0002921 Z"
     id="path3" />
  <g
     id="svg9"
     transform="matrix(1.3571429,0,0,1.349261,-1.5722144,-1.8735459)">
    <path
       d="m 33.5845,14.1164 -9.2785,9.2797 c -0.1645,0.1645 -0.4176,0.1645 -0.5821,0 L 14.4304,14.1164 C 14.1164,13.8035 13.6987,13.624 13.2512,13.624 h -2.416 C 10.3728,13.624 10,13.9979 10,14.4604 v 19.0793 c 0,0.4625 0.3728,0.8364 0.8352,0.8364 h 3.5205 c 0.4624,0 0.8352,-0.3739 0.8352,-0.8364 V 22.6943 c 0,-0.0898 0.1047,-0.1335 0.1795,-0.0748 l 7.4584,7.4596 c 0.642,0.6408 1.7004,0.6408 2.3424,0 l 7.4584,-7.4596 c 0.0599,-0.0598 0.1795,-0.015 0.1795,0.0748 v 10.8454 c 0,0.4625 0.3728,0.8364 0.8352,0.8364 h 3.5205 C 37.6273,34.3761 38,34.0022 38,33.5397 V 14.4604 C 38,13.9979 37.6273,13.624 37.1648,13.624 h -2.416 c -0.4326,0.0161 -0.8502,0.1795 -1.1643,0.4924 z"
       id="path2-3"
       style="fill:url(#linearGradient2)" />
  </g>
</svg>
