<?xml version="1.0" encoding="UTF-8" standalone="no"?>
<svg
   width="62"
   height="62"
   version="1.1"
   id="svg5"
   sodipodi:docname="com.github.artemanufrij.showmypictures.svg"
   inkscape:version="1.4 (e7c3feb100, 2024-10-09)"
   xmlns:inkscape="http://www.inkscape.org/namespaces/inkscape"
   xmlns:sodipodi="http://sodipodi.sourceforge.net/DTD/sodipodi-0.dtd"
   xmlns:xlink="http://www.w3.org/1999/xlink"
   xmlns="http://www.w3.org/2000/svg"
   xmlns:svg="http://www.w3.org/2000/svg">
  <defs
     id="defs5">
    <linearGradient
       id="linearGradient1"
       inkscape:collect="always">
      <stop
         style="stop-color:#8660cb;stop-opacity:1"
         offset="0"
         id="stop1" />
      <stop
         style="stop-color:#fea75f;stop-opacity:1"
         offset="1"
         id="stop2" />
    </linearGradient>
    <linearGradient
       id="paint0_linear_306_220"
       x1="11.3695"
       y1="30.0002"
       x2="11.3695"
       y2="13.667"
       gradientUnits="userSpaceOnUse"
       gradientTransform="matrix(1.800406,0,0,1.8044913,8.1542794,-0.17368661)">
      <stop
         stop-color="#FD5900"
         id="stop3" />
      <stop
         offset="1"
         stop-color="#FFDE00"
         id="stop4" />
    </linearGradient>
    <linearGradient
       id="paint1_linear_306_220"
       x1="18.584999"
       y1="22.969601"
       x2="18.584999"
       y2="2"
       gradientUnits="userSpaceOnUse"
       gradientTransform="matrix(1.800406,0,0,1.8044913,8.1542794,-0.17368661)">
      <stop
         stop-color="#FD5900"
         id="stop5" />
      <stop
         offset="1"
         stop-color="#FFDE00"
         id="stop6" />
    </linearGradient>
    <linearGradient
       inkscape:collect="always"
       xlink:href="#linearGradient1"
       id="linearGradient2"
       x1="28.624041"
       y1="53.961437"
       x2="28.624228"
       y2="24.488066"
       gradientUnits="userSpaceOnUse" />
    <linearGradient
       inkscape:collect="always"
       xlink:href="#linearGradient1"
       id="linearGradient8"
       x1="21.483416"
       y1="26.630182"
       x2="53.802307"
       y2="26.630182"
       gradientUnits="userSpaceOnUse" />
  </defs>
  <sodipodi:namedview
     id="namedview5"
     pagecolor="#ffffff"
     bordercolor="#000000"
     borderopacity="0.25"
     inkscape:showpageshadow="2"
     inkscape:pageopacity="0.0"
     inkscape:pagecheckerboard="0"
     inkscape:deskcolor="#d1d1d1"
     inkscape:zoom="8.2643105"
     inkscape:cx="22.627417"
     inkscape:cy="41.382763"
     inkscape:window-width="1920"
     inkscape:window-height="998"
     inkscape:window-x="0"
     inkscape:window-y="0"
     inkscape:window-maximized="1"
     inkscape:current-layer="svg5" />
  <rect
     style="opacity:0.2;stroke-width:0.9823"
     width="55"
     height="55.017544"
     x="3.5"
     y="3.9824562"
     rx="8.25"
     ry="8.2526312"
     id="rect1" />
  <rect
     style="fill:#212e3f;stroke-width:0.9823"
     width="55"
     height="55.017544"
     x="3.5"
     y="3"
     rx="8.25"
     ry="8.2526312"
     id="rect2" />
  <path
     style="opacity:0.1;fill:#ffffff;stroke-width:0.9823"
     d="M 11.748466,3 C 7.1779651,3 3.4999999,6.6791384 3.4999999,11.251097 v 0.982456 c 0,-4.5719585 3.6779652,-8.2510968 8.2484661,-8.2510968 h 38.503068 c 4.5705,0 8.248466,3.6791383 8.248466,8.2510968 V 11.251097 C 58.5,6.6791384 54.822034,3 50.251534,3 Z"
     id="path4" />
  <g
     id="g1"
     transform="translate(-1.8023055,-2.961437)">
    <path
       d="m 36.12664,42.544748 c -0.390683,0.391579 -0.85447,0.70214 -1.364884,0.913978 -0.510594,0.211859 -1.057917,0.321034 -1.610463,0.321034 -0.552719,0 -1.100049,-0.109085 -1.610467,-0.321034 -0.510592,-0.211838 -0.974375,-0.522399 -1.364883,-0.913978 v 0 c -0.563525,-0.56877 -1.470207,-0.602686 -2.074424,-0.07773 l -9.525518,8.276289 c -0.910598,0.791271 -0.79353,2.242246 0.344798,2.638696 1.086524,0.378599 2.233468,0.576189 3.395025,0.579434 h 12.616432 c 2.787389,-0.0035 5.459732,-1.113366 7.430633,-3.086578 1.970904,-1.973391 3.079772,-4.648722 3.083013,-7.439558 v -8.420836 0 c -0.01448,-0.715852 -0.858969,-0.990502 -1.362907,-0.482898 z m 7.466828,-13.475752 c 0,0.0012 -7.19e-4,0.003 -0.0014,0.0038 l -9.43214,9.504254 c -0.551306,0.555431 -1.448086,0.554897 -1.99864,-8.92e-4 v 0 c -0.744176,-0.751543 -1.744303,-1.193823 -2.800238,-1.238213 -1.05594,-0.04454 -2.089542,0.311997 -2.894158,0.998239 l -11.271856,9.775683 c -0.806983,0.699962 -2.055383,0.547842 -2.489965,-0.428932 -0.591906,-1.330236 -0.902424,-2.776894 -0.902767,-4.247926 v -8.420812 c 0.0032,-2.790637 1.112118,-5.466158 3.083082,-7.439371 1.97098,-1.973393 4.643241,-3.083514 7.430623,-3.08676 h 12.616437 c 1.706414,0.0022 3.386743,0.420262 4.895669,1.218029 1.508539,0.797403 2.800527,1.950296 3.764456,3.359423 7.25e-4,9.01e-4 9.98e-4,0.0021 9.98e-4,0.0031 z m -21.332324,4.050729 c 0,-0.416302 -0.12331,-0.823399 -0.354369,-1.169669 -0.231046,-0.346114 -0.559462,-0.616068 -0.943691,-0.775399 -0.384222,-0.15933 -0.807014,-0.201009 -1.214894,-0.119648 -0.407898,0.08111 -0.782569,0.281681 -1.076646,0.575995 -0.294072,0.29449 -0.494329,0.669645 -0.575475,1.078002 -0.08106,0.40836 -0.03952,0.831689 0.119675,1.216411 0.159145,0.384528 0.42866,0.713503 0.774457,0.94466 0.345794,0.231327 0.752334,0.354935 1.168225,0.354935 0.557671,0 1.092519,-0.221952 1.486861,-0.616606 0.394325,-0.394824 0.61587,-0.930395 0.61587,-1.488688 z"
       id="path1"
       style="fill:url(#linearGradient2)" />
    <path
       d="M 53.802307,32.908594 V 24.487569 C 53.799114,21.696933 52.6902,19.021407 50.719113,17.048188 48.748209,15.074866 46.075865,13.964782 43.288477,13.961437 H 30.672139 c -2.055888,0.003 -4.065683,0.6088 -5.78161,1.742379 -1.367377,0.903324 -2.500384,2.110352 -3.314858,3.520416 -0.282276,0.488665 0.122152,1.052919 0.68549,1.052919 h 12.616358 c 3.902377,0.0045 7.643266,1.559261 10.402566,4.32177 2.759305,2.762489 4.31161,6.507884 4.316657,10.4148 v 2.664678 c 0,1.484739 1.635845,2.235042 2.456292,0.998969 0.231711,-0.349168 0.442896,-0.712766 0.632122,-1.089181 0.729884,-1.451905 1.112292,-3.054098 1.117151,-4.679593 z"
       id="path2-6"
       style="fill:url(#linearGradient8)" />
  </g>
</svg>
