<?xml version="1.0" encoding="UTF-8" standalone="no"?>
<svg
   width="62"
   height="62"
   viewBox="0 0 62 62"
   fill="none"
   version="1.1"
   id="svg7"
   sodipodi:docname="com.apps.e-tools.svg"
   inkscape:version="1.4 (unknown)"
   xmlns:inkscape="http://www.inkscape.org/namespaces/inkscape"
   xmlns:sodipodi="http://sodipodi.sourceforge.net/DTD/sodipodi-0.dtd"
   xmlns="http://www.w3.org/2000/svg"
   xmlns:svg="http://www.w3.org/2000/svg">
  <sodipodi:namedview
     id="namedview7"
     pagecolor="#ffffff"
     bordercolor="#000000"
     borderopacity="0.25"
     inkscape:showpageshadow="2"
     inkscape:pageopacity="0.0"
     inkscape:pagecheckerboard="0"
     inkscape:deskcolor="#d1d1d1"
     inkscape:zoom="11.416828"
     inkscape:cx="32.627275"
     inkscape:cy="30.262345"
     inkscape:window-width="1920"
     inkscape:window-height="998"
     inkscape:window-x="0"
     inkscape:window-y="0"
     inkscape:window-maximized="1"
     inkscape:current-layer="svg7" />
  <g
     filter="url(#filter0_d_54_351)"
     id="g2"
     transform="matrix(0.65882326,0,0,0.65932645,-0.95293956,-1.717328)">
    <path
       fill-rule="evenodd"
       clip-rule="evenodd"
       d="M 42.9271,7.95342 C 44.2586,7.10701 46,8.06352 46,9.64127 V 44.6736 c 0,1.5082 -1.6059,2.4737 -2.9379,1.7664 L 13.0344,30.4959 c -1.3542,-0.719 -1.429,-2.6317 -0.135,-3.4543 z M 50,9.64127 C 50,8.06352 51.7414,7.10701 53.0729,7.95343 L 83.1006,27.0416 c 1.294,0.8226 1.2192,2.7353 -0.135,3.4543 L 52.9379,46.44 C 51.6058,47.1473 50,46.1818 50,44.6736 Z"
       fill="url(#paint0_linear_54_351)"
       id="path1"
       style="fill:url(#paint0_linear_54_351)" />
    <path
       opacity="0.4"
       fill-rule="evenodd"
       clip-rule="evenodd"
       d="m 10,35.3481 c 0,-1.5133 1.6156,-2.4784 2.948,-1.7611 l 32,17.2267 C 45.5959,51.1625 46,51.8389 46,52.5747 v 32.9832 c 0,1.5347 -1.6571,2.4976 -2.9904,1.7376 l -32,-18.24 C 10.3854,68.6997 10,68.0364 10,67.3179 Z M 84.072,33.5336 C 85.4037,32.8361 87,33.802 87,35.3053 v 31.9969 c 0,0.7269 -0.3943,1.3965 -1.03,1.749 l -33,18.3017 C 51.637,88.0921 50,87.1281 50,85.6038 V 52.5902 c 0,-0.744 0.413,-1.4265 1.072,-1.7717 z"
       fill="url(#paint1_linear_54_351)"
       id="path2"
       style="fill:url(#paint1_linear_54_351)" />
  </g>
  <defs
     id="defs7">
    <filter
       id="filter0_d_54_351"
       x="6"
       y="5.6380601"
       width="85"
       height="87.968597"
       filterUnits="userSpaceOnUse"
       color-interpolation-filters="sRGB">
      <feFlood
         flood-opacity="0"
         result="BackgroundImageFix"
         id="feFlood2" />
      <feColorMatrix
         in="SourceAlpha"
         type="matrix"
         values="0 0 0 0 0 0 0 0 0 0 0 0 0 0 0 0 0 0 127 0"
         result="hardAlpha"
         id="feColorMatrix2" />
      <feOffset
         dy="2"
         id="feOffset2" />
      <feGaussianBlur
         stdDeviation="2"
         id="feGaussianBlur2" />
      <feColorMatrix
         type="matrix"
         values="0 0 0 0 0 0 0 0 0 0 0 0 0 0 0 0 0 0 0.2 0"
         id="feColorMatrix3" />
      <feBlend
         mode="normal"
         in2="BackgroundImageFix"
         result="effect1_dropShadow_54_351"
         id="feBlend3" />
      <feBlend
         mode="normal"
         in="SourceGraphic"
         in2="effect1_dropShadow_54_351"
         result="shape"
         id="feBlend4" />
    </filter>
    <linearGradient
       id="paint0_linear_54_351"
       x1="3810"
       y1="58.416"
       x2="3810"
       y2="4206"
       gradientUnits="userSpaceOnUse">
      <stop
         stop-color="#36BCFC"
         id="stop4" />
      <stop
         offset="1"
         stop-color="#007AE3"
         id="stop5" />
    </linearGradient>
    <linearGradient
       id="paint1_linear_54_351"
       x1="3860"
       y1="32"
       x2="3860"
       y2="5732"
       gradientUnits="userSpaceOnUse">
      <stop
         stop-color="#40DBFF"
         id="stop6" />
      <stop
         offset="1"
         stop-color="#00ACF8"
         id="stop7" />
    </linearGradient>
  </defs>
</svg>
