<?xml version="1.0" encoding="UTF-8" standalone="no"?>
<svg
   xml:space="preserve"
   width="62"
   height="62"
   viewBox="0 0 16.404207 16.404207"
   version="1.1"
   id="svg50"
   sodipodi:docname="com.yktoo.ymuse.svg"
   inkscape:version="1.4 (unknown)"
   xmlns:inkscape="http://www.inkscape.org/namespaces/inkscape"
   xmlns:sodipodi="http://sodipodi.sourceforge.net/DTD/sodipodi-0.dtd"
   xmlns:xlink="http://www.w3.org/1999/xlink"
   xmlns="http://www.w3.org/2000/svg"
   xmlns:svg="http://www.w3.org/2000/svg"><sodipodi:namedview
     id="namedview50"
     pagecolor="#ffffff"
     bordercolor="#000000"
     borderopacity="0.25"
     inkscape:showpageshadow="2"
     inkscape:pageopacity="0.0"
     inkscape:pagecheckerboard="0"
     inkscape:deskcolor="#d1d1d1"
     inkscape:zoom="7.0710678"
     inkscape:cx="58.194888"
     inkscape:cy="47.446865"
     inkscape:window-width="1920"
     inkscape:window-height="998"
     inkscape:window-x="0"
     inkscape:window-y="0"
     inkscape:window-maximized="1"
     inkscape:current-layer="svg50" /><defs
     id="defs20"><linearGradient
       id="k"><stop
         offset="0"
         style="stop-color:#acdfff;stop-opacity:.77334082"
         id="stop1" /><stop
         offset=".189"
         style="stop-color:#fff;stop-opacity:0"
         id="stop2" /><stop
         offset=".497"
         style="stop-color:#fff;stop-opacity:0"
         id="stop3" /><stop
         offset=".619"
         style="stop-color:#67b8ff;stop-opacity:.4989751"
         id="stop4" /><stop
         offset=".735"
         style="stop-color:#fff;stop-opacity:0"
         id="stop5" /><stop
         offset=".863"
         style="stop-color:#dadada;stop-opacity:.03438272"
         id="stop6" /><stop
         offset=".935"
         style="stop-color:#78b8ff;stop-opacity:.78521425"
         id="stop7" /><stop
         offset=".98"
         style="stop-color:#efefef;stop-opacity:0"
         id="stop8" /></linearGradient><linearGradient
       id="j"><stop
         offset="0"
         style="stop-color:#55affc;stop-opacity:1"
         id="stop9" /><stop
         offset="1"
         style="stop-color:#0c62ff;stop-opacity:1"
         id="stop10" /></linearGradient><linearGradient
       id="d"><stop
         offset="0"
         style="stop-color:#6b2416;stop-opacity:1"
         id="stop11" /><stop
         offset="1"
         style="stop-color:#200d00;stop-opacity:1"
         id="stop12" /></linearGradient><linearGradient
       id="c"><stop
         offset="0"
         style="stop-color:#ffe864;stop-opacity:1"
         id="stop13" /><stop
         offset="1"
         style="stop-color:#e79c4e;stop-opacity:1"
         id="stop14" /></linearGradient><linearGradient
       id="b"><stop
         offset=".484"
         style="stop-color:#fff;stop-opacity:1"
         id="stop15" /><stop
         offset="1"
         style="stop-color:#000;stop-opacity:1"
         id="stop16" /></linearGradient><linearGradient
       xlink:href="#d"
       id="r"
       x1="87.703003"
       x2="84.555"
       y1="19.113001"
       y2="53.547001"
       gradientTransform="matrix(0.9511,0,0,0.9511,-2.661,-0.82)"
       gradientUnits="userSpaceOnUse" /><linearGradient
       xlink:href="#d"
       id="q"
       x1="53.423"
       x2="41.026001"
       y1="31.334"
       y2="68.517998"
       gradientTransform="matrix(0.9511,0,0,0.9511,-2.661,-0.82)"
       gradientUnits="userSpaceOnUse" /><linearGradient
       xlink:href="#d"
       id="o"
       x1="52.671001"
       x2="38.353001"
       y1="43.271"
       y2="88.778"
       gradientTransform="matrix(0.9511,0,0,0.9511,-2.661,-0.82)"
       gradientUnits="userSpaceOnUse" /><linearGradient
       xlink:href="#d"
       id="p"
       x1="52.726002"
       x2="41.546001"
       y1="41.716"
       y2="75.196999"
       gradientTransform="matrix(0.9511,0,0,0.9511,-2.661,-0.82)"
       gradientUnits="userSpaceOnUse" /><linearGradient
       xlink:href="#d"
       id="n"
       x1="98.258003"
       x2="101.909"
       y1="22.924999"
       y2="54.124001"
       gradientTransform="matrix(0.9511,0,0,0.9511,-2.661,-0.82)"
       gradientUnits="userSpaceOnUse" /><linearGradient
       id="g"
       x1="56"
       x2="0"
       y1="252"
       y2="244"
       gradientTransform="translate(8,-156)"
       gradientUnits="userSpaceOnUse"><stop
         offset="0"
         style="stop-color:#fff;stop-opacity:1"
         id="stop17" /><stop
         offset="1"
         style="stop-color:#fff;stop-opacity:0"
         id="stop18" /></linearGradient><linearGradient
       xlink:href="#j"
       id="m"
       x1="-111.357"
       x2="-111.357"
       y1="-69.134003"
       y2="19.318001"
       gradientUnits="userSpaceOnUse"
       gradientTransform="matrix(1.28687,0,0,1.28687,217.323,96.449)" /><linearGradient
       xlink:href="#k"
       id="l"
       x1="25.052999"
       x2="136.82899"
       y1="73.170998"
       y2="73.170998"
       gradientTransform="matrix(0.9511,0,0,0.9511,1.112,-0.82)"
       gradientUnits="userSpaceOnUse" /><radialGradient
       xlink:href="#b"
       id="a"
       cx="67.733002"
       cy="105.595"
       r="60.872002"
       fx="67.733002"
       fy="105.595"
       gradientTransform="matrix(1.7997,0,0,0.21596,-54.166,69.578)"
       gradientUnits="userSpaceOnUse" /><radialGradient
       xlink:href="#c"
       id="s"
       cx="81.904999"
       cy="64.129997"
       r="34.799"
       fx="81.904999"
       fy="64.129997"
       gradientTransform="matrix(0.9511,0,0,1.2077,-2.661,-21.383)"
       gradientUnits="userSpaceOnUse" /><radialGradient
       xlink:href="#d"
       id="t"
       cx="75.717003"
       cy="3.533"
       r="39.729"
       fx="75.717003"
       fy="3.533"
       gradientTransform="matrix(0.96755,0.00847,-0.00363,0.41434,1.28,9.86)"
       gradientUnits="userSpaceOnUse" /><clipPath
       id="f"><path
         d="M 0,0 H 192 V 152 H 0 Z"
         id="path18" /></clipPath><clipPath
       id="i"><path
         d="M 0,0 H 192 V 152 H 0 Z"
         id="path19" /></clipPath><filter
       id="e"
       width="1"
       height="1"
       x="0"
       y="0"
       filterUnits="objectBoundingBox"><feColorMatrix
         in="SourceGraphic"
         values="0 0 0 0 1 0 0 0 0 1 0 0 0 0 1 0 0 0 1 0"
         id="feColorMatrix19" /></filter><filter
       id="h"
       width="1"
       height="1"
       x="0"
       y="0"
       filterUnits="objectBoundingBox"><feColorMatrix
         in="SourceGraphic"
         values="0 0 0 0 1 0 0 0 0 1 0 0 0 0 1 0 0 0 1 0"
         id="feColorMatrix20" /></filter></defs><g
     id="g50"
     transform="matrix(0.11682146,0,0,0.11752867,0.40999114,0.38506553)"><path
       d="m 99.438,121.278 c 11.83,16.948 18.387,-27.133 8.085,-39.521"
       style="fill:none;fill-opacity:1;stroke:#000000;stroke-width:2.01315;stroke-dasharray:none;stroke-dashoffset:18.5507;stroke-opacity:1"
       id="path20" /><path
       d="m 129.276,72.19 -98.418,56.822 c -2.63,1.518 -5.918,-0.38 -5.918,-3.417 V 11.952 c 0,-3.037 3.288,-4.935 5.918,-3.417 L 131.243,63.84 c 0,0 -0.024,3.546 0.005,4.845 a 3.911,3.911 0 0 1 -1.972,3.505 z"
       style="fill:#024ec1;fill-opacity:1;stroke:none;stroke-width:5.78588;stroke-linecap:round;stroke-linejoin:round;stroke-dashoffset:18.5507;paint-order:markers stroke fill"
       id="path21" /><path
       d="m 129.276,72.19 -98.418,56.822 c -2.63,1.518 -5.918,-0.38 -5.918,-3.417 V 11.952 c 0,-3.037 3.288,-4.935 5.918,-3.417 L 131.243,63.84 c 0,0 -0.024,3.546 0.005,4.845 a 3.911,3.911 0 0 1 -1.972,3.505 z"
       style="fill:url(#l);fill-opacity:1;stroke:none;stroke-width:5.78588;stroke-linecap:round;stroke-linejoin:round;stroke-dashoffset:18.5507;paint-order:markers stroke fill"
       id="path22" /><path
       d="M 129.27403,67.660589 30.857101,124.48185 a 3.9458072,3.9458072 0 0 1 -5.918027,-3.41687 V 7.42245 A 3.9458072,3.9458072 0 0 1 30.857101,4.005575 L 129.2754,60.826839 a 3.9458072,3.9458072 0 0 1 0,6.83375 z"
       style="fill:#0364f7;fill-opacity:1;stroke:none;stroke-width:5.7859;stroke-linecap:round;stroke-linejoin:round;stroke-dashoffset:18.5507;paint-order:markers stroke fill"
       id="path23" /><path
       d="M 125.20885,67.460966 32.54391,120.9613 a 3.7151937,3.7151937 0 0 1 -5.572147,-3.21718 V 10.743458 A 3.7151937,3.7151937 0 0 1 32.54391,7.526283 l 92.66622,53.500333 a 3.7151937,3.7151937 0 0 1 0,6.43435 z"
       style="fill:url(#m);fill-opacity:1;stroke:none;stroke-width:5.44775;stroke-linecap:round;stroke-linejoin:round;stroke-dashoffset:18.5507;paint-order:markers stroke fill"
       id="path24" /><path
       d="m 89.683,33.934 9.175,-4.825 c 0,0 3.938,14.553 -6.645,24.535 -10.583,9.983 -2.53,-19.71 -2.53,-19.71 z"
       style="fill:url(#n);fill-opacity:1;stroke:none;stroke-width:2.01315;stroke-dasharray:none;stroke-dashoffset:18.5507;stroke-opacity:1"
       id="path25" /><path
       d="M 58.86,44.541 C 6.58,49.818 1.486,66.358 25.856,104.123 26.004,95.015 26.07,93.703 26.07,93.703 38.29,83.482 41.85,76.46 41.85,76.46 c 5.212,-11.32 4.298,-24.203 4.298,-24.203 0,0 13.395,-2.33 12.714,-7.716 z"
       style="fill:url(#o);fill-opacity:1;stroke:none;stroke-width:2.01315;stroke-dasharray:none;stroke-dashoffset:18.5507;stroke-opacity:1"
       id="path26" /><path
       d="m 43.06,51.192 c 0,0 -27.309,7.116 -1.434,25.71 8.805,-17.02 1.434,-25.71 1.434,-25.71 z"
       style="fill:url(#p);fill-opacity:1;stroke:none;stroke-width:2.01315;stroke-dasharray:none;stroke-dashoffset:18.5507;stroke-opacity:1"
       id="path27" /><path
       d="M 11.985,74.876 C -21.945,40.44 49.498,32.893 67.941,35.526 66.348,53.077 7.143,37.101 11.985,74.876 Z"
       style="fill:url(#q);fill-opacity:1;stroke:none;stroke-width:2.01315;stroke-dasharray:none;stroke-dashoffset:18.5507;stroke-opacity:1"
       id="path28" /><path
       d="M 5.556,49.21 C -0.74,6.578 92.38,37.204 102.061,21.733 102.872,44.72 35.575,25.499 5.556,49.21 Z"
       style="fill:url(#r);fill-opacity:1;stroke:none;stroke-width:2.01315;stroke-dasharray:none;stroke-dashoffset:18.5507;stroke-opacity:1"
       id="path29" /><path
       d="m 98.9,29.043 c -0.111,0.021 -0.2,0.361 -0.194,1.818 0.008,1.556 0.05,4.318 -0.283,7.483 a 31.985,31.985 0 0 1 -2.443,9.343 c -0.323,0.75 -0.666,1.505 -1.087,2.288 -0.923,1.715 -1.897,2.92 -2.61,3.629 0.83,-0.516 2.203,-1.39 3.588,-2.936 a 13.662,13.662 0 0 0 1.62,-2.214 c 0.296,-0.506 0.568,-1.045 0.816,-1.615 1.174,-2.697 1.638,-5.657 1.805,-8.355 0.206,-3.322 -0.186,-6.182 -0.522,-7.722 -0.318,-1.458 -0.61,-1.734 -0.69,-1.719 z"
       style="fill:#210707;fill-opacity:1;fill-rule:nonzero;stroke:none;stroke-width:1.69493;stroke-linejoin:bevel;stroke-dasharray:none;stroke-dashoffset:18.5507;stroke-opacity:1"
       id="path30" /><path
       d="m 75.609,96.579 c 0,0 -8.804,-10.152 -5.736,-18.604 2.735,1.089 11.279,1.904 12.972,0.765 1.936,-1.302 3.576,-2.866 3.576,-2.866 l -0.064,-2.938 c 0,0 -0.091,-1.328 1.045,-2.346 1.453,-1.3 1.38,-3.586 1.38,-3.586 0,0 1.548,-0.176 1.548,-1.424 0,-1.247 -0.575,-2.384 -0.501,-3.207 l 3.684,-2.68 C 93.729,57.18 92.118,53.743 92.118,53.743 92.465,53.53 90.281,49.5 90.1,45.609 89.942,42.198 91.972,39.328 89.877,33.373 74.908,37.892 74.611,34.896 68.353,35.59 c -1.07,4.37 -8.995,8.413 -8.995,8.413 -0.924,4.147 -3.055,6.665 -16.639,7.899 0,0 -0.237,5.472 2.895,7.39 2.915,17.844 -17.855,33.284 -18.971,34.364 -0.43,5.28 -2.258,22.863 1.726,29.081 15.682,-4.276 32.898,-17.541 47.24,-26.158 z"
       style="fill:url(#s);fill-opacity:1;stroke:none;stroke-width:1.69493;stroke-linejoin:bevel;stroke-dasharray:none;stroke-dashoffset:18.5507;stroke-opacity:1"
       id="path31" /><path
       d="m 70.245,77.402 c -0.116,-0.024 -0.559,0.286 -0.887,1.762 -0.262,1.18 -0.45,3.09 -0.261,5.477 0.13,1.631 0.393,4.08 1.422,6.574 1.175,2.847 3.043,4.788 4.171,5.25 0.542,0.223 0.914,-0.036 1.08,-0.05 -0.033,-0.176 0.12,-0.57 -0.14,-1.04 -0.454,-0.824 -2.166,-2.646 -3.235,-4.975 a 19.35,19.35 0 0 1 -1.61,-5.912 c -0.206,-2.012 -0.157,-4.256 -0.175,-5.195 -0.027,-1.44 -0.212,-1.859 -0.365,-1.89 z"
       style="fill:#e48d17;fill-opacity:1;fill-rule:nonzero;stroke:none;stroke-width:1.69493;stroke-linejoin:bevel;stroke-dasharray:none;stroke-dashoffset:18.5507;stroke-opacity:1"
       id="path32" /><path
       d="m 68.072,35.948 c -0.05,-0.006 -0.197,-0.075 -0.296,-0.034 -0.232,0.097 -0.444,0.765 -0.912,1.618 -0.23,0.418 -0.525,0.88 -0.934,1.362 -0.625,0.735 -1.508,1.505 -2.837,2.265 -1.118,0.638 -2.491,1.235 -4.193,1.8 -1.564,0.52 -3.321,0.985 -5.29,1.43 -3.83,0.865 -8.197,1.591 -12.508,2.42 -5.056,0.97 -9.14,1.92 -12.882,3.17 -1.856,0.62 -3.866,1.393 -5.813,2.384 -1.74,0.886 -3.45,1.957 -4.993,3.278 -1.468,1.257 -2.772,2.73 -3.815,4.475 -1.035,1.732 -1.786,3.687 -2.204,5.888 -0.432,2.273 -0.497,4.741 -0.208,7.399 0.315,2.89 1.04,5.922 2.083,9.033 3.705,11.037 11.5,22.64 12.688,23.474 0.263,0.184 0.282,-0.178 0.338,-0.214 0.057,-0.036 0.392,0.103 0.338,-0.214 -0.24,-1.426 -7.607,-13.17 -11.11,-23.795 -0.99,-3.001 -1.677,-5.863 -1.995,-8.55 -0.292,-2.466 -0.264,-4.706 0.076,-6.737 0.328,-1.962 0.941,-3.695 1.802,-5.237 0.868,-1.556 1.98,-2.903 3.277,-4.081 1.365,-1.24 2.915,-2.275 4.544,-3.148 1.82,-0.975 3.73,-1.743 5.531,-2.349 3.6,-1.21 7.666,-2.099 12.674,-2.978 4.245,-0.746 8.732,-1.412 12.61,-2.233 2.016,-0.427 3.854,-0.891 5.51,-1.433 1.802,-0.59 3.32,-1.25 4.581,-2.005 1.514,-0.907 2.565,-1.899 3.273,-2.923 0.46,-0.667 0.749,-1.312 0.921,-1.888 0.351,-1.169 0.242,-1.985 0.04,-2.142 -0.085,-0.066 -0.249,-0.03 -0.296,-0.035 z m 2.465,4.087 c 0.093,0.158 0.51,0.443 1.446,0.222 0.173,-0.041 0.362,-0.1 0.572,-0.171 0.983,-0.335 2.322,-0.912 3.915,-1.105 a 10.44,10.44 0 0 1 2.427,0.003 c 0.862,0.098 1.689,0.292 2.505,0.558 0.35,0.114 0.692,0.239 1.03,0.372 a 15.69,15.69 0 0 1 1.634,0.737 c 1.287,0.681 2.29,1.519 2.89,2.154 -0.399,-0.736 -1.052,-1.965 -2.162,-3.108 a 8.202,8.202 0 0 0 -1.598,-1.295 7.744,7.744 0 0 0 -1.167,-0.58 c -0.958,-0.381 -1.967,-0.575 -2.978,-0.637 -0.987,-0.06 -1.924,0.01 -2.784,0.114 -1.768,0.214 -3.358,0.603 -4.4,1.091 -0.223,0.104 -0.416,0.21 -0.579,0.32 -0.895,0.606 -0.83,1.193 -0.751,1.325 z"
       style="fill:#210707;fill-opacity:1;fill-rule:nonzero;stroke:none;stroke-width:1.69493;stroke-linejoin:bevel;stroke-dasharray:none;stroke-dashoffset:18.5507;stroke-opacity:1"
       id="path33" /><path
       d="m 42.547,52.061 c -0.132,-0.005 -0.596,0.014 -0.773,0.342 -0.131,0.244 -0.166,0.777 -0.07,1.599 0.066,0.547 0.188,1.187 0.375,1.838 0.205,0.71 0.462,1.349 0.764,1.924 0.334,0.635 0.754,1.238 1.327,1.704 a 3.645,3.645 0 0 0 2.222,0.833 c 0.357,0.01 0.717,-0.029 1.075,-0.114 0.535,-0.129 1.099,-0.38 1.684,-0.735 1.266,-0.77 2.4,-1.89 3.108,-2.56 -0.876,0.522 -2.239,1.164 -3.564,1.448 a 7.31,7.31 0 0 1 -1.47,0.17 5.049,5.049 0 0 1 -0.712,-0.037 3.221,3.221 0 0 1 -0.682,-0.158 2.495,2.495 0 0 1 -0.563,-0.285 c -0.348,-0.236 -0.67,-0.586 -0.929,-1.063 -0.23,-0.424 -0.408,-0.957 -0.538,-1.564 a 14.682,14.682 0 0 1 -0.235,-1.606 c -0.075,-0.744 -0.105,-1.178 -0.25,-1.407 -0.179,-0.28 -0.635,-0.324 -0.769,-0.329 z"
       style="fill:#e48d17;fill-opacity:1;fill-rule:nonzero;stroke:none;stroke-width:1.69493;stroke-linejoin:bevel;stroke-dasharray:none;stroke-dashoffset:18.5507;stroke-opacity:1"
       id="path34" /><path
       d="m 59.295,43.92 c -0.059,0.02 -0.228,-0.026 -0.354,0.12 -0.265,0.304 -0.601,1.544 -1.263,2.669 -0.375,0.639 -0.835,1.213 -1.441,1.689 -0.505,0.395 -1.104,0.719 -1.843,0.97 -0.681,0.232 -1.453,0.393 -2.342,0.504 -1.757,0.22 -3.705,0.219 -5.831,0.32 -2.419,0.115 -4.499,0.352 -6.515,0.952 -0.692,0.205 -1.573,0.546 -2.564,1.06 -0.886,0.46 -1.87,1.063 -2.842,1.818 a 15.6,15.6 0 0 0 -2.63,2.566 c -0.786,0.986 -1.443,2.099 -1.864,3.327 a 9.083,9.083 0 0 0 -0.44,4.034 c 0.18,1.529 0.737,3.023 1.613,4.458 1.044,1.713 2.489,3.258 4.075,4.605 3.025,2.568 6.348,4.262 7.11,4.391 0.385,0.065 0.194,-0.331 0.233,-0.397 0.04,-0.068 0.475,-0.095 0.233,-0.398 -0.476,-0.596 -3.558,-2.546 -6.265,-5.07 -1.432,-1.337 -2.67,-2.75 -3.549,-4.236 -0.73,-1.233 -1.164,-2.436 -1.313,-3.612 a 7.256,7.256 0 0 1 0.282,-3.122 c 0.307,-0.977 0.808,-1.904 1.452,-2.77 a 13.77,13.77 0 0 1 2.229,-2.324 16.568,16.568 0 0 1 2.506,-1.723 c 0.884,-0.494 1.65,-0.81 2.221,-0.983 1.808,-0.548 3.748,-0.75 6.098,-0.826 1.996,-0.064 4.128,-0.033 5.982,-0.252 0.975,-0.116 1.884,-0.3 2.721,-0.595 0.918,-0.324 1.706,-0.768 2.369,-1.346 a 6.499,6.499 0 0 0 1.698,-2.35 c 0.636,-1.473 0.687,-2.865 0.535,-3.253 -0.072,-0.186 -0.25,-0.19 -0.3,-0.226 z"
       style="fill:#210707;fill-opacity:1;fill-rule:nonzero;stroke:none;stroke-width:1.69493;stroke-linejoin:bevel;stroke-dasharray:none;stroke-dashoffset:18.5507;stroke-opacity:1"
       id="path35" /><path
       d="m 89.333,32.693 c -0.07,0.039 -0.212,0.192 -0.052,0.805 0.102,0.387 0.35,1.063 0.615,2.099 0.184,0.72 0.369,1.624 0.417,2.589 0.045,0.891 -0.027,1.822 -0.312,2.711 -0.767,2.475 -0.93,4.662 -0.764,6.587 0.176,2.024 0.718,3.74 1.263,5.11 l 0.032,0.079 c 0.543,1.352 1.193,2.61 1.664,3.662 0.23,0.513 0.407,0.961 0.515,1.356 0.107,0.392 0.132,0.686 0.1,0.914 a 1,1 0 0 1 -0.11,0.326 c -0.06,0.116 -0.148,0.238 -0.266,0.365 -0.245,0.263 -0.597,0.52 -1.037,0.754 a 7.913,7.913 0 0 1 -1.509,0.595 9.676,9.676 0 0 1 -1.664,0.323 c -0.586,0.06 -1.09,0.054 -1.498,0.009 a 4.265,4.265 0 0 1 -0.587,-0.104 2.85,2.85 0 0 1 -0.552,-0.2 1.97,1.97 0 0 1 -0.21,-0.12 0.953,0.953 0 0 1 -0.28,-0.278 1.312,1.312 0 0 1 -0.19,-0.559 2.281,2.281 0 0 1 0.07,-0.862 c -0.134,0.178 -0.356,0.455 -0.518,0.77 a 2.052,2.052 0 0 0 -0.236,0.795 c -0.018,0.256 0.02,0.533 0.146,0.808 0.077,0.168 0.182,0.328 0.316,0.475 0.059,0.064 0.124,0.127 0.195,0.188 0.199,0.17 0.442,0.32 0.73,0.444 0.252,0.11 0.536,0.197 0.85,0.262 0.555,0.113 1.201,0.151 1.91,0.102 a 10.098,10.098 0 0 0 2,-0.348 9.04,9.04 0 0 0 1.864,-0.741 c 0.558,-0.303 1.087,-0.683 1.496,-1.148 0.203,-0.23 0.38,-0.485 0.516,-0.766 0.135,-0.28 0.226,-0.585 0.257,-0.909 0.05,-0.532 -0.05,-1.061 -0.207,-1.564 -0.16,-0.509 -0.394,-1.037 -0.649,-1.563 -0.588,-1.218 -1.134,-2.179 -1.71,-3.561 l -0.03,-0.073 c -0.526,-1.279 -1.034,-2.842 -1.212,-4.675 -0.169,-1.738 -0.045,-3.74 0.643,-6.045 0.322,-1.102 0.365,-2.21 0.274,-3.213 a 12.319,12.319 0 0 0 -0.615,-2.825 c -0.367,-1.076 -0.762,-1.792 -0.98,-2.11 -0.382,-0.554 -0.632,-0.494 -0.685,-0.464 z"
       style="fill:#e48d17;fill-opacity:1;fill-rule:nonzero;stroke:none;stroke-width:1.69493;stroke-linejoin:bevel;stroke-dasharray:none;stroke-dashoffset:18.5507;stroke-opacity:1"
       id="path36" /><path
       d="m 72.127,47.596 c 0.246,0.4 0.648,1.13 1.355,1.72 0.325,0.272 0.68,0.482 1.04,0.613 0.237,0.086 0.488,0.145 0.748,0.178 0.605,0.079 1.213,0.017 1.805,-0.103 0.567,-0.116 1.13,-0.287 1.625,-0.414 0.508,-0.13 1.009,-0.23 1.477,-0.296 0.493,-0.07 0.88,-0.091 1.254,-0.104 l 0.449,-0.015 c 0.22,-0.009 0.454,-0.03 0.732,-0.015 0.633,0.034 1.21,0.26 1.588,0.52 -0.173,-0.362 -0.455,-1.05 -1.065,-1.603 a 2.765,2.765 0 0 0 -0.933,-0.566 2.951,2.951 0 0 0 -0.69,-0.148 c -0.557,-0.054 -1.121,0.03 -1.675,0.16 -0.54,0.128 -1.061,0.299 -1.557,0.425 -0.5,0.128 -1.004,0.221 -1.492,0.276 a 10.7,10.7 0 0 1 -1.37,0.061 c -0.18,-0.002 -0.36,-0.007 -0.533,-0.012 -0.27,-0.006 -0.553,-0.006 -0.89,-0.045 -0.755,-0.087 -1.431,-0.355 -1.868,-0.632 z"
       style="fill:#210707;fill-opacity:1;fill-rule:nonzero;stroke:none;stroke-width:1.69493;stroke-linejoin:bevel;stroke-dasharray:none;stroke-dashoffset:18.5507;stroke-opacity:1"
       id="path37" /><path
       d="m 89.97,62.239 a 3.32,3.32 0 0 0 -0.563,1.28 l -0.005,0.023 c -0.084,0.437 -0.09,0.709 -0.131,1.178 a 2.917,2.917 0 0 1 -0.06,0.426 c -0.03,0.115 -0.065,0.188 -0.103,0.222 -0.039,0.035 -0.063,0.017 -0.08,0.008 -0.02,-0.013 -0.032,-0.01 -0.099,0.023 l -0.018,0.01 c -0.142,0.076 -0.354,0.17 -0.66,0.269 a 9.864,9.864 0 0 1 -1.082,0.277 c -0.853,0.173 -1.825,0.281 -2.783,0.311 a 14.74,14.74 0 0 1 -2.842,-0.169 11.502,11.502 0 0 1 -1.228,-0.255 c -0.522,-0.146 -0.861,-0.316 -1.058,-0.46 0.105,0.207 0.298,0.582 0.763,0.988 0.318,0.278 0.729,0.538 1.226,0.743 0.781,0.322 1.831,0.57 3.103,0.662 1.045,0.075 2.138,0.037 3.117,-0.11 a 9.29,9.29 0 0 0 1.316,-0.286 4.532,4.532 0 0 0 1.064,-0.46 c 0.223,-0.143 0.421,-0.332 0.563,-0.57 0.137,-0.23 0.2,-0.47 0.211,-0.699 A 1.905,1.905 0 0 0 90.55,65.052 4.404,4.404 0 0 0 90.373,64.549 c -0.165,-0.406 -0.281,-0.663 -0.36,-1.007 a 9.09,9.09 0 0 0 -0.004,-0.02 c -0.117,-0.53 -0.11,-0.946 -0.04,-1.283 z"
       style="fill:#e48d17;fill-opacity:1;fill-rule:nonzero;stroke:none;stroke-width:1.69493;stroke-linejoin:bevel;stroke-dasharray:none;stroke-dashoffset:18.5507;stroke-opacity:1"
       id="path38" /><path
       d="m 26.577,93.31 v 25.518 L 120.963,64.334 96.537,49.647 M 38.282,15.013 26.577,8.371 v 17.753"
       style="fill:none;stroke:none;stroke-width:2.01315;stroke-linejoin:round;stroke-dasharray:none;stroke-dashoffset:18.5507;stroke-opacity:1"
       id="path39" /><path
       d="m 44.488,51.972 c 0,0 -0.472,3.953 3.203,4.175 1.914,0.115 1.44,-4.598 1.44,-4.598"
       style="fill:#000000;fill-opacity:1;stroke:none;stroke-width:2.01315;stroke-dasharray:none;stroke-dashoffset:18.5507;stroke-opacity:1"
       id="path40" /><path
       d="m 87.464,16.266 c 0,0 7.893,-4.788 11.363,-3.21 3.471,1.578 3.876,5.975 3.513,7.8 -2.127,10.712 -64.886,2.467 -75.465,4.818 29.25,-31.852 60.589,-9.408 60.589,-9.408 z"
       style="fill:url(#t);fill-opacity:1;stroke:none;stroke-width:2.01315;stroke-dasharray:none;stroke-dashoffset:18.5507;stroke-opacity:1"
       id="path41" /><path
       d="m 90.584,20.428 a 7.937,7.937 0 0 0 -0.86,-1.943 12.516,12.516 0 0 0 -1.572,-2.058 17.97,17.97 0 0 0 -2.767,-2.401 24.59,24.59 0 0 0 -2.33,-1.453 C 79.353,10.532 73.904,8.642 67.245,8.007 62.332,7.54 55.237,7.461 47.213,10.271 a 45.572,45.572 0 0 0 -13.181,7.274 c -3.577,2.83 -6,5.63 -6.557,6.703 -0.302,0.582 -0.12,0.886 -0.141,1.057 0.174,-0.037 0.482,0.117 1.038,-0.211 1.023,-0.604 3.588,-3.083 7.085,-5.697 3.656,-2.733 7.771,-5.206 12.526,-7.018 7.535,-2.87 14.352,-3.167 19.095,-2.685 6.41,0.652 11.578,2.689 15.113,4.502 0.816,0.418 1.573,0.84 2.272,1.251 a 35.94,35.94 0 0 1 2.892,1.873 c 0.758,0.552 1.38,1.069 1.886,1.55 0.71,0.674 1.125,1.214 1.343,1.558 z"
       style="fill:#210707;fill-opacity:1;fill-rule:nonzero;stroke:none;stroke-width:1.69493;stroke-linejoin:bevel;stroke-dasharray:none;stroke-dashoffset:18.5507;stroke-opacity:1"
       id="path42" /><path
       d="m 87.217,16.174 c 0.061,0.093 0.317,0.202 1.583,-0.336 l 0.583,-0.253 c 0.826,-0.362 2.56,-1.138 4.355,-1.61 a 12.957,12.957 0 0 1 2.412,-0.416 c 0.765,-0.05 1.512,-0.007 2.199,0.173 a 4.227,4.227 0 0 1 1.774,0.93 c 0.506,0.453 0.963,1.088 1.312,1.983 0.26,0.666 0.387,1.27 0.41,1.817 a 3.92,3.92 0 0 1 -0.223,1.508 4.38,4.38 0 0 1 -0.78,1.33 6.925,6.925 0 0 1 -1.335,1.2 c -0.967,0.682 -2.326,1.324 -4.156,1.858 -1.597,0.466 -3.453,0.82 -5.504,1.051 -2.908,0.368 -6.455,0.41 -10.482,0.264 -4.021,-0.146 -8.471,-0.478 -13.088,-0.832 -9.923,-0.763 -19.663,-1.536 -28.813,-1.202 -4.906,0.18 -9.33,0.672 -13.248,1.566 -4.406,1.004 -7.993,2.476 -10.843,4.404 -1.625,1.098 -2.97,2.318 -4.074,3.629 a 17.787,17.787 0 0 0 -2.858,4.72 c -0.84,2.041 -1.238,4.058 -1.404,5.83 -0.238,2.536 -0.005,4.664 0.186,5.576 0.194,0.925 0.488,1.13 0.575,1.322 0.057,-0.236 0.28,-0.437 0.372,-1.375 0.078,-0.795 0.144,-3.073 0.53,-5.303 0.286,-1.644 0.76,-3.45 1.593,-5.242 a 16.631,16.631 0 0 1 2.678,-4.083 c 1.002,-1.124 2.215,-2.18 3.688,-3.14 2.588,-1.689 5.897,-3.034 10.092,-3.975 3.734,-0.838 7.998,-1.319 12.804,-1.505 9.004,-0.348 18.574,0.36 28.556,1.054 4.615,0.321 9.11,0.619 13.186,0.727 4.072,0.109 7.752,0.03 10.822,-0.401 2.133,-0.328 4.079,-0.783 5.776,-1.35 1.943,-0.647 3.445,-1.4 4.588,-2.207 a 8.604,8.604 0 0 0 1.66,-1.5 6.05,6.05 0 0 0 1.072,-1.846 c 0.239,-0.67 0.35,-1.39 0.313,-2.154 -0.036,-0.758 -0.215,-1.544 -0.538,-2.354 -0.441,-1.111 -1.048,-1.97 -1.78,-2.607 a 5.782,5.782 0 0 0 -2.47,-1.254 c -0.904,-0.218 -1.833,-0.241 -2.715,-0.16 -0.942,0.088 -1.862,0.299 -2.689,0.551 a 20.454,20.454 0 0 0 -4.482,2.011 c -0.213,0.13 -0.398,0.25 -0.554,0.358 -1.177,0.81 -1.12,1.185 -1.083,1.243 z"
       style="fill:#210707;fill-opacity:1;fill-rule:nonzero;stroke:none;stroke-width:1.69493;stroke-linejoin:bevel;stroke-dasharray:none;stroke-dashoffset:18.5507;stroke-opacity:1"
       id="path43" /><path
       d="m 101.785,21.463 c 0.115,0.204 0.226,0.527 0.25,0.912 a 2.84,2.84 0 0 1 -0.075,0.82 5.12,5.12 0 0 1 -0.253,0.774 6.521,6.521 0 0 1 -0.407,0.837 c -0.302,0.525 -0.78,1.192 -1.56,1.952 -0.677,0.658 -1.585,1.388 -2.79,2.137 -2.205,1.37 -5.355,2.766 -9.644,3.813 -4.281,1.045 -9.412,1.671 -15.365,1.687 -4.657,0.012 -14.186,0.047 -24.37,0.893 -4.61,0.384 -9.468,0.94 -14.216,1.753 -4.698,0.805 -9.227,1.851 -13.304,3.21 -4.206,1.4 -7.85,3.107 -10.733,5.175 -1.518,1.089 -2.813,2.269 -3.867,3.544 -1.12,1.354 -1.953,2.794 -2.502,4.31 a 13.538,13.538 0 0 0 -0.788,5.052 c 0.058,1.935 0.494,3.837 1.165,5.653 0.836,2.264 2.03,4.375 3.267,6.196 2.094,3.083 4.344,5.39 5.147,5.995 0.543,0.41 0.754,0.269 0.907,0.322 -0.034,-0.157 0.127,-0.346 -0.19,-0.938 C 11.953,74.622 10.083,72.213 8.267,69.12 7.197,67.302 6.19,65.299 5.504,63.221 4.956,61.559 4.63,59.903 4.61,58.278 4.593,56.855 4.81,55.473 5.3,54.136 c 0.45,-1.228 1.131,-2.423 2.078,-3.58 0.894,-1.092 2.016,-2.141 3.381,-3.142 2.604,-1.91 5.985,-3.567 10.036,-4.98 3.919,-1.367 8.316,-2.454 12.932,-3.313 4.66,-0.868 9.45,-1.487 14.016,-1.928 10.152,-0.982 19.493,-1.116 24.198,-1.103 6.062,0.015 11.333,-0.548 15.793,-1.56 4.465,-1.011 7.85,-2.412 10.287,-3.893 1.332,-0.81 2.37,-1.638 3.155,-2.437 0.91,-0.924 1.482,-1.807 1.804,-2.594 0.154,-0.375 0.25,-0.726 0.3,-1.048 0.014,-0.087 0.024,-0.173 0.031,-0.259 a 3.127,3.127 0 0 0 -0.131,-1.22 2.65,2.65 0 0 0 -0.561,-0.977 c -0.31,-0.342 -0.648,-0.529 -0.834,-0.64 z"
       style="fill:#210707;fill-opacity:1;fill-rule:nonzero;stroke:none;stroke-width:1.69493;stroke-linejoin:bevel;stroke-dasharray:none;stroke-dashoffset:18.5507;stroke-opacity:1"
       id="path44" /><path
       d="m 45.458,59.175 c -0.041,0.011 -0.062,0.095 -0.051,0.604 0.011,0.522 0.042,1.33 -0.003,2.398 -0.017,0.404 -0.043,0.8 -0.077,1.19 -0.135,1.528 -0.59,3.857 -1.361,6.437 -0.662,2.215 -2.165,6.099 -5.586,10.72 -2.21,2.985 -4.73,5.638 -7.431,8.133 -2.549,2.355 -4.777,4.126 -5.123,4.706 -0.195,0.328 0.175,0.409 0.21,0.49 0.065,0.059 0.021,0.438 0.398,0.354 0.666,-0.148 3.125,-1.713 5.858,-4.032 2.86,-2.427 5.559,-5.275 7.796,-8.41 3.521,-4.935 4.873,-9.136 5.508,-11.5 0.776,-2.885 0.78,-5.17 0.71,-6.876 a 19.74,19.74 0 0 0 -0.088,-1.238 c -0.114,-1.098 -0.302,-1.927 -0.47,-2.432 -0.165,-0.495 -0.26,-0.552 -0.29,-0.544 z"
       style="fill:#e48d17;fill-opacity:1;fill-rule:nonzero;stroke:none;stroke-width:1.69493;stroke-linejoin:bevel;stroke-dasharray:none;stroke-dashoffset:18.5507;stroke-opacity:1"
       id="path45" /><path
       d="m 24.94,93.83 v 26.732 c 0,3.037 3.288,4.935 5.918,3.417 l 98.418,-56.822 a 3.945,3.945 0 0 0 1.878,-2.609 h -4.109 a 3.715,3.715 0 0 1 -1.835,2.913 l -92.665,53.5 c -2.477,1.43 -5.572,-0.357 -5.572,-3.217 V 92.202 Z"
       style="fill:#0364f7;fill-opacity:1;stroke:none;stroke-width:5.78588;stroke-linecap:round;stroke-linejoin:round;stroke-dashoffset:18.5507;paint-order:markers stroke fill"
       id="path46" /><path
       d="m 47.303,54.57 c 2.729,21.353 18.573,42.394 35.638,50.775"
       style="fill:none;stroke:#000000;stroke-width:2.01315;stroke-dasharray:none;stroke-dashoffset:18.5507;stroke-opacity:1"
       id="path47" /><path
       d="M 95.576,99.124 C 94.893,91.107 84.66,84.54 81.87,78.911"
       style="fill:none;fill-opacity:1;stroke:#000000;stroke-width:2.01315;stroke-dasharray:none;stroke-dashoffset:18.5507;stroke-opacity:1"
       id="path48" /><path
       d="m 93.027,99.108 c -0.291,2.242 -0.734,4.506 -0.572,6.702 -0.064,0.577 0.49,1.211 -0.006,1.759 -0.442,0.554 -1.408,0.74 -1.813,0.039 -1.594,-1.45 -3.644,-2.252 -5.552,-3.198 -0.433,-0.12 -1.055,-0.753 -1.233,-0.014 -0.536,0.833 -1.04,1.685 -1.552,2.534 2.846,1.138 5.769,2.23 8.293,4.008 1.556,0.928 2.265,2.642 3.076,4.17 1.235,2.127 2.328,4.401 3.602,6.465 1.12,-0.702 2.386,-1.214 3.466,-1.954 -1.68,-3.104 -3.437,-6.178 -5.034,-9.329 -0.798,-2.74 -0.201,-5.621 0.209,-8.375 0.173,-0.92 0.369,-1.835 0.556,-2.752 -1.137,0.01 -2.322,-0.065 -3.44,-0.056 z"
       style="color:#000000;fill:#d50000;fill-opacity:1;stroke:#920000;stroke-width:4.02629;stroke-linecap:round;stroke-linejoin:round;stroke-dasharray:none;stroke-dashoffset:18.5507;stroke-opacity:1;paint-order:markers stroke fill"
       id="path49" /><path
       d="m 88.571,67.32 c -0.027,0.042 -0.006,0.172 0.021,0.398 a 1.062,1.062 0 0 1 -0.06,0.54 2.007,2.007 0 0 1 -0.156,0.315 3.547,3.547 0 0 1 -0.326,0.455 c -0.268,0.322 -0.75,0.811 -1.682,1.464 a 0.65,0.93 1.549 0 0 -0.289,0.39 6.099,6.099 0 0 0 -0.405,1.961 c -0.03,0.584 0.002,1.107 -0.004,1.544 -0.004,0.221 -0.015,0.415 -0.04,0.597 a 2.265,2.265 0 0 1 -0.38,1.003 c -0.123,0.18 -0.283,0.367 -0.494,0.566 -0.14,0.133 -0.35,0.275 -0.638,0.415 -0.301,0.145 -0.664,0.275 -1.079,0.387 -0.728,0.196 -1.57,0.322 -2.457,0.385 -0.231,0.017 -0.467,0.029 -0.708,0.037 -1.28,0.041 -2.66,-0.04 -4.06,-0.237 a 28.302,28.302 0 0 1 -4.485,-1.01 c -3.486,-1.088 -6.359,-2.72 -8.602,-4.605 -0.452,-0.38 -0.876,-0.767 -1.274,-1.16 -0.821,-0.81 -1.564,-1.66 -2.231,-2.572 -1.436,-1.963 -2.215,-3.829 -2.59,-5.03 0.189,1.211 0.554,3.283 1.707,5.568 a 15.803,15.803 0 0 0 2.01,3.05 c 0.39,0.464 0.816,0.92 1.28,1.364 2.308,2.214 5.414,4.022 9.135,5.19 1.553,0.487 3.17,0.847 4.791,1.07 a 26.79,26.79 0 0 0 4.377,0.252 c 0.262,-0.008 0.522,-0.02 0.777,-0.036 0.973,-0.063 1.942,-0.199 2.82,-0.43 0.5,-0.132 0.98,-0.299 1.413,-0.506 0.41,-0.196 0.8,-0.439 1.122,-0.741 0.298,-0.28 0.556,-0.575 0.767,-0.89 a 4.026,4.026 0 0 0 0.669,-1.84 c 0.032,-0.291 0.037,-0.574 0.03,-0.841 -0.014,-0.537 -0.068,-1.023 -0.073,-1.489 -0.005,-0.42 0.025,-0.823 0.128,-1.245 0.864,-0.701 1.367,-1.3 1.66,-1.799 l 0.033,-0.057 c 0.158,-0.28 0.262,-0.551 0.316,-0.811 0.057,-0.278 0.054,-0.53 0.008,-0.752 A 1.388,1.388 0 0 0 89.362,67.674 1.123,1.123 0 0 0 89.028,67.37 C 88.73,67.197 88.589,67.29 88.571,67.32 Z"
       style="fill:#e48d17;fill-opacity:1;fill-rule:nonzero;stroke:none;stroke-width:1.69493;stroke-linejoin:bevel;stroke-dasharray:none;stroke-dashoffset:18.5507;stroke-opacity:1"
       id="path50" /></g></svg>
