<?xml version="1.0" encoding="UTF-8" standalone="no"?>
<svg
   width="62"
   height="62"
   version="1"
   id="svg7"
   sodipodi:docname="com.usebottles.bottles-program.svg"
   inkscape:version="1.4 (e7c3feb100, 2024-10-09)"
   xmlns:inkscape="http://www.inkscape.org/namespaces/inkscape"
   xmlns:sodipodi="http://sodipodi.sourceforge.net/DTD/sodipodi-0.dtd"
   xmlns:xlink="http://www.w3.org/1999/xlink"
   xmlns="http://www.w3.org/2000/svg"
   xmlns:svg="http://www.w3.org/2000/svg">
  <defs
     id="defs7">
    <linearGradient
       id="linearGradient7"
       inkscape:collect="always">
      <stop
         style="stop-color:#384850;stop-opacity:1;"
         offset="0"
         id="stop8" />
      <stop
         style="stop-color:#384850;stop-opacity:1;"
         offset="0.59162253"
         id="stop10" />
      <stop
         style="stop-color:#eff2f6;stop-opacity:1;"
         offset="0.92173076"
         id="stop11" />
      <stop
         style="stop-color:#eff2f6;stop-opacity:1;"
         offset="1"
         id="stop9" />
    </linearGradient>
    <linearGradient
       id="c-3"
       gradientUnits="userSpaceOnUse"
       x1="24.072048"
       x2="23.959682"
       y1="0.75082099"
       y2="46.056854">
      <stop
         offset="0"
         stop-color="#fff"
         id="stop3" />
      <stop
         offset="1"
         stop-color="#d9d9d9"
         id="stop4" />
    </linearGradient>
    <linearGradient
       id="b-6"
       gradientUnits="userSpaceOnUse"
       x1="29.203026"
       x2="34.121048"
       xlink:href="#a-7"
       y1="24.827356"
       y2="29.224836" />
    <linearGradient
       id="a-7">
      <stop
         offset="0"
         id="stop1" />
      <stop
         offset="1"
         stop-opacity="0"
         id="stop2" />
    </linearGradient>
    <linearGradient
       id="d"
       gradientUnits="userSpaceOnUse"
       x1="15.948756"
       x2="25.031786"
       xlink:href="#a-7"
       y1="23.618279"
       y2="33.69899" />
    <linearGradient
       id="e"
       gradientUnits="userSpaceOnUse"
       x1="21.990562"
       x2="29.320522"
       xlink:href="#a-7"
       y1="33.780373"
       y2="41.931858" />
    <linearGradient
       id="paint154_linear_890_11"
       x1="778"
       y1="812.29199"
       x2="788"
       y2="812.29199"
       gradientUnits="userSpaceOnUse"
       gradientTransform="translate(-751,-696)">
      <stop
         stop-color="#EFF2F6"
         id="stop1050" />
      <stop
         offset="0.600785"
         stop-color="#B7C6CD"
         id="stop1051" />
    </linearGradient>
    <linearGradient
       id="paint155_linear_890_11"
       x1="783"
       y1="813"
       x2="783"
       y2="817"
       gradientUnits="userSpaceOnUse"
       gradientTransform="translate(-751,-696)">
      <stop
         stop-color="#EFF2F6"
         id="stop1052" />
      <stop
         offset="0.734138"
         stop-color="#B7C6CD"
         id="stop1053" />
    </linearGradient>
    <radialGradient
       id="paint156_radial_890_11"
       cx="0"
       cy="0"
       r="1"
       gradientUnits="userSpaceOnUse"
       gradientTransform="matrix(27.999986,27.999976,-27.999986,27.999976,32.302392,33.999998)">
      <stop
         offset="0.60067803"
         stop-color="#B7C6CD"
         id="stop1054"
         style="stop-color:#384850;stop-opacity:1;" />
      <stop
         offset="0.876735"
         stop-color="#EFF2F6"
         id="stop1055" />
    </radialGradient>
    <linearGradient
       id="paint157_linear_890_11"
       x1="796.84485"
       y1="799.43359"
       x2="768.90088"
       y2="770.81476"
       gradientUnits="userSpaceOnUse"
       gradientTransform="matrix(1.1666666,0,0,1.1666668,-881.19764,-881.8333)">
      <stop
         offset="0.00000057"
         stop-color="#2E2E41"
         id="stop1056"
         style="stop-color:#495361;stop-opacity:1;" />
      <stop
         offset="0.711139"
         stop-color="#566C80"
         id="stop1057" />
    </linearGradient>
    <linearGradient
       id="paint158_linear_890_11"
       x1="792"
       y1="794"
       x2="774"
       y2="776"
       gradientUnits="userSpaceOnUse"
       gradientTransform="translate(-751,-696)">
      <stop
         offset="0.304478"
         stop-color="#2E2E41"
         id="stop1058" />
      <stop
         offset="1"
         stop-color="#566C80"
         id="stop1059" />
    </linearGradient>
    <linearGradient
       id="paint159_linear_890_11"
       x1="788"
       y1="790"
       x2="778"
       y2="780"
       gradientUnits="userSpaceOnUse"
       gradientTransform="translate(-751,-696)">
      <stop
         offset="0.391394"
         stop-color="#5200FF"
         id="stop1060" />
      <stop
         offset="1"
         stop-color="#0085FF"
         id="stop1061" />
    </linearGradient>
    <linearGradient
       id="paint160_linear_890_11"
       x1="784"
       y1="798"
       x2="782"
       y2="796"
       gradientUnits="userSpaceOnUse"
       gradientTransform="translate(-751,-696)">
      <stop
         stop-color="#FF7E07"
         id="stop1062" />
      <stop
         offset="1"
         stop-color="#FFE607"
         id="stop1063" />
    </linearGradient>
    <radialGradient
       inkscape:collect="always"
       xlink:href="#linearGradient7"
       id="radialGradient9"
       cx="32.302387"
       cy="34"
       fx="32.302387"
       fy="34"
       r="28"
       gradientUnits="userSpaceOnUse"
       gradientTransform="matrix(0.99999999,1,-1,0.99999999,34,-32.302387)" />
    <linearGradient
       id="paint0_linear_54_1196"
       x1="64"
       y1="120"
       x2="64"
       y2="8"
       gradientUnits="userSpaceOnUse"
       gradientTransform="matrix(0.28571429,0,0,0.28571429,12.714302,12.714286)">
      <stop
         stop-color="#5570FF"
         id="stop2-6" />
      <stop
         offset="1"
         stop-color="#4DD3FF"
         id="stop3-8" />
    </linearGradient>
    <linearGradient
       inkscape:collect="always"
       xlink:href="#linearGradient1551"
       id="linearGradient1553"
       x1="3.000001"
       y1="44.999977"
       x2="44.999977"
       y2="3.000001"
       gradientUnits="userSpaceOnUse"
       gradientTransform="matrix(1.1090036,0,0,1.110093,10.761872,64.669736)" />
    <linearGradient
       inkscape:collect="always"
       id="linearGradient1551">
      <stop
         style="stop-color:#3b4044;stop-opacity:1;"
         offset="0"
         id="stop1547" />
      <stop
         style="stop-color:#545a5f;stop-opacity:1;"
         offset="1"
         id="stop1549" />
    </linearGradient>
    <linearGradient
       inkscape:collect="always"
       xlink:href="#linearGradient2597"
       id="linearGradient2599"
       x1="5.2355423"
       y1="3.000001"
       x2="45"
       y2="43.950001"
       gradientUnits="userSpaceOnUse"
       gradientTransform="matrix(1.1090036,0,0,1.110093,10.761872,64.669736)" />
    <linearGradient
       inkscape:collect="always"
       id="linearGradient2597">
      <stop
         style="stop-color:#6d7983;stop-opacity:1;"
         offset="0"
         id="stop2593" />
      <stop
         style="stop-color:#1e2b35;stop-opacity:1;"
         offset="1"
         id="stop2595" />
    </linearGradient>
  </defs>
  <sodipodi:namedview
     id="namedview7"
     pagecolor="#ffffff"
     bordercolor="#000000"
     borderopacity="0.25"
     inkscape:showpageshadow="2"
     inkscape:pageopacity="0.0"
     inkscape:pagecheckerboard="0"
     inkscape:deskcolor="#d1d1d1"
     inkscape:zoom="8.3306018"
     inkscape:cx="35.111509"
     inkscape:cy="50.176447"
     inkscape:window-width="1920"
     inkscape:window-height="994"
     inkscape:window-x="0"
     inkscape:window-y="0"
     inkscape:window-maximized="1"
     inkscape:current-layer="svg7" />
  <g
     id="g1"
     transform="translate(-1.3023872,-3)">
    <path
       d="m 60.302387,34 c 0,15.46415 -12.535828,28 -28.000002,28 C 16.838222,62 4.3023873,49.46415 4.3023873,34 4.3023873,18.535835 16.838222,6 32.302385,6 47.766559,6 60.302387,18.535835 60.302387,34 Z"
       id="path154"
       style="fill:url(#radialGradient9)" />
  </g>
  <g
     id="g2"
     transform="translate(-6.3334932,-60.3335)">
    <rect
       style="isolation:isolate;fill:url(#linearGradient1553);fill-opacity:1;stroke-width:1.16509"
       id="rect23"
       height="46.623856"
       rx="23.289051"
       y="68"
       x="14.088875"
       width="46.578102"
       ry="23.311928" />
    <rect
       ry="23.311939"
       width="46.578125"
       x="14.088868"
       y="68"
       rx="23.289062"
       height="46.623878"
       id="rect4212"
       style="isolation:isolate;fill:url(#linearGradient2599);fill-opacity:1;stroke-width:1.10959" />
    <path
       d="m 40.000333,100.66844 c -0.785971,1.1414 -1.133358,1.92306 -2.222926,2.06604 -1.08823,0.14315 -1.62495,-0.52113 -2.67953,-1.41946 l -2.233076,1.2903 c 0.25022,1.3605 0.556527,2.161 -0.110644,3.03219 -0.674478,0.87848 -1.541556,0.78592 -2.898824,0.89382 l -0.668044,2.4935 c 1.136574,0.784 1.921173,1.13445 2.063997,2.22515 l 4.5e-4,8.4e-4 c 0.125765,0.95467 -0.381915,1.50161 -1.112147,2.33065 3.047647,0.71714 7.949765,2.0345 13.942267,0 1.329418,-0.4512 2.423217,-1.13161 2.423217,-2.53631 v -1.08353 c -0.117664,-0.21511 -0.192733,-0.45102 -0.221105,-0.69457 v -8.9e-4 c -0.06148,-0.47175 0.02809,-0.83893 0.221115,-1.18984 v -3.56679 l -0.09193,-0.15951 c -1.361438,0.25054 -2.158892,0.55675 -3.029634,-0.11125 v -8.7e-4 c -0.871579,-0.66816 -0.782659,-1.51299 -0.893257,-2.90107 l -2.490109,-0.66859 z m -1.317647,6.39641 c 4.253938,-0.11383 4.424572,6.27325 0.170635,6.38722 -4.253933,0.11381 -4.424567,-6.27343 -0.170635,-6.38722 z"
       id="path2"
       style="isolation:isolate;fill:#00ccff;stroke-width:0.460946"
       sodipodi:nodetypes="ccccccccccsscccccccccccsss" />
    <path
       d="m 31.115768,68.942203 c -1.487546,0.08937 -2.996234,1.437475 -2.993016,3.042281 v 3.207946 c 0.358565,0.23238 0.636017,0.537402 0.831115,1.009856 l 8.98e-4,4.84e-4 c 0.479953,1.161385 -0.09243,1.948949 -0.775221,3.385329 l 2.086769,2.08882 c 1.431789,-0.680934 2.220745,-1.254231 3.38884,-0.772299 l 8.98e-4,5.53e-4 c 1.152824,0.476646 1.302595,1.435268 1.837864,2.940251 l 2.951648,-9.01e-4 c 0.528441,-1.491274 0.682925,-2.460988 1.84581,-2.942951 1.160189,-0.480879 1.9544,0.09505 3.384036,0.775456 l 2.087359,-2.088846 c -0.686934,-1.446509 -1.253875,-2.227237 -0.775014,-3.385413 v -5.19e-4 c 0.480384,-1.162355 1.443335,-1.314336 2.941028,-1.848042 V 71.400167 C 46.441714,70.870685 45.469748,70.716013 44.987769,69.551542 44.924563,69.400223 44.877243,69.242775 44.846505,69.081696 39.633869,67.367728 33.835587,67.995898 31.13951,68.896438 Z m 5.855059,0.279106 c 0.935065,0 1.869515,0.356304 2.582522,1.069998 2.301415,2.303274 0.671527,6.241388 -2.582504,6.241388 -3.254019,0 -4.883922,-3.938114 -2.582491,-6.241388 0.684273,-0.686464 1.613694,-1.071551 2.582473,-1.069998 z"
       id="path3"
       style="isolation:isolate;fill:#ffe680;stroke-width:0.527625"
       sodipodi:nodetypes="ccccccccccccccccccccccccscc" />
    <path
       d="m 27.984856,94.146038 c -1.140259,-0.786742 -1.921173,-1.13447 -2.063997,-2.225109 -0.142964,-1.089298 0.52061,-1.626564 1.418066,-2.682179 l -1.289069,-2.23527 c -1.359116,0.250467 -2.158901,0.557074 -3.029204,-0.110749 -0.877665,-0.675141 -0.785051,-1.543054 -0.892846,-2.901672 l -2.491118,-0.668701 c -0.783216,1.137689 -1.133354,1.923059 -2.222912,2.06604 l -8.92e-4,4.45e-4 c -0.95366,0.125876 -1.500079,-0.382304 -2.328443,-1.113249 -0.716384,3.05064 -2.032496,7.957592 0,13.955963 0.450899,1.330733 1.130594,2.425593 2.533926,2.425593 h 1.082482 c 0.214918,-0.11774 0.450518,-0.1929 0.693883,-0.2213 h 9.04e-4 c 0.471303,-0.0614 0.838074,0.0283 1.188669,0.22131 h 3.563189 l 0.159371,-0.0921 c -0.250267,-1.362742 -0.556099,-2.160992 0.111103,-3.032574 h 8.89e-4 c 0.667516,-0.872464 1.511538,-0.783439 2.898284,-0.894148 l 0.667908,-2.49257 z m -6.390103,-1.318953 c 0.113757,4.258123 -6.267146,4.428925 -6.380901,0.170804 -0.113757,-4.258116 6.267145,-4.428922 6.380901,-0.170804 z"
       id="path2-3"
       style="isolation:isolate;fill:#b380ff;stroke-width:0.460946"
       sodipodi:nodetypes="ccccccccccsscccccccccccsss" />
    <path
       d="m 59.641293,84.754347 c -0.08928,-1.489022 -1.436068,-2.99919 -3.039299,-2.99597 H 53.3972 c -0.232154,0.358917 -0.536874,0.636641 -1.008867,0.831947 l -4.79e-4,8.98e-4 c -1.160248,0.480407 -1.947028,-0.09252 -3.382011,-0.77598 l -2.086769,2.088815 c 0.680267,1.433198 1.253,2.222914 0.771558,3.392171 l -5.69e-4,9e-4 c -0.47618,1.153939 -1.433862,1.303874 -2.937365,1.83967 l 8.97e-4,2.954544 c 1.489812,0.528944 2.458575,0.683599 2.940062,1.847607 0.480426,1.161349 -0.09496,1.956318 -0.77469,3.387379 l 2.086796,2.089403 c 1.445087,-0.687618 2.225048,-1.255116 3.382092,-0.775769 h 5.11e-4 c 1.161218,0.480853 1.313051,1.444738 1.846233,2.943918 h 2.951139 c 0.528967,-1.48854 0.683486,-2.461464 1.846816,-2.943902 0.151169,-0.06336 0.308464,-0.110643 0.469384,-0.141403 1.712286,-5.217759 1.084729,-11.021735 0.185074,-13.720462 z m -0.27883,5.860812 c 0,0.935968 -0.355942,1.871353 -1.068948,2.585041 -2.301017,2.303679 -6.235265,0.672187 -6.235265,-2.585025 0,-3.257226 3.934248,-4.888717 6.235265,-2.585043 0.685788,0.684949 1.070497,1.615296 1.068948,2.585027 z"
       id="path3-6"
       style="isolation:isolate;fill:#ff55ff;fill-opacity:1;stroke-width:0.527625"
       sodipodi:nodetypes="ccccccccccccccccccccccccscc" />
  </g>
</svg>
