<?xml version="1.0" encoding="UTF-8" standalone="no"?>
<svg
   width="62"
   height="62"
   version="1"
   id="svg7"
   sodipodi:docname="com.raggesilver.Proton.svg"
   inkscape:version="1.4 (e7c3feb100, 2024-10-09)"
   xmlns:inkscape="http://www.inkscape.org/namespaces/inkscape"
   xmlns:sodipodi="http://sodipodi.sourceforge.net/DTD/sodipodi-0.dtd"
   xmlns:xlink="http://www.w3.org/1999/xlink"
   xmlns="http://www.w3.org/2000/svg"
   xmlns:svg="http://www.w3.org/2000/svg">
  <defs
     id="defs7">
    <linearGradient
       id="linearGradient7"
       inkscape:collect="always">
      <stop
         style="stop-color:#384850;stop-opacity:1;"
         offset="0"
         id="stop8" />
      <stop
         style="stop-color:#384850;stop-opacity:1;"
         offset="0.58519185"
         id="stop10" />
      <stop
         style="stop-color:#eff2f6;stop-opacity:1;"
         offset="0.86599815"
         id="stop11" />
      <stop
         style="stop-color:#eff2f6;stop-opacity:1;"
         offset="1"
         id="stop9" />
    </linearGradient>
    <linearGradient
       id="linearGradient1"
       inkscape:collect="always">
      <stop
         style="stop-color:#303c47;stop-opacity:1;"
         offset="0"
         id="stop5" />
      <stop
         style="stop-color:#363e48;stop-opacity:1;"
         offset="0.25046653"
         id="stop7" />
      <stop
         style="stop-color:#303c47;stop-opacity:1;"
         offset="0.91934216"
         id="stop12" />
      <stop
         style="stop-color:#303c47;stop-opacity:1;"
         offset="1"
         id="stop6" />
    </linearGradient>
    <linearGradient
       id="c-3"
       gradientUnits="userSpaceOnUse"
       x1="24.072048"
       x2="23.959682"
       y1="0.75082099"
       y2="46.056854">
      <stop
         offset="0"
         stop-color="#fff"
         id="stop3" />
      <stop
         offset="1"
         stop-color="#d9d9d9"
         id="stop4" />
    </linearGradient>
    <linearGradient
       id="b-6"
       gradientUnits="userSpaceOnUse"
       x1="29.203026"
       x2="34.121048"
       xlink:href="#a-7"
       y1="24.827356"
       y2="29.224836" />
    <linearGradient
       id="a-7">
      <stop
         offset="0"
         id="stop1" />
      <stop
         offset="1"
         stop-opacity="0"
         id="stop2" />
    </linearGradient>
    <linearGradient
       id="d"
       gradientUnits="userSpaceOnUse"
       x1="15.948756"
       x2="25.031786"
       xlink:href="#a-7"
       y1="23.618279"
       y2="33.69899" />
    <linearGradient
       id="e"
       gradientUnits="userSpaceOnUse"
       x1="21.990562"
       x2="29.320522"
       xlink:href="#a-7"
       y1="33.780373"
       y2="41.931858" />
    <linearGradient
       id="paint154_linear_890_11"
       x1="778"
       y1="812.29199"
       x2="788"
       y2="812.29199"
       gradientUnits="userSpaceOnUse"
       gradientTransform="translate(-751,-696)">
      <stop
         stop-color="#EFF2F6"
         id="stop1050" />
      <stop
         offset="0.600785"
         stop-color="#B7C6CD"
         id="stop1051" />
    </linearGradient>
    <linearGradient
       id="paint155_linear_890_11"
       x1="783"
       y1="813"
       x2="783"
       y2="817"
       gradientUnits="userSpaceOnUse"
       gradientTransform="translate(-751,-696)">
      <stop
         stop-color="#EFF2F6"
         id="stop1052" />
      <stop
         offset="0.734138"
         stop-color="#B7C6CD"
         id="stop1053" />
    </linearGradient>
    <radialGradient
       id="paint156_radial_890_11"
       cx="0"
       cy="0"
       r="1"
       gradientUnits="userSpaceOnUse"
       gradientTransform="matrix(27.999986,27.999976,-27.999986,27.999976,32.302392,33.999998)">
      <stop
         offset="0.60067803"
         stop-color="#B7C6CD"
         id="stop1054"
         style="stop-color:#424b58;stop-opacity:1;" />
      <stop
         offset="0.876735"
         stop-color="#EFF2F6"
         id="stop1055" />
    </radialGradient>
    <linearGradient
       id="paint157_linear_890_11"
       x1="796.84485"
       y1="799.43359"
       x2="768.90088"
       y2="770.81476"
       gradientUnits="userSpaceOnUse"
       gradientTransform="matrix(1.1666666,0,0,1.1666668,-881.19764,-881.8333)">
      <stop
         offset="0.00000057"
         stop-color="#2E2E41"
         id="stop1056"
         style="stop-color:#424b58;stop-opacity:1;" />
      <stop
         offset="0.71113902"
         stop-color="#566C80"
         id="stop1057"
         style="stop-color:#303c47;stop-opacity:1;" />
    </linearGradient>
    <linearGradient
       id="paint158_linear_890_11"
       x1="792"
       y1="794"
       x2="774"
       y2="776"
       gradientUnits="userSpaceOnUse"
       gradientTransform="translate(-751,-696)">
      <stop
         offset="0.304478"
         stop-color="#2E2E41"
         id="stop1058" />
      <stop
         offset="1"
         stop-color="#566C80"
         id="stop1059" />
    </linearGradient>
    <linearGradient
       id="paint159_linear_890_11"
       x1="788"
       y1="790"
       x2="778"
       y2="780"
       gradientUnits="userSpaceOnUse"
       gradientTransform="translate(-751,-696)">
      <stop
         offset="0.391394"
         stop-color="#5200FF"
         id="stop1060" />
      <stop
         offset="1"
         stop-color="#0085FF"
         id="stop1061" />
    </linearGradient>
    <linearGradient
       id="paint160_linear_890_11"
       x1="784"
       y1="798"
       x2="782"
       y2="796"
       gradientUnits="userSpaceOnUse"
       gradientTransform="translate(-751,-696)">
      <stop
         stop-color="#FF7E07"
         id="stop1062" />
      <stop
         offset="1"
         stop-color="#FFE607"
         id="stop1063" />
    </linearGradient>
    <linearGradient
       id="c-3-6"
       gradientUnits="userSpaceOnUse"
       x1="24.072048"
       x2="23.959682"
       y1="0.75082099"
       y2="46.056854"
       gradientTransform="matrix(0.91471346,0,0,0.90068147,9.0468769,9.3836444)">
      <stop
         offset="0"
         stop-color="#fff"
         id="stop3-2" />
      <stop
         offset="1"
         stop-color="#d9d9d9"
         id="stop4-9" />
    </linearGradient>
    <linearGradient
       id="b-6-1"
       gradientUnits="userSpaceOnUse"
       x1="29.203026"
       x2="34.121048"
       xlink:href="#a-7"
       y1="24.827356"
       y2="29.224836"
       gradientTransform="matrix(1.1104534,0,0,1.0934187,4.3491158,4.7861435)" />
    <linearGradient
       id="d-0"
       gradientUnits="userSpaceOnUse"
       x1="15.948756"
       x2="25.031786"
       xlink:href="#a-7"
       y1="23.618279"
       y2="33.69899"
       gradientTransform="matrix(1.1104534,0,0,1.0934187,4.3491158,4.7861435)" />
    <linearGradient
       id="e-9"
       gradientUnits="userSpaceOnUse"
       x1="21.990562"
       x2="29.320522"
       xlink:href="#a-7"
       y1="33.780373"
       y2="41.931858"
       gradientTransform="matrix(1.1104534,0,0,1.0934187,4.3491158,4.7861435)" />
    <linearGradient
       inkscape:collect="always"
       xlink:href="#linearGradient1"
       id="linearGradient6"
       x1="15.60323"
       y1="17.703012"
       x2="48.302387"
       y2="50"
       gradientUnits="userSpaceOnUse" />
    <radialGradient
       inkscape:collect="always"
       xlink:href="#linearGradient7"
       id="radialGradient9"
       cx="32.302387"
       cy="34"
       fx="32.302387"
       fy="34"
       r="28"
       gradientUnits="userSpaceOnUse"
       gradientTransform="matrix(0.99999999,1,-1,0.99999999,34,-32.302387)" />
  </defs>
  <sodipodi:namedview
     id="namedview7"
     pagecolor="#ffffff"
     bordercolor="#000000"
     borderopacity="0.25"
     inkscape:showpageshadow="2"
     inkscape:pageopacity="0.0"
     inkscape:pagecheckerboard="0"
     inkscape:deskcolor="#d1d1d1"
     inkscape:zoom="11.78125"
     inkscape:cx="24.912467"
     inkscape:cy="29.538461"
     inkscape:window-width="1920"
     inkscape:window-height="994"
     inkscape:window-x="0"
     inkscape:window-y="0"
     inkscape:window-maximized="1"
     inkscape:current-layer="svg7" />
  <g
     id="g1"
     transform="translate(-1.3023872,-3)">
    <path
       d="m 60.302387,34 c 0,15.46415 -12.535828,28 -28.000002,28 C 16.838222,62 4.3023873,49.46415 4.3023873,34 4.3023873,18.535835 16.838222,6 32.302385,6 47.766559,6 60.302387,18.535835 60.302387,34 Z"
       id="path154"
       style="fill:url(#radialGradient9)" />
    <path
       d="m 55.63572,34 c 0,12.88701 -10.446332,23.33332 -23.333335,23.33332 C 19.415386,57.33332 8.9690543,46.88701 8.9690543,34 c 0,-12.886994 10.4463317,-23.333332 23.3333307,-23.333332 12.887003,0 23.333335,10.446338 23.333335,23.333332 z"
       id="path155"
       style="fill:url(#linearGradient6)" />
  </g>
  <path
     d="m 31.122652,12.999994 c -0.451024,0.0056 -0.884104,0.112472 -1.292704,0.311372 -0.481432,0.247485 -0.919164,0.5724 -1.29326,0.960148 -0.477248,0.490903 -0.894184,1.033312 -1.246236,1.609063 -0.317604,0.520669 -0.601256,1.053857 -0.858684,1.604381 0.729695,0.30276 1.443157,0.656916 2.13026,1.045772 0.87646,0.490236 1.735616,1.019048 2.560624,1.595436 0.824703,-0.576388 1.6853,-1.1052 2.564752,-1.595436 0.687739,-0.388856 1.397351,-0.743012 2.127071,-1.045772 -0.253219,-0.550524 -0.540551,-1.083712 -0.859236,-1.604381 -0.352275,-0.575751 -0.768712,-1.11816 -1.245684,-1.609063 -0.37404,-0.387748 -0.81166,-0.711776 -1.293284,-0.960148 -0.403947,-0.200989 -0.841569,-0.30672 -1.293619,-0.311372 z m -10.130897,4.357688 c -0.528731,-0.018 -1.06095,0.06592 -1.567858,0.234307 -0.416961,0.1458 -0.799337,0.375062 -1.117549,0.679262 -0.3047,0.315086 -0.536788,0.694858 -0.682616,1.108415 -0.164715,0.503832 -0.249008,1.032368 -0.235496,1.55772 0,0.499568 0.05344,0.989391 0.135307,1.479904 0.107702,0.564064 0.248981,1.123088 0.429949,1.665388 0.07284,0.211819 0.1512,0.425464 0.233696,0.639884 0.750988,-0.286504 1.516596,-0.537756 2.289876,-0.755804 0.953752,-0.2664 1.920572,-0.486332 2.899608,-0.661292 0.175816,-0.968512 0.400208,-1.933284 0.666471,-2.880084 0.213589,-0.768131 0.472901,-1.527092 0.759681,-2.274645 -0.213896,-0.08392 -0.428592,-0.156019 -0.648968,-0.231619 -0.540553,-0.179088 -1.102736,-0.320347 -1.674971,-0.42588 -0.489321,-0.08916 -0.984293,-0.134088 -1.486633,-0.134088 z m 20.262129,0 c -0.498547,0 -0.991996,0.05152 -1.486136,0.134088 -0.567664,0.105297 -1.130316,0.245712 -1.676411,0.426212 -0.213285,0.0792 -0.433053,0.1512 -0.648885,0.231315 0.293096,0.747469 0.546645,1.506377 0.760984,2.274949 0.2718,0.946744 0.494088,1.911324 0.670156,2.88014 0.975488,0.1728 1.946573,0.396136 2.900103,0.660904 0.773452,0.219019 1.534789,0.469496 2.290657,0.755721 0.07842,-0.213285 0.1584,-0.426874 0.230704,-0.639857 0.180611,-0.542383 0.326632,-1.101128 0.4302,-1.665444 0.09033,-0.490124 0.135304,-0.98014 0.135304,-1.479904 0.01496,-0.525349 -0.06807,-1.053887 -0.234912,-1.557692 -0.140981,-0.413612 -0.373541,-0.793217 -0.678441,-1.10844 -0.322448,-0.303977 -0.70058,-0.534377 -1.122031,-0.679183 -0.506913,-0.164074 -1.034921,-0.245989 -1.568273,-0.233389 z m -15.299587,1.275095 c -0.267893,0.694825 -0.502945,1.407985 -0.70416,2.124829 -0.220485,0.77256 -0.404777,1.544456 -0.567609,2.32538 1.000828,-0.145192 2.006668,-0.262192 3.011816,-0.32882 0.5629,-0.489628 1.14264,-0.960064 1.735753,-1.411669 0.196811,-0.157515 0.395559,-0.302707 0.597268,-0.453075 -0.669709,-0.460772 -1.370741,-0.882913 -2.079469,-1.279605 -0.644401,-0.366898 -1.30622,-0.696268 -1.993599,-0.97704 z m 10.337983,0 c -0.683057,0.280189 -1.349584,0.610142 -1.994316,0.97704 -0.708316,0.396692 -1.404748,0.818833 -2.075732,1.279605 0.2016,0.151504 0.405385,0.2988 0.601808,0.453075 0.588463,0.451605 1.169612,0.917473 1.728472,1.407985 1.009216,0.072 2.010044,0.1908 3.011344,0.332504 -0.162,-0.780924 -0.348785,-1.55282 -0.563541,-2.32538 -0.199219,-0.716844 -0.437759,-1.430004 -0.708035,-2.124829 z m -5.169628,2.987305 c -0.313532,0.234307 -0.622635,0.464484 -0.931652,0.702528 -0.129296,0.1008 -0.2718,0.207912 -0.403948,0.316992 0.442355,-0.018 0.889144,-0.02992 1.3356,-0.02408 0.447313,-0.0056 0.894352,0.0056 1.340668,0.02699 -0.128992,-0.111014 -0.270304,-0.218096 -0.40824,-0.320311 -0.308492,-0.236402 -0.617844,-0.468441 -0.932428,-0.703384 z m 0,2.244324 c -0.970337,-0.0056 -1.941648,0.02992 -2.912869,0.08863 -0.751819,0.636175 -1.473508,1.305802 -2.165015,2.001517 -0.700864,0.687073 -1.375253,1.403723 -2.015252,2.1492 -0.0612,0.964799 -0.09248,1.929564 -0.09248,2.894261 0,0.968538 0.02992,1.932315 0.09636,2.896892 0.635928,0.746585 1.310236,1.459247 2.0111,2.150447 0.691588,0.6912 1.408652,1.360828 2.165149,1.992378 0.966907,0.06812 1.938378,0.1008 2.912816,0.09472 0.975738,0.0056 1.947156,-0.02992 2.913424,-0.08972 0.751708,-0.631745 1.473536,-1.301373 2.169331,-1.997557 0.696019,-0.691173 1.37124,-1.407683 2.011876,-2.154573 0.06092,-0.959926 0.100237,-1.924153 0.09084,-2.89271 0.0021,-0.964745 -0.02992,-1.933283 -0.09608,-2.893957 -0.635987,-0.745671 -1.310722,-1.462209 -2.007144,-2.14956 -0.695436,-0.695216 -1.413304,-1.360911 -2.164896,-1.996422 -0.970786,-0.06812 -1.942066,-0.09472 -2.917944,-0.09177 z m -5.022388,0.289496 c -0.549887,0.05732 -1.095672,0.134115 -1.640908,0.229789 -0.09056,0.537315 -0.164104,1.083326 -0.230704,1.629499 0.305004,-0.315413 0.614051,-0.626924 0.92376,-0.938324 0.309572,-0.30672 0.627036,-0.613828 0.945028,-0.917557 z m 10.050399,0 c 0.317241,0.30672 0.631245,0.610588 0.939514,0.917528 0.314059,0.310848 0.619755,0.622828 0.924343,0.937912 -0.05676,-0.545872 -0.134696,-1.09152 -0.225,-1.629112 -0.545152,-0.09028 -1.091132,-0.164408 -1.640492,-0.229819 z m -12.998495,0.452104 c -0.786265,0.1602 -1.56672,0.34632 -2.341384,0.559691 -0.721632,0.198274 -1.438532,0.434241 -2.13898,0.699369 0.283208,0.683444 0.614684,1.339283 0.9846,1.979556 0.399379,0.704989 0.824204,1.395195 1.288108,2.061636 0.152723,-0.1998 0.300932,-0.396608 0.45612,-0.593112 0.455123,-0.589044 0.927025,-1.166124 1.42186,-1.719944 0.07256,-0.99778 0.184484,-1.996448 0.329676,-2.987196 z m 15.940027,0 c 0.152693,0.990748 0.264877,1.989416 0.335989,2.991851 0.493312,0.553705 0.96696,1.130813 1.421752,1.719165 0.152695,0.197696 0.304726,0.3924 0.451495,0.59386 0.463848,-0.666413 0.889088,-1.35706 1.288576,-2.06626 0.36934,-0.640273 0.705441,-1.296112 0.988816,-1.979556 -0.70486,-0.266984 -1.417488,-0.498684 -2.144632,-0.699369 -0.773424,-0.2124 -1.555536,-0.401207 -2.341996,-0.559691 z M 17.5154,26.338686 c -0.554263,0.257704 -1.091023,0.537536 -1.614212,0.857464 -0.581124,0.346072 -1.126303,0.764392 -1.620165,1.233 -0.394839,0.371492 -0.717067,0.80748 -0.97128,1.284232 -0.198915,0.405915 -0.300047,0.841984 -0.308827,1.284868 0.0056,0.447896 0.1116,0.882527 0.308827,1.285172 0.254381,0.476807 0.576441,0.912795 0.97128,1.287469 0.493862,0.469331 1.039041,0.887651 1.620165,1.233 0.523189,0.316108 1.059949,0.601867 1.614212,0.85284 0.305916,-0.724541 0.662816,-1.428561 1.053,-2.11104 0.494972,-0.874825 1.02744,-1.723485 1.607316,-2.547441 -0.579876,-0.818944 -1.112344,-1.667688 -1.607316,-2.542541 -0.390184,-0.683087 -0.747084,-1.387858 -1.053,-2.117023 z m 27.213928,0 c -0.300297,0.729165 -0.656673,1.433936 -1.052673,2.117023 -0.4932,0.874853 -1.025911,1.723597 -1.605851,2.546557 0.57994,0.815288 1.112651,1.6686 1.605851,2.543425 0.396,0.682479 0.752509,1.386499 1.052673,2.11104 0.554592,-0.250781 1.096943,-0.536702 1.620382,-0.85284 0.579161,-0.345349 1.122009,-0.763669 1.615489,-1.233 0.394887,-0.374674 0.721215,-0.810662 0.971111,-1.287469 0.199493,-0.402645 0.304614,-0.837276 0.313696,-1.285172 -0.01192,-0.442884 -0.1188,-0.878953 -0.313696,-1.284868 -0.249288,-0.476752 -0.576224,-0.91274 -0.971111,-1.284232 -0.493481,-0.468608 -1.036328,-0.886928 -1.615489,-1.233 -0.52344,-0.319928 -1.06579,-0.600728 -1.620382,-0.857464 z M 31.122652,27.89599 c 0.833788,0 1.624736,0.329347 2.212864,0.904652 0.579268,0.58478 0.910856,1.374009 0.910856,2.197608 0,0.827972 -0.331588,1.616372 -0.910856,2.197967 -0.588128,0.579874 -1.379076,0.908805 -2.212864,0.908805 -0.829301,0 -1.623128,-0.328931 -2.211868,-0.908805 -0.581041,-0.581595 -0.910829,-1.369995 -0.910829,-2.197967 0,-0.823599 0.329788,-1.612828 0.910829,-2.197608 0.58874,-0.575305 1.382567,-0.904652 2.211868,-0.904652 z m 0,1.242168 c -0.498573,0 -0.974269,0.1998 -1.323109,0.546064 -0.351943,0.3456 -0.550166,0.819304 -0.550166,1.314028 0,0.499652 0.198611,0.96862 0.550166,1.318596 0.34884,0.34488 0.824536,0.546176 1.323109,0.546176 0.502725,0 0.975851,-0.198885 1.327596,-0.546176 0.34848,-0.349976 0.549916,-0.818944 0.549916,-1.318596 0,-0.494724 -0.199192,-0.968428 -0.549916,-1.314028 -0.351745,-0.345904 -0.824871,-0.546064 -1.327596,-0.546064 z m -8.416247,0.53316 c -0.108,0.128104 -0.213893,0.269112 -0.318349,0.405304 -0.237296,0.3024 -0.472264,0.615212 -0.709284,0.921628 0.2358,0.311344 0.468971,0.622772 0.709284,0.926059 0.101658,0.134085 0.207608,0.2718 0.318349,0.405885 -0.018,-0.444765 -0.02685,-0.888703 -0.02685,-1.331944 0,-0.442884 0.0084,-0.883608 0.02685,-1.326932 z m 16.833932,0 c 0.02104,0.438784 0.02715,0.884048 0.02715,1.326932 0,0.443241 0,0.887179 -0.02715,1.331944 0.106231,-0.128992 0.213619,-0.27 0.322507,-0.405915 0.2358,-0.303257 0.471544,-0.614685 0.703579,-0.926029 -0.233726,-0.306416 -0.467503,-0.619228 -0.703579,-0.921628 -0.108,-0.133504 -0.215696,-0.272992 -0.322507,-0.405304 z M 11.75,30.994594 v 0.018 z m 9.194512,1.096035 c -0.463904,0.664973 -0.88873,1.356617 -1.288109,2.061193 -0.369916,0.6439 -0.701032,1.301068 -0.9846,1.979972 0.700449,0.267896 1.417348,0.503336 2.13898,0.703884 0.777879,0.2124 1.555119,0.401344 2.341385,0.55836 -0.150923,-0.993932 -0.2628,-1.98828 -0.333385,-2.990356 -0.495779,-0.555203 -0.963058,-1.130924 -1.418151,-1.715425 -0.157792,-0.198 -0.305808,-0.397635 -0.45612,-0.597628 z m 20.356919,0 c -0.146991,0.198 -0.300324,0.401205 -0.451495,0.597628 -0.459444,0.588765 -0.928441,1.160222 -1.421752,1.719165 -0.07284,0.998336 -0.192019,1.992684 -0.331367,2.986616 0.786351,-0.1602 1.563951,-0.344852 2.337375,-0.55836 0.727144,-0.198888 1.439772,-0.435572 2.144632,-0.703884 -0.2826,-0.678904 -0.619477,-1.336072 -0.988817,-1.979972 -0.399488,-0.704576 -0.824727,-1.39622 -1.288576,-2.061193 z m -17.069596,3.900073 c 0.05676,0.545869 0.135307,1.087836 0.225,1.629109 0.545457,0.08944 1.095812,0.162915 1.640993,0.224115 -0.3132,-0.302732 -0.631192,-0.60538 -0.940184,-0.911824 -0.310096,-0.312784 -0.619253,-0.623852 -0.923981,-0.939433 z m 13.782684,0 c -0.304588,0.315084 -0.610284,0.627064 -0.924343,0.939377 -0.308269,0.306943 -0.626813,0.609343 -0.939514,0.916063 0.544594,-0.06064 1.095422,-0.134085 1.640573,-0.229792 0.08916,-0.5418 0.162,-1.083293 0.225,-1.629499 z m -19.827968,1.288884 c -0.08612,0.211816 -0.1602,0.425436 -0.232783,0.639831 -0.18,0.541605 -0.322449,1.101073 -0.429812,1.664029 -0.08861,0.490376 -0.135304,0.9815 -0.135304,1.47672 -0.018,0.528536 0.06812,1.058456 0.234884,1.557692 0.147019,0.416799 0.37814,0.796764 0.682783,1.113064 0.317797,0.30276 0.700617,0.53316 1.117635,0.6737 0.506769,0.168896 1.039042,0.252 1.567521,0.236715 0.502729,0 0.9972,-0.05316 1.486524,-0.134115 0.572316,-0.106827 1.134276,-0.250811 1.675468,-0.430284 0.220515,-0.07337 0.434132,-0.1512 0.648915,-0.230704 -0.287115,-0.750296 -0.545263,-1.505076 -0.759547,-2.274368 -0.267893,-0.946747 -0.489876,-1.91138 -0.666608,-2.879336 -0.979005,-0.1728 -1.946244,-0.39758 -2.899828,-0.666332 -0.773032,-0.211792 -1.53864,-0.464068 -2.289904,-0.750352 z m 25.8778,0 c -0.755867,0.285616 -1.517204,0.537036 -2.290657,0.74974 -0.9535,0.269392 -1.924615,0.492452 -2.900103,0.666444 -0.1746,0.967819 -0.398964,1.932452 -0.670156,2.879252 -0.213312,0.7699 -0.468139,1.524184 -0.760984,2.275007 0.214811,0.07976 0.43452,0.157485 0.648885,0.230677 0.546095,0.179112 1.108747,0.3235 1.676411,0.430448 0.49414,0.08861 0.987589,0.134115 1.486136,0.134115 0.533547,0.018 1.061251,-0.06592 1.568053,-0.236411 0.42156,-0.139819 0.800171,-0.371104 1.122591,-0.673836 0.304699,-0.316024 0.536783,-0.69602 0.678263,-1.112925 0.164409,-0.499406 0.248093,-1.02924 0.2358,-1.557887 0,-0.494861 -0.05063,-0.986233 -0.135306,-1.476611 -0.101572,-0.562761 -0.248982,-1.122148 -0.42986,-1.663948 -0.07256,-0.213285 -0.152392,-0.427013 -0.230677,-0.639913 z m -19.381824,1.634232 c 0.162,0.785548 0.347375,1.557221 0.567609,2.32538 0.199526,0.721024 0.437735,1.433188 0.704161,2.128624 0.687379,-0.281104 1.349198,-0.61394 1.993599,-0.976211 0.708728,-0.398132 1.405107,-0.819913 2.074846,-1.280685 -0.200107,-0.151504 -0.399462,-0.299104 -0.600566,-0.452076 -0.589789,-0.451828 -1.169472,-0.922016 -1.727833,-1.412559 -1.005148,-0.07309 -2.010988,-0.184789 -3.011816,-0.332473 z m 12.881328,0 c -1.0013,0.1512 -2.002128,0.261304 -3.00794,0.332473 -0.562264,0.490543 -1.143413,0.960731 -1.731876,1.412559 -0.198608,0.156019 -0.399184,0.30276 -0.601808,0.452076 0.670984,0.460772 1.367416,0.882553 2.075733,1.280685 0.644731,0.362271 1.311259,0.694858 1.994315,0.976211 0.270609,-0.695436 0.507269,-1.4076 0.708036,-2.128624 0.213896,-0.768159 0.40392,-1.539832 0.56354,-2.32538 z m -7.781456,0.443381 c 0.135304,0.112491 0.273904,0.213923 0.4086,0.320179 0.309017,0.2358 0.61812,0.468971 0.931652,0.699371 0.314584,-0.231619 0.623936,-0.460772 0.932428,-0.699371 0.135304,-0.105297 0.273904,-0.206389 0.40824,-0.320179 -0.446316,0.0241 -0.893325,0.02992 -1.340668,0.02992 -0.446456,0 -0.893244,-0.0056 -1.340252,-0.02992 z m 1.340252,2.517287 c -0.825008,0.575724 -1.684164,1.105616 -2.560624,1.59624 -0.687072,0.387388 -1.400565,0.742956 -2.13026,1.041092 0.258288,0.550552 0.54108,1.088004 0.858684,1.609061 0.352052,0.575751 0.768988,1.117052 1.246236,1.607595 0.374097,0.388856 0.811828,0.71316 1.29326,0.960148 0.4086,0.198 0.84168,0.303536 1.292704,0.311372 0.452051,-0.0084 0.889672,-0.117005 1.29362,-0.311372 0.481624,-0.245992 0.919244,-0.571292 1.293284,-0.960148 0.476972,-0.490543 0.893439,-1.031844 1.245684,-1.607595 0.318684,-0.521057 0.606488,-1.058509 0.859236,-1.609061 -0.72972,-0.298189 -1.439333,-0.653704 -2.127072,-1.041092 -0.879452,-0.490624 -1.740048,-1.020516 -2.564752,-1.59624 z"
     fill-rule="evenodd"
     id="path1-3"
     style="isolation:isolate;fill:#ccaaff;fill-opacity:1;stroke-width:0.366409" />
</svg>
