<?xml version="1.0" encoding="UTF-8" standalone="no"?>
<svg
   width="62"
   height="62"
   version="1.1"
   id="svg5"
   sodipodi:docname="com.github.bleakgrey.tootle.svg"
   inkscape:version="1.4 (unknown)"
   xmlns:inkscape="http://www.inkscape.org/namespaces/inkscape"
   xmlns:sodipodi="http://sodipodi.sourceforge.net/DTD/sodipodi-0.dtd"
   xmlns:xlink="http://www.w3.org/1999/xlink"
   xmlns="http://www.w3.org/2000/svg"
   xmlns:svg="http://www.w3.org/2000/svg">
  <defs
     id="defs5">
    <linearGradient
       id="linearGradient8"
       inkscape:collect="always">
      <stop
         style="stop-color:#003380;stop-opacity:1"
         offset="0"
         id="stop8" />
      <stop
         style="stop-color:#8d5fd3;stop-opacity:1"
         offset="1"
         id="stop10" />
    </linearGradient>
    <linearGradient
       id="linearGradient4217">
      <stop
         style="stop-color:#000000;stop-opacity:1;"
         offset="0"
         id="stop2" />
      <stop
         style="stop-color:#000000;stop-opacity:0;"
         offset="1"
         id="stop4" />
    </linearGradient>
    <linearGradient
       id="linearGradient4161">
      <stop
         style="stop-color:#334545;stop-opacity:1;"
         offset="0"
         id="stop7" />
      <stop
         style="stop-color:#4d6868;stop-opacity:1"
         offset="1"
         id="stop9" />
    </linearGradient>
    <linearGradient
       id="a-1-2"
       y1="510.79999"
       y2="527.14001"
       gradientUnits="userSpaceOnUse"
       x2="0">
      <stop
         stop-color="#7cbaf8"
         id="stop2-2-7" />
      <stop
         offset="1"
         stop-color="#f4fcff"
         id="stop4-70-0" />
    </linearGradient>
    <linearGradient
       id="c"
       y1="503.79999"
       x1="400.57001"
       y2="519.79999"
       x2="416.57001"
       gradientUnits="userSpaceOnUse">
      <stop
         stop-color="#292c2f"
         id="stop12" />
      <stop
         offset="1"
         stop-opacity="0"
         id="stop14" />
    </linearGradient>
    <linearGradient
       id="b"
       y1="542.79999"
       x1="408.57001"
       y2="521.79999"
       x2="387.57001"
       gradientUnits="userSpaceOnUse"
       gradientTransform="translate(-384.57,-499.8)">
      <stop
         stop-color="#197cf1"
         id="stop7-8" />
      <stop
         offset="1"
         stop-color="#20bcfa"
         id="stop9-7" />
    </linearGradient>
    <linearGradient
       xlink:href="#linearGradient1389"
       id="linearGradient4503-5-6"
       y1="37"
       y2="4"
       x2="0"
       gradientUnits="userSpaceOnUse"
       gradientTransform="matrix(1.0218446,0,0,0.99999999,21.748946,8.2587777)" />
    <linearGradient
       id="linearGradient1389">
      <stop
         style="stop-color:#ffaaaa;stop-opacity:1"
         id="stop1385"
         offset="0" />
      <stop
         offset="1"
         style="stop-color:#ff5555;stop-opacity:1"
         id="stop1387" />
    </linearGradient>
    <linearGradient
       id="paint543_linear_890_11"
       x1="978.5"
       y1="298"
       x2="978.5"
       y2="304"
       gradientUnits="userSpaceOnUse"
       gradientTransform="matrix(0.75000004,0,0,0.75000004,-717.38333,-173.49123)">
      <stop
         offset="0.189495"
         stop-color="#EFF2F6"
         id="stop1829" />
      <stop
         offset="0.850463"
         stop-color="#B7C6CD"
         id="stop1830" />
    </linearGradient>
    <linearGradient
       inkscape:collect="always"
       xlink:href="#linearGradient8"
       id="linearGradient10"
       x1="31.5"
       y1="59.017544"
       x2="31.5"
       y2="19.018715"
       gradientUnits="userSpaceOnUse"
       gradientTransform="translate(-0.5,-1)" />
    <linearGradient
       id="linearGradient4144">
      <stop
         style="stop-color:#c83771;stop-opacity:1"
         offset="0"
         id="stop1141" />
      <stop
         style="stop-color:#de87aa;stop-opacity:1"
         offset="1"
         id="stop1143" />
    </linearGradient>
    <linearGradient
       id="c-0"
       gradientUnits="userSpaceOnUse"
       x1="10"
       x2="24"
       y1="10"
       y2="24"
       gradientTransform="translate(59.728813,26.237288)">
      <stop
         offset="0"
         stop-color="#292c2f"
         id="stop12-2" />
      <stop
         offset="1"
         stop-opacity="0"
         id="stop14-3" />
    </linearGradient>
    <linearGradient
       id="d"
       gradientUnits="userSpaceOnUse"
       x1="24"
       x2="24"
       y1="25"
       y2="7"
       gradientTransform="translate(59.728813,26.237288)">
      <stop
         offset="0"
         stop-color="#bb9d71"
         id="stop2-7" />
      <stop
         offset="1"
         stop-color="#f9f2e7"
         id="stop4-5" />
    </linearGradient>
  </defs>
  <sodipodi:namedview
     id="namedview5"
     pagecolor="#ffffff"
     bordercolor="#000000"
     borderopacity="0.25"
     inkscape:showpageshadow="2"
     inkscape:pageopacity="0.0"
     inkscape:pagecheckerboard="0"
     inkscape:deskcolor="#d1d1d1"
     inkscape:zoom="8.2643105"
     inkscape:cx="25.228965"
     inkscape:cy="49.91342"
     inkscape:window-width="1920"
     inkscape:window-height="998"
     inkscape:window-x="0"
     inkscape:window-y="0"
     inkscape:window-maximized="1"
     inkscape:current-layer="svg5" />
  <rect
     style="opacity:0.2;stroke-width:0.9823"
     width="55"
     height="55.017544"
     x="3.5"
     y="3.9824562"
     rx="8.25"
     ry="8.2526312"
     id="rect1" />
  <rect
     style="fill:url(#linearGradient10);stroke-width:0.9823"
     width="55"
     height="55.017544"
     x="3.5"
     y="3"
     rx="8.25"
     ry="8.2526312"
     id="rect2" />
  <path
     style="opacity:0.1;fill:#ffffff;stroke-width:0.9823"
     d="M 11.748466,3 C 7.1779652,3 3.5,6.6791384 3.5,11.251097 v 0.982456 c 0,-4.5719585 3.6779652,-8.2510969 8.248466,-8.2510969 h 38.503068 c 4.5705,0 8.248466,3.6791384 8.248466,8.2510969 V 11.251097 C 58.5,6.6791384 54.822034,3 50.251534,3 Z"
     id="path4" />
  <path
     d="m 50.886037,22.948842 -8.013169,-9.268469 c -0.01284,-0.0098 -0.02175,-0.01902 -0.0332,-0.02793 -0.05119,-0.04065 -0.105011,-0.07356 -0.162592,-0.09768 -0.233012,-0.09768 -0.513384,-0.06595 -0.723351,0.10528 -0.122926,0.101478 -0.19844,0.235928 -0.229167,0.377994 -0.0062,0.01273 -0.0072,0.02669 -0.0098,0.04189 l -1.446693,7.792005 -5.360463,4.412889 c -0.03462,0.02793 -0.07165,0.0584 -0.105009,0.08752 l -1.821813,1.500565 -1.588804,1.307754 -0.667018,-0.76994 c -0.377716,-0.435071 -1.046014,-0.488345 -1.496663,-0.117985 -0.449369,0.370382 -0.510823,1.023632 -0.134431,1.45997 l 0.667017,0.769941 -1.535033,1.262094 -2.123955,-2.455691 2.378723,-1.958469 c 0.61069,-0.503562 0.691343,-1.390206 0.179244,-1.981296 -0.08066,-0.0964 -0.175403,-0.17758 -0.277822,-0.244807 l -0.148508,-0.08752 c -0.504462,-0.258751 -1.142034,-0.209288 -1.606769,0.172514 l -7.023517,5.781535 c -0.610689,0.503564 -0.692626,1.390208 -0.180518,1.982562 0.08066,0.09258 0.170274,0.173782 0.268855,0.239735 0.05118,0.03683 0.106263,0.06853 0.161308,0.09512 0.504426,0.256226 1.140713,0.206758 1.604169,-0.175045 l 2.377447,-1.955933 2.123963,2.455699 -1.692508,1.395277 -0.667023,-0.769942 c -0.377706,-0.435074 -1.048562,-0.488346 -1.497933,-0.117996 -0.117755,0.09768 -0.208683,0.2131 -0.273972,0.342484 -0.176677,0.356427 -0.136991,0.795308 0.140824,1.117493 l 0.667016,0.768671 -2.579727,2.123366 c -0.03462,0.02669 -0.07042,0.05703 -0.105009,0.08496 l -6.145263,5.055989 -2.478586,0.02288 c -0.0072,-9.97e-4 -0.01408,0 -0.01924,0 -0.0691,0.0026 -0.135712,0.02793 -0.193316,0.07355 -0.124173,0.102719 -0.149794,0.277782 -0.06138,0.407166 l 3.684599,4.259414 c 0.0088,0.0072 0.01668,0.01653 0.02558,0.02156 l 0.0052,0.0026 0.04608,0.02669 c 0.108845,0.05461 0.244537,0.04065 0.345673,-0.04065 0.05631,-0.04825 0.09217,-0.107839 0.107519,-0.175048 0,-0.0062 0.0026,-0.01092 0.0036,-0.01776 l 0.450647,-2.425255 2.458101,-2.024427 c 0.184362,0.764873 0.549237,1.499296 1.102311,2.138591 1.890945,2.186785 5.256755,2.451883 7.516423,0.591086 0.03462,-0.02793 0.07165,-0.05837 0.10501,-0.08752 l 2.57845,-2.123356 0.773278,0.894247 c 0.375117,0.435074 1.048534,0.487075 1.496626,0.117996 0.450649,-0.369119 0.510826,-1.024902 0.134426,-1.459975 l -0.773278,-0.892976 1.692507,-1.394013 2.254543,2.607905 c 0.526192,0.60758 1.456939,0.679885 2.085549,0.16236 0.175394,-0.14333 0.308541,-0.318378 0.395602,-0.507375 0.229164,-0.490882 0.166435,-1.085782 -0.211242,-1.523393 l -2.254545,-2.60664 1.535035,-1.263358 0.771994,0.892975 c 0.376404,0.435074 1.048541,0.489617 1.497912,0.117998 0.450651,-0.370385 0.508263,-1.024894 0.133147,-1.458705 l -0.773329,-0.894275 3.55785,-2.928821 c 0.244528,-0.206747 0.466015,-0.428729 0.663175,-0.665922 1.593927,-1.906458 1.633618,-4.694485 -0.03716,-6.626317 -0.55307,-0.639287 -1.232893,-1.113688 -1.974163,-1.421914 l 1.678423,-1.380044 8.161673,-0.08115 c 0.01668,0 0.03079,0 0.04485,-9.97e-4 0.14979,-0.0062 0.2983,-0.05703 0.419922,-0.157285 0.270138,-0.221974 0.322632,-0.603774 0.131873,-0.8841 z m -25.929166,21.34525 c -0.01535,0.0152 -0.03079,0.02669 -0.04732,0.04065 -1.016524,0.837167 -2.525957,0.717938 -3.376052,-0.266373 -0.848812,-0.981771 -0.716946,-2.45442 0.297018,-3.290324 l 2.688555,-2.21088 3.075189,3.556696 z m 4.267117,-3.511033 -3.076469,-3.557967 0.112678,-0.09008 1.582399,-1.302684 3.076473,3.556695 -0.361033,0.296815 z m 3.963694,-3.262417 -3.076472,-3.556695 1.535034,-1.263366 3.076471,3.556695 z m 6.362909,-5.243719 c -0.02175,0.02156 -0.04348,0.04189 -0.06659,0.06083 l -3.132799,2.578733 -3.076474,-3.556696 2.335204,-1.924221 0.748952,-0.615185 c 0.03966,-0.03173 0.08066,-0.06215 0.121597,-0.09388 1.010125,-0.733159 2.437619,-0.584752 3.254426,0.360233 0.720789,0.829557 0.73359,2.013005 0.107552,2.862856 -0.08324,0.116667 -0.180517,0.225791 -0.291897,0.327258 z"
     fill-rule="nonzero"
     id="path3-6"
     style="stroke-width:1.27429;fill:#f3f3f3;fill-opacity:1" />
</svg>
