<?xml version="1.0" encoding="UTF-8" standalone="no"?>
<svg
   width="62"
   height="62"
   viewBox="0 0 16.403844 16.403844"
   version="1.1"
   id="svg8"
   sodipodi:docname="com.github.dahenson.agenda.svg"
   inkscape:version="1.4 (unknown)"
   xmlns:inkscape="http://www.inkscape.org/namespaces/inkscape"
   xmlns:sodipodi="http://sodipodi.sourceforge.net/DTD/sodipodi-0.dtd"
   xmlns="http://www.w3.org/2000/svg"
   xmlns:svg="http://www.w3.org/2000/svg">
  <defs
     id="defs8" />
  <sodipodi:namedview
     id="namedview8"
     pagecolor="#ffffff"
     bordercolor="#000000"
     borderopacity="0.25"
     inkscape:showpageshadow="2"
     inkscape:pageopacity="0.0"
     inkscape:pagecheckerboard="0"
     inkscape:deskcolor="#d1d1d1"
     inkscape:zoom="6.0546875"
     inkscape:cx="32.619355"
     inkscape:cy="44.676129"
     inkscape:window-width="1920"
     inkscape:window-height="998"
     inkscape:window-x="0"
     inkscape:window-y="0"
     inkscape:window-maximized="1"
     inkscape:current-layer="svg8" />
  <g
     id="g8"
     transform="translate(-0.79326563,-0.79326561)">
    <rect
       width="14.816374"
       height="14.816374"
       x="1.587"
       y="1.587"
       rx="2.2798569"
       ry="2.2798569"
       id="rect1"
       style="stroke-width:1.0769;fill:#d9d9d9;fill-opacity:1" />
    <g
       stroke-linecap="round"
       stroke-linejoin="round"
       stroke-opacity="0.35"
       stroke-width="0.075"
       opacity="0.25"
       transform="matrix(1.0769278,0,0,1.0769278,-0.12208456,0.16330133)"
       id="g6">
      <rect
         width="12.171"
         height="0.132"
         x="2.381"
         y="3.9690001"
         opacity="1"
         rx="0"
         ry="0.066"
         id="rect2"
         style="fill:#000000;fill-opacity:1;opacity:1" />
      <rect
         width="12.171"
         height="0.132"
         x="2.381"
         y="6.085"
         opacity="1"
         rx="0"
         ry="0.066"
         id="rect3"
         style="fill:#000000;fill-opacity:1" />
      <rect
         width="12.171"
         height="0.132"
         x="2.381"
         y="8.2019997"
         opacity="1"
         rx="0"
         ry="0.066"
         id="rect4"
         style="fill:#000000;fill-opacity:1" />
      <rect
         width="12.171"
         height="0.132"
         x="2.381"
         y="10.054"
         opacity="1"
         rx="0"
         ry="0.066"
         id="rect5"
         style="fill:#000000;fill-opacity:1" />
      <rect
         width="12.171"
         height="0.132"
         x="2.381"
         y="12.171"
         opacity="1"
         rx="0"
         ry="0.066"
         id="rect6"
         style="fill:#000000;fill-opacity:1" />
    </g>
    <path
       d="m 5.0062462,1.587 h 0.142154 v 14.816375 h -0.142154 z"
       opacity="0.5"
       id="path6"
       style="stroke-width:1.0769;fill:#d94840;fill-opacity:1" />
    <path
       d="M 4.185627,4.8296298 3.39947,5.766557 2.974083,5.4090167 2.6886972,5.7493261 3.4543926,6.3922522 4.5248595,5.1160931 Z m 0,4.3421733 L 3.39947,10.10873 2.974083,9.7511902 2.6886972,10.0915 3.4543926,10.734429 4.5248595,9.4582655 Z m 0,2.2130859 -0.786157,0.935848 -0.425387,-0.35646 -0.2853858,0.339236 0.7656954,0.642925 1.0704669,-1.276163 z"
       opacity="0.2"
       id="path7"
       style="stroke-width:1.0769;fill:#1f9bff;fill-opacity:1;opacity:0.605" />
    <path
       d="m 12.35197,5.4036324 a 0.56000247,0.56000247 0 0 0 -0.792614,0.07 L 7.9451823,9.7813444 6.222098,8.3350304 A 0.56000247,0.56000247 0 0 0 5.4305557,8.4039531 L 4.7079369,9.2654958 a 0.56000247,0.56000247 0 0 0 0.068923,0.7926182 l 3.0153978,2.529701 a 0.56000247,0.56000247 0 0 0 0.792619,-0.07 L 13.28244,6.9188701 a 0.56000247,0.56000247 0 0 0 -0.0689,-0.7915424 z"
       id="path8"
       style="stroke-width:1.0769;fill:#008eff;fill-opacity:1" />
  </g>
</svg>
