<?xml version="1.0" encoding="UTF-8" standalone="no"?>
<svg
   width="62"
   height="62"
   version="1.1"
   id="svg7"
   sodipodi:docname="com.github.childishgiant.mixer.svg"
   inkscape:version="1.4 (unknown)"
   xmlns:inkscape="http://www.inkscape.org/namespaces/inkscape"
   xmlns:sodipodi="http://sodipodi.sourceforge.net/DTD/sodipodi-0.dtd"
   xmlns:xlink="http://www.w3.org/1999/xlink"
   xmlns="http://www.w3.org/2000/svg"
   xmlns:svg="http://www.w3.org/2000/svg">
  <defs
     id="defs7">
    <linearGradient
       id="linearGradient8"
       inkscape:collect="always">
      <stop
         style="stop-color:#cccccc;stop-opacity:1"
         offset="0"
         id="stop8" />
      <stop
         style="stop-color:#e5e5e5;stop-opacity:1;"
         offset="1"
         id="stop9" />
    </linearGradient>
    <linearGradient
       inkscape:collect="always"
       xlink:href="#linearGradient8"
       id="linearGradient9"
       x1="32.5"
       y1="59"
       x2="33.161289"
       y2="5"
       gradientUnits="userSpaceOnUse" />
  </defs>
  <sodipodi:namedview
     id="namedview7"
     pagecolor="#ffffff"
     bordercolor="#000000"
     borderopacity="0.25"
     inkscape:showpageshadow="2"
     inkscape:pageopacity="0.0"
     inkscape:pagecheckerboard="0"
     inkscape:deskcolor="#d1d1d1"
     inkscape:zoom="12.109375"
     inkscape:cx="32"
     inkscape:cy="32"
     inkscape:window-width="1920"
     inkscape:window-height="998"
     inkscape:window-x="0"
     inkscape:window-y="0"
     inkscape:window-maximized="1"
     inkscape:current-layer="svg7" />
  <g
     id="g7"
     transform="translate(-1.5,-1)">
    <rect
       style="opacity:0.2"
       width="55"
       height="55"
       x="5"
       y="5"
       rx="4.125"
       ry="4.125"
       id="rect1" />
    <rect
       style="fill:url(#linearGradient9)"
       width="55"
       height="55"
       x="5"
       y="4"
       rx="4.125"
       ry="4.125"
       id="rect2" />
    <path
       style="fill:none;stroke:#2d3d53;stroke-width:3;stroke-linecap:round;stroke-opacity:1"
       d="m 18.5,16.5 v 30"
       id="path2" />
    <path
       style="fill:none;stroke:#2d3d53;stroke-width:3;stroke-linecap:round;stroke-opacity:1"
       d="m 32.5,16.5 v 30"
       id="path3" />
    <path
       style="fill:none;stroke:#2d3d53;stroke-width:3;stroke-linecap:round;stroke-opacity:1"
       d="m 46.5,16.5 v 30"
       id="path4" />
    <path
       style="opacity:0.1"
       d="M 14.599609,22 C 14.267209,22 14,22.267209 14,22.599609 V 33.400391 C 14,33.732791 14.267209,34 14.599609,34 h 7.800782 C 22.732791,34 23,33.732791 23,33.400391 V 22.599609 C 23,22.267209 22.732791,22 22.400391,22 Z m 28,5 C 42.267209,27 42,27.267209 42,27.599609 V 38.400391 C 42,38.732791 42.267209,39 42.599609,39 h 7.800782 C 50.732791,39 51,38.732791 51,38.400391 V 27.599609 C 51,27.267209 50.732791,27 50.400391,27 Z m -14,7 C 28.267209,34 28,34.267209 28,34.599609 V 45.400391 C 28,45.732791 28.267209,46 28.599609,46 h 7.800782 C 36.732791,46 37,45.732791 37,45.400391 V 34.599609 C 37,34.267209 36.732791,34 36.400391,34 Z"
       id="path5" />
    <rect
       style="fill:#c83771"
       width="9"
       height="12"
       x="42"
       y="26"
       ry="0.60000002"
       id="rect5" />
    <rect
       style="fill:#ffcc00"
       width="9"
       height="12"
       x="28"
       y="33"
       ry="0.60000002"
       id="rect6" />
    <rect
       style="fill:#2a7fff"
       width="9"
       height="12"
       x="14"
       y="21"
       ry="0.60000002"
       id="rect7" />
    <path
       style="opacity:0.2;fill:#ffffff"
       d="M 9.125,4 C 6.83975,4 5,5.83975 5,8.125 v 1 C 5,6.83975 6.83975,5 9.125,5 h 46.75 C 58.16025,5 60,6.83975 60,9.125 v -1 C 60,5.83975 58.16025,4 55.875,4 Z"
       id="path7" />
  </g>
</svg>
