<?xml version="1.0" encoding="UTF-8" standalone="no"?>
<svg
   width="62"
   height="62"
   version="1.1"
   id="svg5"
   sodipodi:docname="com.apps.snipcommand.svg"
   inkscape:version="1.4 (unknown)"
   xmlns:inkscape="http://www.inkscape.org/namespaces/inkscape"
   xmlns:sodipodi="http://sodipodi.sourceforge.net/DTD/sodipodi-0.dtd"
   xmlns="http://www.w3.org/2000/svg"
   xmlns:svg="http://www.w3.org/2000/svg">
  <defs
     id="defs5">
    <linearGradient
       id="paint1_linear_335_176"
       x1="180.987"
       y1="163.291"
       x2="125.995"
       y2="71.064003"
       gradientUnits="userSpaceOnUse"
       gradientTransform="matrix(0.38181789,0,0,0.38181789,-67.240522,-23.8934)">
      <stop
         stop-color="#248EFE"
         id="stop4" />
      <stop
         offset="1"
         stop-color="#1DF4FF"
         id="stop5" />
    </linearGradient>
    <linearGradient
       id="paint1_linear_54_96"
       x1="34.209"
       y1="12"
       x2="15.3653"
       y2="41.580898"
       gradientUnits="userSpaceOnUse">
      <stop
         stop-color="#DE00C0"
         id="stop3" />
      <stop
         offset="1"
         stop-color="#8720FF"
         id="stop4-3" />
    </linearGradient>
  </defs>
  <sodipodi:namedview
     id="namedview5"
     pagecolor="#ffffff"
     bordercolor="#000000"
     borderopacity="0.25"
     inkscape:showpageshadow="2"
     inkscape:pageopacity="0.0"
     inkscape:pagecheckerboard="0"
     inkscape:deskcolor="#d1d1d1"
     inkscape:zoom="5.84375"
     inkscape:cx="-8.0427807"
     inkscape:cy="43.208556"
     inkscape:window-width="1920"
     inkscape:window-height="998"
     inkscape:window-x="0"
     inkscape:window-y="0"
     inkscape:window-maximized="1"
     inkscape:current-layer="svg5" />
  <rect
     style="opacity:0.2;stroke-width:0.9823"
     width="55"
     height="55.017544"
     x="4"
     y="4.9824562"
     rx="8.25"
     ry="8.2526312"
     id="rect1" />
  <rect
     style="fill:#233143;stroke-width:0.9823;fill-opacity:1"
     width="55"
     height="55.017544"
     x="4"
     y="4"
     rx="8.25"
     ry="8.2526312"
     id="rect2" />
  <path
     style="opacity:0.1;fill:#ffffff;stroke-width:0.9823"
     d="M 12.248466,4 C 7.6779652,4 4,7.6791384 4,12.251097 v 0.982456 C 4,8.6615945 7.6779652,4.9824561 12.248466,4.9824561 H 50.751534 C 55.322034,4.9824561 59,8.6615945 59,13.233553 V 12.251097 C 59,7.6791384 55.322034,4 50.751534,4 Z"
     id="path4" />
  <g
     id="svg6"
     transform="matrix(1.2423921,0,0,1.2382107,1.6825896,2.2270106)">
    <path
       d="m 18.6667,13 c 0,-0.5523 -0.4488,-1.0039 -1.0004,-0.9781 -1.9442,0.0912 -3.109,0.4673 -4.221,1.1443 -1.28,0.7751 -1.8897,2.0107 -1.8897,3.6676 V 20 c 0,0.9884 -0.4409,1.6782 -1.2214,2.1671 C 9.77563,22.5141 9.64017,22.7666 8.99719,22.879 8.45316,22.9741 8,23.3917 8,23.944 v 1.0009 c 0,0.5523 0.45021,0.9903 1.00005,1.0422 2.23975,0.2114 2.55555,1.2137 2.55555,2.9569 v 2.7236 c 0,1.8151 0.5813,3.1911 1.7777,4 1.0491,0.7107 2.2365,1.0924 4.3254,1.1942 0.5547,0.027 1.008,-0.4254 1.008,-0.9807 v -0.8966 c 0,-0.5462 -0.4408,-0.9779 -0.9817,-1.0536 C 16.9284,33.825 16.4389,33.6022 16,33.2782 15.3956,32.832 15.1111,32.2044 15.1111,31.3333 v -2.9991 c 0,-2.1055 -1.0373,-3.3605 -3.6661,-3.7614 -0.0634,-0.0096 -0.1117,-0.064 -0.1117,-0.1282 v 0 c 0,-0.0635 0.0475,-0.1176 0.1101,-0.1279 2.63,-0.4343 3.6677,-1.7322 3.6677,-3.8171 v -2.944 c 0,-0.8712 0.2845,-1.4543 0.8889,-1.888 0.4502,-0.3266 0.947,-0.5637 1.7099,-0.6882 0.5299,-0.0865 0.9568,-0.5148 0.9568,-1.0518 z m 11.667,-0.9781 C 29.7821,11.9961 29.3333,12.4477 29.3333,13 v 0.9276 c 0,0.537 0.4269,0.9653 0.9568,1.0518 0.7629,0.1245 1.2597,0.3616 1.7099,0.6882 0.6044,0.4337 0.8889,1.0168 0.8889,1.888 v 2.944 c 0,2.0849 1.0377,3.3828 3.6677,3.8171 0.0626,0.0103 0.1101,0.0644 0.1101,0.1279 v 0 c 0,0.0642 -0.0483,0.1186 -0.1117,0.1282 -2.6288,0.4009 -3.6661,1.6559 -3.6661,3.7614 v 2.9991 c 0,0.8711 -0.2845,1.4987 -0.8889,1.9449 -0.4389,0.324 -0.9284,0.5468 -1.685,0.6527 -0.5409,0.0757 -0.9817,0.5074 -0.9817,1.0536 v 0.8966 c 0,0.5553 0.4533,1.0077 1.008,0.9807 2.0889,-0.1018 3.2763,-0.4835 4.3254,-1.1942 1.1964,-0.8089 1.7777,-2.1849 1.7777,-4 V 28.944 c 0,-1.7432 0.3158,-2.7455 2.5556,-2.9569 0.5498,-0.0519 1,-0.4899 1,-1.0422 V 23.944 C 40,23.3917 39.5468,22.9741 39.0028,22.879 38.36,22.7666 38.2248,22.5141 37.6676,22.1671 36.8853,21.6782 36.4444,20.9884 36.4444,20 v -3.1662 c 0,-1.6569 -0.6097,-2.8925 -1.888,-3.6676 -1.1135,-0.677 -2.2785,-1.0531 -4.2227,-1.1443 z"
       id="path1"
       style="fill:#8d5fd3" />
  </g>
</svg>
