<?xml version="1.0" encoding="UTF-8" standalone="no"?>
<svg
   width="62"
   height="62"
   version="1.1"
   id="svg13"
   sodipodi:docname="com.github.babluboy.nutty.svg"
   inkscape:version="1.4 (e7c3feb100, 2024-10-09)"
   xmlns:inkscape="http://www.inkscape.org/namespaces/inkscape"
   xmlns:sodipodi="http://sodipodi.sourceforge.net/DTD/sodipodi-0.dtd"
   xmlns="http://www.w3.org/2000/svg"
   xmlns:svg="http://www.w3.org/2000/svg">
  <defs
     id="defs13" />
  <sodipodi:namedview
     id="namedview13"
     pagecolor="#ffffff"
     bordercolor="#000000"
     borderopacity="0.25"
     inkscape:showpageshadow="2"
     inkscape:pageopacity="0.0"
     inkscape:pagecheckerboard="0"
     inkscape:deskcolor="#d1d1d1"
     inkscape:zoom="11.75"
     inkscape:cx="32"
     inkscape:cy="32"
     inkscape:window-width="1920"
     inkscape:window-height="998"
     inkscape:window-x="0"
     inkscape:window-y="0"
     inkscape:window-maximized="1"
     inkscape:current-layer="svg13" />
  <g
     transform="matrix(0.9814239,0,0,0.98245614,-0.40711952,-1040.879)"
     id="g13">
    <path
       style="opacity:0.2"
       d="m 32.00161,1067.1672 -22.9999641,11.5 v 1.8514 23.8555 l 19.9999691,10 v 0.144 h 0.289061 l 2.710934,1.3556 2.710934,-1.3556 h 0.289062 v -0.144 l 19.999969,-10 v -25.7069 z m -2.999995,8.207 v 11.8476 l -10.773421,-6.461 z m 5.999991,0 10.769515,5.3866 -10.769515,6.461 z m -19.999969,10.4452 10.769515,6.461 -10.769515,5.3868 z m 33.999947,0 v 11.8478 l -10.769515,-5.3868 z m -19.999969,11.5548 v 10.2929 l -10.292953,-5.1486 z m 5.999991,0 10.292952,5.1443 -10.292952,5.1486 z"
       id="path1" />
    <path
       style="fill:none;stroke:#364451;stroke-width:5.99999"
       d="m 32.001498,1069.5204 v 22"
       id="path2" />
    <path
       style="fill:none;stroke:#364451;stroke-width:5.99999"
       d="m 12.00153,1101.5204 19.999968,-10 19.999969,10"
       id="path3" />
    <path
       style="fill:none;stroke:#7e8f99;stroke-width:5.99999"
       d="m 12.00153,1079.5204 19.999968,12 19.999969,-12"
       id="path4" />
    <path
       style="fill:none;stroke:#7e8f99;stroke-width:5.99999"
       d="m 32.001498,1113.5203 v -21.9999"
       id="path5" />
    <path
       style="fill:none;stroke:#53626c;stroke-width:5.99999"
       d="m 12.00153,1079.5204 19.999968,-10 19.999819,9.9998 v 22 l -19.999819,10.0001 -19.999968,-9.9999 z"
       id="path6" />
    <path
       style="opacity:0.2"
       d="m 32.00161,1063.5198 c -3.865988,0 -6.999991,3.134 -6.999989,7 -2e-6,3.866 3.134001,7 6.999989,7 3.865988,0 6.999991,-3.134 6.999989,-7 2e-6,-3.866 -3.134001,-7 -6.999989,-7 z m 19.835908,10.004 c -1.172635,0.026 -2.319737,0.3478 -3.335933,0.9336 -3.348301,1.9328 -4.495595,6.2142 -2.562496,9.5624 1.932853,3.3484 6.21426,4.4958 9.562485,2.5626 3.348421,-1.9328 4.495733,-6.2144 2.562496,-9.5626 -1.280374,-2.216 -3.668006,-3.5566 -6.226552,-3.496 z m -40.167907,0 c -2.3807809,0.114 -4.5400918,1.431 -5.7304604,3.496 -1.9333214,3.3482 -0.7859929,7.6298 2.5624961,9.5626 3.3482133,1.9332 7.6296853,0.7858 9.5624853,-2.5626 1.933185,-3.3482 0.785873,-7.6296 -2.562496,-9.5624 -1.161849,-0.6708 -2.491975,-0.9934 -3.832025,-0.9298 z m 20.331999,11.996 c -3.865988,0 -6.999991,3.134 -6.999989,7 -2e-6,3.866 3.134001,7 6.999989,7 3.865988,0 6.999991,-3.134 6.999989,-7 2e-6,-3.866 -3.134001,-7 -6.999989,-7 z m -20.164031,10.004 c -1.172634,0.026 -2.3197353,0.3478 -3.3359323,0.9336 -3.3482934,1.9328 -4.4955869,6.2141 -2.5624961,9.5623 1.9328579,3.3484 6.2142594,4.4958 9.5624854,2.5626 3.348413,-1.9328 4.495723,-6.2144 2.562496,-9.5625 -1.280377,-2.216 -3.668008,-3.5566 -6.226553,-3.496 z m 39.831969,0 c -2.380009,0.112 -4.539141,1.4288 -5.730459,3.4922 -1.933237,3.3481 -0.785925,7.6297 2.562496,9.5625 3.348224,1.9332 7.629632,0.7858 9.562485,-2.5626 1.933099,-3.3482 0.785805,-7.6295 -2.562496,-9.5623 -1.161852,-0.6708 -2.491976,-0.9934 -3.832026,-0.9298 z m -19.667938,9.9959 c -3.865988,0 -6.999989,3.134 -6.999989,7 0,3.866 3.134001,7 6.999989,7 3.865988,0 6.999989,-3.134 6.999989,-7 0,-3.866 -3.134001,-7 -6.999989,-7 z"
       id="path7" />
    <circle
       style="fill:#6dc381"
       cx="32.000999"
       cy="1069.52"
       r="7"
       id="circle7" />
    <circle
       style="fill:#6dc381"
       cx="32.000999"
       cy="1111.52"
       r="7"
       id="circle8" />
    <circle
       style="fill:#6dc381"
       cx="960.89301"
       cy="494.72501"
       r="7"
       transform="rotate(59.999999)"
       id="circle9" />
    <circle
       style="fill:#6dc381"
       cx="959.94501"
       cy="540.36603"
       r="7"
       transform="rotate(59.999999)"
       id="circle10" />
    <circle
       style="fill:#6dc381"
       cx="927.94397"
       cy="-595.79498"
       r="7"
       transform="rotate(120)"
       id="circle11" />
    <circle
       style="fill:#6dc381"
       cx="928.89099"
       cy="-550.15399"
       r="7"
       transform="rotate(120)"
       id="circle12" />
    <circle
       style="fill:#6dc381"
       cx="32.000999"
       cy="1091.52"
       r="7"
       id="circle13" />
    <path
       style="opacity:0.2;fill:#ffffff"
       transform="translate(0,1058.5197)"
       d="m 32.001953,4 c -3.865988,0 -7.000002,3.134 -7,7 0.001,0.128162 0.02319,0.254952 0.03125,0.382812 C 25.346586,7.8068033 28.344595,5 32.001953,5 c 3.66397,0 6.664548,2.8170821 6.96875,6.402344 0.0084,-0.134347 0.03064,-0.267644 0.03125,-0.402344 2e-6,-3.866 -3.134012,-7 -7,-7 z M 12.166016,13.998047 V 14 c -0.165404,0 -0.330874,-9.34e-4 -0.496094,0.0098 -2.3800156,0.1129 -4.5391669,1.428687 -5.7304689,3.492187 -0.6931488,1.205106 -0.984408,2.585709 -0.890625,3.964844 0.078414,-1.036767 0.3658357,-2.052447 0.890625,-2.964844 C 7.1307551,16.438487 9.2899064,15.1227 11.669922,15.0098 11.835142,14.999066 12.000612,15 12.166016,15 v -0.002 c 1.172976,0.028 2.320105,0.3503 3.335937,0.9375 2.032493,1.17574 3.29035,3.272708 3.457031,5.550781 C 19.146103,18.833722 17.829641,16.282003 15.501953,14.9355 14.486121,14.3483 13.338992,14.026 12.166016,13.998 Z M 51.837891,14 c -1.172635,0.027 -2.31974,0.347794 -3.335938,0.933594 -2.325549,1.345554 -3.642661,3.894991 -3.457031,6.546875 0.167747,-2.277113 1.42644,-4.371983 3.457031,-5.546875 C 49.518151,15.347794 50.665256,15.027 51.837891,15 c 2.558564,-0.0605 4.946212,1.280094 6.226562,3.496094 0.528504,0.915628 0.818126,1.935346 0.896485,2.976562 0.0946,-1.383557 -0.199157,-2.768448 -0.896485,-3.976562 C 56.784103,15.280094 54.396455,13.9395 51.837891,14 Z M 32.001953,25.996094 c -3.865988,0 -7.000002,3.134 -7,7 0.001,0.1282 0.02319,0.254955 0.03125,0.382812 0.313383,-3.576009 3.311392,-6.382812 6.96875,-6.382812 3.66397,0 6.664548,2.817082 6.96875,6.402344 0.0084,-0.134347 0.03065,-0.267644 0.03125,-0.402344 2e-6,-3.866 -3.134012,-7 -7,-7 z m -20.164062,10 c -1.172633,0.027 -2.3197403,0.347893 -3.3359379,0.933594 -2.3255452,1.345648 -3.6426586,3.894917 -3.4570312,6.546874 0.167749,-2.277147 1.4264435,-4.3719 3.4570312,-5.546874 1.0161976,-0.585701 2.1633049,-0.906594 3.3359379,-0.933594 2.558564,-0.0606 4.946209,1.280094 6.226562,3.496094 0.528504,0.915628 0.818126,1.935316 0.896485,2.976562 0.0946,-1.383575 -0.199158,-2.768448 -0.896485,-3.976562 -1.280353,-2.216 -3.667998,-3.556694 -6.226562,-3.496094 z m 40.328125,0 c -0.1654,0 -0.330874,-8.35e-4 -0.496094,0.0098 -2.380007,0.113 -4.539147,1.428688 -5.730469,3.492188 -0.6932,1.205665 -0.984887,2.587214 -0.890625,3.966797 0.07813,-1.037201 0.365761,-2.053916 0.890625,-2.966797 1.191322,-2.0635 3.350462,-3.379188 5.730469,-3.492188 0.16522,-0.0106 0.330694,-0.0098 0.496094,-0.0098 v 0.002 c 1.172974,0.028 2.320102,0.3504 3.335937,0.9375 2.032468,1.175822 3.290331,3.272761 3.457031,5.550781 0.187086,-2.652476 -1.129371,-5.204185 -3.457031,-6.550781 -1.015835,-0.5871 -2.162963,-0.9095 -3.335937,-0.9375 z m -20.164063,9.996094 c -3.865988,0 -7,3.134 -7,7 0.001,0.1282 0.02319,0.254955 0.03125,0.382812 0.313385,-3.576009 3.311392,-6.382812 6.96875,-6.382812 3.66397,0 6.664547,2.817082 6.96875,6.402343 0.0084,-0.134346 0.03064,-0.267643 0.03125,-0.402343 0,-3.866 -3.134012,-7 -7,-7 z"
       id="path13" />
  </g>
</svg>
