<?xml version="1.0" encoding="UTF-8" standalone="no"?>
<svg
   width="62"
   height="62"
   version="1.1"
   id="svg5"
   sodipodi:docname="com.github.bartzaalberg.php-tester.svg"
   inkscape:version="1.4 (e7c3feb100, 2024-10-09)"
   xmlns:inkscape="http://www.inkscape.org/namespaces/inkscape"
   xmlns:sodipodi="http://sodipodi.sourceforge.net/DTD/sodipodi-0.dtd"
   xmlns="http://www.w3.org/2000/svg"
   xmlns:svg="http://www.w3.org/2000/svg">
  <defs
     id="defs5" />
  <sodipodi:namedview
     id="namedview5"
     pagecolor="#ffffff"
     bordercolor="#000000"
     borderopacity="0.25"
     inkscape:showpageshadow="2"
     inkscape:pageopacity="0.0"
     inkscape:pagecheckerboard="0"
     inkscape:deskcolor="#d1d1d1"
     inkscape:zoom="11.6875"
     inkscape:cx="31.914439"
     inkscape:cy="32.941176"
     inkscape:window-width="1920"
     inkscape:window-height="998"
     inkscape:window-x="0"
     inkscape:window-y="0"
     inkscape:window-maximized="1"
     inkscape:current-layer="svg5" />
  <rect
     style="opacity:0.2;stroke-width:0.9823"
     width="55"
     height="55.017544"
     x="3.5"
     y="3.9824562"
     rx="8.25"
     ry="8.2526312"
     id="rect1" />
  <rect
     style="fill:#343e65;stroke-width:0.9823;fill-opacity:1"
     width="55"
     height="55.017544"
     x="3.5"
     y="3"
     rx="8.25"
     ry="8.2526312"
     id="rect2" />
  <path
     style="opacity:0.1;fill:#ffffff;stroke-width:0.9823"
     d="M 11.748466,3 C 7.1779651,3 3.4999999,6.6791384 3.4999999,11.251097 v 0.982456 c 0,-4.5719585 3.6779652,-8.2510968 8.2484661,-8.2510968 h 38.503068 c 4.5705,0 8.248466,3.6791383 8.248466,8.2510968 V 11.251097 C 58.5,6.6791384 54.822034,3 50.251534,3 Z"
     id="path4" />
  <g
     id="g1"
     transform="translate(-7.3410092e-8,-0.517543)">
    <path
       style="opacity:0.2;isolation:isolate;fill-rule:evenodd;stroke-width:1.05408"
       d="m 28.50576,23.070254 c -0.880619,4.66562 -1.90264,10.04891 -2.783257,14.710078 h 2.944066 c 0.50733,-2.676243 1.007585,-5.749217 1.509145,-8.394305 1.001693,0 1.951799,-0.03481 2.898718,0.0078 0.931065,0.04156 1.284835,0.507395 1.127731,1.449422 -0.216192,1.284712 -0.469342,2.986335 -0.707149,4.268079 -0.164313,0.884171 -0.332154,1.769603 -0.505114,2.695306 0.964221,-2e-6 1.887647,0.0024 2.810065,-0.01232 0.07491,-0.0014 0.194845,-0.124254 0.216474,-0.211758 0.08217,-0.32934 0.13182,-0.670075 0.193794,-1.005345 0.354557,-1.904818 0.733975,-4.017932 1.059703,-5.927203 0.286813,-1.685259 -0.388255,-2.756383 -1.989519,-3.106489 -0.75811,-0.166154 -1.551398,-0.186427 -2.329689,-0.22204 -0.769639,-0.03562 -1.542152,-0.0059 -2.34206,-0.0059 0.234925,-1.253503 0.607059,-3.003717 0.839102,-4.245409 z m -13.182339,4.214627 c -0.09418,0 -0.189058,0.01365 -0.290697,0.02258 C 14.119424,31.970388 12.913299,37.353137 12,42.017543 h 3.076015 c 0.231692,-1.171663 0.76235,-2.728717 0.973113,-3.869231 0.04035,-0.219504 0.128285,-0.272865 0.336053,-0.271383 1.010459,0.0042 2.023193,0.02599 3.030661,-0.01848 0.635271,-0.02817 1.275279,-0.111313 1.892615,-0.261102 2.312393,-0.56062 4.653514,-3.325215 4.393428,-6.792746 -0.133036,-1.778255 -1.146855,-2.877627 -2.898716,-3.301799 -0.533628,-0.130516 -1.092514,-0.202289 -1.641089,-0.209705 -1.946179,-0.02374 -3.892487,-0.0078 -5.838659,-0.0078 z m 24.278267,0 c -0.09418,0 -0.189052,0.01365 -0.290694,0.02258 -0.9133,4.662927 -2.119424,10.045676 -3.032725,14.710082 h 3.076019 c 0.231691,-1.171663 0.762349,-2.728717 0.97311,-3.869231 0.04035,-0.219504 0.128281,-0.272865 0.336054,-0.271383 1.010457,0.0042 2.023191,0.02599 3.03066,-0.01848 0.635273,-0.02817 1.275279,-0.111313 1.892615,-0.261102 2.312393,-0.56062 4.653517,-3.325215 4.393427,-6.792746 -0.133032,-1.778255 -1.146856,-2.877627 -2.898712,-3.301799 -0.53363,-0.130516 -1.092514,-0.202289 -1.641092,-0.209705 -1.946181,-0.02374 -3.892485,-0.0078 -5.838662,-0.0078 z M 17.698466,29.42509 c 1.16292,0.06821 2.309199,0.06932 3.434749,0.222038 0.985049,0.134965 1.404619,0.70015 1.362765,1.687906 -0.02686,0.602149 -0.137719,1.526842 -0.305128,2.105259 -0.372193,1.287343 -1.290769,2.003188 -2.612136,2.138151 -0.986545,0.100818 -1.987011,0.08799 -3.051279,0.129525 0.396114,-2.020008 0.776415,-4.268806 1.171029,-6.282879 z m 24.278271,0 c 1.162922,0.06821 2.309195,0.06932 3.434749,0.222038 0.985046,0.134965 1.404619,0.70015 1.362765,1.687906 -0.02687,0.602149 -0.137721,1.526842 -0.305127,2.105259 -0.372194,1.287343 -1.290771,2.003188 -2.612141,2.138151 -0.986539,0.100818 -1.987008,0.08799 -3.051277,0.129525 0.396113,-2.020008 0.776414,-4.268806 1.171031,-6.282879 z"
       id="path2-6" />
    <path
       style="isolation:isolate;fill:#ffffff;fill-rule:evenodd;stroke-width:1.05408"
       d="m 28.50576,22.017624 c -0.880619,4.665621 -1.90264,10.04891 -2.783257,14.710078 h 2.944066 c 0.50733,-2.67624 1.007585,-5.749218 1.509145,-8.394302 1.001693,0 1.951799,-0.03484 2.898718,0.0078 0.931065,0.04156 1.284835,0.507395 1.127731,1.44942 -0.216192,1.284714 -0.469342,2.986335 -0.707149,4.268082 -0.164313,0.884167 -0.332154,1.7696 -0.505114,2.695305 0.964221,-2e-6 1.887647,0.0024 2.810065,-0.01232 0.07491,-0.0014 0.194845,-0.124255 0.216474,-0.211758 0.08217,-0.329339 0.13182,-0.670074 0.193794,-1.005345 0.354557,-1.904816 0.733975,-4.017933 1.059703,-5.927203 0.286813,-1.68526 -0.388255,-2.756382 -1.989519,-3.10649 -0.75811,-0.166152 -1.551398,-0.186426 -2.329689,-0.222039 -0.769639,-0.03562 -1.542152,-0.0059 -2.34206,-0.0059 0.234925,-1.253501 0.607059,-3.003718 0.839102,-4.245409 z m -13.182339,4.214627 c -0.09418,0 -0.189058,0.01365 -0.290697,0.02258 C 14.119424,30.917758 12.913299,36.300508 12,40.964913 h 3.076015 c 0.231692,-1.171663 0.76235,-2.728717 0.973113,-3.869231 0.04035,-0.219504 0.128285,-0.272864 0.336053,-0.271383 1.010459,0.0042 2.023193,0.02599 3.030661,-0.01848 0.635271,-0.02817 1.275279,-0.111316 1.892615,-0.261105 2.312393,-0.56062 4.653514,-3.325214 4.393428,-6.792743 -0.133036,-1.778258 -1.146855,-2.877629 -2.898716,-3.301799 -0.533628,-0.130519 -1.092514,-0.20229 -1.641089,-0.209708 -1.946179,-0.02374 -3.892487,-0.0078 -5.838659,-0.0078 z m 24.278267,0 c -0.09418,0 -0.189052,0.01365 -0.290694,0.02258 -0.9133,4.662927 -2.119424,10.045677 -3.032725,14.710082 h 3.076019 c 0.231691,-1.171663 0.762349,-2.728717 0.97311,-3.869231 0.04035,-0.219504 0.128281,-0.272864 0.336054,-0.271383 1.010457,0.0042 2.023191,0.02599 3.03066,-0.01848 0.635273,-0.02817 1.275279,-0.111316 1.892615,-0.261105 2.312393,-0.56062 4.653517,-3.325214 4.393427,-6.792743 -0.133032,-1.778258 -1.146856,-2.877629 -2.898712,-3.301799 -0.53363,-0.130519 -1.092514,-0.20229 -1.641092,-0.209708 -1.946181,-0.02374 -3.892485,-0.0078 -5.838662,-0.0078 z M 17.698466,28.37246 c 1.16292,0.06821 2.309199,0.06932 3.434749,0.222041 0.985049,0.134963 1.404619,0.70015 1.362765,1.687906 -0.02686,0.602147 -0.137719,1.52684 -0.305128,2.105257 -0.372193,1.287345 -1.290769,2.003189 -2.612136,2.13815 -0.986545,0.100848 -1.987011,0.08799 -3.051279,0.129526 0.396114,-2.020006 0.776415,-4.268806 1.171029,-6.28288 z m 24.278271,0 c 1.162922,0.06821 2.309195,0.06932 3.434749,0.222041 0.985046,0.134963 1.404619,0.70015 1.362765,1.687906 -0.02687,0.602147 -0.137721,1.52684 -0.305127,2.105257 -0.372194,1.287345 -1.290771,2.003189 -2.612141,2.13815 -0.986539,0.100848 -1.987008,0.08799 -3.051277,0.129526 0.396113,-2.020006 0.776414,-4.268806 1.171031,-6.28288 z"
       id="path3-7" />
  </g>
</svg>
