<?xml version="1.0" encoding="UTF-8" standalone="no"?>
<svg
   width="62"
   height="62"
   version="1"
   id="svg7"
   sodipodi:docname="com.github.cjfloss.envelope.svg"
   inkscape:version="1.4 (e7c3feb100, 2024-10-09)"
   xmlns:inkscape="http://www.inkscape.org/namespaces/inkscape"
   xmlns:sodipodi="http://sodipodi.sourceforge.net/DTD/sodipodi-0.dtd"
   xmlns:xlink="http://www.w3.org/1999/xlink"
   xmlns="http://www.w3.org/2000/svg"
   xmlns:svg="http://www.w3.org/2000/svg">
  <defs
     id="defs7">
    <linearGradient
       id="linearGradient7"
       inkscape:collect="always">
      <stop
         style="stop-color:#1b722f;stop-opacity:1"
         offset="0"
         id="stop8" />
      <stop
         style="stop-color:#228c3a;stop-opacity:1"
         offset="0.58519185"
         id="stop10" />
      <stop
         style="stop-color:#eff2f6;stop-opacity:1;"
         offset="0.86599815"
         id="stop11" />
      <stop
         style="stop-color:#eff2f6;stop-opacity:1;"
         offset="1"
         id="stop9" />
    </linearGradient>
    <linearGradient
       id="linearGradient1"
       inkscape:collect="always">
      <stop
         style="stop-color:#1e7b33;stop-opacity:1;"
         offset="0"
         id="stop5" />
      <stop
         style="stop-color:#1b722f;stop-opacity:1"
         offset="0.25046653"
         id="stop7" />
      <stop
         style="stop-color:#228c3a;stop-opacity:1"
         offset="0.91934216"
         id="stop12" />
      <stop
         style="stop-color:#24963e;stop-opacity:1;"
         offset="1"
         id="stop6" />
    </linearGradient>
    <linearGradient
       id="c-3"
       gradientUnits="userSpaceOnUse"
       x1="24.072048"
       x2="23.959682"
       y1="0.75082099"
       y2="46.056854">
      <stop
         offset="0"
         stop-color="#fff"
         id="stop3" />
      <stop
         offset="1"
         stop-color="#d9d9d9"
         id="stop4" />
    </linearGradient>
    <linearGradient
       id="b-6"
       gradientUnits="userSpaceOnUse"
       x1="29.203026"
       x2="34.121048"
       xlink:href="#a-7"
       y1="24.827356"
       y2="29.224836" />
    <linearGradient
       id="a-7">
      <stop
         offset="0"
         id="stop1" />
      <stop
         offset="1"
         stop-opacity="0"
         id="stop2" />
    </linearGradient>
    <linearGradient
       id="d"
       gradientUnits="userSpaceOnUse"
       x1="15.948756"
       x2="25.031786"
       xlink:href="#a-7"
       y1="23.618279"
       y2="33.69899" />
    <linearGradient
       id="e"
       gradientUnits="userSpaceOnUse"
       x1="21.990562"
       x2="29.320522"
       xlink:href="#a-7"
       y1="33.780373"
       y2="41.931858" />
    <linearGradient
       id="paint154_linear_890_11"
       x1="778"
       y1="812.29199"
       x2="788"
       y2="812.29199"
       gradientUnits="userSpaceOnUse"
       gradientTransform="translate(-751,-696)">
      <stop
         stop-color="#EFF2F6"
         id="stop1050" />
      <stop
         offset="0.600785"
         stop-color="#B7C6CD"
         id="stop1051" />
    </linearGradient>
    <linearGradient
       id="paint155_linear_890_11"
       x1="783"
       y1="813"
       x2="783"
       y2="817"
       gradientUnits="userSpaceOnUse"
       gradientTransform="translate(-751,-696)">
      <stop
         stop-color="#EFF2F6"
         id="stop1052" />
      <stop
         offset="0.734138"
         stop-color="#B7C6CD"
         id="stop1053" />
    </linearGradient>
    <radialGradient
       id="paint156_radial_890_11"
       cx="0"
       cy="0"
       r="1"
       gradientUnits="userSpaceOnUse"
       gradientTransform="matrix(27.999986,27.999976,-27.999986,27.999976,32.302392,33.999998)">
      <stop
         offset="0.60067803"
         stop-color="#B7C6CD"
         id="stop1054"
         style="stop-color:#424b58;stop-opacity:1;" />
      <stop
         offset="0.876735"
         stop-color="#EFF2F6"
         id="stop1055" />
    </radialGradient>
    <linearGradient
       id="paint157_linear_890_11"
       x1="796.84485"
       y1="799.43359"
       x2="768.90088"
       y2="770.81476"
       gradientUnits="userSpaceOnUse"
       gradientTransform="matrix(1.1666666,0,0,1.1666668,-881.19764,-881.8333)">
      <stop
         offset="0.00000057"
         stop-color="#2E2E41"
         id="stop1056"
         style="stop-color:#424b58;stop-opacity:1;" />
      <stop
         offset="0.71113902"
         stop-color="#566C80"
         id="stop1057"
         style="stop-color:#303c47;stop-opacity:1;" />
    </linearGradient>
    <linearGradient
       id="paint158_linear_890_11"
       x1="792"
       y1="794"
       x2="774"
       y2="776"
       gradientUnits="userSpaceOnUse"
       gradientTransform="translate(-751,-696)">
      <stop
         offset="0.304478"
         stop-color="#2E2E41"
         id="stop1058" />
      <stop
         offset="1"
         stop-color="#566C80"
         id="stop1059" />
    </linearGradient>
    <linearGradient
       id="paint159_linear_890_11"
       x1="788"
       y1="790"
       x2="778"
       y2="780"
       gradientUnits="userSpaceOnUse"
       gradientTransform="translate(-751,-696)">
      <stop
         offset="0.391394"
         stop-color="#5200FF"
         id="stop1060" />
      <stop
         offset="1"
         stop-color="#0085FF"
         id="stop1061" />
    </linearGradient>
    <linearGradient
       id="paint160_linear_890_11"
       x1="784"
       y1="798"
       x2="782"
       y2="796"
       gradientUnits="userSpaceOnUse"
       gradientTransform="translate(-751,-696)">
      <stop
         stop-color="#FF7E07"
         id="stop1062" />
      <stop
         offset="1"
         stop-color="#FFE607"
         id="stop1063" />
    </linearGradient>
    <linearGradient
       id="c-3-6"
       gradientUnits="userSpaceOnUse"
       x1="24.072048"
       x2="23.959682"
       y1="0.75082099"
       y2="46.056854"
       gradientTransform="matrix(0.91471346,0,0,0.90068147,9.0468769,9.3836444)">
      <stop
         offset="0"
         stop-color="#fff"
         id="stop3-2" />
      <stop
         offset="1"
         stop-color="#d9d9d9"
         id="stop4-9" />
    </linearGradient>
    <linearGradient
       id="b-6-1"
       gradientUnits="userSpaceOnUse"
       x1="29.203026"
       x2="34.121048"
       xlink:href="#a-7"
       y1="24.827356"
       y2="29.224836"
       gradientTransform="matrix(1.1104534,0,0,1.0934187,4.3491158,4.7861435)" />
    <linearGradient
       id="d-0"
       gradientUnits="userSpaceOnUse"
       x1="15.948756"
       x2="25.031786"
       xlink:href="#a-7"
       y1="23.618279"
       y2="33.69899"
       gradientTransform="matrix(1.1104534,0,0,1.0934187,4.3491158,4.7861435)" />
    <linearGradient
       id="e-9"
       gradientUnits="userSpaceOnUse"
       x1="21.990562"
       x2="29.320522"
       xlink:href="#a-7"
       y1="33.780373"
       y2="41.931858"
       gradientTransform="matrix(1.1104534,0,0,1.0934187,4.3491158,4.7861435)" />
    <linearGradient
       inkscape:collect="always"
       xlink:href="#linearGradient1"
       id="linearGradient6"
       x1="15.60323"
       y1="17.703012"
       x2="48.302387"
       y2="50"
       gradientUnits="userSpaceOnUse"
       gradientTransform="translate(-1.3023872,-3)" />
    <radialGradient
       inkscape:collect="always"
       xlink:href="#linearGradient7"
       id="radialGradient9"
       cx="32.302387"
       cy="34"
       fx="32.302387"
       fy="34"
       r="28"
       gradientUnits="userSpaceOnUse"
       gradientTransform="matrix(0.99999999,1,-1,0.99999999,32.697613,-35.302387)" />
    <radialGradient
       id="radialGradient867"
       cx="6.6805"
       cy="8.2870998"
       r="3.7376001"
       gradientTransform="matrix(4.8485492,0,0,4.8159411,-9.9298686,-9.7737847)"
       gradientUnits="userSpaceOnUse">
      <stop
         stop-color="#c8d7ea"
         stop-opacity=".99608"
         offset="0"
         id="stop1-5" />
      <stop
         stop-color="#91acd0"
         stop-opacity=".99608"
         offset="1"
         id="stop2-4" />
    </radialGradient>
    <linearGradient
       id="linearGradient8945"
       x1="3.8726001"
       x2="4.7592001"
       y1="-3.2832"
       y2="-2.3964"
       gradientTransform="matrix(1.3622,-0.36501,0.36501,1.3622,2.977,21.076)"
       gradientUnits="userSpaceOnUse">
      <stop
         stop-color="#bdc2cf"
         offset="0"
         id="stop3-7" />
      <stop
         stop-color="#eaf0f5"
         offset="1"
         id="stop4-4" />
    </linearGradient>
    <linearGradient
       id="linearGradient26151"
       x1="4.9973001"
       x2="6.1075001"
       y1="-4.6547999"
       y2="-3.5313001"
       gradientTransform="matrix(1.3622,-0.36501,0.36501,1.3622,2.977,21.076)"
       gradientUnits="userSpaceOnUse">
      <stop
         stop-color="#7dbc53"
         offset="0"
         id="stop5-4" />
      <stop
         stop-color="#93d159"
         offset=".11589"
         id="stop6-3" />
      <stop
         stop-color="#699d51"
         offset="1"
         id="stop7-0" />
    </linearGradient>
    <linearGradient
       id="paint1_linear_42_193"
       x1="32.166599"
       y1="53"
       x2="32.166599"
       y2="11.3334"
       gradientUnits="userSpaceOnUse"
       gradientTransform="translate(-1.1842222,-1.1667)">
      <stop
         stop-color="#00B59C"
         id="stop4-3"
         style="stop-color:#6dc381;stop-opacity:1" />
      <stop
         offset="1"
         stop-color="#9CFFAC"
         id="stop5-6"
         style="stop-color:#1ba97f;stop-opacity:1" />
    </linearGradient>
  </defs>
  <sodipodi:namedview
     id="namedview7"
     pagecolor="#ffffff"
     bordercolor="#000000"
     borderopacity="0.25"
     inkscape:showpageshadow="2"
     inkscape:pageopacity="0.0"
     inkscape:pagecheckerboard="0"
     inkscape:deskcolor="#d1d1d1"
     inkscape:zoom="8.3306018"
     inkscape:cx="49.336172"
     inkscape:cy="40.333221"
     inkscape:window-width="1920"
     inkscape:window-height="998"
     inkscape:window-x="0"
     inkscape:window-y="0"
     inkscape:window-maximized="1"
     inkscape:current-layer="svg7" />
  <path
     d="M 59,31 C 59,46.46415 46.464172,59 30.999998,59 15.535835,59 3.0000001,46.46415 3.0000001,31 3.0000001,15.535835 15.535835,3 30.999998,3 46.464172,3 59,15.535835 59,31 Z"
     id="path154"
     style="fill:url(#radialGradient9)" />
  <path
     d="m 54.333333,31 c 0,12.88701 -10.446332,23.33332 -23.333335,23.33332 C 18.112999,54.33332 7.6666671,43.88701 7.6666671,31 7.6666671,18.113006 18.112999,7.666668 30.999998,7.666668 43.887001,7.666668 54.333333,18.113006 54.333333,31 Z"
     id="path155"
     style="fill:url(#linearGradient6)" />
  <g
     id="g5"
     transform="matrix(0.9333333,0,0,0.92920354,-56.335076,3.340677)">
    <path
       style="opacity:0.2"
       d="m 90.673299,8.8667 v 4.432129 c -2.612416,0.157692 -4.947312,0.59871 -7.006444,1.721875 -2.793736,1.523854 -4.593556,4.720996 -4.593556,8.345996 0,3.866668 2.495203,6.872008 5.315724,8.164746 2.820518,1.292738 5.924608,1.600098 8.824608,1.962598 2.9,0.3625 5.59591,0.78014 7.125389,1.481152 1.52948,0.701012 1.93428,0.958172 1.93428,2.891504 0,1.35768 -0.39508,2.051166 -1.71621,2.874512 -1.321133,0.823344 -3.717491,1.475488 -6.983791,1.475488 -5.075,0 -6.782072,-1.626038 -7.73711,-3.058594 -0.955036,-1.432554 -0.96289,-2.741406 -0.96289,-2.741406 h -5.8 c 0,0 -0.0078,3.041148 1.93711,5.958594 1.636574,2.454864 4.815418,4.75286 9.66289,5.42617 V 52.3667 h 5.8 v -4.485938 c 2.75322,-0.27406 5.159521,-0.974676 7.153711,-2.21748 2.66637,-1.661714 4.44629,-4.594504 4.44629,-7.796582 0,-3.866668 -2.4952,-6.872008 -5.31572,-8.164746 -2.820523,-1.292738 -5.924613,-1.600098 -8.824613,-1.962598 -2.9,-0.3625 -5.59591,-0.78014 -7.125392,-1.481152 -1.52948,-0.701012 -1.934276,-0.958172 -1.934276,-2.891504 0,-2.175 0.37518,-2.602858 1.568944,-3.254004 1.193768,-0.651144 3.699388,-1.095996 7.131056,-1.095996 5.195832,0 7.023521,1.461428 7.884371,2.5375 0.86086,1.076072 0.81563,1.8125 0.81563,1.8125 h 5.8 c 0,0 -0.0452,-2.888572 -2.08438,-5.4375 -1.70883,-2.136037 -4.79811,-3.982956 -9.515621,-4.53125 V 8.8667 Z"
       id="path2-3" />
    <path
       style="opacity:0.2"
       d="m 90.573299,8.1667 v 5.056641 c -2.543955,0.113009 -4.8634,0.44834 -6.972656,1.417968 -2.911706,1.338516 -5.027344,4.556425 -5.027344,8.275391 0,3.934483 2.628459,6.983656 5.535156,8.271484 2.906697,1.287829 6.105469,1.594532 9.105469,1.957032 3,0.3625 5.801228,0.780406 7.394536,1.486328 1.5933,0.705921 1.96484,0.919639 1.96484,2.785156 0,1.238157 -0.29067,1.688821 -1.69336,2.4375 -1.402689,0.748679 -3.983743,1.3125 -7.306641,1.3125 -5.196552,0 -7.169235,-1.433448 -8.103516,-2.488281 -0.934281,-1.054834 -0.902343,-1.683594 -0.902343,-1.683594 l -5.988282,0.34375 c 0,0 0.232719,2.87124 2.398438,5.316406 1.802466,2.035043 4.917826,3.78873 9.595703,4.326172 V 52.1667 h 6 v -5.121094 c 2.685933,-0.228245 5.081541,-0.802668 7.130861,-1.896484 2.78481,-1.486381 4.86914,-4.410821 4.86914,-7.732422 0,-3.934483 -2.62846,-6.983656 -5.53516,-8.271484 -2.90669,-1.287829 -6.105466,-1.594532 -9.105466,-1.957032 -3,-0.3625 -5.801228,-0.780406 -7.394531,-1.486328 -1.593303,-0.705921 -1.964844,-0.919639 -1.964844,-2.785156 0,-2.081034 0.259362,-2.237734 1.535156,-2.824219 1.275795,-0.586484 3.970878,-0.925781 7.464844,-0.925781 5.196552,0 7.169231,1.433448 8.103521,2.488281 0.93428,1.054834 0.90234,1.683594 0.90234,1.683594 l 5.98828,-0.34375 c 0,0 -0.23272,-2.87124 -2.39844,-5.316406 -1.80246,-2.035043 -4.91782,-3.78873 -9.595701,-4.326172 V 8.1667 Z"
       id="path4" />
    <path
       style="fill:none;stroke:#ffffff;stroke-width:6;stroke-linejoin:round"
       d="m 105.5733,22.1667 c 0,0 -0.4,-7 -12.000001,-7 -7.25,0 -12,0.95 -12,6.75 0,11.6 24.000001,2.9 24.000001,14.5 0,4.559758 -4.75,6.75 -12.000001,6.75 -11.6,0 -12,-7 -12,-7 v 0"
       id="path5" />
    <rect
       style="fill:#ffffff"
       width="6"
       height="6"
       x="90.573296"
       y="7.1666999"
       id="rect5" />
    <rect
       style="fill:#ffffff"
       width="6"
       height="6"
       x="90.573296"
       y="45.166698"
       id="rect6" />
  </g>
</svg>
