<?xml version="1.0" encoding="UTF-8" standalone="no"?>
<svg
   width="62"
   height="62"
   version="1.1"
   id="svg5"
   sodipodi:docname="com.github.coslyk.MoonPlayer.svg"
   inkscape:version="1.4 (unknown)"
   xmlns:inkscape="http://www.inkscape.org/namespaces/inkscape"
   xmlns:sodipodi="http://sodipodi.sourceforge.net/DTD/sodipodi-0.dtd"
   xmlns:xlink="http://www.w3.org/1999/xlink"
   xmlns="http://www.w3.org/2000/svg"
   xmlns:svg="http://www.w3.org/2000/svg">
  <defs
     id="defs5">
    <linearGradient
       id="linearGradient3"
       inkscape:collect="always">
      <stop
         style="stop-color:#233143;stop-opacity:1;"
         offset="0"
         id="stop5" />
      <stop
         style="stop-color:#384fae;stop-opacity:1;"
         offset="1"
         id="stop6" />
    </linearGradient>
    <linearGradient
       id="paint1_linear_54_1200"
       x1="16"
       y1="26"
       x2="16"
       y2="6"
       gradientUnits="userSpaceOnUse"
       gradientTransform="matrix(3.0397983,0,0,3.0420943,35.820936,133.83376)">
      <stop
         stop-color="#5570FF"
         id="stop3" />
      <stop
         offset="1"
         stop-color="#4DD3FF"
         id="stop4" />
    </linearGradient>
    <linearGradient
       inkscape:collect="always"
       xlink:href="#linearGradient3"
       id="linearGradient6"
       x1="31.5"
       y1="59.017544"
       x2="32.04813"
       y2="5.8403225"
       gradientUnits="userSpaceOnUse" />
  </defs>
  <sodipodi:namedview
     id="namedview5"
     pagecolor="#ffffff"
     bordercolor="#000000"
     borderopacity="0.25"
     inkscape:showpageshadow="2"
     inkscape:pageopacity="0.0"
     inkscape:pagecheckerboard="0"
     inkscape:deskcolor="#d1d1d1"
     inkscape:zoom="11.6875"
     inkscape:cx="31.957219"
     inkscape:cy="38.802139"
     inkscape:window-width="1920"
     inkscape:window-height="998"
     inkscape:window-x="0"
     inkscape:window-y="0"
     inkscape:window-maximized="1"
     inkscape:current-layer="svg5" />
  <rect
     style="opacity:0.2;stroke-width:0.9823"
     width="55"
     height="55.017544"
     x="4"
     y="4.9824562"
     rx="8.25"
     ry="8.2526312"
     id="rect1" />
  <rect
     style="fill:url(#linearGradient6);stroke-width:0.9823;fill-opacity:1"
     width="55"
     height="55.017544"
     x="4"
     y="4"
     rx="8.25"
     ry="8.2526312"
     id="rect2" />
  <path
     style="opacity:0.1;fill:#ffffff;stroke-width:0.9823"
     d="M 12.248466,4 C 7.6779652,4 4,7.6791384 4,12.251097 v 0.982456 C 4,8.6615945 7.6779652,4.9824561 12.248466,4.9824561 H 50.751534 C 55.322034,4.9824561 59,8.6615945 59,13.233553 V 12.251097 C 59,7.6791384 55.322034,4 50.751534,4 Z"
     id="path4" />
  <g
     id="g6"
     transform="matrix(2,0,0,2,-32.5,-87.5)">
    <circle
       style="opacity:0.2;stroke-width:1"
       cx="-32"
       cy="59.400002"
       r="10"
       transform="scale(-1,1)"
       id="circle2" />
    <circle
       style="fill:#ffdd55"
       cx="-32"
       cy="59"
       r="10"
       transform="scale(-1,1)"
       id="circle3" />
    <path
       style="opacity:0.73295455;fill:#a0892c"
       d="m 32.9445,49.053701 a 9.9999994,9.9999994 0 0 1 3.619,1.0498 c -0.0505,0.160049 0.0085,0.340599 0.1925,0.5 0.1245,0.107899 0.2265,0.275949 0.2265,0.374049 0,0.29985 -0.271,0.76025 -0.4875,0.82715 -0.2875,0.089 -0.191,0.3958 0.179,0.5653 0.171,0.0785 0.3815,0.3045 0.4675,0.502 0.0865,0.198 0.2135,0.393 0.2825,0.4335 0.0685,0.041 0.125,0.1955 0.125,0.344 0,0.2075 -0.095,0.308 -0.4065,0.4325 -0.223,0.0895 -0.49,0.1545 -0.5935,0.1445 -0.5955,-0.056 -0.637,0.291 -0.1165,0.969 0.2765,0.36 0.4095,0.4505 0.598,0.405 0.1755,-0.042 0.2715,0.0076 0.3515,0.1815 0.084,0.1845 0.222,0.247 0.5925,0.2725 0.3645,0.0255 0.5275,0.0995 0.664,0.299 0.1,0.1455 0.244,0.2635 0.3205,0.2635 0.0767,0 0.2568,0.098 0.4004,0.217 0.2922,0.2425 0.4063,0.267 0.50875,0.1085 0.1354,-0.21 0.427549,-0.104 0.862299,0.3125 0.3845,0.368 0.43105,0.4665 0.37305,0.786 -0.1032,0.5685 -0.41155,1.073 -0.76365,1.249 -0.307249,0.1535 -0.313249,0.17 -0.12695,0.367 0.10715,0.1135 0.291,0.235 0.4082,0.2705 0.3385,0.103 0.14795,0.232 -0.45605,0.309 -0.618199,0.0785 -0.810299,0.3025 -0.521499,0.608 0.16105,0.1705 0.152,0.2025 -0.10645,0.3645 -0.505,0.317 -0.9066,0.123 -0.4326,-0.209 0.30465,-0.2135 0.0916,-0.3005 -0.3555,-0.1455 -0.3565,0.1235 -0.427,0.1165 -0.6375,-0.0665 -0.4325,-0.3745 -0.9025,0.1795 -0.507,0.5975 0.2515,0.2665 0.1755,0.5875 -0.1505,0.632 -0.144,0.0195 -0.443,0.1535 -0.665,0.298 -0.222,0.144 -0.464,0.2625 -0.537,0.2625 -0.073,0 -0.279,0.1465 -0.458,0.3255 -0.363,0.3625 -0.5645,0.4085 -0.667,0.153 -0.123,-0.307 -0.0735,-0.4655 0.258,-0.827 0.2635,-0.288 0.692,-1.053 0.692,-1.2365 0,-0.113 -0.4355,-0.017 -0.6795,0.1495 -0.1525,0.1045 -0.3995,0.239 -0.549,0.3 -0.159,0.065 -0.324,0.267 -0.3995,0.488 -0.1175,0.347 -0.164,0.377 -0.58,0.377 H 33.417 L 33.3485,63.12 c -0.082,0.9775 -0.1605,1.1755 -0.496,1.256 -0.247,0.0595 -0.5105,0.442 -0.5105,0.741 0,0.0795 0.1775,0.2745 0.3945,0.433 0.269,0.1965 0.385,0.3635 0.367,0.527 -0.0225,0.2045 0.024,0.2365 0.3135,0.215 0.1865,-0.014 0.5105,0.0515 0.7185,0.1455 0.2465,0.111 0.5135,0.1465 0.764,0.1015 0.288,-0.0515 0.3855,-0.0315 0.3855,0.081 0,0.083 0.101,0.238 0.224,0.345 0.304,0.263499 0.1785,0.402999 -0.2885,0.318999 -0.29,-0.052 -0.403,-0.029 -0.453,0.096 -0.1065,0.2655 0.1635,0.6455 0.414,0.583 0.159,-0.04 0.235,0.0145 0.2845,0.202 0.017,0.0665 0.0485,0.123 0.086,0.171 a 9.9999994,9.9999994 0 0 1 -1.5825,0.4675 c 0.05,-0.0955 0.107,-0.1825 0.1625,-0.2215 0.2575,-0.182 0.085,-0.655 -0.2695,-0.74 -0.3615,-0.087 -0.3045,-0.3215 0.0885,-0.3665 0.3445,-0.039 0.711,-0.388 0.596,-0.566499 -0.0775,-0.1195 -0.407,-0.102 -1.0735,0.056 -0.301,0.071 -0.5065,-0.072 -1.204,-0.835 -0.4035,-0.442 -0.714,-0.626 -1.0545,-0.626 -0.13,0 -0.5935,-0.1195 -1.0305,-0.2655 -0.825,-0.2765 -1.1475,-0.2665 -1.117,0.035 0.063,0.627 -0.3405,0.606 -0.998,-0.051 -0.274,-0.2735 -0.5245,-0.4715 -0.557,-0.4405 -0.1255,0.1205 0.1005,0.707 0.3645,0.9445 0.3345,0.301 0.351,0.491 0.0565,0.6415 -0.161,0.083 -0.2295,0.2505 -0.255,0.627 l -0.034,0.513999 h -0.418 c -0.1465,0 -0.268,0.02 -0.366,0.0575 A 9.9999994,9.9999994 0 0 1 22.015501,59.3135 c 0.153,-0.327 0.142,-0.5245 0,-0.747 a 9.9999994,9.9999994 0 0 1 0.045,-0.5605 c 0.091,-0.0045 0.184,-0.0085 0.291,-0.004 0.504,0.021 0.9355,-0.1775 0.9355,-0.4305 0,-0.0535 0.178999,-0.273999 0.397499,-0.489499 0.248,-0.244 0.375,-0.46 0.338,-0.572 -0.034,-0.102 0.039,-0.2665 0.168,-0.378 0.1255,-0.109 0.2285,-0.284 0.2285,-0.389 0,-0.1675 0.1065,-0.1885 0.877,-0.17 l 0.877,0.0215 -0.015,0.8645 C 26.132,57.973 25.9065,58.366 25.211,58.1125 24.8925,57.996 24.11,58.084 23.887501,58.2605 c -0.0805,0.064 -0.197001,0.296 -0.258501,0.516 -0.062,0.2195 -0.291,0.6 -0.509999,0.8445 -0.443,0.496 -0.4775,0.6895 -0.2235,1.2715 0.2215,0.508 0.460499,0.4495 0.412999,-0.1015 l -0.035,-0.41 0.375,0.07 c 0.2075,0.0395 0.4675,0.1925 0.584,0.344 0.166,0.2155 0.2435,0.247 0.368001,0.1485 0.087,-0.069 0.157499,-0.2145 0.157499,-0.3225 0,-0.108 0.107,-0.228 0.237,-0.2675 0.1305,-0.03952 0.309,-0.23602 0.3965,-0.43752 0.1405,-0.322 0.137,-0.4205 -0.0265,-0.8115 -0.1655,-0.3965 -0.167,-0.462 -0.0145,-0.6085 0.14,-0.134 0.2125,-0.1385 0.3965,-0.028 0.185,0.1105 0.2725,0.1025 0.4925,-0.045 0.1465,-0.0985 0.403,-0.18 0.569,-0.18 0.3375,0 0.4395,-0.164 0.4395,-0.707 0,-0.5015 0.299,-0.6835 1.011,-0.618 0.494,0.0455 0.603,0.013 1.0015,-0.294 0.2465,-0.1895 0.6355,-0.6455 0.8655,-1.0145 0.23,-0.369 0.4775,-0.7545 0.55,-0.8565 0.104,-0.1475 0.0785,-0.289 -0.125,-0.6905 l -0.257,-0.505 0.543,0.0735 c 0.966,0.1305 1.1615,0.2555 0.746,0.4785 -0.162,0.0865 -0.169,0.131 -0.044,0.2755 0.082,0.094 0.1205,0.2435 0.085,0.332 -0.0355,0.088 0.0095,0.296 0.0995,0.4615 0.0905,0.166 0.166,0.3985 0.169,0.518 0.0095,0.3725 0.6475,0.669 1.3585,0.6295 1.077,-0.0595 1.1645,-0.0425 1.547,0.3125 0.478,0.444 0.5395,0.6505 0.317,1.0625 -0.2155,0.4 -0.5985,0.5595 -1.2615,0.5265 -0.593,-0.0295 -0.66,0.023 -0.5245,0.415 0.1155,0.333 0.5025,0.461 0.765,0.253 0.202,-0.1605 0.8985,-0.0365 1.112,0.1985 0.0895,0.098 0.2225,0.356 0.295,0.572 0.125,0.373 0.1615,0.396 0.7215,0.45 0.559,0.0545 0.613,0.0365 1.015,-0.334 0.4485,-0.413 0.5245,-0.729 0.3085,-1.273 -0.096,-0.241 -0.167,-0.2805 -0.423,-0.2335 -0.507,0.0925 -0.707,-0.0835 -0.707,-0.625 0,-0.2625 0.051,-0.508 0.1135,-0.545 0.062,-0.037 0.113,-0.176 0.113,-0.3095 0,-0.1335 0.064,-0.3055 0.1415,-0.381 0.1135,-0.11 0.097,-0.169 -0.084,-0.297 -0.124,-0.0875 -0.328,-0.1465 -0.453,-0.1315 -0.1245,0.015 -0.469,-0.039 -0.7655,-0.1195 -0.4285,-0.1155 -0.5545,-0.203 -0.6125,-0.4285 -0.11,-0.428 -0.3785,-0.7715 -0.6035,-0.7715 -0.3555,0 -0.363,-0.836 -0.0175,-2.052 0.051,-0.1795 0.1915,-0.2935 0.4395,-0.355 0.201,-0.05 0.4195,-0.187 0.4855,-0.3049 0.0655,-0.1179 0.186,-0.2139 0.2675,-0.2139 0.0815,0 0.241,-0.0976 0.3535,-0.2168 0.1135,-0.119999 0.348,-0.2168 0.5265,-0.2168 0.4225,0 0.4295,-0.2909 0.0105,-0.444299 -0.4425,-0.1622 -1.1315,0.0504 -1.298,0.40035 -0.2255,0.474549 -0.476,0.27655 -0.5565,-0.440401 -0.0995,-0.886729 -0.4055,-1.141579 -1.37,-1.141579 H 32.413 l 0.304,-0.3037 c 0.0945,-0.0948 0.173,-0.21065 0.2275,-0.32425 z m -3.595,0.31445 c 0.0195,0.0176 0.0385,0.032 0.0575,0.05175 0.232,0.2368 0.341,0.27055 0.6995,0.21585 0.626,-0.09545 0.5455,0.1566 -0.1475,0.46095 -0.3745,0.16455 -0.6155,0.352149 -0.6975,0.541949 -0.395,0.915801 -0.667,1.40885 -0.8035,1.45885 -0.276,0.1015 -0.4405,-0.1022 -0.502,-0.6229 -0.0705,-0.5974 -0.2725,-0.724049 -0.6355,-0.397449 -0.141,0.12675 -0.338,0.230449 -0.4375,0.230449 -0.3105,0 -0.54,0.124651 -0.54,0.293 0,0.0887 -0.105,0.30245 -0.2335,0.4754 -0.1895,0.2545 -0.318,0.3155 -0.672,0.3155 -0.4345,0 -0.700999,0.0815 -1.244999,0.382 -0.0085,0.0045 -0.017,0.006 -0.0255,0.0105 a 9.9999994,9.9999994 0 0 1 5.1825,-3.415849 z m 12.648499,9.588999 a 9.9999994,9.9999994 0 0 1 0.0019,0.043 9.9999994,9.9999994 0 0 1 -0.1953,1.921 c -0.3623,0.1475 -0.4624,0.089 -0.5,-0.248 -0.01945,-0.1745 -0.11055,-0.372 -0.20315,-0.4405 -0.14305,-0.1055 -0.11725,-0.1595 0.1758,-0.3595 0.1897,-0.1295 0.37665,-0.3555 0.41505,-0.502 0.0372,-0.142 0.163,-0.297 0.30565,-0.414 z m -3.147549,3.3055 c 0.0935,-0.0095 0.20615,0.0405 0.33115,0.1605 0.26445,0.253 0.2245,0.7615 -0.07521,0.9625 -0.34345,0.2305 -0.475949,0.1635 -0.519449,-0.2615 -0.0535,-0.524 0.0585,-0.84 0.263499,-0.8615 z m -1.697,1.512 c 0.102,0.0035 0.2145,0.0765 0.327,0.2305 0.1195,0.163 0.152,0.3735 0.1065,0.693 -0.0565,0.393 -0.032,0.477 0.1735,0.5825 0.2645,0.135 0.321,0.537 0.1045,0.744 -0.215,0.206 -0.42,0.152 -0.494,-0.13 -0.105,-0.402 -0.6935,-0.449 -1.0955,-0.088 -0.1715,0.154 -0.3115,0.232 -0.3115,0.173 0,-0.059 0.1785,-0.2735 0.3965,-0.4755 0.3335,-0.31 0.3955,-0.442 0.3955,-0.841 0,-0.563 0.1725,-0.8955 0.3975,-0.8885 z m 2.78695,1.291 a 9.9999994,9.9999994 0 0 1 -0.23145,0.292 c 0.06815,-0.1055 0.14595,-0.2065 0.23145,-0.292 z m -3.36995,1.535 c 0.0505,0.0175 0.072,0.081 0.072,0.1925 0,0.113 0.072,0.2315 0.16,0.2635 0.117,0.043 0.144,0.178499 0.099,0.501999 -0.0085,0.0605 -0.011,0.109 -0.014,0.1595 a 9.9999994,9.9999994 0 0 1 -0.416,0.2135 c 0.007,-0.173 -0.0245,-0.3765 -0.115,-0.6315 -0.1535,-0.432999 -0.159,-0.541499 -0.034,-0.617499 0.117,-0.071 0.197,-0.0995 0.248,-0.082 z"
       id="path3" />
    <path
       style="opacity:0.2;fill:#ffffff"
       d="M 32,49 A 10,10 0 0 0 22,59 10,10 0 0 0 22.021484,59.414062 10,10 0 0 1 32,50 10,10 0 0 1 41.978516,59.585938 10,10 0 0 0 42,59 10,10 0 0 0 32,49 Z"
       id="path5" />
  </g>
</svg>
