<?xml version="1.0" encoding="UTF-8" standalone="no"?>
<svg
   clip-rule="evenodd"
   fill-rule="evenodd"
   stroke-miterlimit="10"
   viewBox="0 0 62 62"
   version="1.1"
   id="svg25"
   sodipodi:docname="com.github.louis77.tuner.svg"
   width="62"
   height="62"
   inkscape:version="1.4 (unknown)"
   xmlns:inkscape="http://www.inkscape.org/namespaces/inkscape"
   xmlns:sodipodi="http://sodipodi.sourceforge.net/DTD/sodipodi-0.dtd"
   xmlns:xlink="http://www.w3.org/1999/xlink"
   xmlns="http://www.w3.org/2000/svg"
   xmlns:svg="http://www.w3.org/2000/svg">
  <defs
     id="defs25">
    <linearGradient
       id="linearGradient25"
       inkscape:collect="always">
      <stop
         style="stop-color:#c83771;stop-opacity:1"
         offset="0"
         id="stop25" />
      <stop
         style="stop-color:#ff5555;stop-opacity:1"
         offset="1"
         id="stop26" />
    </linearGradient>
    <linearGradient
       inkscape:collect="always"
       xlink:href="#linearGradient25"
       id="linearGradient26"
       x1="30.975771"
       y1="59"
       x2="30.975771"
       y2="3.0000002"
       gradientUnits="userSpaceOnUse" />
  </defs>
  <sodipodi:namedview
     id="namedview25"
     pagecolor="#ffffff"
     bordercolor="#000000"
     borderopacity="0.25"
     inkscape:showpageshadow="2"
     inkscape:pageopacity="0.0"
     inkscape:pagecheckerboard="0"
     inkscape:deskcolor="#d1d1d1"
     inkscape:zoom="9.4280904"
     inkscape:cx="22.751161"
     inkscape:cy="35.691215"
     inkscape:window-width="1920"
     inkscape:window-height="998"
     inkscape:window-x="0"
     inkscape:window-y="0"
     inkscape:window-maximized="1"
     inkscape:current-layer="svg25" />
  <linearGradient
     id="a"
     x2="1"
     gradientTransform="matrix(0,-55.741426,20.610006,0,19.299585,58.741426)"
     gradientUnits="userSpaceOnUse">
    <stop
       stop-color="#7e001b"
       offset="0"
       id="stop1" />
    <stop
       stop-color="#dd3f6e"
       offset="1"
       id="stop2" />
  </linearGradient>
  <linearGradient
     id="b"
     x2="1"
     gradientTransform="matrix(0,-26,26,0,64,76)"
     gradientUnits="userSpaceOnUse">
    <stop
       stop-color="#fafafa"
       offset="0"
       id="stop3" />
    <stop
       stop-color="#fafafa"
       offset=".69"
       id="stop4" />
    <stop
       stop-color="#abacae"
       offset="1"
       id="stop5" />
  </linearGradient>
  <radialGradient
     id="c"
     cx="0"
     cy="0"
     r="1"
     gradientTransform="matrix(28.6961,0,0,21.6342,65.3669,109.161)"
     gradientUnits="userSpaceOnUse">
    <stop
       stop-color="#fafafa"
       offset="0"
       id="stop6" />
    <stop
       stop-color="#d4d4d4"
       offset="1"
       id="stop7" />
  </radialGradient>
  <g
     id="g25"
     transform="translate(0.024229)">
    <path
       d="M 50.927774,59 H 11.023768 C 6.5810876,59 2.975771,55.394683 2.975771,50.952003 V 11.047997 c 0,-4.4426801 3.6053166,-8.0479967 8.047997,-8.0479967 h 39.904006 c 4.44268,0 8.047997,3.6053166 8.047997,8.0479967 V 50.952003 C 58.975771,55.394683 55.370454,59 50.927774,59 Z"
       id="path7"
       style="fill:url(#linearGradient26)" />
    <g
       transform="matrix(0.48458556,0,0,0.48458556,-0.03770512,-9.2206015)"
       id="g24">
      <path
         d="M 105.1,76 H 22.9 C 19.7,76 17,73.4 17,70.1 V 55.9 C 17,52.7 19.6,50 22.9,50 h 82.3 c 3.2,0 5.9,2.6 5.9,5.9 v 14.3 c -0.1,3.2 -2.7,5.8 -6,5.8 z"
         fill-rule="nonzero"
         id="path8"
         style="fill:url(#b)" />
      <g
         fill="none"
         id="g22">
        <path
           d="M 23,54 V 71"
           stroke="#abacae"
           stroke-width="1.79"
           id="path9" />
        <path
           d="M 30,57 V 68"
           stroke="#abacae"
           stroke-width="1.79"
           id="path10" />
        <path
           d="M 36,57 V 68"
           stroke="#abacae"
           stroke-width="1.79"
           id="path11" />
        <path
           d="M 43,54 V 71"
           stroke="#abacae"
           stroke-width="1.79"
           id="path12" />
        <path
           d="M 50,57 V 68"
           stroke="#abacae"
           stroke-width="1.79"
           id="path13" />
        <path
           d="M 57,57 V 68"
           stroke="#abacae"
           stroke-width="1.79"
           id="path14" />
        <path
           d="M 64,54 V 71"
           stroke="#abacae"
           stroke-width="1.79"
           id="path15" />
        <path
           d="M 71,57 V 68"
           stroke="#abacae"
           stroke-width="1.79"
           id="path16" />
        <path
           d="M 78,57 V 68"
           stroke="#abacae"
           stroke-width="1.79"
           id="path17" />
        <path
           d="M 85,54 V 71"
           stroke="#abacae"
           stroke-width="1.79"
           id="path18" />
        <path
           d="M 105,54 V 71"
           stroke="#abacae"
           stroke-width="1.79"
           id="path19" />
        <path
           d="M 92,57 V 68"
           stroke="#abacae"
           stroke-width="1.79"
           id="path20" />
        <path
           d="M 98,57 V 68"
           stroke="#abacae"
           stroke-width="1.79"
           id="path21" />
        <path
           d="M 54,50 V 76"
           stroke-width="2.19"
           id="path22"
           stroke="#de3e80" />
      </g>
      <circle
         cx="64.5"
         cy="98.5"
         r="17.5"
         fill="url(#c)"
         id="circle22"
         style="fill:url(#c)" />
      <circle
         cx="64.5"
         cy="98.5"
         r="14"
         fill="#273445"
         id="circle23"
         style="stroke:#273445;stroke-opacity:1" />
      <circle
         cx="64.5"
         cy="98.5"
         r="12"
         id="circle24"
         style="stroke:#de3e80;stroke-opacity:1" />
      <path
         d="M 64.5,92.8 C 64.2,92.8 64,92.6 64,92.3 v -4.7 c 0,-0.3 0.2,-0.5 0.5,-0.5 0.3,0 0.5,0.2 0.5,0.5 v 4.7 c 0,0.3 -0.2,0.5 -0.5,0.5 z"
         fill="#181818"
         fill-rule="nonzero"
         id="path24" />
    </g>
    <path
       d="M 8.4425423,43.599225 H 18.618839 c 0.67842,0 1.211464,-0.533044 1.211464,-1.211464 0,-0.67842 -0.533044,-1.211464 -1.211464,-1.211464 H 8.4425423 c -0.6784198,0 -1.2114639,0.533044 -1.2114639,1.211464 0,0.67842 0.5330441,1.211464 1.2114639,1.211464 z m 45.0664577,0 H 43.332703 c -0.67842,0 -1.211464,-0.533044 -1.211464,-1.211464 0,-0.67842 0.533044,-1.211464 1.211464,-1.211464 H 53.509 c 0.67842,0 1.211464,0.533044 1.211464,1.211464 0,0.67842 -0.533044,1.211464 -1.211464,1.211464 z M 8.4425423,39.72254 h 9.6917117 c 0.678419,0 1.211463,-0.533044 1.211463,-1.211464 0,-0.67842 -0.533044,-1.211464 -1.211463,-1.211464 H 8.4425423 c -0.6784198,0 -1.2114639,0.533044 -1.2114639,1.211464 0,0.67842 0.5330441,1.211464 1.2114639,1.211464 z m 45.0664577,0 h -9.691712 c -0.678419,0 -1.211463,-0.533044 -1.211463,-1.211464 0,-0.67842 0.533044,-1.211464 1.211463,-1.211464 H 53.509 c 0.67842,0 1.211464,0.533044 1.211464,1.211464 0,0.67842 -0.533044,1.211464 -1.211464,1.211464 z M 8.4425423,35.845856 H 18.618839 c 0.67842,0 1.211464,-0.533044 1.211464,-1.211464 0,-0.67842 -0.533044,-1.211464 -1.211464,-1.211464 H 8.4425423 c -0.6784198,0 -1.2114639,0.533044 -1.2114639,1.211464 0,0.67842 0.5330441,1.211464 1.2114639,1.211464 z m 45.0664577,0 H 43.332703 c -0.67842,0 -1.211464,-0.533044 -1.211464,-1.211464 0,-0.67842 0.533044,-1.211464 1.211464,-1.211464 H 53.509 c 0.67842,0 1.211464,0.533044 1.211464,1.211464 0,0.67842 -0.533044,1.211464 -1.211464,1.211464 z"
       fill-rule="nonzero"
       id="path25"
       style="stroke-width:0.484586;fill:#2c3842;fill-opacity:1" />
  </g>
</svg>
