<?xml version="1.0" encoding="UTF-8" standalone="no"?>
<!-- Created with Inkscape (http://www.inkscape.org/) -->

<svg
   width="62"
   height="62"
   viewBox="0 0 62 62"
   version="1.1"
   id="svg1"
   inkscape:version="1.4 (unknown)"
   sodipodi:docname="communicator.svg"
   xmlns:inkscape="http://www.inkscape.org/namespaces/inkscape"
   xmlns:sodipodi="http://sodipodi.sourceforge.net/DTD/sodipodi-0.dtd"
   xmlns:xlink="http://www.w3.org/1999/xlink"
   xmlns="http://www.w3.org/2000/svg"
   xmlns:svg="http://www.w3.org/2000/svg">
  <sodipodi:namedview
     id="namedview1"
     pagecolor="#ffffff"
     bordercolor="#000000"
     borderopacity="0.25"
     inkscape:showpageshadow="2"
     inkscape:pageopacity="0.0"
     inkscape:pagecheckerboard="0"
     inkscape:deskcolor="#d1d1d1"
     inkscape:document-units="px"
     inkscape:zoom="10.74725"
     inkscape:cx="37.218823"
     inkscape:cy="39.405429"
     inkscape:window-width="1920"
     inkscape:window-height="998"
     inkscape:window-x="0"
     inkscape:window-y="0"
     inkscape:window-maximized="1"
     inkscape:current-layer="layer1" />
  <defs
     id="defs1">
    <linearGradient
       id="linearGradient3"
       inkscape:collect="always">
      <stop
         style="stop-color:#ffffff;stop-opacity:1;"
         offset="0"
         id="stop3" />
      <stop
         style="stop-color:#ffffff;stop-opacity:1;"
         offset="1"
         id="stop4" />
    </linearGradient>
    <linearGradient
       id="linearGradient1"
       inkscape:collect="always">
      <stop
         style="stop-color:#3a4d66;stop-opacity:1;"
         offset="0"
         id="stop1" />
      <stop
         style="stop-color:#80b3ff;stop-opacity:1"
         offset="1"
         id="stop2" />
    </linearGradient>
    <radialGradient
       id="paint664_radial_890_11"
       cx="0"
       cy="0"
       r="1"
       gradientUnits="userSpaceOnUse"
       gradientTransform="matrix(-16.000099,-9.999913,9.999913,-16.000099,583,171)">
      <stop
         offset="0.42141"
         stop-color="#B7C6CD"
         id="stop2071" />
      <stop
         offset="1"
         stop-color="#EFF2F6"
         id="stop2072" />
    </radialGradient>
    <linearGradient
       id="paint665_linear_890_11"
       x1="605"
       y1="180"
       x2="601.466"
       y2="162.72301"
       gradientUnits="userSpaceOnUse">
      <stop
         stop-color="#5200FF"
         id="stop2073" />
      <stop
         offset="1"
         stop-color="#0085FF"
         id="stop2074" />
    </linearGradient>
    <linearGradient
       id="paint666_linear_890_11"
       x1="567"
       y1="181"
       x2="562.11798"
       y2="174.183"
       gradientUnits="userSpaceOnUse">
      <stop
         stop-color="#5200FF"
         id="stop2075" />
      <stop
         offset="0.670391"
         stop-color="#0085FF"
         id="stop2076" />
    </linearGradient>
    <linearGradient
       id="paint667_linear_890_11"
       x1="605"
       y1="180"
       x2="597.32001"
       y2="174.24001"
       gradientUnits="userSpaceOnUse">
      <stop
         stop-color="#5200FF"
         id="stop2077" />
      <stop
         offset="1"
         stop-color="#0085FF"
         id="stop2078" />
    </linearGradient>
    <linearGradient
       id="paint668_linear_890_11"
       x1="567"
       y1="180"
       x2="561.23999"
       y2="172.32001"
       gradientUnits="userSpaceOnUse">
      <stop
         stop-color="#5200FF"
         id="stop2079" />
      <stop
         offset="1"
         stop-color="#0085FF"
         id="stop2080" />
    </linearGradient>
    <linearGradient
       id="paint669_linear_890_11"
       x1="607"
       y1="179"
       x2="602.50598"
       y2="171.80901"
       gradientUnits="userSpaceOnUse">
      <stop
         stop-color="#5200FF"
         id="stop2081" />
      <stop
         offset="1"
         stop-color="#0085FF"
         id="stop2082" />
    </linearGradient>
    <linearGradient
       id="paint670_linear_890_11"
       x1="607"
       y1="217"
       x2="568.82599"
       y2="170.01601"
       gradientUnits="userSpaceOnUse">
      <stop
         stop-color="#5200FF"
         id="stop2083" />
      <stop
         offset="1"
         stop-color="#0085FF"
         id="stop2084" />
    </linearGradient>
    <radialGradient
       id="paint671_radial_890_11"
       cx="0"
       cy="0"
       r="1"
       gradientUnits="userSpaceOnUse"
       gradientTransform="matrix(0,20,-16,0,583,187)">
      <stop
         offset="0.869716"
         stop-color="#EFF2F6"
         id="stop2085" />
      <stop
         offset="1"
         stop-color="#B7C6CD"
         id="stop2086" />
    </radialGradient>
    <linearGradient
       id="paint451_linear_890_11"
       x1="55"
       y1="461"
       x2="111"
       y2="517"
       gradientUnits="userSpaceOnUse"
       gradientTransform="matrix(0.35714286,0,0,0.35714286,-18.642857,-163.64286)">
      <stop
         offset="0.303571"
         stop-color="#EFF2F6"
         id="stop1644" />
      <stop
         offset="1"
         stop-color="#B7C6CD"
         id="stop1645" />
    </linearGradient>
    <linearGradient
       id="paint452_linear_890_11"
       x1="107"
       y1="513"
       x2="67.655701"
       y2="465.78699"
       gradientUnits="userSpaceOnUse"
       gradientTransform="matrix(0.35714286,0,0,0.42857143,-18.642857,-200.28572)">
      <stop
         stop-color="#2E2E41"
         id="stop1646" />
      <stop
         offset="1"
         stop-color="#566C80"
         id="stop1647" />
    </linearGradient>
    <linearGradient
       id="paint453_linear_890_11"
       x1="61"
       y1="465"
       x2="65"
       y2="469"
       gradientUnits="userSpaceOnUse"
       gradientTransform="translate(-53,-457)">
      <stop
         offset="0.236371"
         stop-color="#F15700"
         id="stop1648" />
      <stop
         offset="0.855848"
         stop-color="#FF0000"
         id="stop1649" />
    </linearGradient>
    <linearGradient
       id="paint454_linear_890_11"
       x1="71"
       y1="469"
       x2="67"
       y2="465"
       gradientUnits="userSpaceOnUse"
       gradientTransform="translate(-53,-457)">
      <stop
         stop-color="#FF7E07"
         id="stop1650" />
      <stop
         offset="1"
         stop-color="#FFE607"
         id="stop1651" />
    </linearGradient>
    <linearGradient
       id="paint455_linear_890_11"
       x1="77"
       y1="469"
       x2="73"
       y2="465"
       gradientUnits="userSpaceOnUse"
       gradientTransform="translate(-53,-457)">
      <stop
         stop-color="#089953"
         id="stop1652" />
      <stop
         offset="1"
         stop-color="#16D96F"
         id="stop1653" />
    </linearGradient>
    <linearGradient
       id="paint456_linear_890_11"
       x1="80"
       y1="486"
       x2="80"
       y2="492"
       gradientUnits="userSpaceOnUse"
       gradientTransform="translate(-53,-457)">
      <stop
         offset="0.189495"
         stop-color="#EFF2F6"
         id="stop1654" />
      <stop
         offset="0.850463"
         stop-color="#B7C6CD"
         id="stop1655" />
    </linearGradient>
    <linearGradient
       id="paint457_linear_890_11"
       x1="82"
       y1="494"
       x2="82"
       y2="500"
       gradientUnits="userSpaceOnUse">
      <stop
         offset="0.189495"
         stop-color="#EFF2F6"
         id="stop1656" />
      <stop
         offset="0.850463"
         stop-color="#B7C6CD"
         id="stop1657" />
    </linearGradient>
    <linearGradient
       id="paint334_linear_890_11"
       x1="501"
       y1="565"
       x2="509.82401"
       y2="570.29401"
       gradientUnits="userSpaceOnUse"
       gradientTransform="matrix(0.375,0,0,0.35714286,-168.98214,-199.35714)">
      <stop
         stop-color="#F15700"
         id="stop1410" />
      <stop
         offset="1"
         stop-color="#FF0000"
         id="stop1411" />
    </linearGradient>
    <linearGradient
       id="paint335_linear_890_11"
       x1="507"
       y1="587"
       x2="498.17599"
       y2="581.70599"
       gradientUnits="userSpaceOnUse"
       gradientTransform="matrix(0.375,0,0,0.35714286,-168.98214,-199.35714)">
      <stop
         stop-color="#FF7E07"
         id="stop1412" />
      <stop
         offset="1"
         stop-color="#FFE607"
         id="stop1413" />
    </linearGradient>
    <linearGradient
       id="paint336_linear_890_11"
       x1="507"
       y1="599"
       x2="498.17599"
       y2="593.70599"
       gradientUnits="userSpaceOnUse"
       gradientTransform="matrix(0.375,0,0,0.35714286,-168.98214,-199.35714)">
      <stop
         stop-color="#5200FF"
         id="stop1414" />
      <stop
         offset="1"
         stop-color="#0085FF"
         id="stop1415" />
    </linearGradient>
    <linearGradient
       id="paint337_linear_890_11"
       x1="482.68591"
       y1="561"
       x2="482.74106"
       y2="617"
       gradientUnits="userSpaceOnUse"
       gradientTransform="matrix(0.375,0,0,0.35714286,-168.98214,-199.35714)">
      <stop
         stop-color="#EFF2F6"
         id="stop1416"
         offset="0"
         style="stop-color:#7b93b4;stop-opacity:1;" />
      <stop
         offset="1"
         stop-color="#B7C6CD"
         id="stop1417"
         style="stop-color:#3a4d66;stop-opacity:1;" />
    </linearGradient>
    <linearGradient
       id="paint338_linear_890_11"
       x1="493"
       y1="599"
       x2="490.17599"
       y2="587.70599"
       gradientUnits="userSpaceOnUse"
       gradientTransform="matrix(0.375,0,0,0.35714286,-168.98214,-199.35714)">
      <stop
         stop-color="#2E2E41"
         id="stop1418" />
      <stop
         offset="1"
         stop-color="#566C80"
         id="stop1419" />
    </linearGradient>
    <linearGradient
       id="paint339_linear_890_11"
       x1="487"
       y1="589"
       x2="475"
       y2="577"
       gradientUnits="userSpaceOnUse"
       gradientTransform="matrix(0.375,0,0,0.35714286,-168.98214,-199.35714)">
      <stop
         stop-color="#2E2E41"
         id="stop1420" />
      <stop
         offset="1"
         stop-color="#566C80"
         id="stop1421" />
    </linearGradient>
    <linearGradient
       inkscape:collect="always"
       xlink:href="#linearGradient1"
       id="linearGradient2"
       x1="11.39286"
       y1="21.000006"
       x2="11.39286"
       y2="1.0000045"
       gradientUnits="userSpaceOnUse" />
    <linearGradient
       inkscape:collect="always"
       xlink:href="#linearGradient3"
       id="linearGradient4"
       x1="19"
       y1="84.002285"
       x2="55.000715"
       y2="84.002285"
       gradientUnits="userSpaceOnUse"
       gradientTransform="matrix(0.95540026,0,0,0.95529379,-6.4501296,-49.246835)" />
  </defs>
  <g
     inkscape:label="Layer 1"
     inkscape:groupmode="layer"
     id="layer1">
    <g
       id="g2"
       transform="translate(3.800001,1.9999958)">
      <g
         id="g1"
         transform="matrix(2.7999999,0,0,2.7999999,-6.8000078,-1.800008)">
        <path
           d="m 18.89286,2.4285759 h 1.5 c 0.414375,0 0.75,0.3196429 0.75,0.7142857 v 2.1428572 c 0,0.3946428 -0.335625,0.7142857 -0.75,0.7142857 h -1.5 z"
           id="path326"
           style="fill:#ff2a2a" />
        <path
           d="m 18.89286,6.7142902 h 1.5 c 0.414375,0 0.75,0.3196429 0.75,0.7142857 v 2.1428572 c 0,0.3946429 -0.335625,0.7142859 -0.75,0.7142859 h -1.5 z"
           id="path327"
           style="fill:#ffcc00;fill-opacity:1" />
        <path
           d="m 18.89286,11.000005 h 1.5 c 0.414375,0 0.75,0.319642 0.75,0.714285 v 2.142857 c 0,0.394643 -0.335625,0.714286 -0.75,0.714286 h -1.5 z"
           id="path328"
           style="fill:#2a7fff;fill-opacity:1" />
        <path
           d="m 3.14286,3.1428616 c 0,-1.1835714 1.00725,-2.1428571 2.25,-2.1428571 h 12 c 1.24275,0 2.25,0.9592857 2.25,2.1428571 V 18.857147 c 0,1.183572 -1.00725,2.142858 -2.25,2.142858 h -12 c -1.24275,0 -2.25,-0.959286 -2.25,-2.142858 z"
           id="path329"
           style="fill:url(#linearGradient2)" />
      </g>
    </g>
    <path
       d="m 28.901827,13.802558 a 17.188513,17.186597 0 0 0 -17.199348,17.197429 17.188513,17.186597 0 0 0 8.247595,14.66277 l 0.07584,0.04334 a 18.055161,18.053148 0 0 0 1.401075,0.765449 l 0.21667,0.09392 a 18.055161,18.053148 0 0 0 1.350528,0.566866 l 0.324988,0.108322 a 18.055161,18.053148 0 0 0 1.267474,0.393553 l 0.523595,0.115543 a 18.055161,18.053148 0 0 0 1.133868,0.227473 l 0.639156,0.07586 a 18.055161,18.053148 0 0 0 1.097755,0.10832 18.055161,18.053148 0 0 0 0.920807,0.03611 17.188513,17.186597 0 0 0 12.710835,-5.647021 l 0.162502,-0.173303 -0.0038,-0.0076 a 17.188513,17.186597 0 0 0 4.326156,-11.37329 17.188513,17.186597 0 0 0 -17.195737,-17.19382 m 0,1.913631 a 15.285504,15.283799 0 0 1 15.285504,15.280189 15.274669,15.272967 0 0 1 -3.574927,9.813696 c -2.628826,-3.090703 -6.622625,-5.040442 -11.714187,-5.040442 -5.08072,0 -9.074521,1.942516 -11.706967,5.029608 A 15.274669,15.272967 0 0 1 13.616303,30.992727 15.285504,15.283799 0 0 1 28.898196,15.708928 Z m 0,4.773256 a 5.7307091,6.210284 0 0 0 -5.734318,6.210282 5.7307091,6.210284 0 0 0 5.734318,6.210291 5.7307091,6.210284 0 0 0 5.730708,-6.210291 5.7307091,6.210284 0 0 0 -5.730708,-6.210282"
       fill="#ffffff"
       id="path5"
       style="stroke:url(#linearGradient4);stroke-width:1.60495;stroke-dasharray:none" />
  </g>
</svg>
