<?xml version="1.0" encoding="UTF-8" standalone="no"?>
<svg
   width="64"
   height="64"
   version="1.1"
   id="svg7"
   sodipodi:docname="corebird.svg"
   inkscape:version="1.4 (e7c3feb100, 2024-10-09)"
   xmlns:inkscape="http://www.inkscape.org/namespaces/inkscape"
   xmlns:sodipodi="http://sodipodi.sourceforge.net/DTD/sodipodi-0.dtd"
   xmlns:xlink="http://www.w3.org/1999/xlink"
   xmlns="http://www.w3.org/2000/svg"
   xmlns:svg="http://www.w3.org/2000/svg">
  <defs
     id="defs7">
    <linearGradient
       id="linearGradient7"
       inkscape:collect="always">
      <stop
         style="stop-color:#2d3d53;stop-opacity:1;"
         offset="0"
         id="stop7" />
      <stop
         style="stop-color:#3485fd;stop-opacity:1"
         offset="0.87128341"
         id="stop1" />
      <stop
         style="stop-color:#e25563;stop-opacity:1"
         offset="0.87128341"
         id="stop2" />
      <stop
         style="stop-color:#e25563;stop-opacity:1"
         offset="1"
         id="stop8" />
    </linearGradient>
    <linearGradient
       inkscape:collect="always"
       xlink:href="#linearGradient7"
       id="linearGradient8"
       x1="30.24999"
       y1="47.799957"
       x2="30.249992"
       y2="3.9333327"
       gradientUnits="userSpaceOnUse"
       gradientTransform="matrix(1.047619,0,0,1.2244902,0.30952525,0.32653063)" />
  </defs>
  <sodipodi:namedview
     id="namedview7"
     pagecolor="#ffffff"
     bordercolor="#000000"
     borderopacity="0.25"
     inkscape:showpageshadow="2"
     inkscape:pageopacity="0.0"
     inkscape:pagecheckerboard="0"
     inkscape:deskcolor="#d1d1d1"
     inkscape:zoom="6.0546875"
     inkscape:cx="41.703226"
     inkscape:cy="58.549677"
     inkscape:window-width="1920"
     inkscape:window-height="998"
     inkscape:window-x="0"
     inkscape:window-y="0"
     inkscape:window-maximized="1"
     inkscape:current-layer="svg7" />
  <ellipse
     style="opacity:0.2;stroke-width:1.05945"
     cx="31.99999"
     cy="32.571445"
     rx="27.499989"
     ry="27.428555"
     id="ellipse1" />
  <ellipse
     style="fill:url(#linearGradient8);stroke-width:1.05945"
     cx="31.99999"
     cy="31.428555"
     rx="27.499989"
     ry="27.428555"
     id="ellipse2" />
  <path
     style="opacity:0.1;fill:#ffffff;stroke-width:1.05945"
     d="M 31.999992,4.0000012 A 27.49999,27.428578 0 0 0 4.5000013,31.428579 27.49999,27.428578 0 0 0 4.5230195,32.098217 27.49999,27.428578 0 0 1 31.999992,5.1428581 27.49999,27.428578 0 0 1 59.476977,31.901794 27.49999,27.428578 0 0 0 59.499999,31.428579 27.49999,27.428578 0 0 0 31.999992,4.0000012 Z"
     id="path7" />
  <g
     id="g1"
     transform="translate(-9.5367432e-6,-28.077419)">
    <circle
       style="opacity:0.2"
       cx="24"
       cy="58"
       r="10"
       id="circle3-6" />
    <circle
       style="opacity:0.2"
       cx="40"
       cy="58"
       r="10"
       id="circle4-7" />
    <path
       style="opacity:0.2;fill-rule:evenodd"
       d="m 31.987812,58.000202 v 0 c -0.490968,0 -0.99089,0.18 -1.398022,0.6314 l -8.016628,6.6818 c -0.04654,0.05 -0.08392,0.106 -0.12462,0.16 -0.0112,0.02 -0.0237,0.028 -0.03422,0.044 -0.10874,0.154 -0.18552,0.3136 -0.251742,0.4794 -0.0255,0.066 -0.04096,0.13 -0.0611,0.198 -0.03916,0.13 -0.07736,0.261 -0.09288,0.3956 -0.013,0.098 -0.0074,0.198 -0.0074,0.2982 8.28e-4,0.098 -0.0052,0.2 0.0074,0.298 0.0156,0.134 0.05372,0.2638 0.09288,0.3954 0.02,0.068 0.03558,0.134 0.0611,0.198 0.0662,0.166 0.14302,0.3274 0.251742,0.4794 0.01,0.02 0.0233,0.028 0.03422,0.042 0.0407,0.052 0.07816,0.11 0.12462,0.164 l 8.016628,8.9036 c 0.40713,0.4516 0.907054,0.6304 1.398022,0.6312 v 0 c 0.0032,0 0.0064,0 0.0098,0 0.0032,0 0.0064,0 0.0098,0 v 0 c 0.4912,-6e-4 0.990688,-0.18 1.39802,-0.6312 l 8.02155,-8.9036 c 0.04648,-0.05 0.08396,-0.108 0.12462,-0.164 0.0108,-0.02 0.0242,-0.026 0.0342,-0.042 0.1088,-0.152 0.1854,-0.3136 0.251744,-0.4796 0.0254,-0.066 0.04108,-0.13 0.0611,-0.198 0.03916,-0.13 0.07492,-0.2612 0.09044,-0.3956 0.0126,-0.098 0.009,-0.198 0.0098,-0.298 0,-0.102 0.003,-0.2 -0.0098,-0.2982 -0.0156,-0.134 -0.05126,-0.2636 -0.09044,-0.3954 -0.0202,-0.068 -0.03556,-0.134 -0.0611,-0.198 -0.06626,-0.166 -0.14296,-0.3276 -0.25174,-0.4796 -0.0104,-0.02 -0.02294,-0.026 -0.0342,-0.042 -0.04074,-0.054 -0.07808,-0.108 -0.12464,-0.16 l -8.021516,-6.6816 c -0.407336,-0.4518 -0.906818,-0.6266 -1.398022,-0.6314 v 0 c -0.0032,0 -0.0064,0 -0.0098,0 -0.0032,0 -0.0064,0 -0.0098,0 z"
       id="path4-5" />
    <circle
       style="fill:#ffffff"
       cx="40"
       cy="57"
       r="10"
       id="circle5-3" />
    <circle
       style="fill:#ffffff"
       cx="24"
       cy="57"
       r="10"
       id="circle6" />
    <path
       style="fill:#fcb700;fill-rule:evenodd"
       d="m 31.987812,57.000202 v 0 c -0.490968,0 -0.99089,0.18 -1.398022,0.6314 l -8.016628,6.6818 c -0.04654,0.05 -0.08392,0.106 -0.12462,0.16 -0.0112,0.02 -0.0237,0.028 -0.03422,0.044 -0.10874,0.154 -0.18552,0.3136 -0.251742,0.4794 -0.0255,0.066 -0.04096,0.13 -0.0611,0.198 -0.03916,0.13 -0.07736,0.261 -0.09288,0.3956 -0.013,0.098 -0.0074,0.198 -0.0074,0.2982 8.28e-4,0.098 -0.0052,0.2 0.0074,0.298 0.0156,0.134 0.05372,0.2638 0.09288,0.3954 0.02,0.068 0.03558,0.134 0.0611,0.198 0.0662,0.166 0.14302,0.3274 0.251742,0.4794 0.01,0.02 0.0233,0.028 0.03422,0.042 0.0407,0.052 0.07816,0.11 0.12462,0.164 l 8.016628,8.9036 c 0.40713,0.4516 0.907054,0.6304 1.398022,0.6312 v 0 c 0.0032,0 0.0064,0 0.0098,0 0.0032,0 0.0064,0 0.0098,0 v 0 c 0.4912,-6e-4 0.990688,-0.18 1.39802,-0.6312 l 8.02155,-8.9036 c 0.04648,-0.05 0.08396,-0.108 0.12462,-0.164 0.0108,-0.02 0.0242,-0.026 0.0342,-0.042 0.1088,-0.152 0.1854,-0.3136 0.251744,-0.4796 0.0254,-0.066 0.04108,-0.13 0.0611,-0.198 0.03916,-0.13 0.07492,-0.2612 0.09044,-0.3956 0.0126,-0.098 0.009,-0.198 0.0098,-0.298 0,-0.102 0.003,-0.2 -0.0098,-0.2982 -0.0156,-0.134 -0.05126,-0.2636 -0.09044,-0.3954 -0.0202,-0.068 -0.03556,-0.134 -0.0611,-0.198 -0.06626,-0.166 -0.14296,-0.3276 -0.25174,-0.4796 -0.0104,-0.02 -0.02294,-0.026 -0.0342,-0.042 -0.04074,-0.054 -0.07808,-0.108 -0.12464,-0.16 l -8.021516,-6.6816 c -0.407336,-0.4518 -0.906818,-0.6266 -1.398022,-0.6314 v 0 c -0.0032,0 -0.0064,0 -0.0098,0 -0.0032,0 -0.0064,0 -0.0098,0 z"
       id="path6" />
    <circle
       style="opacity:1;fill:#2d3d53;fill-opacity:1"
       cx="24"
       cy="58"
       r="3"
       id="circle7" />
    <circle
       style="opacity:1;fill:#2d3d53;fill-opacity:1"
       cx="40"
       cy="58"
       r="3"
       id="circle8" />
  </g>
</svg>
