<?xml version="1.0" encoding="UTF-8" standalone="no"?>
<svg
   width="62"
   height="62"
   version="1"
   id="svg7"
   sodipodi:docname="counter-strike.svg"
   inkscape:version="1.4 (unknown)"
   xmlns:inkscape="http://www.inkscape.org/namespaces/inkscape"
   xmlns:sodipodi="http://sodipodi.sourceforge.net/DTD/sodipodi-0.dtd"
   xmlns:xlink="http://www.w3.org/1999/xlink"
   xmlns="http://www.w3.org/2000/svg"
   xmlns:svg="http://www.w3.org/2000/svg">
  <defs
     id="defs7">
    <linearGradient
       id="linearGradient7"
       inkscape:collect="always">
      <stop
         style="stop-color:#384850;stop-opacity:1;"
         offset="0"
         id="stop8" />
      <stop
         style="stop-color:#384850;stop-opacity:1;"
         offset="0.59162253"
         id="stop10" />
      <stop
         style="stop-color:#eff2f6;stop-opacity:1;"
         offset="0.92173076"
         id="stop11" />
      <stop
         style="stop-color:#eff2f6;stop-opacity:1;"
         offset="1"
         id="stop9" />
    </linearGradient>
    <linearGradient
       id="linearGradient1"
       inkscape:collect="always">
      <stop
         style="stop-color:#566c80;stop-opacity:1;"
         offset="0"
         id="stop5" />
      <stop
         style="stop-color:#566c80;stop-opacity:1;"
         offset="0.28848785"
         id="stop7" />
      <stop
         style="stop-color:#495361;stop-opacity:1;"
         offset="1"
         id="stop6" />
    </linearGradient>
    <linearGradient
       id="c-3"
       gradientUnits="userSpaceOnUse"
       x1="24.072048"
       x2="23.959682"
       y1="0.75082099"
       y2="46.056854">
      <stop
         offset="0"
         stop-color="#fff"
         id="stop3" />
      <stop
         offset="1"
         stop-color="#d9d9d9"
         id="stop4" />
    </linearGradient>
    <linearGradient
       id="b-6"
       gradientUnits="userSpaceOnUse"
       x1="29.203026"
       x2="34.121048"
       xlink:href="#a-7"
       y1="24.827356"
       y2="29.224836" />
    <linearGradient
       id="a-7">
      <stop
         offset="0"
         id="stop1" />
      <stop
         offset="1"
         stop-opacity="0"
         id="stop2" />
    </linearGradient>
    <linearGradient
       id="d"
       gradientUnits="userSpaceOnUse"
       x1="15.948756"
       x2="25.031786"
       xlink:href="#a-7"
       y1="23.618279"
       y2="33.69899" />
    <linearGradient
       id="e"
       gradientUnits="userSpaceOnUse"
       x1="21.990562"
       x2="29.320522"
       xlink:href="#a-7"
       y1="33.780373"
       y2="41.931858" />
    <linearGradient
       id="paint154_linear_890_11"
       x1="778"
       y1="812.29199"
       x2="788"
       y2="812.29199"
       gradientUnits="userSpaceOnUse"
       gradientTransform="translate(-751,-696)">
      <stop
         stop-color="#EFF2F6"
         id="stop1050" />
      <stop
         offset="0.600785"
         stop-color="#B7C6CD"
         id="stop1051" />
    </linearGradient>
    <linearGradient
       id="paint155_linear_890_11"
       x1="783"
       y1="813"
       x2="783"
       y2="817"
       gradientUnits="userSpaceOnUse"
       gradientTransform="translate(-751,-696)">
      <stop
         stop-color="#EFF2F6"
         id="stop1052" />
      <stop
         offset="0.734138"
         stop-color="#B7C6CD"
         id="stop1053" />
    </linearGradient>
    <radialGradient
       id="paint156_radial_890_11"
       cx="0"
       cy="0"
       r="1"
       gradientUnits="userSpaceOnUse"
       gradientTransform="matrix(27.999986,27.999976,-27.999986,27.999976,32.302392,33.999998)">
      <stop
         offset="0.60067803"
         stop-color="#B7C6CD"
         id="stop1054"
         style="stop-color:#384850;stop-opacity:1;" />
      <stop
         offset="0.876735"
         stop-color="#EFF2F6"
         id="stop1055" />
    </radialGradient>
    <linearGradient
       id="paint157_linear_890_11"
       x1="796.84485"
       y1="799.43359"
       x2="768.90088"
       y2="770.81476"
       gradientUnits="userSpaceOnUse"
       gradientTransform="matrix(1.1666666,0,0,1.1666668,-881.19764,-881.8333)">
      <stop
         offset="0.00000057"
         stop-color="#2E2E41"
         id="stop1056"
         style="stop-color:#495361;stop-opacity:1;" />
      <stop
         offset="0.711139"
         stop-color="#566C80"
         id="stop1057" />
    </linearGradient>
    <linearGradient
       id="paint158_linear_890_11"
       x1="792"
       y1="794"
       x2="774"
       y2="776"
       gradientUnits="userSpaceOnUse"
       gradientTransform="translate(-751,-696)">
      <stop
         offset="0.304478"
         stop-color="#2E2E41"
         id="stop1058" />
      <stop
         offset="1"
         stop-color="#566C80"
         id="stop1059" />
    </linearGradient>
    <linearGradient
       id="paint159_linear_890_11"
       x1="788"
       y1="790"
       x2="778"
       y2="780"
       gradientUnits="userSpaceOnUse"
       gradientTransform="translate(-751,-696)">
      <stop
         offset="0.391394"
         stop-color="#5200FF"
         id="stop1060" />
      <stop
         offset="1"
         stop-color="#0085FF"
         id="stop1061" />
    </linearGradient>
    <linearGradient
       id="paint160_linear_890_11"
       x1="784"
       y1="798"
       x2="782"
       y2="796"
       gradientUnits="userSpaceOnUse"
       gradientTransform="translate(-751,-696)">
      <stop
         stop-color="#FF7E07"
         id="stop1062" />
      <stop
         offset="1"
         stop-color="#FFE607"
         id="stop1063" />
    </linearGradient>
    <linearGradient
       inkscape:collect="always"
       xlink:href="#linearGradient1"
       id="linearGradient6"
       x1="17.408081"
       y1="16.037786"
       x2="49.155514"
       y2="50.137749"
       gradientUnits="userSpaceOnUse" />
    <radialGradient
       inkscape:collect="always"
       xlink:href="#linearGradient7"
       id="radialGradient9"
       cx="32.302387"
       cy="34"
       fx="32.302387"
       fy="34"
       r="28"
       gradientUnits="userSpaceOnUse"
       gradientTransform="matrix(0.99999999,1,-1,0.99999999,34,-32.302387)" />
  </defs>
  <sodipodi:namedview
     id="namedview7"
     pagecolor="#ffffff"
     bordercolor="#000000"
     borderopacity="0.25"
     inkscape:showpageshadow="2"
     inkscape:pageopacity="0.0"
     inkscape:pagecheckerboard="0"
     inkscape:deskcolor="#d1d1d1"
     inkscape:zoom="8.3306018"
     inkscape:cx="35.171529"
     inkscape:cy="30.850112"
     inkscape:window-width="1920"
     inkscape:window-height="998"
     inkscape:window-x="0"
     inkscape:window-y="0"
     inkscape:window-maximized="1"
     inkscape:current-layer="svg7" />
  <g
     id="g1"
     transform="translate(-1.3023872,-3)">
    <path
       d="m 60.302387,34 c 0,15.46415 -12.535828,28 -28.000002,28 C 16.838222,62 4.3023873,49.46415 4.3023873,34 4.3023873,18.535835 16.838222,6 32.302385,6 47.766559,6 60.302387,18.535835 60.302387,34 Z"
       id="path154"
       style="fill:url(#radialGradient9)" />
    <path
       d="m 55.63572,34 c 0,12.88701 -10.446332,23.33332 -23.333335,23.33332 C 19.415386,57.33332 8.9690543,46.88701 8.9690543,34 c 0,-12.886994 10.4463317,-23.333332 23.3333307,-23.333332 12.887003,0 23.333335,10.446338 23.333335,23.333332 z"
       id="path155"
       style="fill:url(#linearGradient6)" />
  </g>
  <path
     d="m 25.646373,16.306997 c -0.703681,0.03499 -1.484124,0.201619 -2.331527,0.527722 -2.202539,0.806966 -1.633786,3.725999 -1.447151,5.713239 -0.124714,0.185348 -0.378199,0.124294 -0.564845,0.124294 -2.389183,0.124146 -3.45677,2.60855 -3.960083,4.596669 0.124731,1.801893 -0.125364,3.787708 -0.441153,5.525781 -0.315787,1.738946 -0.943192,3.105211 -1.006,4.782086 -0.124725,1.49065 0.440131,3.230165 0.315405,4.596672 -0.659934,1.923206 -1.224146,3.520629 -1.711018,5.148841 1.701823,1.372161 3.598795,2.988803 5.629879,3.814699 0.486051,-1.323319 1.050552,-3.134407 1.735752,-4.430042 0.248564,-0.185344 0.186183,-0.682924 0.62669,-0.87002 1.436678,2.368631 3.463401,4.863516 5.087678,7.132062 0.212862,0.0132 0.825856,0.02382 1.039013,0.031 2.115671,-0.0039 4.519703,0.49609 6.549987,-0.092 -0.02319,-0.05294 0.1648,0.18247 0.139,0.132 -0.751869,-1.427703 -2.947162,-5.215021 -4.392525,-6.642723 0.186641,-0.185347 0.44107,-0.436173 0.752434,-0.56032 0,-1.36563 -0.566293,-1.800271 -1.317279,-2.793455 -0.632452,-0.994059 -2.072843,-2.917577 -3.145805,-3.539189 0,0 -1.77e-4,-0.06321 -1.06784,-0.06321 -0.06194,-0.682811 0.12877,-1.243737 0.315407,-1.988629 0,-0.558665 0.44218,-0.246204 0.566903,-1.489434 0.315785,-1.055261 0.185229,-0.434176 0.439094,-1.489436 0.248559,-0.496593 0.37931,-0.995377 0.37931,-1.803216 0.938511,0.311246 2.823522,0.248297 3.642618,0 l 0.187592,0.12429 c 0.253869,0.06296 0.316363,-0.308758 0.502998,-0.37083 1.44625,-0.74664 1.947241,-2.049898 3.139619,-2.174047 0,0 0.633216,-0.311242 1.570841,0 0.37859,0 0.694716,0.06073 0.694716,-0.311742 0.06193,-0.558664 0.06063,-0.992989 0.37725,-1.367183 0.248557,1.490651 0.938806,3.169323 2.197524,4.784122 l 1.25544,-0.870025 c -1.19238,-1.427706 -1.943814,-3.042404 -2.073844,-4.906371 0.06192,0.124148 0.128841,0.248722 0.253563,0.372868 0.44051,0 0.690281,-0.932105 1.193592,-0.870027 0.06194,-0.12415 0.191564,-0.684085 0.315407,-1.118606 h 4.710458 l 1.694526,-0.372876 V 24.719986 L 46.246632,24.595695 V 23.60137 h -0.315406 v -1.116567 h -0.752434 v 1.055444 l -1.94809,-0.124297 v -0.684604 h -0.752436 v 0.621445 l -2.009935,-0.185408 v -0.931151 h -0.756559 v 0.870023 L 36.755628,22.920839 V 22.611137 H 34.562221 V 22.05285 h -1.19153 v 0.309704 c -0.129143,0.0612 -0.254584,0.187382 -0.379305,0.248583 H 32.86563 c -2.078701,-1.6148 -2.202632,1.676912 -3.586959,0.931146 -0.124724,-0.683688 -0.06186,-1.303917 -0.06186,-2.110877 2.389184,-0.06298 1.509535,-0.684511 0.820472,-1.49148 -0.248571,-0.311236 -0.379247,-0.808232 -0.441158,-1.1186 -0.423921,-1.536989 -1.838747,-2.619148 -3.949774,-2.514318 z m 4.232196,9.566213 c 0.299313,1.11e-4 0.474136,0.09372 0.474136,0.09372 0.752757,-0.125898 1.441886,0.06207 2.638688,0 -0.191952,2.049317 -1.700512,1.178088 -3.333406,2.296298 -0.440506,-0.06121 -0.942728,-0.06113 -1.632676,-0.06113 -0.124729,-1.366504 0.378115,-1.61401 0.626682,-1.862302 0.502868,-0.372883 0.927265,-0.466707 1.226576,-0.466596 z"
     fill-rule="evenodd"
     stroke-width="0.498983"
     id="path3-6"
     sodipodi:nodetypes="ccccccccccccccccccccccccccccccccccccccccccccccccccccccccccccccccccccccccccccc"
     style="fill:#ffffff;fill-opacity:1" />
</svg>
