<?xml version="1.0" encoding="UTF-8" standalone="no"?>
<svg
   width="62"
   height="62"
   viewBox="0 0 16.403844 16.403844"
   version="1.1"
   id="svg4"
   sodipodi:docname="csd-orientation.svg"
   inkscape:version="1.4 (unknown)"
   xmlns:inkscape="http://www.inkscape.org/namespaces/inkscape"
   xmlns:sodipodi="http://sodipodi.sourceforge.net/DTD/sodipodi-0.dtd"
   xmlns="http://www.w3.org/2000/svg"
   xmlns:svg="http://www.w3.org/2000/svg">
  <defs
     id="defs4" />
  <sodipodi:namedview
     id="namedview4"
     pagecolor="#ffffff"
     bordercolor="#000000"
     borderopacity="0.25"
     inkscape:showpageshadow="2"
     inkscape:pageopacity="0.0"
     inkscape:pagecheckerboard="0"
     inkscape:deskcolor="#d1d1d1"
     inkscape:zoom="12.109375"
     inkscape:cx="32.04129"
     inkscape:cy="32"
     inkscape:window-width="1920"
     inkscape:window-height="998"
     inkscape:window-x="0"
     inkscape:window-y="0"
     inkscape:window-maximized="1"
     inkscape:current-layer="svg4" />
  <g
     id="g1"
     transform="translate(-0.7932654,-0.7932654)">
    <rect
       width="14.816375"
       height="14.816375"
       x="1.587"
       y="1.587"
       rx="2.2798576"
       ry="2.2798576"
       id="rect1"
       style="fill:#243142;fill-opacity:1;stroke-width:1.07687" />
    <rect
       width="11.96682"
       height="11.96682"
       x="3.0117743"
       y="3.0117743"
       opacity=".15"
       rx="0.8550812"
       ry="0.8550812"
       id="rect2"
       style="opacity:0.30468;fill:#b7c5d8;fill-opacity:1;stroke-width:1.07687" />
    <path
       fill="#ffffff"
       d="m 4.5410133,10.52873 h 2.8290905 v 2.82801 H 4.5420897 Z"
       opacity=".1"
       id="path2"
       style="opacity:0.442216;stroke-width:1.07687" />
    <path
       d="M 5.6028648,4.5194754 4.5420897,6.8068702 Q 4.8005535,6.6625616 5.093478,6.5957925 L 5.6071727,11.589514 6.1219435,6.5936381 c 0.1906166,0.045235 0.3747706,0.1163083 0.5416949,0.2132321 z m 5.6667882,6.7168006 c 0.09686,0.170159 0.16586,0.357534 0.211079,0.549239 l -5.1703251,0.515846 5.1724821,0.514766 a 1.938471,1.938471 0 0 1 -0.213236,0.541693 l 2.288477,-1.060773 z"
       id="path3"
       style="fill:#dee4ed;fill-opacity:1;stroke-width:1.07687" />
    <path
       fill="none"
       stroke-dasharray="0.852958, 0.852958"
       stroke-dashoffset="1"
       stroke-width="0.569689"
       d="M 4.7187062,8.2348766 H 9.6682673 V 13.183365 H 4.7187062 Z"
       opacity=".2"
       id="path4"
       stroke="#ffffff"
       style="opacity:0.364852" />
  </g>
</svg>
