<?xml version="1.0" encoding="UTF-8" standalone="no"?>
<svg
   width="62"
   height="62"
   version="1.1"
   id="svg5"
   sodipodi:docname="cudatext-512.svg"
   inkscape:version="1.4 (unknown)"
   xmlns:inkscape="http://www.inkscape.org/namespaces/inkscape"
   xmlns:sodipodi="http://sodipodi.sourceforge.net/DTD/sodipodi-0.dtd"
   xmlns:xlink="http://www.w3.org/1999/xlink"
   xmlns="http://www.w3.org/2000/svg"
   xmlns:svg="http://www.w3.org/2000/svg">
  <defs
     id="defs5">
    <linearGradient
       id="linearGradient1"
       inkscape:collect="always">
      <stop
         style="stop-color:#233143;stop-opacity:1;"
         offset="0"
         id="stop1" />
      <stop
         style="stop-color:#3e5675;stop-opacity:1;"
         offset="1"
         id="stop2" />
    </linearGradient>
    <linearGradient
       id="paint1_linear_54_1200"
       x1="16"
       y1="26"
       x2="16"
       y2="6"
       gradientUnits="userSpaceOnUse"
       gradientTransform="matrix(3.0397983,0,0,3.0420943,35.820936,133.83376)">
      <stop
         stop-color="#5570FF"
         id="stop3" />
      <stop
         offset="1"
         stop-color="#4DD3FF"
         id="stop4" />
    </linearGradient>
    <linearGradient
       inkscape:collect="always"
       xlink:href="#linearGradient1"
       id="linearGradient2"
       x1="30.609625"
       y1="59.017544"
       x2="30.165775"
       y2="4.9824562"
       gradientUnits="userSpaceOnUse" />
  </defs>
  <sodipodi:namedview
     id="namedview5"
     pagecolor="#ffffff"
     bordercolor="#000000"
     borderopacity="0.25"
     inkscape:showpageshadow="2"
     inkscape:pageopacity="0.0"
     inkscape:pagecheckerboard="0"
     inkscape:deskcolor="#d1d1d1"
     inkscape:zoom="11.6875"
     inkscape:cx="31.914439"
     inkscape:cy="35.379679"
     inkscape:window-width="1920"
     inkscape:window-height="996"
     inkscape:window-x="0"
     inkscape:window-y="0"
     inkscape:window-maximized="1"
     inkscape:current-layer="svg5" />
  <rect
     style="opacity:0.2;stroke-width:0.9823"
     width="55"
     height="55.017544"
     x="4"
     y="4.9824562"
     rx="8.25"
     ry="8.2526312"
     id="rect1" />
  <rect
     style="fill:url(#linearGradient2);stroke-width:0.9823;fill-opacity:1"
     width="55"
     height="55.017544"
     x="4"
     y="4"
     rx="8.25"
     ry="8.2526312"
     id="rect2" />
  <path
     style="opacity:0.1;fill:#ffffff;stroke-width:0.9823"
     d="M 12.248466,4 C 7.6779652,4 4,7.6791384 4,12.251097 v 0.982456 C 4,8.6615945 7.6779652,4.9824561 12.248466,4.9824561 H 50.751534 C 55.322034,4.9824561 59,8.6615945 59,13.233553 V 12.251097 C 59,7.6791384 55.322034,4 50.751534,4 Z"
     id="path4" />
  <g
     id="g1"
     transform="translate(0,-0.5007499)">
    <path
       style="opacity:0.2"
       d="m 28.933594,15.491978 c -4.672015,0 -8.433594,3.706133 -8.433594,8.308594 v 19.382816 c 0,4.60246 3.761579,8.30859 8.433594,8.30859 h 5.621094 c 3.683436,0 6.791011,-2.76988 7.945312,-6 h -7.945312 -2.410157 -2.8125 C 27.677445,45.491978 26.5,44.414898 26.5,42.784948 V 24.199009 c 0,-1.629954 1.177444,-2.707031 2.832031,-2.707031 h 2.8125 2.410157 H 42.5 c -1.154301,-3.230124 -4.261876,-6 -7.945312,-6 z m 2.566406,10 v 10.26953 c 0,1.68323 0.556209,3.09983 1.482422,4.04688 0.926213,0.94704 2.104037,1.395 3.205078,1.61523 1.101041,0.22023 2.166454,0.2244 3.044922,0.18555 0.878468,-0.03886 1.657507,-0.11719 1.767578,-0.11719 h 1.5 v -16 h -3 v 13.09375 c -0.143794,0.0104 -0.242085,0.0184 -0.400391,0.0254 -0.751339,0.0332 -1.598336,0.0163 -2.324218,-0.12891 -0.725883,-0.14519 -1.290997,-0.406 -1.648438,-0.77148 C 34.769512,37.345248 34.5,36.847518 34.5,35.761508 v -10.26953 z"
       id="path2" />
    <path
       style="fill:#ff7f2a"
       d="M 28.933241,14.491978 C 24.261226,14.491978 20.5,18.197209 20.5,22.79967 v 19.384618 c 0,4.60246 3.761226,8.30769 8.433241,8.30769 h 5.622162 c 3.683436,0 6.790296,-2.76988 7.944597,-6 H 34.555403 32.144081 29.333 c -1.654586,0 -2.833,-1.07766 -2.833,-2.70762 V 23.199593 c 0,-1.629954 1.178413,-2.707615 2.833,-2.707615 H 32.144081 34.555403 42.5 c -1.154301,-3.230124 -4.261161,-6 -7.944597,-6 z"
       id="path3" />
    <path
       style="fill:none;stroke:#ff7f2a;stroke-width:3;stroke-opacity:1"
       d="m 33,24.491978 v 10.26908 c 0,5.53846 6.615384,4.23092 8,4.23092 v -14.5"
       id="path4-3" />
    <path
       style="opacity:0.2;fill:#ffffff"
       d="m 28.933594,14.491978 c -4.672015,0 -8.433594,3.706133 -8.433594,8.308594 v 1 c 0,-4.602461 3.761579,-8.308594 8.433594,-8.308594 h 5.621094 c 3.295126,0 6.118524,2.220168 7.505859,5 H 42.5 c -1.154301,-3.230124 -4.261876,-6 -7.945312,-6 z m 2.566406,10 v 1 h 3 v -1 z m 8,0 v 1 h 3 v -1 z m -5,10.26953 v 1 c 0,1.08601 0.269512,1.58374 0.626953,1.94922 0.357441,0.36548 0.922555,0.6263 1.648438,0.77148 0.725882,0.1452 1.572879,0.16214 2.324218,0.12891 0.158306,-0.007 0.256597,-0.015 0.400391,-0.0254 v -1 c -0.143794,0.0104 -0.242085,0.0184 -0.400391,0.0254 -0.751339,0.0332 -1.598336,0.0163 -2.324218,-0.12891 -0.725883,-0.14519 -1.290997,-0.406 -1.648438,-0.77148 C 34.769512,36.345248 34.5,35.847518 34.5,34.761508 Z m -8,7.02344 v 1 c 0,1.62995 1.177445,2.70703 2.832031,2.70703 h 2.8125 2.410157 7.505859 c 0.163488,-0.32758 0.317766,-0.65948 0.439453,-1 h -7.945312 -2.410157 -2.8125 c -1.654586,0 -2.832031,-1.07708 -2.832031,-2.70703 z"
       id="path6" />
  </g>
</svg>
