<?xml version="1.0" encoding="UTF-8" standalone="no"?>
<svg
   width="62"
   height="62"
   version="1"
   id="svg7"
   sodipodi:docname="curlew.svg"
   inkscape:version="1.4 (unknown)"
   xmlns:inkscape="http://www.inkscape.org/namespaces/inkscape"
   xmlns:sodipodi="http://sodipodi.sourceforge.net/DTD/sodipodi-0.dtd"
   xmlns:xlink="http://www.w3.org/1999/xlink"
   xmlns="http://www.w3.org/2000/svg"
   xmlns:svg="http://www.w3.org/2000/svg">
  <defs
     id="defs7">
    <linearGradient
       id="linearGradient2"
       inkscape:collect="always">
      <stop
         style="stop-color:#aa87de;stop-opacity:1"
         offset="0"
         id="stop12" />
      <stop
         style="stop-color:#e3d7f4;stop-opacity:1"
         offset="1"
         id="stop13" />
    </linearGradient>
    <linearGradient
       id="linearGradient7"
       inkscape:collect="always">
      <stop
         style="stop-color:#384850;stop-opacity:1;"
         offset="0"
         id="stop8" />
      <stop
         style="stop-color:#4a5e69;stop-opacity:1;"
         offset="0.59162253"
         id="stop10" />
      <stop
         style="stop-color:#eff2f6;stop-opacity:1;"
         offset="0.92173076"
         id="stop11" />
      <stop
         style="stop-color:#eff2f6;stop-opacity:1;"
         offset="1"
         id="stop9" />
    </linearGradient>
    <linearGradient
       id="linearGradient1"
       inkscape:collect="always">
      <stop
         style="stop-color:#566c80;stop-opacity:1;"
         offset="0"
         id="stop5" />
      <stop
         style="stop-color:#566c80;stop-opacity:1;"
         offset="0.28848785"
         id="stop7" />
      <stop
         style="stop-color:#495361;stop-opacity:1;"
         offset="1"
         id="stop6" />
    </linearGradient>
    <linearGradient
       id="c-3"
       gradientUnits="userSpaceOnUse"
       x1="24.072048"
       x2="23.959682"
       y1="0.75082099"
       y2="46.056854">
      <stop
         offset="0"
         stop-color="#fff"
         id="stop3" />
      <stop
         offset="1"
         stop-color="#d9d9d9"
         id="stop4" />
    </linearGradient>
    <linearGradient
       id="b-6"
       gradientUnits="userSpaceOnUse"
       x1="29.203026"
       x2="34.121048"
       xlink:href="#a-7"
       y1="24.827356"
       y2="29.224836" />
    <linearGradient
       id="a-7">
      <stop
         offset="0"
         id="stop1" />
      <stop
         offset="1"
         stop-opacity="0"
         id="stop2" />
    </linearGradient>
    <linearGradient
       id="d"
       gradientUnits="userSpaceOnUse"
       x1="15.948756"
       x2="25.031786"
       xlink:href="#a-7"
       y1="23.618279"
       y2="33.69899" />
    <linearGradient
       id="e"
       gradientUnits="userSpaceOnUse"
       x1="21.990562"
       x2="29.320522"
       xlink:href="#a-7"
       y1="33.780373"
       y2="41.931858" />
    <linearGradient
       id="paint154_linear_890_11"
       x1="778"
       y1="812.29199"
       x2="788"
       y2="812.29199"
       gradientUnits="userSpaceOnUse"
       gradientTransform="translate(-751,-696)">
      <stop
         stop-color="#EFF2F6"
         id="stop1050" />
      <stop
         offset="0.600785"
         stop-color="#B7C6CD"
         id="stop1051" />
    </linearGradient>
    <linearGradient
       id="paint155_linear_890_11"
       x1="783"
       y1="813"
       x2="783"
       y2="817"
       gradientUnits="userSpaceOnUse"
       gradientTransform="translate(-751,-696)">
      <stop
         stop-color="#EFF2F6"
         id="stop1052" />
      <stop
         offset="0.734138"
         stop-color="#B7C6CD"
         id="stop1053" />
    </linearGradient>
    <radialGradient
       id="paint156_radial_890_11"
       cx="0"
       cy="0"
       r="1"
       gradientUnits="userSpaceOnUse"
       gradientTransform="matrix(27.999986,27.999976,-27.999986,27.999976,32.302392,33.999998)">
      <stop
         offset="0.60067803"
         stop-color="#B7C6CD"
         id="stop1054"
         style="stop-color:#384850;stop-opacity:1;" />
      <stop
         offset="0.876735"
         stop-color="#EFF2F6"
         id="stop1055" />
    </radialGradient>
    <linearGradient
       id="paint157_linear_890_11"
       x1="796.84485"
       y1="799.43359"
       x2="768.90088"
       y2="770.81476"
       gradientUnits="userSpaceOnUse"
       gradientTransform="matrix(1.1666666,0,0,1.1666668,-881.19764,-881.8333)">
      <stop
         offset="0.00000057"
         stop-color="#2E2E41"
         id="stop1056"
         style="stop-color:#495361;stop-opacity:1;" />
      <stop
         offset="0.711139"
         stop-color="#566C80"
         id="stop1057" />
    </linearGradient>
    <linearGradient
       id="paint158_linear_890_11"
       x1="792"
       y1="794"
       x2="774"
       y2="776"
       gradientUnits="userSpaceOnUse"
       gradientTransform="translate(-751,-696)">
      <stop
         offset="0.304478"
         stop-color="#2E2E41"
         id="stop1058" />
      <stop
         offset="1"
         stop-color="#566C80"
         id="stop1059" />
    </linearGradient>
    <linearGradient
       id="paint159_linear_890_11"
       x1="788"
       y1="790"
       x2="778"
       y2="780"
       gradientUnits="userSpaceOnUse"
       gradientTransform="translate(-751,-696)">
      <stop
         offset="0.391394"
         stop-color="#5200FF"
         id="stop1060" />
      <stop
         offset="1"
         stop-color="#0085FF"
         id="stop1061" />
    </linearGradient>
    <linearGradient
       id="paint160_linear_890_11"
       x1="784"
       y1="798"
       x2="782"
       y2="796"
       gradientUnits="userSpaceOnUse"
       gradientTransform="translate(-751,-696)">
      <stop
         stop-color="#FF7E07"
         id="stop1062" />
      <stop
         offset="1"
         stop-color="#FFE607"
         id="stop1063" />
    </linearGradient>
    <linearGradient
       inkscape:collect="always"
       xlink:href="#linearGradient1"
       id="linearGradient6"
       x1="17.408081"
       y1="16.037786"
       x2="49.155514"
       y2="50.137749"
       gradientUnits="userSpaceOnUse"
       gradientTransform="translate(-1.3023872,-3)" />
    <radialGradient
       inkscape:collect="always"
       xlink:href="#linearGradient7"
       id="radialGradient9"
       cx="32.302387"
       cy="34"
       fx="32.302387"
       fy="34"
       r="28"
       gradientUnits="userSpaceOnUse"
       gradientTransform="matrix(0.99999999,1,-1,0.99999999,32.697613,-35.302387)" />
    <linearGradient
       id="c-3-6"
       gradientUnits="userSpaceOnUse"
       x1="24.072048"
       x2="23.959682"
       y1="0.75082099"
       y2="46.056854"
       gradientTransform="matrix(0.91471346,0,0,0.90068147,9.0468769,9.3836444)">
      <stop
         offset="0"
         stop-color="#fff"
         id="stop3-2" />
      <stop
         offset="1"
         stop-color="#d9d9d9"
         id="stop4-9" />
    </linearGradient>
    <linearGradient
       id="b-6-1"
       gradientUnits="userSpaceOnUse"
       x1="29.203026"
       x2="34.121048"
       xlink:href="#a-7"
       y1="24.827356"
       y2="29.224836"
       gradientTransform="matrix(1.1104534,0,0,1.0934187,4.3491158,4.7861435)" />
    <linearGradient
       id="d-0"
       gradientUnits="userSpaceOnUse"
       x1="15.948756"
       x2="25.031786"
       xlink:href="#a-7"
       y1="23.618279"
       y2="33.69899"
       gradientTransform="matrix(1.1104534,0,0,1.0934187,4.3491158,4.7861435)" />
    <linearGradient
       id="e-9"
       gradientUnits="userSpaceOnUse"
       x1="21.990562"
       x2="29.320522"
       xlink:href="#a-7"
       y1="33.780373"
       y2="41.931858"
       gradientTransform="matrix(1.1104534,0,0,1.0934187,4.3491158,4.7861435)" />
    <linearGradient
       id="linearGradient773"
       gradientTransform="matrix(2.0428665,-6.8308524,5.7819337,2.3633129,-33.356582,5.3194785)"
       gradientUnits="userSpaceOnUse"
       x1="24"
       x2="24"
       y1="35"
       y2="13">
      <stop
         offset="0"
         stop-color="#cd7223"
         id="stop224-5"
         style="stop-color:#ffb380;stop-opacity:1" />
      <stop
         offset=".53"
         stop-color="#f48e00"
         id="stop226-3" />
      <stop
         offset="1"
         stop-color="#ffa92d"
         id="stop228-5" />
    </linearGradient>
    <linearGradient
       id="linearGradient4432">
      <stop
         style="stop-color:#eff1f1;stop-opacity:1"
         offset="0"
         id="stop17" />
      <stop
         style="stop-color:#6f8181;stop-opacity:1"
         offset="1"
         id="stop19" />
    </linearGradient>
    <linearGradient
       inkscape:collect="always"
       xlink:href="#linearGradient1193"
       id="linearGradient1373"
       gradientUnits="userSpaceOnUse"
       gradientTransform="matrix(1.1111196,0,0,1.1111196,4.3331409,4.333137)"
       x1="24"
       y1="45"
       x2="20.355091"
       y2="3.3124757" />
    <linearGradient
       inkscape:collect="always"
       id="linearGradient1193">
      <stop
         style="stop-color:#2e384c;stop-opacity:1;"
         offset="0"
         id="stop1189" />
      <stop
         style="stop-color:#43526f;stop-opacity:1;"
         offset="1"
         id="stop1191" />
    </linearGradient>
    <linearGradient
       id="a-2">
      <stop
         stop-color="#969692"
         offset="0"
         id="stop3-3" />
      <stop
         stop-color="#969692"
         stop-opacity="0"
         offset="1"
         id="stop4-6" />
    </linearGradient>
    <linearGradient
       id="e-1"
       x1="-1.1176227"
       x2="-0.41036412"
       y1="289.6546"
       y2="289.64532"
       gradientTransform="matrix(6.7456967,0.0127412,0.01265839,6.7456978,-29.126969,-1911.263)"
       gradientUnits="userSpaceOnUse"
       xlink:href="#a-2" />
    <linearGradient
       id="d-09"
       x1="-0.86155176"
       x2="-0.1469878"
       y1="289.66055"
       y2="289.70197"
       gradientTransform="matrix(6.7456967,0.0127412,0.01265839,6.7456978,-38.91316,-1913.9109)"
       gradientUnits="userSpaceOnUse"
       xlink:href="#a-2" />
    <linearGradient
       id="c-2"
       x1="-0.59261101"
       x2="0.11464758"
       y1="289.77438"
       y2="289.76511"
       gradientTransform="matrix(6.7456967,0.0127412,0.01265839,6.7456978,-48.766822,-1916.5629)"
       gradientUnits="userSpaceOnUse"
       xlink:href="#a-2" />
    <linearGradient
       id="b-0"
       x1="-0.30974263"
       x2="0.37280104"
       y1="289.83627"
       y2="289.84122"
       gradientTransform="matrix(6.7456967,0.0127412,0.01265839,6.7456978,-58.553025,-1919.2116)"
       gradientUnits="userSpaceOnUse"
       xlink:href="#a-2" />
    <linearGradient
       inkscape:collect="always"
       xlink:href="#linearGradient2"
       id="linearGradient13"
       x1="30.9757"
       y1="45"
       x2="30.9757"
       y2="17"
       gradientUnits="userSpaceOnUse" />
  </defs>
  <sodipodi:namedview
     id="namedview7"
     pagecolor="#ffffff"
     bordercolor="#000000"
     borderopacity="0.25"
     inkscape:showpageshadow="2"
     inkscape:pageopacity="0.0"
     inkscape:pagecheckerboard="0"
     inkscape:deskcolor="#d1d1d1"
     inkscape:zoom="8.3306018"
     inkscape:cx="23.647751"
     inkscape:cy="37.512296"
     inkscape:window-width="1920"
     inkscape:window-height="996"
     inkscape:window-x="0"
     inkscape:window-y="0"
     inkscape:window-maximized="1"
     inkscape:current-layer="svg7" />
  <path
     d="M 59,31 C 59,46.46415 46.464172,59 30.999998,59 15.535835,59 3.0000001,46.46415 3.0000001,31 3.0000001,15.535835 15.535835,3 30.999998,3 46.464172,3 59,15.535835 59,31 Z"
     id="path154"
     style="fill:url(#radialGradient9)" />
  <path
     d="m 54.333333,31 c 0,12.88701 -10.446332,23.33332 -23.333335,23.33332 C 18.112999,54.33332 7.6666671,43.88701 7.6666671,31 7.6666671,18.113006 18.112999,7.666668 30.999998,7.666668 43.887001,7.666668 54.333333,18.113006 54.333333,31 Z"
     id="path155"
     style="fill:url(#linearGradient6)" />
  <rect
     x="7.6665001"
     y="7.6665001"
     width="46.667"
     height="46.667"
     rx="23.3335"
     ry="23.3335"
     stroke-width="3.79813"
     id="rect739-2"
     style="fill:url(#linearGradient1373);fill-opacity:1" />
  <path
     d="m 44.377691,17 h -1.446102 c -0.343751,0 -0.622308,0.265686 -0.622308,0.594952 v 0.741416 c 0,0.329266 -0.278559,0.596086 -0.621118,0.596086 h -1.348892 c -0.343753,0 -0.622309,-0.26682 -0.622309,-0.596086 V 17.594952 C 39.716962,17.265686 39.438404,17 39.09465,17 H 22.856752 c -0.343753,0 -0.622311,0.265686 -0.622311,0.594952 v 0.741416 c 0,0.329266 -0.278546,0.596086 -0.622299,0.596086 h -1.348927 c -0.342559,0 -0.621093,-0.26682 -0.621093,-0.596086 V 17.594952 C 19.642122,17.265686 19.363565,17 19.019823,17 H 17.622309 C 17.278558,17 17,17.265686 17,17.594952 V 44.403914 C 17,44.73318 17.278558,45 17.622309,45 h 1.397514 c 0.343742,0 0.622299,-0.26682 0.622299,-0.596086 v -0.544981 c 0,-0.329266 0.278534,-0.596085 0.621093,-0.596085 h 1.348927 c 0.343753,0 0.622299,0.266819 0.622299,0.596085 v 0.544981 C 22.234441,44.73318 22.512999,45 22.856752,45 H 39.09465 c 0.343754,0 0.622312,-0.26682 0.622312,-0.596086 v -0.544981 c 0,-0.329266 0.278556,-0.596085 0.622309,-0.596085 h 1.348892 c 0.342559,0 0.621118,0.266819 0.621118,0.596085 v 0.544981 C 42.309281,44.73318 42.587838,45 42.931589,45 h 1.446102 C 44.721441,45 45,44.73318 45,44.403914 V 17.594952 C 45,17.265686 44.721441,17 44.377691,17 Z m -22.14325,22.797615 c 0,0.329265 -0.278546,0.596085 -0.622299,0.596085 h -1.348927 c -0.342559,0 -0.621093,-0.26682 -0.621093,-0.596085 v -1.292091 c 0,-0.329243 0.278534,-0.594928 0.621093,-0.594928 h 1.348927 c 0.343753,0 0.622299,0.265685 0.622299,0.594928 z m 0,-5.353386 c 0,0.329265 -0.278546,0.596086 -0.622299,0.596086 h -1.348927 c -0.342559,0 -0.621093,-0.266821 -0.621093,-0.596086 v -1.292092 c 0,-0.328132 0.278534,-0.594951 0.621093,-0.594951 h 1.348927 c 0.343753,0 0.622299,0.266819 0.622299,0.594951 z m 0,-5.353387 c 0,0.329243 -0.278546,0.596063 -0.622299,0.596063 h -1.348927 c -0.342559,0 -0.621093,-0.26682 -0.621093,-0.596063 v -1.29209 c 0,-0.328132 0.278534,-0.594952 0.621093,-0.594952 h 1.348927 c 0.343753,0 0.622299,0.26682 0.622299,0.594952 z m 0,-5.353409 c 0,0.329266 -0.278546,0.596086 -0.622299,0.596086 h -1.348927 c -0.342559,0 -0.621093,-0.26682 -0.621093,-0.596086 V 22.4465 c 0,-0.329266 0.278534,-0.596086 0.621093,-0.596086 h 1.348927 c 0.343753,0 0.622299,0.26682 0.622299,0.596086 z m 14.792993,18.112968 c 0,0.328132 -0.278558,0.594951 -0.621129,0.594951 H 25.593694 c -0.34257,0 -0.621129,-0.266819 -0.621129,-0.594951 v -4.787944 c 0,-0.329267 0.278559,-0.596087 0.621129,-0.596087 h 10.812611 c 0.342571,0 0.621129,0.26682 0.621129,0.596087 z m 0,-8.457551 c 0,0.329266 -0.278558,0.596085 -0.621129,0.596085 H 25.593694 c -0.34257,0 -0.621129,-0.266819 -0.621129,-0.596085 v -4.786834 c 0,-0.329266 0.278559,-0.596086 0.621129,-0.596086 h 10.812611 c 0.342571,0 0.621129,0.26682 0.621129,0.596086 z m 0,-8.45644 c 0,0.329266 -0.278558,0.596085 -0.621129,0.596085 H 25.593694 c -0.34257,0 -0.621129,-0.266819 -0.621129,-0.596085 v -4.787968 c 0,-0.328108 0.278559,-0.594928 0.621129,-0.594928 h 10.812611 c 0.342571,0 0.621129,0.26682 0.621129,0.594928 z m 5.281847,14.861205 c 0,0.329265 -0.278559,0.596085 -0.621118,0.596085 h -1.348892 c -0.343753,0 -0.622309,-0.26682 -0.622309,-0.596085 v -1.292091 c 0,-0.329243 0.278556,-0.594928 0.622309,-0.594928 h 1.348892 c 0.342559,0 0.621118,0.265685 0.621118,0.594928 z m 0,-5.353386 c 0,0.329265 -0.278559,0.596086 -0.621118,0.596086 h -1.348892 c -0.343753,0 -0.622309,-0.266821 -0.622309,-0.596086 v -1.292092 c 0,-0.328132 0.278556,-0.594951 0.622309,-0.594951 h 1.348892 c 0.342559,0 0.621118,0.266819 0.621118,0.594951 z m 0,-5.353387 c 0,0.329243 -0.278559,0.596063 -0.621118,0.596063 h -1.348892 c -0.343753,0 -0.622309,-0.26682 -0.622309,-0.596063 v -1.29209 c 0,-0.328132 0.278556,-0.594952 0.622309,-0.594952 h 1.348892 c 0.342559,0 0.621118,0.26682 0.621118,0.594952 z m 0,-5.353409 c 0,0.329266 -0.278559,0.596086 -0.621118,0.596086 h -1.348892 c -0.343753,0 -0.622309,-0.26682 -0.622309,-0.596086 V 22.4465 c 0,-0.329266 0.278556,-0.596086 0.622309,-0.596086 h 1.348892 c 0.342559,0 0.621118,0.26682 0.621118,0.596086 z"
     fill-rule="nonzero"
     id="path2-6"
     style="fill:url(#linearGradient13);fill-opacity:1;stroke-width:1.16015" />
</svg>
