<?xml version="1.0" encoding="UTF-8" standalone="no"?>
<svg
   width="62"
   height="62"
   version="1.1"
   id="svg5"
   sodipodi:docname="custom-toolbox.svg"
   inkscape:version="1.4 (unknown)"
   xmlns:inkscape="http://www.inkscape.org/namespaces/inkscape"
   xmlns:sodipodi="http://sodipodi.sourceforge.net/DTD/sodipodi-0.dtd"
   xmlns:xlink="http://www.w3.org/1999/xlink"
   xmlns="http://www.w3.org/2000/svg"
   xmlns:svg="http://www.w3.org/2000/svg">
  <defs
     id="defs5">
    <linearGradient
       id="linearGradient1"
       inkscape:collect="always">
      <stop
         style="stop-color:#233143;stop-opacity:1;"
         offset="0"
         id="stop1" />
      <stop
         style="stop-color:#2a7a87;stop-opacity:1;"
         offset="1"
         id="stop2" />
    </linearGradient>
    <linearGradient
       id="paint1_linear_54_1200"
       x1="16"
       y1="26"
       x2="16"
       y2="6"
       gradientUnits="userSpaceOnUse"
       gradientTransform="matrix(3.0397983,0,0,3.0420943,35.820936,133.83376)">
      <stop
         stop-color="#5570FF"
         id="stop3" />
      <stop
         offset="1"
         stop-color="#4DD3FF"
         id="stop4" />
    </linearGradient>
    <linearGradient
       inkscape:collect="always"
       xlink:href="#linearGradient1"
       id="linearGradient2"
       x1="30.609625"
       y1="59.017544"
       x2="30.165775"
       y2="4.9824562"
       gradientUnits="userSpaceOnUse" />
  </defs>
  <sodipodi:namedview
     id="namedview5"
     pagecolor="#ffffff"
     bordercolor="#000000"
     borderopacity="0.25"
     inkscape:showpageshadow="2"
     inkscape:pageopacity="0.0"
     inkscape:pagecheckerboard="0"
     inkscape:deskcolor="#d1d1d1"
     inkscape:zoom="11.6875"
     inkscape:cx="31.914439"
     inkscape:cy="38.374332"
     inkscape:window-width="1920"
     inkscape:window-height="996"
     inkscape:window-x="0"
     inkscape:window-y="0"
     inkscape:window-maximized="1"
     inkscape:current-layer="svg5" />
  <rect
     style="opacity:0.2;stroke-width:0.9823"
     width="55"
     height="55.017544"
     x="4"
     y="4.9824562"
     rx="8.25"
     ry="8.2526312"
     id="rect1" />
  <rect
     style="fill:url(#linearGradient2);stroke-width:0.9823;fill-opacity:1"
     width="55"
     height="55.017544"
     x="4"
     y="4"
     rx="8.25"
     ry="8.2526312"
     id="rect2" />
  <path
     style="opacity:0.1;fill:#ffffff;stroke-width:0.9823"
     d="M 12.248466,4 C 7.6779652,4 4,7.6791384 4,12.251097 v 0.982456 C 4,8.6615945 7.6779652,4.9824561 12.248466,4.9824561 H 50.751534 C 55.322034,4.9824561 59,8.6615945 59,13.233553 V 12.251097 C 59,7.6791384 55.322034,4 50.751534,4 Z"
     id="path4" />
  <g
     id="g1"
     transform="translate(-1,-7)">
    <path
       style="opacity:0.2"
       d="m 23,22 -4,4 11.041,12.422 -2.23,2.623 L 25,38 10,55 H 54 L 44,43 42.842,44.322 35.627,36.205 46,24 44,22 33.734,34.076 Z m 8.934,18.551 7.16,8.054 L 37,51 29.738,43.133 Z"
       id="path3" />
    <path
       style="fill:#ffffff"
       d="m 23,21 -4,4 11.041,12.422 -2.23,2.623 L 25,37 10,54 H 54 L 44,42 42.842,43.322 35.627,35.205 46,23 44,21 33.734,33.076 Z m 8.934,18.551 7.16,8.054 L 37,50 29.738,42.133 Z"
       id="path4-5" />
  </g>
  <g
     id="g2"
     transform="matrix(0.671875,0,0,0.66666667,24.25,7.9999998)">
    <circle
       style="opacity:0.2"
       cx="32"
       cy="59"
       r="16"
       id="circle4" />
    <circle
       style="fill:#318e9e"
       cx="32"
       cy="58"
       r="16"
       id="circle5" />
    <path
       style="fill:#ffffff"
       d="m 29.927998,50.000002 -0.176,2.107 a 6.2858,6.2858 0 0 0 -1.837,1.063 l -1.916,-0.902 -2,3.464 1.739,1.208 a 6.2858,6.2858 0 0 0 -0.096,1.06 6.2858,6.2858 0 0 0 0.092,1.065 l -1.734,1.204 2,3.464 1.91,-0.9 a 6.2858,6.2858 0 0 0 1.842,1.056 l 0.176,2.112 h 4 l 0.177,-2.107 a 6.2858,6.2858 0 0 0 1.837,-1.063 l 1.915,0.902 2,-3.464 -1.739,-1.208 a 6.2858,6.2858 0 0 0 0.096,-1.06 6.2858,6.2858 0 0 0 -0.091,-1.065 l 1.734,-1.203 -2,-3.464 -1.911,0.899 a 6.2858,6.2858 0 0 0 -1.841,-1.056 l -0.177,-2.111 h -4 z m 2,5.714 a 2.2858,2.2858 0 0 1 2.286,2.286 2.2858,2.2858 0 0 1 -2.286,2.286 2.2858,2.2858 0 0 1 -2.286,-2.286 2.2858,2.2858 0 0 1 2.286,-2.286 z"
       id="path5" />
  </g>
</svg>
