<?xml version="1.0" encoding="UTF-8" standalone="no"?>
<svg
   clip-rule="evenodd"
   fill-rule="evenodd"
   stroke-linejoin="round"
   stroke-miterlimit="2"
   viewBox="0 0 62 62"
   version="1.1"
   id="svg6"
   sodipodi:docname="cutentr.svg"
   width="62"
   height="62"
   inkscape:version="1.4 (unknown)"
   xmlns:inkscape="http://www.inkscape.org/namespaces/inkscape"
   xmlns:sodipodi="http://sodipodi.sourceforge.net/DTD/sodipodi-0.dtd"
   xmlns="http://www.w3.org/2000/svg"
   xmlns:svg="http://www.w3.org/2000/svg">
  <defs
     id="defs6" />
  <sodipodi:namedview
     id="namedview6"
     pagecolor="#ffffff"
     bordercolor="#000000"
     borderopacity="0.25"
     inkscape:showpageshadow="2"
     inkscape:pageopacity="0.0"
     inkscape:pagecheckerboard="0"
     inkscape:deskcolor="#d1d1d1"
     inkscape:zoom="8.0520833"
     inkscape:cx="17.4489"
     inkscape:cy="31.482536"
     inkscape:window-width="1920"
     inkscape:window-height="996"
     inkscape:window-x="0"
     inkscape:window-y="0"
     inkscape:window-maximized="1"
     inkscape:current-layer="svg6" />
  <g
     id="g6"
     transform="translate(0.668,0.668)">
    <path
       d="m 50.284002,2.332 c 4.442681,0 8.047998,3.6053165 8.047998,8.047997 v 39.904005 c 0,4.442681 -3.605317,8.047998 -8.047998,8.047998 H 10.379997 C 5.9373165,58.332 2.332,54.726683 2.332,50.284002 V 10.379997 C 2.332,5.9373165 5.9373165,2.332 10.379997,2.332 Z"
       id="path1"
       style="stroke-width:1.29223;fill:#c6c6cd;fill-opacity:1" />
    <path
       d="m 58.332,50.284002 c 0,4.442681 -3.604024,8.046705 -8.046705,8.047998 H 10.378705 C 5.9360243,58.330707 2.332,54.726683 2.332,50.284002 V 28.932517 h 56 z"
       fill-rule="nonzero"
       id="path2"
       style="stroke-width:1.29223;fill:#9292a0;fill-opacity:1" />
    <path
       d="M 19.13226,35.932517 H 41.53174 V 54.13226 H 19.13226 Z M 13.53174,6.5317417 H 47.13226 V 24.731483 H 13.53174 Z"
       fill-rule="nonzero"
       id="path3"
       style="stroke-width:1.29223;fill:#233143;fill-opacity:1" />
    <path
       d="m 9.332,42.932517 -4.1881114,0.03101 -0.01163,4.168729 H 9.332 V 51.332 h 4.19974 v -4.19974 h 4.199743 V 42.932517 H 13.53174 V 38.731483 H 9.332 Z"
       fill="#e4e4e4"
       id="path4"
       style="stroke-width:1.29223;fill:#ccd7e5;fill-opacity:1" />
    <path
       d="M 10.731483,23.332 H 5.1322583 v 1.399483 h 5.5992247 z m 44.800257,0 h -5.599223 v 1.399483 H 55.53174 Z M 10.731483,20.53174 H 5.1322583 v 1.400777 h 5.5992247 z m 44.800257,0 h -5.599223 v 1.400777 H 55.53174 Z M 10.731483,17.731483 H 5.1322583 v 1.400777 h 5.5992247 z m 44.800257,0 h -5.599223 v 1.400777 h 5.599223 z"
       fill="#9c9c9c"
       id="path5"
       style="stroke-width:1.29223;fill:#839dbe;fill-opacity:1" />
  </g>
  <g
     id="g7"
     transform="translate(83.270115,29.479403)">
    <circle
       cx="-32.270115"
       cy="21.520597"
       r="11"
       fill="#5c6f77"
       id="circle5"
       style="fill:#587ba7;fill-opacity:1" />
    <path
       d="m -33.770113,15.520599 -0.133,1.58 c -0.501,0.185 -0.966,0.455 -1.377,0.797 l -1.437,-0.676 -1.5,2.597 1.304,0.907 c -0.046,0.262 -0.07,0.528 -0.072,0.795 0,0.267 0.023,0.535 0.068,0.798 l -1.3,0.903 1.5,2.597 1.433,-0.673 c 0.412,0.34 0.879,0.607 1.381,0.791 l 0.133,1.584 h 3 l 0.131,-1.58 c 0.501,-0.186 0.967,-0.455 1.379,-0.797 l 1.435,0.675 1.5,-2.597 -1.303,-0.906 c 0.047,-0.263 0.071,-0.529 0.073,-0.795 0,-0.268 -0.023,-0.535 -0.069,-0.799 l 1.301,-0.903 -1.5,-2.597 -1.434,0.674 c -0.412,-0.34 -0.879,-0.608 -1.38,-0.791 l -0.133,-1.584 z m 1.451,4 c 0.016,-0.001 0.033,-0.001 0.049,0 1.097,0 2,0.902 2,2 0,1.097 -0.903,2 -2,2 -1.097,0 -2,-0.903 -2,-2 0,-1.079 0.873,-1.974 1.951,-2 z"
       fill="#ffffff"
       fill-rule="nonzero"
       id="path6"
       style="fill:#edf2f7;fill-opacity:1" />
  </g>
</svg>
