<?xml version="1.0" encoding="UTF-8" standalone="no"?>
<svg
   clip-rule="evenodd"
   fill-rule="evenodd"
   stroke-linejoin="round"
   stroke-miterlimit="2"
   viewBox="0 0 62 62"
   version="1.1"
   id="svg3"
   sodipodi:docname="cutemaze.svg"
   width="62"
   height="62"
   inkscape:version="1.4 (unknown)"
   xmlns:inkscape="http://www.inkscape.org/namespaces/inkscape"
   xmlns:sodipodi="http://sodipodi.sourceforge.net/DTD/sodipodi-0.dtd"
   xmlns="http://www.w3.org/2000/svg"
   xmlns:svg="http://www.w3.org/2000/svg">
  <defs
     id="defs3" />
  <sodipodi:namedview
     id="namedview3"
     pagecolor="#ffffff"
     bordercolor="#000000"
     borderopacity="0.25"
     inkscape:showpageshadow="2"
     inkscape:pageopacity="0.0"
     inkscape:pagecheckerboard="0"
     inkscape:deskcolor="#d1d1d1"
     inkscape:zoom="8.0520833"
     inkscape:cx="22.664942"
     inkscape:cy="42.411384"
     inkscape:window-width="1920"
     inkscape:window-height="996"
     inkscape:window-x="0"
     inkscape:window-y="0"
     inkscape:window-maximized="1"
     inkscape:current-layer="svg3" />
  <linearGradient
     id="a"
     x2="1"
     gradientTransform="matrix(0,-40,40,0,24.7331,44)"
     gradientUnits="userSpaceOnUse">
    <stop
       stop-color="#fff"
       offset="0"
       id="stop1"
       style="stop-color:#cccccc;stop-opacity:1" />
    <stop
       stop-color="#e4e4e4"
       offset="1"
       id="stop2"
       style="stop-color:#ececec;stop-opacity:1" />
  </linearGradient>
  <g
     transform="matrix(1.4,0,0,1.4,-2.6,-2.6)"
     id="g3">
    <path
       d="M 9.749,4 H 38.251 C 41.425,4 44,6.575 44,9.749 v 28.502 c 0,2.745 -1.926,5.041 -4.499,5.613 L 38,43 6.574,43.044 C 5.023,42.014 4,40.251 4,38.251 V 9.749 C 4,6.575 6.575,4 9.749,4 Z"
       fill="url(#a)"
       id="path2"
       style="fill:url(#a)" />
    <path
       d="M 9.749,4 H 13 v 23 h 9 V 40 H 36 V 17 h 8 v 4 H 40 V 43.729 C 39.449,43.905 38.861,44 38.251,44 H 9.749 C 7.185,44 5.011,42.319 4.271,40 H 18 V 31 H 4 V 27 H 9 V 4.048 C 9.245,4.016 9.495,4 9.749,4 Z M 18,4 h 4 v 14 h 5 V 8 H 43.729 C 43.905,8.551 44,9.139 44,9.749 V 12 H 31 V 35 H 27 V 22 h -9 z"
       fill="#239623"
       id="path3"
       style="fill:#2ca05a;fill-opacity:1" />
  </g>
</svg>
