<?xml version="1.0" encoding="UTF-8" standalone="no"?>
<svg
   width="62"
   height="62"
   version="1"
   id="svg5"
   sodipodi:docname="cyan.svg"
   inkscape:version="1.4 (e7c3feb100, 2024-10-09)"
   xmlns:inkscape="http://www.inkscape.org/namespaces/inkscape"
   xmlns:sodipodi="http://sodipodi.sourceforge.net/DTD/sodipodi-0.dtd"
   xmlns:xlink="http://www.w3.org/1999/xlink"
   xmlns="http://www.w3.org/2000/svg"
   xmlns:svg="http://www.w3.org/2000/svg">
  <defs
     id="defs5">
    <linearGradient
       id="linearGradient1"
       inkscape:collect="always">
      <stop
         style="stop-color:#2c313a;stop-opacity:1;"
         offset="0"
         id="stop1" />
      <stop
         style="stop-color:#6f7c91;stop-opacity:1;"
         offset="1"
         id="stop2" />
    </linearGradient>
    <linearGradient
       id="linearGradient7"
       inkscape:collect="always">
      <stop
         style="stop-color:#2c323a;stop-opacity:1;"
         offset="0"
         id="stop7" />
      <stop
         style="stop-color:#6f7c91;stop-opacity:1"
         offset="1"
         id="stop8" />
    </linearGradient>
    <linearGradient
       id="linearGradient5"
       inkscape:collect="always">
      <stop
         style="stop-color:#008b8b;stop-opacity:1;"
         offset="0"
         id="stop5" />
      <stop
         style="stop-color:#00bcbc;stop-opacity:1;"
         offset="1"
         id="stop6" />
    </linearGradient>
    <linearGradient
       inkscape:collect="always"
       xlink:href="#linearGradient5"
       id="linearGradient6"
       x1="29.85113"
       y1="58.846828"
       x2="31.298714"
       y2="4.9866076"
       gradientUnits="userSpaceOnUse" />
    <linearGradient
       inkscape:collect="always"
       xlink:href="#linearGradient7"
       id="linearGradient8"
       x1="32.975471"
       y1="58.982265"
       x2="33.249718"
       y2="4.9824562"
       gradientUnits="userSpaceOnUse" />
    <linearGradient
       inkscape:collect="always"
       xlink:href="#linearGradient1"
       id="linearGradient2"
       x1="34.258297"
       y1="59.01754"
       x2="35.046833"
       y2="5.0644112"
       gradientUnits="userSpaceOnUse" />
  </defs>
  <sodipodi:namedview
     id="namedview5"
     pagecolor="#ffffff"
     bordercolor="#000000"
     borderopacity="0.25"
     inkscape:showpageshadow="2"
     inkscape:pageopacity="0.0"
     inkscape:pagecheckerboard="0"
     inkscape:deskcolor="#d1d1d1"
     inkscape:zoom="11.6875"
     inkscape:cx="31.957219"
     inkscape:cy="32"
     inkscape:window-width="1920"
     inkscape:window-height="994"
     inkscape:window-x="0"
     inkscape:window-y="0"
     inkscape:window-maximized="1"
     inkscape:current-layer="svg5" />
  <g
     id="g5"
     transform="translate(-1,-1)">
    <path
       style="opacity:0.2;stroke-width:0.981798"
       d="M 57.999996,25.61404 C 57.999996,37.008539 46.359393,60 31.999998,60 17.640593,60 6,37.008539 6,25.61404 6,14.219531 12.774235,4.982456 31.999998,4.982456 c 19.225764,0 25.999998,9.237075 25.999998,20.631584 z"
       id="path1" />
    <path
       style="fill:url(#linearGradient6);stroke-width:0.981798"
       d="m 57.999996,24.63158 c 0,11.394509 -11.640603,34.38596 -25.999998,34.38596 C 17.640593,59.01754 6,36.026089 6,24.63158 6,13.237071 12.774235,4 31.999998,4 51.225762,4 57.999996,13.237071 57.999996,24.63158 Z"
       id="path2" />
    <path
       style="opacity:0.2;stroke-width:0.981798"
       d="M 28.707959,51.455373 C 28.540383,51.07864 28.311927,50.368344 28.200286,49.876955 27.828123,48.238878 27.98839,48.39893 26.629695,48.308486 c -2.487197,-0.165591 -4.256139,-1.167766 -5.557848,-3.14878 -1.789923,-2.724 -1.875163,-6.621117 -0.248281,-11.351045 0.327774,-0.952962 0.576347,-1.752146 0.552397,-1.775956 -0.02402,-0.02385 -0.493165,-0.164455 -1.0427,-0.312519 -2.676199,-0.721094 -4.988137,-2.384356 -6.244493,-4.49241 -0.913544,-1.532869 -1.385117,-3.810306 -1.168854,-5.644995 0.257616,-2.185416 1.001817,-3.679322 2.639977,-5.299396 1.357415,-1.342434 2.589412,-2.116336 4.291165,-2.695595 3.272922,-1.114072 6.988834,-0.974819 10.254525,0.384267 1.813138,0.75457 4.025638,2.278894 5.081868,3.501211 0.283749,0.328353 0.594689,0.597012 0.690983,0.597012 0.09633,0 0.760654,-0.291962 1.476353,-0.64881 3.669667,-1.8297 7.714541,-3.044101 10.139138,-3.044101 0.858621,0 2.015966,0.319027 2.563526,0.706648 0.874597,0.619143 1.282282,2.030124 0.970624,3.359313 -0.224546,0.957682 -1.003392,2.361509 -1.87102,3.372458 -3.23989,3.775023 -11.11446,7.946572 -17.900476,9.482769 -1.367691,0.309613 -4.243654,0.776447 -5.272237,0.855804 -0.386829,0.02989 -0.449303,0.09246 -0.804603,0.806686 -0.554386,1.114399 -1.306547,3.475443 -1.659933,5.210537 -0.545751,2.679674 -0.518102,5.057635 0.07718,6.639409 0.319485,0.848928 1.251402,1.866606 2.065015,2.25506 0.726491,0.346864 1.848695,0.575167 1.958555,0.398462 0.04021,-0.06466 0.06268,-0.991468 0.04999,-2.059632 -0.05318,-4.484824 1.189693,-7.722543 3.985984,-10.383739 1.6439,-1.564487 3.304282,-2.247948 5.231733,-2.153524 2.163062,0.105971 3.498602,1.279902 3.834542,3.370589 0.39988,2.488564 -0.823674,5.169029 -3.570615,7.822242 -2.242891,2.166373 -4.733414,3.517339 -7.453344,4.043022 -0.428381,0.08279 -0.851944,0.205305 -0.94127,0.272258 -0.216777,0.162469 -0.09827,1.196839 0.289503,2.527223 0.339515,1.164753 0.347078,1.237396 0.128932,1.237396 -0.08988,0 -0.300478,-0.308233 -0.468066,-0.684977 z m 1.86893,-4.250554 c 2.258371,-0.569548 4.216026,-1.693826 6.094253,-3.499924 2.2648,-2.177815 3.332564,-4.230247 3.332564,-6.405803 0,-1.378161 -0.458287,-2.324751 -1.37797,-2.846184 -0.637949,-0.361699 -1.099593,-0.432708 -1.938075,-0.298127 -1.130664,0.181482 -2.308314,0.837386 -3.377819,1.881299 -2.008179,1.960103 -3.63922,4.90863 -4.377019,7.912558 -0.307873,1.253534 -0.521961,3.185877 -0.378537,3.4166 0.127039,0.204367 0.782178,0.152402 2.022603,-0.160424 z M 31.91561,29.333494 c 6.074075,-0.9165 12.386608,-3.721432 15.882419,-7.057258 1.899699,-1.812768 2.753852,-3.284422 2.74753,-4.733865 -0.0046,-1.11455 -0.764223,-2.167755 -1.761486,-2.443079 -1.131054,-0.312273 -3.03375,-0.09112 -5.115576,0.594666 -1.968204,0.64832 -6.780205,3.178325 -6.780205,3.564822 0,0.06852 0.397164,0.780622 0.882581,1.582505 1.198344,1.979607 1.540512,2.675987 1.451649,2.954357 -0.04061,0.127016 -0.119235,0.230942 -0.174814,0.230942 -0.182079,0 -0.647775,-0.642221 -1.499794,-2.068285 -0.460983,-0.771609 -0.991089,-1.587367 -1.178003,-1.812801 l -0.339844,-0.409889 -0.379697,0.263519 c -2.02587,1.40604 -5.44539,4.629584 -6.789681,6.400554 -0.835932,1.101254 -2.037578,2.954912 -2.037578,3.143163 0,0.166251 3.577982,0.0192 5.092506,-0.209351 z M 24.169119,27.968 c 2.842556,-3.653581 5.852286,-6.269169 10.660241,-9.264216 0.357181,-0.222499 0.313424,-0.275314 -1.258924,-1.519435 -2.076728,-1.643211 -3.773346,-2.517691 -5.924974,-3.053868 -1.416113,-0.352895 -4.314472,-0.444738 -5.818407,-0.184384 -3.541372,0.613074 -6.448785,2.718753 -7.417545,5.372127 -1.222939,3.34955 0.437982,6.953093 4.025935,8.734684 1.228563,0.610045 3.466381,1.30597 4.261862,1.325384 0.331422,0.0082 0.47631,-0.130755 1.471812,-1.410292 z"
       id="path3" />
    <path
       style="fill:url(#linearGradient8);stroke-width:1.582;stroke:url(#linearGradient2);stroke-dasharray:none"
       d="M 28.707959,50.472923 C 28.540383,50.09618 28.311927,49.385894 28.200286,48.894495 27.828123,47.256418 27.98839,47.41648 26.629695,47.326026 c -2.487197,-0.165581 -4.256139,-1.167766 -5.557848,-3.14878 -1.789923,-2.724 -1.875163,-6.621117 -0.248281,-11.351035 0.327774,-0.952972 0.576347,-1.752156 0.552397,-1.775966 -0.02402,-0.02385 -0.493165,-0.164445 -1.0427,-0.312519 -2.676199,-0.721084 -4.988137,-2.384346 -6.244493,-4.49241 -0.913544,-1.532869 -1.385117,-3.810306 -1.168854,-5.644985 0.257616,-2.185426 1.001817,-3.679322 2.639977,-5.299396 1.357415,-1.342444 2.589412,-2.116346 4.291165,-2.695605 3.272922,-1.114062 6.988834,-0.974819 10.254525,0.384267 1.813138,0.75458 4.025638,2.278904 5.081868,3.501211 0.283749,0.328363 0.594689,0.597017 0.690983,0.597017 0.09633,0 0.760654,-0.291967 1.476353,-0.648815 3.669667,-1.82969 7.714541,-3.044101 10.139138,-3.044101 0.858621,0 2.015966,0.319037 2.563526,0.706651 0.874597,0.619149 1.282282,2.030121 0.970624,3.35932 -0.224546,0.957682 -1.003392,2.361509 -1.87102,3.372448 -3.23989,3.775023 -11.11446,7.946572 -17.900476,9.482769 -1.367691,0.309613 -4.243654,0.776447 -5.272237,0.855814 -0.386829,0.02989 -0.449303,0.09246 -0.804603,0.806676 -0.554386,1.114399 -1.306547,3.475443 -1.659933,5.210547 -0.545751,2.679674 -0.518102,5.057625 0.07718,6.639409 0.319485,0.848928 1.251402,1.866596 2.065015,2.25506 0.726491,0.346854 1.848695,0.575167 1.958555,0.398452 0.04021,-0.0646 0.06268,-0.991458 0.04999,-2.059632 -0.05318,-4.484814 1.189693,-7.722543 3.985984,-10.383739 1.6439,-1.564487 3.304282,-2.247938 5.231733,-2.153524 2.163062,0.105981 3.498602,1.279912 3.834542,3.370589 0.39988,2.488564 -0.823674,5.169039 -3.570615,7.822252 -2.242891,2.166363 -4.733414,3.517329 -7.453344,4.043012 -0.428381,0.08279 -0.851944,0.205315 -0.94127,0.272258 -0.216777,0.162479 -0.09827,1.196849 0.289503,2.527223 0.339515,1.164753 0.347078,1.237396 0.128932,1.237396 -0.08988,0 -0.300478,-0.308233 -0.468066,-0.684967 z m 1.86893,-4.250564 c 2.258371,-0.569548 4.216026,-1.693816 6.094253,-3.499914 2.2648,-2.177815 3.332564,-4.230247 3.332564,-6.405803 0,-1.378161 -0.458287,-2.324761 -1.37797,-2.846194 -0.637949,-0.361699 -1.099593,-0.432707 -1.938075,-0.298117 -1.130664,0.181472 -2.308314,0.837376 -3.377819,1.881289 -2.008179,1.960103 -3.63922,4.90864 -4.377019,7.912568 -0.307873,1.253524 -0.521961,3.185867 -0.378537,3.41659 0.127039,0.204377 0.782178,0.152402 2.022603,-0.160424 z M 31.91561,28.351034 c 6.074075,-0.91649 12.386608,-3.721432 15.882419,-7.057258 1.899699,-1.812768 2.753852,-3.284422 2.74753,-4.733855 -0.0046,-1.11455 -0.764223,-2.167755 -1.761486,-2.443089 -1.131054,-0.312263 -3.03375,-0.09112 -5.115576,0.594666 -1.968204,0.64833 -6.780205,3.178335 -6.780205,3.564832 0,0.06852 0.397164,0.780622 0.882581,1.582505 1.198344,1.979607 1.540512,2.675977 1.451649,2.954347 -0.04061,0.127016 -0.119235,0.230952 -0.174814,0.230952 -0.182079,0 -0.647775,-0.642231 -1.499794,-2.068295 -0.460983,-0.771599 -0.991089,-1.587357 -1.178003,-1.812801 l -0.339844,-0.409889 -0.379697,0.263529 c -2.02587,1.40604 -5.44539,4.629574 -6.789681,6.400544 -0.835932,1.101254 -2.037578,2.954912 -2.037578,3.143163 0,0.166251 3.577982,0.01921 5.092506,-0.209351 z M 24.169119,26.98554 c 2.842556,-3.653571 5.852286,-6.269169 10.660241,-9.264206 0.357181,-0.222509 0.313424,-0.275324 -1.258924,-1.519445 -2.076728,-1.643211 -3.773346,-2.517681 -5.924974,-3.053868 -1.416113,-0.352895 -4.314472,-0.444738 -5.818407,-0.184381 -3.541372,0.613081 -6.448785,2.71876 -7.417545,5.372124 -1.222939,3.34955 0.437982,6.953093 4.025935,8.734694 1.228563,0.610035 3.466381,1.30597 4.261862,1.325374 0.331422,0.0082 0.47631,-0.130752 1.471812,-1.410292 z"
       id="path4" />
    <path
       style="opacity:0.1;fill:#ffffff;stroke-width:0.981798"
       d="M 31.999999,4 C 12.774236,4 6,13.237071 6,24.63158 6,24.805904 6.011831,24.991155 6.0172447,25.170778 6.1938649,13.983113 13.026807,4.982456 31.999999,4.982456 c 18.973183,0 25.806127,9.000657 25.982744,20.188322 C 57.988236,24.991155 58,24.805904 58,24.63158 57.999998,13.237071 51.225763,4 31.999999,4 Z"
       id="path5" />
  </g>
</svg>
