<?xml version="1.0" encoding="UTF-8" standalone="no"?>
<svg
   width="62"
   height="62"
   version="1"
   id="svg4"
   sodipodi:docname="CycligentGitTool.svg"
   inkscape:version="1.4 (unknown)"
   xmlns:inkscape="http://www.inkscape.org/namespaces/inkscape"
   xmlns:sodipodi="http://sodipodi.sourceforge.net/DTD/sodipodi-0.dtd"
   xmlns="http://www.w3.org/2000/svg"
   xmlns:svg="http://www.w3.org/2000/svg">
  <defs
     id="defs4" />
  <sodipodi:namedview
     id="namedview4"
     pagecolor="#ffffff"
     bordercolor="#000000"
     borderopacity="0.25"
     inkscape:showpageshadow="2"
     inkscape:pageopacity="0.0"
     inkscape:pagecheckerboard="0"
     inkscape:deskcolor="#d1d1d1"
     inkscape:zoom="7.0710678"
     inkscape:cx="36.274578"
     inkscape:cy="46.598337"
     inkscape:window-width="1920"
     inkscape:window-height="996"
     inkscape:window-x="0"
     inkscape:window-y="0"
     inkscape:window-maximized="1"
     inkscape:current-layer="svg4" />
  <g
     id="g4"
     transform="matrix(0.98214286,0,0,0.98245614,-0.42857152,-0.92982455)">
    <rect
       style="opacity:0.2"
       width="56"
       height="56"
       x="4"
       y="5"
       rx="28"
       ry="28"
       id="rect1" />
    <rect
       style="fill:#00aa88"
       width="56"
       height="56"
       x="4"
       y="4"
       rx="28"
       ry="28"
       id="rect2" />
    <path
       style="opacity:0.1"
       d="M 37.092216,49.716428 C 30.831718,48.379178 24.689378,43.110152 22.65248,36.981672 c -0.525062,-1.579742 -0.709032,-4.16636 -0.395782,-5.564606 1.131528,-5.05081 6.874214,-6.867714 14.16099,-4.480346 2.70452,0.88609 6.66847,3.001372 6.66847,3.558496 0,0.283026 -0.500028,0.547926 -1.98325,1.050676 l -1.074266,0.364124 -1.48744,-0.729612 C 32.786312,28.35754 27.62975,29.095496 26.474762,32.9072 c -0.503702,1.662324 -0.217778,3.456074 0.911264,5.71691 2.287048,4.57967 7.755038,7.856442 12.3681,7.640284 1.305026,-0.06114 1.593346,-0.13782 2.905468,-0.772588 1.856056,-0.897928 3.696898,-2.627874 4.488142,-4.217772 2.0691,-4.157566 0.8806,-8.722976 -3.425258,-13.157482 -5.00747,-5.157068 -12.562484,-8.571165 -18.942978,-8.560301 -3.06757,0.005 -4.839011,0.603481 -6.441912,2.175579 -1.572583,1.542362 -2.180992,3.43931 -2.007824,6.260182 0.378352,6.163424 3.98539,12.62743 9.954342,17.838718 1.126804,0.98377 2.048726,1.891642 2.048726,2.017488 0,0.427408 -0.607248,0.230898 -2.08199,-0.673756 C 21.163302,44.05362 17.127295,39.712958 14.459884,34.493486 12.351188,30.36728 11.564245,26.36816 12.230951,23.166398 c 0.508868,-2.443786 1.730481,-4.302581 3.644718,-5.555492 4.187875,-2.598265 11.093505,-1.522733 14.826625,-0.445404 7.971012,2.363668 15.086314,7.217414 18.826842,12.750108 3.8677,5.42213 2.875842,12.54836 -0.770158,16.304184 -1.822028,1.785394 -3.022156,2.574876 -4.883342,3.212368 -1.850672,0.633896 -4.606024,0.749358 -6.78342,0.284266 z"
       id="path2" />
    <path
       style="fill:#233143;fill-opacity:1"
       d="M 37.092216,48.716428 C 30.831718,47.379178 24.689378,42.110152 22.65248,35.981672 c -0.525062,-1.579742 -0.709032,-4.16636 -0.395782,-5.564606 1.131528,-5.05081 6.874214,-6.867714 14.16099,-4.480346 2.70452,0.88609 6.66847,3.001372 6.66847,3.558496 0,0.283026 -0.500028,0.547926 -1.98325,1.050676 l -1.074266,0.364124 -1.48744,-0.729612 C 32.786312,27.35754 27.62975,28.095496 26.474762,31.9072 c -0.503702,1.662324 -0.217778,3.456074 0.911264,5.71691 2.287048,4.57967 7.755038,7.856442 12.3681,7.640284 1.305026,-0.06114 1.593346,-0.13782 2.905468,-0.772588 1.856056,-0.897928 3.696898,-2.627874 4.488142,-4.217772 2.0691,-4.157566 0.8806,-8.722976 -3.425258,-13.157482 -5.00747,-5.157068 -12.562484,-8.571165 -18.942978,-8.560301 -3.06757,0.005 -4.839011,0.60348 -6.441912,2.175579 -1.572583,1.542362 -2.180992,3.43931 -2.007824,6.260182 0.378352,6.163424 3.98539,12.62743 9.954342,17.838718 1.126804,0.98377 2.048726,1.891642 2.048726,2.017488 0,0.427408 -0.607248,0.230898 -2.08199,-0.673756 C 21.163302,43.05362 17.127295,38.712958 14.459884,33.493486 12.351188,29.36728 11.564245,25.36816 12.230951,22.166398 c 0.508868,-2.443785 1.730481,-4.302581 3.644718,-5.555492 4.187875,-2.598265 11.093505,-1.522733 14.826625,-0.445404 7.971012,2.363668 15.086314,7.217414 18.826842,12.750108 3.8677,5.42213 2.875842,12.54836 -0.770158,16.304184 -1.822028,1.785394 -3.022156,2.574876 -4.883342,3.212368 -1.850672,0.633896 -4.606024,0.749358 -6.78342,0.284266 z"
       id="path3" />
    <path
       style="opacity:0.2;fill:#ffffff"
       d="M 32,4 C 16.488,4 4,16.488 4,32 4,32.11345 4.01128,32.224113 4.017578,32.335938 4.3691213,17.134181 16.710728,5 32,5 47.289272,5 59.630879,17.134181 59.982422,32.335938 59.98872,32.224113 60,32.11345 60,32 60,16.488 47.512,4 32,4 Z"
       id="path4" />
  </g>
</svg>
