<?xml version="1.0" encoding="UTF-8" standalone="no"?>
<svg
   width="62"
   height="62"
   version="1.1"
   id="svg6"
   sodipodi:docname="cz.pervoj.valdo-gtk.svg"
   inkscape:version="1.4 (unknown)"
   xmlns:inkscape="http://www.inkscape.org/namespaces/inkscape"
   xmlns:sodipodi="http://sodipodi.sourceforge.net/DTD/sodipodi-0.dtd"
   xmlns="http://www.w3.org/2000/svg"
   xmlns:svg="http://www.w3.org/2000/svg">
  <defs
     id="defs6" />
  <sodipodi:namedview
     id="namedview6"
     pagecolor="#ffffff"
     bordercolor="#000000"
     borderopacity="0.25"
     inkscape:showpageshadow="2"
     inkscape:pageopacity="0.0"
     inkscape:pagecheckerboard="0"
     inkscape:deskcolor="#d1d1d1"
     inkscape:zoom="5"
     inkscape:cx="24.8"
     inkscape:cy="47.9"
     inkscape:window-width="1920"
     inkscape:window-height="996"
     inkscape:window-x="0"
     inkscape:window-y="0"
     inkscape:window-maximized="1"
     inkscape:current-layer="svg6" />
  <g
     id="g6"
     transform="translate(-3.4048274e-4,-0.999759)">
    <path
       style="opacity:0.2;stroke-width:0.962617"
       d="m 36.202522,6.9707511 c -0.535038,0.058541 -0.944006,0.4489327 -1.364515,1.2658118 L 33.43403,10.965985 a 21.651291,21.666597 0 0 0 -2.433594,-0.151199 21.651291,21.666597 0 0 0 -2.427835,0.163711 L 27.16094,8.2383914 C 26.442113,6.9730631 25.79835,6.9016113 24.666709,7.2039804 22.317781,8.1799396 19.96693,9.1533967 17.617038,10.126268 c -1.178784,0.489198 -1.481907,1.095857 -1.033486,2.495993 l 0.929561,2.911991 a 21.651291,21.666597 0 0 0 -3.429566,3.458968 l -2.928221,-0.936975 c -1.3994373,-0.447763 -2.0057705,-0.14732 -2.4940319,1.032297 -0.972094,2.352513 -1.9462105,4.705026 -2.9207106,7.056579 -0.4883574,1.179617 -0.2741534,1.822875 1.0318515,2.495992 l 2.727102,1.404956 a 21.651291,21.666597 0 0 0 -0.1504052,2.435332 21.651291,21.666597 0 0 0 0.1634919,2.428574 L 6.772435,36.324571 c -1.3060049,0.673115 -1.5202089,1.315396 -1.0318515,2.495032 0.9754629,2.351552 1.9477493,4.703094 2.9207106,7.0556 0.4882614,1.179635 1.0945946,1.481996 2.4940319,1.03423 l 2.908975,-0.933111 a 21.651291,21.666597 0 0 0 3.456506,3.43391 l -0.937255,2.930292 c -0.448421,1.401113 -0.145298,2.007774 1.033486,2.495992 2.350851,0.972596 4.701702,1.948073 7.051594,2.92259 1.178784,0.48918 1.820628,0.27444 2.49423,-1.032297 l 1.403963,-2.72903 a 21.651291,21.666597 0 0 0 2.433611,0.150219 21.651291,21.666597 0 0 0 2.4259,-0.163699 l 1.411671,2.74251 c 0.673589,1.306737 1.315433,1.521477 2.494229,1.032297 2.349879,-0.975478 4.70073,-1.949034 7.051581,-2.92259 1.178801,-0.488218 1.481908,-1.094879 1.033487,-2.495992 l -0.93148,-2.911032 a 21.651291,21.666597 0 0 0 3.431484,-3.45895 l 2.928221,0.936958 c 1.399148,0.447778 2.005396,0.147338 2.49423,-1.032297 0.971908,-2.353473 1.945735,-4.705013 2.920524,-7.057522 0.487875,-1.179634 0.274246,-1.821932 -1.031566,-2.495032 l -2.727103,-1.404958 a 21.651291,21.666597 0 0 0 0.150113,-2.43629 21.651291,21.666597 0 0 0 -0.163585,-2.427632 l 2.740575,-1.414577 c 1.305812,-0.673117 1.519441,-1.316375 1.031566,-2.495993 -0.97576,-2.350591 -1.947656,-4.702144 -2.920524,-7.054657 -0.488834,-1.179617 -1.095082,-1.481996 -2.49423,-1.034217 l -2.908974,0.933116 a 21.651291,21.666597 0 0 0 -3.456507,-3.434889 l 0.937256,-2.930291 C 45.865725,11.222125 45.562618,10.615466 44.383817,10.126268 42.032966,9.1540707 39.682115,8.1792656 37.332236,7.2039804 36.89055,7.020729 36.523917,6.9356993 36.202522,6.9707511 Z"
       id="path1" />
    <path
       style="fill:#ffb380;stroke-width:0.962617"
       d="M 36.202522,6.007694 C 35.667484,6.066241 35.258516,6.4566267 34.838007,7.2735062 L 33.43403,10.003009 A 21.651291,21.666597 0 0 0 31.000436,9.8517359 21.651291,21.666597 0 0 0 28.572601,10.015529 L 27.16094,7.2753362 C 26.442113,6.010006 25.79835,5.9385542 24.666709,6.2409233 22.317781,7.2168844 19.96693,8.1903396 17.617038,9.1637007 16.438254,9.652307 16.135131,10.259167 16.583552,11.659304 l 0.929561,2.911991 a 21.651291,21.666597 0 0 0 -3.429566,3.45895 L 11.155326,17.093288 C 9.7558887,16.645509 9.1495555,16.945966 8.6612941,18.125584 7.6892001,20.478097 6.7150836,22.83061 5.7405835,25.182163 5.2522261,26.36178 5.4664301,27.005038 6.772435,27.678156 l 2.727102,1.404956 a 21.651291,21.666597 0 0 0 -0.1504052,2.43533 21.651291,21.666597 0 0 0 0.1634919,2.428576 L 6.772435,35.361613 c -1.3060049,0.673099 -1.5202089,1.315397 -1.0318515,2.495032 0.9754629,2.351548 1.9477493,4.703088 2.9207106,7.055601 0.4882614,1.179635 1.0945946,1.481995 2.4940319,1.034217 l 2.908975,-0.933099 a 21.651291,21.666597 0 0 0 3.456506,3.433911 l -0.937255,2.930291 c -0.448421,1.40111 -0.145298,2.007773 1.033486,2.495992 2.350851,0.972595 4.701702,1.948073 7.051594,2.922589 1.178784,0.489181 1.820628,0.274441 2.49423,-1.032295 l 1.403963,-2.729032 a 21.651291,21.666597 0 0 0 2.433611,0.150221 21.651291,21.666597 0 0 0 2.4259,-0.163701 l 1.411671,2.742512 c 0.673589,1.306736 1.315433,1.521476 2.494229,1.032295 2.349879,-0.97548 4.70073,-1.949032 7.051581,-2.922589 1.178801,-0.488219 1.481908,-1.094882 1.033487,-2.495992 l -0.93148,-2.911031 a 21.651291,21.666597 0 0 0 3.431484,-3.45895 l 2.928221,0.936957 c 1.399148,0.447779 2.005396,0.147339 2.49423,-1.032296 0.971908,-2.353474 1.945735,-4.705026 2.920524,-7.057539 0.487875,-1.179617 0.274246,-1.821915 -1.031566,-2.495017 l -2.727103,-1.404972 a 21.651291,21.666597 0 0 0 0.150113,-2.436276 21.651291,21.666597 0 0 0 -0.163585,-2.42763 l 2.740575,-1.414595 c 1.305812,-0.673099 1.519441,-1.316357 1.031566,-2.495993 -0.97576,-2.350574 -1.947656,-4.702127 -2.920524,-7.05464 -0.488834,-1.179618 -1.095082,-1.481995 -2.49423,-1.034217 l -2.908974,0.933114 a 21.651291,21.666597 0 0 0 -3.456507,-3.434886 l 0.937256,-2.930291 C 45.865725,10.259167 45.562618,9.6524031 44.383817,9.1637007 42.032966,8.1910136 39.682115,7.2162104 37.332236,6.2409233 36.89055,6.0576719 36.523917,5.9726421 36.202522,6.007694 Z"
       id="path2" />
    <path
       style="opacity:0.2;fill:#ffffff;stroke-width:0.962617"
       d="M 36.202522,6.007502 C 35.667484,6.066045 35.258516,6.4564346 34.838007,7.273314 L 33.43403,10.002048 A 21.651291,21.666597 0 0 0 31.000436,9.8518324 21.651291,21.666597 0 0 0 28.572601,10.015529 L 27.16094,7.2751423 C 26.442113,6.0098139 25.79835,5.9383622 24.666709,6.2407313 22.317781,7.2166905 19.96693,8.1901476 17.617038,9.1635084 c -1.031567,0.427457 -1.391452,0.9463996 -1.165313,2.0066166 0.135684,-0.458378 0.510959,-0.772298 1.165313,-1.043857 2.349892,-0.9726793 4.700743,-1.9466164 7.049671,-2.9225775 1.131641,-0.3023691 1.775404,-0.2309173 2.494231,1.0344129 l 1.411661,2.7403936 a 21.651291,21.666597 0 0 1 2.427835,-0.163711 21.651291,21.666597 0 0 1 2.433594,0.15022 l 1.403977,-2.7287326 c 0.420509,-0.8168796 0.829477,-1.2072625 1.364515,-1.2658103 0.321395,-0.035059 0.688028,0.04998 1.129714,0.2332274 2.349879,0.9752871 4.70073,1.9505722 7.051581,2.9225775 0.654355,0.271559 1.029647,0.585479 1.16533,1.043857 C 45.77527,10.109908 45.415384,9.5910615 44.383817,9.1635084 42.032966,8.1908216 39.682115,7.2160165 37.332236,6.2407313 36.89055,6.0574798 36.523917,5.9724501 36.202522,6.007502 Z m -18.92806,8.775652 a 21.651291,21.666597 0 0 0 -3.190915,3.246131 L 11.155326,17.093288 C 9.7558887,16.645509 9.1495555,16.945966 8.6612941,18.125584 7.6892001,20.478097 6.7150836,22.83061 5.7405835,25.182163 5.4985693,25.76668 5.4304396,26.219261 5.5808448,26.60926 c 0.039742,-0.1454 0.091036,-0.298519 0.1597387,-0.464139 0.9745001,-2.351553 1.9486166,-4.704066 2.9207106,-7.056579 0.4882614,-1.179617 1.0945946,-1.48006 2.4940319,-1.032297 l 2.928221,0.935997 a 21.651291,21.666597 0 0 1 3.429566,-3.45895 z m 27.450011,0.006 -0.244425,0.763626 a 21.651291,21.666597 0 0 1 3.456507,3.433912 l 2.908974,-0.932162 c 1.399148,-0.447779 2.005396,-0.145405 2.49423,1.034217 0.972868,2.352513 1.944764,4.704066 2.920524,7.054645 0.06935,0.166593 0.118358,0.319707 0.15781,0.466073 0.151074,-0.389999 0.08474,-0.843556 -0.15781,-1.429036 -0.97576,-2.350599 -1.947656,-4.702149 -2.920524,-7.054662 -0.488834,-1.179628 -1.095082,-1.481995 -2.49423,-1.034217 l -2.908974,0.932138 A 21.651291,21.666597 0 0 0 44.724473,14.788957 Z M 9.4355444,30.014289 a 21.651291,21.666597 0 0 0 -0.086418,1.504153 21.651291,21.666597 0 0 0 0.024443,0.39096 21.651291,21.666597 0 0 1 0.1258666,-1.863333 z m 43.1238076,9.61e-4 -0.07115,0.0386 a 21.651291,21.666597 0 0 1 0.139522,2.036668 21.651291,21.666597 0 0 0 0.02398,-0.571999 21.651291,21.666597 0 0 0 -0.09233,-1.503188 z M 9.4412224,33.984578 6.772435,35.360652 C 5.6500318,35.939391 5.3374836,36.49887 5.5808448,37.392488 5.7343279,36.995749 6.1144281,36.66257 6.772435,36.323611 l 2.7401887,-1.414596 a 21.651291,21.666597 0 0 1 -0.071401,-0.924437 z m 43.1239056,9.6e-4 a 21.651291,21.666597 0 0 1 -0.06356,0.931177 l 2.727103,1.404973 c 0.657234,0.33896 1.036371,0.672141 1.189377,1.06888 0.243461,-0.893623 -0.06735,-1.453111 -1.189377,-2.031854 z M 17.2764,49.210909 16.583552,51.377566 c -0.200158,0.623037 -0.240569,1.083335 -0.131827,1.452136 0.03178,-0.15214 0.07506,-0.313919 0.131827,-0.489178 l 0.937255,-2.930292 A 21.651291,21.666597 0 0 1 17.2764,49.210909 Z m 27.449993,0.006 a 21.651291,21.666597 0 0 1 -0.240569,0.212794 l 0.93148,2.911031 c 0.05676,0.175259 0.100087,0.337037 0.131843,0.489179 0.108726,-0.368812 0.06835,-0.829104 -0.131843,-1.452138 z"
       id="path3" />
    <ellipse
       style="opacity:0.1;stroke-width:0.962617"
       cx="31.000416"
       cy="32.962856"
       id="circle3"
       rx="19.2456"
       ry="19.259205" />
    <ellipse
       style="fill:#ffcc00;stroke-width:0.962617"
       cx="31.000416"
       cy="31.999937"
       id="circle4"
       rx="19.2456"
       ry="19.259205" />
    <path
       style="opacity:0.2;fill:#ffffff;stroke-width:0.962617"
       d="M 31.000436,12.74072 A 19.245597,19.259203 0 0 0 11.754839,31.999922 19.245597,19.259203 0 0 0 11.788645,32.481401 19.245597,19.259203 0 0 1 31.000417,13.703677 19.245597,19.259203 0 0 1 50.22909,32.240661 19.245597,19.259203 0 0 0 50.246038,31.999922 19.245597,19.259203 0 0 0 31.000444,12.74072 Z"
       id="path4" />
    <path
       style="opacity:0.2;stroke-width:0.962617"
       d="m 26.854827,21.550073 c -1.601448,0.614698 -3.018867,1.725904 -3.898501,3.025517 -0.879634,1.276227 -1.31946,2.848102 -1.31946,4.71777 0,0.844436 0.07786,1.435748 0.235701,1.778196 0.157824,0.319048 0.237791,0.501987 0.237791,0.546655 -1.218444,0 -2.131755,-0.251001 -2.739926,-0.750842 -0.587125,-0.525385 -0.879635,-1.380458 -0.879635,-2.565205 0,-1.459149 0.587126,-2.871497 1.759271,-4.239182 1.195305,-1.391082 2.716786,-2.507768 4.566547,-3.350085 1.942326,-1.00571 4.897422,-1.268293 6.183821,-1.238933 v 19.257603 l 8.660513,-19.257598 h 1.924555 L 31.000436,45.471724 H 27.15131 Z"
       id="path5" />
    <path
       style="fill:#aa87de;stroke-width:0.962617"
       d="m 26.854827,20.587098 c -1.601448,0.614715 -3.018867,1.725913 -3.898501,3.025535 -0.879634,1.276227 -1.31946,2.848102 -1.31946,4.717753 0,0.844448 0.07786,1.435749 0.235701,1.778213 0.157824,0.319047 0.237791,0.501978 0.237791,0.546654 -1.218444,0 -2.131755,-0.251001 -2.739926,-0.750846 -0.587125,-0.52538 -0.879635,-1.380453 -0.879635,-2.565202 0,-1.459148 0.587126,-2.871496 1.759271,-4.239181 1.195305,-1.391081 2.716786,-2.507773 4.566547,-3.350088 1.942326,-1.005723 4.897422,-1.268304 6.183821,-1.238929 v 19.257602 l 8.660513,-19.257597 h 1.924555 L 31.000436,44.508767 H 27.15131 Z"
       id="path6" />
  </g>
</svg>
