<?xml version="1.0" encoding="UTF-8" standalone="no"?>
<svg
   width="62"
   height="62"
   version="1"
   id="svg12"
   sodipodi:docname="dataspell.svg"
   inkscape:version="1.4 (unknown)"
   xmlns:inkscape="http://www.inkscape.org/namespaces/inkscape"
   xmlns:sodipodi="http://sodipodi.sourceforge.net/DTD/sodipodi-0.dtd"
   xmlns="http://www.w3.org/2000/svg"
   xmlns:svg="http://www.w3.org/2000/svg">
  <defs
     id="defs12" />
  <sodipodi:namedview
     id="namedview12"
     pagecolor="#ffffff"
     bordercolor="#000000"
     borderopacity="0.25"
     inkscape:showpageshadow="2"
     inkscape:pageopacity="0.0"
     inkscape:pagecheckerboard="0"
     inkscape:deskcolor="#d1d1d1"
     inkscape:zoom="6.6666667"
     inkscape:cx="21.825"
     inkscape:cy="42.825"
     inkscape:window-width="1920"
     inkscape:window-height="996"
     inkscape:window-x="0"
     inkscape:window-y="0"
     inkscape:window-maximized="1"
     inkscape:current-layer="svg12" />
  <g
     id="g12"
     transform="matrix(1.3625,0,0,1.3658537,-1.7,-2.3634148)">
    <path
       style="fill:#f7c73c"
       d="M 24,4 H 6 C 4.892,4 4,4.892 4,6 v 18 h 20 z"
       id="path1" />
    <path
       style="fill:#21d789"
       d="m 24,4 h 18 c 1.108,0 2,0.892 2,2 V 24 H 24 Z"
       id="path2" />
    <path
       style="fill:#2086e7"
       d="M 24,44 H 6 C 4.892,44 4,43.108 4,42 V 24 h 20 z"
       id="path3" />
    <path
       style="fill:#15acbe"
       d="m 24,44 h 18 c 1.108,0 2,-0.892 2,-2 V 24 H 24 Z"
       id="path4" />
    <path
       fill="#ffffff"
       opacity="0.2"
       d="M 6,4 C 4.892,4 4,4.892 4,6 V 7 C 4,5.892 4.892,5 6,5 h 36 c 1.108,0 2,0.892 2,2 V 6 C 44,4.892 43.108,4 42,4 Z"
       id="path5" />
    <path
       opacity="0.2"
       d="M 6,45 C 4.892,45 4,44.108 4,43 v -1 c 0,1.108 0.892,2 2,2 h 36 c 1.108,0 2,-0.892 2,-2 v 1 c 0,1.108 -0.892,2 -2,2 z"
       id="path6" />
    <rect
       style="fill:#233143;fill-opacity:1"
       width="28"
       height="28"
       x="10"
       y="10"
       id="rect6"
       ry="4"
       rx="4" />
    <path
       style="opacity:0.2;fill:none;stroke:#000000;stroke-width:2;stroke-linecap:round"
       d="m 16,32.9999 h 8"
       id="path7" />
    <path
       style="fill:none;stroke:#ffffff;stroke-width:2;stroke-linecap:round"
       d="m 16,32 h 8"
       id="path8" />
    <path
       style="opacity:0.2;fill:none;stroke:#000000;stroke-width:2;stroke-linecap:round;stroke-linejoin:bevel"
       d="m 16.014098,25.006314 c 0,0 4.043783,0.350249 4,-3.999999 -0.04378,-4.350263 -4,-4.000002 -4,-4.000002 M 16,24.9999 v -7.999998"
       id="path9" />
    <path
       style="fill:none;stroke:#ffffff;stroke-width:2;stroke-linecap:round;stroke-linejoin:bevel"
       d="m 16.014098,24.006414 c 0,0 4.043783,0.350249 4,-3.999999 -0.04378,-4.350263 -4,-4.000002 -4,-4.000002 M 16,24 v -7.999998"
       id="path10" />
    <path
       style="opacity:0.2;fill:none;stroke:#000000;stroke-width:2;stroke-linecap:round;stroke-linejoin:round"
       d="m 24,23.999517 c 0,0 0.504385,1.000967 2.000001,1.000483 1.495612,-4.8e-4 1.999997,-1.000483 1.999997,-2.000481 0,-4.214385 -3.999998,0.211162 -3.988017,-3.990705 -0.01209,-1.009297 0.471866,-2.009295 1.98802,-2.009295 1.51615,0 1.999884,0.999998 1.999884,0.999998"
       id="path11" />
    <path
       style="fill:none;stroke:#ffffff;stroke-width:2;stroke-linecap:round;stroke-linejoin:round"
       d="m 24,22.999517 c 0,0 0.504385,1.000967 2.000001,1.000483 1.495612,-4.8e-4 1.999997,-1.000483 1.999997,-2.000481 0,-4.214385 -3.999998,0.211162 -3.988017,-3.990705 -0.01209,-1.009297 0.471866,-2.009295 1.98802,-2.009295 1.51615,0 1.999884,0.999998 1.999884,0.999998"
       id="path12" />
  </g>
</svg>
