<?xml version="1.0" encoding="UTF-8" standalone="no"?>
<svg
   width="62"
   height="62"
   version="1.1"
   id="svg5"
   sodipodi:docname="datastudio.svg"
   inkscape:version="1.4 (unknown)"
   xmlns:inkscape="http://www.inkscape.org/namespaces/inkscape"
   xmlns:sodipodi="http://sodipodi.sourceforge.net/DTD/sodipodi-0.dtd"
   xmlns:xlink="http://www.w3.org/1999/xlink"
   xmlns="http://www.w3.org/2000/svg"
   xmlns:svg="http://www.w3.org/2000/svg">
  <defs
     id="defs5">
    <linearGradient
       id="linearGradient1"
       inkscape:collect="always">
      <stop
         style="stop-color:#233143;stop-opacity:1;"
         offset="0"
         id="stop1" />
      <stop
         style="stop-color:#405878;stop-opacity:1;"
         offset="1"
         id="stop2" />
    </linearGradient>
    <linearGradient
       id="paint1_linear_54_1200"
       x1="16"
       y1="26"
       x2="16"
       y2="6"
       gradientUnits="userSpaceOnUse"
       gradientTransform="matrix(3.0397983,0,0,3.0420943,35.820936,133.83376)">
      <stop
         stop-color="#5570FF"
         id="stop3" />
      <stop
         offset="1"
         stop-color="#4DD3FF"
         id="stop4" />
    </linearGradient>
    <linearGradient
       inkscape:collect="always"
       xlink:href="#linearGradient1"
       id="linearGradient2"
       x1="30.609625"
       y1="59.017544"
       x2="30.165775"
       y2="4.9824562"
       gradientUnits="userSpaceOnUse" />
  </defs>
  <sodipodi:namedview
     id="namedview5"
     pagecolor="#ffffff"
     bordercolor="#000000"
     borderopacity="0.25"
     inkscape:showpageshadow="2"
     inkscape:pageopacity="0.0"
     inkscape:pagecheckerboard="0"
     inkscape:deskcolor="#d1d1d1"
     inkscape:zoom="11.6875"
     inkscape:cx="31.957219"
     inkscape:cy="36.064171"
     inkscape:window-width="1920"
     inkscape:window-height="996"
     inkscape:window-x="0"
     inkscape:window-y="0"
     inkscape:window-maximized="1"
     inkscape:current-layer="svg5"
     showgrid="false">
    <inkscape:grid
       id="grid1"
       units="px"
       originx="0"
       originy="0"
       spacingx="1"
       spacingy="1"
       empcolor="#0099e5"
       empopacity="0.30196078"
       color="#0099e5"
       opacity="0.14901961"
       empspacing="5"
       enabled="true"
       visible="false" />
  </sodipodi:namedview>
  <rect
     style="opacity:0.2;stroke-width:0.9823"
     width="55"
     height="55.017544"
     x="4"
     y="4.9824562"
     rx="8.25"
     ry="8.2526312"
     id="rect1" />
  <rect
     style="fill:url(#linearGradient2);stroke-width:0.9823;fill-opacity:1"
     width="55"
     height="55.017544"
     x="4"
     y="4"
     rx="8.25"
     ry="8.2526312"
     id="rect2" />
  <path
     style="opacity:0.1;fill:#ffffff;stroke-width:0.9823"
     d="M 12.248466,4 C 7.6779652,4 4,7.6791384 4,12.251097 v 0.982456 C 4,8.6615945 7.6779652,4.9824561 12.248466,4.9824561 H 50.751534 C 55.322034,4.9824561 59,8.6615945 59,13.233553 V 12.251097 C 59,7.6791384 55.322034,4 50.751534,4 Z"
     id="path4" />
  <g
     id="g1"
     transform="matrix(1.030303,0,0,1.027027,-0.9545445,-53.256755)">
    <path
       style="opacity:0.2"
       d="m 25,66 c -4.970562,0 -9,1.343146 -9,3 0,1.656854 4.029438,3 9,3 4.970562,0 9,-1.343146 9,-3 0,-1.656854 -4.029438,-3 -9,-3 z m -10,2.738281 v 7 C 15.09928,78.881179 21.455376,79.754906 25,80 25.146882,79.98984 25.322624,79.97142 25.478516,79.95898 25.914194,79.379796 26.604802,79 27.375,79 h 3.761719 C 33.253357,78.360441 34.949126,77.348836 35,75.738281 v -7 C 34.90071,71.881179 28.544622,72.754906 25,73 21.455378,72.754906 15.099286,71.881179 15,68.738281 Z m 0,8 v 7 C 15.09928,86.881179 21.455376,87.754906 25,88 v -6.625 c 0,-0.128484 0.01295,-0.253643 0.0332,-0.376953 C 25.022992,80.99876 25.010168,80.999297 25,81 21.455378,80.754906 15.099286,79.881179 15,76.738281 Z M 27.375,80 C 26.61325,80 26,80.61325 26,81.375 v 19.25 c 0,0.76175 0.61325,1.375 1.375,1.375 h 19.25 C 47.38675,102 48,101.38675 48,100.625 V 81.375 C 48,80.61325 47.38675,80 46.625,80 Z M 15,84.738281 v 7 C 15.09928,94.881179 21.455376,95.754906 25,96 V 89 C 21.455378,88.754906 15.099286,87.881179 15,84.738281 Z M 29,86 h 5 v 5 h -5 z m 8,0 h 8 v 5 h -8 z m -8,8 h 5 v 5 h -5 z m 8,0 h 8 v 5 h -8 z"
       id="path2" />
    <path
       style="fill:#5599ff"
       d="M 27.375,79 C 26.61325,79 26,79.61325 26,80.375 v 19.25 c 0,0.76175 0.61325,1.375 1.375,1.375 h 19.25 C 47.38675,101 48,100.38675 48,99.625 V 80.375 C 48,79.61325 47.38675,79 46.625,79 Z M 29,85 h 5 v 5 h -5 z m 8,0 h 8 v 5 h -8 z m -8,8 h 5 v 5 h -5 z m 8,0 h 8 v 5 h -8 z"
       id="path3" />
    <path
       style="fill:#5599ff"
       d="m 25,65 c -4.970562,0 -9,1.343146 -9,3 0,1.656854 4.029438,3 9,3 4.970562,0 9,-1.343146 9,-3 0,-1.656854 -4.029438,-3 -9,-3 z m -10,2.738281 v 7 C 15.09928,77.881179 21.455376,78.754906 25,79 25.146882,78.98984 25.322624,78.97142 25.478516,78.95898 25.914194,78.379792 26.604802,78 27.375,78 h 3.761719 C 33.253357,77.360441 34.949126,76.348836 35,74.738281 v -7 C 34.90071,70.881179 28.544622,71.754906 25,72 21.455378,71.754906 15.099286,70.881179 15,67.738281 Z m 0,8 v 7 C 15.09928,85.881179 21.455376,86.754906 25,87 v -6.625 c 0,-0.128484 0.01295,-0.253643 0.0332,-0.376953 C 25.022989,79.99876 25.010168,79.999297 25,80 21.455378,79.754906 15.099286,78.881179 15,75.738281 Z m 0,8 v 7 C 15.09928,93.881179 21.455376,94.754906 25,95 V 88 C 21.455378,87.754906 15.099286,86.881179 15,83.738281 Z"
       id="path4-6" />
  </g>
</svg>
