<?xml version="1.0" encoding="UTF-8" standalone="no"?>
<svg
   width="62"
   height="62"
   version="1.1"
   id="svg6"
   sodipodi:docname="de.gunibert.Hackgregator.svg"
   inkscape:version="1.4 (unknown)"
   xmlns:inkscape="http://www.inkscape.org/namespaces/inkscape"
   xmlns:sodipodi="http://sodipodi.sourceforge.net/DTD/sodipodi-0.dtd"
   xmlns="http://www.w3.org/2000/svg"
   xmlns:svg="http://www.w3.org/2000/svg">
  <defs
     id="defs6" />
  <sodipodi:namedview
     id="namedview6"
     pagecolor="#ffffff"
     bordercolor="#000000"
     borderopacity="0.25"
     inkscape:showpageshadow="2"
     inkscape:pageopacity="0.0"
     inkscape:pagecheckerboard="0"
     inkscape:deskcolor="#d1d1d1"
     inkscape:zoom="5"
     inkscape:cx="36.2"
     inkscape:cy="38.7"
     inkscape:window-width="1920"
     inkscape:window-height="996"
     inkscape:window-x="0"
     inkscape:window-y="0"
     inkscape:window-maximized="1"
     inkscape:current-layer="svg6" />
  <g
     id="g6">
    <path
       style="opacity:0.2;stroke-width:0.9649"
       d="M 8.1538461,3.9655172 C 5.8517876,3.9655172 4,5.7746854 4,8.023761 v 43.923813 c 0,2.249074 1.8517876,4.155 4.1538461,4.155 H 26.846154 c 2.302058,0 4.153847,0.95549 4.153847,2.897426 0,-1.930035 1.851787,-2.897426 4.153845,-2.897426 H 52.807691 C 55.683742,56.102574 58,53.742868 58,50.933014 V 8.023761 C 58,5.7746854 56.148211,3.9655172 53.846155,3.9655172 H 35.153846 c -2.302058,0 -4.153845,1.8091682 -4.153845,4.0582438 0,-2.2490756 -1.851789,-4.0582438 -4.153847,-4.0582438 z"
       id="path1" />
    <path
       style="fill:#ffa24c;stroke-width:0.9649;fill-opacity:1"
       d="M 8.1538461,3 C 5.8517876,3 4,4.8091682 4,7.0582438 V 50.982056 c 0,2.249072 1.8517876,4.155 4.1538461,4.155 H 26.846154 c 2.302058,0 4.153847,0.955492 4.153847,2.897428 0,-1.930046 1.851787,-2.897428 4.153845,-2.897428 H 52.807691 C 55.683742,55.137056 58,52.777352 58,49.967496 V 7.0582438 C 58,4.8091682 56.148211,3 53.846155,3 H 35.153846 C 32.851788,3 31.000001,4.8091682 31.000001,7.0582438 31.000001,4.8091682 29.148212,3 26.846154,3 Z"
       id="path2" />
    <path
       style="opacity:0.2;fill:#ffffff;stroke-width:0.9649"
       d="M 8.1538461,3 C 5.8517876,3 4,4.8091682 4,7.0582438 V 50.982056 c 0,2.249072 1.8517876,4.155 4.1538461,4.155 H 26.846154 c 2.302058,0 4.153847,0.955492 4.153847,2.897428 V 7.0582438 C 31.000001,4.8091682 29.148212,3 26.846154,3 Z"
       id="path3" />
    <path
       style="opacity:0.2;stroke-width:0.9649"
       d="m 9.9603136,7.8275862 c -1.1444042,0 -2.1031707,0.9192942 -2.1031707,2.0153363 V 48.126396 c 0,1.09604 0.9587665,2.18395 2.1031707,2.18395 H 26.790999 c 2.331955,0 4.209002,1.628656 4.209002,3.862068 0,-2.233412 1.877045,-3.862068 4.209,-3.862068 h 16.830685 c 1.144401,0 2.10317,-1.08791 2.10317,-2.18395 V 9.8429225 c 0,-1.0960421 -0.958769,-2.0153363 -2.10317,-2.0153363 H 35.209001 c -2.331955,0 -4.209,1.797266 -4.209,4.0306778 0,-2.2334118 -1.877047,-4.0306778 -4.209002,-4.0306778 z m 1.7539724,3.8620678 h 15.076713 c 2.331955,0 4.209002,1.963214 4.209002,4.196629 0,-2.233415 1.877064,-4.187321 4.209,-4.196629 H 50.285714 V 46.448276 H 35.209001 c -2.331955,0 -4.209,1.628654 -4.209,3.86207 0,-2.233416 -1.877119,-3.880682 -4.209002,-3.86207 H 11.714286 Z m 11.571429,7.724138 v 19.310346 h 3.857142 V 31 h 7.714284 v 7.724138 h 3.857144 V 19.413792 h -3.857144 v 7.724138 h -7.714284 v -7.724138 z"
       id="path4" />
    <path
       style="fill:#ffffff;stroke-width:0.9649"
       d="m 9.9603136,6.862069 c -1.1444042,0 -2.1031707,0.919294 -2.1031707,2.0153398 V 47.160878 c 0,1.096042 0.9587665,2.18395 2.1031707,2.18395 H 26.790999 c 2.331955,0 4.209002,1.628658 4.209002,3.862068 0,-2.23341 1.877045,-3.862068 4.209,-3.862068 h 16.830685 c 1.144401,0 2.10317,-1.087908 2.10317,-2.18395 V 8.8774088 c 0,-1.0960458 -0.958769,-2.0153398 -2.10317,-2.0153398 H 35.209001 c -2.331955,0 -4.209,1.797266 -4.209,4.030679 0,-2.233413 -1.877047,-4.030679 -4.209002,-4.030679 z m 1.7539724,3.862069 h 15.076713 c 2.331955,0 4.209002,1.963214 4.209002,4.196627 0,-2.233413 1.877064,-4.187321 4.209,-4.196627 h 15.076713 v 34.75862 H 35.209001 c -2.331955,0 -4.209,1.628654 -4.209,3.86207 0,-2.233416 -1.877119,-3.88068 -4.209002,-3.86207 H 11.714286 Z m 11.571429,7.724138 V 37.75862 h 3.857142 v -7.724136 h 7.714284 v 7.724136 h 3.857144 V 18.448276 h -3.857144 v 7.724138 h -7.714284 v -7.724138 z"
       id="path5" />
    <path
       style="opacity:0.2;fill:#ffffff;stroke-width:0.9649"
       d="M 8.1547154,3 C 5.8526568,3 4,4.809114 4,7.0581898 v 0.965517 C 4,5.7746312 5.8526568,3.9655172 8.1547154,3.9655172 H 26.845283 c 2.302058,0 4.154718,1.809114 4.154718,4.0581896 0,-2.2490756 1.852655,-4.0581896 4.154714,-4.0581896 H 53.845284 C 56.14734,3.9655172 58,5.7746312 58,8.0237068 V 7.0581898 C 58,4.809114 56.14734,3 53.845284,3 H 35.154715 C 32.852656,3 31.000001,4.809114 31.000001,7.0581898 31.000001,4.809114 29.147341,3 26.845283,3 Z"
       id="path6" />
  </g>
</svg>
