<?xml version="1.0" encoding="UTF-8" standalone="no"?>
<svg
   width="62"
   height="62"
   version="1.1"
   id="svg10"
   sodipodi:docname="de.haeckerfelix.Shortwave.svg"
   inkscape:version="1.4 (unknown)"
   xmlns:inkscape="http://www.inkscape.org/namespaces/inkscape"
   xmlns:sodipodi="http://sodipodi.sourceforge.net/DTD/sodipodi-0.dtd"
   xmlns="http://www.w3.org/2000/svg"
   xmlns:svg="http://www.w3.org/2000/svg">
  <defs
     id="defs10" />
  <sodipodi:namedview
     id="namedview10"
     pagecolor="#ffffff"
     bordercolor="#000000"
     borderopacity="0.25"
     inkscape:showpageshadow="2"
     inkscape:pageopacity="0.0"
     inkscape:pagecheckerboard="0"
     inkscape:deskcolor="#d1d1d1"
     inkscape:zoom="10"
     inkscape:cx="18.55"
     inkscape:cy="26.95"
     inkscape:window-width="1920"
     inkscape:window-height="996"
     inkscape:window-x="0"
     inkscape:window-y="0"
     inkscape:window-maximized="1"
     inkscape:current-layer="svg10" />
  <g
     id="g10"
     transform="matrix(0.98245614,0,0,0.98039113,-0.92982455,0.1176794)">
    <path
       style="opacity:0.2"
       d="M 8.0722656,20 C 5.8166945,20 4,21.833771 4,24.111328 V 52.888672 C 4,55.166229 5.8166945,57 8.0722656,57 H 41 41.050781 56.927734 C 59.183305,57 61,55.166226 61,52.888672 V 24.111328 C 61,21.833774 59.183305,20 56.927734,20 H 41.050781 41 Z"
       id="path1" />
    <path
       style="fill:none;stroke:#c9c9c9;stroke-width:3;stroke-linecap:round;stroke-opacity:1"
       d="M 15,19 45.5,7.5"
       id="path2" />
    <circle
       style="fill:#597ba6;fill-opacity:1"
       cx="15"
       cy="19"
       r="3"
       id="circle2" />
    <path
       style="fill:#ffcc00"
       d="M 8.0718262,19 C 5.8162551,19 4,20.833246 4,23.110803 V 51.889197 C 4,54.166754 5.8162551,56 8.0718262,56 H 41.05 V 19 Z"
       id="path3" />
    <path
       style="fill:#916f7c"
       d="M 41,19 V 56 H 56.928571 C 59.184142,56 61,54.166445 61,51.888891 V 23.111109 C 61,20.833555 59.184142,19 56.928571,19 Z"
       id="path4" />
    <path
       style="opacity:0.2"
       d="m 51,29 a 4,4 0 0 0 -4,4 4,4 0 0 0 4,4 4,4 0 0 0 4,-4 4,4 0 0 0 -4,-4 z M 47.75,40 C 47.3345,40 47,40.3345 47,40.75 v 1.5 c 0,0.4155 0.3345,0.75 0.75,0.75 h 1.5 C 49.6655,43 50,42.6655 50,42.25 v -1.5 C 50,40.3345 49.6655,40 49.25,40 Z m 5,0 C 52.3345,40 52,40.3345 52,40.75 v 1.5 c 0,0.4155 0.3345,0.75 0.75,0.75 h 1.5 C 54.6655,43 55,42.6655 55,42.25 v -1.5 C 55,40.3345 54.6655,40 54.25,40 Z m -5,5 C 47.3345,45 47,45.3345 47,45.75 v 1.5 c 0,0.4155 0.3345,0.75 0.75,0.75 h 1.5 C 49.6655,48 50,47.6655 50,47.25 v -1.5 C 50,45.3345 49.6655,45 49.25,45 Z m 5,0 C 52.3345,45 52,45.3345 52,45.75 v 1.5 c 0,0.4155 0.3345,0.75 0.75,0.75 h 1.5 C 54.6655,48 55,47.6655 55,47.25 v -1.5 C 55,45.3345 54.6655,45 54.25,45 Z"
       id="path5" />
    <rect
       style="fill:#e5a50a"
       width="3"
       height="3"
       x="47"
       y="39"
       rx="0.75"
       ry="0.75"
       id="rect5" />
    <circle
       style="fill:#e5a50a"
       cx="51"
       cy="32"
       r="4"
       id="circle5" />
    <circle
       style="fill:#63452c"
       cx="49.27"
       cy="30.377001"
       r="0.667"
       id="circle6" />
    <rect
       style="fill:#e5a50a"
       width="3"
       height="3"
       x="52"
       y="39"
       rx="0.75"
       ry="0.75"
       id="rect6" />
    <rect
       style="fill:#e5a50a"
       width="3"
       height="3"
       x="47"
       y="44"
       rx="0.75"
       ry="0.75"
       id="rect7" />
    <rect
       style="fill:#e5a50a"
       width="3"
       height="3"
       x="52"
       y="44"
       rx="0.75"
       ry="0.75"
       id="rect8" />
    <path
       style="fill:#6c535d"
       d="m 22.5,24 a 13.5,13.5 0 0 0 -8.476562,3 H 30.96875 A 13.5,13.5 0 0 0 22.5,24 Z M 11.28125,30 A 13.5,13.5 0 0 0 9.7890625,33 H 35.212891 a 13.5,13.5 0 0 0 -1.5,-3 z M 9.0917969,36 A 13.5,13.5 0 0 0 9,37.5 13.5,13.5 0 0 0 9.0996094,39 H 35.908203 A 13.5,13.5 0 0 0 36,37.5 13.5,13.5 0 0 0 35.900391,36 Z m 0.6953125,6 a 13.5,13.5 0 0 0 1.4999996,3 H 33.71875 a 13.5,13.5 0 0 0 1.492188,-3 z M 14.03125,48 A 13.5,13.5 0 0 0 22.5,51 13.5,13.5 0 0 0 30.976562,48 Z"
       id="path8" />
    <path
       style="opacity:0.2;fill:#ffffff"
       d="m 51,28 a 4,4 0 0 0 -4,4 4,4 0 0 0 0.03516,0.505859 A 4,4 0 0 1 51,29 4,4 0 0 1 54.964844,32.494141 4,4 0 0 0 55,32 4,4 0 0 0 51,28 Z M 47.75,39 C 47.3345,39 47,39.3345 47,39.75 v 1 C 47,40.3345 47.3345,40 47.75,40 h 1.5 c 0.4155,0 0.75,0.3345 0.75,0.75 v -1 C 50,39.3345 49.6655,39 49.25,39 Z m 5,0 C 52.3345,39 52,39.3345 52,39.75 v 1 C 52,40.3345 52.3345,40 52.75,40 h 1.5 c 0.4155,0 0.75,0.3345 0.75,0.75 v -1 C 55,39.3345 54.6655,39 54.25,39 Z m -5,5 C 47.3345,44 47,44.3345 47,44.75 v 1 C 47,45.3345 47.3345,45 47.75,45 h 1.5 c 0.4155,0 0.75,0.3345 0.75,0.75 v -1 C 50,44.3345 49.6655,44 49.25,44 Z m 5,0 C 52.3345,44 52,44.3345 52,44.75 v 1 C 52,45.3345 52.3345,45 52.75,45 h 1.5 c 0.4155,0 0.75,0.3345 0.75,0.75 v -1 C 55,44.3345 54.6655,44 54.25,44 Z"
       id="path9" />
    <path
       style="opacity:0.2;fill:#ffffff"
       d="M 8.0722656,19 C 5.8166945,19 4,20.833771 4,23.111328 v 1 C 4,21.833771 5.8166945,20 8.0722656,20 H 41 41.050781 56.927734 C 59.183305,20 61,21.833774 61,24.111328 v -1 C 61,20.833774 59.183305,19 56.927734,19 H 41.050781 41 Z"
       id="path10" />
  </g>
</svg>
