<?xml version="1.0" encoding="UTF-8" standalone="no"?>
<svg
   clip-rule="evenodd"
   fill-rule="evenodd"
   stroke-linejoin="round"
   stroke-miterlimit="2"
   viewBox="0 0 62 62"
   version="1.1"
   id="svg8"
   sodipodi:docname="de.haeckerfelix.AudioSharing.svg"
   width="62"
   height="62"
   inkscape:version="1.4 (unknown)"
   xmlns:inkscape="http://www.inkscape.org/namespaces/inkscape"
   xmlns:sodipodi="http://sodipodi.sourceforge.net/DTD/sodipodi-0.dtd"
   xmlns:xlink="http://www.w3.org/1999/xlink"
   xmlns="http://www.w3.org/2000/svg"
   xmlns:svg="http://www.w3.org/2000/svg">
  <defs
     id="defs8">
    <linearGradient
       id="linearGradient9"
       inkscape:collect="always">
      <stop
         style="stop-color:#b3b3b3;stop-opacity:1"
         offset="0"
         id="stop9" />
      <stop
         style="stop-color:#ececec;stop-opacity:1"
         offset="1"
         id="stop10" />
    </linearGradient>
    <linearGradient
       inkscape:collect="always"
       xlink:href="#linearGradient9"
       id="linearGradient10"
       x1="30.332001"
       y1="58.332001"
       x2="30.332001"
       y2="2.332"
       gradientUnits="userSpaceOnUse" />
  </defs>
  <sodipodi:namedview
     id="namedview8"
     pagecolor="#ffffff"
     bordercolor="#000000"
     borderopacity="0.25"
     inkscape:showpageshadow="2"
     inkscape:pageopacity="0.0"
     inkscape:pagecheckerboard="0"
     inkscape:deskcolor="#d1d1d1"
     inkscape:zoom="8.0520833"
     inkscape:cx="30.923674"
     inkscape:cy="24.776197"
     inkscape:window-width="1920"
     inkscape:window-height="996"
     inkscape:window-x="0"
     inkscape:window-y="0"
     inkscape:window-maximized="1"
     inkscape:current-layer="svg8" />
  <linearGradient
     id="a"
     x2="1"
     gradientTransform="matrix(0,-43.531553,43.531553,0,1192.4071,51.589417)"
     gradientUnits="userSpaceOnUse">
    <stop
       stop-color="#d5dbdc"
       offset="0"
       id="stop1" />
    <stop
       stop-color="#fff"
       offset="1"
       id="stop2" />
  </linearGradient>
  <linearGradient
     id="b"
     x1="462"
     x2="562"
     y1="5900"
     y2="5900"
     gradientUnits="userSpaceOnUse">
    <stop
       stop-color="#384446"
       offset="0"
       id="stop3" />
    <stop
       stop-color="#5e5c64"
       stop-opacity="0"
       offset="1"
       id="stop4" />
  </linearGradient>
  <g
     id="g9"
     transform="translate(0.668,0.668)">
    <path
       d="M 50.284003,58.332 H 10.379997 C 5.9373166,58.332 2.332,54.726683 2.332,50.284003 V 10.379997 C 2.332,5.9373166 5.9373166,2.332 10.379997,2.332 h 39.904006 c 4.44268,0 8.047997,3.6053166 8.047997,8.047997 v 39.904006 c 0,4.44268 -3.605317,8.047997 -8.047997,8.047997 z"
       id="path4"
       style="fill:url(#linearGradient10);fill-opacity:1" />
    <path
       d="m 8.5182154,35.294507 2.8719086,-2.87191 c 0.148208,-0.148207 0.371983,-0.192461 0.565697,-0.112306 0.192463,0.07974 0.319797,0.268862 0.319797,0.479277 v 17.534545 c 0,0.210416 -0.127335,0.399539 -0.319797,0.479278 -0.193714,0.08015 -0.417489,0.0359 -0.565697,-0.112307 L 6.4812856,45.782253 C 5.9139179,45.214886 5.595791,44.446705 5.595791,43.64429 v -4.174891 c 0,-0.543989 0.1461211,-1.07253 0.4174892,-1.533438 V 29.032169 H 6.4307694 V 9.8276651 H 8.1007262 V 29.032169 h 0.4174892 z m 8.9334336,-8.110146 v 7.712278 h -4.174891 v -7.785755 h 0.0054 c 0.03925,-9.555077 7.79828,-17.2898986 17.362958,-17.2898986 9.566347,0 17.323714,7.7348216 17.362957,17.2898986 h 0.0054 v 7.785755 h -4.174891 v -7.712278 h -0.005 c 0,-7.283516 -5.903713,-13.188484 -13.188483,-13.188484 -7.283516,0 -13.188483,5.904968 -13.188483,13.188484 z m 38.242846,12.285038 v 4.174891 c 0,0.802415 -0.318127,1.570596 -0.885494,2.137963 l -4.908839,4.908839 c -0.148209,0.148207 -0.371982,0.192461 -0.565697,0.112306 -0.192464,-0.07974 -0.319797,-0.268862 -0.319797,-0.479277 V 32.789572 c 0,-0.210415 0.12734,-0.399538 0.319797,-0.479277 0.193715,-0.08015 0.417488,-0.03589 0.565697,0.112306 l 4.908839,4.908839 c 0.567367,0.567367 0.885494,1.335548 0.885494,2.137963 z"
       id="path5"
       style="stroke-width:0.417489;fill:#233143;fill-opacity:1" />
    <g
       transform="matrix(0.41748921,0,0,0.41748921,3.9258342,4.9607281)"
       id="g8">
      <path
         d="m 99.418,27.672 c 0,0 0.536,0.984 0.605,1.078 1.106,1.914 3.075,7.641 -1.179,10.094 l -2.805,1.429 c -1.055,0.61 -2.694,1.214 -3.304,0.16 C 86.755,30.077 75.767,22.54 63.489,22.54 c -12.277,0 -21.91,6.834 -27.891,17.189 -0.609,1.055 -2.469,1.154 -3.528,0.544 L 29.098,38.625 C 25.48,36.539 26.449,30.84 28.219,28.504 c 0.026,-0.035 0.465,-0.82 0.465,-0.82 C 36.969,16.637 50.047,10 64.055,10 78.059,10 91.133,16.633 99.418,27.672 Z M 5,12.111 C 3.495,11.13 2.5,9.432 2.5,7.5 2.5,4.461 4.961,2 8,2 c 3.039,0 5.5,2.461 5.5,5.5 0,1.932 -0.995,3.63 -2.5,4.611 V 16 H 5 Z M 22,60 h 12 c 5.523,0 10,4.477 10,10 v 36 c 0,5.523 -4.477,10 -10,10 H 22 c -5.523,0 -10,-4.477 -10,-10 V 70 c 0,-5.523 4.477,-10 10,-10 z m 84,0 c 5.523,0 10,4.477 10,10 v 36 c 0,5.523 -4.477,10 -10,10 H 94 c -5.523,0 -10,-4.477 -10,-10 V 70 c 0,-5.523 4.477,-10 10,-10 z"
         id="path6"
         style="fill:#ff5555" />
      <path
         d="m 28,60 h 2 v 56 h -2 z m 70,0 h 2 v 56 h -2 z"
         id="path7"
         style="fill:#233143;fill-opacity:1" />
      <path
         d="m 34,60 c 5.539,0 10,4.461 10,10 v 36 c 0,5.539 -4.461,10 -10,10 z m 60,0 v 56 c -5.539,0 -10,-4.461 -10,-10 V 70 c 0,-5.539 4.461,-10 10,-10 z"
         id="path8"
         style="fill:#233143;fill-opacity:1" />
    </g>
  </g>
</svg>
