<?xml version="1.0" encoding="UTF-8" standalone="no"?>
<svg
   width="62"
   height="62"
   version="1.1"
   id="svg7"
   sodipodi:docname="de.schmidhuberj.tubefeeder.svg"
   inkscape:version="1.4 (unknown)"
   xmlns:inkscape="http://www.inkscape.org/namespaces/inkscape"
   xmlns:sodipodi="http://sodipodi.sourceforge.net/DTD/sodipodi-0.dtd"
   xmlns="http://www.w3.org/2000/svg"
   xmlns:svg="http://www.w3.org/2000/svg">
  <defs
     id="defs7" />
  <sodipodi:namedview
     id="namedview7"
     pagecolor="#ffffff"
     bordercolor="#000000"
     borderopacity="0.25"
     inkscape:showpageshadow="2"
     inkscape:pageopacity="0.0"
     inkscape:pagecheckerboard="0"
     inkscape:deskcolor="#d1d1d1"
     inkscape:zoom="12.078125"
     inkscape:cx="32"
     inkscape:cy="32"
     inkscape:window-width="1920"
     inkscape:window-height="996"
     inkscape:window-x="0"
     inkscape:window-y="0"
     inkscape:window-maximized="1"
     inkscape:current-layer="svg7" />
  <g
     id="g7"
     transform="matrix(0.96078413,0,0,0.96549993,-0.22548423,0.1042257)">
    <path
       style="opacity:0.2;fill:none;stroke:#000000;stroke-width:10;stroke-linecap:round"
       d="M 53,31 12,56"
       id="path1" />
    <path
       style="fill:none;stroke:#851414;stroke-width:10;stroke-linecap:round;stroke-opacity:1"
       d="M 53,30 12,55"
       id="path2" />
    <path
       style="opacity:0.2;fill:#ffffff"
       d="m 52.880859,25.001953 a 5,5 0 0 0 -2.484375,0.728516 l -40.9999996,25 a 5,5 0 0 0 -2.3222656,4.626953 5,5 0 0 1 2.3222656,-3.626953 l 40.9999996,-25 a 5,5 0 0 1 3.78125,-0.589844 5,5 0 0 1 3.091797,2.255859 5,5 0 0 1 0.701172,2.111328 5,5 0 0 0 -0.701172,-3.111328 5,5 0 0 0 -3.091797,-2.255859 5,5 0 0 0 -1.296875,-0.138672 z"
       id="path3" />
    <path
       style="fill:none;stroke:#d42b2b;stroke-width:10;stroke-linecap:round;stroke-opacity:1"
       d="M 12,8 V 55"
       id="path4" />
    <path
       style="opacity:0.2;fill:none;stroke:#000000;stroke-width:10;stroke-linecap:round"
       d="M 12,9 53,31"
       id="path5" />
    <path
       style="fill:none;stroke:#f25c5a;stroke-width:10;stroke-linecap:round;stroke-opacity:1"
       d="M 12,8 53,30"
       id="path6" />
    <path
       style="opacity:0.2;fill:#ffffff"
       d="M 11.84375,3.0019531 A 5,5 0 0 0 10.556641,3.2128906 5,5 0 0 0 7.59375,5.6367188 5,5 0 0 0 7.0644531,8.5371094 5,5 0 0 1 7.59375,6.6367188 5,5 0 0 1 10.556641,4.2128906 5,5 0 0 1 14.363281,4.59375 l 41,22 a 5,5 0 0 1 2.611328,3.904297 5,5 0 0 0 -2.611328,-4.904297 l -41,-22 A 5,5 0 0 0 11.84375,3.0019531 Z"
       id="path7" />
  </g>
</svg>
