<?xml version="1.0" encoding="UTF-8" standalone="no"?>
<svg
   clip-rule="evenodd"
   fill-rule="evenodd"
   stroke-linejoin="round"
   stroke-miterlimit="2"
   viewBox="0 0 62 62"
   version="1.1"
   id="svg4"
   sodipodi:docname="de.unifreiburg.ellipticcurve.svg"
   width="62"
   height="62"
   inkscape:version="1.4 (unknown)"
   xmlns:inkscape="http://www.inkscape.org/namespaces/inkscape"
   xmlns:sodipodi="http://sodipodi.sourceforge.net/DTD/sodipodi-0.dtd"
   xmlns:xlink="http://www.w3.org/1999/xlink"
   xmlns="http://www.w3.org/2000/svg"
   xmlns:svg="http://www.w3.org/2000/svg">
  <defs
     id="defs4">
    <linearGradient
       id="linearGradient4"
       inkscape:collect="always">
      <stop
         style="stop-color:#cccccc;stop-opacity:1"
         offset="0"
         id="stop4" />
      <stop
         style="stop-color:#ececec;stop-opacity:1"
         offset="1"
         id="stop5" />
    </linearGradient>
    <linearGradient
       inkscape:collect="always"
       xlink:href="#linearGradient4"
       id="linearGradient5"
       x1="29.367081"
       y1="58.443001"
       x2="29.367081"
       y2="2.4430001"
       gradientUnits="userSpaceOnUse" />
  </defs>
  <sodipodi:namedview
     id="namedview4"
     pagecolor="#ffffff"
     bordercolor="#000000"
     borderopacity="0.25"
     inkscape:showpageshadow="2"
     inkscape:pageopacity="0.0"
     inkscape:pagecheckerboard="0"
     inkscape:deskcolor="#d1d1d1"
     inkscape:zoom="8.0520833"
     inkscape:cx="24.527814"
     inkscape:cy="32.476067"
     inkscape:window-width="1920"
     inkscape:window-height="996"
     inkscape:window-x="0"
     inkscape:window-y="0"
     inkscape:window-maximized="1"
     inkscape:current-layer="svg4" />
  <linearGradient
     id="a"
     x2="1"
     gradientTransform="matrix(-0.65748273,-54.55178,54.55178,-0.65748273,544.49954,51.509598)"
     gradientUnits="userSpaceOnUse">
    <stop
       stop-color="#c2d2d4"
       offset="0"
       id="stop1" />
    <stop
       stop-color="#fff"
       offset="1"
       id="stop2" />
  </linearGradient>
  <g
     id="g4"
     transform="matrix(1.007456,0,0,1,1.4139575,0.557)">
    <path
       d="m 46.148248,2.443 c 3.614705,0 6.544915,2.9315088 6.544915,6.5462136 V 51.895488 c 0,3.616003 -2.93021,6.547512 -6.544915,6.547512 H 12.585915 C 8.9712099,58.443 6.041,55.511491 6.041,51.896786 V 8.9892136 C 6.041,5.3745088 8.9712099,2.443 12.585915,2.443 Z"
       fill-rule="nonzero"
       id="path2"
       style="fill:url(#linearGradient5)" />
    <path
       d="m 42.877739,4.4653124 c -0.413035,1.2326105 -1.749554,5.1720283 -3.662762,9.8504926 -1.118312,2.735382 -2.358715,5.499339 -3.526383,7.593089 -0.583185,1.045575 -1.153381,1.926197 -1.643048,2.526267 -0.490966,0.600069 -0.935173,0.858541 -0.941668,0.859839 -0.476678,0.135081 -1.11961,-0.01169 -2.04699,-0.590977 -0.927381,-0.579288 -2.01452,-1.535243 -3.158808,-2.569129 -2.288577,-2.069071 -4.777177,-4.620016 -7.980146,-4.681063 -2.910727,-0.05455 -5.203201,1.650841 -6.570892,4.021246 -1.367691,2.370405 -2.008025,5.416212 -2.136611,8.612687 -0.127288,3.174394 0.174046,6.609857 1.343012,9.438757 1.168967,2.828899 3.480924,5.139557 6.854042,5.203201 3.548463,0.06754 6.21111,-2.600302 8.49579,-4.923948 1.141691,-1.162472 2.208049,-2.284681 3.15621,-3.057497 0.948162,-0.772817 1.726175,-1.12091 2.249612,-1.110519 -0.09741,-0.0013 0.206517,0.06105 0.649426,0.570196 0.444207,0.510449 0.983231,1.344312 1.524852,2.378198 1.083243,2.065175 2.208048,4.916155 3.204268,7.769732 1.610576,4.614821 2.674336,8.463319 3.106853,10.063505 h 2.697716 C 44.232441,55.44525 42.977751,50.76159 41.139875,45.498642 c -1.0183,-2.917221 -2.162588,-5.842236 -3.356233,-8.117825 -0.596173,-1.137794 -1.197542,-2.11453 -1.863853,-2.879554 -0.666311,-0.765024 -1.444323,-1.440427 -2.562635,-1.461209 -1.51576,-0.02857 -2.783439,0.753334 -3.939417,1.695002 -1.15468,0.940369 -2.250911,2.117129 -3.366625,3.252325 -2.230128,2.267796 -4.475843,4.184901 -6.595569,4.144637 -2.295072,-0.04286 -3.566648,-1.331323 -4.50312,-3.59782 -0.936472,-2.265198 -1.263783,-5.420109 -1.145587,-8.342526 0.115597,-2.902934 0.740345,-5.596753 1.789817,-7.417743 1.050772,-1.82099 2.328842,-2.758762 4.273223,-2.722394 1.649542,0.03117 3.986177,1.927497 6.287742,4.008257 1.150783,1.040381 2.300267,2.084658 3.523786,2.848383 1.223518,0.765023 2.645761,1.305346 4.125153,0.888414 0.971541,-0.274058 1.604082,-0.92738 2.249612,-1.717082 0.646828,-0.791001 1.270277,-1.776829 1.90022,-2.905532 1.259886,-2.256105 2.523669,-5.085005 3.664061,-7.87364 2.224934,-5.4434883 3.919935,-10.5830453 4.003062,-10.8350226 z"
       fill="#353535"
       id="path3"
       style="stroke-width:1.29885;fill:#233143;fill-opacity:1" />
  </g>
  <circle
     cx="51.294415"
     cy="51.52861"
     r="9.9875927"
     fill="#353535"
     stroke-width="0.907963"
     id="circle3"
     style="fill:#233143;fill-opacity:1" />
  <path
     d="m 45.846634,54.549404 v 2.426985 h 2.426985 l 6.129658,-6.129658 -2.426985,-2.426985 z M 56.549702,48.70757 c 0.256953,-0.256046 0.256953,-0.660997 0,-0.917951 l -1.516298,-1.516298 c -0.256954,-0.256953 -0.661905,-0.256953 -0.917951,0 l -1.268424,1.275688 2.426985,2.426985 z"
     fill="#ffffff"
     fill-rule="nonzero"
     id="path4"
     style="stroke-width:0.907963" />
</svg>
