<?xml version="1.0" encoding="UTF-8" standalone="no"?>
<svg
   width="62"
   height="62"
   version="1"
   id="svg5"
   sodipodi:docname="deepin-launcher.svg"
   inkscape:version="1.4 (e7c3feb100, 2024-10-09)"
   xmlns:inkscape="http://www.inkscape.org/namespaces/inkscape"
   xmlns:sodipodi="http://sodipodi.sourceforge.net/DTD/sodipodi-0.dtd"
   xmlns:xlink="http://www.w3.org/1999/xlink"
   xmlns="http://www.w3.org/2000/svg"
   xmlns:svg="http://www.w3.org/2000/svg">
  <defs
     id="defs5">
    <linearGradient
       id="linearGradient5"
       inkscape:collect="always">
      <stop
         style="stop-color:#249eff;stop-opacity:1;"
         offset="0"
         id="stop5" />
      <stop
         style="stop-color:#b380ff;stop-opacity:1"
         offset="1"
         id="stop6" />
    </linearGradient>
    <linearGradient
       inkscape:collect="always"
       xlink:href="#linearGradient5"
       id="linearGradient6"
       x1="33.117645"
       y1="3"
       x2="32.245991"
       y2="59"
       gradientUnits="userSpaceOnUse"
       gradientTransform="translate(0.5)" />
  </defs>
  <sodipodi:namedview
     id="namedview5"
     pagecolor="#ffffff"
     bordercolor="#000000"
     borderopacity="0.25"
     inkscape:showpageshadow="2"
     inkscape:pageopacity="0.0"
     inkscape:pagecheckerboard="0"
     inkscape:deskcolor="#d1d1d1"
     inkscape:zoom="11.6875"
     inkscape:cx="31.957219"
     inkscape:cy="32"
     inkscape:window-width="1920"
     inkscape:window-height="994"
     inkscape:window-x="0"
     inkscape:window-y="0"
     inkscape:window-maximized="1"
     inkscape:current-layer="svg5" />
  <ellipse
     style="opacity:0.2;stroke-width:0.965216"
     cx="31"
     cy="31.482761"
     id="circle1"
     rx="27.5"
     ry="27.517239" />
  <ellipse
     style="fill:url(#linearGradient6);stroke-width:0.965216"
     cx="31"
     cy="30.517239"
     id="circle2"
     rx="27.5"
     ry="27.517239" />
  <path
     style="opacity:0.2;fill:#ffffff;stroke-width:0.965216"
     d="M 30.999995,3 A 27.499995,27.517234 0 0 0 3.5,30.517234 27.499995,27.517234 0 0 0 3.5207309,31.079198 27.499995,27.517234 0 0 1 30.999995,3.9655172 27.499995,27.517234 0 0 1 58.479258,30.920787 27.499995,27.517234 0 0 0 58.499989,30.517234 27.499995,27.517234 0 0 0 30.999995,3 Z"
     id="path2" />
  <g
     id="g6"
     transform="translate(-4.9073486e-6,0.45694442)">
    <rect
       style="fill:#ffffff;stroke-width:1.23538"
       width="13.639996"
       height="13.538464"
       x="32.860008"
       y="15.025817"
       rx="3.4099984"
       ry="3.3846154"
       id="rect2" />
    <rect
       style="opacity:0.6;fill:#ffffff;stroke-width:1.23538"
       width="13.639996"
       height="13.538464"
       x="15.500011"
       y="15.025817"
       rx="3.4099984"
       ry="3.3846154"
       id="rect3" />
    <rect
       style="opacity:0.6;fill:#ffffff;stroke-width:1.23538"
       width="13.639996"
       height="13.538464"
       x="32.860008"
       y="32.256596"
       rx="3.4099984"
       ry="3.3846154"
       id="rect4" />
    <rect
       style="fill:#ffffff;stroke-width:1.23538"
       width="13.639996"
       height="13.538464"
       x="15.500011"
       y="32.256596"
       rx="3.4099984"
       ry="3.3846154"
       id="rect5" />
    <path
       style="opacity:0.2;stroke-width:1.23538"
       d="m 15.500006,25.179662 v 1.230772 c 0,1.875072 1.520856,3.38461 3.409992,3.38461 h 6.820006 c 1.889136,0 3.409995,-1.509538 3.409995,-3.38461 v -1.230772 c 0,1.875073 -1.520859,3.384611 -3.409995,3.384611 h -6.820005 c -1.889136,0 -3.409993,-1.509538 -3.409993,-3.384611 z m 17.359993,0 v 1.230772 c 0,1.875072 1.520857,3.38461 3.409996,3.38461 h 6.820004 c 1.889135,0 3.409995,-1.509538 3.409995,-3.38461 v -1.230772 c 0,1.875073 -1.52086,3.384611 -3.409995,3.384611 h -6.820004 c -1.889139,0 -3.409996,-1.509538 -3.409996,-3.384611 z M 15.500006,42.410434 v 1.230772 c 0,1.875075 1.520856,3.384611 3.409992,3.384611 h 6.820006 c 1.889136,0 3.409995,-1.509536 3.409995,-3.384611 v -1.230772 c 0,1.875075 -1.520859,3.384612 -3.409995,3.384612 h -6.820005 c -1.889136,0 -3.409993,-1.509537 -3.409993,-3.384612 z m 17.359993,0 v 1.230772 c 0,1.875075 1.520857,3.384611 3.409996,3.384611 h 6.820004 c 1.889135,0 3.409995,-1.509536 3.409995,-3.384611 v -1.230772 c 0,1.875075 -1.52086,3.384612 -3.409995,3.384612 h -6.820004 c -1.889139,0 -3.409996,-1.509537 -3.409996,-3.384612 z"
       id="path5" />
  </g>
</svg>
