<?xml version="1.0" encoding="UTF-8" standalone="no"?>
<svg
   width="62"
   height="62"
   version="1.1"
   id="svg5"
   sodipodi:docname="deezer.svg"
   inkscape:version="1.4 (e7c3feb100, 2024-10-09)"
   xmlns:inkscape="http://www.inkscape.org/namespaces/inkscape"
   xmlns:sodipodi="http://sodipodi.sourceforge.net/DTD/sodipodi-0.dtd"
   xmlns="http://www.w3.org/2000/svg"
   xmlns:svg="http://www.w3.org/2000/svg">
  <defs
     id="defs5" />
  <sodipodi:namedview
     id="namedview5"
     pagecolor="#ffffff"
     bordercolor="#000000"
     borderopacity="0.25"
     inkscape:showpageshadow="2"
     inkscape:pageopacity="0.0"
     inkscape:pagecheckerboard="0"
     inkscape:deskcolor="#d1d1d1"
     inkscape:zoom="11.6875"
     inkscape:cx="31.957219"
     inkscape:cy="32.855615"
     inkscape:window-width="1920"
     inkscape:window-height="994"
     inkscape:window-x="0"
     inkscape:window-y="0"
     inkscape:window-maximized="1"
     inkscape:current-layer="svg5" />
  <rect
     style="opacity:0.2;stroke-width:0.9823"
     width="55"
     height="55.017544"
     x="3.5"
     y="3.9824562"
     rx="8.25"
     ry="8.2526312"
     id="rect1" />
  <rect
     style="fill:#212e3f;stroke-width:0.9823"
     width="55"
     height="55.017544"
     x="3.5"
     y="3"
     rx="8.25"
     ry="8.2526312"
     id="rect2" />
  <path
     style="opacity:0.1;fill:#ffffff;stroke-width:0.9823"
     d="M 11.748466,3 C 7.1779651,3 3.4999999,6.6791384 3.4999999,11.251097 v 0.982456 c 0,-4.5719585 3.6779652,-8.2510968 8.2484661,-8.2510968 h 38.503068 c 4.5705,0 8.248466,3.6791383 8.248466,8.2510968 V 11.251097 C 58.5,6.6791384 54.822034,3 50.251534,3 Z"
     id="path4" />
  <path
     fill-rule="evenodd"
     clip-rule="evenodd"
     d="m 45.22554,17.797484 c 0.388734,-2.037742 0.958739,-3.319147 1.590402,-3.321585 h 0.0012 c 1.177767,0.0034 2.132453,4.447552 2.132453,9.934183 0,5.486571 -0.956059,9.934145 -2.135199,9.934145 -0.483277,0 -0.929266,-0.755181 -1.288543,-2.020646 -0.567443,4.632393 -1.745192,7.81695 -3.108622,7.81695 -1.054849,0 -2.001666,-1.912965 -2.637201,-4.929831 -0.43406,5.737501 -1.526289,9.808151 -2.802937,9.808151 -0.801139,0 -1.531607,-1.613048 -2.072338,-4.239472 C 34.25442,46.201107 32.752216,50 31.000203,50 29.24828,50 27.743436,46.202319 27.09576,40.779379 c -0.536818,2.626424 -1.267192,4.239472 -2.07245,4.239472 -1.276543,0 -2.366191,-4.07065 -2.802824,-9.808151 -0.63559,3.016866 -1.57964,4.929831 -2.637262,4.929831 -1.362015,0 -2.54107,-3.183312 -3.108586,-7.81695 -0.356546,1.269209 -0.805204,2.020646 -1.288604,2.020646 -1.179074,0 -2.135164,-4.447574 -2.135164,-9.934145 0,-5.486631 0.95609,-9.934183 2.135164,-9.934183 0.632958,0 1.199119,1.285064 1.591721,3.321585 C 17.406686,14.283756 18.42822,12 19.58322,12 c 1.371394,0 2.559828,3.229816 3.122016,7.919682 0.550115,-3.41338 1.384703,-5.589425 2.319458,-5.589425 1.309889,0 2.4236,4.279879 2.836247,10.249958 0.775794,-3.060976 1.898756,-4.981202 3.141961,-4.981202 1.243206,0 2.366203,1.921483 3.14065,4.981202 0.413966,-5.970079 1.52627,-10.249958 2.836254,-10.249958 0.933378,0 1.766664,2.176045 2.319493,5.589425 C 39.860015,15.229816 41.048505,12 42.419896,12 c 1.151073,0 2.1766,2.284976 2.805455,5.797484 z M 10,23.433015 c 0,-2.452657 0.542143,-4.44147 1.211134,-4.44147 0.668992,0 1.21114,1.988813 1.21114,4.44147 0,2.452586 -0.542148,4.441406 -1.21114,4.441406 C 10.542143,27.874421 10,25.885601 10,23.433015 Z m 39.5777,0 c 0,-2.452657 0.542033,-4.44147 1.211116,-4.44147 0.668953,0 1.211184,1.988813 1.211184,4.44147 0,2.452586 -0.542231,4.441406 -1.211184,4.441406 -0.669083,0 -1.211116,-1.98882 -1.211116,-4.441406 z"
     id="path2-9"
     style="stroke-width:1.35601;fill:#a238ff;fill-opacity:1" />
</svg>
