<?xml version="1.0" encoding="UTF-8" standalone="no"?>
<!-- Created with Inkscape (http://www.inkscape.org/) -->

<svg
   width="62"
   height="62"
   viewBox="0 0 62 62"
   version="1.1"
   id="svg1"
   inkscape:version="1.4 (e7c3feb100, 2024-10-09)"
   sodipodi:docname="accessories-safe.svg.2024_12_09_20_00_42.0.svg"
   xmlns:inkscape="http://www.inkscape.org/namespaces/inkscape"
   xmlns:sodipodi="http://sodipodi.sourceforge.net/DTD/sodipodi-0.dtd"
   xmlns:xlink="http://www.w3.org/1999/xlink"
   xmlns="http://www.w3.org/2000/svg"
   xmlns:svg="http://www.w3.org/2000/svg">
  <sodipodi:namedview
     id="namedview1"
     pagecolor="#ffffff"
     bordercolor="#000000"
     borderopacity="0.25"
     inkscape:showpageshadow="2"
     inkscape:pageopacity="0.0"
     inkscape:pagecheckerboard="0"
     inkscape:deskcolor="#d1d1d1"
     inkscape:document-units="px"
     inkscape:zoom="10.74725"
     inkscape:cx="29.914629"
     inkscape:cy="36.660541"
     inkscape:window-width="1920"
     inkscape:window-height="994"
     inkscape:window-x="0"
     inkscape:window-y="0"
     inkscape:window-maximized="1"
     inkscape:current-layer="layer1" />
  <defs
     id="defs1">
    <linearGradient
       id="linearGradient9"
       inkscape:collect="always">
      <stop
         style="stop-color:#566c80;stop-opacity:1;"
         offset="0"
         id="stop8" />
      <stop
         style="stop-color:#333e4d;stop-opacity:1;"
         offset="1"
         id="stop9" />
    </linearGradient>
    <linearGradient
       id="linearGradient6"
       inkscape:collect="always">
      <stop
         style="stop-color:#566c80;stop-opacity:1;"
         offset="0"
         id="stop6" />
      <stop
         style="stop-color:#29323d;stop-opacity:1;"
         offset="1"
         id="stop7" />
    </linearGradient>
    <radialGradient
       id="paint664_radial_890_11"
       cx="0"
       cy="0"
       r="1"
       gradientUnits="userSpaceOnUse"
       gradientTransform="matrix(-16.000099,-9.999913,9.999913,-16.000099,583,171)">
      <stop
         offset="0.42141"
         stop-color="#B7C6CD"
         id="stop2071" />
      <stop
         offset="1"
         stop-color="#EFF2F6"
         id="stop2072" />
    </radialGradient>
    <linearGradient
       id="paint665_linear_890_11"
       x1="605"
       y1="180"
       x2="601.466"
       y2="162.72301"
       gradientUnits="userSpaceOnUse">
      <stop
         stop-color="#5200FF"
         id="stop2073" />
      <stop
         offset="1"
         stop-color="#0085FF"
         id="stop2074" />
    </linearGradient>
    <linearGradient
       id="paint666_linear_890_11"
       x1="567"
       y1="181"
       x2="562.11798"
       y2="174.183"
       gradientUnits="userSpaceOnUse">
      <stop
         stop-color="#5200FF"
         id="stop2075" />
      <stop
         offset="0.670391"
         stop-color="#0085FF"
         id="stop2076" />
    </linearGradient>
    <linearGradient
       id="paint667_linear_890_11"
       x1="605"
       y1="180"
       x2="597.32001"
       y2="174.24001"
       gradientUnits="userSpaceOnUse">
      <stop
         stop-color="#5200FF"
         id="stop2077" />
      <stop
         offset="1"
         stop-color="#0085FF"
         id="stop2078" />
    </linearGradient>
    <linearGradient
       id="paint668_linear_890_11"
       x1="567"
       y1="180"
       x2="561.23999"
       y2="172.32001"
       gradientUnits="userSpaceOnUse">
      <stop
         stop-color="#5200FF"
         id="stop2079" />
      <stop
         offset="1"
         stop-color="#0085FF"
         id="stop2080" />
    </linearGradient>
    <linearGradient
       id="paint669_linear_890_11"
       x1="607"
       y1="179"
       x2="602.50598"
       y2="171.80901"
       gradientUnits="userSpaceOnUse">
      <stop
         stop-color="#5200FF"
         id="stop2081" />
      <stop
         offset="1"
         stop-color="#0085FF"
         id="stop2082" />
    </linearGradient>
    <linearGradient
       id="paint670_linear_890_11"
       x1="607"
       y1="217"
       x2="568.82599"
       y2="170.01601"
       gradientUnits="userSpaceOnUse">
      <stop
         stop-color="#5200FF"
         id="stop2083" />
      <stop
         offset="1"
         stop-color="#0085FF"
         id="stop2084" />
    </linearGradient>
    <radialGradient
       id="paint671_radial_890_11"
       cx="0"
       cy="0"
       r="1"
       gradientUnits="userSpaceOnUse"
       gradientTransform="matrix(0,20,-16,0,583,187)">
      <stop
         offset="0.869716"
         stop-color="#EFF2F6"
         id="stop2085" />
      <stop
         offset="1"
         stop-color="#B7C6CD"
         id="stop2086" />
    </radialGradient>
    <linearGradient
       id="paint65_linear_890_11"
       x1="83"
       y1="975"
       x2="83"
       y2="1017"
       gradientUnits="userSpaceOnUse"
       gradientTransform="matrix(1.3181819,0,0,1.3333333,-78.409088,-1297)">
      <stop
         stop-color="#EFF2F6"
         id="stop872"
         offset="0"
         style="stop-color:#51697b;stop-opacity:1;" />
      <stop
         offset="1"
         stop-color="#B7C6CD"
         id="stop873"
         style="stop-color:#3d4f5c;stop-opacity:1;" />
    </linearGradient>
    <linearGradient
       id="paint574_linear_890_11"
       x1="711"
       y1="309"
       x2="710.43103"
       y2="301.04099"
       gradientUnits="userSpaceOnUse"
       gradientTransform="matrix(1.0344855,0,0,1,-675.51921,-259.7)">
      <stop
         stop-color="#2E2E41"
         id="stop1891" />
      <stop
         offset="1"
         stop-color="#566C80"
         id="stop1892" />
    </linearGradient>
    <linearGradient
       id="paint575_linear_890_11"
       x1="711"
       y1="281"
       x2="710.43103"
       y2="273.04099"
       gradientUnits="userSpaceOnUse"
       gradientTransform="matrix(1.0344855,0,0,1,-675.51921,-264.18609)">
      <stop
         stop-color="#2E2E41"
         id="stop1893" />
      <stop
         offset="1"
         stop-color="#566C80"
         id="stop1894" />
    </linearGradient>
    <linearGradient
       id="paint649_linear_890_11"
       x1="705"
       y1="209"
       x2="694.5"
       y2="209"
       gradientUnits="userSpaceOnUse"
       gradientTransform="matrix(1.1071424,0,0,1.1249997,-725.17829,-178.62491)">
      <stop
         offset="0.280901"
         stop-color="#2E2E41"
         id="stop2041" />
      <stop
         offset="1"
         stop-color="#566C80"
         id="stop2042" />
    </linearGradient>
    <linearGradient
       id="paint650_linear_890_11"
       x1="660"
       y1="209"
       x2="670.5"
       y2="209"
       gradientUnits="userSpaceOnUse"
       gradientTransform="matrix(1.1071424,0,0,1.1249997,-725.17829,-178.62491)">
      <stop
         stop-color="#566C80"
         id="stop2043" />
      <stop
         offset="0.66000003"
         stop-color="#2E2E41"
         id="stop2044"
         style="stop-color:#2e2e42;stop-opacity:1;" />
    </linearGradient>
    <linearGradient
       id="paint651_linear_890_11"
       x1="711"
       y1="209"
       x2="668.24902"
       y2="154.59"
       gradientUnits="userSpaceOnUse"
       gradientTransform="matrix(1.1071424,0,0,1.1249997,-725.17829,-178.62491)">
      <stop
         stop-color="#2E2E41"
         id="stop2045" />
      <stop
         offset="1"
         stop-color="#566C80"
         id="stop2046" />
    </linearGradient>
    <linearGradient
       id="paint652_linear_890_11"
       x1="661"
       y1="171"
       x2="691.44299"
       y2="212.85899"
       gradientUnits="userSpaceOnUse"
       gradientTransform="matrix(1.1071424,0,0,1.1249997,-725.17829,-178.62491)">
      <stop
         stop-color="#EFF2F6"
         id="stop2047"
         style="stop-color:#ff5555;stop-opacity:1" />
      <stop
         offset="1"
         stop-color="#B7C6CD"
         id="stop2048"
         style="stop-color:#de87aa;stop-opacity:1" />
    </linearGradient>
    <linearGradient
       id="paint653_linear_890_11"
       x1="681"
       y1="195"
       x2="665"
       y2="179"
       gradientUnits="userSpaceOnUse"
       gradientTransform="translate(-652,-158)">
      <stop
         stop-color="#2E2E41"
         id="stop2049" />
      <stop
         offset="1"
         stop-color="#566C80"
         id="stop2050" />
    </linearGradient>
    <linearGradient
       id="paint654_linear_890_11"
       x1="667"
       y1="181"
       x2="679"
       y2="193"
       gradientUnits="userSpaceOnUse"
       gradientTransform="translate(-652,-158)">
      <stop
         stop-color="white"
         id="stop2051" />
      <stop
         offset="0.705"
         stop-color="#EAEFEF"
         id="stop2052" />
    </linearGradient>
    <linearGradient
       id="paint655_linear_890_11"
       x1="699.95697"
       y1="183"
       x2="699.95697"
       y2="179"
       gradientUnits="userSpaceOnUse">
      <stop
         offset="0.340681"
         stop-color="#2E2E41"
         id="stop2053" />
      <stop
         offset="1"
         stop-color="#566C80"
         id="stop2054" />
    </linearGradient>
    <linearGradient
       id="paint658_linear_890_11"
       x1="699.95697"
       y1="189"
       x2="699.95697"
       y2="185"
       gradientUnits="userSpaceOnUse">
      <stop
         offset="0.340681"
         stop-color="#2E2E41"
         id="stop2059" />
      <stop
         offset="1"
         stop-color="#566C80"
         id="stop2060" />
    </linearGradient>
    <linearGradient
       id="paint661_linear_890_11"
       x1="699.95697"
       y1="195"
       x2="699.95697"
       y2="191"
       gradientUnits="userSpaceOnUse">
      <stop
         offset="0.340681"
         stop-color="#2E2E41"
         id="stop2065" />
      <stop
         offset="1"
         stop-color="#566C80"
         id="stop2066" />
    </linearGradient>
    <linearGradient
       id="_lgradient_15"
       x1="0"
       y1="0.5"
       x2="1"
       y2="0.5"
       gradientTransform="matrix(44.000004,0,0,32.938441,9.0000003,12.458006)"
       gradientUnits="userSpaceOnUse">
      <stop
         offset="0%"
         stop-opacity="1"
         style="stop-color:rgb(135,154,242)"
         id="stop1" />
      <stop
         offset="47.91666666666667%"
         stop-opacity="1"
         style="stop-color:rgb(211,32,139)"
         id="stop2" />
      <stop
         offset="97.91666666666666%"
         stop-opacity="1"
         style="stop-color:rgb(253,160,0)"
         id="stop3" />
    </linearGradient>
    <linearGradient
       inkscape:collect="always"
       xlink:href="#linearGradient9"
       id="linearGradient7"
       x1="17.771988"
       y1="-5.0966296"
       x2="58.836399"
       y2="56.500011"
       gradientUnits="userSpaceOnUse"
       gradientTransform="translate(0,-3)" />
    <linearGradient
       inkscape:collect="always"
       xlink:href="#linearGradient6"
       id="linearGradient11"
       x1="17.714273"
       y1="56.884834"
       x2="4.4285698"
       y2="57.062489"
       gradientUnits="userSpaceOnUse"
       gradientTransform="translate(0,-3)" />
    <linearGradient
       inkscape:collect="always"
       xlink:href="#linearGradient6"
       id="linearGradient13"
       x1="43.178566"
       y1="58.187492"
       x2="56.464275"
       y2="58.187492"
       gradientUnits="userSpaceOnUse"
       gradientTransform="translate(0,-3)" />
    <linearGradient
       inkscape:collect="always"
       xlink:href="#linearGradient10"
       id="linearGradient11-8"
       x1="7.1620364"
       y1="14.551895"
       x2="34.700695"
       y2="58.310341"
       gradientUnits="userSpaceOnUse"
       gradientTransform="translate(0.0211438,-3)" />
    <linearGradient
       id="linearGradient10"
       inkscape:collect="always">
      <stop
         style="stop-color:#eff2f6;stop-opacity:1;"
         offset="0"
         id="stop10" />
      <stop
         style="stop-color:#b7c6cd;stop-opacity:1;"
         offset="1"
         id="stop11" />
    </linearGradient>
    <linearGradient
       id="paint653_linear_890_11-6"
       x1="681"
       y1="195"
       x2="665"
       y2="179"
       gradientUnits="userSpaceOnUse"
       gradientTransform="translate(-685.34324,-164.24999)">
      <stop
         stop-color="#2E2E41"
         id="stop2049-2" />
      <stop
         offset="1"
         stop-color="#566C80"
         id="stop2050-6" />
    </linearGradient>
    <linearGradient
       id="paint654_linear_890_11-1"
       x1="667"
       y1="181"
       x2="679"
       y2="193"
       gradientUnits="userSpaceOnUse"
       gradientTransform="translate(-685.34324,-164.24999)">
      <stop
         stop-color="white"
         id="stop2051-8" />
      <stop
         offset="0.705"
         stop-color="#EAEFEF"
         id="stop2052-7" />
    </linearGradient>
    <linearGradient
       inkscape:collect="always"
       xlink:href="#paint661_linear_890_11"
       id="linearGradient13-3"
       gradientUnits="userSpaceOnUse"
       x1="699.95697"
       y1="195"
       x2="699.95697"
       y2="191"
       gradientTransform="translate(-653.82143,-159.24234)" />
    <linearGradient
       id="b"
       x2="1"
       gradientTransform="matrix(-4.1580037e-7,-20.000485,20.000485,-4.1580037e-7,298.62263,38.750346)"
       gradientUnits="userSpaceOnUse"
       xlink:href="#linearGradient9">
      <stop
         stop-color="#252525"
         offset="0"
         id="stop3-0" />
      <stop
         stop-color="#5b5b5b"
         offset="1"
         id="stop4" />
    </linearGradient>
    <linearGradient
       id="c"
       x2="1"
       gradientTransform="matrix(0,-15.38503,15.38503,0,-248.36001,36.442582)"
       gradientUnits="userSpaceOnUse">
      <stop
         stop-color="#fe9706"
         offset="0"
         id="stop5" />
      <stop
         stop-color="#fec006"
         offset="1"
         id="stop6-6" />
    </linearGradient>
    <linearGradient
       id="paint653_linear_890_11-9"
       x1="681"
       y1="195"
       x2="665"
       y2="179"
       gradientUnits="userSpaceOnUse"
       gradientTransform="matrix(1.3750001,0,0,1.3750001,-905.12603,-228.375)">
      <stop
         stop-color="#2E2E41"
         id="stop2049-1" />
      <stop
         offset="1"
         stop-color="#566C80"
         id="stop2050-2" />
    </linearGradient>
    <linearGradient
       id="paint654_linear_890_11-7"
       x1="667"
       y1="181"
       x2="679"
       y2="193"
       gradientUnits="userSpaceOnUse"
       gradientTransform="matrix(1.3750001,0,0,1.3750001,-905.12603,-228.375)">
      <stop
         stop-color="white"
         id="stop2051-0" />
      <stop
         offset="0.705"
         stop-color="#EAEFEF"
         id="stop2052-9" />
    </linearGradient>
    <linearGradient
       inkscape:collect="always"
       xlink:href="#linearGradient9"
       id="linearGradient16"
       x1="9.2490387"
       y1="28.750006"
       x2="31.249039"
       y2="28.750006"
       gradientUnits="userSpaceOnUse" />
    <linearGradient
       inkscape:collect="always"
       xlink:href="#linearGradient10"
       id="linearGradient18"
       x1="11.999039"
       y1="28.750006"
       x2="28.499039"
       y2="28.750006"
       gradientUnits="userSpaceOnUse" />
  </defs>
  <g
     inkscape:label="Layer 1"
     inkscape:groupmode="layer"
     id="layer1">
    <path
       d="m 46.392603,57.040378 -3.214037,-4.665389 h 13.285711 v 3.375 C 56.464277,56.993111 55.473374,58 54.249984,58 H 48.20609 c -0.721849,0 -1.39942,-0.357732 -1.813487,-0.959622 z"
       id="path632"
       style="fill:url(#linearGradient13)" />
    <path
       d="m 14.500236,57.040378 3.214038,-4.665389 H 4.42857 v 3.375 C 4.42857,56.993111 5.4194631,58 6.6428562,58 h 6.0438948 c 0.721848,0 1.39942,-0.357732 1.813485,-0.959622 z"
       id="path633"
       style="fill:url(#linearGradient11)" />
    <path
       d="M 0,10.75 C 0,7.02175 2.9737844,4 6.6428562,4 H 55.357144 C 59.026211,4 62,7.02175 62,10.75 v 36.000012 c 0,3.728245 -2.973789,6.75 -6.642856,6.75 H 6.6428562 C 2.9737844,53.500012 0,50.478257 0,46.750012 Z"
       id="path634"
       style="fill:url(#linearGradient7)" />
    <path
       d="M 6.664,13.000012 C 6.664,11.756889 7.6548966,10.75 8.8782911,10.75 H 53.163993 c 1.223391,0 2.214295,1.006889 2.214295,2.250012 v 31.499989 c 0,1.243122 -0.990904,2.250011 -2.214295,2.250011 H 8.8782911 C 7.6548966,46.750012 6.664,45.743123 6.664,44.500001 Z"
       id="path635-6"
       style="fill:url(#linearGradient11-8)" />
    <path
       d="m 35.178566,21.408988 c 0,-0.552 0.448,-1 1,-1 h 2 c 0.552,0 1,0.448 1,1 v 2 c 0,0.552 -0.448,1 -1,1 h -2 c -0.552,0 -1,-0.448 -1,-1 z"
       id="path638"
       style="fill:#373e48;fill-opacity:1"
       sodipodi:nodetypes="sssssssss" />
    <path
       d="m 41.178566,21.408988 c 0,-0.552 0.448,-1 1,-1 h 2 c 0.552,0 1,0.448 1,1 v 2 c 0,0.552 -0.448,1 -1,1 h -2 c -0.552,0 -1,-0.448 -1,-1 z"
       id="path639"
       style="fill:#373e48;fill-opacity:1" />
    <path
       d="m 48.178566,20.408988 c -0.552,0 -1,0.448 -1,1 v 2 c 0,0.552 0.448,1 1,1 h 2 c 0.552,0 1,-0.448 1,-1 v -2 c 0,-0.552 -0.448,-1 -1,-1 z"
       id="path640"
       style="fill:#373e48;fill-opacity:1" />
    <path
       d="m 35.178566,27.408988 c 0,-0.552 0.448,-1 1,-1 h 2 c 0.552,0 1,0.448 1,1 v 2 c 0,0.552 -0.448,1 -1,1 h -2 c -0.552,0 -1,-0.448 -1,-1 z"
       id="path641"
       style="fill:#373e48;fill-opacity:1" />
    <path
       d="m 41.178566,27.408988 c 0,-0.552 0.448,-1 1,-1 h 2 c 0.552,0 1,0.448 1,1 v 2 c 0,0.552 -0.448,1 -1,1 h -2 c -0.552,0 -1,-0.448 -1,-1 z"
       id="path642"
       style="fill:#373e48;fill-opacity:1" />
    <path
       d="m 48.178566,26.408988 c -0.552,0 -1,0.448 -1,1 v 2 c 0,0.552 0.448,1 1,1 h 2 c 0.552,0 1,-0.448 1,-1 v -2 c 0,-0.552 -0.448,-1 -1,-1 z"
       id="path643"
       style="fill:#373e48;fill-opacity:1" />
    <path
       d="m 35.178566,33.408988 c 0,-0.552 0.448,-1 1,-1 h 2 c 0.552,0 1,0.448 1,1 v 2 c 0,0.552 -0.448,1 -1,1 h -2 c -0.552,0 -1,-0.448 -1,-1 z"
       id="path644"
       style="fill:#373e48;fill-opacity:1" />
    <path
       d="m 41.178566,33.408988 c 0,-0.552 0.448,-1 1,-1 h 2 c 0.552,0 1,0.448 1,1 v 2 c 0,0.552 -0.448,1 -1,1 h -2 c -0.552,0 -1,-0.448 -1,-1 z"
       id="path645"
       style="fill:#373e48;fill-opacity:1" />
    <path
       d="m 48.178566,32.408988 c -0.552,0 -1,0.448 -1,1 v 2 c 0,0.552 0.448,1 1,1 h 2 c 0.552,0 1,-0.448 1,-1 v -2 c 0,-0.552 -0.448,-1 -1,-1 z"
       id="path646"
       style="fill:#373e48;fill-opacity:1" />
    <path
       d="m 31.249039,28.750006 c 0,6.07475 -4.92525,11 -11,11 -6.07475,0 -11.0000003,-4.92525 -11.0000003,-11 0,-6.07475 4.9252503,-11 11.0000003,-11 6.07475,0 11,4.92525 11,11 z"
       id="path636"
       style="fill:url(#linearGradient16)" />
    <path
       d="m 18.874039,21.875006 c 0,-0.759 0.616,-1.375 1.375,-1.375 0.759,0 1.375,0.616 1.375,1.375 v 1.14675 c 0,1.101372 0.763122,2.03225 1.541378,2.811872 0.779622,0.778256 1.7105,1.541378 2.811872,1.541378 h 1.14675 c 0.759,0 1.375,0.616 1.375,1.375 0,0.759 -0.616,1.375 -1.375,1.375 h -1.14675 c -1.101372,0 -2.03225,0.763122 -2.811872,1.541378 -0.778256,0.779622 -1.541378,1.7105 -1.541378,2.811872 v 1.14675 c 0,0.759 -0.616,1.375 -1.375,1.375 -0.759,0 -1.375,-0.616 -1.375,-1.375 v -1.14675 c 0,-1.101372 -0.763122,-2.03225 -1.541378,-2.811872 -0.779622,-0.778256 -1.7105,-1.541378 -2.811872,-1.541378 h -1.14675 c -0.759,0 -1.375,-0.616 -1.375,-1.375 0,-0.759 0.616,-1.375 1.375,-1.375 h 1.14675 c 1.101372,0 2.03225,-0.763122 2.811872,-1.541378 0.778256,-0.779622 1.541378,-1.7105 1.541378,-2.811872 z"
       id="path637"
       style="fill:url(#linearGradient18);fill-opacity:1" />
  </g>
</svg>
