<?xml version="1.0" encoding="UTF-8" standalone="no"?>
<svg
   width="62"
   height="62"
   viewBox="0 0 62 62"
   version="1.1"
   id="svg6"
   sodipodi:docname="deluge.svg"
   inkscape:version="1.4 (unknown)"
   xmlns:inkscape="http://www.inkscape.org/namespaces/inkscape"
   xmlns:sodipodi="http://sodipodi.sourceforge.net/DTD/sodipodi-0.dtd"
   xmlns:xlink="http://www.w3.org/1999/xlink"
   xmlns="http://www.w3.org/2000/svg"
   xmlns:svg="http://www.w3.org/2000/svg">
  <defs
     id="defs6">
    <linearGradient
       inkscape:collect="always"
       xlink:href="#a"
       id="linearGradient6"
       gradientUnits="userSpaceOnUse"
       x1="400.16821"
       y1="543.79803"
       x2="400.47992"
       y2="518.47333" />
    <linearGradient
       inkscape:collect="always"
       xlink:href="#a"
       id="linearGradient7"
       gradientUnits="userSpaceOnUse"
       x1="400.16821"
       y1="543.79803"
       x2="400.47992"
       y2="518.47333" />
  </defs>
  <sodipodi:namedview
     id="namedview6"
     pagecolor="#ffffff"
     bordercolor="#000000"
     borderopacity="0.25"
     inkscape:showpageshadow="2"
     inkscape:pageopacity="0.0"
     inkscape:pagecheckerboard="0"
     inkscape:deskcolor="#d1d1d1"
     inkscape:zoom="8.0729167"
     inkscape:cx="19.385806"
     inkscape:cy="22.978065"
     inkscape:window-width="1920"
     inkscape:window-height="998"
     inkscape:window-x="0"
     inkscape:window-y="0"
     inkscape:window-maximized="1"
     inkscape:current-layer="svg6" />
  <linearGradient
     id="a"
     x1="400.16821"
     x2="400.47992"
     y1="543.79803"
     y2="518.47333"
     gradientUnits="userSpaceOnUse">
    <stop
       stop-color="#2c5aa0"
       offset="0"
       id="stop1" />
    <stop
       stop-color="#3771c8"
       offset="1"
       id="stop2" />
  </linearGradient>
  <g
     transform="matrix(1.1777713,0,0,1.1666654,2.3287328,3.0000666)"
     id="g6">
    <path
       transform="matrix(1.9765854,0,0,1.9765854,-767.42002,-1026.8632)"
       d="m 400.07812,520.08271 -6.58932,11.49175 c -1.38467,2.42951 -1.49162,5.51872 0,8.12008 2.2423,3.91055 7.23019,5.26297 11.14076,3.02064 3.91056,-2.24229 5.26298,-7.23015 3.02065,-11.14075 l -6.58931,-11.49172 c -0.21767,-0.37961 -0.76514,-0.37961 -0.98278,0 z"
       fill-opacity="0.352941"
       id="path2" />
    <path
       transform="matrix(1.9765854,0,0,1.9765854,-767.42002,-1027.4252)"
       d="m 400.07812,520.08271 -6.58932,11.49175 c -1.38467,2.42951 -1.49162,5.51872 0,8.12008 2.2423,3.91055 7.23019,5.26297 11.14076,3.02064 3.91056,-2.24229 5.26298,-7.23015 3.02065,-11.14075 l -6.58931,-11.49172 c -0.21767,-0.37961 -0.76514,-0.37961 -0.98278,0 z"
       fill="url(#a)"
       id="path3"
       style="fill:url(#linearGradient6)" />
    <path
       transform="matrix(1.9765854,0,0,1.9765854,-767.41992,-1027.4251)"
       d="m 400.07812,520.08271 -6.58932,11.49175 c -1.38467,2.42951 -1.49162,5.51872 0,8.12008 2.2423,3.91055 7.23019,5.26297 11.14076,3.02064 3.91056,-2.24229 5.26298,-7.23015 3.02065,-11.14075 l -6.58931,-11.49172 c -0.21767,-0.37961 -0.76514,-0.37961 -0.98278,0 z"
       fill="url(#a)"
       id="path4"
       style="fill:url(#linearGradient7)" />
    <path
       d="m 27.105469,18.966797 c -4.335457,0 -8.385117,1.671928 -11.414063,4.705078 -3.012135,3.020539 -4.666608,7.049702 -4.658203,11.351563 0.0054,3.867519 1.256898,6.82721 3.339844,8.910156 l 0.244141,0.24414 c 5.001663,3.773366 11.969091,4.432808 17.748046,1.119141 4.885522,-2.801327 7.742172,-7.770619 8.070313,-13 z"
       fill-opacity="0.078431"
       id="path5" />
    <path
       d="m 26.322266,18.742188 c -4.827257,0 -9.336446,1.70069 -12.708985,4.787109 -3.12635,2.86512 -4.9186378,6.625754 -5.1425779,10.667969 0.3186707,1.758741 0.9346719,3.494349 1.8730469,5.130859 4.432098,7.729536 14.291908,10.400907 22.021484,5.96875 0.03345,-0.01918 0.06244,-0.04312 0.0957,-0.0625 -3.873271,0.398863 -7.933559,-0.183802 -11.201172,-4.337891 0,0 -0.0078,-0.01015 -0.0078,-0.01367 -0.492588,-0.783366 -0.730469,-1.636839 -0.730469,-2.480468 0,-1.722705 0.977268,-3.399066 2.722657,-4.324219 1.260558,-0.662854 2.730723,-0.841883 4.138671,-0.498047 1.404064,0.343826 2.581364,1.170251 3.310547,2.322266 l 2.271485,-1.105469 -0.04297,-0.07227 c -1.070453,-1.69791 -2.799902,-2.909492 -4.871094,-3.419921 -2.071194,-0.506889 -4.235881,-0.245908 -6.09375,0.732421 -2.571533,1.357604 -4.009765,3.831163 -4.009765,6.369141 0,1.176824 0.321022,2.362097 0.837183,3.194499 0.51616,0.832402 1.223228,1.717184 2.389391,2.614073 -0.167817,-0.09901 -0.329127,-0.179859 -0.5,-0.28711 -4.558643,-2.863959 -5.980097,-7.958624 -3.376953,-12.113281 1.220099,-1.943679 3.252938,-3.353782 5.726563,-3.960937 2.536296,-0.626258 5.159352,-0.320662 7.390624,0.855468 l 1.384766,-2.197265 c -2.874747,-1.515998 -6.249197,-1.91129 -9.5,-1.109375 -3.192308,0.786637 -5.808736,2.624646 -7.412109,5.15039 -2.497104,3.933612 -2.386533,7.694595 1.382509,12.037843 -1.530889,-1.057314 -4.410073,-3.223153 -4.737978,-7.518311 -0.275292,-3.605997 1.512125,-7.002146 4.28125,-9.53711 2.783168,-2.547788 6.515112,-3.955078 10.509766,-3.955078 z"
       fill="#ddffff"
       fill-opacity="0.851852"
       id="path6" />
  </g>
</svg>
