<?xml version="1.0" encoding="UTF-8" standalone="no"?>
<svg
   width="62"
   height="62"
   version="1.1"
   id="svg5"
   sodipodi:docname="desklets.svg"
   inkscape:version="1.4 (unknown)"
   xmlns:inkscape="http://www.inkscape.org/namespaces/inkscape"
   xmlns:sodipodi="http://sodipodi.sourceforge.net/DTD/sodipodi-0.dtd"
   xmlns:xlink="http://www.w3.org/1999/xlink"
   xmlns="http://www.w3.org/2000/svg"
   xmlns:svg="http://www.w3.org/2000/svg">
  <defs
     id="defs5">
    <linearGradient
       id="linearGradient5"
       inkscape:collect="always">
      <stop
         style="stop-color:#b3b3b3;stop-opacity:1"
         offset="0"
         id="stop5" />
      <stop
         style="stop-color:#ececec;stop-opacity:1"
         offset="1"
         id="stop6" />
    </linearGradient>
    <linearGradient
       inkscape:collect="always"
       xlink:href="#linearGradient5"
       id="linearGradient6"
       x1="34.971275"
       y1="59.01754"
       x2="34.942986"
       y2="5.2011752"
       gradientUnits="userSpaceOnUse"
       gradientTransform="translate(-0.5,-1)" />
  </defs>
  <sodipodi:namedview
     id="namedview5"
     pagecolor="#ffffff"
     bordercolor="#000000"
     borderopacity="0.25"
     inkscape:showpageshadow="2"
     inkscape:pageopacity="0.0"
     inkscape:pagecheckerboard="0"
     inkscape:deskcolor="#d1d1d1"
     inkscape:zoom="7.0710678"
     inkscape:cx="28.284271"
     inkscape:cy="54.23509"
     inkscape:window-width="1920"
     inkscape:window-height="996"
     inkscape:window-x="0"
     inkscape:window-y="0"
     inkscape:window-maximized="1"
     inkscape:current-layer="svg5" />
  <path
     style="opacity:0.2;stroke-width:0.982303"
     d="M 31,3.982456 A 27.5,27.50877 0 0 0 3.5,31.49123 27.5,27.50877 0 0 0 31,59 27.5,27.50877 0 0 0 58.5,31.49123 27.5,27.50877 0 0 0 31,3.982456 Z"
     id="path1" />
  <path
     style="fill:url(#linearGradient6);stroke-width:0.982303"
     d="M 31,3 A 27.5,27.50877 0 0 0 3.5,30.50877 27.5,27.50877 0 0 0 31,58.01754 27.5,27.50877 0 0 0 58.5,30.50877 27.5,27.50877 0 0 0 31,3 Z"
     id="path2" />
  <path
     style="opacity:0.2;fill:#ffffff;stroke-width:0.982303"
     d="M 31,3 A 27.5,27.50877 0 0 0 3.5,30.50877 27.5,27.50877 0 0 0 3.5211007,30.90789 27.5,27.50877 0 0 1 31,3.982456 27.5,27.50877 0 0 1 58.478903,31.076755 27.5,27.50877 0 0 0 58.5,30.50877 27.5,27.50877 0 0 0 31,3 Z"
     id="path5" />
  <path
     d="m 50,26.9512 c 0,-0.5604 -0.426437,-0.9084 -1.279312,-1.044 L 37.257629,24.2512 32.118642,13.93 C 31.829922,13.3096 31.456638,13 31,13 c -0.456638,0 -0.829922,0.3096 -1.118642,0.93 l -5.138987,10.3212 -11.463059,1.656 C 12.426437,26.0428 12,26.3908 12,26.9512 c 0,0.3168 0.190869,0.6804 0.571402,1.0884 l 8.3125,8.0304 -1.964267,11.3424 c -0.0302,0.2112 -0.04471,0.3624 -0.04471,0.4536 0,0.3168 0.07973,0.5856 0.23919,0.8052 C 19.27359,48.8908 19.513986,49 19.832908,49 c 0.274228,0 0.578652,-0.09 0.913274,-0.2724 L 31.00001,43.3744 41.253824,48.7276 C 41.573945,48.91 41.878369,49 42.16709,49 c 0.305633,0 0.537577,-0.109175 0.697037,-0.3288 0.159462,-0.2196 0.239192,-0.4884 0.239192,-0.8052 0,-0.1968 -0.007,-0.348 -0.02295,-0.4536 L 41.116101,36.07 49.405646,28.0396 C 49.801888,27.646 50,27.2836 50,26.9512 Z"
     fill-opacity="0.8"
     fill-rule="nonzero"
     id="path2-3"
     style="fill:#233143;fill-opacity:1;stroke-width:1.20402" />
</svg>
