<?xml version="1.0" encoding="UTF-8" standalone="no"?>
<svg
   width="62"
   height="62"
   version="1.1"
   id="svg5"
   sodipodi:docname="desktop-environment-tde.svg"
   inkscape:version="1.4 (unknown)"
   xmlns:inkscape="http://www.inkscape.org/namespaces/inkscape"
   xmlns:sodipodi="http://sodipodi.sourceforge.net/DTD/sodipodi-0.dtd"
   xmlns="http://www.w3.org/2000/svg"
   xmlns:svg="http://www.w3.org/2000/svg">
  <defs
     id="defs5">
    <linearGradient
       id="paint1_linear_54_1200"
       x1="16"
       y1="26"
       x2="16"
       y2="6"
       gradientUnits="userSpaceOnUse"
       gradientTransform="matrix(3.0397983,0,0,3.0420943,35.820936,133.83376)">
      <stop
         stop-color="#5570FF"
         id="stop3" />
      <stop
         offset="1"
         stop-color="#4DD3FF"
         id="stop4" />
    </linearGradient>
    <linearGradient
       id="b"
       x2="1"
       gradientTransform="matrix(0,53.924267,-54.848095,0,-82.617655,4.9995256)"
       gradientUnits="userSpaceOnUse">
      <stop
         stop-color="#7cb3ff"
         offset="0"
         id="stop3-3" />
      <stop
         stop-color="#003ccd"
         offset="1"
         id="stop4-6" />
    </linearGradient>
  </defs>
  <sodipodi:namedview
     id="namedview5"
     pagecolor="#ffffff"
     bordercolor="#000000"
     borderopacity="0.25"
     inkscape:showpageshadow="2"
     inkscape:pageopacity="0.0"
     inkscape:pagecheckerboard="0"
     inkscape:deskcolor="#d1d1d1"
     inkscape:zoom="11.6875"
     inkscape:cx="31.914439"
     inkscape:cy="35.893048"
     inkscape:window-width="1920"
     inkscape:window-height="996"
     inkscape:window-x="0"
     inkscape:window-y="0"
     inkscape:window-maximized="1"
     inkscape:current-layer="svg5" />
  <rect
     style="opacity:0.2;stroke-width:0.9823"
     width="55"
     height="55.017544"
     x="4"
     y="4.9824562"
     rx="8.25"
     ry="8.2526312"
     id="rect1" />
  <rect
     style="fill:#3584e4;stroke-width:0.9823;fill-opacity:1"
     width="55"
     height="55.017544"
     x="4"
     y="4"
     rx="8.25"
     ry="8.2526312"
     id="rect2" />
  <path
     style="opacity:0.12702961;fill:#ffffff;stroke-width:0.9823"
     d="M 12.248466,4 C 7.6779652,4 4,7.6791384 4,12.251097 v 0.982456 C 4,8.6615945 7.6779652,4.9824561 12.248466,4.9824561 H 50.751534 C 55.322034,4.9824561 59,8.6615945 59,13.233553 V 12.251097 C 59,7.6791384 55.322034,4 50.751534,4 Z"
     id="path4" />
  <path
     d="m 19.851015,18.446424 c -0.07625,0.0082 -0.15605,0.02637 -0.213834,0.08117 l -2.658701,2.516959 c -0.112128,0.105438 -0.12369,0.265743 -0.04151,0.394223 l 2.823997,4.417837 c -0.664684,1.028966 -1.174447,2.153459 -1.521235,3.34494 l -5.214547,1.024618 C 12.866752,30.256969 12.75,30.401914 12.75,30.555664 v 3.553582 c 0,0.150447 0.121369,0.277827 0.275124,0.312973 l 5.056138,1.164031 c 0.317887,1.34084 0.856553,2.599298 1.569774,3.747959 l -1.113188,1.605491 -0.07519,-0.02305 -1.075041,1.67907 -0.683172,0.985029 c -0.02772,0.04174 -0.02666,0.08885 -0.03473,0.13508 l -0.0084,0.0164 c -0.08211,0.127381 -0.05554,0.289913 0.0566,0.396425 l 2.641345,2.513649 c 0.1156,0.108733 0.293614,0.124091 0.430018,0.03944 l 2.511887,-1.55827 2.123487,-1.220023 c 1.1363,0.646803 2.376644,1.140958 3.694432,1.453937 l 1.07388,4.892224 c 0.03343,0.150447 0.166456,0.259161 0.329444,0.259161 h 3.955618 c 0.162982,0 0.295927,-0.108726 0.329448,-0.259161 l 1.073877,-4.892224 c 1.317764,-0.312979 2.558099,-0.807134 3.694406,-1.453937 l 2.123485,1.220023 2.511886,1.55827 c 0.136401,0.0845 0.31442,0.06913 0.430015,-0.03944 l 2.641359,-2.513649 c 0.112126,-0.106512 0.138711,-0.269044 0.0566,-0.396425 l -0.0084,-0.0164 c -0.0074,-0.04609 -0.0064,-0.09342 -0.03473,-0.13508 L 45.612803,42.59572 44.537766,40.91665 44.462576,40.9397 43.34937,39.334209 c 0.713221,-1.148661 1.251893,-2.407119 1.569783,-3.747959 l 5.056138,-1.16183 C 50.128625,34.39036 50.25,34.259693 50.25,34.109246 v -3.553582 c 0,-0.15375 -0.116749,-0.298695 -0.27512,-0.329445 l -5.214703,-1.024575 c -0.346811,-1.191481 -0.856596,-2.315981 -1.521258,-3.344943 l 2.823986,-4.41783 c 0.08212,-0.128481 0.07062,-0.288811 -0.04151,-0.394229 L 43.362542,18.52769 c -0.05775,-0.05481 -0.137555,-0.07246 -0.213856,-0.08117 v 0.0021 c -0.07625,-0.0062 -0.146801,0.0021 -0.215001,0.04506 l -4.599565,2.849677 c -0.636971,-0.345913 -1.092423,-0.649 -1.787148,-0.894976 v 4.05654 c 3.060965,1.699914 4.949791,4.823041 4.953258,8.192142 0,5.210682 -4.513996,9.500038 -10.000156,9.500038 -5.486157,0 -10.00015,-4.289356 -10.00015,-9.500038 0.0054,-3.366905 1.894605,-6.488926 4.953262,-8.187761 v -4.060918 c -0.694732,0.245976 -1.150172,0.549063 -1.787107,0.89498 l -4.599698,-2.849671 c -0.06818,-0.04277 -0.138718,-0.05171 -0.215008,-0.04506 z m 9.148224,-1.187094 h -8.749417 v -4.750558 h 22.499483 v 4.750558 h -8.749414 v 20.187169 h -5.000652 z"
     fill="#ffffff"
     fill-rule="nonzero"
     id="path3"
     style="stroke-width:1.12668" />
</svg>
