<?xml version="1.0" encoding="UTF-8" standalone="no"?>
<svg
   width="62"
   height="62"
   version="1.1"
   id="svg4"
   sodipodi:docname="desktop-environment-kde.svg"
   inkscape:version="1.4 (unknown)"
   xmlns:inkscape="http://www.inkscape.org/namespaces/inkscape"
   xmlns:sodipodi="http://sodipodi.sourceforge.net/DTD/sodipodi-0.dtd"
   xmlns="http://www.w3.org/2000/svg"
   xmlns:svg="http://www.w3.org/2000/svg">
  <defs
     id="defs4" />
  <sodipodi:namedview
     id="namedview4"
     pagecolor="#ffffff"
     bordercolor="#000000"
     borderopacity="0.25"
     inkscape:showpageshadow="2"
     inkscape:pageopacity="0.0"
     inkscape:pagecheckerboard="0"
     inkscape:deskcolor="#d1d1d1"
     inkscape:zoom="5.875"
     inkscape:cx="20.255319"
     inkscape:cy="50.12766"
     inkscape:window-width="1920"
     inkscape:window-height="996"
     inkscape:window-x="0"
     inkscape:window-y="0"
     inkscape:window-maximized="1"
     inkscape:current-layer="svg4" />
  <ellipse
     style="opacity:0.2;stroke-width:0.9823"
     cx="31"
     cy="31.491228"
     id="circle1"
     rx="27.5"
     ry="27.508772" />
  <ellipse
     style="fill:#0086ff;stroke-width:0.9823;fill-opacity:1"
     cx="31"
     cy="30.508772"
     id="circle2"
     rx="27.5"
     ry="27.508772" />
  <path
     style="opacity:0.1;fill:#ffffff;stroke-width:0.9823"
     d="M 31,3 A 27.5,27.508772 0 0 0 3.4999999,30.508772 27.5,27.508772 0 0 0 3.5211007,31.08443 27.5,27.508772 0 0 1 31,3.9824562 27.5,27.508772 0 0 1 58.4789,30.91557 27.5,27.508772 0 0 0 58.5,30.508772 27.5,27.508772 0 0 0 31,3 Z"
     id="path4" />
  <path
     d="m 33.985581,12.491228 -6.324864,0.607071 v 26.019408 l 6.25774,-0.94478 V 27.079209 L 42.336962,39.387089 48.932877,37.29517 40.310418,25.460327 49,14.299581 42.269832,12.761904 33.918457,23.921361 Z m -14.33936,6.342765 c -0.07093,0.0051 -0.148447,0.0271 -0.202646,0.08128 l -2.487352,2.482448 c -0.103263,0.104408 -0.116171,0.265514 -0.0374,0.391828 l 2.905564,4.79091 c -0.516308,0.866146 -0.934519,1.795457 -1.230107,2.780191 l -5.337416,1.105926 C 13.107126,30.500016 13,30.639263 13,30.791353 v 3.50844 c 0,0.148231 0.1123,0.275821 0.256867,0.310636 l 5.17606,1.254103 c 0.27623,1.14069 0.703474,2.232422 1.270132,3.226159 l -3.001085,4.56149 c -0.08255,0.126316 -0.06705,0.296444 0.03877,0.404712 l 2.486049,2.482468 c 0.104572,0.104396 0.265912,0.117324 0.3924,0.03872 l 4.702349,-2.848514 c 0.922898,0.53232 1.921972,0.957669 2.973963,1.242517 l 1.094583,5.262638 c 0.03239,0.14824 0.158769,0.256506 0.311087,0.256506 h 3.513515 c 0.147198,0 0.274953,-0.09925 0.311088,-0.243604 l 1.29724,-5.289733 c 1.084256,-0.291286 2.107843,-0.725653 3.053999,-1.281179 l 4.635207,3.0354 c 0.127876,0.08381 0.298177,0.06693 0.405301,-0.03736 l 2.473148,-2.483734 c 0.105843,-0.10441 0.131706,-0.264231 0.05426,-0.390552 l -1.688352,-2.780192 -0.555047,0.17529 c -0.07873,0.02709 -0.167796,-0.01032 -0.215561,-0.07993 0,0 -1.067471,-1.568611 -2.460238,-3.603832 -1.665109,3.254535 -5.061167,5.4792 -8.973545,5.4792 -5.559416,0 -10.068133,-4.503469 -10.068133,-10.053562 0,-4.083286 2.444741,-7.590436 5.946652,-9.162922 v -2.592032 c -0.637648,0.222998 -1.253348,0.491088 -1.838084,0.81074 -0.0014,-0.0014 0,-0.0114 0,-0.01497 L 19.848949,18.87319 c -0.06452,-0.04257 -0.13172,-0.04767 -0.203953,-0.03736 z"
     fill="#ffffff"
     fill-opacity="0.85"
     fill-rule="nonzero"
     id="path2-3"
     style="stroke-width:1.28989" />
</svg>
