<?xml version="1.0" encoding="UTF-8" standalone="no"?>
<svg
   width="62"
   height="62"
   version="1"
   id="svg5"
   sodipodi:docname="desktop-environment-lxde.svg"
   inkscape:version="1.4 (unknown)"
   xmlns:inkscape="http://www.inkscape.org/namespaces/inkscape"
   xmlns:sodipodi="http://sodipodi.sourceforge.net/DTD/sodipodi-0.dtd"
   xmlns="http://www.w3.org/2000/svg"
   xmlns:svg="http://www.w3.org/2000/svg">
  <defs
     id="defs5">
    <linearGradient
       id="a"
       x2="1"
       gradientTransform="matrix(0,-52.851812,52.851812,0,95.19428,56.91343)"
       gradientUnits="userSpaceOnUse">
      <stop
         stop-color="#0a80fd"
         offset="0"
         id="stop1" />
      <stop
         stop-color="#56c5fa"
         offset="1"
         id="stop2" />
    </linearGradient>
  </defs>
  <sodipodi:namedview
     id="namedview5"
     pagecolor="#ffffff"
     bordercolor="#000000"
     borderopacity="0.25"
     inkscape:showpageshadow="2"
     inkscape:pageopacity="0.0"
     inkscape:pagecheckerboard="0"
     inkscape:deskcolor="#d1d1d1"
     inkscape:zoom="11.6875"
     inkscape:cx="31.957219"
     inkscape:cy="25.197861"
     inkscape:window-width="1920"
     inkscape:window-height="996"
     inkscape:window-x="0"
     inkscape:window-y="0"
     inkscape:window-maximized="1"
     inkscape:current-layer="svg5" />
  <g
     id="g1">
    <path
       style="opacity:0.2;stroke-width:0.982303"
       d="M 58.5,31.49123 A 27.5,27.50877 0 0 1 31,59 27.5,27.50877 0 0 1 3.5,31.49123 27.5,27.50877 0 0 1 31,3.982456 27.5,27.50877 0 0 1 58.5,31.49123 Z"
       id="path1" />
    <path
       style="opacity:0.2;fill:#ffffff;stroke-width:0.982303"
       d="M 31,3 A 27.5,27.50877 0 0 0 3.5,30.50877 27.5,27.50877 0 0 0 3.5172646,30.992328 27.5,27.50877 0 0 1 31,3.982456 27.5,27.50877 0 0 1 58.475067,30.992328 27.5,27.50877 0 0 0 58.5,30.50877 27.5,27.50877 0 0 0 31,3 Z"
       id="path5" />
    <circle
       cx="30.999836"
       cy="30.79903"
       r="27.404562"
       fill="url(#a)"
       id="circle2"
       style="fill:url(#a);stroke-width:1.20391" />
    <path
       d="M 31,3.3 C 16.175796,3.3 4.1247152,15.040799 3.556794,29.7252 12.671284,23.292326 28.176993,12.73725 32.022271,12.458805 33.298007,10.842301 37.683503,9.536079 38.477208,9.563799 l -2.302174,2.895006 c 0,0 -0.03747,2.919964 -0.889291,3.486497 7.942625,5.308021 11.736657,24.358408 13.357301,35.923378 l -0.682879,0.547 C 54.367996,47.38069 58.5,39.58051 58.5,30.8 58.5,15.612877 46.18713,3.3 31,3.3 Z m -0.390613,22.59234 c -2.135961,0.0636 -6.477123,6.44799 -11.429125,13.28384 -2.378374,3.28559 -5.463154,7.78071 -7.727929,10.89585 L 9.820584,48.28936 C 14.478953,40.66244 20.277305,31.35547 19.996121,31.01206 19.936511,30.98286 19.859,30.92506 19.773094,30.93936 18.195392,31.17911 11.860959,39.07317 7.330037,44.74701 12.114453,52.84753 20.910338,58.29958 31,58.29958 c 6.125273,0 11.76158,-2.02666 16.332674,-5.41191 -3.385372,-10.34463 -9.923443,-26.88233 -16.500287,-26.92109 -0.06383,-0.0122 -0.15374,-0.073 -0.223,-0.073 z m -15.955908,2.67209 c -1.953107,-0.0147 -6.948076,1.7521 -11.096685,3.35071 0.1648361,4.09998 1.216203,7.96477 2.985072,11.41091 0.833878,-1.25887 2.277228,-3.32854 3.138825,-4.59586 3.296726,-4.84406 6.539411,-9.13264 5.788646,-10.01621 -0.132957,-0.14825 -0.430785,-0.14825 -0.815858,-0.14955 z M 3.5249327,30.30127 C 3.5207786,30.469 3.5,30.63093 3.5,30.8 c 0,0.23 0.030461,0.45286 0.036017,0.68286 z M 6.594485,43.43844 c 0.17178,0.33099 0.351847,0.65646 0.536073,0.9806 z"
       fill="#e1f2fe"
       id="path2-3"
       style="stroke-width:1.3852" />
  </g>
</svg>
