<?xml version="1.0" encoding="UTF-8" standalone="no"?>
<svg
   width="62"
   height="62"
   version="1.1"
   id="svg5"
   sodipodi:docname="desktop-profiler.svg"
   inkscape:version="1.4 (unknown)"
   xmlns:inkscape="http://www.inkscape.org/namespaces/inkscape"
   xmlns:sodipodi="http://sodipodi.sourceforge.net/DTD/sodipodi-0.dtd"
   xmlns:xlink="http://www.w3.org/1999/xlink"
   xmlns="http://www.w3.org/2000/svg"
   xmlns:svg="http://www.w3.org/2000/svg">
  <defs
     id="defs5">
    <linearGradient
       id="linearGradient1"
       inkscape:collect="always">
      <stop
         style="stop-color:#8d5fd3;stop-opacity:1;"
         offset="0"
         id="stop1" />
      <stop
         style="stop-color:#8d5fd3;stop-opacity:1;"
         offset="0.76918536"
         id="stop6" />
      <stop
         style="stop-color:#5a2ca0;stop-opacity:1;"
         offset="0.76918536"
         id="stop5" />
      <stop
         style="stop-color:#5a2ca0;stop-opacity:1;"
         offset="1"
         id="stop2" />
    </linearGradient>
    <linearGradient
       id="paint1_linear_54_1200"
       x1="16"
       y1="26"
       x2="16"
       y2="6"
       gradientUnits="userSpaceOnUse"
       gradientTransform="matrix(3.0397983,0,0,3.0420943,35.820936,133.83376)">
      <stop
         stop-color="#5570FF"
         id="stop3" />
      <stop
         offset="1"
         stop-color="#4DD3FF"
         id="stop4" />
    </linearGradient>
    <linearGradient
       id="b"
       x2="1"
       gradientTransform="matrix(0,53.924267,-54.848095,0,-82.617655,4.9995256)"
       gradientUnits="userSpaceOnUse">
      <stop
         stop-color="#7cb3ff"
         offset="0"
         id="stop3-3" />
      <stop
         stop-color="#003ccd"
         offset="1"
         id="stop4-6" />
    </linearGradient>
    <linearGradient
       inkscape:collect="always"
       xlink:href="#linearGradient1"
       id="linearGradient2"
       x1="31.5"
       y1="59.017544"
       x2="31.5"
       y2="4.9824562"
       gradientUnits="userSpaceOnUse" />
  </defs>
  <sodipodi:namedview
     id="namedview5"
     pagecolor="#ffffff"
     bordercolor="#000000"
     borderopacity="0.25"
     inkscape:showpageshadow="2"
     inkscape:pageopacity="0.0"
     inkscape:pagecheckerboard="0"
     inkscape:deskcolor="#d1d1d1"
     inkscape:zoom="5.84375"
     inkscape:cx="19.165775"
     inkscape:cy="45.946524"
     inkscape:window-width="1920"
     inkscape:window-height="996"
     inkscape:window-x="0"
     inkscape:window-y="0"
     inkscape:window-maximized="1"
     inkscape:current-layer="svg5" />
  <rect
     style="opacity:0.2;stroke-width:0.9823"
     width="55"
     height="55.017544"
     x="4"
     y="4.9824562"
     rx="8.25"
     ry="8.2526312"
     id="rect1" />
  <rect
     style="fill:url(#linearGradient2);stroke-width:0.9823;fill-opacity:1"
     width="55"
     height="55.017544"
     x="4"
     y="4"
     rx="8.25"
     ry="8.2526312"
     id="rect2" />
  <path
     style="opacity:0.12702961;fill:#ffffff;stroke-width:0.9823"
     d="M 12.248466,4 C 7.6779652,4 4,7.6791384 4,12.251097 v 0.982456 C 4,8.6615945 7.6779652,4.9824561 12.248466,4.9824561 H 50.751534 C 55.322034,4.9824561 59,8.6615945 59,13.233553 V 12.251097 C 59,7.6791384 55.322034,4 50.751534,4 Z"
     id="path4" />
  <g
     id="g1"
     transform="matrix(0.83333333,0,0,0.84210526,4.7500026,11.363106)">
    <path
       style="opacity:0.2;stroke-width:1.31571"
       d="m 27.536695,14.1464 v 5.860718 a 13.211006,13.103447 0 0 0 -4.959287,2.835676 L 17.463301,19.914993 13.5,26.722641 18.61411,29.65044 a 13.211006,13.103447 0 0 0 -0.325119,2.840785 13.211006,13.103447 0 0 0 0.330275,2.835672 L 13.5,38.259818 l 3.963301,6.807654 5.119268,-2.932926 a 13.211006,13.103447 0 0 0 4.954126,2.856141 v 5.845369 h 7.92661 v -5.860719 a 13.211006,13.103447 0 0 0 4.959284,-2.835672 l 5.11411,2.927807 L 49.5,38.259818 44.38589,35.332016 A 13.211006,13.103447 0 0 0 44.711009,32.491225 13.211006,13.103447 0 0 0 44.38073,29.655559 L 49.5,26.722641 45.536699,19.914993 40.417431,22.84791 A 13.211006,13.103447 0 0 0 35.463305,19.991768 V 14.1464 Z m 3.963302,10.482756 a 7.9266048,7.8620691 0 0 1 7.9266,7.862069 7.9266048,7.8620691 0 0 1 -7.9266,7.862075 7.9266048,7.8620691 0 0 1 -7.926604,-7.862075 7.9266048,7.8620691 0 0 1 7.926604,-7.862069 z"
       id="path4-6" />
    <path
       style="fill:#ffffff;stroke-width:1.31571"
       d="m 27.536695,12.836056 v 5.860719 a 13.211006,13.103447 0 0 0 -4.959287,2.835672 L 17.463301,18.60464 13.5,25.412294 l 5.11411,2.927802 a 13.211006,13.103447 0 0 0 -0.325119,2.840791 13.211006,13.103447 0 0 0 0.330275,2.835666 L 13.5,36.949471 l 3.963301,6.807648 5.119268,-2.932917 a 13.211006,13.103447 0 0 0 4.954126,2.856142 v 5.845368 h 7.92661 v -5.860719 a 13.211006,13.103447 0 0 0 4.959284,-2.835675 l 5.11411,2.9278 L 49.5,36.949471 44.38589,34.021672 A 13.211006,13.103447 0 0 0 44.711009,31.180887 13.211006,13.103447 0 0 0 44.38073,28.345215 L 49.5,25.412293 45.536699,18.60464 40.417431,21.537566 a 13.211006,13.103447 0 0 0 -4.954126,-2.856141 v -5.845369 z m 3.963302,10.482756 a 7.9266048,7.8620691 0 0 1 7.9266,7.862075 7.9266048,7.8620691 0 0 1 -7.9266,7.862069 7.9266048,7.8620691 0 0 1 -7.926604,-7.862069 7.9266048,7.8620691 0 0 1 7.926604,-7.862075 z"
       id="path5" />
  </g>
</svg>
