<?xml version="1.0" encoding="UTF-8" standalone="no"?>
<svg
   width="62"
   height="62"
   version="1"
   id="svg11"
   sodipodi:docname="desura.svg"
   inkscape:version="1.4 (unknown)"
   xmlns:inkscape="http://www.inkscape.org/namespaces/inkscape"
   xmlns:sodipodi="http://sodipodi.sourceforge.net/DTD/sodipodi-0.dtd"
   xmlns="http://www.w3.org/2000/svg"
   xmlns:svg="http://www.w3.org/2000/svg">
  <defs
     id="defs11" />
  <sodipodi:namedview
     id="namedview11"
     pagecolor="#ffffff"
     bordercolor="#000000"
     borderopacity="0.25"
     inkscape:showpageshadow="2"
     inkscape:pageopacity="0.0"
     inkscape:pagecheckerboard="0"
     inkscape:deskcolor="#d1d1d1"
     inkscape:zoom="5"
     inkscape:cx="11.7"
     inkscape:cy="48.7"
     inkscape:window-width="1920"
     inkscape:window-height="996"
     inkscape:window-x="0"
     inkscape:window-y="0"
     inkscape:window-maximized="1"
     inkscape:current-layer="svg11" />
  <g
     id="g11"
     transform="translate(1.2503427,2.0006888)">
    <path
       style="fill:#c83771;stroke-width:0.918839"
       d="M 28.015425,56.044262 C 26.440996,55.967139 24.140065,55.63849 22.624489,55.274945 18.310478,54.235736 14.164742,51.999402 11.612742,49.33712 L 11.307344,49.018395 11.02204,49.170301 C 10.240719,49.587091 9.126481,49.65687 8.3591334,49.339228 7.8645526,49.133587 7.2877553,48.555229 7.0057937,47.980538 6.4043496,46.755883 6.122388,44.477329 6.1218365,40.841923 L 6.1216523,39.071947 5.9309191,39.027887 C 5.412243,38.903034 4.602226,38.1686 4.3118041,37.559035 3.6903111,36.255429 3.9899293,34.441391 5.2730096,31.736877 5.6568677,30.927159 6.4771854,29.434444 7.0170134,28.564147 L 7.3032044,28.103295 7.1439229,27.789333 C 6.6202809,26.762966 7.157719,24.892011 8.4021731,23.413986 L 8.9011691,22.820937 8.2353507,22.74198 C 7.0558219,22.600599 6.2163756,22.049786 5.931839,21.232736 5.7475432,20.703947 5.8135734,19.976874 6.091121,19.482959 c 0.2988824,-0.530618 1.7478648,-1.900322 2.5777473,-2.435531 1.4307697,-0.92263 3.2203897,-1.68184 5.3392387,-2.264789 l 1.203618,-0.331232 0.02207,-2.461799 c 0.02337,-2.6242785 0.100424,-3.5085297 0.458537,-5.2671133 0.458347,-2.250649 1.493484,-4.8027792 2.162436,-5.3311989 0.521978,-0.41260021 1.363447,-0.51363886 1.946503,-0.2337308 0.493318,0.2367421 0.762666,0.5739903 1.166569,1.4613245 0.424238,0.9320789 2.617097,5.0893889 3.661261,6.9414264 l 0.653305,1.1587391 1.255221,0.304539 c 0.690368,0.167476 1.930134,0.493395 2.754868,0.724266 0.824847,0.23087 1.514281,0.419748 1.532121,0.419748 0.01788,0 0.03243,-0.173899 0.03243,-0.386419 0,-0.76093 0.434481,-1.472249 1.120587,-1.8345956 0.810607,-0.3799616 1.697642,-0.1908392 2.284369,0.092449 0.340583,0.16503 0.926816,0.521407 1.302767,0.791906 0.375914,0.270523 0.695879,0.491863 0.711034,0.491863 0.106474,0 5.263643,-5.663156 6.410249,-7.0392869 0.403259,-0.483968 0.845919,-1.0111206 0.983731,-1.1714096 0.809653,-0.9420849 2.405957,-0.7622242 2.994349,0.3373775 0.183379,0.3426826 0.484008,1.7946616 0.580783,2.8049565 0.303782,3.1718041 -0.305704,7.0011005 -1.76469,11.0870715 -0.235022,0.658179 -0.450056,1.247981 -0.477863,1.310589 -0.03921,0.08848 0.119406,0.212494 0.710452,0.55533 0.867181,0.503013 2.215224,1.390641 2.97614,1.959826 0.817832,0.611634 2.33938,2.10321 2.765535,2.710763 1.018226,1.452333 1.372009,2.988559 0.900951,3.912653 l -0.159279,0.312537 0.286267,0.461796 c 0.539721,0.870622 1.360049,2.362649 1.743909,3.171976 1.282987,2.704706 1.582607,4.519656 0.961305,5.822898 -0.290567,0.609487 -1.100448,1.343636 -1.619119,1.46775 l -0.190733,0.04566 -0.0012,1.840293 c -0.0027,3.603821 -0.282,5.843082 -0.88302,7.067561 -0.281894,0.574315 -0.858888,1.153694 -1.35297,1.358504 -0.807065,0.334553 -2.079861,0.224756 -2.783751,-0.240137 l -0.258393,-0.170671 -0.959919,0.89207 c -1.699043,1.579013 -3.316588,2.660818 -5.537881,3.703706 -2.051717,0.963296 -3.957757,1.5837 -6.165447,2.006816 -2.389586,0.457886 -4.93864,0.634376 -7.420752,0.513811 z"
       id="path1" />
    <path
       style="opacity:0.2;stroke-width:0.918839"
       d="m 29.74986,49.875083 c 0,1.481704 -1.451187,3.4518 -3.069755,3.4518 -1.618568,0 -2.448076,-2.041702 -2.448076,-3.523405 0,-1.481341 1.52071,-0.652748 3.139828,-0.652748 1.619121,0 2.378003,-0.757769 2.378003,0.723538 z"
       id="path2" />
    <ellipse
       style="opacity:0.2;stroke-width:0.918839"
       cx="29.749855"
       cy="31.294123"
       rx="12.87494"
       ry="11.016386"
       id="ellipse2" />
    <ellipse
       style="fill:#f2f2f2;stroke-width:0.918839;fill-opacity:1"
       cx="29.749855"
       cy="30.376064"
       rx="12.87494"
       ry="11.016386"
       id="ellipse3" />
    <path
       style="fill:#233143;stroke-width:0.918839;fill-opacity:1"
       d="m 29.74986,24.867879 a 3.6785547,4.5901632 0 0 0 -1.269106,0.284578 2.4523084,2.2950809 0 0 1 1.269106,2.010494 2.4523084,2.2950809 0 0 1 -2.451763,2.295086 2.4523084,2.2950809 0 0 1 -1.215751,-0.302951 3.6785547,4.5901632 0 0 0 -0.01102,0.302951 3.6785547,4.5901632 0 0 0 3.67856,4.59016 3.6785547,4.5901632 0 0 0 3.678547,-4.59016 3.6785547,4.5901632 0 0 0 -3.678547,-4.590158 z"
       id="path3" />
    <path
       style="fill:#f2f2f2;stroke-width:0.918839;fill-opacity:1"
       d="m 29.74986,48.957045 c 0,1.481704 -1.451187,3.451801 -3.069755,3.451801 -1.618568,0 -2.448076,-2.041704 -2.448076,-3.523406 0,-1.481339 1.52071,-0.652734 3.139828,-0.652734 1.619121,0 2.378003,-0.757784 2.378003,0.723538 z"
       id="path4" />
    <path
       style="fill:#791414;stroke-width:0.918839"
       d="m 25.742072,47.657122 c -3.134127,-0.0076 -6.203883,-0.738101 -8.867152,-2.113323 2.815931,2.061902 6.347344,3.191086 9.992796,3.192925 8.701617,0 15.757084,-3.262689 15.757084,-11.016393 -2.141099,7.657859 -8.870472,9.73022 -16.882728,9.935863 z"
       id="path5" />
    <path
       style="opacity:0.2;stroke-width:0.918839"
       d="m 16.87492,15.958363 0.01579,-1.897757 c 0.01693,-2.022796 0.07266,-2.704518 0.331449,-4.060092 0.331437,-1.7348927 1.079463,-3.7022368 1.563748,-4.1096601 0.377321,-0.3180061 0.98548,-0.3958917 1.407051,-0.1801817 0.356538,0.1824956 0.551208,0.4424723 0.843142,1.1264257 0.306621,0.7185255 1.89151,3.9231241 2.64617,5.3508391 l 0.47086,0.89325 c 0.926988,2.958999 -6.658008,4.475229 -7.278033,2.877123 z"
       id="path6" />
    <path
       style="fill:#f2f2f2;stroke-width:0.918839;fill-opacity:1"
       d="m 16.87492,15.040337 0.01579,-1.897753 c 0.01693,-2.022796 0.07266,-2.704533 0.331449,-4.0600975 0.331437,-1.7348984 1.079463,-3.7022423 1.563748,-4.1096651 0.377321,-0.3180067 0.98548,-0.3958924 1.407051,-0.1801825 0.356538,0.1824957 0.551208,0.442474 0.843142,1.1264257 0.306621,0.7185262 1.89151,3.9231191 2.64617,5.3508504 l 0.47086,0.893245 c 0.926988,2.959003 -6.658008,4.47596 -7.278033,2.877112 z"
       id="path7" />
    <path
       style="opacity:0.2;stroke-width:0.918839"
       d="m 42.768261,18.067089 0.568338,-1.84671 c 0.60696,-1.968823 0.768824,-2.641922 0.96194,-4.009425 0.250152,-1.750139 0.211517,-3.8074451 -0.07721,-4.2974907 -0.226248,-0.3824516 -0.724686,-0.5767086 -1.153238,-0.449285 -0.360502,0.1077764 -0.608802,0.3224135 -1.068617,0.9301505 -0.483735,0.6383997 -2.826977,3.4429852 -3.912142,4.6828822 l -0.679293,0.775796 c -1.702527,2.694606 4.337948,5.646639 5.36076,4.214139 z"
       id="path8" />
    <path
       style="fill:#f2f2f2;stroke-width:0.918839;fill-opacity:1"
       d="m 42.768261,17.149052 0.568338,-1.8469 c 0.60696,-1.968807 0.768824,-2.641908 0.96194,-4.009408 0.250152,-1.7501408 0.211517,-3.8074509 -0.07723,-4.2974965 -0.226243,-0.382453 -0.724681,-0.5767087 -1.153233,-0.449285 -0.360503,0.1077764 -0.608802,0.3224122 -1.068617,0.9301503 -0.483733,0.6383998 -2.826976,3.4429882 -3.912141,4.6828852 l -0.679292,0.775796 c -1.702528,2.694606 4.337946,5.646625 5.360758,4.214128 z"
       id="path9" />
    <path
       style="opacity:0.2;fill:#ffffff;stroke-width:0.918839"
       d="m 18.806156,1.014265 c -0.348546,0.041861 -0.68972,0.1702949 -0.950907,0.3765762 -0.668574,0.5284199 -1.704086,3.0799995 -2.162073,5.3306483 -0.35865,1.7585836 -0.436821,2.6435662 -0.459814,5.2682175 l -0.02207,2.461247 -1.20289,0.332334 c -2.118842,0.582025 -3.907541,1.341246 -5.3384053,2.263864 -0.8298826,0.536135 -2.2804282,1.904925 -2.5793114,2.435543 -0.2419573,0.430553 -0.3100106,1.031863 -0.2047118,1.531282 0.043129,-0.220333 0.1041027,-0.434234 0.2047108,-0.613246 0.2988824,-0.53063 1.7494279,-1.899419 2.5793105,-2.435542 1.4308642,-0.92263 3.2195632,-1.681839 5.3384052,-2.263876 l 1.20289,-0.332321 0.02207,-2.461248 c 0.02301,-2.624653 0.101164,-3.5096391 0.459814,-5.2682214 0.457987,-2.2506488 1.493499,-4.8022284 2.162073,-5.3306482 0.522356,-0.4126552 1.36291,-0.5129961 1.945954,-0.2330886 0.492936,0.2367602 0.763308,0.5739541 1.167025,1.4613242 0.423951,0.9320787 2.616373,5.088747 3.661087,6.940598 l 0.653855,1.158556 1.255305,0.30479 c 0.690649,0.167088 1.928492,0.4939 2.753401,0.724334 0.824922,0.231346 1.514644,0.419543 1.532121,0.419543 0.0175,0 0.03214,-0.172594 0.03214,-0.385581 0,-0.761049 0.434983,-1.471606 1.121034,-1.834236 0.810204,-0.38006 1.697655,-0.191863 2.284382,0.09188 0.34119,0.164326 0.926075,0.521437 1.302214,0.792265 0.376125,0.270815 0.696167,0.491148 0.711798,0.491148 0.105765,0 5.264021,-5.6631634 6.409887,-7.0392942 0.403715,-0.4839869 0.846985,-1.0105704 0.98493,-1.1708589 0.809291,-0.942085 2.405782,-0.7625178 2.994338,0.3371017 0.183012,0.3426096 0.48282,1.7940191 0.579383,2.8043141 0.03403,0.3486689 0.05153,0.7099146 0.0635,1.0740066 0.01199,-0.6862325 -0.002,-1.3555701 -0.06349,-1.9920421 C 47.14759,5.2432803 46.847784,3.791871 46.66477,3.4492611 46.076214,2.3496416 44.479712,2.1700752 43.670432,3.1121599 c -0.137945,0.1602875 -0.581214,0.6868714 -0.98493,1.1708581 -1.145879,1.3761316 -6.30412,7.03929 -6.409886,7.03929 -0.01559,0 -0.335672,-0.220319 -0.711798,-0.491149 -0.37614,-0.270814 -0.961025,-0.627938 -1.302215,-0.792257 -0.586727,-0.2836809 -1.474177,-0.4737067 -2.284381,-0.093615 -0.686052,0.36263 -1.121033,1.075012 -1.121033,1.836062 0,0.212987 -0.01465,0.385581 -0.03214,0.385581 -0.0175,0 -0.707198,-0.188197 -1.53212,-0.419545 -0.824924,-0.230428 -2.062767,-0.557256 -2.753417,-0.724335 L 25.283176,10.718245 24.62932,9.5596864 C 23.584601,7.7078239 21.392179,3.5511556 20.968228,2.6190783 20.564511,1.7317072 20.294139,1.3945143 19.801203,1.1577536 19.509682,1.0177537 19.154705,0.97243932 18.806156,1.014265 Z M 45.24393,18.910392 c -0.08824,0.239607 -0.227149,0.62794 -0.24094,0.660062 -0.03955,0.08809 0.118628,0.211147 0.709041,0.553581 0.867218,0.503073 2.215412,1.390812 2.976864,1.959999 0.817565,0.611406 2.33957,2.103209 2.766276,2.71095 0.588571,0.84 0.948152,1.705704 1.061262,2.466753 0.160935,-0.92263 -0.217034,-2.180333 -1.061262,-3.38479 -0.426706,-0.60774 -1.948711,-2.099543 -2.766276,-2.710949 -0.761452,-0.569187 -2.109646,-1.456912 -2.976864,-1.959999 -0.234507,-0.135865 -0.354976,-0.21757 -0.468101,-0.295607 z M 8.2192747,23.656627 C 7.2927396,24.858331 6.8227111,26.25649 6.9853038,27.253478 7.1261004,26.326257 7.6271197,25.253084 8.4024675,24.332294 l 0.4993633,-0.59305 -0.6663697,-0.07897 c -0.00588,-9.14e-4 -0.010389,-0.0037 -0.016184,-0.0037 z m -1.1513871,4.827011 -0.0503,0.07991 c -0.5398292,0.870278 -1.3601477,2.362081 -1.7440046,3.171784 -0.9795998,2.065581 -1.382125,3.609701 -1.2429844,4.8059 0.092701,-1.04563 0.4960538,-2.311605 1.2429844,-3.886023 0.3838569,-0.809703 1.2041754,-2.303346 1.7440035,-3.173642 L 7.3032238,29.020695 7.1451377,28.707647 c -0.034761,-0.06891 -0.051684,-0.149642 -0.077246,-0.224 z m 45.3676234,0.0067 c -0.02575,0.07347 -0.04508,0.149642 -0.0791,0.217582 l -0.160022,0.313048 0.286008,0.460851 c 0.539832,0.87121 1.360141,2.363011 1.743637,3.171801 0.746748,1.575346 1.150466,2.84131 1.243344,3.887864 0.138874,-1.196198 -0.263931,-2.740323 -1.243344,-4.8059 -0.383496,-0.808786 -1.203805,-2.30059 -1.743637,-3.171801 z"
       id="path10" />
    <path
       style="opacity:0.2;stroke-width:0.918839"
       d="m 47.307603,8.2435879 c -0.04773,2.7339971 -0.660148,5.8308881 -1.826676,9.0978921 -0.235023,0.658166 -0.449972,1.248061 -0.477789,1.310668 -0.0237,0.05348 0.06882,0.138684 0.240688,0.258197 0.08644,-0.236927 0.120407,-0.324051 0.237101,-0.65087 1.298621,-3.636695 1.919102,-7.068391 1.826676,-10.0157312 z M 5.886151,21.014341 c -0.075662,0.386156 -0.070669,0.800013 0.046704,1.1368 0.2831293,0.813006 1.1161651,1.361442 2.2864979,1.506115 0.061944,-0.08043 0.1172448,-0.163703 0.1832103,-0.242046 l 0.4993345,-0.593499 -0.6663794,-0.0789 C 7.0559884,22.601444 6.2173696,22.050132 5.9328331,21.23311 c -0.023613,-0.06777 -0.031224,-0.145393 -0.0467,-0.218744 z m 1.0992442,6.239769 c -0.070242,0.462253 -0.036987,0.877989 0.082629,1.229985 L 7.3033551,28.103106 7.1452697,27.789144 C 7.0644328,27.631243 7.0169794,27.447637 6.9854366,27.25301 Z m 45.5313198,0.0092 c -0.03312,0.189785 -0.07954,0.369527 -0.15986,0.527157 l -0.159862,0.313783 0.238894,0.387291 c 0.122771,-0.352089 0.149098,-0.769072 0.08087,-1.228255 z M 4.0305957,36.539815 c -0.066623,0.750977 0.022223,1.393392 0.2819993,1.938243 0.290422,0.609568 1.0997032,1.343626 1.6183792,1.468476 l 0.1903937,0.04299 0.00183,1.769679 c 5.518e-4,3.63542 0.2822739,5.915169 0.8837178,7.139824 0.2819613,0.57469 0.8582988,1.153506 1.3525126,1.359147 0.7673468,0.317643 1.8805637,0.246447 2.6618857,-0.170344 l 0.285596,-0.150609 0.305352,0.317358 c 2.552174,2.662296 6.69846,4.89926 11.012677,5.938577 1.515559,0.36353 3.815858,0.692094 5.390274,0.769207 2.482099,0.120577 5.030425,-0.05489 7.420013,-0.512801 2.207688,-0.423109 4.114562,-1.043076 6.166268,-2.006373 2.221301,-1.042874 3.83858,-2.125326 5.537608,-3.704432 l 0.959182,-0.89294 0.258649,0.172137 c 0.703889,0.464894 1.977043,0.573016 2.78402,0.238473 0.4941,-0.204809 1.070651,-0.783009 1.352513,-1.357306 0.601026,-1.22448 0.880962,-3.464292 0.88372,-7.068124 v -0.918025 c -0.0027,3.60382 -0.282694,5.843646 -0.88372,7.068113 -0.281882,0.574313 -0.858413,1.154336 -1.352513,1.359147 -0.807052,0.334552 -2.080131,0.224626 -2.78402,-0.240268 l -0.258649,-0.170344 -0.959182,0.891138 c -1.699028,1.579012 -3.316307,2.661558 -5.537608,3.704444 -2.051706,0.963296 -3.95858,1.583324 -6.166268,2.006361 -2.389588,0.457873 -4.937914,0.633377 -7.420013,0.5128 -1.574428,-0.07709 -3.874726,-0.405648 -5.390286,-0.769192 -4.313843,-1.039198 -8.46013,-3.274431 -11.012682,-5.936726 l -0.30535,-0.319161 -0.285596,0.150611 C 10.23996,49.586731 9.1267381,49.657924 8.3593918,49.340283 7.8651768,49.134641 7.2888394,48.555855 7.006878,47.981135 6.4054351,46.756481 6.1237132,44.478476 6.1231616,40.843061 L 6.121342,39.071536 5.9309492,39.028546 C 5.4129424,38.903659 4.6036601,38.169226 4.3132379,37.559659 4.1660044,37.251203 4.074316,36.910611 4.0312766,36.53972 Z m 51.4390793,0.002 c -0.04303,0.370575 -0.13502,0.710138 -0.281998,1.018467 -0.290573,0.609476 -1.099612,1.342616 -1.618388,1.466743 l -0.190386,0.04666 v 0.918037 l 0.190386,-0.04666 c 0.518702,-0.124113 1.327785,-0.857211 1.618388,-1.466741 0.259624,-0.544574 0.348536,-1.185632 0.281998,-1.936494 z"
       id="path11" />
  </g>
</svg>
