<?xml version="1.0" encoding="UTF-8" standalone="no"?>
<svg
   width="62"
   height="62"
   version="1"
   id="svg5"
   sodipodi:docname="disks.svg"
   inkscape:version="1.4 (e7c3feb100, 2024-10-09)"
   xmlns:inkscape="http://www.inkscape.org/namespaces/inkscape"
   xmlns:sodipodi="http://sodipodi.sourceforge.net/DTD/sodipodi-0.dtd"
   xmlns="http://www.w3.org/2000/svg"
   xmlns:svg="http://www.w3.org/2000/svg">
  <defs
     id="defs5" />
  <sodipodi:namedview
     id="namedview5"
     pagecolor="#ffffff"
     bordercolor="#000000"
     borderopacity="0.25"
     inkscape:showpageshadow="2"
     inkscape:pageopacity="0.0"
     inkscape:pagecheckerboard="0"
     inkscape:deskcolor="#d1d1d1"
     inkscape:zoom="5.84375"
     inkscape:cx="55.187166"
     inkscape:cy="33.540107"
     inkscape:window-width="1920"
     inkscape:window-height="994"
     inkscape:window-x="0"
     inkscape:window-y="0"
     inkscape:window-maximized="1"
     inkscape:current-layer="svg5" />
  <g
     id="g6"
     transform="translate(-1,-1)">
    <path
       style="opacity:0.2;stroke-width:0.991194"
       d="m 10,54.10526 v 1.96492 C 10,58.2473 11.784002,60 13.999997,60 H 50.000003 C 52.215998,60 54,58.2473 54,56.07018 v -1.96492 c 0,2.17713 -1.784002,3.92983 -3.999997,3.92983 H 13.999997 C 11.784002,58.03509 10,56.28239 10,54.10526 Z"
       id="path1" />
    <rect
       style="fill:#6f7c91;stroke-width:0.991194"
       width="55.017548"
       height="43.999977"
       x="-59.017548"
       y="-53.999977"
       rx="3.9298239"
       ry="3.9999995"
       transform="matrix(0,-1,-1,0,0,0)"
       id="rect1" />
    <path
       style="opacity:1;fill:#2c313a;fill-opacity:1;stroke-width:0.991194"
       d="m 32.000005,18.245615 c -7.732011,0 -14.000003,6.15803 -14.000003,13.75439 v 13.75438 h 14.000003 c 7.732001,0 13.999993,-6.15803 13.999993,-13.75438 0,-7.59636 -6.267992,-13.75439 -13.999993,-13.75439 z m 0,5.89474 a 7.9999998,7.859649 0 0 1 7.999992,7.85965 7.9999998,7.859649 0 0 1 -7.999992,7.85964 7.9999998,7.859649 0 0 1 -8.000002,-7.85964 7.9999998,7.859649 0 0 1 8.000002,-7.85965 z"
       id="path2" />
    <path
       style="opacity:0.1;fill:#ffffff;stroke-width:0.991194"
       d="M 13.999997,4 C 11.784002,4 10,5.752702 10,7.929825 V 8.912281 C 10,6.735158 11.784002,4.982456 13.999997,4.982456 H 50.000003 C 52.215998,4.982456 54,6.735158 54,8.912281 V 7.929825 C 54,5.752702 52.215998,4 50.000003,4 Z"
       id="path3" />
  </g>
</svg>
