<?xml version="1.0" encoding="UTF-8" standalone="no"?>
<svg
   width="62"
   height="62"
   preserveAspectRatio="xMidYMid"
   viewBox="0 0 62 62"
   version="1.1"
   id="svg4"
   sodipodi:docname="distributor-logo-MicroOS.svg"
   inkscape:version="1.4 (e7c3feb100, 2024-10-09)"
   xmlns:inkscape="http://www.inkscape.org/namespaces/inkscape"
   xmlns:sodipodi="http://sodipodi.sourceforge.net/DTD/sodipodi-0.dtd"
   xmlns="http://www.w3.org/2000/svg"
   xmlns:svg="http://www.w3.org/2000/svg">
  <defs
     id="defs8" />
  <sodipodi:namedview
     id="namedview6"
     pagecolor="#ffffff"
     bordercolor="#000000"
     borderopacity="0.25"
     inkscape:showpageshadow="2"
     inkscape:pageopacity="0.0"
     inkscape:pagecheckerboard="0"
     inkscape:deskcolor="#d1d1d1"
     showgrid="false"
     inkscape:zoom="5.2149125"
     inkscape:cx="26.366694"
     inkscape:cy="46.021865"
     inkscape:window-width="1920"
     inkscape:window-height="994"
     inkscape:window-x="0"
     inkscape:window-y="0"
     inkscape:window-maximized="1"
     inkscape:current-layer="svg4" />
  <g
     id="g1"
     transform="translate(60.576405,-1.9318757)">
    <rect
       style="fill:#1ba97f;fill-opacity:1;stroke-width:5.36261;stroke-linecap:round;stroke-linejoin:round"
       id="rect910-3"
       width="58.073235"
       height="58"
       x="-58.613022"
       y="3.9318757"
       rx="29.036615"
       ry="28.999998" />
    <path
       fill="#173f4f"
       d="m -29.576406,13.598543 c -10.014045,0 -18.282991,7.649653 -19.259444,17.4 h -9.777184 a 1.9359685,1.9335267 0 1 0 0,3.866666 h 9.777184 c 0.976453,9.75035 9.245399,17.400002 19.259444,17.400002 10.014051,0 18.282988,-7.649652 19.259434,-17.400002 h 9.77719618 a 1.9359685,1.9335267 0 1 0 0,-3.866666 H -10.316972 c -0.976446,-9.750347 -9.245383,-17.4 -19.259434,-17.4 z m 0,3.866666 c 8.511102,0 15.36803,6.802671 15.471069,15.277858 a 1.9359685,1.9335267 0 0 0 0,0.37004 c -0.09901,8.478779 -6.957396,15.285439 -15.471069,15.285439 -8.51111,0 -15.368024,-6.802673 -15.471074,-15.277861 a 1.9359685,1.9335267 0 0 0 0,-0.37004 c 0.09896,-8.478782 6.957399,-15.285436 15.471074,-15.285436 z m 0,7.733334 c -4.253471,0 -7.743093,3.485221 -7.743093,7.733333 0,4.248116 3.489622,7.733336 7.743093,7.733336 4.253463,0 7.743097,-3.48522 7.743097,-7.733336 0,-4.248112 -3.489634,-7.733333 -7.743097,-7.733333 z m 0,3.866668 c 2.161118,0 3.871548,1.708248 3.871548,3.866666 0,2.158417 -1.71043,3.866666 -3.871548,3.866666 -2.161125,0 -3.871548,-1.708249 -3.871548,-3.866666 0,-2.158418 1.710423,-3.866666 3.871548,-3.866666 z"
       id="path2-6-6"
       style="stroke-width:0.553219" />
  </g>
</svg>
