<?xml version="1.0" encoding="UTF-8" standalone="no"?>
<svg
   width="62"
   height="62"
   version="1"
   id="svg7"
   sodipodi:docname="distributor-logo-kali-linux.svg"
   inkscape:version="1.4 (e7c3feb100, 2024-10-09)"
   xmlns:inkscape="http://www.inkscape.org/namespaces/inkscape"
   xmlns:sodipodi="http://sodipodi.sourceforge.net/DTD/sodipodi-0.dtd"
   xmlns:xlink="http://www.w3.org/1999/xlink"
   xmlns="http://www.w3.org/2000/svg"
   xmlns:svg="http://www.w3.org/2000/svg">
  <defs
     id="defs7">
    <linearGradient
       id="linearGradient1"
       inkscape:collect="always">
      <stop
         style="stop-color:#ffffff;stop-opacity:1;"
         offset="0"
         id="stop5" />
      <stop
         style="stop-color:#ffffff;stop-opacity:1;"
         offset="1"
         id="stop6" />
    </linearGradient>
    <linearGradient
       id="c-3"
       gradientUnits="userSpaceOnUse"
       x1="24.072048"
       x2="23.959682"
       y1="0.75082099"
       y2="46.056854">
      <stop
         offset="0"
         stop-color="#fff"
         id="stop3" />
      <stop
         offset="1"
         stop-color="#d9d9d9"
         id="stop4" />
    </linearGradient>
    <linearGradient
       id="b-6"
       gradientUnits="userSpaceOnUse"
       x1="29.203026"
       x2="34.121048"
       xlink:href="#a-7"
       y1="24.827356"
       y2="29.224836" />
    <linearGradient
       id="a-7">
      <stop
         offset="0"
         id="stop1" />
      <stop
         offset="1"
         stop-opacity="0"
         id="stop2" />
    </linearGradient>
    <linearGradient
       id="d"
       gradientUnits="userSpaceOnUse"
       x1="15.948756"
       x2="25.031786"
       xlink:href="#a-7"
       y1="23.618279"
       y2="33.69899" />
    <linearGradient
       id="e"
       gradientUnits="userSpaceOnUse"
       x1="21.990562"
       x2="29.320522"
       xlink:href="#a-7"
       y1="33.780373"
       y2="41.931858" />
    <linearGradient
       id="paint154_linear_890_11"
       x1="778"
       y1="812.29199"
       x2="788"
       y2="812.29199"
       gradientUnits="userSpaceOnUse"
       gradientTransform="translate(-751,-696)">
      <stop
         stop-color="#EFF2F6"
         id="stop1050" />
      <stop
         offset="0.600785"
         stop-color="#B7C6CD"
         id="stop1051" />
    </linearGradient>
    <linearGradient
       id="paint155_linear_890_11"
       x1="783"
       y1="813"
       x2="783"
       y2="817"
       gradientUnits="userSpaceOnUse"
       gradientTransform="translate(-751,-696)">
      <stop
         stop-color="#EFF2F6"
         id="stop1052" />
      <stop
         offset="0.734138"
         stop-color="#B7C6CD"
         id="stop1053" />
    </linearGradient>
    <radialGradient
       id="paint156_radial_890_11"
       cx="0"
       cy="0"
       r="1"
       gradientUnits="userSpaceOnUse"
       gradientTransform="matrix(27.999986,27.999976,-27.999986,27.999976,32.302392,33.999998)">
      <stop
         offset="0.60067803"
         stop-color="#B7C6CD"
         id="stop1054"
         style="stop-color:#384850;stop-opacity:1;" />
      <stop
         offset="0.876735"
         stop-color="#EFF2F6"
         id="stop1055" />
    </radialGradient>
    <linearGradient
       id="paint157_linear_890_11"
       x1="796.84485"
       y1="799.43359"
       x2="768.90088"
       y2="770.81476"
       gradientUnits="userSpaceOnUse"
       gradientTransform="matrix(1.1666666,0,0,1.1666668,-881.19764,-881.8333)">
      <stop
         offset="0.00000057"
         stop-color="#2E2E41"
         id="stop1056"
         style="stop-color:#424b58;stop-opacity:1;" />
      <stop
         offset="0.71113902"
         stop-color="#566C80"
         id="stop1057"
         style="stop-color:#303c47;stop-opacity:1;" />
    </linearGradient>
    <linearGradient
       id="paint158_linear_890_11"
       x1="792"
       y1="794"
       x2="774"
       y2="776"
       gradientUnits="userSpaceOnUse"
       gradientTransform="translate(-751,-696)">
      <stop
         offset="0.304478"
         stop-color="#2E2E41"
         id="stop1058" />
      <stop
         offset="1"
         stop-color="#566C80"
         id="stop1059" />
    </linearGradient>
    <linearGradient
       id="paint159_linear_890_11"
       x1="788"
       y1="790"
       x2="778"
       y2="780"
       gradientUnits="userSpaceOnUse"
       gradientTransform="translate(-751,-696)">
      <stop
         offset="0.391394"
         stop-color="#5200FF"
         id="stop1060" />
      <stop
         offset="1"
         stop-color="#0085FF"
         id="stop1061" />
    </linearGradient>
    <linearGradient
       id="paint160_linear_890_11"
       x1="784"
       y1="798"
       x2="782"
       y2="796"
       gradientUnits="userSpaceOnUse"
       gradientTransform="translate(-751,-696)">
      <stop
         stop-color="#FF7E07"
         id="stop1062" />
      <stop
         offset="1"
         stop-color="#FFE607"
         id="stop1063" />
    </linearGradient>
    <linearGradient
       id="c-3-6"
       gradientUnits="userSpaceOnUse"
       x1="24.072048"
       x2="23.959682"
       y1="0.75082099"
       y2="46.056854"
       gradientTransform="matrix(0.91471346,0,0,0.90068147,9.0468769,9.3836444)">
      <stop
         offset="0"
         stop-color="#fff"
         id="stop3-2" />
      <stop
         offset="1"
         stop-color="#d9d9d9"
         id="stop4-9" />
    </linearGradient>
    <linearGradient
       id="b-6-1"
       gradientUnits="userSpaceOnUse"
       x1="29.203026"
       x2="34.121048"
       xlink:href="#a-7"
       y1="24.827356"
       y2="29.224836"
       gradientTransform="matrix(1.1104534,0,0,1.0934187,4.3491158,4.7861435)" />
    <linearGradient
       id="d-0"
       gradientUnits="userSpaceOnUse"
       x1="15.948756"
       x2="25.031786"
       xlink:href="#a-7"
       y1="23.618279"
       y2="33.69899"
       gradientTransform="matrix(1.1104534,0,0,1.0934187,4.3491158,4.7861435)" />
    <linearGradient
       id="e-9"
       gradientUnits="userSpaceOnUse"
       x1="21.990562"
       x2="29.320522"
       xlink:href="#a-7"
       y1="33.780373"
       y2="41.931858"
       gradientTransform="matrix(1.1104534,0,0,1.0934187,4.3491158,4.7861435)" />
    <linearGradient
       inkscape:collect="always"
       xlink:href="#linearGradient1"
       id="linearGradient6"
       x1="9"
       y1="30.972663"
       x2="50.992756"
       y2="30.972663"
       gradientUnits="userSpaceOnUse" />
  </defs>
  <sodipodi:namedview
     id="namedview7"
     pagecolor="#ffffff"
     bordercolor="#000000"
     borderopacity="0.25"
     inkscape:showpageshadow="2"
     inkscape:pageopacity="0.0"
     inkscape:pagecheckerboard="0"
     inkscape:deskcolor="#d1d1d1"
     inkscape:zoom="8.3306018"
     inkscape:cx="35.111509"
     inkscape:cy="40.573299"
     inkscape:window-width="1920"
     inkscape:window-height="994"
     inkscape:window-x="0"
     inkscape:window-y="0"
     inkscape:window-maximized="1"
     inkscape:current-layer="svg7" />
  <g
     id="g1"
     transform="translate(-1.3023872,-3)">
    <path
       d="m 60.302387,34 c 0,15.46415 -12.535828,28 -28.000002,28 C 16.838222,62 4.3023873,49.46415 4.3023873,34 4.3023873,18.535835 16.838222,6 32.302385,6 47.766559,6 60.302387,18.535835 60.302387,34 Z"
       id="path154"
       style="fill:url(#paint156_radial_890_11);stroke-width:1.16667" />
    <path
       d="m 55.63572,34 c 0,12.88701 -10.446332,23.33332 -23.333335,23.33332 C 19.415386,57.33332 8.9690543,46.88701 8.9690543,34 c 0,-12.886994 10.4463317,-23.333332 23.3333307,-23.333332 12.887003,0 23.333335,10.446338 23.333335,23.333332 z"
       id="path155"
       style="fill:url(#paint157_linear_890_11);stroke-width:1.16667" />
  </g>
  <path
     style="fill:#cfd7dc;fill-opacity:1;fill-rule:nonzero;stroke:url(#linearGradient6);stroke-width:1.362;stroke-dasharray:none"
     d="M 10.191096,16.002574 C 9.792812,16.006374 9.394527,16.021364 9,16.070204 c 4.377376,0.0789 8.762267,0.435859 13.045708,1.356423 0.830386,0.108965 1.630714,0.36071 2.434798,0.563611 0.39077,0.09394 0.755238,0.266776 1.146008,0.364468 0.646274,0.165325 1.281275,0.383255 1.920034,0.571125 0.394528,0.172841 0.819115,0.247988 1.206127,0.428344 0.582398,0.244232 1.153523,0.522279 1.717134,0.807842 0.07514,0.04885 0.18787,0.07139 0.210415,0.172841 0.146538,0.616214 0.225443,1.247458 0.402042,1.856157 0.338167,1.134737 0.762753,2.254443 1.371453,3.280215 -0.646274,0.308107 -1.202369,0.770268 -1.687075,1.288789 -0.69512,0.762754 -1.236186,1.683318 -1.469145,2.694059 -0.281805,1.033287 -0.221687,2.446071 0.02255,3.479357 0.263018,0.928079 0.736451,1.600654 1.378968,2.322076 1.288789,1.465385 3.295243,2.318325 5.249094,2.092875 2.355893,-0.19163 4.809477,0.18787 6.879808,1.37145 1.085889,0.62749 2.11166,1.39776 2.885686,2.39347 1.055831,1.19861 1.848643,2.70533 2.453585,4.17448 0.08642,0.22168 0.169083,0.45088 0.28932,0.65754 0,-0.27429 -0.101449,-0.53355 -0.195385,-0.78905 -0.281805,-0.75148 -0.597427,-1.58563 -0.995712,-2.28451 -0.469678,-0.83789 -0.984442,-1.66077 -1.634474,-2.37091 -0.950623,-1.14226 -2.107904,-2.11918 -3.43051,-2.79927 1.006984,0.13151 1.991424,0.42459 2.949562,0.75899 1.025771,0.36447 2.010212,0.85293 2.896959,1.49169 0.871718,0.7064 1.641986,1.55557 2.209354,2.53249 0.293078,0.46968 0.480948,1.09341 0.736452,1.58563 -0.225445,-1.13849 -0.79657,-2.28075 -1.510478,-3.18628 -0.420829,-0.54858 -0.958137,-0.9882 -1.484174,-1.42781 -1.217399,-0.95814 -2.630183,-1.63823 -4.091813,-2.1267 -2.686544,-0.88298 -5.527142,-1.22115 -8.345196,-1.22115 -0.683847,0.007 -1.367695,-0.0864 -2.010212,-0.323139 -1.47666,-0.533551 -2.645213,-1.645743 -3.009681,-3.175007 -0.465918,-1.660772 0.05261,-3.862611 1.273761,-5.072496 0.991955,-1.014498 2.438555,-1.593139 3.862612,-1.454116 1.465388,0.105208 2.863141,0.619973 4.230838,1.119707 1.123463,0.439617 2.250684,0.871718 3.332817,1.401512 0.03006,0.311865 0.05636,0.635001 0.169083,0.928079 0.154054,0.30435 0.484706,0.450889 0.777783,0.586155 0.559854,0.251747 1.089647,0.473433 1.566837,0.864203 0.353197,0.281806 0.646275,0.631244 0.980683,0.935593 0.112722,-0.180355 0.131509,-0.225443 0.165326,-0.289319 0.01879,-0.01503 0.0038,0.0038 0.0263,-0.02255 0.255505,-0.266776 0.635003,-0.31938 0.958139,-0.480948 -0.841659,-0.210415 -1.668288,-0.514764 -2.220626,-1.206127 -0.08642,-0.105208 0.278048,-0.0075 0.2029,-0.176598 -0.05261,-0.142782 -0.10145,-0.225444 -0.172841,-0.349439 -0.308107,-0.450889 -0.619972,-0.898019 -0.894262,-1.367695 -0.315622,-0.0075 -0.635001,-0.01127 -0.950623,-0.01878 -0.402043,-0.469676 -0.841659,-0.89802 -1.251217,-1.36018 0.03382,0.251746 0.08267,0.50725 0.08267,0.762753 -0.274291,-0.154053 -0.544824,-0.319379 -0.789055,-0.518521 -0.263019,-0.240474 -0.511007,-0.503493 -0.770268,-0.747724 0.03382,0.184113 0.06763,0.371983 0.09769,0.559854 -0.533552,-0.21793 -1.040801,-0.541066 -1.416543,-0.984441 -0.0075,0.108965 -0.01127,0.217929 -0.01502,0.330652 -0.338167,-0.131509 -0.665062,-0.27429 -0.999471,-0.4058 -0.845415,-0.315622 -1.67956,-0.68009 -2.573821,-0.841658 -0.980684,-0.04885 -2.021485,0.08266 -2.949563,-0.319379 -0.642516,-0.24799 -1.168553,-0.755238 -1.472902,-1.367696 -0.563611,-1.044559 -0.484706,-2.28826 -0.323138,-3.422995 -0.713907,-0.473433 -1.484175,-0.849174 -2.280744,-1.168553 -0.368226,-0.13151 -0.717665,-0.323137 -1.104677,-0.409557 -1.397754,-0.462161 -2.829326,-0.815357 -4.275927,-1.08589 -0.631244,-0.139025 -1.273759,-0.2029 -1.901246,-0.341924 -0.601185,-0.11648 -1.213642,-0.176598 -1.818584,-0.251746 -2.889444,-0.330652 -5.801432,-0.454646 -8.705906,-0.432101 -0.398285,0.0038 -0.79657,-0.0038 -1.194855,0 z m 20.271198,4.553973 c -5.301698,-0.04509 -10.618426,0.195386 -15.856247,1.044559 -1.371452,0.229202 -2.75042,0.439616 -4.091813,0.811599 4.48634,-0.631243 9.006498,-1.059587 13.537928,-1.15728 2.209354,-0.01503 4.418707,0.05261 6.61679,0.27429 -0.07139,-0.323136 -0.146539,-0.646273 -0.206658,-0.973168 z m 0.345681,1.435329 c -2.983378,0.278048 -5.90664,0.988198 -8.747237,1.927548 -1.961365,0.672576 -3.885156,1.457873 -5.741314,2.385953 -0.657547,0.330651 -1.326364,0.653787 -1.950094,1.048316 0.706392,-0.304351 1.39024,-0.646274 2.104147,-0.928079 4.640395,-1.908762 9.558837,-3.246398 14.586245,-3.501902 -0.09394,-0.308106 -0.187871,-0.619971 -0.251747,-0.931836 z m 5.910397,0.976925 c 0.526037,0.236717 1.082133,0.4058 1.604412,0.653788 1.596897,0.695121 3.129918,1.566839 4.478827,2.675272 0.488462,0.405801 0.943108,0.849174 1.337636,1.345152 0.105207,0.116479 0.27429,0.0263 0.409557,0.04885 -0.150297,-0.278047 -0.424587,-0.454645 -0.638759,-0.676332 -1.074618,-1.059588 -2.314561,-1.950093 -3.652197,-2.64897 -1.127221,-0.586155 -2.303289,-1.097162 -3.539476,-1.397755 z m 0,0"
     id="path3658-7" />
</svg>
