<?xml version="1.0" encoding="UTF-8" standalone="no"?>
<svg
   width="62"
   height="62"
   version="1.1"
   id="svg5"
   sodipodi:docname="distributor-logo-ubuntu.svg"
   inkscape:version="1.4 (e7c3feb100, 2024-10-09)"
   xmlns:inkscape="http://www.inkscape.org/namespaces/inkscape"
   xmlns:sodipodi="http://sodipodi.sourceforge.net/DTD/sodipodi-0.dtd"
   xmlns="http://www.w3.org/2000/svg"
   xmlns:svg="http://www.w3.org/2000/svg">
  <defs
     id="defs5" />
  <sodipodi:namedview
     id="namedview5"
     pagecolor="#ffffff"
     bordercolor="#000000"
     borderopacity="0.25"
     inkscape:showpageshadow="2"
     inkscape:pageopacity="0.0"
     inkscape:pagecheckerboard="0"
     inkscape:deskcolor="#d1d1d1"
     inkscape:zoom="11.6875"
     inkscape:cx="31.957219"
     inkscape:cy="32"
     inkscape:window-width="1920"
     inkscape:window-height="994"
     inkscape:window-x="0"
     inkscape:window-y="0"
     inkscape:window-maximized="1"
     inkscape:current-layer="svg5" />
  <g
     id="g5"
     transform="translate(-0.5,-1)">
    <path
       style="opacity:0.2;stroke-width:0.982303"
       d="M 58.958753,31.33979 A 27.5,27.50877 0 0 1 31.5,58.03509 27.5,27.50877 0 0 1 4.0432142,31.67775 27.5,27.50877 0 0 0 4,32.49123 27.5,27.50877 0 0 0 31.5,60 27.5,27.50877 0 0 0 59,32.49123 27.5,27.50877 0 0 0 58.958753,31.33979 Z"
       id="path1" />
    <path
       style="fill:#f56e2c;stroke-width:0.982303"
       d="M 59,31.50877 A 27.5,27.50877 0 0 1 31.5,59.01754 27.5,27.50877 0 0 1 4,31.50877 27.5,27.50877 0 0 1 31.5,4 27.5,27.50877 0 0 1 59,31.50877 Z"
       id="path2" />
    <path
       style="opacity:0.2;stroke-width:0.982303"
       d="M 47.076792,30.52632 A 15.714289,15.7193 0 0 0 41.390186,20.31074 c -0.638396,0.23775 -1.31608,0.39101 -2.033042,0.39101 -2.471072,0 -4.596424,-1.56014 -5.466606,-3.73785 A 15.714289,15.7193 0 0 0 31.5,16.77193 a 15.714289,15.7193 0 0 0 -6.097146,1.232 l 2.988667,5.18088 a 9.8214289,9.824561 0 0 1 3.107499,-0.51873 9.8214289,9.824561 0 0 1 9.614194,7.85965 h 5.961999 z m -0.004,3.92982 h -5.950413 a 9.8214289,9.824561 0 0 1 -9.621861,7.85965 9.8214289,9.824561 0 0 1 -3.107499,-0.51426 l -2.980999,5.16556 a 15.714289,15.7193 0 0 0 6.087318,1.24379 15.714289,15.7193 0 0 0 2.398395,-0.20632 c 0.872142,-2.16926 2.993576,-3.7235 5.458749,-3.7235 0.719151,0 1.401364,0.15076 2.04109,0.39145 a 15.714289,15.7193 0 0 0 5.67489,-10.21558 z M 43.285721,14.80702 a 3.9285721,3.929825 0 0 0 -3.928577,-3.92983 3.9285721,3.929825 0 0 0 -3.928567,3.92983 3.9285721,3.929825 0 0 0 3.928567,3.92982 3.9285721,3.929825 0 0 0 3.928577,-3.92982 z m 0,35.36842 a 3.9285721,3.929825 0 0 0 -3.928577,-3.92983 3.9285721,3.929825 0 0 0 -3.928567,3.92983 3.9285721,3.929825 0 0 0 3.928567,3.92982 3.9285721,3.929825 0 0 0 3.928577,-3.92982 z M 24.994285,25.15032 22.012506,19.98456 a 15.714289,15.7193 0 0 0 -5.731792,8.66919 c 0.901512,1.03675 1.469381,2.37028 1.469381,3.83767 0,1.46559 -0.566139,2.79765 -1.465533,3.83394 a 15.714289,15.7193 0 0 0 5.724125,8.68098 l 2.985718,-5.16968 a 9.8214289,9.824561 0 0 1 -3.315713,-7.34484 9.8214289,9.824561 0 0 1 3.315713,-7.34091 z m -9.208574,7.34091 a 3.9285721,3.929825 0 0 0 -3.928567,-3.92983 3.9285721,3.929825 0 0 0 -3.9285719,3.92983 3.9285721,3.929825 0 0 0 3.9285719,3.92982 3.9285721,3.929825 0 0 0 3.928567,-3.92982 z"
       id="path3" />
    <path
       style="fill:#ffffff;stroke-width:0.982303"
       d="M 47.076792,29.54386 A 15.714289,15.7193 0 0 0 41.390186,19.32789 c -0.638396,0.23893 -1.31608,0.39141 -2.033042,0.39141 -2.471072,0 -4.596424,-1.56112 -5.466606,-3.73785 A 15.714289,15.7193 0 0 0 31.5,15.78947 a 15.714289,15.7193 0 0 0 -6.097146,1.232 l 2.988667,5.18089 a 9.8214289,9.824561 0 0 1 3.107499,-0.51874 9.8214289,9.824561 0 0 1 9.614194,7.85965 h 5.961999 z m -0.004,3.92982 h -5.950413 a 9.8214289,9.824561 0 0 1 -9.621861,7.85965 9.8214289,9.824561 0 0 1 -3.107499,-0.51425 l -2.980999,5.16555 a 15.714289,15.7193 0 0 0 6.087318,1.24379 15.714289,15.7193 0 0 0 2.398395,-0.20631 c 0.872142,-2.16927 2.993576,-3.72351 5.458749,-3.72351 0.719151,0 1.401364,0.15077 2.04109,0.39145 a 15.714289,15.7193 0 0 0 5.67489,-10.21558 z M 43.285721,13.82456 a 3.9285721,3.929825 0 0 0 -3.928577,-3.929823 3.9285721,3.929825 0 0 0 -3.928567,3.929823 3.9285721,3.929825 0 0 0 3.928567,3.92983 3.9285721,3.929825 0 0 0 3.928577,-3.92983 z m 0,35.36842 a 3.9285721,3.929825 0 0 0 -3.928577,-3.92982 3.9285721,3.929825 0 0 0 -3.928567,3.92982 3.9285721,3.929825 0 0 0 3.928567,3.92983 3.9285721,3.929825 0 0 0 3.928577,-3.92983 z M 24.994285,24.16786 22.012506,19.00171 a 15.714289,15.7193 0 0 0 -5.731792,8.66959 c 0.901512,1.03674 1.469381,2.37027 1.469381,3.83767 0,1.46559 -0.566139,2.79764 -1.465533,3.83394 a 15.714289,15.7193 0 0 0 5.724125,8.68098 l 2.985718,-5.16969 a 9.8214289,9.824561 0 0 1 -3.315713,-7.34484 9.8214289,9.824561 0 0 1 3.315713,-7.34091 z m -9.208574,7.34091 a 3.9285721,3.929825 0 0 0 -3.928567,-3.92982 3.9285721,3.929825 0 0 0 -3.9285719,3.92982 3.9285721,3.929825 0 0 0 3.9285719,3.92983 3.9285721,3.929825 0 0 0 3.928567,-3.92983 z"
       id="path4" />
    <path
       style="opacity:0.2;fill:#ffffff;stroke-width:0.982303"
       d="M 31.498088,4 A 27.5,27.50877 0 0 0 4,31.50877 27.5,27.50877 0 0 0 4.0172646,31.992328 27.5,27.50877 0 0 1 31.498088,4.982456 h 0.0019 A 27.5,27.50877 0 0 1 58.973145,31.988491 27.5,27.50877 0 0 0 58.998088,31.50877 27.5,27.50877 0 0 0 31.5,4 Z"
       id="path5" />
  </g>
</svg>
