<?xml version="1.0" encoding="UTF-8" standalone="no"?>
<svg
   width="62"
   height="62"
   version="1.1"
   id="svg4"
   sodipodi:docname="distributor-logo-linux-mint.svg"
   inkscape:version="1.4 (e7c3feb100, 2024-10-09)"
   xmlns:inkscape="http://www.inkscape.org/namespaces/inkscape"
   xmlns:sodipodi="http://sodipodi.sourceforge.net/DTD/sodipodi-0.dtd"
   xmlns="http://www.w3.org/2000/svg"
   xmlns:svg="http://www.w3.org/2000/svg">
  <defs
     id="defs4" />
  <sodipodi:namedview
     id="namedview4"
     pagecolor="#ffffff"
     bordercolor="#000000"
     borderopacity="0.25"
     inkscape:showpageshadow="2"
     inkscape:pageopacity="0.0"
     inkscape:pagecheckerboard="0"
     inkscape:deskcolor="#d1d1d1"
     inkscape:zoom="11.75"
     inkscape:cx="32"
     inkscape:cy="27.574468"
     inkscape:window-width="1920"
     inkscape:window-height="998"
     inkscape:window-x="0"
     inkscape:window-y="0"
     inkscape:window-maximized="1"
     inkscape:current-layer="svg4" />
  <g
     id="g4"
     transform="translate(-0.5,-1)">
    <ellipse
       style="opacity:0.2;stroke-width:0.9823"
       cx="31.5"
       cy="32.491226"
       id="circle1"
       rx="27.5"
       ry="27.508774" />
    <ellipse
       style="fill:#86be43;stroke-width:0.9823"
       cx="31.5"
       cy="31.508774"
       id="circle2"
       rx="27.5"
       ry="27.508774" />
    <path
       style="opacity:0.2;stroke-width:0.9823"
       d="m 13.821323,15.789472 v 23.298793 c 0,5.551059 4.552202,10.104715 10.101491,10.104715 h 15.154157 c 5.4548,0 9.950106,-4.402398 10.101489,-9.824562 V 26.712021 c 2.82e-4,-0.03838 2.82e-4,-0.07675 0,-0.115124 0,-4.340765 -3.517762,-7.85965 -7.857139,-7.85965 -0.03964,-2.99e-4 -0.07929,-2.99e-4 -0.118939,0 -1.744644,0.02745 -3.430521,0.635043 -4.791778,1.726967 -1.393192,-1.117089 -3.125195,-1.726191 -4.910713,-1.726974 -0.03964,-3e-4 -0.07928,-3e-4 -0.118932,0 -4.292863,0.06501 -7.738701,3.564926 -7.738211,7.859649 v 12.771529 h 5.892858 v -4.183112 -8.588417 c 0,-1.085192 0.87944,-1.964913 1.964285,-1.964913 1.084847,0 1.964288,0.879721 1.964288,1.964913 v 8.592254 4.179275 h 5.892853 v -4.183112 -8.473285 c 2.83e-4,-0.03838 2.83e-4,-0.07675 0,-0.115124 0,-1.085192 0.879441,-1.964913 1.964289,-1.964913 1.084845,0 1.964284,0.879721 1.964284,1.964913 v 8.592246 3.196818 c 0,2.94737 -1.964284,4.912283 -5.190778,4.912283 H 24.709296 c -3.030832,0 -4.995118,-1.964913 -4.995118,-4.912283 V 15.789472 Z"
       id="path2" />
    <path
       style="fill:#ffffff;stroke-width:0.9823"
       d="M 13.821323,14.807017 V 38.10581 c 0,5.551057 4.552202,10.104715 10.101491,10.104715 h 15.154157 c 5.4548,0 9.950106,-4.4024 10.101489,-9.824564 V 25.729564 c 2.82e-4,-0.03838 2.82e-4,-0.07675 0,-0.115123 0,-4.340765 -3.517762,-7.859649 -7.857139,-7.859649 -0.03964,-2.99e-4 -0.07929,-2.99e-4 -0.118939,0 -1.744644,0.02745 -3.430521,0.635043 -4.791778,1.726965 -1.393192,-1.117088 -3.125195,-1.72619 -4.910713,-1.726973 -0.03964,-2.99e-4 -0.07928,-2.99e-4 -0.118932,0 -4.292863,0.06501 -7.738701,3.564924 -7.738211,7.859649 v 12.771528 h 5.892858 v -4.183112 -8.588416 c 0,-1.085192 0.87944,-1.964912 1.964285,-1.964912 1.084847,0 1.964288,0.87972 1.964288,1.964912 v 8.592253 4.179275 h 5.892853 v -4.183112 -8.473285 c 2.83e-4,-0.03838 2.83e-4,-0.07675 0,-0.115123 0,-1.085191 0.879441,-1.964912 1.964289,-1.964912 1.084845,0 1.964284,0.879721 1.964284,1.964912 v 8.592245 3.196821 c 0,2.94737 -1.964284,4.912281 -5.190778,4.912281 H 24.709296 c -3.030832,0 -4.995118,-1.964911 -4.995118,-4.912281 v -22.59649 z"
       id="path3" />
    <path
       style="opacity:0.2;fill:#ffffff;stroke-width:0.9823"
       d="M 31.499996,4 A 27.499996,27.50877 0 0 0 4,31.50877 27.499996,27.50877 0 0 0 4.0057548,31.990404 27.499996,27.50877 0 0 1 31.499996,4.9824561 27.499996,27.50877 0 0 1 58.99424,31.988487 27.499996,27.50877 0 0 0 58.999993,31.50877 27.499996,27.50877 0 0 0 31.499996,4 Z"
       id="path4" />
  </g>
</svg>
