<?xml version="1.0" encoding="UTF-8" standalone="no"?>
<svg
   width="62"
   height="62"
   version="1"
   id="svg8"
   sodipodi:docname="distributor-logo-puppy-linux.svg"
   inkscape:version="1.4 (e7c3feb100, 2024-10-09)"
   xmlns:inkscape="http://www.inkscape.org/namespaces/inkscape"
   xmlns:sodipodi="http://sodipodi.sourceforge.net/DTD/sodipodi-0.dtd"
   xmlns="http://www.w3.org/2000/svg"
   xmlns:svg="http://www.w3.org/2000/svg">
  <defs
     id="defs8" />
  <sodipodi:namedview
     id="namedview8"
     pagecolor="#ffffff"
     bordercolor="#000000"
     borderopacity="0.25"
     inkscape:showpageshadow="2"
     inkscape:pageopacity="0.0"
     inkscape:pagecheckerboard="0"
     inkscape:deskcolor="#d1d1d1"
     inkscape:zoom="11.75"
     inkscape:cx="32"
     inkscape:cy="32"
     inkscape:window-width="1920"
     inkscape:window-height="998"
     inkscape:window-x="0"
     inkscape:window-y="0"
     inkscape:window-maximized="1"
     inkscape:current-layer="svg8" />
  <g
     id="g8"
     transform="translate(-0.5,-1)">
    <ellipse
       style="opacity:0.2;stroke-width:0.982302"
       cx="31.5"
       cy="32.491226"
       id="circle1"
       rx="27.5"
       ry="27.508774" />
    <ellipse
       style="fill:#cccccc;stroke-width:0.982302"
       cx="31.5"
       cy="31.508774"
       id="circle2"
       rx="27.5"
       ry="27.508774" />
    <path
       style="opacity:0.1;fill-rule:evenodd;stroke-width:0.982302"
       d="m 48.19642,20.701748 c -2.711495,0 -4.910713,2.199916 -4.910713,4.912286 0,2.712304 2.199218,4.91228 4.910713,4.91228 2.71149,0 4.910712,-2.199976 4.910712,-4.91228 0,-2.712348 -2.199222,-4.912286 -4.910712,-4.912286 z M 17.75,22.666666 c -5.422931,0 -9.8214293,4.399366 -9.8214293,9.824558 0,5.425196 4.3984983,9.82456 9.8214293,9.82456 5.422923,0 9.821425,-4.399364 9.821425,-9.82456 0,-5.425192 -4.398502,-9.824558 -9.821425,-9.824558 z m 1.964283,5.894731 c 2.168642,2.2e-5 3.928568,1.760563 3.928568,3.929827 0,2.169279 -1.759926,3.929821 -3.928568,3.929821 -2.168643,0 -3.928574,-1.760542 -3.928574,-3.929821 0,-2.169264 1.759931,-3.929827 3.928574,-3.929827 z m 24.488346,3.929827 c -0.12222,0 -0.236487,0.02336 -0.345289,0.0614 L 30.003761,36.48245 c -0.02719,0.0068 -0.05044,0.01432 -0.0767,0.02304 h -0.004 l -0.0078,0.004 h -0.004 c -0.399457,0.137687 -0.686734,0.507851 -0.686734,0.944085 0,0.415067 0.260032,0.772686 0.629186,0.924888 0.0024,0.0011 0.0054,-0.0011 0.0078,0 l 8.524686,4.682014 v 0.03456 c 0,1.439613 -0.655477,2.745818 -1.718748,3.695722 -1.083363,0.967891 -2.587814,1.565789 -4.254669,1.565789 -1.051351,0 -2.060706,-0.234899 -2.938756,-0.671603 -0.857921,-0.426714 -1.596748,-1.04557 -2.13693,-1.8114 -0.0074,-0.0116 -0.01509,-0.02334 -0.02303,-0.03456 -0.167887,-0.241316 -0.453264,-0.399128 -0.774969,-0.399128 -0.515039,0 -0.93227,0.404564 -0.93227,0.905704 0,0.201434 0.06995,0.386669 0.184153,0.537283 0.715319,1.019633 1.69739,1.842277 2.839006,2.410085 1.145114,0.569387 2.443656,0.882582 3.782966,0.882582 2.147614,0 4.096156,-0.783501 5.51304,-2.049346 1.029598,-0.91981 1.780049,-2.092427 2.121587,-3.40789 1.390461,1.121102 3.221241,1.796053 5.217628,1.796053 2.147608,0 4.1,-0.779687 5.516884,-2.045508 1.437097,-1.283809 2.324916,-3.063088 2.324916,-5.031246 0,-0.0833 -0.002,-0.185058 -0.0078,-0.295507 1.04e-4,-0.0058 0,-0.0096 0,-0.0153 0,-0.50114 -0.417228,-0.909538 -0.932268,-0.90954 -0.515043,0 -0.93227,0.4084 -0.93227,0.90954 0,0.0082 -1.99e-4,0.0151 0,0.02304 4.4e-4,0.01411 0.0028,0.02822 0.004,0.04218 0.003,0.06648 0.004,0.146289 0.004,0.245617 0,1.439614 -0.659311,2.74582 -1.722586,3.695722 -1.083391,0.967896 -2.587789,1.565789 -4.254674,1.565789 -1.599906,0 -3.052789,-0.552582 -4.128066,-1.458335 -0.221767,-0.186801 -0.426563,-0.387336 -0.61384,-0.602522 l 4.569265,-8.642542 c 0.08837,-0.14788 0.141961,-0.319401 0.141961,-0.502739 -2.08e-4,-0.553443 -0.463456,-1.001664 -1.032221,-1.001664 z"
       id="path2" />
    <path
       style="opacity:0.2;fill:#ffffff;stroke-width:0.982302"
       d="M 31.499992,4 A 27.499992,27.508766 0 0 0 4,31.508766 27.499992,27.508766 0 0 0 4.0172646,31.992322 27.499992,27.508766 0 0 1 31.499992,4.9824558 27.499992,27.508766 0 0 1 58.975049,31.992322 27.499992,27.508766 0 0 0 58.999984,31.508766 27.499992,27.508766 0 0 0 31.499992,4 Z"
       id="path3" />
    <path
       style="opacity:0.2;fill-rule:evenodd;stroke-width:0.982302"
       d="M 16.729493,6.9477056 C 15.128329,6.9401561 13.662746,7.1895058 12.401925,7.5463902 9.8975815,8.2552673 8.2647732,9.3337161 7.9822815,9.69935 7.9407807,9.753492 7.8885114,9.8012361 7.8288214,9.841346 6.9745902,10.418421 6.5302471,12.30245 6.3287523,14.565578 6.0845647,17.308193 5.829173,19.604495 6.0448515,21.89946 c 7.085e-4,0.0074 0.00306,0.0157 0.0038,0.02304 0.00676,0.104492 0.018914,0.236977 0.026855,0.349229 1.1278732,-1.252631 2.5214784,-1.909071 3.652343,-2.809212 3.7714075,-3.001923 6.6573685,-2.321373 9.7255235,-1.354712 1.968902,0.62029 3.688869,1.164661 4.914549,0.283987 0.69942,-0.502609 1.046387,-1.25196 1.11642,-2.129931 0.06674,-0.836457 -0.104537,-1.396894 -0.460382,-2.375548 C 24.658765,12.881909 24.0984,11.854852 23.408809,10.889047 21.738899,8.5502625 20.115905,7.1751154 17.857418,6.9937595 17.474319,6.9630023 17.098982,6.9494121 16.72949,6.9477062 Z m 30.177861,0 c -0.188253,-4.486e-4 -0.374843,0.00266 -0.560124,0.0038 -1.380121,0.00906 -2.670863,0.065568 -3.752094,0.1573463 h -0.0116 c -0.160468,0.021832 -0.332335,0.050693 -0.498744,0.072918 5.257016,1.8466057 6.026129,6.2039321 8.17557,9.8782851 1.390392,2.25529 1.433384,3.881955 3.157434,3.615134 0.781368,-0.12092 1.422108,-0.505512 1.933593,-1.059213 0.752155,-0.814216 1.235693,-1.997783 1.484727,-3.292761 0.255935,-1.330857 0.257357,-2.764981 0.04215,-4.044957 C 56.643357,10.879348 56.161143,9.692557 55.478088,9.092991 54.184358,8.2174123 52.387707,7.3191493 49.186235,7.0935391 47.839194,6.9985967 48.225093,6.9509906 46.907354,6.9477056 Z"
       id="path4" />
    <path
       style="fill:#e4e4e4;fill-rule:evenodd;stroke-width:0.982302"
       d="m 46.906474,5.9649788 c -0.18826,-4.485e-4 -0.374986,0.00137 -0.560266,0.00262 -1.380121,0.00906 -2.669063,0.06538 -3.75029,0.1571614 l -0.0108,0.00262 c -0.160462,0.021832 -0.3322,0.04993 -0.49861,0.072148 5.257016,1.8466054 6.025643,6.2021138 8.175083,9.8764738 1.390394,2.25529 1.430563,3.881541 3.154613,3.614718 0.781368,-0.120914 1.423975,-0.502635 1.935454,-1.056336 0.752162,-0.814215 1.236069,-2.000268 1.48511,-3.29524 0.255934,-1.330864 0.258037,-2.765014 0.04285,-4.044982 C 56.644594,9.8951259 56.160797,8.7091759 55.477733,8.1096087 54.184011,7.2340301 52.38888,6.3348693 49.187402,6.109259 47.840368,6.0143158 48.224213,5.9682632 46.906474,5.9649788 Z"
       id="path5" />
    <path
       id="path2488_4"
       style="fill:#e4e4e4;fill-rule:evenodd;stroke-width:0.982302"
       d="M 16.729636,5.9650869 C 15.12847,5.9575558 13.663744,6.2051533 12.402922,6.5620376 9.8985819,7.2709154 8.2643648,8.3510637 7.981873,8.7166978 7.9403734,8.770836 7.8885875,8.8174992 7.828896,8.8576092 6.9746646,9.4346817 6.5312109,11.318854 6.3297167,13.581975 c -0.2441876,2.742621 -0.4999831,5.039331 -0.2843046,7.334289 7.085e-4,0.0074 0.00186,0.0157 0.0026,0.02306 0.00676,0.104497 0.020104,0.238749 0.028045,0.350994 1.1278733,-1.252632 2.5214954,-1.911519 3.6523604,-2.81166 3.7714015,-3.00192 6.6587255,-2.318581 9.7268785,-1.351925 1.968901,0.620296 3.687451,1.162497 4.913124,0.281822 0.699419,-0.502607 1.046705,-1.251068 1.116731,-2.129037 0.06674,-0.836455 -0.105636,-1.396989 -0.461474,-2.37565 C 24.65843,11.899471 24.099311,10.872104 23.409727,9.9062991 21.739806,7.5675177 20.11763,6.1925629 17.859142,6.0112075 17.476044,5.9804514 17.099155,5.9667962 16.729655,5.9650912 Z" />
    <path
       style="fill:#3f3f3f;fill-rule:evenodd;stroke-width:0.982302"
       d="m 48.196485,19.719297 c -2.711494,0 -4.910778,2.199915 -4.910778,4.912285 0,2.712303 2.199284,4.912273 4.910778,4.912273 2.711491,0 4.910757,-2.19997 4.910757,-4.912273 0,-2.712348 -2.199266,-4.912285 -4.910757,-4.912285 z"
       id="path6" />
    <path
       style="fill:#3f3f3f;fill-rule:evenodd;stroke-width:0.982302"
       d="m 17.75,21.684207 c -5.422931,0 -9.8214293,4.399367 -9.8214293,9.824559 0,5.425195 4.3984983,9.824558 9.8214293,9.824558 5.422923,0 9.821425,-4.399363 9.821425,-9.824558 0,-5.425192 -4.398502,-9.824559 -9.821425,-9.824559 z m 1.964283,5.894738 c 2.168642,2.2e-5 3.928568,1.760564 3.928568,3.929821 0,2.169278 -1.759926,3.929827 -3.928568,3.929827 -2.168643,0 -3.928574,-1.760549 -3.928574,-3.929827 0,-2.169257 1.759931,-3.929821 3.928574,-3.929821 z"
       id="path7" />
    <path
       id="path2488_5"
       style="fill:#3f3f3f;fill-rule:evenodd;stroke-width:0.982302"
       d="m 44.2035,31.508808 c -0.12222,0 -0.239109,0.02246 -0.347905,0.0605 l -13.850063,3.929807 c -0.02719,0.0068 -0.05342,0.01393 -0.07972,0.02268 l -0.004,0.0019 -0.008,0.0019 -0.002,0.0019 c -0.399458,0.13768 -0.686101,0.507449 -0.686101,0.943683 0,0.415072 0.258633,0.770682 0.627788,0.922883 0.0024,0.0011 0.0056,8.46e-4 0.008,0.0019 l 8.52461,4.680583 v 0.03598 c 0,1.439612 -0.656809,2.747289 -1.720083,3.697193 -1.083368,0.967891 -2.587677,1.56587 -4.254531,1.56587 -1.051349,0 -2.058736,-0.238425 -2.936781,-0.675134 -0.857922,-0.426714 -1.597772,-1.043988 -2.137954,-1.809826 -0.0074,-0.0116 -0.01549,-0.02284 -0.02333,-0.03406 -0.167847,-0.241164 -0.451795,-0.400764 -0.773499,-0.400764 -0.51504,0 -0.932936,0.406602 -0.932936,0.907742 0,0.201436 0.06852,0.386468 0.182713,0.537082 0.715321,1.019633 1.697978,1.841518 2.839597,2.409326 1.144932,0.569482 2.442873,0.883171 3.78219,0.883171 2.147613,0 4.099043,-0.784169 5.515926,-2.050008 1.029596,-0.919818 1.776984,-2.092381 2.118521,-3.407844 1.390463,1.121101 3.224096,1.798487 5.220486,1.798487 2.147611,0 4.09904,-0.782304 5.515923,-2.048124 1.437098,-1.28381 2.324599,-3.062292 2.324599,-5.030451 0,-0.0833 -0.0022,-0.184562 -0.008,-0.295012 1.08e-4,-0.0058 0,-0.0112 0,-0.0171 0,-0.50114 -0.417903,-0.907744 -0.932942,-0.907744 -0.515043,0 -0.932917,0.406604 -0.932917,0.907744 0,0.0082 -2.04e-4,0.0167 0,0.0246 4.38e-4,0.01414 0.0028,0.02762 0.004,0.04165 0.003,0.06648 0.004,0.146525 0.004,0.245841 0,1.439614 -0.656811,2.74729 -1.720084,3.697192 -1.083385,0.967895 -2.587649,1.565869 -4.254535,1.565869 -1.599907,0 -3.054852,-0.552325 -4.130129,-1.458074 C 40.91458,42.073345 40.70943,41.872055 40.52216,41.656871 l 4.571342,-8.64253 c 0.08837,-0.14788 0.139936,-0.319717 0.139936,-0.503054 0,-0.55342 -0.461336,-1.002307 -1.030101,-1.002307 v 0 z" />
    <path
       style="opacity:0.2;fill:#ffffff;fill-rule:evenodd;stroke-width:0.982302"
       d="M 16.729493,5.9649118 C 15.128329,5.957392 13.662746,6.2067113 12.401925,6.5635959 9.8975805,7.2724735 8.2647729,8.3509224 7.9822814,8.7165563 c -0.0415,0.054139 -0.093769,0.1018854 -0.1534601,0.1419954 -0.8542312,0.5770717 -1.2985742,2.4611043 -1.500069,4.7242323 -0.1863484,2.092987 -0.3539285,3.920767 -0.3356935,5.691338 0.038778,-1.468985 0.1835938,-3.00056 0.3356935,-4.708883 0.2014947,-2.263124 0.6458378,-4.147161 1.500069,-4.7242315 0.059691,-0.040109 0.1119603,-0.087855 0.1534601,-0.1419953 0.2824915,-0.365634 1.9153001,-1.4440829 4.4196436,-2.15296 1.26082,-0.3568844 2.726404,-0.6062098 4.327568,-0.5986846 0.369492,0.00174 0.744829,0.015299 1.127928,0.046055 2.258487,0.1813559 3.881482,1.5565027 5.551404,3.8952844 0.689591,0.965805 1.249955,1.992861 1.615164,2.997253 0.227541,0.625791 0.368973,1.081312 0.431606,1.546607 0.007,-0.05252 0.02453,-0.09991 0.02879,-0.15351 C 25.551123,14.4426 25.379843,13.882161 25.023999,12.903508 24.658784,11.89911 24.09842,10.872053 23.408829,9.9062494 21.738906,7.5674679 20.115911,6.1923204 17.857424,6.0109651 17.474325,5.980208 17.098988,5.9666173 16.729496,5.9649123 Z m 30.177861,0 c -0.188253,-4.486e-4 -0.374843,0.00267 -0.560124,0.00381 -1.380121,0.00906 -2.670866,0.065568 -3.752095,0.1573463 h -0.01152 c -0.160466,0.021832 -0.332333,0.050698 -0.498743,0.072919 0.6724,0.2361924 1.266643,0.5162164 1.803152,0.828947 0.772211,-0.040738 1.584627,-0.070987 2.459194,-0.076755 0.185281,-0.00124 0.371871,-0.00426 0.560124,-0.00381 1.317739,0.00324 0.93184,0.050889 2.278881,0.1458334 3.201473,0.22561 4.998123,1.1238732 6.291853,1.9994518 0.683056,0.5995664 1.165349,1.7863577 1.400316,3.1853047 0.05525,0.328772 0.08465,0.669489 0.103585,1.01316 0.01776,-0.681114 0.0038,-1.357324 -0.103585,-1.995619 C 56.643437,9.8965561 56.161143,8.7097634 55.478088,8.1101969 54.184358,7.2346184 52.387708,6.3363552 49.186235,6.1107452 47.839194,6.0158026 48.225093,5.9681967 46.907354,5.9649118 Z"
       id="path8" />
  </g>
</svg>
