<?xml version="1.0" encoding="UTF-8" standalone="no"?>
<svg
   width="62"
   height="62"
   version="1"
   id="svg11"
   sodipodi:docname="distributor-logo-solus.svg"
   inkscape:version="1.4 (e7c3feb100, 2024-10-09)"
   xmlns:inkscape="http://www.inkscape.org/namespaces/inkscape"
   xmlns:sodipodi="http://sodipodi.sourceforge.net/DTD/sodipodi-0.dtd"
   xmlns="http://www.w3.org/2000/svg"
   xmlns:svg="http://www.w3.org/2000/svg">
  <defs
     id="defs11" />
  <sodipodi:namedview
     id="namedview11"
     pagecolor="#ffffff"
     bordercolor="#000000"
     borderopacity="0.25"
     inkscape:showpageshadow="2"
     inkscape:pageopacity="0.0"
     inkscape:pagecheckerboard="0"
     inkscape:deskcolor="#d1d1d1"
     inkscape:zoom="11.75"
     inkscape:cx="32"
     inkscape:cy="32"
     inkscape:window-width="1920"
     inkscape:window-height="998"
     inkscape:window-x="0"
     inkscape:window-y="0"
     inkscape:window-maximized="1"
     inkscape:current-layer="svg11" />
  <g
     id="g11"
     transform="translate(-1,0.2500131)">
    <path
       style="opacity:0.2;stroke-width:0.969957"
       d="M 21.393939,3.2202118 C 20.972331,4.5981201 20.51877,5.9642081 20.056816,7.3284558 A 27.151505,27.16594 0 0 0 4,32.084034 27.151505,27.16594 0 0 0 5.2083336,40.004907 C 4.9457919,40.476744 4.689262,40.952195 4.4242421,41.422329 L 4,42.271263 4.6553025,42.60856 c 0.4399747,0.204384 1.0315388,0.359109 1.723486,0.511645 A 27.151505,27.16594 0 0 0 31.151509,59.249987 27.151505,27.16594 0 0 0 57.715905,37.655181 c 0.757166,-1.023068 1.368256,-2.057674 1.859858,-3.024345 L 60,33.78191 59.151517,32.932968 c -0.266363,-0.280654 -0.556237,-0.54566 -0.852273,-0.807251 a 27.151505,27.16594 0 0 0 0.0039,-0.04173 A 27.151505,27.16594 0 0 0 31.151515,4.9180797 27.151505,27.16594 0 0 0 23.636371,5.9906201 C 22.586768,4.452344 21.732948,3.3213538 21.393939,3.2202118 Z"
       id="path1" />
    <path
       style="fill:#4c5263;stroke-width:0.969957"
       d="m 58.303031,31.113832 c 0,2.486218 -0.33381,4.89443 -0.959041,7.182214 -3.147749,11.518091 -13.576379,11.42303 -26.086843,11.423031 -9.257036,0 -17.537703,3.925628 -22.4388452,-3.151467 -3.0381633,-4.38702 -4.818298,-9.712404 -4.818298,-15.453778 0,-15.003349 12.1561442,-27.1659539 27.1515052,-27.1659538 14.995377,0 27.151522,12.1626048 27.151522,27.1659538 z"
       id="path2" />
    <path
       style="fill:#4c5263;fill-rule:evenodd;stroke-width:0.969957"
       d="M 21.393941,2.2499924 C 17.308159,15.603243 11.268416,28.31099 4.4242409,40.452129 L 4,41.301053 4.6539984,41.63826 c 0.5741393,0.266694 1.3299802,0.446025 2.353219,0.650793 1.0232421,0.204762 2.2819396,0.408849 3.6963776,0.61102 2.828875,0.404309 6.278022,0.799522 9.624177,1.147375 6.692291,0.695668 12.974194,1.202951 12.974194,1.202951 l 1.068878,0.08623 -0.08208,-1.070292 c 0,0 -1.657484,-21.575659 -1.967092,-25.120698 l -0.01667,-0.19151 -0.09286,-0.169126 C 30.250757,15.650749 22.631245,2.6191301 21.393947,2.2499868 Z m 0.848489,3.8202122 c 2.89673,5.0986514 5.399228,7.9894894 8.484842,13.5829734 0.307881,3.564728 1.520051,21.969963 1.6508,23.670517 C 31.462745,43.248822 26.6305,42.859917 20.516689,42.224399 17.183656,41.877905 13.750652,41.48455 10.962949,41.086102 9.5690932,40.886909 8.3359693,40.685622 7.3668297,40.491679 6.888663,40.396004 6.8781563,40.117808 6.5454536,40.027651 11.544152,31.190842 19.484351,17.332311 22.24243,6.0702046 Z"
       id="path3" />
    <path
       style="fill:#4c5263;fill-rule:evenodd;stroke-width:0.969957"
       d="m 35.818185,22.199985 -0.436435,1.9099 c 4.263036,2.853035 8.325678,5.344006 10.964018,7.992772 2.638327,2.648775 3.874661,5.255437 2.871916,8.905518 l -0.467325,1.703685 1.661339,-0.598545 c 5.190805,-1.868666 7.657235,-5.489751 9.164063,-8.45269 L 60,32.811687 59.151517,31.962745 C 56.621706,29.297212 52.714105,27.530446 48.180281,25.922173 43.646451,24.313882 38.708542,22.897338 35.818185,22.199985 Z m 5.063791,3.374817 c 2.109937,0.580169 4.408486,1.267196 6.685964,2.07509 4.132396,1.465876 8.044755,3.350726 10.255563,5.387918 -1.264121,2.33241 -3.192009,5.022567 -6.517757,6.694499 0.356573,-3.489933 -1.180376,-6.431112 -3.662401,-8.922952 -1.832084,-1.839329 -4.224581,-3.533723 -6.761369,-5.234555 z"
       id="path4" />
    <ellipse
       style="fill:#500000;fill-opacity:0;stroke-width:0.969957"
       cx="31.183512"
       cy="31.081793"
       id="circle4"
       rx="27.183512"
       ry="27.197964" />
    <path
       style="fill:#5294e2;stroke-width:0.969957"
       d="m 56.552406,40.040456 c -5.482026,3.890669 -11.956612,6.251729 -18.5763,7.268918 -9.226316,1.302615 -18.624217,0.979164 -27.882992,0.27061 -0.06791,0.160545 -0.1122097,0.31744 -0.1617391,0.474857 A 27.151505,27.16594 0 0 0 30.88339,58.265828 c 0.234315,-7.57e-4 0.47243,0.0026 0.702646,-0.0028 a 27.151505,27.16594 0 0 0 0.784838,-0.02645 c 0.371706,-0.01707 0.732671,-0.04253 1.089757,-0.07161 a 27.151505,27.16594 0 0 0 2.007176,-0.244061 c 0.127473,-0.02118 0.268195,-0.03515 0.392418,-0.05841 a 27.151505,27.16594 0 0 0 20.806188,-17.56205 c -0.04049,-0.08673 -0.0696,-0.173056 -0.114009,-0.259986 z"
       id="path5" />
    <path
       style="opacity:0.2;fill-rule:evenodd;stroke-width:0.969957"
       d="M 22.24243,7.0428477 C 19.484229,18.304878 11.544074,32.163597 6.5454544,41.000286 l 4.4166636,1.061166 c 2.787716,0.398445 6.223792,0.790511 9.556822,1.136968 6.113388,0.635521 10.989358,1.122692 11.905298,1.197609 C 32.293411,42.694382 31.03521,24.191412 30.727272,20.625828 27.641658,15.032343 25.13916,12.14149 22.24243,7.0428477 Z M 32.848491,21.474754 c 4.089064,8.427989 4.092764,16.766107 1.696965,22.921275 3.373476,0.02035 8.878414,0.398875 14.848483,-2.546801 C 44.487026,30.639159 32.848489,21.474754 32.848491,21.474754 Z m 8.060605,5.093619 c 2.537514,1.701272 4.955322,3.253826 6.787878,5.093618 2.481837,2.491674 3.750215,5.848675 3.393931,9.338295 3.325357,-1.671768 5.523746,-4.459264 6.787883,-6.791485 -2.21091,-2.037027 -6.04971,-4.052309 -10.181814,-5.518082 -2.278443,-0.808225 -4.677252,-1.542022 -6.787878,-2.122346 z m 16.647728,11.710771 c -4.173351,4.75915 -11.53451,7.375802 -19.806822,8.568952 -9.082111,1.30991 -19.8592,0.93243 -29.2840927,0.144013 A 27.151505,27.16594 0 0 0 9.863635,48.94769 c 9.083364,0.706449 19.325337,0.988754 28.151515,-0.284236 7.038044,-1.015114 13.786279,-3.030999 18.390155,-6.677799 a 27.151505,27.16594 0 0 0 1.151519,-3.706509 z"
       id="path6" />
    <path
       style="fill:#ffffff;fill-rule:evenodd;stroke-width:0.969957"
       d="m 32.848489,20.502119 c 4.089064,8.42799 4.092764,16.766105 1.696965,22.921282 3.373476,0.02032 8.878414,0.398867 14.848483,-2.546809 C 44.487024,29.666538 32.848487,20.502119 32.848489,20.502119 Z"
       id="path7" />
    <path
       style="fill:#ffffff;fill-rule:evenodd;stroke-width:0.969957"
       d="M 22.24243,6.0702046 C 19.484229,17.332236 11.544073,31.190961 6.5454536,40.027651 l 4.4183194,1.059309 c 2.787715,0.398446 6.220717,0.791803 9.553738,1.138253 6.113394,0.635511 10.990787,1.123264 11.906727,1.198188 C 32.293411,41.721746 31.03521,23.218778 30.727272,19.653178 27.641658,14.059694 25.13916,11.168856 22.24243,6.0702046 Z"
       id="path8" />
    <path
       style="fill:#ffffff;fill-rule:evenodd;stroke-width:0.969957"
       d="m 40.909096,25.595731 c 2.537514,1.701282 4.955324,3.253818 6.78788,5.09361 2.481837,2.491674 3.750213,5.848697 3.393929,9.33831 3.325357,-1.671769 5.523746,-4.459259 6.787883,-6.791497 -2.21091,-2.037027 -6.049708,-4.052297 -10.181812,-5.518086 -2.278443,-0.808225 -4.677254,-1.542019 -6.78788,-2.122337 z"
       id="path9" />
    <path
       style="fill:#ffffff;fill-rule:evenodd;stroke-width:0.969957"
       d="m 57.556824,37.306502 c -4.173351,4.759159 -11.53451,7.375803 -19.806822,8.568952 -9.082111,1.309919 -19.8592,0.93243 -29.2840927,0.144013 a 27.151505,27.16594 0 0 0 1.3977257,1.955588 c 9.083364,0.706441 19.325335,0.988755 28.151515,-0.284243 7.038044,-1.015114 13.786279,-3.030983 18.390155,-6.677783 a 27.151505,27.16594 0 0 0 1.151519,-3.706527 z"
       id="path10" />
    <path
       style="opacity:0.1;fill:#ffffff;stroke-width:0.969957"
       d="M 21.393939,2.25 C 20.97266,3.6268579 20.518395,4.9931292 20.056816,6.3563482 A 27.151505,27.16594 0 0 0 4,31.113828 27.151505,27.16594 0 0 0 4.0170458,31.43217 27.151505,27.16594 0 0 1 20.056816,7.3265605 c 0.461579,-1.3632198 0.915844,-2.7294896 1.337123,-4.1063487 0.341401,0.101855 1.18975,1.2125247 2.250007,2.7685169 a 27.151505,27.16594 0 0 1 7.507563,-1.070645 27.151505,27.16594 0 0 1 27.151526,27.1659503 27.151505,27.16594 0 0 1 -0.002,0.04174 c 0.295701,0.261311 0.584377,0.526927 0.850428,0.807249 l 0.524624,0.524899 0.323859,-0.646172 -0.848483,-0.848942 C 58.885426,31.682476 58.59675,31.41686 58.301096,31.155555 a 27.151505,27.16594 0 0 0 0.0019,-0.04174 A 27.151505,27.16594 0 0 0 31.151509,3.9478714 27.151505,27.16594 0 0 0 23.643946,5.0185158 C 22.583689,3.4625236 21.73534,2.3518538 21.393939,2.25 Z M 5.0359847,39.341682 C 4.832394,39.712083 4.6315982,40.08428 4.4242421,40.452123 L 4,41.301049 l 0.3863635,0.19897 0.037877,-0.07763 C 4.689026,40.952639 4.9441266,40.476347 5.2064372,40.00493 A 27.151505,27.16594 0 0 1 5.0359837,39.34169 Z"
       id="path11" />
  </g>
</svg>
