<?xml version="1.0" encoding="UTF-8" standalone="no"?>
<svg
   width="62"
   height="62"
   version="1.1"
   id="svg6"
   sodipodi:docname="distributor-logo-pclinuxos.svg"
   inkscape:version="1.4 (e7c3feb100, 2024-10-09)"
   xmlns:inkscape="http://www.inkscape.org/namespaces/inkscape"
   xmlns:sodipodi="http://sodipodi.sourceforge.net/DTD/sodipodi-0.dtd"
   xmlns="http://www.w3.org/2000/svg"
   xmlns:svg="http://www.w3.org/2000/svg">
  <defs
     id="defs6" />
  <sodipodi:namedview
     id="namedview6"
     pagecolor="#ffffff"
     bordercolor="#000000"
     borderopacity="0.25"
     inkscape:showpageshadow="2"
     inkscape:pageopacity="0.0"
     inkscape:pagecheckerboard="0"
     inkscape:deskcolor="#d1d1d1"
     inkscape:zoom="11.6875"
     inkscape:cx="31.957219"
     inkscape:cy="32"
     inkscape:window-width="1920"
     inkscape:window-height="994"
     inkscape:window-x="0"
     inkscape:window-y="0"
     inkscape:window-maximized="1"
     inkscape:current-layer="svg6" />
  <g
     id="g6"
     transform="translate(-0.5,-1)">
    <ellipse
       cx="31.499998"
       cy="32.491234"
       style="opacity:0.2;stroke-width:0.982303"
       id="circle1"
       rx="27.499998"
       ry="27.508766" />
    <ellipse
       cx="31.499998"
       cy="31.508766"
       style="fill:#238adb;stroke-width:0.982303"
       id="circle2"
       rx="27.499998"
       ry="27.508766" />
    <ellipse
       cx="31.499998"
       cy="32.491234"
       style="opacity:0.1;stroke-width:0.982303"
       id="circle3"
       rx="21.60714"
       ry="21.614029" />
    <ellipse
       cx="31.499998"
       cy="31.508766"
       style="fill:#2c313a;stroke-width:0.982303;fill-opacity:1"
       id="circle4"
       rx="21.60714"
       ry="21.614029" />
    <path
       d="m 46.445067,21.771385 c 0,-0.02981 -0.161974,0.07282 -0.355832,0.228344 -0.492705,0.395276 -1.000332,0.553949 -2.45056,0.765624 -1.350921,0.197182 -2.001875,0.421334 -2.175291,0.745479 -0.05975,0.111726 -0.272141,0.345065 -0.469973,0.523849 -0.197835,0.178783 -0.38361,0.434023 -0.416262,0.564144 -0.0816,0.325407 0.201959,0.91838 0.738526,1.537967 0.599815,0.692647 0.899659,1.308522 0.899661,1.853617 0,0.389044 -0.04329,0.48201 -0.362551,0.785772 -0.54745,0.520944 -1.233894,0.707504 -2.55127,0.698468 -1.920631,-0.01324 -3.719454,-0.513082 -7.271119,-2.028236 -2.91054,-1.241646 -4.179935,-1.552013 -5.465089,-1.316336 -0.689723,0.126486 -1.740115,0.63617 -2.282714,1.101426 -0.860062,0.737468 -2.456925,3.076166 -3.464354,5.084018 l -0.664673,1.336486 -0.516972,-0.537283 c -0.844314,-0.877815 -1.107787,-1.226723 -1.107787,-1.470806 0,-0.151408 -0.05448,-0.235062 -0.154417,-0.235062 -0.127036,0 -0.145177,0.07708 -0.107428,0.470123 0.04959,0.516459 0.418795,1.138445 1.188352,1.994652 l 0.416265,0.463405 -0.342412,1.094708 c -0.188384,0.604106 -0.394307,1.391185 -0.456539,1.746167 -0.109011,0.621766 -0.134887,0.675567 -0.819093,1.390212 -0.818498,0.854922 -0.930558,0.884684 -1.906739,0.517133 -0.813809,-0.306416 -2.14457,-0.62459 -2.611696,-0.62459 -0.435133,0 -0.939942,0.21919 -0.939942,0.409678 0,0.09097 0.14547,0.126126 0.537114,0.120872 0.440716,-0.0059 0.812708,0.09619 2.000731,0.543998 1.883048,0.709808 2.054432,0.7535 2.490844,0.6716 0.273135,-0.05129 0.519208,-0.219904 0.986939,-0.6716 l 0.624388,-0.604439 0.181274,0.194762 c 0.237532,0.263094 1.091073,0.69118 1.785889,0.893227 l 0.557254,0.161172 -0.429689,0.10745 c -0.585816,0.148794 -0.958229,0.440847 -1.168215,0.906662 -0.17337,0.384599 -0.17454,0.396182 0,0.52385 0.231941,0.169646 1.878488,0.173854 2.208863,0.007 0.193967,-0.09815 0.567211,-0.619974 0.684814,-0.953674 0.01652,-0.04702 0.232646,-0.0059 0.476688,0.08728 0.542546,0.207278 1.577098,0.150776 2.309568,-0.127613 0.261429,-0.09938 0.476685,-0.147419 0.476685,-0.107449 0,0.03993 -0.190338,0.257564 -0.422975,0.490273 -0.280119,0.280208 -0.422971,0.50611 -0.422971,0.66488 0,0.530739 0.01638,0.537283 1.329344,0.537283 0.887547,0 1.22584,-0.0282 1.255494,-0.114162 v -0.007 c 0.0223,-0.06464 0.05235,-0.858822 0.06714,-1.773026 0.02454,-1.512111 0.04356,-1.686147 0.221556,-1.927495 0.54447,-0.73831 3.141937,-1.782087 4.813844,-1.934211 l 0.490111,-0.04705 v 0.288784 c 0,0.159359 -0.197698,0.850288 -0.443114,1.531252 l -0.449831,1.235748 -0.496826,0.114162 c -0.5599,0.125331 -1.061319,0.503732 -1.242064,0.940238 -0.216261,0.522257 -0.12507,0.564148 1.127929,0.564148 1.323546,0 1.223782,0.05713 1.926884,-1.182019 0.38474,-0.678061 0.71502,-1.069347 1.819457,-2.169259 l 1.34949,-1.343204 0.409541,0.10745 c 0.833429,0.222986 4.080649,2.919943 4.505008,3.740814 0.151469,0.29297 0.117176,0.478691 -0.154411,0.832788 -0.219342,0.285986 -0.228993,0.637464 -0.01352,0.69175 0.371334,0.09342 1.999536,0.07745 2.182005,-0.02032 0.106399,-0.05696 0.194894,-0.194378 0.1947,-0.308922 -1.84e-4,-0.114548 -0.339864,-0.800551 -0.751951,-1.524538 -0.893442,-1.569664 -1.016062,-1.860965 -2.034332,-4.862262 -0.664997,-1.96005 -0.785519,-2.419468 -0.785519,-2.928179 0,-1.05831 0.445652,-1.889569 1.470335,-2.733416 0.294766,-0.242753 0.546517,-0.510428 0.55725,-0.597724 0.01072,-0.08727 0.06397,-0.359526 0.114125,-0.604441 0.09848,-0.480973 0.03229,-1.015798 -0.16786,-1.390212 -0.06902,-0.129182 -0.350656,-0.50813 -0.631031,-0.839403 -0.636263,-0.751781 -0.745788,-1.004387 -0.530398,-1.242462 0.09077,-0.100311 0.286001,-0.174616 0.456543,-0.174616 0.498454,0 1.252884,-0.272199 2.101443,-0.758907 0.444217,-0.254795 0.869738,-0.463404 0.953367,-0.463404 0.218762,0 0.497737,-0.337155 0.832522,-1.0074 0.16071,-0.321736 0.295418,-0.608254 0.295418,-0.638024 z"
       style="opacity:0.2;stroke-width:0.982303"
       id="path4" />
    <path
       d="m 46.445067,20.788931 c 0,-0.02981 -0.161974,0.07282 -0.355832,0.228344 -0.492705,0.395274 -1.000332,0.553949 -2.45056,0.765624 -1.350921,0.19718 -2.001875,0.421328 -2.175291,0.745475 -0.05975,0.11173 -0.272141,0.345063 -0.469973,0.523851 -0.197835,0.178785 -0.38361,0.434025 -0.416262,0.564145 -0.0816,0.325406 0.201959,0.918381 0.738526,1.537964 0.599815,0.692647 0.899659,1.308524 0.899661,1.853619 0,0.389042 -0.04329,0.482008 -0.362551,0.785774 -0.54745,0.520942 -1.233894,0.707502 -2.55127,0.698466 -1.920631,-0.01324 -3.719454,-0.51308 -7.271119,-2.028236 -2.91054,-1.241644 -4.179935,-1.552013 -5.465089,-1.316338 -0.689723,0.126486 -1.740115,0.63617 -2.282714,1.101426 -0.860062,0.737468 -2.456925,3.076168 -3.464354,5.08402 l -0.664673,1.336486 -0.516972,-0.537283 c -0.844314,-0.877815 -1.107787,-1.226723 -1.107787,-1.470804 0,-0.15141 -0.05448,-0.235064 -0.154417,-0.235064 -0.127036,0 -0.145177,0.07708 -0.107428,0.470121 0.04959,0.516461 0.418795,1.138447 1.188352,1.994654 l 0.416265,0.463405 -0.342412,1.094708 c -0.188384,0.604108 -0.394307,1.391185 -0.456539,1.746165 -0.109011,0.621768 -0.134887,0.675571 -0.819093,1.390215 -0.818498,0.854919 -0.930558,0.884685 -1.906739,0.51713 -0.813809,-0.306414 -2.14457,-0.624588 -2.611696,-0.624588 -0.435133,0 -0.939942,0.21919 -0.939942,0.409676 0,0.09097 0.14547,0.126128 0.537114,0.120874 0.440716,-0.0059 0.812708,0.09619 2.000731,0.543998 1.883048,0.709808 2.054432,0.7535 2.490844,0.6716 0.273135,-0.05129 0.519208,-0.219904 0.986939,-0.6716 l 0.624388,-0.604439 0.181274,0.194762 c 0.237532,0.263092 1.091073,0.691178 1.785889,0.893225 l 0.557254,0.161174 -0.429689,0.10745 c -0.585816,0.148796 -0.958229,0.440847 -1.168215,0.90666 -0.17337,0.384602 -0.17454,0.396182 0,0.52385 0.231941,0.169648 1.878488,0.173858 2.208863,0.007 0.193967,-0.09818 0.567211,-0.619975 0.684814,-0.953674 0.01652,-0.04702 0.232646,-0.0059 0.476688,0.08727 0.542546,0.20728 1.577098,0.150776 2.309568,-0.127612 0.261429,-0.09938 0.476685,-0.14742 0.476685,-0.10745 0,0.03993 -0.190338,0.257566 -0.422975,0.490272 -0.280119,0.28021 -0.422971,0.506111 -0.422971,0.664881 0,0.530737 0.01638,0.537282 1.329344,0.537282 0.887547,0 1.22584,-0.0282 1.255494,-0.114161 v -0.007 c 0.0223,-0.06463 0.05235,-0.858822 0.06714,-1.773025 0.02454,-1.512111 0.04356,-1.686147 0.221556,-1.927495 0.54447,-0.738311 3.141937,-1.782088 4.813844,-1.934211 l 0.490111,-0.04705 v 0.288784 c 0,0.159358 -0.197698,0.850287 -0.443114,1.53125 l -0.449831,1.235751 -0.496826,0.11416 c -0.5599,0.12533 -1.061319,0.503731 -1.242064,0.940238 -0.216261,0.522257 -0.12507,0.564147 1.127929,0.564147 1.323546,0 1.223782,0.05713 1.926884,-1.182019 0.38474,-0.67806 0.71502,-1.069344 1.819457,-2.169258 l 1.34949,-1.343204 0.409541,0.10745 c 0.833429,0.222986 4.080649,2.919942 4.505008,3.740816 0.151469,0.292966 0.117176,0.478691 -0.154411,0.832785 -0.219342,0.285989 -0.228993,0.637464 -0.01352,0.691749 0.371334,0.09342 1.999536,0.07745 2.182005,-0.02032 0.106399,-0.05696 0.194894,-0.194376 0.1947,-0.308924 -1.84e-4,-0.114545 -0.339864,-0.800548 -0.751951,-1.524534 -0.893442,-1.569665 -1.016062,-1.860966 -2.034332,-4.862264 -0.664997,-1.960049 -0.785519,-2.419467 -0.785519,-2.928179 0,-1.058309 0.445652,-1.889569 1.470335,-2.733415 0.294766,-0.242755 0.546517,-0.51043 0.55725,-0.597726 0.01072,-0.08726 0.06397,-0.359525 0.114125,-0.604439 0.09848,-0.480974 0.03229,-1.015798 -0.16786,-1.390215 -0.06902,-0.129179 -0.350656,-0.508127 -0.631031,-0.839402 -0.636263,-0.751778 -0.745788,-1.004384 -0.530398,-1.24246 0.09077,-0.10031 0.286001,-0.174615 0.456543,-0.174615 0.498454,0 1.252884,-0.272199 2.101443,-0.758908 0.444217,-0.254794 0.869738,-0.463407 0.953367,-0.463407 0.218762,0 0.497737,-0.337154 0.832522,-1.007402 0.16071,-0.321729 0.295418,-0.60825 0.295418,-0.638018 z"
       style="fill:#fcfcfd;stroke-width:0.982303"
       id="path5" />
    <path
       d="M 31.5,4 A 27.5,27.508768 0 0 0 4,31.508768 27.5,27.508768 0 0 0 4.0211007,32.084426 27.5,27.508768 0 0 1 31.5,4.982456 27.5,27.508768 0 0 1 58.978901,31.915566 27.5,27.508768 0 0 0 59,31.508768 27.5,27.508768 0 0 0 31.5,4 Z"
       style="opacity:0.2;fill:#ffffff;stroke-width:0.982303"
       id="path6" />
  </g>
</svg>
