<?xml version="1.0" encoding="UTF-8" standalone="no"?>
<svg
   width="62"
   height="62"
   version="1.1"
   id="svg5"
   sodipodi:docname="distributor-logo-rhel.svg"
   inkscape:version="1.4 (e7c3feb100, 2024-10-09)"
   xmlns:inkscape="http://www.inkscape.org/namespaces/inkscape"
   xmlns:sodipodi="http://sodipodi.sourceforge.net/DTD/sodipodi-0.dtd"
   xmlns="http://www.w3.org/2000/svg"
   xmlns:svg="http://www.w3.org/2000/svg">
  <defs
     id="defs5" />
  <sodipodi:namedview
     id="namedview5"
     pagecolor="#ffffff"
     bordercolor="#000000"
     borderopacity="0.25"
     inkscape:showpageshadow="2"
     inkscape:pageopacity="0.0"
     inkscape:pagecheckerboard="0"
     inkscape:deskcolor="#d1d1d1"
     inkscape:zoom="11.6875"
     inkscape:cx="31.957219"
     inkscape:cy="32"
     inkscape:window-width="1920"
     inkscape:window-height="994"
     inkscape:window-x="0"
     inkscape:window-y="0"
     inkscape:window-maximized="1"
     inkscape:current-layer="svg5" />
  <g
     id="g5"
     transform="matrix(1.0333333,0,0,1.0434783,-1.0333323,-1.3478273)">
    <path
       style="opacity:0.2"
       d="m 31.56463,9 c -1.815208,0 -2.354636,2.334781 -4.562322,2.334781 -2.109566,0 -3.681256,-1.751086 -5.643642,-1.7510856 -1.91333,0 -3.137465,1.2632766 -4.069604,3.8904216 0,0 -2.650189,7.394582 -2.993607,8.464903 -0.04906,0.194604 -1.226252,2.67633 -1.177202,2.870934 C 7.8688642,25.053208 1,26.025693 1,32.009742 1,41.837206 24.499542,54 43.142224,54 57.41859,54 61,47.580114 61,42.56908 61,38.531064 57.515792,34.055411 51.23615,31.330966 L 50.549006,28.409848 48.194602,18.291584 C 47.654944,16.053647 47.214604,15.031899 43.240766,13.085866 40.19907,11.529044 33.52702,9 31.56463,9 Z"
       id="path1" />
    <path
       style="fill:#e73232"
       d="m 31.56463,8 c -1.815208,0 -2.354636,2.334781 -4.562322,2.334781 -2.109566,0 -3.681256,-1.751086 -5.643642,-1.7510856 -1.91333,0 -3.137465,1.2632764 -4.069604,3.8904216 0,0 -2.650189,7.394582 -2.993607,8.464903 -0.04906,0.194604 -1.226252,2.67633 -1.177202,2.870934 C 7.8688642,24.053208 1,25.025693 1,31.009742 1,40.837206 24.499542,53 43.142224,53 57.41859,53 61,46.580114 61,41.56908 61,37.531064 57.515792,33.055411 51.23615,30.330966 L 50.549006,27.409848 48.194602,17.291584 C 47.654944,15.053647 47.214604,14.031899 43.240766,12.085866 40.19907,10.529044 33.52702,8 31.56463,8 Z"
       id="path2" />
    <path
       style="opacity:0.2;fill:#ffffff"
       d="m 31.564453,8 c -1.815208,0 -2.354814,2.333984 -4.5625,2.333984 -2.109566,0 -3.680192,-1.75 -5.642578,-1.7499996 -1.91333,0 -3.138174,1.2634798 -4.070313,3.8906246 0,0 -2.650722,7.394523 -2.99414,8.464844 -0.04906,0.194604 -1.224831,2.67649 -1.175781,2.871094 C 7.8697518,24.053801 1,25.025717 1,31.009766 c 0,0.164878 0.024014,0.331922 0.037109,0.498046 0.3858103,-5.524576 6.987361,-6.461181 12.082032,-6.697265 -0.04905,-0.194604 1.126721,-2.67649 1.175781,-2.871094 0.343418,-1.070321 2.99414,-8.464844 2.99414,-8.464844 0.932139,-2.627145 2.156983,-3.8906246 4.070313,-3.8906246 1.962386,-4e-7 3.533012,1.7499996 5.642578,1.7499996 2.207686,0 2.747292,-2.333984 4.5625,-2.333984 1.96239,0 8.634085,2.529116 11.675781,4.085938 3.973838,1.946032 4.41542,2.967141 4.955078,5.205078 l 2.353516,10.11914 0.6875,2.919922 c 6.045137,2.622704 9.488698,6.867455 9.738281,10.783203 C 60.984042,41.931349 61,41.747063 61,41.568359 61,37.530343 57.51597,33.054523 51.236328,30.330078 l -0.6875,-2.919922 -2.353516,-10.11914 C 47.655654,15.053079 47.214072,14.03197 43.240234,12.085938 40.198538,10.529116 33.526843,8 31.564453,8 Z"
       id="path3" />
    <path
       style="opacity:0.1"
       d="M 51.296604,31.942764 C 51.839,34.542927 51.839,34.788224 51.839,35.131644 51.839,39.547015 46.796557,42 40.238485,42 25.445837,42 12.291,33.365494 12.291,27.674571 c 0,-0.784956 0.147927,-1.569911 0.49309,-2.305806 l 1.183409,-2.845463 c -0.04931,0.196241 -0.09861,0.392478 -0.04931,0.588717 0,2.894523 11.626265,12.412102 27.059925,12.412102 3.944707,0 9.776092,-0.834015 9.776092,-5.494686 0,-0.343417 0,-0.735895 -0.09862,-1.079313 z"
       id="path4" />
    <path
       style="fill:#3f3f3f"
       d="M 51.296604,30.942764 C 51.839,33.542927 51.839,33.788224 51.839,34.131644 51.839,38.547015 46.796557,41 40.238485,41 25.445837,41 12.291,32.365494 12.291,26.674571 c 0,-0.784956 0.147927,-1.569911 0.49309,-2.305806 l 1.183409,-2.845463 c -0.04931,0.196241 -0.09861,0.392478 -0.04931,0.588717 0,2.894523 11.626265,12.412102 27.059925,12.412102 3.944707,0 9.776092,-0.834015 9.776092,-5.494686 0,-0.343417 0,-0.735895 -0.09862,-1.079313 z"
       id="path5" />
  </g>
</svg>
