<?xml version="1.0" encoding="UTF-8" standalone="no"?>
<svg
   width="62"
   height="62"
   version="1.1"
   id="svg18"
   sodipodi:docname="distributor-logo-raspbian.svg"
   inkscape:version="1.4 (e7c3feb100, 2024-10-09)"
   xmlns:inkscape="http://www.inkscape.org/namespaces/inkscape"
   xmlns:sodipodi="http://sodipodi.sourceforge.net/DTD/sodipodi-0.dtd"
   xmlns="http://www.w3.org/2000/svg"
   xmlns:svg="http://www.w3.org/2000/svg">
  <defs
     id="defs18" />
  <sodipodi:namedview
     id="namedview18"
     pagecolor="#ffffff"
     bordercolor="#000000"
     borderopacity="0.25"
     inkscape:showpageshadow="2"
     inkscape:pageopacity="0.0"
     inkscape:pagecheckerboard="0"
     inkscape:deskcolor="#d1d1d1"
     inkscape:zoom="11.75"
     inkscape:cx="32"
     inkscape:cy="30.553191"
     inkscape:window-width="1920"
     inkscape:window-height="998"
     inkscape:window-x="0"
     inkscape:window-y="0"
     inkscape:window-maximized="1"
     inkscape:current-layer="svg18" />
  <g
     id="g18"
     transform="matrix(0.97826086,0,0,0.94915254,-0.30434764,0.15254245)">
    <path
       style="opacity:0.2"
       d="m 22.814816,4 c -6.724125,0 -12.364021,2.201318 -12.364021,8.961265 0,3.15119 1.193675,6.371943 3.139489,8.921549 0.764915,0.801466 0.717988,1.29961 0.483431,2.232514 -0.416765,1.524414 -1.033815,3.343512 -1.599256,4.680622 -3.9174975,3.803644 -4.7756963,10.540806 -1.26479,14.909908 1.385851,2.246174 0.892795,5.52052 2.774105,7.74714 1.876059,2.662194 4.722019,4.99032 8.049684,5.264992 C 24.320632,59.920538 28.135212,61.906954 32,62 c 3.864788,-0.09304 7.679366,-2.079462 9.966542,-5.28201 3.327664,-0.274672 6.173624,-2.602798 8.049684,-5.264992 1.88131,-2.22662 1.388252,-5.500966 2.774106,-7.74714 C 56.301238,39.336756 55.443038,32.599594 51.52554,28.79595 50.9601,27.45884 50.343048,25.639742 49.926284,24.115328 49.691726,23.182424 49.644798,22.68428 50.409716,21.882814 52.35553,19.333208 53.549204,16.112455 53.549204,12.961265 53.549204,6.201318 47.909308,4 41.185182,4 38.648886,4 34.875,6.3147804 32,6.3147804 29.125,6.3147804 25.351112,4 22.814816,4 Z"
       id="path1" />
    <path
       style="fill:#293854;fill-opacity:1"
       d="m 22.814816,3 c -6.724125,0 -12.364021,2.201318 -12.364021,8.961265 0,3.15119 1.193675,6.371943 3.139489,8.921549 0.764915,0.801466 0.717988,1.29961 0.483431,2.232514 -0.416765,1.524414 -1.033815,3.343512 -1.599256,4.680622 -3.9174975,3.803644 -4.7756963,10.540806 -1.26479,14.909908 1.385851,2.246174 0.892795,5.52052 2.774105,7.74714 1.876059,2.662194 4.722019,4.99032 8.049684,5.264992 C 24.320632,58.920538 28.135212,60.906954 32,61 c 3.864788,-0.09304 7.679366,-2.079462 9.966542,-5.28201 3.327664,-0.274672 6.173624,-2.602798 8.049684,-5.264992 1.88131,-2.22662 1.388252,-5.500966 2.774106,-7.74714 C 56.301238,38.336756 55.443038,31.599594 51.52554,27.79595 50.9601,26.45884 50.343048,24.639742 49.926284,23.115328 49.691726,22.182424 49.644798,21.68428 50.409716,20.882814 52.35553,18.333208 53.549204,15.112455 53.549204,11.961265 53.549204,5.201318 47.909308,3 41.185182,3 38.648886,3 34.875,5.3147804 32,5.3147804 29.125,5.3147804 25.351112,3 22.814816,3 Z"
       id="path2" />
    <path
       style="opacity:0.2"
       d="m 23.699218,9.999605 c 0.23803,0.299505 0.571458,0.593465 0.21875,0.9375 -0.486132,-0.31361 -0.97821,-0.628653 -2.132812,-0.851563 0.260186,0.29966 0.798794,0.598778 0.472656,0.898438 -0.61043,-0.240853 -1.283914,-0.414091 -2.03125,-0.515625 0.357848,0.304067 0.656586,0.600418 0.363282,0.835937 C 19.936616,11.096697 19.03563,10.81726 18.15625,11.058198 l 0.558594,0.578125 c 0.06179,0.07745 -1.302835,0.06062 -2.203125,0.07422 0.328584,0.47149 0.663767,0.9285 0.859375,1.738282 -0.08924,0.09339 -0.536383,0.04151 -0.957032,0 0.431306,0.938081 1.180609,1.172787 1.355469,1.574218 -0.263478,0.20611 -0.627763,0.151864 -1.027344,0.01172 0.310539,0.660936 0.961973,1.115995 1.476563,1.652344 -0.13009,0.09538 -0.360275,0.152044 -0.898438,0.08594 0.475402,0.522051 1.049701,1.000518 1.73047,1.429688 -0.120548,0.143908 -0.533409,0.134952 -0.91797,0.144532 0.616633,0.623514 1.408572,0.947583 2.152344,1.355468 -0.370772,0.261664 -0.634076,0.202779 -0.917968,0.199218 0.526058,0.446475 1.419612,0.675803 2.25,0.945313 -0.15794,0.25355 -0.314714,0.323352 -0.652344,0.394532 0.878918,0.502482 2.137126,0.27447 2.492188,0.53125 -0.08572,0.252566 -0.32746,0.417448 -0.617188,0.554686 1.414972,0.08488 5.285536,-0.05262 6.027344,-3.078124 -1.448512,-1.643986 -4.092488,-3.574783 -8.640626,-5.960938 3.538304,1.223433 6.73034,2.853466 9.402344,5.097656 3.14126,-1.510965 0.973928,-5.322983 -0.558594,-6.835937 -0.0777,0.399504 -0.1651,0.652082 -0.265624,0.726562 -0.498994,-0.552581 -0.904516,-1.116698 -1.546876,-1.648437 -0.002,0.312304 0.15196,0.65064 -0.230468,0.898437 -0.34435,-0.478627 -0.81159,-0.906975 -1.429688,-1.269532 0.297712,0.530367 0.05069,0.690346 -0.109374,0.910156 -0.472084,-0.418219 -0.918518,-0.839856 -1.789064,-1.167968 z m 17.1875,0 c -0.870546,0.328112 -1.320884,0.749749 -1.792968,1.167968 -0.160056,-0.21981 -0.40709,-0.379789 -0.109374,-0.910156 -0.618098,0.362556 -1.08143,0.790905 -1.425782,1.269531 -0.382428,-0.247797 -0.228378,-0.586133 -0.23047,-0.898437 -0.64236,0.531739 -1.051784,1.095856 -1.55078,1.648437 -0.10052,-0.07448 -0.18794,-0.327058 -0.265626,-0.726562 -1.532524,1.512954 -3.695946,5.324972 -0.554686,6.835937 2.672,-2.24419 5.864038,-3.874223 9.402344,-5.097656 -4.54814,2.386155 -7.192114,4.316952 -8.640626,5.960938 0.741808,3.025495 4.612372,3.162997 6.027344,3.078123 -0.289726,-0.13724 -0.531466,-0.30212 -0.617188,-0.554686 0.355062,-0.25678 1.61327,-0.02876 2.492188,-0.53125 -0.337628,-0.07118 -0.49832,-0.14098 -0.65625,-0.394532 0.830388,-0.26951 1.727848,-0.498836 2.253906,-0.945312 -0.283892,0.0036 -0.551102,0.06245 -0.921874,-0.199218 0.74377,-0.407884 1.539618,-0.731954 2.156248,-1.355468 -0.38456,-0.0096 -0.801326,-6.14e-4 -0.921874,-0.144532 0.680768,-0.42917 1.255066,-0.907637 1.730468,-1.429688 -0.538164,0.06611 -0.76444,0.0094 -0.89453,-0.08594 0.514588,-0.536349 1.166024,-0.991408 1.476562,-1.652344 -0.39958,0.140146 -0.763866,0.194392 -1.027344,-0.01172 0.17486,-0.401431 0.924164,-0.636137 1.35547,-1.574218 -0.420648,0.04151 -0.867796,0.09339 -0.957032,0 0.1956,-0.809788 0.53079,-1.266792 0.859374,-1.738282 -0.900292,-0.0136 -2.264918,0.0032 -2.203124,-0.07422 l 0.558594,-0.578124 c -0.879378,-0.240938 -1.780366,0.0385 -2.433594,0.246094 -0.293304,-0.235519 0.0054,-0.53187 0.363282,-0.835937 -0.747336,0.101535 -1.424726,0.274772 -2.035158,0.515625 -0.326136,-0.29966 0.21247,-0.598778 0.472658,-0.898438 -1.154602,0.22291 -1.642776,0.537953 -2.128908,0.851563 -0.352708,-0.344035 -0.01927,-0.637995 0.21875,-0.9375 z m -8.664062,12.464843 c -2.51027,-0.06644 -4.920018,1.893034 -4.92578,3.03125 -0.007,1.38302 1.983774,2.799996 4.941406,2.835938 3.020352,0.02202 4.94729,-1.131344 4.95703,-2.558594 0.011,-1.617044 -2.745164,-3.333574 -4.972656,-3.308594 z m -7.578124,0.960938 c -3.485526,0.06602 -6.150606,2.521112 -6.027345,6.58203 0.138352,1.779236 9.111891,-6.196046 7.562501,-6.460936 -0.525738,-0.09034 -1.037224,-0.13052 -1.535156,-0.1211 z m 14.695312,0.13672 c -0.497932,-0.0094 -1.013324,0.03076 -1.539062,0.1211 -1.549388,0.264892 7.428046,8.240174 7.566406,6.460938 0.12326,-4.06092 -2.54182,-6.516012 -6.027344,-6.582032 z m -1.480468,4.953124 a 5.836951,4.911154 58.681418 0 0 -2.566408,0.703126 5.836951,4.911154 58.681418 1 0 6.35547,9.789062 5.836951,4.911154 58.681418 0 0 -3.789062,-10.492188 z m -11.226564,0.273438 a 4.911154,5.836951 31.318582 0 0 -3.789062,10.492188 4.911154,5.836951 31.318582 1 0 6.355468,-9.789062 4.911154,5.836951 31.318582 0 0 -2.566406,-0.703126 z m 19.44922,3.027344 c -2.437418,-0.664592 -0.822818,10.259724 1.160156,9.363282 2.181224,-1.785472 2.883874,-7.013296 -1.160156,-9.363282 z m -28.164063,0.13672 c -4.04403,2.349984 -3.341381,7.57781 -1.160157,9.363282 1.982975,0.896442 3.597574,-10.027872 1.160157,-9.363282 z m 14.593749,7.035158 a 5.44792,5.1121384 0 0 0 -5.609374,5.109374 5.449219,5.1133574 0 0 0 10.898438,0 5.44792,5.1121384 0 0 0 -5.289064,-5.109374 z m 11.882814,1.898436 c -1.276622,0.03386 -2.79919,1.263278 -4.246094,2.925782 -1.685902,2.0095 -2.62444,5.674814 -1.394532,6.855468 1.17595,0.917072 4.332252,0.788586 6.664062,-2.503906 1.69321,-2.211328 1.127328,-5.902444 0.16016,-6.882812 -0.359178,-0.282714 -0.758052,-0.40582 -1.183592,-0.394532 z M 19.9375,41.67148 c -0.457202,-0.02 -0.8858,0.07556 -1.261719,0.308592 -1.005491,0.77873 -1.18991,3.43033 0.242188,6.035156 2.123471,3.104212 5.113521,3.415406 6.343749,2.660158 1.30037,-0.989336 0.589458,-4.347484 -0.96875,-6.257814 -1.34115,-1.58358 -2.98386,-2.68626 -4.355468,-2.746092 z m 12.4375,9.152342 c -2.174952,-0.05538 -5.50925,0.887032 -5.46875,2.09375 -0.03478,0.823032 2.618182,3.196906 5.324218,3.078126 2.612954,0.04584 5.313664,-2.325678 5.277344,-3.375 -0.0058,-1.080576 -2.94418,-1.894076 -5.132812,-1.796876 z"
       id="path3" />
    <path
       style="fill:#20c997;stroke-width:0.0675228"
       d="m 20.225813,12.288049 c 4.548139,2.386155 7.192055,4.316367 8.640566,5.960353 -0.741807,3.025497 -4.611641,3.163569 -6.026613,3.078694 0.289727,-0.137234 0.531463,-0.301598 0.617183,-0.554165 -0.355061,-0.25678 -1.614018,-0.02705 -2.492936,-0.529536 0.33763,-0.07118 0.495559,-0.140522 0.653488,-0.394072 -0.830387,-0.26951 -1.724846,-0.501763 -2.250903,-0.948238 0.283892,0.0036 0.548952,0.06463 0.919724,-0.197037 -0.743772,-0.407884 -1.537458,-0.731111 -2.154091,-1.354625 0.384561,-0.0096 0.799178,-0.0039 0.919724,-0.147777 -0.680767,-0.42917 -1.255131,-0.906464 -1.730533,-1.428515 0.538163,0.06611 0.765431,0.0092 0.895521,-0.0862 -0.51459,-0.536349 -1.16586,-0.989244 -1.4764,-1.65018 0.399581,0.140146 0.765161,0.193791 1.028639,-0.01231 -0.174861,-0.401432 -0.924077,-0.63821 -1.355383,-1.576292 0.42065,0.04151 0.866794,0.09339 0.956029,0 -0.195607,-0.809788 -0.530631,-1.264894 -0.859215,-1.736384 0.90029,-0.0136 2.264291,0.0036 2.202497,-0.07389 L 18.156434,10.05908 c 0.879379,-0.2409386 1.7792,0.0387 2.432428,0.246296 0.293304,-0.23552 -0.0052,-0.5333382 -0.363049,-0.8374053 0.747337,0.1015352 1.422644,0.2763684 2.033075,0.5172207 0.326137,-0.2996596 -0.211778,-0.5993192 -0.471964,-0.8989788 1.154601,0.2229105 1.643756,0.5361101 2.129888,0.8497197 0.352708,-0.3440344 0.02019,-0.6364173 -0.21783,-0.9359232 0.870546,0.3281125 1.318957,0.7516848 1.791041,1.1699039 0.160057,-0.2198102 0.406632,-0.3809259 0.108915,-0.9112935 0.618097,0.3625566 1.083643,0.7897955 1.427993,1.2684225 0.382429,-0.247798 0.227841,-0.5866751 0.229931,-0.8989792 0.642361,0.5317392 1.050015,1.0975992 1.549009,1.6501802 0.100517,-0.07448 0.188533,-0.327068 0.266236,-0.726572 1.532523,1.512954 3.697935,5.323736 0.556675,6.834702 -2.671999,-2.244191 -5.864665,-3.874885 -9.402969,-5.098318 z"
       id="path4" />
    <path
       style="fill:#20c997;stroke-width:0.0675228"
       d="m 44.358416,12.288049 c -4.548138,2.386155 -7.192054,4.316367 -8.640566,5.960353 0.741807,3.025497 4.611642,3.163569 6.026614,3.078694 -0.289727,-0.137234 -0.531463,-0.301598 -0.617183,-0.554165 0.35506,-0.25678 1.614018,-0.02705 2.492935,-0.529536 -0.337629,-0.07118 -0.495558,-0.140522 -0.653487,-0.394072 0.830387,-0.26951 1.724845,-0.501763 2.250903,-0.948238 -0.283892,0.0036 -0.548952,0.06463 -0.919724,-0.197037 0.743771,-0.407884 1.537458,-0.731111 2.154091,-1.354625 -0.384561,-0.0096 -0.799178,-0.0039 -0.919724,-0.147777 0.680767,-0.42917 1.255131,-0.906464 1.730533,-1.428515 -0.538163,0.06611 -0.765431,0.0092 -0.895521,-0.0862 0.514589,-0.536349 1.16586,-0.989244 1.476399,-1.65018 -0.399581,0.140146 -0.765161,0.193791 -1.028638,-0.01231 0.174861,-0.401432 0.924077,-0.63821 1.355383,-1.576292 -0.42065,0.04151 -0.866794,0.09339 -0.95603,0 0.195608,-0.809788 0.530632,-1.264894 0.859216,-1.736384 -0.90029,-0.0136 -2.264291,0.0036 -2.202497,-0.07389 l 0.556675,-0.578795 c -0.879378,-0.2409386 -1.7792,0.0387 -2.432428,0.246296 -0.293303,-0.23552 0.0052,-0.5333382 0.363049,-0.8374053 C 43.61108,9.5694999 42.935773,9.7443331 42.325342,9.9851854 41.999205,9.6855258 42.53712,9.3858662 42.797306,9.0862066 41.642704,9.3091171 41.15355,9.6223167 40.667418,9.9359263 40.314709,9.5918919 40.647226,9.299509 40.885248,9.0000031 40.014702,9.3281156 39.56629,9.7516879 39.094206,10.169907 38.93415,9.9500968 38.687575,9.7889811 38.985292,9.2586135 38.367195,9.6211701 37.901649,10.048409 37.557298,10.527036 37.17487,10.279238 37.329457,9.9403609 37.327368,9.6280568 c -0.642361,0.5317392 -1.050015,1.0975992 -1.54901,1.6501802 -0.100517,-0.07448 -0.188532,-0.327068 -0.266235,-0.726572 -1.532524,1.512954 -3.697935,5.323736 -0.556675,6.834702 2.671999,-2.244191 5.864664,-3.874885 9.402968,-5.098318 z"
       id="path5" />
    <path
       style="fill:#bc1142;stroke-width:0.0762722"
       d="m 37.800137,43.09676 a 5.4479207,5.1121385 0 1 1 -10.895841,0 5.4479207,5.1121385 0 1 1 10.895841,0 z"
       id="path6" />
    <path
       style="fill:#bc1142;stroke-width:0.128346"
       d="m 29.199388,28.493036 a 4.911154,5.8369514 31.318572 1 1 -6.356758,9.788938 4.911154,5.8369514 31.318572 1 1 6.356758,-9.788938 z"
       id="path7" />
    <path
       style="fill:#bc1142;stroke-width:0.128346"
       d="m 35.292705,28.220577 a 5.8369514,4.911154 58.681428 1 0 6.356758,9.788938 5.8369514,4.911154 58.681428 1 0 -6.356758,-9.788938 z"
       id="path8" />
    <path
       style="fill:#bc1142;stroke-width:0.0675228"
       d="m 17.917757,30.95371 c 2.437419,-0.664591 0.822749,10.260581 -1.160225,9.36414 -2.181225,-1.785473 -2.883804,-7.014155 1.160225,-9.36414 z"
       id="path9" />
    <path
       style="fill:#bc1142;stroke-width:0.0675228"
       d="m 46.082244,30.81748 c -2.437419,-0.664591 -0.822749,10.260582 1.160225,9.36414 2.181225,-1.785473 2.883804,-7.014155 -1.160225,-9.36414 z"
       id="path10" />
    <path
       style="fill:#bc1142;stroke-width:0.0675228"
       d="m 37.801825,22.682225 c 4.205908,-0.722707 7.705389,1.820184 7.564518,6.461235 -0.138352,1.779236 -9.113906,-6.196344 -7.564518,-6.461235 z"
       id="path11" />
    <path
       style="fill:#bc1142;stroke-width:0.0675228"
       d="m 26.180961,22.545995 c -4.205908,-0.722707 -7.705389,1.820185 -7.564519,6.461235 0.138352,1.779236 9.113907,-6.196344 7.564519,-6.461235 z"
       id="path12" />
    <path
       style="fill:#bc1142;stroke-width:0.0675228"
       d="m 32.222566,21.463125 c -2.510269,-0.06645 -4.919486,1.89592 -4.925249,3.034136 -0.007,1.383022 1.98473,2.79902 4.942363,2.834964 3.020352,0.02201 4.947608,-1.133465 4.957347,-2.560716 0.01103,-1.617043 -2.746969,-3.333366 -4.974461,-3.308384 z"
       id="path13" />
    <path
       style="fill:#bc1142;stroke-width:0.0675228"
       d="m 32.375853,49.823492 c 2.188632,-0.09721 5.125337,0.717383 5.131092,1.797958 0.03633,1.049323 -2.663359,3.420084 -5.276312,3.374249 -2.706037,0.118786 -5.359496,-2.255663 -5.324718,-3.078695 -0.0405,-1.206717 3.294986,-2.148884 5.469938,-2.093512 z"
       id="path14" />
    <path
       style="fill:#bc1142;stroke-width:0.0675228"
       d="m 24.291962,43.419808 c 1.558207,1.91033 2.268502,5.26657 0.968131,6.255907 -1.230227,0.755246 -4.217784,0.444219 -6.341256,-2.659991 -1.432097,-2.604826 -1.247523,-5.255512 -0.242032,-6.034242 1.503676,-0.932104 3.826954,0.326884 5.615157,2.438326 z"
       id="path15" />
    <path
       style="fill:#bc1142;stroke-width:0.0675228"
       d="m 40.147882,42.814136 c -1.685902,2.0095 -2.624708,5.674614 -1.3948,6.855268 1.175949,0.917072 4.332707,0.78888 6.664517,-2.503611 1.69321,-2.211329 1.125871,-5.904348 0.15869,-6.884715 -1.436718,-1.130852 -3.499202,0.316386 -5.428407,2.533058 z"
       id="path16" />
    <path
       style="opacity:0.1;fill:#ffffff"
       d="m 22.814453,3 c -6.724125,0 -12.363281,2.2009905 -12.363281,8.960938 0,0.178109 0.01784,0.356735 0.02539,0.535156 C 10.737343,6.1093469 16.251148,4 22.814453,4 25.350749,4 29.125,6.3144531 32,6.3144531 34.875,6.3144531 38.649251,4 41.185547,4 c 6.563306,0 12.07711,2.1093469 12.337891,8.496094 0.0075,-0.178421 0.02539,-0.357047 0.02539,-0.535156 C 53.548828,5.2009905 47.909673,3 41.185547,3 38.649251,3 34.875,5.3144531 32,5.3144531 29.125,5.3144531 25.350749,3 22.814453,3 Z m -8.662109,19.740234 c -0.02456,0.122195 -0.04316,0.235927 -0.07813,0.375 -0.416765,1.524414 -1.034169,3.344531 -1.59961,4.681641 -2.355684,2.287222 -3.5946609,5.632724 -3.4531246,8.888672 0.1258596,-2.92878 1.3385356,-5.835539 3.4531246,-7.888672 0.565441,-1.33711 1.182845,-3.157227 1.59961,-4.681641 0.141411,-0.562436 0.209897,-0.966872 0.07813,-1.375 z m 35.695312,0 c -0.131772,0.408128 -0.06329,0.812564 0.07813,1.375 0.416764,1.524414 1.03417,3.344531 1.59961,4.681641 2.114589,2.053133 3.327265,4.959892 3.453125,7.888672 0.141535,-3.255948 -1.09744,-6.60145 -3.453125,-8.888672 -0.56544,-1.33711 -1.182846,-3.157227 -1.59961,-4.681641 -0.03497,-0.139073 -0.05356,-0.252805 -0.07813,-0.375 z"
       id="path17" />
    <path
       style="opacity:0.2;fill:#ffffff"
       d="m 23.699219,9 c 0.23802,0.2995059 0.569505,0.5915125 0.216797,0.9355469 C 23.429884,9.6219373 22.94171,9.308848 21.787109,9.0859375 22.047295,9.3855971 22.585903,9.6847154 22.259766,9.984375 21.649335,9.7435227 20.9739,9.5702852 20.226562,9.46875 c 0.35785,0.3040671 0.654633,0.600417 0.361329,0.835938 -0.653228,-0.207597 -1.552262,-0.487033 -2.431641,-0.246094 l 0.556641,0.580078 c 0.06179,0.07749 -1.302835,0.05866 -2.203125,0.07227 0.21096,0.302709 0.421892,0.608705 0.599609,0.996093 0.803966,-0.0045 1.652643,-0.0068 1.603516,-0.06836 L 18.15625,11.058594 c 0.879379,-0.240939 1.778413,0.0385 2.431641,0.246094 0.293304,-0.23552 -0.0035,-0.531871 -0.361329,-0.835938 0.747339,0.101535 1.422773,0.274773 2.033204,0.515625 0.326137,-0.299659 -0.212471,-0.598778 -0.472657,-0.898437 1.154601,0.222909 1.642775,0.535999 2.128907,0.849609 0.352708,-0.344034 0.02122,-0.636041 -0.216797,-0.935547 0.870546,0.328113 1.318931,0.751703 1.791015,1.169922 0.160055,-0.21981 0.407092,-0.381742 0.109375,-0.91211 0.618097,0.362557 1.083385,0.790905 1.427735,1.269532 0.382429,-0.247798 0.228369,-0.586134 0.230468,-0.898438 0.642363,0.531739 1.049835,1.095857 1.548829,1.648438 0.100517,-0.07448 0.187925,-0.327059 0.265625,-0.726563 0.858647,0.847683 1.913678,2.416403 2.125,3.898438 0.287876,-1.721119 -1.06852,-3.855447 -2.125,-4.898438 -0.0777,0.399504 -0.165108,0.652083 -0.265625,0.726563 -0.498994,-0.552581 -0.906467,-1.116699 -1.548829,-1.6484378 -0.0021,0.3123042 0.151961,0.6506398 -0.230468,0.8984378 -0.34435,-0.478627 -0.809638,-0.9069749 -1.427735,-1.2695315 0.297717,0.5303676 0.05068,0.6922991 -0.109375,0.9121095 C 25.01815,9.7517027 24.569765,9.3281125 23.699219,9 Z M 40.884766,9 C 40.01422,9.3281125 39.565834,9.7517027 39.09375,10.169922 38.933694,9.9501116 38.686658,9.7881801 38.984375,9.2578125 38.366278,9.6203691 37.900992,10.048717 37.556641,10.527344 37.174213,10.279546 37.330214,9.9412104 37.328125,9.6289062 c -0.642361,0.5317388 -1.049833,1.0958568 -1.548828,1.6484378 -0.100517,-0.07448 -0.189875,-0.327059 -0.267578,-0.726563 -1.056482,1.042991 -2.412876,3.177319 -2.125,4.898438 0.211321,-1.482035 1.266352,-3.050755 2.125,-3.898438 0.0777,0.399504 0.167061,0.652083 0.267578,0.726563 0.498995,-0.552581 0.906467,-1.116699 1.548828,-1.648438 0.0021,0.312305 -0.153912,0.65064 0.228516,0.898438 0.344351,-0.478627 0.809637,-0.906976 1.427734,-1.269532 -0.297717,0.530367 -0.05068,0.6923 0.109375,0.91211 0.472084,-0.418219 0.92047,-0.841809 1.791016,-1.169922 -0.238027,0.299506 -0.569506,0.591513 -0.216797,0.935547 0.486132,-0.31361 0.974304,-0.626699 2.128906,-0.849609 -0.260186,0.299659 -0.79684,0.598778 -0.470703,0.898437 0.610431,-0.240852 1.285867,-0.414096 2.033203,-0.515625 -0.357881,0.304067 -0.656584,0.600418 -0.363281,0.835938 0.653228,-0.207594 1.552262,-0.487033 2.43164,-0.246094 l -0.55664,0.580078 c -0.04913,0.06159 0.799548,0.06381 1.603515,0.06836 0.177717,-0.387388 0.388649,-0.693384 0.59961,-0.996093 -0.90029,-0.0136 -2.264919,0.0052 -2.203125,-0.07227 l 0.55664,-0.580078 c -0.879378,-0.240939 -1.778412,0.0385 -2.43164,0.246094 -0.293303,-0.235521 0.0054,-0.5318709 0.363281,-0.835938 C 43.612039,9.5702792 42.936603,9.7435227 42.326172,9.984375 42.000035,9.6847154 42.536689,9.3855971 42.796875,9.0859375 41.642273,9.308848 41.154101,9.6219373 40.667969,9.9355469 40.31526,9.5915125 40.646744,9.2995059 40.884766,9 Z m -24.470704,3.447266 c 0.234086,0.509131 0.555234,0.808059 0.833985,1.042968 0.05663,-0.0079 0.09981,-0.02069 0.121094,-0.04297 -0.09271,-0.383825 -0.217559,-0.68526 -0.357422,-0.949219 -0.174435,-0.0067 -0.388688,-0.03016 -0.597657,-0.05078 z m 31.75586,0 c -0.208969,0.02062 -0.423222,0.04412 -0.597656,0.05078 -0.139863,0.263959 -0.264708,0.565394 -0.357422,0.949219 0.02129,0.02228 0.06446,0.03511 0.121094,0.04297 0.278751,-0.234909 0.599898,-0.533837 0.833984,-1.042969 z m -27.94336,0.839843 c 4.294958,2.253325 6.87741,4.09657 8.373047,5.679688 0.10837,-0.221434 0.202977,-0.455272 0.267579,-0.71875 -0.521133,-0.591459 -1.204754,-1.220976 -2.06836,-1.894531 -2.003415,-1.243277 -4.207712,-2.248819 -6.572266,-3.066407 z m 24.132813,0 c -2.360741,0.81627 -4.563024,1.820058 -6.564453,3.060547 -0.86745,0.675922 -1.553424,1.307099 -2.076172,1.900391 0.0646,0.263478 0.159236,0.497316 0.267578,0.71875 1.495638,-1.583118 4.078091,-3.426363 8.373047,-5.679688 z m -27.619141,0.75 c 0.194661,0.414304 0.524254,0.745689 0.869141,1.06836 0.05579,-0.02145 0.111054,-0.04167 0.160156,-0.08008 -0.129245,-0.296711 -0.572218,-0.507611 -0.96875,-0.97461 -0.02119,-0.007 -0.03915,-0.0062 -0.06055,-0.01367 z m 31.103516,0 c -0.02139,0.0075 -0.03935,0.0067 -0.06055,0.01367 -0.396532,0.466999 -0.839505,0.677899 -0.96875,0.97461 0.0491,0.03841 0.104365,0.05862 0.160156,0.08008 0.344887,-0.322671 0.674481,-0.654056 0.869141,-1.06836 z m -15.621094,7.425782 c -2.510269,-0.06645 -4.920018,1.89694 -4.925781,3.035156 -9.33e-4,0.184298 0.03978,0.368686 0.107422,0.550781 0.489564,-1.138881 2.614023,-2.644289 4.818359,-2.585937 1.997551,-0.0224 4.415445,1.355695 4.886719,2.80664 0.05442,-0.161107 0.08673,-0.327646 0.08789,-0.498047 0.01103,-1.617043 -2.747118,-3.333575 -4.974609,-3.308593 z m -7.580078,0.96289 c -3.485526,0.06602 -6.148653,2.521113 -6.02539,6.582031 0.0029,0.03748 0.01481,0.06476 0.02539,0.09375 0.271711,-3.515434 2.782987,-5.614847 6,-5.675781 0.431813,-0.0082 0.878596,0.0289 1.332031,0.0957 0.389125,-0.541422 0.520945,-0.920941 0.207032,-0.974609 -0.525739,-0.09034 -1.041131,-0.130525 -1.539063,-0.121094 z M 39.339844,22.5625 c -0.497933,-0.0094 -1.011371,0.0288 -1.53711,0.119141 -0.313913,0.05367 -0.182093,0.433187 0.207032,0.974609 0.453045,-0.06641 0.898264,-0.101902 1.330078,-0.09375 3.217013,0.06093 5.729986,2.158649 6.001953,5.673828 0.01058,-0.02899 0.02248,-0.05627 0.02539,-0.09375 C 45.49045,25.081658 42.82537,22.62852 39.339844,22.5625 Z m -1.484375,4.953125 a 5.8369514,4.911154 58.681428 0 0 -2.5625,0.705078 5.8371877,4.9113528 58.681428 0 0 -1.976563,4.564453 5.8371877,4.9113528 58.681428 0 1 1.976563,-3.564453 5.8369514,4.911154 58.681428 0 1 2.5625,-0.705078 5.8369514,4.911154 58.681428 0 1 5.771484,5.919922 5.8369514,4.911154 58.681428 0 0 -5.771484,-6.919922 z m -11.00586,0.269531 a 4.911154,5.8369514 31.318572 0 0 -0.21289,0.0039 4.911154,5.8369514 31.318572 0 0 -5.769531,6.929688 4.911154,5.8369514 31.318572 0 1 5.769531,-5.929688 4.911154,5.8369514 31.318572 0 1 2.5625,0.703126 4.9113525,5.8371873 31.318572 0 1 1.972656,3.539062 4.9113525,5.8371873 31.318572 0 0 -1.972656,-4.539062 4.911154,5.8369514 31.318572 0 0 -2.34961,-0.707032 z m 19.015625,3.003906 c -0.80255,0.01354 -1.073232,1.489459 -0.998046,3.269532 0.05495,-1.298664 0.352975,-2.25865 0.998046,-2.269532 0.06837,-0.0011 0.140627,0.0085 0.216797,0.0293 1.92841,1.120599 2.768491,2.894601 2.892578,4.638672 0.169564,-2.035597 -0.592554,-4.302128 -2.892578,-5.638672 -0.07617,-0.02077 -0.148429,-0.03045 -0.216797,-0.0293 z m -27.730468,0.134766 c -0.06837,-0.0012 -0.140628,0.0085 -0.216797,0.0293 -2.300097,1.336586 -3.062207,3.604433 -2.892578,5.640625 0.124087,-1.744536 0.964168,-3.520026 2.892578,-4.640625 0.07617,-0.0208 0.148427,-0.0305 0.216797,-0.0293 0.645027,0.01088 0.943065,0.970752 0.998046,2.269531 0.07517,-1.78037 -0.195512,-3.255993 -0.998046,-3.269531 z m 14.375,7.0625 a 5.4479207,5.1121385 0 0 0 -5.605469,5.111328 5.448242,5.11244 0 0 0 0.02734,0.5 5.4479207,5.1121385 0 0 1 5.578125,-4.611328 5.4479207,5.1121385 0 0 1 5.261718,4.583984 5.448242,5.11244 0 0 0 0.0293,-0.472656 5.4479207,5.1121385 0 0 0 -5.291015,-5.111328 z m 11.882812,1.902344 c -1.27662,0.03386 -2.797238,1.263277 -4.24414,2.925781 -1.276106,1.521046 -2.120397,3.988534 -1.923829,5.611328 0.143065,-1.523589 0.889042,-3.377921 1.923829,-4.611328 1.446902,-1.662504 2.96752,-2.891921 4.24414,-2.925781 0.42554,-0.01129 0.824414,0.109865 1.183594,0.392578 0.45664,0.462866 0.813817,1.536769 0.896484,2.767578 0.103876,-1.627207 -0.318836,-3.182054 -0.896484,-3.767578 -0.35918,-0.282713 -0.758054,-0.403866 -1.183594,-0.392578 z M 19.9375,40.671875 c -0.457202,-0.01994 -0.883847,0.07752 -1.259766,0.310547 -0.571483,0.442601 -0.864254,1.499212 -0.759765,2.798828 0.0794,-0.825391 0.344327,-1.477081 0.759765,-1.798828 0.375919,-0.233027 0.802564,-0.330487 1.259766,-0.310547 1.371607,0.05983 3.012363,1.164465 4.353516,2.748047 0.878885,1.077496 1.470655,2.606619 1.601562,3.919922 0.18204,-1.450873 -0.48488,-3.550892 -1.601562,-4.919922 C 22.949863,41.83634 21.309107,40.731708 19.9375,40.671875 Z m 12.4375,9.152344 c -2.174952,-0.05537 -5.50925,0.887033 -5.46875,2.09375 -0.0054,0.128891 0.07514,0.302756 0.191406,0.492187 0.723725,-0.951603 3.419524,-1.633234 5.277344,-1.585937 1.879468,-0.08348 4.29977,0.50531 4.953125,1.357422 0.110564,-0.20694 0.185198,-0.401393 0.179687,-0.560547 -0.0058,-1.080575 -2.94418,-1.894085 -5.132812,-1.796875 z"
       id="path18" />
  </g>
</svg>
