<?xml version="1.0" encoding="UTF-8" standalone="no"?>
<svg
   width="62"
   height="62"
   version="1.1"
   id="svg6"
   sodipodi:docname="distributor-logo-pop-os.svg"
   inkscape:version="1.4 (e7c3feb100, 2024-10-09)"
   xmlns:inkscape="http://www.inkscape.org/namespaces/inkscape"
   xmlns:sodipodi="http://sodipodi.sourceforge.net/DTD/sodipodi-0.dtd"
   xmlns="http://www.w3.org/2000/svg"
   xmlns:svg="http://www.w3.org/2000/svg">
  <defs
     id="defs6" />
  <sodipodi:namedview
     id="namedview6"
     pagecolor="#ffffff"
     bordercolor="#000000"
     borderopacity="0.25"
     inkscape:showpageshadow="2"
     inkscape:pageopacity="0.0"
     inkscape:pagecheckerboard="0"
     inkscape:deskcolor="#d1d1d1"
     inkscape:zoom="11.6875"
     inkscape:cx="31.957219"
     inkscape:cy="32"
     inkscape:window-width="1920"
     inkscape:window-height="994"
     inkscape:window-x="0"
     inkscape:window-y="0"
     inkscape:window-maximized="1"
     inkscape:current-layer="svg6" />
  <g
     id="g6"
     transform="translate(-0.5,-1)">
    <ellipse
       style="opacity:0.2;stroke-width:0.982303"
       cx="31.499998"
       cy="32.491234"
       id="circle1"
       rx="27.499998"
       ry="27.508766" />
    <ellipse
       style="fill:#48b9c7;stroke-width:0.982303"
       cx="31.499998"
       cy="31.508766"
       id="circle2"
       rx="27.499998"
       ry="27.508766" />
    <path
       style="opacity:0.2;stroke-width:0.982303"
       d="m 25.821986,10.881026 c -2.485827,0.05891 -5.318488,1.414519 -6.763742,2.415845 -1.445247,1.001327 -4.392524,3.003074 -4.450335,4.946824 0,1.295833 0.693439,2.355755 1.329348,3.651589 0.635911,1.295834 9.192202,18.730532 11.735839,21.498898 1.32963,1.413638 3.178616,1.002248 3.583287,-0.293585 0.404669,-1.295837 -0.05712,-2.70941 -0.577393,-4.064144 l -2.775704,-7.362662 c 3.237356,-1.178034 5.548949,-3.593062 6.936384,-6.597038 v -0.118972 c 0.693721,-1.472536 0.867756,-3.533915 0.289655,-6.184482 -0.5781,-2.65057 -2.138462,-4.946048 -4.33524,-6.418583 -1.445249,-0.942423 -2.486271,-1.532588 -4.972099,-1.47369 z m -2.073624,5.37281 c 0.13751,0.015 0.288419,0.05032 0.454623,0.105538 0.404671,0.1178 0.752557,0.412968 1.04161,0.648572 1.445246,1.178034 2.543153,2.944339 3.063441,4.770287 a 7.3996737,7.5393922 0 0 1 0.115095,2.826479 c 0,0.47121 -0.05819,0.825939 -0.347203,1.297149 -0.28905,0.471214 -0.982487,0.824515 -1.329344,0.765625 -0.346866,-0.05889 -0.63555,-0.294582 -0.924598,-0.58909 -1.214009,-1.23693 -2.311568,-3.711226 -2.716239,-4.889252 -0.379377,-1.104405 -1.420042,-5.160718 0.642615,-4.935308 z m 19.36471,4.447914 c -0.82148,0.01366 -1.761393,0.232719 -2.136927,0.581417 -0.500712,0.464932 -0.94567,1.394654 -1.223842,3.254386 -0.945787,6.799635 -1.279569,12.378544 -0.278146,12.78536 0.834521,0.348698 1.447982,-0.233037 4.452253,-5.812226 l 1.557616,-3.079769 c 0.611983,-1.336681 1.39071,-3.196236 1.613246,-4.067984 0.222542,-0.871747 0.166953,-1.569323 -0.500662,-2.208606 a 5.0071207,5.2304884 0 0 0 -2.725831,-1.39501 c -0.222537,-0.04357 -0.483879,-0.06211 -0.757707,-0.05759 z m -3.425988,19.649122 c -0.18654,-0.0033 -0.387461,0.0227 -0.604251,0.08248 -0.837253,0.212676 -1.435765,0.904741 -1.615164,1.542763 -0.179413,0.638024 -0.05931,1.434587 0.598492,1.913103 0.657845,0.478518 1.794693,0.478835 2.273125,0.212995 0.478431,-0.265845 0.776195,-0.691987 0.895823,-1.170504 0.313968,-1.116538 -0.24227,-2.558329 -1.548025,-2.580862 z m -19.719591,5.894736 c -1.228627,0 -2.217493,0.87635 -2.217493,1.964912 0,1.088562 0.988866,1.964914 2.217493,1.964914 h 23.065014 c 1.228627,0 2.217495,-0.876352 2.217495,-1.964914 0,-1.088562 -0.988868,-1.964912 -2.217495,-1.964912 z"
       id="path2" />
    <g
       id="g5"
       transform="matrix(0.98214286,0,0,0.982456,0.07142853,0.07017596)">
      <rect
         style="fill:#ffffff"
         width="28"
         height="4"
         x="18"
         y="46"
         rx="2.2579999"
         ry="2"
         id="rect2" />
      <path
         style="fill:#ffffff"
         d="m 35.401362,24.452868 c -1.412662,3.05762 -3.767106,5.515704 -7.063322,6.714774 l 2.825328,7.494164 c 0.52975,1.378926 1.000638,2.817804 0.588612,4.13678 C 31.339952,44.117558 29.4564,44.53723 28.102596,43.09835 25.51271,40.280546 16.801275,22.534362 16.153803,21.215388 15.506333,19.896414 14.8,18.817256 14.8,17.498283 c 0.05886,-1.97846 3.060775,-4.016872 4.532299,-5.036079 1.471529,-1.019208 4.355717,-2.398134 6.886743,-2.458088 2.531024,-0.059954 3.590524,0.53958 5.06205,1.498833 2.236718,1.498835 3.825966,3.837014 4.414576,6.534914 0.58861,2.697899 0.412028,4.796265 -0.294306,6.295099 m -6.651298,-3.23748 c -0.529748,-1.858554 -1.648108,-3.657153 -3.119632,-4.856219 -0.294306,-0.239812 -0.647472,-0.53958 -1.0595,-0.659486 -2.707608,-0.899301 -1.530386,3.717105 -1.11836,4.916171 0.412028,1.199066 1.530388,3.717106 2.76647,4.976126 0.294304,0.299768 0.588608,0.53958 0.941778,0.599534 0.353166,0.05994 1.059496,-0.299766 1.353802,-0.779394 0.294304,-0.479626 0.353168,-0.839346 0.353168,-1.318972 a 7.5342132,7.6740254 0 0 0 -0.11772,-2.87776 z"
         id="path3" />
      <path
         style="fill:#ffffff"
         d="m 41.912738,42.62764 c -0.1218,0.487062 -0.42624,0.920006 -0.91337,1.190598 -0.48713,0.270588 -1.644064,0.270588 -2.313868,-0.216474 -0.669804,-0.487062 -0.791588,-1.298832 -0.608912,-1.948248 0.18266,-0.649418 0.791588,-1.352952 1.644064,-1.569424 1.765846,-0.487064 2.557432,1.244714 2.192086,2.543548 z"
         id="path4" />
      <path
         style="fill:#ffffff"
         d="m 40.119882,36.917908 c -1.01963,-0.41408 -0.679752,-6.092897 0.28323,-13.013956 0.283231,-1.89294 0.736402,-2.839409 1.246218,-3.312643 0.509816,-0.473235 2.039264,-0.709852 2.945602,-0.532388 a 5.0981592,5.3238908 0 0 1 2.775667,1.419704 c 0.679751,0.650697 0.7364,1.360549 0.509813,2.247865 -0.226583,0.887314 -1.019629,2.780254 -1.642739,4.140804 l -1.586094,3.135177 c -3.058895,5.678819 -3.682001,6.270363 -4.531697,5.915437 z"
         id="path5" />
    </g>
    <path
       style="opacity:0.2;fill:#ffffff;stroke-width:0.982303"
       d="M 31.5,4 A 27.5,27.508768 0 0 0 4,31.508768 27.5,27.508768 0 0 0 4.0172646,31.992322 27.5,27.508768 0 0 1 31.5,4.982456 27.5,27.508768 0 0 1 58.975063,31.992322 27.5,27.508768 0 0 0 59,31.508768 27.5,27.508768 0 0 0 31.5,4 Z"
       id="path6" />
  </g>
</svg>
