<?xml version="1.0" encoding="UTF-8" standalone="no"?>
<svg
   clip-rule="evenodd"
   fill-rule="evenodd"
   stroke-linejoin="round"
   stroke-miterlimit="2"
   viewBox="0 0 62 62"
   version="1.1"
   id="svg2"
   sodipodi:docname="distributor-logo-Tumbleweed.svg"
   width="62"
   height="62"
   inkscape:version="1.4 (e7c3feb100, 2024-10-09)"
   xmlns:inkscape="http://www.inkscape.org/namespaces/inkscape"
   xmlns:sodipodi="http://sodipodi.sourceforge.net/DTD/sodipodi-0.dtd"
   xmlns:xlink="http://www.w3.org/1999/xlink"
   xmlns="http://www.w3.org/2000/svg"
   xmlns:svg="http://www.w3.org/2000/svg">
  <defs
     id="defs2">
    <linearGradient
       id="linearGradient1"
       inkscape:collect="always">
      <stop
         style="stop-color:#004d4d;stop-opacity:1;"
         offset="0"
         id="stop3" />
      <stop
         style="stop-color:#008080;stop-opacity:1"
         offset="1"
         id="stop4" />
    </linearGradient>
    <linearGradient
       inkscape:collect="always"
       xlink:href="#linearGradient1"
       id="linearGradient4"
       x1="24"
       y1="46.764"
       x2="24"
       y2="1.2360001"
       gradientUnits="userSpaceOnUse" />
  </defs>
  <sodipodi:namedview
     id="namedview2"
     pagecolor="#ffffff"
     bordercolor="#000000"
     borderopacity="0.25"
     inkscape:showpageshadow="2"
     inkscape:pageopacity="0.0"
     inkscape:pagecheckerboard="0"
     inkscape:deskcolor="#d1d1d1"
     inkscape:zoom="7.7916667"
     inkscape:cx="21.368984"
     inkscape:cy="40.812834"
     inkscape:window-width="1920"
     inkscape:window-height="994"
     inkscape:window-x="0"
     inkscape:window-y="0"
     inkscape:window-maximized="1"
     inkscape:current-layer="svg2" />
  <linearGradient
     id="a"
     x2="1"
     gradientTransform="matrix(0,-35.3911,35.3911,0,1012.51,41.2823)"
     gradientUnits="userSpaceOnUse">
    <stop
       stop-color="#004a52"
       offset="0"
       id="stop1" />
    <stop
       stop-color="#067e98"
       offset="1"
       id="stop2" />
  </linearGradient>
  <g
     id="g2"
     transform="matrix(1.2300123,0,0,1.2300123,1.4797048,1.4797048)">
    <circle
       cx="24"
       cy="24"
       r="22.764"
       id="circle2"
       style="fill:url(#linearGradient4);fill-opacity:1" />
    <path
       d="m 29.089,28.923 c 1.751,1.128 3.764,2.132 5.562,2.107 3.454,-0.047 6.448,-3.011 6.522,-7.046 0.078,-4.297 -3.211,-7.115 -6.859,-7.188 -2.014,-0.04 -3.825,0.792 -5.384,1.926 -2.479,1.802 -4.334,4.373 -5.359,5.787 -1.1,1.518 -3.005,3.912 -5.319,5.573 -1.643,1.179 -3.49,1.984 -5.403,1.955 -4.055,-0.062 -7.633,-2.859 -7.658,-8.033 -0.025,-5.199 4.315,-7.701 7.638,-7.821 1.874,-0.067 3.733,0.559 5.521,1.74 l 1.304,-1.357 1.95,5.487 -5.559,-1.732 1.079,-1.123 c -1.376,-0.858 -2.793,-1.332 -4.232,-1.28 -2.589,0.094 -5.984,2.028 -5.965,6.078 0.02,4.041 2.781,6.257 5.949,6.305 1.55,0.024 3.032,-0.673 4.364,-1.629 2.147,-1.542 3.905,-3.773 4.925,-5.181 1.096,-1.512 3.094,-4.247 5.745,-6.174 1.86,-1.352 4.036,-2.304 6.439,-2.256 4.548,0.091 8.657,3.596 8.559,8.955 -0.092,5.049 -3.911,8.691 -8.233,8.75 -2.141,0.029 -4.578,-1.132 -6.647,-2.466 l -1.102,1.428 -2.534,-5.242 5.715,1.118 z"
       fill="#daddde"
       id="path2" />
  </g>
</svg>
