<?xml version="1.0" encoding="UTF-8" standalone="no"?>
<svg
   width="62"
   height="62"
   version="1.1"
   id="svg5"
   sodipodi:docname="distributor-logo-zorin.svg"
   inkscape:version="1.4 (e7c3feb100, 2024-10-09)"
   xmlns:inkscape="http://www.inkscape.org/namespaces/inkscape"
   xmlns:sodipodi="http://sodipodi.sourceforge.net/DTD/sodipodi-0.dtd"
   xmlns="http://www.w3.org/2000/svg"
   xmlns:svg="http://www.w3.org/2000/svg">
  <defs
     id="defs5" />
  <sodipodi:namedview
     id="namedview5"
     pagecolor="#ffffff"
     bordercolor="#000000"
     borderopacity="0.25"
     inkscape:showpageshadow="2"
     inkscape:pageopacity="0.0"
     inkscape:pagecheckerboard="0"
     inkscape:deskcolor="#d1d1d1"
     inkscape:zoom="11.75"
     inkscape:cx="32"
     inkscape:cy="32"
     inkscape:window-width="1920"
     inkscape:window-height="998"
     inkscape:window-x="0"
     inkscape:window-y="0"
     inkscape:window-maximized="1"
     inkscape:current-layer="svg5" />
  <g
     id="g5"
     transform="translate(-0.5000001,-0.999999)">
    <path
       style="opacity:0.2;stroke-width:0.983163"
       d="m 18.861365,59.999999 c -1.68319,0 -3.74807,-1.205073 -4.588567,-2.677932 L 1.6303701,35.169159 c -0.84049321,-1.472863 -0.84049321,-3.883005 0,-5.355864 L 14.272798,7.6603876 c 0.840497,-1.4728628 2.905377,-2.6779324 4.588567,-2.6779324 h 25.277266 c 1.683195,0 3.748076,1.2050696 4.588448,2.6779324 L 61.369628,29.813295 c 0.840496,1.472859 0.840496,3.883001 0,5.355864 L 48.727203,57.322067 c -0.840375,1.472859 -2.905254,2.677932 -4.588446,2.677932 z"
       id="path1" />
    <path
       style="fill:#17b5f9;stroke-width:0.983163"
       d="m 18.861365,59.017543 c -1.68319,0 -3.74807,-1.205073 -4.588567,-2.67793 L 1.6303701,34.186704 c -0.84049321,-1.472863 -0.84049321,-3.883003 0,-5.355864 L 14.272798,6.6779315 C 15.113295,5.2050687 17.178175,3.999999 18.861365,3.999999 h 25.277266 c 1.683195,0 3.748076,1.2050697 4.588448,2.6779325 L 61.369628,28.83084 c 0.840496,1.472861 0.840496,3.883001 0,5.355864 L 48.727203,56.339613 c -0.840375,1.472857 -2.905254,2.67793 -4.588446,2.67793 z"
       id="path2" />
    <path
       style="opacity:0.2;fill:#ffffff;stroke-width:0.983163"
       d="m 18.859564,4 c -1.683191,0 -3.7445,1.205865 -4.584999,2.6787279 L 1.6302924,28.830043 C 1.1472732,29.676473 0.98234008,30.823124 1.0614919,31.930922 1.11714,31.156135 1.290714,30.407566 1.6302924,29.812501 L 14.274565,7.6611841 c 0.840499,-1.4728629 2.901808,-2.678728 4.584999,-2.678728 h 25.280874 c 1.683191,0 3.744617,1.2058653 4.58499,2.678728 L 61.369709,29.812501 c 0.339575,0.595065 0.513148,1.343634 0.5688,2.118421 0.07915,-1.107798 -0.08578,-2.254449 -0.5688,-3.100879 L 48.725428,6.6787279 C 47.885055,5.2058652 45.823629,4 44.140438,4 Z"
       id="path3" />
    <path
       style="opacity:0.2;stroke-width:0.983163"
       d="M 10.19689,14.807017 5.7079766,22.666665 H 41.926726 L 5.3159655,41.624994 10.19689,50.175437 h 42.606225 l 4.48891,-7.859649 H 21.073275 L 57.684036,23.357455 52.803115,14.807017 Z"
       id="path4" />
    <path
       style="fill:#ffffff;stroke-width:0.983163"
       d="M 10.19689,13.824562 5.7079766,21.684211 H 41.926726 L 5.3159655,40.642544 10.19689,49.192982 h 42.606225 l 4.48891,-7.859648 h -36.21875 l 36.610761,-18.95834 -4.880921,-8.550432 z"
       id="path5" />
  </g>
</svg>
