<?xml version="1.0" encoding="UTF-8" standalone="no"?>
<svg
   width="62"
   height="62"
   version="1.1"
   id="svg7"
   sodipodi:docname="distributor-logo-endeavouros.svg"
   inkscape:version="1.4 (e7c3feb100, 2024-10-09)"
   xmlns:inkscape="http://www.inkscape.org/namespaces/inkscape"
   xmlns:sodipodi="http://sodipodi.sourceforge.net/DTD/sodipodi-0.dtd"
   xmlns="http://www.w3.org/2000/svg"
   xmlns:svg="http://www.w3.org/2000/svg">
  <defs
     id="defs7" />
  <sodipodi:namedview
     id="namedview7"
     pagecolor="#ffffff"
     bordercolor="#000000"
     borderopacity="0.25"
     inkscape:showpageshadow="2"
     inkscape:pageopacity="0.0"
     inkscape:pagecheckerboard="0"
     inkscape:deskcolor="#d1d1d1"
     inkscape:zoom="11.75"
     inkscape:cx="32"
     inkscape:cy="32"
     inkscape:window-width="1920"
     inkscape:window-height="998"
     inkscape:window-x="0"
     inkscape:window-y="0"
     inkscape:window-maximized="1"
     inkscape:current-layer="svg7" />
  <g
     id="g7"
     transform="translate(0.92690271,0.96702079)">
    <path
       style="opacity:0.2;stroke-width:0.96666"
       d="M 34.975507,6.3507289 C 33.220421,6.5921083 1.0730977,46.183331 1.0730977,46.183331 c 0,0 2.310364,0.658379 7.5748485,1.424035 C 10.357271,46.273508 34.308518,5.7318477 35.035587,6.3692393 c -0.0124,-0.0163 -0.03221,-0.022304 -0.06014,-0.01848 z"
       id="path1" />
    <path
       style="opacity:0.2;stroke-width:0.96666"
       d="M 35.035587,6.3692393 C 34.975505,6.3507373 8.6479462,47.607366 8.6479462,47.607366 c -2.2975388,3.789617 -4.1342851,6.835407 -4.1342851,6.835407 0,0 24.6976159,1.117074 43.9024679,-1.466719 C 75.74453,49.299313 42.799268,14.263302 35.035587,6.3692393 Z"
       id="path2" />
    <path
       style="fill:#7f7fff;stroke-width:0.96666"
       d="M 35.035587,5.4025717 C 34.975505,5.3840697 8.6479462,46.640702 8.6479462,46.640702 c -2.2975388,3.789607 -4.1342851,6.835409 -4.1342851,6.835409 0,0 24.6976159,1.117075 43.9024679,-1.46672 C 75.74453,48.332651 42.799268,13.296642 35.035587,5.4025717 Z"
       id="path3" />
    <path
       style="opacity:0.1;stroke-width:0.96666"
       d="M 35.007021,6.3549117 C 33.902231,6.1745723 8.6479462,47.607366 8.6479462,47.607366 c 0,0 23.8667548,1.434897 33.2668158,1.275614 26.616999,-0.451028 -0.737006,-34.363579 -6.879175,-42.5137407 -0.0082,-0.00818 -0.0174,-0.012492 -0.02854,-0.01432 z"
       id="path4" />
    <path
       style="fill:#ff7f7f;stroke-width:0.96666"
       d="M 34.975507,5.3840613 C 33.220421,5.6254427 1.0730977,45.216655 1.0730977,45.216655 c 0,0 2.310364,0.658389 7.5748485,1.424047 C 10.357271,45.306847 34.308518,4.7651821 35.035587,5.4025717 c -0.0124,-0.0163 -0.03219,-0.022302 -0.06018,-0.01848 z"
       id="path5" />
    <path
       style="opacity:0.2;fill:#ffffff;stroke-width:0.96666"
       d="M 34.976285,5.3848658 C 33.221199,5.6262472 1.0730974,45.216448 1.0730974,45.216448 c 0,0 0.5043963,0.114218 0.6626949,0.154819 C 3.7100161,42.942013 33.278754,6.5849989 34.976285,6.3515338 c 0.01175,-0.00167 0.01559,0.00563 0.02459,0.00761 0.0013,9.66e-5 0.0047,-0.0039 0.0059,-0.00371 0.01114,0.0019 0.0204,0.00509 0.0283,0.013212 C 40.513937,11.939624 58.532248,31.026722 59.058049,43.071685 59.517802,31.108312 40.662873,11.124409 35.034855,5.4018839 c -0.0082,-0.00818 -0.01716,-0.011372 -0.0283,-0.013212 -0.0012,-1.918e-4 -0.0046,0.00381 -0.0059,0.00371 -0.0092,-0.00198 -0.01284,-0.00908 -0.02459,-0.00761 z M 8.1154156,47.521717 c -1.8780343,3.100912 -3.6023444,5.954817 -3.6023443,5.954817 0,0 0.5164091,0.01639 0.5739581,0.01893 0.4161046,-0.689735 1.5818985,-2.624683 3.5608077,-5.888741 -0.2058259,-0.02997 -0.3355888,-0.05537 -0.5324215,-0.0849 z"
       id="path6" />
    <path
       style="fill:#7f3fbf;stroke-width:0.96666"
       d="M 35.007021,5.3882441 C 33.902231,5.2079067 8.6479462,46.640702 8.6479462,46.640702 c 0,0 23.8667548,1.434896 33.2668158,1.275616 26.616999,-0.45104 -0.737006,-34.363597 -6.879175,-42.5137463 -0.0082,-0.00818 -0.0174,-0.012485 -0.02854,-0.01432 z"
       id="path7" />
  </g>
</svg>
