<?xml version="1.0" encoding="UTF-8" standalone="no"?>
<svg
   width="62"
   height="62"
   version="1"
   id="svg3"
   sodipodi:docname="distributor-logo-manjaro.svg"
   inkscape:version="1.4 (e7c3feb100, 2024-10-09)"
   xmlns:inkscape="http://www.inkscape.org/namespaces/inkscape"
   xmlns:sodipodi="http://sodipodi.sourceforge.net/DTD/sodipodi-0.dtd"
   xmlns="http://www.w3.org/2000/svg"
   xmlns:svg="http://www.w3.org/2000/svg">
  <defs
     id="defs3" />
  <sodipodi:namedview
     id="namedview3"
     pagecolor="#ffffff"
     bordercolor="#000000"
     borderopacity="0.25"
     inkscape:showpageshadow="2"
     inkscape:pageopacity="0.0"
     inkscape:pagecheckerboard="0"
     inkscape:deskcolor="#d1d1d1"
     inkscape:zoom="11.6875"
     inkscape:cx="31.957219"
     inkscape:cy="32"
     inkscape:window-width="1920"
     inkscape:window-height="994"
     inkscape:window-x="0"
     inkscape:window-y="0"
     inkscape:window-maximized="1"
     inkscape:current-layer="svg3" />
  <g
     id="g3"
     transform="translate(-0.5,-1)">
    <path
       style="opacity:0.2;stroke-width:0.982303"
       d="M 6.75,4.982456 C 5.2264999,4.982456 4,6.209347 4,7.733333 V 57.24912 C 4,58.77311 5.2264999,60 6.75,60 H 20.696425 V 21.68421 H 39.357144 V 4.982456 Z m 35.553575,0 V 60 H 56.250007 C 57.773501,60 59,58.77311 59,57.24912 V 7.733333 C 59,6.209347 57.773501,4.982456 56.250007,4.982456 Z M 23.642856,24.63158 V 60 H 39.357144 V 24.63158 Z"
       id="path1" />
    <path
       style="fill:#16a085;stroke-width:0.982303"
       d="M 6.75,4 C 5.2264999,4 4,5.226891 4,6.750877 V 56.26667 c 0,1.52398 1.2264999,2.75087 2.75,2.75087 H 20.696425 V 20.70175 H 39.357144 V 4 Z M 42.303575,4 V 59.01754 H 56.250007 C 57.773501,59.01754 59,57.79065 59,56.26667 V 6.750877 C 59,5.226891 57.773501,4 56.250007,4 Z M 23.642856,23.64912 V 59.01754 H 39.357144 V 23.64912 Z"
       id="path2" />
    <path
       style="opacity:0.2;fill:#ffffff;stroke-width:0.982303"
       d="M 6.750767,4 C 5.2272679,4 4,5.2276593 4,6.7516442 v 0.982457 C 4,6.2101152 5.2272679,4.982456 6.750767,4.982456 H 39.357144 V 4 Z M 42.303575,4 V 4.982456 H 56.249236 C 57.77274,4.982456 59,6.2101153 59,7.7341012 V 6.7516442 C 59,5.2276593 57.77274,4 56.249236,4 Z M 23.642856,23.64912 v 0.98246 h 15.714288 v -0.98246 z"
       id="path3" />
  </g>
</svg>
