<?xml version="1.0" encoding="UTF-8" standalone="no"?>
<svg
   width="62"
   height="62"
   version="1.1"
   id="svg11"
   sodipodi:docname="docker-desktop.svg"
   inkscape:version="1.4 (e7c3feb100, 2024-10-09)"
   xmlns:inkscape="http://www.inkscape.org/namespaces/inkscape"
   xmlns:sodipodi="http://sodipodi.sourceforge.net/DTD/sodipodi-0.dtd"
   xmlns="http://www.w3.org/2000/svg"
   xmlns:svg="http://www.w3.org/2000/svg">
  <defs
     id="defs11" />
  <sodipodi:namedview
     id="namedview11"
     pagecolor="#ffffff"
     bordercolor="#000000"
     borderopacity="0.25"
     inkscape:showpageshadow="2"
     inkscape:pageopacity="0.0"
     inkscape:pagecheckerboard="0"
     inkscape:deskcolor="#d1d1d1"
     inkscape:zoom="11.6875"
     inkscape:cx="31.957219"
     inkscape:cy="32"
     inkscape:window-width="1920"
     inkscape:window-height="994"
     inkscape:window-x="0"
     inkscape:window-y="0"
     inkscape:window-maximized="1"
     inkscape:current-layer="svg11" />
  <g
     id="g11"
     transform="translate(-0.5,-1)">
    <ellipse
       style="opacity:0.2;stroke-width:0.982303"
       cx="31.499998"
       cy="32.491234"
       id="circle1"
       rx="27.499998"
       ry="27.508766" />
    <ellipse
       style="fill:#0f70bd;stroke-width:0.982303;fill-opacity:1"
       cx="31.499998"
       cy="31.508766"
       id="circle2"
       rx="27.499998"
       ry="27.508766" />
    <path
       style="opacity:0.2;stroke-width:0.982303"
       d="m 33.268625,17.754708 c -0.435287,0 -0.786482,0.351305 -0.786482,0.786731 v 2.356358 c 0,0.435426 0.351195,0.786731 0.786482,0.786731 h 2.355608 c 0.435286,0 0.786481,-0.351305 0.786481,-0.786731 v -2.356358 c 0,-0.435426 -0.351195,-0.786731 -0.786481,-0.786731 z m -9.821428,4.91228 c -0.435288,0 -0.786483,0.351306 -0.786483,0.786731 v 2.356358 c 0,0.435426 0.351195,0.786733 0.786483,0.786733 h 2.355608 c 0.435284,0 0.786483,-0.351307 0.786483,-0.786733 v -2.356358 c 0,-0.435425 -0.351199,-0.786731 -0.786483,-0.786731 z m 4.910714,0 c -0.435287,0 -0.786482,0.351306 -0.786482,0.786731 v 2.356358 c 0,0.435426 0.351195,0.786733 0.786482,0.786733 h 2.355609 c 0.435285,0 0.78648,-0.351307 0.78648,-0.786733 v -2.356358 c 0,-0.435425 -0.351195,-0.786731 -0.78648,-0.786731 z m 4.910714,0 c -0.435287,0 -0.786482,0.351306 -0.786482,0.786731 v 2.356358 c 0,0.435426 0.351195,0.786733 0.786482,0.786733 h 2.355608 c 0.435286,0 0.786481,-0.351307 0.786481,-0.786733 v -2.356358 c 0,-0.435425 -0.351195,-0.786731 -0.786481,-0.786731 z m 12.80814,2.202848 c -0.06614,1.9e-5 -0.610824,0.826718 -0.834438,1.266448 -0.542771,1.067249 -0.796072,2.055994 -0.796072,3.135416 -0.0024,0.978323 0.19104,1.2946 0.62343,2.097314 0.111959,0.207677 0.203336,0.390063 0.203336,0.404879 0,0.05766 -0.580052,0.28336 -1.068467,0.416392 -0.350213,0.0954 -1.087289,0.221461 -1.557615,0.266723 -0.279446,0.02673 -5.138772,0.04164 -14.127895,0.04221 -13.676977,8.74e-4 -13.702586,0.0012 -13.886195,0.08249 -0.407817,0.180778 -0.656083,0.469614 -0.76538,0.886514 -0.06884,0.266092 -0.05964,0.925414 0.02879,2.045503 0.252025,3.180023 1.253768,6.569759 2.791057,8.56195 1.241822,1.609366 2.634811,2.548857 4.801371,3.237117 1.512915,0.480607 3.062985,0.735151 5.359584,0.882674 0.410762,0.02625 2.565165,0.01614 3.084542,-0.01533 4.559584,-0.276783 8.508794,-1.574115 11.597728,-3.807018 3.07124,-2.22004 5.327051,-5.095146 7.112861,-9.469572 l 0.09397,-0.230263 h 0.397078 c 1.831287,-0.0033 3.456766,-0.607367 4.594204,-1.707785 0.445658,-0.431078 0.723732,-0.793201 0.982143,-1.272204 0.161985,-0.300076 0.393241,-0.864518 0.393241,-0.961348 0,-0.01587 -0.135195,-0.129685 -0.299245,-0.251369 -0.614623,-0.456018 -1.375226,-0.733966 -2.395893,-0.87692 -0.644403,-0.09026 -2.089514,-0.05441 -2.697057,0.06716 -0.103302,0.02059 -0.108103,0.01185 -0.159215,-0.27248 -0.245535,-1.355115 -1.205899,-3.012943 -2.438091,-3.906799 -0.307262,-0.222844 -0.972901,-0.621732 -1.037773,-0.621711 z m -27.540283,2.709432 c -0.435287,0 -0.786482,0.351307 -0.786482,0.786731 v 2.356359 c 0,0.435425 0.351195,0.786732 0.786482,0.786732 h 2.355609 c 0.435283,0 0.786482,-0.351307 0.786482,-0.786732 v -2.356359 c 0,-0.435424 -0.351199,-0.786731 -0.786482,-0.786731 z m 4.910715,0 c -0.435288,0 -0.786483,0.351307 -0.786483,0.786731 v 2.356359 c 0,0.435425 0.351195,0.786732 0.786483,0.786732 h 2.355608 c 0.435284,0 0.786483,-0.351307 0.786483,-0.786732 v -2.356359 c 0,-0.435424 -0.351199,-0.786731 -0.786483,-0.786731 z m 4.910714,0 c -0.435287,0 -0.786482,0.351307 -0.786482,0.786731 v 2.356359 c 0,0.435425 0.351195,0.786732 0.786482,0.786732 h 2.355609 c 0.435285,0 0.78648,-0.351307 0.78648,-0.786732 v -2.356359 c 0,-0.435424 -0.351195,-0.786731 -0.78648,-0.786731 z m 4.910714,0 c -0.435287,0 -0.786482,0.351307 -0.786482,0.786731 v 2.356359 c 0,0.435425 0.351195,0.786732 0.786482,0.786732 h 2.355608 c 0.435286,0 0.786481,-0.351307 0.786481,-0.786732 v -2.356359 c 0,-0.435424 -0.351195,-0.786731 -0.786481,-0.786731 z m 4.910714,0 c -0.435285,0 -0.786482,0.351307 -0.786482,0.786731 v 2.356359 c 0,0.435425 0.351197,0.786732 0.786482,0.786732 h 2.355607 c 0.435288,0 0.786483,-0.351307 0.786483,-0.786732 v -2.356359 c 0,-0.435424 -0.351195,-0.786731 -0.786483,-0.786731 z"
       id="path2" />
    <path
       style="fill:#ffffff;stroke-width:0.982303"
       d="m 26.848244,47.213542 c -2.296597,-0.147525 -3.846667,-0.403106 -5.359583,-0.883715 -2.16656,-0.688261 -3.55877,-1.626774 -4.800596,-3.236138 -1.537289,-1.992194 -2.540555,-5.38364 -2.792577,-8.563663 -0.08843,-1.120089 -0.09735,-1.779344 -0.02851,-2.045436 0.109294,-0.416898 0.358667,-0.705181 0.766481,-0.885959 0.183609,-0.08133 0.208968,-0.08153 13.885947,-0.0824 8.989125,-5.79e-4 13.848401,-0.01499 14.127849,-0.04179 0.470328,-0.04527 1.20683,-0.171415 1.557047,-0.266812 0.488411,-0.133032 1.06932,-0.359812 1.06932,-0.417437 0,-0.01478 -0.09144,-0.196888 -0.203365,-0.404565 -0.43239,-0.802712 -0.627303,-1.118967 -0.624943,-2.09729 0,-1.07942 0.253593,-2.068039 0.796366,-3.135288 0.223611,-0.439731 0.768151,-1.266142 0.834302,-1.266162 0.06485,-1.9e-5 0.731886,0.399914 1.039147,0.622758 1.232191,0.893856 2.192211,2.551531 2.437746,3.906644 0.05112,0.284316 0.05603,0.292495 0.159334,0.271875 0.607544,-0.121602 2.052935,-0.157782 2.697335,-0.06754 1.02067,0.142954 1.781155,0.421511 2.395778,0.877527 0.164053,0.121686 0.298221,0.234246 0.298221,0.250135 0,0.09686 -0.230888,0.662963 -0.392875,0.963039 -0.258409,0.479001 -0.537264,0.839542 -0.982924,1.27062 -1.137435,1.100418 -2.762208,1.704397 -4.593494,1.707635 l -0.396214,7.01e-4 -0.09434,0.231126 c -1.78581,4.374425 -4.041778,7.249283 -7.113016,9.469319 -3.088936,2.232903 -7.038911,3.528998 -11.598493,3.805779 -0.519377,0.03147 -2.673843,0.04338 -3.084607,0.01713 z"
       id="path3" />
    <rect
       style="fill:#ffffff;stroke-width:0.982303"
       width="3.9285712"
       height="3.9298239"
       x="17.750008"
       y="26.596485"
       ry="0.78596491"
       id="rect3" />
    <rect
       style="fill:#ffffff;stroke-width:0.982303"
       width="3.9285712"
       height="3.9298239"
       x="22.660719"
       y="26.596485"
       ry="0.78596491"
       id="rect4" />
    <rect
       style="fill:#ffffff;stroke-width:0.982303"
       width="3.9285712"
       height="3.9298239"
       x="27.57143"
       y="26.596485"
       ry="0.78596491"
       id="rect5" />
    <rect
       style="fill:#ffffff;stroke-width:0.982303"
       width="3.9285712"
       height="3.9298239"
       x="32.482151"
       y="26.596485"
       ry="0.78596491"
       id="rect6" />
    <rect
       style="fill:#ffffff;stroke-width:0.982303"
       width="3.9285712"
       height="3.9298239"
       x="37.392849"
       y="26.596485"
       ry="0.78596491"
       id="rect7" />
    <rect
       style="fill:#ffffff;stroke-width:0.982303"
       width="3.9285712"
       height="3.9298239"
       x="22.660719"
       y="21.684204"
       ry="0.78596491"
       id="rect8" />
    <rect
       style="fill:#ffffff;stroke-width:0.982303"
       width="3.9285712"
       height="3.9298239"
       x="27.57143"
       y="21.684204"
       ry="0.78596491"
       id="rect9" />
    <rect
       style="fill:#ffffff;stroke-width:0.982303"
       width="3.9285712"
       height="3.9298239"
       x="32.482151"
       y="21.684204"
       ry="0.78596491"
       id="rect10" />
    <rect
       style="fill:#ffffff;stroke-width:0.982303"
       width="3.9285712"
       height="3.9298239"
       x="32.482151"
       y="16.771927"
       ry="0.78596491"
       id="rect11" />
    <path
       style="opacity:0.2;fill:#ffffff;stroke-width:0.982303"
       d="M 31.5,4 A 27.5,27.508768 0 0 0 4,31.508768 27.5,27.508768 0 0 0 4.0345282,31.999996 27.5,27.508768 0 0 1 31.5,4.982456 27.5,27.508768 0 0 1 58.982736,31.756301 27.5,27.508768 0 0 0 59,31.508768 27.5,27.508768 0 0 0 31.5,4 Z"
       id="path11" />
  </g>
</svg>
