<?xml version="1.0" encoding="UTF-8" standalone="no"?>
<svg
   width="62"
   height="62"
   version="1"
   id="svg13"
   sodipodi:docname="eclipse-cdt.svg"
   inkscape:version="1.4 (e7c3feb100, 2024-10-09)"
   xmlns:inkscape="http://www.inkscape.org/namespaces/inkscape"
   xmlns:sodipodi="http://sodipodi.sourceforge.net/DTD/sodipodi-0.dtd"
   xmlns="http://www.w3.org/2000/svg"
   xmlns:svg="http://www.w3.org/2000/svg">
  <defs
     id="defs13" />
  <sodipodi:namedview
     id="namedview13"
     pagecolor="#ffffff"
     bordercolor="#000000"
     borderopacity="0.25"
     inkscape:showpageshadow="2"
     inkscape:pageopacity="0.0"
     inkscape:pagecheckerboard="0"
     inkscape:deskcolor="#d1d1d1"
     inkscape:zoom="11.75"
     inkscape:cx="32"
     inkscape:cy="32"
     inkscape:window-width="1920"
     inkscape:window-height="998"
     inkscape:window-x="0"
     inkscape:window-y="0"
     inkscape:window-maximized="1"
     inkscape:current-layer="svg13" />
  <g
     id="g13">
    <rect
       style="opacity:0.2;stroke-width:0.966519"
       width="2.9062483"
       height="10.607148"
       x="55.218739"
       y="26.17856"
       rx="0.72656208"
       ry="0.66342849"
       id="rect1" />
    <rect
       style="opacity:0.2;stroke-width:0.966519"
       width="2.9062483"
       height="10.607148"
       x="43.593735"
       y="26.17856"
       rx="0.72656208"
       ry="0.66342849"
       id="rect2" />
    <path
       style="opacity:0.2;stroke-width:0.966519"
       d="M 26.638009,4.9642857 C 11.880593,4.9642857 0,16.791245 0,31.482147 0,46.173035 11.880593,58 26.638009,58 33.286832,58 39.337369,55.587795 43.987969,51.600549 45.453624,50.343967 40.125282,50.262 41.287754,48.718748 L 31.963536,31.482147 43.951814,12.919643 C 41.997326,10.324943 43.569749,10.755346 40.80656,9.0214625 36.711455,6.4518161 31.859199,4.9642857 26.638009,4.9642857 Z"
       id="path2" />
    <path
       style="fill:#f7941e;stroke-width:0.966519"
       d="M 26.638009,4 C 11.880593,4 0,15.826964 0,30.517853 c 0,14.6909 11.880593,26.517866 26.638009,26.517866 6.648823,0 12.69936,-2.412218 17.34996,-6.39945 1.465655,-1.256595 -3.862687,-1.33855 -2.700215,-2.881799 L 31.963536,30.517853 43.951814,11.955353 C 41.997326,9.3606586 43.569749,9.7910586 40.80656,8.0571767 36.711455,5.4875304 31.859199,4 26.638009,4 Z"
       id="path3" />
    <path
       style="opacity:0.1;fill:#ffffff;stroke-width:0.966519"
       d="M 26.63872,4 C 11.881306,4 0,15.826964 0,30.517853 0,30.679508 0.00848746,30.839053 0.01135254,31 0.26885981,16.534171 12.043691,4.9642857 26.63872,4.9642857 c 5.221192,0 10.072867,1.4871338 14.167971,4.0567798 2.572406,1.6141595 1.421976,1.3837115 2.823,3.4333885 l 0.321653,-0.499101 C 41.996856,9.3606586 43.569882,9.7906633 40.806691,8.0567798 36.711587,5.4871336 31.859912,4 26.63872,4 Z m 5.608156,27.043321 -0.283807,0.438826 9.324214,17.236601 c -0.826974,1.097847 1.603808,1.460613 2.56377,2.028388 0.04478,-0.03786 0.09171,-0.07294 0.13624,-0.11112 1.465654,-1.256581 -3.862481,-1.338297 -2.70001,-2.881546 z"
       id="path4" />
    <path
       style="opacity:0.2;stroke-width:0.966519"
       d="M 32.450506,4.9642857 C 17.693092,4.9642857 5.812498,16.791245 5.812498,31.482147 5.812498,46.173035 17.693092,58 32.450506,58 39.828526,58 46.48717,55.041532 51.301869,50.249222 L 32.447916,31.482147 51.301869,12.715058 C 46.48717,7.922757 39.828526,4.9642857 32.450506,4.9642857 Z"
       id="path5" />
    <path
       style="fill:#4c3a91;stroke-width:0.966519"
       d="M 32.450506,4 C 17.693092,4 5.812498,15.826964 5.812498,30.517853 c 0,14.6909 11.880594,26.517866 26.638008,26.517866 7.37802,0 14.036664,-2.958481 18.851363,-7.750777 L 32.447916,30.517853 51.301869,11.750777 C 46.48717,6.9584714 39.828526,4 32.450506,4 Z"
       id="path6" />
    <path
       style="opacity:0.2;stroke-width:0.966519"
       d="M 32.453111,12.678573 A 18.890615,18.803568 0 0 0 15.46783,23.285715 H 7.106687 C 6.6899094,24.571372 6.3666814,25.898916 6.14929,27.263398 h 7.918391 a 18.890615,18.803568 0 0 0 -0.44275,2.772322 H 5.8522316 c -0.025612,0.478762 -0.039735,0.961081 -0.039735,1.446427 0,0.854129 0.042541,1.69824 0.121094,2.531244 h 7.8219004 a 18.890615,18.803568 0 0 0 0.58655,2.772323 H 6.3422829 c 0.2768064,1.368035 0.660677,2.695862 1.1390383,3.977683 h 8.5579158 a 18.890615,18.803568 0 0 0 16.413874,9.522317 18.890615,18.803568 0 0 0 13.346798,-5.512623 L 42.377125,41.36607 A 14.046873,13.982146 0 0 1 32.453111,45.46429 14.046873,13.982146 0 0 1 18.406249,31.482147 14.046873,13.982146 0 0 1 32.453111,17.5 a 14.046873,13.982146 0 0 1 9.924014,4.098209 l 3.422784,-3.407011 A 18.890615,18.803568 0 0 0 32.453111,12.678573 Z m 0,12.535712 a 6.2968734,6.2678576 0 0 0 -6.296864,6.267862 6.2968734,6.2678576 0 0 0 6.296864,6.267858 6.2968734,6.2678576 0 0 0 6.296875,-6.267858 6.2968734,6.2678576 0 0 0 -6.296875,-6.267862 z"
       id="path7" />
    <path
       style="fill:#ffffff;stroke-width:0.966519"
       d="M 32.453111,11.714286 A 18.890615,18.803568 0 0 0 15.46783,22.321434 H 7.106687 C 6.6899094,23.60708 6.3666814,24.934623 6.14929,26.299104 h 7.918391 a 18.890615,18.803568 0 0 0 -0.44275,2.772325 H 5.8522316 c -0.025612,0.478759 -0.039735,0.961094 -0.039735,1.446424 0,0.854129 0.042541,1.698242 0.121094,2.531259 h 7.8219004 a 18.890615,18.803568 0 0 0 0.58655,2.772322 H 6.3422829 c 0.2768064,1.368036 0.660677,2.695851 1.1390383,3.977669 h 8.5579158 a 18.890615,18.803568 0 0 0 16.413874,9.522333 18.890615,18.803568 0 0 0 13.346798,-5.512635 l -3.422784,-3.407012 a 14.046873,13.982146 0 0 1 -9.924014,4.09821 14.046873,13.982146 0 0 1 -14.046862,-13.982146 14.046873,13.982146 0 0 1 14.046862,-13.982133 14.046873,13.982146 0 0 1 9.924014,4.09821 l 3.422784,-3.407012 A 18.890615,18.803568 0 0 0 32.453111,11.714286 Z m 0,12.53572 a 6.2968734,6.2678576 0 0 0 -6.296864,6.267847 6.2968734,6.2678576 0 0 0 6.296864,6.267861 6.2968734,6.2678576 0 0 0 6.296875,-6.267861 6.2968734,6.2678576 0 0 0 -6.296875,-6.267847 z"
       id="path8" />
    <rect
       style="fill:#4c3a91;stroke-width:0.966519"
       width="2.9062483"
       height="10.607148"
       x="43.593735"
       y="25.214296"
       rx="0.72656208"
       ry="0.66342849"
       id="rect8" />
    <rect
       style="fill:#4c3a91;stroke-width:0.966519"
       width="2.9062483"
       height="10.607148"
       x="55.218739"
       y="25.214296"
       rx="0.72656208"
       ry="0.66342849"
       id="rect9" />
    <rect
       style="opacity:0.2;stroke-width:0.966519"
       width="2.8928566"
       height="10.656252"
       x="30.035723"
       y="-50.374996"
       rx="0.72321415"
       ry="0.66649967"
       transform="rotate(90)"
       id="rect10" />
    <rect
       style="fill:#4c3a91;stroke-width:0.966519"
       width="2.8928566"
       height="10.656252"
       x="29.071434"
       y="-50.374996"
       rx="0.72321415"
       ry="0.66649967"
       transform="rotate(90)"
       id="rect11" />
    <rect
       style="opacity:0.2;stroke-width:0.966519"
       width="2.8928566"
       height="10.656252"
       x="30.035723"
       y="-62"
       rx="0.72321415"
       ry="0.66649967"
       transform="rotate(90)"
       id="rect12" />
    <rect
       style="fill:#4c3a91;stroke-width:0.966519"
       width="2.8928566"
       height="10.656252"
       x="29.071434"
       y="-62"
       rx="0.72321415"
       ry="0.66649967"
       transform="rotate(90)"
       id="rect13" />
    <path
       style="opacity:0.1;fill:#ffffff;stroke-width:0.966519"
       d="M 32.451218,4 C 17.693804,4 5.812498,15.826964 5.812498,30.517853 c 0,0.161655 0.00852,0.3212 0.011355,0.482147 C 6.0813583,16.534171 17.85619,4.9642857 32.451218,4.9642857 c 7.130548,0 13.583623,2.7677794 18.355157,7.2792203 L 51.302112,11.75007 C 46.487399,6.9577642 39.829236,4 32.451218,4 Z m 0.480592,27 -0.484377,0.482147 18.358942,18.274347 c 0.165601,-0.156583 0.334236,-0.31011 0.495737,-0.470849 z"
       id="path13" />
  </g>
</svg>
