<?xml version="1.0" encoding="UTF-8" standalone="no"?>
<svg
   width="62"
   height="62"
   version="1.1"
   id="svg16"
   sodipodi:docname="eeschema-nightly.svg"
   inkscape:version="1.4 (e7c3feb100, 2024-10-09)"
   xmlns:inkscape="http://www.inkscape.org/namespaces/inkscape"
   xmlns:sodipodi="http://sodipodi.sourceforge.net/DTD/sodipodi-0.dtd"
   xmlns="http://www.w3.org/2000/svg"
   xmlns:svg="http://www.w3.org/2000/svg">
  <defs
     id="defs16" />
  <sodipodi:namedview
     id="namedview16"
     pagecolor="#ffffff"
     bordercolor="#000000"
     borderopacity="0.25"
     inkscape:showpageshadow="2"
     inkscape:pageopacity="0.0"
     inkscape:pagecheckerboard="0"
     inkscape:deskcolor="#d1d1d1"
     inkscape:zoom="12.109375"
     inkscape:cx="32"
     inkscape:cy="32"
     inkscape:window-width="1920"
     inkscape:window-height="998"
     inkscape:window-x="0"
     inkscape:window-y="0"
     inkscape:window-maximized="1"
     inkscape:current-layer="svg16" />
  <g
     id="g16"
     transform="translate(-3,-3)">
    <rect
       x="6"
       y="6"
       width="56"
       height="56"
       rx="8.6153851"
       ry="8.6153851"
       fill="#e9c6af"
       stroke-linejoin="round"
       stroke-width="2.33337"
       id="rect1" />
    <path
       d="m 32.923077,18.524615 a 1.0769231,1.0769231 0 0 0 -1.076923,1.076923 V 37.629231 A 1.0769231,1.0769231 0 0 0 32.923077,38.706154 1.0769231,1.0769231 0 0 0 34,37.629231 V 19.601538 a 1.0769231,1.0769231 0 0 0 -1.076923,-1.076923 z"
       color="#000000"
       fill="#545454"
       stroke-linecap="round"
       stroke-linejoin="round"
       style="stroke-width:1.07692;-inkscape-stroke:none"
       id="path1" />
    <path
       d="m 19.461538,13.538462 a 1.6153846,1.6153846 0 0 0 -1.615384,1.615384 1.6153846,1.6153846 0 0 0 1.615384,1.615385 h 6.000939 a 1.6153846,1.6153846 0 0 0 1.615385,-1.615385 1.6153846,1.6153846 0 0 0 -1.615385,-1.615384 z"
       color="#000000"
       fill="#5a5a5a"
       stroke-linecap="round"
       stroke-linejoin="round"
       style="stroke-width:1.07692;-inkscape-stroke:none"
       id="path2" />
    <path
       d="m 37.769231,46.923077 a 1.6153846,1.6153846 0 0 0 -1.615385,1.615385 1.6153846,1.6153846 0 0 0 1.615385,1.615384 h 10.123507 a 1.6153846,1.6153846 0 0 0 1.615385,-1.615384 1.6153846,1.6153846 0 0 0 -1.615385,-1.615385 z"
       color="#000000"
       fill="#5a5a5a"
       stroke-linecap="round"
       stroke-linejoin="round"
       style="stroke-width:1.07692;-inkscape-stroke:none"
       id="path3" />
    <path
       d="m 37.769231,41.538462 a 1.6153846,1.6153846 0 0 0 -1.615385,1.615384 1.6153846,1.6153846 0 0 0 1.615385,1.615385 h 6.074492 a 1.6153846,1.6153846 0 0 0 1.615385,-1.615385 1.6153846,1.6153846 0 0 0 -1.615385,-1.615384 z"
       color="#000000"
       fill="#5a5a5a"
       stroke-linecap="round"
       stroke-linejoin="round"
       style="stroke-width:1.07692;-inkscape-stroke:none"
       id="path4" />
    <path
       d="m 6,44.769231 v 2.153846 h 16.242154 v -2.153846 z"
       color="#000000"
       fill="#545454"
       stroke-linejoin="round"
       stroke-width="1.0429"
       style="-inkscape-stroke:none"
       id="path5" />
    <path
       d="m 24.846154,37.411692 a 1.6153846,1.6153846 0 0 0 -1.615385,1.615385 v 13.686615 a 1.6153846,1.6153846 0 0 0 1.615385,1.615385 1.6153846,1.6153846 0 0 0 1.615384,-1.615385 V 39.027077 a 1.6153846,1.6153846 0 0 0 -1.615384,-1.615385 z"
       color="#000000"
       fill="#333333"
       stroke-linecap="round"
       stroke-linejoin="round"
       style="stroke-width:1.07692;-inkscape-stroke:none"
       id="path6" />
    <path
       d="m 31.626462,30.769231 a 1.0769231,1.0769231 0 0 0 -1.076924,1.076923 1.0769231,1.0769231 0 0 0 1.076924,1.076923 H 42.835077 A 1.0769231,1.0769231 0 0 0 43.912,31.846154 1.0769231,1.0769231 0 0 0 42.835077,30.769231 Z"
       color="#000000"
       fill="#545454"
       stroke-linecap="round"
       stroke-linejoin="round"
       style="stroke-width:1.07692;-inkscape-stroke:none"
       id="path7" />
    <path
       d="M 31.846154,54.461538 V 62 H 34 v -7.538462 z"
       color="#000000"
       fill="#545454"
       stroke-linejoin="round"
       stroke-width="1.11989"
       style="-inkscape-stroke:none"
       id="path8" />
    <path
       class="cls-6"
       d="M 36.153846,31.847231 A 3.1215692,3.1886615 0 1 1 33.0326,28.658785 3.1215692,3.1886615 0 0 1 36.153846,31.847231 Z"
       fill="#333333"
       stroke-width="0.672668"
       id="path9" />
    <path
       class="cls-7"
       d="m 29.692308,6 v 15.386 c 0,0.426268 0.34356,0.767728 0.769827,0.767728 h 4.921862 c 0.426268,0 0.769828,-0.34146 0.769828,-0.767728 V 6 Z"
       fill="#db295b"
       stroke-width="1.21703"
       id="path10" />
    <path
       d="m 33.309692,36.831231 a 1.0769231,1.0769231 0 0 0 -0.814003,0.126204 l -8.034815,4.867154 a 1.0769231,1.0769231 0 0 0 -0.361782,1.478616 1.0769231,1.0769231 0 0 0 1.478616,0.363881 l 8.032769,-4.869308 a 1.0769231,1.0769231 0 0 0 0.363881,-1.478615 1.0769231,1.0769231 0 0 0 -0.664666,-0.487975 z"
       color="#000000"
       fill="#333333"
       stroke-linecap="round"
       stroke-linejoin="round"
       style="stroke-width:1.07692;-inkscape-stroke:none"
       id="path11" />
    <path
       d="m 24.753538,47.774923 a 1.0769231,1.0769231 0 0 0 -0.660455,0.496397 1.0769231,1.0769231 0 0 0 0.378603,1.474415 l 7.161969,4.242539 a 1.0769231,1.0769231 0 0 0 1.474416,-0.376503 1.0769231,1.0769231 0 0 0 -0.376503,-1.476569 l -7.16197,-4.242539 a 1.0769231,1.0769231 0 0 0 -0.816103,-0.117794 z"
       color="#000000"
       fill="#333333"
       stroke-linecap="round"
       stroke-linejoin="round"
       style="stroke-width:1.07692;-inkscape-stroke:none"
       id="path12" />
    <path
       d="m 19.128769,44.769231 a 1.0769231,1.0769231 0 0 0 -1.076923,1.076923 1.0769231,1.0769231 0 0 0 1.076923,1.076923 h 5.201646 a 1.0769231,1.0769231 0 0 0 1.076923,-1.076923 1.0769231,1.0769231 0 0 0 -1.076923,-1.076923 z"
       color="#000000"
       fill="#333333"
       stroke-linecap="round"
       stroke-linejoin="round"
       style="stroke-width:1.07692;-inkscape-stroke:none"
       id="path13" />
    <g
       transform="matrix(1.0769231,0,0,1.0769231,-0.46153846,-0.18809692)"
       stroke-linecap="round"
       stroke-linejoin="round"
       id="g15">
      <path
         d="m 32.121,51.104 c -0.3302,0.01846 -5.2377,0.45502 -5.26,0.30554 -0.02227,-0.14949 3.1727,-5.5249 3.3042,-5.5265 0.13149,-0.0016 2.065,5.0699 1.9558,5.221 z"
         color="#000000"
         fill="#db295b"
         style="-inkscape-stroke:none"
         id="path14" />
      <path
         d="m 30.164,45.783 c -5.13e-4,6e-6 -0.02674,0.0037 -0.02734,0.0039 -6.07e-4,1.7e-4 -0.01273,0.0036 -0.01758,0.0059 -0.0097,0.0046 -0.0161,0.0097 -0.02148,0.01367 -0.01076,0.008 -0.01813,0.01399 -0.02539,0.02148 -0.01451,0.01498 -0.02837,0.03334 -0.04492,0.05469 -0.0331,0.04269 -0.07442,0.10114 -0.125,0.17578 -0.10117,0.14929 -0.23731,0.35949 -0.39648,0.61328 -0.31834,0.50758 -0.73024,1.1853 -1.1367,1.8672 -0.40648,0.68184 -0.80648,1.3686 -1.1055,1.8945 -0.1495,0.26297 -0.27498,0.48552 -0.36133,0.64844 -0.04317,0.08146 -0.07608,0.14881 -0.09961,0.19922 -0.01176,0.02521 -0.0203,0.04545 -0.02734,0.06445 -0.0035,0.0095 -0.0071,0.01871 -0.0098,0.0293 -0.0013,0.0053 -0.003,0.01013 -0.0039,0.01758 -4.46e-4,0.0037 7.3e-5,0.0087 0,0.01367 -7.3e-5,0.005 -8.7e-5,0.01699 0,0.01758 8.7e-5,5.84e-4 0.0076,0.02482 0.0078,0.02539 2.36e-4,5.66e-4 0.0076,0.0156 0.01172,0.02148 0.0082,0.01176 0.01574,0.01953 0.02344,0.02539 0.01539,0.01172 0.02809,0.01561 0.03906,0.01953 0.02194,0.0078 0.04013,0.01066 0.0625,0.01367 0.04474,0.006 0.1014,0.0086 0.17188,0.0098 0.14095,0.0024 0.33708,-0.0016 0.57227,-0.01172 0.47038,-0.02028 1.0965,-0.06101 1.7324,-0.10742 1.2719,-0.09283 2.5953,-0.20848 2.7441,-0.2168 a 0.10001,0.10001 0 0 0 0.07617,-0.04102 c 0.03314,-0.04582 0.02417,-0.06761 0.02344,-0.08984 -7.27e-4,-0.02224 -0.0052,-0.04478 -0.0098,-0.07031 -0.0092,-0.05106 -0.02508,-0.11516 -0.04687,-0.19336 -0.04359,-0.1564 -0.11101,-0.36792 -0.19531,-0.61719 -0.1686,-0.49854 -0.4031,-1.1469 -0.64648,-1.791 -0.24338,-0.64407 -0.49466,-1.2826 -0.69336,-1.7617 -0.09935,-0.23958 -0.18547,-0.43862 -0.25195,-0.58008 -0.03324,-0.07073 -0.06195,-0.12826 -0.08594,-0.16992 -0.01199,-0.02083 -0.02228,-0.03636 -0.03516,-0.05273 -0.0064,-0.0082 -0.0136,-0.01759 -0.02539,-0.02734 -0.0059,-0.0049 -0.01232,-0.01025 -0.02344,-0.01563 -0.0056,-0.0027 -0.01896,-0.0057 -0.01953,-0.0059 -5.68e-4,-1.48e-4 -0.02878,-0.0039 -0.0293,-0.0039 z m -0.0098,0.26562 c 0.01505,0.02914 0.02729,0.05207 0.04687,0.09375 0.064,0.13617 0.14934,0.33425 0.24805,0.57227 0.19741,0.47603 0.44862,1.1134 0.69141,1.7559 0.24279,0.6425 0.4772,1.2904 0.64453,1.7852 0.08367,0.2474 0.1516,0.45757 0.19336,0.60742 0.01783,0.06399 0.02719,0.10941 0.03516,0.14844 -0.25256,0.01693 -1.4215,0.11972 -2.6445,0.20898 -0.635,0.04635 -1.2602,0.08731 -1.7266,0.10742 -0.23318,0.01005 -0.42756,0.01398 -0.56055,0.01172 -0.03674,-6.26e-4 -0.05548,-0.0023 -0.08203,-0.0039 0.0207,-0.04288 0.04438,-0.09281 0.08008,-0.16016 0.08463,-0.15967 0.20847,-0.38056 0.35742,-0.64258 0.29791,-0.52404 0.6976,-1.2097 1.1035,-1.8906 0.40592,-0.6809 0.81777,-1.3579 1.1348,-1.8633 0.1585,-0.25271 0.29394,-0.46381 0.39258,-0.60938 0.03604,-0.05318 0.06072,-0.08673 0.08594,-0.12109 z"
         color="#000000"
         fill="#e10b4f"
         style="-inkscape-stroke:none"
         id="path15" />
    </g>
    <path
       d="m 48.302615,30.769231 v 2.153846 H 62 v -2.153846 z"
       color="#000000"
       fill="#545454"
       stroke-linejoin="round"
       stroke-width="0.991523"
       style="-inkscape-stroke:none"
       id="path16" />
    <rect
       class="cls-7"
       transform="rotate(90)"
       x="28.615385"
       y="-53.384617"
       width="6.4615383"
       height="12.923077"
       ry="0.53846157"
       fill="#db295b"
       id="rect16"
       style="stroke-width:1.07692" />
  </g>
</svg>
