<?xml version="1.0" encoding="UTF-8" standalone="no"?>
<svg
   height="62"
   width="62"
   version="1.1"
   id="svg1886"
   sodipodi:docname="electron.svg"
   inkscape:version="1.4 (e7c3feb100, 2024-10-09)"
   xmlns:inkscape="http://www.inkscape.org/namespaces/inkscape"
   xmlns:sodipodi="http://sodipodi.sourceforge.net/DTD/sodipodi-0.dtd"
   xmlns:xlink="http://www.w3.org/1999/xlink"
   xmlns="http://www.w3.org/2000/svg"
   xmlns:svg="http://www.w3.org/2000/svg">
  <defs
     id="defs1890">
    <linearGradient
       id="m"
       x1="68.210472"
       x2="148.52051"
       y1="177.75131"
       y2="258.06134"
       gradientUnits="userSpaceOnUse"
       gradientTransform="matrix(0.37626177,0,0,0.37626188,-16.518336,-57.726176)">
      <stop
         stop-color="#59f"
         offset="0"
         id="stop3371" />
      <stop
         stop-color="#06f"
         offset="1"
         id="stop3373" />
    </linearGradient>
    <linearGradient
       id="l"
       x1="220.30621"
       x2="54.439178"
       y1="207.9187"
       y2="42.051666"
       gradientTransform="matrix(0.16799417,0,0,0.1635966,5.9313038,-1.9414957)"
       gradientUnits="userSpaceOnUse"
       xlink:href="#a-3" />
    <linearGradient
       id="a-3">
      <stop
         stop-color="#2a7fff"
         offset="0"
         id="stop3327"
         style="stop-color:#00ccff;stop-opacity:1" />
      <stop
         stop-color="#0cf"
         offset="1"
         id="stop3329"
         style="stop-color:#0088aa;stop-opacity:1" />
    </linearGradient>
    <linearGradient
       id="linearGradient2356">
      <stop
         offset="0"
         id="stop2" />
      <stop
         offset="1"
         stop-opacity="0"
         id="stop4" />
    </linearGradient>
    <linearGradient
       id="linearGradient1978"
       x1="-59.235001"
       x2="-59.235001"
       y1="0.70410001"
       y2="-11.929"
       gradientTransform="matrix(2.8862356,0,0,2.8862362,194.46533,42.90783)"
       gradientUnits="userSpaceOnUse">
      <stop
         stop-color="#0fd3cd"
         offset="0"
         id="stop2-3" />
      <stop
         stop-color="#52ffb9"
         offset="1"
         id="stop4-6"
         style="stop-color:#80b3ff;stop-opacity:1" />
    </linearGradient>
    <linearGradient
       id="linearGradient1988"
       x1="-59.235001"
       x2="-59.235001"
       y1="0.70410001"
       y2="-11.929"
       gradientTransform="matrix(2.4166181,0,0,2.4166186,166.70888,39.830849)"
       gradientUnits="userSpaceOnUse">
      <stop
         stop-color="#00a0a2"
         offset="0"
         id="stop7" />
      <stop
         stop-color="#2fde8b"
         offset="1"
         id="stop9"
         style="stop-color:#00ccff;stop-opacity:1" />
    </linearGradient>
    <filter
       id="filter1877"
       x="-0.027478283"
       y="-0.021303294"
       width="1.0549566"
       height="1.0426066"
       color-interpolation-filters="sRGB">
      <feGaussianBlur
         stdDeviation="0.072702461"
         id="feGaussianBlur12" />
    </filter>
    <linearGradient
       id="k"
       x1="430.56"
       x2="433.31"
       y1="536.57001"
       y2="524.16998"
       gradientTransform="matrix(1.3951511,0,0,1.3951514,-578.18825,-716.37433)"
       gradientUnits="userSpaceOnUse">
      <stop
         stop-color="#c4e7f9"
         offset="0"
         id="stop15" />
      <stop
         stop-color="#edfafd"
         offset="1"
         id="stop17" />
    </linearGradient>
    <linearGradient
       xlink:href="#linearGradient4202"
       id="linearGradient4208"
       x1="407.79285"
       y1="520.55933"
       x2="408.57147"
       y2="543.7981"
       gradientUnits="userSpaceOnUse"
       gradientTransform="matrix(1.0749997,0,0,1.0499999,-415.21421,-525.98795)" />
    <linearGradient
       id="linearGradient4202">
      <stop
         style="stop-color:#a17bdb;stop-opacity:1;"
         offset="0"
         id="stop7-3" />
      <stop
         style="stop-color:#00ccff;stop-opacity:1;"
         offset="1"
         id="stop9-6" />
    </linearGradient>
    <linearGradient
       xlink:href="#linearGradient2356"
       id="linearGradient4348"
       x1="15.319"
       y1="12.214"
       x2="39.408001"
       y2="36.303001"
       gradientUnits="userSpaceOnUse"
       gradientTransform="matrix(1.0489731,0,0,1.0499998,-1.1942074,-1.2)" />
  </defs>
  <sodipodi:namedview
     id="namedview1888"
     pagecolor="#ffffff"
     bordercolor="#666666"
     borderopacity="1.0"
     inkscape:showpageshadow="2"
     inkscape:pageopacity="0.0"
     inkscape:pagecheckerboard="0"
     inkscape:deskcolor="#d1d1d1"
     showgrid="false"
     inkscape:zoom="9.8333334"
     inkscape:cx="16.220339"
     inkscape:cy="33.762712"
     inkscape:window-width="1920"
     inkscape:window-height="994"
     inkscape:window-x="0"
     inkscape:window-y="0"
     inkscape:window-maximized="1"
     inkscape:current-layer="svg1886" />
  <linearGradient
     id="a">
    <stop
       offset="0"
       id="stop1845" />
    <stop
       offset="1"
       stop-opacity="0"
       id="stop1847" />
  </linearGradient>
  <linearGradient
     id="b"
     gradientUnits="userSpaceOnUse"
     x1="16"
     x2="34.942001"
     xlink:href="#a"
     y1="11"
     y2="29.941999" />
  <linearGradient
     id="c"
     gradientTransform="rotate(45)"
     gradientUnits="userSpaceOnUse"
     x1="31.021"
     x2="43.104"
     xlink:href="#a"
     y1="-9.8959999"
     y2="-9.8959999" />
  <linearGradient
     id="d"
     gradientUnits="userSpaceOnUse"
     x1="23.716"
     x2="26.348"
     xlink:href="#a"
     y1="13.219"
     y2="15.851" />
  <linearGradient
     id="e"
     gradientTransform="matrix(1.0454421,0,0,1.0298842,46.076843,3.856842)"
     gradientUnits="userSpaceOnUse"
     x1="-45.221867"
     x2="0.69172603"
     y1="-4.91011"
     y2="41.697075">
    <stop
       offset="0"
       stop-color="#2bc0ff"
       id="stop1853" />
    <stop
       offset="1"
       stop-color="#1d99f3"
       id="stop1855" />
  </linearGradient>
  <g
     id="g1"
     transform="matrix(1.3333333,0,0,1.3333333,96.988696,17.038384)">
    <path
       style="opacity:0.72093023;stroke-width:0.743396;fill:#2c324d;fill-opacity:1"
       d="m -49.491525,-9.791946 a 21,20.631577 0 0 0 -21,20.631582 21,20.631577 0 0 0 21,20.631576 21,20.631577 0 0 0 21,-20.631576 21,20.631577 0 0 0 -21,-20.631582 z"
       id="path1" />
    <path
       style="fill:#2c324d;fill-opacity:1;stroke-width:0.743396"
       d="m -49.491525,-10.528788 a 21,20.631577 0 0 0 -21,20.631578 21,20.631577 0 0 0 21,20.631576 21,20.631577 0 0 0 21,-20.631576 21,20.631577 0 0 0 -21,-20.631578 z"
       id="path2" />
    <path
       style="opacity:0.2;stroke-width:0.743396"
       d="m -48.688803,-5.3696405 a 2.2499992,2.2105256 0 0 0 -0.158179,0.0018 2.2499992,2.2105256 0 0 0 -1.842791,1.102375 2.2499992,2.2105256 0 0 0 0.823246,3.019331 2.2499992,2.2105256 0 0 0 2.3086,-0.03596 c 0.681447,0.726604 1.302699,1.648985 1.842775,2.722861 -2.817066,0.925058 -5.860709,2.456272 -8.589846,4.328945 -1.752139,1.20228 -3.170503,2.712742 -4.275875,4.3361465 -0.04694,-0.0571 -0.100539,-0.1124055 -0.146491,-0.1698185 -2.224606,-2.778763 -3.156504,-5.779244 -2.367179,-7.631782 0.409367,-0.960842 0.971454,-1.374704 1.678709,-1.58882 0.707249,-0.214112 1.593864,-0.17278 2.463874,0.01733 1.74,0.380108 3.322246,1.306745 3.322246,1.306745 a 0.75053335,0.73736606 0 1 0 0.776369,-1.26216 c 0,0 -1.723793,-1.036013 -3.77343,-1.48376 -0.512429,-0.11195 -1.05166,-0.189084 -1.596673,-0.19861 -0.545028,-0.0095 -1.095208,0.04861 -1.633315,0.211558 -1.07618,0.325812 -2.065276,1.122452 -2.622058,2.429274 -1.143049,2.682781 0.161311,6.097877 2.573715,9.1112215 0.158276,0.197696 0.335466,0.388462 0.503918,0.582856 -1.005878,1.799192 -1.637884,3.669556 -1.91896,5.382399 a 2.2499992,2.2105256 0 0 0 -1.671383,2.132779 2.2499992,2.2105256 0 0 0 2.250008,2.210524 2.2499992,2.2105256 0 0 0 2.249995,-2.210524 2.2499992,2.2105256 0 0 0 -1.316891,-2.009042 c 0.248624,-1.3506 0.749832,-2.850273 1.513189,-4.326066 2.289186,2.255337 5.235072,4.137657 8.453601,4.995263 1.945776,0.518465 3.933968,0.645533 5.778802,0.568468 -0.138186,0.602197 -0.291876,1.183388 -0.476068,1.715457 -0.481756,1.391734 -1.119344,2.508789 -1.851556,3.232321 -0.732217,0.723534 -1.5173,1.071342 -2.493165,1.033307 -2.151597,-0.08386 -3.37024,-1.051233 -4.133781,-2.020581 -0.76354,-0.969363 -0.996095,-1.891047 -0.996095,-1.891047 a 0.75007511,0.73691585 0 1 0 -1.45605,0.351137 c 0,0 0.304146,1.221612 1.26561,2.442228 0.961471,1.220619 2.65547,2.488923 5.26026,2.590463 1.402322,0.05469 2.654534,-0.515738 3.616713,-1.46649 0.962152,-0.950753 1.676124,-2.262823 2.207515,-3.797902 0.248956,-0.719234 0.454864,-1.492525 0.624004,-2.301196 1.528529,-0.161387 2.874328,-0.44375 3.962414,-0.729642 a 2.2499992,2.2105256 0 0 0 2.916499,0.57997 2.2499992,2.2105256 0 0 0 0.823245,-3.019322 2.2499992,2.2105256 0 0 0 -2.000969,-1.105271 2.2499992,2.2105256 0 0 0 -1.072273,0.296475 2.2499992,2.2105256 0 0 0 -1.122059,1.821956 c -0.897507,0.219869 -2.008419,0.440983 -3.234386,0.592926 0.316469,-2.251213 0.362335,-4.716566 0.146478,-7.1741375 -0.216583,-2.46608 -0.727481,-4.865561 -1.532224,-6.961142 0.0209,-0.0055 0.04351,-0.0122 0.06454,-0.01734 1.511287,-0.360251 2.85238,-0.462191 3.83789,-0.295021 0.985515,0.16717 1.567462,0.536948 1.886718,1.191605 1.521953,3.120961 -1.007806,6.536594 -1.007806,6.536594 a 0.7502945,0.73713134 0 0 0 1.201168,0.8836425 c 0,0 3.128235,-4.0175515 1.158698,-8.0563335 -0.55363,-1.135277 -1.686193,-1.787478 -2.983892,-2.007608 -0.648859,-0.110061 -1.349931,-0.129583 -2.094731,-0.07204 -0.744791,0.05761 -1.532842,0.19174 -2.352542,0.387132 -0.09924,0.0236 -0.203077,0.05659 -0.303213,0.082 -0.656103,-1.360322 -1.456326,-2.54415 -2.400892,-3.471226 a 2.2499992,2.2105256 0 0 0 -1.01371,-2.599073 2.2499992,2.2105256 0 0 0 -1.072268,-0.295024 z m 3.58449,8.164275 c 0.782203,1.958908 1.323214,4.259747 1.533681,6.656044 0.218389,2.4864425 0.143658,4.9856235 -0.199219,7.2000415 -1.834544,0.113305 -3.818575,0.02665 -5.679193,-0.469161 -3.039452,-0.809891 -5.914314,-2.692442 -8.078616,-4.908923 1.034633,-1.6207055 2.393268,-3.1377135 4.08106,-4.2958625 2.657914,-1.82381 5.662808,-3.31584 8.342287,-4.182139 z m -4.387212,5.097448 c -1.646773,0 -3.000001,1.329479 -3.000001,2.9473655 0,1.617875 1.353228,2.947371 3.000001,2.947371 1.646768,0 3.000009,-1.329496 3.000009,-2.947371 0,-1.6178865 -1.353241,-2.9473655 -3.000009,-2.9473655 z"
       id="path3" />
    <path
       style="fill:none;stroke:#00b5d9;stroke-width:1.48675;stroke-linecap:round;stroke-opacity:1"
       d="m -38.226525,9.4838475 c 0,0 2.828746,-3.716346 1.083006,-7.296212 -1.745746,-3.579869 -10.218664,-1.020557 -16.732467,3.449083 -4.689354,3.217716 -6.947947,8.8900955 -6.865537,12.5713445"
       id="path4" />
    <path
       style="fill:none;stroke:#00afd1;stroke-width:1.48675;stroke-linecap:round;stroke-opacity:1"
       d="m -54.741516,19.681739 c 0,0 1.071817,4.287223 5.82822,4.472623 4.756391,0.18542 6.772321,-7.72605 6.089275,-15.5030175 -0.491717,-5.598705 -2.63132,-10.778051 -5.917498,-12.548542"
       id="path5" />
    <path
       style="fill:none;stroke:#00b4d8;stroke-width:1.48675;stroke-linecap:round;stroke-opacity:1"
       d="m -53.24153,0.6712095 c 0,0 -6.613151,-3.923368 -8.545488,0.611968 -1.932358,4.535342 4.473728,12.8302435 12.141958,14.8735055 5.352569,1.426229 11.357535,-0.276975 12.903542,-0.896"
       id="path6" />
    <path
       style="fill:#00aed1;fill-opacity:1;stroke-width:0.743396"
       d="m -49.491525,7.1554215 c -1.646773,0 -3.000001,1.329487 -3.000001,2.9473685 0,1.617875 1.353228,2.947375 3.000001,2.947375 1.646768,0 3.000009,-1.3295 3.000009,-2.947375 0,-1.6178815 -1.353241,-2.9473685 -3.000009,-2.9473685 z"
       id="path7" />
    <path
       style="opacity:1;fill:#4b5481;stroke-width:0.743396;fill-opacity:1"
       d="m -49.491525,-10.528788 a 21,20.631577 0 0 0 -21,20.631578 21,20.631577 0 0 0 0.01611,0.299333 21,20.631577 0 0 1 20.98389,-20.194069 21,20.631577 0 0 1 20.983884,20.320734 21,20.631577 0 0 0 0.01612,-0.425998 21,20.631577 0 0 0 -21,-20.631578 z"
       id="path8" />
    <path
       style="fill:#00b4d8;fill-opacity:1;stroke-width:0.743396"
       d="m -48.846982,-6.1048575 a 2.2499992,2.2105256 0 0 0 -1.842791,1.102381 2.2499992,2.2105256 0 0 0 0.823246,3.019324 2.2499992,2.2105256 0 0 0 3.073251,-0.808785 2.2499992,2.2105256 0 0 0 -0.823256,-3.019333 2.2499992,2.2105256 0 0 0 -1.23045,-0.293587 z m 12.052731,19.1550225 a 2.2499992,2.2105256 0 0 0 -1.072273,0.296464 2.2499992,2.2105256 0 0 0 -0.823227,3.019329 2.2499992,2.2105256 0 0 0 3.073224,0.808787 2.2499992,2.2105256 0 0 0 0.823245,-3.019331 2.2499992,2.2105256 0 0 0 -2.000969,-1.105249 z m -23.947272,2.947356 a 2.2499992,2.2105256 0 0 0 -2.250008,2.210541 2.2499992,2.2105256 0 0 0 2.250008,2.210523 2.2499992,2.2105256 0 0 0 2.249995,-2.210523 2.2499992,2.2105256 0 0 0 -2.249995,-2.210541 z"
       id="path9" />
    <path
       style="fill:#494c60;stroke-width:0.743396"
       d="m -48.741519,-4.6340425 a 0.74999997,0.73684204 0 0 0 -0.750006,0.736845 0.74999997,0.73684204 0 0 0 0.750006,0.736825 0.74999997,0.73684204 0 0 0 0.749986,-0.736825 0.74999997,0.73684204 0 0 0 -0.749986,-0.736845 z m 12.000001,19.1578895 a 0.74999997,0.73684204 0 0 0 -0.75001,0.736835 0.74999997,0.73684204 0 0 0 0.75001,0.736838 0.74999997,0.73684204 0 0 0 0.749995,-0.736838 0.74999997,0.73684204 0 0 0 -0.749995,-0.736835 z m -24.000005,2.947362 a 0.74999997,0.73684204 0 0 0 -0.750003,0.736853 0.74999997,0.73684204 0 0 0 0.750003,0.736844 0.74999997,0.73684204 0 0 0 0.750006,-0.736844 0.74999997,0.73684204 0 0 0 -0.750006,-0.736853 z"
       id="path10" />
  </g>
</svg>
