<?xml version="1.0" encoding="UTF-8" standalone="no"?>
<svg
   clip-rule="evenodd"
   fill-rule="evenodd"
   stroke-linejoin="round"
   stroke-miterlimit="2"
   viewBox="0 0 62 62"
   version="1.1"
   id="svg3"
   sodipodi:docname="app.zen_browser.zen.svg"
   width="62"
   height="62"
   inkscape:version="1.4 (unknown)"
   xmlns:inkscape="http://www.inkscape.org/namespaces/inkscape"
   xmlns:sodipodi="http://sodipodi.sourceforge.net/DTD/sodipodi-0.dtd"
   xmlns:xlink="http://www.w3.org/1999/xlink"
   xmlns="http://www.w3.org/2000/svg"
   xmlns:svg="http://www.w3.org/2000/svg">
  <defs
     id="defs3">
    <linearGradient
       id="linearGradient6">
      <stop
         offset="0"
         style="stop-color:#dbdbdb;stop-opacity:0;"
         id="stop5" />
      <stop
         offset="1"
         style="stop-color:#000000;stop-opacity:1;"
         id="stop6" />
    </linearGradient>
    <linearGradient
       id="linearGradient3"
       inkscape:collect="always">
      <stop
         style="stop-color:#334c66;stop-opacity:1;"
         offset="0"
         id="stop3" />
      <stop
         style="stop-color:#2d3c53;stop-opacity:1;"
         offset="1"
         id="stop4" />
    </linearGradient>
    <filter
       id="b-3-36"
       width="1.2393739"
       height="1.1966286"
       x="-0.11968695"
       y="-0.098314282"
       color-interpolation-filters="sRGB">
      <feGaussianBlur
         stdDeviation="1.147"
         id="feGaussianBlur7-6" />
    </filter>
    <filter
       id="b-3-36-6"
       width="1.2393739"
       height="1.1966286"
       x="-0.11968695"
       y="-0.098314282"
       color-interpolation-filters="sRGB">
      <feGaussianBlur
         stdDeviation="1.147"
         id="feGaussianBlur7-6-7" />
    </filter>
    <linearGradient
       inkscape:collect="always"
       xlink:href="#linearGradient3"
       id="linearGradient4"
       x1="31.996025"
       y1="5.0983038"
       x2="32.182014"
       y2="58.017544"
       gradientUnits="userSpaceOnUse" />
    <linearGradient
       id="linearGradient4306">
      <stop
         offset="0"
         style="stop-color:#000000;stop-opacity:0;"
         id="stop12" />
      <stop
         offset="1"
         style="stop-color:#000000;stop-opacity:1;"
         id="stop14" />
    </linearGradient>
    <radialGradient
       xlink:href="#linearGradient4324"
       id="radialGradient4340-3"
       cx="-12"
       cy="12"
       fx="-12"
       fy="12"
       r="4"
       gradientUnits="userSpaceOnUse"
       gradientTransform="matrix(1.235291,0,0,1.235291,-1.3530054,1.3530246)" />
    <linearGradient
       id="linearGradient4324">
      <stop
         style="stop-color:#eff1f1;stop-opacity:1"
         offset="0"
         id="stop7" />
      <stop
         style="stop-color:#ececec;stop-opacity:1;"
         offset="1"
         id="stop9" />
    </linearGradient>
    <linearGradient
       id="linearGradient4167">
      <stop
         style="stop-color:#ffffff;stop-opacity:0"
         offset="0"
         id="stop2-3" />
      <stop
         style="stop-color:#ffffff;stop-opacity:1"
         offset="1"
         id="stop4-6" />
    </linearGradient>
    <radialGradient
       xlink:href="#linearGradient4324"
       id="radialGradient4188-1"
       gradientUnits="userSpaceOnUse"
       cx="-12"
       cy="12"
       fx="-12"
       fy="12"
       r="4"
       gradientTransform="matrix(1.235291,0,0,1.235291,-16.176495,16.176515)" />
    <radialGradient
       xlink:href="#linearGradient4324"
       id="radialGradient4202-2"
       gradientUnits="userSpaceOnUse"
       cx="-12"
       cy="12"
       fx="-12"
       fy="12"
       r="4"
       gradientTransform="matrix(1.235291,0,0,1.235291,-30.999989,31.000009)" />
    <linearGradient
       xlink:href="#linearGradient4816"
       id="linearGradient4503-0-3"
       y1="37"
       y2="4"
       x2="0"
       gradientUnits="userSpaceOnUse"
       gradientTransform="matrix(1.0499998,0,0,1.0499998,9.2502391,54.800003)" />
    <linearGradient
       id="linearGradient4816">
      <stop
         style="stop-color:#da4453"
         id="stop1439" />
      <stop
         offset="1"
         style="stop-color:#ff7336"
         id="stop1441" />
    </linearGradient>
    <linearGradient
       id="linearGradient4279">
      <stop
         id="stop1432" />
      <stop
         offset="1"
         style="stop-opacity:0"
         id="stop1434" />
    </linearGradient>
    <linearGradient
       id="c"
       y1="513.38"
       x1="399.98999"
       y2="537.38"
       x2="424.98999"
       gradientUnits="userSpaceOnUse"
       gradientTransform="translate(-464.04842,-560.44526)">
      <stop
         stop-color="#292c2f"
         id="stop12-3" />
      <stop
         offset="1"
         stop-opacity="0"
         id="stop14-6" />
    </linearGradient>
    <linearGradient
       id="b"
       y1="35"
       x1="42"
       y2="12"
       x2="22"
       gradientUnits="userSpaceOnUse"
       gradientTransform="translate(-75.064419,-59.059262)">
      <stop
         stop-color="#197cf1"
         id="stop7-7" />
      <stop
         offset="1"
         stop-color="#20bcfa"
         id="stop9-5" />
    </linearGradient>
    <linearGradient
       id="a-3"
       y1="35"
       x1="23"
       y2="13"
       x2="5"
       gradientUnits="userSpaceOnUse"
       gradientTransform="translate(-79.064419,-59.059262)">
      <stop
         stop-color="#c61423"
         id="stop2-5" />
      <stop
         offset="1"
         stop-color="#dc2b41"
         id="stop4-62" />
    </linearGradient>
  </defs>
  <sodipodi:namedview
     id="namedview3"
     pagecolor="#ffffff"
     bordercolor="#000000"
     borderopacity="0.25"
     inkscape:showpageshadow="2"
     inkscape:pageopacity="0.0"
     inkscape:pagecheckerboard="0"
     inkscape:deskcolor="#d1d1d1"
     inkscape:zoom="5.5095405"
     inkscape:cx="17.878079"
     inkscape:cy="59.623847"
     inkscape:window-width="1920"
     inkscape:window-height="1000"
     inkscape:window-x="0"
     inkscape:window-y="0"
     inkscape:window-maximized="1"
     inkscape:current-layer="svg3" />
  <linearGradient
     id="a"
     x2="1"
     gradientTransform="matrix(0,-43.53155,43.53155,0,1192.407,51.589413)"
     gradientUnits="userSpaceOnUse">
    <stop
       stop-color="#161616"
       offset="0"
       id="stop1" />
    <stop
       stop-color="#343434"
       offset="1"
       id="stop2" />
  </linearGradient>
  <g
     id="g3"
     transform="translate(3.487626,-1.843205)" />
  <rect
     style="opacity:0.2;stroke-width:0.9823"
     width="55"
     height="55.017544"
     x="3.5"
     y="3.9824562"
     rx="8.25"
     ry="8.2526312"
     id="rect1-3" />
  <rect
     style="fill:url(#linearGradient4);stroke-width:0.9823"
     width="55"
     height="55.017544"
     x="3.5"
     y="3"
     rx="8.25"
     ry="8.2526312"
     id="rect2-5" />
  <path
     style="opacity:0.1;fill:#ffffff;stroke-width:0.9823"
     d="M 11.748466,3 C 7.1779651,3 3.4999999,6.6791384 3.4999999,11.251097 v 0.982456 c 0,-4.5719585 3.6779652,-8.2510968 8.2484661,-8.2510968 h 38.503068 c 4.5705,0 8.248466,3.6791383 8.248466,8.2510968 V 11.251097 C 58.5,6.6791384 54.822034,3 50.251534,3 Z"
     id="path4-6" />
  <g
     id="g1"
     transform="matrix(0.81796472,0,0,0.82142856,16.679651,-17.464285)">
    <rect
       style="opacity:0.2;stroke-width:0.982366"
       width="19.252382"
       height="64.173965"
       x="20.061987"
       y="-86.535179"
       rx="4.8126049"
       ry="4.8126049"
       transform="rotate(135)"
       id="rect1" />
    <rect
       style="fill:#cccccc;stroke-width:0.982366"
       width="19.252382"
       height="64.173965"
       x="19.364508"
       y="-85.837723"
       rx="4.8126049"
       ry="4.8126049"
       transform="rotate(135)"
       id="rect2" />
    <rect
       style="opacity:0.2;stroke-width:0.982366"
       width="19.252382"
       height="64.173965"
       x="44.814159"
       y="-2.4046965"
       rx="4.8126049"
       ry="4.8126049"
       transform="rotate(45)"
       id="rect3" />
    <rect
       style="fill:#e4e4e4;stroke-width:0.982366"
       width="19.252382"
       height="64.173965"
       x="44.126503"
       y="-3.0923524"
       rx="4.8126049"
       ry="4.8126049"
       transform="rotate(45)"
       id="rect4" />
    <path
       style="fill:#9d7ed5;stroke-width:0.982366"
       d="m 1.6225579,31.000001 c -0.1951645,0 -0.3888779,0.03272 -0.5828949,0.05641 L 17.505786,55.755596 33.971907,31.053724 C 33.777907,31.030005 33.584145,31 33.389012,31 c -1.230321,0 -2.460639,0.470194 -3.403357,1.412917 L 17.505786,44.892784 5.0259146,32.412918 C 4.0831951,31.470195 2.852859,31.000001 1.6225579,31.000001 Z"
       id="path4" />
    <path
       style="fill:#9d7ed5;stroke-width:0.982366"
       d="M 17.505786,61.256834 1.039663,85.9587 c 0.1939877,0.02374 0.3877613,0.05373 0.5828949,0.05373 1.2303187,0 2.4606372,-0.470199 3.4033567,-1.412916 L 17.505786,72.119641 29.985655,84.599512 c 0.942718,0.942717 2.173036,1.412917 3.403357,1.412917 0.195135,0 0.388905,-0.03004 0.582895,-0.05369 z"
       id="path5" />
    <path
       style="opacity:0.1;fill:#ffffff;stroke-width:0.982366"
       d="m 1.622944,31.000002 c -1.23030078,0 -2.46102015,0.473268 -3.4037398,1.415985 l -6.8036439,6.803645 c -1.0703761,1.070377 -1.5219183,2.509914 -1.3756945,3.900681 0.1053988,-1.063727 0.5569293,-2.09955 1.3756945,-2.918315 l 6.8036439,-6.803646 c 0.94271965,-0.942715 2.17343902,-1.415984 3.4037398,-1.415984 1.230301,0 2.4610204,0.473269 3.4037407,1.415984 L 17.50579,45.877455 29.984887,33.398352 c 1.885444,-1.88544 4.922045,-1.88544 6.807483,0 l 6.803645,6.803646 c 0.818763,0.818765 1.270293,1.854588 1.375693,2.918315 0.146226,-1.390767 -0.305324,-2.830304 -1.375693,-3.900681 L 36.79237,32.415987 c -1.885438,-1.885441 -4.922039,-1.885441 -6.807483,0 L 17.50579,44.89509 5.0266847,32.415987 C 4.0839644,31.47327 2.853245,31.000002 1.622944,31.000002 Z M 2.9122979,59.488583 -8.5844397,70.985319 c -1.0703761,1.070375 -1.5219183,2.509915 -1.3756945,3.900678 0.1053988,-1.063723 0.5569293,-2.09955 1.3756945,-2.918316 L 2.9122979,60.470945 3.4034801,60.962126 3.8946626,60.470945 Z m 29.1869811,0 -0.982365,0.982362 0.491182,0.491181 0.491183,-0.491181 11.496736,11.496736 c 0.818763,0.818766 1.270293,1.854593 1.375693,2.918316 0.146226,-1.390763 -0.305324,-2.830303 -1.375693,-3.900678 z"
       id="path6" />
  </g>
</svg>
