<?xml version="1.0" encoding="UTF-8" standalone="no"?>
<svg
   width="62"
   height="62"
   version="1"
   id="svg7"
   sodipodi:docname="amazon-mp3-source.svg"
   inkscape:version="1.4 (e7c3feb100, 2024-10-09)"
   xmlns:inkscape="http://www.inkscape.org/namespaces/inkscape"
   xmlns:sodipodi="http://sodipodi.sourceforge.net/DTD/sodipodi-0.dtd"
   xmlns:xlink="http://www.w3.org/1999/xlink"
   xmlns="http://www.w3.org/2000/svg"
   xmlns:svg="http://www.w3.org/2000/svg">
  <defs
     id="defs7">
    <linearGradient
       id="linearGradient7"
       inkscape:collect="always">
      <stop
         style="stop-color:#384850;stop-opacity:1;"
         offset="0"
         id="stop8" />
      <stop
         style="stop-color:#384850;stop-opacity:1;"
         offset="0.58519185"
         id="stop10" />
      <stop
         style="stop-color:#eff2f6;stop-opacity:1;"
         offset="0.86599815"
         id="stop11" />
      <stop
         style="stop-color:#eff2f6;stop-opacity:1;"
         offset="1"
         id="stop9" />
    </linearGradient>
    <linearGradient
       id="linearGradient1"
       inkscape:collect="always">
      <stop
         style="stop-color:#303c47;stop-opacity:1;"
         offset="0"
         id="stop5" />
      <stop
         style="stop-color:#363e48;stop-opacity:1;"
         offset="0.25046653"
         id="stop7" />
      <stop
         style="stop-color:#303c47;stop-opacity:1;"
         offset="0.91934216"
         id="stop12" />
      <stop
         style="stop-color:#303c47;stop-opacity:1;"
         offset="1"
         id="stop6" />
    </linearGradient>
    <linearGradient
       id="c-3"
       gradientUnits="userSpaceOnUse"
       x1="24.072048"
       x2="23.959682"
       y1="0.75082099"
       y2="46.056854">
      <stop
         offset="0"
         stop-color="#fff"
         id="stop3" />
      <stop
         offset="1"
         stop-color="#d9d9d9"
         id="stop4" />
    </linearGradient>
    <linearGradient
       id="b-6"
       gradientUnits="userSpaceOnUse"
       x1="29.203026"
       x2="34.121048"
       xlink:href="#a-7"
       y1="24.827356"
       y2="29.224836" />
    <linearGradient
       id="a-7">
      <stop
         offset="0"
         id="stop1" />
      <stop
         offset="1"
         stop-opacity="0"
         id="stop2" />
    </linearGradient>
    <linearGradient
       id="d"
       gradientUnits="userSpaceOnUse"
       x1="15.948756"
       x2="25.031786"
       xlink:href="#a-7"
       y1="23.618279"
       y2="33.69899" />
    <linearGradient
       id="e"
       gradientUnits="userSpaceOnUse"
       x1="21.990562"
       x2="29.320522"
       xlink:href="#a-7"
       y1="33.780373"
       y2="41.931858" />
    <linearGradient
       id="paint154_linear_890_11"
       x1="778"
       y1="812.29199"
       x2="788"
       y2="812.29199"
       gradientUnits="userSpaceOnUse"
       gradientTransform="translate(-751,-696)">
      <stop
         stop-color="#EFF2F6"
         id="stop1050" />
      <stop
         offset="0.600785"
         stop-color="#B7C6CD"
         id="stop1051" />
    </linearGradient>
    <linearGradient
       id="paint155_linear_890_11"
       x1="783"
       y1="813"
       x2="783"
       y2="817"
       gradientUnits="userSpaceOnUse"
       gradientTransform="translate(-751,-696)">
      <stop
         stop-color="#EFF2F6"
         id="stop1052" />
      <stop
         offset="0.734138"
         stop-color="#B7C6CD"
         id="stop1053" />
    </linearGradient>
    <radialGradient
       id="paint156_radial_890_11"
       cx="0"
       cy="0"
       r="1"
       gradientUnits="userSpaceOnUse"
       gradientTransform="matrix(27.999986,27.999976,-27.999986,27.999976,32.302392,33.999998)">
      <stop
         offset="0.60067803"
         stop-color="#B7C6CD"
         id="stop1054"
         style="stop-color:#424b58;stop-opacity:1;" />
      <stop
         offset="0.876735"
         stop-color="#EFF2F6"
         id="stop1055" />
    </radialGradient>
    <linearGradient
       id="paint157_linear_890_11"
       x1="796.84485"
       y1="799.43359"
       x2="768.90088"
       y2="770.81476"
       gradientUnits="userSpaceOnUse"
       gradientTransform="matrix(1.1666666,0,0,1.1666668,-881.19764,-881.8333)">
      <stop
         offset="0.00000057"
         stop-color="#2E2E41"
         id="stop1056"
         style="stop-color:#424b58;stop-opacity:1;" />
      <stop
         offset="0.71113902"
         stop-color="#566C80"
         id="stop1057"
         style="stop-color:#303c47;stop-opacity:1;" />
    </linearGradient>
    <linearGradient
       id="paint158_linear_890_11"
       x1="792"
       y1="794"
       x2="774"
       y2="776"
       gradientUnits="userSpaceOnUse"
       gradientTransform="translate(-751,-696)">
      <stop
         offset="0.304478"
         stop-color="#2E2E41"
         id="stop1058" />
      <stop
         offset="1"
         stop-color="#566C80"
         id="stop1059" />
    </linearGradient>
    <linearGradient
       id="paint159_linear_890_11"
       x1="788"
       y1="790"
       x2="778"
       y2="780"
       gradientUnits="userSpaceOnUse"
       gradientTransform="translate(-751,-696)">
      <stop
         offset="0.391394"
         stop-color="#5200FF"
         id="stop1060" />
      <stop
         offset="1"
         stop-color="#0085FF"
         id="stop1061" />
    </linearGradient>
    <linearGradient
       id="paint160_linear_890_11"
       x1="784"
       y1="798"
       x2="782"
       y2="796"
       gradientUnits="userSpaceOnUse"
       gradientTransform="translate(-751,-696)">
      <stop
         stop-color="#FF7E07"
         id="stop1062" />
      <stop
         offset="1"
         stop-color="#FFE607"
         id="stop1063" />
    </linearGradient>
    <linearGradient
       id="c-3-6"
       gradientUnits="userSpaceOnUse"
       x1="24.072048"
       x2="23.959682"
       y1="0.75082099"
       y2="46.056854"
       gradientTransform="matrix(0.91471346,0,0,0.90068147,9.0468769,9.3836444)">
      <stop
         offset="0"
         stop-color="#fff"
         id="stop3-2" />
      <stop
         offset="1"
         stop-color="#d9d9d9"
         id="stop4-9" />
    </linearGradient>
    <linearGradient
       id="b-6-1"
       gradientUnits="userSpaceOnUse"
       x1="29.203026"
       x2="34.121048"
       xlink:href="#a-7"
       y1="24.827356"
       y2="29.224836"
       gradientTransform="matrix(1.1104534,0,0,1.0934187,4.3491158,4.7861435)" />
    <linearGradient
       id="d-0"
       gradientUnits="userSpaceOnUse"
       x1="15.948756"
       x2="25.031786"
       xlink:href="#a-7"
       y1="23.618279"
       y2="33.69899"
       gradientTransform="matrix(1.1104534,0,0,1.0934187,4.3491158,4.7861435)" />
    <linearGradient
       id="e-9"
       gradientUnits="userSpaceOnUse"
       x1="21.990562"
       x2="29.320522"
       xlink:href="#a-7"
       y1="33.780373"
       y2="41.931858"
       gradientTransform="matrix(1.1104534,0,0,1.0934187,4.3491158,4.7861435)" />
    <linearGradient
       inkscape:collect="always"
       xlink:href="#linearGradient1"
       id="linearGradient6"
       x1="15.60323"
       y1="17.703012"
       x2="48.302387"
       y2="50"
       gradientUnits="userSpaceOnUse" />
    <radialGradient
       inkscape:collect="always"
       xlink:href="#linearGradient7"
       id="radialGradient9"
       cx="32.302387"
       cy="34"
       fx="32.302387"
       fy="34"
       r="28"
       gradientUnits="userSpaceOnUse"
       gradientTransform="matrix(0.99999999,1,-1,0.99999999,34,-32.302387)" />
  </defs>
  <sodipodi:namedview
     id="namedview7"
     pagecolor="#ffffff"
     bordercolor="#000000"
     borderopacity="0.25"
     inkscape:showpageshadow="2"
     inkscape:pageopacity="0.0"
     inkscape:pagecheckerboard="0"
     inkscape:deskcolor="#d1d1d1"
     inkscape:zoom="8.3306018"
     inkscape:cx="35.111509"
     inkscape:cy="30.850112"
     inkscape:window-width="1920"
     inkscape:window-height="994"
     inkscape:window-x="0"
     inkscape:window-y="0"
     inkscape:window-maximized="1"
     inkscape:current-layer="svg7" />
  <g
     id="g1"
     transform="translate(-1.3023872,-3)">
    <path
       d="m 60.302387,34 c 0,15.46415 -12.535828,28 -28.000002,28 C 16.838222,62 4.3023873,49.46415 4.3023873,34 4.3023873,18.535835 16.838222,6 32.302385,6 47.766559,6 60.302387,18.535835 60.302387,34 Z"
       id="path154"
       style="fill:url(#radialGradient9)" />
    <path
       d="m 55.63572,34 c 0,12.88701 -10.446332,23.33332 -23.333335,23.33332 C 19.415386,57.33332 8.9690543,46.88701 8.9690543,34 c 0,-12.886994 10.4463317,-23.333332 23.3333307,-23.333332 12.887003,0 23.333335,10.446338 23.333335,23.333332 z"
       id="path155"
       style="fill:url(#linearGradient6)" />
  </g>
  <g
     id="g2"
     transform="translate(-1.8877373,-2.605729)">
    <path
       style="opacity:0.57994186;fill-rule:evenodd;stroke-width:0.984878;fill:#a9a9a9;fill-opacity:1"
       d="m 35.177008,31.904901 c 0,1.632449 0.04296,2.989421 -0.770016,4.435637 -0.653011,1.174621 -1.692037,1.898214 -2.850065,1.898214 -1.582039,0 -2.500057,-1.221183 -2.500057,-3.026281 0,-3.562672 3.145075,-4.210604 6.121136,-4.210604 v 0.904974 m 4.1531,10.183625 c -0.269013,0.247345 -0.663012,0.266744 -0.971028,0.102818 -1.365026,-1.151343 -1.611034,-1.687734 -2.365052,-2.788634 -2.260049,2.341479 -3.856084,3.040825 -6.789153,3.040825 -3.466079,0 -6.166143,-2.16786 -6.166143,-6.509411 0,-3.390984 1.813046,-5.703374 4.389098,-6.832411 2.231058,-0.998091 5.356132,-1.174621 7.74518,-1.451059 v -0.540271 c 0,-0.993241 0.07703,-2.167865 -0.495005,-3.02628 -0.505012,-0.77015 -1.466044,-1.086358 -2.312059,-1.086358 -1.572029,0 -2.972069,0.816708 -3.312073,2.509291 -0.07303,0.377315 -0.341015,0.745901 -0.71702,0.7653 l -3.995095,-0.433573 c -0.336003,-0.07857 -0.706013,-0.354036 -0.615007,-0.875875 0.923022,-4.905096 5.298121,-6.389137 9.21121,-6.389137 2.00505,0 4.625107,0.540268 6.203141,2.079598 2.005049,1.898215 1.813037,4.429814 1.813037,7.186448 v 6.509411 c 0,1.959322 0.797028,2.816763 1.553036,3.874991 0.265009,0.374405 0.322011,0.830293 -0.01029,1.110612 -0.842018,0.718742 -2.336051,2.033041 -3.158071,2.77409 l -0.01502,-0.01456"
       id="path3" />
    <path
       style="fill:#ffffff;fill-rule:evenodd;stroke-width:0.984878"
       d="m 35.177008,30.934938 c 0,1.632449 0.04296,2.989421 -0.770016,4.435637 -0.653011,1.174621 -1.692037,1.898214 -2.850065,1.898214 -1.582039,0 -2.500057,-1.221183 -2.500057,-3.026281 0,-3.562662 3.145075,-4.210604 6.121136,-4.210604 v 0.904975 m 4.1531,10.183633 c -0.269013,0.24734 -0.663012,0.266736 -0.971028,0.10281 -1.365026,-1.151344 -1.611034,-1.687735 -2.365052,-2.788635 -2.260049,2.341488 -3.856084,3.040826 -6.789153,3.040826 -3.466079,0 -6.166143,-2.167861 -6.166143,-6.509411 0,-3.390984 1.813046,-5.703374 4.389098,-6.832412 2.231058,-0.99809 5.356132,-1.174621 7.74518,-1.45106 v -0.540269 c 0,-0.99324 0.07703,-2.167864 -0.495005,-3.02628 -0.505012,-0.77015 -1.466044,-1.086357 -2.312059,-1.086357 -1.572029,0 -2.972069,0.816708 -3.312073,2.509291 -0.07303,0.377314 -0.341015,0.7459 -0.71702,0.765299 l -3.995095,-0.433573 c -0.336003,-0.07857 -0.706013,-0.354035 -0.615007,-0.875875 0.923022,-4.905096 5.298121,-6.389137 9.21121,-6.389137 2.00505,0 4.625107,0.540269 6.203141,2.079598 2.005049,1.898215 1.813037,4.429815 1.813037,7.186445 v 6.509414 c 0,1.959321 0.797028,2.816765 1.553036,3.874999 0.265009,0.374406 0.322011,0.830284 -0.01029,1.110603 -0.842018,0.718742 -2.336051,2.033042 -3.158071,2.77409 l -0.01502,-0.01456"
       id="path4-6" />
    <path
       style="opacity:0.40116279;stroke-width:0.984878;fill:#ff9955;fill-opacity:1"
       d="m 46.538272,42.439654 c -1.119024,0.0165 -2.442056,0.265774 -3.44208,0.965111 -0.313003,0.215331 -0.259008,0.513114 0.08702,0.471403 1.125026,-0.135792 3.639085,-0.434543 4.086094,0.134827 0.452013,0.5684 -0.500011,2.919582 -0.918022,3.969077 -0.129001,0.317179 0.145003,0.447156 0.433009,0.204667 1.884039,-1.560669 2.36605,-4.83526 1.980041,-5.306662 -0.189002,-0.235697 -1.106016,-0.453938 -2.22604,-0.438423 z m -29.417674,0.629507 c -0.234015,0.03101 -0.337001,0.311357 -0.09202,0.531539 4.176099,3.753755 9.698224,6.005029 15.827367,6.005029 4.374094,0 9.448212,-1.371525 12.954285,-3.936097 l 0.002,-0.004 c 0.582012,-0.429691 0.08602,-1.064049 -0.510012,-0.81671 -3.923092,1.660577 -8.197192,2.457882 -12.076274,2.457882 -5.755132,0 -11.332257,-1.566486 -15.837364,-4.173744 -0.09801,-0.05722 -0.191004,-0.07272 -0.269003,-0.06302 z"
       id="path5-7" />
    <path
       style="fill:#ff9900;stroke-width:0.984878"
       d="m 46.538272,41.469691 c -1.119024,0.0165 -2.442056,0.265774 -3.44208,0.965112 -0.313003,0.21533 -0.259008,0.513113 0.08702,0.471402 1.125026,-0.135789 3.639085,-0.434542 4.086094,0.134828 0.452013,0.568399 -0.500011,2.919581 -0.918022,3.969086 -0.129001,0.31717 0.145003,0.447146 0.433009,0.204658 1.884039,-1.560669 2.36605,-4.83526 1.980041,-5.306663 -0.189002,-0.235696 -1.106016,-0.453938 -2.22604,-0.438423 z m -29.417674,0.629507 c -0.234015,0.03101 -0.337001,0.311358 -0.09202,0.531539 4.176099,3.753756 9.698224,6.00503 15.827367,6.00503 4.374094,0 9.448212,-1.371526 12.954285,-3.936098 l 0.002,-0.004 c 0.582012,-0.429691 0.08602,-1.064049 -0.510012,-0.816709 -3.923092,1.660576 -8.197192,2.457881 -12.076274,2.457881 -5.755132,0 -11.332257,-1.566483 -15.837364,-4.173744 -0.09801,-0.05722 -0.191004,-0.07272 -0.269003,-0.06302 z"
       id="path6" />
  </g>
</svg>
