<?xml version="1.0" encoding="UTF-8" standalone="no"?>
<svg
   width="62"
   height="62"
   version="1"
   id="svg6"
   sodipodi:docname="emerald-theme-manager-icon.svg"
   inkscape:version="1.4 (e7c3feb100, 2024-10-09)"
   xmlns:inkscape="http://www.inkscape.org/namespaces/inkscape"
   xmlns:sodipodi="http://sodipodi.sourceforge.net/DTD/sodipodi-0.dtd"
   xmlns="http://www.w3.org/2000/svg"
   xmlns:svg="http://www.w3.org/2000/svg">
  <defs
     id="defs6" />
  <sodipodi:namedview
     id="namedview6"
     pagecolor="#ffffff"
     bordercolor="#000000"
     borderopacity="0.25"
     inkscape:showpageshadow="2"
     inkscape:pageopacity="0.0"
     inkscape:pagecheckerboard="0"
     inkscape:deskcolor="#d1d1d1"
     inkscape:zoom="11.75"
     inkscape:cx="32"
     inkscape:cy="32"
     inkscape:window-width="1920"
     inkscape:window-height="998"
     inkscape:window-x="0"
     inkscape:window-y="0"
     inkscape:window-maximized="1"
     inkscape:current-layer="svg6" />
  <g
     id="g6"
     transform="translate(-1.4999962,-1.9999999)">
    <path
       style="opacity:0.2;stroke-width:1.01744"
       d="M 18.557057,6.0181839 A 3.4860822,3.6658651 0 0 0 16.014246,7.1761802 L 2.9427412,21.838174 a 3.4860822,3.6658651 0 0 0 -0.09872,4.898669 L 29.858462,59.72633 a 3.4860822,3.6658651 0 0 0 5.28307,0 L 62.155964,26.736843 a 3.4860822,3.6658651 0 0 0 -0.09873,-4.898669 L 48.985752,7.1761802 A 3.4860822,3.6658651 0 0 0 46.442933,6.0181839 H 32.499992 Z"
       id="path1" />
    <path
       style="fill:#87d53c;stroke-width:1.01744"
       d="M 18.557057,5.0000015 A 3.4860822,3.6658651 0 0 0 16.014246,6.1579986 L 2.9427412,20.819994 a 3.4860822,3.6658651 0 0 0 -0.09872,4.898668 L 29.858462,58.708144 a 3.4860822,3.6658651 0 0 0 5.28307,0 L 62.155964,25.718662 a 3.4860822,3.6658651 0 0 0 -0.09874,-4.898668 L 48.985752,6.1579986 A 3.4860822,3.6658651 0 0 0 46.442933,5.0000015 H 32.499992 Z"
       id="path2" />
    <path
       style="opacity:0.2;stroke-width:1.01744"
       d="m 18.556571,5.0000003 c -0.234201,-8.98e-5 -0.465004,0.023552 -0.691009,0.071592 a 3.4860822,3.6658651 0 0 0 -0.0199,0.004 c -0.0068,0.0015 -0.01288,0.00638 -0.0199,0.00792 -0.215087,0.048526 -0.425794,0.1171399 -0.627476,0.2068187 a 3.4860822,3.6658651 0 0 0 -0.0159,0.00792 c -0.01352,0.0061 -0.02626,0.0136 -0.0397,0.019895 -0.203388,0.094936 -0.396494,0.2074388 -0.579818,0.3420456 -0.009,0.0067 -0.01865,0.01305 -0.0278,0.019895 -0.1865,0.1397969 -0.361114,0.2988104 -0.520222,0.4772834 L 2.9412105,20.82159 A 3.4860822,3.6658651 0 0 0 2.0039713,23.327268 H 62.999996 A 3.4860822,3.6658651 0 0 0 62.058787,20.82159 L 48.985089,6.1573869 C 48.824718,5.977494 48.649074,5.8167132 48.460867,5.6761366 A 3.4860822,3.6658651 0 0 0 48.425147,5.65227 C 48.237956,5.5160396 48.04118,5.4012668 47.833391,5.3062498 a 3.4860822,3.6658651 0 0 0 -0.01588,-0.00793 C 47.617045,5.2078911 47.407983,5.1371129 47.19403,5.0874917 a 3.4860822,3.6658651 0 0 0 -0.0078,0 3.4860822,3.6658651 0 0 0 -0.08741,-0.019895 C 46.88389,5.024358 46.66556,4.9999153 46.443477,5.0000005 H 32.500006 Z"
       id="path3" />
    <path
       style="fill:#87d53c;stroke-width:1.01744"
       d="M 32.499998,5.0000003 46.733331,23.327268 H 18.266667 Z"
       id="path4" />
    <path
       style="opacity:0.2;stroke-width:1.01744"
       d="M 32.499996,59.981812 46.733331,23.327268 H 18.266667 Z"
       id="path5" />
    <path
       style="opacity:0.2;fill:#ffffff;stroke-width:1.01744"
       d="M 18.556571,5 A 3.4860822,3.6658651 0 0 0 16.014908,6.1573866 L 2.9431967,20.819598 A 3.4860822,3.6658651 0 0 0 2.0357419,23.844319 3.4860822,3.6658651 0 0 1 2.9431967,21.83778 L 16.014908,7.1755677 a 3.4860822,3.6658651 0 0 1 2.541663,-1.1573858 h 13.943425 13.94343 a 3.4860822,3.6658651 0 0 1 2.541663,1.1573858 L 62.0568,21.83778 a 3.4860822,3.6658651 0 0 1 0.905468,1.998578 3.4860822,3.6658651 0 0 0 -0.905468,-3.01676 L 48.985089,6.1573866 A 3.4860822,3.6658651 0 0 0 46.443426,5 h -13.94343 z"
       id="path6" />
  </g>
</svg>
