<?xml version="1.0" encoding="UTF-8" standalone="no"?>
<svg
   width="62"
   height="62"
   version="1"
   id="svg4"
   sodipodi:docname="enjoy-music-player.svg"
   inkscape:version="1.4 (unknown)"
   xmlns:inkscape="http://www.inkscape.org/namespaces/inkscape"
   xmlns:sodipodi="http://sodipodi.sourceforge.net/DTD/sodipodi-0.dtd"
   xmlns="http://www.w3.org/2000/svg"
   xmlns:svg="http://www.w3.org/2000/svg">
  <defs
     id="defs4" />
  <sodipodi:namedview
     id="namedview4"
     pagecolor="#ffffff"
     bordercolor="#000000"
     borderopacity="0.25"
     inkscape:showpageshadow="2"
     inkscape:pageopacity="0.0"
     inkscape:pagecheckerboard="0"
     inkscape:deskcolor="#d1d1d1"
     inkscape:zoom="7.0710678"
     inkscape:cx="30.19346"
     inkscape:cy="28.072139"
     inkscape:window-width="1920"
     inkscape:window-height="998"
     inkscape:window-x="0"
     inkscape:window-y="0"
     inkscape:window-maximized="1"
     inkscape:current-layer="svg4" />
  <g
     id="g4"
     transform="matrix(0.98214286,0,0,0.98245614,-0.42857152,-0.92982455)">
    <path
       style="opacity:0.2"
       d="m 4.0507997,32.000415 c -0.0118,0.333995 -0.050799,0.66199 -0.050799,0.999985 C 4.0000004,48.512179 16.487822,61 31.9996,61 47.511378,61 59.9992,48.512179 59.9992,33.0004 c 0,-0.337675 -0.03904,-0.66527 -0.05078,-0.999985 C 59.420428,47.0422 47.172603,59.000029 31.99882,59.000029 16.824637,59.000029 4.5772122,47.0422 4.0492197,32.000415 Z"
       id="path1" />
    <rect
       style="fill:#00b28f;fill-opacity:1"
       width="56"
       height="56"
       x="4"
       y="4"
       rx="28"
       ry="28"
       id="rect1" />
    <path
       style="opacity:0.2"
       d="m 24.243711,19.000601 a 2.1919687,2.1077699 0 0 0 -2.243968,2.107969 v 21.783689 a 2.1919687,2.1077699 0 0 0 3.287553,1.824954 l 9.80846,-5.444722 9.808459,-5.447522 a 2.1919687,2.1077699 0 0 0 0,-3.649948 l -9.809859,-5.445922 -9.80786,-5.443922 a 2.1919687,2.1077699 0 0 0 -1.044485,-0.282656 z"
       id="path2" />
    <path
       style="fill:#ffffff"
       d="m 24.243711,18.001229 a 2.1919687,2.1077699 0 0 0 -2.243968,2.10737 v 21.783689 a 2.1919687,2.1077699 0 0 0 3.287553,1.824953 l 9.80846,-5.444722 9.808459,-5.447522 a 2.1919687,2.1077699 0 0 0 0,-3.649948 l -9.809859,-5.445922 -9.80786,-5.444722 a 2.1919687,2.1077699 0 0 0 -1.043985,-0.282596 z"
       id="path3" />
    <path
       style="opacity:0.2;fill:#ffffff"
       d="M 32,4 C 16.488222,4 4,16.488222 4,32 4,32.113554 4.011285,32.224034 4.017578,32.335938 4.3691163,17.134398 16.710946,5 32,5 47.289054,5 59.630884,17.134398 59.982422,32.335938 59.988797,32.224034 60,32.113554 60,32 60,16.488222 47.511778,4 32,4 Z"
       id="path4" />
  </g>
</svg>
