<?xml version="1.0" encoding="UTF-8" standalone="no"?>
<svg
   width="62"
   height="62"
   version="1.1"
   id="svg5"
   sodipodi:docname="epic-games.svg"
   inkscape:version="1.4 (e7c3feb100, 2024-10-09)"
   xmlns:inkscape="http://www.inkscape.org/namespaces/inkscape"
   xmlns:sodipodi="http://sodipodi.sourceforge.net/DTD/sodipodi-0.dtd"
   xmlns="http://www.w3.org/2000/svg"
   xmlns:svg="http://www.w3.org/2000/svg">
  <defs
     id="defs5" />
  <sodipodi:namedview
     id="namedview5"
     pagecolor="#ffffff"
     bordercolor="#000000"
     borderopacity="0.25"
     inkscape:showpageshadow="2"
     inkscape:pageopacity="0.0"
     inkscape:pagecheckerboard="0"
     inkscape:deskcolor="#d1d1d1"
     inkscape:zoom="11.78125"
     inkscape:cx="31.95756"
     inkscape:cy="32.084881"
     inkscape:window-width="1920"
     inkscape:window-height="994"
     inkscape:window-x="0"
     inkscape:window-y="0"
     inkscape:window-maximized="1"
     inkscape:current-layer="svg5" />
  <path
     d="M 10.264701,3.9823926 C 8.7378642,3.9825436 7.5001524,5.2140611 7.5,6.7332618 V 47.996296 c -5.42e-5,1.125251 0.6886053,2.13711 1.7387412,2.554755 l 20.7352948,8.252614 c 0.658662,0.261868 1.393276,0.261868 2.051932,0 L 52.761266,50.551051 C 53.811397,50.133406 54.500055,49.121548 54.5,47.996296 V 6.7332618 C 54.499855,5.2140611 53.262138,3.9825436 51.735299,3.9823926 Z"
     style="opacity:0.622093;fill:#6f7c91;fill-opacity:1;stroke-width:0.980815"
     id="path1" />
  <path
     d="M 10.264701,3.0001465 C 8.7378642,3.0002985 7.5001524,4.231815 7.5,5.7510159 V 47.014049 c -5.42e-5,1.125253 0.6886053,2.137111 1.7387412,2.554755 l 20.7352948,8.252614 c 0.658662,0.261868 1.393276,0.261868 2.051932,0 L 52.761266,49.568804 C 53.811397,49.151161 54.500055,48.139302 54.5,47.014049 V 5.7510159 C 54.499855,4.231815 53.262138,3.0002985 51.735299,3.0001465 Z"
     style="fill:#424b57;fill-opacity:1;stroke-width:0.980815"
     id="path2" />
  <g
     id="g1"
     transform="translate(-1.104165,-2.3859104)">
    <path
       d="M 14.354165,10.920625 V 34.920642 H 21.68447 V 31.7902 h -4.188747 v -7.304347 h 4.188747 v -3.13044 h -4.188747 v -7.304349 h 4.188747 v -3.13044 z m 8.377481,0 v 24.000017 h 3.141559 v -9.391308 h 3.352224 c 2.436589,0 3.978073,-1.953845 3.978073,-4.381796 v -5.845115 c 0,-2.42797 -1.541484,-4.381799 -3.978073,-4.381799 h -2.932936 z m 12.461919,0 v 24.000017 h 3.141557 V 10.920625 Z m 7.121681,0 c -1.624388,0 -2.932937,1.303911 -2.932937,2.922554 v 18.175284 c 0,1.618645 1.308549,2.92256 2.932937,2.92256 h 4.60598 c 1.62439,0 2.932939,-1.303915 2.932939,-2.92256 v -6.489129 h -3.141557 v 4.883156 c 0,0.809318 -0.838463,1.427177 -1.46647,1.605973 h -1.255802 c -0.812198,0 -1.466471,-0.649916 -1.466471,-1.459235 V 15.302424 c 0,-0.809319 0.866041,-1.459245 1.466471,-1.459245 h 1.255802 c 0.812193,0 1.46647,0.649926 1.46647,1.459245 v 3.966029 h 3.141557 v -5.425275 c 0,-1.618643 -1.308549,-2.922554 -2.932939,-2.922554 z m -16.442041,3.13044 h 2.722268 c 0.81221,0 1.466478,0.651955 1.466478,1.461274 v 5.425273 c 0,0.809327 -0.654268,1.461284 -1.466478,1.461284 h -2.722268 z m -7.031692,24.586966 c -1.676184,-0.03216 -3.484516,1.198622 -3.538334,3.423919 -0.03823,1.578018 1.398036,3.348301 3.335859,3.375005 1.699978,0.02345 2.930884,-1.05775 2.930884,-1.05775 V 42.135316 H 18.73926 v 1.204489 l 1.163767,0.0041 0.04909,0.230301 c 0,0 -0.37793,0.388613 -1.059456,0.401497 -1.197816,0.02265 -1.781453,-0.958213 -1.820308,-1.811828 -0.04175,-0.916658 0.610851,-2.013737 1.840762,-2.007472 0.81969,0.0041 1.343748,0.747966 1.343748,0.747966 l 1.110598,-1.359382 c 0,0 -1.059154,-0.878855 -2.525941,-0.906927 z m 11.122263,0.456526 v 6.254755 h 1.533961 v -3.470786 l 1.601456,2.368206 1.55237,-2.466031 0.01843,3.56861 h 1.570774 v -6.254755 h -1.589188 l -1.552366,2.492533 -1.552368,-2.492533 z m 7.324165,0 v 6.222149 h 4.620288 v -1.540761 l -3.049514,0.02851 V 42.22497 h 2.617964 v -1.043458 h -2.617964 v -0.521738 h 3.057694 l -0.0082,-1.565214 z m -12.2533,0.03872 -2.750907,6.214007 1.86325,-0.0041 0.427471,-1.12093 h 2.392981 l 0.417238,1.12093 h 1.736449 l -2.556611,-6.209908 z m 20.111276,0.002 c -1.035932,0.0067 -2.535217,0.653427 -2.564778,2.239806 -0.03002,1.610805 3.52342,1.384338 3.534247,2.205168 0.0038,0.284548 -0.179594,0.491486 -0.605411,0.476906 C 44.618446,44.026588 43.450373,43.3662 43.450373,43.3662 l -0.908101,1.086274 c 0,0 1.323165,0.929462 2.902262,0.937502 1.046966,0.0054 2.300876,-0.503494 2.290716,-2.023784 -0.01228,-1.827998 -3.5067,-1.74655 -3.552659,-2.37024 -0.0231,-0.313165 0.436321,-0.486841 1.063547,-0.493202 0.609655,-0.0062 1.793715,0.59103 1.793715,0.59103 l 0.760841,-1.151497 c 0,0 -1.194068,-0.81635 -2.654777,-0.807067 z m -19.362698,1.899453 0.666759,1.797556 h -1.349893 z m -4.203062,11.625005 10.471848,5.217404 10.47186,-5.217404 z"
       style="opacity:0.2;stroke-width:1.04533"
       id="path3" />
    <path
       d="M 14.354165,9.8771405 V 33.877158 h 7.330305 v -3.13043 H 17.495723 V 23.442371 H 21.68447 V 20.311928 H 17.495723 V 13.007581 H 21.68447 V 9.8771405 Z m 8.377481,0 V 33.877158 h 3.141559 v -9.391305 h 3.352224 c 2.436589,0 3.978073,-1.953839 3.978073,-4.381798 V 14.25894 c 0,-2.427971 -1.541484,-4.3817995 -3.978073,-4.3817995 h -2.932936 z m 12.461919,0 V 33.877158 h 3.141557 V 9.8771405 Z m 7.121681,0 c -1.624388,0 -2.932937,1.3039115 -2.932937,2.9225635 V 30.97499 c 0,1.618635 1.308549,2.922549 2.932937,2.922549 h 4.60598 c 1.62439,0 2.932939,-1.303914 2.932939,-2.922549 v -6.489137 h -3.141557 v 4.883152 c 0,0.809317 -0.838463,1.427179 -1.46647,1.605985 h -1.255802 c -0.812198,0 -1.466471,-0.649918 -1.466471,-1.459246 V 14.25894 c 0,-0.809317 0.866041,-1.459235 1.466471,-1.459235 h 1.255802 c 0.812193,0 1.46647,0.649918 1.46647,1.459235 v 3.966031 h 3.141557 v -5.425267 c 0,-1.618652 -1.308549,-2.9225635 -2.932939,-2.9225635 z M 25.873205,13.007581 h 2.722268 c 0.81221,0 1.466478,0.651957 1.466478,1.461275 v 5.425283 c 0,0.809316 -0.654268,1.461274 -1.466478,1.461274 h -2.722268 z m -7.031692,24.586974 c -1.676184,-0.03216 -3.484516,1.198616 -3.538334,3.423921 -0.03823,1.578017 1.398036,3.348292 3.335859,3.374999 1.699978,0.02344 2.930884,-1.057745 2.930884,-1.057745 V 41.091838 H 18.73926 v 1.204485 l 1.163767,0.0041 0.04909,0.230301 c 0,0 -0.37793,0.388616 -1.059456,0.401497 -1.197816,0.02265 -1.781453,-0.958214 -1.820308,-1.811827 -0.04175,-0.916648 0.610851,-2.013738 1.840762,-2.007465 0.81969,0.0041 1.343748,0.747955 1.343748,0.747955 l 1.110598,-1.35937 c 0,0 -1.059154,-0.878864 -2.525941,-0.906934 z m 11.122263,0.456527 v 6.254758 h 1.533961 v -3.47079 l 1.601456,2.36821 1.55237,-2.466032 0.01843,3.568612 h 1.570772 v -6.254758 h -1.589183 l -1.552366,2.492524 -1.552368,-2.492524 z m 7.324165,0 v 6.222148 h 4.620288 v -1.54076 l -3.049514,0.02851 V 41.1815 h 2.617964 v -1.043473 h -2.617964 v -0.521744 h 3.057694 l -0.0082,-1.565207 z m -12.2533,0.03872 -2.750907,6.213998 1.86325,-0.0041 0.427471,-1.120921 h 2.392981 l 0.417238,1.120921 h 1.736449 l -2.556611,-6.20993 z m 20.111276,0.002 c -1.035932,0.0066 -2.535217,0.653436 -2.564778,2.239807 -0.03002,1.610805 3.52342,1.384336 3.534247,2.205167 0.0038,0.284558 -0.179594,0.491496 -0.605411,0.476907 -0.891529,-0.03057 -2.059602,-0.69095 -2.059602,-0.69095 l -0.908101,1.086276 c 0,0 1.323165,0.929474 2.902262,0.937499 1.046966,0.0054 2.300876,-0.503486 2.290716,-2.023775 -0.01228,-1.828012 -3.5067,-1.74656 -3.552659,-2.370247 -0.0231,-0.31317 0.436321,-0.486846 1.063547,-0.493202 0.609655,-0.0062 1.793715,0.591025 1.793715,0.591025 l 0.760841,-1.151496 c 0,0 -1.194068,-0.81635 -2.654777,-0.807061 z m -19.362698,1.899462 0.666759,1.797554 h -1.349893 z m -4.203062,11.62496 10.471848,5.21739 10.47186,-5.217389 z"
       style="fill:#ffffff;stroke-width:1.04533"
       id="path4" />
  </g>
  <path
     d="M 10.265379,2.9999345 C 8.7385397,3.0000855 7.5001524,4.2323854 7.5,5.7515852 V 6.7340443 C 7.5001524,5.2148438 8.7385397,3.9825438 10.265379,3.9823928 H 51.734621 C 53.261468,3.9825438 54.499855,5.2148437 54.5,6.7340443 V 5.7515852 C 54.499855,4.2323854 53.261468,3.0000855 51.734621,2.9999345 Z"
     style="fill:#6e7b91;fill-opacity:1;stroke-width:0.980815"
     id="path5" />
</svg>
