<?xml version="1.0" encoding="UTF-8" standalone="no"?>
<svg
   width="62"
   height="62"
   version="1.1"
   id="svg7"
   sodipodi:docname="equaliser.svg"
   inkscape:version="1.4 (unknown)"
   xmlns:inkscape="http://www.inkscape.org/namespaces/inkscape"
   xmlns:sodipodi="http://sodipodi.sourceforge.net/DTD/sodipodi-0.dtd"
   xmlns:xlink="http://www.w3.org/1999/xlink"
   xmlns="http://www.w3.org/2000/svg"
   xmlns:svg="http://www.w3.org/2000/svg">
  <defs
     id="defs7">
    <linearGradient
       inkscape:collect="always"
       xlink:href="#linearGradient8"
       id="linearGradient10"
       x1="31.5"
       y1="59.017544"
       x2="31.5"
       y2="4.9824562"
       gradientUnits="userSpaceOnUse"
       gradientTransform="translate(-0.5,-0.5087719)" />
    <linearGradient
       id="linearGradient8"
       inkscape:collect="always">
      <stop
         style="stop-color:#2d3d53;stop-opacity:1;"
         offset="0"
         id="stop8" />
      <stop
         style="stop-color:#354864;stop-opacity:1;"
         offset="1"
         id="stop10" />
    </linearGradient>
    <linearGradient
       id="paint3_linear_332_93"
       x1="37.304401"
       y1="24.2272"
       x2="23.255199"
       y2="12.9039"
       gradientUnits="userSpaceOnUse"
       gradientTransform="matrix(1,0,0,1.0089403,-0.9999998,-0.28624446)">
      <stop
         stop-color="#731FFF"
         id="stop9" />
      <stop
         offset="0.905415"
         stop-color="#EB1AFF"
         id="stop10-5" />
    </linearGradient>
    <linearGradient
       id="paint1_linear_332_93"
       x1="2"
       y1="61.696899"
       x2="14.6751"
       y2="28.2421"
       gradientUnits="userSpaceOnUse"
       gradientTransform="matrix(0.91578336,0,0,1,1.7216248,-7.2011443)">
      <stop
         stop-color="#731FFF"
         id="stop5" />
      <stop
         offset="0.905415"
         stop-color="#EB1AFF"
         id="stop6" />
    </linearGradient>
    <linearGradient
       id="paint2_linear_332_93"
       x1="54.645401"
       y1="46.748501"
       x2="26.243099"
       y2="10.4978"
       gradientUnits="userSpaceOnUse"
       gradientTransform="matrix(0.91578336,0,0,1,1.7216248,-7.2011443)">
      <stop
         offset="0.118093"
         stop-color="#731FFF"
         id="stop7" />
      <stop
         offset="0.905415"
         stop-color="#EB1AFF"
         id="stop8-3" />
    </linearGradient>
    <linearGradient
       id="linearGradient4"
       x1="16"
       x2="47"
       y1="16"
       y2="48"
       gradientUnits="userSpaceOnUse"
       gradientTransform="matrix(1.1935485,0,0,1.1875,-6.5967725,-6.999994)">
      <stop
         stop-color="#ffffff"
         offset="0"
         id="stop1" />
      <stop
         stop-color="#ffffff"
         offset=".45161"
         id="stop2" />
      <stop
         stop-color="#fef0cb"
         offset=".59375"
         id="stop3" />
      <stop
         stop-color="#ffbcc3"
         offset="1"
         id="stop4" />
    </linearGradient>
    <linearGradient
       id="paint0_linear_19_69"
       x1="13.5381"
       y1="7.6556602"
       x2="19.187599"
       y2="7.6556602"
       gradientUnits="userSpaceOnUse"
       gradientTransform="matrix(1.818183,0,0,1.818183,11.458092,11.928816)">
      <stop
         stop-color="#02AA93"
         id="stop3-5" />
      <stop
         offset="1"
         stop-color="#67FF80"
         id="stop4-3" />
    </linearGradient>
    <linearGradient
       id="paint1_linear_19_69"
       x1="13.5426"
       y1="5.74156"
       x2="23"
       y2="5.74156"
       gradientUnits="userSpaceOnUse"
       gradientTransform="matrix(1.818183,0,0,1.818183,11.458092,11.928816)">
      <stop
         stop-color="#02AA93"
         id="stop5-5" />
      <stop
         offset="1"
         stop-color="#67FF80"
         id="stop6-6" />
    </linearGradient>
    <linearGradient
       id="paint2_linear_19_69"
       x1="1"
       y1="12.425"
       x2="22.2339"
       y2="12.425"
       gradientUnits="userSpaceOnUse"
       gradientTransform="matrix(1.818183,0,0,1.818183,11.458092,11.928816)">
      <stop
         stop-color="#02AA93"
         id="stop7-2" />
      <stop
         offset="1"
         stop-color="#67FF80"
         id="stop8-9" />
    </linearGradient>
  </defs>
  <sodipodi:namedview
     id="namedview7"
     pagecolor="#ffffff"
     bordercolor="#000000"
     borderopacity="0.25"
     inkscape:showpageshadow="2"
     inkscape:pageopacity="0.0"
     inkscape:pagecheckerboard="0"
     inkscape:deskcolor="#d1d1d1"
     inkscape:zoom="8.3085046"
     inkscape:cx="36.288119"
     inkscape:cy="49.888641"
     inkscape:window-width="1920"
     inkscape:window-height="998"
     inkscape:window-x="0"
     inkscape:window-y="0"
     inkscape:window-maximized="1"
     inkscape:current-layer="svg7"
     showgrid="false">
    <inkscape:grid
       id="grid1"
       units="px"
       originx="0"
       originy="0"
       spacingx="1"
       spacingy="1"
       empcolor="#0099e5"
       empopacity="0.30196078"
       color="#0099e5"
       opacity="0.14901961"
       empspacing="5"
       enabled="true"
       visible="false" />
  </sodipodi:namedview>
  <g
     id="g7"
     transform="translate(0,-0.4912281)">
    <rect
       style="opacity:0.2;stroke-width:0.9823"
       width="55"
       height="55.017544"
       x="3.5"
       y="4.4736843"
       rx="8.25"
       ry="8.2526312"
       id="rect1" />
    <rect
       style="fill:url(#linearGradient10);stroke-width:0.9823"
       width="55"
       height="55.017544"
       x="3.5"
       y="3.4912281"
       rx="8.25"
       ry="8.2526312"
       id="rect2" />
    <path
       style="opacity:0.1;fill:#ffffff;stroke-width:0.9823"
       d="M 11.748466,3.4912281 C 7.1779652,3.4912281 3.5,7.1703661 3.5,11.742325 v 0.982456 c 0,-4.5719589 3.6779652,-8.2510969 8.248466,-8.2510969 h 38.503068 c 4.5705,0 8.248466,3.679138 8.248466,8.2510969 v -0.982456 c 0,-4.5719589 -3.677966,-8.2510969 -8.248466,-8.2510969 z"
       id="path4-3" />
  </g>
  <g
     transform="matrix(1.1766391,0,0,1.1853344,-5.4724057,-6.5320216)"
     id="g27">
    <path
       d="m 21.034,43.009 h 5.9287 c 0.01798,0 0.02997,0.006 0.02997,0.006 v 2.9846 c 0,0 -0.01199,0.006 -0.02997,0.006 H 21.034 c -0.01798,0 -0.03447,-0.006 -0.03447,-0.006 V 43.015 c 0,0 0.01798,-0.006 0.03447,-0.006"
       fill="#e4c82f"
       id="path2-3" />
    <path
       d="m 21.034,38.99 h 5.9287 c 0.01798,0 0.02997,0.006 0.02997,0.006 v 2.9846 c 0,0 -0.01199,0.006 -0.02997,0.006 H 21.034 c -0.01798,0 -0.03447,-0.006 -0.03447,-0.006 V 38.996 c 0,0 0.01798,-0.006 0.03447,-0.006"
       fill="#e4c82f"
       fill-opacity="0.902"
       id="path3" />
    <path
       d="m 21.034,34.97 h 5.9287 c 0.01798,0 0.02997,0 0.02997,0.006 v 2.9441 c 0,0.006 -0.01199,0.006 -0.02997,0.006 H 21.034 c -0.01798,0 -0.03447,0 -0.03447,-0.006 V 34.976 c 0,-0.006 0.01798,-0.006 0.03447,-0.006"
       fill="#e4c82f"
       fill-opacity="0.8"
       id="path4" />
    <path
       d="m 21.034,31.011 h 5.9287 c 0.01798,0 0.02997,0.006 0.02997,0.006 v 2.9261 c 0,0 -0.01199,0.006 -0.02997,0.006 H 21.034 c -0.01798,0 -0.03447,-0.006 -0.03447,-0.006 V 31.017 c 0,0 0.01798,-0.006 0.03447,-0.006"
       fill="#e4c82f"
       fill-opacity="0.702"
       id="path5" />
    <path
       d="m 21.034,27.012 h 5.9287 c 0.01798,0 0.02997,0 0.02997,0.006 v 2.9082 c 0,0 -0.01199,0.006 -0.02997,0.006 H 21.034 c -0.01798,0 -0.03447,-0.006 -0.03447,-0.006 v -2.9081 c 4e-6,-0.006 0.01799,-0.006 0.03447,-0.006"
       fill="#e4c82f"
       fill-opacity="0.6"
       id="path6" />
    <path
       d="m 35.03,43.024 h 5.9347 c 0.01798,0 0.02997,0 0.02997,0.006 v 2.9621 c 0,0 -0.01198,0.006 -0.02997,0.006 H 35.03 c -0.01798,0 -0.02997,-0.006 -0.02997,-0.006 V 43.03 c 0,-0.006 0.01198,-0.006 0.02997,-0.006"
       fill="#3e8ded"
       id="path7" />
    <path
       d="m 35.03,39.044 h 5.9347 c 0.01798,0 0.02997,0.006 0.02997,0.006 v 2.9441 c 0,0.006 -0.01198,0.006 -0.02997,0.006 H 35.03 c -0.01798,0 -0.02997,0 -0.02997,-0.006 V 39.05 c 0,0 0.01198,-0.006 0.02997,-0.006"
       fill="#3e8ded"
       fill-opacity="0.902"
       id="path8" />
    <path
       d="m 35.03,35.015 h 5.9347 c 0.01798,0 0.02997,0.006 0.02997,0.006 v 2.9321 c 0,0 -0.01198,0.006 -0.02997,0.006 H 35.03 c -0.01798,0 -0.02997,-0.006 -0.02997,-0.006 V 35.021 c 0,0 0.01198,-0.006 0.02997,-0.006"
       fill="#3e8ded"
       fill-opacity="0.8"
       id="path9" />
    <path
       d="m 35.03,31.086 h 5.9347 c 0.01798,0 0.02997,0 0.02997,0.006 v 2.9082 c 0,0 -0.01198,0.006 -0.02997,0.006 H 35.03 c -0.01798,0 -0.02997,-0.006 -0.02997,-0.006 V 31.092 c 0,-0.006 0.01198,-0.006 0.02997,-0.006"
       fill="#3e8ded"
       fill-opacity="0.702"
       id="path10" />
    <path
       d="m 35.03,27.102 h 5.9347 c 0.01798,0 0.02997,0.006 0.02997,0.006 v 2.8857 c 0,0.006 -0.01198,0.006 -0.02997,0.006 H 35.03 c -0.01798,0 -0.02997,0 -0.02997,-0.006 V 27.108 c 0,0 0.01198,-0.006 0.02997,-0.006"
       fill="#3e8ded"
       fill-opacity="0.6"
       id="path11" />
    <path
       d="m 35.03,23 h 5.9347 c 0.01798,0 0.02997,0.006 0.02997,0.006 v 2.9846 c 0,0.006 -0.01198,0.006 -0.02997,0.006 H 35.03 c -0.01798,0 -0.02997,0 -0.02997,-0.006 V 23.006 c 0,0 0.01198,-0.006 0.02997,-0.006"
       fill="#3e8ded"
       fill-opacity="0.502"
       id="path12" />
    <path
       d="m 42.03,43.009 h 5.9347 c 0.01798,0 0.02997,0.006 0.02997,0.006 v 2.9846 c 0,0 -0.01198,0.006 -0.02997,0.006 H 42.03 c -0.01798,0 -0.02997,-0.006 -0.02997,-0.006 V 43.015 c 0,0 0.01198,-0.006 0.02997,-0.006"
       fill="#db4ddb"
       id="path13" />
    <path
       d="m 42.03,39.014 h 5.9347 c 0.01798,0 0.02997,0 0.02997,0.006 v 2.9666 c 0,0 -0.01198,0.006 -0.02997,0.006 H 42.03 c -0.01798,0 -0.02997,-0.006 -0.02997,-0.006 V 39.02 c 0,-0.006 0.01198,-0.006 0.02997,-0.006"
       fill="#db4ddb"
       fill-opacity="0.902"
       id="path14" />
    <path
       d="m 42.03,34.97 h 5.9347 c 0.01798,0 0.02997,0 0.02997,0.006 v 2.9441 c 0,0.006 -0.01198,0.006 -0.02997,0.006 H 42.03 c -0.01798,0 -0.02997,0 -0.02997,-0.006 V 34.976 c 0,-0.006 0.01198,-0.006 0.02997,-0.006"
       fill="#db4ddb"
       fill-opacity="0.8"
       id="path15" />
    <path
       d="m 42.03,31.011 h 5.9347 c 0.01798,0 0.02997,0.006 0.02997,0.006 v 2.9261 c 0,0 -0.01198,0.006 -0.02997,0.006 H 42.03 c -0.01798,0 -0.02997,-0.006 -0.02997,-0.006 V 31.017 c 0,0 0.01198,-0.006 0.02997,-0.006"
       fill="#db4ddb"
       fill-opacity="0.702"
       id="path16" />
    <path
       d="m 42.03,27.012 h 5.9347 c 0.01798,0 0.02997,0 0.02997,0.006 v 2.9082 c 0,0 -0.01198,0.006 -0.02997,0.006 H 42.03 c -0.01798,0 -0.02997,-0.006 -0.02997,-0.006 v -2.9081 c -4e-6,-0.006 0.01198,-0.006 0.02997,-0.006"
       fill="#db4ddb"
       fill-opacity="0.6"
       id="path17" />
    <path
       d="m 28.034,43.009 h 5.9287 c 0.01798,0 0.02997,0.006 0.02997,0.006 v 2.9846 c 0,0 -0.01198,0.006 -0.02997,0.006 H 28.034 c -0.01798,0 -0.03446,-0.006 -0.03446,-0.006 V 43.015 c 0,0 0.01798,-0.006 0.03446,-0.006"
       fill="#7fcf5b"
       id="path18" />
    <path
       d="m 28.034,39.014 h 5.9287 c 0.01798,0 0.02997,0 0.02997,0.006 v 2.9666 c 0,0 -0.01198,0.006 -0.02997,0.006 H 28.034 c -0.01798,0 -0.03446,-0.006 -0.03446,-0.006 V 39.02 c 0,-0.006 0.01798,-0.006 0.03446,-0.006"
       fill="#7fcf5b"
       fill-opacity="0.902"
       id="path19" />
    <path
       d="m 28.034,34.97 h 5.9287 c 0.01798,0 0.02997,0 0.02997,0.006 v 2.9441 c 0,0.006 -0.01198,0.006 -0.02997,0.006 H 28.034 c -0.01798,0 -0.03446,0 -0.03446,-0.006 V 34.976 c 0,-0.006 0.01798,-0.006 0.03446,-0.006"
       fill="#7fcf5b"
       fill-opacity="0.8"
       id="path20" />
    <path
       d="m 14.034,43.009 h 5.9287 c 0.01798,0 0.02996,0.006 0.02996,0.006 v 2.9846 c 0,0 -0.01198,0.006 -0.02996,0.006 H 14.034 c -0.01798,-1.2e-5 -0.03446,-0.006 -0.03446,-0.006 V 43.015 c 0,0 0.01798,-0.006 0.03447,-0.006"
       fill="#c52f2f"
       id="path21" />
    <path
       d="m 14.034,39.044 h 5.9287 c 0.01798,0 0.02996,0.006 0.02996,0.006 v 2.9501 H 19.9627 14.034 13.99954 V 39.05 c 0,0 0.01798,-0.006 0.03446,-0.006"
       fill="#c52f2f"
       fill-opacity="0.902"
       id="path22" />
    <path
       d="m 14.034,35 h 5.9287 0.02996 v 2.9321 c 0,0.006 -0.01198,0.006 -0.02996,0.006 H 14.034 c -0.01798,0 -0.03446,0 -0.03446,-0.006 V 35 H 14.034"
       fill="#c52f2f"
       fill-opacity="0.8"
       id="path23" />
    <path
       d="m 14.034,31.086 h 5.9287 c 0.01798,0 0.02996,0 0.02996,0.006 v 2.9082 c 0,0 -0.01198,0.006 -0.02996,0.006 H 14.034 c -0.01798,0 -0.03446,-0.006 -0.03446,-0.006 V 31.092 c 0,-0.006 0.01798,-0.006 0.03446,-0.006"
       fill="#c52f2f"
       fill-opacity="0.702"
       id="path24" />
    <path
       d="m 14.034,27.102 h 5.9287 c 0.01798,0 0.02996,0.006 0.02996,0.006 v 2.8917 H 19.9627 14.034 13.99954 V 27.108 c 0,0 0.01798,-0.006 0.03446,-0.006"
       fill="#c52f2f"
       fill-opacity="0.6"
       id="path25" />
    <path
       d="m 14.034,23 h 5.9287 c 0.01798,0 0.02996,0 0.02996,0.006 v 2.9786 c 0,0.006 -0.01198,0.006 -0.02996,0.006 H 14.034 c -0.01798,0 -0.03446,0 -0.03446,-0.006 V 23.006 C 13.99954,23 14.01752,23 14.034,23"
       fill="#c52f2f"
       fill-opacity="0.502"
       id="path26" />
    <path
       d="m 14.034,19.009 h 5.9287 c 0.01798,0 0.02996,0.006 0.02996,0.006 v 2.9846 c 0,0 -0.01198,0.006 -0.02996,0.006 H 14.034 c -0.01798,0 -0.03446,-0.006 -0.03446,-0.006 V 19.015 c 0,0 0.01798,-0.006 0.03446,-0.006"
       fill="#c52f2f"
       fill-opacity="0.4"
       id="path27" />
  </g>
</svg>
