<?xml version="1.0" encoding="UTF-8" standalone="no"?>
<svg
   width="62"
   height="62"
   version="1.1"
   id="svg4"
   sodipodi:docname="betterbird.svg"
   inkscape:version="1.4 (e7c3feb100, 2024-10-09)"
   xmlns:inkscape="http://www.inkscape.org/namespaces/inkscape"
   xmlns:sodipodi="http://sodipodi.sourceforge.net/DTD/sodipodi-0.dtd"
   xmlns="http://www.w3.org/2000/svg"
   xmlns:svg="http://www.w3.org/2000/svg">
  <defs
     id="defs4" />
  <sodipodi:namedview
     id="namedview4"
     pagecolor="#ffffff"
     bordercolor="#000000"
     borderopacity="0.25"
     inkscape:showpageshadow="2"
     inkscape:pageopacity="0.0"
     inkscape:pagecheckerboard="0"
     inkscape:deskcolor="#d1d1d1"
     inkscape:zoom="8.0729167"
     inkscape:cx="53.202581"
     inkscape:cy="28.923871"
     inkscape:window-width="1920"
     inkscape:window-height="998"
     inkscape:window-x="0"
     inkscape:window-y="0"
     inkscape:window-maximized="1"
     inkscape:current-layer="svg4" />
  <g
     id="g4"
     transform="translate(-0.5,-1)">
    <ellipse
       style="opacity:0.2;stroke-width:1.37043"
       cx="31.5"
       cy="32.682926"
       id="circle1"
       rx="27.5"
       ry="27.317074" />
    <ellipse
       style="fill:#cec7c7;stroke-width:1.37043"
       cx="31.5"
       cy="31.317074"
       id="circle2"
       rx="27.5"
       ry="27.317074" />
    <path
       style="opacity:0.2;fill:#ffffff;stroke-width:1.37043"
       d="M 31.499999,4 A 27.499999,27.317073 0 0 0 4,31.317073 27.499999,27.317073 0 0 0 4.0295626,32.112 27.499999,27.317073 0 0 1 31.499999,5.3658537 27.499999,27.317073 0 0 1 58.971123,31.888 27.499999,27.317073 0 0 0 58.999999,31.317073 27.499999,27.317073 0 0 0 31.499999,4 Z"
       id="path2" />
    <path
       style="opacity:0.1;stroke-width:1.37043"
       d="m 31.499996,10.829941 c 0.28961,0 0.578188,0.01543 0.867493,0.02668 -0.287266,-0.01684 -0.575973,-0.02668 -0.867493,-0.02668 z m 0.867493,0.02668 c 7.609347,0.446155 13.643525,6.716659 13.643525,14.386814 0,5.769803 -3.54196,12.070581 -10.160129,11.537393 -5.559334,-0.561945 -6.787526,-2.856183 -7.100885,-5.674856 -0.302677,-2.722579 1.82794,-5.327642 6.112535,-5.331668 2.774338,-0.0041 5.379616,1.382182 4.74032,3.64939 3.971615,-3.990231 -2.76929,-10.280468 -9.37904,-10.398964 -2.593884,-0.04651 -5.167568,0.947614 -7.065704,3.268349 1.563386,-1.084789 2.817043,-1.471063 4.38043,-1.517912 -0.799109,0.376525 -1.926024,0.854177 -2.61859,1.886052 1.264221,-0.779534 2.667738,-1.097296 4.364317,-0.928355 -4.884738,1.027751 -8.317934,7.075674 -7.8692,13.869184 -2.729234,-2.61927 -4.426089,-6.292289 -4.426089,-10.358613 0,-7.710976 6.097751,-14.00875 13.764385,-14.394817 -2.499516,0.08396 -4.985752,0.584041 -7.313254,1.49657 -3.583718,1.40224 -6.70901,3.712451 -9.085835,6.645198 -0.0328,2.889969 0.343215,5.983821 1.128008,9.280869 -1.212998,-2.59082 -2.094252,-5.180195 -2.247958,-7.77096 -1.432258,2.114519 -2.500009,4.487836 -3.120823,7.040015 0.842123,2.303854 2.042833,4.252192 3.491453,5.951601 -1.292904,-0.805936 -2.585929,-2.116795 -3.8808841,-3.932164 -0.3239173,2.245654 -0.2962865,4.527757 0.080571,6.765244 1.5818151,1.58133 3.1605561,2.595277 4.7403201,3.443978 -1.284696,0.0936 -2.665354,-0.20121 -4.146771,-0.883003 2.25796,7.585173 8.646937,13.458681 16.369543,15.141768 1.296977,-1.353397 1.839129,-2.906321 2.986536,-4.884528 0.06354,1.22319 -0.583061,3.12609 -1.482526,5.159299 2.13705,0.312794 4.319411,0.311429 6.456504,0 -0.899505,-2.033114 -1.546054,-3.936109 -1.482526,-5.159299 1.147407,1.978248 1.689532,3.529096 2.986534,4.884528 7.726732,-1.689192 14.111572,-7.552511 16.369547,-15.141768 -1.481432,0.681752 -2.862078,0.976564 -4.146772,0.883003 1.57971,-0.848701 3.158506,-1.862648 4.740319,-3.443978 0.376873,-2.237501 0.404488,-4.519562 0.08059,-6.765244 -1.294955,1.815424 -2.585916,3.126228 -3.880885,3.932164 1.450684,-1.699409 2.649371,-3.647693 3.491453,-5.951601 -0.618821,-2.552125 -1.686571,-4.928109 -3.120822,-7.042683 -0.153668,2.59082 -1.034958,5.182808 -2.247958,7.773628 0.784809,-3.297089 1.160735,-6.390859 1.128007,-9.280869 -2.909525,-3.588084 -6.938923,-6.245358 -11.559397,-7.44817 v -0.0027 C 35.544949,11.139962 33.95921,10.918489 32.367503,10.856589 Z m 0.722463,10.540118 c 1.710894,0.639027 3.268862,0.179183 2.535334,1.176446 -0.922045,-0.274782 -1.750581,-0.694122 -2.535334,-1.176446 z"
       id="path3" />
    <path
       style="fill:#ff5555;stroke-width:1.37043"
       d="m 31.499996,9.4637508 c 0.28961,0 0.578188,0.015426 0.867493,0.026677 -0.287266,-0.016842 -0.575973,-0.026677 -0.867493,-0.026677 z m 0.867493,0.026677 c 7.609347,0.446155 13.643525,6.7166582 13.643525,14.3868132 0,5.769803 -3.54196,12.070581 -10.160129,11.537393 -5.559334,-0.561945 -6.787526,-2.856183 -7.100885,-5.674855 -0.302677,-2.72258 1.82794,-5.327642 6.112535,-5.331669 2.774338,-0.0041 5.379616,1.382182 4.74032,3.64939 3.971615,-3.990231 -2.76929,-10.280466 -9.37904,-10.398962 -2.593884,-0.04651 -5.167568,0.947614 -7.065704,3.268347 1.563386,-1.084787 2.817043,-1.471063 4.38043,-1.517911 -0.799109,0.376525 -1.926024,0.854176 -2.61859,1.886051 1.264221,-0.779534 2.667738,-1.097295 4.364317,-0.928354 -4.884738,1.02775 -8.317934,7.075673 -7.8692,13.869184 -2.729234,-2.619271 -4.426089,-6.29229 -4.426089,-10.358614 0,-7.710975 6.097751,-14.0087496 13.764385,-14.3948162 -2.499516,0.08396 -4.985752,0.5840412 -7.313254,1.4965702 -3.583718,1.402241 -6.70901,3.712451 -9.085835,6.645197 -0.0328,2.889969 0.343215,5.983821 1.128008,9.280869 -1.212998,-2.590819 -2.094252,-5.180195 -2.247958,-7.77096 -1.432258,2.114519 -2.500009,4.487837 -3.120823,7.040015 0.842123,2.303855 2.042833,4.252192 3.491453,5.951601 -1.292904,-0.805935 -2.585929,-2.116793 -3.8808841,-3.932164 -0.3239173,2.245655 -0.2962865,4.527758 0.080571,6.765245 1.5818151,1.581331 3.1605561,2.595278 4.7403201,3.443978 -1.284696,0.0936 -2.665354,-0.201209 -4.146771,-0.883003 2.25796,7.585172 8.646937,13.45868 16.369543,15.141767 1.296977,-1.353397 1.839129,-2.90632 2.986536,-4.884528 0.06354,1.223191 -0.583061,3.12609 -1.482526,5.1593 2.13705,0.312794 4.319411,0.311428 6.456504,0 -0.899505,-2.033115 -1.546054,-3.936109 -1.482526,-5.1593 1.147407,1.978248 1.689532,3.529096 2.986534,4.884528 7.726732,-1.689191 14.111572,-7.552511 16.369547,-15.141767 -1.481432,0.681753 -2.862078,0.976564 -4.146772,0.883003 1.57971,-0.8487 3.158506,-1.862647 4.740319,-3.443978 0.376873,-2.237502 0.404488,-4.519562 0.08059,-6.765244 -1.294955,1.815424 -2.585916,3.126229 -3.880885,3.932164 1.450684,-1.699409 2.649371,-3.647692 3.491453,-5.951601 -0.618821,-2.552124 -1.686571,-4.928109 -3.120822,-7.042682 -0.153668,2.590819 -1.034958,5.182808 -2.247958,7.773627 0.784809,-3.297089 1.160735,-6.390859 1.128007,-9.280869 -2.909525,-3.588084 -6.938923,-6.245358 -11.559397,-7.44817 v -0.0027 C 35.544937,9.7738047 33.959198,9.5523323 32.367491,9.4904316 Z m 0.722463,10.5401172 c 1.710894,0.639027 3.268862,0.179184 2.535334,1.176447 -0.922045,-0.274783 -1.750581,-0.694123 -2.535334,-1.176447 z"
       id="path4" />
  </g>
</svg>
