<?xml version="1.0" encoding="UTF-8" standalone="no"?>
<svg
   width="62"
   height="62"
   version="1.1"
   id="svg5"
   sodipodi:docname="expandrive.svg"
   inkscape:version="1.4 (e7c3feb100, 2024-10-09)"
   xmlns:inkscape="http://www.inkscape.org/namespaces/inkscape"
   xmlns:sodipodi="http://sodipodi.sourceforge.net/DTD/sodipodi-0.dtd"
   xmlns="http://www.w3.org/2000/svg"
   xmlns:svg="http://www.w3.org/2000/svg">
  <defs
     id="defs5" />
  <sodipodi:namedview
     id="namedview5"
     pagecolor="#ffffff"
     bordercolor="#000000"
     borderopacity="0.25"
     inkscape:showpageshadow="2"
     inkscape:pageopacity="0.0"
     inkscape:pagecheckerboard="0"
     inkscape:deskcolor="#d1d1d1"
     inkscape:zoom="11.6875"
     inkscape:cx="31.957219"
     inkscape:cy="32"
     inkscape:window-width="1920"
     inkscape:window-height="994"
     inkscape:window-x="0"
     inkscape:window-y="0"
     inkscape:window-maximized="1"
     inkscape:current-layer="svg5" />
  <g
     id="g5"
     transform="translate(-1,-1.0000009)">
    <path
       style="opacity:0.2;stroke-width:0.982747"
       d="m 32.019113,4.9840134 c -0.567283,-0.024536 -1.073776,0.4191481 -2.248337,1.2223097 -3.249433,2.2219643 -5.879543,4.8386969 -7.514945,7.3703139 -0.152145,0.235521 -0.297774,0.468647 -0.431999,0.702303 -0.161594,0.278216 -0.309472,0.556385 -0.445443,0.830863 -0.06677,0.137361 -0.126321,0.272559 -0.186245,0.408714 -0.148106,0.329908 -0.282053,0.655899 -0.385921,0.976691 -0.007,0.02129 -0.01829,0.04397 -0.02497,0.06521 -0.267156,0.848876 -0.441876,1.579214 -0.389765,1.627188 0,0 0,0.002 0,0.002 l -0.0078,1.095664 c -1.570553,-0.418792 -2.9975,-0.465387 -4.604156,-0.190014 -3.289208,0.563752 -7.8565537,2.797336 -11.2570474,5.505188 L 3,25.813158 3.5395245,27.758876 c 1.0953519,3.956441 2.6856633,7.237234 4.6368367,9.690205 0.00247,0.0031 0.00524,0.0065 0.00771,0.0098 0.4064214,0.510228 0.8279256,0.985149 1.2652901,1.41995 0.071602,0.07115 0.1407217,0.149647 0.2131217,0.218747 0.449882,0.429397 0.908844,0.831129 1.388175,1.178178 l 1.052169,0.761781 0.902403,0.681195 c -1.235867,2.069337 -1.567489,4.184632 -1.390089,7.612086 0.162086,3.131612 0.46336,4.630601 1.681931,8.358527 0.592513,1.812631 0.75614,2.069591 1.390094,2.166382 1.448116,0.221096 4.536076,0.183785 6.745016,-0.08248 2.593324,-0.312632 4.713949,-0.876059 6.55301,-1.736565 0.03305,-0.01531 0.065,-0.03243 0.09793,-0.04794 0.25341,-0.120755 0.50396,-0.245324 0.746887,-0.378015 0.06833,-0.03686 0.13407,-0.07726 0.2016,-0.115127 0.206234,-0.116873 0.413141,-0.232856 0.612487,-0.358826 0.278012,-0.174207 0.550851,-0.355631 0.816002,-0.548792 l 1.144333,-0.834702 0.61824,-0.723408 c 1.065512,1.191697 2.290817,2.164671 3.644195,2.801525 0.956154,0.449936 2.559528,1.020573 3.561624,1.266441 2.261815,0.554955 6.905269,0.942656 9.006796,0.752193 l 1.578253,-0.143936 0.685443,-1.901585 c 1.474508,-4.094297 2.112944,-7.80203 1.902737,-10.831925 -4e-4,-0.0059 -0.0015,-0.01152 -0.002,-0.01728 -0.0223,-0.31626 -0.04904,-0.627878 -0.09026,-0.928722 -0.04288,-0.347585 -0.09508,-0.686072 -0.16704,-1.009322 -0.0889,-0.399472 -0.191622,-0.786002 -0.293763,-1.141712 -0.306071,-1.067463 -0.618244,-1.853615 -0.618244,-1.853615 l -0.454987,-0.84627 c 0.724691,-0.316387 1.404391,-0.696188 2.069774,-1.172419 2.755464,-1.972134 5.315623,-6.08917 7.067578,-11.367283 l 0.88704,-2.673006 -1.132808,-1.036186 c -1.737981,-1.588092 -4.031848,-3.060678 -6.716214,-4.31166 -2.285485,-1.065095 -3.66345,-1.513494 -5.293487,-1.665562 -0.471663,-0.04544 -0.960189,-0.07097 -1.503368,-0.07097 h -1.850902 l -1.109769,0.264754 C 43.24628,17.588064 42.892917,16.167466 42.348795,15.067581 41.026297,12.39898 38.311229,9.3283435 35.246658,7.035267 33.384298,5.641762 32.662053,5.011828 32.019113,4.9840134 Z"
       id="path1" />
    <path
       style="fill:#9a1b29;stroke-width:0.982747"
       d="m 20.391316,17.206308 12.845203,3.383087 11.268484,-2.693511 1.789598,13.598094 5.136419,9.545544 -12.335995,4.988044 -7.491407,8.743651 L 12.10345,40.054373 20.321272,27.133112 Z"
       id="path2" />
    <path
       style="fill:#ef344a;stroke-width:0.982747"
       d="m 32.019686,4.0009652 c -0.56728,-0.024538 -1.073479,0.4201454 -2.248048,1.2233062 -4.556709,3.1158859 -7.937013,7.0092326 -8.98943,10.3534436 -0.267643,0.850427 -0.443272,1.583438 -0.390233,1.628986 0.05319,0.04557 1.119551,0.561842 2.369902,1.147334 4.126011,1.93205 6.971348,4.568425 8.593739,7.962442 1.173256,2.45442 0.912201,2.623699 -0.303229,0.196574 -1.455728,-2.90696 -3.862179,-5.181373 -7.272264,-6.873053 -3.167095,-1.571141 -5.332505,-1.984467 -8.000586,-1.527178 -3.289208,0.563748 -7.8561877,2.797414 -11.2566812,5.505266 L 3,24.830818 3.538701,26.776586 c 1.59418,5.758216 4.2189137,10.131289 7.512815,12.516157 l 1.051934,0.76163 2.320526,-2.353413 c 3.731128,-3.784251 7.229264,-5.404551 11.504289,-5.328659 l 2.316596,0.04115 -2.541095,0.189134 c -4.215897,0.313768 -7.244649,1.843178 -10.493489,5.298896 -3.090427,3.287222 -3.851795,5.500091 -3.595768,10.44664 0.162079,3.131612 0.464126,4.631974 1.682698,8.359899 0.592508,1.812639 0.75687,2.068664 1.39083,2.165455 1.448121,0.221094 4.534801,0.182886 6.743737,-0.0834 3.837614,-0.462632 6.655013,-1.456475 9.027442,-3.184741 l 1.144402,-0.834076 -0.6719,-0.880273 c -1.064514,-1.394934 -2.455367,-4.664824 -2.961481,-6.961948 -0.546954,-2.482497 -0.431701,-5.924072 0.247199,-7.380159 0.239927,-0.514592 0.371531,-0.70774 0.292283,-0.429176 -1.862361,6.545525 1.668014,15.052717 7.357664,17.73008 0.956152,0.449939 2.55804,1.019337 3.560136,1.265202 2.261816,0.554954 6.906317,0.943087 9.007843,0.752623 l 1.578877,-0.14332 0.685226,-1.902306 c 1.807329,-5.018449 2.379374,-9.473081 1.641962,-12.785956 -0.355685,-1.59791 -0.910407,-2.996461 -0.910407,-2.996461 0,0 -1.016122,0.28719 -2.061252,0.53497 -5.345238,1.267279 -11.285844,0.03818 -14.496337,-2.999131 l -1.279559,-1.210386 1.337156,1.063151 c 2.948644,2.344095 5.562101,3.105059 10.029621,2.920424 3.712735,-0.153443 5.944425,-0.796152 8.0852,-2.328352 2.755464,-1.972138 5.314636,-6.088746 7.066589,-11.36686 l 0.887385,-2.673339 -1.132657,-1.034949 c -1.737977,-1.588118 -4.031955,-3.06076 -6.716321,-4.311739 -2.949018,-1.374313 -4.369158,-1.737448 -6.797803,-1.737448 h -1.848039 l -0.16063,2.085167 c -0.306613,3.974226 -2.092846,8.173037 -4.548594,10.692954 -1.061093,1.088822 -3.332661,2.72659 -3.781867,2.72659 -0.114203,0 0.513684,-0.481628 1.395531,-1.0702 C 39.964447,30.625108 41.66811,28.11668 42.85717,24.30846 43.894232,20.599254 43.571188,16.555843 42.349023,14.085401 41.026534,11.416788 38.311381,8.3459353 35.246807,6.0528587 33.384448,4.6593534 32.662628,4.0287774 32.019686,4.0009636 Z"
       id="path3" />
    <path
       style="fill:#c62937;stroke-width:0.982747"
       d="m 22.255056,12.593769 c -0.657716,1.018265 -1.170787,2.02538 -1.472655,2.984588 -0.26764,0.850428 -0.391085,1.627951 -0.391085,1.627951 0,0 1.120458,0.561597 2.370809,1.147093 4.126008,1.932046 6.970767,4.568452 8.593161,7.962468 l 0.825332,2.009424 c 0,0 -0.363694,-6.739871 -9.925562,-15.731524 z m 22.248911,5.302944 -0.159135,2.084644 c -0.306613,3.974228 -2.094366,8.171937 -4.550116,10.691846 -0.904471,0.928105 -2.62407,2.193997 -3.409215,2.565506 -0.03549,0.0419 -0.221167,0.271323 -0.221167,0.271323 0,0 5.783611,-0.883016 13.523582,-15.218416 -1.074906,-0.287844 -2.07016,-0.394903 -3.3337,-0.394903 z M 24.976492,31.951925 c -2.8909,0.07769 -8.061518,0.98498 -16.8006336,4.515832 0.00247,0.0031 0.00566,0.005 0.00813,0.0083 0.4066044,0.510581 0.8294813,0.981148 1.26497,1.421104 0.071602,0.07115 0.1406764,0.148501 0.2130763,0.217594 0.1265528,0.122802 0.2566592,0.238433 0.3856923,0.354608 0.328493,0.291215 0.659894,0.576055 1.003344,0.824722 l 1.051899,0.760248 2.322262,-2.353281 c 3.731122,-3.784251 7.228368,-5.405698 11.5034,-5.329806 l 2.316862,0.04295 c 0,0 -0.567549,-0.362352 -2.165824,-0.44863 -0.323691,-0.01748 -0.690154,-0.02458 -1.10314,-0.01352 z m 8.617445,5.413082 c 0,0 2.315028,5.724354 19.006912,8.626014 -0.04739,-0.684292 -0.123053,-1.345305 -0.258924,-1.955693 -0.355687,-1.597909 -0.91164,-2.995329 -0.911642,-2.995327 0,0 -1.015503,0.286805 -2.060633,0.534589 -5.345236,1.267276 -11.286764,0.03931 -14.497258,-2.998019 z m -5.162376,1.657509 c 0,0 -2.467958,1.126731 -1.30003,18.399114 1.216803,-0.48542 2.317525,-1.079677 3.328302,-1.816006 l 1.143595,-0.83547 -0.671598,-0.878449 C 29.867313,52.496774 28.476464,49.2257 27.970344,46.928574 27.423397,44.446075 27.539583,41.00514 28.218485,39.54905 c 0.06975,-0.149553 0.104826,-0.206624 0.153739,-0.298193 0.02466,-0.0783 0.03301,-0.149189 0.05929,-0.228341 z"
       id="path4" />
    <path
       style="opacity:0.2;fill:#ffffff;stroke-width:0.982747"
       d="m 32.019113,4.0019191 c -0.567283,-0.024536 -1.073776,0.419148 -2.248337,1.2223089 -3.249433,2.2219643 -5.879543,4.838698 -7.514945,7.370313 -0.152145,0.235522 -0.297775,0.468647 -0.431999,0.702304 -0.161594,0.278216 -0.309472,0.556384 -0.445443,0.830863 -0.06677,0.13736 -0.126321,0.272559 -0.186245,0.408715 -0.148106,0.329908 -0.282053,0.655898 -0.385921,0.97669 -0.007,0.02128 -0.01829,0.04397 -0.02497,0.06521 -0.267156,0.848876 -0.441876,1.579214 -0.389765,1.62719 v 0.002 l -0.0078,1.095665 c -1.57051,-0.418795 -2.997459,-0.46539 -4.604112,-0.190014 -3.289208,0.563749 -7.856554,2.797333 -11.2570477,5.505184 L 3,24.831063 3.2227222,25.635061 4.5225721,24.600802 c 3.4004935,-2.707847 7.9678399,-4.94144 11.2570479,-5.505188 1.606653,-0.275368 3.03359,-0.228825 4.6042,0.18997 l 0.0078,-1.09567 v -0.002 c -0.05214,-0.04794 0.12261,-0.778314 0.389762,-1.62719 0.0068,-0.02124 0.0181,-0.04392 0.025,-0.06521 0.103863,-0.320793 0.237814,-0.646784 0.385921,-0.9767 0.05989,-0.136155 0.119474,-0.271345 0.18624,-0.408714 0.135977,-0.274479 0.283854,-0.552647 0.445443,-0.830863 0.134229,-0.233657 0.279859,-0.466773 0.432003,-0.702304 1.635403,-2.531607 4.265513,-5.1483453 7.514944,-7.3703096 1.174563,-0.803161 1.681056,-1.2468469 2.248332,-1.2223089 0.642947,0.027811 1.36519,0.6577475 3.227548,2.0512535 3.064571,2.2930761 5.779644,5.363721 7.102139,8.032317 0.544121,1.099881 0.897486,2.52049 1.044486,4.07564 l 1.109767,-0.264801 h 1.850915 c 0.54318,0 1.031706,0.02558 1.503369,0.07097 1.630036,0.152074 3.008002,0.600473 5.293485,1.665569 2.684367,1.250974 4.978235,2.723558 6.716213,4.31166 L 60.750398,25.734804 61,24.980698 59.867192,23.944519 c -1.738015,-1.588093 -4.031882,-3.060679 -6.716249,-4.31166 -2.285483,-1.065087 -3.663449,-1.513493 -5.293485,-1.665561 -0.471663,-0.04544 -0.960189,-0.07098 -1.503368,-0.07098 h -1.85097 l -1.109769,0.264811 C 43.24628,16.605971 42.892917,15.185371 42.348795,14.085485 41.026297,11.416885 38.311229,8.3462486 35.246658,6.0531726 33.384298,4.6596667 32.662053,4.0297329 32.019113,4.0019191 Z M 51.392065,40.968614 c -0.13947,0.06749 -0.273917,0.144924 -0.416642,0.207238 l 0.455041,0.846215 c 0,0 0.312174,0.786152 0.618247,1.85361 0.102139,0.355717 0.204843,0.74224 0.293761,1.141718 0.07193,0.323249 0.124121,0.661732 0.167038,1.009315 0.04121,0.300849 0.06795,0.612463 0.09026,0.928727 4.92e-4,0.0059 0.0015,0.01148 0.002,0.01728 0.01519,0.219275 0.01671,0.449167 0.02305,0.675432 0.0151,-0.570174 0.01376,-1.127664 -0.02305,-1.657889 -4.02e-4,-0.0059 -0.0015,-0.01152 -0.002,-0.01728 -0.02231,-0.31626 -0.04904,-0.627873 -0.09026,-0.928722 -0.04288,-0.347582 -0.09508,-0.686071 -0.167038,-1.009314 -0.0889,-0.399481 -0.191622,-0.786006 -0.293761,-1.141718 -0.306073,-1.067465 -0.618247,-1.853616 -0.618247,-1.853616 z m -38.765112,0.466281 c -0.816585,1.647565 -1.101078,3.418996 -1.046406,5.913906 0.04203,-2.318831 0.447669,-3.994057 1.424649,-5.629916 z"
       id="path5" />
  </g>
</svg>
