<?xml version="1.0" encoding="UTF-8" standalone="no"?>
<svg
   width="62"
   height="62"
   version="1.1"
   id="svg5"
   sodipodi:docname="factorio.svg"
   inkscape:version="1.4 (unknown)"
   xmlns:inkscape="http://www.inkscape.org/namespaces/inkscape"
   xmlns:sodipodi="http://sodipodi.sourceforge.net/DTD/sodipodi-0.dtd"
   xmlns:xlink="http://www.w3.org/1999/xlink"
   xmlns="http://www.w3.org/2000/svg"
   xmlns:svg="http://www.w3.org/2000/svg">
  <defs
     id="defs5">
    <linearGradient
       id="linearGradient8"
       inkscape:collect="always">
      <stop
         style="stop-color:#2d3d53;stop-opacity:1;"
         offset="0"
         id="stop8" />
      <stop
         style="stop-color:#d59851;stop-opacity:1;"
         offset="1"
         id="stop10" />
    </linearGradient>
    <linearGradient
       id="linearGradient4217">
      <stop
         style="stop-color:#000000;stop-opacity:1;"
         offset="0"
         id="stop2" />
      <stop
         style="stop-color:#000000;stop-opacity:0;"
         offset="1"
         id="stop4" />
    </linearGradient>
    <linearGradient
       id="linearGradient4161">
      <stop
         style="stop-color:#334545;stop-opacity:1;"
         offset="0"
         id="stop7" />
      <stop
         style="stop-color:#4d6868;stop-opacity:1"
         offset="1"
         id="stop9" />
    </linearGradient>
    <linearGradient
       id="a-1-2"
       y1="510.79999"
       y2="527.14001"
       gradientUnits="userSpaceOnUse"
       x2="0">
      <stop
         stop-color="#7cbaf8"
         id="stop2-2-7" />
      <stop
         offset="1"
         stop-color="#f4fcff"
         id="stop4-70-0" />
    </linearGradient>
    <linearGradient
       id="c"
       y1="503.79999"
       x1="400.57001"
       y2="519.79999"
       x2="416.57001"
       gradientUnits="userSpaceOnUse">
      <stop
         stop-color="#292c2f"
         id="stop12" />
      <stop
         offset="1"
         stop-opacity="0"
         id="stop14" />
    </linearGradient>
    <linearGradient
       id="b"
       y1="542.79999"
       x1="408.57001"
       y2="521.79999"
       x2="387.57001"
       gradientUnits="userSpaceOnUse"
       gradientTransform="translate(-384.57,-499.8)">
      <stop
         stop-color="#197cf1"
         id="stop7-8" />
      <stop
         offset="1"
         stop-color="#20bcfa"
         id="stop9-7" />
    </linearGradient>
    <linearGradient
       xlink:href="#linearGradient1389"
       id="linearGradient4503-5-6"
       y1="37"
       y2="4"
       x2="0"
       gradientUnits="userSpaceOnUse"
       gradientTransform="matrix(1.0218446,0,0,0.99999999,21.748946,8.2587777)" />
    <linearGradient
       id="linearGradient1389">
      <stop
         style="stop-color:#ffaaaa;stop-opacity:1"
         id="stop1385"
         offset="0" />
      <stop
         offset="1"
         style="stop-color:#ff5555;stop-opacity:1"
         id="stop1387" />
    </linearGradient>
    <linearGradient
       id="paint543_linear_890_11"
       x1="978.5"
       y1="298"
       x2="978.5"
       y2="304"
       gradientUnits="userSpaceOnUse"
       gradientTransform="matrix(0.75000004,0,0,0.75000004,-717.38333,-173.49123)">
      <stop
         offset="0.189495"
         stop-color="#EFF2F6"
         id="stop1829" />
      <stop
         offset="0.850463"
         stop-color="#B7C6CD"
         id="stop1830" />
    </linearGradient>
    <linearGradient
       inkscape:collect="always"
       xlink:href="#linearGradient8"
       id="linearGradient10"
       x1="31.5"
       y1="59.017544"
       x2="31.378998"
       y2="15.388648"
       gradientUnits="userSpaceOnUse"
       gradientTransform="translate(-0.5,-1)" />
    <linearGradient
       id="linearGradient4144">
      <stop
         style="stop-color:#c83771;stop-opacity:1"
         offset="0"
         id="stop1141" />
      <stop
         style="stop-color:#de87aa;stop-opacity:1"
         offset="1"
         id="stop1143" />
    </linearGradient>
    <linearGradient
       id="c-0"
       gradientUnits="userSpaceOnUse"
       x1="10"
       x2="24"
       y1="10"
       y2="24"
       gradientTransform="translate(59.728813,26.237288)">
      <stop
         offset="0"
         stop-color="#292c2f"
         id="stop12-2" />
      <stop
         offset="1"
         stop-opacity="0"
         id="stop14-3" />
    </linearGradient>
    <linearGradient
       id="d"
       gradientUnits="userSpaceOnUse"
       x1="24"
       x2="24"
       y1="25"
       y2="7"
       gradientTransform="translate(59.728813,26.237288)">
      <stop
         offset="0"
         stop-color="#bb9d71"
         id="stop2-7" />
      <stop
         offset="1"
         stop-color="#f9f2e7"
         id="stop4-5" />
    </linearGradient>
  </defs>
  <sodipodi:namedview
     id="namedview5"
     pagecolor="#ffffff"
     bordercolor="#000000"
     borderopacity="0.25"
     inkscape:showpageshadow="2"
     inkscape:pageopacity="0.0"
     inkscape:pagecheckerboard="0"
     inkscape:deskcolor="#d1d1d1"
     inkscape:zoom="8.2643105"
     inkscape:cx="25.289466"
     inkscape:cy="49.671415"
     inkscape:window-width="1920"
     inkscape:window-height="998"
     inkscape:window-x="0"
     inkscape:window-y="0"
     inkscape:window-maximized="1"
     inkscape:current-layer="svg5" />
  <rect
     style="opacity:0.2;stroke-width:0.9823"
     width="55"
     height="55.017544"
     x="3.5"
     y="3.9824562"
     rx="8.25"
     ry="8.2526312"
     id="rect1" />
  <rect
     style="fill:url(#linearGradient10);stroke-width:0.9823"
     width="55"
     height="55.017544"
     x="3.5"
     y="3"
     rx="8.25"
     ry="8.2526312"
     id="rect2" />
  <path
     style="opacity:1;fill:#5a79a5;stroke-width:0.9823;fill-opacity:0.5"
     d="M 11.748466,3 C 7.1779652,3 3.5,6.6791384 3.5,11.251097 v 0.982456 c 0,-4.5719585 3.6779652,-8.2510969 8.248466,-8.2510969 h 38.503068 c 4.5705,0 8.248466,3.6791384 8.248466,8.2510969 V 11.251097 C 58.5,6.6791384 54.822034,3 50.251534,3 Z"
     id="path4" />
  <g
     id="g1"
     transform="translate(12.5,-40.491238)">
    <path
       style="opacity:0.2;stroke-width:0.744528"
       d="m -1.7109464,64.358449 -0.1616141,0.273436 c -0.2372908,0.411591 -0.1337858,0.981227 0.232145,1.289455 l 3.3380603,2.869217 c 0.03399,-0.451946 0.081915,-0.899229 0.1498622,-1.344144 l -3.4879081,-2.998895 c -0.029487,-0.02657 -0.044537,-0.06186 -0.070555,-0.08995 z m 40.4217044,0 c -0.02599,0.02795 -0.04102,0.06445 -0.07057,0.08927 l -3.488054,2.999185 c 0.06792,0.444912 0.115868,0.892196 0.149857,1.344138 l 3.338208,-2.869657 c 0.365888,-0.30823 0.46943,-0.87786 0.232153,-1.289452 L 38.711399,64.357812 Z M 1.6832315,70.633286 c -0.012542,0.244816 -0.032333,0.487553 -0.032333,0.736834 0,0.373896 0.019609,0.740654 0.047015,1.105237 L 1.8477866,72.345844 C 1.7614292,71.78142 1.7126821,71.211118 1.6831935,70.633449 Z m 33.6333495,0 c -0.02953,0.577586 -0.07836,1.148015 -0.164559,1.712541 l 0.149859,0.129512 c 0.02753,-0.364582 0.047,-0.731335 0.047,-1.105235 0,-0.249275 -0.0197,-0.492019 -0.03233,-0.736835 z m -37.0275274,6.274837 c -0.2968388,0.319786 -0.3797378,0.820832 -0.1615846,1.19956 l 4.2138363,7.15534 c 0.2443166,0.405852 0.794126,0.605473 1.248864,0.451895 l 4.3782748,-1.451555 c 1.3155585,1.031517 2.8155449,1.872861 4.4106329,2.483846 l 0.887409,4.41521 c 0.09015,0.462294 0.53923,0.831202 1.019665,0.837591 h 8.42769 c 0.480429,-0.0069 0.929568,-0.375297 1.019662,-0.837591 l 0.887425,-4.41521 c 1.593271,-0.611566 3.093272,-1.453029 4.408203,-2.484593 l 4.378437,1.45064 c 0.454714,0.153591 1.00454,-0.04598 1.248872,-0.451884 l 4.213829,-7.15534 c 0.218169,-0.378436 0.135255,-0.880607 -0.161614,-1.200219 l -4.052249,6.881829 c -0.244328,0.40591 -0.794142,0.605473 -1.248869,0.451882 l -4.379635,-1.451551 c -1.31556,1.031516 -2.815542,1.869923 -4.410627,2.481052 l -0.887416,4.418051 c -0.08876,0.461247 -0.538613,0.831125 -1.018552,0.837 H 14.28363 c -0.480431,-0.0072 -0.92954,-0.375258 -1.019667,-0.837548 L 12.377812,85.268493 C 10.781518,84.656934 9.2821301,83.818417 7.9665831,82.786855 L 3.5881533,84.236941 C 3.1334898,84.391667 2.5837409,84.191251 2.3394096,83.785993 l -4.0522513,-6.881982 z"
       id="path1" />
    <path
       style="fill:#f4e4d2;stroke-width:0.744528;fill-opacity:1"
       d="m 14.188314,50.002383 c -0.446566,0.04765 -0.839912,0.405474 -0.921528,0.83812 l -0.888585,4.416157 c -1.595255,0.61105 -3.0945192,1.450604 -4.4100773,2.482176 L 3.59145,56.288197 c -0.4547432,-0.153572 -1.0063022,0.04536 -1.2506233,0.451308 l -4.2126774,7.156217 c -0.2372958,0.411579 -0.1355591,0.981185 0.2303715,1.289409 l 3.4885504,2.997788 c -0.1227691,0.803822 -0.1974691,1.612597 -0.1974691,2.449906 0,0.837351 0.074624,1.64604 0.1974691,2.449906 l -3.4885504,2.997941 c -0.3658852,0.308224 -0.4676673,0.877824 -0.2303715,1.289408 l 4.2126774,7.156231 c 0.2443211,0.405828 0.7958801,0.604852 1.2506233,0.451279 l 4.3771227,-1.450576 c 1.315577,1.031493 2.8148273,1.87106 4.4100783,2.482175 l 0.888591,4.41616 c 0.09013,0.462277 0.539806,0.831706 1.020241,0.838078 h 8.425215 c 0.480439,-0.0067 0.930146,-0.375801 1.020223,-0.838078 l 0.888609,-4.41616 c 1.595254,-0.611057 3.094517,-1.450624 4.410079,-2.482175 l 4.377118,1.450576 c 0.454732,0.153573 1.006295,-0.04534 1.250629,-0.451279 l 4.212678,-7.156231 c 0.237272,-0.411584 0.135565,-0.981184 -0.230376,-1.289408 l -3.488553,-2.997941 c 0.122778,-0.803818 0.197462,-1.612447 0.197462,-2.449906 0,-0.83734 -0.07484,-1.646046 -0.197462,-2.449906 l 3.488553,-2.997788 c 0.36589,-0.308224 0.467648,-0.87783 0.230376,-1.289409 l -4.212678,-7.156217 c -0.244334,-0.405841 -0.795897,-0.60488 -1.250629,-0.451308 l -4.377118,1.450577 C 27.715145,56.7065 26.216624,55.866976 24.621821,55.255866 l -0.888589,-4.416158 c -0.09014,-0.46229 -0.539804,-0.83172 -1.020234,-0.838117 h -8.425211 c -0.03287,-7.33e-4 -0.06597,-7.33e-4 -0.0987,0 z"
       id="path2" />
    <path
       style="opacity:0.2;stroke-width:0.744528"
       d="m 18.499966,62.526786 c 4.985725,0 9.027473,3.958697 9.027473,8.841954 -1e-6,4.883257 -4.041748,8.84195 -9.027473,8.84195 -4.985724,0 -9.0274874,-3.958693 -9.0274874,-8.84195 0,-4.883257 4.0417634,-8.841954 9.0274874,-8.841954 z"
       id="path3" />
    <path
       style="fill:#2d3d53;stroke-width:0.744528;fill-opacity:1"
       d="m 18.500998,61.790158 c 4.98573,0 9.027492,3.958695 9.027492,8.841954 0,4.88326 -4.041762,8.841952 -9.027492,8.841952 -4.985727,0 -9.0274766,-3.958692 -9.0274766,-8.841952 0,-4.883259 4.0417496,-8.841954 9.0274766,-8.841954 z"
       id="path4-3" />
    <path
       style="opacity:0.1;fill:#ffffff;stroke-width:0.744528"
       d="m 14.175786,50.00057 c -0.446584,0.04766 -0.81173,0.396281 -0.893356,0.828932 l -0.893358,4.420996 c -1.595297,0.611065 -3.104108,1.455293 -4.4197142,2.486811 L 3.5966523,56.309693 C 3.141892,56.156115 2.571485,56.318793 2.3271571,56.724158 l -4.0435773,6.907805 c 0.028643,0.03167 0.06105,0.06434 0.094037,0.09209 l 0.1866036,0.164058 3.7629377,-6.427133 C 2.571488,57.05536 3.1418948,56.892924 3.5966551,57.046516 l 4.3727053,1.427617 c 1.315606,-1.031518 2.8244146,-1.875742 4.4197116,-2.486819 l 0.893358,-4.420983 c 0.08164,-0.432652 0.446772,-0.78134 0.893356,-0.828945 0.03274,-7.35e-4 0.06113,-7.35e-4 0.09403,0 h 8.463312 c 0.480446,0.0066 0.897248,0.366648 0.987376,0.828945 l 0.893355,4.420983 c 1.59531,0.611125 3.104104,1.455301 4.419725,2.48682 l 4.372709,-1.427615 c 0.454739,-0.153592 1.025157,0.009 1.269486,0.414466 l 3.762941,6.427133 0.186603,-0.16406 c 0.03288,-0.02778 0.06549,-0.06051 0.09405,-0.09209 L 34.675769,56.72416 c -0.244327,-0.405849 -0.814745,-0.568044 -1.269484,-0.414466 l -4.37271,1.427616 c -1.315619,-1.031518 -2.824413,-1.875682 -4.419723,-2.486811 l -0.893355,-4.420996 c -0.09014,-0.462277 -0.50693,-0.822547 -0.987376,-0.828932 h -8.46331 c -0.03289,-7.48e-4 -0.0613,-7.48e-4 -0.09403,-10e-7 z M -1.952981,64.230644 c -0.025357,0.136461 -0.0293,0.231995 0,0.368405 -0.021345,-0.116118 -0.017668,-0.252316 0,-0.368405 z m 40.907426,0 c 0.01775,0.116118 0.02132,0.252212 0,0.368405 0.0293,-0.136458 0.0254,-0.231989 0,-0.368405 z m -37.2385269,8.980135 -3.3383024,2.855224 c -0.032995,0.02778 -0.065333,0.06052 -0.094037,0.09211 l 0.2821093,0.483546 3.1502294,-2.694041 c 0.01676,0.22384 0.046978,0.440611 0.069057,0.659119 l 0.071997,-0.06053 C 1.7887248,74.099775 1.749876,73.664365 1.7159174,73.210775 Z m 33.5696319,0 c -0.03398,0.453589 -0.07292,0.888999 -0.14106,1.335503 l 0.07199,0.06053 c 0.02208,-0.218504 0.05235,-0.435271 0.06911,-0.659117 l 3.150233,2.694037 0.28211,-0.48354 c -0.02866,-0.03171 -0.06114,-0.06433 -0.09403,-0.09209 z"
       id="path5" />
  </g>
</svg>
