<?xml version="1.0" encoding="UTF-8" standalone="no"?>
<svg
   width="62"
   height="62"
   version="1.1"
   id="svg10"
   sodipodi:docname="falkon.svg"
   inkscape:version="1.4 (e7c3feb100, 2024-10-09)"
   xmlns:inkscape="http://www.inkscape.org/namespaces/inkscape"
   xmlns:sodipodi="http://sodipodi.sourceforge.net/DTD/sodipodi-0.dtd"
   xmlns:xlink="http://www.w3.org/1999/xlink"
   xmlns="http://www.w3.org/2000/svg"
   xmlns:svg="http://www.w3.org/2000/svg">
  <defs
     id="defs10">
    <linearGradient
       id="linearGradient10"
       inkscape:collect="always">
      <stop
         style="stop-color:#8e70db;stop-opacity:1;"
         offset="0"
         id="stop10" />
      <stop
         style="stop-color:#6e48d1;stop-opacity:1;"
         offset="1"
         id="stop11" />
    </linearGradient>
    <linearGradient
       inkscape:collect="always"
       xlink:href="#linearGradient10"
       id="linearGradient11"
       x1="20.171124"
       y1="8.4071617"
       x2="47.287495"
       y2="55.015182"
       gradientUnits="userSpaceOnUse" />
  </defs>
  <sodipodi:namedview
     id="namedview10"
     pagecolor="#ffffff"
     bordercolor="#000000"
     borderopacity="0.25"
     inkscape:showpageshadow="2"
     inkscape:pageopacity="0.0"
     inkscape:pagecheckerboard="0"
     inkscape:deskcolor="#d1d1d1"
     inkscape:zoom="11.6875"
     inkscape:cx="31.957219"
     inkscape:cy="33.796791"
     inkscape:window-width="1920"
     inkscape:window-height="994"
     inkscape:window-x="0"
     inkscape:window-y="0"
     inkscape:window-maximized="1"
     inkscape:current-layer="svg10" />
  <g
     id="g10"
     transform="translate(-0.5,-1)">
    <ellipse
       style="opacity:0.2;stroke-width:0.982303"
       cx="31.499998"
       cy="32.491234"
       id="circle1"
       rx="27.499998"
       ry="27.508766" />
    <ellipse
       style="fill:url(#linearGradient11);stroke-width:0.982303"
       cx="31.499998"
       cy="31.508766"
       id="circle2"
       rx="27.499998"
       ry="27.508766" />
    <path
       style="opacity:0.2;fill-rule:evenodd;stroke-width:0.982303"
       d="m 28.039481,14.807018 c -3.39868,-0.01184 -7.299774,0.448366 -11.732005,2.283441 6.079254,0.473495 8.687438,1.323322 8.835451,1.968747 -10.51319,-1.807382 -12.945291,8.728768 -13.285782,15.39693 0,0 2.691893,-1.532638 3.928567,-1.964912 0.381051,-0.133202 0.476761,0.124046 0.936107,0 -1.22117,1.604896 -2.167277,3.237051 -2.96945,4.916118 -1.909815,4.425192 -0.796486,10.620482 -0.913085,13.750546 5.210169,5.90566 10.786691,6.864656 18.660716,6.877192 6.006277,-0.008 11.844827,-1.982504 16.623538,-5.622256 -2.382493,-2.456512 -7.136977,-7.90702 -6.997769,-12.702852 0.08341,-2.873648 1.713652,-5.457178 7.028459,-6.92708 2.535778,-0.29931 5.031904,-0.416378 7.899343,-0.291668 C 55.57595,28.7886 52.187632,24.912602 46.516042,23.7182 45.543526,23.254948 39.793746,14.847953 28.039481,14.807018 Z"
       id="path2" />
    <path
       style="fill:#ffffff;fill-rule:evenodd;stroke-width:0.982303"
       d="m 28.03833,13.82456 c -3.398681,-0.01184 -7.298243,0.447983 -11.730468,2.283058 6.079248,0.473497 8.687432,1.323704 8.835449,1.969137 -10.51319,-1.80739 -14.888615,13.160179 -15.229104,19.828339 0,0 4.634831,-5.964052 5.871505,-6.396326 0.381051,-0.133201 0.47692,0.124045 0.936272,0 -1.221173,1.604896 -2.165904,3.237052 -2.968076,4.916118 -2.078155,4.815238 -1.905794,12.622393 -1.8972,15.899583 0.0011,0.410564 0.960311,0.422589 0.982576,0.798331 1.278273,1.445062 0.802473,-0.64864 2.354071,0.497754 0.334372,-0.38895 0.677421,-0.784014 0.786872,-0.999346 -0.24944,0.403172 -0.441323,0.743464 -0.649903,1.104114 4.695172,3.429442 10.356062,5.282208 16.169676,5.292214 6.474702,-0.0106 12.738043,-2.30609 17.687013,-6.48229 -1.622827,-1.568314 -8.223024,-8.261042 -8.062014,-13.808112 0.08341,-2.873648 1.71327,-5.45833 7.028077,-6.928232 2.535779,-0.29931 5.033056,-0.414844 7.900495,-0.290134 C 55.57595,27.806146 52.18648,23.92938 46.514891,22.734976 45.542377,22.271726 39.792596,13.865497 28.03833,13.82456 Z"
       id="path3" />
    <path
       style="fill:#3f3f3f;fill-rule:evenodd;stroke-width:0.982303"
       d="m 37.392857,20.996342 c 0,0 5.213844,-1.82212 5.892857,3.596938 -5.141087,0.473306 -5.892857,-3.596938 -5.892857,-3.596938 z"
       id="path4" />
    <path
       style="opacity:0.1;fill-rule:evenodd;stroke-width:0.982303"
       d="m 14.076345,59.36729 c 0,0 8.53747,-25.79044 34.729319,-26.779462 0,0 -21.957039,-3.651593 -36.967721,20.134198 -0.08321,3.365126 2.238402,6.645264 2.238402,6.645264 z"
       id="path5" />
    <path
       style="fill:#ffb039;fill-rule:evenodd;stroke-width:0.982303"
       d="m 14.076345,58.384942 c 0,0 8.53747,-25.790442 34.729319,-26.779465 0,0 -21.957039,-3.651591 -36.967721,20.134201 -0.08321,3.365122 2.238402,6.645264 2.238402,6.645264 z"
       id="path6" />
    <path
       style="fill:#ffb039;fill-rule:evenodd;stroke-width:0.982303"
       d="m 16.328949,16.108876 c 0,0 6.532761,0.380061 8.865136,1.984741 0.973835,-0.200406 1.800699,-0.867381 1.941261,-1.775779 -0.835658,-0.345955 -8.484578,-0.969076 -10.806397,-0.208962 z"
       id="path7" />
    <path
       style="opacity:0.1;fill-rule:evenodd;stroke-width:0.982303"
       d="m 9.9736294,38.9205 c 0,0 9.4367806,-9.826654 25.9482906,-11.000616 0,0 -23.735256,1.016168 -25.622197,7.36519 C 9.7751246,36.811782 9.9736294,38.9205 9.9736294,38.9205 Z"
       id="path8" />
    <path
       style="fill:#ffb039;fill-rule:evenodd;stroke-width:0.982303"
       d="m 9.9736294,37.93815 c 0,0 9.4367806,-9.826654 25.9482906,-11.000616 0,0 -23.735256,1.016168 -25.622197,7.36519 -0.5245984,1.526708 -0.3260936,3.635426 -0.3260936,3.635426 z"
       id="path9" />
    <path
       style="opacity:0.1;fill:#ffffff;stroke-width:0.982303"
       d="M 31.5,4 A 27.5,27.508768 0 0 0 4,31.508768 27.5,27.508768 0 0 0 4.0172646,31.992322 27.5,27.508768 0 0 1 31.5,4.982456 27.5,27.508768 0 0 1 58.975063,31.992322 27.5,27.508768 0 0 0 59,31.508768 27.5,27.508768 0 0 0 31.5,4 Z"
       id="path10" />
  </g>
</svg>
