<?xml version="1.0" encoding="UTF-8" standalone="no"?>
<!-- Created with Inkscape (http://www.inkscape.org/) -->

<svg
   width="62"
   height="62"
   viewBox="0 0 62 62"
   version="1.1"
   id="svg1"
   inkscape:version="1.4 (unknown)"
   sodipodi:docname="fcitx-sogoupinyin.svg"
   xmlns:inkscape="http://www.inkscape.org/namespaces/inkscape"
   xmlns:sodipodi="http://sodipodi.sourceforge.net/DTD/sodipodi-0.dtd"
   xmlns:xlink="http://www.w3.org/1999/xlink"
   xmlns="http://www.w3.org/2000/svg"
   xmlns:svg="http://www.w3.org/2000/svg">
  <sodipodi:namedview
     id="namedview1"
     pagecolor="#ffffff"
     bordercolor="#000000"
     borderopacity="0.25"
     inkscape:showpageshadow="2"
     inkscape:pageopacity="0.0"
     inkscape:pagecheckerboard="0"
     inkscape:deskcolor="#d1d1d1"
     inkscape:document-units="px"
     inkscape:zoom="7.5994533"
     inkscape:cx="52.964336"
     inkscape:cy="46.253327"
     inkscape:window-width="1920"
     inkscape:window-height="998"
     inkscape:window-x="0"
     inkscape:window-y="0"
     inkscape:window-maximized="1"
     inkscape:current-layer="layer1"
     showgrid="false">
    <inkscape:grid
       id="grid1"
       units="px"
       originx="0"
       originy="0"
       spacingx="1"
       spacingy="1"
       empcolor="#0099e5"
       empopacity="0.30196078"
       color="#0099e5"
       opacity="0.14901961"
       empspacing="5"
       enabled="true"
       visible="false" />
  </sodipodi:namedview>
  <defs
     id="defs1">
    <linearGradient
       id="linearGradient10"
       inkscape:collect="always">
      <stop
         style="stop-color:#698897;stop-opacity:1;"
         offset="0"
         id="stop10" />
      <stop
         style="stop-color:#a9bbc3;stop-opacity:1;"
         offset="1"
         id="stop11" />
    </linearGradient>
    <radialGradient
       id="paint664_radial_890_11"
       cx="0"
       cy="0"
       r="1"
       gradientUnits="userSpaceOnUse"
       gradientTransform="matrix(-16.000099,-9.999913,9.999913,-16.000099,583,171)">
      <stop
         offset="0.42141"
         stop-color="#B7C6CD"
         id="stop2071" />
      <stop
         offset="1"
         stop-color="#EFF2F6"
         id="stop2072" />
    </radialGradient>
    <linearGradient
       id="paint665_linear_890_11"
       x1="605"
       y1="180"
       x2="601.466"
       y2="162.72301"
       gradientUnits="userSpaceOnUse">
      <stop
         stop-color="#5200FF"
         id="stop2073" />
      <stop
         offset="1"
         stop-color="#0085FF"
         id="stop2074" />
    </linearGradient>
    <linearGradient
       id="paint666_linear_890_11"
       x1="567"
       y1="181"
       x2="562.11798"
       y2="174.183"
       gradientUnits="userSpaceOnUse">
      <stop
         stop-color="#5200FF"
         id="stop2075" />
      <stop
         offset="0.670391"
         stop-color="#0085FF"
         id="stop2076" />
    </linearGradient>
    <linearGradient
       id="paint667_linear_890_11"
       x1="605"
       y1="180"
       x2="597.32001"
       y2="174.24001"
       gradientUnits="userSpaceOnUse">
      <stop
         stop-color="#5200FF"
         id="stop2077" />
      <stop
         offset="1"
         stop-color="#0085FF"
         id="stop2078" />
    </linearGradient>
    <linearGradient
       id="paint668_linear_890_11"
       x1="567"
       y1="180"
       x2="561.23999"
       y2="172.32001"
       gradientUnits="userSpaceOnUse">
      <stop
         stop-color="#5200FF"
         id="stop2079" />
      <stop
         offset="1"
         stop-color="#0085FF"
         id="stop2080" />
    </linearGradient>
    <linearGradient
       id="paint669_linear_890_11"
       x1="607"
       y1="179"
       x2="602.50598"
       y2="171.80901"
       gradientUnits="userSpaceOnUse">
      <stop
         stop-color="#5200FF"
         id="stop2081" />
      <stop
         offset="1"
         stop-color="#0085FF"
         id="stop2082" />
    </linearGradient>
    <linearGradient
       id="paint670_linear_890_11"
       x1="607"
       y1="217"
       x2="568.82599"
       y2="170.01601"
       gradientUnits="userSpaceOnUse">
      <stop
         stop-color="#5200FF"
         id="stop2083" />
      <stop
         offset="1"
         stop-color="#0085FF"
         id="stop2084" />
    </linearGradient>
    <radialGradient
       id="paint671_radial_890_11"
       cx="0"
       cy="0"
       r="1"
       gradientUnits="userSpaceOnUse"
       gradientTransform="matrix(0,20,-16,0,583,187)">
      <stop
         offset="0.869716"
         stop-color="#EFF2F6"
         id="stop2085" />
      <stop
         offset="1"
         stop-color="#B7C6CD"
         id="stop2086" />
    </radialGradient>
    <linearGradient
       id="paint497_linear_890_11"
       x1="497"
       y1="413"
       x2="447.457"
       y2="376.79599"
       gradientUnits="userSpaceOnUse"
       gradientTransform="translate(-452,-358)">
      <stop
         offset="0.636456"
         stop-color="#71706E"
         id="stop1737" />
      <stop
         offset="1"
         stop-color="#B9AA99"
         id="stop1738" />
    </linearGradient>
    <linearGradient
       id="paint498_linear_890_11"
       x1="507"
       y1="413"
       x2="457.457"
       y2="376.79599"
       gradientUnits="userSpaceOnUse"
       gradientTransform="translate(-452,-358)">
      <stop
         offset="0.544933"
         stop-color="#FF7E07"
         id="stop1739" />
      <stop
         offset="1"
         stop-color="#FFE607"
         id="stop1740" />
    </linearGradient>
    <linearGradient
       id="paint499_linear_890_11"
       x1="473"
       y1="365"
       x2="486.28699"
       y2="389.91299"
       gradientUnits="userSpaceOnUse"
       gradientTransform="translate(-452,-358)">
      <stop
         stop-color="white"
         id="stop1741" />
      <stop
         offset="0.705"
         stop-color="#EAEFEF"
         id="stop1742" />
    </linearGradient>
    <linearGradient
       id="paint500_linear_890_11"
       x1="480"
       y1="371.5"
       x2="480"
       y2="368.5"
       gradientUnits="userSpaceOnUse"
       gradientTransform="translate(-452,-358)">
      <stop
         offset="0.155999"
         stop-color="#71706E"
         id="stop1743" />
      <stop
         offset="0.796276"
         stop-color="#B9AA99"
         id="stop1744" />
    </linearGradient>
    <linearGradient
       id="paint501_linear_890_11"
       x1="479"
       y1="375.5"
       x2="479"
       y2="372.5"
       gradientUnits="userSpaceOnUse"
       gradientTransform="translate(-452,-358)">
      <stop
         offset="0.155999"
         stop-color="#71706E"
         id="stop1745" />
      <stop
         offset="0.796276"
         stop-color="#B9AA99"
         id="stop1746" />
    </linearGradient>
    <linearGradient
       id="paint502_linear_890_11"
       x1="511"
       y1="417"
       x2="455.64352"
       y2="380.82346"
       gradientUnits="userSpaceOnUse"
       gradientTransform="translate(-452,-358)">
      <stop
         offset="0.18397722"
         stop-color="#2E2E41"
         id="stop1747"
         style="stop-color:#33424d;stop-opacity:1;" />
      <stop
         offset="1"
         stop-color="#566C80"
         id="stop1748" />
    </linearGradient>
    <linearGradient
       id="paint745_linear_890_11"
       x1="172"
       y1="61"
       x2="195.978"
       y2="83.979202"
       gradientUnits="userSpaceOnUse">
      <stop
         stop-color="#EFF2F6"
         id="stop2233" />
      <stop
         offset="1"
         stop-color="#ACD1CF"
         id="stop2234" />
    </linearGradient>
    <linearGradient
       id="paint746_linear_890_11"
       x1="176"
       y1="84"
       x2="175.47501"
       y2="78.479202"
       gradientUnits="userSpaceOnUse">
      <stop
         offset="0.404925"
         stop-color="#2E2E41"
         id="stop2235" />
      <stop
         offset="1"
         stop-color="#566C80"
         id="stop2236" />
    </linearGradient>
    <linearGradient
       id="paint747_linear_890_11"
       x1="202"
       y1="84"
       x2="201.47501"
       y2="78.479202"
       gradientUnits="userSpaceOnUse">
      <stop
         offset="0.404925"
         stop-color="#2E2E41"
         id="stop2237" />
      <stop
         offset="1"
         stop-color="#566C80"
         id="stop2238" />
    </linearGradient>
    <linearGradient
       id="paint748_linear_890_11"
       x1="155"
       y1="82"
       x2="186.461"
       y2="132.33701"
       gradientUnits="userSpaceOnUse">
      <stop
         offset="0.205721"
         stop-color="#EFF2F6"
         id="stop2239" />
      <stop
         offset="1"
         stop-color="#B7C6CD"
         id="stop2240" />
    </linearGradient>
    <radialGradient
       id="paint750_radial_890_11"
       cx="0"
       cy="0"
       r="1"
       gradientUnits="userSpaceOnUse"
       gradientTransform="matrix(5.6470608,5.6470608,-5.6470608,5.6470608,172,96)">
      <stop
         offset="0.340843"
         stop-color="#2E2E41"
         id="stop2243" />
      <stop
         offset="1"
         stop-color="#566C80"
         id="stop2244" />
    </radialGradient>
    <linearGradient
       id="paint751_linear_890_11"
       x1="166"
       y1="90"
       x2="178"
       y2="102"
       gradientUnits="userSpaceOnUse">
      <stop
         stop-color="white"
         id="stop2245" />
      <stop
         offset="0.705"
         stop-color="#EAEFEF"
         id="stop2246" />
    </linearGradient>
    <linearGradient
       id="paint752_linear_890_11"
       x1="193"
       y1="88"
       x2="199"
       y2="94"
       gradientUnits="userSpaceOnUse">
      <stop
         stop-color="#FFE607"
         id="stop2247" />
      <stop
         offset="0.802569"
         stop-color="#FF7E07"
         id="stop2248" />
    </linearGradient>
    <linearGradient
       id="paint753_linear_890_11"
       x1="199"
       y1="104"
       x2="193"
       y2="98"
       gradientUnits="userSpaceOnUse">
      <stop
         offset="0.253846"
         stop-color="#089953"
         id="stop2249" />
      <stop
         offset="1"
         stop-color="#16D96F"
         id="stop2250" />
    </linearGradient>
    <linearGradient
       id="paint754_linear_890_11"
       x1="198"
       y1="93"
       x2="204"
       y2="99"
       gradientUnits="userSpaceOnUse">
      <stop
         offset="0.30755"
         stop-color="#F15700"
         id="stop2251" />
      <stop
         offset="0.832479"
         stop-color="#FF0000"
         id="stop2252" />
    </linearGradient>
    <linearGradient
       id="paint755_linear_890_11"
       x1="194"
       y1="99"
       x2="188"
       y2="93"
       gradientUnits="userSpaceOnUse">
      <stop
         offset="0.320751"
         stop-color="#5200FF"
         id="stop2253" />
      <stop
         offset="1"
         stop-color="#0085FF"
         id="stop2254" />
    </linearGradient>
    <linearGradient
       id="paint723_linear_890_11"
       x1="555"
       y1="61"
       x2="610.99902"
       y2="117.38"
       gradientUnits="userSpaceOnUse">
      <stop
         offset="0.186267"
         stop-color="#EFF2F6"
         id="stop2189" />
      <stop
         offset="0.774054"
         stop-color="#B7C6CD"
         id="stop2190" />
    </linearGradient>
    <linearGradient
       id="paint724_linear_890_11"
       x1="568"
       y1="71"
       x2="577.836"
       y2="79.196701"
       gradientUnits="userSpaceOnUse">
      <stop
         offset="0.268133"
         stop-color="#F15700"
         id="stop2191" />
      <stop
         offset="0.700195"
         stop-color="#FF0000"
         id="stop2192" />
    </linearGradient>
    <linearGradient
       id="paint725_linear_890_11"
       x1="583"
       y1="108"
       x2="573"
       y2="98"
       gradientUnits="userSpaceOnUse">
      <stop
         offset="0.29783"
         stop-color="#FF7E07"
         id="stop2193" />
      <stop
         offset="0.909465"
         stop-color="#FFE607"
         id="stop2194" />
    </linearGradient>
    <linearGradient
       id="paint726_linear_890_11"
       x1="597"
       y1="80"
       x2="587"
       y2="70"
       gradientUnits="userSpaceOnUse">
      <stop
         offset="0.334156"
         stop-color="#089953"
         id="stop2195" />
      <stop
         offset="0.842157"
         stop-color="#16D96F"
         id="stop2196" />
    </linearGradient>
    <linearGradient
       id="paint727_linear_890_11"
       x1="572"
       y1="97"
       x2="562"
       y2="87"
       gradientUnits="userSpaceOnUse">
      <stop
         offset="0.314502"
         stop-color="#5200FF"
         id="stop2197" />
      <stop
         offset="0.885503"
         stop-color="#0085FF"
         id="stop2198" />
    </linearGradient>
    <linearGradient
       id="paint728_linear_890_11"
       x1="598.578"
       y1="100.584"
       x2="594.58398"
       y2="104.578"
       gradientUnits="userSpaceOnUse">
      <stop
         stop-color="#2E2E41"
         id="stop2199"
         style="stop-color:#550000;stop-opacity:1" />
      <stop
         offset="1"
         stop-color="#566C80"
         id="stop2200"
         style="stop-color:#ff5555;stop-opacity:1" />
    </linearGradient>
    <linearGradient
       id="paint729_linear_890_11"
       x1="575"
       y1="81"
       x2="589.55603"
       y2="95.556396"
       gradientUnits="userSpaceOnUse">
      <stop
         stop-color="white"
         id="stop2201"
         offset="0"
         style="stop-color:#797979;stop-opacity:1;" />
      <stop
         offset="0.70499998"
         stop-color="#EAEFEF"
         id="stop2202"
         style="stop-color:#5c7a7a;stop-opacity:1;" />
    </linearGradient>
    <linearGradient
       id="paint730_linear_890_11"
       x1="583.40698"
       y1="90.527802"
       x2="577.06799"
       y2="84.189201"
       gradientUnits="userSpaceOnUse">
      <stop
         offset="0.388464"
         stop-color="#71706E"
         id="stop2203" />
      <stop
         offset="1"
         stop-color="#B9AA99"
         id="stop2204" />
    </linearGradient>
    <linearGradient
       id="paint521_linear_890_11"
       x1="176"
       y1="417"
       x2="172.8"
       y2="410.60001"
       gradientUnits="userSpaceOnUse"
       gradientTransform="translate(-152,-358)">
      <stop
         stop-color="#2E2E41"
         id="stop1785" />
      <stop
         offset="1"
         stop-color="#566C80"
         id="stop1786" />
    </linearGradient>
    <linearGradient
       id="paint522_linear_890_11"
       x1="198"
       y1="417"
       x2="194.8"
       y2="410.60001"
       gradientUnits="userSpaceOnUse"
       gradientTransform="translate(-152,-358)">
      <stop
         stop-color="#2E2E41"
         id="stop1787" />
      <stop
         offset="1"
         stop-color="#566C80"
         id="stop1788" />
    </linearGradient>
    <linearGradient
       id="paint523_linear_890_11"
       x1="183"
       y1="415"
       x2="183"
       y2="361"
       gradientUnits="userSpaceOnUse"
       gradientTransform="translate(-152,-358)">
      <stop
         offset="0.221007"
         stop-color="#2E2E41"
         id="stop1789"
         style="stop-color:#555577;stop-opacity:1;" />
      <stop
         offset="1"
         stop-color="#566C80"
         id="stop1790"
         style="stop-color:#7a91a6;stop-opacity:1;" />
    </linearGradient>
    <linearGradient
       id="paint524_linear_890_11"
       x1="183"
       y1="389"
       x2="183"
       y2="363"
       gradientUnits="userSpaceOnUse"
       gradientTransform="translate(-152,-358)">
      <stop
         offset="0.16552401"
         stop-color="#2E2E41"
         id="stop1791"
         style="stop-color:#191924;stop-opacity:1;" />
      <stop
         offset="0.784914"
         stop-color="#566C80"
         id="stop1792" />
    </linearGradient>
    <linearGradient
       id="paint525_linear_890_11"
       x1="183"
       y1="367"
       x2="183"
       y2="373"
       gradientUnits="userSpaceOnUse"
       gradientTransform="translate(-152,-358)">
      <stop
         stop-color="#EFF2F6"
         id="stop1793" />
      <stop
         offset="0.600628"
         stop-color="#B7C6CD"
         id="stop1794" />
    </linearGradient>
    <linearGradient
       id="paint526_linear_890_11"
       x1="179"
       y1="399"
       x2="187"
       y2="407"
       gradientUnits="userSpaceOnUse"
       gradientTransform="translate(-152,-357)">
      <stop
         offset="0.313567"
         stop-color="#EFF2F6"
         id="stop1795" />
      <stop
         offset="0.581564"
         stop-color="#B7C6CD"
         id="stop1796" />
    </linearGradient>
    <linearGradient
       id="paint527_linear_890_11"
       x1="181"
       y1="401"
       x2="185"
       y2="405"
       gradientUnits="userSpaceOnUse"
       gradientTransform="translate(-152,-357)">
      <stop
         stop-color="#F15700"
         id="stop1797" />
      <stop
         offset="0.717503"
         stop-color="#FF0000"
         id="stop1798" />
    </linearGradient>
    <linearGradient
       id="paint528_linear_890_11"
       x1="182"
       y1="385"
       x2="180"
       y2="383"
       gradientUnits="userSpaceOnUse"
       gradientTransform="matrix(3.0499996,0,0,3.0499996,-526.64998,-1149.2349)">
      <stop
         stop-color="#FF7E07"
         id="stop1799" />
      <stop
         offset="1"
         stop-color="#FFE607"
         id="stop1800" />
    </linearGradient>
    <linearGradient
       id="paint529_linear_890_11"
       x1="186"
       y1="385"
       x2="184"
       y2="383"
       gradientUnits="userSpaceOnUse"
       gradientTransform="matrix(3.0499996,0,0,3.0499996,-526.64998,-1149.2349)">
      <stop
         stop-color="#089953"
         id="stop1801" />
      <stop
         offset="1"
         stop-color="#16D96F"
         id="stop1802" />
    </linearGradient>
    <linearGradient
       id="paint415_linear_890_11"
       x1="411"
       y1="509"
       x2="363.565"
       y2="453.659"
       gradientUnits="userSpaceOnUse">
      <stop
         stop-color="#5200FF"
         id="stop1572" />
      <stop
         offset="1"
         stop-color="#0085FF"
         id="stop1573" />
    </linearGradient>
    <radialGradient
       id="paint416_radial_890_11"
       cx="0"
       cy="0"
       r="1"
       gradientUnits="userSpaceOnUse"
       gradientTransform="matrix(0,35,-35,0,394,484)">
      <stop
         offset="0.222732"
         stop-color="#EFF2F6"
         id="stop1574" />
      <stop
         offset="0.869133"
         stop-color="#B7C6CD"
         id="stop1575" />
    </radialGradient>
    <linearGradient
       id="paint417_linear_890_11"
       x1="392"
       y1="476"
       x2="399.52899"
       y2="477.88199"
       gradientUnits="userSpaceOnUse">
      <stop
         stop-color="#EFF2F6"
         id="stop1576" />
      <stop
         offset="1"
         stop-color="#B7C6CD"
         id="stop1577" />
    </linearGradient>
    <linearGradient
       id="paint418_linear_890_11"
       x1="396"
       y1="490"
       x2="388.79999"
       y2="487.60001"
       gradientUnits="userSpaceOnUse">
      <stop
         stop-color="#2E2E41"
         id="stop1578" />
      <stop
         offset="1"
         stop-color="#566C80"
         id="stop1579" />
    </linearGradient>
    <linearGradient
       id="paint419_linear_890_11"
       x1="273"
       y1="461"
       x2="290.47198"
       y2="483.32599"
       gradientUnits="userSpaceOnUse"
       gradientTransform="matrix(0.35714286,0,0,0.35714286,-90.071429,-164.64286)">
      <stop
         stop-color="#EFF2F6"
         id="stop1580" />
      <stop
         offset="1"
         stop-color="#ACD1CF"
         id="stop1581" />
    </linearGradient>
    <linearGradient
       id="paint420_linear_890_11"
       x1="255"
       y1="477"
       x2="292.83801"
       y2="529.97302"
       gradientUnits="userSpaceOnUse"
       gradientTransform="matrix(0.39285724,0,0,0.39999987,-100.17859,-187.79992)">
      <stop
         stop-color="#EFF2F6"
         id="stop1582" />
      <stop
         offset="1"
         stop-color="#B7C6CD"
         id="stop1583" />
    </linearGradient>
    <linearGradient
       id="paint421_linear_890_11"
       x1="301.26099"
       y1="511"
       x2="301.26099"
       y2="505"
       gradientUnits="userSpaceOnUse"
       gradientTransform="matrix(0.39285724,0,0,0.39999987,-100.17859,-187.79992)">
      <stop
         offset="0.340681"
         stop-color="#2E2E41"
         id="stop1584" />
      <stop
         offset="1"
         stop-color="#566C80"
         id="stop1585" />
    </linearGradient>
    <linearGradient
       id="paint422_linear_890_11"
       x1="298.65201"
       y1="500"
       x2="298.65201"
       y2="494"
       gradientUnits="userSpaceOnUse">
      <stop
         offset="0.340681"
         stop-color="#2E2E41"
         id="stop1586" />
      <stop
         offset="1"
         stop-color="#566C80"
         id="stop1587" />
    </linearGradient>
    <linearGradient
       id="paint426_linear_890_11"
       x1="303"
       y1="491"
       x2="303"
       y2="485"
       gradientUnits="userSpaceOnUse">
      <stop
         offset="0.340681"
         stop-color="#2E2E41"
         id="stop1594" />
      <stop
         offset="1"
         stop-color="#566C80"
         id="stop1595" />
    </linearGradient>
    <linearGradient
       inkscape:collect="always"
       xlink:href="#paint422_linear_890_11"
       id="linearGradient1"
       gradientUnits="userSpaceOnUse"
       x1="298.65201"
       y1="500"
       x2="298.65201"
       y2="494"
       gradientTransform="matrix(0.39285724,0,0,0.39999987,-100.17859,-187.79992)" />
    <linearGradient
       inkscape:collect="always"
       xlink:href="#paint422_linear_890_11"
       id="linearGradient2"
       gradientUnits="userSpaceOnUse"
       x1="298.65201"
       y1="500"
       x2="298.65201"
       y2="494"
       gradientTransform="matrix(0.39285724,0,0,0.39999987,-100.17859,-187.79992)" />
    <linearGradient
       inkscape:collect="always"
       xlink:href="#paint422_linear_890_11"
       id="linearGradient3"
       gradientUnits="userSpaceOnUse"
       x1="298.65201"
       y1="500"
       x2="298.65201"
       y2="494"
       gradientTransform="matrix(0.39285724,0,0,0.39999987,-100.17859,-187.79992)" />
    <linearGradient
       inkscape:collect="always"
       xlink:href="#paint422_linear_890_11"
       id="linearGradient4"
       gradientUnits="userSpaceOnUse"
       x1="298.65201"
       y1="500"
       x2="298.65201"
       y2="494"
       gradientTransform="matrix(0.39285724,0,0,0.39999987,-100.17859,-187.79992)" />
    <linearGradient
       inkscape:collect="always"
       xlink:href="#paint426_linear_890_11"
       id="linearGradient5"
       gradientUnits="userSpaceOnUse"
       x1="303"
       y1="491"
       x2="303"
       y2="485"
       gradientTransform="matrix(0.39285724,0,0,0.39999987,-100.17859,-187.79992)" />
    <linearGradient
       inkscape:collect="always"
       xlink:href="#paint426_linear_890_11"
       id="linearGradient6"
       gradientUnits="userSpaceOnUse"
       x1="303"
       y1="491"
       x2="303"
       y2="485"
       gradientTransform="matrix(0.39285724,0,0,0.39999987,-100.17859,-187.79992)" />
    <linearGradient
       inkscape:collect="always"
       xlink:href="#paint426_linear_890_11"
       id="linearGradient7"
       gradientUnits="userSpaceOnUse"
       x1="303"
       y1="491"
       x2="303"
       y2="485"
       gradientTransform="matrix(0.39285724,0,0,0.39999987,-100.17859,-187.79992)" />
    <linearGradient
       inkscape:collect="always"
       xlink:href="#paint426_linear_890_11"
       id="linearGradient8"
       gradientUnits="userSpaceOnUse"
       x1="303"
       y1="491"
       x2="303"
       y2="485"
       gradientTransform="matrix(0.39285724,0,0,0.39999987,-100.17859,-187.79992)" />
    <linearGradient
       inkscape:collect="always"
       xlink:href="#paint426_linear_890_11"
       id="linearGradient9"
       gradientUnits="userSpaceOnUse"
       x1="303"
       y1="491"
       x2="303"
       y2="485"
       gradientTransform="matrix(0.39285724,0,0,0.39999987,-100.17859,-187.79992)" />
    <linearGradient
       inkscape:collect="always"
       xlink:href="#linearGradient10"
       id="linearGradient11"
       x1="7.4285718"
       y1="3.214285"
       x2="16.356359"
       y2="0.92440057"
       gradientUnits="userSpaceOnUse" />
  </defs>
  <g
     inkscape:label="Layer 1"
     inkscape:groupmode="layer"
     id="layer1">
    <g
       id="g1"
       transform="matrix(2.8181818,0,0,2.8157895,9.0454545e-7,3.05)">
      <path
         fill-rule="evenodd"
         clip-rule="evenodd"
         d="m 14.416072,0.38785711 c 0.01857,-0.0164286 0.03607,-0.0339286 0.05214,-0.0535714 C 14.593569,0.1821428 14.731426,0 14.928569,0 h 0.357143 c 0.197143,0 0.362857,0.1625 0.315357,0.35392856 -0.065,0.26035715 -0.204643,0.48714284 -0.416786,0.67392854 C 14.895355,1.2825 14.513212,1.4275 14.128926,1.515 c -0.737857,0.1689286 -1.688214,0.1685714 -2.543214,0.1685714 -0.01679,0 -0.03357,0 -0.05,0 -0.917857,0 -1.7303575,0.00357 -2.3175003,0.1375 -0.2853572,0.065357 -0.4610715,0.1503572 -0.5628572,0.24 -0.0875,0.077143 -0.1553571,0.1875 -0.1553571,0.3878572 0,0.2075 0.067857,0.32 0.1482142,0.3939285 0.091786,0.084643 0.2503572,0.1646429 0.5125001,0.2239286 0.5417857,0.1221429 1.3053573,0.1103571 2.1682143,0.071429 0.116071,-0.005 0.234286,-0.010714 0.353571,-0.016786 0.717143,-0.035 1.475358,-0.071786 2.0725,-0.00893 0.349643,0.036786 0.720715,0.1135714 1.014643,0.2935714 0.328929,0.2014286 0.516072,0.5042857 0.516072,0.8796429 0,0.2714286 -0.08107,0.5192857 -0.264643,0.7235714 -0.178929,0.1996429 -0.4175,0.3153572 -0.644643,0.3867857 -0.351786,0.1103572 -0.796429,0.1446429 -1.162143,0.1728572 -0.06893,0.005 -0.134643,0.010357 -0.196786,0.015357 -0.454642,0.039286 -0.779642,0.092143 -0.994285,0.2085714 -0.155357,0.084286 -0.308929,0.2310715 -0.308929,0.6357143 h -1.071428 c 0,-0.6667857 0.292857,-1.1325 0.807142,-1.4114285 0.455,-0.2471429 1.022858,-0.3089286 1.461072,-0.3464286 0.08929,-0.00786 0.173571,-0.014643 0.253214,-0.020714 0.3675,-0.029643 0.636429,-0.051071 0.843214,-0.1160714 0.107858,-0.033929 0.148215,-0.066429 0.164286,-0.084643 0.01214,-0.013214 0.0425,-0.052143 0.0425,-0.1635714 0,-0.083929 -0.025,-0.1064286 -0.06714,-0.1321429 -0.07714,-0.047143 -0.236071,-0.099286 -0.522857,-0.1296428 -0.492857,-0.051786 -1.135714,-0.021071 -1.863928,0.013929 -0.122858,0.00607 -0.247858,0.011786 -0.375,0.0175 C 10.551786,4.0932143 9.6189289,4.1196429 8.8882146,3.955 8.5142861,3.8707143 8.1428575,3.7260714 7.8635718,3.4685714 c -0.2907143,-0.2678571 -0.435,-0.6146428 -0.435,-1.0196428 0,-0.4117858 0.1553571,-0.7607143 0.4585714,-1.0278572 C 8.1760718,1.1664285 8.5582146,1.0217857 8.9425004,0.9339285 9.6803575,0.76499997 10.630715,0.76535711 11.485715,0.76535711 c 0.01678,0 0.03357,0 0.05,0 0.917857,0 1.730357,-0.003571 2.3175,-0.1375 0.285357,-0.0653571 0.461071,-0.15035715 0.562857,-0.24 z"
         id="path409"
         style="fill:url(#linearGradient11)" />
      <path
         d="M -5e-7,5.3999989 C -5e-7,4.0743988 1.0552132,3 2.3571427,3 H 19.642862 C 20.944794,3 22,4.0743988 22,5.3999989 V 16.599986 C 22,17.925589 20.944794,19 19.642862,19 H 2.3571427 C 1.0552132,19 -5e-7,17.925589 -5e-7,16.599986 Z"
         id="path410"
         style="fill:url(#paint420_linear_890_11);stroke-width:0.396418" />
      <path
         d="m 2.7499995,15.199987 c 0,-0.552399 0.4396083,-0.999994 0.9821433,-0.999994 H 18.267862 c 0.542535,0 0.982138,0.447595 0.982138,0.999994 v 0.400006 c 0,0.552398 -0.439603,0.999993 -0.982138,0.999993 H 3.7321428 c -0.542535,0 -0.9821433,-0.447595 -0.9821433,-0.999993 z"
         id="path411"
         style="fill:url(#paint421_linear_890_11);stroke-width:0.396418" />
      <path
         d="m 4.7142859,9.7999942 c -0.4341068,0 -0.7857143,0.3579938 -0.7857143,0.8000108 v 0.79999 c 0,0.441994 0.3516075,0.800005 0.7857143,0.800005 H 5.500001 c 0.4341069,0 0.7857138,-0.358011 0.7857138,-0.800005 v -0.79999 c 0,-0.442017 -0.3516069,-0.8000108 -0.7857138,-0.8000108 z"
         id="path412"
         style="fill:url(#linearGradient1);stroke-width:0.396418" />
      <path
         d="m 8.6428579,9.7999942 c -0.4341068,0 -0.7857137,0.3579938 -0.7857137,0.8000108 v 0.79999 c 0,0.441994 0.3516069,0.800005 0.7857137,0.800005 h 0.7857126 c 0.434101,0 0.7857235,-0.358011 0.7857235,-0.800005 v -0.79999 c 0,-0.442017 -0.3516225,-0.8000108 -0.7857235,-0.8000108 z"
         id="path413"
         style="fill:url(#linearGradient2);stroke-width:0.396418" />
      <path
         d="m 11.785719,10.600005 c 0,-0.442017 0.351609,-0.8000108 0.785712,-0.8000108 h 0.785706 c 0.434122,0 0.785725,0.3579938 0.785725,0.8000108 v 0.79999 c 0,0.441994 -0.351603,0.800005 -0.785725,0.800005 h -0.785706 c -0.434103,0 -0.785712,-0.358011 -0.785712,-0.800005 z"
         id="path414"
         style="fill:url(#linearGradient3);stroke-width:0.396418" />
      <path
         d="m 16.5,9.7999942 c -0.434103,0 -0.785706,0.3579938 -0.785706,0.8000108 v 0.79999 C 15.714294,11.841989 16.065897,12.2 16.5,12.2 h 0.785719 c 0.434109,0 0.785713,-0.358011 0.785713,-0.800005 v -0.79999 c 0,-0.442017 -0.351604,-0.8000108 -0.785713,-0.8000108 z"
         id="path415"
         style="fill:url(#linearGradient4);stroke-width:0.396418" />
      <path
         d="m 1.9642858,6.9999982 c 0,-0.4419993 0.3516069,-0.7999989 0.7857137,-0.7999989 h 0.7857151 c 0.434107,0 0.7857145,0.3579996 0.7857145,0.7999989 v 0.7999995 c 0,0.4420009 -0.3516075,0.8000004 -0.7857145,0.8000004 H 2.7499995 c -0.4341068,0 -0.7857137,-0.3579995 -0.7857137,-0.8000004 z"
         id="path416"
         style="fill:url(#linearGradient5);stroke-width:0.396418" />
      <path
         d="m 5.8928579,6.9999982 c 0,-0.4419993 0.3516069,-0.7999989 0.7857137,-0.7999989 h 0.7857157 c 0.4341069,0 0.7857138,0.3579996 0.7857138,0.7999989 v 0.7999995 c 0,0.4420009 -0.3516069,0.8000004 -0.7857138,0.8000004 H 6.6785716 c -0.4341068,0 -0.7857137,-0.3579995 -0.7857137,-0.8000004 z"
         id="path417"
         style="fill:url(#linearGradient6);stroke-width:0.396418" />
      <path
         d="m 10.607138,6.1999993 c -0.434103,0 -0.7857065,0.3579996 -0.7857065,0.7999989 v 0.7999995 c 0,0.4420009 0.3516035,0.8000004 0.7857065,0.8000004 h 0.785725 c 0.434103,0 0.785705,-0.3579995 0.785705,-0.8000004 V 6.9999982 c 0,-0.4419993 -0.351603,-0.7999989 -0.785705,-0.7999989 z"
         id="path418"
         style="fill:url(#linearGradient7);stroke-width:0.396418" />
      <path
         d="m 13.75,6.9999982 c 0,-0.4419993 0.351603,-0.7999989 0.785719,-0.7999989 h 0.785712 c 0.434104,0 0.78572,0.3579996 0.78572,0.7999989 v 0.7999995 c 0,0.4420009 -0.351616,0.8000004 -0.78572,0.8000004 H 14.535719 C 14.101602,8.5999981 13.75,8.2419986 13.75,7.7999977 Z"
         id="path419"
         style="fill:url(#linearGradient8);stroke-width:0.396418" />
      <path
         d="m 18.464294,6.1999993 c -0.434108,0 -0.785726,0.3579996 -0.785726,0.7999989 v 0.7999995 c 0,0.4420009 0.351618,0.8000004 0.785726,0.8000004 H 19.25 c 0.434103,0 0.785719,-0.3579995 0.785719,-0.8000004 V 6.9999982 c 0,-0.4419993 -0.351616,-0.7999989 -0.785719,-0.7999989 z"
         id="path420"
         style="fill:url(#linearGradient9);stroke-width:0.396418" />
    </g>
    <g
       id="g2"
       transform="matrix(1.0054663,0,0,1,3.2977871,-26.000006)">
      <circle
         style="fill:#8d5fd3;stroke-width:0.606067"
         cx="46.696976"
         cy="70.696976"
         r="9.69697"
         id="circle19" />
      <path
         style="opacity:0.2;stroke-width:0.606067"
         d="m 56.381213,70.951512 a 9.696971,9.696971 0 0 1 -9.684242,9.442427 9.696971,9.696971 0 0 1 -9.684251,-9.345457 9.696971,9.696971 0 0 0 -0.01276,0.254552 9.696971,9.696971 0 0 0 9.696971,9.696972 9.696971,9.696971 0 0 0 9.696965,-9.696972 9.696971,9.696971 0 0 0 -0.01276,-0.351522 z"
         id="path20" />
      <path
         style="fill:#ffffff;stroke-width:0.606067"
         d="m 46.39145,65.850395 c -0.360405,0.0067 -0.717986,0.02024 -0.95314,0.0553 -1.053338,0.161214 -1.896575,0.531325 -2.440415,1.06951 -0.297781,0.291712 -0.474349,0.605659 -0.590709,1.01374 -0.06384,0.246467 -0.08564,0.812122 -0.019,1.027888 0.221415,0.76041 0.745865,1.344644 1.734553,1.930512 0.419798,0.248494 0.74344,0.411716 1.677178,0.83313 1.119602,0.50344 1.461019,0.706675 1.620211,0.958391 0.06225,0.102218 0.08607,0.154758 0.07638,0.277585 -0.01664,0.194745 -0.114334,0.291714 -0.343027,0.37495 -0.152326,0.05372 -0.206868,0.07107 -0.49536,0.06945 -0.528885,-0.004 -0.993941,-0.102625 -1.639201,-0.333333 -0.454951,-0.159597 -0.905457,-0.380204 -1.276773,-0.625057 -0.373737,-0.24484 -0.404042,-0.253734 -0.514746,-0.194343 -0.08361,0.04516 -0.693339,0.588699 -1.143444,1.02789 -0.292928,0.286458 -0.297779,0.343835 -0.09533,0.541819 0.200001,0.197582 0.760004,0.612526 1.067479,0.79152 0.333742,0.195955 0.557577,0.305862 0.933746,0.444448 0.631108,0.23434 1.160811,0.331714 2.153544,0.416564 0.226263,0.01904 1.03152,0.02101 1.315155,0 1.553546,-0.12485 2.821028,-0.631923 3.487698,-1.37495 0.238389,-0.263843 0.383437,-0.48971 0.495359,-0.805668 0.109902,-0.307075 0.138182,-0.911112 0.05731,-1.277579 -0.133734,-0.593938 -0.490905,-1.130107 -1.067479,-1.583039 -0.578583,-0.453331 -1.164848,-0.755153 -2.572944,-1.319198 -0.983838,-0.39232 -1.353536,-0.600814 -1.448485,-0.819399 -0.05256,-0.116362 -0.02134,-0.324448 0.05732,-0.402832 0.154743,-0.156363 0.452523,-0.213332 0.838792,-0.166465 0.7196,0.08852 1.643243,0.418593 2.458599,0.874756 0.157171,0.08649 0.309504,0.159596 0.343033,0.166462 0.13131,0.03483 0.21212,-0.01731 0.743442,-0.625051 0.652524,-0.74829 0.645652,-0.717174 0.286054,-0.972131 -1.069901,-0.767676 -2.310714,-1.212126 -3.735778,-1.347073 -0.283632,-0.02584 -0.649695,-0.03392 -1.010101,-0.02788 z"
         id="path21" />
    </g>
  </g>
</svg>
