<?xml version="1.0" encoding="UTF-8" standalone="no"?>
<svg
   width="62"
   height="62"
   version="1.1"
   id="svg5"
   sodipodi:docname="feather.svg"
   inkscape:version="1.4 (unknown)"
   xmlns:inkscape="http://www.inkscape.org/namespaces/inkscape"
   xmlns:sodipodi="http://sodipodi.sourceforge.net/DTD/sodipodi-0.dtd"
   xmlns:xlink="http://www.w3.org/1999/xlink"
   xmlns="http://www.w3.org/2000/svg"
   xmlns:svg="http://www.w3.org/2000/svg">
  <defs
     id="defs5">
    <linearGradient
       id="linearGradient8"
       inkscape:collect="always">
      <stop
         style="stop-color:#deaa87;stop-opacity:1"
         offset="0"
         id="stop8" />
      <stop
         style="stop-color:#354864;stop-opacity:1;"
         offset="1"
         id="stop10" />
    </linearGradient>
    <linearGradient
       id="linearGradient4217">
      <stop
         style="stop-color:#000000;stop-opacity:1;"
         offset="0"
         id="stop2" />
      <stop
         style="stop-color:#000000;stop-opacity:0;"
         offset="1"
         id="stop4" />
    </linearGradient>
    <linearGradient
       id="linearGradient4161">
      <stop
         style="stop-color:#334545;stop-opacity:1;"
         offset="0"
         id="stop7" />
      <stop
         style="stop-color:#4d6868;stop-opacity:1"
         offset="1"
         id="stop9" />
    </linearGradient>
    <linearGradient
       id="a-1-2"
       y1="510.79999"
       y2="527.14001"
       gradientUnits="userSpaceOnUse"
       x2="0">
      <stop
         stop-color="#7cbaf8"
         id="stop2-2-7" />
      <stop
         offset="1"
         stop-color="#f4fcff"
         id="stop4-70-0" />
    </linearGradient>
    <linearGradient
       id="c"
       y1="503.79999"
       x1="400.57001"
       y2="519.79999"
       x2="416.57001"
       gradientUnits="userSpaceOnUse">
      <stop
         stop-color="#292c2f"
         id="stop12" />
      <stop
         offset="1"
         stop-opacity="0"
         id="stop14" />
    </linearGradient>
    <linearGradient
       id="b"
       y1="542.79999"
       x1="408.57001"
       y2="521.79999"
       x2="387.57001"
       gradientUnits="userSpaceOnUse"
       gradientTransform="translate(-384.57,-499.8)">
      <stop
         stop-color="#197cf1"
         id="stop7-8" />
      <stop
         offset="1"
         stop-color="#20bcfa"
         id="stop9-7" />
    </linearGradient>
    <linearGradient
       xlink:href="#linearGradient1389"
       id="linearGradient4503-5-6"
       y1="37"
       y2="4"
       x2="0"
       gradientUnits="userSpaceOnUse"
       gradientTransform="matrix(1.0218446,0,0,0.99999999,21.748946,8.2587777)" />
    <linearGradient
       id="linearGradient1389">
      <stop
         style="stop-color:#ffaaaa;stop-opacity:1"
         id="stop1385"
         offset="0" />
      <stop
         offset="1"
         style="stop-color:#ff5555;stop-opacity:1"
         id="stop1387" />
    </linearGradient>
    <linearGradient
       id="paint543_linear_890_11"
       x1="978.5"
       y1="298"
       x2="978.5"
       y2="304"
       gradientUnits="userSpaceOnUse"
       gradientTransform="matrix(0.75000004,0,0,0.75000004,-717.38333,-173.49123)">
      <stop
         offset="0.189495"
         stop-color="#EFF2F6"
         id="stop1829" />
      <stop
         offset="0.850463"
         stop-color="#B7C6CD"
         id="stop1830" />
    </linearGradient>
    <linearGradient
       inkscape:collect="always"
       xlink:href="#linearGradient8"
       id="linearGradient10"
       x1="31.5"
       y1="59.017544"
       x2="31.5"
       y2="4.9824562"
       gradientUnits="userSpaceOnUse"
       gradientTransform="translate(-0.5,-1)" />
    <linearGradient
       id="linearGradient4144">
      <stop
         style="stop-color:#c83771;stop-opacity:1"
         offset="0"
         id="stop1141" />
      <stop
         style="stop-color:#de87aa;stop-opacity:1"
         offset="1"
         id="stop1143" />
    </linearGradient>
    <linearGradient
       id="c-0"
       gradientUnits="userSpaceOnUse"
       x1="10"
       x2="24"
       y1="10"
       y2="24"
       gradientTransform="translate(59.728813,26.237288)">
      <stop
         offset="0"
         stop-color="#292c2f"
         id="stop12-2" />
      <stop
         offset="1"
         stop-opacity="0"
         id="stop14-3" />
    </linearGradient>
    <linearGradient
       id="d"
       gradientUnits="userSpaceOnUse"
       x1="24"
       x2="24"
       y1="25"
       y2="7"
       gradientTransform="translate(59.728813,26.237288)">
      <stop
         offset="0"
         stop-color="#bb9d71"
         id="stop2-7" />
      <stop
         offset="1"
         stop-color="#f9f2e7"
         id="stop4-5" />
    </linearGradient>
    <linearGradient
       inkscape:collect="always"
       xlink:href="#linearGradient5"
       id="linearGradient6-3"
       x1="8.9041281"
       y1="48.222141"
       x2="59.254364"
       y2="9.2904711"
       gradientUnits="userSpaceOnUse" />
    <linearGradient
       id="linearGradient5"
       inkscape:collect="always">
      <stop
         style="stop-color:#404040;stop-opacity:1;"
         offset="0"
         id="stop5-6" />
      <stop
         style="stop-color:#998779;stop-opacity:1;"
         offset="1"
         id="stop6-7" />
    </linearGradient>
    <linearGradient
       inkscape:collect="always"
       xlink:href="#linearGradient2"
       id="linearGradient16"
       x1="3"
       y1="58.345703"
       x2="26.659182"
       y2="41.817516"
       gradientUnits="userSpaceOnUse" />
    <linearGradient
       id="linearGradient2"
       inkscape:collect="always">
      <stop
         style="stop-color:#2f3d43;stop-opacity:1;"
         offset="0"
         id="stop11" />
      <stop
         style="stop-color:#f0f2f5;stop-opacity:1;"
         offset="1"
         id="stop12-5" />
    </linearGradient>
  </defs>
  <sodipodi:namedview
     id="namedview5"
     pagecolor="#ffffff"
     bordercolor="#000000"
     borderopacity="0.25"
     inkscape:showpageshadow="2"
     inkscape:pageopacity="0.0"
     inkscape:pagecheckerboard="0"
     inkscape:deskcolor="#d1d1d1"
     inkscape:zoom="8.2643105"
     inkscape:cx="25.228965"
     inkscape:cy="30.432061"
     inkscape:window-width="1920"
     inkscape:window-height="998"
     inkscape:window-x="0"
     inkscape:window-y="0"
     inkscape:window-maximized="1"
     inkscape:current-layer="svg5" />
  <rect
     style="opacity:0.2;stroke-width:0.9823"
     width="55"
     height="55.017544"
     x="3.5"
     y="3.9824562"
     rx="8.25"
     ry="8.2526312"
     id="rect1" />
  <rect
     style="fill:url(#linearGradient10);stroke-width:0.9823"
     width="55"
     height="55.017544"
     x="3.5"
     y="3"
     rx="8.25"
     ry="8.2526312"
     id="rect2" />
  <path
     style="opacity:1;fill:#5a79a5;stroke-width:0.9823;fill-opacity:0.5"
     d="M 11.748466,3 C 7.1779652,3 3.5,6.6791384 3.5,11.251097 v 0.982456 c 0,-4.5719585 3.6779652,-8.2510969 8.248466,-8.2510969 h 38.503068 c 4.5705,0 8.248466,3.6791384 8.248466,8.2510969 V 11.251097 C 58.5,6.6791384 54.822034,3 50.251534,3 Z"
     id="path4" />
  <g
     id="g5"
     transform="matrix(0.16168791,-0.65589903,0.65504156,0.1617999,5.8815024,45.902904)">
    <path
       style="opacity:0.2"
       d="m 44.423102,4.9999998 c -0.0146,0 -1.182742,0.5214254 -2.594874,1.1509214 -2.656454,1.1973342 -3.521604,1.7040654 -5.434254,3.1773914 -2.23142,1.7193694 -3.20285,3.3465234 -6.527046,10.8987134 -0.956322,2.16448 -1.745426,3.914424 -1.775618,3.883886 -0.10624,-0.10746 0.318706,-2.532668 0.728642,-4.144578 0.227614,-0.936609 0.743798,-2.563827 1.12296,-3.653701 0.37974,-1.074605 0.637544,-1.949514 0.56148,-1.949514 -0.318776,0 -2.367784,0.982428 -3.521526,1.672995 -2.535098,1.550251 -5.692082,4.40588 -7.301051,6.616162 -3.779424,5.219182 -5.479589,9.640366 -6.496881,16.886028 l -0.42505,2.993544 -0.0151,-1.412188 c -0.03019,-2.747586 0.273543,-5.188728 1.047542,-8.658 0.425032,-1.826832 0.75881,-3.377002 0.75881,-3.438658 0,-0.06166 -0.470256,0.399292 -1.062515,1.0282 -1.820904,1.93488 -3.7658569,4.91322 -4.4643739,7.507542 -0.3187744,1.2126 -0.5312634,3.976084 -0.3640374,5.0043 0.076066,0.475644 0.121374,0.890174 0.09118,0.936564 -0.030194,0.03054 -0.134424,-0.12272 -0.559458,-0.33765 -0.4250326,-0.230188 -0.774005,-0.35296 -0.774005,-0.291888 0,0.07694 0.2125072,0.844478 0.4552172,1.734696 0.2427096,0.89022 0.455217,1.611852 0.455217,1.627118 0,0 -0.3467562,-0.07684 -1.1207568,-0.19956 -0.7589036,-0.10746 -1.4115538,-0.1692 -1.4417474,-0.1381 -0.045292,0.0458 0.3036956,0.537306 0.758922,1.120412 4.7609293,4.185362 2.4439564,3.209668 6.4029303,4.004006 0.03019,0.04638 0.667773,0.230194 1.411581,0.445116 0.743808,0.19966 1.8365,0.53722 2.413081,0.75214 L 17.815005,52.6 l -0.835018,-0.752256 -0.834338,-0.752256 3.794497,-0.0152 3.794496,-0.0152 -2.12514,-0.859722 c -1.619523,-0.518602 -2.827476,-0.666008 -4.106704,-1.652946 -0.536847,-0.485106 -0.0081,-0.460112 2.042576,-0.460112 4.508134,0 9.04646,-1.492182 13.964528,-3.733 2.307486,-1.044072 4.523188,-2.302466 4.356544,-2.471584 -0.04586,-0.0458 -0.637534,-0.13802 -1.336052,-0.214934 -1.381356,-0.138 -3.76433,-0.614258 -3.76433,-0.752254 0,-0.0458 1.051144,-0.466352 2.322014,-0.98244 6.320074,-3.235642 10.343218,-5.859817 14.806472,-9.892361 1.168392,-1.104672 2.167076,-2.187378 2.103698,-2.25147 -0.0152,-0.03054 -0.622464,0.09228 -1.320402,0.245552 -3.202842,0.705834 -8.667314,1.13567 -11.399252,0.905484 -1.396454,-0.12272 -3.354448,-0.583106 -4.37174,-1.012948 -0.622452,-0.276578 -0.546366,-0.876139 4.189382,-0.876139 4.37168,0 5.00926,-0.0458 6.724488,-0.352902 2.504324,-0.460376 4.174298,-0.997744 5.843654,-1.842164 2.71684,-1.366451 4.29558,-1.924728 6.466032,-4.473247 1.336068,-1.565519 1.685066,-2.072233 2.079324,-3.085178 0.819872,-2.118678 1.00151,-3.248654 0.546284,-5.458938 C 60.300802,9.6487919 58.722034,8.5823176 55.883256,7.5077116 50.477844,5.3576508 45.78588,6.6853866 42.920342,10.271184 c -0.850066,1.059339 -1.654832,1.206882 -1.776184,1.32961 -0.212518,0.214922 1.077674,-2.3640594 2.656452,-5.3418342 0.379742,-0.6905664 0.652686,-1.25896 0.622492,-1.25896 z"
       id="path1-3" />
    <path
       style="fill:url(#linearGradient6-3)"
       d="m 44.423102,3.9999998 c -0.0146,0 -1.182742,0.5214254 -2.594874,1.1509214 -2.656454,1.1973342 -3.521604,1.7040654 -5.434254,3.1773914 -2.23142,1.7193694 -3.20285,3.3465234 -6.527046,10.8987134 -0.956322,2.16448 -1.745426,3.914424 -1.775618,3.883886 -0.10624,-0.10746 0.318706,-2.532668 0.728642,-4.144578 0.227614,-0.936609 0.743798,-2.563827 1.12296,-3.653701 0.37974,-1.074605 0.637544,-1.949514 0.56148,-1.949514 -0.318776,0 -2.367784,0.982428 -3.521526,1.672995 -2.535098,1.550251 -5.692082,4.40588 -7.301051,6.616162 -3.779424,5.219182 -5.479589,9.640366 -6.496881,16.886028 l -0.42505,2.993544 -0.0151,-1.412188 c -0.03019,-2.747586 0.273543,-5.188728 1.047542,-8.658 0.425032,-1.826832 0.75881,-3.377002 0.75881,-3.438658 0,-0.06166 -0.470256,0.399292 -1.062515,1.0282 -1.820904,1.93488 -3.7658569,4.91322 -4.4643739,7.507542 -0.3187744,1.2126 -0.5312634,3.976084 -0.3640374,5.0043 0.076066,0.475644 0.121374,0.890174 0.09118,0.936564 -0.030194,0.03054 -0.134424,-0.12272 -0.559458,-0.33765 -0.4250326,-0.230188 -0.774005,-0.35296 -0.774005,-0.291888 0,0.07694 0.2125072,0.844478 0.4552172,1.734696 0.2427096,0.89022 0.455217,1.611852 0.455217,1.627118 0,0 -0.3467562,-0.07684 -1.1207568,-0.19956 -0.7589036,-0.10746 -1.4115538,-0.1692 -1.4417474,-0.1381 -0.045292,0.0458 0.3036956,0.537306 0.758922,1.120412 4.7609293,4.185362 2.4439564,3.209668 6.4029303,4.004006 0.03019,0.04638 0.667773,0.230194 1.411581,0.445116 0.743808,0.19966 1.8365,0.53722 2.413081,0.75214 L 17.815005,51.6 l -0.835018,-0.752256 -0.834338,-0.752256 3.794497,-0.0152 3.794496,-0.0152 -2.12514,-0.859722 c -1.619523,-0.518602 -2.827476,-0.666008 -4.106704,-1.652946 -0.536847,-0.485106 -0.0081,-0.460112 2.042576,-0.460112 4.508134,0 9.04646,-1.492182 13.964528,-3.733 2.307486,-1.044072 4.523188,-2.302466 4.356544,-2.471584 -0.04586,-0.0458 -0.637534,-0.13802 -1.336052,-0.214934 -1.381356,-0.138 -3.76433,-0.614258 -3.76433,-0.752254 0,-0.0458 1.051144,-0.466352 2.322014,-0.98244 6.320074,-3.235642 10.343218,-5.859817 14.806472,-9.892361 1.168392,-1.104672 2.167076,-2.187378 2.103698,-2.25147 -0.0152,-0.03054 -0.622464,0.09228 -1.320402,0.245552 -3.202842,0.705834 -8.667314,1.13567 -11.399252,0.905484 -1.396454,-0.12272 -3.354448,-0.583106 -4.37174,-1.012948 -0.622452,-0.276578 -0.546366,-0.876139 4.189382,-0.876139 4.37168,0 5.00926,-0.0458 6.724488,-0.352902 2.504324,-0.460376 4.174298,-0.997744 5.843654,-1.842164 2.71684,-1.366451 4.29558,-1.924728 6.466032,-4.473247 1.336068,-1.565519 1.685066,-2.072233 2.079324,-3.085178 0.819872,-2.118678 1.00151,-3.248654 0.546284,-5.458938 C 60.300802,8.6487919 58.722034,7.5823176 55.883256,6.5077116 50.477844,4.3576508 45.78588,5.6853866 42.920342,9.2711842 42.070276,10.330523 41.26551,10.478066 41.144158,10.600794 40.93164,10.815716 42.221832,8.2367346 43.80061,5.2589598 c 0.379742,-0.6905664 0.652686,-1.25896 0.622492,-1.25896 z"
       id="path2" />
    <path
       style="opacity:0.2"
       d="M 54.96103,10.293747 C 45.8393,11.863894 37.026764,18.492559 28.38309,27.484764 19.739417,36.476968 11.258569,47.902404 3,59.345702 V 61 H 5.2278645 C 19.71217,40.168832 35.459296,16.736742 54.96103,10.293747 Z"
       id="path3" />
    <path
       style="fill:url(#linearGradient16)"
       d="M 54.96103,9.293747 C 45.8393,10.863894 37.026764,17.492559 28.38309,26.484764 19.739417,35.476968 11.258569,46.902404 3,58.345702 V 60 H 5.2278645 C 19.71217,39.168832 35.459296,15.736742 54.96103,9.293747 Z"
       id="path4-5" />
    <path
       style="opacity:0.1;fill:#ffffff"
       d="m 44.423828,4 c -0.0146,0 -1.183571,0.5208946 -2.595703,1.1503906 -2.656454,1.1973342 -3.520944,1.7044084 -5.433594,3.1777344 -2.23142,1.719369 -3.203147,3.346248 -6.527343,10.898437 -0.836274,1.892771 -1.455761,3.258145 -1.640626,3.603516 -0.115259,0.691194 -0.182102,1.23337 -0.134765,1.28125 0.03019,0.03054 0.819068,-1.720285 1.775391,-3.884766 3.324196,-7.552189 4.295923,-9.179068 6.527343,-10.898437 1.91265,-1.473326 2.77714,-1.9804002 5.433594,-3.1777344 1.066817,-0.4755625 1.564792,-0.6951602 1.960937,-0.8691406 0.0044,-0.00836 0.0073,-0.013117 0.01172,-0.021484 C 44.180523,4.5691992 44.454022,4 44.423828,4 Z m 6.634766,1.4746094 c -3.334937,-0.065692 -6.168615,1.3316391 -8.138672,3.796875 -0.457818,0.5705248 -0.875175,0.8608726 -1.207031,1.0410156 -0.419528,0.849462 -0.66606,1.387868 -0.56836,1.289062 0.121352,-0.122727 0.925325,-0.270739 1.775391,-1.330078 2.865538,-3.585797 7.557478,-4.9137323 12.96289,-2.7636715 2.838779,1.074606 4.417831,2.1409444 4.873047,4.3359375 0.113661,0.551862 0.188421,1.036955 0.222657,1.486328 0.04934,-0.737066 -0.02038,-1.504177 -0.222657,-2.486328 C 60.300643,8.6487569 58.721591,7.5824185 55.882812,6.5078125 54.193621,5.8359185 52.574474,5.5044696 51.058594,5.4746094 Z M 30.503906,13.363281 c -0.318776,0 -2.367742,0.981308 -3.521484,1.671875 -2.535098,1.550251 -5.691812,4.406906 -7.300781,6.617188 -3.779424,5.219182 -5.478802,9.641057 -6.496094,16.886718 l -0.425781,2.992188 -0.0078,-0.753906 c 7.4e-5,0.115041 -0.0091,0.225763 -0.0078,0.341797 l 0.01563,1.412109 0.425781,-2.992188 c 1.017292,-7.245662 2.71667,-11.667536 6.496094,-16.886718 1.608969,-2.210282 4.765683,-5.066937 7.300781,-6.617188 1.000241,-0.598689 2.608921,-1.376904 3.24414,-1.583984 0.194247,-0.607113 0.32961,-1.087891 0.277344,-1.087891 z m 21.494141,13.431641 c -0.0152,-0.03054 -0.622375,0.09087 -1.320313,0.24414 -3.202842,0.705834 -8.666499,1.136436 -11.398437,0.90625 -1.072658,-0.09426 -2.468974,-0.388995 -3.523438,-0.714843 -1.334676,0.198719 -1.260244,0.518711 -0.849609,0.701172 1.017292,0.429842 2.976593,0.890951 4.373047,1.013671 2.731938,0.230186 8.195595,-0.200416 11.398437,-0.90625 0.143566,-0.03153 0.139956,-0.0229 0.271485,-0.05078 0.613559,-0.63088 1.09012,-1.151602 1.048828,-1.193359 z m -37.447266,1.228516 c 0,-0.06166 -0.470241,0.398435 -1.0625,1.027343 -1.820904,1.93488 -3.7663265,4.913491 -4.4648435,7.507813 C 8.7515883,37.592693 8.5726733,39.695458 8.625,40.947266 8.6681509,39.7541 8.8171305,38.343374 9.0234375,37.558594 c 0.698517,-2.594322 2.6439395,-5.572933 4.4648435,-7.507813 0.334115,-0.35479 0.599033,-0.622428 0.792969,-0.80664 0.07333,-0.343091 0.269531,-1.198807 0.269531,-1.220703 z m 19.632813,12.283203 c -0.785988,0.319886 -1.417969,0.580134 -1.417969,0.613281 0,0.137996 2.384269,0.613953 3.765625,0.751953 0.08978,0.0099 0.14906,0.02099 0.234375,0.03125 0.711791,-0.413443 1.178411,-0.736464 1.101563,-0.814453 -0.04586,-0.0458 -0.63742,-0.139883 -1.335938,-0.216797 -0.675836,-0.06752 -1.588685,-0.215009 -2.347656,-0.365234 z m -26.7656252,1.5625 c 0,0.04699 0.1603513,0.627774 0.2773437,1.060547 0.1361917,0.05306 0.3026968,0.127682 0.4960937,0.232421 0.4250341,0.21493 0.5303529,0.368431 0.5605469,0.337891 0.030194,-0.04639 -0.015731,-0.461856 -0.091797,-0.9375 -0.00484,-0.02978 -0.00165,-0.08849 -0.00586,-0.121094 C 8.5795176,42.385532 8.4593743,42.297615 8.1914062,42.162109 7.7663737,41.931921 7.4179687,41.808069 7.4179688,41.869141 Z m -1.6523438,3.02539 c -0.043194,0.04368 0.2828632,0.501545 0.7070312,1.048828 0.2253112,0.02484 0.4540548,0.05015 0.734375,0.08984 0.7740007,0.12272 1.1210938,0.199219 1.1210938,0.199219 0,-0.0099 -0.16634,-0.596973 -0.2949219,-1.052734 C 7.8946346,45.15147 7.7773796,45.123633 7.2070312,45.033203 6.4481276,44.925743 5.7958186,44.863431 5.765625,44.894531 Z m 12.519531,3.201172 c -0.988674,0.01571 -1.185838,0.0932 -0.783203,0.457031 1.151453,0.888358 2.283788,1.110557 3.671875,1.521485 l 2.560547,-0.0098 -2.125,-0.859375 c -1.258624,-0.403035 -2.267751,-0.586431 -3.255859,-1.109375 -0.0184,2.46e-4 -0.05048,-2.84e-4 -0.06836,0 z M 17.25,51.091797 l -0.863281,0.002 c 0.115066,0.03958 0.273028,0.08868 0.365234,0.123047 l 1.0625,0.382812 z"
       id="path5" />
  </g>
</svg>
