<?xml version="1.0" encoding="UTF-8" standalone="no"?>
<svg
   width="62"
   height="62"
   version="1.1"
   id="svg4"
   sodipodi:docname="ferdium.svg"
   inkscape:version="1.4 (e7c3feb100, 2024-10-09)"
   xmlns:inkscape="http://www.inkscape.org/namespaces/inkscape"
   xmlns:sodipodi="http://sodipodi.sourceforge.net/DTD/sodipodi-0.dtd"
   xmlns="http://www.w3.org/2000/svg"
   xmlns:svg="http://www.w3.org/2000/svg">
  <defs
     id="defs4" />
  <sodipodi:namedview
     id="namedview4"
     pagecolor="#ffffff"
     bordercolor="#000000"
     borderopacity="0.25"
     inkscape:showpageshadow="2"
     inkscape:pageopacity="0.0"
     inkscape:pagecheckerboard="0"
     inkscape:deskcolor="#d1d1d1"
     inkscape:zoom="11.75"
     inkscape:cx="32"
     inkscape:cy="32"
     inkscape:window-width="1920"
     inkscape:window-height="998"
     inkscape:window-x="0"
     inkscape:window-y="0"
     inkscape:window-maximized="1"
     inkscape:current-layer="svg4" />
  <g
     id="g4"
     transform="translate(-0.50876999,-1)">
    <circle
       style="opacity:0.2;stroke-width:0.98246"
       cx="31.50877"
       cy="32.49123"
       r="27.50877"
       id="circle1" />
    <circle
       style="fill:#7158e0;stroke-width:0.98246"
       cx="31.50877"
       cy="31.50877"
       r="27.50877"
       id="circle2" />
    <path
       style="opacity:0.2;stroke-width:0.98246"
       d="m 22.253351,39.253129 c 1.072937,-0.307586 3.521168,-1.560412 5.610026,-2.870768 1.748443,-1.096823 3.423629,-2.030139 3.643777,-2.030139 0.220926,0 1.243208,0.569876 3.703258,2.064337 2.645261,1.606939 4.624245,2.608757 5.666005,2.868278 0.602257,0.15002 1.021637,0.102529 1.579729,-0.17869 1.088394,-0.548457 2.589804,-1.755034 4.471372,-3.593317 2.540058,-2.48157 4.878673,-5.392693 5.176224,-6.443593 0.101317,-0.356565 0.0132,-0.428418 -0.529779,-0.415803 -0.869282,0.02024 -1.980533,0.321206 -6.531907,1.768388 -1.898197,0.603548 -3.247777,0.976624 -3.53312,0.976624 -0.448217,0 -2.022879,-0.908757 -4.255901,-2.455942 -1.081641,-0.74947 -3.297388,-2.194367 -3.981988,-2.596688 -0.968379,-0.569072 -1.470886,-0.764559 -1.869617,-0.727406 -0.676806,0.06304 -1.88897,0.784197 -6.157339,3.663254 -2.039634,1.375728 -3.148023,2.022243 -3.595979,2.097449 -0.373144,0.06262 -0.889029,-0.08192 -5.885374,-1.650406 -1.603103,-0.503209 -2.830077,-0.844504 -3.523766,-0.980173 -0.492769,-0.09636 -1.178917,-0.129132 -1.285166,-0.06112 -0.37743,0.24133 0.670442,1.9403 2.462006,3.991724 2.961125,3.390581 6.114219,6.143509 7.599395,6.634874 0.254042,0.08412 0.831747,0.05576 1.238144,-0.06084 z"
       id="path2" />
    <path
       style="fill:#ffffff;stroke-width:0.98246"
       d="m 22.253346,38.270673 c 1.072937,-0.307582 3.521168,-1.560407 5.610026,-2.870762 1.748443,-1.09683 3.423629,-2.030145 3.643777,-2.030145 0.220926,0 1.243208,0.569875 3.703258,2.064342 2.645261,1.606934 4.624245,2.608752 5.666006,2.868278 0.602256,0.15002 1.021636,0.102529 1.579728,-0.17869 1.088394,-0.548461 2.589804,-1.755033 4.471372,-3.593323 2.540058,-2.481564 4.878673,-5.392693 5.176224,-6.44359 0.101317,-0.356562 0.0132,-0.42842 -0.529779,-0.415806 -0.869282,0.02024 -1.980533,0.321213 -6.531907,1.768393 -1.898197,0.60355 -3.247777,0.976624 -3.53312,0.976624 -0.448217,0 -2.022879,-0.908762 -4.255901,-2.455946 -1.081641,-0.749465 -3.297388,-2.194362 -3.981988,-2.596687 -0.968379,-0.569074 -1.470886,-0.764562 -1.869617,-0.727406 -0.676806,0.06304 -1.88897,0.784201 -6.157339,3.663258 -2.039634,1.375724 -3.148023,2.022237 -3.595979,2.097445 -0.373144,0.06262 -0.889029,-0.08192 -5.885374,-1.650408 -1.603103,-0.503201 -2.830077,-0.844504 -3.523765,-0.980167 -0.49277,-0.09636 -1.178918,-0.129137 -1.285167,-0.06112 -0.37743,0.24133 0.670442,1.940295 2.462006,3.991722 2.961125,3.390578 6.114219,6.143506 7.599395,6.634875 0.254042,0.08412 0.831747,0.05576 1.238144,-0.06084 z"
       id="path3" />
    <path
       style="opacity:0.1;fill:#ffffff;stroke-width:0.98246"
       d="M 31.508766,4 A 27.508766,27.508766 0 0 0 4,31.508766 27.508766,27.508766 0 0 0 4.0326201,31.982725 27.508766,27.508766 0 0 1 31.508766,4.9824559 27.508766,27.508766 0 0 1 59.000261,31.746704 27.508766,27.508766 0 0 0 59.01753,31.508766 27.508766,27.508766 0 0 0 31.508766,4 Z"
       id="path4" />
  </g>
</svg>
