<?xml version="1.0" encoding="UTF-8" standalone="no"?>
<svg
   width="62"
   height="62"
   version="1"
   id="svg11"
   sodipodi:docname="filelight.svg"
   inkscape:version="1.4 (e7c3feb100, 2024-10-09)"
   xmlns:inkscape="http://www.inkscape.org/namespaces/inkscape"
   xmlns:sodipodi="http://sodipodi.sourceforge.net/DTD/sodipodi-0.dtd"
   xmlns="http://www.w3.org/2000/svg"
   xmlns:svg="http://www.w3.org/2000/svg">
  <defs
     id="defs11" />
  <sodipodi:namedview
     id="namedview11"
     pagecolor="#ffffff"
     bordercolor="#000000"
     borderopacity="0.25"
     inkscape:showpageshadow="2"
     inkscape:pageopacity="0.0"
     inkscape:pagecheckerboard="0"
     inkscape:deskcolor="#d1d1d1"
     inkscape:zoom="11.6875"
     inkscape:cx="31.957219"
     inkscape:cy="32"
     inkscape:window-width="1920"
     inkscape:window-height="994"
     inkscape:window-x="0"
     inkscape:window-y="0"
     inkscape:window-maximized="1"
     inkscape:current-layer="svg11" />
  <g
     id="g11"
     transform="translate(-0.5,-1.0351561)">
    <path
       style="opacity:0.2;stroke-width:0.982605"
       d="M 31.500001,5.0535462 A 27.500001,27.525751 0 0 0 4,32.579293 h 8.249999 A 19.250001,19.268026 0 0 1 31.500001,13.311275 Z m 19.25,27.5257468 A 19.250001,19.268026 0 0 1 32.874998,51.796252 v 8.238904 A 27.500001,27.525751 0 0 0 59,32.579293 Z"
       id="path1" />
    <path
       style="fill:#c83771;stroke-width:0.982605"
       d="M 31.500001,4.0355399 A 27.500001,27.525751 0 0 0 4,31.561287 h 8.249999 A 19.250001,19.268026 0 0 1 31.500001,12.293262 Z m 19.25,27.5257471 A 19.250001,19.268026 0 0 1 32.874998,50.77824 v 8.238911 A 27.500001,27.525751 0 0 0 59,31.561287 Z"
       id="path2" />
    <path
       style="opacity:0.2;stroke-width:0.982605"
       d="m 31.500001,10.916976 c -11.933298,0 -21.607144,9.682905 -21.607144,21.627377 0,11.944466 9.673846,21.627377 21.607144,21.627377 11.933297,0 21.607144,-9.682911 21.607144,-21.627377 H 45.004462 31.500001 V 19.027239 Z"
       id="path3" />
    <path
       style="fill:#2d7ad6;stroke-width:0.982605"
       d="m 31.500001,9.8989703 c -11.933298,0 -21.607144,9.6829057 -21.607144,21.6273777 0,11.944466 9.673846,21.627369 21.607144,21.627369 11.933297,0 21.607144,-9.682903 21.607144,-21.627369 H 45.004462 31.500001 V 18.009233 Z"
       id="path4" />
    <path
       style="opacity:0.2;stroke-width:0.982605"
       d="M 31.500001,16.81535 A 15.714289,15.729003 0 0 0 15.78571,32.544353 15.714289,15.729003 0 0 0 31.500001,48.273349 15.714289,15.729003 0 0 0 47.21429,32.544353 15.714289,15.729003 0 0 0 31.500001,16.81535 Z"
       id="path5" />
    <path
       style="fill:#07c486;stroke-width:0.982605"
       d="M 31.500001,15.797345 A 15.714289,15.729003 0 0 0 15.78571,31.526348 15.714289,15.729003 0 0 0 31.500001,47.255344 15.714289,15.729003 0 0 0 47.21429,31.526348 15.714289,15.729003 0 0 0 31.500001,15.797345 Z"
       id="path6" />
    <path
       style="opacity:0.2;stroke-width:0.982605"
       d="m 31.500001,22.713724 a 9.8214282,9.8306246 0 0 1 9.821425,9.830629 9.8214282,9.8306246 0 0 1 -9.821425,9.830623 9.8214282,9.8306246 0 0 1 -9.821427,-9.830623 9.8214282,9.8306246 0 0 1 9.821427,-9.830629 z"
       id="path7" />
    <path
       style="fill:#ffffff;stroke-width:0.982605"
       d="m 31.500001,21.695718 a 9.8214282,9.8306246 0 0 1 9.821425,9.83063 9.8214282,9.8306246 0 0 1 -9.821425,9.830622 9.8214282,9.8306246 0 0 1 -9.821427,-9.830622 9.8214282,9.8306246 0 0 1 9.821427,-9.83063 z"
       id="path8" />
    <path
       style="opacity:0.1;fill:#ffffff;stroke-width:0.982605"
       d="M 31.500001,4.0351562 C 16.312166,4.0351562 4.0000002,16.358851 4,31.560907 H 4.024935 C 4.5428806,16.814877 16.641442,5.0182184 31.500001,5.0182184 Z"
       id="path9" />
    <path
       style="opacity:0.1;fill:#ffffff;stroke-width:0.982605"
       d="m 31.500001,9.8989703 c -11.933298,0 -21.607144,9.6829057 -21.607144,21.6273777 0,0.112112 0.011385,0.221499 0.017265,0.332169 C 10.254634,20.215752 19.784674,10.88203 31.500001,10.88203 Z"
       id="path10" />
    <path
       style="opacity:0.2;fill:#ffffff;stroke-width:0.982605"
       d="M 31.500001,15.797345 A 15.714289,15.729003 0 0 0 15.78571,31.526348 15.714289,15.729003 0 0 0 15.806807,31.935312 15.714289,15.729003 0 0 1 31.49999,16.78041 15.714289,15.729003 0 0 1 47.193172,32.090841 15.714289,15.729003 0 0 0 47.214269,31.526348 15.714289,15.729003 0 0 0 31.499992,15.797345 Z"
       id="path11" />
  </g>
</svg>
