<?xml version="1.0" encoding="UTF-8" standalone="no"?>
<svg
   clip-rule="evenodd"
   fill-rule="evenodd"
   stroke-linejoin="round"
   stroke-miterlimit="2"
   viewBox="0 0 62 62"
   version="1.1"
   id="svg3"
   sodipodi:docname="org.garudalinux.firedragon.svg"
   width="62"
   height="62"
   inkscape:version="1.4 (e7c3feb100, 2024-10-09)"
   xmlns:inkscape="http://www.inkscape.org/namespaces/inkscape"
   xmlns:sodipodi="http://sodipodi.sourceforge.net/DTD/sodipodi-0.dtd"
   xmlns:xlink="http://www.w3.org/1999/xlink"
   xmlns="http://www.w3.org/2000/svg"
   xmlns:svg="http://www.w3.org/2000/svg">
  <defs
     id="defs3">
    <linearGradient
       id="linearGradient6">
      <stop
         offset="0"
         style="stop-color:#dbdbdb;stop-opacity:0;"
         id="stop5" />
      <stop
         offset="1"
         style="stop-color:#000000;stop-opacity:1;"
         id="stop6" />
    </linearGradient>
    <linearGradient
       id="linearGradient3"
       inkscape:collect="always">
      <stop
         style="stop-color:#334c66;stop-opacity:1;"
         offset="0"
         id="stop3" />
      <stop
         style="stop-color:#2d3c53;stop-opacity:1;"
         offset="1"
         id="stop4" />
    </linearGradient>
    <filter
       id="b-3-36"
       width="1.2393739"
       height="1.1966286"
       x="-0.11968695"
       y="-0.098314282"
       color-interpolation-filters="sRGB">
      <feGaussianBlur
         stdDeviation="1.147"
         id="feGaussianBlur7-6" />
    </filter>
    <filter
       id="b-3-36-6"
       width="1.2393739"
       height="1.1966286"
       x="-0.11968695"
       y="-0.098314282"
       color-interpolation-filters="sRGB">
      <feGaussianBlur
         stdDeviation="1.147"
         id="feGaussianBlur7-6-7" />
    </filter>
    <linearGradient
       inkscape:collect="always"
       xlink:href="#linearGradient3"
       id="linearGradient4"
       x1="31.996025"
       y1="5.0983038"
       x2="32.182014"
       y2="58.017544"
       gradientUnits="userSpaceOnUse" />
    <linearGradient
       id="linearGradient4306">
      <stop
         offset="0"
         style="stop-color:#000000;stop-opacity:0;"
         id="stop12" />
      <stop
         offset="1"
         style="stop-color:#000000;stop-opacity:1;"
         id="stop14" />
    </linearGradient>
    <radialGradient
       xlink:href="#linearGradient4324"
       id="radialGradient4340-3"
       cx="-12"
       cy="12"
       fx="-12"
       fy="12"
       r="4"
       gradientUnits="userSpaceOnUse"
       gradientTransform="matrix(1.235291,0,0,1.235291,-1.3530054,1.3530246)" />
    <linearGradient
       id="linearGradient4324">
      <stop
         style="stop-color:#eff1f1;stop-opacity:1"
         offset="0"
         id="stop7" />
      <stop
         style="stop-color:#ececec;stop-opacity:1;"
         offset="1"
         id="stop9" />
    </linearGradient>
    <linearGradient
       id="linearGradient4167">
      <stop
         style="stop-color:#ffffff;stop-opacity:0"
         offset="0"
         id="stop2-3" />
      <stop
         style="stop-color:#ffffff;stop-opacity:1"
         offset="1"
         id="stop4-6" />
    </linearGradient>
    <radialGradient
       xlink:href="#linearGradient4324"
       id="radialGradient4188-1"
       gradientUnits="userSpaceOnUse"
       cx="-12"
       cy="12"
       fx="-12"
       fy="12"
       r="4"
       gradientTransform="matrix(1.235291,0,0,1.235291,-16.176495,16.176515)" />
    <radialGradient
       xlink:href="#linearGradient4324"
       id="radialGradient4202-2"
       gradientUnits="userSpaceOnUse"
       cx="-12"
       cy="12"
       fx="-12"
       fy="12"
       r="4"
       gradientTransform="matrix(1.235291,0,0,1.235291,-30.999989,31.000009)" />
    <linearGradient
       xlink:href="#linearGradient4816"
       id="linearGradient4503-0-3"
       y1="37"
       y2="4"
       x2="0"
       gradientUnits="userSpaceOnUse"
       gradientTransform="matrix(1.0499998,0,0,1.0499998,9.2502391,54.800003)" />
    <linearGradient
       id="linearGradient4816">
      <stop
         style="stop-color:#da4453"
         id="stop1439" />
      <stop
         offset="1"
         style="stop-color:#ff7336"
         id="stop1441" />
    </linearGradient>
    <linearGradient
       id="linearGradient4279">
      <stop
         id="stop1432" />
      <stop
         offset="1"
         style="stop-opacity:0"
         id="stop1434" />
    </linearGradient>
    <linearGradient
       id="c"
       y1="513.38"
       x1="399.98999"
       y2="537.38"
       x2="424.98999"
       gradientUnits="userSpaceOnUse"
       gradientTransform="translate(-464.04842,-560.44526)">
      <stop
         stop-color="#292c2f"
         id="stop12-3" />
      <stop
         offset="1"
         stop-opacity="0"
         id="stop14-6" />
    </linearGradient>
    <linearGradient
       id="b"
       y1="35"
       x1="42"
       y2="12"
       x2="22"
       gradientUnits="userSpaceOnUse"
       gradientTransform="translate(-75.064419,-59.059262)">
      <stop
         stop-color="#197cf1"
         id="stop7-7" />
      <stop
         offset="1"
         stop-color="#20bcfa"
         id="stop9-5" />
    </linearGradient>
    <linearGradient
       id="a-3"
       y1="35"
       x1="23"
       y2="13"
       x2="5"
       gradientUnits="userSpaceOnUse"
       gradientTransform="translate(-79.064419,-59.059262)">
      <stop
         stop-color="#c61423"
         id="stop2-5" />
      <stop
         offset="1"
         stop-color="#dc2b41"
         id="stop4-62" />
    </linearGradient>
  </defs>
  <sodipodi:namedview
     id="namedview3"
     pagecolor="#ffffff"
     bordercolor="#000000"
     borderopacity="0.25"
     inkscape:showpageshadow="2"
     inkscape:pageopacity="0.0"
     inkscape:pagecheckerboard="0"
     inkscape:deskcolor="#d1d1d1"
     inkscape:zoom="5.5095405"
     inkscape:cx="17.878079"
     inkscape:cy="45.012828"
     inkscape:window-width="1920"
     inkscape:window-height="994"
     inkscape:window-x="0"
     inkscape:window-y="0"
     inkscape:window-maximized="1"
     inkscape:current-layer="svg3" />
  <linearGradient
     id="a"
     x2="1"
     gradientTransform="matrix(0,-43.53155,43.53155,0,1192.407,51.589413)"
     gradientUnits="userSpaceOnUse">
    <stop
       stop-color="#161616"
       offset="0"
       id="stop1" />
    <stop
       stop-color="#343434"
       offset="1"
       id="stop2" />
  </linearGradient>
  <g
     id="g3"
     transform="translate(3.487626,-1.843205)" />
  <rect
     style="opacity:0.2;stroke-width:0.9823"
     width="55"
     height="55.017544"
     x="3.5"
     y="3.9824562"
     rx="8.25"
     ry="8.2526312"
     id="rect1-3" />
  <rect
     style="fill:url(#linearGradient4);stroke-width:0.9823"
     width="55"
     height="55.017544"
     x="3.5"
     y="3"
     rx="8.25"
     ry="8.2526312"
     id="rect2-5" />
  <path
     style="opacity:0.1;fill:#ffffff;stroke-width:0.9823"
     d="M 11.748466,3 C 7.1779651,3 3.4999999,6.6791384 3.4999999,11.251097 v 0.982456 c 0,-4.5719585 3.6779652,-8.2510968 8.2484661,-8.2510968 h 38.503068 c 4.5705,0 8.248466,3.6791383 8.248466,8.2510968 V 11.251097 C 58.5,6.6791384 54.822034,3 50.251534,3 Z"
     id="path4-6" />
  <g
     id="g2"
     transform="matrix(0.59343065,0,0,0.58021637,42.418975,-54.663368)"
     style="fill:#d5e5ff;fill-opacity:1;stroke-width:2.44978">
    <path
       id="path18"
       d="m -4.11293,128.32533 c -1.28533,-0.02 -2.55333,-0.576 -3.44,-1.508 -0.88533,-0.93067 -1.376,-2.22533 -1.332,-3.51067 1.14534,1.308 2.24534,2.364 3.80667,3.12667 0.384,0.188 0.79733,0.372 1.044,0.72267 0.24667,0.34933 0.34933,1.176 -0.0787,1.16933 z m 15.66934,3.996 C 10.66307,130.9 8.88307,130.972 7.29774,130.42266 4.52707,129.464 1.89641,128.1 -0.48626,126.38933 c -0.0547,-2.50267 -1.77733,-4.62667 -3.61067,-6.33067 -1.83466,-1.704 -3.956,-3.12133 -5.52,-5.076 -1.564,-1.95466 -2.49466,-4.696 -1.476,-6.98266 -1.85466,1.41866 -2.66933,3.708 -2.61066,6.04266 -0.59867,-1.05066 -1.032,-2.196 -1.27734,-3.37866 -0.77866,1.31733 -1.02533,2.94 -0.67333,4.43066 0.352,1.49067 1.29733,2.83067 2.584,3.66267 -8.08,-1.816 -17.39067,0.32533 -23.69466,5.69467 5.24399,-0.46934 10.83866,0.95333 14.45466,4.78266 -0.78267,2.25467 0.548,4.76267 2.388,6.28133 1.84133,1.51734 4.136,2.352 6.19733,3.552 2.06267,1.2 4.02667,2.988 4.392,5.34534 0.22134,1.42133 -0.28666,3.04 -1.53466,3.75733 0.80133,0.25333 1.88933,0.16267 2.49066,-0.424 -0.32,1.30133 -1.116,2.48 -2.204,3.26267 1.59067,0.488 3.33867,-0.40667 4.19467,-1.832 1.14267,0.23733 2.30933,-0.5 2.93867,-1.484 0.62933,-0.984 0.83466,-2.17067 1.02933,-3.32134 -0.664,0.656 -1.292,1.11334 -2.22267,1.184 0.456,-1.40133 -0.51733,-2.87733 -1.664,-3.80266 -1.14533,-0.92667 -2.532,-1.6 -3.412,-2.78134 -1.1,-1.47466 -1.30266,-3.39466 -0.29333,-4.93333 -0.5,-0.732 -0.92933,-1.188 -1.17467,-2.04133 2.99867,3.036 7.196,4.852 11.46134,4.96 0.65066,0.016 1.32533,-0.001 1.92266,0.25866 0.596,0.26 1.09067,0.89734 0.94267,1.532 0.55067,-0.40133 0.98,-0.84 1.20667,-1.48266 0.67066,1.428 0.56133,3.19333 -0.28134,4.528 1.844,-0.83334 3.31734,-2.448 3.98,-4.35867 0.264,0.66933 0.284,1.56133 0.056,2.244 1.68934,-0.29067 2.78267,-1.05333 3.60267,-2.55867 0.80267,-1.47333 0.744,-3.37866 -0.14933,-4.79866"
       style="fill:#d35f8d;fill-opacity:1;fill-rule:nonzero;stroke:none;stroke-width:0.326637" />
    <path
       id="path19"
       d="m -20.58093,187.25333 c 13.956,0.51733 26.34667,-6.32267 33.61067,-16.94534 -1.58,0.62 -3.18533,1.17334 -4.82133,1.644 -8.78934,2.53067 -18.75067,2.43067 -26.544,-2.35466 5.348,0.91066 10.15333,1.41733 15.49066,0.44533 5.336,-0.97067 10.51067,-3.24667 14.452,-6.97467 2.164,-2.048 3.904,-4.48 5.28534,-7.12133 2.33333,-4.46 3.168,-9.59467 2.26933,-14.548 -0.004,-0.0227 -0.008,-0.0467 -0.012,-0.0693 -1.444,3.04266 -3.30267,5.888 -5.54,8.40533 -4.03467,4.54133 -9.32133,8.05733 -15.21867,9.512 -8.59733,2.12133 -22.23733,-0.28667 -25.292,-9.94667 -1.456,-4.60533 -0.116,-9.97733 3.332,-13.36 1.79467,-1.76133 4.052,-2.97066 6.01067,-4.54799 3.63867,-2.93334 6.12133,-7.02667 8.528,-11.032 l -0.56133,-0.636 c -8.252,-4.036 -17.86934,-5.21467 -26.852,-3.28934 1.79333,0.83467 3.58666,1.66934 5.38,2.504 -3.02,-0.21066 -6.06933,0.004 -9.032,0.63467 1.584,0.56933 3.16667,1.13867 4.74933,1.70933 -7.10666,1.01334 -13.76133,4.89867 -18.13866,10.588 1.892,-0.87466 3.55066,-1.49466 5.62533,-1.68533 -1.49067,1.728 -2.61867,4.21333 -2.67467,6.49466 1.03467,-0.92266 2.06934,-1.84666 3.104,-2.77066 -1.78666,9.08 -0.304,18.76933 4.11734,26.89866 4.42266,8.12934 11.74933,14.64 20.34399,18.07334 -11.47066,-2.36667 -22.28133,-9.49334 -28.48533,-19.42667 -3.20133,-5.12267 -5.25733,-10.932 -6.108,-16.91067 -0.40933,2.71467 -0.54133,5.52134 -0.35466,8.39067 1.28533,19.75733 17.54933,35.584 37.33599,36.31867"
       style="fill:#d35f8d;fill-opacity:1;fill-rule:nonzero;stroke:none;stroke-width:0.326637" />
    <path
       id="path20"
       d="m -50.18226,138.78666 c -0.796,10.476 2.78267,21.21733 9.704,29.12267 -4.03066,-4.10934 -8.51066,-8.19067 -10.70266,-13.512 -2.192,-5.32134 -2.14667,-10.792 0.99866,-15.61067"
       style="fill:#aa87de;fill-opacity:1;fill-rule:nonzero;stroke:none;stroke-width:0.326637" />
    <path
       id="path21"
       d="m -2.72093,171.55599 c 5.34,-0.324 10.53867,-2.604 14.39467,-6.312 -0.94,2.64534 -3.40267,4.52934 -6.06267,5.42667 -2.66,0.89733 -5.524,0.94267 -8.332,0.88533"
       style="fill:#aa87de;fill-opacity:1;fill-rule:nonzero;stroke:none;stroke-width:0.326637" />
  </g>
</svg>
