<?xml version="1.0" encoding="UTF-8" standalone="no"?>
<svg
   width="62"
   height="62"
   version="1.1"
   id="svg5"
   sodipodi:docname="fish.svg"
   inkscape:version="1.4 (unknown)"
   xmlns:inkscape="http://www.inkscape.org/namespaces/inkscape"
   xmlns:sodipodi="http://sodipodi.sourceforge.net/DTD/sodipodi-0.dtd"
   xmlns="http://www.w3.org/2000/svg"
   xmlns:svg="http://www.w3.org/2000/svg">
  <defs
     id="defs5" />
  <sodipodi:namedview
     id="namedview5"
     pagecolor="#ffffff"
     bordercolor="#000000"
     borderopacity="0.25"
     inkscape:showpageshadow="2"
     inkscape:pageopacity="0.0"
     inkscape:pagecheckerboard="0"
     inkscape:deskcolor="#d1d1d1"
     inkscape:zoom="11.6875"
     inkscape:cx="31.957219"
     inkscape:cy="32.042781"
     inkscape:window-width="1920"
     inkscape:window-height="1000"
     inkscape:window-x="0"
     inkscape:window-y="0"
     inkscape:window-maximized="1"
     inkscape:current-layer="svg5" />
  <rect
     style="opacity:0.2;stroke-width:0.9823"
     width="55"
     height="55.017544"
     x="4"
     y="4.9824562"
     rx="8.25"
     ry="8.2526312"
     id="rect1" />
  <rect
     style="fill:#233143;stroke-width:0.9823;fill-opacity:1"
     width="55"
     height="55.017544"
     x="4"
     y="4"
     rx="8.25"
     ry="8.2526312"
     id="rect2" />
  <path
     style="opacity:0.1;fill:#ffffff;stroke-width:0.9823"
     d="M 12.248466,4 C 7.6779652,4 4,7.6791384 4,12.251097 v 0.982456 C 4,8.6615945 7.6779652,4.9824561 12.248466,4.9824561 H 50.751534 C 55.322034,4.9824561 59,8.6615945 59,13.233553 V 12.251097 C 59,7.6791384 55.322034,4 50.751534,4 Z"
     id="path4" />
  <g
     id="g1"
     transform="matrix(1.025641,0,0,1.0434783,-0.8076915,-37.882535)">
    <path
       style="opacity:0.2"
       d="M 23,56 12,66.121094 v 2.927734 L 23,78 V 73.107422 L 15.423828,67.376953 23,60.892578 Z m 3,0 v 4.892578 L 33.576172,67.376953 26,73.107422 V 78 l 11,-8.951172 v -2.927734 z m 25,0 -11,10.121094 v 2.927734 L 51,78 V 73.107422 L 43.423828,67.376953 51,60.892578 Z"
       id="path2" />
    <path
       style="fill:#dc3545"
       d="M 23,77 12,68.049431 V 65.121673 L 23,55 v 4.893537 L 15.424743,66.376427 23,72.106465 Z"
       id="path3" />
    <path
       style="fill:#8660cb"
       d="M 26,72.106465 33.575257,66.376427 26,59.893537 V 55 l 11,10.121673 v 2.927758 L 26,77 Z"
       id="path4-6" />
    <path
       style="fill:#ffe71a;fill-opacity:1"
       d="M 51,77 40,68.049431 V 65.121673 L 51,55 v 4.893537 L 43.424743,66.376427 51,72.106465 Z"
       id="path5" />
    <path
       style="opacity:0.2;fill:#ffffff"
       d="M 23,55 12,65.121094 v 1 L 23,56 Z m 3,0 v 1 l 11,10.121094 v -1 z m 25,0 -11,10.121094 v 1 L 51,56 Z M 16.044922,66.845703 15.423828,67.376953 23,73.107422 v -1 z m 16.910156,0 L 26,72.107422 v 1 l 7.576172,-5.730469 z m 11.089844,0 -0.621094,0.53125 L 51,73.107422 v -1 z"
       id="path6" />
  </g>
</svg>
