<?xml version="1.0" encoding="UTF-8" standalone="no"?>
<svg
   width="62"
   height="62"
   x="0"
   y="0"
   version="1.1"
   xml:space="preserve"
   id="svg13"
   sodipodi:docname="flameshot.svg"
   inkscape:version="1.4 (e7c3feb100, 2024-10-09)"
   xmlns:inkscape="http://www.inkscape.org/namespaces/inkscape"
   xmlns:sodipodi="http://sodipodi.sourceforge.net/DTD/sodipodi-0.dtd"
   xmlns="http://www.w3.org/2000/svg"
   xmlns:svg="http://www.w3.org/2000/svg"><defs
   id="defs13" /><sodipodi:namedview
   id="namedview13"
   pagecolor="#ffffff"
   bordercolor="#000000"
   borderopacity="0.25"
   inkscape:showpageshadow="2"
   inkscape:pageopacity="0.0"
   inkscape:pagecheckerboard="0"
   inkscape:deskcolor="#d1d1d1"
   inkscape:zoom="11.6875"
   inkscape:cx="31.957219"
   inkscape:cy="32"
   inkscape:window-width="1920"
   inkscape:window-height="994"
   inkscape:window-x="0"
   inkscape:window-y="0"
   inkscape:window-maximized="1"
   inkscape:current-layer="svg13" />
 
 
 
 
 
 
 
 
 
 
 
 <g
   id="g14"
   transform="translate(-0.49999991,-0.99999975)"><g
     style="opacity:0.2"
     transform="matrix(0.859375,0,0,0.85964912,4,4.982456)"
     id="g2">
  <g
   id="g1">
   <path
   d="M 32,0 C 49.7,0 64,14.3 64,32 64,49.7 49.7,64 32,64 14.3,64 0,49.7 0,32 0,14.3 14.3,0 32,0 Z"
   id="path1" />
  </g>
 </g><g
     style="fill:#763983"
     transform="matrix(0.859375,0,0,0.85964912,4,4)"
     id="g4">
  <g
   style="fill:#763983"
   id="g3">
   <path
   style="fill:#823e8e;fill-opacity:1"
   d="M 32,0 C 49.7,0 64,14.3 64,32 64,49.7 49.7,64 32,64 14.3,64 0,49.7 0,32 0,14.3 14.3,0 32,0 Z"
   id="path2" />
  </g>
 </g><path
     style="opacity:0.2;stroke-width:0.982303"
     d="M 34.298695,28.876835 C 50.519764,25.765883 51.142856,18.73684 51.142856,18.73684 c 0,0 -1.277435,21.784079 -13.131994,22.9366 -15.022496,1.460512 -17.561814,8.502 -17.561814,8.502 0,0 -0.307242,-2.260297 0.640115,-5.20998 1.896237,-5.904116 6.849614,-14.868889 13.209532,-16.088625 z"
     id="path4" /><path
     style="fill:#eb2273;stroke-width:0.982303"
     d="M 34.298695,27.894379 C 50.519764,24.783433 51.142856,17.75439 51.142856,17.75439 c 0,0 -1.277435,21.784073 -13.131994,22.936592 -15.022496,1.460512 -17.561814,8.501998 -17.561814,8.501998 0,0 -0.307242,-2.260293 0.640115,-5.209972 C 22.9854,38.07889 27.938777,29.114113 34.298695,27.894379 Z"
     id="path5" /><path
     style="opacity:0.2;fill:#ffffff;stroke-width:0.982303"
     d="m 51.142856,17.75439 c 0,0 -0.623063,7.0283 -16.844132,10.139252 -6.359921,1.219737 -11.312817,10.185518 -13.209054,16.089636 -0.680346,2.118316 -0.708579,3.845109 -0.673302,4.670504 0.04304,-0.932255 0.203182,-2.224277 0.673302,-3.688046 1.896237,-5.904118 6.849133,-14.869907 13.209054,-16.089642 13.502334,-2.589532 16.162815,-7.839086 16.686837,-9.544405 0.0992,-0.911512 0.157295,-1.577299 0.157295,-1.577299 z"
     id="path6" /><path
     style="opacity:0.2;stroke-width:0.982303"
     d="m 23.476125,28.070032 c 13.68402,-5.787207 12.430704,-15.227925 12.430704,-15.227925 0,0 7.555017,19.259627 -3.770942,23.749685 -12.652255,5.015854 -11.696781,13.583648 -11.696781,13.583648 0,0 -4.999787,-18.70651 3.037019,-22.105408 z"
     id="path7" /><path
     style="fill:#ff812d;stroke-width:0.982303"
     d="M 23.476125,27.087572 C 37.160145,21.300369 35.906829,11.85965 35.906829,11.85965 c 0,0 7.555017,19.259634 -3.770942,23.74969 -12.652255,5.015852 -11.696781,13.58364 -11.696781,13.58364 0,0 -4.999787,-18.7065 3.037019,-22.105408 z"
     id="path8" /><path
     style="opacity:0.2;fill:#ffffff;stroke-width:0.982303"
     d="m 35.906215,11.85965 c 0,0 0.02285,0.415405 0.0039,0.995892 0.01637,0.04182 2.342356,6.000631 2.455358,12.058107 C 38.51442,18.515139 35.906255,11.85965 35.906255,11.85965 Z m 0.0039,1.032341 c -0.09331,2.539039 -1.37717,9.519573 -12.43408,14.195729 -3.687371,1.559451 -4.618887,6.339395 -4.559674,11.058389 0.08264,-4.383623 1.129131,-8.625095 4.559674,-10.075932 C 36.954916,22.369716 35.943518,13.16787 35.910091,12.891991 Z"
     id="path9" /><path
     style="opacity:0.2;stroke-width:0.982303"
     d="m 16.04555,32.984379 c 7.744046,-10.106494 6.002227,-17.194909 6.002227,-17.194909 0,0 9.921755,12.31316 3.170289,19.939509 -7.542086,8.519431 -4.714518,14.446461 -4.714518,14.446461 0,0 -8.899692,-11.394346 -4.457998,-17.191061 z"
     id="path10" /><path
     style="fill:#ffdf55;stroke-width:0.982303"
     d="m 16.04555,32.001926 c 7.744046,-10.106495 6.002227,-17.194906 6.002227,-17.194906 0,0 9.921755,12.31315 3.170289,19.939503 -7.542086,8.519427 -4.714518,14.446457 -4.714518,14.446457 0,0 -8.899692,-11.394346 -4.457998,-17.191054 z"
     id="path11" /><g
     style="opacity:0.1;fill:#ffffff"
     transform="matrix(0.859375,0,0,0.85964912,4,4)"
     id="g13">
  <g
   style="fill:#ffffff"
   id="g12">
   <path
   style="fill:#ffffff"
   transform="matrix(1.1428571,0,0,1.1428571,-4.5714286,-4.5714286)"
   d="M 32,4 C 16.5125,4 4,16.5125 4,32 4,32.167666 4.010751,32.333043 4.0136719,32.5 4.2805513,17.244988 16.680166,5 32,5 47.319834,5 59.719449,17.244988 59.986328,32.5 59.989249,32.333043 60,32.167666 60,32 60,16.5125 47.4875,4 32,4 Z"
   id="path12" />
  </g>
 </g><path
     style="opacity:0.2;fill:#ffffff;stroke-width:0.982303"
     d="m 22.046873,14.80702 c 0,0 0.09581,0.425023 0.141956,1.168583 0.547589,0.699656 5.10507,6.690163 5.367252,12.785362 C 27.817675,21.975334 22.046873,14.80702 22.046873,14.80702 Z m 0.147704,2.197088 c -0.04157,2.827334 -0.938883,8.197088 -6.149897,14.997812 -0.99139,1.29383 -1.314441,2.867802 -1.223844,4.530428 0.06876,-1.295986 0.430341,-2.512403 1.223844,-3.547975 5.8593,-7.646783 6.288201,-13.552083 6.149897,-15.980265 z m -2.192552,29.721223 c -0.03046,0.753893 0.01366,1.399839 0.09397,1.918855 0.249969,0.34494 0.406672,0.548794 0.406672,0.548794 0,0 -0.417448,-0.891379 -0.500662,-2.467649 z"
     id="path13" /></g>
</svg>
