<?xml version="1.0" encoding="UTF-8" standalone="no"?>
<svg
   width="62"
   height="62"
   version="1"
   id="svg6"
   sodipodi:docname="flashforge.svg"
   inkscape:version="1.4 (e7c3feb100, 2024-10-09)"
   xmlns:inkscape="http://www.inkscape.org/namespaces/inkscape"
   xmlns:sodipodi="http://sodipodi.sourceforge.net/DTD/sodipodi-0.dtd"
   xmlns:xlink="http://www.w3.org/1999/xlink"
   xmlns="http://www.w3.org/2000/svg"
   xmlns:svg="http://www.w3.org/2000/svg">
  <defs
     id="defs6">
    <linearGradient
       id="linearGradient8"
       inkscape:collect="always">
      <stop
         style="stop-color:#0267fc;stop-opacity:1;"
         offset="0"
         id="stop8" />
      <stop
         style="stop-color:#6d3fc0;stop-opacity:1;"
         offset="1"
         id="stop9" />
    </linearGradient>
    <linearGradient
       id="linearGradient6"
       inkscape:collect="always">
      <stop
         style="stop-color:#2d3d53;stop-opacity:1;"
         offset="0"
         id="stop6" />
      <stop
         style="stop-color:#435b7c;stop-opacity:1;"
         offset="1"
         id="stop7" />
    </linearGradient>
    <linearGradient
       inkscape:collect="always"
       xlink:href="#linearGradient6"
       id="linearGradient7"
       x1="28.936171"
       y1="59.006802"
       x2="29.544201"
       y2="5.1194048"
       gradientUnits="userSpaceOnUse" />
    <linearGradient
       inkscape:collect="always"
       xlink:href="#linearGradient8"
       id="linearGradient9"
       x1="37.847424"
       y1="59.006802"
       x2="39.402302"
       y2="7.392889"
       gradientUnits="userSpaceOnUse" />
  </defs>
  <sodipodi:namedview
     id="namedview6"
     pagecolor="#ffffff"
     bordercolor="#000000"
     borderopacity="0.25"
     inkscape:showpageshadow="2"
     inkscape:pageopacity="0.0"
     inkscape:pagecheckerboard="0"
     inkscape:deskcolor="#d1d1d1"
     inkscape:zoom="11.75"
     inkscape:cx="32"
     inkscape:cy="32.255319"
     inkscape:window-width="1920"
     inkscape:window-height="998"
     inkscape:window-x="0"
     inkscape:window-y="0"
     inkscape:window-maximized="1"
     inkscape:current-layer="svg6" />
  <g
     id="g6"
     transform="translate(-0.50876995,-0.9999999)">
    <path
       style="opacity:0.2;stroke-width:0.98246"
       d="m 41.516208,9.140545 13.34324,13.343245 c 5.544122,5.544124 5.544122,14.470748 0,20.01487 L 41.51621,55.84191 c -5.544122,5.54412 -14.470758,5.54412 -20.01487,0 L 8.158089,42.49866 c -5.5441182,-5.544122 -5.5441182,-14.470746 4e-7,-20.014868 L 21.50134,9.140546 c 5.544112,-5.5441188 14.470748,-5.5441188 20.014868,-1e-6 z"
       id="path1" />
    <path
       style="fill:url(#linearGradient7);stroke-width:0.98246;fill-opacity:1"
       d="M 39.70344,11.557028 51.460512,24.10719 c 5.360376,5.721962 5.223336,10.87181 -0.1133,16.615932 L 39.47684,53.499874 c -2.705726,2.912338 -4.452002,5.556262 -8.120244,5.516854 -3.5668,-0.0383 -7.122066,-1.424082 -9.855254,-4.157278 L 8.1580892,41.51621 c -5.544118,-5.54412 -5.544118,-14.470758 0,-20.01487 L 21.50134,8.1580894 c 2.790456,-2.7904556 6.437794,-4.1764244 10.079452,-4.1579048 3.593644,0.01827 5.460244,4.7148514 8.122648,7.5568434 z"
       id="path2" />
    <path
       style="opacity:0.2;stroke-width:0.98246"
       d="m 31.50877,4.982456 c 0,0 0.0161,8.272365 -0.02304,12.077303 -0.0046,0.425092 -0.221976,0.945903 -0.518094,1.251097 -1.971946,2.03644 -4.985322,4.60331 -6.96545,6.63158 -0.250704,0.257052 -0.350354,0.692544 -0.353076,1.047696 -0.03,4.31541 -0.0028,8.633062 0,12.948468 0,0.15713 -0.0191,0.314902 0,0.472038 0.07904,0.0536 0.10135,0.10761 0.18038,0.16118 4.239108,-4.239102 9.344894,-9.068578 13.574016,-13.297696 0,3.890316 0.02634,8.409994 0,12.3421 -0.0018,0.283382 -0.25545,0.623166 -0.464366,0.836622 -1.662222,1.696726 -3.18393,3.378524 -4.88158,5.038926 -0.396026,0.387852 -0.563026,0.778942 -0.560302,1.33936 0.0181,4.065834 0.0318,8.136758 0.03836,12.203956 3.608738,-0.007 7.216702,-1.391046 9.981906,-4.156258 L 54.861288,40.53509 c 2.520788,-2.520788 3.881694,-5.742876 4.110192,-9.02632 -0.228498,-3.283176 -1.593242,-6.501696 -4.11403,-9.022474 L 41.51754,9.142544 C 38.745478,6.3704844 35.12646,4.982456 31.50877,4.982456 Z"
       id="path3" />
    <path
       style="opacity:0.1;fill:#ffffff;stroke-width:0.98246"
       d="M 31.50877,4 C 27.89108,4 24.27206,5.3841899 21.5,8.1562498 L 8.1562498,21.5 C 5.3029984,24.353252 3.9495942,28.10242 4.0345392,31.825386 4.1912436,28.432355 5.5541475,25.084558 8.1562498,22.48246 L 21.5,9.1387058 C 24.27206,6.366646 27.89108,4.982456 31.50877,4.982456 c 3.61769,0 7.23671,1.3841902 10.00877,4.1562498 L 54.861291,22.48246 c 2.602098,2.6021 3.965011,5.949895 4.121713,9.342926 C 59.067962,28.102421 57.714544,24.353254 54.861291,21.5 L 41.51754,8.1562498 C 38.74548,5.3841902 35.12646,4 31.50877,4 Z"
       id="path4" />
    <path
       style="fill:url(#linearGradient9);stroke-width:0.98246"
       d="m 31.50877,3.9999998 c 0,0 0.0149,8.2704442 -0.02422,12.0753862 -0.0046,0.425092 -0.219672,0.946664 -0.51579,1.251858 -1.971948,2.036451 -4.985392,4.602394 -6.965522,6.630664 -0.250696,0.257052 -0.351882,0.695228 -0.354604,1.05038 -0.03,4.31541 -0.0028,8.633062 0,12.948468 0,0.15713 -0.0191,0.31299 0,0.470116 0.07904,0.05363 0.10365,0.10762 0.18268,0.16118 4.239108,-4.239102 9.343554,-9.069183 13.572676,-13.298302 0,3.890318 0.02634,8.412628 0,12.344732 -0.0018,0.283382 -0.255826,0.622024 -0.464742,0.83547 -1.662222,1.696735 -3.182154,3.379296 -4.879794,5.039698 -0.396026,0.387842 -0.564188,0.777408 -0.561464,1.337828 0.02086,4.698714 0.04292,9.404188 0.04568,14.102902 l 0.16924,0.05642 c 3.549184,-0.0513 7.082887,-1.428012 9.802684,-4.147808 L 54.858968,41.515627 c 5.544122,-5.544122 5.544122,-14.469594 0,-20.013706 L 41.515628,8.1585524 C 38.743566,5.3864928 35.12646,3.9999998 31.50877,3.9999998 Z"
       id="path5" />
    <path
       style="opacity:0.2;fill:#ffffff;stroke-width:0.98246"
       d="m 31.50877,4 c 0,0 0.0161,8.272367 -0.02304,12.077299 -0.0046,0.425092 -0.221975,0.945903 -0.518093,1.251097 -1.971946,2.036451 -4.985326,4.599474 -6.965454,6.627744 -0.250704,0.257052 -0.350353,0.69638 -0.353075,1.051532 -0.0023,0.327436 -8.3e-4,0.654959 0,0.98246 0.0028,-0.355151 0.102371,-0.79448 0.353075,-1.051532 1.980128,-2.028278 4.993508,-4.591303 6.965454,-6.627744 0.296118,-0.305194 0.513574,-0.826005 0.518093,-1.251097 0.03914,-3.804938 0.02304,-12.077303 0.02304,-12.077303 3.61769,0 7.236708,1.3880284 10.00877,4.160088 L 54.857455,22.48246 c 2.6021,2.602098 3.968051,5.950023 4.125549,9.342926 C 59.067573,28.102647 57.710709,24.353252 54.857455,21.5 L 41.51754,8.160088 C 38.745478,5.3880284 35.12646,4 31.50877,4 Z m 5.89474,33.633775 c -0.0018,0.283382 -0.25545,0.623166 -0.464366,0.836623 -1.662222,1.696726 -3.18393,3.378524 -4.88158,5.038923 -0.396026,0.387845 -0.563027,0.778946 -0.560303,1.339364 0.0015,0.311417 0.0027,0.622973 0.0039,0.934482 0.0076,-0.533345 0.172581,-0.915427 0.556466,-1.291393 1.697648,-1.660402 3.219358,-3.3422 4.88158,-5.038926 0.208923,-0.213456 0.462603,-0.553241 0.464373,-0.836623 -7.53e-4,-0.331605 -9.4e-4,-0.656961 0,-0.98245 z"
       id="path6" />
  </g>
</svg>
