<?xml version="1.0" encoding="UTF-8" standalone="no"?>
<svg
   width="62"
   height="62"
   version="1.1"
   id="svg5"
   sodipodi:docname="fluid.svg"
   inkscape:version="1.4 (e7c3feb100, 2024-10-09)"
   xmlns:inkscape="http://www.inkscape.org/namespaces/inkscape"
   xmlns:sodipodi="http://sodipodi.sourceforge.net/DTD/sodipodi-0.dtd"
   xmlns="http://www.w3.org/2000/svg"
   xmlns:svg="http://www.w3.org/2000/svg">
  <defs
     id="defs5" />
  <sodipodi:namedview
     id="namedview5"
     pagecolor="#ffffff"
     bordercolor="#000000"
     borderopacity="0.25"
     inkscape:showpageshadow="2"
     inkscape:pageopacity="0.0"
     inkscape:pagecheckerboard="0"
     inkscape:deskcolor="#d1d1d1"
     inkscape:zoom="8.2643105"
     inkscape:cx="39.023219"
     inkscape:cy="44.649823"
     inkscape:window-width="1920"
     inkscape:window-height="994"
     inkscape:window-x="0"
     inkscape:window-y="0"
     inkscape:window-maximized="1"
     inkscape:current-layer="svg5" />
  <rect
     style="opacity:0.2;stroke-width:0.9823"
     width="55"
     height="55.017544"
     x="4"
     y="4.9824562"
     rx="8.25"
     ry="8.2526312"
     id="rect1" />
  <rect
     style="fill:#212e3f;stroke-width:0.9823"
     width="55"
     height="55.017544"
     x="4"
     y="4"
     rx="8.25"
     ry="8.2526312"
     id="rect2" />
  <path
     style="opacity:0.1;fill:#ffffff;stroke-width:0.9823"
     d="M 12.248466,4 C 7.6779652,4 4,7.6791384 4,12.251097 v 0.982456 C 4,8.6615945 7.6779652,4.9824561 12.248466,4.9824561 H 50.751534 C 55.322034,4.9824561 59,8.6615945 59,13.233553 V 12.251097 C 59,7.6791384 55.322034,4 50.751534,4 Z"
     id="path4" />
  <g
     id="g1"
     transform="matrix(1.1111111,0,0,1.1111111,-32.666665,-71.953215)">
    <rect
       style="fill:#e4e4e4;stroke-width:2.25"
       width="9"
       height="18"
       x="53.25"
       y="76"
       ry="3.6000001"
       id="rect1-9" />
    <path
       style="fill:#e4e4e4;stroke-width:2.25"
       d="m 58.042866,88.605551 a 6.2220026,5.0296864 0 0 0 -5.680256,2.508766 l -4.764912,6.671142 -4.764911,6.671141 A 6.2220026,5.0296864 0 0 0 48.22129,112 h 9.528709 9.528707 a 6.2220026,5.0296864 0 0 0 5.388505,-7.5434 l -4.76491,-6.671142 -4.763799,-6.671142 a 6.2220026,5.0296864 0 0 0 -5.095636,-2.508765 z"
       id="path1" />
    <path
       style="fill:#578aff;stroke-width:2.25"
       d="m 58.874999,82.75 a 1.125,1.125 0 0 0 -1.125,1.125 1.125,1.125 0 0 0 1.125,1.125 1.125,1.125 0 0 0 1.125,-1.125 1.125,1.125 0 0 0 -1.125,-1.125 z"
       id="path2-3" />
    <path
       style="fill:#578aff;stroke-width:2.25"
       d="m 56.624999,87.25 a 1.125,1.125 0 0 0 -1.125,1.125 1.125,1.125 0 0 0 1.125,1.125 1.125,1.125 0 0 0 1.125,-1.125 1.125,1.125 0 0 0 -1.125,-1.125 z"
       id="path3-9" />
    <path
       style="fill:#578aff;stroke-width:2.25"
       d="m 58.874999,91.75 a 1.125,1.125 0 0 0 -1.125,1.125 1.125,1.125 0 0 0 1.125,1.125 1.125,1.125 0 0 0 1.125,-1.125 1.125,1.125 0 0 0 -1.125,-1.125 z"
       id="path4-0" />
    <path
       style="fill:#578aff;stroke-width:2.25"
       d="m 54.374999,96.25 a 1.125,1.125 0 0 0 -1.125,1.125 1.125,1.125 0 0 0 1.125,1.125 1.125,1.125 0 0 0 1.125,-1.125 1.125,1.125 0 0 0 -1.125,-1.125 z"
       id="path5-8" />
    <path
       style="fill:#578aff;stroke-width:2.25"
       d="m 50.923189,100.75 -1.697115,2.39777 A 3.5554851,2.9017422 0 0 0 52.30549,107.5 h 5.444509 5.444507 a 3.5554851,2.9017422 0 0 0 3.079418,-4.35223 L 64.576807,100.75 Z"
       id="path6" />
  </g>
</svg>
