<?xml version="1.0" encoding="UTF-8" standalone="no"?>
<svg
   width="62"
   height="62"
   version="1.1"
   id="svg5"
   sodipodi:docname="foot.svg"
   inkscape:version="1.4 (unknown)"
   xmlns:inkscape="http://www.inkscape.org/namespaces/inkscape"
   xmlns:sodipodi="http://sodipodi.sourceforge.net/DTD/sodipodi-0.dtd"
   xmlns:xlink="http://www.w3.org/1999/xlink"
   xmlns="http://www.w3.org/2000/svg"
   xmlns:svg="http://www.w3.org/2000/svg">
  <defs
     id="defs5">
    <linearGradient
       id="linearGradient1"
       inkscape:collect="always">
      <stop
         style="stop-color:#f6e390;stop-opacity:1;"
         offset="0"
         id="stop1" />
      <stop
         style="stop-color:#ffb380;stop-opacity:1"
         offset="1"
         id="stop3" />
    </linearGradient>
    <linearGradient
       id="linearGradient8"
       inkscape:collect="always">
      <stop
         style="stop-color:#2d3d53;stop-opacity:1;"
         offset="0"
         id="stop8" />
      <stop
         style="stop-color:#464157;stop-opacity:1;"
         offset="1"
         id="stop10" />
    </linearGradient>
    <linearGradient
       id="linearGradient4217">
      <stop
         style="stop-color:#000000;stop-opacity:1;"
         offset="0"
         id="stop2" />
      <stop
         style="stop-color:#000000;stop-opacity:0;"
         offset="1"
         id="stop4" />
    </linearGradient>
    <linearGradient
       id="linearGradient4161">
      <stop
         style="stop-color:#334545;stop-opacity:1;"
         offset="0"
         id="stop7" />
      <stop
         style="stop-color:#4d6868;stop-opacity:1"
         offset="1"
         id="stop9" />
    </linearGradient>
    <linearGradient
       id="a-1-2"
       y1="510.79999"
       y2="527.14001"
       gradientUnits="userSpaceOnUse"
       x2="0">
      <stop
         stop-color="#7cbaf8"
         id="stop2-2-7" />
      <stop
         offset="1"
         stop-color="#f4fcff"
         id="stop4-70-0" />
    </linearGradient>
    <linearGradient
       id="c"
       y1="503.79999"
       x1="400.57001"
       y2="519.79999"
       x2="416.57001"
       gradientUnits="userSpaceOnUse">
      <stop
         stop-color="#292c2f"
         id="stop12" />
      <stop
         offset="1"
         stop-opacity="0"
         id="stop14" />
    </linearGradient>
    <linearGradient
       id="b"
       y1="542.79999"
       x1="408.57001"
       y2="521.79999"
       x2="387.57001"
       gradientUnits="userSpaceOnUse"
       gradientTransform="translate(-384.57,-499.8)">
      <stop
         stop-color="#197cf1"
         id="stop7-8" />
      <stop
         offset="1"
         stop-color="#20bcfa"
         id="stop9-7" />
    </linearGradient>
    <linearGradient
       xlink:href="#linearGradient1389"
       id="linearGradient4503-5-6"
       y1="37"
       y2="4"
       x2="0"
       gradientUnits="userSpaceOnUse"
       gradientTransform="matrix(1.0218446,0,0,0.99999999,21.748946,8.2587777)" />
    <linearGradient
       id="linearGradient1389">
      <stop
         style="stop-color:#ffaaaa;stop-opacity:1"
         id="stop1385"
         offset="0" />
      <stop
         offset="1"
         style="stop-color:#ff5555;stop-opacity:1"
         id="stop1387" />
    </linearGradient>
    <linearGradient
       id="paint543_linear_890_11"
       x1="978.5"
       y1="298"
       x2="978.5"
       y2="304"
       gradientUnits="userSpaceOnUse"
       gradientTransform="matrix(0.75000004,0,0,0.75000004,-717.38333,-173.49123)">
      <stop
         offset="0.189495"
         stop-color="#EFF2F6"
         id="stop1829" />
      <stop
         offset="0.850463"
         stop-color="#B7C6CD"
         id="stop1830" />
    </linearGradient>
    <linearGradient
       inkscape:collect="always"
       xlink:href="#linearGradient8"
       id="linearGradient10"
       x1="31.5"
       y1="59.017544"
       x2="31.5"
       y2="19.018715"
       gradientUnits="userSpaceOnUse"
       gradientTransform="translate(-0.5,-1)" />
    <linearGradient
       id="linearGradient4144">
      <stop
         style="stop-color:#c83771;stop-opacity:1"
         offset="0"
         id="stop1141" />
      <stop
         style="stop-color:#de87aa;stop-opacity:1"
         offset="1"
         id="stop1143" />
    </linearGradient>
    <linearGradient
       id="c-0"
       gradientUnits="userSpaceOnUse"
       x1="10"
       x2="24"
       y1="10"
       y2="24"
       gradientTransform="translate(59.728813,26.237288)">
      <stop
         offset="0"
         stop-color="#292c2f"
         id="stop12-2" />
      <stop
         offset="1"
         stop-opacity="0"
         id="stop14-3" />
    </linearGradient>
    <linearGradient
       id="d"
       gradientUnits="userSpaceOnUse"
       x1="24"
       x2="24"
       y1="25"
       y2="7"
       gradientTransform="translate(59.728813,26.237288)">
      <stop
         offset="0"
         stop-color="#bb9d71"
         id="stop2-7" />
      <stop
         offset="1"
         stop-color="#f9f2e7"
         id="stop4-5" />
    </linearGradient>
    <linearGradient
       inkscape:collect="always"
       xlink:href="#linearGradient1"
       id="linearGradient3"
       x1="-23.090647"
       y1="11.233553"
       x2="-23.647169"
       y2="40.223366"
       gradientUnits="userSpaceOnUse" />
  </defs>
  <sodipodi:namedview
     id="namedview5"
     pagecolor="#ffffff"
     bordercolor="#000000"
     borderopacity="0.25"
     inkscape:showpageshadow="2"
     inkscape:pageopacity="0.0"
     inkscape:pagecheckerboard="0"
     inkscape:deskcolor="#d1d1d1"
     inkscape:zoom="8.2643105"
     inkscape:cx="25.289466"
     inkscape:cy="49.792418"
     inkscape:window-width="1920"
     inkscape:window-height="998"
     inkscape:window-x="0"
     inkscape:window-y="0"
     inkscape:window-maximized="1"
     inkscape:current-layer="svg5" />
  <rect
     style="opacity:0.2;stroke-width:0.9823"
     width="55"
     height="55.017544"
     x="3.5"
     y="3.9824562"
     rx="8.25"
     ry="8.2526312"
     id="rect1" />
  <rect
     style="fill:url(#linearGradient10);stroke-width:0.9823"
     width="55"
     height="55.017544"
     x="3.5"
     y="3"
     rx="8.25"
     ry="8.2526312"
     id="rect2" />
  <path
     style="opacity:0.1;fill:#ffffff;stroke-width:0.9823"
     d="M 11.748466,3 C 7.1779652,3 3.5,6.6791384 3.5,11.251097 v 0.982456 c 0,-4.5719585 3.6779652,-8.2510969 8.248466,-8.2510969 h 38.503068 c 4.5705,0 8.248466,3.6791384 8.248466,8.2510969 V 11.251097 C 58.5,6.6791384 54.822034,3 50.251534,3 Z"
     id="path4" />
  <g
     id="g1"
     transform="translate(68.003253,-3.6167764)">
    <path
       style="opacity:0.2;stroke-width:1.02352"
       d="m -38.075151,12.243681 a 2.0248082,2.329583 0 0 0 -2.027498,2.329997 2.0248082,2.329583 0 0 0 2.027498,2.329994 2.0248082,2.329583 0 0 0 2.021421,-2.329994 2.0248082,2.329583 0 0 0 -2.021421,-2.329997 z m 3.822067,1.552675 a 1.3287003,1.5530554 0 0 0 -1.267942,1.552671 1.3287003,1.5530554 0 0 0 1.328708,1.554645 1.3287003,1.5530554 0 0 0 1.330736,-1.554645 1.3287003,1.5530554 0 0 0 -1.330736,-1.552671 1.3287003,1.5530554 0 0 0 -0.0608,0 z m 2.949092,1.783502 a 1.0629598,1.1783046 0 0 0 -1.028939,1.177821 1.0629598,1.1783046 0 0 0 1.063369,1.177823 1.0629598,1.1783046 0 0 0 1.065403,-1.177823 1.0629598,1.1783046 0 0 0 -1.065403,-1.177821 1.0629598,1.1783046 0 0 0 -0.0344,0 z m 2.307013,1.840714 a 0.86326117,0.92484035 0 0 0 -0.81019,0.923319 0.86326117,0.92484035 0 0 0 0.862854,0.92529 0.86326117,0.92484035 0 0 0 0.862853,-0.92529 0.86326117,0.92484035 0 0 0 -0.862853,-0.923319 0.86326117,0.92484035 0 0 0 -0.05267,0 z m -9.149061,0.580035 c -1.313378,0.01697 -2.178682,0.321616 -3.015937,1.118636 -1.530685,1.456887 -1.218633,3.525934 0.789939,5.299213 4.354886,3.844616 4.877301,6.420989 0.710943,9.327877 -1.715293,1.196659 -2.956819,4.009443 -2.42247,5.482691 0.672963,1.855506 3.234743,2.566201 5.470807,1.519134 2.097552,-0.982059 4.474056,-4.341368 6.094646,-8.355236 0.13508,-0.334512 0.269025,-0.671129 0.392944,-1.014072 0.371939,-1.028784 0.686397,-2.090759 0.937797,-3.154668 0.759531,-3.213423 0.575424,-5.713614 -0.534726,-7.216875 -0.69283,-0.938233 -3.261981,-2.14317 -5.48701,-2.679197 -0.513511,-0.123698 -1.008783,-0.215777 -1.458343,-0.256479 -0.553414,-0.05009 -1.040807,-0.07669 -1.47859,-0.07103 z m 10.396753,1.489539 a 0.70826617,0.7765276 0 0 0 -0.682586,0.775354 0.70826617,0.7765276 0 0 0 0.706893,0.779293 0.70826617,0.7765276 0 0 0 0.708918,-0.779293 0.70826617,0.7765276 0 0 0 -0.708918,-0.775354 0.70826617,0.7765276 0 0 0 -0.02434,0 z m 0.05874,18.71297 v 3.030376 h 13.481552 v -3.030376 z"
       id="path2-3" />
    <path
       style="fill:url(#linearGradient3);stroke-width:1.02352"
       d="m -38.075151,11.233555 a 2.0248082,2.329583 0 0 0 -2.027498,2.329998 2.0248082,2.329583 0 0 0 2.027498,2.329994 2.0248082,2.329583 0 0 0 2.021421,-2.329994 2.0248082,2.329583 0 0 0 -2.021421,-2.329998 z m 3.822067,1.552675 a 1.3287003,1.5530554 0 0 0 -1.267942,1.552671 1.3287003,1.5530554 0 0 0 1.328708,1.554646 1.3287003,1.5530554 0 0 0 1.330736,-1.554646 1.3287003,1.5530554 0 0 0 -1.330736,-1.552671 1.3287003,1.5530554 0 0 0 -0.0608,0 z m 2.949092,1.783503 a 1.0629598,1.1783046 0 0 0 -1.028939,1.177821 1.0629598,1.1783046 0 0 0 1.063369,1.177822 1.0629598,1.1783046 0 0 0 1.065403,-1.177822 1.0629598,1.1783046 0 0 0 -1.065403,-1.177821 1.0629598,1.1783046 0 0 0 -0.0344,0 z m 2.307013,1.840714 a 0.86326117,0.92484035 0 0 0 -0.81019,0.923319 0.86326117,0.92484035 0 0 0 0.862854,0.925289 0.86326117,0.92484035 0 0 0 0.862853,-0.925289 0.86326117,0.92484035 0 0 0 -0.862853,-0.923319 0.86326117,0.92484035 0 0 0 -0.05267,0 z m -9.149061,0.580035 c -1.313378,0.01697 -2.178682,0.321617 -3.015937,1.118636 -1.530685,1.456888 -1.218633,3.525933 0.789939,5.299212 4.354886,3.844617 4.877301,6.42099 0.710943,9.327878 -1.715293,1.196657 -2.956819,4.009443 -2.42247,5.482691 0.672963,1.855505 3.234743,2.566202 5.470807,1.519133 2.097552,-0.982059 4.474056,-4.341366 6.094646,-8.355237 0.13508,-0.334511 0.269025,-0.671128 0.392944,-1.01407 0.371939,-1.028783 0.686397,-2.090759 0.937797,-3.15467 0.759531,-3.213421 0.575424,-5.713612 -0.534726,-7.216873 -0.69283,-0.938234 -3.261981,-2.143171 -5.48701,-2.6792 -0.513511,-0.123695 -1.008783,-0.215775 -1.458343,-0.256475 -0.553414,-0.05009 -1.040807,-0.07669 -1.47859,-0.07104 z m 10.396753,1.48954 a 0.70826617,0.7765276 0 0 0 -0.682586,0.77535 0.70826617,0.7765276 0 0 0 0.706893,0.779295 0.70826617,0.7765276 0 0 0 0.708918,-0.779295 0.70826617,0.7765276 0 0 0 -0.708918,-0.77535 0.70826617,0.7765276 0 0 0 -0.02434,0 z m 0.05874,18.71297 v 3.030375 h 13.481552 v -3.030375 z"
       id="path3" />
  </g>
</svg>
