<?xml version="1.0" encoding="UTF-8" standalone="no"?>
<svg
   width="62"
   height="62"
   version="1"
   id="svg4"
   sodipodi:docname="foxit-reader.svg"
   inkscape:version="1.4 (e7c3feb100, 2024-10-09)"
   xmlns:inkscape="http://www.inkscape.org/namespaces/inkscape"
   xmlns:sodipodi="http://sodipodi.sourceforge.net/DTD/sodipodi-0.dtd"
   xmlns="http://www.w3.org/2000/svg"
   xmlns:svg="http://www.w3.org/2000/svg">
  <defs
     id="defs4" />
  <sodipodi:namedview
     id="namedview4"
     pagecolor="#ffffff"
     bordercolor="#000000"
     borderopacity="0.25"
     inkscape:showpageshadow="2"
     inkscape:pageopacity="0.0"
     inkscape:pagecheckerboard="0"
     inkscape:deskcolor="#d1d1d1"
     inkscape:zoom="11.6875"
     inkscape:cx="31.957219"
     inkscape:cy="32"
     inkscape:window-width="1920"
     inkscape:window-height="994"
     inkscape:window-x="0"
     inkscape:window-y="0"
     inkscape:window-maximized="1"
     inkscape:current-layer="svg4" />
  <g
     id="g4"
     transform="translate(-0.5,-1)">
    <path
       style="opacity:0.2;stroke-width:0.982303"
       d="M 4.0498928,31.509175 C 4.0383046,31.83732 4,32.159555 4,32.49162 4,47.731259 16.264828,60 31.499604,60 46.73438,60 58.999208,47.731259 58.999208,32.49162 c 0,-0.331745 -0.03833,-0.6536 -0.04986,-0.982445 C 58.430776,46.28707 46.401669,58.035119 31.498842,58.035119 16.595635,58.035119 4.5669119,46.28707 4.0483479,31.509175 Z"
       id="path1" />
    <rect
       style="fill:#d38d5f;stroke-width:0.982303"
       width="54.999996"
       height="55.017548"
       x="4"
       y="4"
       rx="27.499998"
       ry="27.508774"
       id="rect1" />
    <path
       style="opacity:0.2;fill-rule:evenodd;stroke-width:0.982303"
       d="M 51.14021,26.534097 C 47.459199,10.967104 33.320466,11.097572 24.783805,15.161543 15.800083,19.704157 9.2944597,31.344127 12.84269,41.092115 c 5.48401,14.705196 25.670884,14.485129 32.502574,0.809528 2.027114,-5.014377 3.516017,-8.574745 -2.060513,-13.339595 v 5.894654 l -1.964254,-3.929773 c 0,0 -1.743359,4.12233 -3.595381,6.002533 -2.577099,2.615262 -6.226691,1.856813 -6.226691,1.856813 0.68886,2.604842 5.892773,3.929765 5.892773,3.929765 -13.508982,6.395704 -13.90419,-4.29347 -13.749802,-6.877093 0.443332,-7.435911 6.419778,-13.206767 14.293311,-12.792773 2.510322,0.192557 7.31293,1.986501 7.31293,1.986501 -1.807018,-4.13628 -4.380298,-5.120486 -5.892774,-5.894654 5.928911,-1.961072 9.093335,4.230198 11.785547,7.795086 z"
       id="path2" />
    <path
       style="fill:#ffffff;fill-rule:evenodd;stroke-width:0.982303"
       d="M 51.14021,25.551666 C 47.459199,9.9846722 33.320466,10.11514 24.783805,14.179111 15.800083,18.720945 9.2944597,30.361706 12.84269,40.109684 18.3267,54.81488 38.513574,54.594813 45.345264,40.919222 47.372378,35.904835 48.861281,32.344467 43.284751,27.579626 v 5.894644 l -1.964254,-3.929762 c 0,0 -1.743359,4.12233 -3.595381,6.002522 -2.577099,2.615262 -6.226691,1.856813 -6.226691,1.856813 0.68886,2.604852 5.892773,3.929773 5.892773,3.929773 -13.508982,6.395697 -13.90419,-4.293468 -13.749802,-6.8771 0.443332,-7.435902 6.419778,-13.206768 14.293311,-12.792764 2.510322,0.192558 7.31293,1.986491 7.31293,1.986491 -1.807118,-4.136279 -4.380298,-5.120485 -5.892774,-5.894654 5.928911,-1.961071 9.093335,4.230209 11.785547,7.795097 z"
       id="path3" />
    <path
       style="opacity:0.2;fill:#ffffff;stroke-width:0.982303"
       d="M 31.499994,4 C 16.265218,4 4,16.269132 4,31.50877 4,31.620334 4.011082,31.728874 4.017263,31.838818 4.3625246,16.903968 16.483962,4.982456 31.499994,4.982456 c 15.016032,0 27.137474,11.921512 27.482732,26.856362 C 58.989123,31.728874 59,31.620334 59,31.50877 58.999988,16.269132 46.73478,4 31.499994,4 Z"
       id="path4" />
  </g>
</svg>
