<?xml version="1.0" encoding="UTF-8" standalone="no"?>
<svg
   clip-rule="evenodd"
   fill-rule="evenodd"
   stroke-linejoin="round"
   stroke-miterlimit="2"
   viewBox="0 0 62 62"
   version="1.1"
   id="svg3"
   sodipodi:docname="freecad.svg"
   width="62"
   height="62"
   inkscape:version="1.4 (e7c3feb100, 2024-10-09)"
   xmlns:inkscape="http://www.inkscape.org/namespaces/inkscape"
   xmlns:sodipodi="http://sodipodi.sourceforge.net/DTD/sodipodi-0.dtd"
   xmlns:xlink="http://www.w3.org/1999/xlink"
   xmlns="http://www.w3.org/2000/svg"
   xmlns:svg="http://www.w3.org/2000/svg">
  <defs
     id="defs3">
    <linearGradient
       id="linearGradient1"
       inkscape:collect="always">
      <stop
         style="stop-color:#b42b6f;stop-opacity:1"
         offset="0"
         id="stop8" />
      <stop
         style="stop-color:#e25563;stop-opacity:1"
         offset="1"
         id="stop10" />
    </linearGradient>
    <linearGradient
       id="linearGradient6">
      <stop
         offset="0"
         style="stop-color:#dbdbdb;stop-opacity:0;"
         id="stop5" />
      <stop
         offset="1"
         style="stop-color:#000000;stop-opacity:1;"
         id="stop6" />
    </linearGradient>
    <linearGradient
       id="linearGradient3"
       inkscape:collect="always">
      <stop
         style="stop-color:#334c66;stop-opacity:1;"
         offset="0"
         id="stop3" />
      <stop
         style="stop-color:#2d3c53;stop-opacity:1;"
         offset="1"
         id="stop4" />
    </linearGradient>
    <filter
       id="b-3-36"
       width="1.2393739"
       height="1.1966286"
       x="-0.11968695"
       y="-0.098314282"
       color-interpolation-filters="sRGB">
      <feGaussianBlur
         stdDeviation="1.147"
         id="feGaussianBlur7-6" />
    </filter>
    <filter
       id="b-3-36-6"
       width="1.2393739"
       height="1.1966286"
       x="-0.11968695"
       y="-0.098314282"
       color-interpolation-filters="sRGB">
      <feGaussianBlur
         stdDeviation="1.147"
         id="feGaussianBlur7-6-7" />
    </filter>
    <linearGradient
       inkscape:collect="always"
       xlink:href="#linearGradient3"
       id="linearGradient4"
       x1="31.996025"
       y1="5.0983038"
       x2="32.182014"
       y2="58.017544"
       gradientUnits="userSpaceOnUse" />
    <linearGradient
       id="linearGradient4306">
      <stop
         offset="0"
         style="stop-color:#000000;stop-opacity:0;"
         id="stop12" />
      <stop
         offset="1"
         style="stop-color:#000000;stop-opacity:1;"
         id="stop14" />
    </linearGradient>
    <radialGradient
       xlink:href="#linearGradient4324"
       id="radialGradient4340-3"
       cx="-12"
       cy="12"
       fx="-12"
       fy="12"
       r="4"
       gradientUnits="userSpaceOnUse"
       gradientTransform="matrix(1.235291,0,0,1.235291,-1.3530054,1.3530246)" />
    <linearGradient
       id="linearGradient4324">
      <stop
         style="stop-color:#eff1f1;stop-opacity:1"
         offset="0"
         id="stop7" />
      <stop
         style="stop-color:#ececec;stop-opacity:1;"
         offset="1"
         id="stop9" />
    </linearGradient>
    <linearGradient
       id="linearGradient4167">
      <stop
         style="stop-color:#ffffff;stop-opacity:0"
         offset="0"
         id="stop2-3" />
      <stop
         style="stop-color:#ffffff;stop-opacity:1"
         offset="1"
         id="stop4-6" />
    </linearGradient>
    <radialGradient
       xlink:href="#linearGradient4324"
       id="radialGradient4188-1"
       gradientUnits="userSpaceOnUse"
       cx="-12"
       cy="12"
       fx="-12"
       fy="12"
       r="4"
       gradientTransform="matrix(1.235291,0,0,1.235291,-16.176495,16.176515)" />
    <radialGradient
       xlink:href="#linearGradient4324"
       id="radialGradient4202-2"
       gradientUnits="userSpaceOnUse"
       cx="-12"
       cy="12"
       fx="-12"
       fy="12"
       r="4"
       gradientTransform="matrix(1.235291,0,0,1.235291,-30.999989,31.000009)" />
    <linearGradient
       xlink:href="#linearGradient4816"
       id="linearGradient4503-0-3"
       y1="37"
       y2="4"
       x2="0"
       gradientUnits="userSpaceOnUse"
       gradientTransform="matrix(1.0499998,0,0,1.0499998,9.2502391,54.800003)" />
    <linearGradient
       id="linearGradient4816">
      <stop
         style="stop-color:#da4453"
         id="stop1439" />
      <stop
         offset="1"
         style="stop-color:#ff7336"
         id="stop1441" />
    </linearGradient>
    <linearGradient
       id="linearGradient4279">
      <stop
         id="stop1432" />
      <stop
         offset="1"
         style="stop-opacity:0"
         id="stop1434" />
    </linearGradient>
    <linearGradient
       id="c"
       y1="513.38"
       x1="399.98999"
       y2="537.38"
       x2="424.98999"
       gradientUnits="userSpaceOnUse"
       gradientTransform="translate(-464.04842,-560.44526)">
      <stop
         stop-color="#292c2f"
         id="stop12-3" />
      <stop
         offset="1"
         stop-opacity="0"
         id="stop14-6" />
    </linearGradient>
    <linearGradient
       id="b"
       y1="35"
       x1="42"
       y2="12"
       x2="22"
       gradientUnits="userSpaceOnUse"
       gradientTransform="translate(-75.064419,-59.059262)">
      <stop
         stop-color="#197cf1"
         id="stop7-7" />
      <stop
         offset="1"
         stop-color="#20bcfa"
         id="stop9-5" />
    </linearGradient>
    <linearGradient
       id="a-3"
       y1="35"
       x1="23"
       y2="13"
       x2="5"
       gradientUnits="userSpaceOnUse"
       gradientTransform="translate(-79.064419,-59.059262)">
      <stop
         stop-color="#c61423"
         id="stop2-5" />
      <stop
         offset="1"
         stop-color="#dc2b41"
         id="stop4-62" />
    </linearGradient>
    <linearGradient
       inkscape:collect="always"
       xlink:href="#linearGradient1"
       id="linearGradient10"
       x1="48.439907"
       y1="75"
       x2="48.572216"
       y2="40"
       gradientUnits="userSpaceOnUse" />
  </defs>
  <sodipodi:namedview
     id="namedview3"
     pagecolor="#ffffff"
     bordercolor="#000000"
     borderopacity="0.25"
     inkscape:showpageshadow="2"
     inkscape:pageopacity="0.0"
     inkscape:pagecheckerboard="0"
     inkscape:deskcolor="#d1d1d1"
     inkscape:zoom="11.019081"
     inkscape:cx="44.55907"
     inkscape:cy="36.028413"
     inkscape:window-width="1920"
     inkscape:window-height="998"
     inkscape:window-x="0"
     inkscape:window-y="0"
     inkscape:window-maximized="1"
     inkscape:current-layer="svg3" />
  <linearGradient
     id="a"
     x2="1"
     gradientTransform="matrix(0,-43.53155,43.53155,0,1192.407,51.589413)"
     gradientUnits="userSpaceOnUse">
    <stop
       stop-color="#161616"
       offset="0"
       id="stop1" />
    <stop
       stop-color="#343434"
       offset="1"
       id="stop2" />
  </linearGradient>
  <g
     id="g3"
     transform="translate(3.487626,-1.843205)" />
  <rect
     style="opacity:0.2;stroke-width:0.9823"
     width="55"
     height="55.017544"
     x="3.5"
     y="3.9824562"
     rx="8.25"
     ry="8.2526312"
     id="rect1-3" />
  <rect
     style="fill:url(#linearGradient4);stroke-width:0.9823"
     width="55"
     height="55.017544"
     x="3.5"
     y="3"
     rx="8.25"
     ry="8.2526312"
     id="rect2-5" />
  <path
     style="opacity:0.1;fill:#ffffff;stroke-width:0.9823"
     d="M 11.748466,3 C 7.1779651,3 3.4999999,6.6791384 3.4999999,11.251097 v 0.982456 c 0,-4.5719585 3.6779652,-8.2510968 8.2484661,-8.2510968 h 38.503068 c 4.5705,0 8.248466,3.6791383 8.248466,8.2510968 V 11.251097 C 58.5,6.6791384 54.822034,3 50.251534,3 Z"
     id="path4-6" />
  <g
     id="g1"
     transform="translate(-21,-26)">
    <path
       style="opacity:0.2"
       d="m 40,40 h 24 v 8 H 46.0008 v 8 h 10 v 6 h -9.9992 v 14 h -6 z"
       id="path2" />
    <path
       style="fill:url(#linearGradient10)"
       d="m 40,39 h 24 v 8 H 46.0008 v 8 h 10 v 6 h -9.9992 v 14 h -6 z"
       id="path3" />
  </g>
  <path
     style="opacity:0.2;stroke-width:0.775761"
     d="M 57.330977,44.2942 A 12.412122,12.412122 0 0 1 44.951437,56.048483 12.412122,12.412122 0 0 1 32.571899,44.530034 12.412122,12.412122 0 0 0 32.539315,45.187872 12.412122,12.412122 0 0 0 44.951437,57.599994 12.412122,12.412122 0 0 0 57.363553,45.187872 12.412122,12.412122 0 0 0 57.330225,44.29394 Z"
     id="path5" />
  <circle
     style="fill:#e25563;stroke-width:0.775761"
     cx="44.951439"
     cy="44.412117"
     r="12.412119"
     id="circle5" />
  <path
     style="fill:#ffffff;stroke-width:0.775761"
     d="m 43.399921,38.206056 -0.136848,1.634674 a 4.8762566,4.8762566 0 0 0 -1.425094,0.824256 l -1.485714,-0.699576 -1.551518,2.687386 1.348902,0.936798 a 4.8762566,4.8762566 0 0 0 -0.07448,0.822504 4.8762566,4.8762566 0 0 0 0.07087,0.825984 l -1.345456,0.933328 1.551513,2.687378 1.482255,-0.697842 a 4.8762566,4.8762566 0 0 0 1.42856,0.81905 l 0.136841,1.638086 h 3.103031 l 0.13685,-1.634672 a 4.8762566,4.8762566 0 0 0 1.425133,-0.824264 l 1.485698,0.699582 1.551515,-2.68738 -1.348917,-0.936802 a 4.8762566,4.8762566 0 0 0 0.07448,-0.822512 4.8762566,4.8762566 0 0 0 -0.07087,-0.825978 l 1.345454,-0.933328 -1.55151,-2.68738 -1.482259,0.69784 a 4.8762566,4.8762566 0 0 0 -1.428944,-0.8192 l -0.136535,-1.6384 h -3.103032 z m 1.551516,4.432986 a 1.7732266,1.7732266 0 0 1 1.773382,1.773382 1.7732266,1.7732266 0 0 1 -1.773382,1.773384 1.7732266,1.7732266 0 0 1 -1.773384,-1.773384 1.7732266,1.7732266 0 0 1 1.773384,-1.773382 z"
     id="path6" />
</svg>
