<?xml version="1.0" encoding="UTF-8" standalone="no"?>
<svg
   width="62"
   height="62"
   version="1"
   id="svg7"
   sodipodi:docname="freeoffice-presentations.svg"
   inkscape:version="1.4 (e7c3feb100, 2024-10-09)"
   xmlns:inkscape="http://www.inkscape.org/namespaces/inkscape"
   xmlns:sodipodi="http://sodipodi.sourceforge.net/DTD/sodipodi-0.dtd"
   xmlns:xlink="http://www.w3.org/1999/xlink"
   xmlns="http://www.w3.org/2000/svg"
   xmlns:svg="http://www.w3.org/2000/svg">
  <defs
     id="defs7">
    <linearGradient
       id="linearGradient10"
       inkscape:collect="always">
      <stop
         style="stop-color:#d28a5a;stop-opacity:1;"
         offset="0"
         id="stop10" />
      <stop
         style="stop-color:#d28a5a;stop-opacity:1;"
         offset="0.26429418"
         id="stop12" />
      <stop
         style="stop-color:#dba27c;stop-opacity:1;"
         offset="0.82689452"
         id="stop13" />
      <stop
         style="stop-color:#deaa87;stop-opacity:1;"
         offset="1"
         id="stop11" />
    </linearGradient>
    <linearGradient
       id="linearGradient2"
       inkscape:collect="always">
      <stop
         style="stop-color:#f4e3d7;stop-opacity:1;"
         offset="0"
         id="stop7" />
      <stop
         style="stop-color:#ff9955;stop-opacity:1"
         offset="1"
         id="stop8" />
    </linearGradient>
    <linearGradient
       id="linearGradient1"
       inkscape:collect="always">
      <stop
         style="stop-color:#eff2f6;stop-opacity:1;"
         offset="0"
         id="stop5" />
      <stop
         style="stop-color:#b7c6cd;stop-opacity:1;"
         offset="1"
         id="stop6" />
    </linearGradient>
    <linearGradient
       id="c-3"
       gradientUnits="userSpaceOnUse"
       x1="24.072048"
       x2="23.959682"
       y1="0.75082099"
       y2="46.056854">
      <stop
         offset="0"
         stop-color="#fff"
         id="stop3" />
      <stop
         offset="1"
         stop-color="#d9d9d9"
         id="stop4" />
    </linearGradient>
    <linearGradient
       id="b-6"
       gradientUnits="userSpaceOnUse"
       x1="29.203026"
       x2="34.121048"
       xlink:href="#a-7"
       y1="24.827356"
       y2="29.224836" />
    <linearGradient
       id="a-7">
      <stop
         offset="0"
         id="stop1" />
      <stop
         offset="1"
         stop-opacity="0"
         id="stop2" />
    </linearGradient>
    <linearGradient
       id="d"
       gradientUnits="userSpaceOnUse"
       x1="15.948756"
       x2="25.031786"
       xlink:href="#a-7"
       y1="23.618279"
       y2="33.69899" />
    <linearGradient
       id="e"
       gradientUnits="userSpaceOnUse"
       x1="21.990562"
       x2="29.320522"
       xlink:href="#a-7"
       y1="33.780373"
       y2="41.931858" />
    <linearGradient
       id="paint154_linear_890_11"
       x1="778"
       y1="812.29199"
       x2="788"
       y2="812.29199"
       gradientUnits="userSpaceOnUse"
       gradientTransform="translate(-751,-696)">
      <stop
         stop-color="#EFF2F6"
         id="stop1050" />
      <stop
         offset="0.600785"
         stop-color="#B7C6CD"
         id="stop1051" />
    </linearGradient>
    <linearGradient
       id="paint155_linear_890_11"
       x1="783"
       y1="813"
       x2="783"
       y2="817"
       gradientUnits="userSpaceOnUse"
       gradientTransform="translate(-751,-696)">
      <stop
         stop-color="#EFF2F6"
         id="stop1052" />
      <stop
         offset="0.734138"
         stop-color="#B7C6CD"
         id="stop1053" />
    </linearGradient>
    <radialGradient
       id="paint156_radial_890_11"
       cx="0"
       cy="0"
       r="1"
       gradientUnits="userSpaceOnUse"
       gradientTransform="matrix(27.999986,27.999976,-27.999986,27.999976,32.302392,33.999998)">
      <stop
         offset="0.60067803"
         stop-color="#B7C6CD"
         id="stop1054"
         style="stop-color:#384850;stop-opacity:1;" />
      <stop
         offset="0.876735"
         stop-color="#EFF2F6"
         id="stop1055" />
    </radialGradient>
    <linearGradient
       id="paint157_linear_890_11"
       x1="796.84485"
       y1="799.43359"
       x2="768.90088"
       y2="770.81476"
       gradientUnits="userSpaceOnUse"
       gradientTransform="matrix(1.1666666,0,0,1.1666668,-881.19764,-881.8333)">
      <stop
         offset="0.00000057"
         stop-color="#2E2E41"
         id="stop1056"
         style="stop-color:#424b58;stop-opacity:1;" />
      <stop
         offset="0.71113902"
         stop-color="#566C80"
         id="stop1057"
         style="stop-color:#303c47;stop-opacity:1;" />
    </linearGradient>
    <linearGradient
       id="paint158_linear_890_11"
       x1="792"
       y1="794"
       x2="774"
       y2="776"
       gradientUnits="userSpaceOnUse"
       gradientTransform="translate(-751,-696)">
      <stop
         offset="0.304478"
         stop-color="#2E2E41"
         id="stop1058" />
      <stop
         offset="1"
         stop-color="#566C80"
         id="stop1059" />
    </linearGradient>
    <linearGradient
       id="paint159_linear_890_11"
       x1="788"
       y1="790"
       x2="778"
       y2="780"
       gradientUnits="userSpaceOnUse"
       gradientTransform="translate(-751,-696)">
      <stop
         offset="0.391394"
         stop-color="#5200FF"
         id="stop1060" />
      <stop
         offset="1"
         stop-color="#0085FF"
         id="stop1061" />
    </linearGradient>
    <linearGradient
       id="paint160_linear_890_11"
       x1="784"
       y1="798"
       x2="782"
       y2="796"
       gradientUnits="userSpaceOnUse"
       gradientTransform="translate(-751,-696)">
      <stop
         stop-color="#FF7E07"
         id="stop1062" />
      <stop
         offset="1"
         stop-color="#FFE607"
         id="stop1063" />
    </linearGradient>
    <linearGradient
       id="c-3-6"
       gradientUnits="userSpaceOnUse"
       x1="24.072048"
       x2="23.959682"
       y1="0.75082099"
       y2="46.056854"
       gradientTransform="matrix(0.91471346,0,0,0.90068147,9.0468769,9.3836444)">
      <stop
         offset="0"
         stop-color="#fff"
         id="stop3-2" />
      <stop
         offset="1"
         stop-color="#d9d9d9"
         id="stop4-9" />
    </linearGradient>
    <linearGradient
       id="b-6-1"
       gradientUnits="userSpaceOnUse"
       x1="29.203026"
       x2="34.121048"
       xlink:href="#a-7"
       y1="24.827356"
       y2="29.224836"
       gradientTransform="matrix(1.1104534,0,0,1.0934187,4.3491158,4.7861435)" />
    <linearGradient
       id="d-0"
       gradientUnits="userSpaceOnUse"
       x1="15.948756"
       x2="25.031786"
       xlink:href="#a-7"
       y1="23.618279"
       y2="33.69899"
       gradientTransform="matrix(1.1104534,0,0,1.0934187,4.3491158,4.7861435)" />
    <linearGradient
       id="e-9"
       gradientUnits="userSpaceOnUse"
       x1="21.990562"
       x2="29.320522"
       xlink:href="#a-7"
       y1="33.780373"
       y2="41.931858"
       gradientTransform="matrix(1.1104534,0,0,1.0934187,4.3491158,4.7861435)" />
    <linearGradient
       id="paint539_linear_890_11"
       x1="1007"
       y1="317"
       x2="962.67902"
       y2="261.46533"
       gradientUnits="userSpaceOnUse"
       gradientTransform="translate(-952,-258)">
      <stop
         offset="0.223912"
         stop-color="#5200FF"
         id="stop1821"
         style="stop-color:#deaa87;stop-opacity:1" />
      <stop
         offset="0.902995"
         stop-color="#0085FF"
         id="stop1822"
         style="stop-color:#d38d5f;stop-opacity:1" />
    </linearGradient>
    <linearGradient
       id="paint540_linear_890_11"
       x1="974.5"
       y1="274"
       x2="974.5"
       y2="280"
       gradientUnits="userSpaceOnUse"
       gradientTransform="translate(-956.76287,-248.99466)">
      <stop
         offset="0.189495"
         stop-color="#EFF2F6"
         id="stop1823" />
      <stop
         offset="0.850463"
         stop-color="#B7C6CD"
         id="stop1824" />
    </linearGradient>
    <linearGradient
       id="paint541_linear_890_11"
       x1="983"
       y1="282"
       x2="983"
       y2="288"
       gradientUnits="userSpaceOnUse"
       gradientTransform="translate(-956.76287,-248.99466)">
      <stop
         offset="0.189495"
         stop-color="#EFF2F6"
         id="stop1825" />
      <stop
         offset="0.850463"
         stop-color="#B7C6CD"
         id="stop1826" />
    </linearGradient>
    <linearGradient
       id="paint542_linear_890_11"
       x1="983"
       y1="290"
       x2="983"
       y2="296"
       gradientUnits="userSpaceOnUse"
       gradientTransform="translate(-956.76287,-248.99466)">
      <stop
         offset="0.189495"
         stop-color="#EFF2F6"
         id="stop1827" />
      <stop
         offset="0.850463"
         stop-color="#B7C6CD"
         id="stop1828" />
    </linearGradient>
    <linearGradient
       id="paint543_linear_890_11"
       x1="978.5"
       y1="298"
       x2="978.5"
       y2="304"
       gradientUnits="userSpaceOnUse"
       gradientTransform="translate(-956.76287,-248.99466)">
      <stop
         offset="0.189495"
         stop-color="#EFF2F6"
         id="stop1829" />
      <stop
         offset="0.850463"
         stop-color="#B7C6CD"
         id="stop1830" />
    </linearGradient>
    <linearGradient
       id="paint544_linear_890_11"
       x1="993"
       y1="261"
       x2="1007"
       y2="275"
       gradientUnits="userSpaceOnUse"
       gradientTransform="translate(-952,-258)">
      <stop
         stop-color="#EFF2F6"
         id="stop1831" />
      <stop
         offset="1"
         stop-color="#B7C6CD"
         id="stop1832" />
    </linearGradient>
    <linearGradient
       id="paint545_linear_890_11"
       x1="1000.58"
       y1="267.41699"
       x2="994.75"
       y2="273.25"
       gradientUnits="userSpaceOnUse"
       gradientTransform="translate(-952,-258)">
      <stop
         stop-color="#5200FF"
         id="stop1833"
         style="stop-color:#d38d5f;stop-opacity:1" />
      <stop
         offset="1"
         stop-color="#0085FF"
         id="stop1834"
         style="stop-color:#f4e3d7;stop-opacity:1" />
    </linearGradient>
    <linearGradient
       inkscape:collect="always"
       xlink:href="#paint541_linear_890_11"
       id="linearGradient6"
       x1="5.2031999"
       y1="8.4664898"
       x2="11.7298"
       y2="8.4664898"
       gradientUnits="userSpaceOnUse" />
    <linearGradient
       inkscape:collect="always"
       xlink:href="#linearGradient1"
       id="linearGradient8"
       x1="24.032579"
       y1="44.449783"
       x2="24.167179"
       y2="12"
       gradientUnits="userSpaceOnUse" />
    <linearGradient
       inkscape:collect="always"
       xlink:href="#linearGradient2"
       id="linearGradient9"
       x1="42.931431"
       y1="15.410096"
       x2="48"
       y2="10"
       gradientUnits="userSpaceOnUse" />
    <linearGradient
       inkscape:collect="always"
       xlink:href="#linearGradient10"
       id="linearGradient11"
       x1="11.197443"
       y1="6.8944435"
       x2="54.380615"
       y2="55.656811"
       gradientUnits="userSpaceOnUse" />
  </defs>
  <sodipodi:namedview
     id="namedview7"
     pagecolor="#ffffff"
     bordercolor="#000000"
     borderopacity="0.25"
     inkscape:showpageshadow="2"
     inkscape:pageopacity="0.0"
     inkscape:pagecheckerboard="0"
     inkscape:deskcolor="#d1d1d1"
     inkscape:zoom="8.3306018"
     inkscape:cx="26.588715"
     inkscape:cy="33.250899"
     inkscape:window-width="1920"
     inkscape:window-height="994"
     inkscape:window-x="0"
     inkscape:window-y="0"
     inkscape:window-maximized="1"
     inkscape:current-layer="svg7" />
  <path
     d="M 7,9 C 7,5.686 9.686,3 13,3 h 34 c 4.42,0 8,3.582 8,8 v 42 c 0,3.314 -2.69,6 -6,6 H 13 C 9.686,59 7,56.314 7,53 Z"
     id="path526"
     style="fill:url(#linearGradient11);fill-opacity:1" />
  <path
     d="m 41,3 h 8 c 3.31,0 6,2.686 6,6 v 8 h -6 c -4.418,0 -8,-3.582 -8,-8 z"
     id="path531"
     style="fill:url(#paint544_linear_890_11)" />
  <path
     d="M 41,11 V 3 l 14,14 h -8 c -3.314,0 -6,-2.686 -6,-6 z"
     id="path532"
     style="fill:url(#linearGradient9)" />
  <path
     d="m 10.237128,36.005338 c 0,-1.105 0.895,-2 2,-2 h 28 c 1.105,0 2,0.895 2,2 0,1.105 -0.895,2 -2,2 h -28 c -1.105,0 -2,-0.895 -2,-2 z"
     id="path528"
     style="fill:url(#paint541_linear_890_11)" />
  <path
     d="m 10.237128,44.005338 c 0,-1.105 0.895,-2 2,-2 h 28 c 1.105,0 2,0.895 2,2 0,1.105 -0.895,2 -2,2 h -28 c -1.105,0 -2,-0.895 -2,-2 z"
     id="path529"
     style="fill:url(#paint542_linear_890_11)" />
  <path
     d="m 10.237128,52.005338 c 0,-1.105 0.895,-2 2,-2 h 19 c 1.105,0 2,0.895 2,2 0,1.105 -0.895,2 -2,2 h -19 c -1.105,0 -2,-0.895 -2,-2 z"
     id="path530"
     style="fill:url(#paint543_linear_890_11)" />
  <g
     transform="matrix(3.2481416,0,0,3.2481416,2.5772696,-10.025019)"
     fill="#ffffff"
     aria-label="T"
     id="g14"
     style="fill:url(#linearGradient6);fill-opacity:0.665699" />
  <g
     style="font-size:6.91563px;line-height:1.25;letter-spacing:0px;word-spacing:0px;opacity:0.2"
     transform="matrix(0.88470671,0,0,0.94837952,-2.6201342,-4.4861106)"
     id="g4">
    <path
       d="m 23.319502,31.585063 c 0.730291,0 1.327801,-0.05533 1.792532,-0.165975 0.48686,-0.13278 0.874135,-0.298755 1.161825,-0.497925 0.287691,-0.221301 0.486861,-0.475796 0.597511,-0.763486 0.11065,-0.28769 0.165975,-0.608575 0.165975,-0.962656 0,-0.75242 -0.35408,-1.37206 -1.062241,-1.858921 -0.70816,-0.50899 -2.23946,-1.051175 -3.965601,-1.626556 -0.752421,-0.26556 -1.504842,-0.564315 -2.257262,-0.896266 -0.752421,-0.35408 -1.427386,-0.785615 -2.024896,-1.294605 -0.597511,-0.531121 -1.084371,-1.161826 -1.460581,-1.892117 -0.376211,-0.752421 -0.564316,-1.659751 -0.564316,-2.721992 0,-1.062241 0.19917,-2.013831 0.597511,-2.854772 0.39834,-0.86307 0.962655,-1.59336 1.692946,-2.190871 0.73029,-0.597511 1.615491,-1.051176 2.655602,-1.360996 C 21.688617,12.165975 22.861508,12 24.167179,12 c 1.549101,0 3.202116,0.165975 4.330747,0.497925 1.128631,0.33195 2.058091,0.697095 2.788382,1.095436 l -1.493776,4.082988 c -0.641771,-0.331951 -1.360996,-0.619641 -2.157677,-0.863071 -0.77455,-0.26556 -2.029225,-0.39834 -3.135726,-0.39834 -1.239281,0 -2.135546,0.17704 -2.688796,0.53112 -0.531121,0.33195 -0.796681,0.852005 -0.796681,1.560166 0,0.420471 0.09959,0.774551 0.298755,1.062241 0.19917,0.28769 0.475795,0.55325 0.829876,0.79668 0.37621,0.221301 0.79668,0.431536 1.261411,0.630706 0.48686,0.17704 1.01798,0.365145 1.593361,0.564315 1.19502,0.442601 2.54928,0.885201 3.434481,1.327801 0.885201,0.420471 1.615491,0.918396 2.190871,1.493776 0.597511,0.575381 1.040111,1.250346 1.327801,2.024896 0.287691,0.774551 0.431536,1.715076 0.431536,2.821577 0,2.146612 -0.752421,3.817428 -2.257262,5.012449 -1.504841,1.172891 -3.773167,1.759336 -6.80498,1.759336 -1.017981,0 -1.936376,-0.06639 -2.755186,-0.19917 -0.818811,-0.11065 -1.549101,-0.254495 -2.190872,-0.431535 -0.619641,-0.177041 -1.161826,-0.365146 -1.626556,-0.564316 -0.4426,-0.19917 -0.81881,-0.387275 -1.128631,-0.564315 l 1.460581,-4.116183 c 0.686031,0.37621 1.526971,0.719225 2.522822,1.029046 1.017981,0.28769 2.257261,0.431535 3.717842,0.431535 z"
       id="path4" />
  </g>
  <g
     style="font-size:6.91563px;line-height:1.25;letter-spacing:0px;word-spacing:0px;fill:#ffffff"
     transform="matrix(0.93286142,0,0,0.99999996,-3.3722271,-5.1439995)"
     id="g5">
    <path
       style="fill:url(#linearGradient8)"
       d="m 23.319502,31.585063 c 0.730291,0 1.327801,-0.05533 1.792532,-0.165975 0.48686,-0.13278 0.874135,-0.298755 1.161825,-0.497925 0.287691,-0.221301 0.486861,-0.475796 0.597511,-0.763486 0.11065,-0.28769 0.165975,-0.608575 0.165975,-0.962656 0,-0.75242 -0.35408,-1.37206 -1.062241,-1.858921 -0.70816,-0.50899 -2.23946,-1.051175 -3.965601,-1.626556 -0.752421,-0.26556 -1.504842,-0.564315 -2.257262,-0.896266 -0.752421,-0.35408 -1.427386,-0.785615 -2.024896,-1.294605 -0.597511,-0.531121 -1.084371,-1.161826 -1.460581,-1.892117 -0.376211,-0.752421 -0.564316,-1.659751 -0.564316,-2.721992 0,-1.062241 0.19917,-2.013831 0.597511,-2.854772 0.39834,-0.86307 0.962655,-1.59336 1.692946,-2.190871 0.73029,-0.597511 1.615491,-1.051176 2.655602,-1.360996 C 21.688617,12.165975 22.861508,12 24.167179,12 c 1.549101,0 3.202116,0.165975 4.330747,0.497925 1.128631,0.33195 2.058091,0.697095 2.788382,1.095436 l -1.493776,4.082988 c -0.641771,-0.331951 -1.360996,-0.619641 -2.157677,-0.863071 -0.77455,-0.26556 -2.029225,-0.39834 -3.135726,-0.39834 -1.239281,0 -2.135546,0.17704 -2.688796,0.53112 -0.531121,0.33195 -0.796681,0.852005 -0.796681,1.560166 0,0.420471 0.09959,0.774551 0.298755,1.062241 0.19917,0.28769 0.475795,0.55325 0.829876,0.79668 0.37621,0.221301 0.79668,0.431536 1.261411,0.630706 0.48686,0.17704 1.01798,0.365145 1.593361,0.564315 1.19502,0.442601 2.54928,0.885201 3.434481,1.327801 0.885201,0.420471 1.615491,0.918396 2.190871,1.493776 0.597511,0.575381 1.040111,1.250346 1.327801,2.024896 0.287691,0.774551 0.431536,1.715076 0.431536,2.821577 0,2.146612 -0.752421,3.817428 -2.257262,5.012449 -1.504841,1.172891 -3.773167,1.759336 -6.80498,1.759336 -1.017981,0 -1.936376,-0.06639 -2.755186,-0.19917 -0.818811,-0.11065 -1.549101,-0.254495 -2.190872,-0.431535 -0.619641,-0.177041 -1.161826,-0.365146 -1.626556,-0.564316 -0.4426,-0.19917 -0.81881,-0.387275 -1.128631,-0.564315 l 1.460581,-4.116183 c 0.686031,0.37621 1.526971,0.719225 2.522822,1.029046 1.017981,0.28769 2.257261,0.431535 3.717842,0.431535 z"
       id="path5" />
  </g>
</svg>
