<?xml version="1.0" encoding="UTF-8" standalone="no"?>
<svg
   width="62"
   height="62"
   version="1.1"
   id="svg6"
   sodipodi:docname="fritzing.svg"
   inkscape:version="1.4 (unknown)"
   xmlns:inkscape="http://www.inkscape.org/namespaces/inkscape"
   xmlns:sodipodi="http://sodipodi.sourceforge.net/DTD/sodipodi-0.dtd"
   xmlns:xlink="http://www.w3.org/1999/xlink"
   xmlns="http://www.w3.org/2000/svg"
   xmlns:svg="http://www.w3.org/2000/svg">
  <defs
     id="defs6">
    <linearGradient
       id="linearGradient1"
       inkscape:collect="always">
      <stop
         style="stop-color:#2d3d53;stop-opacity:1;"
         offset="0"
         id="stop1" />
      <stop
         style="stop-color:#ff5555;stop-opacity:1"
         offset="1"
         id="stop2" />
    </linearGradient>
    <filter
       id="f"
       width="1.1201701"
       height="1.1201701"
       x="-0.060085025"
       y="-0.060085025"
       color-interpolation-filters="sRGB">
      <feGaussianBlur
         stdDeviation=".212"
         id="feGaussianBlur9" />
    </filter>
    <linearGradient
       xlink:href="#b"
       id="g"
       x1="4.9330001"
       x2="7.0489998"
       y1="10.655"
       y2="10.655"
       gradientUnits="userSpaceOnUse" />
    <linearGradient
       id="b">
      <stop
         offset="0"
         stop-color="#548fed"
         id="stop3" />
      <stop
         offset="1"
         stop-color="#5ebae3"
         id="stop4" />
    </linearGradient>
    <linearGradient
       xlink:href="#b"
       id="h"
       x1="9.1660004"
       x2="11.283"
       y1="10.655"
       y2="10.655"
       gradientUnits="userSpaceOnUse" />
    <linearGradient
       xlink:href="#a"
       id="i"
       x1="11.283"
       x2="13.399"
       y1="10.655"
       y2="10.655"
       gradientUnits="userSpaceOnUse" />
    <linearGradient
       id="a">
      <stop
         offset="0"
         stop-color="#8ae234"
         id="stop5" />
      <stop
         offset="1"
         stop-color="#47e767"
         id="stop6" />
    </linearGradient>
    <linearGradient
       xlink:href="#b"
       id="j"
       x1="7.0489998"
       x2="9.1660004"
       y1="8.5380001"
       y2="8.5380001"
       gradientUnits="userSpaceOnUse" />
    <linearGradient
       xlink:href="#c"
       id="k"
       x1="11.283"
       x2="13.399"
       y1="8.5380001"
       y2="8.5380001"
       gradientUnits="userSpaceOnUse" />
    <linearGradient
       id="c">
      <stop
         offset="0"
         stop-color="#ec4520"
         id="stop9" />
      <stop
         offset="1"
         stop-color="#f58517"
         id="stop10" />
    </linearGradient>
    <linearGradient
       xlink:href="#a"
       id="l"
       x1="7.0489998"
       x2="9.1660004"
       y1="6.4219999"
       y2="6.4219999"
       gradientUnits="userSpaceOnUse" />
    <linearGradient
       xlink:href="#b"
       id="m"
       x1="9.1660004"
       x2="11.283"
       y1="6.4219999"
       y2="6.4219999"
       gradientUnits="userSpaceOnUse" />
    <linearGradient
       xlink:href="#a"
       id="n"
       x1="4.9330001"
       x2="7.0489998"
       y1="4.3049998"
       y2="4.3049998"
       gradientUnits="userSpaceOnUse" />
    <linearGradient
       xlink:href="#c"
       id="o"
       x1="7.0489998"
       x2="9.1660004"
       y1="4.3049998"
       y2="4.3049998"
       gradientUnits="userSpaceOnUse" />
    <linearGradient
       xlink:href="#b"
       id="p"
       x1="11.283"
       x2="13.399"
       y1="4.3049998"
       y2="4.3049998"
       gradientUnits="userSpaceOnUse" />
    <linearGradient
       inkscape:collect="always"
       xlink:href="#linearGradient1"
       id="linearGradient2"
       x1="31"
       y1="59.5"
       x2="30.998047"
       y2="3.5"
       gradientUnits="userSpaceOnUse" />
  </defs>
  <sodipodi:namedview
     id="namedview6"
     pagecolor="#ffffff"
     bordercolor="#000000"
     borderopacity="0.25"
     inkscape:showpageshadow="2"
     inkscape:pageopacity="0.0"
     inkscape:pagecheckerboard="0"
     inkscape:deskcolor="#d1d1d1"
     inkscape:zoom="6.0546875"
     inkscape:cx="21.223226"
     inkscape:cy="47.31871"
     inkscape:window-width="1920"
     inkscape:window-height="998"
     inkscape:window-x="0"
     inkscape:window-y="0"
     inkscape:window-maximized="1"
     inkscape:current-layer="svg6" />
  <path
     style="opacity:0.2"
     d="M 3.043,30.328 A 28,28 0 0 0 3,31.5 28,28 0 0 0 31,59.5 28,28 0 0 0 59,31.5 28,28 0 0 0 58.958,30.672 28,28 0 0 1 31,57.5 28,28 0 0 1 3.044,30.328 Z"
     id="path1" />
  <path
     style="fill:url(#linearGradient2);fill-opacity:1"
     d="m 31,2.5 a 28,28 0 0 0 -28,28 28,28 0 0 0 28,28 28,28 0 0 0 28,-28 28,28 0 0 0 -28,-28 z"
     id="path2" />
  <path
     style="opacity:0.1;fill:#ffffff"
     d="M 30.998047,2.5 A 28,28 0 0 0 3,30.5 28,28 0 0 0 3.0214844,30.90625 28,28 0 0 1 30.998047,3.5 H 31 A 28,28 0 0 1 58.976562,31.085938 28,28 0 0 0 58.998047,30.5 28,28 0 0 0 31,2.5 Z"
     id="path3" />
  <path
     d="m 37.82636,11.005448 c -0.853318,-0.02117 -2.007173,0.01138 -3.20271,0.234346 -1.195537,0.223012 -2.494843,0.621405 -3.632374,1.546954 -1.137492,0.925624 -1.984122,2.499866 -1.984122,4.281533 v 5.984622 h -5.983542 a 1.9959501,1.9963102 0 1 0 0,3.992393 h 5.983542 v 4.156429 A 9.999023,10.000827 0 0 0 21,40.999209 a 9.999023,10.000827 0 0 0 9.999023,10.000822 9.999023,10.000827 0 0 0 9.999023,-10.000822 9.999023,10.000827 0 0 0 -7.99884,-9.78161 v -4.171925 h 5.983542 a 1.9959501,1.9963102 0 1 0 0,-3.992393 h -5.983542 v -5.984622 c 0,-0.720581 0.149172,-0.88798 0.507736,-1.179765 0.358615,-0.291804 1.052051,-0.577561 1.851331,-0.726629 1.598558,-0.298153 3.374613,-0.101297 3.374613,-0.101297 A 1.9959501,1.9963102 0 1 0 39.2328,11.099945 c 0,0 -0.552819,-0.07257 -1.406137,-0.09374 z m -7.248724,24.009166 a 5.9994137,6.0004961 0 0 1 0.05474,0 1.9959501,1.9963102 0 0 0 0.008,0 1.9959501,1.9963102 0 0 0 0.687385,0 5.9994137,6.0004961 0 0 1 5.671026,5.984621 5.9994137,6.0004961 0 0 1 -5.999036,6.000116 5.9994137,6.0004961 0 0 1 -5.999414,-6.000116 5.9994137,6.0004961 0 0 1 5.577308,-5.984621 z"
     fill="#ffffff"
     stroke-width="0.99992"
     id="path2-3" />
</svg>
