<?xml version="1.0" encoding="UTF-8" standalone="no"?>
<svg
   width="62"
   height="62"
   version="1"
   id="svg8"
   sodipodi:docname="gcr-smart-card.svg"
   inkscape:version="1.4 (e7c3feb100, 2024-10-09)"
   xmlns:inkscape="http://www.inkscape.org/namespaces/inkscape"
   xmlns:sodipodi="http://sodipodi.sourceforge.net/DTD/sodipodi-0.dtd"
   xmlns:xlink="http://www.w3.org/1999/xlink"
   xmlns="http://www.w3.org/2000/svg"
   xmlns:svg="http://www.w3.org/2000/svg">
  <defs
     id="defs8">
    <linearGradient
       id="linearGradient1"
       inkscape:collect="always">
      <stop
         style="stop-color:#ffffff;stop-opacity:1;"
         offset="0"
         id="stop1" />
      <stop
         style="stop-color:#ffffff;stop-opacity:1;"
         offset="1"
         id="stop2" />
    </linearGradient>
    <linearGradient
       id="linearGradient8"
       inkscape:collect="always">
      <stop
         style="stop-color:#2f8ef2;stop-opacity:1;"
         offset="0"
         id="stop8" />
      <stop
         style="stop-color:#d35f8d;stop-opacity:1"
         offset="1"
         id="stop9" />
    </linearGradient>
    <linearGradient
       inkscape:collect="always"
       xlink:href="#linearGradient8"
       id="linearGradient9"
       x1="1"
       y1="26"
       x2="61"
       y2="26"
       gradientUnits="userSpaceOnUse" />
    <linearGradient
       inkscape:collect="always"
       xlink:href="#linearGradient1"
       id="linearGradient2"
       x1="27"
       y1="39"
       x2="57"
       y2="39"
       gradientUnits="userSpaceOnUse" />
  </defs>
  <sodipodi:namedview
     id="namedview8"
     pagecolor="#ffffff"
     bordercolor="#000000"
     borderopacity="0.25"
     inkscape:showpageshadow="2"
     inkscape:pageopacity="0.0"
     inkscape:pagecheckerboard="0"
     inkscape:deskcolor="#d1d1d1"
     inkscape:zoom="8.2643105"
     inkscape:cx="47.372373"
     inkscape:cy="33.275613"
     inkscape:window-width="1920"
     inkscape:window-height="994"
     inkscape:window-x="0"
     inkscape:window-y="0"
     inkscape:window-maximized="1"
     inkscape:current-layer="svg8" />
  <g
     id="g8"
     transform="translate(0,4)">
    <rect
       style="opacity:0.2;stroke-width:2"
       width="60"
       height="40"
       x="1"
       y="8"
       rx="4"
       ry="4"
       id="rect1" />
    <rect
       style="fill:url(#linearGradient9);stroke-width:2"
       width="60"
       height="40"
       x="1"
       y="6"
       rx="4"
       ry="4"
       id="rect2" />
    <rect
       style="opacity:0.2;stroke-width:2"
       width="22"
       height="28"
       x="12"
       y="-33"
       rx="3.3980002"
       ry="3.2739997"
       transform="rotate(90)"
       id="rect3" />
    <rect
       style="fill:#edd400;stroke-width:2"
       width="22"
       height="28"
       x="10"
       y="-33"
       rx="3.3980002"
       ry="3.2739997"
       transform="rotate(90)"
       id="rect4" />
    <path
       style="fill:none;stroke:#6c5f1e;stroke-width:2;stroke-linecap:square"
       d="m 24,25 h 8.0001 M 5.9972602,25 H 14 M 6.0027398,16.99989 H 14 M 14,11 v 19.992 m 10,0.016 V 17.00011 h 7.9999"
       id="path4" />
    <path
       style="opacity:0.2;stroke-width:2"
       d="m 29.097656,37 c -0.62663,0 -1.133534,0.13224 -1.523438,0.398438 C 27.191278,37.664624 27,38.04204 27,38.53125 c 0,0.316548 0.06778,0.575902 0.207032,0.777344 0.13924,0.20144 0.340042,0.375646 0.597656,0.51953 0.257616,0.14388 0.567638,0.2858 0.929688,0.429688 0.369016,0.14388 0.648798,0.275518 0.843748,0.390626 0.201904,0.1151 0.34137,0.228642 0.41797,0.34375 0.0766,0.1151 0.11718,0.246732 0.11718,0.390624 0,0.259 -0.10362,0.466734 -0.3125,0.625 -0.20888,0.15108 -0.549136,0.226564 -1.015626,0.226564 -0.327242,0 -0.648474,-0.0471 -0.96875,-0.14062 -0.313316,-0.10072 -0.581884,-0.209112 -0.804688,-0.324218 v 0.86328 c 0.215842,0.11512 0.463686,0.204786 0.742188,0.269532 0.285474,0.06474 0.621824,0.09764 1.011726,0.09764 0.682334,0 1.22508,-0.14582 1.628908,-0.433594 C 30.79836,42.278636 31,41.858026 31,41.296876 31,40.987522 30.933077,40.728782 30.80078,40.527344 30.6685,40.318718 30.477214,40.143892 30.22656,40 29.975908,39.85612 29.6754,39.714814 29.32031,39.578124 c -0.355092,-0.1367 -0.643536,-0.25928 -0.859374,-0.367186 -0.208872,-0.1079 -0.3587,-0.2163 -0.44922,-0.32422 -0.09052,-0.10792 -0.13282,-0.244688 -0.13282,-0.410156 0,-0.215836 0.09412,-0.381612 0.289062,-0.503906 0.201916,-0.1295 0.491212,-0.19532 0.867188,-0.19532 0.271542,0 0.539262,0.03744 0.796876,0.10938 0.257616,0.07194 0.501554,0.1571 0.73828,0.257814 l 0.316406,-0.757814 C 30.629104,37.271602 30.350172,37.181308 30.050782,37.109376 29.758354,37.037443 29.438822,37 29.097656,37 Z m 6.07289,0 c -0.332898,0 -0.251228,0.07662 -0.549452,0.230468 -0.291288,0.14652 -0.521928,0.371996 -0.695312,0.679688 H 33.875 l -0.13672,-0.80078 H 33 V 43 h 0.914062 v -3.054688 c 0,-0.688644 0.10922,-1.215732 0.32422,-1.58203 0.214998,-0.366302 0.202528,-0.550782 0.764296,-0.550782 0.762894,0 1.14453,0.46413 1.144532,1.394532 V 43 h 0.906248 v -3.253906 c 2e-6,-0.630036 0.11488,-1.10783 0.343752,-1.4375 0.235802,-0.32967 0.623098,-0.496094 1.164062,-0.496094 0.755958,0 1.532578,0.46413 1.532578,1.394532 V 43 H 41 V 39.164062 C 41,38.409486 40.843344,37.859948 40.53125,37.515624 40.219156,37.171304 39.348542,37 38.717422,37 c -0.367578,0 -0.712222,0.081 -1.03125,0.242188 -0.319028,0.16116 -0.570558,0.409098 -0.757814,0.746094 h -0.05078 C 36.614031,37.328942 36.044407,37 35.170543,37 Z m 10.059922,0 c -0.319506,0 -0.626944,0.05144 -0.921874,0.15234 -0.29493,0.0937 -0.550576,0.20681 -0.765626,0.34375 l 0.25,0.714844 c 0.202764,-0.11532 0.418858,-0.218208 0.652344,-0.304688 0.233486,-0.0937 0.480218,-0.14062 0.738282,-0.14062 0.32565,0 0.579632,0.09388 0.757812,0.281252 0.17818,0.18738 0.265626,0.12258 0.265626,0.605468 V 39 l -0.839844,0.03126 c -0.804914,0.02882 -1.39806,0.202414 -1.785156,0.519532 C 43.19493,39.860692 43,40.704674 43,41.28125 c 0,0.59099 0.14648,1.027512 0.441406,1.308594 C 43.736336,42.863714 44.110056,43 44.558594,43 c 0.411674,0 0.736932,-0.07522 0.976562,-0.226562 0.23963,-0.15136 0.464634,-0.386008 0.679688,-0.703126 h 0.03906 l 0.15626,0.820312 H 47 V 38.546876 C 47,37.869398 46.8552,37.774754 46.566406,37.464844 46.27762,37.15494 45.832618,37 45.230468,37 Z m 6.964844,0 c -0.477104,0 -0.89608,0.11714 -1.253906,0.351562 -0.349308,0.234432 -0.630758,0.513592 -0.84375,0.835938 h -0.05078 l -0.125,-1.078124 H 49 V 43 h 1.125 v -3.144532 c 0,-0.395602 0.09062,-0.738208 0.269532,-1.03125 0.18744,-0.300356 0.431572,-0.530226 0.73828,-0.691406 0.30671,-0.1685 0.635068,-0.253906 0.984376,-0.253906 0.11076,0 0.234782,0.0088 0.371094,0.02344 0.13632,0.0146 0.260334,0.03272 0.371094,0.05468 L 53,37.066406 c -0.11928,-0.02198 -0.249706,-0.03564 -0.394532,-0.04296 -0.144828,-0.01472 -0.282356,-0.02345 -0.410156,-0.02345 z m 2.191406,0 -0.433594,1.421876 L 53,38.738282 v 0.375 h 0.941406 v 2.398436 c 0,0.38864 0.0918,0.691004 0.273438,0.90625 0.18162,0.215252 0.414166,0.367352 0.703124,0.457032 0.29721,0.0837 0.622002,0.125 0.96875,0.125 0.19814,0 0.402534,-0.013 0.617188,-0.04296 C 56.718556,42.93312 56.88442,42.89734 57,42.85548 v -0.601562 c -0.10732,0.0299 -0.248494,0.05622 -0.421876,0.07422 -0.17336,0.0178 -0.342692,0.02734 -0.507812,0.02734 -0.305468,0 -0.555766,-0.06952 -0.753906,-0.20703 -0.18988,-0.1435 -0.285156,-0.363276 -0.285156,-0.65625 v -2.378906 h 1.917968 V 38.503903 H 55.03125 v -1.503906 z m -8.1875,2.660156 v 0.519532 c 0,0.562162 -0.14314,1.378472 -0.42578,1.652344 -0.276496,0.266662 -0.619576,0.398436 -1.03125,0.398436 -0.264208,0 -0.48421,-0.0752 -0.65625,-0.226562 -0.1659,-0.15136 -0.246094,-0.386612 -0.246094,-0.710938 0,-0.367566 0.11418,-1.052104 0.347656,-1.253906 0.23963,-0.201788 0.666812,-0.318816 1.28125,-0.347656 z"
       id="path5" />
    <path
       style="fill:#ffffff;stroke-width:0.6;stroke:url(#linearGradient2);stroke-dasharray:none"
       d="m 29.097656,36 c -0.62663,0 -1.133534,0.13224 -1.523438,0.398438 C 27.191278,36.664624 27,37.04204 27,37.53125 c 0,0.316548 0.06778,0.575902 0.207032,0.777344 0.13924,0.20144 0.340042,0.375646 0.597656,0.51953 0.257616,0.14388 0.567638,0.2858 0.929688,0.429688 0.369016,0.14388 0.648798,0.275518 0.843748,0.390626 0.201904,0.1151 0.34137,0.228642 0.41797,0.34375 0.0766,0.1151 0.11718,0.246732 0.11718,0.390624 0,0.259 -0.10362,0.466734 -0.3125,0.625 -0.20888,0.15108 -0.549136,0.226564 -1.015626,0.226564 -0.327242,0 -0.648474,-0.0471 -0.96875,-0.14062 -0.313316,-0.10072 -0.581884,-0.209112 -0.804688,-0.324218 v 0.86328 c 0.215842,0.11512 0.463686,0.204786 0.742188,0.269532 C 28.039372,41.96709 28.375722,42 28.765624,42 c 0.682334,0 1.22508,-0.14582 1.628908,-0.433594 C 30.79836,41.278636 31,40.858026 31,40.296876 31,39.987522 30.93308,39.728782 30.80078,39.527344 30.6685,39.318718 30.477214,39.143892 30.22656,39 29.975908,38.85612 29.6754,38.714814 29.32031,38.578124 c -0.355092,-0.1367 -0.643536,-0.25928 -0.859374,-0.367186 -0.208872,-0.1079 -0.3587,-0.2163 -0.44922,-0.32422 -0.09052,-0.10792 -0.13282,-0.244688 -0.13282,-0.410156 0,-0.215836 0.09412,-0.381612 0.289062,-0.503906 0.201916,-0.1295 0.491212,-0.19532 0.867188,-0.19532 0.271542,0 0.539262,0.03744 0.796876,0.10938 0.257616,0.07194 0.501554,0.1571 0.73828,0.257814 l 0.316406,-0.757814 C 30.629104,36.271602 30.350172,36.181308 30.050782,36.109376 29.758354,36.037442 29.438822,36 29.097656,36 Z m 6.07289,0 c -0.332898,0 -0.251228,0.07662 -0.549452,0.230468 -0.291288,0.14652 -0.521928,0.371996 -0.695312,0.679688 H 33.875 l -0.13672,-0.80078 H 33 V 42 h 0.914062 v -3.054688 c 0,-0.688644 0.10922,-1.215732 0.32422,-1.58203 0.214998,-0.366302 0.202528,-0.550782 0.764296,-0.550782 0.762894,0 1.14453,0.46413 1.144532,1.394532 V 42 h 0.906248 v -3.253906 c 2e-6,-0.630036 0.11488,-1.10783 0.343752,-1.4375 0.235802,-0.32967 0.623098,-0.496094 1.164062,-0.496094 0.755958,0 1.532578,0.46413 1.532578,1.394532 V 42 H 41 V 38.164062 C 41,37.409486 40.843344,36.859948 40.53125,36.515624 40.219156,36.171304 39.348542,36 38.717422,36 c -0.367578,0 -0.712222,0.081 -1.03125,0.242188 -0.319028,0.16116 -0.570558,0.409098 -0.757814,0.746094 h -0.05078 C 36.614034,36.328942 36.04441,36 35.170546,36 Z m 10.059922,0 c -0.319506,0 -0.626944,0.05144 -0.921874,0.15234 -0.29493,0.0937 -0.550576,0.20681 -0.765626,0.34375 l 0.25,0.714844 c 0.202764,-0.11532 0.418858,-0.218208 0.652344,-0.304688 0.233486,-0.0937 0.480218,-0.14062 0.738282,-0.14062 0.32565,0 0.579632,0.09388 0.757812,0.281252 0.17818,0.18738 0.265626,0.12258 0.265626,0.605468 V 38 l -0.839844,0.03126 c -0.804914,0.02882 -1.39806,0.202414 -1.785156,0.519532 C 43.19493,38.860692 43,39.704674 43,40.28125 c 0,0.59099 0.14648,1.027512 0.441406,1.308594 C 43.736336,41.863714 44.110056,42 44.558594,42 c 0.411674,0 0.736932,-0.07522 0.976562,-0.226562 0.23963,-0.15136 0.464634,-0.386008 0.679688,-0.703126 h 0.03906 l 0.15626,0.820312 H 47 V 37.546876 C 47,36.869398 46.8552,36.774754 46.566406,36.464844 46.27762,36.15494 45.832618,36 45.230468,36 Z m 6.964844,0 c -0.477104,0 -0.89608,0.11714 -1.253906,0.351562 -0.349308,0.234432 -0.630758,0.513592 -0.84375,0.835938 h -0.05078 l -0.125,-1.078124 H 49 V 42 h 1.125 v -3.144532 c 0,-0.395602 0.09062,-0.738208 0.269532,-1.03125 0.18744,-0.300356 0.431572,-0.530226 0.73828,-0.691406 0.30671,-0.1685 0.635068,-0.253906 0.984376,-0.253906 0.11076,0 0.234782,0.0088 0.371094,0.02344 0.13632,0.0146 0.260334,0.03272 0.371094,0.05468 L 53,36.066406 c -0.11928,-0.02198 -0.249706,-0.03564 -0.394532,-0.04296 C 52.46064,36.00873 52.323112,36 52.195312,36 Z m 2.191406,0 -0.433594,1.421876 L 53,37.738282 v 0.375 h 0.941406 v 2.398436 c 0,0.38864 0.0918,0.691004 0.273438,0.90625 0.18162,0.215252 0.414166,0.367352 0.703124,0.457032 0.29721,0.0837 0.622002,0.125 0.96875,0.125 0.19814,0 0.402534,-0.013 0.617188,-0.04296 C 56.718556,41.93312 56.88442,41.89734 57,41.85548 v -0.601562 c -0.10732,0.0299 -0.248494,0.05622 -0.421876,0.07422 -0.17336,0.0178 -0.342692,0.02734 -0.507812,0.02734 -0.305468,0 -0.555766,-0.06952 -0.753906,-0.20703 -0.18988,-0.143499 -0.285156,-0.363276 -0.285156,-0.65625 V 38.11329 h 1.917968 V 37.503904 H 55.03125 V 36 Z m -8.1875,2.660156 v 0.519532 c 0,0.562162 -0.14314,1.378472 -0.42578,1.652344 -0.276496,0.266662 -0.619576,0.398436 -1.03125,0.398436 -0.264208,0 -0.48421,-0.0752 -0.65625,-0.226562 -0.1659,-0.15136 -0.246094,-0.386612 -0.246094,-0.710938 0,-0.367566 0.11418,-1.052104 0.347656,-1.253906 0.23963,-0.201788 0.666812,-0.318816 1.28125,-0.347656 z"
       id="path6" />
    <path
       style="opacity:0.2;fill:#ffffff;stroke-width:2"
       d="M 5,6 C 2.784,6 1,7.784 1,9.9999998 V 12 C 1,9.7839998 2.784,8 5,8 h 52 c 2.216,0 4,1.7839998 4,4 V 9.9999998 C 61,7.784 59.216,6 57,6 Z"
       id="path7" />
    <path
       style="opacity:0.2;fill:#ffffff;fill-rule:evenodd;stroke-width:2"
       d="M 8.2734377,9.9999998 C 6.4591118,9.9999998 5,11.516127 5,13.398437 v 2.000001 C 5,13.516127 6.4591118,12 8.2734377,12 H 29.726562 C 31.540888,12 33,13.516126 33,15.398438 v -2.000001 c 0,-1.88231 -1.459112,-3.3984372 -3.273438,-3.3984372 z"
       id="path8" />
  </g>
</svg>
