<?xml version="1.0" encoding="UTF-8" standalone="no"?>
<svg
   width="62"
   height="62"
   version="1.1"
   viewBox="0 0 62 62"
   id="svg2"
   sodipodi:docname="GDevelop.svg"
   inkscape:version="1.4 (unknown)"
   xmlns:inkscape="http://www.inkscape.org/namespaces/inkscape"
   xmlns:sodipodi="http://sodipodi.sourceforge.net/DTD/sodipodi-0.dtd"
   xmlns="http://www.w3.org/2000/svg"
   xmlns:svg="http://www.w3.org/2000/svg">
  <defs
     id="defs2" />
  <sodipodi:namedview
     id="namedview2"
     pagecolor="#ffffff"
     bordercolor="#000000"
     borderopacity="0.25"
     inkscape:showpageshadow="2"
     inkscape:pageopacity="0.0"
     inkscape:pagecheckerboard="0"
     inkscape:deskcolor="#d1d1d1"
     inkscape:zoom="8.5626212"
     inkscape:cx="32.4083"
     inkscape:cy="34.860821"
     inkscape:window-width="1920"
     inkscape:window-height="998"
     inkscape:window-x="0"
     inkscape:window-y="0"
     inkscape:window-maximized="1"
     inkscape:current-layer="svg2" />
  <g
     id="g2"
     transform="matrix(1,0,0,1.0129938,-0.99997,-1.4156497)">
    <path
       d="m 4.1094,30.299 c 1.1553,14.241 11.884,25.393 32.197,25.393 12.922,0 19.384,-4.3082 23.691,-10.77 h -8.8301 c -3.2307,2.1537 -6.2463,4.3086 -14.861,4.3086 -13.957,0 -24.215,-8.2669 -25.662,-18.932 H 4.1091 Z m 13.213,0 c 1.3385,7.5255 6.4058,12.471 18.984,12.471 4.3074,0 7.9668,-1.0781 7.9668,-1.0781 l 3.4941,-11.393 h -8.4512 l -1.6074,5.8984 c 0,0 -0.41613,0.11133 -1.4004,0.11133 -7.2653,0 -10.899,-1.9611 -12.264,-6.0098 h -6.7227 z"
       fill="#377fc9"
       stroke-width="1.8347"
       id="path1" />
    <path
       d="m 36.307,8.3086 c -15.076,0 -19.383,7.0884 -19.383,17.23 0,1.68 0.1327,3.2657 0.39844,4.7598 h 6.7227 c -0.45572,-1.3522 -0.6582,-2.9366 -0.6582,-4.7598 0,-7.2818 3.2301,-10.77 12.922,-10.77 h 23.691 l -2.1543,-6.4609 h -21.537 -0.002 z M 4,21.2306 v 6.4629 c 0,0.87952 0.039703,1.7467 0.10938,2.6055 h 6.5352 c -0.116,-0.85502 -0.18359,-1.7226 -0.18359,-2.6055 v -6.4609 l -6.4609,-0.002 z m 29.076,0 c -1.7898,0 -3.2305,1.4426 -3.2305,3.2324 0,1.7898 1.4407,3.2305 3.2305,3.2305 h 6.9492 l -0.70898,2.6055 h 8.4512 l 1.4609,-4.7598 c 1.0123,-3.2974 1.537,-4.3086 -2.1523,-4.3086 h -14 z"
       fill="#5397d8"
       stroke-width="1.8347"
       id="path2"
       style="fill:#aa87de" />
  </g>
</svg>
