<?xml version="1.0" encoding="UTF-8" standalone="no"?>
<svg
   width="62"
   height="62"
   version="1"
   id="svg5"
   sodipodi:docname="gdlauncher.svg"
   inkscape:version="1.4 (e7c3feb100, 2024-10-09)"
   xmlns:inkscape="http://www.inkscape.org/namespaces/inkscape"
   xmlns:sodipodi="http://sodipodi.sourceforge.net/DTD/sodipodi-0.dtd"
   xmlns:xlink="http://www.w3.org/1999/xlink"
   xmlns="http://www.w3.org/2000/svg"
   xmlns:svg="http://www.w3.org/2000/svg">
  <defs
     id="defs5">
    <linearGradient
       id="linearGradient5"
       inkscape:collect="always">
      <stop
         style="stop-color:#032354;stop-opacity:1;"
         offset="0"
         id="stop5" />
      <stop
         style="stop-color:#5a9cfe;stop-opacity:1"
         offset="1"
         id="stop6" />
    </linearGradient>
    <linearGradient
       inkscape:collect="always"
       xlink:href="#linearGradient5"
       id="linearGradient6"
       x1="32.898438"
       y1="59.935772"
       x2="32.149197"
       y2="5.0027304"
       gradientUnits="userSpaceOnUse" />
  </defs>
  <sodipodi:namedview
     id="namedview5"
     pagecolor="#ffffff"
     bordercolor="#000000"
     borderopacity="0.25"
     inkscape:showpageshadow="2"
     inkscape:pageopacity="0.0"
     inkscape:pagecheckerboard="0"
     inkscape:deskcolor="#d1d1d1"
     inkscape:zoom="12.109375"
     inkscape:cx="32"
     inkscape:cy="32"
     inkscape:window-width="1920"
     inkscape:window-height="998"
     inkscape:window-x="0"
     inkscape:window-y="0"
     inkscape:window-maximized="1"
     inkscape:current-layer="svg5" />
  <g
     id="g5"
     transform="matrix(0.99,0,0,0.98245614,-0.68,-0.92982446)">
    <path
       style="opacity:0.2"
       d="m 32.149197,5.0000004 v 0.00273 A 6.3412167,6.3670382 0 0 0 28.828885,5.8503881 L 10.171115,16.667537 A 6.3412167,6.3670382 0 0 0 7,22.182755 v 21.634298 a 6.3412167,6.3670382 0 0 0 3.171115,5.512481 l 18.65777,10.817151 a 6.3412167,6.3670382 0 0 0 6.342229,0 L 53.828885,49.329534 A 6.3412167,6.3670382 0 0 0 57,43.817053 V 22.182755 A 6.3412167,6.3670382 0 0 0 53.828885,16.667537 L 35.171114,5.8503881 A 6.3412167,6.3670382 0 0 0 32.149197,5.0000004 Z"
       id="path1" />
    <path
       style="fill:url(#linearGradient6)"
       d="m 32.149197,4.0000002 v 0.00273 A 6.3412167,6.3670382 0 0 0 28.828885,4.8503879 L 10.171115,15.667537 A 6.3412167,6.3670382 0 0 0 7,21.182755 v 21.634298 a 6.3412167,6.3670382 0 0 0 3.171115,5.512481 l 18.65777,10.817151 a 6.3412167,6.3670382 0 0 0 6.342229,0 L 53.828885,48.329534 A 6.3412167,6.3670382 0 0 0 57,42.817053 V 21.182755 A 6.3412167,6.3670382 0 0 0 53.828885,15.667537 L 35.171114,4.8503879 A 6.3412167,6.3670382 0 0 0 32.149197,4.0000002 Z"
       id="path2" />
    <path
       style="opacity:0.2"
       d="m 22.525391,21.003906 c -0.398998,0.0087 -0.785802,0.03435 -1.017579,0.06836 -1.111422,0.163344 -2.04889,0.500628 -2.83789,1.021484 -1.472215,0.971879 -2.330171,2.488923 -2.613281,4.619141 -0.07478,0.562802 -0.07496,1.711881 0,2.25 0.339997,2.442406 1.66116,4.567804 3.943359,6.345703 0.949744,0.739862 2.100535,1.434405 3.167969,1.910156 0.67323,0.300067 0.685879,0.304989 0.722656,0.398438 0.01876,0.04773 0.03853,0.552053 0.04687,1.1875 0.01047,0.774104 0.02868,1.189337 0.0625,1.390624 0.21876,1.298083 0.59456,2.263069 1.271484,3.263672 1.133201,1.675054 2.835564,2.852424 4.816407,3.330078 0.207888,0.05006 0.540837,0.113991 0.738281,0.140626 0.197442,0.02665 0.402215,0.05142 0.455078,0.05859 0.234819,0.03207 1.618524,-0.0089 1.923828,-0.05664 2.299375,-0.364719 4.251304,-1.595115 5.521484,-3.472657 0.676928,-1.000603 1.056632,-1.96559 1.275391,-3.263672 0.03397,-0.201286 0.05042,-0.61652 0.06055,-1.390624 0.0091,-0.635447 0.03202,-1.139728 0.05078,-1.1875 0.0368,-0.09341 0.05136,-0.09835 0.72461,-0.398438 0.792352,-0.353151 1.773721,-0.909561 2.511718,-1.423828 2.207469,-1.538283 3.658623,-3.390685 4.300782,-5.484375 0.255656,-0.833558 0.350397,-1.499333 0.349609,-2.464844 -0.0029,-3.839161 -1.966302,-6.253239 -5.505859,-6.773437 -0.463557,-0.06807 -1.549493,-0.09495 -2.101563,-0.04883 -2.816275,0.235327 -5.692431,1.469673 -7.917969,3.394531 -0.298662,0.258313 -0.396584,0.324219 -0.472656,0.324219 -0.07611,0 -0.175948,-0.06585 -0.474609,-0.324219 -2.225536,-1.924858 -5.101693,-3.159205 -7.917969,-3.394531 -0.276034,-0.02307 -0.684986,-0.02816 -1.083984,-0.01953 z m 16.238281,6.984375 c 0.12279,-0.0047 0.25743,2.73e-4 0.396484,0.01758 0.278107,0.03462 0.575295,0.11325 0.839844,0.222657 0.404139,0.167192 0.793745,0.46942 0.923828,0.716796 0.07791,0.148234 0.08274,0.378159 0.01367,0.507813 -0.151789,0.284535 -0.489293,0.472478 -1.339844,0.740234 -0.966319,0.30421 -1.474325,0.531234 -2.146484,0.966797 -0.398821,0.25843 -0.810539,0.598281 -1.177734,0.964844 -0.247032,0.246602 -0.28329,0.267578 -0.394532,0.267578 -0.08714,0 -0.147112,-0.02113 -0.203125,-0.07617 -0.09473,-0.0931 -0.09705,-0.218892 -0.02734,-0.701172 0.205815,-1.423048 0.756924,-2.406315 1.699218,-3.03125 0.332669,-0.22063 0.860147,-0.4847 1.087891,-0.548828 0.09423,-0.02653 0.205334,-0.04213 0.328125,-0.04687 z m -13.740234,0.0039 c 0.210117,-0.0088 0.408019,0.0077 0.533203,0.04297 0.227757,0.06413 0.755222,0.328198 1.08789,0.548828 0.942294,0.624937 1.493405,1.608202 1.699219,3.03125 0.06972,0.48228 0.06155,0.608074 -0.0332,0.701172 -0.056,0.05504 -0.112063,0.08008 -0.199219,0.08008 -0.111275,0 -0.147567,-0.0249 -0.394531,-0.271484 -0.689284,-0.688112 -1.468635,-1.21314 -2.34375,-1.582031 -0.199557,-0.08418 -0.640785,-0.242706 -0.980469,-0.34961 -0.674109,-0.212152 -0.982875,-0.351923 -1.171875,-0.53125 C 23.056866,29.506658 23,29.388603 23,29.212891 c 0,-0.434391 0.579412,-0.89589 1.419922,-1.132813 0.168875,-0.04758 0.393401,-0.07907 0.603516,-0.08789 z m 4.970703,8.015624 c 0.189475,0 0.246488,0.06037 0.351562,0.367188 0.410498,1.198747 0.281021,2.329892 -0.365234,3.197266 -0.295206,0.396206 -0.473921,0.490411 -0.666016,0.355468 -0.255837,-0.179719 -0.387143,-1.072529 -0.263672,-1.80664 0.08907,-0.529966 0.358308,-1.334226 0.611328,-1.826172 0.127362,-0.247628 0.172914,-0.287109 0.332032,-0.28711 z m 4.007812,0.0039 c 0.06858,-0.0018 0.138974,0.0084 0.175781,0.0332 0.118708,0.07982 0.48296,0.929036 0.648438,1.511719 0.229409,0.807783 0.233563,1.629473 0.01172,2.160156 -0.114388,0.27325 -0.315778,0.342528 -0.523438,0.179687 h -0.002 c -0.06256,-0.04895 -0.195445,-0.193333 -0.292969,-0.324218 -0.646255,-0.867375 -0.77378,-1.998519 -0.363281,-3.197266 0.06494,-0.189603 0.119686,-0.292042 0.167969,-0.322266 0.04261,-0.02667 0.109155,-0.03943 0.177734,-0.04102 z"
       id="path3" />
    <path
       style="fill:#ffffff"
       d="m 22.525391,20.003906 c -0.398998,0.0087 -0.785802,0.03435 -1.017579,0.06836 -1.111422,0.163344 -2.04889,0.500628 -2.83789,1.021484 -1.472215,0.971879 -2.330171,2.488923 -2.613281,4.619141 -0.07478,0.562802 -0.07496,1.711881 0,2.25 0.339997,2.442406 1.66116,4.567804 3.943359,6.345703 0.949744,0.739862 2.100535,1.434405 3.167969,1.910156 0.67323,0.300067 0.685879,0.304989 0.722656,0.398438 0.01876,0.04773 0.03853,0.552053 0.04687,1.1875 0.01047,0.774104 0.02868,1.189337 0.0625,1.390624 0.21876,1.298083 0.59456,2.263069 1.271484,3.263672 1.133201,1.675054 2.835564,2.852424 4.816407,3.330078 0.207888,0.05006 0.540837,0.113991 0.738281,0.140626 0.197442,0.02665 0.402215,0.05142 0.455078,0.05859 0.234819,0.03207 1.618524,-0.0089 1.923828,-0.05664 2.299375,-0.364719 4.251304,-1.595115 5.521484,-3.472657 0.676928,-1.000603 1.056632,-1.96559 1.275391,-3.263672 0.03397,-0.201286 0.05042,-0.61652 0.06055,-1.390624 0.0091,-0.635447 0.03202,-1.139728 0.05078,-1.1875 0.0368,-0.09341 0.05136,-0.09835 0.72461,-0.398438 0.792352,-0.353151 1.773721,-0.909561 2.511718,-1.423828 2.207469,-1.538283 3.658623,-3.390685 4.300782,-5.484375 0.255656,-0.833558 0.350397,-1.499333 0.349609,-2.464844 -0.0029,-3.839161 -1.966302,-6.253239 -5.505859,-6.773437 -0.463557,-0.06807 -1.549493,-0.09495 -2.101563,-0.04883 -2.816275,0.235327 -5.692431,1.469673 -7.917969,3.394531 -0.298662,0.258313 -0.396584,0.324219 -0.472656,0.324219 -0.07611,0 -0.175948,-0.06585 -0.474609,-0.324219 -2.225536,-1.924858 -5.101693,-3.159205 -7.917969,-3.394531 -0.276034,-0.02307 -0.684986,-0.02816 -1.083984,-0.01953 z m 16.238281,6.984375 c 0.12279,-0.0047 0.25743,2.73e-4 0.396484,0.01758 0.278107,0.03462 0.575295,0.11325 0.839844,0.222657 0.404139,0.167192 0.793745,0.46942 0.923828,0.716796 0.07791,0.148234 0.08274,0.378159 0.01367,0.507813 -0.151789,0.284535 -0.489293,0.472478 -1.339844,0.740234 -0.966319,0.30421 -1.474325,0.531234 -2.146484,0.966797 -0.398821,0.25843 -0.810539,0.598281 -1.177734,0.964844 -0.247032,0.246602 -0.28329,0.267578 -0.394532,0.267578 -0.08714,0 -0.147112,-0.02113 -0.203125,-0.07617 -0.09473,-0.0931 -0.09705,-0.218892 -0.02734,-0.701172 0.205815,-1.423048 0.756924,-2.406315 1.699218,-3.03125 0.332669,-0.22063 0.860147,-0.4847 1.087891,-0.548828 0.09423,-0.02653 0.205334,-0.04213 0.328125,-0.04687 z m -13.740234,0.0039 c 0.210117,-0.0088 0.408019,0.0077 0.533203,0.04297 0.227757,0.06413 0.755222,0.328198 1.08789,0.548828 0.942294,0.624937 1.493405,1.608202 1.699219,3.03125 0.06972,0.48228 0.06155,0.608074 -0.0332,0.701172 -0.056,0.05504 -0.112063,0.08008 -0.199219,0.08008 -0.111275,0 -0.147567,-0.0249 -0.394531,-0.271484 -0.689284,-0.688112 -1.468635,-1.21314 -2.34375,-1.582031 -0.199557,-0.08418 -0.640785,-0.242706 -0.980469,-0.34961 -0.674109,-0.212152 -0.982875,-0.351923 -1.171875,-0.53125 C 23.056866,28.506658 23,28.388603 23,28.212891 c 0,-0.434391 0.579412,-0.89589 1.419922,-1.132813 0.168875,-0.04758 0.393401,-0.07907 0.603516,-0.08789 z m 4.970703,8.015624 c 0.189475,0 0.246488,0.06037 0.351562,0.367188 0.410498,1.198747 0.281021,2.329892 -0.365234,3.197266 -0.295206,0.396206 -0.473921,0.490411 -0.666016,0.355468 -0.255837,-0.179719 -0.387143,-1.072529 -0.263672,-1.80664 0.08907,-0.529966 0.358308,-1.334226 0.611328,-1.826172 0.127362,-0.247628 0.172914,-0.287109 0.332032,-0.28711 z m 4.007812,0.0039 c 0.06858,-0.0018 0.138974,0.0084 0.175781,0.0332 0.118708,0.07982 0.48296,0.929036 0.648438,1.511719 0.229409,0.807783 0.233563,1.629473 0.01172,2.160156 -0.114388,0.27325 -0.315778,0.342528 -0.523438,0.179687 h -0.002 c -0.06256,-0.04895 -0.195445,-0.193333 -0.292969,-0.324218 -0.646255,-0.867375 -0.77378,-1.998519 -0.363281,-3.197266 0.06494,-0.189603 0.119686,-0.292042 0.167969,-0.322266 0.04261,-0.02667 0.109155,-0.03943 0.177734,-0.04102 z"
       id="path4" />
    <path
       style="opacity:0.1;fill:#ffffff"
       d="M 32.148438,4 V 4.00195 A 6.3412167,6.3670382 0 0 0 28.828125,4.8496094 L 10.171875,15.667969 A 6.3412167,6.3670382 0 0 0 7,21.183594 v 1 a 6.3412167,6.3670382 0 0 1 3.171875,-5.515625 L 28.828125,5.8496094 A 6.3412167,6.3670382 0 0 1 32.148438,5.0019531 V 5 a 6.3412167,6.3670382 0 0 1 3.023437,0.8496094 L 53.828125,16.667969 A 6.3412167,6.3670382 0 0 1 57,22.183594 v -1 A 6.3412167,6.3670382 0 0 0 53.828125,15.667969 L 35.171875,4.8496094 A 6.3412167,6.3670382 0 0 0 32.148438,4 Z"
       id="path5" />
  </g>
</svg>
