<?xml version="1.0" encoding="UTF-8" standalone="no"?>
<svg
   width="62"
   height="62"
   version="1.1"
   id="svg6"
   sodipodi:docname="geany.svg"
   inkscape:version="1.4 (unknown)"
   xmlns:inkscape="http://www.inkscape.org/namespaces/inkscape"
   xmlns:sodipodi="http://sodipodi.sourceforge.net/DTD/sodipodi-0.dtd"
   xmlns:xlink="http://www.w3.org/1999/xlink"
   xmlns="http://www.w3.org/2000/svg"
   xmlns:svg="http://www.w3.org/2000/svg">
  <defs
     id="defs6">
    <linearGradient
       id="linearGradient1"
       inkscape:collect="always">
      <stop
         style="stop-color:#8d5fd3;stop-opacity:1"
         offset="0"
         id="stop1" />
      <stop
         style="stop-color:#ffdd55;stop-opacity:1"
         offset="1"
         id="stop7" />
    </linearGradient>
    <filter
       id="f"
       width="1.1201701"
       height="1.1201701"
       x="-0.060085025"
       y="-0.060085025"
       color-interpolation-filters="sRGB">
      <feGaussianBlur
         stdDeviation=".212"
         id="feGaussianBlur9" />
    </filter>
    <linearGradient
       xlink:href="#b"
       id="g"
       x1="4.9330001"
       x2="7.0489998"
       y1="10.655"
       y2="10.655"
       gradientUnits="userSpaceOnUse" />
    <linearGradient
       id="b">
      <stop
         offset="0"
         stop-color="#548fed"
         id="stop3" />
      <stop
         offset="1"
         stop-color="#5ebae3"
         id="stop4" />
    </linearGradient>
    <linearGradient
       xlink:href="#b"
       id="h"
       x1="9.1660004"
       x2="11.283"
       y1="10.655"
       y2="10.655"
       gradientUnits="userSpaceOnUse" />
    <linearGradient
       xlink:href="#a"
       id="i"
       x1="11.283"
       x2="13.399"
       y1="10.655"
       y2="10.655"
       gradientUnits="userSpaceOnUse" />
    <linearGradient
       id="a">
      <stop
         offset="0"
         stop-color="#8ae234"
         id="stop5" />
      <stop
         offset="1"
         stop-color="#47e767"
         id="stop6" />
    </linearGradient>
    <linearGradient
       xlink:href="#b"
       id="j"
       x1="7.0489998"
       x2="9.1660004"
       y1="8.5380001"
       y2="8.5380001"
       gradientUnits="userSpaceOnUse" />
    <linearGradient
       xlink:href="#c"
       id="k"
       x1="11.283"
       x2="13.399"
       y1="8.5380001"
       y2="8.5380001"
       gradientUnits="userSpaceOnUse" />
    <linearGradient
       id="c">
      <stop
         offset="0"
         stop-color="#ec4520"
         id="stop9" />
      <stop
         offset="1"
         stop-color="#f58517"
         id="stop10" />
    </linearGradient>
    <linearGradient
       xlink:href="#a"
       id="l"
       x1="7.0489998"
       x2="9.1660004"
       y1="6.4219999"
       y2="6.4219999"
       gradientUnits="userSpaceOnUse" />
    <linearGradient
       xlink:href="#b"
       id="m"
       x1="9.1660004"
       x2="11.283"
       y1="6.4219999"
       y2="6.4219999"
       gradientUnits="userSpaceOnUse" />
    <linearGradient
       xlink:href="#a"
       id="n"
       x1="4.9330001"
       x2="7.0489998"
       y1="4.3049998"
       y2="4.3049998"
       gradientUnits="userSpaceOnUse" />
    <linearGradient
       xlink:href="#c"
       id="o"
       x1="7.0489998"
       x2="9.1660004"
       y1="4.3049998"
       y2="4.3049998"
       gradientUnits="userSpaceOnUse" />
    <linearGradient
       xlink:href="#b"
       id="p"
       x1="11.283"
       x2="13.399"
       y1="4.3049998"
       y2="4.3049998"
       gradientUnits="userSpaceOnUse" />
    <linearGradient
       id="paint0_linear_54_1212"
       x1="24.016001"
       y1="34.414799"
       x2="24.016001"
       y2="15.5054"
       gradientUnits="userSpaceOnUse"
       gradientTransform="matrix(1.2750627,0,0,1.2692104,0.21981883,-0.6795695)">
      <stop
         stop-color="#FD5900"
         id="stop2" />
      <stop
         offset="1"
         stop-color="#FFDE00"
         id="stop3-3" />
    </linearGradient>
    <linearGradient
       inkscape:collect="always"
       xlink:href="#linearGradient1"
       id="linearGradient7"
       x1="30.133211"
       y1="43.000004"
       x2="29.372904"
       y2="13.658065"
       gradientUnits="userSpaceOnUse"
       gradientTransform="translate(0,2.000002)" />
  </defs>
  <sodipodi:namedview
     id="namedview6"
     pagecolor="#ffffff"
     bordercolor="#000000"
     borderopacity="0.25"
     inkscape:showpageshadow="2"
     inkscape:pageopacity="0.0"
     inkscape:pagecheckerboard="0"
     inkscape:deskcolor="#d1d1d1"
     inkscape:zoom="8"
     inkscape:cx="33.4375"
     inkscape:cy="35.3125"
     inkscape:window-width="1920"
     inkscape:window-height="998"
     inkscape:window-x="0"
     inkscape:window-y="0"
     inkscape:window-maximized="1"
     inkscape:current-layer="svg6" />
  <path
     style="opacity:0.2"
     d="M 3.043,30.328 A 28,28 0 0 0 3,31.5 28,28 0 0 0 31,59.5 28,28 0 0 0 59,31.5 28,28 0 0 0 58.958,30.672 28,28 0 0 1 31,57.5 28,28 0 0 1 3.044,30.328 Z"
     id="path1" />
  <path
     style="fill:#2d3d53;fill-opacity:1"
     d="m 31,2.5 a 28,28 0 0 0 -28,28 28,28 0 0 0 28,28 28,28 0 0 0 28,-28 28,28 0 0 0 -28,-28 z"
     id="path2" />
  <path
     style="opacity:0.1;fill:#ffffff"
     d="M 30.998047,2.5 A 28,28 0 0 0 3,30.5 28,28 0 0 0 3.0214844,30.90625 28,28 0 0 1 30.998047,3.5 H 31 A 28,28 0 0 1 58.976562,31.085938 28,28 0 0 0 58.998047,30.5 28,28 0 0 0 31,2.5 Z"
     id="path3" />
  <path
     fill-rule="evenodd"
     clip-rule="evenodd"
     d="m 30.133309,21.000061 c -0.244045,0 -0.488101,0.04488 -0.705238,0.134293 -0.534894,0.220585 -1.207873,1.121847 -1.372604,1.350811 -0.02503,0.0348 -0.05789,0.06303 -0.0964,0.0822 l -5.528802,2.751765 c -0.03551,0.01758 -0.0745,0.02676 -0.113967,0.02676 h -2.760513 c -4.647097,0.150787 -6.094929,-4.47803 -9.343064,-4.283826 -0.21384,0.01263 -0.2839302,0.27605 -0.129189,0.423523 3.682573,3.509883 -0.2957633,8.306234 2.42057,10.879674 4.798265,4.545688 11.183267,8.329195 17.384027,8.423126 l -1.615375,-0.100385 c -0.1405,-0.0087 -0.255022,0.213942 -0.255022,0.35422 v 0.978182 c 0,0.103808 -0.06344,0.197104 -0.160262,0.235693 l -5.661914,2.25437 c -0.260625,0.103789 -0.186042,0.489537 0.09467,0.489537 h 15.68597 c 0.280897,0 0.355484,-0.385715 0.09468,-0.489537 l -5.661911,-2.254365 c -0.09673,-0.03858 -0.160257,-0.131859 -0.160257,-0.235689 v -0.978182 c 0,-0.140244 -0.114456,-0.364246 -0.255016,-0.354229 l -1.408698,0.100395 c 4.67094,-0.142027 9.199202,-2.45174 12.819238,-8.218522 0.07148,-0.11385 0.232443,-0.148752 0.352301,-0.08725 14.154603,7.252393 7.342834,-20.195092 -0.146258,-7.274223 -0.04601,0.07933 -0.13579,0.137582 -0.22772,0.137582 h -4.033018 c -0.03248,0 -0.06468,-0.0058 -0.09466,-0.01822 l -6.934443,-2.761042 c -0.0467,-0.01871 -0.08637,-0.04993 -0.115774,-0.09056 C 32.029598,22.233645 31.366685,21.352057 30.838424,21.134258 30.621291,21.044828 30.377231,21 30.133321,21 Z m 17.590643,4.345906 c 0.03309,-0.0014 0.06598,-3.86e-4 0.09906,0.0025 0.373211,0.03135 0.724862,0.356142 0.977968,0.903042 0.252969,0.546904 0.386728,1.27137 0.371808,2.01437 l -0.0025,0.02181 c -0.01776,0.742996 -0.183101,1.441443 -0.459408,1.942148 -0.276178,0.500707 -0.640972,0.762798 -1.014182,0.728526 -0.373212,-0.03409 -0.724365,-0.361599 -0.976442,-0.910657 -0.251952,-0.549062 -0.384303,-1.27467 -0.36786,-2.017662 0.01554,-0.71 0.165761,-1.381793 0.420393,-1.879958 0.254631,-0.498165 0.59456,-0.785642 0.951451,-0.804422 z"
     id="path2-6"
     style="fill:url(#linearGradient7)"
     sodipodi:nodetypes="ccsccscccccsssccssccssscsccsscccccccccccccccscc" />
</svg>
