<?xml version="1.0" encoding="UTF-8" standalone="no"?>
<svg
   width="62"
   height="62"
   version="1.1"
   id="svg6"
   sodipodi:docname="genymotion-player.svg"
   inkscape:version="1.4 (unknown)"
   xmlns:inkscape="http://www.inkscape.org/namespaces/inkscape"
   xmlns:sodipodi="http://sodipodi.sourceforge.net/DTD/sodipodi-0.dtd"
   xmlns:xlink="http://www.w3.org/1999/xlink"
   xmlns="http://www.w3.org/2000/svg"
   xmlns:svg="http://www.w3.org/2000/svg">
  <defs
     id="defs6">
    <linearGradient
       id="linearGradient1"
       inkscape:collect="always">
      <stop
         style="stop-color:#adbdd2;stop-opacity:1;"
         offset="0"
         id="stop1" />
      <stop
         style="stop-color:#dee5ed;stop-opacity:1;"
         offset="1"
         id="stop7" />
    </linearGradient>
    <filter
       id="f"
       width="1.1201701"
       height="1.1201701"
       x="-0.060085025"
       y="-0.060085025"
       color-interpolation-filters="sRGB">
      <feGaussianBlur
         stdDeviation=".212"
         id="feGaussianBlur9" />
    </filter>
    <linearGradient
       xlink:href="#b"
       id="g"
       x1="4.9330001"
       x2="7.0489998"
       y1="10.655"
       y2="10.655"
       gradientUnits="userSpaceOnUse" />
    <linearGradient
       id="b">
      <stop
         offset="0"
         stop-color="#548fed"
         id="stop3" />
      <stop
         offset="1"
         stop-color="#5ebae3"
         id="stop4" />
    </linearGradient>
    <linearGradient
       xlink:href="#b"
       id="h"
       x1="9.1660004"
       x2="11.283"
       y1="10.655"
       y2="10.655"
       gradientUnits="userSpaceOnUse" />
    <linearGradient
       xlink:href="#a"
       id="i"
       x1="11.283"
       x2="13.399"
       y1="10.655"
       y2="10.655"
       gradientUnits="userSpaceOnUse" />
    <linearGradient
       id="a">
      <stop
         offset="0"
         stop-color="#8ae234"
         id="stop5" />
      <stop
         offset="1"
         stop-color="#47e767"
         id="stop6" />
    </linearGradient>
    <linearGradient
       xlink:href="#b"
       id="j"
       x1="7.0489998"
       x2="9.1660004"
       y1="8.5380001"
       y2="8.5380001"
       gradientUnits="userSpaceOnUse" />
    <linearGradient
       xlink:href="#c"
       id="k"
       x1="11.283"
       x2="13.399"
       y1="8.5380001"
       y2="8.5380001"
       gradientUnits="userSpaceOnUse" />
    <linearGradient
       id="c">
      <stop
         offset="0"
         stop-color="#ec4520"
         id="stop9" />
      <stop
         offset="1"
         stop-color="#f58517"
         id="stop10" />
    </linearGradient>
    <linearGradient
       xlink:href="#a"
       id="l"
       x1="7.0489998"
       x2="9.1660004"
       y1="6.4219999"
       y2="6.4219999"
       gradientUnits="userSpaceOnUse" />
    <linearGradient
       xlink:href="#b"
       id="m"
       x1="9.1660004"
       x2="11.283"
       y1="6.4219999"
       y2="6.4219999"
       gradientUnits="userSpaceOnUse" />
    <linearGradient
       xlink:href="#a"
       id="n"
       x1="4.9330001"
       x2="7.0489998"
       y1="4.3049998"
       y2="4.3049998"
       gradientUnits="userSpaceOnUse" />
    <linearGradient
       xlink:href="#c"
       id="o"
       x1="7.0489998"
       x2="9.1660004"
       y1="4.3049998"
       y2="4.3049998"
       gradientUnits="userSpaceOnUse" />
    <linearGradient
       xlink:href="#b"
       id="p"
       x1="11.283"
       x2="13.399"
       y1="4.3049998"
       y2="4.3049998"
       gradientUnits="userSpaceOnUse" />
    <linearGradient
       id="paint0_linear_54_1212"
       x1="24.016001"
       y1="34.414799"
       x2="24.016001"
       y2="15.5054"
       gradientUnits="userSpaceOnUse"
       gradientTransform="matrix(1.2750627,0,0,1.2692104,0.21981883,-0.6795695)">
      <stop
         stop-color="#FD5900"
         id="stop2" />
      <stop
         offset="1"
         stop-color="#FFDE00"
         id="stop3-3" />
    </linearGradient>
    <linearGradient
       inkscape:collect="always"
       xlink:href="#linearGradient1"
       id="linearGradient7"
       x1="31"
       y1="58.5"
       x2="30.998047"
       y2="3.5"
       gradientUnits="userSpaceOnUse"
       gradientTransform="matrix(1.0178572,0,0,1,-0.05357143,0)" />
  </defs>
  <sodipodi:namedview
     id="namedview6"
     pagecolor="#ffffff"
     bordercolor="#000000"
     borderopacity="0.25"
     inkscape:showpageshadow="2"
     inkscape:pageopacity="0.0"
     inkscape:pagecheckerboard="0"
     inkscape:deskcolor="#d1d1d1"
     inkscape:zoom="8"
     inkscape:cx="33.5"
     inkscape:cy="45.3125"
     inkscape:window-width="1920"
     inkscape:window-height="998"
     inkscape:window-x="0"
     inkscape:window-y="0"
     inkscape:window-maximized="1"
     inkscape:current-layer="svg6" />
  <g
     id="g2"
     transform="translate(-0.5)">
    <path
       style="opacity:0.2;stroke-width:1.0089"
       d="M 3.043768,30.328 A 28.5,28 0 0 0 3,31.5 28.5,28 0 0 0 31.5,59.5 28.5,28 0 0 0 60,31.5 28.5,28 0 0 0 59.95725,30.672 28.5,28 0 0 1 31.5,57.5 28.5,28 0 0 1 3.044786,30.328 Z"
       id="path1" />
    <path
       style="fill:url(#linearGradient7);fill-opacity:1;stroke-width:1.0089"
       d="M 31.5,2.5 A 28.5,28 0 0 0 3,30.5 28.5,28 0 0 0 31.5,58.5 28.5,28 0 0 0 60,30.5 28.5,28 0 0 0 31.5,2.5 Z"
       id="path2" />
    <path
       style="opacity:0.1;fill:#ffffff;stroke-width:1.0089"
       d="M 31.498017,2.5 A 28.5,28 0 0 0 3,30.5 28.5,28 0 0 0 3.0218684,30.90625 28.5,28 0 0 1 31.498017,3.5 H 31.5 A 28.5,28 0 0 1 59.976142,31.085938 28.5,28 0 0 0 59.998017,30.5 28.5,28 0 0 0 31.5,2.5 Z"
       id="path3" />
    <g
       id="g1"
       transform="matrix(1.017857,0,0,1,-2.216518,-35.084744)">
      <path
         style="opacity:0.2"
         d="m 43.998973,51.999543 a 13.9996,13.9996 0 0 0 -13.999601,13.9996 13.9996,13.9996 0 0 0 13.999601,13.999601 13.9996,13.9996 0 0 0 13.9996,-13.999601 13.9996,13.9996 0 0 0 -13.9996,-13.9996 z M 17.999715,55.999429 A 9.9997145,9.9997145 0 0 0 8,65.999143 a 9.9997145,9.9997145 0 0 0 9.999715,9.999715 9.9997145,9.9997145 0 0 0 9.999714,-9.999715 9.9997145,9.9997145 0 0 0 -9.999714,-9.999714 z m 25.999258,0 a 9.9997145,9.9997145 0 0 1 9.999714,9.999714 9.9997145,9.9997145 0 0 1 -9.999714,9.999715 9.9997145,9.9997145 0 0 1 -9.999715,-9.999715 9.9997145,9.9997145 0 0 1 9.999715,-9.999714 z m -25.999258,3.999886 a 5.9998287,5.9998287 0 0 1 5.999829,5.999828 5.9998287,5.9998287 0 0 1 -5.999829,5.999829 5.9998287,5.9998287 0 0 1 -5.999829,-5.999829 5.9998287,5.9998287 0 0 1 5.999829,-5.999828 z"
         id="path3-7" />
      <path
         style="fill:#c83771"
         d="M 43.998973,51 A 13.9996,13.9996 0 0 0 29.999372,64.9996 13.9996,13.9996 0 0 0 43.998973,78.999201 13.9996,13.9996 0 0 0 57.998573,64.9996 13.9996,13.9996 0 0 0 43.998973,51 Z M 17.999715,54.999886 A 9.9997145,9.9997145 0 0 0 8,64.9996 9.9997145,9.9997145 0 0 0 17.999715,74.999315 9.9997145,9.9997145 0 0 0 27.999429,64.9996 9.9997145,9.9997145 0 0 0 17.999715,54.999886 Z m 25.999258,0 a 9.9997145,9.9997145 0 0 1 9.999714,9.999714 9.9997145,9.9997145 0 0 1 -9.999714,9.999715 9.9997145,9.9997145 0 0 1 -9.999715,-9.999715 9.9997145,9.9997145 0 0 1 9.999715,-9.999714 z m -25.999258,3.999886 a 5.9998287,5.9998287 0 0 1 5.999829,5.999828 5.9998287,5.9998287 0 0 1 -5.999829,5.999829 5.9998287,5.9998287 0 0 1 -5.999829,-5.999829 5.9998287,5.9998287 0 0 1 5.999829,-5.999828 z"
         id="path4" />
    </g>
  </g>
</svg>
