<?xml version="1.0" encoding="UTF-8" standalone="no"?>
<svg
   width="62"
   height="62"
   version="1"
   id="svg7"
   sodipodi:docname="gifcurry.svg"
   inkscape:version="1.4 (e7c3feb100, 2024-10-09)"
   xmlns:inkscape="http://www.inkscape.org/namespaces/inkscape"
   xmlns:sodipodi="http://sodipodi.sourceforge.net/DTD/sodipodi-0.dtd"
   xmlns:xlink="http://www.w3.org/1999/xlink"
   xmlns="http://www.w3.org/2000/svg"
   xmlns:svg="http://www.w3.org/2000/svg">
  <defs
     id="defs7">
    <linearGradient
       id="linearGradient7"
       inkscape:collect="always">
      <stop
         style="stop-color:#384850;stop-opacity:1;"
         offset="0"
         id="stop8" />
      <stop
         style="stop-color:#384850;stop-opacity:1;"
         offset="0.59162253"
         id="stop10" />
      <stop
         style="stop-color:#eff2f6;stop-opacity:1;"
         offset="0.92173076"
         id="stop11" />
      <stop
         style="stop-color:#eff2f6;stop-opacity:1;"
         offset="1"
         id="stop9" />
    </linearGradient>
    <linearGradient
       id="c-3"
       gradientUnits="userSpaceOnUse"
       x1="24.072048"
       x2="23.959682"
       y1="0.75082099"
       y2="46.056854">
      <stop
         offset="0"
         stop-color="#fff"
         id="stop3" />
      <stop
         offset="1"
         stop-color="#d9d9d9"
         id="stop4" />
    </linearGradient>
    <linearGradient
       id="b-6"
       gradientUnits="userSpaceOnUse"
       x1="29.203026"
       x2="34.121048"
       xlink:href="#a-7"
       y1="24.827356"
       y2="29.224836" />
    <linearGradient
       id="a-7">
      <stop
         offset="0"
         id="stop1" />
      <stop
         offset="1"
         stop-opacity="0"
         id="stop2" />
    </linearGradient>
    <linearGradient
       id="d"
       gradientUnits="userSpaceOnUse"
       x1="15.948756"
       x2="25.031786"
       xlink:href="#a-7"
       y1="23.618279"
       y2="33.69899" />
    <linearGradient
       id="e"
       gradientUnits="userSpaceOnUse"
       x1="21.990562"
       x2="29.320522"
       xlink:href="#a-7"
       y1="33.780373"
       y2="41.931858" />
    <linearGradient
       id="paint154_linear_890_11"
       x1="778"
       y1="812.29199"
       x2="788"
       y2="812.29199"
       gradientUnits="userSpaceOnUse"
       gradientTransform="translate(-751,-696)">
      <stop
         stop-color="#EFF2F6"
         id="stop1050" />
      <stop
         offset="0.600785"
         stop-color="#B7C6CD"
         id="stop1051" />
    </linearGradient>
    <linearGradient
       id="paint155_linear_890_11"
       x1="783"
       y1="813"
       x2="783"
       y2="817"
       gradientUnits="userSpaceOnUse"
       gradientTransform="translate(-751,-696)">
      <stop
         stop-color="#EFF2F6"
         id="stop1052" />
      <stop
         offset="0.734138"
         stop-color="#B7C6CD"
         id="stop1053" />
    </linearGradient>
    <radialGradient
       id="paint156_radial_890_11"
       cx="0"
       cy="0"
       r="1"
       gradientUnits="userSpaceOnUse"
       gradientTransform="matrix(27.999986,27.999976,-27.999986,27.999976,32.302392,33.999998)">
      <stop
         offset="0.60067803"
         stop-color="#B7C6CD"
         id="stop1054"
         style="stop-color:#384850;stop-opacity:1;" />
      <stop
         offset="0.876735"
         stop-color="#EFF2F6"
         id="stop1055" />
    </radialGradient>
    <linearGradient
       id="paint157_linear_890_11"
       x1="796.84485"
       y1="799.43359"
       x2="768.90088"
       y2="770.81476"
       gradientUnits="userSpaceOnUse"
       gradientTransform="matrix(1.1666666,0,0,1.1666668,-881.19764,-881.8333)">
      <stop
         offset="0.00000057"
         stop-color="#2E2E41"
         id="stop1056"
         style="stop-color:#495361;stop-opacity:1;" />
      <stop
         offset="0.711139"
         stop-color="#566C80"
         id="stop1057" />
    </linearGradient>
    <linearGradient
       id="paint158_linear_890_11"
       x1="792"
       y1="794"
       x2="774"
       y2="776"
       gradientUnits="userSpaceOnUse"
       gradientTransform="translate(-751,-696)">
      <stop
         offset="0.304478"
         stop-color="#2E2E41"
         id="stop1058" />
      <stop
         offset="1"
         stop-color="#566C80"
         id="stop1059" />
    </linearGradient>
    <linearGradient
       id="paint159_linear_890_11"
       x1="788"
       y1="790"
       x2="778"
       y2="780"
       gradientUnits="userSpaceOnUse"
       gradientTransform="translate(-751,-696)">
      <stop
         offset="0.391394"
         stop-color="#5200FF"
         id="stop1060" />
      <stop
         offset="1"
         stop-color="#0085FF"
         id="stop1061" />
    </linearGradient>
    <linearGradient
       id="paint160_linear_890_11"
       x1="784"
       y1="798"
       x2="782"
       y2="796"
       gradientUnits="userSpaceOnUse"
       gradientTransform="translate(-751,-696)">
      <stop
         stop-color="#FF7E07"
         id="stop1062" />
      <stop
         offset="1"
         stop-color="#FFE607"
         id="stop1063" />
    </linearGradient>
    <radialGradient
       inkscape:collect="always"
       xlink:href="#linearGradient7"
       id="radialGradient9"
       cx="32.302387"
       cy="34"
       fx="32.302387"
       fy="34"
       r="28"
       gradientUnits="userSpaceOnUse"
       gradientTransform="matrix(0.99999999,1,-1,0.99999999,34,-32.302387)" />
    <linearGradient
       id="paint0_linear_54_1196"
       x1="64"
       y1="120"
       x2="64"
       y2="8"
       gradientUnits="userSpaceOnUse"
       gradientTransform="matrix(0.28571429,0,0,0.28571429,12.714302,12.714286)">
      <stop
         stop-color="#5570FF"
         id="stop2-6" />
      <stop
         offset="1"
         stop-color="#4DD3FF"
         id="stop3-8" />
    </linearGradient>
    <linearGradient
       inkscape:collect="always"
       xlink:href="#linearGradient933-2"
       id="linearGradient935-9"
       x1="66.477058"
       y1="74.249496"
       x2="66.477058"
       y2="-4.9312868"
       gradientUnits="userSpaceOnUse"
       gradientTransform="matrix(0.39895812,0,0,0.39895812,11.857901,55.742494)" />
    <linearGradient
       inkscape:collect="always"
       id="linearGradient933-2">
      <stop
         style="stop-color:#1d5b95;stop-opacity:1"
         offset="0"
         id="stop929-0" />
      <stop
         style="stop-color:#ff8bd1;stop-opacity:1"
         offset="1"
         id="stop931-2" />
    </linearGradient>
  </defs>
  <sodipodi:namedview
     id="namedview7"
     pagecolor="#ffffff"
     bordercolor="#000000"
     borderopacity="0.25"
     inkscape:showpageshadow="2"
     inkscape:pageopacity="0.0"
     inkscape:pagecheckerboard="0"
     inkscape:deskcolor="#d1d1d1"
     inkscape:zoom="8.3306018"
     inkscape:cx="35.111509"
     inkscape:cy="50.176447"
     inkscape:window-width="1920"
     inkscape:window-height="994"
     inkscape:window-x="0"
     inkscape:window-y="0"
     inkscape:window-maximized="1"
     inkscape:current-layer="svg7" />
  <g
     id="g1"
     transform="translate(-1.3023872,-3)">
    <path
       d="m 60.302387,34 c 0,15.46415 -12.535828,28 -28.000002,28 C 16.838222,62 4.3023873,49.46415 4.3023873,34 4.3023873,18.535835 16.838222,6 32.302385,6 47.766559,6 60.302387,18.535835 60.302387,34 Z"
       id="path154"
       style="fill:url(#radialGradient9)" />
  </g>
  <g
     id="g2"
     transform="translate(-6.3334923,-50.33358)">
    <circle
       style="fill:url(#linearGradient935-9);fill-opacity:1;stroke:none;stroke-width:0.604379;stroke-linecap:round;stroke-miterlimit:4;stroke-dasharray:none;stroke-opacity:1"
       id="path1096-7"
       cx="37.333492"
       cy="81.33358"
       r="23.3335" />
    <path
       style="opacity:0.2;stroke-width:1.31468"
       d="M 34.394146,65.560025 29.370899,84.871226 C 27.923867,76.84961 26.676587,72.588259 24.976674,69.19041 a 18.403604,18.403604 0 0 0 -3.754402,4.814785 c 1.200057,3.082083 2.355535,7.227273 3.905383,13.768547 1.66827,7.120638 4.369825,9.690886 10.546117,10.909179 l 4.424764,1.053169 5.021457,-19.313006 c 1.492569,8.27425 2.775508,12.54818 4.559611,15.99891 a 18.403604,18.403604 0 0 0 3.765148,-4.667385 C 52.180509,88.632896 50.988438,84.381758 49.363201,77.522363 47.694961,70.40172 44.993496,67.831468 38.817049,66.613204 Z m 4.223569,5.140058 c 3.131253,0.83598 4.325588,2.360756 5.29098,5.479742 h -2.12256 L 35.875051,94.596008 C 32.743722,93.76006 31.54944,92.235277 30.584024,89.116267 h 2.12253 z"
       id="path2" />
    <path
       style="fill:#ffffff;stroke-width:1.31468"
       d="M 34.394146,64.245479 29.370899,83.556683 C 27.923867,75.535061 26.676587,71.273709 24.976674,67.875876 a 18.403604,18.403604 0 0 0 -3.754402,4.814783 c 1.200057,3.082072 2.355535,7.227281 3.905383,13.768549 1.66827,7.120627 4.369825,9.690885 10.546117,10.90916 l 4.424764,1.053174 5.021457,-19.312995 c 1.492569,8.274253 2.775508,12.548179 4.559611,15.998903 a 18.403604,18.403604 0 0 0 3.765148,-4.667393 C 52.180509,87.318362 50.988438,83.067211 49.363201,76.207812 47.694961,69.087185 44.993496,66.516927 38.817049,65.298658 Z m 4.223569,5.14007 c 3.131253,0.835967 4.325588,2.360744 5.29098,5.479755 h -2.12256 l -5.911084,18.41618 C 32.743722,92.445512 31.54944,90.920733 30.584024,87.801727 h 2.12253 z"
       id="path3" />
  </g>
</svg>
