<?xml version="1.0" encoding="UTF-8" standalone="no"?>
<svg
   width="62"
   height="62"
   version="1.1"
   id="svg5"
   sodipodi:docname="arcolinux-hello.svg"
   inkscape:version="1.4 (e7c3feb100, 2024-10-09)"
   xmlns:inkscape="http://www.inkscape.org/namespaces/inkscape"
   xmlns:sodipodi="http://sodipodi.sourceforge.net/DTD/sodipodi-0.dtd"
   xmlns:xlink="http://www.w3.org/1999/xlink"
   xmlns="http://www.w3.org/2000/svg"
   xmlns:svg="http://www.w3.org/2000/svg">
  <defs
     id="defs5">
    <linearGradient
       id="linearGradient1"
       inkscape:collect="always">
      <stop
         style="stop-color:#8d5fd3;stop-opacity:1;"
         offset="0"
         id="stop1" />
      <stop
         style="stop-color:#80b3ff;stop-opacity:1;"
         offset="0.55855989"
         id="stop3" />
      <stop
         style="stop-color:#ffb380;stop-opacity:1;"
         offset="1"
         id="stop2" />
    </linearGradient>
    <linearGradient
       inkscape:collect="always"
       xlink:href="#linearGradient1"
       id="linearGradient2"
       x1="16.861702"
       y1="13.998134"
       x2="50.453724"
       y2="49.952106"
       gradientUnits="userSpaceOnUse" />
    <radialGradient
       inkscape:collect="always"
       xlink:href="#linearGradient4349"
       id="radialGradient7025-0"
       cx="527.52069"
       cy="746.57629"
       fx="527.52069"
       fy="746.57629"
       r="52.832119"
       gradientTransform="matrix(0.49481741,0,0,0.16314168,-200.07101,-38.86294)"
       gradientUnits="userSpaceOnUse" />
    <linearGradient
       id="linearGradient4349">
      <stop
         style="stop-color:#000000;stop-opacity:1;"
         offset="0"
         id="stop2228" />
      <stop
         style="stop-color:#000000;stop-opacity:0;"
         offset="1"
         id="stop2230" />
    </linearGradient>
    <radialGradient
       inkscape:collect="always"
       xlink:href="#linearGradient3790"
       id="radialGradient6967-6"
       gradientUnits="userSpaceOnUse"
       gradientTransform="matrix(1.1559327,0.00758138,-0.00479549,0.73116708,-39.339621,134.59255)"
       cx="223.00618"
       cy="524.72888"
       fx="223.00618"
       fy="524.72888"
       r="31.760452" />
    <linearGradient
       id="linearGradient3790">
      <stop
         id="stop3802"
         offset="0"
         style="stop-color:#ddca97;stop-opacity:1;" />
      <stop
         style="stop-color:#a4966f;stop-opacity:1;"
         offset="0.57251769"
         id="stop3808" />
      <stop
         style="stop-color:#363024;stop-opacity:1;"
         offset="1"
         id="stop3794" />
    </linearGradient>
    <filter
       color-interpolation-filters="sRGB"
       inkscape:collect="always"
       id="filter4534-6"
       x="-0.067519562"
       width="1.1350391"
       y="-0.1131284"
       height="1.2262568">
      <feGaussianBlur
         inkscape:collect="always"
         stdDeviation="1.9033842"
         id="feGaussianBlur4536-1" />
    </filter>
    <radialGradient
       inkscape:collect="always"
       xlink:href="#linearGradient6064"
       id="radialGradient6969-3-8"
       gradientUnits="userSpaceOnUse"
       gradientTransform="matrix(0.81669988,0.02775573,-0.0103455,0.25436066,41.365816,398.45258)"
       cx="209.8894"
       cy="553.04187"
       fx="209.8894"
       fy="553.04187"
       r="18.018892" />
    <linearGradient
       id="linearGradient6064">
      <stop
         id="stop6066"
         offset="0"
         style="stop-color:#837a66;stop-opacity:1" />
      <stop
         id="stop6068"
         offset="1"
         style="stop-color:#5a5446;stop-opacity:0.43137255;" />
    </linearGradient>
    <filter
       color-interpolation-filters="sRGB"
       inkscape:collect="always"
       id="filter6060-2"
       x="-0.058460991"
       width="1.116922"
       y="-0.24017027"
       height="1.4803405">
      <feGaussianBlur
         inkscape:collect="always"
         stdDeviation="0.92476748"
         id="feGaussianBlur6062-0" />
    </filter>
    <filter
       color-interpolation-filters="sRGB"
       inkscape:collect="always"
       id="filter4225-0-2"
       x="-0.058705542"
       width="1.1174111"
       y="-0.31289229"
       height="1.6257846">
      <feGaussianBlur
         inkscape:collect="always"
         stdDeviation="0.92355471"
         id="feGaussianBlur4227-8-3" />
    </filter>
    <filter
       color-interpolation-filters="sRGB"
       inkscape:collect="always"
       id="filter5536-7"
       x="-0.11860305"
       width="1.2372061"
       y="-0.12144654"
       height="1.2428931">
      <feGaussianBlur
         inkscape:collect="always"
         stdDeviation="0.90925066"
         id="feGaussianBlur5538-5" />
    </filter>
    <filter
       color-interpolation-filters="sRGB"
       inkscape:collect="always"
       id="filter4351-1-9"
       x="-0.18983015"
       width="1.3796603"
       y="-0.21239201"
       height="1.424784">
      <feGaussianBlur
         inkscape:collect="always"
         stdDeviation="2.0243621"
         id="feGaussianBlur4353-6-2" />
    </filter>
    <radialGradient
       inkscape:collect="always"
       xlink:href="#linearGradient4231-4"
       id="radialGradient6971-2"
       gradientUnits="userSpaceOnUse"
       gradientTransform="matrix(2.5443367,-2.7611874,0.65368361,0.60234641,-425.21165,582.67995)"
       cx="243.02325"
       cy="497.58182"
       fx="243.02325"
       fy="497.58182"
       r="5.8139548" />
    <linearGradient
       id="linearGradient4231-4">
      <stop
         style="stop-color:#363024;stop-opacity:1;"
         offset="0"
         id="stop4233-2" />
      <stop
         style="stop-color:#bdb294;stop-opacity:0;"
         offset="1"
         id="stop4235-7" />
    </linearGradient>
    <filter
       color-interpolation-filters="sRGB"
       inkscape:collect="always"
       id="filter6218-7"
       x="-0.049714909"
       y="-0.044180955"
       width="1.0994298"
       height="1.0883619">
      <feGaussianBlur
         inkscape:collect="always"
         stdDeviation="0.37207258"
         id="feGaussianBlur6220-3" />
    </filter>
    <radialGradient
       inkscape:collect="always"
       xlink:href="#linearGradient4231"
       id="radialGradient6973-6"
       gradientUnits="userSpaceOnUse"
       gradientTransform="matrix(-1.7786357,-0.33630359,0.45878737,-2.7976519,461.82306,1951.7633)"
       cx="245.20137"
       cy="493.07242"
       fx="245.20137"
       fy="493.07242"
       r="7.1031899" />
    <linearGradient
       id="linearGradient4231">
      <stop
         id="stop4355"
         offset="0"
         style="stop-color:#2a251b;stop-opacity:1;" />
      <stop
         style="stop-color:#bdb294;stop-opacity:0;"
         offset="1"
         id="stop4235" />
    </linearGradient>
    <filter
       color-interpolation-filters="sRGB"
       inkscape:collect="always"
       id="filter4824-9"
       x="-0.095791369"
       y="-0.058148178"
       width="1.1915827"
       height="1.1162964">
      <feGaussianBlur
         inkscape:collect="always"
         stdDeviation="0.5549885"
         id="feGaussianBlur4826-3" />
    </filter>
    <radialGradient
       inkscape:collect="always"
       xlink:href="#linearGradient3937"
       id="radialGradient6975-1"
       gradientUnits="userSpaceOnUse"
       gradientTransform="matrix(0.8320049,0.37659943,-1.246618,2.7540997,659.86003,-963.94598)"
       cx="249.62216"
       cy="496.97412"
       fx="249.62216"
       fy="496.97412"
       r="4.534945" />
    <linearGradient
       id="linearGradient3937">
      <stop
         style="stop-color:#676150;stop-opacity:1;"
         offset="0"
         id="stop3939" />
      <stop
         style="stop-color:#5a5446;stop-opacity:0.08695652;"
         offset="1"
         id="stop3941" />
    </linearGradient>
    <filter
       color-interpolation-filters="sRGB"
       inkscape:collect="always"
       id="filter4602-7"
       x="-0.17717306"
       width="1.3543528"
       y="-0.0676903"
       height="1.1353806">
      <feGaussianBlur
         inkscape:collect="always"
         stdDeviation="0.39434513"
         id="feGaussianBlur4604-8" />
    </filter>
    <radialGradient
       inkscape:collect="always"
       xlink:href="#linearGradient4349"
       id="radialGradient6977-4"
       gradientUnits="userSpaceOnUse"
       gradientTransform="matrix(0.40950873,0.06408911,-0.11590863,0.45721878,205.96234,260.26683)"
       cx="248.90622"
       cy="508.89563"
       fx="248.90622"
       fy="508.89563"
       r="3.0053401" />
    <filter
       color-interpolation-filters="sRGB"
       inkscape:collect="always"
       id="filter6186-5"
       x="-0.60973316"
       width="2.2194662"
       y="-0.38801193"
       height="1.7760239">
      <feGaussianBlur
         inkscape:collect="always"
         stdDeviation="1.0907183"
         id="feGaussianBlur6188-0" />
    </filter>
    <radialGradient
       inkscape:collect="always"
       xlink:href="#linearGradient5140-7"
       id="radialGradient6979-3"
       gradientUnits="userSpaceOnUse"
       gradientTransform="matrix(0.98891246,-6.0662677e-7,0.00144279,1.0186223,-272.76122,-464.67159)"
       cx="338.59503"
       cy="508.25302"
       fx="338.59503"
       fy="508.25302"
       r="12.882057" />
    <linearGradient
       id="linearGradient5140-7">
      <stop
         id="stop5142-8"
         offset="0"
         style="stop-color:#fdfdfd;stop-opacity:1;" />
      <stop
         style="stop-color:#ffffff;stop-opacity:1;"
         offset="0.38183475"
         id="stop5144-6" />
      <stop
         style="stop-color:#d9d9d9;stop-opacity:1;"
         offset="0.73938215"
         id="stop5146-5" />
      <stop
         id="stop5148-6"
         offset="0.89802635"
         style="stop-color:#c5c5c5;stop-opacity:1;" />
      <stop
         id="stop5150-2"
         offset="1"
         style="stop-color:#eaeaea;stop-opacity:1;" />
    </linearGradient>
    <radialGradient
       inkscape:collect="always"
       xlink:href="#linearGradient5240-6-7"
       id="radialGradient6981-2"
       gradientUnits="userSpaceOnUse"
       gradientTransform="matrix(0.36001499,-0.00274197,0.00277326,0.360494,-57.97973,-125.81478)"
       cx="338.83655"
       cy="510.99084"
       fx="338.83655"
       fy="510.99084"
       r="13.382057" />
    <linearGradient
       id="linearGradient5240-6-7">
      <stop
         id="stop5248-9-0"
         offset="0"
         style="stop-color:#434e54;stop-opacity:1;" />
      <stop
         style="stop-color:#23292d;stop-opacity:1"
         offset="1"
         id="stop5244-3-19" />
    </linearGradient>
    <radialGradient
       inkscape:collect="always"
       xlink:href="#linearGradient5258-5-2"
       id="radialGradient6983-1"
       gradientUnits="userSpaceOnUse"
       gradientTransform="matrix(0.3739884,-0.00284869,0.00276985,0.35997185,-62.728404,-125.51167)"
       cx="338.87921"
       cy="510.99091"
       fx="338.87921"
       fy="510.99091"
       r="12.882057" />
    <linearGradient
       id="linearGradient5258-5-2">
      <stop
         id="stop5260-8-1"
         offset="0"
         style="stop-color:#000000;stop-opacity:1;" />
      <stop
         style="stop-color:#434e54;stop-opacity:1;"
         offset="0.90763313"
         id="stop5262-0-6" />
      <stop
         id="stop5264-4-0"
         offset="1"
         style="stop-color:#23292d;stop-opacity:1" />
    </linearGradient>
    <radialGradient
       inkscape:collect="always"
       xlink:href="#linearGradient5049-0"
       id="radialGradient6985-7"
       gradientUnits="userSpaceOnUse"
       gradientTransform="matrix(0.35003158,0,0,0.94594595,219.79666,28.165813)"
       cx="338.16513"
       cy="519.35944"
       fx="338.16513"
       fy="519.35944"
       r="4.4545431" />
    <linearGradient
       id="linearGradient5049-0">
      <stop
         style="stop-color:#ffffff;stop-opacity:1;"
         offset="0"
         id="stop5051-9" />
      <stop
         style="stop-color:#ffffff;stop-opacity:0.33816424;"
         offset="1"
         id="stop5053-1" />
    </linearGradient>
    <filter
       color-interpolation-filters="sRGB"
       inkscape:collect="always"
       id="filter5112-62-6"
       x="-0.035013513"
       y="-0.037014285"
       width="1.070027"
       height="1.0740286">
      <feGaussianBlur
         inkscape:collect="always"
         stdDeviation="0.12997433"
         id="feGaussianBlur5114-9-9" />
    </filter>
    <filter
       color-interpolation-filters="sRGB"
       inkscape:collect="always"
       id="filter5448-8-50-3"
       x="-0.11811162"
       width="1.2362232"
       y="-0.12486085"
       height="1.2497217">
      <feGaussianBlur
         inkscape:collect="always"
         stdDeviation="0.43844441"
         id="feGaussianBlur5450-2-2-7" />
    </filter>
    <radialGradient
       inkscape:collect="always"
       xlink:href="#linearGradient5140-7"
       id="radialGradient6987-4"
       gradientUnits="userSpaceOnUse"
       gradientTransform="matrix(0.6243452,-3.829912e-7,9.1084823e-4,0.64310268,-168.59578,-270.93068)"
       cx="338.59503"
       cy="508.25302"
       fx="338.59503"
       fy="508.25302"
       r="12.882057" />
    <radialGradient
       inkscape:collect="always"
       xlink:href="#linearGradient5240-6-7"
       id="radialGradient6989-2"
       gradientUnits="userSpaceOnUse"
       gradientTransform="matrix(0.22729376,-0.00173099,0.00175105,0.22759636,-32.994427,-56.994932)"
       cx="338.83655"
       cy="510.99084"
       fx="338.83655"
       fy="510.99084"
       r="13.382057" />
    <radialGradient
       inkscape:collect="always"
       xlink:href="#linearGradient5258-5-2"
       id="radialGradient6991-5"
       gradientUnits="userSpaceOnUse"
       gradientTransform="matrix(0.23611593,-0.00179846,0.00174849,0.22726654,-35.992502,-56.803536)"
       cx="338.87921"
       cy="510.99091"
       fx="338.87921"
       fy="510.99091"
       r="12.882057" />
    <radialGradient
       inkscape:collect="always"
       xlink:href="#linearGradient5049-0"
       id="radialGradient6993-4"
       gradientUnits="userSpaceOnUse"
       gradientTransform="matrix(0.35003158,0,0,0.94594595,219.79666,28.165813)"
       cx="338.16513"
       cy="519.35944"
       fx="338.16513"
       fy="519.35944"
       r="4.4545431" />
    <filter
       color-interpolation-filters="sRGB"
       inkscape:collect="always"
       id="filter5112-6-8-7"
       x="-0.035013513"
       y="-0.037014285"
       width="1.070027"
       height="1.0740286">
      <feGaussianBlur
         inkscape:collect="always"
         stdDeviation="0.12997433"
         id="feGaussianBlur5114-2-6-4" />
    </filter>
    <filter
       color-interpolation-filters="sRGB"
       inkscape:collect="always"
       id="filter5448-8-5-7-4"
       x="-0.11811162"
       width="1.2362232"
       y="-0.12486085"
       height="1.2497217">
      <feGaussianBlur
         inkscape:collect="always"
         stdDeviation="0.43844441"
         id="feGaussianBlur5450-2-7-9-3" />
    </filter>
    <radialGradient
       inkscape:collect="always"
       xlink:href="#linearGradient5757"
       id="radialGradient6995-0"
       gradientUnits="userSpaceOnUse"
       gradientTransform="matrix(0.52758395,0.0459616,-0.0392888,0.40486535,-79.229793,-198.36581)"
       cx="312.97891"
       cy="484.03326"
       fx="312.97891"
       fy="484.03326"
       r="33.578381" />
    <linearGradient
       id="linearGradient5757">
      <stop
         style="stop-color:#7b8386;stop-opacity:1;"
         offset="0"
         id="stop5759" />
      <stop
         id="stop5767"
         offset="0.43472689"
         style="stop-color:#24282a;stop-opacity:1" />
      <stop
         id="stop5765"
         offset="0.74703032"
         style="stop-color:#000000;stop-opacity:1;" />
      <stop
         style="stop-color:#000000;stop-opacity:1;"
         offset="0.89803654"
         id="stop5769" />
      <stop
         id="stop5771"
         offset="0.96032226"
         style="stop-color:#3d4143;stop-opacity:1;" />
      <stop
         style="stop-color:#7b8386;stop-opacity:1;"
         offset="1"
         id="stop5761" />
    </linearGradient>
    <radialGradient
       inkscape:collect="always"
       xlink:href="#linearGradient5049-0"
       id="radialGradient6997-3"
       gradientUnits="userSpaceOnUse"
       gradientTransform="matrix(1.7752069,0.01194465,-0.01175669,1.5634847,-255.77701,-295.49468)"
       cx="337.7995"
       cy="517.55872"
       fx="337.7995"
       fy="517.55872"
       r="4.4545431" />
    <filter
       color-interpolation-filters="sRGB"
       inkscape:collect="always"
       id="filter5112-0-1"
       x="-0.035013513"
       y="-0.037014285"
       width="1.070027"
       height="1.0740286">
      <feGaussianBlur
         inkscape:collect="always"
         stdDeviation="0.12997433"
         id="feGaussianBlur5114-3-4" />
    </filter>
    <radialGradient
       inkscape:collect="always"
       xlink:href="#linearGradient5942"
       id="radialGradient6999-9"
       gradientUnits="userSpaceOnUse"
       gradientTransform="matrix(0.65908687,0,0,0.35075102,104.34234,327.28248)"
       cx="302.54837"
       cy="503.7861"
       fx="302.54837"
       fy="503.7861"
       r="10.767991" />
    <linearGradient
       id="linearGradient5942">
      <stop
         style="stop-color:#b9c1c3;stop-opacity:1;"
         offset="0"
         id="stop5944" />
      <stop
         style="stop-color:#2b3132;stop-opacity:1;"
         offset="1"
         id="stop5946" />
    </linearGradient>
    <filter
       color-interpolation-filters="sRGB"
       inkscape:collect="always"
       id="filter5938-6"
       x="-0.079190459"
       width="1.1543067"
       y="-0.58000458"
       height="2.1758552">
      <feGaussianBlur
         inkscape:collect="always"
         stdDeviation="0.52611916"
         id="feGaussianBlur5940-8" />
    </filter>
    <linearGradient
       inkscape:collect="always"
       xlink:href="#linearGradient6280"
       id="linearGradient2126"
       gradientUnits="userSpaceOnUse"
       gradientTransform="matrix(0.38648476,0,0,0.38454817,-106.41186,-49.753247)"
       x1="427.42374"
       y1="327.59464"
       x2="474.23999"
       y2="327.59464" />
    <linearGradient
       id="linearGradient6280">
      <stop
         style="stop-color:#000000;stop-opacity:0;"
         offset="0"
         id="stop6282" />
      <stop
         style="stop-color:#000000;stop-opacity:1;"
         offset="1"
         id="stop6284" />
    </linearGradient>
    <radialGradient
       inkscape:collect="always"
       xlink:href="#linearGradient4349"
       id="radialGradient7003-6"
       gradientUnits="userSpaceOnUse"
       gradientTransform="matrix(1.3664718,-1.2471674,1.1433356,1.2401849,-940.02603,263.80449)"
       cx="473.40619"
       cy="323.3364"
       fx="473.40619"
       fy="323.3364"
       r="6.080482" />
    <linearGradient
       inkscape:collect="always"
       xlink:href="#linearGradient6392"
       id="linearGradient2128"
       gradientUnits="userSpaceOnUse"
       gradientTransform="matrix(0.38648476,0,0,0.38454817,-171.87852,-112.10649)"
       x1="654.31042"
       y1="511.52164"
       x2="662.45123"
       y2="499.72266" />
    <linearGradient
       id="linearGradient6392">
      <stop
         id="stop6394"
         offset="0"
         style="stop-color:#c5d914;stop-opacity:0.98823529;" />
      <stop
         style="stop-color:#d27513;stop-opacity:0.98823529;"
         offset="0.00829687"
         id="stop8982" />
      <stop
         style="stop-color:#cc7112;stop-opacity:0.98823529;"
         offset="0.01659374"
         id="stop8980" />
      <stop
         style="stop-color:#bf6a11;stop-opacity:0.98823529;"
         offset="0.03318748"
         id="stop8978" />
      <stop
         style="stop-color:#a65c0e;stop-opacity:0.99215686;"
         offset="0.06637495"
         id="stop8976" />
      <stop
         style="stop-color:#734009;stop-opacity:1"
         offset="0.1327499"
         id="stop6396" />
      <stop
         id="stop6404"
         offset="0.48951015"
         style="stop-color:#ce8e4c;stop-opacity:1" />
      <stop
         style="stop-color:#eec69d;stop-opacity:1"
         offset="0.63056582"
         id="stop6398" />
      <stop
         style="stop-color:#f9d6b3;stop-opacity:1"
         offset="0.7128883"
         id="stop6400" />
      <stop
         id="stop6402"
         offset="1"
         style="stop-color:#d97914;stop-opacity:0.99607843" />
    </linearGradient>
    <linearGradient
       inkscape:collect="always"
       xlink:href="#linearGradient6412"
       id="linearGradient2130"
       gradientUnits="userSpaceOnUse"
       gradientTransform="matrix(0.38648476,0,0,0.38454817,-171.83441,-112.1758)"
       x1="686.03308"
       y1="533.94244"
       x2="694.08197"
       y2="524.07996" />
    <linearGradient
       id="linearGradient6412">
      <stop
         style="stop-color:#575757;stop-opacity:1"
         offset="0"
         id="stop6414" />
      <stop
         id="stop6424"
         offset="0.07647054"
         style="stop-color:#b8b8b8;stop-opacity:1" />
      <stop
         id="stop6422"
         offset="0.24232632"
         style="stop-color:#a9a9a9;stop-opacity:1" />
      <stop
         id="stop6420"
         offset="0.69411778"
         style="stop-color:#fdfdfd;stop-opacity:1" />
      <stop
         style="stop-color:#f4f4f4;stop-opacity:0.99215686;"
         offset="0.79705876"
         id="stop6426" />
      <stop
         style="stop-color:#c1c1c1;stop-opacity:0.98823529"
         offset="1"
         id="stop6416" />
    </linearGradient>
    <linearGradient
       inkscape:collect="always"
       xlink:href="#linearGradient6492"
       id="linearGradient2260-0"
       gradientUnits="userSpaceOnUse"
       gradientTransform="matrix(0.60750147,0,0,0.60750147,261.03219,207.13157)"
       x1="657.15259"
       y1="532.32446"
       x2="661.47491"
       y2="537.33728" />
    <linearGradient
       id="linearGradient6492">
      <stop
         style="stop-color:#050505;stop-opacity:1"
         offset="0"
         id="stop6494" />
      <stop
         id="stop6500"
         offset="0.46724156"
         style="stop-color:#3f3f3f;stop-opacity:1;" />
      <stop
         style="stop-color:#7b7b7b;stop-opacity:1;"
         offset="0.73362076"
         id="stop6502" />
      <stop
         id="stop6618"
         offset="0.86681038"
         style="stop-color:#3d3d3d;stop-opacity:1;" />
      <stop
         style="stop-color:#000000;stop-opacity:1;"
         offset="1"
         id="stop6496" />
    </linearGradient>
    <filter
       color-interpolation-filters="sRGB"
       inkscape:collect="always"
       id="filter6590-9"
       x="-0.093972816"
       width="1.1879456"
       y="-0.095672893"
       height="1.1913458">
      <feGaussianBlur
         inkscape:collect="always"
         stdDeviation="0.32157027"
         id="feGaussianBlur6592-0" />
    </filter>
    <radialGradient
       inkscape:collect="always"
       xlink:href="#linearGradient1316"
       id="radialGradient7011-9"
       gradientUnits="userSpaceOnUse"
       gradientTransform="matrix(1.0993033,2.1527796,-0.54211557,0.27354243,231.44154,-1060.1092)"
       cx="677.13629"
       cy="550.95886"
       fx="677.13629"
       fy="550.95886"
       r="12.852631" />
    <linearGradient
       inkscape:collect="always"
       id="linearGradient1316">
      <stop
         style="stop-color:#e25563;stop-opacity:1"
         offset="0"
         id="stop1312" />
      <stop
         style="stop-color:#e25563;stop-opacity:0.31441444;"
         offset="1"
         id="stop1314" />
    </linearGradient>
    <filter
       color-interpolation-filters="sRGB"
       inkscape:collect="always"
       id="filter6660-7"
       x="-0.014305185"
       y="-0.0098167856"
       width="1.0286104"
       height="1.0196336">
      <feGaussianBlur
         inkscape:collect="always"
         stdDeviation="0.15956005"
         id="feGaussianBlur6662-1" />
    </filter>
    <filter
       color-interpolation-filters="sRGB"
       inkscape:collect="always"
       id="filter6762-1"
       x="-0.31427326"
       width="1.6409147"
       y="-0.16558074"
       height="1.3188343">
      <feGaussianBlur
         inkscape:collect="always"
         stdDeviation="1.0241988"
         id="feGaussianBlur6764-5" />
    </filter>
    <linearGradient
       inkscape:collect="always"
       xlink:href="#linearGradient6650"
       id="linearGradient2262-9"
       gradientUnits="userSpaceOnUse"
       x1="680.79333"
       y1="569.56769"
       x2="672.32446"
       y2="560.32983" />
    <linearGradient
       inkscape:collect="always"
       id="linearGradient6650">
      <stop
         style="stop-color:#5c5c5c;stop-opacity:1"
         offset="0"
         id="stop6652" />
      <stop
         style="stop-color:#aaaaaa;stop-opacity:0;"
         offset="1"
         id="stop6654" />
    </linearGradient>
    <filter
       color-interpolation-filters="sRGB"
       inkscape:collect="always"
       id="filter6828-6"
       x="-0.24265517"
       width="1.4853103"
       y="-0.24265517"
       height="1.4853103">
      <feGaussianBlur
         inkscape:collect="always"
         stdDeviation="0.4688222"
         id="feGaussianBlur6830-7" />
    </filter>
    <linearGradient
       inkscape:collect="always"
       xlink:href="#linearGradient6911"
       id="linearGradient2132"
       gradientUnits="userSpaceOnUse"
       gradientTransform="matrix(0.38648476,0,0,0.38454817,-165.04361,-122.27813)"
       x1="617.90118"
       y1="516.1391"
       x2="622.82483"
       y2="520.60602" />
    <linearGradient
       inkscape:collect="always"
       id="linearGradient6911">
      <stop
         style="stop-color:#100e0b;stop-opacity:1"
         offset="0"
         id="stop6913" />
      <stop
         style="stop-color:#000000;stop-opacity:0;"
         offset="1"
         id="stop6915" />
    </linearGradient>
  </defs>
  <sodipodi:namedview
     id="namedview5"
     pagecolor="#ffffff"
     bordercolor="#000000"
     borderopacity="0.25"
     inkscape:showpageshadow="2"
     inkscape:pageopacity="0.0"
     inkscape:pagecheckerboard="0"
     inkscape:deskcolor="#d1d1d1"
     inkscape:zoom="11.75"
     inkscape:cx="32"
     inkscape:cy="32.085106"
     inkscape:window-width="1920"
     inkscape:window-height="998"
     inkscape:window-x="0"
     inkscape:window-y="0"
     inkscape:window-maximized="1"
     inkscape:current-layer="svg5" />
  <path
     style="opacity:0.2;fill-rule:evenodd;stroke-width:0.9823"
     d="M 58.5,31.491228 C 58.5,46.684515 46.187185,59 31,59 15.811557,59 3.4999999,46.683258 3.4999999,31.491228 3.4999999,16.297941 15.812815,3.9824562 31,3.9824562 c 15.188443,0 27.5,12.3167418 27.5,27.5087718"
     id="path1" />
  <path
     style="fill:url(#linearGradient2);fill-rule:evenodd;stroke-width:0.9823"
     d="M 58.5,30.508772 C 58.5,45.702059 46.187185,58.017544 31,58.017544 15.811557,58.017544 3.4999999,45.700802 3.4999999,30.508772 3.4999999,15.315485 15.812815,3 31,3 46.188443,3 58.5,15.316742 58.5,30.508772"
     id="path2" />
  <path
     style="opacity:0.2;fill:#ffffff;fill-rule:evenodd;stroke-width:0.9823"
     d="M 31,3 C 15.812815,3 3.4999999,15.315485 3.4999999,30.508772 c 0,0.111411 0.01109,0.220173 0.017264,0.330044 C 3.8647738,15.947871 16.031469,3.9824562 31,3.9824562 c 14.96977,0 27.135261,11.9665828 27.482736,26.8563598 C 58.488909,30.728947 58.5,30.620193 58.5,30.508772 58.5,15.316742 46.188443,3 31,3 Z"
     id="path5" />
  <g
     id="g1"
     transform="matrix(0.58628843,0,0,0.58628843,-5.7718754,-8.0949029)">
    <path
       sodipodi:open="true"
       sodipodi:end="4.7077097"
       sodipodi:start="4.7111835"
       d="M 60.923751,74.315559 A 26.142237,8.6191168 0 0 1 87.097446,82.916794 26.142237,8.6191168 0 0 1 61.032185,91.553749 26.142237,8.6191168 0 0 1 34.813218,82.967515 26.142237,8.6191168 0 0 1 60.832939,74.315647"
       sodipodi:ry="8.6191168"
       sodipodi:rx="26.142237"
       sodipodi:cy="82.934669"
       sodipodi:cx="60.955265"
       id="path7017-8"
       style="fill:url(#radialGradient7025-0);fill-opacity:1;fill-rule:evenodd;stroke:none;stroke-width:0.559817"
       sodipodi:type="arc"
       sodipodi:arc-type="arc" />
    <path
       sodipodi:nodetypes="ccsccccc"
       inkscape:connector-curvature="0"
       id="path3050-1"
       d="m 35.68494,58.967301 0.787184,-20.845188 c 9.558678,13.780095 25.120194,13.819114 37.132774,9.30667 9.944558,-3.735561 18.476557,-11.870492 19.832986,-19.779393 1.701829,4.690368 1.555685,17.502963 1.052511,29.323651 C 91.72275,88.674134 63.272039,98.95437 30.173397,75.214094 l 1.227345,-13.542536 z"
       style="fill:#363024;fill-opacity:1;stroke:none;stroke-width:0.385467" />
    <path
       sodipodi:nodetypes="csccccssscc"
       transform="matrix(0.86663864,0,0,0.83159643,-125.7063,-372.05446)"
       inkscape:connector-curvature="0"
       id="path4448-2"
       d="m 237.2041,503.35367 c -1.95778,1.10679 -4.23926,1.84896 -6.34707,2.64473 -10.86021,4.10009 -26.44723,4.28091 -37.0332,-3.22206 -3.48147,1.8625 -1.50754,1.89602 -3.7082,4.54107 l -1.45411,12.28626 -4.38164,2.56425 c -0.11656,0.78891 -2.18755,-3.00928 -2.18613,-2.19912 0.0225,12.82553 15.1948,23.20296 33.875,23.1875 18.6802,-0.0155 33.80377,-10.42447 33.78125,-23.25 -0.0134,-7.62664 -2.93707,-12.32573 -11.21348,-16.55258 z"
       style="fill:url(#radialGradient6967-6);fill-opacity:1;fill-rule:evenodd;stroke:none;filter:url(#filter4534-6)" />
    <path
       transform="matrix(0.96421543,0,0,1.0364246,-145.84521,-481.65501)"
       sodipodi:nodetypes="cccc"
       inkscape:connector-curvature="0"
       id="path3935-93"
       d="m 227.27925,546.37465 c -11.29817,5.57968 -28.37264,-0.65377 -35.57824,-7.07611 15.48073,5.17966 19.80943,5.95437 35.94402,4.51567 1.92719,-0.0698 3.51982,2.04687 -0.36578,2.56044 z"
       style="fill:url(#radialGradient6969-3-8);fill-opacity:1;stroke:none;filter:url(#filter6060-2)" />
    <path
       transform="matrix(0.59110748,-0.17112789,0.3434394,0.9862098,-266.50975,-436.56823)"
       sodipodi:nodetypes="cccc"
       inkscape:connector-curvature="0"
       id="path3935-9-9"
       d="m 227.27925,546.37465 c -5.13744,3.9331 -29.84835,1.16677 -35.37051,-5.26668 16.36481,2.41453 21.3094,1.2591 35.73629,2.70624 1.92719,-0.0698 3.51982,2.04687 -0.36578,2.56044 z"
       style="fill:#a99e81;fill-opacity:1;stroke:none;filter:url(#filter4225-0-2)" />
    <path
       transform="matrix(0.75394125,0,0,0.71688468,-310.34752,-104.90595)"
       inkscape:connector-curvature="0"
       id="path4229-0"
       d="m 470.15702,218.91489 c -5.06896,0.0232 -9.14952,4.03562 -9.14342,8.9842 0.007,4.96076 4.12933,8.99018 9.21083,8.9842 5.08149,-0.007 9.19448,-4.02344 9.18836,-8.9842 -0.007,-4.96076 -4.12933,-8.99018 -9.21083,-8.9842 h -0.045 z"
       style="fill:#2a251b;fill-opacity:1;fill-rule:nonzero;stroke:none;filter:url(#filter5536-7)" />
    <path
       transform="matrix(0.76750812,0,0,0.5607421,-104.51731,-228.59821)"
       inkscape:connector-curvature="0"
       id="path4229-1-8"
       d="m 220.83367,503.71332 c -2.7517,0.5383 -5.58353,0.82735 -8.40625,0.8125 -4.339,1.85972 -7.34992,5.83516 -7.34375,10.46875 0.009,6.40166 5.744,11.60147 12.8125,11.59375 7.0685,-0.008 12.78977,-5.22334 12.78125,-11.625 -0.007,-5.47853 -4.2014,-10.04608 -9.84375,-11.25 z"
       style="fill:#2a251b;fill-opacity:1;fill-rule:nonzero;stroke:none;filter:url(#filter4351-1-9)" />
    <path
       transform="matrix(0.86663864,0,0,0.86229602,-364.13456,-139.87568)"
       sodipodi:nodetypes="ccc"
       inkscape:connector-curvature="0"
       id="path4672-8"
       d="m 509.82922,217.81012 c 6.89687,-4.42419 16.19359,-13.54514 17.95075,-20.21054 0.39022,5.31352 -9.53793,20.36664 -17.95075,20.21054 z"
       style="fill:url(#radialGradient6971-2);fill-opacity:1;stroke:none;filter:url(#filter6218-7)" />
    <path
       sodipodi:nodetypes="cccc"
       transform="matrix(0.70182425,0,0,1.0179069,-82.556999,-467.51608)"
       inkscape:connector-curvature="0"
       id="path4954-5"
       d="m 238.30103,503.16089 c 6.58841,-3.89697 10.21428,-8.33624 13.22503,-14.23822 0.98195,7.28627 0.89903,15.2732 -0.24076,22.90652 z"
       style="opacity:0.732704;fill:url(#radialGradient6973-6);fill-opacity:1;stroke:none;filter:url(#filter4824-9)" />
    <path
       transform="matrix(0.88588426,0,0,0.85745444,-130.37389,-384.85494)"
       sodipodi:nodetypes="ccc"
       inkscape:connector-curvature="0"
       id="path4714-0"
       d="m 253.02627,486.90499 -8.01981,17.30077 c -2.03216,3.64129 -1.28318,5.18747 -0.15173,7.02204"
       style="fill:none;stroke:url(#radialGradient6975-1);stroke-width:1.39998;stroke-linecap:round;stroke-linejoin:miter;stroke-miterlimit:4;stroke-dasharray:none;stroke-opacity:1;filter:url(#filter4602-7)" />
    <path
       transform="matrix(0.27624751,-0.03480615,0.0449931,0.35352676,-5.1060704,-120.25102)"
       sodipodi:open="true"
       sodipodi:end="4.7077097"
       sodipodi:start="4.7111835"
       d="m 248.90314,504.87807 a 2.5566304,4.0175619 0 0 1 2.5597,4.00923 2.5566304,4.0175619 0 0 1 -2.5491,4.02587 2.5566304,4.0175619 0 0 1 -2.56413,-4.00223 2.5566304,4.0175619 0 0 1 2.54465,-4.03283"
       sodipodi:ry="4.0175619"
       sodipodi:rx="2.5566304"
       sodipodi:cy="508.89563"
       sodipodi:cx="248.90622"
       id="path4752-9"
       style="opacity:0.380503;fill:#000000;fill-opacity:1;stroke:url(#radialGradient6977-4);filter:url(#filter6186-5)"
       sodipodi:type="arc"
       sodipodi:arc-type="arc" />
    <path
       sodipodi:open="true"
       sodipodi:end="4.6934847"
       sodipodi:start="4.7111835"
       d="M 62.780961,44.437392 A 11.308644,11.080626 0 0 1 74.103059,55.455624 11.308644,11.080626 0 0 1 62.908299,66.598075 11.308644,11.080626 0 0 1 51.487135,55.678446 11.308644,11.080626 0 0 1 62.580825,44.439364"
       sodipodi:ry="11.080626"
       sodipodi:rx="11.308644"
       sodipodi:cy="55.518009"
       sodipodi:cx="62.794594"
       id="path5146-9-9-39-6"
       style="fill:url(#radialGradient6979-3);fill-opacity:1;fill-rule:evenodd;stroke:none;stroke-width:0.885649"
       sodipodi:type="arc"
       sodipodi:arc-type="arc" />
    <path
       sodipodi:open="true"
       sodipodi:end="4.7077097"
       sodipodi:start="4.7111835"
       d="m 65.376317,52.824955 a 4.9519582,4.6373129 0 0 1 4.957917,4.627693 4.9519582,4.6373129 0 0 1 -4.937377,4.64691 4.9519582,4.6373129 0 0 1 -4.966493,-4.619621 4.9519582,4.6373129 0 0 1 4.928751,-4.654934"
       sodipodi:ry="4.6373129"
       sodipodi:rx="4.9519582"
       sodipodi:cy="57.462265"
       sodipodi:cx="65.382286"
       id="path5146-5-2-9-8-3"
       style="fill:url(#radialGradient6981-2);fill-opacity:1;fill-rule:evenodd;stroke:url(#radialGradient6983-1);stroke-width:0.379123"
       sodipodi:type="arc"
       sodipodi:arc-type="arc" />
    <path
       sodipodi:open="true"
       sodipodi:end="4.7077097"
       sodipodi:start="4.7111835"
       d="m 65.394508,55.506705 a 2.158637,2.040431 0 0 1 2.161234,2.036198 2.158637,2.040431 0 0 1 -2.15228,2.044654 2.158637,2.040431 0 0 1 -2.164973,-2.032647 2.158637,2.040431 0 0 1 2.14852,-2.048184"
       sodipodi:ry="2.040431"
       sodipodi:rx="2.158637"
       sodipodi:cy="57.547134"
       sodipodi:cx="65.39711"
       id="path5146-5-2-0-1-1-3-8"
       style="fill:#000000;fill-opacity:1;fill-rule:evenodd;stroke:none;stroke-width:0.166038"
       sodipodi:type="arc"
       sodipodi:arc-type="arc" />
    <path
       transform="matrix(1.5646636,0,0,1.6457856,-466.98327,-805.41198)"
       sodipodi:open="true"
       sodipodi:end="4.7077097"
       sodipodi:start="4.7111835"
       d="m 337.45636,516.85387 a 4.4545431,4.213757 0 0 1 4.4599,4.20502 4.4545431,4.213757 0 0 1 -4.44142,4.22248 4.4545431,4.213757 0 0 1 -4.46762,-4.19769 4.4545431,4.213757 0 0 1 4.43367,-4.22976"
       sodipodi:ry="4.213757"
       sodipodi:rx="4.4545431"
       sodipodi:cy="521.06763"
       sodipodi:cx="337.46173"
       id="path5238-8-37-5"
       style="fill:url(#radialGradient6985-7);fill-opacity:1;fill-rule:evenodd;stroke:none;filter:url(#filter5112-62-6)"
       sodipodi:type="arc"
       sodipodi:arc-type="arc" />
    <path
       transform="matrix(0.75239004,0,0,0.78285036,-191.60453,-353.44992)"
       sodipodi:open="true"
       sodipodi:end="4.7077097"
       sodipodi:start="4.7111835"
       d="m 337.45636,516.85387 a 4.4545431,4.213757 0 0 1 4.4599,4.20502 4.4545431,4.213757 0 0 1 -4.44142,4.22248 4.4545431,4.213757 0 0 1 -4.46762,-4.19769 4.4545431,4.213757 0 0 1 4.43367,-4.22976"
       sodipodi:ry="4.213757"
       sodipodi:rx="4.4545431"
       sodipodi:cy="521.06763"
       sodipodi:cx="337.46173"
       id="path5238-6-0-6-6"
       style="fill:#ffffff;fill-opacity:1;fill-rule:evenodd;stroke:none;filter:url(#filter5448-8-50-3)"
       sodipodi:type="arc"
       sodipodi:arc-type="arc" />
    <path
       sodipodi:open="true"
       sodipodi:end="4.6934847"
       sodipodi:start="4.7111835"
       d="m 43.247379,50.493 a 7.1396551,6.9957094 0 0 1 7.148148,6.956318 7.1396551,6.9957094 0 0 1 -7.067755,7.034742 7.1396551,6.9957094 0 0 1 -7.210693,-6.894064 7.1396551,6.9957094 0 0 1 7.003944,-7.095751"
       sodipodi:ry="6.9957094"
       sodipodi:rx="7.1396551"
       sodipodi:cy="57.488705"
       sodipodi:cx="43.255985"
       id="path5146-9-9-3-0-1"
       style="fill:url(#radialGradient6987-4);fill-opacity:1;fill-rule:evenodd;stroke:none;stroke-width:0.559201"
       sodipodi:type="arc"
       sodipodi:arc-type="arc" />
    <path
       sodipodi:open="true"
       sodipodi:end="4.7077097"
       sodipodi:start="4.7111835"
       d="m 44.885662,55.78862 a 3.1263967,2.9277442 0 0 1 3.130159,2.92167 3.1263967,2.9277442 0 0 1 -3.117191,2.933803 3.1263967,2.9277442 0 0 1 -3.135573,-2.916574 3.1263967,2.9277442 0 0 1 3.111745,-2.938869"
       sodipodi:ry="2.9277442"
       sodipodi:rx="3.1263967"
       sodipodi:cy="58.716362"
       sodipodi:cx="44.889431"
       id="path5146-5-2-9-0-8-1"
       style="fill:url(#radialGradient6989-2);fill-opacity:1;fill-rule:evenodd;stroke:url(#radialGradient6991-5);stroke-width:0.239397"
       sodipodi:type="arc"
       sodipodi:arc-type="arc" />
    <path
       sodipodi:open="true"
       sodipodi:end="4.7077097"
       sodipodi:start="4.7111835"
       d="m 44.897352,57.48153 a 1.3628464,1.2882156 0 0 1 1.364486,1.285543 1.3628464,1.2882156 0 0 1 -1.358834,1.290882 1.3628464,1.2882156 0 0 1 -1.366846,-1.283301 1.3628464,1.2882156 0 0 1 1.356459,-1.293111"
       sodipodi:ry="1.2882156"
       sodipodi:rx="1.3628464"
       sodipodi:cy="58.769745"
       sodipodi:cx="44.898994"
       id="path5146-5-2-0-1-1-0-4-5"
       style="fill:#000000;fill-opacity:1;fill-rule:evenodd;stroke:none;stroke-width:0.104828"
       sodipodi:type="arc"
       sodipodi:arc-type="arc" />
    <path
       transform="matrix(0.98784308,0,0,1.0390586,-291.21689,-486.05545)"
       sodipodi:open="true"
       sodipodi:end="4.7077097"
       sodipodi:start="4.7111835"
       d="m 337.45636,516.85387 a 4.4545431,4.213757 0 0 1 4.4599,4.20502 4.4545431,4.213757 0 0 1 -4.44142,4.22248 4.4545431,4.213757 0 0 1 -4.46762,-4.19769 4.4545431,4.213757 0 0 1 4.43367,-4.22976"
       sodipodi:ry="4.213757"
       sodipodi:rx="4.4545431"
       sodipodi:cy="521.06763"
       sodipodi:cx="337.46173"
       id="path5238-8-3-3-9"
       style="fill:url(#radialGradient6993-4);fill-opacity:1;fill-rule:evenodd;stroke:none;filter:url(#filter5112-6-8-7)"
       sodipodi:type="arc"
       sodipodi:arc-type="arc" />
    <path
       transform="matrix(0.47501783,0,0,0.4942489,-117.35779,-200.71121)"
       sodipodi:open="true"
       sodipodi:end="4.7077097"
       sodipodi:start="4.7111835"
       d="m 337.45636,516.85387 a 4.4545431,4.213757 0 0 1 4.4599,4.20502 4.4545431,4.213757 0 0 1 -4.44142,4.22248 4.4545431,4.213757 0 0 1 -4.46762,-4.19769 4.4545431,4.213757 0 0 1 4.43367,-4.22976"
       sodipodi:ry="4.213757"
       sodipodi:rx="4.4545431"
       sodipodi:cy="521.06763"
       sodipodi:cx="337.46173"
       id="path5238-6-0-3-9-8"
       style="fill:#ffffff;fill-opacity:1;fill-rule:evenodd;stroke:none;filter:url(#filter5448-8-5-7-4)"
       sodipodi:type="arc"
       sodipodi:arc-type="arc" />
    <path
       sodipodi:type="arc"
       style="fill:url(#radialGradient6995-0);fill-opacity:1;fill-rule:evenodd;stroke:none;stroke-width:0.384871"
       id="path5737-4"
       sodipodi:cx="71.237625"
       sodipodi:cy="11.341762"
       sodipodi:rx="12.906311"
       sodipodi:ry="9.1445847"
       d="M 71.222067,2.1971836 A 12.906311,9.1445847 0 0 1 84.143908,11.322796 12.906311,9.1445847 0 0 1 71.2756,20.486307 12.906311,9.1445847 0 0 1 58.331408,11.37661 12.906311,9.1445847 0 0 1 71.177233,2.197277"
       sodipodi:start="4.7111835"
       sodipodi:end="4.7077097"
       sodipodi:open="true"
       transform="matrix(0.53607584,0.84416983,-0.85161664,0.52416515,0,0)"
       sodipodi:arc-type="arc" />
    <path
       sodipodi:type="arc"
       style="fill:url(#radialGradient6997-3);fill-opacity:1;fill-rule:evenodd;stroke:none;filter:url(#filter5112-0-1)"
       id="path5238-8-1-8"
       sodipodi:cx="337.46173"
       sodipodi:cy="521.06763"
       sodipodi:rx="4.4545431"
       sodipodi:ry="4.213757"
       d="m 337.45636,516.85387 a 4.4545431,4.213757 0 0 1 4.4599,4.20502 4.4545431,4.213757 0 0 1 -4.44142,4.22248 4.4545431,4.213757 0 0 1 -4.46762,-4.19769 4.4545431,4.213757 0 0 1 4.43367,-4.22976"
       sodipodi:start="4.7111835"
       sodipodi:end="4.7077097"
       sodipodi:open="true"
       transform="matrix(0.86942121,0,0,0.91449709,-268.68517,-416.31108)"
       sodipodi:arc-type="arc" />
    <path
       style="fill:none;stroke:url(#radialGradient6999-9);stroke-width:1px;stroke-linecap:butt;stroke-linejoin:miter;stroke-opacity:1;filter:url(#filter5938-6)"
       d="m 294.74269,501.97176 c 11.16044,5.22592 13.56036,2.22675 18.62243,0.7941"
       id="path5840-1"
       inkscape:connector-curvature="0"
       sodipodi:nodetypes="cc"
       transform="matrix(0.38648458,0,0,0.3845478,-86.75405,-116.86678)" />
    <path
       sodipodi:nodetypes="cccc"
       inkscape:connector-curvature="0"
       id="path6336-0"
       d="m 56.967184,77.438466 c 8.295793,0.671139 16.315711,-0.633107 18.946865,-3.876093 0.666642,0.942652 0.560542,0.757087 1.18045,1.644418 -6.737546,4.813858 -14.612827,3.349969 -20.127315,2.231675 z"
       style="fill:url(#linearGradient2126);fill-opacity:1;stroke:none;stroke-width:0.385467" />
    <path
       sodipodi:nodetypes="ccc"
       inkscape:connector-curvature="0"
       id="path6354-3"
       d="m 73.139818,71.976715 c 1.849855,0.910349 4.795882,3.676759 4.603901,6.342665 0,0 1.163376,-5.07283 -4.603901,-6.342665 z"
       style="fill:url(#radialGradient7003-6);fill-opacity:1;stroke:none;stroke-width:0.385467" />
    <path
       style="fill:url(#linearGradient2128);fill-opacity:1;stroke:none;stroke-width:0.385467"
       d="m 72.756253,77.015018 c 4.456207,3.949471 8.960554,7.867669 16.452368,12.895856 L 92.040649,85.61133 C 88.913509,83.301896 83.673856,79.301352 75.838118,75.10886 Z"
       id="path6364-0"
       inkscape:connector-curvature="0"
       sodipodi:nodetypes="ccccc" />
    <path
       sodipodi:nodetypes="ccccccccc"
       inkscape:connector-curvature="0"
       id="path6410-4"
       d="m 89.194372,89.909368 c -1.64449,-1.280864 1.878175,-5.257561 2.846277,-4.298038 l 0.309633,0.606215 0.715547,0.36368 9.239141,8.286055 -2.16499,1.952194 -10.308924,-6.609093 -0.301034,-0.26554 z"
       style="fill:url(#linearGradient2130);fill-opacity:1;stroke:none;stroke-width:0.385467" />
    <path
       transform="matrix(0.41285596,0,0,0.41245939,-183.05562,-131.45966)"
       sodipodi:nodetypes="ccccccc"
       inkscape:connector-curvature="0"
       id="path6548-4"
       d="m 659.2416,532.92613 c 0.0707,-2.957 4.31086,-6.83731 6.59919,-6.82068 l 0.84159,1.39347 0.7719,0.93084 -5.11623,5.74238 -0.55753,-0.46315 z"
       style="opacity:0.540881;fill:url(#linearGradient2260-0);fill-opacity:1;stroke:none;filter:url(#filter6590-9)" />
    <path
       style="fill:#000000;fill-opacity:1;stroke:none;stroke-width:0.385467"
       d="m 110.11204,109.58057 c -6.57352,-1.16565 -16.118545,-10.782833 -9.46133,-15.985802 9.16158,-0.0528 6.02202,10.827372 9.46133,15.985802 z"
       id="path6608-44"
       inkscape:connector-curvature="0"
       sodipodi:nodetypes="ccc" />
    <path
       style="fill:url(#radialGradient7011-9);fill-opacity:1;stroke:none;filter:url(#filter6660-7)"
       d="m 693.76653,576.35952 c -14.41776,-2.77948 -36.59027,-26.6022 -21.98878,-39.00868 20.09397,-0.12626 14.96585,27.18553 21.98878,39.00868 z"
       id="path6608-4-7"
       inkscape:connector-curvature="0"
       sodipodi:nodetypes="ccc"
       transform="matrix(0.42358216,0,0,0.40510819,-183.81172,-123.99371)" />
    <path
       style="fill:none;stroke:#8d8d8d;stroke-width:1px;stroke-linecap:butt;stroke-linejoin:miter;stroke-opacity:1;filter:url(#filter6762-1)"
       d="m 672.05543,537.58158 c 4.01865,4.48971 7.81024,12.24974 9.00692,16.85912"
       id="path6664-6"
       inkscape:connector-curvature="0"
       sodipodi:nodetypes="cc"
       transform="matrix(0.38648458,0,0,0.3845478,-158.73129,-112.59833)" />
    <path
       style="fill:none;stroke:url(#linearGradient2262-9);stroke-width:1px;stroke-linecap:round;stroke-linejoin:miter;stroke-opacity:1;filter:url(#filter6828-6)"
       d="m 672.51732,561.13816 6.69746,6.69746"
       id="path6766-3"
       inkscape:connector-curvature="0"
       transform="matrix(0.46479448,0,0,0.5120925,-212.06006,-185.21716)" />
    <path
       style="fill:url(#linearGradient2132);fill-opacity:1;stroke:none;stroke-width:0.385467"
       d="m 75.838118,75.108862 c -1.097543,0.547948 -2.243866,1.035355 -3.081865,1.906157 l 1.372845,1.21279 c -0.88172,-1.273963 1.672109,-3.104344 2.086386,-2.916104 z"
       id="path6909-1"
       inkscape:connector-curvature="0"
       sodipodi:nodetypes="ccccc" />
  </g>
</svg>
