<?xml version="1.0" encoding="UTF-8" standalone="no"?>
<svg
   clip-rule="evenodd"
   fill-rule="evenodd"
   stroke-linejoin="round"
   stroke-miterlimit="2"
   viewBox="0 0 62 62"
   version="1.1"
   id="svg4"
   sodipodi:docname="git.svg"
   width="62"
   height="62"
   inkscape:version="1.4 (e7c3feb100, 2024-10-09)"
   xmlns:inkscape="http://www.inkscape.org/namespaces/inkscape"
   xmlns:sodipodi="http://sodipodi.sourceforge.net/DTD/sodipodi-0.dtd"
   xmlns:xlink="http://www.w3.org/1999/xlink"
   xmlns="http://www.w3.org/2000/svg"
   xmlns:svg="http://www.w3.org/2000/svg">
  <defs
     id="defs4">
    <linearGradient
       id="linearGradient4"
       inkscape:collect="always">
      <stop
         style="stop-color:#c83771;stop-opacity:1"
         offset="0"
         id="stop4" />
      <stop
         style="stop-color:#ff5555;stop-opacity:1"
         offset="1"
         id="stop5" />
    </linearGradient>
    <linearGradient
       inkscape:collect="always"
       xlink:href="#linearGradient4"
       id="linearGradient5"
       x1="24.465302"
       y1="44.999874"
       x2="25.390629"
       y2="3.2256584"
       gradientUnits="userSpaceOnUse" />
  </defs>
  <sodipodi:namedview
     id="namedview4"
     pagecolor="#ffffff"
     bordercolor="#000000"
     borderopacity="0.25"
     inkscape:showpageshadow="2"
     inkscape:pageopacity="0.0"
     inkscape:pagecheckerboard="0"
     inkscape:deskcolor="#d1d1d1"
     inkscape:zoom="7.7916667"
     inkscape:cx="30.994652"
     inkscape:cy="26.053476"
     inkscape:window-width="1920"
     inkscape:window-height="994"
     inkscape:window-x="0"
     inkscape:window-y="0"
     inkscape:window-maximized="1"
     inkscape:current-layer="svg4" />
  <linearGradient
     id="a"
     x2="1"
     gradientTransform="matrix(0,-42,42,0,24,45)"
     gradientUnits="userSpaceOnUse">
    <stop
       stop-color="#9b1f1f"
       offset="0"
       id="stop1" />
    <stop
       stop-color="#e23127"
       offset="1"
       id="stop2" />
  </linearGradient>
  <g
     transform="matrix(1.3333373,0,0,1.3333373,-1.0001781,-1.0000123)"
     id="g4">
    <path
       d="m 23.999,3 c -1.1,0 -2.2,0.41 -3.023,1.232 L 4.232,20.978 C 2.588,22.623 2.59,25.375 4.235,27.02 l 16.744,16.745 c 1.644,1.645 4.399,1.647 6.044,0.003 L 43.767,27.022 c 1.644,-1.645 1.644,-4.399 0,-6.044 L 27.023,4.232 C 26.2,3.41 25.099,3 23.999,3 Z"
       fill-rule="nonzero"
       id="path2"
       style="fill:url(#linearGradient5)" />
    <path
       d="M 15.313,9.898 13.898,11.313 20,17.414 V 32 h 2 V 19.414 l 6.293,6.293 1.414,-1.414 z"
       id="path3"
       style="fill:#312c2c;fill-opacity:1" />
    <path
       d="m 21,13 c -2.194,0 -4,1.806 -4,4 0,2.194 1.806,4 4,4 2.194,0 4,-1.806 4,-4 0,-2.194 -1.806,-4 -4,-4 z m 8,8 c -2.194,0 -4,1.806 -4,4 0,2.194 1.806,4 4,4 2.194,0 4,-1.806 4,-4 0,-2.194 -1.806,-4 -4,-4 z m -8,7 c -2.194,0 -4,1.806 -4,4 0,2.194 1.806,4 4,4 2.194,0 4,-1.806 4,-4 0,-2.194 -1.806,-4 -4,-4 z"
       fill-rule="nonzero"
       id="path4"
       style="fill:#ffffff;fill-opacity:1" />
  </g>
</svg>
