<?xml version="1.0" encoding="UTF-8" standalone="no"?>
<svg
   width="62"
   height="62"
   version="1.1"
   id="svg8"
   sodipodi:docname="gmail-offline.svg"
   inkscape:version="1.4 (e7c3feb100, 2024-10-09)"
   xmlns:inkscape="http://www.inkscape.org/namespaces/inkscape"
   xmlns:sodipodi="http://sodipodi.sourceforge.net/DTD/sodipodi-0.dtd"
   xmlns="http://www.w3.org/2000/svg"
   xmlns:svg="http://www.w3.org/2000/svg">
  <defs
     id="defs8" />
  <sodipodi:namedview
     id="namedview8"
     pagecolor="#ffffff"
     bordercolor="#000000"
     borderopacity="0.25"
     inkscape:showpageshadow="2"
     inkscape:pageopacity="0.0"
     inkscape:pagecheckerboard="0"
     inkscape:deskcolor="#d1d1d1"
     inkscape:zoom="11.6875"
     inkscape:cx="31.957219"
     inkscape:cy="32"
     inkscape:window-width="1920"
     inkscape:window-height="994"
     inkscape:window-x="0"
     inkscape:window-y="0"
     inkscape:window-maximized="1"
     inkscape:current-layer="svg8" />
  <g
     id="g8"
     transform="matrix(1.0714286,0,0,1.0697674,-3.2857153,-3.7665226)">
    <path
       style="opacity:0.2;stroke-width:0.99999"
       d="m 4.0004312,18.625458 v 31.55742 c 0,2.108951 1.6125326,3.816264 3.6015003,3.816264 H 16.000224 V 30.078156 l -9.4451493,-7.0388 C 4.8620518,21.789985 4.1108005,20.212109 4.0199621,18.641083 Z m 55.9990338,0 -0.0196,0.01562 c -0.09084,1.571025 -0.84209,3.148901 -2.535113,4.398274 l -9.445081,7.038804 v 23.920986 h 8.398293 c 1.988968,0 3.6015,-1.707313 3.6015,-3.816264 z"
       id="path1" />
    <path
       style="fill:#5f5f5f;stroke-width:0.99999"
       d="m 59.999465,17.625513 -0.0196,0.01562 c -0.09084,1.571028 -0.84209,3.148903 -2.535113,4.398276 l -9.445081,7.038803 v 23.920987 h 8.398293 c 1.988968,0 3.6015,-1.707313 3.6015,-3.816265 z"
       id="path2" />
    <path
       style="fill:#afafaf;stroke-width:0.99999"
       d="m 4.0004312,17.625513 0.0196,0.01562 c 0.090838,1.571028 0.8420895,3.148903 2.5351122,4.398276 l 9.4450806,7.038803 V 52.999197 H 7.6019311 c -1.9889677,0 -3.6014999,-1.707313 -3.6014999,-3.816265 z"
       id="path3" />
    <path
       style="opacity:0.2;stroke-width:0.99999"
       d="M 10.262042,12.004611 C 5.1802527,11.787017 1.1852035,19.076642 6.5550747,23.039356 l 9.4451493,7.0388 15.999724,11.921432 15.999724,-11.921432 9.445149,-7.0388 c 5.369872,-3.962714 1.375283,-11.252268 -3.706966,-11.034745 -1.172828,0.0502 -2.402706,0.501606 -3.589782,1.484319 L 47.999672,15.059185 31.999948,26.742344 16.000224,15.059185 13.851824,13.48893 c -1.187075,-0.982713 -2.417061,-1.434105 -3.589782,-1.484319 z"
       id="path4" />
    <path
       style="fill:#8f8f8f;stroke-width:0.99999"
       d="M 16.000224,14.059239 V 29.07821 L 31.999948,40.999643 47.999672,29.07821 V 14.059239 l -15.999724,11.68316 z"
       id="path5" />
    <path
       style="fill:#727272;stroke-width:0.99999"
       d="M 10.262042,11.004665 C 5.1802527,10.787071 1.1852036,18.076696 6.5550747,22.039411 L 16.000224,29.07821 V 14.059239 l -2.1484,-1.570254 c -1.187075,-0.982714 -2.417061,-1.434106 -3.589782,-1.48432 z"
       id="path6" />
    <path
       style="fill:#7d7d7d;stroke-width:0.99999"
       d="m 53.737855,11.004665 c -1.172828,0.0502 -2.402706,0.501606 -3.589782,1.48432 l -2.148401,1.570254 V 29.07821 l 9.445149,-7.038799 c 5.369872,-3.962715 1.375283,-11.252269 -3.706966,-11.034746 z"
       id="path7" />
    <path
       style="opacity:0.2;fill:#ffffff;stroke-width:0.99999"
       d="m 10.261719,11.003906 c -3.5343139,-0.151333 -6.5200277,3.328312 -6.2167971,6.794786 0.278113,-3.103344 3.0237873,-5.929572 6.2167971,-5.792853 1.172721,0.05022 2.402768,0.501631 3.589843,1.484345 L 16,15.060466 32,26.741874 48,15.060466 50.148438,13.490184 c 1.187075,-0.982714 2.417015,-1.434146 3.589843,-1.484345 3.193298,-0.136674 5.938794,2.689526 6.216797,5.792853 0.303342,-3.466457 -2.682164,-6.94607 -6.216797,-6.794786 -1.172828,0.0502 -2.402767,0.501631 -3.589843,1.484345 L 48,14.058533 32,25.741894 16,14.058533 13.851562,12.488251 C 12.664487,11.505537 11.43444,11.05412 10.261719,11.003906 Z"
       id="path8" />
  </g>
</svg>
