<?xml version="1.0" encoding="UTF-8" standalone="no"?>
<svg
   width="62"
   height="62"
   version="1.1"
   id="svg5"
   sodipodi:docname="gmod.svg"
   inkscape:version="1.4 (unknown)"
   xmlns:inkscape="http://www.inkscape.org/namespaces/inkscape"
   xmlns:sodipodi="http://sodipodi.sourceforge.net/DTD/sodipodi-0.dtd"
   xmlns:xlink="http://www.w3.org/1999/xlink"
   xmlns="http://www.w3.org/2000/svg"
   xmlns:svg="http://www.w3.org/2000/svg">
  <defs
     id="defs5">
    <linearGradient
       id="linearGradient8"
       inkscape:collect="always">
      <stop
         style="stop-color:#003380;stop-opacity:1;"
         offset="0"
         id="stop8" />
      <stop
         style="stop-color:#0051cc;stop-opacity:1;"
         offset="1"
         id="stop10" />
    </linearGradient>
    <linearGradient
       id="linearGradient4217">
      <stop
         style="stop-color:#000000;stop-opacity:1;"
         offset="0"
         id="stop2" />
      <stop
         style="stop-color:#000000;stop-opacity:0;"
         offset="1"
         id="stop4" />
    </linearGradient>
    <linearGradient
       id="linearGradient4161">
      <stop
         style="stop-color:#334545;stop-opacity:1;"
         offset="0"
         id="stop7" />
      <stop
         style="stop-color:#4d6868;stop-opacity:1"
         offset="1"
         id="stop9" />
    </linearGradient>
    <linearGradient
       id="a-1-2"
       y1="510.79999"
       y2="527.14001"
       gradientUnits="userSpaceOnUse"
       x2="0">
      <stop
         stop-color="#7cbaf8"
         id="stop2-2-7" />
      <stop
         offset="1"
         stop-color="#f4fcff"
         id="stop4-70-0" />
    </linearGradient>
    <linearGradient
       id="c"
       y1="503.79999"
       x1="400.57001"
       y2="519.79999"
       x2="416.57001"
       gradientUnits="userSpaceOnUse">
      <stop
         stop-color="#292c2f"
         id="stop12" />
      <stop
         offset="1"
         stop-opacity="0"
         id="stop14" />
    </linearGradient>
    <linearGradient
       id="b"
       y1="542.79999"
       x1="408.57001"
       y2="521.79999"
       x2="387.57001"
       gradientUnits="userSpaceOnUse"
       gradientTransform="translate(-384.57,-499.8)">
      <stop
         stop-color="#197cf1"
         id="stop7-8" />
      <stop
         offset="1"
         stop-color="#20bcfa"
         id="stop9-7" />
    </linearGradient>
    <linearGradient
       xlink:href="#linearGradient1389"
       id="linearGradient4503-5-6"
       y1="37"
       y2="4"
       x2="0"
       gradientUnits="userSpaceOnUse"
       gradientTransform="matrix(1.0218446,0,0,0.99999999,21.748946,8.2587777)" />
    <linearGradient
       id="linearGradient1389">
      <stop
         style="stop-color:#ffaaaa;stop-opacity:1"
         id="stop1385"
         offset="0" />
      <stop
         offset="1"
         style="stop-color:#ff5555;stop-opacity:1"
         id="stop1387" />
    </linearGradient>
    <linearGradient
       id="paint543_linear_890_11"
       x1="978.5"
       y1="298"
       x2="978.5"
       y2="304"
       gradientUnits="userSpaceOnUse"
       gradientTransform="matrix(0.75000004,0,0,0.75000004,-717.38333,-173.49123)">
      <stop
         offset="0.189495"
         stop-color="#EFF2F6"
         id="stop1829" />
      <stop
         offset="0.850463"
         stop-color="#B7C6CD"
         id="stop1830" />
    </linearGradient>
    <linearGradient
       inkscape:collect="always"
       xlink:href="#linearGradient8"
       id="linearGradient10"
       x1="31.5"
       y1="59.017544"
       x2="31.5"
       y2="4.9824562"
       gradientUnits="userSpaceOnUse"
       gradientTransform="translate(-0.5,-1)" />
    <linearGradient
       id="linearGradient4144">
      <stop
         style="stop-color:#c83771;stop-opacity:1"
         offset="0"
         id="stop1141" />
      <stop
         style="stop-color:#de87aa;stop-opacity:1"
         offset="1"
         id="stop1143" />
    </linearGradient>
    <linearGradient
       id="c-0"
       gradientUnits="userSpaceOnUse"
       x1="10"
       x2="24"
       y1="10"
       y2="24"
       gradientTransform="translate(59.728813,26.237288)">
      <stop
         offset="0"
         stop-color="#292c2f"
         id="stop12-2" />
      <stop
         offset="1"
         stop-opacity="0"
         id="stop14-3" />
    </linearGradient>
    <linearGradient
       id="d"
       gradientUnits="userSpaceOnUse"
       x1="24"
       x2="24"
       y1="25"
       y2="7"
       gradientTransform="translate(59.728813,26.237288)">
      <stop
         offset="0"
         stop-color="#bb9d71"
         id="stop2-7" />
      <stop
         offset="1"
         stop-color="#f9f2e7"
         id="stop4-5" />
    </linearGradient>
  </defs>
  <sodipodi:namedview
     id="namedview5"
     pagecolor="#ffffff"
     bordercolor="#000000"
     borderopacity="0.25"
     inkscape:showpageshadow="2"
     inkscape:pageopacity="0.0"
     inkscape:pagecheckerboard="0"
     inkscape:deskcolor="#d1d1d1"
     inkscape:zoom="8.2643105"
     inkscape:cx="25.289466"
     inkscape:cy="49.671415"
     inkscape:window-width="1920"
     inkscape:window-height="998"
     inkscape:window-x="0"
     inkscape:window-y="0"
     inkscape:window-maximized="1"
     inkscape:current-layer="svg5" />
  <rect
     style="opacity:0.2;stroke-width:0.9823"
     width="55"
     height="55.017544"
     x="3.5"
     y="3.9824562"
     rx="8.25"
     ry="8.2526312"
     id="rect1" />
  <rect
     style="fill:url(#linearGradient10);stroke-width:0.9823"
     width="55"
     height="55.017544"
     x="3.5"
     y="3"
     rx="8.25"
     ry="8.2526312"
     id="rect2" />
  <path
     style="opacity:1;fill:#5a79a5;stroke-width:0.9823;fill-opacity:0.5"
     d="M 11.748466,3 C 7.1779652,3 3.5,6.6791384 3.5,11.251097 v 0.982456 c 0,-4.5719585 3.6779652,-8.2510969 8.248466,-8.2510969 h 38.503068 c 4.5705,0 8.248466,3.6791384 8.248466,8.2510969 V 11.251097 C 58.5,6.6791384 54.822034,3 50.251534,3 Z"
     id="path4" />
  <path
     d="m 30.258163,49.498259 a 16.247305,16.104469 0 0 1 -4.216562,-0.720865 10.599433,10.506249 0 0 1 -5.083086,-3.278411 9.9031195,9.8160576 0 0 1 -2.448699,-6.909585 c 0.0038,-0.01534 0.25144,-0.01917 3.133406,-0.01917 1.72144,0 3.12954,0.0038 3.12954,0.0076 0,0.02301 0.135392,0.671018 0.181813,0.878074 0.24758,1.065965 0.541579,1.752322 0.998051,2.319812 0.475814,0.594332 1.369416,1.157988 2.324913,1.468575 a 7.1178671,7.0552914 0 0 0 4.355825,-0.03067 c 1.245625,-0.398777 2.324911,-1.138817 3.056041,-2.085912 0.131527,-0.164881 0.313339,-0.437122 0.402312,-0.586664 0.154739,-0.268407 0.309473,-0.789886 0.386841,-1.292192 0.09282,-0.640344 0.100564,-1.242345 0.0232,-2.592052 a 19.342032,19.171988 0 0 1 -0.03867,-1.817506 l 0.0038,-0.180216 -0.08897,0.184052 a 4.4873511,4.4479012 0 0 1 -1.322986,1.591293 c -0.394576,0.306753 -0.928419,0.602 -1.524155,0.835901 a 12.765741,12.653513 0 0 1 -3.744597,0.751541 c -2.676915,-0.115013 -5.125615,-0.931739 -6.91282,-2.315957 a 11.605219,11.503194 0 0 1 -1.106357,-0.996924 7.7368122,7.6687951 0 0 1 -1.160521,-1.353542 c -1.005788,-1.487746 -1.55897,-3.347429 -1.852971,-6.215556 -0.228233,-2.23929 -0.208894,-4.118145 0.06189,-5.847457 a 12.765741,12.653513 0 0 1 0.912942,-3.159545 11.605219,11.503194 0 0 1 0.998046,-1.852015 10.83154,10.736315 0 0 1 2.321046,-2.465516 11.21838,11.119755 0 0 1 4.796824,-2.139596 c 0.696312,-0.126535 1.16052,-0.164874 2.054123,-0.164874 a 7.5433917,7.4770751 0 0 1 6.150765,2.906469 c 0.2205,0.287581 0.394578,0.563659 0.564788,0.893414 0.116053,0.226233 0.116053,0.218561 0.116053,0.210893 l -0.0076,-0.433287 -0.02321,-1.602778 -0.0076,-1.173327 0.185684,-0.0076 a 638.287,632.67559 0 0 1 6.568552,0 l 0.05416,0.0076 v 13.585271 c -0.0038,12.714864 -0.0076,13.596775 -0.02321,13.776992 a 10.057855,9.9694336 0 0 1 -3.663379,6.863572 13.152581,13.036952 0 0 1 -3.582144,2.013058 15.086783,14.954149 0 0 1 -5.972816,0.943262 z m 1.8607,-17.043897 a 4.2552467,4.2178373 0 0 0 1.75239,-0.67102 c 0.87426,-0.567489 1.67115,-1.495413 2.216597,-2.572879 0.154737,-0.306754 0.38684,-1.073633 0.518366,-1.71781 a 12.765741,12.653513 0 0 0 -0.154735,-5.487026 13.539423,13.420392 0 0 0 -0.56092,-1.725474 4.7581396,4.716309 0 0 0 -2.394544,-2.36199 5.4157683,5.3681564 0 0 0 -3.713669,-0.295248 5.028928,4.9847168 0 0 0 -1.071552,0.402608 4.6420874,4.6012771 0 0 0 -2.282356,2.461685 c -0.812366,1.871188 -1.021259,4.152654 -0.618947,6.710196 0.201158,1.273019 0.773685,2.519199 1.609259,3.512308 0.15087,0.180215 0.545445,0.57516 0.72726,0.720867 0.65763,0.536817 1.404232,0.885746 2.150834,1.000778 0.263053,0.03834 0.413918,0.046 1.056074,0.046 0.529973,0 0.65763,-0.0076 0.77368,-0.02301 z"
     style="fill:#ffffff;fill-opacity:1;stroke-width:0.0113702"
     id="path1" />
</svg>
