<?xml version="1.0" encoding="UTF-8" standalone="no"?>
<svg
   width="62"
   height="62"
   version="1.1"
   viewBox="0 0 62 62"
   id="svg4"
   sodipodi:docname="gnome-encfs-manager.svg"
   inkscape:version="1.4 (e7c3feb100, 2024-10-09)"
   xmlns:inkscape="http://www.inkscape.org/namespaces/inkscape"
   xmlns:sodipodi="http://sodipodi.sourceforge.net/DTD/sodipodi-0.dtd"
   xmlns:xlink="http://www.w3.org/1999/xlink"
   xmlns="http://www.w3.org/2000/svg"
   xmlns:svg="http://www.w3.org/2000/svg">
  <sodipodi:namedview
     id="namedview4"
     pagecolor="#ffffff"
     bordercolor="#000000"
     borderopacity="0.25"
     inkscape:showpageshadow="2"
     inkscape:pageopacity="0.0"
     inkscape:pagecheckerboard="0"
     inkscape:deskcolor="#d1d1d1"
     inkscape:zoom="5.84375"
     inkscape:cx="35.336898"
     inkscape:cy="33.882353"
     inkscape:window-width="1920"
     inkscape:window-height="994"
     inkscape:window-x="0"
     inkscape:window-y="0"
     inkscape:window-maximized="1"
     inkscape:current-layer="svg4" />
  <defs
     id="defs2">
    <linearGradient
       id="linearGradient7"
       inkscape:collect="always">
      <stop
         style="stop-color:#ffa348;stop-opacity:1"
         offset="0"
         id="stop7" />
      <stop
         style="stop-color:#c061cb;stop-opacity:1"
         offset="1"
         id="stop8" />
    </linearGradient>
    <linearGradient
       id="linearGradient1"
       inkscape:collect="always">
      <stop
         style="stop-color:#566c80;stop-opacity:1;"
         offset="0"
         id="stop3" />
      <stop
         style="stop-color:#33404c;stop-opacity:1;"
         offset="1"
         id="stop4" />
    </linearGradient>
    <linearGradient
       id="a"
       x1="135"
       x2="160"
       y1="120"
       y2="160"
       gradientTransform="matrix(0.05623,0,0,0.05623,0.071601,-0.05278)"
       gradientUnits="userSpaceOnUse">
      <stop
         stop-color="#eff7fc"
         offset="0"
         id="stop1" />
      <stop
         stop-color="#fff"
         offset="1"
         id="stop2" />
    </linearGradient>
    <radialGradient
       id="paint672_radial_890_11"
       cx="0"
       cy="0"
       r="1"
       gradientUnits="userSpaceOnUse"
       gradientTransform="matrix(-10.500123,-27.499983,30.022929,-11.463441,488.5,174.5)">
      <stop
         offset="0.311175"
         stop-color="#2E2E41"
         id="stop2087" />
      <stop
         offset="0.724231"
         stop-color="#566C80"
         id="stop2088" />
    </radialGradient>
    <linearGradient
       id="paint673_linear_890_11"
       x1="507"
       y1="217"
       x2="470.01401"
       y2="170.28101"
       gradientUnits="userSpaceOnUse">
      <stop
         offset="0.276084"
         stop-color="#FF7E07"
         id="stop2089" />
      <stop
         offset="1"
         stop-color="#FFE607"
         id="stop2090" />
    </linearGradient>
    <linearGradient
       id="paint674_linear_890_11"
       x1="486.478"
       y1="205"
       x2="486.478"
       y2="191"
       gradientUnits="userSpaceOnUse">
      <stop
         offset="0.340681"
         stop-color="#2E2E41"
         id="stop2091" />
      <stop
         offset="1"
         stop-color="#566C80"
         id="stop2092" />
    </linearGradient>
    <radialGradient
       inkscape:collect="always"
       xlink:href="#linearGradient1"
       id="radialGradient4"
       cx="492.754"
       cy="186.84103"
       fx="492.754"
       fy="186.84103"
       r="18"
       gradientTransform="matrix(-0.67716323,-1.7073373,1.5494037,-0.61452374,536.93668,1137.185)"
       gradientUnits="userSpaceOnUse" />
    <linearGradient
       inkscape:collect="always"
       xlink:href="#linearGradient1"
       id="linearGradient6"
       x1="479"
       y1="198"
       x2="487"
       y2="198"
       gradientUnits="userSpaceOnUse" />
    <linearGradient
       inkscape:collect="always"
       xlink:href="#linearGradient7"
       id="linearGradient8"
       x1="460.33051"
       y1="181.2317"
       x2="507"
       y2="217"
       gradientUnits="userSpaceOnUse" />
  </defs>
  <g
     id="g2273"
     transform="translate(-452,-158)">
    <path
       d="m 495,183 v -4 c 0,-6.627 -5.373,-12 -12,-12 -6.627,0 -12,5.373 -12,12 v 4 h -6 v -4 c 0,-9.941 8.059,-18 18,-18 9.941,0 18,8.059 18,18 v 4 z"
       id="path655"
       style="fill:url(#radialGradient4)" />
    <path
       d="m 459,185 c 0,-3.314 2.686,-6 6,-6 h 36 c 3.314,0 6,2.686 6,6 v 26 c 0,3.314 -2.686,6 -6,6 h -36 c -3.314,0 -6,-2.686 -6,-6 z"
       id="path656"
       style="fill:url(#linearGradient8)" />
    <path
       d="m 485,199.618 c 0,-0.713 0.411,-1.348 0.902,-1.865 0.681,-0.718 1.098,-1.687 1.098,-2.753 0,-2.209 -1.791,-4 -4,-4 -2.209,0 -4,1.791 -4,4 0,1.066 0.417,2.035 1.098,2.753 0.491,0.517 0.902,1.152 0.902,1.865 V 203 c 0,1.105 0.895,2 2,2 1.105,0 2,-0.895 2,-2 z"
       id="path657"
       style="fill:url(#linearGradient6)" />
  </g>
</svg>
