<?xml version="1.0" encoding="UTF-8" standalone="no"?>
<svg
   width="62"
   height="62"
   version="1.1"
   id="svg9"
   sodipodi:docname="gnome-taquin.svg"
   inkscape:version="1.4 (e7c3feb100, 2024-10-09)"
   xmlns:inkscape="http://www.inkscape.org/namespaces/inkscape"
   xmlns:sodipodi="http://sodipodi.sourceforge.net/DTD/sodipodi-0.dtd"
   xmlns="http://www.w3.org/2000/svg"
   xmlns:svg="http://www.w3.org/2000/svg">
  <defs
     id="defs9" />
  <sodipodi:namedview
     id="namedview9"
     pagecolor="#ffffff"
     bordercolor="#000000"
     borderopacity="0.25"
     inkscape:showpageshadow="2"
     inkscape:pageopacity="0.0"
     inkscape:pagecheckerboard="0"
     inkscape:deskcolor="#d1d1d1"
     inkscape:zoom="11.6875"
     inkscape:cx="31.957219"
     inkscape:cy="33.197861"
     inkscape:window-width="1920"
     inkscape:window-height="994"
     inkscape:window-x="0"
     inkscape:window-y="0"
     inkscape:window-maximized="1"
     inkscape:current-layer="svg9" />
  <g
     id="g9"
     transform="translate(-1.5000005,-0.99999925)">
    <rect
       style="opacity:0.2"
       width="57"
       height="57"
       x="4"
       y="4"
       rx="4.3850002"
       ry="4.3850002"
       id="rect1" />
    <path
       style="fill:#e4e4e4"
       d="M 8.3846155,2.9999985 C 5.9555385,2.9999985 4,4.955537 4,7.384614 V 21.999999 H 23 V 2.9999985 Z"
       id="path1" />
    <rect
       style="fill:#f3f3f3"
       width="19"
       height="19"
       x="23"
       y="3"
       id="rect2" />
    <path
       style="fill:#e4e4e4"
       d="m 56.615386,2.9999985 c 2.429077,0 4.384615,1.9555385 4.384615,4.3846155 v 14.615385 h -19 V 2.9999985 Z"
       id="path2" />
    <rect
       style="fill:#e4e4e4"
       width="19"
       height="19"
       x="23"
       y="22"
       id="rect3" />
    <rect
       style="fill:#f3f3f3"
       width="19"
       height="19"
       x="4"
       y="22"
       id="rect4" />
    <rect
       style="fill:#f3f3f3"
       width="19"
       height="19"
       x="42"
       y="22"
       id="rect5" />
    <path
       style="fill:#bebebb"
       d="M 8.3846155,60 C 5.9555385,60 4,58.044461 4,55.615384 V 41 h 19 v 19 z"
       id="path5" />
    <rect
       style="fill:#f3f3f3"
       width="19"
       height="19"
       x="23"
       y="-60"
       transform="scale(1,-1)"
       id="rect6" />
    <path
       style="fill:#e4e4e4"
       d="m 56.615386,60 c 2.429077,0 4.384615,-1.955539 4.384615,-4.384616 V 41 h -19 v 19 z"
       id="path6" />
    <path
       style="opacity:0.1"
       d="M 61,11.308594 A 24.399736,22.377517 0 0 0 49.308594,23 H 53.46875 A 20.449095,18.7543 0 0 1 61,15.316406 Z m -38,0.613281 v 3.826172 C 26.040001,17.1859 29.466428,18 33.09375,18 A 23.633763,23.633763 0 0 0 42,16.269531 v -3.701172 c -2.654971,1.324411 -5.684072,2.078125 -8.90625,2.078125 -3.712824,0 -7.171102,-1.00008 -10.09375,-2.724609 z M 11.197266,23 a 20.233219,20.233219 0 0 1 2.03125,8.867188 A 20.205314,20.205312 0 0 1 10.523438,42 H 14.78125 A 23.912689,23.912687 0 0 0 17.027344,31.867188 23.923969,23.923969 0 0 0 15.326172,23 Z m 40.896484,7.068359 c -3.627319,0 -7.054305,0.816053 -10.09375,2.253907 v 3.822265 c 2.922653,-1.72453 6.380376,-2.722658 10.09375,-2.722656 3.221626,0 6.251278,0.753154 8.90625,2.078125 V 31.796875 A 23.633766,23.633766 0 0 0 52.09375,30.068359 Z M 23,30.308594 v 3.705078 C 26.450127,35.791664 29.23084,38.587718 30.939453,42 h 0.769531 c -1.124657,2.820673 -1.701894,5.830569 -1.701172,8.867188 -0.0021,3.501648 0.764314,6.960137 2.246094,10.132812 h 4.261719 c -1.779382,-3.080511 -2.713869,-6.575323 -2.708984,-10.132812 0,-3.1825 0.732891,-6.190563 2.033203,-8.867188 H 34.691406 C 32.537026,36.754481 28.33429,32.551745 23,30.308594 Z M 49.308594,42 A 25.617474,24.883245 0 0 0 61,53.691406 V 49.238281 A 21.463235,20.848072 0 0 1 53.814453,42 Z"
       id="path7" />
    <path
       style="fill:#008080"
       d="M 61,10.308594 A 24.399736,22.377517 0 0 0 49.308594,22 H 53.46875 A 20.449095,18.7543 0 0 1 61,14.316406 Z m -38,0.613281 v 3.826172 C 26.040001,16.1859 29.466428,17 33.09375,17 A 23.633763,23.633763 0 0 0 42,15.269531 v -3.701172 c -2.654971,1.324411 -5.684072,2.078125 -8.90625,2.078125 -3.712824,0 -7.171102,-1.00008 -10.09375,-2.724609 z M 11.197266,22 a 20.233219,20.233219 0 0 1 2.03125,8.867188 A 20.205314,20.205312 0 0 1 10.523438,41 H 14.78125 A 23.912689,23.912687 0 0 0 17.027344,30.867188 23.923969,23.923969 0 0 0 15.326172,22 Z m 40.896484,7.068359 c -3.627319,0 -7.054305,0.816053 -10.09375,2.253907 v 3.822265 c 2.922653,-1.72453 6.380376,-2.722658 10.09375,-2.722656 3.221626,0 6.251278,0.753154 8.90625,2.078125 V 30.796875 A 23.633766,23.633766 0 0 0 52.09375,29.068359 Z M 23,29.308594 v 3.705078 C 26.450127,34.791664 29.23084,37.587718 30.939453,41 h 0.769531 c -1.124657,2.820673 -1.701894,5.830569 -1.701172,8.867188 -0.0021,3.501648 0.764314,6.960137 2.246094,10.132812 h 4.261719 c -1.779382,-3.080511 -2.713869,-6.575323 -2.708984,-10.132812 0,-3.1825 0.732891,-6.190563 2.033203,-8.867188 H 34.691406 C 32.537026,35.754481 28.33429,31.551745 23,29.308594 Z M 49.308594,41 A 25.617474,24.883245 0 0 0 61,52.691406 V 48.238281 A 21.463235,20.848072 0 0 1 53.814453,41 Z"
       id="path8" />
    <path
       style="opacity:0.2;fill:#ffffff"
       d="M 8.3847656,3 C 5.9556887,3 4,4.9556887 4,7.3847656 v 1 C 4,5.9556887 5.9556887,4 8.3847656,4 H 56.615234 C 59.044311,4 61,5.9556887 61,8.3847656 v -1 C 61,4.9556887 59.044311,3 56.615234,3 Z"
       id="path9" />
  </g>
</svg>
