<?xml version="1.0" encoding="UTF-8" standalone="no"?>
<!-- Created with Inkscape (http://www.inkscape.org/) -->

<svg
   width="62"
   height="62"
   viewBox="0 0 62 62"
   version="1.1"
   id="svg1"
   inkscape:version="1.4 (e7c3feb100, 2024-10-09)"
   sodipodi:docname="gnome-contacts.svg"
   xmlns:inkscape="http://www.inkscape.org/namespaces/inkscape"
   xmlns:sodipodi="http://sodipodi.sourceforge.net/DTD/sodipodi-0.dtd"
   xmlns:xlink="http://www.w3.org/1999/xlink"
   xmlns="http://www.w3.org/2000/svg"
   xmlns:svg="http://www.w3.org/2000/svg">
  <sodipodi:namedview
     id="namedview1"
     pagecolor="#ffffff"
     bordercolor="#000000"
     borderopacity="0.25"
     inkscape:showpageshadow="2"
     inkscape:pageopacity="0.0"
     inkscape:pagecheckerboard="0"
     inkscape:deskcolor="#d1d1d1"
     inkscape:document-units="px"
     inkscape:zoom="7.5994533"
     inkscape:cx="39.871289"
     inkscape:cy="34.476164"
     inkscape:window-width="1920"
     inkscape:window-height="998"
     inkscape:window-x="0"
     inkscape:window-y="0"
     inkscape:window-maximized="1"
     inkscape:current-layer="layer1" />
  <defs
     id="defs1">
    <linearGradient
       id="linearGradient1"
       inkscape:collect="always">
      <stop
         style="stop-color:#3a4d66;stop-opacity:1;"
         offset="0"
         id="stop1" />
      <stop
         style="stop-color:#5599ff;stop-opacity:1"
         offset="1"
         id="stop2" />
    </linearGradient>
    <radialGradient
       id="paint664_radial_890_11"
       cx="0"
       cy="0"
       r="1"
       gradientUnits="userSpaceOnUse"
       gradientTransform="matrix(-16.000099,-9.999913,9.999913,-16.000099,583,171)">
      <stop
         offset="0.42141"
         stop-color="#B7C6CD"
         id="stop2071" />
      <stop
         offset="1"
         stop-color="#EFF2F6"
         id="stop2072" />
    </radialGradient>
    <linearGradient
       id="paint665_linear_890_11"
       x1="605"
       y1="180"
       x2="601.466"
       y2="162.72301"
       gradientUnits="userSpaceOnUse">
      <stop
         stop-color="#5200FF"
         id="stop2073" />
      <stop
         offset="1"
         stop-color="#0085FF"
         id="stop2074" />
    </linearGradient>
    <linearGradient
       id="paint666_linear_890_11"
       x1="567"
       y1="181"
       x2="562.11798"
       y2="174.183"
       gradientUnits="userSpaceOnUse">
      <stop
         stop-color="#5200FF"
         id="stop2075" />
      <stop
         offset="0.670391"
         stop-color="#0085FF"
         id="stop2076" />
    </linearGradient>
    <linearGradient
       id="paint667_linear_890_11"
       x1="605"
       y1="180"
       x2="597.32001"
       y2="174.24001"
       gradientUnits="userSpaceOnUse">
      <stop
         stop-color="#5200FF"
         id="stop2077" />
      <stop
         offset="1"
         stop-color="#0085FF"
         id="stop2078" />
    </linearGradient>
    <linearGradient
       id="paint668_linear_890_11"
       x1="567"
       y1="180"
       x2="561.23999"
       y2="172.32001"
       gradientUnits="userSpaceOnUse">
      <stop
         stop-color="#5200FF"
         id="stop2079" />
      <stop
         offset="1"
         stop-color="#0085FF"
         id="stop2080" />
    </linearGradient>
    <linearGradient
       id="paint669_linear_890_11"
       x1="607"
       y1="179"
       x2="602.50598"
       y2="171.80901"
       gradientUnits="userSpaceOnUse">
      <stop
         stop-color="#5200FF"
         id="stop2081" />
      <stop
         offset="1"
         stop-color="#0085FF"
         id="stop2082" />
    </linearGradient>
    <linearGradient
       id="paint670_linear_890_11"
       x1="607"
       y1="217"
       x2="568.82599"
       y2="170.01601"
       gradientUnits="userSpaceOnUse">
      <stop
         stop-color="#5200FF"
         id="stop2083" />
      <stop
         offset="1"
         stop-color="#0085FF"
         id="stop2084" />
    </linearGradient>
    <radialGradient
       id="paint671_radial_890_11"
       cx="0"
       cy="0"
       r="1"
       gradientUnits="userSpaceOnUse"
       gradientTransform="matrix(0,20,-16,0,583,187)">
      <stop
         offset="0.869716"
         stop-color="#EFF2F6"
         id="stop2085" />
      <stop
         offset="1"
         stop-color="#B7C6CD"
         id="stop2086" />
    </radialGradient>
    <linearGradient
       id="paint451_linear_890_11"
       x1="55"
       y1="461"
       x2="111"
       y2="517"
       gradientUnits="userSpaceOnUse"
       gradientTransform="matrix(0.35714286,0,0,0.35714286,-18.642857,-163.64286)">
      <stop
         offset="0.303571"
         stop-color="#EFF2F6"
         id="stop1644" />
      <stop
         offset="1"
         stop-color="#B7C6CD"
         id="stop1645" />
    </linearGradient>
    <linearGradient
       id="paint452_linear_890_11"
       x1="107"
       y1="513"
       x2="67.655701"
       y2="465.78699"
       gradientUnits="userSpaceOnUse"
       gradientTransform="matrix(0.35714286,0,0,0.42857143,-18.642857,-200.28572)">
      <stop
         stop-color="#2E2E41"
         id="stop1646" />
      <stop
         offset="1"
         stop-color="#566C80"
         id="stop1647" />
    </linearGradient>
    <linearGradient
       id="paint453_linear_890_11"
       x1="61"
       y1="465"
       x2="65"
       y2="469"
       gradientUnits="userSpaceOnUse"
       gradientTransform="translate(-53,-457)">
      <stop
         offset="0.236371"
         stop-color="#F15700"
         id="stop1648" />
      <stop
         offset="0.855848"
         stop-color="#FF0000"
         id="stop1649" />
    </linearGradient>
    <linearGradient
       id="paint454_linear_890_11"
       x1="71"
       y1="469"
       x2="67"
       y2="465"
       gradientUnits="userSpaceOnUse"
       gradientTransform="translate(-53,-457)">
      <stop
         stop-color="#FF7E07"
         id="stop1650" />
      <stop
         offset="1"
         stop-color="#FFE607"
         id="stop1651" />
    </linearGradient>
    <linearGradient
       id="paint455_linear_890_11"
       x1="77"
       y1="469"
       x2="73"
       y2="465"
       gradientUnits="userSpaceOnUse"
       gradientTransform="translate(-53,-457)">
      <stop
         stop-color="#089953"
         id="stop1652" />
      <stop
         offset="1"
         stop-color="#16D96F"
         id="stop1653" />
    </linearGradient>
    <linearGradient
       id="paint456_linear_890_11"
       x1="80"
       y1="486"
       x2="80"
       y2="492"
       gradientUnits="userSpaceOnUse"
       gradientTransform="translate(-53,-457)">
      <stop
         offset="0.189495"
         stop-color="#EFF2F6"
         id="stop1654" />
      <stop
         offset="0.850463"
         stop-color="#B7C6CD"
         id="stop1655" />
    </linearGradient>
    <linearGradient
       id="paint457_linear_890_11"
       x1="82"
       y1="494"
       x2="82"
       y2="500"
       gradientUnits="userSpaceOnUse">
      <stop
         offset="0.189495"
         stop-color="#EFF2F6"
         id="stop1656" />
      <stop
         offset="0.850463"
         stop-color="#B7C6CD"
         id="stop1657" />
    </linearGradient>
    <linearGradient
       id="paint334_linear_890_11"
       x1="501"
       y1="565"
       x2="509.82401"
       y2="570.29401"
       gradientUnits="userSpaceOnUse"
       gradientTransform="matrix(0.375,0,0,0.35714286,-168.98214,-199.35714)">
      <stop
         stop-color="#F15700"
         id="stop1410" />
      <stop
         offset="1"
         stop-color="#FF0000"
         id="stop1411" />
    </linearGradient>
    <linearGradient
       id="paint335_linear_890_11"
       x1="507"
       y1="587"
       x2="498.17599"
       y2="581.70599"
       gradientUnits="userSpaceOnUse"
       gradientTransform="matrix(0.375,0,0,0.35714286,-168.98214,-199.35714)">
      <stop
         stop-color="#FF7E07"
         id="stop1412" />
      <stop
         offset="1"
         stop-color="#FFE607"
         id="stop1413" />
    </linearGradient>
    <linearGradient
       id="paint336_linear_890_11"
       x1="507"
       y1="599"
       x2="498.17599"
       y2="593.70599"
       gradientUnits="userSpaceOnUse"
       gradientTransform="matrix(0.375,0,0,0.35714286,-168.98214,-199.35714)">
      <stop
         stop-color="#5200FF"
         id="stop1414" />
      <stop
         offset="1"
         stop-color="#0085FF"
         id="stop1415" />
    </linearGradient>
    <linearGradient
       id="paint337_linear_890_11"
       x1="482.68591"
       y1="561"
       x2="482.74106"
       y2="617"
       gradientUnits="userSpaceOnUse"
       gradientTransform="matrix(0.375,0,0,0.35714286,-168.98214,-199.35714)">
      <stop
         stop-color="#EFF2F6"
         id="stop1416"
         offset="0"
         style="stop-color:#5599ff;stop-opacity:1" />
      <stop
         offset="1"
         stop-color="#B7C6CD"
         id="stop1417"
         style="stop-color:#3a4d66;stop-opacity:1;" />
    </linearGradient>
    <linearGradient
       id="paint338_linear_890_11"
       x1="493"
       y1="599"
       x2="490.17599"
       y2="587.70599"
       gradientUnits="userSpaceOnUse"
       gradientTransform="matrix(0.375,0,0,0.35714286,-168.98214,-199.35714)">
      <stop
         stop-color="#2E2E41"
         id="stop1418" />
      <stop
         offset="1"
         stop-color="#566C80"
         id="stop1419" />
    </linearGradient>
    <linearGradient
       id="paint339_linear_890_11"
       x1="487"
       y1="589"
       x2="475"
       y2="577"
       gradientUnits="userSpaceOnUse"
       gradientTransform="matrix(0.375,0,0,0.35714286,-168.98214,-199.35714)">
      <stop
         stop-color="#2E2E41"
         id="stop1420" />
      <stop
         offset="1"
         stop-color="#566C80"
         id="stop1421" />
    </linearGradient>
    <linearGradient
       xlink:href="#b-2"
       id="linearGradient4189-3"
       x1="14.369"
       y1="22.521999"
       x2="26.521999"
       y2="22.521999"
       gradientUnits="userSpaceOnUse" />
    <linearGradient
       x1="36"
       gradientUnits="userSpaceOnUse"
       x2="14"
       y2="12"
       y1="44"
       id="b-2">
      <stop
         style="stop-color:#bfc9c9;stop-opacity:1"
         stop-color="#536161"
         id="stop1579" />
      <stop
         style="stop-color:#fbfbfb;stop-opacity:1"
         stop-color="#f4f5f5"
         offset="1"
         id="stop1581" />
    </linearGradient>
    <linearGradient
       xlink:href="#b-2"
       id="linearGradient4428-5"
       gradientUnits="userSpaceOnUse"
       x1="31.586"
       y1="36.345001"
       x2="1.2029999"
       y2="6.723" />
    <linearGradient
       inkscape:collect="always"
       xlink:href="#linearGradient1"
       id="linearGradient2"
       x1="11.39286"
       y1="21.000006"
       x2="11.39286"
       y2="1.0000045"
       gradientUnits="userSpaceOnUse"
       gradientTransform="matrix(2.7999999,0,0,2.7999999,-3.0000068,0.1999878)" />
  </defs>
  <g
     inkscape:label="Layer 1"
     inkscape:groupmode="layer"
     id="layer1">
    <path
       d="m 49.899999,7.0000001 h 4.2 c 1.16025,0 2.1,0.8950001 2.1,1.9999999 v 6 c 0,1.105 -0.93975,2 -2.1,2 h -4.2 z"
       id="path326"
       style="fill:#ff2a2a;stroke-width:2.8" />
    <path
       d="m 49.899999,19 h 4.2 c 1.16025,0 2.1,0.895 2.1,2 v 6 c 0,1.105 -0.93975,2 -2.1,2 h -4.2 z"
       id="path327"
       style="fill:#ffcc00;fill-opacity:1;stroke-width:2.8" />
    <path
       d="m 49.899999,31.000001 h 4.2 c 1.16025,0 2.1,0.894997 2.1,1.999998 v 5.999999 c 0,1.105 -0.93975,2.000001 -2.1,2.000001 h -4.2 z"
       id="path328"
       style="fill:#2a7fff;fill-opacity:1;stroke-width:2.8" />
    <path
       d="m 5.8000009,9 c 0,-3.3139998 2.8202999,-5.9999997 6.3000001,-5.9999997 h 33.599998 c 3.4797,0 6.3,2.6859999 6.3,5.9999997 v 43.999998 c 0,3.314001 -2.8203,6.000002 -6.3,6.000002 H 12.100001 C 8.6203008,59 5.8000009,56.313999 5.8000009,52.999998 Z"
       id="path329"
       style="fill:url(#linearGradient2);stroke-width:2.8" />
    <path
       style="opacity:0.2"
       d="m 28.8999,16.000629 c -8.836473,0 -15.999771,7.163298 -15.999771,15.999771 0,8.836474 7.163298,15.999771 15.999771,15.999771 h 9.999857 c 0,0 1.874974,0 1.999972,-1.999971 0,-1.999971 -1.999972,-1.999971 -1.999972,-1.999971 H 28.8999 c -6.627305,0 -11.999828,-5.372524 -11.999828,-11.999829 0,-6.627305 5.372523,-11.999828 11.999828,-11.999828 6.627306,0 11.999829,5.372523 11.999829,11.999828 v 1.999972 c 0,1.104544 -0.895427,1.999971 -1.999972,1.999971 -1.104544,0 -1.999971,-0.895427 -1.999971,-1.999971 V 32.0004 c 0,-4.418137 -3.58175,-7.999885 -7.999886,-7.999885 -4.418137,0 -7.999885,3.581748 -7.999885,7.999885 0,4.418137 3.581748,7.999886 7.999885,7.999886 2.09237,0 3.980543,-0.821788 5.406122,-2.13677 1.139984,1.353981 2.82196,2.13597 4.593934,2.13597 3.313553,0 5.999915,-2.686362 5.999915,-5.999914 V 31.9996 c 0,-8.835873 -7.163898,-15.999771 -15.999772,-15.999771 z m 0,11.999828 c 2.209168,0 3.999943,1.790835 3.999943,3.999943 0,2.209109 -1.790834,3.999943 -3.999943,3.999943 -2.209108,0 -3.999942,-1.790834 -3.999942,-3.999943 0,-2.209108 1.790834,-3.999943 3.999942,-3.999943 z"
       id="path6" />
    <path
       style="fill:#ffffff"
       d="m 28.8999,15.000629 c -8.836473,0 -15.999771,7.163298 -15.999771,15.999771 0,8.836474 7.163298,15.999771 15.999771,15.999771 h 9.999857 c 0,0 1.874974,0 1.999972,-1.999971 0,-1.999971 -1.999972,-1.999971 -1.999972,-1.999971 H 28.8999 c -6.627305,0 -11.999828,-5.372524 -11.999828,-11.999829 0,-6.627305 5.372523,-11.999828 11.999828,-11.999828 6.627306,0 11.999829,5.372523 11.999829,11.999828 v 1.999972 c 0,1.104544 -0.895427,1.999971 -1.999972,1.999971 -1.104544,0 -1.999971,-0.895427 -1.999971,-1.999971 V 31.0004 c 0,-4.418137 -3.58175,-7.999885 -7.999886,-7.999885 -4.418137,0 -7.999885,3.581748 -7.999885,7.999885 0,4.418137 3.581748,7.999886 7.999885,7.999886 2.09237,0 3.980543,-0.821788 5.406122,-2.13677 1.139984,1.353981 2.82196,2.13597 4.593934,2.13597 3.313553,0 5.999915,-2.686362 5.999915,-5.999914 V 30.9996 c 0,-8.835873 -7.163898,-15.999771 -15.999772,-15.999771 z m 0,11.999828 c 2.209168,0 3.999943,1.790835 3.999943,3.999943 0,2.209109 -1.790834,3.999943 -3.999943,3.999943 -2.209108,0 -3.999942,-1.790834 -3.999942,-3.999943 0,-2.209108 1.790834,-3.999943 3.999942,-3.999943 z"
       id="path7" />
  </g>
</svg>
