<?xml version="1.0" encoding="UTF-8" standalone="no"?>
<svg
   clip-rule="evenodd"
   fill-rule="evenodd"
   stroke-linejoin="round"
   stroke-miterlimit="2"
   viewBox="0 0 62 62"
   version="1.1"
   id="svg4"
   sodipodi:docname="ksudoku.svg"
   width="62"
   height="62"
   inkscape:version="1.4 (e7c3feb100, 2024-10-09)"
   xmlns:inkscape="http://www.inkscape.org/namespaces/inkscape"
   xmlns:sodipodi="http://sodipodi.sourceforge.net/DTD/sodipodi-0.dtd"
   xmlns="http://www.w3.org/2000/svg"
   xmlns:svg="http://www.w3.org/2000/svg">
  <defs
     id="defs4" />
  <sodipodi:namedview
     id="namedview4"
     pagecolor="#ffffff"
     bordercolor="#000000"
     borderopacity="0.25"
     inkscape:showpageshadow="2"
     inkscape:pageopacity="0.0"
     inkscape:pagecheckerboard="0"
     inkscape:deskcolor="#d1d1d1"
     inkscape:zoom="11.107469"
     inkscape:cx="28.854458"
     inkscape:cy="29.619709"
     inkscape:window-width="1920"
     inkscape:window-height="994"
     inkscape:window-x="0"
     inkscape:window-y="0"
     inkscape:window-maximized="1"
     inkscape:current-layer="svg4" />
  <linearGradient
     id="a"
     x2="1"
     gradientTransform="matrix(0,-43.53155,43.53155,0,1193.075,52.257413)"
     gradientUnits="userSpaceOnUse">
    <stop
       stop-color="#006783"
       offset="0"
       id="stop1" />
    <stop
       stop-color="#13bee3"
       offset="1"
       id="stop2" />
  </linearGradient>
  <path
     d="M 50.952003,59 H 11.047997 C 6.6053166,59 3,55.394683 3,50.952003 V 11.047997 C 3,6.6053165 6.6053166,2.9999999 11.047997,2.9999999 H 50.952003 C 55.394683,2.9999999 59,6.6053165 59,11.047997 V 50.952003 C 59,55.394683 55.394683,59 50.952003,59 Z"
     fill="url(#a)"
     id="path2"
     style="fill:url(#a);stroke-width:1.29223" />
  <g
     fill-rule="nonzero"
     id="g4"
     transform="matrix(1.2922282,0,0,1.2922282,-0.01347605,-0.01347623)">
    <path
       d="M 16.777,45.668 H 8.56 c -3.438,0 -6.228,-2.79 -6.228,-6.228 V 31.223 H 16.777 Z M 45.668,31.223 v 8.217 c 0,3.438 -2.79,6.228 -6.228,6.228 H 31.223 V 31.223 Z M 16.777,16.777 V 31.223 H 31.223 V 16.777 Z M 8.56,2.332 h 8.217 V 16.777 H 2.332 V 8.56 c 0,-3.438 2.79,-6.228 6.228,-6.228 z m 30.88,0 c 3.438,0 6.228,2.79 6.228,6.228 v 8.217 H 31.223 V 2.332 Z"
       fill-opacity="0.3"
       id="path3" />
    <path
       transform="matrix(1.11118,0,0,1.11118,-3.2239,-2.11272)"
       d="M 38.268,6 C 37.981,6 37.609,6.026 37.25,6.078 36.891,6.13 36.546,6.207 36.314,6.311 35.859,6.509 35.456,6.755 35.102,7.045 l 0.593,0.732 c 0.346,-0.265 0.683,-0.472 1.012,-0.621 0.329,-0.149 1.114,-0.224 1.561,-0.224 0.236,0 0.45,0.033 0.642,0.097 0.192,0.065 0.362,0.161 0.51,0.289 0.295,0.249 0.441,0.617 0.441,1.106 0,0.406 -0.08,0.776 -0.24,1.107 -0.16,0.332 -0.4,0.67 -0.721,1.018 -0.312,0.348 -0.691,0.746 -1.138,1.193 L 35,14.092 V 15 h 5.969 v -0.994 h -4.565 v -0.051 l 2.282,-1.826 C 39.149,11.69 39.555,11.271 39.9,10.873 40.246,10.475 40.515,10.074 40.709,9.668 40.903,9.262 41,8.825 41,8.361 41,7.997 40.939,7.671 40.816,7.383 40.694,7.095 40.51,6.846 40.266,6.635 40.143,6.529 40.01,6.437 39.865,6.357 39.721,6.278 39.566,6.211 39.4,6.158 H 39.398 C 39.232,6.105 39.056,6.066 38.867,6.039 38.679,6.013 38.478,6 38.268,6 Z M 25.1,19 c -0.613,0 -1.363,0.09 -1.848,0.27 -0.477,0.179 -0.878,0.393 -1.201,0.638 l 0.562,0.735 c 0.341,-0.213 0.685,-0.389 1.033,-0.528 0.349,-0.139 0.972,-0.207 1.465,-0.207 0.511,0 0.915,0.119 1.213,0.356 0.298,0.229 0.447,0.555 0.447,0.98 0,0.499 -0.196,0.899 -0.587,1.201 -0.383,0.303 -1.15,0.553 -1.899,0.553 H 24 v 0.82 h 0.271 c 0.809,0 1.435,0.124 1.877,0.37 0.452,0.237 0.678,0.628 0.678,1.175 0,0.54 -0.183,0.965 -0.549,1.276 -0.357,0.302 -0.944,0.453 -1.761,0.453 -0.409,0 -0.835,-0.049 -1.278,-0.147 C 22.796,26.847 22.383,26.704 22,26.516 v 1.005 c 0.374,0.18 0.765,0.302 1.174,0.368 C 23.582,27.962 24.025,28 24.502,28 25.31,28 25.97,27.889 26.48,27.668 27,27.447 27.382,27.142 27.629,26.75 27.876,26.358 28,25.904 28,25.389 c 0,-0.581 -0.183,-1.051 -0.549,-1.41 -0.357,-0.36 -0.898,-0.581 -1.621,-0.663 v -0.048 c 0.57,-0.115 1.226,-0.345 1.566,-0.688 0.349,-0.351 0.524,-0.822 0.524,-1.41 0,-0.63 -0.233,-1.148 -0.701,-1.557 C 26.759,19.205 26.053,19 25.1,19 Z M 10.91,32 C 10.323,32 9.808,32.118 9.365,32.355 8.931,32.593 8.596,32.932 8.357,33.373 8.119,33.814 8,34.342 8,34.955 c 0,0.842 0.238,1.495 0.715,1.961 0.485,0.458 1.119,0.688 1.902,0.688 0.553,0 1.005,-0.099 1.354,-0.295 0.349,-0.205 0.62,-0.445 0.816,-0.723 h 0.076 c -0.017,0.474 -0.075,0.928 -0.177,1.361 -0.103,0.425 -0.269,0.8 -0.498,1.127 -0.23,0.319 -0.541,0.574 -0.932,0.762 -0.383,0.188 -0.873,0.281 -1.469,0.281 -0.417,0 -0.791,-0.054 -1.123,-0.16 v 0.92 c 0.136,0.041 0.319,0.07 0.549,0.086 0.23,0.024 0.429,0.037 0.6,0.037 0.859,0 1.562,-0.147 2.107,-0.441 0.553,-0.295 0.977,-0.688 1.275,-1.178 0.307,-0.499 0.515,-1.05 0.625,-1.654 C 13.939,37.113 14,36.493 14,35.863 14,34.989 13.864,34.269 13.592,33.705 13.319,33.133 12.949,32.708 12.48,32.43 12.012,32.144 11.489,32 10.91,32 Z m 0,0.908 c 0.434,0 0.797,0.113 1.086,0.342 0.289,0.229 0.506,0.516 0.65,0.859 0.145,0.344 0.217,0.69 0.217,1.041 0,0.262 -0.083,0.517 -0.254,0.762 -0.161,0.245 -0.391,0.45 -0.689,0.613 -0.298,0.156 -0.652,0.233 -1.061,0.233 -0.595,0 -1.038,-0.16 -1.328,-0.479 -0.281,-0.327 -0.42,-0.772 -0.42,-1.336 0,-0.686 0.166,-1.198 0.498,-1.533 0.341,-0.335 0.773,-0.502 1.301,-0.502 z"
       fill="#ffffff"
       id="path4" />
  </g>
</svg>
