<?xml version="1.0" encoding="UTF-8" standalone="no"?>
<svg
   width="62"
   height="62"
   viewBox="0 0 16.403844 16.403844"
   version="1.1"
   id="svg8"
   sodipodi:docname="gnome-tetravex.svg"
   inkscape:version="1.4 (unknown)"
   xmlns:inkscape="http://www.inkscape.org/namespaces/inkscape"
   xmlns:sodipodi="http://sodipodi.sourceforge.net/DTD/sodipodi-0.dtd"
   xmlns="http://www.w3.org/2000/svg"
   xmlns:svg="http://www.w3.org/2000/svg">
  <defs
     id="defs8" />
  <sodipodi:namedview
     id="namedview8"
     pagecolor="#ffffff"
     bordercolor="#000000"
     borderopacity="0.25"
     inkscape:showpageshadow="2"
     inkscape:pageopacity="0.0"
     inkscape:pagecheckerboard="0"
     inkscape:deskcolor="#d1d1d1"
     inkscape:zoom="3.5355339"
     inkscape:cx="27.011479"
     inkscape:cy="63.215346"
     inkscape:window-width="1920"
     inkscape:window-height="998"
     inkscape:window-x="0"
     inkscape:window-y="0"
     inkscape:window-maximized="1"
     inkscape:current-layer="svg8" />
  <g
     stroke-width="0.962"
     id="g8"
     transform="matrix(1.0769264,0,0,1.0769264,-0.91532638,-0.91532638)">
    <g
       paint-order="markers stroke fill"
       id="g4">
      <path
         d="M 2.206,2.206 A 2.1,2.1 0 0 0 1.587,3.704 v 9.525 c 0,0.586 0.237,1.116 0.62,1.499 l 6.26,-6.261 z"
         id="path1"
         style="fill:#c83771" />
      <path
         d="m 14.727,2.207 -6.26,6.26 6.26,6.26 a 2.1,2.1 0 0 0 0.618,-1.476 V 3.682 A 2.1,2.1 0 0 0 14.727,2.207"
         id="path2"
         style="fill:#37c871" />
      <path
         d="m 8.467,8.467 -6.26,6.26 a 2.1,2.1 0 0 0 1.475,0.618 h 9.569 a 2.1,2.1 0 0 0 1.476,-0.618 z"
         id="path3"
         style="fill:#ab37c8" />
      <path
         d="M 3.704,1.587 A 2.1,2.1 0 0 0 2.206,2.206 l 6.261,6.261 6.26,-6.26 a 2.1,2.1 0 0 0 -1.498,-0.62 z"
         id="path4"
         style="fill:#2a7fff" />
    </g>
    <path
       fill="#ffffff"
       d="m 8.539,6.032 c -0.338,0 -0.54,-0.304 -0.58,-0.862 0.176,-0.25 0.382,-0.345 0.55,-0.345 0.327,0 0.485,0.231 0.485,0.594 0,0.367 -0.198,0.613 -0.455,0.613 M 9.26,3.78 A 0.83,0.83 0 0 0 8.633,3.505 c -0.52,0 -0.994,0.404 -0.994,1.457 0,0.888 0.381,1.332 0.899,1.332 0.418,0 0.77,-0.353 0.77,-0.874 0,-0.561 -0.29,-0.843 -0.745,-0.843 -0.212,0 -0.447,0.124 -0.612,0.326 C 7.965,4.067 8.277,3.784 8.644,3.784 a 0.57,0.57 0 0 1 0.433,0.205 z"
       aria-label="6"
       font-family="sans-serif"
       font-size="3.528px"
       font-weight="400"
       letter-spacing="0"
       word-spacing="0"
       id="path5" />
    <path
       fill="#ffffff"
       d="M 3.473,9.813 H 5.165 V 9.523 H 4.42 C 4.284,9.523 4.119,9.538 3.98,9.549 4.61,8.951 5.033,8.404 5.033,7.869 5.033,7.388 4.732,7.072 4.251,7.072 3.91,7.072 3.679,7.23 3.459,7.469 l 0.194,0.19 C 3.8,7.483 3.991,7.348 4.211,7.348 c 0.334,0 0.495,0.223 0.495,0.532 0,0.462 -0.389,0.998 -1.233,1.735 z"
       aria-label="2"
       font-family="sans-serif"
       font-size="3.528px"
       font-weight="400"
       letter-spacing="0"
       word-spacing="0"
       id="path6" />
    <path
       fill="#ffffff"
       d="m 12.552,9.86 c 0.455,0 0.88,-0.333 0.88,-0.924 0,-0.59 -0.363,-0.855 -0.81,-0.855 a 0.77,0.77 0 0 0 -0.4,0.107 L 12.288,7.41 h 1.016 V 7.124 h -1.31 l -0.084,1.258 0.18,0.11 c 0.154,-0.102 0.268,-0.157 0.447,-0.157 0.338,0 0.558,0.227 0.558,0.612 0,0.393 -0.257,0.635 -0.572,0.635 -0.312,0 -0.507,-0.143 -0.66,-0.297 l -0.166,0.22 c 0.18,0.18 0.437,0.356 0.855,0.356 z"
       aria-label="5"
       font-family="sans-serif"
       font-size="3.528px"
       font-weight="400"
       letter-spacing="0"
       word-spacing="0"
       id="path7" />
    <path
       fill="#ffffff"
       d="M 8.16,13.357 H 8.51 C 8.55,12.304 8.667,11.681 9.298,10.87 V 10.668 H 7.614 v 0.286 h 1.303 c -0.525,0.734 -0.712,1.383 -0.756,2.403 z"
       aria-label="7"
       font-family="sans-serif"
       font-size="3.528px"
       font-weight="400"
       letter-spacing="0"
       word-spacing="0"
       id="path8" />
  </g>
</svg>
