<?xml version="1.0" encoding="UTF-8" standalone="no"?>
<!-- Created with Inkscape (http://www.inkscape.org/) -->

<svg
   width="62"
   height="62"
   viewBox="0 0 62 62"
   version="1.1"
   id="svg1"
   inkscape:version="1.4 (unknown)"
   sodipodi:docname="gnome-network-displays.svg"
   xmlns:inkscape="http://www.inkscape.org/namespaces/inkscape"
   xmlns:sodipodi="http://sodipodi.sourceforge.net/DTD/sodipodi-0.dtd"
   xmlns:xlink="http://www.w3.org/1999/xlink"
   xmlns="http://www.w3.org/2000/svg"
   xmlns:svg="http://www.w3.org/2000/svg">
  <sodipodi:namedview
     id="namedview1"
     pagecolor="#ffffff"
     bordercolor="#000000"
     borderopacity="0.25"
     inkscape:showpageshadow="2"
     inkscape:pageopacity="0.0"
     inkscape:pagecheckerboard="0"
     inkscape:deskcolor="#d1d1d1"
     inkscape:document-units="px"
     inkscape:zoom="10.74725"
     inkscape:cx="31.403382"
     inkscape:cy="33.915653"
     inkscape:window-width="1920"
     inkscape:window-height="998"
     inkscape:window-x="0"
     inkscape:window-y="0"
     inkscape:window-maximized="1"
     inkscape:current-layer="layer1"
     showgrid="false">
    <inkscape:grid
       id="grid1"
       units="px"
       originx="0"
       originy="0"
       spacingx="1"
       spacingy="1"
       empcolor="#0099e5"
       empopacity="0.30196078"
       color="#0099e5"
       opacity="0.14901961"
       empspacing="5"
       enabled="true"
       visible="false" />
  </sodipodi:namedview>
  <defs
     id="defs1">
    <linearGradient
       id="linearGradient2"
       inkscape:collect="always">
      <stop
         style="stop-color:#cccccc;stop-opacity:1"
         offset="0"
         id="stop7" />
      <stop
         style="stop-color:#f2f2f2;stop-opacity:1"
         offset="1"
         id="stop8" />
    </linearGradient>
    <linearGradient
       id="linearGradient9"
       inkscape:collect="always">
      <stop
         style="stop-color:#b380ff;stop-opacity:1"
         offset="0"
         id="stop9" />
      <stop
         style="stop-color:#2a7fff;stop-opacity:1"
         offset="1"
         id="stop10" />
    </linearGradient>
    <linearGradient
       id="linearGradient1"
       inkscape:collect="always">
      <stop
         style="stop-color:#566c80;stop-opacity:1;"
         offset="0"
         id="stop5" />
      <stop
         style="stop-color:#343f4c;stop-opacity:1;"
         offset="1"
         id="stop6" />
    </linearGradient>
    <radialGradient
       id="paint664_radial_890_11"
       cx="0"
       cy="0"
       r="1"
       gradientUnits="userSpaceOnUse"
       gradientTransform="matrix(-16.000099,-9.999913,9.999913,-16.000099,583,171)">
      <stop
         offset="0.42141"
         stop-color="#B7C6CD"
         id="stop2071" />
      <stop
         offset="1"
         stop-color="#EFF2F6"
         id="stop2072" />
    </radialGradient>
    <linearGradient
       id="paint665_linear_890_11"
       x1="605"
       y1="180"
       x2="601.466"
       y2="162.72301"
       gradientUnits="userSpaceOnUse">
      <stop
         stop-color="#5200FF"
         id="stop2073" />
      <stop
         offset="1"
         stop-color="#0085FF"
         id="stop2074" />
    </linearGradient>
    <linearGradient
       id="paint666_linear_890_11"
       x1="567"
       y1="181"
       x2="562.11798"
       y2="174.183"
       gradientUnits="userSpaceOnUse">
      <stop
         stop-color="#5200FF"
         id="stop2075" />
      <stop
         offset="0.670391"
         stop-color="#0085FF"
         id="stop2076" />
    </linearGradient>
    <linearGradient
       id="paint667_linear_890_11"
       x1="605"
       y1="180"
       x2="597.32001"
       y2="174.24001"
       gradientUnits="userSpaceOnUse">
      <stop
         stop-color="#5200FF"
         id="stop2077" />
      <stop
         offset="1"
         stop-color="#0085FF"
         id="stop2078" />
    </linearGradient>
    <linearGradient
       id="paint668_linear_890_11"
       x1="567"
       y1="180"
       x2="561.23999"
       y2="172.32001"
       gradientUnits="userSpaceOnUse">
      <stop
         stop-color="#5200FF"
         id="stop2079" />
      <stop
         offset="1"
         stop-color="#0085FF"
         id="stop2080" />
    </linearGradient>
    <linearGradient
       id="paint669_linear_890_11"
       x1="607"
       y1="179"
       x2="602.50598"
       y2="171.80901"
       gradientUnits="userSpaceOnUse">
      <stop
         stop-color="#5200FF"
         id="stop2081" />
      <stop
         offset="1"
         stop-color="#0085FF"
         id="stop2082" />
    </linearGradient>
    <linearGradient
       id="paint670_linear_890_11"
       x1="607"
       y1="217"
       x2="568.82599"
       y2="170.01601"
       gradientUnits="userSpaceOnUse">
      <stop
         stop-color="#5200FF"
         id="stop2083" />
      <stop
         offset="1"
         stop-color="#0085FF"
         id="stop2084" />
    </linearGradient>
    <radialGradient
       id="paint671_radial_890_11"
       cx="0"
       cy="0"
       r="1"
       gradientUnits="userSpaceOnUse"
       gradientTransform="matrix(0,20,-16,0,583,187)">
      <stop
         offset="0.869716"
         stop-color="#EFF2F6"
         id="stop2085" />
      <stop
         offset="1"
         stop-color="#B7C6CD"
         id="stop2086" />
    </radialGradient>
    <linearGradient
       id="paint497_linear_890_11"
       x1="497"
       y1="413"
       x2="447.457"
       y2="376.79599"
       gradientUnits="userSpaceOnUse"
       gradientTransform="translate(-452,-358)">
      <stop
         offset="0.636456"
         stop-color="#71706E"
         id="stop1737" />
      <stop
         offset="1"
         stop-color="#B9AA99"
         id="stop1738" />
    </linearGradient>
    <linearGradient
       id="paint498_linear_890_11"
       x1="507"
       y1="413"
       x2="457.457"
       y2="376.79599"
       gradientUnits="userSpaceOnUse"
       gradientTransform="translate(-452,-358)">
      <stop
         offset="0.544933"
         stop-color="#FF7E07"
         id="stop1739" />
      <stop
         offset="1"
         stop-color="#FFE607"
         id="stop1740" />
    </linearGradient>
    <linearGradient
       id="paint499_linear_890_11"
       x1="473"
       y1="365"
       x2="486.28699"
       y2="389.91299"
       gradientUnits="userSpaceOnUse"
       gradientTransform="translate(-452,-358)">
      <stop
         stop-color="white"
         id="stop1741" />
      <stop
         offset="0.705"
         stop-color="#EAEFEF"
         id="stop1742" />
    </linearGradient>
    <linearGradient
       id="paint500_linear_890_11"
       x1="480"
       y1="371.5"
       x2="480"
       y2="368.5"
       gradientUnits="userSpaceOnUse"
       gradientTransform="translate(-452,-358)">
      <stop
         offset="0.155999"
         stop-color="#71706E"
         id="stop1743" />
      <stop
         offset="0.796276"
         stop-color="#B9AA99"
         id="stop1744" />
    </linearGradient>
    <linearGradient
       id="paint501_linear_890_11"
       x1="479"
       y1="375.5"
       x2="479"
       y2="372.5"
       gradientUnits="userSpaceOnUse"
       gradientTransform="translate(-452,-358)">
      <stop
         offset="0.155999"
         stop-color="#71706E"
         id="stop1745" />
      <stop
         offset="0.796276"
         stop-color="#B9AA99"
         id="stop1746" />
    </linearGradient>
    <linearGradient
       id="paint502_linear_890_11"
       x1="511"
       y1="417"
       x2="455.64352"
       y2="380.82346"
       gradientUnits="userSpaceOnUse"
       gradientTransform="translate(-452,-358)">
      <stop
         offset="0.18397722"
         stop-color="#2E2E41"
         id="stop1747"
         style="stop-color:#33424d;stop-opacity:1;" />
      <stop
         offset="1"
         stop-color="#566C80"
         id="stop1748" />
    </linearGradient>
    <linearGradient
       id="paint745_linear_890_11"
       x1="172"
       y1="61"
       x2="195.978"
       y2="83.979202"
       gradientUnits="userSpaceOnUse">
      <stop
         stop-color="#EFF2F6"
         id="stop2233" />
      <stop
         offset="1"
         stop-color="#ACD1CF"
         id="stop2234" />
    </linearGradient>
    <linearGradient
       id="paint746_linear_890_11"
       x1="176"
       y1="84"
       x2="175.47501"
       y2="78.479202"
       gradientUnits="userSpaceOnUse">
      <stop
         offset="0.404925"
         stop-color="#2E2E41"
         id="stop2235" />
      <stop
         offset="1"
         stop-color="#566C80"
         id="stop2236" />
    </linearGradient>
    <linearGradient
       id="paint747_linear_890_11"
       x1="202"
       y1="84"
       x2="201.47501"
       y2="78.479202"
       gradientUnits="userSpaceOnUse">
      <stop
         offset="0.404925"
         stop-color="#2E2E41"
         id="stop2237" />
      <stop
         offset="1"
         stop-color="#566C80"
         id="stop2238" />
    </linearGradient>
    <linearGradient
       id="paint748_linear_890_11"
       x1="155"
       y1="82"
       x2="186.461"
       y2="132.33701"
       gradientUnits="userSpaceOnUse">
      <stop
         offset="0.205721"
         stop-color="#EFF2F6"
         id="stop2239" />
      <stop
         offset="1"
         stop-color="#B7C6CD"
         id="stop2240" />
    </linearGradient>
    <radialGradient
       id="paint750_radial_890_11"
       cx="0"
       cy="0"
       r="1"
       gradientUnits="userSpaceOnUse"
       gradientTransform="matrix(5.6470608,5.6470608,-5.6470608,5.6470608,172,96)">
      <stop
         offset="0.340843"
         stop-color="#2E2E41"
         id="stop2243" />
      <stop
         offset="1"
         stop-color="#566C80"
         id="stop2244" />
    </radialGradient>
    <linearGradient
       id="paint751_linear_890_11"
       x1="166"
       y1="90"
       x2="178"
       y2="102"
       gradientUnits="userSpaceOnUse">
      <stop
         stop-color="white"
         id="stop2245" />
      <stop
         offset="0.705"
         stop-color="#EAEFEF"
         id="stop2246" />
    </linearGradient>
    <linearGradient
       id="paint752_linear_890_11"
       x1="193"
       y1="88"
       x2="199"
       y2="94"
       gradientUnits="userSpaceOnUse">
      <stop
         stop-color="#FFE607"
         id="stop2247" />
      <stop
         offset="0.802569"
         stop-color="#FF7E07"
         id="stop2248" />
    </linearGradient>
    <linearGradient
       id="paint753_linear_890_11"
       x1="199"
       y1="104"
       x2="193"
       y2="98"
       gradientUnits="userSpaceOnUse">
      <stop
         offset="0.253846"
         stop-color="#089953"
         id="stop2249" />
      <stop
         offset="1"
         stop-color="#16D96F"
         id="stop2250" />
    </linearGradient>
    <linearGradient
       id="paint754_linear_890_11"
       x1="198"
       y1="93"
       x2="204"
       y2="99"
       gradientUnits="userSpaceOnUse">
      <stop
         offset="0.30755"
         stop-color="#F15700"
         id="stop2251" />
      <stop
         offset="0.832479"
         stop-color="#FF0000"
         id="stop2252" />
    </linearGradient>
    <linearGradient
       id="paint755_linear_890_11"
       x1="194"
       y1="99"
       x2="188"
       y2="93"
       gradientUnits="userSpaceOnUse">
      <stop
         offset="0.320751"
         stop-color="#5200FF"
         id="stop2253" />
      <stop
         offset="1"
         stop-color="#0085FF"
         id="stop2254" />
    </linearGradient>
    <linearGradient
       id="paint711_linear_890_11"
       x1="785.19843"
       y1="61.085037"
       x2="785.21344"
       y2="116.9138"
       gradientUnits="userSpaceOnUse"
       gradientTransform="matrix(0.35714286,0,0,0.35714286,-293.53986,16.980161)">
      <stop
         offset="0.0001"
         stop-color="#EFF2F6"
         id="stop2165"
         style="stop-color:#547097;stop-opacity:1;" />
      <stop
         offset="0.61014605"
         stop-color="#EFF2F6"
         id="stop1"
         style="stop-color:#9955ff;stop-opacity:1" />
      <stop
         offset="1"
         stop-color="#B7C6CD"
         id="stop2166"
         style="stop-color:#475b63;stop-opacity:1;" />
    </linearGradient>
    <radialGradient
       id="paint712_radial_890_11"
       cx="0"
       cy="0"
       r="1"
       gradientUnits="userSpaceOnUse"
       gradientTransform="matrix(22.216699,21.999996,-21.99894,22.215633,30.867,31)">
      <stop
         offset="0.420978"
         stop-color="#F15700"
         id="stop2167" />
      <stop
         offset="0.792773"
         stop-color="#FF0000"
         id="stop2168" />
    </radialGradient>
    <radialGradient
       id="paint713_radial_890_11"
       cx="0"
       cy="0"
       r="1"
       gradientUnits="userSpaceOnUse"
       gradientTransform="matrix(-16.688097,16.851418,-13.741875,-13.608691,50.791,10.8957)">
      <stop
         stop-color="#FFE607"
         id="stop2169" />
      <stop
         offset="0.903378"
         stop-color="#FF7E07"
         id="stop2170" />
    </radialGradient>
    <radialGradient
       id="paint714_radial_890_11"
       cx="0"
       cy="0"
       r="1"
       gradientUnits="userSpaceOnUse"
       gradientTransform="matrix(-22.961171,-7.4640815,7.4454397,-22.903825,31.961,30.8155)">
      <stop
         offset="0.440692"
         stop-color="#001AFF"
         id="stop2171" />
      <stop
         offset="1"
         stop-color="#0085FF"
         id="stop2172" />
    </radialGradient>
    <linearGradient
       id="a"
       x1="3.9389999"
       x2="7.4949999"
       y1="19.903999"
       y2="29.028"
       gradientUnits="userSpaceOnUse"
       gradientTransform="matrix(1.5769232,0,0,1.5769232,6.5427079,5.7692283)">
      <stop
         stop-color="#F25565"
         id="stop12-3" />
      <stop
         offset=".5"
         stop-color="#DA4453"
         id="stop13-6" />
      <stop
         offset="1"
         stop-color="#832932"
         id="stop14-7" />
    </linearGradient>
    <linearGradient
       id="b"
       x1="12"
       x2="19.5"
       y1="6.5"
       y2="20"
       gradientUnits="userSpaceOnUse"
       gradientTransform="matrix(1.5769232,0,0,1.5769232,6.5427079,5.7692283)">
      <stop
         stop-color="#C5CACD"
         id="stop15" />
      <stop
         offset="0.53799999"
         stop-color="#ACB6BC"
         id="stop16"
         style="stop-color:#c9d0d3;stop-opacity:1;" />
      <stop
         offset="0.87300003"
         stop-color="#9BA3A8"
         id="stop17-5"
         style="stop-color:#cdd2d4;stop-opacity:1;" />
      <stop
         offset="1"
         stop-color="#A0AAB0"
         id="stop18-3"
         style="stop-color:#d3d8db;stop-opacity:1;" />
    </linearGradient>
    <linearGradient
       id="c"
       x1="20"
       x2="20"
       y1="3"
       y2="9.5"
       gradientUnits="userSpaceOnUse"
       gradientTransform="matrix(1.5769232,0,0,1.5769232,6.5427079,5.7692283)">
      <stop
         stop-color="#fff"
         id="stop19-5" />
      <stop
         offset="1"
         stop-color="#fff"
         stop-opacity="0"
         id="stop20-6" />
    </linearGradient>
    <linearGradient
       id="e"
       x1="22"
       x2="14"
       y1="20.5"
       y2="3.5"
       gradientUnits="userSpaceOnUse">
      <stop
         stop-color="#C9D1D9"
         id="stop23" />
      <stop
         offset=".435"
         stop-color="#2D3B49"
         id="stop24" />
      <stop
         offset=".6"
         stop-color="#6D7E91"
         id="stop25" />
      <stop
         offset="1"
         stop-color="#A4A9AF"
         id="stop26" />
    </linearGradient>
    <linearGradient
       id="g"
       x1="20"
       x2="23"
       y1="16"
       y2="19"
       gradientUnits="userSpaceOnUse"
       gradientTransform="matrix(1.5769232,0,0,1.5769232,6.5427079,5.7692283)">
      <stop
         offset=".5"
         stop-color="#222E3C"
         stop-opacity="0"
         id="stop31" />
      <stop
         offset="1"
         stop-color="#222E3C"
         id="stop32" />
    </linearGradient>
    <radialGradient
       id="h"
       cx="0"
       cy="0"
       r="1"
       gradientTransform="matrix(4.7307691,4.7307691,-3.4124135,3.4124135,50.696527,18.384601)"
       gradientUnits="userSpaceOnUse">
      <stop
         stop-color="#fff"
         id="stop33" />
      <stop
         offset="1"
         stop-color="#fff"
         stop-opacity="0"
         id="stop34" />
    </radialGradient>
    <filter
       id="filter30427-0-36"
       x="-0.1339518"
       y="-0.3388412"
       width="1.2679036"
       height="1.6776824"
       color-interpolation-filters="sRGB">
      <feGaussianBlur
         stdDeviation="0.48299559"
         id="feGaussianBlur37-2-7" />
    </filter>
    <linearGradient
       id="paint512_linear_890_11"
       x1="309"
       y1="411"
       x2="263.34399"
       y2="359.388"
       gradientUnits="userSpaceOnUse"
       gradientTransform="matrix(0.39285964,0,0,0.39583333,-100.17928,-142.97917)">
      <stop
         offset="0.285926"
         stop-color="#2E2E41"
         id="stop1767"
         style="stop-color:#535d6c;stop-opacity:1" />
      <stop
         offset="1"
         stop-color="#566C80"
         id="stop1768"
         style="stop-color:#6f7c91;stop-opacity:1" />
    </linearGradient>
    <linearGradient
       id="paint513_linear_890_11"
       x1="260.58133"
       y1="369.25473"
       x2="307.9393"
       y2="407"
       gradientUnits="userSpaceOnUse"
       gradientTransform="matrix(0.39285964,0,0,0.39583333,-100.17928,-142.97917)">
      <stop
         offset="1"
         stop-color="#EFF2F6"
         id="stop1769"
         style="stop-color:#44aa00;stop-opacity:1" />
      <stop
         offset="0.1727107"
         stop-color="#EFF2F6"
         id="stop3"
         style="stop-color:#f4f8ed;stop-opacity:0.91372549;" />
      <stop
         offset="0.17957145"
         stop-color="#EFF2F6"
         id="stop4"
         style="stop-color:#dbdfd5;stop-opacity:0.81960784;" />
      <stop
         offset="0.24173911"
         stop-color="#EFF2F6"
         id="stop2"
         style="stop-color:#000000;stop-opacity:0;" />
      <stop
         offset="1"
         stop-color="#B7C6CD"
         id="stop1770" />
    </linearGradient>
    <linearGradient
       id="paint514_linear_890_11"
       x1="279"
       y1="381"
       x2="273"
       y2="375"
       gradientUnits="userSpaceOnUse"
       gradientTransform="matrix(0.39285964,0,0,0.39583333,-128.12504,-141.26852)">
      <stop
         offset="0.178269"
         stop-color="#5200FF"
         id="stop1771" />
      <stop
         offset="0.732905"
         stop-color="#0085FF"
         id="stop1772" />
    </linearGradient>
    <linearGradient
       id="paint515_linear_890_11"
       x1="279"
       y1="389"
       x2="273"
       y2="383"
       gradientUnits="userSpaceOnUse"
       gradientTransform="matrix(0.39285964,0,0,0.39583333,-128.12504,-141.26852)">
      <stop
         offset="0.158885"
         stop-color="#FF7E07"
         id="stop1773" />
      <stop
         offset="0.804651"
         stop-color="#FFC807"
         id="stop1774" />
    </linearGradient>
    <linearGradient
       id="paint516_linear_890_11"
       x1="265"
       y1="375"
       x2="271"
       y2="381"
       gradientUnits="userSpaceOnUse"
       gradientTransform="matrix(0.39285964,0,0,0.39583333,-128.12504,-141.26852)">
      <stop
         offset="0.243963"
         stop-color="#F15700"
         id="stop1775" />
      <stop
         offset="0.831224"
         stop-color="#FF0000"
         id="stop1776" />
    </linearGradient>
    <linearGradient
       id="paint517_linear_890_11"
       x1="271"
       y1="389"
       x2="265"
       y2="383"
       gradientUnits="userSpaceOnUse"
       gradientTransform="matrix(0.39285964,0,0,0.39583333,-128.12504,-141.26852)">
      <stop
         stop-color="#089953"
         id="stop1777" />
      <stop
         offset="1"
         stop-color="#16D96F"
         id="stop1778" />
    </linearGradient>
    <linearGradient
       id="paint518_linear_890_11"
       x1="284"
       y1="369"
       x2="282"
       y2="367"
       gradientUnits="userSpaceOnUse"
       gradientTransform="matrix(0.39285964,0,0,0.39583333,-128.12504,-141.26852)">
      <stop
         stop-color="#71706E"
         id="stop1779" />
      <stop
         offset="1"
         stop-color="#B9AA99"
         id="stop1780" />
    </linearGradient>
    <linearGradient
       id="paint519_linear_890_11"
       x1="292.52399"
       y1="413.5"
       x2="292.52399"
       y2="407"
       gradientUnits="userSpaceOnUse"
       gradientTransform="matrix(0.39285964,0,0,0.39583333,-100.17928,-142.97917)">
      <stop
         offset="0.298086"
         stop-color="#2E2E41"
         id="stop1781"
         style="stop-color:#535d6c;stop-opacity:1" />
      <stop
         offset="1"
         stop-color="#566C80"
         id="stop1782"
         style="stop-color:#6f7c91;stop-opacity:1" />
    </linearGradient>
    <linearGradient
       id="paint520_linear_890_11"
       x1="288"
       y1="409"
       x2="287.23099"
       y2="405.15399"
       gradientUnits="userSpaceOnUse"
       gradientTransform="matrix(0.39285964,0,0,0.39583333,-100.17928,-142.97917)">
      <stop
         offset="0.384873"
         stop-color="#2E2E41"
         id="stop1783" />
      <stop
         offset="1"
         stop-color="#566C80"
         id="stop1784" />
    </linearGradient>
    <filter
       id="filter30427-0-36-3"
       x="-0.1339518"
       y="-0.3388412"
       width="1.2679036"
       height="1.6776824"
       color-interpolation-filters="sRGB">
      <feGaussianBlur
         stdDeviation="0.48299559"
         id="feGaussianBlur37-2-7-8" />
    </filter>
    <linearGradient
       id="paint514_linear_890_11-7"
       x1="279"
       y1="381"
       x2="273"
       y2="375"
       gradientUnits="userSpaceOnUse"
       gradientTransform="translate(-253.53575,-360.28221)">
      <stop
         offset="0.178269"
         stop-color="#5200FF"
         id="stop1771-5" />
      <stop
         offset="0.732905"
         stop-color="#0085FF"
         id="stop1772-3" />
    </linearGradient>
    <linearGradient
       id="paint515_linear_890_11-5"
       x1="279"
       y1="389"
       x2="273"
       y2="383"
       gradientUnits="userSpaceOnUse"
       gradientTransform="translate(-253.53575,-360.28221)">
      <stop
         offset="0.158885"
         stop-color="#FF7E07"
         id="stop1773-6" />
      <stop
         offset="0.804651"
         stop-color="#FFC807"
         id="stop1774-2" />
    </linearGradient>
    <linearGradient
       id="paint516_linear_890_11-9"
       x1="265"
       y1="375"
       x2="271"
       y2="381"
       gradientUnits="userSpaceOnUse"
       gradientTransform="translate(-253.53575,-360.28221)">
      <stop
         offset="0.243963"
         stop-color="#F15700"
         id="stop1775-1" />
      <stop
         offset="0.831224"
         stop-color="#FF0000"
         id="stop1776-2" />
    </linearGradient>
    <linearGradient
       id="paint517_linear_890_11-7"
       x1="271"
       y1="389"
       x2="265"
       y2="383"
       gradientUnits="userSpaceOnUse"
       gradientTransform="translate(-253.53575,-360.28221)">
      <stop
         stop-color="#089953"
         id="stop1777-0" />
      <stop
         offset="1"
         stop-color="#16D96F"
         id="stop1778-9" />
    </linearGradient>
    <linearGradient
       id="paint530_linear_890_11"
       x1="98"
       y1="417"
       x2="87.270103"
       y2="394.00699"
       gradientUnits="userSpaceOnUse"
       gradientTransform="translate(-52,-357.91412)">
      <stop
         offset="0.316795"
         stop-color="#2E2E41"
         id="stop1803" />
      <stop
         offset="1"
         stop-color="#566C80"
         id="stop1804"
         style="stop-color:#566c80;stop-opacity:1;" />
    </linearGradient>
    <linearGradient
       id="paint531_linear_890_11"
       x1="111"
       y1="403"
       x2="70.68"
       y2="349.23999"
       gradientUnits="userSpaceOnUse"
       gradientTransform="translate(-52,-357.91412)">
      <stop
         stop-color="#2E2E41"
         id="stop1805" />
      <stop
         offset="1"
         stop-color="#566C80"
         id="stop1806" />
    </linearGradient>
    <linearGradient
       id="paint532_linear_890_11"
       x1="59"
       y1="365"
       x2="88.538498"
       y2="409.30801"
       gradientUnits="userSpaceOnUse"
       gradientTransform="translate(-52,-357.91412)">
      <stop
         offset="0.554849"
         stop-color="#EFF2F6"
         id="stop1807" />
      <stop
         offset="1"
         stop-color="#B7C6CD"
         id="stop1808" />
    </linearGradient>
    <linearGradient
       id="paint533_linear_890_11"
       x1="84"
       y1="401"
       x2="82"
       y2="399"
       gradientUnits="userSpaceOnUse"
       gradientTransform="translate(-52,-357.91412)">
      <stop
         stop-color="#71706E"
         id="stop1809" />
      <stop
         offset="1"
         stop-color="#B9AA99"
         id="stop1810" />
    </linearGradient>
    <linearGradient
       id="paint534_linear_890_11"
       x1="69"
       y1="375"
       x2="63"
       y2="369"
       gradientUnits="userSpaceOnUse"
       gradientTransform="translate(-52,-358)">
      <stop
         offset="0.141586"
         stop-color="#5200FF"
         id="stop1811" />
      <stop
         offset="0.753378"
         stop-color="#0085FF"
         id="stop1812" />
    </linearGradient>
    <linearGradient
       id="paint535_linear_890_11"
       x1="63"
       y1="379"
       x2="69"
       y2="385"
       gradientUnits="userSpaceOnUse"
       gradientTransform="translate(-52,-358)">
      <stop
         offset="0.251061"
         stop-color="#F15700"
         id="stop1813" />
      <stop
         offset="0.74648"
         stop-color="#FF0000"
         id="stop1814" />
    </linearGradient>
    <linearGradient
       id="paint536_linear_890_11"
       x1="79"
       y1="375"
       x2="73"
       y2="369"
       gradientUnits="userSpaceOnUse"
       gradientTransform="translate(-52,-358)">
      <stop
         offset="0.236137"
         stop-color="#089953"
         id="stop1815" />
      <stop
         offset="0.783705"
         stop-color="#16D96F"
         id="stop1816" />
    </linearGradient>
    <linearGradient
       id="paint537_linear_890_11"
       x1="79"
       y1="385"
       x2="73"
       y2="379"
       gradientUnits="userSpaceOnUse"
       gradientTransform="translate(-52,-358)">
      <stop
         offset="0.291575"
         stop-color="#FF7E07"
         id="stop1817" />
      <stop
         offset="0.750741"
         stop-color="#FFC807"
         id="stop1818" />
    </linearGradient>
    <linearGradient
       id="paint538_linear_890_11"
       x1="88.608704"
       y1="375"
       x2="83"
       y2="369"
       gradientUnits="userSpaceOnUse"
       gradientTransform="translate(-52,-358)">
      <stop
         offset="0.340681"
         stop-color="#2E2E41"
         id="stop1819" />
      <stop
         offset="0.738928"
         stop-color="#566C80"
         id="stop1820" />
    </linearGradient>
    <linearGradient
       inkscape:collect="always"
       xlink:href="#linearGradient1"
       id="linearGradient6"
       x1="22.446835"
       y1="-14.900835"
       x2="59"
       y2="45.08588"
       gradientUnits="userSpaceOnUse"
       gradientTransform="translate(0,-0.0858822)" />
    <linearGradient
       inkscape:collect="always"
       xlink:href="#linearGradient1"
       id="linearGradient8"
       x1="27.258694"
       y1="39.08588"
       x2="41.905926"
       y2="60.611446"
       gradientUnits="userSpaceOnUse"
       gradientTransform="translate(0,-0.0858822)" />
    <linearGradient
       inkscape:collect="always"
       xlink:href="#linearGradient9"
       id="linearGradient10"
       x1="10.349694"
       y1="7.0858822"
       x2="41.322083"
       y2="53.512272"
       gradientUnits="userSpaceOnUse"
       gradientTransform="translate(0,-0.0858822)" />
    <linearGradient
       id="paint1_linear_60_332"
       x1="25.6707"
       y1="31.295099"
       x2="93.842598"
       y2="109.9"
       gradientUnits="userSpaceOnUse"
       gradientTransform="matrix(0.40159507,0,0,0.38940286,5.2571363,-1.9305546)">
      <stop
         stop-color="#F9D423"
         id="stop5-4" />
      <stop
         offset="0.515624"
         stop-color="#FF4E50"
         id="stop6-7" />
      <stop
         offset="0.991304"
         stop-color="#8A2387"
         id="stop7-8" />
    </linearGradient>
    <linearGradient
       inkscape:collect="always"
       xlink:href="#linearGradient2"
       id="linearGradient11"
       x1="30.984558"
       y1="36"
       x2="31.005596"
       y2="10.000009"
       gradientUnits="userSpaceOnUse"
       gradientTransform="matrix(0.83333342,0,0,0.80769236,5.166665,4.4230752)" />
  </defs>
  <g
     inkscape:label="Layer 1"
     inkscape:groupmode="layer"
     id="layer1">
    <path
       d="m 27,44 h 8 v 11 h 7.5714 C 44.465,55 46,56.535 46,58.429 46,58.744 45.7442,59 45.4286,59 H 16.5714 C 16.2558,59 16,58.744 16,58.429 16,56.535 17.535,55 19.4286,55 H 27 Z"
       id="path517"
       style="fill:url(#linearGradient8)" />
    <path
       d="m 3,6.8180002 c 0,-2.109 1.7291,-3.818 3.8621,-3.818 H 55.138 c 2.133,0 3.862,1.709 3.862,3.818 V 41.182 C 59,43.291 57.271,45 55.138,45 H 6.8621 C 4.7291,45 3,43.291 3,41.182 Z"
       id="path518"
       style="fill:url(#linearGradient6)" />
    <path
       d="m 7,7.9410002 c 0,-0.52 0.4298,-0.941 0.96,-0.941 h 46.08 c 0.53,0 0.96,0.421 0.96,0.941 V 38.059 C 55,38.579 54.57,39 54.04,39 H 7.96 C 7.4298,39 7,38.579 7,38.059 Z"
       id="path519"
       style="fill:url(#linearGradient10)" />
    <path
       d="m 32,42 c 0,0.552 -0.4477,1 -1,1 -0.5523,0 -1,-0.448 -1,-1 0,-0.552 0.4477,-1 1,-1 0.5523,0 1,0.448 1,1 z"
       id="path520"
       style="fill:#00ff00" />
    <path
       d="m 31.003792,13.420629 c -3.984176,-0.0038 -7.869758,1.163916 -11.113306,3.338237 l 1.706553,2.248488 c 2.744757,-1.839978 6.032757,-2.827626 9.404221,-2.824859 z m 11.107156,3.356472 c -3.239573,-2.17968 -7.122961,-3.353203 -11.107156,-3.356472 l -0.0028,2.761866 c 3.371387,0.0031 6.65764,0.995826 9.398925,2.840249 z m -1.3668,0.212633 c 0.31494,-0.413387 0.926854,-0.508637 1.3668,-0.212633 l -1.710759,2.245643 c 0.879822,0.591989 2.103616,0.401589 2.733489,-0.425257 z m 0.226306,1.284474 c -0.439895,-0.296006 -0.541216,-0.871055 -0.226306,-1.284474 l 2.38953,1.607753 c 0.629824,-0.826812 0.427354,-1.976969 -0.452548,-2.568959 z m -9.968368,-3.012336 c 3.575709,0.0032 7.060972,1.056161 9.968368,3.012336 l 1.710676,-2.24568 c -3.405585,-2.291394 -7.488066,-3.525065 -11.676465,-3.52852 z m -9.973903,2.99601 c 2.910983,-1.951432 6.39824,-2.998968 9.973903,-2.99601 l 0.0028,-2.761864 c -4.188618,-0.0035 -8.273411,1.223548 -11.683288,3.509362 z m 0.228638,-1.284124 c 0.3142,0.413975 0.211842,0.98887 -0.228638,1.284124 L 19.321637,16.00937 c -0.880905,0.590506 -1.085631,1.740335 -0.457312,2.568212 z m -1.366335,-0.214892 c 0.440424,-0.295232 1.052178,-0.199038 1.366335,0.214892 l -2.392496,1.603824 c 0.628356,0.82788 1.851812,1.02031 2.732714,0.429772 z M 30.987127,26.78284 c -0.469299,0 -0.934042,0.08688 -1.367604,0.255679 l 1.124647,2.551593 c 0.07706,-0.03024 0.159596,-0.04532 0.242957,-0.04532 z m 1.367631,0.255679 C 31.921142,26.869721 31.456456,26.78284 30.987127,26.78284 v 2.761865 c 0.08334,0 0.165953,0.01536 0.24299,0.04535 z m 1.15937,0.728013 c -0.331881,-0.311848 -0.725818,-0.559281 -1.15937,-0.728013 l -1.124641,2.551593 c 0.07707,0.03028 0.147062,0.074 0.205969,0.129354 z m 0.774679,1.089602 c -0.179602,-0.407482 -0.442815,-0.777728 -0.774679,-1.089602 l -2.078042,1.952934 c 0.05911,0.05532 0.105735,0.1212 0.13765,0.193599 z m 0.272022,1.28527 c 0,-0.441069 -0.09242,-0.877815 -0.272022,-1.28527 l -2.715071,1.056931 c 0.03205,0.07245 0.04823,0.150007 0.04823,0.228339 z m -0.272022,1.28522 c 0.179615,-0.407463 0.272022,-0.844209 0.272022,-1.28522 h -2.938792 c 0,0.07837 -0.01653,0.155994 -0.04825,0.228363 z m -0.774679,1.089634 c 0.331864,-0.31185 0.595077,-0.68208 0.774679,-1.089634 l -2.715071,-1.056857 c -0.03201,0.07239 -0.07867,0.138191 -0.13765,0.193566 z m -1.15937,0.728087 c 0.433552,-0.168814 0.827489,-0.41622 1.15937,-0.728087 l -2.078042,-1.952925 c -0.05915,0.05528 -0.128951,0.09931 -0.205969,0.129399 z M 30.987127,33.5 c 0.469329,0 0.934015,-0.08693 1.367631,-0.255655 l -1.124641,-2.551613 c -0.07703,0.03011 -0.159617,0.0454 -0.24299,0.0454 z M 28.460118,32.516258 C 29.130323,33.146158 30.039324,33.5 30.987127,33.5 v -2.761882 c -0.168371,0 -0.329876,-0.06285 -0.448939,-0.174785 z m -1.046679,-2.374854 c 0,0.89076 0.376529,1.744993 1.046679,2.374854 l 2.07807,-1.952925 c -0.119042,-0.111858 -0.185977,-0.263625 -0.185977,-0.421929 z m 0.272055,-1.28527 c -0.179636,0.407455 -0.272055,0.844201 -0.272055,1.28527 h 2.938772 c 0,-0.07836 0.01658,-0.155885 0.04827,-0.228339 z m 0.774624,-1.089602 c -0.331807,0.311874 -0.595021,0.68209 -0.774624,1.089602 l 2.715073,1.056931 c 0.03201,-0.07246 0.07868,-0.138167 0.137621,-0.193599 z m 1.159405,-0.728013 c -0.433552,0.168732 -0.827506,0.416165 -1.159405,0.728013 l 2.07807,1.952934 c 0.05911,-0.05526 0.128977,-0.09932 0.205982,-0.129354 z m -5.030101,-3.995183 c 1.879157,-1.264392 4.134624,-1.939821 6.445743,-1.930389 l 0.01268,-2.761825 c -2.929026,-0.01193 -5.787607,0.84408 -8.16925,2.446512 z m -2.733497,-0.425297 c 0.629869,0.826861 1.853716,1.017244 2.733497,0.425297 l -1.710731,-2.245702 c 0.439886,-0.295984 1.051812,-0.200772 1.366775,0.212659 z m 0.452536,-2.568949 c -0.879813,0.591949 -1.082407,1.742141 -0.452536,2.568949 l 2.389541,-1.607746 c 0.314945,0.413423 0.213572,0.988499 -0.22631,1.284444 z m 8.743762,-2.618592 c -3.135088,-0.01289 -6.194647,0.903459 -8.743762,2.618592 l 1.710695,2.245647 c 2.046658,-1.377037 4.503158,-2.112736 7.020256,-2.102343 z m 8.719154,2.690207 c -2.533129,-1.736001 -5.58411,-2.677371 -8.719154,-2.690207 l -0.01269,2.761896 c 2.517045,0.01025 4.966615,0.766088 7.000433,2.159858 z m 0.428611,2.572537 c 0.637538,-0.821624 0.445629,-1.973412 -0.428611,-2.572537 l -1.731542,2.231547 C 37.602702,22.052693 37.506761,21.47677 37.825518,21.065965 Z m -2.737306,0.402855 c 0.874248,0.599161 2.099812,0.418817 2.737306,-0.402855 l -2.37447,-1.627277 c 0.318775,-0.410796 0.931528,-0.501012 1.368677,-0.201385 z m -6.427517,-1.98315 c 2.311029,0.0094 4.560165,0.703441 6.427517,1.98315 l 1.731513,-2.231517 c -2.366667,-1.621986 -5.217197,-2.501439 -8.146248,-2.513458 z m -0.0028,2.20487 c -1.878957,-0.0093 -3.711162,0.550221 -5.22551,1.59566 l 1.739776,2.225846 c 1.005696,-0.694301 2.222499,-1.065865 3.470353,-1.059705 z m 5.207453,1.646998 C 34.73754,23.904516 32.91168,23.327064 31.032681,23.317817 l -0.0153,2.761801 c 1.247853,0.0071 2.460439,0.389666 3.458369,1.093806 z m -1.371493,0.183416 c 0.324824,-0.406593 0.938864,-0.48871 1.371518,-0.183416 l -1.764445,2.208609 c 0.865271,0.610561 2.093377,0.44632 2.743026,-0.366856 z m 0.195218,1.28896 c -0.432447,-0.30527 -0.519893,-0.88238 -0.195034,-1.28896 l 2.350063,1.658337 c 0.649766,-0.813256 0.474972,-1.967376 -0.390295,-2.577956 z m -4.041224,-1.278197 c 1.458223,0.008 2.875243,0.455298 4.041384,1.278197 l 1.764571,-2.208579 C 35.157699,23.049676 33.127333,22.407445 31.038,22.397198 Z m -4.055352,1.23838 c 1.175196,-0.811326 2.59718,-1.245552 4.05539,-1.23838 l 0.01527,-2.761796 c -2.089362,-0.01025 -4.126712,0.611815 -5.810567,1.774302 z m 0.209554,-1.286976 c 0.320264,0.409749 0.226462,0.985981 -0.209533,1.286976 L 25.227177,24.1715 c -0.872036,0.602058 -1.059678,1.754446 -0.419103,2.573977 z m -1.369328,-0.196921 c 0.436011,-0.300989 1.049135,-0.212858 1.369407,0.196921 l -2.368454,1.635079 c 0.640581,0.819551 1.866782,0.995894 2.738814,0.393846 z"
       id="path2"
       style="fill:url(#linearGradient11);stroke-width:0.820413" />
  </g>
</svg>
