<?xml version="1.0" encoding="UTF-8" standalone="no"?>
<svg
   width="62"
   height="62"
   version="1.1"
   id="svg5"
   sodipodi:docname="gnome-layout-switcher.svg"
   inkscape:version="1.4 (unknown)"
   xmlns:inkscape="http://www.inkscape.org/namespaces/inkscape"
   xmlns:sodipodi="http://sodipodi.sourceforge.net/DTD/sodipodi-0.dtd"
   xmlns:xlink="http://www.w3.org/1999/xlink"
   xmlns="http://www.w3.org/2000/svg"
   xmlns:svg="http://www.w3.org/2000/svg">
  <defs
     id="defs5">
    <linearGradient
       id="linearGradient8"
       inkscape:collect="always">
      <stop
         style="stop-color:#2d3d53;stop-opacity:1;"
         offset="0"
         id="stop8" />
      <stop
         style="stop-color:#354864;stop-opacity:1;"
         offset="1"
         id="stop10" />
    </linearGradient>
    <linearGradient
       id="linearGradient4217">
      <stop
         style="stop-color:#000000;stop-opacity:1;"
         offset="0"
         id="stop2" />
      <stop
         style="stop-color:#000000;stop-opacity:0;"
         offset="1"
         id="stop4" />
    </linearGradient>
    <linearGradient
       id="linearGradient4161">
      <stop
         style="stop-color:#334545;stop-opacity:1;"
         offset="0"
         id="stop7" />
      <stop
         style="stop-color:#4d6868;stop-opacity:1"
         offset="1"
         id="stop9" />
    </linearGradient>
    <linearGradient
       id="a-1-2"
       y1="510.79999"
       y2="527.14001"
       gradientUnits="userSpaceOnUse"
       x2="0">
      <stop
         stop-color="#7cbaf8"
         id="stop2-2-7" />
      <stop
         offset="1"
         stop-color="#f4fcff"
         id="stop4-70-0" />
    </linearGradient>
    <linearGradient
       id="c"
       y1="503.79999"
       x1="400.57001"
       y2="519.79999"
       x2="416.57001"
       gradientUnits="userSpaceOnUse">
      <stop
         stop-color="#292c2f"
         id="stop12" />
      <stop
         offset="1"
         stop-opacity="0"
         id="stop14" />
    </linearGradient>
    <linearGradient
       id="b"
       y1="542.79999"
       x1="408.57001"
       y2="521.79999"
       x2="387.57001"
       gradientUnits="userSpaceOnUse"
       gradientTransform="translate(-384.57,-499.8)">
      <stop
         stop-color="#197cf1"
         id="stop7-8" />
      <stop
         offset="1"
         stop-color="#20bcfa"
         id="stop9-7" />
    </linearGradient>
    <linearGradient
       xlink:href="#linearGradient1389"
       id="linearGradient4503-5-6"
       y1="37"
       y2="4"
       x2="0"
       gradientUnits="userSpaceOnUse"
       gradientTransform="matrix(1.0218446,0,0,0.99999999,21.748946,8.2587777)" />
    <linearGradient
       id="linearGradient1389">
      <stop
         style="stop-color:#ffaaaa;stop-opacity:1"
         id="stop1385"
         offset="0" />
      <stop
         offset="1"
         style="stop-color:#ff5555;stop-opacity:1"
         id="stop1387" />
    </linearGradient>
    <linearGradient
       id="paint543_linear_890_11"
       x1="978.5"
       y1="298"
       x2="978.5"
       y2="304"
       gradientUnits="userSpaceOnUse"
       gradientTransform="matrix(0.75000004,0,0,0.75000004,-717.38333,-173.49123)">
      <stop
         offset="0.189495"
         stop-color="#EFF2F6"
         id="stop1829" />
      <stop
         offset="0.850463"
         stop-color="#B7C6CD"
         id="stop1830" />
    </linearGradient>
    <linearGradient
       inkscape:collect="always"
       xlink:href="#linearGradient8"
       id="linearGradient10"
       x1="31.5"
       y1="59.017544"
       x2="31.5"
       y2="4.9824562"
       gradientUnits="userSpaceOnUse"
       gradientTransform="translate(-0.5,-1)" />
    <linearGradient
       id="linearGradient4144">
      <stop
         style="stop-color:#c83771;stop-opacity:1"
         offset="0"
         id="stop1141" />
      <stop
         style="stop-color:#de87aa;stop-opacity:1"
         offset="1"
         id="stop1143" />
    </linearGradient>
    <linearGradient
       id="c-0"
       gradientUnits="userSpaceOnUse"
       x1="10"
       x2="24"
       y1="10"
       y2="24"
       gradientTransform="translate(59.728813,26.237288)">
      <stop
         offset="0"
         stop-color="#292c2f"
         id="stop12-2" />
      <stop
         offset="1"
         stop-opacity="0"
         id="stop14-3" />
    </linearGradient>
    <linearGradient
       id="d"
       gradientUnits="userSpaceOnUse"
       x1="24"
       x2="24"
       y1="25"
       y2="7"
       gradientTransform="translate(59.728813,26.237288)">
      <stop
         offset="0"
         stop-color="#bb9d71"
         id="stop2-7" />
      <stop
         offset="1"
         stop-color="#f9f2e7"
         id="stop4-5" />
    </linearGradient>
  </defs>
  <sodipodi:namedview
     id="namedview5"
     pagecolor="#ffffff"
     bordercolor="#000000"
     borderopacity="0.25"
     inkscape:showpageshadow="2"
     inkscape:pageopacity="0.0"
     inkscape:pagecheckerboard="0"
     inkscape:deskcolor="#d1d1d1"
     inkscape:zoom="8.2643105"
     inkscape:cx="25.228965"
     inkscape:cy="49.671415"
     inkscape:window-width="1920"
     inkscape:window-height="998"
     inkscape:window-x="0"
     inkscape:window-y="0"
     inkscape:window-maximized="1"
     inkscape:current-layer="svg5" />
  <rect
     style="opacity:0.2;stroke-width:0.9823"
     width="55"
     height="55.017544"
     x="3.5"
     y="3.9824562"
     rx="8.25"
     ry="8.2526312"
     id="rect1" />
  <rect
     style="fill:url(#linearGradient10);stroke-width:0.9823"
     width="55"
     height="55.017544"
     x="3.5"
     y="3"
     rx="8.25"
     ry="8.2526312"
     id="rect2" />
  <path
     style="opacity:1;fill:#5a79a5;stroke-width:0.9823;fill-opacity:0.5"
     d="M 11.748466,3 C 7.1779652,3 3.5,6.6791384 3.5,11.251097 v 0.982456 c 0,-4.5719585 3.6779652,-8.2510969 8.248466,-8.2510969 h 38.503068 c 4.5705,0 8.248466,3.6791384 8.248466,8.2510969 V 11.251097 C 58.5,6.6791384 54.822034,3 50.251534,3 Z"
     id="path4" />
  <g
     id="g7"
     transform="matrix(1.0450794,0,0,1.0344846,-2.4425408,-2.1295474)">
    <path
       style="opacity:0.2"
       d="m 47.056641,19.001674 a 1.50015,1.50015 0 0 0 -1.044922,0.369141 l -7.21875,6.316406 C 37.00604,24.025665 34.62087,22.999721 32,22.999721 c -5.50508,5e-6 -9.999997,4.49492 -10,10 2e-6,1.805818 0.491611,3.497463 1.335938,4.962891 l -6.316407,5.527343 -4.509765,-4.099609 a 1.50015,1.50015 0 1 0 -2.019532,2.21875 l 5.5,5 a 1.50015,1.50015 0 0 0 1.998047,0.01953 l 7.21875,-6.316406 c 1.786929,1.661556 4.172101,2.687498 6.792969,2.6875 5.50508,-1e-6 9.999993,-4.49492 10,-10 -10e-7,-1.80582 -0.491611,-3.497463 -1.335938,-4.962891 l 6.316407,-5.527343 4.509765,4.099609 a 1.50015,1.50015 0 1 0 2.019532,-2.21875 l -5.5,-5 A 1.50015,1.50015 0 0 0 47.056641,19.001674 Z M 32,25.999721 c 3.884021,10e-7 6.999998,3.115979 7,7 -5e-6,3.884019 -3.115981,6.999999 -7,7 -3.884017,-3e-6 -6.999995,-3.115983 -7,-7 2e-6,-3.884019 3.115981,-6.999997 7,-7 z"
       id="path2-2" />
    <path
       style="fill:none;stroke:#1bc4a3;stroke-width:3;stroke-linecap:round;stroke-linejoin:round;stroke-opacity:1"
       d="m 25,37.5 -8,7 -5.5,-5"
       id="path3-2" />
    <path
       style="fill:none;stroke:#1bc1a1;stroke-width:2.99952;stroke-linecap:round;stroke-linejoin:round;stroke-opacity:1"
       d="m 40.500238,32.000003 a 8.5002422,8.5002422 0 0 1 -8.500241,8.500232 8.5002422,8.5002422 0 0 1 -8.500235,-8.500232 8.5002422,8.5002422 0 0 1 8.500235,-8.500238 8.5002422,8.5002422 0 0 1 8.500241,8.500238 z"
       id="path4-8" />
    <path
       style="fill:none;stroke:#1bc1a1;stroke-width:3;stroke-linecap:round;stroke-linejoin:round;stroke-opacity:1"
       d="m 39,26.5 8,-7 5.5,5"
       id="path5" />
    <path
       style="opacity:0.2;fill:#ffffff"
       d="m 47.056641,18.001953 a 1.50015,1.50015 0 0 0 -1.044922,0.369141 L 38.792969,24.6875 C 37.00604,23.025944 34.62087,22 32,22 c -5.50508,5e-6 -9.999997,4.49492 -10,10 0,0.146956 0.02286,0.288211 0.0293,0.433594 C 22.326553,27.191432 26.686069,23.000005 32,23 c 2.62087,0 5.00604,1.025944 6.792969,2.6875 l 7.21875,-6.316406 a 1.50015,1.50015 0 0 1 1.044922,-0.369141 1.50015,1.50015 0 0 1 0.953125,0.388672 l 5.5,5 a 1.50015,1.50015 0 0 1 0.410156,0.617187 1.50015,1.50015 0 0 0 -0.410156,-1.617187 l -5.5,-5 a 1.50015,1.50015 0 0 0 -0.953125,-0.388672 z m -6.046875,9.732422 -0.345704,0.302734 c 0.775617,1.346173 1.233983,2.888186 1.306641,4.529297 C 41.981396,32.377839 42,32.191149 42,32 c -10e-7,-1.529742 -0.3691,-2.967859 -0.990234,-4.265625 z M 25.025391,32.5 C 25.013801,32.665788 25,32.831114 25,33 c 5e-6,3.884017 3.115983,6.999997 7,7 3.884019,-10e-7 6.999995,-3.115981 7,-7 0,-0.168886 -0.0138,-0.334211 -0.02539,-0.5 C 38.719655,36.146999 35.715133,38.999999 32,39 c -3.715131,-3e-6 -6.719655,-2.853003 -6.974609,-6.5 z m -2.035157,4.765625 -5.970703,5.224609 -4.509765,-4.099609 a 1.50015,1.50015 0 0 0 -2.429688,1.601563 1.50015,1.50015 0 0 1 2.429688,-0.601563 l 4.509765,4.099609 6.316407,-5.527343 c -0.129083,-0.224038 -0.233606,-0.463054 -0.345704,-0.697266 z"
       id="path6" />
  </g>
</svg>
