<?xml version="1.0" encoding="UTF-8" standalone="no"?>
<svg
   width="62"
   height="62"
   version="1.1"
   id="svg1"
   sodipodi:docname="gnome-tweak-tool.svg"
   inkscape:version="1.4 (unknown)"
   xmlns:inkscape="http://www.inkscape.org/namespaces/inkscape"
   xmlns:sodipodi="http://sodipodi.sourceforge.net/DTD/sodipodi-0.dtd"
   xmlns:xlink="http://www.w3.org/1999/xlink"
   xmlns="http://www.w3.org/2000/svg"
   xmlns:svg="http://www.w3.org/2000/svg">
  <defs
     id="defs1">
    <linearGradient
       id="linearGradient1"
       inkscape:collect="always">
      <stop
         style="stop-color:#b3b3b3;stop-opacity:1"
         offset="0"
         id="stop1" />
      <stop
         style="stop-color:#ececec;stop-opacity:1"
         offset="1"
         id="stop2" />
    </linearGradient>
    <linearGradient
       inkscape:collect="always"
       xlink:href="#linearGradient1"
       id="linearGradient2"
       x1="32"
       y1="58"
       x2="32"
       y2="6"
       gradientUnits="userSpaceOnUse"
       gradientTransform="matrix(1.0769236,0,0,1.0769236,-3.4615425,-3.4615425)" />
    <filter
       id="b"
       width="1.2159865"
       height="1.2159999"
       x="-0.10799323"
       y="-0.10799995"
       color-interpolation-filters="sRGB">
      <feGaussianBlur
         stdDeviation="1.44"
         id="feGaussianBlur6" />
    </filter>
    <linearGradient
       id="c"
       x1="31.322001"
       x2="31.051001"
       y1="48.136002"
       y2="15.322"
       gradientUnits="userSpaceOnUse">
      <stop
         offset="0"
         stop-color="#2e2e2e"
         id="stop3" />
      <stop
         offset="1"
         stop-color="#606060"
         id="stop4" />
    </linearGradient>
    <linearGradient
       id="d"
       x1="30.643999"
       x2="30.372999"
       y1="48.678001"
       y2="15.051"
       gradientUnits="userSpaceOnUse">
      <stop
         offset="0"
         stop-color="#2673cf"
         id="stop1-3" />
      <stop
         offset="1"
         stop-color="#26bbcf"
         id="stop2-6" />
    </linearGradient>
    <linearGradient
       id="c-7"
       gradientTransform="matrix(1.375087,0,0,1.3750053,-2.0022338,-1.99988)"
       gradientUnits="userSpaceOnUse"
       x1="23.526918"
       x2="24.064453"
       y1="39.175846"
       y2="8">
      <stop
         offset="0"
         stop-color="#1d1e1e"
         id="stop5"
         style="stop-color:#3d3846;stop-opacity:1" />
      <stop
         offset="1"
         stop-color="#44484c"
         id="stop6"
         style="stop-color:#cdab8f;stop-opacity:1" />
    </linearGradient>
  </defs>
  <sodipodi:namedview
     id="namedview1"
     pagecolor="#ffffff"
     bordercolor="#000000"
     borderopacity="0.25"
     inkscape:showpageshadow="2"
     inkscape:pageopacity="0.0"
     inkscape:pagecheckerboard="0"
     inkscape:deskcolor="#d1d1d1"
     inkscape:zoom="6.0546875"
     inkscape:cx="37.656774"
     inkscape:cy="43.685161"
     inkscape:window-width="1920"
     inkscape:window-height="998"
     inkscape:window-x="0"
     inkscape:window-y="0"
     inkscape:window-maximized="1"
     inkscape:current-layer="svg1" />
  <rect
     width="56"
     height="56"
     x="3"
     y="3"
     fill-rule="evenodd"
     rx="8.6153917"
     ry="8.6153917"
     style="fill:url(#linearGradient2);stroke-width:1.07683;paint-order:stroke fill markers"
     id="rect1" />
  <path
     clip-rule="evenodd"
     d="m 31.088321,9.000454 c -0.82593,-0.0014 -1.655724,0.04092 -2.479913,0.131998 -0.637859,0.0704 -1.107977,0.619391 -1.086505,1.258354 0.07162,2.040017 -1.13853,3.927682 -3.013963,4.69581 -1.798485,0.734608 -4.135966,0.196341 -5.444759,-1.243001 -0.432568,-0.474134 -1.156515,-0.530834 -1.66044,-0.138073 -1.318609,1.034494 -2.518861,2.220779 -3.560282,3.520313 -0.406223,0.505235 -0.345923,1.234959 0.132001,1.669629 1.531298,1.386622 2.026266,3.593969 1.230745,5.490724 -0.759488,1.808393 -2.638126,2.974016 -4.787954,2.974016 -0.6976168,-0.02244 -1.1943168,0.446109 -1.2706628,1.080351 -0.193482,1.652821 -0.194404,3.336467 -0.0088,5.002725 0.06907,0.621141 0.812058,1.08342 1.4425288,1.08342 1.915878,-0.04904 3.752409,1.136253 4.52401,3.013903 0.769187,1.875162 0.274222,4.059089 -1.230744,5.43855 -0.470693,0.432345 -0.525626,1.154592 -0.128821,1.657353 1.022295,1.30199 2.195244,2.485988 3.480472,3.520321 0.504079,0.406178 1.235742,0.352465 1.672709,-0.128818 1.31633,-1.455912 3.67161,-1.994753 5.484674,-1.233792 1.899015,0.794298 3.094073,2.714136 2.977131,4.775613 -0.03828,0.64744 0.437734,1.20892 1.080362,1.282904 C 29.280792,52.950774 30.124132,53 30.972206,53 c 0.804996,0 1.613499,-0.04532 2.418527,-0.135041 0.63803,-0.0704 1.10792,-0.618239 1.086505,-1.258353 -0.07392,-2.038873 1.137877,-3.925897 3.010877,-4.692743 1.810589,-0.739477 4.138905,-0.194871 5.447849,1.242999 0.434983,0.47313 1.15376,0.52637 1.660439,0.135042 1.316184,-1.032061 2.513894,-2.214142 3.560265,-3.517258 0.406029,-0.50408 0.348216,-1.238193 -0.132001,-1.672692 -1.531298,-1.386654 -2.029328,-3.592193 -1.23381,-5.487661 0.747899,-1.784316 2.557669,-2.983211 4.502518,-2.983211 l 0.273164,0.0088 c 0.630814,0.05148 1.209547,-0.436458 1.285993,-1.080339 0.193855,-1.654321 0.196355,-3.336467 0.0088,-5.002743 h 0.0034 c -0.06961,-0.618477 -0.791293,-1.080312 -1.414896,-1.080312 -2.016241,0 -3.807405,-1.186211 -4.557771,-3.016979 -0.766544,-1.875181 -0.271919,-4.060306 1.23075,-5.438563 0.473018,-0.432368 0.531602,-1.157654 0.135027,-1.660411 C 47.225901,16.050182 46.051874,14.866031 44.77123,13.840218 44.269738,13.43781 43.533349,13.496892 43.098525,13.978293 41.787113,15.43057 39.431,15.96847 37.610782,15.209023 35.716383,14.412175 34.522916,12.4937 34.639793,10.433414 34.678313,9.78623 34.204648,9.222574 33.559436,9.147429 32.73747,9.052289 31.914574,9.002373 31.08863,9 Z M 38.7153,19.110259 c 4.821921,0 -0.301858,6.865708 -3.013963,6.865708 -2.712498,0 -1.80778,-6.865708 3.013963,-6.865708 z m -7.691431,0.856307 c 2.714445,-0.352193 1.128117,5.247411 -0.316136,5.159257 -1.444841,-0.08814 -2.397366,-4.807067 0.316136,-5.159257 z m -4.548568,1.856839 c 1.784906,-0.18944 1.65585,4.23191 0.509485,4.465625 -1.221798,0.249676 -3.074112,-3.46438 -0.893134,-4.364339 0.136264,-0.05632 0.264656,-0.0886 0.383649,-0.101199 z M 23.0869,24.729906 c 1.327383,0.04464 1.902414,3.48072 1.003641,3.876337 -1.027186,0.451937 -3.360287,-2.464412 -1.614409,-3.670713 0.218334,-0.150666 0.421143,-0.212001 0.610768,-0.205624 z m 9.971851,2.228194 c 2.245753,0.03808 4.059665,0.776134 4.30302,2.22209 0.781802,4.645285 -11.077076,6.341326 -6.611066,9.741514 1.402905,1.068113 2.834978,0.251192 2.618025,-1.405691 v -0.0034 c -0.181087,-1.382233 4.857352,-2.217922 4.46264,-0.128818 -0.516836,2.7395 -3.276914,4.901466 -5.671904,4.901466 -4.868372,0 -9.53639,-5.660881 -8.624462,-9.741513 0.842024,-3.770786 5.78081,-5.649204 9.523747,-5.585882 z"
     fill="url(#c)"
     fill-rule="evenodd"
     stroke-width="1.81156"
     id="path8"
     style="fill:url(#c-7)" />
</svg>
