<?xml version="1.0" encoding="UTF-8" standalone="no"?>
<svg
   width="62"
   height="62"
   version="1.1"
   viewBox="0 0 16.403844 16.403844"
   id="svg6"
   sodipodi:docname="gnome-klotski.svg"
   inkscape:version="1.4 (e7c3feb100, 2024-10-09)"
   xmlns:inkscape="http://www.inkscape.org/namespaces/inkscape"
   xmlns:sodipodi="http://sodipodi.sourceforge.net/DTD/sodipodi-0.dtd"
   xmlns="http://www.w3.org/2000/svg"
   xmlns:svg="http://www.w3.org/2000/svg">
  <defs
     id="defs6" />
  <sodipodi:namedview
     id="namedview6"
     pagecolor="#ffffff"
     bordercolor="#000000"
     borderopacity="0.25"
     inkscape:showpageshadow="2"
     inkscape:pageopacity="0.0"
     inkscape:pagecheckerboard="0"
     inkscape:deskcolor="#d1d1d1"
     inkscape:zoom="11.6875"
     inkscape:cx="31.957219"
     inkscape:cy="32"
     inkscape:window-width="1920"
     inkscape:window-height="994"
     inkscape:window-x="0"
     inkscape:window-y="0"
     inkscape:window-maximized="1"
     inkscape:current-layer="svg6" />
  <rect
     transform="matrix(0,-1,-1,0,0,0)"
     x="-15.610113"
     y="-15.61011"
     width="14.816376"
     height="14.816376"
     rx="7.4082918"
     ry="7.4082918"
     id="rect1"
     style="stroke-width:1.03705;fill:#268bcf;fill-opacity:1" />
  <rect
     transform="matrix(0,-1,-1,0,0,0)"
     x="-14.230846"
     y="-14.239126"
     width="12.073371"
     height="12.073371"
     rx="6.0366855"
     ry="6.0366855"
     opacity="0.15"
     id="rect2"
     style="stroke-width:1.03705" />
  <path
     d="m 5.1439859,4.667455 h 1.8826274 c 0.2586612,0 0.4693234,0.2106292 0.4693234,0.4692499 V 7.019037 A 0.47065682,0.47058302 0 0 1 7.0266133,7.4882869 H 5.1439859 A 0.47065682,0.47058302 0 0 1 4.6746626,7.019037 V 5.1367049 c 0,-0.2586207 0.2106621,-0.4692499 0.4693233,-0.4692499 m 0,0 m 4.2332444,4.2325809 h 1.8826267 c 0.259996,0 0.469325,0.2106289 0.469325,0.4692499 v 1.8823322 a 0.46932352,0.46924993 0 0 1 -0.469325,0.469249 H 9.3772303 A 0.46932352,0.46924993 0 0 1 8.9079073,11.251618 V 9.3692858 c 0,-0.258621 0.210662,-0.4692499 0.469323,-0.4692499 m 0,0"
     id="path2"
     style="stroke-width:1.33319;fill:#ffffff;fill-opacity:1" />
  <g
     fill="#ffcf36"
     id="g5"
     transform="matrix(1.3333055,0,0,1.3330964,-3.0865086,-376.4488)">
    <path
       d="m 5.82,288.533 a 0.528,0.528 0 0 0 -0.528,0.53 v 2.116 c 0,0.294 0.235,0.53 0.529,0.53 h 2.116 c 0.294,0 0.53,-0.236 0.53,-0.53 v -2.116 a 0.528,0.528 0 0 0 -0.53,-0.53 m -2.116,0.265 h 2.116 c 0.147,0 0.265,0.118 0.265,0.265 v 2.116 a 0.264,0.264 0 0 1 -0.265,0.265 H 5.821 a 0.264,0.264 0 0 1 -0.265,-0.265 v -2.116 c 0,-0.147 0.118,-0.265 0.265,-0.265 m 0,0"
       id="path3" />
    <path
       d="m 6.085,289.063 h 1.588 c 0.146,0 0.264,0.118 0.264,0.264 v 1.588 a 0.265,0.265 0 0 1 -0.264,0.264 H 6.085 a 0.265,0.265 0 0 1 -0.264,-0.264 v -1.588 c 0,-0.146 0.119,-0.264 0.264,-0.264 m 0,0 m 2.911,-3.705 a 0.528,0.528 0 0 0 -0.53,0.53 v 2.116 c 0,0.294 0.236,0.53 0.53,0.53 h 2.116 c 0.294,0 0.53,-0.236 0.53,-0.53 v -2.116 a 0.528,0.528 0 0 0 -0.53,-0.53 m -2.116,0.265 h 2.116 c 0.147,0 0.265,0.118 0.265,0.265 v 2.116 a 0.264,0.264 0 0 1 -0.265,0.265 H 8.996 a 0.264,0.264 0 0 1 -0.265,-0.265 v -2.116 c 0,-0.147 0.118,-0.265 0.265,-0.265 m 0,0"
       id="path4" />
    <path
       d="m 9.26,285.888 h 1.588 c 0.146,0 0.264,0.118 0.264,0.264 v 1.588 a 0.265,0.265 0 0 1 -0.264,0.264 H 9.26 A 0.265,0.265 0 0 1 8.996,287.74 v -1.588 c 0,-0.146 0.119,-0.264 0.264,-0.264 m 0,0"
       id="path5" />
  </g>
</svg>
