<?xml version="1.0" encoding="UTF-8" standalone="no"?>
<svg
   width="62"
   height="62"
   version="1.1"
   id="svg1"
   sodipodi:docname="godot-server-headless.svg"
   inkscape:version="1.4 (unknown)"
   xmlns:inkscape="http://www.inkscape.org/namespaces/inkscape"
   xmlns:sodipodi="http://sodipodi.sourceforge.net/DTD/sodipodi-0.dtd"
   xmlns:xlink="http://www.w3.org/1999/xlink"
   xmlns="http://www.w3.org/2000/svg"
   xmlns:svg="http://www.w3.org/2000/svg">
  <defs
     id="defs1">
    <linearGradient
       id="linearGradient1"
       inkscape:collect="always">
      <stop
         style="stop-color:#b3b3b3;stop-opacity:1"
         offset="0"
         id="stop1" />
      <stop
         style="stop-color:#ececec;stop-opacity:1"
         offset="1"
         id="stop2" />
    </linearGradient>
    <linearGradient
       inkscape:collect="always"
       xlink:href="#linearGradient1"
       id="linearGradient2"
       x1="32"
       y1="58"
       x2="32"
       y2="6"
       gradientUnits="userSpaceOnUse"
       gradientTransform="matrix(1.0769236,0,0,1.0769236,-3.4615425,-3.4615425)" />
    <filter
       id="b"
       width="1.2159865"
       height="1.2159999"
       x="-0.10799323"
       y="-0.10799995"
       color-interpolation-filters="sRGB">
      <feGaussianBlur
         stdDeviation="1.44"
         id="feGaussianBlur6" />
    </filter>
    <linearGradient
       id="c"
       x1="31.322001"
       x2="31.051001"
       y1="48.136002"
       y2="15.322"
       gradientUnits="userSpaceOnUse">
      <stop
         offset="0"
         stop-color="#2e2e2e"
         id="stop3" />
      <stop
         offset="1"
         stop-color="#606060"
         id="stop4" />
    </linearGradient>
    <linearGradient
       id="d"
       x1="30.643999"
       x2="30.372999"
       y1="48.678001"
       y2="15.051"
       gradientUnits="userSpaceOnUse">
      <stop
         offset="0"
         stop-color="#2673cf"
         id="stop1-3" />
      <stop
         offset="1"
         stop-color="#26bbcf"
         id="stop2-6" />
    </linearGradient>
  </defs>
  <sodipodi:namedview
     id="namedview1"
     pagecolor="#ffffff"
     bordercolor="#000000"
     borderopacity="0.25"
     inkscape:showpageshadow="2"
     inkscape:pageopacity="0.0"
     inkscape:pagecheckerboard="0"
     inkscape:deskcolor="#d1d1d1"
     inkscape:zoom="6.0546875"
     inkscape:cx="37.574194"
     inkscape:cy="30.472258"
     inkscape:window-width="1920"
     inkscape:window-height="998"
     inkscape:window-x="0"
     inkscape:window-y="0"
     inkscape:window-maximized="1"
     inkscape:current-layer="svg1" />
  <rect
     width="56"
     height="56"
     x="3"
     y="3"
     fill-rule="evenodd"
     rx="8.6153917"
     ry="8.6153917"
     style="fill:url(#linearGradient2);stroke-width:1.07683;paint-order:stroke fill markers"
     id="rect1" />
  <g
     id="g1"
     transform="translate(-6.5,-52.000055)">
    <path
       d="m 46.895194,83.21111 c 16.125668,24.81149 8.063359,12.405758 0,0 m -18.790363,0 c 28.652575,24.81149 14.325764,12.405758 0,0 m 29.360992,-0.822926 -0.05563,-3.294772 C 53.282495,73.013014 47.057871,69.436841 37.498964,69.825536 27.933765,69.436841 21.714391,73.013014 17.588779,79.093412 l -0.05456,3.294772 2.882994,-0.873548 v -2.423253 c 0.835406,-0.51724 3.417192,-1.198466 5.12474,-1.64688 v 2.679347 l 3.418242,-0.516234 v -2.162098 c 0.967644,-0.787503 2.769647,-1.307788 5.125789,-1.648909 v 3.294774 h 6.83124 v -3.294774 c 2.356139,0.341121 4.157094,0.861406 5.124739,1.648909 v 2.162098 l 3.418242,0.516234 v -2.678332 c 1.7086,0.448414 4.289334,1.129639 5.124743,1.647894 v 2.421224 z"
       id="path1"
       style="fill:#47a5bf;stroke-width:0.773019" />
    <path
       d="m 57.465955,82.386502 -0.05507,-3.294414 C 53.282719,73.011125 47.058467,69.434965 37.499156,69.824213 27.934718,69.434965 21.714309,73.011125 17.588725,79.092088 l -0.0538,3.294414 2.882784,1.40501 v -4.700658 c 0.835364,-0.517773 3.417059,-1.198647 5.12495,-1.647217 v 2.679033 l 3.41834,-0.51653 v -2.162503 c 0.967334,-0.787151 2.768755,-1.30738 5.124951,-1.648441 v 3.294415 h 6.831556 v -3.294415 c 2.356196,0.341061 4.157618,0.86129 5.124951,1.648441 v 2.162503 l 3.418344,0.51653 v -2.679033 c 1.707887,0.44857 4.289581,1.129444 5.124951,1.648451 v 7.059643 z"
       style="fill:#3888c3;fill-opacity:1;stroke-width:0.943703"
       id="path2" />
    <path
       fill="#47a5bf"
       d="m 17.534065,82.388739 0.05509,5.851117 c 4.128149,6.08096 10.3524,9.657113 19.911713,9.267866 9.564428,0.389247 15.784837,-3.186906 19.910415,-9.267866 l 0.05379,-5.851117 -2.882778,0.580788 v 5.27157 c -0.835358,0.517759 -3.417058,1.198637 -5.124944,1.647209 v -2.679033 l -3.41833,0.516527 v 2.162506 c -0.967336,0.78715 -2.76875,1.307383 -5.12495,1.648433 v -3.29441 h -6.831557 v 3.29441 C 31.726298,91.195689 29.92488,90.675456 28.957547,89.888306 V 87.7258 l -3.418345,-0.516527 v 2.679033 c -1.707875,-0.448572 -4.289571,-1.12945 -5.124941,-1.64845 l 0.0024,-9.14677 z"
       style="fill:#3888c3;fill-opacity:1;stroke-width:1.25827"
       id="path3" />
    <path
       fill="#47a5bf"
       d="m 33.227459,61 -5.070162,1.647889 0.800774,4.943675 -4.376438,2.314943 L 22.125784,67.58954 17,72.533206 20.416143,75.826962 H 54.583855 L 58,72.533206 52.875268,67.58954 50.417323,69.907524 46.040875,67.58954 46.841652,62.646874 41.767293,61 39.846698,64.294767 h -4.69654 L 33.228511,61 Z m 8.54508,44.00011 5.070162,-1.64785 -0.800773,-4.942703 4.376437,-2.315958 2.45585,2.316965 L 58,93.467904 54.583855,90.173144 H 20.416143 L 17,93.467904 l 5.12473,4.94266 2.457944,-2.317981 4.376449,2.317981 -0.800778,4.942646 5.07436,1.6469 1.920595,-3.29373 h 4.696539 z"
       style="fill:#3888c3;fill-opacity:1;stroke-width:1.25827"
       id="path4" />
  </g>
</svg>
