<?xml version="1.0" encoding="UTF-8" standalone="no"?>
<svg
   width="62"
   height="62"
   version="1"
   id="svg11"
   sodipodi:docname="godot-server.svg"
   inkscape:version="1.4 (unknown)"
   xmlns:inkscape="http://www.inkscape.org/namespaces/inkscape"
   xmlns:sodipodi="http://sodipodi.sourceforge.net/DTD/sodipodi-0.dtd"
   xmlns="http://www.w3.org/2000/svg"
   xmlns:svg="http://www.w3.org/2000/svg">
  <defs
     id="defs11" />
  <sodipodi:namedview
     id="namedview11"
     pagecolor="#ffffff"
     bordercolor="#000000"
     borderopacity="0.25"
     inkscape:showpageshadow="2"
     inkscape:pageopacity="0.0"
     inkscape:pagecheckerboard="0"
     inkscape:deskcolor="#d1d1d1"
     inkscape:zoom="11.6875"
     inkscape:cx="32"
     inkscape:cy="31.957219"
     inkscape:window-width="1920"
     inkscape:window-height="998"
     inkscape:window-x="0"
     inkscape:window-y="0"
     inkscape:window-maximized="1"
     inkscape:current-layer="svg11" />
  <g
     transform="matrix(1.0714094,0,0,1.0769231,-3.2856376,-1.3076924)"
     id="g11">
    <path
       style="opacity:0.2"
       d="M 25,56 C 8.6551,53.886 7.9914,45.471 7.9914,45.471 L 8,26 4,21.951 l 5,-7 5,3 4,-4 V 8 l 8,-3 2,5 h 8 l 2,-5 8,3 v 6 l 4,4 5,-3 5,7 -4,4 -0.02,19.471 c 0,0 -0.5,10.29 -16.98,10.529 z"
       id="path1" />
    <path
       style="fill:#3888c3"
       d="M 25,55 C 8.6551,52.886 7.9914,44.471 7.9914,44.471 L 8,25 4,20.951 l 5,-7 5,3 4,-4 V 7 l 8,-3 2,5 h 8 l 2,-5 8,3 v 6 l 4,4 5,-3 5,7 -4,4 -0.02,19.471 c 0,0 -0.5,10.29 -16.98,10.529 z"
       id="path2" />
    <circle
       style="opacity:0.2"
       cx="20"
       cy="30"
       r="6"
       id="circle2" />
    <circle
       style="fill:#ffffff"
       cx="20"
       cy="29"
       r="6"
       id="circle3" />
    <circle
       style="fill:#c83771"
       cx="20"
       cy="29"
       r="4"
       id="circle4" />
    <circle
       style="opacity:0.2"
       cx="44"
       cy="30"
       r="6"
       id="circle5" />
    <circle
       style="fill:#ffffff"
       cx="44"
       cy="29"
       r="6"
       id="circle6" />
    <circle
       style="fill:#c83771"
       cx="44"
       cy="29"
       r="4"
       id="circle7" />
    <path
       style="opacity:0.2;fill:#ffffff"
       d="M 4,21 8.9979,13.995 14,17 18,13 v 1 L 14,18 9.0001,15 C 9.0894,14.961 6.0166,19.192 4.4183,21.417 Z M 60.001,21 54.999,14 49.994,16.998 45.996,12.999 46,14 l 4,4 4.999,-3 4.579,6.405 z M 45.996,7.0006 38.001,4.0001 35.999,9 l 0.002,1 2,-5 L 46,8.0001 Z m -27.994,0 L 26,4.0001 28,9 h 7.999 l 0.002,1 H 28 L 26,5 18,8.0001 Z"
       id="path7" />
    <path
       style="fill:none;stroke:#000000;stroke-width:4.0017;stroke-linecap:round;stroke-opacity:0.2"
       d="m 32.001,30.001 v 5.998"
       id="path8" />
    <path
       style="fill:none;stroke:#ffffff;stroke-width:4.0007;stroke-linecap:round"
       d="m 32,29 v 5.996"
       id="path9" />
    <path
       style="opacity:0.2;fill:none;stroke:#000000;stroke-width:2;stroke-linejoin:round"
       d="m 56,43.001 h -9 v 4 H 37 V 43 H 32 M 8,43.001 h 9 v 4 H 27 V 43 h 5"
       id="path10" />
    <path
       style="fill:none;stroke:#ffffff;stroke-width:2;stroke-linejoin:round"
       d="m 56,42.001 h -9 v 4 H 37 V 42 H 32 M 8,42.001 h 9 v 4 H 27 V 42 h 5"
       id="path11" />
  </g>
</svg>
