<?xml version="1.0" encoding="UTF-8" standalone="no"?>
<svg
   width="62"
   height="62"
   version="1"
   id="svg6"
   sodipodi:docname="google-chrome.svg"
   inkscape:version="1.4 (e7c3feb100, 2024-10-09)"
   xmlns:inkscape="http://www.inkscape.org/namespaces/inkscape"
   xmlns:sodipodi="http://sodipodi.sourceforge.net/DTD/sodipodi-0.dtd"
   xmlns="http://www.w3.org/2000/svg"
   xmlns:svg="http://www.w3.org/2000/svg">
  <defs
     id="defs6" />
  <sodipodi:namedview
     id="namedview6"
     pagecolor="#ffffff"
     bordercolor="#000000"
     borderopacity="0.25"
     inkscape:showpageshadow="2"
     inkscape:pageopacity="0.0"
     inkscape:pagecheckerboard="0"
     inkscape:deskcolor="#d1d1d1"
     inkscape:zoom="11.6875"
     inkscape:cx="31.957219"
     inkscape:cy="32"
     inkscape:window-width="1920"
     inkscape:window-height="994"
     inkscape:window-x="0"
     inkscape:window-y="0"
     inkscape:window-maximized="1"
     inkscape:current-layer="svg6" />
  <g
     id="g6"
     transform="translate(-0.5,-1)">
    <ellipse
       style="opacity:0.2;stroke-width:0.982303"
       cx="31.5"
       cy="32.491234"
       id="circle1"
       rx="27.5"
       ry="27.508766" />
    <path
       style="fill:#109f5b;stroke-width:0.982303"
       d="m 8.6160717,16.28463 c -0.4733931,0.71916 -0.9104466,1.489402 -1.3543752,2.252769 a 27.5,27.508767 0 0 0 -3.2607148,12.971368 27.5,27.508767 0 0 0 27.5000003,27.508767 27.5,27.508767 0 0 0 0.422321,-0.01571 l 13.02125,-21.660211 c -1.043035,1.69965 -5.389017,3.87579 -7.243302,4.946668 -5.934108,3.426806 -13.470092,1.21235 -16.895805,-4.724632 L 8.6170535,16.283652 Z"
       id="path1" />
    <path
       style="fill:#dd4d3e;stroke-width:0.982303"
       d="M 18.874556,37.139223 7.6987501,17.774032 C 11.72357,10.80449 18.156606,6.6663855 24.145715,5.0021049 26.89375,4.243649 29.046607,4.057965 31.5,4 c 3.265625,0 14.604463,0.807579 22.282858,11.44463 0.53527,0.744699 1.033215,1.51593 1.491875,2.309754 H 31.5 c -2.621339,0.293756 -4.114196,1.67607 -4.967677,3.645895 l 9.334285,16.176136 -11.352589,4.854316"
       id="path2" />
    <path
       style="fill:#ffce41;stroke-width:0.982303"
       d="M 42.671876,39.644485 31.5,59.001814 c 0.07368,0.002 0.146339,0.008 0.219018,0.008 0.380089,-0.006 0.760178,-0.0206 1.139285,-0.0422 0.220002,-0.01002 0.440002,-0.0118 0.660002,-0.0265 0.86625,-0.0639 1.729552,-0.168984 2.585981,-0.315369 0.05598,-0.009 0.111964,-0.0206 0.168928,-0.0305 C 49.415268,56.278522 58.998038,44.85747 59,31.508842 58.987224,26.676142 57.702591,21.932844 55.274733,17.754456 H 31.531428 c -0.03047,0 4.364646,1.960984 6.218929,3.031859 4.737858,2.737125 5.232858,12.511579 5.243663,16.46793 l 0.794552,0.460771"
       id="path3" />
    <path
       style="opacity:0.2;fill:#ffffff;stroke-width:0.982303"
       d="M 31.5,4 A 27.5,27.508767 0 0 0 4,31.508767 27.5,27.508767 0 0 0 4.034571,31.999995 27.5,27.508767 0 0 1 31.5,4.982456 27.5,27.508767 0 0 1 58.982323,31.756347 27.5,27.508767 0 0 0 59,31.508767 27.5,27.508767 0 0 0 31.5,4 Z"
       id="path4" />
    <ellipse
       style="opacity:0.2;stroke-width:0.982303"
       cx="31.5"
       cy="32.491234"
       id="circle4"
       rx="13.75"
       ry="13.754383" />
    <ellipse
       style="fill:#ffffff;stroke-width:0.982303"
       cx="31.5"
       cy="31.508766"
       id="circle5"
       rx="13.75"
       ry="13.754383" />
    <ellipse
       style="fill:#4587f3;stroke-width:0.982303"
       cx="31.5"
       cy="31.508766"
       id="circle6"
       rx="10.803571"
       ry="10.807014" />
  </g>
</svg>
