<?xml version="1.0" encoding="UTF-8" standalone="no"?>
<svg
   clip-rule="evenodd"
   fill-rule="evenodd"
   stroke-linejoin="round"
   stroke-miterlimit="2"
   viewBox="0 0 62 62"
   version="1.1"
   id="svg2"
   sodipodi:docname="google-music.svg"
   width="62"
   height="62"
   inkscape:version="1.4 (unknown)"
   xmlns:inkscape="http://www.inkscape.org/namespaces/inkscape"
   xmlns:sodipodi="http://sodipodi.sourceforge.net/DTD/sodipodi-0.dtd"
   xmlns:xlink="http://www.w3.org/1999/xlink"
   xmlns="http://www.w3.org/2000/svg"
   xmlns:svg="http://www.w3.org/2000/svg">
  <defs
     id="defs2">
    <linearGradient
       id="linearGradient2"
       inkscape:collect="always">
      <stop
         style="stop-color:#0b5cd5;stop-opacity:1"
         offset="0"
         id="stop5" />
      <stop
         style="stop-color:#a8cbfe;stop-opacity:1"
         offset="1"
         id="stop6" />
    </linearGradient>
    <linearGradient
       id="paint161_linear_890_11"
       x1="663"
       y1="764.00098"
       x2="674.034"
       y2="791.586"
       gradientUnits="userSpaceOnUse">
      <stop
         stop-color="#EFF2F6"
         id="stop1064" />
      <stop
         offset="0.726295"
         stop-color="#B7C6CD"
         id="stop1065" />
    </linearGradient>
    <linearGradient
       id="paint162_linear_890_11"
       x1="670"
       y1="805"
       x2="665.008"
       y2="808.45599"
       gradientUnits="userSpaceOnUse">
      <stop
         stop-color="#EFF2F6"
         id="stop1066" />
      <stop
         offset="0.615963"
         stop-color="#B7C6CD"
         id="stop1067" />
    </linearGradient>
    <linearGradient
       id="paint163_linear_890_11"
       x1="667.992"
       y1="802.76001"
       x2="673.04303"
       y2="799.547"
       gradientUnits="userSpaceOnUse">
      <stop
         offset="0.297611"
         stop-color="#2E2E41"
         id="stop1068" />
      <stop
         offset="0.95404"
         stop-color="#566C80"
         id="stop1069" />
    </linearGradient>
    <linearGradient
       id="paint164_linear_890_11"
       x1="696.5"
       y1="803.5"
       x2="701.99103"
       y2="806.89801"
       gradientUnits="userSpaceOnUse">
      <stop
         stop-color="#EFF2F6"
         id="stop1070" />
      <stop
         offset="0.674161"
         stop-color="#B7C6CD"
         id="stop1071" />
    </linearGradient>
    <linearGradient
       id="paint165_linear_890_11"
       x1="697.90601"
       y1="802.76001"
       x2="692.85498"
       y2="799.547"
       gradientUnits="userSpaceOnUse">
      <stop
         offset="0.288758"
         stop-color="#2E2E41"
         id="stop1072" />
      <stop
         offset="0.753525"
         stop-color="#566C80"
         id="stop1073" />
    </linearGradient>
    <radialGradient
       id="paint166_radial_890_11"
       cx="0"
       cy="0"
       r="1"
       gradientUnits="userSpaceOnUse"
       gradientTransform="matrix(43.000016,21.500054,-14.388675,28.777288,683,775)">
      <stop
         offset="0.304344"
         stop-color="#B7C6CD"
         id="stop1074" />
      <stop
         offset="0.556956"
         stop-color="#EFF2F6"
         id="stop1075" />
    </radialGradient>
    <linearGradient
       id="paint167_linear_890_11"
       x1="660"
       y1="792"
       x2="662"
       y2="792.00098"
       gradientUnits="userSpaceOnUse">
      <stop
         stop-color="#EFF2F6"
         id="stop1076" />
      <stop
         offset="0.688449"
         stop-color="#B7C6CD"
         id="stop1077" />
    </linearGradient>
    <linearGradient
       id="paint168_linear_890_11"
       x1="704"
       y1="792"
       x2="706"
       y2="792.00098"
       gradientUnits="userSpaceOnUse">
      <stop
         stop-color="#EFF2F6"
         id="stop1078" />
      <stop
         offset="0.761422"
         stop-color="#B7C6CD"
         id="stop1079" />
    </linearGradient>
    <linearGradient
       id="paint169_linear_890_11"
       x1="703"
       y1="786"
       x2="707"
       y2="790"
       gradientUnits="userSpaceOnUse">
      <stop
         stop-color="#EFF2F6"
         id="stop1080" />
      <stop
         offset="0.585029"
         stop-color="#B7C6CD"
         id="stop1081" />
    </linearGradient>
    <linearGradient
       id="paint170_linear_890_11"
       x1="659"
       y1="786"
       x2="663"
       y2="790"
       gradientUnits="userSpaceOnUse">
      <stop
         stop-color="#EFF2F6"
         id="stop1082" />
      <stop
         offset="1"
         stop-color="#B7C6CD"
         id="stop1083" />
    </linearGradient>
    <clipPath
       id="a-3-3-1">
      <circle
         cx="8.467"
         cy="288.53"
         r="6.8790002"
         fill="#d86eb0"
         stroke-opacity="0.039"
         stroke-width="0.491"
         style="paint-order:stroke markers fill"
         id="circle2-6-6-2" />
    </clipPath>
    <linearGradient
       inkscape:collect="always"
       xlink:href="#linearGradient2"
       id="linearGradient6"
       x1="669.8548"
       y1="805.77783"
       x2="676.00006"
       y2="802.49335"
       gradientUnits="userSpaceOnUse" />
    <linearGradient
       inkscape:collect="always"
       xlink:href="#linearGradient2"
       id="linearGradient8"
       x1="697.59351"
       y1="803.41199"
       x2="692.40649"
       y2="800.58801"
       gradientUnits="userSpaceOnUse" />
  </defs>
  <sodipodi:namedview
     id="namedview2"
     pagecolor="#ffffff"
     bordercolor="#000000"
     borderopacity="0.25"
     inkscape:showpageshadow="2"
     inkscape:pageopacity="0.0"
     inkscape:pagecheckerboard="0"
     inkscape:deskcolor="#d1d1d1"
     inkscape:zoom="6.080645"
     inkscape:cx="35.358091"
     inkscape:cy="38.811672"
     inkscape:window-width="1920"
     inkscape:window-height="998"
     inkscape:window-x="0"
     inkscape:window-y="0"
     inkscape:window-maximized="1"
     inkscape:current-layer="svg2" />
  <linearGradient
     id="a"
     x2="1"
     gradientTransform="matrix(0,-45.5286,45.5286,0,210.895,46.7643)"
     gradientUnits="userSpaceOnUse">
    <stop
       stop-color="#8c0c0c"
       offset="0"
       id="stop1" />
    <stop
       stop-color="#f54f4f"
       offset="1"
       id="stop2" />
  </linearGradient>
  <g
     id="g2272"
     transform="translate(-652.00006,-757.99996)">
    <path
       d="m 703,780 c -1,-2 -8.021,-8.999 -20.178,-8.999 C 670.665,771.001 665,778 663,780 c 0.936,-8.703 9.434,-15.999 20,-15.999 10.566,0 19.064,7.296 20,15.999 z"
       id="path159"
       style="fill:url(#paint161_linear_890_11)" />
    <path
       d="m 658.491,798.108 c -1.011,-1.629 -0.411,-3.711 1.341,-4.651 1.751,-0.94 3.991,-0.383 5.002,1.246 l 10.675,17.189 c 1.011,1.629 0.411,3.711 -1.341,4.651 -1.751,0.94 -3.991,0.383 -5.002,-1.246 z"
       id="path160"
       style="fill:url(#paint162_linear_890_11)" />
    <path
       d="m 663.402,795.237 c -0.827,-1.351 -0.336,-3.078 1.096,-3.858 1.432,-0.78 3.264,-0.317 4.091,1.034 l 10.009,16.35 c 0.827,1.351 0.336,3.078 -1.096,3.858 -1.432,0.78 -3.264,0.317 -4.091,-1.034 z"
       id="path161"
       style="fill:url(#linearGradient6)" />
    <path
       d="m 707.518,797.997 c 0.993,-1.593 0.403,-3.63 -1.317,-4.55 -1.72,-0.92 -3.92,-0.374 -4.913,1.219 l -10.806,17.337 c -0.993,1.593 -0.403,3.63 1.317,4.55 1.72,0.92 3.92,0.374 4.913,-1.219 z"
       id="path162"
       style="fill:url(#paint164_linear_890_11)" />
    <path
       d="m 702.598,795.237 c 0.827,-1.351 0.336,-3.078 -1.096,-3.858 -1.432,-0.78 -3.264,-0.317 -4.091,1.034 l -10.009,16.35 c -0.827,1.351 -0.336,3.078 1.096,3.858 1.432,0.78 3.264,0.317 4.091,-1.034 z"
       id="path163"
       style="fill:url(#linearGradient8)" />
    <path
       d="m 703,789 v -3 c 0,-9 -4,-21 -20,-21 -16,0 -20,11 -20,21 v 3 h -4 v -3 c 0,-13.807 10.193,-25 24,-25 13.807,0 24,11.193 24,25 v 3 z"
       id="path164"
       style="fill:url(#paint166_radial_890_11)" />
    <path
       d="m 662,788 h -2 v 6 c 0,0.552 0.448,1 1,1 0.552,0 1,-0.448 1,-1 z"
       fill="url(#paint167_linear_890_11)"
       id="path165"
       style="fill:url(#paint167_linear_890_11)" />
    <path
       d="m 706,788 h -2 v 6 c 0,0.552 0.448,1 1,1 0.552,0 1,-0.448 1,-1 z"
       fill="url(#paint168_linear_890_11)"
       id="path166"
       style="fill:url(#paint168_linear_890_11)" />
    <path
       d="m 703,786 h 4 v 3 c 0,0.552 -0.448,1 -1,1 h -2 c -0.552,0 -1,-0.448 -1,-1 z"
       id="path167"
       style="fill:url(#paint169_linear_890_11)" />
    <path
       d="m 659,786 h 4 v 3 c 0,0.552 -0.448,1 -1,1 h -2 c -0.552,0 -1,-0.448 -1,-1 z"
       id="path168"
       style="fill:url(#paint170_linear_890_11)" />
  </g>
  <g
     id="g2"
     transform="matrix(1.0810782,0,0,1.0810782,-17.229006,-20.134493)">
    <path
       style="opacity:0.1;stroke-width:0.360975"
       d="m 44.764883,35.94708 c -2.830974,0 -5.35188,1.629628 -6.577938,4.001752 l 1.685732,1.140741 -1.690663,-1.140741 c -0.499897,0.969479 -0.789636,2.062639 -0.789636,3.217761 0,1.196377 0.305405,2.320718 0.836869,3.310823 l 2.376661,-1.672332 a 4.3317087,4.3317087 0 0 1 -0.325723,-1.638491 4.3317087,4.3317087 0 0 1 0.307391,-1.592664 4.3317087,4.3317087 0 0 1 4.024316,-2.739044 4.3317087,4.3317087 0 0 1 2.977337,1.192207 l 2.016403,-2.146113 C 48.353256,36.684605 46.659215,35.94708 44.764883,35.94708 Z m -0.15299,5.775609 v 2.887806 h 4.076492 a 4.3317087,4.3317087 0 0 1 -1.568708,2.081956 4.3317087,4.3317087 0 0 1 -0.0058,0.0036 4.3317087,4.3317087 0 0 1 -2.502044,0.802297 4.3317087,4.3317087 0 0 1 -4.004577,-2.690396 l -2.373119,1.669505 c 1.241889,2.320558 3.736605,3.908688 6.530746,3.908688 1.852236,0 3.50905,-0.696509 4.756141,-1.846475 1.425995,-1.320139 2.310385,-3.243281 2.310385,-5.373037 0,-0.346523 -0.03111,-0.682754 -0.07686,-1.014539 l 0.0064,-0.04089 -0.06696,-0.388473 h -1.378384 -1.625103 z"
       id="path2" />
    <path
       style="fill:#3779d7;stroke-width:0.360975"
       d="m 44.611893,41.361715 v 2.887805 h 4.076492 c -0.300372,0.848829 -0.857831,1.582955 -1.594792,2.100285 l 2.427431,1.828849 c 1.425995,-1.320138 2.310385,-3.243281 2.310385,-5.373037 0,-0.346523 -0.03111,-0.682752 -0.07686,-1.014538 l 0.0064,-0.04089 -0.06698,-0.388472 h -1.378346 -1.625098 z"
       id="path3" />
    <path
       style="fill:#e7453c;stroke-width:0.360975"
       d="m 44.764883,35.586105 c -2.830974,0 -5.35188,1.629626 -6.577938,4.001752 l 2.400632,1.625097 a 4.3317087,4.3317087 0 0 1 4.024316,-2.739042 4.3317087,4.3317087 0 0 1 2.977337,1.192204 l 2.016403,-2.146112 c -1.252376,-1.196376 -2.946417,-1.933899 -4.84075,-1.933899 z"
       id="path4-3" />
    <path
       style="fill:#eead33;stroke-width:0.360975"
       d="m 38.182014,39.587857 c -0.499897,0.96948 -0.789636,2.062638 -0.789636,3.21776 0,1.196377 0.305405,2.320718 0.836869,3.310823 l 2.376661,-1.672332 a 4.3317087,4.3317087 0 0 1 -0.325723,-1.638491 4.3317087,4.3317087 0 0 1 0.307391,-1.592663 l -0.678947,-0.45968 z"
       id="path5" />
    <path
       style="fill:#359950;stroke-width:0.360975"
       d="m 40.607316,44.446928 -2.37313,1.669512 c 1.241839,2.320559 3.736555,3.908689 6.530697,3.908689 1.852236,0 3.50905,-0.696509 4.756141,-1.846475 l -2.401347,-1.847179 a 4.3317087,4.3317087 0 0 1 -2.507784,0.805849 4.3317087,4.3317087 0 0 1 -4.004577,-2.690396 z"
       id="path6-5" />
  </g>
</svg>
