<?xml version="1.0" encoding="UTF-8" standalone="no"?>
<svg
   width="62"
   height="62"
   version="1"
   id="svg8"
   sodipodi:docname="google-chrome-beta.svg"
   inkscape:version="1.4 (e7c3feb100, 2024-10-09)"
   xmlns:inkscape="http://www.inkscape.org/namespaces/inkscape"
   xmlns:sodipodi="http://sodipodi.sourceforge.net/DTD/sodipodi-0.dtd"
   xmlns="http://www.w3.org/2000/svg"
   xmlns:svg="http://www.w3.org/2000/svg">
  <defs
     id="defs8" />
  <sodipodi:namedview
     id="namedview8"
     pagecolor="#ffffff"
     bordercolor="#000000"
     borderopacity="0.25"
     inkscape:showpageshadow="2"
     inkscape:pageopacity="0.0"
     inkscape:pagecheckerboard="0"
     inkscape:deskcolor="#d1d1d1"
     inkscape:zoom="11.6875"
     inkscape:cx="31.957219"
     inkscape:cy="32"
     inkscape:window-width="1920"
     inkscape:window-height="994"
     inkscape:window-x="0"
     inkscape:window-y="0"
     inkscape:window-maximized="1"
     inkscape:current-layer="svg8" />
  <g
     id="g8"
     transform="translate(-0.5,-1)">
    <ellipse
       style="opacity:0.2;stroke-width:0.982303"
       cx="31.499998"
       cy="32.491234"
       id="circle1"
       rx="27.499998"
       ry="27.508766" />
    <path
       style="fill:#109f5b;stroke-width:0.982303"
       d="m 8.6160716,16.28463 c -0.473393,0.71916 -0.9104465,1.489402 -1.3543751,2.25277 -2.137143,3.989756 -3.2571789,8.445192 -3.2607148,12.971368 0,15.1927 12.3111623,25.543856 27.4990183,25.543856 L 44.944553,37.341609 c -1.043035,1.699649 -5.389017,3.875789 -7.243302,4.946667 -5.934108,3.426806 -13.470091,1.21235 -16.895805,-4.724632 L 8.6170535,16.28365 Z"
       id="path1" />
    <path
       style="fill:#dd4d3e;stroke-width:0.982303"
       d="M 18.874555,37.139224 7.6987501,17.774032 C 11.723569,10.80449 18.156606,6.6663856 24.145715,5.002105 26.893751,4.243649 29.046606,4.057965 31.5,4 c 3.265625,0 14.604464,0.807579 22.282857,11.44463 0.53527,0.7447 1.033215,1.51593 1.491875,2.309754 H 31.5 c -2.62134,0.293756 -4.114196,1.67607 -4.967678,3.645896 l 9.334286,16.176136 -11.352589,4.854316"
       id="path2" />
    <path
       style="fill:#ffce41;stroke-width:0.982303"
       d="M 42.671876,39.644486 31.5,57.052624 c 0.07368,0.002 0.146339,0.008 0.219018,0.008 C 45.653661,56.84447 58.998037,47.782295 59,31.508893 58.987214,26.676193 57.70259,21.932896 55.274732,17.754507 H 31.531428 c -0.03047,0 4.364644,1.960984 6.218929,3.03186 4.737858,2.737124 5.232858,12.511579 5.243662,16.467929 l 0.794553,0.460772"
       id="path3" />
    <path
       style="opacity:0.2;fill:#ffffff;stroke-width:0.982303"
       d="M 31.5,4 A 27.5,27.508768 0 0 0 4,31.508768 27.5,27.508768 0 0 0 4.034571,31.999996 27.5,27.508768 0 0 1 31.5,4.982456 27.5,27.508768 0 0 1 58.982322,31.756348 27.5,27.508768 0 0 0 59,31.508768 27.5,27.508768 0 0 0 31.5,4 Z"
       id="path4" />
    <ellipse
       style="opacity:0.2;stroke-width:0.982303"
       cx="31.499998"
       cy="32.491234"
       id="circle4"
       rx="13.749999"
       ry="13.754383" />
    <ellipse
       style="fill:#ffffff;stroke-width:0.982303"
       cx="31.499998"
       cy="31.508766"
       id="circle5"
       rx="13.749999"
       ry="13.754383" />
    <ellipse
       style="fill:#4587f3;stroke-width:0.982303"
       cx="31.499998"
       cy="31.508766"
       id="circle6"
       rx="10.80357"
       ry="10.807014" />
    <path
       style="fill:#424957;stroke-width:0.982303;fill-opacity:1"
       d="M 4.2839375,35.438592 A 27.5,27.508768 0 0 0 31.5,59.017536 27.5,27.508768 0 0 0 58.71616,35.438592 Z"
       id="path6" />
    <path
       style="opacity:0.2;stroke-width:0.982303"
       d="m 17.75,40.349888 v 1.017826 3.92786 1.013894 4.910316 0.91958 h 5.242678 c 1.451608,0 2.614465,-1.920704 2.614465,-3.37179 0,-0.905826 -0.455715,-2.158458 -1.151071,-2.81965 0.695356,-0.662176 1.151071,-1.713402 1.151071,-2.619228 0,-1.451088 -1.162857,-2.978808 -2.614465,-2.978808 h -3.934463 z m 1.308215,1.017826 h 3.934463 c 0.748394,0 1.30625,1.213332 1.30625,1.960982 0,0.748632 -0.55884,1.92856 -1.30625,1.966878 h -3.934463 z m 16.301606,0.947088 c 0,0.848842 0.0108,1.267368 0.0108,1.964912 h -1.31902 v 1.013894 h 1.326875 c 0.0147,2.269474 0.06388,4.276632 0.33393,5.222736 0.195448,0.68379 0.622677,1.217262 1.17366,1.43144 0.551965,0.214174 1.095091,0.19158 1.75018,0.19158 V 50.8268 c -0.655089,0 -1.093126,-0.0236 -1.277769,-0.0953 -0.185625,-0.0727 -0.251428,-0.113968 -0.384017,-0.57572 -0.181697,-0.638598 -0.242589,-2.602528 -0.272054,-4.862176 h 1.277769 V 44.27971 H 36.69062 c -0.004,-0.70049 -0.01869,-1.114106 -0.01869,-1.964912 z m -5.212232,1.964912 c -0.711071,0 -1.337679,0.155228 -1.877857,0.476492 -0.530357,0.32028 -0.944821,0.77614 -1.245357,1.369542 -0.289734,0.594386 -0.435087,1.703578 -0.435087,2.532772 0,0.848844 0.159105,1.167156 0.479285,1.742876 0.33098,0.574738 0.785711,1.008984 1.366158,1.300774 0.580447,0.291788 1.257143,0.437194 2.027144,0.437194 0.550982,0 1.02732,-0.0413 1.427053,-0.126738 0.400714,-0.0747 0.806341,-0.198456 1.216876,-0.368422 v -0.991298 c -0.420358,0.169964 -0.832858,0.30456 -1.233571,0.398878 -0.390893,0.0855 -0.839732,0.126736 -1.350447,0.126736 -0.800447,0 -1.428037,-0.221054 -1.877857,-0.66414 -0.539196,-0.622876 -0.622678,-1.62007 -0.681609,-2.293054 h 5.501966 V 48.09066 c 0,-0.687718 -0.13259,-1.681964 -0.402678,-2.190876 -0.260269,-0.518738 -0.641339,-0.914668 -1.14125,-1.197614 -0.500894,-0.282946 -1.092144,-0.422456 -1.772769,-0.422456 z m 12.215893,0 c -0.550982,0 -1.031249,0.04222 -1.430981,0.126738 -0.400715,0.07563 -0.806341,0.195506 -1.216874,0.36449 v 1.090526 c 0.420356,-0.169964 0.832856,-0.305544 1.233569,-0.39986 0.390894,-0.0845 0.84366,-0.125754 1.354375,-0.125754 0.800447,0 1.424108,0.22007 1.873929,0.663158 0.210179,0.215158 0.370268,0.83607 0.483214,1.205474 l -0.859374,0.0265 c -1.509555,0.04222 -2.626251,0.293753 -3.353037,0.756491 -0.725803,0.45193 -1.09116,0.80365 -1.09116,1.64463 0,0.861614 0.280892,1.49923 0.834822,1.908912 0.552945,0.398878 1.249285,0.598318 2.090983,0.598318 0.771964,0 1.37991,-0.112984 1.829731,-0.334038 0.256338,-0.125752 0.503839,-0.30063 0.746428,-0.505962 v 0.141472 0.698528 h 1.373036 v -3.695018 c 0,-0.848842 -0.159107,-1.854878 -0.479285,-2.429614 C 45.421875,45.43997 44.967143,45.005724 44.386697,44.713935 43.80625,44.421163 43.133481,44.27969 42.363482,44.27969 Z m -12.231606,1.013894 c 0.670802,0 1.164821,0.200422 1.475178,0.606176 0.211161,0.26821 0.321161,1.006034 0.393838,1.387228 h -3.884373 c 0.109999,-0.403788 0.267143,-1.154386 0.515624,-1.414736 0.370267,-0.386106 0.869196,-0.578668 1.499733,-0.578668 z m -11.073661,1.01586 h 3.934463 c 0.748394,0 1.30625,1.710456 1.30625,2.458106 0,0.74863 -0.557856,2.45221 -1.30625,2.45221 h -3.934463 z m 25.779287,1.853896 c 0,0 -0.162055,2.286172 -0.274019,2.370666 -0.518573,0.389051 -1.164821,0.587506 -1.937768,0.587506 -0.495984,0 -0.906517,-0.113962 -1.229643,-0.334032 -0.31134,-0.221054 -0.463571,-0.66316 -0.463571,-1.136704 0,-0.53642 0.215089,-0.657264 0.654107,-0.952 0.448839,-0.293754 1.252233,-0.465684 2.405267,-0.507928 z"
       id="path7" />
    <path
       style="fill:#ffffff;stroke-width:0.982303"
       d="m 17.75,39.368416 v 11.789472 h 5.242678 c 1.451608,0 2.614465,-1.920702 2.614465,-3.371788 0,-0.905826 -0.455715,-2.158456 -1.151071,-2.820632 0.695356,-0.661192 1.151071,-1.712422 1.151071,-2.618244 0,-1.451088 -1.162857,-2.978808 -2.614465,-2.978808 z m 1.308215,1.017826 h 3.934463 c 0.748394,0 1.30625,1.21235 1.30625,1.960982 0,0.74863 -0.55884,1.92856 -1.30625,1.965892 h -3.934463 z m 16.301606,0.947086 c 0,0.848844 0.0108,1.267368 0.0108,1.964912 h -1.31902 v 1.013894 h 1.326875 c 0.0147,2.268492 0.06388,4.276632 0.33393,5.222736 0.195448,0.68379 0.622677,1.216282 1.17366,1.43144 0.551965,0.214174 1.095091,0.191578 1.75018,0.191578 v -1.312562 c -0.655089,0 -1.093126,-0.0236 -1.277769,-0.0963 -0.185625,-0.0717 -0.251428,-0.112982 -0.384017,-0.57572 -0.181697,-0.637612 -0.242589,-2.601542 -0.272054,-4.86119 h 1.277769 V 43.298223 H 36.69062 c -0.004,-0.701475 -0.01869,-1.114105 -0.01869,-1.964913 z m -5.212232,1.964912 c -0.711071,0 -1.337679,0.155228 -1.877857,0.475508 -0.530357,0.321264 -0.944821,0.77614 -1.245357,1.370528 -0.289734,0.593402 -0.435087,1.703578 -0.435087,2.53277 0,0.848842 0.159105,1.167158 0.479285,1.741896 0.33098,0.575718 0.785711,1.008982 1.366158,1.301754 0.580447,0.291788 1.257143,0.437192 2.027144,0.437192 0.550982,0 1.02732,-0.04223 1.427053,-0.126736 0.400714,-0.07564 0.806341,-0.198456 1.216876,-0.368422 v -0.991296 c -0.420358,0.16898 -0.832858,0.30456 -1.233571,0.398876 -0.390893,0.0845 -0.839732,0.126736 -1.350447,0.126736 -0.800447,0 -1.428037,-0.221052 -1.877857,-0.66414 -0.539196,-0.621894 -0.622678,-1.622034 -0.681609,-2.293052 h 5.501966 v -0.130668 c 0,-0.6887 -0.13259,-1.681962 -0.402678,-2.191858 -0.260269,-0.517754 -0.641339,-0.913684 -1.14125,-1.196632 -0.500894,-0.282948 -1.092144,-0.422456 -1.772769,-0.422456 z m 12.215893,0 c -0.550982,0 -1.031249,0.04221 -1.430981,0.126736 -0.400715,0.07567 -0.806341,0.194528 -1.216874,0.364492 v 1.089544 c 0.420356,-0.168982 0.832856,-0.30456 1.233569,-0.398878 0.390894,-0.0845 0.84366,-0.126736 1.354375,-0.126736 0.800447,0 1.424108,0.221054 1.873929,0.66414 0.210179,0.215158 0.370268,0.83607 0.483214,1.205474 l -0.859374,0.0265 c -1.509555,0.04224 -2.626251,0.293756 -3.353037,0.755508 -0.725803,0.45193 -1.09116,0.80365 -1.09116,1.644632 0,0.862596 0.280892,1.499228 0.834822,1.909896 0.552945,0.398876 1.249285,0.598315 2.090983,0.598315 0.771964,0 1.37991,-0.112983 1.829731,-0.334035 0.256338,-0.125754 0.503839,-0.30063 0.746428,-0.505965 v 0.141475 0.698525 h 1.373036 v -3.696 c 0,-0.847859 -0.159107,-1.853895 -0.479285,-2.428632 -0.330983,-0.575717 -0.785715,-1.008979 -1.366161,-1.301751 -0.580447,-0.29179 -1.253216,-0.433263 -2.023215,-0.433263 z m -12.231606,1.012914 c 0.670802,0 1.164821,0.201402 1.475178,0.606174 0.211161,0.269194 0.321161,1.007018 0.393838,1.38821 h -3.884373 c 0.109999,-0.40379 0.267143,-1.154384 0.515624,-1.414736 0.370267,-0.386106 0.869196,-0.579648 1.499733,-0.579648 z m -11.073661,1.01684 h 3.934463 c 0.748394,0 1.30625,1.709473 1.30625,2.458106 0,0.74863 -0.557856,2.45221 -1.30625,2.45221 h -3.934463 z m 25.779287,1.853894 0.02159,2.080842 c -0.08937,0.103158 -0.183661,0.204352 -0.295625,0.289826 -0.518573,0.38807 -1.164821,0.586526 -1.937768,0.586526 -0.495984,0 -0.906517,-0.112982 -1.229642,-0.334036 -0.311341,-0.22007 -0.463572,-0.663158 -0.463572,-1.13572 0,-0.53642 0.215089,-0.657262 0.654107,-0.952 0.448839,-0.294736 1.252233,-0.466666 2.405267,-0.50891 z"
       id="path8" />
  </g>
</svg>
