<?xml version="1.0" encoding="UTF-8" standalone="no"?>
<!-- Created with Inkscape (http://www.inkscape.org/) -->

<svg
   width="62"
   height="62"
   viewBox="0 0 62 62"
   version="1.1"
   id="svg1"
   inkscape:version="1.4 (unknown)"
   sodipodi:docname="google-inbox.svg"
   xmlns:inkscape="http://www.inkscape.org/namespaces/inkscape"
   xmlns:sodipodi="http://sodipodi.sourceforge.net/DTD/sodipodi-0.dtd"
   xmlns:xlink="http://www.w3.org/1999/xlink"
   xmlns="http://www.w3.org/2000/svg"
   xmlns:svg="http://www.w3.org/2000/svg">
  <sodipodi:namedview
     id="namedview1"
     pagecolor="#ffffff"
     bordercolor="#000000"
     borderopacity="0.25"
     inkscape:showpageshadow="2"
     inkscape:pageopacity="0.0"
     inkscape:pagecheckerboard="0"
     inkscape:deskcolor="#d1d1d1"
     inkscape:document-units="px"
     inkscape:zoom="7.5994534"
     inkscape:cx="35.792048"
     inkscape:cy="45.858561"
     inkscape:window-width="1920"
     inkscape:window-height="998"
     inkscape:window-x="0"
     inkscape:window-y="0"
     inkscape:window-maximized="1"
     inkscape:current-layer="layer1"
     showgrid="false">
    <inkscape:grid
       id="grid7"
       units="px"
       originx="0"
       originy="0"
       spacingx="1"
       spacingy="1"
       empcolor="#0099e5"
       empopacity="0.30196078"
       color="#0099e5"
       opacity="0.14901961"
       empspacing="5"
       enabled="true"
       visible="false" />
  </sodipodi:namedview>
  <defs
     id="defs1">
    <linearGradient
       id="linearGradient13"
       inkscape:collect="always">
      <stop
         style="stop-color:#f0f2f5;stop-opacity:1;"
         offset="0"
         id="stop13" />
      <stop
         style="stop-color:#b7c6cd;stop-opacity:1;"
         offset="1"
         id="stop14" />
    </linearGradient>
    <linearGradient
       id="linearGradient11"
       inkscape:collect="always">
      <stop
         style="stop-color:#c4dbff;stop-opacity:1;"
         offset="0"
         id="stop11" />
      <stop
         style="stop-color:#2a7fff;stop-opacity:1;"
         offset="1"
         id="stop12" />
    </linearGradient>
    <linearGradient
       id="linearGradient9"
       inkscape:collect="always">
      <stop
         style="stop-color:#0066ff;stop-opacity:1;"
         offset="0"
         id="stop9" />
      <stop
         style="stop-color:#9ac2ff;stop-opacity:1;"
         offset="1"
         id="stop10" />
    </linearGradient>
    <linearGradient
       id="linearGradient2"
       inkscape:collect="always">
      <stop
         style="stop-color:#9dc4ff;stop-opacity:1;"
         offset="0"
         id="stop7" />
      <stop
         style="stop-color:#0066ff;stop-opacity:1;"
         offset="1"
         id="stop8" />
    </linearGradient>
    <linearGradient
       id="linearGradient3"
       x1="205"
       y1="217"
       x2="173.5"
       y2="168"
       gradientUnits="userSpaceOnUse"
       gradientTransform="translate(-152,-158.00006)">
      <stop
         offset="0.444717"
         stop-color="#FF7E07"
         id="stop1"
         style="stop-color:#373e48;stop-opacity:1" />
      <stop
         offset="1"
         stop-color="#FFE607"
         id="stop2"
         style="stop-color:#6f7c91;stop-opacity:1" />
    </linearGradient>
    <radialGradient
       id="paint664_radial_890_11"
       cx="0"
       cy="0"
       r="1"
       gradientUnits="userSpaceOnUse"
       gradientTransform="matrix(-16.000099,-9.999913,9.999913,-16.000099,583,171)">
      <stop
         offset="0.42141"
         stop-color="#B7C6CD"
         id="stop2071" />
      <stop
         offset="1"
         stop-color="#EFF2F6"
         id="stop2072" />
    </radialGradient>
    <linearGradient
       id="paint665_linear_890_11"
       x1="605"
       y1="180"
       x2="601.466"
       y2="162.72301"
       gradientUnits="userSpaceOnUse">
      <stop
         stop-color="#5200FF"
         id="stop2073" />
      <stop
         offset="1"
         stop-color="#0085FF"
         id="stop2074" />
    </linearGradient>
    <linearGradient
       id="paint666_linear_890_11"
       x1="567"
       y1="181"
       x2="562.11798"
       y2="174.183"
       gradientUnits="userSpaceOnUse">
      <stop
         stop-color="#5200FF"
         id="stop2075" />
      <stop
         offset="0.670391"
         stop-color="#0085FF"
         id="stop2076" />
    </linearGradient>
    <linearGradient
       id="paint667_linear_890_11"
       x1="605"
       y1="180"
       x2="597.32001"
       y2="174.24001"
       gradientUnits="userSpaceOnUse">
      <stop
         stop-color="#5200FF"
         id="stop2077" />
      <stop
         offset="1"
         stop-color="#0085FF"
         id="stop2078" />
    </linearGradient>
    <linearGradient
       id="paint668_linear_890_11"
       x1="567"
       y1="180"
       x2="561.23999"
       y2="172.32001"
       gradientUnits="userSpaceOnUse">
      <stop
         stop-color="#5200FF"
         id="stop2079" />
      <stop
         offset="1"
         stop-color="#0085FF"
         id="stop2080" />
    </linearGradient>
    <linearGradient
       id="paint669_linear_890_11"
       x1="607"
       y1="179"
       x2="602.50598"
       y2="171.80901"
       gradientUnits="userSpaceOnUse">
      <stop
         stop-color="#5200FF"
         id="stop2081" />
      <stop
         offset="1"
         stop-color="#0085FF"
         id="stop2082" />
    </linearGradient>
    <linearGradient
       id="paint670_linear_890_11"
       x1="607"
       y1="217"
       x2="568.82599"
       y2="170.01601"
       gradientUnits="userSpaceOnUse">
      <stop
         stop-color="#5200FF"
         id="stop2083" />
      <stop
         offset="1"
         stop-color="#0085FF"
         id="stop2084" />
    </linearGradient>
    <radialGradient
       id="paint671_radial_890_11"
       cx="0"
       cy="0"
       r="1"
       gradientUnits="userSpaceOnUse"
       gradientTransform="matrix(0,20,-16,0,583,187)">
      <stop
         offset="0.869716"
         stop-color="#EFF2F6"
         id="stop2085" />
      <stop
         offset="1"
         stop-color="#B7C6CD"
         id="stop2086" />
    </radialGradient>
    <linearGradient
       id="paint65_linear_890_11"
       x1="83"
       y1="975"
       x2="83"
       y2="1017"
       gradientUnits="userSpaceOnUse"
       gradientTransform="matrix(1.3181819,0,0,1.3333333,-78.409088,-1297)">
      <stop
         stop-color="#EFF2F6"
         id="stop872"
         offset="0"
         style="stop-color:#dae2ec;stop-opacity:1;" />
      <stop
         offset="1"
         stop-color="#B7C6CD"
         id="stop873"
         style="stop-color:#92a8b3;stop-opacity:1;" />
    </linearGradient>
    <linearGradient
       id="paint553_linear_890_11"
       x1="759"
       y1="261"
       x2="795.98602"
       y2="307.71899"
       gradientUnits="userSpaceOnUse"
       gradientTransform="translate(-752,-258)">
      <stop
         stop-color="#EFF2F6"
         id="stop1849" />
      <stop
         offset="1"
         stop-color="#B7C6CD"
         id="stop1850" />
    </linearGradient>
    <linearGradient
       id="paint554_linear_890_11"
       x1="807"
       y1="317"
       x2="795.164"
       y2="285.43799"
       gradientUnits="userSpaceOnUse"
       gradientTransform="translate(-752,-258)">
      <stop
         stop-color="#FF7E07"
         id="stop1851" />
      <stop
         offset="1"
         stop-color="#FFE607"
         id="stop1852" />
    </linearGradient>
    <linearGradient
       id="paint555_linear_890_11"
       x1="792"
       y1="281"
       x2="792"
       y2="275"
       gradientUnits="userSpaceOnUse"
       gradientTransform="translate(-752,-258)">
      <stop
         offset="0.155999"
         stop-color="#71706E"
         id="stop1853" />
      <stop
         offset="0.796276"
         stop-color="#B9AA99"
         id="stop1854" />
    </linearGradient>
    <linearGradient
       id="paint556_linear_890_11"
       x1="791.5"
       y1="287"
       x2="791.5"
       y2="281"
       gradientUnits="userSpaceOnUse"
       gradientTransform="translate(-752,-258)">
      <stop
         offset="0.155999"
         stop-color="#71706E"
         id="stop1855" />
      <stop
         offset="0.796276"
         stop-color="#B9AA99"
         id="stop1856" />
    </linearGradient>
    <linearGradient
       id="paint557_linear_890_11"
       x1="765"
       y1="271"
       x2="786.90002"
       y2="290.91"
       gradientUnits="userSpaceOnUse"
       gradientTransform="translate(-752,-258)">
      <stop
         stop-color="white"
         id="stop1857" />
      <stop
         offset="0.705"
         stop-color="#EAEFEF"
         id="stop1858" />
    </linearGradient>
    <linearGradient
       id="paint558_linear_890_11"
       x1="781"
       y1="289"
       x2="778.59998"
       y2="281.79999"
       gradientUnits="userSpaceOnUse"
       gradientTransform="translate(-752,-258)">
      <stop
         stop-color="#2E2E41"
         id="stop1859" />
      <stop
         offset="1"
         stop-color="#566C80"
         id="stop1860" />
    </linearGradient>
    <linearGradient
       id="paint559_linear_890_11"
       x1="779"
       y1="283"
       x2="771"
       y2="275"
       gradientUnits="userSpaceOnUse"
       gradientTransform="translate(-752,-258)">
      <stop
         stop-color="#2E2E41"
         id="stop1861" />
      <stop
         offset="1"
         stop-color="#566C80"
         id="stop1862" />
    </linearGradient>
    <linearGradient
       id="paint560_linear_890_11"
       x1="801"
       y1="311"
       x2="797.612"
       y2="295.75299"
       gradientUnits="userSpaceOnUse">
      <stop
         stop-color="#2E2E41"
         id="stop1863" />
      <stop
         offset="1"
         stop-color="#566C80"
         id="stop1864" />
    </linearGradient>
    <linearGradient
       id="paint683_linear_890_11"
       x1="214"
       y1="175.47795"
       x2="199.468"
       y2="143.019"
       gradientUnits="userSpaceOnUse"
       gradientTransform="translate(-152,-158.00006)">
      <stop
         offset="0.222053"
         stop-color="#FF7E07"
         id="stop2109"
         style="stop-color:#0066ff;stop-opacity:1" />
      <stop
         offset="1"
         stop-color="#FFE607"
         id="stop2110"
         style="stop-color:#80b3ff;stop-opacity:1" />
    </linearGradient>
    <linearGradient
       id="paint684_linear_890_11"
       x1="159"
       y1="167"
       x2="195.98599"
       y2="213.71899"
       gradientUnits="userSpaceOnUse"
       gradientTransform="translate(-152,-158.00006)">
      <stop
         offset="0.448054"
         stop-color="#EFF2F6"
         id="stop2111" />
      <stop
         offset="1"
         stop-color="#B7C6CD"
         id="stop2112" />
    </linearGradient>
    <linearGradient
       id="paint685_linear_890_11"
       x1="167"
       y1="178"
       x2="167"
       y2="172"
       gradientUnits="userSpaceOnUse"
       gradientTransform="translate(-152,-158.00006)">
      <stop
         offset="0.155999"
         stop-color="#71706E"
         id="stop2113" />
      <stop
         offset="0.796276"
         stop-color="#B9AA99"
         id="stop2114" />
    </linearGradient>
    <linearGradient
       id="paint686_linear_890_11"
       x1="169"
       y1="194"
       x2="169"
       y2="188"
       gradientUnits="userSpaceOnUse"
       gradientTransform="translate(-152,-158.00006)">
      <stop
         offset="0.155999"
         stop-color="#71706E"
         id="stop2115" />
      <stop
         offset="0.796276"
         stop-color="#B9AA99"
         id="stop2116" />
    </linearGradient>
    <linearGradient
       id="paint687_linear_890_11"
       x1="170.5"
       y1="186"
       x2="170.5"
       y2="180"
       gradientUnits="userSpaceOnUse"
       gradientTransform="translate(-152,-158.00006)">
      <stop
         offset="0.155999"
         stop-color="#71706E"
         id="stop2117" />
      <stop
         offset="0.796276"
         stop-color="#B9AA99"
         id="stop2118" />
    </linearGradient>
    <linearGradient
       id="paint688_linear_890_11"
       x1="209.46899"
       y1="217"
       x2="150.498"
       y2="187.968"
       gradientUnits="userSpaceOnUse"
       gradientTransform="translate(-152,-158.00006)">
      <stop
         stop-color="#FF7E07"
         id="stop2119"
         style="stop-color:#2a7fff;stop-opacity:1" />
      <stop
         offset="1"
         stop-color="#FFE607"
         id="stop2120"
         style="stop-color:#aaccff;stop-opacity:1" />
    </linearGradient>
    <linearGradient
       id="paint689_linear_890_11"
       x1="205"
       y1="217"
       x2="173.5"
       y2="168"
       gradientUnits="userSpaceOnUse"
       gradientTransform="translate(-152,-158.00006)">
      <stop
         offset="0.444717"
         stop-color="#FF7E07"
         id="stop2121"
         style="stop-color:#0066ff;stop-opacity:1" />
      <stop
         offset="1"
         stop-color="#FFE607"
         id="stop2122"
         style="stop-color:#aaccff;stop-opacity:1" />
    </linearGradient>
    <linearGradient
       id="paint690_linear_890_11"
       x1="191"
       y1="173"
       x2="201"
       y2="183"
       gradientUnits="userSpaceOnUse"
       gradientTransform="translate(-152,-158.00006)">
      <stop
         stop-color="#F15700"
         id="stop2123" />
      <stop
         offset="1"
         stop-color="#FF0000"
         id="stop2124" />
    </linearGradient>
    <linearGradient
       id="paint1_linear_60_456"
       x1="63.921902"
       y1="90"
       x2="63.921902"
       y2="14"
       gradientUnits="userSpaceOnUse"
       gradientTransform="matrix(0.2938946,0,0,0.28947449,12.213699,9.4461003)">
      <stop
         stop-color="#FD3A84"
         id="stop4" />
      <stop
         offset="1"
         stop-color="#FFA68D"
         id="stop5" />
    </linearGradient>
    <linearGradient
       inkscape:collect="always"
       xlink:href="#linearGradient2"
       id="linearGradient8"
       x1="51.95089"
       y1="-12.818943"
       x2="65.44783"
       y2="19.814983"
       gradientUnits="userSpaceOnUse" />
    <linearGradient
       inkscape:collect="always"
       xlink:href="#linearGradient9"
       id="linearGradient10"
       x1="24.185734"
       y1="8.9999399"
       x2="59"
       y2="52.99794"
       gradientUnits="userSpaceOnUse" />
    <linearGradient
       inkscape:collect="always"
       xlink:href="#linearGradient11"
       id="linearGradient12"
       x1="-3.3693106"
       y1="30.946692"
       x2="59"
       y2="58.999939"
       gradientUnits="userSpaceOnUse" />
    <linearGradient
       inkscape:collect="always"
       xlink:href="#linearGradient13"
       id="linearGradient14"
       x1="17.000719"
       y1="3.0000589"
       x2="44.341339"
       y2="46.999939"
       gradientUnits="userSpaceOnUse" />
  </defs>
  <g
     inkscape:label="Layer 1"
     inkscape:groupmode="layer"
     id="layer1">
    <path
       d="m 3,20.08994 c 0,-0.688 0.353,-1.327 0.934,-1.693 l 22.98,-14.474 c 1.896,-1.194 4.299,-1.232 6.232,-0.099 l 24.866,14.582 c 0.612,0.359 0.988,1.016 0.988,1.725 v 32.867 c 0,3.315 -2.686,6.002 -6,6.002 H 9 c -3.314,0 -6,-2.687 -6,-6.002 z"
       id="path664"
       style="fill:url(#linearGradient8)" />
    <path
       d="m 7,12.99994 c 0,-2.209 1.791,-4 4,-4 h 40 c 2.209,0 4,1.791 4,4 v 30 c 0,2.209 -1.791,4 -4,4 H 11 c -2.209,0 -4,-1.791 -4,-4 z"
       id="path665"
       style="fill:url(#linearGradient14)" />
    <path
       d="m 59,52.99994 v -33 l -50,39 h 44 c 3.314,0 6,-2.686 6,-6 z"
       id="path669"
       style="fill:url(#linearGradient12)" />
    <path
       d="m 3,52.99994 v -33 l 50,39 H 9 c -3.314,0 -6,-2.686 -6,-6 z"
       id="path670"
       style="fill:url(#linearGradient10)" />
    <g
       id="svg8"
       transform="matrix(1.2492215,0,0,1.25,-24.48017,-28.431333)">
      <g
         id="g1"
         transform="matrix(1.0810782,0,0,1.0810782,-3.8170847,-3.8043623)">
        <path
           style="opacity:0.1;stroke-width:0.360975"
           d="m 44.764883,35.94708 c -2.830974,0 -5.35188,1.629628 -6.577938,4.001752 l 1.685732,1.140741 -1.690663,-1.140741 c -0.499897,0.969479 -0.789636,2.062639 -0.789636,3.217761 0,1.196377 0.305405,2.320718 0.836869,3.310823 l 2.376661,-1.672332 a 4.3317087,4.3317087 0 0 1 -0.325723,-1.638491 4.3317087,4.3317087 0 0 1 0.307391,-1.592664 4.3317087,4.3317087 0 0 1 4.024316,-2.739044 4.3317087,4.3317087 0 0 1 2.977337,1.192207 l 2.016403,-2.146113 C 48.353256,36.684605 46.659215,35.94708 44.764883,35.94708 Z m -0.15299,5.775609 v 2.887806 h 4.076492 a 4.3317087,4.3317087 0 0 1 -1.568708,2.081956 4.3317087,4.3317087 0 0 1 -0.0058,0.0036 4.3317087,4.3317087 0 0 1 -2.502044,0.802297 4.3317087,4.3317087 0 0 1 -4.004577,-2.690396 l -2.373119,1.669505 c 1.241889,2.320558 3.736605,3.908688 6.530746,3.908688 1.852236,0 3.50905,-0.696509 4.756141,-1.846475 1.425995,-1.320139 2.310385,-3.243281 2.310385,-5.373037 0,-0.346523 -0.03111,-0.682754 -0.07686,-1.014539 l 0.0064,-0.04089 -0.06696,-0.388473 h -1.378384 -1.625103 z"
           id="path2-5" />
        <path
           style="fill:#3779d7;stroke-width:0.360975"
           d="m 44.611893,41.361715 v 2.887805 h 4.076492 c -0.300372,0.848829 -0.857831,1.582955 -1.594792,2.100285 l 2.427431,1.828849 c 1.425995,-1.320138 2.310385,-3.243281 2.310385,-5.373037 0,-0.346523 -0.03111,-0.682752 -0.07686,-1.014538 l 0.0064,-0.04089 -0.06698,-0.388472 h -1.378346 -1.625098 z"
           id="path3-3" />
        <path
           style="fill:#e7453c;stroke-width:0.360975"
           d="m 44.764883,35.586105 c -2.830974,0 -5.35188,1.629626 -6.577938,4.001752 l 2.400632,1.625097 a 4.3317087,4.3317087 0 0 1 4.024316,-2.739042 4.3317087,4.3317087 0 0 1 2.977337,1.192204 l 2.016403,-2.146112 c -1.252376,-1.196376 -2.946417,-1.933899 -4.84075,-1.933899 z"
           id="path4-3" />
        <path
           style="fill:#eead33;stroke-width:0.360975"
           d="m 38.182014,39.587857 c -0.499897,0.96948 -0.789636,2.062638 -0.789636,3.21776 0,1.196377 0.305405,2.320718 0.836869,3.310823 l 2.376661,-1.672332 a 4.3317087,4.3317087 0 0 1 -0.325723,-1.638491 4.3317087,4.3317087 0 0 1 0.307391,-1.592663 l -0.678947,-0.45968 z"
           id="path5" />
        <path
           style="fill:#359950;stroke-width:0.360975"
           d="m 40.607316,44.446928 -2.37313,1.669512 c 1.241839,2.320559 3.736555,3.908689 6.530697,3.908689 1.852236,0 3.50905,-0.696509 4.756141,-1.846475 l -2.401347,-1.847179 a 4.3317087,4.3317087 0 0 1 -2.507784,0.805849 4.3317087,4.3317087 0 0 1 -4.004577,-2.690396 z"
           id="path6-5" />
      </g>
    </g>
  </g>
</svg>
