<?xml version="1.0" encoding="UTF-8" standalone="no"?>
<svg
   width="62"
   height="62"
   version="1.1"
   id="svg8"
   sodipodi:docname="google-chat.svg"
   inkscape:version="1.4 (e7c3feb100, 2024-10-09)"
   xmlns:inkscape="http://www.inkscape.org/namespaces/inkscape"
   xmlns:sodipodi="http://sodipodi.sourceforge.net/DTD/sodipodi-0.dtd"
   xmlns:xlink="http://www.w3.org/1999/xlink"
   xmlns="http://www.w3.org/2000/svg"
   xmlns:svg="http://www.w3.org/2000/svg">
  <defs
     id="defs8">
    <linearGradient
       id="linearGradient11"
       inkscape:collect="always">
      <stop
         style="stop-color:#ded5f1;stop-opacity:1;"
         offset="0"
         id="stop11" />
      <stop
         style="stop-color:#e2eeff;stop-opacity:1;"
         offset="1"
         id="stop12" />
    </linearGradient>
    <linearGradient
       id="linearGradient9"
       inkscape:collect="always">
      <stop
         style="stop-color:#0d6efd;stop-opacity:1"
         offset="0"
         id="stop9" />
      <stop
         style="stop-color:#f0a5ac;stop-opacity:1;"
         offset="1"
         id="stop10" />
    </linearGradient>
    <linearGradient
       inkscape:collect="always"
       xlink:href="#linearGradient9"
       id="linearGradient10"
       x1="340.46002"
       y1="547.13867"
       x2="370.04453"
       y2="509.11313"
       gradientUnits="userSpaceOnUse"
       gradientTransform="matrix(1.1370288,0,0,1.168798,-373.05675,-585.41227)" />
    <linearGradient
       inkscape:collect="always"
       xlink:href="#linearGradient11"
       id="linearGradient12"
       x1="369.58221"
       y1="547.73987"
       x2="364.89789"
       y2="525.96381"
       gradientUnits="userSpaceOnUse"
       gradientTransform="matrix(1.1370288,0,0,1.168798,-373.05675,-585.41227)" />
  </defs>
  <sodipodi:namedview
     id="namedview8"
     pagecolor="#ffffff"
     bordercolor="#000000"
     borderopacity="0.25"
     inkscape:showpageshadow="2"
     inkscape:pageopacity="0.0"
     inkscape:pagecheckerboard="0"
     inkscape:deskcolor="#d1d1d1"
     inkscape:zoom="5.5095403"
     inkscape:cx="37.571193"
     inkscape:cy="19.420858"
     inkscape:window-width="1920"
     inkscape:window-height="998"
     inkscape:window-x="0"
     inkscape:window-y="0"
     inkscape:window-maximized="1"
     inkscape:current-layer="svg8" />
  <linearGradient
     id="a"
     x1="355.73465"
     x2="355.6907"
     y1="546.99841"
     y2="505.32748"
     gradientUnits="userSpaceOnUse">
    <stop
       stop-color="#1297ca"
       offset="0"
       id="stop1" />
    <stop
       stop-color="#70e2ec"
       offset="1"
       id="stop2" />
  </linearGradient>
  <linearGradient
     id="b"
     x1="374.54285"
     x2="374.54285"
     y1="507.15387"
     y2="548.64636"
     gradientTransform="matrix(-0.56777405,0,0,0.61822428,579.27321,212.13023)"
     gradientUnits="userSpaceOnUse">
    <stop
       stop-color="#fdcc59"
       offset="0"
       id="stop3" />
    <stop
       stop-color="#f5a844"
       offset="1"
       id="stop4" />
  </linearGradient>
  <path
     d="M 50.741127,11.849656 C 45.461038,7.4324994 38.450187,4.999997 31.000169,4.999997 c -7.450153,0 -14.461016,2.432666 -19.74098,6.849659 -5.3260134,4.455505 -8.2591838,10.393513 -8.2591838,16.72038 0,6.038595 2.6736777,11.721992 7.5477108,16.100964 -0.08789,0.203195 -0.157638,0.416968 -0.202164,0.641717 l -1.6015275,8.097818 c -0.1904296,0.962388 0.065493,1.536256 0.3134447,1.848407 0.2866905,0.360539 0.7116209,0.559223 1.1966318,0.559223 0.366203,0 0.759774,-0.111036 1.169878,-0.330197 l 9.315142,-4.974533 c 3.22508,1.067078 6.692222,1.626616 10.260855,1.626616 7.450188,0 14.460857,-2.432619 19.741003,-6.849623 5.325854,-4.455365 8.259025,-10.393385 8.259025,-16.72024 0,-6.327019 -2.933034,-12.265027 -8.258888,-16.720532 z"
     id="path4"
     style="fill:url(#linearGradient10);stroke-width:1.1528" />
  <path
     d="m 34.741381,33.062334 c 2.640056,-2.404825 6.145481,-3.729143 9.870467,-3.729143 3.725066,0 7.230503,1.3244 9.870479,3.729143 2.66299,2.425689 4.129586,5.658502 4.129586,9.103032 0,3.287583 -1.33685,6.381742 -3.773867,8.765798 0.04412,0.110685 0.07891,0.227015 0.101082,0.349365 l 0.800753,4.408671 c 0.09517,0.523961 -0.03263,0.836392 -0.156774,1.006335 -0.143425,0.196276 -0.355822,0.30446 -0.598316,0.30446 -0.183107,0 -0.379881,-0.06043 -0.584933,-0.179784 l -4.657577,-2.708245 c -1.612534,0.580939 -3.346094,0.885551 -5.130421,0.885551 -3.725066,0 -7.230423,-1.324377 -9.870468,-3.72912 -2.662921,-2.425618 -4.129518,-5.658443 -4.129518,-9.102949 0,-3.444612 1.466517,-6.677425 4.129439,-9.103114 z"
     id="path6"
     style="fill:url(#linearGradient12);stroke-width:1.1528" />
  <g
     id="g1"
     transform="matrix(1.0810782,0,0,1.0810782,-3.8170847,-3.8043623)">
    <path
       style="opacity:0.1;stroke-width:0.360975"
       d="m 44.764883,35.94708 c -2.830974,0 -5.35188,1.629628 -6.577938,4.001752 l 1.685732,1.140741 -1.690663,-1.140741 c -0.499897,0.969479 -0.789636,2.062639 -0.789636,3.217761 0,1.196377 0.305405,2.320718 0.836869,3.310823 l 2.376661,-1.672332 a 4.3317087,4.3317087 0 0 1 -0.325723,-1.638491 4.3317087,4.3317087 0 0 1 0.307391,-1.592664 4.3317087,4.3317087 0 0 1 4.024316,-2.739044 4.3317087,4.3317087 0 0 1 2.977337,1.192207 l 2.016403,-2.146113 C 48.353256,36.684605 46.659215,35.94708 44.764883,35.94708 Z m -0.15299,5.775609 v 2.887806 h 4.076492 a 4.3317087,4.3317087 0 0 1 -1.568708,2.081956 4.3317087,4.3317087 0 0 1 -0.0058,0.0036 4.3317087,4.3317087 0 0 1 -2.502044,0.802297 4.3317087,4.3317087 0 0 1 -4.004577,-2.690396 l -2.373119,1.669505 c 1.241889,2.320558 3.736605,3.908688 6.530746,3.908688 1.852236,0 3.50905,-0.696509 4.756141,-1.846475 1.425995,-1.320139 2.310385,-3.243281 2.310385,-5.373037 0,-0.346523 -0.03111,-0.682754 -0.07686,-1.014539 l 0.0064,-0.04089 -0.06696,-0.388473 h -1.378384 -1.625103 z"
       id="path2" />
    <path
       style="fill:#3779d7;stroke-width:0.360975"
       d="m 44.611893,41.361715 v 2.887805 h 4.076492 c -0.300372,0.848829 -0.857831,1.582955 -1.594792,2.100285 l 2.427431,1.828849 c 1.425995,-1.320138 2.310385,-3.243281 2.310385,-5.373037 0,-0.346523 -0.03111,-0.682752 -0.07686,-1.014538 l 0.0064,-0.04089 -0.06698,-0.388472 h -1.378346 -1.625098 z"
       id="path3" />
    <path
       style="fill:#e7453c;stroke-width:0.360975"
       d="m 44.764883,35.586105 c -2.830974,0 -5.35188,1.629626 -6.577938,4.001752 l 2.400632,1.625097 a 4.3317087,4.3317087 0 0 1 4.024316,-2.739042 4.3317087,4.3317087 0 0 1 2.977337,1.192204 l 2.016403,-2.146112 c -1.252376,-1.196376 -2.946417,-1.933899 -4.84075,-1.933899 z"
       id="path4-3" />
    <path
       style="fill:#eead33;stroke-width:0.360975"
       d="m 38.182014,39.587857 c -0.499897,0.96948 -0.789636,2.062638 -0.789636,3.21776 0,1.196377 0.305405,2.320718 0.836869,3.310823 l 2.376661,-1.672332 a 4.3317087,4.3317087 0 0 1 -0.325723,-1.638491 4.3317087,4.3317087 0 0 1 0.307391,-1.592663 l -0.678947,-0.45968 z"
       id="path5" />
    <path
       style="fill:#359950;stroke-width:0.360975"
       d="m 40.607316,44.446928 -2.37313,1.669512 c 1.241839,2.320559 3.736555,3.908689 6.530697,3.908689 1.852236,0 3.50905,-0.696509 4.756141,-1.846475 l -2.401347,-1.847179 a 4.3317087,4.3317087 0 0 1 -2.507784,0.805849 4.3317087,4.3317087 0 0 1 -4.004577,-2.690396 z"
       id="path6-5" />
  </g>
</svg>
