<?xml version="1.0" encoding="UTF-8" standalone="no"?>
<svg
   width="62"
   height="62"
   version="1.1"
   id="svg9"
   sodipodi:docname="google-play.svg"
   inkscape:version="1.4 (e7c3feb100, 2024-10-09)"
   xmlns:inkscape="http://www.inkscape.org/namespaces/inkscape"
   xmlns:sodipodi="http://sodipodi.sourceforge.net/DTD/sodipodi-0.dtd"
   xmlns="http://www.w3.org/2000/svg"
   xmlns:svg="http://www.w3.org/2000/svg">
  <defs
     id="defs9" />
  <sodipodi:namedview
     id="namedview9"
     pagecolor="#ffffff"
     bordercolor="#000000"
     borderopacity="0.25"
     inkscape:showpageshadow="2"
     inkscape:pageopacity="0.0"
     inkscape:pagecheckerboard="0"
     inkscape:deskcolor="#d1d1d1"
     inkscape:zoom="11.6875"
     inkscape:cx="31.957219"
     inkscape:cy="32"
     inkscape:window-width="1920"
     inkscape:window-height="994"
     inkscape:window-x="0"
     inkscape:window-y="0"
     inkscape:window-maximized="1"
     inkscape:current-layer="svg9" />
  <g
     id="g9"
     transform="matrix(0.99751537,0,0,1,-0.48260758,-0.99909249)">
    <path
       style="opacity:0.2;stroke-width:0.982442"
       d="M 11.021979,4.9832236 A 3.9294236,3.8949727 0 0 0 8.4506755,5.86592 l -0.0038,-0.0038 A 3.9294236,3.8949727 0 0 0 8.3585975,5.9427 3.9294236,3.8949727 0 0 0 8.3278975,5.965729 3.9294236,3.8949727 0 0 0 7.0000306,8.8786272 V 56.110538 a 3.9294236,3.8949727 0 0 0 1.4199733,2.981982 l -0.0038,0.004 a 3.9294236,3.8949727 0 0 0 0.042219,0.0307 3.9294236,3.8949727 0 0 0 0.2072394,0.161178 l 0.0038,-0.004 a 3.9294236,3.8949727 0 0 0 4.2215437,0.199568 L 33.52666,47.675019 44.360677,41.473116 54.158499,35.866077 a 3.9294236,3.8949727 0 0 0 1.170514,-1.024697 3.9294236,3.8949727 0 0 0 0.406802,-0.663938 3.9294236,3.8949727 0 0 0 0.26097,-2.659604 3.9294236,3.8949727 0 0 0 -0.118971,-0.372265 3.9294236,3.8949727 0 0 0 -0.564152,-1.01702 3.9294236,3.8949727 0 0 0 -0.004,-0.004 3.9294236,3.8949727 0 0 0 -0.253295,-0.295517 3.9294236,3.8949727 0 0 0 -0.587176,-0.510424 3.9294236,3.8949727 0 0 0 -0.004,0 3.9294236,3.8949727 0 0 0 -0.30702,-0.195724 L 44.329957,23.49682 33.52664,17.314106 12.890972,5.5051658 A 3.9294236,3.8949727 0 0 0 11.021979,4.9832236 Z"
       id="path1" />
    <path
       style="fill:#4ac0ed;stroke-width:0.982442"
       d="M 8.4470883,4.8769198 A 3.9293132,3.8948187 0 0 0 6.9999999,7.8939005 V 55.125653 a 3.9293132,3.8948187 0 0 0 1.6661108,3.176121 L 35.499056,31.704054 v -0.438345 z"
       id="path2" />
    <path
       style="fill:#ffd530;stroke-width:0.982442"
       d="m 44.188822,22.433045 -8.910886,8.832664 v 0.65759 l 8.802422,8.725105 10.076439,-5.766857 a 3.9293132,3.8948187 0 0 0 0,-6.743539 z"
       id="path3" />
    <path
       style="fill:#e54257;stroke-width:0.982442"
       d="M 35.277936,31.484953 8.4148998,58.112099 a 3.9293132,3.8948187 0 0 0 4.4777182,0.385396 L 33.524824,46.689522 44.360725,40.48803 Z"
       id="path4" />
    <path
       style="fill:#4c9946;stroke-width:0.982442"
       d="M 11.022179,4.0009146 A 3.9293132,3.8948187 0 0 0 8.3260317,4.9835148 L 35.277936,31.484953 44.329001,22.513364 33.524824,16.330037 12.892618,4.5220626 a 3.9293132,3.8948187 0 0 0 -1.870439,-0.521148 z"
       id="path5" />
    <path
       style="opacity:0.2;fill:#ffffff;stroke-width:0.982442"
       d="m 44.328908,22.512847 -9.049203,8.972449 0.495059,0.491221 8.554144,-8.481226 9.828243,5.626006 a 3.9293132,3.8948187 0 0 1 1.922666,2.872489 3.9293132,3.8948187 0 0 0 -1.922666,-3.854932 z"
       id="path6" />
    <path
       style="opacity:0.1;stroke-width:0.982442"
       d="M 35.279705,31.485296 8.4160961,58.11097 a 3.9293132,3.8948187 0 0 0 0.5890803,0.399119 l 26.2745286,-26.042351 8.452446,8.379525 0.627458,-0.358819 z"
       id="path7" />
    <path
       style="opacity:0.2;fill:#ffffff;stroke-width:0.982442"
       d="m 8.4467974,4.8788081 a 3.9293132,3.8948187 0 0 0 -0.088264,0.08059 3.9293132,3.8948187 0 0 1 0.092104,-0.076754 z M 8.3278301,4.9824246 A 3.9293132,3.8948187 0 0 0 7,7.8952077 V 8.8776482 A 3.9293132,3.8948187 0 0 1 8.3278301,5.9648654 L 34.782726,31.978432 35.279705,31.485296 Z M 35.279705,31.485296 35.49845,31.70404 V 31.266551 Z M 8.4467974,5.8612487 l 0.00381,0.00381 a 3.9293132,3.8948187 0 0 0 -0.092106,0.076754 3.9293132,3.8948187 0 0 1 0.088263,-0.08059 z"
       id="path8" />
    <path
       style="opacity:0.2;fill:#ffffff;stroke-width:0.982442"
       d="M 11.021865,3.999984 A 3.9293132,3.8948187 0 0 0 8.3278301,4.9824246 L 8.9034788,5.5484795 A 3.9293132,3.8948187 0 0 1 11.021865,4.9824246 3.9293132,3.8948187 0 0 1 12.890804,5.5043463 L 33.525898,17.312824 43.701447,23.13647 44.328908,22.512847 33.525898,16.330382 12.890804,4.521906 A 3.9293132,3.8948187 0 0 0 11.021865,3.999984 Z"
       id="path9" />
  </g>
</svg>
