<?xml version="1.0" encoding="UTF-8" standalone="no"?>
<svg
   width="64"
   height="64"
   version="1"
   id="svg12"
   sodipodi:docname="gpodder.svg"
   inkscape:version="1.4 (e7c3feb100, 2024-10-09)"
   xmlns:inkscape="http://www.inkscape.org/namespaces/inkscape"
   xmlns:sodipodi="http://sodipodi.sourceforge.net/DTD/sodipodi-0.dtd"
   xmlns="http://www.w3.org/2000/svg"
   xmlns:svg="http://www.w3.org/2000/svg">
  <defs
     id="defs12" />
  <sodipodi:namedview
     id="namedview12"
     pagecolor="#ffffff"
     bordercolor="#000000"
     borderopacity="0.25"
     inkscape:showpageshadow="2"
     inkscape:pageopacity="0.0"
     inkscape:pagecheckerboard="0"
     inkscape:deskcolor="#d1d1d1"
     inkscape:zoom="8.2643105"
     inkscape:cx="27.770012"
     inkscape:cy="26.741493"
     inkscape:window-width="1920"
     inkscape:window-height="994"
     inkscape:window-x="0"
     inkscape:window-y="0"
     inkscape:window-maximized="1"
     inkscape:current-layer="svg12" />
  <g
     id="g12"
     transform="translate(0.49999144,0.07297915)">
    <path
       style="opacity:0.2;stroke-width:0.98168"
       d="m 30.748936,4.9117303 c -0.569377,0.00916 -1.145697,0.046127 -1.724148,0.1100014 -9.06523,1.0012069 -15.669002,8.4723873 -15.046321,16.8134893 l -2.121637,0.237447 1.213933,10.969711 7.077364,-0.781027 -1.214914,-10.973636 -2.620967,0.290432 C 15.826478,14.430171 21.497602,8.0481162 29.272291,7.1895743 37.042272,6.3315225 44.003543,11.309205 45.100995,18.382801 l -2.306873,0.254876 1.213879,10.970498 6.832026,-0.753908 -1.21388,-10.9705 -2.19412,0.241473 C 46.275056,10.394437 39.091623,4.7761391 30.749247,4.9105627 Z"
       id="path1" />
    <path
       style="opacity:0.2;stroke-width:0.98168"
       d="m 29.705888,10.869384 c -0.961897,0.03697 -1.807074,0.547602 -2.470691,1.304099 -0.663539,0.756497 -1.187693,1.764024 -1.62917,2.94652 -0.882948,2.365058 -1.425764,7.411947 -1.726362,10.602191 -0.300597,3.190243 -0.352002,4.517642 -0.214836,7.267922 0.137169,2.750272 0.40508,4.890644 0.971879,6.085734 0.495744,1.045206 1.0717,2.239862 1.319709,3.318782 0.248014,1.078914 0.196135,1.938754 -0.439903,2.634302 -0.636037,0.695446 -2.039136,1.320956 -4.736709,1.465466 -2.697374,0.14453 -6.639129,-0.966182 -12.2277509,-2.005238 -0.9001594,-0.167357 -1.6511104,-0.18231 -2.3043179,0.03384 -0.6532666,0.216156 -1.1646712,0.696924 -1.4757177,1.3041 -0.6221129,1.214343 -0.6780369,5.631481 -0.7698282,7.939639 -0.02968,0.746352 0.2446728,1.457849 0.726358,2.040675 0.4816853,0.582891 1.156107,1.060687 1.9923869,1.478499 1.6725013,0.835622 4.0146328,1.437993 6.9233658,1.866347 5.817267,0.856658 13.894064,0.991669 23.068712,0.460726 l 0.0078,-0.0026 h 0.0102 c 3.376826,-0.277814 8.718533,-0.472698 13.32501,-1.642476 2.303141,-0.584882 4.432828,-1.408831 6.058879,-2.668048 1.626006,-1.259226 2.739603,-3.007551 2.849213,-5.237206 0.101907,-2.073058 -0.0054,-5.228523 -0.42201,-6.226004 -0.416746,-0.997499 -1.309875,-1.529621 -2.227709,-1.548774 -1.835563,-0.03829 -3.998327,0.966042 -6.805703,1.624226 -3.221449,0.755279 -5.494337,1.414028 -7.041025,1.296872 -1.546747,-0.117163 -2.319875,-0.96888 -2.797986,-1.583193 -0.478109,-0.614325 -0.69292,-1.523082 -0.792846,-2.678455 -0.09991,-1.155391 -0.08826,-2.523427 -0.24041,-3.964398 -0.292693,-2.761074 -0.844659,-7.264784 -2.091989,-13.040073 -0.622682,-2.88705 -1.414295,-7.566585 -2.476979,-9.610011 -0.532329,-1.021619 -1.129472,-1.880745 -1.846439,-2.501447 -0.716969,-0.620506 -1.581262,-0.9965 -2.516267,-0.96039 z"
       id="path2" />
    <path
       style="fill:#3584e4;stroke-width:0.98168"
       d="M 30.748936,3.930548 C 30.179559,3.939718 29.603239,3.976674 29.024788,4.0405496 19.959558,5.0417564 13.355786,12.512935 13.978467,20.854037 l -2.121637,0.237449 1.213933,10.96971 7.077364,-0.781025 -1.214914,-10.973636 -2.620967,0.290429 C 15.826478,13.448988 21.497602,7.066934 29.272291,6.2083921 37.042272,5.3503407 44.003543,10.328023 45.100995,17.401617 l -2.306873,0.254876 1.213879,10.9705 6.832026,-0.753909 -1.21388,-10.9705 -2.19412,0.241472 C 46.275056,9.4132551 39.091623,3.7949568 30.749247,3.9293805 Z"
       id="path3" />
    <path
       style="fill:#974fa4;stroke-width:0.98168"
       d="m 29.705888,9.888201 c -0.961897,0.037012 -1.807074,0.547601 -2.470691,1.304099 -0.663539,0.756497 -1.187693,1.764024 -1.62917,2.94652 -0.882948,2.365059 -1.425764,7.411948 -1.726362,10.602191 -0.300597,3.190242 -0.352002,4.517641 -0.214836,7.267922 0.137169,2.750279 0.40508,4.890643 0.971879,6.085735 0.495744,1.045205 1.0717,3.220701 1.319709,4.299618 0.248014,1.078919 0.196135,1.938753 -0.439903,2.634301 -0.636037,0.695448 -2.039136,1.320959 -4.736709,1.465467 -2.697374,0.144529 -6.639129,-0.966175 -12.2277509,-2.00524 -0.9001594,-0.167351 -1.6511104,-0.182303 -2.3043179,0.03384 -0.6532666,0.216156 -1.1646712,0.696918 -1.4757177,1.304099 -0.6221129,1.214347 -0.6780369,4.650642 -0.7698282,6.9588 -0.02968,0.746351 0.2446728,1.457848 0.726358,2.040681 0.4816853,0.582886 1.156107,1.060683 1.9923869,1.478492 1.6725013,0.835623 4.0146328,1.437999 6.9233658,1.866348 5.817267,0.856656 13.894064,0.991668 23.068712,0.460725 l 0.0078,-0.0026 h 0.0102 c 3.376826,-0.27781 8.718533,-0.472694 13.32501,-1.642475 2.303141,-0.584885 4.432828,-1.408833 6.058879,-2.66805 1.626006,-1.259224 2.739603,-3.007548 2.849213,-5.237206 0.101907,-2.073058 -0.0054,-4.247688 -0.42201,-5.245167 -0.416746,-0.997494 -1.309875,-1.529614 -2.227709,-1.548769 -1.835563,-0.03829 -3.998327,0.966041 -6.805703,1.624226 -3.221449,0.75528 -5.494337,1.414369 -7.041025,1.297213 -1.546747,-0.117162 -2.319875,-0.969221 -2.797986,-1.583533 -0.478121,-0.614318 -0.692932,-1.523076 -0.792858,-2.678451 -0.09991,-1.155391 -0.08825,-3.504263 -0.24041,-4.94524 C 38.343685,33.24069 37.79172,28.736981 36.544389,22.961694 35.921707,20.074639 35.130094,15.395106 34.067411,13.351678 33.535081,12.330066 32.937939,11.470936 32.220971,10.850231 31.50399,10.229729 30.6397,9.8537381 29.704693,9.8898459 Z"
       id="path4" />
    <path
       style="opacity:0.2;fill:#ffffff;stroke-width:0.98168"
       d="m 29.706829,9.8877421 c -0.961896,0.037012 -1.80712,0.5485709 -2.470744,1.3050689 -0.663538,0.756497 -1.189054,1.763026 -1.630534,2.945521 -0.882953,2.365057 -1.425851,7.413228 -1.726449,10.603472 -0.231135,2.453088 -0.310287,3.815427 -0.274309,5.55949 0.0093,-1.329516 0.08783,-2.599476 0.274309,-4.578289 0.300598,-3.19025 0.843496,-8.238414 1.726449,-10.603479 0.44148,-1.182488 0.966996,-2.189017 1.630534,-2.945514 0.663624,-0.756497 1.508848,-1.268057 2.470744,-1.305068 l -0.0019,0.002 c 0.935005,-0.03609 1.79981,0.339618 2.516778,0.960122 0.716968,0.620697 1.31306,1.481209 1.845382,2.502821 1.062684,2.043429 1.853816,6.721805 2.476496,9.608862 1.24733,5.77529 1.800163,10.280065 2.092844,13.041139 0.152149,1.440978 0.139877,3.788935 0.239784,4.944328 0.09993,1.155373 0.316053,2.064813 0.794163,2.679136 0.47811,0.614314 1.250143,1.465772 2.796849,1.582948 1.546686,0.117156 3.820546,-0.542126 7.041997,-1.297405 2.807372,-0.658185 4.968568,-1.661501 6.804123,-1.623199 0.917841,0.01919 1.812293,0.550957 2.22904,1.548456 0.285671,0.683818 0.416021,1.933263 0.44312,3.311553 0.03007,-1.756397 -0.09027,-3.448092 -0.44312,-4.292754 -0.416747,-0.997492 -1.311199,-1.529301 -2.22904,-1.548455 -1.835555,-0.03829 -3.996751,0.965013 -6.804123,1.623198 -3.22145,0.75528 -5.495311,1.414561 -7.041997,1.297405 C 40.920529,45.09191 40.148496,44.24045 39.670386,43.626137 39.192227,43.011765 38.976099,42.102325 38.876174,40.94695 38.776267,39.791559 38.788558,37.443601 38.63639,36.002624 38.343718,33.241544 37.790885,28.736763 36.543556,22.961473 35.920875,20.074415 35.129743,15.396045 34.067059,13.352618 33.534737,12.331 32.938645,11.470494 32.221677,10.84979 31.504709,10.229285 30.639905,9.8535626 29.704899,9.8896701 Z M 26.046756,43.928853 c -0.07022,0.405804 -0.230122,0.772691 -0.529442,1.100019 -0.636044,0.695446 -2.040575,1.32154 -4.73815,1.46605 -2.697372,0.144531 -6.63847,-0.967418 -12.2270927,-2.006477 -0.9001593,-0.167351 -1.6506434,-0.181644 -2.303851,0.03451 -0.653266,0.216156 -1.1660263,0.695975 -1.4770729,1.303156 -0.6221131,1.214346 -0.6774376,4.652236 -0.7692289,6.960386 -0.00511,0.128736 0.010542,0.25327 0.023019,0.379447 0.082741,-2.270249 0.1735778,-5.240873 0.7462099,-6.358633 0.3110466,-0.607182 0.8238069,-1.087 1.4770729,-1.303156 0.6532075,-0.216137 1.4036917,-0.201843 2.3038506,-0.03451 5.5886221,1.039056 9.5297201,2.151006 12.2270921,2.006476 2.697574,-0.14451 4.102106,-0.770605 4.73815,-1.46605 0.52143,-0.57022 0.636598,-1.259976 0.529443,-2.081218 z"
       id="path5" />
    <path
       style="opacity:0.2;stroke-width:0.98168"
       d="M 27.545163,26.860663 A 5.8753996,11.775486 2.5256885 1 1 15.809862,26.269987 5.8753996,11.775486 2.5256885 1 1 27.545163,26.860663 Z"
       id="path6" />
    <path
       style="fill:#ffffff;stroke-width:0.98168"
       d="M 27.545163,25.879481 A 5.8753996,11.775486 2.5256885 1 1 15.809862,25.288806 5.8753996,11.775486 2.5256885 1 1 27.545163,25.879481 Z"
       id="path7" />
    <path
       style="fill:#373e48;stroke-width:0.98168;fill-opacity:1"
       d="m 25.592649,27.641697 a 2.9293676,3.9405871 6.9123137 0 1 -5.865981,-0.188403 2.9293676,3.9405871 6.9123137 1 1 5.865981,0.188403 z"
       id="path8" />
    <path
       style="opacity:0.2;stroke-width:0.98168"
       d="M 45.125627,25.944235 A 11.825635,6.7782033 83.199011 0 1 31.623044,27.187457 11.825635,6.7782033 83.199011 1 1 45.125627,25.944235 Z"
       id="path9" />
    <path
       style="fill:#ffffff;stroke-width:0.98168"
       d="M 45.125627,24.963052 A 11.825636,6.7782035 83.199011 0 1 31.623044,26.20628 11.825636,6.7782035 83.199011 1 1 45.125627,24.963052 Z"
       id="path10" />
    <path
       style="fill:#383f49;stroke-width:0.98168;fill-opacity:1"
       d="m 41.216674,27.816351 a 2.8259959,4.0124243 17.026374 0 1 -5.686444,-0.531745 2.8259959,4.0124243 17.026374 1 1 5.686444,0.531745 z"
       id="path11" />
    <path
       style="opacity:0.1;fill:#ffffff;stroke-width:0.98168"
       d="M 30.748456,3.9296371 C 30.17908,3.9388071 29.60237,3.9769131 29.023923,4.0407886 20.241278,5.0107855 13.790347,12.055917 13.961613,20.079189 14.312051,12.469526 20.600806,5.9522769 29.023923,5.0219886 29.60237,4.958111 30.17908,4.9200209 30.748456,4.9108369 39.090826,4.7764135 46.274734,10.393647 47.431707,18.124449 l 2.194507,-0.24146 1.106851,10.001714 0.107421,-0.0115 -1.214272,-10.971419 -2.194507,0.241467 C 46.274734,9.4124508 39.090826,3.795214 30.748456,3.9296371 Z m 14.151123,13.4953319 -2.106264,0.231879 0.10742,0.969705 L 45.101,18.383164 C 45.050487,18.057559 44.974458,17.74133 44.899579,17.424969 Z M 16.303826,20.11368 c -0.0237,0.483813 -0.02577,0.971485 0.0078,1.464137 l 2.622281,-0.291293 1.106848,10.005552 0.107421,-0.01151 -1.214269,-10.973334 -2.622281,0.289376 c -0.01103,-0.162222 -0.003,-0.321557 -0.0078,-0.482938 z m -2.346048,0.741653 -2.100514,0.235717 0.10742,0.969698 2.014193,-0.226135 c -0.02458,-0.328878 -0.01875,-0.653454 -0.02108,-0.97928 z"
       id="path12" />
  </g>
</svg>
