<?xml version="1.0" encoding="UTF-8" standalone="no"?>
<svg
   width="62"
   height="62"
   viewBox="0 0 62 62"
   fill="none"
   version="1.1"
   id="svg5"
   sodipodi:docname="grapejuice-roblox-studio.svg"
   inkscape:version="1.4 (unknown)"
   xmlns:inkscape="http://www.inkscape.org/namespaces/inkscape"
   xmlns:sodipodi="http://sodipodi.sourceforge.net/DTD/sodipodi-0.dtd"
   xmlns:xlink="http://www.w3.org/1999/xlink"
   xmlns="http://www.w3.org/2000/svg"
   xmlns:svg="http://www.w3.org/2000/svg">
  <sodipodi:namedview
     id="namedview5"
     pagecolor="#ffffff"
     bordercolor="#000000"
     borderopacity="0.25"
     inkscape:showpageshadow="2"
     inkscape:pageopacity="0.0"
     inkscape:pagecheckerboard="0"
     inkscape:deskcolor="#d1d1d1"
     inkscape:zoom="5.875"
     inkscape:cx="40"
     inkscape:cy="26.042553"
     inkscape:window-width="1920"
     inkscape:window-height="998"
     inkscape:window-x="0"
     inkscape:window-y="0"
     inkscape:window-maximized="1"
     inkscape:current-layer="svg5" />
  <g
     id="g5"
     transform="matrix(4.0005841,0,0,4.0000486,-1.0047348,-1.0000526)">
    <path
       d="M 4.11752,1.0003 C 4.00421,0.994716 3.8973,1.0678 3.86632,1.18144 L 2.34887,6.6822 C 2.31432,6.81371 2.3934,6.94838 2.52488,6.98295 L 6.88242,8.06123 C 6.95558,8.08098 7.02987,8.06412 7.08749,8.02364 L 7.38141,6.92827 9.07145,7.38111 v 0.00171 l 4.53865,1.15689 c 0.1316,0.03449 0.2664,-0.0445 0.3008,-0.17601 l 1.08,-4.19692 C 15.0254,4.03524 14.9464,3.9005 14.8149,3.86603 L 4.16537,1.00713 C 4.14906,1.00299 4.13371,1.0011 4.11752,1.0003 Z"
       id="path1"
       style="fill:url(#linearGradient7);fill-opacity:1" />
    <path
       opacity="0.4"
       d="M 2.34033,7.45104 C 2.22597,7.4448 2.11926,7.52052 2.08913,7.6356 l -1.07999,4.1969 c -0.034525,0.1316 0.04449,0.2663 0.17601,0.3008 l 10.64945,2.8589 c 0.1305,0.0331 0.2637,-0.0445 0.2991,-0.1743 L 13.6511,9.3171 C 13.6857,9.18558 13.6066,9.05092 13.4751,9.01634 L 9.11759,7.93806 C 9.04443,7.91831 8.97015,7.93517 8.91253,7.97566 L 8.61861,9.07102 6.92857,8.61818 V 8.61647 L 2.38988,7.45959 C 2.37344,7.45528 2.35667,7.45193 2.34033,7.45104 Z"
       id="path2"
       style="fill:url(#linearGradient9)" />
  </g>
  <defs
     id="defs5">
    <linearGradient
       id="linearGradient8"
       inkscape:collect="always">
      <stop
         style="stop-color:#1070fe;stop-opacity:1;"
         offset="0"
         id="stop8" />
      <stop
         style="stop-color:#b49ddf;stop-opacity:0.71"
         offset="1"
         id="stop9" />
    </linearGradient>
    <linearGradient
       id="linearGradient5"
       inkscape:collect="always">
      <stop
         style="stop-color:#3485fd;stop-opacity:1"
         offset="0"
         id="stop6" />
      <stop
         style="stop-color:#af83f8;stop-opacity:1"
         offset="1"
         id="stop7" />
    </linearGradient>
    <linearGradient
       id="paint0_linear_311_494"
       x1="8.6698704"
       y1="8.5478001"
       x2="8.6698704"
       y2="1"
       gradientUnits="userSpaceOnUse">
      <stop
         stop-color="#5570FF"
         id="stop2" />
      <stop
         offset="1"
         stop-color="#4DD3FF"
         id="stop3" />
    </linearGradient>
    <linearGradient
       id="paint1_linear_311_494"
       x1="7.3301501"
       y1="14.9998"
       x2="7.3301501"
       y2="7.4506798"
       gradientUnits="userSpaceOnUse">
      <stop
         stop-color="#5570FF"
         id="stop4" />
      <stop
         offset="1"
         stop-color="#4DD3FF"
         id="stop5" />
    </linearGradient>
    <linearGradient
       inkscape:collect="always"
       xlink:href="#linearGradient5"
       id="linearGradient7"
       x1="8.7655697"
       y1="8.5233402"
       x2="11.382501"
       y2="1.9787124"
       gradientUnits="userSpaceOnUse" />
    <linearGradient
       inkscape:collect="always"
       xlink:href="#linearGradient8"
       id="linearGradient9"
       x1="6.3619576"
       y1="14.999831"
       x2="8.2264299"
       y2="7.1546898"
       gradientUnits="userSpaceOnUse" />
  </defs>
</svg>
