<?xml version="1.0" encoding="UTF-8" standalone="no"?>
<svg
   clip-rule="evenodd"
   fill-rule="evenodd"
   stroke-linejoin="round"
   stroke-miterlimit="2"
   viewBox="0 0 62 62"
   version="1.1"
   id="svg3"
   sodipodi:docname="grc-gnupg.svg"
   width="62"
   height="62"
   inkscape:version="1.4 (e7c3feb100, 2024-10-09)"
   xmlns:inkscape="http://www.inkscape.org/namespaces/inkscape"
   xmlns:sodipodi="http://sodipodi.sourceforge.net/DTD/sodipodi-0.dtd"
   xmlns:xlink="http://www.w3.org/1999/xlink"
   xmlns="http://www.w3.org/2000/svg"
   xmlns:svg="http://www.w3.org/2000/svg">
  <defs
     id="defs3">
    <linearGradient
       id="linearGradient3"
       inkscape:collect="always">
      <stop
         style="stop-color:#2d3e55;stop-opacity:1;"
         offset="0"
         id="stop3" />
      <stop
         style="stop-color:#212e3f;stop-opacity:1;"
         offset="1"
         id="stop4" />
    </linearGradient>
    <filter
       id="b-3-36"
       width="1.2393739"
       height="1.1966286"
       x="-0.11968695"
       y="-0.098314282"
       color-interpolation-filters="sRGB">
      <feGaussianBlur
         stdDeviation="1.147"
         id="feGaussianBlur7-6" />
    </filter>
    <filter
       id="b-3-36-6"
       width="1.2393739"
       height="1.1966286"
       x="-0.11968695"
       y="-0.098314282"
       color-interpolation-filters="sRGB">
      <feGaussianBlur
         stdDeviation="1.147"
         id="feGaussianBlur7-6-7" />
    </filter>
    <linearGradient
       inkscape:collect="always"
       xlink:href="#linearGradient3"
       id="linearGradient4"
       x1="31.996025"
       y1="5.0983038"
       x2="32.182014"
       y2="58.017544"
       gradientUnits="userSpaceOnUse" />
  </defs>
  <sodipodi:namedview
     id="namedview3"
     pagecolor="#ffffff"
     bordercolor="#000000"
     borderopacity="0.25"
     inkscape:showpageshadow="2"
     inkscape:pageopacity="0.0"
     inkscape:pagecheckerboard="0"
     inkscape:deskcolor="#d1d1d1"
     inkscape:zoom="11.019081"
     inkscape:cx="23.913065"
     inkscape:cy="28.405273"
     inkscape:window-width="1920"
     inkscape:window-height="994"
     inkscape:window-x="0"
     inkscape:window-y="0"
     inkscape:window-maximized="1"
     inkscape:current-layer="svg3" />
  <linearGradient
     id="a"
     x2="1"
     gradientTransform="matrix(0,-43.53155,43.53155,0,1192.407,51.589413)"
     gradientUnits="userSpaceOnUse">
    <stop
       stop-color="#161616"
       offset="0"
       id="stop1" />
    <stop
       stop-color="#343434"
       offset="1"
       id="stop2" />
  </linearGradient>
  <g
     id="g3"
     transform="translate(3.487626,-1.843205)" />
  <rect
     style="opacity:0.2;stroke-width:0.9823"
     width="55"
     height="55.017544"
     x="3.5"
     y="3.9824562"
     rx="8.25"
     ry="8.2526312"
     id="rect1-3" />
  <rect
     style="fill:url(#linearGradient4);stroke-width:0.9823"
     width="55"
     height="55.017544"
     x="3.5"
     y="3"
     rx="8.25"
     ry="8.2526312"
     id="rect2-5" />
  <path
     style="opacity:0.1;fill:#ffffff;stroke-width:0.9823"
     d="M 11.748466,3 C 7.1779651,3 3.4999999,6.6791384 3.4999999,11.251097 v 0.982456 c 0,-4.5719585 3.6779652,-8.2510968 8.2484661,-8.2510968 h 38.503068 c 4.5705,0 8.248466,3.6791383 8.248466,8.2510968 V 11.251097 C 58.5,6.6791384 54.822034,3 50.251534,3 Z"
     id="path4-6" />
  <path
     d="m 21.333327,49.7593 c 0.221844,-0.126739 0.874393,-0.380216 1.450237,-0.565101 0.90271,-0.289524 1.634318,-0.353483 5.315957,-0.461614 3.83504,-0.112791 4.426227,-0.167437 5.80094,-0.532546 3.134113,-0.832544 5.174354,-1.896475 7.001013,-3.653406 0.71273,-0.686037 1.215413,-1.27788 1.118655,-1.315097 -0.09675,-0.03716 -1.039592,0.248835 -2.094525,0.636034 -1.054931,0.387208 -2.424925,0.78022 -3.045611,0.872082 -2.034342,0.30348 -5.230996,0.388359 -7.262976,0.19418 -3.033813,-0.289534 -3.206095,-0.419764 -0.711547,-0.538359 5.261675,-0.248835 9.497919,-1.479042 12.406649,-3.603413 1.266153,-0.925558 3.047971,-2.735984 3.720582,-3.781316 l 0.467283,-0.725565 V 50 L 33.214874,49.9955 C 22.414221,49.991 20.979326,49.96185 21.333327,49.759479 Z m -4.833329,-9.953266 v -9.490486 h 2.063843 l 0.06846,-4.16735 c 0.06254,-3.795266 0.101482,-4.266185 0.435422,-5.278954 1.155233,-3.501085 3.202553,-5.94638 6.315426,-7.541693 3.162434,-1.622057 7.143796,-1.767403 10.480872,-0.38255 3.721759,1.542989 6.457026,4.859195 7.285397,8.8312 0.189982,0.906957 0.256063,2.16158 0.256063,4.847568 v 3.624339 l -0.926311,0.525569 c -3.037352,1.723218 -7.464759,2.840635 -13.573682,3.424343 -3.121134,0.297663 -4.158364,0.46511 -5.613319,0.906954 -2.157063,0.655803 -3.879883,1.731359 -5.623943,3.510391 z M 37.739041,26.465632 c 0,0 -0.01533,-2.660406 -0.05308,-3.849914 -0.06019,-1.895307 -2.624348,-5.667317 -6.305985,-5.649876 -3.829141,0.01861 -7.082436,3.020864 -7.117835,6.184748 -0.0081,0.84533 -0.02833,2.153441 -0.02833,3.931308 v 3.23365 H 37.792142 Z M 21.31799,21.19947 c 1.670895,-3.399925 4.718868,-5.81615 8.424108,-6.677759 1.406575,-0.326737 4.266925,-0.297669 5.647539,0.05698 0.598266,0.154647 1.087973,0.253483 1.087973,0.220925 0,-0.204646 -2.291584,-1.05579 -3.337075,-1.239507 -1.640218,-0.288366 -2.529948,-0.284878 -4.040366,0.01512 -3.565995,0.708124 -6.897171,3.216208 -8.162146,6.525436 -0.358723,0.939515 -0.442501,2.435994 -0.322141,2.435994 0.02477,0 0.341022,-0.602313 0.702108,-1.337182 z m 10.56819,18.343783 c 0.177003,-0.07909 0.90153,-0.231396 1.610717,-0.337206 3.632079,-0.540689 7.57568,-2.483666 10.596513,-5.217324 0.687946,-0.623243 1.286212,-1.133697 1.328692,-1.133697 0.0425,0 0.0779,0.715101 0.0779,1.587175 0,1.406946 -0.03302,1.58834 -0.282021,1.58834 -0.155766,0 -1.151695,0.474409 -2.216066,1.053457 -2.260902,1.231378 -3.856279,1.841829 -5.73368,2.196464 -1.510414,0.284881 -5.908321,0.499991 -5.382037,0.262791 z"
     fill="#008ee0"
     fill-rule="nonzero"
     id="path3-3-2"
     style="stroke-width:1.17137" />
</svg>
