<?xml version="1.0" encoding="UTF-8" standalone="no"?>
<svg
   width="62"
   height="62"
   version="1.1"
   id="svg13"
   sodipodi:docname="guiscrcpy.svg"
   inkscape:version="1.4 (e7c3feb100, 2024-10-09)"
   xmlns:inkscape="http://www.inkscape.org/namespaces/inkscape"
   xmlns:sodipodi="http://sodipodi.sourceforge.net/DTD/sodipodi-0.dtd"
   xmlns="http://www.w3.org/2000/svg"
   xmlns:svg="http://www.w3.org/2000/svg">
  <defs
     id="defs13" />
  <sodipodi:namedview
     id="namedview13"
     pagecolor="#ffffff"
     bordercolor="#000000"
     borderopacity="0.25"
     inkscape:showpageshadow="2"
     inkscape:pageopacity="0.0"
     inkscape:pagecheckerboard="0"
     inkscape:deskcolor="#d1d1d1"
     inkscape:zoom="12.109375"
     inkscape:cx="32"
     inkscape:cy="32"
     inkscape:window-width="1920"
     inkscape:window-height="998"
     inkscape:window-x="0"
     inkscape:window-y="0"
     inkscape:window-maximized="1"
     inkscape:current-layer="svg13" />
  <g
     id="g13">
    <ellipse
       style="opacity:0.2;stroke-width:0.982302"
       cx="31.5"
       cy="32.49123"
       id="circle1"
       rx="27.5"
       ry="27.50877" />
    <ellipse
       style="fill:#473fd9;stroke-width:0.982302"
       cx="31.5"
       cy="31.50877"
       id="circle2"
       rx="27.5"
       ry="27.50877" />
    <ellipse
       style="opacity:0.2;stroke-width:0.982302"
       cx="31.5"
       cy="32.49123"
       id="circle3"
       rx="21.607136"
       ry="21.614027" />
    <ellipse
       style="fill:#61c0cf;stroke-width:0.982302"
       cx="31.5"
       cy="31.50877"
       id="circle4"
       rx="21.607136"
       ry="21.614027" />
    <path
       style="opacity:0.2;fill:#ffffff;stroke-width:0.982302"
       d="M 31.499995,9.8947357 A 21.607142,21.614033 0 0 0 9.8928564,31.508765 21.607142,21.614033 0 0 0 9.9101199,31.990399 21.607142,21.614033 0 0 1 31.499995,10.877189 21.607142,21.614033 0 0 1 53.082198,31.990399 21.607142,21.614033 0 0 0 53.10713,31.508765 21.607142,21.614033 0 0 0 31.499991,9.8947357 Z"
       id="path4" />
    <path
       style="fill:#5952d2;stroke-width:0.982302"
       d="m 21.255251,40.235057 -2.099596,0.819357 -1.739264,-1.42567 0.360332,-2.245029 2.099594,-0.819364 1.739268,1.425674 z"
       id="path5" />
    <path
       style="fill:#f99e00;stroke-width:0.982302"
       d="m 25.244456,25.489809 -0.729198,7.613524 -6.956007,3.175051 -6.226798,-4.438471 0.729205,-7.613523 6.956002,-3.17505 z"
       id="path6" />
    <path
       style="fill:#ea6f2a;stroke-width:0.982302"
       d="m 47.498899,37.551849 -4.081556,2.931256 -4.578507,-2.070231 -0.496955,-5.00148 4.081555,-2.931257 4.578504,2.070228 z"
       id="path7" />
    <path
       style="fill:#0478f5;stroke-width:0.982302"
       d="m 50.691574,29.013557 -3.587047,2.576112 -4.023788,-1.819405 -0.436745,-4.395517 3.587042,-2.576114 4.023793,1.819406 z"
       id="path8" />
    <path
       style="fill:#00c75f;stroke-width:0.982302"
       d="m 51.463737,34.10634 -1.6267,1.183775 -1.82476,-0.836054 -0.198066,-2.019829 1.626705,-1.183779 1.824762,0.836059 z"
       id="path9" />
    <path
       style="fill:#569100;stroke-width:0.982302"
       d="m 16.602199,40.051696 -2.603653,1.108554 -2.237217,-1.722689 0.366436,-2.831255 2.603652,-1.10855 2.237214,1.722692 z"
       id="path10" />
    <path
       style="fill:#3f3f3f;stroke-width:0.982302"
       d="m 22.969273,13.824559 c -0.714335,0 -1.290703,0.547729 -1.290703,1.226565 v 34.880202 c 0,0.678834 0.576368,1.226557 1.290703,1.226557 h 17.061444 c 0.714335,0 1.290705,-0.547723 1.290705,-1.226557 V 15.051124 c 0,-0.678836 -0.57637,-1.226565 -1.290705,-1.226565 z"
       id="path11" />
    <rect
       style="fill:#975cf6;stroke-width:0.982302"
       width="15.714281"
       height="29.47368"
       x="23.642859"
       y="18.736841"
       ry="0.96575421"
       id="rect11" />
    <path
       style="fill:#5be19b;stroke-width:0.982302"
       d="m 36.426055,38.519602 c -0.06532,0 -0.08855,0.008 -0.132984,0.04358 -0.0759,0.06084 -0.08471,0.06996 -0.235301,0.356447 -0.210352,0.400095 -0.27812,0.530676 -0.378536,0.718036 -0.05128,0.09564 -0.254403,0.479261 -0.450147,0.85139 -0.199058,0.378415 -0.362815,0.677005 -0.373417,0.677005 -0.01609,0 -0.07078,-0.02636 -0.260885,-0.123081 -0.07426,-0.03774 -0.50835,-0.205908 -0.662437,-0.256439 -0.227287,-0.07454 -0.334231,-0.106697 -0.511531,-0.151279 -0.106326,-0.0267 -0.234531,-0.05894 -0.2839,-0.0718 -0.04934,-0.013 -0.10379,-0.02578 -0.122784,-0.02822 -0.08615,-0.011 -0.346817,-0.05315 -0.409227,-0.06668 -0.06434,-0.01398 -0.221117,-0.03196 -0.503858,-0.05644 -0.153941,-0.0134 -1.048913,-0.0134 -1.199548,0 -0.06453,0.0056 -0.161681,0.0159 -0.214844,0.0205 -0.05321,0.0046 -0.142546,0.01376 -0.1995,0.0231 -0.05698,0.0094 -0.126892,0.0203 -0.153466,0.0231 -0.153316,0.0161 -0.560385,0.102099 -0.849146,0.179498 -0.27823,0.07464 -0.741382,0.238576 -0.966798,0.341066 -0.07594,0.03456 -0.160149,0.07128 -0.186702,0.08202 -0.02655,0.0106 -0.07288,0.03294 -0.104895,0.0513 -0.03195,0.0183 -0.06972,0.03352 -0.08179,0.03079 -0.0126,-0.003 -0.126519,-0.203312 -0.260883,-0.459031 -0.236949,-0.450955 -0.39513,-0.754735 -0.631738,-1.202707 -0.06808,-0.1289 -0.19658,-0.36966 -0.283902,-0.535966 -0.215864,-0.411146 -0.255676,-0.454411 -0.409227,-0.443642 -0.100456,0.007 -0.172504,0.05792 -0.214839,0.148746 -0.05736,0.123101 -0.05168,0.19942 0.03069,0.353889 0.05168,0.09692 0.20735,0.388532 0.736604,1.392475 0.03947,0.07488 0.128977,0.243918 0.1995,0.37697 0.336634,0.635189 0.332679,0.628274 0.317148,0.648795 -0.0084,0.0108 -0.09657,0.07394 -0.19694,0.138469 -0.189181,0.121649 -0.508034,0.349275 -0.652204,0.466726 -0.04559,0.03712 -0.114423,0.09418 -0.15347,0.125653 -0.338516,0.272243 -0.926651,0.890503 -1.214895,1.279641 -0.03033,0.04094 -0.08357,0.11483 -0.120213,0.16413 -0.171206,0.230398 -0.458315,0.684828 -0.562687,0.889848 -0.02331,0.04576 -0.06516,0.121921 -0.09208,0.171791 -0.228357,0.423979 -0.50745,1.1207 -0.639412,1.595066 -0.02433,0.08728 -0.04918,0.176722 -0.05626,0.19746 -0.03187,0.0941 -0.132589,0.542056 -0.179024,0.8001 -0.01749,0.0964 -0.02975,0.222022 -0.04607,0.34363 0.123419,0.309793 0.406086,0.522219 0.746835,0.569297 0.1157,0.01996 0.190459,0.0256 7.038691,0.0256 5.603322,0 6.649471,-0.0042 6.99265,-0.0153 0.365646,-0.03176 0.66847,-0.260677 0.795433,-0.58982 -0.0122,-0.09374 -0.02393,-0.2105 -0.03323,-0.25644 -0.0078,-0.03738 -0.03092,-0.163088 -0.05368,-0.27952 -0.20863,-1.06624 -0.632281,-2.137799 -1.191878,-3.010611 -0.175427,-0.273567 -0.222058,-0.339903 -0.322264,-0.474403 -0.04559,-0.06118 -0.0989,-0.134028 -0.120213,-0.16413 -0.178182,-0.252058 -0.669887,-0.781985 -0.99237,-1.06936 -0.198703,-0.177075 -0.226091,-0.200498 -0.411785,-0.351324 -0.121511,-0.0987 -0.4895,-0.35774 -0.644533,-0.453901 -0.06943,-0.04302 -0.134318,-0.08818 -0.143215,-0.100011 -0.0132,-0.0171 0.04435,-0.133598 0.291571,-0.600076 0.168889,-0.318654 0.320796,-0.607828 0.337613,-0.641103 0.01669,-0.03326 0.06416,-0.123452 0.10489,-0.200023 0.577158,-1.084681 0.582979,-1.096481 0.58315,-1.189887 1.84e-4,-0.16403 -0.11666,-0.294905 -0.266,-0.294905 z m -8.542599,5.813521 c 0.148248,0 0.245893,0.02896 0.360633,0.110271 0.123319,0.0874 0.208587,0.206216 0.263443,0.37184 0.03901,0.117793 0.03517,0.368094 -0.0078,0.476981 -0.08551,0.217399 -0.255398,0.388331 -0.432248,0.438514 v 0.0028 c -0.101748,0.02876 -0.284578,0.02708 -0.373418,-0.0028 -0.150677,-0.05028 -0.29909,-0.178041 -0.375973,-0.323114 -0.173155,-0.326706 -0.08475,-0.750584 0.202055,-0.961656 0.110591,-0.08141 0.213635,-0.112844 0.363184,-0.112844 z m 7.028465,0.02562 c 0.09473,-0.0371 0.318283,-0.03704 0.411782,0 0.104126,0.04132 0.176607,0.09186 0.260882,0.187196 0.198293,0.224479 0.24534,0.512471 0.130449,0.78471 -0.02757,0.06528 -0.07324,0.146621 -0.09975,0.182069 -0.06066,0.08111 -0.193718,0.180831 -0.286456,0.212844 -0.102889,0.03544 -0.302154,0.03766 -0.396439,0.0052 -0.296874,-0.10257 -0.486514,-0.40135 -0.465497,-0.733418 0.01909,-0.30267 0.18056,-0.534424 0.445037,-0.638541 z"
       id="path12" />
    <path
       style="opacity:0.1;fill:#ffffff;stroke-width:0.982302"
       d="M 31.499995,4 A 27.499995,27.508765 0 0 0 4,31.508765 27.499995,27.508765 0 0 0 4.0211007,32.084423 27.499995,27.508765 0 0 1 31.499995,4.9824559 27.499995,27.508765 0 0 1 58.978893,31.915565 27.499995,27.508765 0 0 0 58.999986,31.508765 27.499995,27.508765 0 0 0 31.499995,4 Z"
       id="path13" />
  </g>
</svg>
