<?xml version="1.0" encoding="UTF-8" standalone="no"?>
<svg
   clip-rule="evenodd"
   fill-rule="evenodd"
   stroke-linejoin="round"
   stroke-miterlimit="2"
   viewBox="0 0 62 62"
   version="1.1"
   id="svg6"
   sodipodi:docname="hb-icon.svg"
   width="62"
   height="62"
   inkscape:version="1.4 (unknown)"
   xmlns:inkscape="http://www.inkscape.org/namespaces/inkscape"
   xmlns:sodipodi="http://sodipodi.sourceforge.net/DTD/sodipodi-0.dtd"
   xmlns:xlink="http://www.w3.org/1999/xlink"
   xmlns="http://www.w3.org/2000/svg"
   xmlns:svg="http://www.w3.org/2000/svg">
  <defs
     id="defs6">
    <linearGradient
       id="linearGradient7"
       inkscape:collect="always">
      <stop
         style="stop-color:#8d5fd3;stop-opacity:1"
         offset="0"
         id="stop7" />
      <stop
         style="stop-color:#e3d7f4;stop-opacity:1"
         offset="1"
         id="stop8" />
    </linearGradient>
    <linearGradient
       inkscape:collect="always"
       xlink:href="#linearGradient7"
       id="linearGradient8"
       x1="24"
       y1="45.667999"
       x2="24"
       y2="11.812"
       gradientUnits="userSpaceOnUse" />
  </defs>
  <sodipodi:namedview
     id="namedview6"
     pagecolor="#ffffff"
     bordercolor="#000000"
     borderopacity="0.25"
     inkscape:showpageshadow="2"
     inkscape:pageopacity="0.0"
     inkscape:pagecheckerboard="0"
     inkscape:deskcolor="#d1d1d1"
     inkscape:zoom="8.0729167"
     inkscape:cx="20.624516"
     inkscape:cy="27.313548"
     inkscape:window-width="1920"
     inkscape:window-height="998"
     inkscape:window-x="0"
     inkscape:window-y="0"
     inkscape:window-maximized="1"
     inkscape:current-layer="svg6" />
  <linearGradient
     id="a"
     x2="1"
     gradientTransform="matrix(0,-43.3373,43.3373,0,302.963,45.6687)"
     gradientUnits="userSpaceOnUse">
    <stop
       stop-color="#fcae3f"
       offset="0"
       id="stop1" />
    <stop
       stop-color="#ff60ac"
       offset="1"
       id="stop2" />
  </linearGradient>
  <g
     id="g7"
     transform="matrix(1.2922282,0,0,1.2922282,-0.0134768,-0.0134768)">
    <path
       d="m 45.668,8.56 c 0,-3.438 -2.79,-6.228 -6.228,-6.228 H 8.56 c -3.438,0 -6.228,2.79 -6.228,6.228 v 30.88 c 0,3.438 2.79,6.228 6.228,6.228 h 30.88 c 3.438,0 6.228,-2.79 6.228,-6.228 z"
       id="path2"
       style="fill:url(#linearGradient8)" />
    <path
       d="M 2.332,11.812 H 45.668 V 8.56 c 0,-3.438 -2.79,-6.228 -6.228,-6.228 H 8.56 c -3.438,0 -6.228,2.79 -6.228,6.228 z"
       id="path3"
       style="fill:#2d3d53;fill-opacity:1" />
    <g
       fill="#ffffff"
       id="g6">
      <path
         d="m 24,33.345 1.72,3.028 c -0.021,0.154 -0.032,0.312 -0.032,0.473 0,1.898 1.51,3.423 3.382,3.423 1.871,0 3.381,-1.525 3.381,-3.423 0,-1.898 -1.51,-3.423 -3.381,-3.423 -0.634,0 -1.223,0.179 -1.728,0.486 0,0 -1.835,-3.192 -1.835,-3.192 0,0 3.829,-6.738 3.829,-6.738 0.341,-0.597 0.44,-0.968 0.423,-1.279 -0.013,-0.224 -0.08,-0.43 -0.208,-0.661 -0.123,-0.224 -1.043,-1.763 -1.043,-1.763 l -4.501,7.831 -4.502,-7.831 c 0,0 -0.92,1.539 -1.043,1.763 -0.128,0.231 -0.195,0.437 -0.208,0.661 -0.017,0.311 0.082,0.682 0.423,1.28 0,-0.001 3.829,6.737 3.829,6.737 0,0 -1.838,3.198 -1.838,3.198 -0.507,-0.312 -1.1,-0.492 -1.738,-0.492 -1.871,0 -3.381,1.525 -3.381,3.423 0,1.898 1.51,3.423 3.381,3.423 1.872,0 3.382,-1.525 3.382,-3.423 0,-0.153 -0.011,-0.304 -0.03,-0.452 0,0 1.665,-2.991 1.718,-3.049 z m -5.07,2.351 c 0.625,0 1.125,0.515 1.125,1.15 0,0.635 -0.5,1.149 -1.125,1.149 -0.625,0 -1.125,-0.514 -1.125,-1.149 0,-0.635 0.5,-1.15 1.125,-1.15 z m 10.14,0 c 0.625,0 1.125,0.515 1.125,1.15 0,0.635 -0.5,1.149 -1.125,1.149 -0.625,0 -1.125,-0.514 -1.125,-1.149 0,-0.635 0.5,-1.15 1.125,-1.15 z"
         id="path4" />
      <path
         d="m 26.759,11.743 h 6.866 L 38.992,7.351 33.625,2.493 h -6.866 l 4.865,4.858 z"
         fill-opacity="0.95"
         id="path5" />
      <path
         d="m 9.468,11.743 h 6.866 L 21.701,7.351 16.334,2.492 H 9.468 l 4.865,4.859 z"
         fill-opacity="0.95"
         id="path6" />
    </g>
  </g>
</svg>
