<?xml version="1.0" encoding="UTF-8" standalone="no"?>
<svg
   width="62"
   height="62"
   version="1.1"
   id="svg5"
   sodipodi:docname="helix.svg"
   inkscape:version="1.4 (unknown)"
   xmlns:inkscape="http://www.inkscape.org/namespaces/inkscape"
   xmlns:sodipodi="http://sodipodi.sourceforge.net/DTD/sodipodi-0.dtd"
   xmlns:xlink="http://www.w3.org/1999/xlink"
   xmlns="http://www.w3.org/2000/svg"
   xmlns:svg="http://www.w3.org/2000/svg">
  <defs
     id="defs5">
    <linearGradient
       id="linearGradient8"
       inkscape:collect="always">
      <stop
         style="stop-color:#2d3d53;stop-opacity:1;"
         offset="0"
         id="stop8" />
      <stop
         style="stop-color:#354864;stop-opacity:1;"
         offset="1"
         id="stop10" />
    </linearGradient>
    <linearGradient
       id="linearGradient4217">
      <stop
         style="stop-color:#000000;stop-opacity:1;"
         offset="0"
         id="stop2" />
      <stop
         style="stop-color:#000000;stop-opacity:0;"
         offset="1"
         id="stop4" />
    </linearGradient>
    <linearGradient
       id="linearGradient4161">
      <stop
         style="stop-color:#334545;stop-opacity:1;"
         offset="0"
         id="stop7" />
      <stop
         style="stop-color:#4d6868;stop-opacity:1"
         offset="1"
         id="stop9" />
    </linearGradient>
    <linearGradient
       id="a-1-2"
       y1="510.79999"
       y2="527.14001"
       gradientUnits="userSpaceOnUse"
       x2="0">
      <stop
         stop-color="#7cbaf8"
         id="stop2-2-7" />
      <stop
         offset="1"
         stop-color="#f4fcff"
         id="stop4-70-0" />
    </linearGradient>
    <linearGradient
       id="c"
       y1="503.79999"
       x1="400.57001"
       y2="519.79999"
       x2="416.57001"
       gradientUnits="userSpaceOnUse">
      <stop
         stop-color="#292c2f"
         id="stop12" />
      <stop
         offset="1"
         stop-opacity="0"
         id="stop14" />
    </linearGradient>
    <linearGradient
       id="b"
       y1="542.79999"
       x1="408.57001"
       y2="521.79999"
       x2="387.57001"
       gradientUnits="userSpaceOnUse"
       gradientTransform="translate(-384.57,-499.8)">
      <stop
         stop-color="#197cf1"
         id="stop7-8" />
      <stop
         offset="1"
         stop-color="#20bcfa"
         id="stop9-7" />
    </linearGradient>
    <linearGradient
       xlink:href="#linearGradient1389"
       id="linearGradient4503-5-6"
       y1="37"
       y2="4"
       x2="0"
       gradientUnits="userSpaceOnUse"
       gradientTransform="matrix(1.0218446,0,0,0.99999999,21.748946,8.2587777)" />
    <linearGradient
       id="linearGradient1389">
      <stop
         style="stop-color:#ffaaaa;stop-opacity:1"
         id="stop1385"
         offset="0" />
      <stop
         offset="1"
         style="stop-color:#ff5555;stop-opacity:1"
         id="stop1387" />
    </linearGradient>
    <linearGradient
       id="paint543_linear_890_11"
       x1="978.5"
       y1="298"
       x2="978.5"
       y2="304"
       gradientUnits="userSpaceOnUse"
       gradientTransform="matrix(0.75000004,0,0,0.75000004,-717.38333,-173.49123)">
      <stop
         offset="0.189495"
         stop-color="#EFF2F6"
         id="stop1829" />
      <stop
         offset="0.850463"
         stop-color="#B7C6CD"
         id="stop1830" />
    </linearGradient>
    <linearGradient
       inkscape:collect="always"
       xlink:href="#linearGradient8"
       id="linearGradient10"
       x1="31.5"
       y1="59.017544"
       x2="31.5"
       y2="4.9824562"
       gradientUnits="userSpaceOnUse"
       gradientTransform="translate(-0.5,-1)" />
    <linearGradient
       id="linearGradient4144">
      <stop
         style="stop-color:#c83771;stop-opacity:1"
         offset="0"
         id="stop1141" />
      <stop
         style="stop-color:#de87aa;stop-opacity:1"
         offset="1"
         id="stop1143" />
    </linearGradient>
    <linearGradient
       id="c-0"
       gradientUnits="userSpaceOnUse"
       x1="10"
       x2="24"
       y1="10"
       y2="24"
       gradientTransform="translate(59.728813,26.237288)">
      <stop
         offset="0"
         stop-color="#292c2f"
         id="stop12-2" />
      <stop
         offset="1"
         stop-opacity="0"
         id="stop14-3" />
    </linearGradient>
    <linearGradient
       id="d"
       gradientUnits="userSpaceOnUse"
       x1="24"
       x2="24"
       y1="25"
       y2="7"
       gradientTransform="translate(59.728813,26.237288)">
      <stop
         offset="0"
         stop-color="#bb9d71"
         id="stop2-7" />
      <stop
         offset="1"
         stop-color="#f9f2e7"
         id="stop4-5" />
    </linearGradient>
    <filter
       id="c-3"
       width="1.1245312"
       height="1.1156488"
       x="-0.062265594"
       y="-0.057824417"
       color-interpolation-filters="sRGB">
      <feGaussianBlur
         stdDeviation=".665"
         id="feGaussianBlur1" />
    </filter>
  </defs>
  <sodipodi:namedview
     id="namedview5"
     pagecolor="#ffffff"
     bordercolor="#000000"
     borderopacity="0.25"
     inkscape:showpageshadow="2"
     inkscape:pageopacity="0.0"
     inkscape:pagecheckerboard="0"
     inkscape:deskcolor="#d1d1d1"
     inkscape:zoom="8.2643105"
     inkscape:cx="26.378486"
     inkscape:cy="39.991237"
     inkscape:window-width="1920"
     inkscape:window-height="998"
     inkscape:window-x="0"
     inkscape:window-y="0"
     inkscape:window-maximized="1"
     inkscape:current-layer="svg5" />
  <rect
     style="opacity:0.2;stroke-width:0.9823"
     width="55"
     height="55.017544"
     x="3.5"
     y="3.9824562"
     rx="8.25"
     ry="8.2526312"
     id="rect1" />
  <rect
     style="fill:url(#linearGradient10);stroke-width:0.9823"
     width="55"
     height="55.017544"
     x="3.5"
     y="3"
     rx="8.25"
     ry="8.2526312"
     id="rect2" />
  <path
     style="opacity:0.1;fill:#ffffff;stroke-width:0.9823"
     d="M 11.748466,3 C 7.1779652,3 3.5,6.6791384 3.5,11.251097 v 0.982456 c 0,-4.5719585 3.6779652,-8.2510969 8.248466,-8.2510969 h 38.503068 c 4.5705,0 8.248466,3.6791384 8.248466,8.2510969 V 11.251097 C 58.5,6.6791384 54.822034,3 50.251534,3 Z"
     id="path4" />
  <g
     id="g2"
     transform="translate(0,-4.1737979)">
    <path
       d="m 14.999845,11.165211 v 7.396484 c 0,0.933916 0.501243,1.796715 1.314453,2.263672 5.867745,3.369962 28.885197,16.589272 29.763672,17.09375 0.57749,-0.495494 0.921875,-1.217679 0.921875,-1.992187 v -4.861328 c 0,-0.941662 -0.504335,-1.814325 -1.324219,-2.285157 z"
       style="font-variation-settings:normal;opacity:0.2;fill-rule:evenodd;stop-color:#000000"
       id="path3" />
    <path
       d="m 45.686072,51.504769 c 0.81321,0.466959 1.313819,1.329505 1.313819,2.263422 v 7.39665 L 16.325387,43.549318 c -0.820442,-0.471385 -1.3255,-1.341676 -1.3255,-2.28334 V 35.40465 c 0,-0.471385 0.126264,-0.924512 0.354875,-1.318439 0,0 24.35182,13.984419 30.33131,17.418558 z"
       style="font-variation-settings:normal;opacity:0.2;fill-rule:evenodd;stop-color:#000000"
       id="path4-6" />
    <path
       d="m 45.686072,50.505138 c 0.81321,0.466959 1.313819,1.329505 1.313819,2.263422 v 7.396651 L 16.325387,42.549687 c -0.820442,-0.471385 -1.3255,-1.341676 -1.3255,-2.28334 v -5.861328 c 0,-0.471385 0.126264,-0.924512 0.354875,-1.318439 0,0 24.35182,13.984419 30.33131,17.418558 z"
       style="fill:#55c5e4;fill-rule:evenodd"
       id="path5-7" />
    <path
       d="m 17.951363,55.128567 c -0.288851,0.165428 -0.538988,0.406099 -0.717427,0.713164 -0.536597,0.924512 -0.224496,2.11902 0.695011,2.66344 h -3.34e-4 l -1.603337,-0.92064 c -0.82022,-0.470836 -1.325445,-1.341681 -1.325445,-2.283344 v -5.861329 c 0,-0.942216 0.505225,-1.812508 1.325445,-2.283339 l 27.723528,-15.919201 0.01335,-0.0077 c 0.283122,-0.165428 0.52842,-0.403333 0.703633,-0.705971 0.536763,-0.924512 0.224717,-2.119019 -0.694734,-2.663436 h 5.57e-4 l 1.603059,0.921193 c 0.820442,0.470831 1.3255,1.341123 1.3255,2.283339 v 5.861329 c 0,0.941663 -0.505058,1.812508 -1.3255,2.28334 l -1.648114,0.946089 0.02225,-0.01383 z"
       style="font-variation-settings:normal;opacity:0.2;fill-rule:evenodd;stop-color:#000000"
       id="path6-5" />
    <path
       d="m 14.999887,10.165211 30.67506,17.616075 c 0.819885,0.470832 1.324944,1.341677 1.324944,2.28334 v 5.861329 c 0,0.470831 -0.126265,0.923958 -0.354876,1.318439 0,0 -24.35182,-13.98442 -30.331309,-17.418559 -0.813211,-0.466958 -1.313819,-1.330058 -1.313819,-2.263975 z"
       style="fill:#706bc8;fill-rule:evenodd"
       id="path7" />
    <path
       d="m 44.072111,13.825367 c 0.91838,0.544628 1.229852,1.740125 0.693359,2.664063 -0.175213,0.302637 -0.420003,0.540038 -0.703125,0.705078 l -0.01367,0.0078 -27.722656,15.917969 c -0.820221,0.470844 -1.326174,1.342953 -1.326174,2.285168 v 4.861328 c 0,0.941664 0.505732,1.811819 1.326172,2.283204 l 0.652344,0.375 c -0.02771,-0.378433 0.05216,-0.766437 0.255859,-1.117188 0.178439,-0.307618 0.427946,-0.549417 0.716797,-0.714844 l 26.076172,-14.972656 1.648437,-0.945312 c 0.820441,-0.470832 1.324219,-1.342942 1.324219,-2.285157 v -5.861328 c 0,-0.94205 -0.503778,-1.812206 -1.324219,-2.283203 z M 15.355314,42.585133 c 0.114659,0.197519 0.25482,0.378233 0.417969,0.541016 -0.162787,-0.162579 -0.303475,-0.343931 -0.417969,-0.541016 z"
       style="font-variation-settings:normal;opacity:0.2;fill-rule:evenodd;stop-color:#000000"
       id="path8" />
    <path
       d="m 17.951363,54.128834 c -0.288851,0.165428 -0.538988,0.406099 -0.717427,0.713164 -0.536597,0.924512 -0.224496,2.119019 0.695011,2.663433 h -3.34e-4 l -1.603337,-0.920637 c -0.82022,-0.470832 -1.325445,-1.341677 -1.325445,-2.28334 v -5.861329 c 0,-0.942216 0.505225,-1.812508 1.325445,-2.283339 l 27.723528,-15.919201 0.01335,-0.0077 c 0.283122,-0.165428 0.52842,-0.403333 0.703633,-0.705971 0.536763,-0.924512 0.224717,-2.119019 -0.694734,-2.663436 h 5.57e-4 l 1.603059,0.921193 c 0.820442,0.470831 1.3255,1.341123 1.3255,2.283339 v 5.861329 c 0,0.941663 -0.505058,1.812508 -1.3255,2.28334 l -1.648114,0.946089 0.02225,-0.01383 z"
       style="fill:#997bc8;fill-rule:evenodd"
       id="path9" />
    <path
       d="m 44.072111,26.860523 c 0.91838,0.544795 1.229852,1.740015 0.693359,2.664063 -0.175213,0.302638 -0.420003,0.53965 -0.703125,0.705078 l -0.01367,0.0078 -27.722656,15.919922 c -0.820221,0.470843 -1.326174,1.341001 -1.326174,2.283216 v 1 c 0,-0.942215 0.505953,-1.812373 1.326172,-2.283203 l 27.722656,-15.919922 0.01367,-0.0078 c 3.119204,-1.819187 1.079369,-3.772309 0.0098,-4.369141 z"
       style="font-variation-settings:normal;opacity:0.2;fill:#ffffff;fill-rule:evenodd;stop-color:#000000"
       id="path10" />
    <path
       d="m 17.951363,40.093514 c -0.288851,0.165427 -0.538988,0.406099 -0.717427,0.713717 -0.536597,0.923958 -0.224496,2.119019 0.695011,2.662882 h -3.34e-4 l -1.603337,-0.920639 c -0.82022,-0.470832 -1.325445,-1.341124 -1.325445,-2.28334 v -5.861329 c 0,-0.942216 0.505225,-1.812508 1.325445,-2.28334 l 27.723528,-15.9192 0.01335,-0.0077 c 0.283122,-0.16504 0.52842,-0.403111 0.703633,-0.705749 0.536763,-0.924402 0.224717,-2.11902 -0.694734,-2.66327 h 5.57e-4 l 1.603059,0.92075 c 0.820442,0.470997 1.3255,1.341455 1.3255,2.283506 v 5.861218 c 0,0.942216 -0.505058,1.812508 -1.3255,2.28334 l -1.648114,0.946642 0.02225,-0.01439 z"
       style="fill:#84ddea;fill-rule:evenodd"
       id="path11" />
    <path
       d="m 44.072111,12.823828 c 0.91838,0.544796 1.229852,1.740016 0.693359,2.664064 -0.175213,0.302638 -0.420003,0.53965 -0.703125,0.705078 l -0.01367,0.0078 -27.722656,15.919922 c -0.820221,0.470843 -1.326174,1.341001 -1.326174,2.283216 v 1 c 0,-0.942215 0.505953,-1.812373 1.326172,-2.283203 l 27.722656,-15.919922 0.01367,-0.0078 c 3.119204,-1.819187 1.079369,-3.772309 0.0098,-4.369142 z"
       style="font-variation-settings:normal;opacity:0.2;fill:#ffffff;fill-rule:evenodd;stop-color:#000000"
       id="path12" />
  </g>
</svg>
