<?xml version="1.0" encoding="UTF-8" standalone="no"?>
<svg
   width="62"
   height="62"
   version="1.1"
   id="svg10"
   sodipodi:docname="hexchat.svg"
   inkscape:version="1.4 (e7c3feb100, 2024-10-09)"
   xmlns:inkscape="http://www.inkscape.org/namespaces/inkscape"
   xmlns:sodipodi="http://sodipodi.sourceforge.net/DTD/sodipodi-0.dtd"
   xmlns:xlink="http://www.w3.org/1999/xlink"
   xmlns="http://www.w3.org/2000/svg"
   xmlns:svg="http://www.w3.org/2000/svg">
  <sodipodi:namedview
     id="namedview10"
     pagecolor="#ffffff"
     bordercolor="#000000"
     borderopacity="0.25"
     inkscape:showpageshadow="2"
     inkscape:pageopacity="0.0"
     inkscape:pagecheckerboard="0"
     inkscape:deskcolor="#d1d1d1"
     inkscape:zoom="5.84375"
     inkscape:cx="29.860963"
     inkscape:cy="40.55615"
     inkscape:window-width="1920"
     inkscape:window-height="994"
     inkscape:window-x="0"
     inkscape:window-y="0"
     inkscape:window-maximized="1"
     inkscape:current-layer="svg10" />
  <defs
     id="defs6">
    <linearGradient
       id="linearGradient12"
       inkscape:collect="always">
      <stop
         style="stop-color:#ff9955;stop-opacity:1"
         offset="0"
         id="stop12" />
      <stop
         style="stop-color:#ffcc00;stop-opacity:1"
         offset="1"
         id="stop13" />
    </linearGradient>
    <linearGradient
       id="linearGradient10"
       inkscape:collect="always">
      <stop
         style="stop-color:#4e5465;stop-opacity:1;"
         offset="0"
         id="stop10" />
      <stop
         style="stop-color:#383c48;stop-opacity:1;"
         offset="1"
         id="stop11" />
    </linearGradient>
    <filter
       id="a"
       width="1.072"
       height="1.072"
       x="-0.036000001"
       y="-0.036000001"
       color-interpolation-filters="sRGB">
      <feGaussianBlur
         stdDeviation=".6"
         id="feGaussianBlur1" />
    </filter>
    <filter
       id="d"
       width="1.1177137"
       height="1.1224116"
       x="-0.058856833"
       y="-0.061205776"
       color-interpolation-filters="sRGB">
      <feGaussianBlur
         stdDeviation=".901"
         id="feGaussianBlur2" />
    </filter>
    <filter
       id="c"
       width="1.1134954"
       height="1.1272"
       x="-0.056747711"
       y="-0.063599997"
       color-interpolation-filters="sRGB">
      <feGaussianBlur
         stdDeviation="1.06"
         id="feGaussianBlur3" />
    </filter>
    <linearGradient
       id="b"
       x2="0"
       y1="543.79999"
       y2="503.79999"
       gradientTransform="matrix(1.5,0,0,1.5,-644.87,-753.7)"
       gradientUnits="userSpaceOnUse">
      <stop
         offset="0"
         stop-color="#18222a"
         id="stop3" />
      <stop
         offset="1"
         stop-color="#566069"
         id="stop4" />
    </linearGradient>
    <linearGradient
       id="e"
       x1="30.242001"
       x2="31.073"
       y1="56.798"
       y2="10.968"
       gradientUnits="userSpaceOnUse">
      <stop
         offset="0"
         stop-color="#ff8a34"
         id="stop5" />
      <stop
         offset="1"
         stop-color="#ffdc34"
         id="stop6" />
    </linearGradient>
    <linearGradient
       inkscape:collect="always"
       xlink:href="#linearGradient10"
       id="linearGradient11"
       x1="-29.843876"
       y1="2"
       x2="-28.629816"
       y2="61.812824"
       gradientUnits="userSpaceOnUse"
       gradientTransform="matrix(0.96393024,0,0,0.96393024,0.0052319,-0.00577119)" />
    <linearGradient
       inkscape:collect="always"
       xlink:href="#linearGradient12"
       id="linearGradient13"
       x1="16.729904"
       y1="51.158092"
       x2="46.794449"
       y2="13.47261"
       gradientUnits="userSpaceOnUse"
       gradientTransform="matrix(0.96393024,0,0,0.96393024,-0.0052319,-0.00577119)" />
  </defs>
  <g
     id="g13"
     transform="matrix(0.96774193,0,0,0.96774193,1.1403088,1.1548333)">
    <rect
       width="40"
       height="40"
       x="-428.57001"
       y="503.79999"
       filter="url(#a)"
       opacity="0.25"
       rx="20"
       transform="matrix(-1.4458955,0,0,1.4458955,-559.89452,-726.52004)"
       id="rect6" />
    <rect
       width="57.835815"
       height="57.835815"
       x="-59.772907"
       y="1.9220885"
       rx="28.917908"
       transform="scale(-1,1)"
       id="rect7"
       style="fill:url(#linearGradient11);stroke-width:0.963924" />
    <path
       fill-opacity="0.099"
       d="m 54.144,31.729 c 0,1.569 -9.848,18.627 -11.207,19.412 -1.36,0.784 -21.057,0.784 -22.415,0 C 19.164,50.357 9.314,33.298 9.314,31.729 c 0,-1.569 9.85,-18.627 11.208,-19.412 1.359,-0.784 21.057,-0.784 22.415,0 1.358,0.784 11.207,17.843 11.207,19.412"
       color="#000000"
       display="block"
       filter="url(#c)"
       overflow="visible"
       style="isolation:auto;mix-blend-mode:normal;paint-order:fill markers stroke"
       transform="matrix(1.10852,0,0,1.10852,-4.3313512,-4.3318916)"
       id="path7" />
    <path
       fill="#ffffff"
       d="m 55.68777,30.839996 c 0,1.73893 -10.916514,20.648351 -12.423135,21.518783 -1.507588,0.869464 -23.342537,0.869464 -24.847231,0 C 16.912711,51.489311 5.9933061,32.579892 5.9933061,30.839996 c 0,-1.739895 10.9194049,-20.648345 12.4240979,-21.5187783 1.506621,-0.8694656 23.342536,-0.8694656 24.847231,0 C 44.769334,10.190677 55.68777,29.100101 55.68777,30.839996"
       display="block"
       opacity=".15"
       overflow="visible"
       style="opacity:0.2;isolation:auto;mix-blend-mode:normal;stroke-width:0.963924;paint-order:fill markers stroke"
       id="path8" />
    <path
       d="m 31.729,15.619 c -1.959,0 -3.914,0.034 -5.475,0.105 a 37,37 0 0 0 -2.018,0.14 c -0.279,0.03 -0.527,0.064 -0.772,0.11 -0.244,0.046 -0.428,0.034 -0.918,0.31 -0.49,0.274 -0.574,0.436 -0.738,0.619 a 9,9 0 0 0 -0.483,0.595 33,33 0 0 0 -1.133,1.625 117,117 0 0 0 -2.833,4.55 117,117 0 0 0 -2.64,4.657 33,33 0 0 0 -0.886,1.767 9,9 0 0 0 -0.289,0.703 c -0.081,0.229 -0.185,0.38 -0.185,0.929 0,0.549 0.104,0.7 0.185,0.929 0.08,0.229 0.176,0.453 0.289,0.703 0.227,0.5 0.527,1.093 0.885,1.767 0.716,1.348 1.662,3.01 2.641,4.656 a 134,134 0 0 0 1.847,3.008 l -2.552,8.156 6.402,-3.547 c 0.156,0.046 0.275,0.057 0.41,0.083 0.243,0.047 0.492,0.08 0.771,0.11 0.56,0.059 1.237,0.103 2.018,0.139 1.56,0.072 3.515,0.107 5.474,0.107 1.959,0 3.913,-0.035 5.473,-0.106 a 35,35 0 0 0 2.019,-0.14 10,10 0 0 0 0.772,-0.11 c 0.245,-0.046 0.43,-0.034 0.92,-0.31 0.49,-0.274 0.573,-0.436 0.737,-0.619 a 9,9 0 0 0 0.483,-0.595 c 0.332,-0.44 0.711,-0.987 1.133,-1.625 a 117,117 0 0 0 2.833,-4.55 117,117 0 0 0 2.64,-4.657 32,32 0 0 0 0.884,-1.767 9,9 0 0 0 0.291,-0.703 c 0.081,-0.229 0.185,-0.38 0.185,-0.929 0,-0.549 -0.104,-0.7 -0.185,-0.929 A 9,9 0 0 0 49.624,30.097 33,33 0 0 0 48.74,28.33 117,117 0 0 0 46.099,23.674 117,117 0 0 0 43.266,19.124 33,33 0 0 0 42.133,17.498 9,9 0 0 0 41.65,16.903 c -0.164,-0.183 -0.247,-0.345 -0.738,-0.62 -0.49,-0.275 -0.674,-0.263 -0.918,-0.31 a 9,9 0 0 0 -0.773,-0.108 35,35 0 0 0 -2.018,-0.14 c -1.56,-0.072 -3.515,-0.107 -5.474,-0.107 z m 0,3.664 c 1.912,0 3.828,0.036 5.295,0.103 0.212,0.01 0.326,0.026 0.517,0.037 l -5.845,8.701 -5.917,-8.693 c 0.235,-0.015 0.386,-0.032 0.655,-0.045 a 123,123 0 0 1 5.295,-0.102 z m 9.242,3.2 a 128,128 0 0 1 1.858,3.024 114,114 0 0 1 2.557,4.502 c 0.336,0.635 0.61,1.182 0.783,1.564 0.032,0.071 0.04,0.097 0.065,0.156 -0.024,0.059 -0.033,0.084 -0.065,0.156 -0.173,0.382 -0.447,0.93 -0.783,1.564 a 114,114 0 0 1 -2.557,4.502 123,123 0 0 1 -2.113,3.422 l -6.258,-9.195 z m -18.551,0.105 6.54,9.609 -6.191,9.217 a 123,123 0 0 1 -2.14,-3.463 114,114 0 0 1 -2.557,-4.502 30,30 0 0 1 -0.783,-1.564 c -0.032,-0.071 -0.04,-0.097 -0.065,-0.156 0.024,-0.059 0.033,-0.084 0.065,-0.156 0.173,-0.382 0.447,-0.93 0.783,-1.564 0.674,-1.267 1.6,-2.895 2.557,-4.502 a 129,129 0 0 1 1.791,-2.919 m 9.302,13.662 5.323,7.82 -0.02,0.002 c -1.468,0.067 -3.384,0.102 -5.296,0.102 -1.899,0 -3.799,-0.035 -5.263,-0.1 z"
       color="#000000"
       display="block"
       filter="url(#d)"
       font-weight="400"
       opacity="0.25"
       overflow="visible"
       style="font-variant-ligatures:normal;font-variant-position:normal;font-variant-caps:normal;font-variant-numeric:normal;font-variant-alternates:normal;font-feature-settings:normal;text-indent:0;text-decoration-line:none;text-decoration-style:solid;text-decoration-color:#000000;text-transform:none;text-orientation:mixed;white-space:normal;shape-padding:0;isolation:auto;mix-blend-mode:normal;paint-order:fill markers stroke"
       transform="matrix(1.10852,0,0,1.10852,-4.3313512,-4.3318916)"
       id="path9" />
    <path
       d="m 30.840536,12.982226 c -2.171734,0 -4.33865,0.0386 -6.068905,0.115668 a 40.485072,40.485072 0 0 0 -2.236316,0.156159 c -0.310386,0.03284 -0.585105,0.07045 -0.856934,0.12146 -0.269903,0.05114 -0.474254,0.03862 -1.016948,0.344118 -0.543653,0.303638 -0.636194,0.482936 -0.81934,0.686323 a 9.6393026,9.6393026 0 0 0 -0.534983,0.659324 36.629351,36.629351 0 0 0 -1.256002,1.801587 130.13058,130.13058 0 0 0 -3.140482,5.043283 129.16666,129.16666 0 0 0 -2.926492,5.162809 36.629351,36.629351 0 0 0 -0.981282,1.958707 c -0.12531,0.276647 -0.231339,0.525343 -0.320991,0.778855 -0.08972,0.254477 -0.205313,0.421237 -0.205313,1.030442 0,0.609205 0.115671,0.775965 0.205313,1.029478 0.08875,0.253512 0.195681,0.501249 0.320991,0.778856 a 36.629351,36.629351 0 0 0 0.980316,1.958713 c 0.794278,1.494084 1.843036,3.337119 2.928422,5.161839 a 148.44526,148.44526 0 0 0 2.047388,3.334236 l -2.829137,9.041667 7.096456,-3.932836 c 0.173506,0.05114 0.304601,0.06368 0.454973,0.09252 0.26894,0.05214 0.544624,0.08875 0.854045,0.121457 0.620768,0.06548 1.371673,0.114708 2.236316,0.154228 1.730255,0.07998 3.897171,0.118565 6.068905,0.118565 2.17174,0 4.337687,-0.03861 6.066978,-0.117602 a 38.557212,38.557212 0 0 0 2.238247,-0.154231 c 0.30846,-0.03381 0.585105,-0.07135 0.855971,-0.122418 0.270863,-0.05114 0.476179,-0.0386 1.019837,-0.344122 0.542693,-0.303639 0.635233,-0.482929 0.81645,-0.685356 a 10.603234,10.603234 0 0 0 0.535946,-0.660291 36.629351,36.629351 0 0 0 1.255999,-1.801587 130.13058,130.13058 0 0 0 3.140488,-5.043283 129.16666,129.16666 0 0 0 2.926489,-5.162803 35.665421,35.665421 0 0 0 0.979353,-1.958714 9.6393026,9.6393026 0 0 0 0.322917,-0.778855 c 0.08968,-0.253514 0.205318,-0.421238 0.205318,-1.029477 0,-0.60824 -0.115671,-0.775966 -0.205318,-1.030443 A 9.6393026,9.6393026 0 0 0 50.677258,29.031656 36.629351,36.629351 0 0 0 49.697908,27.07295 129.16666,129.16666 0 0 0 46.770452,21.911102 130.13058,130.13058 0 0 0 43.629964,16.867819 36.629351,36.629351 0 0 0 42.373965,15.06527 9.6393026,9.6393026 0 0 0 41.838019,14.405947 C 41.656802,14.203521 41.564262,14.023266 41.01964,13.718665 40.476949,13.4131 40.272595,13.426593 40.002697,13.374541 a 10.603234,10.603234 0 0 0 -0.857898,-0.119523 38.557212,38.557212 0 0 0 -2.23632,-0.155195 138.80598,138.80598 0 0 0 -6.067943,-0.118562 z m 0,4.062001 c 2.119688,0 4.243221,0.03961 5.870336,0.113744 0.234236,0.01154 0.360512,0.02884 0.572578,0.0414 l -6.479543,9.645089 -6.559544,-9.636413 c 0.260263,-0.0173 0.427986,-0.03561 0.726803,-0.05014 a 136.87813,136.87813 0 0 1 5.86937,-0.112776 z m 10.244652,3.547262 a 141.69775,141.69775 0 0 1 2.059918,3.351589 126.27487,126.27487 0 0 1 2.833956,4.990264 c 0.373041,0.703669 0.676682,1.310946 0.867541,1.735076 0.03661,0.07717 0.04536,0.106032 0.07222,0.171578 -0.02607,0.0655 -0.03561,0.09352 -0.07142,0.173509 -0.192783,0.424129 -0.495459,1.031412 -0.867536,1.733147 a 126.27487,126.27487 0 0 1 -2.834913,4.991232 136.87813,136.87813 0 0 1 -2.342351,3.793069 L 33.865277,31.338348 Z M 20.520699,20.707162 27.77042,31.3586 20.907235,41.576252 a 135.91417,135.91417 0 0 1 -2.371269,-3.838368 126.27487,126.27487 0 0 1 -2.83492,-4.99027 33.737561,33.737561 0 0 1 -0.867534,-1.734109 c -0.03561,-0.07898 -0.04537,-0.106996 -0.07222,-0.173509 0.02607,-0.06463 0.03661,-0.09252 0.07131,-0.172544 0.192787,-0.424128 0.495464,-1.031404 0.867539,-1.733143 0.748006,-1.40445 1.773632,-3.209892 2.834919,-4.991231 a 143.62562,143.62562 0 0 1 1.985697,-3.234955 z m 10.311162,15.145272 5.901184,8.668628 -0.02307,0.0027 c -1.627115,0.07422 -3.750653,0.11278 -5.870336,0.11278 -2.105223,0 -4.21141,-0.03863 -5.833704,-0.110853 z"
       display="block"
       font-weight="400"
       overflow="visible"
       style="font-variant-ligatures:normal;font-variant-position:normal;font-variant-caps:normal;font-variant-numeric:normal;font-variant-alternates:normal;font-feature-settings:normal;text-indent:0;text-decoration-line:none;text-decoration-style:solid;text-decoration-color:#000000;text-transform:none;text-orientation:mixed;white-space:normal;shape-padding:0;isolation:auto;mix-blend-mode:normal;fill:url(#linearGradient13);stroke-width:0.963924;paint-order:fill markers stroke"
       id="path10" />
  </g>
</svg>
