<?xml version="1.0" encoding="UTF-8" standalone="no"?>
<svg
   width="62"
   height="62"
   version="1"
   id="svg31"
   sodipodi:docname="hitori.svg"
   inkscape:version="1.4 (unknown)"
   xmlns:inkscape="http://www.inkscape.org/namespaces/inkscape"
   xmlns:sodipodi="http://sodipodi.sourceforge.net/DTD/sodipodi-0.dtd"
   xmlns="http://www.w3.org/2000/svg"
   xmlns:svg="http://www.w3.org/2000/svg">
  <defs
     id="defs31" />
  <sodipodi:namedview
     id="namedview31"
     pagecolor="#ffffff"
     bordercolor="#000000"
     borderopacity="0.25"
     inkscape:showpageshadow="2"
     inkscape:pageopacity="0.0"
     inkscape:pagecheckerboard="0"
     inkscape:deskcolor="#d1d1d1"
     inkscape:zoom="7.0710678"
     inkscape:cx="55.29575"
     inkscape:cy="41.648589"
     inkscape:window-width="1920"
     inkscape:window-height="998"
     inkscape:window-x="0"
     inkscape:window-y="0"
     inkscape:window-maximized="1"
     inkscape:current-layer="svg31" />
  <g
     id="g31"
     transform="translate(-1.4996143,-2)">
    <path
       style="opacity:0.2;stroke-width:1.01836"
       d="m 4.9996139,15.472371 v 2.036388 c 0,0.403616 0.2764284,0.72781 0.6206897,0.72781 H 16.601233 c 0.344267,0 0.62069,-0.324194 0.62069,-0.72781 v -2.036388 c 0,0.403605 -0.276423,0.7278 -0.62069,0.7278 H 5.6203036 c -0.3442613,0 -0.6206897,-0.324195 -0.6206897,-0.7278 z m 14.2593661,0 v 2.036388 c 0,0.403616 0.276424,0.72781 0.620691,0.72781 H 30.8606 c 0.344266,0 0.6213,-0.324194 0.6213,-0.72781 v -2.036388 c 0,0.403605 -0.277034,0.7278 -0.6213,0.7278 H 19.880281 c -0.344267,0 -0.62069,-0.324195 -0.62069,-0.7278 z m 14.259368,0 v 2.036388 c 0,0.403616 0.277033,0.72781 0.6213,0.72781 h 10.980929 c 0.342226,0 0.61927,-0.324194 0.61927,-0.72781 v -2.036388 c 0,0.403605 -0.277044,0.7278 -0.6213,0.7278 H 34.138828 c -0.344257,0 -0.621301,-0.324195 -0.621301,-0.7278 z m 14.259366,0 v 2.036388 c 0,0.403616 0.277034,0.72781 0.621301,0.72781 h 10.980929 c 0.342226,0 0.619269,-0.324194 0.619269,-0.72781 v -2.036388 c 0,0.403605 -0.277043,0.7278 -0.6213,0.7278 H 48.398194 c -0.344257,0 -0.621299,-0.324195 -0.621299,-0.7278 z M 4.9996139,29.727121 v 2.036388 c 0,0.403206 0.2764284,0.726991 0.6206897,0.726991 H 16.601233 c 0.344267,0 0.62069,-0.323785 0.62069,-0.726991 v -2.036388 c 0,0.403205 -0.276423,0.72699 -0.62069,0.72699 H 5.6203036 c -0.3442613,0 -0.6206897,-0.323785 -0.6206897,-0.72699 z m 14.2593661,0 v 2.036388 c 0,0.403206 0.276424,0.726991 0.620691,0.726991 H 30.8606 c 0.344266,0 0.6213,-0.323785 0.6213,-0.726991 v -2.036388 c 0,0.403205 -0.277034,0.72699 -0.6213,0.72699 H 19.880281 c -0.344267,0 -0.62069,-0.323785 -0.62069,-0.72699 z m 14.259368,0 v 2.036388 c 0,0.403206 0.277033,0.726991 0.6213,0.726991 h 10.980929 c 0.342226,0 0.61927,-0.323785 0.61927,-0.726991 v -2.036388 c 0,0.403205 -0.277044,0.72699 -0.6213,0.72699 H 34.137608 c -0.342227,0 -0.61926,-0.323785 -0.61926,-0.72699 z m 14.259366,0 v 2.036388 c 0,0.403206 0.277034,0.726991 0.621301,0.726991 h 10.980929 c 0.342226,0 0.619269,-0.323785 0.619269,-0.726991 v -2.036388 c 0,0.403205 -0.277043,0.72699 -0.6213,0.72699 H 48.396974 c -0.342226,0 -0.61926,-0.323785 -0.61926,-0.72699 z M 4.9996139,43.981861 v 2.036399 c 0,0.403205 0.2764284,0.72699 0.6206897,0.72699 H 16.601233 c 0.344267,0 0.62069,-0.323785 0.62069,-0.72699 v -2.036399 c 0,0.403206 -0.276423,0.727 -0.62069,0.727 H 5.6203036 c -0.3442613,0 -0.6206897,-0.323794 -0.6206897,-0.727 z m 14.2593661,0 v 2.036399 c 0,0.403205 0.276424,0.72699 0.620691,0.72699 H 30.8606 c 0.344266,0 0.6213,-0.323785 0.6213,-0.72699 v -2.036399 c 0,0.403206 -0.277034,0.727 -0.6213,0.727 H 19.880281 c -0.344267,0 -0.62069,-0.323794 -0.62069,-0.727 z m 14.259368,0 v 2.036399 c 0,0.403205 0.277033,0.72699 0.6213,0.72699 h 10.980929 c 0.342226,0 0.61927,-0.323785 0.61927,-0.72699 v -2.036399 c 0,0.403206 -0.277044,0.727 -0.6213,0.727 H 34.137608 c -0.342227,0 -0.61926,-0.323794 -0.61926,-0.727 z m 14.259366,0 v 2.036399 c 0,0.403205 0.277034,0.72699 0.621301,0.72699 h 10.980929 c 0.342226,0 0.619269,-0.323785 0.619269,-0.72699 v -2.036399 c 0,0.403206 -0.277043,0.727 -0.6213,0.727 H 48.396974 c -0.342226,0 -0.61926,-0.323794 -0.61926,-0.727 z M 4.9996139,58.236611 V 60.27301 C 4.9996139,60.676215 5.2760423,61 5.6203036,61 H 16.601233 c 0.344267,0 0.62069,-0.323785 0.62069,-0.72699 v -2.036399 c 0,0.403206 -0.276423,0.727 -0.62069,0.727 H 5.6203036 c -0.3442613,0 -0.6206897,-0.323794 -0.6206897,-0.727 z m 14.2593661,0 V 60.27301 C 19.25898,60.676215 19.535404,61 19.879671,61 H 30.8606 c 0.344266,0 0.6213,-0.323785 0.6213,-0.72699 v -2.036399 c 0,0.403206 -0.277034,0.727 -0.6213,0.727 H 19.880281 c -0.344267,0 -0.62069,-0.323794 -0.62069,-0.727 z m 14.259368,0 v 2.036399 c 0,0.403205 0.277033,0.72699 0.6213,0.72699 h 10.980929 c 0.342226,0 0.61927,-0.323785 0.61927,-0.72699 v -2.036399 c 0,0.403206 -0.277044,0.727 -0.6213,0.727 H 34.137608 c -0.342227,0 -0.61926,-0.323794 -0.61926,-0.727 z m 14.259366,0 v 2.036399 c 0,0.403205 0.277034,0.72699 0.621301,0.72699 h 10.980929 c 0.342226,0 0.619269,-0.323785 0.619269,-0.72699 v -2.036399 c 0,0.403206 -0.277043,0.727 -0.6213,0.727 H 48.396974 c -0.342226,0 -0.61926,-0.323794 -0.61926,-0.727 z"
       id="path1" />
    <rect
       style="fill:#2d3d53;stroke-width:1.01836;fill-opacity:1"
       width="12.222137"
       height="12.21818"
       x="5.0000048"
       y="5"
       rx="0.62129182"
       ry="0.72901827"
       id="rect1" />
    <rect
       style="fill:#e4e4e4;stroke-width:1.01836"
       width="12.222137"
       height="12.21818"
       x="19.259172"
       y="5"
       rx="0.62129182"
       ry="0.72901827"
       id="rect2" />
    <rect
       style="fill:#c83771;stroke-width:1.01836"
       width="12.222137"
       height="12.21818"
       x="33.518345"
       y="5"
       rx="0.62129182"
       ry="0.72901827"
       id="rect3" />
    <rect
       style="fill:#e4e4e4;stroke-width:1.01836"
       width="12.222137"
       height="12.21818"
       x="47.777477"
       y="5"
       rx="0.62129182"
       ry="0.72901827"
       id="rect4" />
    <rect
       style="fill:#e4e4e4;stroke-width:1.01836"
       width="12.222137"
       height="12.21818"
       x="5.0000048"
       y="19.254555"
       rx="0.62129182"
       ry="0.72901827"
       id="rect5" />
    <rect
       style="fill:#e4e4e4;stroke-width:1.01836"
       width="12.222137"
       height="12.21818"
       x="19.259172"
       y="19.254555"
       rx="0.62129182"
       ry="0.72901827"
       id="rect6" />
    <rect
       style="fill:#c83771;stroke-width:1.01836"
       width="12.222137"
       height="12.21818"
       x="33.518345"
       y="19.254555"
       rx="0.62129182"
       ry="0.72901827"
       id="rect7" />
    <rect
       style="fill:#e4e4e4;stroke-width:1.01836"
       width="12.222137"
       height="12.21818"
       x="47.777477"
       y="19.254555"
       rx="0.62129182"
       ry="0.72901827"
       id="rect8" />
    <rect
       style="fill:#e4e4e4;stroke-width:1.01836"
       width="12.222137"
       height="12.21818"
       x="5.0000048"
       y="33.509109"
       rx="0.62129182"
       ry="0.72901827"
       id="rect9" />
    <rect
       style="fill:#2d3d53;stroke-width:1.01836;fill-opacity:1"
       width="12.222137"
       height="12.21818"
       x="19.259172"
       y="33.509109"
       rx="0.62129182"
       ry="0.72901827"
       id="rect10" />
    <rect
       style="fill:#e4e4e4;stroke-width:1.01836"
       width="12.222137"
       height="12.21818"
       x="33.518345"
       y="33.509109"
       rx="0.62129182"
       ry="0.72901827"
       id="rect11" />
    <rect
       style="fill:#37c871;stroke-width:1.01836"
       width="12.222137"
       height="12.21818"
       x="47.777477"
       y="33.509109"
       rx="0.62129182"
       ry="0.72901827"
       id="rect12" />
    <rect
       style="fill:#e4e4e4;stroke-width:1.01836"
       width="12.222137"
       height="12.21818"
       x="5.0000048"
       y="47.763626"
       rx="0.62129182"
       ry="0.72901827"
       id="rect13" />
    <rect
       style="fill:#e4e4e4;stroke-width:1.01836"
       width="12.222137"
       height="12.21818"
       x="19.259172"
       y="47.763626"
       rx="0.62129182"
       ry="0.72901827"
       id="rect14" />
    <rect
       style="fill:#e4e4e4;stroke-width:1.01836"
       width="12.222137"
       height="12.21818"
       x="33.518345"
       y="47.763626"
       rx="0.62129182"
       ry="0.72901827"
       id="rect15" />
    <rect
       style="fill:#e4e4e4;stroke-width:1.01836"
       width="12.222137"
       height="12.21818"
       x="47.777477"
       y="47.763626"
       rx="0.62129182"
       ry="0.72901827"
       id="rect16" />
    <path
       style="opacity:0.1;fill:#ffffff;stroke-width:1.01836"
       d="M 5.6206631,5 C 5.2764008,5 5.0000071,5.3242281 5.0000071,5.7278408 v 1.018182 c 0,-0.4036127 0.2763937,-0.7278408 0.620656,-0.7278408 H 16.601492 c 0.344256,0 0.620655,0.3242282 0.620655,0.7278408 V 5.7278408 C 17.222147,5.3242282 16.945748,5 16.601492,5 Z"
       id="path16" />
    <path
       style="opacity:0.2;fill:#ffffff;stroke-width:1.01836"
       d="m 19.879823,5 c -0.344257,0 -0.620656,0.3242281 -0.620656,0.7278408 v 1.018182 c 0,-0.4036127 0.276399,-0.7278408 0.620656,-0.7278408 h 10.980825 c 0.344267,0 0.620656,0.3242282 0.620656,0.7278408 V 5.7278408 C 31.481304,5.3242282 31.204915,5 30.860648,5 Z"
       id="path17" />
    <path
       style="opacity:0.2;fill:#ffffff;stroke-width:1.01836"
       d="m 34.136995,5 c -0.343328,0.00124 -0.618661,0.3250167 -0.618661,0.7278408 v 1.018182 c 0,-0.4028241 0.275333,-0.7265779 0.618661,-0.7278408 h 0.002 10.97884 c 0.344211,0 0.622594,0.3242282 0.622594,0.7278408 V 5.7278408 C 45.740471,5.3242282 45.462088,5 45.117821,5 H 34.13899 Z"
       id="path18" />
    <path
       style="opacity:0.2;fill:#ffffff;stroke-width:1.01836"
       d="m 48.396162,5 c -0.343328,0.00124 -0.618671,0.3250167 -0.618671,0.7278408 v 1.018182 c 0,-0.4028241 0.275343,-0.7265779 0.618671,-0.7278408 h 0.002 10.978842 c 0.344219,0 0.622597,0.3242282 0.622597,0.7278408 V 5.7278408 C 59.999637,5.3242282 59.721254,5 59.376988,5 H 48.398146 Z"
       id="path19" />
    <path
       style="opacity:0.2;fill:#ffffff;stroke-width:1.01836"
       d="m 5.6206631,19.25455 c -0.3442623,0 -0.620656,0.324628 -0.620656,0.727834 v 1.01818 c 0,-0.403206 0.2763937,-0.727834 0.620656,-0.727834 H 16.601492 c 0.344256,0 0.620655,0.324628 0.620655,0.727834 v -1.01818 c 0,-0.403206 -0.276399,-0.727834 -0.620655,-0.727834 z"
       id="path20" />
    <path
       style="opacity:0.2;fill:#ffffff;stroke-width:1.01836"
       d="m 19.879823,19.25455 c -0.344257,0 -0.620656,0.324628 -0.620656,0.727834 v 1.01818 c 0,-0.403206 0.276399,-0.727834 0.620656,-0.727834 h 10.980825 c 0.344267,0 0.620656,0.324628 0.620656,0.727834 v -1.01818 c 0,-0.403206 -0.276389,-0.727834 -0.620656,-0.727834 z"
       id="path21" />
    <path
       style="opacity:0.2;fill:#ffffff;stroke-width:1.01836"
       d="m 34.136995,19.25455 c -0.343328,0.0012 -0.618661,0.325421 -0.618661,0.727834 v 1.01818 c 0,-0.402413 0.275333,-0.726575 0.618661,-0.727834 h 0.002 10.97884 c 0.344211,0 0.622594,0.324628 0.622594,0.727834 v -1.01818 c 0,-0.403206 -0.278383,-0.727834 -0.62265,-0.727834 H 34.138986 Z"
       id="path22" />
    <path
       style="opacity:0.2;fill:#ffffff;stroke-width:1.01836"
       d="m 48.396162,19.25455 c -0.343328,0.0012 -0.618671,0.325421 -0.618671,0.727834 v 1.01818 c 0,-0.402413 0.275343,-0.726575 0.618671,-0.727834 h 0.002 10.978842 c 0.344219,0 0.622597,0.324628 0.622597,0.727834 v -1.01818 c 0,-0.403206 -0.278378,-0.727834 -0.622644,-0.727834 H 48.398143 Z"
       id="path23" />
    <path
       style="opacity:0.2;fill:#ffffff;stroke-width:1.01836"
       d="m 5.6206631,33.50909 c -0.3442623,0 -0.620656,0.324638 -0.620656,0.727844 v 1.01818 c 0,-0.403206 0.2763937,-0.727844 0.620656,-0.727844 H 16.601492 c 0.344256,0 0.620655,0.324638 0.620655,0.727844 v -1.01818 c 0,-0.403206 -0.276399,-0.727844 -0.620655,-0.727844 z"
       id="path24" />
    <path
       style="opacity:0.1;fill:#ffffff;stroke-width:1.01836"
       d="m 19.879823,33.50909 c -0.344257,0 -0.620656,0.324638 -0.620656,0.727844 v 1.01818 c 0,-0.403206 0.276399,-0.727844 0.620656,-0.727844 h 10.980825 c 0.344267,0 0.620656,0.324638 0.620656,0.727844 v -1.01818 c 0,-0.403206 -0.276389,-0.727844 -0.620656,-0.727844 z"
       id="path25" />
    <path
       style="opacity:0.2;fill:#ffffff;stroke-width:1.01836"
       d="m 34.136995,33.50909 c -0.343328,0.0012 -0.618661,0.325421 -0.618661,0.727844 v 1.01818 c 0,-0.402423 0.275333,-0.726575 0.618661,-0.727844 h 0.002 10.97884 c 0.344211,0 0.622594,0.324638 0.622594,0.727844 v -1.01818 c 0,-0.403206 -0.278383,-0.727844 -0.62265,-0.727844 H 34.138986 Z"
       id="path26" />
    <path
       style="opacity:0.2;fill:#ffffff;stroke-width:1.01836"
       d="m 48.396162,33.50909 c -0.343328,0.0012 -0.618671,0.325421 -0.618671,0.727844 v 1.01818 c 0,-0.402423 0.275343,-0.726575 0.618671,-0.727844 h 0.002 10.978842 c 0.344219,0 0.622597,0.324638 0.622597,0.727844 v -1.01818 c 0,-0.403206 -0.278378,-0.727844 -0.622644,-0.727844 H 48.398143 Z"
       id="path27" />
    <path
       style="opacity:0.2;fill:#ffffff;stroke-width:1.01836"
       d="m 5.6206631,47.76364 c -0.3442623,0 -0.620656,0.324628 -0.620656,0.727834 v 1.01819 c 0,-0.403206 0.2763937,-0.727844 0.620656,-0.727844 H 16.601492 c 0.344256,0 0.620655,0.324638 0.620655,0.727844 v -1.01819 c 0,-0.403206 -0.276399,-0.727834 -0.620655,-0.727834 z"
       id="path28" />
    <path
       style="opacity:0.2;fill:#ffffff;stroke-width:1.01836"
       d="m 19.879823,47.76364 c -0.344257,0 -0.620656,0.324628 -0.620656,0.727834 v 1.01819 c 0,-0.403206 0.276399,-0.727844 0.620656,-0.727844 h 10.980825 c 0.344267,0 0.620656,0.324638 0.620656,0.727844 v -1.01819 c 0,-0.403206 -0.276389,-0.727834 -0.620656,-0.727834 z"
       id="path29" />
    <path
       style="opacity:0.2;fill:#ffffff;stroke-width:1.01836"
       d="m 34.136995,47.76364 c -0.343328,0.0012 -0.618661,0.325421 -0.618661,0.727834 v 1.01819 c 0,-0.402423 0.275333,-0.726585 0.618661,-0.727844 h 0.002 10.97884 c 0.344211,0 0.622594,0.324638 0.622594,0.727844 v -1.01819 c 0,-0.403206 -0.278383,-0.727834 -0.62265,-0.727834 H 34.138986 Z"
       id="path30" />
    <path
       style="opacity:0.2;fill:#ffffff;stroke-width:1.01836"
       d="m 48.396162,47.76364 c -0.343328,0.0012 -0.618671,0.325421 -0.618671,0.727834 v 1.01819 c 0,-0.402423 0.275343,-0.726585 0.618671,-0.727844 h 0.002 10.978842 c 0.344219,0 0.622597,0.324638 0.622597,0.727844 v -1.01819 c 0,-0.403206 -0.278378,-0.727834 -0.622644,-0.727834 H 48.398143 Z"
       id="path31" />
  </g>
</svg>
