<?xml version="1.0" encoding="UTF-8" standalone="no"?>
<svg
   width="62"
   height="62"
   version="1.1"
   id="svg4"
   sodipodi:docname="hydrogen.svg"
   inkscape:version="1.4 (e7c3feb100, 2024-10-09)"
   xmlns:inkscape="http://www.inkscape.org/namespaces/inkscape"
   xmlns:sodipodi="http://sodipodi.sourceforge.net/DTD/sodipodi-0.dtd"
   xmlns:xlink="http://www.w3.org/1999/xlink"
   xmlns="http://www.w3.org/2000/svg"
   xmlns:svg="http://www.w3.org/2000/svg">
  <defs
     id="defs4">
    <linearGradient
       id="linearGradient4"
       inkscape:collect="always">
      <stop
         style="stop-color:#2097d4;stop-opacity:1;"
         offset="0"
         id="stop4" />
      <stop
         style="stop-color:#9d7ed5;stop-opacity:1"
         offset="1"
         id="stop5" />
    </linearGradient>
    <linearGradient
       inkscape:collect="always"
       xlink:href="#linearGradient4"
       id="linearGradient5"
       x1="30.212767"
       y1="59.017544"
       x2="31.5"
       y2="4.9824572"
       gradientUnits="userSpaceOnUse"
       gradientTransform="translate(-0.5,-1.0000005)" />
  </defs>
  <sodipodi:namedview
     id="namedview4"
     pagecolor="#ffffff"
     bordercolor="#000000"
     borderopacity="0.25"
     inkscape:showpageshadow="2"
     inkscape:pageopacity="0.0"
     inkscape:pagecheckerboard="0"
     inkscape:deskcolor="#d1d1d1"
     inkscape:zoom="11.75"
     inkscape:cx="32.042553"
     inkscape:cy="32.042553"
     inkscape:window-width="1920"
     inkscape:window-height="998"
     inkscape:window-x="0"
     inkscape:window-y="0"
     inkscape:window-maximized="1"
     inkscape:current-layer="svg4" />
  <rect
     x="3.5"
     y="3.9824567"
     width="55"
     height="55.017544"
     ry="14.736842"
     style="opacity:0.2;stroke-width:0.982303"
     id="rect1" />
  <rect
     x="3.5"
     y="2.9999995"
     width="55"
     height="55.017544"
     ry="14.736842"
     style="fill:url(#linearGradient5);stroke-width:0.982303"
     id="rect2" />
  <path
     d="M 18.232143,2.9999995 C 10.070534,2.9999995 3.5,9.5726295 3.5,17.736843 v 0.982455 C 3.5,10.555089 10.070534,3.9824555 18.232143,3.9824555 H 43.767858 C 51.929464,3.9824555 58.5,10.555089 58.5,18.719298 V 17.736843 C 58.5,9.5726295 51.929464,2.9999995 43.767858,2.9999995 Z"
     style="opacity:0.2;fill:#ffffff;stroke-width:0.982303"
     id="path4" />
  <g
     id="g1"
     transform="translate(-1,-28.5)">
    <rect
       style="fill:#314277"
       width="10"
       height="31"
       x="11"
       y="40"
       rx="1.429"
       ry="1.409"
       id="rect3" />
    <rect
       style="fill:#314277"
       width="26"
       height="31"
       x="27"
       y="40"
       rx="1.368"
       ry="1.409"
       id="rect4" />
    <rect
       style="fill:#314277"
       width="10"
       height="29.4"
       x="51"
       y="-40.400002"
       rx="1.429"
       ry="1.4"
       transform="rotate(90)"
       id="rect5" />
    <rect
       style="opacity:0.3;fill:#314277"
       width="5"
       height="5"
       x="12"
       y="75"
       rx="1.25"
       ry="1.25"
       id="rect6" />
    <rect
       style="opacity:0.56;fill:#314277"
       width="5"
       height="5"
       x="19"
       y="75"
       rx="1.25"
       ry="1.25"
       id="rect7" />
    <rect
       style="opacity:0.82;fill:#314277"
       width="5"
       height="5"
       x="26"
       y="75"
       rx="1.25"
       ry="1.25"
       id="rect8" />
    <path
       style="opacity:0.2"
       d="M 32.384766,45 C 31.617689,45 31,45.5575 31,46.25 v 2.5 C 31,49.4425 31.617689,50 32.384766,50 H 44 v 4 h -9.25 -2.5 C 31.5575,54 31,54.479556 31,55.076172 V 64.25 v 2.5 0.173828 C 31,67.520444 31.5575,68 32.25,68 h 2.5 12.865234 C 48.382311,68 49,67.4425 49,66.75 v -2.5 C 49,63.5575 48.382311,63 47.615234,63 H 36 v -4 h 9.25 2.441406 0.05859 c 0.02625,0 0.04838,-0.01036 0.07422,-0.01172 0.07425,-0.0072 0.146809,-0.02062 0.216797,-0.03906 C 48.588054,58.834254 49,58.431511 49,57.923828 V 57.75 v -2.5 -6.5 -2.5 -0.173828 C 49,45.523733 48.515098,45.089405 47.894531,45.025391 47.844907,45.020272 47.801276,45 47.75,45 H 47.615234 45.25 Z"
       id="path8" />
    <rect
       style="fill:#ffffff"
       width="18"
       height="5"
       x="31"
       y="44"
       rx="1.385"
       ry="1.25"
       id="rect9" />
    <rect
       style="fill:#ffffff"
       width="18"
       height="5"
       x="31"
       y="62"
       rx="1.385"
       ry="1.25"
       id="rect10" />
    <rect
       style="fill:#ffffff"
       width="14"
       height="5"
       x="53"
       y="-36"
       rx="1.077"
       ry="1.25"
       transform="rotate(90)"
       id="rect11" />
    <rect
       style="fill:#ffffff"
       width="17"
       height="5"
       x="-49"
       y="-58"
       rx="1.308"
       ry="1.25"
       transform="scale(-1)"
       id="rect12" />
    <rect
       style="fill:#ffffff"
       width="14"
       height="5"
       x="44"
       y="-49"
       rx="1.077"
       ry="1.25"
       transform="rotate(90)"
       id="rect13" />
    <rect
       style="opacity:0.3;fill:#314277"
       width="5"
       height="5"
       x="-52"
       y="75"
       rx="1.25"
       ry="1.25"
       transform="scale(-1,1)"
       id="rect14" />
    <rect
       style="opacity:0.56;fill:#314277"
       width="5"
       height="5"
       x="-45"
       y="75"
       rx="1.25"
       ry="1.25"
       transform="scale(-1,1)"
       id="rect15" />
    <rect
       style="opacity:0.82;fill:#314277"
       width="5"
       height="5"
       x="-38"
       y="75"
       rx="1.25"
       ry="1.25"
       transform="scale(-1,1)"
       id="rect16" />
    <path
       style="opacity:0.1"
       d="m 21,60 v 1 h 6 v -1 z m -10,8.591797 v 1 C 11,70.372433 11.636306,71 12.427734,71 h 7.144532 C 20.363694,71 21,70.372433 21,69.591797 v -1 C 21,69.372433 20.363694,70 19.572266,70 H 12.427734 C 11.636306,70 11,69.372433 11,68.591797 Z m 16,0 v 1 C 27,70.372433 27.611035,71 28.369141,71 H 51.630859 C 52.388965,71 53,70.372433 53,69.591797 v -1 C 53,69.372433 52.388965,70 51.630859,70 H 28.369141 C 27.611035,70 27,69.372433 27,68.591797 Z"
       id="path17" />
    <path
       style="opacity:0.1;fill:#ffffff"
       d="M 12.427734,39 C 11.636306,39 11,39.627567 11,40.408203 v 1 C 11,40.627567 11.636306,40 12.427734,40 h 7.144532 C 20.363694,40 21,40.627567 21,41.408203 v -1 C 21,39.627567 20.363694,39 19.572266,39 Z m 15.941407,0 C 27.611035,39 27,39.627567 27,40.408203 v 1 C 27,40.627567 27.611035,40 28.369141,40 H 51.630859 C 52.388965,40 53,40.627567 53,41.408203 v -1 C 53,39.627567 52.388965,39 51.630859,39 Z M 21,50 v 1 h 6 v -1 z"
       id="path18" />
  </g>
</svg>
