<?xml version="1.0" encoding="UTF-8" standalone="no"?>
<svg
   width="62"
   height="62"
   version="1.1"
   id="svg10"
   sodipodi:docname="iagno.svg"
   inkscape:version="1.4 (unknown)"
   xmlns:inkscape="http://www.inkscape.org/namespaces/inkscape"
   xmlns:sodipodi="http://sodipodi.sourceforge.net/DTD/sodipodi-0.dtd"
   xmlns:xlink="http://www.w3.org/1999/xlink"
   xmlns="http://www.w3.org/2000/svg"
   xmlns:svg="http://www.w3.org/2000/svg">
  <defs
     id="defs10">
    <linearGradient
       id="linearGradient15"
       inkscape:collect="always">
      <stop
         style="stop-color:#7236c9;stop-opacity:1;"
         offset="0"
         id="stop9" />
      <stop
         style="stop-color:#a27ada;stop-opacity:1;"
         offset="1"
         id="stop10" />
    </linearGradient>
    <linearGradient
       id="linearGradient17"
       inkscape:collect="always">
      <stop
         style="stop-color:#d4aa00;stop-opacity:1"
         offset="0"
         id="stop17" />
      <stop
         style="stop-color:#ffe680;stop-opacity:1"
         offset="1"
         id="stop18" />
    </linearGradient>
    <linearGradient
       id="linearGradient2">
      <stop
         offset="0"
         stop-color="#f9f9f9"
         id="stop1"
         style="stop-color:#a4b4c1;stop-opacity:1;" />
      <stop
         offset="1"
         stop-color="#dedede"
         id="stop2"
         style="stop-color:#dee5ed;stop-opacity:1;" />
    </linearGradient>
    <linearGradient
       id="linearGradient11"
       inkscape:collect="always">
      <stop
         style="stop-color:#2c3842;stop-opacity:1;"
         offset="0"
         id="stop11" />
      <stop
         style="stop-color:#4a5e6f;stop-opacity:1;"
         offset="1"
         id="stop12" />
    </linearGradient>
    <linearGradient
       inkscape:collect="always"
       xlink:href="#linearGradient11"
       id="linearGradient12"
       x1="30.978724"
       y1="60"
       x2="32"
       y2="4"
       gradientUnits="userSpaceOnUse"
       gradientTransform="matrix(1,0,0,0.98245614,-1,-0.43859645)" />
    <linearGradient
       id="paint154_linear_890_11"
       x1="778"
       y1="812.29199"
       x2="788"
       y2="812.29199"
       gradientUnits="userSpaceOnUse">
      <stop
         stop-color="#EFF2F6"
         id="stop1050" />
      <stop
         offset="0.600785"
         stop-color="#B7C6CD"
         id="stop1051" />
    </linearGradient>
    <linearGradient
       id="paint155_linear_890_11"
       x1="783"
       y1="813"
       x2="783"
       y2="817"
       gradientUnits="userSpaceOnUse">
      <stop
         stop-color="#EFF2F6"
         id="stop1052" />
      <stop
         offset="0.734138"
         stop-color="#B7C6CD"
         id="stop1053" />
    </linearGradient>
    <radialGradient
       id="paint156_radial_890_11"
       cx="0"
       cy="0"
       r="1"
       gradientUnits="userSpaceOnUse"
       gradientTransform="matrix(6.9999948,6.9999948,-6.9999948,6.9999948,45.000143,44.000006)">
      <stop
         offset="0.600678"
         stop-color="#B7C6CD"
         id="stop1054" />
      <stop
         offset="0.876735"
         stop-color="#EFF2F6"
         id="stop1055" />
    </radialGradient>
    <linearGradient
       id="paint157_linear_890_11"
       x1="803"
       y1="805"
       x2="763"
       y2="765"
       gradientUnits="userSpaceOnUse"
       gradientTransform="matrix(0.29166667,0,0,0.29166667,-183.37486,-184.95833)">
      <stop
         offset="0.314714"
         stop-color="#2E2E41"
         id="stop1056" />
      <stop
         offset="0.711139"
         stop-color="#566C80"
         id="stop1057" />
    </linearGradient>
    <linearGradient
       id="paint158_linear_890_11"
       x1="792"
       y1="794"
       x2="774"
       y2="776"
       gradientUnits="userSpaceOnUse"
       xlink:href="#paint160_linear_890_11"
       gradientTransform="matrix(0.29166667,0,0,0.29166667,-183.37486,-184.95833)">
      <stop
         offset="0.304478"
         stop-color="#2E2E41"
         id="stop1058"
         style="stop-color:#ffcc00;stop-opacity:1" />
      <stop
         offset="1"
         stop-color="#566C80"
         id="stop1059"
         style="stop-color:#ffb380;stop-opacity:1" />
    </linearGradient>
    <linearGradient
       id="paint160_linear_890_11"
       x1="784"
       y1="798"
       x2="782"
       y2="796"
       gradientUnits="userSpaceOnUse">
      <stop
         stop-color="#FF7E07"
         id="stop1062" />
      <stop
         offset="1"
         stop-color="#FFE607"
         id="stop1063" />
    </linearGradient>
    <linearGradient
       id="paint159_linear_890_11"
       x1="788"
       y1="790"
       x2="778"
       y2="780"
       gradientUnits="userSpaceOnUse"
       gradientTransform="matrix(0.29166667,0,0,0.29166667,-183.37486,-184.95833)">
      <stop
         offset="0.39139399"
         stop-color="#5200FF"
         id="stop1060"
         style="stop-color:#854cff;stop-opacity:1;" />
      <stop
         offset="1"
         stop-color="#0085FF"
         id="stop1061"
         style="stop-color:#40a4ff;stop-opacity:1;" />
    </linearGradient>
    <filter
       id="f"
       width="1.24"
       height="1.24"
       x="-0.12"
       y="-0.12"
       color-interpolation-filters="sRGB">
      <feGaussianBlur
         stdDeviation=".6"
         id="feGaussianBlur9" />
    </filter>
    <filter
       id="g"
       width="1.24"
       height="1.24"
       x="-0.12"
       y="-0.12"
       color-interpolation-filters="sRGB">
      <feGaussianBlur
         stdDeviation=".6"
         id="feGaussianBlur10" />
    </filter>
    <filter
       id="h"
       width="1.24"
       height="1.24"
       x="-0.12"
       y="-0.12"
       color-interpolation-filters="sRGB">
      <feGaussianBlur
         stdDeviation=".6"
         id="feGaussianBlur11" />
    </filter>
    <filter
       id="i"
       width="1.24"
       height="1.24"
       x="-0.12"
       y="-0.12"
       color-interpolation-filters="sRGB">
      <feGaussianBlur
         stdDeviation=".6"
         id="feGaussianBlur12" />
    </filter>
    <linearGradient
       xlink:href="#linearGradient2"
       id="j"
       x1="28.169001"
       x2="28.169001"
       y1="37.424"
       y2="25.424"
       gradientUnits="userSpaceOnUse"
       gradientTransform="matrix(1.3333,0,0,1.3333,-20.637976,23.022133)" />
    <linearGradient
       id="a">
      <stop
         offset="0"
         stop-color="#f9f9f9"
         id="stop5"
         style="stop-color:#fafafa;stop-opacity:1;" />
      <stop
         offset="1"
         stop-color="#dedede"
         id="stop6" />
    </linearGradient>
    <linearGradient
       xlink:href="#a"
       id="k"
       x1="34.168999"
       x2="46.168999"
       y1="43.424"
       y2="43.424"
       gradientUnits="userSpaceOnUse"
       gradientTransform="matrix(1.3333,0,0,1.3333,-20.637976,23.022133)" />
    <linearGradient
       xlink:href="#b"
       id="l"
       x1="22.169001"
       x2="34.168999"
       y1="43.424"
       y2="43.424"
       gradientUnits="userSpaceOnUse"
       gradientTransform="matrix(1.3333,0,0,1.3333,-20.637976,23.022133)" />
    <linearGradient
       id="b">
      <stop
         offset="0"
         stop-color="#373737"
         id="stop3" />
      <stop
         offset="1"
         stop-color="#646464"
         id="stop4" />
    </linearGradient>
    <filter
       id="m"
       width="1.2889154"
       height="1.303"
       x="-0.14445769"
       y="-0.1515"
       color-interpolation-filters="sRGB">
      <feGaussianBlur
         stdDeviation=".505"
         id="feGaussianBlur13" />
    </filter>
    <linearGradient
       xlink:href="#c"
       id="n"
       x1="23.978001"
       x2="32.368"
       y1="43.424"
       y2="43.424"
       gradientUnits="userSpaceOnUse"
       gradientTransform="matrix(1.3333,0,0,1.3333,-20.637976,23.022133)" />
    <linearGradient
       id="c">
      <stop
         offset="0"
         stop-color="#ffb22a"
         id="stop7" />
      <stop
         offset="1"
         stop-color="#ffec4a"
         id="stop8" />
    </linearGradient>
    <linearGradient
       xlink:href="#b"
       id="o"
       x1="34.168999"
       x2="46.168999"
       y1="31.424"
       y2="31.424"
       gradientUnits="userSpaceOnUse"
       gradientTransform="matrix(1.3333,0,0,1.3333,-20.637976,23.022133)" />
    <filter
       id="p"
       width="1.2889154"
       height="1.303"
       x="-0.14445769"
       y="-0.1515"
       color-interpolation-filters="sRGB">
      <feGaussianBlur
         stdDeviation=".505"
         id="feGaussianBlur14" />
    </filter>
    <linearGradient
       xlink:href="#c"
       id="q"
       x1="35.978001"
       x2="44.368"
       y1="31.424"
       y2="31.424"
       gradientUnits="userSpaceOnUse"
       gradientTransform="matrix(1.3333,0,0,1.3333,-20.637976,23.022133)" />
    <linearGradient
       inkscape:collect="always"
       xlink:href="#linearGradient2"
       id="linearGradient10"
       x1="32.919353"
       y1="88.919151"
       x2="32.919353"
       y2="72.919556"
       gradientUnits="userSpaceOnUse" />
    <linearGradient
       inkscape:collect="always"
       xlink:href="#linearGradient15"
       id="linearGradient14"
       x1="32.919353"
       y1="72.919556"
       x2="32.919353"
       y2="56.919952"
       gradientUnits="userSpaceOnUse" />
    <linearGradient
       inkscape:collect="always"
       xlink:href="#linearGradient15"
       id="linearGradient16"
       x1="16.919752"
       y1="88.919151"
       x2="16.919752"
       y2="72.919556"
       gradientUnits="userSpaceOnUse" />
    <linearGradient
       inkscape:collect="always"
       xlink:href="#linearGradient17"
       id="linearGradient18"
       x1="27.331491"
       y1="64.919752"
       x2="38.517878"
       y2="64.919752"
       gradientUnits="userSpaceOnUse" />
    <linearGradient
       inkscape:collect="always"
       xlink:href="#linearGradient17"
       id="linearGradient20"
       x1="11.331891"
       y1="80.91935"
       x2="22.518278"
       y2="80.91935"
       gradientUnits="userSpaceOnUse" />
  </defs>
  <sodipodi:namedview
     id="namedview10"
     pagecolor="#ffffff"
     bordercolor="#000000"
     borderopacity="0.25"
     inkscape:showpageshadow="2"
     inkscape:pageopacity="0.0"
     inkscape:pagecheckerboard="0"
     inkscape:deskcolor="#d1d1d1"
     inkscape:zoom="8.3085047"
     inkscape:cx="24.673513"
     inkscape:cy="34.723456"
     inkscape:window-width="1920"
     inkscape:window-height="998"
     inkscape:window-x="0"
     inkscape:window-y="0"
     inkscape:window-maximized="1"
     inkscape:current-layer="svg10"
     showgrid="false">
    <inkscape:grid
       id="grid1"
       units="px"
       originx="0"
       originy="0"
       spacingx="1"
       spacingy="1"
       empcolor="#0099e5"
       empopacity="0.30196078"
       color="#0099e5"
       opacity="0.14901961"
       empspacing="5"
       enabled="true"
       visible="false" />
  </sodipodi:namedview>
  <rect
     style="opacity:0.2;stroke-width:0.991189"
     width="56"
     height="55.017544"
     x="3"
     y="3.9824562"
     rx="16.799999"
     ry="16.505262"
     id="rect1" />
  <rect
     style="fill:url(#linearGradient12);stroke-width:0.991189"
     width="56"
     height="55.017544"
     x="3"
     y="3.4912281"
     rx="16.799999"
     ry="16.505262"
     id="rect2" />
  <path
     style="opacity:0.1;fill:#ffffff;stroke-width:0.991189"
     d="M 19.800781,3 C 10.493582,3 3,10.362116 3,19.50603 v 0.982457 C 3,11.344572 10.493582,3.9824562 19.800781,3.9824562 H 42.199219 C 51.506418,3.9824562 59,11.344572 59,20.488487 V 19.50603 C 59,10.362116 51.506418,3 42.199219,3 Z"
     id="path9" />
  <g
     id="g1"
     transform="translate(6.0804482,-41.428324)">
    <path
       d="m 34.169,31.424 c 0,3.313 -2.688,6 -6,6 -3.313,0 -6,-2.688 -6,-6 0,-3.313 2.688,-6 6,-6 3.313,0 6,2.688 6,6"
       filter="url(#f)"
       opacity="0.25"
       transform="matrix(1.3333,0,0,1.3333,-20.637976,23.022133)"
       id="path16" />
    <path
       d="m 46.169,43.424 c 0,3.313 -2.688,6 -6,6 -3.313,0 -6,-2.688 -6,-6 0,-3.313 2.688,-6 6,-6 3.313,0 6,2.688 6,6"
       filter="url(#g)"
       opacity="0.25"
       transform="matrix(1.3333,0,0,1.3333,-20.637976,23.022133)"
       id="path17" />
    <path
       d="m 34.169,43.424 c 0,3.313 -2.688,6 -6,6 -3.313,0 -6,-2.688 -6,-6 0,-3.313 2.688,-6 6,-6 3.313,0 6,2.688 6,6"
       filter="url(#h)"
       opacity="0.25"
       transform="matrix(1.3333,0,0,1.3333,-20.637976,23.022133)"
       id="path18" />
    <path
       d="m 46.169,31.424 c 0,3.313 -2.688,6 -6,6 -3.313,0 -6,-2.688 -6,-6 0,-3.313 2.688,-6 6,-6 3.313,0 6,2.688 6,6"
       filter="url(#i)"
       opacity="0.25"
       transform="matrix(1.3333,0,0,1.3333,-20.637976,23.022133)"
       id="path19" />
    <path
       d="m 24.919552,64.919752 c 0,4.417223 -3.583911,7.9998 -7.9998,7.9998 -4.417223,0 -7.9998003,-3.58391 -7.9998003,-7.9998 0,-4.417223 3.5839103,-7.9998 7.9998003,-7.9998 4.417223,0 7.9998,3.583911 7.9998,7.9998"
       id="path20"
       style="fill:url(#j);stroke-width:1.3333" />
    <path
       d="m 40.919152,80.919352 c 0,4.417223 -3.583911,7.9998 -7.9998,7.9998 -4.417223,0 -7.9998,-3.58391 -7.9998,-7.9998 0,-4.417223 3.58391,-7.9998 7.9998,-7.9998 4.417223,0 7.9998,3.583911 7.9998,7.9998"
       id="path21"
       style="fill:url(#linearGradient10)" />
    <path
       d="m 24.919552,80.919352 c 0,4.417223 -3.583911,7.9998 -7.9998,7.9998 -4.417223,0 -7.9998003,-3.58391 -7.9998003,-7.9998 0,-4.417223 3.5839103,-7.9998 7.9998003,-7.9998 4.417223,0 7.9998,3.583911 7.9998,7.9998"
       id="path22"
       style="fill:url(#linearGradient16)"
       sodipodi:nodetypes="csssc" />
    <path
       d="m 30.724,47.424 -2.582,-1.383 -2.602,1.34 0.52,-2.883 -2.082,-2.059 2.902,-0.398 1.316,-2.617 1.277,2.637 2.895,0.445 -2.117,2.027"
       filter="url(#m)"
       opacity="0.25"
       transform="matrix(1.3333,0,0,1.3333,-20.637976,23.022133)"
       id="path23" />
    <path
       d="m 20.326333,86.252552 -3.44258,-1.843954 -3.469247,1.786622 0.693316,-3.843904 -2.775931,-2.745264 3.869237,-0.530654 1.754623,-3.489246 1.702624,3.515912 3.859903,0.593319 -2.822596,2.702599"
       id="path24"
       style="fill:url(#linearGradient20)" />
    <path
       d="m 40.919152,64.919752 c 0,4.417223 -3.583911,7.9998 -7.9998,7.9998 -4.417223,0 -7.9998,-3.58391 -7.9998,-7.9998 0,-4.417223 3.58391,-7.9998 7.9998,-7.9998 4.417223,0 7.9998,3.583911 7.9998,7.9998"
       id="path25"
       style="fill:url(#linearGradient14)" />
    <path
       d="m 42.724,35.424 -2.582,-1.383 -2.602,1.34 0.52,-2.883 -2.082,-2.059 2.902,-0.398 1.316,-2.617 1.277,2.637 2.895,0.445 -2.117,2.027"
       filter="url(#p)"
       opacity="0.25"
       transform="matrix(1.3333,0,0,1.3333,-20.637976,23.022133)"
       id="path26" />
    <path
       d="m 36.325933,70.252952 -3.44258,-1.843954 -3.469247,1.786622 0.693316,-3.843904 -2.775931,-2.745264 3.869237,-0.530654 1.754623,-3.489246 1.702624,3.515912 3.859903,0.593319 -2.822596,2.702599"
       id="path27"
       style="fill:url(#linearGradient18);fill-opacity:1" />
  </g>
</svg>
