<?xml version="1.0" encoding="UTF-8" standalone="no"?>
<svg
   clip-rule="evenodd"
   fill-rule="evenodd"
   stroke-linejoin="round"
   stroke-miterlimit="2"
   viewBox="0 0 62 62"
   version="1.1"
   id="svg3"
   sodipodi:docname="ibus2.svg"
   width="62"
   height="62"
   inkscape:version="1.4 (e7c3feb100, 2024-10-09)"
   xmlns:inkscape="http://www.inkscape.org/namespaces/inkscape"
   xmlns:sodipodi="http://sodipodi.sourceforge.net/DTD/sodipodi-0.dtd"
   xmlns:xlink="http://www.w3.org/1999/xlink"
   xmlns="http://www.w3.org/2000/svg"
   xmlns:svg="http://www.w3.org/2000/svg">
  <defs
     id="defs3">
    <linearGradient
       id="linearGradient1"
       inkscape:collect="always">
      <stop
         style="stop-color:#2e2e41;stop-opacity:1;"
         offset="0"
         id="stop5" />
      <stop
         style="stop-color:#566c80;stop-opacity:1;"
         offset="1"
         id="stop6" />
    </linearGradient>
    <linearGradient
       id="linearGradient3"
       inkscape:collect="always">
      <stop
         style="stop-color:#72aaec;stop-opacity:1;"
         offset="0"
         id="stop3" />
      <stop
         style="stop-color:#3584e4;stop-opacity:1;"
         offset="1"
         id="stop4" />
    </linearGradient>
    <filter
       id="b-3-36"
       width="1.2393739"
       height="1.1966286"
       x="-0.11968695"
       y="-0.098314282"
       color-interpolation-filters="sRGB">
      <feGaussianBlur
         stdDeviation="1.147"
         id="feGaussianBlur7-6" />
    </filter>
    <filter
       id="b-3-36-6"
       width="1.2393739"
       height="1.1966286"
       x="-0.11968695"
       y="-0.098314282"
       color-interpolation-filters="sRGB">
      <feGaussianBlur
         stdDeviation="1.147"
         id="feGaussianBlur7-6-7" />
    </filter>
    <linearGradient
       inkscape:collect="always"
       xlink:href="#linearGradient3"
       id="linearGradient4"
       x1="31.996025"
       y1="5.0983038"
       x2="32.182014"
       y2="58.017544"
       gradientUnits="userSpaceOnUse" />
    <linearGradient
       inkscape:collect="always"
       xlink:href="#linearGradient1"
       id="linearGradient6"
       x1="31.091717"
       y1="50.768665"
       x2="21.543037"
       y2="15.259762"
       gradientUnits="userSpaceOnUse" />
  </defs>
  <sodipodi:namedview
     id="namedview3"
     pagecolor="#ffffff"
     bordercolor="#000000"
     borderopacity="0.25"
     inkscape:showpageshadow="2"
     inkscape:pageopacity="0.0"
     inkscape:pagecheckerboard="0"
     inkscape:deskcolor="#d1d1d1"
     inkscape:zoom="11.019081"
     inkscape:cx="21.235891"
     inkscape:cy="28.949783"
     inkscape:window-width="1920"
     inkscape:window-height="998"
     inkscape:window-x="0"
     inkscape:window-y="0"
     inkscape:window-maximized="1"
     inkscape:current-layer="svg3" />
  <linearGradient
     id="a"
     x2="1"
     gradientTransform="matrix(0,-43.53155,43.53155,0,1192.407,51.589413)"
     gradientUnits="userSpaceOnUse">
    <stop
       stop-color="#161616"
       offset="0"
       id="stop1" />
    <stop
       stop-color="#343434"
       offset="1"
       id="stop2" />
  </linearGradient>
  <g
     id="g3"
     transform="translate(3.487626,-1.843205)" />
  <rect
     style="opacity:0.2;stroke-width:0.9823"
     width="55"
     height="55.017544"
     x="3.5"
     y="3.9824562"
     rx="8.25"
     ry="8.2526312"
     id="rect1-3" />
  <rect
     style="fill:url(#linearGradient4);stroke-width:0.9823"
     width="55"
     height="55.017544"
     x="3.5"
     y="3"
     rx="8.25"
     ry="8.2526312"
     id="rect2-5" />
  <path
     style="opacity:0.1;fill:#ffffff;stroke-width:0.9823"
     d="M 11.748466,3 C 7.1779651,3 3.4999999,6.6791384 3.4999999,11.251097 v 0.982456 c 0,-4.5719585 3.6779652,-8.2510968 8.2484661,-8.2510968 h 38.503068 c 4.5705,0 8.248466,3.6791383 8.248466,8.2510968 V 11.251097 C 58.5,6.6791384 54.822034,3 50.251534,3 Z"
     id="path4-6" />
  <g
     id="g1"
     transform="translate(1.460938,-0.87695)">
    <path
       style="opacity:0.2;stroke-width:1.10824"
       d="m 41.623918,12.985234 c -1.009954,2.693667 -2.189997,5.552705 -3.536606,7.909519 H 25.66156 v 3.275071 h 4.514914 v 5.818499 c -2.1e-5,1.009954 -0.05664,2.184568 -0.168822,3.082416 h -5.454257 v 3.290219 h 5.118777 c -0.673143,5.948301 -2.974535,10.06982 -6.902232,12.987716 l 2.357015,2.523948 c 4.601107,-3.367149 7.294095,-8.328911 8.079664,-15.511664 h 6.852449 V 51.87695 h 3.365625 V 36.360958 h 6.614369 v -3.290219 h -6.614369 v -8.900915 h 5.508362 v -3.275071 h -7.309137 c 1.234375,-1.907937 2.468814,-4.429523 3.703269,-6.898641 z m -25.905556,0.101722 v 6.649712 h -5.56897 v 3.324856 h 5.56897 v 8.779691 c -2.132198,0.89798 -4.210475,1.794946 -6.6793,2.692788 l 1.179592,3.53699 c 2.019963,-0.785625 3.704185,-1.571647 5.499708,-2.357272 v 10.606638 c -2.4e-5,1.346786 -0.280852,2.019591 -0.841947,2.019591 -1.57129,0 -2.863442,-0.224262 -4.32228,-0.673197 l 0.673124,3.534821 c 1.346821,0.336688 2.584544,0.506524 4.155626,0.506524 1.346501,0 2.300199,-0.3375 2.861318,-1.010878 0.561096,-0.67348 0.770521,-1.851353 0.770521,-3.534823 V 34.031826 l 5.175052,-2.694953 -0.506467,-3.030469 v -0.0024 c -1.459056,0.673468 -3.211905,1.40289 -4.670748,2.188485 v -7.431127 h 5.542997 V 19.7365 h -5.542997 v -6.649712 z m 15.804361,0.404785 -3.365624,1.00871 c 1.234268,1.571194 2.187987,3.36761 2.861322,5.38774 l 3.534448,-1.177553 c -0.673228,-1.907933 -1.68354,-3.647622 -3.030146,-5.218897 z m 2.021535,10.678067 h 6.51481 v 8.900916 h -6.683627 c 0.112197,-0.785624 0.168796,-1.79025 0.168817,-2.5759 z"
       id="path3-3" />
    <path
       style="fill:url(#linearGradient6);stroke-width:1.10824"
       d="m 41.623918,11.87695 c -1.009954,2.693667 -2.189997,5.5527 -3.536606,7.909519 H 25.66156 v 3.27507 h 4.514914 v 5.818495 c -2.1e-5,1.009958 -0.05664,2.184577 -0.168822,3.082416 h -5.454257 v 3.290224 h 5.118777 c -0.673143,5.948301 -2.974535,10.069824 -6.902232,12.987715 l 2.357015,2.523949 c 4.601107,-3.36715 7.294095,-8.328911 8.079664,-15.511664 h 6.852449 v 15.515992 h 3.365625 V 35.252674 h 6.614369 V 31.96245 h -6.614369 v -8.900911 h 5.508362 v -3.27507 h -7.309137 c 1.234375,-1.907934 2.468814,-4.429523 3.703269,-6.898642 z m -25.905556,0.101712 v 6.649707 h -5.56897 v 3.324862 h 5.56897 v 8.779694 c -2.132198,0.897979 -4.210475,1.794945 -6.6793,2.692787 l 1.179592,3.536991 c 2.019963,-0.785625 3.704185,-1.571646 5.499708,-2.357271 v 10.606633 c -2.4e-5,1.346778 -0.280852,2.019587 -0.841947,2.019587 -1.57129,0 -2.863442,-0.224259 -4.32228,-0.673194 l 0.673124,3.534822 c 1.346821,0.336682 2.584544,0.506521 4.155626,0.506521 1.346501,0 2.300199,-0.337498 2.861318,-1.010878 0.561096,-0.673482 0.770521,-1.851355 0.770521,-3.53482 V 32.923541 l 5.175052,-2.694953 -0.506467,-3.030468 v -0.0024 c -1.459056,0.673454 -3.211905,1.402894 -4.670748,2.188491 v -7.431164 h 5.542997 V 18.628191 H 19.012561 V 11.97847 Z m 15.804361,0.404783 -3.365624,1.008712 c 1.234268,1.571194 2.187987,3.367608 2.861322,5.387739 l 3.534448,-1.177547 c -0.673228,-1.907947 -1.68354,-3.647635 -3.030146,-5.218909 z m 2.021535,10.678067 h 6.51481 v 8.900913 h -6.683627 c 0.112197,-0.785624 0.168796,-1.790245 0.168817,-2.575898 z"
       id="path4-67" />
  </g>
</svg>
