<?xml version="1.0" encoding="UTF-8" standalone="no"?>
<svg
   width="62"
   height="62"
   version="1.1"
   id="svg23"
   sodipodi:docname="icloud-photos.svg"
   inkscape:version="1.4 (e7c3feb100, 2024-10-09)"
   xmlns:inkscape="http://www.inkscape.org/namespaces/inkscape"
   xmlns:sodipodi="http://sodipodi.sourceforge.net/DTD/sodipodi-0.dtd"
   xmlns="http://www.w3.org/2000/svg"
   xmlns:svg="http://www.w3.org/2000/svg">
  <defs
     id="defs23" />
  <sodipodi:namedview
     id="namedview23"
     pagecolor="#ffffff"
     bordercolor="#000000"
     borderopacity="0.25"
     inkscape:showpageshadow="2"
     inkscape:pageopacity="0.0"
     inkscape:pagecheckerboard="0"
     inkscape:deskcolor="#d1d1d1"
     inkscape:zoom="11.75"
     inkscape:cx="32"
     inkscape:cy="32"
     inkscape:window-width="1920"
     inkscape:window-height="998"
     inkscape:window-x="0"
     inkscape:window-y="0"
     inkscape:window-maximized="1"
     inkscape:current-layer="svg23" />
  <g
     id="g24"
     transform="matrix(0.98214286,0,0,0.98245611,-0.42857152,-0.92982456)">
    <g
       id="g1">
      <path
         d="m 32,5 c -4.432,0 -8,3.567999 -8,8 v 0.6875 l -0.425781,-0.425782 c -3.133898,-3.133897 -8.178603,-3.133897 -11.3125,0 -3.133898,3.133897 -3.133898,8.178603 0,11.3125 L 12.6875,25 H 12 c -4.432,0 -8,3.567999 -8,8 0,4.432 3.568,8 8,8 h 0.773437 l -0.421875,0.421874 c -3.133897,3.133898 -3.133897,8.180556 0,11.314454 3.133898,3.133897 8.178603,3.133897 11.3125,0 L 24,52.40039 V 53 c 0,4.432 3.568,8.000002 8,8.000002 4.432,0 8,-3.568002 8,-8.000002 v -0.685547 l 0.421875,0.421875 c 3.133897,3.133897 8.180556,3.133897 11.314453,0 3.133897,-3.133898 3.133897,-8.180556 0,-11.314454 L 51.314453,41 H 52 c 4.432,0 8,-3.568 8,-8 0,-4.432001 -3.568,-8 -8,-8 h -0.689453 l 0.425781,-0.425782 c 3.133897,-3.133897 3.133897,-8.178602 0,-11.3125 -3.133897,-3.133897 -8.180556,-3.133897 -11.314453,0 L 40,13.683593 V 13 C 40,8.567999 36.432,5 32,5 Z m -0.746094,25.964843 c 0.245739,0.02254 0.49428,0.03516 0.746094,0.03516 0.251031,0 0.499144,-0.01275 0.74414,-0.03516 0.187718,0.235291 0.389358,0.463577 0.607422,0.681641 0.218815,0.218814 0.447439,0.421117 0.683594,0.609375 C 34.012734,32.500964 34,32.748854 34,33 c 0,0.250359 0.01287,0.497829 0.03516,0.742187 -0.236155,0.188258 -0.464779,0.390561 -0.683594,0.609375 -0.218814,0.218814 -0.421116,0.447439 -0.609375,0.683594 C 32.497829,35.012872 32.25036,35 32,35 31.777345,35 31.557794,35.01163 31.339844,35.0293 31.153026,34.79544 30.953147,34.568381 30.736328,34.351562 30.492672,34.107906 30.235677,33.885455 29.970703,33.679687 29.989387,33.455641 30,33.229034 30,33 c 0,-0.251814 -0.01262,-0.500355 -0.03516,-0.746094 0.23529,-0.187717 0.463576,-0.389358 0.68164,-0.607422 0.218064,-0.218064 0.419705,-0.44635 0.607422,-0.681641 z"
         style="opacity:0.2"
         id="path1" />
    </g>
    <g
       id="g23">
      <g
         transform="scale(2)"
         id="g8">
        <rect
           x="12"
           y="2"
           width="8"
           height="13"
           rx="4"
           style="fill:#ffa726"
           id="rect1" />
        <rect
           transform="rotate(90)"
           x="12"
           y="-30"
           width="8"
           height="13"
           rx="4"
           style="fill:#9ccc65"
           id="rect2" />
        <rect
           transform="rotate(90)"
           x="12"
           y="-15"
           width="8"
           height="13"
           rx="4"
           style="fill:#f06292"
           id="rect3" />
        <rect
           transform="scale(-1)"
           x="-20"
           y="-30"
           width="8"
           height="13"
           rx="4"
           style="fill:#64b5f6"
           id="rect4" />
        <rect
           transform="rotate(45)"
           x="18.62587"
           y="-13.956441"
           width="8"
           height="13"
           rx="4"
           style="fill:#fdd835"
           id="rect5" />
        <rect
           transform="rotate(135)"
           x="-4"
           y="-36.58231"
           width="8"
           height="13"
           rx="4"
           style="fill:#4db6ac"
           id="rect6" />
        <rect
           transform="matrix(-0.70710678,0.70710678,0.70710678,0.70710678,0,0)"
           x="-4"
           y="8.6694279"
           width="8"
           height="13"
           rx="4"
           style="fill:#ef5350"
           id="rect7" />
        <rect
           transform="matrix(0.70710678,0.70710678,0.70710678,-0.70710678,0,0)"
           x="18.65769"
           y="-13.924621"
           width="8"
           height="13"
           rx="4"
           style="fill:#9575cd"
           id="rect8" />
      </g>
      <path
         d="m 40.0005,12.684 -6.648438,6.648438 c -2.915816,2.915816 -3.115476,7.48273 -0.605468,10.628906 4.07945,-0.374084 7.253906,-3.780682 7.253906,-7.960938 z"
         style="fill:#fd8d08"
         id="path8" />
      <path
         d="m 39.008312,31.000406 c -1.759362,0 -3.517696,0.582344 -4.972656,1.742188 0.372138,4.081458 3.783162,7.257812 7.964844,7.257812 h 9.3125 l -6.648438,-6.648438 c -1.566948,-1.566948 -3.611296,-2.351562 -5.65625,-2.351562 z"
         style="fill:#2f9244"
         id="path9" />
      <path
         d="m 12.688,24.000406 6.644532,6.644532 c 2.915816,2.915816 7.48273,3.115476 10.628906,0.605468 -0.375888,-4.077584 -3.782006,-7.25 -7.960938,-7.25 z"
         style="fill:#e1202e"
         id="path10" />
      <path
         d="M 31.340344,34.031656 C 27.219592,34.365328 24.0005,37.79082 24.0005,42.000406 v 9.398438 l 6.734376,-6.734376 c 2.916396,-2.916396 3.117052,-7.486578 0.605468,-10.632812 z"
         style="fill:#3a53c6"
         id="path11" />
      <path
         d="m 24.000562,12.688 v 9.3125 c 0,4.178932 3.172416,7.58505 7.25,7.960938 2.510008,-3.146176 2.310348,-7.71309 -0.605468,-10.628906 z"
         style="fill:#ef360c"
         id="path12" />
      <path
         d="m 42.000562,24.0005 c -4.180256,0 -7.586854,3.174456 -7.960938,7.253906 3.146022,2.505934 7.710682,2.304944 10.625,-0.609374 L 51.309156,24.0005 Z"
         style="fill:#9bad15"
         id="path13" />
      <path
         d="m 25.078686,31.0005 c -2.044952,0 -4.0893,0.784614 -5.656248,2.351562 L 12.774,40.0005 h 9.226562 c 4.202966,0 7.625886,-3.208878 7.96875,-7.320312 C 28.530146,31.562424 26.80584,31.0005 25.078686,31.0005 Z"
         style="fill:#8c2d75"
         id="path14" />
      <path
         d="m 32.74275,34.035656 c -2.507958,3.146098 -2.30569,7.713842 0.609374,10.628906 L 40.000562,51.313 v -9.3125 c 0,-4.181682 -3.176354,-7.592706 -7.257812,-7.964844 z"
         style="fill:#1e81a6"
         id="path15" />
      <path
         d="m 39.648876,24.352 c -2.531078,0.77314 -4.5199,2.761136 -5.29297,5.29297 2.53154,-0.77313 4.519806,-2.762172 5.29297,-5.29297 z"
         style="fill:#9b7203"
         id="path16" />
      <path
         d="m 34.352,34.352 c 0.772538,2.53373 2.763884,4.523156 5.296876,5.296876 C 38.875156,37.115884 36.88573,35.124538 34.352,34.352 Z"
         style="fill:#126741"
         id="path17" />
      <path
         d="m 24.352,24.352 c 0.77279,2.530868 2.76179,4.519364 5.29297,5.29297 C 28.871364,27.11379 26.882868,25.12479 24.352,24.352 Z"
         style="fill:#e11507"
         id="path18" />
      <path
         d="m 29.64497,34.359814 c -2.530278,0.773758 -4.520108,2.759028 -5.29297,5.289062 2.53004,-0.772764 4.51876,-2.759244 5.29297,-5.289062 z"
         style="fill:#372071"
         id="path19" />
      <path
         d="m 32.000124,21.124 c -1.326268,2.395328 -1.324262,5.31797 0,7.714844 1.324262,-2.396874 1.326268,-5.319516 0,-7.714844 z"
         style="fill:#ed2e03"
         id="path20" />
      <path
         d="m 39.007936,30.999 c -1.329616,0 -2.657528,0.332986 -3.855468,0.996094 2.398448,1.327716 5.321062,1.331824 7.71875,0.004 -1.199596,-0.664966 -2.531462,-1 -3.863282,-1 z"
         style="fill:#2f7b0e"
         id="path21" />
      <path
         d="m 25.078248,30.999 c -1.348138,0 -2.695248,0.342084 -3.906248,1.023438 2.403472,1.310038 5.327838,1.292882 7.718748,-0.05078 C 27.70442,31.323946 26.392154,30.999 25.078248,30.999 Z"
         style="fill:#830f25"
         id="path22" />
      <path
         d="m 32.043092,35.073218 c -1.385226,2.43869 -1.386314,5.437058 0,7.875 1.386706,-2.438344 1.386068,-5.435996 0,-7.875 z"
         style="fill:#123b85"
         id="path23" />
    </g>
  </g>
</svg>
