<?xml version="1.0" encoding="UTF-8" standalone="no"?>
<svg
   width="62"
   height="62"
   version="1"
   id="svg7"
   sodipodi:docname="icq.svg"
   inkscape:version="1.4 (e7c3feb100, 2024-10-09)"
   xmlns:inkscape="http://www.inkscape.org/namespaces/inkscape"
   xmlns:sodipodi="http://sodipodi.sourceforge.net/DTD/sodipodi-0.dtd"
   xmlns:xlink="http://www.w3.org/1999/xlink"
   xmlns="http://www.w3.org/2000/svg"
   xmlns:svg="http://www.w3.org/2000/svg">
  <defs
     id="defs7">
    <linearGradient
       id="linearGradient7"
       inkscape:collect="always">
      <stop
         style="stop-color:#384850;stop-opacity:1;"
         offset="0"
         id="stop8" />
      <stop
         style="stop-color:#384850;stop-opacity:1;"
         offset="0.59162253"
         id="stop10" />
      <stop
         style="stop-color:#eff2f6;stop-opacity:1;"
         offset="0.92173076"
         id="stop11" />
      <stop
         style="stop-color:#eff2f6;stop-opacity:1;"
         offset="1"
         id="stop9" />
    </linearGradient>
    <linearGradient
       id="linearGradient1"
       inkscape:collect="always">
      <stop
         style="stop-color:#566c80;stop-opacity:1;"
         offset="0"
         id="stop5" />
      <stop
         style="stop-color:#566c80;stop-opacity:1;"
         offset="0.28848785"
         id="stop7" />
      <stop
         style="stop-color:#495361;stop-opacity:1;"
         offset="1"
         id="stop6" />
    </linearGradient>
    <linearGradient
       id="c-3"
       gradientUnits="userSpaceOnUse"
       x1="24.072048"
       x2="23.959682"
       y1="0.75082099"
       y2="46.056854">
      <stop
         offset="0"
         stop-color="#fff"
         id="stop3" />
      <stop
         offset="1"
         stop-color="#d9d9d9"
         id="stop4" />
    </linearGradient>
    <linearGradient
       id="b-6"
       gradientUnits="userSpaceOnUse"
       x1="29.203026"
       x2="34.121048"
       xlink:href="#a-7"
       y1="24.827356"
       y2="29.224836" />
    <linearGradient
       id="a-7">
      <stop
         offset="0"
         id="stop1" />
      <stop
         offset="1"
         stop-opacity="0"
         id="stop2" />
    </linearGradient>
    <linearGradient
       id="d"
       gradientUnits="userSpaceOnUse"
       x1="15.948756"
       x2="25.031786"
       xlink:href="#a-7"
       y1="23.618279"
       y2="33.69899" />
    <linearGradient
       id="e"
       gradientUnits="userSpaceOnUse"
       x1="21.990562"
       x2="29.320522"
       xlink:href="#a-7"
       y1="33.780373"
       y2="41.931858" />
    <linearGradient
       id="paint154_linear_890_11"
       x1="778"
       y1="812.29199"
       x2="788"
       y2="812.29199"
       gradientUnits="userSpaceOnUse"
       gradientTransform="translate(-751,-696)">
      <stop
         stop-color="#EFF2F6"
         id="stop1050" />
      <stop
         offset="0.600785"
         stop-color="#B7C6CD"
         id="stop1051" />
    </linearGradient>
    <linearGradient
       id="paint155_linear_890_11"
       x1="783"
       y1="813"
       x2="783"
       y2="817"
       gradientUnits="userSpaceOnUse"
       gradientTransform="translate(-751,-696)">
      <stop
         stop-color="#EFF2F6"
         id="stop1052" />
      <stop
         offset="0.734138"
         stop-color="#B7C6CD"
         id="stop1053" />
    </linearGradient>
    <radialGradient
       id="paint156_radial_890_11"
       cx="0"
       cy="0"
       r="1"
       gradientUnits="userSpaceOnUse"
       gradientTransform="matrix(27.999986,27.999976,-27.999986,27.999976,32.302392,33.999998)">
      <stop
         offset="0.60067803"
         stop-color="#B7C6CD"
         id="stop1054"
         style="stop-color:#384850;stop-opacity:1;" />
      <stop
         offset="0.876735"
         stop-color="#EFF2F6"
         id="stop1055" />
    </radialGradient>
    <linearGradient
       id="paint157_linear_890_11"
       x1="796.84485"
       y1="799.43359"
       x2="768.90088"
       y2="770.81476"
       gradientUnits="userSpaceOnUse"
       gradientTransform="matrix(1.1666666,0,0,1.1666668,-881.19764,-881.8333)">
      <stop
         offset="0.00000057"
         stop-color="#2E2E41"
         id="stop1056"
         style="stop-color:#495361;stop-opacity:1;" />
      <stop
         offset="0.711139"
         stop-color="#566C80"
         id="stop1057" />
    </linearGradient>
    <linearGradient
       id="paint158_linear_890_11"
       x1="792"
       y1="794"
       x2="774"
       y2="776"
       gradientUnits="userSpaceOnUse"
       gradientTransform="translate(-751,-696)">
      <stop
         offset="0.304478"
         stop-color="#2E2E41"
         id="stop1058" />
      <stop
         offset="1"
         stop-color="#566C80"
         id="stop1059" />
    </linearGradient>
    <linearGradient
       id="paint159_linear_890_11"
       x1="788"
       y1="790"
       x2="778"
       y2="780"
       gradientUnits="userSpaceOnUse"
       gradientTransform="translate(-751,-696)">
      <stop
         offset="0.391394"
         stop-color="#5200FF"
         id="stop1060" />
      <stop
         offset="1"
         stop-color="#0085FF"
         id="stop1061" />
    </linearGradient>
    <linearGradient
       id="paint160_linear_890_11"
       x1="784"
       y1="798"
       x2="782"
       y2="796"
       gradientUnits="userSpaceOnUse"
       gradientTransform="translate(-751,-696)">
      <stop
         stop-color="#FF7E07"
         id="stop1062" />
      <stop
         offset="1"
         stop-color="#FFE607"
         id="stop1063" />
    </linearGradient>
    <linearGradient
       inkscape:collect="always"
       xlink:href="#linearGradient1"
       id="linearGradient6"
       x1="17.408081"
       y1="16.037786"
       x2="49.155514"
       y2="50.137749"
       gradientUnits="userSpaceOnUse" />
    <radialGradient
       inkscape:collect="always"
       xlink:href="#linearGradient7"
       id="radialGradient9"
       cx="32.302387"
       cy="34"
       fx="32.302387"
       fy="34"
       r="28"
       gradientUnits="userSpaceOnUse"
       gradientTransform="matrix(0.99999999,1,-1,0.99999999,34,-32.302387)" />
  </defs>
  <sodipodi:namedview
     id="namedview7"
     pagecolor="#ffffff"
     bordercolor="#000000"
     borderopacity="0.25"
     inkscape:showpageshadow="2"
     inkscape:pageopacity="0.0"
     inkscape:pagecheckerboard="0"
     inkscape:deskcolor="#d1d1d1"
     inkscape:zoom="8.3306018"
     inkscape:cx="35.111509"
     inkscape:cy="40.573299"
     inkscape:window-width="1920"
     inkscape:window-height="994"
     inkscape:window-x="0"
     inkscape:window-y="0"
     inkscape:window-maximized="1"
     inkscape:current-layer="svg7" />
  <g
     id="g1"
     transform="translate(-1.3023872,-3)">
    <path
       d="m 60.302387,34 c 0,15.46415 -12.535828,28 -28.000002,28 C 16.838222,62 4.3023873,49.46415 4.3023873,34 4.3023873,18.535835 16.838222,6 32.302385,6 47.766559,6 60.302387,18.535835 60.302387,34 Z"
       id="path154"
       style="fill:url(#radialGradient9)" />
    <path
       d="m 55.63572,34 c 0,12.88701 -10.446332,23.33332 -23.333335,23.33332 C 19.415386,57.33332 8.9690543,46.88701 8.9690543,34 c 0,-12.886994 10.4463317,-23.333332 23.3333307,-23.333332 12.887003,0 23.333335,10.446338 23.333335,23.333332 z"
       id="path155"
       style="fill:url(#linearGradient6)" />
  </g>
  <g
     id="g2"
     transform="translate(1.6353077,0.39370624)">
    <path
       style="opacity:0.2;stroke-width:0.999999"
       d="m 27.20281,13.533745 c -0.191009,-0.0072 -0.383445,-0.0032 -0.578232,0.01082 -3.116591,0.221062 -5.470681,3.032054 -5.259333,6.281217 0.07143,1.099814 0.425971,2.108395 0.987045,2.953109 l 2.603886,3.998774 c 0.49853,0.969173 1.508629,1.593935 2.629666,1.514419 1.064617,-0.07544 1.947908,-0.767538 2.349759,-1.719947 l 2.16929,-4.568485 -0.01105,0.0039 C 32.51243,21.111801 32.719263,20.09373 32.649977,19.028926 32.45193,15.98284 30.06794,13.633364 27.202811,13.533759 Z m 12.566417,7.380972 c -0.805134,-0.01583 -1.625693,0.1368 -2.419736,0.468748 -1.091914,0.456576 -1.991179,1.198371 -2.648081,2.112972 l -3.22263,4.301654 c -0.03749,0.04714 -0.0757,0.09509 -0.11049,0.144231 l -0.01474,0.02164 h 0.0037 C 30.766137,28.814755 30.595691,29.952506 31,31 c 0.441689,1.144389 1.449142,1.87449 2.552323,1.975949 v -0.0039 l 5.2667,0.811292 -0.0078,-0.0078 c 1.036591,0.151883 2.126809,0.03107 3.167388,-0.403842 3.176067,-1.327809 4.714264,-5.090027 3.436246,-8.401396 -0.958713,-2.483221 -3.230643,-4.009111 -5.646028,-4.056411 z m -21.737103,3.695894 c -2.300448,-0.09462 -4.431871,1.323908 -5.01625,3.48676 -0.667878,2.471723 0.939569,4.979315 3.590921,5.599728 0.868554,0.203268 1.742283,0.179121 2.546805,-0.03246 l 3.990537,-1.07812 c 0.901037,-0.158209 1.665459,-0.789811 1.904114,-1.673065 0.228218,-0.844504 -0.0829,-1.697463 -0.73476,-2.239168 l -3.060578,-2.783642 v 0.0078 c -0.601276,-0.540516 -1.357942,-0.950717 -2.226377,-1.153981 -0.331435,-0.07756 -0.66578,-0.119899 -0.994412,-0.133414 z m 7.671703,9.227113 c -0.580101,4.56e-4 -1.155267,0.155295 -1.653671,0.447113 l -4.927861,2.487962 0.0073,0.0039 c -0.968587,0.497697 -1.820811,1.240798 -2.445509,2.203111 -1.906741,2.937475 -0.98452,6.814008 2.058799,8.661016 3.043414,1.847001 7.057597,0.965125 8.964431,-1.972351 0.651247,-1.003303 0.971106,-2.115565 0.990729,-3.219933 l 0.165751,-5.116696 c 0.160733,-1.159155 -0.373114,-2.358495 -1.465837,-3.02169 -0.527944,-0.32032 -1.114083,-0.472804 -1.694181,-0.472349 z m 7.531747,0.930278 c -0.494069,0.03527 -0.982095,0.212762 -1.406909,0.548075 -0.825314,0.651642 -1.182835,1.714577 -1.00546,2.707923 l 0.541402,4.763195 0.0073,-0.0039 c 0.11382,0.94016 0.456187,1.862065 1.042291,2.671862 1.789995,2.47357 5.166554,2.961861 7.539116,1.088937 2.372655,-1.872916 2.843426,-5.397765 1.053336,-7.871344 -0.618065,-0.85387 -1.423572,-1.470199 -2.312925,-1.835205 L 34.668263,35.08891 C 34.228658,34.842082 33.72964,34.732689 33.235574,34.768002 Z"
       id="path2" />
    <path
       style="fill:#39e11e;stroke-width:0.999999"
       d="m 27.20281,12.609806 c -0.191009,-0.0072 -0.383445,-0.0032 -0.578232,0.01082 -3.116591,0.221064 -5.470681,3.032047 -5.259333,6.281215 0.07143,1.099817 0.425971,2.108396 0.987045,2.953108 l 2.603886,3.998778 c 0.49853,0.969169 1.508629,1.593933 2.629666,1.514417 1.064617,-0.07544 1.947908,-0.767539 2.349759,-1.719948 l 2.16929,-4.568482 -0.01105,0.0039 c 0.418587,-0.895698 0.62542,-1.913769 0.556133,-2.978571 -0.198046,-3.046084 -2.582036,-5.395563 -5.447166,-5.495162 z m 12.566417,7.380969 c -0.805134,-0.01583 -1.625693,0.136798 -2.419736,0.468749 -1.091914,0.456573 -1.991179,1.198369 -2.648081,2.112967 l -3.22263,4.301654 c -0.03749,0.04714 -0.0757,0.0951 -0.11049,0.144233 l -0.01474,0.02164 h 0.0037 C 30.766137,27.890817 30.595691,29.028566 31,30.076061 c 0.441689,1.144391 1.449142,1.87449 2.552323,1.975949 v -0.0039 l 5.2667,0.811301 -0.0078,-0.0078 c 1.036591,0.151882 2.126809,0.03107 3.167388,-0.403845 3.176067,-1.327805 4.714264,-5.090025 3.436246,-8.401394 -0.958736,-2.483301 -3.230666,-4.009183 -5.646049,-4.056493 z m -21.737103,3.695889 c -2.300448,-0.09462 -4.431871,1.323914 -5.01625,3.486767 -0.667878,2.471724 0.939569,4.979313 3.590921,5.599729 0.868554,0.203263 1.742283,0.179113 2.546805,-0.03246 l 3.990537,-1.078124 c 0.901037,-0.158213 1.665459,-0.789808 1.904114,-1.673066 0.228218,-0.844504 -0.0829,-1.697467 -0.73476,-2.23917 l -3.060578,-2.783638 v 0.0078 c -0.601276,-0.540507 -1.357942,-0.95071 -2.226377,-1.153975 -0.331435,-0.07753 -0.66578,-0.119899 -0.994412,-0.133417 z m 7.671703,9.227118 c -0.580101,4.57e-4 -1.155267,0.155295 -1.653671,0.447112 l -4.927861,2.487965 0.0073,0.0039 c -0.968587,0.497691 -1.820811,1.240794 -2.445509,2.20311 -1.906741,2.937472 -0.98452,6.814008 2.058799,8.66101 3.043414,1.847006 7.057597,0.965126 8.964431,-1.972346 0.651247,-1.003312 0.971106,-2.115574 0.990729,-3.219944 l 0.165747,-5.116678 c 0.160744,-1.159156 -0.373103,-2.358489 -1.465826,-3.021685 -0.527944,-0.32032 -1.114083,-0.47281 -1.694182,-0.472349 z m 7.531747,0.93028 c -0.494069,0.03526 -0.982095,0.21276 -1.406909,0.548074 -0.825314,0.651636 -1.182835,1.714578 -1.00546,2.707919 l 0.541402,4.763196 0.0073,-0.0039 c 0.11382,0.940163 0.456187,1.862071 1.042291,2.67186 1.789995,2.473577 5.166554,2.961866 7.539116,1.088941 2.372655,-1.872926 2.843426,-5.397778 1.053336,-7.871352 -0.618012,-0.853957 -1.423519,-1.470285 -2.312873,-1.835293 L 34.668263,34.164966 C 34.228658,33.918137 33.72964,33.808747 33.235574,33.844062 Z"
       id="path3" />
    <path
       style="opacity:0.2;fill:#ffffff;stroke-width:0.999999"
       d="m 27.20281,12.609806 c -0.191009,-0.0072 -0.383445,-0.0032 -0.578232,0.01082 -3.116591,0.221064 -5.470681,3.032047 -5.259333,6.281215 0.0018,0.02586 0.0072,0.04998 0.0092,0.07573 0.208004,-2.87595 2.409069,-5.232342 5.250125,-5.433863 0.194787,-0.01372 0.387223,-0.01742 0.578232,-0.01082 2.844463,0.09888 5.211962,2.416204 5.439799,5.430257 0.02093,-0.282187 0.02629,-0.567469 0.0073,-0.858169 -0.198027,-3.046091 -2.582018,-5.395569 -5.447147,-5.495169 z m 12.566417,7.380969 c -0.805134,-0.01583 -1.625693,0.136798 -2.419736,0.468749 -1.091914,0.456573 -1.991179,1.198369 -2.648081,2.112967 l -3.22263,4.301654 c -0.03749,0.04714 -0.0757,0.0951 -0.11049,0.144233 l -0.01474,0.02164 h 0.0037 c -0.457991,0.659201 -0.658298,1.490228 -0.539556,2.318501 0.07175,-0.502724 0.253844,-0.984193 0.53956,-1.395425 h -0.0037 l 0.01474,-0.02164 c 0.03478,-0.04911 0.073,-0.09711 0.110491,-0.144229 l 3.222628,-4.301662 c 0.6569,-0.914595 1.556166,-1.656394 2.64808,-2.112967 0.794042,-0.331947 1.614601,-0.484515 2.419735,-0.468745 2.415385,0.04734 4.68731,1.573191 5.646051,4.056466 0.241444,0.625597 0.380708,1.267317 0.429067,1.905633 0.05889,-0.936488 -0.07045,-1.899463 -0.429067,-2.828703 -0.95874,-2.483278 -3.230666,-4.009172 -5.646051,-4.05647 z m -21.737103,3.695889 c -2.300448,-0.09462 -4.431871,1.323914 -5.01625,3.486767 -0.145022,0.536668 -0.176622,1.073367 -0.11971,1.593741 0.02407,-0.222705 0.05934,-0.447136 0.11971,-0.670673 0.584379,-2.162851 2.715802,-3.581339 5.01625,-3.486759 0.328632,0.01347 0.662977,0.05583 0.994412,0.133414 0.868435,0.203262 1.625101,0.613464 2.226377,1.153835 v -0.0078 l 3.060578,2.783635 c 0.39553,0.328689 0.645547,0.777361 0.745809,1.263816 0.201749,-0.827216 -0.107422,-1.656336 -0.745809,-2.186848 L 21.252913,24.96625 v 0.0078 c -0.601276,-0.540366 -1.357942,-0.950571 -2.226377,-1.153837 -0.331435,-0.07754 -0.66578,-0.1199 -0.994412,-0.133414 z m 7.671703,9.227118 c -0.580101,4.57e-4 -1.155267,0.155295 -1.653671,0.447112 l -4.927861,2.487965 0.0073,0.0039 c -0.968587,0.497691 -1.820811,1.240794 -2.445509,2.20311 -0.759998,1.170833 -1.062691,2.490387 -0.968631,3.771614 0.07779,-0.980517 0.390522,-1.957931 0.968631,-2.848542 0.624698,-0.962315 1.476922,-1.705418 2.445509,-2.20311 l -0.0073,-0.0039 4.927861,-2.48797 c 0.498404,-0.291812 1.07357,-0.446653 1.653671,-0.447113 0.580098,-4.55e-4 1.166237,0.152036 1.694181,0.472357 0.834903,0.50671 1.340306,1.327506 1.462155,2.203113 l 0.0037,-0.104574 c 0.160739,-1.159083 -0.373108,-2.358417 -1.465831,-3.021613 -0.527945,-0.32032 -1.114083,-0.47281 -1.694182,-0.472347 z m 7.531747,0.93028 c -0.494069,0.03527 -0.982095,0.21276 -1.406909,0.548074 -0.817366,0.645362 -1.174613,1.694015 -1.009143,2.679072 0.106378,-0.674555 0.446225,-1.311537 1.009143,-1.755998 0.424814,-0.335314 0.91284,-0.512756 1.406909,-0.548073 0.494066,-0.03526 0.993084,0.07399 1.432689,0.320908 l 4.025526,1.748789 c 0.889352,0.36501 1.694859,0.981337 2.312923,1.835326 0.635734,0.878466 0.981039,1.890878 1.062551,2.913444 0.103257,-1.325668 -0.235079,-2.693103 -1.062551,-3.836513 -0.618064,-0.853995 -1.423571,-1.470318 -2.312923,-1.835322 L 34.668263,34.164975 C 34.228658,33.918137 33.72964,33.808747 33.235574,33.844062 Z"
       id="path5" />
  </g>
</svg>
