<?xml version="1.0" encoding="UTF-8" standalone="no"?>
<svg
   width="62"
   height="62"
   version="1.1"
   id="svg7"
   sodipodi:docname="kaidan.svg"
   inkscape:version="1.4 (e7c3feb100, 2024-10-09)"
   xmlns:inkscape="http://www.inkscape.org/namespaces/inkscape"
   xmlns:sodipodi="http://sodipodi.sourceforge.net/DTD/sodipodi-0.dtd"
   xmlns:xlink="http://www.w3.org/1999/xlink"
   xmlns="http://www.w3.org/2000/svg"
   xmlns:svg="http://www.w3.org/2000/svg">
  <defs
     id="defs7">
    <linearGradient
       id="linearGradient7"
       inkscape:collect="always">
      <stop
         style="stop-color:#b7c6cd;stop-opacity:1;"
         offset="0"
         id="stop7" />
      <stop
         style="stop-color:#f0f2f5;stop-opacity:1;"
         offset="1"
         id="stop8" />
    </linearGradient>
    <linearGradient
       inkscape:collect="always"
       xlink:href="#linearGradient7"
       id="linearGradient8"
       x1="32"
       y1="23"
       x2="32"
       y2="17"
       gradientUnits="userSpaceOnUse" />
    <linearGradient
       inkscape:collect="always"
       xlink:href="#linearGradient7"
       id="linearGradient10"
       x1="30.457253"
       y1="35"
       x2="30.336557"
       y2="29"
       gradientUnits="userSpaceOnUse" />
    <linearGradient
       inkscape:collect="always"
       xlink:href="#linearGradient7"
       id="linearGradient12"
       x1="37"
       y1="47"
       x2="37"
       y2="41"
       gradientUnits="userSpaceOnUse" />
    <linearGradient
       inkscape:collect="always"
       xlink:href="#linearGradient7"
       id="linearGradient14"
       x1="19"
       y1="47"
       x2="19"
       y2="41"
       gradientUnits="userSpaceOnUse" />
  </defs>
  <sodipodi:namedview
     id="namedview7"
     pagecolor="#ffffff"
     bordercolor="#000000"
     borderopacity="0.25"
     inkscape:showpageshadow="2"
     inkscape:pageopacity="0.0"
     inkscape:pagecheckerboard="0"
     inkscape:deskcolor="#d1d1d1"
     inkscape:zoom="11.75"
     inkscape:cx="32"
     inkscape:cy="32"
     inkscape:window-width="1920"
     inkscape:window-height="998"
     inkscape:window-x="0"
     inkscape:window-y="0"
     inkscape:window-maximized="1"
     inkscape:current-layer="svg7" />
  <g
     id="g7"
     transform="matrix(0.98214286,0,0,0.98245614,-0.42857152,-0.92982455)">
    <path
       style="opacity:0.2"
       d="M 32,5 C 16.536105,5 4,17.535859 4,33 c 0,3.554414 0.6865924,6.941942 1.8945312,10.070312 l -0.066406,-0.03516 c 0.720599,1.972336 1.3013714,3.946398 1.5507812,5.585938 0.2491628,1.639296 -0.3958644,2.944884 -0.6914062,4.046874 -0.2952952,1.101992 -0.6608324,1.99997 -0.9726562,2.875 -0.311577,0.875278 -0.568832,1.727516 0.136718,2.507814 0.7055508,0.780548 2.371892,1.489258 5.453125,2.03125 C 14.385922,60.623778 18.882467,61 22.804688,61 H 32 C 47.463894,61 60,48.463894 60,33 60,17.535859 47.463894,5 32,5 Z"
       id="path1" />
    <path
       style="fill:#1ba97f"
       d="M 37.536724,58.311118 C 36.16608,58.621956 34.38489,60 32,60 29.2,60 26.4,60 22.806256,60 18.884036,60 14.385781,59.624036 11.304547,59.08229 8.2233136,58.540298 6.5578686,57.833022 5.852318,57.052474 5.1467674,56.272176 5.4013576,55.418854 5.7129346,54.543576 6.0247584,53.668546 6.393569,52.771312 6.6888642,51.66932 6.984406,50.56733 7.6267284,49.260334 7.3775656,47.621038 7.1281558,45.981498 6.5472606,44.00941 5.8266616,42.037074"
       id="path2" />
    <path
       style="fill:#1ba97f"
       d="M 60,32 C 60,47.463894 47.463894,60 32,60 16.536105,60 4,47.463894 4,32 4,16.535859 16.536105,4 32,4 47.463894,4 60,16.535859 60,32 Z"
       id="path3" />
    <path
       style="opacity:0.2"
       d="M 19.328125,18 C 17.484,18 16,19.338 16,21 c 0,1.662 1.484,3 3.328125,3 H 44.671876 C 46.516,24 48,22.662 48,21 48,19.338 46.516,18 44.671876,18 Z M 15.277344,30 C 13.462146,30 12,31.338 12,33 c 0,1.662 1.462146,3 3.277344,3 H 48.722656 C 50.537854,36 52,34.662 52,33 52,31.338 50.537854,30 48.722656,30 Z M 19,42 c -1.662,0 -3,1.338 -3,3 0,1.662 1.338,3 3,3 1.662,0 3,-1.338 3,-3 0,-1.662 -1.338,-3 -3,-3 z m 10.171876,0 C 27.414938,42 26,43.338 26,45 c 0,1.662 1.414938,3 3.171876,3 H 44.828124 C 46.585062,48 48,46.662 48,45 48,43.338 46.585062,42 44.828124,42 Z"
       id="path4" />
    <rect
       style="fill:url(#linearGradient8)"
       width="32"
       height="6"
       x="16"
       y="17"
       rx="3.329"
       ry="3"
       id="rect4" />
    <rect
       style="fill:url(#linearGradient10)"
       width="40"
       height="6"
       x="12"
       y="29"
       rx="3.277"
       ry="3"
       id="rect5" />
    <rect
       style="fill:url(#linearGradient12)"
       width="22"
       height="6"
       x="26"
       y="41"
       rx="3.171"
       ry="3"
       id="rect6" />
    <rect
       style="fill:url(#linearGradient14)"
       width="6"
       height="6"
       x="16"
       y="41"
       rx="3"
       ry="3"
       id="rect7" />
    <path
       style="opacity:0.2;fill:#ffffff"
       d="M 32,4 C 16.536105,4 4,16.535859 4,32 4,32.113405 4.011293,32.224106 4.017578,32.335938 4.37139,17.179506 16.758743,5 32,5 47.241256,5 59.62861,17.179506 59.982422,32.335938 59.988707,32.224106 60,32.113405 60,32 60,16.535859 47.463894,4 32,4 Z"
       id="path7" />
  </g>
</svg>
