<?xml version="1.0" encoding="UTF-8" standalone="no"?>
<svg
   width="62"
   height="62"
   version="1"
   id="svg7"
   sodipodi:docname="im.vector.svg"
   inkscape:version="1.4 (e7c3feb100, 2024-10-09)"
   xmlns:inkscape="http://www.inkscape.org/namespaces/inkscape"
   xmlns:sodipodi="http://sodipodi.sourceforge.net/DTD/sodipodi-0.dtd"
   xmlns:xlink="http://www.w3.org/1999/xlink"
   xmlns="http://www.w3.org/2000/svg"
   xmlns:svg="http://www.w3.org/2000/svg">
  <defs
     id="defs7">
    <linearGradient
       id="linearGradient7"
       inkscape:collect="always">
      <stop
         style="stop-color:#384850;stop-opacity:1;"
         offset="0"
         id="stop8" />
      <stop
         style="stop-color:#384850;stop-opacity:1;"
         offset="0.59162253"
         id="stop10" />
      <stop
         style="stop-color:#eff2f6;stop-opacity:1;"
         offset="0.92173076"
         id="stop11" />
      <stop
         style="stop-color:#eff2f6;stop-opacity:1;"
         offset="1"
         id="stop9" />
    </linearGradient>
    <linearGradient
       id="linearGradient1"
       inkscape:collect="always">
      <stop
         style="stop-color:#00aa44;stop-opacity:1"
         offset="0"
         id="stop5" />
      <stop
         style="stop-color:#00aa44;stop-opacity:1"
         offset="0.28848785"
         id="stop7" />
      <stop
         style="stop-color:#55d400;stop-opacity:1"
         offset="1"
         id="stop6" />
    </linearGradient>
    <linearGradient
       id="c-3"
       gradientUnits="userSpaceOnUse"
       x1="24.072048"
       x2="23.959682"
       y1="0.75082099"
       y2="46.056854">
      <stop
         offset="0"
         stop-color="#fff"
         id="stop3" />
      <stop
         offset="1"
         stop-color="#d9d9d9"
         id="stop4" />
    </linearGradient>
    <linearGradient
       id="b-6"
       gradientUnits="userSpaceOnUse"
       x1="29.203026"
       x2="34.121048"
       xlink:href="#a-7"
       y1="24.827356"
       y2="29.224836" />
    <linearGradient
       id="a-7">
      <stop
         offset="0"
         id="stop1" />
      <stop
         offset="1"
         stop-opacity="0"
         id="stop2" />
    </linearGradient>
    <linearGradient
       id="d"
       gradientUnits="userSpaceOnUse"
       x1="15.948756"
       x2="25.031786"
       xlink:href="#a-7"
       y1="23.618279"
       y2="33.69899" />
    <linearGradient
       id="e"
       gradientUnits="userSpaceOnUse"
       x1="21.990562"
       x2="29.320522"
       xlink:href="#a-7"
       y1="33.780373"
       y2="41.931858" />
    <linearGradient
       id="paint154_linear_890_11"
       x1="778"
       y1="812.29199"
       x2="788"
       y2="812.29199"
       gradientUnits="userSpaceOnUse"
       gradientTransform="translate(-751,-696)">
      <stop
         stop-color="#EFF2F6"
         id="stop1050" />
      <stop
         offset="0.600785"
         stop-color="#B7C6CD"
         id="stop1051" />
    </linearGradient>
    <linearGradient
       id="paint155_linear_890_11"
       x1="783"
       y1="813"
       x2="783"
       y2="817"
       gradientUnits="userSpaceOnUse"
       gradientTransform="translate(-751,-696)">
      <stop
         stop-color="#EFF2F6"
         id="stop1052" />
      <stop
         offset="0.734138"
         stop-color="#B7C6CD"
         id="stop1053" />
    </linearGradient>
    <radialGradient
       id="paint156_radial_890_11"
       cx="0"
       cy="0"
       r="1"
       gradientUnits="userSpaceOnUse"
       gradientTransform="matrix(27.999986,27.999976,-27.999986,27.999976,32.302392,33.999998)">
      <stop
         offset="0.60067803"
         stop-color="#B7C6CD"
         id="stop1054"
         style="stop-color:#384850;stop-opacity:1;" />
      <stop
         offset="0.876735"
         stop-color="#EFF2F6"
         id="stop1055" />
    </radialGradient>
    <linearGradient
       id="paint157_linear_890_11"
       x1="796.84485"
       y1="799.43359"
       x2="768.90088"
       y2="770.81476"
       gradientUnits="userSpaceOnUse"
       gradientTransform="matrix(1.1666666,0,0,1.1666668,-881.19764,-881.8333)">
      <stop
         offset="0.00000057"
         stop-color="#2E2E41"
         id="stop1056"
         style="stop-color:#495361;stop-opacity:1;" />
      <stop
         offset="0.711139"
         stop-color="#566C80"
         id="stop1057" />
    </linearGradient>
    <linearGradient
       id="paint158_linear_890_11"
       x1="792"
       y1="794"
       x2="774"
       y2="776"
       gradientUnits="userSpaceOnUse"
       gradientTransform="translate(-751,-696)">
      <stop
         offset="0.304478"
         stop-color="#2E2E41"
         id="stop1058" />
      <stop
         offset="1"
         stop-color="#566C80"
         id="stop1059" />
    </linearGradient>
    <linearGradient
       id="paint159_linear_890_11"
       x1="788"
       y1="790"
       x2="778"
       y2="780"
       gradientUnits="userSpaceOnUse"
       gradientTransform="translate(-751,-696)">
      <stop
         offset="0.391394"
         stop-color="#5200FF"
         id="stop1060" />
      <stop
         offset="1"
         stop-color="#0085FF"
         id="stop1061" />
    </linearGradient>
    <linearGradient
       id="paint160_linear_890_11"
       x1="784"
       y1="798"
       x2="782"
       y2="796"
       gradientUnits="userSpaceOnUse"
       gradientTransform="translate(-751,-696)">
      <stop
         stop-color="#FF7E07"
         id="stop1062" />
      <stop
         offset="1"
         stop-color="#FFE607"
         id="stop1063" />
    </linearGradient>
    <linearGradient
       inkscape:collect="always"
       xlink:href="#linearGradient1"
       id="linearGradient6"
       x1="17.408081"
       y1="16.037786"
       x2="49.155514"
       y2="50.137749"
       gradientUnits="userSpaceOnUse" />
    <radialGradient
       inkscape:collect="always"
       xlink:href="#linearGradient7"
       id="radialGradient9"
       cx="32.302387"
       cy="34"
       fx="32.302387"
       fy="34"
       r="28"
       gradientUnits="userSpaceOnUse"
       gradientTransform="matrix(0.99999999,1,-1,0.99999999,34,-32.302387)" />
  </defs>
  <sodipodi:namedview
     id="namedview7"
     pagecolor="#ffffff"
     bordercolor="#000000"
     borderopacity="0.25"
     inkscape:showpageshadow="2"
     inkscape:pageopacity="0.0"
     inkscape:pagecheckerboard="0"
     inkscape:deskcolor="#d1d1d1"
     inkscape:zoom="8.3306018"
     inkscape:cx="35.111509"
     inkscape:cy="50.176447"
     inkscape:window-width="1920"
     inkscape:window-height="994"
     inkscape:window-x="0"
     inkscape:window-y="0"
     inkscape:window-maximized="1"
     inkscape:current-layer="svg7" />
  <g
     id="g1"
     transform="translate(-1.3023872,-3)">
    <path
       d="m 60.302387,34 c 0,15.46415 -12.535828,28 -28.000002,28 C 16.838222,62 4.3023873,49.46415 4.3023873,34 4.3023873,18.535835 16.838222,6 32.302385,6 47.766559,6 60.302387,18.535835 60.302387,34 Z"
       id="path154"
       style="fill:url(#radialGradient9)" />
    <path
       d="m 55.63572,34 c 0,12.88701 -10.446332,23.33332 -23.333335,23.33332 C 19.415386,57.33332 8.9690543,46.88701 8.9690543,34 c 0,-12.886994 10.4463317,-23.333332 23.3333307,-23.333332 12.887003,0 23.333335,10.446338 23.333335,23.333332 z"
       id="path155"
       style="fill:url(#linearGradient6)" />
  </g>
  <g
     id="g2"
     transform="translate(0.723146,0.691365)">
    <path
       d="m 35.01278,13.916394 a 4.6979496,4.7001203 0 0 1 -0.702265,2.392247 l 6.910619,3.995702 a 4.6798537,4.682016 0 0 1 1.301128,-2.047421 z m -9.387922,0.07328 -7.548257,4.362078 a 4.6798537,4.682016 0 0 1 1.206344,1.991385 l 7.022628,-4.060346 a 4.6979496,4.7001203 0 0 1 -0.680715,-2.293117 z m -9.461169,12.185369 a 4.6798537,4.682016 0 0 1 -1.357132,0.202598 4.6798537,4.682016 0 0 1 -0.827208,-0.07325 v 8.465533 a 4.6798537,4.682016 0 0 1 0.827208,-0.0776 4.6798537,4.682016 0 0 1 1.357132,0.202593 v -8.719846 z m 28.241325,0.02162 v 8.676743 a 4.6798537,4.682016 0 0 1 1.283894,-0.181029 4.6798537,4.682016 0 0 1 1.094323,0.137935 v -8.586228 a 4.6798537,4.682016 0 0 1 -1.094323,0.133643 4.6798537,4.682016 0 0 1 -1.283894,-0.181029 z M 19.390652,40.321629 a 4.6798537,4.682016 0 0 1 -0.909064,1.943964 l 7.169116,4.142257 A 4.6798537,4.682016 0 0 1 26.3702,44.356112 Z m 21.727084,0.03879 -6.876155,3.974141 a 4.6798537,4.682016 0 0 1 0.732424,2.155177 l 7.126037,-4.116376 a 4.6798537,4.682016 0 0 1 -0.982306,-2.012928 z"
       style="color:#000000;clip-rule:nonzero;display:inline;overflow:visible;visibility:visible;opacity:0.5;isolation:auto;mix-blend-mode:normal;color-interpolation:sRGB;color-interpolation-filters:linearRGB;solid-color:#000000;solid-opacity:1;fill:#ffffff;fill-opacity:1;fill-rule:nonzero;stroke:none;stroke-width:0.884604;stroke-linecap:butt;stroke-linejoin:miter;stroke-miterlimit:4;stroke-dasharray:none;stroke-dashoffset:0;stroke-opacity:1;marker:none;color-rendering:auto;image-rendering:auto;shape-rendering:auto;text-rendering:auto;enable-background:accumulate"
       id="path23-9-5" />
    <path
       d="m 30.217573,10.308629 a 3.3088235,3.3103521 0 0 0 -3.308829,3.310354 3.3088235,3.3103521 0 0 0 3.308829,3.310347 3.3088235,3.3103521 0 0 0 3.308821,-3.310347 3.3088235,3.3103521 0 0 0 -3.308821,-3.310354 z m -0.07756,2.206905 a 1.1029406,1.1034512 0 0 1 0.07756,0 1.1029406,1.1034512 0 0 1 1.102935,1.103449 1.1029406,1.1034512 0 0 1 -1.102935,1.103448 1.1029406,1.1034512 0 0 1 -1.102945,-1.103448 1.1029406,1.1034512 0 0 1 1.025392,-1.103449 z"
       style="color:#000000;clip-rule:nonzero;display:inline;overflow:visible;visibility:visible;opacity:0.5;isolation:auto;mix-blend-mode:normal;color-interpolation:sRGB;color-interpolation-filters:linearRGB;solid-color:#000000;solid-opacity:1;fill:#ffffff;fill-opacity:1;fill-rule:nonzero;stroke:none;stroke-width:0.884604;stroke-linecap:butt;stroke-linejoin:miter;stroke-miterlimit:4;stroke-dasharray:none;stroke-dashoffset:0;stroke-opacity:1;marker:none;color-rendering:auto;image-rendering:auto;shape-rendering:auto;text-rendering:auto;enable-background:accumulate"
       id="path25-3-3" />
    <path
       style="color:#000000;clip-rule:nonzero;display:inline;overflow:visible;visibility:visible;opacity:0.5;isolation:auto;mix-blend-mode:normal;color-interpolation:sRGB;color-interpolation-filters:linearRGB;solid-color:#000000;solid-opacity:1;fill:#ffffff;fill-opacity:1;fill-rule:nonzero;stroke:none;stroke-width:0.884604;stroke-linecap:butt;stroke-linejoin:miter;stroke-miterlimit:4;stroke-dasharray:none;stroke-dashoffset:0;stroke-opacity:1;marker:none;color-rendering:auto;image-rendering:auto;shape-rendering:auto;text-rendering:auto;enable-background:accumulate"
       d="m 45.718025,35.959583 a 3.3088235,3.3103521 0 0 0 -3.30882,3.310353 3.3088235,3.3103521 0 0 0 3.30882,3.310348 3.3088235,3.3103521 0 0 0 3.308829,-3.310348 3.3088235,3.3103521 0 0 0 -3.308829,-3.310353 z m -0.07756,2.206899 a 1.1029406,1.1034512 0 0 1 0.07756,0 1.1029406,1.1034512 0 0 1 1.102946,1.103454 1.1029406,1.1034512 0 0 1 -1.102946,1.103449 1.1029406,1.1034512 0 0 1 -1.102936,-1.103449 1.1029406,1.1034512 0 0 1 1.025385,-1.103454 z"
       id="path27-6-5" />
    <path
       d="m 45.718025,18.281203 a 3.3088235,3.3103521 0 0 0 -3.30882,3.310348 3.3088235,3.3103521 0 0 0 3.30882,3.310354 3.3088235,3.3103521 0 0 0 3.308829,-3.310354 3.3088235,3.3103521 0 0 0 -3.308829,-3.310348 z m -0.07756,2.206899 a 1.1029406,1.1034512 0 0 1 0.07756,0 1.1029406,1.1034512 0 0 1 1.102946,1.103449 1.1029406,1.1034512 0 0 1 -1.102946,1.103449 1.1029406,1.1034512 0 0 1 -1.102936,-1.103449 1.1029406,1.1034512 0 0 1 1.025385,-1.103449 z"
       style="color:#000000;clip-rule:nonzero;display:inline;overflow:visible;visibility:visible;isolation:auto;mix-blend-mode:normal;color-interpolation:sRGB;color-interpolation-filters:linearRGB;solid-color:#000000;solid-opacity:1;fill:#ffffff;fill-opacity:1;fill-rule:nonzero;stroke:none;stroke-width:0.884604;stroke-linecap:butt;stroke-linejoin:miter;stroke-miterlimit:4;stroke-dasharray:none;stroke-dashoffset:0;stroke-opacity:1;marker:none;color-rendering:auto;image-rendering:auto;shape-rendering:auto;text-rendering:auto;enable-background:accumulate"
       id="path31-6-2" />
    <path
       d="m 14.835675,35.959583 a 3.3088235,3.3103521 0 0 0 -3.308821,3.310353 3.3088235,3.3103521 0 0 0 3.308821,3.310348 3.3088235,3.3103521 0 0 0 3.308822,-3.310348 3.3088235,3.3103521 0 0 0 -3.308822,-3.310353 z m -0.07756,2.206899 a 1.1029406,1.1034512 0 0 1 0.07756,0 1.1029406,1.1034512 0 0 1 1.102943,1.103454 1.1029406,1.1034512 0 0 1 -1.102943,1.103449 1.1029406,1.1034512 0 0 1 -1.102942,-1.103449 1.1029406,1.1034512 0 0 1 1.025396,-1.103454 z"
       style="color:#000000;clip-rule:nonzero;display:inline;overflow:visible;visibility:visible;opacity:0.5;isolation:auto;mix-blend-mode:normal;color-interpolation:sRGB;color-interpolation-filters:linearRGB;solid-color:#000000;solid-opacity:1;fill:#ffffff;fill-opacity:1;fill-rule:nonzero;stroke:none;stroke-width:0.884604;stroke-linecap:butt;stroke-linejoin:miter;stroke-miterlimit:4;stroke-dasharray:none;stroke-dashoffset:0;stroke-opacity:1;marker:none;color-rendering:auto;image-rendering:auto;shape-rendering:auto;text-rendering:auto;enable-background:accumulate"
       id="path33-2-9" />
    <path
       style="color:#000000;clip-rule:nonzero;display:inline;overflow:visible;visibility:visible;isolation:auto;mix-blend-mode:normal;color-interpolation:sRGB;color-interpolation-filters:linearRGB;solid-color:#000000;solid-opacity:1;fill:#ffffff;fill-opacity:1;fill-rule:nonzero;stroke:none;stroke-width:0.884604;stroke-linecap:butt;stroke-linejoin:miter;stroke-miterlimit:4;stroke-dasharray:none;stroke-dashoffset:0;stroke-opacity:1;marker:none;color-rendering:auto;image-rendering:auto;shape-rendering:auto;text-rendering:auto;enable-background:accumulate"
       d="m 14.835675,18.281203 a 3.3088235,3.3103521 0 0 0 -3.308821,3.310348 3.3088235,3.3103521 0 0 0 3.308821,3.310354 3.3088235,3.3103521 0 0 0 3.308822,-3.310354 3.3088235,3.3103521 0 0 0 -3.308822,-3.310348 z m -0.07756,2.206899 a 1.1029406,1.1034512 0 0 1 0.07756,0 1.1029406,1.1034512 0 0 1 1.102943,1.103449 1.1029406,1.1034512 0 0 1 -1.102943,1.103449 1.1029406,1.1034512 0 0 1 -1.102942,-1.103449 1.1029406,1.1034512 0 0 1 1.025396,-1.103449 z"
       id="path37-1-2" />
    <path
       style="color:#000000;clip-rule:nonzero;display:inline;overflow:visible;visibility:visible;isolation:auto;mix-blend-mode:normal;color-interpolation:sRGB;color-interpolation-filters:linearRGB;solid-color:#000000;solid-opacity:1;fill:#ffffff;fill-opacity:1;fill-rule:nonzero;stroke:none;stroke-width:0.884604;stroke-linecap:butt;stroke-linejoin:miter;stroke-miterlimit:4;stroke-dasharray:none;stroke-dashoffset:0;stroke-opacity:1;marker:none;color-rendering:auto;image-rendering:auto;shape-rendering:auto;text-rendering:auto;enable-background:accumulate"
       d="m 30.217573,43.687932 a 3.3088235,3.3103521 0 0 0 -3.308829,3.310368 3.3088235,3.3103521 0 0 0 3.308829,3.310329 3.3088235,3.3103521 0 0 0 3.308821,-3.310329 3.3088235,3.3103521 0 0 0 -3.308821,-3.310368 z m -0.07756,2.206899 a 1.1029406,1.1034512 0 0 1 0.07756,0 1.1029406,1.1034512 0 0 1 1.102935,1.103469 1.1029406,1.1034512 0 0 1 -1.102935,1.103435 1.1029406,1.1034512 0 0 1 -1.102945,-1.103435 1.1029406,1.1034512 0 0 1 1.025392,-1.103469 z"
       id="path39-8-7" />
    <path
       d="m 18.391113,24.709521 a 4.6798537,4.682016 0 0 1 -1.792279,1.306043 l 10.232365,17.732792 a 4.6798537,4.682016 0 0 1 1.822435,-1.250003 z"
       style="color:#000000;clip-rule:nonzero;display:inline;overflow:visible;visibility:visible;isolation:auto;mix-blend-mode:normal;color-interpolation:sRGB;color-interpolation-filters:linearRGB;solid-color:#000000;solid-opacity:1;fill:#ffffff;fill-opacity:1;fill-rule:nonzero;stroke:none;stroke-width:0.884604;stroke-linecap:butt;stroke-linejoin:miter;stroke-miterlimit:4;stroke-dasharray:none;stroke-dashoffset:0;stroke-opacity:1;marker:none;color-rendering:auto;image-rendering:auto;shape-rendering:auto;text-rendering:auto;enable-background:accumulate"
       id="path41-7-0" />
    <path
       d="M 42.181894,24.791421 31.962463,42.502671 A 4.6798537,4.682016 0 0 1 33.7892,43.752665 L 44.000027,26.054352 a 4.6798537,4.682016 0 0 1 -1.818133,-1.262931 z"
       style="color:#000000;clip-rule:nonzero;display:inline;overflow:visible;visibility:visible;isolation:auto;mix-blend-mode:normal;color-interpolation:sRGB;color-interpolation-filters:linearRGB;solid-color:#000000;solid-opacity:1;fill:#ffffff;fill-opacity:1;fill-rule:nonzero;stroke:none;stroke-width:0.884604;stroke-linecap:butt;stroke-linejoin:miter;stroke-miterlimit:4;stroke-dasharray:none;stroke-dashoffset:0;stroke-opacity:1;marker:none;color-rendering:auto;image-rendering:auto;shape-rendering:auto;text-rendering:auto;enable-background:accumulate"
       id="path43-9-9" />
  </g>
</svg>
