<?xml version="1.0" encoding="UTF-8" standalone="no"?>
<svg
   clip-rule="evenodd"
   fill-rule="evenodd"
   stroke-linejoin="round"
   stroke-miterlimit="2"
   viewBox="0 0 62 62"
   version="1.1"
   id="svg17"
   sodipodi:docname="imagewriter.svg"
   width="62"
   height="62"
   inkscape:version="1.4 (e7c3feb100, 2024-10-09)"
   xmlns:inkscape="http://www.inkscape.org/namespaces/inkscape"
   xmlns:sodipodi="http://sodipodi.sourceforge.net/DTD/sodipodi-0.dtd"
   xmlns="http://www.w3.org/2000/svg"
   xmlns:svg="http://www.w3.org/2000/svg">
  <defs
     id="defs17" />
  <sodipodi:namedview
     id="namedview17"
     pagecolor="#ffffff"
     bordercolor="#000000"
     borderopacity="0.25"
     inkscape:showpageshadow="2"
     inkscape:pageopacity="0.0"
     inkscape:pagecheckerboard="0"
     inkscape:deskcolor="#d1d1d1"
     inkscape:zoom="11.107469"
     inkscape:cx="28.044193"
     inkscape:cy="43.214165"
     inkscape:window-width="1920"
     inkscape:window-height="994"
     inkscape:window-x="0"
     inkscape:window-y="0"
     inkscape:window-maximized="1"
     inkscape:current-layer="svg17" />
  <linearGradient
     id="a"
     x2="1"
     gradientTransform="matrix(54.669982,-0.23048718,0.23048718,54.669982,18.919501,4067.8629)"
     gradientUnits="userSpaceOnUse">
    <stop
       stop-color="#1a1a1a"
       offset="0"
       id="stop1"
       style="stop-color:#424755;stop-opacity:1;" />
    <stop
       stop-color="#2c2c2e"
       offset="0.11"
       id="stop2"
       style="stop-color:#444c5a;stop-opacity:1;" />
    <stop
       stop-color="#2b2b2d"
       offset="0.28999999"
       id="stop3"
       style="stop-color:#4a5563;stop-opacity:1;" />
    <stop
       stop-color="#2a2b2d"
       offset="0.50999999"
       id="stop4"
       style="stop-color:#464f5d;stop-opacity:1;" />
    <stop
       stop-color="#2b2b2d"
       offset="0.75"
       id="stop5"
       style="stop-color:#485260;stop-opacity:1;" />
    <stop
       stop-color="#323232"
       offset="0.89999998"
       id="stop6"
       style="stop-color:#3e4651;stop-opacity:1;" />
    <stop
       stop-color="#171717"
       offset="1"
       id="stop7"
       style="stop-color:#434856;stop-opacity:1;" />
  </linearGradient>
  <linearGradient
     id="b"
     x2="1"
     gradientTransform="matrix(-0.00190273,-47.815252,47.815252,-0.00190273,154.97623,49.124562)"
     gradientUnits="userSpaceOnUse">
    <stop
       stop-color="#bbbec4"
       offset="0"
       id="stop8" />
    <stop
       stop-color="#dcdee1"
       offset="1"
       id="stop9" />
  </linearGradient>
  <linearGradient
     id="c"
     x2="1"
     gradientTransform="matrix(23.241753,0,0,23.241753,17.782642,2053.7908)"
     gradientUnits="userSpaceOnUse">
    <stop
       stop-color="#37e994"
       offset="0"
       id="stop10" />
    <stop
       stop-color="#30ba78"
       offset="1"
       id="stop11" />
  </linearGradient>
  <linearGradient
     id="d"
     x2="1"
     gradientTransform="matrix(0,-4.3067249,4.3067249,0,405.44577,55.202954)"
     gradientUnits="userSpaceOnUse">
    <stop
       stop-color="#040404"
       stop-opacity=".45"
       offset="0"
       id="stop12" />
    <stop
       stop-color="#121212"
       stop-opacity=".41"
       offset="1"
       id="stop13" />
  </linearGradient>
  <g
     id="g18"
     transform="matrix(0.99962546,0,0,1,1.6934896,1.686)">
    <path
       d="M 51.962735,57.314 H 6.6722473 c -2.3574011,0 -4.4765935,-1.457639 -4.622234,-3.808869 C 1.9327604,51.596994 1.3082342,45.029596 1.307,45.016019 h 56.020982 c -0.0012,0.01358 -0.62576,6.580975 -0.743013,8.489112 -0.145641,2.35123 -2.264833,3.808869 -4.622234,3.808869 z"
       fill-rule="nonzero"
       id="path13"
       style="fill:url(#a);stroke-width:1.23424" />
    <path
       d="M 54.083162,5.3141763 C 53.895557,3.0530461 52.007168,1.314 49.738632,1.314 H 8.8963503 C 6.6278146,1.314 4.7394253,3.0530461 4.5518206,5.3141763 3.8273209,14.092101 2.0981487,35.011258 1.3218109,44.411241 c -0.099974,1.214493 0.3122631,2.41541 1.1367363,3.311469 0.8257075,0.897294 1.9883629,1.407035 3.2065591,1.407035 H 52.969876 c 1.218196,0 2.380851,-0.509741 3.206559,-1.407035 0.824473,-0.896059 1.23671,-2.096976 1.136736,-3.311469 -0.776338,-9.399983 -2.50551,-30.31914 -3.230009,-39.0970647 z"
       id="path14"
       style="fill:url(#b);stroke-width:1.23424" />
    <path
       d="m 41.033527,53.58042 c 0,-0.204884 -0.08146,-0.402363 -0.2271,-0.548003 -0.145641,-0.144407 -0.343119,-0.227101 -0.548003,-0.227101 H 18.549352 c -0.206118,0 -0.403597,0.08269 -0.548003,0.227101 -0.145641,0.14564 -0.2271,0.343119 -0.2271,0.548003 v 0.0099 c 0,0.206118 0.08146,0.403597 0.2271,0.548003 0.144406,0.14564 0.341885,0.2271 0.548003,0.2271 h 21.709072 c 0.204884,0 0.402362,-0.08146 0.548003,-0.2271 0.14564,-0.144406 0.2271,-0.341885 0.2271,-0.548003 z"
       id="path15"
       style="fill:url(#c);stroke-width:1.23424" />
    <circle
       cx="46.066761"
       cy="53.317528"
       r="2.1537511"
       id="circle15"
       style="fill:#171a1c;stroke-width:1.23424;fill-opacity:1" />
    <g
       fill-rule="nonzero"
       id="g17"
       transform="matrix(1.2342414,0,0,1.2342414,-0.30615349,-0.30779318)">
      <path
         d="m 38.349,43.104 c -0.061,-0.122 -0.147,-0.224 -0.257,-0.306 -0.032,-0.025 -0.068,-0.034 -0.108,-0.029 -0.04,0.005 -0.072,0.024 -0.096,0.057 -0.024,0.032 -0.033,0.067 -0.027,0.107 0.005,0.04 0.024,0.072 0.056,0.096 0.074,0.056 0.131,0.125 0.172,0.206 0.04,0.081 0.061,0.167 0.061,0.259 0,0.079 -0.016,0.154 -0.046,0.225 -0.031,0.072 -0.072,0.134 -0.125,0.186 -0.052,0.052 -0.114,0.094 -0.185,0.124 -0.072,0.031 -0.147,0.046 -0.226,0.046 -0.079,0 -0.154,-0.015 -0.225,-0.046 -0.072,-0.03 -0.134,-0.072 -0.186,-0.124 -0.052,-0.052 -0.094,-0.114 -0.124,-0.186 -0.031,-0.071 -0.046,-0.146 -0.046,-0.225 0,-0.092 0.02,-0.178 0.06,-0.259 0.041,-0.081 0.098,-0.15 0.172,-0.206 0.032,-0.024 0.051,-0.056 0.057,-0.096 0.005,-0.039 -0.004,-0.075 -0.028,-0.107 -0.024,-0.033 -0.055,-0.052 -0.095,-0.057 -0.04,-0.005 -0.076,0.004 -0.109,0.029 -0.11,0.082 -0.196,0.184 -0.257,0.306 -0.061,0.122 -0.091,0.252 -0.091,0.39 0,0.118 0.023,0.231 0.069,0.338 0.046,0.108 0.108,0.201 0.186,0.279 0.078,0.078 0.171,0.14 0.279,0.186 0.107,0.046 0.22,0.069 0.338,0.069 0.118,0 0.231,-0.023 0.339,-0.069 0.107,-0.046 0.2,-0.108 0.278,-0.186 0.078,-0.078 0.14,-0.171 0.186,-0.279 0.046,-0.107 0.069,-0.22 0.069,-0.338 0,-0.138 -0.03,-0.268 -0.091,-0.39 z m -0.781,0.39 c 0.039,0 0.074,-0.015 0.102,-0.043 0.029,-0.029 0.044,-0.063 0.044,-0.103 v -0.727 c 0,-0.039 -0.015,-0.073 -0.044,-0.102 -0.028,-0.029 -0.063,-0.043 -0.102,-0.043 -0.039,0 -0.073,0.014 -0.102,0.043 -0.029,0.029 -0.043,0.063 -0.043,0.102 v 0.727 c 0,0.04 0.014,0.074 0.043,0.103 0.029,0.028 0.063,0.043 0.102,0.043 z"
         fill="#e3e8ea"
         id="path16" />
      <path
         transform="matrix(0.417064,0,0,0.417064,-4.27688,0.12062)"
         d="m 101.541,40.263 c -0.477,-0.492 -1.262,-0.492 -1.738,0 -0.536,0.534 -0.472,1.456 0.192,1.897 0.406,0.269 0.948,0.269 1.353,0 0.662,-0.441 0.727,-1.363 0.193,-1.897 m -1.589,-4.179 c -3.284,-0.769 -6.234,2.182 -5.463,5.464 0.391,1.671 1.719,2.998 3.392,3.39 3.284,0.772 6.236,-2.181 5.463,-5.465 -0.394,-1.672 -1.721,-2.998 -3.392,-3.389 M 78.271,54.571 c -2.14,-0.791 -2.967,-0.632 -5.703,-0.594 -1.896,0.024 -1.965,-0.041 -4.129,-0.041 -0.669,0 -0.915,3.205 1.504,3.871 1.059,0.291 2.203,0.475 3,1.289 0.353,0.36 0.551,0.904 -0.264,0.904 h -6.006 c -1.051,0 -2.043,0.024 -2.846,-0.656 -1.213,-1.025 -1.779,-2.435 -2.386,-3.834 -0.63,-1.455 -1.309,-2.888 -2.107,-4.259 -1.586,-2.726 -3.683,-5.192 -6.496,-6.699 -3.512,-1.884 -9.473,-2.818 -14.193,0.807 -4.974,3.819 -3.909,10.973 0.442,14.473 1.718,1.383 3.958,1.961 6.16,1.831 4.303,-0.249 7.476,-3.42 6.688,-7.323 -0.263,-1.306 -1.025,-2.543 -2.173,-3.217 -0.816,-0.477 -1.784,-0.646 -2.729,-0.648 -1.016,-0.003 -2.097,0.206 -2.828,0.913 -0.864,0.837 -1.004,2.316 -0.313,3.301 0.382,0.546 1.004,1.007 0.899,1.718 -0.072,0.481 -0.469,0.839 -0.943,0.945 -0.807,0.18 -1.546,-0.28 -2.091,-0.842 -1.398,-1.44 -1.836,-3.732 -1.066,-5.587 1.006,-2.429 3.804,-3.765 6.431,-3.678 3.387,0.114 6.58,2.348 7.968,5.439 1.389,3.093 0.973,6.888 -0.941,9.686 -4.253,6.216 -14.756,5.482 -19.636,0.24 -3.061,-3.289 -4.724,-6.48 -4.491,-12.423 0.164,-4.199 2.587,-8.336 5.676,-11.246 5.033,-4.743 11.661,-7.986 18.406,-9.384 4.096,-0.847 8.325,-1.045 12.483,-0.63 3.667,0.364 7.312,1.036 10.836,2.127 1.75,0.545 3.471,1.193 5.135,1.957 1.468,0.674 3.392,1.409 4.535,2.573 0,-2.108 -0.082,-4.424 -0.082,-6.037 0,-0.615 0.647,-1.031 1.201,-0.768 2.385,1.107 8.035,3.776 11.802,5.499 5.05,2.307 5.407,7.75 5.583,12.576 0.004,0.108 0.009,0.219 -0.039,0.315 -0.159,0.331 -1.01,0.241 -1.322,0.245 -0.604,0.006 -1.515,0.002 -2.119,0.03 -1.205,0.052 -2.379,0.03 -3.585,-0.03 -2.229,-0.108 -4.384,-1.102 -5.827,-2.309 -0.144,-0.122 -0.61,-0.254 -0.829,-0.026 -0.228,0.235 -0.15,0.603 -0.027,0.729 0.828,0.835 1.725,1.375 2.769,1.914 1.326,0.681 2.772,0.854 4.238,0.939 1.57,0.093 3.151,0.069 4.718,-0.091 1.308,-0.134 1.646,-0.224 0.355,0.735 -1.134,0.843 -2.449,1.449 -3.783,1.897 -1.914,0.652 -3.934,0.973 -5.951,1.029 -1.223,0.033 -2.446,-0.03 -3.659,-0.188 -0.628,-0.078 -1.251,-0.192 -1.881,-0.256 -0.511,-0.052 -1.041,-0.147 -1.55,-0.037 -0.463,0.101 -0.89,0.351 -1.181,0.728 -0.399,0.521 -0.537,1.951 -0.306,2.571 0.445,1.201 1.424,1.899 2.458,2.515 1.12,0.666 2.593,0.894 2.88,2.167 0.059,0.266 -2.322,0.273 -2.592,0.269 h -3.169 c 0,0 -1.722,0.041 -2.393,-0.203 -0.021,-0.006 -0.039,-0.016 -0.061,-0.027 -0.364,-0.196 -0.522,-0.684 -0.646,-1.054 -0.177,-0.521 -0.487,-1.042 -0.864,-1.581 -0.716,-1.022 -1.816,-2.14 -2.96,-2.564 m 23.997,-14.062 c 0,1.858 -1.504,3.362 -3.361,3.362 -1.856,0 -3.36,-1.504 -3.36,-3.362 0,-1.855 1.504,-3.359 3.36,-3.359 1.857,0 3.361,1.504 3.361,3.359"
         id="path17"
         style="fill:#000000;fill-opacity:0.40000001;opacity:1" />
    </g>
  </g>
</svg>
