<?xml version="1.0" encoding="UTF-8" standalone="no"?>
<svg
   width="62"
   height="62"
   version="1"
   id="svg5"
   sodipodi:docname="inkscape.svg"
   inkscape:version="1.4 (e7c3feb100, 2024-10-09)"
   xmlns:inkscape="http://www.inkscape.org/namespaces/inkscape"
   xmlns:sodipodi="http://sodipodi.sourceforge.net/DTD/sodipodi-0.dtd"
   xmlns:xlink="http://www.w3.org/1999/xlink"
   xmlns="http://www.w3.org/2000/svg"
   xmlns:svg="http://www.w3.org/2000/svg">
  <defs
     id="defs5">
    <linearGradient
       id="linearGradient2"
       inkscape:collect="always">
      <stop
         style="stop-color:#526b77;stop-opacity:1;"
         offset="0"
         id="stop2" />
      <stop
         style="stop-color:#9aa3b1;stop-opacity:1;"
         offset="1"
         id="stop3" />
    </linearGradient>
    <linearGradient
       inkscape:collect="always"
       xlink:href="#linearGradient1"
       id="linearGradient18"
       x1="31.647533"
       y1="13.51142"
       x2="31.459175"
       y2="55.959011"
       gradientUnits="userSpaceOnUse" />
    <linearGradient
       id="linearGradient1"
       inkscape:collect="always">
      <stop
         style="stop-color:#444d54;stop-opacity:1;"
         offset="0"
         id="stop17" />
      <stop
         style="stop-color:#1e2630;stop-opacity:1;"
         offset="1"
         id="stop18" />
    </linearGradient>
    <linearGradient
       inkscape:collect="always"
       xlink:href="#linearGradient2"
       id="linearGradient3"
       x1="31.499994"
       y1="59.017544"
       x2="31.499994"
       y2="4.9824572"
       gradientUnits="userSpaceOnUse"
       gradientTransform="translate(-0.5,-1.0000005)" />
  </defs>
  <sodipodi:namedview
     id="namedview5"
     pagecolor="#ffffff"
     bordercolor="#000000"
     borderopacity="0.25"
     inkscape:showpageshadow="2"
     inkscape:pageopacity="0.0"
     inkscape:pagecheckerboard="0"
     inkscape:deskcolor="#d1d1d1"
     inkscape:zoom="8.3306018"
     inkscape:cx="31.930466"
     inkscape:cy="43.094126"
     inkscape:window-width="1920"
     inkscape:window-height="998"
     inkscape:window-x="0"
     inkscape:window-y="0"
     inkscape:window-maximized="1"
     inkscape:current-layer="svg5" />
  <rect
     style="opacity:0.542151;fill:#3d4963;fill-opacity:1;stroke-width:0.982303"
     width="54.999989"
     height="55.017544"
     x="3.5"
     y="3.9824567"
     rx="27.499994"
     ry="27.508772"
     id="rect1" />
  <rect
     style="fill:url(#linearGradient3);stroke-width:0.982303"
     width="54.999989"
     height="55.017544"
     x="3.5"
     y="2.9999995"
     rx="27.499994"
     ry="27.508772"
     id="rect2" />
  <path
     style="fill:#b0bcce;fill-opacity:1;stroke-width:0.982303"
     d="M 30.999996,2.9999995 C 15.764997,2.9999995 3.5,15.268912 3.5,30.508773 c 0,0.111459 0.011076,0.220183 0.017263,0.330044 C 3.8625296,15.903756 15.983747,3.9824555 30.999996,3.9824555 c 15.016246,0 27.137465,11.9213005 27.48273,26.8563615 C 58.489024,30.728956 58.5,30.620232 58.5,30.508773 58.49999,15.268912 46.234993,2.9999995 30.999996,2.9999995 Z"
     id="path4" />
  <g
     id="g2"
     transform="translate(-0.65062555,-2.501024)">
    <path
       style="opacity:0.2;fill-rule:evenodd;stroke-width:1.41806"
       d="m 31.647534,13.51142 c -1.211103,4.91e-4 -2.389313,0.454599 -3.317473,1.416571 L 11.811835,32.021238 c -0.910152,0.943403 -1.392982,2.186887 -1.411096,3.418086 -2.73e-4,0.01872 0,0.06551 0,0.08597 -1.69e-4,3.663031 9.096716,0.103907 9.977336,4.582415 0.4765,2.423834 -4.310777,1.314802 -4.310777,3.753522 0,2.860685 9.116054,0.52823 11.028735,3.251758 1.464113,2.084788 -3.507941,2.173479 -2.346309,4.169355 0.996462,1.712087 4.27544,0.615276 4.869696,2.916325 0.678784,2.628445 4.763635,2.336331 7.232592,0.252266 1.513486,-1.27754 -1.715618,-2.078641 -0.340323,-3.504022 1.375212,-1.425488 6.837743,-1.155848 6.471713,-4.249752 -0.242254,-2.04758 -2.611509,-2.275081 -2.650666,-4.587948 -0.136734,-1.958731 2.61892,-1.385612 9.661908,-3.334932 2.816193,-1.325651 2.915945,-2.030878 2.905212,-3.251761 -2.16e-4,-0.02423 0,-0.05732 0,-0.08317 -0.01604,-1.231106 -0.584032,-2.474714 -1.494107,-3.418093 L 34.967783,14.927991 c -0.928375,-0.962076 -2.106989,-1.41608 -3.317488,-1.416571 z m 18.181101,29.809193 c -0.300359,-0.01089 -0.602513,0.01708 -0.816231,0.08597 -0.402838,0.133992 -2.312663,0.211015 -2.155391,1.885088 1.728986,0.836642 4.364587,1.501987 4.678778,-0.171879 0.235897,-1.255238 -0.805939,-1.76072 -1.707156,-1.799143 z m -31.758132,4.310738 c -0.168388,0.02311 -0.283655,0.104817 -0.448242,0.180194 -1.316042,0.602499 -2.197934,1.871865 -0.968398,2.425654 1.229717,0.553646 2.054151,-0.03418 3.1321,-0.720763 1.078131,-0.686922 1.046381,-0.810632 0.968398,-1.075608 -0.149439,0.03598 -1.12878,-0.700266 -2.160917,-0.809477 -0.172001,-0.01732 -0.354592,-0.02311 -0.522941,0 z"
       id="path1" />
    <path
       style="fill:url(#linearGradient18);fill-rule:evenodd;stroke-width:1.41806"
       d="m 31.647534,12.092024 c -1.211103,4.91e-4 -2.389313,0.454599 -3.317473,1.416588 L 11.811835,30.601844 c -0.910152,0.943402 -1.392982,2.186886 -1.411096,3.418086 -2.73e-4,0.01872 0,0.06551 0,0.08596 -1.69e-4,3.663031 9.096716,0.103906 9.977336,4.582397 0.4765,2.423834 -4.310777,1.314803 -4.310777,3.753526 0,2.86068 9.116054,0.528228 11.028735,3.251754 1.464113,2.084792 -3.507941,2.173482 -2.346309,4.169355 0.996462,1.71209 4.27544,0.615279 4.869696,2.916329 0.678784,2.628441 4.763635,2.336334 7.232592,0.252266 1.513486,-1.277543 -1.715618,-2.078641 -0.340323,-3.504026 1.375212,-1.425486 6.837743,-1.155846 6.471713,-4.249752 -0.242254,-2.047569 -2.611509,-2.275069 -2.650666,-4.58794 -0.136734,-1.958736 2.61892,-1.38562 9.661908,-3.334928 2.816193,-1.325661 2.915945,-2.030888 2.905212,-3.251769 -2.16e-4,-0.02423 0,-0.05733 0,-0.08317 -0.01604,-1.231105 -0.584032,-2.474716 -1.494107,-3.418087 L 34.967783,13.508612 c -0.928375,-0.962093 -2.106989,-1.416097 -3.317488,-1.416588 z m 18.181101,29.809195 c -0.300359,-0.01091 -0.602513,0.01708 -0.816231,0.08598 -0.402838,0.133925 -2.312663,0.211003 -2.155391,1.885079 1.728986,0.83664 4.364587,1.501995 4.678778,-0.17188 0.235897,-1.25524 -0.805939,-1.760715 -1.707156,-1.799139 z m -31.758132,4.310736 c -0.168388,0.02311 -0.283655,0.104817 -0.448242,0.180195 -1.316042,0.602498 -2.197934,1.871866 -0.968398,2.425652 1.229717,0.553648 2.054151,-0.03418 3.1321,-0.720762 1.078131,-0.686922 1.046381,-0.810631 0.968398,-1.075608 -0.149439,0.03598 -1.12878,-0.700255 -2.160917,-0.809477 -0.172001,-0.01732 -0.354592,-0.02311 -0.522941,0 z"
       id="path2-3" />
    <path
       style="opacity:0.2;fill-rule:evenodd;stroke-width:1.41806"
       d="m 31.726304,17.870753 c 1.246336,0.01068 4.661453,4.244989 7.708432,7.41613 0.857072,1.15221 -0.331516,2.333115 -0.331516,2.333115 l -6.381947,-3.499717 -2.818096,3.833259 -2.486197,-3.74912 -1.492533,5.832536 -4.392582,-2.666359 1.16063,-1.500459 6.878784,-7.082276 c 0.527648,-0.538908 0.931704,-0.926136 2.155002,-0.91659 z"
       id="path3-6" />
    <path
       style="fill:#ffffff;fill-rule:evenodd;stroke-width:1.41806"
       d="m 31.726304,16.451375 c 1.246336,0.01068 4.661453,4.24497 7.708432,7.416112 0.857072,1.152211 -0.331516,2.333115 -0.331516,2.333115 l -6.381947,-3.499717 -2.818096,3.833261 -2.486197,-3.74912 -1.492533,5.832534 -4.392582,-2.666358 1.16063,-1.500459 6.878784,-7.082276 c 0.527648,-0.538904 0.931704,-0.926134 2.155002,-0.91659 z"
       id="path4-7" />
    <path
       style="opacity:0.1;fill:#ffffff;fill-rule:evenodd;stroke-width:1.41806"
       d="m 31.647534,12.092024 c -1.211103,4.91e-4 -2.389313,0.454599 -3.317473,1.416588 L 11.811835,30.601844 c -0.910152,0.943402 -1.392982,2.186886 -1.411096,3.418086 -2.73e-4,0.01872 0,0.06551 0,0.08596 -9e-6,0.196562 0.03883,0.36382 0.08854,0.521163 0.172527,-0.951909 0.61323,-1.870601 1.322558,-2.605841 L 28.330058,14.92796 c 0.928162,-0.961981 2.106372,-1.41608 3.317475,-1.41658 h 0.0029 c 1.210497,5e-4 2.38911,0.454502 3.317484,1.41658 L 51.40594,32.021196 c 0.791552,0.820496 1.30011,1.869517 1.436005,2.938495 0.05567,-0.264325 0.06085,-0.54365 0.0581,-0.856602 -2.24e-4,-0.02421 0,-0.05733 0,-0.08317 C 52.884,32.788815 52.316002,31.545205 51.405923,30.601833 L 34.967783,13.508612 C 34.039408,12.546519 32.860794,12.092515 31.650295,12.092024 Z M 20.214829,39.630812 c -0.831211,1.203715 -4.147531,0.778138 -4.147531,2.810991 0,0.253319 0.09249,0.453058 0.224106,0.632046 0.936912,-1.421021 4.501048,-0.858376 4.086671,-2.966218 -0.03507,-0.178236 -0.103323,-0.323076 -0.163246,-0.476819 z m 20.231348,1.810226 c -0.09182,0.185404 -0.132026,0.401826 -0.113447,0.668102 0.03614,2.135095 2.036053,2.510598 2.537216,4.163805 0.11259,-0.287914 0.158407,-0.615157 0.11345,-0.995216 -0.212942,-1.799803 -2.064499,-2.197029 -2.537227,-3.836691 z m 9.382458,0.460181 c -0.300359,-0.01091 -0.602513,0.01708 -0.816231,0.08598 -0.402838,0.133925 -2.312663,0.211003 -2.155391,1.885079 0.138493,0.06694 0.30536,0.116522 0.453773,0.180187 0.554171,-0.488501 1.440682,-0.559127 1.701618,-0.645918 0.213718,-0.0689 0.515872,-0.09685 0.816231,-0.08591 0.589912,0.02516 1.234062,0.254899 1.54668,0.759574 0.06464,-0.11521 0.131866,-0.227427 0.160476,-0.379787 0.235897,-1.255239 -0.805939,-1.760714 -1.707156,-1.799143 z m -31.758132,4.310736 c -0.168388,0.02311 -0.283655,0.104817 -0.448242,0.180195 -1.217865,0.557546 -2.041866,1.680115 -1.186983,2.284264 0.28313,-0.332037 0.704489,-0.644014 1.186983,-0.864908 0.164587,-0.07534 0.279854,-0.157087 0.448242,-0.180195 0.168349,-0.02311 0.35094,-0.01732 0.522941,0 0.465168,0.04922 0.90847,0.228886 1.281057,0.404736 0.963693,-0.624015 0.955039,-0.759166 0.87986,-1.014615 -0.149439,0.03598 -1.12878,-0.700252 -2.160917,-0.809477 -0.172001,-0.01732 -0.354592,-0.02311 -0.522941,0 z m 8.981258,0.856602 c -0.842692,0.906865 -3.134,1.364889 -2.302037,2.794355 0.03851,0.06614 0.08779,0.119275 0.132791,0.177415 0.87685,-0.934052 3.294511,-1.38812 2.213486,-2.927413 -0.01164,-0.01685 -0.03188,-0.02789 -0.04429,-0.04437 z m 9.418428,3.928175 c -0.704439,0.785651 -0.02964,1.382538 0.43716,1.979332 0.80789,-0.743152 0.0376,-1.330457 -0.43716,-1.979332 z"
       id="path5-5" />
  </g>
</svg>
