<?xml version="1.0" encoding="UTF-8" standalone="no"?>
<svg
   clip-rule="evenodd"
   fill-rule="evenodd"
   stroke-linejoin="round"
   stroke-miterlimit="2"
   viewBox="0 0 62 62"
   version="1.1"
   id="svg3"
   sodipodi:docname="instagram.svg"
   width="62"
   height="62"
   inkscape:version="1.4 (e7c3feb100, 2024-10-09)"
   xmlns:inkscape="http://www.inkscape.org/namespaces/inkscape"
   xmlns:sodipodi="http://sodipodi.sourceforge.net/DTD/sodipodi-0.dtd"
   xmlns:xlink="http://www.w3.org/1999/xlink"
   xmlns="http://www.w3.org/2000/svg"
   xmlns:svg="http://www.w3.org/2000/svg">
  <defs
     id="defs3">
    <filter
       id="b-3-36"
       width="1.2393739"
       height="1.1966286"
       x="-0.11968695"
       y="-0.098314282"
       color-interpolation-filters="sRGB">
      <feGaussianBlur
         stdDeviation="1.147"
         id="feGaussianBlur7-6" />
    </filter>
    <filter
       id="b-3-36-6"
       width="1.2393739"
       height="1.1966286"
       x="-0.11968695"
       y="-0.098314282"
       color-interpolation-filters="sRGB">
      <feGaussianBlur
         stdDeviation="1.147"
         id="feGaussianBlur7-6-7" />
    </filter>
    <radialGradient
       id="SVGID_1_"
       cx="-145.10519"
       cy="25.691174"
       r="192.9176"
       gradientUnits="userSpaceOnUse"
       fx="-145.10519"
       fy="25.691174"
       gradientTransform="matrix(0.26870064,0.00325151,-0.00296428,0.24496287,-31.752288,35.04998)">
      <stop
         offset="0"
         style="stop-color:#fea201;stop-opacity:1;"
         id="stop146" />
      <stop
         offset="0.3273"
         style="stop-color:#F2203E"
         id="stop147" />
      <stop
         offset="0.6485"
         style="stop-color:#B729A8"
         id="stop148" />
      <stop
         offset="1"
         style="stop-color:#5342D6"
         id="stop149" />
    </radialGradient>
    <radialGradient
       inkscape:collect="always"
       xlink:href="#SVGID_1_"
       id="radialGradient1"
       cx="8.5634546"
       cy="57.375301"
       fx="8.5634546"
       fy="57.375301"
       r="27.5"
       gradientTransform="matrix(2.1682062,0.00768506,-0.00848333,2.3934245,-9.517147,-80.005385)"
       gradientUnits="userSpaceOnUse" />
  </defs>
  <sodipodi:namedview
     id="namedview3"
     pagecolor="#ffffff"
     bordercolor="#000000"
     borderopacity="0.25"
     inkscape:showpageshadow="2"
     inkscape:pageopacity="0.0"
     inkscape:pagecheckerboard="0"
     inkscape:deskcolor="#d1d1d1"
     inkscape:zoom="5.5095405"
     inkscape:cx="-11.888469"
     inkscape:cy="23.232427"
     inkscape:window-width="1920"
     inkscape:window-height="994"
     inkscape:window-x="0"
     inkscape:window-y="0"
     inkscape:window-maximized="1"
     inkscape:current-layer="svg3" />
  <linearGradient
     id="a"
     x2="1"
     gradientTransform="matrix(0,-43.53155,43.53155,0,1192.407,51.589413)"
     gradientUnits="userSpaceOnUse">
    <stop
       stop-color="#161616"
       offset="0"
       id="stop1" />
    <stop
       stop-color="#343434"
       offset="1"
       id="stop2" />
  </linearGradient>
  <g
     id="g3"
     transform="translate(3.487626,-1.843205)" />
  <rect
     style="opacity:0.2;stroke-width:0.9823"
     width="55"
     height="55.017544"
     x="3.5"
     y="3.9824562"
     rx="8.25"
     ry="8.2526312"
     id="rect1-3" />
  <rect
     style="fill:url(#radialGradient1);stroke-width:0.9823"
     width="55"
     height="55.017544"
     x="3.5"
     y="3"
     rx="8.25"
     ry="8.2526312"
     id="rect2-5" />
  <path
     style="opacity:0.1;fill:#ffffff;stroke-width:0.9823"
     d="M 11.748466,3 C 7.1779651,3 3.4999999,6.6791384 3.4999999,11.251097 v 0.982456 c 0,-4.5719585 3.6779652,-8.2510968 8.2484661,-8.2510968 h 38.503068 c 4.5705,0 8.248466,3.6791383 8.248466,8.2510968 V 11.251097 C 58.5,6.6791384 54.822034,3 50.251534,3 Z"
     id="path4-6" />
  <path
     style="opacity:0.2"
     d="M 21.851562,11 C 15.320231,11 10,16.320231 10,22.851562 V 41.148438 C 10,47.679769 15.320231,53 21.851562,53 H 40.148438 C 46.679769,53 52,47.679769 52,41.148438 V 22.851562 C 52,16.320231 46.679769,11 40.148438,11 Z m 0,4 H 40.148438 C 44.532958,15 48,18.467042 48,22.851562 V 41.148438 C 48,45.532958 44.532958,49 40.148438,49 H 21.851562 C 17.467042,49 14,45.532958 14,41.148438 V 22.851562 C 14,18.467042 17.467042,15 21.851562,15 Z M 42,18 a 3,3 0 0 0 -3,3 3,3 0 0 0 3,3 3,3 0 0 0 3,-3 3,3 0 0 0 -3,-3 z m -11,3 c -6.051443,0 -11,4.948557 -11,11 0,6.051443 4.948557,11 11,11 6.051443,0 11,-4.948557 11,-11 0,-6.051443 -4.948557,-11 -11,-11 z m 0,4 c 3.889683,0 7,3.110317 7,7 0,3.889683 -3.110317,7 -7,7 -3.889683,0 -7,-3.110317 -7,-7 0,-3.889683 3.110317,-7 7,-7 z"
     id="path4" />
  <rect
     style="fill:none;stroke:#ffffff;stroke-width:4;stroke-linecap:round;stroke-linejoin:round"
     width="38"
     height="38"
     x="12"
     y="12"
     rx="9.8520002"
     ry="9.8520002"
     id="rect4" />
  <circle
     style="fill:none;stroke:#ffffff;stroke-width:4;stroke-linecap:round;stroke-linejoin:round"
     cx="31"
     cy="31"
     r="9"
     id="circle4" />
  <circle
     style="fill:#ffffff"
     cx="42"
     cy="20"
     r="3"
     id="circle5" />
</svg>
