<?xml version="1.0" encoding="UTF-8" standalone="no"?>
<svg
   height="62"
   viewBox="0 0 62 62"
   width="62"
   version="1.1"
   id="svg41"
   sodipodi:docname="io.gitlab.adhami3310.Impression.svg"
   inkscape:version="1.4 (unknown)"
   xmlns:inkscape="http://www.inkscape.org/namespaces/inkscape"
   xmlns:sodipodi="http://sodipodi.sourceforge.net/DTD/sodipodi-0.dtd"
   xmlns="http://www.w3.org/2000/svg"
   xmlns:svg="http://www.w3.org/2000/svg">
  <defs
     id="defs41" />
  <sodipodi:namedview
     id="namedview41"
     pagecolor="#ffffff"
     bordercolor="#000000"
     borderopacity="0.25"
     inkscape:showpageshadow="2"
     inkscape:pageopacity="0.0"
     inkscape:pagecheckerboard="0"
     inkscape:deskcolor="#d1d1d1"
     inkscape:zoom="6.0703125"
     inkscape:cx="64.164736"
     inkscape:cy="29.075933"
     inkscape:window-width="1920"
     inkscape:window-height="998"
     inkscape:window-x="0"
     inkscape:window-y="0"
     inkscape:window-maximized="1"
     inkscape:current-layer="svg41" />
  <linearGradient
     id="a"
     gradientUnits="userSpaceOnUse"
     x1="22.00001"
     x2="128.00002"
     y1="67"
     y2="67"
     gradientTransform="matrix(0.49528302,0,0,0.48611109,-1.3962264,-1.8333335)">
    <stop
       offset="0"
       stop-color="#5c596d"
       id="stop1" />
    <stop
       offset="0.811321"
       stop-color="#b3b2c0"
       id="stop2" />
    <stop
       offset="1"
       stop-color="#838289"
       id="stop3" />
  </linearGradient>
  <linearGradient
     id="b"
     gradientUnits="userSpaceOnUse"
     x1="37.999992"
     x2="119.99995"
     y1="101.99996"
     y2="19.999989"
     gradientTransform="matrix(0.49528302,0,0,0.48611109,-1.3962264,-1.8333335)">
    <stop
       offset="0"
       stop-color="#a3b6d1"
       id="stop4"
       style="stop-color:#7c97be;stop-opacity:1;" />
    <stop
       offset="0.195122"
       stop-color="#a9c5f0"
       id="stop5"
       style="stop-color:#85adea;stop-opacity:1;" />
    <stop
       offset="0.45122001"
       stop-color="#dbdeff"
       id="stop6"
       style="stop-color:#bbc1ff;stop-opacity:1;" />
    <stop
       offset="0.70731699"
       stop-color="#b7c5ef"
       id="stop7"
       style="stop-color:#859de4;stop-opacity:1;" />
    <stop
       offset="1"
       stop-color="#8fb2dd"
       id="stop8"
       style="stop-color:#6394cf;stop-opacity:1;" />
  </linearGradient>
  <linearGradient
     id="c"
     gradientUnits="userSpaceOnUse"
     x1="3.00001"
     x2="47.000011"
     y1="70"
     y2="70"
     gradientTransform="matrix(0.496,0,0,0.5,-1.488,-2)">
    <stop
       offset="0"
       stop-color="#9a3800"
       id="stop9"
       style="stop-color:#1cb285;stop-opacity:1;" />
    <stop
       offset="0.0909091"
       stop-color="#ed5300"
       id="stop10"
       style="stop-color:#37dfad;stop-opacity:1;" />
    <stop
       offset="0.18181799"
       stop-color="#c64600"
       id="stop11"
       style="stop-color:#1fc694;stop-opacity:1;" />
    <stop
       offset="0.81818199"
       stop-color="#c64600"
       id="stop12"
       style="stop-color:#20c693;stop-opacity:1;" />
    <stop
       offset="0.909091"
       stop-color="#ed5300"
       id="stop13"
       style="stop-color:#37dfad;stop-opacity:1;" />
    <stop
       offset="1"
       stop-color="#9a3800"
       id="stop14"
       style="stop-color:#1cb285;stop-opacity:1;" />
  </linearGradient>
  <linearGradient
     id="d"
     gradientTransform="matrix(0.62,0,0,0.6111125,-8.928,-22.66681)"
     gradientUnits="userSpaceOnUse"
     x1="20"
     x2="44"
     y1="122.99989"
     y2="122.99989">
    <stop
       offset="0"
       stop-color="#adadaa"
       id="stop15" />
    <stop
       offset="0.0833333"
       stop-color="#d7d6d5"
       id="stop16" />
    <stop
       offset="0.166667"
       stop-color="#afafab"
       id="stop17" />
    <stop
       offset="0.654803"
       stop-color="#b8b8b4"
       id="stop18" />
    <stop
       offset="0.938916"
       stop-color="#a3a29f"
       id="stop19" />
    <stop
       offset="1"
       stop-color="#8d8b88"
       id="stop20" />
  </linearGradient>
  <linearGradient
     id="e"
     gradientTransform="matrix(0.62,0,0,0.5625015,-8.927995,-16.250205)"
     gradientUnits="userSpaceOnUse"
     x1="19.500002"
     x2="44.5"
     y1="128.00002"
     y2="128.00002">
    <stop
       offset="0"
       stop-color="#e0e0e0"
       id="stop21" />
    <stop
       offset="1"
       stop-color="#d1ccc5"
       id="stop22" />
  </linearGradient>
  <linearGradient
     id="f"
     gradientTransform="matrix(0.57866683,0,0,0.4375005,-7.6053317,-0.25008)"
     gradientUnits="userSpaceOnUse"
     x1="19.500002"
     x2="44.5"
     y1="128.00002"
     y2="128.00002">
    <stop
       offset="0"
       stop-color="#545251"
       id="stop23" />
    <stop
       offset="0.471382"
       stop-color="#7d7c7a"
       id="stop24" />
    <stop
       offset="1"
       stop-color="#908e8d"
       id="stop25" />
  </linearGradient>
  <linearGradient
     id="g"
     gradientUnits="userSpaceOnUse"
     x1="3.00001"
     x2="47.000011"
     y1="91"
     y2="91">
    <stop
       offset="0"
       stop-color="#ff8500"
       stop-opacity="0.152941"
       id="stop26" />
    <stop
       offset="0.185933"
       stop-color="#ff7c00"
       stop-opacity="0.341176"
       id="stop27" />
    <stop
       offset="1"
       stop-color="#ffa200"
       stop-opacity="0.137255"
       id="stop28" />
  </linearGradient>
  <path
     d="M 35.75,4.9722215 C 21.253299,4.9722215 9.5,16.507863 9.5,30.73611 9.5,44.96436 21.253299,56.5 35.75,56.5 50.246701,56.5 62,44.96436 62,30.73611 62,16.507863 50.246701,4.9722215 35.75,4.9722215 Z m 0,22.3611185 c 1.915352,0 3.466981,1.522891 3.466981,3.40277 0,1.879879 -1.551629,3.402785 -3.466981,3.402785 -1.915352,0 -3.466981,-1.522906 -3.466981,-3.402785 0,-1.879879 1.551629,-3.40277 3.466981,-3.40277 z m 0,0"
     fill="url(#a)"
     id="path28"
     style="fill:url(#a);stroke-width:0.490676" />
  <path
     d="M 35.75,4 C 21.253299,4 9.5,15.53564 9.5,29.76389 9.5,43.992137 21.253299,55.52778 35.75,55.52778 50.246701,55.52778 62,43.992137 62,29.76389 62,15.53564 50.246701,4 35.75,4 Z m 0,22.328832 c 1.932765,0 3.499871,1.538081 3.499871,3.435058 0,1.896977 -1.567106,3.435058 -3.499871,3.435058 -0.08706,-0.01333 -0.172188,-0.03035 -0.257315,-0.04943 -0.284401,-0.02088 -0.566867,-0.07593 -0.83966,-0.165197 -0.152841,-0.04943 -0.301813,-0.110138 -0.44885,-0.182295 -0.270858,-0.131022 -0.526238,-0.298121 -0.752598,-0.493713 -0.104474,-0.0912 -0.201208,-0.186081 -0.294074,-0.288625 -0.199275,-0.222166 -0.369528,-0.472809 -0.503022,-0.738656 -0.07351,-0.144313 -0.135429,-0.29053 -0.185731,-0.44054 -0.09093,-0.267741 -0.147037,-0.544977 -0.168319,-0.824107 -0.01934,-0.08354 -0.03676,-0.167105 -0.0503,-0.25255 0.01354,-0.08549 0.03096,-0.168998 0.0503,-0.252551 0.02128,-0.279129 0.07739,-0.556365 0.168319,-0.824106 0.0503,-0.150015 0.112213,-0.296228 0.185731,-0.44054 0.133494,-0.265848 0.303747,-0.51649 0.503022,-0.738661 0.09287,-0.102543 0.1896,-0.197485 0.294074,-0.288625 0.22636,-0.195592 0.48174,-0.362695 0.752598,-0.493712 0.147037,-0.07212 0.296009,-0.132924 0.44885,-0.182295 0.272793,-0.08925 0.555259,-0.144313 0.83966,-0.165197 0.08513,-0.01893 0.170254,-0.03606 0.257315,-0.04943 z m 0,0"
     fill="#d1d4db"
     id="path29"
     style="stroke-width:0.490676" />
  <path
     d="m 35.75,4.9722215 c -13.951117,0 -25.259434,11.0988985 -25.259434,24.7916685 0,13.692754 11.308317,24.79167 25.259434,24.79167 13.951117,0 25.259434,-11.098916 25.259434,-24.79167 C 61.009434,16.07112 49.701117,4.9722215 35.75,4.9722215 Z m 0,21.3888835 c 0.147037,0 0.294074,0.0098 0.441111,0.02855 0.0078,0.0019 0.01354,0.0019 0.02128,0.0039 0.143167,0.01713 0.2844,0.04552 0.425633,0.08159 0.0078,0.0019 0.01548,0.0039 0.02322,0.0078 0.141232,0.03606 0.280531,0.08354 0.41596,0.138617 0.133494,0.05319 0.265054,0.117728 0.390809,0.187987 0.0097,0.0059 0.01741,0.0098 0.02515,0.01518 0.125756,0.07032 0.245707,0.150011 0.359854,0.235457 0.0039,0.002 0.0058,0.0039 0.0078,0.0059 0.0039,0.002 0.0058,0.0039 0.0078,0.0078 0.118016,0.08729 0.228295,0.182292 0.332768,0.284828 0.104474,0.102541 0.201209,0.210777 0.290205,0.326607 0.0039,0.002 0.0058,0.0059 0.0097,0.0078 0,0.002 0.0019,0.0039 0.0039,0.0078 0.08706,0.112033 0.168318,0.229763 0.239902,0.35319 0.0058,0.0078 0.0097,0.01713 0.01548,0.02464 0.07159,0.123427 0.137363,0.25255 0.19347,0.383572 0.05417,0.132921 0.102538,0.26964 0.141232,0.408257 0.0019,0.0078 0.0039,0.01518 0.0058,0.02464 0.03676,0.13672 0.06578,0.275337 0.08513,0.415853 0,0.0078 0.0019,0.01328 0.0019,0.02088 0.01935,0.144313 0.02903,0.288627 0.02903,0.432942 -0.0019,0.432942 -0.08899,0.862087 -0.25538,1.262749 -0.0078,0.02088 -0.01548,0.04177 -0.02322,0.06461 -0.170253,0.38737 -0.41209,0.742459 -0.713903,1.04438 -0.01934,0.01893 -0.03869,0.03802 -0.05804,0.05694 -0.307618,0.296224 -0.669406,0.533583 -1.064085,0.700684 -0.02322,0.0078 -0.04449,0.01518 -0.06578,0.02283 -0.408316,0.163319 -0.845558,0.248769 -1.286669,0.250667 -0.441111,-0.002 -0.878353,-0.08729 -1.286575,-0.25255 -0.02128,-0.0059 -0.04257,-0.01328 -0.06578,-0.02283 -0.394679,-0.165202 -0.756467,-0.402561 -1.064084,-0.698785 -0.01934,-0.01893 -0.03869,-0.03802 -0.05805,-0.05694 -0.301813,-0.30192 -0.54365,-0.657009 -0.713903,-1.046277 -0.0078,-0.02088 -0.01548,-0.04177 -0.02128,-0.06265 -0.168313,-0.400748 -0.255375,-0.829893 -0.257309,-1.262836 0.0019,-0.432943 0.08899,-0.862088 0.25538,-1.262748 0.0078,-0.02088 0.01548,-0.04177 0.02322,-0.06461 0.170253,-0.387371 0.41209,-0.742459 0.713903,-1.04438 l 0.05804,-0.05694 c 0.307618,-0.296223 0.669406,-0.533581 1.064085,-0.700683 0.02322,-0.0078 0.04449,-0.01518 0.06578,-0.02283 C 34.871647,26.44925 35.308889,26.363799 35.75,26.3619 Z m 0,0"
     id="path30"
     style="fill:url(#b);stroke-width:0.490676" />
  <path
     d="m 35.75,21.500005 c -4.651017,0 -8.419811,3.698997 -8.419811,8.263885 0,4.564887 3.768794,8.263885 8.419811,8.263885 4.651017,0 8.419811,-3.698998 8.419811,-8.263885 0,-4.564888 -3.768794,-8.263885 -8.419811,-8.263885 z m 0,4.8611 c 1.915352,0 3.466981,1.522906 3.466981,3.402785 0,1.879879 -1.551629,3.40277 -3.466981,3.40277 -1.915352,0 -3.466981,-1.522891 -3.466981,-3.40277 0,-1.879879 1.551629,-3.402785 3.466981,-3.402785 z m 0,0"
     fill="#757c9b"
     id="path31"
     style="stroke-width:0.490676" />
  <path
     d="m 21.874337,11.137857 c -7.406029,4.756678 -11.87325,12.855366 -11.879054,21.542693 0.01548,1.986224 0.266989,3.962952 0.744859,5.89411 1.590324,4.889587 4.629736,9.143055 8.62102,12.279995 1.476176,-0.56397 2.520913,-1.96343 2.520913,-3.615445 V 11.26698 c 0,-0.04372 -0.0058,-0.08549 -0.0078,-0.129123 z m 0,0"
     fill-opacity="0.129412"
     id="path32"
     style="stroke-width:0.490676" />
  <path
     d="m 3.968,14 h 13.888 c 2.191313,0 3.968,1.791016 3.968,4 v 30 c 0,2.208985 -1.776687,4 -3.968,4 H 3.968 C 1.7766874,52 0,50.208985 0,48 V 18 c 0,-2.208984 1.7766874,-4 3.968,-4 z m 0,0"
     id="path33"
     style="fill:url(#c);stroke-width:0.497996" />
  <path
     d="m 35.75,22.472225 c -4.103497,0 -7.429245,3.264152 -7.429245,7.291665 0,4.027498 3.325748,7.291665 7.429245,7.291665 4.103497,0 7.429245,-3.264167 7.429245,-7.291665 0,-4.027513 -3.325748,-7.291665 -7.429245,-7.291665 z m 0,3.88888 c 0.07545,0 0.148971,0.002 0.224425,0.0078 0.01741,0.002 0.03482,0.002 0.05223,0.0039 0.05611,0.0039 0.112211,0.01142 0.168318,0.01713 0.02128,0.0039 0.04257,0.0059 0.06385,0.0078 0.0039,0.002 0.0058,0.002 0.0097,0.002 0.06577,0.01142 0.129625,0.02283 0.195405,0.03606 0.01741,0.0039 0.03289,0.0078 0.0503,0.0098 0.06191,0.01518 0.125756,0.03035 0.187666,0.04748 0.01161,0.0039 0.02515,0.0078 0.03676,0.0098 0.06771,0.02089 0.133494,0.04177 0.199273,0.06641 0.01934,0.0078 0.03869,0.01518 0.05997,0.02088 0.05417,0.02088 0.108343,0.04372 0.164449,0.06641 0.01354,0.0078 0.02902,0.01327 0.0445,0.02088 0.05997,0.0266 0.118017,0.05508 0.177992,0.08549 0.0019,0.002 0.0039,0.0039 0.0078,0.0059 0.02128,0.01142 0.04257,0.02283 0.06385,0.03606 0.04449,0.02464 0.09093,0.05123 0.135429,0.07978 0.01741,0.0098 0.03676,0.02089 0.05417,0.0323 0.06191,0.03982 0.121887,0.07978 0.179928,0.123427 0,0 0.0019,0 0.0019,0.002 0.0039,0.002 0.0058,0.0039 0.0097,0.0078 0.05223,0.03802 0.104474,0.07783 0.154776,0.121529 0.01548,0.01327 0.03095,0.0266 0.04837,0.03982 0.05417,0.04748 0.108343,0.09689 0.160579,0.148113 0.05224,0.05124 0.10254,0.104437 0.150907,0.159504 0.01354,0.01518 0.02709,0.03035 0.04257,0.04748 0.04257,0.04748 0.08319,0.09873 0.123821,0.150012 0.0019,0.0039 0.0039,0.0059 0.0078,0.0098 0,0 0,0.002 0.0019,0.002 0.04257,0.05694 0.08319,0.115831 0.123821,0.176594 0.01161,0.01713 0.02322,0.03606 0.03482,0.05319 0.02709,0.04372 0.05417,0.08925 0.08126,0.134821 0.01161,0.01893 0.02322,0.03981 0.03482,0.06265 0.0019,0.002 0.0039,0.0039 0.0058,0.0078 0.03096,0.05694 0.05997,0.113931 0.08706,0.172796 0.0078,0.01518 0.01354,0.03035 0.02128,0.04552 0.02322,0.05319 0.04643,0.106337 0.06771,0.161406 0.0058,0.01893 0.01354,0.03802 0.02128,0.0589 0.02515,0.06265 0.04643,0.127224 0.06771,0.193683 0.0019,0.01142 0.0058,0.02464 0.0097,0.03802 0.01741,0.0589 0.03289,0.121527 0.04837,0.182291 0.0019,0.01713 0.0058,0.0323 0.0097,0.04942 0.01354,0.06461 0.02515,0.129122 0.03676,0.193684 0,0.0019 0,0.0059 0.0019,0.0078 0.0019,0.02089 0.0039,0.04177 0.0078,0.06461 0.0058,0.05319 0.01354,0.108236 0.01741,0.165202 0.0019,0.01518 0.0019,0.0323 0.0039,0.04942 0.0058,0.07407 0.0078,0.14621 0.0078,0.220267 -0.0019,0.20128 -0.02128,0.400661 -0.05997,0.598144 -0.0097,0.05319 -0.02128,0.104438 -0.03482,0.155707 -0.03676,0.15381 -0.08319,0.30382 -0.139298,0.450033 -0.01741,0.04748 -0.03482,0.09496 -0.05223,0.140516 -0.08125,0.184191 -0.176058,0.358887 -0.286335,0.524088 -0.01934,0.02853 -0.04063,0.05508 -0.06191,0.08162 -0.09867,0.138618 -0.208948,0.269639 -0.326964,0.391168 -0.03869,0.03983 -0.07933,0.07978 -0.118017,0.115831 -0.125756,0.11773 -0.25925,0.225966 -0.398548,0.322807 -0.02902,0.02088 -0.05611,0.04177 -0.08319,0.06071 -0.170253,0.108236 -0.348246,0.201281 -0.533977,0.279135 -0.04837,0.01893 -0.09673,0.03606 -0.143167,0.05319 -0.150907,0.0551 -0.303748,0.10064 -0.458524,0.136719 -0.05417,0.01329 -0.106408,0.02464 -0.160579,0.03417 -0.20121,0.03801 -0.404354,0.05694 -0.609432,0.0589 -0.205078,-0.002 -0.408222,-0.02088 -0.609431,-0.0589 -0.05417,-0.0098 -0.106408,-0.02088 -0.158644,-0.03417 -0.156711,-0.03606 -0.309552,-0.08162 -0.458525,-0.136719 -0.04837,-0.01713 -0.09674,-0.03415 -0.143167,-0.05123 -0.187666,-0.07978 -0.365658,-0.172797 -0.533977,-0.281032 -0.02902,-0.01893 -0.05611,-0.03981 -0.08319,-0.06071 -0.141232,-0.0969 -0.274726,-0.205078 -0.398547,-0.320909 -0.04063,-0.03801 -0.08126,-0.07783 -0.118017,-0.115832 -0.119951,-0.123426 -0.230229,-0.254448 -0.328899,-0.391167 -0.02128,-0.02851 -0.04257,-0.05506 -0.06191,-0.08161 -0.110278,-0.1671 -0.205078,-0.341798 -0.284402,-0.524089 -0.01934,-0.04748 -0.03676,-0.09496 -0.05417,-0.140516 -0.05611,-0.148113 -0.102539,-0.298122 -0.139299,-0.450032 -0.01354,-0.05319 -0.02515,-0.104439 -0.03482,-0.157607 -0.03885,-0.197699 -0.0582,-0.397081 -0.06013,-0.598362 0.0019,-0.20128 0.02128,-0.400661 0.05997,-0.598145 0.0097,-0.05319 0.02128,-0.104436 0.03482,-0.157605 0.03676,-0.15191 0.08319,-0.301921 0.139298,-0.450033 0.01741,-0.04552 0.03482,-0.093 0.05417,-0.140517 0.07933,-0.182291 0.174124,-0.356987 0.284401,-0.524088 0.01934,-0.0266 0.04063,-0.05319 0.06191,-0.0816 0.09867,-0.136719 0.208948,-0.267741 0.328899,-0.391167 0.03676,-0.03802 0.07739,-0.07783 0.118017,-0.115832 0.123821,-0.115832 0.257315,-0.224068 0.398547,-0.320909 0.02709,-0.02088 0.05417,-0.04177 0.08319,-0.06073 0.168319,-0.108237 0.346312,-0.20128 0.533977,-0.281034 0.04643,-0.01713 0.0948,-0.03416 0.143168,-0.05123 0.148972,-0.0551 0.301813,-0.100639 0.458524,-0.136717 0.05223,-0.01325 0.104473,-0.02464 0.158644,-0.03414 0.201219,-0.03802 0.404363,-0.05696 0.609441,-0.05891 z m 0,0"
     fill="#d8dae5"
     id="path34"
     style="stroke-width:0.490676" />
  <path
     d="m 3.968,5 h 13.888 c 2.191313,0 3.968,1.7910155 3.968,4 v 32 c 0,2.208984 -1.776687,4 -3.968,4 H 3.968 C 1.7766874,45 0,43.208984 0,41 V 9 C 0,6.7910155 1.7766874,5 3.968,5 Z m 0,0"
     id="path35"
     style="fill:#20c997;stroke-width:0.497996" />
  <path
     d="m 5.952,47 h 9.92 c 1.369813,0 2.48,1.34375 2.48,3 v 5 c 0,1.65625 -1.110187,3 -2.48,3 h -9.92 c -1.3698126,0 -2.48,-1.34375 -2.48,-3 v -5 c 0,-1.65625 1.1101874,-3 2.48,-3 z m 0,0"
     fill="url(#d)"
     id="path36"
     style="fill:url(#d);stroke-width:0.497996" />
  <path
     d="M 5.704,53.5 H 16.12 c 1.23225,0 2.232,1.007815 2.232,2.25 0,1.24219 -0.99975,2.25 -2.232,2.25 H 5.704 c -1.23225,0 -2.232,-1.00781 -2.232,-2.25 0,-1.242185 0.99975,-2.25 2.232,-2.25 z m 0,0"
     fill="url(#e)"
     id="path37"
     style="fill:url(#e);stroke-width:0.497996" />
  <path
     d="M 5.704,54 H 16.12 c 0.959063,0 1.736,0.783205 1.736,1.75 0,0.966795 -0.776937,1.75 -1.736,1.75 H 5.704 C 4.7449374,57.5 3.968,56.716795 3.968,55.75 3.968,54.783205 4.7449374,54 5.704,54 Z m 0,0"
     fill="url(#f)"
     id="path38"
     style="fill:url(#f);stroke-width:0.497996" />
  <path
     d="m 11.404125,17 h -0.992 l -1.9839998,4 h 1.488 v 5 h -2.976 v -1.269531 c 0.6122496,-0.359375 0.992,-1.015625 0.992,-1.730469 0,-1.105469 -0.8873752,-2 -1.984,-2 -1.0966252,0 -1.984,0.894531 -1.984,2 0,0.714844 0.3797496,1.375 0.992,1.730469 V 26 c 0,2 1.984,2 1.984,2 h 2.976 v 1.269531 c -0.6122504,0.359375 -0.992,1.015625 -0.992,1.730469 0,1.105469 0.8873748,2 1.9839998,2 1.096625,0 1.984,-0.894531 1.984,-2 0,-0.714844 -0.37975,-1.375 -0.992,-1.730469 V 28 h 2.976 c 0,0 1.984,0 1.984,-2 v -1 c 0,0 1.116,-0.1875 0.992,-1 v -2 c 0.124,-1.125 -0.992,-1 -0.992,-1 h -1.984 c -1.054,0 -0.992,1 -0.992,1 v 2 c 0,1 0.992,1 0.992,1 v 1 h -2.976 v -5 h 1.488 z m 0,0"
     fill="#dd4e00"
     id="path39"
     style="fill:#168967;stroke-width:0.497996" />
  <path
     d="m 0,41 v 1 c 0,2.216797 1.7689374,4 3.968,4 h 13.888 c 2.199063,0 3.968,-1.783203 3.968,-4 v -1 c 0,2.216797 -1.768937,4 -3.968,4 H 3.968 C 1.7689374,45 0,43.216797 0,41 Z m 0,0"
     id="path40"
     style="fill:#1ba97f;stroke-width:0.497996" />
  <path
     d="m 5.952,47 c -1.3736874,0 -2.48,1.33789 -2.48,3 v 1 c 0,-1.66211 1.1063126,-3 2.48,-3 h 9.92 c 1.373687,0 2.48,1.33789 2.48,3 v -1 c 0,-1.66211 -1.106313,-3 -2.48,-3 z m 0,0"
     fill-opacity="0.078431"
     id="path41"
     style="stroke-width:0.497996" />
</svg>
