<?xml version="1.0" encoding="UTF-8" standalone="no"?>
<svg
   width="62"
   height="62"
   version="1.1"
   id="svg5"
   sodipodi:docname="veusz.svg"
   inkscape:version="1.4 (unknown)"
   xmlns:inkscape="http://www.inkscape.org/namespaces/inkscape"
   xmlns:sodipodi="http://sodipodi.sourceforge.net/DTD/sodipodi-0.dtd"
   xmlns:xlink="http://www.w3.org/1999/xlink"
   xmlns="http://www.w3.org/2000/svg"
   xmlns:svg="http://www.w3.org/2000/svg">
  <defs
     id="defs5">
    <linearGradient
       id="linearGradient4"
       inkscape:collect="always">
      <stop
         style="stop-color:#0ba10b;stop-opacity:1;"
         offset="0"
         id="stop5" />
      <stop
         style="stop-color:#99f499;stop-opacity:1;"
         offset="1"
         id="stop6" />
    </linearGradient>
    <linearGradient
       id="linearGradient1"
       inkscape:collect="always">
      <stop
         style="stop-color:#0e141b;stop-opacity:1;"
         offset="0"
         id="stop1" />
      <stop
         style="stop-color:#2a2aff;stop-opacity:1"
         offset="0.7843973"
         id="stop11" />
      <stop
         style="stop-color:#c2cbe3;stop-opacity:1;"
         offset="0.99999994"
         id="stop13" />
      <stop
         style="stop-color:#d4ddf7;stop-opacity:1;"
         offset="1"
         id="stop3" />
    </linearGradient>
    <linearGradient
       id="linearGradient8"
       inkscape:collect="always">
      <stop
         style="stop-color:#2d3d53;stop-opacity:1;"
         offset="0"
         id="stop8" />
      <stop
         style="stop-color:#354864;stop-opacity:1;"
         offset="1"
         id="stop10" />
    </linearGradient>
    <linearGradient
       id="linearGradient4217">
      <stop
         style="stop-color:#000000;stop-opacity:1;"
         offset="0"
         id="stop2" />
      <stop
         style="stop-color:#000000;stop-opacity:0;"
         offset="1"
         id="stop4" />
    </linearGradient>
    <linearGradient
       id="linearGradient4161">
      <stop
         style="stop-color:#334545;stop-opacity:1;"
         offset="0"
         id="stop7" />
      <stop
         style="stop-color:#4d6868;stop-opacity:1"
         offset="1"
         id="stop9" />
    </linearGradient>
    <linearGradient
       id="a-1-2"
       y1="510.79999"
       y2="527.14001"
       gradientUnits="userSpaceOnUse"
       x2="0">
      <stop
         stop-color="#7cbaf8"
         id="stop2-2-7" />
      <stop
         offset="1"
         stop-color="#f4fcff"
         id="stop4-70-0" />
    </linearGradient>
    <linearGradient
       id="c"
       y1="503.79999"
       x1="400.57001"
       y2="519.79999"
       x2="416.57001"
       gradientUnits="userSpaceOnUse">
      <stop
         stop-color="#292c2f"
         id="stop12" />
      <stop
         offset="1"
         stop-opacity="0"
         id="stop14" />
    </linearGradient>
    <linearGradient
       id="b"
       y1="542.79999"
       x1="408.57001"
       y2="521.79999"
       x2="387.57001"
       gradientUnits="userSpaceOnUse"
       gradientTransform="translate(-384.57,-499.8)">
      <stop
         stop-color="#197cf1"
         id="stop7-8" />
      <stop
         offset="1"
         stop-color="#20bcfa"
         id="stop9-7" />
    </linearGradient>
    <linearGradient
       xlink:href="#linearGradient1389"
       id="linearGradient4503-5-6"
       y1="37"
       y2="4"
       x2="0"
       gradientUnits="userSpaceOnUse"
       gradientTransform="matrix(1.0218446,0,0,0.99999999,21.748946,8.2587777)" />
    <linearGradient
       id="linearGradient1389">
      <stop
         style="stop-color:#ffaaaa;stop-opacity:1"
         id="stop1385"
         offset="0" />
      <stop
         offset="1"
         style="stop-color:#ff5555;stop-opacity:1"
         id="stop1387" />
    </linearGradient>
    <linearGradient
       id="paint543_linear_890_11"
       x1="978.5"
       y1="298"
       x2="978.5"
       y2="304"
       gradientUnits="userSpaceOnUse"
       gradientTransform="matrix(0.75000004,0,0,0.75000004,-717.38333,-173.49123)">
      <stop
         offset="0.189495"
         stop-color="#EFF2F6"
         id="stop1829" />
      <stop
         offset="0.850463"
         stop-color="#B7C6CD"
         id="stop1830" />
    </linearGradient>
    <linearGradient
       inkscape:collect="always"
       xlink:href="#linearGradient8"
       id="linearGradient10"
       x1="31.5"
       y1="59.017544"
       x2="31.5"
       y2="4.9824562"
       gradientUnits="userSpaceOnUse"
       gradientTransform="translate(-0.5,-1)" />
    <linearGradient
       id="linearGradient4144">
      <stop
         style="stop-color:#c83771;stop-opacity:1"
         offset="0"
         id="stop1141" />
      <stop
         style="stop-color:#de87aa;stop-opacity:1"
         offset="1"
         id="stop1143" />
    </linearGradient>
    <linearGradient
       id="c-0"
       gradientUnits="userSpaceOnUse"
       x1="10"
       x2="24"
       y1="10"
       y2="24"
       gradientTransform="translate(59.728813,26.237288)">
      <stop
         offset="0"
         stop-color="#292c2f"
         id="stop12-2" />
      <stop
         offset="1"
         stop-opacity="0"
         id="stop14-3" />
    </linearGradient>
    <linearGradient
       id="d"
       gradientUnits="userSpaceOnUse"
       x1="24"
       x2="24"
       y1="25"
       y2="7"
       gradientTransform="translate(59.728813,26.237288)">
      <stop
         offset="0"
         stop-color="#bb9d71"
         id="stop2-7" />
      <stop
         offset="1"
         stop-color="#f9f2e7"
         id="stop4-5" />
    </linearGradient>
    <linearGradient
       inkscape:collect="always"
       xlink:href="#linearGradient1"
       id="linearGradient3"
       x1="19.918097"
       y1="57.5"
       x2="21.023449"
       y2="78.897827"
       gradientUnits="userSpaceOnUse" />
    <linearGradient
       inkscape:collect="always"
       xlink:href="#linearGradient4"
       id="linearGradient6"
       x1="17.654526"
       y1="98.064415"
       x2="17.929796"
       y2="76.5"
       gradientUnits="userSpaceOnUse" />
  </defs>
  <sodipodi:namedview
     id="namedview5"
     pagecolor="#ffffff"
     bordercolor="#000000"
     borderopacity="0.25"
     inkscape:showpageshadow="2"
     inkscape:pageopacity="0.0"
     inkscape:pagecheckerboard="0"
     inkscape:deskcolor="#d1d1d1"
     inkscape:zoom="8.2643105"
     inkscape:cx="25.410468"
     inkscape:cy="30.311059"
     inkscape:window-width="1920"
     inkscape:window-height="998"
     inkscape:window-x="0"
     inkscape:window-y="0"
     inkscape:window-maximized="1"
     inkscape:current-layer="svg5"
     showgrid="true">
    <inkscape:grid
       id="grid3"
       units="px"
       originx="0"
       originy="0"
       spacingx="1"
       spacingy="1"
       empcolor="#0099e5"
       empopacity="0.30196078"
       color="#0099e5"
       opacity="0.14901961"
       empspacing="5"
       enabled="true"
       visible="true" />
  </sodipodi:namedview>
  <rect
     style="opacity:0.2;stroke-width:0.9823"
     width="55"
     height="55.017544"
     x="3.5"
     y="3.9824562"
     rx="8.25"
     ry="8.2526312"
     id="rect1" />
  <rect
     style="fill:url(#linearGradient10);stroke-width:0.9823"
     width="55"
     height="55.017544"
     x="3.5"
     y="3"
     rx="8.25"
     ry="8.2526312"
     id="rect2" />
  <path
     style="opacity:0.1;fill:#ffffff;stroke-width:0.9823"
     d="M 11.748466,3 C 7.1779652,3 3.5,6.6791384 3.5,11.251097 v 0.982456 c 0,-4.5719585 3.6779652,-8.2510969 8.248466,-8.2510969 h 38.503068 c 4.5705,0 8.248466,3.6791384 8.248466,8.2510969 V 11.251097 C 58.5,6.6791384 54.822034,3 50.251534,3 Z"
     id="path4" />
  <g
     id="g1"
     transform="matrix(1.0058847,0,0,1,4.9646923,-47.500001)">
    <path
       style="opacity:0.1"
       d="M 16.130972,58.8 V 98.064418 H 16 v 0.735584 H 45.765988 V 98.064418 H 17.654526 l -0.309524,-0.686936 -0.739856,0.67945 V 58.8 Z m 6.447578,6.357234 -0.436218,0.835015 -0.934982,0.1144 0.65967,0.672502 -0.1807,0.92429 0.843568,-0.41911 0.823788,0.457066 -0.13792,-0.931774 0.689074,-0.642032 -0.9291,-0.15664 z m 4.792514,2.802808 -0.27317,0.449582 -0.525492,0.0294 0.3432,0.398798 -0.13418,0.50892 0.4854,-0.203142 0.442098,0.28493 -0.04278,-0.524422 0.407348,-0.332512 -0.512126,-0.12134 z m -6.499966,1.542266 -0.634546,0.537784 -0.802942,-0.218642 0.315402,0.77033 -0.455462,0.696026 0.829134,-0.06202 0.521218,0.648446 0.1978,-0.808286 0.777816,-0.295088 -0.707784,-0.43782 z m 17.443906,1.017306 -0.325562,0.238956 -0.381156,-0.13258 0.1267,0.383294 -0.243768,0.321284 0.403608,-0.002 0.230404,0.33144 0.12296,-0.384362 0.385966,-0.11708 -0.327696,-0.235216 z m -13.138928,4.021116 -0.243234,0.42018 -0.48433,0.03796 0.32449,0.361376 -0.11388,0.472572 0.444236,-0.19726 0.4143,0.254462 -0.05026,-0.483264 0.369394,-0.315402 -0.47524,-0.10158 z m 11.398864,0.761778 -0.47524,0.453324 -0.6431,-0.13418 0.28493,0.591782 -0.32663,0.570396 0.651122,-0.08768 0.441562,0.48647 0.11762,-0.646308 0.598728,-0.26943 -0.577882,-0.31166 z m -16.043836,3.377482 -0.508386,1.009822 -1.12048,0.15342 0.803474,0.79599 -0.200468,1.112464 1.00501,-0.51801 0.996458,0.534046 -0.18176,-1.11567 0.81577,-0.782626 -1.117274,-0.1716 z m 13.835484,2.432874 0.278516,0.951022 -0.278516,0.951018 0.95102,-0.278518 0.951018,0.278518 -0.278514,-0.951018 0.278514,-0.951022 -0.951018,0.278516 z m -2.445706,0.13578 -0.68747,0.422854 -0.80722,-0.0148 0.422854,0.687468 -0.0148,0.806684 0.687472,-0.42232 0.807216,0.0148 -0.422854,-0.68747 z m -12.4568,2.850918 -0.14808,0.691748 -0.653792,0.270498 0.612632,0.35496 0.05506,0.705648 0.526562,-0.473104 0.688004,0.16572 -0.287068,-0.646842 0.36993,-0.603542 -0.704044,0.07324 z m 14.96238,3.007018 -0.892748,0.570398 -1.046178,-0.316472 0.34748,0.914664 -0.669296,0.76766 1.10765,-0.0048 0.632944,0.790644 0.336784,-0.91734 1.060076,-0.27905 -0.899166,-0.56238 z m -6.980556,0.289742 -0.46562,0.463482 -0.646308,-0.12082 0.297226,0.586436 -0.314866,0.57681 0.649516,-0.10104 0.45172,0.477382 0.10424,-0.64898 0.593384,-0.281728 -0.584832,-0.299898 z m 8.960108,1.34447 0.15824,0.883662 -0.706184,0.619578 0.967594,0.13578 0.42606,0.805614 0.439958,-0.799734 0.969196,-0.12188 -0.69549,-0.629734 0.17268,-0.88099 -0.869226,0.410558 z m -9.710126,2.100366 -0.415902,0.560244 -0.751086,0.0102 0.46562,0.528164 -0.220782,0.6431 0.704042,-0.234144 0.61477,0.387034 -0.03102,-0.672502 0.600868,-0.403608 -0.723288,-0.18176 z m 5.36131,1.519278 -0.377948,0.90665 -1.021582,0.22613 0.81577,0.612628 -0.0834,0.969194 0.881522,-0.528164 0.96973,0.372602 -0.269962,-0.93926 0.682658,-0.73879 -1.048846,-0.05186 z m -7.139324,0.209022 -0.603542,0.844102 -1.089474,0.0156 0.67571,0.795454 -0.320748,0.969196 1.021582,-0.352824 0.891148,0.583762 -0.04436,-1.013564 0.871368,-0.608352 -1.048848,-0.273706 z m 12.65406,0.14594 0.15824,0.883126 -0.70618,0.620114 0.96759,0.13524 0.426062,0.805614 0.43996,-0.799198 0.969192,-0.1224 -0.695486,-0.629202 0.17268,-0.88099 -0.869228,0.410024 z"
       id="path2-6" />
    <path
       style="fill:#cfd5e2;fill-opacity:1"
       d="M 16.130972,58 V 97.264418 H 16 v 0.735584 H 45.765988 V 97.264418 H 17.654526 l -0.309524,-0.686936 -0.739856,0.67945 V 58 Z m 6.447578,6.357234 -0.436218,0.835015 -0.934982,0.1144 0.65967,0.672503 -0.1807,0.92429 0.843568,-0.41911 0.823788,0.457066 -0.13792,-0.931774 0.689074,-0.642032 -0.9291,-0.156632 z m 4.792514,2.802808 -0.27317,0.449582 -0.525492,0.0294 0.3432,0.398798 -0.13418,0.50892 0.4854,-0.203142 0.442098,0.28493 -0.04278,-0.524422 0.407348,-0.332512 -0.512126,-0.12134 z m -6.499966,1.542266 -0.634546,0.537784 -0.802942,-0.218642 0.315402,0.77033 -0.455462,0.696026 0.829134,-0.06202 0.521218,0.648446 0.1978,-0.808286 0.777816,-0.295088 -0.707784,-0.43782 z m 17.443906,1.017306 -0.325562,0.238956 -0.381156,-0.13258 0.1267,0.383294 -0.243768,0.321284 0.403608,-0.002 0.230404,0.33144 0.12296,-0.384362 0.385966,-0.11708 -0.327696,-0.235216 z m -13.138928,4.021116 -0.243234,0.42018 -0.48433,0.03796 0.32449,0.361376 -0.11388,0.472572 0.444236,-0.19726 0.4143,0.254462 -0.05026,-0.483264 0.369394,-0.315402 -0.47524,-0.10158 z m 11.398864,0.761778 -0.47524,0.453324 -0.6431,-0.13418 0.28493,0.591782 -0.32663,0.570396 0.651122,-0.08768 0.441562,0.48647 0.11762,-0.646308 0.598728,-0.26943 -0.577882,-0.31166 z m -16.043836,3.377482 -0.508386,1.009822 -1.12048,0.15342 0.803474,0.79599 -0.200468,1.112464 1.00501,-0.51801 0.996458,0.534046 -0.18176,-1.11567 0.81577,-0.782626 -1.117274,-0.1716 z m 13.835484,2.432874 0.278516,0.951022 -0.278516,0.951018 0.95102,-0.278518 0.951018,0.278518 -0.278514,-0.951018 0.278514,-0.951022 -0.951018,0.278516 z m -2.445706,0.13578 -0.68747,0.422854 -0.80722,-0.0148 0.422854,0.687468 -0.0148,0.806684 0.687472,-0.42232 0.807216,0.0148 -0.422854,-0.68747 z m -12.4568,2.850918 -0.14808,0.691748 -0.653792,0.270498 0.612632,0.35496 0.05506,0.705648 0.526562,-0.473104 0.688004,0.16572 -0.287068,-0.646842 0.36993,-0.603542 -0.704044,0.07324 z m 14.96238,3.007018 -0.892748,0.570398 -1.046178,-0.316472 0.34748,0.914664 -0.669296,0.76766 1.10765,-0.0048 0.632944,0.790644 0.336784,-0.91734 1.060076,-0.27905 -0.899166,-0.56238 z m -6.980556,0.289742 -0.46562,0.463482 -0.646308,-0.12082 0.297226,0.586436 -0.314866,0.57681 0.649516,-0.10104 0.45172,0.477382 0.10424,-0.64898 0.593384,-0.281728 -0.584832,-0.299898 z m 8.960108,1.34447 0.15824,0.883662 -0.706184,0.619578 0.967594,0.13578 0.42606,0.805614 0.439958,-0.799734 0.969196,-0.12188 -0.69549,-0.629734 0.17268,-0.88099 -0.869226,0.410558 z m -9.710126,2.100366 -0.415902,0.560244 -0.751086,0.0102 0.46562,0.528164 -0.220782,0.6431 0.704042,-0.234144 0.61477,0.387034 -0.03102,-0.672502 0.600868,-0.403608 -0.723288,-0.18176 z m 5.36131,1.519278 -0.377948,0.90665 -1.021582,0.22613 0.81577,0.612628 -0.0834,0.969194 0.881522,-0.528164 0.96973,0.372602 -0.269962,-0.93926 0.682658,-0.73879 -1.048846,-0.05186 z m -7.139324,0.209022 -0.603542,0.844102 -1.089474,0.0156 0.67571,0.795454 -0.320748,0.969196 1.021582,-0.352824 0.891148,0.583762 -0.04436,-1.013564 0.871368,-0.608352 -1.048848,-0.273706 z m 12.65406,0.14594 0.15824,0.883126 -0.70618,0.620114 0.96759,0.13524 0.426062,0.805614 0.43996,-0.799198 0.969192,-0.1224 -0.695486,-0.629202 0.17268,-0.88099 -0.869228,0.410024 z"
       id="path3" />
    <path
       style="opacity:0.1"
       d="m 6,59.000002 2.796875,21.035156 2.519531,18.964844 h 7.09375 l 13.328126,-22.398438 -6.0625,0.910156 -9.76172,16.625 -1.855468,-14.886718 -2.523438,-20.25 z M 31.738282,76.601564 42.210938,59.000002 h -5.66797 L 25.675782,77.507814 Z"
       id="path4-7" />
    <path
       style="fill:url(#linearGradient6)"
       d="m 31.739398,75.600446 -6.063056,0.9096 -9.762838,16.626674 -1.85547,-14.888392 -5.262275,0.786828 2.522321,18.964846 h 7.092634 z"
       id="path5" />
    <path
       style="fill:url(#linearGradient3);fill-opacity:1"
       d="m 6,58.000116 2.797046,21.035866 5.260444,-0.787106 -2.523574,-20.24876 z m 30.543992,0 -10.867964,18.509068 6.062592,-0.907452 10.473606,-17.601616 z"
       id="path6" />
  </g>
</svg>
