<?xml version="1.0" encoding="UTF-8" standalone="no"?>
<!-- Created with Inkscape (http://www.inkscape.org/) -->

<svg
   width="62"
   height="62"
   viewBox="0 0 62.000001 62.000001"
   id="svg2"
   version="1.1"
   inkscape:version="1.4 (e7c3feb100, 2024-10-09)"
   sodipodi:docname="io.github.seadve.Mousai.svg"
   xmlns:inkscape="http://www.inkscape.org/namespaces/inkscape"
   xmlns:sodipodi="http://sodipodi.sourceforge.net/DTD/sodipodi-0.dtd"
   xmlns:xlink="http://www.w3.org/1999/xlink"
   xmlns="http://www.w3.org/2000/svg"
   xmlns:svg="http://www.w3.org/2000/svg"
   xmlns:rdf="http://www.w3.org/1999/02/22-rdf-syntax-ns#"
   xmlns:cc="http://creativecommons.org/ns#"
   xmlns:dc="http://purl.org/dc/elements/1.1/">
  <defs
     id="defs4">
    <linearGradient
       id="linearGradient2"
       inkscape:collect="always">
      <stop
         style="stop-color:#00ccff;stop-opacity:1"
         offset="0"
         id="stop2" />
      <stop
         style="stop-color:#bc5fd3;stop-opacity:1"
         offset="1"
         id="stop3" />
    </linearGradient>
    <linearGradient
       id="linearGradient4450"
       inkscape:collect="always">
      <stop
         id="stop4452"
         offset="0"
         style="stop-color:#6e3a84;stop-opacity:1" />
      <stop
         id="stop4454"
         offset="1"
         style="stop-color:#a75ec4;stop-opacity:1" />
    </linearGradient>
    <linearGradient
       inkscape:collect="always"
       xlink:href="#linearGradient4450"
       id="linearGradient4148"
       x1="24"
       y1="1048.3622"
       x2="24"
       y2="1008.3622"
       gradientUnits="userSpaceOnUse" />
    <linearGradient
       id="linearGradient4202">
      <stop
         style="stop-color:#a17bdb;stop-opacity:1;"
         offset="0"
         id="stop7-3" />
      <stop
         style="stop-color:#00ccff;stop-opacity:1;"
         offset="1"
         id="stop9-6" />
    </linearGradient>
    <linearGradient
       inkscape:collect="always"
       xlink:href="#linearGradient2"
       id="linearGradient3"
       x1="7.1767769"
       y1="1044.7366"
       x2="30.615223"
       y2="1029.7106"
       gradientUnits="userSpaceOnUse"
       gradientTransform="translate(-57.098873,-12.5754)" />
  </defs>
  <sodipodi:namedview
     id="base"
     pagecolor="#ffffff"
     bordercolor="#666666"
     borderopacity="1.0"
     inkscape:pageopacity="0.0"
     inkscape:pageshadow="2"
     inkscape:zoom="5.6568542"
     inkscape:cx="8.2201164"
     inkscape:cy="28.107495"
     inkscape:document-units="px"
     inkscape:current-layer="layer1"
     showgrid="true"
     units="px"
     showborder="true"
     inkscape:snap-bbox="true"
     inkscape:bbox-nodes="true"
     inkscape:snap-bbox-midpoints="true"
     inkscape:snap-grids="false"
     inkscape:window-width="1920"
     inkscape:window-height="994"
     inkscape:window-x="0"
     inkscape:window-y="0"
     inkscape:window-maximized="1"
     inkscape:showpageshadow="2"
     inkscape:pagecheckerboard="0"
     inkscape:deskcolor="#d1d1d1">
    <inkscape:grid
       type="xygrid"
       id="grid4136"
       originx="0"
       originy="-2"
       visible="true"
       enabled="false"
       spacingy="1"
       spacingx="1"
       units="px" />
  </sodipodi:namedview>
  <metadata
     id="metadata7">
    <rdf:RDF>
      <cc:Work
         rdf:about="">
        <dc:format>image/svg+xml</dc:format>
        <dc:type
           rdf:resource="http://purl.org/dc/dcmitype/StillImage" />
      </cc:Work>
    </rdf:RDF>
  </metadata>
  <g
     inkscape:label="Layer 1"
     inkscape:groupmode="layer"
     id="layer1"
     transform="translate(0,-1004.3622)">
    <circle
       style="opacity:1;fill:url(#linearGradient4148);fill-opacity:1;stroke:none;stroke-width:2;stroke-miterlimit:4;stroke-dasharray:none;stroke-opacity:1"
       id="path4140"
       cx="24"
       cy="1028.3622"
       r="0" />
    <g
       id="g1"
       transform="matrix(1.3333333,0,0,1.3333333,69.798496,-324.3535)">
      <circle
         id="path4140-7-6"
         cx="-29.098873"
         cy="1019.7868"
         r="21"
         style="fill:url(#linearGradient3);fill-opacity:1" />
      <path
         style="opacity:0.3;fill:#000000;fill-opacity:1;stroke:none;stroke-width:2.1;stroke-miterlimit:4;stroke-dasharray:none;stroke-opacity:1"
         d="m -8.1214251,1019.1752 a 21.000004,21.000004 0 0 1 -20.9774449,20.5612 21.000004,21.000004 0 0 1 -20.977447,-20.3886 21.000004,21.000004 0 0 0 -0.02256,0.4387 21.000004,21.000004 0 0 0 21.000005,20.9999 21.000004,21.000004 0 0 0 21.0000039,-20.9999 21.000004,21.000004 0 0 0 -0.02255,-0.6113 z"
         id="path4140-5-2"
         inkscape:connector-curvature="0" />
      <path
         style="color:#eff0f1;fill:currentColor;fill-opacity:1;stroke:none;stroke-width:2.16669"
         d="m -38.008873,1008.5291 v 2.1662 13.5974 c -0.639168,-0.3713 -1.371652,-0.5974 -2.166668,-0.5974 -2.400653,0 -4.333332,1.9329 -4.333332,4.3338 0,2.4002 1.932679,4.3331 4.333332,4.3331 2.400657,0 4.333338,-1.9329 4.333338,-4.3331 v -13 h 15.166661 v 4.9305 c -0.639162,-0.372 -1.371662,-0.5974 -2.166662,-0.5974 -2.400664,0 -4.333338,1.9329 -4.333338,4.3331 0,2.4009 1.932674,4.3338 4.333338,4.3338 2.400657,0 4.333331,-1.9329 4.333331,-4.3338 v -15.1662 c 0,-2.1669 -2.278073,-2.1669 -2.278073,-2.1669 h -15.097013 c 0,0 -2.124914,0 -2.124914,2.1669 z m 2.16667,2.1662 h 15.166661 v 2.1669 h -15.166661 z"
         class="ColorScheme-Text"
         id="path4"
         sodipodi:nodetypes="cccsssscccssssccccccccc" />
    </g>
  </g>
</svg>
