<?xml version="1.0" encoding="UTF-8" standalone="no"?>
<svg
   clip-rule="evenodd"
   fill-rule="evenodd"
   viewBox="0 0 62 62"
   version="1.1"
   id="svg7"
   sodipodi:docname="ipython.svg"
   width="62"
   height="62"
   inkscape:version="1.4 (e7c3feb100, 2024-10-09)"
   xmlns:inkscape="http://www.inkscape.org/namespaces/inkscape"
   xmlns:sodipodi="http://sodipodi.sourceforge.net/DTD/sodipodi-0.dtd"
   xmlns="http://www.w3.org/2000/svg"
   xmlns:svg="http://www.w3.org/2000/svg">
  <defs
     id="defs7" />
  <sodipodi:namedview
     id="namedview7"
     pagecolor="#ffffff"
     bordercolor="#000000"
     borderopacity="0.25"
     inkscape:showpageshadow="2"
     inkscape:pageopacity="0.0"
     inkscape:pagecheckerboard="0"
     inkscape:deskcolor="#d1d1d1"
     inkscape:zoom="7.7916667"
     inkscape:cx="20.342246"
     inkscape:cy="32.470588"
     inkscape:window-width="1920"
     inkscape:window-height="994"
     inkscape:window-x="0"
     inkscape:window-y="0"
     inkscape:window-maximized="1"
     inkscape:current-layer="svg7" />
  <linearGradient
     id="a"
     x2="1"
     gradientTransform="matrix(0,-56.001681,56.001681,0,260.2194,58.332906)"
     gradientUnits="userSpaceOnUse">
    <stop
       stop-color="#777"
       offset="0"
       id="stop1" />
    <stop
       stop-color="#9f9f9f"
       offset="1"
       id="stop2" />
  </linearGradient>
  <g
     id="g7"
     transform="translate(0.668,0.668)">
    <path
       d="M 58.332,10.379997 C 58.332,5.9373166 54.726683,2.332 50.284003,2.332 H 10.379997 C 5.9373166,2.332 2.332,5.9373166 2.332,10.379997 v 39.904006 c 0,4.44268 3.6053166,8.047997 8.047997,8.047997 h 39.904006 c 4.44268,0 8.047997,-3.605317 8.047997,-8.047997 z"
       id="path2"
       style="fill:url(#a);stroke-width:1.29223" />
    <path
       d="m 2.332,10.731483 h 56 v 39.199742 h -56 z"
       id="path3"
       style="stroke-width:1.29223;fill:#363d46;fill-opacity:1" />
    <path
       d="m 14.932517,17.731483 h 7 v 2.800259 h -4.201034 v 19.600516 h 4.201034 v 2.800259 h -7 z m 28,25.201034 h -7 v -2.800259 h 4.199741 V 20.531742 h -4.199741 v -2.800259 h 7 z"
       id="path4"
       style="stroke-width:1.29223;fill:#0066ff;fill-opacity:1" />
    <path
       d="m 23.332,23.332 7,12.600517"
       fill="none"
       stroke="#ffffff"
       stroke-width="2.80414"
       id="path5" />
    <path
       d="m 35.932517,23.332 c 0,0 -5.600517,18.199742 -9.800259,18.199742 h -1.400775"
       fill="none"
       stroke="#ffffff"
       stroke-width="2.80414"
       id="path6" />
    <path
       d="m 47.132258,37.332 c 0,0.767584 -0.631899,1.399483 -1.400775,1.399483 -0.767583,0 -1.399483,-0.631899 -1.399483,-1.399483 0,-0.767584 0.6319,-1.399483 1.399483,-1.399483 0.768876,0 1.400775,0.631899 1.400775,1.399483 z m 0,-12.600517 c 0,0.768876 -0.631899,1.400775 -1.400775,1.400775 -0.767583,0 -1.399483,-0.631899 -1.399483,-1.400775 0,-0.767583 0.6319,-1.399483 1.399483,-1.399483 0.768876,0 1.400775,0.6319 1.400775,1.399483 z"
       fill-rule="nonzero"
       id="path7"
       style="stroke-width:1.29223;fill:#267edb;fill-opacity:1" />
  </g>
</svg>
