<?xml version="1.0" encoding="UTF-8" standalone="no"?>
<svg
   width="62"
   height="62"
   version="1"
   id="svg7"
   sodipodi:docname="jami.svg"
   inkscape:version="1.4 (e7c3feb100, 2024-10-09)"
   xmlns:inkscape="http://www.inkscape.org/namespaces/inkscape"
   xmlns:sodipodi="http://sodipodi.sourceforge.net/DTD/sodipodi-0.dtd"
   xmlns:xlink="http://www.w3.org/1999/xlink"
   xmlns="http://www.w3.org/2000/svg"
   xmlns:svg="http://www.w3.org/2000/svg">
  <defs
     id="defs7">
    <linearGradient
       id="linearGradient7"
       inkscape:collect="always">
      <stop
         style="stop-color:#384850;stop-opacity:1;"
         offset="0"
         id="stop8" />
      <stop
         style="stop-color:#384850;stop-opacity:1;"
         offset="0.59162253"
         id="stop10" />
      <stop
         style="stop-color:#eff2f6;stop-opacity:1;"
         offset="0.92173076"
         id="stop11" />
      <stop
         style="stop-color:#eff2f6;stop-opacity:1;"
         offset="1"
         id="stop9" />
    </linearGradient>
    <linearGradient
       id="linearGradient1"
       inkscape:collect="always">
      <stop
         style="stop-color:#566c80;stop-opacity:1;"
         offset="0"
         id="stop5" />
      <stop
         style="stop-color:#566c80;stop-opacity:1;"
         offset="0.28848785"
         id="stop7" />
      <stop
         style="stop-color:#495361;stop-opacity:1;"
         offset="1"
         id="stop6" />
    </linearGradient>
    <linearGradient
       id="c-3"
       gradientUnits="userSpaceOnUse"
       x1="24.072048"
       x2="23.959682"
       y1="0.75082099"
       y2="46.056854">
      <stop
         offset="0"
         stop-color="#fff"
         id="stop3" />
      <stop
         offset="1"
         stop-color="#d9d9d9"
         id="stop4" />
    </linearGradient>
    <linearGradient
       id="b-6"
       gradientUnits="userSpaceOnUse"
       x1="29.203026"
       x2="34.121048"
       xlink:href="#a-7"
       y1="24.827356"
       y2="29.224836" />
    <linearGradient
       id="a-7">
      <stop
         offset="0"
         id="stop1" />
      <stop
         offset="1"
         stop-opacity="0"
         id="stop2" />
    </linearGradient>
    <linearGradient
       id="d"
       gradientUnits="userSpaceOnUse"
       x1="15.948756"
       x2="25.031786"
       xlink:href="#a-7"
       y1="23.618279"
       y2="33.69899" />
    <linearGradient
       id="e"
       gradientUnits="userSpaceOnUse"
       x1="21.990562"
       x2="29.320522"
       xlink:href="#a-7"
       y1="33.780373"
       y2="41.931858" />
    <linearGradient
       id="paint154_linear_890_11"
       x1="778"
       y1="812.29199"
       x2="788"
       y2="812.29199"
       gradientUnits="userSpaceOnUse"
       gradientTransform="translate(-751,-696)">
      <stop
         stop-color="#EFF2F6"
         id="stop1050" />
      <stop
         offset="0.600785"
         stop-color="#B7C6CD"
         id="stop1051" />
    </linearGradient>
    <linearGradient
       id="paint155_linear_890_11"
       x1="783"
       y1="813"
       x2="783"
       y2="817"
       gradientUnits="userSpaceOnUse"
       gradientTransform="translate(-751,-696)">
      <stop
         stop-color="#EFF2F6"
         id="stop1052" />
      <stop
         offset="0.734138"
         stop-color="#B7C6CD"
         id="stop1053" />
    </linearGradient>
    <radialGradient
       id="paint156_radial_890_11"
       cx="0"
       cy="0"
       r="1"
       gradientUnits="userSpaceOnUse"
       gradientTransform="matrix(27.999986,27.999976,-27.999986,27.999976,32.302392,33.999998)">
      <stop
         offset="0.60067803"
         stop-color="#B7C6CD"
         id="stop1054"
         style="stop-color:#384850;stop-opacity:1;" />
      <stop
         offset="0.876735"
         stop-color="#EFF2F6"
         id="stop1055" />
    </radialGradient>
    <linearGradient
       id="paint157_linear_890_11"
       x1="796.84485"
       y1="799.43359"
       x2="768.90088"
       y2="770.81476"
       gradientUnits="userSpaceOnUse"
       gradientTransform="matrix(1.1666666,0,0,1.1666668,-881.19764,-881.8333)">
      <stop
         offset="0.00000057"
         stop-color="#2E2E41"
         id="stop1056"
         style="stop-color:#495361;stop-opacity:1;" />
      <stop
         offset="0.711139"
         stop-color="#566C80"
         id="stop1057" />
    </linearGradient>
    <linearGradient
       id="paint158_linear_890_11"
       x1="792"
       y1="794"
       x2="774"
       y2="776"
       gradientUnits="userSpaceOnUse"
       gradientTransform="translate(-751,-696)">
      <stop
         offset="0.304478"
         stop-color="#2E2E41"
         id="stop1058" />
      <stop
         offset="1"
         stop-color="#566C80"
         id="stop1059" />
    </linearGradient>
    <linearGradient
       id="paint159_linear_890_11"
       x1="788"
       y1="790"
       x2="778"
       y2="780"
       gradientUnits="userSpaceOnUse"
       gradientTransform="translate(-751,-696)">
      <stop
         offset="0.391394"
         stop-color="#5200FF"
         id="stop1060" />
      <stop
         offset="1"
         stop-color="#0085FF"
         id="stop1061" />
    </linearGradient>
    <linearGradient
       id="paint160_linear_890_11"
       x1="784"
       y1="798"
       x2="782"
       y2="796"
       gradientUnits="userSpaceOnUse"
       gradientTransform="translate(-751,-696)">
      <stop
         stop-color="#FF7E07"
         id="stop1062" />
      <stop
         offset="1"
         stop-color="#FFE607"
         id="stop1063" />
    </linearGradient>
    <linearGradient
       inkscape:collect="always"
       xlink:href="#linearGradient1"
       id="linearGradient6"
       x1="17.408081"
       y1="16.037786"
       x2="49.155514"
       y2="50.137749"
       gradientUnits="userSpaceOnUse" />
    <radialGradient
       inkscape:collect="always"
       xlink:href="#linearGradient7"
       id="radialGradient9"
       cx="32.302387"
       cy="34"
       fx="32.302387"
       fy="34"
       r="28"
       gradientUnits="userSpaceOnUse"
       gradientTransform="matrix(0.99999999,1,-1,0.99999999,34,-32.302387)" />
  </defs>
  <sodipodi:namedview
     id="namedview7"
     pagecolor="#ffffff"
     bordercolor="#000000"
     borderopacity="0.25"
     inkscape:showpageshadow="2"
     inkscape:pageopacity="0.0"
     inkscape:pagecheckerboard="0"
     inkscape:deskcolor="#d1d1d1"
     inkscape:zoom="11.78125"
     inkscape:cx="32.551724"
     inkscape:cy="28.859416"
     inkscape:window-width="1920"
     inkscape:window-height="994"
     inkscape:window-x="0"
     inkscape:window-y="0"
     inkscape:window-maximized="1"
     inkscape:current-layer="svg7" />
  <g
     id="g1"
     transform="translate(-1.3023872,-3)">
    <path
       d="m 60.302387,34 c 0,15.46415 -12.535828,28 -28.000002,28 C 16.838222,62 4.3023873,49.46415 4.3023873,34 4.3023873,18.535835 16.838222,6 32.302385,6 47.766559,6 60.302387,18.535835 60.302387,34 Z"
       id="path154"
       style="fill:url(#radialGradient9)" />
    <path
       d="m 55.63572,34 c 0,12.88701 -10.446332,23.33332 -23.333335,23.33332 C 19.415386,57.33332 8.9690543,46.88701 8.9690543,34 c 0,-12.886994 10.4463317,-23.333332 23.3333307,-23.333332 12.887003,0 23.333335,10.446338 23.333335,23.333332 z"
       id="path155"
       style="fill:url(#linearGradient6)" />
  </g>
  <g
     id="g22"
     transform="matrix(0.71428571,0,0,0.71698114,8.4612158,7.7158998)">
    <path
       style="opacity:0.2"
       d="M 45.925782,33.078186 50.308594,42.461 c 8.272728,-1.72271 9.54481,-4.30566 9.59375,-4.44922 C 59.951304,37.868226 60,37.771564 60,37.675844 v -0.57422 c 0,0 -0.0196,-0.0287 -0.05078,-0.07032 V 37.72271 C 57.948886,35.767242 51.529184,34.01213 45.925784,33.078178 Z"
       id="path1" />
    <path
       style="opacity:0.2"
       d="m 45.804688,32.761718 -6.984376,9.585938 c 4.525374,5.41647 9.228252,9.698958 12.773438,10.628906 0.09696,0.0146 0.19494,0.02734 0.28125,0.02734 0.0979,-0.04786 0.14638,-0.14258 0.19532,-0.238282 0.14686,-0.19142 2.83927,-4.499502 -6.265624,-20.003906 z"
       id="path2" />
    <path
       style="opacity:0.2"
       d="m 13.988281,40.445312 -0.785156,2.269532 c -2.888112,7.512938 -1.418215,9.85937 -1.320313,10.05078 0.04895,0.09572 0.09741,0.19044 0.195312,0.238282 0.195804,0 0.390134,-0.04588 0.585938,-0.09374 0,0 0.0076,-3.8e-5 0.0078,0 2.604294,-0.726122 6.413935,-2.996038 12.031248,-9.457032 z"
       id="path3" />
    <path
       style="opacity:0.2"
       d="m 13.643357,24.334244 c -3.083916,-7.752201 -1.566434,-10.192709 -1.468532,-10.336269 0.195804,-0.239265 0.440559,-0.430677 0.685314,-0.574237 l 8.517483,-5.311694 c -0.734266,3.39757 1.125874,8.613559 4.013986,14.690902 z"
       id="path4" />
    <ellipse
       style="fill:#4b5b90"
       cx="32"
       cy="31.993999"
       rx="16.799999"
       ry="16.417"
       id="ellipse4" />
    <path
       style="fill:#b380ff"
       d="M 45.412588,30.981558 C 58.188812,32.99139 60,36.10184 60,36.10184 c 0,0.19142 0,0.382826 0,0.574236 0,0.09572 -0.04894,0.19142 -0.0979,0.334974 -0.04894,0.14356 -1.321678,2.727626 -9.594406,4.450336 z"
       id="path5" />
    <path
       style="fill:#ffcc00"
       d="m 13.202798,41.71475 c -2.888113,7.512938 -1.419581,9.85774 -1.321679,10.049152 0.04895,0.09572 0.0979,0.19142 0.195804,0.239266 0.195804,0 0.391608,-0.04786 0.587412,-0.09572 0,0 5.336316,1.223988 11.455197,-7.293864 v 0 L 26.125874,42.84912 13.987665,39.444942 Z"
       id="path6" />
    <path
       style="fill:#bc5fd3"
       d="m 32.293706,13.050744 c -7,-7.4650842 -10.377622,-7.0344064 -10.573426,-7.0344064 -0.0979,0 -0.244756,0.047852 -0.342658,0.095706 -0.244756,0.095706 -0.48951,0.8613558 -0.48951,0.8613558 0,0 -1.468532,4.1632196 4.454546,15.2651406 z"
       id="path7" />
    <path
       style="fill:#bc5fd3"
       d="m 38.412588,41.906162 c 9.496502,10.62339 12.825174,10.001298 12.825174,10.001298 0.1958,0.04786 0.44056,0.09572 0.636364,0.09572 0.0979,-0.04786 0.14686,-0.14356 0.1958,-0.239266 0.14686,-0.19142 2.83916,-4.498192 -6.265734,-20.002596 z"
       id="path8" />
    <path
       style="opacity:0.2"
       d="m 4.9335938,37.000438 c -0.3402796,0.247322 -0.6539912,0.500748 -0.9257814,0.765624 0.01528,0.09578 0.052158,0.17242 0.089844,0.246094 C 4.1955584,38.25142 6.5445808,43.038496 26.125,43.852 L 24.816406,41.785594 C 11.420448,41.079408 6.5996908,38.459666 4.9335938,37.000438 Z"
       id="path9" />
    <path
       style="fill:#b380ff"
       d="M 26.125874,42.849128 C 6.5454546,42.035624 4.1958042,37.250314 4.0979022,37.01105 4.048951,36.915344 4,36.819636 4,36.676076 c 0.04895,-0.33497 0.7342658,-0.95706 0.7342658,-0.95706 0,0 5.188811,-3.110452 13.8531462,-4.78531 z"
       id="path10" />
    <path
       style="fill:#ffcc00;fill-opacity:1"
       d="m 39.636362,21.090064 c 5.139862,-11.8197154 3.13287,-14.4994892 3.13287,-14.4994892 -0.04896,-0.14356 -0.0979,-0.3349716 -0.14686,-0.478531 -0.0979,-0.047852 -0.1958,-0.047852 -0.342658,-0.095706 -0.244756,-0.047852 -5.58042,-0.7177964 -16.839162,14.6909002 z"
       id="path11" />
    <path
       style="fill:#0084db"
       d="M 13.643357,22.334244 C 10.559441,14.582043 12.076923,12.141535 12.174825,11.997975 12.370629,11.75871 12.615384,11.567297 12.860139,11.423738 L 21.377622,6.1120438 C 20.643356,9.509614 22.503496,14.725602 25.391608,20.802946 Z"
       id="path12" />
    <path
       style="fill:#0cb4ff"
       d="M 40.665516,20.354952 C 39.196984,20.3071 34.741258,20.089048 32,20.089048 6.986014,20.089048 4.2447552,25.334892 4.0979022,25.62201 4,25.90913 4,26.196248 4,26.53122 v 10.240564 c 2.4475524,-2.392656 7.783217,-4.067514 14.293706,-5.024576 4.20979,-0.574238 8.41958,-0.90921 12.678322,-0.957062 l 5.502692,0.14374 c 1.125474,0.0294 5.659326,-10.483226 4.190796,-10.578934 z"
       id="path13" />
    <path
       style="fill:#0cb4ff"
       d="m 41.968982,31.532714 c 6.072582,0.598784 15.485564,2.750708 17.982066,5.191216 v -9.857738 c 0,-0.287118 -0.04894,-0.62209 -0.0979,-0.90921 -0.04894,-0.14356 -2.575764,-4.012722 -13.555464,-4.800138 z"
       id="path14" />
    <path
       style="opacity:0.2"
       d="M 42.623048,7.1122251 C 43.846822,12.758891 39.001338,23.668294 32.246094,33.669592 21.762968,48.64531 15.699989,52.284218 12.126562,53.049868 l 8.760938,5.55249 c 0.244754,0.14356 0.540276,0.28639 0.833984,0.382102 0.1958,0 5.190802,1.126016 17.620314,-15.791734 0.48951,-0.526384 1.714068,-2.48671 2.644138,-3.87445 C 55.59433,18.837148 52.266384,13.475798 52.119532,13.236532 51.923728,12.997267 51.677958,12.805604 51.433202,12.662044 Z"
       id="path15" />
    <path
       style="opacity:0.2;fill:#ffffff"
       d="m 32,20.089844 c -25.013986,0 -27.7554908,5.244132 -27.9023438,5.53125 C 3.9997541,25.908214 4,26.196278 4,26.53125 v 1 C 4,27.196278 3.9997541,26.908214 4.0976562,26.621094 4.2445092,26.333976 6.986014,21.089844 32,21.089844 c 2.741258,0 7.19553,0.217693 8.664062,0.265625 0.104578,0.0068 0.176428,0.06959 0.222657,0.175781 0.117943,-0.700223 0.07395,-1.156449 -0.222657,-1.175781 C 39.19553,20.307537 34.741258,20.089844 32,20.089844 Z m 14.296875,1.066406 -4.328125,10.375 c 0.124696,0.0123 0.261909,0.03121 0.396484,0.04883 l 3.931641,-9.423828 c 10.9797,0.787416 13.505747,4.657221 13.554687,4.800781 0.04896,0.28712 0.09766,0.623039 0.09766,0.910157 v -1 c 0,-0.287118 -0.0487,-0.623037 -0.09766,-0.910157 -0.04894,-0.14356 -2.574987,-4.013365 -13.554687,-4.800781 z"
       id="path16" />
    <path
       style="fill:#00ccfa"
       d="M 42.623048,6.1122256 C 43.846822,11.758892 39.001338,22.668294 32.246094,32.669592 21.762968,47.64531 15.699989,51.284218 12.126562,52.049868 l 8.760938,5.55249 c 0.244754,0.14356 0.540276,0.28639 0.833984,0.382102 0.1958,0 5.190802,1.126016 17.620314,-15.791734 0.48951,-0.526384 1.714068,-2.48671 2.644138,-3.87445 C 55.59433,17.837148 52.266384,12.475798 52.119532,12.236532 51.923728,11.997267 51.677958,11.805604 51.433202,11.662044 Z"
       id="path17" />
    <path
       style="opacity:0.2"
       d="m 30.971874,31.79115 c -4.234728,0.04758 -8.422146,0.377586 -12.608202,0.9459 0.912147,1.551538 2.771102,4.565526 3.942968,6.340742 13.608392,20.481126 19.97348,19.668614 20.267188,19.620758 0.293706,-0.0957 0.586494,-0.241212 0.83125,-0.384772 l 8.468358,-5.26391 C 46.328026,51.853416 37.75648,42.010212 31.554298,32.475192 L 31.171484,31.79115 Z"
       id="path18-3" />
    <path
       style="opacity:0.2;fill:#ffffff"
       d="m 42.623047,6.1113281 c 0.07519,0.3469204 0.127871,0.7143902 0.158203,1.0996094 l 8.652344,5.4511715 c 0.244756,0.14356 0.489743,0.334954 0.685547,0.574219 0.04454,0.07258 0.378803,0.627706 0.447265,1.921875 0.102768,-2.028903 -0.392544,-2.832717 -0.447265,-2.921875 -0.195804,-0.239265 -0.440791,-0.430659 -0.685547,-0.574219 z m 0.167969,2.5351563 C 42.511651,14.661575 38.099627,24.003627 32.246094,32.669922 21.762968,47.64564 15.70038,51.285131 12.126953,52.050781 l 1.085938,0.6875 C 16.890109,51.486113 22.751046,47.234117 32.246094,33.669922 38.436839,24.504378 43.009558,14.587856 42.791016,8.6464844 Z"
       id="path19" />
    <path
       style="fill:#0084db"
       d="m 30.971874,30.79115 c -4.234728,0.04758 -8.422146,0.377586 -12.608202,0.9459 0.912147,1.551538 2.771102,4.565526 3.942968,6.340742 13.608392,20.481126 19.97348,19.668614 20.267188,19.620758 0.293706,-0.0957 0.586494,-0.241212 0.83125,-0.384772 l 8.468358,-5.26391 C 46.328026,50.853416 37.75648,41.010212 31.554298,31.475192 L 31.171484,30.79115 Z"
       id="path20-5" />
    <path
       style="opacity:0.2"
       d="m 30.972656,30.791016 c -4.258742,0.04785 -8.469897,0.382793 -12.679687,0.957031 C 11.78248,32.705109 6.4475524,34.378828 4,36.771484 v 1.001954 c 2.4475524,-2.392657 7.782479,-4.070282 14.292969,-5.027344 4.209789,-0.574238 8.420945,-0.909179 12.679687,-0.957032 l 1.164063,0.03125 c 0.0372,-0.05302 0.07205,-0.09904 0.109375,-0.152343 0.186058,-0.275462 0.364302,-0.553595 0.546875,-0.830078 z m 14.371094,1.193359 c -0.181402,0.301914 -0.353429,0.595877 -0.542969,0.90625 5.83545,0.87442 13.014024,2.745489 15.148438,4.832031 v -1 C 57.877604,34.700334 51.074492,32.890306 45.34375,31.984375 Z"
       id="path21" />
    <path
       style="opacity:0.1;fill:#ffffff"
       d="m 21.376953,6.1113281 -8.517578,5.3124999 c -0.244755,0.143559 -0.48779,0.334954 -0.683594,0.574219 -0.05431,0.07964 -0.542714,0.871027 -0.443359,2.878906 0.06978,-1.275158 0.399214,-1.814172 0.443359,-1.878906 0.195804,-0.239265 0.438839,-0.43066 0.683594,-0.574219 l 8.380859,-5.2265624 c 0.02289,-0.3781682 0.06276,-0.7437013 0.136719,-1.0859375 z m -0.144531,2.1777344 c -0.150636,3.0428645 1.283634,7.2089075 3.455078,11.9726565 0.148336,-0.0073 0.292894,-0.01655 0.443359,-0.02344 -2.185571,-4.664139 -3.732492,-8.79897 -3.898437,-11.9492185 z m 9.740234,22.5019535 c -0.181134,0.002 -0.362008,0.0067 -0.542968,0.0098 l 1.125,1.673828 c 5.811189,8.933924 13.701241,18.140682 19.234374,20.25 l 1.083985,-0.673828 C 46.327637,50.854329 37.75687,41.009629 31.554688,31.474609 l -0.378907,-0.677734 z"
       id="path22" />
  </g>
</svg>
