<?xml version="1.0" encoding="UTF-8" standalone="no"?>
<svg
   width="62"
   height="62"
   version="1.1"
   id="svg6"
   sodipodi:docname="jellyfin.svg"
   inkscape:version="1.4 (e7c3feb100, 2024-10-09)"
   xmlns:inkscape="http://www.inkscape.org/namespaces/inkscape"
   xmlns:sodipodi="http://sodipodi.sourceforge.net/DTD/sodipodi-0.dtd"
   xmlns:xlink="http://www.w3.org/1999/xlink"
   xmlns="http://www.w3.org/2000/svg"
   xmlns:svg="http://www.w3.org/2000/svg">
  <defs
     id="defs6">
    <linearGradient
       id="linearGradient6"
       inkscape:collect="always">
      <stop
         style="stop-color:#4b6291;stop-opacity:1;"
         offset="0"
         id="stop6" />
      <stop
         style="stop-color:#31405e;stop-opacity:1;"
         offset="1"
         id="stop7" />
    </linearGradient>
    <linearGradient
       inkscape:collect="always"
       xlink:href="#linearGradient6"
       id="linearGradient7"
       x1="4.0000844"
       y1="2.2977569"
       x2="19.542967"
       y2="19.427715"
       gradientUnits="userSpaceOnUse" />
  </defs>
  <sodipodi:namedview
     id="namedview6"
     pagecolor="#ffffff"
     bordercolor="#000000"
     borderopacity="0.25"
     inkscape:showpageshadow="2"
     inkscape:pageopacity="0.0"
     inkscape:pagecheckerboard="0"
     inkscape:deskcolor="#d1d1d1"
     inkscape:zoom="8.5"
     inkscape:cx="31"
     inkscape:cy="32.352941"
     inkscape:window-width="1920"
     inkscape:window-height="994"
     inkscape:window-x="0"
     inkscape:window-y="0"
     inkscape:window-maximized="1"
     inkscape:current-layer="svg6" />
  <g
     id="g6"
     transform="matrix(2.7317073,0,0,2.7317073,0.9512197,0.26829287)">
    <rect
       style="opacity:0.2"
       width="20"
       height="20"
       x="1"
       y="1.5"
       rx="6"
       ry="6"
       id="rect1" />
    <rect
       style="fill:url(#linearGradient7)"
       width="20"
       height="20"
       x="1"
       y="1"
       rx="6"
       ry="6"
       id="rect2" />
    <path
       style="opacity:0.2"
       d="m 11.000977,4.5 c -1.852691,0 -7.8165766,10.812476 -6.907227,12.638423 0.9093495,1.825949 12.91503,1.804892 13.814453,0 C 18.807626,15.333532 12.853367,4.5 11.000977,4.5 Z m 10e-4,2.773383 c 1.213769,0 5.114677,7.096704 4.52539,8.280111 -0.589287,1.183106 -8.454575,1.196342 -9.050781,0 C 5.88038,14.357152 9.788207,7.273383 11.001977,7.273383 Z m -10e-4,2.726509 c -0.614856,0 -2.594006,3.475649 -2.2919925,4.06242 0.3020135,0.58677 4.2855795,0.58036 4.5839845,0 0.298403,-0.580361 -1.677136,-4.062129 -2.291992,-4.06242 z"
       id="path2" />
    <path
       style="opacity:0.1;fill:#ffffff"
       d="M 7,1 C 3.676,1 1,3.676 1,7 v 0.5 c 0,-3.324 2.676,-6 6,-6 h 8 c 3.324,0 6,2.676 6,6 V 7 C 21,3.676 18.324,1 15,1 Z"
       id="path3" />
    <path
       style="fill:#4287ea"
       d="m 11.000901,9.5 c -0.614856,0 -2.594188,3.475532 -2.2921745,4.062314 0.3020135,0.586782 4.2859455,0.580372 4.5843495,0 C 13.59148,12.981942 11.615758,9.500291 11.000901,9.5 Z"
       id="path4" />
    <path
       style="fill:#a245e9"
       d="M 11.000901,4 C 9.14821,4 3.1843454,14.812413 4.093695,16.638397 c 0.9093495,1.825984 12.914989,1.804927 13.814412,0 C 18.80753,14.833471 12.853291,4 11.000901,4 Z m 4.526593,11.053972 c -0.589287,1.18313 -8.4551755,1.196365 -9.0513815,0 -0.596206,-1.196365 3.3119215,-8.281003 4.5256905,-8.281003 1.21377,0 5.114979,7.097573 4.525691,8.281003 z"
       id="path5" />
    <path
       style="opacity:0.2;fill:#ffffff"
       d="M 11.000977,4 C 9.228927,4 3.7002004,13.885877 4.017578,16.344726 4.3308465,13.268071 9.332332,4.5 11.000977,4.5 c 1.66937,0 6.667879,8.795818 6.981445,11.855469 C 18.304716,13.92677 12.774633,4 11.000977,4 Z m 0,5.5 c -0.614856,0 -2.594006,3.47573 -2.2919925,4.0625 0.0038,0.0073 0.01462,0.01336 0.01953,0.02051 C 9.007552,12.451921 10.483997,10 11.000977,10 c 0.516902,2.45e-4 1.990795,2.455093 2.271484,3.583985 0.0052,-0.0074 0.01657,-0.01384 0.02051,-0.02149 0.298401,-0.580361 -1.677138,-4.062209 -2.291994,-4.0625 z m -4.558594,5.450196 c -0.03427,0.258083 -0.03163,0.471457 0.03418,0.603515 0.596206,1.196342 8.461494,1.183106 9.050781,0 0.06501,-0.130551 0.06687,-0.342596 0.03223,-0.599609 -0.0091,0.03555 -0.01791,0.07085 -0.03223,0.09961 -0.589287,1.183106 -8.454575,1.196342 -9.050781,0 -0.014945,-0.02999 -0.02478,-0.06632 -0.03418,-0.103515 z"
       id="path6" />
  </g>
</svg>
