<?xml version="1.0" encoding="UTF-8" standalone="no"?>
<svg
   width="62"
   height="62"
   version="1.1"
   id="svg5"
   sodipodi:docname="Jellyamp.svg"
   inkscape:version="1.4 (e7c3feb100, 2024-10-09)"
   xmlns:inkscape="http://www.inkscape.org/namespaces/inkscape"
   xmlns:sodipodi="http://sodipodi.sourceforge.net/DTD/sodipodi-0.dtd"
   xmlns:xlink="http://www.w3.org/1999/xlink"
   xmlns="http://www.w3.org/2000/svg"
   xmlns:svg="http://www.w3.org/2000/svg">
  <defs
     id="defs5">
    <linearGradient
       id="linearGradient5"
       inkscape:collect="always">
      <stop
         style="stop-color:#29333d;stop-opacity:1;"
         offset="0"
         id="stop5" />
      <stop
         style="stop-color:#566c80;stop-opacity:1;"
         offset="1"
         id="stop6" />
    </linearGradient>
    <linearGradient
       inkscape:collect="always"
       xlink:href="#linearGradient5"
       id="linearGradient6"
       x1="52.693913"
       y1="55.509823"
       x2="14.814894"
       y2="5.9813442"
       gradientUnits="userSpaceOnUse" />
  </defs>
  <sodipodi:namedview
     id="namedview5"
     pagecolor="#ffffff"
     bordercolor="#000000"
     borderopacity="0.25"
     inkscape:showpageshadow="2"
     inkscape:pageopacity="0.0"
     inkscape:pagecheckerboard="0"
     inkscape:deskcolor="#d1d1d1"
     inkscape:zoom="11.6875"
     inkscape:cx="31.957219"
     inkscape:cy="32"
     inkscape:window-width="1920"
     inkscape:window-height="994"
     inkscape:window-x="0"
     inkscape:window-y="0"
     inkscape:window-maximized="1"
     inkscape:current-layer="svg5" />
  <g
     id="g5"
     transform="translate(-0.5,-0.5)">
    <rect
       style="opacity:0.2;stroke-width:0.982303"
       width="55"
       height="55.017544"
       x="4"
       y="4.9824572"
       rx="16.499996"
       ry="16.50526"
       id="rect1" />
    <rect
       style="fill:url(#linearGradient6);stroke-width:0.982303"
       width="55"
       height="55.017544"
       x="4"
       y="4"
       rx="16.499996"
       ry="16.50526"
       id="rect2" />
    <path
       style="opacity:0.1;fill:#ffffff;stroke-width:0.982303"
       d="M 20.500766,4 C 11.359767,4 4,11.362115 4,20.50603 v 0.982457 C 4,12.344571 11.359767,4.982456 20.500766,4.982456 H 42.499232 C 51.640233,4.982456 59,12.344571 59,21.488487 V 20.50603 C 59,11.362115 51.640233,4 42.499232,4 Z"
       id="path2" />
    <path
       style="opacity:0.2;stroke-width:0.982303"
       d="m 31.47635,12.84229 c -0.288458,0.0037 -0.578414,0.0593 -0.809474,0.16118 -1.145886,0.505105 -2.806247,2.142891 -4.826154,4.766295 -0.797367,1.035602 -1.046689,1.383085 -2.029442,2.809122 -3.438413,4.989343 -7.607571,12.754796 -9.809607,18.278469 -1.4566,3.653796 -2.144778,6.227053 -2.144529,8.020579 1.68e-4,1.066077 0.156584,1.49709 0.751929,2.056951 1.700697,1.599339 7.201188,2.757624 14.885125,3.131478 1.996349,0.09698 5.872847,0.09898 7.864564,0.004 9.208803,-0.440114 14.836478,-1.861073 15.640891,-3.948893 0.194033,-0.503566 0.189043,-1.994648 -0.0116,-3.027864 C 49.16858,35.717319 37.139831,15.08057 32.274313,12.984305 c -0.223048,-0.0961 -0.509505,-0.145646 -0.797969,-0.141994 z m -6.441268,12.779197 c 0.464579,0.02986 1.058262,0.143615 1.845298,0.349223 3.826018,0.999562 11.112621,4.799215 15.341651,7.997548 0.980903,0.741835 2.587069,2.31658 2.800555,2.743882 0.276334,0.553122 0.29485,0.785204 0.08061,1.247218 -0.459215,0.990076 -1.971846,2.360698 -4.47321,4.060179 -4.80264,3.263015 -11.390055,6.421942 -14.720161,7.057339 -1.302955,0.248612 -2.033822,0.09762 -2.478299,-0.514237 -1.102527,-1.517616 -1.753231,-5.701051 -1.753231,-11.255671 0,-6.461719 0.860254,-10.80939 2.282641,-11.5243 0.273625,-0.137543 0.609604,-0.19099 1.074182,-0.161181 z"
       id="path3" />
    <path
       style="fill:#a245e9;stroke-width:0.982303"
       d="m 31.47698,11.859828 c -0.288469,0.0037 -0.578434,0.05929 -0.8095,0.161179 -1.145924,0.505105 -2.806339,2.142887 -4.826311,4.766294 -0.797391,1.035604 -1.046721,1.383086 -2.029505,2.809123 -3.438524,4.989343 -7.607818,12.7548 -9.809921,18.278474 -1.456648,3.653793 -2.144848,6.227051 -2.144599,8.020579 1.68e-4,1.066078 0.15659,1.497092 0.751954,2.056952 1.700752,1.599339 7.201417,2.757626 14.885601,3.131479 1.996413,0.09698 5.873036,0.09898 7.864818,0.004 9.209097,-0.440108 14.836949,-1.861067 15.641389,-3.948889 0.194032,-0.503566 0.189043,-1.994646 -0.0116,-3.027864 -1.81953,-9.376293 -13.84867,-30.013041 -18.71434,-32.109311 -0.223055,-0.09611 -0.509519,-0.145647 -0.797993,-0.141989 z m -6.441476,12.779196 c 0.464594,0.02986 1.058295,0.143617 1.845356,0.349223 3.826139,0.999565 11.112975,4.799221 15.342145,7.997551 0.980935,0.741839 2.58715,2.316584 2.800643,2.743886 0.276342,0.553118 0.294859,0.785201 0.08062,1.247215 -0.459229,0.990075 -1.971908,2.360697 -4.473352,4.060177 -4.802791,3.263017 -11.39042,6.421946 -14.720634,7.057344 -1.302997,0.248612 -2.033887,0.09761 -2.478378,-0.514237 -1.102563,-1.517619 -1.753288,-5.701052 -1.753288,-11.255675 0,-6.461722 0.860283,-10.809391 2.282713,-11.524304 0.273636,-0.137544 0.609623,-0.190989 1.07422,-0.16118 z"
       id="path4" />
    <path
       style="opacity:0.2;fill:#ffffff;stroke-width:0.982303"
       d="m 31.47698,11.85965 c -0.288469,0.0037 -0.578434,0.05929 -0.8095,0.161182 -1.145924,0.505105 -2.80634,2.143042 -4.826312,4.766449 -0.797391,1.035603 -1.046721,1.383174 -2.029505,2.809211 -3.438524,4.989344 -7.607817,12.755381 -9.80992,18.279058 -1.456648,3.653793 -2.144848,6.227305 -2.144599,8.020832 2.9e-5,0.181372 0.01258,0.321748 0.02303,0.47012 0.113354,-1.761953 0.796318,-4.18427 2.121579,-7.508499 2.202103,-5.523673 6.371396,-13.28971 9.80992,-18.279054 0.982784,-1.426037 1.232114,-1.77361 2.029505,-2.809212 2.019972,-2.623405 3.680388,-4.261341 4.826312,-4.766446 0.231064,-0.10185 0.521029,-0.157551 0.809498,-0.161186 0.288475,-0.0037 0.574938,0.04592 0.797992,0.141996 4.865671,2.096269 16.894892,22.733947 18.714425,32.110197 0.07259,0.373852 0.109235,0.802801 0.130441,1.22807 0.03929,-0.66559 0.0022,-1.52767 -0.130441,-2.210526 -1.819539,-9.376247 -13.84876,-30.01393 -18.714431,-32.110198 -0.223054,-0.0961 -0.509517,-0.145651 -0.797993,-0.141994 z m -9.790736,24.989309 c -0.0011,0.15694 -0.0078,0.299069 -0.0078,0.458607 0,5.554622 0.650714,9.738413 1.753277,11.256031 0.44449,0.611814 1.175382,0.760947 2.478377,0.512335 3.330214,-0.635398 9.917841,-3.79263 14.720635,-7.055647 2.501443,-1.699484 4.014122,-3.070231 4.47335,-4.060307 0.18164,-0.391624 0.185405,-0.629821 0.01727,-1.026592 -0.0071,0.01582 -0.0098,0.02774 -0.01727,0.04412 -0.459228,0.990076 -1.971907,2.360828 -4.47335,4.060311 -4.802794,3.263014 -11.390421,6.420247 -14.720635,7.055645 -1.302995,0.248613 -2.033887,0.09947 -2.478377,-0.512335 -1.066729,-1.468297 -1.704885,-5.445635 -1.745607,-10.732182 z"
       id="path5" />
  </g>
</svg>
