<?xml version="1.0" encoding="UTF-8" standalone="no"?>
<svg
   width="62"
   height="62"
   viewBox="0 0 16.404166 16.404167"
   version="1.1"
   id="svg1443"
   inkscape:version="1.4 (e7c3feb100, 2024-10-09)"
   sodipodi:docname="jitsi.svg"
   xmlns:inkscape="http://www.inkscape.org/namespaces/inkscape"
   xmlns:sodipodi="http://sodipodi.sourceforge.net/DTD/sodipodi-0.dtd"
   xmlns:xlink="http://www.w3.org/1999/xlink"
   xmlns="http://www.w3.org/2000/svg"
   xmlns:svg="http://www.w3.org/2000/svg"
   xmlns:rdf="http://www.w3.org/1999/02/22-rdf-syntax-ns#"
   xmlns:cc="http://creativecommons.org/ns#"
   xmlns:dc="http://purl.org/dc/elements/1.1/">
  <defs
     id="defs1437">
    <linearGradient
       id="linearGradient1630"
       inkscape:collect="always">
      <stop
         id="stop1626"
         offset="0"
         style="stop-color:#00c4fc;stop-opacity:1" />
      <stop
         id="stop1628"
         offset="1"
         style="stop-color:#006cea;stop-opacity:1" />
    </linearGradient>
    <filter
       color-interpolation-filters="sRGB"
       height="1.1311001"
       width="1.1106"
       y="-0.065563001"
       x="-0.055319"
       id="c-9">
      <feGaussianBlur
         id="feGaussianBlur1093"
         stdDeviation="1.1062912" />
    </filter>
    <linearGradient
       gradientUnits="userSpaceOnUse"
       gradientTransform="matrix(0.13235,0,0,0.13075,-32.379,1.0873)"
       y2="269.48999"
       y1="235.14999"
       x2="657.65002"
       x1="319.20999"
       id="a-12">
      <stop
         id="stop1076"
         offset="0"
         stop-color="#e54c18" />
      <stop
         id="stop1078"
         offset="1"
         stop-color="#fec350" />
    </linearGradient>
    <radialGradient
       inkscape:collect="always"
       xlink:href="#linearGradient1630"
       id="radialGradient948"
       cx="16.951138"
       cy="6.0443439"
       fx="16.951138"
       fy="6.0443439"
       r="14.543719"
       gradientUnits="userSpaceOnUse"
       gradientTransform="matrix(1.5133472,0,0,0.97186098,-17.450873,-3.0266347)" />
  </defs>
  <sodipodi:namedview
     id="base"
     pagecolor="#ffffff"
     bordercolor="#666666"
     borderopacity="1.0"
     inkscape:pageopacity="0.0"
     inkscape:pageshadow="2"
     inkscape:zoom="7.9195959"
     inkscape:cx="26.327101"
     inkscape:cy="41.921331"
     inkscape:document-units="px"
     inkscape:current-layer="layer1"
     inkscape:document-rotation="0"
     showgrid="false"
     units="px"
     inkscape:window-width="1920"
     inkscape:window-height="994"
     inkscape:window-x="0"
     inkscape:window-y="0"
     inkscape:window-maximized="1"
     inkscape:pagecheckerboard="0"
     inkscape:showpageshadow="2"
     inkscape:deskcolor="#d1d1d1" />
  <metadata
     id="metadata1440">
    <rdf:RDF>
      <cc:Work
         rdf:about="">
        <dc:format>image/svg+xml</dc:format>
        <dc:type
           rdf:resource="http://purl.org/dc/dcmitype/StillImage" />
      </cc:Work>
    </rdf:RDF>
  </metadata>
  <g
     inkscape:label="Capa 1"
     inkscape:groupmode="layer"
     id="layer1">
    <g
       style="opacity:0.187536"
       transform="matrix(0.47123488,0,0,0.47120591,-31.732694,-17.872306)"
       id="g1702">
      <rect
         ry="6.6098609"
         rx="6.6098609"
         y="40.709618"
         x="69.839508"
         height="29.810888"
         width="29.810888"
         id="rect1634"
         style="fill:none;fill-opacity:1;stroke:#000000;stroke-width:0.1;stroke-linecap:round;stroke-linejoin:round;stroke-miterlimit:4;stroke-dasharray:none;stroke-opacity:0.02" />
      <rect
         style="fill:none;fill-opacity:1;stroke:#000000;stroke-width:0.2;stroke-linecap:round;stroke-linejoin:round;stroke-miterlimit:4;stroke-dasharray:none;stroke-opacity:0.02"
         id="rect1638"
         width="29.810888"
         height="29.810888"
         x="69.839508"
         y="40.709618"
         rx="6.6098609"
         ry="6.6098609" />
      <rect
         ry="6.6098609"
         rx="6.6098609"
         y="40.709618"
         x="69.839508"
         height="29.810888"
         width="29.810888"
         id="rect1640"
         style="fill:none;fill-opacity:1;stroke:#000000;stroke-width:0.3;stroke-linecap:round;stroke-linejoin:round;stroke-miterlimit:4;stroke-dasharray:none;stroke-opacity:0.02" />
      <rect
         style="fill:none;fill-opacity:1;stroke:#000000;stroke-width:0.4;stroke-linecap:round;stroke-linejoin:round;stroke-miterlimit:4;stroke-dasharray:none;stroke-opacity:0.02"
         id="rect1642"
         width="29.810888"
         height="29.810888"
         x="69.839508"
         y="40.709618"
         rx="6.6098609"
         ry="6.6098609" />
      <rect
         ry="6.6098609"
         rx="6.6098609"
         y="40.709618"
         x="69.839508"
         height="29.810888"
         width="29.810888"
         id="rect1644"
         style="fill:none;fill-opacity:1;stroke:#000000;stroke-width:0.5;stroke-linecap:round;stroke-linejoin:round;stroke-miterlimit:4;stroke-dasharray:none;stroke-opacity:0.02" />
      <rect
         style="fill:none;fill-opacity:1;stroke:#000000;stroke-width:0.6;stroke-linecap:round;stroke-linejoin:round;stroke-miterlimit:4;stroke-dasharray:none;stroke-opacity:0.02"
         id="rect1646"
         width="29.810888"
         height="29.810888"
         x="69.839508"
         y="40.709618"
         rx="6.6098609"
         ry="6.6098609" />
      <rect
         ry="6.6098609"
         rx="6.6098609"
         y="40.709618"
         x="69.839508"
         height="29.810888"
         width="29.810888"
         id="rect1648"
         style="fill:none;fill-opacity:1;stroke:#000000;stroke-width:0.7;stroke-linecap:round;stroke-linejoin:round;stroke-miterlimit:4;stroke-dasharray:none;stroke-opacity:0.02" />
      <rect
         style="fill:none;fill-opacity:1;stroke:#000000;stroke-width:0.8;stroke-linecap:round;stroke-linejoin:round;stroke-miterlimit:4;stroke-dasharray:none;stroke-opacity:0.02"
         id="rect1650"
         width="29.810888"
         height="29.810888"
         x="69.839508"
         y="40.709618"
         rx="6.6098609"
         ry="6.6098609" />
      <rect
         ry="6.6098609"
         rx="6.6098609"
         y="40.709618"
         x="69.839508"
         height="29.810888"
         width="29.810888"
         id="rect1652"
         style="fill:none;fill-opacity:1;stroke:#000000;stroke-width:1;stroke-linecap:round;stroke-linejoin:round;stroke-miterlimit:4;stroke-dasharray:none;stroke-opacity:0.02" />
      <rect
         style="fill:none;fill-opacity:1;stroke:#000000;stroke-width:1.2;stroke-linecap:round;stroke-linejoin:round;stroke-miterlimit:4;stroke-dasharray:none;stroke-opacity:0.02"
         id="rect1654"
         width="29.810888"
         height="29.810888"
         x="69.839508"
         y="40.709618"
         rx="6.6098609"
         ry="6.6098609" />
      <rect
         ry="6.6098609"
         rx="6.6098609"
         y="40.709618"
         x="69.839508"
         height="29.810888"
         width="29.810888"
         id="rect1656"
         style="fill:none;fill-opacity:1;stroke:#000000;stroke-width:1.4;stroke-linecap:round;stroke-linejoin:round;stroke-miterlimit:4;stroke-dasharray:none;stroke-opacity:0.02" />
      <rect
         style="fill:none;fill-opacity:1;stroke:#000000;stroke-width:1.6;stroke-linecap:round;stroke-linejoin:round;stroke-miterlimit:4;stroke-dasharray:none;stroke-opacity:0.02"
         id="rect1658"
         width="29.810888"
         height="29.810888"
         x="69.839508"
         y="40.709618"
         rx="6.6098609"
         ry="6.6098609" />
      <rect
         ry="6.6098609"
         rx="6.6098609"
         y="40.709618"
         x="69.839508"
         height="29.810888"
         width="29.810888"
         id="rect1660"
         style="fill:none;fill-opacity:1;stroke:#000000;stroke-width:1.8;stroke-linecap:round;stroke-linejoin:round;stroke-miterlimit:4;stroke-dasharray:none;stroke-opacity:0.02" />
      <rect
         style="fill:none;fill-opacity:1;stroke:#000000;stroke-width:2;stroke-linecap:round;stroke-linejoin:round;stroke-miterlimit:4;stroke-dasharray:none;stroke-opacity:0.02"
         id="rect1662"
         width="29.810888"
         height="29.810888"
         x="69.839508"
         y="40.709618"
         rx="6.6098609"
         ry="6.6098609" />
      <rect
         ry="6.6098609"
         rx="6.6098609"
         y="40.709618"
         x="69.839508"
         height="29.810888"
         width="29.810888"
         id="rect1664"
         style="fill:none;fill-opacity:1;stroke:#000000;stroke-width:2.2;stroke-linecap:round;stroke-linejoin:round;stroke-miterlimit:4;stroke-dasharray:none;stroke-opacity:0.02" />
      <rect
         style="fill:none;fill-opacity:1;stroke:#000000;stroke-width:2.6;stroke-linecap:round;stroke-linejoin:round;stroke-miterlimit:4;stroke-dasharray:none;stroke-opacity:0.02"
         id="rect1666"
         width="29.810888"
         height="29.810888"
         x="69.839508"
         y="40.709618"
         rx="6.6098609"
         ry="6.6098609" />
      <rect
         ry="6.6098609"
         rx="6.6098609"
         y="40.709618"
         x="69.839508"
         height="29.810888"
         width="29.810888"
         id="rect1668"
         style="fill:none;fill-opacity:1;stroke:#000000;stroke-width:3;stroke-linecap:round;stroke-linejoin:round;stroke-miterlimit:4;stroke-dasharray:none;stroke-opacity:0.02" />
      <rect
         style="fill:none;fill-opacity:1;stroke:#000000;stroke-width:3.4;stroke-linecap:round;stroke-linejoin:round;stroke-miterlimit:4;stroke-dasharray:none;stroke-opacity:0.02"
         id="rect1670"
         width="29.810888"
         height="29.810888"
         x="69.839508"
         y="40.709618"
         rx="6.6098609"
         ry="6.6098609" />
      <rect
         ry="6.6098609"
         rx="6.6098609"
         y="40.709618"
         x="69.839508"
         height="29.810888"
         width="29.810888"
         id="rect1672"
         style="fill:none;fill-opacity:1;stroke:#000000;stroke-width:3.8;stroke-linecap:round;stroke-linejoin:round;stroke-miterlimit:4;stroke-dasharray:none;stroke-opacity:0.02" />
      <rect
         style="fill:none;fill-opacity:1;stroke:#000000;stroke-width:4.2;stroke-linecap:round;stroke-linejoin:round;stroke-miterlimit:4;stroke-dasharray:none;stroke-opacity:0.02"
         id="rect1674"
         width="29.810888"
         height="29.810888"
         x="69.839508"
         y="40.709618"
         rx="6.6098609"
         ry="6.6098609" />
      <rect
         ry="6.6098609"
         rx="6.6098609"
         y="40.709618"
         x="69.839508"
         height="29.810888"
         width="29.810888"
         id="rect1676"
         style="fill:none;fill-opacity:1;stroke:#000000;stroke-width:4.6;stroke-linecap:round;stroke-linejoin:round;stroke-miterlimit:4;stroke-dasharray:none;stroke-opacity:0.02" />
      <rect
         style="fill:none;fill-opacity:1;stroke:#000000;stroke-width:5;stroke-linecap:round;stroke-linejoin:round;stroke-miterlimit:4;stroke-dasharray:none;stroke-opacity:0.02"
         id="rect1678"
         width="29.810888"
         height="29.810888"
         x="69.839508"
         y="40.709618"
         rx="6.6098609"
         ry="6.6098609" />
    </g>
    <rect
       ry="3.1537871"
       rx="3.1147971"
       y="1.1335955"
       x="1.1781179"
       height="14.223777"
       width="14.04793"
       id="rect849"
       style="fill:url(#radialGradient948);fill-opacity:1;stroke-width:1.30613;stroke-linecap:round;stroke-linejoin:round" />
    <path
       style="fill:#ffffff;stroke-width:0.264583"
       d="m 9.9464177,2.4246544 a 0.58729207,0.59446128 0 0 0 -0.4299982,0.193708 0.58729207,0.59446128 0 0 0 -0.1464823,0.463945 c 0.016933,0.175094 -0.028273,0.475768 -0.056703,0.583518 -0.00243,0.0067 -0.054489,0.162198 -0.4512622,0.35872 a 0.71854075,0.72731206 0 0 0 -0.059068,0.02153 c -0.2056431,0.06918 -0.5888805,0.198302 -0.8410945,0.538081 -0.1917319,0.233867 -0.241499,0.471865 -0.2953285,0.746137 a 2.5294085,2.5602854 0 0 0 -0.059069,0.633739 v 0.04544 l -0.044889,0.01196 c -0.6423258,0.143259 -1.1058927,0.437659 -1.3750422,0.870495 -0.2788285,0.449978 -0.3268938,1.009275 -0.1393947,1.669243 0.0018,0.0092 0.00703,0.02185 0.00945,0.03348 l 0.028347,0.08849 -0.089779,-0.01435 c -0.03266,-0.0067 -0.063603,-0.0095 -0.096868,-0.01435 a 0.91692565,0.92811879 0 0 0 -0.082692,-0.0048 c -0.3114886,0 -0.6451489,0.200807 -0.8907105,0.535688 -0.1893123,0.260805 -0.4185629,0.717479 -0.4276352,1.4300986 -0.00484,0.535688 0.052221,1.028234 0.1677464,1.465968 0.087701,0.322638 0.1845873,0.5209 0.2220873,0.590693 l 0.7347756,1.394225 0.3354933,-1.542496 c 0.1366927,-0.61895 0.2691691,-0.853581 0.427636,-1.013982 l 0.030713,-0.03108 0.037804,0.02391 c 0.364109,0.222846 0.7985114,0.339588 1.2545552,0.339588 A 3.0302096,3.0672 0 0 0 9.2116407,11.42138 c 0.2975763,-0.177542 0.550454,-0.394688 0.7536767,-0.645696 l 0.025987,-0.01913 0.047255,-0.0023 c 0.117943,-0.0025 0.283668,-0.06455 0.453624,-0.167403 0.141531,-0.08571 0.361709,-0.246569 0.578844,-0.516557 a 3.2902874,3.3304525 0 0 0 0.536317,-0.9924576 c 0.15786,-0.449366 0.255578,-0.975681 0.28824,-1.564021 0.0381,-0.540585 -0.02643,-0.985704 -0.184286,-1.324871 a 1.4165171,1.4338088 0 0 0 -0.987591,-0.791635 l -0.03544,-0.0096 -0.0071,-0.03826 a 1.7685295,1.7901182 0 0 0 -0.0945,-0.356323 l -0.0095,-0.0287 0.01418,-0.02391 A 1.5344595,1.5531908 0 0 0 10.7875,3.5558454 c -0.120349,-0.382659 -0.214873,-0.626761 -0.295316,-0.772468 -0.163305,-0.296313 -0.385486,-0.35872 -0.5457668,-0.35872 z m -0.00827,0.454379 a 0.12701477,0.12856526 0 0 1 0.00827,0 c 0.085282,0 0.1557453,1.9e-5 0.4158223,0.815489 0.137297,0.427939 0.03569,0.832078 -0.302416,1.195734 l -0.01181,0.01435 c 0.0024,0.0025 0.0023,0.0047 0.0047,0.0072 0.142135,0.236315 0.219687,0.532915 0.196098,0.753312 a 1.106843,1.1203544 0 0 1 -0.02363,0.143488 v 0.0024 c 0.02843,-0.0025 0.06113,-0.0048 0.09923,-0.0048 0.167538,0 0.408262,0.02633 0.604832,0.153054 0.117943,0.07653 0.26915,0.19365 0.37802,0.425681 0.125201,0.26815 0.172661,0.638464 0.139395,1.100075 -0.02904,0.544871 -0.115939,1.031258 -0.259889,1.442054 a 2.8378729,2.8725153 0 0 1 -0.463074,0.856145 c -0.312094,0.3875316 -0.638079,0.5171116 -0.706426,0.5189486 -0.047175,0 -0.070369,-0.01691 -0.167746,-0.08609 -0.00907,-0.0049 -0.021643,-0.01479 -0.030713,-0.02153 -0.1844744,0.332432 -0.4705593,0.619121 -0.8316441,0.834621 a 2.5783998,2.6098748 0 0 1 -1.2781788,0.36112 c -0.5008007,0 -0.9476576,-0.164953 -1.2899935,-0.47351 -0.4112858,0.26815 -0.678244,0.506819 -0.8977974,1.509016 L 5.4456172,12.770141 5.2825958,12.45925 A 2.3848536,2.4139659 0 0 1 5.0983065,11.961831 4.810231,4.8689503 0 0 1 4.9470982,10.620218 C 4.9543582,10.060652 5.1191917,9.6970924 5.2613269,9.4938374 5.4240271,9.2526244 5.6369093,9.1040284 5.816545,9.1040284 h 0.033078 c 0.2860865,0.03367 0.4653608,0.155062 0.7962048,0.375459 l 0.10396,0.06935 c 0.1137079,0.07408 0.2482644,0.150873 0.2906025,0.167403 0.029035,-0.01653 0.096962,-0.128795 0.1181317,-0.296542 l 0.00471,-0.02391 v -0.0072 c -0.00243,-0.0025 -0.00228,-0.0024 -0.00471,-0.0024 -0.2219736,-0.076489 -0.5261476,-0.430657 -0.6827989,-0.956549 -0.1487884,-0.526506 -0.1182825,-0.961293 0.08978,-1.296174 0.3374961,-0.544873 1.0611966,-0.669861 1.2970811,-0.710266 0.073185,-0.01469 0.1489028,-0.02842 0.2220881,-0.04066 0.014515,-0.0025 0.025151,-0.0077 0.035433,-0.0096 a 0.16269988,0.16468598 0 0 1 -0.00709,-0.02392 c -0.00423,-0.02143 -0.012854,-0.04831 -0.018902,-0.07892 -0.07379,-0.337331 -0.035909,-0.61939 0.00945,-0.84897 0.052022,-0.255907 0.08271,-0.409114 0.2079106,-0.554822 0.1681432,-0.234478 0.4583874,-0.332203 0.6331844,-0.3922 a 1.463694,1.4815616 0 0 0 0.1039559,-0.03826 c 0.4959582,-0.241213 0.6516084,-0.487573 0.6969696,-0.652871 0.035079,-0.136524 0.094525,-0.496966 0.068517,-0.746137 a 0.14092592,0.14264622 0 0 1 0.035433,-0.114791 0.12701477,0.12856526 0 0 1 0.088598,-0.04304 z m 0.1287633,0.923105 c -0.04717,0.308557 -0.120721,0.603148 -0.2622509,0.913541 0.1536277,-0.17693 0.2438229,-0.368076 0.2740649,-0.581127 0.0121,-0.08816 0.02448,-0.174462 -0.01181,-0.332414 z m -0.34258,0.526123 c -0.2383043,0.23203 -0.5319511,0.359217 -0.7182389,0.44003 A 1.8265934,1.8488909 0 0 0 8.85252,4.8376414 c -0.012097,0.0092 -0.028617,0.01651 -0.042524,0.02631 -0.1137089,0.06673 -0.2841021,0.167804 -0.3095042,0.227189 v 0.0048 c -0.078024,0.165298 -0.1207019,0.413398 -0.1370325,0.55482 0.182054,-0.110199 0.3661494,-0.183875 0.5197771,-0.246321 0.1439503,-0.05694 0.2667122,-0.105072 0.3284051,-0.16262 0.2764086,-0.251009 0.4419245,-0.66743 0.5126905,-0.91354 z m 0.1204939,0.803533 c -0.061693,0.04286 -0.184115,0.138762 -0.2669772,0.21284 a 0.34233506,0.34651399 0 0 0 -0.087416,0.114792 c -0.00243,0.0049 -0.00466,0.0095 -0.00709,0.01196 -0.044757,0.134075 0.016129,0.318295 0.1346703,0.385026 0.030242,0.01898 0.061353,0.03103 0.089779,0.03348 h 0.011811 c 0.089515,0 0.1635304,-0.06687 0.217361,-0.198493 A 0.57035683,0.57731919 0 0 0 9.951139,5.3661604 0.81168488,0.82159326 0 0 0 9.844822,5.1317974 Z M 9.197468,5.5311704 c -0.5552355,0.186113 -0.7231713,0.291757 -0.8151056,0.368284 -0.049594,0.04041 -0.078288,0.15516 0.061428,0.473511 0.070766,0.159788 0.3141541,0.379785 0.4181851,0.399377 a 0.07257987,0.07346586 0 0 0 0.023627,0.0024 c 0.1747959,0 0.5670873,-0.257915 0.6402715,-0.375461 l 0.00709,-0.0096 0.00709,-0.0072 C 9.566062,6.3586014 9.637281,6.2270374 9.6723615,6.1505104 9.2991805,6.0360424 9.2592036,5.8319254 9.2210993,5.6507094 a 0.34112541,0.34528955 0 0 0 -0.011811,-0.05739 0.4717692,0.47752814 0 0 0 -0.011811,-0.06218 z m 1.416393,0.633738 a 0.10947464,0.11081101 0 0 0 -0.03897,0.0096 c -0.0496,0.01959 -0.129586,0.250702 -0.0945,0.420898 0.02419,0.116933 0.160224,0.5068 0.229174,0.693526 0.02298,0.07163 0.03775,0.104879 0.04017,0.119573 a 0.22983626,0.2326419 0 0 1 0.01418,0.04304 c 0.05443,0.165298 0.191562,0.590941 0.233901,0.937455 a 5.008011,5.0691446 0 0 0 0.113406,-1.341644 1.2653091,1.2807549 0 0 0 -0.184284,-0.648087 c -0.09255,-0.145705 -0.208069,-0.234362 -0.302423,-0.234362 a 0.10947464,0.11081101 0 0 0 -0.01064,0 z m -0.348486,0.05261 a 1.3911142,1.4080957 0 0 0 -0.3402187,0.193708 l -0.00709,0.0048 a 3.0846445,3.1222992 0 0 0 -0.184286,0.153054 c -0.3804386,0.346514 -0.6666754,0.526505 -0.8505449,0.535688 h -0.00945 C 8.7135014,7.0900684 8.469736,6.8540794 8.3705432,6.7340854 a 0.1294341,0.13101412 0 0 0 -0.075604,-0.02153 c -0.030242,0 -0.066513,0.007 -0.1015936,0.01435 -0.02359,0.0043 -0.049594,0.0089 -0.075603,0.01196 a 2.3739666,2.402946 0 0 0 -0.3000539,0.05979 8.1410423,8.2404214 0 0 0 -0.217361,0.05022 c -0.2691474,0.07898 -0.4719548,0.171901 -0.5717519,0.260672 l -0.00709,0.0072 c -0.068951,0.04775 -0.2297985,0.184028 -0.2787893,0.418507 v 0.0024 c -0.1016122,0.432837 0.052488,0.966153 0.2575253,1.27226 0.096773,0.143259 0.1982338,0.23224 0.2835153,0.246321 0.020563,0.0025 0.047175,0.0048 0.075604,0.0048 0.3284236,0 1.0205979,-0.198396 1.4766406,-0.330023 l 0.184286,-0.05261 a 0.38709263,0.39181793 0 0 0 0.025987,-0.0072 c -0.02359,-0.02633 -0.068686,-0.06436 -0.1370319,-0.124356 -0.3048355,-0.208153 -0.5927921,-0.306107 -0.9048862,-0.306107 -0.068951,0 -0.1387332,0.0045 -0.217361,0.01435 -0.2643124,0.03061 -0.4842065,0.09313 -0.5906569,0.124355 a 0.33628674,0.34039185 0 0 1 -0.087418,0.02154 0.07620886,0.07713915 0 0 1 -0.070879,-0.05022 0.07923302,0.08020023 0 0 1 0.023627,-0.0837 h 0.00233 c 0.1814492,-0.155503 0.5241433,-0.444774 1.1694996,-0.573952 0.1106842,-0.02143 0.2309516,-0.03349 0.3567563,-0.03349 0.2879005,0 0.5882946,0.05998 0.8907097,0.179361 0.4088675,0.16285 0.6893397,0.370333 0.9143367,0.53808 0.122781,0.08816 0.22702,0.166983 0.318955,0.21045 0.02419,0.01225 0.03533,0.01436 0.04016,0.01436 a 0.16330472,0.1652982 0 0 0 0.02599,-0.05979 c 0.0042,-0.0092 0.0303,-0.119841 -0.15357,-0.746137 a 11.032141,11.166812 0 0 0 -0.302415,-0.899311 c -0.130038,-0.320188 -0.09898,-0.544489 -0.05907,-0.679176 z m -1.691641,1.690766 c -0.2836662,0 -0.5311749,0.05462 -0.7253256,0.121965 0.047784,-0.0025 0.09683,-0.0024 0.1488451,-0.0024 0.059274,0 0.1225349,5.02e-4 0.1866471,0.0048 0.2026195,0.01469 0.723228,0.107482 1.1907631,0.674393 0.094959,0.112648 0.1963827,0.208058 0.4867021,0.208058 0.1016116,0 0.2222562,-0.012 0.3662072,-0.03587 l 0.04016,-0.01196 c 0.09919,-0.02633 0.177594,-0.04982 0.236263,-0.06696 -0.120362,-0.08326 -0.260191,-0.191433 -0.4489,-0.339589 C 9.5893796,8.0946174 9.0914703,7.9082934 8.5737342,7.9082934 Z m 0.6213708,0.954195 c -0.00665,0.0025 -0.018447,0.0047 -0.037804,0.0096 l -0.00709,0.0023 c -0.096773,0.03612 -0.2717208,0.09583 -0.4725247,0.165011 -0.243142,0.08387 -0.5179626,0.176796 -0.7465907,0.26067 -0.293343,0.110199 -0.3873383,0.153321 -0.4181845,0.167403 l -0.018907,0.055 c -0.068346,0.213051 -0.2267929,0.7010626 -1.0088404,1.0426796 0.1633035,0.165298 0.5130107,0.461553 1.204939,0.461553 0.059273,0 0.1225915,-0.0022 0.1842838,-0.0072 A 2.1302192,2.1562232 0 0 0 9.2565225,10.361869 C 9.5922052,10.010457 9.7809124,9.5699874 9.7857511,9.1493954 A 1.1026092,1.1160689 0 0 1 9.4360777,9.0609204 c 0,-0.0025 -0.1467474,-0.07438 -0.2362634,-0.191318 -0.00243,-0.0025 -0.00471,-0.0047 -0.00471,-0.0072 z m 1.6443872,0.03587 a 1.3251875,1.3413642 0 0 1 -0.375658,0.160228 c -0.163303,0.04775 -0.321089,0.07379 -0.406371,0.08848 -0.0073,0.08571 -0.02136,0.251123 -0.04252,0.377852 a 1.9911078,2.0154136 0 0 1 -0.099231,0.346762 l 0.1252197,0.11479 c 0.120967,-0.08142 0.522159,-0.390192 0.798567,-1.088117 z m -5.0323921,0.588302 c -0.056855,0.01469 -0.4445519,0.279782 -0.5292291,1.0713766 -0.042339,0.382634 0.030443,0.872445 0.092143,1.171818 0.049594,-0.177542 0.1275816,-0.370811 0.2787888,-0.569169 0.1415315,-0.186726 0.2949702,-0.332376 0.4867021,-0.461554 A 0.45906766,0.46467159 0 0 1 5.9630319,10.57716 0.38951196,0.39426681 0 0 1 5.8756149,10.26866 c 0.049599,-0.5956846 -0.018764,-0.7387716 -0.049615,-0.7724426 -0.00726,-0.0098 -0.012367,-0.0096 -0.014176,-0.0096 z m 0.4205462,0.150661 c -0.00243,0.126729 -0.018563,0.243567 -0.033078,0.361111 a 4.2386646,4.2904068 0 0 0 -0.023627,0.1937096 c -0.00907,0.131626 0.019219,0.177293 0.030713,0.188926 0.00725,0.0098 0.018934,0.01674 0.042524,0.01674 a 0.17419169,0.17631808 0 0 0 0.063791,-0.01435 C 6.5396173,10.285499 6.7590956,10.113007 6.865547,10.019951 6.7022424,9.9452604 6.4544496,9.7873084 6.2276376,9.6373164 Z"
       id="path3" />
  </g>
</svg>
