<?xml version="1.0" encoding="UTF-8" standalone="no"?>
<svg
   width="62"
   height="62"
   version="1.1"
   id="svg12"
   sodipodi:docname="julia.svg"
   inkscape:version="1.4 (e7c3feb100, 2024-10-09)"
   xmlns:inkscape="http://www.inkscape.org/namespaces/inkscape"
   xmlns:sodipodi="http://sodipodi.sourceforge.net/DTD/sodipodi-0.dtd"
   xmlns="http://www.w3.org/2000/svg"
   xmlns:svg="http://www.w3.org/2000/svg">
  <defs
     id="defs12" />
  <sodipodi:namedview
     id="namedview12"
     pagecolor="#ffffff"
     bordercolor="#000000"
     borderopacity="0.25"
     inkscape:showpageshadow="2"
     inkscape:pageopacity="0.0"
     inkscape:pagecheckerboard="0"
     inkscape:deskcolor="#d1d1d1"
     inkscape:zoom="11.6875"
     inkscape:cx="31.957219"
     inkscape:cy="32"
     inkscape:window-width="1920"
     inkscape:window-height="994"
     inkscape:window-x="0"
     inkscape:window-y="0"
     inkscape:window-maximized="1"
     inkscape:current-layer="svg12" />
  <g
     id="g12"
     transform="translate(-2.0000114,-2.9999943)">
    <ellipse
       style="opacity:0.2;stroke-width:1.03636"
       cx="17.464294"
       cy="48.518524"
       id="circle1"
       rx="13.464286"
       ry="13.481476" />
    <ellipse
       style="opacity:0.2;stroke-width:1.03636"
       cx="33.000011"
       cy="20.518518"
       id="circle2"
       rx="13.464286"
       ry="13.481476" />
    <ellipse
       style="opacity:0.2;stroke-width:1.03636"
       cx="48.535713"
       cy="48.518524"
       id="circle3"
       rx="13.464286"
       ry="13.481476" />
    <ellipse
       style="fill:#c2352a;stroke-width:1.03636"
       cx="17.464294"
       cy="47.481468"
       id="circle4"
       rx="13.464286"
       ry="13.481476" />
    <ellipse
       style="opacity:0.1;stroke-width:1.03636"
       cx="17.464294"
       cy="48.518524"
       id="circle5"
       rx="9.3214283"
       ry="9.3333282" />
    <ellipse
       style="fill:#e67a73;stroke-width:1.03636"
       cx="17.464294"
       cy="47.481468"
       id="circle6"
       rx="9.3214283"
       ry="9.3333282" />
    <ellipse
       style="fill:#46a249;stroke-width:1.03636"
       cx="33.000011"
       cy="19.481483"
       id="circle7"
       rx="13.464286"
       ry="13.481476" />
    <ellipse
       style="opacity:0.1;stroke-width:1.03636"
       cx="33.000011"
       cy="20.518518"
       id="circle8"
       rx="9.3214283"
       ry="9.3333282" />
    <ellipse
       style="fill:#7bde7f;stroke-width:1.03636"
       cx="33.000011"
       cy="19.481483"
       id="circle9"
       rx="9.3214283"
       ry="9.3333282" />
    <ellipse
       style="fill:#8e53ab;stroke-width:1.03636"
       cx="48.535713"
       cy="47.481468"
       id="circle10"
       rx="13.464286"
       ry="13.481476" />
    <ellipse
       style="opacity:0.1;stroke-width:1.03636"
       cx="48.535713"
       cy="48.518524"
       id="circle11"
       rx="9.3214283"
       ry="9.3333282" />
    <ellipse
       style="fill:#ba96cc;stroke-width:1.03636"
       cx="48.535713"
       cy="47.481468"
       id="circle12"
       rx="9.3214283"
       ry="9.3333282" />
    <path
       style="opacity:0.1;fill:#ffffff;stroke-width:1.03636"
       d="m 48.535729,38.148137 a 9.321431,9.3333314 0 0 0 -9.321435,9.333333 9.321431,9.3333314 0 0 0 0.0238,0.376442 9.321431,9.3333314 0 0 1 9.297613,-8.672737 9.321431,9.3333314 0 0 1 9.29346,8.782671 9.321431,9.3333314 0 0 0 0.02796,-0.486376 9.321431,9.3333314 0 0 0 -9.321424,-9.333333 z m 0,-4.148144 A 13.464287,13.481477 0 0 0 35.071439,47.48147 13.464287,13.481477 0 0 0 35.092145,47.947106 13.464287,13.481477 0 0 1 48.535721,35.03703 13.464287,13.481477 0 0 1 61.974109,47.999989 13.464287,13.481477 0 0 0 62,47.48147 13.464287,13.481477 0 0 0 48.535729,33.999993 Z M 33.000006,10.148143 a 9.321431,9.3333314 0 0 0 -9.32143,9.333334 9.321431,9.3333314 0 0 0 0.0238,0.376444 9.321431,9.3333314 0 0 1 9.29761,-8.672739 9.321431,9.3333314 0 0 1 9.293464,8.78267 9.321431,9.3333314 0 0 0 0.02796,-0.486375 9.321431,9.3333314 0 0 0 -9.321426,-9.333334 z M 33.000006,6 A 13.464287,13.481477 0 0 0 19.535719,19.481477 13.464287,13.481477 0 0 0 19.556436,19.947111 13.464287,13.481477 0 0 1 33.000006,7.0370372 13.464287,13.481477 0 0 1 46.438407,19.999996 13.464287,13.481477 0 0 0 46.464295,19.481477 13.464287,13.481477 0 0 0 33.000006,6 Z M 17.464287,38.148137 a 9.321431,9.3333314 0 0 0 -9.3214291,9.333333 9.321431,9.3333314 0 0 0 0.024232,0.376442 9.321431,9.3333314 0 0 1 9.2971961,-8.672737 9.321431,9.3333314 0 0 1 9.293469,8.782671 9.321431,9.3333314 0 0 0 0.02796,-0.486376 9.321431,9.3333314 0 0 0 -9.321432,-9.333333 z m 0,-4.148144 A 13.464287,13.481477 0 0 0 4,47.48147 13.464287,13.481477 0 0 0 4.0201963,47.947106 13.464287,13.481477 0 0 1 17.464287,35.03703 13.464287,13.481477 0 0 1 30.902684,47.999989 13.464287,13.481477 0 0 0 30.928578,47.48147 13.464287,13.481477 0 0 0 17.464287,33.999993 Z"
       id="path12" />
  </g>
</svg>
