<?xml version="1.0" encoding="UTF-8" standalone="no"?>
<svg
   width="62"
   height="62"
   version="1.1"
   id="svg5"
   sodipodi:docname="kalzium.svg"
   inkscape:version="1.4 (e7c3feb100, 2024-10-09)"
   xmlns:inkscape="http://www.inkscape.org/namespaces/inkscape"
   xmlns:sodipodi="http://sodipodi.sourceforge.net/DTD/sodipodi-0.dtd"
   xmlns="http://www.w3.org/2000/svg"
   xmlns:svg="http://www.w3.org/2000/svg">
  <defs
     id="defs5">
    <filter
       id="b-3-36"
       width="1.2393739"
       height="1.1966286"
       x="-0.11968695"
       y="-0.098314282"
       color-interpolation-filters="sRGB">
      <feGaussianBlur
         stdDeviation="1.147"
         id="feGaussianBlur7-6" />
    </filter>
  </defs>
  <sodipodi:namedview
     id="namedview5"
     pagecolor="#ffffff"
     bordercolor="#000000"
     borderopacity="0.25"
     inkscape:showpageshadow="2"
     inkscape:pageopacity="0.0"
     inkscape:pagecheckerboard="0"
     inkscape:deskcolor="#d1d1d1"
     inkscape:zoom="11.6875"
     inkscape:cx="31.957219"
     inkscape:cy="39.786096"
     inkscape:window-width="1920"
     inkscape:window-height="994"
     inkscape:window-x="0"
     inkscape:window-y="0"
     inkscape:window-maximized="1"
     inkscape:current-layer="svg5" />
  <rect
     style="opacity:0.2;stroke-width:0.9823"
     width="55"
     height="55.017544"
     x="3.5"
     y="3.9824562"
     rx="8.25"
     ry="8.2526312"
     id="rect1" />
  <rect
     style="fill:#212e3f;stroke-width:0.9823"
     width="55"
     height="55.017544"
     x="3.5"
     y="3"
     rx="8.25"
     ry="8.2526312"
     id="rect2" />
  <path
     style="opacity:0.1;fill:#ffffff;stroke-width:0.9823"
     d="M 11.748466,3 C 7.1779651,3 3.4999999,6.6791384 3.4999999,11.251097 v 0.982456 c 0,-4.5719585 3.6779652,-8.2510968 8.2484661,-8.2510968 h 38.503068 c 4.5705,0 8.248466,3.6791383 8.248466,8.2510968 V 11.251097 C 58.5,6.6791384 54.822034,3 50.251534,3 Z"
     id="path4" />
  <g
     id="g1"
     transform="translate(-0.5,0.0087739)">
    <path
       style="fill:none;stroke:#bfbfbf;stroke-width:3;stroke-opacity:1"
       d="m 48.5,19.999996 -34,20 m 0,-20 34,20"
       id="path2" />
    <path
       style="opacity:0.2"
       d="M 14.5,15.5 A 5.5000001,5.5000001 0 0 0 9,21 5.5000001,5.5000001 0 0 0 14.5,26.5 5.5000001,5.5000001 0 0 0 20,21 5.5000001,5.5000001 0 0 0 14.5,15.5 Z m 34,0 A 5.4999998,5.4999998 0 0 0 43,21 5.4999998,5.4999998 0 0 0 48.5,26.5 5.4999998,5.4999998 0 0 0 54,21 5.4999998,5.4999998 0 0 0 48.5,15.5 Z m -17,7 A 8.5000003,8.5000003 0 0 0 23,31 8.5000003,8.5000003 0 0 0 31.5,39.5 8.5000003,8.5000003 0 0 0 40,31 8.5000003,8.5000003 0 0 0 31.5,22.5 Z m -17,13 A 5.5000001,5.5000001 0 0 0 9,41 5.5000001,5.5000001 0 0 0 14.5,46.5 5.5000001,5.5000001 0 0 0 20,41 5.5000001,5.5000001 0 0 0 14.5,35.5 Z m 34,0 A 5.4999998,5.4999998 0 0 0 43,41 5.4999998,5.4999998 0 0 0 48.5,46.5 5.4999998,5.4999998 0 0 0 54,41 5.4999998,5.4999998 0 0 0 48.5,35.5 Z"
       id="path3" />
    <path
       style="fill:#b380ff"
       d="m 14.5,14.499996 a 5.5000001,5.5000001 0 0 0 -5.5,5.5 5.5000001,5.5000001 0 0 0 5.5,5.5 5.5000001,5.5000001 0 0 0 5.5,-5.5 5.5000001,5.5000001 0 0 0 -5.5,-5.5 z m 34,0 a 5.4999998,5.4999998 0 0 0 -5.5,5.5 5.4999998,5.4999998 0 0 0 5.5,5.5 5.4999998,5.4999998 0 0 0 5.5,-5.5 5.4999998,5.4999998 0 0 0 -5.5,-5.5 z m -17,7 a 8.5000003,8.5000003 0 0 0 -8.5,8.5 8.5000003,8.5000003 0 0 0 8.5,8.5 8.5000003,8.5000003 0 0 0 8.5,-8.5 8.5000003,8.5000003 0 0 0 -8.5,-8.5 z m -17,13 a 5.5000001,5.5000001 0 0 0 -5.5,5.5 5.5000001,5.5000001 0 0 0 5.5,5.5 5.5000001,5.5000001 0 0 0 5.5,-5.5 5.5000001,5.5000001 0 0 0 -5.5,-5.5 z m 34,0 a 5.4999998,5.4999998 0 0 0 -5.5,5.5 5.4999998,5.4999998 0 0 0 5.5,5.5 5.4999998,5.4999998 0 0 0 5.5,-5.5 5.4999998,5.4999998 0 0 0 -5.5,-5.5 z"
       id="path4-6" />
  </g>
</svg>
