<?xml version="1.0" encoding="UTF-8" standalone="no"?>
<svg
   width="62"
   height="62"
   version="1.1"
   id="svg5"
   sodipodi:docname="ktorrent.svg"
   inkscape:version="1.4 (unknown)"
   xmlns:inkscape="http://www.inkscape.org/namespaces/inkscape"
   xmlns:sodipodi="http://sodipodi.sourceforge.net/DTD/sodipodi-0.dtd"
   xmlns:xlink="http://www.w3.org/1999/xlink"
   xmlns="http://www.w3.org/2000/svg"
   xmlns:svg="http://www.w3.org/2000/svg">
  <defs
     id="defs5">
    <linearGradient
       id="linearGradient1"
       inkscape:collect="always">
      <stop
         style="stop-color:#3d5675;stop-opacity:1;"
         offset="0"
         id="stop1" />
      <stop
         style="stop-color:#febc85;stop-opacity:1"
         offset="1"
         id="stop3" />
    </linearGradient>
    <linearGradient
       id="linearGradient4217">
      <stop
         style="stop-color:#000000;stop-opacity:1;"
         offset="0"
         id="stop2" />
      <stop
         style="stop-color:#000000;stop-opacity:0;"
         offset="1"
         id="stop4" />
    </linearGradient>
    <linearGradient
       id="linearGradient4161">
      <stop
         style="stop-color:#334545;stop-opacity:1;"
         offset="0"
         id="stop7" />
      <stop
         style="stop-color:#4d6868;stop-opacity:1"
         offset="1"
         id="stop9" />
    </linearGradient>
    <linearGradient
       id="a-1-2"
       y1="510.79999"
       y2="527.14001"
       gradientUnits="userSpaceOnUse"
       x2="0">
      <stop
         stop-color="#7cbaf8"
         id="stop2-2-7" />
      <stop
         offset="1"
         stop-color="#f4fcff"
         id="stop4-70-0" />
    </linearGradient>
    <linearGradient
       id="c"
       y1="503.79999"
       x1="400.57001"
       y2="519.79999"
       x2="416.57001"
       gradientUnits="userSpaceOnUse">
      <stop
         stop-color="#292c2f"
         id="stop12" />
      <stop
         offset="1"
         stop-opacity="0"
         id="stop14" />
    </linearGradient>
    <linearGradient
       id="b"
       y1="542.79999"
       x1="408.57001"
       y2="521.79999"
       x2="387.57001"
       gradientUnits="userSpaceOnUse"
       gradientTransform="translate(-384.57,-499.8)">
      <stop
         stop-color="#197cf1"
         id="stop7-8" />
      <stop
         offset="1"
         stop-color="#20bcfa"
         id="stop9-7" />
    </linearGradient>
    <linearGradient
       inkscape:collect="always"
       xlink:href="#linearGradient1"
       id="linearGradient3"
       x1="31.5"
       y1="59.017544"
       x2="31.5"
       y2="4.9824562"
       gradientUnits="userSpaceOnUse" />
  </defs>
  <sodipodi:namedview
     id="namedview5"
     pagecolor="#ffffff"
     bordercolor="#000000"
     borderopacity="0.25"
     inkscape:showpageshadow="2"
     inkscape:pageopacity="0.0"
     inkscape:pagecheckerboard="0"
     inkscape:deskcolor="#d1d1d1"
     inkscape:zoom="8.2643105"
     inkscape:cx="39.023219"
     inkscape:cy="13.370746"
     inkscape:window-width="1920"
     inkscape:window-height="998"
     inkscape:window-x="0"
     inkscape:window-y="0"
     inkscape:window-maximized="1"
     inkscape:current-layer="svg5" />
  <rect
     style="opacity:0.2;stroke-width:0.9823"
     width="55"
     height="55.017544"
     x="4"
     y="4.9824562"
     rx="8.25"
     ry="8.2526312"
     id="rect1" />
  <rect
     style="fill:url(#linearGradient3);stroke-width:0.9823"
     width="55"
     height="55.017544"
     x="4"
     y="4"
     rx="8.25"
     ry="8.2526312"
     id="rect2" />
  <path
     style="opacity:0.1;fill:#ffffff;stroke-width:0.9823"
     d="M 12.248466,4 C 7.6779652,4 4,7.6791384 4,12.251097 v 0.982456 C 4,8.6615945 7.6779652,4.9824561 12.248466,4.9824561 H 50.751534 C 55.322034,4.9824561 59,8.6615945 59,13.233553 V 12.251097 C 59,7.6791384 55.322034,4 50.751534,4 Z"
     id="path4" />
  <g
     style="opacity:1;fill:#dde5ee;fill-opacity:0.69999999"
     transform="matrix(1.3929983,0,0,1.3938282,1.1886761,-2.6162197)"
     id="g2">
    <path
       style="fill-rule:evenodd;fill:#dde5ee;fill-opacity:0.69999999"
       transform="matrix(1.4286,0,0,1.4286,-1.5717,1.8576)"
       d="m 15.533,3.9805 c -0.71253,-0.013361 -1.336122,0.476401 -1.492,1.1718 0,0 -0.591119,1.2582 -0.907119,3.1192 -0.003,-0.0012 -0.008,-0.0027 -0.01,-0.0039 0.002,0.0058 0.008,0.0146 0.008,0.0176 -10e-4,0.0035 -0.002,0.0081 -0.002,0.0117 -0.018,-0.0017 -0.057,-0.0224 -0.141,-0.0742 0.027,0.0165 0.099,0.029 0.135,0.0449 -0.025,-0.0571 -0.177,-0.2308 -0.258,-0.4453 -0.129,-0.3409 -0.203,-0.6563 -0.203,-0.6563 C 12.510396,6.452613 12.166957,5.9523259 11.438,5.9805 10.491037,6.0166481 9.8143997,6.9108626 10.037,7.832 c 0,0 0.11,0.4916 0.322,1.0528 0.213,0.5611 0.364,1.2802 1.352,1.8902 0.41,0.254 0.538881,0.433 0.976881,0.567 -0.114,0.968 -0.163991,1.988 -0.222991,3.037 -0.007,0.122 0.002,0.248 -0.004,0.371 -0.792,0.133 -1.33089,0.28 -2.05889,0.545 -1.8258,0.665 -3.3688283,1.803 -4.1711283,3.59 -0.3858,0.859 -0.2855,1.816 0.0234,2.545 0.3089,0.728 0.7926,1.31 1.3437,1.808 1.1023,0.997 2.3496283,1.72 3.8630283,1.76 1.007,0.027 1.919,-0.292 2.791,-0.725 0.623,1.098 1.43,1.850888 2.629,2.393888 2.141,0.971 4.44,0.094 6.25,-1.158 0.905,-0.626 1.704,-1.194888 2.264,-2.125888 0.559,-0.932 0.888,-2.113 0.546,-3.299 -0.533,-1.849 -1.979,-3.162 -3.66,-4.039 0.178,-0.278 0.502,-0.768 0.502,-0.768 1.136809,-1.734832 -1.557358,-3.364352 -2.566,-1.552 0,0 -0.703,0.926 -0.897,1.224 -0.957,-0.23 -1.951,-0.376 -2.953,-0.433 -0.22,-0.013 -0.735119,0.024 -0.956119,0.019 0.056,-0.996 0.151,-1.969 0.262,-2.894 0.524,-0.025 1.340119,-0.073 1.831119,-0.123 1.833,-0.188 3.351,-0.561 3.351,-0.561 2.010712,-0.431297 1.273749,-3.4559593 -0.71,-2.914 0,0 -1.346,0.3269 -2.946,0.4902 C 16.944,8.5593 16.580868,8.563 16.319868,8.5723 16.603868,6.9296 16.959,5.8477 16.959,5.8477 17.195413,4.9114054 16.498506,3.9988768 15.533,3.9805 Z m 0.664,13.53 c 0.388,0.022 0.751,0.114 1.131,0.168 -0.157,0.193 -0.121,0.197 -0.287,0.39 -0.367,0.429 -1.087119,0.738 -1.484119,1.141 -0.065,-0.557 -0.145,-1.083 -0.168,-1.684 0.172,0.004 0.637119,-0.025 0.808119,-0.015 z m -3.811119,0.312 c 0.053,1.254 0.488119,2.486 0.755119,3.645 -0.621,0.325 -1.194,0.544 -1.6,0.533 -0.372,-0.01 -1.412,-0.426 -2.0312,-0.986 -0.3099,-0.281 -0.5196,-0.581 -0.5938,-0.756 -0.0742,-0.175 -0.0473,-0.144 -0.0469,-0.145 0.3604,-0.802 1.2269,-1.514 2.5609,-2 0.373,-0.136 0.529881,-0.198 0.955881,-0.291 z m 8.081119,0.699 c 0.111,0.051 0.256,0.078 0.361,0.131 1.246,0.633 1.989,1.425 2.231,2.264 0.055,0.192 0.035,0.471 -0.235,0.92 -0.27,0.449 -0.782,0.830902 -1.4,1.257902 -1.236,0.855 -2.835,1.102 -3.305,0.889 -0.573,-0.26 -1.022,-0.705902 -1.406,-1.466902 0.921,-0.792 1.846,-1.607 2.607,-2.496 0.468,-0.546 0.753,-0.982 1.147,-1.499 z"
       id="path2" />
  </g>
</svg>
