<?xml version="1.0" encoding="UTF-8" standalone="no"?>
<svg
   width="62"
   height="62"
   version="1"
   id="svg9"
   sodipodi:docname="katomic.svg"
   inkscape:version="1.4 (e7c3feb100, 2024-10-09)"
   xmlns:inkscape="http://www.inkscape.org/namespaces/inkscape"
   xmlns:sodipodi="http://sodipodi.sourceforge.net/DTD/sodipodi-0.dtd"
   xmlns="http://www.w3.org/2000/svg"
   xmlns:svg="http://www.w3.org/2000/svg">
  <defs
     id="defs9" />
  <sodipodi:namedview
     id="namedview9"
     pagecolor="#ffffff"
     bordercolor="#000000"
     borderopacity="0.25"
     inkscape:showpageshadow="2"
     inkscape:pageopacity="0.0"
     inkscape:pagecheckerboard="0"
     inkscape:deskcolor="#d1d1d1"
     inkscape:zoom="11.78125"
     inkscape:cx="31.95756"
     inkscape:cy="32"
     inkscape:window-width="1920"
     inkscape:window-height="994"
     inkscape:window-x="0"
     inkscape:window-y="0"
     inkscape:window-maximized="1"
     inkscape:current-layer="svg9" />
  <g
     id="g9"
     transform="matrix(1.0576762,0,0,1.0566021,-2.8453875,-2.2830072)">
    <circle
       style="opacity:0.50145349;fill:#424957;fill-opacity:1"
       cx="-12.518"
       cy="30.32"
       r="14"
       transform="rotate(-60.001124)"
       id="circle1" />
    <circle
       style="opacity:0.49127907;fill:#424957;fill-opacity:1"
       cx="-11.776"
       cy="57.605"
       r="14"
       transform="rotate(-60.001124)"
       id="circle2" />
    <circle
       style="fill:#424957;fill-opacity:1"
       cx="-11.652"
       cy="29.82"
       r="14"
       transform="rotate(-60.001124)"
       id="circle3" />
    <circle
       style="opacity:0.2"
       cx="43.775002"
       cy="-2.1789999"
       r="14"
       transform="rotate(30)"
       id="circle4" />
    <path
       style="opacity:0.1;fill:#ffffff"
       d="M 19.339844,11.015625 A 13.999753,13.999753 0 0 0 7.875,18 13.999753,13.999753 0 0 0 6.0175781,25.6875 13.999753,13.999753 0 0 1 7.875,19 13.999753,13.999753 0 0 1 27,13.875 13.999753,13.999753 0 0 1 33.982422,25.3125 13.999753,13.999753 0 0 0 27,12.875 13.999753,13.999753 0 0 0 19.339844,11.015625 Z"
       id="path4" />
    <circle
       style="fill:#e5e5e5;fill-opacity:1"
       cx="43.275002"
       cy="-3.0450001"
       r="14"
       transform="rotate(30)"
       id="circle5" />
    <circle
       style="fill:#424957;fill-opacity:1"
       cx="-10.91"
       cy="57.105"
       r="14"
       transform="rotate(-60.001124)"
       id="circle6" />
    <path
       style="opacity:0.1;fill:#ffffff"
       d="M 43.339844,24.015625 A 13.999753,13.999753 0 0 0 31.875,31 13.999753,13.999753 0 0 0 30.017578,38.6875 13.999753,13.999753 0 0 1 31.875,32 13.999753,13.999753 0 0 1 51,26.875 13.999753,13.999753 0 0 1 57.982422,38.3125 13.999753,13.999753 0 0 0 51,25.875 13.999753,13.999753 0 0 0 43.339844,24.015625 Z"
       id="path6" />
    <circle
       style="opacity:0.2"
       cx="43.651001"
       cy="25.605"
       r="14"
       transform="rotate(30)"
       id="circle7" />
    <circle
       style="fill:#e5e5e5;fill-opacity:1"
       cx="43.151001"
       cy="24.739"
       r="14"
       transform="rotate(30)"
       id="circle8" />
    <path
       style="opacity:0.2;fill:#ffffff"
       d="M 38.339844,5.015625 A 13.999838,13.999838 0 0 0 26.875,12 13.999838,13.999838 0 0 0 25.017578,19.6875 13.999838,13.999838 0 0 1 26.875,13 13.999838,13.999838 0 0 1 46,7.875 13.999838,13.999838 0 0 1 52.982422,19.3125 13.999838,13.999838 0 0 0 46,6.875 13.999838,13.999838 0 0 0 38.339844,5.015625 Z"
       id="path8" />
    <path
       style="opacity:0.2;fill:#ffffff"
       d="M 24.339844,29.015625 A 13.999838,13.999838 0 0 0 12.876953,36 13.999838,13.999838 0 0 0 11.017578,43.6875 13.999838,13.999838 0 0 1 12.876953,37 13.999838,13.999838 0 0 1 32,31.875 13.999838,13.999838 0 0 1 38.982422,43.3125 13.999838,13.999838 0 0 0 32,30.875 13.999838,13.999838 0 0 0 24.339844,29.015625 Z"
       id="path9" />
  </g>
</svg>
