<?xml version="1.0" encoding="UTF-8" standalone="no"?>
<svg
   width="62"
   height="62"
   version="1.1"
   id="svg12"
   sodipodi:docname="kcachegrind.svg"
   inkscape:version="1.4 (e7c3feb100, 2024-10-09)"
   xmlns:inkscape="http://www.inkscape.org/namespaces/inkscape"
   xmlns:sodipodi="http://sodipodi.sourceforge.net/DTD/sodipodi-0.dtd"
   xmlns="http://www.w3.org/2000/svg"
   xmlns:svg="http://www.w3.org/2000/svg">
  <defs
     id="defs12" />
  <sodipodi:namedview
     id="namedview12"
     pagecolor="#ffffff"
     bordercolor="#000000"
     borderopacity="0.25"
     inkscape:showpageshadow="2"
     inkscape:pageopacity="0.0"
     inkscape:pagecheckerboard="0"
     inkscape:deskcolor="#d1d1d1"
     inkscape:zoom="11.6875"
     inkscape:cx="31.957219"
     inkscape:cy="33.967914"
     inkscape:window-width="1920"
     inkscape:window-height="994"
     inkscape:window-x="0"
     inkscape:window-y="0"
     inkscape:window-maximized="1"
     inkscape:current-layer="svg12" />
  <g
     id="g12"
     transform="translate(0.49989858,2.5275771e-4)">
    <path
       style="opacity:0.2;stroke-width:0.94871"
       d="m 30.574168,3.9496085 c -0.964966,-0.00413 -1.93005,0.043513 -2.89012,0.1408057 a 1.3096391,1.3109026 0 0 0 -1.161165,1.1034035 l -0.496184,3.228287 c -1.076802,0.2091514 -2.134166,0.492964 -3.171462,0.8499537 l -2.033321,-2.53962 A 1.3096391,1.3109026 0 0 0 19.264318,6.3561033 c -1.719893,0.7726794 -3.356224,1.7187886 -4.88252,2.8263508 a 1.3096391,1.3109026 0 0 0 -0.450152,1.5386199 l 1.179076,3.026036 c -0.83096,0.718853 -1.609679,1.491808 -2.332564,2.319451 L 9.7729444,14.894037 A 1.3096391,1.3109026 0 0 0 8.2358047,15.347178 C 7.1308536,16.876873 6.1871966,18.51635 5.4172902,20.239531 a 1.3096391,1.3109026 0 0 0 0.3759731,1.556539 l 2.4630015,1.976401 c -0.1848837,0.526657 -0.3848169,1.048592 -0.5319875,1.587254 a 1.3096391,1.3109026 0 0 0 -0.00507,0.02042 C 7.5821802,25.91623 7.4985057,26.464237 7.399493,27.008394 l -3.1484468,0.48386 a 1.3096391,1.3109026 0 0 0 -1.1023371,1.159724 c -0.1956828,1.875505 -0.1979473,3.766414 -0.00776,5.642467 a 1.3096391,1.3109026 0 0 0 1.1048966,1.162286 l 3.2226198,0.494102 c 0.2087542,1.077914 0.4926659,2.13613 0.8491333,3.174521 L 5.7778722,41.16064 a 1.3096391,1.3109026 0 0 0 -0.3759718,1.561668 c 0.771935,1.721549 1.7171326,3.359468 2.8236266,4.887232 a 1.3096391,1.3109026 0 0 0 1.5371375,0.450578 l 3.0231295,-1.180207 c 0.718899,0.831949 1.49211,1.611213 2.319769,2.334812 l -1.16884,3.005559 a 1.3096391,1.3109026 0 0 0 0.452702,1.538622 c 1.528236,1.106018 3.166115,2.050586 4.887635,2.821235 a 1.3096391,1.3109026 0 0 0 1.555055,-0.376332 l 1.97193,-2.46282 c 0.526543,0.184647 1.047241,0.383078 1.585736,0.529938 a 1.3096391,1.3109026 0 0 0 0.0204,0.0053 c 0.536346,0.137362 1.084745,0.220817 1.629214,0.320008 l 0.483398,3.151481 a 1.3096391,1.3109026 0 0 0 1.158606,1.103395 c 1.872802,0.195692 3.761099,0.197956 5.634464,0.008 a 1.3096391,1.3109026 0 0 0 1.161168,-1.103394 l 0.496182,-3.225729 c 1.0768,-0.209158 2.134166,-0.492967 3.171458,-0.849953 l 2.033323,2.539621 a 1.3096391,1.3109026 0 0 0 1.557599,0.376334 c 1.71989,-0.772688 3.356224,-1.718791 4.88252,-2.826349 a 1.3096391,1.3109026 0 0 0 0.450153,-1.538647 l -1.17906,-3.026101 c 0.83096,-0.718847 1.609682,-1.491807 2.332562,-2.319449 l 3.00266,1.169963 a 1.3096391,1.3109026 0 0 0 1.537148,-0.453159 c 1.104952,-1.529709 2.048602,-3.169171 2.818512,-4.892353 A 1.3096391,1.3109026 0 0 0 55.204126,41.15334 l -2.460441,-1.973848 c 0.185025,-0.527507 0.384802,-1.050293 0.531989,-1.589823 a 1.3096391,1.3109026 0 0 0 0.0053,-0.02042 c 0.137016,-0.536053 0.220701,-1.084061 0.31971,-1.628228 l 3.148448,-0.483878 a 1.3096391,1.3109026 0 0 0 1.102331,-1.159728 c 0.195693,-1.875496 0.197955,-3.766404 0.008,-5.642462 A 1.3096391,1.3109026 0 0 0 56.754278,27.492404 L 53.531646,26.998281 C 53.322725,25.919535 53.039341,24.860304 52.6825,23.821174 l 2.537123,-2.035289 a 1.3096391,1.3109026 0 0 0 0.375973,-1.559107 c -0.77213,-1.720664 -1.719873,-3.357757 -2.826206,-4.884669 a 1.3096391,1.3109026 0 0 0 -1.534605,-0.450598 l -3.023128,1.180201 c -0.718575,-0.832244 -1.489877,-1.613485 -2.31723,-2.337398 l 1.168836,-3.005557 A 1.3096391,1.3109026 0 0 0 46.610539,9.1901349 C 45.082303,8.0841182 43.444423,7.139552 41.722902,6.3689034 a 1.3096391,1.3109026 0 0 0 -1.557597,0.376335 L 38.195923,9.2080557 C 37.669919,9.0232875 37.148148,8.8251583 36.610188,8.678114 a 1.3096391,1.3109026 0 0 0 -0.0204,-0.00511 C 36.053335,8.5357191 35.505027,8.4521069 34.960514,8.3529812 L 34.47968,5.2040578 A 1.3096391,1.3109026 0 0 0 33.321074,4.0980944 C 32.408366,4.0029802 31.491805,3.9529958 30.574168,3.9496085 Z"
       id="path1" />
    <path
       style="fill:#bbc0c5;stroke-width:0.94871"
       d="m 30.574168,3.000515 c -0.964966,-0.00412 -1.93005,0.043513 -2.89012,0.1408056 A 1.3096391,1.3109026 0 0 0 26.522883,4.2447243 L 26.026699,7.4730111 C 24.949897,7.6821627 23.892533,7.9659749 22.855237,8.3229645 L 20.821916,5.783345 A 1.3096391,1.3109026 0 0 0 19.264318,5.4070098 c -1.719893,0.7726795 -3.356224,1.7187885 -4.88252,2.8263508 a 1.3096391,1.3109026 0 0 0 -0.450152,1.5386215 l 1.179076,3.0260369 c -0.83096,0.718842 -1.609679,1.491808 -2.332564,2.319451 L 9.7729444,13.944944 A 1.3096391,1.3109026 0 0 0 8.2358047,14.398087 C 7.1308536,15.927782 6.1871966,17.56726 5.4172902,19.290428 a 1.3096391,1.3109026 0 0 0 0.3759731,1.55655 l 2.4630015,1.976402 c -0.1848837,0.526657 -0.3848169,1.048593 -0.5319875,1.587254 a 1.3096391,1.3109026 0 0 0 -0.00507,0.02042 c -0.1370346,0.536087 -0.2207095,1.084107 -0.3197224,1.628264 l -3.1484477,0.483863 a 1.3096391,1.3109026 0 0 0 -1.102338,1.159729 c -0.1956825,1.875506 -0.1979472,3.766399 -0.00774,5.642459 a 1.3096391,1.3109026 0 0 0 1.1048999,1.16229 l 3.2226198,0.494098 c 0.2087546,1.077921 0.4926662,2.136138 0.8491333,3.174528 l -2.539729,2.035278 a 1.3096391,1.3109026 0 0 0 -0.3759704,1.561668 c 0.7719344,1.721542 1.7171321,3.359463 2.8236261,4.887225 a 1.3096391,1.3109026 0 0 0 1.5371383,0.450587 l 3.0231198,-1.180215 c 0.7189,0.831954 1.492111,1.611217 2.319771,2.334815 l -1.168833,3.005561 a 1.3096391,1.3109026 0 0 0 0.452703,1.538613 c 1.528235,1.106018 3.166115,2.050591 4.887635,2.821232 a 1.3096391,1.3109026 0 0 0 1.555053,-0.376333 l 1.971934,-2.462818 c 0.526543,0.184654 1.047238,0.38308 1.585736,0.529944 a 1.3096391,1.3109026 0 0 0 0.0204,0.0053 c 0.536348,0.137349 1.084747,0.220805 1.629214,0.320008 l 0.483394,3.151491 a 1.3096391,1.3109026 0 0 0 1.158608,1.103394 c 1.872802,0.195691 3.761099,0.197957 5.634464,0.008 a 1.3096391,1.3109026 0 0 0 1.161167,-1.103403 l 0.496187,-3.225743 c 1.0768,-0.209157 2.134166,-0.492968 3.171458,-0.849961 l 2.033322,2.539621 a 1.3096391,1.3109026 0 0 0 1.557599,0.376334 c 1.71989,-0.772681 3.356224,-1.718783 4.882519,-2.826348 a 1.3096391,1.3109026 0 0 0 0.450152,-1.538666 l -1.179062,-3.026056 c 0.83096,-0.718856 1.609681,-1.491808 2.332562,-2.319454 l 3.002665,1.169936 a 1.3096391,1.3109026 0 0 0 1.537142,-0.453151 c 1.104953,-1.529706 2.048602,-3.169171 2.818512,-4.892352 a 1.3096391,1.3109026 0 0 0 -0.37597,-1.556566 l -2.460441,-1.97384 c 0.185025,-0.527507 0.384802,-1.050293 0.531989,-1.589823 a 1.3096391,1.3109026 0 0 0 0.0053,-0.02042 c 0.137016,-0.536053 0.220701,-1.084068 0.31971,-1.62823 l 3.148441,-0.483864 a 1.3096391,1.3109026 0 0 0 1.102331,-1.159724 c 0.195693,-1.875506 0.197955,-3.766401 0.008,-5.642459 A 1.3096391,1.3109026 0 0 0 56.75424,26.54334 l -3.222576,-0.494064 c -0.208925,-1.078755 -0.492311,-2.137974 -0.849152,-3.177102 l 2.53717,-2.035284 a 1.3096391,1.3109026 0 0 0 0.375972,-1.559105 C 54.823445,17.557021 53.875702,15.919928 52.76937,14.393017 a 1.3096391,1.3109026 0 0 0 -1.534598,-0.45059 l -3.023128,1.180215 c -0.718555,-0.832217 -1.489856,-1.613458 -2.31721,-2.33737 L 47.063269,9.7797128 A 1.3096391,1.3109026 0 0 0 46.610539,8.2410417 C 45.082303,7.1350252 43.444423,6.1904585 41.722902,5.4198099 A 1.3096391,1.3109026 0 0 0 40.165305,5.796145 L 38.195923,8.2589617 C 37.669919,8.0741949 37.148148,7.8760655 36.610188,7.7290211 a 1.3096391,1.3109026 0 0 0 -0.0204,-0.00511 C 36.053335,7.5866256 35.505027,7.5030134 34.960514,7.4038878 L 34.47968,4.2549644 A 1.3096391,1.3109026 0 0 0 33.321074,3.1490015 C 32.408366,3.0538873 31.491805,3.003903 30.574168,3.000515 Z"
       id="path2" />
    <path
       style="fill:#3f3f3f;stroke-width:0.94871"
       d="m 46.477802,30.963032 c 0,5.152426 1.982729,9.410499 -1.223012,12.948353 -3.643313,4.02076 -8.904423,6.545884 -14.754757,6.545884 -10.998049,0 -19.91372,-8.92384 -19.91372,-19.931969 0,-11.008117 8.915671,-19.932257 19.91372,-19.931968 1.422396,3.8e-5 15.977769,9.361577 15.977769,20.3697 z"
       id="path3" />
    <path
       style="opacity:0.3;fill:#ffffff;stroke-width:0.94871"
       d="m 27.655203,10.819531 c -1.974788,0.283468 -3.853792,0.853111 -5.597032,1.672118 h 5.597032 z m -7.586182,2.751032 c -0.420233,0.259558 -0.831058,0.530186 -1.229792,0.819368 h 1.229792 z m -3.489344,2.717661 c -0.607798,0.595416 -1.172295,1.229516 -1.700233,1.898281 h 8.982661 v -1.898281 z m 9.17897,0 v 1.898281 h 1.896556 v -1.898281 z m -12.197894,3.796561 c -0.377467,0.612261 -0.722689,1.244428 -1.033457,1.898281 h 3.748629 v -1.898281 z m 4.611727,0 v 1.898281 h 9.482723 v -1.898281 z m -6.430479,3.796563 c -0.218849,0.61888 -0.405257,1.25304 -0.563037,1.898291 h 8.890057 v -1.898291 z m -1.107549,5.694851 c -0.01487,0.316544 -0.04809,0.628908 -0.04809,0.949141 0,0.320232 0.03323,0.6326 0.04809,0.94914 h 7.538027 v -1.898281 z m 9.434569,0 v 1.898281 h 3.793084 v -1.898281 z m -9.256772,3.796562 c 0.09225,0.643835 0.214516,1.275865 0.366715,1.898292 h 5.096961 v -1.898292 z m 7.360231,0 v 1.898292 h 13.275808 v -1.898292 z m -6.430479,3.796574 c 0.229688,0.64952 0.492209,1.28167 0.785295,1.89828 h 1.852086 v -1.89828 z m 4.533924,0 v 1.89828 h 7.58618 v -1.89828 z m 13.27582,0 v 5.694842 h 1.896543 v -5.694842 z m 7.586181,0 v 7.593134 h 5.689628 v -7.593134 z m 1.896542,1.89828 h 1.896544 v 3.796562 h -1.896544 z m -25.473715,1.898279 c 0.405621,0.657905 0.841714,1.294064 1.318691,1.898283 h 7.086119 v -1.898283 z m 10.301352,0 v 1.898283 h 1.896542 v -1.898283 z m -7.282428,3.796575 c 0.505221,0.494934 1.037408,0.958515 1.592803,1.397758 v -1.397758 z m 3.489344,0 v 1.89828 h 7.586182 v -1.89828 z m 9.482724,0 v 5.646643 c 0.316251,0.01488 0.628331,0.04812 0.948272,0.04812 0.320595,0 0.631381,-0.03684 0.948271,-0.05195 v -3.744653 h 1.896542 v 3.570399 c 0.642544,-0.09231 1.275352,-0.211174 1.896546,-0.36334 v -5.10533 z"
       id="path4" />
    <path
       style="fill:#3daee9;stroke-width:0.94871"
       d="m 50.413735,30.52534 c 0,5.378051 -2.128028,10.25863 -5.587262,13.844152 L 30.500017,30.52534 V 10.59337 c 10.998046,0 19.913718,8.923844 19.913718,19.93197 z"
       id="path5" />
    <path
       style="fill:#ffffff;stroke-width:0.94871"
       d="m 29.551745,10.59337 v 20.501838 l 1.896543,-1.139706 V 10.59337 Z"
       id="path6" />
    <path
       style="opacity:0.2;stroke-width:0.94871"
       d="m 32.11875,31.752585 -1.340927,1.342143 13.083202,13.09519 c 0.320854,-0.292472 0.646884,-0.577385 0.948271,-0.889822 l 0.01864,0.01866 c 0.08568,-0.08872 0.160483,-0.187732 0.244476,-0.278066 0.05174,-0.05561 0.110492,-0.104519 0.162995,-0.159415 z"
       id="path7" />
    <path
       style="fill:#ff4949;stroke-width:0.94871"
       d="m 32.11875,30.803412 -1.340927,1.342145 13.083202,13.095189 c 0.320854,-0.29247 0.646884,-0.577383 0.948271,-0.889822 l 0.01864,0.01866 c 0.08568,-0.08872 0.160483,-0.187737 0.244476,-0.278065 0.05174,-0.05561 0.110492,-0.104541 0.162995,-0.15942 z"
       id="path8" />
    <ellipse
       style="opacity:0.2;stroke-width:0.94871"
       cx="30.500021"
       cy="31.474375"
       id="circle8"
       rx="2.8448293"
       ry="2.8474367" />
    <ellipse
       style="fill:#fcfcfc;stroke-width:0.94871"
       cx="30.500021"
       cy="30.525217"
       id="circle9"
       rx="2.8448293"
       ry="2.8474367" />
    <ellipse
       style="fill:#3f3f3f;stroke-width:0.94871"
       cx="30.500021"
       cy="30.525217"
       id="circle10"
       rx="0.94827646"
       ry="0.94914556" />
    <path
       style="opacity:0.2;fill:#ffffff;stroke-width:0.94871"
       d="m 30.574112,2.9999876 c -0.964975,-0.00412 -1.929207,0.043599 -2.889278,0.1408882 A 1.3096391,1.3109026 0 0 0 26.521715,4.2457406 L 26.02535,7.4713534 C 24.948533,7.6805045 23.891837,7.9671113 22.854544,8.324101 L 20.820939,5.7843949 A 1.3096391,1.3109026 0 0 0 19.265178,5.4062192 c -1.719891,0.7726797 -3.35585,1.7176291 -4.882145,2.8251916 A 1.3096391,1.3109026 0 0 0 13.93111,9.7700637 1.3096391,1.3109026 0 0 1 14.383033,9.1805565 c 1.526295,-1.1075621 3.162254,-2.052512 4.882145,-2.8251914 a 1.3096391,1.3109026 0 0 1 1.555761,0.3781755 l 2.033605,2.539706 C 23.891837,8.9162569 24.948533,8.6296502 26.02535,8.4204989 l 0.496365,-3.2256125 a 1.3096391,1.3109026 0 0 1 1.163119,-1.1048646 c 0.960071,-0.097286 1.924303,-0.145056 2.889278,-0.140889 0.917627,0.00331 1.835811,0.053191 2.74852,0.1483033 a 1.3096391,1.3109026 0 0 1 1.155707,1.1048651 l 0.481556,3.1514601 c 0.544505,0.099126 1.093459,0.1815783 1.629845,0.3188543 a 1.3096391,1.3109026 0 0 1 0.02222,0.00365 c 0.537964,0.1470454 1.059394,0.3454209 1.585402,0.5301885 l 1.966932,-2.4618469 a 1.3096391,1.3109026 0 0 1 1.55947,-0.3744675 c 1.721518,0.7706479 3.357619,1.7154671 4.885843,2.821484 A 1.3096391,1.3109026 0 0 1 47.061532,9.7811697 1.3096391,1.3109026 0 0 0 46.60961,8.2425175 C 45.081387,7.1365171 43.445286,6.1916982 41.723767,5.4210495 A 1.3096391,1.3109026 0 0 0 40.164297,5.795517 L 38.197366,8.2573646 C 37.671358,8.0725965 37.149928,7.8742214 36.611968,7.727177 a 1.3096391,1.3109026 0 0 0 -0.02222,-0.00365 C 36.053354,7.5861938 35.5044,7.5037412 34.959895,7.4046156 L 34.478339,4.253156 A 1.3096391,1.3109026 0 0 0 33.322632,3.1482904 C 32.409923,3.0531782 31.491739,3.0033738 30.574112,2.9999876 Z M 46.435524,13.29228 45.8947,14.68264 c 0.09307,0.08142 0.178656,0.170977 0.270414,0.253965 l 0.27041,-0.695169 c 0.621499,0.580564 1.221368,1.186845 1.778017,1.831551 l 3.022626,-1.182724 a 1.3096391,1.3109026 0 0 1 1.533541,0.452323 c 1.10634,1.526924 2.054208,3.16224 2.826312,4.882916 a 1.3096391,1.3109026 0 0 1 0.02414,0.06116 1.3096391,1.3109026 0 0 0 -0.02414,-1.01031 C 54.823916,17.55568 53.876048,15.92035 52.769708,14.393439 a 1.3096391,1.3109026 0 0 0 -1.533541,-0.452324 l -3.022626,1.182726 c -0.55665,-0.644706 -1.156518,-1.250989 -1.778017,-1.831564 z M 14.568243,13.3034 c -0.625439,0.57585 -1.229061,1.171764 -1.789142,1.81301 L 9.7712903,13.944813 a 1.3096391,1.3109026 0 0 0 -1.5372427,0.452325 c -1.1049518,1.529708 -2.0452901,3.170853 -2.8151967,4.894036 a 1.3096391,1.3109026 0 0 0 -0.024079,1.010325 1.3096391,1.3109026 0 0 1 0.024079,-0.06116 c 0.7699066,-1.72319 1.7102449,-3.364334 2.8151967,-4.894031 a 1.3096391,1.3109026 0 0 1 1.5372427,-0.452342 l 3.0078107,1.171604 c 0.560081,-0.641245 1.163703,-1.237159 1.789142,-1.81301 l 0.270398,0.695167 c 0.09181,-0.08178 0.177301,-0.169721 0.270412,-0.250262 z M 7.7525009,24.318683 c -0.00882,0.0312 -0.021075,0.06137 -0.029633,0.09267 a 1.3096391,1.3109026 0 0 0 -0.00365,0.0186 C 7.5821708,24.965997 7.4996445,25.513419 7.4006325,26.057575 L 4.2520551,26.543266 A 1.3096391,1.3109026 0 0 0 3.1482018,27.703748 C 3.0532208,28.61411 3.03528,29.52782 3.0407799,30.441803 c 0.015511,-0.597106 0.04533,-1.193788 0.1074219,-1.78891 A 1.3096391,1.3109026 0 0 1 4.252037,27.492396 L 7.400604,27.006691 C 7.499616,26.462534 7.582143,25.915112 7.7191665,25.37906 a 1.3096391,1.3109026 0 0 1 0.00365,-0.0186 c 0.00846,-0.03125 0.02074,-0.06148 0.029633,-0.09265 l 0.2407766,0.192788 c 0.086358,-0.246041 0.1766371,-0.491793 0.2630019,-0.737806 z m 45.3950391,0.07784 -0.466731,0.374479 c 0.08643,0.25154 0.155351,0.507992 0.233364,0.761905 l 0.233367,-0.187233 c 0.147075,0.545463 0.277572,1.097681 0.385232,1.653594 l 3.222658,0.493107 a 1.3096391,1.3109026 0 0 1 1.103854,1.160483 c 0.05883,0.580518 0.08715,1.162176 0.101867,1.744426 0.0064,-0.899049 -0.01105,-1.79773 -0.101867,-2.693571 A 1.3096391,1.3109026 0 0 0 56.75543,26.543237 L 53.532772,26.050131 C 53.425112,25.494226 53.294615,24.942007 53.14754,24.396537 Z M 7.852514,38.552166 5.778159,40.213167 a 1.3096391,1.3109026 0 0 0 -0.4019057,1.497878 1.3096391,1.3109026 0 0 1 0.4019057,-0.54873 l 2.074355,-1.660998 c 0.069085,0.255721 0.1555032,0.507657 0.2333649,0.761907 L 8.3192441,40.075987 C 8.1468482,39.573801 7.9906756,39.063614 7.852514,38.552167 Z m 45.391338,0.08153 c -0.144011,0.504882 -0.326294,0.998721 -0.500072,1.494166 l 0.250039,0.200202 c 0.08513,-0.247947 0.178185,-0.493347 0.250033,-0.745224 l 1.959516,1.572026 a 1.3096391,1.3109026 0 0 1 0.400054,0.546865 1.3096391,1.3109026 0 0 0 -0.400054,-1.49601 z m -6.812041,11.015287 c -0.181532,0.167118 -0.353949,0.342582 -0.540808,0.504227 l 0.270406,0.697033 c 0.08915,-0.08499 0.179633,-0.168556 0.270402,-0.252115 l 0.637123,1.631345 a 1.3096391,1.3109026 0 0 0 0,-0.949147 z m -31.86728,0.0076 -0.626009,1.616522 a 1.3096391,1.3109026 0 0 0 0,0.947286 l 0.626009,-1.614663 c 0.09052,0.08434 0.181145,0.168451 0.270411,0.253976 l 0.270409,-0.695188 c -0.186491,-0.163024 -0.359854,-0.33926 -0.54082,-0.507921 z"
       id="path10" />
    <path
       style="opacity:0.2;stroke-width:0.94871"
       d="m 30.500028,10.593148 a 19.913718,19.931969 0 0 0 -19.913809,19.932059 19.913718,19.931969 0 0 0 0.01666,0.493119 19.913718,19.931969 0 0 1 19.897142,-19.476033 19.913718,19.931969 0 0 1 19.88973,19.466757 19.913718,19.931969 0 0 0 0.02412,-0.483843 19.913718,19.931969 0 0 0 -19.913817,-19.932059 z"
       id="path11" />
    <path
       style="opacity:0.2;fill:#ffffff;stroke-width:0.94871"
       d="M 10.602886,30.981247 A 19.913718,19.931969 0 0 0 10.586221,31.474352 19.913718,19.931969 0 0 0 30.50003,51.406414 19.913718,19.931969 0 0 0 50.413834,31.474352 19.913718,19.931969 0 0 0 50.389756,30.99051 19.913718,19.931969 0 0 1 30.500028,50.457268 19.913718,19.931969 0 0 1 10.602886,30.981247 Z"
       id="path12" />
  </g>
</svg>
