<?xml version="1.0" encoding="UTF-8" standalone="no"?>
<svg
   height="62"
   width="62"
   version="1.1"
   id="svg1886"
   sodipodi:docname="kde-frameworks.svg"
   inkscape:version="1.4 (e7c3feb100, 2024-10-09)"
   xmlns:inkscape="http://www.inkscape.org/namespaces/inkscape"
   xmlns:sodipodi="http://sodipodi.sourceforge.net/DTD/sodipodi-0.dtd"
   xmlns:xlink="http://www.w3.org/1999/xlink"
   xmlns="http://www.w3.org/2000/svg"
   xmlns:svg="http://www.w3.org/2000/svg">
  <defs
     id="defs1890">
    <linearGradient
       id="m"
       x1="68.210472"
       x2="148.52051"
       y1="177.75131"
       y2="258.06134"
       gradientUnits="userSpaceOnUse"
       gradientTransform="matrix(0.37626177,0,0,0.37626188,65.040985,-89.103956)">
      <stop
         stop-color="#59f"
         offset="0"
         id="stop3371" />
      <stop
         stop-color="#06f"
         offset="1"
         id="stop3373" />
    </linearGradient>
    <linearGradient
       id="l"
       x1="220.30621"
       x2="54.439178"
       y1="207.9187"
       y2="42.051666"
       gradientTransform="matrix(0.16799417,0,0,0.1635966,87.490625,-33.319276)"
       gradientUnits="userSpaceOnUse"
       xlink:href="#a-3" />
    <linearGradient
       id="a-3">
      <stop
         stop-color="#2a7fff"
         offset="0"
         id="stop3327" />
      <stop
         stop-color="#0cf"
         offset="1"
         id="stop3329" />
    </linearGradient>
    <linearGradient
       id="linearGradient2356">
      <stop
         offset="0"
         id="stop2" />
      <stop
         offset="1"
         stop-opacity="0"
         id="stop4" />
    </linearGradient>
    <linearGradient
       id="linearGradient1035-3"
       x1="99.036003"
       x2="99.036003"
       y1="100.29"
       y2="199.84"
       gradientTransform="matrix(0.20999983,0,0,0.20999978,6.9998805,7.0000017)"
       gradientUnits="userSpaceOnUse">
      <stop
         stop-color="#4bd2f5"
         offset="0"
         id="stop19-6" />
      <stop
         stop-color="#5587ff"
         offset="1"
         id="stop21-7" />
    </linearGradient>
    <linearGradient
       id="linearGradient1058-5"
       x1="-184.75"
       x2="-170.19"
       y1="-8.5412998"
       y2="-15.811"
       gradientTransform="matrix(2.8862422,0,0,2.8862419,540.2177,52.651171)"
       gradientUnits="userSpaceOnUse">
      <stop
         stop-color="#505f64"
         offset="0"
         id="stop2-3" />
      <stop
         stop-color="#647378"
         offset="1"
         id="stop4-5" />
    </linearGradient>
    <filter
       id="filter959-6"
       x="-0.037148848"
       y="-0.14184019"
       width="1.0742977"
       height="1.2836804"
       color-interpolation-filters="sRGB">
      <feGaussianBlur
         stdDeviation="0.051039421"
         id="feGaussianBlur16-2" />
    </filter>
    <filter
       id="filter1255-9"
       x="-0.059940837"
       y="-0.059957325"
       width="1.1198817"
       height="1.1199147"
       color-interpolation-filters="sRGB">
      <feGaussianBlur
         stdDeviation="0.064633745"
         id="feGaussianBlur7-1" />
    </filter>
    <filter
       id="filter1269-2"
       x="-0.060000092"
       y="-0.060000092"
       width="1.1200002"
       height="1.1200002"
       color-interpolation-filters="sRGB">
      <feGaussianBlur
         stdDeviation="0.082435125"
         id="feGaussianBlur10-7" />
    </filter>
    <filter
       id="filter1287-0"
       x="-0.051957909"
       y="-0.071659364"
       width="1.1039158"
       height="1.1433187"
       color-interpolation-filters="sRGB">
      <feGaussianBlur
         stdDeviation="0.07138584"
         id="feGaussianBlur13-9" />
    </filter>
    <linearGradient
       inkscape:collect="always"
       xlink:href="#m"
       id="linearGradient1068"
       gradientUnits="userSpaceOnUse"
       gradientTransform="matrix(0.37626177,0,0,0.37626188,-92.653926,-60.285009)"
       x1="68.210472"
       y1="177.75131"
       x2="148.52051"
       y2="258.06134" />
    <linearGradient
       inkscape:collect="always"
       xlink:href="#a-3"
       id="linearGradient1070"
       gradientUnits="userSpaceOnUse"
       gradientTransform="matrix(0.16799417,0,0,0.1635966,-70.204286,-4.5003294)"
       x1="220.30621"
       y1="207.9187"
       x2="54.439178"
       y2="42.051666" />
    <linearGradient
       inkscape:collect="always"
       xlink:href="#a"
       id="linearGradient1072"
       gradientUnits="userSpaceOnUse"
       gradientTransform="matrix(1.0499996,0,0,1.0499996,-77.563582,-3.4999914)"
       x1="16"
       y1="11"
       x2="34.942001"
       y2="29.941999" />
    <linearGradient
       inkscape:collect="always"
       xlink:href="#a"
       id="linearGradient1074"
       gradientUnits="userSpaceOnUse"
       gradientTransform="matrix(0.74246194,0.74246195,-0.74246194,0.74246195,-77.563582,-3.4999914)"
       x1="31.021"
       y1="-9.8959999"
       x2="43.104"
       y2="-9.8959999" />
    <linearGradient
       inkscape:collect="always"
       xlink:href="#a"
       id="linearGradient1076"
       gradientUnits="userSpaceOnUse"
       gradientTransform="matrix(1.0499996,0,0,1.0499996,-77.563582,-3.4999914)"
       x1="23.716"
       y1="13.219"
       x2="26.348"
       y2="15.851" />
  </defs>
  <sodipodi:namedview
     id="namedview1888"
     pagecolor="#ffffff"
     bordercolor="#666666"
     borderopacity="1.0"
     inkscape:showpageshadow="2"
     inkscape:pageopacity="0.0"
     inkscape:pagecheckerboard="0"
     inkscape:deskcolor="#d1d1d1"
     showgrid="false"
     inkscape:zoom="4.9166667"
     inkscape:cx="1.7288135"
     inkscape:cy="24.406779"
     inkscape:window-width="1920"
     inkscape:window-height="994"
     inkscape:window-x="0"
     inkscape:window-y="0"
     inkscape:window-maximized="1"
     inkscape:current-layer="svg1886" />
  <linearGradient
     id="a">
    <stop
       offset="0"
       id="stop1845" />
    <stop
       offset="1"
       stop-opacity="0"
       id="stop1847" />
  </linearGradient>
  <linearGradient
     id="b"
     gradientUnits="userSpaceOnUse"
     x1="16"
     x2="34.942001"
     xlink:href="#a"
     y1="11"
     y2="29.941999" />
  <linearGradient
     id="c"
     gradientTransform="rotate(45)"
     gradientUnits="userSpaceOnUse"
     x1="31.021"
     x2="43.104"
     xlink:href="#a"
     y1="-9.8959999"
     y2="-9.8959999" />
  <linearGradient
     id="d"
     gradientUnits="userSpaceOnUse"
     x1="23.716"
     x2="26.348"
     xlink:href="#a"
     y1="13.219"
     y2="15.851" />
  <linearGradient
     id="e"
     gradientTransform="matrix(1.0454421,0,0,1.0298842,46.076843,3.856842)"
     gradientUnits="userSpaceOnUse"
     x1="-45.221867"
     x2="0.69172603"
     y1="-4.91011"
     y2="41.697075">
    <stop
       offset="0"
       stop-color="#2bc0ff"
       id="stop1853" />
    <stop
       offset="1"
       stop-color="#1d99f3"
       id="stop1855" />
  </linearGradient>
  <g
     id="g1"
     transform="matrix(1.3333333,0,0,1.3333333,100.51412,2.4117795)">
    <ellipse
       cx="-52.135593"
       cy="21.441168"
       fill="url(#m)"
       stroke-width="0.0173423"
       id="circle3376-6"
       style="fill:url(#linearGradient1068)"
       rx="20.999992"
       ry="20.999998" />
    <ellipse
       cx="-52.135593"
       cy="20.891443"
       rx="20.999992"
       ry="20.450277"
       stroke-width="0.0171139"
       id="ellipse3378-2"
       style="fill:url(#linearGradient1070)" />
    <path
       d="m -54.293371,16.162892 -2.30303,-2.303025 -2.419924,1.527831 -0.910547,2.091794 -7.087498,7.087498 4.837794,4.837795 -2.063084,1.835452 10.409769,10.409761 h 14.91942 c 3.01777,0 5.44688,-2.39434 5.44688,-5.366893 -8.92109,-11.006187 -18.9,-22.983101 -20.82978,-20.120213 z"
       fill="url(#b)"
       opacity="0.2"
       id="path31-2-9"
       style="fill:url(#linearGradient1072);stroke-width:1.05" />
    <path
       d="m -38.744351,8.0377 -4.58759,1.236621 -4.74552,9.974997 4.11387,8.74453 11.84942,11.849407 c 0.47489,-0.823406 0.75058,-1.7749 0.75058,-2.793155 V 15.418461 Z"
       fill="url(#c)"
       opacity="0.2"
       id="path33-9-1"
       style="fill:url(#linearGradient1074);stroke-width:1.05" />
    <path
       d="m -50.262741,6.995164 4.75788,4.757886 -3.29937,6.988085 -6.60224,-6.602242 z"
       fill="url(#d)"
       opacity="0.2"
       id="path35-1-2"
       style="fill:url(#linearGradient1076);stroke-width:1.05" />
    <path
       d="m -61.594156,11.848052 c -0.129209,-0.0059 -0.254002,0.03254 -0.35683,0.135346 l -2.229206,2.229206 c -0.205656,0.205663 -0.205656,0.536722 0,0.742378 l 2.303032,3.617578 c -0.184323,0.3719 -0.343951,0.755548 -0.477832,1.148436 l -4.183594,0.929006 c -0.290853,0 -0.525,0.234153 -0.525,0.525 v 3.149999 c 0,0.290846 0.241076,0.46191 0.525,0.525 l 4.185647,0.931059 c 0.129627,0.389043 0.284447,0.769242 0.463472,1.138183 l -2.30713,3.625778 c -0.156149,0.245381 -0.205663,0.536715 0,0.742377 l 2.227152,2.229207 c 0.205664,0.205656 0.536723,0.205656 0.742378,0 l 3.625786,-2.309184 c 0.37507,0.186842 0.76216,0.348527 1.15869,0.483983 l 0.929,4.183595 c 0,0.290847 0.23415,0.525 0.525,0.525 h 3.15 c 0.29085,0 0.46191,-0.241076 0.525,-0.525 l 0.93106,-4.185648 c 0.39483,-0.131622 0.78053,-0.289194 1.15459,-0.471679 l 3.60938,2.298933 c 0.20565,0.205656 0.53671,0.205656 0.74237,0 l 2.22921,-2.229207 c 0.20566,-0.205662 0.15615,-0.496996 0,-0.742377 l -0.98438,-1.546289 -0.73418,0.293257 -2.35225,-3.527341 c -1.18542,2.635899 -3.80561,4.332398 -6.6958,4.335352 -4.05929,0 -7.349996,-3.290707 -7.349996,-7.349999 0.0031,-2.835866 1.637765,-5.416854 4.199996,-6.632224 v -2.259963 c -0.35329,0.12092 -0.69912,0.262675 -1.03564,0.424516 l -3.609378,-2.298932 c -0.122688,-0.07809 -0.256331,-0.129158 -0.385547,-0.135346 z"
       fill="#ffffff"
       id="path37-2-7"
       style="stroke-width:1.05" />
    <path
       d="m -50.263591,7.000005 -5.25,0.486032 V 28 l 5.25,-1.05 v -8.399997 l 6.3,9.449997 5.25,-2.099999 -6.825,-8.83476 6.8291,-9.015236 -5.49814,-1.05 -6.05596,8.924998 z"
       fill="#ffffff"
       id="path39-7-0"
       style="stroke-width:1.05" />
  </g>
</svg>
