<?xml version="1.0" encoding="UTF-8" standalone="no"?>
<svg
   clip-rule="evenodd"
   fill-rule="evenodd"
   stroke-linejoin="round"
   stroke-miterlimit="2"
   viewBox="0 0 62 62"
   version="1.1"
   id="svg3"
   sodipodi:docname="kdenlive.svg"
   width="62"
   height="62"
   inkscape:version="1.4 (e7c3feb100, 2024-10-09)"
   xmlns:inkscape="http://www.inkscape.org/namespaces/inkscape"
   xmlns:sodipodi="http://sodipodi.sourceforge.net/DTD/sodipodi-0.dtd"
   xmlns:xlink="http://www.w3.org/1999/xlink"
   xmlns="http://www.w3.org/2000/svg"
   xmlns:svg="http://www.w3.org/2000/svg">
  <defs
     id="defs3">
    <linearGradient
       id="linearGradient3"
       inkscape:collect="always">
      <stop
         style="stop-color:#2d3e55;stop-opacity:1;"
         offset="0"
         id="stop3" />
      <stop
         style="stop-color:#212e3f;stop-opacity:1;"
         offset="1"
         id="stop4" />
    </linearGradient>
    <filter
       id="b-3-36"
       width="1.2393739"
       height="1.1966286"
       x="-0.11968695"
       y="-0.098314282"
       color-interpolation-filters="sRGB">
      <feGaussianBlur
         stdDeviation="1.147"
         id="feGaussianBlur7-6" />
    </filter>
    <filter
       id="b-3-36-6"
       width="1.2393739"
       height="1.1966286"
       x="-0.11968695"
       y="-0.098314282"
       color-interpolation-filters="sRGB">
      <feGaussianBlur
         stdDeviation="1.147"
         id="feGaussianBlur7-6-7" />
    </filter>
    <linearGradient
       inkscape:collect="always"
       xlink:href="#linearGradient3"
       id="linearGradient4"
       x1="31.996025"
       y1="5.0983038"
       x2="32.182014"
       y2="58.017544"
       gradientUnits="userSpaceOnUse" />
  </defs>
  <sodipodi:namedview
     id="namedview3"
     pagecolor="#ffffff"
     bordercolor="#000000"
     borderopacity="0.25"
     inkscape:showpageshadow="2"
     inkscape:pageopacity="0.0"
     inkscape:pagecheckerboard="0"
     inkscape:deskcolor="#d1d1d1"
     inkscape:zoom="11.019081"
     inkscape:cx="23.913065"
     inkscape:cy="35.937661"
     inkscape:window-width="1920"
     inkscape:window-height="994"
     inkscape:window-x="0"
     inkscape:window-y="0"
     inkscape:window-maximized="1"
     inkscape:current-layer="svg3" />
  <linearGradient
     id="a"
     x2="1"
     gradientTransform="matrix(0,-43.53155,43.53155,0,1192.407,51.589413)"
     gradientUnits="userSpaceOnUse">
    <stop
       stop-color="#161616"
       offset="0"
       id="stop1" />
    <stop
       stop-color="#343434"
       offset="1"
       id="stop2" />
  </linearGradient>
  <g
     id="g3"
     transform="translate(3.487626,-1.843205)" />
  <rect
     style="opacity:0.2;stroke-width:0.9823"
     width="55"
     height="55.017544"
     x="3.5"
     y="3.9824562"
     rx="8.25"
     ry="8.2526312"
     id="rect1-3" />
  <rect
     style="fill:url(#linearGradient4);stroke-width:0.9823"
     width="55"
     height="55.017544"
     x="3.5"
     y="3"
     rx="8.25"
     ry="8.2526312"
     id="rect2-5" />
  <path
     style="opacity:0.1;fill:#ffffff;stroke-width:0.9823"
     d="M 11.748466,3 C 7.1779651,3 3.4999999,6.6791384 3.4999999,11.251097 v 0.982456 c 0,-4.5719585 3.6779652,-8.2510968 8.2484661,-8.2510968 h 38.503068 c 4.5705,0 8.248466,3.6791383 8.248466,8.2510968 V 11.251097 C 58.5,6.6791384 54.822034,3 50.251534,3 Z"
     id="path4-6" />
  <g
     id="g1"
     transform="matrix(1,0,0,1.0384615,7.0000003,-73.884615)">
    <path
       style="fill:#e14c39"
       d="m 23,77 0.07812,50 H 27 V 77 Z"
       id="path4" />
    <path
       style="opacity:0.2;fill-rule:evenodd"
       d="m 15,86 v 3 h 4 v -3 z m -4,6 v 3 h 8 v -3 z m -8,6 v 3 h 16 v -3 z m -4,6 v 3 h 20 v -3 z m 4,6 v 3 h 16 v -3 z m 8,6 v 3 h 8 v -3 z"
       id="path5" />
    <path
       style="fill:#83b9f5;fill-rule:evenodd"
       d="m 15,85 v 3 h 4 v -3 z m -4,6 v 3 h 8 v -3 z m -8,6 v 3 h 16 v -3 z m -4,6 v 3 h 20 v -3 z m 4,6 v 3 h 16 v -3 z m 8,6 v 3 h 8 v -3 z"
       id="path6" />
    <path
       style="opacity:0.2"
       d="M 33,76 H 24.999998 17 l 4,6 3.999998,6 4,-6 z"
       id="path7" />
    <path
       style="fill:#ff6161"
       d="M 33,75 H 24.999998 17 l 4,6 3.999998,6 4,-6 z"
       id="path8" />
    <path
       style="opacity:0.2"
       d="m 32.555294,91.401844 c -0.736528,0.03972 -1.529608,0.687324 -1.527754,1.404914 L 31,113.9935 c 0,0.95686 1.408318,1.78948 2.213958,1.22104 l 15.17856,-10.62959 c 0.8109,-0.56142 0.80905,-1.87837 0,-2.44228 L 33.242112,91.585714 c -0.20223,-0.14086 -0.440704,-0.19698 -0.68632,-0.18386 z"
       id="path9" />
    <path
       style="fill:#3a7cca"
       d="m 32.555294,90.401844 c -0.736528,0.03972 -1.529608,0.687324 -1.527754,1.404914 L 31,112.9935 c 0,0.95686 1.408318,1.78948 2.213958,1.22104 l 15.17856,-10.62959 c 0.8109,-0.56142 0.80905,-1.87837 0,-2.44228 L 33.242112,90.585714 c -0.20223,-0.14086 -0.440704,-0.19698 -0.68632,-0.18386 z"
       id="path10" />
    <path
       style="opacity:0.1;fill:#ffffff"
       d="m 32.554688,90.402344 c -0.736528,0.03972 -1.529198,0.686707 -1.527344,1.404297 L 31,112.99414 c 0,0.003 0.0019,0.005 0.002,0.008 l 0.02539,-20.195311 c -0.0019,-0.71759 0.790816,-1.364577 1.527344,-1.404297 h 0.002 c 0.245616,-0.01312 0.483316,0.04273 0.685547,0.183594 l 15.15039,10.556644 c 0.258169,0.17994 0.423977,0.44032 0.517578,0.72461 0.201781,-0.60689 0.03471,-1.33967 -0.517578,-1.72461 L 33.242281,90.585926 C 33.04005,90.445066 32.80235,90.389212 32.556734,90.402332 Z"
       id="path11" />
    <path
       style="opacity:0.1;fill:#ffffff;fill-rule:evenodd"
       d="m 15,85 v 1 h 4 v -1 z m -4,6 v 1 h 8 v -1 z m -8,6 v 1 h 16 v -1 z m -4,6 v 1 h 20 v -1 z m 4,6 v 1 h 16 v -1 z m 8,6 v 1 h 8 v -1 z"
       id="path12" />
  </g>
</svg>
