<?xml version="1.0" encoding="UTF-8" standalone="no"?>
<svg
   clip-rule="evenodd"
   fill-rule="evenodd"
   stroke-linejoin="round"
   stroke-miterlimit="2"
   viewBox="0 0 62 62"
   version="1.1"
   id="svg3"
   sodipodi:docname="kdiamond.svg"
   width="62"
   height="62"
   inkscape:version="1.4 (e7c3feb100, 2024-10-09)"
   xmlns:inkscape="http://www.inkscape.org/namespaces/inkscape"
   xmlns:sodipodi="http://sodipodi.sourceforge.net/DTD/sodipodi-0.dtd"
   xmlns:xlink="http://www.w3.org/1999/xlink"
   xmlns="http://www.w3.org/2000/svg"
   xmlns:svg="http://www.w3.org/2000/svg">
  <defs
     id="defs3">
    <linearGradient
       id="linearGradient3"
       inkscape:collect="always">
      <stop
         style="stop-color:#2d3e55;stop-opacity:1;"
         offset="0"
         id="stop3" />
      <stop
         style="stop-color:#212e3f;stop-opacity:1;"
         offset="1"
         id="stop4" />
    </linearGradient>
    <filter
       id="b-3-36"
       width="1.2393739"
       height="1.1966286"
       x="-0.11968695"
       y="-0.098314282"
       color-interpolation-filters="sRGB">
      <feGaussianBlur
         stdDeviation="1.147"
         id="feGaussianBlur7-6" />
    </filter>
    <filter
       id="b-3-36-6"
       width="1.2393739"
       height="1.1966286"
       x="-0.11968695"
       y="-0.098314282"
       color-interpolation-filters="sRGB">
      <feGaussianBlur
         stdDeviation="1.147"
         id="feGaussianBlur7-6-7" />
    </filter>
    <linearGradient
       inkscape:collect="always"
       xlink:href="#linearGradient3"
       id="linearGradient4"
       x1="31.996025"
       y1="5.0983038"
       x2="32.182014"
       y2="58.017544"
       gradientUnits="userSpaceOnUse" />
    <linearGradient
       xlink:href="#linearGradient4293"
       id="linearGradient4299"
       x1="16"
       y1="20"
       x2="7"
       y2="7"
       gradientUnits="userSpaceOnUse" />
    <linearGradient
       id="linearGradient4293">
      <stop
         style="stop-color:#bf4231;stop-opacity:1;"
         offset="0"
         id="stop17" />
      <stop
         style="stop-color:#f58273;stop-opacity:1"
         offset="1"
         id="stop19" />
    </linearGradient>
    <linearGradient
       xlink:href="#linearGradient4301"
       id="linearGradient4307"
       x1="39"
       y1="20"
       x2="30"
       y2="7"
       gradientUnits="userSpaceOnUse" />
    <linearGradient
       id="linearGradient4301">
      <stop
         style="stop-color:#ffa92d;stop-opacity:1;"
         offset="0"
         id="stop12" />
      <stop
         style="stop-color:#ffc169;stop-opacity:1"
         offset="1"
         id="stop14" />
    </linearGradient>
    <linearGradient
       xlink:href="#linearGradient4309"
       id="linearGradient4315"
       x1="17"
       y1="40.124001"
       x2="10"
       y2="28"
       gradientUnits="userSpaceOnUse" />
    <linearGradient
       id="linearGradient4309">
      <stop
         style="stop-color:#3bb566;stop-opacity:1;"
         offset="0"
         id="stop7" />
      <stop
         style="stop-color:#7ceca4;stop-opacity:1"
         offset="1"
         id="stop9" />
    </linearGradient>
    <linearGradient
       xlink:href="#linearGradient4317"
       id="linearGradient4323"
       x1="38"
       y1="42"
       x2="30"
       y2="29"
       gradientUnits="userSpaceOnUse" />
    <linearGradient
       id="linearGradient4317">
      <stop
         style="stop-color:#3b85b5;stop-opacity:1"
         offset="0"
         id="stop2-3" />
      <stop
         style="stop-color:#7cbcec;stop-opacity:1"
         offset="1"
         id="stop4-6" />
    </linearGradient>
  </defs>
  <sodipodi:namedview
     id="namedview3"
     pagecolor="#ffffff"
     bordercolor="#000000"
     borderopacity="0.25"
     inkscape:showpageshadow="2"
     inkscape:pageopacity="0.0"
     inkscape:pagecheckerboard="0"
     inkscape:deskcolor="#d1d1d1"
     inkscape:zoom="11.019081"
     inkscape:cx="30.265682"
     inkscape:cy="28.768279"
     inkscape:window-width="1920"
     inkscape:window-height="994"
     inkscape:window-x="0"
     inkscape:window-y="0"
     inkscape:window-maximized="1"
     inkscape:current-layer="svg3" />
  <linearGradient
     id="a"
     x2="1"
     gradientTransform="matrix(0,-43.53155,43.53155,0,1192.407,51.589413)"
     gradientUnits="userSpaceOnUse">
    <stop
       stop-color="#161616"
       offset="0"
       id="stop1" />
    <stop
       stop-color="#343434"
       offset="1"
       id="stop2" />
  </linearGradient>
  <g
     id="g3"
     transform="translate(3.487626,-1.843205)" />
  <rect
     style="opacity:0.2;stroke-width:0.9823"
     width="55"
     height="55.017544"
     x="3.5"
     y="3.9824562"
     rx="8.25"
     ry="8.2526312"
     id="rect1-3" />
  <rect
     style="fill:url(#linearGradient4);stroke-width:0.9823"
     width="55"
     height="55.017544"
     x="3.5"
     y="3"
     rx="8.25"
     ry="8.2526312"
     id="rect2-5" />
  <path
     style="opacity:0.1;fill:#ffffff;stroke-width:0.9823"
     d="M 11.748466,3 C 7.1779651,3 3.4999999,6.6791384 3.4999999,11.251097 v 0.982456 c 0,-4.5719585 3.6779652,-8.2510968 8.2484661,-8.2510968 h 38.503068 c 4.5705,0 8.248466,3.6791383 8.248466,8.2510968 V 11.251097 C 58.5,6.6791384 54.822034,3 50.251534,3 Z"
     id="path4-6" />
  <g
     id="g38-5-5"
     transform="matrix(1.0500002,0,0,1.0500002,5.799995,5.799995)">
    <path
       style="fill:url(#linearGradient4299);fill-opacity:1;stroke:#808080;stroke-width:0;stroke-linecap:round;stroke-linejoin:round;stroke-miterlimit:4;stroke-dasharray:none;stroke-opacity:1"
       d="m 12.999074,4.0000048 c -0.242518,0 -0.484965,0.092118 -0.670794,0.2779369 L 4.2787495,12.32885 c -0.3716597,0.371638 -0.3716597,0.969871 0,1.341509 l 8.0495305,8.050908 c 0.371659,0.371638 0.971781,0.371638 1.34344,0 l 8.04953,-8.050908 c 0.371661,-0.371638 0.371661,-0.969871 0,-1.341509 L 13.67172,4.2779417 C 13.485891,4.0921228 13.241591,4.0000048 12.999074,4.0000048 Z"
       id="path28-5-9" />
    <path
       d="m 34.999074,4.0000048 c -0.242518,0 -0.484965,0.092118 -0.670794,0.2779369 L 26.278749,12.32885 c -0.371659,0.371638 -0.371659,0.969871 0,1.341509 l 8.049531,8.050908 c 0.371659,0.371638 0.971781,0.371638 1.34344,0 l 8.04953,-8.050908 c 0.371661,-0.371638 0.371661,-0.969871 0,-1.341509 L 35.67172,4.2779417 C 35.485891,4.0921228 35.241591,4.0000048 34.999074,4.0000048 Z"
       style="fill:url(#linearGradient4307);fill-opacity:1;stroke:#808080;stroke-width:0;stroke-linecap:round;stroke-linejoin:round;stroke-miterlimit:4;stroke-dasharray:none;stroke-opacity:1"
       id="path30-4-2" />
    <path
       d="m 12.999074,26.000005 c -0.242518,0 -0.484965,0.09212 -0.670794,0.277937 L 4.2787495,34.32885 c -0.3716597,0.371638 -0.3716597,0.969871 0,1.341509 l 8.0495305,8.050908 c 0.371659,0.371638 0.971781,0.371638 1.34344,0 l 8.04953,-8.050908 c 0.371661,-0.371638 0.371661,-0.969871 0,-1.341509 l -8.04953,-8.050908 c -0.185829,-0.185819 -0.430129,-0.277937 -0.672646,-0.277937 z"
       style="fill:url(#linearGradient4315);fill-opacity:1;stroke:#808080;stroke-width:0;stroke-linecap:round;stroke-linejoin:round;stroke-miterlimit:4;stroke-dasharray:none;stroke-opacity:1"
       id="path32-7-2" />
    <path
       style="fill:url(#linearGradient4323);fill-opacity:1;stroke:#808080;stroke-width:0;stroke-linecap:round;stroke-linejoin:round;stroke-miterlimit:4;stroke-dasharray:none;stroke-opacity:1"
       d="m 34.999074,26.000005 c -0.242518,0 -0.484965,0.09212 -0.670794,0.277937 l -8.049531,8.050908 c -0.371659,0.371638 -0.371659,0.969871 0,1.341509 l 8.049531,8.050908 c 0.371659,0.371638 0.971781,0.371638 1.34344,0 l 8.04953,-8.050908 c 0.371661,-0.371638 0.371661,-0.969871 0,-1.341509 l -8.04953,-8.050908 c -0.185829,-0.185819 -0.430129,-0.277937 -0.672646,-0.277937 z"
       id="path34-6-8" />
    <path
       style="opacity:0.15;fill:#000000;fill-opacity:1;stroke:#808080;stroke-width:0;stroke-linecap:round;stroke-linejoin:round;stroke-miterlimit:4;stroke-dasharray:none;stroke-opacity:1"
       d="m 4.1660156,12.5 c -0.2334979,0.367121 -0.2077215,0.848938 0.1132813,1.169922 l 8.0488281,8.050781 c 0.371659,0.371638 0.972091,0.371638 1.34375,0 l 8.048828,-8.050781 c 0.321004,-0.320984 0.34678,-0.802801 0.113281,-1.169922 -0.03666,0.05743 -0.06302,0.119668 -0.113281,0.169922 l -8.048828,8.050781 c -0.371659,0.371638 -0.972091,0.371638 -1.34375,0 L 4.2792969,12.669922 C 4.2290403,12.619668 4.2026806,12.557429 4.1660156,12.5 Z m 22.0000004,0 c -0.233498,0.367121 -0.207721,0.848938 0.113281,1.169922 l 8.048828,8.050781 c 0.371659,0.371638 0.972091,0.371638 1.34375,0 l 8.048828,-8.050781 c 0.321004,-0.320984 0.34678,-0.802801 0.113281,-1.169922 -0.03666,0.05743 -0.06302,0.119668 -0.113281,0.169922 l -8.048828,8.050781 c -0.371659,0.371638 -0.972091,0.371638 -1.34375,0 L 26.279297,12.669922 C 26.22904,12.619668 26.202681,12.557429 26.166016,12.5 Z m -22.0000004,22 c -0.2334979,0.367121 -0.2077215,0.848938 0.1132813,1.169922 l 8.0488281,8.050781 c 0.371659,0.371638 0.972091,0.371638 1.34375,0 l 8.048828,-8.050781 c 0.321004,-0.320984 0.34678,-0.802801 0.113281,-1.169922 -0.03666,0.05743 -0.06302,0.119668 -0.113281,0.169922 l -8.048828,8.050781 c -0.371659,0.371638 -0.972091,0.371638 -1.34375,0 L 4.2792969,34.669922 C 4.2290403,34.619668 4.2026806,34.557429 4.1660156,34.5 Z m 22.0000004,0 c -0.233498,0.367121 -0.207721,0.848938 0.113281,1.169922 l 8.048828,8.050781 c 0.371659,0.371638 0.972091,0.371638 1.34375,0 l 8.048828,-8.050781 c 0.321004,-0.320984 0.34678,-0.802801 0.113281,-1.169922 -0.03666,0.05743 -0.06302,0.119668 -0.113281,0.169922 l -8.048828,8.050781 c -0.371659,0.371638 -0.972091,0.371638 -1.34375,0 L 26.279297,34.669922 C 26.22904,34.619668 26.202681,34.557429 26.166016,34.5 Z"
       id="path36-5-9" />
  </g>
</svg>
