<?xml version="1.0" encoding="UTF-8" standalone="no"?>
<svg
   width="62"
   height="62"
   id="svg2"
   version="1.1"
   sodipodi:docname="keepass.svg"
   inkscape:version="1.4 (e7c3feb100, 2024-10-09)"
   xmlns:inkscape="http://www.inkscape.org/namespaces/inkscape"
   xmlns:sodipodi="http://sodipodi.sourceforge.net/DTD/sodipodi-0.dtd"
   xmlns:xlink="http://www.w3.org/1999/xlink"
   xmlns="http://www.w3.org/2000/svg"
   xmlns:svg="http://www.w3.org/2000/svg">
  <sodipodi:namedview
     id="namedview24"
     pagecolor="#ffffff"
     bordercolor="#666666"
     borderopacity="1.0"
     inkscape:showpageshadow="2"
     inkscape:pageopacity="0.0"
     inkscape:pagecheckerboard="0"
     inkscape:deskcolor="#d1d1d1"
     showgrid="false"
     inkscape:zoom="9.8333334"
     inkscape:cx="17.237288"
     inkscape:cy="32.237288"
     inkscape:window-width="1920"
     inkscape:window-height="994"
     inkscape:window-x="0"
     inkscape:window-y="0"
     inkscape:window-maximized="1"
     inkscape:current-layer="svg2" />
  <defs
     id="defs4">
    <linearGradient
       id="linearGradient4166">
      <stop
         style="stop-color:#000000;stop-opacity:1;"
         offset="0"
         id="stop4168" />
      <stop
         style="stop-color:#000000;stop-opacity:0;"
         offset="1"
         id="stop4170" />
    </linearGradient>
    <linearGradient
       id="linearGradient4153">
      <stop
         style="stop-color:#bf4231;stop-opacity:1"
         offset="0"
         id="stop4155" />
      <stop
         style="stop-color:#e05e4c;stop-opacity:1"
         offset="1"
         id="stop4157" />
    </linearGradient>
    <style
       id="current-color-scheme"
       type="text/css">
   .ColorScheme-Text { color:#4d4d4d; }
  </style>
    <linearGradient
       xlink:href="#c-4"
       id="linearGradient4269"
       x1="13.559"
       y1="3.1860001"
       x2="33.626999"
       y2="43.797001"
       gradientUnits="userSpaceOnUse"
       gradientTransform="matrix(-1.05,0,0,-1.05,-30.32542,15.621111)" />
    <linearGradient
       gradientUnits="userSpaceOnUse"
       x2="4"
       x1="44"
       id="c-4">
      <stop
         id="stop4683"
         stop-color="#42a603"
         style="stop-color:#459811;stop-opacity:1" />
      <stop
         id="stop4685"
         stop-color="#78da06"
         offset="1"
         style="stop-color:#9cdb4e;stop-opacity:1" />
    </linearGradient>
    <linearGradient
       xlink:href="#linearGradient4153"
       id="linearGradient4159"
       x1="11.663"
       y1="13.65"
       x2="9.6639996"
       y2="5.8860002"
       gradientUnits="userSpaceOnUse"
       gradientTransform="matrix(1.05,0,0,1.05,64.494516,-30.849496)" />
    <linearGradient
       xlink:href="#linearGradient4166"
       id="linearGradient4172"
       x1="10.093"
       y1="9.8669996"
       x2="19.545"
       y2="18.035"
       gradientUnits="userSpaceOnUse"
       gradientTransform="matrix(1.05,0,0,1.05,-80.725822,-34.778892)" />
    <linearGradient
       inkscape:collect="always"
       xlink:href="#c-4"
       id="linearGradient854"
       gradientUnits="userSpaceOnUse"
       gradientTransform="matrix(1.3999416,0,0,1.3998622,-525.21309,-710.99537)"
       x1="389.32001"
       y1="547.67499"
       x2="426.69501"
       y2="499.92099" />
    <linearGradient
       gradientTransform="matrix(0.07497067,0,0,0.10497392,-364.63999,153.97718)"
       gradientUnits="userSpaceOnUse"
       x2="426.69501"
       y2="499.92099"
       y1="547.67499"
       id="a-6"
       x1="389.32001">
      <stop
         stop-color="#18222a"
         style="stop-color:#1e2b35;stop-opacity:1"
         id="stop216" />
      <stop
         stop-color="#566069"
         offset="1"
         style="stop-color:#6d7983;stop-opacity:1"
         id="stop218" />
    </linearGradient>
    <linearGradient
       inkscape:collect="always"
       xlink:href="#linearGradient4153"
       id="linearGradient1468"
       gradientUnits="userSpaceOnUse"
       gradientTransform="matrix(1.3999901,0,0,1.3999901,-57.959971,21.900909)"
       x1="11.663"
       y1="13.65"
       x2="9.6639996"
       y2="5.8860002" />
  </defs>
  <g
     id="g1"
     transform="matrix(1.0000172,0,0,1,77.764724,8.749998)">
    <rect
       width="55.997673"
       x="18.763973"
       y="-5.7445068"
       rx="27.998837"
       height="55.994499"
       transform="scale(-1,1)"
       style="display:inline;fill:url(#linearGradient854);fill-opacity:1;stroke-width:3.91973;stroke-opacity:0.55"
       id="rect223-7-5"
       ry="27.99725" />
    <path
       style="display:inline;opacity:0.3;fill:#000000;fill-opacity:1;stroke-width:3.91973;stroke-opacity:0.55"
       d="m -74.746211,21.552632 c -0.0056,0.233367 -0.0168,0.465403 -0.0168,0.700104 0,15.510593 12.487508,27.997266 27.998766,27.997266 15.511241,0 27.998939,-12.486673 27.998939,-27.997266 0,-0.234701 -0.01067,-0.465403 -0.0168,-0.700104 -0.36973,15.184279 -12.71159,27.297293 -27.982139,27.297293 -15.276163,0 -27.612418,-12.113015 -27.981961,-27.297293"
       id="path225-5-3" />
    <path
       d="m -74.746211,22.947374 c -0.0056,-0.233368 -0.0168,-0.46407 -0.0168,-0.700105 0,-15.5104593 12.487508,-27.997267 27.998766,-27.997267 15.511241,0 27.998939,12.4868077 27.998939,27.997267 0,0.234701 -0.01067,0.466737 -0.0168,0.700105 -0.36973,-15.1842769 -12.71159,-27.2972952 -27.982139,-27.2972952 -15.276163,0 -27.612418,12.1130183 -27.981961,27.2972952"
       style="display:inline;opacity:0.3;fill:#ffffff;fill-opacity:1;stroke-width:3.91973;stroke-opacity:0.55"
       id="path229-3-5" />
    <path
       style="opacity:0.15;fill:#000000;fill-opacity:1;stroke:none;stroke-width:13.9999;stroke-miterlimit:4;stroke-dasharray:none;stroke-opacity:0.392157"
       d="m -48.162796,2.6499399 a 2.0999852,2.0999852 0 0 0 -2.099986,2.0999852 2.0999852,2.0999852 0 0 0 2.099986,2.0999851 2.0999852,2.0999852 0 0 0 2.099985,-2.0999851 2.0999852,2.0999852 0 0 0 -2.099985,-2.0999852 z m 6.99995,1.3999901 a 2.0999852,2.0999852 0 0 0 -2.099985,2.0999852 2.0999852,2.0999852 0 0 0 2.099985,2.0999851 2.0999852,2.0999852 0 0 0 2.099985,-2.0999851 2.0999852,2.0999852 0 0 0 -2.099985,-2.0999852 z m -11.199921,2.7999802 a 2.0999852,2.0999852 0 0 0 -2.099985,2.0999852 2.0999852,2.0999852 0 0 0 2.099985,2.0999856 2.0999852,2.0999852 0 0 0 2.099985,-2.0999856 2.0999852,2.0999852 0 0 0 -2.099985,-2.0999852 z m 16.799881,1.3999901 a 2.0999852,2.0999852 0 0 0 -2.099985,2.0999847 2.0999852,2.0999852 0 0 0 2.099985,2.099986 2.0999852,2.0999852 0 0 0 2.099986,-2.099986 2.0999852,2.0999852 0 0 0 -2.099986,-2.0999847 z m -13.999901,4.1999707 a 2.0999852,2.0999852 0 0 0 -2.099985,2.099985 2.0999852,2.0999852 0 0 0 2.099985,2.099985 2.0999852,2.0999852 0 0 0 2.099986,-2.099985 2.0999852,2.0999852 0 0 0 -2.099986,-2.099985 z m 18.199872,1.39999 a 2.0999852,2.0999852 0 0 0 -2.099985,2.099985 2.0999852,2.0999852 0 0 0 2.099985,2.099985 2.0999852,2.0999852 0 0 0 2.099985,-2.099985 2.0999852,2.0999852 0 0 0 -2.099985,-2.099985 z m -13.999901,4.19997 a 2.0999852,2.0999852 0 0 0 -2.099985,2.099985 2.0999852,2.0999852 0 0 0 2.099985,2.099985 2.0999852,2.0999852 0 0 0 2.099985,-2.099985 2.0999852,2.0999852 0 0 0 -2.099985,-2.099985 z m 15.399891,1.39999 a 2.0999852,2.0999852 0 0 0 -2.099985,2.099985 2.0999852,2.0999852 0 0 0 2.099985,2.099984 2.0999852,2.0999852 0 0 0 2.099985,-2.099984 2.0999852,2.0999852 0 0 0 -2.099985,-2.099985 z m -19.599862,2.79998 a 2.0999852,2.0999852 0 0 0 -2.099985,2.099984 2.0999852,2.0999852 0 0 0 2.099985,2.099985 2.0999852,2.0999852 0 0 0 2.099986,-2.099985 2.0999852,2.0999852 0 0 0 -2.099986,-2.099984 z m 9.799931,0 a 2.0999852,2.0999852 0 0 0 -2.099985,2.099984 2.0999852,2.0999852 0 0 0 2.099985,2.099985 2.0999852,2.0999852 0 0 0 2.099985,-2.099985 2.0999852,2.0999852 0 0 0 -2.099985,-2.099984 z m 5.599961,2.799979 a 2.0999852,2.0999852 0 0 0 -2.099986,2.099985 2.0999852,2.0999852 0 0 0 2.099986,2.099987 2.0999852,2.0999852 0 0 0 2.099985,-2.099987 2.0999852,2.0999852 0 0 0 -2.099985,-2.099985 z m -19.599862,1.39999 a 2.0999852,2.0999852 0 0 0 -2.099985,2.099985 2.0999852,2.0999852 0 0 0 2.099985,2.099987 2.0999852,2.0999852 0 0 0 2.099985,-2.099987 2.0999852,2.0999852 0 0 0 -2.099985,-2.099985 z m -4.19997,4.199972 a 2.0999852,2.0999852 0 0 0 -2.099985,2.099985 2.0999852,2.0999852 0 0 0 2.099985,2.099985 2.0999852,2.0999852 0 0 0 2.099985,-2.099985 2.0999852,2.0999852 0 0 0 -2.099985,-2.099985 z m -4.19997,4.19997 a 2.0999852,2.0999852 0 0 0 -2.099986,2.099985 2.0999852,2.0999852 0 0 0 2.099986,2.099986 2.0999852,2.0999852 0 0 0 2.099985,-2.099986 2.0999852,2.0999852 0 0 0 -2.099985,-2.099985 z m 4.19997,4.199971 a 2.0999852,2.0999852 0 0 0 -2.099985,2.099985 2.0999852,2.0999852 0 0 0 2.099985,2.099985 2.0999852,2.0999852 0 0 0 2.099985,-2.099985 2.0999852,2.0999852 0 0 0 -2.099985,-2.099985 z"
       id="path4342-73-3" />
    <path
       style="fill:#ffffff;fill-opacity:1;stroke:none;stroke-width:13.9999;stroke-miterlimit:4;stroke-dasharray:none;stroke-opacity:0.392157"
       d="m -48.862791,1.9499449 a 2.0999852,2.0999852 0 0 0 -2.099986,2.0999851 2.0999852,2.0999852 0 0 0 2.099986,2.0999852 2.0999852,2.0999852 0 0 0 2.099985,-2.0999852 2.0999852,2.0999852 0 0 0 -2.099985,-2.0999851 z m 6.99995,1.3999901 a 2.0999852,2.0999852 0 0 0 -2.099985,2.0999851 2.0999852,2.0999852 0 0 0 2.099985,2.0999852 2.0999852,2.0999852 0 0 0 2.099985,-2.0999852 2.0999852,2.0999852 0 0 0 -2.099985,-2.0999851 z m -11.199921,2.7999802 a 2.0999852,2.0999852 0 0 0 -2.099985,2.0999851 2.0999852,2.0999852 0 0 0 2.099985,2.0999847 2.0999852,2.0999852 0 0 0 2.099985,-2.0999847 2.0999852,2.0999852 0 0 0 -2.099985,-2.0999851 z m 16.799881,1.3999901 a 2.0999852,2.0999852 0 0 0 -2.099985,2.0999851 2.0999852,2.0999852 0 0 0 2.099985,2.0999856 2.0999852,2.0999852 0 0 0 2.099986,-2.0999856 2.0999852,2.0999852 0 0 0 -2.099986,-2.0999851 z m -13.999901,4.1999707 a 2.0999852,2.0999852 0 0 0 -2.099985,2.099985 2.0999852,2.0999852 0 0 0 2.099985,2.099985 2.0999852,2.0999852 0 0 0 2.099986,-2.099985 2.0999852,2.0999852 0 0 0 -2.099986,-2.099985 z m 18.199872,1.39999 a 2.0999852,2.0999852 0 0 0 -2.099985,2.099985 2.0999852,2.0999852 0 0 0 2.099985,2.099985 2.0999852,2.0999852 0 0 0 2.099985,-2.099985 2.0999852,2.0999852 0 0 0 -2.099985,-2.099985 z m -13.999901,4.19997 a 2.0999852,2.0999852 0 0 0 -2.099985,2.099985 2.0999852,2.0999852 0 0 0 2.099985,2.099985 2.0999852,2.0999852 0 0 0 2.099985,-2.099985 2.0999852,2.0999852 0 0 0 -2.099985,-2.099985 z m 15.399891,1.39999 a 2.0999852,2.0999852 0 0 0 -2.099985,2.099985 2.0999852,2.0999852 0 0 0 2.099985,2.099984 2.0999852,2.0999852 0 0 0 2.099985,-2.099984 2.0999852,2.0999852 0 0 0 -2.099985,-2.099985 z m -19.599862,2.79998 a 2.0999852,2.0999852 0 0 0 -2.099985,2.099984 2.0999852,2.0999852 0 0 0 2.099985,2.099985 2.0999852,2.0999852 0 0 0 2.099986,-2.099985 2.0999852,2.0999852 0 0 0 -2.099986,-2.099984 z m 9.799931,0 a 2.0999852,2.0999852 0 0 0 -2.099985,2.099984 2.0999852,2.0999852 0 0 0 2.099985,2.099985 2.0999852,2.0999852 0 0 0 2.099985,-2.099985 2.0999852,2.0999852 0 0 0 -2.099985,-2.099984 z m 5.599961,2.799979 a 2.0999852,2.0999852 0 0 0 -2.099986,2.099985 2.0999852,2.0999852 0 0 0 2.099986,2.099985 2.0999852,2.0999852 0 0 0 2.099985,-2.099985 2.0999852,2.0999852 0 0 0 -2.099985,-2.099985 z m -19.599862,1.39999 a 2.0999852,2.0999852 0 0 0 -2.099985,2.099985 2.0999852,2.0999852 0 0 0 2.099985,2.099987 2.0999852,2.0999852 0 0 0 2.099985,-2.099987 2.0999852,2.0999852 0 0 0 -2.099985,-2.099985 z m -4.19997,4.199972 a 2.0999852,2.0999852 0 0 0 -2.099985,2.099985 2.0999852,2.0999852 0 0 0 2.099985,2.099985 2.0999852,2.0999852 0 0 0 2.099985,-2.099985 2.0999852,2.0999852 0 0 0 -2.099985,-2.099985 z m -4.19997,4.19997 a 2.0999852,2.0999852 0 0 0 -2.099986,2.099985 2.0999852,2.0999852 0 0 0 2.099986,2.099985 2.0999852,2.0999852 0 0 0 2.099985,-2.099985 2.0999852,2.0999852 0 0 0 -2.099985,-2.099985 z m 4.19997,4.19997 a 2.0999852,2.0999852 0 0 0 -2.099985,2.099986 2.0999852,2.0999852 0 0 0 2.099985,2.099985 2.0999852,2.0999852 0 0 0 2.099985,-2.099985 2.0999852,2.0999852 0 0 0 -2.099985,-2.099986 z"
       id="path4342-6" />
    <path
       style="fill:url(#linearGradient1468);fill-opacity:1;stroke:none;stroke-width:2.79998;stroke-linecap:round;stroke-linejoin:round;stroke-miterlimit:4;stroke-dasharray:none;stroke-opacity:1"
       d="m -49.900228,31.941542 3.959769,3.959773 -3.959769,3.959768 1.979885,1.979893 3.959766,-3.959784 3.959768,3.959784 1.979898,-1.979893 -3.959773,-3.959768 3.959773,-3.959773 -1.979898,-1.979885 -3.959768,3.95977 -3.959766,-3.95977 z"
       id="rect4146-3"
       inkscape:transform-center-x="-1.3559225"
       inkscape:transform-center-y="-9.220274" />
  </g>
</svg>
