<?xml version="1.0" encoding="UTF-8" standalone="no"?>
<svg
   clip-rule="evenodd"
   fill-rule="evenodd"
   stroke-linejoin="round"
   stroke-miterlimit="2"
   viewBox="0 0 62 62"
   version="1.1"
   id="svg5"
   sodipodi:docname="kfloppy.svg"
   width="62"
   height="62"
   inkscape:version="1.4 (e7c3feb100, 2024-10-09)"
   xmlns:inkscape="http://www.inkscape.org/namespaces/inkscape"
   xmlns:sodipodi="http://sodipodi.sourceforge.net/DTD/sodipodi-0.dtd"
   xmlns:xlink="http://www.w3.org/1999/xlink"
   xmlns="http://www.w3.org/2000/svg"
   xmlns:svg="http://www.w3.org/2000/svg">
  <defs
     id="defs5">
    <linearGradient
       id="linearGradient6"
       inkscape:collect="always">
      <stop
         style="stop-color:#373e48;stop-opacity:1;"
         offset="0"
         id="stop6" />
      <stop
         style="stop-color:#6f7c91;stop-opacity:1"
         offset="1"
         id="stop7" />
    </linearGradient>
    <linearGradient
       inkscape:collect="always"
       xlink:href="#linearGradient6"
       id="linearGradient7"
       x1="30.332001"
       y1="58.332001"
       x2="30.332001"
       y2="2.332"
       gradientUnits="userSpaceOnUse" />
  </defs>
  <sodipodi:namedview
     id="namedview5"
     pagecolor="#ffffff"
     bordercolor="#000000"
     borderopacity="0.25"
     inkscape:showpageshadow="2"
     inkscape:pageopacity="0.0"
     inkscape:pagecheckerboard="0"
     inkscape:deskcolor="#d1d1d1"
     inkscape:zoom="7.7916667"
     inkscape:cx="28.042781"
     inkscape:cy="32.855615"
     inkscape:window-width="1920"
     inkscape:window-height="994"
     inkscape:window-x="0"
     inkscape:window-y="0"
     inkscape:window-maximized="1"
     inkscape:current-layer="svg5" />
  <linearGradient
     id="a"
     x2="1"
     gradientTransform="matrix(0,-56.000001,56.000001,0,32.217491,58.332001)"
     gradientUnits="userSpaceOnUse">
    <stop
       stop-color="#313131"
       offset="0"
       id="stop1" />
    <stop
       stop-color="#4f4f4f"
       offset="1"
       id="stop2" />
  </linearGradient>
  <g
     id="g6"
     transform="translate(0.668,0.668)">
    <path
       d="M 50.284003,58.332 H 10.379997 C 5.9373166,58.332 2.332,54.726683 2.332,50.284003 V 10.379997 C 2.332,5.9373166 5.9373166,2.332 10.379997,2.332 h 39.904006 c 4.44268,0 8.047997,3.6053166 8.047997,8.047997 v 39.904006 c 0,4.44268 -3.605317,8.047997 -8.047997,8.047997 z"
       id="path2"
       style="fill:url(#linearGradient7)" />
    <g
       transform="matrix(1.4,0,0,1.4,-3.268,-3.268)"
       fill-rule="nonzero"
       id="g5">
      <path
         d="M 16.275,4 C 16.104,4.295 16,4.633 16,5 v 12 c 0,1.108 0.892,2 2,2 h 20 c 1.108,0 2,-0.892 2,-2 V 5 C 40,4.633 39.896,4.295 39.725,4 Z M 31,7 h 5 c 0.554,0 1,0.446 1,1 v 7 c 0,0.554 -0.446,1 -1,1 h -5 c -0.554,0 -1,-0.446 -1,-1 V 8 c 0,-0.554 0.446,-1 1,-1 z"
         id="path3"
         style="fill:#b2b2b2;fill-opacity:1" />
      <path
         d="M 10,23 C 8.892,23 8,23.892 8,25 V 36 H 40 V 25 c 0,-1.108 -0.892,-2 -2,-2 z"
         id="path4"
         style="fill:#ffffff;fill-opacity:1" />
      <path
         d="m 40,36 v 3 c 0,1.108 -0.892,2 -2,2 H 10 C 8.892,41 8,40.108 8,39 v -3 z"
         id="path5"
         style="fill:#c8ab37;fill-opacity:1" />
    </g>
  </g>
</svg>
