<?xml version="1.0" encoding="UTF-8" standalone="no"?>
<svg
   width="62"
   height="62"
   version="1"
   id="svg8"
   sodipodi:docname="khangman.svg"
   inkscape:version="1.4 (e7c3feb100, 2024-10-09)"
   xmlns:inkscape="http://www.inkscape.org/namespaces/inkscape"
   xmlns:sodipodi="http://sodipodi.sourceforge.net/DTD/sodipodi-0.dtd"
   xmlns="http://www.w3.org/2000/svg"
   xmlns:svg="http://www.w3.org/2000/svg">
  <defs
     id="defs8" />
  <sodipodi:namedview
     id="namedview8"
     pagecolor="#ffffff"
     bordercolor="#000000"
     borderopacity="0.25"
     inkscape:showpageshadow="2"
     inkscape:pageopacity="0.0"
     inkscape:pagecheckerboard="0"
     inkscape:deskcolor="#d1d1d1"
     inkscape:zoom="8.2643105"
     inkscape:cx="31.642083"
     inkscape:cy="26.620491"
     inkscape:window-width="1920"
     inkscape:window-height="994"
     inkscape:window-x="0"
     inkscape:window-y="0"
     inkscape:window-maximized="1"
     inkscape:current-layer="svg8" />
  <g
     id="g8"
     transform="matrix(0.94827586,0,0,0.94827586,0.65517248,2.0775863)">
    <circle
       style="opacity:0.2"
       cx="32"
       cy="31"
       r="29"
       id="circle1" />
    <circle
       style="fill:#7160bd"
       cx="32"
       cy="30"
       r="29"
       id="circle2" />
    <path
       style="opacity:0.2;fill:none;stroke:#000000;stroke-width:6"
       d="M 32,3 V 24.75 C 17.5,32 19.856843,50 32,50 44.143158,50 46.5,32 32,24.75"
       id="path2" />
    <path
       style="fill:none;stroke:#e4e4e4;stroke-width:6"
       d="M 32,1 V 23.75 C 17.5,31 19.856843,49 32,49 44.143158,49 46.5,31 32,23.75"
       id="path3" />
    <rect
       style="opacity:0.2"
       width="12"
       height="6"
       x="26"
       y="17"
       rx="3"
       ry="3"
       id="rect3" />
    <rect
       style="fill:#ffffff"
       width="12"
       height="6"
       x="26"
       y="16"
       rx="3"
       ry="3"
       id="rect4" />
    <rect
       style="opacity:0.2"
       width="12"
       height="6"
       x="26"
       y="11"
       rx="3"
       ry="3"
       id="rect5" />
    <path
       style="opacity:0.1;fill:#ffffff"
       d="M 32,1 A 29,29 0 0 0 3,30 29,29 0 0 0 3.0175781,30.488281 29,29 0 0 1 32,2 29,29 0 0 1 60.974609,30.494141 29,29 0 0 0 61,30 29,29 0 0 0 32,1 Z"
       id="path5" />
    <rect
       style="fill:#ffffff"
       width="12"
       height="6"
       x="26"
       y="10"
       rx="3"
       ry="3"
       id="rect6" />
    <rect
       style="opacity:0.2"
       width="12"
       height="6"
       x="26"
       y="5"
       rx="3"
       ry="3"
       id="rect7" />
    <rect
       style="fill:#ffffff"
       width="12"
       height="6"
       x="26"
       y="4"
       rx="3"
       ry="3"
       id="rect8" />
  </g>
</svg>
