<?xml version="1.0" encoding="UTF-8" standalone="no"?>
<svg
   width="62"
   height="62"
   version="1.1"
   id="svg5"
   sodipodi:docname="kig.svg"
   inkscape:version="1.4 (e7c3feb100, 2024-10-09)"
   xmlns:inkscape="http://www.inkscape.org/namespaces/inkscape"
   xmlns:sodipodi="http://sodipodi.sourceforge.net/DTD/sodipodi-0.dtd"
   xmlns:xlink="http://www.w3.org/1999/xlink"
   xmlns="http://www.w3.org/2000/svg"
   xmlns:svg="http://www.w3.org/2000/svg">
  <defs
     id="defs5">
    <linearGradient
       id="linearGradient1"
       inkscape:collect="always">
      <stop
         style="stop-color:#2a7fff;stop-opacity:1;"
         offset="0"
         id="stop3" />
      <stop
         style="stop-color:#2a7fff;stop-opacity:1;"
         offset="1"
         id="stop4" />
    </linearGradient>
    <filter
       id="b-3-36"
       width="1.2393739"
       height="1.1966286"
       x="-0.11968695"
       y="-0.098314282"
       color-interpolation-filters="sRGB">
      <feGaussianBlur
         stdDeviation="1.147"
         id="feGaussianBlur7-6" />
    </filter>
    <linearGradient
       id="c-2"
       y1="13"
       y2="33"
       x2="0"
       gradientUnits="userSpaceOnUse"
       gradientTransform="matrix(1,0,0,-1,384.57,547.8)">
      <stop
         stop-color="#197cf1"
         id="stop12-9" />
      <stop
         offset="1"
         stop-color="#20bcfa"
         id="stop14-1" />
    </linearGradient>
    <linearGradient
       xlink:href="#c-2"
       id="d-2"
       y1="14"
       y2="33"
       x2="0"
       gradientUnits="userSpaceOnUse"
       gradientTransform="matrix(1.6665833,0,0,-1.6666665,-7.9024966,67.233553)" />
    <linearGradient
       id="linearGradient2"
       y1="13"
       y2="33"
       x2="0"
       gradientUnits="userSpaceOnUse"
       gradientTransform="matrix(1,0,0,-1,384.57,547.8)">
      <stop
         stop-color="#197cf1"
         id="stop1" />
      <stop
         offset="1"
         stop-color="#20bcfa"
         id="stop2" />
    </linearGradient>
    <linearGradient
       inkscape:collect="always"
       xlink:href="#linearGradient1"
       id="linearGradient4"
       x1="11"
       y1="31.491228"
       x2="51"
       y2="31.491228"
       gradientUnits="userSpaceOnUse"
       gradientTransform="matrix(0.96385853,0,0,0.96383341,1.1203856,0.64812472)" />
  </defs>
  <sodipodi:namedview
     id="namedview5"
     pagecolor="#ffffff"
     bordercolor="#000000"
     borderopacity="0.25"
     inkscape:showpageshadow="2"
     inkscape:pageopacity="0.0"
     inkscape:pagecheckerboard="0"
     inkscape:deskcolor="#d1d1d1"
     inkscape:zoom="11.6875"
     inkscape:cx="31.957219"
     inkscape:cy="32.941176"
     inkscape:window-width="1920"
     inkscape:window-height="994"
     inkscape:window-x="0"
     inkscape:window-y="0"
     inkscape:window-maximized="1"
     inkscape:current-layer="svg5" />
  <rect
     style="opacity:0.2;stroke-width:0.9823"
     width="55"
     height="55.017544"
     x="3.5"
     y="3.9824562"
     rx="8.25"
     ry="8.2526312"
     id="rect1" />
  <rect
     style="fill:#212e3f;stroke-width:0.9823"
     width="55"
     height="55.017544"
     x="3.5"
     y="3"
     rx="8.25"
     ry="8.2526312"
     id="rect2" />
  <path
     style="opacity:0.1;fill:#ffffff;stroke-width:0.9823"
     d="M 11.748466,3 C 7.1779651,3 3.4999999,6.6791384 3.4999999,11.251097 v 0.982456 c 0,-4.5719585 3.6779652,-8.2510968 8.2484661,-8.2510968 h 38.503068 c 4.5705,0 8.248466,3.6791383 8.248466,8.2510968 V 11.251097 C 58.5,6.6791384 54.822034,3 50.251534,3 Z"
     id="path4" />
  <path
     d="M 25.216849,11.723945 A 13.494018,13.493667 0 0 0 11.722832,25.217616 13.494018,13.493667 0 0 0 23.289131,38.56073 V 50.277089 H 50.277168 V 23.289756 H 38.55665 A 13.494018,13.493667 0 0 0 25.216849,11.723759 Z m 0,1.92767 a 11.566303,11.566002 0 0 1 11.400714,9.638332 H 23.289322 v 13.32018 A 11.566303,11.566002 0 0 1 13.650739,25.217616 11.566303,11.566002 0 0 1 25.217043,13.651615 Z m 0,11.566001 h 11.566304 a 11.566303,11.566002 0 0 1 -11.566304,11.566 z m 13.494016,0 h 9.638588 V 48.349618 H 25.216849 V 38.711284 A 13.494018,13.493667 0 0 0 38.710865,25.217616 Z"
     id="path3"
     style="fill:#2a7fff;fill-opacity:1;stroke:url(#linearGradient4);stroke-width:1.44582;stroke-dasharray:none" />
</svg>
