<?xml version="1.0" encoding="UTF-8" standalone="no"?>
<svg
   width="62"
   height="62"
   version="1.1"
   id="svg8"
   sodipodi:docname="google-drive.svg"
   inkscape:version="1.4 (e7c3feb100, 2024-10-09)"
   xmlns:inkscape="http://www.inkscape.org/namespaces/inkscape"
   xmlns:sodipodi="http://sodipodi.sourceforge.net/DTD/sodipodi-0.dtd"
   xmlns="http://www.w3.org/2000/svg"
   xmlns:svg="http://www.w3.org/2000/svg">
  <defs
     id="defs8" />
  <sodipodi:namedview
     id="namedview8"
     pagecolor="#ffffff"
     bordercolor="#000000"
     borderopacity="0.25"
     inkscape:showpageshadow="2"
     inkscape:pageopacity="0.0"
     inkscape:pagecheckerboard="0"
     inkscape:deskcolor="#d1d1d1"
     inkscape:zoom="11.6875"
     inkscape:cx="31.957219"
     inkscape:cy="32"
     inkscape:window-width="1920"
     inkscape:window-height="994"
     inkscape:window-x="0"
     inkscape:window-y="0"
     inkscape:window-maximized="1"
     inkscape:current-layer="svg8" />
  <g
     id="g8"
     transform="matrix(1.0081301,0,0,1,-3.0243891,-3)">
    <path
       style="opacity:0.2;stroke-width:1.05854"
       d="m 27.234675,7.0566039 c -1.127153,0 -2.219654,0.3178065 -3.170679,0.8461083 -0.951046,0.5635224 -1.762152,1.3375401 -2.325727,2.3236998 L 3.8449611,41.220807 C 3.2917541,42.185703 3.0007363,42.925519 3,44.037745 c 0,1.09181 0.2813881,2.536525 0.8449611,3.52269 l 3.8043994,6.585195 2.7129955,4.684566 c 0.563579,0.986164 1.372606,1.760177 2.323634,2.323694 C 13.637033,61.717405 14.729532,62 15.856668,62 h 35.786635 c 1.127135,0 2.219632,-0.317817 3.170679,-0.84611 0.951022,-0.563517 1.760054,-1.33753 2.323631,-2.323694 l 1.128697,-1.937807 5.388689,-9.331954 c 0.563577,-0.986165 0.84497,-2.43088 0.84497,-3.52269 h -0.03516 c 0,-1.09183 -0.281375,-1.830775 -0.844952,-2.816938 L 54.70836,25.722585 45.7617,10.226412 C 45.198124,9.2402523 44.387019,8.4662345 43.435974,7.9027122 42.484949,7.3391901 41.392447,7.0566039 40.265294,7.0566039 Z m 6.51531,18.1397371 10.847823,18.841404 H 22.90216 Z"
       id="path1" />
    <path
       style="fill:#00832d;stroke-width:1.05854"
       d="M 33.749985,24.138725 C 37.559242,18.899103 41.180044,13.017629 43.436405,6.8452833 42.485378,6.2817611 41.393455,6.0000009 40.266301,6.0000009 H 27.233668 c -1.12715,0 -2.219077,0.3169805 -3.170101,0.8452824 2.521273,5.7728337 5.750153,11.8897297 9.686418,17.2934417 z"
       id="path2" />
    <path
       style="fill:#0066da;stroke-width:1.05854"
       d="m 7.6494826,53.089307 2.7121894,4.68428 c 0.563575,0.986164 1.373721,1.760994 2.324745,2.324531 3.622521,-5.166309 8.621423,-10.223033 10.216244,-17.116981 H 2.9999994 c 0,1.091811 0.2817867,2.535842 0.8453596,3.522007 z"
       id="path3" />
    <path
       style="fill:#00ac47;stroke-width:1.05854"
       d="M 33.749985,24.138725 24.063567,6.8452833 C 23.11254,7.4088056 22.302396,8.1836492 21.73882,9.1698126 L 3.845359,40.163516 C 3.2921517,41.128411 3.0007357,41.86893 2.9999994,42.981137 H 22.902661 Z"
       id="path4" />
    <path
       style="fill:#ea4335;stroke-width:1.05854"
       d="m 54.813553,60.098118 c 0.951024,-0.563537 1.76117,-1.338367 2.324728,-2.324531 l 1.127153,-1.937104 5.389181,-9.333339 c 0.563576,-0.986165 0.845354,-2.430196 0.845354,-3.522007 H 44.595547 l 4.652714,8.452824 z"
       id="path5" />
    <path
       style="fill:#2684fc;stroke-width:1.05854"
       d="M 44.596947,42.981137 H 22.902661 L 12.686417,60.098118 c 0.951027,0.563515 2.042949,0.845273 3.170104,0.845273 h 35.786927 c 1.127155,0 2.21908,-0.31698 3.170105,-0.845273 z"
       id="path6" />
    <path
       style="fill:#ffba00;stroke-width:1.05854"
       d="M 54.707883,24.66666 45.761151,9.1698126 C 45.197573,8.1836492 44.38743,7.4088056 43.436405,6.8452833 l -9.68642,17.2934417 10.846962,18.842412 h 19.867794 c 0,-1.091829 -0.281779,-1.831458 -0.845354,-2.817621 z"
       id="path7" />
    <path
       style="opacity:0.2;fill:#ffffff;stroke-width:1.05854"
       d="M 27.234675,6 C 26.107522,6 25.015021,6.3178065 24.063996,6.8461083 23.11295,7.4096307 22.301844,8.1836484 21.738269,9.1698118 L 3.8449611,40.164219 C 3.2917541,41.129114 3.0007363,41.86893 3,42.981137 c 0,0.178087 0.018156,0.376235 0.033137,0.569573 0.076998,-0.850973 0.3456451,-1.5168 0.8118244,-2.329903 L 21.738269,10.226412 C 22.301844,9.2402523 23.11295,8.4662347 24.063996,7.9027122 25.015021,7.3744104 26.107522,7.0566039 27.234675,7.0566039 h 13.030619 c 1.127153,0 2.219655,0.2825862 3.17068,0.8461083 0.951045,0.5635224 1.76215,1.3375401 2.325726,2.3236998 l 8.94666,15.496173 8.911445,15.498222 c 0.523474,0.916021 0.793266,1.629899 0.830472,2.600251 0.03261,-0.292178 0.04972,-0.577291 0.04972,-0.839921 h -0.03516 c 0,-1.091829 -0.281374,-1.830755 -0.844951,-2.816918 L 54.70836,24.665977 45.7617,9.1698118 C 45.198124,8.1836484 44.387019,7.4096306 43.435974,6.8461083 42.484949,6.2825862 41.392447,6 40.265294,6 Z m -3.723634,36.981137 -0.608881,1.056608 h 21.695648 l -0.60888,-1.056608 z"
       id="path8" />
  </g>
</svg>
