<?xml version="1.0" encoding="UTF-8" standalone="no"?>
<svg
   width="62"
   height="62"
   version="1"
   id="svg20"
   sodipodi:docname="klavaro.svg"
   inkscape:version="1.4 (unknown)"
   xmlns:inkscape="http://www.inkscape.org/namespaces/inkscape"
   xmlns:sodipodi="http://sodipodi.sourceforge.net/DTD/sodipodi-0.dtd"
   xmlns="http://www.w3.org/2000/svg"
   xmlns:svg="http://www.w3.org/2000/svg">
  <defs
     id="defs20" />
  <sodipodi:namedview
     id="namedview20"
     pagecolor="#ffffff"
     bordercolor="#000000"
     borderopacity="0.25"
     inkscape:showpageshadow="2"
     inkscape:pageopacity="0.0"
     inkscape:pagecheckerboard="0"
     inkscape:deskcolor="#d1d1d1"
     inkscape:zoom="7.0710678"
     inkscape:cx="25.880108"
     inkscape:cy="32.880465"
     inkscape:window-width="1920"
     inkscape:window-height="998"
     inkscape:window-x="0"
     inkscape:window-y="0"
     inkscape:window-maximized="1"
     inkscape:current-layer="svg20" />
  <g
     id="g21"
     transform="matrix(1.0769231,0,0,1.0784441,-3.4615392,-4.0497571)">
    <path
       style="opacity:0.2"
       d="m 6.0000003,53.168056 v 1.999977 C 6.0000003,56.738015 7.2901854,58 8.8905669,58 H 55.110033 C 56.710015,58 58,56.738015 58,55.168033 v -1.999977 c 0,1.569982 -1.289985,2.831967 -2.889967,2.831967 H 8.8905669 c -1.5997815,0 -2.8899666,-1.261985 -2.8899666,-2.831967 z"
       id="path1" />
    <rect
       style="fill:#2d3d53;fill-opacity:1"
       width="34"
       height="51.999001"
       x="-57"
       y="-58"
       rx="2.8340001"
       ry="2.888"
       transform="matrix(0,-1,-1,0,0,0)"
       id="rect1" />
    <path
       style="opacity:0.2"
       d="M 55.999423,43.000034 A 2.9999654,2.9999654 0 0 1 52.999457,46 a 2.9999654,2.9999654 0 0 1 -2.999965,-2.999966 2.9999654,2.9999654 0 0 1 2.999965,-2.999965 2.9999654,2.9999654 0 0 1 2.999966,2.999965 z"
       id="path2" />
    <path
       style="opacity:0.2;fill:#ffffff"
       d="M 8.890625,23 C 7.2902435,23 6,24.262049 6,25.832031 v 1 C 6,25.262049 7.2902435,24 8.890625,24 h 46.21875 C 56.709357,24 58,25.262049 58,26.832031 v -1 C 58,24.262049 56.709357,23 55.109375,23 Z"
       id="path3" />
    <path
       style="opacity:0.2"
       d="m 49.999492,35.000127 a 2.9999654,2.9999654 0 0 1 -2.999965,2.999965 2.9999654,2.9999654 0 0 1 -2.999966,-2.999965 2.9999654,2.9999654 0 0 1 2.999966,-2.999966 2.9999654,2.9999654 0 0 1 2.999965,2.999966 z"
       id="path4" />
    <path
       style="fill:#ffffff"
       d="m 49.999492,34.000289 a 2.9999654,2.9999654 0 0 1 -2.999965,2.999965 2.9999654,2.9999654 0 0 1 -2.999966,-2.999965 2.9999654,2.9999654 0 0 1 2.999966,-2.999966 2.9999654,2.9999654 0 0 1 2.999965,2.999966 z"
       id="path5" />
    <path
       style="opacity:0.2"
       d="m 19.999839,35.000127 a 2.9999654,2.9999654 0 0 1 -2.999966,2.999965 2.9999654,2.9999654 0 0 1 -2.999965,-2.999965 2.9999654,2.9999654 0 0 1 2.999965,-2.999966 2.9999654,2.9999654 0 0 1 2.999966,2.999966 z"
       id="path6" />
    <path
       style="opacity:0.2"
       d="m 22.665808,8.0004385 h 18.666384 c 1.477983,0 2.667969,1.2409855 2.667969,2.7825675 v 19.477975 c 0,4.173952 -9.333892,6.95792 -11.999861,9.739888 C 29.334331,37.218901 20.000439,34.434933 20.000439,30.260981 V 10.783806 c 0,-1.541582 1.189986,-2.7825675 2.665969,-2.7825675 z"
       id="path7" />
    <path
       style="fill:#2ca05a"
       d="m 22.665808,7.0006006 h 18.666384 c 1.477983,0 2.667969,1.2409857 2.667969,2.7825679 V 29.261143 c 0,4.173952 -9.333892,6.95792 -11.999861,9.739888 C 29.334331,36.219063 20.000439,33.435095 20.000439,29.261143 V 9.7839685 c 0,-1.5415822 1.189986,-2.7825679 2.665969,-2.7825679 z"
       id="path8" />
    <path
       style="fill:#ffffff"
       d="m 19.999839,34.000289 a 2.9999654,2.9999654 0 0 1 -2.999966,2.999965 2.9999654,2.9999654 0 0 1 -2.999965,-2.999965 2.9999654,2.9999654 0 0 1 2.999965,-2.999966 2.9999654,2.9999654 0 0 1 2.999966,2.999966 z"
       id="path9" />
    <path
       style="opacity:0.2"
       d="M 15.999885,43.000034 A 2.9999654,2.9999654 0 0 1 12.999919,46 2.9999654,2.9999654 0 0 1 9.9999541,43.000034 a 2.9999654,2.9999654 0 0 1 2.9999649,-2.999965 2.9999654,2.9999654 0 0 1 2.999966,2.999965 z"
       id="path10" />
    <path
       style="fill:#ffffff"
       d="m 15.999885,42.000196 a 2.9999654,2.9999654 0 0 1 -2.999966,2.999966 2.9999654,2.9999654 0 0 1 -2.9999649,-2.999966 2.9999654,2.9999654 0 0 1 2.9999649,-2.999965 2.9999654,2.9999654 0 0 1 2.999966,2.999965 z"
       id="path11" />
    <path
       style="opacity:0.2"
       d="M 25.999769,43.000034 A 2.9999654,2.9999654 0 0 1 22.999804,46 a 2.9999654,2.9999654 0 0 1 -2.999965,-2.999966 2.9999654,2.9999654 0 0 1 2.999965,-2.999965 2.9999654,2.9999654 0 0 1 2.999965,2.999965 z"
       id="path12" />
    <path
       style="fill:#ffffff"
       d="m 25.999769,42.000196 a 2.9999654,2.9999654 0 0 1 -2.999965,2.999966 2.9999654,2.9999654 0 0 1 -2.999965,-2.999966 2.9999654,2.9999654 0 0 1 2.999965,-2.999965 2.9999654,2.9999654 0 0 1 2.999965,2.999965 z"
       id="path13" />
    <path
       style="opacity:0.2"
       d="M 35.999654,43.000034 A 2.9999654,2.9999654 0 0 1 32.999688,46 a 2.9999654,2.9999654 0 0 1 -2.999965,-2.999966 2.9999654,2.9999654 0 0 1 2.999965,-2.999965 2.9999654,2.9999654 0 0 1 2.999966,2.999965 z"
       id="path14" />
    <path
       style="fill:#ffffff"
       d="m 35.999654,42.000196 a 2.9999654,2.9999654 0 0 1 -2.999966,2.999966 2.9999654,2.9999654 0 0 1 -2.999965,-2.999966 2.9999654,2.9999654 0 0 1 2.999965,-2.999965 2.9999654,2.9999654 0 0 1 2.999966,2.999965 z"
       id="path15" />
    <path
       style="opacity:0.2"
       d="M 45.999538,43.000034 A 2.9999654,2.9999654 0 0 1 42.999573,46 a 2.9999654,2.9999654 0 0 1 -2.999965,-2.999966 2.9999654,2.9999654 0 0 1 2.999965,-2.999965 2.9999654,2.9999654 0 0 1 2.999965,2.999965 z"
       id="path16" />
    <path
       style="fill:#ffffff"
       d="m 45.999538,42.000196 a 2.9999654,2.9999654 0 0 1 -2.999965,2.999966 2.9999654,2.9999654 0 0 1 -2.999965,-2.999966 2.9999654,2.9999654 0 0 1 2.999965,-2.999965 2.9999654,2.9999654 0 0 1 2.999965,2.999965 z"
       id="path17" />
    <path
       style="fill:#ffffff"
       d="m 55.999423,42.000196 a 2.9999654,2.9999654 0 0 1 -2.999966,2.999966 2.9999654,2.9999654 0 0 1 -2.999965,-2.999966 2.9999654,2.9999654 0 0 1 2.999965,-2.999965 2.9999654,2.9999654 0 0 1 2.999966,2.999965 z"
       id="path18" />
    <rect
       style="opacity:0.5009311;fill:#9db0c8;fill-opacity:1"
       width="43.999001"
       height="6"
       x="10"
       y="47"
       rx="1.466"
       ry="1.5"
       id="rect18" />
    <g
       style="opacity:0.2"
       transform="matrix(1.9999769,0,0,1.9999769,0.00140029,3.465e-4)"
       id="g19">
      <path
         d="M 17.547,15 15.5756,11.6003 14.500383,12.467 V 15 H 12.99945 V 6.9997343 h 1.500433 V 10.4224 L 17.46105,6.9997343 h 1.98114 L 16.74755,10.3 19.55819,15 h -2.01164 z"
         id="path19" />
    </g>
    <g
       style="fill:#ffffff"
       transform="matrix(1.9999769,0,0,1.9999769,0.00140029,-0.999307)"
       id="g20">
      <path
         d="M 17.547,15 15.5756,11.6003 14.500383,12.467 V 15 H 12.99945 V 6.9997343 h 1.500433 V 10.4224 L 17.46105,6.9997343 h 1.98114 L 16.74755,10.3 19.55819,15 h -2.01164 z"
         id="path20" />
    </g>
  </g>
</svg>
