<?xml version="1.0" encoding="UTF-8" standalone="no"?>
<svg
   width="62"
   height="62"
   version="1"
   id="svg13"
   sodipodi:docname="kmahjongg.svg"
   inkscape:version="1.4 (e7c3feb100, 2024-10-09)"
   xmlns:inkscape="http://www.inkscape.org/namespaces/inkscape"
   xmlns:sodipodi="http://sodipodi.sourceforge.net/DTD/sodipodi-0.dtd"
   xmlns:xlink="http://www.w3.org/1999/xlink"
   xmlns="http://www.w3.org/2000/svg"
   xmlns:svg="http://www.w3.org/2000/svg">
  <defs
     id="defs13">
    <linearGradient
       id="linearGradient1"
       inkscape:collect="always">
      <stop
         style="stop-color:#ff5555;stop-opacity:1"
         offset="0"
         id="stop1" />
      <stop
         style="stop-color:#c83771;stop-opacity:1"
         offset="1"
         id="stop2" />
    </linearGradient>
    <filter
       inkscape:collect="always"
       id="filter20766-5-3"
       x="-0.028127656"
       y="-0.020928725"
       width="1.0562553"
       height="1.0418575">
      <feGaussianBlur
         inkscape:collect="always"
         stdDeviation="0.49516509"
         id="feGaussianBlur20768-6-5" />
    </filter>
    <linearGradient
       inkscape:collect="always"
       xlink:href="#linearGradient1"
       id="linearGradient2"
       x1="5.3726144"
       y1="56.658016"
       x2="56.963486"
       y2="5.6625419"
       gradientUnits="userSpaceOnUse" />
  </defs>
  <sodipodi:namedview
     id="namedview13"
     pagecolor="#ffffff"
     bordercolor="#000000"
     borderopacity="0.25"
     inkscape:showpageshadow="2"
     inkscape:pageopacity="0.0"
     inkscape:pagecheckerboard="0"
     inkscape:deskcolor="#d1d1d1"
     inkscape:zoom="11.78125"
     inkscape:cx="31.95756"
     inkscape:cy="32.679045"
     inkscape:window-width="1920"
     inkscape:window-height="994"
     inkscape:window-x="0"
     inkscape:window-y="0"
     inkscape:window-maximized="1"
     inkscape:current-layer="svg13" />
  <rect
     style="opacity:0.2;stroke-width:0.982303"
     width="55"
     height="55.017544"
     x="3.5"
     y="3.9824567"
     rx="5.5"
     ry="5.5017543"
     id="rect1" />
  <rect
     style="fill:url(#linearGradient2);stroke-width:0.982303"
     width="55"
     height="55.017544"
     x="3.5"
     y="2.9999995"
     rx="5.5"
     ry="5.5017543"
     id="rect2" />
  <path
     style="opacity:0.2;fill:#ffffff;stroke-width:0.982303"
     d="M 8.9996163,2.9999995 C 5.9526163,2.9999995 3.5,5.4533982 3.5,8.5013701 v 0.9824584 c 0,-3.0479744 2.4526163,-5.501373 5.4996163,-5.501373 H 53.000384 c 3.047,0 5.499616,2.4533986 5.499616,5.501373 V 8.5013701 c 0,-3.0479719 -2.452616,-5.5013706 -5.499616,-5.5013706 z"
     id="path13" />
  <g
     id="g2"
     transform="matrix(0.99511622,0,0,1.000058,-0.0776119,-0.69144416)">
    <path
       id="path18333-2-1"
       d="m 27.908922,11.594203 c -1.391864,-0.25913 -0.210666,0.832534 0.03171,1.423378 1.282992,2.016456 0.851984,4.485058 1.023238,6.748329 0.03326,0.935766 0.05733,1.871595 0.02549,2.807759 -2.850629,0.52586 -5.693023,1.104178 -8.563051,1.516502 -0.691369,-0.352466 -0.724842,-1.691221 -1.691152,-1.45162 -0.825834,0.339397 -1.660764,0.656389 -2.490336,0.986577 1.352011,1.173948 1.965685,2.846999 2.655035,4.442071 1.190197,2.36443 2.244786,4.798552 2.956481,7.350814 0.59809,1.864289 3.43124,0.881521 2.179825,-0.944738 -0.405285,-0.510738 0.970468,-0.22479 1.305809,-0.410556 1.091643,-0.148776 2.190202,-0.230807 3.287247,-0.327558 -0.04696,2.797778 -0.133675,5.59443 -0.320118,8.385586 0.0362,2.530901 -0.07329,5.07014 0.05645,7.595721 0.05533,0.610213 0.08683,1.311356 0.623749,1.711215 1.383136,-0.555599 1.552094,-2.285286 1.763048,-3.598691 0.323825,-1.961973 0.154639,-3.968205 0.261079,-5.94969 0.05885,-2.822554 0.117748,-5.64511 0.176631,-8.467677 3.372744,-0.36466 6.761813,-0.60116 10.123651,-1.051452 0.924623,-0.280963 1.263376,-1.68042 0.108161,-1.915842 -1.130618,-0.04133 0.182781,-1.001903 0.373104,-1.544376 0.831646,-1.167386 1.550762,-2.437262 2.452619,-3.540724 0.722999,-0.643739 2.029372,-1.222077 1.287656,-2.401353 -0.693488,-1.041521 -1.895592,-1.58468 -2.821057,-2.406209 -1.339366,-1.492439 -3.001098,-0.274177 -4.308166,0.489845 -2.207998,0.635849 -4.500788,0.817674 -6.77576,1.067121 0.04655,-2.395305 0.301296,-4.783623 0.371357,-7.179513 0.271117,-0.709473 1.34205,-1.737487 0.06688,-2.199751 C 30.84174,11.910365 29.376967,11.523434 27.90891,11.594203 Z M 40.05328,23.503794 c 0.264713,1.433761 -0.208107,3.033617 -0.566208,4.462573 -0.428011,1.067531 -0.454416,2.77237 -1.948525,2.612062 -2.086612,0.385416 -4.20495,0.545442 -6.308414,0.811193 0.133383,-2.372486 0.266765,-4.744978 0.400144,-7.117464 2.806174,-0.28649 5.594344,-0.802545 8.423003,-0.768364 z m -11.204003,1.192994 c -0.07335,2.318561 -0.146728,4.637134 -0.220089,6.955732 -1.827318,0.215662 -3.65463,0.431329 -5.481934,0.647013 -0.700244,-2.177024 -1.400503,-4.354054 -2.100744,-6.531067 2.60093,-0.357231 5.201834,-0.714468 7.802767,-1.071678 z"
       style="fill:#44000d;fill-opacity:1;stroke:#53000b;stroke-width:1.39794;stroke-linecap:round;stroke-linejoin:round;stroke-miterlimit:4;stroke-dasharray:none;stroke-opacity:1" />
    <path
       style="fill:#eeeeec;fill-opacity:1;stroke-width:0.562121"
       d="m 29.026969,12.340943 c -1.391868,-0.259135 -0.210675,0.832556 0.03162,1.423382 1.283,2.016459 0.851996,4.485055 1.02324,6.74833 0.03326,0.935763 0.05732,1.871594 0.0255,2.807759 -2.850629,0.525861 -5.693024,1.104179 -8.563072,1.516503 -0.691369,-0.352476 -0.724824,-1.691225 -1.691133,-1.451627 -0.825831,0.339396 -1.660765,0.656395 -2.490335,0.986575 1.35201,1.173949 1.965687,2.846998 2.655032,4.44208 1.190201,2.364427 2.244792,4.798552 2.956477,7.350811 0.598103,1.864265 3.43124,0.881521 2.179834,-0.944738 -0.405282,-0.510737 0.97046,-0.224789 1.305806,-0.410547 1.09164,-0.148787 2.190206,-0.230814 3.287241,-0.327565 -0.04694,2.797784 -0.133676,5.594411 -0.320121,8.385578 0.03621,2.530919 -0.07324,5.070146 0.05646,7.595696 0.05533,0.610312 0.08682,1.311416 0.623741,1.711236 1.383136,-0.555623 1.55209,-2.285264 1.763046,-3.598709 0.323822,-1.961945 0.154643,-3.968169 0.261076,-5.94966 0.05885,-2.822554 0.117743,-5.645111 0.176647,-8.467669 3.372741,-0.364678 6.761812,-0.601172 10.123643,-1.051462 0.92462,-0.280961 1.26337,-1.680427 0.108142,-1.915843 -1.130618,-0.04132 0.182784,-1.001905 0.373114,-1.544379 0.831643,-1.167385 1.550756,-2.437259 2.452615,-3.540719 0.722988,-0.643744 2.029367,-1.222078 1.287663,-2.401361 -0.693489,-1.041514 -1.895599,-1.584673 -2.821063,-2.406199 -1.339369,-1.492446 -3.00111,-0.274179 -4.308177,0.489843 -2.207998,0.635847 -4.500781,0.817673 -6.775748,1.067116 0.04655,-2.395299 0.301288,-4.783607 0.371354,-7.179513 0.271116,-0.709468 1.342044,-1.737486 0.06689,-2.199747 -1.226737,-0.819006 -2.691502,-1.205942 -4.159572,-1.135171 z m 12.144343,11.909611 c 0.264728,1.433744 -0.208099,3.033601 -0.566193,4.462552 -0.428016,1.067533 -0.45443,2.772374 -1.948529,2.612063 -2.086612,0.385416 -4.204953,0.545455 -6.308426,0.811197 0.133395,-2.372489 0.266776,-4.744986 0.40016,-7.117466 2.806172,-0.286492 5.594341,-0.802538 8.422988,-0.768346 z m -11.203994,1.192977 c -0.07334,2.318563 -0.146724,4.637136 -0.220086,6.955727 -1.827318,0.215666 -3.654636,0.431326 -5.481936,0.647017 -0.700247,-2.177023 -1.400502,-4.354056 -2.100745,-6.531081 2.600932,-0.357219 5.201839,-0.714455 7.802767,-1.071663 z"
       id="path2463-9-2" />
    <path
       style="fill:#888a85;fill-opacity:1;filter:url(#filter20766-5-3)"
       d="m -35.134129,-16.686842 c -0.69648,0.04295 -0.27138,0.684078 0.15625,1.3125 0.0186,-0.22147 0.25236,-0.314823 0.9375,-0.1875 2.10224,-0.101145 4.21204,0.454376 5.96875,1.625 0.11412,0.0413 0.22352,0.07769 0.3125,0.125 0.0962,-0.480025 -0.0621,-0.90467 -0.84375,-1.1875 -1.75671,-1.170625 -3.86651,-1.726145 -5.96875,-1.625 -0.24914,-0.0463 -0.41868,-0.07137 -0.5625,-0.0625 z m 1.21875,3.25 c 1.08292,2.635827 0.66212,5.69172 0.875,8.5 0.0476,1.337513 0.0767,2.6619 0.0312,4.00000005 -4.08203,0.751625 -8.17143,1.566896 -12.28125,2.15624995 -0.99002,-0.50379395 -1.02253,-2.404978 -2.406247,-2.06249995 -1.18258,0.485114 -2.37457,0.934311 -3.5625,1.40625 0.3282,0.28445 0.63313,0.58481595 0.90625,0.90624995 1.06319,-0.418828 2.13034,-0.81633595 3.1875,-1.24999995 1.383717,-0.342478 1.416217,1.58995495 2.406247,2.09374995 4.10982,-0.589354 8.19922,-1.43587395 12.28125,-2.18749995 0.0455,-1.33810005 0.0163,-2.66248605 -0.0312,-4.00000005 -0.24255,-3.199675 0.35835,-6.697931 -1.40625,-9.5625 z m 18.25,8.59375 c -1.32989,0.08533 -2.7052,1.036246 -3.875,1.71875 -2.97948,0.856424 -6.05283,1.140952 -9.125,1.46875 -0.0138,0.375435 -0.0239,0.74935205 -0.0312,1.12500005 3.25771,-0.35652 6.5257,-0.62241905 9.6875,-1.53125005 1.87168,-1.092006 4.26956,-2.820693 6.1875,-0.6875 1.23084,1.090575 2.7991,1.83140205 3.8125004,3.12500005 -0.0328,-0.234941 -0.13787,-0.472849 -0.3125,-0.75 C -10.314639,-1.862997 -12.027589,-2.637623 -13.352829,-3.811842 c -0.71923,-0.799948 -1.51457,-1.08245 -2.3125,-1.03125 z m -1.40625,6.3125 c 0.0459,1.756367 -0.48064,3.617262 -0.90625,5.3125 -0.61291,1.525825 -0.64172,3.947868 -2.78125,3.71875 -2.78215,0.512933 -5.63045,0.757374 -8.4375,1.09375 -0.0212,0.375629 -0.0413,0.749371 -0.0625,1.125 3.01211,-0.379834 6.04327,-0.605369 9.03125,-1.15625 2.13953,0.229118 2.16834,-2.192926 2.78125,-3.71875 0.51278,-2.042455 1.19157,-4.325702 0.8125,-6.375 -0.14466,-0.0017 -0.29298,-2.1e-4 -0.4375,0 z m -15.625,1.6875 c -0.18713,0.02565 -0.37538,0.03685 -0.5625,0.0625 -0.0932,2.938878 -0.18809,5.87362 -0.28125,8.8125 -2.55378,0.300856 -5.10248,0.605392 -7.65625,0.90625 0.11714,0.363524 0.2266,0.730226 0.34375,1.09375 2.61666,-0.308268 5.22707,-0.629231 7.84375,-0.9375 0.10505,-3.314007 0.20745,-6.623492 0.3125,-9.9375 z m -15.499996,2.03125 c 0.25145,0.571016 0.47196,1.148776 0.71875,1.71875 1.704326,3.379527 3.230866,6.883248 4.249996,10.53125 0.10706,0.333085 0.2481,0.600989 0.4375,0.8125 -1.01756,-3.554923 -2.46056,-6.980836 -4.125,-10.28125 -0.406996,-0.940013 -0.829386,-1.861161 -1.281246,-2.78125 z m 33.218746,5.1875 c -0.40094,0.529666 -0.6052,0.966537 0.3125,1 0.20678,0.04206 0.35753,0.131068 0.5,0.21875 0.0463,-0.513569 -0.18178,-1.006614 -0.8125,-1.21875 z m -18.03125,5.71875 c -0.18815,0.01656 -0.37431,0.01509 -0.5625,0.03125 -0.0712,3.632215 -0.16373,7.251054 -0.40625,10.875 0.0517,3.6175 -0.12334,7.265191 0.0625,10.875 0.0706,0.776894 0.13566,1.631812 0.6875,2.21875 -0.0864,-0.386634 -0.12133,-0.772111 -0.15625,-1.15625 -0.18584,-3.609809 -0.0108,-7.257501 -0.0625,-10.875 0.26699,-3.989499 0.37022,-7.969792 0.4375,-11.96875 z"
       id="path20743-7-9"
       transform="matrix(0.69833501,0,0,0.69962902,53.163087,23.974166)" />
  </g>
</svg>
