<?xml version="1.0" encoding="UTF-8" standalone="no"?>
<!-- Created with Inkscape (http://www.inkscape.org/) -->

<svg
   width="62"
   height="62"
   viewBox="0 0 62 62"
   version="1.1"
   id="svg1"
   inkscape:version="1.4 (unknown)"
   sodipodi:docname="kmenuedit.svg"
   xmlns:inkscape="http://www.inkscape.org/namespaces/inkscape"
   xmlns:sodipodi="http://sodipodi.sourceforge.net/DTD/sodipodi-0.dtd"
   xmlns:xlink="http://www.w3.org/1999/xlink"
   xmlns="http://www.w3.org/2000/svg"
   xmlns:svg="http://www.w3.org/2000/svg">
  <sodipodi:namedview
     id="namedview1"
     pagecolor="#ffffff"
     bordercolor="#000000"
     borderopacity="0.25"
     inkscape:showpageshadow="2"
     inkscape:pageopacity="0.0"
     inkscape:pagecheckerboard="0"
     inkscape:deskcolor="#d1d1d1"
     inkscape:document-units="px"
     inkscape:zoom="4.7876556"
     inkscape:cx="15.038676"
     inkscape:cy="48.040214"
     inkscape:window-width="1920"
     inkscape:window-height="998"
     inkscape:window-x="0"
     inkscape:window-y="0"
     inkscape:window-maximized="1"
     inkscape:current-layer="layer1" />
  <defs
     id="defs1">
    <radialGradient
       id="paint664_radial_890_11"
       cx="0"
       cy="0"
       r="1"
       gradientUnits="userSpaceOnUse"
       gradientTransform="matrix(-16.000099,-9.999913,9.999913,-16.000099,583,171)">
      <stop
         offset="0.42141"
         stop-color="#B7C6CD"
         id="stop2071" />
      <stop
         offset="1"
         stop-color="#EFF2F6"
         id="stop2072" />
    </radialGradient>
    <linearGradient
       id="paint665_linear_890_11"
       x1="605"
       y1="180"
       x2="601.466"
       y2="162.72301"
       gradientUnits="userSpaceOnUse">
      <stop
         stop-color="#5200FF"
         id="stop2073" />
      <stop
         offset="1"
         stop-color="#0085FF"
         id="stop2074" />
    </linearGradient>
    <linearGradient
       id="paint666_linear_890_11"
       x1="567"
       y1="181"
       x2="562.11798"
       y2="174.183"
       gradientUnits="userSpaceOnUse">
      <stop
         stop-color="#5200FF"
         id="stop2075" />
      <stop
         offset="0.670391"
         stop-color="#0085FF"
         id="stop2076" />
    </linearGradient>
    <linearGradient
       id="paint667_linear_890_11"
       x1="605"
       y1="180"
       x2="597.32001"
       y2="174.24001"
       gradientUnits="userSpaceOnUse">
      <stop
         stop-color="#5200FF"
         id="stop2077" />
      <stop
         offset="1"
         stop-color="#0085FF"
         id="stop2078" />
    </linearGradient>
    <linearGradient
       id="paint668_linear_890_11"
       x1="567"
       y1="180"
       x2="561.23999"
       y2="172.32001"
       gradientUnits="userSpaceOnUse">
      <stop
         stop-color="#5200FF"
         id="stop2079" />
      <stop
         offset="1"
         stop-color="#0085FF"
         id="stop2080" />
    </linearGradient>
    <linearGradient
       id="paint669_linear_890_11"
       x1="607"
       y1="179"
       x2="602.50598"
       y2="171.80901"
       gradientUnits="userSpaceOnUse">
      <stop
         stop-color="#5200FF"
         id="stop2081" />
      <stop
         offset="1"
         stop-color="#0085FF"
         id="stop2082" />
    </linearGradient>
    <linearGradient
       id="paint670_linear_890_11"
       x1="607"
       y1="217"
       x2="568.82599"
       y2="170.01601"
       gradientUnits="userSpaceOnUse">
      <stop
         stop-color="#5200FF"
         id="stop2083" />
      <stop
         offset="1"
         stop-color="#0085FF"
         id="stop2084" />
    </linearGradient>
    <radialGradient
       id="paint671_radial_890_11"
       cx="0"
       cy="0"
       r="1"
       gradientUnits="userSpaceOnUse"
       gradientTransform="matrix(0,20,-16,0,583,187)">
      <stop
         offset="0.869716"
         stop-color="#EFF2F6"
         id="stop2085" />
      <stop
         offset="1"
         stop-color="#B7C6CD"
         id="stop2086" />
    </radialGradient>
    <linearGradient
       id="paint451_linear_890_11"
       x1="55"
       y1="461"
       x2="111"
       y2="517"
       gradientUnits="userSpaceOnUse"
       gradientTransform="matrix(0.35714286,0,0,0.35714286,-18.642857,-163.64286)">
      <stop
         offset="0.303571"
         stop-color="#EFF2F6"
         id="stop1644" />
      <stop
         offset="1"
         stop-color="#B7C6CD"
         id="stop1645" />
    </linearGradient>
    <linearGradient
       id="paint452_linear_890_11"
       x1="107"
       y1="513"
       x2="67.655701"
       y2="465.78699"
       gradientUnits="userSpaceOnUse"
       gradientTransform="matrix(0.35714286,0,0,0.42857143,-18.642857,-200.28572)">
      <stop
         stop-color="#2E2E41"
         id="stop1646" />
      <stop
         offset="1"
         stop-color="#566C80"
         id="stop1647" />
    </linearGradient>
    <linearGradient
       id="paint453_linear_890_11"
       x1="61"
       y1="465"
       x2="65"
       y2="469"
       gradientUnits="userSpaceOnUse"
       gradientTransform="translate(-53,-457)">
      <stop
         offset="0.236371"
         stop-color="#F15700"
         id="stop1648" />
      <stop
         offset="0.855848"
         stop-color="#FF0000"
         id="stop1649" />
    </linearGradient>
    <linearGradient
       id="paint454_linear_890_11"
       x1="71"
       y1="469"
       x2="67"
       y2="465"
       gradientUnits="userSpaceOnUse"
       gradientTransform="translate(-53,-457)">
      <stop
         stop-color="#FF7E07"
         id="stop1650" />
      <stop
         offset="1"
         stop-color="#FFE607"
         id="stop1651" />
    </linearGradient>
    <linearGradient
       id="paint455_linear_890_11"
       x1="77"
       y1="469"
       x2="73"
       y2="465"
       gradientUnits="userSpaceOnUse"
       gradientTransform="translate(-53,-457)">
      <stop
         stop-color="#089953"
         id="stop1652" />
      <stop
         offset="1"
         stop-color="#16D96F"
         id="stop1653" />
    </linearGradient>
    <linearGradient
       id="paint456_linear_890_11"
       x1="80"
       y1="486"
       x2="80"
       y2="492"
       gradientUnits="userSpaceOnUse"
       gradientTransform="translate(-53,-457)">
      <stop
         offset="0.189495"
         stop-color="#EFF2F6"
         id="stop1654" />
      <stop
         offset="0.850463"
         stop-color="#B7C6CD"
         id="stop1655" />
    </linearGradient>
    <linearGradient
       id="paint457_linear_890_11"
       x1="82"
       y1="494"
       x2="82"
       y2="500"
       gradientUnits="userSpaceOnUse">
      <stop
         offset="0.189495"
         stop-color="#EFF2F6"
         id="stop1656" />
      <stop
         offset="0.850463"
         stop-color="#B7C6CD"
         id="stop1657" />
    </linearGradient>
    <linearGradient
       id="paint334_linear_890_11"
       x1="501"
       y1="565"
       x2="509.82401"
       y2="570.29401"
       gradientUnits="userSpaceOnUse"
       gradientTransform="matrix(0.375,0,0,0.35714286,-168.98214,-199.35714)">
      <stop
         stop-color="#F15700"
         id="stop1410" />
      <stop
         offset="1"
         stop-color="#FF0000"
         id="stop1411" />
    </linearGradient>
    <linearGradient
       id="paint335_linear_890_11"
       x1="507"
       y1="587"
       x2="498.17599"
       y2="581.70599"
       gradientUnits="userSpaceOnUse"
       gradientTransform="matrix(0.375,0,0,0.35714286,-168.98214,-199.35714)">
      <stop
         stop-color="#FF7E07"
         id="stop1412" />
      <stop
         offset="1"
         stop-color="#FFE607"
         id="stop1413" />
    </linearGradient>
    <linearGradient
       id="paint336_linear_890_11"
       x1="507"
       y1="599"
       x2="498.17599"
       y2="593.70599"
       gradientUnits="userSpaceOnUse"
       gradientTransform="matrix(0.375,0,0,0.35714286,-168.98214,-199.35714)">
      <stop
         stop-color="#5200FF"
         id="stop1414" />
      <stop
         offset="1"
         stop-color="#0085FF"
         id="stop1415" />
    </linearGradient>
    <linearGradient
       id="paint337_linear_890_11"
       x1="482.68591"
       y1="561"
       x2="482.74106"
       y2="617"
       gradientUnits="userSpaceOnUse"
       gradientTransform="matrix(0.375,0,0,0.35714286,-168.98214,-199.35714)">
      <stop
         stop-color="#EFF2F6"
         id="stop1416"
         offset="0"
         style="stop-color:#7b93b4;stop-opacity:1;" />
      <stop
         offset="1"
         stop-color="#B7C6CD"
         id="stop1417"
         style="stop-color:#3a4d66;stop-opacity:1;" />
    </linearGradient>
    <linearGradient
       id="paint338_linear_890_11"
       x1="493"
       y1="599"
       x2="490.17599"
       y2="587.70599"
       gradientUnits="userSpaceOnUse"
       gradientTransform="matrix(0.375,0,0,0.35714286,-168.98214,-199.35714)">
      <stop
         stop-color="#2E2E41"
         id="stop1418" />
      <stop
         offset="1"
         stop-color="#566C80"
         id="stop1419" />
    </linearGradient>
    <linearGradient
       id="paint339_linear_890_11"
       x1="487"
       y1="589"
       x2="475"
       y2="577"
       gradientUnits="userSpaceOnUse"
       gradientTransform="matrix(0.375,0,0,0.35714286,-168.98214,-199.35714)">
      <stop
         stop-color="#2E2E41"
         id="stop1420" />
      <stop
         offset="1"
         stop-color="#566C80"
         id="stop1421" />
    </linearGradient>
    <linearGradient
       id="paint141_linear_890_11"
       x1="1007"
       y1="817"
       x2="955.16602"
       y2="769.15302"
       gradientUnits="userSpaceOnUse"
       gradientTransform="translate(-952,-758)">
      <stop
         offset="0.370336"
         stop-color="#71706E"
         id="stop1024" />
      <stop
         offset="1"
         stop-color="#B9AA99"
         id="stop1025" />
    </linearGradient>
    <linearGradient
       id="paint142_linear_890_11"
       x1="963"
       y1="771"
       x2="1004.95"
       y2="810.95203"
       gradientUnits="userSpaceOnUse"
       gradientTransform="translate(-952,-758)">
      <stop
         stop-color="white"
         id="stop1026" />
      <stop
         offset="0.705"
         stop-color="#EAEFEF"
         id="stop1027" />
    </linearGradient>
    <linearGradient
       id="paint143_linear_890_11"
       x1="999"
       y1="773"
       x2="991.10999"
       y2="751.95898"
       gradientUnits="userSpaceOnUse"
       gradientTransform="translate(-952,-758)">
      <stop
         offset="0.313791"
         stop-color="#2E2E41"
         id="stop1028" />
      <stop
         offset="0.803863"
         stop-color="#566C80"
         id="stop1029" />
    </linearGradient>
    <linearGradient
       id="paint144_linear_890_11"
       x1="984"
       y1="787"
       x2="984"
       y2="783"
       gradientUnits="userSpaceOnUse">
      <stop
         offset="0.28471"
         stop-color="#089953"
         id="stop1030" />
      <stop
         offset="0.882735"
         stop-color="#16D96F"
         id="stop1031" />
    </linearGradient>
    <linearGradient
       id="paint146_linear_890_11"
       x1="974.5"
       y1="796"
       x2="974.5"
       y2="790"
       gradientUnits="userSpaceOnUse">
      <stop
         offset="0.155999"
         stop-color="#71706E"
         id="stop1034" />
      <stop
         offset="0.796276"
         stop-color="#B9AA99"
         id="stop1035" />
    </linearGradient>
    <linearGradient
       id="paint148_linear_890_11"
       x1="973.5"
       y1="804"
       x2="973.5"
       y2="798"
       gradientUnits="userSpaceOnUse">
      <stop
         offset="0.155999"
         stop-color="#71706E"
         id="stop1038" />
      <stop
         offset="0.796276"
         stop-color="#B9AA99"
         id="stop1039" />
    </linearGradient>
    <linearGradient
       inkscape:collect="always"
       xlink:href="#paint144_linear_890_11"
       id="linearGradient1"
       gradientUnits="userSpaceOnUse"
       x1="984"
       y1="787"
       x2="984"
       y2="783"
       gradientTransform="matrix(1.2999998,0,0,1.2999998,-1245.4153,-995.2999)" />
    <linearGradient
       inkscape:collect="always"
       xlink:href="#paint144_linear_890_11"
       id="linearGradient2"
       gradientUnits="userSpaceOnUse"
       x1="984"
       y1="787"
       x2="984"
       y2="783"
       gradientTransform="matrix(1.2999998,0,0,1.2999998,-1245.4153,-995.2999)" />
    <linearGradient
       inkscape:collect="always"
       xlink:href="#paint146_linear_890_11"
       id="linearGradient3"
       gradientUnits="userSpaceOnUse"
       x1="974.5"
       y1="796"
       x2="974.5"
       y2="790"
       gradientTransform="matrix(1.2999998,0,0,1.2999998,-1245.4153,-995.2999)" />
    <linearGradient
       inkscape:collect="always"
       xlink:href="#paint146_linear_890_11"
       id="linearGradient4"
       gradientUnits="userSpaceOnUse"
       x1="974.5"
       y1="796"
       x2="974.5"
       y2="790"
       gradientTransform="matrix(1.2999998,0,0,1.2999998,-1245.4153,-995.2999)" />
    <linearGradient
       inkscape:collect="always"
       xlink:href="#paint148_linear_890_11"
       id="linearGradient5"
       gradientUnits="userSpaceOnUse"
       x1="973.5"
       y1="804"
       x2="973.5"
       y2="798"
       gradientTransform="matrix(1.2999998,0,0,1.2999998,-1245.4153,-995.2999)" />
    <linearGradient
       inkscape:collect="always"
       xlink:href="#paint148_linear_890_11"
       id="linearGradient6"
       gradientUnits="userSpaceOnUse"
       x1="973.5"
       y1="804"
       x2="973.5"
       y2="798"
       gradientTransform="matrix(1.2999998,0,0,1.2999998,-1245.4153,-995.2999)" />
  </defs>
  <g
     inkscape:label="Layer 1"
     inkscape:groupmode="layer"
     id="layer1">
    <path
       d="M 7,13 C 7,9.686 9.686,7 13,7 h 36 c 3.31,0 6,2.686 6,6 v 40 c 0,3.314 -2.69,6 -6,6 H 13 C 9.686,59 7,56.314 7,53 Z"
       id="path139"
       style="fill:url(#paint141_linear_890_11)" />
    <path
       d="m 11,17 c 0,-2.209 1.791,-4 4,-4 h 32 c 2.21,0 4,1.791 4,4 v 34 c 0,2.209 -1.79,4 -4,4 H 15 c -2.209,0 -4,-1.791 -4,-4 z"
       fill="url(#paint142_linear_890_11)"
       id="path140"
       style="fill:url(#paint142_linear_890_11)" />
    <path
       fill-rule="evenodd"
       clip-rule="evenodd"
       d="M 37.112,10 C 36.391,10 35.897,9.245 35.972,8.528 35.991,8.355 36,8.178 36,8 36,5.239 33.761,3 31,3 28.239,3 26,5.239 26,8 26,8.178 26.009,8.355 26.028,8.528 26.103,9.245 25.609,10 24.888,10 H 20 c -2.761,0 -5,1.239 -5,4 0,0.552 0.448,1 1,1 h 30 c 0.552,0 1,-0.448 1,-1 0,-2.761 -2.239,-4 -5,-4 z M 33,8 c 0,1.105 -0.895,2 -2,2 -1.105,0 -2,-0.895 -2,-2 0,-1.105 0.895,-2 2,-2 1.105,0 2,0.895 2,2 z"
       id="path141"
       style="fill:url(#paint143_linear_890_11)" />
    <path
       d="m 16.884684,27.8 c 1.4365,0 2.6,-1.1635 2.6,-2.6 0,-1.4365 -1.1635,-2.6 -2.6,-2.6 -1.4365,0 -2.6,1.1635 -2.6,2.6 0,1.4365 1.1635,2.6 2.6,2.6 z"
       id="path142"
       style="fill:url(#linearGradient1);stroke-width:1.3" />
    <path
       d="m 24.684684,22.6 c -1.4365,0 -2.6,1.1635 -2.6,2.6 0,1.4365 1.1635,2.6 2.6,2.6 h 20.8 c 1.4365,0 2.6,-1.1635 2.6,-2.6 0,-1.4365 -1.1635,-2.6 -2.6,-2.6 z"
       id="path143"
       style="fill:url(#linearGradient2);stroke-width:1.3" />
    <path
       d="m 16.884684,38.2 c 1.4365,0 2.6,-1.1635 2.6,-2.6 0,-1.4365 -1.1635,-2.6 -2.6,-2.6 -1.4365,0 -2.6,1.1635 -2.6,2.6 0,1.4365 1.1635,2.6 2.6,2.6 z"
       id="path144"
       style="fill:url(#linearGradient3);stroke-width:1.3" />
    <path
       d="m 24.684684,33 c -1.4365,0 -2.6,1.1635 -2.6,2.6 0,1.4365 1.1635,2.6 2.6,2.6 h 15.6 c 1.4365,0 2.6,-1.1635 2.6,-2.6 0,-1.4365 -1.1635,-2.6 -2.6,-2.6 z"
       id="path145"
       style="fill:url(#linearGradient4);stroke-width:1.3" />
    <path
       d="m 16.884684,48.6 c 1.4365,0 2.6,-1.1635 2.6,-2.6 0,-1.4365 -1.1635,-2.6 -2.6,-2.6 -1.4365,0 -2.6,1.1635 -2.6,2.6 0,1.4365 1.1635,2.6 2.6,2.6 z"
       id="path146"
       style="fill:url(#linearGradient5);stroke-width:1.3" />
    <path
       d="m 24.684684,43.4 c -1.4365,0 -2.6,1.1635 -2.6,2.6 0,1.4365 1.1635,2.6 2.6,2.6 h 10.4 c 1.4365,0 2.6,-1.1635 2.6,-2.6 0,-1.4365 -1.1635,-2.6 -2.6,-2.6 z"
       id="path147"
       style="fill:url(#linearGradient6);stroke-width:1.3" />
  </g>
</svg>
