<?xml version="1.0" encoding="UTF-8" standalone="no"?>
<svg
   width="62"
   height="62"
   version="1"
   id="svg7"
   sodipodi:docname="kmines.svg"
   inkscape:version="1.4 (e7c3feb100, 2024-10-09)"
   xmlns:inkscape="http://www.inkscape.org/namespaces/inkscape"
   xmlns:sodipodi="http://sodipodi.sourceforge.net/DTD/sodipodi-0.dtd"
   xmlns:xlink="http://www.w3.org/1999/xlink"
   xmlns="http://www.w3.org/2000/svg"
   xmlns:svg="http://www.w3.org/2000/svg">
  <defs
     id="defs7">
    <linearGradient
       id="c-3"
       gradientUnits="userSpaceOnUse"
       x1="24.072048"
       x2="23.959682"
       y1="0.75082099"
       y2="46.056854">
      <stop
         offset="0"
         stop-color="#fff"
         id="stop3" />
      <stop
         offset="1"
         stop-color="#d9d9d9"
         id="stop4" />
    </linearGradient>
    <linearGradient
       id="b-6"
       gradientUnits="userSpaceOnUse"
       x1="29.203026"
       x2="34.121048"
       xlink:href="#a-7"
       y1="24.827356"
       y2="29.224836" />
    <linearGradient
       id="a-7">
      <stop
         offset="0"
         id="stop1" />
      <stop
         offset="1"
         stop-opacity="0"
         id="stop2" />
    </linearGradient>
    <linearGradient
       id="d"
       gradientUnits="userSpaceOnUse"
       x1="15.948756"
       x2="25.031786"
       xlink:href="#a-7"
       y1="23.618279"
       y2="33.69899" />
    <linearGradient
       id="e"
       gradientUnits="userSpaceOnUse"
       x1="21.990562"
       x2="29.320522"
       xlink:href="#a-7"
       y1="33.780373"
       y2="41.931858" />
    <linearGradient
       id="paint154_linear_890_11"
       x1="778"
       y1="812.29199"
       x2="788"
       y2="812.29199"
       gradientUnits="userSpaceOnUse"
       gradientTransform="translate(-751,-696)">
      <stop
         stop-color="#EFF2F6"
         id="stop1050" />
      <stop
         offset="0.600785"
         stop-color="#B7C6CD"
         id="stop1051" />
    </linearGradient>
    <linearGradient
       id="paint155_linear_890_11"
       x1="783"
       y1="813"
       x2="783"
       y2="817"
       gradientUnits="userSpaceOnUse"
       gradientTransform="translate(-751,-696)">
      <stop
         stop-color="#EFF2F6"
         id="stop1052" />
      <stop
         offset="0.734138"
         stop-color="#B7C6CD"
         id="stop1053" />
    </linearGradient>
    <radialGradient
       id="paint156_radial_890_11"
       cx="0"
       cy="0"
       r="1"
       gradientUnits="userSpaceOnUse"
       gradientTransform="matrix(27.999986,27.999976,-27.999986,27.999976,32.302392,33.999998)">
      <stop
         offset="0.60067803"
         stop-color="#B7C6CD"
         id="stop1054"
         style="stop-color:#384850;stop-opacity:1;" />
      <stop
         offset="0.876735"
         stop-color="#EFF2F6"
         id="stop1055" />
    </radialGradient>
    <linearGradient
       id="paint157_linear_890_11"
       x1="796.84485"
       y1="799.43359"
       x2="768.90088"
       y2="770.81476"
       gradientUnits="userSpaceOnUse"
       gradientTransform="matrix(1.1666666,0,0,1.1666668,-881.19764,-881.8333)">
      <stop
         offset="0.00000057"
         stop-color="#2E2E41"
         id="stop1056"
         style="stop-color:#495361;stop-opacity:1;" />
      <stop
         offset="0.711139"
         stop-color="#566C80"
         id="stop1057" />
    </linearGradient>
    <linearGradient
       id="paint158_linear_890_11"
       x1="792"
       y1="794"
       x2="774"
       y2="776"
       gradientUnits="userSpaceOnUse"
       gradientTransform="translate(-751,-696)">
      <stop
         offset="0.304478"
         stop-color="#2E2E41"
         id="stop1058" />
      <stop
         offset="1"
         stop-color="#566C80"
         id="stop1059" />
    </linearGradient>
    <linearGradient
       id="paint159_linear_890_11"
       x1="788"
       y1="790"
       x2="778"
       y2="780"
       gradientUnits="userSpaceOnUse"
       gradientTransform="translate(-751,-696)">
      <stop
         offset="0.391394"
         stop-color="#5200FF"
         id="stop1060" />
      <stop
         offset="1"
         stop-color="#0085FF"
         id="stop1061" />
    </linearGradient>
    <linearGradient
       id="paint160_linear_890_11"
       x1="784"
       y1="798"
       x2="782"
       y2="796"
       gradientUnits="userSpaceOnUse"
       gradientTransform="translate(-751,-696)">
      <stop
         stop-color="#FF7E07"
         id="stop1062" />
      <stop
         offset="1"
         stop-color="#FFE607"
         id="stop1063" />
    </linearGradient>
    <radialGradient
       id="paint134_radial_890_11"
       cx="0"
       cy="0"
       r="1"
       gradientUnits="userSpaceOnUse"
       gradientTransform="matrix(0,18.8889,-23.0311,0,83.0002,853.222)">
      <stop
         offset="0.661242"
         stop-color="#EFF2F6"
         id="stop1010" />
      <stop
         offset="0.862296"
         stop-color="#B7C6CD"
         id="stop1011" />
    </radialGradient>
    <linearGradient
       id="paint135_linear_890_11"
       x1="90"
       y1="886"
       x2="68.684502"
       y2="874.06299"
       gradientUnits="userSpaceOnUse">
      <stop
         offset="0.440713"
         stop-color="#2E2E41"
         id="stop1012" />
      <stop
         offset="1"
         stop-color="#566C80"
         id="stop1013" />
    </linearGradient>
    <linearGradient
       id="paint136_linear_890_11"
       x1="90"
       y1="885"
       x2="71.208099"
       y2="871.84601"
       gradientUnits="userSpaceOnUse">
      <stop
         stop-color="#2E2E41"
         id="stop1014" />
      <stop
         offset="0.718758"
         stop-color="#566C80"
         id="stop1015" />
    </linearGradient>
    <linearGradient
       id="paint137_linear_890_11"
       x1="103"
       y1="917"
       x2="63"
       y2="877"
       gradientUnits="userSpaceOnUse">
      <stop
         stop-color="#2E2E41"
         id="stop1016" />
      <stop
         offset="1"
         stop-color="#566C80"
         id="stop1017" />
    </linearGradient>
    <linearGradient
       id="paint138_linear_890_11"
       x1="69"
       y1="883"
       x2="97"
       y2="911"
       gradientUnits="userSpaceOnUse">
      <stop
         offset="0.165181"
         stop-color="#EFF2F6"
         id="stop1018" />
      <stop
         offset="0.650875"
         stop-color="#B7C6CD"
         id="stop1019" />
    </linearGradient>
    <linearGradient
       id="paint139_linear_890_11"
       x1="77"
       y1="891"
       x2="89"
       y2="903"
       gradientUnits="userSpaceOnUse"
       xlink:href="#paint137_linear_890_11">
      <stop
         stop-color="white"
         id="stop1020" />
      <stop
         offset="0.705"
         stop-color="#EAEFEF"
         id="stop1021" />
    </linearGradient>
    <linearGradient
       id="paint140_linear_890_11"
       x1="80"
       y1="869"
       x2="86"
       y2="875"
       gradientUnits="userSpaceOnUse">
      <stop
         offset="0.455824"
         stop-color="#EFF2F6"
         id="stop1022" />
      <stop
         offset="1"
         stop-color="#B7C6CD"
         id="stop1023" />
    </linearGradient>
    <linearGradient
       inkscape:collect="always"
       xlink:href="#paint137_linear_890_11"
       id="linearGradient6"
       x1="77"
       y1="897"
       x2="89"
       y2="897"
       gradientUnits="userSpaceOnUse" />
  </defs>
  <sodipodi:namedview
     id="namedview7"
     pagecolor="#ffffff"
     bordercolor="#000000"
     borderopacity="0.25"
     inkscape:showpageshadow="2"
     inkscape:pageopacity="0.0"
     inkscape:pagecheckerboard="0"
     inkscape:deskcolor="#d1d1d1"
     inkscape:zoom="8.3306018"
     inkscape:cx="35.111509"
     inkscape:cy="30.850112"
     inkscape:window-width="1920"
     inkscape:window-height="994"
     inkscape:window-x="0"
     inkscape:window-y="0"
     inkscape:window-maximized="1"
     inkscape:current-layer="svg7" />
  <g
     id="g2272"
     transform="translate(-52,-858)">
    <path
       d="m 68.7192,861 c -0.7669,0 -1.242,0.825 -0.8131,1.461 3.506,5.198 8.9637,8.539 15.094,8.539 6.1304,0 11.588,-3.341 15.0941,-8.539 C 98.5231,861.825 98.048,861 97.2811,861 h -2.6784 c -0.3003,0 -0.5834,0.136 -0.7798,0.363 -2.772,3.209 -6.5977,5.193 -10.8228,5.193 -4.225,0 -8.0507,-1.984 -10.8227,-5.193 C 71.981,861.136 71.6979,861 71.3976,861 Z"
       id="path132"
       style="fill:url(#paint134_radial_890_11)" />
    <path
       d="m 76,863 c 0,-1.105 0.8954,-2 2,-2 h 10 c 1.1046,0 2,0.895 2,2 v 23 H 76 Z"
       id="path133"
       style="fill:url(#paint135_linear_890_11)" />
    <path
       d="m 76,872 c 0,-3.866 3.134,-7 7,-7 3.866,0 7,3.134 7,7 v 13 H 76 Z"
       id="path134"
       style="fill:url(#paint136_linear_890_11)" />
    <path
       d="m 103,897 c 0,11.046 -8.9543,20 -20,20 -11.0457,0 -20,-8.954 -20,-20 0,-11.046 8.9543,-20 20,-20 11.0457,0 20,8.954 20,20 z"
       id="path135"
       style="fill:url(#paint137_linear_890_11)" />
    <path
       d="m 97,897 c 0,7.732 -6.268,14 -14,14 -7.732,0 -14,-6.268 -14,-14 0,-7.732 6.268,-14 14,-14 7.732,0 14,6.268 14,14 z"
       id="path136"
       style="fill:url(#paint138_linear_890_11)" />
    <path
       d="m 89,897 c 0,3.314 -2.6863,6 -6,6 -3.3137,0 -6,-2.686 -6,-6 0,-3.314 2.6863,-6 6,-6 3.3137,0 6,2.686 6,6 z"
       id="path137"
       style="fill:url(#linearGradient6)" />
    <path
       d="m 86,872 c 0,1.657 -1.3431,3 -3,3 -1.6569,0 -3,-1.343 -3,-3 0,-1.657 1.3431,-3 3,-3 1.6569,0 3,1.343 3,3 z"
       id="path138"
       style="fill:url(#paint140_linear_890_11)" />
  </g>
</svg>
