<?xml version="1.0" encoding="UTF-8" standalone="no"?>
<svg
   width="62"
   height="62"
   version="1"
   id="svg4"
   sodipodi:docname="kmouth.svg"
   inkscape:version="1.4 (e7c3feb100, 2024-10-09)"
   xmlns:inkscape="http://www.inkscape.org/namespaces/inkscape"
   xmlns:sodipodi="http://sodipodi.sourceforge.net/DTD/sodipodi-0.dtd"
   xmlns="http://www.w3.org/2000/svg"
   xmlns:svg="http://www.w3.org/2000/svg">
  <defs
     id="defs4" />
  <sodipodi:namedview
     id="namedview4"
     pagecolor="#ffffff"
     bordercolor="#000000"
     borderopacity="0.25"
     inkscape:showpageshadow="2"
     inkscape:pageopacity="0.0"
     inkscape:pagecheckerboard="0"
     inkscape:deskcolor="#d1d1d1"
     inkscape:zoom="11.6875"
     inkscape:cx="31.957219"
     inkscape:cy="32"
     inkscape:window-width="1920"
     inkscape:window-height="994"
     inkscape:window-x="0"
     inkscape:window-y="0"
     inkscape:window-maximized="1"
     inkscape:current-layer="svg4" />
  <path
     style="opacity:0.2;stroke-width:0.99119"
     d="m 4.0508,31.509765 c -0.0118,0.32813 -0.050799,0.65037 -0.050799,0.98243 0,15.238888 12.488,27.507805 27.999,27.507805 15.512,0 27.999,-12.268917 27.999,-27.507805 0,-0.331749 -0.03904,-0.65359 -0.05078,-0.98243 -0.52798,14.778118 -12.776,26.525354 -27.949,26.525354 -15.174,0 -27.421,-11.748217 -27.949,-26.525354 z"
     id="path1" />
  <rect
     style="fill:#c83771;stroke-width:0.99119"
     width="56"
     height="55.017555"
     x="4"
     y="4"
     rx="27.999001"
     ry="27.507797"
     id="rect1" />
  <path
     style="opacity:0.2;fill:#ffffff;stroke-width:0.99119"
     d="m 32,4.001965 c -15.512,0 -28,12.266952 -28,27.50682 0,0.112 0.0113,0.22007 0.0176,0.33011 0.3515,-14.934328 12.693,-26.8564385 27.982,-26.8564385 15.289,0 27.631,11.9221105 27.982,26.8564385 0.007,-0.11004 0.018,-0.21909 0.018,-0.33011 0,-15.239868 -12.488,-27.50682 -28,-27.50682 z"
     id="path2" />
  <path
     style="fill:#373e48;stroke-width:0.99119;fill-opacity:1"
     d="m 16.555,39.369419 c 3.1875,6.074533 9.0765,9.818775 15.451,9.824275 6.37,-0.011 12.252,-3.754461 15.438,-9.824275 2.8591,-5.448503 -5.7916,-5.894734 -15.445,-5.894734 -9.6529,0 -18.305,0.442801 -15.445,5.894734 z"
     id="path3" />
  <ellipse
     style="fill:#373e48;stroke-width:0.99119;fill-opacity:1"
     cx="21.999001"
     cy="20.702738"
     rx="4"
     ry="4.9122834"
     id="ellipse3" />
  <ellipse
     style="fill:#373e48;stroke-width:0.99119;fill-opacity:1"
     cx="41.999001"
     cy="20.702738"
     rx="4"
     ry="4.9122834"
     id="ellipse4" />
</svg>
