<?xml version="1.0" encoding="UTF-8" standalone="no"?>
<svg
   width="62"
   height="62"
   version="1.1"
   viewBox="0 0 16.403844 16.403844"
   id="svg20"
   sodipodi:docname="knemo-.svg"
   inkscape:version="1.4 (e7c3feb100, 2024-10-09)"
   xmlns:inkscape="http://www.inkscape.org/namespaces/inkscape"
   xmlns:sodipodi="http://sodipodi.sourceforge.net/DTD/sodipodi-0.dtd"
   xmlns:xlink="http://www.w3.org/1999/xlink"
   xmlns="http://www.w3.org/2000/svg"
   xmlns:svg="http://www.w3.org/2000/svg"
   xmlns:rdf="http://www.w3.org/1999/02/22-rdf-syntax-ns#"
   xmlns:cc="http://creativecommons.org/ns#"
   xmlns:dc="http://purl.org/dc/elements/1.1/">
  <metadata
     id="metadata26">
    <rdf:RDF>
      <cc:Work
         rdf:about="">
        <dc:format>image/svg+xml</dc:format>
        <dc:type
           rdf:resource="http://purl.org/dc/dcmitype/StillImage" />
      </cc:Work>
    </rdf:RDF>
  </metadata>
  <defs
     id="defs24">
    <linearGradient
       inkscape:collect="always"
       xlink:href="#linearGradient853"
       id="linearGradient855"
       x1="205.12303"
       y1="159.5856"
       x2="222.19002"
       y2="223.28046"
       gradientUnits="userSpaceOnUse"
       gradientTransform="matrix(0.19158158,0,0,0.19092044,-30.960238,-27.770721)" />
    <linearGradient
       inkscape:collect="always"
       id="linearGradient853">
      <stop
         style="stop-color:#00ccff;stop-opacity:1"
         offset="0"
         id="stop849" />
      <stop
         style="stop-color:#1e1bde;stop-opacity:1;"
         offset="1"
         id="stop851" />
    </linearGradient>
    <linearGradient
       inkscape:collect="always"
       xlink:href="#linearGradient861"
       id="linearGradient863"
       x1="167.8353"
       y1="216.04416"
       x2="243.31377"
       y2="169.18932"
       gradientUnits="userSpaceOnUse"
       gradientTransform="matrix(0.19158158,0,0,0.19092044,-30.960238,-27.770721)" />
    <linearGradient
       inkscape:collect="always"
       id="linearGradient861">
      <stop
         style="stop-color:#bdbdef;stop-opacity:1"
         offset="0"
         id="stop857" />
      <stop
         style="stop-color:#9996e6;stop-opacity:1"
         offset="0.05650956"
         id="stop871" />
      <stop
         style="stop-color:#766eed;stop-opacity:1"
         offset="0.17447889"
         id="stop873" />
      <stop
         style="stop-color:#7786ef;stop-opacity:1"
         offset="0.27897188"
         id="stop869" />
      <stop
         style="stop-color:#5773f4;stop-opacity:1"
         offset="0.54486555"
         id="stop865" />
      <stop
         style="stop-color:#6aa6e5;stop-opacity:1"
         offset="0.77966058"
         id="stop867" />
      <stop
         style="stop-color:#8ee0f2;stop-opacity:1"
         offset="1"
         id="stop859" />
    </linearGradient>
  </defs>
  <sodipodi:namedview
     pagecolor="#ffffff"
     bordercolor="#666666"
     borderopacity="1"
     objecttolerance="10"
     gridtolerance="10"
     guidetolerance="10"
     inkscape:pageopacity="0"
     inkscape:pageshadow="2"
     inkscape:window-width="1920"
     inkscape:window-height="998"
     id="namedview22"
     showgrid="false"
     inkscape:zoom="7.09375"
     inkscape:cx="5.9207048"
     inkscape:cy="52.017621"
     inkscape:window-x="0"
     inkscape:window-y="0"
     inkscape:window-maximized="1"
     inkscape:current-layer="svg20"
     inkscape:document-rotation="0"
     inkscape:showpageshadow="2"
     inkscape:pagecheckerboard="0"
     inkscape:deskcolor="#d1d1d1" />
  <circle
     cx="-330.35001"
     cy="-328.38"
     r="0"
     fill="#5e4aa6"
     stroke-width="0.26458"
     id="circle2" />
  <circle
     cx="-65.740997"
     cy="5.3371"
     r="0"
     fill="#5e4aa6"
     fill-rule="evenodd"
     stroke-width="0.40965"
     id="circle4" />
  <g
     id="g1"
     transform="translate(-0.52827984,-0.4031443)">
    <ellipse
       style="fill:url(#linearGradient855);fill-opacity:1;stroke-width:0.168134;stroke-linecap:round;stroke-linejoin:round;stroke-opacity:0.992157"
       id="path837"
       cx="8.0944099"
       cy="8.6050663"
       rx="7.4338412"
       ry="7.4081874" />
    <path
       id="path875"
       style="fill:#ffffff;fill-opacity:0.379939;stroke:none;stroke-width:0.19125px;stroke-linecap:butt;stroke-linejoin:miter;stroke-opacity:1"
       d="M 7.883675,1.1999621 A 7.4338421,7.4081888 0 0 0 0.66269624,8.4456155 c 0.0489451,-0.006 0.0979939,-0.014315 0.14705423,-0.026849 C 1.1616531,8.8515471 1.8710089,7.0478076 2.3379121,8.1364894 2.7426645,8.8168002 2.5038123,9.5578193 2.806015,10.24631 c 0.550494,0.508088 1.6506473,0.200383 1.9304079,1.121657 0.3606504,0.925414 1.3910854,-0.512629 1.4473395,0.513844 0.052361,0.854508 -0.5708384,1.872122 0.3827894,2.443933 0.591395,0.467672 1.2826309,0.870576 2.0553845,0.912838 0.574804,0.0883 1.8489067,0.350881 1.8058047,-0.514965 C 10.634634,13.823174 10.370776,12.87258 9.7268986,12.200633 9.1825404,11.660986 8.5223293,11.252378 7.7796519,11.051754 7.3544327,10.73495 6.9135444,9.9397898 6.3865688,10.584893 5.6468916,10.4673 5.3658566,8.6280627 6.3454091,8.8326766 6.9396914,8.6173983 7.5077152,8.1188785 8.0842361,8.7644386 8.8630437,8.7777277 9.4544654,7.8696971 9.4803122,7.1639884 9.634035,6.5539571 9.9276493,6.1626081 10.630176,6.1280955 11.012375,5.9481835 10.16596,6.0341245 10.209595,5.6821169 9.6123286,5.3186235 8.7527234,6.6712721 8.3461644,5.5862845 7.9418084,4.9136719 9.2626575,4.788472 8.6058474,4.0331908 8.4868272,3.1483013 9.2887703,2.9537018 9.9439239,2.8690248 10.13591,2.3426875 9.1310258,2.31673 9.2700205,1.7402824 8.8687146,1.4124605 8.387383,1.2672959 7.883675,1.1999621 Z m 6.57813,4.4881212 c -0.734868,0.1460101 -0.325251,0.9538384 -0.534332,1.3737318 0.281022,0.8174524 -0.821564,0.8426575 -1.088498,1.4072933 -0.50778,0.4385031 -0.777366,1.5582056 0.01833,1.9401546 0.4722,0.535106 1.473713,0.598532 1.547247,1.405054 0.05144,0.102108 0.107383,0.258046 0.169503,0.422114 A 7.4338421,7.4081888 0 0 0 15.528222,8.6052135 7.4338421,7.4081888 0 0 0 15.00811,5.8831046 C 14.93231,5.8319756 14.856464,5.7810099 14.776867,5.7350669 l -0.160152,-0.043628 z" />
    <path
       id="path839"
       style="fill:url(#linearGradient863);fill-opacity:1;stroke-width:0.171061;stroke-linecap:round;stroke-linejoin:round;stroke-opacity:0.992157"
       d="m 13.329158,3.3475345 c 0.418756,0.4140966 0.785858,0.8790243 1.096727,1.3823096 0.326477,0.064658 0.554946,0.1958595 0.677271,0.3889257 0.653011,1.0322172 -1.09478,3.6985877 -5.2374703,6.0511352 -4.4116901,2.505305 -7.4560206,2.560094 -8.1092522,1.527881 -0.071655,-0.113379 -0.106347,-0.247422 -0.1036478,-0.400483 -0.211941,-0.3664 -0.3944587,-0.75125 -0.5418174,-1.153726 -0.43988456,1.187316 -0.38726095,2.23784 0.1507959,3.010352 1.1914397,1.644408 5.7606887,0.931469 9.9352208,-1.688279 C 15.37138,9.845981 17.834313,6.7564547 16.379118,4.6671972 15.814749,3.8571046 14.74564,3.3945218 13.329158,3.3475345 Z"
       sodipodi:nodetypes="cccsccccscc" />
  </g>
  <g
     id="g2"
     transform="translate(12.308128,-8.7310711)">
    <ellipse
       transform="matrix(0.99640973,0.08466196,-0.08496435,0.99638399,0,0)"
       cx="2.6566207"
       cy="21.813942"
       rx="2.3810797"
       ry="2.3812656"
       id="ellipse4"
       style="stroke-width:0.198432;fill:#f9f9f9;fill-opacity:1" />
    <path
       d="m 1.3772826,23.027311 c -0.056604,0 -0.1130506,-0.0243 -0.1541084,-0.07193 -0.1052791,-0.122527 -0.25523073,-0.192563 -0.41154919,-0.192563 -0.15896285,0 -0.3050162,0.06795 -0.41127152,0.191545 -0.0771212,0.08991 -0.20862223,0.09678 -0.2939244,0.01522 -0.08516723,-0.0815 -0.0916893,-0.220055 -0.01441957,-0.309702 0.18338278,-0.213329 0.44567849,-0.335737 0.71964165,-0.335737 0.27354653,0 0.53584223,0.122674 0.71976023,0.336451 0.077266,0.08976 0.070742,0.228401 -0.014423,0.309833 -0.039679,0.03822 -0.089738,0.05682 -0.13968,0.05682 z m 0.4616315,-0.548753 c -0.053128,0 -0.1062539,-0.02132 -0.1467554,-0.06389 C 1.4566301,22.167682 1.1439735,22.03172 0.81161544,22.03172 c -0.33303345,0 -0.64582807,0.135701 -0.88095969,0.382094 -0.08142096,0.0854 -0.21320568,0.085 -0.29420205,-8.59e-4 -0.0810084,-0.08576 -0.0807305,-0.224739 8.7342e-4,-0.310123 0.31346891,-0.328689 0.73059422,-0.509725 1.17432785,-0.509725 0.44303943,0 0.86000553,0.181312 1.17405003,0.510588 0.081565,0.08537 0.081836,0.224298 9e-4,0.31027 -0.040636,0.04279 -0.094186,0.06461 -0.1475865,0.06461 z m 0.4606582,-0.547881 c -0.051739,0 -0.1036155,-0.02041 -0.1439795,-0.06094 -0.3632931,-0.367007 -0.8404417,-0.569102 -1.34397926,-0.569102 -0.50449141,0 -0.9819373,0.201799 -1.34425813,0.56851 -0.0828095,0.08372 -0.21459466,0.08101 -0.29420208,-0.0074 -0.0796219,-0.08742 -0.0768457,-0.226341 0.005954,-0.310116 0.44026136,-0.44538 1.01993501,-0.690593 1.63248775,-0.690593 0.61130322,0 1.19083682,0.245511 1.63201212,0.691029 0.082947,0.08376 0.085729,0.222692 0.00629,0.310117 -0.040926,0.04489 -0.095572,0.06752 -0.150224,0.06752 z M 0.78554442,23.55793 c 0.13881266,0 0.25134348,-0.112542 0.25134348,-0.251372 0,-0.138826 -0.11253314,-0.251352 -0.25134348,-0.251352 -0.13881278,0 -0.25134242,0.112524 -0.25134242,0.251352 0,0.13883 0.11253157,0.251372 0.25134242,0.251372 z"
       id="path4"
       style="fill:#975cf6;fill-opacity:1" />
  </g>
</svg>
