<?xml version="1.0" encoding="UTF-8" standalone="no"?>
<svg
   width="62"
   height="62"
   version="1.1"
   id="svg9"
   sodipodi:docname="kopete.svg"
   inkscape:version="1.4 (e7c3feb100, 2024-10-09)"
   xmlns:inkscape="http://www.inkscape.org/namespaces/inkscape"
   xmlns:sodipodi="http://sodipodi.sourceforge.net/DTD/sodipodi-0.dtd"
   xmlns:xlink="http://www.w3.org/1999/xlink"
   xmlns="http://www.w3.org/2000/svg"
   xmlns:svg="http://www.w3.org/2000/svg">
  <defs
     id="defs9">
    <linearGradient
       id="linearGradient11"
       inkscape:collect="always">
      <stop
         style="stop-color:#b1d7fc;stop-opacity:1;"
         offset="0"
         id="stop11" />
      <stop
         style="stop-color:#e9f4fe;stop-opacity:1;"
         offset="1"
         id="stop12" />
    </linearGradient>
    <linearGradient
       id="linearGradient9"
       inkscape:collect="always">
      <stop
         style="stop-color:#2f74c8;stop-opacity:1;"
         offset="0"
         id="stop9" />
      <stop
         style="stop-color:#5a93d8;stop-opacity:1;"
         offset="1"
         id="stop10" />
    </linearGradient>
    <linearGradient
       inkscape:collect="always"
       xlink:href="#linearGradient9"
       id="linearGradient10"
       x1="353.18683"
       y1="548.62384"
       x2="353.94061"
       y2="505.14484"
       gradientUnits="userSpaceOnUse" />
    <linearGradient
       inkscape:collect="always"
       xlink:href="#linearGradient11"
       id="linearGradient12"
       x1="365.37393"
       y1="548.62384"
       x2="368.52997"
       y2="525.96381"
       gradientUnits="userSpaceOnUse" />
  </defs>
  <sodipodi:namedview
     id="namedview9"
     pagecolor="#ffffff"
     bordercolor="#000000"
     borderopacity="0.25"
     inkscape:showpageshadow="2"
     inkscape:pageopacity="0.0"
     inkscape:pagecheckerboard="0"
     inkscape:deskcolor="#d1d1d1"
     inkscape:zoom="7.7916667"
     inkscape:cx="26.759358"
     inkscape:cy="40.299465"
     inkscape:window-width="1920"
     inkscape:window-height="994"
     inkscape:window-x="0"
     inkscape:window-y="0"
     inkscape:window-maximized="1"
     inkscape:current-layer="svg9" />
  <linearGradient
     id="a"
     x1="355.73465"
     x2="355.6907"
     y1="546.99841"
     y2="505.32748"
     gradientUnits="userSpaceOnUse">
    <stop
       stop-color="#2f74c8"
       offset="0"
       id="stop1" />
    <stop
       stop-color="#4aa2e4"
       offset="1"
       id="stop2" />
  </linearGradient>
  <linearGradient
     id="b"
     x1="373.44516"
     x2="373.44516"
     y1="546.79541"
     y2="507.86609"
     gradientTransform="matrix(-0.56777405,0,0,0.61822428,579.27321,212.13023)"
     gradientUnits="userSpaceOnUse">
    <stop
       stop-color="#b1d7fc"
       offset="0"
       id="stop3" />
    <stop
       stop-color="#f4fcff"
       offset="1"
       id="stop4" />
  </linearGradient>
  <g
     transform="matrix(1.177637,0,0,1.1800365,-387.48736,-591.33934)"
     id="g9">
    <path
       d="m 372.72396,511.00526 c -4.64376,-3.77923 -10.8097,-5.86043 -17.36188,-5.86043 -6.5523,0 -12.71825,2.08134 -17.3619,5.86043 -4.68415,3.81204 -7.26383,8.89248 -7.26383,14.30562 0,5.1665 2.35146,10.0291 6.6381,13.77566 -0.0773,0.17385 -0.13864,0.35675 -0.1778,0.54904 l -1.40852,6.92833 c -0.16748,0.8234 0.0576,1.31439 0.27567,1.58146 0.25214,0.30847 0.62586,0.47846 1.05242,0.47846 0.32207,0 0.66821,-0.095 1.02889,-0.28251 l 8.19253,-4.25611 c 2.83641,0.91297 5.88571,1.3917 9.02427,1.3917 6.55233,0 12.71811,-2.0813 17.36192,-5.8604 4.68401,-3.81192 7.26369,-8.89237 7.26369,-14.3055 0,-5.41327 -2.57956,-10.49371 -7.26357,-14.30575 z"
       id="path4"
       style="fill:url(#linearGradient10)" />
    <path
       transform="matrix(0.88904791,0,0,0.88904791,-1.958243,55.684538)"
       d="m 391.16596,520.8313 c 0,-1.79082 1.45598,-3.24421 3.25118,-3.24421 1.7947,0 3.25069,1.45287 3.25069,3.24421 0,1.7924 -1.45599,3.24525 -3.25069,3.24525 -1.7952,-5.2e-4 -3.25118,-1.45285 -3.25118,-3.24525 z m 14.74178,0 c 0,-1.79082 1.45756,-3.24421 3.25226,-3.24421 1.79467,0 3.25118,1.45287 3.25118,3.24421 0,1.7924 -1.45597,3.24525 -3.25118,3.24525 -1.79417,-5.2e-4 -3.25226,-1.45285 -3.25226,-3.24525 z m 7.68679,13.28759 c -2.01488,4.64945 -6.7336,7.65352 -12.02171,7.65352 -5.40083,0 -10.14734,-3.01924 -12.09249,-7.69223 -0.33347,-0.80046 0.0467,-1.71916 0.84937,-2.0519 0.19713,-0.0811 0.4016,-0.1198 0.60294,-0.1198 0.61658,0 1.20171,0.36412 1.45285,0.96838 1.45598,3.49743 5.06213,5.75703 9.18733,5.75703 4.03188,0 7.61705,-2.26116 9.13386,-5.7612 0.34499,-0.79575 1.27091,-1.1625 2.06732,-0.8172 0.79851,0.34373 1.16553,1.26765 0.82053,2.0634 z"
       fill-opacity="0.85"
       id="path5"
       style="fill:#ffffff;fill-opacity:0.85000002" />
    <path
       d="m 358.65242,529.1544 c 2.32189,-2.05752 5.40486,-3.19058 8.68093,-3.19058 3.27614,0 6.35912,1.13313 8.68094,3.19058 2.34206,2.07537 3.63191,4.8413 3.63191,7.78837 0,2.81279 -1.17574,5.46009 -3.31906,7.49984 0.0388,0.0947 0.0694,0.19423 0.0889,0.29891 l 0.70425,3.77197 c 0.0837,0.44829 -0.0287,0.7156 -0.13788,0.861 -0.12614,0.16793 -0.31294,0.26049 -0.52621,0.26049 -0.16104,0 -0.3341,-0.0517 -0.51444,-0.15382 l -4.09627,-2.31712 c -1.4182,0.49704 -2.94284,0.75766 -4.51213,0.75766 -3.27614,0 -6.35905,-1.13311 -8.68093,-3.19056 -2.342,-2.07531 -3.63185,-4.84125 -3.63185,-7.7883 0,-2.94714 1.28978,-5.71307 3.63178,-7.78844 z"
       id="path6"
       style="fill:url(#linearGradient12)" />
    <g
       fill="#3c8bd6"
       id="g8">
      <circle
         cx="362.20261"
         cy="536.91565"
         r="2.2370911"
         opacity="0.837"
         id="circle6"
         style="fill:#2a7fff;fill-opacity:0.85000002" />
      <circle
         cx="367.30313"
         cy="536.91565"
         r="2.2370911"
         opacity="0.837"
         id="circle7"
         style="fill:#2a7fff;fill-opacity:0.85000002" />
      <circle
         cx="372.66302"
         cy="536.91565"
         r="2.2370911"
         opacity="0.837"
         id="circle8"
         style="fill:#2a7fff;fill-opacity:0.85000002" />
    </g>
  </g>
</svg>
