<?xml version="1.0" encoding="UTF-8" standalone="no"?>
<svg
   width="62"
   height="62"
   version="1"
   id="svg7"
   sodipodi:docname="kpatience.svg"
   inkscape:version="1.4 (e7c3feb100, 2024-10-09)"
   xmlns:inkscape="http://www.inkscape.org/namespaces/inkscape"
   xmlns:sodipodi="http://sodipodi.sourceforge.net/DTD/sodipodi-0.dtd"
   xmlns="http://www.w3.org/2000/svg"
   xmlns:svg="http://www.w3.org/2000/svg">
  <defs
     id="defs7" />
  <sodipodi:namedview
     id="namedview7"
     pagecolor="#ffffff"
     bordercolor="#000000"
     borderopacity="0.25"
     inkscape:showpageshadow="2"
     inkscape:pageopacity="0.0"
     inkscape:pagecheckerboard="0"
     inkscape:deskcolor="#d1d1d1"
     inkscape:zoom="7.8541667"
     inkscape:cx="52.519894"
     inkscape:cy="29.665782"
     inkscape:window-width="1920"
     inkscape:window-height="994"
     inkscape:window-x="0"
     inkscape:window-y="0"
     inkscape:window-maximized="1"
     inkscape:current-layer="svg7" />
  <g
     id="g7"
     transform="translate(1.5000151,-1)">
    <rect
       fill="#e4e4e4"
       width="54.634132"
       height="40.999977"
       x="-58.634132"
       y="-49.999962"
       rx="2.7317066"
       ry="2.7333307"
       transform="matrix(0,-1,-1,0,0,0)"
       id="rect1"
       style="stroke-width:1.36628" />
    <path
       fill="#ffffff"
       opacity="0.2"
       d="M 11.733337,4 C 10.219068,4 9.0000054,5.2183413 9.0000054,6.7317065 v 1.3658546 c 0,-1.5133659 1.2190626,-2.7317072 2.7333316,-2.7317072 h 35.533309 c 1.514264,0 2.733339,1.2183413 2.733339,2.7317072 V 6.7317065 C 49.999985,5.2183413 48.78091,4 47.266646,4 Z"
       id="path1"
       style="stroke-width:1.36628;fill:#a6a6a6;fill-opacity:1" />
    <path
       opacity="0.2"
       d="m 9.0000054,55.902437 v 1.36585 C 9.0000054,58.781652 10.219068,60 11.733337,60 h 35.533309 c 1.514264,0 2.733339,-1.218348 2.733339,-2.731713 v -1.36585 c 0,1.513365 -1.219075,2.731713 -2.733339,2.731713 H 11.733337 c -1.514269,0 -2.7333316,-1.218348 -2.7333316,-2.731713 z"
       id="path2"
       style="stroke-width:1.36628" />
    <path
       fill="#e74c3c"
       d="m 25.100693,23.121952 c -2.845404,0 -5.167358,2.287809 -5.167358,5.121959 0,1.474702 0.622846,2.820074 1.62291,3.756089 L 29.37084,39.512198 37.442374,32 c 1.000394,-0.935611 1.623591,-2.280976 1.623591,-3.756089 0,-2.83415 -2.321966,-5.121959 -5.16737,-5.121959 -1.875052,0 -3.498665,0.984785 -4.39929,2.474922 -0.901997,-1.490137 -2.525589,-2.474922 -4.400659,-2.474922 z"
       id="path3"
       style="stroke-width:1.36628;fill:#c83771" />
    <path
       fill="#e74c3c"
       d="m 12.58204,17.658539 c -1.220439,0 -2.215365,0.953372 -2.215365,2.133461 0,0.614459 0.26693,1.175039 0.695532,1.564998 l 3.349691,3.130539 3.459037,-3.130539 c 0.429136,-0.389263 0.695629,-0.950635 0.695629,-1.565263 0,-1.180109 -0.994927,-2.133474 -2.215364,-2.133474 -0.802232,0 -1.497867,0.409754 -1.884622,1.031215 -0.386768,-0.621461 -1.082405,-1.031215 -1.884636,-1.031215 z"
       id="path4"
       style="stroke-width:1.36628;fill:#c83771" />
    <path
       fill="#e74c3c"
       d="m 16.319863,14.799802 h -3.306368 l -0.52207,1.492874 H 10.366263 L 13.40299,8.0975611 h 2.520961 l 3.036718,8.1951149 h -2.125152 l -0.516608,-1.492874 z m -2.779104,-1.520463 h 2.246385 L 14.6667,10.018907 13.540802,13.279339 Z"
       id="path5"
       style="stroke-width:1.36628;fill:#c83771" />
    <path
       fill="#e74c3c"
       d="m 46.417945,44.975611 c 1.220425,0 2.215363,-0.953372 2.215363,-2.133461 0,-0.614648 -0.266506,-1.176 -0.695633,-1.565276 l -3.349691,-3.130526 -3.459032,3.130526 c -0.429143,0.389276 -0.695629,0.950628 -0.695629,1.565276 0,1.180089 0.99492,2.133461 2.215359,2.133461 0.802236,0 1.497865,-0.409761 1.884627,-1.031222 0.38677,0.621461 1.082398,1.031222 1.884636,1.031222 z"
       id="path6"
       style="stroke-width:1.36628;fill:#c83771" />
    <path
       fill="#e74c3c"
       d="m 42.680112,47.834348 h 3.306376 l 0.522072,-1.492887 h 2.125152 l -3.03727,8.195126 h -2.520946 l -3.037289,-8.195126 h 2.125583 l 0.516269,1.493013 z m 2.779114,1.520463 h -2.246385 l 1.120431,3.260426 1.125911,-3.260426 z"
       id="path7"
       style="stroke-width:1.36628;fill:#c83771" />
  </g>
</svg>
