<?xml version="1.0" encoding="UTF-8" standalone="no"?>
<svg
   width="62"
   height="62"
   version="1"
   id="svg7"
   sodipodi:docname="krusader_user.svg"
   inkscape:version="1.4 (e7c3feb100, 2024-10-09)"
   xmlns:inkscape="http://www.inkscape.org/namespaces/inkscape"
   xmlns:sodipodi="http://sodipodi.sourceforge.net/DTD/sodipodi-0.dtd"
   xmlns="http://www.w3.org/2000/svg"
   xmlns:svg="http://www.w3.org/2000/svg">
  <defs
     id="defs7" />
  <sodipodi:namedview
     id="namedview7"
     pagecolor="#ffffff"
     bordercolor="#000000"
     borderopacity="0.25"
     inkscape:showpageshadow="2"
     inkscape:pageopacity="0.0"
     inkscape:pagecheckerboard="0"
     inkscape:deskcolor="#d1d1d1"
     inkscape:zoom="11.6875"
     inkscape:cx="31.957219"
     inkscape:cy="32"
     inkscape:window-width="1920"
     inkscape:window-height="994"
     inkscape:window-x="0"
     inkscape:window-y="0"
     inkscape:window-maximized="1"
     inkscape:current-layer="svg7" />
  <g
     id="g7"
     transform="translate(0.62566826,2.9999993)">
    <path
       style="opacity:0.2"
       d="m 2.3743316,10.400001 v 40.322222 c 0,1.54 1.24775,2.777778 2.8,2.777778 H 55.575732 c 1.5512,0 2.7986,-1.2375 2.7986,-2.777778 V 10.400001 Z"
       id="path1" />
    <path
       style="fill:#5f5fdf"
       d="M 2.3743316,9.4000006 V 49.722223 c 0,1.54 1.24775,2.777778 2.8,2.777778 H 55.575732 c 1.5512,0 2.7986,-1.2375 2.7986,-2.777778 V 9.4000006 Z"
       id="path2" />
    <path
       style="opacity:0.2;fill:#ffffff"
       d="M 30.374332,9.4444446 V 52.500001 h 25.202734 c 1.5512,0 2.797266,-1.2375 2.797266,-2.777778 V 9.4444446 Z"
       id="path3" />
    <path
       style="fill:#6f7c91;fill-opacity:1"
       d="m 5.1743316,2.5000004 c -1.55232,0 -2.8,1.2381945 -2.8,2.7770834 V 9.5000006 H 58.374332 V 5.2770838 c 0,-1.5388889 -1.2474,-2.7770834 -2.8,-2.7770834 z"
       id="path4" />
    <path
       style="opacity:0.1"
       d="m 23.559974,18.500381 c 0.274324,0.0064 0.537364,0.107744 0.742074,0.285863 l 17.684219,13.988439 c 0.734038,0.637739 0.36798,1.820864 -0.605375,1.956623 l -6.857203,0.963047 3.213791,5.536834 c 0.718189,1.23752 0.292636,2.810216 -0.951305,3.524698 l -0.689067,0.396876 c -1.243941,0.714484 -2.824793,0.291127 -3.542983,-0.946394 l -3.336539,-5.750534 -4.89043,3.943778 c -0.752882,0.609242 -1.893297,0.08793 -1.894239,-0.865911 l -0.05858,-21.903749 c -0.0018,-0.634897 0.534556,-1.145902 1.18565,-1.12957 z"
       id="path5" />
    <path
       style="fill:#cdcde5;fill-opacity:1"
       d="m 23.559974,17.500381 c 0.274324,0.0064 0.537364,0.107744 0.742074,0.285863 l 17.684219,13.988439 c 0.734038,0.637739 0.36798,1.820864 -0.605375,1.956623 l -6.857203,0.963047 3.213791,5.536834 c 0.718189,1.23752 0.292636,2.810216 -0.951305,3.524698 l -0.689067,0.396876 c -1.243941,0.714484 -2.824793,0.291127 -3.542983,-0.946394 l -3.336539,-5.750534 -4.89043,3.943778 c -0.752882,0.609242 -1.893297,0.08793 -1.894239,-0.865911 l -0.05858,-21.903749 c -0.0018,-0.634897 0.534556,-1.145902 1.18565,-1.12957 z"
       id="path6" />
    <rect
       style="opacity:0.2"
       width="56"
       height="1"
       x="2.3743315"
       y="9.500001"
       id="rect6" />
    <path
       style="opacity:0.2;fill:#ffffff"
       d="m 5.1751128,2.5000006 c -1.5523199,0 -2.8007812,1.2384549 -2.8007812,2.7773438 v 1.0000002 c 0,-1.5388889 1.2484613,-2.777344 2.8007812,-2.777344 H 55.573551 c 1.5526,0 2.800781,1.2384551 2.800781,2.777344 V 5.2773444 c 0,-1.5388889 -1.248181,-2.7773438 -2.800781,-2.7773438 z"
       id="path7" />
  </g>
</svg>
