<?xml version="1.0" encoding="UTF-8" standalone="no"?>
<svg
   width="62"
   height="62"
   version="1"
   id="svg9"
   sodipodi:docname="kubrick.svg"
   inkscape:version="1.4 (e7c3feb100, 2024-10-09)"
   xmlns:inkscape="http://www.inkscape.org/namespaces/inkscape"
   xmlns:sodipodi="http://sodipodi.sourceforge.net/DTD/sodipodi-0.dtd"
   xmlns="http://www.w3.org/2000/svg"
   xmlns:svg="http://www.w3.org/2000/svg">
  <defs
     id="defs9" />
  <sodipodi:namedview
     id="namedview9"
     pagecolor="#ffffff"
     bordercolor="#000000"
     borderopacity="0.25"
     inkscape:showpageshadow="2"
     inkscape:pageopacity="0.0"
     inkscape:pagecheckerboard="0"
     inkscape:deskcolor="#d1d1d1"
     inkscape:zoom="11.71875"
     inkscape:cx="32"
     inkscape:cy="32.085333"
     inkscape:window-width="1920"
     inkscape:window-height="996"
     inkscape:window-x="0"
     inkscape:window-y="0"
     inkscape:window-maximized="1"
     inkscape:current-layer="svg9" />
  <g
     id="g10"
     transform="translate(-1,-1.5)">
    <g
       id="g9">
      <path
         style="opacity:0.2"
         d="m 6,19 v 2 c 0,1.108 0.892,2 2,2 h 12 c 1.108,0 2,-0.892 2,-2 v -2 c 0,1.108 -0.892,2 -2,2 H 8 C 6.892,21 6,20.108 6,19 Z m 18,0 v 2 c 0,1.108 0.892,2 2,2 h 12 c 1.108,0 2,-0.892 2,-2 v -2 c 0,1.108 -0.892,2 -2,2 H 26 c -1.108,0 -2,-0.892 -2,-2 z m 18,0 v 2 c 0,1.108 0.892,2 2,2 h 12 c 1.108,0 2,-0.892 2,-2 v -2 c 0,1.108 -0.892,2 -2,2 H 44 c -1.108,0 -2,-0.892 -2,-2 z M 6,37 v 2 c 0,1.108 0.892,2 2,2 h 12 c 1.108,0 2,-0.892 2,-2 v -2 c 0,1.108 -0.892,2 -2,2 H 8 C 6.892,39 6,38.108 6,37 Z m 18,0 v 2 c 0,1.108 0.892,2 2,2 h 12 c 1.108,0 2,-0.892 2,-2 v -2 c 0,1.108 -0.892,2 -2,2 H 26 c -1.108,0 -2,-0.892 -2,-2 z m 18,0 v 2 c 0,1.108 0.892,2 2,2 h 12 c 1.108,0 2,-0.892 2,-2 v -2 c 0,1.108 -0.892,2 -2,2 H 44 c -1.108,0 -2,-0.892 -2,-2 z M 6,55 v 2 c 0,1.108 0.892,2 2,2 h 12 c 1.108,0 2,-0.892 2,-2 v -2 c 0,1.108 -0.892,2 -2,2 H 8 C 6.892,57 6,56.108 6,55 Z m 18,0 v 2 c 0,1.108 0.892,2 2,2 h 12 c 1.108,0 2,-0.892 2,-2 v -2 c 0,1.108 -0.892,2 -2,2 H 26 c -1.108,0 -2,-0.892 -2,-2 z m 18,0 v 2 c 0,1.108 0.892,2 2,2 h 12 c 1.108,0 2,-0.892 2,-2 v -2 c 0,1.108 -0.892,2 -2,2 H 44 c -1.108,0 -2,-0.892 -2,-2 z"
         id="path1" />
      <rect
         style="fill:#d55045"
         width="16"
         height="16"
         x="6"
         y="6"
         rx="2"
         ry="2"
         id="rect1" />
      <rect
         style="fill:#ffc539"
         width="16"
         height="16"
         x="24"
         y="6"
         rx="2"
         ry="2"
         id="rect2" />
      <rect
         style="fill:#94d551"
         width="16"
         height="16"
         x="42"
         y="6"
         rx="2"
         ry="2"
         id="rect3" />
      <rect
         style="fill:#94d551"
         width="16"
         height="16"
         x="6"
         y="24"
         rx="2"
         ry="2"
         id="rect4" />
      <rect
         style="fill:#4b95d5"
         width="16"
         height="16"
         x="24"
         y="24"
         rx="2"
         ry="2"
         id="rect5" />
      <rect
         style="fill:#94d551"
         width="16"
         height="16"
         x="42"
         y="24"
         rx="2"
         ry="2"
         id="rect6" />
      <rect
         style="fill:#4b95d5"
         width="16"
         height="16"
         x="6"
         y="42"
         rx="2"
         ry="2"
         id="rect7" />
      <rect
         style="fill:#ffc539"
         width="16"
         height="16"
         x="24"
         y="42"
         rx="2"
         ry="2"
         id="rect8" />
      <rect
         style="fill:#d55045"
         width="16"
         height="16"
         x="42"
         y="42"
         rx="2"
         ry="2"
         id="rect9" />
      <path
         style="opacity:0.2;fill:#ffffff"
         d="M 8,6 C 6.892,6 6,6.892 6,8 V 9 C 6,7.892 6.892,7 8,7 h 12 c 1.108,0 2,0.892 2,2 V 8 C 22,6.892 21.108,6 20,6 Z m 18,0 c -1.108,0 -2,0.892 -2,2 v 1 c 0,-1.108 0.892,-2 2,-2 h 12 c 1.108,0 2,0.892 2,2 V 8 C 40,6.892 39.108,6 38,6 Z m 18,0 c -1.108,0 -2,0.892 -2,2 v 1 c 0,-1.108 0.892,-2 2,-2 h 12 c 1.108,0 2,0.892 2,2 V 8 C 58,6.892 57.108,6 56,6 Z M 8,24 c -1.108,0 -2,0.892 -2,2 v 1 c 0,-1.108 0.892,-2 2,-2 h 12 c 1.108,0 2,0.892 2,2 v -1 c 0,-1.108 -0.892,-2 -2,-2 z m 18,0 c -1.108,0 -2,0.892 -2,2 v 1 c 0,-1.108 0.892,-2 2,-2 h 12 c 1.108,0 2,0.892 2,2 v -1 c 0,-1.108 -0.892,-2 -2,-2 z m 18,0 c -1.108,0 -2,0.892 -2,2 v 1 c 0,-1.108 0.892,-2 2,-2 h 12 c 1.108,0 2,0.892 2,2 v -1 c 0,-1.108 -0.892,-2 -2,-2 z M 8,42 c -1.108,0 -2,0.892 -2,2 v 1 c 0,-1.108 0.892,-2 2,-2 h 12 c 1.108,0 2,0.892 2,2 v -1 c 0,-1.108 -0.892,-2 -2,-2 z m 18,0 c -1.108,0 -2,0.892 -2,2 v 1 c 0,-1.108 0.892,-2 2,-2 h 12 c 1.108,0 2,0.892 2,2 v -1 c 0,-1.108 -0.892,-2 -2,-2 z m 18,0 c -1.108,0 -2,0.892 -2,2 v 1 c 0,-1.108 0.892,-2 2,-2 h 12 c 1.108,0 2,0.892 2,2 v -1 c 0,-1.108 -0.892,-2 -2,-2 z"
         id="path9" />
    </g>
  </g>
</svg>
