<?xml version="1.0" encoding="UTF-8" standalone="no"?>
<svg
   width="62"
   height="62"
   version="1"
   id="svg6"
   sodipodi:docname="kwordquiz.svg"
   inkscape:version="1.4 (unknown)"
   xmlns:inkscape="http://www.inkscape.org/namespaces/inkscape"
   xmlns:sodipodi="http://sodipodi.sourceforge.net/DTD/sodipodi-0.dtd"
   xmlns="http://www.w3.org/2000/svg"
   xmlns:svg="http://www.w3.org/2000/svg">
  <defs
     id="defs6" />
  <sodipodi:namedview
     id="namedview6"
     pagecolor="#ffffff"
     bordercolor="#000000"
     borderopacity="0.25"
     inkscape:showpageshadow="2"
     inkscape:pageopacity="0.0"
     inkscape:pagecheckerboard="0"
     inkscape:deskcolor="#d1d1d1"
     inkscape:zoom="6.0546875"
     inkscape:cx="18.415484"
     inkscape:cy="48.474839"
     inkscape:window-width="1920"
     inkscape:window-height="998"
     inkscape:window-x="0"
     inkscape:window-y="0"
     inkscape:window-maximized="1"
     inkscape:current-layer="svg6" />
  <g
     id="g6"
     transform="translate(-1,-1)">
    <rect
       style="fill-opacity:0.2"
       width="32"
       height="48"
       x="4"
       y="12"
       rx="2"
       ry="2"
       id="rect1" />
    <rect
       style="fill:#cd87de"
       width="32"
       height="48"
       x="4"
       y="11"
       rx="2"
       ry="2"
       id="rect2" />
    <rect
       style="fill-opacity:0.2"
       width="32"
       height="48"
       x="28"
       y="5"
       rx="2"
       ry="2"
       id="rect3" />
    <path
       style="opacity:0.2;fill:#ffffff"
       d="m 6,11 c -1.108,0 -2,0.892 -2,2 v 1 c 0,-1.108 0.892,-2 2,-2 h 28 c 1.108,0 2,0.892 2,2 v -1 c 0,-1.108 -0.892,-2 -2,-2 z"
       id="path3" />
    <rect
       style="fill:#8d5fd3"
       width="32"
       height="48"
       x="28"
       y="4"
       rx="2"
       ry="2"
       id="rect4" />
    <path
       style="opacity:0.2"
       d="M 44.51,14 C 39.22,14 35,18.04 35,23 h 4 c 0,-2.47 2.89,-5 5.52,-5 2.64,0 4.48,2.23 4.48,4.7 0,1.23 -0.23,2.3 -0.85,3.14 l -2.97,2.83 C 43.57,30.45 42,32.67 42,35 v 2 h 5 v -1.63 c 0,-2.79 1.38,-4.08 2.97,-5.58 l 2.15,-2.06 C 53.48,26.45 54,24.65 54,22.68 54,17.72 49.8,14 44.51,14 Z M 42,40 v 5 h 5 v -4.99 z"
       id="path4" />
    <path
       style="fill:#f2f2f2;fill-opacity:1"
       d="M 44.51,13 C 39.22,13 35,17.04 35,22 h 4 c 0,-2.47 2.89,-5 5.52,-5 2.64,0 4.48,2.23 4.48,4.7 0,1.23 -0.23,2.3 -0.85,3.14 l -2.97,2.83 C 43.57,29.46 42,31.67 42,34 v 2 h 5 v -1.63 c 0,-2.79 1.38,-4.08 2.97,-5.58 l 2.15,-2.06 C 53.48,25.45 54,23.65 54,21.68 54,16.72 49.8,13 44.51,13 Z M 42,39 v 5 h 5 v -4.99 z"
       id="path5" />
    <path
       style="opacity:0.2;fill:#ffffff"
       d="m 30,4 c -1.108,0 -2,0.892 -2,2 v 1 c 0,-1.108 0.892,-2 2,-2 h 28 c 1.108,0 2,0.892 2,2 V 6 C 60,4.892 59.108,4 58,4 Z"
       id="path6" />
  </g>
</svg>
