<?xml version="1.0" encoding="UTF-8" standalone="no"?>
<svg
   width="62"
   height="62"
   version="1.1"
   id="svg6"
   sodipodi:docname="laigter.svg"
   inkscape:version="1.4 (unknown)"
   xmlns:inkscape="http://www.inkscape.org/namespaces/inkscape"
   xmlns:sodipodi="http://sodipodi.sourceforge.net/DTD/sodipodi-0.dtd"
   xmlns:xlink="http://www.w3.org/1999/xlink"
   xmlns="http://www.w3.org/2000/svg"
   xmlns:svg="http://www.w3.org/2000/svg">
  <defs
     id="defs6">
    <linearGradient
       id="linearGradient7"
       inkscape:collect="always">
      <stop
         style="stop-color:#8a2387;stop-opacity:1;"
         offset="0"
         id="stop8" />
      <stop
         style="stop-color:#ff4e50;stop-opacity:1;"
         offset="0.45211354"
         id="stop10" />
      <stop
         style="stop-color:#ffd42a;stop-opacity:1"
         offset="1"
         id="stop9" />
    </linearGradient>
    <linearGradient
       id="paint1_linear_41_67"
       x1="7.5420899"
       y1="14.3432"
       x2="16.522699"
       y2="22.741899"
       gradientUnits="userSpaceOnUse"
       gradientTransform="matrix(2.7501359,0,0,2.7501359,-0.9459348,-5.422574)">
      <stop
         stop-color="#F9D423"
         id="stop5" />
      <stop
         offset="0.515624"
         stop-color="#FF4E50"
         id="stop6" />
      <stop
         offset="0.991304"
         stop-color="#8A2387"
         id="stop7" />
    </linearGradient>
    <linearGradient
       inkscape:collect="always"
       xlink:href="#linearGradient7"
       id="linearGradient9"
       x1="12.303226"
       y1="7.7990928"
       x2="46.658897"
       y2="51.584007"
       gradientUnits="userSpaceOnUse" />
    <linearGradient
       inkscape:collect="always"
       xlink:href="#linearGradient7"
       id="linearGradient12"
       x1="41.504036"
       y1="55.469341"
       x2="22.730644"
       y2="36.67215"
       gradientUnits="userSpaceOnUse" />
  </defs>
  <sodipodi:namedview
     id="namedview6"
     pagecolor="#ffffff"
     bordercolor="#000000"
     borderopacity="0.25"
     inkscape:showpageshadow="2"
     inkscape:pageopacity="0.0"
     inkscape:pagecheckerboard="0"
     inkscape:deskcolor="#d1d1d1"
     inkscape:zoom="12.109375"
     inkscape:cx="32"
     inkscape:cy="27.953548"
     inkscape:window-width="1920"
     inkscape:window-height="998"
     inkscape:window-x="0"
     inkscape:window-y="0"
     inkscape:window-maximized="1"
     inkscape:current-layer="svg6" />
  <path
     style="opacity:0.2;stroke-width:0.980119"
     d="m 9,37.222224 c 0,-20.63158 21.999995,-17.19298 21.999995,-25.216377 0,-3.4385953 -4.631571,-8.023391 -4.631571,-8.023391 0,0 9.898488,2.5764264 13.894732,9.169588 3.473683,5.730992 2.315792,9.169592 -2.315788,14.900586 8.105259,-2.292394 8.105259,-8.023386 8.105259,-8.023386 0,0 6.947373,5.730992 6.947373,17.19298 C 53,47.538014 44.894737,59 30.999995,59 17.105263,59 9,48.68421 9,37.222224 Z"
     id="path1" />
  <path
     style="fill:url(#linearGradient9);stroke-width:0.980119"
     d="M 9,36.239764 C 9,15.608184 30.999995,19.046784 30.999995,11.023397 30.999995,7.5847957 26.368424,3 26.368424,3 c 0,0 9.898488,2.5764254 13.894732,9.169594 3.473683,5.730992 2.315792,9.169582 -2.315788,14.900586 8.105259,-2.292404 8.105259,-8.023396 8.105259,-8.023396 0,0 6.947373,5.730992 6.947373,17.19298 C 53,46.555554 44.894737,58.01754 30.999995,58.01754 17.105263,58.01754 9,47.70175 9,36.239764 Z"
     id="path2" />
  <path
     style="opacity:0.2;fill:#ffffff;stroke-width:0.980119"
     d="m 26.368926,3 c 0,0 0.543034,0.5488522 1.241311,1.3719844 2.608358,0.8458236 9.42882,3.4599542 12.65382,8.7806996 1.255343,2.071101 1.897348,3.841438 1.997572,5.530157 0.134618,-1.989654 -0.497045,-4.037 -1.997572,-6.512607 C 36.267813,5.5770648 26.368926,3 26.368926,3 Z m 4.590965,8.487112 C 30.10808,18.909943 9,16.024849 9,36.240404 c 0,0.143672 0.01655,0.28462 0.01914,0.427907 0.401271,-19.99977 21.980897,-16.71426 21.980897,-24.663105 0,-0.169652 -0.01871,-0.343543 -0.04013,-0.518094 z m 15.092533,7.560312 c 0,0 -0.01872,5.228574 -7.09843,7.692708 -0.325486,0.431501 -0.63588,0.853997 -1.006423,1.312498 8.105261,-2.292394 8.104853,-8.02275 8.104853,-8.02275 0,0 6.704383,5.556141 6.926563,16.642268 0.0032,-0.143611 0.02099,-0.288539 0.02099,-0.431744 0,-11.461988 -6.947576,-17.19298 -6.947576,-17.19298 z"
     id="path5" />
  <path
     d="m 20.110645,46.767028 c 0,8.151403 6.567984,10.671627 10.631035,11.020069 1.387718,-0.174083 0,0.308016 4.402417,-0.575603 3.232785,-1.141856 6.745258,-4.072676 6.745258,-10.444466 0,-4.035274 -2.548,-6.527447 -4.5424,-7.694055 -0.609704,-0.357793 -1.31924,0.09323 -1.372042,0.796439 -0.174084,2.233936 -2.320839,4.013549 -3.780062,2.31479 -1.291189,-1.499649 -1.835716,-3.693158 -1.835716,-5.096277 v -1.835716 c 0,-1.101429 -1.110779,-1.83544 -2.062877,-1.269188 -3.534308,2.093679 -8.185613,6.405892 -8.185613,12.784007 z"
     id="path2-1"
     style="fill:url(#linearGradient12)" />
</svg>
