<?xml version="1.0" encoding="UTF-8" standalone="no"?>
<svg
   width="62"
   height="62"
   version="1.1"
   id="svg6"
   sodipodi:docname="goa-account-lastfm.svg"
   inkscape:version="1.4 (e7c3feb100, 2024-10-09)"
   xmlns:inkscape="http://www.inkscape.org/namespaces/inkscape"
   xmlns:sodipodi="http://sodipodi.sourceforge.net/DTD/sodipodi-0.dtd"
   xmlns:xlink="http://www.w3.org/1999/xlink"
   xmlns="http://www.w3.org/2000/svg"
   xmlns:svg="http://www.w3.org/2000/svg">
  <defs
     id="defs10">
    <linearGradient
       xlink:href="#c"
       id="linearGradient4151"
       gradientUnits="userSpaceOnUse"
       x1="4.0000024"
       y1="43.999989"
       x2="43.999992"
       y2="3.9999998"
       gradientTransform="matrix(1.0499999,0,0,1.0499999,-161.12598,-69.849276)" />
    <linearGradient
       id="c"
       y1="543.79999"
       y2="509.79999"
       gradientUnits="userSpaceOnUse"
       x2="0"
       gradientTransform="matrix(-1,0,0,1,817.14,0)">
      <stop
         stop-color="#c61423"
         id="stop10816" />
      <stop
         offset="1"
         stop-color="#dc2b41"
         id="stop10818" />
    </linearGradient>
    <linearGradient
       id="a-1"
       y1="32"
       y2="16"
       x2="0"
       gradientUnits="userSpaceOnUse"
       gradientTransform="matrix(1.687457,0,0,1.687457,-16.498967,-16.498123)">
      <stop
         stop-color="#f7abb2"
         id="stop10806-8" />
      <stop
         offset="1"
         stop-color="#f9dce0"
         id="stop10808-7" />
    </linearGradient>
    <linearGradient
       id="linearGradient4141">
      <stop
         style="stop-color:#de8787;stop-opacity:1"
         offset="0"
         id="stop7" />
      <stop
         style="stop-color:#ff2a2a;stop-opacity:1"
         offset="1"
         id="stop9" />
    </linearGradient>
    <linearGradient
       id="linearGradient4801">
      <stop
         style="stop-color:#000000;stop-opacity:1;"
         offset="0"
         id="stop176-3" />
      <stop
         style="stop-color:#000000;stop-opacity:0;"
         offset="1"
         id="stop178" />
    </linearGradient>
    <linearGradient
       id="c-3"
       y1="543.79999"
       y2="509.79999"
       gradientUnits="userSpaceOnUse"
       x2="0"
       gradientTransform="matrix(-1,0,0,1,817.14,0)">
      <stop
         stop-color="#c61423"
         id="stop10816-6" />
      <stop
         offset="1"
         stop-color="#dc2b41"
         id="stop10818-7" />
    </linearGradient>
    <linearGradient
       inkscape:collect="always"
       xlink:href="#c"
       id="linearGradient914"
       gradientUnits="userSpaceOnUse"
       gradientTransform="matrix(1.4000004,0,0,1.4000004,109.9349,-78.754753)"
       x1="4.0000024"
       y1="43.999989"
       x2="43.999992"
       y2="3.9999998" />
  </defs>
  <sodipodi:namedview
     id="namedview8"
     pagecolor="#ffffff"
     bordercolor="#000000"
     borderopacity="0.25"
     inkscape:showpageshadow="2"
     inkscape:pageopacity="0.0"
     inkscape:pagecheckerboard="0"
     inkscape:deskcolor="#d1d1d1"
     showgrid="false"
     inkscape:zoom="10.429825"
     inkscape:cx="20.374264"
     inkscape:cy="29.530697"
     inkscape:window-width="1920"
     inkscape:window-height="994"
     inkscape:window-x="0"
     inkscape:window-y="0"
     inkscape:window-maximized="1"
     inkscape:current-layer="svg6" />
  <g
     id="g1"
     transform="translate(-112.5349,76.154747)">
    <rect
       style="fill:url(#linearGradient914);fill-opacity:1;stroke:none;stroke-width:1.4"
       width="56"
       height="56"
       x="115.5349"
       y="-73.154747"
       ry="28"
       rx="28"
       id="rect16-5" />
    <path
       d="m 147.47521,-38.976268 -0.42616,-0.986827 -3.67002,-8.729411 c -1.21159,-3.089699 -4.23304,-5.177225 -7.63752,-5.177225 -4.60776,0 -8.3444,3.901316 -8.3444,8.717601 0,4.811039 3.73664,8.715416 8.34392,8.715416 3.21677,0 6.00721,-1.899188 7.4018,-4.679204 l 1.48363,3.572373 c -2.10466,2.680603 -5.30595,4.388797 -8.88495,4.388797 -6.34634,0 -11.48887,-5.367736 -11.48887,-11.997382 0,-6.628319 5.14253,-12.002627 11.48887,-12.002627 4.78872,0 8.65551,2.669189 10.62151,7.403593 0.14729,0.367924 2.07711,5.076466 3.76077,9.083326 1.04027,2.479112 1.92811,4.126878 4.81279,4.227602 2.82644,0.100733 4.77338,-1.695066 4.77338,-3.97269 0,-2.222433 -1.48659,-2.756353 -3.98627,-3.625357 -4.49304,-1.545271 -6.81672,-3.09888 -6.81672,-6.821908 0,-3.630631 2.36484,-6.053234 6.21096,-6.053234 2.501,0 4.31347,1.163351 5.56704,3.483451 l -2.4616,1.312261 c -0.92419,-1.35168 -1.94385,-1.886916 -3.24429,-1.886916 -1.80459,0 -3.08793,1.310505 -3.08793,3.053761 0,2.476049 2.11994,2.848801 5.08129,3.861881 3.99196,1.356066 5.84473,2.90792 5.84473,6.776363 0,4.065569 -3.33804,7.026918 -7.69924,7.020337 -4.01738,-0.01884 -6.15966,-2.068684 -7.64322,-5.683981"
       fill="#ffffff"
       id="path4-3-3"
       style="stroke-width:0.438007" />
  </g>
</svg>
