<?xml version="1.0" encoding="UTF-8" standalone="no"?>
<svg
   width="62"
   height="62"
   version="1.1"
   id="svg6"
   sodipodi:docname="librecad.svg"
   inkscape:version="1.4 (e7c3feb100, 2024-10-09)"
   xmlns:inkscape="http://www.inkscape.org/namespaces/inkscape"
   xmlns:sodipodi="http://sodipodi.sourceforge.net/DTD/sodipodi-0.dtd"
   xmlns="http://www.w3.org/2000/svg"
   xmlns:svg="http://www.w3.org/2000/svg">
  <defs
     id="defs6" />
  <sodipodi:namedview
     id="namedview6"
     pagecolor="#ffffff"
     bordercolor="#000000"
     borderopacity="0.25"
     inkscape:showpageshadow="2"
     inkscape:pageopacity="0.0"
     inkscape:pagecheckerboard="0"
     inkscape:deskcolor="#d1d1d1"
     inkscape:zoom="12.109375"
     inkscape:cx="31.95871"
     inkscape:cy="32"
     inkscape:window-width="1920"
     inkscape:window-height="998"
     inkscape:window-x="0"
     inkscape:window-y="0"
     inkscape:window-maximized="1"
     inkscape:current-layer="svg6" />
  <g
     id="g6"
     transform="matrix(0.98275862,0,0,0.98245614,0.53448278,-0.92982455)">
    <circle
       style="opacity:0.2"
       cx="32"
       cy="33"
       r="28"
       id="circle1" />
    <circle
       style="fill:#79b03b;fill-opacity:1"
       cx="32"
       cy="32"
       r="28"
       id="circle2" />
    <path
       style="opacity:0.2;fill:#ffffff"
       d="M 32,4 A 28,28 0 0 0 4,32 28,28 0 0 0 4.0175781,32.492188 28,28 0 0 1 32,5 28,28 0 0 1 59.974609,32.492188 28,28 0 0 0 60,32 28,28 0 0 0 32,4 Z"
       id="path2" />
    <circle
       style="opacity:0.2"
       cx="32"
       cy="33"
       r="20"
       id="circle3" />
    <circle
       style="fill:#ffffff"
       cx="32"
       cy="32"
       r="20"
       id="circle4" />
    <path
       style="opacity:0.2"
       d="M 5.3242188,30 A 28,21 0 0 0 5,32.994141 28.571428,30.000009 0 0 0 5,33 28.571428,30.000009 0 0 0 5.09375,34.628906 28,21 0 0 0 5.3164062,36 H 59.828125 A 28,28 0 0 0 60,33 28,28 0 0 0 59.806641,30 Z"
       id="path4" />
    <path
       style="fill:#2d3d53;fill-opacity:1"
       d="M 5.3242188,29 A 28,21 0 0 0 5,31.994141 28.571428,30.000009 0 0 0 5,32 28.571428,30.000009 0 0 0 5.09375,33.628906 28,21 0 0 0 5.3164062,35 H 59.828125 A 28,28 0 0 0 60,32 28,28 0 0 0 59.806641,29 Z"
       id="path5" />
    <rect
       style="opacity:0.2"
       width="16"
       height="16"
       x="2"
       y="25"
       rx="2.6670001"
       ry="2.6670001"
       id="rect5" />
    <rect
       style="fill:#2d3d53;fill-opacity:1"
       width="16"
       height="16"
       x="2"
       y="24"
       rx="2.6670001"
       ry="2.6670001"
       id="rect6" />
  </g>
</svg>
