<?xml version="1.0" encoding="UTF-8" standalone="no"?>
<svg
   width="62"
   height="62"
   version="1.1"
   id="svg7"
   sodipodi:docname="liferea.svg"
   inkscape:version="1.4 (unknown)"
   xmlns:inkscape="http://www.inkscape.org/namespaces/inkscape"
   xmlns:sodipodi="http://sodipodi.sourceforge.net/DTD/sodipodi-0.dtd"
   xmlns:xlink="http://www.w3.org/1999/xlink"
   xmlns="http://www.w3.org/2000/svg"
   xmlns:svg="http://www.w3.org/2000/svg">
  <defs
     id="defs7">
    <linearGradient
       id="linearGradient7"
       inkscape:collect="always">
      <stop
         style="stop-color:#cccccc;stop-opacity:1;"
         offset="0"
         id="stop7" />
      <stop
         style="stop-color:#e5e5e5;stop-opacity:1;"
         offset="1"
         id="stop8" />
    </linearGradient>
    <linearGradient
       inkscape:collect="always"
       xlink:href="#linearGradient7"
       id="linearGradient8"
       x1="31.866667"
       y1="50.249989"
       x2="31.866667"
       y2="9"
       gradientUnits="userSpaceOnUse" />
  </defs>
  <sodipodi:namedview
     id="namedview7"
     pagecolor="#ffffff"
     bordercolor="#000000"
     borderopacity="0.25"
     inkscape:showpageshadow="2"
     inkscape:pageopacity="0.0"
     inkscape:pagecheckerboard="0"
     inkscape:deskcolor="#d1d1d1"
     inkscape:zoom="7.0710678"
     inkscape:cx="37.052395"
     inkscape:cy="35.143207"
     inkscape:window-width="1920"
     inkscape:window-height="998"
     inkscape:window-x="0"
     inkscape:window-y="0"
     inkscape:window-maximized="1"
     inkscape:current-layer="svg7" />
  <g
     id="g7"
     transform="translate(0.99999952,-0.5)">
    <rect
       x="5.7333345"
       y="9"
       width="52.266666"
       height="41.249989"
       rx="5.6251049"
       ry="5.6502151"
       stroke-width="1.84982"
       id="rect1"
       style="fill:url(#linearGradient8);fill-opacity:1" />
    <rect
       x="39.333359"
       y="14.624997"
       width="14.000007"
       height="5.6249952"
       rx="0.93333375"
       ry="0.93750012"
       opacity="0.3"
       stroke-width="0.838525"
       id="rect2" />
    <rect
       x="2"
       y="24.937494"
       width="28.93335"
       height="29.062506"
       rx="14.466674"
       ry="14.531251"
       id="rect3"
       style="stroke-width:0.93541;fill:#3771c8" />
    <path
       d="m 16.466674,29.624995 c -5.412401,0 -9.8000057,4.407186 -9.8000057,9.843749 0,5.436563 4.3876047,9.843751 9.8000057,9.843751 5.412402,0 9.800005,-4.407188 9.800005,-9.843751 0,-5.436563 -4.387603,-9.843749 -9.800005,-9.843749 z m -0.98168,1.881381 c 0.11426,-0.01212 0.259338,0.0071 0.374612,0 0.01375,0.05485 -0.08294,0.249732 -0.213284,0.535585 -0.82978,1.820813 -0.876743,3.95512 -0.106638,5.094935 0.139355,0.206634 0.26523,0.402904 0.26523,0.428463 0,0.02554 -0.149985,0.05224 -0.31992,0.05224 -0.39892,0 -0.77634,-0.243428 -1.547661,-0.856923 -0.342644,-0.272546 -0.78719,-0.500942 -0.959744,-0.535589 -0.271004,-0.05433 -0.343946,-0.03084 -0.694536,0.321353 -0.326182,0.327582 -0.426558,0.504848 -0.426558,0.804745 0,1.13728 1.343346,2.038871 3.841793,2.570817 3.392946,0.722327 4.22949,1.371939 4.32301,3.164062 0.117505,2.247272 -1.074271,3.942371 -3.683216,5.254216 -0.311398,0.156621 -0.50919,0.215809 -0.639842,0.266414 -0.05795,-0.0055 -0.100866,0.0055 -0.158593,0 -0.02219,-0.06953 -0.05465,-0.230167 -0.05465,-0.535585 0,-1.193626 -0.467287,-2.422125 -1.173021,-3.109118 -0.189441,-0.184454 -0.721518,-0.574487 -1.175812,-0.85695 -0.454236,-0.28243 -0.912325,-0.609836 -1.014438,-0.749812 -0.169249,-0.232293 -0.181986,-0.375614 -0.052,-0.804744 0.236985,-0.783756 0.518058,-1.22138 1.06643,-1.716654 0.287491,-0.25963 0.576156,-0.475446 0.639832,-0.480664 0.06377,-0.0055 -0.36512,-0.136317 -1.01173,-0.269158 C 12.117716,39.95088 11.169664,39.671252 10.680689,39.493482 9.786493,39.168491 8.5816188,38.48765 8.1212986,37.993857 c -0.01947,-0.02088 -0.03778,-0.03639 -0.054678,-0.05489 0.6594562,-2.638592 2.5095364,-4.799811 4.9628974,-5.841934 0.513332,-0.2181 1.043757,-0.368637 1.602352,-0.483397 0.278242,-0.05715 0.565837,-0.07775 0.853127,-0.107119 z m 8.006227,4.021027 c 0.200585,0.124542 0.956851,1.77075 1.173011,2.573533 0.279138,1.036495 0.258931,2.829278 0,3.858941 -0.09854,0.39188 -0.223212,0.759106 -0.26523,0.804746 -0.04201,0.04566 -0.195384,-0.216553 -0.374613,-0.535585 -0.179238,-0.318978 -0.751949,-0.998151 -1.227709,-1.502343 -1.373312,-1.455653 -1.589746,-2.213809 -1.014436,-3.375562 0.290116,-0.585821 1.553716,-1.920005 1.709025,-1.82372 z"
       id="path3"
       style="stroke-width:0.93541;fill:#f2f2f2;fill-opacity:1" />
    <path
       d="m 32.113079,14.625 c -0.320435,0 -0.608388,0.05653 -0.862705,0.168923 -0.249228,0.107285 -0.445856,0.265678 -0.593353,0.475159 -0.142419,0.204359 -0.216019,0.453106 -0.216019,0.744322 0,0.424047 0.115646,0.763913 0.344524,1.024489 0.233964,0.255454 0.587913,0.48152 1.060925,0.675661 0.300095,0.122615 0.534888,0.239168 0.702735,0.351562 0.172935,0.112395 0.292463,0.23521 0.363664,0.368046 0.07622,0.127725 0.114849,0.287506 0.114849,0.476534 0,0.311654 -0.09656,0.551 -0.289841,0.719597 -0.193277,0.1635 -0.459019,0.245822 -0.799805,0.245822 -0.239052,0 -0.432187,-0.05653 -0.579685,-0.168909 -0.147496,-0.117505 -0.256916,-0.267895 -0.328122,-0.451811 -0.07115,-0.18392 -0.111508,-0.38418 -0.121669,-0.59876 -0.172939,0 -0.308048,0.04843 -0.404693,0.145576 -0.09664,0.09201 -0.146294,0.214769 -0.146294,0.368035 0,0.321864 0.128508,0.583531 0.382824,0.782783 0.259405,0.199249 0.637669,0.297998 1.136144,0.297998 0.574751,0 1.02872,-0.135715 1.364443,-0.406486 0.340777,-0.270782 0.512697,-0.647608 0.512697,-1.13297 0,-0.3934 -0.124017,-0.7102 -0.373248,-0.95035 -0.249213,-0.240149 -0.599673,-0.45328 -1.047281,-0.637208 -0.295019,-0.122614 -0.528444,-0.237412 -0.701368,-0.344696 -0.172935,-0.112393 -0.296953,-0.236966 -0.373234,-0.374914 -0.07115,-0.143042 -0.106647,-0.317484 -0.106647,-0.521847 0,-0.26567 0.0819,-0.477446 0.244728,-0.635837 0.162759,-0.158373 0.389961,-0.237571 0.684966,-0.237571 0.213613,0 0.381043,0.04843 0.503116,0.145564 0.127157,0.09707 0.217121,0.219879 0.267976,0.368047 0.05595,0.148154 0.08478,0.301659 0.08478,0.460049 0.183107,0 0.327954,-0.04053 0.434761,-0.122227 0.111895,-0.08683 0.168173,-0.212799 0.168173,-0.376285 0,-0.224786 -0.124019,-0.425036 -0.373247,-0.598744 -0.24923,-0.173721 -0.601422,-0.259562 -1.054098,-0.259562 z m -20.458676,0.07686 v 0.322735 h 0.09844 c 0.167846,0 0.3127,0.02936 0.434771,0.09066 0.127158,0.06129 0.191406,0.203673 0.191406,0.428476 v 3.755907 c 0,0.24012 -0.06112,0.393635 -0.183207,0.460047 -0.12207,0.06129 -0.270035,0.09066 -0.44297,0.09066 h -0.09844 v 0.322721 h 1.915391 v -0.322721 h -0.0998 c -0.172935,0 -0.3209,-0.02937 -0.44297,-0.09066 -0.12207,-0.06638 -0.183206,-0.219927 -0.183206,-0.460047 V 15.75795 l 2.860207,4.415158 h 0.544138 v -4.597779 c 0,-0.240134 0.05971,-0.390509 0.18183,-0.451812 0.12207,-0.06639 0.270034,-0.09887 0.44297,-0.09887 h 0.09843 v -0.32274 h -1.91408 v 0.322736 h 0.09844 c 0.167847,0 0.314065,0.02937 0.436126,0.09066 0.127158,0.06129 0.188672,0.203672 0.188672,0.428475 v 3.394775 L 13.05027,14.70199 Z m 6.036147,0 v 0.322735 h 0.0998 c 0.172934,0 0.31952,0.03241 0.44159,0.09887 0.12207,0.0613 0.183208,0.211678 0.183208,0.451812 v 3.762839 c 0,0.224787 -0.06424,0.36716 -0.191406,0.428462 -0.12207,0.05619 -0.265554,0.08376 -0.4334,0.08376 h -0.0998 v 0.322737 h 4.087906 l 0.05466,-1.340347 H 21.43663 l -0.05331,0.329587 c -0.02541,0.168598 -0.09453,0.315839 -0.20644,0.443564 -0.106819,0.122614 -0.280486,0.184024 -0.519539,0.184024 h -1.471126 v -2.291997 h 1.837552 v -0.374894 h -1.837552 v -2.037937 h 1.282401 c 0.228891,0 0.390083,0.06453 0.486715,0.19226 0.101734,0.122615 0.162856,0.26674 0.183207,0.435337 l 0.03826,0.329588 h 0.39648 l -0.03685,-1.340343 z m 4.454336,0 v 0.322735 h 0.09843 c 0.147509,0 0.26042,0.02756 0.3418,0.08376 0.08135,0.0562 0.148752,0.161586 0.199606,0.319975 l 1.395901,4.744687 h 0.701355 l 1.168914,-4.291505 1.242735,4.291505 h 0.686322 l 1.290622,-4.552505 c 0.07115,-0.25545 0.145572,-0.418725 0.226939,-0.490259 0.08653,-0.07147 0.205237,-0.10574 0.352734,-0.10574 h 0.143561 v -0.322725 h -1.860786 v 0.322737 h 0.174993 c 0.335697,0 0.504503,0.124557 0.504503,0.374899 0,0.04092 -0.0111,0.100908 -0.03137,0.182645 -0.02028,0.0817 -0.03669,0.152931 -0.05201,0.214243 l -0.672644,2.370279 c -0.07115,0.24523 -0.129229,0.468553 -0.175006,0.67291 -0.04581,0.204351 -0.08919,0.398346 -0.129882,0.582264 -0.03567,-0.173707 -0.08084,-0.377477 -0.136718,-0.612486 -0.05594,-0.235009 -0.120189,-0.48063 -0.191405,-0.736083 l -0.95293,-3.317907 h -0.550985 l -0.907812,3.287635 c -0.06609,0.24523 -0.12415,0.487725 -0.175004,0.727845 -0.05088,0.235009 -0.09602,0.451688 -0.136716,0.650937 -0.04073,-0.18393 -0.09036,-0.387687 -0.146297,-0.612489 -0.05595,-0.224789 -0.115707,-0.451237 -0.181825,-0.681148 l -0.701358,-2.454095 c -0.01521,-0.0562 -0.03124,-0.106457 -0.04655,-0.152438 -0.01014,-0.046 -0.0164,-0.08817 -0.0164,-0.129087 0,-0.245229 0.152832,-0.368048 0.458002,-0.368048 h 0.176362 v -0.322722 z"
       opacity="0.7"
       stroke-width="0.701561"
       id="path4" />
    <rect
       x="32.800003"
       y="24.937494"
       width="20.533335"
       height="1.8750002"
       rx="0.93333375"
       ry="0.93750012"
       fill="#000000"
       opacity="0.35"
       stroke-width="1.87088"
       id="rect4" />
    <rect
       x="32.800003"
       y="30.56249"
       width="20.533335"
       height="1.8750002"
       rx="0.93333375"
       ry="0.93750012"
       fill="#000000"
       opacity="0.35"
       stroke-width="1.87088"
       id="rect5" />
    <rect
       x="32.800003"
       y="36.187519"
       width="20.533335"
       height="1.8750002"
       rx="0.93333375"
       ry="0.93750012"
       fill="#000000"
       opacity="0.35"
       stroke-width="1.87088"
       id="rect6" />
    <rect
       x="32.800003"
       y="41.812489"
       width="20.533335"
       height="1.8750002"
       rx="0.93333375"
       ry="0.93750012"
       fill="#000000"
       opacity="0.35"
       stroke-width="1.87088"
       id="rect7" />
  </g>
</svg>
