<?xml version="1.0" encoding="UTF-8" standalone="no"?>
<svg
   width="62"
   height="62"
   version="1.1"
   id="svg1"
   sodipodi:docname="lightsoff.svg"
   inkscape:version="1.4 (unknown)"
   xmlns:inkscape="http://www.inkscape.org/namespaces/inkscape"
   xmlns:sodipodi="http://sodipodi.sourceforge.net/DTD/sodipodi-0.dtd"
   xmlns:xlink="http://www.w3.org/1999/xlink"
   xmlns="http://www.w3.org/2000/svg"
   xmlns:svg="http://www.w3.org/2000/svg">
  <defs
     id="defs1">
    <linearGradient
       id="linearGradient3"
       inkscape:collect="always">
      <stop
         style="stop-color:#2a7fff;stop-opacity:1"
         offset="0"
         id="stop5" />
      <stop
         style="stop-color:#2ad4ff;stop-opacity:1"
         offset="1"
         id="stop6" />
    </linearGradient>
    <linearGradient
       id="linearGradient1"
       inkscape:collect="always">
      <stop
         style="stop-color:#b3b3b3;stop-opacity:1"
         offset="0"
         id="stop1" />
      <stop
         style="stop-color:#ececec;stop-opacity:1"
         offset="1"
         id="stop2" />
    </linearGradient>
    <linearGradient
       inkscape:collect="always"
       xlink:href="#linearGradient1"
       id="linearGradient2"
       x1="32"
       y1="58"
       x2="32"
       y2="6"
       gradientUnits="userSpaceOnUse"
       gradientTransform="matrix(1.0769236,0,0,1.0769236,-3.4615425,-3.4615425)" />
    <filter
       id="b"
       width="1.2159865"
       height="1.2159999"
       x="-0.10799323"
       y="-0.10799995"
       color-interpolation-filters="sRGB">
      <feGaussianBlur
         stdDeviation="1.44"
         id="feGaussianBlur6" />
    </filter>
    <linearGradient
       id="c"
       x1="31.322001"
       x2="31.051001"
       y1="48.136002"
       y2="15.322"
       gradientUnits="userSpaceOnUse">
      <stop
         offset="0"
         stop-color="#2e2e2e"
         id="stop3" />
      <stop
         offset="1"
         stop-color="#606060"
         id="stop4" />
    </linearGradient>
    <linearGradient
       id="d"
       x1="30.643999"
       x2="30.372999"
       y1="48.678001"
       y2="15.051"
       gradientUnits="userSpaceOnUse">
      <stop
         offset="0"
         stop-color="#2673cf"
         id="stop1-3" />
      <stop
         offset="1"
         stop-color="#26bbcf"
         id="stop2-6" />
    </linearGradient>
    <linearGradient
       inkscape:collect="always"
       xlink:href="#linearGradient3"
       id="linearGradient6"
       x1="32"
       y1="46.344002"
       x2="32"
       y2="18.667"
       gradientUnits="userSpaceOnUse" />
  </defs>
  <sodipodi:namedview
     id="namedview1"
     pagecolor="#ffffff"
     bordercolor="#000000"
     borderopacity="0.25"
     inkscape:showpageshadow="2"
     inkscape:pageopacity="0.0"
     inkscape:pagecheckerboard="0"
     inkscape:deskcolor="#d1d1d1"
     inkscape:zoom="6.0546875"
     inkscape:cx="37.574194"
     inkscape:cy="43.52"
     inkscape:window-width="1920"
     inkscape:window-height="998"
     inkscape:window-x="0"
     inkscape:window-y="0"
     inkscape:window-maximized="1"
     inkscape:current-layer="svg1" />
  <rect
     width="56"
     height="56"
     x="3"
     y="3"
     fill-rule="evenodd"
     rx="8.6153917"
     ry="8.6153917"
     style="fill:url(#linearGradient2);stroke-width:1.07683;paint-order:stroke fill markers"
     id="rect1" />
  <g
     stroke-width="1.333"
     id="g13"
     transform="matrix(1.0022078,0,0,1.0022301,-1.0716497,-2.0735887)">
    <path
       d="M 18.668,17 A 2.66,2.66 0 0 0 16,19.666 V 30.334 A 2.663,2.663 0 0 0 18.668,33 2.66,2.66 0 0 0 16,35.666 V 46.334 A 2.663,2.663 0 0 0 18.668,49 h 10.666 c 1.47,0 2.66,-1.188 2.666,-2.656 A 2.663,2.663 0 0 0 34.668,49 h 10.666 a 2.666,2.666 0 0 0 2.668,-2.666 V 35.666 A 2.663,2.663 0 0 0 45.334,33 2.665,2.665 0 0 0 48,30.334 V 19.666 A 2.661,2.661 0 0 0 45.334,17 H 34.668 A 2.66,2.66 0 0 0 32,19.666 2.661,2.661 0 0 0 29.334,17 Z m 0,1.334 h 10.666 c 0.74,0 1.334,0.592 1.334,1.332 v 10.668 c 0,0.74 -0.594,1.332 -1.334,1.332 H 18.668 c -0.74,0 -1.334,-0.592 -1.334,-1.332 V 19.666 c 0,-0.74 0.594,-1.332 1.334,-1.332 z m 16,0 h 10.666 c 0.74,0 1.334,0.592 1.334,1.332 v 10.668 c 0,0.74 -0.594,1.332 -1.334,1.332 H 34.668 c -0.74,0 -1.334,-0.592 -1.334,-1.332 V 19.666 c 0,-0.74 0.594,-1.332 1.334,-1.332 z M 20,19.666 c -0.74,0 -1.332,0.594 -1.332,1.334 v 8 c 0,0.735 0.592,1.334 1.332,1.334 h 8 c 0.735,0 1.334,-0.6 1.334,-1.334 v -8 c 0,-0.74 -0.6,-1.334 -1.334,-1.334 z m 16,0 c -0.74,0 -1.332,0.594 -1.332,1.334 v 8 c 0,0.735 0.592,1.334 1.332,1.334 h 8 c 0.735,0 1.334,-0.6 1.334,-1.334 v -8 c 0,-0.74 -0.6,-1.334 -1.334,-1.334 z M 32,30.334 A 2.663,2.663 0 0 0 34.668,33 2.66,2.66 0 0 0 32,35.656 2.662,2.662 0 0 0 29.334,33 2.665,2.665 0 0 0 32,30.334 Z m -13.332,3.998 h 10.666 c 0.74,0 1.334,0.594 1.334,1.334 v 10.668 c 0,0.74 -0.594,1.332 -1.334,1.332 H 18.668 c -0.74,0 -1.334,-0.592 -1.334,-1.332 V 35.666 c 0,-0.74 0.594,-1.334 1.334,-1.334 z m 16,0 h 10.666 c 0.74,0 1.334,0.594 1.334,1.334 v 10.668 c 0,0.74 -0.594,1.332 -1.334,1.332 H 34.668 c -0.74,0 -1.334,-0.592 -1.334,-1.332 V 35.666 c 0,-0.74 0.594,-1.334 1.334,-1.334 z M 20,35.666 c -0.74,0 -1.332,0.594 -1.332,1.334 v 8 A 1.33,1.33 0 0 0 20,46.332 h 8 c 0.735,0 1.334,-0.597 1.334,-1.332 v -8 c 0,-0.74 -0.6,-1.334 -1.334,-1.334 z m 16,0 c -0.74,0 -1.332,0.594 -1.332,1.334 v 8 A 1.33,1.33 0 0 0 36,46.332 h 8 c 0.735,0 1.334,-0.597 1.334,-1.332 v -8 c 0,-0.74 -0.6,-1.334 -1.334,-1.334 z"
       filter="url(#b)"
       opacity="0.15"
       id="path11" />
    <path
       d="M 18.667,16 A 2.66,2.66 0 0 0 16,18.667 V 29.334 A 2.663,2.663 0 0 0 18.667,32 h 10.667 a 2.666,2.666 0 0 0 2.667,-2.666 V 18.667 A 2.663,2.663 0 0 0 29.334,16 Z m 0,1.333 h 10.667 c 0.74,0 1.333,0.594 1.333,1.334 v 10.667 c 0,0.74 -0.593,1.333 -1.333,1.333 H 18.667 c -0.74,0 -1.333,-0.593 -1.333,-1.333 V 18.667 c 0,-0.74 0.593,-1.334 1.333,-1.334 z M 20,18.667 c -0.74,0 -1.333,0.593 -1.333,1.333 v 8 c 0,0.735 0.593,1.333 1.333,1.333 h 8 c 0.735,0 1.334,-0.598 1.334,-1.333 v -8 c 0,-0.74 -0.6,-1.333 -1.334,-1.333 z M 34.667,32 a 2.66,2.66 0 0 0 -2.666,2.666 V 45.333 A 2.663,2.663 0 0 0 34.667,48 h 10.667 a 2.666,2.666 0 0 0 2.667,-2.667 V 34.666 A 2.663,2.663 0 0 0 45.334,32 Z m 0,1.333 h 10.667 c 0.74,0 1.334,0.593 1.334,1.333 v 10.667 a 1.33,1.33 0 0 1 -1.334,1.334 H 34.667 c -0.74,0 -1.333,-0.594 -1.333,-1.334 V 34.666 c 0,-0.74 0.593,-1.333 1.333,-1.333 z m 1.334,1.333 A 1.33,1.33 0 0 0 34.667,36 v 8 c 0,0.734 0.594,1.333 1.334,1.333 h 8 c 0.734,0 1.333,-0.599 1.333,-1.333 v -8 c 0,-0.74 -0.599,-1.334 -1.333,-1.334 z"
       id="path12"
       style="fill:#2d3d53;fill-opacity:1" />
    <path
       d="M 34.667,16 A 2.66,2.66 0 0 0 32,18.667 V 29.334 A 2.663,2.663 0 0 0 34.667,32 h 10.667 a 2.666,2.666 0 0 0 2.667,-2.666 V 18.667 A 2.663,2.663 0 0 0 45.334,16 Z m 0,1.333 h 10.667 c 0.74,0 1.333,0.594 1.333,1.334 v 10.667 c 0,0.74 -0.593,1.333 -1.333,1.333 H 34.667 c -0.74,0 -1.333,-0.593 -1.333,-1.333 V 18.667 c 0,-0.74 0.593,-1.334 1.333,-1.334 z M 36,18.667 c -0.74,0 -1.333,0.593 -1.333,1.333 v 8 c 0,0.735 0.593,1.333 1.333,1.333 h 8 c 0.735,0 1.334,-0.598 1.334,-1.333 v -8 c 0,-0.74 -0.6,-1.333 -1.334,-1.333 z M 18.667,32 a 2.66,2.66 0 0 0 -2.666,2.666 V 45.333 A 2.663,2.663 0 0 0 18.667,48 h 10.667 a 2.666,2.666 0 0 0 2.667,-2.667 V 34.666 A 2.663,2.663 0 0 0 29.334,32 Z m 0,1.333 h 10.667 c 0.74,0 1.334,0.593 1.334,1.333 v 10.667 a 1.33,1.33 0 0 1 -1.334,1.334 H 18.667 c -0.74,0 -1.333,-0.594 -1.333,-1.334 V 34.666 c 0,-0.74 0.593,-1.333 1.333,-1.333 z m 1.334,1.333 A 1.33,1.33 0 0 0 18.667,36 v 8 c 0,0.734 0.594,1.333 1.334,1.333 h 8 c 0.734,0 1.333,-0.599 1.333,-1.333 v -8 c 0,-0.74 -0.599,-1.334 -1.333,-1.334 z"
       id="path13"
       style="fill:url(#linearGradient6)" />
  </g>
</svg>
