<?xml version="1.0" encoding="UTF-8" standalone="no"?>
<!-- Created with Inkscape (http://www.inkscape.org/) -->

<svg
   width="62"
   height="62"
   id="svg2"
   version="1.1"
   inkscape:version="1.4 (unknown)"
   sodipodi:docname="livepatch.svg"
   xmlns:inkscape="http://www.inkscape.org/namespaces/inkscape"
   xmlns:sodipodi="http://sodipodi.sourceforge.net/DTD/sodipodi-0.dtd"
   xmlns:xlink="http://www.w3.org/1999/xlink"
   xmlns="http://www.w3.org/2000/svg"
   xmlns:svg="http://www.w3.org/2000/svg"
   xmlns:rdf="http://www.w3.org/1999/02/22-rdf-syntax-ns#"
   xmlns:cc="http://creativecommons.org/ns#"
   xmlns:dc="http://purl.org/dc/elements/1.1/">
  <defs
     id="defs4">
    <linearGradient
       id="linearGradient10">
      <stop
         style="stop-color:#8d5fd3;stop-opacity:1"
         offset="0"
         id="stop9" />
      <stop
         style="stop-color:#8d5fd3;stop-opacity:1;"
         offset="1"
         id="stop10" />
    </linearGradient>
    <linearGradient
       id="linearGradient8">
      <stop
         id="stop7"
         offset="0"
         style="stop-color:#d1bfee;stop-opacity:1;" />
      <stop
         id="stop8"
         offset="1"
         style="stop-color:#7137c8;stop-opacity:1" />
    </linearGradient>
    <linearGradient
       id="linearGradient6">
      <stop
         style="stop-color:#1c2633;stop-opacity:1;"
         offset="0"
         id="stop5" />
      <stop
         style="stop-color:#2d3d53;stop-opacity:1;"
         offset="1"
         id="stop6" />
    </linearGradient>
    <linearGradient
       id="linearGradient961">
      <stop
         style="stop-color:#fe793d;stop-opacity:1"
         offset="0"
         id="stop959" />
      <stop
         style="stop-color:#ffce74;stop-opacity:1"
         offset="1"
         id="stop957" />
    </linearGradient>
    <linearGradient
       id="linearGradient1169">
      <stop
         style="stop-color:#ffce74;stop-opacity:1"
         offset="0"
         id="stop1165" />
      <stop
         style="stop-color:#fe793d;stop-opacity:1"
         offset="1"
         id="stop1167" />
    </linearGradient>
    <linearGradient
       id="linearGradient966">
      <stop
         id="stop960"
         offset="0"
         style="stop-color:#ff7b7e;stop-opacity:1" />
      <stop
         id="stop964"
         offset="1"
         style="stop-color:#f73358;stop-opacity:1" />
    </linearGradient>
    <linearGradient
       id="linearGradient1034">
      <stop
         style="stop-color:#2d3d53;stop-opacity:1;"
         offset="0"
         id="stop1032" />
      <stop
         style="stop-color:#4d4d4d;stop-opacity:1"
         offset="1"
         id="stop1030" />
    </linearGradient>
    <linearGradient
       id="linearGradient1028">
      <stop
         style="stop-color:#d7d7d7;stop-opacity:1"
         offset="0"
         id="stop1026" />
      <stop
         style="stop-color:#ffffff;stop-opacity:1"
         offset="1"
         id="stop1024" />
    </linearGradient>
    <linearGradient
       id="linearGradient947">
      <stop
         id="stop943"
         offset="0"
         style="stop-color:#fa9664;stop-opacity:1" />
      <stop
         id="stop945"
         offset="1"
         style="stop-color:#f47648;stop-opacity:1" />
    </linearGradient>
    <linearGradient
       inkscape:collect="always"
       id="linearGradient911">
      <stop
         style="stop-color:#ffffff;stop-opacity:1"
         offset="0"
         id="stop907" />
      <stop
         style="stop-color:#d7d7d7;stop-opacity:1"
         offset="1"
         id="stop909" />
    </linearGradient>
    <linearGradient
       id="linearGradient876">
      <stop
         id="stop872"
         offset="0"
         style="stop-color:#ffce80;stop-opacity:1" />
      <stop
         id="stop874"
         offset="1"
         style="stop-color:#fe8155;stop-opacity:1" />
    </linearGradient>
    <linearGradient
       id="linearGradient3867">
      <stop
         style="stop-color:#ebd79a;stop-opacity:1;"
         offset="0"
         id="stop3869" />
      <stop
         style="stop-color:#f0d34e;stop-opacity:1;"
         offset="1"
         id="stop3871" />
    </linearGradient>
    <linearGradient
       id="linearGradient3846">
      <stop
         id="stop3848"
         offset="0"
         style="stop-color:#d8dc8e;stop-opacity:1;" />
      <stop
         id="stop3850"
         offset="1"
         style="stop-color:#ebebc2;stop-opacity:1;" />
    </linearGradient>
    <linearGradient
       id="linearGradient3828">
      <stop
         style="stop-color:#f1c035;stop-opacity:1;"
         offset="0"
         id="stop3830" />
      <stop
         style="stop-color:#c09a00;stop-opacity:1;"
         offset="1"
         id="stop3832" />
    </linearGradient>
    <linearGradient
       id="linearGradient3792">
      <stop
         style="stop-color:#552000;stop-opacity:1;"
         offset="0"
         id="stop3794" />
      <stop
         style="stop-color:#431900;stop-opacity:1;"
         offset="1"
         id="stop3796" />
    </linearGradient>
    <inkscape:perspective
       sodipodi:type="inkscape:persp3d"
       inkscape:vp_x="13.534465 : -850.95146 : 1"
       inkscape:vp_y="0 : 1000 : 0"
       inkscape:vp_z="213.53447 : -850.95146 : 1"
       inkscape:persp3d-origin="113.53447 : -884.28479 : 1"
       id="perspective3135" />
    <linearGradient
       id="linearGradient4829">
      <stop
         style="stop-color:#f4fbfc;stop-opacity:1;"
         offset="0"
         id="stop4831" />
      <stop
         style="stop-color:#d6d6d6;stop-opacity:1;"
         offset="1"
         id="stop4833" />
    </linearGradient>
    <clipPath
       clipPathUnits="userSpaceOnUse"
       id="clipPath4282">
      <rect
         style="color:#000000;display:inline;overflow:visible;visibility:visible;fill:#4d4d4d;fill-opacity:1;fill-rule:nonzero;stroke:none;stroke-width:9.13434;marker:none;enable-background:accumulate"
         id="rect4284"
         width="246.875"
         height="234.375"
         x="462.5"
         y="1646.1122"
         ry="17"
         rx="17" />
    </clipPath>
    <linearGradient
       inkscape:collect="always"
       xlink:href="#linearGradient10"
       id="linearGradient4835"
       x1="102.29776"
       y1="-0.42686829"
       x2="102.29776"
       y2="199.16539"
       gradientUnits="userSpaceOnUse"
       gradientTransform="matrix(0.27999846,0,0,0.278177,3,31.36218)" />
    <linearGradient
       inkscape:collect="always"
       xlink:href="#linearGradient5423"
       id="linearGradient5429"
       x1="408.66196"
       y1="44.604382"
       x2="408.66196"
       y2="562.04968"
       gradientUnits="userSpaceOnUse" />
    <linearGradient
       id="linearGradient5423">
      <stop
         style="stop-color:#db5151;stop-opacity:1;"
         offset="0"
         id="stop5425" />
      <stop
         style="stop-color:#951e1e;stop-opacity:1;"
         offset="1"
         id="stop5427" />
    </linearGradient>
    <linearGradient
       inkscape:collect="always"
       xlink:href="#linearGradient8"
       id="linearGradient5473"
       x1="100"
       y1="-3.2933131e-06"
       x2="101.80659"
       y2="200.21254"
       gradientUnits="userSpaceOnUse"
       gradientTransform="matrix(0.25999856,0,0,0.25830721,4.9999853,33.349153)" />
    <linearGradient
       inkscape:collect="always"
       xlink:href="#linearGradient3986"
       id="linearGradient3992"
       x1="78.5625"
       y1="993.6615"
       x2="120.28125"
       y2="993.6615"
       gradientUnits="userSpaceOnUse" />
    <linearGradient
       inkscape:collect="always"
       id="linearGradient3986">
      <stop
         style="stop-color:#000000;stop-opacity:1;"
         offset="0"
         id="stop3988" />
      <stop
         style="stop-color:#000000;stop-opacity:0;"
         offset="1"
         id="stop3990" />
    </linearGradient>
    <linearGradient
       inkscape:collect="always"
       xlink:href="#linearGradient5423-1"
       id="linearGradient5473-2"
       x1="99.036476"
       y1="-0.50471628"
       x2="99.036476"
       y2="199.83986"
       gradientUnits="userSpaceOnUse" />
    <linearGradient
       id="linearGradient5423-1">
      <stop
         style="stop-color:#51b9db;stop-opacity:1;"
         offset="0"
         id="stop5425-2" />
      <stop
         style="stop-color:#2fabd4;stop-opacity:1;"
         offset="1"
         id="stop5427-3" />
    </linearGradient>
    <linearGradient
       y2="199.83986"
       x2="99.036476"
       y1="-0.50471628"
       x1="99.036476"
       gradientUnits="userSpaceOnUse"
       id="linearGradient4119"
       xlink:href="#linearGradient5423-1"
       inkscape:collect="always" />
    <linearGradient
       inkscape:collect="always"
       xlink:href="#linearGradient4829"
       id="linearGradient4159"
       x1="100"
       y1="852.36218"
       x2="100"
       y2="1052.3622"
       gradientUnits="userSpaceOnUse" />
    <linearGradient
       inkscape:collect="always"
       xlink:href="#linearGradient3828"
       id="linearGradient3834"
       x1="100"
       y1="26.268389"
       x2="100"
       y2="138.13489"
       gradientUnits="userSpaceOnUse" />
    <linearGradient
       inkscape:collect="always"
       xlink:href="#linearGradient3846"
       id="linearGradient3844"
       x1="100"
       y1="852.36218"
       x2="100"
       y2="1052.3622"
       gradientUnits="userSpaceOnUse"
       gradientTransform="matrix(1,0,0,0.60126583,0,364.42686)" />
    <linearGradient
       inkscape:collect="always"
       xlink:href="#linearGradient3867"
       id="linearGradient3865"
       x1="100"
       y1="0"
       x2="100"
       y2="200"
       gradientUnits="userSpaceOnUse" />
    <linearGradient
       inkscape:collect="always"
       xlink:href="#linearGradient5423-5"
       id="linearGradient5473-3"
       x1="99.036476"
       y1="-0.50471628"
       x2="99.036476"
       y2="199.83986"
       gradientUnits="userSpaceOnUse" />
    <linearGradient
       id="linearGradient5423-5">
      <stop
         style="stop-color:#db8451;stop-opacity:1;"
         offset="0"
         id="stop5425-22" />
      <stop
         style="stop-color:#c85c29;stop-opacity:1;"
         offset="1"
         id="stop5427-6" />
    </linearGradient>
    <linearGradient
       inkscape:collect="always"
       xlink:href="#linearGradient3792"
       id="linearGradient3908"
       gradientUnits="userSpaceOnUse"
       x1="100"
       y1="852.36218"
       x2="100"
       y2="1052.3622"
       gradientTransform="translate(0,-852.36218)" />
    <linearGradient
       inkscape:collect="always"
       xlink:href="#linearGradient3828"
       id="linearGradient3969"
       gradientUnits="userSpaceOnUse"
       x1="100"
       y1="26.268389"
       x2="100"
       y2="138.13489" />
    <linearGradient
       inkscape:collect="always"
       xlink:href="#linearGradient3867"
       id="linearGradient3971"
       gradientUnits="userSpaceOnUse"
       x1="100"
       y1="0"
       x2="100"
       y2="200" />
    <linearGradient
       inkscape:collect="always"
       xlink:href="#linearGradient3846"
       id="linearGradient3973"
       gradientUnits="userSpaceOnUse"
       gradientTransform="matrix(1,0,0,0.60126583,0,364.42686)"
       x1="100"
       y1="852.36218"
       x2="100"
       y2="1052.3622" />
    <clipPath
       id="clipPath-536897967">
      <g
         transform="translate(0,-1004.3622)"
         id="g17">
        <path
           style="fill:#1890d0"
           inkscape:connector-curvature="0"
           d="m -24,13 c 0,1.105 -0.672,2 -1.5,2 -0.828,0 -1.5,-0.895 -1.5,-2 0,-1.105 0.672,-2 1.5,-2 0.828,0 1.5,0.895 1.5,2 z"
           transform="matrix(15.333333,0,0,11.5,414.99999,878.8622)"
           id="path19" />
      </g>
    </clipPath>
    <linearGradient
       inkscape:collect="always"
       xlink:href="#linearGradient911"
       id="linearGradient913"
       x1="50.625"
       y1="-27.424999"
       x2="50.625"
       y2="131.95"
       gradientUnits="userSpaceOnUse" />
    <linearGradient
       id="linearGradient4657">
      <stop
         id="stop4653"
         offset="0"
         style="stop-color:#ffffff;stop-opacity:1" />
      <stop
         id="stop4655"
         offset="1"
         style="stop-color:#ffffff;stop-opacity:0;" />
    </linearGradient>
    <radialGradient
       inkscape:collect="always"
       xlink:href="#linearGradient4657"
       id="radialGradient6921"
       cx="100"
       cy="82.38073"
       fx="100"
       fy="82.38073"
       r="100"
       gradientUnits="userSpaceOnUse"
       gradientTransform="matrix(0.2583123,0,0,0.19273918,5.6078334,39.430339)" />
    <linearGradient
       inkscape:collect="always"
       xlink:href="#linearGradient1034"
       id="linearGradient1236"
       x1="520"
       y1="32.362179"
       x2="540"
       y2="1092.3622"
       gradientUnits="userSpaceOnUse"
       gradientTransform="matrix(0.05490166,0,0,0.05454451,2.8901967,29.706089)" />
    <filter
       inkscape:collect="always"
       style="color-interpolation-filters:sRGB"
       id="filter1252"
       x="-0.057000001"
       width="1.114"
       y="-0.041454546"
       height="1.0829091">
      <feGaussianBlur
         inkscape:collect="always"
         stdDeviation="12.666667"
         id="feGaussianBlur1254" />
    </filter>
    <linearGradient
       inkscape:collect="always"
       xlink:href="#linearGradient6"
       id="linearGradient946"
       gradientUnits="userSpaceOnUse"
       gradientTransform="matrix(0.27999846,0,0,0.278177,3,31.36218)"
       x1="102.29776"
       y1="-0.42686829"
       x2="102.29776"
       y2="199.16539" />
    <linearGradient
       inkscape:collect="always"
       xlink:href="#linearGradient876"
       id="linearGradient971"
       x1="-213.2377"
       y1="978.49951"
       x2="171.6998"
       y2="978.49951"
       gradientUnits="userSpaceOnUse" />
  </defs>
  <sodipodi:namedview
     id="base"
     pagecolor="#ffffff"
     bordercolor="#666666"
     borderopacity="1.0"
     inkscape:pageopacity="0.0"
     inkscape:pageshadow="2"
     inkscape:zoom="4"
     inkscape:cx="73.25"
     inkscape:cy="82.875"
     inkscape:document-units="px"
     inkscape:current-layer="layer1"
     showgrid="false"
     inkscape:window-width="1920"
     inkscape:window-height="998"
     inkscape:window-x="0"
     inkscape:window-y="0"
     inkscape:window-maximized="1"
     inkscape:snap-from-guide="true"
     showguides="false"
     inkscape:guide-bbox="true"
     inkscape:pagecheckerboard="false"
     inkscape:showpageshadow="2"
     inkscape:deskcolor="#d1d1d1">
    <sodipodi:guide
       position="200,0"
       orientation="-200,0"
       id="guide3766"
       inkscape:locked="false" />
    <sodipodi:guide
       position="0,200"
       orientation="200,0"
       id="guide3127"
       inkscape:locked="false" />
    <sodipodi:guide
       position="0,-2.6171874e-06"
       orientation="0,100"
       id="guide3129"
       inkscape:locked="false" />
    <sodipodi:guide
       position="100,-2.6171874e-06"
       orientation="-200,0"
       id="guide3131"
       inkscape:locked="false" />
    <sodipodi:guide
       position="100,200"
       orientation="0,-100"
       id="guide3133"
       inkscape:locked="false" />
    <inkscape:grid
       type="xygrid"
       id="grid880"
       originx="0"
       originy="0"
       spacingy="1"
       spacingx="1"
       units="px"
       visible="false" />
  </sodipodi:namedview>
  <metadata
     id="metadata7">
    <rdf:RDF>
      <cc:Work
         rdf:about="">
        <dc:format>image/svg+xml</dc:format>
        <dc:type
           rdf:resource="http://purl.org/dc/dcmitype/StillImage" />
      </cc:Work>
    </rdf:RDF>
  </metadata>
  <g
     inkscape:label="Layer 1"
     inkscape:groupmode="layer"
     id="layer1"
     transform="translate(0,-28.36218)">
    <g
       id="g3964"
       transform="matrix(1.5025318,0,0,1.5025318,-50.25318,-477.79922)" />
    <g
       transform="matrix(5.0292968,0,0,5.0292968,-18.68544,815.98523)"
       id="g51">
      <g
         clip-path="url(#clipPath-536897967)"
         id="g53">
        <!-- color: #db363f -->
      </g>
    </g>
    <g
       id="g938"
       transform="translate(244.774,299.43518)" />
    <g
       id="g940"
       transform="translate(244.774,299.43518)" />
    <g
       id="g942"
       transform="translate(244.774,299.43518)" />
    <g
       id="g944"
       transform="translate(244.774,299.43518)" />
    <g
       id="g946"
       transform="translate(244.774,299.43518)" />
    <g
       id="g948"
       transform="translate(244.774,299.43518)" />
    <g
       id="g950"
       transform="translate(244.774,299.43518)" />
    <g
       id="g952"
       transform="translate(244.774,299.43518)" />
    <g
       id="g954"
       transform="translate(244.774,299.43518)" />
    <g
       id="g956"
       transform="translate(244.774,299.43518)" />
    <g
       id="g958"
       transform="translate(244.774,299.43518)" />
    <g
       id="g960"
       transform="translate(244.774,299.43518)" />
    <g
       id="g962"
       transform="translate(244.774,299.43518)" />
    <g
       id="g964"
       transform="translate(244.774,299.43518)" />
    <g
       id="g966"
       transform="translate(244.774,299.43518)" />
    <g
       id="g1008"
       transform="translate(715.635,418.02618)" />
    <g
       id="g1010"
       transform="translate(715.635,418.02618)" />
    <g
       id="g1012"
       transform="translate(715.635,418.02618)" />
    <g
       id="g1014"
       transform="translate(715.635,418.02618)" />
    <g
       id="g1016"
       transform="translate(715.635,418.02618)" />
    <g
       id="g1018"
       transform="translate(715.635,418.02618)" />
    <g
       id="g1020"
       transform="translate(715.635,418.02618)" />
    <g
       id="g1022"
       transform="translate(715.635,418.02618)" />
    <g
       id="g1024"
       transform="translate(715.635,418.02618)" />
    <g
       id="g1026"
       transform="translate(715.635,418.02618)" />
    <g
       id="g1028"
       transform="translate(715.635,418.02618)" />
    <g
       id="g1030"
       transform="translate(715.635,418.02618)" />
    <g
       id="g1032"
       transform="translate(715.635,418.02618)" />
    <g
       id="g1034"
       transform="translate(715.635,418.02618)" />
    <g
       id="g1036"
       transform="translate(715.635,418.02618)" />
    <path
       style="fill:none;stroke-width:16.6667"
       inkscape:connector-curvature="0"
       d="M -840.00001,132.36217 H -39.99999 V 932.36219 H -840.00001 Z"
       id="path1206" />
    <g
       id="g1039"
       transform="translate(1876.0781,-598.82208)" />
    <g
       id="g1041"
       transform="translate(1876.0781,-598.82208)" />
    <g
       id="g1043"
       transform="translate(1876.0781,-598.82208)" />
    <g
       id="g1045"
       transform="translate(1876.0781,-598.82208)" />
    <g
       id="g1047"
       transform="translate(1876.0781,-598.82208)" />
    <g
       id="g1049"
       transform="translate(1876.0781,-598.82208)" />
    <g
       id="g1051"
       transform="translate(1876.0781,-598.82208)" />
    <g
       id="g1053"
       transform="translate(1876.0781,-598.82208)" />
    <g
       id="g1055"
       transform="translate(1876.0781,-598.82208)" />
    <g
       id="g1057"
       transform="translate(1876.0781,-598.82208)" />
    <g
       id="g1059"
       transform="translate(1876.0781,-598.82208)" />
    <g
       id="g1061"
       transform="translate(1876.0781,-598.82208)" />
    <g
       id="g1063"
       transform="translate(1876.0781,-598.82208)" />
    <g
       id="g1065"
       transform="translate(1876.0781,-598.82208)" />
    <g
       id="g1067"
       transform="translate(1876.0781,-598.82208)" />
    <g
       id="g1">
      <path
         id="path4188"
         style="color:#000000;display:inline;overflow:visible;visibility:visible;fill:url(#linearGradient4835);fill-opacity:1;fill-rule:nonzero;stroke:none;stroke-width:2.54927;marker:none;enable-background:accumulate"
         d="M 30.999846,31.36218 A 27.999846,27.8177 0 0 0 3,59.17988 27.999846,27.8177 0 0 0 12.310335,79.852995 c 0.160356,-0.132236 0.332049,-0.252228 0.507304,-0.360931 -0.01292,-0.0083 -0.007,-0.0093 0.0094,-0.006 0.01769,-0.01093 0.03524,-0.02242 0.05297,-0.03313 0.0033,-0.002 0.0074,-0.0029 0.01212,-0.0029 0.03408,2.19e-4 0.10214,0.05071 0.170174,0.10877 0.0033,0.0017 0.0067,0.0034 0.01029,0.0054 -0.162353,-0.211787 0.09276,0.01083 0.268503,0.173221 0.07188,-0.06309 0.209543,0.02515 0.343671,0.153833 0.02678,0.01088 0.05616,0.02268 0.09629,0.0376 0.03545,0.01319 -0.138312,-0.0608 -0.102512,-0.04858 0.127987,0.04371 0.23603,0.124602 0.360935,0.175246 0.0866,0.05266 0.178432,0.09478 0.266789,0.144565 0.02602,0.01467 0.05194,0.02963 0.07731,0.04538 0.0044,0.0027 0.01693,0.01045 0.0118,0.0099 -0.0084,-8.88e-4 -0.01656,-0.0032 -0.02466,-0.0058 0.168827,0.05396 0.03677,0.0085 0.3619,0.170453 0.02817,0.01403 -0.05442,-0.03156 -0.08214,-0.04644 -0.06889,-0.03699 0.140375,0.06963 0.206418,0.111433 0.02971,0.01881 0.05675,0.04136 0.08353,0.06424 0.0017,8.66e-4 0.0034,0.0018 0.0051,0.0027 0.203438,0.10236 0.409149,0.199373 0.611425,0.304257 0.219933,0.101031 0.445249,0.189249 0.659678,0.30319 0.170669,0.09755 0.06143,0.03289 0.188617,0.127093 0.0018,3.4e-5 0.0023,-6.71e-4 0.0033,-2.19e-4 0.09798,0.04514 0.194868,0.09253 0.292309,0.138813 -0.0032,-0.0037 -0.01377,-0.01337 -0.0095,-0.01097 0.366934,0.207921 0.01639,0.01155 0.317078,0.206034 0.0113,0.0074 0.02632,0.0074 0.03775,0.01449 0.07962,0.04956 0.214016,0.143735 0.300671,0.203904 0.02016,0.01022 0.04148,0.01846 0.06048,0.03069 0.280731,0.180643 0.101929,0.07937 0.314611,0.211465 0.203828,0.126591 0.128514,0.06866 0.357504,0.222654 0.06909,0.04646 0.136101,0.09578 0.204166,0.143712 0.252037,0.156564 0.496588,0.345817 0.669328,0.590081 0.0036,0.0027 0.0086,0.0065 0.01115,0.0082 0.04922,0.0345 0.09889,0.06859 0.145298,0.106747 0.101634,0.08355 0.198812,0.207514 0.322547,0.263027 0.138469,0.08946 0.300327,0.126901 0.44586,0.201665 0.144007,0.07398 0.171298,0.09472 0.179611,0.102803 l 1.09e-4,1.1e-4 c 0.027,0.01082 0.04485,0.01838 0.06541,0.02707 6.37e-4,2.18e-4 4.39e-4,1.09e-4 0.0011,3.27e-4 0.01143,0.0041 0.02261,0.0087 0.03388,0.01322 -0.0221,-0.01658 -0.0039,-0.0045 0.05126,0.01758 0.0019,4.37e-4 0.0057,0.0011 0.0073,0.0015 0.0029,7.52e-4 0.0037,0.0018 0.0084,0.0036 0.09309,0.03137 0.06964,0.05846 0.111412,0.01002 0.354586,0.08731 -0.009,-0.0096 0.36544,0.114843 0.0058,0.0019 -0.01904,-0.01341 -0.01298,-0.01279 0.03344,0.0035 0.06575,0.01428 0.09855,0.02163 0.175489,0.03935 0.09503,0.02855 0.220786,0.04037 0.05336,0.0091 0.107204,0.01589 0.160094,0.02737 0.198353,0.04311 0.177845,0.04548 0.310967,0.09087 0.04893,0.0013 0.09722,0.01406 0.145833,0.02057 0.09933,0.03861 0.20173,0.07014 0.298312,0.114947 0.0036,6.98e-4 0.0025,3.28e-4 0.0063,0.0011 0.06499,0.01272 0.129187,0.02933 0.193764,0.044 0.02468,0.0047 0.04915,0.01107 0.0741,0.01406 0.0018,0 7.36e-4,-0.0052 0.0026,-0.0049 0.178076,0.02631 0.233699,0.03837 0.412298,0.118359 0.04077,0.01826 0.07847,0.04244 0.116774,0.06552 8.29e-4,3.28e-4 0.0016,6.55e-4 0.0025,9.61e-4 -0.01755,-0.01043 -0.02287,-0.01394 -0.03431,-0.02089 0.09722,0.02957 0.03639,0.01031 0.120526,0.04826 8.18e-4,-7.75e-4 0.0021,-0.0014 0.0042,-0.0019 0.013,-0.0031 0.303305,0.09213 0.311931,0.09492 0.04147,0.01577 0.03405,0.01307 0.03839,0.01566 0.0407,0.0062 0.08227,0.0082 0.121813,0.0196 0.467876,0.133814 0.17342,0.08011 0.351929,0.111113 0.201448,0.07678 0.409028,0.131873 0.617964,0.183342 0.161036,0.03967 0.09718,0.04265 0.17264,0.0359 0.193253,0.07344 0.398619,0.09001 0.594804,0.152554 0.09306,0.02966 0.18354,0.06673 0.275581,0.09939 0.02798,0.0092 0.197511,0.06573 0.221858,0.07213 0.0026,7.1e-4 0.0038,-0.0052 0.0064,-0.0049 0.08483,0.0082 0.21419,0.04068 0.283945,0.06115 0.05838,0.01714 0.114946,0.03986 0.172425,0.05977 0.104083,0.01107 0.205054,0.06714 0.29842,0.122938 0.07936,-0.01371 0.158865,-0.02625 0.239016,-0.03408 0.06974,-0.0069 0.139453,0.01418 0.208991,0.02281 0.09395,0.01166 0.187532,0.02556 0.281371,0.03803 0.233845,0.03109 0.469101,0.05179 0.702248,0.08767 0.166631,0.02566 0.33194,0.05967 0.497868,0.08948 0.245513,0.0369 0.490074,0.08169 0.735061,0.123785 0.472703,-0.523381 0.315554,-0.370465 0.08139,0.01386 0.05439,0.0091 0.108739,0.01828 0.163204,0.02695 0.06865,0.0051 0.136758,0.01341 0.204273,0.0259 0.07037,-0.148895 0.141189,-0.268579 0.212529,-0.322897 -0.04495,9.93e-4 -0.08993,0.0025 -0.134787,0 -0.221072,-0.01211 0.28164,-0.393201 0.364367,-0.0011 0.310077,-0.0013 0.620193,-0.0013 0.930111,0.01013 0.111578,0.0015 -0.0064,0.002 0.193442,-0.01534 0.08883,-0.0077 0.177745,-0.01481 0.266788,-0.0195 0.0818,-0.0043 0.163875,-0.003 0.245664,-0.0075 0.166564,-0.0091 0.332476,-0.02891 0.499155,-0.03665 0.231899,-0.04368 0.463632,-0.09474 0.697958,-0.124323 0.05523,-0.007 0.110853,-0.0097 0.166314,-0.0146 0.02992,-9.82e-4 0.06014,5.63e-4 0.08986,-0.003 0.07485,-0.0089 0.148967,-0.023 0.223467,-0.03451 0.195592,-0.02884 0.546628,-0.08028 0.726267,-0.108131 0.168226,-0.02608 0.335562,-0.05857 0.50441,-0.08033 0.636919,-0.08207 1.280421,-0.123648 1.922415,-0.12997 0.02992,-5.56e-4 0.05983,-0.0013 0.08975,-0.0019 0.0678,-0.01558 0.135611,-0.03122 0.204165,-0.04293 0.0656,-0.01121 0.132392,-0.01393 0.198589,-0.02089 0.056,-0.0061 0.112498,-0.0083 0.167922,-0.01832 0.581241,-0.105129 -0.0724,-0.01796 0.580007,-0.119956 0.128374,-0.02007 0.259561,-0.01914 0.387743,-0.04037 0.08365,-0.01387 0.165915,-0.03495 0.24888,-0.05242 0.09179,-0.01623 0.183574,-0.03245 0.275366,-0.04868 0.04088,-0.0031 0.08214,-0.0033 0.122671,-0.0093 0.0714,-0.01074 0.141765,-0.02788 0.212744,-0.04112 0.234632,-0.04377 0.469886,-0.08444 0.706216,-0.118144 0.188468,-0.04822 0.379781,-0.06368 0.55781,-0.157881 0.03744,-0.0052 0.07466,-0.01296 0.112376,-0.01556 0.0027,0 -1.65e-4,0.0083 0.0025,0.0077 0.04741,-0.01178 0.09325,-0.02915 0.140042,-0.04314 0.16959,-0.05069 0.339655,-0.100543 0.511915,-0.141582 0.218173,-0.04962 0.215979,-0.05503 0.436211,-0.08203 0.05033,-0.0062 0.101013,-0.0097 0.151623,-0.013 0.02242,-0.0015 0.04519,0.0027 0.06734,-0.0011 0.0627,-0.01055 0.304336,-0.0716 0.362436,-0.08596 0.202835,-0.05849 0.406753,-0.112415 0.611209,-0.164912 -0.03454,-0.06343 -0.06977,-0.126365 -0.106264,-0.188455 0.08461,-0.05704 0.166071,-0.11894 0.253813,-0.171091 0.0135,-0.008 0.05133,-0.02341 0.09222,-0.03931 0.0057,-0.0026 0.01141,-0.0053 0.01641,-0.0085 0.05916,-0.03858 0.115375,-0.08188 0.176822,-0.116759 0.422979,-0.240076 0.472786,-0.242565 0.955739,-0.44637 1.552831,-0.631207 -0.426303,0.167965 1.204298,-0.472577 0.187916,-0.07382 0.373691,-0.153042 0.561026,-0.2283 0.01829,-0.01109 0.03704,-0.02204 0.05512,-0.03324 0.407274,-0.252465 0.345795,-0.216701 0.765514,-0.49644 0.136589,-0.09132 0.271025,-0.185666 0.404684,-0.281033 0.0057,-0.0163 0.01183,-0.03291 0.01641,-0.04847 0.03169,-0.107765 0.115737,-0.193488 0.184435,-0.282632 0.09081,-0.117834 0.423528,-0.461952 0.518564,-0.561957 0.122721,-0.130743 0.241377,-0.265353 0.36812,-0.392251 0.183547,-0.183776 0.993518,-0.943021 1.147895,-1.087269 0.222938,-0.20831 0.444886,-0.417777 0.670508,-0.623214 0.413465,-0.376473 0.748385,-0.664554 1.163765,-1.026225 0.328554,-0.286606 0.428265,-0.364602 0.723051,-0.651871 0.0682,-0.06647 0.135772,-0.133718 0.199125,-0.204755 0.05874,-0.06586 0.0625,-0.05703 0.04836,-0.10685 0.128954,-0.270455 0.337891,-0.48593 0.508269,-0.728469 0.02669,-0.03799 0.04881,-0.07891 0.07324,-0.118357 0.04305,-0.06024 0.08606,-0.120442 0.129105,-0.180679 0.02108,-0.0269 0.220454,-0.282811 0.249523,-0.314589 0.01892,-0.02068 0.03899,-0.04022 0.05876,-0.06009 0.01948,-0.0314 0.03928,-0.06263 0.05833,-0.09428 0.03844,-0.06388 0.07755,-0.127453 0.112162,-0.193463 0.02302,-0.0439 0.04077,-0.0904 0.06059,-0.135828 0.08179,-0.187422 0.156195,-0.377581 0.236119,-0.565793 0.02513,-0.05867 0.04937,-0.117705 0.07538,-0.175991 0.06011,-0.134669 0.101884,-0.213512 0.158378,-0.346975 0.03831,-0.05934 0.04378,-0.130341 0.06938,-0.194102 0.01649,-0.04108 0.03449,-0.08159 0.05265,-0.121979 0.0033,-0.09218 0.0277,-0.153901 0.122992,-0.367004 0.189842,-0.263872 0.245462,-0.3273 0.468594,-0.50443 0.0063,-0.02543 0.0095,-0.02524 0.10723,-0.215409 0.0072,-0.0079 0.02075,-0.03466 0.02166,-0.02397 5.49e-4,0.0063 -3e-6,0.01229 -7.53e-4,0.01843 1.65e-4,-2.72e-4 2.75e-4,-4.91e-4 4.4e-4,-7.47e-4 0.01655,-0.134114 0.02159,-0.235028 0.06959,-0.39534 0.02628,-0.05686 0.05181,-0.114043 0.0786,-0.170665 0.0043,-0.03159 0.0087,-0.06316 0.01212,-0.09481 0.02204,-0.06264 0.04282,-0.125747 0.06616,-0.187923 0.002,-0.0055 -0.0013,0.01151 -0.002,0.01726 0.0075,-0.02085 0.01498,-0.04168 0.02252,-0.06253 0.05325,-0.170559 0.09795,-0.344484 0.173391,-0.507414 0.05735,-0.0885 0.01362,-0.01249 0.06595,-0.211998 0.05164,-0.196905 0.119126,-0.38897 0.192585,-0.578789 0.01382,-0.03578 0.02683,-0.07183 0.0415,-0.107279 0.0098,-0.02358 0.0146,-0.03145 0.01705,-0.03037 5.49e-4,-0.06362 4.1e-5,-0.118066 -0.0049,-0.05465 -0.0073,-0.280533 -0.01657,-0.377572 0.147012,-0.45191 -0.01475,-1.1e-4 -0.02957,-6.44e-4 -0.04429,-6.38e-4 -0.01144,1e-6 0.05697,-0.102224 0.0208,-0.02706 0.07238,-0.165397 0.145873,-0.329042 0.213173,-0.496654 0.02277,-0.0567 0.184853,-0.464646 0.196552,-0.490261 0.04449,-0.0974 0.09713,-0.190909 0.145726,-0.286359 0.05075,-0.081 0.09984,-0.163061 0.152266,-0.243 0.02959,-0.04511 0.06391,-0.08702 0.09372,-0.131993 0.105928,-0.159809 0.198233,-0.328902 0.263679,-0.509118 0.03645,-0.08002 0.06982,-0.161575 0.109374,-0.240123 0.175379,-0.348288 0.421601,-0.657301 0.606063,-1.000552 0.155464,-0.250275 0.238764,-0.38711 0.397072,-0.627368 0.0055,-0.01537 0.01342,-0.03524 0.01823,-0.04922 0.0826,-0.240119 0.151414,-0.484796 0.232581,-0.725484 0.01378,-0.05431 0.02935,-0.108158 0.04128,-0.162887 0.01036,-0.0475 0.01427,-0.09631 0.02552,-0.143605 0.03264,-0.137139 0.08269,-0.270082 0.110128,-0.408339 0.0056,-0.02823 0.0032,-0.05755 0.0061,-0.08618 0.0052,-0.05034 0.01209,-0.100499 0.01812,-0.150744 0.0081,-0.06242 0.01815,-0.124526 0.02885,-0.186537 0,-0.137659 -5.49e-4,-0.275367 0,-0.413025 5.49e-4,-0.422751 -0.0021,-0.845413 -0.0018,-1.268161 5.49e-4,-0.03026 7.14e-4,-0.06051 10e-4,-0.09076 -0.0074,-0.03664 -0.01426,-0.0732 -0.02113,-0.109302 -0.04609,-0.221761 -0.01228,-0.447848 -0.01877,-0.671366 -0.0051,-0.176421 -0.02942,-0.339337 -0.05051,-0.515296 -0.04534,-0.318221 -0.04715,-0.637751 -0.04,-0.957512 -0.03986,-0.284141 -0.0059,-0.07944 -0.02134,-0.297971 -0.009,-0.127555 -0.04102,-0.255502 -0.02863,-0.383729 -0.01275,-0.181392 0.0015,-0.01122 -0.03388,-0.279007 -0.04415,-0.333659 -0.106612,-0.665545 -0.116881,-1.003001 -0.007,-0.123291 -0.01748,-0.246443 -0.02102,-0.36988 -0.0035,-0.12204 -1.1e-5,-0.244171 0,-0.366259 5.1e-5,-0.548186 3.85e-4,-1.096352 2.2e-4,-1.644538 -5.5e-5,-0.113206 -3.84e-4,-0.226415 -6.42e-4,-0.339625 -0.0128,-0.06657 -0.02596,-0.133076 -0.03753,-0.199854 -0.01435,-0.08283 -0.02276,-0.166645 -0.03935,-0.249073 -0.02723,-0.135276 -0.08629,-0.263746 -0.124601,-0.395874 -0.02009,-0.06928 -0.03682,-0.139495 -0.05522,-0.209229 -0.09417,-0.360786 -0.22873,-0.709019 -0.332306,-1.067133 -0.173909,-0.60129 -0.02602,-0.158008 -0.185293,-0.615756 -0.06829,-0.284507 -0.187187,-0.552248 -0.267538,-0.83319 -0.06851,-0.239556 -0.01716,-0.08988 -0.05769,-0.20486 -0.01398,-0.07012 -0.02441,-0.141073 -0.04193,-0.210403 -0.0049,-0.0196 0.01156,0.07928 0.0041,0.06051 -0.01108,-0.02777 -0.07783,-0.267026 -0.089,-0.319703 -0.04645,-0.219075 -0.0072,-0.121592 -0.03903,-0.197938 -0.0094,-0.0089 -0.03807,-0.108876 -0.05887,-0.200279 -0.07806,-0.180454 -0.114222,-0.237825 -0.14669,-0.429752 -0.01277,-0.07549 -0.01388,-0.152645 -0.02691,-0.228086 -0.0017,-0.0095 -0.01232,-0.01534 -0.01662,-0.02407 -0.02589,-0.05254 -0.04561,-0.107891 -0.06841,-0.161823 -0.0209,-0.05898 -0.04165,-0.118026 -0.06273,-0.17695 -0.02955,-0.08259 -0.05533,-0.145905 -0.07238,-0.227873 -0.04839,-0.05754 -0.0972,-0.117228 -0.151624,-0.188455 -0.191505,-0.250634 -0.201435,-0.290656 -0.377555,-0.550133 -0.696083,-1.025532 0.219535,0.346151 -0.470954,-0.692353 -0.266711,-0.418104 -0.05507,-0.09878 -0.340454,-0.497185 -0.0402,-0.05612 -0.07682,-0.114759 -0.117631,-0.170453 -0.06375,-0.087 -0.133971,-0.169282 -0.196016,-0.257488 -0.05369,-0.07633 -0.100946,-0.156875 -0.149157,-0.23682 -0.04372,-0.04164 -0.07458,-0.07047 -0.21714,-0.210083 -0.05495,-0.05382 -0.106111,-0.111241 -0.159129,-0.166935 -0.180791,-0.189917 -0.360553,-0.381023 -0.501622,-0.603293 -0.02596,-0.03542 -0.05071,-0.07173 -0.07763,-0.106425 -0.09606,-0.0238 -0.200559,-0.07791 -0.29306,-0.143819 -0.0015,0.0038 -0.01544,-0.008 -0.03035,-0.0211 -0.027,-0.02066 -0.05254,-0.0422 -0.07613,-0.06435 -0.0313,-0.0092 -0.170355,-0.146187 -0.128461,-0.119848 0.0057,0.0036 0.03307,0.02372 0.04975,0.03568 -0.0047,-0.0043 -0.01157,-0.01139 -0.01555,-0.01481 0.01731,0.01294 -0.0023,-0.0017 0.01308,0.0098 -0.01554,-0.02047 -0.02929,-0.04088 -0.03978,-0.06083 -0.0271,-0.05151 0.03127,-0.0044 0.09597,0.06243 -0.09241,-0.23183 -0.211991,-0.453162 -0.336915,-0.669448 -0.03104,-0.05374 0.01515,0.198759 0.01137,0.185472 0.04086,0.08923 0.08363,0.177641 0.122563,0.267716 0.0051,0.01176 -0.01301,-0.02219 -0.0208,-0.03238 -0.03419,-0.04471 -0.07077,-0.0875 -0.104977,-0.132206 -0.115051,-0.150366 -0.223561,-0.305956 -0.352465,-0.445519 -0.103813,-0.120794 -0.267928,-0.310411 -0.364902,-0.429538 -0.05874,-0.07216 -0.113218,-0.147704 -0.172318,-0.219563 -0.08685,-0.105593 -0.18124,-0.205052 -0.265395,-0.312778 -0.172514,-0.220833 -0.285334,-0.406503 -0.436317,-0.640365 -0.05366,-0.09936 -0.111222,-0.196715 -0.160952,-0.298077 -0.03496,-0.07127 -0.06215,-0.146071 -0.09286,-0.219243 -0.07503,-0.178751 -0.152961,-0.356339 -0.223681,-0.536817 -0.334867,-0.854584 0.105833,0.212158 -0.267002,-0.678184 -0.07155,-0.171981 -0.146744,-0.340688 -0.198804,-0.519238 -0.04664,-0.15998 -0.335659,-0.255011 -0.155376,-0.478331 0.118319,-0.146562 0.268845,-0.258575 0.43042,-0.3588 0.0082,-0.05244 0.0204,-0.100347 0.03753,-0.142966 A 27.999846,27.8177 0 0 0 30.999846,31.36218 Z m 21.646695,13.244194 c 0.0012,0.0011 0.0027,0.0027 0.004,0.0039 -5.49e-4,-6.6e-4 -8.73e-4,-0.0014 -0.0014,-0.002 -8.79e-4,-6.33e-4 -0.0017,-0.0012 -0.0026,-0.0018 z m 0.004,0.0039 c 0.02134,0.02701 0.04667,0.05399 0.07474,0.08033 0.0035,9.93e-4 0.0066,0.0015 0.007,-0.0011 -0.02995,-0.02985 -0.0578,-0.057 -0.08171,-0.07926 z M 29.845625,85.569302 c -0.02445,1.09e-4 -0.0489,-2.1e-5 -0.07335,1.09e-4 0.02811,0.02324 0.05631,0.06017 0.0846,0.11335 -4.39e-4,-0.04353 -0.0044,-0.0811 -0.01126,-0.113457 z m -0.07335,1.09e-4 c -0.05239,-0.04331 -0.104439,-0.03848 -0.156233,9.6e-4 0.01265,-2.72e-4 0.02532,-6.88e-4 0.03796,-7.47e-4 0.03942,-2.19e-4 0.07885,-2e-6 0.118274,-2.19e-4 z m -0.736239,0.271019 c -0.02714,-0.0046 -0.05427,-0.0091 -0.08139,-0.01385 -0.01066,0.01181 -0.02054,0.02246 -0.03185,0.03494 0.0103,-5.45e-4 0.02057,-0.0015 0.03088,-0.0016 0.02338,0 0.04668,9.94e-4 0.07002,0.0012 0.0041,-0.0068 0.0083,-0.01402 0.01233,-0.02067 z m -8.811181,-2.057461 c -0.0026,-8.89e-4 -0.0065,-0.0018 -0.0093,-0.0027 0.01,0.004 0.01835,0.0075 0.03056,0.01182 0.0073,0.0026 -0.0095,-0.0044 -0.02123,-0.0091 z m -0.0093,-0.0027 c -0.0021,-8.14e-4 -0.0044,-0.0017 -0.0063,-0.0025 -0.0021,-4.91e-4 -0.0057,-0.0012 -0.008,-0.0017 0.0049,0.0014 0.01,0.0028 0.01437,0.0042 z M 13.34116,79.737387 c -0.0013,0.0012 -0.0026,0.0024 -0.0039,0.0036 0.0031,0.0035 0.0063,0.0076 0.0094,0.0113 0.02457,0.02261 0.04965,0.04466 0.07453,0.0669 0.0019,1.09e-4 0.006,3.28e-4 0.0078,4.36e-4 -0.02438,-0.02331 -0.05318,-0.05013 -0.08793,-0.08225 z m -0.0039,0.0036 c -0.01803,-0.02042 -0.03578,-0.03874 -0.05233,-0.05199 -0.03276,-0.02621 -0.06905,-0.04629 -0.107337,-0.06307 0.03167,0.01913 0.06167,0.03696 0.08235,0.04687 0.02548,0.02302 0.05066,0.04631 0.07592,0.06957 4.39e-4,-4.91e-4 9.22e-4,-9.16e-4 0.0014,-0.0014 z m -0.159665,-0.115054 c -0.03717,-0.02245 -0.076,-0.04622 -0.104977,-0.06179 0.003,0.0039 0.007,0.0088 0.01029,0.01311 0.0085,0.0075 0.01608,0.01442 0.02434,0.02184 0.02392,0.0081 0.04753,0.01685 0.07034,0.02685 z m -0.350519,-0.139811 c -0.0032,0.002 -0.0063,0.004 -0.0094,0.006 0.0038,0.0025 0.0081,0.0052 0.01544,0.0089 0.05714,0.02997 0.119966,0.04948 0.182826,0.06871 -0.04646,-0.02712 -0.07983,-0.0453 -0.107014,-0.06009 -0.03139,-0.0097 -0.06386,-0.01985 -0.08182,-0.02354 z M 49.913467,39.637178 c -0.02751,-0.01403 0.04215,0.263178 0.08257,0.265159 -0.01998,-0.04413 -0.03995,-0.09558 -0.06048,-0.163846 -0.003,-0.03939 -0.004,-0.04976 -0.0065,-0.08172 -0.0029,-0.0041 -0.0049,-0.0072 -0.0078,-0.0114 -0.0032,-0.0045 -0.0057,-0.0072 -0.0077,-0.0082 z m 0.159774,0.427408 c -0.01615,-0.01521 0.02158,0.02495 0.05061,0.05497 -8.45e-4,-0.0027 -0.0015,-0.0042 -0.0024,-0.007 -0.01597,-0.01614 -0.03173,-0.03248 -0.04825,-0.04804 z m 0.06541,0.06744 c 4.5e-5,5.5e-5 9.01e-4,4.36e-4 9.66e-4,5.46e-4 -1.09e-4,-1.64e-4 -2.74e-4,-2.74e-4 -4.39e-4,-4.37e-4 2.7e-5,5.3e-5 -5.76e-4,-1.64e-4 -5.49e-4,-1.09e-4 z m 5.16644,7.301827 c -0.0026,0.02414 0.02637,0.06345 0.04782,0.09865 -0.0021,-0.0056 -0.0041,-0.01028 -0.0062,-0.01609 -0.01494,-0.02704 -0.02935,-0.05429 -0.0416,-0.08255 z m 0.23226,22.442935 c -0.07768,0.01322 -0.15893,0.02823 -0.249095,0.04773 -0.07302,0.01579 0.01088,0.136866 0.103154,0.199427 0.0503,-0.08147 0.100762,-0.162931 0.145941,-0.247157 z m -0.951665,1.574761 c -0.0018,0.0046 -0.0046,0.01104 -0.0057,0.01428 -0.0026,0.0077 -0.0064,0.03163 -0.0039,0.02398 0.0028,-0.0083 0.0062,-0.02408 0.0095,-0.03824 z m -0.865237,1.709841 c -0.0074,0.107958 0.0091,0.361575 0.0083,0.27038 -0.0013,-0.130321 -0.0063,-0.209289 -0.0083,-0.27038 z m -40.020844,7.186559 c 7.3e-4,0.0027 0.0013,0.0049 0.002,0.0076 0.0055,0.0089 0.0109,0.01786 0.01641,0.02674 -1.1e-4,-3.28e-4 -2.19e-4,-7.16e-4 -3.29e-4,-0.0011 -0.0066,-0.01215 -0.01207,-0.02211 -0.01812,-0.03324 z m 2.724388,0.951973 c 0.02356,0.01722 0.03538,0.02665 0.07506,0.05454 0.0053,0.0037 -0.0047,-0.01275 -0.01,-0.01641 -0.02069,-0.01426 -0.04311,-0.02589 -0.06509,-0.03814 z m -0.125352,0.761919 c 0.0062,0.0097 0.0123,0.01951 0.01802,0.0295 0.0094,0.0083 0.0234,0.02104 0.02885,0.02558 0.0026,8.02e-4 0.01038,0.0032 0.01287,0.004 -0.01358,-0.01402 -0.03399,-0.03408 -0.05973,-0.05901 z m 0.06316,0.09311 c 2.74e-4,2.73e-4 5.87e-4,4.91e-4 8.56e-4,7.47e-4 7.63e-4,2.74e-4 9.72e-4,3.83e-4 0.0017,6.39e-4 -4.94e-4,-3.28e-4 -9.17e-4,-7.25e-4 -0.0014,-0.0011 -4.4e-4,-1.64e-4 -7.63e-4,-1.64e-4 -0.0012,-3.27e-4 z m 5.156466,1.933667 c 0.0068,0.0022 0.0088,0.0031 0.0163,0.0056 0.0071,0.0023 0.02936,0.0047 0.0222,0.0026 -0.0084,-0.0025 -0.02431,-0.0054 -0.0385,-0.0081 z m 1.764789,0.54193 c -0.0015,-3.82e-4 -6.1e-4,4.36e-4 0.0036,0.0029 0.005,0.0029 0.0102,0.0055 0.01523,0.0083 0.0306,0.01374 0.06109,0.02778 0.092,0.0408 0.0317,0.01336 -0.100209,-0.04926 -0.110875,-0.05199 z m 3.205634,0.872605 c 0.0071,0.0011 0.01624,0.0031 0.02059,0.0049 0.0019,8.17e-4 -0.0053,0.0052 -0.0032,0.0053 0.04902,0.002 0.0619,0.0017 0.09093,0.0024 -0.02018,-0.01951 -0.07273,-0.0077 -0.108302,-0.01247 z" />
      <ellipse
         style="color:#000000;display:inline;overflow:visible;visibility:visible;fill:url(#linearGradient5473);fill-opacity:1;fill-rule:nonzero;stroke:none;stroke-width:2.36719;marker:none;enable-background:accumulate"
         id="path4188-6"
         cx="30.999846"
         cy="59.179878"
         rx="25.999857"
         ry="25.830721" />
      <ellipse
         style="color:#000000;display:inline;overflow:visible;visibility:visible;opacity:0.2;fill:url(#radialGradient6921);fill-opacity:1;fill-rule:nonzero;stroke:none;stroke-width:2.35182;stroke-miterlimit:4;stroke-dasharray:none;marker:none;enable-background:accumulate"
         id="path4188-6-4"
         cx="31.439058"
         cy="60.925304"
         rx="25.831232"
         ry="25.663193" />
      <path
         style="opacity:0.15;fill:#000000;fill-opacity:1;stroke-width:16.6667;filter:url(#filter1252)"
         id="path1238"
         d="M 520,372.36218 V 472.36219 L 653.33333,339.02885 520,205.69551 v 100.00001 c -147.33334,0 -266.66667,119.33333 -266.66667,266.66667 0,52.33333 15.33333,100.83333 41.33333,142 l 48.66667,-48.66667 c -14.83334,-27.83333 -23.33334,-59.5 -23.33334,-93.33333 0,-110.5 89.50001,-200.00001 200.00001,-200.00001 z m 225.33334,58.00001 -48.66667,48.66666 C 711.5,506.86219 720,538.52885 720,572.36219 c 0,110.5 -89.5,200 -200,200 v -100 L 386.66666,805.69553 520,939.02886 v -100 c 147.33333,0 266.66667,-119.33334 266.66667,-266.66667 0,-52.33334 -15.33333,-100.83334 -41.33333,-142 z"
         inkscape:connector-curvature="0"
         transform="matrix(0.05490166,0,0,0.05454451,2.8901967,29.706089)" />
      <path
         inkscape:connector-curvature="0"
         d="m 31.43906,48.925512 v 5.454451 L 38.759281,47.107361 31.43906,39.83476 v 5.454451 c -8.088846,0 -14.640443,6.508978 -14.640443,14.545203 0,2.854497 0.841826,5.499905 2.269268,7.745321 l 2.671881,-2.6545 c -0.814374,-1.518155 -1.281039,-3.245398 -1.281039,-5.090821 0,-6.027168 4.913699,-10.908902 10.980333,-10.908902 z m 12.371174,3.163582 -2.671881,2.654499 c 0.814374,1.518157 1.281039,3.245398 1.281039,5.090821 0,6.027169 -4.913699,10.908902 -10.980332,10.908902 v -5.454451 l -7.320222,7.272602 7.320222,7.272601 v -5.454451 c 8.088843,0 14.640442,-6.508978 14.640442,-14.545203 0,-2.854496 -0.841825,-5.499905 -2.269268,-7.74532 z"
         id="path1204"
         style="fill:url(#linearGradient1236);fill-opacity:1;stroke-width:0.912049" />
      <path
         style="color:#000000;display:inline;overflow:visible;visibility:visible;fill:url(#linearGradient946);fill-opacity:1;fill-rule:nonzero;stroke:none;stroke-width:2.54927;marker:none;enable-background:accumulate"
         d="M 50.055226,38.845323 12.219618,79.769153 A 27.999846,27.8177 0 0 0 30.999846,86.99758 27.999846,27.8177 0 0 0 58.999693,59.17988 27.999846,27.8177 0 0 0 50.055226,38.845323 Z"
         id="circle944" />
      <ellipse
         cy="59.356964"
         cx="30.999846"
         id="circle965"
         style="display:inline;opacity:0.02;fill:#000000;fill-opacity:1;fill-rule:nonzero;stroke:#ffffff;stroke-width:3.28705;stroke-linecap:round;stroke-linejoin:miter;stroke-miterlimit:0;stroke-dasharray:none;stroke-opacity:1;paint-order:stroke fill markers"
         rx="26.350945"
         ry="26.356609" />
      <text
         xml:space="preserve"
         style="font-size:14.6898px;font-family:'Blush Asliring';-inkscape-font-specification:'Blush Asliring';text-align:start;writing-mode:lr-tb;direction:ltr;text-anchor:start;fill:#c6afe9;fill-opacity:1;stroke:#c6afe9;stroke-width:0;stroke-linecap:round;stroke-linejoin:round;stroke-dasharray:none;stroke-opacity:1;paint-order:fill markers stroke"
         x="-40.441959"
         y="80.518875"
         id="text10"
         transform="matrix(0.66272944,-0.74831824,0.75321812,0.65841823,0,0)"
         inkscape:transform-center-x="2.8076965"
         inkscape:transform-center-y="-5.7590511"><tspan
           sodipodi:role="line"
           id="tspan10"
           x="-40.441959"
           y="80.518875"
           style="stroke:#c6afe9;stroke-width:0;stroke-opacity:1">LIVE</tspan></text>
    </g>
  </g>
</svg>
