<?xml version="1.0" encoding="UTF-8" standalone="no"?>
<svg
   clip-rule="evenodd"
   fill-rule="evenodd"
   stroke-linejoin="round"
   stroke-miterlimit="2"
   viewBox="0 0 62 62"
   version="1.1"
   id="svg2"
   sodipodi:docname="localsend.svg"
   width="62"
   height="62"
   inkscape:version="1.4 (e7c3feb100, 2024-10-09)"
   xmlns:inkscape="http://www.inkscape.org/namespaces/inkscape"
   xmlns:sodipodi="http://sodipodi.sourceforge.net/DTD/sodipodi-0.dtd"
   xmlns:xlink="http://www.w3.org/1999/xlink"
   xmlns="http://www.w3.org/2000/svg"
   xmlns:svg="http://www.w3.org/2000/svg">
  <defs
     id="defs2">
    <linearGradient
       id="linearGradient2"
       inkscape:collect="always">
      <stop
         style="stop-color:#006480;stop-opacity:1;"
         offset="0"
         id="stop3" />
      <stop
         style="stop-color:#00a0cc;stop-opacity:1;"
         offset="1"
         id="stop4" />
    </linearGradient>
    <linearGradient
       inkscape:collect="always"
       xlink:href="#linearGradient2"
       id="linearGradient4"
       x1="31.242657"
       y1="59"
       x2="31.002613"
       y2="12.895323"
       gradientUnits="userSpaceOnUse" />
  </defs>
  <sodipodi:namedview
     id="namedview2"
     pagecolor="#ffffff"
     bordercolor="#000000"
     borderopacity="0.25"
     inkscape:showpageshadow="2"
     inkscape:pageopacity="0.0"
     inkscape:pagecheckerboard="0"
     inkscape:deskcolor="#d1d1d1"
     inkscape:zoom="8.0729167"
     inkscape:cx="22.606452"
     inkscape:cy="33.135484"
     inkscape:window-width="1920"
     inkscape:window-height="998"
     inkscape:window-x="0"
     inkscape:window-y="0"
     inkscape:window-maximized="1"
     inkscape:current-layer="svg2" />
  <linearGradient
     id="a"
     x2="1"
     gradientTransform="matrix(0,-32.747288,32.747288,0,905.19201,46.99373)"
     gradientUnits="userSpaceOnUse">
    <stop
       stop-color="#006783"
       offset="0"
       id="stop1" />
    <stop
       stop-color="#13bee3"
       offset="1"
       id="stop2" />
  </linearGradient>
  <path
     d="m 31.002614,12.895323 c 9.994136,0 18.107143,8.113007 18.107143,18.107142 0,9.994136 -8.113007,18.107143 -18.107143,18.107143 -9.994136,0 -18.107142,-8.113007 -18.107142,-18.107143 0,-9.994135 8.113006,-18.107142 18.107142,-18.107142 z M 4.4364046,39.845532 C 4.1532637,38.992408 3.9089852,38.117077 3.7044944,37.222314 2.5885859,32.324715 2.8337897,27.431744 4.1902755,22.94035 c 1.3999749,0.347912 3.2385405,1.983838 2.9655778,3.359755 -0.3266299,1.645178 -0.4839304,3.338473 -0.4580221,5.055824 0.025908,1.666461 0.2248472,3.356053 0.6097708,5.045646 0.3118252,1.36759 -1.4804756,3.057182 -2.8711974,3.443957 z M 57.723348,39.350497 c -1.398123,-0.360865 -3.220034,-2.016222 -2.934116,-3.389364 0.353464,-1.696995 0.520942,-3.389363 0.51539,-5.056749 -0.0055,-1.717351 -0.194312,-3.406945 -0.551477,-5.046571 -0.297946,-1.370366 1.509159,-3.039602 2.902657,-3.414347 1.439763,4.46641 1.775645,9.35383 0.750417,14.270859 -0.186911,0.898464 -0.41546,1.777496 -0.682871,2.636172 z M 22.42881,4.3483523 C 23.28471,4.073539 24.161892,3.8375882 25.058504,3.6432757 29.967206,2.576408 34.857403,2.8706525 39.334917,4.2734032 38.973125,5.6696768 37.318693,7.4906619 35.945553,7.204745 34.303149,6.8614597 32.611706,6.6865786 30.895279,6.6958315 29.227894,6.7041592 27.53645,6.8855175 25.843157,7.2537858 24.471866,7.5517315 22.801704,5.7427753 22.42881,4.3483523 Z M 22.41308,57.647326 c 0.37382,-1.395348 2.045832,-3.202454 3.416197,-2.904508 1.693294,0.369194 3.384737,0.551477 5.052124,0.561656 1.716425,0.0092 3.407869,-0.163778 5.051197,-0.506138 1.372216,-0.285918 3.025723,1.536918 3.387513,2.933191 -4.478439,1.399976 -9.368634,1.691444 -14.277336,0.621801 -0.896613,-0.195237 -1.772871,-0.431189 -2.629695,-0.706002 z M 55.981014,43.65313 c -0.407131,0.802233 -0.8559,1.591511 -1.348157,2.365985 -2.694466,4.239712 -6.342913,7.508787 -10.489171,9.705443 -0.737462,-1.238973 -0.868854,-3.696563 0.299797,-4.471036 1.399049,-0.926223 2.712971,-2.006045 3.914007,-3.232989 1.1668,-1.190857 2.22719,-2.520509 3.156188,-3.983405 0.752267,-1.18438 3.213558,-1.100178 4.467336,-0.383998 z M 17.823605,6.3035054 c 0.743014,1.2389731 0.879958,3.6965626 -0.287767,4.4747376 -1.442539,0.960459 -2.749984,2.048608 -3.915858,3.240391 -1.201036,1.226944 -2.252173,2.563999 -3.148787,3.982479 -0.748565,1.185306 -3.2080052,1.106656 -4.4627083,0.395103 2.1078272,-4.191597 5.2982523,-7.909442 9.4787443,-10.6936611 0.764296,-0.5079882 1.543397,-0.974338 2.336376,-1.3990495 z M 43.821683,6.1101183 c 0.798531,0.4117573 1.585034,0.8670035 2.355807,1.3638882 4.222131,2.7231495 7.466224,6.3938035 9.63512,10.5539405 -1.244525,0.729134 -3.702114,0.843871 -4.46826,-0.330331 C 50.42738,16.293014 49.355886,14.97169 48.137269,13.762327 46.953814,12.588124 45.631564,11.518481 44.175146,10.579304 42.995392,9.8187098 43.097176,7.3583443 43.821683,6.1101183 Z M 6.2157513,44.014921 c 1.2435995,-0.734686 3.7021144,-0.854975 4.4719617,0.318302 0.951206,1.449016 2.031027,2.762937 3.214482,3.937141 1.219542,1.209363 2.548269,2.268828 3.961198,3.174694 1.179754,0.756893 1.084449,3.216334 0.365493,4.46641 C 14.051168,53.775882 10.355531,50.560473 7.5990707,46.36055 7.095709,45.593478 6.634911,44.810676 6.2157513,44.014921 Z"
     id="path2"
     style="fill:url(#linearGradient4);stroke-width:0.925297;fill-opacity:1" />
</svg>
