<?xml version="1.0" encoding="UTF-8" standalone="no"?>
<svg
   width="62"
   height="62"
   version="1"
   id="svg5"
   sodipodi:docname="luckyBackup.svg"
   inkscape:version="1.4 (e7c3feb100, 2024-10-09)"
   xmlns:inkscape="http://www.inkscape.org/namespaces/inkscape"
   xmlns:sodipodi="http://sodipodi.sourceforge.net/DTD/sodipodi-0.dtd"
   xmlns="http://www.w3.org/2000/svg"
   xmlns:svg="http://www.w3.org/2000/svg">
  <defs
     id="defs5" />
  <sodipodi:namedview
     id="namedview5"
     pagecolor="#ffffff"
     bordercolor="#000000"
     borderopacity="0.25"
     inkscape:showpageshadow="2"
     inkscape:pageopacity="0.0"
     inkscape:pagecheckerboard="0"
     inkscape:deskcolor="#d1d1d1"
     inkscape:zoom="12.109375"
     inkscape:cx="32"
     inkscape:cy="33.156129"
     inkscape:window-width="1920"
     inkscape:window-height="998"
     inkscape:window-x="0"
     inkscape:window-y="0"
     inkscape:window-maximized="1"
     inkscape:current-layer="svg5" />
  <g
     id="g6"
     transform="translate(-0.50000001,-0.99999994)">
    <path
       style="opacity:0.2;stroke-width:0.982303"
       d="M 58.689242,36.42105 C 56.789292,49.780799 45.396819,60 31.499999,60 23.001392,60 15.416839,56.130644 10.37242,50.071822 L 6.8274972,53.617876 A 1.6575772,1.6581059 0 0 1 5.6343467,54.10526 1.6575772,1.6581059 0 0 1 4,52.44737 V 38.07895 a 1.6575772,1.6581059 0 0 1 1.6573664,-1.6579 H 16.307475 20.02121 a 1.6575772,1.6581059 0 0 1 1.173966,2.8284 l -2.416993,2.417764 c 0.114813,0.15943 0.224844,0.321212 0.345282,0.475874 0.212844,0.272654 0.437548,0.536592 0.667553,0.794414 0.07524,0.08448 0.145533,0.17434 0.222513,0.257129 0.192858,0.207327 0.39891,0.402343 0.602328,0.598679 0.217972,0.210106 0.441604,0.412856 0.671389,0.6102 0.199487,0.17146 0.394575,0.345358 0.60233,0.506574 0.01,0.008 0.02055,0.0151 0.0307,0.02304 0.380648,0.29372 0.778293,0.566688 1.185481,0.825114 0.214004,0.13593 0.431617,0.265864 0.652206,0.391448 0.370762,0.210792 0.750631,0.402626 1.139433,0.58333 0.245844,0.11457 0.495944,0.220422 0.748119,0.322364 0.398008,0.16024 0.802804,0.30585 1.216172,0.433666 0.193871,0.0603 0.386375,0.12363 0.583147,0.17653 0.538598,0.14365 1.089968,0.263014 1.649691,0.34923 0.172485,0.0269 0.347688,0.044 0.521764,0.0652 0.619604,0.07433 1.244085,0.130494 1.883707,0.130494 7.1615,-0.0052 13.413664,-4.853176 15.204029,-11.78948 z"
       id="path1" />
    <ellipse
       style="fill:#ffffff;stroke-width:0.982303"
       cx="31.499998"
       cy="31.508768"
       id="circle1"
       rx="21.607138"
       ry="21.614029" />
    <path
       style="opacity:0.1;stroke-width:0.982303"
       d="m 31.499999,4.982456 c 8.497852,0 16.086992,3.8626186 21.131415,9.9205 l 3.54109,-3.542208 a 1.6575772,1.6581059 0 0 1 1.193154,-0.483558 1.6575772,1.6581059 0 0 1 1.634341,1.6579 V 26.90351 A 1.6575772,1.6581059 0 0 1 57.342637,28.5614 H 42.978798 a 1.6575772,1.6581059 0 0 1 -1.173967,-2.828396 l 2.41315,-2.413922 c -0.02113,-0.02934 -0.0362,-0.06298 -0.05758,-0.09214 C 43.952806,22.942796 43.7374,22.666608 43.51203,22.397992 43.225366,22.057004 42.924642,21.7309 42.61046,21.415542 42.442829,21.247052 42.278947,21.07338 42.104043,20.912804 41.694496,20.537348 41.258837,20.188232 40.811148,19.857426 40.61588,19.713074 40.418305,19.570504 40.216489,19.435278 39.74981,19.12284 39.26649,18.837564 38.76629,18.575628 38.560511,18.467676 38.351714,18.363675 38.140944,18.264771 37.608171,18.015481 37.062233,17.790054 36.498929,17.60085 36.322195,17.5412 36.141085,17.493136 35.961814,17.439668 35.340878,17.255704 34.709322,17.093483 34.058911,16.98681 33.952765,16.96917 33.843428,16.9639 33.73665,16.94845 33.004543,16.84385 32.260987,16.7719 31.499969,16.7719 24.338479,16.7771 18.086313,21.625076 16.29594,28.56137 H 4.3107559 C 6.2107069,15.201656 17.603183,4.982456 31.499999,4.982456 Z"
       id="path2" />
    <g
       id="g5"
       transform="matrix(0.98214286,0,0,0.9824561,0.07142842,0.07017547)">
      <path
         style="fill:#48a9ff"
         d="m 32,4 c 8.652352,0 16.379482,3.9315936 21.515624,10.097656 l 3.60547,-3.605468 A 1.6877149,1.6877149 0 0 1 58.335938,10 1.6877149,1.6877149 0 0 1 60,11.6875 v 14.625 A 1.6877149,1.6877149 0 0 1 58.3125,28 h -14.625 a 1.6877149,1.6877149 0 0 1 -1.195312,-2.878906 l 2.45703,-2.457032 c -0.02154,-0.02984 -0.03684,-0.06408 -0.0586,-0.09374 -0.21137,-0.289226 -0.430694,-0.570344 -0.660156,-0.84375 -0.291876,-0.347078 -0.598066,-0.679012 -0.917968,-1 -0.170674,-0.1715 -0.337538,-0.348272 -0.515618,-0.511718 -0.416998,-0.382157 -0.860576,-0.737502 -1.316408,-1.074219 -0.19882,-0.14693 -0.399982,-0.292041 -0.605468,-0.429687 -0.475168,-0.318019 -0.967272,-0.608384 -1.476562,-0.875 -0.209524,-0.109882 -0.422118,-0.215743 -0.63672,-0.316407 -0.542458,-0.25374 -1.09832,-0.483197 -1.671874,-0.675781 -0.17994,-0.06075 -0.364348,-0.109634 -0.546876,-0.164062 -0.632224,-0.187244 -1.275262,-0.352365 -1.9375,-0.460938 C 34.497388,16.20082 34.386066,16.19545 34.277344,16.1797 33.531924,16.07323 32.77485,16 32,16 24.708296,16.00522 18.342456,20.939836 16.519532,28 H 4.316406 C 6.250902,14.401686 17.850512,4 32,4 Z"
         id="path3" />
    </g>
    <path
       style="fill:#486afb;stroke-width:0.982303"
       d="m 58.689242,35.4386 c -1.89995,13.359744 -13.292423,23.57894 -27.189243,23.57894 -8.498607,0 -16.08316,-3.86935 -21.127579,-9.928178 L 6.8274972,52.635416 A 1.6575772,1.6581059 0 0 1 5.6343467,53.12281 1.6575772,1.6581059 0 0 1 4,51.46491 V 37.09649 A 1.6575772,1.6581059 0 0 1 5.6573664,35.4386 H 16.307475 20.02121 a 1.6575772,1.6581059 0 0 1 1.173966,2.828396 l -2.416993,2.417761 c 0.114813,0.159437 0.224844,0.321215 0.345282,0.475881 0.212844,0.272654 0.437548,0.536586 0.667553,0.794404 0.07524,0.08448 0.145533,0.17435 0.222513,0.25713 0.192858,0.207336 0.39891,0.402345 0.602328,0.598684 0.217972,0.21011 0.441604,0.41286 0.671389,0.610194 0.199487,0.17146 0.394575,0.345362 0.60233,0.506584 0.01,0.008 0.02055,0.0151 0.0307,0.02304 0.380648,0.293716 0.778293,0.566691 1.185481,0.82511 0.214004,0.13593 0.431617,0.265864 0.652206,0.391448 0.370762,0.210802 0.750631,0.402626 1.139433,0.58333 0.245844,0.11458 0.495944,0.220432 0.748119,0.322374 0.398008,0.16024 0.802804,0.30585 1.216172,0.433656 0.193871,0.0603 0.386375,0.123639 0.583147,0.17653 0.538598,0.14366 1.089968,0.263014 1.649691,0.349234 0.172485,0.0269 0.347688,0.044 0.521764,0.0652 0.619604,0.07433 1.244085,0.130494 1.883707,0.130494 7.1615,-0.0052 13.413664,-4.853176 15.204029,-11.78947 z"
       id="path4" />
    <path
       style="opacity:0.2;fill:#ffffff;stroke-width:0.982303"
       d="M 31.499999,4 C 17.603183,4 6.2107072,14.219196 4.3107561,27.57895 H 4.4738068 C 6.7799388,14.704612 17.946364,4.982456 31.499999,4.982456 c 8.497852,0 16.086993,3.8626188 21.131416,9.9205 l 3.541089,-3.542208 c 0.316347,-0.315406 0.746549,-0.489759 1.193154,-0.483558 0.906286,0.01273 1.634314,0.751234 1.634341,1.6579 v -0.98246 c -2.7e-5,-0.906666 -0.728055,-1.645186 -1.634341,-1.657893 -0.446605,-0.00621 -0.876807,0.168145 -1.193154,0.483551 l -3.541089,3.542218 C 47.586992,7.8626188 39.997851,4 31.499999,4 Z"
       id="path5" />
  </g>
</svg>
