<?xml version="1.0" encoding="UTF-8" standalone="no"?>
<svg
   width="62"
   height="62"
   version="1.1"
   id="svg14"
   sodipodi:docname="lutris.svg"
   inkscape:version="1.4 (e7c3feb100, 2024-10-09)"
   xmlns:inkscape="http://www.inkscape.org/namespaces/inkscape"
   xmlns:sodipodi="http://sodipodi.sourceforge.net/DTD/sodipodi-0.dtd"
   xmlns="http://www.w3.org/2000/svg"
   xmlns:svg="http://www.w3.org/2000/svg">
  <defs
     id="defs14" />
  <sodipodi:namedview
     id="namedview14"
     pagecolor="#ffffff"
     bordercolor="#000000"
     borderopacity="0.25"
     inkscape:showpageshadow="2"
     inkscape:pageopacity="0.0"
     inkscape:pagecheckerboard="0"
     inkscape:deskcolor="#d1d1d1"
     inkscape:zoom="11.6875"
     inkscape:cx="31.957219"
     inkscape:cy="32"
     inkscape:window-width="1920"
     inkscape:window-height="994"
     inkscape:window-x="0"
     inkscape:window-y="0"
     inkscape:window-maximized="1"
     inkscape:current-layer="svg14" />
  <g
     id="g14"
     transform="matrix(0.9996814,0,0,1,-0.49872815,-0.99998905)">
    <path
       style="opacity:0.2;stroke-width:0.982455"
       d="M 30.636322,4.9848792 C 16.245148,4.9719758 4.387605,16.823287 4.0092995,31.773082 3.6245372,46.960171 15.230254,59.593347 29.929813,59.990419 c 7.161385,0.193308 12.751975,-2.553637 17.656297,-7.177904 0.523663,-0.436907 0.808588,-0.709199 0.808588,-0.709199 0,0 5.31829,-5.581786 5.60371,-10.189297 -1.35703,2.241911 -2.601828,4.48662 -5.979798,6.149041 -1.549184,0.71761 -2.969147,1.328158 -4.400227,1.810594 -0.09162,0.02332 -0.183641,0.04496 -0.276694,0.06716 -0.677836,0.161791 -1.388264,0.297686 -2.132955,0.400263 -0.09025,0.01238 -0.182896,0.02336 -0.274006,0.03491 -0.772342,0.09795 -1.569817,0.169275 -2.393532,0.20416 -0.08478,0.0035 -0.172655,0.0025 -0.257888,0.0053 -0.812627,0.0278 -1.643743,0.02537 -2.487553,-0.008 -0.05506,-0.0022 -0.108719,-2.37e-4 -0.163872,-0.0027 -0.858109,-0.03806 -0.746751,-0.11587 -1.618838,-0.217589 -0.124455,-0.01453 -0.248866,-0.02446 -0.373402,-0.0403 -0.848915,-0.107876 -1.697495,-0.250396 -2.541278,-0.41907 -0.136324,-0.02726 -0.27238,-0.05445 -0.408324,-0.08328 -0.82572,-0.175233 -1.644033,-0.380895 -2.447258,-0.615175 -0.257527,-0.0751 -0.514095,-0.152497 -0.768294,-0.233712 -0.19211,-0.06138 -0.384913,-0.120467 -0.574877,-0.18535 -0.271468,-0.09272 -0.53666,-0.192955 -0.803216,-0.292813 -0.217408,-0.08143 -0.436333,-0.160926 -0.650095,-0.247141 -0.247711,-0.09993 -0.488358,-0.20798 -0.730685,-0.314302 -0.20537,-0.09011 -0.414012,-0.176607 -0.615172,-0.271322 -0.43797,-0.206233 -0.868474,-0.421915 -1.28407,-0.650095 -0.330751,-0.182953 -0.645527,-0.374517 -0.945593,-0.574878 -0.68911,-0.460129 -1.290539,-0.967276 -1.8294,-1.498976 -2.805408,-2.862895 -2.67516,-6.229128 -2.527848,-8.41094 0.185605,-2.740598 2.483292,-8.753534 10.044233,-11.938103 4.671595,-1.64948 10.165748,-2.803094 14.758764,-1.324366 3.454971,0.77954 5.939366,1.913069 9.2249,3.073175 0,0 -0.02659,0.05718 0.881116,0.282069 6.389684,1.012169 5.672442,-4.251757 5.672442,-4.251757 l -0.500832,-1.231856 v 0 c -0.11078,-0.64914 0.375435,-1.161092 0.375435,-1.161092 0,0 -0.39385,-1.451532 -0.32747,-2.410826 0.06728,-0.958854 0.01297,-2.187931 -0.196099,-3.940862 C 57.236932,11.863133 56.08635,10.379625 55.713325,10.107143 55.339447,9.8350588 53.597346,8.5217226 51.928268,7.8666481 50.258167,7.2115649 48.570222,6.7274437 46.491112,7.0204501 c -0.230849,0.032642 -0.449353,0.067941 -0.676957,0.1020808 -0.0403,-0.012792 -0.07193,-0.027365 -0.115518,-0.040294 -0.792816,-0.2354496 -1.35364,-2.1091498 -2.001323,-2.0936315 -0.04958,0.00119 -0.09972,0.00542 -0.150433,0.010748 -0.04995,0.00523 -0.101766,0.011907 -0.153126,0.02149 h -0.0027 c -0.05234,0.00977 -0.104395,0.022942 -0.15849,0.037608 -0.05906,0.016034 -0.115968,0.037025 -0.169236,0.061786 C 42.684297,5.2964327 42.452098,7.3356363 42.308528,7.7706277 38.982933,6.0896966 35.264576,5.1018911 31.321349,4.9956302 31.091674,4.9894191 30.864763,4.9850984 30.636332,4.984882 Z M 45.289288,49.368622 c -0.488195,0.18195 -1.018134,0.335914 -1.563451,0.478172 0.545009,-0.14218 1.075581,-0.296355 1.563451,-0.478172 z"
       id="path1" />
    <path
       style="fill:#f8952b;stroke-width:0.982455"
       d="M 34.455667,13.825497 A 20.631107,20.631107 0 0 0 13.82456,34.456605 20.631107,20.631107 0 0 0 34.455667,55.087709 20.631107,20.631107 0 0 0 55.086776,34.456605 20.631107,20.631107 0 0 0 34.455667,13.825497 Z"
       id="path2" />
    <path
       style="fill:#946857;stroke-width:0.982455"
       d="m 34.043499,20.743984 c 2.555603,0.604704 2.832889,3.86181 4.888565,4.655014 2.743019,1.114226 2.976943,-2.373881 1.560729,-4.218322"
       id="path3" />
    <path
       style="opacity:0.2;stroke-width:0.982455"
       d="m 42.243029,12.867248 c -2.878606,-0.0034 -5.999288,0.838885 -8.278484,1.631536 -4.322259,1.529489 -7.017306,2.76727 -10.519462,5.270068 -0.928654,0.674338 -4.577943,3.353808 -6.795297,7.090275 -6.127754,10.833794 -1.792033,22.337184 6.132183,24.951033 8.712206,3.25818 17.051675,4.199201 27.541033,-5.070816 -0.90286,0.722564 0,0 -5.034412,2.623386 -5.933706,2.211383 -15.43404,1.501044 -22.472118,-2.363146 -5.662095,-3.132046 -5.093864,-7.743705 -4.908826,-10.484304 0.185604,-2.740598 2.090287,-8.75456 9.651228,-11.939128 4.671594,-1.649479 10.164774,-2.803011 14.757787,-1.324283 3.454973,0.77954 5.938401,2.190149 9.223932,3.350256 0,0 -0.02706,0.05631 0.880653,0.281226 6.389681,1.012036 6.596279,-4.61116 6.596279,-4.61116 L 58.835339,21.247602 58.279091,19.85742 58.01401,19.261803 57.854126,18.939025 c 0,0 -0.04607,-0.406404 -0.110661,-0.819335 -0.122377,1.543484 -0.737001,2.381566 -0.737001,2.381566 -4.966243,-0.94158 -5.85389,-5.223454 -11.090186,-7.020763 -1.106702,-0.435245 -2.364797,-0.611684 -3.673249,-0.613245 z m 8.079973,33.872096 c 0.578449,-0.462938 0.85869,-0.779257 0.858776,-0.779041 -0.287258,0.268395 -0.573258,0.526716 -0.858776,0.779041 z"
       id="path4" />
    <path
       style="fill:#946857;stroke-width:0.982455"
       d="M 30.636322,4.0012218 C 16.245148,3.9883184 4.387605,15.839629 4.0092995,30.789423 3.6245372,45.976515 15.230254,58.609691 29.929813,59.006763 c 7.161385,0.193306 12.751975,-2.553637 17.656297,-7.177909 0.523663,-0.436904 0.808588,-0.709194 0.808588,-0.709194 0,0 5.31829,-5.581791 5.60371,-10.189297 -1.35703,2.241909 -2.601828,4.486616 -5.979798,6.149036 -1.549184,0.717614 -2.969147,1.328163 -4.400227,1.810595 -0.09162,0.02332 -0.183641,0.04496 -0.276694,0.06716 -0.677836,0.161791 -1.388264,0.297689 -2.132955,0.400266 -0.09025,0.01238 -0.182896,0.02336 -0.274006,0.03491 -0.772342,0.0979 -1.569817,0.169278 -2.393532,0.204163 -0.08478,0.0035 -0.172655,0.0025 -0.257888,0.0053 -0.812627,0.0278 -1.643743,0.02538 -2.487553,-0.008 -0.05506,-0.0022 -0.108719,-2.4e-4 -0.163872,-0.0027 -0.858109,-0.03806 -0.746751,-0.115873 -1.618838,-0.217595 -0.124455,-0.01456 -0.248866,-0.02446 -0.373402,-0.0403 -0.848915,-0.107872 -1.697495,-0.250394 -2.541278,-0.419068 -0.136324,-0.02725 -0.27238,-0.05445 -0.408324,-0.08327 -0.82572,-0.175223 -1.644033,-0.380884 -2.447258,-0.615162 -0.257527,-0.07513 -0.514095,-0.152499 -0.768294,-0.233715 -0.19211,-0.06138 -0.384913,-0.120469 -0.574877,-0.18535 -0.271468,-0.09272 -0.53666,-0.192954 -0.803216,-0.292813 -0.217408,-0.08146 -0.436333,-0.160927 -0.650095,-0.247144 -0.247711,-0.09993 -0.488358,-0.207974 -0.730685,-0.314301 -0.20537,-0.09011 -0.414012,-0.176606 -0.615172,-0.27132 -0.43797,-0.206234 -0.868474,-0.421916 -1.28407,-0.650096 -0.330751,-0.182951 -0.645527,-0.374512 -0.945593,-0.574877 -0.68911,-0.460131 -1.290539,-0.967273 -1.8294,-1.498978 -2.805408,-2.862894 -2.67516,-6.229121 -2.527848,-8.410936 0.185605,-2.740595 2.483292,-8.75354 10.044233,-11.938105 4.671595,-1.64948 10.165748,-2.803094 14.758764,-1.324363 3.454971,0.779544 5.939366,1.913068 9.2249,3.073171 0,0 -0.02659,0.05718 0.881116,0.282067 6.389684,1.012172 5.672442,-4.251748 5.672442,-4.251748 l -0.500832,-1.23188 v 0 c -0.11078,-0.649138 0.375435,-1.161089 0.375435,-1.161089 0,0 -0.39385,-1.451534 -0.32747,-2.41083 0.06728,-0.958853 0.01297,-2.187929 -0.196099,-3.940863 C 57.236932,10.87939 56.08635,9.3958805 55.713325,9.1233907 55.339447,8.8513924 53.597346,7.5380557 51.928268,6.8829816 50.258167,6.2278985 48.570222,5.7437773 46.491112,6.0367836 c -0.230849,0.032642 -0.449353,0.067942 -0.676957,0.1020811 -0.04029,-0.012793 -0.07193,-0.027366 -0.115518,-0.040294 -0.792816,-0.2354489 -1.35364,-2.1091494 -2.001323,-2.0936313 -0.04958,0.00119 -0.09972,0.00542 -0.150433,0.010748 -0.04995,0.00523 -0.101766,0.011907 -0.153126,0.02149 h -0.0027 c -0.05234,0.00977 -0.104395,0.022942 -0.15849,0.037608 -0.05906,0.016034 -0.115968,0.037025 -0.169236,0.061786 C 42.684287,4.3127777 42.452088,6.3519818 42.308518,6.7869729 38.982923,5.1060336 35.264566,4.1182274 31.321339,4.0119672 31.091664,4.0057573 30.864753,4.001435 30.636322,4.0012194 Z M 45.289288,48.384964 c -0.488195,0.181949 -1.018134,0.335912 -1.563451,0.478171 0.545009,-0.14218 1.075581,-0.296355 1.563451,-0.478171 z"
       id="path5" />
    <path
       style="opacity:0.2;fill:#ffffff;stroke-width:0.982455"
       d="M 30.637604,3.9999997 C 16.246432,3.9870964 4.385981,15.841318 4.0076755,30.791113 c -0.00571,0.225309 0.00815,0.44574 0.01535,0.667763 C 4.5593934,16.658646 16.348157,4.9696433 30.637604,4.9824558 c 0.228431,2.161e-4 0.453441,0.00531 0.683115,0.011515 3.94323,0.1062605 7.66184,1.0937394 10.987388,2.7746703 0.143567,-0.4349919 0.377106,-2.4718213 0.756031,-2.6480258 0.05326,-0.024762 0.109795,-0.049207 0.16886,-0.06524 0.0541,-0.014666 0.105001,-0.024773 0.157346,-0.03454 h 0.0038 c 0.05136,-0.00959 0.10356,-0.017799 0.15351,-0.023026 0.05073,-0.00533 0.100099,-0.010323 0.149671,-0.011512 0.647684,-0.015518 1.206634,1.8599451 1.999449,2.0953941 0.0436,0.012929 0.07866,0.025585 0.118972,0.038377 0.227605,-0.034138 0.444591,-0.067138 0.675438,-0.099779 2.079112,-0.2930068 3.767944,0.1892149 5.438048,0.8442978 1.66908,0.6550745 3.410114,1.9692293 3.78399,2.2412268 0.373025,0.27249 1.525565,1.754618 1.734646,3.507675 0.122712,1.028777 0.18647,1.861555 0.209158,2.580866 0.03263,-0.90306 -0.0256,-2.024617 -0.209133,-3.563319 C 57.238822,10.877971 56.086284,9.3958436 55.713258,9.123354 55.339383,8.8513556 53.598349,7.5372008 51.929268,6.8821266 50.259164,6.2270436 48.570332,5.7448221 46.49122,6.0378286 c -0.230847,0.032641 -0.447832,0.065642 -0.675438,0.099779 -0.0403,-0.012792 -0.07536,-0.025448 -0.11897,-0.038377 -0.792817,-0.2354496 -1.351766,-2.1109127 -1.999451,-2.0953947 -0.04958,0.00119 -0.09896,0.00619 -0.14967,0.011513 -0.04995,0.00523 -0.102145,0.01344 -0.153511,0.023026 h -0.0038 c -0.05234,0.00977 -0.103253,0.019871 -0.157346,0.03454 -0.05904,0.016034 -0.115591,0.040479 -0.16886,0.065239 C 42.685225,4.3143581 42.451688,6.3511879 42.30812,6.7861792 38.982559,5.1052526 35.263949,4.1177734 31.320719,4.0115132 31.091045,4.0053055 30.866035,4.0002158 30.637604,3.9999997 Z M 57.65898,17.103891 c -7.53e-4,0.02524 -9.82e-4,0.04996 -0.002,0.07483 0.01038,0.327649 0.01022,0.63066 0.002,0.909539 0.02604,0.425352 0.07613,0.793492 0.147755,1.147476 0.08528,-0.145051 0.1631,-0.25329 0.1631,-0.25329 0,0 -0.256788,-0.990352 -0.310855,-1.878562 z m -0.002,1.059209 c -0.0045,0.125731 -0.0052,0.260832 -0.01343,0.378015 -0.009,0.130408 0.01274,0.282042 0.01919,0.424068 0.0052,-0.247668 0.0032,-0.517011 -0.0058,-0.802083 z m 0.282069,2.830318 c -0.05398,0.05976 -0.449106,0.509067 -0.345392,1.116776 l 0.101697,0.251367 c 0.09478,-0.212021 0.215413,-0.354372 0.243695,-0.385687 l 0.149675,0.364584 c 0.05642,-0.557257 0.0076,-0.963268 0.0076,-0.963268 z M 17.493404,38.105804 c -0.02417,0.458481 -0.03269,0.959655 -0.01727,1.48136 0.0053,-0.167391 0.0088,-0.340009 0.01727,-0.498905 0.132235,1.84433 0.694506,3.949287 2.548246,5.841009 0.538865,0.531706 1.141485,1.040419 1.830592,1.500548 0.300063,0.200363 0.61333,0.388868 0.944076,0.571818 0.4156,0.228182 0.84767,0.446183 1.285638,0.652414 0.201157,0.09472 0.408665,0.182368 0.614036,0.272479 0.242322,0.106323 0.481457,0.21094 0.729166,0.310855 0.213763,0.08622 0.435006,0.168016 0.652413,0.249451 0.266555,0.09987 0.530615,0.198944 0.802081,0.291665 0.189966,0.06492 0.383549,0.12283 0.575658,0.184211 0.254201,0.08119 0.510018,0.158986 0.767545,0.234102 0.803225,0.234281 1.622744,0.442643 2.448464,0.617873 0.135947,0.02882 0.270473,0.05333 0.406797,0.08059 0.843784,0.168675 1.691655,0.314276 2.540571,0.422148 0.124533,0.01584 0.251638,0.02383 0.376097,0.03838 0.872086,0.101718 0.757571,0.180689 1.615679,0.218749 0.05516,0.0025 0.109965,-0.0022 0.165019,0 0.843813,0.03354 1.674217,0.03932 2.486845,0.01151 0.08524,-0.0027 0.17234,-0.0041 0.257126,-0.0076 0.823716,-0.03488 1.622395,-0.105448 2.394737,-0.203397 0.0911,-0.01155 0.186067,-0.02217 0.276317,-0.03454 0.744689,-0.102576 1.452098,-0.237333 2.129933,-0.399124 0.09305,-0.0222 0.184691,-0.04575 0.276315,-0.06907 1.431079,-0.482435 2.852676,-1.093793 4.401862,-1.811404 3.189255,-1.569547 4.472976,-3.658714 5.748902,-5.773847 0.113557,-0.456632 0.20268,-0.911324 0.230263,-1.356634 -1.357025,2.241911 -2.601196,4.485603 -5.979165,6.148026 -1.549186,0.717612 -2.970783,1.328968 -4.401862,1.811402 -0.09162,0.02332 -0.183266,0.04687 -0.276315,0.06907 -0.677835,0.161791 -1.385244,0.296547 -2.129933,0.399124 -0.09025,0.01238 -0.185215,0.02299 -0.276317,0.03454 -0.772342,0.09794 -1.571021,0.16851 -2.394737,0.203399 -0.08479,0.0035 -0.171893,0.0049 -0.257126,0.0076 -0.812628,0.0278 -1.643032,0.02203 -2.486845,-0.01151 -0.05506,-0.0022 -0.109862,0.0025 -0.165019,0 -0.858108,-0.03806 -0.743593,-0.117031 -1.615679,-0.218753 -0.124459,-0.01453 -0.251564,-0.02254 -0.376097,-0.03838 -0.848916,-0.107877 -1.696787,-0.253478 -2.540571,-0.422148 -0.136324,-0.02725 -0.27085,-0.05176 -0.406797,-0.08059 -0.82572,-0.17523 -1.645239,-0.383592 -2.448464,-0.617871 -0.257527,-0.0751 -0.513344,-0.152889 -0.767545,-0.2341 -0.192109,-0.06138 -0.385692,-0.119329 -0.575658,-0.18421 -0.271466,-0.09275 -0.535526,-0.191819 -0.802081,-0.291666 -0.217407,-0.08143 -0.43865,-0.163236 -0.652413,-0.249452 C 25.197449,47.154996 24.958314,47.05039 24.715992,46.94407 24.510621,46.85396 24.303113,46.766309 24.101956,46.671594 23.663988,46.46536 23.231918,46.247358 22.816318,46.019181 22.485572,45.836226 22.172305,45.647723 21.872242,45.44736 21.183135,44.987231 20.580515,44.478515 20.04165,43.94681 18.18791,42.055088 17.625639,39.950132 17.493404,38.105804 Z"
       id="path6" />
    <path
       style="fill:#d3c9c6;stroke-width:0.982455"
       d="m 42.243029,11.8888 c -2.878606,-0.0034 -5.999288,0.838886 -8.278484,1.631537 -4.322259,1.52949 -7.017306,2.76727 -10.519462,5.270069 -0.928654,0.674336 -4.577943,3.353808 -6.795297,7.090273 -6.127754,10.833792 -1.792033,22.33719 6.132183,24.951032 8.712206,3.25818 17.051675,4.199201 27.541033,-5.070815 -0.90286,0.722567 0,0 -5.034412,2.623386 -5.933706,2.211383 -15.43404,1.501043 -22.472118,-2.363147 -5.662095,-3.132044 -5.093864,-7.743704 -4.908826,-10.484302 0.185604,-2.740597 2.090287,-8.754563 9.651228,-11.939127 4.671594,-1.649481 10.164774,-2.803016 14.757787,-1.324284 3.454973,0.779539 5.938401,2.19015 9.223932,3.350255 0,0 -0.02706,0.05631 0.880653,0.281226 6.389681,1.012038 6.596279,-4.61116 6.596279,-4.61116 l -0.182186,-1.024588 -0.556248,-1.390183 -0.265081,-0.595615 -0.159884,-0.32278 c 0,0 -0.04607,-0.406402 -0.110661,-0.819339 -0.122377,1.543489 -0.737001,2.381573 -0.737001,2.381573 -4.966243,-0.941581 -5.85389,-5.223457 -11.090186,-7.020768 -1.106702,-0.435242 -2.364797,-0.61168 -3.673249,-0.613243 z m 8.079973,33.872096 c 0.578449,-0.462935 0.85869,-0.779255 0.858776,-0.779041 -0.287258,0.268393 -0.573258,0.526721 -0.858776,0.779041 z"
       id="path7" />
    <path
       style="fill:#946857;stroke-width:0.982455"
       d="m 15.825171,25.826729 -0.02979,0.245423 c 1.998327,-0.101243 4.447506,0.331774 6.264291,1.606038 1.408539,0.950908 2.677383,2.370023 4.48333,1.727995 1.234674,-0.432998 1.303276,-1.16622 0.830002,-2.371894 -0.399667,-0.98031 -1.06032,-2.673129 -1.877264,-3.322157 -1.176869,-0.931315 -4.219293,-0.6061 -4.371934,-2.553656 -0.114713,-0.920587 0.465148,-1.613008 0.97952,-2.283969 -9.48e-4,0 -5.891569,1.480965 -6.278143,6.95222 z"
       id="path8" />
    <path
       style="opacity:0.2;stroke-width:0.982455"
       d="m 57.102182,20.701742 c 0,0 -0.226384,0.713834 -1.28938,0.776475 -1.062574,0.06346 -0.878797,1.541172 0.0426,2.368512 0.921819,0.827764 1.642735,1.05478 2.257138,0.419559 0.613575,-0.633959 2.120558,-1.685789 -1.010363,-3.564546 z"
       id="path9" />
    <path
       style="fill:#3f3f3f;stroke-width:0.982455"
       d="m 57.102182,19.719294 c 0,0 -0.226384,0.713833 -1.28938,0.776473 -1.062574,0.06346 -0.878797,1.541173 0.0426,2.368512 0.921819,0.827765 1.642735,1.054781 2.257138,0.419561 0.613575,-0.633963 2.120558,-1.685793 -1.010363,-3.564546 z"
       id="path10" />
    <path
       style="opacity:0.2;stroke-width:0.982455"
       d="m 50.742559,17.987973 c -0.668295,0.852731 -1.902933,0.999516 -2.758237,0.329899 -0.855305,-0.67305 -1.008488,-1.908209 -0.339707,-2.761434 0.66685,-0.851254 1.902451,-0.998531 2.757276,-0.327931 0.855785,0.672071 1.007035,1.906738 0.340668,2.759466 z"
       id="path11" />
    <path
       style="fill:#3f3f3f;stroke-width:0.982455"
       d="m 50.742559,17.005524 c -0.668295,0.852729 -1.902933,0.999514 -2.758237,0.329897 -0.855305,-0.67305 -1.008488,-1.908208 -0.339707,-2.76143 0.66685,-0.851256 1.902451,-0.998533 2.757276,-0.327934 0.855785,0.672071 1.007035,1.906737 0.340668,2.759467 z"
       id="path12" />
    <path
       style="opacity:0.2;stroke-width:0.982455"
       d="m 58.472279,19.080854 c -0.0578,0.757899 -0.540114,1.326809 -1.076609,1.269378 -0.536052,-0.05594 -0.923526,-0.714701 -0.864366,-1.474069 0.05826,-0.756914 0.539662,-1.325335 1.07571,-1.268885 0.536049,0.05791 0.923521,0.71617 0.865265,1.473576 z"
       id="path13" />
    <path
       style="fill:#3f3f3f;stroke-width:0.982455"
       d="m 58.472279,17.115941 c -0.0578,0.757899 -0.540114,1.326812 -1.076609,1.269379 -0.536052,-0.05595 -0.923526,-0.714699 -0.864366,-1.474068 0.05826,-0.756915 0.539662,-1.325337 1.07571,-1.268886 0.536049,0.05791 0.923521,0.716171 0.865265,1.473575 z"
       id="path14" />
  </g>
</svg>
