<?xml version="1.0" encoding="UTF-8" standalone="no"?>
<svg
   width="62"
   height="62"
   version="1.1"
   id="svg7"
   sodipodi:docname="vroid-studio.svg"
   inkscape:version="1.4 (e7c3feb100, 2024-10-09)"
   xmlns:inkscape="http://www.inkscape.org/namespaces/inkscape"
   xmlns:sodipodi="http://sodipodi.sourceforge.net/DTD/sodipodi-0.dtd"
   xmlns:xlink="http://www.w3.org/1999/xlink"
   xmlns="http://www.w3.org/2000/svg"
   xmlns:svg="http://www.w3.org/2000/svg">
  <defs
     id="defs7">
    <linearGradient
       inkscape:collect="always"
       xlink:href="#linearGradient8"
       id="linearGradient10"
       x1="31.5"
       y1="59.017544"
       x2="31.5"
       y2="4.9824562"
       gradientUnits="userSpaceOnUse"
       gradientTransform="translate(-0.5,-1)" />
    <linearGradient
       id="linearGradient8"
       inkscape:collect="always">
      <stop
         style="stop-color:#2d3d53;stop-opacity:1;"
         offset="0"
         id="stop8" />
      <stop
         style="stop-color:#354864;stop-opacity:1;"
         offset="1"
         id="stop10" />
    </linearGradient>
    <linearGradient
       id="paint3_linear_332_93"
       x1="37.304401"
       y1="24.2272"
       x2="23.255199"
       y2="12.9039"
       gradientUnits="userSpaceOnUse"
       gradientTransform="matrix(1,0,0,1.0089403,-0.9999998,-0.28624446)">
      <stop
         stop-color="#731FFF"
         id="stop9" />
      <stop
         offset="0.905415"
         stop-color="#EB1AFF"
         id="stop10-5" />
    </linearGradient>
    <linearGradient
       id="paint1_linear_332_93"
       x1="2"
       y1="61.696899"
       x2="14.6751"
       y2="28.2421"
       gradientUnits="userSpaceOnUse"
       gradientTransform="matrix(0.91578336,0,0,1,1.7216248,-7.2011443)">
      <stop
         stop-color="#731FFF"
         id="stop5" />
      <stop
         offset="0.905415"
         stop-color="#EB1AFF"
         id="stop6" />
    </linearGradient>
    <linearGradient
       id="paint2_linear_332_93"
       x1="54.645401"
       y1="46.748501"
       x2="26.243099"
       y2="10.4978"
       gradientUnits="userSpaceOnUse"
       gradientTransform="matrix(0.91578336,0,0,1,1.7216248,-7.2011443)">
      <stop
         offset="0.118093"
         stop-color="#731FFF"
         id="stop7" />
      <stop
         offset="0.905415"
         stop-color="#EB1AFF"
         id="stop8-3" />
    </linearGradient>
    <linearGradient
       id="linearGradient4"
       x1="16"
       x2="47"
       y1="16"
       y2="48"
       gradientUnits="userSpaceOnUse"
       gradientTransform="matrix(1.1935485,0,0,1.1875,-6.5967725,-6.999994)">
      <stop
         stop-color="#ffffff"
         offset="0"
         id="stop1" />
      <stop
         stop-color="#ffffff"
         offset=".45161"
         id="stop2" />
      <stop
         stop-color="#fef0cb"
         offset=".59375"
         id="stop3" />
      <stop
         stop-color="#ffbcc3"
         offset="1"
         id="stop4" />
    </linearGradient>
    <linearGradient
       id="paint0_linear_19_69"
       x1="13.5381"
       y1="7.6556602"
       x2="19.187599"
       y2="7.6556602"
       gradientUnits="userSpaceOnUse"
       gradientTransform="matrix(1.818183,0,0,1.818183,11.458092,11.928816)">
      <stop
         stop-color="#02AA93"
         id="stop3-5" />
      <stop
         offset="1"
         stop-color="#67FF80"
         id="stop4-3" />
    </linearGradient>
    <linearGradient
       id="paint1_linear_19_69"
       x1="13.5426"
       y1="5.74156"
       x2="23"
       y2="5.74156"
       gradientUnits="userSpaceOnUse"
       gradientTransform="matrix(1.818183,0,0,1.818183,11.458092,11.928816)">
      <stop
         stop-color="#02AA93"
         id="stop5-5" />
      <stop
         offset="1"
         stop-color="#67FF80"
         id="stop6-6" />
    </linearGradient>
    <linearGradient
       id="paint2_linear_19_69"
       x1="1"
       y1="12.425"
       x2="22.2339"
       y2="12.425"
       gradientUnits="userSpaceOnUse"
       gradientTransform="matrix(1.818183,0,0,1.818183,11.458092,11.928816)">
      <stop
         stop-color="#02AA93"
         id="stop7-2" />
      <stop
         offset="1"
         stop-color="#67FF80"
         id="stop8-9" />
    </linearGradient>
    <linearGradient
       id="d"
       x1="43"
       x2="85"
       y1="39"
       y2="39"
       gradientUnits="userSpaceOnUse"
       gradientTransform="matrix(0.40384613,0,0,0.40384613,18.450538,67.032213)">
      <stop
         offset="0"
         stop-color="#26a269"
         id="stop18" />
      <stop
         offset=".093"
         stop-color="#84e3b7"
         id="stop19" />
      <stop
         offset=".331"
         stop-color="#26a269"
         id="stop20" />
      <stop
         offset=".687"
         stop-color="#26a269"
         id="stop21" />
      <stop
         offset=".897"
         stop-color="#175e3c"
         id="stop22" />
      <stop
         offset="1"
         stop-color="#26a269"
         id="stop23" />
    </linearGradient>
    <linearGradient
       xlink:href="#a"
       id="e"
       x1="-1710.2"
       x2="-1774.5"
       y1="-1202.4"
       y2="-1202.4"
       gradientTransform="matrix(0.03278825,-0.01893229,0.02789771,0.04832018,142.44342,118.349)" />
    <linearGradient
       id="a"
       gradientUnits="userSpaceOnUse">
      <stop
         offset="0"
         stop-color="#c0bfbc"
         id="stop12" />
      <stop
         offset=".155"
         stop-color="#fff"
         id="stop13" />
      <stop
         offset=".434"
         stop-color="#bdbbb5"
         id="stop14" />
      <stop
         offset=".65"
         stop-color="#c1c0ba"
         id="stop15" />
      <stop
         offset=".825"
         stop-color="#fff"
         id="stop16" />
      <stop
         offset="1"
         stop-color="#c0bfbc"
         id="stop17" />
    </linearGradient>
    <linearGradient
       xlink:href="#a"
       id="f"
       x1="-1710.2"
       x2="-1774.5"
       y1="-1202.4"
       y2="-1202.4"
       gradientTransform="matrix(-0.03278825,-0.01893229,-0.02789771,0.04832018,-53.127151,118.349)" />
    <linearGradient
       id="g"
       x1="14"
       x2="56"
       y1="95"
       y2="95"
       gradientUnits="userSpaceOnUse"
       gradientTransform="matrix(0.40384613,0,0,0.40384613,18.450538,67.032213)">
      <stop
         offset="0"
         stop-color="#813d9c"
         id="stop7-6" />
      <stop
         offset=".109"
         stop-color="#b378ca"
         id="stop8-2" />
      <stop
         offset=".242"
         stop-color="#813d9c"
         id="stop9-9" />
      <stop
         offset=".732"
         stop-color="#813d9c"
         id="stop10-1" />
      <stop
         offset=".872"
         stop-color="#4d255d"
         id="stop11" />
      <stop
         offset="1"
         stop-color="#813d9c"
         id="stop24" />
    </linearGradient>
    <linearGradient
       id="h"
       x1="72"
       x2="114"
       y1="95"
       y2="95"
       gradientUnits="userSpaceOnUse"
       gradientTransform="matrix(0.40384613,0,0,0.40384613,18.450538,67.032213)">
      <stop
         offset="0"
         stop-color="#e66100"
         id="stop25" />
      <stop
         offset=".068"
         stop-color="#ff903e"
         id="stop26" />
      <stop
         offset=".169"
         stop-color="#e66100"
         id="stop27" />
      <stop
         offset=".887"
         stop-color="#e66100"
         id="stop28" />
      <stop
         offset="1"
         stop-color="#9d4200"
         id="stop29" />
    </linearGradient>
  </defs>
  <sodipodi:namedview
     id="namedview7"
     pagecolor="#ffffff"
     bordercolor="#000000"
     borderopacity="0.25"
     inkscape:showpageshadow="2"
     inkscape:pageopacity="0.0"
     inkscape:pagecheckerboard="0"
     inkscape:deskcolor="#d1d1d1"
     inkscape:zoom="8.3085046"
     inkscape:cx="44.352145"
     inkscape:cy="50.370075"
     inkscape:window-width="1920"
     inkscape:window-height="998"
     inkscape:window-x="0"
     inkscape:window-y="0"
     inkscape:window-maximized="1"
     inkscape:current-layer="svg7"
     showgrid="false">
    <inkscape:grid
       id="grid1"
       units="px"
       originx="0"
       originy="0"
       spacingx="1"
       spacingy="1"
       empcolor="#0099e5"
       empopacity="0.30196078"
       color="#0099e5"
       opacity="0.14901961"
       empspacing="5"
       enabled="true"
       visible="false" />
  </sodipodi:namedview>
  <rect
     style="opacity:0.2;stroke-width:0.9823"
     width="55"
     height="55.017544"
     x="3.5"
     y="3.9824562"
     rx="8.25"
     ry="8.2526312"
     id="rect1" />
  <rect
     style="fill:url(#linearGradient10);stroke-width:0.9823"
     width="55"
     height="55.017544"
     x="3.5"
     y="3"
     rx="8.25"
     ry="8.2526312"
     id="rect2" />
  <path
     style="opacity:0.1;fill:#ffffff;stroke-width:0.9823"
     d="M 11.748466,3 C 7.1779652,3 3.5,6.679138 3.5,11.251097 v 0.982456 c 0,-4.571959 3.6779652,-8.251097 8.248466,-8.251097 h 38.503068 c 4.5705,0 8.248466,3.679138 8.248466,8.251097 V 11.251097 C 58.5,6.679138 54.822034,3 50.251534,3 Z"
     id="path4-3" />
  <g
     id="g2"
     transform="translate(-16.7501,-22.000128)">
    <g
       id="g1">
      <path
         style="fill:#feb924;stroke-width:1.18748"
         d="M 43.02254,70.571126 60.648134,40.798117 a 1.7581303,1.7405893 0 0 1 1.756304,-0.844241 l 8.937856,1.216696 a 0.18284807,0.18102375 0 0 1 0.132048,0.2722 L 54.380399,69.760489 a 2.0814167,2.0606491 0 0 1 -1.775852,1.003515 l -9.441417,0.04859 a 0.16198392,0.16036775 0 0 1 -0.14059,-0.241447 z"
         id="path3" />
      <path
         style="fill:#feb924;stroke-width:1.18748"
         d="m 24.18162,42.446563 4.568719,-7.258896 c 0.616938,-0.980223 0.865199,-1.187504 1.187496,-1.187496 l 7.898124,2.31e-4 c 0.708664,-0.01062 1.183808,0.579762 1.601858,1.187265 l 8.312485,12.079614 -5.417376,7.777558 c -0.322363,0.462825 -0.98384,0.434346 -1.269723,-0.05466 L 34.083304,43.051194 c -0.02256,-0.03862 -0.06212,-0.06244 -0.10498,-0.06317 L 24.2165,42.808994 c -0.173962,-0.0033 -0.275749,-0.209016 -0.179236,-0.362445 z"
         id="path4" />
      <path
         style="opacity:0.2;stroke-width:1.18748"
         d="m 29.937835,34.000171 c -0.322297,-8e-6 -0.570558,0.207273 -1.187496,1.187496 l -4.569081,7.259503 h -0.143803 c -0.09648,0.153421 0.0045,0.358607 0.178592,0.361817 l 0.480104,0.0094 4.054188,-6.443087 c 0.616938,-0.980239 0.865199,-1.187532 1.187496,-1.187522 h 7.897321 c 0.708662,-0.01062 1.184611,0.579997 1.602661,1.187499 l 7.901598,11.874929 0.410882,-0.983396 -8.31248,-12.079045 c -0.41805,-0.607488 -0.893999,-1.198415 -1.602661,-1.187488 z"
         id="path5" />
      <path
         style="fill:#feffff;stroke-width:1.18748"
         d="m 24.664358,41.79742 9.182864,-0.06536 a 2.0810369,2.0145252 0 0 1 1.80389,0.984664 l 6.521413,10.614145 a 0.73177349,0.70838537 0 0 0 1.247647,0.01618 l 11.996853,-18.38794 a 2.1257006,2.0577608 0 0 1 1.830992,-0.958672 l 8.33235,0.128031 a 2.2468925,2.1750801 0 0 1 1.845963,0.98605 l 3.969844,5.888414 a 0.64012176,0.61966292 0 0 1 -0.541256,0.95831 L 62.778016,41.8977 a 2.1313715,2.063251 0 0 0 -1.825578,0.970978 L 43.159413,70.47373 a 0.74378733,0.72001519 0 0 1 -1.262538,-7.64e-4 L 24.101319,42.787046 a 0.66892744,0.6475479 0 0 1 0.563039,-0.989626 z"
         id="path6" />
      <path
         style="opacity:0.2;stroke-width:1.18748"
         d="m 71.177855,41.867338 a 0.64012176,0.61966292 0 0 1 -0.322396,0.09276 l -8.078224,-0.06264 a 2.1313715,2.063251 0 0 0 -1.82531,0.971796 L 43.16034,70.473926 a 0.74378733,0.72001519 0 0 1 -0.13684,0.106682 0.16198392,0.16036775 0 0 0 0.13916,0.231932 l 0.547355,-0.0025 17.24191,-26.753478 a 2.1313715,2.063251 0 0 1 1.82531,-0.971801 l 7.670023,0.06031 0.751471,-1.245477 z"
         id="path8" />
      <path
         style="opacity:0.2;fill:#ffffff;stroke-width:1.18748"
         d="M 70.952879,42.305687 54.381255,69.759602 a 2.0814167,2.0606491 0 0 1 -1.7766,1.004271 l -9.019878,0.04638 -0.561277,0.948606 a 0.16198392,0.16036775 0 0 0 0.13916,0.241246 l 9.441995,-0.04871 a 2.0814167,2.0606491 0 0 0 1.7766,-1.004271 l 17.093468,-28.31672 a 0.18284807,0.18102375 0 0 0 -0.132204,-0.271368 z"
         id="path9" />
    </g>
  </g>
</svg>
