<?xml version="1.0" encoding="UTF-8" standalone="no"?>
<svg
   width="62"
   height="62"
   version="1"
   id="svg15"
   sodipodi:docname="massif-visualizer.svg"
   inkscape:version="1.4 (e7c3feb100, 2024-10-09)"
   xmlns:inkscape="http://www.inkscape.org/namespaces/inkscape"
   xmlns:sodipodi="http://sodipodi.sourceforge.net/DTD/sodipodi-0.dtd"
   xmlns="http://www.w3.org/2000/svg"
   xmlns:svg="http://www.w3.org/2000/svg">
  <defs
     id="defs15" />
  <sodipodi:namedview
     id="namedview15"
     pagecolor="#ffffff"
     bordercolor="#000000"
     borderopacity="0.25"
     inkscape:showpageshadow="2"
     inkscape:pageopacity="0.0"
     inkscape:pagecheckerboard="0"
     inkscape:deskcolor="#d1d1d1"
     inkscape:zoom="11.78125"
     inkscape:cx="31.95756"
     inkscape:cy="32"
     inkscape:window-width="1920"
     inkscape:window-height="994"
     inkscape:window-x="0"
     inkscape:window-y="0"
     inkscape:window-maximized="1"
     inkscape:current-layer="svg15" />
  <g
     id="g15"
     transform="translate(0.5426806)">
    <rect
       style="opacity:0.2;stroke-width:0.982191"
       width="51.065517"
       height="51.082279"
       x="7.8914065"
       y="2.9823515"
       rx="2.5532758"
       ry="2.5541139"
       id="rect1" />
    <rect
       style="fill:#e4e4e4;stroke-width:0.982191"
       width="51.065517"
       height="51.082279"
       x="7.8914065"
       y="2"
       rx="2.5532758"
       ry="2.5541139"
       id="rect2" />
    <path
       style="opacity:0.2;fill:#ffffff;stroke-width:0.982191"
       d="M 10.446217,2 C 9.0317029,2 7.8914068,3.14067 7.8914068,4.5556489 v 0.9823516 c 0,-1.414979 1.1402961,-2.555649 2.5548102,-2.555649 h 45.955899 c 1.414515,0 2.554811,1.14067 2.554811,2.555649 V 4.5556489 C 58.956927,3.14067 57.816631,2 56.402116,2 Z"
       id="path2" />
    <path
       style="fill:#2d5de1;fill-rule:evenodd;stroke-width:0.982191"
       d="M 58.956925,7.1076742 43.63616,11.946523 33.424167,31.304688 v 21.77759 h 22.978375 c 1.414514,0 2.554383,-1.140241 2.554383,-2.55522 z"
       id="path3" />
    <path
       style="opacity:0.1;fill-rule:evenodd;stroke-width:0.982191"
       d="M 58.956927,7.1074606 43.635736,11.946309 33.424167,31.305542 v 0.982351 L 43.635736,12.928661 58.956927,8.0898121 Z"
       id="path4" />
    <path
       style="fill:#8d5fd3;fill-rule:evenodd;stroke-width:0.982191"
       d="M 28.318171,24.046417 7.8914068,38.562963 v 11.964095 c 0,1.414979 1.1398693,2.55522 2.5543842,2.55522 h 22.978376 22.978375 c 1.414514,0 2.554383,-1.140241 2.554383,-2.55522 V 36.143537 L 43.63616,45.824007 33.424167,31.304688 Z"
       id="path5" />
    <path
       style="opacity:0.1;fill-rule:evenodd;stroke-width:0.982191"
       d="M 28.318382,24.04535 7.8914068,38.561896 v 0.982352 L 28.318382,25.027701 33.424167,32.287893 43.635736,46.80444 58.956927,37.126742 V 36.14439 L 43.635736,45.822088 33.424167,31.305542 Z"
       id="path6" />
    <path
       style="opacity:0.1;stroke-width:0.982191"
       d="m 4.9453192,2.9816375 a 2.9463823,2.9473493 0 1 0 0,5.8941092 h 5.8921748 a 2.9463823,2.9473493 0 1 0 0,-5.8941092 z m 0,11.7882195 a 2.9463823,2.9473493 0 1 0 0,5.894108 h 5.8921748 a 2.9463823,2.9473493 0 1 0 0,-5.894108 z m 0,11.788217 a 2.9463823,2.9473493 0 1 0 0,5.89411 h 5.8921748 a 2.9463823,2.9473493 0 1 0 0,-5.89411 z m 0,11.788219 a 2.9463823,2.9473493 0 1 0 0,5.894109 h 5.8921748 a 2.9463823,2.9473493 0 1 0 0,-5.894109 z m 15.6664338,9.781305 a 2.9463823,2.9473493 0 0 0 -2.900054,2.989265 v 5.894109 a 2.9463823,2.9473493 0 1 0 5.892175,0 v -5.894109 a 2.9463823,2.9473493 0 0 0 -2.992121,-2.989265 z m 11.78435,0 a 2.9463823,2.9473493 0 0 0 -2.900054,2.989265 v 5.894109 a 2.9463823,2.9473493 0 1 0 5.892176,0 v -5.894109 a 2.9463823,2.9473493 0 0 0 -2.992122,-2.989265 z m 11.784352,0 a 2.9463823,2.9473493 0 0 0 -2.900054,2.989265 v 5.894109 a 2.9463823,2.9473493 0 1 0 5.892175,0 v -5.894109 a 2.9463823,2.9473493 0 0 0 -2.992121,-2.989265 z m 11.78435,0 a 2.9463823,2.9473493 0 0 0 -2.900054,2.989265 v 5.894109 a 2.9463823,2.9473493 0 1 0 5.892176,0 v -5.894109 a 2.9463823,2.9473493 0 0 0 -2.992122,-2.989265 z"
       id="path7" />
    <path
       style="fill:none;stroke:#4f4f4f;stroke-width:5.89314;stroke-linecap:round"
       d="M 4.9453192,4.9470546 H 10.837494"
       id="path8" />
    <path
       style="fill:none;stroke:#4f4f4f;stroke-width:5.89314;stroke-linecap:round"
       d="M 4.9453192,40.31171 H 10.837494"
       id="path9" />
    <path
       style="fill:none;stroke:#4f4f4f;stroke-width:5.89314;stroke-linecap:round"
       d="M 4.9453192,28.523492 H 10.837494"
       id="path10" />
    <path
       style="fill:none;stroke:#4f4f4f;stroke-width:5.89314;stroke-linecap:round"
       d="M 4.9453192,16.735273 H 10.837494"
       id="path11" />
    <path
       style="fill:none;stroke:#4f4f4f;stroke-width:5.89314;stroke-linecap:round"
       d="m 56.010839,56.029335 v -5.89411"
       id="path12" />
    <path
       style="fill:none;stroke:#4f4f4f;stroke-width:5.89314;stroke-linecap:round"
       d="m 44.226488,56.029335 v -5.89411"
       id="path13" />
    <path
       style="fill:none;stroke:#4f4f4f;stroke-width:5.89314;stroke-linecap:round"
       d="m 32.442137,56.029335 v -5.89411"
       id="path14" />
    <path
       style="fill:none;stroke:#4f4f4f;stroke-width:5.89314;stroke-linecap:round"
       d="m 20.657787,56.029335 v -5.89411"
       id="path15" />
  </g>
</svg>
