<?xml version="1.0" encoding="UTF-8" standalone="no"?>
<svg
   width="62"
   height="62"
   version="1.1"
   id="svg6"
   sodipodi:docname="mediawriter.svg"
   inkscape:version="1.4 (e7c3feb100, 2024-10-09)"
   xmlns:inkscape="http://www.inkscape.org/namespaces/inkscape"
   xmlns:sodipodi="http://sodipodi.sourceforge.net/DTD/sodipodi-0.dtd"
   xmlns="http://www.w3.org/2000/svg"
   xmlns:svg="http://www.w3.org/2000/svg">
  <defs
     id="defs6" />
  <sodipodi:namedview
     id="namedview6"
     pagecolor="#ffffff"
     bordercolor="#000000"
     borderopacity="0.25"
     inkscape:showpageshadow="2"
     inkscape:pageopacity="0.0"
     inkscape:pagecheckerboard="0"
     inkscape:deskcolor="#d1d1d1"
     inkscape:zoom="11.75"
     inkscape:cx="32"
     inkscape:cy="32"
     inkscape:window-width="1920"
     inkscape:window-height="998"
     inkscape:window-x="0"
     inkscape:window-y="0"
     inkscape:window-maximized="1"
     inkscape:current-layer="svg6" />
  <g
     id="g6"
     transform="translate(-1.0000001,-1)">
    <rect
       style="opacity:0.2"
       width="19"
       height="19"
       x="13"
       y="41"
       rx="2.714"
       ry="2.714"
       id="rect1" />
    <rect
       style="fill:#c0bfbc"
       width="19"
       height="19"
       x="13"
       y="40"
       rx="2.714"
       ry="2.714"
       id="rect2" />
    <path
       style="opacity:0.2"
       d="m 32,5.000022 c -12.150391,0 -22.0000001,9.848468 -22.0000001,22.00098 0.00586,0.317123 0.015625,0.634248 0.035155,0.951374 H 9.9999999 V 43.98868 h 0.00781 c 0.115235,2.713172 2.285156,4.886062 4.992186,5.001557 V 49 H 32.000003 C 44.150391,49.000025 54,39.1496 54,27.001002 54.001955,14.84849 44.152345,5.000022 32,5.000022 Z m 0,0"
       id="path2" />
    <path
       style="fill:#42a5e9"
       d="m 32,4.000022 c -12.150391,0 -22.0000001,9.848468 -22.0000001,22.00098 0.00586,0.317123 0.015625,0.634248 0.035155,0.951374 H 9.9999999 V 42.98868 h 0.00781 c 0.115235,2.713172 2.285156,4.886062 4.992186,5.001557 V 48 H 32.000003 C 44.150391,48.000025 54,38.1496 54,26.001002 54.001955,13.84849 44.152345,4.000022 32,4.000022 Z m 0,0"
       id="path3" />
    <path
       style="opacity:0.2"
       d="m 36.500001,15 a 6.5,6.5 0 0 0 -6.5,6.5 V 34 h -0.03516 a 3.5,3.5 0 0 1 -3.46484,3 3.5,3.5 0 0 1 -3.5,-3.5 3.5,3.5 0 0 1 3.5,-3.5 h 1.5 v -4 h -1.5 A 7.5,7.5 0 0 0 26.462891,26 7.5,7.5 0 0 0 19,33.5 7.5,7.5 0 0 0 26.5,41 7.5,7.5 0 0 0 33.984375,34 h 0.01563 v -0.462891 a 7.5,7.5 0 0 0 0,-0.03711 v -3.5 h 2 a 2,2 0 0 0 2,-2 2,2 0 0 0 -2,-2 h -2 v -4.5 a 2.5,2.5 0 0 1 2.5,-2.5 2.5,2.5 0 0 1 2.5,2.5 v 0.5 a 2,2 0 0 0 2,2 2,2 0 0 0 2,-2 2,2 0 0 0 0,-0.04883 v -0.95117 h -0.01953 a 6.5,6.5 0 0 0 -6.48047,-6 z"
       id="path4" />
    <path
       style="fill:#ffffff"
       d="m 36.500001,14 a 6.5,6.5 0 0 0 -6.5,6.5 V 33 h -0.03516 a 3.5,3.5 0 0 1 -3.46484,3 3.5,3.5 0 0 1 -3.5,-3.5 3.5,3.5 0 0 1 3.5,-3.5 h 1.5 v -4 h -1.5 A 7.5,7.5 0 0 0 26.462891,25 7.5,7.5 0 0 0 19,32.5 7.5,7.5 0 0 0 26.5,40 7.5,7.5 0 0 0 33.984375,33 h 0.01563 v -0.462891 a 7.5,7.5 0 0 0 0,-0.03711 v -3.5 h 2 a 2,2 0 0 0 2,-2 2,2 0 0 0 -2,-2 h -2 v -4.5 a 2.5,2.5 0 0 1 2.5,-2.5 2.5,2.5 0 0 1 2.5,2.5 v 0.5 a 2,2 0 0 0 2,2 2,2 0 0 0 2,-2 2,2 0 0 0 0,-0.04883 v -0.95117 h -0.01953 a 6.5,6.5 0 0 0 -6.48047,-6 z"
       id="path5" />
    <rect
       style="opacity:0.3"
       width="4"
       height="3"
       x="16"
       y="53"
       id="rect5" />
    <rect
       style="opacity:0.3"
       width="4"
       height="3"
       x="25"
       y="53"
       id="rect6" />
    <path
       style="opacity:0.2;fill:#ffffff"
       d="m 32,4 c -12.150391,0 -22,9.849441 -22,22.001953 0.0025,0.137403 0.01114,0.274706 0.01563,0.412109 C 10.327972,14.534114 20.046664,5 32,5 43.98472,5 53.721644,14.58117 53.986328,26.501953 53.990069,26.334988 54,26.169816 54,26.001953 54.001955,13.849441 44.152345,4 32,4 Z M 10,26.953125 v 0.04883 c 0,-0.01638 0.0019,-0.03246 0.002,-0.04883 z m 0,0.04883 v 0.951172 h 0.03516 C 10.015626,27.635999 10.00586,27.319076 10,27.001953 Z"
       id="path6" />
  </g>
</svg>
