<?xml version="1.0" encoding="UTF-8" standalone="no"?>
<svg
   width="62"
   height="62"
   version="1.0"
   id="svg6"
   sodipodi:docname="meld.svg"
   inkscape:version="1.4 (unknown)"
   xmlns:inkscape="http://www.inkscape.org/namespaces/inkscape"
   xmlns:sodipodi="http://sodipodi.sourceforge.net/DTD/sodipodi-0.dtd"
   xmlns="http://www.w3.org/2000/svg"
   xmlns:svg="http://www.w3.org/2000/svg">
  <defs
     id="defs6" />
  <sodipodi:namedview
     id="namedview6"
     pagecolor="#ffffff"
     bordercolor="#000000"
     borderopacity="0.25"
     inkscape:showpageshadow="2"
     inkscape:pageopacity="0.0"
     inkscape:pagecheckerboard="0"
     inkscape:deskcolor="#d1d1d1"
     inkscape:zoom="7.0710678"
     inkscape:cx="28.708535"
     inkscape:cy="43.062803"
     inkscape:window-width="1920"
     inkscape:window-height="998"
     inkscape:window-x="0"
     inkscape:window-y="0"
     inkscape:window-maximized="1"
     inkscape:current-layer="svg6" />
  <g
     id="g6"
     transform="translate(-0.5,-1)">
    <path
       style="opacity:0.2;stroke-width:0.982299"
       d="M 24.625,4.9824562 C 13.198751,4.9824562 4,14.18414 4,25.614045 v 6.877183 6.877193 C 4,50.798315 13.198751,60 24.625,60 h 13.75 C 49.80125,60 59,50.798315 59,39.368421 V 32.491228 25.614035 C 59,14.18414 49.80125,4.9824562 38.37499,4.9824562 Z"
       id="path1" />
    <path
       style="fill:#3584e4;stroke-width:0.982299"
       d="M 24.625,4 C 13.198751,4 4,13.201685 4,24.631579 v 6.877193 6.877193 c 0,11.429895 9.198751,20.631579 20.625,20.631579 h 13.75 C 49.80125,59.017544 59,49.81586 59,38.385965 V 31.508772 24.631579 C 59,13.201685 49.80125,4 38.375,4 Z"
       id="path2" />
    <path
       style="opacity:0.2;fill:#ffffff;stroke-width:0.982299"
       d="M 24.625,4 C 13.198751,4 4,13.201685 4,24.631579 v 0.982466 C 4,14.18414 13.198751,4.9824562 24.625,4.9824562 h 13.75 C 49.80125,4.9824562 59,14.18414 59,25.614045 V 24.631579 C 59,13.201685 49.80125,4 38.375,4 Z"
       id="path3" />
    <path
       style="opacity:0.2;stroke-width:0.982299"
       d="M 8.2738559,4.9824562 C 5.9052499,4.9824562 4,6.8652669 4,9.2039474 v 17.5921036 3.338816 c 1.291847,3.268841 3.1546155,6.321621 5.6703405,8.995615 2.9411445,3.126171 7.3092265,5.742432 11.8317515,6.712172 4.522525,0.96973 9.588767,0.293107 13.143833,-3.154606 1.217649,-1.180869 2.246772,-2.927885 2.608818,-4.720395 0.362037,-1.792505 0.05849,-3.627769 -1.377301,-4.985197 -0.455681,-0.430809 -1.522312,-0.795489 -2.205985,-0.917211 -0.679466,-0.120988 -1.677021,-0.112 -2.171457,0.425983 0.551683,0.494965 0.98677,1.292178 0.863212,1.96875 -0.124425,0.681156 -0.49976,1.353665 -0.939941,1.807566 -1.381831,1.424911 -3.250176,2.388843 -5.071849,2.030153 C 24.529753,37.939 22.751929,36.925016 21.551967,35.71875 18.92786,33.080876 17.752794,29.150569 17.811383,25.798245 c 0.0195,-1.117447 0.160799,-2.243957 0.406669,-3.361843 0.983501,-4.471554 3.769821,-10.02525 6.940221,-12.933113 2.024314,-1.8566808 4.265298,-3.3489122 6.648646,-4.5208328 z M 31.5,32.491228 c -0.551684,-0.494966 -0.986771,-1.292177 -0.863212,-1.968749 0.124419,-0.681157 0.499761,-1.353666 0.939941,-1.807566 1.381828,-1.424912 3.250176,-2.388845 5.071849,-2.030158 1.821669,0.358701 3.599492,1.372686 4.799455,2.578952 2.624107,2.637872 3.799172,6.568181 3.740584,9.920504 -0.01943,1.117447 -0.160798,2.243957 -0.40667,3.361842 -0.9835,4.471553 -3.769821,10.025252 -6.940219,12.933114 C 35.817414,57.335849 33.576429,58.828079 31.193081,60 H 54.726144 C 57.094749,60 59,58.11719 59,55.778508 V 38.186404 34.847588 c -1.291848,-3.268839 -3.154615,-6.32162 -5.67034,-8.995614 -2.941146,-3.126171 -7.309227,-5.742432 -11.831752,-6.712172 -4.522525,-0.969729 -9.588769,-0.293107 -13.143834,3.154607 -1.217647,1.180868 -2.246771,2.927884 -2.608818,4.720395 -0.362032,1.792505 -0.05849,3.627768 1.377301,4.985196 0.455681,0.430809 1.522313,0.795489 2.205986,0.917215 0.679466,0.12098 1.677021,0.111992 2.171457,-0.425987 z"
       id="path4" />
    <path
       style="fill:#ffa348;stroke-width:0.982299"
       d="M 8.2738559,4 C 5.9052499,4 4,5.8828108 4,8.2214913 v 17.5921047 3.338816 c 1.291847,3.268839 3.1546155,6.32162 5.6703405,8.995614 2.9411445,3.126171 7.3092265,5.742432 11.8317515,6.712172 4.522525,0.969729 9.588767,0.293107 13.143833,-3.154607 1.217649,-1.180868 2.246772,-2.927884 2.608818,-4.720395 C 37.61678,35.192691 37.31324,33.357428 35.877442,32 35.421761,31.569191 34.35513,31.204511 33.671457,31.082785 32.991991,30.961801 31.994436,30.970785 31.5,31.508772 c 0.551683,0.494966 0.98677,1.292177 0.863212,1.968749 -0.124425,0.681157 -0.49976,1.353666 -0.939941,1.807566 -1.381831,1.424912 -3.250176,2.388845 -5.071849,2.030158 -1.821669,-0.358701 -3.599493,-1.372686 -4.799455,-2.578952 -2.624107,-2.637872 -3.799173,-6.568181 -3.740584,-9.920504 0.0195,-1.117447 0.160799,-2.243957 0.406669,-3.361842 C 19.201553,16.982393 21.987873,11.428696 25.158273,8.5208332 27.182587,6.664152 29.423571,5.1719206 31.806919,4 Z M 31.5,31.508772 c -0.551684,-0.494965 -0.986771,-1.292178 -0.863212,-1.96875 0.124419,-0.681156 0.499761,-1.353665 0.939941,-1.807566 1.381828,-1.424911 3.250176,-2.388843 5.071849,-2.030153 1.821669,0.358697 3.599492,1.372681 4.799455,2.578947 2.624107,2.637874 3.799172,6.568181 3.740584,9.920505 -0.01943,1.117447 -0.160798,2.243957 -0.40667,3.361843 -0.9835,4.471553 -3.769821,10.025251 -6.940219,12.933113 -2.024314,1.856681 -4.265299,3.348912 -6.648647,4.520833 H 54.726144 C 57.094749,59.017544 59,57.134733 59,54.796051 V 37.203949 33.865133 c -1.291848,-3.268841 -3.154615,-6.321621 -5.67034,-8.995615 -2.941146,-3.126171 -7.309227,-5.742432 -11.831752,-6.712172 -4.522525,-0.96973 -9.588769,-0.293108 -13.143834,3.154606 -1.217647,1.180869 -2.246771,2.927885 -2.608818,4.720395 -0.362032,1.792505 -0.05849,3.627769 1.377301,4.985197 0.455681,0.430809 1.522313,0.795489 2.205986,0.917211 0.679466,0.120984 1.677021,0.111996 2.171457,-0.425983 z"
       id="path5" />
    <path
       style="opacity:0.2;fill:#ffffff;stroke-width:0.982299"
       d="M 8.273856,4 C 5.90525,4 4,5.8828108 4,8.2214913 V 9.2039474 C 4,6.8652669 5.90525,4.9824562 8.273856,4.9824562 H 29.980748 C 30.579622,4.6338409 31.187511,4.3045711 31.806919,4 Z M 38.03547,17.756305 c -3.499465,-0.0572 -7.015098,0.969861 -9.681397,3.555647 -1.217647,1.180869 -2.246769,2.927884 -2.608816,4.720394 -0.123038,0.609178 -0.162201,1.222377 -0.113176,1.820998 0.02233,-0.279238 0.05679,-0.559411 0.113176,-0.838541 0.362047,-1.792511 1.391169,-3.539526 2.608816,-4.720394 3.555065,-3.447715 8.62131,-4.124336 13.143835,-3.154607 4.522525,0.96974 8.890607,3.586001 11.831752,6.712172 2.515725,2.673994 4.378492,5.726774 5.67034,8.995614 V 33.865133 C 57.708152,30.596292 55.845385,27.543512 53.32966,24.869518 50.388515,21.743347 46.020433,19.127086 41.497908,18.157346 40.367277,17.914914 39.201958,17.775369 38.03547,17.756305 Z m -20.204905,7.759869 c -0.0033,0.09386 -0.01754,0.188331 -0.01917,0.282071 -0.05859,3.352324 1.116476,7.282631 3.740584,9.920505 1.199962,1.206266 2.977786,2.22025 4.799455,2.578947 1.821673,0.35869 3.690017,-0.605242 5.071847,-2.030153 0.440181,-0.453901 0.815524,-1.12641 0.939942,-1.807566 0.04258,-0.233103 9.81e-4,-0.478961 -0.07099,-0.72341 -0.161824,0.589124 -0.485079,1.152665 -0.868967,1.548519 -1.38183,1.424912 -3.250174,2.388845 -5.071848,2.030158 -1.821666,-0.358701 -3.599491,-1.372686 -4.799453,-2.578952 -2.444615,-2.457438 -3.617822,-6.03159 -3.721401,-9.220119 z m 12.877199,4.747258 c -0.02372,0.08638 -0.05507,0.171937 -0.07099,0.259047 -0.07828,0.428629 0.07985,0.898397 0.337612,1.316337 0.201294,-0.07654 0.386026,-0.178175 0.525605,-0.330044 -0.361612,-0.324433 -0.655304,-0.780287 -0.792239,-1.24534 z M 31.5,31.508772 c 0.202176,0.181389 0.376498,0.410653 0.5256,0.652412 0.511759,-0.194581 1.158201,-0.182774 1.645857,-0.09594 0.683672,0.121725 1.750303,0.486404 2.205984,0.917213 0.947844,0.896111 1.39525,2.001379 1.490479,3.1642 0.121096,-1.513956 -0.278267,-3.0006 -1.490479,-4.146652 C 35.42176,31.569197 34.355129,31.204516 33.671457,31.08279 32.991991,30.961806 31.994436,30.97079 31.5,31.508776 Z m 13.669434,6.975054 c -0.03645,1.024988 -0.162241,2.055662 -0.387487,3.079771 -0.9835,4.471553 -3.769822,10.025251 -6.94022,12.933114 -2.024314,1.856681 -4.265298,3.348912 -6.648646,4.520833 h 1.826171 c 1.705457,-0.992778 3.324261,-2.16423 4.822475,-3.538377 3.170398,-2.907863 5.95672,-8.461562 6.94022,-12.933115 0.245872,-1.117885 0.387223,-2.244394 0.40667,-3.361841 0.004,-0.229304 -0.01158,-0.466272 -0.01918,-0.700385 z"
       id="path6" />
  </g>
</svg>
