<?xml version="1.0" encoding="UTF-8" standalone="no"?>
<svg
   width="62"
   height="62"
   version="1.1"
   id="svg7"
   sodipodi:docname="mellowplayer.svg"
   inkscape:version="1.4 (e7c3feb100, 2024-10-09)"
   xmlns:inkscape="http://www.inkscape.org/namespaces/inkscape"
   xmlns:sodipodi="http://sodipodi.sourceforge.net/DTD/sodipodi-0.dtd"
   xmlns="http://www.w3.org/2000/svg"
   xmlns:svg="http://www.w3.org/2000/svg">
  <defs
     id="defs7" />
  <sodipodi:namedview
     id="namedview7"
     pagecolor="#ffffff"
     bordercolor="#000000"
     borderopacity="0.25"
     inkscape:showpageshadow="2"
     inkscape:pageopacity="0.0"
     inkscape:pagecheckerboard="0"
     inkscape:deskcolor="#d1d1d1"
     inkscape:zoom="11.6875"
     inkscape:cx="31.957219"
     inkscape:cy="32"
     inkscape:window-width="1920"
     inkscape:window-height="994"
     inkscape:window-x="0"
     inkscape:window-y="0"
     inkscape:window-maximized="1"
     inkscape:current-layer="svg7" />
  <g
     id="g7"
     transform="translate(-0.49999845,-1)">
    <path
       style="opacity:0.2;stroke-width:0.981616"
       d="M 22.673065,4.982456 A 16.673067,16.70175 0 0 0 5.9999988,21.68421 16.673067,16.70175 0 0 0 9.9728766,32.479712 16.673067,16.70175 0 0 0 5.999999,43.29825 16.673067,16.70175 0 0 0 22.673065,60 16.673067,16.70175 0 0 0 38.668032,47.968746 15.692304,15.7193 0 0 0 41.307677,48.21053 15.692304,15.7193 0 0 0 56.999982,32.49123 15.692304,15.7193 0 0 0 41.307677,16.77193 15.692304,15.7193 0 0 0 38.664203,16.998359 16.673067,16.70175 0 0 0 22.673065,4.982456 Z"
       id="path1" />
    <ellipse
       style="fill:#5f81d4;stroke-width:0.981616"
       cx="41.307697"
       cy="31.508774"
       id="circle1"
       rx="15.692301"
       ry="15.719296" />
    <ellipse
       style="fill:#5f81d4;stroke-width:0.981616"
       cx="22.673065"
       cy="20.701748"
       id="circle2"
       rx="16.673065"
       ry="16.701748" />
    <path
       style="opacity:0.2;fill:#ffffff;stroke-width:0.981616"
       d="M 22.673065,4 A 16.673067,16.70175 0 0 0 5.9999988,20.70175 16.673067,16.70175 0 0 0 6.02107,21.114312 16.673067,16.70175 0 0 1 22.673065,4.982456 16.673067,16.70175 0 0 1 38.666113,16.996436 15.692304,15.7193 0 0 1 41.307677,16.77193 15.692304,15.7193 0 0 1 56.978914,32.078678 15.692304,15.7193 0 0 0 56.999978,31.50877 15.692304,15.7193 0 0 0 41.307673,15.78947 15.692304,15.7193 0 0 0 38.666109,16.013976 16.673067,16.70175 0 0 0 22.673065,4 Z"
       id="path2" />
    <ellipse
       style="fill:#5f81d4;stroke-width:0.981616"
       cx="22.673065"
       cy="42.315796"
       id="circle3"
       rx="16.673065"
       ry="16.701748" />
    <path
       style="opacity:0.2;stroke-width:0.981616"
       d="m 33.461526,12.84211 a 9.8076886,9.824561 0 0 0 -9.807688,9.82456 9.8076886,9.824561 0 0 0 9.807688,9.82456 9.8076886,9.824561 0 0 0 9.807687,-9.82456 9.8076886,9.824561 0 0 0 -9.807687,-9.82456 z m 0,19.64912 a 9.8076886,9.824561 0 0 0 -9.807688,9.82456 9.8076886,9.824561 0 0 0 9.807688,9.82456 9.8076886,9.824561 0 0 0 9.807687,-9.82456 9.8076886,9.824561 0 0 0 -9.807687,-9.82456 z M 15.807687,22.66667 a 9.8076886,9.824561 0 0 0 -9.807688,9.82456 9.8076886,9.824561 0 0 0 9.807688,9.82456 9.8076886,9.824561 0 0 0 9.807686,-9.82456 9.8076886,9.824561 0 0 0 -9.807686,-9.82456 z"
       id="path3" />
    <ellipse
       style="fill:#f2f2f2;stroke-width:0.981616"
       cx="15.80769"
       cy="31.508774"
       id="circle4"
       rx="9.8076897"
       ry="9.8245621" />
    <ellipse
       style="fill:#f2f2f2;stroke-width:0.981616"
       cx="33.46154"
       cy="41.333344"
       id="circle5"
       rx="9.8076897"
       ry="9.8245621" />
    <ellipse
       style="fill:#f2f2f2;stroke-width:0.981616"
       cx="33.46154"
       cy="21.684219"
       id="circle6"
       rx="9.8076897"
       ry="9.8245621" />
    <path
       style="opacity:0.2;stroke-width:0.981616"
       d="m 16.447902,12.951793 c 0.674498,-0.333164 1.322491,0.198897 1.322491,0.198897 l 15.474245,9.036238 14.96175,8.745848 c 0,0 0.947443,0.456486 0.947443,1.54747 0,1.093982 -0.955295,1.450018 -0.955295,1.450018 L 33.210282,42.676108 17.387488,51.90827 c 0,0 -0.461442,0.40477 -1.05642,0.1452 -0.679414,-0.298358 -0.502686,-1.05718 -0.502686,-1.05718 V 32.431518 14.166104 c 9.78e-4,0 -0.07464,-0.871199 0.61952,-1.214307 z"
       id="path6" />
    <path
       style="fill:#ffbf00;stroke-width:0.981616"
       d="m 16.447902,11.969332 c 0.674498,-0.333163 1.322491,0.198907 1.322491,0.198907 l 15.474245,9.036239 14.96175,8.745838 c 0,0 0.947443,0.456486 0.947443,1.54748 0,1.093972 -0.955295,1.450008 -0.955295,1.450008 L 33.210282,41.693648 17.387488,50.92581 c 0,0 -0.461442,0.40477 -1.05642,0.14521 -0.679414,-0.298368 -0.502686,-1.05719 -0.502686,-1.05719 V 31.449068 13.183653 c 9.78e-4,0 -0.07464,-0.871208 0.61952,-1.214317 z"
       id="path7" />
  </g>
</svg>
