<?xml version="1.0" encoding="UTF-8" standalone="no"?>
<svg
   width="62"
   height="62"
   version="1.1"
   id="svg5"
   sodipodi:docname="mendeleydesktop.svg"
   inkscape:version="1.4 (e7c3feb100, 2024-10-09)"
   xmlns:inkscape="http://www.inkscape.org/namespaces/inkscape"
   xmlns:sodipodi="http://sodipodi.sourceforge.net/DTD/sodipodi-0.dtd"
   xmlns:xlink="http://www.w3.org/1999/xlink"
   xmlns="http://www.w3.org/2000/svg"
   xmlns:svg="http://www.w3.org/2000/svg">
  <defs
     id="defs5">
    <linearGradient
       id="linearGradient8"
       inkscape:collect="always">
      <stop
         style="stop-color:#2d3d53;stop-opacity:1;"
         offset="0"
         id="stop8" />
      <stop
         style="stop-color:#354864;stop-opacity:1;"
         offset="1"
         id="stop10" />
    </linearGradient>
    <linearGradient
       id="linearGradient4217">
      <stop
         style="stop-color:#000000;stop-opacity:1;"
         offset="0"
         id="stop2" />
      <stop
         style="stop-color:#000000;stop-opacity:0;"
         offset="1"
         id="stop4" />
    </linearGradient>
    <linearGradient
       id="linearGradient4161">
      <stop
         style="stop-color:#334545;stop-opacity:1;"
         offset="0"
         id="stop7" />
      <stop
         style="stop-color:#4d6868;stop-opacity:1"
         offset="1"
         id="stop9" />
    </linearGradient>
    <linearGradient
       id="a-1-2"
       y1="510.79999"
       y2="527.14001"
       gradientUnits="userSpaceOnUse"
       x2="0">
      <stop
         stop-color="#7cbaf8"
         id="stop2-2-7" />
      <stop
         offset="1"
         stop-color="#f4fcff"
         id="stop4-70-0" />
    </linearGradient>
    <linearGradient
       id="c"
       y1="503.79999"
       x1="400.57001"
       y2="519.79999"
       x2="416.57001"
       gradientUnits="userSpaceOnUse">
      <stop
         stop-color="#292c2f"
         id="stop12" />
      <stop
         offset="1"
         stop-opacity="0"
         id="stop14" />
    </linearGradient>
    <linearGradient
       id="b"
       y1="542.79999"
       x1="408.57001"
       y2="521.79999"
       x2="387.57001"
       gradientUnits="userSpaceOnUse"
       gradientTransform="translate(-384.57,-499.8)">
      <stop
         stop-color="#197cf1"
         id="stop7-8" />
      <stop
         offset="1"
         stop-color="#20bcfa"
         id="stop9-7" />
    </linearGradient>
    <linearGradient
       xlink:href="#linearGradient1389"
       id="linearGradient4503-5-6"
       y1="37"
       y2="4"
       x2="0"
       gradientUnits="userSpaceOnUse"
       gradientTransform="matrix(1.0218446,0,0,0.99999999,21.748946,8.2587777)" />
    <linearGradient
       id="linearGradient1389">
      <stop
         style="stop-color:#ffaaaa;stop-opacity:1"
         id="stop1385"
         offset="0" />
      <stop
         offset="1"
         style="stop-color:#ff5555;stop-opacity:1"
         id="stop1387" />
    </linearGradient>
    <linearGradient
       id="paint543_linear_890_11"
       x1="978.5"
       y1="298"
       x2="978.5"
       y2="304"
       gradientUnits="userSpaceOnUse"
       gradientTransform="matrix(0.75000004,0,0,0.75000004,-717.38333,-173.49123)">
      <stop
         offset="0.189495"
         stop-color="#EFF2F6"
         id="stop1829" />
      <stop
         offset="0.850463"
         stop-color="#B7C6CD"
         id="stop1830" />
    </linearGradient>
    <linearGradient
       inkscape:collect="always"
       xlink:href="#linearGradient8"
       id="linearGradient10"
       x1="31.5"
       y1="59.017544"
       x2="31.5"
       y2="4.9824562"
       gradientUnits="userSpaceOnUse" />
    <linearGradient
       inkscape:collect="always"
       xlink:href="#linearGradient4217"
       id="linearGradient861"
       gradientUnits="userSpaceOnUse"
       gradientTransform="matrix(1.0500005,0,0,1.0500005,12.146541,64.079047)"
       x1="15.422"
       y1="13.478"
       x2="35.019001"
       y2="33.075001" />
    <linearGradient
       inkscape:collect="always"
       xlink:href="#linearGradient4144"
       id="linearGradient863"
       gradientUnits="userSpaceOnUse"
       gradientTransform="matrix(1.0500005,0,0,1.0500005,12.146541,64.079047)"
       x1="14.023"
       y1="8.1289997"
       x2="27.879"
       y2="34.944" />
    <linearGradient
       id="linearGradient4144">
      <stop
         style="stop-color:#c83771;stop-opacity:1"
         offset="0"
         id="stop1141" />
      <stop
         style="stop-color:#de87aa;stop-opacity:1"
         offset="1"
         id="stop1143" />
    </linearGradient>
  </defs>
  <sodipodi:namedview
     id="namedview5"
     pagecolor="#ffffff"
     bordercolor="#000000"
     borderopacity="0.25"
     inkscape:showpageshadow="2"
     inkscape:pageopacity="0.0"
     inkscape:pagecheckerboard="0"
     inkscape:deskcolor="#d1d1d1"
     inkscape:zoom="8.2643105"
     inkscape:cx="39.023219"
     inkscape:cy="32.670602"
     inkscape:window-width="1920"
     inkscape:window-height="994"
     inkscape:window-x="0"
     inkscape:window-y="0"
     inkscape:window-maximized="1"
     inkscape:current-layer="svg5" />
  <rect
     style="opacity:0.2;stroke-width:0.9823"
     width="55"
     height="55.017544"
     x="4"
     y="4.9824562"
     rx="8.25"
     ry="8.2526312"
     id="rect1" />
  <rect
     style="fill:url(#linearGradient10);stroke-width:0.9823"
     width="55"
     height="55.017544"
     x="4"
     y="4"
     rx="8.25"
     ry="8.2526312"
     id="rect2" />
  <path
     style="opacity:0.1;fill:#ffffff;stroke-width:0.9823"
     d="M 12.248466,4 C 7.6779652,4 4,7.6791384 4,12.251097 v 0.982456 C 4,8.6615945 7.6779652,4.9824561 12.248466,4.9824561 H 50.751534 C 55.322034,4.9824561 59,8.6615945 59,13.233553 V 12.251097 C 59,7.6791384 55.322034,4 50.751534,4 Z"
     id="path4" />
  <g
     id="g1"
     transform="matrix(1.2507959,0,0,1.2285692,-15.312961,-77.46453)">
    <path
       style="opacity:0.3;fill:url(#linearGradient861);fill-opacity:1;stroke:none;stroke-width:2.1;stroke-linecap:round;stroke-linejoin:round;stroke-miterlimit:4;stroke-dasharray:none;stroke-opacity:1"
       d="m 28.411293,77.868502 -0.05744,13.440825 -3.886232,5.70117 -1.966701,2.481446 10.795311,10.795317 h 21.926966 c 1.745104,0 3.150004,-1.4049 3.150004,-3.15 V 87.720458 l -8.648154,-8.648149 -8.94346,8.94346 -9.056256,-9.056248 z"
       id="path1165-2" />
    <path
       style="fill:url(#linearGradient863);fill-opacity:1;stroke-width:1.05"
       d="m 28.442983,77.731449 c -1.370982,0.0427 -2.695242,0.662064 -3.709646,1.600305 -1.030935,0.953555 -1.769881,2.263694 -1.919511,3.672265 -0.07488,0.70432 -0.002,1.426217 0.227885,2.094857 0.229935,0.668744 0.618965,1.2831 1.135261,1.758961 0.608949,0.561173 1.37004,0.91518 2.06934,1.354183 0.349686,0.219536 0.68755,0.463146 0.977215,0.759494 0.289647,0.296336 0.53048,0.647876 0.663101,1.043246 0.118,0.35179 0.147119,0.73188 0.09445,1.099561 -0.05268,0.36781 -0.186706,0.7227 -0.38185,1.03699 -0.390273,0.628689 -1.019547,1.08643 -1.710136,1.331186 -0.800975,0.28385 -1.683362,0.297935 -2.455322,0.65516 -0.610905,0.28267 -1.124759,0.775598 -1.445323,1.374978 -0.320482,0.599413 -0.447427,1.302523 -0.369538,1.980086 0.09153,0.796197 0.466348,1.553477 1.028527,2.115755 0.562185,0.562244 1.3061,0.928474 2.085825,1.049514 1.143241,0.17744 2.365337,-0.1945 3.196415,-1.011958 0.415542,-0.408724 0.732511,-0.919864 0.909452,-1.479344 0.176954,-0.559562 0.213514,-1.166237 0.09853,-1.742263 -0.08782,-0.439813 -0.260749,-0.856627 -0.42086,-1.274803 -0.160105,-0.41835 -0.310403,-0.846557 -0.349,-1.293601 -0.06812,-0.789364 0.229371,-1.592435 0.745222,-2.186631 0.515854,-0.59418 1.236585,-0.98516 1.997521,-1.158045 0.49095,-0.111534 1.002828,-0.13651 1.498664,-0.05009 0.495835,0.08659 0.97577,0.284892 1.377497,0.592566 0.401766,0.307667 0.722874,0.725854 0.901248,1.203927 0.178375,0.478064 0.20998,1.016 0.06772,1.506438 -0.14568,0.50231 -0.458816,0.933117 -0.776011,1.345782 -0.3172,0.412675 -0.649115,0.827155 -0.83761,1.314499 -0.20787,0.537456 -0.228645,1.143445 -0.08624,1.702577 0.14242,0.55904 0.443408,1.07184 0.837605,1.48764 0.43611,0.460106 0.98837,0.804726 1.58897,0.993166 0.60062,0.18856 1.214951,0.22118 1.843586,0.22118 0.628609,0 1.28394,-0.0327 1.884645,-0.22118 0.60062,-0.18844 1.1529,-0.53306 1.588972,-0.993166 0.39419,-0.41589 0.69518,-0.92864 0.8376,-1.48764 0.14242,-0.559152 0.12165,-1.165081 -0.0862,-1.702577 -0.18849,-0.487354 -0.5204,-0.901824 -0.83761,-1.314499 -0.317203,-0.412675 -0.630347,-0.843482 -0.776009,-1.345782 -0.142224,-0.490458 -0.110633,-1.028395 0.06772,-1.506438 0.178376,-0.478052 0.499483,-0.89625 0.901249,-1.203927 0.40176,-0.307674 0.8817,-0.506036 1.37749,-0.592566 0.49583,-0.08647 1.00771,-0.06149 1.49867,0.05009 0.76092,0.172855 1.48166,0.563826 1.99752,1.158045 0.51585,0.594186 0.81337,1.39734 0.74522,2.186631 -0.0386,0.447075 -0.18889,0.875291 -0.349,1.293601 -0.1601,0.418229 -0.33306,0.835043 -0.42086,1.274803 -0.11496,0.576016 -0.0784,1.182616 0.0986,1.742263 0.17695,0.55946 0.49392,1.070579 0.90946,1.479344 0.83109,0.817458 2.05317,1.189438 3.19641,1.011958 0.77966,-0.12103 1.52365,-0.48727 2.08583,-1.049514 0.56217,-0.562248 0.937,-1.319538 1.02852,-2.115755 0.0779,-0.677614 -0.0491,-1.380643 -0.36953,-1.980086 -0.32049,-0.599413 -0.83438,-1.092318 -1.44533,-1.374978 -0.77201,-0.357225 -1.65436,-0.371321 -2.4553,-0.65516 -0.69057,-0.244746 -1.31985,-0.702497 -1.71014,-1.331186 -0.19514,-0.3143 -0.32917,-0.66919 -0.38185,-1.03699 -0.0527,-0.367715 -0.0236,-0.747805 0.0944,-1.099561 0.13262,-0.39538 0.37344,-0.74691 0.6631,-1.043246 0.28966,-0.296348 0.62752,-0.539958 0.97721,-0.759494 0.69938,-0.43896 1.46044,-0.79297 2.06934,-1.354183 0.51631,-0.475817 0.90534,-1.090217 1.13526,-1.758961 0.22993,-0.66864 0.30271,-1.390517 0.22788,-2.094857 -0.14969,-1.408571 -0.88858,-2.71866 -1.91951,-3.672265 -1.0144,-0.938281 -2.33866,-1.557575 -3.70965,-1.600305 -0.68549,-0.02135 -1.37592,0.100498 -2.00781,0.371394 -0.63188,0.27092 -1.20319,0.691812 -1.64031,1.228921 -0.50112,0.615761 -0.81608,1.364056 -1.10449,2.107346 -0.28842,0.743428 -0.56102,1.501293 -0.997741,2.165836 -0.720176,1.09578 -1.85682,2.13654 -3.153361,2.13654 -1.29654,0 -2.433169,-1.040832 -3.15336,-2.13654 -0.43672,-0.664481 -0.70933,-1.422328 -0.997745,-2.165836 -0.288415,-0.743311 -0.603375,-1.491626 -1.104498,-2.107346 -0.43711,-0.53714 -1.008426,-0.958031 -1.640303,-1.228921 -0.631883,-0.27092 -1.322268,-0.39276 -2.007814,-0.371394 z M 37.34667,87.87812 a 2.1022059,2.1366459 0 0 1 2.10221,2.136541 2.1022059,2.1366459 0 0 1 -2.10221,2.13654 2.1022059,2.1366459 0 0 1 -2.102205,-2.13654 2.1022059,2.1366459 0 0 1 2.102205,-2.136541 z"
       id="path1167-9" />
  </g>
</svg>
