<?xml version="1.0" encoding="UTF-8" standalone="no"?>
<svg
   width="62"
   height="62"
   version="1.1"
   id="svg10"
   sodipodi:docname="menulibre.svg"
   inkscape:version="1.4 (e7c3feb100, 2024-10-09)"
   xmlns:inkscape="http://www.inkscape.org/namespaces/inkscape"
   xmlns:sodipodi="http://sodipodi.sourceforge.net/DTD/sodipodi-0.dtd"
   xmlns="http://www.w3.org/2000/svg"
   xmlns:svg="http://www.w3.org/2000/svg">
  <defs
     id="defs10" />
  <sodipodi:namedview
     id="namedview10"
     pagecolor="#ffffff"
     bordercolor="#000000"
     borderopacity="0.25"
     inkscape:showpageshadow="2"
     inkscape:pageopacity="0.0"
     inkscape:pagecheckerboard="0"
     inkscape:deskcolor="#d1d1d1"
     inkscape:zoom="11.71875"
     inkscape:cx="32"
     inkscape:cy="32"
     inkscape:window-width="1920"
     inkscape:window-height="996"
     inkscape:window-x="0"
     inkscape:window-y="0"
     inkscape:window-maximized="1"
     inkscape:current-layer="svg10" />
  <g
     id="g10">
    <path
       style="opacity:0.2;stroke-width:0.981525"
       d="M 9.5128198,3.9830506 H 53.487179 C 54.879265,3.9830506 56,5.1026192 56,6.4983132 V 52.829642 c 0,1.395834 -1.120735,2.272027 -2.512821,2.272027 H 24.694446 L 19.249994,61 13.805551,55.101669 H 9.5128198 C 8.120718,55.101669 7,54.225476 7,52.829642 V 6.4983132 C 7,5.1026192 8.120718,3.9830506 9.5128198,3.9830506 Z"
       id="path1" />
    <path
       style="fill:#e4e4e4;stroke-width:0.981525"
       d="M 9.5128198,2.9999999 H 53.487179 C 54.879265,2.9999999 56,4.1195686 56,5.5152629 V 51.84659 c 0,1.395835 -1.120735,2.272062 -2.512821,2.272062 H 24.694446 l -5.444452,5.898296 -5.444443,-5.898296 H 9.5128198 C 8.120718,54.118652 7,53.242425 7,51.84659 V 5.5152629 C 7,4.1195686 8.120718,2.9999999 9.5128198,2.9999999 Z"
       id="path2" />
    <path
       style="opacity:0.1;stroke-width:0.981525"
       d="m 13.955703,11.847454 c -0.582408,0 -1.075714,0.494824 -1.075714,1.07906 v 3.740194 c 0,0.584236 0.493306,1.079058 1.075714,1.079058 h 3.728599 c 0.582406,0 1.075697,-0.494822 1.075697,-1.079058 v -3.740194 c 0,-0.584236 -0.493291,-1.07906 -1.075697,-1.07906 z m 13.6664,0 c -3.975822,-0.05644 -3.975822,5.954712 0,5.898312 h 19.557885 c 3.975841,0.05644 3.975841,-5.954712 0,-5.898312 z m -13.6664,13.762714 c -0.582408,0 -1.075714,0.494822 -1.075714,1.079038 v 3.740216 c 0,0.584224 0.493306,1.079044 1.075714,1.079044 h 3.728599 c 0.582407,0 1.075697,-0.49482 1.075697,-1.079044 v -3.740216 c 0,-0.584216 -0.49329,-1.079038 -1.075697,-1.079038 z m 13.6664,0 c -3.975822,-0.05644 -3.975822,5.954712 0,5.898298 h 19.557885 c 3.975841,0.05644 3.975841,-5.954698 0,-5.898298 z M 12.367028,37.40678 c -0.786353,0 -1.447024,0.662802 -1.447024,1.451543 v 6.931267 c 0,0.788896 0.66067,1.447696 1.447024,1.447696 h 6.90977 c 0.786352,0 1.443203,-0.6588 1.443203,-1.447696 v -6.931267 c 0,-0.788741 -0.656851,-1.451543 -1.443203,-1.451543 z m 15.255075,1.966105 c -3.975822,-0.05644 -3.975822,5.954709 0,5.898297 h 19.557885 c 3.975841,0.05644 3.975841,-5.9547 0,-5.898297 z"
       id="path3" />
    <path
       style="fill:#188eee;stroke-width:0.981525"
       d="m 12.365117,36.423728 c -0.786353,0 -1.445113,0.660888 -1.445113,1.449603 v 6.934476 c 0,0.788917 0.65876,1.446427 1.445113,1.446427 h 6.909757 c 0.786351,0 1.445129,-0.65751 1.445129,-1.446427 v -6.934476 c 0,-0.788715 -0.658778,-1.449603 -1.445129,-1.449603 z"
       id="path4" />
    <path
       style="fill:#898989;stroke-width:0.981525"
       d="m 13.953793,24.627115 c -0.582419,0 -1.073804,0.495789 -1.073804,1.080011 v 3.741143 c 0,0.584251 0.491385,1.077159 1.073804,1.077159 h 3.732418 c 0.582402,0 1.073788,-0.492908 1.073788,-1.077159 v -3.741143 c 0,-0.584222 -0.491386,-1.080011 -1.073788,-1.080011 z"
       id="path5" />
    <path
       style="fill:#898989;stroke-width:0.981525"
       d="m 13.953793,10.864399 c -0.582419,0 -1.073804,0.495792 -1.073804,1.080011 v 3.741173 c 0,0.584223 0.491385,1.07713 1.073804,1.07713 h 3.732418 c 0.582402,0 1.073787,-0.492907 1.073787,-1.07713 V 11.94441 c 0,-0.584219 -0.491385,-1.080011 -1.073787,-1.080011 z"
       id="path6" />
    <path
       style="fill:none;stroke:#898989;stroke-width:5.88918;stroke-linecap:round"
       d="M 27.621877,27.575972 H 47.179988"
       id="path7" />
    <path
       style="fill:#3d3846;stroke:#898989;stroke-width:5.88918;stroke-linecap:round"
       d="M 27.621877,13.81327 H 47.179988"
       id="path8" />
    <path
       style="fill:none;stroke:#188eee;stroke-width:5.88918;stroke-linecap:round"
       d="M 27.621877,41.338686 H 47.179988"
       id="path9" />
    <path
       style="opacity:0.2;fill:#ffffff;stroke-width:0.981525"
       d="M 9.5112497,3 C 8.1191479,3 7,4.1195336 7,5.5152278 V 6.4982784 C 7,5.1025839 8.1191479,3.9830506 9.5112497,3.9830506 H 53.488738 C 54.880849,3.9830506 56,5.1025839 56,6.4982784 V 5.5152278 C 56,4.1195336 54.880849,3 53.488738,3 Z"
       id="path10" />
  </g>
</svg>
