<?xml version="1.0" encoding="UTF-8" standalone="no"?>
<svg
   width="62"
   height="62"
   version="1"
   id="svg5"
   sodipodi:docname="mercury-browser.svg"
   inkscape:version="1.4 (e7c3feb100, 2024-10-09)"
   xmlns:inkscape="http://www.inkscape.org/namespaces/inkscape"
   xmlns:sodipodi="http://sodipodi.sourceforge.net/DTD/sodipodi-0.dtd"
   xmlns="http://www.w3.org/2000/svg"
   xmlns:svg="http://www.w3.org/2000/svg">
  <sodipodi:namedview
     id="namedview5"
     pagecolor="#ffffff"
     bordercolor="#000000"
     borderopacity="0.25"
     inkscape:showpageshadow="2"
     inkscape:pageopacity="0.0"
     inkscape:pagecheckerboard="0"
     inkscape:deskcolor="#d1d1d1"
     inkscape:zoom="8.2643105"
     inkscape:cx="20.388876"
     inkscape:cy="35.453653"
     inkscape:window-width="1920"
     inkscape:window-height="994"
     inkscape:window-x="0"
     inkscape:window-y="0"
     inkscape:window-maximized="1"
     inkscape:current-layer="svg5" />
  <defs
     id="defs3">
    <filter
       id="c"
       width="1.1499972"
       height="1.1499975"
       x="-0.074998612"
       y="-0.074998749"
       color-interpolation-filters="sRGB">
      <feGaussianBlur
         stdDeviation="10.327"
         id="feGaussianBlur1" />
    </filter>
    <filter
       id="a"
       width="1.054"
       height="1.054"
       x="-0.027"
       y="-0.027"
       color-interpolation-filters="sRGB">
      <feGaussianBlur
         stdDeviation=".675"
         id="feGaussianBlur2" />
    </filter>
    <linearGradient
       id="b"
       x1="7.9369998"
       x2="7.9369998"
       y1="15.081"
       y2="1.852"
       gradientTransform="matrix(4.0494,0,0,4.0494,-28.638941,70.988642)"
       gradientUnits="userSpaceOnUse">
      <stop
         offset="0"
         stop-color="#f1efeb"
         id="stop2" />
      <stop
         offset="1"
         stop-color="#fdfcfc"
         id="stop3" />
    </linearGradient>
  </defs>
  <g
     id="g6"
     transform="matrix(1.0892857,0,0,1.0892857,-8.2143308,-8.3764092)">
    <circle
       cx="35.999828"
       cy="36.124245"
       r="19.478291"
       fill="#5743ff"
       fill-rule="evenodd"
       style="stroke-width:1.21739;paint-order:stroke fill markers"
       id="circle4" />
    <g
       stroke-width="0.353"
       id="g5"
       transform="matrix(1.2173931,0,0,1.2173931,-2.9567475,-2.8323284)">
      <path
         d="M 200.9,384.82 C 176.168,383.225 150.869,375.6 129.462,363.288 107.287,350.535 87.691,332.108 73.711,310.863 52.132,278.071 42.93,239 47.632,200.133 c 3.084,-25.495 11.917,-49.576 26.079,-71.098 5.921,-8.999 11.679,-16.121 19.582,-24.224 8.784,-9.007 16.401,-15.372 26.291,-21.969 16.863,-11.248 33.662,-18.663 52.917,-23.359 33.199,-8.096 66.14,-5.925 99.307,6.544 8.557,3.217 15.065,4.63 24.659,5.356 4.91,0.37 6.607,0.33 15.735,-0.376 5.627,-0.435 13.247,-0.877 16.933,-0.981 12.749,-0.36 18.386,1.444 20.554,6.58 1.542,3.653 1.583,4.156 1.85,22.85 0.272,19.124 0.524,22.5 2.294,30.787 1.299,6.082 2.384,9.09 5.948,16.482 10.134,21.022 15.298,40.468 16.799,63.256 1.548,23.523 -2.524,48.96 -11.368,71.012 -10.946,27.293 -28.107,50.232 -51.6,68.97 -4.51,3.599 -14.176,10.12 -19.755,13.328 -5.715,3.287 -16.56,8.466 -22.401,10.698 -22.81,8.717 -46.642,12.376 -70.556,10.834 z m 19.932,-48.113 c 29.141,-2.511 55.345,-14.869 75.174,-35.453 18.271,-18.966 29.068,-41.948 32.298,-68.744 0.614,-5.091 0.614,-20.033 0,-25.125 -3.231,-26.809 -14.019,-49.769 -32.298,-68.744 -26.178,-27.174 -63.85,-40.003 -101.46,-34.551 -40.131,5.819 -74.905,32.626 -90.828,70.021 -4.448,10.446 -7.183,20.936 -8.722,33.451 -0.602,4.89 -0.593,19.906 0.015,24.948 3.231,26.809 14.02,49.769 32.298,68.744 19.647,20.395 46.036,32.921 74.645,35.433 4.89,0.43 14.008,0.439 18.874,0.02 z"
         filter="url(#c)"
         opacity="0.15"
         transform="matrix(0.12104,0,0,0.12104,6.38,6.38)"
         id="path4" />
      <path
         fill="#1ae3dc"
         d="M 30.697,51.959 A 20.3,20.3 0 0 1 22.05,49.352 20.3,20.3 0 0 1 15.302,43.007 19.97,19.97 0 0 1 12.145,29.604 c 0.373,-3.086 1.443,-6 3.157,-8.606 a 18.7,18.7 0 0 1 2.37,-2.932 c 1.063,-1.09 1.985,-1.86 3.182,-2.659 2.041,-1.361 4.075,-2.259 6.405,-2.827 4.019,-0.98 8.006,-0.717 12.02,0.792 1.036,0.39 1.824,0.56 2.985,0.648 0.595,0.045 0.8,0.04 1.905,-0.045 a 53,53 0 0 1 2.05,-0.12 c 1.542,-0.043 2.225,0.176 2.487,0.797 0.187,0.443 0.192,0.503 0.224,2.766 0.033,2.315 0.063,2.723 0.278,3.727 0.157,0.736 0.288,1.1 0.72,1.995 1.226,2.544 1.851,4.898 2.033,7.656 0.187,2.847 -0.305,5.926 -1.376,8.595 -1.325,3.304 -3.402,6.08 -6.246,8.349 -0.546,0.435 -1.715,1.224 -2.39,1.613 a 25,25 0 0 1 -2.712,1.295 20.2,20.2 0 0 1 -8.54,1.311 m 2.412,-5.824 c 3.528,-0.304 6.7,-1.8 9.1,-4.291 2.21,-2.296 3.518,-5.078 3.909,-8.321 0.074,-0.616 0.074,-2.425 0,-3.041 -0.391,-3.245 -1.697,-6.024 -3.91,-8.32 -3.168,-3.29 -7.728,-4.843 -12.28,-4.183 -4.858,0.704 -9.067,3.95 -10.994,8.475 -0.539,1.265 -0.87,2.534 -1.056,4.05 -0.073,0.591 -0.072,2.409 0.002,3.019 0.391,3.245 1.697,6.024 3.91,8.32 2.377,2.47 5.572,3.986 9.034,4.29 0.592,0.052 1.696,0.053 2.285,0.002"
         id="path5" />
    </g>
  </g>
</svg>
