<?xml version="1.0" encoding="UTF-8" standalone="no"?>
<svg
   width="62"
   height="62"
   version="1.1"
   id="svg7"
   sodipodi:docname="microsoft-edge.svg"
   inkscape:version="1.4 (e7c3feb100, 2024-10-09)"
   xmlns:inkscape="http://www.inkscape.org/namespaces/inkscape"
   xmlns:sodipodi="http://sodipodi.sourceforge.net/DTD/sodipodi-0.dtd"
   xmlns="http://www.w3.org/2000/svg"
   xmlns:svg="http://www.w3.org/2000/svg">
  <defs
     id="defs7" />
  <sodipodi:namedview
     id="namedview7"
     pagecolor="#ffffff"
     bordercolor="#000000"
     borderopacity="0.25"
     inkscape:showpageshadow="2"
     inkscape:pageopacity="0.0"
     inkscape:pagecheckerboard="0"
     inkscape:deskcolor="#d1d1d1"
     inkscape:zoom="5.84375"
     inkscape:cx="37.219251"
     inkscape:cy="32.513369"
     inkscape:window-width="1920"
     inkscape:window-height="994"
     inkscape:window-x="0"
     inkscape:window-y="0"
     inkscape:window-maximized="1"
     inkscape:current-layer="svg7" />
  <g
     id="g7"
     transform="matrix(0.98215404,0,0,0.9824796,-0.42861462,-0.93125536)">
    <path
       style="opacity:0.2"
       class="cls-1"
       d="m 54.542218,46.672688 c -2.683152,2.639903 -6.845336,3.266532 -10.157876,3.282805 -10.350362,0 -19.366462,-7.958643 -19.366462,-17.093801 0.02698,-2.494941 1.401901,-4.780028 3.593754,-5.972738 -9.361696,0.393663 -11.76774,10.147748 -11.76774,15.862418 0,16.157664 14.893408,17.795737 18.102195,17.795737 1.730163,0 4.339628,-0.503014 5.905744,-0.997279 l 0.286537,-0.09622 c 6.026579,-2.083149 11.164276,-6.155726 14.567498,-11.547435 0.486053,-0.765689 -0.370803,-1.673961 -1.16365,-1.233478 z"
       id="path1" />
    <path
       style="fill:#0e539b"
       class="cls-1"
       d="m 54.542218,45.672735 c -2.683152,2.639902 -6.845336,3.266532 -10.157876,3.282805 -10.350362,0 -19.366462,-7.958643 -19.366462,-17.093801 0.02698,-2.494941 1.401901,-4.780028 3.593754,-5.972738 -9.361696,0.393663 -11.76774,10.147748 -11.76774,15.862418 0,16.157663 14.893408,17.795737 18.102195,17.795737 1.730163,0 4.339628,-0.503014 5.905744,-0.997279 l 0.286537,-0.09622 c 6.026579,-2.08315 11.164276,-6.155726 14.567498,-11.547436 0.486053,-0.765688 -0.370803,-1.67396 -1.16365,-1.233477 z"
       id="path2" />
    <path
       style="opacity:0.2"
       class="cls-3"
       d="m 26.286664,57.80022 c -1.950944,-1.210728 -3.641694,-2.797171 -4.973947,-4.667091 -6.46449,-8.855578 -2.537456,-21.39942 7.298917,-26.244175 0.682442,-0.32149 1.848278,-0.903236 3.399084,-0.874803 2.214872,0.0162 4.294409,1.068295 5.619202,2.843117 0.883287,1.179203 1.370292,2.607855 1.391131,4.080969 0,-0.04592 5.350167,-17.408635 -17.498495,-17.408635 -9.602301,0 -17.498497,9.111101 -17.498497,17.10464 -0.037875,4.228477 0.8669923,8.412266 2.6488349,12.24728 6.0277181,12.859241 20.7306341,19.168095 34.2051861,14.677056 -4.612828,1.4542 -10.471057,0.814789 -14.571728,-1.749611 z"
       id="path3" />
    <path
       style="fill:#0b87da"
       class="cls-3"
       d="m 26.286664,56.800266 c -1.950944,-1.210727 -3.641694,-2.79717 -4.973947,-4.66709 -6.46449,-8.855578 -2.537456,-21.39942 7.298917,-26.244175 0.682442,-0.32149 1.848278,-0.903237 3.399084,-0.874803 2.214872,0.0162 4.294409,1.068295 5.619202,2.843117 0.883287,1.179202 1.370292,2.607855 1.391131,4.080968 0,-0.04592 5.350167,-17.408635 -17.498495,-17.408635 -9.602301,0 -17.498497,9.111102 -17.498497,17.104641 -0.037875,4.228476 0.8669923,8.412266 2.6488349,12.24728 6.0277181,12.859241 20.7306341,19.168095 34.2051861,14.677056 -4.612828,1.4542 -10.471057,0.814789 -14.571728,-1.749611 z"
       id="path4" />
    <path
       style="opacity:0.2"
       class="cls-5"
       d="m 37.319323,36.317829 c -0.177175,0.229635 -0.721815,0.546751 -0.721815,1.237849 0,0.570809 0.371846,1.119752 1.032412,1.581213 3.145356,2.187013 9.075159,1.898328 9.090471,1.898328 2.330637,-0.0056 4.6171,-0.636231 6.620993,-1.82616 4.113389,-2.401467 6.64623,-5.562951 6.65599,-10.325547 0.05686,-4.901099 -1.749849,-8.159749 -2.480412,-9.603179 C 52.882048,10.215157 42.877283,5.0013144 31.997592,5.0013144 16.687407,4.999801 4.2152981,17.294849 3.9999985,32.601436 4.1049891,24.610086 12.049307,17.19584 21.498496,17.19584 c 0.765556,0 5.131434,0.07436 9.186709,2.202324 3.574068,1.876456 5.446408,5.102572 6.747858,7.348636 1.891605,3.568762 1.973013,6.846579 -0.11374,9.571029 z"
       id="path5" />
    <path
       style="fill:#17dcbe"
       class="cls-5"
       d="m 37.319323,35.317876 c -0.177175,0.229635 -0.721815,0.546751 -0.721815,1.237849 0,0.570809 0.371846,1.119752 1.032412,1.581213 3.145356,2.187013 9.075159,1.898328 9.090471,1.898328 2.330637,-0.0056 4.6171,-0.636232 6.620993,-1.82616 4.113389,-2.401467 6.64623,-5.562951 6.65599,-10.325547 0.05687,-4.9011 -1.749849,-8.15975 -2.480412,-9.603181 C 52.882048,9.2152035 42.877283,4.0013608 31.997592,4.0013608 16.687407,3.9998474 4.2152981,16.294895 3.9999985,31.601483 4.1049891,23.610133 12.049307,16.195887 21.498496,16.195887 c 0.765556,0 5.131434,0.07436 9.186709,2.202324 3.574068,1.876456 5.446408,5.102572 6.747858,7.348636 1.891605,3.568762 1.973013,6.846579 -0.11374,9.571029 z"
       id="path6" />
    <path
       style="opacity:0.2;fill:#ffffff"
       d="M 32,4.0019531 C 16.689815,4.0004397 4.2152996,16.294974 4,31.601562 4.0100889,30.833651 4.0936129,30.07136 4.2441406,29.320312 6.0491516,15.576554 17.801868,5.0005497 32,5.0019531 c 10.879691,0 20.882663,5.2141219 25.517578,14.2792969 0.695697,1.374542 2.348164,4.412321 2.457031,8.929688 0.0099,-0.107943 0.0232,-0.213948 0.02344,-0.328126 0.05686,-4.901099 -1.749906,-8.156179 -2.480469,-9.599609 C 52.882663,9.218028 42.879691,4.0019531 32,4.0019531 Z m 6.792969,27.7871089 c -0.163096,1.252086 -0.636743,2.435984 -1.472657,3.527344 -0.177174,0.229635 -0.722656,0.547183 -0.722656,1.238282 0,0.172864 0.03976,0.343466 0.109375,0.509765 0.167799,-0.365838 0.485192,-0.582031 0.613281,-0.748047 0.835914,-1.09136 1.309561,-2.275258 1.472657,-3.527344 0.02406,0.189818 0.03368,0.377277 0.04492,0.564454 0.03446,-0.510514 0.0225,-1.032474 -0.04492,-1.564454 z"
       id="path7" />
  </g>
</svg>
