<?xml version="1.0" encoding="UTF-8" standalone="no"?>
<svg
   clip-rule="evenodd"
   fill-rule="evenodd"
   stroke-linejoin="round"
   stroke-miterlimit="2"
   viewBox="0 0 62 61.999996"
   version="1.1"
   id="svg11"
   sodipodi:docname="codeblocks.svg"
   width="62"
   height="62"
   inkscape:version="1.4 (e7c3feb100, 2024-10-09)"
   xmlns:inkscape="http://www.inkscape.org/namespaces/inkscape"
   xmlns:sodipodi="http://sodipodi.sourceforge.net/DTD/sodipodi-0.dtd"
   xmlns="http://www.w3.org/2000/svg"
   xmlns:svg="http://www.w3.org/2000/svg">
  <defs
     id="defs11" />
  <sodipodi:namedview
     id="namedview11"
     pagecolor="#ffffff"
     bordercolor="#000000"
     borderopacity="0.25"
     inkscape:showpageshadow="2"
     inkscape:pageopacity="0.0"
     inkscape:pagecheckerboard="0"
     inkscape:deskcolor="#d1d1d1"
     inkscape:zoom="11.019081"
     inkscape:cx="36.436796"
     inkscape:cy="33.12436"
     inkscape:window-width="1920"
     inkscape:window-height="994"
     inkscape:window-x="0"
     inkscape:window-y="0"
     inkscape:window-maximized="1"
     inkscape:current-layer="svg11" />
  <linearGradient
     id="a"
     x2="1"
     gradientTransform="matrix(0.235526,-20.3337,20.3337,0.235526,34.6772,45.4328)"
     gradientUnits="userSpaceOnUse">
    <stop
       stop-color="#3889e9"
       offset="0"
       id="stop1" />
    <stop
       stop-color="#5ea5fb"
       offset="1"
       id="stop2" />
  </linearGradient>
  <linearGradient
     id="b"
     x2="1"
     gradientTransform="matrix(-0.392542,-20.4907,20.4907,-0.392542,13.0088,23.2934)"
     gradientUnits="userSpaceOnUse">
    <stop
       stop-color="#d41a1a"
       offset="0"
       id="stop3" />
    <stop
       stop-color="#f55"
       offset="1"
       id="stop4" />
  </linearGradient>
  <linearGradient
     id="c"
     x2="1"
     gradientTransform="matrix(-4.24005,-174.613,174.613,-4.24005,-263.568,-847.411)"
     gradientUnits="userSpaceOnUse">
    <stop
       stop-color="#32a071"
       offset="0"
       id="stop5" />
    <stop
       stop-color="#00f076"
       offset="1"
       id="stop6" />
  </linearGradient>
  <linearGradient
     id="d"
     x2="1"
     gradientTransform="matrix(1.99878,347.692,-347.692,1.99878,-457.642,-745.711)"
     gradientUnits="userSpaceOnUse">
    <stop
       stop-color="#ffe000"
       offset="0"
       id="stop7" />
    <stop
       stop-color="#ff9c00"
       offset="1"
       id="stop8" />
  </linearGradient>
  <g
     fill-rule="nonzero"
     id="g11"
     transform="matrix(1.2922038,0,0,1.2922038,-0.0128876,-0.01302526)">
    <path
       d="m 24.959,45.64 c -0.038,-0.039 0,-4.713 0,-10.365 V 24.942 l 10.299,0.082 10.374,0.027 0.027,7.822 c 0.029,8.643 0.032,8.595 -0.621,9.877 -0.425,0.832 -1.402,1.84 -2.209,2.277 -1.236,0.67 -1.149,0.637 -9.882,0.639 -4.358,0.001 -7.95,0.013 -7.988,-0.026 z"
       id="path8"
       style="fill:#2a7fff" />
    <path
       d="M 2.332,14.851 C 2.333,8.107 2.359,6.531 2.479,6.137 3.014,4.372 4.438,2.989 6.246,2.479 6.675,2.358 8.223,2.332 14.913,2.332 h 8.145 V 23.058 H 12.694 2.332 Z"
       id="path9"
       style="fill:#ff2a2a" />
    <path
       d="m 24.968,12.715 0.027,-10.35 7.713,-0.028 c 5.01,-0.018 7.968,0.01 8.442,0.081 2.212,0.333 4.058,2.146 4.422,4.343 0.082,0.499 0.109,3.054 0.089,8.482 l 0.007,7.815 -10.381,-0.02 -10.345,0.02 z"
       id="path10"
       style="fill:#008a8a;fill-opacity:1" />
    <path
       d="m 23.041,45.65 c 0.038,-0.039 0,-5.598 0,-10.401 V 24.942 l -10.318,0.045 -10.355,0.027 -0.027,7.82 c -0.029,8.642 -0.032,8.593 0.62,9.875 0.424,0.833 1.4,1.84 2.205,2.278 1.234,0.669 1.147,0.663 9.864,0.665 4.351,10e-4 7.973,0.037 8.011,-0.002 z"
       id="path11"
       style="fill:#ffcc00" />
  </g>
</svg>
