<?xml version="1.0" encoding="UTF-8" standalone="no"?>
<svg
   width="62"
   height="62.000008"
   version="1.1"
   id="svg46"
   sodipodi:docname="mkvmerge.svg"
   inkscape:version="1.4 (e7c3feb100, 2024-10-09)"
   xmlns:inkscape="http://www.inkscape.org/namespaces/inkscape"
   xmlns:sodipodi="http://sodipodi.sourceforge.net/DTD/sodipodi-0.dtd"
   xmlns:xlink="http://www.w3.org/1999/xlink"
   xmlns="http://www.w3.org/2000/svg"
   xmlns:svg="http://www.w3.org/2000/svg">
  <sodipodi:namedview
     id="namedview48"
     pagecolor="#ffffff"
     bordercolor="#666666"
     borderopacity="1.0"
     inkscape:showpageshadow="2"
     inkscape:pageopacity="0.0"
     inkscape:pagecheckerboard="0"
     inkscape:deskcolor="#d1d1d1"
     showgrid="false"
     inkscape:zoom="4.9166667"
     inkscape:cx="79.220338"
     inkscape:cy="49.830508"
     inkscape:window-width="1920"
     inkscape:window-height="994"
     inkscape:window-x="0"
     inkscape:window-y="0"
     inkscape:window-maximized="1"
     inkscape:current-layer="svg46" />
  <defs
     id="defs26">
    <linearGradient
       id="a"
       y1="543.77002"
       x1="407.63"
       y2="504.13"
       x2="407.69"
       gradientUnits="userSpaceOnUse"
       gradientTransform="translate(-384.57,-499.8)"
       spreadMethod="pad">
      <stop
         stop-color="#c6cdd1"
         id="stop2" />
      <stop
         offset="1"
         stop-color="#e0e5e7"
         id="stop4" />
    </linearGradient>
    <linearGradient
       id="d"
       y1="26.030001"
       x1="29.438999"
       y2="35.796001"
       x2="38.259998"
       gradientUnits="userSpaceOnUse">
      <stop
         stop-color="#292c2f"
         id="stop7" />
      <stop
         offset="1"
         stop-color="#292c2f"
         stop-opacity="0"
         id="stop9" />
    </linearGradient>
    <linearGradient
       id="LO"
       gradientUnits="userSpaceOnUse"
       x1="319.20801"
       y1="235.149"
       x2="657.65302"
       y2="269.49399">
      <stop
         style="stop-color:#e54c18"
         offset="0"
         id="stop12" />
      <stop
         style="stop-color:#fec350"
         offset="1"
         id="stop14" />
    </linearGradient>
    <linearGradient
       xlink:href="#a"
       id="linearGradient4574"
       x1="25"
       y1="44"
       x2="25"
       y2="4"
       gradientUnits="userSpaceOnUse"
       gradientTransform="matrix(1.0499209,0,0,1.0498273,71.342689,24.563406)" />
    <linearGradient
       xlink:href="#a-5"
       id="linearGradient4582"
       x1="10.973"
       y1="24"
       x2="36.937"
       y2="24"
       gradientUnits="userSpaceOnUse"
       gradientTransform="matrix(1.0514032,0,0,1.0525214,71.354475,25.023623)" />
    <linearGradient
       xlink:href="#d"
       id="linearGradient4584"
       gradientUnits="userSpaceOnUse"
       x1="29.438999"
       y1="26.030001"
       x2="38.259998"
       y2="35.796001" />
    <linearGradient
       xlink:href="#LO"
       id="linearGradient4586"
       gradientUnits="userSpaceOnUse"
       gradientTransform="matrix(0.09264275,0,0,0.09151624,51.476922,28.123853)"
       x1="319.20801"
       y1="235.149"
       x2="657.65302"
       y2="269.49399" />
    <linearGradient
       gradientUnits="userSpaceOnUse"
       x2="0"
       y2="503.79999"
       y1="542.79999"
       id="a-5">
      <stop
         stop-color="#2a2c2f"
         id="stop21" />
      <stop
         stop-color="#424649"
         offset="1"
         id="stop23" />
    </linearGradient>
    <linearGradient
       xlink:href="#linearGradient4435"
       id="linearGradient4389-3-5"
       y1="524.79797"
       y2="515.79797"
       x2="0"
       gradientUnits="userSpaceOnUse"
       gradientTransform="matrix(1.3624978,0,0,1.3624978,-528.67724,-680.90488)" />
    <linearGradient
       id="linearGradient4435">
      <stop
         style="stop-color:#c61423"
         id="stop15" />
      <stop
         offset="1"
         style="stop-color:#dc2b41"
         id="stop17" />
    </linearGradient>
    <linearGradient
       gradientUnits="userSpaceOnUse"
       x2="0"
       y2="503.79999"
       y1="542.79999"
       id="a-5-7">
      <stop
         stop-color="#2a2c2f"
         id="stop21-5" />
      <stop
         stop-color="#424649"
         offset="1"
         id="stop23-3" />
    </linearGradient>
    <linearGradient
       xlink:href="#d"
       id="linearGradient4584-5"
       gradientUnits="userSpaceOnUse"
       x1="29.438999"
       y1="26.030001"
       x2="38.259998"
       y2="35.796001" />
    <linearGradient
       inkscape:collect="always"
       xlink:href="#a"
       id="linearGradient777"
       gradientUnits="userSpaceOnUse"
       gradientTransform="matrix(1.4000001,0,0,1.4000002,77.061009,-1.6510286)"
       x1="25"
       y1="44"
       x2="25"
       y2="4" />
  </defs>
  <g
     style="font-size:12.666px"
     font-size="12.666"
     transform="translate(-312.02763,-474.03728)"
     id="g32">
    <text
       style="font-family:'Droid Sans'"
       y="132.19"
       x="730.88"
       id="text30" />
  </g>
  <rect
     style="opacity:0.407407;fill:#000cff"
     height="0"
     width="0.045000002"
     y="48.292717"
     x="118.52237"
     id="rect36" />
  <g
     id="g1"
     transform="translate(-79.661018,-0.94897008)">
    <rect
       style="fill:url(#linearGradient777);fill-opacity:1;stroke-width:1.40001"
       width="56"
       height="56"
       x="82.661018"
       y="3.9489739"
       rx="28"
       id="rect28-2"
       ry="28" />
    <path
       d="m 125.83334,23.54577 a 20.090809,14.906162 59.008023 1 1 -25.5536,15.355382 20.090809,14.906162 59.008023 1 1 25.5536,-15.355382 z"
       fill="none"
       stroke="#474747"
       stroke-width="1.28247"
       id="path2" />
    <path
       d="m 113.02724,20.240117 c -6.64835,0 -12.03497,5.38553 -12.03497,12.036036 0,6.650506 5.38506,12.036037 12.03497,12.036037 6.6499,0 12.03496,-5.385531 12.03496,-12.036037 0,-6.650506 -5.38506,-12.036036 -12.03496,-12.036036 z m -2.15245,6.360875 c 4.52093,0 8.21846,3.649325 8.21846,8.170667 0,4.52134 -3.69753,8.219197 -8.21846,8.219197 -4.52095,0 -8.16994,-3.697857 -8.16994,-8.219197 0,-4.521342 3.64899,-8.170667 8.16994,-8.170667 z"
       fill="#462aae"
       id="path3"
       style="stroke-width:1.20022" />
    <path
       d="m 88.526218,32.383604 c 0,0 -4.697314,4.485924 -4.330551,7.287688 0.506236,3.864267 5.358519,4.480758 9.188003,4.435985 9.28443,-0.106764 42.3516,-10.957363 42.24313,-23.97429 -0.0344,-4.208674 -7.60387,-4.580636 -7.60387,-4.33094 0,0 5.61336,1.408632 5.49111,4.119128 -0.4563,10.10323 -28.07542,21.446331 -40.342162,21.756298 -2.574226,0.06544 -6.157479,-0.48906 -7.182002,-2.851704 -0.917768,-2.118113 2.534621,-6.442165 2.534621,-6.442165 z"
       fill="#474747"
       id="path4"
       style="stroke-width:1.32018" />
    <path
       d="m 125.7024,20.285171 a 5.86172,5.8622435 0 1 1 -11.72344,0 5.86172,5.8622435 0 1 1 11.72344,0 z"
       fill="#c4303d"
       id="path5"
       style="stroke-width:0.247138" />
    <path
       d="m 109.70399,39.772997 a 3.7493702,3.749705 0 1 1 -7.49874,0 3.7493702,3.749705 0 1 1 7.49874,0 z"
       fill="#606060"
       id="path6"
       style="stroke-width:0.158079" />
  </g>
</svg>
