<?xml version="1.0" encoding="UTF-8" standalone="no"?>
<svg
   width="62"
   height="62"
   version="1"
   id="svg7"
   sodipodi:docname="money-manager-ex.svg"
   inkscape:version="1.4 (e7c3feb100, 2024-10-09)"
   xmlns:inkscape="http://www.inkscape.org/namespaces/inkscape"
   xmlns:sodipodi="http://sodipodi.sourceforge.net/DTD/sodipodi-0.dtd"
   xmlns:xlink="http://www.w3.org/1999/xlink"
   xmlns="http://www.w3.org/2000/svg"
   xmlns:svg="http://www.w3.org/2000/svg">
  <defs
     id="defs7">
    <linearGradient
       id="linearGradient2"
       inkscape:collect="always">
      <stop
         style="stop-color:#20c997;stop-opacity:1"
         offset="0"
         id="stop13" />
      <stop
         style="stop-color:#6dc381;stop-opacity:1"
         offset="1"
         id="stop14" />
    </linearGradient>
    <linearGradient
       id="linearGradient7"
       inkscape:collect="always">
      <stop
         style="stop-color:#384850;stop-opacity:1;"
         offset="0"
         id="stop8" />
      <stop
         style="stop-color:#384850;stop-opacity:1;"
         offset="0.58519185"
         id="stop10" />
      <stop
         style="stop-color:#eff2f6;stop-opacity:1;"
         offset="0.86599815"
         id="stop11" />
      <stop
         style="stop-color:#eff2f6;stop-opacity:1;"
         offset="1"
         id="stop9" />
    </linearGradient>
    <linearGradient
       id="linearGradient1"
       inkscape:collect="always">
      <stop
         style="stop-color:#303c47;stop-opacity:1;"
         offset="0"
         id="stop5" />
      <stop
         style="stop-color:#363e48;stop-opacity:1;"
         offset="0.25046653"
         id="stop7" />
      <stop
         style="stop-color:#303c47;stop-opacity:1;"
         offset="0.91934216"
         id="stop12" />
      <stop
         style="stop-color:#303c47;stop-opacity:1;"
         offset="1"
         id="stop6" />
    </linearGradient>
    <linearGradient
       id="c-3"
       gradientUnits="userSpaceOnUse"
       x1="24.072048"
       x2="23.959682"
       y1="0.75082099"
       y2="46.056854">
      <stop
         offset="0"
         stop-color="#fff"
         id="stop3" />
      <stop
         offset="1"
         stop-color="#d9d9d9"
         id="stop4" />
    </linearGradient>
    <linearGradient
       id="b-6"
       gradientUnits="userSpaceOnUse"
       x1="29.203026"
       x2="34.121048"
       xlink:href="#a-7"
       y1="24.827356"
       y2="29.224836" />
    <linearGradient
       id="a-7">
      <stop
         offset="0"
         id="stop1" />
      <stop
         offset="1"
         stop-opacity="0"
         id="stop2" />
    </linearGradient>
    <linearGradient
       id="d"
       gradientUnits="userSpaceOnUse"
       x1="15.948756"
       x2="25.031786"
       xlink:href="#a-7"
       y1="23.618279"
       y2="33.69899" />
    <linearGradient
       id="e"
       gradientUnits="userSpaceOnUse"
       x1="21.990562"
       x2="29.320522"
       xlink:href="#a-7"
       y1="33.780373"
       y2="41.931858" />
    <linearGradient
       id="paint154_linear_890_11"
       x1="778"
       y1="812.29199"
       x2="788"
       y2="812.29199"
       gradientUnits="userSpaceOnUse"
       gradientTransform="translate(-751,-696)">
      <stop
         stop-color="#EFF2F6"
         id="stop1050" />
      <stop
         offset="0.600785"
         stop-color="#B7C6CD"
         id="stop1051" />
    </linearGradient>
    <linearGradient
       id="paint155_linear_890_11"
       x1="783"
       y1="813"
       x2="783"
       y2="817"
       gradientUnits="userSpaceOnUse"
       gradientTransform="translate(-751,-696)">
      <stop
         stop-color="#EFF2F6"
         id="stop1052" />
      <stop
         offset="0.734138"
         stop-color="#B7C6CD"
         id="stop1053" />
    </linearGradient>
    <radialGradient
       id="paint156_radial_890_11"
       cx="0"
       cy="0"
       r="1"
       gradientUnits="userSpaceOnUse"
       gradientTransform="matrix(27.999986,27.999976,-27.999986,27.999976,32.302392,33.999998)">
      <stop
         offset="0.60067803"
         stop-color="#B7C6CD"
         id="stop1054"
         style="stop-color:#424b58;stop-opacity:1;" />
      <stop
         offset="0.876735"
         stop-color="#EFF2F6"
         id="stop1055" />
    </radialGradient>
    <linearGradient
       id="paint157_linear_890_11"
       x1="796.84485"
       y1="799.43359"
       x2="768.90088"
       y2="770.81476"
       gradientUnits="userSpaceOnUse"
       gradientTransform="matrix(1.1666666,0,0,1.1666668,-881.19764,-881.8333)">
      <stop
         offset="0.00000057"
         stop-color="#2E2E41"
         id="stop1056"
         style="stop-color:#424b58;stop-opacity:1;" />
      <stop
         offset="0.71113902"
         stop-color="#566C80"
         id="stop1057"
         style="stop-color:#303c47;stop-opacity:1;" />
    </linearGradient>
    <linearGradient
       id="paint158_linear_890_11"
       x1="792"
       y1="794"
       x2="774"
       y2="776"
       gradientUnits="userSpaceOnUse"
       gradientTransform="translate(-751,-696)">
      <stop
         offset="0.304478"
         stop-color="#2E2E41"
         id="stop1058" />
      <stop
         offset="1"
         stop-color="#566C80"
         id="stop1059" />
    </linearGradient>
    <linearGradient
       id="paint159_linear_890_11"
       x1="788"
       y1="790"
       x2="778"
       y2="780"
       gradientUnits="userSpaceOnUse"
       gradientTransform="translate(-751,-696)">
      <stop
         offset="0.391394"
         stop-color="#5200FF"
         id="stop1060" />
      <stop
         offset="1"
         stop-color="#0085FF"
         id="stop1061" />
    </linearGradient>
    <linearGradient
       id="paint160_linear_890_11"
       x1="784"
       y1="798"
       x2="782"
       y2="796"
       gradientUnits="userSpaceOnUse"
       gradientTransform="translate(-751,-696)">
      <stop
         stop-color="#FF7E07"
         id="stop1062" />
      <stop
         offset="1"
         stop-color="#FFE607"
         id="stop1063" />
    </linearGradient>
    <linearGradient
       id="c-3-6"
       gradientUnits="userSpaceOnUse"
       x1="24.072048"
       x2="23.959682"
       y1="0.75082099"
       y2="46.056854"
       gradientTransform="matrix(0.91471346,0,0,0.90068147,9.0468769,9.3836444)">
      <stop
         offset="0"
         stop-color="#fff"
         id="stop3-2" />
      <stop
         offset="1"
         stop-color="#d9d9d9"
         id="stop4-9" />
    </linearGradient>
    <linearGradient
       id="b-6-1"
       gradientUnits="userSpaceOnUse"
       x1="29.203026"
       x2="34.121048"
       xlink:href="#a-7"
       y1="24.827356"
       y2="29.224836"
       gradientTransform="matrix(1.1104534,0,0,1.0934187,4.3491158,4.7861435)" />
    <linearGradient
       id="d-0"
       gradientUnits="userSpaceOnUse"
       x1="15.948756"
       x2="25.031786"
       xlink:href="#a-7"
       y1="23.618279"
       y2="33.69899"
       gradientTransform="matrix(1.1104534,0,0,1.0934187,4.3491158,4.7861435)" />
    <linearGradient
       id="e-9"
       gradientUnits="userSpaceOnUse"
       x1="21.990562"
       x2="29.320522"
       xlink:href="#a-7"
       y1="33.780373"
       y2="41.931858"
       gradientTransform="matrix(1.1104534,0,0,1.0934187,4.3491158,4.7861435)" />
    <linearGradient
       inkscape:collect="always"
       xlink:href="#linearGradient1"
       id="linearGradient6"
       x1="15.60323"
       y1="17.703012"
       x2="48.302387"
       y2="50"
       gradientUnits="userSpaceOnUse"
       gradientTransform="translate(-1.3023872,-3)" />
    <radialGradient
       inkscape:collect="always"
       xlink:href="#linearGradient7"
       id="radialGradient9"
       cx="32.302387"
       cy="34"
       fx="32.302387"
       fy="34"
       r="28"
       gradientUnits="userSpaceOnUse"
       gradientTransform="matrix(0.99999999,1,-1,0.99999999,32.697613,-35.302387)" />
    <radialGradient
       id="radialGradient867"
       cx="6.6805"
       cy="8.2870998"
       r="3.7376001"
       gradientTransform="matrix(4.8485492,0,0,4.8159411,-9.9298686,-9.7737847)"
       gradientUnits="userSpaceOnUse">
      <stop
         stop-color="#c8d7ea"
         stop-opacity=".99608"
         offset="0"
         id="stop1-5" />
      <stop
         stop-color="#91acd0"
         stop-opacity=".99608"
         offset="1"
         id="stop2-4" />
    </radialGradient>
    <linearGradient
       id="linearGradient8945"
       x1="3.8726001"
       x2="4.7592001"
       y1="-3.2832"
       y2="-2.3964"
       gradientTransform="matrix(1.3622,-0.36501,0.36501,1.3622,2.977,21.076)"
       gradientUnits="userSpaceOnUse">
      <stop
         stop-color="#bdc2cf"
         offset="0"
         id="stop3-7" />
      <stop
         stop-color="#eaf0f5"
         offset="1"
         id="stop4-4" />
    </linearGradient>
    <linearGradient
       id="linearGradient26151"
       x1="4.9973001"
       x2="6.1075001"
       y1="-4.6547999"
       y2="-3.5313001"
       gradientTransform="matrix(1.3622,-0.36501,0.36501,1.3622,2.977,21.076)"
       gradientUnits="userSpaceOnUse">
      <stop
         stop-color="#7dbc53"
         offset="0"
         id="stop5-4" />
      <stop
         stop-color="#93d159"
         offset=".11589"
         id="stop6-3" />
      <stop
         stop-color="#699d51"
         offset="1"
         id="stop7-0" />
    </linearGradient>
    <linearGradient
       id="paint1_linear_42_193"
       x1="32.166599"
       y1="53"
       x2="32.166599"
       y2="11.3334"
       gradientUnits="userSpaceOnUse"
       gradientTransform="translate(-1.1842222,-1.1667)">
      <stop
         stop-color="#00B59C"
         id="stop4-3"
         style="stop-color:#6dc381;stop-opacity:1" />
      <stop
         offset="1"
         stop-color="#9CFFAC"
         id="stop5-6"
         style="stop-color:#1ba97f;stop-opacity:1" />
    </linearGradient>
    <linearGradient
       inkscape:collect="always"
       xlink:href="#linearGradient2"
       id="linearGradient14"
       x1="35.642578"
       y1="51.833302"
       x2="35.960567"
       y2="10.1667"
       gradientUnits="userSpaceOnUse" />
  </defs>
  <sodipodi:namedview
     id="namedview7"
     pagecolor="#ffffff"
     bordercolor="#000000"
     borderopacity="0.25"
     inkscape:showpageshadow="2"
     inkscape:pageopacity="0.0"
     inkscape:pagecheckerboard="0"
     inkscape:deskcolor="#d1d1d1"
     inkscape:zoom="8.3306018"
     inkscape:cx="52.697273"
     inkscape:cy="49.816329"
     inkscape:window-width="1920"
     inkscape:window-height="998"
     inkscape:window-x="0"
     inkscape:window-y="0"
     inkscape:window-maximized="1"
     inkscape:current-layer="svg7" />
  <path
     d="M 59,31 C 59,46.46415 46.464172,59 30.999998,59 15.535835,59 3.0000001,46.46415 3.0000001,31 3.0000001,15.535835 15.535835,3 30.999998,3 46.464172,3 59,15.535835 59,31 Z"
     id="path154"
     style="fill:url(#radialGradient9)" />
  <path
     d="m 54.333333,31 c 0,12.88701 -10.446332,23.33332 -23.333335,23.33332 C 18.112999,54.33332 7.6666671,43.88701 7.6666671,31 7.6666671,18.113006 18.112999,7.666668 30.999998,7.666668 43.887001,7.666668 54.333333,18.113006 54.333333,31 Z"
     id="path155"
     style="fill:url(#linearGradient6)" />
  <path
     d="m 32.854778,16.1574 c -0.0236,0.5303 0.3726,0.9818 0.8954,1.0737 1.9471,0.3426 3.5869,1.1267 4.9192,2.3523 1.3401,1.2032 2.0977,2.8784 2.2726,5.0255 0.0449,0.5505 -0.4083,0.9992 -0.9606,0.9992 h -5.1551 c -0.5417,0 -0.9561,-0.4428 -1.1211,-0.9587 -0.1433,-0.448 -0.3894,-0.7865 -0.7384,-1.0157 -0.5394,-0.4051 -1.1559,-0.6076 -1.8495,-0.6076 -1.8495,0 -2.7743,0.5738 -2.7743,1.7214 0,0.6413 0.3211,1.0969 0.9633,1.3669 0.6422,0.27 1.6954,0.5569 3.1595,0.8607 1.7983,0.3375 3.301,0.7425 4.5083,1.2151 1.2073,0.4387 2.2607,1.2488 3.1597,2.4301 0.899,1.1476 1.3486,2.7677 1.3486,4.8604 0,3.0713 -0.7963,5.3496 -2.389,6.8346 -1.3731,1.3013 -3.1507,2.1232 -5.3324,2.4657 -0.5281,0.0829 -0.9295,0.5368 -0.9058,1.0709 l 0.2195,4.937 c 0.0253,0.5692 -0.4293,1.0444 -0.999,1.0444 h -2.2695 c -0.5674,0 -1.0212,-0.4715 -0.9993,-1.0385 l 0.1947,-5.0417 c 0.0198,-0.5143 -0.355,-0.9552 -0.8592,-1.0584 -2.0698,-0.4236 -3.8139,-1.3012 -5.2324,-2.6324 -1.4158,-1.3582 -2.2123,-3.1686 -2.3895,-5.4309 -0.0432,-0.5506 0.4096,-0.9991 0.9619,-0.9991 h 5.9258 c 0.1119,0 0.2027,0.0908 0.2027,0.2027 0.0257,1.1477 0.3853,1.9577 1.0789,2.43 0.7192,0.439 1.477,0.6583 2.2734,0.6583 2.1322,0 3.1982,-0.6583 3.1982,-1.9746 0,-0.675 -0.334,-1.1644 -1.002,-1.468 -0.6676,-0.304 -1.7595,-0.6247 -3.2751,-0.962 -1.8239,-0.405 -3.3266,-0.8437 -4.5083,-1.3164 -1.156,-0.4726 -2.1706,-1.2657 -3.044,-2.3795 -0.8734,-1.1476 -1.3101,-2.7339 -1.3101,-4.759 0,-2.8352 0.7192,-4.9615 2.1578,-6.3791 1.2751,-1.2345 2.9203,-2.0338 4.9357,-2.3981 0.5161,-0.0932 0.9055,-0.5393 0.8852,-1.0634 l -0.1937,-5.0179 c -0.0219,-0.567 0.4319,-1.0386 0.9993,-1.0386 h 2.2695 c 0.5697,0 1.0243,0.4752 0.999,1.0444 z"
     id="path2"
     style="fill:url(#linearGradient14)" />
</svg>
