<?xml version="1.0" encoding="UTF-8" standalone="no"?>
<svg
   width="62"
   height="62"
   version="1.1"
   id="svg10"
   sodipodi:docname="mongodb-compass.svg"
   inkscape:version="1.4 (unknown)"
   xmlns:inkscape="http://www.inkscape.org/namespaces/inkscape"
   xmlns:sodipodi="http://sodipodi.sourceforge.net/DTD/sodipodi-0.dtd"
   xmlns:xlink="http://www.w3.org/1999/xlink"
   xmlns="http://www.w3.org/2000/svg"
   xmlns:svg="http://www.w3.org/2000/svg">
  <defs
     id="defs10">
    <linearGradient
       id="linearGradient11"
       inkscape:collect="always">
      <stop
         style="stop-color:#a4b4c1;stop-opacity:1;"
         offset="0"
         id="stop11" />
      <stop
         style="stop-color:#e4ebec;stop-opacity:1;"
         offset="1"
         id="stop12" />
    </linearGradient>
    <linearGradient
       inkscape:collect="always"
       xlink:href="#linearGradient11"
       id="linearGradient12"
       x1="32"
       y1="60"
       x2="32"
       y2="4"
       gradientUnits="userSpaceOnUse"
       gradientTransform="matrix(1,0,0,0.98245614,-1,-0.43859645)" />
    <linearGradient
       id="paint154_linear_890_11"
       x1="778"
       y1="812.29199"
       x2="788"
       y2="812.29199"
       gradientUnits="userSpaceOnUse">
      <stop
         stop-color="#EFF2F6"
         id="stop1050" />
      <stop
         offset="0.600785"
         stop-color="#B7C6CD"
         id="stop1051" />
    </linearGradient>
    <linearGradient
       id="paint155_linear_890_11"
       x1="783"
       y1="813"
       x2="783"
       y2="817"
       gradientUnits="userSpaceOnUse">
      <stop
         stop-color="#EFF2F6"
         id="stop1052" />
      <stop
         offset="0.734138"
         stop-color="#B7C6CD"
         id="stop1053" />
    </linearGradient>
    <radialGradient
       id="paint156_radial_890_11"
       cx="0"
       cy="0"
       r="1"
       gradientUnits="userSpaceOnUse"
       gradientTransform="matrix(6.9999948,6.9999948,-6.9999948,6.9999948,45.000143,44.000006)">
      <stop
         offset="0.600678"
         stop-color="#B7C6CD"
         id="stop1054" />
      <stop
         offset="0.876735"
         stop-color="#EFF2F6"
         id="stop1055" />
    </radialGradient>
    <linearGradient
       id="paint157_linear_890_11"
       x1="803"
       y1="805"
       x2="763"
       y2="765"
       gradientUnits="userSpaceOnUse"
       gradientTransform="matrix(0.29166667,0,0,0.29166667,-183.37486,-184.95833)">
      <stop
         offset="0.314714"
         stop-color="#2E2E41"
         id="stop1056" />
      <stop
         offset="0.711139"
         stop-color="#566C80"
         id="stop1057" />
    </linearGradient>
    <linearGradient
       id="paint158_linear_890_11"
       x1="792"
       y1="794"
       x2="774"
       y2="776"
       gradientUnits="userSpaceOnUse"
       xlink:href="#paint160_linear_890_11"
       gradientTransform="matrix(0.29166667,0,0,0.29166667,-183.37486,-184.95833)">
      <stop
         offset="0.304478"
         stop-color="#2E2E41"
         id="stop1058"
         style="stop-color:#ffcc00;stop-opacity:1" />
      <stop
         offset="1"
         stop-color="#566C80"
         id="stop1059"
         style="stop-color:#ffb380;stop-opacity:1" />
    </linearGradient>
    <linearGradient
       id="paint160_linear_890_11"
       x1="784"
       y1="798"
       x2="782"
       y2="796"
       gradientUnits="userSpaceOnUse">
      <stop
         stop-color="#FF7E07"
         id="stop1062" />
      <stop
         offset="1"
         stop-color="#FFE607"
         id="stop1063" />
    </linearGradient>
    <linearGradient
       id="paint159_linear_890_11"
       x1="788"
       y1="790"
       x2="778"
       y2="780"
       gradientUnits="userSpaceOnUse"
       gradientTransform="matrix(0.29166667,0,0,0.29166667,-183.37486,-184.95833)">
      <stop
         offset="0.39139399"
         stop-color="#5200FF"
         id="stop1060"
         style="stop-color:#854cff;stop-opacity:1;" />
      <stop
         offset="1"
         stop-color="#0085FF"
         id="stop1061"
         style="stop-color:#40a4ff;stop-opacity:1;" />
    </linearGradient>
    <linearGradient
       id="c"
       x1="23.813"
       x2="23.813"
       y1="13.436"
       y2="35.035999"
       gradientTransform="matrix(1.2307,0,0,1.2307,-4.055,41.465)"
       gradientUnits="userSpaceOnUse">
      <stop
         offset="0"
         stop-color="#20adff"
         id="stop3" />
      <stop
         offset="1"
         stop-color="#345da2"
         id="stop4" />
    </linearGradient>
    <filter
       id="c-3"
       width="1.0595472"
       height="1.049413"
       x="-0.029773596"
       y="-0.024706516"
       color-interpolation-filters="sRGB">
      <feGaussianBlur
         stdDeviation="2.056"
         id="feGaussianBlur6" />
    </filter>
    <linearGradient
       id="d"
       x1="69.128998"
       x2="69.128998"
       y1="139.33"
       y2="-18.862"
       gradientUnits="userSpaceOnUse">
      <stop
         offset="0"
         stop-color="#6c523c"
         id="stop3-6" />
      <stop
         offset="1"
         stop-color="#ae7952"
         stop-opacity=".965"
         id="stop4-7" />
    </linearGradient>
    <linearGradient
       id="e"
       x1="78.639"
       x2="78.639"
       y1="143.06"
       y2="-25.268999"
       gradientUnits="userSpaceOnUse">
      <stop
         offset="0"
         stop-color="#291d1a"
         id="stop1" />
      <stop
         offset="1"
         stop-color="#513c34"
         id="stop2" />
    </linearGradient>
  </defs>
  <sodipodi:namedview
     id="namedview10"
     pagecolor="#ffffff"
     bordercolor="#000000"
     borderopacity="0.25"
     inkscape:showpageshadow="2"
     inkscape:pageopacity="0.0"
     inkscape:pagecheckerboard="0"
     inkscape:deskcolor="#d1d1d1"
     inkscape:zoom="8.3085047"
     inkscape:cx="24.613334"
     inkscape:cy="47.120392"
     inkscape:window-width="1920"
     inkscape:window-height="998"
     inkscape:window-x="0"
     inkscape:window-y="0"
     inkscape:window-maximized="1"
     inkscape:current-layer="svg10"
     showgrid="false">
    <inkscape:grid
       id="grid1"
       units="px"
       originx="0"
       originy="0"
       spacingx="1"
       spacingy="1"
       empcolor="#0099e5"
       empopacity="0.30196078"
       color="#0099e5"
       opacity="0.14901961"
       empspacing="5"
       enabled="true"
       visible="false" />
  </sodipodi:namedview>
  <rect
     style="opacity:0.2;stroke-width:0.991189"
     width="56"
     height="55.017544"
     x="3"
     y="3.9824562"
     rx="16.799999"
     ry="16.505262"
     id="rect1" />
  <rect
     style="fill:url(#linearGradient12);stroke-width:0.991189"
     width="56"
     height="55.017544"
     x="3"
     y="3.4912281"
     rx="16.799999"
     ry="16.505262"
     id="rect2" />
  <path
     style="opacity:0.1;fill:#ffffff;stroke-width:0.991189"
     d="M 19.800781,3 C 10.493582,3 3,10.362116 3,19.50603 v 0.982457 C 3,11.344572 10.493582,3.9824562 19.800781,3.9824562 H 42.199219 C 51.506418,3.9824562 59,11.344572 59,20.488487 V 19.50603 C 59,10.362116 51.506418,3 42.199219,3 Z"
     id="path9" />
  <g
     id="g1"
     transform="matrix(2.1865742,0,0,2.1865742,-23.664355,-130.75417)">
    <path
       style="opacity:0.2"
       d="m 25.056356,79.598049 c -0.06181,0.202323 -0.05013,0.417922 -0.08121,0.625735 -0.051,0.498073 -0.08943,0.999683 -0.218019,1.486273 -0.04661,0.206379 -0.119128,0.406513 -0.177161,0.610141 0.139775,0.269983 0.185404,0.569276 0.216419,0.866022 0.06376,0.3465 0.07999,0.699727 0.107306,1.049539 0.02214,0.174699 -0.06993,0.396376 0.08497,0.528065 0.176398,0.05817 0.35216,0.121135 0.525564,0.188324 -0.02283,-0.337687 -0.05657,-0.675 -0.04717,-1.013797 -0.01392,-0.320396 0.03877,-0.637883 0.06365,-0.956751 0.01629,-0.154298 0.01633,-0.311683 0.07825,-0.457316 0.04696,-0.137621 0.142763,-0.255065 0.209575,-0.384498 -0.102354,-0.06895 -0.199267,-0.150321 -0.287621,-0.233415 -0.07752,-0.176978 -0.176273,-0.34663 -0.23897,-0.528725 -0.152456,-0.579722 -0.243864,-1.180809 -0.235579,-1.779597 z"
       id="path1" />
    <path
       style="fill:#abacac"
       d="m 25.056356,79.098049 c -0.06181,0.202323 -0.05013,0.417922 -0.08121,0.625735 -0.051,0.498073 -0.08943,0.999683 -0.218019,1.486273 -0.04661,0.206379 -0.119128,0.406513 -0.177161,0.610141 0.139775,0.269983 0.185404,0.569276 0.216419,0.866022 0.06376,0.3465 0.07999,0.699727 0.107306,1.049539 0.02214,0.174699 -0.06993,0.396376 0.08497,0.528065 0.176398,0.05817 0.35216,0.121135 0.525564,0.188324 -0.02283,-0.337687 -0.05657,-0.675 -0.04717,-1.013797 -0.01392,-0.320396 0.03877,-0.637883 0.06365,-0.956751 0.01629,-0.154298 0.01633,-0.311683 0.07825,-0.457316 0.04696,-0.137621 0.142763,-0.255065 0.209575,-0.384498 -0.102354,-0.06895 -0.199267,-0.150321 -0.287621,-0.233415 -0.07752,-0.176978 -0.176273,-0.34663 -0.23897,-0.528725 -0.152456,-0.579722 -0.243864,-1.180809 -0.235579,-1.779597 z"
       id="path2" />
    <path
       style="opacity:0.2"
       d="m 25,63.682465 c 0.03191,0.955419 0.0038,1.912822 0,2.871446 0.02609,3.18493 0.02275,6.369827 0,9.554829 -0.0047,1.234149 0.06198,2.466605 0,3.698193 0.05126,0.724531 0.160016,1.50618 0.565237,2.133886 0.361238,0.466409 0.779415,-0.308168 1.107789,-0.497944 1.541132,-1.368852 2.601159,-3.205312 3.062024,-5.17288 0.46517,-1.971173 0.311993,-4.075962 -0.413607,-5.972987 C 28.654214,68.323336 27.447577,66.541521 25.898815,65.108087 25.48745,64.706097 25.273332,64.171433 25,63.682465 Z"
       id="path3" />
    <path
       style="fill:#0d6436"
       d="m 25.016601,63.673828 c -0.103936,0.164751 -0.228547,0.314798 -0.361328,0.447266 -0.287397,0.286719 -0.604244,0.529515 -0.808594,0.767578 l -0.0059,0.0068 -0.0068,0.0068 c -0.753203,0.754243 -1.480205,1.531056 -1.93164,2.444335 l -0.0039,0.0088 -0.0049,0.0088 c -0.326936,0.548117 -0.616744,1.100347 -0.7998,1.688469 l -0.0029,0.01172 -0.0049,0.01172 C 20.498014,70.461767 20.26236,71.986624 20.25,73.496094 v 0.003 c 0.01587,3.042176 1.712441,5.925944 4.135742,7.839844 l 0.03027,0.02442 0.02149,0.03125 c 0.0046,0.0067 0.0014,0.0016 0.0059,0.0078 0.02382,-0.08227 0.04065,-0.136856 0.07031,-0.248047 0.108989,-0.479604 0.167503,-0.974224 0.21875,-1.477539 l 0.02343,-0.224634 h 0.506836 l 0.02441,0.223633 c 0.06322,0.585795 0.189375,1.158897 0.485352,1.621094 0.02797,0.03408 0.03706,0.04191 0.0459,0.04102 0.01082,-0.0012 0.07493,-0.02649 0.15332,-0.0918 0.148425,-0.123663 0.308945,-0.346066 0.539062,-0.493164 1.498425,-1.332522 2.532534,-3.123502 2.981446,-5.040039 v -10e-4 c 0.453208,-1.920485 0.303469,-3.975772 -0.404297,-5.826172 l -0.002,-0.0039 -0.002,-0.0049 c -0.65249,-1.93027 -1.834905,-3.677691 -3.355406,-5.084968 l -0.0019,-0.002 -0.003,-0.0029 c -0.345203,-0.337345 -0.512697,-0.735089 -0.707014,-1.113274 z"
       id="path4" />
    <path
       style="fill:#12935a"
       d="m 25,63.182465 c 0.03191,0.955419 0.0038,1.912822 0,2.871446 0.02609,3.18493 0.02275,6.369827 0,9.554829 -0.0047,1.234149 0.06198,2.466605 0,3.698193 0.05126,0.724531 0.160016,1.50618 0.565237,2.133886 0.361238,0.466409 0.779415,-0.308168 1.107789,-0.497944 1.541132,-1.368852 2.601159,-3.205312 3.062024,-5.17288 0.46517,-1.971173 0.311993,-4.075962 -0.413607,-5.972987 C 28.654214,67.823336 27.447577,66.041521 25.898815,64.608087 25.48745,64.206097 25.273332,63.671433 25,63.182465 Z"
       id="path5" />
    <path
       style="opacity:0.2"
       d="m 25,63.5 c -0.06034,0.755079 -0.881698,1.188514 -1.342774,1.725586 -0.75676,0.757805 -1.505065,1.552924 -1.978515,2.510742 -0.331471,0.555718 -0.63122,1.125263 -0.823242,1.742187 C 20.2508,70.903576 20.012279,72.462106 20,73.99707 c 0.01524,3.134989 1.755172,6.083118 4.230469,8.038086 0.380131,0.559846 0.43713,0.01394 0.527343,-0.325195 C 24.882888,81.159568 24.944782,80.599554 25,80.039062 Z"
       id="path6" />
    <path
       style="fill:#10aa50"
       d="m 25,63 c -0.06034,0.755079 -0.881698,1.188514 -1.342774,1.725586 -0.75676,0.757805 -1.505065,1.552924 -1.978515,2.510742 -0.331471,0.555718 -0.63122,1.125263 -0.823242,1.742187 C 20.2508,70.403576 20.012279,71.962106 20,73.49707 c 0.01524,3.134989 1.755172,6.083118 4.230469,8.038086 0.380131,0.559846 0.43713,0.01394 0.527343,-0.325195 C 24.882888,80.659568 24.944782,80.099554 25,79.539062 Z"
       id="path7" />
    <path
       style="opacity:0.2;fill:#ffffff"
       d="m 25,63.182617 c 0.0057,0.169426 0.0025,0.339243 0.0049,0.508789 0.271014,0.486593 0.484638,1.017396 0.893554,1.416992 1.548763,1.433435 2.755623,3.214805 3.422852,5.188477 0.420541,1.099472 0.642886,2.268816 0.669922,3.441406 0.03474,-1.338984 -0.189542,-2.685489 -0.669922,-3.941406 C 28.65406,67.823203 27.4472,66.041833 25.898437,64.608398 25.487072,64.206409 25.273332,63.671585 25,63.182617 Z m 0.01172,1.68457 c -0.0039,0.395428 -0.01015,0.790626 -0.01172,1.186524 9.5e-4,0.11849 8.6e-5,0.236978 0.001,0.355469 0.0033,-0.51455 0.009,-1.028287 0.01074,-1.541993 z m 0.0059,6.213867 c -0.001,1.509133 -0.0068,3.018179 -0.01762,4.527344 -1.59e-4,0.04168 0.001,0.08333 0.001,0.125 0.01033,-1.550829 0.01682,-3.101545 0.0166,-4.652344 z m 0.0059,7.368165 c -0.003,0.285867 -0.0091,0.571658 -0.02344,0.857421 0.0026,0.03661 0.0078,0.07445 0.01074,0.111329 0.0097,-0.322919 0.01415,-0.645686 0.0127,-0.96875 z"
       id="path8-5" />
    <path
       style="opacity:0.2;fill:#ffffff"
       d="m 25,63 c -0.06034,0.755079 -0.881698,1.188514 -1.342774,1.725586 -0.75676,0.757805 -1.505065,1.552924 -1.978515,2.510742 -0.331471,0.555718 -0.631221,1.125263 -0.823242,1.742187 C 20.2508,70.403576 20.012279,71.962106 20,73.49707 c 4.47e-4,0.09192 0.0073,0.182836 0.01074,0.274414 0.03304,-1.461737 0.269627,-2.937596 0.844727,-4.292969 0.192021,-0.616924 0.491771,-1.186469 0.823242,-1.742187 0.47345,-0.957818 1.221755,-1.752937 1.978515,-2.510742 C 24.118302,64.688514 24.939657,64.255079 25,63.5 Z"
       id="path9-6" />
  </g>
</svg>
