<?xml version="1.0" encoding="UTF-8" standalone="no"?>
<!-- Created with Inkscape (http://www.inkscape.org/) -->

<svg
   width="62"
   height="62"
   viewBox="0 0 62 62"
   version="1.1"
   id="svg1"
   inkscape:version="1.4 (e7c3feb100, 2024-10-09)"
   sodipodi:docname="mpd.svg"
   xmlns:inkscape="http://www.inkscape.org/namespaces/inkscape"
   xmlns:sodipodi="http://sodipodi.sourceforge.net/DTD/sodipodi-0.dtd"
   xmlns:xlink="http://www.w3.org/1999/xlink"
   xmlns="http://www.w3.org/2000/svg"
   xmlns:svg="http://www.w3.org/2000/svg">
  <sodipodi:namedview
     id="namedview1"
     pagecolor="#ffffff"
     bordercolor="#000000"
     borderopacity="0.25"
     inkscape:showpageshadow="2"
     inkscape:pageopacity="0.0"
     inkscape:pagecheckerboard="0"
     inkscape:deskcolor="#d1d1d1"
     inkscape:document-units="px"
     inkscape:zoom="7.5994533"
     inkscape:cx="23.751709"
     inkscape:cy="35.397283"
     inkscape:window-width="1920"
     inkscape:window-height="994"
     inkscape:window-x="0"
     inkscape:window-y="0"
     inkscape:window-maximized="1"
     inkscape:current-layer="layer1"
     showgrid="false">
    <inkscape:grid
       id="grid1"
       units="px"
       originx="0"
       originy="0"
       spacingx="1"
       spacingy="1"
       empcolor="#0099e5"
       empopacity="0.30196078"
       color="#0099e5"
       opacity="0.14901961"
       empspacing="5"
       enabled="true"
       visible="false" />
  </sodipodi:namedview>
  <defs
     id="defs1">
    <linearGradient
       id="linearGradient1"
       inkscape:collect="always">
      <stop
         style="stop-color:#5599ff;stop-opacity:1"
         offset="0"
         id="stop1" />
      <stop
         style="stop-color:#aaccff;stop-opacity:1"
         offset="1"
         id="stop2" />
    </linearGradient>
    <radialGradient
       id="paint664_radial_890_11"
       cx="0"
       cy="0"
       r="1"
       gradientUnits="userSpaceOnUse"
       gradientTransform="matrix(-16.000099,-9.999913,9.999913,-16.000099,583,171)">
      <stop
         offset="0.42141"
         stop-color="#B7C6CD"
         id="stop2071" />
      <stop
         offset="1"
         stop-color="#EFF2F6"
         id="stop2072" />
    </radialGradient>
    <linearGradient
       id="paint665_linear_890_11"
       x1="605"
       y1="180"
       x2="601.466"
       y2="162.72301"
       gradientUnits="userSpaceOnUse">
      <stop
         stop-color="#5200FF"
         id="stop2073" />
      <stop
         offset="1"
         stop-color="#0085FF"
         id="stop2074" />
    </linearGradient>
    <linearGradient
       id="paint666_linear_890_11"
       x1="567"
       y1="181"
       x2="562.11798"
       y2="174.183"
       gradientUnits="userSpaceOnUse">
      <stop
         stop-color="#5200FF"
         id="stop2075" />
      <stop
         offset="0.670391"
         stop-color="#0085FF"
         id="stop2076" />
    </linearGradient>
    <linearGradient
       id="paint667_linear_890_11"
       x1="605"
       y1="180"
       x2="597.32001"
       y2="174.24001"
       gradientUnits="userSpaceOnUse">
      <stop
         stop-color="#5200FF"
         id="stop2077" />
      <stop
         offset="1"
         stop-color="#0085FF"
         id="stop2078" />
    </linearGradient>
    <linearGradient
       id="paint668_linear_890_11"
       x1="567"
       y1="180"
       x2="561.23999"
       y2="172.32001"
       gradientUnits="userSpaceOnUse">
      <stop
         stop-color="#5200FF"
         id="stop2079" />
      <stop
         offset="1"
         stop-color="#0085FF"
         id="stop2080" />
    </linearGradient>
    <linearGradient
       id="paint669_linear_890_11"
       x1="607"
       y1="179"
       x2="602.50598"
       y2="171.80901"
       gradientUnits="userSpaceOnUse">
      <stop
         stop-color="#5200FF"
         id="stop2081" />
      <stop
         offset="1"
         stop-color="#0085FF"
         id="stop2082" />
    </linearGradient>
    <linearGradient
       id="paint670_linear_890_11"
       x1="607"
       y1="217"
       x2="568.82599"
       y2="170.01601"
       gradientUnits="userSpaceOnUse">
      <stop
         stop-color="#5200FF"
         id="stop2083" />
      <stop
         offset="1"
         stop-color="#0085FF"
         id="stop2084" />
    </linearGradient>
    <radialGradient
       id="paint671_radial_890_11"
       cx="0"
       cy="0"
       r="1"
       gradientUnits="userSpaceOnUse"
       gradientTransform="matrix(0,20,-16,0,583,187)">
      <stop
         offset="0.869716"
         stop-color="#EFF2F6"
         id="stop2085" />
      <stop
         offset="1"
         stop-color="#B7C6CD"
         id="stop2086" />
    </radialGradient>
    <linearGradient
       id="paint497_linear_890_11"
       x1="497"
       y1="413"
       x2="447.457"
       y2="376.79599"
       gradientUnits="userSpaceOnUse"
       gradientTransform="translate(-452,-358)">
      <stop
         offset="0.636456"
         stop-color="#71706E"
         id="stop1737" />
      <stop
         offset="1"
         stop-color="#B9AA99"
         id="stop1738" />
    </linearGradient>
    <linearGradient
       id="paint498_linear_890_11"
       x1="507"
       y1="413"
       x2="457.457"
       y2="376.79599"
       gradientUnits="userSpaceOnUse"
       gradientTransform="translate(-452,-358)">
      <stop
         offset="0.544933"
         stop-color="#FF7E07"
         id="stop1739" />
      <stop
         offset="1"
         stop-color="#FFE607"
         id="stop1740" />
    </linearGradient>
    <linearGradient
       id="paint499_linear_890_11"
       x1="473"
       y1="365"
       x2="486.28699"
       y2="389.91299"
       gradientUnits="userSpaceOnUse"
       gradientTransform="translate(-452,-358)">
      <stop
         stop-color="white"
         id="stop1741" />
      <stop
         offset="0.705"
         stop-color="#EAEFEF"
         id="stop1742" />
    </linearGradient>
    <linearGradient
       id="paint500_linear_890_11"
       x1="480"
       y1="371.5"
       x2="480"
       y2="368.5"
       gradientUnits="userSpaceOnUse"
       gradientTransform="translate(-452,-358)">
      <stop
         offset="0.155999"
         stop-color="#71706E"
         id="stop1743" />
      <stop
         offset="0.796276"
         stop-color="#B9AA99"
         id="stop1744" />
    </linearGradient>
    <linearGradient
       id="paint501_linear_890_11"
       x1="479"
       y1="375.5"
       x2="479"
       y2="372.5"
       gradientUnits="userSpaceOnUse"
       gradientTransform="translate(-452,-358)">
      <stop
         offset="0.155999"
         stop-color="#71706E"
         id="stop1745" />
      <stop
         offset="0.796276"
         stop-color="#B9AA99"
         id="stop1746" />
    </linearGradient>
    <linearGradient
       id="paint502_linear_890_11"
       x1="511"
       y1="417"
       x2="455.64352"
       y2="380.82346"
       gradientUnits="userSpaceOnUse"
       gradientTransform="translate(-452,-358)">
      <stop
         offset="0.18397722"
         stop-color="#2E2E41"
         id="stop1747"
         style="stop-color:#33424d;stop-opacity:1;" />
      <stop
         offset="1"
         stop-color="#566C80"
         id="stop1748" />
    </linearGradient>
    <linearGradient
       id="paint745_linear_890_11"
       x1="172"
       y1="61"
       x2="195.978"
       y2="83.979202"
       gradientUnits="userSpaceOnUse">
      <stop
         stop-color="#EFF2F6"
         id="stop2233" />
      <stop
         offset="1"
         stop-color="#ACD1CF"
         id="stop2234" />
    </linearGradient>
    <linearGradient
       id="paint746_linear_890_11"
       x1="176"
       y1="84"
       x2="175.47501"
       y2="78.479202"
       gradientUnits="userSpaceOnUse">
      <stop
         offset="0.404925"
         stop-color="#2E2E41"
         id="stop2235" />
      <stop
         offset="1"
         stop-color="#566C80"
         id="stop2236" />
    </linearGradient>
    <linearGradient
       id="paint747_linear_890_11"
       x1="202"
       y1="84"
       x2="201.47501"
       y2="78.479202"
       gradientUnits="userSpaceOnUse">
      <stop
         offset="0.404925"
         stop-color="#2E2E41"
         id="stop2237" />
      <stop
         offset="1"
         stop-color="#566C80"
         id="stop2238" />
    </linearGradient>
    <linearGradient
       id="paint748_linear_890_11"
       x1="155"
       y1="82"
       x2="186.461"
       y2="132.33701"
       gradientUnits="userSpaceOnUse">
      <stop
         offset="0.205721"
         stop-color="#EFF2F6"
         id="stop2239" />
      <stop
         offset="1"
         stop-color="#B7C6CD"
         id="stop2240" />
    </linearGradient>
    <radialGradient
       id="paint750_radial_890_11"
       cx="0"
       cy="0"
       r="1"
       gradientUnits="userSpaceOnUse"
       gradientTransform="matrix(5.6470608,5.6470608,-5.6470608,5.6470608,172,96)">
      <stop
         offset="0.340843"
         stop-color="#2E2E41"
         id="stop2243" />
      <stop
         offset="1"
         stop-color="#566C80"
         id="stop2244" />
    </radialGradient>
    <linearGradient
       id="paint751_linear_890_11"
       x1="166"
       y1="90"
       x2="178"
       y2="102"
       gradientUnits="userSpaceOnUse">
      <stop
         stop-color="white"
         id="stop2245" />
      <stop
         offset="0.705"
         stop-color="#EAEFEF"
         id="stop2246" />
    </linearGradient>
    <linearGradient
       id="paint752_linear_890_11"
       x1="193"
       y1="88"
       x2="199"
       y2="94"
       gradientUnits="userSpaceOnUse">
      <stop
         stop-color="#FFE607"
         id="stop2247" />
      <stop
         offset="0.802569"
         stop-color="#FF7E07"
         id="stop2248" />
    </linearGradient>
    <linearGradient
       id="paint753_linear_890_11"
       x1="199"
       y1="104"
       x2="193"
       y2="98"
       gradientUnits="userSpaceOnUse">
      <stop
         offset="0.253846"
         stop-color="#089953"
         id="stop2249" />
      <stop
         offset="1"
         stop-color="#16D96F"
         id="stop2250" />
    </linearGradient>
    <linearGradient
       id="paint754_linear_890_11"
       x1="198"
       y1="93"
       x2="204"
       y2="99"
       gradientUnits="userSpaceOnUse">
      <stop
         offset="0.30755"
         stop-color="#F15700"
         id="stop2251" />
      <stop
         offset="0.832479"
         stop-color="#FF0000"
         id="stop2252" />
    </linearGradient>
    <linearGradient
       id="paint755_linear_890_11"
       x1="194"
       y1="99"
       x2="188"
       y2="93"
       gradientUnits="userSpaceOnUse">
      <stop
         offset="0.320751"
         stop-color="#5200FF"
         id="stop2253" />
      <stop
         offset="1"
         stop-color="#0085FF"
         id="stop2254" />
    </linearGradient>
    <linearGradient
       id="paint723_linear_890_11"
       x1="555"
       y1="61"
       x2="610.99902"
       y2="117.38"
       gradientUnits="userSpaceOnUse">
      <stop
         offset="0.186267"
         stop-color="#EFF2F6"
         id="stop2189" />
      <stop
         offset="0.774054"
         stop-color="#B7C6CD"
         id="stop2190" />
    </linearGradient>
    <linearGradient
       id="paint724_linear_890_11"
       x1="568"
       y1="71"
       x2="577.836"
       y2="79.196701"
       gradientUnits="userSpaceOnUse">
      <stop
         offset="0.268133"
         stop-color="#F15700"
         id="stop2191" />
      <stop
         offset="0.700195"
         stop-color="#FF0000"
         id="stop2192" />
    </linearGradient>
    <linearGradient
       id="paint725_linear_890_11"
       x1="583"
       y1="108"
       x2="573"
       y2="98"
       gradientUnits="userSpaceOnUse">
      <stop
         offset="0.29783"
         stop-color="#FF7E07"
         id="stop2193" />
      <stop
         offset="0.909465"
         stop-color="#FFE607"
         id="stop2194" />
    </linearGradient>
    <linearGradient
       id="paint726_linear_890_11"
       x1="597"
       y1="80"
       x2="587"
       y2="70"
       gradientUnits="userSpaceOnUse">
      <stop
         offset="0.334156"
         stop-color="#089953"
         id="stop2195" />
      <stop
         offset="0.842157"
         stop-color="#16D96F"
         id="stop2196" />
    </linearGradient>
    <linearGradient
       id="paint727_linear_890_11"
       x1="572"
       y1="97"
       x2="562"
       y2="87"
       gradientUnits="userSpaceOnUse">
      <stop
         offset="0.314502"
         stop-color="#5200FF"
         id="stop2197" />
      <stop
         offset="0.885503"
         stop-color="#0085FF"
         id="stop2198" />
    </linearGradient>
    <linearGradient
       id="paint728_linear_890_11"
       x1="598.578"
       y1="100.584"
       x2="594.58398"
       y2="104.578"
       gradientUnits="userSpaceOnUse">
      <stop
         stop-color="#2E2E41"
         id="stop2199"
         style="stop-color:#550000;stop-opacity:1" />
      <stop
         offset="1"
         stop-color="#566C80"
         id="stop2200"
         style="stop-color:#ff5555;stop-opacity:1" />
    </linearGradient>
    <linearGradient
       id="paint729_linear_890_11"
       x1="575"
       y1="81"
       x2="589.55603"
       y2="95.556396"
       gradientUnits="userSpaceOnUse">
      <stop
         stop-color="white"
         id="stop2201"
         offset="0"
         style="stop-color:#797979;stop-opacity:1;" />
      <stop
         offset="0.70499998"
         stop-color="#EAEFEF"
         id="stop2202"
         style="stop-color:#5c7a7a;stop-opacity:1;" />
    </linearGradient>
    <linearGradient
       id="paint730_linear_890_11"
       x1="583.40698"
       y1="90.527802"
       x2="577.06799"
       y2="84.189201"
       gradientUnits="userSpaceOnUse">
      <stop
         offset="0.388464"
         stop-color="#71706E"
         id="stop2203" />
      <stop
         offset="1"
         stop-color="#B9AA99"
         id="stop2204" />
    </linearGradient>
    <linearGradient
       id="paint521_linear_890_11"
       x1="176"
       y1="417"
       x2="172.8"
       y2="410.60001"
       gradientUnits="userSpaceOnUse"
       gradientTransform="translate(-152,-358)">
      <stop
         stop-color="#2E2E41"
         id="stop1785" />
      <stop
         offset="1"
         stop-color="#566C80"
         id="stop1786" />
    </linearGradient>
    <linearGradient
       id="paint522_linear_890_11"
       x1="198"
       y1="417"
       x2="194.8"
       y2="410.60001"
       gradientUnits="userSpaceOnUse"
       gradientTransform="translate(-152,-358)">
      <stop
         stop-color="#2E2E41"
         id="stop1787" />
      <stop
         offset="1"
         stop-color="#566C80"
         id="stop1788" />
    </linearGradient>
    <linearGradient
       id="paint523_linear_890_11"
       x1="183"
       y1="415"
       x2="183"
       y2="361"
       gradientUnits="userSpaceOnUse"
       gradientTransform="translate(-152,-358)">
      <stop
         offset="0.221007"
         stop-color="#2E2E41"
         id="stop1789"
         style="stop-color:#555577;stop-opacity:1;" />
      <stop
         offset="1"
         stop-color="#566C80"
         id="stop1790"
         style="stop-color:#7a91a6;stop-opacity:1;" />
    </linearGradient>
    <linearGradient
       id="paint524_linear_890_11"
       x1="183"
       y1="389"
       x2="183"
       y2="363"
       gradientUnits="userSpaceOnUse"
       gradientTransform="translate(-152,-358)">
      <stop
         offset="0.16552401"
         stop-color="#2E2E41"
         id="stop1791"
         style="stop-color:#191924;stop-opacity:1;" />
      <stop
         offset="0.784914"
         stop-color="#566C80"
         id="stop1792" />
    </linearGradient>
    <linearGradient
       id="paint525_linear_890_11"
       x1="183"
       y1="367"
       x2="183"
       y2="373"
       gradientUnits="userSpaceOnUse"
       gradientTransform="translate(-152,-358)">
      <stop
         stop-color="#EFF2F6"
         id="stop1793" />
      <stop
         offset="0.600628"
         stop-color="#B7C6CD"
         id="stop1794" />
    </linearGradient>
    <linearGradient
       id="paint526_linear_890_11"
       x1="179"
       y1="399"
       x2="187"
       y2="407"
       gradientUnits="userSpaceOnUse"
       gradientTransform="translate(-152,-357)">
      <stop
         offset="0.313567"
         stop-color="#EFF2F6"
         id="stop1795" />
      <stop
         offset="0.581564"
         stop-color="#B7C6CD"
         id="stop1796" />
    </linearGradient>
    <linearGradient
       id="paint527_linear_890_11"
       x1="181"
       y1="401"
       x2="185"
       y2="405"
       gradientUnits="userSpaceOnUse"
       gradientTransform="translate(-152,-357)">
      <stop
         stop-color="#F15700"
         id="stop1797" />
      <stop
         offset="0.717503"
         stop-color="#FF0000"
         id="stop1798" />
    </linearGradient>
    <linearGradient
       id="paint528_linear_890_11"
       x1="182"
       y1="385"
       x2="180"
       y2="383"
       gradientUnits="userSpaceOnUse"
       gradientTransform="matrix(3.0499996,0,0,3.0499996,-526.64998,-1149.2349)">
      <stop
         stop-color="#FF7E07"
         id="stop1799" />
      <stop
         offset="1"
         stop-color="#FFE607"
         id="stop1800" />
    </linearGradient>
    <linearGradient
       id="paint529_linear_890_11"
       x1="186"
       y1="385"
       x2="184"
       y2="383"
       gradientUnits="userSpaceOnUse"
       gradientTransform="matrix(3.0499996,0,0,3.0499996,-526.64998,-1149.2349)">
      <stop
         stop-color="#089953"
         id="stop1801" />
      <stop
         offset="1"
         stop-color="#16D96F"
         id="stop1802" />
    </linearGradient>
    <linearGradient
       id="paint415_linear_890_11"
       x1="411"
       y1="509"
       x2="363.565"
       y2="453.659"
       gradientUnits="userSpaceOnUse"
       gradientTransform="matrix(0.35714286,0,0,0.35714286,-125.78572,-163.64286)">
      <stop
         stop-color="#5200FF"
         id="stop1572" />
      <stop
         offset="1"
         stop-color="#0085FF"
         id="stop1573" />
    </linearGradient>
    <radialGradient
       id="paint416_radial_890_11"
       cx="0"
       cy="0"
       r="1"
       gradientUnits="userSpaceOnUse"
       gradientTransform="matrix(0,12.5,-12.5,0,14.928567,9.2142842)">
      <stop
         offset="0.222732"
         stop-color="#EFF2F6"
         id="stop1574" />
      <stop
         offset="0.869133"
         stop-color="#B7C6CD"
         id="stop1575" />
    </radialGradient>
    <linearGradient
       id="paint417_linear_890_11"
       x1="392"
       y1="476"
       x2="399.52899"
       y2="477.88199"
       gradientUnits="userSpaceOnUse"
       gradientTransform="matrix(0.35714286,0,0,0.35714286,-125.78572,-163.64286)">
      <stop
         stop-color="#EFF2F6"
         id="stop1576" />
      <stop
         offset="1"
         stop-color="#B7C6CD"
         id="stop1577" />
    </linearGradient>
    <linearGradient
       id="paint418_linear_890_11"
       x1="396"
       y1="490"
       x2="388.79999"
       y2="487.60001"
       gradientUnits="userSpaceOnUse"
       gradientTransform="matrix(0.35714286,0,0,0.35714286,-125.78572,-163.64286)">
      <stop
         stop-color="#2E2E41"
         id="stop1578" />
      <stop
         offset="1"
         stop-color="#566C80"
         id="stop1579" />
    </linearGradient>
    <linearGradient
       id="paint745_linear_890_11-4"
       x1="172"
       y1="61"
       x2="195.978"
       y2="83.979202"
       gradientUnits="userSpaceOnUse"
       gradientTransform="matrix(0.39352502,0,0,0.51458037,-58.054659,-32.448834)">
      <stop
         stop-color="#EFF2F6"
         id="stop2233-1" />
      <stop
         offset="1"
         stop-color="#ACD1CF"
         id="stop2234-5" />
    </linearGradient>
    <linearGradient
       id="paint746_linear_890_11-0"
       x1="176"
       y1="84"
       x2="175.47501"
       y2="78.479202"
       gradientUnits="userSpaceOnUse"
       gradientTransform="matrix(1.1052717,0,0,1.1052717,-171.31716,-74.363497)">
      <stop
         offset="0.404925"
         stop-color="#2E2E41"
         id="stop2235-8"
         style="stop-color:#ff0000;stop-opacity:1" />
      <stop
         offset="1"
         stop-color="#566C80"
         id="stop2236-3"
         style="stop-color:#ffaaaa;stop-opacity:1" />
    </linearGradient>
    <linearGradient
       id="paint747_linear_890_11-5"
       x1="202"
       y1="84"
       x2="201.47501"
       y2="78.479202"
       gradientUnits="userSpaceOnUse"
       gradientTransform="matrix(1.1052717,0,0,1.1052717,-171.31716,-74.363497)">
      <stop
         offset="0.404925"
         stop-color="#2E2E41"
         id="stop2237-6"
         style="stop-color:#ff0000;stop-opacity:1" />
      <stop
         offset="1"
         stop-color="#566C80"
         id="stop2238-5"
         style="stop-color:#ffaaaa;stop-opacity:1" />
    </linearGradient>
    <radialGradient
       id="paint750_radial_890_11-0"
       cx="0"
       cy="0"
       r="1"
       gradientUnits="userSpaceOnUse"
       gradientTransform="matrix(6.2415363,6.2415363,-6.2415363,6.2415363,18.789562,31.742584)">
      <stop
         offset="0.340843"
         stop-color="#2E2E41"
         id="stop2243-7" />
      <stop
         offset="1"
         stop-color="#566C80"
         id="stop2244-6" />
    </radialGradient>
    <linearGradient
       id="paint751_linear_890_11-3"
       x1="166"
       y1="90"
       x2="178"
       y2="102"
       gradientUnits="userSpaceOnUse"
       gradientTransform="matrix(1.1052717,0,0,1.1052717,-171.31716,-74.363497)">
      <stop
         stop-color="white"
         id="stop2245-7" />
      <stop
         offset="0.705"
         stop-color="#EAEFEF"
         id="stop2246-6" />
    </linearGradient>
    <linearGradient
       id="paint752_linear_890_11-1"
       x1="193"
       y1="88"
       x2="199"
       y2="94"
       gradientUnits="userSpaceOnUse"
       gradientTransform="matrix(1.1052717,0,0,1.1052717,-171.31716,-74.363497)">
      <stop
         stop-color="#FFE607"
         id="stop2247-5" />
      <stop
         offset="0.802569"
         stop-color="#FF7E07"
         id="stop2248-0" />
    </linearGradient>
    <linearGradient
       id="paint753_linear_890_11-6"
       x1="199"
       y1="104"
       x2="193"
       y2="98"
       gradientUnits="userSpaceOnUse"
       gradientTransform="matrix(1.1052717,0,0,1.1052717,-171.31716,-74.363497)">
      <stop
         offset="0.253846"
         stop-color="#089953"
         id="stop2249-5" />
      <stop
         offset="1"
         stop-color="#16D96F"
         id="stop2250-0" />
    </linearGradient>
    <linearGradient
       id="paint754_linear_890_11-8"
       x1="198"
       y1="93"
       x2="204"
       y2="99"
       gradientUnits="userSpaceOnUse"
       gradientTransform="matrix(1.1052717,0,0,1.1052717,-171.31716,-74.363497)">
      <stop
         offset="0.30755"
         stop-color="#F15700"
         id="stop2251-1" />
      <stop
         offset="0.832479"
         stop-color="#FF0000"
         id="stop2252-2" />
    </linearGradient>
    <linearGradient
       id="paint755_linear_890_11-2"
       x1="194"
       y1="99"
       x2="188"
       y2="93"
       gradientUnits="userSpaceOnUse"
       gradientTransform="matrix(1.1052717,0,0,1.1052717,-171.31716,-74.363497)">
      <stop
         offset="0.320751"
         stop-color="#5200FF"
         id="stop2253-6" />
      <stop
         offset="1"
         stop-color="#0085FF"
         id="stop2254-9" />
    </linearGradient>
    <radialGradient
       inkscape:collect="always"
       xlink:href="#linearGradient15"
       id="radialGradient16"
       cx="21.171255"
       cy="27.764219"
       fx="21.171255"
       fy="27.764219"
       r="5.7613297"
       gradientTransform="matrix(1.4750202,-0.01809646,0.02701629,2.2020657,-10.80686,-32.991292)"
       gradientUnits="userSpaceOnUse" />
    <linearGradient
       id="linearGradient15"
       inkscape:collect="always">
      <stop
         style="stop-color:#bfc4ce;stop-opacity:1;"
         offset="0"
         id="stop15" />
      <stop
         style="stop-color:#252930;stop-opacity:0;"
         offset="1"
         id="stop16" />
    </linearGradient>
    <linearGradient
       inkscape:collect="always"
       xlink:href="#c"
       id="linearGradient18"
       x1="9.7960739"
       y1="27.350538"
       x2="41.667999"
       y2="27.350538"
       gradientUnits="userSpaceOnUse" />
    <linearGradient
       id="c">
      <stop
         stop-color="#b3b3b3"
         offset="0"
         id="stop5" />
      <stop
         stop-color="#f2f2f2"
         offset="1"
         id="stop6" />
    </linearGradient>
    <linearGradient
       inkscape:collect="always"
       xlink:href="#c"
       id="linearGradient20"
       x1="12.428101"
       y1="23.222059"
       x2="44.770954"
       y2="23.222059"
       gradientUnits="userSpaceOnUse" />
    <linearGradient
       id="paint1_linear_54_1444"
       x1="2.4941001"
       y1="11.4827"
       x2="43.5298"
       y2="48.487701"
       gradientUnits="userSpaceOnUse"
       gradientTransform="translate(-39.503057,-18.99199)">
      <stop
         stop-color="#F9D423"
         id="stop5-4" />
      <stop
         offset="0.515624"
         stop-color="#FF4E50"
         id="stop6-9" />
      <stop
         offset="0.991304"
         stop-color="#8A2387"
         id="stop7" />
    </linearGradient>
    <linearGradient
       inkscape:collect="always"
       xlink:href="#linearGradient1"
       id="linearGradient2"
       x1="-36.503057"
       y1="12.097121"
       x2="-1.5029574"
       y2="12.097121"
       gradientUnits="userSpaceOnUse"
       gradientTransform="matrix(0.60000034,0,0,0.60000034,62.772771,32.065566)" />
  </defs>
  <g
     inkscape:label="Layer 1"
     inkscape:groupmode="layer"
     id="layer1">
    <g
       id="g20"
       transform="matrix(1.268663,0,0,1.2173795,0.56255825,1.7829932)">
      <path
         d="m 19.058,1.772 c -1.799,0.037 -3.306,0.701 -4.429,1.951 -0.527,0.412 -0.991,0.923 -1.385,1.528 -0.771,1.23 -1.256,2.819 -1.436,4.699 -0.145,0.362 -0.281,0.726 -0.605,1.432 -0.555,2.016 -0.871,4.159 -1.186,8.05 -0.053,0.661 -0.084,1.001 -0.125,1.257 -0.105,-0.045 -0.928,0.777 -1.262,1.267 -0.115,0.169 -0.216,0.356 -0.316,0.543 -0.243,0.172 -0.466,0.329 -0.989,0.672 -0.789,0.519 -1.631,1.106 -1.872,1.305 -1.305,1.081 -2.092,2.679 -2.364,4.8 -0.109,0.85 -0.075,2.439 0.07,3.273 0.196,1.128 0.418,1.919 0.841,2.998 1.774,4.531 5.558,8.013 9.274,8.535 0.512,0.072 1.447,0.059 1.956,-0.028 0.806,-0.137 1.351,-0.351 3.4,-1.329 0.191,-0.091 0.35,-0.154 0.523,-0.23 0.035,0.005 0.071,0.014 0.106,0.018 0.399,0.05 1.206,0.028 1.619,-0.044 0.498,-0.086 1.085,-0.269 1.14,-0.351 0.347,0.149 0.928,0.413 1.847,0.861 4.218,2.058 5.757,2.628 9.009,3.333 0.418,0.091 1.077,0.24 1.462,0.332 0.618,0.148 1.373,0.28 1.882,0.332 0.373,0.038 1.206,0.03 1.614,-0.016 0.488,-0.056 0.926,-0.157 1.345,-0.282 1.067,-0.278 1.99,-0.824 2.746,-1.625 0.581,-0.432 1.086,-0.98 1.51,-1.638 3.793,-5.954 0.264,-19.607 -7.818,-30.252 L 35.592,13.129 C 30.206,6.048 23.852,1.684 19.058,1.772 Z m 1.207,3.244 C 24.4,4.94 29.879,8.774 34.523,14.994 l 0.024,0.026 c 6.973,9.352 10.016,21.347 6.743,26.576 -0.183,0.288 -0.384,0.552 -0.601,0.791 C 36.766,45.408 29.419,41.629 23.31,33.449 16.336,24.101 13.286,12.104 16.553,6.868 16.737,6.577 16.939,6.31 17.158,6.069 18.02,5.399 19.068,5.043 20.264,5.016 Z"
         fill-opacity="0.67"
         id="path8"
         style="fill:#e5e5e5;fill-opacity:1;fill-rule:nonzero" />
      <path
         d="M 34.609,13.557 C 41.755,23.199 44.874,35.566 41.52,40.958 38.166,46.349 29.526,42.856 22.378,33.219 15.23,23.581 12.104,11.211 15.452,5.812 18.8,0.412 27.437,3.896 34.588,13.529"
         id="path9"
         style="fill:#373d48;fill-opacity:1;fill-rule:nonzero" />
      <path
         d="m 25.151,25.617 c 2.293,4.25 2.385,8.717 0.204,9.896 -2.182,1.18 -5.865,-1.346 -8.16,-5.595 -2.295,-4.249 -2.39,-8.718 -0.21,-9.901 2.18,-1.183 5.862,1.339 8.159,5.588"
         id="path10"
         style="fill:url(#radialGradient16);fill-rule:nonzero" />
      <path
         d="m 9.929,19.915 c 0.036,-0.256 0.06,-0.633 0.11,-1.255 0.313,-3.891 0.626,-6.033 1.179,-8.049 1.718,-3.775 0.328,-2.905 2.015,5.459 0.478,2.285 0.989,3.993 1.673,5.587 1.607,3.748 2.878,6.201 4.598,8.873 4.049,6.292 9.151,11.177 13.725,13.142 3.439,1.382 8.08,0.633 8.439,0.626 -1.122,1.129 -2.324,1.699 -3.983,1.889 -0.405,0.047 -1.234,0.056 -1.604,0.018 C 35.575,46.153 34.825,46.019 34.21,45.872 33.828,45.78 33.175,45.631 32.759,45.54 29.526,44.834 27.995,44.264 23.803,42.207 23.085,41.854 22.41,41.532 21.987,41.339 21.988,41.337 21.988,41.336 21.989,41.335 21.997,41.306 21.59,41.061 21.085,40.789 19.746,40.07 18.629,39.427 17.978,39 14.507,36.725 11.473,32.296 10.286,27.771 9.792,25.891 9.708,24.602 9.873,21.462 9.917,20.649 9.941,19.968 9.929,19.915 Z"
         id="path11"
         style="fill:url(#linearGradient18)" />
      <path
         d="m 8.316,21.762 c -0.413,0.798 -0.686,1.76 -0.813,2.865 -0.086,0.752 -0.034,2.377 0.105,3.248 0.498,3.121 1.943,6.32 4.051,8.965 0.552,0.691 1.743,1.901 2.421,2.458 1.63,1.337 3.397,2.191 5.017,2.426 -0.158,0.071 -0.324,0.147 -0.496,0.23 -2.037,0.978 -2.579,1.191 -3.38,1.328 -0.506,0.087 -1.437,0.1 -1.946,0.028 C 9.582,42.788 5.82,39.305 4.057,34.774 3.637,33.696 3.417,32.904 3.222,31.777 3.078,30.942 3.044,29.355 3.152,28.505 c 0.27,-2.121 1.053,-3.72 2.351,-4.801 0.238,-0.199 1.076,-0.786 1.86,-1.305 0.426,-0.281 0.726,-0.48 0.953,-0.637 z"
         id="path12"
         style="fill:#0066ff" />
      <path
         d="M 18.33,1.642 C 16.144,1.683 14.395,2.658 13.246,4.479 9.48,10.44 12.995,24.099 21.034,34.74 29.072,45.381 38.788,49.238 42.559,43.284 46.33,37.331 42.822,23.677 34.787,13.031 L 34.765,12.999 C 29.411,5.918 23.095,1.554 18.33,1.642 Z m 1.895,2.602 c 4.11,-0.076 9.556,3.758 14.173,9.977 l 0.022,0.027 C 41.351,23.6 44.377,35.596 41.123,40.825 37.869,46.054 29.489,42.666 22.556,33.318 15.623,23.97 12.592,11.973 15.84,6.737 16.831,5.137 18.339,4.28 20.225,4.244 Z"
         fill-rule="nonzero"
         id="path13"
         style="fill:#252930;fill-opacity:1" />
      <path
         d="M 19.025,1.001 C 16.839,1.042 15.09,2.017 13.94,3.838 10.175,9.799 13.69,23.458 21.729,34.099 29.767,44.74 39.483,48.597 43.254,42.644 47.025,36.69 43.517,23.036 35.482,12.39 L 35.46,12.358 C 30.106,5.277 23.79,0.913 19.025,1.001 Z m 1.895,2.603 c 4.11,-0.077 9.556,3.757 14.173,9.977 l 0.022,0.026 c 6.931,9.352 9.956,21.348 6.702,26.577 -3.253,5.229 -11.633,1.841 -18.566,-7.507 -6.933,-9.348 -9.964,-21.345 -6.716,-26.581 0.991,-1.6 2.499,-2.457 4.385,-2.492 z"
         fill-rule="nonzero"
         id="path14"
         style="fill:url(#linearGradient20)" />
      <path
         d="M 19.225,41.741 C 17.57,41.534 15.753,40.671 14.08,39.298 13.402,38.741 12.211,37.531 11.659,36.84 9.551,34.195 8.106,30.996 7.608,27.875 7.469,27.004 7.417,25.379 7.503,24.627 7.662,23.24 8.052,22.078 8.659,21.184 c 0.338,-0.499 1.189,-1.352 1.269,-1.272 0.014,0.014 -0.01,0.712 -0.055,1.55 -0.165,3.14 -0.081,4.429 0.413,6.309 1.187,4.525 4.221,8.954 7.692,11.229 0.651,0.427 1.768,1.07 3.107,1.789 0.505,0.272 0.912,0.517 0.904,0.546 -0.024,0.078 -0.646,0.274 -1.156,0.363 -0.41,0.071 -1.212,0.093 -1.608,0.043 z"
         fill="#2b2d30"
         fill-rule="nonzero"
         id="path15" />
    </g>
    <path
       d="m 45.414309,50.896227 15.000073,-9.000008 c 0.903599,-0.54216 1.456626,-1.518607 1.456626,-2.572384 0,-1.05384 -0.553027,-2.030219 -1.456626,-2.572441 L 45.414309,27.75139 c -0.926521,-0.55596 -2.080736,-0.570781 -3.021592,-0.03823 -0.940387,0.532381 -1.521786,1.529821 -1.521786,2.610661 V 48.3239 c 0,1.080721 0.581392,2.078162 1.52196,2.610537 0.458879,0.2598 0.968651,0.3894 1.478015,0.3894 0.534609,0 1.068859,-0.1428 1.543403,-0.427614 z"
       id="path2"
       style="fill:url(#linearGradient2);stroke-width:0.600001" />
  </g>
</svg>
