<?xml version="1.0" encoding="UTF-8" standalone="no"?>
<svg
   clip-rule="evenodd"
   fill-rule="evenodd"
   stroke-linejoin="round"
   stroke-miterlimit="2"
   viewBox="0 0 62 62"
   version="1.1"
   id="svg3"
   sodipodi:docname="ms-office.svg"
   width="62"
   height="62"
   inkscape:version="1.4 (e7c3feb100, 2024-10-09)"
   xmlns:inkscape="http://www.inkscape.org/namespaces/inkscape"
   xmlns:sodipodi="http://sodipodi.sourceforge.net/DTD/sodipodi-0.dtd"
   xmlns:xlink="http://www.w3.org/1999/xlink"
   xmlns="http://www.w3.org/2000/svg"
   xmlns:svg="http://www.w3.org/2000/svg">
  <defs
     id="defs3">
    <linearGradient
       id="linearGradient3"
       inkscape:collect="always">
      <stop
         style="stop-color:#aa36c9;stop-opacity:1;"
         offset="0"
         id="stop3" />
      <stop
         style="stop-color:#50677c;stop-opacity:1;"
         offset="1"
         id="stop4" />
    </linearGradient>
    <linearGradient
       inkscape:collect="always"
       xlink:href="#linearGradient3"
       id="linearGradient4"
       x1="24"
       y1="45.667999"
       x2="24"
       y2="2.332"
       gradientUnits="userSpaceOnUse" />
  </defs>
  <sodipodi:namedview
     id="namedview3"
     pagecolor="#ffffff"
     bordercolor="#000000"
     borderopacity="0.25"
     inkscape:showpageshadow="2"
     inkscape:pageopacity="0.0"
     inkscape:pagecheckerboard="0"
     inkscape:deskcolor="#d1d1d1"
     inkscape:zoom="7.8541667"
     inkscape:cx="21.580902"
     inkscape:cy="24.06366"
     inkscape:window-width="1920"
     inkscape:window-height="994"
     inkscape:window-x="0"
     inkscape:window-y="0"
     inkscape:window-maximized="1"
     inkscape:current-layer="svg3" />
  <linearGradient
     id="a"
     x2="1"
     gradientTransform="matrix(-1.4e-7,-43.2543,43.2543,-1.4e-7,197.017,45.586)"
     gradientUnits="userSpaceOnUse">
    <stop
       stop-color="#79004f"
       offset="0"
       id="stop1" />
    <stop
       stop-color="#d11d93"
       offset="1"
       id="stop2" />
  </linearGradient>
  <g
     id="g3"
     transform="matrix(1.2922282,0,0,1.2922282,-0.68147609,-0.68147609)">
    <path
       d="m 45.668,8.56 c 0,-3.438 -2.79,-6.228 -6.228,-6.228 H 8.56 c -3.438,0 -6.228,2.79 -6.228,6.228 v 30.88 c 0,3.438 2.79,6.228 6.228,6.228 h 30.88 c 3.438,0 6.228,-2.79 6.228,-6.228 z"
       id="path2"
       style="fill:url(#linearGradient4)" />
    <path
       d="m 19.667,36.187 c -4.395,-1.546 -8.005,-2.825 -8.022,-2.841 -0.017,-0.017 -0.022,-0.041 -0.01,-0.053 0.012,-0.012 3.633,0.403 8.045,0.922 6.083,0.716 7.292,0.93 7.321,0.887 0.049,-0.075 0.048,-21.038 -0.002,-21.113 -0.053,-0.082 -10.35,2.324 -10.438,2.439 -0.048,0.062 -0.061,1.575 -0.061,7.197 0,5.639 -0.013,7.128 -0.061,7.164 -0.091,0.07 -5.067,2.384 -5.137,2.384 -0.048,0 -0.058,-1.837 -0.048,-9.107 l 0.012,-9.106 6.28,-2.269 C 21,11.443 24.713,10.103 25.798,9.711 L 27.769,9 l 4.43,1.387 c 2.437,0.763 4.457,1.403 4.49,1.424 0.048,0.03 0.061,2.539 0.061,12.286 0,11.617 -0.004,12.25 -0.085,12.292 -0.148,0.078 -8.797,2.613 -8.904,2.611 -0.057,-10e-4 -3.699,-1.267 -8.094,-2.813 z"
       fill="#ffffff"
       fill-rule="nonzero"
       id="path3" />
  </g>
</svg>
