<?xml version="1.0" encoding="UTF-8" standalone="no"?>
<svg
   width="62"
   height="62"
   version="1.1"
   id="svg11"
   sodipodi:docname="ms-onenote.svg"
   inkscape:version="1.4 (e7c3feb100, 2024-10-09)"
   xmlns:inkscape="http://www.inkscape.org/namespaces/inkscape"
   xmlns:sodipodi="http://sodipodi.sourceforge.net/DTD/sodipodi-0.dtd"
   xmlns="http://www.w3.org/2000/svg"
   xmlns:svg="http://www.w3.org/2000/svg">
  <defs
     id="defs11" />
  <sodipodi:namedview
     id="namedview11"
     pagecolor="#ffffff"
     bordercolor="#000000"
     borderopacity="0.25"
     inkscape:showpageshadow="2"
     inkscape:pageopacity="0.0"
     inkscape:pagecheckerboard="0"
     inkscape:deskcolor="#d1d1d1"
     inkscape:zoom="5.890625"
     inkscape:cx="24.360743"
     inkscape:cy="18.164456"
     inkscape:window-width="1920"
     inkscape:window-height="994"
     inkscape:window-x="0"
     inkscape:window-y="0"
     inkscape:window-maximized="1"
     inkscape:current-layer="svg11" />
  <g
     id="g11"
     transform="matrix(0.98333333,0,0,0.98245613,-0.46666672,-0.92982439)">
    <path
       style="opacity:0.2"
       d="M 16.667969,4.9999993 C 15.195243,4.9999989 14,6.1952343 14,7.6679681 V 58.332032 C 13.999968,59.804854 15.195154,61 16.667969,61 H 48 48.40625 59.332032 A 2.6666464,2.66666 0 0 0 62,58.332032 V 47 H 59.539062 L 62,19.398438 V 7.6679681 C 62,6.1952349 60.804758,4.9999997 59.332032,4.9999993 Z"
       id="path1" />
    <path
       style="fill:#9955ff"
       d="m 16.666608,4 h 42.666526 c 1.472726,4e-7 2.666604,1.1938868 2.666604,2.66662 v 11.731085 l -3.139504,35.219691 c 3.2e-5,1.472756 -1.33946,2.033508 -2.666606,2.666678 L 48.40493,60 H 16.666726 C 15.193911,60 13.999968,58.806022 14,57.3332 V 6.66662 C 14,5.1938862 15.193882,3.9999996 16.666608,4 Z"
       id="path2" />
    <path
       style="fill:#814dce;fill-opacity:1"
       d="M 48.00007,18 V 32 L 55.000036,38.39 62,32 V 18 Z"
       id="path3" />
    <path
       style="fill:#7137c8"
       d="M 48.00007,32 V 46 L 55.000036,52.79 62,46 V 32 Z"
       id="path4" />
    <path
       style="fill:#5a2ca0"
       d="M 47.99977,46 H 61.999698 V 57.33334 A 2.6666464,2.66666 0 0 1 59.333052,60 H 47.99977 Z"
       id="path5" />
    <path
       style="opacity:0.1"
       d="M 4.6666604,17 H 31.333378 A 2.66668,2.66668 0 0 1 34,19.66668 V 46.333322 A 2.66666,2.66666 0 0 1 31.3334,49 H 4.6666808 A 2.66668,2.66668 0 0 1 2,46.333322 V 19.666662 A 2.66666,2.66666 0 0 1 4.6666604,17 Z"
       id="path6" />
    <path
       style="fill:#5a2ca0"
       d="M 4.6666604,16 H 31.333378 A 2.66668,2.66668 0 0 1 34,18.66668 V 45.333322 A 2.66666,2.66666 0 0 1 31.3334,48 H 4.6666808 A 2.66668,2.66668 0 0 1 2,45.333322 V 18.666662 A 2.66666,2.66666 0 0 1 4.6666604,16 Z"
       id="path7" />
    <path
       style="fill:#ffffff"
       d="m 9.0000178,22 h 4.2936372 l 8.929351,13.46326 c 0.428782,0.58072 0.750363,1.047894 0.964748,1.40152 h 0.06124 c -0.115578,-0.880502 -0.27281,-1.76712 -0.24898,-2.653338 V 22 H 27 V 42 H 22.712973 L 13.881714,28.74146 C 13.5515,28.303942 13.259685,27.844492 13.008837,27.367178 h -0.07655 c 0.09923,0.967986 0.08584,1.939996 0.0682,2.911864 V 42 H 9 Z"
       id="path8" />
    <path
       style="opacity:0.2;fill:#ffffff"
       d="M 16.667969,4 C 15.195243,3.9999996 14,5.1952349 14,6.6679688 v 1 C 14,6.1952349 15.195243,4.9999996 16.667969,5 H 59.332031 C 60.804757,5.0000004 62,6.1952356 62,7.6679688 v -1 C 62,5.1952355 60.804757,4.0000004 59.332031,4 Z"
       id="path9" />
    <rect
       style="opacity:0.1"
       width="14"
       height="1"
       x="48"
       y="18"
       id="rect9" />
    <rect
       style="opacity:0.1"
       width="14"
       height="1"
       x="48"
       y="32"
       id="rect10" />
    <rect
       style="opacity:0.1"
       width="14"
       height="1"
       x="48"
       y="46"
       id="rect11" />
  </g>
</svg>
