<?xml version="1.0" encoding="UTF-8" standalone="no"?>
<svg
   width="62"
   height="62"
   version="1.1"
   id="svg8"
   sodipodi:docname="ms-powerpoint.svg"
   inkscape:version="1.4 (e7c3feb100, 2024-10-09)"
   xmlns:inkscape="http://www.inkscape.org/namespaces/inkscape"
   xmlns:sodipodi="http://sodipodi.sourceforge.net/DTD/sodipodi-0.dtd"
   xmlns="http://www.w3.org/2000/svg"
   xmlns:svg="http://www.w3.org/2000/svg">
  <defs
     id="defs8" />
  <sodipodi:namedview
     id="namedview8"
     pagecolor="#ffffff"
     bordercolor="#000000"
     borderopacity="0.25"
     inkscape:showpageshadow="2"
     inkscape:pageopacity="0.0"
     inkscape:pagecheckerboard="0"
     inkscape:deskcolor="#d1d1d1"
     inkscape:zoom="8.3306018"
     inkscape:cx="33.671037"
     inkscape:cy="44.294519"
     inkscape:window-width="1920"
     inkscape:window-height="994"
     inkscape:window-x="0"
     inkscape:window-y="0"
     inkscape:window-maximized="1"
     inkscape:current-layer="svg8" />
  <g
     id="g8"
     transform="translate(-0.49999846,-1)">
    <path
       style="opacity:0.2;stroke-width:0.983167"
       d="M 34.4516,60 A 27.62933,27.589602 0 0 0 61.999973,32.491238 H 6.9032228 A 27.62935,27.589622 0 0 0 34.4516,60 Z"
       id="path1" />
    <path
       style="fill:#ed6c47;stroke-width:0.983167"
       d="M 34.45162,4.0000172 A 27.62933,27.589602 0 0 0 6.9032428,31.508779 l 34.9018282,7.342878 z"
       id="path2" />
    <path
       style="fill:#ff8f6b;stroke-width:0.983167"
       d="M 34.45162,4.0000172 A 27.62933,27.589602 0 0 1 61.999993,31.508779 L 48.225802,40.857656 34.45162,31.508779 Z"
       id="path3" />
    <path
       style="fill:#d35230;stroke-width:0.983167"
       d="M 34.4516,59.017541 A 27.62933,27.589602 0 0 0 61.999973,31.508779 H 6.9032228 A 27.62935,27.589622 0 0 0 34.4516,59.017541 Z"
       id="path4" />
    <path
       style="opacity:0.1;stroke-width:0.983167"
       d="M 3.6236478,16.771942 H 29.86025 a 2.623668,2.6198954 0 0 1 2.623611,2.619898 v 26.198796 a 2.6236485,2.619876 0 0 1 -2.623589,2.6199 H 3.6236679 a 2.623668,2.6198954 0 0 1 -2.6236686,-2.6199 V 19.391822 a 2.6236485,2.619876 0 0 1 2.6236485,-2.61988 z"
       id="path5" />
    <rect
       style="opacity:0.1;stroke-width:0.983167"
       width="55.096771"
       height="0.98245597"
       x="6.9032264"
       y="31.508774"
       id="rect5" />
    <path
       style="opacity:0.2;fill:#ffffff;stroke-width:0.983167"
       d="M 34.451611,4 C 19.255517,4.044395 6.9476842,16.334528 6.9032253,31.50877 l 0.026903,0.0059 C 7.487263,16.793843 19.583475,5.0258928 34.451611,4.982456 49.324252,5.025906 61.422786,16.801019 61.97309,31.527961 l 0.02689,-0.01923 C 61.95553,16.334526 49.647702,4.044395 34.451611,4 Z"
       id="path6" />
    <path
       style="fill:#c43e1c;stroke-width:0.983167"
       d="M 3.6236478,15.789483 H 29.86025 a 2.623668,2.6198954 0 0 1 2.623611,2.619898 v 26.198796 a 2.6236485,2.619876 0 0 1 -2.623589,2.619899 H 3.6236679 A 2.623668,2.6198954 0 0 1 0.9999993,44.608177 V 18.409362 a 2.6236485,2.619876 0 0 1 2.6236485,-2.619879 z"
       id="path7" />
    <path
       style="fill:#f9f7f7;stroke-width:0.983167"
       d="m 9.8548374,21.703414 v 19.629922 h 3.9354836 v -5.837164 h 2.982172 c 1.421867,0.02888 2.829878,-0.15336 4.119961,-0.729168 1.128799,-0.505864 2.082401,-1.318516 2.744077,-2.333329 0.649569,-0.917322 0.98688,-2.873837 0.964658,-3.983557 0.115657,-1.732794 -0.601842,-4.013245 -1.948532,-5.169406 -1.620362,-1.150508 -3.6171,-1.70737 -5.626507,-1.577298 z m 3.9354836,3.910627 h 3.070573 c 2.538016,0 3.808649,1.039759 3.808649,3.120071 0.06972,0.768908 -0.311732,1.512587 -0.991557,1.930371 -0.840284,0.611968 -1.886025,0.90714 -2.940078,0.832788 h -2.947587 z"
       id="path8" />
  </g>
</svg>
