<?xml version="1.0" encoding="UTF-8" standalone="no"?>
<svg
   width="62"
   height="62"
   version="1.1"
   id="svg9"
   sodipodi:docname="mytourbook.svg"
   inkscape:version="1.4 (e7c3feb100, 2024-10-09)"
   xmlns:inkscape="http://www.inkscape.org/namespaces/inkscape"
   xmlns:sodipodi="http://sodipodi.sourceforge.net/DTD/sodipodi-0.dtd"
   xmlns="http://www.w3.org/2000/svg"
   xmlns:svg="http://www.w3.org/2000/svg">
  <defs
     id="defs9" />
  <sodipodi:namedview
     id="namedview9"
     pagecolor="#ffffff"
     bordercolor="#000000"
     borderopacity="0.25"
     inkscape:showpageshadow="2"
     inkscape:pageopacity="0.0"
     inkscape:pagecheckerboard="0"
     inkscape:deskcolor="#d1d1d1"
     inkscape:zoom="11.75"
     inkscape:cx="32"
     inkscape:cy="32"
     inkscape:window-width="1920"
     inkscape:window-height="998"
     inkscape:window-x="0"
     inkscape:window-y="0"
     inkscape:window-maximized="1"
     inkscape:current-layer="svg9" />
  <g
     id="g9"
     transform="translate(0,-0.04480417)">
    <path
       style="opacity:0.2;stroke-width:0.954921"
       d="m 41.544145,3.9971338 a 9.136942,13.327144 78.606073 0 0 -3.559896,0.391658 9.136942,13.327144 78.606073 0 0 -7.656248,3.5893398 25.333334,25.066116 0 0 1 1.330726,-0.04638 25.333334,25.066116 0 0 1 19.42969,9.0184414 9.136942,13.327144 78.606073 0 0 1.82552,-6.300026 9.136942,13.327144 78.606073 0 0 -11.369792,-6.6530332 z"
       id="path1" />
    <path
       style="opacity:0.2;fill-rule:evenodd;stroke-width:0.954921"
       d="M 30.999999,9.6513629 A 23.999999,23.746846 0 0 0 7,33.398216 23.999999,23.746846 0 0 0 30.999999,57.145061 23.999999,23.746846 0 0 0 55,33.398216 23.999999,23.746846 0 0 0 30.999999,9.6513629 Z m 0,11.3984891 A 12.480002,12.348362 0 0 1 43.480002,33.398216 12.480002,12.348362 0 0 1 30.999999,45.746569 12.480002,12.348362 0 0 1 18.519998,33.398216 12.480002,12.348362 0 0 1 30.999999,21.049852 Z"
       id="path2" />
    <path
       style="fill:#8fd19e;fill-rule:evenodd;stroke-width:0.954921"
       d="M 30.999999,8.7014895 A 23.999999,23.746846 0 0 0 7,32.448335 23.999999,23.746846 0 0 0 30.999999,56.195184 23.999999,23.746846 0 0 0 55,32.448335 23.999999,23.746846 0 0 0 30.999999,8.7014895 Z m 0,11.3984875 A 12.480002,12.348362 0 0 1 43.480002,32.448335 12.480002,12.348362 0 0 1 30.999999,44.796699 12.480002,12.348362 0 0 1 18.519998,32.448335 12.480002,12.348362 0 0 1 30.999999,20.099977 Z"
       id="path3" />
    <path
       style="opacity:0.2;fill:#ffffff;fill-rule:evenodd;stroke-width:0.954921"
       d="M 30.999999,8.7014895 A 23.999999,23.746846 0 0 0 7,32.448335 23.999999,23.746846 0 0 0 7.0206249,32.834224 23.999999,23.746846 0 0 1 30.999999,9.6513629 23.999999,23.746846 0 0 1 54.979376,32.997482 23.999999,23.746846 0 0 0 55,32.448335 23.999999,23.746846 0 0 0 30.999999,8.7014895 Z M 43.434997,33.342553 A 12.480002,12.348362 0 0 1 30.999999,44.796699 12.480002,12.348362 0 0 1 18.565002,33.453867 a 12.480002,12.348362 0 0 0 -0.04499,0.894218 12.480002,12.348362 0 0 0 0.02435,0.474936 12.480002,12.348362 0 0 1 0.02062,-0.419281 12.480002,12.348362 0 0 0 12.435002,11.342829 12.480002,12.348362 0 0 0 12.434998,-11.454144 12.480002,12.348362 0 0 1 0.02627,0.578833 12.480002,12.348362 0 0 0 0.01872,-0.523173 12.480002,12.348362 0 0 0 -0.04501,-1.005532 z"
       id="path4" />
    <path
       style="opacity:0.2;stroke-width:0.954921"
       d="m 10.396137,40.997199 c 6.484772,7.431368 7.891942,0.796223 12.381095,0.675195 5.896322,4.632927 9.80293,8.157518 22.634711,8.210598 0.706538,1.135937 1.102119,2.327082 0.891533,3.460891 -1.172963,2.516052 -6.48674,5.700921 -15.665793,5.700921 -5.498774,0 -9.283362,-3.144527 -10.168988,0 H 10.549647 C 3.3327522,57.114775 9.1483832,42.840178 10.400071,40.997199 Z"
       id="path5" />
    <path
       style="fill:#2c6d3b;stroke-width:0.954921;fill-opacity:1"
       d="m 10.396137,40.047328 c 6.484772,7.431363 7.891942,0.796219 12.381095,0.675192 5.896322,4.632927 9.80293,8.157518 22.634711,8.210596 0.706538,1.135938 1.102119,2.327083 0.891533,3.460897 -1.172963,2.516048 -6.48674,5.700918 -15.665793,5.700918 -5.498774,0 -9.283362,-3.144527 -10.168988,0 H 10.549647 C 3.3327522,56.164899 9.1483832,41.890305 10.400071,40.047328 Z"
       id="path6" />
    <path
       style="fill:#2c6d3b;stroke-width:0.954921;fill-opacity:1"
       d="m 41.544145,3.0472598 a 9.136942,13.327144 78.606073 0 0 -3.559896,0.3916581 9.136942,13.327144 78.606073 0 0 -7.656248,3.5893397 25.333334,25.066116 0 0 1 1.330726,-0.046379 25.333334,25.066116 0 0 1 19.42969,9.0184424 9.136942,13.327144 78.606073 0 0 1.82552,-6.3000287 9.136942,13.327144 78.606073 0 0 -11.369792,-6.6530325 z"
       id="path7" />
    <path
       style="opacity:0.2;fill:#ffffff;stroke-width:0.954921"
       d="m 41.545002,3.0467713 a 9.136942,13.327144 78.606073 0 0 -3.562506,0.3933069 9.136942,13.327144 78.606073 0 0 -7.653745,3.5880003 25.333334,25.066116 0 0 1 1.331245,-0.044526 25.333334,25.066116 0 0 1 0.01311,0 9.136942,13.327144 78.606073 0 1 6.309381,-2.5935993 9.136942,13.327144 78.606073 0 1 3.5625,-0.3933084 9.136942,13.327144 78.606073 0 1 11.369999,6.6528382 9.136942,13.327144 78.606073 0 1 0.08251,0.734668 9.136942,13.327144 78.606073 0 0 -0.08249,-1.6845569 9.136942,13.327144 78.606073 0 0 -11.369998,-6.6528248 z"
       id="path8" />
    <path
       style="opacity:0.2;fill:#ffffff;stroke-width:0.954921"
       d="m 10.395626,40.047328 c 0,0 0.002,0.002 0.002,0.002 0,0 0.002,-0.002 0.002,-0.002 z m 0.002,0.002 C 9.5842093,41.248808 6.8738324,47.66245 7.0244023,52.555253 7.2095999,47.81764 9.6361522,42.122077 10.397526,40.999065 c 0,0 -0.002,-0.002 -0.002,-0.002 h 0.0036 c 0,0 -0.002,0.002 -0.002,0.002 6.48316,7.427914 7.891909,0.794466 12.380626,0.673451 5.896321,4.632928 9.801347,8.158134 22.63313,8.211219 0.488454,0.78532 0.811958,1.596035 0.90562,2.396945 0.165071,-1.099787 -0.222505,-2.248532 -0.905621,-3.34682 -12.831787,-0.05312 -16.736812,-3.578285 -22.633133,-8.211213 -4.488716,0.121013 -5.897465,6.754466 -12.380627,-0.67345 z"
       id="path9" />
  </g>
</svg>
