<?xml version="1.0" encoding="UTF-8" standalone="no"?>
<svg
   width="64"
   height="64"
   version="1"
   id="svg12"
   sodipodi:docname="nautilus.svg"
   inkscape:version="1.4 (e7c3feb100, 2024-10-09)"
   xmlns:inkscape="http://www.inkscape.org/namespaces/inkscape"
   xmlns:sodipodi="http://sodipodi.sourceforge.net/DTD/sodipodi-0.dtd"
   xmlns:xlink="http://www.w3.org/1999/xlink"
   xmlns="http://www.w3.org/2000/svg"
   xmlns:svg="http://www.w3.org/2000/svg">
  <defs
     id="defs12">
    <linearGradient
       id="linearGradient4"
       inkscape:collect="always">
      <stop
         style="stop-color:#8ebafa;stop-opacity:1;"
         offset="0"
         id="stop3" />
      <stop
         style="stop-color:#5a9cfe;stop-opacity:1"
         offset="1"
         id="stop4" />
    </linearGradient>
    <linearGradient
       id="linearGradient3"
       inkscape:collect="always">
      <stop
         style="stop-color:#0846a1;stop-opacity:1;"
         offset="0"
         id="stop1" />
      <stop
         style="stop-color:#5a9cfe;stop-opacity:1"
         offset="1"
         id="stop2" />
    </linearGradient>
    <linearGradient
       id="linearGradient26"
       inkscape:collect="always">
      <stop
         style="stop-color:#ededed;stop-opacity:1;"
         offset="0"
         id="stop26" />
      <stop
         style="stop-color:#ffffff;stop-opacity:1;"
         offset="1"
         id="stop27" />
    </linearGradient>
    <linearGradient
       id="linearGradient24"
       inkscape:collect="always">
      <stop
         style="stop-color:#4b5d6d;stop-opacity:1;"
         offset="0"
         id="stop24" />
      <stop
         style="stop-color:#99abbb;stop-opacity:1;"
         offset="1"
         id="stop25" />
    </linearGradient>
    <linearGradient
       id="linearGradient20"
       inkscape:collect="always">
      <stop
         style="stop-color:#566c80;stop-opacity:1;"
         offset="0"
         id="stop20" />
      <stop
         style="stop-color:#28383e;stop-opacity:1;"
         offset="1"
         id="stop21" />
    </linearGradient>
    <linearGradient
       id="linearGradient14"
       inkscape:collect="always">
      <stop
         style="stop-color:#2f7ef4;stop-opacity:1;"
         offset="0"
         id="stop14" />
      <stop
         style="stop-color:#5a9cfe;stop-opacity:1"
         offset="1"
         id="stop15" />
    </linearGradient>
    <linearGradient
       id="paint486_linear_890_11"
       x1="707"
       y1="391"
       x2="699.474"
       y2="365.19501"
       gradientUnits="userSpaceOnUse">
      <stop
         stop-color="#2E2E41"
         id="stop1715" />
      <stop
         offset="1"
         stop-color="#566C80"
         id="stop1716" />
    </linearGradient>
    <linearGradient
       id="paint487_linear_890_11"
       x1="701"
       y1="411"
       x2="652.21997"
       y2="371.97601"
       gradientUnits="userSpaceOnUse">
      <stop
         stop-color="#5200FF"
         id="stop1717" />
      <stop
         offset="0.906064"
         stop-color="#0085FF"
         id="stop1718" />
    </linearGradient>
    <linearGradient
       id="paint488_linear_890_11"
       x1="705"
       y1="411"
       x2="661.87097"
       y2="375.71301"
       gradientUnits="userSpaceOnUse">
      <stop
         offset="0.377885"
         stop-color="#FF7E07"
         id="stop1719" />
      <stop
         offset="1"
         stop-color="#FFE607"
         id="stop1720" />
    </linearGradient>
    <linearGradient
       id="paint489_linear_890_11"
       x1="703"
       y1="411"
       x2="665.04999"
       y2="371.05301"
       gradientUnits="userSpaceOnUse">
      <stop
         offset="0.295664"
         stop-color="#71706E"
         id="stop1721" />
      <stop
         offset="1"
         stop-color="#B9AA99"
         id="stop1722" />
    </linearGradient>
    <linearGradient
       id="paint490_linear_890_11"
       x1="672.75"
       y1="379"
       x2="672.75"
       y2="381"
       gradientUnits="userSpaceOnUse">
      <stop
         stop-color="white"
         id="stop1723" />
      <stop
         offset="0.705"
         stop-color="#E6E6E6"
         id="stop1724" />
    </linearGradient>
    <linearGradient
       id="paint491_linear_890_11"
       x1="671.5"
       y1="383"
       x2="671.5"
       y2="385"
       gradientUnits="userSpaceOnUse">
      <stop
         stop-color="white"
         id="stop1725" />
      <stop
         offset="0.705"
         stop-color="#E6E6E6"
         id="stop1726" />
    </linearGradient>
    <linearGradient
       id="paint492_linear_890_11"
       x1="707"
       y1="417"
       x2="682.62701"
       y2="375.21799"
       gradientUnits="userSpaceOnUse">
      <stop
         offset="0.126759"
         stop-color="#2E2E41"
         id="stop1727" />
      <stop
         offset="0.877369"
         stop-color="#566C80"
         id="stop1728" />
    </linearGradient>
    <linearGradient
       id="paint493_linear_890_11"
       x1="691.69598"
       y1="403"
       x2="691.69598"
       y2="399"
       gradientUnits="userSpaceOnUse">
      <stop
         offset="0.340681"
         stop-color="#2E2E41"
         id="stop1729" />
      <stop
         offset="1"
         stop-color="#566C80"
         id="stop1730" />
    </linearGradient>
    <linearGradient
       inkscape:collect="always"
       xlink:href="#linearGradient3"
       id="linearGradient15"
       x1="685.16663"
       y1="375"
       x2="685.01196"
       y2="361"
       gradientUnits="userSpaceOnUse"
       gradientTransform="matrix(1.2,0,0,1,-785.19997,-357)" />
    <linearGradient
       inkscape:collect="always"
       xlink:href="#linearGradient14"
       id="linearGradient17"
       x1="695.30475"
       y1="376.57648"
       x2="694.94366"
       y2="367"
       gradientUnits="userSpaceOnUse"
       gradientTransform="matrix(1.3333334,0,0,0.90909091,-884.00005,-319.63636)" />
    <linearGradient
       inkscape:collect="always"
       xlink:href="#linearGradient4"
       id="linearGradient19"
       x1="691.76569"
       y1="386.71429"
       x2="691.5719"
       y2="373"
       gradientUnits="userSpaceOnUse"
       gradientTransform="matrix(1.2,0,0,0.8235294,-787.60001,-284.47058)" />
    <linearGradient
       inkscape:collect="always"
       xlink:href="#linearGradient20"
       id="linearGradient21"
       x1="663"
       y1="385.9808"
       x2="695.44556"
       y2="417"
       gradientUnits="userSpaceOnUse"
       gradientTransform="translate(-651,-357)" />
    <linearGradient
       inkscape:collect="always"
       xlink:href="#linearGradient20"
       id="linearGradient23"
       x1="703"
       y1="392"
       x2="697"
       y2="361"
       gradientUnits="userSpaceOnUse"
       gradientTransform="translate(-651,-357)" />
    <linearGradient
       inkscape:collect="always"
       xlink:href="#linearGradient24"
       id="linearGradient25"
       x1="683"
       y1="403"
       x2="683"
       y2="399"
       gradientUnits="userSpaceOnUse"
       gradientTransform="translate(-651,-357)" />
    <linearGradient
       inkscape:collect="always"
       xlink:href="#linearGradient26"
       id="linearGradient29"
       x1="675"
       y1="381"
       x2="675"
       y2="379"
       gradientUnits="userSpaceOnUse"
       gradientTransform="translate(-643,-370.46223)" />
    <linearGradient
       inkscape:collect="always"
       xlink:href="#linearGradient26"
       id="linearGradient1"
       gradientUnits="userSpaceOnUse"
       gradientTransform="translate(-643,-361)"
       x1="675"
       y1="381"
       x2="675"
       y2="379" />
    <linearGradient
       inkscape:collect="always"
       xlink:href="#linearGradient26"
       id="linearGradient2"
       gradientUnits="userSpaceOnUse"
       gradientTransform="translate(-643,-352.3)"
       x1="675"
       y1="381"
       x2="675"
       y2="379" />
  </defs>
  <sodipodi:namedview
     id="namedview12"
     pagecolor="#ffffff"
     bordercolor="#000000"
     borderopacity="0.25"
     inkscape:showpageshadow="2"
     inkscape:pageopacity="0.0"
     inkscape:pagecheckerboard="0"
     inkscape:deskcolor="#d1d1d1"
     inkscape:zoom="4.1542523"
     inkscape:cx="19.257376"
     inkscape:cy="25.034589"
     inkscape:window-width="1920"
     inkscape:window-height="998"
     inkscape:window-x="0"
     inkscape:window-y="0"
     inkscape:window-maximized="1"
     inkscape:current-layer="svg12" />
  <path
     d="m 8,26 c 0,-3.314 2.686,-6 6,-6 h 36 c 3.314,0 6,2.686 6,6 v 8 H 8 Z"
     id="path476"
     style="fill:url(#linearGradient23)" />
  <path
     d="M 8,8 C 8,5.791 10.1492,4 12.8,4 H 51.2 C 53.8508,4 56,5.791 56,8 v 42 c 0,2.209 -2.1492,4 -4.8,4 H 12.8 C 10.1492,54 8,52.209 8,50 Z"
     id="path477"
     style="fill:url(#linearGradient15);stroke-width:1.09545" />
  <path
     d="M 8,17.636364 C 8,15.628182 10.388,14 13.333333,14 H 50.666667 C 53.612,14 56,15.628182 56,17.636364 V 50.363636 C 56,52.371818 53.612,54 50.666667,54 H 13.333333 C 10.388,54 8,52.371818 8,50.363636 Z"
     id="path478"
     style="fill:url(#linearGradient17);stroke-width:1.10096" />
  <path
     d="m 8,26 c 0,-1.819176 2.1492,-3.294117 4.8,-3.294117 h 38.4 c 2.6508,0 4.8,1.474941 4.8,3.294117 V 50.705883 C 56,52.525059 53.8508,54 51.2,54 H 12.8 C 10.1492,54 8,52.525059 8,50.705883 Z"
     id="path479"
     style="fill:url(#linearGradient19);stroke-width:0.994103" />
  <path
     d="m 38,9.5377667 c 0,-0.552 -0.448,-1 -1,-1 H 27 c -0.552,0 -1,0.448 -1,1 0,0.5520003 0.448,1.0000003 1,1.0000003 h 10 c 0.552,0 1,-0.448 1,-1.0000003 z"
     id="path480"
     style="fill:url(#linearGradient29)" />
  <path
     d="m 8,34 c 0,-1.105 0.895,-2 2,-2 h 44 c 1.105,0 2,0.895 2,2 v 20 c 0,3.314 -2.686,6 -6,6 H 14 C 10.686,60 8,57.314 8,54 Z"
     id="path482"
     style="fill:url(#linearGradient21)" />
  <path
     d="m 22,44 c 0,-1.105 0.895,-2 2,-2 h 16 c 1.105,0 2,0.895 2,2 0,1.105 -0.895,2 -2,2 H 24 c -1.105,0 -2,-0.895 -2,-2 z"
     id="path483"
     style="fill:url(#linearGradient25)" />
  <path
     d="m 38,19 c 0,-0.552 -0.448,-1 -1,-1 H 27 c -0.552,0 -1,0.448 -1,1 0,0.552 0.448,1 1,1 h 10 c 0.552,0 1,-0.448 1,-1 z"
     id="path480-7"
     style="fill:url(#linearGradient1)" />
  <path
     d="m 38,27.7 c 0,-0.552 -0.448,-1 -1,-1 H 27 c -0.552,0 -1,0.448 -1,1 0,0.552 0.448,1 1,1 h 10 c 0.552,0 1,-0.448 1,-1 z"
     id="path480-5"
     style="fill:url(#linearGradient2)" />
</svg>
