<?xml version="1.0" encoding="UTF-8" standalone="no"?>
<svg
   width="64"
   height="64"
   version="1"
   id="svg12"
   sodipodi:docname="nemo.svg"
   inkscape:version="1.4 (e7c3feb100, 2024-10-09)"
   xmlns:inkscape="http://www.inkscape.org/namespaces/inkscape"
   xmlns:sodipodi="http://sodipodi.sourceforge.net/DTD/sodipodi-0.dtd"
   xmlns:xlink="http://www.w3.org/1999/xlink"
   xmlns="http://www.w3.org/2000/svg"
   xmlns:svg="http://www.w3.org/2000/svg">
  <defs
     id="defs12">
    <linearGradient
       id="linearGradient26"
       inkscape:collect="always">
      <stop
         style="stop-color:#ededed;stop-opacity:1;"
         offset="0"
         id="stop26" />
      <stop
         style="stop-color:#ffffff;stop-opacity:1;"
         offset="1"
         id="stop27" />
    </linearGradient>
    <linearGradient
       id="linearGradient24"
       inkscape:collect="always">
      <stop
         style="stop-color:#1c2329;stop-opacity:1;"
         offset="0"
         id="stop24" />
      <stop
         style="stop-color:#566c80;stop-opacity:1;"
         offset="1"
         id="stop25" />
    </linearGradient>
    <linearGradient
       id="linearGradient20"
       inkscape:collect="always">
      <stop
         style="stop-color:#566c80;stop-opacity:1;"
         offset="0"
         id="stop20" />
      <stop
         style="stop-color:#28383e;stop-opacity:1;"
         offset="1"
         id="stop21" />
    </linearGradient>
    <linearGradient
       id="linearGradient18"
       inkscape:collect="always">
      <stop
         style="stop-color:#989796;stop-opacity:1;"
         offset="0"
         id="stop18" />
      <stop
         style="stop-color:#71706e;stop-opacity:1;"
         offset="1"
         id="stop19" />
    </linearGradient>
    <linearGradient
       id="linearGradient16"
       inkscape:collect="always">
      <stop
         style="stop-color:#ffd556;stop-opacity:1"
         offset="0"
         id="stop16" />
      <stop
         style="stop-color:#fea75f;stop-opacity:1"
         offset="1"
         id="stop17" />
    </linearGradient>
    <linearGradient
       id="linearGradient14"
       inkscape:collect="always">
      <stop
         style="stop-color:#0b5cd5;stop-opacity:1"
         offset="0"
         id="stop14" />
      <stop
         style="stop-color:#5a9cfe;stop-opacity:1"
         offset="1"
         id="stop15" />
    </linearGradient>
    <linearGradient
       id="paint486_linear_890_11"
       x1="707"
       y1="391"
       x2="699.474"
       y2="365.19501"
       gradientUnits="userSpaceOnUse">
      <stop
         stop-color="#2E2E41"
         id="stop1715" />
      <stop
         offset="1"
         stop-color="#566C80"
         id="stop1716" />
    </linearGradient>
    <linearGradient
       id="paint487_linear_890_11"
       x1="701"
       y1="411"
       x2="652.21997"
       y2="371.97601"
       gradientUnits="userSpaceOnUse">
      <stop
         stop-color="#5200FF"
         id="stop1717" />
      <stop
         offset="0.906064"
         stop-color="#0085FF"
         id="stop1718" />
    </linearGradient>
    <linearGradient
       id="paint488_linear_890_11"
       x1="705"
       y1="411"
       x2="661.87097"
       y2="375.71301"
       gradientUnits="userSpaceOnUse">
      <stop
         offset="0.377885"
         stop-color="#FF7E07"
         id="stop1719" />
      <stop
         offset="1"
         stop-color="#FFE607"
         id="stop1720" />
    </linearGradient>
    <linearGradient
       id="paint489_linear_890_11"
       x1="703"
       y1="411"
       x2="665.04999"
       y2="371.05301"
       gradientUnits="userSpaceOnUse">
      <stop
         offset="0.295664"
         stop-color="#71706E"
         id="stop1721" />
      <stop
         offset="1"
         stop-color="#B9AA99"
         id="stop1722" />
    </linearGradient>
    <linearGradient
       id="paint490_linear_890_11"
       x1="672.75"
       y1="379"
       x2="672.75"
       y2="381"
       gradientUnits="userSpaceOnUse">
      <stop
         stop-color="white"
         id="stop1723" />
      <stop
         offset="0.705"
         stop-color="#E6E6E6"
         id="stop1724" />
    </linearGradient>
    <linearGradient
       id="paint491_linear_890_11"
       x1="671.5"
       y1="383"
       x2="671.5"
       y2="385"
       gradientUnits="userSpaceOnUse">
      <stop
         stop-color="white"
         id="stop1725" />
      <stop
         offset="0.705"
         stop-color="#E6E6E6"
         id="stop1726" />
    </linearGradient>
    <linearGradient
       id="paint492_linear_890_11"
       x1="707"
       y1="417"
       x2="682.62701"
       y2="375.21799"
       gradientUnits="userSpaceOnUse">
      <stop
         offset="0.126759"
         stop-color="#2E2E41"
         id="stop1727" />
      <stop
         offset="0.877369"
         stop-color="#566C80"
         id="stop1728" />
    </linearGradient>
    <linearGradient
       id="paint493_linear_890_11"
       x1="691.69598"
       y1="403"
       x2="691.69598"
       y2="399"
       gradientUnits="userSpaceOnUse">
      <stop
         offset="0.340681"
         stop-color="#2E2E41"
         id="stop1729" />
      <stop
         offset="1"
         stop-color="#566C80"
         id="stop1730" />
    </linearGradient>
    <linearGradient
       inkscape:collect="always"
       xlink:href="#linearGradient14"
       id="linearGradient15"
       x1="670.62866"
       y1="361"
       x2="685.83484"
       y2="391"
       gradientUnits="userSpaceOnUse" />
    <linearGradient
       inkscape:collect="always"
       xlink:href="#linearGradient16"
       id="linearGradient17"
       x1="669"
       y1="389"
       x2="705"
       y2="367"
       gradientUnits="userSpaceOnUse" />
    <linearGradient
       inkscape:collect="always"
       xlink:href="#linearGradient18"
       id="linearGradient19"
       x1="671.90656"
       y1="373"
       x2="701"
       y2="417"
       gradientUnits="userSpaceOnUse" />
    <linearGradient
       inkscape:collect="always"
       xlink:href="#linearGradient20"
       id="linearGradient21"
       x1="663"
       y1="385.9808"
       x2="695.44556"
       y2="417"
       gradientUnits="userSpaceOnUse" />
    <linearGradient
       inkscape:collect="always"
       xlink:href="#linearGradient20"
       id="linearGradient23"
       x1="703"
       y1="392"
       x2="697"
       y2="361"
       gradientUnits="userSpaceOnUse" />
    <linearGradient
       inkscape:collect="always"
       xlink:href="#linearGradient24"
       id="linearGradient25"
       x1="683"
       y1="403"
       x2="683"
       y2="399"
       gradientUnits="userSpaceOnUse" />
    <linearGradient
       inkscape:collect="always"
       xlink:href="#linearGradient26"
       id="linearGradient27"
       x1="673"
       y1="385"
       x2="673"
       y2="383"
       gradientUnits="userSpaceOnUse" />
    <linearGradient
       inkscape:collect="always"
       xlink:href="#linearGradient26"
       id="linearGradient29"
       x1="675"
       y1="381"
       x2="675"
       y2="379"
       gradientUnits="userSpaceOnUse" />
  </defs>
  <sodipodi:namedview
     id="namedview12"
     pagecolor="#ffffff"
     bordercolor="#000000"
     borderopacity="0.25"
     inkscape:showpageshadow="2"
     inkscape:pageopacity="0.0"
     inkscape:pagecheckerboard="0"
     inkscape:deskcolor="#d1d1d1"
     inkscape:zoom="4.1542523"
     inkscape:cx="19.257376"
     inkscape:cy="25.034589"
     inkscape:window-width="1920"
     inkscape:window-height="998"
     inkscape:window-x="0"
     inkscape:window-y="0"
     inkscape:window-maximized="1"
     inkscape:current-layer="svg12" />
  <g
     id="g2272"
     transform="translate(-651,-357)">
    <path
       d="m 659,383 c 0,-3.314 2.686,-6 6,-6 h 36 c 3.314,0 6,2.686 6,6 v 8 h -48 z"
       id="path476"
       style="fill:url(#linearGradient23)" />
    <path
       d="m 661,365 c 0,-2.209 1.791,-4 4,-4 h 32 c 2.209,0 4,1.791 4,4 v 42 c 0,2.209 -1.791,4 -4,4 h -32 c -2.209,0 -4,-1.791 -4,-4 z"
       id="path477"
       style="fill:url(#linearGradient15)" />
    <path
       d="m 669,371 c 0,-2.209 1.791,-4 4,-4 h 28 c 2.209,0 4,1.791 4,4 v 36 c 0,2.209 -1.791,4 -4,4 h -28 c -2.209,0 -4,-1.791 -4,-4 z"
       id="path478"
       style="fill:url(#linearGradient17)" />
    <path
       d="m 663,377 c 0,-2.209 1.791,-4 4,-4 h 32 c 2.209,0 4,1.791 4,4 v 30 c 0,2.209 -1.791,4 -4,4 h -32 c -2.209,0 -4,-1.791 -4,-4 z"
       id="path479"
       style="fill:url(#linearGradient19)" />
    <path
       d="m 681,380 c 0,-0.552 -0.448,-1 -1,-1 h -10 c -0.552,0 -1,0.448 -1,1 0,0.552 0.448,1 1,1 h 10 c 0.552,0 1,-0.448 1,-1 z"
       id="path480"
       style="fill:url(#linearGradient29)" />
    <path
       d="m 677,384 c 0,-0.552 -0.448,-1 -1,-1 h -6 c -0.552,0 -1,0.448 -1,1 0,0.552 0.448,1 1,1 h 6 c 0.552,0 1,-0.448 1,-1 z"
       id="path481"
       style="fill:url(#linearGradient27)" />
    <path
       d="m 659,391 c 0,-1.105 0.895,-2 2,-2 h 44 c 1.105,0 2,0.895 2,2 v 20 c 0,3.314 -2.686,6 -6,6 h -36 c -3.314,0 -6,-2.686 -6,-6 z"
       id="path482"
       style="fill:url(#linearGradient21)" />
    <path
       d="m 673,401 c 0,-1.105 0.895,-2 2,-2 h 16 c 1.105,0 2,0.895 2,2 0,1.105 -0.895,2 -2,2 h -16 c -1.105,0 -2,-0.895 -2,-2 z"
       id="path483"
       style="fill:url(#linearGradient25)" />
  </g>
</svg>
