<?xml version="1.0" encoding="UTF-8" standalone="no"?>
<svg
   width="62"
   height="62"
   version="1.1"
   id="svg7"
   sodipodi:docname="blockbench.svg"
   inkscape:version="1.4 (e7c3feb100, 2024-10-09)"
   xmlns:inkscape="http://www.inkscape.org/namespaces/inkscape"
   xmlns:sodipodi="http://sodipodi.sourceforge.net/DTD/sodipodi-0.dtd"
   xmlns:xlink="http://www.w3.org/1999/xlink"
   xmlns="http://www.w3.org/2000/svg"
   xmlns:svg="http://www.w3.org/2000/svg">
  <defs
     id="defs7">
    <linearGradient
       inkscape:collect="always"
       xlink:href="#linearGradient8"
       id="linearGradient10"
       x1="31.5"
       y1="59.017544"
       x2="31.5"
       y2="4.9824562"
       gradientUnits="userSpaceOnUse"
       gradientTransform="translate(-0.5,-0.5087719)" />
    <linearGradient
       id="linearGradient8"
       inkscape:collect="always">
      <stop
         style="stop-color:#2d3d53;stop-opacity:1;"
         offset="0"
         id="stop8" />
      <stop
         style="stop-color:#354864;stop-opacity:1;"
         offset="1"
         id="stop10" />
    </linearGradient>
    <linearGradient
       id="paint3_linear_332_93"
       x1="37.304401"
       y1="24.2272"
       x2="23.255199"
       y2="12.9039"
       gradientUnits="userSpaceOnUse"
       gradientTransform="matrix(1,0,0,1.0089403,-0.9999998,-0.28624446)">
      <stop
         stop-color="#731FFF"
         id="stop9" />
      <stop
         offset="0.905415"
         stop-color="#EB1AFF"
         id="stop10-5" />
    </linearGradient>
    <linearGradient
       id="paint1_linear_332_93"
       x1="2"
       y1="61.696899"
       x2="14.6751"
       y2="28.2421"
       gradientUnits="userSpaceOnUse"
       gradientTransform="matrix(0.91578336,0,0,1,1.7216248,-7.2011443)">
      <stop
         stop-color="#731FFF"
         id="stop5" />
      <stop
         offset="0.905415"
         stop-color="#EB1AFF"
         id="stop6" />
    </linearGradient>
    <linearGradient
       id="paint2_linear_332_93"
       x1="54.645401"
       y1="46.748501"
       x2="26.243099"
       y2="10.4978"
       gradientUnits="userSpaceOnUse"
       gradientTransform="matrix(0.91578336,0,0,1,1.7216248,-7.2011443)">
      <stop
         offset="0.118093"
         stop-color="#731FFF"
         id="stop7" />
      <stop
         offset="0.905415"
         stop-color="#EB1AFF"
         id="stop8-3" />
    </linearGradient>
    <linearGradient
       id="linearGradient4"
       x1="16"
       x2="47"
       y1="16"
       y2="48"
       gradientUnits="userSpaceOnUse"
       gradientTransform="matrix(1.1935485,0,0,1.1875,-6.5967725,-6.999994)">
      <stop
         stop-color="#ffffff"
         offset="0"
         id="stop1" />
      <stop
         stop-color="#ffffff"
         offset=".45161"
         id="stop2" />
      <stop
         stop-color="#fef0cb"
         offset=".59375"
         id="stop3" />
      <stop
         stop-color="#ffbcc3"
         offset="1"
         id="stop4" />
    </linearGradient>
  </defs>
  <sodipodi:namedview
     id="namedview7"
     pagecolor="#ffffff"
     bordercolor="#000000"
     borderopacity="0.25"
     inkscape:showpageshadow="2"
     inkscape:pageopacity="0.0"
     inkscape:pagecheckerboard="0"
     inkscape:deskcolor="#d1d1d1"
     inkscape:zoom="8.3085046"
     inkscape:cx="36.16776"
     inkscape:cy="50.610792"
     inkscape:window-width="1920"
     inkscape:window-height="998"
     inkscape:window-x="0"
     inkscape:window-y="0"
     inkscape:window-maximized="1"
     inkscape:current-layer="svg7"
     showgrid="false">
    <inkscape:grid
       id="grid1"
       units="px"
       originx="0"
       originy="0"
       spacingx="1"
       spacingy="1"
       empcolor="#0099e5"
       empopacity="0.30196078"
       color="#0099e5"
       opacity="0.14901961"
       empspacing="5"
       enabled="true"
       visible="false" />
  </sodipodi:namedview>
  <g
     id="g7"
     transform="translate(0,-0.4912281)">
    <rect
       style="opacity:0.2;stroke-width:0.9823"
       width="55"
       height="55.017544"
       x="3.5"
       y="4.4736843"
       rx="8.25"
       ry="8.2526312"
       id="rect1" />
    <rect
       style="fill:url(#linearGradient10);stroke-width:0.9823"
       width="55"
       height="55.017544"
       x="3.5"
       y="3.4912281"
       rx="8.25"
       ry="8.2526312"
       id="rect2" />
    <path
       style="opacity:0.1;fill:#ffffff;stroke-width:0.9823"
       d="M 11.748466,3.4912281 C 7.1779652,3.4912281 3.5,7.1703661 3.5,11.742325 v 0.982456 c 0,-4.5719589 3.6779652,-8.2510969 8.248466,-8.2510969 h 38.503068 c 4.5705,0 8.248466,3.679138 8.248466,8.2510969 v -0.982456 c 0,-4.5719589 -3.677966,-8.2510969 -8.248466,-8.2510969 z"
       id="path4-3" />
  </g>
  <path
     d="m 33.648739,47.25674 c -0.239481,-0.19387 -0.247921,-0.24585 -0.118649,-0.73011 0.147339,-0.55215 1.638437,-4.80633 1.716711,-4.89783 0.0253,-0.0295 0.398553,0.0366 0.829481,0.14702 0.430921,0.11052 0.90846,0.20033 1.061184,0.19978 0.301445,-10e-4 1.288722,-0.51512 3.434377,-1.7884 0.756527,-0.44892 1.410309,-0.7814 1.452776,-0.73886 0.04249,0.0425 -0.124714,0.9988 -0.371674,2.125 -0.342471,1.56182 -0.509011,2.10541 -0.701883,2.29105 -0.604335,0.58167 -6.340307,3.59416 -6.853125,3.5992 -0.105341,9.9e-4 -0.307523,-0.0923 -0.449321,-0.20689 z m -18.61799,-6.31357 c -0.106336,-0.11751 -0.192994,-0.28837 -0.192564,-0.37968 7.25e-4,-0.1545 1.653953,-3.773473 1.937803,-4.241903 0.120367,-0.198637 0.262126,-0.175439 2.453363,0.401555 1.279062,0.336803 2.36734,0.649103 2.418411,0.693983 0.140787,0.123843 -0.370053,1.382995 -0.71939,1.773155 -0.258502,0.28875 -0.721252,0.474 -2.878247,1.15231 -1.413653,0.44456 -2.627807,0.8096 -2.698203,0.81126 -0.07037,0.001 -0.214934,-0.0931 -0.32128,-0.21069 z M 36.100668,40.50625 C 35.433323,40.29347 27.163578,37.912087 17.257171,35.080135 13.029828,33.871582 9.4417728,32.798106 9.2836798,32.694538 8.91589,32.453543 8.9036725,31.992175 9.2590416,31.764024 c 0.37971,-0.243776 10.0884794,-1.620661 11.0024374,-1.560288 0.814697,0.05378 27.990218,4.047294 28.129818,4.1338 0.145007,0.08965 0.107992,0.585912 -0.05371,0.719507 -0.397812,0.328767 -11.161251,5.631447 -11.416942,5.624657 -0.162269,-0.004 -0.531609,-0.0834 -0.820754,-0.17545 z m 5.023658,-8.758596 c -4.530052,-0.600962 -10.470769,-1.384303 -13.201057,-1.740816 -6.734526,-0.879083 -6.659245,-0.863234 -6.659245,-1.400883 0,-0.140359 0.258092,-1.38251 0.573544,-2.760359 0.315441,-1.377856 0.821296,-3.661795 1.124093,-5.075325 0.564195,-2.63389 0.724199,-3.125713 1.078231,-3.313873 0.333403,-0.1773 28.399469,-2.070002 28.621397,-1.930164 0.10398,0.06559 0.240531,0.200823 0.30339,0.300501 0.11508,0.18243 0.08024,0.374525 -2.21831,12.239377 -0.478644,2.470789 -0.926864,4.5606 -0.99602,4.643875 -0.0692,0.08334 -0.185035,0.146652 -0.257487,0.140702 -0.07249,-0.0058 -3.838139,-0.502531 -8.368067,-1.103494 z"
     fill="#ffffff"
     stroke-width="0.11683"
     id="path1" />
</svg>
