<?xml version="1.0" encoding="UTF-8" standalone="no"?>
<svg
   width="62"
   height="62"
   viewBox="0 0 16.404166 16.404167"
   version="1.1"
   id="svg1829"
   inkscape:version="1.4 (e7c3feb100, 2024-10-09)"
   sodipodi:docname="nextcloud-password-client.svg"
   xmlns:inkscape="http://www.inkscape.org/namespaces/inkscape"
   xmlns:sodipodi="http://sodipodi.sourceforge.net/DTD/sodipodi-0.dtd"
   xmlns:xlink="http://www.w3.org/1999/xlink"
   xmlns="http://www.w3.org/2000/svg"
   xmlns:svg="http://www.w3.org/2000/svg"
   xmlns:rdf="http://www.w3.org/1999/02/22-rdf-syntax-ns#"
   xmlns:cc="http://creativecommons.org/ns#"
   xmlns:dc="http://purl.org/dc/elements/1.1/">
  <defs
     id="defs1823">
    <linearGradient
       id="linearGradient4"
       inkscape:collect="always">
      <stop
         style="stop-color:#b7c6cd;stop-opacity:1;"
         offset="0"
         id="stop4" />
      <stop
         style="stop-color:#eff2f6;stop-opacity:1;"
         offset="1"
         id="stop5" />
    </linearGradient>
    <linearGradient
       id="linearGradient1"
       inkscape:collect="always">
      <stop
         style="stop-color:#4c78b1;stop-opacity:1;"
         offset="0"
         id="stop1" />
      <stop
         style="stop-color:#5582c2;stop-opacity:1;"
         offset="0.49046701"
         id="stop3" />
      <stop
         style="stop-color:#4c78b1;stop-opacity:1;"
         offset="1"
         id="stop2" />
    </linearGradient>
    <linearGradient
       id="b"
       x1="24.586"
       x2="24.586"
       y1="12.173"
       y2="68.517754"
       gradientTransform="matrix(0.7932033,0,0,0.7932033,-1.8105302,-2.3385477)"
       gradientUnits="userSpaceOnUse">
      <stop
         offset="0"
         stop-color="#fff"
         id="stop7" />
      <stop
         offset="1"
         stop-color="#e8e8e8"
         id="stop9"
         style="stop-color:#0568ff;stop-opacity:1" />
    </linearGradient>
    <linearGradient
       inkscape:collect="always"
       xlink:href="#linearGradient1"
       id="linearGradient2"
       x1="8.5864277"
       y1="1.1780925"
       x2="12.92429"
       y2="15.581421"
       gradientUnits="userSpaceOnUse"
       gradientTransform="translate(-0.38434463,-0.38434249)" />
    <linearGradient
       inkscape:collect="always"
       xlink:href="#linearGradient4"
       id="linearGradient5"
       x1="8.1147633"
       y1="13.694118"
       x2="11.178645"
       y2="7.0776038"
       gradientUnits="userSpaceOnUse" />
  </defs>
  <sodipodi:namedview
     id="base"
     pagecolor="#ffffff"
     bordercolor="#666666"
     borderopacity="1.0"
     inkscape:pageopacity="0.0"
     inkscape:pageshadow="2"
     inkscape:zoom="8"
     inkscape:cx="31.9375"
     inkscape:cy="39.375"
     inkscape:document-units="px"
     inkscape:current-layer="layer1"
     inkscape:document-rotation="0"
     showgrid="false"
     units="px"
     inkscape:window-width="1920"
     inkscape:window-height="994"
     inkscape:window-x="0"
     inkscape:window-y="0"
     inkscape:window-maximized="1"
     inkscape:pagecheckerboard="0"
     inkscape:showpageshadow="2"
     inkscape:deskcolor="#d1d1d1" />
  <metadata
     id="metadata1826">
    <rdf:RDF>
      <cc:Work
         rdf:about="">
        <dc:format>image/svg+xml</dc:format>
        <dc:type
           rdf:resource="http://purl.org/dc/dcmitype/StillImage" />
      </cc:Work>
    </rdf:RDF>
  </metadata>
  <g
     inkscape:label="Capa 1"
     inkscape:groupmode="layer"
     id="layer1">
    <rect
       style="opacity:0.296765;fill:none;fill-opacity:1;stroke:#000000;stroke-width:0.0471237;stroke-linecap:round;stroke-linejoin:round;stroke-miterlimit:4;stroke-dasharray:none;stroke-opacity:0.02"
       id="rect1634"
       width="14.047983"
       height="14.047983"
       x="1.1780918"
       y="1.1780919"
       rx="3.1148088"
       ry="3.1148088" />
    <rect
       ry="3.1148088"
       rx="3.1148088"
       y="1.1780919"
       x="1.1780918"
       height="14.047983"
       width="14.047983"
       id="rect1638"
       style="opacity:0.296765;fill:none;fill-opacity:1;stroke:#000000;stroke-width:0.0942473;stroke-linecap:round;stroke-linejoin:round;stroke-miterlimit:4;stroke-dasharray:none;stroke-opacity:0.02" />
    <rect
       style="opacity:0.296765;fill:none;fill-opacity:1;stroke:#000000;stroke-width:0.141371;stroke-linecap:round;stroke-linejoin:round;stroke-miterlimit:4;stroke-dasharray:none;stroke-opacity:0.02"
       id="rect1640"
       width="14.047983"
       height="14.047983"
       x="1.1780918"
       y="1.1780919"
       rx="3.1148088"
       ry="3.1148088" />
    <rect
       ry="3.1148088"
       rx="3.1148088"
       y="1.1780919"
       x="1.1780918"
       height="14.047983"
       width="14.047983"
       id="rect1642"
       style="opacity:0.296765;fill:none;fill-opacity:1;stroke:#000000;stroke-width:0.188495;stroke-linecap:round;stroke-linejoin:round;stroke-miterlimit:4;stroke-dasharray:none;stroke-opacity:0.02" />
    <rect
       style="opacity:0.296765;fill:none;fill-opacity:1;stroke:#000000;stroke-width:0.235618;stroke-linecap:round;stroke-linejoin:round;stroke-miterlimit:4;stroke-dasharray:none;stroke-opacity:0.02"
       id="rect1644"
       width="14.047983"
       height="14.047983"
       x="1.1780918"
       y="1.1780919"
       rx="3.1148088"
       ry="3.1148088" />
    <rect
       ry="3.1148088"
       rx="3.1148088"
       y="1.1780919"
       x="1.1780918"
       height="14.047983"
       width="14.047983"
       id="rect1646"
       style="opacity:0.296765;fill:none;fill-opacity:1;stroke:#000000;stroke-width:0.282742;stroke-linecap:round;stroke-linejoin:round;stroke-miterlimit:4;stroke-dasharray:none;stroke-opacity:0.02" />
    <rect
       style="opacity:0.296765;fill:none;fill-opacity:1;stroke:#000000;stroke-width:0.329866;stroke-linecap:round;stroke-linejoin:round;stroke-miterlimit:4;stroke-dasharray:none;stroke-opacity:0.02"
       id="rect1648"
       width="14.047983"
       height="14.047983"
       x="1.1780918"
       y="1.1780919"
       rx="3.1148088"
       ry="3.1148088" />
    <rect
       ry="3.1148088"
       rx="3.1148088"
       y="1.1780919"
       x="1.1780918"
       height="14.047983"
       width="14.047983"
       id="rect1650"
       style="opacity:0.296765;fill:none;fill-opacity:1;stroke:#000000;stroke-width:0.376989;stroke-linecap:round;stroke-linejoin:round;stroke-miterlimit:4;stroke-dasharray:none;stroke-opacity:0.02" />
    <rect
       style="opacity:0.296765;fill:none;fill-opacity:1;stroke:#000000;stroke-width:0.471237;stroke-linecap:round;stroke-linejoin:round;stroke-miterlimit:4;stroke-dasharray:none;stroke-opacity:0.02"
       id="rect1652"
       width="14.047983"
       height="14.047983"
       x="1.1780918"
       y="1.1780919"
       rx="3.1148088"
       ry="3.1148088" />
    <rect
       ry="3.1148088"
       rx="3.1148088"
       y="1.1780919"
       x="1.1780918"
       height="14.047983"
       width="14.047983"
       id="rect1654"
       style="opacity:0.296765;fill:none;fill-opacity:1;stroke:#000000;stroke-width:0.565484;stroke-linecap:round;stroke-linejoin:round;stroke-miterlimit:4;stroke-dasharray:none;stroke-opacity:0.02" />
    <rect
       style="opacity:0.296765;fill:none;fill-opacity:1;stroke:#000000;stroke-width:0.659731;stroke-linecap:round;stroke-linejoin:round;stroke-miterlimit:4;stroke-dasharray:none;stroke-opacity:0.02"
       id="rect1656"
       width="14.047983"
       height="14.047983"
       x="1.1780918"
       y="1.1780919"
       rx="3.1148088"
       ry="3.1148088" />
    <rect
       ry="3.1148088"
       rx="3.1148088"
       y="1.1780919"
       x="1.1780918"
       height="14.047983"
       width="14.047983"
       id="rect1658"
       style="opacity:0.296765;fill:none;fill-opacity:1;stroke:#000000;stroke-width:0.753979;stroke-linecap:round;stroke-linejoin:round;stroke-miterlimit:4;stroke-dasharray:none;stroke-opacity:0.02" />
    <rect
       style="opacity:0.296765;fill:none;fill-opacity:1;stroke:#000000;stroke-width:0.848226;stroke-linecap:round;stroke-linejoin:round;stroke-miterlimit:4;stroke-dasharray:none;stroke-opacity:0.02"
       id="rect1660"
       width="14.047983"
       height="14.047983"
       x="1.1780918"
       y="1.1780919"
       rx="3.1148088"
       ry="3.1148088" />
    <rect
       ry="3.1148088"
       rx="3.1148088"
       y="1.1780919"
       x="1.1780918"
       height="14.047983"
       width="14.047983"
       id="rect1662"
       style="opacity:0.296765;fill:none;fill-opacity:1;stroke:#000000;stroke-width:0.942473;stroke-linecap:round;stroke-linejoin:round;stroke-miterlimit:4;stroke-dasharray:none;stroke-opacity:0.02" />
    <rect
       style="opacity:0.296765;fill:none;fill-opacity:1;stroke:#000000;stroke-width:1.03672;stroke-linecap:round;stroke-linejoin:round;stroke-miterlimit:4;stroke-dasharray:none;stroke-opacity:0.02"
       id="rect1664"
       width="14.047983"
       height="14.047983"
       x="1.1780918"
       y="1.1780919"
       rx="3.1148088"
       ry="3.1148088" />
    <rect
       ry="3.1148088"
       rx="3.1148088"
       y="1.1780919"
       x="1.1780918"
       height="14.047983"
       width="14.047983"
       id="rect1666"
       style="opacity:0.296765;fill:none;fill-opacity:1;stroke:#000000;stroke-width:1.22522;stroke-linecap:round;stroke-linejoin:round;stroke-miterlimit:4;stroke-dasharray:none;stroke-opacity:0.02" />
    <rect
       style="opacity:0.296765;fill:none;fill-opacity:1;stroke:#000000;stroke-width:1.41371;stroke-linecap:round;stroke-linejoin:round;stroke-miterlimit:4;stroke-dasharray:none;stroke-opacity:0.02"
       id="rect1668"
       width="14.047983"
       height="14.047983"
       x="1.1780918"
       y="1.1780919"
       rx="3.1148088"
       ry="3.1148088" />
    <rect
       ry="3.1148088"
       rx="3.1148088"
       y="1.1780919"
       x="1.1780918"
       height="14.047983"
       width="14.047983"
       id="rect1670"
       style="opacity:0.296765;fill:none;fill-opacity:1;stroke:#000000;stroke-width:1.6022;stroke-linecap:round;stroke-linejoin:round;stroke-miterlimit:4;stroke-dasharray:none;stroke-opacity:0.02" />
    <rect
       style="opacity:0.296765;fill:none;fill-opacity:1;stroke:#000000;stroke-width:1.7907;stroke-linecap:round;stroke-linejoin:round;stroke-miterlimit:4;stroke-dasharray:none;stroke-opacity:0.02"
       id="rect1672"
       width="14.047983"
       height="14.047983"
       x="1.1780918"
       y="1.1780919"
       rx="3.1148088"
       ry="3.1148088" />
    <rect
       ry="3.1148088"
       rx="3.1148088"
       y="1.1780919"
       x="1.1780918"
       height="14.047983"
       width="14.047983"
       id="rect1674"
       style="opacity:0.296765;fill:none;fill-opacity:1;stroke:#000000;stroke-width:1.97919;stroke-linecap:round;stroke-linejoin:round;stroke-miterlimit:4;stroke-dasharray:none;stroke-opacity:0.02" />
    <rect
       style="opacity:0.296765;fill:none;fill-opacity:1;stroke:#000000;stroke-width:2.16769;stroke-linecap:round;stroke-linejoin:round;stroke-miterlimit:4;stroke-dasharray:none;stroke-opacity:0.02"
       id="rect1676"
       width="14.047983"
       height="14.047983"
       x="1.1780918"
       y="1.1780919"
       rx="3.1148088"
       ry="3.1148088" />
    <rect
       ry="3.1148088"
       rx="3.1148088"
       y="1.1780919"
       x="1.1780918"
       height="14.047983"
       width="14.047983"
       id="rect1678"
       style="opacity:0.296765;fill:none;fill-opacity:1;stroke:#000000;stroke-width:2.35618;stroke-linecap:round;stroke-linejoin:round;stroke-miterlimit:4;stroke-dasharray:none;stroke-opacity:0.02" />
    <rect
       id="rect849-5"
       width="14.816667"
       height="14.816667"
       x="0.79374999"
       y="0.79374999"
       rx="3.2852452"
       ry="3.2852452"
       style="fill:url(#linearGradient2)" />
    <g
       id="g2"
       transform="translate(-0.5291665,-2.3812497)"
       style="fill:url(#linearGradient5)">
      <path
         style="opacity:0.2;stroke-width:0.275843;fill:url(#linearGradient5)"
         d="M 8.7312504,7.6844204 A 3.0316842,3.036956 0 0 0 5.805072,9.931401 1.9292536,1.9326084 0 0 0 4.0459203,8.7887681 1.9292536,1.9326084 0 0 0 2.1166667,10.721373 a 1.9292536,1.9326084 0 0 0 1.9292536,1.932614 1.9292536,1.9326084 0 0 0 1.7602286,-1.148029 3.0316842,3.036956 0 0 0 2.9251015,2.252375 3.0316842,3.036956 0 0 0 2.9261806,-2.24698 1.9292536,1.9326084 0 0 0 1.75915,1.142634 1.9292536,1.9326084 0 0 0 1.929252,-1.932614 A 1.9292536,1.9326084 0 0 0 13.416581,8.7887681 1.9292536,1.9326084 0 0 0 11.656353,9.9367933 3.0316842,3.036956 0 0 0 8.7312504,7.6844204 Z m 0.034453,1.1043477 A 1.9292536,1.9326084 0 0 1 10.694953,10.721373 1.9292536,1.9326084 0 0 1 8.7657014,12.653987 1.9292536,1.9326084 0 0 1 6.8364478,10.721373 1.9292536,1.9326084 0 0 1 8.7657034,8.7887681 Z M 4.0459207,9.8931157 A 0.82682298,0.82826075 0 0 1 4.8727432,10.721373 0.82682298,0.82826075 0 0 1 4.0459203,11.549636 0.82682298,0.82826075 0 0 1 3.2190973,10.721373 0.82682298,0.82826075 0 0 1 4.0459207,9.8931157 Z m 9.3706603,0 a 0.82682298,0.82826075 0 0 1 0.826822,0.8282573 0.82682298,0.82826075 0 0 1 -0.826822,0.828263 0.82682298,0.82826075 0 0 1 -0.826822,-0.828263 0.82682298,0.82826075 0 0 1 0.826822,-0.8282573 z"
         id="path2" />
      <path
         style="fill:url(#linearGradient5);stroke-width:0.275843"
         d="M 8.7312504,7.4083333 A 3.0316842,3.036956 0 0 0 5.6995665,10.44529 3.0316842,3.036956 0 0 0 8.7312504,13.482247 3.0316842,3.036956 0 0 0 11.762936,10.44529 3.0316842,3.036956 0 0 0 8.7312504,7.4083333 Z M 8.7657033,8.512681 A 1.9292536,1.9326084 0 0 1 10.694953,10.44529 1.9292536,1.9326084 0 0 1 8.7657016,12.377896 1.9292536,1.9326084 0 0 1 6.836448,10.44529 1.9292536,1.9326084 0 0 1 8.7657033,8.512681 Z"
         id="path3" />
      <path
         style="fill:url(#linearGradient5);stroke-width:0.275843"
         d="M 4.0459203,8.512681 A 1.9292536,1.9326084 0 0 0 2.1166667,10.44529 1.9292536,1.9326084 0 0 0 4.0459203,12.377896 1.9292536,1.9326084 0 0 0 5.9751739,10.44529 1.9292536,1.9326084 0 0 0 4.0459203,8.512681 Z m 0,1.1043478 A 0.82682298,0.82826075 0 0 1 4.8727432,10.44529 0.82682298,0.82826075 0 0 1 4.0459203,11.27355 0.82682298,0.82826075 0 0 1 3.2190973,10.44529 0.82682298,0.82826075 0 0 1 4.0459203,9.6170288 Z"
         id="path4" />
      <path
         style="fill:url(#linearGradient5);stroke-width:0.275843"
         d="m 13.416581,8.512681 a 1.9292536,1.9326084 0 0 0 -1.929252,1.932609 1.9292536,1.9326084 0 0 0 1.929252,1.932606 1.9292536,1.9326084 0 0 0 1.929252,-1.932606 1.9292536,1.9326084 0 0 0 -1.929252,-1.932609 z m 0,1.1043478 a 0.82682298,0.82826075 0 0 1 0.826822,0.8282612 0.82682298,0.82826075 0 0 1 -0.826822,0.82826 0.82682298,0.82826075 0 0 1 -0.826822,-0.82826 0.82682298,0.82826075 0 0 1 0.826822,-0.8282612 z"
         id="path5" />
    </g>
  </g>
</svg>
