<?xml version="1.0" encoding="UTF-8" standalone="no"?>
<svg
   width="62"
   height="62"
   version="1.1"
   id="svg5"
   sodipodi:docname="live-installer.svg"
   inkscape:version="1.4 (unknown)"
   xmlns:inkscape="http://www.inkscape.org/namespaces/inkscape"
   xmlns:sodipodi="http://sodipodi.sourceforge.net/DTD/sodipodi-0.dtd"
   xmlns:xlink="http://www.w3.org/1999/xlink"
   xmlns="http://www.w3.org/2000/svg"
   xmlns:svg="http://www.w3.org/2000/svg">
  <defs
     id="defs5">
    <linearGradient
       id="linearGradient8"
       inkscape:collect="always">
      <stop
         style="stop-color:#52a8d8;stop-opacity:1;"
         offset="0"
         id="stop8" />
      <stop
         style="stop-color:#354864;stop-opacity:1;"
         offset="1"
         id="stop10" />
    </linearGradient>
    <linearGradient
       id="linearGradient4217">
      <stop
         style="stop-color:#000000;stop-opacity:1;"
         offset="0"
         id="stop2" />
      <stop
         style="stop-color:#000000;stop-opacity:0;"
         offset="1"
         id="stop4" />
    </linearGradient>
    <linearGradient
       id="linearGradient4161">
      <stop
         style="stop-color:#334545;stop-opacity:1;"
         offset="0"
         id="stop7" />
      <stop
         style="stop-color:#4d6868;stop-opacity:1"
         offset="1"
         id="stop9" />
    </linearGradient>
    <linearGradient
       id="a-1-2"
       y1="510.79999"
       y2="527.14001"
       gradientUnits="userSpaceOnUse"
       x2="0">
      <stop
         stop-color="#7cbaf8"
         id="stop2-2-7" />
      <stop
         offset="1"
         stop-color="#f4fcff"
         id="stop4-70-0" />
    </linearGradient>
    <linearGradient
       id="c"
       y1="503.79999"
       x1="400.57001"
       y2="519.79999"
       x2="416.57001"
       gradientUnits="userSpaceOnUse">
      <stop
         stop-color="#292c2f"
         id="stop12" />
      <stop
         offset="1"
         stop-opacity="0"
         id="stop14" />
    </linearGradient>
    <linearGradient
       id="b"
       y1="542.79999"
       x1="408.57001"
       y2="521.79999"
       x2="387.57001"
       gradientUnits="userSpaceOnUse"
       gradientTransform="translate(-384.57,-499.8)">
      <stop
         stop-color="#197cf1"
         id="stop7-8" />
      <stop
         offset="1"
         stop-color="#20bcfa"
         id="stop9-7" />
    </linearGradient>
    <linearGradient
       xlink:href="#linearGradient1389"
       id="linearGradient4503-5-6"
       y1="37"
       y2="4"
       x2="0"
       gradientUnits="userSpaceOnUse"
       gradientTransform="matrix(1.0218446,0,0,0.99999999,21.748946,8.2587777)" />
    <linearGradient
       id="linearGradient1389">
      <stop
         style="stop-color:#ffaaaa;stop-opacity:1"
         id="stop1385"
         offset="0" />
      <stop
         offset="1"
         style="stop-color:#ff5555;stop-opacity:1"
         id="stop1387" />
    </linearGradient>
    <linearGradient
       id="paint543_linear_890_11"
       x1="978.5"
       y1="298"
       x2="978.5"
       y2="304"
       gradientUnits="userSpaceOnUse"
       gradientTransform="matrix(0.75000004,0,0,0.75000004,-717.38333,-173.49123)">
      <stop
         offset="0.189495"
         stop-color="#EFF2F6"
         id="stop1829" />
      <stop
         offset="0.850463"
         stop-color="#B7C6CD"
         id="stop1830" />
    </linearGradient>
    <linearGradient
       inkscape:collect="always"
       xlink:href="#linearGradient8"
       id="linearGradient10"
       x1="31.5"
       y1="4"
       x2="31.5"
       y2="59.017544"
       gradientUnits="userSpaceOnUse"
       gradientTransform="translate(-0.5,-1)" />
    <linearGradient
       id="linearGradient4144">
      <stop
         style="stop-color:#c83771;stop-opacity:1"
         offset="0"
         id="stop1141" />
      <stop
         style="stop-color:#de87aa;stop-opacity:1"
         offset="1"
         id="stop1143" />
    </linearGradient>
    <linearGradient
       id="c-0"
       gradientUnits="userSpaceOnUse"
       x1="10"
       x2="24"
       y1="10"
       y2="24"
       gradientTransform="translate(59.728813,26.237288)">
      <stop
         offset="0"
         stop-color="#292c2f"
         id="stop12-2" />
      <stop
         offset="1"
         stop-opacity="0"
         id="stop14-3" />
    </linearGradient>
    <linearGradient
       id="d"
       gradientUnits="userSpaceOnUse"
       x1="24"
       x2="24"
       y1="25"
       y2="7"
       gradientTransform="translate(59.728813,26.237288)">
      <stop
         offset="0"
         stop-color="#bb9d71"
         id="stop2-7" />
      <stop
         offset="1"
         stop-color="#f9f2e7"
         id="stop4-5" />
    </linearGradient>
  </defs>
  <sodipodi:namedview
     id="namedview5"
     pagecolor="#ffffff"
     bordercolor="#000000"
     borderopacity="0.25"
     inkscape:showpageshadow="2"
     inkscape:pageopacity="0.0"
     inkscape:pagecheckerboard="0"
     inkscape:deskcolor="#d1d1d1"
     inkscape:zoom="8.2643105"
     inkscape:cx="25.289466"
     inkscape:cy="30.311059"
     inkscape:window-width="1920"
     inkscape:window-height="998"
     inkscape:window-x="0"
     inkscape:window-y="0"
     inkscape:window-maximized="1"
     inkscape:current-layer="svg5" />
  <rect
     style="opacity:0.2;stroke-width:0.9823"
     width="55"
     height="55.017544"
     x="3.5"
     y="3.9824562"
     rx="8.25"
     ry="8.2526312"
     id="rect1" />
  <rect
     style="fill:url(#linearGradient10);stroke-width:0.9823"
     width="55"
     height="55.017544"
     x="3.5"
     y="3"
     rx="8.25"
     ry="8.2526312"
     id="rect2" />
  <path
     style="opacity:1;fill:#5a79a5;stroke-width:0.9823;fill-opacity:0.5"
     d="M 11.748466,3 C 7.1779652,3 3.5,6.6791384 3.5,11.251097 v 0.982456 c 0,-4.5719585 3.6779652,-8.2510969 8.248466,-8.2510969 h 38.503068 c 4.5705,0 8.248466,3.6791384 8.248466,8.2510969 V 11.251097 C 58.5,6.6791384 54.822034,3 50.251534,3 Z"
     id="path4" />
  <g
     transform="matrix(1.3222456,0,0,1.3463701,61.719878,-17.854038)"
     id="g3">
    <path
       d="m -15.312,23.421 -2.9395,0.625 c 0.45686,1.6806 2.0242,2.5502 3.7812,3.2812 l 2.9062,-0.625 c 0.77922,-1.4774 -1.8914,-2.3023 -3.748,-3.2812 z m -5.875,1.25 -2.9395,0.625 c 0.26454,1.3011 1.9365,2.3092 3.7812,3.2812 l 2.9395,-0.625 c -0.81944,-1.236 -1.5531,-2.4996 -3.7812,-3.2812 z m -5.875,1.25 -2.9395,0.625 c 0.45296,1.6705 1.6785,2.7891 3.7812,3.2812 l 2.9395,-0.625 c -0.5133,-1.2183 -1.8547,-2.2985 -3.7812,-3.2812 z m -5.8438,1.25 -2.125,0.46875 c -0.249,0.053 -0.4642,0.13925 -0.6582,0.28125 0.72409,1.1615 1.1256,2.3975 3.5957,3.1562 l 2.9375,-0.625 c 0.1146,-1.3548 -1.0924,-2.4568 -3.75,-3.2812 z m 0.90625,4.75 -4,4 V 46.95 c 0,1.083 0.82375,1.9688 1.8438,1.9688 h 22.312 c 1.019,0 1.8457,-0.88575 1.8457,-1.9688 V 35.921 l -1,-4 h -3 l -2.002,1 -0.99805,-1 h -3 l -2.002,1 -0.99805,-1 h -3 l -2.002,1 -0.99805,-1 h -3 z"
       fill="#474747"
       id="path1-3"
       style="fill:#243042;fill-opacity:1" />
    <path
       d="m -12.838,22.923 c -0.123,-6.57e-4 -0.24641,0.01242 -0.37109,0.03906 l -2.1094,0.44922 v 0.002 l 3.7695,3.2852 0.97852,-0.20898 -0.42383,-1.9883 c -0.19756,-0.9268 -0.98275,-1.5735 -1.8438,-1.5781 z m -5.4141,1.1172 -2.9336,0.62695 3.7695,3.2832 2.9336,-0.625 z m -5.8672,1.2539 -2.9336,0.625 3.7695,3.2852 2.9336,-0.62695 z m -5.8672,1.252 -2.9336,0.62695 3.7695,3.2852 2.9336,-0.62695 z m -5.7051,1.373 c -0.58457,0.42757 -0.90117,1.2147 -0.73047,2.0137 l 0.01367,0.0625 0.41211,1.9238 3.9121,-0.83398 c 0,0 -3.606,-3.1641 -3.6074,-3.166 z m -0.30859,4.002 v 4 h 1 l 3,-4 z m 7,0 -3,4 h 3 l 3,-4 z m 6,0 -3,4 h 3 l 3,-4 z m 6,0 -3,4 h 3 l 3,-4 z m 6,0 -3,4 h 4 v -4 z"
       fill="#f9f9f9"
       id="path2" />
    <path
       d="m -34,37.921 v 9 h 22 v -9 z m 1,1 h 3 v 7 h -3 z m 4,0 h 7 v 2 h -7 z m 8,0 h 8 v 2 h -8 z m -8,3 h 7 v 4 h -7 z m 8,0 h 8 v 4 h -8 z"
       fill="#f7d36e"
       id="path3" />
  </g>
</svg>
