<?xml version="1.0" encoding="UTF-8" standalone="no"?>
<svg
   width="62"
   height="62"
   version="1"
   id="svg5"
   sodipodi:docname="noiz2sa.svg"
   inkscape:version="1.4 (e7c3feb100, 2024-10-09)"
   xmlns:inkscape="http://www.inkscape.org/namespaces/inkscape"
   xmlns:sodipodi="http://sodipodi.sourceforge.net/DTD/sodipodi-0.dtd"
   xmlns="http://www.w3.org/2000/svg"
   xmlns:svg="http://www.w3.org/2000/svg">
  <defs
     id="defs5" />
  <sodipodi:namedview
     id="namedview5"
     pagecolor="#ffffff"
     bordercolor="#000000"
     borderopacity="0.25"
     inkscape:showpageshadow="2"
     inkscape:pageopacity="0.0"
     inkscape:pagecheckerboard="0"
     inkscape:deskcolor="#d1d1d1"
     inkscape:zoom="11.75"
     inkscape:cx="32"
     inkscape:cy="32.085106"
     inkscape:window-width="1920"
     inkscape:window-height="998"
     inkscape:window-x="0"
     inkscape:window-y="0"
     inkscape:window-maximized="1"
     inkscape:current-layer="svg5" />
  <g
     id="g5"
     transform="translate(-0.499998,-1)">
    <path
       style="opacity:0.2;fill:none;stroke:#000000;stroke-width:15.7165"
       d="m 11.857144,12.841266 39.285708,39.29825"
       id="path1" />
    <path
       style="opacity:0.2;stroke-width:0.982303"
       d="M 9.2368167,4.982456 C 6.3349116,4.982456 4,7.4377736 4,10.485742 V 54.496708 C 4,57.54468 6.3349116,60 9.2368167,60 h 5.2406503 c 2.901911,0 5.23682,-2.45532 5.23682,-5.503292 V 10.485742 c 0,-3.0479684 -2.334909,-5.503286 -5.23682,-5.503286 z m 39.2857133,0 c -2.901903,0 -5.236812,2.4553176 -5.236812,5.503286 V 54.496708 C 43.285718,57.54468 45.620627,60 48.52253,60 h 5.240654 c 2.901902,0 5.236811,-2.45532 5.236811,-5.503292 V 10.485742 c 0,-3.0479684 -2.334909,-5.503286 -5.236811,-5.503286 z"
       id="path2" />
    <path
       style="fill:none;stroke:#334567;stroke-width:15.7165;stroke-opacity:1"
       d="m 11.857144,11.259736 39.285708,39.29824"
       id="path3" />
    <path
       style="opacity:0.1;fill:#ffffff;stroke-width:0.982303"
       d="M 17.412392,6.302632 6.3018977,17.41667 6.7929691,17.90789 17.412392,7.285088 56.207026,46.09211 56.6981,45.60088 Z"
       id="path4" />
    <rect
       style="fill:#334567;stroke-width:0.982303;fill-opacity:1"
       width="15.714284"
       height="55.017548"
       x="4"
       y="4"
       rx="5.2377691"
       ry="5.5017524"
       id="rect4" />
    <rect
       style="fill:#334567;stroke-width:0.982303;fill-opacity:1"
       width="15.714284"
       height="55.017548"
       x="43.285717"
       y="4"
       rx="5.2377691"
       ry="5.5017524"
       id="rect5" />
    <path
       style="opacity:0.1;fill:#ffffff;stroke-width:0.982303"
       d="M 9.2368167,4 C 6.3349116,4 4,6.4553177 4,9.5032895 V 10.485742 C 4,7.4377741 6.3349116,4.982456 9.2368167,4.982456 h 5.2406503 c 2.901911,0 5.23682,2.4553181 5.23682,5.503286 V 9.5032895 C 19.714287,6.4553177 17.379378,4 14.477467,4 Z M 48.522529,4 c -2.901903,0 -5.236811,2.4553177 -5.236811,5.5032895 v 0.9824525 c 0,-3.0479679 2.334908,-5.503286 5.236811,-5.503286 h 5.240656 c 2.901902,0 5.23681,2.4553181 5.23681,5.503286 V 9.5032895 C 58.999995,6.4553177 56.665087,4 53.763185,4 Z"
       id="path5" />
  </g>
</svg>
