<?xml version="1.0" encoding="UTF-8" standalone="no"?>
<svg
   width="62"
   height="62"
   version="1"
   id="svg4"
   sodipodi:docname="nos-tv.svg"
   inkscape:version="1.4 (e7c3feb100, 2024-10-09)"
   xmlns:inkscape="http://www.inkscape.org/namespaces/inkscape"
   xmlns:sodipodi="http://sodipodi.sourceforge.net/DTD/sodipodi-0.dtd"
   xmlns="http://www.w3.org/2000/svg"
   xmlns:svg="http://www.w3.org/2000/svg">
  <defs
     id="defs4" />
  <sodipodi:namedview
     id="namedview4"
     pagecolor="#ffffff"
     bordercolor="#000000"
     borderopacity="0.25"
     inkscape:showpageshadow="2"
     inkscape:pageopacity="0.0"
     inkscape:pagecheckerboard="0"
     inkscape:deskcolor="#d1d1d1"
     inkscape:zoom="11.75"
     inkscape:cx="32"
     inkscape:cy="30.723404"
     inkscape:window-width="1920"
     inkscape:window-height="998"
     inkscape:window-x="0"
     inkscape:window-y="0"
     inkscape:window-maximized="1"
     inkscape:current-layer="svg4" />
  <g
     id="g4"
     transform="matrix(0.98214286,0,0,0.98245614,-0.42857152,-0.92982455)">
    <rect
       style="opacity:0.2"
       width="56"
       height="56"
       x="4"
       y="5"
       rx="16.799999"
       ry="16.799999"
       id="rect1" />
    <rect
       style="fill:#39397a;fill-opacity:1"
       width="56"
       height="56"
       x="4"
       y="4"
       rx="16.799999"
       ry="16.799999"
       id="rect2" />
    <path
       style="opacity:0.1;fill:#ffffff"
       d="M 20.801,4 C 11.494,4 4,11.494 4,20.801 v 1 C 4,12.494 11.494,5 20.801,5 H 43.199 C 52.506,5 60,12.494 60,21.801 v -1 C 60,11.494 52.506,4 43.199,4 Z"
       id="path4" />
  </g>
  <g
     transform="matrix(1.3823529,0,0,1.3913043,-2.1764696,-3.5781834)"
     fill-rule="nonzero"
     id="g7">
    <path
       d="M 11.122,20.902 38,26 v 3.735 L 37,31 c 0,0 -8.852,-1 -9,-1 l -1.174,3 H 12.329 L 11,31 Z"
       fill="#61d3e0"
       id="path3-6"
       style="fill:#3cb1c3" />
    <path
       d="M 11.121,20.902 11,31 11.012,31.018 11.121,21.902 38,27 v -1 z"
       fill="#ffffff"
       fill-opacity="0.2"
       id="path4-2" />
    <path
       d="m 12,13 -2,2 v 16 l 2,2 H 25 V 31 H 12 V 15 h 24 v 2 h 0.414 L 38,18.586 V 15 l -2,-2 z"
       fill="#fcc142"
       id="path5"
       style="fill:#ffd556" />
    <path
       d="m 7,34 2,2 H 26.586 L 25,34.414 V 34 Z m 32,0 v 0.414 L 37.414,36 H 39 l 2,-2 z"
       fill="#fccf42"
       id="path6"
       style="fill:#ffd556" />
    <path
       d="m 28,18 -2,2 v 14 l 2,2 h 8 l 2,-2 V 20 l -2,-2 z m 0,2 h 8 v 9 h -8 z m 0,11 h 8 v 3 h -8 z m 3,1 v 1 h 2 v -1 z"
       fill="#fccf42"
       id="path7"
       style="fill:#ffd556" />
  </g>
</svg>
