<?xml version="1.0" encoding="UTF-8" standalone="no"?>
<svg
   width="62"
   height="62"
   viewBox="0 0 16.404167 16.404168"
   version="1.1"
   id="svg951"
   inkscape:version="1.4 (e7c3feb100, 2024-10-09)"
   sodipodi:docname="notepadqq.svg"
   xmlns:inkscape="http://www.inkscape.org/namespaces/inkscape"
   xmlns:sodipodi="http://sodipodi.sourceforge.net/DTD/sodipodi-0.dtd"
   xmlns:xlink="http://www.w3.org/1999/xlink"
   xmlns="http://www.w3.org/2000/svg"
   xmlns:svg="http://www.w3.org/2000/svg"
   xmlns:rdf="http://www.w3.org/1999/02/22-rdf-syntax-ns#"
   xmlns:cc="http://creativecommons.org/ns#"
   xmlns:dc="http://purl.org/dc/elements/1.1/">
  <defs
     id="defs945">
    <linearGradient
       id="linearGradient8"
       inkscape:collect="always">
      <stop
         style="stop-color:#f2f2f2;stop-opacity:1;"
         offset="0"
         id="stop8" />
      <stop
         style="stop-color:#ffffff;stop-opacity:1;"
         offset="1"
         id="stop9" />
    </linearGradient>
    <linearGradient
       id="linearGradient6"
       inkscape:collect="always">
      <stop
         style="stop-color:#2fba93;stop-opacity:1;"
         offset="0"
         id="stop6" />
      <stop
         style="stop-color:#628486;stop-opacity:1;"
         offset="1"
         id="stop7" />
    </linearGradient>
    <clipPath
       clipPathUnits="userSpaceOnUse"
       id="clipPath1015">
      <circle
         style="opacity:1;fill:#000000;fill-opacity:0.391371;stroke-width:3;stroke-linecap:square;stroke-linejoin:round"
         id="circle1017"
         cx="7.9922285"
         cy="8.3515797"
         r="4.4578996" />
    </clipPath>
    <clipPath
       clipPathUnits="userSpaceOnUse"
       id="clipPath972">
      <circle
         style="fill:#ffffff;fill-opacity:0.79872;stroke-width:3;stroke-linecap:square;stroke-linejoin:round"
         id="circle974"
         cx="8.4402485"
         cy="8.3515797"
         r="4.4578996" />
    </clipPath>
    <linearGradient
       inkscape:collect="always"
       xlink:href="#linearGradient6"
       id="linearGradient7"
       x1="9.117506"
       y1="15.84913"
       x2="9.2243671"
       y2="0.60854173"
       gradientUnits="userSpaceOnUse" />
    <linearGradient
       inkscape:collect="always"
       xlink:href="#linearGradient8"
       id="linearGradient9"
       x1="77.725997"
       y1="25.192441"
       x2="111.02603"
       y2="25.192441"
       gradientUnits="userSpaceOnUse" />
    <linearGradient
       inkscape:collect="always"
       xlink:href="#linearGradient8"
       id="linearGradient10"
       gradientUnits="userSpaceOnUse"
       x1="77.725997"
       y1="25.192441"
       x2="111.02603"
       y2="25.192441" />
    <linearGradient
       inkscape:collect="always"
       xlink:href="#linearGradient8"
       id="linearGradient11"
       gradientUnits="userSpaceOnUse"
       x1="77.725997"
       y1="25.192441"
       x2="111.02603"
       y2="25.192441" />
    <linearGradient
       inkscape:collect="always"
       xlink:href="#linearGradient8"
       id="linearGradient12"
       gradientUnits="userSpaceOnUse"
       x1="77.725997"
       y1="25.192441"
       x2="111.02603"
       y2="25.192441" />
    <linearGradient
       inkscape:collect="always"
       xlink:href="#linearGradient8"
       id="linearGradient13"
       gradientUnits="userSpaceOnUse"
       x1="77.725997"
       y1="25.192441"
       x2="111.02603"
       y2="25.192441" />
    <linearGradient
       inkscape:collect="always"
       xlink:href="#linearGradient8"
       id="linearGradient14"
       gradientUnits="userSpaceOnUse"
       x1="77.725997"
       y1="25.192441"
       x2="111.02603"
       y2="25.192441" />
    <linearGradient
       inkscape:collect="always"
       xlink:href="#linearGradient8"
       id="linearGradient15"
       gradientUnits="userSpaceOnUse"
       x1="77.725997"
       y1="25.192441"
       x2="111.02603"
       y2="25.192441" />
    <linearGradient
       inkscape:collect="always"
       xlink:href="#linearGradient8"
       id="linearGradient16"
       gradientUnits="userSpaceOnUse"
       x1="77.725997"
       y1="25.192441"
       x2="111.02603"
       y2="25.192441" />
    <linearGradient
       inkscape:collect="always"
       xlink:href="#linearGradient8"
       id="linearGradient17"
       gradientUnits="userSpaceOnUse"
       x1="77.725997"
       y1="25.192441"
       x2="111.02603"
       y2="25.192441" />
  </defs>
  <sodipodi:namedview
     id="base"
     pagecolor="#ffffff"
     bordercolor="#666666"
     borderopacity="1.0"
     inkscape:pageopacity="0.0"
     inkscape:pageshadow="2"
     inkscape:zoom="5.6"
     inkscape:cx="-2.4107143"
     inkscape:cy="27.678572"
     inkscape:document-units="px"
     inkscape:current-layer="layer1"
     inkscape:document-rotation="0"
     showgrid="false"
     units="px"
     inkscape:window-width="1920"
     inkscape:window-height="994"
     inkscape:window-x="0"
     inkscape:window-y="0"
     inkscape:window-maximized="1"
     showguides="true"
     inkscape:guide-bbox="true"
     inkscape:showpageshadow="2"
     inkscape:pagecheckerboard="0"
     inkscape:deskcolor="#d1d1d1" />
  <metadata
     id="metadata948">
    <rdf:RDF>
      <cc:Work
         rdf:about="">
        <dc:format>image/svg+xml</dc:format>
        <dc:type
           rdf:resource="http://purl.org/dc/dcmitype/StillImage" />
      </cc:Work>
    </rdf:RDF>
  </metadata>
  <g
     inkscape:label="Capa 1"
     inkscape:groupmode="layer"
     id="layer1">
    <rect
       id="rect933"
       width="14.439191"
       height="15.240588"
       x="1.0326024"
       y="0.60854173"
       rx="2.4993184"
       ry="2.4894819"
       style="fill:url(#linearGradient7)" />
    <g
       id="g842"
       transform="matrix(0.37752673,0,0,0.37512474,-27.369638,-1.2021906)"
       style="stroke:url(#linearGradient9)">
      <g
         id="g128485"
         transform="translate(70.430997,-0.55755922)"
         style="stroke:url(#linearGradient17)">
        <path
           d="M 40.594999,34 H 7.295 v 0.666665 C 7.295,34.780665 7.32473,34.89 7.35327,35 h 33.183693 c 0.02795,-0.11 0.05807,-0.219335 0.05807,-0.333335 z"
           id="path303-3"
           style="fill:#ffffff;fill-opacity:1;stroke:url(#linearGradient10)" />
        <path
           style="opacity:0.2;stroke:url(#linearGradient11);stroke-width:1.49086"
           d="M 7.5,17.990908 V 29.918182 H 8.99086 V 19.481817 h 4.47274 c 0.826,0 1.4909,0.664947 1.4909,1.49091 v 8.945455 h 1.491 v -8.945455 c 0,-1.651927 -1.3299,-2.981819 -2.9819,-2.981819 z"
           id="path309-6" />
        <path
           style="fill:#ffffff;stroke:url(#linearGradient12);stroke-width:1.49086"
           d="M 7.5,16.5 V 28.427272 H 8.99086 V 17.990908 h 4.47274 c 0.826,0 1.4909,0.664947 1.4909,1.490909 v 8.945455 h 1.491 V 19.481817 C 16.4455,17.829891 15.1156,16.5 13.4636,16.5 Z"
           id="path311-7" />
        <path
           style="opacity:0.2;stroke:url(#linearGradient13);stroke-width:1.49086"
           d="m 23.9,17.990908 c -1.65194,0 -2.98176,1.329892 -2.98176,2.981819 v 5.963636 c 0,1.651928 1.32982,2.981819 2.98176,2.981819 h 2.98176 V 32.9 h 1.49098 V 17.990908 Z m 0,1.490909 h 2.98176 v 8.945455 H 23.9 c -0.826,0 -1.49086,-0.664945 -1.49086,-1.490909 v -5.963636 c 0,-0.825963 0.66486,-1.49091 1.49086,-1.49091 z"
           id="path313-5" />
        <path
           style="fill:#ffffff;stroke:url(#linearGradient14);stroke-width:1.49086"
           d="m 23.9,16.5 c -1.65194,0 -2.98176,1.329891 -2.98176,2.981817 v 5.963637 c 0,1.651927 1.32982,2.981818 2.98176,2.981818 h 2.98176 v 2.981819 h 1.49098 V 16.5 Z m 0,1.490908 h 2.98176 v 8.945455 H 23.9 c -0.826,0 -1.49086,-0.664945 -1.49086,-1.490909 v -5.963637 c 0,-0.825962 0.66486,-1.490909 1.49086,-1.490909 z"
           id="path315-3" />
        <path
           style="opacity:0.2;stroke:url(#linearGradient15);stroke-width:1.49086"
           d="m 35.82726,17.990908 c -1.65196,0 -2.98176,1.329892 -2.98176,2.981819 v 5.963636 c 0,1.651928 1.3298,2.981819 2.98176,2.981819 h 2.98188 V 32.9 H 40.3 V 17.990908 Z m 0,1.490909 h 2.98188 v 8.945455 h -2.98188 c -0.826,0 -1.49086,-0.664945 -1.49086,-1.490909 v -5.963636 c 0,-0.825963 0.66486,-1.49091 1.49086,-1.49091 z"
           id="path317-5" />
        <path
           style="fill:#ffffff;stroke:url(#linearGradient16);stroke-width:1.49086"
           d="m 35.82726,16.5 c -1.65196,0 -2.98176,1.329891 -2.98176,2.981817 v 5.963637 c 0,1.651927 1.3298,2.981818 2.98176,2.981818 h 2.98188 v 2.981819 H 40.3 V 16.5 Z m 0,1.490908 h 2.98188 v 8.945455 h -2.98188 c -0.826,0 -1.49086,-0.664945 -1.49086,-1.490909 v -5.963637 c 0,-0.825962 0.66486,-1.490909 1.49086,-1.490909 z"
           id="path319-6" />
      </g>
    </g>
  </g>
</svg>
