<?xml version="1.0" encoding="UTF-8" standalone="no"?>
<svg
   width="62"
   height="62"
   version="1"
   id="svg8"
   sodipodi:docname="nuclear.svg"
   inkscape:version="1.4 (e7c3feb100, 2024-10-09)"
   xmlns:inkscape="http://www.inkscape.org/namespaces/inkscape"
   xmlns:sodipodi="http://sodipodi.sourceforge.net/DTD/sodipodi-0.dtd"
   xmlns="http://www.w3.org/2000/svg"
   xmlns:svg="http://www.w3.org/2000/svg">
  <defs
     id="defs8" />
  <sodipodi:namedview
     id="namedview8"
     pagecolor="#ffffff"
     bordercolor="#000000"
     borderopacity="0.25"
     inkscape:showpageshadow="2"
     inkscape:pageopacity="0.0"
     inkscape:pagecheckerboard="0"
     inkscape:deskcolor="#d1d1d1"
     inkscape:zoom="11.71875"
     inkscape:cx="32"
     inkscape:cy="29.952"
     inkscape:window-width="1920"
     inkscape:window-height="996"
     inkscape:window-x="0"
     inkscape:window-y="0"
     inkscape:window-maximized="1"
     inkscape:current-layer="svg8" />
  <g
     id="g9"
     transform="matrix(0.98214286,0,0,0.98245614,-0.42857152,-0.92982455)">
    <g
       id="g8">
      <rect
         style="opacity:0.2"
         width="56"
         height="56"
         x="4"
         y="5"
         rx="16.799999"
         ry="16.799999"
         id="rect1" />
      <path
         style="fill:#4d8ee4"
         d="M 20.626733,7.2920791 41.813861,7.1188119 c 9.30689,-0.076111 12.583955,6.6724391 13.507921,15.9336631 L 57.40099,43.89307 c 0.426042,4.270357 1.005936,7.504277 -1.62352,10.467611 C 52.704362,57.823998 48.215643,60 43.2,60 H 20.8 C 11.4928,60 4,52.5072 4,43.2 V 20.8 c 0,-5.192258 2.3319464,-9.819829 6.009929,-12.8968034 2.914855,-2.4385478 6.502,-0.5774668 10.616804,-0.6111175 z"
         id="path1" />
      <path
         style="opacity:0.2;fill:#ffffff"
         d="m 10.072266,7.8554688 c -0.02073,0.016858 -0.04184,0.029587 -0.0625,0.046875 C 9.8587571,8.0286761 9.7245268,8.1731957 9.578125,8.3046875 9.7437314,8.1559363 9.9007809,7.997611 10.072266,7.8554688 Z m -1.1542972,1.0625 C 5.8814298,11.954561 4,16.147234 4,20.800781 v 1 C 4,17.147234 5.8814298,12.954561 8.9179688,9.9179688 L 54.550781,55.550781 c 0.173633,-0.159774 0.356622,-0.309738 0.523438,-0.476562 z M 56.017578,54.066406 c -0.186978,0.220508 -0.384058,0.432121 -0.582031,0.642578 0.111419,-0.118455 0.233834,-0.225984 0.341797,-0.347656 0.08643,-0.09741 0.160617,-0.196902 0.240234,-0.294922 z"
         id="path2" />
      <path
         style="fill:#a54adb"
         d="M 20.8,4 C 16.1464,4 11.947538,5.8743375 8.9109375,8.9109375 L 55.089063,55.089063 C 58.125662,52.052463 60,47.8536 60,43.2 V 20.8 C 60,11.4928 52.5072,4 43.2,4 Z"
         id="path3" />
      <path
         style="opacity:0.2"
         d="m 20.363281,17 5.81836,8 L 32,33 l 5.818359,-8 5.81836,-8 H 32 Z M 32,33 l 5.818359,8 5.81836,8 5.818359,-8 5.81836,-8 H 43.636719 Z m 0,0 H 20.363281 8.7265625 l 5.8183595,8 5.818359,8 5.81836,-8 z"
         id="path4" />
      <path
         style="fill:#ffffff;stroke-width:2.19349"
         d="M 20.363638,16 H 32 l 11.636364,-2e-6 -5.818183,8.000001 L 32,32 26.181819,23.999999 Z"
         id="path5" />
      <path
         style="opacity:0.2;fill:#ffffff"
         d="M 20.800781,4 C 16.712404,4 12.975392,5.4489139 10.068359,7.859375 9.915203,7.9863696 9.7754237,8.1274871 9.6269531,8.2597656 9.6107586,8.2748353 9.5945861,8.2899028 9.578125,8.3046875 6.5576148,11.017265 4.518053,14.797981 4.0859375,19.078125 4.4875701,15.116592 6.2609971,11.574987 8.9179688,8.9179688 l 0.515625,0.515625 C 12.422292,6.6866813 16.403035,5 20.800781,5 H 43.199219 C 52.506418,5 60,12.493582 60,21.800781 v -1 C 60,11.493582 52.506418,4 43.199219,4 Z"
         id="path6" />
      <path
         style="fill:#ffffff;stroke-width:2.19349"
         d="M 8.7272748,32 H 20.363637 l 11.636364,-2e-6 -5.818183,8.000001 L 20.363637,48 14.545456,39.999999 Z"
         id="path7" />
      <path
         style="fill:#ffffff;stroke-width:2.19349"
         d="m 32.000001,32 h 11.636363 l 11.636364,-2e-6 -5.818183,8.000001 -5.818181,8 -5.818182,-8 z"
         id="path8" />
    </g>
  </g>
</svg>
