<?xml version="1.0" encoding="UTF-8" standalone="no"?>
<svg
   width="62"
   height="62"
   version="1.1"
   id="svg6"
   sodipodi:docname="obsidian.svg"
   inkscape:version="1.4 (e7c3feb100, 2024-10-09)"
   xmlns:inkscape="http://www.inkscape.org/namespaces/inkscape"
   xmlns:sodipodi="http://sodipodi.sourceforge.net/DTD/sodipodi-0.dtd"
   xmlns="http://www.w3.org/2000/svg"
   xmlns:svg="http://www.w3.org/2000/svg">
  <defs
     id="defs6" />
  <sodipodi:namedview
     id="namedview6"
     pagecolor="#ffffff"
     bordercolor="#000000"
     borderopacity="0.25"
     inkscape:showpageshadow="2"
     inkscape:pageopacity="0.0"
     inkscape:pagecheckerboard="0"
     inkscape:deskcolor="#d1d1d1"
     inkscape:zoom="11.6875"
     inkscape:cx="31.957219"
     inkscape:cy="32"
     inkscape:window-width="1920"
     inkscape:window-height="994"
     inkscape:window-x="0"
     inkscape:window-y="0"
     inkscape:window-maximized="1"
     inkscape:current-layer="svg6" />
  <g
     id="g6"
     transform="translate(-0.99989976,-0.99998982)">
    <path
       style="opacity:0.2;stroke-width:0.99119"
       d="m 33.760029,4.982457 c -1.240006,0.002 -2.058004,0.3694038 -2.760006,0.9786252 L 19.488009,15.954537 c -0.648001,0.57572 -1.073999,1.350878 -1.202996,2.198737 l -1.465007,9.471866 0.008,0.01 -0.01015,-0.006 c -0.05401,0.241686 -0.136004,0.47944 -0.238005,0.70639 l -6.247996,13.440971 c -0.6337974,1.381333 -0.3442972,3.006316 0.734009,4.087019 l 9.928006,9.951308 c 0.309003,0.311441 0.668002,0.565894 1.081002,0.760422 0.413001,0.193542 0.878,0.314388 1.359002,0.348772 0,0 2.720005,-0.0187 5.935006,0.203369 3.211004,0.226948 7.988008,1.857824 11.215012,2.736141 2.507002,0.683791 5.027005,-1.296841 5.375006,-3.829615 0.3,-2.180072 0.893001,-4.471162 2.123004,-6.68169 l 5.654006,-8.655448 c 0.414999,-0.643508 0.320999,-1.475648 -0.144001,-2.082806 -1.211003,-1.576845 -3.631004,-4.783582 -4.897007,-7.753551 -1.297,-3.051513 -1.491999,-7.790884 -1.503998,-10.100638 -0.003,-0.879302 -0.285002,-1.735023 -0.839,-2.425687 L 36.422029,5.962949 c -0.637998,-0.6955796 -1.422001,-0.982457 -2.662,-0.980492 z"
       id="path1" />
    <path
       style="fill:#b091f0;stroke-width:0.99119"
       d="m 16.820006,26.642686 8.180009,11.743307 h 10.000013 l 3.000005,-27.508798 c 0,0 -0.859002,-3.5858662 -1.578004,-5.8961138 -1.275002,-1.3912573 -4.018003,-1.2211937 -5.422006,-0.00276 L 19.488009,14.972082 c -0.648001,0.575716 -1.073999,1.350876 -1.202996,2.198736"
       id="path2" />
    <path
       style="fill:#8251e6;stroke-width:0.99119"
       d="m 53.736049,39.713293 c 0.415002,-0.643509 0.32,-1.473685 -0.144998,-2.080843 -1.211002,-1.576843 -3.630005,-4.785549 -4.896008,-7.755517 -1.296999,-3.051514 -1.492,-7.790884 -1.504,-10.10064 -0.003,-0.879301 -0.285001,-1.735019 -0.839,-2.425685 L 36.422029,4.9810812 c 0.715003,2.306416 0.672,4.1562842 0.230003,5.8450318 -0.410004,1.566034 -1.160002,2.981757 -1.949007,4.48295 -0.265,0.502034 -0.534996,1.012914 -0.796997,1.542455 -1.051001,2.107373 -1.996003,4.489828 -2.136006,7.690676 -0.140998,3.196915 0.527002,7.207303 2.707009,12.564639 l 13.605012,11.263871"
       id="path3" />
    <path
       style="fill:#6135ba;stroke-width:0.99119"
       d="m 40.584036,58.881026 c 2.506999,0.68379 5.027003,-1.296841 5.375002,-3.829617 0.300003,-2.180071 0.893001,-4.47018 2.123005,-6.680705 -2.824003,-5.971374 -6.242007,-9.072009 -9.98401,-10.442534 -3.965008,-1.454039 -8.29701,-0.974599 -12.688014,0.0727 l -3.353004,17.581069 c 0.425998,0.203368 0.896001,0.326173 1.377002,0.36056 0,0 2.720003,-0.01966 5.935006,0.202386 3.211003,0.226947 7.988008,1.857827 11.215013,2.736141 z"
       id="path4" />
    <path
       style="fill:#8a61d9;stroke-width:0.99119"
       d="m 22.057015,55.581939 c 4.562008,-9.099519 4.433003,-15.623033 2.492,-20.274965 -1.785002,-4.282529 -5.108002,-6.987234 -7.729009,-8.664288 -0.05399,0.241682 -0.137999,0.482383 -0.239999,0.709333 l -6.248008,13.442959 c -0.6337992,1.381332 -0.3446985,3.006315 0.734006,4.08702 l 9.92801,9.951309 c 0.309,0.311437 0.668,0.563929 1.063,0.748632 z"
       id="path5" />
    <path
       style="opacity:0.2;fill:#ffffff;stroke-width:0.99119"
       d="m 33.760029,4 c -1.240006,0.002 -2.058004,0.3694037 -2.760006,0.978625 l -11.512014,9.993457 c -0.648001,0.575716 -1.073999,1.350876 -1.202996,2.198736 l -1.493006,9.594671 c -0.02796,0.122809 -0.11,0.360566 -0.212,0.58751 l -6.248008,13.440998 c -0.291997,0.637613 -0.3803992,1.326313 -0.293001,1.990454 0.04899,-0.342875 0.144002,-0.681822 0.293001,-1.007999 L 16.580007,28.33546 c 0.102,-0.22695 0.183998,-0.464702 0.238003,-0.70639 0.003,0.002 0.007,0.004 0.01015,0.006 l -0.008,-0.01 1.465005,-9.471865 c 0.128993,-0.84786 0.554995,-1.623017 1.202995,-2.198738 L 31.000023,5.9610822 c 0.702002,-0.6092214 1.52,-0.9766602 2.760006,-0.9786252 1.239999,-0.002 2.024002,0.2849124 2.662,0.980492 l 9.930014,12.3711 c 0.553999,0.690663 0.835998,1.546384 0.839,2.425686 0.01203,2.309754 0.207001,7.049125 1.504,10.10064 1.266003,2.969967 3.686003,6.176704 4.897006,7.753549 0.156002,0.20435 0.267001,0.435228 0.334,0.673963 0.164002,-0.557053 0.03296,-1.175999 -0.334,-1.65642 -1.211003,-1.576844 -3.631003,-4.783585 -4.897006,-7.753551 -1.296999,-3.051509 -1.492,-7.790884 -1.504,-10.100643 -0.003,-0.879294 -0.285001,-1.735014 -0.839,-2.425684 L 36.422029,4.980492 C 35.784031,4.2849125 35.000028,3.998035 33.760029,4 Z"
       id="path6" />
  </g>
</svg>
