<?xml version="1.0" encoding="UTF-8" standalone="no"?>
<svg
   width="62"
   height="62"
   version="1.1"
   id="svg6"
   sodipodi:docname="occ.svg"
   inkscape:version="1.4 (unknown)"
   xmlns:inkscape="http://www.inkscape.org/namespaces/inkscape"
   xmlns:sodipodi="http://sodipodi.sourceforge.net/DTD/sodipodi-0.dtd"
   xmlns="http://www.w3.org/2000/svg"
   xmlns:svg="http://www.w3.org/2000/svg">
  <defs
     id="defs6" />
  <sodipodi:namedview
     id="namedview6"
     pagecolor="#ffffff"
     bordercolor="#000000"
     borderopacity="0.25"
     inkscape:showpageshadow="2"
     inkscape:pageopacity="0.0"
     inkscape:pagecheckerboard="0"
     inkscape:deskcolor="#d1d1d1"
     inkscape:zoom="6.0546875"
     inkscape:cx="21.388387"
     inkscape:cy="60.696774"
     inkscape:window-width="1920"
     inkscape:window-height="998"
     inkscape:window-x="0"
     inkscape:window-y="0"
     inkscape:window-maximized="1"
     inkscape:current-layer="svg6" />
  <g
     id="g2">
    <g
       id="g1"
       transform="translate(0.5,0.5)">
      <path
         style="opacity:0.2;stroke-width:0.982303"
         d="M 3.0422325,29.83979 A 27.5,27.50877 0 0 0 3,30.99123 27.5,27.50877 0 0 0 30.5,58.5 27.5,27.50877 0 0 0 58,30.99123 27.5,27.50877 0 0 0 57.958753,30.17775 27.5,27.50877 0 0 1 30.5,56.53509 27.5,27.50877 0 0 1 3.0432142,29.83979 Z"
         id="path1" />
      <path
         style="fill:#2d3d53;fill-opacity:1;stroke-width:0.982303"
         d="M 30.5,2.5 A 27.5,27.50877 0 0 0 3,30.00877 27.5,27.50877 0 0 0 30.5,57.51754 27.5,27.50877 0 0 0 58,30.00877 27.5,27.50877 0 0 0 30.5,2.5 Z"
         id="path2" />
      <path
         style="opacity:0.1;fill:#ffffff;stroke-width:0.982303"
         d="M 30.498088,2.5 A 27.5,27.50877 0 0 0 3,30.00877 27.5,27.50877 0 0 0 3.0211007,30.40789 27.5,27.50877 0 0 1 30.498088,3.482456 h 0.0019 a 27.5,27.50877 0 0 1 27.477,27.101972 27.5,27.50877 0 0 0 0.02111,-0.575658 A 27.5,27.50877 0 0 0 30.5,2.5 Z"
         id="path3" />
    </g>
    <text
       xml:space="preserve"
       style="font-size:21.6764px;font-family:'Blush Asliring';-inkscape-font-specification:'Blush Asliring';text-align:start;writing-mode:lr-tb;direction:ltr;text-anchor:start;fill:#ffdd55;fill-opacity:0.8;stroke:#ffdd55;stroke-width:0;stroke-linecap:round;stroke-linejoin:round;stroke-opacity:0.8;paint-order:fill markers stroke"
       x="9.8754044"
       y="27.896723"
       id="text1"><tspan
         sodipodi:role="line"
         id="tspan1"
         x="9.8754044"
         y="27.896723"
         style="fill:#ffdd55;fill-opacity:0.8;stroke:#ffdd55;stroke-width:0;stroke-opacity:0.8">OCE</tspan></text>
    <text
       xml:space="preserve"
       style="font-size:10.081px;font-family:'Blush Asliring';-inkscape-font-specification:'Blush Asliring';text-align:start;writing-mode:lr-tb;direction:ltr;text-anchor:start;fill:#e5e5e5;fill-opacity:1;stroke:#d9d9d9;stroke-width:0;stroke-linecap:round;stroke-linejoin:round;stroke-opacity:1;paint-order:fill markers stroke"
       x="7.0196786"
       y="41.847221"
       id="text2"
       transform="scale(0.9907423,1.0093442)"><tspan
         sodipodi:role="line"
         id="tspan2"
         x="7.0196786"
         y="41.847221"
         style="fill:#e5e5e5;fill-opacity:1;stroke:#d9d9d9;stroke-width:0;stroke-opacity:1">DRAWEXE</tspan></text>
  </g>
</svg>
