<?xml version="1.0" encoding="UTF-8" standalone="no"?>
<svg
   width="62"
   height="62"
   viewBox="0 0 62 62"
   fill="none"
   version="1.1"
   id="svg8"
   sodipodi:docname="odrive.svg"
   inkscape:version="1.4 (e7c3feb100, 2024-10-09)"
   xmlns:inkscape="http://www.inkscape.org/namespaces/inkscape"
   xmlns:sodipodi="http://sodipodi.sourceforge.net/DTD/sodipodi-0.dtd"
   xmlns="http://www.w3.org/2000/svg"
   xmlns:svg="http://www.w3.org/2000/svg">
  <sodipodi:namedview
     id="namedview8"
     pagecolor="#ffffff"
     bordercolor="#000000"
     borderopacity="0.25"
     inkscape:showpageshadow="2"
     inkscape:pageopacity="0.0"
     inkscape:pagecheckerboard="0"
     inkscape:deskcolor="#d1d1d1"
     inkscape:zoom="11.6875"
     inkscape:cx="23.40107"
     inkscape:cy="32.598931"
     inkscape:window-width="1920"
     inkscape:window-height="994"
     inkscape:window-x="0"
     inkscape:window-y="0"
     inkscape:window-maximized="1"
     inkscape:current-layer="svg8" />
  <g
     id="g1"
     transform="matrix(0.98448915,0,0,0.98214285,2.2842645,1.0876129)">
    <path
       opacity="1"
       d="m 24.526971,37.26706 c -1.197694,0 -2.300162,0.652955 -2.875676,1.703333 L 13.63371,53.601024 c -1.197568,2.185387 0.383675,4.855225 2.875675,4.855225 h 32.845766 c 1.197694,0 2.300162,-0.652955 2.875676,-1.703333 L 60.248412,42.122285 C 61.44598,39.936898 59.864737,37.26706 57.372737,37.26706 Z"
       fill="url(#paint0_linear_54_1316)"
       id="path1"
       style="fill:url(#paint0_linear_54_1316);stroke-width:0.126126" />
    <path
       opacity="1"
       d="m 18.757205,8.5158268 c -1.342991,-2.128555 -4.484036,-2.013338 -5.667477,0.207856 L -1.9350942,36.923366 c -0.5468664,1.026415 -0.5091875,2.26573 0.099018,3.256955 l 8.1412648,13.268973 c 1.321007,2.152973 4.4778184,2.066955 5.6795484,-0.154883 L 27.238178,25.0916 c 0.563784,-1.042306 0.521406,-2.307729 -0.110991,-3.309928 z"
       fill="url(#paint1_linear_54_1316)"
       id="path2"
       style="fill:url(#paint1_linear_54_1316);stroke-width:0.126126" />
    <path
       d="m 22.834358,2.4562488 c -2.59454,0 -4.161531,2.870202 -2.758504,5.0526 L 37.265457,34.2476 c 0.603388,0.938631 1.642667,1.505946 2.758505,1.505946 h 15.816595 c 2.59454,0 4.161531,-2.870252 2.758504,-5.052612 L 41.409457,3.9622078 C 40.80607,3.0236148 39.766791,2.4562488 38.650953,2.4562488 Z"
       fill="url(#paint2_linear_54_1316)"
       id="path3"
       style="fill:url(#paint2_linear_54_1316);stroke-width:0.126126" />
  </g>
  <defs
     id="defs8">
    <linearGradient
       id="paint0_linear_54_1316"
       x1="315.5"
       y1="460"
       x2="315.5"
       y2="328"
       gradientUnits="userSpaceOnUse"
       gradientTransform="matrix(0.12612613,0,0,0.12612613,-2.8517322,-1.8320392)">
      <stop
         stop-color="#5570FF"
         id="stop3" />
      <stop
         offset="1"
         stop-color="#4DD3FF"
         id="stop4" />
    </linearGradient>
    <linearGradient
       id="paint1_linear_54_1316"
       x1="117.61"
       y1="80.932899"
       x2="128.356"
       y2="439.72101"
       gradientUnits="userSpaceOnUse"
       gradientTransform="matrix(0.12612613,0,0,0.12612613,-2.8517322,-1.8320392)">
      <stop
         stop-color="#97EB0E"
         id="stop5" />
      <stop
         offset="1"
         stop-color="#19B90B"
         id="stop6" />
    </linearGradient>
    <linearGradient
       id="paint2_linear_54_1316"
       x1="334.5"
       y1="280"
       x2="334.5"
       y2="52"
       gradientUnits="userSpaceOnUse"
       gradientTransform="matrix(0.12612613,0,0,0.12612613,-2.8517322,-1.8320392)">
      <stop
         stop-color="#FDA700"
         id="stop7" />
      <stop
         offset="1"
         stop-color="#FFDE00"
         id="stop8" />
    </linearGradient>
  </defs>
</svg>
