<?xml version="1.0" encoding="UTF-8" standalone="no"?>
<svg
   width="62"
   height="62"
   version="1.1"
   id="svg10"
   sodipodi:docname="amarok_change_language.svg"
   inkscape:version="1.4 (unknown)"
   xmlns:inkscape="http://www.inkscape.org/namespaces/inkscape"
   xmlns:sodipodi="http://sodipodi.sourceforge.net/DTD/sodipodi-0.dtd"
   xmlns="http://www.w3.org/2000/svg"
   xmlns:svg="http://www.w3.org/2000/svg">
  <defs
     id="defs10" />
  <sodipodi:namedview
     id="namedview10"
     pagecolor="#ffffff"
     bordercolor="#000000"
     borderopacity="0.25"
     inkscape:showpageshadow="2"
     inkscape:pageopacity="0.0"
     inkscape:pagecheckerboard="0"
     inkscape:deskcolor="#d1d1d1"
     inkscape:zoom="6.0586195"
     inkscape:cx="34.166199"
     inkscape:cy="33.58851"
     inkscape:window-width="1920"
     inkscape:window-height="998"
     inkscape:window-x="0"
     inkscape:window-y="0"
     inkscape:window-maximized="1"
     inkscape:current-layer="svg10" />
  <g
     id="g1">
    <path
       style="opacity:0.2;stroke-width:2.74084"
       d="m 19.127197,15.292683 16.01123,24.761433 -0.71167,8.019055 H 30.076173 L 33.459961,59 H 54.842287 C 56.853607,59 58.5,57.389306 58.5,55.4173 V 18.875381 c 0,-1.972006 -1.646393,-3.582698 -3.657713,-3.582698 z"
       id="path1" />
    <path
       style="fill:#e4e4e4;stroke-width:2.74084"
       d="m 54.841045,57.634149 c 2.01132,0 3.658953,-1.61047 3.658953,-3.582478 V 17.509309 c 0,-1.972006 -1.64763,-3.582477 -3.658953,-3.582477 h -35.71335 l 16.011867,24.760132 -1.679135,18.947185 z"
       id="path2" />
    <path
       style="opacity:0.2;fill:#ffffff;stroke-width:2.74084"
       d="m 19.127197,13.926829 0.883546,1.365854 h 34.831544 c 2.01132,0 3.657713,1.610692 3.657713,3.582698 v -1.365853 c 0,-1.972006 -1.646393,-3.582699 -3.657713,-3.582699 z m 15.90381,25.96189 -1.571046,17.745427 h 0.120834 l 1.557618,-17.58003 z"
       id="path3" />
    <path
       fill="#cccccc"
       d="m 43.0266,41.711455 c 4.356849,0 7.412597,-3.480945 7.412597,-9.048189 0,-5.567245 -3.055748,-8.951811 -7.412597,-8.951811 -4.356852,0 -7.4126,3.387401 -7.4126,8.951811 0,5.56441 3.055748,9.048189 7.4126,9.048189 m 0,-1.919055 c -3.126614,0 -5.16189,-2.794959 -5.16189,-7.129134 0,-4.356851 2.035276,-7.032756 5.159055,-7.032756 3.103955,0 5.164724,2.675905 5.164724,7.032756 0,4.33701 -2.060769,7.129134 -5.161889,7.129134"
       id="path1-9-1"
       style="fill:#959595;fill-opacity:0.31568599;stroke-width:2.83463" />
    <path
       fill="#cccccc"
       d="m 43.026501,41.011 c 4.356792,0 7.412499,-3.480945 7.412499,-9.048189 0,-5.567245 -3.055707,-8.951811 -7.412499,-8.951811 -4.356794,0 -7.412501,3.387401 -7.412501,8.951811 0,5.56441 3.055707,9.048189 7.412501,9.048189 m 0,-1.919055 c -3.126572,0 -5.161821,-2.794959 -5.161821,-7.129134 0,-4.356851 2.035249,-7.032756 5.158987,-7.032756 3.103913,0 5.164655,2.675905 5.164655,7.032756 0,4.33701 -2.060742,7.129134 -5.161821,7.129134"
       id="path1-9-2"
       style="fill:#8e8e8e;fill-opacity:1;stroke-width:2.83461" />
    <path
       id="polygon6-7"
       style="fill:#4352b8;stroke-width:2.74084"
       d="m 42.872307,46.707317 -12.795311,5e-6 3.383431,10.926827 z" />
    <path
       style="opacity:0.2;stroke-width:2.74084"
       d="m 7.158955,4.365854 c -2.011321,0 -3.658952,1.6135915 -3.658952,3.5887595 V 44.489807 c 0,1.969769 1.647631,3.583364 3.658952,3.583364 H 42.872307 L 28.539577,4.365854 Z"
       id="path6-0" />
    <path
       fill="#4285f4"
       d="M 7.158955,3 C 5.147634,3 3.500003,4.613593 3.500003,6.5887595 V 43.123953 c 0,1.969768 1.647631,3.583363 3.658952,3.583363 H 42.872307 L 28.539577,3 Z"
       id="path7-9"
       style="stroke-width:2.74084" />
    <path
       style="opacity:0.2;fill:#ffffff;stroke-width:2.74084"
       d="M 7.157715,3 C 5.146394,3 3.5,4.612866 3.5,6.5880325 v 1.365854 C 3.5,5.9787195 5.146394,4.365854 7.157715,4.365854 h 21.382324 l 13.884278,42.341463 h 0.44849 L 28.540039,3 Z"
       id="path10-3" />
    <path
       fill="#ffffff"
       d="m 12.84,33.803999 h 5.740754 c 4.022937,0 6.821386,-1.742983 6.821386,-5.278905 0,-2.457223 -1.521089,-3.879811 -3.682313,-4.297186 v -0.123457 c 1.694337,-0.540817 2.651611,-2.11332 2.651611,-3.906264 0,-3.165586 -2.525351,-4.394188 -6.184155,-4.394188 H 12.84294 Z m 2.281617,-10.340302 v -5.866756 h 2.772007 c 2.795508,0 4.24318,0.784779 4.24318,2.898116 0,1.816452 -1.250931,2.968639 -4.34008,2.968639 z m 0,8.523836 v -6.777909 h 3.142008 c 3.139063,0 4.903866,1.005219 4.903866,3.241985 0,2.430767 -1.814717,3.535924 -4.903866,3.535924 z"
       id="path2-5-6"
       style="fill:#bfbfbf;fill-opacity:0.25;stroke-width:2.93784" />
    <path
       fill="#ffffff"
       d="m 12.834,32.711454 h 5.746238 c 4.02678,0 6.827902,-1.742983 6.827902,-5.278905 0,-2.457223 -1.522542,-3.879811 -3.685831,-4.297186 v -0.123457 c 1.695956,-0.540817 2.654144,-2.113321 2.654144,-3.906264 0,-3.165586 -2.527763,-4.394188 -6.190062,-4.394188 h -5.349448 z m 2.283797,-10.340303 v -5.866755 h 2.774654 c 2.798179,0 4.247234,0.784779 4.247234,2.898116 0,1.816452 -1.252126,2.968639 -4.344226,2.968639 z m 0,8.523837 v -6.77791 h 3.145009 c 3.142062,0 4.90855,1.005219 4.90855,3.241985 0,2.430767 -1.81645,3.535924 -4.90855,3.535924 z"
       id="path2-5-2-0"
       style="stroke-width:2.93924" />
  </g>
</svg>
