<?xml version="1.0" encoding="UTF-8" standalone="no"?>
<svg
   width="62"
   height="62"
   version="1"
   id="svg4"
   sodipodi:docname="openoffice4-impress.svg"
   inkscape:version="1.4 (e7c3feb100, 2024-10-09)"
   xmlns:inkscape="http://www.inkscape.org/namespaces/inkscape"
   xmlns:sodipodi="http://sodipodi.sourceforge.net/DTD/sodipodi-0.dtd"
   xmlns:xlink="http://www.w3.org/1999/xlink"
   xmlns="http://www.w3.org/2000/svg"
   xmlns:svg="http://www.w3.org/2000/svg">
  <defs
     id="defs4">
    <linearGradient
       id="linearGradient4"
       inkscape:collect="always">
      <stop
         style="stop-color:#d6a206;stop-opacity:1"
         offset="0"
         id="stop4" />
      <stop
         style="stop-color:#ffd556;stop-opacity:1"
         offset="1"
         id="stop5" />
    </linearGradient>
    <linearGradient
       inkscape:collect="always"
       xlink:href="#linearGradient4"
       id="linearGradient5"
       x1="31.111443"
       y1="59.985897"
       x2="32.368931"
       y2="5.0026331"
       gradientUnits="userSpaceOnUse" />
  </defs>
  <sodipodi:namedview
     id="namedview4"
     pagecolor="#ffffff"
     bordercolor="#000000"
     borderopacity="0.25"
     inkscape:showpageshadow="2"
     inkscape:pageopacity="0.0"
     inkscape:pagecheckerboard="0"
     inkscape:deskcolor="#d1d1d1"
     inkscape:zoom="11.75"
     inkscape:cx="32"
     inkscape:cy="32"
     inkscape:window-width="1920"
     inkscape:window-height="998"
     inkscape:window-x="0"
     inkscape:window-y="0"
     inkscape:window-maximized="1"
     inkscape:current-layer="svg4" />
  <g
     id="g4"
     transform="matrix(0.98214286,0,0,0.98245614,-0.42857152,-0.92982455)">
    <circle
       style="opacity:0.2"
       cx="32"
       cy="33"
       r="28"
       id="circle1" />
    <circle
       style="fill:url(#linearGradient5)"
       cx="32"
       cy="32"
       r="28"
       id="circle2" />
    <path
       style="opacity:0.2"
       d="m 24,23 c -3.313649,0 -6,2.686351 -6,6 0,3.313649 2.686349,6 6,6 3.313649,0 6,-2.686349 6,-6 h -6 z m 9,1 v 3 h 13 v -3 z m 0,7 v 3 h 13 v -3 z m -15,7 v 3 h 22 v -3 z"
       id="path2" />
    <path
       style="fill:#ffffff"
       d="m 24,22 c -3.313649,0 -6,2.686351 -6,6 0,3.313649 2.686349,6 6,6 3.313649,0 6,-2.686349 6,-6 h -6 z m 9,1 v 3 h 13 v -3 z m 0,7 v 3 h 13 v -3 z m -15,7 v 3 h 22 v -3 z"
       id="path3" />
    <path
       style="opacity:0.2;fill:#ffffff"
       d="M 32,4 A 28,28 0 0 0 4,32 28,28 0 0 0 4.0214844,32.585938 28,28 0 0 1 32,5 28,28 0 0 1 59.978516,32.414062 28,28 0 0 0 60,32 28,28 0 0 0 32,4 Z"
       id="path4" />
  </g>
</svg>
