<?xml version="1.0" encoding="UTF-8" standalone="no"?>
<svg
   width="62"
   height="62"
   version="1"
   id="svg4"
   sodipodi:docname="openoffice4-math.svg"
   inkscape:version="1.4 (e7c3feb100, 2024-10-09)"
   xmlns:inkscape="http://www.inkscape.org/namespaces/inkscape"
   xmlns:sodipodi="http://sodipodi.sourceforge.net/DTD/sodipodi-0.dtd"
   xmlns:xlink="http://www.w3.org/1999/xlink"
   xmlns="http://www.w3.org/2000/svg"
   xmlns:svg="http://www.w3.org/2000/svg">
  <defs
     id="defs4">
    <linearGradient
       id="linearGradient4"
       inkscape:collect="always">
      <stop
         style="stop-color:#2a3955;stop-opacity:1;"
         offset="0"
         id="stop4" />
      <stop
         style="stop-color:#5572aa;stop-opacity:1;"
         offset="1"
         id="stop5" />
    </linearGradient>
    <linearGradient
       inkscape:collect="always"
       xlink:href="#linearGradient4"
       id="linearGradient5"
       x1="31.5"
       y1="59.01754"
       x2="31.5"
       y2="4.98246"
       gradientUnits="userSpaceOnUse" />
  </defs>
  <sodipodi:namedview
     id="namedview4"
     pagecolor="#ffffff"
     bordercolor="#000000"
     borderopacity="0.25"
     inkscape:showpageshadow="2"
     inkscape:pageopacity="0.0"
     inkscape:pagecheckerboard="0"
     inkscape:deskcolor="#d1d1d1"
     inkscape:zoom="11.75"
     inkscape:cx="32"
     inkscape:cy="32"
     inkscape:window-width="1920"
     inkscape:window-height="998"
     inkscape:window-x="0"
     inkscape:window-y="0"
     inkscape:window-maximized="1"
     inkscape:current-layer="svg4" />
  <g
     id="g4"
     transform="translate(-0.5,-1)">
    <ellipse
       style="opacity:0.2;stroke-width:0.982302"
       cx="31.5"
       cy="32.49123"
       id="circle1"
       rx="27.5"
       ry="27.50877" />
    <ellipse
       style="fill:url(#linearGradient5);stroke-width:0.982302"
       cx="31.5"
       cy="31.50877"
       id="circle2"
       rx="27.5"
       ry="27.50877" />
    <path
       style="opacity:0.2;stroke-width:0.982302"
       d="M 31.45204,21.678449 27.15133,36.530422 23.957445,28.565237 H 17.75 v 2.941612 h 4.400459 l 4.300711,10.803175 h 1.906738 l 5.115964,-17.682286 h 8.829695 v -2.949289 z m 1.467461,7.865405 4.676687,5.992598 -5.114048,6.77933 h 2.553186 l 3.83074,-5.140623 3.830743,5.140623 h 2.553187 l -5.010463,-6.658442 4.763009,-6.113486 h -2.55127 l -3.489293,4.474779 -3.493128,-4.474779 z"
       id="path2" />
    <path
       style="fill:#ffffff;stroke-width:0.982302"
       d="M 31.45204,20.695995 27.15133,35.547963 23.957445,27.582781 H 17.75 v 2.94161 h 4.400459 l 4.300711,10.803181 h 1.906738 l 5.115964,-17.682291 h 8.829695 v -2.949286 z m 1.467461,7.865402 4.676687,5.992597 -5.114048,6.77933 h 2.553186 l 3.83074,-5.140622 3.830743,5.140622 h 2.553187 l -5.010463,-6.658442 4.763009,-6.113485 h -2.55127 l -3.489293,4.474783 -3.493128,-4.474783 z"
       id="path3" />
    <path
       style="opacity:0.2;fill:#ffffff;stroke-width:0.982302"
       d="M 31.499995,4 A 27.499995,27.508765 0 0 0 4,31.508765 27.499995,27.508765 0 0 0 4.0211007,32.084423 27.499995,27.508765 0 0 1 31.499995,4.9824559 27.499995,27.508765 0 0 1 58.978893,31.915565 27.499995,27.508765 0 0 0 58.999986,31.508765 27.499995,27.508765 0 0 0 31.499995,4 Z"
       id="path4" />
  </g>
</svg>
