<?xml version="1.0" encoding="UTF-8" standalone="no"?>
<svg
   width="62"
   height="62"
   version="1"
   id="svg4"
   sodipodi:docname="openoffice4-base.svg"
   inkscape:version="1.4 (e7c3feb100, 2024-10-09)"
   xmlns:inkscape="http://www.inkscape.org/namespaces/inkscape"
   xmlns:sodipodi="http://sodipodi.sourceforge.net/DTD/sodipodi-0.dtd"
   xmlns:xlink="http://www.w3.org/1999/xlink"
   xmlns="http://www.w3.org/2000/svg"
   xmlns:svg="http://www.w3.org/2000/svg">
  <defs
     id="defs4">
    <linearGradient
       id="linearGradient4"
       inkscape:collect="always">
      <stop
         style="stop-color:#92235a;stop-opacity:1"
         offset="0"
         id="stop4" />
      <stop
         style="stop-color:#e25563;stop-opacity:1"
         offset="1"
         id="stop5" />
    </linearGradient>
    <linearGradient
       inkscape:collect="always"
       xlink:href="#linearGradient4"
       id="linearGradient5"
       x1="31.196608"
       y1="59.988472"
       x2="32"
       y2="5"
       gradientUnits="userSpaceOnUse" />
  </defs>
  <sodipodi:namedview
     id="namedview4"
     pagecolor="#ffffff"
     bordercolor="#000000"
     borderopacity="0.25"
     inkscape:showpageshadow="2"
     inkscape:pageopacity="0.0"
     inkscape:pagecheckerboard="0"
     inkscape:deskcolor="#d1d1d1"
     inkscape:zoom="11.75"
     inkscape:cx="32"
     inkscape:cy="32"
     inkscape:window-width="1920"
     inkscape:window-height="998"
     inkscape:window-x="0"
     inkscape:window-y="0"
     inkscape:window-maximized="1"
     inkscape:current-layer="svg4" />
  <g
     id="g4"
     transform="matrix(0.98214286,0,0,0.98245614,-0.42857152,-0.92982455)">
    <circle
       style="opacity:0.2"
       cx="32"
       cy="33"
       r="28"
       id="circle1" />
    <circle
       style="fill:url(#linearGradient5)"
       cx="32"
       cy="32"
       r="28"
       id="circle2" />
    <path
       style="opacity:0.2"
       d="m 31.99999,21.0013 c -4.1948,0 -7.7786,1.38018 -9.2634,3.3334 -0.12464,0.16398 -0.23518,0.33098 -0.32924,0.5026 -0.0894,0.1631 -0.16582,0.32824 -0.226,0.4974 a 10,5.3334 0 0 0 -0.04186,0.15626 c -0.03428,0.11464 -0.07172,0.2294 -0.09208,0.34636 a 10,5.3334 0 0 0 -0.048,0.498 c 5.5e-4,0.1733 0.0182,0.34638 0.05024,0.51822 a 10,5.3334 0 0 0 0.13672,0.5 10,5.3334 0 0 0 0.23158,0.4974 10,5.3334 0 0 0 0.31808,0.48438 10,5.3334 0 0 0 9.2634,3.3334 10,5.3334 0 0 0 9.2634,-3.3334 10,5.3334 0 0 0 0.003,-0.0052 10,5.3334 0 0 0 0.27064,-0.41146 c 0.0158,-0.02704 0.03516,-0.05358 0.05022,-0.08072 a 10,5.3334 0 0 0 0.16462,-0.35416 c 0.02332,-0.0558 0.05262,-0.1105 0.07256,-0.16666 a 10,5.3334 0 0 0 0.08092,-0.29688 c 0.0192,-0.0782 0.04026,-0.15572 0.05302,-0.23438 a 10,5.3334 0 0 0 0.04178,-0.45052 10,5.3334 0 0 0 -0.05302,-0.53124 c -0.092,-0.52 -0.33,-1.012 -0.68,-1.472 -1.486,-1.954 -5.07,-3.334 -9.264,-3.334 z m -9.2634,10 a 10,5.3334 0 0 0 -0.736,2 10,5.3334 0 0 0 10,5.3334 10,5.3334 0 0 0 10,-5.334 10,5.3334 0 0 0 -0.736,-2 10,5.3334 0 0 1 -9.264,3.334 10,5.3334 0 0 1 -9.264,-3.334 z m 0,6.6666 a 10,5.3334 0 0 0 -0.7366,2 10,5.3334 0 0 0 10,5.334 10,5.3334 0 0 0 10,-5.3334 10,5.3334 0 0 0 -0.7366,-2 10,5.3334 0 0 1 -9.264,3.334 10,5.3334 0 0 1 -9.264,-3.334 z"
       id="path2" />
    <path
       style="fill:#ffffff"
       d="m 31.99999,20.0013 c -4.1948,0 -7.7786,1.38018 -9.2634,3.3334 -0.12464,0.16398 -0.23518,0.33098 -0.32924,0.5026 -0.0894,0.1631 -0.16582,0.32824 -0.226,0.4974 a 10,5.3334 0 0 0 -0.04186,0.15626 c -0.03428,0.11464 -0.07172,0.2294 -0.09208,0.34636 a 10,5.3334 0 0 0 -0.048,0.498 c 5.5e-4,0.1733 0.0182,0.34638 0.05024,0.51822 a 10,5.3334 0 0 0 0.13672,0.5 10,5.3334 0 0 0 0.23158,0.4974 10,5.3334 0 0 0 0.31808,0.48438 10,5.3334 0 0 0 9.2634,3.3334 10,5.3334 0 0 0 9.2634,-3.3334 10,5.3334 0 0 0 0.003,-0.0052 10,5.3334 0 0 0 0.27064,-0.41146 c 0.0158,-0.02704 0.03516,-0.05358 0.05022,-0.08072 a 10,5.3334 0 0 0 0.16462,-0.35416 c 0.02332,-0.0558 0.05262,-0.1105 0.07256,-0.16666 a 10,5.3334 0 0 0 0.08092,-0.29688 c 0.0192,-0.0782 0.04026,-0.15572 0.05302,-0.23438 a 10,5.3334 0 0 0 0.04178,-0.45052 10,5.3334 0 0 0 -0.05302,-0.53124 c -0.092,-0.52 -0.33,-1.012 -0.68,-1.472 -1.486,-1.954 -5.07,-3.334 -9.264,-3.334 z m -9.2634,10 a 10,5.3334 0 0 0 -0.736,2 10,5.3334 0 0 0 10,5.3334 10,5.3334 0 0 0 10,-5.334 10,5.3334 0 0 0 -0.736,-2 10,5.3334 0 0 1 -9.264,3.334 10,5.3334 0 0 1 -9.264,-3.334 z m 0,6.6666 a 10,5.3334 0 0 0 -0.7366,2 10,5.3334 0 0 0 10,5.334 10,5.3334 0 0 0 10,-5.3334 10,5.3334 0 0 0 -0.7366,-2 10,5.3334 0 0 1 -9.264,3.334 10,5.3334 0 0 1 -9.264,-3.334 z"
       id="path3" />
    <path
       style="opacity:0.2;fill:#ffffff"
       d="M 32,4 A 28,28 0 0 0 4,32 28,28 0 0 0 4.0175781,32.492188 28,28 0 0 1 32,5 28,28 0 0 1 59.974609,32.492188 28,28 0 0 0 60,32 28,28 0 0 0 32,4 Z"
       id="path4" />
  </g>
</svg>
