<?xml version="1.0" encoding="UTF-8" standalone="no"?>
<svg
   width="62"
   height="62"
   version="1.1"
   id="svg5"
   sodipodi:docname="openvpn.svg"
   inkscape:version="1.4 (unknown)"
   xmlns:inkscape="http://www.inkscape.org/namespaces/inkscape"
   xmlns:sodipodi="http://sodipodi.sourceforge.net/DTD/sodipodi-0.dtd"
   xmlns="http://www.w3.org/2000/svg"
   xmlns:svg="http://www.w3.org/2000/svg">
  <defs
     id="defs5" />
  <sodipodi:namedview
     id="namedview5"
     pagecolor="#ffffff"
     bordercolor="#000000"
     borderopacity="0.25"
     inkscape:showpageshadow="2"
     inkscape:pageopacity="0.0"
     inkscape:pagecheckerboard="0"
     inkscape:deskcolor="#d1d1d1"
     inkscape:zoom="12.109375"
     inkscape:cx="32"
     inkscape:cy="32"
     inkscape:window-width="1920"
     inkscape:window-height="998"
     inkscape:window-x="0"
     inkscape:window-y="0"
     inkscape:window-maximized="1"
     inkscape:current-layer="svg5" />
  <g
     id="g5"
     transform="translate(-0.5,-1)">
    <path
       style="opacity:0.2;stroke-width:0.982299"
       d="M 31.5,4.982456 A 27.5,27.50877 0 0 0 4,32.49123 27.5,27.50877 0 0 0 18.808872,56.820452 L 23.268796,43.440241 A 13.750005,13.75439 0 0 1 17.750005,32.49123 13.750005,13.75439 0 0 1 31.5,18.73684 13.750005,13.75439 0 0 1 45.250005,32.49123 13.750005,13.75439 0 0 1 39.731204,43.440241 l 4.459924,13.380211 A 27.5,27.50877 0 0 0 59,32.49123 27.5,27.50877 0 0 0 31.5,4.982456 Z m 0,19.649124 a 7.8571433,7.859649 0 0 0 -7.857144,7.85965 7.8571433,7.859649 0 0 0 5.020057,7.308933 L 24.625002,60 H 38.374997 L 34.337087,39.800163 A 7.8571433,7.859649 0 0 0 39.357144,32.49123 7.8571433,7.859649 0 0 0 31.5,24.63158 Z"
       id="path1" />
    <path
       style="fill:#ff9955;stroke-width:0.982299"
       d="M 31.5,4 A 27.5,27.50877 0 0 0 4,31.50877 27.5,27.50877 0 0 0 18.808872,55.837992 L 23.268796,42.457781 A 13.750005,13.75439 0 0 1 17.750005,31.50877 13.750005,13.75439 0 0 1 31.5,17.75439 13.750005,13.75439 0 0 1 45.250005,31.50877 13.750005,13.75439 0 0 1 39.731204,42.457781 l 4.459924,13.380211 A 27.5,27.50877 0 0 0 59,31.50877 27.5,27.50877 0 0 0 31.5,4 Z"
       id="path2" />
    <path
       style="opacity:0.2;fill:#ffffff;stroke-width:0.982299"
       d="M 31.5,4 A 27.5,27.50877 0 0 0 4,31.50877 27.5,27.50877 0 0 0 4.0345282,32.001923 27.5,27.50877 0 0 1 31.5,4.982456 27.5,27.50877 0 0 1 58.982738,31.758226 27.5,27.50877 0 0 0 59,31.50877 27.5,27.50877 0 0 0 31.5,4 Z m 13.725062,27.765899 a 13.750005,13.75439 0 0 1 -5.493858,10.691882 l 0.25129,0.756031 a 13.750005,13.75439 0 0 0 5.267511,-10.722582 13.750005,13.75439 0 0 0 -0.02498,-0.725331 z m -27.427104,0.236024 a 13.750005,13.75439 0 0 0 -0.04791,0.489307 13.750005,13.75439 0 0 0 5.267501,10.722582 l 0.25129,-0.756031 A 13.750005,13.75439 0 0 1 17.79797,32.001923 Z"
       id="path3" />
    <path
       style="fill:#00337f;stroke-width:0.982299;fill-opacity:1"
       d="m 31.5,23.64912 a 7.8571433,7.859649 0 0 0 -7.857144,7.85965 7.8571433,7.859649 0 0 0 5.020057,7.308943 L 24.625002,59.01754 H 38.374997 L 34.337087,38.817713 A 7.8571433,7.859649 0 0 0 39.357144,31.50877 7.8571433,7.859649 0 0 0 31.5,23.64912 Z"
       id="path4" />
    <path
       style="opacity:0.1;fill:#ffffff;stroke-width:0.982299"
       d="m 31.5,23.64912 a 7.8571433,7.859649 0 0 0 -7.857144,7.85965 7.8571433,7.859649 0 0 0 0.04606,0.518094 7.8571433,7.859649 0 0 1 7.811107,-7.395284 7.8571433,7.859649 0 0 1 7.826454,7.21491 7.8571433,7.859649 0 0 0 0.03069,-0.33772 7.8571433,7.859649 0 0 0 -7.857144,-7.85965 z M 28.48452,39.711899 24.625002,59.01754 h 0.195657 l 3.842254,-19.217377 a 7.8571433,7.859649 0 0 1 -0.178393,-0.08824 z m 6.03097,0 a 7.8571433,7.859649 0 0 1 -0.178403,0.08824 l 3.842254,19.217381 h 0.195656 z"
       id="path5" />
  </g>
</svg>
