<?xml version="1.0" encoding="UTF-8" standalone="no"?>
<svg
   width="62"
   height="62"
   version="1.1"
   id="svg14"
   sodipodi:docname="openbazaar2.svg"
   inkscape:version="1.4 (unknown)"
   xmlns:inkscape="http://www.inkscape.org/namespaces/inkscape"
   xmlns:sodipodi="http://sodipodi.sourceforge.net/DTD/sodipodi-0.dtd"
   xmlns:xlink="http://www.w3.org/1999/xlink"
   xmlns="http://www.w3.org/2000/svg"
   xmlns:svg="http://www.w3.org/2000/svg">
  <defs
     id="defs14" />
  <sodipodi:namedview
     id="namedview14"
     pagecolor="#ffffff"
     bordercolor="#000000"
     borderopacity="0.25"
     inkscape:showpageshadow="2"
     inkscape:pageopacity="0.0"
     inkscape:pagecheckerboard="0"
     inkscape:deskcolor="#d1d1d1"
     inkscape:zoom="10"
     inkscape:cx="34.55"
     inkscape:cy="36.65"
     inkscape:window-width="1920"
     inkscape:window-height="998"
     inkscape:window-x="0"
     inkscape:window-y="0"
     inkscape:window-maximized="1"
     inkscape:current-layer="svg14" />
  <g
     transform="matrix(0.98076923,0,0,0.9824558,-0.38461536,-971.95198)"
     id="g14">
    <polygon
       style="opacity:0.2;fill-rule:evenodd"
       transform="matrix(2.9218299,0,0,2.9610511,8.3963725,1027.3625)"
       points="8.08,0 11.5,6.75 4.66,6.75 "
       id="polygon1" />
    <g
       style="fill:none"
       transform="matrix(-1.9832395,0,0,1.9484438,52.491622,1032.9675)"
       id="g2">
      <use
         width="100%"
         height="100%"
         x="0"
         y="0"
         xlink:href="#path-2"
         id="use1" />
      <use
         style="fill:#ffffff"
         width="100%"
         height="100%"
         x="0"
         y="0"
         xlink:href="#path-2"
         id="use2" />
    </g>
    <path
       style="opacity:0.2;fill-rule:evenodd"
       d="m 22.000129,1049.3622 9.999862,-21.9997 9.999862,21.9997 h 5.10397 c 5.520883,0 5.520883,-17.8748 6.895864,-21.9997 H 10.000294 c 1.374981,4.1249 1.312712,21.9925 6.868617,21.9997 z"
       id="path2" />
    <polygon
       style="fill:#315165;fill-rule:evenodd"
       transform="matrix(2.9218299,0,0,2.9610511,8.3963725,1026.3625)"
       points="11.5,6.75 4.66,6.75 8.08,0 "
       id="polygon2" />
    <path
       style="fill:#8d5fd3;fill-rule:evenodd"
       d="m 22.000129,1048.3622 9.999862,-21.9997 9.999862,21.9997 h 5.10397 c 5.520883,0 5.520883,-17.8747 6.895864,-21.9997 H 10.000294 c 1.374981,4.125 1.312712,21.9925 6.868617,21.9997 z"
       id="path3" />
    <path
       style="opacity:0.1;fill-rule:evenodd"
       d="m 7.1277606,1021.3626 a 1.1291546,1.1562574 0 0 0 -1.0946444,1.4327 l 0.6601722,2.7626 0.2228788,0.9228 a 1.1291546,1.1562574 0 0 0 1.0946443,0.8818 H 8.95593 a 1.1291546,1.1562574 0 0 0 0.0028,0 l 14.286804,-0.022 a 1.1291546,1.1562574 0 0 0 0.0508,0 h 1.704035 a 1.1291546,1.1562574 0 0 0 0.157997,0.022 h 1.007187 5.834341 5.834341 1.007189 a 1.1291546,1.1562574 0 0 0 0.157977,-0.022 h 1.704037 a 1.1291546,1.1562574 0 0 0 0.0508,0 l 14.286797,0.022 a 1.1291546,1.1562574 0 0 1 0.003,0 h 0.945121 a 1.1291546,1.1562574 0 0 0 1.094643,-0.8818 l 0.222879,-0.9228 0.660173,-2.7626 a 1.1291546,1.1562574 0 0 0 -1.094713,-1.4327 H 39.538387 24.461633 7.1278794 Z"
       id="path4" />
    <path
       style="opacity:0.2;fill-rule:evenodd"
       d="m 21.846327,1049.3622 -5.793516,-9.1949 c -0.09236,-0.148 -0.06005,-0.349 0.07309,-0.4524 0,0 5.417671,-4.2157 8.126504,-6.3239 0.348025,-0.2706 7.747585,-6.0285 7.747585,-6.0285 l -10.153656,21.9997 v 0 z"
       id="path5" />
    <path
       style="fill:#ffffff;fill-rule:evenodd"
       d="m 21.846327,1048.3622 -5.793516,-9.1949 c -0.09236,-0.148 -0.06005,-0.349 0.07309,-0.4524 0,0 5.417671,-4.2157 8.126504,-6.3239 0.348025,-0.2706 7.747585,-6.0285 7.747585,-6.0285 l -10.153656,21.9997 v 0 z"
       id="path6" />
    <path
       style="fill:#8d5fd3;fill-rule:evenodd"
       d="m 31.949208,992.36318 c -0.08336,0.168 -0.182078,0.3514 -0.282116,0.5202 -0.07132,0.13599 -0.168978,0.29399 -0.242619,0.43159 -0.510235,0.84239 -2.060768,3.31055 -5.162685,5.22933 -3.697607,2.1276 -8.895377,3.8749 -13.047779,3.8197 0,0 -6.8182169,18.3576 -7.0895285,18.9544 -0.040815,0.026 -0.083457,0.058 -0.1241303,0.086 h 0.093097 c -0.00278,0 -0.092667,0.2526 -0.093097,0.2518 l 0.01694,0.06 h 0.01694 c 0.146554,-0.096 0.3001389,-0.2122 0.4485606,-0.3128 H 57.765495 c 0.07684,0.048 0.157798,0.108 0.234155,0.156 v -0.028 l -0.04796,-0.128 h 0.04796 c -0.02038,-0.02 -0.04172,-0.028 -0.06206,-0.04 l -7.134661,-19.0018 c -3.943662,0.074 -8.468366,-1.3865 -11.397413,-2.92851 -3.384109,-1.81938 -5.612657,-4.30235 -6.516836,-5.74413 -0.02112,-0.04 -0.04962,-0.088 -0.07054,-0.12999 -0.183458,-0.368 -0.366673,-0.73439 -0.550125,-1.08739 -0.116738,-0.03 -0.218727,-0.078 -0.318787,-0.108 z"
       id="path7" />
    <path
       style="opacity:0.3;fill:#7137c8;fill-rule:evenodd"
       d="m 31.948861,992.36318 c -0.08336,0.168 -0.182078,0.3514 -0.282116,0.5202 -0.07132,0.13599 -0.168979,0.29399 -0.24262,0.43159 -0.510235,0.84239 -2.060769,3.31055 -5.162687,5.22933 -3.697608,2.1276 -8.89538,3.8749 -13.047782,3.8197 0,0 -6.8182154,18.3576 -7.0895264,18.9544 -0.04082,0.026 -0.08346,0.058 -0.1241296,0.086 h 0.0931 c -0.0028,0 -0.09267,0.2526 -0.0931,0.2518 l 0.01694,0.06 h 0.01694 c 0.146553,-0.096 0.300138,-0.2122 0.44856,-0.3128 h 51.28271 c 0.07684,0.048 0.157798,0.108 0.234155,0.156 v -0.028 l -0.04796,-0.128 h 0.04796 c -0.02038,-0.02 -0.04172,-0.028 -0.06206,-0.04 l -7.134661,-19.0018 c -3.943662,0.074 -8.468366,-1.3865 -11.397413,-2.92851 -3.384109,-1.81938 -5.612657,-4.30235 -6.516838,-5.74413 -0.02112,-0.04 -0.04962,-0.088 -0.07054,-0.12999 -0.183459,-0.368 -0.366674,-0.73439 -0.550126,-1.08739 -0.116738,-0.03 -0.218727,-0.078 -0.318787,-0.108 z"
       id="path8" />
    <path
       style="opacity:0.1;fill:#ffffff;fill-rule:evenodd"
       transform="translate(0,988.3622)"
       d="m 31.949219,4.0019531 c -0.08336,0.168 -0.181212,0.3507313 -0.28125,0.5195313 -0.07132,0.13599 -0.1705,0.2940406 -0.244141,0.4316406 -0.510235,0.84239 -2.060192,3.3097356 -5.162109,5.228516 -3.697607,2.1276 -8.894473,3.875512 -13.046875,3.820312 0,0 -6.8185324,18.358278 -7.089844,18.955078 -0.040815,0.026 -0.084327,0.05794 -0.125,0.08594 h 0.09375 c -0.00278,0 -0.09332,0.252753 -0.09375,0.251953 l 0.017578,0.05859 h 0.017578 c 0.1408809,-0.09228 0.2866446,-0.202966 0.4296876,-0.300782 0.8128034,-2.072566 6.7500004,-18.050781 6.7500004,-18.050781 4.152402,0.0552 9.349268,-1.692712 13.046875,-3.820312 3.101917,-1.9187804 4.651874,-4.386126 5.162109,-5.228516 0.07364,-0.1376 0.172821,-0.2956506 0.244141,-0.4316406 0.100038,-0.1688 0.19789,-0.3515313 0.28125,-0.5195313 0.10006,0.03 0.201621,0.077422 0.318359,0.1074219 0.183452,0.353 0.367323,0.7198906 0.550781,1.0878906 0.02092,0.04199 0.04919,0.088906 0.07031,0.1289063 0.904179,1.44178 3.133469,3.9247511 6.517578,5.7441401 2.92905,1.542003 7.452825,3.00369 11.396487,2.92969 l 6.773438,18.041016 h 0.189453 c 0.07684,0.048 0.158018,0.10825 0.234375,0.15625 v -0.02734 L 57.95117,33.04102 H 58 c -0.02038,-0.02 -0.04216,-0.02706 -0.0625,-0.03906 L 50.802734,14 C 46.859072,14.074 42.335297,12.612323 39.40625,11.070312 36.022141,9.2509325 33.792851,6.7679519 32.888672,5.3261719 c -0.02112,-0.04 -0.04939,-0.086916 -0.07031,-0.1289063 -0.183458,-0.368 -0.367329,-0.7348906 -0.550781,-1.0878906 -0.116738,-0.03 -0.218299,-0.077422 -0.318359,-0.1074219 z"
       id="path9" />
    <path
       style="fill:#8d5fd3;fill-rule:evenodd"
       d="m 57.999628,1021.4042 v 0 c -4.102575,-2.562 -8.93894,-6.9363 -13.942079,-12.1519 -5.453419,-5.6759 -8.972293,-11.29019 -11.240383,-15.69293 -0.183458,-0.3682 -0.366895,-0.73619 -0.550345,-1.08919 -0.116738,-0.03 -0.216805,-0.076 -0.316865,-0.108 -0.08336,0.168 -0.183458,0.353 -0.283498,0.5216 -2.36815,4.49453 -6.003766,10.18562 -11.523893,15.99982 -5.019816,5.2923 -9.956256,9.8202 -14.1422146,12.5202"
       id="path10" />
    <path
       style="opacity:0.1;fill:#ffffff;fill-rule:evenodd"
       transform="translate(0,988.3622)"
       d="M 31.949219,4 C 31.865859,4.168 31.766056,4.3528844 31.666016,4.5214844 29.297866,9.0160144 25.662705,14.707284 20.142578,20.521484 15.122762,25.813784 10.185959,30.341016 6,33.041016 H 7.4628906 C 11.315408,30.291815 15.695281,26.210188 20.142578,21.521484 25.662705,15.707284 29.297866,10.016014 31.666016,5.5214844 31.766056,5.3528844 31.865859,5.168 31.949219,5 c 0.10006,0.032 0.201621,0.077422 0.318359,0.1074219 0.18345,0.353 0.36537,0.7216437 0.548828,1.0898437 2.26809,4.4027404 5.786816,10.0174594 11.240235,15.6933594 4.404844,4.591898 8.680106,8.527332 12.439453,11.152344 H 58 C 53.897425,30.480969 49.05978,26.106225 44.056641,20.890625 38.603222,15.214725 35.084496,9.6000056 32.816406,5.1972656 32.632948,4.8290656 32.451028,4.4604219 32.267578,4.1074219 32.15084,4.0774219 32.049279,4.032 31.949219,4 Z"
       id="path11" />
    <path
       style="fill:#7137c8;fill-rule:evenodd"
       d="m 7.1277606,1020.3626 a 1.1291546,1.1562574 0 0 0 -1.0946444,1.4328 l 0.6601722,2.7625 0.2228788,0.9228 a 1.1291546,1.1562574 0 0 0 1.0946443,0.8818 H 8.95593 a 1.1291546,1.1562574 0 0 0 0.0028,0 l 14.286804,-0.022 a 1.1291546,1.1562574 0 0 0 0.0508,0 h 1.704035 a 1.1291546,1.1562574 0 0 0 0.157997,0.022 h 1.007187 5.834341 5.834341 1.007189 a 1.1291546,1.1562574 0 0 0 0.157977,-0.022 h 1.704037 a 1.1291546,1.1562574 0 0 0 0.0508,0 l 14.286797,0.022 a 1.1291546,1.1562574 0 0 1 0.003,0 h 0.945121 a 1.1291546,1.1562574 0 0 0 1.094643,-0.8818 l 0.222879,-0.9228 0.660173,-2.7625 a 1.1291546,1.1562574 0 0 0 -1.094713,-1.4328 H 39.538387 24.461633 7.1278794 Z"
       id="path12" />
    <path
       style="opacity:0.2;fill-rule:evenodd"
       d="m 42.153655,1049.3622 5.793516,-9.1949 c 0.09236,-0.148 0.06006,-0.349 -0.0731,-0.4524 0,0 -5.417671,-4.2157 -8.126504,-6.3239 -0.348017,-0.2706 -7.747577,-6.0285 -7.747577,-6.0285 l 10.153656,21.9997 v 0 z"
       id="path13" />
    <path
       style="fill:#ffffff;fill-rule:evenodd"
       d="m 42.153655,1048.3622 5.793516,-9.1949 c 0.09236,-0.148 0.06006,-0.349 -0.0731,-0.4524 0,0 -5.417671,-4.2157 -8.126504,-6.3239 -0.348017,-0.2706 -7.747577,-6.0285 -7.747577,-6.0285 l 10.153656,21.9997 v 0 z"
       id="path14" />
  </g>
</svg>
