<?xml version="1.0" encoding="UTF-8" standalone="no"?>
<svg
   width="62"
   height="62"
   version="1"
   id="svg5"
   sodipodi:docname="opensnitch-ui.svg"
   inkscape:version="1.4 (unknown)"
   xmlns:inkscape="http://www.inkscape.org/namespaces/inkscape"
   xmlns:sodipodi="http://sodipodi.sourceforge.net/DTD/sodipodi-0.dtd"
   xmlns="http://www.w3.org/2000/svg"
   xmlns:svg="http://www.w3.org/2000/svg">
  <defs
     id="defs5" />
  <sodipodi:namedview
     id="namedview5"
     pagecolor="#ffffff"
     bordercolor="#000000"
     borderopacity="0.25"
     inkscape:showpageshadow="2"
     inkscape:pageopacity="0.0"
     inkscape:pagecheckerboard="0"
     inkscape:deskcolor="#d1d1d1"
     inkscape:zoom="12.109375"
     inkscape:cx="32"
     inkscape:cy="32"
     inkscape:window-width="1920"
     inkscape:window-height="998"
     inkscape:window-x="0"
     inkscape:window-y="0"
     inkscape:window-maximized="1"
     inkscape:current-layer="svg5" />
  <g
     id="g5"
     transform="translate(-0.5)">
    <rect
       style="opacity:0.2;stroke-width:0.965217"
       width="55"
       height="55.034485"
       x="4"
       y="3.9655156"
       rx="16.500006"
       ry="16.510351"
       id="rect1" />
    <rect
       style="fill:#a02c5a;stroke-width:0.965217"
       width="55"
       height="55.034485"
       x="4"
       y="3"
       rx="16.500006"
       ry="16.510351"
       id="rect2" />
    <path
       style="opacity:0.2;stroke-width:0.965217"
       d="m 36.311355,14.599406 c -2.095897,0.101339 -3.867412,0.690717 -5.610433,1.865024 -0.741325,0.499367 -1.857187,1.422606 -2.350092,2.051733 -0.247641,0.316657 -0.248847,0.316525 -0.629451,0.218746 -0.214859,-0.0542 -1.007516,-0.09639 -1.822405,-0.09426 -1.27726,0.0028 -1.538777,0.02886 -2.265278,0.224418 -4.103717,1.103385 -6.952636,4.675139 -7.178424,8.853703 l -0.04895,0.952324 -0.326029,0.09806 c -1.167806,0.352468 -2.626507,1.273018 -3.652343,2.306297 -1.223495,1.23228 -2.048683,2.692212 -2.5140513,4.442895 -0.1968736,0.740572 -0.2204984,0.982895 -0.2204984,2.323271 0,1.340396 0.023633,1.582587 0.2204984,2.323271 1.0123693,3.808316 4.0792473,6.61139 7.8417933,7.164058 v -0.0039 c 0.276277,0.04079 6.079043,0.07772 12.898157,0.08489 13.285258,0.01065 13.091615,0.01629 14.648948,-0.416747 1.470826,-0.408883 3.484316,-1.611985 4.636098,-2.772093 1.205494,-1.21412 2.368142,-3.226378 2.787307,-4.820043 1.027575,-3.907173 -0.01273,-7.82202 -2.825006,-10.631994 -0.496919,-0.496515 -1.213623,-1.108411 -1.592476,-1.359645 l -0.68977,-0.456357 0.04329,-0.961751 C 47.74339,24.139851 47.39098,22.439307 46.582361,20.773369 45.45781,18.456481 43.826255,16.81439 41.526002,15.681775 39.85402,14.858811 38.173213,14.510257 36.311334,14.599342 Z m 0.137575,2.892774 h 0.002 c 1.418524,-0.06761 2.525806,0.162347 3.797449,0.788259 1.792197,0.882457 2.852823,1.948043 3.731504,3.758345 0.614384,1.265785 0.851348,2.415797 0.789644,3.824354 l -0.04154,0.961751 a 2.8950254,2.8968406 0 0 0 1.292832,2.542017 l 0.687878,0.456356 c -0.02385,-0.01575 0.794281,0.642562 1.147714,0.99569 2.113521,2.111764 2.855237,4.863532 2.071167,7.844831 -0.236239,0.898171 -1.307854,2.774781 -2.042905,3.515085 -0.669301,0.67414 -2.641578,1.824695 -3.356452,2.023426 -0.805178,0.223918 -0.531485,0.223115 -2.235126,0.271564 -1.703655,0.04837 -4.99431,0.04494 -11.637365,0.03962 -3.405098,-0.0037 -6.55611,-0.01476 -8.885865,-0.03025 -1.164872,-0.0079 -2.125153,-0.01526 -2.802383,-0.02459 -0.338621,-0.0048 -0.607181,-0.0091 -0.785879,-0.01327 -0.02599,-6.51e-4 -0.05793,-0.0067 -0.09236,-0.0098 -2.554359,-0.412251 -4.657519,-2.301605 -5.378625,-5.014277 -0.170892,-0.642936 -0.122509,-0.273171 -0.122509,-1.580277 0,-1.307077 -0.04829,-0.937576 0.122509,-1.580281 0.349353,-1.314255 0.894381,-2.262048 1.771509,-3.145475 0.664437,-0.669249 1.960252,-1.430038 2.433016,-1.572734 a 2.8950254,2.8968406 0 0 0 0.0039,-0.002 l 0.326028,-0.09804 a 2.8950254,2.8968406 0 0 0 2.052324,-2.619339 l 0.04895,-0.948544 v -0.002 c 0.160489,-2.955765 2.122331,-5.426036 5.037517,-6.209858 a 2.8950254,2.8968406 0 0 0 0.002,0 c 0.620268,-0.166976 0.280337,-0.123725 1.518985,-0.126347 a 2.8950254,2.8968406 0 0 0 0.002,0 c 0.356214,-8.99e-4 0.716911,0.0094 0.97999,0.02264 0.09897,0.0053 0.187744,0.02058 0.26008,0.032 0.269543,0.102363 0.825167,0.295212 1.892135,-0.07728 1.267209,-0.442447 1.465185,-1.053078 1.588707,-1.212554 l 0.002,-0.002 c 0.03399,-0.04233 1.201234,-1.104902 1.688596,-1.43319 1.360733,-0.916747 2.497831,-1.295488 4.131036,-1.37473 z m -2.463168,7.714709 v 2.896544 H 23.298235 v 2.896556 h 10.687527 v 2.896556 l 6.680892,-4.135516 z m -4.006636,8.689656 -6.680891,4.554139 6.680891,4.135502 V 39.689644 H 40.666654 V 36.793088 H 29.979126 Z"
       id="path2" />
    <path
       style="fill:#ffffff;stroke-width:0.965217"
       d="m 36.311355,13.633888 c -2.095897,0.101339 -3.867412,0.690715 -5.610433,1.865032 -0.741325,0.499358 -1.857187,1.422596 -2.350092,2.051724 -0.247641,0.316657 -0.248847,0.316525 -0.629451,0.218745 -0.214859,-0.0542 -1.007516,-0.09639 -1.822405,-0.09426 -1.27726,0.0028 -1.538777,0.02886 -2.265278,0.224417 -4.103717,1.103385 -6.952636,4.675139 -7.178424,8.85371 l -0.04895,0.952316 -0.326029,0.09805 c -1.167806,0.352468 -2.626507,1.273032 -3.652343,2.306296 -1.223495,1.232282 -2.048683,2.692214 -2.5140513,4.442896 -0.1968736,0.740573 -0.2204984,0.982908 -0.2204984,2.323271 0,1.340396 0.023633,1.582587 0.2204984,2.323271 1.0123693,3.808317 4.0792473,6.611389 7.8417933,7.164058 v -0.0039 c 0.276277,0.04079 6.079043,0.07772 12.898157,0.08489 13.285258,0.01065 13.091615,0.01629 14.648948,-0.416759 1.470826,-0.408882 3.484316,-1.611986 4.636098,-2.772092 1.205494,-1.214121 2.368142,-3.22638 2.787307,-4.820044 1.027577,-3.907176 -0.01273,-7.82202 -2.825004,-10.631996 -0.49692,-0.496498 -1.213624,-1.1084 -1.592477,-1.359636 l -0.68977,-0.456358 0.04329,-0.961748 c 0.08111,-1.851457 -0.271261,-3.551999 -1.079879,-5.217936 -1.124553,-2.316882 -2.756108,-3.958966 -5.056361,-5.091587 -1.671982,-0.822953 -3.352789,-1.17152 -5.214668,-1.082434 z m 0.137575,2.892774 h 0.002 c 1.418524,-0.06761 2.525806,0.162348 3.797449,0.788262 1.792197,0.882454 2.852823,1.94804 3.731504,3.758342 0.614384,1.265784 0.851348,2.415795 0.789644,3.824355 l -0.04154,0.961748 a 2.8950254,2.8968406 0 0 0 1.292832,2.542018 l 0.687878,0.456356 c -0.02385,-0.01575 0.794281,0.642563 1.147714,0.995689 2.113521,2.111766 2.855237,4.863546 2.071167,7.844833 -0.236239,0.89817 -1.307854,2.77478 -2.042905,3.515084 -0.669301,0.674141 -2.641578,1.824694 -3.356452,2.02344 -0.805178,0.223904 -0.531485,0.2231 -2.235126,0.271551 -1.703655,0.04837 -4.99431,0.04494 -11.637365,0.03962 -3.405098,-0.0037 -6.55611,-0.01476 -8.885865,-0.03025 -1.164872,-0.0079 -2.125153,-0.01526 -2.802383,-0.02459 -0.338621,-0.0048 -0.607181,-0.0091 -0.785879,-0.01327 -0.02599,-6.45e-4 -0.05793,-0.0067 -0.09236,-0.0098 -2.554359,-0.412251 -4.657519,-2.301606 -5.378625,-5.014276 -0.170892,-0.642938 -0.122509,-0.273172 -0.122509,-1.58028 0,-1.307076 -0.04829,-0.937574 0.122509,-1.58028 0.349353,-1.314255 0.894381,-2.262047 1.771509,-3.145473 0.664437,-0.66925 1.960252,-1.430038 2.433016,-1.572735 a 2.8950254,2.8968406 0 0 0 0.0039,-0.002 l 0.326028,-0.09804 a 2.8950254,2.8968406 0 0 0 2.052324,-2.61934 l 0.04895,-0.948546 v -0.002 c 0.160489,-2.955765 2.122331,-5.426035 5.037517,-6.209858 a 2.8950254,2.8968406 0 0 0 0.002,0 c 0.620268,-0.166975 0.280337,-0.123724 1.518985,-0.126345 a 2.8950254,2.8968406 0 0 0 0.002,0 c 0.356214,-9e-4 0.716911,0.0094 0.97999,0.02264 0.09897,0.0053 0.187744,0.02058 0.26008,0.032 0.269543,0.102364 0.825167,0.295213 1.892135,-0.07728 1.267209,-0.442446 1.465185,-1.053078 1.588707,-1.212554 l 0.002,-0.002 c 0.03399,-0.0423 1.201234,-1.104903 1.688596,-1.433189 1.360733,-0.916746 2.497831,-1.29549 4.131036,-1.374731 z m -2.463168,7.714709 v 2.896557 H 23.298235 v 2.896543 h 10.687527 v 2.896555 l 6.680892,-4.135502 z m -4.006636,8.689655 -6.680891,4.554139 6.680891,4.135509 V 38.724125 H 40.666654 V 35.827569 H 29.979126 Z"
       id="path3" />
    <path
       style="fill:#ffffff;stroke-width:0.965217"
       d="m 18.115204,43.648263 c 0.02778,0.0042 -0.0026,2.76e-4 0.03174,0.0055 a 2.7140426,2.7358585 0 0 0 -0.01056,0 c -0.0076,-0.0011 -0.01394,-0.0043 -0.02117,-0.0055 z"
       id="path4" />
    <path
       style="opacity:0.2;fill:#ffffff;stroke-width:0.965217"
       d="M 20.499617,3 C 11.358614,3 4,10.363228 4,19.509962 v 0.965517 C 4,11.328747 11.358614,3.9655174 20.499617,3.9655174 h 22.00074 c 9.141003,0 16.499617,7.3632296 16.499617,16.5099616 V 19.509962 C 58.999974,10.363228 51.64136,3 42.500357,3 Z"
       id="path5" />
  </g>
</svg>
