<?xml version="1.0" encoding="UTF-8" standalone="no"?>
<svg
   width="62"
   height="62"
   version="1"
   id="svg4"
   sodipodi:docname="openblok.svg"
   inkscape:version="1.4 (unknown)"
   xmlns:inkscape="http://www.inkscape.org/namespaces/inkscape"
   xmlns:sodipodi="http://sodipodi.sourceforge.net/DTD/sodipodi-0.dtd"
   xmlns="http://www.w3.org/2000/svg"
   xmlns:svg="http://www.w3.org/2000/svg">
  <defs
     id="defs4" />
  <sodipodi:namedview
     id="namedview4"
     pagecolor="#ffffff"
     bordercolor="#000000"
     borderopacity="0.25"
     inkscape:showpageshadow="2"
     inkscape:pageopacity="0.0"
     inkscape:pagecheckerboard="0"
     inkscape:deskcolor="#d1d1d1"
     inkscape:zoom="5"
     inkscape:cx="37.4"
     inkscape:cy="36.7"
     inkscape:window-width="1920"
     inkscape:window-height="998"
     inkscape:window-x="0"
     inkscape:window-y="0"
     inkscape:window-maximized="1"
     inkscape:current-layer="svg4" />
  <g
     id="g4"
     transform="translate(0.5)">
    <rect
       transform="scale(-1,1)"
       x="-58"
       y="3.9491525"
       width="55"
       height="55.050846"
       rx="16.499998"
       ry="16.515253"
       style="opacity:0.2;stroke-width:0.948713"
       id="rect1" />
    <rect
       transform="scale(-1,1)"
       x="-58"
       y="3"
       width="55"
       height="55.050846"
       rx="16.499998"
       ry="16.515253"
       style="fill:#aa87de;stroke-width:0.948713"
       id="rect2" />
    <path
       d="M 53.177125,7.8273305 42.875735,18.138238 V 30.525419 42.9126 H 30.499995 18.124256 L 7.8228712,53.223514 c 2.9823738,2.985135 7.1069998,4.827332 11.6775008,4.827332 h 10.999623 10.999631 c 4.570501,0 8.695127,-1.842197 11.677499,-4.827332 2.982379,-2.985129 4.822873,-7.113569 4.822873,-11.688295 v -11.0098 -11.009793 c 0,-4.574726 -1.840493,-8.703165 -4.822873,-11.6882955 z"
       style="opacity:0.3;stroke-width:0.948713"
       id="path2" />
    <rect
       transform="scale(-1,1)"
       x="-50.413784"
       y="11.542374"
       width="39.827587"
       height="39.86441"
       rx="8.5354309"
       ry="8.5433226"
       style="opacity:0.1;stroke-width:0.948713"
       id="rect3" />
    <rect
       transform="scale(-1,1)"
       x="-50.413784"
       y="10.593221"
       width="39.827587"
       height="39.86441"
       rx="8.5354309"
       ry="8.5433226"
       style="fill:#8d5fd3;stroke-width:0.948713"
       id="rect4" />
    <path
       d="M 19.498516,3 C 10.357516,3 3,10.364318 3,19.513769 v 0.949152 C 3,11.313478 10.357516,3.9491526 19.498516,3.9491526 h 22.002966 c 9.140993,0 16.498516,7.3643244 16.498516,16.5137684 V 19.513769 C 57.999998,10.364318 50.642475,3 41.501482,3 Z"
       style="opacity:0.2;fill:#ffffff;stroke-width:0.948713"
       id="path4" />
  </g>
</svg>
