<?xml version="1.0" encoding="UTF-8" standalone="no"?>
<svg
   width="62"
   height="62"
   version="1"
   id="svg5"
   sodipodi:docname="openttd.svg"
   inkscape:version="1.4 (unknown)"
   xmlns:inkscape="http://www.inkscape.org/namespaces/inkscape"
   xmlns:sodipodi="http://sodipodi.sourceforge.net/DTD/sodipodi-0.dtd"
   xmlns="http://www.w3.org/2000/svg"
   xmlns:svg="http://www.w3.org/2000/svg">
  <defs
     id="defs5" />
  <sodipodi:namedview
     id="namedview5"
     pagecolor="#ffffff"
     bordercolor="#000000"
     borderopacity="0.25"
     inkscape:showpageshadow="2"
     inkscape:pageopacity="0.0"
     inkscape:pagecheckerboard="0"
     inkscape:deskcolor="#d1d1d1"
     inkscape:zoom="12.109375"
     inkscape:cx="32"
     inkscape:cy="32"
     inkscape:window-width="1920"
     inkscape:window-height="998"
     inkscape:window-x="0"
     inkscape:window-y="0"
     inkscape:window-maximized="1"
     inkscape:current-layer="svg5" />
  <g
     id="g6"
     transform="translate(-0.49999938,-0.99999916)">
    <path
       style="opacity:0.2;stroke-width:0.982284"
       d="M 4.6318809,34.012546 29.978135,59.367887 c 0.84251,0.842812 2.19905,0.842818 3.041559,7e-6 L 58.365947,34.01255 c 0.84251,-0.842812 0.842505,-2.199837 -5e-6,-3.042649 L 33.019692,5.6145638 c -0.84251,-0.8428112 -2.199044,-0.8428112 -3.041554,0 L 4.6318802,30.969904 c -0.8425082,0.842811 -0.8425082,2.19983 7e-7,3.042642 z M 4.4964783,39.581287 24.411392,59.503338 c 0.661973,0.662208 1.72782,0.662208 2.38979,10e-7 L 46.716098,39.581286 c 0.661967,-0.662207 0.661967,-1.728439 -1e-6,-2.390648 L 26.801183,17.268587 c -0.661969,-0.662206 -1.727818,-0.662206 -2.38979,0 L 4.4964782,37.19064 c -0.6619719,0.662208 -0.6619716,1.728439 10e-8,2.390647 z m 11.7852477,0 19.914919,19.922056 c 0.661969,0.662201 1.727814,0.662201 2.389783,-6e-6 L 58.501343,39.581284 c 0.661975,-0.662205 0.661975,-1.728439 7e-6,-2.39064 L 38.586432,17.268588 c -0.66197,-0.662207 -1.727816,-0.662207 -2.38979,0 L 16.281726,37.190641 c -0.661968,0.662207 -0.661968,1.728438 0,2.390646 z"
       id="path1" />
    <rect
       style="fill:#009999;stroke-width:0.982284;fill-opacity:1"
       width="31.548876"
       height="31.548876"
       x="28.782822"
       y="-24.104141"
       rx="1.6905037"
       ry="1.6905037"
       transform="matrix(0.70698006,0.70723348,0.70698006,-0.70723348,0,0)"
       id="rect1" />
    <rect
       style="fill:#009999;stroke-width:0.982284;fill-opacity:1"
       width="31.548876"
       height="31.548876"
       x="37.112541"
       y="-15.774405"
       rx="1.6905037"
       ry="1.6905037"
       transform="matrix(0.70698006,0.70723348,0.70698006,-0.70723348,0,0)"
       id="rect2" />
    <rect
       style="fill:#ff9955;stroke-width:0.982284"
       width="40.153641"
       height="40.153641"
       x="24.480434"
       y="-20.076788"
       rx="2.1511934"
       ry="2.1511934"
       transform="matrix(0.70698006,0.70723348,0.70698006,-0.70723348,0,0)"
       id="rect3" />
    <path
       style="opacity:0.2;fill:#ffffff;stroke-width:0.982284"
       d="m 31.499865,3.9999992 c -0.549747,0 -1.099847,0.2099 -1.521098,0.631306 L 4.6320366,29.987112 c -0.5479005,0.5481 -0.7324993,1.310785 -0.5677793,2.010965 0.088755,-0.375834 0.2736349,-0.734255 0.5677793,-1.028508 L 29.978767,5.613761 c 0.842507,-0.8428118 2.197791,-0.8428118 3.040299,0 l 25.346717,25.355808 c 0.294154,0.294253 0.479025,0.652674 0.567785,1.028508 0.164721,-0.70018 -0.01984,-1.462865 -0.567785,-2.010965 L 33.019066,4.6313052 c -0.421257,-0.421406 -0.969438,-0.631306 -1.519201,-0.631306 z"
       id="path3" />
    <g
       style="font-size:39.0663px;line-height:1.25;font-family:'DejaVu Serif';letter-spacing:0px;word-spacing:0px;opacity:0.2"
       transform="matrix(0.96636052,0,0,0.99846164,0.0715837,1.0526319)"
       id="g4">
      <path
         d="m 33.537623,42.310691 c 1.437009,-0.127169 2.215021,-0.688283 2.965318,-1.387712 0.763013,-0.699429 1.099848,-1.340061 1.099848,-2.548166 0,-1.093653 -0.330476,-2.335121 -1.080773,-3.098134 -0.750297,-0.763013 -1.534668,-1.42749 -2.984393,-1.821714 z M 31.50504,20.663361 c -1.30984,0.08902 -2.517782,0.624737 -3.242645,1.298732 -0.724863,0.661279 -0.822522,1.518059 -0.822522,2.637146 0,1.017351 0.06587,1.896427 0.727145,2.570422 0.673995,0.673995 1.91373,0.945799 3.338022,1.365456 z m -8.130333,21.64733 v -4.919848 h 2.032583 c 0.05087,1.742214 0.629647,2.489351 1.596132,3.379533 0.966484,0.890183 2.594084,1.502164 4.501618,1.540315 v -8.855726 c -2.924885,-0.813881 -5.169254,-2.2922 -6.351925,-3.347702 -1.182671,-1.068219 -1.778408,-2.479836 -1.778408,-4.234767 0,-2.034703 0.70383,-3.668781 2.102688,-4.90232 1.398859,-1.233539 3.535134,-2.122152 6.027645,-2.274754 v -4.919848 h 2.032583 v 4.919848 c 1.284406,0.101735 2.202304,0.507106 3.384975,0.825028 1.195388,0.305205 2.597263,0.718931 3.729066,1.240324 v 4.822435 h -2.032583 c -0.152603,-1.47516 -0.952545,-2.463879 -1.83001,-3.31591 -0.877466,-0.852032 -1.750855,-1.489486 -3.251448,-1.603938 v 8.855726 c 3.128355,0.852031 5.000021,1.751771 6.246276,2.858141 1.258972,1.093653 1.884057,2.185697 1.884057,4.029646 0,2.111004 -0.733179,4.179108 -2.208338,5.450797 -1.475159,1.271689 -3.238731,2.230205 -5.921995,2.420959 v 4.919848 H 31.50504 V 44.27863 c -1.220822,-0.02543 -2.676744,-0.430765 -3.986583,-0.761405 -1.30984,-0.317922 -2.719458,-0.570689 -4.14375,-1.206534 z"
         id="path4" />
    </g>
    <g
       style="font-size:39.0663px;line-height:1.25;font-family:'DejaVu Serif';letter-spacing:0px;word-spacing:0px;fill:#ffffff"
       transform="matrix(0.96636052,0,0,0.99846164,0.0715837,0.07017558)"
       id="g5">
      <path
         style="fill:#f2f2f2;fill-opacity:1"
         d="m 33.537623,42.310691 c 1.437009,-0.127169 2.215021,-0.688283 2.965318,-1.387712 0.763013,-0.699429 1.099848,-1.340061 1.099848,-2.548166 0,-1.093653 -0.330476,-2.335121 -1.080773,-3.098134 -0.750297,-0.763013 -1.534668,-1.42749 -2.984393,-1.821714 z M 31.50504,20.663361 c -1.30984,0.08902 -2.517782,0.624737 -3.242645,1.298732 -0.724863,0.661279 -0.822522,1.518059 -0.822522,2.637146 0,1.017351 0.06587,1.896427 0.727145,2.570422 0.673995,0.673995 1.91373,0.945799 3.338022,1.365456 z m -8.130333,21.64733 v -4.919848 h 2.032583 c 0.05087,1.742214 0.629647,2.489351 1.596132,3.379533 0.966484,0.890183 2.594084,1.502164 4.501618,1.540315 v -8.855726 c -2.924885,-0.813881 -5.169254,-2.2922 -6.351925,-3.347702 -1.182671,-1.068219 -1.778408,-2.479836 -1.778408,-4.234767 0,-2.034703 0.70383,-3.668781 2.102688,-4.90232 1.398859,-1.233539 3.535134,-2.122152 6.027645,-2.274754 v -4.919848 h 2.032583 v 4.919848 c 1.284406,0.101735 2.202304,0.507106 3.384975,0.825028 1.195388,0.305205 2.597263,0.718931 3.729066,1.240324 v 4.822435 h -2.032583 c -0.152603,-1.47516 -0.952545,-2.463879 -1.83001,-3.31591 -0.877466,-0.852032 -1.750855,-1.489486 -3.251448,-1.603938 v 8.855726 c 3.128355,0.852031 5.000021,1.751771 6.246276,2.858141 1.258972,1.093653 1.884057,2.185697 1.884057,4.029646 0,2.111004 -0.733179,4.179108 -2.208338,5.450797 -1.475159,1.271689 -3.238731,2.230205 -5.921995,2.420959 v 4.919848 H 31.50504 V 44.27863 c -1.220822,-0.02543 -2.676744,-0.430765 -3.986583,-0.761405 -1.30984,-0.317922 -2.719458,-0.570689 -4.14375,-1.206534 z"
         id="path5" />
    </g>
  </g>
</svg>
