<?xml version="1.0" encoding="UTF-8" standalone="no"?>
<svg
   width="62"
   height="62"
   version="1"
   id="svg4"
   sodipodi:docname="openoffice4-draw.svg"
   inkscape:version="1.4 (e7c3feb100, 2024-10-09)"
   xmlns:inkscape="http://www.inkscape.org/namespaces/inkscape"
   xmlns:sodipodi="http://sodipodi.sourceforge.net/DTD/sodipodi-0.dtd"
   xmlns:xlink="http://www.w3.org/1999/xlink"
   xmlns="http://www.w3.org/2000/svg"
   xmlns:svg="http://www.w3.org/2000/svg">
  <defs
     id="defs4">
    <linearGradient
       id="linearGradient4"
       inkscape:collect="always">
      <stop
         style="stop-color:#fd933a;stop-opacity:1"
         offset="0"
         id="stop4" />
      <stop
         style="stop-color:#febc85;stop-opacity:1"
         offset="1"
         id="stop5" />
    </linearGradient>
    <linearGradient
       inkscape:collect="always"
       xlink:href="#linearGradient4"
       id="linearGradient5"
       x1="30.94278"
       y1="59.980034"
       x2="31.212093"
       y2="5.0116067"
       gradientUnits="userSpaceOnUse" />
  </defs>
  <sodipodi:namedview
     id="namedview4"
     pagecolor="#ffffff"
     bordercolor="#000000"
     borderopacity="0.25"
     inkscape:showpageshadow="2"
     inkscape:pageopacity="0.0"
     inkscape:pagecheckerboard="0"
     inkscape:deskcolor="#d1d1d1"
     inkscape:zoom="11.75"
     inkscape:cx="32"
     inkscape:cy="32"
     inkscape:window-width="1920"
     inkscape:window-height="998"
     inkscape:window-x="0"
     inkscape:window-y="0"
     inkscape:window-maximized="1"
     inkscape:current-layer="svg4" />
  <g
     id="g4"
     transform="matrix(0.98214286,0,0,0.98245614,-0.42857152,-0.92982455)">
    <circle
       style="opacity:0.2"
       cx="32"
       cy="33"
       r="28"
       id="circle1" />
    <circle
       style="fill:url(#linearGradient5)"
       cx="32"
       cy="32"
       r="28"
       id="circle2" />
    <path
       style="opacity:0.2;fill:none;stroke:#000000;stroke-width:2.8;stroke-linecap:square"
       d="m 19.430589,34.518732 2.15404,0.0476 c 4.23948,0.0924 7.486031,0.589338 8.988371,2.921318 3.50518,5.44068 -2.657151,6.904522 -5.446511,3.062082 -2.60666,-4.2175 -1.7059,-12.97948 2.04974,-13.997 6.79574,-1.54882 8.121011,9.83774 12.304771,7.732 3.23162,-1.62652 -2.242971,-8.97946 0.918537,-10.738 1.355018,-0.75376 4.1895,1.682518 4.1895,1.682518"
       id="path2" />
    <path
       style="fill:none;stroke:#ffffff;stroke-width:2.8;stroke-linecap:square"
       d="m 19.430589,33.519 2.15404,0.0476 c 4.23948,0.0924 7.486031,0.589338 8.988371,2.921318 3.50518,5.44068 -2.657151,6.904522 -5.446511,3.062082 -2.60666,-4.2175 -1.7059,-12.97948 2.04974,-13.997 6.79574,-1.54882 8.121011,9.83774 12.304771,7.732 3.23162,-1.62652 -2.242971,-8.97946 0.918537,-10.738 1.355018,-0.75376 4.1895,1.682518 4.1895,1.682518"
       id="path3" />
    <path
       style="opacity:0.2;fill:#ffffff"
       d="M 32,4 A 28,28 0 0 0 4,32 28,28 0 0 0 4.0214844,32.585938 28,28 0 0 1 32,5 28,28 0 0 1 59.978516,32.414062 28,28 0 0 0 60,32 28,28 0 0 0 32,4 Z"
       id="path4" />
  </g>
</svg>
