<?xml version="1.0" encoding="UTF-8" standalone="no"?>
<svg
   width="62"
   height="62"
   version="1"
   id="svg4"
   sodipodi:docname="openoffice4-writer.svg"
   inkscape:version="1.4 (e7c3feb100, 2024-10-09)"
   xmlns:inkscape="http://www.inkscape.org/namespaces/inkscape"
   xmlns:sodipodi="http://sodipodi.sourceforge.net/DTD/sodipodi-0.dtd"
   xmlns:xlink="http://www.w3.org/1999/xlink"
   xmlns="http://www.w3.org/2000/svg"
   xmlns:svg="http://www.w3.org/2000/svg">
  <defs
     id="defs4">
    <linearGradient
       id="linearGradient4"
       inkscape:collect="always">
      <stop
         style="stop-color:#3e50b4;stop-opacity:1;"
         offset="0"
         id="stop4" />
      <stop
         style="stop-color:#7a87d1;stop-opacity:1;"
         offset="1"
         id="stop5" />
    </linearGradient>
    <linearGradient
       inkscape:collect="always"
       xlink:href="#linearGradient4"
       id="linearGradient5"
       x1="31.508774"
       y1="59.017548"
       x2="31.508764"
       y2="4.9824557"
       gradientUnits="userSpaceOnUse" />
  </defs>
  <sodipodi:namedview
     id="namedview4"
     pagecolor="#ffffff"
     bordercolor="#000000"
     borderopacity="0.25"
     inkscape:showpageshadow="2"
     inkscape:pageopacity="0.0"
     inkscape:pagecheckerboard="0"
     inkscape:deskcolor="#d1d1d1"
     inkscape:zoom="11.75"
     inkscape:cx="32"
     inkscape:cy="32"
     inkscape:window-width="1920"
     inkscape:window-height="998"
     inkscape:window-x="0"
     inkscape:window-y="0"
     inkscape:window-maximized="1"
     inkscape:current-layer="svg4" />
  <g
     id="g4"
     transform="matrix(0.99968105,0,0,1,-0.49871878,-0.5)">
    <circle
       style="opacity:0.2;stroke-width:0.982459"
       cx="31.508774"
       cy="32.491226"
       r="27.508774"
       id="circle1" />
    <circle
       style="fill:url(#linearGradient5);stroke-width:0.982459"
       cx="31.508774"
       cy="31.508774"
       r="27.508774"
       id="circle2" />
    <path
       style="opacity:0.2;stroke-width:0.982459"
       d="m 19.719297,22.666666 v 2.947368 H 43.29824 v -2.947368 z m 0,5.89473 v 2.947369 H 43.29824 v -2.947369 z m 0,5.894738 v 2.94737 H 43.29824 v -2.94737 z m 0,5.894737 v 2.947369 h 15.719295 v -2.947369 z"
       id="path2" />
    <path
       style="fill:#ffffff;stroke-width:0.982459"
       d="m 19.719297,21.684206 v 2.94737 H 43.29824 v -2.94737 z m 0,5.894739 v 2.947369 H 43.29824 v -2.947369 z m 0,5.89473 v 2.947369 H 43.29824 v -2.947369 z m 0,5.894738 v 2.94737 h 15.719295 v -2.94737 z"
       id="path3" />
    <path
       style="opacity:0.1;fill:#ffffff;stroke-width:0.982459"
       d="M 31.508765,4 A 27.508765,27.508765 0 0 0 4,31.508765 27.508765,27.508765 0 0 0 4.0211074,32.084423 27.508765,27.508765 0 0 1 31.508765,4.9824558 27.508765,27.508765 0 0 1 58.996425,31.915565 27.508765,27.508765 0 0 0 59.01753,31.508765 27.508765,27.508765 0 0 0 31.508765,4 Z"
       id="path4" />
  </g>
</svg>
