<?xml version="1.0" encoding="UTF-8" standalone="no"?>
<svg
   width="62"
   height="62"
   version="1.1"
   id="svg5"
   sodipodi:docname="openboardview.svg"
   inkscape:version="1.4 (unknown)"
   xmlns:inkscape="http://www.inkscape.org/namespaces/inkscape"
   xmlns:sodipodi="http://sodipodi.sourceforge.net/DTD/sodipodi-0.dtd"
   xmlns:xlink="http://www.w3.org/1999/xlink"
   xmlns="http://www.w3.org/2000/svg"
   xmlns:svg="http://www.w3.org/2000/svg">
  <defs
     id="defs5">
    <linearGradient
       id="linearGradient8"
       inkscape:collect="always">
      <stop
         style="stop-color:#0044aa;stop-opacity:1;"
         offset="0"
         id="stop8" />
      <stop
         style="stop-color:#2d3d53;stop-opacity:1;"
         offset="0.52730554"
         id="stop1" />
      <stop
         style="stop-color:#0066ff;stop-opacity:1;"
         offset="1"
         id="stop10" />
    </linearGradient>
    <linearGradient
       id="linearGradient4217">
      <stop
         style="stop-color:#000000;stop-opacity:1;"
         offset="0"
         id="stop2" />
      <stop
         style="stop-color:#000000;stop-opacity:0;"
         offset="1"
         id="stop4" />
    </linearGradient>
    <linearGradient
       id="linearGradient4161">
      <stop
         style="stop-color:#334545;stop-opacity:1;"
         offset="0"
         id="stop7" />
      <stop
         style="stop-color:#4d6868;stop-opacity:1"
         offset="1"
         id="stop9" />
    </linearGradient>
    <linearGradient
       id="a-1-2"
       y1="510.79999"
       y2="527.14001"
       gradientUnits="userSpaceOnUse"
       x2="0">
      <stop
         stop-color="#7cbaf8"
         id="stop2-2-7" />
      <stop
         offset="1"
         stop-color="#f4fcff"
         id="stop4-70-0" />
    </linearGradient>
    <linearGradient
       id="c"
       y1="503.79999"
       x1="400.57001"
       y2="519.79999"
       x2="416.57001"
       gradientUnits="userSpaceOnUse">
      <stop
         stop-color="#292c2f"
         id="stop12" />
      <stop
         offset="1"
         stop-opacity="0"
         id="stop14" />
    </linearGradient>
    <linearGradient
       id="b"
       y1="542.79999"
       x1="408.57001"
       y2="521.79999"
       x2="387.57001"
       gradientUnits="userSpaceOnUse"
       gradientTransform="translate(-384.57,-499.8)">
      <stop
         stop-color="#197cf1"
         id="stop7-8" />
      <stop
         offset="1"
         stop-color="#20bcfa"
         id="stop9-7" />
    </linearGradient>
    <linearGradient
       xlink:href="#linearGradient1389"
       id="linearGradient4503-5-6"
       y1="37"
       y2="4"
       x2="0"
       gradientUnits="userSpaceOnUse"
       gradientTransform="matrix(1.0218446,0,0,0.99999999,21.748946,8.2587777)" />
    <linearGradient
       id="linearGradient1389">
      <stop
         style="stop-color:#ffaaaa;stop-opacity:1"
         id="stop1385"
         offset="0" />
      <stop
         offset="1"
         style="stop-color:#ff5555;stop-opacity:1"
         id="stop1387" />
    </linearGradient>
    <linearGradient
       id="paint543_linear_890_11"
       x1="978.5"
       y1="298"
       x2="978.5"
       y2="304"
       gradientUnits="userSpaceOnUse"
       gradientTransform="matrix(0.75000004,0,0,0.75000004,-717.38333,-173.49123)">
      <stop
         offset="0.189495"
         stop-color="#EFF2F6"
         id="stop1829" />
      <stop
         offset="0.850463"
         stop-color="#B7C6CD"
         id="stop1830" />
    </linearGradient>
    <linearGradient
       inkscape:collect="always"
       xlink:href="#linearGradient8"
       id="linearGradient10"
       x1="31.5"
       y1="59.017544"
       x2="31.5"
       y2="4.9824562"
       gradientUnits="userSpaceOnUse"
       gradientTransform="translate(-0.5,-1)" />
    <linearGradient
       id="linearGradient4144">
      <stop
         style="stop-color:#c83771;stop-opacity:1"
         offset="0"
         id="stop1141" />
      <stop
         style="stop-color:#de87aa;stop-opacity:1"
         offset="1"
         id="stop1143" />
    </linearGradient>
    <linearGradient
       id="c-0"
       gradientUnits="userSpaceOnUse"
       x1="10"
       x2="24"
       y1="10"
       y2="24"
       gradientTransform="translate(59.728813,26.237288)">
      <stop
         offset="0"
         stop-color="#292c2f"
         id="stop12-2" />
      <stop
         offset="1"
         stop-opacity="0"
         id="stop14-3" />
    </linearGradient>
    <linearGradient
       id="d"
       gradientUnits="userSpaceOnUse"
       x1="24"
       x2="24"
       y1="25"
       y2="7"
       gradientTransform="translate(59.728813,26.237288)">
      <stop
         offset="0"
         stop-color="#bb9d71"
         id="stop2-7" />
      <stop
         offset="1"
         stop-color="#f9f2e7"
         id="stop4-5" />
    </linearGradient>
  </defs>
  <sodipodi:namedview
     id="namedview5"
     pagecolor="#ffffff"
     bordercolor="#000000"
     borderopacity="0.25"
     inkscape:showpageshadow="2"
     inkscape:pageopacity="0.0"
     inkscape:pagecheckerboard="0"
     inkscape:deskcolor="#d1d1d1"
     inkscape:zoom="8.2643105"
     inkscape:cx="25.228965"
     inkscape:cy="41.564266"
     inkscape:window-width="1920"
     inkscape:window-height="998"
     inkscape:window-x="0"
     inkscape:window-y="0"
     inkscape:window-maximized="1"
     inkscape:current-layer="svg5" />
  <rect
     style="opacity:0.2;stroke-width:0.9823"
     width="55"
     height="55.017544"
     x="3.5"
     y="3.9824562"
     rx="8.25"
     ry="8.2526312"
     id="rect1" />
  <rect
     style="fill:url(#linearGradient10);stroke-width:0.9823"
     width="55"
     height="55.017544"
     x="3.5"
     y="3"
     rx="8.25"
     ry="8.2526312"
     id="rect2" />
  <path
     style="opacity:0.1;fill:#ffffff;stroke-width:0.9823"
     d="M 11.748466,3 C 7.1779652,3 3.5,6.6791384 3.5,11.251097 v 0.982456 c 0,-4.5719585 3.6779652,-8.2510969 8.248466,-8.2510969 h 38.503068 c 4.5705,0 8.248466,3.6791384 8.248466,8.2510969 V 11.251097 C 58.5,6.6791384 54.822034,3 50.251534,3 Z"
     id="path4" />
  <g
     id="g1"
     transform="translate(1.990234,-1.233553)">
    <path
       style="opacity:0.2;stroke-width:0.910301"
       d="m 44.442917,12.146595 a 6.3530006,6.3913045 0 0 0 -6.353008,6.391312 6.3530006,6.3913045 0 0 0 0.689553,2.881831 l -1.804514,1.683378 H 20.138792 l -6.081807,6.353876 a 6.3530006,6.3913045 0 0 0 -3.194211,-0.875607 6.3530006,6.3913045 0 0 0 -6.353008,6.391295 6.3530006,6.3913045 0 0 0 6.353008,6.391312 6.3530006,6.3913045 0 0 0 6.352989,-6.391312 6.3530006,6.3913045 0 0 0 -1.153965,-3.661122 l 5.234495,-5.469316 h 16.747539 l 2.458595,-2.293277 a 6.3530006,6.3913045 0 0 0 3.94049,1.380235 6.3530006,6.3913045 0 0 0 6.352991,-6.391293 6.3530006,6.3913045 0 0 0 -6.352991,-6.391312 z m -31.765003,1.826084 a 2.7227153,2.7391313 0 0 0 -2.7227105,2.739144 2.7227153,2.7391313 0 0 0 2.7227105,2.739126 2.7227153,2.7391313 0 0 0 2.722709,-2.739126 2.7227153,2.7391313 0 0 0 -2.722709,-2.739144 z m 9.983286,0 a 2.7227153,2.7391313 0 0 0 -2.722727,2.739144 2.7227153,2.7391313 0 0 0 2.722727,2.739126 2.7227153,2.7391313 0 0 0 2.722712,-2.739126 2.7227153,2.7391313 0 0 0 -2.722712,-2.739144 z m 9.983289,0 a 2.7227153,2.7391313 0 0 0 -2.722726,2.739144 2.7227153,2.7391313 0 0 0 2.722726,2.739126 2.7227153,2.7391313 0 0 0 2.722709,-2.739126 2.7227153,2.7391313 0 0 0 -2.722709,-2.739144 z m 11.798428,0.731163 a 3.811801,3.8347833 0 0 1 3.811087,3.834065 3.811801,3.8347833 0 0 1 -3.811087,3.834047 3.811801,3.8347833 0 0 1 -3.811088,-3.834047 3.811801,3.8347833 0 0 1 3.811088,-3.834065 z m 0.180806,14.972466 A 6.3530006,6.3913045 0 0 0 38.371754,34.97268 H 23.19829 L 11.811106,45.533311 A 3.6302854,3.6521733 0 0 0 9.9552035,45.016157 3.6302854,3.6521733 0 0 0 6.3249094,48.668342 3.6302854,3.6521733 0 0 0 9.9552035,52.320511 3.6302854,3.6521733 0 0 0 13.585484,48.668342 3.6302854,3.6521733 0 0 0 13.459622,47.730369 L 24.261861,37.711823 H 38.48875 a 6.3530006,6.3913045 0 0 0 6.134973,4.747087 6.3530006,6.3913045 0 0 0 6.352991,-6.39131 6.3530006,6.3913045 0 0 0 -6.352991,-6.391292 z M 29.014192,41.363992 a 4.5378572,4.5652171 0 0 0 -4.537851,4.565207 4.5378572,4.5652171 0 0 0 4.537851,4.565228 4.5378572,4.5652171 0 0 0 2.111165,-0.527844 l 2.885799,3.26697 h 19.49861 v -2.739126 h -18.27552 l -2.18738,-2.475174 a 4.5378572,4.5652171 0 0 0 0.505194,-2.090054 4.5378572,4.5652171 0 0 0 -4.537868,-4.565207 z m 0,2.608923 a 1.9447959,1.9565216 0 0 1 1.944554,1.956284 1.9447959,1.9565216 0 0 1 -1.944554,1.956284 1.9447959,1.9565216 0 0 1 -1.944541,-1.956284 1.9447959,1.9565216 0 0 1 1.944541,-1.956284 z M 9.9552035,47.450342 a 1.210095,1.217391 0 0 1 1.2106845,1.218 1.210095,1.217391 0 0 1 -1.2106845,1.218 1.210095,1.217391 0 0 1 -1.2106939,-1.218 1.210095,1.217391 0 0 1 1.2106939,-1.218 z"
       id="path2" />
    <path
       style="fill:#ffffff;stroke-width:0.910301"
       d="m 44.442917,11.233553 a 6.3530006,6.3913045 0 0 0 -6.353008,6.391312 6.3530006,6.3913045 0 0 0 0.689553,2.881831 l -1.804514,1.683378 H 20.138792 l -6.081807,6.353876 a 6.3530006,6.3913045 0 0 0 -3.194211,-0.875607 6.3530006,6.3913045 0 0 0 -6.353008,6.391295 6.3530006,6.3913045 0 0 0 6.353008,6.391312 6.3530006,6.3913045 0 0 0 6.352989,-6.391312 6.3530006,6.3913045 0 0 0 -1.153965,-3.661122 L 21.296293,24.9292 h 16.747539 l 2.458595,-2.293277 a 6.3530006,6.3913045 0 0 0 3.94049,1.380235 6.3530006,6.3913045 0 0 0 6.352991,-6.391293 6.3530006,6.3913045 0 0 0 -6.352991,-6.391312 z m -31.765003,1.826084 a 2.7227153,2.7391313 0 0 0 -2.7227105,2.739127 2.7227153,2.7391313 0 0 0 2.7227105,2.739143 2.7227153,2.7391313 0 0 0 2.722709,-2.739143 2.7227153,2.7391313 0 0 0 -2.722709,-2.739127 z m 9.983286,0 a 2.7227153,2.7391313 0 0 0 -2.722727,2.739127 2.7227153,2.7391313 0 0 0 2.722727,2.739143 2.7227153,2.7391313 0 0 0 2.722712,-2.739143 2.7227153,2.7391313 0 0 0 -2.722712,-2.739127 z m 9.983289,0 a 2.7227153,2.7391313 0 0 0 -2.722726,2.739127 2.7227153,2.7391313 0 0 0 2.722726,2.739143 2.7227153,2.7391313 0 0 0 2.722709,-2.739143 2.7227153,2.7391313 0 0 0 -2.722709,-2.739127 z m 11.798428,0.731162 a 3.811801,3.8347833 0 0 1 3.811087,3.834066 3.811801,3.8347833 0 0 1 -3.811087,3.834046 3.811801,3.8347833 0 0 1 -3.811088,-3.834046 3.811801,3.8347833 0 0 1 3.811088,-3.834066 z m 0.180806,14.972466 a 6.3530006,6.3913045 0 0 0 -6.251969,5.296373 H 23.19829 L 11.811106,44.620268 A 3.6302854,3.6521733 0 0 0 9.9552035,44.103115 3.6302854,3.6521733 0 0 0 6.3249094,47.755283 3.6302854,3.6521733 0 0 0 9.9552035,51.407469 3.6302854,3.6521733 0 0 0 13.585484,47.755283 3.6302854,3.6521733 0 0 0 13.459622,46.817326 L 24.261861,36.798765 H 38.48875 a 6.3530006,6.3913045 0 0 0 6.134973,4.747105 6.3530006,6.3913045 0 0 0 6.352991,-6.391312 6.3530006,6.3913045 0 0 0 -6.352991,-6.391293 z M 29.014192,40.45095 a 4.5378572,4.5652171 0 0 0 -4.537851,4.565207 4.5378572,4.5652171 0 0 0 4.537851,4.565227 4.5378572,4.5652171 0 0 0 2.111165,-0.527843 l 2.885799,3.26697 h 19.49861 v -2.739127 h -18.27552 l -2.18738,-2.475173 A 4.5378572,4.5652171 0 0 0 33.55206,45.016157 4.5378572,4.5652171 0 0 0 29.014192,40.45095 Z m 0,2.608923 a 1.9447959,1.9565216 0 0 1 1.944554,1.956284 1.9447959,1.9565216 0 0 1 -1.944554,1.956284 1.9447959,1.9565216 0 0 1 -1.944541,-1.956284 1.9447959,1.9565216 0 0 1 1.944541,-1.956284 z m -19.0589885,3.47741 a 1.210095,1.217391 0 0 1 1.2106845,1.218 1.210095,1.217391 0 0 1 -1.2106845,1.218 1.210095,1.217391 0 0 1 -1.2106939,-1.218 1.210095,1.217391 0 0 1 1.2106939,-1.218 z"
       id="path3" />
  </g>
</svg>
