<?xml version="1.0" encoding="UTF-8" standalone="no"?>
<svg
   clip-rule="evenodd"
   fill-rule="evenodd"
   stroke-linejoin="round"
   stroke-miterlimit="2"
   viewBox="0 0 62 62"
   version="1.1"
   id="svg3"
   sodipodi:docname="opera-next-browser.svg"
   width="62"
   height="62"
   inkscape:version="1.4 (unknown)"
   xmlns:inkscape="http://www.inkscape.org/namespaces/inkscape"
   xmlns:sodipodi="http://sodipodi.sourceforge.net/DTD/sodipodi-0.dtd"
   xmlns:xlink="http://www.w3.org/1999/xlink"
   xmlns="http://www.w3.org/2000/svg"
   xmlns:svg="http://www.w3.org/2000/svg">
  <defs
     id="defs3" />
  <sodipodi:namedview
     id="namedview3"
     pagecolor="#ffffff"
     bordercolor="#000000"
     borderopacity="0.25"
     inkscape:showpageshadow="2"
     inkscape:pageopacity="0.0"
     inkscape:pagecheckerboard="0"
     inkscape:deskcolor="#d1d1d1"
     inkscape:zoom="8.0729167"
     inkscape:cx="30.162581"
     inkscape:cy="29.790968"
     inkscape:window-width="1920"
     inkscape:window-height="998"
     inkscape:window-x="0"
     inkscape:window-y="0"
     inkscape:window-maximized="1"
     inkscape:current-layer="svg3" />
  <linearGradient
     id="a">
    <stop
       stop-color="#06418e"
       offset="0"
       id="stop1" />
    <stop
       stop-color="#66bdf7"
       offset="1"
       id="stop2" />
  </linearGradient>
  <linearGradient
     id="b"
     x2="1"
     gradientTransform="matrix(4.08892,36.8387,-36.8387,4.08892,-529.312,67.9153)"
     gradientUnits="userSpaceOnUse"
     xlink:href="#a" />
  <linearGradient
     id="c"
     x2="1"
     gradientTransform="matrix(-1.30095,-40.647,40.647,-1.30095,436.651,31.5725)"
     gradientUnits="userSpaceOnUse"
     xlink:href="#a" />
  <g
     fill-rule="nonzero"
     id="g3"
     transform="matrix(1.2670543,0,0,1.2659372,0.46842606,0.43901005)">
    <path
       d="m 16.564,11.628 c 2.045,-2.414 4.689,-3.873 7.573,-3.873 6.49,0 11.751,7.359 11.751,16.431 0,9.077 -5.261,16.433 -11.751,16.433 -2.889,0 -5.528,-1.456 -7.573,-3.868 3.198,4.152 7.95,6.787 13.26,6.787 3.265,0 6.322,-0.997 8.935,-2.729 4.565,-4.08 7.436,-10.012 7.436,-16.618 0,-6.601 -2.871,-12.536 -7.436,-16.618 -2.613,-1.735 -5.67,-2.729 -8.935,-2.729 -5.31,0 -10.062,2.636 -13.26,6.788"
       fill="url(#b)"
       id="path2"
       style="fill:url(#b)" />
    <path
       d="m 24.117,2.023 c -12.215,0 -22.119,9.903 -22.119,22.118 0,11.862 9.341,21.542 21.067,22.093 0.352,0.017 0.7,0.025 1.052,0.025 5.665,0 10.829,-2.13 14.741,-5.629 -2.592,1.722 -5.625,2.707 -8.865,2.707 -5.268,0 -9.983,-2.614 -13.156,-6.734 C 14.389,33.715 12.809,29.45 12.699,24.66 v -1.043 c 0.11,-4.788 1.69,-9.059 4.138,-11.941 3.173,-4.121 7.891,-6.735 13.156,-6.735 3.24,0 6.273,0.991 8.865,2.711 C 34.967,4.17 29.831,2.045 24.201,2.023 Z"
       fill="url(#c)"
       id="path3"
       style="fill:url(#c)" />
  </g>
</svg>
