<?xml version="1.0" encoding="UTF-8" standalone="no"?>
<svg
   width="62"
   height="62"
   x="0"
   y="0"
   version="1.1"
   id="svg4"
   sodipodi:docname="opera-beta.svg"
   inkscape:version="1.4 (e7c3feb100, 2024-10-09)"
   xmlns:inkscape="http://www.inkscape.org/namespaces/inkscape"
   xmlns:sodipodi="http://sodipodi.sourceforge.net/DTD/sodipodi-0.dtd"
   xmlns="http://www.w3.org/2000/svg"
   xmlns:svg="http://www.w3.org/2000/svg">
  <defs
     id="defs4" />
  <sodipodi:namedview
     id="namedview4"
     pagecolor="#ffffff"
     bordercolor="#000000"
     borderopacity="0.25"
     inkscape:showpageshadow="2"
     inkscape:pageopacity="0.0"
     inkscape:pagecheckerboard="0"
     inkscape:deskcolor="#d1d1d1"
     inkscape:zoom="11.6875"
     inkscape:cx="31.957219"
     inkscape:cy="32"
     inkscape:window-width="1920"
     inkscape:window-height="994"
     inkscape:window-x="0"
     inkscape:window-y="0"
     inkscape:window-maximized="1"
     inkscape:current-layer="svg4" />
  <g
     id="g4"
     transform="translate(-0.5,-1)">
    <path
       style="opacity:0.2;stroke-width:0.982303"
       d="m 38.866071,7.929825 a 21.116076,23.57895 0 0 0 -12.750596,4.806743 14.241068,20.63158 0 0 0 -3.606305,3.405977 14.241068,20.63158 0 0 0 -1.001322,1.433384 14.241068,20.63158 0 0 0 -0.03835,0.0614 14.241068,20.63158 0 0 0 -0.845948,1.477517 14.241068,20.63158 0 0 0 -0.115101,0.234101 14.241068,20.63158 0 0 0 -0.675224,1.452575 14.241068,20.63158 0 0 0 -0.12852,0.324289 14.241068,20.63158 0 0 0 -0.533268,1.44298 14.241068,20.63158 0 0 0 -0.153461,0.493153 14.241068,20.63158 0 0 0 -0.395161,1.387329 14.241068,20.63158 0 0 0 -0.134283,0.585253 14.241068,20.63158 0 0 0 -0.280056,1.345121 14.241068,20.63158 0 0 0 -0.113179,0.731091 14.241068,20.63158 0 0 0 -0.16881,1.254933 14.241068,20.63158 0 0 0 -0.0729,0.873082 14.241068,20.63158 0 0 0 -0.07671,1.229983 14.241068,20.63158 0 0 0 -0.02683,1.040024 14.241068,20.63158 0 0 0 0.01347,0.569908 14.241068,20.63158 0 0 1 0.0039,-0.06911 14.241068,20.63158 0 0 1 8.306013,-18.256032 21.116076,23.57895 0 0 1 0.01727,-0.01347 14.241068,20.63158 0 0 1 5.90036,-1.880406 14.241068,20.63158 0 0 1 14.227641,20.061672 14.241068,20.63158 0 0 0 0.01343,-0.412552 A 14.241068,20.63158 0 0 0 31.991073,10.87719 14.241068,20.63158 0 0 0 30.07283,11.090187 21.116076,23.57895 0 0 1 38.866071,8.912281 21.116076,23.57895 0 0 1 51.38264,13.534818 27.5,27.50877 0 0 0 46.813373,9.6970941 21.116076,23.57895 0 0 0 38.866071,7.929825 Z M 4.0211007,31.915572 A 27.5,27.50877 0 0 0 4,32.49123 27.5,27.50877 0 0 0 31.5,60 27.5,27.50877 0 0 0 51.472798,51.376646 27.5,27.50877 0 0 0 59,32.49123 27.5,27.50877 0 0 0 58.97893,32.084428 27.5,27.50877 0 0 1 46.548684,54.489035 a 27.5,27.50877 0 0 1 -1.35812,0.836623 27.5,27.50877 0 0 1 -1.033934,0.566061 27.5,27.50877 0 0 1 -1.390733,0.67544 27.5,27.50877 0 0 1 -1.137521,0.479712 27.5,27.50877 0 0 1 -1.400323,0.514257 27.5,27.50877 0 0 1 -1.200824,0.372256 27.5,27.50877 0 0 1 -1.434846,0.370344 27.5,27.50877 0 0 1 -1.269878,0.257128 27.5,27.50877 0 0 1 -1.406074,0.21491 27.5,27.50877 0 0 1 -1.337019,0.134319 27.5,27.50877 0 0 1 -2.008411,0.105542 27.5,27.50877 0 0 1 -0.07095,0.0019 A 27.5,27.50877 0 0 1 4.0211127,31.91558 Z"
       id="path1" />
    <path
       style="fill:#cccccc;stroke-width:0.982303"
       d="m 31.315731,4.9216283 c -15.187828,0 -26.3943964,11.3944687 -26.3943964,26.5871417 0,15.192673 11.3908364,26.771471 26.5786654,26.771471 6.304099,0 12.112756,-1.384606 16.751149,-4.953397 C 54.787562,48.297721 59,40.395334 59,31.50877 59,23.259695 55.370248,15.858658 49.621253,10.816659 44.782095,6.5726067 38.257116,4.9216283 31.315731,4.9216283 Z m 0.675342,5.9555617 c 7.865131,0 14.24107,9.23708 14.24107,20.63158 0,11.39451 -6.375939,20.63158 -14.24107,20.63158 -7.86513,0 -14.732141,-9.23707 -14.732141,-20.63158 0,-11.3945 6.867011,-20.63158 14.732141,-20.63158 z"
       id="path2" />
    <path
       style="fill:#f23845;stroke-width:0.982303"
       d="M 31.5,4 A 27.5,27.50877 0 0 0 4,31.50877 27.5,27.50877 0 0 0 31.5,59.01754 27.5,27.50877 0 0 0 51.472798,50.394186 21.116076,23.57895 0 0 1 38.866071,55.08772 21.116076,23.57895 0 0 1 26.201799,50.340459 a 14.241068,20.63158 0 0 1 -8.398083,-17.16228 21.116076,23.57895 0 0 1 0,-0.002 A 14.241068,20.63158 0 0 1 17.749999,31.50875 14.241068,20.63158 0 0 1 26.073277,12.7711 21.116076,23.57895 0 0 1 38.866071,7.929825 21.116076,23.57895 0 0 1 51.38264,12.552358 27.5,27.50877 0 0 0 31.5,4 Z"
       id="path3" />
    <path
       style="opacity:0.2;fill:#ffffff;stroke-width:0.982303"
       d="M 31.5,4 A 27.5,27.50877 0 0 0 4,31.50877 27.5,27.50877 0 0 0 4.0211007,31.915572 27.5,27.50877 0 0 1 31.5,4.982456 27.5,27.50877 0 0 1 46.813373,9.6970941 21.116076,23.57895 0 0 1 51.38264,12.552358 27.5,27.50877 0 0 0 31.5,4 Z M 17.767267,32.023028 a 14.241068,20.63158 0 0 0 -0.01727,0.468202 14.241068,20.63158 0 0 0 0.05367,1.667486 21.116076,23.57895 0 0 1 0,0.002 14.241068,20.63158 0 0 0 8.398083,17.16228 21.116076,23.57895 0 0 0 12.66427,4.747212 21.116076,23.57895 0 0 0 8.187087,-1.891999 27.5,27.50877 0 0 0 4.41964,-3.783993 21.116076,23.57895 0 0 1 -12.606727,4.693534 21.116076,23.57895 0 0 1 -12.664272,-4.747261 14.241068,20.63158 0 0 1 -8.398083,-17.16228 21.116076,23.57895 0 0 1 0,-0.002 14.241068,20.63158 0 0 1 -0.03648,-1.153238 z"
       id="path4" />
  </g>
</svg>
