<?xml version="1.0" encoding="UTF-8" standalone="no"?>
<svg
   clip-rule="evenodd"
   fill-rule="evenodd"
   stroke-linejoin="round"
   stroke-miterlimit="2"
   viewBox="0 0 62 62"
   version="1.1"
   id="svg10"
   sodipodi:docname="org.gnome.Decibels.svg"
   width="62"
   height="62"
   inkscape:version="1.4 (unknown)"
   xmlns:inkscape="http://www.inkscape.org/namespaces/inkscape"
   xmlns:sodipodi="http://sodipodi.sourceforge.net/DTD/sodipodi-0.dtd"
   xmlns:xlink="http://www.w3.org/1999/xlink"
   xmlns="http://www.w3.org/2000/svg"
   xmlns:svg="http://www.w3.org/2000/svg">
  <defs
     id="defs10">
    <linearGradient
       id="linearGradient10"
       inkscape:collect="always">
      <stop
         style="stop-color:#cccccc;stop-opacity:1"
         offset="0"
         id="stop10" />
      <stop
         style="stop-color:#f2f2f2;stop-opacity:1;"
         offset="1"
         id="stop11" />
    </linearGradient>
    <linearGradient
       inkscape:collect="always"
       xlink:href="#linearGradient10"
       id="linearGradient11"
       x1="47.555122"
       y1="116.60753"
       x2="46.494781"
       y2="4.9829478"
       gradientUnits="userSpaceOnUse" />
  </defs>
  <sodipodi:namedview
     id="namedview10"
     pagecolor="#ffffff"
     bordercolor="#000000"
     borderopacity="0.25"
     inkscape:showpageshadow="2"
     inkscape:pageopacity="0.0"
     inkscape:pagecheckerboard="0"
     inkscape:deskcolor="#d1d1d1"
     inkscape:zoom="10"
     inkscape:cx="25.45"
     inkscape:cy="31.05"
     inkscape:window-width="1920"
     inkscape:window-height="996"
     inkscape:window-x="0"
     inkscape:window-y="0"
     inkscape:window-maximized="1"
     inkscape:current-layer="svg10" />
  <linearGradient
     id="a"
     x1="16"
     x2="112"
     y1="72"
     y2="72"
     gradientUnits="userSpaceOnUse"
     gradientTransform="matrix(1.05399,0,0,1.05399,-3.45518,-3.45265)">
    <stop
       stop-color="#ed333b"
       offset="0"
       id="stop1" />
    <stop
       stop-color="#faa39a"
       offset=".12"
       id="stop2" />
    <stop
       stop-color="#f66151"
       offset=".27"
       id="stop3" />
    <stop
       stop-color="#7875ea"
       offset=".78"
       id="stop4" />
    <stop
       stop-color="#9592dc"
       offset=".94"
       id="stop5" />
    <stop
       stop-color="#4a46c3"
       offset="1"
       id="stop6" />
  </linearGradient>
  <linearGradient
     id="b"
     x1="32"
     x2="96"
     y1="77"
     y2="77"
     gradientUnits="userSpaceOnUse"
     gradientTransform="matrix(1.05399,0,0,1.05399,-11.8871,-20.3165)">
    <stop
       stop-color="#ed333b"
       offset="0"
       id="stop7" />
    <stop
       stop-color="#5d5ae3"
       offset="1"
       id="stop8" />
  </linearGradient>
  <g
     id="g10"
     transform="matrix(0.47439195,0,0,0.47483896,0.64027912,0.6339024)">
    <path
       d="m 30.667746,11.311642 c -4.537427,-0.107507 -8.930457,1.622091 -12.178854,4.792492 -3.248397,3.173564 -5.080232,7.521273 -5.080232,12.062916 v 17.893588 c 0,7.015358 0.0084,14.034931 0,21.050289 v 17.379241 c 0.0042,7.188211 0.0084,14.376423 0,21.564632 -0.03267,1.70957 0.242418,3.38436 0.749387,4.978 0.0084,0.0169 0.01265,0.0285 0.01686,0.0453 0.143342,0.44478 0.300387,0.88535 0.484835,1.3217 0.157045,0.37417 0.325683,0.74517 0.506969,1.11196 0.02003,0.0411 0.04111,0.078 0.06219,0.1191 0.07799,0.17286 0.160206,0.3415 0.246633,0.51435 0.539643,0.98443 1.173091,1.9151 1.902452,2.77937 1.168875,1.37967 2.55171,2.5612 4.100021,3.50346 0.407895,0.25085 0.827383,0.49011 1.256357,0.70829 1.827618,0.9391 3.832307,1.53144 5.924477,1.6927 0.06113,0.003 0.127533,0.0158 0.19288,0.02 0.259282,0.0211 0.519618,0.0327 0.778899,0.0411 0.374167,0.0211 0.749387,0.0327 1.123553,0.0253 0.02846,-0.004 0.05375,-0.004 0.08221,-0.008 0.473241,-0.0169 0.947537,-0.0495 1.416562,-0.11172 2.272403,-0.26772 4.46681,-0.99181 6.451473,-2.13223 l 0.280361,-0.16126 c 0.6208,-0.33306 1.234223,-0.68298 1.827619,-1.05715 h 0.0042 L 72.4321,101.18853 106.15978,81.715012 c 5.52502,-3.191482 8.77341,-9.226629 8.39925,-15.600106 -0.0991,-2.140654 -0.60499,-4.261282 -1.57677,-6.224865 -0.7125,-1.622091 -1.72538,-3.030221 -2.92377,-4.278145 -0.0538,-0.05375 -0.10645,-0.106453 -0.15599,-0.160207 -0.27615,-0.276145 -0.55229,-0.548075 -0.84003,-0.807356 -0.23926,-0.21396 -0.48167,-0.419488 -0.72831,-0.617638 -0.18128,-0.147559 -0.36679,-0.291956 -0.55229,-0.436352 -0.16021,-0.119101 -0.32147,-0.238202 -0.48589,-0.354141 -1.03291,-0.745171 -2.12379,-1.412346 -3.24418,-2.004689 -0.0864,-0.03267 -0.17285,-0.06218 -0.25928,-0.09486 L 38.70442,13.564019 c -2.445257,-1.412347 -5.207765,-2.18703 -8.036674,-2.252377 z"
       id="path8"
       style="fill:url(#a);stroke-width:1.05399" />
    <path
       d="M 30.671962,4.9877019 C 21.202916,4.76531 13.40866,12.374064 13.40866,21.84311 v 44.160073 c 0.0042,0.01265 0.0084,0.02108 0.01686,0.03373 -0.0253,11.231317 -0.0042,22.462635 -0.01686,33.693952 -0.155991,8.489885 6.958442,16.263065 15.438846,16.794275 3.376983,0.37522 6.645406,-0.5681 9.621874,-2.07952 0.07905,-0.0369 0.157045,-0.0654 0.23504,-0.10646 l 0.280361,-0.16126 c 0.6208,-0.33306 1.235277,-0.68298 1.827619,-1.05399 0,-0.003 0,-0.003 0.0042,-0.003 l 65.34318,-37.787808 c 7.42747,-4.105291 10.60209,-14.155085 6.82248,-21.767001 -1.7296,-3.945085 -5.20461,-6.694944 -8.93046,-8.658528 -0.0864,-0.03267 -0.17285,-0.06218 -0.25928,-0.09064 L 38.70442,7.2400785 C 36.259163,5.8277319 33.496655,5.0530493 30.671962,4.9877019 Z"
       id="path9"
       style="stroke-width:1.05399;fill:url(#linearGradient11)" />
    <path
       d="m 89.29594,56.62477 c 2.334588,0 4.21596,1.881372 4.21596,4.21596 0,2.334588 -1.881372,4.21596 -4.21596,4.21596 -2.334588,0 -4.21596,-1.881372 -4.21596,-4.21596 0,-2.334588 1.881372,-4.21596 4.21596,-4.21596 z m -63.2394,0 c 2.334588,0 4.21596,1.881372 4.21596,4.21596 0,2.334588 -1.881372,4.21596 -4.21596,4.21596 -2.334588,0 -4.21596,-1.881372 -4.21596,-4.21596 0,-2.334588 1.881372,-4.21596 4.21596,-4.21596 z m 50.59152,0 c 2.334588,0 4.21596,1.881372 4.21596,4.21596 0,2.334588 -1.881372,4.21596 -4.21596,4.21596 -2.334588,0 -4.21596,-1.881372 -4.21596,-4.21596 0,-2.334588 1.881372,-4.21596 4.21596,-4.21596 z M 64.00018,47.13886 c 2.334588,0 4.21596,1.881372 4.21596,4.21596 v 18.97182 c 0,2.334588 -1.881372,4.21596 -4.21596,4.21596 -2.334588,0 -4.21596,-1.881372 -4.21596,-4.21596 V 51.35482 c 0,-2.334588 1.881372,-4.21596 4.21596,-4.21596 z M 51.3523,34.49098 c 2.334588,0 4.21596,1.881372 4.21596,4.21596 v 44.26758 c 0,2.334588 -1.881372,4.21596 -4.21596,4.21596 -2.334588,0 -4.21596,-1.881372 -4.21596,-4.21596 V 38.70694 c 0,-2.334588 1.881372,-4.21596 4.21596,-4.21596 z M 38.70442,53.4628 c 2.334588,0 4.21596,1.881372 4.21596,4.21596 v 6.32394 c 0,2.334588 -1.881372,4.21596 -4.21596,4.21596 -2.334588,0 -4.21596,-1.881372 -4.21596,-4.21596 v -6.32394 c 0,-2.334588 1.881372,-4.21596 4.21596,-4.21596 z"
       fill-rule="nonzero"
       id="path10"
       style="fill:url(#b);stroke-width:1.05399" />
  </g>
</svg>
