<?xml version="1.0" encoding="UTF-8" standalone="no"?>
<svg
   clip-rule="evenodd"
   fill-rule="evenodd"
   stroke-linejoin="round"
   stroke-miterlimit="2"
   viewBox="0 0 62 62"
   version="1.1"
   id="svg5"
   sodipodi:docname="kid3.svg"
   width="62"
   height="62"
   inkscape:version="1.4 (unknown)"
   xmlns:inkscape="http://www.inkscape.org/namespaces/inkscape"
   xmlns:sodipodi="http://sodipodi.sourceforge.net/DTD/sodipodi-0.dtd"
   xmlns:xlink="http://www.w3.org/1999/xlink"
   xmlns="http://www.w3.org/2000/svg"
   xmlns:svg="http://www.w3.org/2000/svg">
  <defs
     id="defs5">
    <linearGradient
       id="linearGradient6"
       inkscape:collect="always">
      <stop
         style="stop-color:#c6afe9;stop-opacity:1"
         offset="0"
         id="stop6" />
      <stop
         style="stop-color:#d7e5f2;stop-opacity:1;"
         offset="1"
         id="stop7" />
    </linearGradient>
    <linearGradient
       inkscape:collect="always"
       xlink:href="#linearGradient6"
       id="linearGradient7"
       x1="23.999998"
       y1="45.66811"
       x2="23.999998"
       y2="2.3318882"
       gradientUnits="userSpaceOnUse" />
  </defs>
  <sodipodi:namedview
     id="namedview5"
     pagecolor="#ffffff"
     bordercolor="#000000"
     borderopacity="0.25"
     inkscape:showpageshadow="2"
     inkscape:pageopacity="0.0"
     inkscape:pagecheckerboard="0"
     inkscape:deskcolor="#d1d1d1"
     inkscape:zoom="9.4280904"
     inkscape:cx="33.304729"
     inkscape:cy="31.872838"
     inkscape:window-width="1920"
     inkscape:window-height="998"
     inkscape:window-x="0"
     inkscape:window-y="0"
     inkscape:window-maximized="1"
     inkscape:current-layer="svg5" />
  <linearGradient
     id="a"
     x2="1"
     gradientTransform="matrix(-1.762974,-42.311356,42.311356,-1.762974,110.38546,41.629838)"
     gradientUnits="userSpaceOnUse">
    <stop
       stop-color="#a8c6e2"
       offset="0"
       id="stop1" />
    <stop
       stop-color="#eefaff"
       offset="1"
       id="stop2" />
  </linearGradient>
  <g
     id="g6"
     transform="matrix(1.2387699,0,0,1.2405244,0.11132623,1.5072357)">
    <path
       d="M 39.440208,45.668108 H 8.5597883 c -3.4378008,0 -6.2279,-2.7901 -6.2279,-6.2279 V 8.5597883 c 0,-3.4378008 2.7900992,-6.2279 6.2279,-6.2279 H 39.440208 c 3.4378,0 6.2279,2.7900992 6.2279,6.2279 V 39.440208 c 0,3.4378 -2.7901,6.2279 -6.2279,6.2279 z"
       id="path2"
       style="fill:url(#linearGradient7)" />
    <g
       fill-rule="nonzero"
       id="g5">
      <path
         transform="matrix(1.13984,0,0,1.13984,-4.42298,-7.01535)"
         d="m 19.985,13.421 c -0.918,0.259 -1.658,1.292 -1.658,2.295 V 31.622 C 17.396,31.108 16.201,30.9 14.961,31.24 c -2.236,0.613 -3.638,2.596 -3.159,4.427 0.48,1.831 2.683,2.854 4.92,2.241 1.785,-0.489 3.015,-1.874 3.211,-3.334 l 0.052,-15.032 11.6,-3.279 v 11.861 c -0.931,-0.515 -2.127,-0.723 -3.366,-0.383 -2.237,0.614 -3.639,2.596 -3.159,4.428 0.479,1.831 2.683,2.854 4.919,2.241 1.785,-0.49 3.015,-1.874 3.211,-3.334 l 0.052,-19.568 c 0,-0.753 -0.441,-1.316 -1.036,-1.422 z"
         fill="#b5228f"
         id="path3"
         style="fill:#7137c8" />
      <path
         transform="matrix(0.75728,0,0,0.75728,12.2359,13.3968)"
         d="m 46.081,20.436 c -2.5,-4.33 -12.659,-3.038 -14.892,-1.794 l -18.187,10.5 c -0.96,0.554 -1.286,1.772 -0.732,2.732 l 7,12.124 c 0.554,0.959 1.772,1.286 2.732,0.732 l 18.187,-10.5 c 1.414,-0.847 8.392,-9.464 5.892,-13.794 z m -3.464,2 c 0.548,0.95 0.218,2.183 -0.732,2.732 -0.304,0.176 -0.649,0.268 -1,0.268 -0.714,0 -1.375,-0.382 -1.732,-1 -0.176,-0.304 -0.268,-0.649 -0.268,-1 0,-0.714 0.382,-1.375 1,-1.732 0.304,-0.176 0.649,-0.268 1,-0.268 0.713,0 1.375,0.382 1.732,1 z"
         id="path4"
         style="fill:#e5e5e5;fill-opacity:1" />
      <path
         transform="matrix(0.75728,0,0,0.75728,12.2359,13.3968)"
         d="m 15.002,32.606 1,1.732 1.732,-1 4,6.928 1.732,-1 -4,-6.928 1.732,-1 -1,-1.732 z m 6.928,-4 5,8.66 1.732,-1 -2,-3.464 1.732,-1 2,3.464 1.733,-1 -5,-8.66 -3.465,2 z m 6.928,-4 5,8.66 1.732,-1 3.465,-2 -1.5,-2.598 0.866,-0.5 -1,-1.732 -3.465,2 1,1.732 0.866,-0.5 0.5,0.866 -1.732,1 -3,-5.196 3.464,-2 -1,-1.732 z m -4.196,4.732 1.732,-1 1,1.732 -1.732,1 z"
         id="path5"
         style="fill:#2d3d53;fill-opacity:1" />
    </g>
  </g>
</svg>
