<?xml version="1.0" encoding="UTF-8" standalone="no"?>
<svg
   width="62"
   height="62"
   version="1"
   id="svg6"
   sodipodi:docname="org.kde.mcwsremote.svg"
   inkscape:version="1.4 (unknown)"
   xmlns:inkscape="http://www.inkscape.org/namespaces/inkscape"
   xmlns:sodipodi="http://sodipodi.sourceforge.net/DTD/sodipodi-0.dtd"
   xmlns="http://www.w3.org/2000/svg"
   xmlns:svg="http://www.w3.org/2000/svg">
  <defs
     id="defs6" />
  <sodipodi:namedview
     id="namedview6"
     pagecolor="#ffffff"
     bordercolor="#000000"
     borderopacity="0.25"
     inkscape:showpageshadow="2"
     inkscape:pageopacity="0.0"
     inkscape:pagecheckerboard="0"
     inkscape:deskcolor="#d1d1d1"
     inkscape:zoom="8.0729167"
     inkscape:cx="23.969032"
     inkscape:cy="38.090323"
     inkscape:window-width="1920"
     inkscape:window-height="998"
     inkscape:window-x="0"
     inkscape:window-y="0"
     inkscape:window-maximized="1"
     inkscape:current-layer="svg6" />
  <g
     id="g6"
     transform="matrix(1.375,0,0,1.3658537,-2,-2.4634148)">
    <rect
       style="fill:#e4e4e4"
       width="40"
       height="40"
       x="4"
       y="4"
       rx="20"
       ry="20"
       id="rect1" />
    <path
       style="opacity:0.2"
       d="M 10.216797,9.5097656 C 9.9748815,9.7398686 9.7398686,9.9748815 9.5097656,10.216797 L 23.292969,24 9.5097656,37.783203 c 0.230103,0.241915 0.4651159,0.476928 0.7070314,0.707031 L 24,24.707031 37.783203,38.490234 c 0.241915,-0.230103 0.476928,-0.465116 0.707031,-0.707031 L 24.707031,24 38.490234,10.216797 C 38.260131,9.9748815 38.025118,9.7398686 37.783203,9.5097656 L 24,23.292969 Z"
       id="path1"
       sodipodi:nodetypes="ccccccccccccc" />
    <path
       style="opacity:0.2;fill:#ffffff"
       d="M 24,4 C 12.921,4 4.002,12.92 4.002,24 c 0,0.16772 -0.004,0.33329 0,0.5 C 4.2662,13.654 13.089,5 24,5 c 10.911,0 19.734,8.6536 19.998,19.5 0.004,-0.16671 0,-0.33228 0,-0.5 C 43.998,12.92 35.079,4 24,4 Z"
       id="path2"
       sodipodi:nodetypes="sscscss" />
    <path
       style="opacity:0.2"
       d="M 4.0117,24.5 C 4.0076,24.667 4,24.832 4,25 4,36.08 12.92,45 24,45 35.08,45 44,36.08 44,25 44,24.832 43.992,24.667 43.988,24.5 43.724,35.346 34.912,44 24,44 13.088,44 4.276,35.346 4.012,24.5 Z"
       id="path3" />
    <path
       style="opacity:1;fill:#2d3d53;fill-opacity:1"
       d="M 22,6 C 21.446,6 21,6.3825647 21,6.8574219 V 11.142578 C 21,11.617435 21.446,12 22,12 c 0.554,0 1,-0.382565 1,-0.857422 V 6.8574219 C 23,6.3825647 22.554,6 22,6 Z m 4,0 C 25.446,6 25,6.3825647 25,6.8574219 V 11.142578 C 25,11.617435 25.446,12 26,12 c 0.554,0 1,-0.382565 1,-0.857422 V 6.8574219 C 27,6.3825647 26.554,6 26,6 Z M 9.4941406,21 c -0.08249,0.0031 -0.1630761,0.03403 -0.234375,0.08984 L 7.7519531,22.257808 6.2460938,23.42773 c -0.3279634,0.255208 -0.3279632,0.891277 0,1.146485 l 1.5058593,1.169922 1.5078125,1.167968 C 9.588803,27.167884 10.000469,26.848533 10,26.337891 v -0.402344 l 1.259766,0.976562 C 11.588804,27.167884 12.000469,26.848535 12,26.337891 V 21.662109 C 11.999932,21.289634 11.771348,20.990443 11.494141,21 c -0.08249,0.0031 -0.163076,0.03403 -0.234375,0.08984 L 10,22.066406 V 21.662109 C 9.9999327,21.289634 9.7713473,20.990443 9.4941406,21 Z M 36.505859,21 C 36.228652,20.990443 36.000068,21.289634 36,21.662109 v 4.675782 c -4.69e-4,0.510648 0.411196,0.829993 0.740234,0.574218 L 38,25.935547 v 0.402344 c -4.69e-4,0.510644 0.411196,0.829997 0.740234,0.574218 l 1.507813,-1.167968 1.505859,-1.169922 c 0.327963,-0.255208 0.327963,-0.891277 0,-1.146485 L 40.248047,22.257812 38.740234,21.089844 C 38.668935,21.034034 38.588349,21.0031 38.505859,21 38.228652,20.990443 38.000068,21.289638 38,21.662109 v 0.404297 L 36.740234,21.089844 C 36.668935,21.034034 36.588349,21.0031 36.505859,21 Z M 22,36 c -0.554,0 -1,0.382565 -1,0.857422 v 4.285156 C 21,41.617435 21.446,42 22,42 h 4 c 0.554,0 1,-0.382565 1,-0.857422 V 36.857422 C 27,36.382565 26.554,36 26,36 Z"
       id="path4"
       sodipodi:nodetypes="ssssssssssssssccccccccccccccccccccccccccccccccccsssssssss" />
    <circle
       style="fill:#8d5fd3"
       cx="24"
       cy="24"
       r="10"
       id="circle4" />
    <path
       style="opacity:0.2"
       d="m 21.185177,20.000314 c -0.650703,-0.01514 -1.186135,0.506819 -1.185176,1.15534 v 3.844625 3.846127 c 2.78e-4,0.888065 0.96509,1.442993 1.737051,0.999093 l 3.342918,-1.921561 3.34141,-1.924567 c 0.771494,-0.444273 0.771494,-1.55391 0,-1.998183 l -3.342918,-1.923064 -3.34141,-1.921561 c -0.100509,-0.05848 -0.209292,-0.101534 -0.322682,-0.127704 -0.07525,-0.0171 -0.152031,-0.02667 -0.229193,-0.02855 z"
       id="path5"
       sodipodi:nodetypes="sccccccccccss" />
    <path
       style="fill:#ffffff"
       d="m 21.185177,19.000314 c -0.650703,-0.01514 -1.186135,0.506819 -1.185176,1.15534 v 3.844625 3.846127 c 2.78e-4,0.888065 0.96509,1.442993 1.737051,0.999093 l 3.342918,-1.921561 3.34141,-1.924567 c 0.771494,-0.444273 0.771494,-1.55391 0,-1.998183 l -3.342918,-1.923064 -3.34141,-1.921561 c -0.100509,-0.05848 -0.209292,-0.101534 -0.322682,-0.127704 -0.07525,-0.0171 -0.152031,-0.02667 -0.229193,-0.02855 z"
       id="path6"
       sodipodi:nodetypes="sccccccccccss" />
  </g>
</svg>
