<?xml version="1.0" encoding="UTF-8" standalone="no"?>
<svg
   clip-rule="evenodd"
   fill-rule="evenodd"
   stroke-linejoin="round"
   stroke-miterlimit="2"
   viewBox="0 0 62 62"
   version="1.1"
   id="svg13"
   sodipodi:docname="stellarium.svg"
   width="62"
   height="62"
   inkscape:version="1.4 (e7c3feb100, 2024-10-09)"
   xmlns:inkscape="http://www.inkscape.org/namespaces/inkscape"
   xmlns:sodipodi="http://sodipodi.sourceforge.net/DTD/sodipodi-0.dtd"
   xmlns:xlink="http://www.w3.org/1999/xlink"
   xmlns="http://www.w3.org/2000/svg"
   xmlns:svg="http://www.w3.org/2000/svg">
  <defs
     id="defs13">
    <linearGradient
       id="linearGradient13"
       inkscape:collect="always">
      <stop
         style="stop-color:#fea75f;stop-opacity:1"
         offset="0"
         id="stop13" />
      <stop
         style="stop-color:#ffdf7e;stop-opacity:1;"
         offset="1"
         id="stop14" />
    </linearGradient>
    <linearGradient
       inkscape:collect="always"
       xlink:href="#linearGradient13"
       id="linearGradient14"
       x1="31.135822"
       y1="21.899"
       x2="40.271492"
       y2="11.054826"
       gradientUnits="userSpaceOnUse" />
  </defs>
  <sodipodi:namedview
     id="namedview13"
     pagecolor="#ffffff"
     bordercolor="#000000"
     borderopacity="0.25"
     inkscape:showpageshadow="2"
     inkscape:pageopacity="0.0"
     inkscape:pagecheckerboard="0"
     inkscape:deskcolor="#d1d1d1"
     inkscape:zoom="7.8333333"
     inkscape:cx="24.510638"
     inkscape:cy="24.765957"
     inkscape:window-width="1920"
     inkscape:window-height="998"
     inkscape:window-x="0"
     inkscape:window-y="0"
     inkscape:window-maximized="1"
     inkscape:current-layer="svg13" />
  <linearGradient
     id="a"
     x2="1"
     gradientTransform="matrix(0,-56.040477,56.040477,0,521.77191,58.371701)"
     gradientUnits="userSpaceOnUse">
    <stop
       stop-color="#fdb4a6"
       offset="0"
       id="stop1" />
    <stop
       stop-color="#222359"
       offset="1"
       id="stop2" />
  </linearGradient>
  <linearGradient
     id="b"
     x2="1"
     gradientTransform="matrix(-2.8385,-7.52729,7.52729,-2.8385,1507.04,-521.003)"
     gradientUnits="userSpaceOnUse">
    <stop
       stop-color="#ffb6a8"
       offset="0"
       id="stop3" />
    <stop
       stop-color="#e08d86"
       stop-opacity=".9"
       offset=".23"
       id="stop4" />
    <stop
       stop-color="#dd7a74"
       stop-opacity=".86"
       offset=".43"
       id="stop5" />
    <stop
       stop-color="#bd717f"
       stop-opacity=".68"
       offset=".75"
       id="stop6" />
    <stop
       stop-color="#8d71bb"
       stop-opacity="0"
       offset="1"
       id="stop7" />
  </linearGradient>
  <g
     id="g13">
    <path
       d="M 58.370794,10.385572 C 58.370794,5.9398142 54.76298,2.332 50.317221,2.332 H 10.385572 C 5.9398142,2.332 2.332,5.9398142 2.332,10.385572 V 32.54712 c 0,4.445758 4.1289429,19.749873 8.574701,19.749873 h 39.261811 c 4.445758,0 8.202282,-2.701334 8.202282,-7.147092 z"
       fill="url(#a)"
       id="path7"
       style="fill:url(#a);stroke-width:1.29312" />
    <g
       fill-rule="nonzero"
       id="g11"
       transform="matrix(1.2931234,0,0,1.2931234,-0.68356366,-0.68356366)">
      <path
         d="m 17.063,43.846 c 0.104,0 0.178,0.007 0.284,0.007 h 13.31 c 1.635,0 3.094,-0.029 4.397,-0.106 0.651,-0.038 1.264,-0.088 1.839,-0.152 0.542,-0.059 1.081,-0.138 1.617,-0.237 0.503,-0.095 0.972,-0.207 1.409,-0.336 0.436,-0.13 0.841,-0.279 1.215,-0.448 0.36,-0.162 0.706,-0.354 1.034,-0.574 0.311,-0.209 0.601,-0.448 0.867,-0.713 0.265,-0.265 0.504,-0.555 0.714,-0.866 0.22,-0.327 0.412,-0.673 0.574,-1.032 0.17,-0.374 0.318,-0.778 0.448,-1.214 0.131,-0.436 0.242,-0.904 0.337,-1.407 0.095,-0.503 0.173,-1.041 0.237,-1.616 0.067,-0.61 0.118,-1.223 0.153,-1.836 0.077,-1.302 0.106,-2.76 0.106,-4.393 V 16.012 c -15.092,0.477 -29.455,9.754 -33.946,20.219 -0.866,2.005 5.619,5.442 5.405,7.615 z"
         fill="url(#b)"
         id="path8"
         style="fill:url(#b)" />
      <path
         d="m 34.261,6.889 c -4.145,0 -7.505,3.36 -7.505,7.505 0,4.145 3.36,7.505 7.505,7.505 4.145,0 7.506,-3.36 7.506,-7.505 0,-4.145 -3.361,-7.505 -7.506,-7.505 z"
         fill="#474465"
         id="path9" />
      <path
         d="m 39.363,8.891 c 0.735,1.185 1.124,2.552 1.122,3.947 0,4.145 -3.36,7.505 -7.505,7.505 -1.971,0 -3.763,-0.761 -5.102,-2.003 1.323,2.136 3.686,3.559 6.383,3.559 4.145,0 7.506,-3.36 7.506,-7.505 0,-2.175 -0.926,-4.132 -2.404,-5.503 z"
         fill="#e1e1e1"
         id="path10"
         style="fill:url(#linearGradient14)" />
      <path
         d="m 16.407,40.971 c 0,0 24.331,-1.206 24.897,-1.446 2.118,-0.898 4.364,-2.552 4.364,-4.489 0,-1.49 -0.064,-3.544 -0.064,-3.544 -11.94,0.474 -24.918,5.098 -29.197,9.479 z"
         fill="#7e578e"
         id="path11"
         style="fill:#8660cb" />
    </g>
    <path
       d="m 58.370794,44.527908 v 5.789313 c 0,0.640097 -0.09181,1.379763 -0.28966,2.146585 -0.871565,3.156514 -3.616866,5.537154 -6.962176,5.868194 0,0 -33.710433,-0.0065 -41.5894334,-0.0065 C 5.5583428,57.905269 2.4445017,54.594874 2.3345862,50.538346 2.342345,49.093927 2.3410519,34.301889 2.332,32.54712 3.0652009,31.119512 4.1488383,28.949651 4.1488383,28.949651 l 1.2401053,2.547453 0.775874,-1.481919 1.0577749,4.294462 1.2607953,-2.89401 0.5883711,2.118136 0.4978525,-0.421558 0.3931095,3.772041 0.8534611,-0.305177 0.836651,-1.029326 0.522422,1.069413 0.200434,1.47416 0.642682,0.433197 0.828892,-1.366832 1.355194,2.40521 h 1.767699 l 1.079758,-0.822427 1.229761,2.221586 1.959082,-0.858634 1.463815,1.975893 1.691406,0.0052 2.850043,1.692699 c 0,0 6.589757,2.679351 10.540249,2.716852 7.202697,0.07112 11.560523,-2.716852 11.560523,-2.716852 l 1.286657,-2.079343 0.881911,0.506905 0.787512,-1.242692 1.421142,1.60218 0.831479,-3.001339 1.051309,2.255207 1.06812,-0.856048 c 0,0 1.046137,3.029788 1.697871,3.563848 z"
       fill="#292929"
       id="path12"
       style="stroke-width:1.29312;fill:#27313a;fill-opacity:1" />
    <path
       d="m 17.1124,25.957364 c 0.381471,0 0.691821,0.310349 0.691821,0.691821 0,0.381471 -0.31035,0.690528 -0.691821,0.690528 -0.381471,0 -0.691821,-0.309057 -0.691821,-0.690528 0,-0.381472 0.31035,-0.691821 0.691821,-0.691821 z m 2.958666,-4.93068 c 0.614234,0 1.113379,0.499146 1.113379,1.114673 0,0.614233 -0.499145,1.113379 -1.113379,1.113379 -0.615527,0 -1.114672,-0.499146 -1.114672,-1.113379 0,-0.615527 0.499145,-1.114673 1.114672,-1.114673 z m -7.713481,-1.620283 c 0.59613,0 1.078465,0.483628 1.078465,1.079758 0,0.594837 -0.482335,1.078465 -1.078465,1.078465 -0.594836,0 -1.078465,-0.483628 -1.078465,-1.078465 0,-0.59613 0.483629,-1.079758 1.078465,-1.079758 z m 2.465987,-2.041842 c 0.2444,0 0.444834,0.199141 0.444834,0.444834 0,0.245694 -0.200434,0.444835 -0.444834,0.444835 -0.245694,0 -0.444835,-0.199141 -0.444835,-0.444835 0,-0.245693 0.199141,-0.444834 0.444835,-0.444834 z M 9.6678888,12.587761 c 0.9452732,0 1.7133882,0.768116 1.7133882,1.713389 0,0.945273 -0.768115,1.712095 -1.7133882,1.712095 -0.9439801,0 -1.7120953,-0.766822 -1.7120953,-1.712095 0,-0.945273 0.7681152,-1.713389 1.7120953,-1.713389 z m 9.0169492,-2.043135 c 0.594837,0 1.078465,0.483629 1.078465,1.079758 0,0.594837 -0.483628,1.078465 -1.078465,1.078465 -0.59613,0 -1.079758,-0.483628 -1.079758,-1.078465 0,-0.596129 0.483628,-1.079758 1.079758,-1.079758 z m -5.318616,-1.12631 c 0.381471,0 0.691821,0.3103496 0.691821,0.691821 0,0.381471 -0.31035,0.690528 -0.691821,0.690528 -0.381472,0 -0.691821,-0.309057 -0.691821,-0.690528 0,-0.3814714 0.310349,-0.691821 0.691821,-0.691821 z"
       fill="#e1e1e1"
       id="path13"
       style="stroke-width:1.29312" />
  </g>
</svg>
