<?xml version="1.0" encoding="UTF-8" standalone="no"?>
<svg
   height="62"
   width="62"
   version="1.1"
   id="svg1886"
   sodipodi:docname="org.xfce.volman.svg"
   inkscape:version="1.4 (e7c3feb100, 2024-10-09)"
   xmlns:inkscape="http://www.inkscape.org/namespaces/inkscape"
   xmlns:sodipodi="http://sodipodi.sourceforge.net/DTD/sodipodi-0.dtd"
   xmlns:xlink="http://www.w3.org/1999/xlink"
   xmlns="http://www.w3.org/2000/svg"
   xmlns:svg="http://www.w3.org/2000/svg">
  <defs
     id="defs1890">
    <linearGradient
       id="m"
       x1="68.210472"
       x2="148.52051"
       y1="177.75131"
       y2="258.06134"
       gradientUnits="userSpaceOnUse"
       gradientTransform="matrix(0.37626177,0,0,0.37626188,65.040985,-89.103956)">
      <stop
         stop-color="#59f"
         offset="0"
         id="stop3371" />
      <stop
         stop-color="#06f"
         offset="1"
         id="stop3373" />
    </linearGradient>
    <linearGradient
       id="l"
       x1="220.30621"
       x2="54.439178"
       y1="207.9187"
       y2="42.051666"
       gradientTransform="matrix(0.16799417,0,0,0.1635966,87.490625,-33.319276)"
       gradientUnits="userSpaceOnUse"
       xlink:href="#a-3" />
    <linearGradient
       id="a-3">
      <stop
         stop-color="#2a7fff"
         offset="0"
         id="stop3327" />
      <stop
         stop-color="#0cf"
         offset="1"
         id="stop3329" />
    </linearGradient>
    <linearGradient
       id="linearGradient2356">
      <stop
         offset="0"
         id="stop2" />
      <stop
         offset="1"
         stop-opacity="0"
         id="stop4" />
    </linearGradient>
    <linearGradient
       id="linearGradient1035-3"
       x1="99.036003"
       x2="99.036003"
       y1="100.29"
       y2="199.84"
       gradientTransform="matrix(0.20999983,0,0,0.20999978,6.9998805,7.0000017)"
       gradientUnits="userSpaceOnUse">
      <stop
         stop-color="#4bd2f5"
         offset="0"
         id="stop19-6" />
      <stop
         stop-color="#5587ff"
         offset="1"
         id="stop21-7" />
    </linearGradient>
    <linearGradient
       id="linearGradient1058-5"
       x1="-184.75"
       x2="-170.19"
       y1="-8.5412998"
       y2="-15.811"
       gradientTransform="matrix(2.8862422,0,0,2.8862419,540.2177,52.651171)"
       gradientUnits="userSpaceOnUse">
      <stop
         stop-color="#505f64"
         offset="0"
         id="stop2-3" />
      <stop
         stop-color="#647378"
         offset="1"
         id="stop4-5" />
    </linearGradient>
    <filter
       id="filter959-6"
       x="-0.037148848"
       y="-0.14184019"
       width="1.0742977"
       height="1.2836804"
       color-interpolation-filters="sRGB">
      <feGaussianBlur
         stdDeviation="0.051039421"
         id="feGaussianBlur16-2" />
    </filter>
    <filter
       id="filter1255-9"
       x="-0.059940837"
       y="-0.059957325"
       width="1.1198817"
       height="1.1199147"
       color-interpolation-filters="sRGB">
      <feGaussianBlur
         stdDeviation="0.064633745"
         id="feGaussianBlur7-1" />
    </filter>
    <filter
       id="filter1269-2"
       x="-0.060000092"
       y="-0.060000092"
       width="1.1200002"
       height="1.1200002"
       color-interpolation-filters="sRGB">
      <feGaussianBlur
         stdDeviation="0.082435125"
         id="feGaussianBlur10-7" />
    </filter>
    <filter
       id="filter1287-0"
       x="-0.051957909"
       y="-0.071659364"
       width="1.1039158"
       height="1.1433187"
       color-interpolation-filters="sRGB">
      <feGaussianBlur
         stdDeviation="0.07138584"
         id="feGaussianBlur13-9" />
    </filter>
    <linearGradient
       inkscape:collect="always"
       xlink:href="#m"
       id="linearGradient1068"
       gradientUnits="userSpaceOnUse"
       gradientTransform="matrix(0.50168254,0,0,0.50168249,-96.92276,-85.688578)"
       x1="68.210472"
       y1="177.75131"
       x2="148.52051"
       y2="258.06134" />
    <linearGradient
       inkscape:collect="always"
       xlink:href="#a-3"
       id="linearGradient1070"
       gradientUnits="userSpaceOnUse"
       gradientTransform="matrix(0.22399231,0,0,0.21812879,-66.989896,-11.309007)"
       x1="220.30621"
       y1="207.9187"
       x2="54.439178"
       y2="42.051666" />
  </defs>
  <sodipodi:namedview
     id="namedview1888"
     pagecolor="#ffffff"
     bordercolor="#666666"
     borderopacity="1.0"
     inkscape:showpageshadow="2"
     inkscape:pageopacity="0.0"
     inkscape:pagecheckerboard="0"
     inkscape:deskcolor="#d1d1d1"
     showgrid="false"
     inkscape:zoom="9.8333334"
     inkscape:cx="29.949152"
     inkscape:cy="30.813559"
     inkscape:window-width="1920"
     inkscape:window-height="994"
     inkscape:window-x="0"
     inkscape:window-y="0"
     inkscape:window-maximized="1"
     inkscape:current-layer="svg1886" />
  <linearGradient
     id="a">
    <stop
       offset="0"
       id="stop1845" />
    <stop
       offset="1"
       stop-opacity="0"
       id="stop1847" />
  </linearGradient>
  <linearGradient
     id="b"
     gradientUnits="userSpaceOnUse"
     x1="16"
     x2="34.942001"
     xlink:href="#a"
     y1="11"
     y2="29.941999" />
  <linearGradient
     id="c"
     gradientTransform="rotate(45)"
     gradientUnits="userSpaceOnUse"
     x1="31.021"
     x2="43.104"
     xlink:href="#a"
     y1="-9.8959999"
     y2="-9.8959999" />
  <linearGradient
     id="d"
     gradientUnits="userSpaceOnUse"
     x1="23.716"
     x2="26.348"
     xlink:href="#a"
     y1="13.219"
     y2="15.851" />
  <linearGradient
     id="e"
     gradientTransform="matrix(1.0454421,0,0,1.0298842,46.076843,3.856842)"
     gradientUnits="userSpaceOnUse"
     x1="-45.221867"
     x2="0.69172603"
     y1="-4.91011"
     y2="41.697075">
    <stop
       offset="0"
       stop-color="#2bc0ff"
       id="stop1853" />
    <stop
       offset="1"
       stop-color="#1d99f3"
       id="stop1855" />
  </linearGradient>
  <g
     id="g1"
     transform="translate(73.898296,7.7203484)">
    <ellipse
       cx="-42.898296"
       cy="23.279654"
       fill="url(#m)"
       stroke-width="0.0231231"
       id="circle3376-6"
       style="fill:url(#linearGradient1068)"
       rx="28"
       ry="27.999998" />
    <ellipse
       cx="-42.898296"
       cy="22.546688"
       rx="28"
       ry="27.267036"
       fill="url(#l)"
       stroke-width="0.0228185"
       id="ellipse3378-2"
       style="fill:url(#linearGradient1070)" />
    <path
       style="opacity:0.2;stroke-width:1.33333"
       d="m -42.898302,1.5734495 -6.766669,10.7564985 h 3.866668 v 13.446545 h -7.925905 v -3.551105 a 5.8000013,5.7628067 0 0 0 3.092578,-5.093105 5.8000013,5.7628067 0 0 0 -5.799997,-5.762815 5.8000013,5.7628067 0 0 0 -5.800011,5.762815 5.8000013,5.7628067 0 0 0 3.092585,5.093105 v 3.551105 c 0,5.37862 5.414845,5.762806 5.414845,5.762806 h 7.925905 v 3.661785 a 5.8000013,5.7628067 0 0 0 -2.899999,4.982415 5.8000013,5.7628067 0 0 0 5.8,5.76282 5.8000013,5.7628067 0 0 0 5.799997,-5.76282 5.8000013,5.7628067 0 0 0 -2.899997,-4.98429 v -3.65991 h 7.925924 c 0,0 5.414848,-0.384186 5.414848,-5.762806 v -2.881404 h 0.67591 c 1.338822,0 2.416663,-1.070921 2.416663,-2.401169 v -6.723273 c 0,-1.330256 -1.077841,-2.401179 -2.416663,-2.401179 h -6.766679 c -1.338825,0 -2.416661,1.070923 -2.416661,2.401179 v 6.723273 c 0,1.330248 1.077836,2.401169 2.416661,2.401169 h 0.675921 v 2.881404 h -7.925924 V 12.329948 h 3.866677 z"
       id="path2" />
    <path
       style="fill:#ffffff;stroke-width:1.33333"
       d="M -42.898302,0.61298545 -49.664971,11.369468 h 3.866668 v 13.446557 h -7.925905 V 21.26492 a 5.8000013,5.7628067 0 0 0 3.092578,-5.093105 5.8000013,5.7628067 0 0 0 -5.799997,-5.762815 5.8000013,5.7628067 0 0 0 -5.800011,5.762815 5.8000013,5.7628067 0 0 0 3.092585,5.093105 v 3.551105 c 0,5.378618 5.414845,5.76281 5.414845,5.76281 h 7.925905 v 3.661781 a 5.8000013,5.7628067 0 0 0 -2.899999,4.982427 5.8000013,5.7628067 0 0 0 5.8,5.76281 5.8000013,5.7628067 0 0 0 5.799997,-5.76281 5.8000013,5.7628067 0 0 0 -2.899997,-4.984298 v -3.65991 h 7.925924 c 0,0 5.414848,-0.384192 5.414848,-5.76281 v -2.881402 h 0.67591 c 1.338822,0 2.416663,-1.070924 2.416663,-2.401171 v -6.723281 c 0,-1.33024 -1.077841,-2.401171 -2.416663,-2.401171 h -6.766679 c -1.338825,0 -2.416661,1.070931 -2.416661,2.401171 v 6.723281 c 0,1.330247 1.077836,2.401171 2.416661,2.401171 h 0.675921 v 2.881402 h -7.925924 V 11.369468 h 3.866677 z"
       id="path3" />
  </g>
</svg>
