<?xml version="1.0" encoding="UTF-8" standalone="no"?>
<!-- Created with Inkscape (http://www.inkscape.org/) -->

<svg
   width="62"
   height="62"
   id="svg2"
   version="1.1"
   inkscape:version="1.4 (e7c3feb100, 2024-10-09)"
   viewBox="0 0 62 62"
   sodipodi:docname="kxstitch.svg"
   inkscape:export-filename="/home/yurchor/Install/Ukrainization/kde4doc/extragear-graphics/kxstitch-icon/128-apps-kxstitch.png"
   inkscape:export-xdpi="359.8009"
   inkscape:export-ydpi="359.8009"
   xmlns:inkscape="http://www.inkscape.org/namespaces/inkscape"
   xmlns:sodipodi="http://sodipodi.sourceforge.net/DTD/sodipodi-0.dtd"
   xmlns:xlink="http://www.w3.org/1999/xlink"
   xmlns="http://www.w3.org/2000/svg"
   xmlns:svg="http://www.w3.org/2000/svg"
   xmlns:rdf="http://www.w3.org/1999/02/22-rdf-syntax-ns#"
   xmlns:cc="http://creativecommons.org/ns#"
   xmlns:dc="http://purl.org/dc/elements/1.1/">
  <defs
     id="defs4">
    <linearGradient
       inkscape:collect="always"
       id="linearGradient5580">
      <stop
         style="stop-color:#313031;stop-opacity:1;"
         offset="0"
         id="stop5576" />
      <stop
         style="stop-color:#8d8d8d;stop-opacity:1"
         offset="1"
         id="stop5578" />
    </linearGradient>
    <linearGradient
       id="a-3"
       y1="543.79999"
       y2="503.79999"
       x2="0"
       gradientUnits="userSpaceOnUse"
       gradientTransform="matrix(1.0499472,0,0,1.0499996,-1036.978,347.49749)">
      <stop
         stop-color="#c6cdd1"
         id="stop2-6" />
      <stop
         offset="1"
         stop-color="#e0e5e7"
         id="stop4-7" />
    </linearGradient>
    <linearGradient
       id="a-1"
       y1="510.79999"
       y2="527.14001"
       gradientUnits="userSpaceOnUse"
       x2="0">
      <stop
         stop-color="#7cbaf8"
         id="stop2-2" />
      <stop
         offset="1"
         stop-color="#f4fcff"
         id="stop4-70" />
    </linearGradient>
    <linearGradient
       id="c-9"
       y1="503.79999"
       x1="400.57001"
       y2="519.79999"
       x2="416.57001"
       gradientUnits="userSpaceOnUse">
      <stop
         stop-color="#292c2f"
         id="stop12-3" />
      <stop
         offset="1"
         stop-opacity="0"
         id="stop14-6" />
    </linearGradient>
    <linearGradient
       id="b-0"
       y1="542.79999"
       x1="408.57001"
       y2="521.79999"
       x2="387.57001"
       gradientUnits="userSpaceOnUse"
       gradientTransform="translate(-384.57,-499.8)">
      <stop
         stop-color="#197cf1"
         id="stop7-6" />
      <stop
         offset="1"
         stop-color="#20bcfa"
         id="stop9-2" />
    </linearGradient>
    <linearGradient
       id="a-7"
       y1="543.79999"
       y2="503.79999"
       x2="0"
       gradientUnits="userSpaceOnUse"
       gradientTransform="matrix(1.0499472,0,0,1.0499996,-1103.228,341.99748)">
      <stop
         stop-color="#c6cdd1"
         id="stop2-5" />
      <stop
         offset="1"
         stop-color="#e0e5e7"
         id="stop4-3" />
    </linearGradient>
    <linearGradient
       id="linearGradient2257">
      <stop
         id="stop2259"
         offset="0"
         style="stop-color:#b4942a;stop-opacity:1;" />
      <stop
         id="stop2261"
         offset="1"
         style="stop-color:#e4dcc9;stop-opacity:1" />
    </linearGradient>
    <linearGradient
       id="linearGradient2598">
      <stop
         style="stop-color:#252525;stop-opacity:1;"
         offset="0"
         id="stop2600" />
      <stop
         id="stop2606"
         offset="0.5"
         style="stop-color:#252525;stop-opacity:1;" />
      <stop
         style="stop-color:#252525;stop-opacity:1;"
         offset="0.75"
         id="stop2608" />
      <stop
         style="stop-color:#000000;stop-opacity:1;"
         offset="1"
         id="stop2602" />
    </linearGradient>
    <linearGradient
       id="linearGradient3311">
      <stop
         id="stop3313"
         offset="0"
         style="stop-color:#2d2d2d;stop-opacity:1;" />
      <stop
         style="stop-color:#000000;stop-opacity:1;"
         offset="0.5"
         id="stop3319" />
      <stop
         id="stop3315"
         offset="1"
         style="stop-color:#000000;stop-opacity:1;" />
    </linearGradient>
    <linearGradient
       id="linearGradient3303">
      <stop
         id="stop3305"
         offset="0"
         style="stop-color:#ffffff;stop-opacity:0.68345326;" />
      <stop
         id="stop3307"
         offset="1"
         style="stop-color:#ffffff;stop-opacity:0;" />
    </linearGradient>
    <linearGradient
       id="linearGradient3225">
      <stop
         id="stop3227"
         offset="0"
         style="stop-color:#ffffff;stop-opacity:1;" />
      <stop
         id="stop3229"
         offset="1"
         style="stop-color:#aeaeae;stop-opacity:1;" />
    </linearGradient>
    <linearGradient
       id="linearGradient3207">
      <stop
         id="stop3209"
         offset="0"
         style="stop-color:#ffffff;stop-opacity:1;" />
      <stop
         id="stop3211"
         offset="1"
         style="stop-color:#252525;stop-opacity:0;" />
    </linearGradient>
    <linearGradient
       id="linearGradient3251">
      <stop
         style="stop-color:#000000;stop-opacity:1;"
         offset="0"
         id="stop3253" />
      <stop
         id="stop14161"
         offset="0.7087912"
         style="stop-color:#090909;stop-opacity:0.67870039;" />
      <stop
         style="stop-color:#131313;stop-opacity:0;"
         offset="1"
         id="stop3255" />
    </linearGradient>
    <linearGradient
       id="linearGradient3273">
      <stop
         id="stop3275"
         offset="0"
         style="stop-color:#ffffff;stop-opacity:0.55035973;" />
      <stop
         id="stop3277"
         offset="1"
         style="stop-color:#ffffff;stop-opacity:0;" />
    </linearGradient>
    <linearGradient
       id="linearGradient3259">
      <stop
         style="stop-color:#ffffff;stop-opacity:0.55035973;"
         offset="0"
         id="stop3261" />
      <stop
         style="stop-color:#000000;stop-opacity:0;"
         offset="1"
         id="stop3263" />
    </linearGradient>
    <linearGradient
       id="a-3-3"
       y1="543.79999"
       y2="503.79999"
       x2="0"
       gradientUnits="userSpaceOnUse"
       gradientTransform="matrix(1.3999302,0,0,1.4000001,-1157.9698,171.76139)">
      <stop
         stop-color="#c6cdd1"
         id="stop2-6-6" />
      <stop
         offset="1"
         stop-color="#e0e5e7"
         id="stop4-7-7" />
    </linearGradient>
    <linearGradient
       inkscape:collect="always"
       xlink:href="#linearGradient5580"
       id="linearGradient5582-0-5"
       x1="11"
       y1="13"
       x2="10.34375"
       y2="10.96875"
       gradientUnits="userSpaceOnUse" />
  </defs>
  <sodipodi:namedview
     id="base"
     pagecolor="#ffffff"
     bordercolor="#666666"
     borderopacity="1.0"
     inkscape:pageopacity="0.0"
     inkscape:pageshadow="2"
     inkscape:zoom="8"
     inkscape:cx="25.0625"
     inkscape:cy="38.5"
     inkscape:document-units="px"
     inkscape:current-layer="layer1"
     showgrid="false"
     inkscape:window-width="1920"
     inkscape:window-height="994"
     inkscape:window-x="0"
     inkscape:window-y="0"
     inkscape:window-maximized="1"
     fit-margin-top="0"
     fit-margin-left="0"
     fit-margin-right="0"
     fit-margin-bottom="0"
     inkscape:showpageshadow="2"
     inkscape:pagecheckerboard="0"
     inkscape:deskcolor="#d1d1d1">
    <inkscape:grid
       id="grid1"
       units="px"
       originx="0"
       originy="0"
       spacingx="1"
       spacingy="1"
       empcolor="#0099e5"
       empopacity="0.30196078"
       color="#0099e5"
       opacity="0.14901961"
       empspacing="5"
       enabled="true"
       visible="false" />
  </sodipodi:namedview>
  <metadata
     id="metadata7">
    <rdf:RDF>
      <cc:Work
         rdf:about="">
        <dc:format>image/svg+xml</dc:format>
        <dc:type
           rdf:resource="http://purl.org/dc/dcmitype/StillImage" />
      </cc:Work>
    </rdf:RDF>
  </metadata>
  <g
     inkscape:label="Layer 1"
     inkscape:groupmode="layer"
     id="layer1"
     transform="translate(-646.25,-863.98737)">
    <g
       id="g1"
       transform="translate(91.251033,-10.094234)">
      <rect
         width="55.997208"
         x="-613.99902"
         y="877.0816"
         stroke-opacity="0.55"
         rx="27.998604"
         height="56"
         stroke-width="3.91991"
         transform="scale(-1,1)"
         id="rect20-6"
         style="fill:url(#a-3-3)" />
      <path
         fill="#99a1a7"
         d="m 558.01571,904.38157 c -0.005,0.2338 -0.0168,0.4648 -0.0168,0.7 0,15.51201 12.48738,28.00001 27.9986,28.00001 15.51123,0 27.99861,-12.488 27.99861,-28.00001 0,-0.2352 -0.0107,-0.4662 -0.0168,-0.7 -0.36958,15.18581 -12.71136,27.30001 -27.98181,27.30001 -15.27603,0 -27.61223,-12.1142 -27.9818,-27.30001"
         id="path24-2"
         style="stroke-width:3.91991;stroke-opacity:0.55" />
      <path
         style="fill:#cdc6cd;fill-opacity:1;fill-rule:evenodd;stroke:none;stroke-width:1.31285px;stroke-linecap:butt;stroke-linejoin:miter;stroke-opacity:1"
         d="m 576.79597,894.72865 c -1.43057,-3.98527 -2.68868,-6.65447 -3.70349,-9.86326 1.63849,-0.58267 3.07172,-0.9842 5.06288,-1.71162 5.15045,0.0107 3.12923,0.0609 6.25282,-0.009 1.40037,2.34943 2.61212,6.70148 3.54481,9.12074 -2.02131,0.3884 -1.16309,0.25072 -3.80749,0.83152 -6.4183,1.40965 -7.34953,1.63287 -7.34953,1.63287 z"
         id="path6525-5-9"
         inkscape:connector-curvature="0"
         sodipodi:nodetypes="cccccsc" />
      <path
         style="fill:#cdc6cd;fill-opacity:1;fill-rule:evenodd;stroke:none;stroke-width:1.31285px;stroke-linecap:butt;stroke-linejoin:miter;stroke-opacity:1"
         d="m 607.41185,904.44745 c -2.75049,0.14884 -6.84217,1.1708 -10.61107,2.64628 v 1.2744 c 0.89847,2.53976 1.8558,4.42168 3.10276,7.89543 0,0 0.86954,-0.0649 7.28774,-1.47444 0.79895,-0.17549 1.41535,-0.26008 1.92057,-0.31801 l 0.0292,-6.80811 c -0.59484,-1.234 -1.24424,-2.40196 -1.72918,-3.21555 z"
         id="path6611-6-1"
         inkscape:connector-curvature="0"
         sodipodi:nodetypes="cccccccc" />
      <path
         sodipodi:nodetypes="ccccsc"
         inkscape:connector-curvature="0"
         id="path6659-2-2"
         d="m 595.93595,904.32492 c -1.43048,-3.98526 -1.78792,-4.50466 -2.80298,-7.71353 3.8744,-1.5599 6.6438,-2.92149 9.49005,-3.07578 1.40036,2.34957 2.63259,6.53725 4.05782,8.81288 -2.0215,0.38857 -3.3582,0.57913 -6.00258,1.15988 -6.41833,1.40948 -4.74231,0.81655 -4.74231,0.81655 z"
         style="fill:#cdc6cd;fill-opacity:1;fill-rule:evenodd;stroke:none;stroke-width:1.31285px;stroke-linecap:butt;stroke-linejoin:miter;stroke-opacity:1" />
      <path
         sodipodi:nodetypes="ccccsc"
         inkscape:connector-curvature="0"
         id="path6663-9-7"
         d="m 584.44656,918.86562 c -1.43059,-3.98532 -2.48568,-5.81754 -3.50061,-9.02647 3.87441,-0.84186 9.02355,-2.10114 11.86978,-2.25515 0.8055,2.37013 1.93525,6.74252 3.36034,9.01806 -2.0215,0.38848 -3.21677,0.62821 -5.87956,1.11878 -4.75672,0.87639 -5.84996,1.14478 -5.84995,1.14478 z"
         style="fill:#cdc6cd;fill-opacity:1;fill-rule:evenodd;stroke:none;stroke-width:1.31285px;stroke-linecap:butt;stroke-linejoin:miter;stroke-opacity:1" />
      <path
         style="fill:#cdc6cd;fill-opacity:1;fill-rule:evenodd;stroke:none;stroke-width:1.31285px;stroke-linecap:butt;stroke-linejoin:miter;stroke-opacity:1"
         d="m 580.27227,907.66723 c -1.43062,-3.98547 -2.30079,-6.16639 -3.31588,-9.37518 3.87445,-1.55994 9.51599,-2.36772 12.36204,-2.52191 1.40061,2.34949 2.14035,7.13203 3.56542,9.40787 -2.02117,0.38847 -2.4965,0.0877 -5.14093,0.66736 -6.41835,1.40984 -7.47065,1.82186 -7.47065,1.82186 z"
         id="path6661-1-0"
         inkscape:connector-curvature="0"
         sodipodi:nodetypes="ccccsc" />
      <path
         sodipodi:nodetypes="ccccsc"
         inkscape:connector-curvature="0"
         id="path6667-2-9"
         d="m 569.1507,922.08191 c -1.43055,-3.98519 -2.48557,-5.81745 -3.50051,-9.02644 3.87443,-1.55976 9.12611,-2.44966 11.97229,-2.60408 1.40041,2.34977 2.53009,7.21447 3.95523,9.49015 -2.02139,0.38844 -2.49658,0.0877 -5.141,0.66743 -6.41846,1.4096 -7.28601,1.47294 -7.28601,1.47294 z"
         style="fill:#cdc6cd;fill-opacity:1;fill-rule:evenodd;stroke:none;stroke-width:1.31285px;stroke-linecap:butt;stroke-linejoin:miter;stroke-opacity:1" />
      <path
         style="fill:#cdc6cd;fill-opacity:1;fill-rule:evenodd;stroke:none;stroke-width:1.31285px;stroke-linecap:butt;stroke-linejoin:miter;stroke-opacity:1"
         d="m 572.5528,898.41352 c -2.1743,0.1172 -5.1891,0.77661 -8.21871,1.77452 v 8.18007 c 0.23048,0.58792 0.45826,1.1595 0.71041,1.86178 0,0 0.86676,-0.0643 7.28508,-1.47462 2.64442,-0.5809 2.10062,-0.38887 4.12202,-0.77727 -1.09132,-2.36274 -2.49851,-7.21486 -3.8988,-9.56448 z"
         id="path6669-7-3"
         inkscape:connector-curvature="0"
         sodipodi:nodetypes="ccccccc" />
      <path
         style="fill:#838183;fill-opacity:1;fill-rule:evenodd;stroke:none;stroke-width:1.31285px;stroke-linecap:butt;stroke-linejoin:miter;stroke-opacity:1"
         d="m 598.68422,901.01293 c -1.171,-2.82596 -2.13355,-5.57974 -2.13355,-5.57974 0,0 1.96942,-1.24113 6.07237,-1.89758 0.91813,1.58796 1.86522,4.00386 3.23089,6.13389 -2.91467,0.50471 -4.46107,0.85264 -6.72864,1.55892 z"
         id="path6681-0-6"
         inkscape:connector-curvature="0"
         sodipodi:nodetypes="cccccc" />
      <path
         style="fill:#838183;fill-opacity:1;fill-rule:evenodd;stroke:none;stroke-width:1.31285px;stroke-linecap:butt;stroke-linejoin:miter;stroke-opacity:1"
         d="m 581.64129,904.98744 c -1.17069,-2.82635 -1.84622,-6.46211 -1.84622,-6.46211 0,0 2.05138,-0.91287 6.15439,-1.56936 0.91821,1.588 1.86526,4.33216 3.23116,6.46207 -2.91487,0.50477 -4.03054,0.48349 -6.29807,1.18982 z"
         id="path6683-9-0"
         inkscape:connector-curvature="0"
         sodipodi:nodetypes="cccccc" />
      <path
         style="fill:#838183;fill-opacity:1;fill-rule:evenodd;stroke:none;stroke-width:1.31285px;stroke-linecap:butt;stroke-linejoin:miter;stroke-opacity:1"
         d="m 601.3993,913.69035 c -1.17092,-2.826 -2.13352,-5.57966 -2.13352,-5.57966 0,0 2.05151,-0.91289 6.15439,-1.56948 0.91819,1.58803 1.78316,3.67566 3.149,5.8057 -2.9148,0.50462 -4.46115,0.85269 -6.72871,1.55895 z"
         id="path6689-3-6"
         inkscape:connector-curvature="0"
         sodipodi:nodetypes="cccccc" />
      <path
         sodipodi:nodetypes="ccccc"
         inkscape:connector-curvature="0"
         id="path6695-6-2"
         d="m 583.87942,911.19972 c 0,0 2.0515,-0.91285 6.15425,-1.56936 0.91811,1.58803 1.78332,3.67572 3.14902,5.80536 -2.91475,0.50499 -5.50739,1.55052 -7.77507,2.25682 -1.84062,-1.70416 -2.0273,-4.12948 -1.5282,-6.49282 z"
         style="fill:#838183;fill-opacity:1;fill-rule:evenodd;stroke:none;stroke-width:1.31285px;stroke-linecap:butt;stroke-linejoin:miter;stroke-opacity:1" />
      <path
         style="fill:#838183;fill-opacity:1;fill-rule:evenodd;stroke:none;stroke-width:1.31285px;stroke-linecap:butt;stroke-linejoin:miter;stroke-opacity:1"
         d="m 570.93373,919.76314 c -1.17091,-2.82623 -2.23502,-5.85572 -2.23502,-5.85572 0,0 2.85153,-0.5844 6.95445,-1.24083 0.91803,1.58801 0.98317,3.34732 2.34873,5.47711 -2.91463,0.50494 -4.02584,0.63536 -6.29347,1.34164 z"
         id="path6697-0-6"
         inkscape:connector-curvature="0"
         sodipodi:nodetypes="cccccc" />
      <path
         style="fill:#838183;fill-opacity:1;fill-rule:evenodd;stroke:none;stroke-width:1.31285px;stroke-linecap:butt;stroke-linejoin:miter;stroke-opacity:1"
         d="m 578.42361,891.91406 c -1.1712,-2.82611 -2.13368,-5.57991 -2.13368,-5.57991 0,0 2.05162,-0.91283 6.15432,-1.56935 0.91814,1.588 1.33198,3.63471 2.32835,5.84659 -2.91459,0.50476 -3.64041,0.81182 -5.90796,1.51814 z"
         id="path6527-62-1"
         inkscape:connector-curvature="0"
         sodipodi:nodetypes="cccccc" />
      <path
         style="fill:#cdc6cd;fill-opacity:1;fill-rule:evenodd;stroke:none;stroke-width:1.31285px;stroke-linecap:butt;stroke-linejoin:miter;stroke-opacity:1"
         d="m 587.40255,883.15848 c 1.32101,2.62671 2.60673,4.92136 3.39776,8.47498 0,0 2.40792,-0.46731 5.9953,-1.54886 2.59232,-0.78142 2.41487,-0.43726 4.43628,-0.82564 -1.01559,-1.62193 -2.21477,-4.00796 -3.32836,-6.10048 z"
         id="path6655-6-8"
         inkscape:connector-curvature="0" />
      <path
         style="fill:#838183;fill-opacity:1;fill-rule:evenodd;stroke:none;stroke-width:1.31285px;stroke-linecap:butt;stroke-linejoin:miter;stroke-opacity:1"
         d="m 590.21812,883.15848 c -0.37184,0.13373 -0.62054,0.23083 -0.62054,0.23083 0,0 0.96257,2.75372 2.13373,5.57984 l 0.44098,0.21544 c 2.26748,-0.70629 3.81393,-1.05429 6.72852,-1.55905 -1.02708,-1.60214 -1.75502,-3.10742 -2.45132,-4.46706 z"
         id="path6685-1-7"
         inkscape:connector-curvature="0" />
      <path
         style="fill:#cdc6cd;fill-opacity:1;fill-rule:evenodd;stroke:none;stroke-width:0.960791px;stroke-linecap:butt;stroke-linejoin:miter;stroke-opacity:1"
         d="m 567.25515,896.63066 c -1.04696,-2.91639 -1.96749,-4.86961 -2.71034,-7.21788 1.19904,-0.42628 2.24796,-0.72008 3.70513,-1.25258 3.76899,0.0107 2.28991,0.0447 4.5758,-0.009 1.0248,1.71932 1.9114,4.9041 2.59394,6.67431 -1.47904,0.28445 -0.85104,0.18357 -2.78626,0.60865 -4.69685,1.03164 -5.37827,1.19502 -5.37827,1.19502 z"
         id="path6525-3-8-9"
         inkscape:connector-curvature="0"
         sodipodi:nodetypes="cccccsc" />
      <path
         style="fill:#838183;fill-opacity:1;fill-rule:evenodd;stroke:none;stroke-width:0.960791px;stroke-linecap:butt;stroke-linejoin:miter;stroke-opacity:1"
         d="m 568.44611,894.57093 c -0.85692,-2.06804 -1.5613,-4.08318 -1.5613,-4.08318 0,0 1.50132,-0.66817 4.50371,-1.14857 0.67186,1.16217 0.97466,2.65988 1.70396,4.27852 -2.13298,0.36944 -2.66419,0.59408 -4.32359,1.11095 z"
         id="path6527-6-7-2"
         inkscape:connector-curvature="0"
         sodipodi:nodetypes="cccccc" />
      <path
         style="fill:#cdc6cd;fill-opacity:1;fill-rule:evenodd;stroke:none;stroke-width:1.31285px;stroke-linecap:butt;stroke-linejoin:miter;stroke-opacity:1"
         d="m 584.42602,919.65563 c 1.32098,2.62691 2.60674,4.92142 3.39778,8.47518 0,0 2.40796,-0.4675 5.99529,-1.5488 2.59214,-0.7815 2.41504,-0.43735 4.43629,-0.82572 -1.01564,-1.62199 -2.21456,-4.00798 -3.32853,-6.10066 z"
         id="path6655-5-9-0"
         inkscape:connector-curvature="0" />
      <path
         style="fill:#838183;fill-opacity:1;fill-rule:evenodd;stroke:none;stroke-width:1.31285px;stroke-linecap:butt;stroke-linejoin:miter;stroke-opacity:1"
         d="m 587.24174,919.65563 c -0.37214,0.13372 -0.62064,0.23095 -0.62064,0.23095 0,0 0.9626,2.75372 2.13346,5.57996 l 0.44115,0.21539 c 2.26755,-0.70631 3.814,-1.05442 6.72864,-1.5592 -1.02709,-1.60194 -1.75485,-3.10744 -2.45138,-4.4671 z"
         id="path6685-3-2-2"
         inkscape:connector-curvature="0" />
      <g
         transform="matrix(1.2548351,0,0,1.2548351,566.33891,883.86152)"
         id="g6318-7-3">
        <path
           style="fill:url(#linearGradient5582-0-5);fill-opacity:1"
           d="M 29.5,5 C 30.394021,4.7647422 31.587765,4.8368738 31.804966,4.8449792 31.137786,5.4977278 30.645092,5.757392 29.968294,6.060879 22.034188,9.319426 10.203578,13.079821 3.2901786,15.970982 2.5368092,16.082708 2.0736607,15.786458 1.7477678,15.446429 1.1941964,14.707589 1.2455357,14.749346 0.94419643,13.5 0.81361876,11.969952 1.8710547,11.346308 2.625,11.125"
           id="path6456-5-7"
           inkscape:connector-curvature="0"
           sodipodi:nodetypes="ccccccc" />
        <path
           style="fill:#cdc6cd;fill-opacity:1"
           d="M 26.28125,9.28125 26.1875,9.4375 26.234375,9.359375 26.28125,9.28125"
           id="path6514-9-5"
           inkscape:connector-curvature="0"
           sodipodi:nodetypes="cccc" />
        <path
           style="fill:#ff0000;fill-opacity:1"
           d="m 24,10.5 c 0.166667,-0.166667 0.375,-0.291667 0.625,-0.375 C 24.875,10.041667 25.166667,10 25.5,10 H 26 l 0.375,0.125 c 0.25,0.08333 0.458333,0.208333 0.625,0.375 l 0.5,0.5 c 0.166667,0.166667 0.291667,0.375 0.375,0.625 L 28,12 27.875,12.375 c -0.08333,0.25 -0.25,0.416667 -0.5,0.5 l -0.75,0.25 c -1.304687,0.544541 -2.300021,1.037125 -2.929405,1.680309 0.456218,0.208568 1.646446,0.865508 1.929405,1.069691 1.641094,1.285957 1.860131,1.186233 3.75,2.25 0.25,0.08333 0.416667,0.25 0.5,0.5 C 29.95833,18.875 30,19.166667 30,19.5 v 1 c 0,0.333333 -0.166667,0.5 -0.5,0.5 h -0.5 -0.5 -1 -1 c -0.333333,0 -0.625,-0.04167 -0.875,-0.125 -0.25,-0.08333 -0.621745,-0.25 -0.705078,-0.5 -4.132018,-3.325598 -7.26765,-5.009111 -11.294922,-6.5 -0.25,-0.08333 -0.416667,-0.25 -0.5,-0.5 -0.08333,-0.25 -0.08333,-0.5 0,-0.75 0.08333,-0.25 0.208251,-0.439643 0.456055,-0.529297 l 0.771972,-0.279297 C 15.539792,11.379496 16.08139,11.209768 17.18457,10.802734 17.48584,11.054521 17.833333,11.333333 18,11.5 c 0.166667,0.166667 0.375,0.291667 0.625,0.375 l 0.75,0.25 c 0.25,0.08333 1.333333,0.688802 1.542969,0.792969 0.143609,-0.115126 0.319328,-0.09783 0.621089,-0.355469 C 21.84082,12.304866 22.833333,11.666667 23,11.5 L 23.5,11 24,10.5"
           id="path6568-2-9"
           inkscape:connector-curvature="0"
           sodipodi:nodetypes="csscsssscssccccsssscccssccsssccsssczscc" />
        <path
           style="fill:#ff0000;fill-opacity:1"
           d="m 4,12.5 c 0.1666667,-0.166667 0.375,-0.291667 0.625,-0.375 0.25,-0.08333 0.5,-0.08333 0.75,0 0.25,0.08333 0.4166667,0.25 0.5,0.5 0.4984038,0.831301 0.8061239,1.34354 1.125,1.875 0.6035569,1.443751 0.6942543,1.655914 0.90625,2.59375 L 8,18.5 v 1 c 0,1.666667 -0.46875,1.897786 -0.46875,3.564453 0,0.333333 -0.041667,0.625 -0.125,0.875 -0.083333,0.25 -0.2083332,0.458333 -0.375,0.625 l -0.5,0.5 c -0.1666669,0.166667 -0.375,0.291667 -0.625,0.375 -0.25,0.08333 -0.375,-0.04167 -0.375,-0.375 v -1 -1 C 5.53125,21.397786 6,21.166667 6,19.5 v -1 C 6,18.166667 5.9583333,17.875 5.875,17.625 5.2232143,16.104911 4.7706237,15.364989 4.296875,14.470982 L 3.625,13.875 C 3.4278598,13.700128 3.25,13.666667 3.25,13.5 3.25,13.333333 3.3333333,13.166667 3.5,13 L 4,12.5"
           id="path6576-2-2"
           inkscape:connector-curvature="0"
           sodipodi:nodetypes="cssccccccssssscccsccsssc" />
        <path
           style="fill:#c50000;fill-opacity:1"
           d="m 20.917969,12.917969 c 0.172256,-0.134951 0.276209,-0.127605 0.50582,-0.260114 1.147004,0.26424 2.803292,1.654887 2.271806,2.147454"
           id="path6590-8-2"
           inkscape:connector-curvature="0"
           sodipodi:nodetypes="ccc" />
        <path
           style="fill:#ff0000;fill-opacity:1"
           d="m 1.2945303,14.775383 0.4532375,0.671046 0.4409529,0.311872 c 0.272145,0.192479 0.5912998,0.242798 1.170166,0.185058 L 3.1025391,16.996338 3,17.5 C 2.0839014,20.558871 1.7398727,22.45373 1.4350364,25.075322 1.1346541,27.127112 1,29.5 1,31.5 V 32 H 0.5 0 C 0,27.666667 0,23.333333 0,19 l 0.33035714,-0.861607"
           id="path6618-9-8"
           inkscape:connector-curvature="0"
           sodipodi:nodetypes="ccscccccccccc" />
        <path
           style="fill:#c50000;fill-opacity:1"
           d="m 18.047454,15.800193 c 1.093446,0.500667 1.827568,0.915476 2.543648,1.373505 C 20.366083,17.647581 20.25185,17.511146 20,18 17.366457,16.518996 17.97265,16.97516 17.444107,16.495126"
           id="path6624-7-9"
           inkscape:connector-curvature="0"
           sodipodi:nodetypes="cccc" />
        <path
           style="fill:#cdc6cd;fill-opacity:1"
           d="M 30,16.5 V 16 H 30.5 31 V 16.5 17 H 30.5 30 v -0.5"
           id="path6634-3-7"
           inkscape:connector-curvature="0" />
        <path
           style="fill:#ff0000;fill-opacity:1"
           d="M 17.444107,16.495126 C 19.094003,17.543995 18.82255,17.323656 20,18 c -0.166667,0.166667 -0.791667,1.375 -0.875,1.625 L 19,20 l 0.125,0.375 c 0.08333,0.25 0.208333,0.458333 0.375,0.625 0.166667,0.166667 0.291667,0.375 0.375,0.625 0.08333,0.25 0.08333,0.5 0,0.75 -0.08333,0.25 -0.25,0.416667 -0.5,0.5 -0.679863,0.516016 -1.406477,0.643886 -2,1 C 16.778952,24.078379 16.126622,24 15.5,24 14.697933,23.756374 13.958191,23.546004 14,22.5 c 0.299213,-1.375151 1.183089,-3.057117 1.831456,-4.18501"
           id="path6642-6-3"
           inkscape:connector-curvature="0"
           sodipodi:nodetypes="ccscssssccccc" />
      </g>
    </g>
  </g>
</svg>
