<?xml version="1.0" encoding="UTF-8" standalone="no"?>
<svg
   width="62"
   height="62"
   version="1"
   id="svg4"
   sodipodi:docname="warpinator.svg"
   inkscape:version="1.4 (e7c3feb100, 2024-10-09)"
   xmlns:inkscape="http://www.inkscape.org/namespaces/inkscape"
   xmlns:sodipodi="http://sodipodi.sourceforge.net/DTD/sodipodi-0.dtd"
   xmlns:xlink="http://www.w3.org/1999/xlink"
   xmlns="http://www.w3.org/2000/svg"
   xmlns:svg="http://www.w3.org/2000/svg">
  <defs
     id="defs4">
    <linearGradient
       id="linearGradient4"
       inkscape:collect="always">
      <stop
         style="stop-color:#2a2657;stop-opacity:1;"
         offset="0"
         id="stop4" />
      <stop
         style="stop-color:#756ebf;stop-opacity:1;"
         offset="1"
         id="stop5" />
    </linearGradient>
    <linearGradient
       inkscape:collect="always"
       xlink:href="#linearGradient4"
       id="linearGradient5"
       x1="32"
       y1="60"
       x2="32"
       y2="5"
       gradientUnits="userSpaceOnUse" />
  </defs>
  <sodipodi:namedview
     id="namedview4"
     pagecolor="#ffffff"
     bordercolor="#000000"
     borderopacity="0.25"
     inkscape:showpageshadow="2"
     inkscape:pageopacity="0.0"
     inkscape:pagecheckerboard="0"
     inkscape:deskcolor="#d1d1d1"
     inkscape:zoom="12.109375"
     inkscape:cx="32"
     inkscape:cy="34.56"
     inkscape:window-width="1920"
     inkscape:window-height="998"
     inkscape:window-x="0"
     inkscape:window-y="0"
     inkscape:window-maximized="1"
     inkscape:current-layer="svg4" />
  <g
     id="g4"
     transform="matrix(0.98214286,0,0,0.98245614,-0.42857152,-0.92982455)">
    <rect
       style="opacity:0.2"
       width="56"
       height="56"
       x="4"
       y="5"
       rx="16.799999"
       ry="16.799999"
       id="rect1" />
    <rect
       style="fill:url(#linearGradient5)"
       width="56"
       height="56"
       x="4"
       y="4"
       rx="16.799999"
       ry="16.799999"
       id="rect2" />
    <path
       style="opacity:0.2"
       d="m 48,15 a 4,4 0 0 0 -4,4 4,4 0 0 0 0.1875,1.203126 l -6.867188,7.53125 A 8,8 0 0 0 34,27 8,8 0 0 0 26.007812,34.738282 l -9.707031,1.382812 c -0.541192,-0.689934 -1.369225,-1.09315 -2.246093,-1.09375 -1.578175,9.24e-4 -2.856702,1.2812 -2.855469,2.859374 9.23e-4,1.57665 1.278819,2.854546 2.855469,2.85547 1.164995,-6.36e-4 2.21293,-0.708528 2.648437,-1.789064 L 26.429688,37.5625 A 8,8 0 0 0 34,43 8,8 0 0 0 42,35 8,8 0 0 0 40.601562,30.484376 l 6.859376,-7.527344 A 4,4 0 0 0 48,23 4,4 0 0 0 52,19 4,4 0 0 0 48,15 Z m -23,2 a 2.9999998,2.9999998 0 0 0 -3,3 2.9999998,2.9999998 0 0 0 3,3 2.9999998,2.9999998 0 0 0 3,-3 2.9999998,2.9999998 0 0 0 -3,-3 z m 23,0 a 2,2 0 0 1 2,2 2,2 0 0 1 -2,2 2,2 0 0 1 -2,-2 2,2 0 0 1 2,-2 z m -20.28125,5.542968 -1.480468,1.089844 0.992186,1.41797 1.48047,-1.09375 z m 1.480468,2.117188 -1.476562,1.09375 1.300782,1.863282 1.480468,-1.09375 z M 34,31 a 4,4 0 0 1 4,4 4,4 0 0 1 -4,4 4,4 0 0 1 -4,-4 4,4 0 0 1 4,-4 z m -19.945312,5.457032 c 0.789849,-6.18e-4 1.430303,0.639836 1.429687,1.429686 6.18e-4,0.78985 -0.639837,1.430306 -1.429687,1.429688 -0.788325,-0.0015 -1.426399,-0.641362 -1.425782,-1.429688 -6.16e-4,-0.788324 0.637458,-1.428146 1.425782,-1.429686 z m 26.878906,3.75 -1.394532,1.39453 1.800782,1.808594 1.402344,-1.402344 z m 2.45703,2.453124 -1.398436,1.398438 2.089844,2.085938 L 45.476562,44.75 Z M 30.484376,42.875 l -1.246094,3.113282 1.789062,0.625 1.242188,-3.109376 z M 47.5,45 A 3.4999996,3.4999996 0 0 0 44,48.5 3.4999996,3.4999996 0 0 0 47.5,52 3.4999996,3.4999996 0 0 0 51,48.5 3.4999996,3.4999996 0 0 0 47.5,45 Z M 29,47 a 2.9999998,2.9999998 0 0 0 -3,3 2.9999998,2.9999998 0 0 0 3,3 2.9999998,2.9999998 0 0 0 3,-3 2.9999998,2.9999998 0 0 0 -3,-3 z"
       id="path2" />
    <path
       style="fill:#ffffff"
       d="m 48,14 a 4,4 0 0 0 -4,4 4,4 0 0 0 0.1875,1.203125 l -6.867188,7.531251 A 8,8 0 0 0 34,26 8,8 0 0 0 26.007812,33.738282 l -9.707031,1.382812 c -0.541192,-0.689934 -1.369225,-1.09315 -2.246093,-1.09375 -1.578175,9.24e-4 -2.856702,1.2812 -2.855469,2.859374 9.23e-4,1.57665 1.278819,2.854546 2.855469,2.85547 1.164995,-6.36e-4 2.21293,-0.708528 2.648437,-1.789064 L 26.429688,36.5625 A 8,8 0 0 0 34,42 8,8 0 0 0 42,34 8,8 0 0 0 40.601562,29.484376 l 6.859376,-7.527344 A 4,4 0 0 0 48,22 4,4 0 0 0 52,18 4,4 0 0 0 48,14 Z m -23,2 a 2.9999998,2.9999998 0 0 0 -3,3 2.9999998,2.9999998 0 0 0 3,3 2.9999998,2.9999998 0 0 0 3,-3 2.9999998,2.9999998 0 0 0 -3,-3 z m 23,0 a 2,2 0 0 1 2,2 2,2 0 0 1 -2,2 2,2 0 0 1 -2,-2 2,2 0 0 1 2,-2 z m -20.28125,5.542968 -1.480468,1.089844 0.992186,1.41797 1.48047,-1.09375 z m 1.480468,2.117188 -1.476562,1.09375 1.300782,1.863282 1.480468,-1.09375 z M 34,30 a 4,4 0 0 1 4,4 4,4 0 0 1 -4,4 4,4 0 0 1 -4,-4 4,4 0 0 1 4,-4 z m -19.945312,5.457032 c 0.789849,-6.18e-4 1.430303,0.639836 1.429687,1.429686 6.18e-4,0.78985 -0.639837,1.430306 -1.429687,1.429688 -0.788325,-0.0015 -1.426399,-0.641362 -1.425782,-1.429688 -6.16e-4,-0.788324 0.637458,-1.428146 1.425782,-1.429686 z m 26.878906,3.75 -1.394532,1.39453 1.800782,1.808594 1.402344,-1.402344 z m 2.45703,2.453124 -1.398436,1.398438 2.089844,2.085938 L 45.476562,43.75 Z M 30.484376,41.875 l -1.246094,3.113282 1.789062,0.625 1.242188,-3.109376 z M 47.5,44 A 3.4999996,3.4999996 0 0 0 44,47.5 3.4999996,3.4999996 0 0 0 47.5,51 3.4999996,3.4999996 0 0 0 51,47.5 3.4999996,3.4999996 0 0 0 47.5,44 Z M 29,46 a 2.9999998,2.9999998 0 0 0 -3,3 2.9999998,2.9999998 0 0 0 3,3 2.9999998,2.9999998 0 0 0 3,-3 2.9999998,2.9999998 0 0 0 -3,-3 z"
       id="path3" />
    <path
       style="opacity:0.1;fill:#ffffff"
       d="M 20.800781,4 C 11.493581,4 4,11.493581 4,20.800781 v 1 C 4,12.493581 11.493581,5 20.800781,5 H 43.199219 C 52.506419,5 60,12.493581 60,21.800781 v -1 C 60,11.493581 52.506419,4 43.199219,4 Z"
       id="path4" />
  </g>
</svg>
