<?xml version="1.0" encoding="UTF-8" standalone="no"?>
<svg
   clip-rule="evenodd"
   fill-rule="evenodd"
   stroke-linejoin="round"
   stroke-miterlimit="2"
   viewBox="0 0 62 62"
   version="1.1"
   id="svg2"
   sodipodi:docname="org.codeberg.som.Tracks.svg"
   width="62"
   height="62"
   inkscape:version="1.4 (unknown)"
   xmlns:inkscape="http://www.inkscape.org/namespaces/inkscape"
   xmlns:sodipodi="http://sodipodi.sourceforge.net/DTD/sodipodi-0.dtd"
   xmlns="http://www.w3.org/2000/svg"
   xmlns:svg="http://www.w3.org/2000/svg">
  <defs
     id="defs2" />
  <sodipodi:namedview
     id="namedview2"
     pagecolor="#ffffff"
     bordercolor="#000000"
     borderopacity="0.25"
     inkscape:showpageshadow="2"
     inkscape:pageopacity="0.0"
     inkscape:pagecheckerboard="0"
     inkscape:deskcolor="#d1d1d1"
     inkscape:zoom="8.0729167"
     inkscape:cx="50.849032"
     inkscape:cy="37.594839"
     inkscape:window-width="1920"
     inkscape:window-height="998"
     inkscape:window-x="0"
     inkscape:window-y="0"
     inkscape:window-maximized="1"
     inkscape:current-layer="svg2" />
  <g
     fill-rule="nonzero"
     id="g2"
     transform="matrix(1.4,0,0,1.4,-1.9,-2.6)">
    <path
       d="M 8.5,4 C 7.129,4 6,5.129 6,6.5 6,7.871 7.129,9 8.5,9 9.871,9 11,7.871 11,6.5 11,5.129 9.871,4 8.5,4 Z m 0,5 C 7.129,9 6,10.129 6,11.5 6,12.871 7.129,14 8.5,14 9.871,14 11,12.871 11,11.5 11,10.129 9.871,9 8.5,9 Z m 0,5 C 7.129,14 6,15.129 6,16.5 6,17.871 7.129,19 8.5,19 9.871,19 11,17.871 11,16.5 11,15.129 9.871,14 8.5,14 Z m 0,5 C 7.129,19 6,20.129 6,21.5 6,22.871 7.129,24 8.5,24 9.871,24 11,22.871 11,21.5 11,20.129 9.871,19 8.5,19 Z m 0,5 C 7.129,24 6,25.129 6,26.5 6,27.871 7.129,29 8.5,29 9.871,29 11,27.871 11,26.5 11,25.129 9.871,24 8.5,24 Z m 0,5 C 7.129,29 6,30.129 6,31.5 6,32.871 7.129,34 8.5,34 9.871,34 11,32.871 11,31.5 11,30.129 9.871,29 8.5,29 Z m 0,5 C 7.129,34 6,35.129 6,36.5 6,37.871 7.129,39 8.5,39 9.871,39 11,37.871 11,36.5 11,35.129 9.871,34 8.5,34 Z m 0,5 C 7.129,39 6,40.129 6,41.5 6,42.871 7.129,44 8.5,44 9.871,44 11,42.871 11,41.5 11,40.129 9.871,39 8.5,39 Z m 5,-28 C 12.129,11 11,12.129 11,13.5 11,14.871 12.129,16 13.5,16 14.871,16 16,14.871 16,13.5 16,12.129 14.871,11 13.5,11 Z m 0,5 C 12.129,16 11,17.129 11,18.5 11,19.871 12.129,21 13.5,21 14.871,21 16,19.871 16,18.5 16,17.129 14.871,16 13.5,16 Z m 0,5 C 12.129,21 11,22.129 11,23.5 11,24.871 12.129,26 13.5,26 14.871,26 16,24.871 16,23.5 16,22.129 14.871,21 13.5,21 Z m 0,5 C 12.129,26 11,27.129 11,28.5 11,29.871 12.129,31 13.5,31 14.871,31 16,29.871 16,28.5 16,27.129 14.871,26 13.5,26 Z m 20,-10 C 32.129,16 31,17.129 31,18.5 31,19.871 32.129,21 33.5,21 34.871,21 36,19.871 36,18.5 36,17.129 34.871,16 33.5,16 Z m 0,5 C 32.129,21 31,22.129 31,23.5 31,24.871 32.129,26 33.5,26 34.871,26 36,24.871 36,23.5 36,22.129 34.871,21 33.5,21 Z M 36,23.5 C 36,24.871 37.129,26 38.5,26 39.871,26 41,24.871 41,23.5 41,22.129 39.871,21 38.5,21 37.129,21 36,22.129 36,23.5 Z M 33.5,26 C 32.129,26 31,27.129 31,28.5 31,29.871 32.129,31 33.5,31 34.871,31 36,29.871 36,28.5 36,27.129 34.871,26 33.5,26 Z m -20,5.002 c -1.371,0 -2.5,1.128 -2.5,2.5 0,1.371 1.129,2.5 2.5,2.5 1.371,0 2.5,-1.129 2.5,-2.5 0,-1.372 -1.129,-2.5 -2.5,-2.5 z"
       fill="#159532"
       id="path1" />
    <path
       d="M 23.5,4 C 22.129,4 21,5.129 21,6.5 21,7.871 22.129,9 23.5,9 24.871,9 26,7.871 26,6.5 26,5.129 24.871,4 23.5,4 Z m 0,5 C 22.129,9 21,10.129 21,11.5 21,12.871 22.129,14 23.5,14 24.871,14 26,12.871 26,11.5 26,10.129 24.871,9 23.5,9 Z m 0,5 C 22.129,14 21,15.129 21,16.5 21,17.871 22.129,19 23.5,19 24.871,19 26,17.871 26,16.5 26,15.129 24.871,14 23.5,14 Z m 0,5 C 22.129,19 21,20.129 21,21.5 21,22.871 22.129,24 23.5,24 24.871,24 26,22.871 26,21.5 26,20.129 24.871,19 23.5,19 Z m 0,5 C 22.129,24 21,25.129 21,26.5 21,27.871 22.129,29 23.5,29 24.871,29 26,27.871 26,26.5 26,25.129 24.871,24 23.5,24 Z m 0,5 C 22.129,29 21,30.129 21,31.5 21,32.871 22.129,34 23.5,34 24.871,34 26,32.871 26,31.5 26,30.129 24.871,29 23.5,29 Z m 0,5 C 22.129,34 21,35.129 21,36.5 21,37.871 22.129,39 23.5,39 24.871,39 26,37.871 26,36.5 26,35.129 24.871,34 23.5,34 Z m 0,5 C 22.129,39 21,40.129 21,41.5 21,42.871 22.129,44 23.5,44 24.871,44 26,42.871 26,41.5 26,40.129 24.871,39 23.5,39 Z m 5,-28 C 27.129,11 26,12.129 26,13.5 26,14.871 27.129,16 28.5,16 29.871,16 31,14.871 31,13.5 31,12.129 29.871,11 28.5,11 Z m 0,5 C 27.129,16 26,17.129 26,18.5 26,19.871 27.129,21 28.5,21 29.871,21 31,19.871 31,18.5 31,17.129 29.871,16 28.5,16 Z m 0,5 C 27.129,21 26,22.129 26,23.5 26,24.871 27.129,26 28.5,26 29.871,26 31,24.871 31,23.5 31,22.129 29.871,21 28.5,21 Z m 0,5 C 27.129,26 26,27.129 26,28.5 26,29.871 27.129,31 28.5,31 29.871,31 31,29.871 31,28.5 31,27.129 29.871,26 28.5,26 Z M 18.5,16 C 17.129,16 16,17.129 16,18.5 16,19.871 17.129,21 18.5,21 19.871,21 21,19.871 21,18.5 21,17.129 19.871,16 18.5,16 Z m 0,5 C 17.129,21 16,22.129 16,23.5 16,24.871 17.129,26 18.5,26 19.871,26 21,24.871 21,23.5 21,22.129 19.871,21 18.5,21 Z m 0,5 C 17.129,26 16,27.129 16,28.5 16,29.871 17.129,31 18.5,31 19.871,31 21,29.871 21,28.5 21,27.129 19.871,26 18.5,26 Z m 10,5.002 c -1.371,0 -2.5,1.128 -2.5,2.5 0,1.371 1.129,2.5 2.5,2.5 1.371,0 2.5,-1.129 2.5,-2.5 0,-1.372 -1.129,-2.5 -2.5,-2.5 z"
       fill="#fecd38"
       id="path2" />
  </g>
</svg>
