<?xml version="1.0" encoding="UTF-8" standalone="no"?>
<!-- Generator: Adobe Illustrator 12.0.0, SVG Export Plug-In . SVG Version: 6.00 Build 51448)  -->

<svg
   version="1.0"
   id="Livello_1"
   width="62"
   height="62"
   viewBox="0 0 62 62"
   overflow="visible"
   enable-background="new 0 0 126 111.715"
   xml:space="preserve"
   sodipodi:version="0.32"
   inkscape:version="1.4 (e7c3feb100, 2024-10-09)"
   sodipodi:docname="kgeography.svg"
   xmlns:inkscape="http://www.inkscape.org/namespaces/inkscape"
   xmlns:sodipodi="http://sodipodi.sourceforge.net/DTD/sodipodi-0.dtd"
   xmlns:xlink="http://www.w3.org/1999/xlink"
   xmlns="http://www.w3.org/2000/svg"
   xmlns:svg="http://www.w3.org/2000/svg"
   xmlns:rdf="http://www.w3.org/1999/02/22-rdf-syntax-ns#"
   xmlns:cc="http://creativecommons.org/ns#"
   xmlns:dc="http://purl.org/dc/elements/1.1/"><metadata
   id="metadata244"><rdf:RDF><cc:Work
       rdf:about=""><dc:format>image/svg+xml</dc:format><dc:type
         rdf:resource="http://purl.org/dc/dcmitype/StillImage" /></cc:Work></rdf:RDF></metadata><defs
   id="defs242"><linearGradient
     id="linearGradient2866"><stop
       id="stop2868"
       offset="0"
       style="stop-color:#efefef;stop-opacity:1;" /><stop
       style="stop-color:#f8f8f8;stop-opacity:1;"
       offset="0.5"
       id="stop2874" /><stop
       id="stop2870"
       offset="1"
       style="stop-color:#e0e0e0;stop-opacity:1;" /></linearGradient><linearGradient
     inkscape:collect="always"
     id="linearGradient2888"><stop
       style="stop-color:#5b5b5b;stop-opacity:1;"
       offset="0"
       id="stop2890" /><stop
       style="stop-color:#5b5b5b;stop-opacity:0;"
       offset="1"
       id="stop2892" /></linearGradient><linearGradient
     inkscape:collect="always"
     id="linearGradient2875"><stop
       style="stop-color:white;stop-opacity:1;"
       offset="0"
       id="stop2877" /><stop
       style="stop-color:white;stop-opacity:0;"
       offset="1"
       id="stop2879" /></linearGradient><linearGradient
     id="linearGradient3670"><stop
       style="stop-color:#e8e8e8;stop-opacity:1;"
       offset="0"
       id="stop3672" /><stop
       style="stop-color:#969696;stop-opacity:0;"
       offset="1"
       id="stop3674" /></linearGradient><linearGradient
     id="linearGradient3650"><stop
       style="stop-color:#545454;stop-opacity:1;"
       offset="0"
       id="stop3652" /><stop
       style="stop-color:#b1b1b1;stop-opacity:1;"
       offset="1"
       id="stop3654" /></linearGradient><linearGradient
     inkscape:collect="always"
     id="linearGradient3642"><stop
       style="stop-color:black;stop-opacity:1;"
       offset="0"
       id="stop3644" /><stop
       style="stop-color:black;stop-opacity:0;"
       offset="1"
       id="stop3646" /></linearGradient><linearGradient
     inkscape:collect="always"
     id="linearGradient3630"><stop
       style="stop-color:#9ca096;stop-opacity:1;"
       offset="0"
       id="stop3632" /><stop
       style="stop-color:#9ca096;stop-opacity:0;"
       offset="1"
       id="stop3634" /></linearGradient><linearGradient
     inkscape:collect="always"
     id="linearGradient3622"><stop
       style="stop-color:#686868;stop-opacity:1;"
       offset="0"
       id="stop3624" /><stop
       style="stop-color:#686868;stop-opacity:0;"
       offset="1"
       id="stop3626" /></linearGradient><linearGradient
     inkscape:collect="always"
     id="linearGradient3614"><stop
       style="stop-color:white;stop-opacity:1;"
       offset="0"
       id="stop3616" /><stop
       style="stop-color:white;stop-opacity:0;"
       offset="1"
       id="stop3618" /></linearGradient><linearGradient
     id="linearGradient3396"><stop
       id="stop3398"
       offset="0"
       style="stop-color:#040404;stop-opacity:0;" /><stop
       style="stop-color:#040404;stop-opacity:0;"
       offset="0.64971751"
       id="stop3402" /><stop
       id="stop3400"
       offset="1"
       style="stop-color:#040404;stop-opacity:1;" /></linearGradient><linearGradient
     id="linearGradient3251"><stop
       style="stop-color:white;stop-opacity:1;"
       offset="0"
       id="stop3253" /><stop
       style="stop-color:#efefef;stop-opacity:1;"
       offset="1"
       id="stop3255" /></linearGradient><linearGradient
     id="linearGradient3243"><stop
       style="stop-color:yellow;stop-opacity:1;"
       offset="0"
       id="stop3245" /><stop
       style="stop-color:#ffbf00;stop-opacity:1;"
       offset="1"
       id="stop3247" /></linearGradient><linearGradient
     id="linearGradient2995"><stop
       style="stop-color:#4b4b4b;stop-opacity:1;"
       offset="0"
       id="stop2997" /><stop
       style="stop-color:#676767;stop-opacity:1;"
       offset="1"
       id="stop2999" /></linearGradient><linearGradient
     id="b"
     gradientUnits="userSpaceOnUse"
     x1="4"
     x2="4"
     y1="44"
     y2="4"
     gradientTransform="matrix(1.0499999,0,0,1.0499999,87.443612,-7.4375015)"><stop
       offset="0"
       stop-color="#197cf1"
       id="stop3160" /><stop
       offset="1"
       stop-color="#20bcfa"
       id="stop3162" /></linearGradient><linearGradient
     id="c"
     gradientUnits="userSpaceOnUse"
     x1="9"
     x2="38"
     xlink:href="#a"
     y1="9"
     y2="38"
     gradientTransform="matrix(1.0499999,0,0,1.0499999,87.443612,-7.4375015)" /><linearGradient
     id="a"
     gradientUnits="userSpaceOnUse"
     x1="34"
     x2="44"
     y1="19.007999"
     y2="29.007999"><stop
       offset="0"
       stop-color="#292c2f"
       id="stop3155" /><stop
       offset="1"
       stop-opacity="0"
       id="stop3157" /></linearGradient><linearGradient
     id="d"
     gradientUnits="userSpaceOnUse"
     x1="4"
     x2="4"
     y1="44"
     y2="4"
     gradientTransform="matrix(1.0499999,0,0,1.0499999,-1.1999935,-1.2000005)"><stop
       offset="0"
       stop-color="#54d883"
       id="stop3165" /><stop
       offset="1"
       stop-color="#abf9c7"
       id="stop3167" /></linearGradient><linearGradient
     id="linearGradient80038"
     x1="33.014"
     x2="34.219002"
     y1="10.136"
     y2="9.4466"
     gradientTransform="matrix(1.9841578,-0.3556122,0.3556122,1.9841578,26.405631,12.935024)"
     gradientUnits="userSpaceOnUse"><stop
       stop-color="#3c292c"
       offset="0"
       id="stop236" /><stop
       stop-color="#c2bbc2"
       offset=".1557"
       id="stop238" /><stop
       stop-color="#50393c"
       offset=".42952"
       id="stop240" /><stop
       stop-color="#dddee3"
       offset=".60187"
       id="stop242" /><stop
       stop-color="#6a5a5b"
       offset=".88993"
       id="stop244" /><stop
       stop-color="#806e74"
       offset="1"
       id="stop246" /></linearGradient><linearGradient
     id="linearGradient126082"
     x1="33.173"
     x2="34.636002"
     y1="10.722"
     y2="9.8470001"
     gradientTransform="matrix(1.9841578,-0.3556122,0.3556122,1.9841578,26.405631,12.935024)"
     gradientUnits="userSpaceOnUse"><stop
       stop-color="#533c3c"
       offset="0"
       id="stop249" /><stop
       stop-color="#c2bac0"
       offset=".079999"
       id="stop251" /><stop
       stop-color="#432c2d"
       offset=".46848"
       id="stop253" /><stop
       stop-color="#cecbd2"
       offset=".60206"
       id="stop255" /><stop
       stop-color="#675556"
       offset=".91407"
       id="stop257" /><stop
       stop-color="#8a7b84"
       offset="1"
       id="stop259" /></linearGradient><linearGradient
     id="linearGradient1902"
     x1="32"
     x2="32"
     y1="2.0005"
     y2="61.905998"
     gradientUnits="userSpaceOnUse"
     gradientTransform="matrix(0.53333328,0,0,0.53333328,72.264955,-5.2169944)"><stop
       stop-color="#f5f5f5"
       offset="0"
       id="stop311" /><stop
       stop-color="#dcdcdc"
       offset="1"
       id="stop313" /></linearGradient><linearGradient
     id="linearGradient181487"
     x1="33.624001"
     x2="35.493"
     y1="12.027"
     y2="10.924"
     gradientTransform="matrix(1.9841602,-0.35563198,0.35563198,1.9841602,26.40309,12.936079)"
     gradientUnits="userSpaceOnUse"><stop
       stop-color="#542a2e"
       offset="0"
       id="stop262" /><stop
       stop-color="#482a2d"
       offset=".063817"
       id="stop264" /><stop
       stop-color="#341e21"
       offset=".19594"
       id="stop266" /><stop
       stop-color="#664748"
       offset=".53477"
       id="stop268" /><stop
       stop-color="#d2cad1"
       offset=".66939"
       id="stop270" /><stop
       stop-color="#55363a"
       offset=".95152"
       id="stop272" /><stop
       stop-color="#70494f"
       offset="1"
       id="stop274" /></linearGradient><linearGradient
     id="linearGradient2181"
     x1="32.855"
     x2="32.855"
     y1="1.7684"
     y2="10.314"
     gradientTransform="matrix(1.9841578,-0.3556122,0.3556122,1.9841578,23.35037,13.482639)"
     gradientUnits="userSpaceOnUse"><stop
       stop-color="#f6ffff"
       offset="0"
       id="stop219" /><stop
       stop-color="#583e3f"
       offset="1"
       id="stop221" /></linearGradient><linearGradient
     id="linearGradient27086"
     x1="32.855"
     x2="32.855"
     y1="1.7684"
     y2="10.314"
     gradientTransform="matrix(1.9543527,-0.35028093,0.35028093,1.9543527,24.362117,13.487568)"
     gradientUnits="userSpaceOnUse"><stop
       stop-color="#f4fbfb"
       offset="0"
       id="stop224" /><stop
       stop-color="#565050"
       offset=".49983"
       id="stop226" /><stop
       stop-color="#c2b4b2"
       offset="1"
       id="stop228" /></linearGradient><radialGradient
     id="radialGradient1539-3"
     cx="33.299"
     cy="5.9839001"
     r="3.2704"
     gradientTransform="matrix(2.6457028,0,0,2.6457028,-64.134217,19.461679)"
     gradientUnits="userSpaceOnUse"><stop
       stop-color="#fff"
       stop-opacity=".204"
       offset="0"
       id="stop212-8" /><stop
       stop-color="#fff"
       stop-opacity=".204"
       offset=".7"
       id="stop214-3" /><stop
       stop-color="#191919"
       offset="1"
       id="stop216-3" /></radialGradient><linearGradient
     id="linearGradient59103"
     x1="31.417999"
     x2="31.417999"
     y1="9.3065004"
     y2="2.6166"
     gradientTransform="matrix(2.0157736,0,0,2.0157736,23.659227,17.390739)"
     gradientUnits="userSpaceOnUse"><stop
       stop-color="#f3f7f6"
       offset="0"
       id="stop231" /><stop
       stop-color="#605e5d"
       offset="1"
       id="stop233" /></linearGradient><linearGradient
     id="linearGradient997"
     x1="-228.53999"
     x2="-228.53999"
     y1="49.422001"
     y2="52.341999"
     gradientTransform="translate(237.02,-44.947)"
     gradientUnits="userSpaceOnUse"><stop
       stop-color="#fff"
       offset="0"
       id="stop283" /><stop
       stop-color="#fff"
       stop-opacity="0"
       offset="1"
       id="stop285" /></linearGradient><filter
     id="filter1229-6"
     x="-0.069095559"
     y="-0.10709949"
     width="1.1381911"
     height="1.2141989"
     color-interpolation-filters="sRGB"><feGaussianBlur
       stdDeviation="0.1347133"
       id="feGaussianBlur277-8" /></filter><filter
     id="filter667"
     x="-0.069095559"
     y="-0.10709949"
     width="1.1381911"
     height="1.2141989"
     color-interpolation-filters="sRGB"><feGaussianBlur
       stdDeviation="0.1347133"
       id="feGaussianBlur665" /></filter><radialGradient
     inkscape:collect="always"
     xlink:href="#linearGradient3396"
     id="radialGradient3718-7-3"
     gradientUnits="userSpaceOnUse"
     gradientTransform="matrix(0.3043117,0.24196212,-0.75169434,0.95593921,241.88192,16.509959)"
     cx="-180.54288"
     cy="171.75208"
     fx="-174.05511"
     fy="171.86282"
     r="13.296875" /><radialGradient
     inkscape:collect="always"
     xlink:href="#linearGradient3396"
     id="radialGradient3710-6-9"
     gradientUnits="userSpaceOnUse"
     gradientTransform="matrix(-0.20981869,0.27686726,0.9639449,0.73865546,-161.04715,61.54617)"
     cx="-180.54288"
     cy="171.75208"
     fx="-174.05511"
     fy="171.86282"
     r="13.296875" /><radialGradient
     inkscape:collect="always"
     xlink:href="#linearGradient2888"
     id="radialGradient2894-9-6"
     cx="-181.42027"
     cy="159.1109"
     fx="-181.42027"
     fy="159.1109"
     r="16.293489"
     gradientTransform="matrix(0.54172631,-0.22561593,0.08767374,0.2105144,137.58771,58.705357)"
     gradientUnits="userSpaceOnUse" /><radialGradient
     inkscape:collect="always"
     xlink:href="#linearGradient3670"
     id="radialGradient3679-2-1"
     gradientUnits="userSpaceOnUse"
     gradientTransform="matrix(0.98045392,0.00268784,0,0.16312277,234.94258,107.33092)"
     cx="-188.68503"
     cy="127.57227"
     fx="-188.49992"
     fy="128.64145"
     r="17.432856" /><radialGradient
     inkscape:collect="always"
     xlink:href="#linearGradient2875"
     id="radialGradient2885-9-0"
     cx="-193.25323"
     cy="156.11624"
     fx="-193.25323"
     fy="156.11624"
     r="5.2813001"
     gradientTransform="matrix(0.35860881,-0.00843431,0.06010566,2.5556351,108.90146,-262.75271)"
     gradientUnits="userSpaceOnUse" /><linearGradient
     inkscape:collect="always"
     xlink:href="#b"
     id="linearGradient1807"
     gradientUnits="userSpaceOnUse"
     gradientTransform="matrix(1.3999867,0,0,1.3999867,-2.6696665,7.8979705)"
     x1="4"
     y1="44"
     x2="4"
     y2="4" /><linearGradient
     inkscape:collect="always"
     xlink:href="#a"
     id="linearGradient1809"
     gradientUnits="userSpaceOnUse"
     gradientTransform="matrix(1.3999867,0,0,1.3999867,-2.6696665,7.8979705)"
     x1="9"
     y1="9"
     x2="38"
     y2="38" /><linearGradient
     inkscape:collect="always"
     xlink:href="#a"
     id="linearGradient1811"
     gradientUnits="userSpaceOnUse"
     gradientTransform="matrix(1.3999867,0,0,1.3999867,-2.6696665,7.8979705)"
     x1="34"
     y1="19.007999"
     x2="44"
     y2="29.007999" /><linearGradient
     inkscape:collect="always"
     xlink:href="#linearGradient3630"
     id="linearGradient1813"
     gradientUnits="userSpaceOnUse"
     gradientTransform="matrix(0.4159076,0,0,0.41822162,128.48467,70.313332)"
     x1="-197.68797"
     y1="154.46518"
     x2="-189.48012"
     y2="153.72021" /><linearGradient
     inkscape:collect="always"
     xlink:href="#linearGradient3614"
     id="linearGradient1815"
     gradientUnits="userSpaceOnUse"
     gradientTransform="matrix(0.4159076,0,0,0.41822162,128.48467,70.313332)"
     x1="-191.01106"
     y1="131.61131"
     x2="-198.02255"
     y2="130.55957" /><linearGradient
     inkscape:collect="always"
     xlink:href="#linearGradient3622"
     id="linearGradient1817"
     gradientUnits="userSpaceOnUse"
     gradientTransform="matrix(0.4159076,0,0,0.41822162,128.48467,70.313332)"
     x1="-207.73027"
     y1="151.19595"
     x2="-210.98982"
     y2="141.25862" /><linearGradient
     inkscape:collect="always"
     xlink:href="#linearGradient3650"
     id="linearGradient1819"
     gradientUnits="userSpaceOnUse"
     gradientTransform="matrix(0.4159076,0,0,0.41822162,128.48467,70.313332)"
     x1="-181.02063"
     y1="150.43015"
     x2="-191.34558"
     y2="149.0968" /><linearGradient
     inkscape:collect="always"
     xlink:href="#linearGradient3642"
     id="linearGradient1821"
     gradientUnits="userSpaceOnUse"
     gradientTransform="matrix(0.4159076,0,0,0.41822162,128.48467,70.313332)"
     x1="-198.05614"
     y1="149.18277"
     x2="-196.2851"
     y2="150.36595" /></defs><sodipodi:namedview
   inkscape:window-height="994"
   inkscape:window-width="1920"
   inkscape:pageshadow="2"
   inkscape:pageopacity="0.0"
   borderopacity="1.0"
   bordercolor="#666666"
   pagecolor="#ffffff"
   id="base"
   inkscape:zoom="3.9709576"
   inkscape:cx="-0.12591421"
   inkscape:cy="90.910062"
   inkscape:window-x="0"
   inkscape:window-y="0"
   inkscape:current-layer="Livello_1"
   showguides="true"
   inkscape:guide-bbox="true"
   inkscape:showpageshadow="2"
   inkscape:pagecheckerboard="0"
   inkscape:deskcolor="#d1d1d1"
   showgrid="false"
   inkscape:window-maximized="1"><sodipodi:guide
     orientation="horizontal"
     position="0,537.53683"
     id="guide1993"
     inkscape:locked="false" /></sodipodi:namedview>




<g
   id="g1"
   transform="translate(0.06986925,-10.497435)"><ellipse
     cx="30.929983"
     cy="41.497673"
     fill="url(#b)"
     id="circle3170-7"
     style="fill:url(#linearGradient1807);stroke-width:1.4"
     rx="27.99972"
     ry="27.999723" /><path
     d="M 30.929996,13.497931 A 27.999737,27.999737 0 0 0 3.0702635,38.697692 h 4.059958 l 4.1999605,4.19998 2.799972,1.39999 15.356445,25.12975 a 27.999737,27.999737 0 0 0 1.443397,0.0695 27.999737,27.999737 0 0 0 27.99974,-27.99975 27.999737,27.999737 0 0 0 -27.99974,-27.999724 z"
     fill="url(#c)"
     opacity="0.2"
     id="path3172-5"
     style="fill:url(#linearGradient1809);stroke-width:1.4" /><path
     d="m 56.950152,31.183957 -9.220313,13.113705 8.70093,8.70088 a 27.999737,27.999737 0 0 0 2.498967,-11.50086 27.999737,27.999737 0 0 0 -1.903985,-10.144313 27.999737,27.999737 0 0 0 -0.07563,-0.169412 z"
     fill="url(#a)"
     fill-rule="evenodd"
     opacity="0.2"
     id="path3174-9"
     style="fill:url(#linearGradient1811);stroke-width:1.4" /><path
     d="m 30.929996,13.497931 a 27.999737,27.999737 0 0 0 -2.662778,0.153999 27.999737,27.999737 0 0 0 -0.355593,0.042 27.999737,27.999737 0 0 0 -4.506547,0.891792 v -0.05599 A 27.999737,27.999737 0 0 0 9.8251965,23.125641 h 0.01404 a 27.999737,27.999737 0 0 0 -5.011953,8.322939 l 2.302982,-1.150784 h 5.5999475 v 1.39999 l 1.399984,1.399992 v -2.799987 l 1.399986,-1.399989 1.399988,-1.399984 h 1.399987 v -1.399985 l 1.399987,-1.399982 2.799974,-1.39999 1.399989,-1.399991 2.799974,-1.399988 v 1.399988 l 2.799973,-1.399988 h -1.399998 v -1.39999 L 26.73007,17.697904 h 5.599946 l -1.39999,1.399988 4.199963,1.399985 -1.399985,-2.799973 v -2.799967 l -1.325802,-1.325795 a 27.999737,27.999737 0 0 0 -1.474176,-0.07421 z M 51.9298,23.031846 v 3.065968 h 2.367366 A 27.999737,27.999737 0 0 0 51.9298,23.031846 Z m -39.112831,0.09381 h 0.08532 l -0.172148,0.172174 0.0882,-0.17221 z m 42.033201,3.866728 -1.520386,0.505406 -2.799972,1.399986 v 1.39999 l -2.799973,2.799977 -1.399985,2.799949 v 5.59998 l 1.399985,2.80001 2.799973,1.39999 1.399988,1.39998 6.603725,-1.09902 a 27.999737,27.999737 0 0 0 0.003,-0.031 27.999737,27.999737 0 0 0 0.292745,-2.45271 27.999737,27.999737 0 0 0 0.100752,-2.01751 27.999737,27.999737 0 0 0 -0.126,-2.43597 27.999737,27.999737 0 0 0 -0.135771,-1.13259 27.999737,27.999737 0 0 0 -0.265998,-1.72758 A 27.999737,27.999737 0 0 0 58.213269,35.364079 27.999737,27.999737 0 0 0 57.713463,33.412494 27.999737,27.999737 0 0 0 57.51046,32.807702 27.999737,27.999737 0 0 0 56.755867,30.745528 27.999737,27.999737 0 0 0 56.548671,30.28353 27.999737,27.999737 0 0 0 55.512683,28.148544 27.999737,27.999737 0 0 0 54.8505,26.992154 Z m -47.7199485,8.905308 -1.399985,1.4 h -1.399987 l -0.909992,-0.90999 a 27.999737,27.999737 0 0 0 0,0.005 27.999737,27.999737 0 0 0 -0.372396,2.76777 27.999737,27.999737 0 0 0 -0.0024,0.0418 l 2.685072,0.8935 2.799971,1.40002 1.399986,1.40001 1.3999865,1.39992 h 2.799973 v 2.79995 l -1.399987,1.40007 -1.399986,2.79992 v 1.40004 l 1.399986,1.39998 1.399987,1.39996 1.399984,2.80002 1.399989,1.39997 2.799973,1.39999 v 6.04795 a 27.999737,27.999737 0 0 0 0.0083,0.002 27.999737,27.999737 0 0 0 2.375775,0.90299 27.999737,27.999737 0 0 0 0.2688,0.0957 27.999737,27.999737 0 0 0 2.118178,0.57113 27.999737,27.999737 0 0 0 0.631399,0.16242 27.999737,27.999737 0 0 0 1.847984,0.30237 27.999737,27.999737 0 0 0 0.951987,0.1456 27.999737,27.999737 0 0 0 1.609985,0.10103 27.999737,27.999737 0 0 0 1.38779,0.0687 27.999737,27.999737 0 0 0 1.425179,-0.0521 l 1.374766,-2.74831 v -1.39965 l 2.799978,-1.40003 1.399984,-1.39995 1.399989,-5.59998 1.399986,-1.39999 v -2.79979 l -2.799975,-1.40002 h -1.399984 l -2.799978,-1.39998 h -1.399997 l -1.39999,-2.79999 -1.399981,-1.39993 h -2.799963 l -2.799966,-2.79997 h -2.799983 l -4.199962,-1.40001 -1.399988,2.79994 -2.79997,-1.39993 h -1.399987 v -2.8 l -2.7999685,-1.39998 1.399984,-2.79998 z"
     id="path3176-2"
     style="fill:#ffffc1;fill-opacity:1;stroke-width:1.4" /><path
     d="m 3.0016595,40.797682 c -0.0055,0.238 -0.07142,0.46057 -0.07142,0.7 0,15.51188 12.4878795,27.99975 27.9997315,27.99975 15.511856,0 27.999743,-12.48787 27.999743,-27.99975 0,-0.23943 -0.06587,-0.462 -0.07147,-0.7 -0.042,1.68835 -0.169388,3.35715 -0.495596,4.95736 a 27.845741,27.845741 0 0 1 -7.617318,14.15805 27.92974,27.92974 0 0 1 -8.89693,5.99054 27.743529,27.743531 0 0 1 -5.261148,1.62673 28.28533,28.28533 0 0 1 -5.655946,0.56566 c -1.938968,0 -3.831752,-0.19461 -5.655946,-0.56566 a 27.845741,27.845741 0 0 1 -14.157981,-7.61727 27.92974,27.92974 0 0 1 -5.9905425,-8.8969 27.743529,27.743531 0 0 1 -1.626788,-5.26115 c -0.326196,-1.60021 -0.452193,-3.26901 -0.495592,-4.95736"
     opacity="0.2"
     id="path3178-2"
     style="stroke-width:1.4" /></g><g
   id="g2"
   transform="translate(-1.8365637,-82.841853)"><path
     id="path3373-3-8"
     d="m 63.775719,128.48766 -10.399825,4.48845 -2.520251,11.57216 5.799614,-9.31272 -0.288457,-0.19846 z"
     style="opacity:0.663934;fill:url(#radialGradient3718-7-3);fill-opacity:1;fill-rule:evenodd;stroke:none;stroke-width:0.417064px;stroke-linecap:butt;stroke-linejoin:miter;stroke-opacity:1" /><path
     sodipodi:nodetypes="cccccccc"
     style="opacity:0.422131;fill:url(#radialGradient3710-6-9);fill-opacity:1;fill-rule:evenodd;stroke:none;stroke-width:0.417064px;stroke-linecap:butt;stroke-linejoin:miter;stroke-opacity:1"
     d="m 39.145193,132.22753 6.622761,1.21096 4.082311,8.36176 -0.934889,0.0462 -5.79641,-5.42643 0.233069,-0.26188 -4.018756,-1.80694 z"
     id="path3441-7-9" /><path
     sodipodi:nodetypes="ccccccccc"
     id="path2011-5-7"
     d="m 34.746511,131.43461 10.729692,2.50773 5.345274,10.60577 2.849276,-11.13943 10.108672,-4.88189 -11.825438,-2.1548 -4.071795,-8.53957 -2.301946,9.50927 z"
     style="fill:#cdcdcd;fill-opacity:1;fill-rule:evenodd;stroke:#0f0f0f;stroke-width:0.056279;stroke-linecap:butt;stroke-linejoin:miter;stroke-miterlimit:4;stroke-dasharray:none;stroke-opacity:1" /><path
     sodipodi:nodetypes="cccc"
     id="path2898-9-3"
     d="m 45.48719,133.91732 3.780498,-6.49125 1.577193,16.99191 z"
     style="fill:url(#linearGradient1813);fill-opacity:1;fill-rule:evenodd;stroke:none;stroke-width:0.417064px;stroke-linecap:butt;stroke-linejoin:miter;stroke-opacity:1" /><path
     id="path2920-2-6"
     d="m 53.660755,133.40312 -4.395481,-5.98274 14.500913,1.08361 z"
     style="fill:#9c9c9c;fill-opacity:1;fill-rule:evenodd;stroke:none;stroke-width:0.417064px;stroke-linecap:butt;stroke-linejoin:miter;stroke-opacity:1"
     sodipodi:nodetypes="cccc" /><path
     sodipodi:nodetypes="cccc"
     id="path2926-2-1"
     d="m 49.268991,127.42752 -1.422942,-9.49453 -2.230802,9.43304 z"
     style="fill:url(#linearGradient1815);fill-opacity:1;fill-rule:evenodd;stroke:none;stroke-width:0.417064px;stroke-linecap:butt;stroke-linejoin:miter;stroke-opacity:1" /><path
     style="fill:url(#linearGradient1817);fill-opacity:1;fill-rule:evenodd;stroke:none;stroke-width:0.417064px;stroke-linecap:butt;stroke-linejoin:miter;stroke-opacity:1"
     d="m 45.490273,133.92637 3.777415,-6.5003 -14.359274,4.00841 z"
     id="path2933-8-2"
     sodipodi:nodetypes="cccc" /><path
     sodipodi:nodetypes="cccc"
     style="fill:#d4d4d4;fill-opacity:1;fill-rule:evenodd;stroke:none;stroke-width:0.417064px;stroke-linecap:butt;stroke-linejoin:miter;stroke-opacity:1"
     d="m 51.882978,126.33841 -2.617704,1.08197 14.500913,1.08361 z"
     id="path2943-9-9" /><path
     sodipodi:nodetypes="cc"
     id="path3361-7-3"
     d="m 47.962893,114.21637 0.618608,4.66534"
     style="opacity:0.118852;fill:none;fill-opacity:0.75;fill-rule:evenodd;stroke:#000000;stroke-width:0.0477561;stroke-linecap:butt;stroke-linejoin:miter;stroke-miterlimit:4;stroke-dasharray:none;stroke-opacity:1" /><path
     sodipodi:nodetypes="cc"
     id="path3369-3-1"
     d="M 46.725685,116.18616 61.984604,115.0199"
     style="opacity:0.118852;fill:none;fill-opacity:0.75;fill-rule:evenodd;stroke:#000000;stroke-width:0.0477561;stroke-linecap:butt;stroke-linejoin:miter;stroke-miterlimit:4;stroke-dasharray:none;stroke-opacity:1" /><path
     sodipodi:nodetypes="cccc"
     style="fill:url(#radialGradient2894-9-6);fill-opacity:1;fill-rule:evenodd;stroke:none;stroke-width:0.417064px;stroke-linecap:butt;stroke-linejoin:miter;stroke-opacity:1"
     d="m 53.594046,133.43047 -3.510613,-4.93192 13.682754,0.004 z"
     id="path3658-6-9" /><path
     sodipodi:nodetypes="cccc"
     style="fill:url(#linearGradient1819);fill-opacity:1;fill-rule:evenodd;stroke:none;stroke-width:0.417064px;stroke-linecap:butt;stroke-linejoin:miter;stroke-opacity:1"
     d="m 53.660755,133.40312 -4.393067,-5.97705 1.577193,16.99191 z"
     id="path2916-1-4" /><path
     sodipodi:nodetypes="cccc"
     style="opacity:0.704918;fill:url(#radialGradient3679-2-1);fill-opacity:1;fill-rule:evenodd;stroke:none;stroke-width:0.417064px;stroke-linecap:butt;stroke-linejoin:miter;stroke-opacity:1"
     d="m 52.651763,132.25751 -3.386489,-4.83714 14.500913,1.08362 z"
     id="path3668-2-7" /><path
     style="opacity:0.0819672;fill:url(#linearGradient1821);fill-opacity:1;fill-rule:evenodd;stroke:none;stroke-width:0.417064px;stroke-linecap:butt;stroke-linejoin:miter;stroke-opacity:1"
     d="m 45.131967,133.82303 3.432429,-5.20542 -2.603162,6.32335 -0.456329,-1.06568 z"
     id="path3640-9-8"
     sodipodi:nodetypes="ccccc" /><path
     sodipodi:nodetypes="ccccc"
     id="path3638-3-4"
     d="m 45.323326,133.83215 2.858346,-4.59143 -2.621401,4.79762 -0.05534,-0.16307 z"
     style="opacity:0.0819672;fill:#000000;fill-opacity:0.208163;fill-rule:evenodd;stroke:none;stroke-width:0.417064px;stroke-linecap:butt;stroke-linejoin:miter;stroke-opacity:1" /><path
     id="path2883-1-5"
     d="m 51.833486,133.16989 -2.565798,-5.74382 1.577193,16.99191 z"
     style="fill:url(#radialGradient2885-9-0);fill-opacity:1;fill-rule:evenodd;stroke:none;stroke-width:0.417064px;stroke-linecap:butt;stroke-linejoin:miter;stroke-opacity:1"
     sodipodi:nodetypes="cccc" /></g></svg>
