<?xml version="1.0" encoding="UTF-8" standalone="no"?>
<svg
   width="62"
   height="62"
   version="1"
   id="svg8"
   sodipodi:docname="org.kde.netspeedWidget.svg"
   inkscape:version="1.4 (unknown)"
   xmlns:inkscape="http://www.inkscape.org/namespaces/inkscape"
   xmlns:sodipodi="http://sodipodi.sourceforge.net/DTD/sodipodi-0.dtd"
   xmlns="http://www.w3.org/2000/svg"
   xmlns:svg="http://www.w3.org/2000/svg">
  <defs
     id="defs8" />
  <sodipodi:namedview
     id="namedview8"
     pagecolor="#ffffff"
     bordercolor="#000000"
     borderopacity="0.25"
     inkscape:showpageshadow="2"
     inkscape:pageopacity="0.0"
     inkscape:pagecheckerboard="0"
     inkscape:deskcolor="#d1d1d1"
     inkscape:zoom="8.0729167"
     inkscape:cx="22.35871"
     inkscape:cy="32.64"
     inkscape:window-width="1920"
     inkscape:window-height="998"
     inkscape:window-x="0"
     inkscape:window-y="0"
     inkscape:window-maximized="1"
     inkscape:current-layer="svg8" />
  <g
     id="g8"
     transform="matrix(1.375,0,0,1.3658537,-2,-2.4634157)">
    <circle
       style="opacity:0.2"
       cx="24"
       cy="25"
       r="20"
       id="circle1" />
    <circle
       style="fill:#005ce5;fill-opacity:1"
       cx="24"
       cy="24"
       r="20"
       id="circle2" />
    <path
       style="opacity:0.2"
       d="m 24,5.0371094 a 19.964286,19.964286 0 0 0 -2.535156,0.1855468 l 0.884765,2.4140626 -0.08984,0.089844 L 21.523438,7.3613281 21.0625,7.9121094 22.074219,8.6484375 22.625,8.2792969 22.533203,7.7265625 c 1.165583,0.5382246 2.353745,0.9916178 3.587891,1.3808594 l 0.826172,1.3789061 0.736328,0.365234 1.009765,-2.0214839 -0.736328,-0.8261719 V 7.1777344 L 29.759766,5.890625 A 19.964286,19.964286 0 0 0 24,5.0371094 Z M 30.867188,6.28125 30.253906,6.3496094 29.886719,7.2675781 28.875,7.6367188 29.794922,8.4628906 c 0.571749,-0.3954119 1.083019,-0.7993144 1.654297,-1.1953125 l 0.919922,-0.2753906 c 0.375671,0.2566851 0.733035,0.5612981 1.101562,0.828125 l 0.0918,0.1835937 0.273438,0.7363282 h 0.919921 L 34.457031,8.0234375 A 19.964286,19.964286 0 0 0 30.867188,6.28125 Z M 33.5625,8.0039062 32.826172,7.5410156 32,7.9121094 v 0.7324218 h 0.736328 z M 14.302734,7.5761719 a 19.964286,19.964286 0 0 0 -1.964843,1.25 h 0.361328 L 11.6875,9.9296875 11.361328,9.5625 A 19.964286,19.964286 0 0 0 4.2832031,22.03125 c 0.2827218,-0.273556 0.580061,-0.518259 0.8808594,-0.796875 l 0.9179687,0.0918 0.8261719,-0.917969 v 1.099609 L 6.1738281,22.06055 5.7148438,22.703128 5.0722656,21.876956 c -0.1586963,0.302823 -0.3032412,0.705515 -0.4609375,1.009766 v 0.828125 l 0.7363281,0.826172 1.2871094,0.919922 0.9179688,1.011718 C 7.0898869,26.439131 6.6468601,26.347916 6.1738281,26.287109 v 0.644532 l 1.0117188,2.386718 0.8261719,0.921875 0.7363281,1.5625 v 2.574219 l -0.2773438,1.007813 0.3671875,0.46289 0.921875,0.550782 0.9179684,0.732421 -0.8281246,0.828125 1.1035156,0.919922 -0.06055,0.210938 a 20,20 0 0 0 3.828125,2.611328 v -0.617188 l 0.183594,-1.470703 c 0.304609,-0.912896 0.689141,-1.757808 1.011719,-2.664062 0,-0.668981 -0.05262,-1.352647 -0.0918,-2.021485 l -0.458985,-0.921875 0.642578,-1.099609 -0.0918,-1.470703 0.732422,-0.828125 -0.365235,-1.28711 0.644531,-0.734374 H 17.9375 l 0.367188,-0.367188 1.103515,0.642578 0.365235,-0.458984 1.011718,0.826172 c 0.668253,-0.773055 1.352175,-1.524392 2.021485,-2.296875 l 0.828125,-1.929688 -0.736328,-1.103515 0.36914,-0.365235 -0.828125,-2.115234 C 21.728819,20.515928 20.98519,19.622393 20.234375,18.753906 l -1.378906,-0.36914 -1.46875,-0.183594 -1.011719,0.27539 -1.470703,1.470704 -0.550781,-0.550782 -0.644532,-0.0918 -1.376953,0.458984 h -1.011719 l -0.734374,-0.642578 -0.277344,-0.458985 0.644531,-0.460937 1.287109,-0.0918 C 12.568011,17.645471 12.86083,17.142679 13.25,16.730469 l 0.367188,0.185547 0.185546,1.191406 0.642578,-0.824219 0.181641,-0.919922 0.738281,-0.642578 h 0.365235 l -0.826172,0.917969 0.367187,0.828125 0.644532,0.183594 -0.458985,-0.828125 0.732422,-0.367188 0.644531,-0.734375 1.19336,0.275391 0.0918,0.367187 0.736328,0.458985 0.367187,1.011718 1.011719,0.458985 0.458984,-0.458985 h 0.458985 V 16.179688 L 20.142578,15.628906 H 19.314453 L 19.5,14.984375 20.144531,14.341797 19.041016,14.158203 18.490234,13.513672 18.027344,12.6875 h -0.916016 l 0.275391,-0.644531 -0.552735,-0.365235 v 0.734375 l -1.195312,0.275391 -1.19336,-1.009766 -0.0918,-0.458984 -1.011719,-0.738281 c 0.370101,0.04714 0.741986,0.08499 1.103515,0.185547 V 9.8398438 l -0.367187,-0.921875 h 0.367187 l 0.919922,0.8300781 0.181641,0.4589841 -0.181641,0.640625 0.365235,1.103516 0.644531,-0.367188 0.552734,-0.642578 0.824219,0.642578 0.367188,-1.46875 -1.5625,-1.0117184 V 8.5527344 L 15.640625,7.9101562 Z m 20.726563,0.796875 0.0918,1.0078125 0.830078,0.8261716 1.927734,1.103516 -0.27539,0.826172 -1.470704,0.550781 -0.18164,1.103516 -0.554688,-1.195313 -0.826172,-0.367187 0.0918,-0.458985 -0.826171,-1.5625 -1.103516,0.644531 0.185547,0.732422 -0.921875,-0.365234 -0.458985,0.826172 0.185547,0.550781 -0.552734,0.0918 -0.458984,0.458984 0.18164,0.460938 -0.640625,0.458984 0.550781,0.826172 0.185547,-1.193359 1.19336,0.458984 h 0.917968 l 1.289063,0.550781 H 32.36524 l 0.642578,1.103516 1.38086,0.275391 0.640625,0.828125 1.103515,0.458984 0.458985,1.378906 1.470703,1.195313 0.183594,1.746093 0.828125,-1.011718 1.101562,-0.275391 0.185547,0.550781 h 0.917969 l 1.195312,0.828125 0.0918,1.101563 -0.0918,0.917969 -0.736328,0.458984 -0.550781,-0.273437 -0.550781,-0.734376 H 40.08399 c 0.07675,0.617616 0.198943,1.311887 0.275391,1.929688 l -0.917969,-0.0918 v 0.917969 l -0.27539,0.917969 c -0.370515,0.232316 -0.870986,0.244559 -1.28711,0.367187 v -0.18164 L 36.5,25.832031 l -1.378906,1.007813 -1.470703,-0.181641 -0.642579,1.652344 -1.101562,0.275391 -0.642578,1.287109 c -1.244716,0.653212 -2.423676,1.295216 -3.677734,1.929687 l 0.0918,1.28711 0.919922,1.287109 -0.09375,1.835938 0.552735,1.380859 1.195312,0.275391 0.458985,0.826171 -0.185547,0.458985 0.738281,2.021484 1.009766,0.277344 0.18164,0.644531 0.002,0.002 a 20,20 0 0 0 3.078125,-1.791015 l -0.136718,-0.601563 0.458984,-1.011719 -0.0918,-1.929687 0.644531,-0.828125 1.376953,-1.285156 1.378907,-2.482422 -0.367188,-1.376953 0.0918,-0.367188 -0.458984,-0.644531 -0.552735,-1.746094 v -0.0918 l 0.458985,-0.27539 0.552734,0.183593 1.101563,-0.826171 0.644531,-0.919922 1.654297,-0.458985 1.5625,-0.919922 c 0,-1e-6 0.05442,-0.09916 0.0957,-0.175781 A 19.964286,19.964286 0 0 0 35.029297,8.3730469 Z M 19.867188,9.8398438 C 19.61493,10.36507 19.424105,10.852765 19.222656,11.400391 l -0.640625,0.642578 0.732422,0.644531 0.919922,0.185547 -0.181641,-1.195313 v -0.830078 l 0.365235,-0.458984 V 9.8398438 Z m 1.376953,1.1933592 -0.367188,0.826172 0.828125,0.458984 0.0918,-1.099609 z m -10.751953,9.833985 0.277343,0.18164 -0.36914,1.38086 -0.6406254,0.732421 c -0.3816993,1.124302 -0.7878339,2.233959 -1.2890625,3.308594 -0.275927,0 -0.5576737,0.01766 -0.8261719,0 L 8.2890625,25.736328 7.9199219,24.908203 8.5625,24.173828 9.6660156,21.876953 Z"
       id="path2" />
    <path
       style="fill:#80b3ff"
       d="m 24,4.0362724 a 19.964286,19.964286 0 0 0 -2.534877,0.185547 l 0.884486,2.4148994 -0.09068,0.090681 -0.735213,-0.3669085 -0.460379,0.5510603 1.01144,0.7366071 0.55106,-0.3696986 -0.09208,-0.5510603 c 1.165583,0.5382246 2.352629,0.9905017 3.586775,1.3797433 l 0.825893,1.3783485 0.736607,0.3669079 1.010044,-2.0214841 -0.735211,-0.827288 V 6.1777345 l 1.80106,-1.2862723 A 19.964286,19.964286 0 0 0 24,4.0362724 Z m 6.868024,1.2444197 -0.613839,0.068359 -0.366908,0.9193638 -1.01144,0.3683036 0.919364,0.8258928 c 0.571749,-0.3954119 1.083298,-0.798198 1.654576,-1.1941961 l 0.919364,-0.2762276 c 0.375671,0.2566851 0.732198,0.560461 1.100725,0.8272879 l 0.09208,0.1841518 0.274832,0.7366071 h 0.919365 L 34.457589,7.0231586 A 19.964286,19.964286 0 0 0 30.868024,5.2806921 Z M 33.561942,7.0036273 32.82673,6.5418528 31.999442,6.9115515 v 0.7338169 h 0.736607 z M 14.302734,6.575335 a 19.964286,19.964286 0 0 0 -1.96568,1.251395 h 0.361328 L 11.686942,8.9302458 11.361887,8.5619423 A 19.964286,19.964286 0 0 0 4.2832033,21.03125 c 0.2827218,-0.273556 0.5795029,-0.51798 0.8803013,-0.796596 l 0.9179687,0.09068 0.827288,-0.917969 V 20.50809 L 6.1735493,21.060547 5.7145648,21.703683 5.0714287,20.876395 C 4.9127324,21.179218 4.7687456,21.582189 4.6110493,21.88644 v 0.828683 l 0.7366071,0.825893 1.2862723,0.919363 0.9179687,1.01144 C 7.0890499,25.438294 6.6465813,25.347079 6.1735493,25.286272 v 0.644532 l 1.0114397,2.388392 0.8272879,0.92076 0.7352118,1.5625 v 2.573939 l -0.2762272,1.008649 0.3669086,0.461775 0.9207586,0.55106 0.9179683,0.733817 -0.8272876,0.827288 1.1035156,0.919365 -0.185547,0.643135 1.089565,1.294643 a 19.964286,19.964286 0 0 0 0.595703,0.452009 h 0.796596 l 0.919364,0.55106 h 0.55106 v -0.735212 l 0.184152,-1.470424 c 0.304609,-0.912896 0.688862,-1.758366 1.01144,-2.66462 0,-0.668981 -0.0529,-1.352646 -0.09208,-2.021484 l -0.458984,-0.92076 0.643137,-1.100725 -0.09208,-1.470424 0.733816,-0.828683 -0.366908,-1.286273 0.644531,-0.733817 h 1.010045 l 0.366909,-0.368303 1.103515,0.643136 0.366908,-0.458984 1.01144,0.825893 c 0.668253,-0.773055 1.352175,-1.523834 2.021485,-2.296317 L 23.634486,24.00279 22.897879,22.899274 23.267578,22.532366 22.44029,20.417411 C 21.729656,19.51537 20.985469,18.622672 20.234654,17.754185 l -1.378348,-0.369699 -1.470425,-0.184151 -1.011439,0.276228 -1.470424,1.470423 -0.55106,-0.55106 -0.643136,-0.09207 -1.378349,0.458984 h -1.011439 l -0.733817,-0.641741 -0.277623,-0.458985 0.644531,-0.460379 1.286272,-0.09208 c 0.327777,-0.463904 0.620875,-0.967533 1.010045,-1.379743 l 0.368304,0.186942 0.184151,1.191406 0.643137,-0.824498 0.182756,-0.920759 0.736607,-0.64174 h 0.366909 l -0.827288,0.917968 0.368304,0.827288 0.643136,0.184152 -0.458985,-0.828684 0.733817,-0.366908 0.644531,-0.733816 1.192802,0.274832 0.09208,0.366908 0.736607,0.458984 0.366908,1.01144 1.01144,0.458985 0.458985,-0.458985 h 0.458984 v -1.65318 L 20.142578,14.629185 H 19.31529 l 0.184152,-0.644531 0.644531,-0.643136 -1.103515,-0.182756 -0.551061,-0.644532 -0.461774,-0.825893 h -0.916574 l 0.274832,-0.644531 -0.552455,-0.366909 v 0.735212 l -1.194196,0.276228 -1.194196,-1.01144 -0.09208,-0.458984 -1.01144,-0.7366072 c 0.370101,0.047136 0.741986,0.083592 1.103516,0.1841522 V 8.8395651 L 14.078125,7.9188059 h 0.366909 l 0.919363,0.8286828 0.182757,0.4589843 -0.182757,0.6417414 0.366909,1.1035156 0.643136,-0.366908 0.552455,-0.6431369 0.825893,0.6431369 0.366909,-1.4704247 -1.5625,-1.0114396 V 7.5518974 l -0.916574,-0.641741 z m 20.726842,0.797991 0.09208,1.0072541 0.828684,0.8258929 1.929409,1.103516 -0.276228,0.827288 -1.470425,0.55106 -0.182756,1.103516 -0.553851,-1.195591 -0.825893,-0.366909 0.09208,-0.46038 -0.827288,-1.5625 -1.10212,0.6445314 0.184152,0.7338176 -0.92076,-0.366909 -0.458984,0.827288 0.184152,0.551061 -0.55106,0.09208 -0.46038,0.458985 0.182757,0.460379 -0.641741,0.458984 0.551061,0.825893 0.185546,-1.192801 1.192802,0.458985 h 0.919363 l 1.287668,0.55106 h -2.022879 l 0.643135,1.103515 1.379744,0.274833 0.641741,0.828683 1.103515,0.457589 0.458985,1.379743 1.470424,1.194196 0.184151,1.746653 0.827289,-1.01144 1.10212,-0.276228 0.185547,0.55106 h 0.917969 l 1.194196,0.828683 0.09208,1.102121 -0.09208,0.917969 -0.735212,0.458984 -0.55106,-0.274832 -0.55106,-0.733817 h -0.552456 c 0.07675,0.617615 0.198385,1.311607 0.274833,1.929408 l -0.916574,-0.09208 v 0.919364 L 39.166025,25.9322 c -0.370515,0.232316 -0.870148,0.24428 -1.286272,0.366908 V 26.116351 L 36.5,24.831473 l -1.378349,1.00865 -1.470423,-0.182757 -0.643137,1.653181 -1.10212,0.276227 -0.643136,1.286273 c -1.244716,0.653212 -2.423398,1.294938 -3.677456,1.929409 l 0.09208,1.287667 0.919363,1.286272 -0.09208,1.837333 0.55106,1.379743 1.195591,0.274833 0.458984,0.827287 -0.184151,0.458985 0.736607,2.021484 1.010044,0.276228 0.182757,0.644531 0.644531,0.641741 -0.01953,0.04046 a 19.964286,19.964286 0 0 0 2.640903,-1.647601 l -0.323661,-1.424385 0.46038,-1.01144 -0.09208,-1.929409 0.643136,-0.828683 1.378348,-1.284877 1.378349,-2.481864 -0.366909,-1.378348 0.09208,-0.366909 -0.460379,-0.644531 -0.55106,-1.746651 v -0.09068 l 0.458984,-0.276228 0.552455,0.184152 1.100726,-0.825893 0.644531,-0.920759 1.654576,-0.458984 1.5625,-0.919364 c 0,-10e-7 0.05358,-0.09916 0.09486,-0.175781 A 19.964286,19.964286 0 0 0 35.029576,7.373326 Z M 19.866351,8.8395651 C 19.614094,9.3647908 19.424663,9.8530444 19.223214,10.40067 l -0.641741,0.643136 0.733817,0.644531 0.919364,0.184152 -0.182757,-1.195592 V 9.8482144 l 0.366909,-0.4589843 v -0.549665 z m 1.378348,1.1941969 -0.366909,0.825892 0.827288,0.458985 0.09208,-1.100726 z m -10.751953,9.832589 0.277623,0.182756 -0.369699,1.379744 -0.6417413,0.733816 c -0.3816993,1.124302 -0.7864386,2.233122 -1.2876672,3.307757 -0.275927,0 -0.557395,0.01766 -0.8258931,0 L 8.2885044,24.736607 7.920201,23.907924 8.5633373,23.174107 9.666853,20.876395 Z"
       id="path3" />
    <path
       fill="#ffffff"
       opacity="0.2"
       d="M 24,4 C 12.92,4 4,12.92 4,24 4,24.168 4.0076,24.333 4.0117,24.5 4.2764,13.654 13.088,5 23.9997,5 c 10.9117,0 19.724,8.654 19.988,19.5 0.004,-0.167 0.012,-0.332 0.012,-0.5 0,-11.08 -8.92,-20 -20,-20 z"
       id="path4" />
    <path
       style="opacity:0.2"
       d="m 18.027968,11.971515 a 1.8940773,1.8940773 0 0 0 -1.634766,0.894531 l -2.554687,4.105469 -2.552735,4.105469 a 1.8940773,1.8940773 0 0 0 1.609375,2.894531 h 3.105469 v 12 a 2.0002,2.0002 0 1 0 4,0 v -12 h 3.105469 a 1.8940773,1.8940773 0 0 0 1.609375,-2.894531 l -2.552735,-4.105469 -2.554687,-4.105469 a 1.8940773,1.8940773 0 0 0 -1.580078,-0.894531 z"
       id="path5" />
    <path
       style="fill:#f2f2f2;fill-opacity:1"
       d="m 18.027968,10.971515 a 1.8940773,1.8940773 0 0 0 -1.634766,0.894531 l -2.554687,4.105469 -2.552735,4.105469 a 1.8940773,1.8940773 0 0 0 1.609375,2.894531 h 3.105469 v 12 a 2.0002,2.0002 0 1 0 4,0 v -12 h 3.105469 a 1.8940773,1.8940773 0 0 0 1.609375,-2.894531 l -2.552735,-4.105469 -2.554687,-4.105469 a 1.8940773,1.8940773 0 0 0 -1.580078,-0.894531 z"
       id="path6" />
    <path
       style="opacity:0.2"
       d="m 29.97328,37.999824 a 1.8940773,1.8940773 0 0 0 1.634766,-0.894531 l 2.554687,-4.105469 2.552735,-4.105469 a 1.8940773,1.8940773 0 0 0 -1.609375,-2.894531 h -3.105469 v -12 a 2.0002,2.0002 0 1 0 -4,0 v 12 h -3.105469 a 1.8940773,1.8940773 0 0 0 -1.609375,2.894531 l 2.552735,4.105469 2.554687,4.105469 a 1.8940773,1.8940773 0 0 0 1.580078,0.894531 z"
       id="path7" />
    <path
       style="fill:#f2f2f2;fill-opacity:1"
       d="m 29.97328,36.999824 a 1.8940773,1.8940773 0 0 0 1.634766,-0.894531 l 2.554687,-4.105469 2.552735,-4.105469 a 1.8940773,1.8940773 0 0 0 -1.609375,-2.894531 h -3.105469 v -12 a 2.0002,2.0002 0 1 0 -4,0 v 12 h -3.105469 a 1.8940773,1.8940773 0 0 0 -1.609375,2.894531 l 2.552735,4.105469 2.554687,4.105469 a 1.8940773,1.8940773 0 0 0 1.580078,0.894531 z"
       id="path8" />
  </g>
</svg>
