<?xml version="1.0" encoding="UTF-8" standalone="no"?>
<svg
   width="64"
   height="64"
   version="1.1"
   id="svg11"
   sodipodi:docname="org.kde.plasma.systemmonitor.svg"
   inkscape:version="1.4 (unknown)"
   xmlns:inkscape="http://www.inkscape.org/namespaces/inkscape"
   xmlns:sodipodi="http://sodipodi.sourceforge.net/DTD/sodipodi-0.dtd"
   xmlns="http://www.w3.org/2000/svg"
   xmlns:svg="http://www.w3.org/2000/svg">
  <defs
     id="defs11" />
  <sodipodi:namedview
     id="namedview11"
     pagecolor="#ffffff"
     bordercolor="#000000"
     borderopacity="0.25"
     inkscape:showpageshadow="2"
     inkscape:pageopacity="0.0"
     inkscape:pagecheckerboard="0"
     inkscape:deskcolor="#d1d1d1"
     inkscape:zoom="8.0729167"
     inkscape:cx="35.860645"
     inkscape:cy="31.525161"
     inkscape:window-width="1920"
     inkscape:window-height="998"
     inkscape:window-x="0"
     inkscape:window-y="0"
     inkscape:window-maximized="1"
     inkscape:current-layer="svg11" />
  <g
     id="g11"
     transform="matrix(1.375,0,0,1.3658537,-0.99999993,-1.4634157)">
    <path
       style="opacity:0.2"
       d="M 24.000003,5 C 12.964693,5 3.9999999,13.964688 3.9999999,24.999999 3.9999999,36.03531 12.964693,45.000003 24.000003,45 35.035308,45 44.00001,36.03531 44,24.999999 44,13.964688 35.035308,5 24.000003,5 Z"
       id="path1" />
    <path
       style="fill:#2d3d53;fill-opacity:1"
       d="M 24.000003,4 C 12.964693,4 3.9999999,12.964688 3.9999999,23.999999 3.9999999,35.03531 12.964693,44.000003 24.000003,44 35.035308,44 44.00001,35.03531 44,23.999999 44,12.964688 35.035308,4 24.000003,4 Z"
       id="path2" />
    <path
       style="opacity:0.3"
       d="M 24,8 C 15.187133,8 8,15.187133 8,24 8,32.812867 15.187133,40 24,40 32.812867,40 40,32.812867 40,24 40,15.187133 32.812867,8 24,8 Z m 0,4 c 6.651106,0 12,5.348894 12,12 0,6.651106 -5.348894,12 -12,12 -6.651106,0 -12,-5.348894 -12,-12 0,-6.651106 5.348894,-12 12,-12 z"
       id="path3" />
    <path
       style="fill:none"
       d="M 12.783028,33.958893 A 15,15 0 0 1 10.768097,16.934821 15,15 0 0 1 26.035734,9.1387825"
       id="path4" />
    <path
       style="opacity:0.1;fill:#ffffff"
       d="M 24,4 C 12.96469,4 4,12.964689 4,24 4,24.167832 4.0076,24.33315 4.011719,24.5 4.2786829,13.696116 13.132522,5 24,5 34.867473,5 43.721317,13.696116 43.988281,24.5 43.992404,24.33315 44,24.167832 44,24 44,12.964689 35.035305,4 24,4 Z"
       id="path5" />
    <path
       style="opacity:0.2"
       d="m 22.119141,9.1129347 c -3.025605,0.358104 -5.94923,1.5765373 -8.382813,3.6113273 -4.8671658,4.069583 -6.8715803,10.64584 -5.1015624,16.738282 1.7700184,6.092441 6.9872684,10.572286 13.2773434,11.40039 a 2.000464,2.000464 0 1 0 0.521485,-3.966797 c -4.726677,-0.622278 -8.626952,-3.970663 -9.957032,-8.548828 -1.330079,-4.578164 0.168741,-9.494647 3.826172,-12.552734 3.657432,-3.058087 8.762931,-3.662751 13.033204,-1.542969 a 2.0002432,2.0002432 0 1 0 1.777343,-3.583984 C 28.271926,9.2571612 25.144745,8.7548308 22.119141,9.1129347 Z"
       id="path6" />
    <path
       style="fill:#37c871"
       d="m 23.273438,8.0175781 c -2.669961,0.1212423 -5.307841,0.9107177 -7.65625,2.3554689 a 2.0002,2.0002 0 1 0 2.095703,3.40625 c 3.526653,-2.169612 7.91427,-2.368397 11.623047,-0.527344 A 2.0002432,2.0002432 0 1 0 31.113281,9.6679688 C 28.643596,8.4420062 25.943398,7.8963359 23.273438,8.0175781 Z"
       id="path7" />
    <path
       style="fill:#c83771"
       d="m 16.892578,9.9609375 a 2.0002,2.0002 0 0 0 -1.085937,0.2949215 c -4.170363,2.486035 -6.9869859,6.73587 -7.6542972,11.544922 a 2.0002,2.0002 0 1 0 3.9609372,0.550781 c 0.500838,-3.609344 2.612201,-6.792356 5.742188,-8.658203 A 2.0002,2.0002 0 0 0 16.892578,9.9609375 Z"
       id="path8" />
    <path
       style="fill:#0066ff"
       d="m 10.109375,20.314453 a 2.0002,2.0002 0 0 0 -1.9960938,1.791016 c -0.4703715,3.944655 0.5424973,7.923932 2.8437498,11.162109 A 2.0002842,2.0002842 0 1 0 14.21875,30.951172 C 12.492245,28.521743 11.73109,25.53954 12.083984,22.580078 a 2.0002,2.0002 0 0 0 -1.974609,-2.265625 z"
       id="path9" />
    <path
       style="fill:#ffcc00"
       d="m 13.076172,30.730469 a 2.0002,2.0002 0 0 0 -1.5625,3.273437 c 2.580246,3.220673 6.306951,5.320721 10.398437,5.859375 a 2.000464,2.000464 0 1 0 0.521485,-3.966797 c -3.06978,-0.404144 -5.862909,-1.978109 -7.798828,-4.394531 a 2.0002,2.0002 0 0 0 -1.558594,-0.771484 z"
       id="path10" />
    <path
       style="opacity:0.2;fill:#ffffff"
       d="m 24.400391,8.0058594 c -0.763045,-0.018774 -1.524849,0.017896 -2.28125,0.1074218 -3.025605,0.3581041 -5.94923,1.5765374 -8.382813,3.6113278 -3.8161171,3.19077 -5.8617452,7.922615 -5.7187499,12.753907 0.1482256,-4.477757 2.1666779,-8.783912 5.7187499,-11.753907 2.433583,-2.03479 5.357208,-3.2532237 8.382813,-3.6113278 3.025604,-0.3581038 6.152785,0.1442267 8.99414,1.5546878 a 2.0002432,2.0002432 0 0 1 1.046875,1.291015 2.0002432,2.0002432 0 0 0 -1.046875,-2.2910152 C 28.982265,8.6101229 26.689525,8.0621801 24.400391,8.0058594 Z M 12.015625,24.511719 c -0.05156,1.273697 0.09241,2.567459 0.460937,3.835937 1.330081,4.578165 5.230355,7.92655 9.957032,8.548828 a 2.000464,2.000464 0 0 1 1.673828,1.484375 2.000464,2.000464 0 0 0 -1.673828,-2.484375 c -4.726677,-0.622278 -8.626951,-3.970663 -9.957032,-8.548828 -0.272417,-0.937667 -0.420096,-1.888759 -0.460937,-2.835937 z"
       id="path11" />
  </g>
</svg>
