<?xml version="1.0" encoding="UTF-8" standalone="no"?>
<svg
   width="62"
   height="62"
   version="1"
   id="svg3"
   sodipodi:docname="kapman.svg"
   inkscape:version="1.4 (e7c3feb100, 2024-10-09)"
   xmlns:inkscape="http://www.inkscape.org/namespaces/inkscape"
   xmlns:sodipodi="http://sodipodi.sourceforge.net/DTD/sodipodi-0.dtd"
   xmlns="http://www.w3.org/2000/svg"
   xmlns:svg="http://www.w3.org/2000/svg">
  <defs
     id="defs3" />
  <sodipodi:namedview
     id="namedview3"
     pagecolor="#ffffff"
     bordercolor="#000000"
     borderopacity="0.25"
     inkscape:showpageshadow="2"
     inkscape:pageopacity="0.0"
     inkscape:pagecheckerboard="0"
     inkscape:deskcolor="#d1d1d1"
     inkscape:zoom="11.6875"
     inkscape:cx="31.957219"
     inkscape:cy="32"
     inkscape:window-width="1920"
     inkscape:window-height="994"
     inkscape:window-x="0"
     inkscape:window-y="0"
     inkscape:window-maximized="1"
     inkscape:current-layer="svg3" />
  <g
     id="g3"
     transform="matrix(1.0107217,0,0,1,-3.075053,-3)">
    <path
       style="fill:#ffcc00;stroke-width:1.05664"
       d="M 34.47275,6 C 19.253432,6 7.0010568,18.252376 7.0010568,33.471702 c 0,15.219318 12.2523752,27.471692 27.4716932,27.471692 9.354966,0 17.589288,-4.629406 22.545818,-11.73147 L 34.47275,33.47275 60.427172,24.413432 C 56.699472,13.672 46.513808,6.0010568 34.47275,6.0010568 Z"
       id="path1" />
    <circle
       style="fill:#3f3f3f;stroke-width:1.05664"
       cx="36.585976"
       cy="18.679249"
       r="4.2264166"
       id="circle1" />
    <path
       style="opacity:0.2;stroke-width:1.05664"
       d="m 60.063702,24.542336 -25.592,8.929366 1.009048,0.703692 24.945366,-8.704298 C 60.31728,25.155172 60.184154,24.851924 60.063702,24.542336 Z M 7.0147924,34 c -0.0034,0.176452 -0.014476,0.350788 -0.014476,0.528298 C 7.0003172,49.747624 19.252696,62 34.472014,62 43.827186,62 52.061302,57.369962 57.01783,50.267472 l -0.515624,-0.3603 C 51.501302,56.61026 43.514428,60.943394 34.472014,60.943394 19.430206,60.943394 7.2951096,48.972076 7.0151096,34 Z"
       id="path2" />
    <path
       style="opacity:0.2;fill:#ffffff;stroke-width:1.05664"
       d="M 34.471702,6 C 19.252376,6 7,18.252376 7,33.471702 7,33.649212 7.0110942,33.823548 7.014475,34 7.2952154,19.027924 19.429572,7.0566038 34.47138,7.0566038 c 11.687096,0 21.609664,7.2377322 25.592,17.4857322 L 60.425794,24.41449 C 56.698102,13.673058 46.512438,6 34.47138,6 Z m 1.009048,28.175394 -1.009048,0.352904 22.030182,15.378874 c 0.172232,-0.231402 0.34974,-0.458566 0.515626,-0.696306 z"
       id="path3" />
  </g>
</svg>
