<?xml version="1.0" encoding="UTF-8" standalone="no"?>
<svg
   clip-rule="evenodd"
   fill-rule="evenodd"
   stroke-linecap="round"
   stroke-linejoin="round"
   viewBox="0 0 62 62"
   version="1.1"
   id="svg11"
   sodipodi:docname="org.pipewire.Helvum.svg"
   width="62"
   height="62"
   inkscape:version="1.4 (unknown)"
   xmlns:inkscape="http://www.inkscape.org/namespaces/inkscape"
   xmlns:sodipodi="http://sodipodi.sourceforge.net/DTD/sodipodi-0.dtd"
   xmlns="http://www.w3.org/2000/svg"
   xmlns:svg="http://www.w3.org/2000/svg">
  <defs
     id="defs11" />
  <sodipodi:namedview
     id="namedview11"
     pagecolor="#ffffff"
     bordercolor="#000000"
     borderopacity="0.25"
     inkscape:showpageshadow="2"
     inkscape:pageopacity="0.0"
     inkscape:pagecheckerboard="0"
     inkscape:deskcolor="#d1d1d1"
     inkscape:zoom="8.0729167"
     inkscape:cx="25.083871"
     inkscape:cy="22.35871"
     inkscape:window-width="1920"
     inkscape:window-height="998"
     inkscape:window-x="0"
     inkscape:window-y="0"
     inkscape:window-maximized="1"
     inkscape:current-layer="svg11" />
  <linearGradient
     id="a"
     x2="1"
     gradientTransform="matrix(0,-34.094031,33.269515,0,912.09154,40.291453)"
     gradientUnits="userSpaceOnUse">
    <stop
       stop-color="#d9dedf"
       offset="0"
       id="stop1" />
    <stop
       stop-color="#fff"
       offset="1"
       id="stop2" />
  </linearGradient>
  <g
     id="g12"
     transform="matrix(1.2691521,0,0,1.2740125,0.54033627,0.81773557)">
    <path
       d="M 39.210268,45.572273 H 8.7131477 c -3.3953728,0 -6.1507799,-2.823693 -6.1507799,-6.303215 V 8.0161216 c 0,-3.4795204 2.7554071,-6.3032147 6.1507799,-6.3032147 H 39.210268 c 3.395373,0 6.150781,2.8236943 6.150781,6.3032147 V 39.269058 c 0,3.479522 -2.755408,6.303215 -6.150781,6.303215 z"
       fill="url(#a)"
       id="path2"
       style="fill:url(#a);stroke-width:0.999784" />
    <path
       d="m 45.668021,33.346644 v 6.09387 c 0,3.437991 -2.790014,6.228005 -6.228005,6.228005 H 8.5600062 c -3.437991,0 -6.2280052,-2.790014 -6.2280052,-6.228005 v -6.09387 z"
       id="path3"
       style="fill:#212d3e;fill-opacity:1;stroke-width:1.03181" />
    <path
       d="m 40.249,16.101 c 1.437,0 2.815,0.571 3.832,1.587 1.016,1.017 1.587,2.395 1.587,3.833 v 11.825 c 0,1.438 -0.571,2.816 -1.587,3.832 -1.017,1.017 -2.395,1.588 -3.832,1.588 H 7.751 C 6.314,38.766 4.936,38.195 3.919,37.178 2.903,36.162 2.332,34.784 2.332,33.346 V 21.521 c 0,-1.438 0.571,-2.816 1.587,-3.833 1.017,-1.016 2.395,-1.587 3.832,-1.587 z"
       fill="#77767b"
       id="path4"
       style="fill:#466386;fill-opacity:1" />
    <path
       d="m 37.92945,25.868083 h 1.03181 v 5.15905 h -1.03181 z m -28.89068,0 h 1.03181 v 5.15905 H 9.03877 Z m 14.44534,0 h 1.03181 v 5.15905 h -1.03181 z"
       fill="#8a8a8a"
       id="path5"
       style="stroke-width:1.03181" />
    <g
       transform="matrix(1.03181,0,0,1.03181,-0.763429,2.65236)"
       id="g11">
      <path
         d="m 28,20 c 0,1.656 -1.791,3 -4,3 -2.209,0 -4,-1.344 -4,-3 0,-1.658 1.791,-3 4,-3 2.209,0 4,1.342 4,3 z m -14,0 c 0,1.657 -1.79,3 -4,3 -2.209,0 -4,-1.343 -4,-3 0,-1.656 1.791,-3 4,-3 2.21,0 4,1.344 4,3 z m 28,0 c 0,1.656 -1.791,3 -4,3 -2.209,0 -4,-1.344 -4,-3 0,-1.658 1.791,-3 4,-3 2.209,0 4,1.342 4,3 z"
         fill="#5f94ff"
         id="path6"
         style="fill:#80b3ff;fill-opacity:1" />
      <path
         d="m 7,13 v 6.706 C 7.001,20.972 8.344,22 9.999,22 c 1.655,0 2.998,-1.025 3,-2.291 V 19.706 L 13,13 C 12.524,13.962 11.331,14.332 9.999,14.332 8.669,14.332 7.477,13.962 7,13 Z"
         fill="#b4b4b4"
         fill-rule="nonzero"
         id="path7" />
      <path
         d="m 13,13 c 0,1.104 -1.343,2 -3.001,2 C 8.343,15 7,14.104 7,13 7,11.896 8.343,11 9.999,11 11.657,11 13,11.896 13,13 Z"
         fill="#dfdfdf"
         fill-rule="nonzero"
         id="path8" />
      <path
         d="m 10,12 c 0,-6.752 3.255,-7.507 5.072,-7.507 8.319,0 23.826,-0.021 23.826,-0.021"
         fill="none"
         stroke="#458fe6"
         stroke-width="4"
         id="path9" />
      <path
         d="m 28,30 c 0,1.656 -1.791,3 -4,3 -2.209,0 -4,-1.344 -4,-3 0,-1.658 1.791,-3 4,-3 2.209,0 4,1.342 4,3 z m 14,0 c 0,1.656 -1.791,3 -4,3 -2.209,0 -4,-1.344 -4,-3 0,-1.658 1.791,-3 4,-3 2.209,0 4,1.342 4,3 z m -28,0 c 0,1.656 -1.791,3 -4,3 -2.209,0 -4,-1.344 -4,-3 0,-1.658 1.791,-3 4,-3 2.209,0 4,1.342 4,3 z"
         fill="#ea5259"
         id="path10"
         style="fill:#c83771" />
      <path
         d="m 41,20 c 0,1.104 -1.343,2 -3,2 -1.657,0 -3,-0.896 -3,-2 0,-1.104 1.343,-2 3,-2 1.657,0 3,0.896 3,2 z M 27,30 c 0,1.104 -1.343,2 -3,2 -1.657,0 -3,-0.896 -3,-2 0,-1.104 1.343,-2 3,-2 1.657,0 3,0.896 3,2 z m 14,0 c 0,1.104 -1.343,2 -3,2 -1.657,0 -3,-0.896 -3,-2 0,-1.104 1.343,-2 3,-2 1.657,0 3,0.896 3,2 z m -28,0 c 0,1.104 -1.343,2 -3,2 -1.657,0 -3,-0.896 -3,-2 0,-1.104 1.343,-2 3,-2 1.657,0 3,0.896 3,2 z M 27,20 c 0,1.104 -1.343,2 -3,2 -1.657,0 -3,-0.896 -3,-2 0,-1.104 1.343,-2 3,-2 1.657,0 3,0.896 3,2 z"
         fill="#3d3846"
         id="path11"
         style="fill:#1f2a39;fill-opacity:1" />
    </g>
  </g>
</svg>
