<?xml version="1.0" encoding="UTF-8" standalone="no"?>
<svg
   width="62"
   height="62"
   version="1"
   id="svg7"
   sodipodi:docname="org.kde.plasma.systemmonitor.cpucore.svg"
   inkscape:version="1.4 (unknown)"
   xmlns:inkscape="http://www.inkscape.org/namespaces/inkscape"
   xmlns:sodipodi="http://sodipodi.sourceforge.net/DTD/sodipodi-0.dtd"
   xmlns:xlink="http://www.w3.org/1999/xlink"
   xmlns="http://www.w3.org/2000/svg"
   xmlns:svg="http://www.w3.org/2000/svg">
  <defs
     id="defs7">
    <linearGradient
       id="linearGradient7"
       inkscape:collect="always">
      <stop
         style="stop-color:#2d3d53;stop-opacity:1;"
         offset="0"
         id="stop7" />
      <stop
         style="stop-color:#374762;stop-opacity:1;"
         offset="1"
         id="stop8" />
    </linearGradient>
    <linearGradient
       inkscape:collect="always"
       xlink:href="#linearGradient7"
       id="linearGradient8"
       x1="23.323872"
       y1="44"
       x2="23.251614"
       y2="5"
       gradientUnits="userSpaceOnUse" />
  </defs>
  <sodipodi:namedview
     id="namedview7"
     pagecolor="#ffffff"
     bordercolor="#000000"
     borderopacity="0.25"
     inkscape:showpageshadow="2"
     inkscape:pageopacity="0.0"
     inkscape:pagecheckerboard="0"
     inkscape:deskcolor="#d1d1d1"
     inkscape:zoom="8.0729167"
     inkscape:cx="54.193548"
     inkscape:cy="27.189677"
     inkscape:window-width="1920"
     inkscape:window-height="998"
     inkscape:window-x="0"
     inkscape:window-y="0"
     inkscape:window-maximized="1"
     inkscape:current-layer="svg7" />
  <g
     id="g8"
     transform="matrix(1.375,0,0,1.3658537,-2,-2.4634157)">
    <rect
       style="opacity:0.2"
       width="40"
       height="40"
       x="4"
       y="5"
       rx="12"
       ry="12"
       id="rect1" />
    <rect
       style="fill:url(#linearGradient8)"
       width="40"
       height="40"
       x="4"
       y="4"
       rx="12"
       ry="12"
       id="rect2" />
    <path
       style="opacity:0.1;fill:#ffffff"
       d="M 16,4 C 9.352,4 4,9.352 4,16 v 1 C 4,10.352 9.352,5 16,5 h 16 c 6.648,0 12,5.352 12,12 V 16 C 44,9.352 38.648,4 32,4 Z"
       id="path2" />
    <path
       style="opacity:0.3"
       d="m 9,10 v 28 h 6 V 10 Z m 8,0 v 28 h 6 V 10 Z m 8,0 v 28 h 6 V 10 Z m 8,0 v 28 h 6 V 10 Z"
       id="path3" />
    <rect
       style="fill:#3384ff;fill-opacity:1"
       width="6"
       height="12"
       x="25"
       y="26"
       id="rect3" />
    <rect
       style="fill:#c83771"
       width="6"
       height="18"
       x="33"
       y="20"
       id="rect4" />
    <rect
       style="fill:#ffcc00"
       width="6"
       height="4"
       x="9"
       y="34"
       id="rect5" />
    <rect
       style="fill:#00b276;fill-opacity:1"
       width="6"
       height="23"
       x="17"
       y="15"
       id="rect6" />
    <path
       style="opacity:0.2"
       d="m 9,38 v 1 h 6 v -1 z m 8,0 v 1 h 6 v -1 z m 8,0 v 1 h 6 v -1 z m 8,0 v 1 h 6 v -1 z"
       id="path6" />
    <path
       style="opacity:0.2;fill:#ffffff"
       d="m 17,15 v 1 h 6 v -1 z m 16,5 v 1 h 6 v -1 z m -8,6 v 1 h 6 V 26 Z M 9,34 v 1 h 6 v -1 z"
       id="path7" />
  </g>
</svg>
