<?xml version="1.0" encoding="UTF-8" standalone="no"?>
<svg
   width="64"
   height="64"
   viewBox="0 0 16.933333 16.933334"
   version="1.1"
   id="svg1443"
   inkscape:version="1.4 (unknown)"
   sodipodi:docname="org.emilien.SpaceLaunch.svg"
   xmlns:inkscape="http://www.inkscape.org/namespaces/inkscape"
   xmlns:sodipodi="http://sodipodi.sourceforge.net/DTD/sodipodi-0.dtd"
   xmlns:xlink="http://www.w3.org/1999/xlink"
   xmlns="http://www.w3.org/2000/svg"
   xmlns:svg="http://www.w3.org/2000/svg"
   xmlns:rdf="http://www.w3.org/1999/02/22-rdf-syntax-ns#"
   xmlns:cc="http://creativecommons.org/ns#"
   xmlns:dc="http://purl.org/dc/elements/1.1/">
  <defs
     id="defs1437">
    <linearGradient
       inkscape:collect="always"
       id="linearGradient2">
      <stop
         style="stop-color:#dacbf1;stop-opacity:1;"
         offset="0"
         id="stop1" />
      <stop
         style="stop-color:#eae2f7;stop-opacity:1;"
         offset="1"
         id="stop2" />
    </linearGradient>
    <linearGradient
       inkscape:collect="always"
       id="linearGradient961">
      <stop
         style="stop-color:#8d5fd3;stop-opacity:1"
         offset="0"
         id="stop957" />
      <stop
         style="stop-color:#c6afe9;stop-opacity:1"
         offset="1"
         id="stop959" />
    </linearGradient>
    <filter
       color-interpolation-filters="sRGB"
       height="1.1311001"
       width="1.1106"
       y="-0.065563001"
       x="-0.055319"
       id="c-9">
      <feGaussianBlur
         id="feGaussianBlur1093"
         stdDeviation="1.1062912" />
    </filter>
    <linearGradient
       gradientUnits="userSpaceOnUse"
       gradientTransform="matrix(0.13235,0,0,0.13075,-32.379,1.0873)"
       y2="269.48999"
       y1="235.14999"
       x2="657.65002"
       x1="319.20999"
       id="a-12">
      <stop
         id="stop1076"
         offset="0"
         stop-color="#e54c18" />
      <stop
         id="stop1078"
         offset="1"
         stop-color="#fec350" />
    </linearGradient>
    <radialGradient
       inkscape:collect="always"
       xlink:href="#linearGradient961"
       id="radialGradient963"
       cx="16.951138"
       cy="2.5104072"
       fx="16.951138"
       fy="2.5104072"
       r="14.543719"
       gradientUnits="userSpaceOnUse"
       gradientTransform="matrix(3.447624,0,0,1.079174,-49.97448,-1.2803824)" />
    <linearGradient
       id="linearGradient4146-2">
      <stop
         style="stop-color:#f6f6f6;stop-opacity:1;"
         offset="0"
         id="stop4148-2" />
      <stop
         style="stop-color:#e2e2e2;stop-opacity:1;"
         offset="1"
         id="stop4150-8" />
    </linearGradient>
    <linearGradient
       inkscape:collect="always"
       xlink:href="#linearGradient2"
       id="linearGradient1395"
       x1="33.692123"
       y1="31.353519"
       x2="33.692123"
       y2="231.08194"
       gradientUnits="userSpaceOnUse"
       gradientTransform="matrix(0.12778238,0,0,0.12778238,0.27999512,0.21636484)" />
  </defs>
  <sodipodi:namedview
     id="base"
     pagecolor="#ffffff"
     bordercolor="#666666"
     borderopacity="1.0"
     inkscape:pageopacity="0.0"
     inkscape:pageshadow="2"
     inkscape:zoom="1.4"
     inkscape:cx="107.5"
     inkscape:cy="47.5"
     inkscape:document-units="px"
     inkscape:current-layer="layer1"
     inkscape:document-rotation="0"
     showgrid="false"
     units="px"
     inkscape:window-width="1920"
     inkscape:window-height="998"
     inkscape:window-x="0"
     inkscape:window-y="0"
     inkscape:window-maximized="1"
     showguides="true"
     inkscape:guide-bbox="true"
     inkscape:pagecheckerboard="0"
     inkscape:showpageshadow="2"
     inkscape:deskcolor="#d1d1d1" />
  <metadata
     id="metadata1440">
    <rdf:RDF>
      <cc:Work
         rdf:about="">
        <dc:format>image/svg+xml</dc:format>
        <dc:type
           rdf:resource="http://purl.org/dc/dcmitype/StillImage" />
      </cc:Work>
    </rdf:RDF>
  </metadata>
  <g
     inkscape:label="Capa 1"
     inkscape:groupmode="layer"
     id="layer1">
    <g
       style="opacity:0.295"
       transform="matrix(0.47123666,0,0,0.47123666,-31.468261,-17.741189)"
       id="g1702">
      <rect
         ry="6.6098609"
         rx="6.6098609"
         y="40.709618"
         x="69.839508"
         height="29.810888"
         width="29.810888"
         id="rect1634"
         style="fill:none;fill-opacity:1;stroke:#000000;stroke-width:0.1;stroke-linecap:round;stroke-linejoin:round;stroke-miterlimit:4;stroke-dasharray:none;stroke-opacity:0.02" />
      <rect
         style="fill:none;fill-opacity:1;stroke:#000000;stroke-width:0.2;stroke-linecap:round;stroke-linejoin:round;stroke-miterlimit:4;stroke-dasharray:none;stroke-opacity:0.02"
         id="rect1638"
         width="29.810888"
         height="29.810888"
         x="69.839508"
         y="40.709618"
         rx="6.6098609"
         ry="6.6098609" />
      <rect
         ry="6.6098609"
         rx="6.6098609"
         y="40.709618"
         x="69.839508"
         height="29.810888"
         width="29.810888"
         id="rect1640"
         style="fill:none;fill-opacity:1;stroke:#000000;stroke-width:0.3;stroke-linecap:round;stroke-linejoin:round;stroke-miterlimit:4;stroke-dasharray:none;stroke-opacity:0.02" />
      <rect
         style="fill:none;fill-opacity:1;stroke:#000000;stroke-width:0.4;stroke-linecap:round;stroke-linejoin:round;stroke-miterlimit:4;stroke-dasharray:none;stroke-opacity:0.02"
         id="rect1642"
         width="29.810888"
         height="29.810888"
         x="69.839508"
         y="40.709618"
         rx="6.6098609"
         ry="6.6098609" />
      <rect
         ry="6.6098609"
         rx="6.6098609"
         y="40.709618"
         x="69.839508"
         height="29.810888"
         width="29.810888"
         id="rect1644"
         style="fill:none;fill-opacity:1;stroke:#000000;stroke-width:0.5;stroke-linecap:round;stroke-linejoin:round;stroke-miterlimit:4;stroke-dasharray:none;stroke-opacity:0.02" />
      <rect
         style="fill:none;fill-opacity:1;stroke:#000000;stroke-width:0.6;stroke-linecap:round;stroke-linejoin:round;stroke-miterlimit:4;stroke-dasharray:none;stroke-opacity:0.02"
         id="rect1646"
         width="29.810888"
         height="29.810888"
         x="69.839508"
         y="40.709618"
         rx="6.6098609"
         ry="6.6098609" />
      <rect
         ry="6.6098609"
         rx="6.6098609"
         y="40.709618"
         x="69.839508"
         height="29.810888"
         width="29.810888"
         id="rect1648"
         style="fill:none;fill-opacity:1;stroke:#000000;stroke-width:0.7;stroke-linecap:round;stroke-linejoin:round;stroke-miterlimit:4;stroke-dasharray:none;stroke-opacity:0.02" />
      <rect
         style="fill:none;fill-opacity:1;stroke:#000000;stroke-width:0.8;stroke-linecap:round;stroke-linejoin:round;stroke-miterlimit:4;stroke-dasharray:none;stroke-opacity:0.02"
         id="rect1650"
         width="29.810888"
         height="29.810888"
         x="69.839508"
         y="40.709618"
         rx="6.6098609"
         ry="6.6098609" />
      <rect
         ry="6.6098609"
         rx="6.6098609"
         y="40.709618"
         x="69.839508"
         height="29.810888"
         width="29.810888"
         id="rect1652"
         style="fill:none;fill-opacity:1;stroke:#000000;stroke-width:1;stroke-linecap:round;stroke-linejoin:round;stroke-miterlimit:4;stroke-dasharray:none;stroke-opacity:0.02" />
      <rect
         style="fill:none;fill-opacity:1;stroke:#000000;stroke-width:1.2;stroke-linecap:round;stroke-linejoin:round;stroke-miterlimit:4;stroke-dasharray:none;stroke-opacity:0.02"
         id="rect1654"
         width="29.810888"
         height="29.810888"
         x="69.839508"
         y="40.709618"
         rx="6.6098609"
         ry="6.6098609" />
      <rect
         ry="6.6098609"
         rx="6.6098609"
         y="40.709618"
         x="69.839508"
         height="29.810888"
         width="29.810888"
         id="rect1656"
         style="fill:none;fill-opacity:1;stroke:#000000;stroke-width:1.4;stroke-linecap:round;stroke-linejoin:round;stroke-miterlimit:4;stroke-dasharray:none;stroke-opacity:0.02" />
      <rect
         style="fill:none;fill-opacity:1;stroke:#000000;stroke-width:1.6;stroke-linecap:round;stroke-linejoin:round;stroke-miterlimit:4;stroke-dasharray:none;stroke-opacity:0.02"
         id="rect1658"
         width="29.810888"
         height="29.810888"
         x="69.839508"
         y="40.709618"
         rx="6.6098609"
         ry="6.6098609" />
      <rect
         ry="6.6098609"
         rx="6.6098609"
         y="40.709618"
         x="69.839508"
         height="29.810888"
         width="29.810888"
         id="rect1660"
         style="fill:none;fill-opacity:1;stroke:#000000;stroke-width:1.8;stroke-linecap:round;stroke-linejoin:round;stroke-miterlimit:4;stroke-dasharray:none;stroke-opacity:0.02" />
      <rect
         style="fill:none;fill-opacity:1;stroke:#000000;stroke-width:2;stroke-linecap:round;stroke-linejoin:round;stroke-miterlimit:4;stroke-dasharray:none;stroke-opacity:0.02"
         id="rect1662"
         width="29.810888"
         height="29.810888"
         x="69.839508"
         y="40.709618"
         rx="6.6098609"
         ry="6.6098609" />
      <rect
         ry="6.6098609"
         rx="6.6098609"
         y="40.709618"
         x="69.839508"
         height="29.810888"
         width="29.810888"
         id="rect1664"
         style="fill:none;fill-opacity:1;stroke:#000000;stroke-width:2.2;stroke-linecap:round;stroke-linejoin:round;stroke-miterlimit:4;stroke-dasharray:none;stroke-opacity:0.02" />
      <rect
         style="fill:none;fill-opacity:1;stroke:#000000;stroke-width:2.6;stroke-linecap:round;stroke-linejoin:round;stroke-miterlimit:4;stroke-dasharray:none;stroke-opacity:0.02"
         id="rect1666"
         width="29.810888"
         height="29.810888"
         x="69.839508"
         y="40.709618"
         rx="6.6098609"
         ry="6.6098609" />
      <rect
         ry="6.6098609"
         rx="6.6098609"
         y="40.709618"
         x="69.839508"
         height="29.810888"
         width="29.810888"
         id="rect1668"
         style="fill:none;fill-opacity:1;stroke:#000000;stroke-width:3;stroke-linecap:round;stroke-linejoin:round;stroke-miterlimit:4;stroke-dasharray:none;stroke-opacity:0.02" />
      <rect
         style="fill:none;fill-opacity:1;stroke:#000000;stroke-width:3.4;stroke-linecap:round;stroke-linejoin:round;stroke-miterlimit:4;stroke-dasharray:none;stroke-opacity:0.02"
         id="rect1670"
         width="29.810888"
         height="29.810888"
         x="69.839508"
         y="40.709618"
         rx="6.6098609"
         ry="6.6098609" />
      <rect
         ry="6.6098609"
         rx="6.6098609"
         y="40.709618"
         x="69.839508"
         height="29.810888"
         width="29.810888"
         id="rect1672"
         style="fill:none;fill-opacity:1;stroke:#000000;stroke-width:3.8;stroke-linecap:round;stroke-linejoin:round;stroke-miterlimit:4;stroke-dasharray:none;stroke-opacity:0.02" />
      <rect
         style="fill:none;fill-opacity:1;stroke:#000000;stroke-width:4.2;stroke-linecap:round;stroke-linejoin:round;stroke-miterlimit:4;stroke-dasharray:none;stroke-opacity:0.02"
         id="rect1674"
         width="29.810888"
         height="29.810888"
         x="69.839508"
         y="40.709618"
         rx="6.6098609"
         ry="6.6098609" />
      <rect
         ry="6.6098609"
         rx="6.6098609"
         y="40.709618"
         x="69.839508"
         height="29.810888"
         width="29.810888"
         id="rect1676"
         style="fill:none;fill-opacity:1;stroke:#000000;stroke-width:4.6;stroke-linecap:round;stroke-linejoin:round;stroke-miterlimit:4;stroke-dasharray:none;stroke-opacity:0.02" />
      <rect
         style="fill:none;fill-opacity:1;stroke:#000000;stroke-width:5;stroke-linecap:round;stroke-linejoin:round;stroke-miterlimit:4;stroke-dasharray:none;stroke-opacity:0.02"
         id="rect1678"
         width="29.810888"
         height="29.810888"
         x="69.839508"
         y="40.709618"
         rx="6.6098609"
         ry="6.6098609" />
    </g>
    <rect
       ry="3.1148088"
       rx="3.1148088"
       y="1.4426755"
       x="1.4426749"
       height="14.047983"
       width="14.047983"
       id="rect849"
       style="fill:url(#radialGradient963);fill-opacity:1;stroke-width:1.29803;stroke-linecap:round;stroke-linejoin:round" />
    <g
       id="g1350"
       style="opacity:0.321854"
       transform="matrix(0.48295703,0,0,0.48295703,0.27999512,0.21636484)">
      <path
         id="path1230"
         style="fill:#450000;fill-opacity:0.176001;stroke-width:0.712743"
         d="m 23.744592,9.0635838 c -0.06946,-8.731e-4 -0.138804,-4.03e-4 -0.208256,0.00155 -0.833423,0.023436 -1.667247,0.2428639 -2.467033,0.4609536 -2.441718,0.7519996 -4.743965,2.2877266 -6.308658,4.3532226 -0.06977,0.07017 -0.119533,0.220749 -0.249081,0.190686 -0.538173,-0.01 -1.076712,-0.02119 -1.614888,-0.02119 -0.946788,0.01993 -1.852672,0.430034 -2.301152,1.272273 -0.528208,1.002669 -1.0367007,2.005421 -1.5549427,3.008086 -0.239186,0.461227 0.029447,1.297057 0.5177977,1.447456 0.328885,0.09024 0.667954,0.01912 0.996838,0.01912 0.697633,2e-6 1.262084,-0.04929 1.949752,-0.01912 0.109638,0.912428 0.710326,1.580185 1.457792,2.131653 0.637834,0.48128 1.465098,0.691956 2.262394,0.641822 0.169415,0.972585 0.318916,1.966042 0.488342,2.948657 0.119606,0.571521 0.887578,0.871318 1.35599,0.520381 0.896957,-0.71189 1.784013,-1.444354 2.680973,-2.166276 0.697632,-0.581547 1.066159,-1.513988 0.956531,-2.41639 -0.09967,-0.611626 -0.228858,-1.222061 -0.338481,-1.823661 1.853712,-1.945175 2.879115,-4.562336 3.178101,-7.209379 0.09967,-1.092906 0.181024,-2.236921 -0.177767,-3.2897213 -0.207422,-0.031962 -0.415874,-0.047508 -0.624252,-0.050126 z M 20.02699,12.627707 c 0.467049,0.0076 0.928933,0.203925 1.250053,0.546737 0.468415,0.46879 0.628431,1.209433 0.403593,1.837613 -0.234202,0.656306 -0.871509,1.143899 -1.564763,1.172022 -0.946192,0.09375 -1.855955,-0.704105 -1.893424,-1.651062 -0.07494,-0.843824 0.543985,-1.677043 1.368392,-1.855184 0.112414,-0.02812 0.22763,-0.04473 0.342615,-0.04909 0.03114,-0.0012 0.0624,-0.0015 0.09353,-10e-4 z m -8.670788,8.552966 c -0.114515,0.0049 -0.226014,0.04999 -0.300757,0.141594 -0.428549,0.508078 -0.866834,1.016376 -1.3053465,1.524454 -0.2092889,0.254039 -0.01004,0.693498 0.3188435,0.693498 0.259122,0 0.527912,-0.03873 0.787032,-0.05839 -0.139527,0.635094 -0.308522,1.260393 -0.448035,1.895491 -0.06977,0.302892 0.278756,0.585941 0.577742,0.468705 0.607939,-0.254039 1.205905,-0.518017 1.813843,-0.772046 0.0299,0.26381 0.03971,0.518018 0.07958,0.772046 0.0598,0.322425 0.538474,0.439548 0.747758,0.185519 0.43851,-0.508078 0.886987,-1.025726 1.3255,-1.543575 0.189357,-0.244268 0.02008,-0.635288 -0.288871,-0.674378 -1.265707,-0.28335 -2.352013,-1.181891 -2.86029,-2.354378 -0.05606,-0.183197 -0.256145,-0.286644 -0.447001,-0.278536 z" />
      <path
         id="path1340"
         style="fill:#450000;fill-opacity:0.176001;stroke-width:0.712743"
         d="m 23.833211,9.2835874 c -0.06946,-8.731e-4 -0.138804,-4.03e-4 -0.208256,0.00155 -0.833423,0.023436 -1.667247,0.2428639 -2.467033,0.4609536 -2.441718,0.752 -4.743965,2.287727 -6.308658,4.353223 -0.06977,0.07017 -0.119533,0.220749 -0.249081,0.190686 -0.538173,-0.01 -1.076712,-0.02119 -1.614888,-0.02119 -0.946788,0.01993 -1.852672,0.430034 -2.301152,1.272273 -0.528208,1.002669 -1.0367002,2.005421 -1.5549422,3.008086 -0.239186,0.461227 0.029447,1.297057 0.5177977,1.447456 0.328885,0.09024 0.6679535,0.01912 0.9968375,0.01912 0.697633,2e-6 1.262084,-0.04929 1.949752,-0.01912 0.109638,0.912428 0.710326,1.580185 1.457792,2.131653 0.637834,0.48128 1.465098,0.691956 2.262394,0.641822 0.169415,0.972585 0.318916,1.966042 0.488342,2.948657 0.119606,0.571521 0.887578,0.871318 1.35599,0.520381 0.896957,-0.71189 1.784013,-1.444354 2.680973,-2.166276 0.697632,-0.581547 1.066159,-1.513988 0.956531,-2.41639 -0.09967,-0.611626 -0.228858,-1.222061 -0.338481,-1.823661 1.853712,-1.945175 2.879115,-4.562336 3.178101,-7.209379 0.09967,-1.092906 0.181024,-2.236921 -0.177767,-3.2897217 -0.207422,-0.031962 -0.415874,-0.047508 -0.624252,-0.050126 z m -3.717602,3.5641236 c 0.467049,0.0076 0.928933,0.203925 1.250053,0.546737 0.468415,0.46879 0.628431,1.209433 0.403593,1.837613 -0.234202,0.656306 -0.871509,1.143899 -1.564763,1.172022 -0.946192,0.09375 -1.855955,-0.704105 -1.893424,-1.651062 -0.07494,-0.843824 0.543985,-1.677043 1.368392,-1.855184 0.112414,-0.02812 0.22763,-0.04473 0.342615,-0.04909 0.03114,-0.0012 0.0624,-0.0015 0.09353,-10e-4 z m -8.670788,8.552966 c -0.114515,0.0049 -0.226014,0.04999 -0.300757,0.141594 -0.428549,0.508078 -0.866834,1.016376 -1.305346,1.524454 -0.2092889,0.254039 -0.01004,0.693498 0.318843,0.693498 0.259122,0 0.527912,-0.03873 0.787032,-0.05839 -0.139527,0.635094 -0.308522,1.260393 -0.448035,1.895491 -0.06977,0.302892 0.278756,0.585941 0.577742,0.468705 0.607939,-0.254039 1.205905,-0.518017 1.813843,-0.772046 0.0299,0.26381 0.03971,0.518018 0.07958,0.772046 0.0598,0.322425 0.538474,0.439548 0.747758,0.185519 0.43851,-0.508078 0.886987,-1.025726 1.3255,-1.543575 0.189357,-0.244268 0.02008,-0.635288 -0.288871,-0.674378 -1.265707,-0.28335 -2.352013,-1.181891 -2.86029,-2.354378 -0.05606,-0.183197 -0.256145,-0.286644 -0.447001,-0.278536 z" />
      <path
         id="path1342"
         style="fill:#450000;fill-opacity:0.176001;stroke-width:0.712743"
         d="m 23.922153,9.6156495 c -0.06946,-8.731e-4 -0.138804,-4.03e-4 -0.208256,0.00155 -0.833423,0.023436 -1.667247,0.2428639 -2.467033,0.4609535 -2.441718,0.752 -4.743965,2.287727 -6.308658,4.353223 -0.06977,0.07017 -0.119533,0.220749 -0.249081,0.190686 -0.538173,-0.01 -1.076712,-0.02119 -1.614888,-0.02119 -0.946788,0.01993 -1.852672,0.430034 -2.301152,1.272273 -0.528208,1.002669 -1.0367,2.005421 -1.554942,3.008086 -0.239186,0.461227 0.029447,1.297057 0.5177977,1.447456 0.3288853,0.09024 0.6679533,0.01912 0.9968373,0.01912 0.697633,2e-6 1.262084,-0.04929 1.949752,-0.01912 0.109638,0.912428 0.710326,1.580185 1.457792,2.131653 0.637834,0.48128 1.465098,0.691956 2.262394,0.641822 0.169415,0.972585 0.318916,1.966042 0.488342,2.948657 0.119606,0.571521 0.887578,0.871318 1.35599,0.520381 0.896957,-0.71189 1.784013,-1.444354 2.680973,-2.166276 0.697632,-0.581547 1.066159,-1.513988 0.956531,-2.41639 -0.09967,-0.611626 -0.228858,-1.222061 -0.338481,-1.823661 1.853712,-1.945175 2.879115,-4.562336 3.178101,-7.209379 0.09967,-1.092906 0.181024,-2.236921 -0.177767,-3.2897216 -0.207422,-0.031962 -0.415874,-0.047508 -0.624252,-0.050126 z m -3.717602,3.5641235 c 0.467049,0.0076 0.928933,0.203925 1.250053,0.546737 0.468415,0.46879 0.628431,1.209433 0.403593,1.837613 -0.234202,0.656306 -0.871509,1.143899 -1.564763,1.172022 -0.946192,0.09375 -1.855955,-0.704105 -1.893424,-1.651062 -0.07494,-0.843824 0.543985,-1.677043 1.368392,-1.855184 0.112414,-0.02812 0.22763,-0.04473 0.342615,-0.04909 0.03114,-0.0012 0.0624,-0.0015 0.09353,-10e-4 z m -8.670788,8.552966 c -0.114515,0.0049 -0.226014,0.04999 -0.300757,0.141594 -0.428549,0.508078 -0.866834,1.016376 -1.3053458,1.524454 -0.2092889,0.254039 -0.01004,0.693498 0.3188428,0.693498 0.259122,0 0.527912,-0.03873 0.787032,-0.05839 -0.139527,0.635094 -0.308522,1.260393 -0.448035,1.895491 -0.06977,0.302892 0.278756,0.585941 0.577742,0.468705 0.607939,-0.254039 1.205905,-0.518017 1.813843,-0.772046 0.0299,0.26381 0.03971,0.518018 0.07958,0.772046 0.0598,0.322425 0.538474,0.439548 0.747758,0.185519 0.43851,-0.508078 0.886987,-1.025726 1.3255,-1.543575 0.189357,-0.244268 0.02008,-0.635288 -0.288871,-0.674378 -1.265707,-0.28335 -2.352013,-1.181891 -2.86029,-2.354378 -0.05606,-0.183197 -0.256145,-0.286644 -0.447001,-0.278536 z" />
      <path
         id="path1344"
         style="fill:#450000;fill-opacity:0.176001;stroke-width:0.712743"
         d="m 23.994218,10.037165 c -0.06946,-8.73e-4 -0.138804,-4.03e-4 -0.208256,0.0015 -0.833423,0.02344 -1.667247,0.242864 -2.467033,0.460953 -2.441718,0.752 -4.743965,2.287727 -6.308658,4.353223 -0.06977,0.07017 -0.119533,0.220749 -0.249081,0.190686 -0.538173,-0.01 -1.076712,-0.02119 -1.614888,-0.02119 -0.946788,0.01993 -1.852672,0.430034 -2.301152,1.272273 -0.528208,1.002669 -1.0367005,2.005421 -1.5549425,3.008086 -0.239186,0.461227 0.029447,1.297057 0.5177977,1.447456 0.3288858,0.09024 0.6679538,0.01912 0.9968378,0.01912 0.697633,2e-6 1.262084,-0.04929 1.949752,-0.01912 0.109638,0.912428 0.710326,1.580185 1.457792,2.131653 0.637834,0.48128 1.465098,0.691956 2.262394,0.641822 0.169415,0.972585 0.318916,1.966042 0.488342,2.948657 0.119606,0.571521 0.887578,0.871318 1.35599,0.520381 0.896957,-0.71189 1.784013,-1.444354 2.680973,-2.166276 0.697632,-0.581547 1.066159,-1.513988 0.956531,-2.41639 -0.09967,-0.611626 -0.228858,-1.222061 -0.338481,-1.823661 1.853712,-1.945175 2.879115,-4.562336 3.178101,-7.209379 0.09967,-1.092906 0.181024,-2.236921 -0.177767,-3.289721 -0.207422,-0.03196 -0.415874,-0.04751 -0.624252,-0.05013 z m -3.717602,3.564123 c 0.467049,0.0076 0.928933,0.203925 1.250053,0.546737 0.468415,0.46879 0.628431,1.209433 0.403593,1.837613 -0.234202,0.656306 -0.871509,1.143899 -1.564763,1.172022 -0.946192,0.09375 -1.855955,-0.704105 -1.893424,-1.651062 -0.07494,-0.843824 0.543985,-1.677043 1.368392,-1.855184 0.112414,-0.02812 0.22763,-0.04473 0.342615,-0.04909 0.03114,-0.0012 0.0624,-0.0015 0.09353,-10e-4 z m -8.670788,8.552966 c -0.114515,0.0049 -0.226014,0.04999 -0.300757,0.141594 -0.428549,0.508078 -0.866834,1.016376 -1.3053463,1.524454 -0.2092889,0.254039 -0.01004,0.693498 0.3188433,0.693498 0.259122,0 0.527912,-0.03873 0.787032,-0.05839 -0.139527,0.635094 -0.308522,1.260393 -0.448035,1.895491 -0.06977,0.302892 0.278756,0.585941 0.577742,0.468705 0.607939,-0.254039 1.205905,-0.518017 1.813843,-0.772046 0.0299,0.26381 0.03971,0.518018 0.07958,0.772046 0.0598,0.322425 0.538474,0.439548 0.747758,0.185519 0.43851,-0.508078 0.886987,-1.025726 1.3255,-1.543575 0.189357,-0.244268 0.02008,-0.635288 -0.288871,-0.674378 -1.265707,-0.28335 -2.352013,-1.181891 -2.86029,-2.354378 -0.05606,-0.183197 -0.256145,-0.286644 -0.447001,-0.278536 z" />
    </g>
    <path
       id="path8"
       style="fill:url(#linearGradient1395);fill-opacity:1;stroke-width:0.344224"
       d="m 11.729496,4.4761103 c -0.03355,-4.217e-4 -0.06704,-1.917e-4 -0.100578,7.539e-4 C 11.22641,4.4881832 10.823709,4.5941571 10.437447,4.699485 9.258201,5.0626686 8.1463148,5.8043587 7.3906352,6.8019045 7.3569394,6.8357937 7.3329058,6.9085168 7.2703401,6.8939976 7.0104257,6.8891675 6.7503343,6.8837648 6.4904183,6.8837648 6.0331605,6.8933907 5.5956576,7.0914527 5.3790611,7.4982184 5.1239588,7.9824644 4.8783787,8.4667502 4.6280901,8.9509943 c -0.1155166,0.2227528 0.014222,0.6264232 0.2500741,0.6990594 0.1588373,0.043582 0.3225932,0.00923 0.48143,0.00923 0.3369268,9e-7 0.6095323,-0.023805 0.9416464,-0.00923 0.052951,0.4406633 0.343057,0.7631613 0.7040509,1.0294973 0.3080465,0.232437 0.7075795,0.334185 1.0926393,0.309972 0.08182,0.469717 0.1540228,0.949514 0.2358483,1.424074 0.057765,0.27602 0.4286618,0.42081 0.6548847,0.251322 0.4331916,-0.343812 0.8616017,-0.69756 1.2947952,-1.046218 0.336926,-0.280862 0.514909,-0.731191 0.461963,-1.167012 -0.04814,-0.295395 -0.110528,-0.5902086 -0.163471,-0.8807556 0.895263,-0.9394358 1.390488,-2.2034122 1.534886,-3.4818202 0.04814,-0.5278266 0.08743,-1.0803367 -0.08585,-1.5887941 C 11.930811,4.4848831 11.830138,4.4773751 11.7295,4.4761101 Z M 9.9340537,6.1974288 c 0.2255643,0.00369 0.4486353,0.098487 0.6037223,0.2640503 C 10.764,6.6878849 10.841281,7.0455837 10.732694,7.3489676 10.619585,7.6659352 10.311793,7.9014214 9.9769806,7.9150036 9.5200105,7.9602809 9.0806339,7.5749512 9.062538,7.1176116 9.0263451,6.7100808 9.3252593,6.307672 9.7234125,6.2216376 c 0.054291,-0.013581 0.1099357,-0.021604 0.1654682,-0.02371 0.015041,-5.75e-4 0.030135,-7.411e-4 0.045173,-4.988e-4 z M 5.7464355,10.328144 c -0.055305,0.0023 -0.1091548,0.02414 -0.1452527,0.06838 -0.2069708,0.24538 -0.4186433,0.490866 -0.6304264,0.736246 -0.1010775,0.12269 -0.00485,0.334929 0.1539878,0.334929 0.1251448,0 0.2549589,-0.01871 0.3801027,-0.0282 -0.067386,0.306724 -0.1490027,0.608716 -0.2163816,0.915441 -0.033693,0.146284 0.1346275,0.282985 0.2790249,0.226365 0.293608,-0.12269 0.5824002,-0.25018 0.8760081,-0.372865 0.01444,0.127409 0.019179,0.25018 0.038435,0.372865 0.028879,0.155717 0.2600598,0.212282 0.361135,0.0896 0.2117815,-0.24538 0.4283769,-0.495381 0.6401598,-0.74548 0.091451,-0.117971 0.0097,-0.306817 -0.1395124,-0.325696 C 6.732433,11.462883 6.2077937,11.028926 5.9623178,10.462665 5.9352438,10.374189 5.838611,10.324228 5.7464355,10.328144 Z" />
  </g>
</svg>
