<?xml version="1.0" encoding="UTF-8" standalone="no"?>
<svg
   width="62"
   height="62"
   version="1.1"
   id="svg4"
   sodipodi:docname="org.olivevideoeditor.Olive.svg"
   inkscape:version="1.4 (e7c3feb100, 2024-10-09)"
   xmlns:inkscape="http://www.inkscape.org/namespaces/inkscape"
   xmlns:sodipodi="http://sodipodi.sourceforge.net/DTD/sodipodi-0.dtd"
   xmlns:xlink="http://www.w3.org/1999/xlink"
   xmlns="http://www.w3.org/2000/svg"
   xmlns:svg="http://www.w3.org/2000/svg">
  <defs
     id="defs4">
    <linearGradient
       id="linearGradient6"
       inkscape:collect="always">
      <stop
         style="stop-color:#b7c6cd;stop-opacity:1;"
         offset="0"
         id="stop6" />
      <stop
         style="stop-color:#eff2f6;stop-opacity:1;"
         offset="1"
         id="stop7" />
    </linearGradient>
    <linearGradient
       id="linearGradient4"
       inkscape:collect="always">
      <stop
         style="stop-color:#008080;stop-opacity:1"
         offset="0"
         id="stop4" />
      <stop
         style="stop-color:#4bae4f;stop-opacity:1;"
         offset="1"
         id="stop5" />
    </linearGradient>
    <linearGradient
       inkscape:collect="always"
       xlink:href="#linearGradient4"
       id="linearGradient5"
       x1="67.982193"
       y1="154.58701"
       x2="67.930717"
       y2="139.77"
       gradientUnits="userSpaceOnUse" />
    <linearGradient
       inkscape:collect="always"
       xlink:href="#linearGradient6"
       id="linearGradient7"
       x1="73.0951"
       y1="148.54164"
       x2="67.476746"
       y2="140.84395"
       gradientUnits="userSpaceOnUse" />
  </defs>
  <sodipodi:namedview
     id="namedview4"
     pagecolor="#ffffff"
     bordercolor="#000000"
     borderopacity="0.25"
     inkscape:showpageshadow="2"
     inkscape:pageopacity="0.0"
     inkscape:pagecheckerboard="0"
     inkscape:deskcolor="#d1d1d1"
     inkscape:zoom="11.6875"
     inkscape:cx="31.957219"
     inkscape:cy="32"
     inkscape:window-width="1920"
     inkscape:window-height="994"
     inkscape:window-x="0"
     inkscape:window-y="0"
     inkscape:window-maximized="1"
     inkscape:current-layer="svg4" />
  <g
     transform="matrix(3.7116885,0,0,3.7124794,-222.13355,-515.89326)"
     id="g4">
    <path
       style="opacity:0.2"
       transform="matrix(0.26458333,0,0,0.26458333,59.733055,138.71468)"
       d="m 4,40.976562 v 1 C 4,52.515189 12.484811,61 23.023438,61 H 40.976562 C 51.515189,61 60,52.515189 60,41.976562 v -1 C 60,51.515189 51.515189,60 40.976562,60 H 23.023438 C 12.484811,60 4,51.515189 4,40.976562 Z"
       id="path1" />
    <rect
       style="fill:url(#linearGradient5)"
       width="14.817"
       height="14.817"
       x="60.790001"
       y="139.77"
       ry="5.033"
       id="rect1" />
    <path
       style="opacity:0.2"
       d="m 62.954689,141.93298 0.381433,0.28634 c -1.209867,0.55777 1.897297,3.10438 1.897297,3.10438 0,0 0.604705,-0.54432 1.49067,-0.60162 0.87878,-0.90054 4.536167,-0.21514 4.399139,0.52393 -1.229425,0.0192 -1.618793,-0.13788 -1.618793,-0.13788 0,0 0.06069,0.07 0.08575,0.31022 -0.08985,0.074 -1.361169,-0.21086 -1.626951,-0.19057 -0.756258,0.0578 -1.266666,0.0769 -1.809219,0.13694 0.373253,0.12309 3.347558,0.65278 4.298588,1.57214 -0.253688,0.0978 -0.364635,0.0576 -0.449342,0.0888 -0.07449,0.0274 -0.149849,0.17922 -0.313312,0.17995 -0.117123,4e-4 -0.07709,-0.1037 -0.318974,-0.21805 -1.505017,0.0598 -1.992966,-0.85842 -2.141486,-0.97102 -0.664399,-0.15857 -1.783691,-0.51713 -1.783691,-0.51713 0,0 0.9477,0.75625 1.467305,1.17599 0.04321,0.0349 0.755562,0.16731 1.661141,0.60901 0.486774,-0.39848 1.799063,0.27769 1.555224,0.89687 -0.2172,0.55153 -1.674456,-0.0168 -1.620881,-0.76706 -0.332675,-0.1036 -0.947218,-0.4007 -1.340393,-0.54244 0.376946,0.29397 1.857876,1.52788 2.155442,1.87689 1.303609,-0.1601 3.271609,0.16524 4.49238,0.94764 -0.278406,0.0735 -1.603136,0.3251 -1.868485,0.25429 -0.493058,-0.18648 -1.227918,-0.79058 -1.306217,-0.85828 -0.283223,-0.0478 -0.918902,-0.1391 -1.163085,-0.16687 0.247668,0.25131 1.065595,1.19629 1.322413,1.5938 0.106388,-0.0225 0.64892,0.10792 0.799275,0.2101 0.557012,-0.56834 1.460189,0.42892 2.015384,0.91056 -0.145852,0.29612 -2.43665,-0.15963 -2.13049,-0.8232 -0.163706,-0.0218 -0.491345,-0.20171 -0.61216,-0.21126 0.123498,0.16174 0.392833,0.38127 0.747795,0.7536 0.341433,-0.0971 1.628388,1.29566 1.662921,1.60045 -0.963064,-0.23464 -1.438709,-0.4388 -1.587811,-0.61295 -0.294297,-0.34375 -0.182877,-0.83733 -0.154838,-0.92705 -0.378716,-0.33844 -0.449274,-0.43908 -0.573141,-0.50625 -0.0032,0.004 4.01e-4,0.10426 0.0062,0.15322 0.622119,0.45864 0.321518,1.72803 -0.03615,1.77304 -0.155664,0.0196 -0.514464,-1.79091 -0.06643,-1.85837 0.01031,-0.0359 0.01623,-0.14279 0.01679,-0.14701 -0.236441,-0.2574 -1.547708,-1.65156 -1.632977,-1.71028 0.04247,0.11002 0.112101,0.29094 0.176009,0.51428 0.774315,0.50605 0.902429,1.31577 0.84407,2.26682 -0.185683,-0.32504 -2.004808,-1.80594 -1.209201,-2.46242 0.0056,-0.10124 -0.02456,-0.33103 0.04244,-0.4602 -0.252306,-0.25215 -1.037922,-1.02768 -1.108417,-1.02705 0.08774,0.17986 0.142225,0.28254 0.185742,0.47703 0.598832,0.29887 0.424877,1.07088 0.152118,1.08727 -0.287355,0.0173 -0.924193,-0.86872 -0.325205,-1.05661 -0.04839,-0.22307 -0.136399,-0.52625 -0.171882,-0.65796 -0.25917,-0.19821 -1.117502,-0.88424 -1.315575,-1.04416 0.243548,0.40526 0.481451,1.03606 0.600419,1.39774 0.717526,0.81288 0.519041,2.07027 0.44649,3.36723 -0.84184,-0.62499 -1.364498,-2.75799 -0.82901,-3.28894 -0.178761,-0.61676 -0.448956,-1.66037 -0.448956,-1.66037 -1.157457,-0.89838 -1.797822,-1.57172 -1.797822,-1.57172 0,0 0.771195,1.00001 0.859033,1.53607 0.675413,0.13095 1.239666,1.30752 0.702621,1.50831 -0.784982,0.29348 -1.627597,-0.95188 -0.957938,-1.41572 0,0 -0.592956,-1.09222 -1.05194,-2.05017 -1.810425,-1.98722 -1.636399,-2.58384 -1.093373,-2.65027 z"
       id="path2" />
    <path
       style="fill:url(#linearGradient7)"
       d="m 62.954689,141.66861 0.381433,0.28634 c -1.209867,0.55777 1.897297,3.10438 1.897297,3.10438 0,0 0.604705,-0.54432 1.49067,-0.60162 0.87878,-0.90054 4.536167,-0.21514 4.399139,0.52393 -1.229425,0.0192 -1.618793,-0.13788 -1.618793,-0.13788 0,0 0.06069,0.07 0.08575,0.31022 -0.08985,0.074 -1.361169,-0.21086 -1.626951,-0.19057 -0.756258,0.0578 -1.266666,0.0769 -1.809219,0.13694 0.373253,0.12309 3.347558,0.65278 4.298588,1.57214 -0.253688,0.0978 -0.364635,0.0576 -0.449342,0.0888 -0.07449,0.0274 -0.149849,0.17922 -0.313312,0.17995 -0.117123,4e-4 -0.07709,-0.1037 -0.318974,-0.21805 -1.505017,0.0598 -1.992966,-0.85842 -2.141486,-0.97102 -0.664399,-0.15857 -1.783691,-0.51713 -1.783691,-0.51713 0,0 0.9477,0.75625 1.467305,1.17599 0.04321,0.0349 0.755562,0.16731 1.661141,0.60901 0.486774,-0.39848 1.799063,0.27769 1.555224,0.89687 -0.2172,0.55153 -1.674456,-0.0168 -1.620881,-0.76706 -0.332675,-0.1036 -0.947218,-0.4007 -1.340393,-0.54244 0.376946,0.29397 1.857876,1.52788 2.155442,1.87689 1.303609,-0.1601 3.271609,0.16524 4.49238,0.94764 -0.278406,0.0735 -1.603136,0.3251 -1.868485,0.25429 -0.493058,-0.18648 -1.227918,-0.79058 -1.306217,-0.85828 -0.283223,-0.0478 -0.918902,-0.1391 -1.163085,-0.16687 0.247668,0.25131 1.065595,1.19629 1.322413,1.5938 0.106388,-0.0225 0.64892,0.10792 0.799275,0.2101 0.557012,-0.56834 1.460189,0.42892 2.015384,0.91056 -0.145852,0.29612 -2.43665,-0.15963 -2.13049,-0.8232 -0.163706,-0.0218 -0.491345,-0.20171 -0.61216,-0.21126 0.123498,0.16174 0.392833,0.38127 0.747795,0.7536 0.341433,-0.0971 1.628388,1.29566 1.662921,1.60045 -0.963064,-0.23464 -1.438709,-0.4388 -1.587811,-0.61295 -0.294297,-0.34375 -0.182877,-0.83733 -0.154838,-0.92705 -0.378716,-0.33844 -0.449274,-0.43908 -0.573141,-0.50625 -0.0032,0.004 4.01e-4,0.10426 0.0062,0.15322 0.622119,0.45864 0.321518,1.72803 -0.03615,1.77304 -0.155664,0.0196 -0.514464,-1.79091 -0.06643,-1.85837 0.01031,-0.0359 0.01623,-0.14279 0.01679,-0.14701 -0.236441,-0.2574 -1.547708,-1.65156 -1.632977,-1.71028 0.04247,0.11002 0.112101,0.29094 0.176009,0.51428 0.774315,0.50605 0.902429,1.31577 0.84407,2.26682 -0.185683,-0.32504 -2.004808,-1.80594 -1.209201,-2.46242 0.0056,-0.10124 -0.02456,-0.33103 0.04244,-0.4602 -0.252306,-0.25215 -1.037922,-1.02768 -1.108417,-1.02705 0.08774,0.17986 0.142225,0.28254 0.185742,0.47703 0.598832,0.29887 0.424877,1.07088 0.152118,1.08727 -0.287355,0.0173 -0.924193,-0.86872 -0.325205,-1.05661 -0.04839,-0.22307 -0.136399,-0.52625 -0.171882,-0.65796 -0.25917,-0.19821 -1.117502,-0.88424 -1.315575,-1.04416 0.243548,0.40526 0.481451,1.03606 0.600419,1.39774 0.717526,0.81288 0.519041,2.07027 0.44649,3.36723 -0.84184,-0.62499 -1.364498,-2.75799 -0.82901,-3.28894 -0.178761,-0.61676 -0.448956,-1.66037 -0.448956,-1.66037 -1.157457,-0.89838 -1.797822,-1.57172 -1.797822,-1.57172 0,0 0.771195,1.00001 0.859033,1.53607 0.675413,0.13095 1.239666,1.30752 0.702621,1.50831 -0.784982,0.29348 -1.627597,-0.95188 -0.957938,-1.41572 0,0 -0.592956,-1.09222 -1.05194,-2.05017 -1.810425,-1.98722 -1.636399,-2.58384 -1.093373,-2.65027 z"
       id="path3" />
    <path
       style="opacity:0.2;fill:#ffffff"
       transform="matrix(0.26458333,0,0,0.26458333,59.733055,138.71468)"
       d="M 23.023438,4 C 12.484811,4 4,12.484811 4,23.023438 v 1 C 4,13.484811 12.484811,5 23.023438,5 H 40.976562 C 51.515189,5 60,13.484811 60,24.023438 v -1 C 60,12.484811 51.515189,4 40.976562,4 Z"
       id="path4" />
  </g>
</svg>
