<?xml version="1.0" encoding="UTF-8" standalone="no"?>
<svg
   width="62"
   height="62"
   version="1.1"
   id="svg6"
   sodipodi:docname="org.gabmus.giara.svg"
   inkscape:version="1.4 (unknown)"
   xmlns:inkscape="http://www.inkscape.org/namespaces/inkscape"
   xmlns:sodipodi="http://sodipodi.sourceforge.net/DTD/sodipodi-0.dtd"
   xmlns:xlink="http://www.w3.org/1999/xlink"
   xmlns="http://www.w3.org/2000/svg"
   xmlns:svg="http://www.w3.org/2000/svg">
  <defs
     id="defs6">
    <linearGradient
       id="linearGradient1"
       inkscape:collect="always">
      <stop
         style="stop-color:#2d3d53;stop-opacity:1;"
         offset="0"
         id="stop1" />
      <stop
         style="stop-color:#ffb380;stop-opacity:1"
         offset="1"
         id="stop2" />
    </linearGradient>
    <linearGradient
       inkscape:collect="always"
       xlink:href="#linearGradient1"
       id="linearGradient2"
       x1="31"
       y1="58.5"
       x2="30.998047"
       y2="2.5"
       gradientUnits="userSpaceOnUse" />
  </defs>
  <sodipodi:namedview
     id="namedview6"
     pagecolor="#ffffff"
     bordercolor="#000000"
     borderopacity="0.25"
     inkscape:showpageshadow="2"
     inkscape:pageopacity="0.0"
     inkscape:pagecheckerboard="0"
     inkscape:deskcolor="#d1d1d1"
     inkscape:zoom="6.0546875"
     inkscape:cx="21.058065"
     inkscape:cy="47.153548"
     inkscape:window-width="1920"
     inkscape:window-height="998"
     inkscape:window-x="0"
     inkscape:window-y="0"
     inkscape:window-maximized="1"
     inkscape:current-layer="svg6" />
  <path
     style="opacity:0.2"
     d="M 3.043,30.328 A 28,28 0 0 0 3,31.5 28,28 0 0 0 31,59.5 28,28 0 0 0 59,31.5 28,28 0 0 0 58.958,30.672 28,28 0 0 1 31,57.5 28,28 0 0 1 3.044,30.328 Z"
     id="path1" />
  <path
     style="fill:url(#linearGradient2);fill-opacity:1"
     d="m 31,2.5 a 28,28 0 0 0 -28,28 28,28 0 0 0 28,28 28,28 0 0 0 28,-28 28,28 0 0 0 -28,-28 z"
     id="path2" />
  <path
     style="opacity:0.1;fill:#ffffff"
     d="M 30.998047,2.5 A 28,28 0 0 0 3,30.5 28,28 0 0 0 3.0214844,30.90625 28,28 0 0 1 30.998047,3.5 H 31 A 28,28 0 0 1 58.976562,31.085938 28,28 0 0 0 58.998047,30.5 28,28 0 0 0 31,2.5 Z"
     id="path3" />
  <g
     id="g2"
     transform="translate(2.1986287e-7,-0.51515)">
    <path
       style="opacity:0.2;stroke-width:1.03597"
       d="m 27.792857,15.54545 c -0.5245,0 -0.949521,0.425115 -0.949521,0.952529 v 3.81186 c 0,2.16435 -1.790527,5.185967 -3.519564,8.047068 -1.828508,3.021621 -4.414463,6.147311 -4.770765,9.052511 -0.04342,0.354554 -0.05601,0.700284 -0.05243,1.040722 C 29.90389,38.850556 40.005,32.11056 40.113519,32.036475 l 0.868126,-0.589148 C 40.410138,30.413657 39.78978,29.37999 39.171229,28.356908 37.440384,25.495806 35.235396,22.474189 35.235396,20.30984 v -3.81186 c 0,-0.527415 -0.426833,-0.952529 -0.951333,-0.952529 z m 14.250434,17.551146 -0.69089,0.463921 c -5.720647,3.843614 -14.477956,6.891684 -22.627575,6.724119 1.1539,4.420417 5.749583,7.404993 5.984705,7.551403 0.153729,0.09524 1.233473,0.679111 6.18365,0.679111 4.948369,0 6.196319,-0.583863 6.348236,-0.679111 0.285765,-0.17639 6.948698,-4.45747 6.199933,-10.490126 -0.171835,-1.377631 -0.699941,-2.804652 -1.398059,-4.249317 z"
       id="path2-3" />
    <path
       style="fill:#ffffff;stroke-width:1.03597"
       d="m 27.792857,14.51515 c -0.5245,0 -0.949521,0.425105 -0.949521,0.952529 v 3.81186 c 0,2.16435 -1.790527,5.185967 -3.519564,8.047068 -1.828508,3.02162 -4.414463,6.147311 -4.770765,9.05251 -0.04342,0.354554 -0.05601,0.700276 -0.05243,1.040722 11.403313,0.400408 21.504423,-6.33958 21.612942,-6.413665 l 0.868124,-0.589156 C 40.410132,29.383356 39.789774,28.349689 39.171223,27.326608 37.440378,24.465506 35.23539,21.443889 35.23539,19.27954 v -3.81186 c 0,-0.527425 -0.426833,-0.952529 -0.951333,-0.952529 z m 14.250434,17.551146 -0.69089,0.463913 c -5.720647,3.843613 -14.477956,6.891692 -22.627575,6.724118 1.1539,4.420425 5.749583,7.405002 5.984705,7.551402 0.153729,0.09524 1.233473,0.679121 6.18365,0.679121 4.948369,0 6.196319,-0.583873 6.348236,-0.679121 0.285765,-0.176381 6.948698,-4.45746 6.199933,-10.490116 -0.171835,-1.377631 -0.699941,-2.804652 -1.398059,-4.249317 z"
       id="path3-6" />
  </g>
</svg>
