<?xml version="1.0" encoding="UTF-8" standalone="no"?>
<svg
   width="62"
   height="62"
   version="1"
   id="svg9"
   sodipodi:docname="firefox-developer-edition.svg"
   inkscape:version="1.4 (e7c3feb100, 2024-10-09)"
   xmlns:inkscape="http://www.inkscape.org/namespaces/inkscape"
   xmlns:sodipodi="http://sodipodi.sourceforge.net/DTD/sodipodi-0.dtd"
   xmlns="http://www.w3.org/2000/svg"
   xmlns:svg="http://www.w3.org/2000/svg">
  <defs
     id="defs9" />
  <sodipodi:namedview
     id="namedview9"
     pagecolor="#ffffff"
     bordercolor="#000000"
     borderopacity="0.25"
     inkscape:showpageshadow="2"
     inkscape:pageopacity="0.0"
     inkscape:pagecheckerboard="0"
     inkscape:deskcolor="#d1d1d1"
     inkscape:zoom="11.6875"
     inkscape:cx="31.957219"
     inkscape:cy="32"
     inkscape:window-width="1920"
     inkscape:window-height="994"
     inkscape:window-x="0"
     inkscape:window-y="0"
     inkscape:window-maximized="1"
     inkscape:current-layer="svg9" />
  <g
     id="g9"
     transform="matrix(0.99713002,0,0,1,0.51147979,0)">
    <path
       style="opacity:0.2;stroke-width:0.949151"
       d="M 13.81148,22.998319 C 7.594668,27.805937 4,24.32788 4,32.734196 4,47.240395 15.8986,59 30.576264,59 45.253935,59 57.152547,47.240395 57.152547,32.734196 c 0,-6.753623 -2.579181,-12.911935 -6.817015,-17.565346 0.09444,-0.0037 -0.396302,-0.380858 -0.649331,-0.286699 1.771637,2.936506 2.791335,6.3777 2.791335,10.057292 0,10.768197 -5.988837,21.435968 -16.757033,21.435968 -6.916339,0.335706 -16.12968,-4.085854 -17.547743,-8.223376 -0.914907,-2.669437 -0.68396,-5.667526 1.805195,-7.327123 1.352035,-0.858263 3.323176,-1.705671 6.441674,-1.805176 2.848746,-1.873491 1.462646,-1.660394 1.325621,-2.227615 -0.88495,-0.241987 -2.455808,-0.576403 -4.62471,-2.283398 -1.921009,-1.511936 -2.81325,-2.085227 -8.411491,-2.137508 -1.057625,-2.036509 -0.793908,3.04518 -0.897569,0.627104 z"
       id="path1" />
    <path
       style="fill:#02bfee;stroke-width:0.949151"
       d="m 38.933515,3 c 1.121081,2.9844593 5.175198,6.8333892 10.522536,13.682039 4.5287,5.800137 5.047708,12.271441 6.721871,18.089856 L 43.594332,45.602562 29.380283,31.010781 C 29.316462,21.310183 26.988108,11.118732 38.933515,3 Z"
       id="path2" />
    <path
       style="opacity:0.2;fill:#ffffff;stroke-width:0.949151"
       d="m 38.93326,3 c -8.578209,5.8302058 -9.788542,12.730071 -9.769592,19.74868 0.10031,-6.689858 1.578344,-13.2323216 9.769592,-18.7995272 1.12108,2.9844593 5.174902,6.8324912 10.52224,13.6811342 4.330676,5.546554 5.004197,11.702139 6.518014,17.318338 l 0.203922,-0.176122 C 54.503274,28.954072 53.9842,22.481293 49.4555,16.681136 44.108162,9.8324944 40.05434,5.9844593 38.93326,3 Z"
       id="path3" />
    <path
       style="fill:#0086da;stroke-width:0.949151"
       d="m 13.053019,20.46395 c 1.846164,-1.831878 4.860761,-6.097514 8.457643,-7.279997 -0.966339,5.150728 0.286427,6.78781 0.91,9.421183 L 16.63948,21.106303 Z"
       id="path4" />
    <circle
       style="fill:#354bb0;stroke-width:0.949151"
       cx="30.576288"
       cy="31.474581"
       id="circle4"
       r="13.288145" />
    <path
       style="fill:#5fdffd;stroke-width:0.949151"
       d="m 34.78598,22.105874 c -0.189005,0.002 -0.377941,0.0088 -0.566604,0.02009 3.848509,1.806595 6.308104,5.672693 6.313698,9.924148 -0.0029,5.841268 -4.578912,10.791004 -10.412395,11.092543 1.458677,0.690197 3.051582,0.916948 4.665301,0.921442 6.0636,5.7e-5 10.979168,-4.9154 10.97925,-10.978999 5.7e-5,-6.063694 -4.915552,-10.979307 -10.97925,-10.979265 z"
       id="path5" />
    <path
       id="ellipse841"
       style="fill:#095cd3;stroke-width:0.949151"
       d="M 13.81148,22.049168 C 7.594668,26.856786 4,23.378721 4,31.785045 c 0,14.506199 11.8986,26.265804 26.576264,26.265804 14.677671,0 26.576283,-11.759605 26.576283,-26.265804 0,-6.753623 -2.579181,-12.911936 -6.817015,-17.565346 0.09444,-0.0037 -0.396302,-0.380858 -0.649331,-0.286699 1.771637,2.936506 2.791335,6.3777 2.791335,10.057292 0,10.768194 -5.988837,21.435968 -16.757033,21.435968 -6.916339,0.335706 -16.12968,-4.085854 -17.547743,-8.223395 -0.914907,-2.669418 -0.68396,-5.667507 1.805195,-7.327104 1.352035,-0.858263 3.323176,-1.705671 6.441674,-1.805176 2.848746,-1.873491 1.462646,-1.660394 1.325621,-2.227615 -0.88495,-0.241987 -2.455808,-0.576403 -4.62471,-2.28341 -1.921009,-1.511924 -2.81325,-2.085215 -8.411491,-2.137515 -1.057625,-2.03649 -0.793908,3.045199 -0.897569,0.627123 z" />
    <path
       style="opacity:0.1;stroke-width:0.949151"
       d="M 13.453002,12.037249 C 7.5022933,16.63908 4.3553625,23.695421 4.0310391,31.663248 4.3713319,43.874097 15.518015,53.30508 29.247394,53.30508 c 13.943827,0 25.247525,-9.734174 25.247525,-22.210212 0,-3.362364 -0.827035,-6.551037 -2.29948,-9.418518 0.1792,1.062082 0.282896,2.149276 0.282896,3.262359 0,10.768195 -8.730629,18.874857 -19.498826,18.874857 -6.916349,0.335708 -12.119255,-2.861026 -13.537311,-6.998567 -0.914912,-2.66942 -0.615333,-3.795814 1.873841,-5.45541 1.352015,-0.858264 3.255657,-1.43954 6.374154,-1.539045 2.848745,-1.873491 3.067177,-2.593906 2.930151,-3.161128 C 29.735395,26.41743 27.294898,25.480397 25.125996,23.7734 23.204965,22.26148 20.016711,19.214389 14.41847,19.162089 13.360846,17.1256 13.556668,14.455324 13.453002,12.037249 Z"
       id="path6" />
    <path
       style="fill:#0091eb;stroke-width:0.949151"
       d="M 13.453002,11.088098 C 7.5022933,15.689912 4.3553625,22.74627 4.0310391,30.714097 4.3713319,42.924927 15.518015,52.355925 29.247394,52.355925 c 13.943827,0 25.247525,-9.73417 25.247525,-22.210208 0,-3.362364 -0.827035,-6.551037 -2.29948,-9.418518 0.1792,1.062082 0.282896,2.149276 0.282896,3.262359 0,10.768195 -8.730629,18.874857 -19.498826,18.874857 -6.916349,0.335708 -12.119255,-2.861026 -13.537311,-6.998567 -0.914912,-2.66942 -0.615333,-3.795814 1.873841,-5.45541 1.352015,-0.858264 3.255657,-1.43954 6.374154,-1.539045 2.848745,-1.873491 3.067177,-2.593906 2.930151,-3.161127 -0.884949,-0.241987 -3.325446,-1.17902 -5.494348,-2.886017 -1.921031,-1.511934 -5.109285,-4.559011 -10.707526,-4.611311 -1.057624,-2.036489 -0.861802,-4.706765 -0.965468,-7.12484 z"
       id="path7" />
    <path
       style="fill:#5fdffd;stroke-width:0.949151"
       d="m 15.875536,23.888778 c -1.808578,-0.03924 -3.33242,0.583551 -4.541853,1.408897 -0.216627,0.21663 1.723326,4.135983 5.765366,4.178488 -0.374245,6.520253 4.505404,11.287991 7.782309,12.23146 l 1.438556,0.263243 c -3.482978,-1.194862 -5.967115,-3.449791 -6.877637,-6.106451 -0.914914,-2.669439 -0.616814,-3.794326 1.872341,-5.453922 1.352035,-0.858264 3.254915,-1.439153 6.373413,-1.538677 1.424364,-0.936745 2.194425,-1.586795 2.587929,-2.072564 0.196775,-0.242581 0.299091,-0.442584 0.344805,-0.619166 0.04572,-0.176784 0.03429,-0.329056 0,-0.470866 -3.8399,3.867038 -9.29229,-0.388076 -13.518015,-1.68326 -0.397652,-0.08492 -0.809866,-0.12816 -1.227214,-0.13719 z"
       id="path8" />
    <path
       style="opacity:0.2;fill:#ffffff;stroke-width:0.949151"
       d="M 13.452588,11.088192 C 7.5018928,15.690006 4.3558396,22.74669 4.0315144,30.714517 c 0.00467,0.168699 0.019002,0.334763 0.027801,0.502385 0.4224966,-7.783598 3.5546101,-14.664381 9.3932726,-19.179559 0.103666,2.418075 -0.09185,5.087713 0.96585,7.124202 5.598242,0.05235 8.786592,3.100377 10.707623,4.612293 2.049673,1.613165 4.298084,2.516686 5.290781,2.817792 0.239901,-0.369207 0.261768,-0.641138 0.203922,-0.880551 -0.884949,-0.241987 -3.325801,-1.179377 -5.494703,-2.886392 -1.921031,-1.511916 -5.109381,-4.559993 -10.707623,-4.612293 -1.057622,-2.036489 -0.862184,-4.706127 -0.96585,-7.124202 z m 38.742863,9.63983 c 0.07247,0.429564 0.122773,0.865385 0.168682,1.303235 1.297752,2.644611 2.048816,5.550418 2.117064,8.609099 0.0041,-0.165027 0.01304,-0.328937 0.01304,-0.494966 0,-3.362364 -0.826282,-6.549906 -2.298727,-9.417368 z m 0.268803,3.863345 C 52.144926,35.05748 43.544863,42.864415 32.978811,42.864415 26.062473,43.200123 20.860332,40.003797 19.442276,35.866256 c -0.220413,-0.64306 -0.366147,-1.193971 -0.431945,-1.68696 -0.0984,0.717294 0.05805,1.545024 0.431945,2.636111 1.418056,4.137541 6.620197,7.333867 13.536535,6.998159 10.768197,0 19.500263,-8.107341 19.500263,-18.875536 0,-0.116919 -0.01262,-0.230314 -0.01477,-0.346663 z"
       id="path9" />
  </g>
</svg>
