<?xml version="1.0" encoding="UTF-8" standalone="no"?>
<svg
   width="62"
   height="62"
   version="1"
   id="svg6"
   sodipodi:docname="org.gnome.Tecla.svg"
   inkscape:version="1.4 (unknown)"
   xmlns:inkscape="http://www.inkscape.org/namespaces/inkscape"
   xmlns:sodipodi="http://sodipodi.sourceforge.net/DTD/sodipodi-0.dtd"
   xmlns:xlink="http://www.w3.org/1999/xlink"
   xmlns="http://www.w3.org/2000/svg"
   xmlns:svg="http://www.w3.org/2000/svg">
  <defs
     id="defs6">
    <linearGradient
       id="paint0_linear_491_45"
       x1="38.5"
       y1="28"
       x2="28.5"
       y2="38.5"
       gradientUnits="userSpaceOnUse"
       gradientTransform="matrix(0.57153481,-0.70991174,0.57494529,0.70570066,-4.687398,80.134747)">
      <stop
         stop-color="#EFF2F6"
         id="stop5" />
      <stop
         offset="0.564369"
         stop-color="#B7C6CD"
         id="stop6" />
    </linearGradient>
    <linearGradient
       id="paint1_linear_491_45"
       x1="60"
       y1="60"
       x2="36"
       y2="36"
       gradientUnits="userSpaceOnUse"
       gradientTransform="matrix(0.69746718,-0.7099118,0.70162911,0.70570073,-14.747563,80.134747)">
      <stop
         offset="0.411133"
         stop-color="#2E2E41"
         id="stop7" />
      <stop
         offset="0.68099"
         stop-color="#566C80"
         id="stop8" />
    </linearGradient>
    <linearGradient
       id="paint2_linear_491_45"
       x1="60"
       y1="60"
       x2="26"
       y2="26"
       gradientUnits="userSpaceOnUse"
       gradientTransform="matrix(0.69746718,-0.7099118,0.70162911,0.70570073,-14.747563,80.134747)">
      <stop
         offset="0.411133"
         stop-color="#2E2E41"
         id="stop9" />
      <stop
         offset="0.68099"
         stop-color="#566C80"
         id="stop10" />
    </linearGradient>
    <linearGradient
       id="paint3_linear_491_45"
       x1="28"
       y1="28"
       x2="4"
       y2="4"
       gradientUnits="userSpaceOnUse"
       gradientTransform="matrix(0.69746718,-0.7099118,0.70162911,0.70570073,-11.051832,80.134747)">
      <stop
         offset="0.411133"
         stop-color="#2E2E41"
         id="stop11" />
      <stop
         offset="0.68099"
         stop-color="#566C80"
         id="stop12" />
    </linearGradient>
    <linearGradient
       id="paint4_linear_491_45"
       x1="38"
       y1="38"
       x2="4"
       y2="4"
       gradientUnits="userSpaceOnUse"
       gradientTransform="matrix(0.69746718,-0.7099118,0.70162911,0.70570073,-11.051832,80.134747)">
      <stop
         offset="0.411133"
         stop-color="#2E2E41"
         id="stop13" />
      <stop
         offset="0.68099"
         stop-color="#566C80"
         id="stop14" />
    </linearGradient>
    <linearGradient
       inkscape:collect="always"
       xlink:href="#linearGradient8"
       id="linearGradient10"
       x1="31.5"
       y1="59.017544"
       x2="31.5"
       y2="4.9824562"
       gradientUnits="userSpaceOnUse"
       gradientTransform="translate(-0.50000042,3.6628445)" />
    <linearGradient
       id="linearGradient8"
       inkscape:collect="always">
      <stop
         style="stop-color:#2d3d53;stop-opacity:1;"
         offset="0"
         id="stop8-5" />
      <stop
         style="stop-color:#354864;stop-opacity:1;"
         offset="1"
         id="stop10-3" />
    </linearGradient>
  </defs>
  <sodipodi:namedview
     id="namedview6"
     pagecolor="#ffffff"
     bordercolor="#000000"
     borderopacity="0.25"
     inkscape:showpageshadow="2"
     inkscape:pageopacity="0.0"
     inkscape:pagecheckerboard="0"
     inkscape:deskcolor="#d1d1d1"
     inkscape:zoom="8.3306018"
     inkscape:cx="35.651686"
     inkscape:cy="45.674972"
     inkscape:window-width="1920"
     inkscape:window-height="998"
     inkscape:window-x="0"
     inkscape:window-y="0"
     inkscape:window-maximized="1"
     inkscape:current-layer="svg6"
     showgrid="false">
    <inkscape:grid
       id="grid1"
       units="px"
       originx="0"
       originy="0"
       spacingx="1"
       spacingy="1"
       empcolor="#0099e5"
       empopacity="0.30196078"
       color="#0099e5"
       opacity="0.14901961"
       empspacing="5"
       enabled="true"
       visible="false" />
  </sodipodi:namedview>
  <g
     id="g1"
     transform="translate(2e-7,-4.6628444)">
    <rect
       style="opacity:0.2;stroke-width:0.9823"
       width="55"
       height="55.017544"
       x="3.5"
       y="8.6453028"
       rx="8.25"
       ry="8.2526312"
       id="rect1" />
    <rect
       style="fill:url(#linearGradient10);stroke-width:0.9823"
       width="55"
       height="55.017544"
       x="3.5"
       y="7.6628423"
       rx="8.25"
       ry="8.2526312"
       id="rect2" />
    <path
       style="fill:#5a79a5;fill-opacity:0.5;stroke-width:0.9823"
       d="m 11.748466,7.6628445 c -4.5705014,0 -8.2484664,3.6791385 -8.2484664,8.2510975 v 0.982453 c 0,-4.571955 3.677965,-8.2510945 8.2484664,-8.2510945 h 38.503068 c 4.5705,0 8.248466,3.6791395 8.248466,8.2510945 v -0.982453 c 0,-4.571959 -3.677966,-8.2510975 -8.248466,-8.2510975 z"
       id="path4-5" />
  </g>
  <g
     id="g2"
     transform="translate(-0.85700575,2.2429843)">
    <path
       d="m 50.839223,40.249956 h 2.777869 c 0.768607,0 1.388935,0.616461 1.388935,1.380323 v 2.300489 c 0,0.763852 -0.620311,1.380323 -1.388935,1.380323 h -2.777869 c -0.768618,0 -1.388935,-0.616464 -1.388935,-1.380323 v -2.300489 c 0,-0.763846 0.620307,-1.380323 1.388935,-1.380323 z m -19.444918,0 h 15.741472 c 0.768608,0 1.388934,0.616461 1.388934,1.380323 v 2.300489 c 0,0.763852 -0.62031,1.380323 -1.388934,1.380323 H 31.394305 c -0.770415,0 -1.388934,-0.616464 -1.388934,-1.380323 v -2.300489 c 0,-0.763846 0.618503,-1.380323 1.388934,-1.380323 z m -6.481639,0 h 2.777866 c 0.76861,0 1.388935,0.616461 1.388935,1.380323 v 2.300489 c 0,0.763852 -0.620309,1.380323 -1.388935,1.380323 h -2.777866 c -0.768611,0 -1.388934,-0.616464 -1.388934,-1.380323 v -2.300489 c 0,-0.763846 0.620306,-1.380323 1.388934,-1.380323 z m -6.48164,0 h 2.777868 c 0.768608,0 1.388936,0.616461 1.388936,1.380323 v 2.300489 c 0,0.763852 -0.620312,1.380323 -1.388936,1.380323 h -2.777868 c -0.768609,0 -1.388935,-0.616464 -1.388935,-1.380323 v -2.300489 c 0,-0.763846 0.620309,-1.380323 1.388935,-1.380323 z m -10.1850855,0 H 14.72758 c 0.76861,0 1.388934,0.616461 1.388934,1.380323 v 2.300489 c 0,0.763852 -0.620309,1.380323 -1.388934,1.380323 H 8.2459405 c -0.7704157,0 -1.3889346,-0.616464 -1.3889346,-1.380323 v -2.300489 c 0,-0.763846 0.6185019,-1.380323 1.3889346,-1.380323 z M 53.59959,29.27934 h 0.0181 c 0.768609,0 1.388935,0.616464 1.388935,1.380327 v 7.289799 c 0,0.763846 -0.62031,1.380327 -1.388935,1.380327 h -0.01816 c -0.770417,0 -1.388934,-0.616465 -1.388934,-1.380327 v -7.289799 c 0,-0.763846 0.618509,-1.380327 1.388934,-1.380327 z m -2.759719,-1.912308 h 2.77787 c 0.768607,0 1.388935,0.616464 1.388935,1.380326 v 2.300487 c 0,0.763842 -0.620314,1.380323 -1.388935,1.380323 h -2.77787 c -0.768617,0 -1.388933,-0.616465 -1.388933,-1.380323 v -2.300487 c 0,-0.763848 0.620308,-1.380326 1.388933,-1.380326 z m -3.703769,6.441462 h 2.777868 c 0.768615,0 1.388933,0.616463 1.388933,1.380326 v 2.300486 c 0,0.763843 -0.620308,1.380325 -1.388933,1.380325 h -2.777868 c -0.768609,0 -1.388936,-0.616466 -1.388936,-1.380325 V 35.18882 c 0,-0.763846 0.620311,-1.380326 1.388936,-1.380326 z m -6.481641,0 h 2.77787 c 0.768607,0 1.388935,0.616463 1.388935,1.380326 v 2.300486 c 0,0.763843 -0.620311,1.380325 -1.388935,1.380325 h -2.77787 c -0.768606,0 -1.388937,-0.616466 -1.388937,-1.380325 V 35.18882 c 0,-0.763846 0.620314,-1.380326 1.388937,-1.380326 z m -32.4081965,0 h 2.7778685 c 0.768611,0 1.388934,0.616463 1.388934,1.380326 v 2.300486 c 0,0.763843 -0.620306,1.380325 -1.388934,1.380325 H 8.2462645 c -0.7686089,0 -1.3889343,-0.616466 -1.3889343,-1.380325 V 35.18882 c 0,-0.763846 0.6203087,-1.380326 1.3889343,-1.380326 z m 25.9265555,0 h 2.777871 c 0.768611,0 1.388935,0.616463 1.388935,1.380326 v 2.300486 c 0,0.763843 -0.620307,1.380325 -1.388935,1.380325 H 34.17282 c -0.768606,0 -1.388932,-0.616466 -1.388932,-1.380325 V 35.18882 c 0,-0.763846 0.62031,-1.380326 1.388932,-1.380326 z m -6.481637,0 h 2.777866 c 0.768613,0 1.388938,0.616463 1.388938,1.380326 v 2.300486 c 0,0.763843 -0.620308,1.380325 -1.388938,1.380325 h -2.777866 c -0.768608,0 -1.388936,-0.616466 -1.388936,-1.380325 V 35.18882 c 0,-0.763846 0.620312,-1.380326 1.388936,-1.380326 z m -6.48164,0 h 2.777868 c 0.76861,0 1.388934,0.616463 1.388934,1.380326 v 2.300486 c 0,0.763843 -0.620307,1.380325 -1.388934,1.380325 h -2.777868 c -0.768606,0 -1.388935,-0.616466 -1.388935,-1.380325 V 35.18882 c 0,-0.763846 0.620313,-1.380326 1.388935,-1.380326 z m -6.481639,0 h 2.777869 c 0.76861,0 1.388933,0.616463 1.388933,1.380326 v 2.300486 c 0,0.763843 -0.620306,1.380325 -1.388933,1.380325 h -2.777869 c -0.768607,0 -1.388935,-0.616466 -1.388935,-1.380325 V 35.18882 c 0,-0.763846 0.620312,-1.380326 1.388935,-1.380326 z m 29.630005,-6.441461 h 2.777868 c 0.768608,0 1.388935,0.616463 1.388935,1.380325 v 2.300488 c 0,0.763841 -0.620311,1.380322 -1.388935,1.380322 h -2.777868 c -0.76861,0 -1.388936,-0.616465 -1.388936,-1.380322 v -2.300488 c 0,-0.763848 0.620309,-1.380325 1.388936,-1.380325 z m -6.481641,0 h 2.777868 c 0.768609,0 1.388937,0.616463 1.388937,1.380325 v 2.300488 c 0,0.763841 -0.620312,1.380322 -1.388937,1.380322 h -2.777868 c -0.768608,0 -1.388935,-0.616465 -1.388935,-1.380322 v -2.300488 c 0,-0.763848 0.62031,-1.380325 1.388935,-1.380325 z m -6.48164,0 h 2.777869 c 0.768608,0 1.388935,0.616463 1.388935,1.380325 v 2.300488 c 0,0.763841 -0.620311,1.380322 -1.388935,1.380322 h -2.777869 c -0.768607,0 -1.388934,-0.616465 -1.388934,-1.380322 v -2.300488 c 0,-0.763848 0.62031,-1.380325 1.388934,-1.380325 z m -6.481639,0 h 2.777869 c 0.768608,0 1.388934,0.616463 1.388934,1.380325 v 2.300488 c 0,0.763841 -0.620309,1.380322 -1.388934,1.380322 h -2.777869 c -0.768609,0 -1.388932,-0.616465 -1.388932,-1.380322 v -2.300488 c 0,-0.763848 0.620306,-1.380325 1.388932,-1.380325 z m -6.481637,0 h 2.777866 c 0.768611,0 1.388936,0.616463 1.388936,1.380325 v 2.300488 c 0,0.763841 -0.62031,1.380322 -1.388936,1.380322 h -2.777866 c -0.768611,0 -1.388935,-0.616465 -1.388935,-1.380322 v -2.300488 c 0,-0.763848 0.620307,-1.380325 1.388935,-1.380325 z m -10.1850875,0 h 6.4816395 c 0.768612,0 1.388935,0.616463 1.388935,1.380325 v 2.300488 c 0,0.763841 -0.620307,1.380322 -1.388935,1.380322 H 8.2462645 c -0.7704154,0 -1.3889343,-0.616465 -1.3889343,-1.380322 v -2.300488 c 0,-0.763848 0.6185016,-1.380325 1.3889343,-1.380325 z M 47.136101,20.898597 h 6.48164 c 0.768607,0 1.388935,0.616464 1.388935,1.380325 v 2.300487 c 0,0.763842 -0.620314,1.380324 -1.388935,1.380324 h -6.481639 c -0.768609,0 -1.388936,-0.616466 -1.388936,-1.380324 v -2.300487 c 0,-0.763847 0.620311,-1.380325 1.388935,-1.380325 z m -6.481641,0 h 2.77787 c 0.768607,0 1.388935,0.616464 1.388935,1.380325 v 2.300487 c 0,0.763842 -0.620311,1.380324 -1.388935,1.380324 h -2.77787 c -0.768606,0 -1.388937,-0.616466 -1.388937,-1.380324 v -2.300487 c 0,-0.763847 0.620314,-1.380325 1.388937,-1.380325 z m -32.4081955,0 h 2.7778675 c 0.768611,0 1.388934,0.616464 1.388934,1.380325 v 2.300487 c 0,0.763842 -0.620306,1.380324 -1.388934,1.380324 H 8.2462645 c -0.7686089,0 -1.3889343,-0.616466 -1.3889343,-1.380324 v -2.300487 c 0,-0.763847 0.6203087,-1.380325 1.3889343,-1.380325 z m 25.9265545,0 h 2.777871 c 0.76861,0 1.388936,0.616464 1.388936,1.380325 v 2.300487 c 0,0.763842 -0.620308,1.380324 -1.388936,1.380324 h -2.777871 c -0.768606,0 -1.388932,-0.616466 -1.388932,-1.380324 v -2.300487 c 0,-0.763847 0.62031,-1.380325 1.388932,-1.380325 z m -6.481637,0 h 2.777866 c 0.768613,0 1.388938,0.616464 1.388938,1.380325 v 2.300487 c 0,0.763842 -0.620308,1.380324 -1.388938,1.380324 h -2.777866 c -0.768608,0 -1.388936,-0.616466 -1.388936,-1.380324 v -2.300487 c 0,-0.763847 0.620312,-1.380325 1.388936,-1.380325 z m -6.481641,0 h 2.777869 c 0.76861,0 1.388934,0.616464 1.388934,1.380325 v 2.300487 c 0,0.763842 -0.620307,1.380324 -1.388934,1.380324 h -2.777869 c -0.768605,0 -1.388934,-0.616466 -1.388934,-1.380324 v -2.300487 c 0,-0.763847 0.620313,-1.380325 1.388934,-1.380325 z m -6.481638,0 h 2.777869 c 0.76861,0 1.388933,0.616464 1.388933,1.380325 v 2.300487 c 0,0.763842 -0.620306,1.380324 -1.388933,1.380324 h -2.777869 c -0.768607,0 -1.388935,-0.616466 -1.388935,-1.380324 v -2.300487 c 0,-0.763847 0.620312,-1.380325 1.388935,-1.380325 z m 36.111642,-4.574084 h 2.777871 c 0.768605,0 1.388935,0.512227 1.388935,1.150286 0,0.638032 -0.620313,1.150285 -1.388935,1.150285 h -2.777871 c -0.768617,0 -1.388933,-0.51223 -1.388933,-1.150285 0,-0.638035 0.620307,-1.150286 1.388933,-1.150286 z m -6.481637,0 h 2.777868 c 0.768608,0 1.388935,0.512227 1.388935,1.150286 0,0.638032 -0.620311,1.150285 -1.388935,1.150285 h -2.777868 c -0.76861,0 -1.388936,-0.51223 -1.388936,-1.150285 0,-0.638035 0.620309,-1.150286 1.388936,-1.150286 z m -10.185089,0 h 2.777871 c 0.76861,0 1.388936,0.512227 1.388936,1.150286 0,0.638032 -0.620308,1.150285 -1.388936,1.150285 h -2.777871 c -0.768606,0 -1.388932,-0.51223 -1.388932,-1.150285 0,-0.638035 0.62031,-1.150286 1.388932,-1.150286 z m -6.481637,0 h 2.777866 c 0.768613,0 1.388938,0.512227 1.388938,1.150286 0,0.638032 -0.620308,1.150285 -1.388938,1.150285 h -2.777866 c -0.768608,0 -1.388936,-0.51223 -1.388936,-1.150285 0,-0.638035 0.620312,-1.150286 1.388936,-1.150286 z m -6.481641,0 h 2.777869 c 0.76861,0 1.388934,0.512227 1.388934,1.150286 0,0.638032 -0.620307,1.150285 -1.388934,1.150285 h -2.777869 c -0.768605,0 -1.388934,-0.51223 -1.388934,-1.150285 0,-0.638035 0.620313,-1.150286 1.388934,-1.150286 z m -6.481638,0 h 2.777869 c 0.76861,0 1.388933,0.512227 1.388933,1.150286 0,0.638032 -0.620306,1.150285 -1.388933,1.150285 h -2.777869 c -0.768607,0 -1.388935,-0.51223 -1.388935,-1.150285 0,-0.638035 0.620312,-1.150286 1.388935,-1.150286 z m -6.4816385,0 h 2.7778675 c 0.768611,0 1.388934,0.512227 1.388934,1.150286 0,0.638032 -0.620306,1.150285 -1.388934,1.150285 H 8.2462645 c -0.7686089,0 -1.3889343,-0.51223 -1.3889343,-1.150285 0,-0.638035 0.6203087,-1.150286 1.3889343,-1.150286 z"
       stroke-width="0.461536"
       id="path1"
       style="fill:#859cbe;fill-opacity:0.55000001" />
    <path
       d="m 48.506643,10.765775 c 0.520838,0 0.94405,0.42056 0.94405,0.93997 0,0.517619 -0.423195,0.938199 -0.94405,0.938199 -0.522664,0 -0.945834,-0.420564 -0.945834,-0.938199 0,-0.519418 0.423186,-0.93997 0.945834,-0.93997 z"
       stroke-width="0.461536"
       id="path2"
       style="fill:#f9f06b;fill-opacity:1" />
    <path
       d="m 52.228724,10.803618 c 0.511808,0 0.925983,0.411577 0.925983,0.920242 0,0.508635 -0.414145,0.920244 -0.925983,0.920244 -0.5118,0 -0.925985,-0.411576 -0.925985,-0.920244 0,-0.508632 0.414154,-0.920242 0.925985,-0.920242 z"
       stroke-width="0.461536"
       id="path3"
       style="fill:#f9f06c;fill-opacity:1" />
    <path
       d="M 46.193759,31.518756 V 17.713751 c 0,-2.032746 -1.656572,-3.682639 -3.703803,-3.684435 l -9.248861,-0.0054 c -0.982017,0 -1.92241,0.386414 -2.616873,1.076555 -0.694463,0.69014 -1.08327,1.626565 -1.081467,2.600654 l 0.0054,5.521266"
       fill="none"
       style="stroke:#deddda;stroke-width:0.461536;stroke-linecap:round;stroke-linejoin:round;paint-order:normal"
       id="path4-6" />
    <path
       d="m 37.4713,26.107455 h 15.647183 c 1.810326,0 3.276984,1.281485 3.276984,2.861303 v 13.474193 c 0,1.579819 -1.466705,2.861306 -3.276984,2.861306 H 37.4713 c -1.810324,0 -3.27879,-1.281486 -3.27879,-2.861306 V 28.968758 c 0,-1.579818 1.468512,-2.861303 3.27879,-2.861303 z"
       stroke-width="0.923078"
       style="stroke-linecap:round;stroke-linejoin:round;paint-order:normal;fill:#4f6b94;fill-opacity:1"
       id="path5-7"
       stroke="#deddda" />
    <path
       d="m 27.596963,20.625755 h 2.965914 c 0.611264,0 1.10498,0.490659 1.10498,1.098138 v 2.47486 c 0,0.607478 -0.493716,1.098135 -1.10498,1.098135 h -2.965914 c -0.611268,0 -1.104985,-0.490657 -1.104985,-1.098135 v -2.47486 c 0,-0.607479 0.493717,-1.098138 1.104985,-1.098138 z"
       fill-rule="evenodd"
       style="stroke:#deddda;stroke-width:0.461536;stroke-linecap:round;stroke-linejoin:round;paint-order:normal;fill:#4f6c96;fill-opacity:1"
       id="path6-5" />
    <path
       d="m 45.286078,41.170276 c 2.318481,0 3.758056,-1.342559 3.828544,-3.373473 H 46.66051 c -0.09766,0.871692 -0.623931,1.347958 -1.343725,1.347958 -0.922338,0 -1.524564,-0.776431 -1.524564,-2.235832 0,-1.448607 0.607654,-2.22327 1.524564,-2.22327 0.752332,0 1.240584,0.506832 1.343725,1.346186 h 2.454112 c -0.05968,-2.020124 -1.540851,-3.33579 -3.833972,-3.33579 -2.595169,0 -4.163156,1.721802 -4.163156,4.239768 0,2.507178 1.55713,4.234375 4.168584,4.234375 z m -1.059749,-11.81525 h -2.200921 v 0.0701 l 2.325696,2.393971 h 1.884454 l 2.320264,-2.393972 v -0.0701 h -2.195495 l -1.06882,1.240142 z"
       fill="#ffffff"
       stroke-width="0.461536"
       id="path7-3" />
  </g>
</svg>
