<?xml version="1.0" encoding="UTF-8" standalone="no"?>
<svg
   width="62"
   height="64"
   version="1.1"
   id="svg3"
   sodipodi:docname="org.tabos.maxcontrol.svg"
   inkscape:version="1.4 (unknown)"
   xmlns:inkscape="http://www.inkscape.org/namespaces/inkscape"
   xmlns:sodipodi="http://sodipodi.sourceforge.net/DTD/sodipodi-0.dtd"
   xmlns:xlink="http://www.w3.org/1999/xlink"
   xmlns="http://www.w3.org/2000/svg"
   xmlns:svg="http://www.w3.org/2000/svg">
  <defs
     id="defs3">
    <linearGradient
       id="linearGradient5"
       inkscape:collect="always">
      <stop
         style="stop-color:#280b17;stop-opacity:1"
         offset="0"
         id="stop5" />
      <stop
         style="stop-color:#ff2a2a;stop-opacity:1"
         offset="1"
         id="stop6" />
    </linearGradient>
    <linearGradient
       inkscape:collect="always"
       xlink:href="#linearGradient5"
       id="linearGradient6"
       x1="34"
       y1="61"
       x2="34.018627"
       y2="4"
       gradientUnits="userSpaceOnUse" />
  </defs>
  <sodipodi:namedview
     id="namedview3"
     pagecolor="#ffffff"
     bordercolor="#000000"
     borderopacity="0.25"
     inkscape:showpageshadow="2"
     inkscape:pageopacity="0.0"
     inkscape:pagecheckerboard="0"
     inkscape:deskcolor="#d1d1d1"
     inkscape:zoom="12.109375"
     inkscape:cx="32"
     inkscape:cy="32"
     inkscape:window-width="1920"
     inkscape:window-height="998"
     inkscape:window-x="0"
     inkscape:window-y="0"
     inkscape:window-maximized="1"
     inkscape:current-layer="svg3" />
  <g
     id="g5"
     transform="matrix(0.98214286,0,0,0.98245614,-0.42857152,0.07017545)">
    <g
       id="g4">
      <g
         id="g3">
        <path
           d="m 24,5 c 0,0 5,5 5,7 C 29,22 4,36 4,44 4,53 34,61 34,61 34,61 21,55 21,49 21,45 39,29 39,22 39,15 24,5 24,5 Z m 20,19 c 0,0 1,2 1,3 0,6 -15,15 -15,22 0,2.603417 5,6 5,6 0,0 -1,-2.625631 -1,-4 0,-4 15,-13 15,-21 0,-2 -5,-6 -5,-6 z m 10,6 c 0,0 2,3 2,4 0,5 -5,10 -8,12 -6,4 -8,12 -8,12 0,0 7,-5 13,-9 4.160251,-2.773501 7,-6.5 7,-9 0,-4 -6,-10 -6,-10 z"
           style="opacity:0.2"
           id="path1" />
        <path
           d="m 24,4 c 0,0 5,5 5,7 C 29,21 4,35 4,43 4,52 34,60 34,60 34,60 21,54 21,48 21,44 39,28 39,21 39,14 24,4 24,4 Z m 20,19 c 0,0 1,2 1,3 0,6 -15,15 -15,22 0,2.603417 5,6 5,6 0,0 -1,-2.625631 -1,-4 0,-4 15,-13 15,-21 0,-2 -5,-6 -5,-6 z m 10,6 c 0,0 2,3 2,4 0,5 -5,10 -8,12 -6,4 -8,12 -8,12 0,0 7,-5 13,-9 4.160251,-2.773501 7,-6.5 7,-9 0,-4 -6,-10 -6,-10 z"
           style="fill:url(#linearGradient6)"
           id="path2" />
        <path
           d="m 24,4 c 0,0 1.308606,1.3135928 2.587891,2.8613281 C 30.725793,9.9639603 38.440355,16.37838 38.964844,21.464844 38.980848,21.307682 39,21.149189 39,21 39,14 24,4 24,4 Z m 4.951172,7.646484 C 27.931861,21.595863 4,35.17026 4,43 4,43.160242 4.030146,43.318947 4.048828,43.478516 5.0657305,35.403416 29,21.787701 29,12 29,11.891756 28.97888,11.771036 28.95117,11.646484 Z M 44,23 c 0,0 0.35706,0.741363 0.646484,1.542969 1.227544,1.046067 3.991263,3.550043 4.3125,5.171875 C 48.984675,29.47557 49,29.237666 49,29 49,27 44,23 44,23 Z m 0.955078,3.578125 C 44.064246,32.567252 30,41.221679 30,48 c 0,0.119135 0.02103,0.241225 0.04102,0.363281 C 30.889168,41.461425 45,32.819696 45,27 45,26.873424 44.98307,26.73066 44.95508,26.578125 Z M 54,29 c 0,0 0.991145,1.501995 1.576172,2.736328 1.674872,1.953618 4.10293,5.184052 4.382812,7.78711 C 59.984429,39.344051 60,39.168866 60,39 60,35 54,29 54,29 Z m 1.955078,4.755859 C 55.493468,38.496688 50.848837,43.100775 48,45 c -6,4 -8,12 -8,12 0,0 0.366875,-0.258176 0.396484,-0.279297 C 41.223567,54.310721 43.462219,49.025188 48,46 c 3,-2 8,-7 8,-12 0,-0.06645 -0.02843,-0.161495 -0.04492,-0.244141 z M 21.046875,48.615234 C 21.016858,48.752555 21,48.882766 21,49 c 0,3.74809 5.072915,7.495767 8.880859,9.78125 C 32.30854,59.536851 34,60 34,60 34,60 21.875942,54.403356 21.046875,48.615234 Z M 34.048828,50.59375 C 34.018028,50.734461 34,50.869694 34,51 c 0,0.759534 0.279476,1.802395 0.552734,2.671875 C 34.728436,53.798877 35,54 35,54 c 0,0 -0.753969,-1.984645 -0.951172,-3.40625 z"
           style="opacity:0.2;fill:#ffffff"
           id="path3" />
      </g>
    </g>
  </g>
</svg>
