<?xml version="1.0" encoding="UTF-8" standalone="no"?>
<svg
   width="62"
   height="62"
   version="1.1"
   id="svg5"
   sodipodi:docname="labplot.svg"
   inkscape:version="1.4 (e7c3feb100, 2024-10-09)"
   xmlns:inkscape="http://www.inkscape.org/namespaces/inkscape"
   xmlns:sodipodi="http://sodipodi.sourceforge.net/DTD/sodipodi-0.dtd"
   xmlns:xlink="http://www.w3.org/1999/xlink"
   xmlns="http://www.w3.org/2000/svg"
   xmlns:svg="http://www.w3.org/2000/svg">
  <defs
     id="defs5">
    <linearGradient
       id="linearGradient1"
       inkscape:collect="always">
      <stop
         style="stop-color:#2d3c53;stop-opacity:1;"
         offset="0"
         id="stop1" />
      <stop
         style="stop-color:#3d5676;stop-opacity:1;"
         offset="1"
         id="stop3" />
    </linearGradient>
    <linearGradient
       id="linearGradient4217">
      <stop
         style="stop-color:#000000;stop-opacity:1;"
         offset="0"
         id="stop2" />
      <stop
         style="stop-color:#000000;stop-opacity:0;"
         offset="1"
         id="stop4" />
    </linearGradient>
    <linearGradient
       id="linearGradient4161">
      <stop
         style="stop-color:#334545;stop-opacity:1;"
         offset="0"
         id="stop7" />
      <stop
         style="stop-color:#4d6868;stop-opacity:1"
         offset="1"
         id="stop9" />
    </linearGradient>
    <linearGradient
       inkscape:collect="always"
       xlink:href="#linearGradient1"
       id="linearGradient3"
       x1="31.5"
       y1="59.017544"
       x2="31.5"
       y2="4.9824562"
       gradientUnits="userSpaceOnUse" />
  </defs>
  <sodipodi:namedview
     id="namedview5"
     pagecolor="#ffffff"
     bordercolor="#000000"
     borderopacity="0.25"
     inkscape:showpageshadow="2"
     inkscape:pageopacity="0.0"
     inkscape:pagecheckerboard="0"
     inkscape:deskcolor="#d1d1d1"
     inkscape:zoom="8.2643105"
     inkscape:cx="39.023219"
     inkscape:cy="44.770825"
     inkscape:window-width="1920"
     inkscape:window-height="994"
     inkscape:window-x="0"
     inkscape:window-y="0"
     inkscape:window-maximized="1"
     inkscape:current-layer="svg5" />
  <rect
     style="opacity:0.2;stroke-width:0.9823"
     width="55"
     height="55.017544"
     x="4"
     y="4.9824562"
     rx="8.25"
     ry="8.2526312"
     id="rect1" />
  <rect
     style="fill:url(#linearGradient3);stroke-width:0.9823"
     width="55"
     height="55.017544"
     x="4"
     y="4"
     rx="8.25"
     ry="8.2526312"
     id="rect2" />
  <path
     style="opacity:0.1;fill:#ffffff;stroke-width:0.9823"
     d="M 12.248466,4 C 7.6779652,4 4,7.6791384 4,12.251097 v 0.982456 C 4,8.6615945 7.6779652,4.9824561 12.248466,4.9824561 H 50.751534 C 55.322034,4.9824561 59,8.6615945 59,13.233553 V 12.251097 C 59,7.6791384 55.322034,4 50.751534,4 Z"
     id="path4" />
  <g
     id="g3"
     transform="matrix(1.0000065,0,0,1.0023311,0.65147478,-2.7303301)">
    <path
       style="fill:none;stroke:#7e7e7e;stroke-width:3.29993"
       d="m 8.8484678,36.760006 c 17.1598902,0 17.4898892,17.423889 25.0798362,17.489878 7.58995,0.06595 7.259952,-17.489878 24.419844,-17.489878"
       id="path1" />
    <path
       style="fill:none;stroke:#1588e4;stroke-width:3.29993"
       d="m 8.8484678,35.440007 c 17.1598902,0 17.4898892,-14.123903 25.0798362,-14.189903 7.58995,-0.06593 7.259952,14.189903 24.419844,14.189903"
       id="path2" />
    <path
       style="fill:none;stroke:#e95656;stroke-width:3.29993"
       d="m 8.8484678,35.440007 c 17.1598902,0 17.4898892,-20.723867 25.0798362,-20.789866 7.58995,-0.06593 7.259952,20.789866 24.419844,20.789866"
       id="path3" />
    <rect
       style="fill:#ffffff;stroke-width:3.29993"
       width="3.299979"
       height="42.899704"
       x="8.8484678"
       y="13.000154"
       id="rect3" />
    <rect
       style="fill:#ffffff;stroke-width:3.29993"
       width="49.499676"
       height="3.299979"
       x="8.8484678"
       y="32.800034"
       id="rect4" />
    <rect
       style="fill:#ffffff;stroke-width:3.29993"
       width="3.299979"
       height="9.8999367"
       x="15.448426"
       y="29.500059"
       id="rect5" />
    <rect
       style="fill:#ffffff;stroke-width:3.29993"
       width="3.299979"
       height="9.8999367"
       x="31.948328"
       y="29.500059"
       id="rect6" />
    <rect
       style="fill:#ffffff;stroke-width:3.29993"
       width="3.299979"
       height="9.8999367"
       x="51.748177"
       y="29.500059"
       id="rect7" />
  </g>
</svg>
