<?xml version="1.0" encoding="UTF-8" standalone="no"?>
<svg
   clip-rule="evenodd"
   fill-rule="evenodd"
   stroke-linejoin="round"
   stroke-miterlimit="2"
   viewBox="0 0 62 62"
   version="1.1"
   id="svg16"
   sodipodi:docname="org.kde.plasma.device.svg"
   width="62"
   height="62"
   inkscape:version="1.4 (unknown)"
   xmlns:inkscape="http://www.inkscape.org/namespaces/inkscape"
   xmlns:sodipodi="http://sodipodi.sourceforge.net/DTD/sodipodi-0.dtd"
   xmlns:xlink="http://www.w3.org/1999/xlink"
   xmlns="http://www.w3.org/2000/svg"
   xmlns:svg="http://www.w3.org/2000/svg">
  <defs
     id="defs16">
    <linearGradient
       id="linearGradient20"
       inkscape:collect="always">
      <stop
         style="stop-color:#090c11;stop-opacity:1;"
         offset="0"
         id="stop20" />
      <stop
         style="stop-color:#2b3c54;stop-opacity:1;"
         offset="0.19265325"
         id="stop22" />
      <stop
         style="stop-color:#242e42;stop-opacity:1;"
         offset="0.49191096"
         id="stop24" />
      <stop
         style="stop-color:#2b3d55;stop-opacity:1;"
         offset="0.86503607"
         id="stop23" />
      <stop
         style="stop-color:#090c11;stop-opacity:1;"
         offset="1"
         id="stop21" />
    </linearGradient>
    <linearGradient
       id="linearGradient18"
       inkscape:collect="always">
      <stop
         style="stop-color:#5a2ca0;stop-opacity:1"
         offset="0"
         id="stop18" />
      <stop
         style="stop-color:#c6afe9;stop-opacity:1"
         offset="1"
         id="stop19" />
    </linearGradient>
    <linearGradient
       id="linearGradient16"
       inkscape:collect="always">
      <stop
         style="stop-color:#acb2b9;stop-opacity:1;"
         offset="0"
         id="stop16" />
      <stop
         style="stop-color:#d5d6dc;stop-opacity:1;"
         offset="1"
         id="stop17" />
    </linearGradient>
    <linearGradient
       inkscape:collect="always"
       xlink:href="#linearGradient16"
       id="linearGradient17"
       x1="27.011618"
       y1="40.055"
       x2="26.407391"
       y2="1.314"
       gradientUnits="userSpaceOnUse" />
    <linearGradient
       inkscape:collect="always"
       xlink:href="#linearGradient18"
       id="linearGradient19"
       x1="14.649"
       y1="43.617"
       x2="33.494"
       y2="43.617"
       gradientUnits="userSpaceOnUse" />
    <linearGradient
       inkscape:collect="always"
       xlink:href="#linearGradient20"
       id="linearGradient21"
       x1="1.307"
       y1="41.704"
       x2="46.696"
       y2="41.704"
       gradientUnits="userSpaceOnUse" />
  </defs>
  <sodipodi:namedview
     id="namedview16"
     pagecolor="#ffffff"
     bordercolor="#000000"
     borderopacity="0.25"
     inkscape:showpageshadow="2"
     inkscape:pageopacity="0.0"
     inkscape:pagecheckerboard="0"
     inkscape:deskcolor="#d1d1d1"
     inkscape:zoom="9.4280904"
     inkscape:cx="20.576807"
     inkscape:cy="32.933498"
     inkscape:window-width="1920"
     inkscape:window-height="998"
     inkscape:window-x="0"
     inkscape:window-y="0"
     inkscape:window-maximized="1"
     inkscape:current-layer="svg16" />
  <linearGradient
     id="a"
     x2="1"
     gradientTransform="matrix(44.2944,-0.186744,0.186744,44.2944,15.5769,3296.09)"
     gradientUnits="userSpaceOnUse">
    <stop
       stop-color="#1a1a1a"
       offset="0"
       id="stop1" />
    <stop
       stop-color="#2c2c2e"
       offset=".11"
       id="stop2" />
    <stop
       stop-color="#2a2b2d"
       offset=".51"
       id="stop3" />
    <stop
       stop-color="#2b2b2d"
       offset=".75"
       id="stop4" />
    <stop
       stop-color="#323232"
       offset=".9"
       id="stop5" />
    <stop
       stop-color="#171717"
       offset="1"
       id="stop6" />
  </linearGradient>
  <linearGradient
     id="b"
     x2="1"
     gradientTransform="matrix(-0.00154162,-38.7406,38.7406,-0.00154162,125.812,40.0508)"
     gradientUnits="userSpaceOnUse">
    <stop
       stop-color="#bbbec4"
       offset="0"
       id="stop7" />
    <stop
       stop-color="#dcdee1"
       offset="1"
       id="stop8" />
  </linearGradient>
  <linearGradient
     id="c"
     x1="14.6558"
     x2="33.486599"
     y1="853.91302"
     y2="853.91302"
     gradientUnits="userSpaceOnUse"
     gradientTransform="translate(0,-0.048)">
    <stop
       stop-color="#197cf1"
       offset="0"
       id="stop9" />
    <stop
       stop-color="#20bcfa"
       offset="1"
       id="stop10" />
  </linearGradient>
  <linearGradient
     id="d"
     x2="1"
     gradientTransform="matrix(0,-3.48937,3.48937,0,328.746,44.9756)"
     gradientUnits="userSpaceOnUse">
    <stop
       stop-color="#040404"
       stop-opacity=".45"
       offset="0"
       id="stop11" />
    <stop
       stop-color="#121212"
       stop-opacity=".41"
       offset="1"
       id="stop12" />
  </linearGradient>
  <g
     id="g16"
     transform="matrix(1.2337791,0,0,1.2342414,1.3874509,1.3782064)">
    <path
       d="M 42.349,46.686 H 5.654 C 3.744,46.686 2.027,45.505 1.909,43.6 1.814,42.054 1.308,36.733 1.307,36.722 h 45.389 c -10e-4,0.011 -0.507,5.332 -0.602,6.878 -0.118,1.905 -1.835,3.086 -3.745,3.086 z"
       fill-rule="nonzero"
       id="path12"
       style="fill:url(#linearGradient21)" />
    <path
       d="M 44.067,4.555 C 43.915,2.723 42.385,1.314 40.547,1.314 H 7.456 c -1.838,0 -3.368,1.409 -3.52,3.241 -0.587,7.112 -1.988,24.061 -2.617,31.677 -0.081,0.984 0.253,1.957 0.921,2.683 0.669,0.727 1.611,1.14 2.598,1.14 h 38.327 c 0.987,0 1.929,-0.413 2.598,-1.14 0.668,-0.726 1.002,-1.699 0.921,-2.683 -0.629,-7.616 -2.03,-24.565 -2.617,-31.677 z"
       id="path13"
       style="fill:url(#linearGradient17)" />
    <path
       d="m 33.494,43.613 c 0,-0.166 -0.066,-0.326 -0.184,-0.444 -0.118,-0.117 -0.278,-0.184 -0.444,-0.184 H 15.277 c -0.167,0 -0.327,0.067 -0.444,0.184 -0.118,0.118 -0.184,0.278 -0.184,0.444 v 0.008 c 0,0.167 0.066,0.327 0.184,0.444 0.117,0.118 0.277,0.184 0.444,0.184 h 17.589 c 0.166,0 0.326,-0.066 0.444,-0.184 0.118,-0.117 0.184,-0.277 0.184,-0.444 z"
       id="path14"
       style="fill:url(#linearGradient19)" />
    <circle
       cx="37.571999"
       cy="43.448002"
       r="1.745"
       id="circle14"
       style="fill:#8d5fd3" />
    <path
       d="m 8.6319,43.104 c -0.061,-0.122 -0.147,-0.224 -0.257,-0.306 -0.032,-0.025 -0.068,-0.034 -0.108,-0.029 -0.04,0.005 -0.072,0.024 -0.096,0.057 -0.024,0.032 -0.033,0.067 -0.027,0.107 0.005,0.04 0.024,0.072 0.056,0.096 0.074,0.056 0.131,0.125 0.172,0.206 0.04,0.081 0.061,0.167 0.061,0.259 0,0.079 -0.016,0.154 -0.046,0.225 -0.031,0.072 -0.072,0.134 -0.125,0.186 -0.052,0.052 -0.114,0.094 -0.185,0.124 -0.072,0.031 -0.147,0.046 -0.226,0.046 -0.079,0 -0.154,-0.015 -0.225,-0.046 -0.072,-0.03 -0.134,-0.072 -0.186,-0.124 -0.052,-0.052 -0.094,-0.114 -0.124,-0.186 -0.031,-0.071 -0.046,-0.146 -0.046,-0.225 0,-0.092 0.02,-0.178 0.06,-0.259 0.041,-0.081 0.098,-0.15 0.172,-0.206 0.032,-0.024 0.051,-0.056 0.057,-0.096 0.005,-0.039 -0.004,-0.075 -0.028,-0.107 -0.024,-0.033 -0.055,-0.052 -0.095,-0.057 -0.04,-0.005 -0.076,0.004 -0.109,0.029 -0.11,0.082 -0.196,0.184 -0.257,0.306 -0.061,0.122 -0.091,0.252 -0.091,0.39 0,0.118 0.023,0.231 0.069,0.338 0.046,0.108 0.108,0.201 0.186,0.279 0.078,0.078 0.171,0.14 0.279,0.186 0.107,0.046 0.22,0.069 0.338,0.069 0.118,0 0.231,-0.023 0.339,-0.069 0.107,-0.046 0.2,-0.108 0.278,-0.186 0.078,-0.078 0.14,-0.171 0.186,-0.279 0.046,-0.107 0.069,-0.22 0.069,-0.338 0,-0.138 -0.03,-0.268 -0.091,-0.39 z m -0.781,0.39 c 0.039,0 0.074,-0.015 0.102,-0.043 0.029,-0.029 0.044,-0.063 0.044,-0.103 v -0.727 c 0,-0.039 -0.015,-0.073 -0.044,-0.102 -0.028,-0.029 -0.063,-0.043 -0.102,-0.043 -0.039,0 -0.073,0.014 -0.102,0.043 -0.029,0.029 -0.043,0.063 -0.043,0.102 v 0.727 c 0,0.04 0.014,0.074 0.043,0.103 0.029,0.028 0.063,0.043 0.102,0.043 z"
       id="path15"
       style="fill-rule:nonzero;fill:#e3d8f4;fill-opacity:1" />
    <path
       d="M 23.945965,5.8772434 C 23.60349,5.8946419 23.29215,6.0786992 23.119997,6.3671472 L 21.794967,8.5868234 20.472685,10.8065 c -0.391008,0.657478 0.09981,1.479784 0.883658,1.478868 h 1.727941 v 11.042523 l -4.537333,-3.096925 -0.02472,-0.784761 c 1.087861,-0.392839 1.814017,-1.424842 1.814933,-2.582297 0,-1.517328 -1.229796,-2.747124 -2.747124,-2.747124 -1.517328,0 -2.747124,1.229796 -2.747124,2.747124 0.0018,1.168443 0.741723,2.207772 1.846067,2.591454 l 0.04121,1.255435 c 0.0082,0.266471 0.133694,0.51646 0.341559,0.683118 l 5.82665,3.950365 0.185889,0.151092 v 0.645574 c -1.616225,0.416647 -2.745293,1.873538 -2.747124,3.542874 0,2.022799 1.640033,3.662832 3.662832,3.662832 2.022799,0 3.662832,-1.640033 3.662832,-3.662832 -0.0027,-1.66842 -1.131815,-3.124396 -2.747124,-3.541043 v -2.348791 l 6.00796,-2.532848 c 0.250904,-0.170322 0.401996,-0.454191 0.401996,-0.758206 v -1.807608 h 0.915708 c 0,0 0.915708,-0.408406 0.915708,-0.915708 v -3.662832 c 0,-0.507302 -0.408406,-0.915708 -0.915708,-0.915708 h -3.662832 c -0.507302,0 -0.915708,0.408406 -0.915708,0.915708 v 3.662832 c 0,0.507302 0.915708,0.915708 0.915708,0.915708 h 0.915708 v 1.321367 l -4.57854,1.931228 v -9.662551 h 1.727941 c 0.783846,9.16e-4 1.274666,-0.82139 0.883658,-1.478868 L 26.205017,8.5868234 24.879987,6.3671472 C 24.688604,6.0466494 24.327815,5.8580135 23.945965,5.8772434 Z"
       fill="#848484"
       id="path16"
       style="fill-rule:nonzero;stroke-width:0.915708;fill:#aa87de;fill-opacity:1" />
  </g>
</svg>
