<?xml version="1.0" encoding="UTF-8" standalone="no"?>
<svg
   width="62"
   height="62"
   version="1.1"
   id="svg5"
   sodipodi:docname="openrgb.svg"
   inkscape:version="1.4 (unknown)"
   xmlns:inkscape="http://www.inkscape.org/namespaces/inkscape"
   xmlns:sodipodi="http://sodipodi.sourceforge.net/DTD/sodipodi-0.dtd"
   xmlns:xlink="http://www.w3.org/1999/xlink"
   xmlns="http://www.w3.org/2000/svg"
   xmlns:svg="http://www.w3.org/2000/svg">
  <defs
     id="defs5">
    <linearGradient
       id="linearGradient8"
       inkscape:collect="always">
      <stop
         style="stop-color:#2d3d53;stop-opacity:1;"
         offset="0"
         id="stop8" />
      <stop
         style="stop-color:#354864;stop-opacity:1;"
         offset="1"
         id="stop10" />
    </linearGradient>
    <linearGradient
       id="linearGradient4217">
      <stop
         style="stop-color:#000000;stop-opacity:1;"
         offset="0"
         id="stop2" />
      <stop
         style="stop-color:#000000;stop-opacity:0;"
         offset="1"
         id="stop4" />
    </linearGradient>
    <linearGradient
       id="linearGradient4161">
      <stop
         style="stop-color:#334545;stop-opacity:1;"
         offset="0"
         id="stop7" />
      <stop
         style="stop-color:#4d6868;stop-opacity:1"
         offset="1"
         id="stop9" />
    </linearGradient>
    <linearGradient
       id="a-1-2"
       y1="510.79999"
       y2="527.14001"
       gradientUnits="userSpaceOnUse"
       x2="0">
      <stop
         stop-color="#7cbaf8"
         id="stop2-2-7" />
      <stop
         offset="1"
         stop-color="#f4fcff"
         id="stop4-70-0" />
    </linearGradient>
    <linearGradient
       id="c"
       y1="503.79999"
       x1="400.57001"
       y2="519.79999"
       x2="416.57001"
       gradientUnits="userSpaceOnUse">
      <stop
         stop-color="#292c2f"
         id="stop12" />
      <stop
         offset="1"
         stop-opacity="0"
         id="stop14" />
    </linearGradient>
    <linearGradient
       id="b"
       y1="542.79999"
       x1="408.57001"
       y2="521.79999"
       x2="387.57001"
       gradientUnits="userSpaceOnUse"
       gradientTransform="translate(-384.57,-499.8)">
      <stop
         stop-color="#197cf1"
         id="stop7-8" />
      <stop
         offset="1"
         stop-color="#20bcfa"
         id="stop9-7" />
    </linearGradient>
    <linearGradient
       xlink:href="#linearGradient1389"
       id="linearGradient4503-5-6"
       y1="37"
       y2="4"
       x2="0"
       gradientUnits="userSpaceOnUse"
       gradientTransform="matrix(1.0218446,0,0,0.99999999,21.748946,8.2587777)" />
    <linearGradient
       id="linearGradient1389">
      <stop
         style="stop-color:#ffaaaa;stop-opacity:1"
         id="stop1385"
         offset="0" />
      <stop
         offset="1"
         style="stop-color:#ff5555;stop-opacity:1"
         id="stop1387" />
    </linearGradient>
    <linearGradient
       id="paint543_linear_890_11"
       x1="978.5"
       y1="298"
       x2="978.5"
       y2="304"
       gradientUnits="userSpaceOnUse"
       gradientTransform="matrix(0.75000004,0,0,0.75000004,-717.38333,-173.49123)">
      <stop
         offset="0.189495"
         stop-color="#EFF2F6"
         id="stop1829" />
      <stop
         offset="0.850463"
         stop-color="#B7C6CD"
         id="stop1830" />
    </linearGradient>
    <linearGradient
       inkscape:collect="always"
       xlink:href="#linearGradient8"
       id="linearGradient10"
       x1="31.5"
       y1="59.017544"
       x2="31.5"
       y2="4.9824562"
       gradientUnits="userSpaceOnUse" />
    <linearGradient
       id="linearGradient4144">
      <stop
         style="stop-color:#c83771;stop-opacity:1"
         offset="0"
         id="stop1141" />
      <stop
         style="stop-color:#de87aa;stop-opacity:1"
         offset="1"
         id="stop1143" />
    </linearGradient>
    <linearGradient
       id="_lgradient_11"
       x1="0"
       y1="0.5"
       x2="0.90748805"
       y2="0.92007786"
       gradientTransform="matrix(21.03856,0,0,3.5737352,22.835456,87.929158)"
       gradientUnits="userSpaceOnUse">
      <stop
         offset="0%"
         stop-opacity="1"
         style="stop-color:rgb(255,65,108)"
         id="stop1-5" />
      <stop
         offset="84.34782608695653%"
         stop-opacity="1"
         style="stop-color:rgb(255,75,43)"
         id="stop2-3" />
    </linearGradient>
    <linearGradient
       id="_lgradient_12"
       x1="0"
       y1="0.5"
       x2="1"
       y2="0.5"
       gradientTransform="matrix(41.99945,0,0,41.999429,12.499643,68.765001)"
       gradientUnits="userSpaceOnUse">
      <stop
         offset="0%"
         stop-opacity="1"
         style="stop-color:rgb(247,242,6)"
         id="stop3-5" />
      <stop
         offset="97.82608695652173%"
         stop-opacity="1"
         style="stop-color:rgb(255,187,36)"
         id="stop4-6" />
    </linearGradient>
  </defs>
  <sodipodi:namedview
     id="namedview5"
     pagecolor="#ffffff"
     bordercolor="#000000"
     borderopacity="0.25"
     inkscape:showpageshadow="2"
     inkscape:pageopacity="0.0"
     inkscape:pagecheckerboard="0"
     inkscape:deskcolor="#d1d1d1"
     inkscape:zoom="11.6875"
     inkscape:cx="28.791444"
     inkscape:cy="39.486631"
     inkscape:window-width="1920"
     inkscape:window-height="998"
     inkscape:window-x="0"
     inkscape:window-y="0"
     inkscape:window-maximized="1"
     inkscape:current-layer="svg5" />
  <rect
     style="opacity:0.2;stroke-width:0.9823"
     width="55"
     height="55.017544"
     x="4"
     y="4.9824562"
     rx="8.25"
     ry="8.2526312"
     id="rect1" />
  <rect
     style="fill:url(#linearGradient10);stroke-width:0.9823"
     width="55"
     height="55.017544"
     x="4"
     y="4"
     rx="8.25"
     ry="8.2526312"
     id="rect2" />
  <path
     style="opacity:0.1;fill:#ffffff;stroke-width:0.9823"
     d="M 12.248466,4 C 7.6779652,4 4,7.6791384 4,12.251097 v 0.982456 C 4,8.6615945 7.6779652,4.9824561 12.248466,4.9824561 H 50.751534 C 55.322034,4.9824561 59,8.6615945 59,13.233553 V 12.251097 C 59,7.6791384 55.322034,4 50.751534,4 Z"
     id="path4" />
  <g
     id="g1"
     transform="translate(-2,-58.255953)">
    <path
       d="m 38.70834,87.929157 h 3.5783 c 0.875824,0 1.587377,0.712072 1.587377,1.589421 v 0.394899 c 0,0.877352 -0.711553,1.589414 -1.587377,1.589414 h -3.5783 c -0.876717,0 -1.588272,-0.712062 -1.588272,-1.589414 v -0.394899 c 0,-0.877349 0.711555,-1.589421 1.588272,-1.589421 z m -14.284612,0 h 3.5783 c 0.875823,0 1.587371,0.712072 1.587371,1.589421 v 0.394899 c 0,0.877352 -0.711548,1.589414 -1.587371,1.589414 h -3.5783 c -0.876719,0 -1.588273,-0.712062 -1.588273,-1.589414 v -0.394899 c 0,-0.877349 0.711554,-1.589421 1.588273,-1.589421 z"
       fill-rule="evenodd"
       id="path2-9"
       style="fill:#c83771" />
    <path
       d="m 49.705712,84.058803 v 0 c -0.350865,-0.99439 0.171413,-2.087058 1.165089,-2.437284 v 0 c 0.99367,-0.35112 2.08466,0.171537 2.435526,1.165925 v 0 c 1.490061,4.237559 1.588268,8.851251 0.276762,13.146881 v 0 c -0.305329,1.01137 -1.372212,1.583168 -2.381064,1.275826 v 0 c -1.009747,-0.307345 -1.581127,-1.377674 -1.275796,-2.389044 v 0 c 1.077598,-3.522811 0.997243,-7.285955 -0.220517,-10.762304 z m -4.468406,-7.136745 v 0 c 0.725836,0.667393 1.856104,0.619147 2.523018,-0.107213 v 0 c 0.666914,-0.726363 0.618705,-1.857457 -0.107133,-2.524844 v 0 c -3.788103,-3.479928 -8.726114,-5.443689 -13.865007,-5.52321 -5.14514,-0.07236 -10.13761,1.740406 -14.029277,5.110438 v 0 c -0.746373,0.645954 -0.828509,1.776147 -0.183023,2.523059 v 0 c 0.644593,0.746916 1.774864,0.829107 2.521234,0.183156 v 0 c 3.223861,-2.794658 7.375325,-4.303668 11.635712,-4.235773 4.266638,0.06075 8.358287,1.690377 11.504476,4.574387 z m -27.923748,6.371964 v 0 c 0.366044,-0.917554 -0.08035,-1.960194 -0.997244,-2.327391 v 0 c -0.916895,-0.36631 -1.958779,0.08042 -2.324822,0.997967 v 0 c -1.743616,4.389437 -1.965921,9.240785 -0.62763,13.774066 v 0 c 0.279443,0.945254 1.274009,1.485779 2.218579,1.206134 v 0 c 0.94457,-0.279642 1.484707,-1.274034 1.205264,-2.220179 v 0 C 15.674399,90.96058 15.858313,86.939234 17.313558,83.294022 Z m 3.915771,18.856818 v 0 c -0.712446,-0.68169 -1.84361,-0.65578 -2.524806,0.0572 v 0 c -0.680305,0.71297 -0.655308,1.84494 0.05714,2.52665 v 0 l 0.42586,0.4074 c 0.0063,0.006 0.01339,0.0117 0.01964,0.0181 3.868453,3.5916 8.952881,5.59381 14.228372,5.60451 5.275486,0.0109 10.375094,-1.97 14.252474,-5.54822 v 0 c 0.721372,-0.66919 0.766908,-1.80115 0.100888,-2.52661 v 0 c -0.665127,-0.72471 -1.796289,-0.77027 -2.523913,-0.10109 v 0 c -3.212251,2.96532 -7.439604,4.6101 -11.817837,4.60386 -4.378234,-0.007 -8.591307,-1.66272 -11.798203,-4.6405 z M 31.763344,89.716029 c 0,-0.473521 0.187483,-0.929174 0.52674,-1.259744 0.33033,-0.339505 0.785655,-0.527128 1.258833,-0.527128 0.47318,0 0.928502,0.187623 1.258833,0.527128 0.339259,0.33057 0.526746,0.786223 0.526746,1.259744 0,0.473517 -0.187487,0.929167 -0.526746,1.259738 -0.330331,0.339504 -0.785653,0.527124 -1.258833,0.527124 -0.473178,0 -0.928503,-0.18762 -1.258833,-0.527124 -0.339257,-0.330571 -0.52674,-0.786221 -0.52674,-1.259738 z m -3.571154,0 c 0,-2.95816 2.400701,-5.360608 5.356727,-5.360608 2.956023,0 5.356733,2.402448 5.356733,5.360608 0,2.958157 -2.40071,5.360597 -5.356733,5.360597 -2.956026,0 -5.356727,-2.40244 -5.356727,-5.360597 z"
       fill-rule="evenodd"
       id="path4-1"
       style="fill:#8d5fd3;fill-opacity:1" />
  </g>
</svg>
