<?xml version="1.0" encoding="UTF-8" standalone="no"?>
<svg
   clip-rule="evenodd"
   fill-rule="evenodd"
   stroke-linejoin="round"
   stroke-miterlimit="2"
   viewBox="0 0 62 62"
   version="1.1"
   id="svg8"
   sodipodi:docname="kdiff3.svg"
   width="62"
   height="62"
   inkscape:version="1.4 (e7c3feb100, 2024-10-09)"
   xmlns:inkscape="http://www.inkscape.org/namespaces/inkscape"
   xmlns:sodipodi="http://sodipodi.sourceforge.net/DTD/sodipodi-0.dtd"
   xmlns:xlink="http://www.w3.org/1999/xlink"
   xmlns="http://www.w3.org/2000/svg"
   xmlns:svg="http://www.w3.org/2000/svg">
  <defs
     id="defs8">
    <linearGradient
       id="linearGradient8"
       inkscape:collect="always">
      <stop
         style="stop-color:#535d6c;stop-opacity:1"
         offset="0"
         id="stop8" />
      <stop
         style="stop-color:#535d6c;stop-opacity:1"
         offset="0.49762437"
         id="stop10" />
      <stop
         style="stop-color:#ffffff;stop-opacity:1;"
         offset="0.49762437"
         id="stop11" />
      <stop
         style="stop-color:#ffffff;stop-opacity:1;"
         offset="1"
         id="stop9" />
    </linearGradient>
    <linearGradient
       inkscape:collect="always"
       xlink:href="#linearGradient8"
       id="linearGradient9"
       x1="31.59128"
       y1="56.894001"
       x2="31.59128"
       y2="4.6457529"
       gradientUnits="userSpaceOnUse" />
  </defs>
  <sodipodi:namedview
     id="namedview8"
     pagecolor="#ffffff"
     bordercolor="#000000"
     borderopacity="0.25"
     inkscape:showpageshadow="2"
     inkscape:pageopacity="0.0"
     inkscape:pagecheckerboard="0"
     inkscape:deskcolor="#d1d1d1"
     showgrid="true"
     inkscape:zoom="11.107469"
     inkscape:cx="34.886435"
     inkscape:cy="30.339945"
     inkscape:window-width="1920"
     inkscape:window-height="994"
     inkscape:window-x="0"
     inkscape:window-y="0"
     inkscape:window-maximized="1"
     inkscape:current-layer="svg8">
    <inkscape:grid
       id="grid11"
       units="px"
       originx="0"
       originy="0"
       spacingx="1"
       spacingy="1"
       empcolor="#0099e5"
       empopacity="0.30196078"
       color="#0099e5"
       opacity="0.14901961"
       empspacing="5"
       enabled="true"
       visible="true" />
  </sodipodi:namedview>
  <linearGradient
     id="a"
     x2="1"
     gradientTransform="matrix(-0.583685,-54.126549,54.721655,-0.57733734,200.41111,53.157275)"
     gradientUnits="userSpaceOnUse">
    <stop
       stop-color="#286cd8"
       offset="0"
       id="stop1" />
    <stop
       stop-color="#40a9fe"
       offset="1"
       id="stop2" />
  </linearGradient>
  <linearGradient
     id="b"
     x2="1"
     gradientTransform="matrix(-0.583685,-54.126549,54.721655,-0.57733734,203.40902,55.033758)"
     gradientUnits="userSpaceOnUse">
    <stop
       stop-color="#d87828"
       offset="0"
       id="stop3" />
    <stop
       stop-color="#fece40"
       offset="1"
       id="stop4" />
  </linearGradient>
  <linearGradient
     id="c"
     x2="1"
     gradientTransform="matrix(-0.583685,-54.126549,54.721655,-0.57733734,546.06316,53.32608)"
     gradientUnits="userSpaceOnUse">
    <stop
       stop-color="#cfdaf0"
       offset="0"
       id="stop5" />
    <stop
       stop-color="#fdfdfe"
       offset="1"
       id="stop6" />
  </linearGradient>
  <g
     id="g8"
     transform="translate(2.406,2.106)">
    <path
       d="M 47.598212,7.0015045 C 47.598212,3.6290472 44.834324,0.894 41.424788,0.894 H 9.7674296 C 6.357893,0.894 3.594,3.6290472 3.594,7.0015045 V 47.033531 c 0,3.372457 2.763893,6.107504 6.1734296,6.107504 H 41.424788 c 3.409536,0 6.173424,-2.735047 6.173424,-6.107504 z"
       id="path6"
       style="fill:url(#a);stroke-width:1.21845" />
    <path
       d="m 50.596107,8.8779868 c 0,-3.3724573 -2.763895,-6.1075045 -6.173431,-6.1075045 H 12.765324 c -3.4095381,0 -6.1734311,2.7350472 -6.1734311,6.1075045 V 48.910013 c 0,3.372458 2.763893,6.107505 6.1734311,6.107505 h 31.657352 c 3.409536,0 6.173431,-2.735047 6.173431,-6.107505 z"
       id="path7"
       style="fill:url(#b);stroke-width:1.21845" />
    <path
       d="M 53.594,10.753257 C 53.594,7.3808 50.830107,4.6457528 47.420569,4.6457528 H 15.76199 c -3.409536,0 -6.1734297,2.7350472 -6.1734297,6.1075042 v 40.033238 c 0,3.372458 2.7638937,6.107505 6.1734297,6.107505 h 31.658579 c 3.409538,0 6.173431,-2.735047 6.173431,-6.107505 z"
       id="path8"
       style="fill:url(#linearGradient9);fill-opacity:1" />
  </g>
  <g
     fill="#4c4c4c"
     transform="matrix(3.2727003,0,0,3,-3.6360535,-2)"
     id="g5">
    <path
       d="M 6,5 H 17 V 6 H 6 Z"
       id="path3"
       style="fill:#535d6c" />
    <path
       d="M 6,8 H 17 V 9 H 6 Z"
       id="path4"
       style="fill:#535d6c" />
  </g>
  <g
     fill="#e4e4e4"
     transform="matrix(3.2727005,0,0,3,-3.6387756,25.94695)"
     id="g10">
    <path
       d="M 6,5 H 17 V 6 H 6 Z"
       id="path8-7" />
    <path
       d="M 6,8 H 17 V 9 H 6 Z"
       id="path9" />
  </g>
</svg>
