<?xml version="1.0" encoding="UTF-8" standalone="no"?>
<svg
   clip-rule="evenodd"
   fill-rule="evenodd"
   stroke-linejoin="round"
   stroke-miterlimit="2"
   viewBox="0 0 64 64"
   version="1.1"
   id="svg3"
   sodipodi:docname="org.cunidev.gestures.svg"
   width="64"
   height="64"
   inkscape:version="1.4 (unknown)"
   xmlns:inkscape="http://www.inkscape.org/namespaces/inkscape"
   xmlns:sodipodi="http://sodipodi.sourceforge.net/DTD/sodipodi-0.dtd"
   xmlns:xlink="http://www.w3.org/1999/xlink"
   xmlns="http://www.w3.org/2000/svg"
   xmlns:svg="http://www.w3.org/2000/svg">
  <defs
     id="defs3">
    <linearGradient
       id="linearGradient3"
       inkscape:collect="always">
      <stop
         style="stop-color:#7137c8;stop-opacity:1"
         offset="0"
         id="stop3" />
      <stop
         style="stop-color:#aa87de;stop-opacity:1"
         offset="1"
         id="stop4" />
    </linearGradient>
    <linearGradient
       inkscape:collect="always"
       xlink:href="#linearGradient3"
       id="linearGradient4"
       x1="30.332001"
       y1="58.332001"
       x2="30.332001"
       y2="2.332"
       gradientUnits="userSpaceOnUse" />
  </defs>
  <sodipodi:namedview
     id="namedview3"
     pagecolor="#ffffff"
     bordercolor="#000000"
     borderopacity="0.25"
     inkscape:showpageshadow="2"
     inkscape:pageopacity="0.0"
     inkscape:pagecheckerboard="0"
     inkscape:deskcolor="#d1d1d1"
     inkscape:zoom="8.0729167"
     inkscape:cx="49.610323"
     inkscape:cy="33.011613"
     inkscape:window-width="1920"
     inkscape:window-height="998"
     inkscape:window-x="0"
     inkscape:window-y="0"
     inkscape:window-maximized="1"
     inkscape:current-layer="svg3" />
  <linearGradient
     id="a"
     x2="1"
     gradientTransform="matrix(0,-43.53155,43.53155,0,1192.407,51.589413)"
     gradientUnits="userSpaceOnUse">
    <stop
       stop-color="#006783"
       offset="0"
       id="stop1" />
    <stop
       stop-color="#13bee3"
       offset="1"
       id="stop2" />
  </linearGradient>
  <path
     d="M 50.284003,58.332 H 10.379997 C 5.9373166,58.332 2.332,54.726683 2.332,50.284003 V 10.379997 C 2.332,5.9373166 5.9373166,2.332 10.379997,2.332 h 39.904006 c 4.44268,0 8.047997,3.6053166 8.047997,8.047997 v 39.904006 c 0,4.44268 -3.605317,8.047997 -8.047997,8.047997 z"
     id="path2"
     style="fill:url(#linearGradient4);fill-opacity:1" />
  <path
     d="m 10.013004,7.7554816 c -1.2508766,0 -2.2575224,1.0066458 -2.2575224,2.2575224 V 35.976453 H 52.908518 V 10.013004 c 0,-1.2508766 -1.006645,-2.2575224 -2.257522,-2.2575224 z M 31.67721,13.399934 h 5.756876 c 0.753369,0 1.364593,0.609932 1.364593,1.364593 v 5.756877 c 0,0.753369 -0.611224,1.3633 -1.364593,1.3633 -0.753369,0 -1.457633,-0.609931 -1.457633,-1.3633 v -2.461695 l -9.450065,9.450065 h 2.460402 c 0.754662,0 1.364593,0.704264 1.364593,1.457633 0,0.754661 -0.611224,1.364593 -1.364593,1.364593 h -5.756876 c -0.753369,0 -1.364593,-0.609932 -1.364593,-1.364593 v -5.756876 c 0,-0.753369 0.611224,-1.364593 1.364593,-1.364593 0.753369,0 1.457633,0.611224 1.457633,1.364593 v 2.461694 l 9.450065,-9.450064 H 31.67721 c -0.754662,0 -1.364593,-0.704265 -1.364593,-1.457634 0,-0.754661 0.611224,-1.364593 1.364593,-1.364593 z M 7.7554816,41.619613 v 9.031383 c 0,1.250877 1.0066458,2.257522 2.2575224,2.257522 h 17.49677 V 41.619613 Z m 25.3987444,0 v 11.288905 h 17.49677 c 1.250877,0 2.257522,-1.006645 2.257522,-2.257522 v -9.031383 z"
     fill="#ffffff"
     fill-opacity="0.9"
     fill-rule="nonzero"
     id="path3"
     style="stroke-width:1.29223" />
</svg>
