<?xml version="1.0" encoding="UTF-8" standalone="no"?>
<svg
   width="62"
   height="62"
   version="1.1"
   id="svg7"
   sodipodi:docname="org.wezfurlong.wezterm.svg"
   inkscape:version="1.4 (e7c3feb100, 2024-10-09)"
   xmlns:inkscape="http://www.inkscape.org/namespaces/inkscape"
   xmlns:sodipodi="http://sodipodi.sourceforge.net/DTD/sodipodi-0.dtd"
   xmlns:xlink="http://www.w3.org/1999/xlink"
   xmlns="http://www.w3.org/2000/svg"
   xmlns:svg="http://www.w3.org/2000/svg">
  <defs
     id="defs7">
    <linearGradient
       inkscape:collect="always"
       xlink:href="#linearGradient8"
       id="linearGradient10"
       x1="31.5"
       y1="59.017544"
       x2="31.5"
       y2="4.9824562"
       gradientUnits="userSpaceOnUse"
       gradientTransform="translate(-0.5,-0.5087719)" />
    <linearGradient
       id="linearGradient8"
       inkscape:collect="always">
      <stop
         style="stop-color:#2d3d53;stop-opacity:1;"
         offset="0"
         id="stop8" />
      <stop
         style="stop-color:#354864;stop-opacity:1;"
         offset="1"
         id="stop10" />
    </linearGradient>
    <linearGradient
       id="paint3_linear_332_93"
       x1="37.304401"
       y1="24.2272"
       x2="23.255199"
       y2="12.9039"
       gradientUnits="userSpaceOnUse"
       gradientTransform="matrix(1,0,0,1.0089403,-0.9999998,-0.28624446)">
      <stop
         stop-color="#731FFF"
         id="stop9" />
      <stop
         offset="0.905415"
         stop-color="#EB1AFF"
         id="stop10-5" />
    </linearGradient>
    <linearGradient
       id="paint1_linear_332_93"
       x1="2"
       y1="61.696899"
       x2="14.6751"
       y2="28.2421"
       gradientUnits="userSpaceOnUse"
       gradientTransform="matrix(0.91578336,0,0,1,1.7216248,-7.2011443)">
      <stop
         stop-color="#731FFF"
         id="stop5" />
      <stop
         offset="0.905415"
         stop-color="#EB1AFF"
         id="stop6" />
    </linearGradient>
    <linearGradient
       id="paint2_linear_332_93"
       x1="54.645401"
       y1="46.748501"
       x2="26.243099"
       y2="10.4978"
       gradientUnits="userSpaceOnUse"
       gradientTransform="matrix(0.91578336,0,0,1,1.7216248,-7.2011443)">
      <stop
         offset="0.118093"
         stop-color="#731FFF"
         id="stop7" />
      <stop
         offset="0.905415"
         stop-color="#EB1AFF"
         id="stop8-3" />
    </linearGradient>
    <linearGradient
       id="linearGradient4"
       x1="16"
       x2="47"
       y1="16"
       y2="48"
       gradientUnits="userSpaceOnUse"
       gradientTransform="matrix(1.1935485,0,0,1.1875,-6.5967725,-6.999994)">
      <stop
         stop-color="#ffffff"
         offset="0"
         id="stop1" />
      <stop
         stop-color="#ffffff"
         offset=".45161"
         id="stop2" />
      <stop
         stop-color="#fef0cb"
         offset=".59375"
         id="stop3" />
      <stop
         stop-color="#ffbcc3"
         offset="1"
         id="stop4" />
    </linearGradient>
  </defs>
  <sodipodi:namedview
     id="namedview7"
     pagecolor="#ffffff"
     bordercolor="#000000"
     borderopacity="0.25"
     inkscape:showpageshadow="2"
     inkscape:pageopacity="0.0"
     inkscape:pagecheckerboard="0"
     inkscape:deskcolor="#d1d1d1"
     inkscape:zoom="8.3085046"
     inkscape:cx="36.16776"
     inkscape:cy="31.233057"
     inkscape:window-width="1920"
     inkscape:window-height="998"
     inkscape:window-x="0"
     inkscape:window-y="0"
     inkscape:window-maximized="1"
     inkscape:current-layer="svg7"
     showgrid="false">
    <inkscape:grid
       id="grid1"
       units="px"
       originx="0"
       originy="0"
       spacingx="1"
       spacingy="1"
       empcolor="#0099e5"
       empopacity="0.30196078"
       color="#0099e5"
       opacity="0.14901961"
       empspacing="5"
       enabled="true"
       visible="false" />
  </sodipodi:namedview>
  <g
     id="g7"
     transform="translate(0,-0.4912281)">
    <rect
       style="opacity:0.2;stroke-width:0.9823"
       width="55"
       height="55.017544"
       x="3.5"
       y="4.4736843"
       rx="8.25"
       ry="8.2526312"
       id="rect1" />
    <rect
       style="fill:url(#linearGradient10);stroke-width:0.9823"
       width="55"
       height="55.017544"
       x="3.5"
       y="3.4912281"
       rx="8.25"
       ry="8.2526312"
       id="rect2" />
    <path
       style="opacity:0.1;fill:#ffffff;stroke-width:0.9823"
       d="M 11.748466,3.4912281 C 7.1779652,3.4912281 3.5,7.1703661 3.5,11.742325 v 0.982456 c 0,-4.5719589 3.6779652,-8.2510969 8.248466,-8.2510969 h 38.503068 c 4.5705,0 8.248466,3.679138 8.248466,8.2510969 v -0.982456 c 0,-4.5719589 -3.677966,-8.2510969 -8.248466,-8.2510969 z"
       id="path4-3" />
  </g>
  <g
     id="g1"
     transform="translate(2.683878,-14.963362)">
    <path
       style="opacity:0.2;stroke-width:1.09422"
       d="m 16.684549,29.545493 -0.836031,4.572443 C 9.203147,34.656354 5.831125,37.9363 5.831124,40.942498 c 0,3.051065 4.47216,5.385017 7.860857,7.404107 l -1.230466,7.259219 c -1.584332,-0.08974 -3.519884,-0.363229 -5.76434,-0.767039 l -0.881053,4.623569 c 1.892394,0.224344 3.650525,0.357831 5.23485,0.402695 l -0.96465,4.544742 4.310926,0.0448 0.836031,-4.768466 c 6.645372,-0.628167 9.241379,-3.667088 9.241379,-6.673289 0,-3.095934 -3.696144,-5.521134 -7.084842,-7.629958 l 1.234755,-7.095191 c 1.408294,0.134593 3.078663,0.405838 5.059071,0.809657 l 0.574504,-4.623618 c -1.496307,-0.22434 -2.909196,-0.310832 -4.229468,-0.400568 l 1.013963,-4.482944 z m 12.180353,3.272724 C 29.468212,44.563069 30.350282,54.944286 31,60.090905 h 5.104087 l 3.57351,-13.065324 3.757859,13.065324 h 5.200551 c 0.649718,-5.146619 1.576807,-15.527836 2.180115,-27.272688 H 45.84923 C 45.710014,35.589473 45.200974,52.083813 45.015344,53.44745 H 44.876003 C 43.622973,49.004642 42.602693,44.85339 41.34966,40.454568 H 38.517869 C 37.311245,44.85339 36.476068,48.696719 35.223043,53.44745 H 35.038685 C 34.899448,52.083813 34.108969,35.589473 34.016154,32.818217 Z m -13.102134,5.337349 -0.923924,5.612211 c -1.716356,-1.166586 -3.772862,-2.242882 -3.772862,-3.274853 0,-1.166589 1.924214,-2.337358 4.696786,-2.337358 z m 0.527345,11.76135 c 1.716354,1.166578 2.949696,2.197883 2.949696,3.319596 0,1.211453 -1.190079,2.324197 -3.918636,2.458804 z"
       id="path3" />
    <path
       style="fill:#8d89f5;stroke-width:1.09422;fill-opacity:1"
       d="m 16.684549,28.454589 -0.836031,4.572434 c -6.645371,0.538426 -10.017393,3.818372 -10.017394,6.824563 0,3.051072 4.47216,5.385024 7.860857,7.404108 l -1.230466,7.259225 c -1.584332,-0.08974 -3.519884,-0.363228 -5.76434,-0.767048 l -0.881053,4.623578 c 1.892394,0.224342 3.650525,0.357829 5.23485,0.402695 l -0.96465,4.544737 4.310926,0.0448 0.836031,-4.768465 c 6.645372,-0.628167 9.241379,-3.667087 9.241379,-6.673289 0,-3.095934 -3.696144,-5.521133 -7.084842,-7.629958 l 1.234755,-7.095181 c 1.408294,0.134594 3.078663,0.405839 5.059071,0.809658 l 0.574504,-4.623578 C 22.761839,33.158515 21.34895,33.072029 20.028678,32.982293 l 1.013963,-4.482951 z m 12.180353,3.272723 C 29.468212,43.472163 30.350282,53.853373 31,58.999998 h 5.104087 l 3.57351,-13.065321 3.757859,13.065321 h 5.200551 c 0.649718,-5.146625 1.576807,-15.527835 2.180115,-27.272686 H 45.84923 c -0.139216,2.771255 -0.648256,19.265594 -0.833886,20.629225 h -0.139341 c -1.25303,-4.442808 -2.27331,-8.594052 -3.526343,-12.992874 h -2.831791 c -1.206624,4.398822 -2.041801,8.242151 -3.294826,12.992874 H 35.038685 C 34.899448,50.992906 34.108969,34.498567 34.016154,31.727312 Z m -13.102134,5.33735 -0.923924,5.612203 c -1.716356,-1.166581 -3.772862,-2.242874 -3.772862,-3.274847 0,-1.166588 1.924214,-2.337356 4.696786,-2.337356 z m 0.527345,11.761341 c 1.716354,1.166586 2.949696,2.19789 2.949696,3.319601 0,1.211456 -1.190079,2.324199 -3.918636,2.458805 z"
       id="path4" />
    <path
       style="opacity:0.1;fill:#ffffff;stroke-width:1.09422"
       d="m 16.684549,28.454589 -0.836031,4.572434 c -6.645371,0.538426 -10.017393,3.818372 -10.017394,6.824563 0,0.166946 0.01912,0.331605 0.04504,0.494318 0.414112,-2.829866 3.764218,-5.724971 9.972371,-6.227968 l 0.836027,-4.572443 4.111568,0.04262 0.246524,-1.088782 z m 12.180353,3.272723 c 0.01897,0.369551 0.04048,0.724176 0.06004,1.090905 h 5.091228 c 0.09286,2.771256 0.883297,19.265596 1.02253,20.629233 h 0.184358 c 1.253019,-4.750731 2.088196,-8.59406 3.29482,-12.992882 h 2.83179 c 1.253034,4.398822 2.273314,8.550074 3.526345,12.992882 h 0.13934 c 0.185628,-1.363637 0.694669,-17.857977 0.833885,-20.629233 h 4.906869 c 0.01955,-0.36672 0.04102,-0.721363 0.06,-1.090905 h -4.966895 c -0.139225,2.771255 -0.648265,19.265594 -0.833896,20.629225 H 44.875999 C 43.622975,47.913729 42.602695,43.762485 41.349662,39.363663 h -2.831798 c -1.206624,4.398822 -2.041802,8.242151 -3.294826,12.992874 H 35.038685 C 34.899448,50.992906 34.108969,34.498567 34.016154,31.727312 Z m -8.593986,1.272012 -0.242238,1.073864 c 1.28063,0.08703 2.650056,0.173823 4.096559,0.383525 l 0.132909,-1.073862 c -1.40789,-0.21109 -2.734705,-0.298989 -3.98723,-0.383527 z m -4.508148,5.156242 c -0.06334,0 -0.119738,0.0093 -0.182213,0.01044 l -0.741711,4.510644 c -1.435147,-0.97545 -3.102413,-1.887417 -3.612091,-2.763487 -0.102484,0.189754 -0.160771,0.384536 -0.160771,0.579545 0,1.031973 2.056506,2.108269 3.772862,3.274851 z m 1.798545,6.245025 -0.171497,0.982239 c 3.207613,1.996136 6.685308,4.276305 7.048404,7.139902 0.0236,-0.200259 0.03644,-0.400149 0.03644,-0.60085 0,-3.043909 -3.57254,-5.437357 -6.913345,-7.521291 z m -4.036541,3.845873 -1.063257,6.268455 c -1.584332,-0.08974 -3.519884,-0.363228 -5.76434,-0.767048 l -0.881053,4.623578 c 0.0691,0.0079 0.134891,0.01338 0.203648,0.02131 L 6.697175,54.83879 c 2.244456,0.40381 4.180008,0.677302 5.76434,0.767038 l 1.230466,-7.25922 c -0.05343,-0.03183 -0.113285,-0.06816 -0.167209,-0.10016 z m 5.618573,4.468033 c -0.317712,0.943931 -1.471659,1.722288 -3.635672,1.870731 l -0.1865,1.110088 c 2.728557,-0.134607 3.918636,-1.247351 3.918636,-2.458804 0,-0.175739 -0.03884,-0.349849 -0.09648,-0.522015 z m -8.321743,7.139902 -0.73528,3.464482 0.231514,0.002 0.733136,-3.455951 c -0.07455,-0.0021 -0.154106,-0.0079 -0.22937,-0.01044 z"
       id="path6" />
  </g>
</svg>
