<?xml version="1.0" encoding="UTF-8" standalone="no"?>
<svg
   width="62"
   height="62"
   version="1.1"
   id="svg7"
   sodipodi:docname="tellico.svg"
   inkscape:version="1.4 (e7c3feb100, 2024-10-09)"
   xmlns:inkscape="http://www.inkscape.org/namespaces/inkscape"
   xmlns:sodipodi="http://sodipodi.sourceforge.net/DTD/sodipodi-0.dtd"
   xmlns:xlink="http://www.w3.org/1999/xlink"
   xmlns="http://www.w3.org/2000/svg"
   xmlns:svg="http://www.w3.org/2000/svg">
  <defs
     id="defs7">
    <linearGradient
       inkscape:collect="always"
       xlink:href="#linearGradient8"
       id="linearGradient10"
       x1="31.5"
       y1="59.017544"
       x2="31.5"
       y2="4.9824562"
       gradientUnits="userSpaceOnUse"
       gradientTransform="translate(-0.5,-1)" />
    <linearGradient
       id="linearGradient8"
       inkscape:collect="always">
      <stop
         style="stop-color:#2d3d53;stop-opacity:1;"
         offset="0"
         id="stop8" />
      <stop
         style="stop-color:#354864;stop-opacity:1;"
         offset="1"
         id="stop10" />
    </linearGradient>
    <linearGradient
       id="paint3_linear_332_93"
       x1="37.304401"
       y1="24.2272"
       x2="23.255199"
       y2="12.9039"
       gradientUnits="userSpaceOnUse"
       gradientTransform="matrix(1,0,0,1.0089403,-0.9999998,-0.28624446)">
      <stop
         stop-color="#731FFF"
         id="stop9" />
      <stop
         offset="0.905415"
         stop-color="#EB1AFF"
         id="stop10-5" />
    </linearGradient>
    <linearGradient
       id="paint1_linear_332_93"
       x1="2"
       y1="61.696899"
       x2="14.6751"
       y2="28.2421"
       gradientUnits="userSpaceOnUse"
       gradientTransform="matrix(0.91578336,0,0,1,1.7216248,-7.2011443)">
      <stop
         stop-color="#731FFF"
         id="stop5" />
      <stop
         offset="0.905415"
         stop-color="#EB1AFF"
         id="stop6" />
    </linearGradient>
    <linearGradient
       id="paint2_linear_332_93"
       x1="54.645401"
       y1="46.748501"
       x2="26.243099"
       y2="10.4978"
       gradientUnits="userSpaceOnUse"
       gradientTransform="matrix(0.91578336,0,0,1,1.7216248,-7.2011443)">
      <stop
         offset="0.118093"
         stop-color="#731FFF"
         id="stop7" />
      <stop
         offset="0.905415"
         stop-color="#EB1AFF"
         id="stop8-3" />
    </linearGradient>
    <linearGradient
       id="linearGradient4"
       x1="16"
       x2="47"
       y1="16"
       y2="48"
       gradientUnits="userSpaceOnUse"
       gradientTransform="matrix(1.1935485,0,0,1.1875,-6.5967725,-6.999994)">
      <stop
         stop-color="#ffffff"
         offset="0"
         id="stop1" />
      <stop
         stop-color="#ffffff"
         offset=".45161"
         id="stop2" />
      <stop
         stop-color="#fef0cb"
         offset=".59375"
         id="stop3" />
      <stop
         stop-color="#ffbcc3"
         offset="1"
         id="stop4" />
    </linearGradient>
    <linearGradient
       id="paint0_linear_19_69"
       x1="13.5381"
       y1="7.6556602"
       x2="19.187599"
       y2="7.6556602"
       gradientUnits="userSpaceOnUse"
       gradientTransform="matrix(1.818183,0,0,1.818183,11.458092,11.928816)">
      <stop
         stop-color="#02AA93"
         id="stop3-5" />
      <stop
         offset="1"
         stop-color="#67FF80"
         id="stop4-3" />
    </linearGradient>
    <linearGradient
       id="paint1_linear_19_69"
       x1="13.5426"
       y1="5.74156"
       x2="23"
       y2="5.74156"
       gradientUnits="userSpaceOnUse"
       gradientTransform="matrix(1.818183,0,0,1.818183,11.458092,11.928816)">
      <stop
         stop-color="#02AA93"
         id="stop5-5" />
      <stop
         offset="1"
         stop-color="#67FF80"
         id="stop6-6" />
    </linearGradient>
    <linearGradient
       id="paint2_linear_19_69"
       x1="1"
       y1="12.425"
       x2="22.2339"
       y2="12.425"
       gradientUnits="userSpaceOnUse"
       gradientTransform="matrix(1.818183,0,0,1.818183,11.458092,11.928816)">
      <stop
         stop-color="#02AA93"
         id="stop7-2" />
      <stop
         offset="1"
         stop-color="#67FF80"
         id="stop8-9" />
    </linearGradient>
    <linearGradient
       id="d"
       x1="43"
       x2="85"
       y1="39"
       y2="39"
       gradientUnits="userSpaceOnUse"
       gradientTransform="matrix(0.40384613,0,0,0.40384613,18.450538,67.032213)">
      <stop
         offset="0"
         stop-color="#26a269"
         id="stop18" />
      <stop
         offset=".093"
         stop-color="#84e3b7"
         id="stop19" />
      <stop
         offset=".331"
         stop-color="#26a269"
         id="stop20" />
      <stop
         offset=".687"
         stop-color="#26a269"
         id="stop21" />
      <stop
         offset=".897"
         stop-color="#175e3c"
         id="stop22" />
      <stop
         offset="1"
         stop-color="#26a269"
         id="stop23" />
    </linearGradient>
    <linearGradient
       xlink:href="#a"
       id="e"
       x1="-1710.2"
       x2="-1774.5"
       y1="-1202.4"
       y2="-1202.4"
       gradientTransform="matrix(0.03278825,-0.01893229,0.02789771,0.04832018,142.44342,118.349)" />
    <linearGradient
       id="a"
       gradientUnits="userSpaceOnUse">
      <stop
         offset="0"
         stop-color="#c0bfbc"
         id="stop12" />
      <stop
         offset=".155"
         stop-color="#fff"
         id="stop13" />
      <stop
         offset=".434"
         stop-color="#bdbbb5"
         id="stop14" />
      <stop
         offset=".65"
         stop-color="#c1c0ba"
         id="stop15" />
      <stop
         offset=".825"
         stop-color="#fff"
         id="stop16" />
      <stop
         offset="1"
         stop-color="#c0bfbc"
         id="stop17" />
    </linearGradient>
    <linearGradient
       xlink:href="#a"
       id="f"
       x1="-1710.2"
       x2="-1774.5"
       y1="-1202.4"
       y2="-1202.4"
       gradientTransform="matrix(-0.03278825,-0.01893229,-0.02789771,0.04832018,-53.127151,118.349)" />
    <linearGradient
       id="g"
       x1="14"
       x2="56"
       y1="95"
       y2="95"
       gradientUnits="userSpaceOnUse"
       gradientTransform="matrix(0.40384613,0,0,0.40384613,18.450538,67.032213)">
      <stop
         offset="0"
         stop-color="#813d9c"
         id="stop7-6" />
      <stop
         offset=".109"
         stop-color="#b378ca"
         id="stop8-2" />
      <stop
         offset=".242"
         stop-color="#813d9c"
         id="stop9-9" />
      <stop
         offset=".732"
         stop-color="#813d9c"
         id="stop10-1" />
      <stop
         offset=".872"
         stop-color="#4d255d"
         id="stop11" />
      <stop
         offset="1"
         stop-color="#813d9c"
         id="stop24" />
    </linearGradient>
    <linearGradient
       id="h"
       x1="72"
       x2="114"
       y1="95"
       y2="95"
       gradientUnits="userSpaceOnUse"
       gradientTransform="matrix(0.40384613,0,0,0.40384613,18.450538,67.032213)">
      <stop
         offset="0"
         stop-color="#e66100"
         id="stop25" />
      <stop
         offset=".068"
         stop-color="#ff903e"
         id="stop26" />
      <stop
         offset=".169"
         stop-color="#e66100"
         id="stop27" />
      <stop
         offset=".887"
         stop-color="#e66100"
         id="stop28" />
      <stop
         offset="1"
         stop-color="#9d4200"
         id="stop29" />
    </linearGradient>
  </defs>
  <sodipodi:namedview
     id="namedview7"
     pagecolor="#ffffff"
     bordercolor="#000000"
     borderopacity="0.25"
     inkscape:showpageshadow="2"
     inkscape:pageopacity="0.0"
     inkscape:pagecheckerboard="0"
     inkscape:deskcolor="#d1d1d1"
     inkscape:zoom="8.3085046"
     inkscape:cx="44.352145"
     inkscape:cy="50.370075"
     inkscape:window-width="1920"
     inkscape:window-height="998"
     inkscape:window-x="0"
     inkscape:window-y="0"
     inkscape:window-maximized="1"
     inkscape:current-layer="svg7"
     showgrid="false">
    <inkscape:grid
       id="grid1"
       units="px"
       originx="0"
       originy="0"
       spacingx="1"
       spacingy="1"
       empcolor="#0099e5"
       empopacity="0.30196078"
       color="#0099e5"
       opacity="0.14901961"
       empspacing="5"
       enabled="true"
       visible="false" />
  </sodipodi:namedview>
  <rect
     style="opacity:0.2;stroke-width:0.9823"
     width="55"
     height="55.017544"
     x="3.5"
     y="3.9824562"
     rx="8.25"
     ry="8.2526312"
     id="rect1" />
  <rect
     style="fill:url(#linearGradient10);stroke-width:0.9823"
     width="55"
     height="55.017544"
     x="3.5"
     y="3"
     rx="8.25"
     ry="8.2526312"
     id="rect2" />
  <path
     style="opacity:0.1;fill:#ffffff;stroke-width:0.9823"
     d="M 11.748466,3 C 7.1779652,3 3.5,6.679138 3.5,11.251097 v 0.982456 c 0,-4.571959 3.6779652,-8.251097 8.248466,-8.251097 h 38.503068 c 4.5705,0 8.248466,3.679138 8.248466,8.251097 V 11.251097 C 58.5,6.679138 54.822034,3 50.251534,3 Z"
     id="path4-3" />
  <g
     id="g1"
     transform="translate(1.350733,-61.342919)">
    <path
       style="opacity:0.2;stroke-width:0.701767"
       d="m 9.9999988,108.97445 v 1.40352 c 0,1.08765 0.8769222,1.96495 1.9654642,1.96495 H 37.50933 c 1.087711,0 1.964901,-0.8773 1.964901,-1.96495 v -1.40352 c 0,1.08773 -0.87719,1.96501 -1.964901,1.96501 H 11.965463 c -1.088,0 -1.964895,-0.87728 -1.964895,-1.96501 z"
       id="path1" />
    <rect
       style="fill:#42cf57;stroke-width:0.701767"
       width="9.8245592"
       height="29.473665"
       x="-111.64127"
       y="-39.473663"
       rx="1.9649097"
       ry="1.9649097"
       transform="matrix(0,-1,-1,0,0,0)"
       id="rect1-6" />
    <path
       style="opacity:0.2;stroke-width:0.701767"
       d="m 19.824557,99.14989 v 1.40345 c 0,1.0877 0.876907,1.96501 1.964907,1.96501 h 25.542451 c 1.089116,0 1.966307,-0.87731 1.966307,-1.96501 v -1.40345 c 0,1.0877 -0.877191,1.96493 -1.964893,1.96493 H 21.789464 c -1.088,0 -1.964907,-0.87723 -1.964907,-1.96493 z"
       id="path2" />
    <rect
       style="fill:#2ea0e3;stroke-width:0.701767"
       width="9.8245592"
       height="29.473665"
       x="-101.81657"
       y="-49.298233"
       rx="1.9649097"
       ry="1.9649097"
       transform="matrix(0,-1,-1,0,0,0)"
       id="rect2-2" />
    <path
       style="opacity:0.2;stroke-width:0.701767"
       d="m 9.9999988,89.325367 v 1.403514 c 0,1.087724 0.8769222,1.964891 1.9654642,1.964891 H 37.50933 c 1.087711,0 1.964901,-0.877167 1.964901,-1.964891 v -1.403514 c 0,1.087729 -0.87719,1.964919 -1.964901,1.964919 H 11.965463 c -1.088,0 -1.964895,-0.87719 -1.964895,-1.964919 z"
       id="path3" />
    <rect
       style="fill:#e65957;stroke-width:0.701767"
       width="9.8245592"
       height="29.473665"
       x="-91.991959"
       y="-39.473663"
       rx="1.9649097"
       ry="1.9649097"
       transform="matrix(0,-1,-1,0,0,0)"
       id="rect3" />
    <path
       style="opacity:0.2;stroke-width:0.701767"
       d="m 19.824557,79.500249 v 1.403517 c 0,1.08855 0.876907,1.965462 1.964907,1.965462 h 25.542451 c 1.089116,0 1.966307,-0.876912 1.966307,-1.965462 v -1.403517 c 0,1.088559 -0.877191,1.96548 -1.964893,1.96548 H 21.789464 c -1.088,0 -1.964907,-0.876921 -1.964907,-1.96548 z"
       id="path4" />
    <rect
       style="fill:#ffe766;stroke-width:0.701767"
       width="9.8245592"
       height="29.473665"
       x="-82.167542"
       y="-49.298233"
       rx="1.9649097"
       ry="1.9649097"
       transform="matrix(0,-1,-1,0,0,0)"
       id="rect4" />
    <path
       style="opacity:0.2;fill:#ffffff;stroke-width:0.701767"
       d="m 21.79002,72.342919 c -1.087999,0 -1.965463,0.876905 -1.965463,1.96545 v 0.701768 c 0,-1.088575 0.877464,-1.965451 1.965463,-1.965451 h 25.542752 c 1.087726,0 1.96545,0.876876 1.96545,1.965451 v -0.701768 c 0,-1.088545 -0.877724,-1.96545 -1.96545,-1.96545 z"
       id="path5" />
    <path
       style="opacity:0.2;fill:#ffffff;stroke-width:0.701767"
       d="m 11.96545,82.16748 c -1.088545,0 -1.9654512,0.87746 -1.9654512,1.965459 v 0.701758 c 0,-1.088 0.8769062,-1.965469 1.9654512,-1.965469 h 25.544131 c 1.087731,0 1.964099,0.877469 1.964099,1.965469 v -0.701758 c 0,-1.087999 -0.876368,-1.965459 -1.964099,-1.965459 z"
       id="path6" />
    <path
       style="opacity:0.2;fill:#ffffff;stroke-width:0.701767"
       d="m 21.79002,91.992051 c -1.087999,0 -1.965463,0.877708 -1.965463,1.965429 v 0.701775 c 0,-1.087726 0.877464,-1.965483 1.965463,-1.965483 h 0.0017 25.541383 c 1.087687,0 1.965433,0.877757 1.965433,1.965483 V 93.95748 c 0,-1.087721 -0.877746,-1.965429 -1.96546,-1.965429 H 21.791423 Z"
       id="path7" />
    <path
       style="opacity:0.2;fill:#ffffff;stroke-width:0.701767"
       d="m 11.96545,101.81662 c -1.088545,0 -1.9654512,0.87771 -1.9654512,1.96538 v 0.70187 c 0,-1.08766 0.8769062,-1.96552 1.9654512,-1.96552 h 25.544131 c 1.087731,0 1.964099,0.87786 1.964099,1.96552 V 103.782 c 0,-1.08767 -0.876368,-1.96538 -1.964099,-1.96538 z"
       id="path8" />
  </g>
</svg>
