<?xml version="1.0" encoding="UTF-8" standalone="no"?>
<svg
   width="62"
   height="62"
   version="1"
   id="svg7"
   sodipodi:docname="granatier.svg"
   inkscape:version="1.4 (e7c3feb100, 2024-10-09)"
   xmlns:inkscape="http://www.inkscape.org/namespaces/inkscape"
   xmlns:sodipodi="http://sodipodi.sourceforge.net/DTD/sodipodi-0.dtd"
   xmlns="http://www.w3.org/2000/svg"
   xmlns:svg="http://www.w3.org/2000/svg">
  <defs
     id="defs7" />
  <sodipodi:namedview
     id="namedview7"
     pagecolor="#ffffff"
     bordercolor="#000000"
     borderopacity="0.25"
     inkscape:showpageshadow="2"
     inkscape:pageopacity="0.0"
     inkscape:pagecheckerboard="0"
     inkscape:deskcolor="#d1d1d1"
     inkscape:zoom="11.6875"
     inkscape:cx="31.957219"
     inkscape:cy="30.374332"
     inkscape:window-width="1920"
     inkscape:window-height="994"
     inkscape:window-x="0"
     inkscape:window-y="0"
     inkscape:window-maximized="1"
     inkscape:current-layer="svg7" />
  <g
     id="g7"
     transform="translate(-3.5000068,-2.9038661)">
    <path
       style="opacity:0.2;stroke-width:1.07669"
       d="m 53.234061,13.147527 -1.703917,2.943375 a 25.882226,25.798324 0 0 1 0.750585,0.852416 l 1.20568,-2.082781 c 0.33431,-0.577447 0.200586,-1.265826 -0.252348,-1.71301 z M 7.0493699,34.932072 A 25.882226,25.798324 0 0 0 19.94001,58.447259 25.882226,25.798324 0 0 0 55.297318,49.002925 25.882226,25.798324 0 0 0 58.705132,35.14706 25.882226,25.798324 0 0 1 55.297318,46.853064 25.882226,25.798324 0 0 1 19.94001,56.297386 25.882226,25.798324 0 0 1 7.0493699,34.932072 Z"
       id="path1" />
    <path
       style="fill:#373f48;stroke-width:1.07669;fill-opacity:1"
       d="M 42.999796,6.0983541 C 42.309594,5.7012738 41.433924,5.9353946 41.034911,6.6229195 L 39.080244,9.9975583 A 25.882226,25.798324 0 0 0 10.467447,22.131382 25.882226,25.798324 0 0 0 19.940346,57.371895 25.882226,25.798324 0 0 0 55.295468,47.929707 25.882226,25.798324 0 0 0 51.529603,17.16949 l 1.957472,-3.379352 c 0.398284,-0.687635 0.16355,-1.560863 -0.52632,-1.957858 L 42.998676,6.0992567 Z"
       id="path2" />
    <path
       style="opacity:0.1;fill:#ffffff;stroke-width:1.07669"
       d="M 42.455535,5.9148273 C 41.901237,5.8453864 41.333578,6.1087012 41.033788,6.624453 L 39.079112,9.9962226 A 25.882226,25.798324 0 0 0 10.464877,22.131225 25.882226,25.798324 0 0 0 7.0442315,35.38108 25.882226,25.798324 0 0 1 10.464877,23.206174 25.882226,25.798324 0 0 1 39.079112,11.071151 l 1.954676,-3.3717629 c 0.29979,-0.5157524 0.867449,-0.7790667 1.421747,-0.7096259 h 0.002 c 0.185485,0.023217 0.370877,0.085442 0.543423,0.184754 l 9.960755,5.7315908 c 0.292854,0.169017 0.483259,0.431968 0.59818,0.722231 0.27945,-0.657842 0.03789,-1.430116 -0.59818,-1.797179 L 43.001071,6.0995814 C 42.828525,6.0002564 42.643133,5.9380442 42.457648,5.9148273 Z m 9.825955,12.1056277 -0.751964,1.297482 a 25.882226,25.798324 0 0 1 0.374938,0.43038 l 0.377026,-0.652941 a 25.882226,25.798324 0 0 1 6.417922,17.012122 25.882226,25.798324 0 0 1 0.006,0.115466 25.882226,25.798324 0 0 0 -6.424236,-18.202509 z"
       id="path3" />
    <path
       style="fill:#bbb673;fill-rule:evenodd;stroke-width:1.07669"
       d="M 57.744053,9.095691 C 57.200513,8.7250536 56.559935,8.4698651 55.90857,8.2916429 54.607986,7.9356245 53.139156,7.8418924 51.730729,7.8461904 c -2.814028,0.00871 -5.432458,0.1513012 -5.432458,0.1513012 l 3.562913,2.0503874 c 0.597417,-0.0402 1.229838,-0.050773 1.879848,-0.05274 1.294458,-0.00404 2.613672,0.104025 3.597414,0.373246 0.983804,0.269233 1.507152,0.65894 1.665802,1.045916 0.444272,1.083676 0.193315,1.829306 -0.65182,2.863625 -0.845176,1.034422 -2.329627,2.141679 -3.967967,3.272934 -1.638406,1.131254 -3.424011,2.297769 -4.91634,3.633908 -1.492364,1.335956 -2.745235,2.878447 -3.04116,4.805166 -0.32214,2.097623 0.822992,4.249202 1.885373,6.049912 1.06238,1.800735 2.179722,3.19857 2.179722,3.19857 0.885452,1.188896 2.649481,-0.207102 1.688462,-1.336221 0,0 -1.037081,-1.299826 -2.011558,-2.951554 -0.974497,-1.651726 -1.748657,-3.707425 -1.606417,-4.63359 0.181083,-1.179103 1.028731,-2.35667 2.343647,-3.53372 1.31483,-1.177012 3.040725,-2.316257 4.708188,-3.467513 1.667364,-1.151233 3.282295,-2.303153 4.40969,-3.682934 1.127437,-1.379909 1.724646,-3.203496 0.976573,-5.028308 C 58.737513,9.9553176 58.288877,9.4657952 57.74536,9.0951579 Z"
       id="path4" />
    <path
       style="opacity:0.2;stroke-width:1.07669"
       d="m 58.68547,31.784958 -2.542677,6.008491 5.857214,3.09058 -6.335835,1.693445 1.296147,6.448364 -5.358032,-3.896719 -4.240909,4.950437 -0.345534,-6.552571 -6.584477,-0.275242 4.927208,-4.274158 -3.969741,-5.293648 6.489732,1.222766 1.634226,-6.325845 3.165346,5.798973 z"
       id="path5" />
    <path
       style="fill:#c83771;stroke-width:1.07669"
       d="m 58.68547,30.710034 -2.542677,6.00847 5.857214,3.090581 -6.335835,1.693445 1.296147,6.448362 -5.358032,-3.896697 -4.240909,4.950437 -0.345534,-6.552571 -6.584477,-0.275263 4.927208,-4.274136 -3.969741,-5.293649 6.489732,1.222744 1.634226,-6.325844 3.165346,5.798973 z"
       id="path6" />
    <path
       style="opacity:0.1;fill:#ffffff;stroke-width:1.07669"
       d="m 49.513782,27.505913 -1.634491,6.325745 -6.489547,-1.2219 0.939412,1.251302 5.550135,1.045543 1.634491,-6.325745 3.163701,5.798774 5.451118,-2.353528 0.556072,-1.316382 -6.00719,2.594964 z m 7.001379,9.407793 -0.372804,0.879684 4.505395,2.376618 1.352255,-0.361115 z m -11.645781,1.41295 -4.438013,3.850455 1.181657,0.05038 3.745004,-3.250007 z m 10.999144,4.19686 -0.204299,0.05466 1.042613,5.187825 0.252754,0.184756 z"
       id="path7" />
  </g>
</svg>
