<?xml version="1.0" encoding="UTF-8" standalone="no"?>
<svg
   width="62"
   height="62"
   version="1.1"
   id="svg4"
   sodipodi:docname="org.kde.merkuro.contact.svg"
   inkscape:version="1.4 (e7c3feb100, 2024-10-09)"
   xmlns:inkscape="http://www.inkscape.org/namespaces/inkscape"
   xmlns:sodipodi="http://sodipodi.sourceforge.net/DTD/sodipodi-0.dtd"
   xmlns:xlink="http://www.w3.org/1999/xlink"
   xmlns="http://www.w3.org/2000/svg"
   xmlns:svg="http://www.w3.org/2000/svg">
  <defs
     id="defs4">
    <linearGradient
       id="linearGradient4"
       inkscape:collect="always">
      <stop
         style="stop-color:#00b7b7;stop-opacity:1;"
         offset="0"
         id="stop4" />
      <stop
         style="stop-color:#008080;stop-opacity:1"
         offset="1"
         id="stop5" />
    </linearGradient>
    <linearGradient
       inkscape:collect="always"
       xlink:href="#linearGradient4"
       id="linearGradient5"
       x1="5.9187617"
       y1="4.9824572"
       x2="55.580593"
       y2="56.65432"
       gradientUnits="userSpaceOnUse" />
  </defs>
  <sodipodi:namedview
     id="namedview4"
     pagecolor="#ffffff"
     bordercolor="#000000"
     borderopacity="0.25"
     inkscape:showpageshadow="2"
     inkscape:pageopacity="0.0"
     inkscape:pagecheckerboard="0"
     inkscape:deskcolor="#d1d1d1"
     inkscape:zoom="8.2643105"
     inkscape:cx="28.980034"
     inkscape:cy="42.471783"
     inkscape:window-width="1920"
     inkscape:window-height="994"
     inkscape:window-x="0"
     inkscape:window-y="0"
     inkscape:window-maximized="1"
     inkscape:current-layer="svg4" />
  <g
     id="g4"
     transform="translate(-0.5,-1.0000005)">
    <rect
       style="opacity:0.2;stroke-width:0.982303"
       width="55"
       height="55.017544"
       x="4"
       y="4.9824572"
       ry="9.8245621"
       id="rect1" />
    <rect
       style="fill:url(#linearGradient5);stroke-width:0.982303"
       width="55"
       height="55.017544"
       x="4"
       y="4"
       ry="9.8245621"
       id="rect2" />
    <path
       style="opacity:0.2;fill:#ffffff;stroke-width:0.982303"
       d="M 13.821427,4 C 8.3803572,4 4,8.3817544 4,13.82456 v 0.982459 C 4,9.3642107 8.3803572,4.982456 13.821427,4.982456 H 49.178572 C 54.619642,4.982456 59,9.3642107 59,14.807019 V 13.82456 C 59,8.3817544 54.619642,4 49.178572,4 Z"
       id="path2" />
    <path
       style="opacity:0.2;stroke-width:0.982303"
       d="M 39.357144,22.666667 A 7.8571429,7.8596492 0 0 1 31.5,30.526315 7.8571429,7.8596492 0 0 1 23.642858,22.666667 7.8571429,7.8596492 0 0 1 31.5,14.807019 7.8571429,7.8596492 0 0 1 39.357144,22.666667 Z M 31.5,34.456142 c -13.749999,0.01 -13.749999,8.70456 -13.749999,8.70456 v 3.536841 c 0,0 2.54375,5.442807 13.749999,5.442807 11.206251,0 13.750001,-5.442807 13.750001,-5.442807 v -3.536841 c 0,0 0,-8.714389 -13.750001,-8.70456 z"
       id="path3" />
    <path
       style="fill:#ffffff;stroke-width:0.982303"
       d="M 39.357144,21.684211 A 7.8571429,7.8596492 0 0 1 31.5,29.543862 7.8571429,7.8596492 0 0 1 23.642858,21.684211 7.8571429,7.8596492 0 0 1 31.5,13.82456 7.8571429,7.8596492 0 0 1 39.357144,21.684211 Z M 31.5,33.473682 c -13.749999,0.01 -13.749999,8.704563 -13.749999,8.704563 v 3.536843 c 0,0 2.54375,5.442807 13.749999,5.442807 11.206251,0 13.750001,-5.442807 13.750001,-5.442807 v -3.536843 c 0,0 0,-8.714383 -13.750001,-8.704563 z"
       id="path4" />
  </g>
</svg>
