<?xml version="1.0" encoding="UTF-8" standalone="no"?>
<svg
   width="62"
   height="62"
   version="1.1"
   id="svg6"
   sodipodi:docname="armagetronad.svg"
   inkscape:version="1.4 (e7c3feb100, 2024-10-09)"
   xmlns:inkscape="http://www.inkscape.org/namespaces/inkscape"
   xmlns:sodipodi="http://sodipodi.sourceforge.net/DTD/sodipodi-0.dtd"
   xmlns:xlink="http://www.w3.org/1999/xlink"
   xmlns="http://www.w3.org/2000/svg"
   xmlns:svg="http://www.w3.org/2000/svg">
  <defs
     id="defs6">
    <linearGradient
       id="linearGradient6"
       inkscape:collect="always">
      <stop
         style="stop-color:#2e4047;stop-opacity:1;"
         offset="0"
         id="stop6" />
      <stop
         style="stop-color:#3c525d;stop-opacity:1;"
         offset="1"
         id="stop7" />
    </linearGradient>
    <linearGradient
       inkscape:collect="always"
       xlink:href="#linearGradient6"
       id="linearGradient7"
       x1="32"
       y1="60"
       x2="32"
       y2="5"
       gradientUnits="userSpaceOnUse"
       gradientTransform="matrix(0.98214286,0,0,0.98245614,-0.42857152,-0.92982455)" />
  </defs>
  <sodipodi:namedview
     id="namedview6"
     pagecolor="#ffffff"
     bordercolor="#000000"
     borderopacity="0.25"
     inkscape:showpageshadow="2"
     inkscape:pageopacity="0.0"
     inkscape:pagecheckerboard="0"
     inkscape:deskcolor="#d1d1d1"
     inkscape:zoom="11.75"
     inkscape:cx="32"
     inkscape:cy="32.085106"
     inkscape:window-width="1920"
     inkscape:window-height="998"
     inkscape:window-x="0"
     inkscape:window-y="0"
     inkscape:window-maximized="1"
     inkscape:current-layer="svg6" />
  <ellipse
     style="opacity:0.404;stroke-width:0.9823"
     cx="31"
     cy="31.491228"
     id="circle1"
     rx="27.5"
     ry="27.508772" />
  <ellipse
     style="fill:url(#linearGradient7);stroke-width:0.9823"
     cx="31"
     cy="30.508772"
     id="circle2"
     rx="27.5"
     ry="27.508772" />
  <path
     style="opacity:0.1;fill:#ffffff;stroke-width:0.9823"
     d="M 31,3 A 27.5,27.508772 0 0 0 3.4999999,30.508772 27.5,27.508772 0 0 0 3.5172641,30.992325 27.5,27.508772 0 0 1 31,3.9824562 27.5,27.508772 0 0 1 58.475062,30.992325 27.5,27.508772 0 0 0 58.5,30.508772 27.5,27.508772 0 0 0 31,3 Z"
     id="path6" />
  <g
     fill-rule="nonzero"
     id="g3"
     transform="matrix(1.3273602,0,0,1.3274483,-0.81350559,-0.7213683)">
    <path
       d="m 23.999,9.672 c -7.852,0 -14.215,6.365 -14.215,14.216 0,7.852 6.366,14.215 14.215,14.215 7.853,0 14.216,-6.365 14.216,-14.215 0,-7.85 -6.365,-14.216 -14.216,-14.216 m -0.082,7.575 c 3.646,0 6.605,2.954 6.605,6.604 0,3.645 -2.955,6.604 -6.605,6.604 -3.646,0 -6.605,-2.959 -6.605,-6.604 0,-3.646 2.959,-6.604 6.605,-6.604"
       fill-opacity="0.38"
       id="path2-6"
       style="fill:#b9d543;fill-opacity:0.380392" />
    <path
       d="m 23.97,8.83 c -8.323,0 -15.07,6.745 -15.07,15.067 0,8.32 6.747,15.066 15.07,15.066 8.32,0 15.065,-6.746 15.065,-15.066 C 39.035,15.575 32.29,8.83 23.97,8.83 Z m 0.026,0.842 c 7.852,0 14.216,6.365 14.216,14.216 0,7.852 -6.365,14.216 -14.216,14.216 -7.852,0 -14.216,-6.366 -14.216,-14.216 0,-7.85 6.366,-14.216 14.216,-14.216 z M 24,14.249 c -5.301,0 -9.603,4.296 -9.603,9.599 0,5.301 4.301,9.598 9.603,9.598 5.301,0 9.595,-4.296 9.595,-9.598 0,-5.302 -4.293,-9.599 -9.595,-9.599 z m 0,1.051 c 4.741,0 8.585,3.847 8.585,8.592 0,4.74 -3.844,8.585 -8.585,8.585 -4.741,0 -8.591,-3.845 -8.591,-8.585 0,-4.741 3.846,-8.592 8.591,-8.592 z"
       fill-opacity="0.84"
       id="path3-7"
       style="fill:#ffd733;fill-opacity:1" />
  </g>
</svg>
