<?xml version="1.0" encoding="UTF-8" standalone="no"?>
<svg
   width="62"
   height="62"
   version="1"
   id="svg4"
   sodipodi:docname="org.kde.plasma.cryptocurrencyprice.svg"
   inkscape:version="1.4 (unknown)"
   xmlns:inkscape="http://www.inkscape.org/namespaces/inkscape"
   xmlns:sodipodi="http://sodipodi.sourceforge.net/DTD/sodipodi-0.dtd"
   xmlns="http://www.w3.org/2000/svg"
   xmlns:svg="http://www.w3.org/2000/svg">
  <defs
     id="defs4" />
  <sodipodi:namedview
     id="namedview4"
     pagecolor="#ffffff"
     bordercolor="#000000"
     borderopacity="0.25"
     inkscape:showpageshadow="2"
     inkscape:pageopacity="0.0"
     inkscape:pagecheckerboard="0"
     inkscape:deskcolor="#d1d1d1"
     inkscape:zoom="9.4280904"
     inkscape:cx="18.932784"
     inkscape:cy="38.024667"
     inkscape:window-width="1920"
     inkscape:window-height="998"
     inkscape:window-x="0"
     inkscape:window-y="0"
     inkscape:window-maximized="1"
     inkscape:current-layer="svg4" />
  <g
     id="g4"
     transform="matrix(1.3748778,0,0,1.3658537,-1.9970672,-2.4634157)">
    <rect
       style="fill:#c83771"
       width="40"
       height="40"
       x="4"
       y="4"
       rx="20"
       ry="20"
       id="rect1" />
    <path
       style="opacity:0.1;fill:#ffffff"
       d="M 24,4 C 12.92,4 4,12.92 4,24 4,24.168 3.996,24.333 4,24.5 4.2644,13.654 13.088,5 24,5 34.912,5 43.736,13.654 44,24.5 44.004,24.333 44,24.168 44,24 44,12.92 35.08,4 24,4 Z"
       id="path1" />
    <path
       style="opacity:0.2"
       d="M 4.0117,24.5 C 4.0076,24.667 4,24.832 4,25 4,36.08 12.92,45 24,45 35.08,45 44,36.08 44,25 44,24.832 43.992,24.667 43.988,24.5 43.724,35.346 34.912,44 24,44 13.088,44 4.276,35.346 4.012,24.5 Z"
       id="path2" />
    <path
       style="opacity:0.2"
       d="M 24,11 A 14,14 0 0 0 10,25 14,14 0 0 0 24,39 14,14 0 0 0 37.072266,30 H 32.650391 A 10,10 0 0 1 24,35 10,10 0 0 1 14,25 10,10 0 0 1 24,15 a 10,10 0 0 1 8.644531,5 h 4.414063 A 14,14 0 0 0 24,11 Z m 0,9 a 5,5 0 0 0 -5,5 5,5 0 0 0 5,5 5,5 0 0 0 4.580078,-3 H 34 l 6,-4 H 28.576172 A 5,5 0 0 0 24,20 Z"
       id="path3" />
    <path
       style="fill:#ffffff"
       d="M 24,10 A 14,14 0 0 0 10,24 14,14 0 0 0 24,38 14,14 0 0 0 37.072266,29 H 32.650391 A 10,10 0 0 1 24,34 10,10 0 0 1 14,24 10,10 0 0 1 24,14 a 10,10 0 0 1 8.644531,5 h 4.414063 A 14,14 0 0 0 24,10 Z m 0,9 a 5,5 0 0 0 -5,5 5,5 0 0 0 5,5 5,5 0 0 0 4.580078,-3 H 34 l 6,-4 H 28.576172 A 5,5 0 0 0 24,19 Z"
       id="path4" />
  </g>
</svg>
