<?xml version="1.0" encoding="UTF-8" standalone="no"?>
<svg
   clip-rule="evenodd"
   fill-rule="evenodd"
   stroke-linecap="round"
   stroke-linejoin="round"
   viewBox="0 0 62 62"
   version="1.1"
   id="svg5"
   sodipodi:docname="org.kde.plasma.grouping.svg"
   width="62"
   height="62"
   inkscape:version="1.4 (unknown)"
   xmlns:inkscape="http://www.inkscape.org/namespaces/inkscape"
   xmlns:sodipodi="http://sodipodi.sourceforge.net/DTD/sodipodi-0.dtd"
   xmlns="http://www.w3.org/2000/svg"
   xmlns:svg="http://www.w3.org/2000/svg">
  <defs
     id="defs5" />
  <sodipodi:namedview
     id="namedview5"
     pagecolor="#ffffff"
     bordercolor="#000000"
     borderopacity="0.25"
     inkscape:showpageshadow="2"
     inkscape:pageopacity="0.0"
     inkscape:pagecheckerboard="0"
     inkscape:deskcolor="#d1d1d1"
     inkscape:zoom="9.4280904"
     inkscape:cx="19.144916"
     inkscape:cy="33.888093"
     inkscape:window-width="1920"
     inkscape:window-height="998"
     inkscape:window-x="0"
     inkscape:window-y="0"
     inkscape:window-maximized="1"
     inkscape:current-layer="svg5" />
  <g
     id="g5"
     transform="matrix(1.2922282,0,0,1.2922282,-0.0134768,-0.0134768)">
    <path
       d="M 12.0826,12.0826 H 35.9174 V 35.9174 H 12.0826 Z"
       fill="none"
       stroke="#4f4f4f"
       stroke-width="4.3336"
       id="path1"
       style="stroke:#2d3d53;stroke-opacity:1" />
    <path
       d="M 27.067,2.332 H 39.44 c 3.438,0 6.228,2.79 6.228,6.228 v 12.373 c 0,0.497 -0.403,0.9 -0.9,0.9 H 27.067 c -0.497,0 -0.9,-0.403 -0.9,-0.9 V 3.232 c 0,-0.497 0.403,-0.9 0.9,-0.9 z"
       fill="#1d61f4"
       id="path2"
       style="fill:#2a7fff" />
    <path
       d="m 20.933,2.332 c 0.497,0 0.9,0.403 0.9,0.9 v 17.701 c 0,0.497 -0.403,0.9 -0.9,0.9 H 3.232 c -0.497,0 -0.9,-0.403 -0.9,-0.9 V 8.56 c 0,-3.438 2.79,-6.228 6.228,-6.228 z"
       fill="#e02441"
       id="path3"
       style="fill:#c83771" />
    <path
       d="m 27.067,45.668 c -0.497,0 -0.9,-0.403 -0.9,-0.9 V 27.067 c 0,-0.497 0.403,-0.9 0.9,-0.9 h 17.701 c 0.497,0 0.9,0.403 0.9,0.9 V 39.44 c 0,3.438 -2.79,6.228 -6.228,6.228 z"
       fill="#ffa332"
       id="path4"
       style="fill:#ffa466;fill-opacity:1" />
    <path
       d="m 2.332,27.067 c 0,-0.497 0.403,-0.9 0.9,-0.9 h 17.701 c 0.497,0 0.9,0.403 0.9,0.9 v 17.701 c 0,0.497 -0.403,0.9 -0.9,0.9 H 8.56 c -3.438,0 -6.228,-2.79 -6.228,-6.228 z"
       fill="#63990e"
       id="path5"
       style="fill:#009999;fill-opacity:1" />
  </g>
</svg>
