<?xml version="1.0" encoding="UTF-8" standalone="no"?>
<svg
   width="62"
   height="62"
   version="1"
   id="svg6"
   sodipodi:docname="org.freedesktop.IBus.Chewing.Setup.svg"
   inkscape:version="1.4 (unknown)"
   xmlns:inkscape="http://www.inkscape.org/namespaces/inkscape"
   xmlns:sodipodi="http://sodipodi.sourceforge.net/DTD/sodipodi-0.dtd"
   xmlns:xlink="http://www.w3.org/1999/xlink"
   xmlns="http://www.w3.org/2000/svg"
   xmlns:svg="http://www.w3.org/2000/svg">
  <defs
     id="defs6">
    <linearGradient
       id="paint0_linear_491_45"
       x1="38.5"
       y1="28"
       x2="28.5"
       y2="38.5"
       gradientUnits="userSpaceOnUse"
       gradientTransform="matrix(0.57153481,-0.70991174,0.57494529,0.70570066,-4.687398,80.134747)">
      <stop
         stop-color="#EFF2F6"
         id="stop5" />
      <stop
         offset="0.564369"
         stop-color="#B7C6CD"
         id="stop6" />
    </linearGradient>
    <linearGradient
       id="paint1_linear_491_45"
       x1="60"
       y1="60"
       x2="36"
       y2="36"
       gradientUnits="userSpaceOnUse"
       gradientTransform="matrix(0.69746718,-0.7099118,0.70162911,0.70570073,-14.747563,80.134747)">
      <stop
         offset="0.411133"
         stop-color="#2E2E41"
         id="stop7" />
      <stop
         offset="0.68099"
         stop-color="#566C80"
         id="stop8" />
    </linearGradient>
    <linearGradient
       id="paint2_linear_491_45"
       x1="60"
       y1="60"
       x2="26"
       y2="26"
       gradientUnits="userSpaceOnUse"
       gradientTransform="matrix(0.69746718,-0.7099118,0.70162911,0.70570073,-14.747563,80.134747)">
      <stop
         offset="0.411133"
         stop-color="#2E2E41"
         id="stop9" />
      <stop
         offset="0.68099"
         stop-color="#566C80"
         id="stop10" />
    </linearGradient>
    <linearGradient
       id="paint3_linear_491_45"
       x1="28"
       y1="28"
       x2="4"
       y2="4"
       gradientUnits="userSpaceOnUse"
       gradientTransform="matrix(0.69746718,-0.7099118,0.70162911,0.70570073,-11.051832,80.134747)">
      <stop
         offset="0.411133"
         stop-color="#2E2E41"
         id="stop11" />
      <stop
         offset="0.68099"
         stop-color="#566C80"
         id="stop12" />
    </linearGradient>
    <linearGradient
       id="paint4_linear_491_45"
       x1="38"
       y1="38"
       x2="4"
       y2="4"
       gradientUnits="userSpaceOnUse"
       gradientTransform="matrix(0.69746718,-0.7099118,0.70162911,0.70570073,-11.051832,80.134747)">
      <stop
         offset="0.411133"
         stop-color="#2E2E41"
         id="stop13" />
      <stop
         offset="0.68099"
         stop-color="#566C80"
         id="stop14" />
    </linearGradient>
    <linearGradient
       inkscape:collect="always"
       xlink:href="#linearGradient8"
       id="linearGradient10"
       x1="31.5"
       y1="59.017544"
       x2="31.5"
       y2="4.9824562"
       gradientUnits="userSpaceOnUse"
       gradientTransform="translate(-0.50000042,3.6628445)" />
    <linearGradient
       id="linearGradient8"
       inkscape:collect="always">
      <stop
         style="stop-color:#2d3d53;stop-opacity:1;"
         offset="0"
         id="stop8-5" />
      <stop
         style="stop-color:#354864;stop-opacity:1;"
         offset="1"
         id="stop10-3" />
    </linearGradient>
  </defs>
  <sodipodi:namedview
     id="namedview6"
     pagecolor="#ffffff"
     bordercolor="#000000"
     borderopacity="0.25"
     inkscape:showpageshadow="2"
     inkscape:pageopacity="0.0"
     inkscape:pagecheckerboard="0"
     inkscape:deskcolor="#d1d1d1"
     inkscape:zoom="8.3306018"
     inkscape:cx="35.531647"
     inkscape:cy="26.348637"
     inkscape:window-width="1920"
     inkscape:window-height="998"
     inkscape:window-x="0"
     inkscape:window-y="0"
     inkscape:window-maximized="1"
     inkscape:current-layer="svg6"
     showgrid="false">
    <inkscape:grid
       id="grid1"
       units="px"
       originx="0"
       originy="0"
       spacingx="1"
       spacingy="1"
       empcolor="#0099e5"
       empopacity="0.30196078"
       color="#0099e5"
       opacity="0.14901961"
       empspacing="5"
       enabled="true"
       visible="false" />
  </sodipodi:namedview>
  <g
     id="g1"
     transform="translate(2e-7,-4.6628444)">
    <rect
       style="opacity:0.2;stroke-width:0.9823"
       width="55"
       height="55.017544"
       x="3.5"
       y="8.6453028"
       rx="8.25"
       ry="8.2526312"
       id="rect1" />
    <rect
       style="fill:url(#linearGradient10);stroke-width:0.9823"
       width="55"
       height="55.017544"
       x="3.5"
       y="7.6628423"
       rx="8.25"
       ry="8.2526312"
       id="rect2" />
    <path
       style="fill:#5a79a5;fill-opacity:0.5;stroke-width:0.9823"
       d="m 11.748466,7.6628445 c -4.5705014,0 -8.2484664,3.6791385 -8.2484664,8.2510975 v 0.982453 c 0,-4.571955 3.677965,-8.2510945 8.2484664,-8.2510945 h 38.503068 c 4.5705,0 8.248466,3.6791395 8.248466,8.2510945 v -0.982453 c 0,-4.571959 -3.677966,-8.2510975 -8.248466,-8.2510975 z"
       id="path4-5" />
  </g>
  <g
     id="g2"
     transform="translate(-4.990485e-4,3.1378679)">
    <rect
       width="46.001999"
       height="5.9980001"
       x="7.9994998"
       y="44.046864"
       fill-rule="evenodd"
       opacity="0.15"
       rx="3.0009999"
       ry="3.0009999"
       style="paint-order:fill markers stroke;fill:#8ca2c1;fill-opacity:1;opacity:0.19"
       id="rect2-6" />
    <path
       d="m 21.8545,30.048861 q -2.092,0 -2.092,-2.092 v -13.571 q 0,-2.065 2.038,-2.065 h 0.966 v -2.44 h -2.897 q -1.1,0 -1.1,-0.94 0,-0.938 1.1,-0.938 h 10.111 q 1.1,0 1.1,0.939 0,0.938 -1.1,0.938 h -2.87 v 2.44 h 1.047 q 2.092,0 2.092,2.066 v 13.571 q 0,1.02 -0.537,1.556 -0.536,0.536 -1.555,0.536 z m -0.268,-2.628 q 0,0.75 0.697,0.75 h 5.39 q 0.35,0 0.537,-0.187 0.215,-0.215 0.215,-0.563 v -2.334 h -6.84 z m 6.839,-4.184 v -2.226 q -2.119,0 -2.468,-0.188 -0.429,-0.268 -0.429,-1.127 v -5.497 h -1.207 v 2.012 q 0,1.61 -0.214,2.601 -0.215,0.993 -0.724,1.476 -0.644,0.911 -1.797,1.421 v 1.529 z m -6.84,-3.219 q 0.832,-0.777 1.047,-1.85 0.215,-1.073 0.214,-3.111 v -0.859 h -0.617 q -0.643,0 -0.643,0.644 z m 3.916,-7.697 v -2.44 h -1.126 v 2.44 z m 1.53,6.41 q 0,0.241 0.133,0.402 0.134,0.161 0.376,0.161 h 0.885 v -4.452 q 0,-0.644 -0.697,-0.644 h -0.698 z m 3.7,-0.67 q 0,-0.94 1.154,-0.94 h 4.237 v -4.237 h -2.628 q -0.939,2.709 -1.717,2.709 -0.482,0 -0.697,-0.215 -0.214,-0.241 -0.214,-0.724 0,-0.16 0.214,-0.67 0.215,-0.537 0.295,-0.724 0.697,-1.77 1.153,-3.863 0.295,-1.26 1.046,-1.26 0.456,0 0.67,0.215 0.242,0.214 0.242,0.697 0,0.456 -0.456,1.985 h 2.092 v -3.165 q 0,-0.617 0.242,-0.912 0.241,-0.295 0.75,-0.295 0.966,0 0.966,1.207 v 3.165 h 3.245 q 1.127,0 1.127,0.911 0,0.94 -1.127,0.94 h -3.245 v 4.237 h 3.996 q 1.154,0 1.154,0.938 0,0.912 -1.154,0.912 h -10.192 q -1.153,0 -1.153,-0.912 z m 1.368,5.015 q 0,-1.207 0.537,-1.743 0.536,-0.537 1.69,-0.456 h 5.578 q 1.26,0 1.824,0.536 0.563,0.536 0.482,1.743 v 4.747 q 0,1.234 -0.563,1.797 -0.536,0.564 -1.743,0.483 h -5.579 q -1.207,0 -1.743,-0.536 -0.536,-0.51 -0.483,-1.663 z m 1.958,4.345 q 0,0.858 0.885,0.858 h 4.238 q 0.51,0 0.778,-0.215 0.268,-0.241 0.268,-0.67 v -3.701 q 0,-0.43 -0.268,-0.67 -0.269,-0.242 -0.778,-0.242 h -4.238 q -0.885,0 -0.885,0.885 z"
       id="path2"
       style="fill:#f2f2f2;fill-opacity:1" />
    <path
       d="m 21.9805,40.952861 q -0.526,0 -0.526,-0.438 0,-0.21 0.132,-0.307 0.131,-0.096 0.447,-0.105 0.613,-0.017 0.893,-0.158 0.29,-0.14 0.412,-0.429 0.29,-0.806 0.517,-3.023 0.008,-0.131 -0.061,-0.201 -0.062,-0.079 -0.193,-0.079 h -3.978 q -0.298,0 -0.464,-0.131 -0.167,-0.14 -0.167,-0.395 0,-0.14 0.053,-0.306 0.122,-0.386 0.201,-0.596 0.158,-0.473 0.254,-0.797 0.132,-0.456 0.43,-0.456 0.035,0 0.122,0.018 0.307,0.078 0.307,0.376 0,0.106 -0.044,0.263 -0.175,0.578 -0.35,0.99 -0.027,0.062 -0.027,0.123 0,0.184 0.228,0.184 h 3.916 q 0.35,0 0.526,0.193 0.175,0.192 0.158,0.543 -0.088,1.27 -0.272,2.234 -0.184,0.955 -0.42,1.542 -0.386,0.955 -2.094,0.955 m 6.09,-0.035 q -0.132,0.044 -0.237,0.044 -0.28,0 -0.386,-0.263 -0.017,-0.07 -0.017,-0.105 0,-0.132 0.087,-0.237 0.097,-0.114 0.254,-0.166 0.868,-0.298 1.498,-0.649 0.631,-0.35 1.218,-0.867 l -0.534,-0.43 q -0.508,-0.394 -0.885,-0.709 -0.22,-0.193 -0.22,-0.368 0,-0.131 0.088,-0.228 0.08,-0.105 0.237,-0.105 0.193,0 0.394,0.15 0.473,0.332 0.798,0.586 0.324,0.245 0.718,0.56 0.771,-0.805 1.21,-1.734 0.034,-0.07 0.034,-0.131 0,-0.08 -0.061,-0.123 -0.062,-0.053 -0.176,-0.053 h -3.215 q -0.298,0 -0.473,-0.14 -0.166,-0.14 -0.166,-0.377 0,-0.14 0.052,-0.28 l 0.456,-1.393 q 0.131,-0.43 0.438,-0.43 0.193,0 0.298,0.106 0.105,0.105 0.105,0.28 0,0.088 -0.027,0.193 -0.14,0.517 -0.333,1.008 -0.026,0.06 -0.026,0.113 0,0.088 0.061,0.14 0.062,0.053 0.176,0.053 h 3.303 q 0.298,0 0.464,0.14 0.167,0.132 0.167,0.36 0,0.149 -0.062,0.306 -0.56,1.393 -1.594,2.48 0.324,0.254 0.832,0.71 0.508,0.456 0.745,0.735 0.184,0.21 0.184,0.386 0,0.14 -0.15,0.271 -0.148,0.123 -0.297,0.123 -0.21,0 -0.394,-0.21 -0.404,-0.447 -0.71,-0.719 -0.298,-0.28 -0.832,-0.71 -1.245,1.07 -3.023,1.683 z m 8.883,-0.114 q -0.193,0 -0.298,-0.131 -0.105,-0.123 -0.105,-0.36 v -5.563 q 0,-0.342 0.176,-0.517 0.184,-0.184 0.525,-0.184 h 5.056 q 0.341,0 0.516,0.184 0.184,0.175 0.184,0.517 v 5.563 q 0,0.237 -0.114,0.36 -0.105,0.131 -0.306,0.131 -0.21,0 -0.324,-0.131 -0.105,-0.123 -0.105,-0.36 v -5.239 q 0,-0.123 -0.07,-0.193 -0.07,-0.07 -0.193,-0.07 h -4.276 q -0.122,0 -0.193,0.07 -0.07,0.07 -0.07,0.193 v 5.24 q 0,0.236 -0.105,0.359 -0.105,0.131 -0.297,0.131 z"
       opacity="0.5"
       id="path3"
       style="fill:#f2f2f2;fill-opacity:1" />
  </g>
</svg>
