<?xml version="1.0" encoding="UTF-8" standalone="no"?>
<svg
   width="62"
   height="62"
   version="1.1"
   id="svg11"
   sodipodi:docname="kstars.svg"
   inkscape:version="1.4 (e7c3feb100, 2024-10-09)"
   xmlns:inkscape="http://www.inkscape.org/namespaces/inkscape"
   xmlns:sodipodi="http://sodipodi.sourceforge.net/DTD/sodipodi-0.dtd"
   xmlns="http://www.w3.org/2000/svg"
   xmlns:svg="http://www.w3.org/2000/svg">
  <defs
     id="defs11">
    <linearGradient
       id="_lgradient_10"
       x1="0"
       y1="0.5"
       x2="1"
       y2="0.5"
       gradientTransform="matrix(-11.014666,0,0,11.014666,14.886132,27.5549)"
       gradientUnits="userSpaceOnUse">
      <stop
         offset="0%"
         stop-opacity="1"
         style="stop-color:rgb(247,242,6)"
         id="stop6" />
      <stop
         offset="98.26086956521739%"
         stop-opacity="1"
         style="stop-color:rgb(255,187,36)"
         id="stop7" />
    </linearGradient>
    <linearGradient
       id="_lgradient_10-0"
       x1="0"
       y1="0.5"
       x2="1"
       y2="0.5"
       gradientTransform="matrix(-11.014666,0,0,11.014666,35.377673,0.86089696)"
       gradientUnits="userSpaceOnUse">
      <stop
         offset="0%"
         stop-opacity="1"
         style="stop-color:rgb(247,242,6)"
         id="stop6-6" />
      <stop
         offset="98.26086956521739%"
         stop-opacity="1"
         style="stop-color:rgb(255,187,36)"
         id="stop7-2" />
    </linearGradient>
  </defs>
  <sodipodi:namedview
     id="namedview11"
     pagecolor="#ffffff"
     bordercolor="#000000"
     borderopacity="0.25"
     inkscape:showpageshadow="2"
     inkscape:pageopacity="0.0"
     inkscape:pagecheckerboard="0"
     inkscape:deskcolor="#d1d1d1"
     inkscape:zoom="8.2643105"
     inkscape:cx="29.585045"
     inkscape:cy="38.478709"
     inkscape:window-width="1920"
     inkscape:window-height="994"
     inkscape:window-x="0"
     inkscape:window-y="0"
     inkscape:window-maximized="1"
     inkscape:current-layer="svg11" />
  <g
     id="g11"
     transform="matrix(0.98268562,0,0,0.98243066,-0.44805674,-0.92846258)">
    <path
       style="opacity:0.2;fill:none;stroke:#000000;stroke-width:6;stroke-linecap:round;stroke-linejoin:round"
       d="m 26.000001,47 -12,11"
       id="path1" />
    <path
       style="opacity:0.2;fill:none;stroke:#000000;stroke-width:6;stroke-linecap:round;stroke-linejoin:round"
       d="M 26.000001,58 V 28.799998"
       id="path2" />
    <path
       style="fill:none;stroke:#9c9c9c;stroke-width:6;stroke-linecap:round;stroke-linejoin:round"
       d="m 26.000001,46 -12,11"
       id="path3" />
    <rect
       style="opacity:0.2"
       width="16.233"
       height="8.8240004"
       x="56.139999"
       y="1.3"
       rx="1.794"
       ry="1.8150001"
       transform="matrix(0.86072116,0.5090767,-0.49097793,0.87117201,0,0)"
       id="rect3" />
    <path
       style="fill:none;stroke:#757575;stroke-width:6;stroke-linecap:round;stroke-linejoin:round"
       d="M 26.000001,57 V 27.799998"
       id="path4" />
    <rect
       style="fill:#607582"
       width="16.233"
       height="8.8240004"
       x="55.650002"
       y="0.44"
       rx="1.794"
       ry="1.8150001"
       transform="matrix(0.86072116,0.5090767,-0.49097793,0.87117201,0,0)"
       id="rect4" />
    <rect
       style="opacity:0.2"
       width="22.746"
       height="12.364"
       x="36.830002"
       y="-0.47"
       rx="2.513"
       ry="2.5439999"
       transform="matrix(0.86072116,0.5090767,-0.49097793,0.87117201,0,0)"
       id="rect5" />
    <path
       style="opacity:0.1;fill:#ffffff"
       d="m 48.550781,29.394531 c -0.68942,-0.0885 -1.391375,0.245222 -1.761719,0.902344 l -2.550781,4.523437 c -0.249581,0.442848 -0.281275,0.940367 -0.152343,1.392579 0.03783,-0.133051 0.08114,-0.266237 0.152343,-0.392579 l 2.550781,-4.523437 c 0.370344,-0.657122 1.072299,-0.990844 1.761719,-0.902344 0.229806,0.0295 0.458057,0.107915 0.671875,0.234375 l 10.882813,6.4375 c 0.416291,0.246216 0.696848,0.637383 0.820312,1.074219 0.216297,-0.785557 -0.09755,-1.646737 -0.820312,-2.074219 l -10.882813,-6.4375 c -0.213818,-0.12646 -0.442069,-0.204879 -0.671875,-0.234375 z"
       id="path5" />
    <rect
       style="fill:#4b626d"
       width="22.746"
       height="12.364"
       x="36.34"
       y="-1.33"
       rx="2.513"
       ry="2.5439999"
       transform="matrix(0.86072116,0.5090767,-0.49097793,0.87117201,0,0)"
       id="rect6" />
    <circle
       style="opacity:0.2"
       cx="10"
       cy="12.6"
       r="7"
       id="circle6" />
    <circle
       style="fill:#00baff"
       cx="10"
       cy="11.6"
       r="7"
       id="circle7" />
    <path
       style="opacity:0.2;fill:#ffffff"
       d="M 10,4.6015625 A 7,7 0 0 0 3,11.601562 7,7 0 0 0 3.0195312,12.095703 7,7 0 0 1 10,5.6015625 7,7 0 0 1 16.980469,12.089844 7,7 0 0 0 17,11.601562 7,7 0 0 0 10,4.6015625 Z"
       id="path7" />
    <rect
       style="opacity:0.2"
       width="30.264999"
       height="16.451"
       x="11.67"
       y="-2.51"
       rx="3.3440001"
       ry="3.385"
       transform="matrix(0.86072116,0.5090767,-0.49097793,0.87117201,0,0)"
       id="rect7" />
    <path
       style="opacity:0.1;fill:#ffffff"
       d="m 32.791016,18.28125 c -0.842549,0.01852 -1.653373,0.475603 -2.107422,1.28125 l -3.574219,6.339844 c -0.311822,0.553282 -0.373545,1.161681 -0.255859,1.736328 0.04791,-0.250541 0.122263,-0.499282 0.255859,-0.736328 L 30.683594,20.5625 c 0.518914,-0.92074 1.502756,-1.385709 2.46875,-1.261719 0.321998,0.04133 0.641812,0.147023 0.941406,0.324219 l 15.253906,9.019531 c 0.646571,0.382417 1.049832,1.01383 1.183594,1.705078 0.204483,-1.043723 -0.23122,-2.141792 -1.183594,-2.705078 L 34.09375,18.625 c -0.299594,-0.177196 -0.619408,-0.282889 -0.941406,-0.324219 -0.12075,-0.0155 -0.240964,-0.02218 -0.361328,-0.01953 z"
       id="path8" />
    <rect
       style="fill:#37474f"
       width="30.264999"
       height="16.451"
       x="11.18"
       y="-3.3699999"
       rx="3.3440001"
       ry="3.385"
       transform="matrix(0.86072116,0.5090767,-0.49097793,0.87117201,0,0)"
       id="rect8" />
    <path
       style="opacity:0.2;fill:none;stroke:#000000;stroke-width:6;stroke-linecap:round;stroke-linejoin:round"
       d="m 26.000001,47 12,11"
       id="path9" />
    <path
       style="fill:none;stroke:#9c9c9c;stroke-width:6;stroke-linecap:round;stroke-linejoin:round"
       d="m 26.000001,46 12,11"
       id="path10" />
    <path
       style="opacity:0.1;fill:#ffffff"
       d="M 12.261719,4.0078125 C 11.198312,4.0839657 10.192562,4.6861089 9.6171875,5.7070312 L 4.8632812,14.140625 C 4.4727366,14.833592 4.3619793,15.59974 4.46875,16.330078 4.5279952,15.92367 4.6493234,15.520263 4.8632812,15.140625 L 9.6171875,6.7070312 C 10.192562,5.6861089 11.198312,5.0839657 12.261719,5.0078125 c 0.638045,-0.045692 1.296584,0.099467 1.894531,0.453125 L 34.449219,17.460938 c 0.921739,0.545165 1.480434,1.469714 1.61914,2.466796 0.205891,-1.348396 -0.392559,-2.741332 -1.61914,-3.466796 L 14.15625,4.4609375 C 13.558303,4.1072795 12.899764,3.9621207 12.261719,4.0078125 Z"
       id="path11" />
  </g>
  <g
     transform="translate(19,66)"
     id="g2">
    <path
       d="m 30.004277,-64.997807 -0.765625,2.152344 -2.0625,-0.980469 0.980469,2.0625 -2.152344,0.765625 2.152344,0.765625 -0.980469,2.0625 2.0625,-0.980469 0.765625,2.152344 0.765625,-2.152344 2.0625,0.980469 -0.980469,-2.0625 2.152344,-0.765625 -2.152344,-0.765625 0.980469,-2.0625 -2.0625,0.980469 z m -7.300782,6 -0.490234,2.625 -1.96875,-1.804688 0.886719,2.517579 -2.607422,-0.578125 2.027344,1.738281 -2.546875,0.802734 2.625,0.492188 -1.804688,1.966797 2.517578,-0.886719 -0.578125,2.607422 1.738281,-2.027344 0.802735,2.546875 0.492187,-2.623047 1.966798,1.802735 -0.88672,-2.517579 2.607423,0.578125 -2.027344,-1.738281 2.546875,-0.802734 -2.623047,-0.490235 1.802735,-1.96875 -2.517579,0.886719 0.578125,-2.607422 -1.738281,2.027344 z"
       id="path1-3"
       style="fill:#ffcc00;fill-opacity:1" />
  </g>
  <path
     d="m 9.3794655,27.5549 -1.947999,3.56 -3.56,1.948 3.56,1.946666 1.947999,3.56 1.9466665,-3.56 3.56,-1.946666 -3.56,-1.948 z"
     id="path7-6"
     style="fill:#ffcc00;fill-opacity:1" />
  <path
     d="m 29.871006,0.86089696 -1.947999,3.56000004 -3.56,1.948 3.56,1.946666 1.947999,3.56 1.946667,-3.56 3.56,-1.946666 -3.56,-1.948 z"
     id="path7-61"
     style="fill:#ffcc00;fill-opacity:1" />
</svg>
