<?xml version="1.0" encoding="UTF-8" standalone="no"?>
<!-- Generator: Adobe Illustrator 12.0.0, SVG Export Plug-In . SVG Version: 6.00 Build 51448)  -->

<svg
   version="1.0"
   id="Livello_1"
   width="62"
   height="62"
   viewBox="0 0 62 62"
   overflow="visible"
   enable-background="new 0 0 126 111.715"
   xml:space="preserve"
   sodipodi:version="0.32"
   inkscape:version="1.4 (e7c3feb100, 2024-10-09)"
   sodipodi:docname="kmplot.svg"
   xmlns:inkscape="http://www.inkscape.org/namespaces/inkscape"
   xmlns:sodipodi="http://sodipodi.sourceforge.net/DTD/sodipodi-0.dtd"
   xmlns:xlink="http://www.w3.org/1999/xlink"
   xmlns="http://www.w3.org/2000/svg"
   xmlns:svg="http://www.w3.org/2000/svg"
   xmlns:rdf="http://www.w3.org/1999/02/22-rdf-syntax-ns#"
   xmlns:cc="http://creativecommons.org/ns#"
   xmlns:dc="http://purl.org/dc/elements/1.1/"><metadata
   id="metadata244"><rdf:RDF><cc:Work
       rdf:about=""><dc:format>image/svg+xml</dc:format><dc:type
         rdf:resource="http://purl.org/dc/dcmitype/StillImage" /></cc:Work></rdf:RDF></metadata><defs
   id="defs242"><linearGradient
     inkscape:collect="always"
     id="linearGradient3270"><stop
       style="stop-color:#6193cf;stop-opacity:1;"
       offset="0"
       id="stop3272" /><stop
       style="stop-color:#6193cf;stop-opacity:0;"
       offset="1"
       id="stop3274" /></linearGradient><linearGradient
     inkscape:collect="always"
     id="linearGradient3198"><stop
       style="stop-color:black;stop-opacity:1;"
       offset="0"
       id="stop3200" /><stop
       style="stop-color:black;stop-opacity:0;"
       offset="1"
       id="stop3202" /></linearGradient><linearGradient
     id="linearGradient2866"><stop
       id="stop2868"
       offset="0"
       style="stop-color:#efefef;stop-opacity:1;" /><stop
       style="stop-color:#f8f8f8;stop-opacity:1;"
       offset="0.5"
       id="stop2874" /><stop
       id="stop2870"
       offset="1"
       style="stop-color:#e0e0e0;stop-opacity:1;" /></linearGradient><linearGradient
     id="linearGradient3670"><stop
       style="stop-color:#e8e8e8;stop-opacity:1;"
       offset="0"
       id="stop3672" /><stop
       style="stop-color:#969696;stop-opacity:0;"
       offset="1"
       id="stop3674" /></linearGradient><linearGradient
     id="linearGradient3650"><stop
       style="stop-color:#545454;stop-opacity:1;"
       offset="0"
       id="stop3652" /><stop
       style="stop-color:#b1b1b1;stop-opacity:1;"
       offset="1"
       id="stop3654" /></linearGradient><linearGradient
     id="linearGradient3396"><stop
       id="stop3398"
       offset="0"
       style="stop-color:#040404;stop-opacity:0;" /><stop
       style="stop-color:#040404;stop-opacity:0;"
       offset="0.64971751"
       id="stop3402" /><stop
       id="stop3400"
       offset="1"
       style="stop-color:#040404;stop-opacity:1;" /></linearGradient><linearGradient
     id="linearGradient3251"><stop
       style="stop-color:white;stop-opacity:1;"
       offset="0"
       id="stop3253" /><stop
       style="stop-color:#efefef;stop-opacity:1;"
       offset="1"
       id="stop3255" /></linearGradient><linearGradient
     id="linearGradient3243"><stop
       style="stop-color:yellow;stop-opacity:1;"
       offset="0"
       id="stop3245" /><stop
       style="stop-color:#ffbf00;stop-opacity:1;"
       offset="1"
       id="stop3247" /></linearGradient><linearGradient
     id="linearGradient2995"><stop
       style="stop-color:#4b4b4b;stop-opacity:1;"
       offset="0"
       id="stop2997" /><stop
       style="stop-color:#676767;stop-opacity:1;"
       offset="1"
       id="stop2999" /></linearGradient><linearGradient
     inkscape:collect="always"
     id="linearGradient2979"><stop
       style="stop-color:white;stop-opacity:1;"
       offset="0"
       id="stop2981" /><stop
       style="stop-color:white;stop-opacity:0;"
       offset="1"
       id="stop2983" /></linearGradient><linearGradient
     id="a-3"
     x1="428.81601"
     x2="388.86499"
     y1="547.63397"
     y2="499.67899"
     gradientTransform="matrix(1.0511003,0,0,1.0500003,-464.10202,-472.99017)"
     gradientUnits="userSpaceOnUse"><stop
       stop-color="#bdc3c7"
       offset="0"
       id="stop2193" /><stop
       stop-color="#eff0f1"
       offset="1"
       id="stop2195" /></linearGradient><linearGradient
     id="f"
     y1="42"
     x1="41"
     y2="10"
     x2="5"
     gradientUnits="userSpaceOnUse"
     gradientTransform="translate(38,-40.04)"><stop
       stop-color="#2e5d89"
       id="stop23" /><stop
       offset="1"
       stop-color="#1b92f4"
       id="stop25" /></linearGradient><linearGradient
     id="g"
     y1="42"
     x1="41"
     y2="10"
     x2="5"
     gradientUnits="userSpaceOnUse"
     gradientTransform="translate(-106.4344,-56.0605)"><stop
       stop-color="#06a370"
       id="stop28" /><stop
       offset="1"
       stop-color="#22d1b0"
       id="stop30" /></linearGradient><linearGradient
     gradientTransform="matrix(1.0499636,0,0,1.0499041,-378.11686,-539.3667)"
     gradientUnits="userSpaceOnUse"
     x2="426.69501"
     y2="499.92099"
     y1="547.67499"
     id="a-6"
     x1="389.32001"><stop
       stop-color="#18222a"
       style="stop-color:#1e2b35;stop-opacity:1"
       id="stop216" /><stop
       stop-color="#566069"
       offset="1"
       style="stop-color:#6d7983;stop-opacity:1"
       id="stop218" /></linearGradient><linearGradient
     id="linearGradient2086"><stop
       style="stop-color:#3f627d;stop-opacity:1;"
       offset="0"
       id="stop2088" /><stop
       style="stop-color:#000000;stop-opacity:1;"
       offset="1"
       id="stop2087" /></linearGradient><radialGradient
     cx="261.67892"
     cy="652.95093"
     r="470.01199"
     fx="261.67892"
     fy="652.95093"
     id="radialGradient715-6-2"
     xlink:href="#linearGradient649"
     gradientTransform="scale(1.0251779,0.97544048)"
     gradientUnits="userSpaceOnUse" /><linearGradient
     id="linearGradient649"><stop
       style="stop-color:#ff97ff;stop-opacity:1;"
       offset="0"
       id="stop650" /><stop
       style="stop-color:#ff0000;stop-opacity:1;"
       offset="1"
       id="stop651" /></linearGradient><linearGradient
     id="linearGradient637"><stop
       style="stop-color:#ffffff;stop-opacity:0.6353;"
       offset="0"
       id="stop638" /><stop
       style="stop-color:#ffffff;stop-opacity:0.2392;"
       offset="1"
       id="stop639" /></linearGradient><linearGradient
     id="linearGradient2099"><stop
       style="stop-color:#ffff00;stop-opacity:0.6353;"
       offset="0"
       id="stop2133-7-6" /><stop
       style="stop-color:#ffc200;stop-opacity:0;"
       offset="1"
       id="stop2134-5-1" /></linearGradient><linearGradient
     id="linearGradient2103"><stop
       style="stop-color:#ffffff;stop-opacity:1;"
       offset="0"
       id="stop2139-2-9" /><stop
       style="stop-color:#1d9dff;stop-opacity:1;"
       offset="1"
       id="stop2140-8-2" /></linearGradient><linearGradient
     id="linearGradient2107"><stop
       style="stop-color:#5ed7ff;stop-opacity:0.7294;"
       offset="0"
       id="stop2145-3-3" /><stop
       style="stop-color:#005f8d;stop-opacity:0.7098;"
       offset="1"
       id="stop2146-6-7" /></linearGradient><linearGradient
     x1="0"
     y1="0"
     x2="1"
     y2="0"
     id="linearGradient2109"
     xlink:href="#linearGradient2086"
     gradientUnits="objectBoundingBox"
     spreadMethod="pad" /><radialGradient
     cx="0.49999943"
     cy="0.97656167"
     r="0.70301467"
     fx="0.49999943"
     fy="0.97656167"
     id="radialGradient2143"
     xlink:href="#linearGradient607" /><radialGradient
     cx="0.49999928"
     cy="0.55468845"
     r="0.48581648"
     fx="0.49999928"
     fy="0.55468845"
     id="radialGradient2145"
     xlink:href="#linearGradient649" /><radialGradient
     cx="0.99137914"
     cy="0.50781262"
     r="1.8118888"
     fx="0.99137914"
     fy="0.50781262"
     id="radialGradient2147"
     xlink:href="#linearGradient717" /><linearGradient
     x1="0.48333815"
     y1="-2.9551026e-07"
     x2="0.48333344"
     y2="0.875"
     id="linearGradient2111"
     xlink:href="#linearGradient637" /><radialGradient
     cx="1.1206894"
     cy="0.51562464"
     r="1.592037"
     fx="1.1206894"
     fy="0.51562464"
     id="radialGradient2150"
     xlink:href="#linearGradient717" /><radialGradient
     cx="0.49999917"
     cy="0.55468839"
     r="0.48581648"
     fx="0.49999917"
     fy="0.55468839"
     id="radialGradient2152"
     xlink:href="#linearGradient638" /><radialGradient
     cx="0.50704247"
     cy="0.92968756"
     r="0.7386201"
     fx="0.50704247"
     fy="0.92968756"
     id="radialGradient2154"
     xlink:href="#linearGradient717" /><linearGradient
     x1="0.46323583"
     y1="0.039062586"
     x2="0.45588252"
     y2="0.76562494"
     id="linearGradient2113"
     xlink:href="#linearGradient641" /><radialGradient
     cx="0.49999943"
     cy="0.97656167"
     r="0.70301467"
     fx="0.49999943"
     fy="0.97656167"
     id="radialGradient2186"
     xlink:href="#linearGradient607"
     style="fill:url(#radialGradient610-6)" /><radialGradient
     cx="0.49999928"
     cy="0.55468845"
     r="0.48581648"
     fx="0.49999928"
     fy="0.55468845"
     id="radialGradient2188"
     xlink:href="#linearGradient649"
     style="fill:url(#radialGradient610-6)" /><radialGradient
     cx="0.99137914"
     cy="0.50781262"
     r="1.8118888"
     fx="0.99137914"
     fy="0.50781262"
     id="radialGradient2190"
     xlink:href="#linearGradient717"
     style="fill:url(#radialGradient610-6)" /><radialGradient
     cx="1.1206894"
     cy="0.51562464"
     r="1.592037"
     fx="1.1206894"
     fy="0.51562464"
     id="radialGradient2194"
     xlink:href="#linearGradient717"
     style="fill:url(#radialGradient610-6)" /><radialGradient
     cx="0.49999917"
     cy="0.55468839"
     r="0.48581648"
     fx="0.49999917"
     fy="0.55468839"
     id="radialGradient2196"
     xlink:href="#linearGradient638"
     style="fill:url(#radialGradient610-6)" /><radialGradient
     cx="0.50704247"
     cy="0.92968756"
     r="0.7386201"
     fx="0.50704247"
     fy="0.92968756"
     id="radialGradient2198"
     xlink:href="#linearGradient717"
     style="fill:url(#radialGradient610-6)" /><radialGradient
     inkscape:collect="always"
     xlink:href="#linearGradient3198"
     id="radialGradient3142-3-9"
     cx="56.617783"
     cy="53.387711"
     fx="56.617783"
     fy="53.387711"
     r="6.0582042"
     gradientTransform="matrix(0.29127063,-0.00138059,-0.10664304,2.0070841,125.93981,-78.773426)"
     gradientUnits="userSpaceOnUse" /><radialGradient
     inkscape:collect="always"
     xlink:href="#linearGradient3198"
     id="radialGradient3186-8-1"
     cx="56.530136"
     cy="53.387711"
     fx="55.982952"
     fy="56.927387"
     r="6.7226977"
     gradientTransform="matrix(0.29039138,-0.04495755,0.2251433,2.3863595,108.27622,-96.558615)"
     gradientUnits="userSpaceOnUse" /><radialGradient
     inkscape:collect="always"
     xlink:href="#linearGradient3198"
     id="radialGradient3130-5-2"
     cx="64.505707"
     cy="63.379086"
     fx="64.505707"
     fy="63.379086"
     r="45.848412"
     gradientTransform="matrix(0.34099426,-0.00161627,-0.0016185,0.0304612,115.34482,31.141806)"
     gradientUnits="userSpaceOnUse" /><radialGradient
     inkscape:collect="always"
     xlink:href="#linearGradient3198"
     id="radialGradient3196-8-7"
     cx="64.680992"
     cy="63.379086"
     fx="58.185638"
     fy="64.542931"
     r="46.600548"
     gradientTransform="matrix(0.44556365,-0.03894727,8.7620254e-4,0.03152883,108.42306,33.488742)"
     gradientUnits="userSpaceOnUse" /><linearGradient
     inkscape:collect="always"
     xlink:href="#a-3"
     id="linearGradient2336"
     gradientUnits="userSpaceOnUse"
     gradientTransform="matrix(1.0511003,0,0,1.0500003,-291.62881,-517.51871)"
     x1="428.81601"
     y1="547.63397"
     x2="388.86499"
     y2="499.67899" /><linearGradient
     inkscape:collect="always"
     xlink:href="#linearGradient3270"
     id="linearGradient2338"
     gradientUnits="userSpaceOnUse"
     gradientTransform="matrix(0.27286201,0.0483004,-0.048351,0.27257646,123.83504,13.374916)"
     x1="27.054956"
     y1="63.925987"
     x2="131.27696"
     y2="13.462614" /><linearGradient
     inkscape:collect="always"
     xlink:href="#linearGradient3198"
     id="linearGradient2340"
     gradientUnits="userSpaceOnUse"
     gradientTransform="matrix(0.29127063,-0.00138059,-0.01568004,0.29510571,121.0835,12.625207)"
     x1="26.194651"
     y1="55.315872"
     x2="35.331177"
     y2="55.315872" /><linearGradient
     inkscape:collect="always"
     xlink:href="#linearGradient3198"
     id="linearGradient2342"
     gradientUnits="userSpaceOnUse"
     gradientTransform="matrix(0.29127063,-0.00138059,-0.01568004,0.29510571,121.0835,12.625207)"
     x1="38.464756"
     y1="54.439438"
     x2="49.003582"
     y2="54.439438" /><linearGradient
     inkscape:collect="always"
     xlink:href="#linearGradient2979"
     id="linearGradient2344"
     gradientUnits="userSpaceOnUse"
     gradientTransform="matrix(0.29127063,-0.00138059,-0.01568004,0.29510571,121.0835,12.625207)"
     x1="26.994236"
     y1="91.863266"
     x2="62.675987"
     y2="53.387733" /><linearGradient
     inkscape:collect="always"
     xlink:href="#linearGradient3198"
     id="linearGradient2346"
     gradientUnits="userSpaceOnUse"
     gradientTransform="matrix(0.29127063,-0.00138059,-0.01568004,0.29510571,121.0835,12.625207)"
     x1="62.479111"
     y1="52.423634"
     x2="76.173103"
     y2="52.423634" /><linearGradient
     inkscape:collect="always"
     xlink:href="#linearGradient3198"
     id="linearGradient2348"
     gradientUnits="userSpaceOnUse"
     gradientTransform="matrix(0.29127063,-0.00138059,-0.01568004,0.29510571,121.0835,12.625207)"
     x1="74.398643"
     y1="51.196621"
     x2="90.020798"
     y2="51.196621" /><linearGradient
     inkscape:collect="always"
     xlink:href="#linearGradient3198"
     id="linearGradient2350"
     gradientUnits="userSpaceOnUse"
     gradientTransform="matrix(0.34099426,-0.00161627,-0.01835693,0.34548401,116.40567,11.175937)"
     x1="20.41017"
     y1="83.537117"
     x2="115.08688"
     y2="83.537117" /><linearGradient
     inkscape:collect="always"
     xlink:href="#linearGradient3198"
     id="linearGradient2352"
     gradientUnits="userSpaceOnUse"
     gradientTransform="matrix(0.34099426,-0.00161627,-0.01835693,0.34548401,116.40567,11.175937)"
     x1="19.358446"
     y1="73.282814"
     x2="112.98343"
     y2="73.282814" /><linearGradient
     inkscape:collect="always"
     xlink:href="#linearGradient2979"
     id="linearGradient2354"
     gradientUnits="userSpaceOnUse"
     gradientTransform="matrix(0.34099426,-0.00161627,-0.01835693,0.34548401,116.40567,11.175937)"
     x1="26.994236"
     y1="91.863266"
     x2="62.675987"
     y2="53.387733" /><linearGradient
     inkscape:collect="always"
     xlink:href="#linearGradient2979"
     id="linearGradient2356"
     gradientUnits="userSpaceOnUse"
     gradientTransform="matrix(0.34099426,-0.00161627,-0.01835693,0.34548401,116.40567,11.175937)"
     x1="26.994236"
     y1="91.863266"
     x2="62.675987"
     y2="53.387733" /><linearGradient
     inkscape:collect="always"
     xlink:href="#linearGradient3198"
     id="linearGradient2358"
     gradientUnits="userSpaceOnUse"
     gradientTransform="matrix(0.34099426,-0.00161627,-0.01835693,0.34548401,116.40567,11.175937)"
     x1="17.430286"
     y1="53.212425"
     x2="108.25067"
     y2="53.212425" /><linearGradient
     inkscape:collect="always"
     xlink:href="#linearGradient3198"
     id="linearGradient2360"
     gradientUnits="userSpaceOnUse"
     gradientTransform="matrix(0.34099426,-0.00161627,-0.01835693,0.34548401,116.40567,11.175937)"
     x1="16.729137"
     y1="43.133408"
     x2="105.62136"
     y2="43.133408" /></defs><sodipodi:namedview
   inkscape:window-height="994"
   inkscape:window-width="1920"
   inkscape:pageshadow="2"
   inkscape:pageopacity="0.0"
   borderopacity="1.0"
   bordercolor="#666666"
   pagecolor="#ffffff"
   id="base"
   inkscape:zoom="7.9419152"
   inkscape:cx="37.333564"
   inkscape:cy="33.241352"
   inkscape:window-x="0"
   inkscape:window-y="0"
   inkscape:current-layer="Livello_1"
   showguides="true"
   inkscape:guide-bbox="true"
   inkscape:showpageshadow="2"
   inkscape:pagecheckerboard="0"
   inkscape:deskcolor="#d1d1d1"
   showgrid="false"
   inkscape:window-maximized="1"><sodipodi:guide
     orientation="horizontal"
     position="0,537.53683"
     id="guide1993"
     inkscape:locked="false" /></sodipodi:namedview>




<g
   id="g1"
   transform="matrix(1.331938,0,0,1.3333333,-152.56663,-12.295273)"><rect
     x="116.7972"
     y="11.471456"
     width="42.043999"
     height="42"
     rx="21.021999"
     ry="21"
     fill="#95a5a6"
     id="rect2220-0"
     style="stroke-width:1.05055" /><rect
     x="116.7972"
     y="11.471456"
     width="42.043999"
     height="40.950008"
     rx="21.021999"
     ry="20.475004"
     id="rect2222-9"
     style="fill:url(#linearGradient2336);stroke-width:1.05055" /><path
     style="fill:url(#linearGradient2338);fill-opacity:1;fill-rule:evenodd;stroke:none;stroke-width:0.690531;stroke-linecap:butt;stroke-linejoin:miter;stroke-miterlimit:4;stroke-dasharray:none;stroke-opacity:1"
     d="m 148.94355,19.248115 c -0.27897,3.145961 -0.7339,8.582665 -3.08266,10.875096 -4.89263,4.77527 -11.76318,4.784183 -16.56963,9.266956 -2.23358,2.080528 -3.05202,4.958333 -3.57519,6.304628 l 0.83956,-0.09006 c 0.40347,-1.133025 1.07955,-3.522504 2.93661,-5.611156 3.75429,-4.222518 11.92714,-4.751048 16.81886,-9.525448 2.23504,-2.18143 2.75094,-6.943563 2.93713,-9.530174 z"
     id="path3251-4-5-3"
     sodipodi:nodetypes="cssccsscc" /><ellipse
     transform="matrix(0.99998877,-0.00473962,-0.05305855,0.9985914,0,0)"
     id="path2088-8-6"
     style="opacity:0.66;fill:#2e3436;fill-opacity:1;fill-rule:nonzero;stroke:none;stroke-width:0.27267;stroke-linecap:round;stroke-linejoin:round;stroke-miterlimit:4;stroke-dasharray:none;stroke-dashoffset:4;stroke-opacity:1"
     cx="147.03407"
     cy="16.112255"
     rx="0.31276837"
     ry="0.23077719" /><ellipse
     style="opacity:0.66;fill:#6193cf;fill-opacity:1;fill-rule:nonzero;stroke:none;stroke-width:0.27267;stroke-linecap:round;stroke-linejoin:round;stroke-miterlimit:4;stroke-dasharray:none;stroke-dashoffset:4;stroke-opacity:1"
     id="path2090-4-0"
     transform="matrix(0.99998877,-0.00473962,-0.05305855,0.9985914,0,0)"
     cx="143.53389"
     cy="16.368694"
     rx="0.31276837"
     ry="0.23077719" /><ellipse
     transform="matrix(0.99998877,-0.00473962,-0.05305855,0.9985914,0,0)"
     id="path2092-3-6"
     style="opacity:0.66;fill:#2e3436;fill-opacity:1;fill-rule:nonzero;stroke:none;stroke-width:0.27267;stroke-linecap:round;stroke-linejoin:round;stroke-miterlimit:4;stroke-dasharray:none;stroke-dashoffset:4;stroke-opacity:1"
     cx="140.03369"
     cy="16.625134"
     rx="0.31276837"
     ry="0.23077719" /><ellipse
     style="opacity:0.66;fill:#6193cf;fill-opacity:1;fill-rule:nonzero;stroke:none;stroke-width:0.27267;stroke-linecap:round;stroke-linejoin:round;stroke-miterlimit:4;stroke-dasharray:none;stroke-dashoffset:4;stroke-opacity:1"
     id="path2094-1-2"
     transform="matrix(0.99998877,-0.00473962,-0.05305855,0.9985914,0,0)"
     cx="136.53351"
     cy="16.881573"
     rx="0.31276837"
     ry="0.23077719" /><ellipse
     transform="matrix(0.99998877,-0.00473962,-0.05305855,0.9985914,0,0)"
     id="path2096-4-6"
     style="opacity:0.66;fill:#2e3436;fill-opacity:1;fill-rule:nonzero;stroke:none;stroke-width:0.27267;stroke-linecap:round;stroke-linejoin:round;stroke-miterlimit:4;stroke-dasharray:none;stroke-dashoffset:4;stroke-opacity:1"
     cx="133.03331"
     cy="17.108791"
     rx="0.31276837"
     ry="0.23077719" /><ellipse
     style="opacity:0.66;fill:#6193cf;fill-opacity:1;fill-rule:nonzero;stroke:none;stroke-width:0.27267;stroke-linecap:round;stroke-linejoin:round;stroke-miterlimit:4;stroke-dasharray:none;stroke-dashoffset:4;stroke-opacity:1"
     id="path2098-9-1"
     transform="matrix(0.99998877,-0.00473962,-0.05305855,0.9985914,0,0)"
     cx="129.54216"
     cy="17.388515"
     rx="0.31276837"
     ry="0.23077719" /><path
     style="opacity:0.229508;fill:none;fill-opacity:1;fill-rule:evenodd;stroke:url(#linearGradient2340);stroke-width:0.0577128;stroke-linecap:butt;stroke-linejoin:miter;stroke-miterlimit:4;stroke-dasharray:none;stroke-opacity:1"
     d="m 128.52458,16.679198 1.30382,24.455118"
     id="path2221-2-8" /><path
     style="opacity:0.229508;fill:none;fill-opacity:1;fill-rule:evenodd;stroke:url(#linearGradient2342);stroke-width:0.0577128;stroke-linecap:butt;stroke-linejoin:miter;stroke-miterlimit:4;stroke-dasharray:none;stroke-opacity:1"
     d="m 132.11224,16.403616 1.71226,24.453189"
     id="path2223-0-7" /><path
     style="fill:url(#linearGradient2344);fill-opacity:1;fill-rule:evenodd;stroke:url(#radialGradient3142-3-9);stroke-width:0.0577128;stroke-linecap:butt;stroke-linejoin:miter;stroke-miterlimit:4;stroke-dasharray:none;stroke-opacity:1"
     d="m 135.6461,16.180005 2.18276,24.244092"
     id="path2225-6-9" /><path
     style="opacity:0.229508;fill:none;fill-opacity:1;fill-rule:evenodd;stroke:url(#linearGradient2346);stroke-width:0.0577128;stroke-linecap:butt;stroke-linejoin:miter;stroke-miterlimit:4;stroke-dasharray:none;stroke-opacity:1"
     d="m 139.12889,15.956637 2.65052,24.086725"
     id="path2227-8-2" /><path
     style="opacity:0.229508;fill:none;fill-opacity:1;fill-rule:evenodd;stroke:url(#linearGradient2348);stroke-width:0.0577128;stroke-linecap:butt;stroke-linejoin:miter;stroke-miterlimit:4;stroke-dasharray:none;stroke-opacity:1"
     d="m 142.62268,15.526355 3.20665,24.187524"
     id="path2229-9-0" /><path
     style="opacity:0.508197;fill:none;fill-opacity:0.75;fill-rule:evenodd;stroke:url(#radialGradient3186-8-1);stroke-width:0.293144px;stroke-linecap:butt;stroke-linejoin:miter;stroke-opacity:1"
     d="m 135.54948,16.077033 2.32494,24.450282"
     id="path3178-2-2" /><ellipse
     style="opacity:0.66;fill:#2e3436;fill-opacity:1;fill-rule:nonzero;stroke:none;stroke-width:0.409277;stroke-linecap:round;stroke-linejoin:round;stroke-miterlimit:4;stroke-dasharray:none;stroke-dashoffset:4;stroke-opacity:1"
     id="path2072-7-3"
     transform="matrix(0.99998877,-0.00473993,-0.05305815,0.99859142,0,0)"
     cx="152.33513"
     cy="43.167633"
     rx="0.4152334"
     ry="0.39165846" /><ellipse
     transform="matrix(0.99998877,-0.00473993,-0.05305815,0.99859142,0,0)"
     id="path2074-2-7"
     style="opacity:0.66;fill:#6193cf;fill-opacity:1;fill-rule:nonzero;stroke:none;stroke-width:0.409277;stroke-linecap:round;stroke-linejoin:round;stroke-miterlimit:4;stroke-dasharray:none;stroke-dashoffset:4;stroke-opacity:1"
     cx="147.68819"
     cy="43.602821"
     rx="0.4152334"
     ry="0.39165846" /><ellipse
     style="opacity:0.66;fill:#2e3436;fill-opacity:1;fill-rule:nonzero;stroke:none;stroke-width:0.409277;stroke-linecap:round;stroke-linejoin:round;stroke-miterlimit:4;stroke-dasharray:none;stroke-dashoffset:4;stroke-opacity:1"
     id="path2076-7-5"
     transform="matrix(0.99998877,-0.00473993,-0.05305815,0.99859142,0,0)"
     cx="143.0414"
     cy="44.037987"
     rx="0.4152334"
     ry="0.39165846" /><ellipse
     transform="matrix(0.99998877,-0.00473993,-0.05305815,0.99859142,0,0)"
     id="path2078-2-9"
     style="opacity:0.66;fill:#6193cf;fill-opacity:1;fill-rule:nonzero;stroke:none;stroke-width:0.409277;stroke-linecap:round;stroke-linejoin:round;stroke-miterlimit:4;stroke-dasharray:none;stroke-dashoffset:4;stroke-opacity:1"
     cx="138.39456"
     cy="44.47319"
     rx="0.4152334"
     ry="0.39165846" /><ellipse
     style="opacity:0.66;fill:#2e3436;fill-opacity:1;fill-rule:nonzero;stroke:none;stroke-width:0.409277;stroke-linecap:round;stroke-linejoin:round;stroke-miterlimit:4;stroke-dasharray:none;stroke-dashoffset:4;stroke-opacity:1"
     id="path2080-2-2"
     transform="matrix(0.99998877,-0.00473993,-0.05305815,0.99859142,0,0)"
     cx="133.74762"
     cy="44.908401"
     rx="0.4152334"
     ry="0.39165846" /><ellipse
     transform="matrix(0.99998877,-0.00473993,-0.05305815,0.99859142,0,0)"
     id="path2082-6-2"
     style="opacity:0.66;fill:#6193cf;fill-opacity:1;fill-rule:nonzero;stroke:none;stroke-width:0.409277;stroke-linecap:round;stroke-linejoin:round;stroke-miterlimit:4;stroke-dasharray:none;stroke-dashoffset:4;stroke-opacity:1"
     cx="129.10066"
     cy="45.343529"
     rx="0.4152334"
     ry="0.39165846" /><ellipse
     style="opacity:0.66;fill:#6193cf;fill-opacity:1;fill-rule:nonzero;stroke:none;stroke-width:0.319228;stroke-linecap:round;stroke-linejoin:round;stroke-miterlimit:4;stroke-dasharray:none;stroke-dashoffset:4;stroke-opacity:1"
     id="path2102-1-8"
     transform="matrix(0.99998877,-0.00473962,-0.05305855,0.9985914,0,0)"
     cx="122.53264"
     cy="23.727436"
     rx="0.3661617"
     ry="0.2701737" /><ellipse
     transform="matrix(-0.99998877,0.00473908,-0.05305848,0.99859141,0,0)"
     id="path2138-0-9"
     style="opacity:0.66;fill:#2e3436;fill-opacity:1;fill-rule:nonzero;stroke:none;stroke-width:0.403398;stroke-linecap:round;stroke-linejoin:round;stroke-miterlimit:4;stroke-dasharray:none;stroke-dashoffset:4;stroke-opacity:1"
     cx="-122.53265"
     cy="24.368874"
     rx="0.4254494"
     ry="0.37131581" /><ellipse
     style="opacity:0.66;fill:#6193cf;fill-opacity:1;fill-rule:nonzero;stroke:none;stroke-width:0.407458;stroke-linecap:round;stroke-linejoin:round;stroke-miterlimit:4;stroke-dasharray:none;stroke-dashoffset:4;stroke-opacity:1"
     id="path2140-6-7"
     transform="matrix(-0.99998877,0.00473887,-0.05305814,0.99859142,0,0)"
     cx="-122.80189"
     cy="27.922741"
     rx="0.42974791"
     ry="0.37506694" /><ellipse
     transform="matrix(-0.99998876,0.00474037,-0.05305836,0.99859141,0,0)"
     id="path2142-1-3"
     style="opacity:0.66;fill:#2e3436;fill-opacity:1;fill-rule:nonzero;stroke:none;stroke-width:0.411579;stroke-linecap:round;stroke-linejoin:round;stroke-miterlimit:4;stroke-dasharray:none;stroke-dashoffset:4;stroke-opacity:1"
     cx="-123.03904"
     cy="31.385025"
     rx="0.43408787"
     ry="0.3788546" /><ellipse
     style="opacity:0.66;fill:#6193cf;fill-opacity:1;fill-rule:nonzero;stroke:none;stroke-width:0.415735;stroke-linecap:round;stroke-linejoin:round;stroke-miterlimit:4;stroke-dasharray:none;stroke-dashoffset:4;stroke-opacity:1"
     id="path2144-5-6"
     transform="matrix(-0.99998877,0.00474002,-0.05305831,0.99859142,0,0)"
     cx="-123.38947"
     cy="34.982151"
     rx="0.43847266"
     ry="0.38268188" /><ellipse
     transform="matrix(-0.99998876,0.00474069,-0.05305794,0.99859144,0,0)"
     id="path2146-9-1"
     style="opacity:0.66;fill:#2e3436;fill-opacity:1;fill-rule:nonzero;stroke:none;stroke-width:0.419939;stroke-linecap:round;stroke-linejoin:round;stroke-miterlimit:4;stroke-dasharray:none;stroke-dashoffset:4;stroke-opacity:1"
     cx="-123.70461"
     cy="38.515614"
     rx="0.4429017"
     ry="0.38654721" /><ellipse
     style="opacity:0.66;fill:#6193cf;fill-opacity:1;fill-rule:nonzero;stroke:none;stroke-width:0.42417;stroke-linecap:round;stroke-linejoin:round;stroke-miterlimit:4;stroke-dasharray:none;stroke-dashoffset:4;stroke-opacity:1"
     id="path2148-4-2"
     transform="matrix(-0.99998877,0.00474015,-0.05305862,0.9985914,0,0)"
     cx="-124.02858"
     cy="42.093693"
     rx="0.44737539"
     ry="0.39045256" /><ellipse
     transform="matrix(-0.99998877,0.00474015,-0.05305862,0.9985914,0,0)"
     id="path2150-9-9"
     style="opacity:0.66;fill:#2e3436;fill-opacity:1;fill-rule:nonzero;stroke:none;stroke-width:0.42417;stroke-linecap:round;stroke-linejoin:round;stroke-miterlimit:4;stroke-dasharray:none;stroke-dashoffset:4;stroke-opacity:1"
     cx="-124.45863"
     cy="45.748135"
     rx="0.44737539"
     ry="0.39045256" /><ellipse
     transform="matrix(-0.9904044,0.1381996,0.08493771,0.99638626,0,0)"
     id="path2195-0-3"
     style="opacity:0.66;fill:#2e3436;fill-opacity:1;fill-rule:nonzero;stroke:none;stroke-width:0.406123;stroke-linecap:round;stroke-linejoin:round;stroke-miterlimit:4;stroke-dasharray:none;stroke-dashoffset:4;stroke-opacity:1"
     cx="-149.19559"
     cy="45.530689"
     rx="0.43671113"
     ry="0.36667597" /><ellipse
     style="opacity:0.66;fill:#6193cf;fill-opacity:1;fill-rule:nonzero;stroke:none;stroke-width:0.410228;stroke-linecap:round;stroke-linejoin:round;stroke-miterlimit:4;stroke-dasharray:none;stroke-dashoffset:4;stroke-opacity:1"
     id="path2197-9-1"
     transform="matrix(-0.99040431,0.13820022,0.08493653,0.99638636,0,0)"
     cx="-149.51224"
     cy="49.012703"
     rx="0.44112244"
     ry="0.3703801" /><ellipse
     transform="matrix(-0.99040429,0.13820039,0.08493782,0.99638625,0,0)"
     id="path2199-1-9"
     style="opacity:0.66;fill:#2e3436;fill-opacity:1;fill-rule:nonzero;stroke:none;stroke-width:0.418558;stroke-linecap:round;stroke-linejoin:round;stroke-miterlimit:4;stroke-dasharray:none;stroke-dashoffset:4;stroke-opacity:1"
     cx="-149.82858"
     cy="52.494408"
     rx="0.4500789"
     ry="0.37790036" /><ellipse
     style="opacity:0.66;fill:#6193cf;fill-opacity:1;fill-rule:nonzero;stroke:none;stroke-width:0.418558;stroke-linecap:round;stroke-linejoin:round;stroke-miterlimit:4;stroke-dasharray:none;stroke-dashoffset:4;stroke-opacity:1"
     id="path2201-7-4"
     transform="matrix(-0.99040429,0.13820039,0.08493782,0.99638625,0,0)"
     cx="-150.1454"
     cy="55.976181"
     rx="0.4500789"
     ry="0.37790036" /><ellipse
     transform="matrix(-0.99040439,0.13819966,0.08493751,0.99638628,0,0)"
     id="path2203-7-7"
     style="opacity:0.66;fill:#2e3436;fill-opacity:1;fill-rule:nonzero;stroke:none;stroke-width:0.422792;stroke-linecap:round;stroke-linejoin:round;stroke-miterlimit:4;stroke-dasharray:none;stroke-dashoffset:4;stroke-opacity:1"
     cx="-150.46208"
     cy="59.457928"
     rx="0.45462477"
     ry="0.38171747" /><ellipse
     style="opacity:0.66;fill:#6193cf;fill-opacity:1;fill-rule:nonzero;stroke:none;stroke-width:0.422792;stroke-linecap:round;stroke-linejoin:round;stroke-miterlimit:4;stroke-dasharray:none;stroke-dashoffset:4;stroke-opacity:1"
     id="path2205-1-8"
     transform="matrix(-0.99040439,0.13819966,0.08493751,0.99638628,0,0)"
     cx="-150.77864"
     cy="62.939663"
     rx="0.45462477"
     ry="0.38171747" /><path
     style="opacity:0.401639;fill:none;fill-opacity:1;fill-rule:evenodd;stroke:url(#linearGradient2350);stroke-width:0.067566;stroke-linecap:butt;stroke-linejoin:miter;stroke-miterlimit:4;stroke-dasharray:none;stroke-opacity:1"
     d="m 121.7899,41.426635 32.36828,-2.998974 v 0"
     id="path2207-1-4" /><path
     style="opacity:0.229508;fill:none;fill-opacity:1;fill-rule:evenodd;stroke:url(#linearGradient2352);stroke-width:0.067566;stroke-linecap:butt;stroke-linejoin:miter;stroke-miterlimit:4;stroke-dasharray:none;stroke-opacity:1"
     d="M 121.62111,37.855369 153.62754,34.91865"
     id="path2209-5-5" /><path
     style="fill:url(#linearGradient2354);fill-opacity:1;fill-rule:evenodd;stroke:url(#radialGradient3130-5-2);stroke-width:0.067566;stroke-linecap:butt;stroke-linejoin:miter;stroke-miterlimit:4;stroke-dasharray:none;stroke-opacity:1"
     d="m 121.56543,34.404637 31.34572,-2.87304"
     id="path2211-9-0" /><path
     style="opacity:0.229508;fill:url(#linearGradient2356);fill-opacity:1;fill-rule:evenodd;stroke:url(#linearGradient2358);stroke-width:0.067566;stroke-linecap:butt;stroke-linejoin:miter;stroke-miterlimit:4;stroke-dasharray:none;stroke-opacity:1"
     d="m 121.34331,30.71252 31.02755,-2.508257"
     id="path2213-7-3" /><path
     style="opacity:0.229508;fill:none;fill-opacity:1;fill-rule:evenodd;stroke:url(#linearGradient2360);stroke-width:0.067566;stroke-linecap:butt;stroke-linejoin:miter;stroke-miterlimit:4;stroke-dasharray:none;stroke-opacity:1"
     d="m 121.29085,27.201235 30.36683,-2.44458"
     id="path2215-7-6" /><path
     style="opacity:0.508197;fill:none;fill-opacity:0.75;fill-rule:evenodd;stroke:url(#radialGradient3196-8-7);stroke-width:0.343184px;stroke-linecap:butt;stroke-linejoin:miter;stroke-opacity:1"
     d="m 121.50889,34.344369 31.57835,-2.753064"
     id="path3188-6-1" /><path
     style="font-style:normal;font-variant:normal;font-weight:normal;font-stretch:normal;font-size:37.2529px;line-height:125%;font-family:Cotillion;text-align:start;writing-mode:lr-tb;text-anchor:start;fill:#000000;fill-opacity:1;stroke:none;stroke-width:0.281639px;stroke-linecap:butt;stroke-linejoin:miter;stroke-opacity:1"
     d="m 138.88828,35.04743 c 0.045,0.241899 -0.0367,0.41017 -0.24517,0.504816 -0.036,0.01023 -0.0781,0.01023 -0.12634,0 l -0.0208,-0.06314 -0.0438,-0.157753 c -0.0102,-0.0525 -0.0716,-0.141974 -0.18657,-0.268177 -0.12112,-0.136712 -0.28171,-0.205074 -0.48175,-0.205084 -0.12633,1e-5 -0.25772,0.0368 -0.39413,0.110399 -0.14251,0.06315 -0.26738,0.184057 -0.37461,0.362836 -0.10728,0.178802 -0.20491,0.446981 -0.29302,0.804557 -0.0397,0.168272 -0.0681,0.31025 -0.0855,0.425936 -0.0582,0.336552 -0.10594,0.772994 -0.14338,1.309353 l -0.0452,0.741449 -9.1e-4,0.489047 h 1.46865 l 0.0238,0.205069 h -1.51605 l -0.0646,0.899213 -0.0586,0.772993 -0.029,0.441714 -0.0199,0.457485 -0.0369,0.236628 -0.12093,1.293594 c -0.11569,1.020148 -0.27844,1.74055 -0.48801,2.161227 -0.20958,0.420686 -0.56555,0.751956 -1.06796,0.993859 -0.19351,0.08415 -0.38038,0.152487 -0.56054,0.205078 -0.18016,0.05253 -0.34394,0.07895 -0.49134,0.07896 l -0.30916,-0.01578 h -0.25274 l -0.18284,-0.01578 c -0.0842,-1.3e-5 -0.18282,-0.0158 -0.29582,-0.04737 -0.10695,-0.02096 -0.23344,-0.05779 -0.37965,-0.110415 -0.29402,-0.126205 -0.49878,-0.28921 -0.61428,-0.489036 -0.0791,-0.136727 -0.0917,-0.268194 -0.0384,-0.39439 l 0.12567,-0.110406 c 0.0931,-0.02097 0.15549,-0.03163 0.18707,-0.03163 0.14739,-1.2e-5 0.28388,0.06314 0.40945,0.189302 0.0548,0.09464 0.0829,0.152501 0.0845,0.173529 l -0.0333,0.07896 c -0.0267,0.06314 -0.0157,0.136707 0.0329,0.220846 0.073,0.126207 0.20964,0.226114 0.4101,0.299743 0.1855,0.08416 0.40458,0.126198 0.65725,0.126199 0.31584,-10e-7 0.59662,-0.07896 0.84233,-0.236623 0.2352,-0.157766 0.43067,-0.420686 0.58641,-0.788776 0.0608,-0.168283 0.1025,-0.341806 0.1255,-0.520596 0.023,-0.178788 0.0526,-0.510076 0.0889,-0.99385 l 0.0271,-0.362833 0.0616,-1.041192 0.18081,-1.845724 0.0423,-0.473255 0.0767,-1.151616 h -1.01073 l -0.0238,-0.205079 h 1.04223 l 0.0525,-0.646792 c 0.0709,-0.715135 0.16469,-1.272537 0.28112,-1.672188 0.11033,-0.410157 0.26107,-0.741438 0.45208,-0.99385 0.36542,-0.515331 0.77323,-0.857127 1.22344,-1.02541 0.24008,-0.09462 0.47593,-0.141975 0.70754,-0.141983 0.13686,8e-6 0.27981,0.01015 0.42882,0.03158 0.15956,0.02098 0.28492,0.110424 0.37609,0.268184 0.0122,0.02098 0.0259,0.06315 0.0413,0.126197"
     id="path1992-7-0" /><path
     style="font-style:normal;font-variant:normal;font-weight:normal;font-stretch:normal;font-size:37.2529px;line-height:125%;font-family:Cotillion;text-align:start;writing-mode:lr-tb;text-anchor:start;fill:#000000;fill-opacity:1;stroke:none;stroke-width:0.281639px;stroke-linecap:butt;stroke-linejoin:miter;stroke-opacity:1"
     d="m 140.84356,36.194255 0.0119,0.04742 -0.0292,0.03159 -0.005,0.04739 -0.23558,0.220857 c -0.0839,0.07366 -0.15623,0.157764 -0.21733,0.2524 -0.0671,0.08417 -0.17967,0.262935 -0.33748,0.536375 -0.299,0.557412 -0.52751,1.209455 -0.6855,1.956143 -0.15801,0.746722 -0.23744,1.556523 -0.23828,2.429422 0.002,0.988598 0.0659,1.735317 0.18925,2.240116 0.13384,0.504823 0.28281,0.899202 0.44693,1.183158 l 0.10023,0.173527 -0.005,0.04741 c 0.008,0.03156 9.1e-4,0.04739 -0.0201,0.04739 -0.0377,-0.01025 -0.0699,-0.02095 -0.0971,-0.03156 -0.0332,-0.02095 -0.0899,-0.07364 -0.17013,-0.157745 -0.16649,-0.178803 -0.34396,-0.431198 -0.5324,-0.757222 -0.40117,-0.694119 -0.66547,-1.388227 -0.79291,-2.082365 -0.13352,-0.704625 -0.12779,-1.514433 0.0171,-2.429407 0.0892,-0.410162 0.19545,-0.773003 0.31841,-1.088518 0.12296,-0.315495 0.33133,-0.683589 0.62513,-1.104277 0.15661,-0.220843 0.27598,-0.378599 0.35814,-0.473261 0.14489,-0.168268 0.30032,-0.336533 0.46627,-0.504812 l 0.21982,-0.220878 0.17061,-0.141976 0.26715,-0.220861 0.0991,-0.04739 0.0747,0.04739"
     id="path1990-3-6" /><path
     style="font-style:normal;font-variant:normal;font-weight:normal;font-stretch:normal;font-size:37.2529px;line-height:125%;font-family:Cotillion;text-align:start;writing-mode:lr-tb;text-anchor:start;fill:#000000;fill-opacity:1;stroke:none;stroke-width:0.281639px;stroke-linecap:butt;stroke-linejoin:miter;stroke-opacity:1"
     d="m 146.63009,41.089429 0.004,0.06314 -0.0448,0.110396 -0.0121,0.06314 -0.20346,0.36283 -0.13689,0.220863 -0.11622,0.236639 -0.14177,0.205077 -0.19631,0.283955 c -0.1567,0.241892 -0.29082,0.420681 -0.40239,0.536367 -0.11157,0.115667 -0.28666,0.247155 -0.52531,0.394389 -0.23866,0.147237 -0.46853,0.22086 -0.68961,0.22086 -0.58957,0 -1.03634,-0.320778 -1.34032,-0.962314 -0.0472,-0.0841 -0.0819,-0.163002 -0.1049,-0.236626 -0.026,-0.08413 -0.0439,-0.141983 -0.0537,-0.173531 l -0.0557,0.126212 -0.0715,0.126194 c -0.17675,0.347063 -0.3901,0.609987 -0.64004,0.788771 -0.26047,0.17879 -0.51703,0.268193 -0.7697,0.268193 -0.25268,0 -0.41321,-0.110415 -0.48162,-0.331287 -0.0102,-0.0316 -0.0184,-0.110426 -0.0259,-0.236637 -0.0104,-0.13672 0.0514,-0.241891 0.18653,-0.31551 0.1246,-0.07359 0.21847,-0.110413 0.28164,-0.110413 0.0737,8e-6 0.13448,0.02623 0.18236,0.07896 l 0.0293,0.09468 c 0.0463,0.115689 0.18297,0.199822 0.40981,0.252409 0.077,0.01015 0.15467,-0.01026 0.23312,-0.06314 0.068,-0.05254 0.16333,-0.152495 0.28619,-0.299724 l 0.1587,-0.252406 0.15268,-0.22086 0.0606,-0.110396 c -0.062,-0.199837 -0.10232,-0.347059 -0.12103,-0.441717 -0.022,-0.105136 -0.0686,-0.425944 -0.14014,-0.962304 l -0.0665,-0.520585 -0.0356,-0.268188 -0.0102,-0.236636 -0.0296,-0.299725 -0.0797,0.252403 -0.0967,0.299738 -0.10646,0.268184 -0.19595,0.489035 c -0.0782,0.189307 -0.12825,0.299725 -0.15007,0.331278 -0.0218,0.03156 -0.0712,0.04214 -0.14814,0.03156 l 9.2e-4,-0.04736 -0.003,-0.06313 0.15495,-0.315517 0.27683,-0.788768 0.11477,-0.394387 0.0954,-0.252407 0.22597,0.01577 c 0.17898,3e-6 0.34091,-0.02097 0.4858,-0.06314 0.14489,-0.04211 0.29016,-0.09992 0.43581,-0.173521 l -0.0104,0.220855 0.003,0.520598 c 0.009,0.368096 0.0227,0.667816 0.0417,0.899193 0.019,0.231373 0.0538,0.462753 0.1044,0.694119 l 0.15382,-0.268183 0.14781,-0.236639 0.19743,-0.331265 c 0.42821,-0.588965 0.76928,-0.98335 1.02324,-1.18317 0.26122,-0.210338 0.49711,-0.315507 0.70767,-0.315508 0.1717,0.01016 0.3107,0.06834 0.41696,0.173521 0.1136,0.09467 0.16717,0.199827 0.16089,0.315511 l -0.0311,0.20508 c -0.10407,0.241897 -0.20874,0.362835 -0.31401,0.362835 -0.0633,0 -0.14789,-0.05251 -0.25415,-0.157757 -0.0487,-0.02095 -0.0835,-0.03155 -0.10456,-0.03155 -0.12558,-0.03158 -0.24101,-0.04738 -0.34629,-0.04738 -0.0632,0 -0.15341,0.0316 -0.27073,0.09464 -0.11,0.05251 -0.20957,0.105144 -0.29856,0.157752 -0.17148,0.126212 -0.33117,0.273441 -0.47908,0.44172 -0.18426,0.220854 -0.36077,0.483779 -0.5295,0.788775 l -0.12221,0.268149 c 0.031,0.168271 0.0677,0.320771 0.11011,0.457484 0.0162,0.05254 0.0327,0.105133 0.0488,0.157757 0.0472,0.08413 0.077,0.147239 0.0903,0.189304 0.18242,0.588947 0.45785,0.883439 0.82633,0.883439 0.15793,0 0.33476,-0.0578 0.53056,-0.173543 0.10999,-0.05255 0.20831,-0.126202 0.2948,-0.22085 0.0865,-0.09461 0.20246,-0.247143 0.34787,-0.457495 l 0.22789,-0.283952 0.0981,-0.14198 0.14176,-0.205077 0.3257,-0.631025 c 0.0233,-0.09465 0.0475,-0.152496 0.0725,-0.173523 0.0104,0 0.0194,-0.0056 0.0267,-0.01579 l 0.0828,0.06313"
     id="path1988-6-3" /><path
     style="font-style:normal;font-variant:normal;font-weight:normal;font-stretch:normal;font-size:37.2529px;line-height:125%;font-family:Cotillion;text-align:start;writing-mode:lr-tb;text-anchor:start;fill:#000000;fill-opacity:1;stroke:none;stroke-width:0.281639px;stroke-linecap:butt;stroke-linejoin:miter;stroke-opacity:1"
     d="m 148.37517,37.692923 c 0.25735,0.536358 0.42321,1.114801 0.49757,1.735296 0.0854,0.694121 0.0678,1.419784 -0.0525,2.177011 -0.0698,0.389135 -0.17297,0.757226 -0.30929,1.10428 -0.14239,0.336548 -0.35908,0.699377 -0.65006,1.088501 -0.19663,0.315517 -0.46395,0.636286 -0.80193,0.962305 l -0.24224,0.236643 -0.14815,0.126189 -0.28295,0.220855 c -0.0388,0.04214 -0.0688,0.06315 -0.0899,0.06315 -0.0271,-0.01024 -0.0437,-0.02097 -0.0498,-0.03161 l -0.0207,-0.06314 0.005,-0.04738 0.0292,-0.03156 0.23558,-0.220846 c 0.0705,-0.04212 0.14896,-0.115669 0.23555,-0.220867 0.0699,-0.11568 0.17644,-0.304984 0.31925,-0.567912 0.22901,-0.441709 0.44416,-1.062212 0.64547,-1.8615 0.17461,-0.736186 0.25523,-1.598578 0.24184,-2.587181 -0.002,-0.98859 -0.0681,-1.730026 -0.1959,-2.224328 -0.13386,-0.504802 -0.27675,-0.888678 -0.42872,-1.15161 l -0.0913,-0.157755 -0.0207,-0.06314 c 0.0283,-0.04211 0.0673,-0.04735 0.11725,-0.01576 0.0997,0.06315 0.20477,0.163016 0.31536,0.299739 0.12115,0.136723 0.26376,0.347057 0.42788,0.631013 0.0547,0.09467 0.10945,0.189311 0.16412,0.283955 0.0579,0.13673 0.10822,0.241894 0.15076,0.315508"
     id="path1986-5-2" /><path
     style="font-style:normal;font-variant:normal;font-weight:normal;font-stretch:normal;font-size:37.2529px;line-height:125%;font-family:Cotillion;text-align:start;writing-mode:lr-tb;text-anchor:start;fill:#000000;fill-opacity:1;stroke:none;stroke-width:0.281639px;stroke-linecap:butt;stroke-linejoin:miter;stroke-opacity:1"
     d="m 154.9013,39.971275 h -4.12745 v -0.615252 h 4.12745 v 0.615252"
     id="path1984-6-0" /><path
     style="font-style:normal;font-variant:normal;font-weight:normal;font-stretch:normal;font-size:37.2529px;line-height:125%;font-family:Cotillion;text-align:start;writing-mode:lr-tb;text-anchor:start;fill:#000000;fill-opacity:1;stroke:none;stroke-width:0.281639px;stroke-linecap:butt;stroke-linejoin:miter;stroke-opacity:1"
     d="m 154.9013,42.763531 h -4.12745 v -0.615243 h 4.12745 v 0.615243"
     id="text1977-3-6" /></g></svg>
