<?xml version="1.0" encoding="UTF-8" standalone="no"?>
<svg
   width="62"
   height="62"
   version="1.1"
   id="svg14"
   sodipodi:docname="gtkhash.svg"
   inkscape:version="1.4 (e7c3feb100, 2024-10-09)"
   xmlns:inkscape="http://www.inkscape.org/namespaces/inkscape"
   xmlns:sodipodi="http://sodipodi.sourceforge.net/DTD/sodipodi-0.dtd"
   xmlns="http://www.w3.org/2000/svg"
   xmlns:svg="http://www.w3.org/2000/svg">
  <defs
     id="defs14" />
  <sodipodi:namedview
     id="namedview14"
     pagecolor="#ffffff"
     bordercolor="#000000"
     borderopacity="0.25"
     inkscape:showpageshadow="2"
     inkscape:pageopacity="0.0"
     inkscape:pagecheckerboard="0"
     inkscape:deskcolor="#d1d1d1"
     inkscape:zoom="11.6875"
     inkscape:cx="31.957219"
     inkscape:cy="29.090909"
     inkscape:window-width="1920"
     inkscape:window-height="994"
     inkscape:window-x="0"
     inkscape:window-y="0"
     inkscape:window-maximized="1"
     inkscape:current-layer="svg14" />
  <g
     id="g14"
     transform="translate(-0.41503899,-0.9097503)">
    <path
       style="fill:#3476cc;stroke-width:0.979395"
       d="M 25.348837,3.9133546 A 5.8755155,5.8781697 0 0 0 19.760768,8.8189921 L 11.92753,51.92126 a 5.8755155,5.8781697 0 1 0 11.558615,2.104603 l 7.83324,-43.102271 A 5.8755155,5.8781697 0 0 0 25.348837,3.9133546 Z"
       id="path1" />
    <path
       style="fill:#7cce44;stroke-width:0.979395"
       d="M 44.931929,3.9133546 A 5.8755155,5.8781697 0 0 0 39.343863,8.8189921 L 31.510624,51.92126 a 5.8755155,5.8781697 0 1 0 11.558617,2.104603 L 50.902477,10.923592 A 5.8755155,5.8781697 0 0 0 44.931929,3.9133546 Z"
       id="path2" />
    <path
       style="fill:#e4e4e4;stroke-width:0.979395"
       d="m 13.790222,15.748876 a 5.8755155,5.8781697 0 1 0 0,11.755163 h 39.166184 a 5.8755155,5.8781697 0 1 0 0,-11.755163 z"
       id="path3" />
    <path
       style="fill:#f56666;stroke-width:0.979395"
       d="m 9.8736013,33.38162 a 5.8755155,5.8781697 0 1 0 0,11.755165 H 49.039787 a 5.8755155,5.8781697 0 1 0 0,-11.755165 z"
       id="path4" />
    <path
       style="fill:#7cce44;stroke-width:0.979395"
       d="M 38.085495,15.748876 35.947419,27.504039 H 47.888514 L 50.026591,15.748876 Z"
       id="path5" />
    <path
       style="fill:#3476cc;stroke-width:0.979395"
       d="M 15.2972,33.38162 13.159124,45.136785 H 25.100223 L 27.238299,33.38162 Z"
       id="path6" />
    <path
       style="opacity:0.2;stroke-width:0.979395"
       d="m 31.405441,10.292938 a 5.8755155,5.8781697 0 0 1 -0.08609,0.631392 l -0.877814,4.825358 h 0.179771 l 0.698047,-3.845746 a 5.8755155,5.8781697 0 0 0 0.08609,-1.611004 z m -3.100067,17.210191 -4.819356,26.522252 a 5.8755155,5.8781697 0 0 1 -11.652514,-0.4458 5.8755155,5.8781697 0 0 0 11.652514,1.425411 l 4.999124,-27.501863 z"
       id="path7" />
    <path
       style="opacity:0.2;stroke-width:0.979395"
       d="m 50.988852,10.292938 a 5.8755155,5.8781697 0 0 1 -0.0861,0.631392 l -4.081138,22.456476 h 0.177858 l 3.9033,-21.476864 a 5.8755155,5.8781697 0 0 0 0.0861,-1.611004 z m -6.303409,34.843222 -1.616016,8.889221 a 5.8755155,5.8781697 0 0 1 -11.65251,-0.430496 5.8755155,5.8781697 0 0 0 11.65251,1.410107 L 44.8633,45.13616 Z"
       id="path8" />
    <path
       style="opacity:0.2;stroke-width:0.979395"
       d="m 7.8575386,22.084645 a 5.8755155,5.8781697 0 0 0 5.9323944,6.398097 h 21.979705 l 0.177855,-0.979613 H 13.789933 A 5.8755155,5.8781697 0 0 1 7.8575386,22.084645 Z m 51.0316144,0.06317 a 5.8755155,5.8781697 0 0 1 -5.932398,5.355345 h -5.067971 l -0.177857,0.979613 h 5.245828 a 5.8755155,5.8781697 0 0 0 5.932398,-6.334958 z"
       id="path9" />
    <path
       style="opacity:0.2;stroke-width:0.979395"
       d="m 3.9408562,39.717676 a 5.8755155,5.8781697 0 0 0 5.9323968,6.398096 h 3.109631 L 13.16074,45.13616 H 9.873253 A 5.8755155,5.8781697 0 0 1 3.9408562,39.717676 Z m 51.0316148,0.06317 a 5.8755155,5.8781697 0 0 1 -5.932397,5.355341 H 25.102031 l -0.177856,0.979611 h 24.115899 a 5.8755155,5.8781697 0 0 0 5.932397,-6.334954 z"
       id="path10" />
    <path
       style="opacity:0.2;fill:#ffffff;stroke-width:0.979395"
       d="m 25.348739,3.913975 a 5.8755155,5.8781697 0 0 0 -5.58816,4.9057171 L 18.50028,15.749688 h 0.179771 l 1.080528,-5.9503832 a 5.8755155,5.8781697 0 0 1 5.58816,-4.9057174 5.8755155,5.8781697 0 0 1 6.056702,5.3993506 5.8755155,5.8781697 0 0 0 -6.056702,-6.378963 z m -8.984656,23.589154 -4.436867,24.417613 a 5.8755155,5.8781697 0 0 0 -0.09368,1.658839 5.8755155,5.8781697 0 0 1 0.09368,-0.679223 l 4.616638,-25.397229 z"
       id="path11" />
    <path
       style="opacity:0.2;fill:#ffffff;stroke-width:0.979395"
       d="M 44.932148,3.913975 A 5.8755155,5.8781697 0 0 0 39.343991,8.8196921 L 34.880347,33.380806 h 0.177861 L 39.343991,9.7993048 A 5.8755155,5.8781697 0 0 1 44.932148,4.8935874 5.8755155,5.8781697 0 0 1 50.988852,10.292938 5.8755155,5.8781697 0 0 0 44.932148,3.913975 Z M 32.744154,45.13616 31.510626,51.920742 a 5.8755155,5.8781697 0 0 0 -0.09368,1.674143 5.8755155,5.8781697 0 0 1 0.09368,-0.694527 l 1.411383,-7.764198 z"
       id="path12" />
    <path
       style="opacity:0.2;fill:#ffffff;stroke-width:0.979395"
       d="m 13.789933,15.749688 a 5.8755155,5.8781697 0 0 0 -5.9323944,6.334957 5.8755155,5.8781697 0 0 1 5.9323944,-5.357256 h 24.117814 l 0.175944,-0.977701 z m 36.235049,0 -0.175945,0.977701 h 3.107718 a 5.8755155,5.8781697 0 0 1 5.932398,5.420396 5.8755155,5.8781697 0 0 0 -5.932398,-6.398097 z"
       id="path13" />
    <path
       style="opacity:0.2;fill:#ffffff;stroke-width:0.979395"
       d="m 9.873253,33.380806 a 5.8755155,5.8781697 0 0 0 -5.9323968,6.33687 5.8755155,5.8781697 0 0 1 5.9323968,-5.357258 h 5.245831 l 0.177855,-0.979612 z m 17.364976,0 -0.177858,0.979612 h 21.979703 a 5.8755155,5.8781697 0 0 1 5.932397,5.420399 5.8755155,5.8781697 0 0 0 -5.932397,-6.400011 z"
       id="path14" />
  </g>
</svg>
