<?xml version="1.0" encoding="UTF-8" standalone="no"?>
<svg
   width="62"
   height="62"
   version="1.1"
   viewBox="0 0 62 62"
   id="svg4"
   sodipodi:docname="com.github.paolostivanin.OTPClient.svg"
   inkscape:version="1.4 (e7c3feb100, 2024-10-09)"
   xmlns:inkscape="http://www.inkscape.org/namespaces/inkscape"
   xmlns:sodipodi="http://sodipodi.sourceforge.net/DTD/sodipodi-0.dtd"
   xmlns="http://www.w3.org/2000/svg"
   xmlns:svg="http://www.w3.org/2000/svg">
  <defs
     id="defs4" />
  <sodipodi:namedview
     id="namedview4"
     pagecolor="#ffffff"
     bordercolor="#000000"
     borderopacity="0.25"
     inkscape:showpageshadow="2"
     inkscape:pageopacity="0.0"
     inkscape:pagecheckerboard="0"
     inkscape:deskcolor="#d1d1d1"
     inkscape:zoom="11.6875"
     inkscape:cx="31.957219"
     inkscape:cy="32.256684"
     inkscape:window-width="1920"
     inkscape:window-height="994"
     inkscape:window-x="0"
     inkscape:window-y="0"
     inkscape:window-maximized="1"
     inkscape:current-layer="svg4" />
  <g
     id="g4"
     transform="matrix(1.037037,0,0,1.037037,-2.185184,-2.185184)">
    <circle
       cx="32"
       cy="32"
       r="27"
       fill="#fa6e6e"
       stroke-width="1.1739"
       id="circle1" />
    <circle
       cx="32"
       cy="32"
       r="22"
       fill="#ffffff"
       stroke-width="0.95652"
       id="circle2" />
    <path
       d="m 32.006,14.391 c -0.35234,0 -3.2447,-0.13289 -6.069,1.2427 -2.1611,1.0525 -0.56385,4.2513 1.5728,3.1503 1.8736,-0.96613 3.6743,-0.87104 4.4961,-0.87104 7.8651,0 14.087,6.2217 14.087,14.087 1.03e-4,7.8652 -6.2219,14.087 -14.087,14.087 -7.8651,0 -14.086,-6.2214 -14.087,-14.087 -1.65e-4,-0.82082 -0.09454,-2.6219 0.87127,-4.4962 1.1011,-2.1368 -2.0978,-3.7339 -3.1503,-1.5728 -1.375,2.8244 -1.2422,5.7158 -1.2421,6.0691 0.0019,9.7431 7.8653,17.609 17.609,17.609 9.7434,0 17.609,-7.8652 17.609,-17.609 -1.27e-4,-9.7435 -7.8653,-17.609 -17.609,-17.609 z"
       fill="#fa6e6e"
       stroke-width="1.1739"
       id="path2" />
    <rect
       x="29.652"
       y="22.608999"
       width="4.6957002"
       height="18.783001"
       ry="2.3478"
       fill="#65b5f7"
       stroke-width="1.1739"
       style="paint-order:stroke fill markers"
       id="rect2" />
    <rect
       transform="rotate(-120)"
       x="-46.061001"
       y="2.3215001"
       width="4.6957002"
       height="18.783001"
       ry="2.3478"
       fill="#65b5f7"
       stroke-width="1.1739"
       style="paint-order:stroke fill markers"
       id="rect3" />
    <rect
       transform="rotate(120)"
       x="9.3649998"
       y="-53.105"
       width="4.6957002"
       height="18.783001"
       ry="2.3478"
       fill="#65b5f7"
       stroke-width="1.1739"
       style="paint-order:stroke fill markers"
       id="rect4" />
  </g>
</svg>
