<?xml version="1.0" encoding="UTF-8" standalone="no"?>
<svg
   width="62"
   height="62"
   version="1.1"
   id="svg5"
   sodipodi:docname="paraview.svg"
   inkscape:version="1.4 (unknown)"
   xmlns:inkscape="http://www.inkscape.org/namespaces/inkscape"
   xmlns:sodipodi="http://sodipodi.sourceforge.net/DTD/sodipodi-0.dtd"
   xmlns="http://www.w3.org/2000/svg"
   xmlns:svg="http://www.w3.org/2000/svg">
  <defs
     id="defs5" />
  <sodipodi:namedview
     id="namedview5"
     pagecolor="#ffffff"
     bordercolor="#000000"
     borderopacity="0.25"
     inkscape:showpageshadow="2"
     inkscape:pageopacity="0.0"
     inkscape:pagecheckerboard="0"
     inkscape:deskcolor="#d1d1d1"
     inkscape:zoom="12.109375"
     inkscape:cx="32"
     inkscape:cy="32"
     inkscape:window-width="1920"
     inkscape:window-height="998"
     inkscape:window-x="0"
     inkscape:window-y="0"
     inkscape:window-maximized="1"
     inkscape:current-layer="svg5" />
  <g
     id="g5"
     transform="matrix(0.96549413,0,0,0.99999999,0.10441511,-0.99999971)">
    <path
       style="opacity:0.2"
       d="m 13.371094,13 a 2.1384888,2.4128552 0 0 0 -2.064453,1.779297 L 3.0742188,48.953125 A 2.1384888,2.4128552 0 0 0 5.1386719,52 h 9.4921871 a 2.1384888,2.4128552 0 0 0 2.0625,-1.78125 L 24.925781,16.044922 A 2.1384888,2.4128552 0 0 0 22.863281,13 Z m 18,0 a 2.1384888,2.4128552 0 0 0 -2.064453,1.779297 L 21.074219,48.953125 A 2.1384888,2.4128552 0 0 0 23.138672,52 h 9.492187 a 2.1384888,2.4128552 0 0 0 2.0625,-1.78125 L 42.925781,16.044922 A 2.1384888,2.4128552 0 0 0 40.863281,13 Z m 18,0 a 2.1384889,2.4128552 0 0 0 -2.064453,1.779297 L 39.074219,48.953125 A 2.1384889,2.4128552 0 0 0 41.138672,52 h 9.492187 a 2.1384889,2.4128552 0 0 0 2.0625,-1.78125 L 60.925781,16.044922 A 2.1384889,2.4128552 0 0 0 58.863281,13 Z"
       id="path1" />
    <path
       style="fill:#c83771"
       d="m 13.371746,12.000001 a 2.1384888,2.4128552 0 0 0 -2.065191,1.778831 L 3.0750318,47.953604 A 2.1384888,2.4128552 0 0 0 5.1381339,51 h 9.4927721 a 2.1384888,2.4128552 0 0 0 2.063101,-1.781187 L 24.925534,15.04404 a 2.1384888,2.4128552 0 0 0 -2.063101,-3.044039 z"
       id="path2" />
    <path
       style="fill:#2a7fff"
       d="m 49.371747,12.000001 a 2.1384889,2.4128552 0 0 0 -2.065191,1.778831 L 39.075033,47.953604 A 2.1384889,2.4128552 0 0 0 41.138135,51 h 9.492773 a 2.1384889,2.4128552 0 0 0 2.063101,-1.781187 L 60.925535,15.04404 a 2.1384889,2.4128552 0 0 0 -2.063101,-3.044039 z"
       id="path3" />
    <path
       style="fill:#2ca05a"
       d="m 31.371748,12.000001 a 2.1384888,2.4128552 0 0 0 -2.065191,1.77883 L 21.075033,47.953604 A 2.1384888,2.4128552 0 0 0 23.138136,51 h 9.492772 a 2.1384888,2.4128552 0 0 0 2.063101,-1.781187 l 8.231526,-34.174774 a 2.1384888,2.4128552 0 0 0 -2.0631,-3.044038 z"
       id="path4" />
    <path
       style="opacity:0.2;fill:#ffffff"
       d="m 13.371094,12 a 2.1384888,2.4128552 0 0 0 -2.064453,1.779297 L 3.0742188,47.953125 a 2.1384888,2.4128552 0 0 0 -0.027344,1.138672 2.1384888,2.4128552 0 0 1 0.027344,-0.138672 L 11.306641,14.779297 A 2.1384888,2.4128552 0 0 1 13.371094,13 h 9.492187 A 2.1384888,2.4128552 0 0 1 24.951172,14.910156 2.1384888,2.4128552 0 0 0 22.863281,12 Z m 18,0 a 2.1384888,2.4128552 0 0 0 -2.064453,1.779297 l -8.232422,34.173828 a 2.1384888,2.4128552 0 0 0 -0.02734,1.138672 2.1384888,2.4128552 0 0 1 0.02734,-0.138672 L 29.306641,14.779297 A 2.1384888,2.4128552 0 0 1 31.371094,13 h 9.492187 A 2.1384888,2.4128552 0 0 1 42.951172,14.910156 2.1384888,2.4128552 0 0 0 40.863281,12 Z m 18,0 a 2.1384889,2.4128552 0 0 0 -2.064453,1.779297 l -8.232422,34.173828 a 2.1384889,2.4128552 0 0 0 -0.02734,1.138672 2.1384889,2.4128552 0 0 1 0.02734,-0.138672 L 47.306641,14.779297 A 2.1384889,2.4128552 0 0 1 49.371094,13 h 9.492187 A 2.1384889,2.4128552 0 0 1 60.951172,14.910156 2.1384889,2.4128552 0 0 0 58.863281,12 Z"
       id="path5" />
  </g>
</svg>
