<?xml version="1.0" encoding="UTF-8" standalone="no"?>
<svg
   width="62"
   height="62"
   version="1.1"
   id="svg3"
   sodipodi:docname="gcr-password.svg"
   inkscape:version="1.4 (e7c3feb100, 2024-10-09)"
   xmlns:inkscape="http://www.inkscape.org/namespaces/inkscape"
   xmlns:sodipodi="http://sodipodi.sourceforge.net/DTD/sodipodi-0.dtd"
   xmlns:xlink="http://www.w3.org/1999/xlink"
   xmlns="http://www.w3.org/2000/svg"
   xmlns:svg="http://www.w3.org/2000/svg">
  <defs
     id="defs3">
    <linearGradient
       id="linearGradient5"
       inkscape:collect="always">
      <stop
         style="stop-color:#b7c6cd;stop-opacity:1;"
         offset="0"
         id="stop5" />
      <stop
         style="stop-color:#eff2f6;stop-opacity:1;"
         offset="1"
         id="stop6" />
    </linearGradient>
    <linearGradient
       id="linearGradient3"
       inkscape:collect="always">
      <stop
         style="stop-color:#eff2f6;stop-opacity:1;"
         offset="0"
         id="stop3" />
      <stop
         style="stop-color:#b7c6cd;stop-opacity:1;"
         offset="1"
         id="stop4" />
    </linearGradient>
    <linearGradient
       id="linearGradient1"
       inkscape:collect="always">
      <stop
         style="stop-color:#008080;stop-opacity:1"
         offset="0"
         id="stop1" />
      <stop
         style="stop-color:#16d96f;stop-opacity:1;"
         offset="1"
         id="stop2" />
    </linearGradient>
    <linearGradient
       id="paint584_linear_890_11"
       x1="496"
       y1="294"
       x2="482.5"
       y2="307.5"
       gradientUnits="userSpaceOnUse"
       gradientTransform="translate(-454.00025,-257.70022)">
      <stop
         offset="0.284815"
         stop-color="#71706E"
         id="stop1911" />
      <stop
         offset="0.744047"
         stop-color="#B9AA99"
         id="stop1912" />
    </linearGradient>
    <linearGradient
       id="paint585_linear_890_11"
       x1="493"
       y1="299"
       x2="455"
       y2="261"
       gradientUnits="userSpaceOnUse"
       gradientTransform="translate(-454.00025,-257.70022)">
      <stop
         offset="0.151316"
         stop-color="#2E2E41"
         id="stop1913" />
      <stop
         offset="1"
         stop-color="#566C80"
         id="stop1914" />
    </linearGradient>
    <linearGradient
       id="paint586_linear_890_11"
       x1="481.15799"
       y1="286.60699"
       x2="479.504"
       y2="284.953"
       gradientUnits="userSpaceOnUse"
       gradientTransform="translate(-454.00025,-257.70022)">
      <stop
         offset="0.252542"
         stop-color="#71706E"
         id="stop1915" />
      <stop
         offset="1"
         stop-color="#B9AA99"
         id="stop1916" />
    </linearGradient>
    <linearGradient
       inkscape:collect="always"
       xlink:href="#linearGradient1"
       id="linearGradient2"
       x1="6.6710439"
       y1="8.7595587"
       x2="38.999748"
       y2="41.299774"
       gradientUnits="userSpaceOnUse" />
    <linearGradient
       inkscape:collect="always"
       xlink:href="#linearGradient3"
       id="linearGradient4"
       x1="25.220249"
       y1="27.520275"
       x2="26.779249"
       y2="29.079275"
       gradientUnits="userSpaceOnUse"
       gradientTransform="matrix(1.782374,0,0,1.7561619,-19.34153,-20.03028)" />
    <linearGradient
       inkscape:collect="always"
       xlink:href="#linearGradient5"
       id="linearGradient6"
       x1="33.964001"
       y1="50.062645"
       x2="48.476955"
       y2="36.738277"
       gradientUnits="userSpaceOnUse" />
    <linearGradient
       id="paint690_linear_890_11"
       x1="191"
       y1="173"
       x2="201"
       y2="183"
       gradientUnits="userSpaceOnUse"
       gradientTransform="matrix(0.30000007,0,0,0.30000007,-34.300011,-0.90001113)">
      <stop
         stop-color="#F15700"
         id="stop2123" />
      <stop
         offset="1"
         stop-color="#FF0000"
         id="stop2124" />
    </linearGradient>
  </defs>
  <sodipodi:namedview
     id="namedview3"
     pagecolor="#ffffff"
     bordercolor="#000000"
     borderopacity="0.25"
     inkscape:showpageshadow="2"
     inkscape:pageopacity="0.0"
     inkscape:pagecheckerboard="0"
     inkscape:deskcolor="#d1d1d1"
     inkscape:zoom="11.78125"
     inkscape:cx="22.196286"
     inkscape:cy="31.660477"
     inkscape:window-width="1920"
     inkscape:window-height="994"
     inkscape:window-x="0"
     inkscape:window-y="0"
     inkscape:window-maximized="1"
     inkscape:current-layer="svg3" />
  <g
     id="g1"
     transform="translate(2.00025,-0.2997752)">
    <path
       d="m 31.42775,42.779775 -10.428,-9.48 9,-10 26.414,26.414 c 0.375,0.375 0.586,0.884 0.586,1.414 v 6.172 c 0,1.105 -0.895,2 -2,2 h -6.172 c -0.53,0 -1.039,-0.211 -1.414,-0.586 l -3.828,-3.828 c -0.375,-0.375 -0.586,-0.884 -0.586,-1.414 v -0.672 c 0,-0.828 -0.672,-1.5 -1.5,-1.5 -0.828,0 -1.5,-0.672 -1.5,-1.5 0,-0.828 -0.672,-1.5 -1.5,-1.5 h -0.672 c -0.53,0 -1.039,-0.211 -1.414,-0.586 l -0.828,-0.828 c -0.375,-0.375 -0.586,-0.884 -0.586,-1.414 v -0.172 c 0,-1.105 -0.895,-2 -2,-2 h -0.227 c -0.497,0 -0.977,-0.185 -1.345,-0.52 z"
       id="path571"
       style="fill:url(#linearGradient6)" />
    <path
       fill-rule="evenodd"
       clip-rule="evenodd"
       d="m 38.99975,22.299775 c 0,10.493 -8.507,19 -19,19 -10.493,0 -19,-8.507 -19,-19 0,-10.493 8.507,-18.9999996 19,-18.9999996 10.493,0 19,8.5069996 19,18.9999996 z m -25,-2 c 2.209,0 4,-1.791 4,-4 0,-2.209 -1.791,-4 -4,-4 -2.209,0 -4,1.791 -4,4 0,2.209 1.791,4 4,4 z"
       id="path572"
       style="fill:url(#linearGradient2)" />
    <path
       d="m 18.663582,37.882281 c -0.768194,-0.755153 -0.768194,-1.980958 0,-2.737865 L 32.557188,21.455134 c 0.768205,-0.756897 2.012306,-0.756897 2.77873,0 0.768194,0.755152 0.768194,1.980958 0,2.737865 L 21.442312,37.882281 c -0.768205,0.756897 -2.012307,0.756897 -2.77873,0 z"
       id="path573"
       style="fill:url(#linearGradient4);stroke-width:1.76922" />
  </g>
  <rect
     x="21.5"
     y="33.806366"
     width="3"
     height="3"
     rx="1.5"
     id="rect670"
     style="fill:#282828;fill-opacity:1" />
  <rect
     x="24.5"
     y="30.806366"
     width="3"
     height="3"
     rx="1.5"
     id="rect670-6"
     style="fill:#282828;fill-opacity:1" />
  <rect
     x="27.5"
     y="27.868933"
     width="3"
     height="3"
     rx="1.5"
     id="rect670-62"
     style="fill:#282828;fill-opacity:1" />
  <rect
     x="30.5"
     y="25"
     width="3"
     height="3"
     rx="1.5"
     id="rect670-1"
     style="fill:#282828;fill-opacity:1" />
  <rect
     x="33.511936"
     y="22"
     width="3"
     height="3"
     rx="1.5"
     id="rect670-7"
     style="fill:#282828;fill-opacity:1" />
</svg>
