<?xml version="1.0" encoding="UTF-8" standalone="no"?>
<svg
   height="62"
   width="62"
   version="1.1"
   id="svg248"
   sodipodi:docname="pattern-selinux.svg"
   inkscape:version="1.4 (e7c3feb100, 2024-10-09)"
   xmlns:inkscape="http://www.inkscape.org/namespaces/inkscape"
   xmlns:sodipodi="http://sodipodi.sourceforge.net/DTD/sodipodi-0.dtd"
   xmlns:xlink="http://www.w3.org/1999/xlink"
   xmlns="http://www.w3.org/2000/svg"
   xmlns:svg="http://www.w3.org/2000/svg">
  <defs
     id="defs252">
    <linearGradient
       gradientTransform="matrix(1.049963,0,0,1.0499041,-509.66281,-498.54986)"
       gradientUnits="userSpaceOnUse"
       x2="426.69501"
       y2="499.92099"
       y1="547.67499"
       id="a-6"
       x1="389.32001">
      <stop
         stop-color="#18222a"
         style="stop-color:#1e2b35;stop-opacity:1"
         id="stop216-3" />
      <stop
         stop-color="#566069"
         offset="1"
         style="stop-color:#6d7983;stop-opacity:1"
         id="stop218" />
    </linearGradient>
    <linearGradient
       id="c-3"
       gradientTransform="matrix(2.0428665,-6.8308524,5.7819337,2.3633129,25.219113,34.652812)"
       gradientUnits="userSpaceOnUse"
       x1="24"
       x2="24"
       y1="35"
       y2="13">
      <stop
         offset="0"
         stop-color="#23a2cd"
         id="stop253" />
      <stop
         offset=".53"
         stop-color="#00b8f5"
         id="stop255" />
      <stop
         offset="1"
         stop-color="#2ecbff"
         id="stop257" />
    </linearGradient>
    <linearGradient
       id="linearGradient768"
       gradientUnits="userSpaceOnUse"
       x1="27"
       x2="25.42725"
       y1="28"
       y2="32.71825"
       gradientTransform="translate(-58.575692,-29.333333)">
      <stop
         offset="0"
         stop-color="#b1621e"
         id="stop231-6" />
      <stop
         offset="1"
         stop-color="#ffa21d"
         id="stop233-7" />
    </linearGradient>
    <linearGradient
       id="linearGradient773"
       gradientTransform="matrix(2.0428665,-6.8308524,5.7819337,2.3633129,-33.356582,5.3194785)"
       gradientUnits="userSpaceOnUse"
       x1="24"
       x2="24"
       y1="35"
       y2="13">
      <stop
         offset="0"
         stop-color="#cd7223"
         id="stop224-5"
         style="stop-color:#ffb380;stop-opacity:1" />
      <stop
         offset=".53"
         stop-color="#f48e00"
         id="stop226-3" />
      <stop
         offset="1"
         stop-color="#ffa92d"
         id="stop228-5" />
    </linearGradient>
    <linearGradient
       id="a-5"
       y1="542.79999"
       y2="503.79999"
       x2="0"
       gradientUnits="userSpaceOnUse">
      <stop
         stop-color="#f39c12"
         id="stop2-62" />
      <stop
         offset="1"
         stop-color="#f5ab35"
         id="stop4-9" />
    </linearGradient>
    <linearGradient
       id="c-2"
       y1="523.79999"
       y2="549.79999"
       x2="0"
       gradientUnits="userSpaceOnUse"
       gradientTransform="matrix(0.70711,-0.70711,0.70711,0.70711,-635.28,-57.48)">
      <stop
         id="stop12-7" />
      <stop
         offset="1"
         stop-opacity="0"
         id="stop14-0" />
    </linearGradient>
    <linearGradient
       xlink:href="#a-5"
       id="f-9"
       x1="391.57001"
       x2="461.20001"
       gradientUnits="userSpaceOnUse"
       gradientTransform="translate(250.71,-442.32)" />
    <linearGradient
       id="linearGradient467"
       y1="542.79999"
       y2="503.79999"
       x2="0"
       gradientUnits="userSpaceOnUse">
      <stop
         stop-color="#f39c12"
         id="stop463" />
      <stop
         offset="1"
         stop-color="#f5ab35"
         id="stop465" />
    </linearGradient>
    <linearGradient
       xlink:href="#c-2"
       id="d-3"
       y1="520.94"
       x1="410.88"
       y2="532.63"
       x2="422.57001"
       gradientUnits="userSpaceOnUse"
       gradientTransform="translate(-384.57,-499.8)" />
    <linearGradient
       id="linearGradient474"
       y1="523.79999"
       y2="549.79999"
       x2="0"
       gradientUnits="userSpaceOnUse"
       gradientTransform="matrix(0.70711,-0.70711,0.70711,0.70711,-635.28,-57.48)">
      <stop
         id="stop470" />
      <stop
         offset="1"
         stop-opacity="0"
         id="stop472" />
    </linearGradient>
    <linearGradient
       id="e-6"
       y1="543.79999"
       x1="428.57001"
       y2="503.79999"
       x2="388.57001"
       gradientUnits="userSpaceOnUse">
      <stop
         stop-color="#f39c12"
         id="stop18-0" />
      <stop
         offset="1"
         stop-color="#ffc35a"
         id="stop20-6" />
    </linearGradient>
    <linearGradient
       id="b-2"
       y1="55.41"
       x1="41.528"
       y2="25.511"
       x2="24.264999"
       gradientUnits="userSpaceOnUse">
      <stop
         stop-color="#f7bb5d"
         id="stop7-6" />
      <stop
         offset="1"
         stop-color="#fce3bc"
         id="stop9-1" />
    </linearGradient>
    <linearGradient
       inkscape:collect="always"
       xlink:href="#a-6"
       id="linearGradient938"
       gradientUnits="userSpaceOnUse"
       gradientTransform="matrix(1.049963,0,0,1.0499041,-553.7984,-532.93969)"
       x1="389.32001"
       y1="547.67499"
       x2="426.69501"
       y2="499.92099" />
  </defs>
  <sodipodi:namedview
     id="namedview250"
     pagecolor="#ffffff"
     bordercolor="#666666"
     borderopacity="1.0"
     inkscape:showpageshadow="2"
     inkscape:pageopacity="0.0"
     inkscape:pagecheckerboard="0"
     inkscape:deskcolor="#d1d1d1"
     showgrid="false"
     inkscape:zoom="4.9166667"
     inkscape:cx="63.559322"
     inkscape:cy="51.864406"
     inkscape:window-width="1920"
     inkscape:window-height="994"
     inkscape:window-x="0"
     inkscape:window-y="0"
     inkscape:window-maximized="1"
     inkscape:current-layer="svg248" />
  <linearGradient
     id="a"
     gradientUnits="userSpaceOnUse"
     x1="23"
     x2="37"
     y1="20"
     y2="34"
     gradientTransform="translate(101.15619,-17.700891)">
    <stop
       offset="0"
       stop-color="#292c2f"
       id="stop214" />
    <stop
       offset="1"
       stop-opacity="0"
       id="stop216" />
  </linearGradient>
  <linearGradient
     id="b"
     gradientUnits="userSpaceOnUse"
     x1="44"
     x2="4"
     y1="44"
     y2="4"
     gradientTransform="translate(101.15619,-17.700891)">
    <stop
       offset="0"
       stop-color="#172525"
       id="stop219" />
    <stop
       offset="1"
       stop-color="#536161"
       id="stop221" />
  </linearGradient>
  <linearGradient
     id="c"
     gradientTransform="matrix(2.0428665,-6.8308524,5.7819337,2.3633129,-33.356582,5.3194785)"
     gradientUnits="userSpaceOnUse"
     x1="24"
     x2="24"
     y1="35"
     y2="13">
    <stop
       offset="0"
       stop-color="#cd7223"
       id="stop224" />
    <stop
       offset=".53"
       stop-color="#f48e00"
       id="stop226" />
    <stop
       offset="1"
       stop-color="#ffa92d"
       id="stop228" />
  </linearGradient>
  <linearGradient
     id="d"
     gradientUnits="userSpaceOnUse"
     x1="27"
     x2="25.42725"
     y1="28"
     y2="32.71825"
     gradientTransform="translate(-58.575692,-29.333333)">
    <stop
       offset="0"
       stop-color="#b1621e"
       id="stop231" />
    <stop
       offset="1"
       stop-color="#ffa21d"
       id="stop233" />
  </linearGradient>
  <g
     id="g1"
     transform="matrix(1.3333241,0,0,1.3333241,-135.41632,8.3358758)">
    <rect
       width="41.998524"
       x="-145.81282"
       y="-3.998085"
       rx="20.999262"
       height="41.99617"
       transform="scale(-1,1)"
       style="display:inline;overflow:visible;fill:url(#linearGradient938);stroke-width:2.93982;stroke-opacity:0.55"
       id="rect223-2"
       ry="20.998085" />
    <path
       style="display:inline;overflow:visible;opacity:0.3;fill:#000000;fill-opacity:1;stroke-width:2.93982;stroke-opacity:0.55"
       d="m 103.82599,16.475176 c -0.004,0.17503 -0.0126,0.34906 -0.0126,0.52509 0,11.63302 9.36569,20.99809 20.99921,20.99809 11.63351,0 20.99936,-9.36507 20.99936,-20.99809 0,-0.17603 -0.008,-0.34906 -0.0126,-0.52509 -0.2773,11.38829 -9.53377,20.47312 -20.98675,20.47312 -11.45719,0 -20.70945,-9.08483 -20.9866,-20.47312"
       id="path225-9" />
    <path
       d="m 103.82599,17.521246 c -0.004,-0.17503 -0.0126,-0.34806 -0.0126,-0.52508 0,-11.63293 9.36569,-20.9981003 20.99921,-20.9981003 11.63351,0 20.99936,9.3651703 20.99936,20.9981003 0,0.17602 -0.008,0.35005 -0.0126,0.52508 -0.2773,-11.38829 -9.53377,-20.4731203 -20.98675,-20.4731203 -11.45719,0 -20.70945,9.0848303 -20.9866,20.4731203"
       style="display:inline;overflow:visible;opacity:0.3;fill:#ffffff;fill-opacity:1;stroke-width:2.93982;stroke-opacity:0.55"
       id="path229-1" />
    <path
       style="opacity:0.2"
       d="m 115.81356,6 v 2 h 6 v 2 h -8 v 6 h -2 v -6 h -2 v 14 h 2 v -6 h 2 v 6 l 4,4 h 13 l 2,-2 h 3 v 2 h 2 l 2,-1.9996 v -12 l -2,-2.0004 h -2 v 2 l -1.75002,4e-4 -4,-4 h -6.25 v -2 l 6,-4e-4 V 6 Z m 0,6 h 13 l 4,4 h 5 v 8 h -6 l -2,2 h -10.75 l -3.25,-3.4 z"
       id="path2" />
    <path
       style="fill:#ffa92c"
       d="m 115.81356,5.00005 v 2 h 6 v 2 h -8 v 6 h -2 v -6 h -2 v 14 h 2 v -6 h 2 v 6 l 4,4 h 13 l 2,-2 h 3 v 2 h 2 l 2,-1.9996 v -12 l -2,-2.0004 h -2 v 2 l -1.75002,4e-4 -4,-4 h -6.25 v -2 l 6,-4e-4 v -2 z m 0,6 h 13 l 4,4 h 5 v 8 h -6 l -2,2 h -10.75 l -3.25,-3.4 z"
       id="path3-3" />
  </g>
</svg>
