<?xml version="1.0" encoding="UTF-8" standalone="no"?>
<svg
   version="1"
   viewBox="0 0 62 62"
   width="62"
   height="62"
   id="svg53"
   sodipodi:docname="pattern-sway-openSUSE.svg"
   inkscape:version="1.4 (e7c3feb100, 2024-10-09)"
   xmlns:inkscape="http://www.inkscape.org/namespaces/inkscape"
   xmlns:sodipodi="http://sodipodi.sourceforge.net/DTD/sodipodi-0.dtd"
   xmlns:xlink="http://www.w3.org/1999/xlink"
   xmlns="http://www.w3.org/2000/svg"
   xmlns:svg="http://www.w3.org/2000/svg">
  <sodipodi:namedview
     id="namedview55"
     pagecolor="#ffffff"
     bordercolor="#666666"
     borderopacity="1.0"
     inkscape:showpageshadow="2"
     inkscape:pageopacity="0.0"
     inkscape:pagecheckerboard="0"
     inkscape:deskcolor="#d1d1d1"
     showgrid="false"
     inkscape:zoom="7.375"
     inkscape:cx="45.627119"
     inkscape:cy="41.355932"
     inkscape:window-width="1920"
     inkscape:window-height="994"
     inkscape:window-x="0"
     inkscape:window-y="0"
     inkscape:window-maximized="1"
     inkscape:current-layer="svg53" />
  <defs
     id="defs13">
    <linearGradient
       id="a"
       x1="-50.450001"
       x2="-50.450001"
       y1="-0.040987"
       y2="-22.041"
       gradientUnits="userSpaceOnUse">
      <stop
         stop-color="#26a269"
         offset="0"
         id="stop2" />
      <stop
         stop-color="#26a269"
         offset=".071429"
         id="stop4" />
      <stop
         stop-color="#57e389"
         offset=".21429"
         id="stop6" />
      <stop
         stop-color="#26a269"
         offset=".46429"
         id="stop8" />
      <stop
         stop-color="#26a269"
         offset="1"
         id="stop10" />
    </linearGradient>
    <linearGradient
       inkscape:collect="always"
       xlink:href="#a"
       id="linearGradient622-3"
       gradientUnits="userSpaceOnUse"
       x1="-50.450001"
       y1="-0.040987"
       x2="-50.450001"
       y2="-22.041"
       gradientTransform="matrix(2.4576495,0,0,2.5454546,64.988419,-2.895635)" />
  </defs>
  <circle
     cx="132.21774"
     cy="-37.050457"
     r="0"
     fill="#3d3846"
     opacity="0.3"
     id="circle49" />
  <rect
     transform="matrix(0,-1,-1,0,0,0)"
     x="-59"
     y="-59"
     width="54.068291"
     height="56"
     rx="27.034145"
     ry="28"
     fill="url(#a)"
     id="rect15-2"
     style="fill:url(#linearGradient622-3);stroke-width:1.37564" />
  <rect
     transform="matrix(0,-1,-1,0,0,0)"
     x="-57.068291"
     y="-59"
     width="54.068291"
     height="56"
     rx="27.034145"
     ry="28"
     fill="#33d17a"
     id="rect17-9"
     style="stroke-width:1.37564" />
  <path
     d="M 39.30269,36.799239 24.166366,38.104321 9.0334434,36.800282 24.166366,42.363641 Z M 7,37.198716 v 1.959631 l 17.165966,6.325738 17.151967,-6.325738 v -1.953452 l -16.954762,6.231503 a 0.55459184,0.53546127 0 0 1 -0.394249,0 z"
     id="path21-2"
     style="fill:#070c0f;stroke-width:0.149009" />
  <path
     d="M 24.166366,42.936121 7,36.625638 c 0,0 1.1373443,-0.4246 1.3496488,-0.497806 1.0160217,-0.36605 2.0926442,-0.673512 3.0784652,-1.083474 2.047244,-0.878494 4.291692,-1.434868 6.53594,-1.464162 1.288987,-0.01448 2.487053,0.366031 3.74568,0.175687 1.455811,-0.234256 2.850861,-0.761356 4.306692,-1.039543 2.638656,-0.483169 5.201511,0.175687 7.642963,1.112749 2.502253,0.951699 4.943706,1.800918 7.460959,2.723362 0.07582,0.02928 0.136483,0.04391 0.212305,0.07321 z"
     id="path23-7"
     style="fill:#000000;fill-opacity:1;stroke-width:0.149009" />
  <path
     d="m 12.62612,36.94793 c -0.212305,-4.597447 4.610098,-7.071897 8.173775,-8.960658 3.108666,-1.639849 6.990949,-3.777523 6.187132,-7.774606 -0.166824,-0.834562 -1.486132,-0.483169 -1.319329,0.351393 0.363948,1.830193 -0.712735,3.221187 -2.153446,4.275348 -1.698436,1.244524 -3.654678,2.122998 -5.504717,3.133324 -3.412073,1.874124 -6.945348,4.831684 -6.763344,8.975334 0.0455,0.8492 1.41031,0.8492 1.379989,0 z"
     id="path25-0"
     style="fill:#070c0f;stroke-width:0.149009" />
  <path
     d="m 18.600248,29.407174 c 4.731301,0.9517 9.720607,-0.409962 13.223482,-3.631149 0.636913,-0.585649 -0.333627,-1.522731 -0.970541,-0.937062 -3.123867,2.899087 -7.642963,4.158133 -11.889054,3.294374 -0.849218,-0.161069 -1.228346,1.098111 -0.363947,1.273818 z"
     id="path27-9"
     style="fill:#070c0f;stroke-width:0.149009" />
  <path
     d="m 18.600248,19.815641 c 1.243506,0.292825 3.351471,-1.098111 4.291691,-1.537368 1.213166,-0.571012 2.471853,-1.010268 3.700079,-1.537368 0.47011,-0.204981 2.001643,-0.673512 2.016843,-1.332387 0.03032,-0.819924 -1.592294,-0.863856 -2.123045,-0.805287 -1.076683,0.102487 -2.123045,0.4246 -3.154267,0.717444 -1.061523,0.307481 -2.092645,0.717443 -3.078466,1.229887 -0.743076,0.380687 -1.759098,1.054199 -2.198847,1.756986 -0.272966,0.4246 -0.257806,1.0542 0.166823,1.347024 0.106143,0.07321 0.227465,0.131756 0.379109,0.16105 z"
     id="path29-3"
     style="fill:#070c0f;stroke-width:0.149009" />
  <path
     d="m 26.21441,17.590877 c 0.212305,-0.117136 0.424609,-0.219619 0.636914,-0.322119 1.759097,-0.805287 3.791081,-1.464162 5.792923,-1.610574 1.743938,-0.131765 3.669879,-0.439237 5.398716,0.01454 0.894719,0.234256 1.88042,1.068837 1.41031,1.874124 -0.348788,0.600306 -1.774258,1.405593 -2.396051,1.84483 -2.289849,1.566643 -5.489518,2.254889 -8.41638,2.401263 -2.123045,0.117137 -5.61092,-1.0542 -3.669878,-3.265022 0.318446,-0.380688 0.773396,-0.673512 1.243506,-0.937062 z"
     id="path31-6"
     style="fill:#070c0f;stroke-width:0.149009" />
  <path
     d="m 37.890659,19.435224 c 0.485271,0.01468 1.046363,0.131756 1.273828,0.556375 0.181963,0.351393 0.04548,0.775993 -0.212305,1.068837 -0.272966,0.292824 -0.636914,0.453893 -1.016022,0.600306 -1.88042,0.761355 -3.897283,1.215249 -5.929326,1.347024 -0.561092,0.02927 -1.152505,0.04391 -1.698436,-0.131775 -0.545932,-0.175687 -1.031202,-0.571012 -1.182846,-1.098112 -0.333627,-1.215249 2.426252,-1.610574 3.169468,-1.742349 0.743076,-0.131794 1.486132,-0.219618 2.229248,-0.248912 1.122183,-0.07321 2.214047,-0.395325 3.366471,-0.351394 z"
     id="path33-0"
     style="fill:#070c0f;stroke-width:0.149009" />
  <path
     d="m 37.632654,27.400812 c -0.743056,-1.771624 -5.216711,0.175706 -6.232733,0.805287 -0.379108,0.234275 -0.773397,0.585668 -0.697575,1.010268 0.07582,0.453894 0.636914,0.658875 1.122184,0.717444 1.167685,0.146412 6.672542,-0.439237 5.808124,-2.532961 z"
     id="path35-6"
     style="fill:#070c0f;stroke-width:0.149009" />
  <path
     d="m 23.574354,21.661727 c -0.181964,1.171318 -1.819759,2.459773 -2.911662,2.8259 -1.061523,0.36605 -2.835861,-0.395325 -2.183647,-1.639849 0.576252,-1.083474 3.427273,-3.016109 4.6707,-2.225536 0.363947,0.219618 0.48527,0.658874 0.424609,1.039562 z"
     id="path37-2"
     style="fill:#070c0f;stroke-width:0.149009" />
  <path
     d="m 26.728421,27.487709 c 1.743937,0.204981 3.533276,-0.01448 5.17111,-0.614943 0.363948,-0.131775 0.743076,-0.307482 0.89472,-0.658875 0.106142,-0.26355 0.03032,-0.585669 -0.181964,-0.776013 -0.212305,-0.190343 -0.545932,-0.248912 -0.803737,-0.131774 -0.485271,-0.512463 -1.334489,-0.468531 -2.047244,-0.336757 -1.122184,0.219638 -2.229248,0.614944 -3.245269,1.127406 -0.363948,0.190344 -0.773397,0.512463 -0.667255,0.893131 0.106143,0.336756 0.515591,0.453894 0.879559,0.497825 z"
     id="path39-6"
     style="fill:#070c0f;stroke-width:0.149009" />
  <path
     d="m 28.746464,26.126318 c 2.305049,0.497805 4.837503,-0.146413 6.808946,-1.376299 0.257805,-0.161069 0.545931,-0.409963 0.50043,-0.717444 -0.06066,-0.366031 -0.545931,-0.483168 -0.94022,-0.468531 -2.244448,0.02928 -4.519096,0.571012 -6.475338,1.669124 -0.227465,0.117137 -0.47011,0.322118 -0.409449,0.556374 0.07582,0.204981 0.318467,0.292825 0.515591,0.336756 z"
     id="path41-1"
     style="fill:#070c0f;stroke-width:0.149009" />
  <path
     d="m 17.206218,23.169878 c 0.212304,-0.248913 0.394288,-0.556375 0.303286,-0.849219 -0.424609,-1.625211 -2.714458,0.483169 -3.260469,0.966337 -0.697575,0.614943 -0.667255,1.156681 0.47011,1.156681 0.925039,-0.01448 1.91074,-0.614944 2.487053,-1.273818 z"
     id="path43-8"
     style="fill:#070c0f;stroke-width:0.149009" />
  <path
     d="M 46.558492,23.001 A 8.9519843,8.9998418 0 0 0 39.511,26.468375 c 1.091876,0.293288 1.86468,0.545334 2.096163,0.623512 0.0046,-0.142812 0.02719,-1.41966 0.02719,-1.41966 0,0 0.0012,-0.02926 0.01882,-0.04446 0.02121,-0.01966 0.04899,-0.01338 0.04899,-0.01338 0.287172,0.04186 6.41702,0.955293 9.000821,2.469045 0.319106,0.18772 0.476576,0.387196 0.673384,0.589479 0.714233,0.74264 1.658047,3.830585 1.759314,4.467391 0.0046,0.02493 -0.02674,0.05217 -0.0399,0.06242 h -2.85e-4 c -0.07317,0.05753 -0.153127,0.117473 -0.233222,0.170886 -0.611381,0.412365 -2.019822,1.403588 -3.826825,1.241769 -1.623142,-0.14433 -3.743849,-1.080421 -6.300415,-2.77387 0.251367,0.59166 0.499018,1.185151 0.746802,1.778367 0.370239,0.193378 3.943746,2.023931 5.707409,1.988189 1.420549,-0.02969 2.939844,-0.726337 3.547548,-1.094102 0,0 0.133488,-0.08082 0.191761,-0.03572 0.06362,0.04941 0.04607,0.125053 0.03095,0.202365 -0.03759,0.175375 -0.122504,0.495424 -0.180454,0.647334 l -0.04899,0.123776 c -0.06939,0.18741 -0.136327,0.361577 -0.265119,0.468851 -0.358069,0.327306 -0.929506,0.587731 -1.824933,0.978989 -1.384098,0.608694 -3.629651,0.995809 -5.714574,0.98249 -0.74674,-0.0161 -1.4681,-0.100063 -2.101667,-0.174378 -1.300075,-0.147557 -2.357818,-0.267281 -3.002851,0.201734 A 8.9519843,8.9998418 0 0 0 46.559048,41.001 8.9519843,8.9998418 0 0 0 55.511,32.001149 8.9519843,8.9998418 0 0 0 46.559001,23.00131 Z m 1.996674,5.221969 c -0.700659,-0.02276 -1.36886,0.226111 -1.881063,0.706917 -0.511999,0.479213 -0.804975,1.132516 -0.830935,1.836478 -0.04852,1.452196 1.085707,2.675915 2.528921,2.729403 0.703864,0.02376 1.37056,-0.224999 1.882852,-0.708664 0.510686,-0.477712 0.803706,-1.131044 0.83097,-1.835061 0.04949,-1.450904 -1.085917,-2.6772 -2.530745,-2.729136 z m -0.02121,0.776683 c 1.009741,0.03603 1.800259,0.888789 1.766241,1.90359 -0.01647,0.489411 -0.220978,0.943099 -0.577683,1.279534 -0.357243,0.334889 -0.824165,0.509029 -1.31403,0.494146 -1.007392,-0.03733 -1.797938,-0.891103 -1.763921,-1.906165 0.01414,-0.49124 0.224278,-0.944956 0.579421,-1.279857 0.355164,-0.334883 0.819831,-0.508981 1.310062,-0.491224 z m 0.299242,0.922882 c -0.448651,0 -0.811012,0.242743 -0.811012,0.544735 0,0.29914 0.362373,0.543267 0.811012,0.543267 0.448395,0 0.812175,-0.244157 0.812175,-0.543267 0,-0.301992 -0.363533,-0.544735 -0.812175,-0.544735 z"
     id="path51-7"
     style="fill:#212128;fill-opacity:1;stroke-width:1.28225" />
</svg>
