<?xml version="1.0" encoding="UTF-8" standalone="no"?>
<svg
   height="62"
   width="62"
   version="1.1"
   id="svg16"
   sodipodi:docname="pattern-basis-devel.svg"
   inkscape:version="1.4 (e7c3feb100, 2024-10-09)"
   xmlns:inkscape="http://www.inkscape.org/namespaces/inkscape"
   xmlns:sodipodi="http://sodipodi.sourceforge.net/DTD/sodipodi-0.dtd"
   xmlns:xlink="http://www.w3.org/1999/xlink"
   xmlns="http://www.w3.org/2000/svg"
   xmlns:svg="http://www.w3.org/2000/svg">
  <defs
     id="defs20">
    <linearGradient
       gradientTransform="matrix(1.0499636,0,0,1.0499041,-504.98598,-505.93779)"
       gradientUnits="userSpaceOnUse"
       x2="426.69501"
       y2="499.92099"
       y1="547.67499"
       id="a-6"
       x1="389.32001">
      <stop
         stop-color="#18222a"
         style="stop-color:#1e2b35;stop-opacity:1"
         id="stop216" />
      <stop
         stop-color="#566069"
         offset="1"
         style="stop-color:#6d7983;stop-opacity:1"
         id="stop218" />
    </linearGradient>
    <filter
       id="d-7"
       x="-0.035999998"
       y="-0.036000062"
       width="1.072"
       height="1.0720001"
       color-interpolation-filters="sRGB">
      <feGaussianBlur
         stdDeviation="9"
         id="feGaussianBlur238-5" />
    </filter>
    <linearGradient
       id="linearGradient1432"
       gradientUnits="userSpaceOnUse"
       x1="66"
       x2="66"
       y1="66"
       y2="38"
       gradientTransform="matrix(1.5,0,0,1.5,-12.152542,-12.711864)">
      <stop
         offset="0"
         stop-color="#afb0b3"
         id="stop7-9" />
      <stop
         offset="1"
         stop-color="#bdc3c7"
         id="stop9-1" />
    </linearGradient>
    <linearGradient
       id="linearGradient1436"
       gradientUnits="userSpaceOnUse"
       x1="66"
       x2="66"
       y1="63"
       y2="41"
       gradientTransform="matrix(1.5,0,0,1.5,-12.152542,-12.711864)">
      <stop
         offset="0"
         stop-color="#c0392b"
         id="stop2-2" />
      <stop
         offset="1"
         stop-color="#e74c3c"
         id="stop4-7" />
    </linearGradient>
    <linearGradient
       inkscape:collect="always"
       xlink:href="#a"
       id="linearGradient1441"
       gradientUnits="userSpaceOnUse"
       gradientTransform="matrix(2,0,0,2,-101,-72.999998)"
       x1="66"
       y1="66"
       x2="66"
       y2="38" />
    <linearGradient
       inkscape:collect="always"
       xlink:href="#b"
       id="linearGradient1443"
       gradientUnits="userSpaceOnUse"
       gradientTransform="matrix(2,0,0,2,-101,-72.999998)"
       x1="66"
       y1="63"
       x2="66"
       y2="41" />
  </defs>
  <sodipodi:namedview
     id="namedview18"
     pagecolor="#ffffff"
     bordercolor="#666666"
     borderopacity="1.0"
     inkscape:showpageshadow="2"
     inkscape:pageopacity="0.0"
     inkscape:pagecheckerboard="0"
     inkscape:deskcolor="#d1d1d1"
     showgrid="false"
     inkscape:zoom="5.2149125"
     inkscape:cx="51.870477"
     inkscape:cy="37.392765"
     inkscape:window-width="1920"
     inkscape:window-height="994"
     inkscape:window-x="0"
     inkscape:window-y="0"
     inkscape:window-maximized="1"
     inkscape:current-layer="svg16" />
  <linearGradient
     id="b"
     gradientUnits="userSpaceOnUse"
     x1="66"
     x2="66"
     y1="63"
     y2="41"
     gradientTransform="matrix(1.5,0,0,1.5,-12.152542,-12.711864)">
    <stop
       offset="0"
       stop-color="#c0392b"
       id="stop2" />
    <stop
       offset="1"
       stop-color="#e74c3c"
       id="stop4" />
  </linearGradient>
  <linearGradient
     id="a"
     gradientUnits="userSpaceOnUse"
     x1="66"
     x2="66"
     y1="66"
     y2="38"
     gradientTransform="matrix(1.5,0,0,1.5,-12.152542,-12.711864)">
    <stop
       offset="0"
       stop-color="#afb0b3"
       id="stop7" />
    <stop
       offset="1"
       stop-color="#bdc3c7"
       id="stop9" />
  </linearGradient>
  <path
     d="M 31,3 A 28,28 0 0 0 25,3.672 V 7.79 a 24,24 0 0 0 -6.168,2.554 L 15.926,7.438 a 28,28 0 0 0 -8.508,8.468 l 2.926,2.926 A 24,24 0 0 0 7.78,25 H 3.679999 a 28,28 0 0 0 -0.68,6 28,28 0 0 0 0.672,6 H 7.79 a 24,24 0 0 0 2.554,6.168 l -2.906,2.906 a 28,28 0 0 0 8.468,8.508 l 2.926,-2.926 A 24,24 0 0 0 25,54.22 v 4.1 A 28,28 0 0 0 31,59 28,28 0 0 0 37,58.328 V 54.21 a 24,24 0 0 0 6.168,-2.554 l 2.906,2.906 a 28,28 0 0 0 8.508,-8.468 L 51.656,43.168 A 24,24 0 0 0 54.22,37 h 4.1 A 28,28 0 0 0 59,31 28,28 0 0 0 58.328,25 H 54.21 a 24,24 0 0 0 -2.554,-6.168 l 2.906,-2.906 A 28,28 0 0 0 46.094,7.418 l -2.926,2.926 A 24,24 0 0 0 37,7.78 V 3.68 A 28,28 0 0 0 31,3 Z M 46.094,7.418 A 28,28 0 0 0 37.082,3.704 28,28 0 0 1 46.094,7.418 Z M 58.328,25 A 28,28 0 0 0 54.652,16.08 28,28 0 0 1 58.328,25 Z m -3.746,21.094 a 28,28 0 0 0 3.714,-9.012 28,28 0 0 1 -3.714,9.012 z M 37,58.328 A 28,28 0 0 0 45.92,54.652 28,28 0 0 1 37,58.328 Z M 15.906,54.582 a 28,28 0 0 0 9.012,3.714 28,28 0 0 1 -9.012,-3.714 z M 3.671999,37 A 28,28 0 0 0 7.348,45.92 28,28 0 0 1 3.671999,37 Z M 7.418,15.906 A 28,28 0 0 0 3.704,24.918 28,28 0 0 1 7.418,15.906 Z M 25,3.672 A 28,28 0 0 0 16.08,7.348 28,28 0 0 1 25,3.672 Z"
     fill="url(#a)"
     id="path12-0"
     style="fill:url(#linearGradient1441);stroke-width:2" />
  <path
     d="M 31,9 A 22,22 0 0 0 15.94,15 H 35 V 9.38 A 22,22 0 0 0 31,9 Z m 8,1.508 V 15 h 7.08 A 22,22 0 0 0 39,10.508 Z M 12.57,19 A 22,22 0 0 0 9.11,29 H 23 V 19 Z M 27,19 V 29 H 52.9 A 22,22 0 0 0 49.414,19 Z M 9.1,33 a 22,22 0 0 0 3.486,10 H 35 V 33 Z M 39,33 V 43 H 49.43 A 22,22 0 0 0 52.89,33 Z M 15.92,47 A 22,22 0 0 0 23,51.492 V 47 Z M 27,47 v 5.62 A 22,22 0 0 0 31,53 22,22 0 0 0 46.06,47 Z"
     fill="url(#b)"
     id="path14-9"
     style="fill:url(#linearGradient1443);stroke-width:2" />
</svg>
