<?xml version="1.0" encoding="UTF-8" standalone="no"?>
<svg
   version="1.1"
   viewBox="0 0 62 62.000008"
   id="svg31"
   sodipodi:docname="pattern-cinnamon.svg"
   inkscape:version="1.4 (e7c3feb100, 2024-10-09)"
   width="62"
   height="62.000008"
   xmlns:inkscape="http://www.inkscape.org/namespaces/inkscape"
   xmlns:sodipodi="http://sodipodi.sourceforge.net/DTD/sodipodi-0.dtd"
   xmlns:xlink="http://www.w3.org/1999/xlink"
   xmlns="http://www.w3.org/2000/svg"
   xmlns:svg="http://www.w3.org/2000/svg"
   xmlns:rdf="http://www.w3.org/1999/02/22-rdf-syntax-ns#"
   xmlns:cc="http://creativecommons.org/ns#"
   xmlns:dc="http://purl.org/dc/elements/1.1/">
  <sodipodi:namedview
     id="namedview33"
     pagecolor="#ffffff"
     bordercolor="#666666"
     borderopacity="1.0"
     inkscape:showpageshadow="2"
     inkscape:pageopacity="0.0"
     inkscape:pagecheckerboard="0"
     inkscape:deskcolor="#d1d1d1"
     showgrid="false"
     inkscape:zoom="7.375"
     inkscape:cx="16.881356"
     inkscape:cy="40.40678"
     inkscape:window-width="1920"
     inkscape:window-height="994"
     inkscape:window-x="0"
     inkscape:window-y="0"
     inkscape:window-maximized="1"
     inkscape:current-layer="svg31" />
  <metadata
     id="metadata2">
    <rdf:RDF>
      <cc:Work
         rdf:about="">
        <dc:format>image/svg+xml</dc:format>
        <dc:type
           rdf:resource="http://purl.org/dc/dcmitype/StillImage" />
      </cc:Work>
    </rdf:RDF>
  </metadata>
  <defs
     id="defs19">
    <linearGradient
       id="e"
       x1="8.4461002"
       x2="24.603001"
       y1="6.2688999"
       y2="24.570999"
       gradientUnits="userSpaceOnUse"
       gradientTransform="translate(0.254427,-38.49298)">
      <stop
         stop-opacity=".2088"
         offset="0"
         id="stop4" />
      <stop
         stop-opacity="0"
         offset="1"
         id="stop6" />
    </linearGradient>
    <linearGradient
       id="c"
       x1="30"
       x2="0.14963"
       y1="30"
       y2="0.069732003"
       gradientUnits="userSpaceOnUse"
       gradientTransform="translate(-45.111585,-25.7642)">
      <stop
         stop-color="#da6125"
         offset="0"
         id="stop9" />
      <stop
         stop-color="#e17d4a"
         offset="1"
         id="stop11" />
    </linearGradient>
    <linearGradient
       id="d"
       x1="7.8488002"
       x2="14.108"
       y1="3.5121"
       y2="14.183"
       gradientUnits="userSpaceOnUse"
       gradientTransform="translate(0.254427,-38.49298)">
      <stop
         stop-opacity=".2088"
         offset="0"
         id="stop14" />
      <stop
         stop-opacity="0"
         offset="1"
         id="stop16" />
    </linearGradient>
    <linearGradient
       gradientTransform="matrix(1.0419659,0,0,1.0394363,-514.65937,-497.73258)"
       gradientUnits="userSpaceOnUse"
       x2="426.69501"
       y2="499.92099"
       y1="547.67499"
       id="a-6"
       x1="389.32001">
      <stop
         stop-color="#18222a"
         style="stop-color:#1e2b35;stop-opacity:1"
         id="stop216" />
      <stop
         stop-color="#566069"
         offset="1"
         style="stop-color:#6d7983;stop-opacity:1"
         id="stop218" />
    </linearGradient>
    <linearGradient
       id="e-5"
       gradientUnits="userSpaceOnUse"
       x1="21.923"
       x2="23.538"
       xlink:href="#a"
       y1="22.462"
       y2="24.077" />
    <linearGradient
       id="a">
      <stop
         offset="0"
         stop-color="#292c2f"
         id="stop32" />
      <stop
         offset="1"
         stop-opacity="0"
         id="stop34" />
    </linearGradient>
    <linearGradient
       id="f-9"
       gradientUnits="userSpaceOnUse"
       x1="28.385"
       x2="28.385"
       xlink:href="#c-3"
       y1="27.846001"
       y2="3.615" />
    <linearGradient
       id="c-3">
      <stop
         offset="0"
         stop-color="#bf4231"
         id="stop22" />
      <stop
         offset="1"
         stop-color="#e05e4c"
         id="stop24" />
    </linearGradient>
    <linearGradient
       id="g-7"
       gradientUnits="userSpaceOnUse"
       x1="28.385"
       x2="28.385"
       xlink:href="#b"
       y1="27.846001"
       y2="3.615" />
    <linearGradient
       id="b">
      <stop
         offset="0"
         stop-color="#eff0f1"
         id="stop27" />
      <stop
         offset="1"
         stop-color="#fcfcfc"
         id="stop29" />
    </linearGradient>
    <linearGradient
       id="h-3"
       gradientUnits="userSpaceOnUse"
       x1="9.5380001"
       x2="23"
       xlink:href="#a"
       y1="10.615"
       y2="24.077" />
    <linearGradient
       id="i-6"
       gradientUnits="userSpaceOnUse"
       x1="12.769"
       x2="25.691999"
       xlink:href="#a"
       y1="7.3850002"
       y2="20.308001" />
    <linearGradient
       id="j-0"
       gradientUnits="userSpaceOnUse"
       x1="32"
       x2="32"
       xlink:href="#b"
       y1="54"
       y2="9" />
    <linearGradient
       id="k-6"
       gradientUnits="userSpaceOnUse"
       x1="32"
       x2="32"
       xlink:href="#c-3"
       y1="54"
       y2="9" />
    <linearGradient
       id="l-2"
       gradientUnits="userSpaceOnUse"
       x1="37"
       x2="37"
       y1="46"
       y2="38">
      <stop
         offset="0"
         stop-color="#be4434"
         id="stop5-6" />
      <stop
         offset=".25"
         stop-color="#c44837"
         id="stop7-1" />
      <stop
         offset="1"
         stop-color="#cb4c3b"
         id="stop9-8" />
    </linearGradient>
    <linearGradient
       xlink:href="#linearGradient4435"
       id="linearGradient4389-3-5"
       y1="524.79797"
       y2="515.79797"
       x2="0"
       gradientUnits="userSpaceOnUse"
       gradientTransform="matrix(1.3624978,0,0,1.3624978,-528.67725,-680.90488)" />
    <linearGradient
       id="linearGradient4435">
      <stop
         style="stop-color:#c61423"
         id="stop15" />
      <stop
         offset="1"
         style="stop-color:#dc2b41"
         id="stop17" />
    </linearGradient>
    <linearGradient
       inkscape:collect="always"
       xlink:href="#a-6"
       id="linearGradient771"
       gradientUnits="userSpaceOnUse"
       gradientTransform="matrix(1.0419659,0,0,1.0394363,-404.89151,-515.93707)"
       x1="389.32001"
       y1="547.67499"
       x2="426.69501"
       y2="499.92099" />
    <linearGradient
       inkscape:collect="always"
       xlink:href="#e"
       id="linearGradient773"
       gradientUnits="userSpaceOnUse"
       gradientTransform="matrix(1.4885848,0,0,1.4850551,-44.317034,5.150279)"
       x1="8.4461002"
       y1="6.2688999"
       x2="24.603001"
       y2="24.570999" />
    <linearGradient
       inkscape:collect="always"
       xlink:href="#d"
       id="linearGradient775"
       gradientUnits="userSpaceOnUse"
       gradientTransform="matrix(1.4885848,0,0,1.4850551,-44.317034,5.150279)"
       x1="7.8488002"
       y1="3.5121"
       x2="14.108"
       y2="14.183" />
  </defs>
  <g
     id="g1"
     transform="matrix(1.3330793,0,0,1.3333333,58.5443,-7.302725)">
    <rect
       width="41.678638"
       x="-0.01359598"
       y="7.7309461"
       rx="20.839319"
       height="41.577457"
       transform="scale(-1,1)"
       style="display:inline;fill:url(#linearGradient771);stroke-width:2.91396;stroke-opacity:0.55"
       id="rect223-6"
       ry="20.788729" />
    <path
       style="display:inline;opacity:0.3;fill:#000000;fill-opacity:1;stroke-width:2.91396;stroke-opacity:0.55"
       d="m -41.653664,28 c -0.0039,0.173279 -0.0125,0.345575 -0.0125,0.519848 0,11.517041 9.294359,20.788741 20.839255,20.788741 C -9.282,49.308589 0.0125,40.036889 0.0125,28.519848 0.0125,28.345575 0.0045,28.174273 0,28 -0.2752,39.274746 -9.46115,48.268992 -20.826896,48.268992 -32.196817,48.268992 -41.378602,39.274746 -41.653651,28"
       id="path225-2" />
    <path
       d="m -41.653664,29.035634 c -0.0039,-0.173279 -0.0125,-0.344583 -0.0125,-0.519848 0,-11.516942 9.294359,-20.788739 20.839255,-20.788739 11.544909,0 20.839409,9.271797 20.839409,20.788739 0,0.174273 -0.008,0.346566 -0.0125,0.519848 C -0.2752,17.760893 -9.46115,8.766643 -20.826896,8.766643 c -11.369921,0 -20.551706,8.99425 -20.826755,20.268991"
       style="display:inline;opacity:0.3;fill:#ffffff;fill-opacity:1;stroke-width:2.91396;stroke-opacity:0.55"
       id="path229-9" />
    <path
       d="m -10.743501,18.520228 c 0,0 4.326421,14.506909 2.954101,15.597533 -1.37242,1.090966 -12.709689,-10.502012 -12.709689,-10.502012 l -10.532779,15.682182 10.473235,10.404592 c 7.711167,0.07234 13.621893,-0.03839 13.621893,-0.03839 3.32475,-0.242079 6.91254,-0.64695 7.27858,-6.885458 V 29.532726 Z"
       id="path25-5-1"
       style="fill:url(#linearGradient773);stroke-width:1.48682" />
    <path
       d="m -10.743501,18.520228 c 0,0 -9.886882,-5.793645 -18.2694,-0.395024 -8.382965,5.39862 -2.019116,21.17243 -2.019116,21.17243 l 10.383473,0.953301 c 19.804124,1.777759 13.467374,5.22383 13.336534,-9.540588 z"
       fill="url(#d)"
       id="path27-6-2"
       style="fill:url(#linearGradient775);stroke-width:1.48682" />
    <path
       d="m -20.879274,14.410784 c -8.027044,0 -14.534839,6.492364 -14.534839,14.500374 0,8.009199 6.507795,14.500375 14.534839,14.500375 8.028235,0 14.534834,-6.491027 14.534834,-14.500375 0,-8.00801 -6.506451,-14.500374 -14.534834,-14.500374 z m 0,2.472468 c 6.659482,0 12.056354,5.384067 12.056354,12.027758 0,1.021822 -0.13975,2.007943 -0.38017,2.95526 l -5.734468,-6.358709 -7.331577,8.321357 3.537472,-7.060546 -1.767546,-3.152177 -10.422176,11.948901 c -1.27146,-1.906068 -2.014353,-4.19335 -2.014353,-6.654235 0,-6.64369 5.396863,-12.027758 12.056345,-12.027758 z"
       fill="#ffffff"
       stroke-width="1.2624"
       id="path29-2-7" />
  </g>
</svg>
