<?xml version="1.0" encoding="UTF-8" standalone="no"?>
<svg
   clip-rule="evenodd"
   fill-rule="evenodd"
   stroke-linejoin="round"
   stroke-miterlimit="2"
   viewBox="0 0 62 62"
   version="1.1"
   id="svg10"
   sodipodi:docname="pattern-vulkan-devel.svg"
   width="62"
   height="62"
   inkscape:version="1.4 (e7c3feb100, 2024-10-09)"
   xmlns:inkscape="http://www.inkscape.org/namespaces/inkscape"
   xmlns:sodipodi="http://sodipodi.sourceforge.net/DTD/sodipodi-0.dtd"
   xmlns:xlink="http://www.w3.org/1999/xlink"
   xmlns="http://www.w3.org/2000/svg"
   xmlns:svg="http://www.w3.org/2000/svg">
  <defs
     id="defs10">
    <linearGradient
       id="linearGradient10"
       inkscape:collect="always">
      <stop
         style="stop-color:#6c7884;stop-opacity:1;"
         offset="0"
         id="stop10" />
      <stop
         style="stop-color:#515862;stop-opacity:1;"
         offset="1"
         id="stop11" />
    </linearGradient>
    <linearGradient
       inkscape:collect="always"
       xlink:href="#linearGradient10"
       id="linearGradient11"
       x1="31"
       y1="59"
       x2="31"
       y2="3"
       gradientUnits="userSpaceOnUse" />
  </defs>
  <sodipodi:namedview
     id="namedview10"
     pagecolor="#ffffff"
     bordercolor="#000000"
     borderopacity="0.25"
     inkscape:showpageshadow="2"
     inkscape:pageopacity="0.0"
     inkscape:pagecheckerboard="0"
     inkscape:deskcolor="#d1d1d1"
     inkscape:zoom="7.8541667"
     inkscape:cx="7.9575596"
     inkscape:cy="62.896551"
     inkscape:window-width="1920"
     inkscape:window-height="994"
     inkscape:window-x="0"
     inkscape:window-y="0"
     inkscape:window-maximized="1"
     inkscape:current-layer="svg10" />
  <linearGradient
     id="a"
     x2="1"
     gradientTransform="matrix(0,-46.799983,46.799983,0,632.48571,54.413883)"
     gradientUnits="userSpaceOnUse">
    <stop
       stop-color="#566069"
       offset="0"
       id="stop1" />
    <stop
       stop-color="#6c7884"
       offset="1"
       id="stop2" />
  </linearGradient>
  <path
     d="M 50.952003,3 C 55.394683,3 59,6.6053166 59,11.047997 V 50.952003 C 59,55.394683 55.394683,59 50.952003,59 H 11.047997 C 6.6053166,59 3,55.394683 3,50.952003 V 11.047997 C 3,6.6053166 6.6053166,3 11.047997,3 Z"
     id="path2"
     style="fill:url(#linearGradient11);fill-opacity:0.5" />
  <path
     d="M 3,12.376408 V 11.047997 C 3,6.6053166 6.6053166,3 11.047997,3 H 50.952003 C 55.394683,3 59,6.6053166 59,11.047997 v 1.328411 z"
     fill-opacity="0.1"
     id="path3"
     style="stroke-width:1.29223;fill:#e5e5e5;fill-opacity:0.1" />
  <path
     d="m 13.286797,12.376408 c -1.353365,0 -2.443296,1.086014 -2.443296,2.434512 v 7.301546 c 0,1.348498 1.089931,2.434508 2.443296,2.434508 h 14.453016 c 1.353366,0 2.443297,-1.08601 2.443297,-2.434508 V 14.81092 c 0,-1.348498 -1.089931,-2.434512 -2.443297,-2.434512 z m 21.375356,0 c -1.353365,0 -2.443295,1.086014 -2.443295,2.434512 v 7.301546 c 0,1.348498 1.08993,2.434508 2.443295,2.434508 h 14.452994 c 1.353362,0 2.443294,-1.08601 2.443294,-2.434508 V 14.81092 c 0,-1.348498 -1.089932,-2.434512 -2.443294,-2.434512 z M 22.447664,26.575403 c -1.353365,0 -2.443296,1.086009 -2.443296,2.434508 v 7.301543 c 0,1.348498 1.089931,2.434507 2.443296,2.434507 h 14.452993 c 1.353366,0 2.443306,-1.086009 2.443306,-2.434507 v -7.301543 c 0,-1.348499 -1.08994,-2.434508 -2.443306,-2.434508 z m 21.375335,0 c -1.353362,0 -2.443295,1.086009 -2.443295,2.434508 v 7.301543 c 0,1.348498 1.089933,2.434507 2.443295,2.434507 h 7.735442 V 26.575403 Z M 13.286797,40.774392 c -1.353365,0 -2.443296,1.08601 -2.443296,2.434508 v 7.301545 c 0,1.348494 1.089931,2.434507 2.443296,2.434507 h 14.453016 c 1.353366,0 2.443297,-1.086013 2.443297,-2.434507 V 43.2089 c 0,-1.348498 -1.089931,-2.434508 -2.443297,-2.434508 z m 21.375356,0 c -1.353365,0 -2.443295,1.08601 -2.443295,2.434508 v 7.301545 c 0,1.348494 1.08993,2.434507 2.443295,2.434507 h 14.452994 c 1.353362,0 2.443294,-1.086013 2.443294,-2.434507 V 43.2089 c 0,-1.348498 -1.089932,-2.434508 -2.443294,-2.434508 z"
     id="path2-6"
     style="fill:#c83771;fill-opacity:1;stroke-width:0.999999" />
  <path
     d="m 28.147362,12.418007 v 8.072113 c 0,1.123747 -0.907944,2.028428 -2.035749,2.028428 H 10.88525 c 0.194083,1.152608 1.188042,2.028426 2.401547,2.028426 h 14.453016 c 1.353366,0 2.443297,-1.08601 2.443297,-2.434508 V 14.81092 c 0,-1.209141 -0.878981,-2.19953 -2.035748,-2.392913 z m 21.375331,0 v 8.072113 c 0,1.123747 -0.907937,2.028428 -2.035741,2.028428 H 32.260607 c 0.194082,1.152608 1.188043,2.028426 2.401546,2.028426 h 14.452994 c 1.353362,0 2.443294,-1.08601 2.443294,-2.434508 V 14.81092 c 0,-1.209141 -0.878974,-2.19953 -2.035748,-2.392913 z M 37.308208,26.617002 v 8.072112 c 0,1.123748 -0.907934,2.028424 -2.035733,2.028424 H 20.046118 c 0.194079,1.152612 1.188042,2.028423 2.401546,2.028423 h 14.452993 c 1.353366,0 2.443306,-1.086009 2.443306,-2.434507 v -7.301543 c 0,-1.209142 -0.878982,-2.19953 -2.035755,-2.392909 z m 4.113245,10.100536 c 0.194078,1.152612 1.188045,2.028423 2.401546,2.028423 h 7.735442 V 36.717538 Z M 28.147362,40.81599 v 8.072108 c 0,1.123748 -0.907944,2.028431 -2.035749,2.028431 H 10.88525 c 0.194083,1.152608 1.188042,2.028423 2.401547,2.028423 h 14.453016 c 1.353366,0 2.443297,-1.086013 2.443297,-2.434507 V 43.2089 c 0,-1.209139 -0.878981,-2.199527 -2.035748,-2.39291 z m 21.375331,0 v 8.072108 c 0,1.123748 -0.907937,2.028431 -2.035741,2.028431 H 32.260607 c 0.194082,1.152608 1.188043,2.028423 2.401546,2.028423 h 14.452994 c 1.353362,0 2.443294,-1.086013 2.443294,-2.434507 V 43.2089 c 0,-1.209139 -0.878974,-2.199527 -2.035748,-2.39291 z"
     fill="#101010"
     opacity="0.23"
     id="path3-7"
     style="opacity:0.439825;fill:#a5a5a5;fill-opacity:1;stroke-width:0.999999" />
  <rect
     fill="#eff0f1"
     height="17.099998"
     ry="2.1374996"
     width="17.099998"
     x="37.2225"
     y="37.266998"
     id="rect216-6-5-6"
     style="stroke-width:1.06875" />
  <path
     d="m 44.722552,39.070996 -0.77734,2.332 a 5,5 0 0 0 -0.267581,0.10938 l -2.197299,-1.0977 -1.4141,1.414099 1.0996,2.1992 a 5,5 0 0 0 -0.115231,0.265621 l -2.3281,0.77734 v 2 l 2.332,0.777339 a 5,5 0 0 0 0.109381,0.26758 l -1.0977,2.1973 1.4141,1.4141 2.1992,-1.099599 a 5,5 0 0 0 0.26562,0.115229 l 0.777339,2.328101 h 2 l 0.77734,-2.332 a 5,5 0 0 0 0.267581,-0.10938 l 2.1973,1.0977 1.414099,-1.4141 -1.0996,-2.1992 a 5,5 0 0 0 0.11523,-0.26562 l 2.3281,-0.77734 v -2 l -2.332,-0.77734 a 5,5 0 0 0 -0.10938,-0.267581 l 1.0977,-2.1973 -1.414099,-1.414099 -2.199201,1.0996 a 5,5 0 0 0 -0.26562,-0.11523 l -0.777339,-2.3281 z m 1,3 a 4,4 0 0 0 -0.33789,0.01758 4,4 0 0 1 0.33789,-0.01758 z m 0.33789,0.01758 a 4,4 0 0 1 0.210939,0.02539 4,4 0 0 0 -0.210939,-0.02539 z m -0.88672,0.02539 a 4,4 0 0 0 -0.18555,0.02734 4,4 0 0 1 0.18555,-0.02734 z m 1.2832,0.02734 a 4,4 0 0 1 0.22266,0.05078 4,4 0 0 0 -0.22266,-0.05078 z m -1.6914,0.05078 a 4,4 0 0 0 -0.1543,0.03906 4,4 0 0 1 0.1543,-0.03906 z m 2.068399,0.03906 a 4,4 0 0 1 0.21484,0.07031 4,4 0 0 0 -0.21484,-0.07031 z m -2.4375,0.07031 a 4,4 0 0 0 -0.179689,0.06641 4,4 0 0 1 0.179689,-0.06641 z m 2.832001,0.06641 a 4,4 0 0 1 0.17383,0.07813 4,4 0 0 0 -0.17383,-0.07813 z m -3.1855,0.07813 a 4,4 0 0 0 -0.18555,0.08984 4,4 0 0 1 0.18555,-0.08984 z m 3.544899,0.08984 a 4,4 0 0 1 0.164061,0.09375 4,4 0 0 0 -0.164061,-0.09375 z m -3.894499,0.09375 a 4,4 0 0 0 -0.1875,0.11523 4,4 0 0 1 0.1875,-0.11523 z m 4.2461,0.11523 a 4,4 0 0 1 0.13476,0.09766 4,4 0 0 0 -0.13476,-0.09766 z m -4.568401,0.09766 a 4,4 0 0 0 -0.185549,0.14062 4,4 0 0 1 0.185549,-0.14062 z m 4.8887,0.14062 a 4,4 0 0 1 0.12891,0.11328 4,4 0 0 0 -0.12891,-0.11328 z m -2.5371,0.08789 a 3,3 0 0 1 3,3 3,3 0 0 1 -3,3 3,3 0 0 1 -3,-3 3,3 0 0 1 3,-3 z m -2.665999,0.02539 a 4,4 0 0 0 -0.160161,0.14844 4,4 0 0 1 0.03906,-0.04297 4,4 0 0 1 0.121089,-0.10547 z m 5.492199,0.14844 a 4,4 0 0 1 0.04297,0.03906 4,4 0 0 1 0.10547,0.12109 4,4 0 0 0 -0.148441,-0.16016 z m -5.800799,0.16016 a 4,4 0 0 0 -0.113281,0.12891 4,4 0 0 1 0.113281,-0.12891 z m 6.0625,0.12891 a 4,4 0 0 1 0.14062,0.18555 4,4 0 0 0 -0.14062,-0.18555 z m -6.3164,0.18555 a 4,4 0 0 0 -0.09766,0.13476 4,4 0 0 1 0.09766,-0.13476 z m 6.554699,0.13476 a 4,4 0 0 1 0.11523,0.1875 4,4 0 0 0 -0.11523,-0.1875 z m -6.7676,0.1875 a 4,4 0 0 0 -0.09375,0.16406 4,4 0 0 1 0.09375,-0.16406 z m 6.9766,0.16406 a 4,4 0 0 1 0.08984,0.18555 4,4 0 0 0 -0.08984,-0.18555 z m -7.1602,0.18555 a 4,4 0 0 0 -0.07813,0.17383 4,4 0 0 1 0.07813,-0.17383 z m 7.3281,0.17383 a 4,4 0 0 1 0.06641,0.17969 4,4 0 0 0 -0.06641,-0.17969 z m -7.4727,0.17969 a 4,4 0 0 0 -0.07031,0.21484 4,4 0 0 1 0.07031,-0.21484 z m 7.6094,0.21484 a 4,4 0 0 1 0.03906,0.1543 4,4 0 0 0 -0.03906,-0.1543 z m -7.7188,0.1543 a 4,4 0 0 0 -0.05078,0.22266 4,4 0 0 1 0.05078,-0.22266 z m 7.8086,0.22266 a 4,4 0 0 1 0.02734,0.18555 4,4 0 0 0 -0.02734,-0.18555 z m -7.8867,0.18555 a 4,4 0 0 0 -0.02539,0.21094 4,4 0 0 1 0.02539,-0.21094 z m 7.9395,0.21094 a 4,4 0 0 1 0.01758,0.33789 4,4 0 0 0 -0.01758,-0.33789 z m -7.9824,0.33789 a 4,4 0 0 0 0.01758,0.33789 4,4 0 0 1 -0.01758,-0.33789 z m 7.9824,0.33789 a 4,4 0 0 1 -0.02539,0.21094 4,4 0 0 0 0.02539,-0.21094 z m -7.9395,0.21094 a 4,4 0 0 0 0.02734,0.18555 4,4 0 0 1 -0.02734,-0.18555 z m 7.8867,0.18555 a 4,4 0 0 1 -0.05078,0.22266 4,4 0 0 0 0.05078,-0.22266 z m -7.8086,0.22266 a 4,4 0 0 0 0.03906,0.1543 4,4 0 0 1 -0.03906,-0.1543 z m 7.7188,0.1543 a 4,4 0 0 1 -0.07031,0.21484 4,4 0 0 0 0.07031,-0.21484 z m -7.6094,0.21484 a 4,4 0 0 0 0.06641,0.179689 4,4 0 0 1 -0.06641,-0.179689 z m 7.4727,0.179689 a 4,4 0 0 1 -0.07813,0.17383 4,4 0 0 0 0.07813,-0.17383 z m -7.3281,0.17383 a 4,4 0 0 0 0.08984,0.185551 4,4 0 0 1 -0.08984,-0.185551 z m 7.1602,0.185551 a 4,4 0 0 1 -0.09375,0.16406 4,4 0 0 0 0.09375,-0.16406 z m -6.9766,0.16406 a 4,4 0 0 0 0.11523,0.1875 4,4 0 0 1 -0.11523,-0.1875 z m 6.7676,0.1875 a 4,4 0 0 1 -0.09766,0.13476 4,4 0 0 0 0.09766,-0.13476 z m -6.5547,0.13476 a 4,4 0 0 0 0.14062,0.18555 4,4 0 0 1 -0.14062,-0.18555 z m 6.3164,0.18555 a 4,4 0 0 1 -0.11328,0.12891 4,4 0 0 0 0.11328,-0.12891 z m -6.0625,0.12891 a 4,4 0 0 0 0.14844,0.16016 4,4 0 0 1 -0.04297,-0.03906 4,4 0 0 1 -0.105469,-0.12109 z m 5.8008,0.16016 a 4,4 0 0 1 -0.03906,0.04297 4,4 0 0 1 -0.12109,0.10547 4,4 0 0 0 0.160161,-0.14844 z m -5.4922,0.14844 a 4,4 0 0 0 0.12891,0.11328 4,4 0 0 1 -0.12891,-0.11328 z m 5.2031,0.11328 a 4,4 0 0 1 -0.18555,0.14062 4,4 0 0 0 0.18555,-0.14062 z m -4.8887,0.14062 a 4,4 0 0 0 0.13476,0.09766 4,4 0 0 1 -0.13476,-0.09766 z m 4.5684,0.09766 a 4,4 0 0 1 -0.1875,0.11523 4,4 0 0 0 0.1875,-0.11523 z m -4.2461,0.11523 a 4,4 0 0 0 0.16406,0.09375 4,4 0 0 1 -0.16406,-0.09375 z m 3.8945,0.09375 a 4,4 0 0 1 -0.18555,0.08984 4,4 0 0 0 0.18555,-0.08984 z m -3.5449,0.08984 a 4,4 0 0 0 0.17383,0.07813 4,4 0 0 1 -0.17383,-0.07813 z m 3.1855,0.07813 a 4,4 0 0 1 -0.17969,0.06641 4,4 0 0 0 0.17969,-0.06641 z m -2.832,0.06641 a 4,4 0 0 0 0.21484,0.07031 4,4 0 0 1 -0.21484,-0.07031 z m 2.4375,0.07031 a 4,4 0 0 1 -0.1543,0.03906 4,4 0 0 0 0.1543,-0.03906 z m -2.0684,0.03906 a 4,4 0 0 0 0.22266,0.05078 4,4 0 0 1 -0.22266,-0.05078 z m 1.6914,0.05078 a 4,4 0 0 1 -0.18555,0.02734 4,4 0 0 0 0.18555,-0.02734 z m -1.2832,0.02734 a 4,4 0 0 0 0.21094,0.02539 4,4 0 0 1 -0.21094,-0.02539 z m 0.88672,0.02539 a 4,4 0 0 1 -0.33789,0.01758 4,4 0 0 0 0.33789,-0.01758 z"
     fill="#3d3846"
     id="path23-3" />
</svg>
