<?xml version="1.0" encoding="UTF-8" standalone="no"?>
<svg
   width="62"
   height="62"
   version="1.1"
   id="svg5"
   sodipodi:docname="mono.svg"
   inkscape:version="1.4 (e7c3feb100, 2024-10-09)"
   xmlns:inkscape="http://www.inkscape.org/namespaces/inkscape"
   xmlns:sodipodi="http://sodipodi.sourceforge.net/DTD/sodipodi-0.dtd"
   xmlns:xlink="http://www.w3.org/1999/xlink"
   xmlns="http://www.w3.org/2000/svg"
   xmlns:svg="http://www.w3.org/2000/svg">
  <defs
     id="defs5">
    <linearGradient
       id="linearGradient8"
       inkscape:collect="always">
      <stop
         style="stop-color:#2d3d53;stop-opacity:1;"
         offset="0"
         id="stop8" />
      <stop
         style="stop-color:#354864;stop-opacity:1;"
         offset="1"
         id="stop10" />
    </linearGradient>
    <linearGradient
       id="linearGradient4217">
      <stop
         style="stop-color:#000000;stop-opacity:1;"
         offset="0"
         id="stop2" />
      <stop
         style="stop-color:#000000;stop-opacity:0;"
         offset="1"
         id="stop4" />
    </linearGradient>
    <linearGradient
       id="linearGradient4161">
      <stop
         style="stop-color:#334545;stop-opacity:1;"
         offset="0"
         id="stop7" />
      <stop
         style="stop-color:#4d6868;stop-opacity:1"
         offset="1"
         id="stop9" />
    </linearGradient>
    <linearGradient
       id="a-1-2"
       y1="510.79999"
       y2="527.14001"
       gradientUnits="userSpaceOnUse"
       x2="0">
      <stop
         stop-color="#7cbaf8"
         id="stop2-2-7" />
      <stop
         offset="1"
         stop-color="#f4fcff"
         id="stop4-70-0" />
    </linearGradient>
    <linearGradient
       id="c"
       y1="503.79999"
       x1="400.57001"
       y2="519.79999"
       x2="416.57001"
       gradientUnits="userSpaceOnUse">
      <stop
         stop-color="#292c2f"
         id="stop12" />
      <stop
         offset="1"
         stop-opacity="0"
         id="stop14" />
    </linearGradient>
    <linearGradient
       id="b"
       y1="542.79999"
       x1="408.57001"
       y2="521.79999"
       x2="387.57001"
       gradientUnits="userSpaceOnUse"
       gradientTransform="translate(-384.57,-499.8)">
      <stop
         stop-color="#197cf1"
         id="stop7-8" />
      <stop
         offset="1"
         stop-color="#20bcfa"
         id="stop9-7" />
    </linearGradient>
    <linearGradient
       xlink:href="#linearGradient1389"
       id="linearGradient4503-5-6"
       y1="37"
       y2="4"
       x2="0"
       gradientUnits="userSpaceOnUse"
       gradientTransform="matrix(1.0218446,0,0,0.99999999,21.748946,8.2587777)" />
    <linearGradient
       id="linearGradient1389">
      <stop
         style="stop-color:#ffaaaa;stop-opacity:1"
         id="stop1385"
         offset="0" />
      <stop
         offset="1"
         style="stop-color:#ff5555;stop-opacity:1"
         id="stop1387" />
    </linearGradient>
    <linearGradient
       id="paint543_linear_890_11"
       x1="978.5"
       y1="298"
       x2="978.5"
       y2="304"
       gradientUnits="userSpaceOnUse"
       gradientTransform="matrix(0.75000004,0,0,0.75000004,-717.38333,-173.49123)">
      <stop
         offset="0.189495"
         stop-color="#EFF2F6"
         id="stop1829" />
      <stop
         offset="0.850463"
         stop-color="#B7C6CD"
         id="stop1830" />
    </linearGradient>
    <linearGradient
       inkscape:collect="always"
       xlink:href="#linearGradient8"
       id="linearGradient10"
       x1="31.5"
       y1="59.017544"
       x2="31.5"
       y2="4.9824562"
       gradientUnits="userSpaceOnUse" />
    <linearGradient
       id="linearGradient4144">
      <stop
         style="stop-color:#c83771;stop-opacity:1"
         offset="0"
         id="stop1141" />
      <stop
         style="stop-color:#de87aa;stop-opacity:1"
         offset="1"
         id="stop1143" />
    </linearGradient>
  </defs>
  <sodipodi:namedview
     id="namedview5"
     pagecolor="#ffffff"
     bordercolor="#000000"
     borderopacity="0.25"
     inkscape:showpageshadow="2"
     inkscape:pageopacity="0.0"
     inkscape:pagecheckerboard="0"
     inkscape:deskcolor="#d1d1d1"
     inkscape:zoom="8.2643105"
     inkscape:cx="25.349967"
     inkscape:cy="39.446727"
     inkscape:window-width="1920"
     inkscape:window-height="994"
     inkscape:window-x="0"
     inkscape:window-y="0"
     inkscape:window-maximized="1"
     inkscape:current-layer="svg5" />
  <rect
     style="opacity:0.2;stroke-width:0.9823"
     width="55"
     height="55.017544"
     x="4"
     y="4.9824562"
     rx="8.25"
     ry="8.2526312"
     id="rect1" />
  <rect
     style="fill:url(#linearGradient10);stroke-width:0.9823"
     width="55"
     height="55.017544"
     x="4"
     y="4"
     rx="8.25"
     ry="8.2526312"
     id="rect2" />
  <path
     style="opacity:0.1;fill:#ffffff;stroke-width:0.9823"
     d="M 12.248466,4 C 7.6779652,4 4,7.6791384 4,12.251097 v 0.982456 C 4,8.6615945 7.6779652,4.9824561 12.248466,4.9824561 H 50.751534 C 55.322034,4.9824561 59,8.6615945 59,13.233553 V 12.251097 C 59,7.6791384 55.322034,4 50.751534,4 Z"
     id="path4" />
  <g
     id="g5"
     transform="translate(0,0.00877197)">
    <g
       id="g4">
      <g
         id="g3">
        <g
           id="g1"
           transform="translate(-6.5272709e-8,0.71999317)">
          <path
             style="opacity:0.2;stroke-width:1.44913"
             d="m 16.967733,49.709315 c 0,-0.21456 7.304857,-8.89335 7.460901,-8.85879 0.0861,0.023 3.354196,1.389586 7.250887,3.044128 6.663184,2.825251 7.107979,2.993731 7.28444,2.75757 0.274169,-0.36575 1.211887,-2.302529 1.707725,-3.527961 l 0.42146,-1.042552 -0.705837,-0.383033 C 39.381048,41.158683 37.9052,39.947654 36.982069,38.906543 36.139144,37.956155 34.61809,35.665135 34.61809,35.34402 c 0,-0.106596 0.48417,0.377275 1.076259,1.074229 1.658141,1.948302 5.479005,5.009711 5.718174,4.576275 0.28438,-0.516955 0.472504,-2.037581 0.460838,-3.805882 -0.01163,-2.155658 -0.296044,-3.831795 -1.048549,-6.14585 L 40.40335,29.742485 38.331038,29.101693 c -1.144799,-0.359998 -2.289603,-0.708473 -2.546271,-0.793432 -0.8998,-0.280798 -0.33542,-0.264958 0.974175,0.0288 1.572096,0.348475 3.171904,0.635033 4.157745,0.758872 0.877924,0.106595 1.064591,-0.0619 1.156468,-1.012311 0.119584,-1.222549 -0.672298,-4.597875 -1.48168,-6.271136 -0.319376,-0.669594 -0.466669,-0.820793 -1.109801,-1.11023 -2.136477,-0.98495 -8.836116,-1.88494 -11.679887,-1.591183 -1.230844,0.12384 -2.489397,0.421916 -2.886064,0.669593 -0.107956,0.085 0.682504,0.275037 2.043141,0.522713 1.22501,0.224639 2.118974,0.421917 1.987724,0.456476 -0.148752,0.023 -2.062099,-0.187198 -4.287535,-0.467996 -3.896701,-0.495353 -4.039619,-0.506873 -4.323998,-0.259196 -0.570213,0.506875 -1.378136,1.886382 -1.55022,2.627974 -0.158959,0.715672 -0.148751,0.80063 0.211458,1.526383 0.615423,1.242709 1.766059,2.149901 4.369206,3.450207 1.230843,0.632154 2.209393,1.149108 2.174393,1.187989 -0.03938,0.0331 -1.092301,-0.354238 -2.334813,-0.868312 l -2.273561,-0.928792 -3.330859,0.923032 c -1.828767,0.502554 -3.389199,0.918711 -3.463573,0.918711 -0.09184,0 -0.137086,-2.18446 -0.137086,-5.888102 0,-5.667783 0.01163,-5.903942 0.296045,-6.482814 0.170625,-0.354235 0.507505,-0.732952 0.809382,-0.91295 l 0.523544,-0.321118 15.252837,-0.0446 c 8.384031,-0.023 15.599929,0 16.003892,0.0446 0.934798,0.11232 1.777722,0.789114 1.999389,1.604143 0.09622,0.354236 0.131252,5.718184 0.107955,15.92192 l -0.03939,15.370402 -0.32521,0.511188 c -0.188126,0.30384 -0.570212,0.635031 -0.923135,0.804951 -0.597922,0.288 -0.717508,0.29376 -15.655345,0.29376 -8.281938,0 -15.064708,-0.0504 -15.064708,-0.106572 m -0.02915,0.0288"
             id="path3" />
          <path
             style="fill:#ffffff;stroke-width:1.44913"
             d="m 16.967733,48.269336 c 0,-0.21456 7.304857,-8.893357 7.460901,-8.858797 0.0861,0.023 3.354196,1.389586 7.250887,3.044132 6.663184,2.825251 7.107979,2.993733 7.28444,2.757571 0.274169,-0.36576 1.211887,-2.30254 1.707725,-3.527965 l 0.42146,-1.04255 -0.705837,-0.383037 C 39.381048,39.718697 37.9052,38.50767 36.982069,37.466559 36.139144,36.516168 34.61809,34.225154 34.61809,33.904038 c 0,-0.106595 0.48417,0.377275 1.076259,1.074227 1.658141,1.948299 5.479005,5.009709 5.718174,4.576272 0.28438,-0.516954 0.472504,-2.037578 0.460838,-3.805882 -0.01163,-2.155653 -0.296044,-3.831792 -1.048549,-6.145849 L 40.40335,28.302501 38.331038,27.661707 c -1.144799,-0.359997 -2.289603,-0.708474 -2.546271,-0.793434 -0.8998,-0.280796 -0.33542,-0.264956 0.974175,0.0288 1.572096,0.348476 3.171904,0.635034 4.157745,0.758873 0.877924,0.106595 1.064591,-0.0619 1.156468,-1.012312 0.119584,-1.222546 -0.672298,-4.597871 -1.48168,-6.271136 -0.319376,-0.669592 -0.466669,-0.82079 -1.109801,-1.110227 -2.136477,-0.984951 -8.836116,-1.884943 -11.679887,-1.591186 -1.230844,0.123839 -2.489397,0.421917 -2.886064,0.669594 -0.107956,0.085 0.682504,0.275038 2.043141,0.522715 1.22501,0.224638 2.118974,0.421917 1.987724,0.456477 -0.148752,0.023 -2.062099,-0.187199 -4.287535,-0.467996 -3.896701,-0.495356 -4.039619,-0.506876 -4.323998,-0.259198 -0.570213,0.506875 -1.378136,1.886379 -1.55022,2.627974 -0.158959,0.715673 -0.148751,0.800632 0.211458,1.526385 0.615423,1.242705 1.766059,2.149897 4.369206,3.450204 1.230843,0.632153 2.209393,1.149108 2.174393,1.187988 -0.03938,0.0331 -1.092301,-0.354237 -2.334813,-0.868311 l -2.273561,-0.92879 -3.330859,0.92303 c -1.828767,0.502555 -3.389199,0.91871 -3.463573,0.91871 -0.09184,0 -0.137086,-2.184457 -0.137086,-5.8881 0,-5.667782 0.01163,-5.90394 0.296045,-6.482814 0.170625,-0.354238 0.507505,-0.732954 0.809382,-0.912952 l 0.523544,-0.321116 15.252837,-0.0446 c 8.384031,-0.023 15.599929,0 16.003892,0.0446 0.934798,0.11232 1.777722,0.789111 1.999389,1.604145 0.09622,0.354236 0.131252,5.718181 0.107955,15.921918 l -0.03938,15.370395 -0.32521,0.5112 c -0.188126,0.303831 -0.570212,0.635031 -0.923135,0.804952 -0.597921,0.288 -0.717507,0.29376 -15.655344,0.29376 -8.281938,0 -15.064708,-0.0504 -15.064708,-0.106575 m -0.02915,0.0288"
             id="path4-2" />
        </g>
      </g>
    </g>
  </g>
</svg>
