<?xml version="1.0" encoding="UTF-8" standalone="no"?>
<svg
   width="62"
   height="62"
   version="1.1"
   id="svg5"
   sodipodi:docname="gufw.svg"
   inkscape:version="1.4 (e7c3feb100, 2024-10-09)"
   xmlns:inkscape="http://www.inkscape.org/namespaces/inkscape"
   xmlns:sodipodi="http://sodipodi.sourceforge.net/DTD/sodipodi-0.dtd"
   xmlns="http://www.w3.org/2000/svg"
   xmlns:svg="http://www.w3.org/2000/svg">
  <defs
     id="defs5" />
  <sodipodi:namedview
     id="namedview5"
     pagecolor="#ffffff"
     bordercolor="#000000"
     borderopacity="0.25"
     inkscape:showpageshadow="2"
     inkscape:pageopacity="0.0"
     inkscape:pagecheckerboard="0"
     inkscape:deskcolor="#d1d1d1"
     inkscape:zoom="11.78125"
     inkscape:cx="31.95756"
     inkscape:cy="32"
     inkscape:window-width="1920"
     inkscape:window-height="994"
     inkscape:window-x="0"
     inkscape:window-y="0"
     inkscape:window-maximized="1"
     inkscape:current-layer="svg5" />
  <g
     id="g5"
     transform="translate(-1.4999995,-0.99999935)">
    <path
       style="opacity:0.2;stroke-width:0.991184"
       d="M 13.273439,4.982372 C 12.212884,4.9827088 11.30891,5.7465697 11.140629,6.7860982 9.1770858,18.908801 9.9177531,28.454916 12.078125,35.902838 c 0.03669,0.126406 0.07929,0.227861 0.117181,0.349237 1.209807,4.048488 2.832393,7.481363 4.671877,10.350317 0.977427,1.524415 2.008422,2.889974 3.062502,4.11403 9.29e-4,0.0011 9.98e-4,0.0028 0.002,0.0039 4.604748,5.346221 9.610319,7.96685 12.11328,9.089624 0.521992,0.234122 1.11448,0.252571 1.650388,0.05183 4.124064,-1.545982 10.220141,-5.960067 14.919923,-14.454755 3.801515,-6.871171 6.579169,-16.383547 6.373043,-29.036145 -6.61e-4,-0.04069 -0.0064,-0.07874 -0.0078,-0.118974 -0.05216,-2.956287 -0.261235,-6.076214 -0.664055,-9.3813016 A 2.1603693,2.1447195 0 0 0 52.173883,4.9823615 h -8.644529 -0.146487 z"
       id="path1" />
    <path
       style="fill:#c83771;stroke-width:0.991184"
       d="M 13.272607,3.9999996 C 12.212062,4.0003364 11.308587,4.7648728 11.140301,5.8044009 9.1767642,17.927104 9.9178386,27.473184 12.07821,34.921112 c 1.220206,4.206674 3.145076,5.562595 5.039233,8.516805 0.977239,1.524131 1.758289,5.072205 2.812173,6.296084 4.605514,5.348396 9.610931,7.970266 12.114389,9.093268 0.521997,0.234122 1.116273,0.252857 1.652183,0.05213 4.124069,-1.54599 10.218783,-5.960615 14.918564,-14.455302 3.801515,-6.87117 6.580613,-16.382156 6.374491,-29.034761 -0.0487,-2.989664 -2.254016,-4.802352 -2.661954,-8.1494402 C 52.196164,6.1630246 52.86389,5.2848576 51.771267,5.2845389 l -8.241446,-1.284397 z"
       id="path2" />
    <path
       style="opacity:0.1;fill:#ffffff;stroke-width:0.991184"
       d="m 13.273439,4 c -1.060555,3.368e-4 -1.964529,0.7641979 -2.13281,1.8037259 -0.79508,4.9087481 -1.1412612,9.3882351 -1.134767,13.4838131 0.04711,-3.82627 0.403138,-7.984397 1.134767,-12.5013581 0.168281,-1.0395286 1.072255,-1.803389 2.13281,-1.8037258 h 30.255856 l 8.242186,1.2837157 c 0.326627,9.5e-5 0.484086,0.087582 0.564456,0.226425 0.08064,-0.7081226 0.26002,-1.20864 -0.564456,-1.2088801 L 43.529295,4 Z M 52.34765,7.3695138 c -0.03343,0.2603458 -0.05721,0.542795 -0.01951,0.8519727 0.407941,3.3470895 2.611444,5.1597315 2.660149,8.1493875 0.0079,0.484989 0.0047,0.957597 0.0039,1.433388 0.01109,-0.792143 0.0094,-1.597556 -0.0039,-2.415844 -0.04806,-2.949743 -2.191473,-4.756454 -2.640627,-8.0189042 z"
       id="path3" />
    <path
       style="opacity:0.2;stroke-width:0.991184"
       d="M 43.382807,4.9824551 12.24805,35.43472 c 1.204276,3.975556 2.805138,7.356112 4.619133,10.185298 0.977427,1.52442 2.008421,2.889975 3.062502,4.114031 9.29e-4,0.0011 9.58e-4,0.0028 0.002,0.0039 0.155398,0.180425 0.312542,0.349586 0.468744,0.523848 L 54.986328,16.434194 C 54.939785,13.424734 54.72741,10.242838 54.316402,6.8706106 A 2.1603693,2.1447195 0 0 0 52.173824,4.9824551 Z"
       id="path4" />
    <path
       style="fill:#ffffff;stroke-width:0.991184"
       d="M 43.381956,3.9999995 12.015991,34.678693 c 1.225666,4.310388 2.921047,7.932509 4.850466,10.941706 0.978253,1.525731 2.010153,2.893391 3.065183,4.118255 L 54.986268,15.452121 C 54.939719,12.442664 54.727109,9.2607683 54.316102,5.8885393 A 2.1603693,2.1447195 0 0 0 52.173766,3.9999995 Z"
       id="path5" />
  </g>
</svg>
