<?xml version="1.0" encoding="UTF-8" standalone="no"?>
<svg
   width="62"
   height="62"
   version="1.1"
   viewBox="0 0 62 62"
   id="svg6"
   sodipodi:docname="pcbnew.svg"
   inkscape:version="1.4 (e7c3feb100, 2024-10-09)"
   xmlns:inkscape="http://www.inkscape.org/namespaces/inkscape"
   xmlns:sodipodi="http://sodipodi.sourceforge.net/DTD/sodipodi-0.dtd"
   xmlns="http://www.w3.org/2000/svg"
   xmlns:svg="http://www.w3.org/2000/svg">
  <defs
     id="defs6" />
  <sodipodi:namedview
     id="namedview6"
     pagecolor="#ffffff"
     bordercolor="#000000"
     borderopacity="0.25"
     inkscape:showpageshadow="2"
     inkscape:pageopacity="0.0"
     inkscape:pagecheckerboard="0"
     inkscape:deskcolor="#d1d1d1"
     inkscape:zoom="12.109375"
     inkscape:cx="32"
     inkscape:cy="32"
     inkscape:window-width="1920"
     inkscape:window-height="998"
     inkscape:window-x="0"
     inkscape:window-y="0"
     inkscape:window-maximized="1"
     inkscape:current-layer="svg6" />
  <g
     id="g6"
     transform="matrix(1.0769185,0,0,1.0769024,-3.4615105,-3.4603383)">
    <rect
       x="6"
       y="6"
       width="52"
       height="52"
       rx="8"
       ry="8"
       fill="#007a00"
       fill-rule="evenodd"
       stop-color="#000000"
       stroke-linecap="round"
       stroke-linejoin="round"
       stroke-width="1.8909"
       style="paint-order:stroke fill markers"
       id="rect1" />
    <path
       d="m 14,6 c -0.78232,0 -1.5364,0.11675 -2.25,0.32422 v 19.488 l 9,9 v 6.75 l -9,6.75 v 9.3633 c 0.71361,0.20747 1.4677,0.32422 2.25,0.32422 v -8.5625 l 9,-6.75 v -9 l -9,-9 z m 2.25,0 v 17.562 l 9,9 v 11.25 l -9,6.75 v 7.4375 H 18.5 V 51.687 l 9,-6.75 v -13.5 l -9,-9 V 5.999 Z m 4.5,0 v 15.312 l 9,9 v 15.75 l -9,6.75 v 5.1875 H 23 V 53.937 l 9,-6.75 v -18 l -9,-9 V 5.999 Z m 6.75,0 v 12.5 l 9,9 H 50 V 23 H 38.75 L 32,16.25 V 6 Z m 10.125,0 v 8 L 41,17.375 h 3.1973 C 45.9362,15.9679 48.5888,15 51,15 h 7 V 14 C 58,9.568 54.432,6 50,6 Z M 36.5,32 35.375,33.125 V 47.75 l -9,6.75 V 58 H 41 v -3.5 c 0,-1.2426 1.0074,-2.25 2.25,-2.25 h 14.426 c 0.20747,-0.71361 0.32422,-1.4677 0.32422,-2.25 v -1.125 h -7 V 44 h 7 V 32.109 c -1.85,2.0049 -4.4944,3.2656 -7.4375,3.2656 -2.9987,0 -5.6929,-1.3036 -7.5469,-3.375 z M 6,35.375 v 4.5 h 6.875 v -4.5 z m 36.875,2.25 H 46.5 v 4.5 h -5.625 v -2.5 c 0,-1.1046 0.8954,-2 2,-2 z m 8.125,0 h 3.625 c 1.1046,0 2,0.8954 2,2 v 2.5 H 51 Z m -10.125,6.75 H 46.5 v 4.5 h -3.625 c -1.1046,0 -2,-0.8954 -2,-2 z"
       fill="#ffffff"
       opacity="0.2"
       id="path1" />
    <path
       d="m 50.562,29.75 c 2.4853,0 4.5,-2.0147 4.5,-4.5 0,-2.4853 -2.0147,-4.5 -4.5,-4.5 -2.4853,0 -4.5,2.0147 -4.5,4.5 0,2.4853 2.0147,4.5 4.5,4.5 z M 12.874,42.125 c 2.4853,0 4.5,-2.0147 4.5,-4.5 0,-2.4853 -2.0147,-4.5 -4.5,-4.5 -2.4853,0 -4.5,2.0147 -4.5,4.5 0,2.4853 2.0147,4.5 4.5,4.5 z"
       clip-rule="evenodd"
       fill="#f29100"
       fill-rule="evenodd"
       id="path2" />
    <path
       d="m 50.562,26.938 c 0.932,0 1.6875,-0.7555 1.6875,-1.6875 0,-0.932 -0.7555,-1.6875 -1.6875,-1.6875 -0.932,0 -1.6875,0.7555 -1.6875,1.6875 0,0.932 0.7555,1.6875 1.6875,1.6875 z M 12.874,39.313 c 0.932,0 1.6875,-0.7555 1.6875,-1.6875 0,-0.932 -0.7555,-1.6875 -1.6875,-1.6875 -0.932,0 -1.6875,0.7555 -1.6875,1.6875 0,0.932 0.7555,1.6875 1.6875,1.6875 z"
       clip-rule="evenodd"
       fill="#ffffff"
       fill-rule="evenodd"
       id="path3" />
    <path
       d="m 50.562,26.938 c 0.932,0 1.6875,-0.7555 1.6875,-1.6875 0,-0.932 -0.7555,-1.6875 -1.6875,-1.6875 -0.932,0 -1.6875,0.7555 -1.6875,1.6875 0,0.932 0.7555,1.6875 1.6875,1.6875 z M 12.874,39.313 c 0.932,0 1.6875,-0.7555 1.6875,-1.6875 0,-0.932 -0.7555,-1.6875 -1.6875,-1.6875 -0.932,0 -1.6875,0.7555 -1.6875,1.6875 0,0.932 0.7555,1.6875 1.6875,1.6875 z"
       clip-rule="evenodd"
       fill="#ffffff"
       fill-rule="evenodd"
       id="path4" />
    <path
       d="m 44,54 c -0.554,0 -1,0.446 -1,1 v 3 h 7 c 2.9714,0 5.5479,-1.6073 6.9277,-4 h -12.928 z"
       fill="#ffffff"
       fill-rule="evenodd"
       opacity="0.2"
       stop-color="#000000"
       stroke-linecap="round"
       stroke-linejoin="round"
       stroke-width="2"
       style="paint-order:stroke fill markers"
       id="path5" />
    <rect
       x="43"
       y="40"
       width="11"
       height="6"
       rx="1"
       ry="1"
       fill="#f29100"
       fill-rule="evenodd"
       stop-color="#000000"
       stroke-linecap="round"
       stroke-linejoin="round"
       stroke-width="2"
       style="paint-order:stroke fill markers"
       id="rect5" />
    <rect
       x="45"
       y="42"
       width="7"
       height="2"
       rx="1"
       ry="1"
       fill="#ffffff"
       fill-rule="evenodd"
       opacity="0.35"
       stop-color="#000000"
       stroke-linecap="round"
       stroke-linejoin="round"
       stroke-width="0.92113"
       style="paint-order:stroke fill markers"
       id="rect6" />
  </g>
</svg>
