<?xml version="1.0" encoding="UTF-8" standalone="no"?>
<svg
   width="62"
   height="62"
   version="1"
   id="svg5"
   sodipodi:docname="pcsxr.svg"
   inkscape:version="1.4 (e7c3feb100, 2024-10-09)"
   xmlns:inkscape="http://www.inkscape.org/namespaces/inkscape"
   xmlns:sodipodi="http://sodipodi.sourceforge.net/DTD/sodipodi-0.dtd"
   xmlns="http://www.w3.org/2000/svg"
   xmlns:svg="http://www.w3.org/2000/svg">
  <defs
     id="defs5" />
  <sodipodi:namedview
     id="namedview5"
     pagecolor="#ffffff"
     bordercolor="#000000"
     borderopacity="0.25"
     inkscape:showpageshadow="2"
     inkscape:pageopacity="0.0"
     inkscape:pagecheckerboard="0"
     inkscape:deskcolor="#d1d1d1"
     inkscape:zoom="8.5"
     inkscape:cx="35.529412"
     inkscape:cy="47.647059"
     inkscape:window-width="1920"
     inkscape:window-height="998"
     inkscape:window-x="0"
     inkscape:window-y="0"
     inkscape:window-maximized="1"
     inkscape:current-layer="svg5" />
  <path
     style="opacity:0.2;stroke-width:0.982302"
     d="M 3.5498924,30.509208 C 3.5383034,30.837344 3.4999994,31.159585 3.4999994,31.49165 3.4999996,46.731274 15.764826,59 30.999601,59 46.234376,59 58.499203,46.731274 58.499203,31.49165 c 0,-0.332065 -0.03929,-0.654306 -0.04908,-0.982442 C 57.931557,45.287085 45.902443,57.03512 30.999626,57.03512 16.096411,57.03512 4.0676948,45.287085 3.5491311,30.509208 Z"
     id="path1" />
  <rect
     style="fill:#0d6efd;stroke-width:0.982302"
     width="55"
     height="55.017498"
     x="3.4999998"
     y="3.0000608"
     rx="27.5"
     ry="27.508749"
     id="rect1" />
  <path
     style="opacity:1;fill:#9d7ed5;stroke-width:0.982302;fill-opacity:0.80000001"
     d="m 30.963545,3.0000606 c -6.276001,0.00814 -12.043664,2.1024926 -16.658059,5.6241715 0.06508,15.1845529 12.499793,27.7793019 27.693734,27.7793019 6.209018,0 11.905825,-2.455807 16.49885,-5.902407 -4.9e-4,-1.902263 -0.191633,-3.757802 -0.55629,-5.549339 -4.08e-4,-0.002 -0.0015,-0.0038 -0.002,-0.0059 -0.273791,-1.343602 -0.644084,-2.650991 -1.104908,-3.914469 -4.91e-4,-0.0014 -0.0015,-0.0025 -0.002,-0.0039 -0.615209,-1.68618 -1.390769,-3.294867 -2.307533,-4.806637 C 51.546168,11.308136 47.071003,7.4119875 41.72296,5.1567502 c -5.48e-4,-2.31e-4 -0.0014,2.31e-4 -0.002,0 -0.410885,-0.1732231 -0.825926,-0.3376147 -1.246845,-0.4912096 -5.67e-4,-2.071e-4 -0.0014,2.069e-4 -0.002,0 C 37.521756,3.5891291 34.331653,3.0038101 30.999902,3.00381 30.988412,3.00381 30.974972,3.00007 30.963452,3 Z"
     id="path2" />
  <path
     style="opacity:0.2;fill:#ffffff;stroke-width:0.982302"
     d="m 30.999993,3.0000606 c -15.234777,0 -27.4999933,12.2691184 -27.4999933,27.5087414 0,0.111561 0.011082,0.220102 0.017264,0.330045 C 3.8625243,15.904016 15.983961,3.9825157 30.999993,3.9825157 c 15.016031,0 27.13747,11.9215003 27.482728,26.8563313 0.0064,-0.109943 0.01728,-0.218484 0.01728,-0.330045 C 58.499991,15.269179 46.234781,3.0000606 30.999999,3.0000606 Z"
     id="path5" />
  <path
     inkscape:connector-curvature="0"
     id="path18-7-0-9"
     d="m 26.118107,14.007199 0.04582,29.781913 6.485829,2.218087 0.02577,-25.448344 c 0,0 0,-0.0021 0,-0.0021 0.0027,-2.477987 2.700274,-1.294167 2.700274,0.327881 v 10.999093 c 4.689435,2.17007 7.458251,-0.131119 7.51094,-6.064133 0.05238,-5.101129 -3.190473,-8.013719 -8.490275,-9.511059 z m -1.322942,18.095514 -0.976447,0.313606 -9.440969,3.36991 c -1.987454,0.907503 -3.648967,1.495076 -3.659545,2.973595 0.04977,1.871553 2.99741,2.78365 7.310513,3.501084 2.298476,0.458729 4.64672,0.15071 6.657639,-0.273564 v -3.526818 c 0,0 -3.727309,1.442283 -4.613101,1.562368 l -1.792548,-0.0038 c -1.33131,-0.0038 -1.950425,-0.858621 -0.624247,-1.314338 l 7.138705,-2.688733 z m 16.774383,1.588001 0.003,0.0015 c -2.478686,-0.0038 -5.912594,0.663099 -7.614046,1.45125 v 4.019929 l 4.487108,-1.633683 3.55361,-1.126176 c 3.701556,-0.606762 5.174215,0.681187 1.569189,1.75627 l -9.609908,3.498233 -0.01117,3.897341 14.039741,-5.026266 c 1.549359,-0.538039 3.726768,-1.624722 3.731138,-2.959384 -0.376031,-2.066912 -3.49817,-3.271903 -8.347113,-3.783384 -0.434936,-0.04407 -0.871581,-0.07253 -1.305751,-0.08586 -0.165381,-0.0021 -0.329902,-0.0096 -0.495387,-0.0096 z"
     style="fill:#ffffff;stroke-width:0.108856" />
</svg>
