<?xml version="1.0" encoding="UTF-8" standalone="no"?>
<svg
   clip-rule="evenodd"
   fill-rule="evenodd"
   stroke-linejoin="round"
   stroke-miterlimit="1.41421"
   viewBox="0 0 62 62"
   version="1.1"
   id="svg8"
   sodipodi:docname="pdfarranger.svg"
   width="62"
   height="62"
   inkscape:version="1.4 (e7c3feb100, 2024-10-09)"
   xmlns:inkscape="http://www.inkscape.org/namespaces/inkscape"
   xmlns:sodipodi="http://sodipodi.sourceforge.net/DTD/sodipodi-0.dtd"
   xmlns="http://www.w3.org/2000/svg"
   xmlns:svg="http://www.w3.org/2000/svg">
  <defs
     id="defs8" />
  <sodipodi:namedview
     id="namedview8"
     pagecolor="#ffffff"
     bordercolor="#000000"
     borderopacity="0.25"
     inkscape:showpageshadow="2"
     inkscape:pageopacity="0.0"
     inkscape:pagecheckerboard="0"
     inkscape:deskcolor="#d1d1d1"
     showgrid="false"
     inkscape:zoom="11.75"
     inkscape:cx="28.510638"
     inkscape:cy="32"
     inkscape:window-width="1920"
     inkscape:window-height="998"
     inkscape:window-x="0"
     inkscape:window-y="0"
     inkscape:window-maximized="1"
     inkscape:current-layer="svg8">
    <inkscape:grid
       id="grid9"
       units="px"
       originx="0"
       originy="0"
       spacingx="1"
       spacingy="1"
       empcolor="#0099e5"
       empopacity="0.30196078"
       color="#0099e5"
       opacity="0.14901961"
       empspacing="5"
       enabled="true"
       visible="false" />
  </sodipodi:namedview>
  <g
     id="g9"
     transform="matrix(0.97211128,0,0,0.96392081,0.77919051,-0.74247542)">
    <path
       d="m 29.065,3.883 c 3.153,-0.039 5.745,2.49 5.783,5.644 l 0.347,28.57 c 0.038,3.153 -2.491,5.744 -5.645,5.783 L 9.957,44.117 C 6.804,44.156 4.213,41.627 4.175,38.473 L 3.828,9.903 C 3.789,6.75 6.319,4.159 9.472,4.12 Z"
       id="path1"
       style="fill:#d63384" />
    <path
       d="m 33.44,10.035 c 3.137,0.326 5.419,3.137 5.093,6.274 l -2.952,28.419 c -0.326,3.137 -3.137,5.419 -6.274,5.093 L 9.817,47.796 C 6.681,47.47 4.399,44.659 4.724,41.522 L 7.677,13.103 C 8.003,9.966 10.814,7.684 13.951,8.01 Z"
       id="path2"
       style="fill:#9d7ed5" />
    <path
       d="m 39.825,17.206 c 3.019,0.91 4.732,4.101 3.821,7.12 L 35.4,51.682 c -0.911,3.02 -4.101,4.732 -7.12,3.822 L 9.519,49.848 C 6.5,48.938 4.787,45.748 5.698,42.728 l 8.246,-27.356 c 0.91,-3.019 4.101,-4.732 7.12,-3.821 z"
       id="path3"
       style="fill:#fea75f" />
    <path
       d="m 44.132,24.498 c 2.839,1.374 4.028,4.794 2.654,7.633 l -12.45,25.717 c -1.374,2.838 -4.794,4.027 -7.632,2.653 L 9.067,51.964 C 6.229,50.59 5.04,47.169 6.414,44.331 L 18.863,18.614 c 1.374,-2.839 4.794,-4.028 7.633,-2.654 z"
       id="path4"
       style="fill:#20c997" />
    <path
       d="m 38.178,12.409 c 2.918,-1.195 6.258,0.204 7.453,3.122 l 12.29,30.008 c 1.195,2.918 -0.204,6.258 -3.122,7.453 l -20.9,8.559 c -2.918,1.196 -6.258,-0.203 -7.453,-3.122 L 14.157,28.422 c -1.196,-2.919 0.203,-6.258 3.122,-7.454 z"
       id="path5"
       style="fill:#3485fd" />
    <g
       fill="#ffffff"
       fill-rule="nonzero"
       id="g8">
      <path
         d="M 11.803,50.85 11.79,35.166 17.678,35.161 c 0.836,0 1.637,0.083 2.401,0.252 0.764,0.168 1.432,0.457 2.003,0.867 0.572,0.409 1.027,0.948 1.365,1.615 0.338,0.668 0.508,1.492 0.509,2.473 0,0.965 -0.172,1.794 -0.517,2.486 -0.345,0.692 -0.807,1.259 -1.386,1.702 -0.579,0.443 -1.246,0.773 -2.002,0.991 -0.756,0.218 -1.544,0.327 -2.365,0.328 l -1.737,10e-4 0.004,4.971 z m 4.143,-8.256 1.545,-10e-4 c 0.82,0 1.427,-0.194 1.821,-0.58 0.394,-0.387 0.59,-0.934 0.59,-1.642 -0.001,-0.707 -0.21,-1.206 -0.629,-1.495 -0.418,-0.289 -1.013,-0.434 -1.786,-0.433 l -1.544,0.001 z"
         id="path6" />
      <path
         d="M 26.281,50.838 26.268,35.154 30.78,35.151 c 1.126,-0.001 2.156,0.143 3.089,0.431 0.933,0.289 1.738,0.747 2.414,1.374 0.676,0.627 1.204,1.431 1.582,2.412 0.379,0.981 0.569,2.163 0.57,3.546 10e-4,1.384 -0.183,2.574 -0.552,3.572 -0.369,0.997 -0.887,1.818 -1.554,2.462 -0.667,0.644 -1.451,1.119 -2.352,1.426 -0.9,0.306 -1.881,0.46 -2.943,0.461 z m 4.147,-3.333 h 0.145 c 0.499,0 0.969,-0.069 1.411,-0.206 0.443,-0.137 0.824,-0.375 1.146,-0.713 0.321,-0.338 0.578,-0.805 0.771,-1.4 0.192,-0.595 0.288,-1.351 0.288,-2.268 -10e-4,-0.917 -0.098,-1.665 -0.292,-2.244 -0.193,-0.579 -0.451,-1.029 -0.773,-1.351 -0.322,-0.321 -0.704,-0.542 -1.147,-0.662 -0.442,-0.121 -0.913,-0.181 -1.411,-0.18 h -0.145 z"
         id="path7" />
      <path
         d="m 41.482,50.826 -0.013,-15.684 10.738,-0.009 0.003,3.475 -6.588,0.005 0.003,2.992 5.646,-0.004 0.003,3.474 -5.646,0.005 0.004,5.743 z"
         id="path8" />
    </g>
  </g>
</svg>
