<?xml version="1.0" encoding="UTF-8" standalone="no"?>
<svg
   width="62"
   height="62"
   version="1.1"
   id="svg7"
   sodipodi:docname="pdfsam.svg"
   inkscape:version="1.4 (e7c3feb100, 2024-10-09)"
   xmlns:inkscape="http://www.inkscape.org/namespaces/inkscape"
   xmlns:sodipodi="http://sodipodi.sourceforge.net/DTD/sodipodi-0.dtd"
   xmlns="http://www.w3.org/2000/svg"
   xmlns:svg="http://www.w3.org/2000/svg">
  <defs
     id="defs7" />
  <sodipodi:namedview
     id="namedview7"
     pagecolor="#ffffff"
     bordercolor="#000000"
     borderopacity="0.25"
     inkscape:showpageshadow="2"
     inkscape:pageopacity="0.0"
     inkscape:pagecheckerboard="0"
     inkscape:deskcolor="#d1d1d1"
     inkscape:zoom="11.75"
     inkscape:cx="32"
     inkscape:cy="32.085106"
     inkscape:window-width="1920"
     inkscape:window-height="998"
     inkscape:window-x="0"
     inkscape:window-y="0"
     inkscape:window-maximized="1"
     inkscape:current-layer="svg7" />
  <g
     transform="translate(-0.5,-989.362)"
     id="g7">
    <circle
       style="opacity:0.2"
       cx="31.5"
       cy="1020.862"
       r="28.5"
       id="circle1" />
    <circle
       style="fill:#e4e4e4"
       cx="31.5"
       cy="1019.862"
       r="28.5"
       id="circle2" />
    <path
       style="fill:#fea75f"
       d="m 32.441541,1025.4661 c 3.303819,1.0868 4.564051,-0.027 4.564051,-0.027 -1.85907,-1.8053 -2.287804,-2.2837 -1.85255,-3.6683 0.868021,-2.7703 0.92249,-3.9701 0.588098,-5.3921 -0.800207,-3.4031 -2.300106,-3.966 -2.300106,-3.966 -0.656824,2.512 -0.774807,3.0722 -2.233704,3.4375 -2.802334,0.7231 -3.831183,1.2024 -4.904373,2.1732 -2.584588,2.3381 -2.259111,4.0093 -2.259111,4.0093 2.476931,-0.7332 3.082289,-0.8393 4.062975,0.2083 1.431393,1.5495 2.962879,2.7733 4.33472,3.2246 z"
       id="path2" />
    <path
       style="fill:#199b74;fill-opacity:1"
       d="m 31.516505,997.36238 c -4.276205,0 -8.273521,1.20571 -11.673509,3.29662 -0.05969,0.037 -0.116072,0.074 -0.175788,0.1138 15.668662,4.2515 20.184157,11.532 20.737644,18.4775 0.320312,4.0216 -2.071017,6.0485 -2.071017,6.0485 7.418008,-0.6729 15.411778,-8.0161 15.411778,-8.0161 -1.378875,-11.1433 -10.416289,-19.91976 -22.229108,-19.91976 z m -13.436895,4.62292 c -8.9049982,6.7734 -11.9377769,19.0344 -6.03177,29.3257 2.138102,3.7255 5.171321,6.6061 8.671355,8.5215 0.06131,0.034 0.125452,0.063 0.186777,0.097 -4.173738,-15.7757 -0.166454,-23.3516 5.534618,-27.306 3.303166,-2.2905 6.246013,-1.2184 6.246013,-1.2184 -4.287501,-6.1266 -14.606993,-9.4196 -14.606993,-9.4196 z m 35.904967,17.0957 c -11.494119,11.5242 -20.0169,11.8187 -26.272263,8.8285 -3.623478,-1.7314 -4.172249,-4.8302 -4.172249,-4.8302 -3.130504,6.7994 -0.804785,17.4359 -0.804785,17.4359 10.283065,4.3716 22.354871,0.8834 28.260877,-9.4087 2.138104,-3.7248 3.097514,-7.8072 2.996661,-11.8155 -7.76e-4,-0.07 -0.0067,-0.1406 -0.0083,-0.21 z"
       id="path3" />
    <path
       style="opacity:0.2"
       d="m 30.324484,1019.9299 c 0.514018,-0.6491 1.457749,-0.7582 2.106755,-0.2441 0.649927,0.5146 0.758565,1.4591 0.244526,2.1083 -0.514039,0.6488 -1.45911,0.7584 -2.107666,0.2435 -0.649007,-0.5141 -0.758087,-1.4578 -0.243615,-2.1077"
       id="path4" />
    <path
       style="fill:#ffffff"
       d="m 30.324484,1018.9299 c 0.514018,-0.6491 1.457749,-0.7582 2.106755,-0.2441 0.649927,0.5146 0.758565,1.4591 0.244526,2.1083 -0.514039,0.6488 -1.45911,0.7584 -2.107666,0.2435 -0.649007,-0.5141 -0.758087,-1.4578 -0.243615,-2.1077"
       id="path5" />
    <path
       style="opacity:0.2"
       transform="translate(0,988.3622)"
       d="m 31.515625,9 c -4.276205,0 -8.271887,1.205965 -11.671875,3.296875 -0.05969,0.037 -0.116065,0.07348 -0.175781,0.113281 0.397082,0.107744 0.755799,0.226312 1.138672,0.337891 C 23.989925,11.001687 27.634997,10 31.515625,10 c 11.498967,0 20.347003,8.324518 22.082031,19.044922 0.01157,-0.0105 0.148438,-0.125 0.148438,-0.125 C 52.367219,17.776622 43.328444,9 31.515625,9 Z m -13.435547,4.623047 c -5.80592,4.416151 -9.0929819,11.166887 -9.0566405,18.181641 0.2667637,-6.652505 3.5269145,-12.975571 9.0566405,-17.181641 0,0 8.973044,2.867929 13.660156,8.224609 0.584153,0.07343 0.947266,0.195313 0.947266,0.195313 -4.287501,-6.1266 -14.607422,-9.419922 -14.607422,-9.419922 z M 53.984375,30.71875 c -11.494119,11.5242 -20.016121,11.818325 -26.271484,8.828125 -3.623478,-1.7314 -4.171875,-4.830078 -4.171875,-4.830078 -1.30781,2.840539 -1.658218,6.346094 -1.628907,9.470703 0.05243,-2.855899 0.459717,-5.931244 1.628907,-8.470703 0,0 0.548397,3.098678 4.171875,4.830078 6.255363,2.9902 14.777365,2.696075 26.271484,-8.828125 2.82e-4,0.01222 0.0015,0.02483 0.002,0.03711 0.0031,-0.275802 0.01279,-0.550928 0.0059,-0.826171 -7.77e-4,-0.07 -0.0062,-0.141538 -0.0078,-0.210938 z m -13.570313,1.419922 c -0.19091,3.188309 -2.080078,4.798828 -2.080078,4.798828 0.303934,-0.02757 0.608785,-0.08381 0.914063,-0.132812 0.612848,-0.95182 1.279905,-2.496613 1.166015,-4.666016 z m -21.214843,7.791016 c -0.101389,3.214558 0.333829,7.018208 1.429687,11.488281 0.03035,0.01679 0.05942,0.03609 0.08984,0.05273 0.06131,0.034 0.126175,0.0617 0.1875,0.0957 -1.196977,-4.524279 -1.70277,-8.353271 -1.707031,-11.636718 z"
       id="path6" />
    <path
       style="opacity:0.2;fill:#ffffff"
       transform="translate(0,988.3622)"
       d="M 31.5,3 A 28.5,28.5 0 0 0 3,31.5 28.5,28.5 0 0 0 3.0214844,32.082031 28.5,28.5 0 0 1 31.5,4 28.5,28.5 0 0 1 59.978516,31.917969 28.5,28.5 0 0 0 60,31.5 28.5,28.5 0 0 0 31.5,3 Z"
       id="path7" />
  </g>
</svg>
