<?xml version="1.0" encoding="UTF-8" standalone="no"?>
<svg
   clip-rule="evenodd"
   fill-rule="evenodd"
   stroke-linecap="round"
   viewBox="0 0 62 62"
   version="1.1"
   id="svg8"
   sodipodi:docname="peek.svg"
   width="62"
   height="62"
   inkscape:version="1.4 (e7c3feb100, 2024-10-09)"
   xmlns:inkscape="http://www.inkscape.org/namespaces/inkscape"
   xmlns:sodipodi="http://sodipodi.sourceforge.net/DTD/sodipodi-0.dtd"
   xmlns:xlink="http://www.w3.org/1999/xlink"
   xmlns="http://www.w3.org/2000/svg"
   xmlns:svg="http://www.w3.org/2000/svg">
  <defs
     id="defs8">
    <linearGradient
       id="linearGradient9"
       inkscape:collect="always">
      <stop
         style="stop-color:#586374;stop-opacity:1;"
         offset="0"
         id="stop9" />
      <stop
         style="stop-color:#373f48;stop-opacity:1;"
         offset="1"
         id="stop10" />
    </linearGradient>
    <linearGradient
       inkscape:collect="always"
       xlink:href="#linearGradient9"
       id="linearGradient10"
       x1="30.332001"
       y1="2.332"
       x2="30.332001"
       y2="58.332001"
       gradientUnits="userSpaceOnUse" />
  </defs>
  <sodipodi:namedview
     id="namedview8"
     pagecolor="#ffffff"
     bordercolor="#000000"
     borderopacity="0.25"
     inkscape:showpageshadow="2"
     inkscape:pageopacity="0.0"
     inkscape:pagecheckerboard="0"
     inkscape:deskcolor="#d1d1d1"
     inkscape:zoom="7.7916667"
     inkscape:cx="24.064171"
     inkscape:cy="41.326203"
     inkscape:window-width="1920"
     inkscape:window-height="994"
     inkscape:window-x="0"
     inkscape:window-y="0"
     inkscape:window-maximized="1"
     inkscape:current-layer="svg8" />
  <linearGradient
     id="a"
     x2="1"
     gradientTransform="matrix(0,-56.001681,56.001681,0,260.2194,58.332906)"
     gradientUnits="userSpaceOnUse">
    <stop
       stop-color="#323232"
       offset="0"
       id="stop1" />
    <stop
       stop-color="#565656"
       offset="1"
       id="stop2" />
  </linearGradient>
  <g
     id="g8"
     transform="translate(0.668,0.668)">
    <path
       d="M 58.332,10.379997 C 58.332,5.9373166 54.726683,2.332 50.284003,2.332 H 10.379997 C 5.9373166,2.332 2.332,5.9373166 2.332,10.379997 v 39.904006 c 0,4.44268 3.6053166,8.047997 8.047997,8.047997 h 39.904006 c 4.44268,0 8.047997,-3.605317 8.047997,-8.047997 z"
       id="path2"
       style="fill:url(#linearGradient10)" />
    <path
       d="m 52.299879,21.046048 c 0,-0.621561 -0.246816,-1.218571 -0.686173,-1.657928 -0.439358,-0.439358 -1.036367,-0.686174 -1.657929,-0.686174 H 10.708223 c -0.621562,0 -1.2185712,0.246816 -1.6579287,0.686174 -0.4393576,0.439357 -0.6861732,1.036367 -0.6861732,1.657928 v 28.909729 c 0,0.621562 0.2468156,1.218571 0.6861732,1.657929 0.4393575,0.439357 1.0363667,0.686173 1.6579287,0.686173 h 39.247554 c 0.621562,0 1.218571,-0.246816 1.657929,-0.686173 0.439357,-0.439358 0.686173,-1.036367 0.686173,-1.657929 z"
       id="path3"
       style="fill:#ff9955" />
    <circle
       cx="48.423195"
       cy="12.240806"
       id="circle3"
       style="stroke-width:1.29223;fill:#ed333b;fill-opacity:1"
       r="2.5844564" />
    <g
       fill="none"
       stroke="#ffffff"
       stroke-width="2"
       id="g7"
       transform="matrix(1.2922282,0,0,1.2922282,-0.68147609,-0.68147609)">
      <path
         d="m 12,31 v 5 h 5"
         id="path4" />
      <path
         d="m 36,31 v 5 h -5"
         id="path5" />
      <path
         d="M 36,25 V 20 H 31"
         id="path6" />
      <path
         d="m 12,25 v -5 h 5"
         id="path7" />
    </g>
    <path
       d="m 38.085369,12.240806 c 0,-0.71331 -0.578918,-1.292229 -1.292228,-1.292229 H 23.870859 c -0.71331,0 -1.292228,0.578919 -1.292228,1.292229 0,0.71331 0.578918,1.292228 1.292228,1.292228 h 12.922282 c 0.71331,0 1.292228,-0.578918 1.292228,-1.292228 z"
       id="path8"
       style="stroke-width:1.29223;fill:#f2f2f2;fill-opacity:1" />
  </g>
</svg>
