<?xml version="1.0" encoding="UTF-8" standalone="no"?>
<svg
   clip-rule="evenodd"
   fill-rule="evenodd"
   stroke-linejoin="round"
   stroke-miterlimit="2"
   viewBox="0 0 62 62"
   version="1.1"
   id="svg3"
   sodipodi:docname="photoflare.svg"
   width="62"
   height="62"
   inkscape:version="1.4 (e7c3feb100, 2024-10-09)"
   xmlns:inkscape="http://www.inkscape.org/namespaces/inkscape"
   xmlns:sodipodi="http://sodipodi.sourceforge.net/DTD/sodipodi-0.dtd"
   xmlns:xlink="http://www.w3.org/1999/xlink"
   xmlns="http://www.w3.org/2000/svg"
   xmlns:svg="http://www.w3.org/2000/svg">
  <defs
     id="defs3">
    <linearGradient
       id="linearGradient1"
       inkscape:collect="always">
      <stop
         style="stop-color:#ffffff;stop-opacity:1;"
         offset="0"
         id="stop5" />
      <stop
         style="stop-color:#ffffff;stop-opacity:1;"
         offset="1"
         id="stop6" />
    </linearGradient>
    <linearGradient
       id="linearGradient3"
       inkscape:collect="always">
      <stop
         style="stop-color:#223244;stop-opacity:1;"
         offset="0"
         id="stop3" />
      <stop
         style="stop-color:#212e3f;stop-opacity:1;"
         offset="1"
         id="stop4" />
    </linearGradient>
    <filter
       id="b-3-36"
       width="1.2393739"
       height="1.1966286"
       x="-0.11968695"
       y="-0.098314282"
       color-interpolation-filters="sRGB">
      <feGaussianBlur
         stdDeviation="1.147"
         id="feGaussianBlur7-6" />
    </filter>
    <filter
       id="b-3-36-6"
       width="1.2393739"
       height="1.1966286"
       x="-0.11968695"
       y="-0.098314282"
       color-interpolation-filters="sRGB">
      <feGaussianBlur
         stdDeviation="1.147"
         id="feGaussianBlur7-6-7" />
    </filter>
    <linearGradient
       inkscape:collect="always"
       xlink:href="#linearGradient3"
       id="linearGradient4"
       x1="31.996025"
       y1="5.0983038"
       x2="32.182014"
       y2="58.017544"
       gradientUnits="userSpaceOnUse" />
    <linearGradient
       inkscape:collect="always"
       xlink:href="#linearGradient1"
       id="linearGradient6"
       x1="13.752872"
       y1="31.423564"
       x2="54.252872"
       y2="31.423564"
       gradientUnits="userSpaceOnUse" />
  </defs>
  <sodipodi:namedview
     id="namedview3"
     pagecolor="#ffffff"
     bordercolor="#000000"
     borderopacity="0.25"
     inkscape:showpageshadow="2"
     inkscape:pageopacity="0.0"
     inkscape:pagecheckerboard="0"
     inkscape:deskcolor="#d1d1d1"
     inkscape:zoom="11.019081"
     inkscape:cx="23.913065"
     inkscape:cy="21.326642"
     inkscape:window-width="1920"
     inkscape:window-height="994"
     inkscape:window-x="0"
     inkscape:window-y="0"
     inkscape:window-maximized="1"
     inkscape:current-layer="svg3" />
  <linearGradient
     id="a"
     x2="1"
     gradientTransform="matrix(0,-43.53155,43.53155,0,1192.407,51.589413)"
     gradientUnits="userSpaceOnUse">
    <stop
       stop-color="#161616"
       offset="0"
       id="stop1" />
    <stop
       stop-color="#343434"
       offset="1"
       id="stop2" />
  </linearGradient>
  <g
     id="g3"
     transform="translate(3.487626,-1.843205)" />
  <rect
     style="opacity:0.2;stroke-width:0.9823"
     width="55"
     height="55.017544"
     x="3.5"
     y="3.9824562"
     rx="8.25"
     ry="8.2526312"
     id="rect1-3" />
  <rect
     style="fill:url(#linearGradient4);stroke-width:0.9823"
     width="55"
     height="55.017544"
     x="3.5"
     y="3"
     rx="8.25"
     ry="8.2526312"
     id="rect2-5" />
  <path
     style="opacity:0.1;fill:#ffffff;stroke-width:0.9823"
     d="M 11.748466,3 C 7.1779651,3 3.4999999,6.6791384 3.4999999,11.251097 v 0.982456 c 0,-4.5719585 3.6779652,-8.2510968 8.2484661,-8.2510968 h 38.503068 c 4.5705,0 8.248466,3.6791383 8.248466,8.2510968 V 11.251097 C 58.5,6.6791384 54.822034,3 50.251534,3 Z"
     id="path4-6" />
  <g
     id="g1"
     transform="translate(-3.002872,-0.423564)">
    <path
       fill="#ffffff"
       d="m 45.41652,10.423564 -1.562224,2.857807 -2.855971,1.563239 2.855971,1.563239 1.562224,2.857826 1.562224,-2.857826 2.855952,-1.563239 -2.855952,-1.563239 z m -7.363641,2.947376 -0.521126,0.952222 -0.951604,0.521448 0.951604,0.521467 0.521126,0.952222 0.521108,-0.952222 0.951624,-0.521467 -0.951624,-0.521448 z m -5.154551,0.736836 c -10.557181,0 -19.145456,8.593836 -19.145456,19.157894 0,10.564039 8.588275,19.157894 19.145456,19.157894 10.557199,0 19.145457,-8.593855 19.145457,-19.157894 h -1.63925 c 0,9.6583 -7.853037,17.517564 -17.506207,17.517564 -9.653168,0 -17.506189,-7.858124 -17.506189,-17.517564 0,-9.65944 7.851901,-17.51758 17.506189,-17.51758 z m 16.936368,5.157899 -1.042235,1.904445 -1.903227,1.042915 1.903227,1.042911 1.042235,1.904465 1.042234,-1.904465 1.903211,-1.042911 -1.903211,-1.042915 z m 2.209089,7.365007 -0.779416,1.430622 -1.429673,0.783319 1.429673,0.77992 0.779416,1.430603 0.78167,-1.430603 1.427417,-0.77992 -1.427417,-0.782199 z"
       id="path1"
       style="stroke-width:1.473;stroke:url(#linearGradient6);stroke-dasharray:none" />
    <path
       fill="#0092ee"
       d="m 32.803161,33.165904 c 0,0 -2.095798,-0.385412 -3.944642,-0.662021 -1.848841,-0.276587 -3.869874,0.199513 -4.386465,0.800334 -0.517713,0.600799 0.681987,1.738941 0.951621,2.194648 0.26848,0.455708 0.124623,0.516928 -0.351193,0.952223 -0.397629,0.362759 -2.010843,0.562271 -2.533089,0.617814 v 0.01701 l -0.08277,-0.0075 -0.08156,0.0075 v -0.01701 c -0.521109,-0.05549 -2.13544,-0.255055 -2.53195,-0.617814 -0.475812,-0.435295 -0.62081,-0.496515 -0.351195,-0.952223 0.268496,-0.455707 1.468197,-1.594969 0.951619,-2.194648 -0.317202,-0.367296 -1.195179,-0.686972 -2.25214,-0.817328 -0.0135,0.258454 -0.02041,0.518048 -0.02041,0.778781 0,8.139267 6.593298,14.736847 14.72728,14.736847 0.10646,0 0.211852,-0.0053 0.317208,-0.0075 0.437274,-1.632387 1.005974,-4.430121 0.0053,-5.123886 -1.43421,-0.993037 -3.062139,0.08282 -3.062139,0.08282 0,0 -1.158924,0.634819 -1.738952,-0.02721 -0.578907,-0.662084 -0.688796,-1.711801 -0.634419,-2.429371 0.05545,-0.717573 0.662727,-2.677572 1.766141,-2.181054 1.103413,0.497653 3.305706,0.879677 3.779244,0.2766 1.214451,-1.546254 -0.527903,-5.426577 -0.527903,-5.426577"
       id="path2"
       style="stroke-width:1.47323" />
    <path
       fill="#bee34a"
       d="m 32.803161,33.165904 c 0,0 7.728423,-2.302335 8.169108,-0.09401 0.441826,2.208254 -2.316702,2.318218 -0.66159,3.423487 1.312991,0.87401 2.414147,0.847934 2.815173,0.799183 v -0.02716 l 0.0815,0.01592 0.08276,-0.01592 v 0.02716 c 0.401043,0.04883 1.502181,0.07594 2.81519,-0.800322 1.655113,-1.10413 -1.103415,-1.214094 -0.66273,-3.423479 0.14274,-0.709643 1.015043,-0.953362 2.133185,-0.95904 -0.589096,-7.598542 -6.93314,-13.582847 -14.677426,-13.582847 -0.235628,0 -0.470138,0.0066 -0.703508,0.01701 -0.326258,1.273034 -0.598153,3.078853 0.139347,4.018619 0.474674,0.604215 2.676969,0.221047 3.780382,-0.275467 1.103416,-0.497655 1.71062,1.462351 1.765007,2.181052 0.05545,0.717581 -0.05439,1.766152 -0.634418,2.42931 -0.57889,0.66202 -1.73781,0.02723 -1.73781,0.02723 0,0 -1.627938,-1.076921 -3.062149,-0.08282 -1.43421,0.993029 0.359127,6.320972 0.359127,6.320972"
       id="path3"
       style="stroke-width:1.47323" />
    <path
       fill="#f15976"
       d="m 19.491969,35.497726 c -0.268478,0.455709 -0.124603,0.518067 0.351195,0.952242 0.397629,0.362739 2.010841,0.562254 2.533089,0.618934 v 0.01592 l 0.08156,-0.0075 0.08276,0.0075 v -0.01592 c 0.521109,-0.05667 2.134321,-0.256195 2.53195,-0.618934 0.475813,-0.434175 0.62081,-0.496533 0.351194,-0.952242 -0.268493,-0.455708 -1.468196,-1.59383 -0.951606,-2.194649 0.517714,-0.6008 2.538747,-1.076921 4.38759,-0.800333 1.847703,0.275469 3.944643,0.662038 3.944643,0.662038 0,0 -1.793335,-5.327943 -0.359122,-6.322112 1.435342,-0.993029 3.063281,0.0839 3.063281,0.0839 0,0 1.157783,0.63481 1.737812,-0.02837 0.578892,-0.66202 0.688783,-1.711729 0.634415,-2.429311 -0.05545,-0.71756 -0.662727,-2.677568 -1.766143,-2.179913 -1.103415,0.496514 -3.305708,0.878548 -3.779244,0.275469 -0.737498,-0.9409 -0.465623,-2.745599 -0.140487,-4.018633 -7.548299,0.355941 -13.610263,6.39691 -14.002235,13.939913 1.056961,0.131494 1.936058,0.45117 2.252127,0.817328 0.516593,0.600818 -0.683109,1.740081 -0.951604,2.194649"
       id="path4"
       style="stroke-width:1.47323" />
    <path
       fill="#10e7c4"
       d="m 47.625607,33.26567 c 0,-0.388831 -0.01933,-0.773122 -0.04988,-1.154017 -1.117003,0.0043 -1.990445,0.249397 -2.132063,0.959041 -0.441807,2.208244 2.31786,2.319348 0.661608,3.42348 -1.31187,0.875147 -2.413008,0.847935 -2.81519,0.800312 v -0.02713 l -0.0815,0.01476 a 1.623398,1.6244526 0 0 1 -0.08276,-0.01476 v 0.02712 c -0.401026,0.04883 -1.502183,0.07485 -2.814033,-0.800312 -1.656252,-1.104132 1.103404,-1.215236 0.66159,-3.42348 -0.441825,-2.208263 -8.170248,0.09528 -8.170248,0.09528 0,0 1.742349,3.880314 0.52792,5.426558 -0.473535,0.603085 -2.675828,0.221053 -3.779244,-0.276601 -1.103415,-0.497654 -1.710636,1.46235 -1.765003,2.181053 -0.05662,0.717579 0.05438,1.767291 0.634396,2.429309 0.578909,0.662039 1.73783,0.02721 1.73783,0.02721 0,0 1.627921,-1.076921 3.062132,-0.08281 1.000325,0.693768 0.431632,3.491497 -0.0043,5.123892 7.985555,-0.170044 14.408918,-6.696207 14.408918,-14.728912"
       id="path5"
       style="stroke-width:1.47323" />
  </g>
</svg>
