<?xml version="1.0" encoding="UTF-8" standalone="no"?>
<svg
   width="64"
   height="64"
   version="1.1"
   id="svg11"
   sodipodi:docname="picard.svg"
   inkscape:version="1.4 (unknown)"
   xmlns:inkscape="http://www.inkscape.org/namespaces/inkscape"
   xmlns:sodipodi="http://sodipodi.sourceforge.net/DTD/sodipodi-0.dtd"
   xmlns:xlink="http://www.w3.org/1999/xlink"
   xmlns="http://www.w3.org/2000/svg"
   xmlns:svg="http://www.w3.org/2000/svg">
  <defs
     id="defs11">
    <linearGradient
       id="linearGradient1"
       inkscape:collect="always">
      <stop
         style="stop-color:#00ccff;stop-opacity:1"
         offset="0"
         id="stop1" />
      <stop
         style="stop-color:#aa88de;stop-opacity:1;"
         offset="1"
         id="stop2" />
    </linearGradient>
    <linearGradient
       id="b"
       x2="1"
       gradientTransform="matrix(0.90223363,-34.474555,35.186874,0.8839689,33.535985,48.965071)"
       gradientUnits="userSpaceOnUse">
      <stop
         stop-color="#ff7bf0"
         offset="0"
         id="stop3" />
      <stop
         stop-color="#00fff0"
         offset="1"
         id="stop4" />
    </linearGradient>
    <linearGradient
       inkscape:collect="always"
       xlink:href="#linearGradient1"
       id="linearGradient2"
       x1="42.536129"
       y1="40.214195"
       x2="35.074394"
       y2="19.703997"
       gradientUnits="userSpaceOnUse"
       gradientTransform="translate(-2.5000004)" />
  </defs>
  <sodipodi:namedview
     id="namedview11"
     pagecolor="#ffffff"
     bordercolor="#000000"
     borderopacity="0.25"
     inkscape:showpageshadow="2"
     inkscape:pageopacity="0.0"
     inkscape:pagecheckerboard="0"
     inkscape:deskcolor="#d1d1d1"
     inkscape:zoom="8.0729167"
     inkscape:cx="35.860645"
     inkscape:cy="52.087742"
     inkscape:window-width="1920"
     inkscape:window-height="998"
     inkscape:window-x="0"
     inkscape:window-y="0"
     inkscape:window-maximized="1"
     inkscape:current-layer="svg11" />
  <path
     style="opacity:0.2;stroke-width:1.37042"
     d="m 32.000004,5.3658528 c -15.173551,0 -27.5000041,12.2444522 -27.5000041,27.3170722 0,15.072621 12.3264531,27.31708 27.5000041,27.317076 15.173545,0 27.50001,-12.244455 27.499996,-27.317076 C 59.5,17.610305 47.173549,5.3658528 32.000004,5.3658528 Z"
     id="path1" />
  <path
     style="fill:#2d3d53;fill-opacity:1;stroke-width:1.37042"
     d="m 32.000004,3.9999991 c -15.173551,0 -27.5000041,12.2444519 -27.5000041,27.3170729 0,15.07262 12.3264531,27.317079 27.5000041,27.317075 15.173545,0 27.50001,-12.244455 27.499996,-27.317075 C 59.5,16.244451 47.173549,3.9999991 32.000004,3.9999991 Z"
     id="path2" />
  <path
     style="opacity:0.1;fill:#ffffff;stroke-width:1.37042"
     d="m 32,3.9999991 c -15.173551,0 -27.4999999,12.2444539 -27.4999999,27.3170739 0,0.229234 0.01045,0.455034 0.016114,0.682927 C 4.8831891,17.243475 17.057218,5.3658528 32,5.3658528 46.942775,5.3658528 59.116811,17.243475 59.483886,32 59.489556,31.772107 59.5,31.546307 59.5,31.317073 59.5,16.244453 47.173544,3.9999991 32,3.9999991 Z"
     id="path5" />
  <path
     d="m 25.580763,25.61276 v 19.848879 c 0.01997,0.7868 -0.202549,1.568008 -0.647589,2.237416 -0.579117,0.873446 -1.489138,1.486955 -2.528981,1.702172 -0.805919,0.169097 -1.656039,0.34519 -2.463372,0.512879 -1.039834,0.21662 -2.12533,0.01955 -3.016812,-0.546419 -0.89292,-0.568785 -1.516253,-1.4604 -1.738773,-2.479189 -0.03276,-0.152327 -0.06564,-0.304657 -0.09846,-0.454191 -0.219662,-1.020184 -0.01852,-2.083693 0.56057,-2.957139 0.579114,-0.873441 1.489158,-1.485554 2.528989,-1.703564 0.805912,-0.166307 1.657461,-0.343792 2.463376,-0.512891 0.112725,-0.02234 0.223937,-0.04052 0.333769,-0.0545 v -0.01231 c 0,0 0.600514,-0.125775 1.220993,-0.254345 0.781662,-0.163508 1.340803,-0.839905 1.340803,-1.623908 V 19.131167 c 0,-0.788198 0.566275,-1.468787 1.353643,-1.625304 3.615899,-0.722516 13.482231,-2.695806 17.40337,-3.478413 0.402244,-0.08104 0.818749,0.01958 1.138263,0.272516 0.318085,0.255742 0.503511,0.634473 0.50494,1.036954 l 0.0642,26.443737 c 0.0097,0.772829 -0.211108,1.537269 -0.646157,2.194103 -0.579115,0.873442 -1.489153,1.486957 -2.528986,1.702175 -0.807341,0.167699 -1.657464,0.345181 -2.464805,0.512881 -1.039828,0.216615 -2.125319,0.01957 -3.016807,-0.54923 -0.891508,-0.56737 -1.517688,-1.457587 -1.737353,-2.477776 l -0.09848,-0.45559 c -0.222518,-1.018786 -0.01999,-2.080898 0.559143,-2.955738 0.579117,-0.873442 1.489156,-1.48416 2.528988,-1.702175 0.807341,-0.167698 1.657465,-0.343784 2.464803,-0.511481 0.126979,-0.02657 0.256748,-0.04751 0.386551,-0.06287 l 1.135419,-0.223642 c 0.790218,-0.156522 1.359349,-0.837108 1.359349,-1.625305 V 22.331415 Z m 16.360681,-4.912264 v -1.461798 c 0,-0.338201 -0.155479,-0.658222 -0.422212,-0.872047 -0.266733,-0.215219 -0.617626,-0.300468 -0.957106,-0.233382 -3.089559,0.607913 -10.54815,2.073903 -13.623444,2.679027 -0.788792,0.155123 -1.357919,0.83572 -1.357919,1.625317 v 1.545645 z"
     id="path4-3"
     style="fill:url(#linearGradient2)" />
</svg>
