<?xml version="1.0" encoding="UTF-8" standalone="no"?>
<svg
   width="62"
   height="62"
   version="1.1"
   id="svg9"
   sodipodi:docname="pidgin.svg"
   inkscape:version="1.4 (unknown)"
   xmlns:inkscape="http://www.inkscape.org/namespaces/inkscape"
   xmlns:sodipodi="http://sodipodi.sourceforge.net/DTD/sodipodi-0.dtd"
   xmlns:xlink="http://www.w3.org/1999/xlink"
   xmlns="http://www.w3.org/2000/svg"
   xmlns:svg="http://www.w3.org/2000/svg">
  <defs
     id="defs9">
    <linearGradient
       id="linearGradient11"
       inkscape:collect="always">
      <stop
         style="stop-color:#c7b2cc;stop-opacity:1;"
         offset="0"
         id="stop11" />
      <stop
         style="stop-color:#e9f4fe;stop-opacity:1;"
         offset="1"
         id="stop12" />
    </linearGradient>
    <linearGradient
       id="linearGradient9"
       inkscape:collect="always">
      <stop
         style="stop-color:#714f79;stop-opacity:1;"
         offset="0"
         id="stop9" />
      <stop
         style="stop-color:#976ea1;stop-opacity:1;"
         offset="1"
         id="stop10" />
    </linearGradient>
    <linearGradient
       inkscape:collect="always"
       xlink:href="#linearGradient9"
       id="linearGradient10"
       x1="353.18683"
       y1="548.62384"
       x2="353.94061"
       y2="505.14484"
       gradientUnits="userSpaceOnUse"
       gradientTransform="matrix(1.177631,0,0,1.2012301,-387.48538,-602.04512)" />
    <linearGradient
       inkscape:collect="always"
       xlink:href="#linearGradient11"
       id="linearGradient12"
       x1="365.37393"
       y1="548.62384"
       x2="368.52997"
       y2="525.96381"
       gradientUnits="userSpaceOnUse"
       gradientTransform="matrix(1.177637,0,0,1.1800365,-344.10768,-614.82597)" />
  </defs>
  <sodipodi:namedview
     id="namedview9"
     pagecolor="#ffffff"
     bordercolor="#000000"
     borderopacity="0.25"
     inkscape:showpageshadow="2"
     inkscape:pageopacity="0.0"
     inkscape:pagecheckerboard="0"
     inkscape:deskcolor="#d1d1d1"
     inkscape:zoom="7.7916667"
     inkscape:cx="37.860962"
     inkscape:cy="40.363636"
     inkscape:window-width="1920"
     inkscape:window-height="998"
     inkscape:window-x="0"
     inkscape:window-y="0"
     inkscape:window-maximized="1"
     inkscape:current-layer="svg9" />
  <linearGradient
     id="a"
     x1="355.73465"
     x2="355.6907"
     y1="546.99841"
     y2="505.32748"
     gradientUnits="userSpaceOnUse">
    <stop
       stop-color="#2f74c8"
       offset="0"
       id="stop1" />
    <stop
       stop-color="#4aa2e4"
       offset="1"
       id="stop2" />
  </linearGradient>
  <linearGradient
     id="b"
     x1="373.44516"
     x2="373.44516"
     y1="546.79541"
     y2="507.86609"
     gradientTransform="matrix(-0.56777405,0,0,0.61822428,579.27321,212.13023)"
     gradientUnits="userSpaceOnUse">
    <stop
       stop-color="#b1d7fc"
       offset="0"
       id="stop3" />
    <stop
       stop-color="#f4fcff"
       offset="1"
       id="stop4" />
  </linearGradient>
  <g
     id="g3"
     transform="translate(-0.99987203,-0.74999714)">
    <path
       d="M 51.445914,11.789723 C 45.977277,7.2499973 38.716076,4.7499972 31.000026,4.7499972 c -7.716192,0 -14.977404,2.5001684 -20.445913,7.0397258 -5.5161988,4.579137 -8.55411,10.681913 -8.55411,17.184341 0,6.206156 2.7691522,12.047256 7.8172324,16.547737 -0.09103,0.208834 -0.1632667,0.428541 -0.2093829,0.659523 l -1.6587168,8.322518 c -0.1972296,0.989093 0.067831,1.578886 0.3246375,1.899698 0.296928,0.370547 0.7370322,0.574741 1.2393625,0.574741 0.3792797,0 0.7869043,-0.114118 1.2116533,-0.33936 l 9.647776,-5.112564 c 3.340246,1.096685 6.931195,1.671749 10.627261,1.671749 7.716227,0 14.977241,-2.500118 20.445935,-7.039687 5.516035,-4.578997 8.553947,-10.681784 8.553947,-17.184198 0,-6.502585 -3.03777,-12.605361 -8.553806,-17.184498 z"
       id="path4"
       style="fill:url(#linearGradient10);stroke-width:1.18938" />
    <g
       id="g2"
       transform="matrix(0.99999498,0,0,1.01796,-40.977472,24.38024)">
      <path
         d="m 78.254679,9.5955351 c 2.734344,-2.427949 6.364963,-3.765001 10.222984,-3.765001 3.858104,0 7.488735,1.337135 10.222996,3.765001 2.758101,2.4490119 4.277071,5.7129109 4.277071,9.1905609 0,3.319195 -1.38459,6.443106 -3.908647,8.850085 0.04569,0.111749 0.08173,0.229198 0.104692,0.352725 l 0.829355,4.451062 c 0.0986,0.528999 -0.0338,0.844434 -0.162377,1.016011 -0.148547,0.198164 -0.368529,0.307388 -0.619684,0.307388 -0.189647,0 -0.393449,-0.06101 -0.605824,-0.181513 l -4.823919,-2.734286 c -1.670124,0.586525 -3.465597,0.894066 -5.313651,0.894066 -3.858104,0 -7.488652,-1.337111 -10.222984,-3.764977 -2.758026,-2.448942 -4.277001,-5.712852 -4.277001,-9.190478 0,-3.477733 1.518892,-6.741632 4.276918,-9.1906439 z"
         id="path6"
         style="fill:url(#linearGradient12);stroke-width:1.17884" />
      <ellipse
         cx="82.435509"
         cy="18.754091"
         opacity="0.837"
         id="circle6"
         style="fill:#714f79;fill-opacity:1;stroke-width:1.17884"
         rx="2.6344812"
         ry="2.6398492" />
      <ellipse
         cx="88.442078"
         cy="18.754091"
         opacity="0.837"
         id="circle7"
         style="fill:#714f79;fill-opacity:1;stroke-width:1.17884"
         rx="2.6344812"
         ry="2.6398492" />
      <ellipse
         cx="94.754082"
         cy="18.754091"
         opacity="0.837"
         id="circle8"
         style="fill:#714f79;fill-opacity:1;stroke-width:1.17884"
         rx="2.6344812"
         ry="2.6398492" />
    </g>
    <g
       id="g1"
       transform="matrix(1.1737965,0,0,1.1786306,-0.10702491,-57.994433)">
      <path
         fill="#f9f9f9"
         d="m 31.325902,65.289166 c -0.812615,2.392488 -0.04913,4.875687 1.7046,5.544676 1.753735,0.66899 3.836296,-0.729463 4.648911,-3.121951 0.808834,-2.392488 0.04536,-4.875687 -1.708381,-5.544676 -1.753735,-0.66899 -3.832516,0.729463 -4.64891,3.121951"
         id="path4-3"
         style="stroke-width:3.7796" />
      <path
         fill-opacity="0.302"
         d="m 37.811699,67.220543 c -0.04158,0.166302 -0.07559,0.325045 -0.136066,0.491348 -0.812614,2.392488 -2.891396,3.790941 -4.645131,3.125731 -1.753735,-0.672769 -2.520994,-3.152188 -1.70838,-5.548456 q 0.08693,-0.245674 0.19276,-0.47245 c -0.566941,2.229965 0.207878,4.429693 1.840666,5.049548 1.636568,0.623634 3.545267,-0.555602 4.456151,-2.653281"
         id="path5-6"
         style="stroke-width:3.7796" />
      <path
         d="m 32.119618,66.324777 a 2.0069687,2.0069687 0 0 0 2.237524,2.709975 2.0031891,2.0031891 0 0 0 1.52696,-1.360657 2.0031891,2.0031891 0 1 0 -3.764484,-1.349318"
         id="path6-7"
         style="fill:#754d78;fill-opacity:1;stroke-width:3.7796" />
      <path
         fill="#2d2d2d"
         d="m 33.056959,66.661161 a 1.001848,1.001848 0 1 0 1.886022,0.676549 1.0053741,1.0053741 0 1 0 -1.882242,-0.680328"
         id="path7"
         style="stroke-width:3.7796" />
      <path
         fill="#f9f9f9"
         d="m 33.109874,67.046681 a 0.4997157,0.4997157 0 1 0 0.941121,0.336384 0.52914428,0.52914428 0 0 0 -0.07559,-0.502687 0.49134826,0.49134826 0 0 0 -0.487569,-0.170082 0.49134826,0.49134826 0 0 0 -0.37796,0.340164 M 15.375981,65.383656 c -0.801275,1.840666 -0.27969,3.817398 1.164118,4.437253 1.443808,0.619854 3.273135,-0.370401 4.074411,-2.203508 0.805055,-1.829328 0.27969,-3.813619 -1.164118,-4.429694 -1.451367,-0.612295 -3.273135,0.370401 -4.08197,2.203508"
         id="path8"
         style="stroke-width:3.7796" />
      <path
         fill-opacity="0.302"
         d="m 20.962233,65.34586 c 0.102049,0.706786 -0.0038,1.511841 -0.343944,2.2791 -0.805055,1.833107 -2.645721,2.800685 -4.093309,2.18839 -1.107423,-0.472451 -1.659245,-1.761295 -1.496722,-3.159748 0.136065,0.982697 0.653871,1.799091 1.496722,2.158153 1.447588,0.619855 3.288254,-0.355283 4.093309,-2.18839 q 0.279691,-0.642532 0.340164,-1.277505"
         id="path9"
         style="stroke-width:3.7796" />
      <path
         d="m 16.502303,65.999731 a 1.5118408,1.5118408 0 0 0 0.729463,1.349318 1.4967224,1.4967224 0 0 0 2.267761,-1.349318 1.4986122,1.4986122 0 1 0 -2.997224,0"
         id="path10"
         style="fill:#754d78;fill-opacity:1;stroke-width:3.7796" />
      <path
         fill="#2d2d2d"
         d="m 17.250664,65.999731 a 0.7483612,0.7483612 0 1 0 1.496722,0 0.7483612,0.7483612 0 1 0 -1.496722,0"
         id="path11"
         style="stroke-width:3.7796" />
      <path
         fill="#f9f9f9"
         d="m 17.38295,66.256744 a 0.3779602,0.3779602 0 0 0 0.181421,0.340164 c 0.120947,0.06803 0.264572,0.06803 0.385519,0 a 0.3779602,0.3779602 0 0 0 0.181421,-0.340164 0.3779602,0.3779602 0 0 0 -0.181421,-0.336385 0.3779602,0.3779602 0 0 0 -0.385519,0 0.3779602,0.3779602 0 0 0 -0.181421,0.340165"
         id="path12"
         style="stroke-width:3.7796" />
      <path
         d="m 21.801305,76.200877 c 0.9449,3.507471 1.655465,4.800094 4.195358,4.800094 2.702415,0 3.953463,-1.470265 4.195358,-4.800094 -3.012343,-0.876868 -5.32168,-0.907105 -8.390716,0"
         id="path13"
         style="fill:#de6e00;fill-opacity:1;stroke-width:3.7796" />
      <path
         d="m 31.000856,75.98544 c 0,0 -0.113388,-1.644127 -2.067442,-3.412981 -1.950275,-1.768854 -2.75911,-1.591212 -3.099274,-1.545857 -0.0189,2.022087 0.136066,7.869131 0.166302,9.974369 1.610111,-0.835292 3.242899,-4.127325 5.000414,-5.011752"
         id="path14"
         style="fill:#ffc894;fill-opacity:1;stroke-width:3.7796" />
      <path
         d="m 25.819022,70.996365 c -0.461112,0.01512 -1.285065,0.249454 -2.747771,1.572314 -1.950275,1.772634 -2.067442,3.416761 -2.067442,3.416761 1.632788,0.820173 3.390303,4.17646 5.000413,5.007972 0.04536,-2.120356 0.04536,-7.861572 0.04536,-9.978149 q -0.09827,-0.01512 -0.226776,-0.02268"
         id="path15"
         style="fill:#eb953e;fill-opacity:1;stroke-width:3.7796" />
    </g>
  </g>
</svg>
