<?xml version="1.0" encoding="UTF-8" standalone="no"?>
<svg
   width="62"
   height="62"
   version="1"
   id="svg7"
   sodipodi:docname="pling-store.svg"
   inkscape:version="1.4 (e7c3feb100, 2024-10-09)"
   xmlns:inkscape="http://www.inkscape.org/namespaces/inkscape"
   xmlns:sodipodi="http://sodipodi.sourceforge.net/DTD/sodipodi-0.dtd"
   xmlns="http://www.w3.org/2000/svg"
   xmlns:svg="http://www.w3.org/2000/svg">
  <defs
     id="defs7" />
  <sodipodi:namedview
     id="namedview7"
     pagecolor="#ffffff"
     bordercolor="#000000"
     borderopacity="0.25"
     inkscape:showpageshadow="2"
     inkscape:pageopacity="0.0"
     inkscape:pagecheckerboard="0"
     inkscape:deskcolor="#d1d1d1"
     inkscape:zoom="5.84375"
     inkscape:cx="28.491979"
     inkscape:cy="33.368984"
     inkscape:window-width="1920"
     inkscape:window-height="994"
     inkscape:window-x="0"
     inkscape:window-y="0"
     inkscape:window-maximized="1"
     inkscape:current-layer="svg7" />
  <g
     id="g7"
     transform="translate(-1,-1)">
    <path
       style="opacity:0.2;stroke-width:0.991189"
       d="M 32,4.9824554 A 14,13.754391 0 0 0 18,18.73684 14,13.754391 0 0 0 32,32.491231 14,13.754391 0 0 0 46,18.73684 14,13.754391 0 0 0 32,4.9824554 Z m 0,5.8947346 a 8,7.8596498 0 0 1 8,7.85965 8,7.8596498 0 0 1 -8,7.859651 8,7.8596498 0 0 1 -8,-7.859651 8,7.8596498 0 0 1 8,-7.85965 z"
       id="path1" />
    <path
       style="opacity:0.2;stroke-width:0.991189"
       d="m 7.0032363,16.771936 c 0.012847,10.05054 -0.025772,20.101818 0.01944,30.151885 0.2090682,6.473098 6.0511887,12.266175 13.0627907,12.952418 4.520219,0.229992 9.058891,0.05611 13.587068,0.110244 3.538937,-0.06223 7.093512,0.148422 10.619083,-0.158122 6.993378,-0.849399 12.674567,-6.780259 12.70267,-13.258861 0.01139,-9.932462 0.0017,-19.865058 0.0049,-29.797569 -16.66531,0 -33.330622,0 -49.9959306,0 z"
       id="path2" />
    <path
       style="fill:#ec770b;stroke-width:0.991189"
       d="M 32,4 A 14,13.754391 0 0 0 18,17.754391 14,13.754391 0 0 0 32,31.508772 14,13.754391 0 0 0 46,17.754391 14,13.754391 0 0 0 32,4 Z m 0,5.8947374 a 8,7.8596498 0 0 1 8,7.8596536 8,7.8596498 0 0 1 -8,7.85965 8,7.8596498 0 0 1 -8,-7.85965 8,7.8596498 0 0 1 8,-7.8596536 z"
       id="path3" />
    <path
       style="opacity:0.2;fill:#ffffff;stroke-width:0.991189"
       d="M 32,4 A 14,13.754391 0 0 0 18,17.754391 14,13.754391 0 0 0 18.02148,18.161183 14,13.754391 0 0 1 32,4.9824561 14,13.754391 0 0 1 45.978516,18.330049 14,13.754391 0 0 0 46,17.754391 14,13.754391 0 0 0 32,4 Z m 7.978516,14.170779 A 8,7.8596498 0 0 1 32,25.614041 8,7.8596498 0 0 1 24.021484,18.320453 8,7.8596498 0 0 0 24,18.736841 a 8,7.8596498 0 0 0 8,7.859651 8,7.8596498 0 0 0 8,-7.859651 8,7.8596498 0 0 0 -0.02148,-0.566062 z"
       id="path4" />
    <path
       style="fill:#ffa123;stroke-width:0.991189"
       d="m 7.0032363,15.789477 c 0.012847,10.050541 -0.025772,20.10182 0.01944,30.151893 0.2090682,6.473098 6.0511887,12.266175 13.0627907,12.952411 4.520219,0.229999 9.058891,0.05611 13.587068,0.110251 3.538937,-0.06223 7.093512,0.148415 10.619083,-0.158126 6.993378,-0.849396 12.674567,-6.780262 12.70267,-13.258863 0.01139,-9.932464 0.0017,-19.865052 0.0049,-29.797571 -16.66531,0 -33.330622,0 -49.9959306,0 z"
       id="path5" />
    <path
       style="opacity:0.2;stroke-width:0.991189"
       d="m 32.185547,24.635082 c -0.57747,0.01496 -1.164583,0.08679 -1.751953,0.218746 -1.903328,0.419477 -3.839018,0.906993 -5.556641,1.335527 -1.566769,0.317433 -3.113261,1.999924 -2.847656,3.375276 l 5.1875,22.65022 c 0.320371,1.399452 1.930808,2.19515 3.611328,1.780702 1.680518,-0.414448 2.777406,-1.874123 2.457031,-3.273574 l -1.912109,-8.339363 c 0.890387,-0.238941 1.885277,-0.463883 2.736328,-0.623633 4.753976,-1.171635 7.741071,-5.899645 6.673828,-10.559487 -0.923141,-4.010985 -4.555368,-6.669322 -8.597656,-6.564414 z m 0.265625,4.910358 a 3.2128347,3.9757907 79.271055 0 1 3.472656,2.358281 3.2128347,3.9757907 79.271055 0 1 -3.103516,4.004662 3.2128347,3.9757907 79.271055 0 1 -0.06641,0.0098 L 30.546875,36.420717 29,30.180585 31.271484,29.666328 a 3.2128347,3.9757907 79.271055 0 1 1.179688,-0.120888 z"
       id="path6" />
    <path
       style="fill:#ffffff;stroke-width:0.991189"
       d="m 32.185547,23.65296 c -0.57747,0.01496 -1.164583,0.0868 -1.751953,0.218753 -1.903328,0.419477 -3.839018,0.906991 -5.556641,1.335526 -1.566769,0.317433 -3.113261,1.999924 -2.847656,3.375276 l 5.1875,22.65022 c 0.320371,1.399452 1.930808,2.195149 3.611328,1.7807 1.680518,-0.414446 2.777406,-1.87412 2.457031,-3.273571 l -1.912109,-8.33937 c 0.890387,-0.238936 1.885277,-0.463877 2.736328,-0.623627 4.753976,-1.171635 7.741071,-5.899647 6.673828,-10.559488 -0.923141,-4.010984 -4.555368,-6.66932 -8.597656,-6.564419 z m 0.265625,4.910365 a 3.2128347,3.9757907 79.271055 0 1 3.472656,2.358281 3.2128347,3.9757907 79.271055 0 1 -3.103516,4.004662 3.2128347,3.9757907 79.271055 0 1 -0.06641,0.0098 L 30.546875,35.438602 29,29.19847 31.271484,28.684212 a 3.2128347,3.9757907 79.271055 0 1 1.179688,-0.120887 z"
       id="path7" />
    <rect
       style="opacity:0.2;fill:#ffffff;stroke-width:0.991189"
       width="50"
       height="0.98245603"
       x="7"
       y="15.789477"
       id="rect7" />
  </g>
</svg>
