<?xml version="1.0" encoding="UTF-8" standalone="no"?>
<svg
   width="62"
   height="62"
   version="1.1"
   id="svg5"
   sodipodi:docname="pocket.svg"
   inkscape:version="1.4 (unknown)"
   xmlns:inkscape="http://www.inkscape.org/namespaces/inkscape"
   xmlns:sodipodi="http://sodipodi.sourceforge.net/DTD/sodipodi-0.dtd"
   xmlns:xlink="http://www.w3.org/1999/xlink"
   xmlns="http://www.w3.org/2000/svg"
   xmlns:svg="http://www.w3.org/2000/svg">
  <defs
     id="defs5">
    <linearGradient
       id="linearGradient1"
       inkscape:collect="always">
      <stop
         style="stop-color:#233143;stop-opacity:1;"
         offset="0"
         id="stop1" />
      <stop
         style="stop-color:#c83771;stop-opacity:1"
         offset="1"
         id="stop2" />
    </linearGradient>
    <linearGradient
       inkscape:collect="always"
       xlink:href="#linearGradient1"
       id="linearGradient2"
       x1="31.5"
       y1="59.017544"
       x2="32.304813"
       y2="4.9824562"
       gradientUnits="userSpaceOnUse" />
  </defs>
  <sodipodi:namedview
     id="namedview5"
     pagecolor="#ffffff"
     bordercolor="#000000"
     borderopacity="0.25"
     inkscape:showpageshadow="2"
     inkscape:pageopacity="0.0"
     inkscape:pagecheckerboard="0"
     inkscape:deskcolor="#d1d1d1"
     inkscape:zoom="11.6875"
     inkscape:cx="31.957219"
     inkscape:cy="31.957219"
     inkscape:window-width="1920"
     inkscape:window-height="998"
     inkscape:window-x="0"
     inkscape:window-y="0"
     inkscape:window-maximized="1"
     inkscape:current-layer="svg5" />
  <rect
     style="opacity:0.2;stroke-width:0.9823"
     width="55"
     height="55.017544"
     x="4"
     y="4.9824562"
     rx="8.25"
     ry="8.2526312"
     id="rect1" />
  <rect
     style="fill:url(#linearGradient2);stroke-width:0.9823;fill-opacity:1"
     width="55"
     height="55.017544"
     x="4"
     y="4"
     rx="8.25"
     ry="8.2526312"
     id="rect2" />
  <path
     style="opacity:0.1;fill:#ffffff;stroke-width:0.9823"
     d="M 12.248466,4 C 7.6779652,4 4,7.6791384 4,12.251097 v 0.982456 C 4,8.6615945 7.6779652,4.9824561 12.248466,4.9824561 H 50.751534 C 55.322034,4.9824561 59,8.6615945 59,13.233553 V 12.251097 C 59,7.6791384 55.322034,4 50.751534,4 Z"
     id="path4" />
  <g
     id="g2"
     transform="matrix(1,0,0,1.0000209,-0.5,-68.010528)">
    <path
       style="opacity:0.2"
       d="m 17.9258,84.999603 c -2.1748,0 -3.9258,1.804025 -3.9258,4.043057 0,16.59804 2.9474,28.0184 18,27.9564 15.0526,-0.06 18,-11.37356 18,-27.9564 0,-2.239032 -1.75104,-4.043057 -3.9258,-4.043057 h -28.148 z m 5.6562,9.10173 c 0.62752,0 1.25648,0.246203 1.73828,0.73441 l 6.6796,6.769497 6.6796,-6.769497 c 0.48178,-0.488207 1.1017,-0.72661 1.73048,-0.72661 0.62876,0 1.26432,0.238403 1.74608,0.72661 0.96362,0.976214 0.96362,2.562837 0,3.539051 l -8.2304,8.336116 c -0.52918,0.53601 -1.23674,0.75581 -1.92578,0.70301 -0.68906,0.052 -1.3966,-0.166 -1.92578,-0.70301 l -8.2304,-8.336116 c -0.9636,-0.976214 -0.9636,-2.562837 0,-3.539051 0.4818,-0.488207 1.11078,-0.73441 1.73828,-0.73441 z"
       id="path1" />
    <path
       style="fill:#ffffff"
       d="M 17.9258,84 C 15.751,84 14,85.804226 14,88.043058 14,104.6411 16.9474,116.06146 32,115.99946 47.0526,115.93946 50,104.6261 50,88.043058 50,85.804226 48.24896,84 46.0742,84 h -28.148 z m 5.6562,8.917836 c 0.62752,0 1.25648,0.430098 1.73828,0.918305 l 6.68,6.600099 6.68,-6.800102 c 0.48178,-0.488207 1.1017,-0.726611 1.73048,-0.726611 0.62876,0 1.26432,0.238404 1.74608,0.726611 0.96362,0.976214 0.96362,2.562836 0,3.53905 l -8.2304,8.336122 c -0.52918,0.536 -1.23674,0.75581 -1.92578,0.70301 -0.68906,0.052 -1.3966,-0.166 -1.92578,-0.70301 l -8.2304,-8.336122 c -0.9636,-0.976214 -0.9636,-2.562836 0,-3.53905 0.4818,-0.488207 1.11078,-0.718302 1.73828,-0.718302 z"
       id="path2" />
  </g>
</svg>
