<?xml version="1.0" encoding="UTF-8" standalone="no"?>
<svg
   width="62"
   height="62"
   version="1.1"
   id="svg5"
   sodipodi:docname="pocketcasts.svg"
   inkscape:version="1.4 (e7c3feb100, 2024-10-09)"
   xmlns:inkscape="http://www.inkscape.org/namespaces/inkscape"
   xmlns:sodipodi="http://sodipodi.sourceforge.net/DTD/sodipodi-0.dtd"
   xmlns="http://www.w3.org/2000/svg"
   xmlns:svg="http://www.w3.org/2000/svg">
  <defs
     id="defs5" />
  <sodipodi:namedview
     id="namedview5"
     pagecolor="#ffffff"
     bordercolor="#000000"
     borderopacity="0.25"
     inkscape:showpageshadow="2"
     inkscape:pageopacity="0.0"
     inkscape:pagecheckerboard="0"
     inkscape:deskcolor="#d1d1d1"
     inkscape:zoom="11.75"
     inkscape:cx="32"
     inkscape:cy="32"
     inkscape:window-width="1920"
     inkscape:window-height="998"
     inkscape:window-x="0"
     inkscape:window-y="0"
     inkscape:window-maximized="1"
     inkscape:current-layer="svg5" />
  <g
     id="g5"
     transform="translate(-1,-1.5)">
    <circle
       style="opacity:0.2"
       cx="32"
       cy="33"
       r="28"
       id="circle1" />
    <circle
       style="fill:#b42b6f"
       cx="32"
       cy="32"
       r="28"
       id="circle2" />
    <path
       style="opacity:0.2"
       d="m 32,11 c -12.150264,0 -22,9.849736 -22,22 0,12.150264 9.849736,22 22,22 v -6 c -9.112698,0 -16,-6.887302 -16,-16 0,-9.112698 6.887302,-16 16,-16 9.112698,0 16,6.887302 16,16 h 6 C 54,20.849736 44.150264,11 32,11 Z M 31.9882,21 A 11.999999,11.999999 0 0 0 20,33 11.999999,11.999999 0 0 0 32,45 v -4 a 7.9999994,7.9999994 0 0 1 -8,-8 7.9999994,7.9999994 0 0 1 8,-8 7.9999994,7.9999994 0 0 1 8,8 h 4 A 11.999999,11.999999 0 0 0 32,21 11.999999,11.999999 0 0 0 31.9882,21 Z"
       id="path2" />
    <path
       style="fill:#ffffff"
       d="m 32,10 c -12.150264,0 -22,9.849736 -22,22 0,12.150264 9.849736,22 22,22 v -6 c -9.112698,0 -16,-6.887302 -16,-16 0,-9.112698 6.887302,-16 16,-16 9.112698,0 16,6.887302 16,16 h 6 C 54,19.849736 44.150264,10 32,10 Z"
       id="path3" />
    <path
       style="fill:#ffffff"
       d="M 31.98698,20.000002 A 11.999999,11.999999 0 0 0 20.000002,32 a 11.999999,11.999999 0 0 0 12,12 v -4 a 7.9999994,7.9999994 0 0 1 -8,-8 7.9999994,7.9999994 0 0 1 8,-7.999998 A 7.9999994,7.9999994 0 0 1 40,32 h 4 a 11.999999,11.999999 0 0 0 -11.999998,-11.999998 11.999999,11.999999 0 0 0 -0.0132,0 z"
       id="path4" />
    <path
       style="opacity:0.2;fill:#ffffff"
       d="M 32,4 A 28,28 0 0 0 4,32 28,28 0 0 0 4.0058594,32.490234 28,28 0 0 1 32,5 28,28 0 0 1 59.994141,32.488281 28,28 0 0 0 60,32 28,28 0 0 0 32,4 Z"
       id="path5" />
  </g>
</svg>
