<?xml version="1.0" encoding="UTF-8" standalone="no"?>
<svg
   width="62"
   height="62"
   version="1.1"
   id="svg5"
   sodipodi:docname="podman-desktop.svg"
   inkscape:version="1.4 (unknown)"
   xmlns:inkscape="http://www.inkscape.org/namespaces/inkscape"
   xmlns:sodipodi="http://sodipodi.sourceforge.net/DTD/sodipodi-0.dtd"
   xmlns:xlink="http://www.w3.org/1999/xlink"
   xmlns="http://www.w3.org/2000/svg"
   xmlns:svg="http://www.w3.org/2000/svg">
  <defs
     id="defs5">
    <linearGradient
       id="linearGradient8"
       inkscape:collect="always">
      <stop
         style="stop-color:#2d3d53;stop-opacity:1;"
         offset="0"
         id="stop8" />
      <stop
         style="stop-color:#464157;stop-opacity:1;"
         offset="1"
         id="stop10" />
    </linearGradient>
    <linearGradient
       id="linearGradient4217">
      <stop
         style="stop-color:#000000;stop-opacity:1;"
         offset="0"
         id="stop2" />
      <stop
         style="stop-color:#000000;stop-opacity:0;"
         offset="1"
         id="stop4" />
    </linearGradient>
    <linearGradient
       id="linearGradient4161">
      <stop
         style="stop-color:#334545;stop-opacity:1;"
         offset="0"
         id="stop7" />
      <stop
         style="stop-color:#4d6868;stop-opacity:1"
         offset="1"
         id="stop9" />
    </linearGradient>
    <linearGradient
       id="a-1-2"
       y1="510.79999"
       y2="527.14001"
       gradientUnits="userSpaceOnUse"
       x2="0">
      <stop
         stop-color="#7cbaf8"
         id="stop2-2-7" />
      <stop
         offset="1"
         stop-color="#f4fcff"
         id="stop4-70-0" />
    </linearGradient>
    <linearGradient
       id="c"
       y1="503.79999"
       x1="400.57001"
       y2="519.79999"
       x2="416.57001"
       gradientUnits="userSpaceOnUse">
      <stop
         stop-color="#292c2f"
         id="stop12" />
      <stop
         offset="1"
         stop-opacity="0"
         id="stop14" />
    </linearGradient>
    <linearGradient
       id="b"
       y1="542.79999"
       x1="408.57001"
       y2="521.79999"
       x2="387.57001"
       gradientUnits="userSpaceOnUse"
       gradientTransform="translate(-384.57,-499.8)">
      <stop
         stop-color="#197cf1"
         id="stop7-8" />
      <stop
         offset="1"
         stop-color="#20bcfa"
         id="stop9-7" />
    </linearGradient>
    <linearGradient
       xlink:href="#linearGradient1389"
       id="linearGradient4503-5-6"
       y1="37"
       y2="4"
       x2="0"
       gradientUnits="userSpaceOnUse"
       gradientTransform="matrix(1.0218446,0,0,0.99999999,21.748946,8.2587777)" />
    <linearGradient
       id="linearGradient1389">
      <stop
         style="stop-color:#ffaaaa;stop-opacity:1"
         id="stop1385"
         offset="0" />
      <stop
         offset="1"
         style="stop-color:#ff5555;stop-opacity:1"
         id="stop1387" />
    </linearGradient>
    <linearGradient
       id="paint543_linear_890_11"
       x1="978.5"
       y1="298"
       x2="978.5"
       y2="304"
       gradientUnits="userSpaceOnUse"
       gradientTransform="matrix(0.75000004,0,0,0.75000004,-717.38333,-173.49123)">
      <stop
         offset="0.189495"
         stop-color="#EFF2F6"
         id="stop1829" />
      <stop
         offset="0.850463"
         stop-color="#B7C6CD"
         id="stop1830" />
    </linearGradient>
    <linearGradient
       inkscape:collect="always"
       xlink:href="#linearGradient8"
       id="linearGradient10"
       x1="31.5"
       y1="59.017544"
       x2="31.5"
       y2="19.018715"
       gradientUnits="userSpaceOnUse"
       gradientTransform="translate(-0.5,-1)" />
    <linearGradient
       id="linearGradient4144">
      <stop
         style="stop-color:#c83771;stop-opacity:1"
         offset="0"
         id="stop1141" />
      <stop
         style="stop-color:#de87aa;stop-opacity:1"
         offset="1"
         id="stop1143" />
    </linearGradient>
    <linearGradient
       id="c-0"
       gradientUnits="userSpaceOnUse"
       x1="10"
       x2="24"
       y1="10"
       y2="24"
       gradientTransform="translate(59.728813,26.237288)">
      <stop
         offset="0"
         stop-color="#292c2f"
         id="stop12-2" />
      <stop
         offset="1"
         stop-opacity="0"
         id="stop14-3" />
    </linearGradient>
    <linearGradient
       id="d"
       gradientUnits="userSpaceOnUse"
       x1="24"
       x2="24"
       y1="25"
       y2="7"
       gradientTransform="translate(59.728813,26.237288)">
      <stop
         offset="0"
         stop-color="#bb9d71"
         id="stop2-7" />
      <stop
         offset="1"
         stop-color="#f9f2e7"
         id="stop4-5" />
    </linearGradient>
  </defs>
  <sodipodi:namedview
     id="namedview5"
     pagecolor="#ffffff"
     bordercolor="#000000"
     borderopacity="0.25"
     inkscape:showpageshadow="2"
     inkscape:pageopacity="0.0"
     inkscape:pagecheckerboard="0"
     inkscape:deskcolor="#d1d1d1"
     inkscape:zoom="8.2643105"
     inkscape:cx="25.228965"
     inkscape:cy="30.795068"
     inkscape:window-width="1920"
     inkscape:window-height="998"
     inkscape:window-x="0"
     inkscape:window-y="0"
     inkscape:window-maximized="1"
     inkscape:current-layer="svg5" />
  <rect
     style="opacity:0.2;stroke-width:0.9823"
     width="55"
     height="55.017544"
     x="3.5"
     y="3.9824562"
     rx="8.25"
     ry="8.2526312"
     id="rect1" />
  <rect
     style="fill:url(#linearGradient10);stroke-width:0.9823"
     width="55"
     height="55.017544"
     x="3.5"
     y="3"
     rx="8.25"
     ry="8.2526312"
     id="rect2" />
  <path
     style="opacity:0.1;fill:#ffffff;stroke-width:0.9823"
     d="M 11.748466,3 C 7.1779652,3 3.5,6.6791384 3.5,11.251097 v 0.982456 c 0,-4.5719585 3.6779652,-8.2510969 8.248466,-8.2510969 h 38.503068 c 4.5705,0 8.248466,3.6791384 8.248466,8.2510969 V 11.251097 C 58.5,6.6791384 54.822034,3 50.251534,3 Z"
     id="path4" />
  <g
     id="g1"
     transform="translate(3.7396132,-62.111427)">
    <path
       fill="#cccccc"
       fill-opacity="0.32"
       d="m 41.381211,88.501543 c 0,-0.55104 -0.763949,-0.995674 -1.710505,-0.995674 h -2.567622 v 12.955211 h 2.567622 c 0.946556,0 1.710505,-0.44464 1.710505,-0.999494 z m -1.706779,0.501641 a 0.85711609,0.49783829 0 0 1 -0.857119,0.49404 0.85711609,0.49783829 0 0 1 -0.857114,-0.49404 0.85711609,0.49783829 0 0 1 0.857114,-0.501641 0.85711609,0.49783829 0 0 1 0.857119,0.501641 m -3.42101,-1.497315 h -4.278128 v 12.955211 h 4.278128 z m -1.714233,1.497315 a 0.85711609,0.49783829 0 0 1 -0.857116,0.49404 0.85711609,0.49783829 0 0 1 -0.857115,-0.49404 0.85711609,0.49783829 0 0 1 0.857115,-0.501641 0.85711609,0.49783829 0 0 1 0.857116,0.501641 m -3.421011,-1.497315 h -4.278126 v 12.955211 h 4.278126 z m -1.706779,1.497315 a 0.85711609,0.49783829 0 0 1 -0.857115,0.49404 0.85711609,0.49783829 0 0 1 -0.85712,-0.49404 0.85711609,0.49783829 0 0 1 0.85712,-0.501641 0.85711609,0.49783829 0 0 1 0.857115,0.501641 m -3.42101,-1.497315 h -4.278126 v 12.955211 h 4.278126 z m -1.714234,1.497315 a 0.85711609,0.49783829 0 0 1 -0.857114,0.49404 0.85711609,0.49783829 0 0 1 -0.857116,-0.49404 0.85711609,0.49783829 0 0 1 0.857116,-0.501641 0.85711609,0.49783829 0 0 1 0.857114,0.501641 m -3.421011,-1.497315 h -3.42474 c -0.946553,0 -1.710502,0.444634 -1.710502,0.995674 v 10.960043 c 0,0.554854 0.763949,0.995694 1.714231,0.995694 h 3.421011 z m -1.706779,1.497315 a 0.85711609,0.49783829 0 0 1 -0.857114,0.49404 0.85711609,0.49783829 0 0 1 -0.857118,-0.49404 0.85711609,0.49783829 0 0 1 0.857118,-0.501641 0.85711609,0.49783829 0 0 1 0.857114,0.501641"
       style="stroke-width:3.76327;paint-order:markers stroke fill"
       id="path1-6" />
    <path
       d="m 40.259507,87.445063 c 0,-0.551042 -0.76395,-0.995676 -1.710507,-0.995676 H 35.98138 V 99.400783 H 38.549 c 0.946557,0 1.710507,-0.444634 1.710507,-0.995677 z m -1.70678,0.497838 a 0.85711609,0.49783829 0 0 1 -0.857114,0.497838 0.85711609,0.49783829 0 0 1 -0.857114,-0.494038 0.85711609,0.49783829 0 0 1 0.857114,-0.501638 0.85711609,0.49783829 0 0 1 0.857114,0.497838 M 35.131716,86.449387 H 30.85359 v 12.951396 h 4.278126 z m -1.714229,1.493514 a 0.85711609,0.49783829 0 0 1 -0.857118,0.497838 0.85711609,0.49783829 0 0 1 -0.857117,-0.494038 0.85711609,0.49783829 0 0 1 0.857117,-0.501638 0.85711609,0.49783829 0 0 1 0.857118,0.497838 m -3.421011,-1.493514 h -4.278127 v 12.951396 h 4.281855 z m -1.706782,1.493514 a 0.85711609,0.49783829 0 0 1 -0.857117,0.497838 0.85711609,0.49783829 0 0 1 -0.857112,-0.494038 0.85711609,0.49783829 0 0 1 0.857112,-0.501638 0.85711609,0.49783829 0 0 1 0.857117,0.497838 m -3.42101,-1.493514 h -4.278131 v 12.951396 h 4.278131 z m -1.714234,1.493514 a 0.85711609,0.49783829 0 0 1 -0.857116,0.497838 0.85711609,0.49783829 0 0 1 -0.857117,-0.494038 0.85711609,0.49783829 0 0 1 0.857117,-0.501638 0.85711609,0.49783829 0 0 1 0.857116,0.497838 m -3.421011,-1.493514 h -3.424737 c -0.946552,0 -1.710506,0.444634 -1.710506,0.995676 v 10.960043 c 0,0.551043 0.763954,0.995677 1.714232,0.995677 h 3.421011 z m -1.70678,1.493514 a 0.85711609,0.49783829 0 0 1 -0.857115,0.497838 0.85711609,0.49783829 0 0 1 -0.857116,-0.494038 0.85711609,0.49783829 0 0 1 0.857116,-0.501638 0.85711609,0.49783829 0 0 1 0.857115,0.497838"
       style="stroke-width:3.76327;paint-order:markers stroke fill;fill:#f2f2f2;fill-opacity:1"
       id="path2-7" />
    <path
       fill="none"
       stroke-linecap="round"
       stroke-linejoin="round"
       stroke-width="1.21123"
       d="m 45.57582,102.36915 -18.391759,9.13666 -18.3180605,-9.25546 0.078957,-18.396655 18.3970175,-9.13666 18.312798,9.25544 z"
       id="path3"
       style="stroke:#ffffff;stroke-opacity:1" />
  </g>
</svg>
