<?xml version="1.0" encoding="UTF-8" standalone="no"?>
<svg
   width="62"
   height="62"
   version="1.1"
   id="svg5"
   sodipodi:docname="poedit.svg"
   inkscape:version="1.4 (unknown)"
   xmlns:inkscape="http://www.inkscape.org/namespaces/inkscape"
   xmlns:sodipodi="http://sodipodi.sourceforge.net/DTD/sodipodi-0.dtd"
   xmlns:xlink="http://www.w3.org/1999/xlink"
   xmlns="http://www.w3.org/2000/svg"
   xmlns:svg="http://www.w3.org/2000/svg">
  <defs
     id="defs5">
    <linearGradient
       id="linearGradient8"
       inkscape:collect="always">
      <stop
         style="stop-color:#354b64;stop-opacity:1;"
         offset="0"
         id="stop8" />
      <stop
         style="stop-color:#dd9f59;stop-opacity:1;"
         offset="1"
         id="stop10" />
    </linearGradient>
    <linearGradient
       id="linearGradient4217">
      <stop
         style="stop-color:#000000;stop-opacity:1;"
         offset="0"
         id="stop2" />
      <stop
         style="stop-color:#000000;stop-opacity:0;"
         offset="1"
         id="stop4" />
    </linearGradient>
    <linearGradient
       id="linearGradient4161">
      <stop
         style="stop-color:#334545;stop-opacity:1;"
         offset="0"
         id="stop7" />
      <stop
         style="stop-color:#4d6868;stop-opacity:1"
         offset="1"
         id="stop9" />
    </linearGradient>
    <linearGradient
       id="a-1-2"
       y1="510.79999"
       y2="527.14001"
       gradientUnits="userSpaceOnUse"
       x2="0">
      <stop
         stop-color="#7cbaf8"
         id="stop2-2-7" />
      <stop
         offset="1"
         stop-color="#f4fcff"
         id="stop4-70-0" />
    </linearGradient>
    <linearGradient
       id="c"
       y1="503.79999"
       x1="400.57001"
       y2="519.79999"
       x2="416.57001"
       gradientUnits="userSpaceOnUse">
      <stop
         stop-color="#292c2f"
         id="stop12" />
      <stop
         offset="1"
         stop-opacity="0"
         id="stop14" />
    </linearGradient>
    <linearGradient
       id="b"
       y1="542.79999"
       x1="408.57001"
       y2="521.79999"
       x2="387.57001"
       gradientUnits="userSpaceOnUse"
       gradientTransform="translate(-384.57,-499.8)">
      <stop
         stop-color="#197cf1"
         id="stop7-8" />
      <stop
         offset="1"
         stop-color="#20bcfa"
         id="stop9-7" />
    </linearGradient>
    <linearGradient
       xlink:href="#linearGradient1389"
       id="linearGradient4503-5-6"
       y1="37"
       y2="4"
       x2="0"
       gradientUnits="userSpaceOnUse"
       gradientTransform="matrix(1.0218446,0,0,0.99999999,21.748946,8.2587777)" />
    <linearGradient
       id="linearGradient1389">
      <stop
         style="stop-color:#ffaaaa;stop-opacity:1"
         id="stop1385"
         offset="0" />
      <stop
         offset="1"
         style="stop-color:#ff5555;stop-opacity:1"
         id="stop1387" />
    </linearGradient>
    <linearGradient
       id="paint543_linear_890_11"
       x1="978.5"
       y1="298"
       x2="978.5"
       y2="304"
       gradientUnits="userSpaceOnUse"
       gradientTransform="matrix(0.75000004,0,0,0.75000004,-717.38333,-173.49123)">
      <stop
         offset="0.189495"
         stop-color="#EFF2F6"
         id="stop1829" />
      <stop
         offset="0.850463"
         stop-color="#B7C6CD"
         id="stop1830" />
    </linearGradient>
    <linearGradient
       inkscape:collect="always"
       xlink:href="#linearGradient8"
       id="linearGradient10"
       x1="31.5"
       y1="59.017544"
       x2="31.043173"
       y2="14.029844"
       gradientUnits="userSpaceOnUse" />
    <linearGradient
       id="linearGradient4144">
      <stop
         style="stop-color:#c83771;stop-opacity:1"
         offset="0"
         id="stop1141" />
      <stop
         style="stop-color:#de87aa;stop-opacity:1"
         offset="1"
         id="stop1143" />
    </linearGradient>
    <linearGradient
       id="_lgradient_11"
       x1="0"
       y1="0.5"
       x2="0.90748805"
       y2="0.92007786"
       gradientTransform="matrix(21.03856,0,0,3.5737352,22.835456,87.929158)"
       gradientUnits="userSpaceOnUse">
      <stop
         offset="0%"
         stop-opacity="1"
         style="stop-color:rgb(255,65,108)"
         id="stop1-5" />
      <stop
         offset="84.34782608695653%"
         stop-opacity="1"
         style="stop-color:rgb(255,75,43)"
         id="stop2-3" />
    </linearGradient>
    <linearGradient
       id="_lgradient_12"
       x1="0"
       y1="0.5"
       x2="1"
       y2="0.5"
       gradientTransform="matrix(41.99945,0,0,41.999429,12.499643,68.765001)"
       gradientUnits="userSpaceOnUse">
      <stop
         offset="0%"
         stop-opacity="1"
         style="stop-color:rgb(247,242,6)"
         id="stop3-5" />
      <stop
         offset="97.82608695652173%"
         stop-opacity="1"
         style="stop-color:rgb(255,187,36)"
         id="stop4-6" />
    </linearGradient>
  </defs>
  <sodipodi:namedview
     id="namedview5"
     pagecolor="#ffffff"
     bordercolor="#000000"
     borderopacity="0.25"
     inkscape:showpageshadow="2"
     inkscape:pageopacity="0.0"
     inkscape:pagecheckerboard="0"
     inkscape:deskcolor="#d1d1d1"
     inkscape:zoom="8.2643105"
     inkscape:cx="22.082907"
     inkscape:cy="45.315335"
     inkscape:window-width="1920"
     inkscape:window-height="998"
     inkscape:window-x="0"
     inkscape:window-y="0"
     inkscape:window-maximized="1"
     inkscape:current-layer="svg5" />
  <rect
     style="opacity:0.2;stroke-width:0.9823"
     width="55"
     height="55.017544"
     x="4"
     y="4.9824562"
     rx="8.25"
     ry="8.2526312"
     id="rect1" />
  <rect
     style="fill:url(#linearGradient10);stroke-width:0.9823"
     width="55"
     height="55.017544"
     x="4"
     y="4"
     rx="8.25"
     ry="8.2526312"
     id="rect2" />
  <path
     style="opacity:0.1;fill:#ffffff;stroke-width:0.9823"
     d="M 12.248466,4 C 7.6779652,4 4,7.6791384 4,12.251097 v 0.982456 C 4,8.6615945 7.6779652,4.9824561 12.248466,4.9824561 H 50.751534 C 55.322034,4.9824561 59,8.6615945 59,13.233553 V 12.251097 C 59,7.6791384 55.322034,4 50.751534,4 Z"
     id="path4" />
  <g
     id="g1"
     transform="translate(-1.5,-2)">
    <rect
       style="opacity:0.2"
       width="44"
       height="44"
       x="-56"
       y="-55"
       rx="2.6670001"
       ry="2.75"
       transform="matrix(0,-1,-1,0,0,0)"
       id="rect3" />
    <rect
       style="fill:#ffffff"
       width="44"
       height="44"
       x="-55"
       y="-55"
       rx="2.6670001"
       ry="2.75"
       transform="matrix(0,-1,-1,0,0,0)"
       id="rect4" />
    <path
       style="fill:#2d3d53;fill-opacity:1"
       d="M 25.058282,12.998515 C 22.946896,14.295379 17.496982,15.956431 14,16.971171 l 0.10938,0.308594 c 1.663168,-0.1661 4.039308,-0.40147 5.70703,-0.683594 v 2.453127 h -5.792968 l 0.14062,2.07031 h 4.847656 c -0.832724,3.424176 -2.759832,4.864578 -4.953124,7.50836 l 0.33203,0.308594 c 2.05678,-1.490256 4.118188,-2.813846 5.421876,-4.777344 V 31 h 0.53125 c 1.415174,0 2.73248,-0.546484 2.7575,-0.714844 v -6.969688 c 1.055692,0.951034 1.257466,2.06299 1.453126,3.246094 0.359482,0.302594 0.749892,0.445312 1.109374,0.445312 0.74854,0 1.38672,-0.541508 1.38672,-1.296874 0,-1.021566 -0.368056,-1.966386 -3.94922,-2.769532 v -1.82086 h 4.6875 c 0.750816,0 2.1116,-1.718562 2.305,-2.023436 l -5.035468,-2.097657 -0.898438,2.046877 H 23.10125 v -3.015627 c 1.25136,-0.2844 2.419072,-0.567162 3.363282,-0.851562 0.548494,0.01396 3.594062,-0.179688 3.594062,-0.179688 z"
       id="path4-6" />
    <path
       style="fill:#2d3d53;fill-opacity:1"
       d="M 31,15.061094 V 31 c 2.609654,-2e-6 2.90906,-0.958106 2.945719,-0.992188 v -0.929688 h 5.042563 v 1.472658 c 2.197844,0 2.972688,-0.63809 2.972688,-0.683594 V 17.32672 c 0.582452,-0.116041 1.029222,-0.303388 1.195312,-0.519531 l -2.21097,-1.730469 -2.230468,1.921875 h -4.628499 z m 2.945719,4.007811 h 5.042563 v 8.009219 h -5.042563 z"
       id="path5" />
    <path
       style="fill:#2d3d53;fill-opacity:1"
       d="m 31,37 v 6 3 6 h 3 v -6 h 3.152344 A 7.5,7.5 0 0 0 44.5,52 7.5,7.5 0 0 0 52,44.5 7.5,7.5 0 0 0 44.5,37 7.5,7.5 0 0 0 37.160156,43 H 34 v -6 z m 13.5,3 A 4.5,4.5 0 0 1 49,44.5 4.5,4.5 0 0 1 44.5,49 4.5,4.5 0 0 1 40,44.5 4.5,4.5 0 0 1 44.5,40 Z"
       id="path7" />
  </g>
</svg>
