<?xml version="1.0" encoding="UTF-8" standalone="no"?>
<svg
   width="62"
   height="62"
   version="1.1"
   viewBox="0 0 16.403844 16.403844"
   id="svg5"
   sodipodi:docname="polari.svg"
   inkscape:version="1.4 (e7c3feb100, 2024-10-09)"
   xmlns:inkscape="http://www.inkscape.org/namespaces/inkscape"
   xmlns:sodipodi="http://sodipodi.sourceforge.net/DTD/sodipodi-0.dtd"
   xmlns="http://www.w3.org/2000/svg"
   xmlns:svg="http://www.w3.org/2000/svg">
  <sodipodi:namedview
     id="namedview5"
     pagecolor="#ffffff"
     bordercolor="#000000"
     borderopacity="0.25"
     inkscape:showpageshadow="2"
     inkscape:pageopacity="0.0"
     inkscape:pagecheckerboard="0"
     inkscape:deskcolor="#d1d1d1"
     inkscape:zoom="11.75"
     inkscape:cx="32"
     inkscape:cy="34.978723"
     inkscape:window-width="1920"
     inkscape:window-height="998"
     inkscape:window-x="0"
     inkscape:window-y="0"
     inkscape:window-maximized="1"
     inkscape:current-layer="svg5" />
  <defs
     id="defs1">
    <filter
       id="filter859"
       x="-0.11475"
       y="-0.102"
       width="1.2295"
       height="1.204"
       color-interpolation-filters="sRGB">
      <feGaussianBlur
         stdDeviation="1.53"
         id="feGaussianBlur1" />
    </filter>
  </defs>
  <g
     id="g5"
     transform="matrix(1.1152992,0,0,1.1249822,-1.2408234,-1.3221497)">
    <path
       d="M 7.144,2.116 A 5.556,5.556 0 0 0 1.587,7.673 v 5.556 H 7.144 A 5.556,5.556 0 0 0 12.7,7.673 5.556,5.556 0 0 0 7.144,2.116 Z"
       fill="#ffffff"
       opacity="0.6"
       style="paint-order:stroke markers fill"
       id="path1" />
    <path
       d="M 7.144,2.116 A 5.556,5.556 0 0 0 1.587,7.673 v 5.556 H 7.144 A 5.556,5.556 0 0 0 12.7,7.673 5.556,5.556 0 0 0 7.144,2.116 Z"
       fill="#f2f2f2"
       opacity="0.8"
       style="paint-order:stroke markers fill"
       id="path2" />
    <path
       d="M 11.212636,3.8885323 A 5.5559154,5.5559154 0 0 1 12.699866,7.67282 5.5559154,5.5559154 0 0 1 7.1442156,13.229 H 5.901404 a 5.5559154,5.5559154 0 0 0 3.8885322,1.586951 H 15.346116 V 9.2603 A 5.5559154,5.5559154 0 0 0 11.212583,3.8885323 Z"
       fill="#69e17c"
       stroke-width="1.00001"
       style="paint-order:stroke markers fill;fill:#af83f8"
       id="path3" />
    <path
       transform="scale(0.26458)"
       d="M 37,14 A 21,21 0 0 0 16,35 21,21 0 0 0 22.332,50 H 27 A 21,21 0 0 0 48,29 21,21 0 0 0 42.365,14.723 21,21 0 0 0 37,14 Z"
       fill="#69e17c"
       filter="url(#filter859)"
       style="paint-order:stroke markers fill;fill:#975cf6"
       id="path4" />
    <rect
       x="7.6729999"
       y="8.4659996"
       width="4.7620001"
       height="0.52899998"
       ry="0.26499999"
       fill="#ffffff"
       style="paint-order:stroke markers fill;fill:#16162f;fill-opacity:1"
       id="rect4" />
    <rect
       x="7.6729999"
       y="10.054"
       width="3.9690001"
       height="0.52899998"
       ry="0.26499999"
       fill="#ffffff"
       style="paint-order:stroke markers fill;fill:#16162f;fill-opacity:1"
       id="rect5" />
    <path
       d="M 7.1439997,2.116 A 5.556,5.556 0 0 0 1.5869999,7.673 v 5.556 H 7.1439997 A 5.556,5.556 0 0 0 12.700002,7.673 5.556,5.556 0 0 0 7.1439997,2.116 Z"
       fill="#ffffff"
       opacity="0.6"
       style="paint-order:stroke markers fill"
       id="path5" />
  </g>
</svg>
