<?xml version="1.0" encoding="UTF-8" standalone="no"?>
<svg
   width="62"
   height="62"
   version="1.1"
   id="svg6"
   sodipodi:docname="polo.svg"
   inkscape:version="1.4 (unknown)"
   xmlns:inkscape="http://www.inkscape.org/namespaces/inkscape"
   xmlns:sodipodi="http://sodipodi.sourceforge.net/DTD/sodipodi-0.dtd"
   xmlns="http://www.w3.org/2000/svg"
   xmlns:svg="http://www.w3.org/2000/svg">
  <defs
     id="defs6" />
  <sodipodi:namedview
     id="namedview6"
     pagecolor="#ffffff"
     bordercolor="#000000"
     borderopacity="0.25"
     inkscape:showpageshadow="2"
     inkscape:pageopacity="0.0"
     inkscape:pagecheckerboard="0"
     inkscape:deskcolor="#d1d1d1"
     inkscape:zoom="6.0546875"
     inkscape:cx="21.140645"
     inkscape:cy="47.153548"
     inkscape:window-width="1920"
     inkscape:window-height="998"
     inkscape:window-x="0"
     inkscape:window-y="0"
     inkscape:window-maximized="1"
     inkscape:current-layer="svg6" />
  <path
     style="opacity:0.2"
     d="M 3.043,30.328 A 28,28 0 0 0 3,31.5 28,28 0 0 0 31,59.5 28,28 0 0 0 59,31.5 28,28 0 0 0 58.958,30.672 28,28 0 0 1 31,57.5 28,28 0 0 1 3.044,30.328 Z"
     id="path1" />
  <path
     style="fill:#2d3d53;fill-opacity:1"
     d="m 31,2.5 a 28,28 0 0 0 -28,28 28,28 0 0 0 28,28 28,28 0 0 0 28,-28 28,28 0 0 0 -28,-28 z"
     id="path2" />
  <path
     style="opacity:0.1;fill:#ffffff"
     d="M 30.998047,2.5 A 28,28 0 0 0 3,30.5 28,28 0 0 0 3.0214844,30.90625 28,28 0 0 1 30.998047,3.5 H 31 A 28,28 0 0 1 58.976562,31.085938 28,28 0 0 0 58.998047,30.5 28,28 0 0 0 31,2.5 Z"
     id="path3" />
  <text
     xml:space="preserve"
     style="font-size:42.3158px;font-family:'Blush Asliring';-inkscape-font-specification:'Blush Asliring';text-align:start;writing-mode:lr-tb;direction:ltr;text-anchor:start;opacity:0.877746;fill:#d9d9d9;fill-opacity:1;stroke:#d9d9d9;stroke-width:0;stroke-linecap:round;stroke-linejoin:round;paint-order:fill markers stroke"
     x="18.202473"
     y="44.386189"
     id="text1"
     transform="scale(0.99744196,1.0025646)"><tspan
       sodipodi:role="line"
       id="tspan1"
       x="18.202473"
       y="44.386189"
       style="stroke-width:0">P</tspan></text>
</svg>
