<?xml version="1.0" encoding="UTF-8" standalone="no"?>
<svg
   width="62"
   height="62"
   version="1.1"
   id="svg8"
   sodipodi:docname="polyphone.svg"
   inkscape:version="1.4 (unknown)"
   xmlns:inkscape="http://www.inkscape.org/namespaces/inkscape"
   xmlns:sodipodi="http://sodipodi.sourceforge.net/DTD/sodipodi-0.dtd"
   xmlns:xlink="http://www.w3.org/1999/xlink"
   xmlns="http://www.w3.org/2000/svg"
   xmlns:svg="http://www.w3.org/2000/svg">
  <defs
     id="defs8">
    <linearGradient
       id="linearGradient8"
       inkscape:collect="always">
      <stop
         style="stop-color:#e5e5e5;stop-opacity:1;"
         offset="0"
         id="stop8" />
      <stop
         style="stop-color:#f2f2f2;stop-opacity:1;"
         offset="1"
         id="stop9" />
    </linearGradient>
    <linearGradient
       inkscape:collect="always"
       xlink:href="#linearGradient8"
       id="linearGradient9"
       x1="31.5"
       y1="58.034485"
       x2="30.6"
       y2="3.9655173"
       gradientUnits="userSpaceOnUse" />
  </defs>
  <sodipodi:namedview
     id="namedview8"
     pagecolor="#ffffff"
     bordercolor="#000000"
     borderopacity="0.25"
     inkscape:showpageshadow="2"
     inkscape:pageopacity="0.0"
     inkscape:pagecheckerboard="0"
     inkscape:deskcolor="#d1d1d1"
     inkscape:zoom="10"
     inkscape:cx="29.65"
     inkscape:cy="31.55"
     inkscape:window-width="1920"
     inkscape:window-height="998"
     inkscape:window-x="0"
     inkscape:window-y="0"
     inkscape:window-maximized="1"
     inkscape:current-layer="svg8" />
  <g
     id="g8"
     transform="translate(-0.5)">
    <rect
       style="opacity:0.2;stroke-width:0.965215"
       width="55"
       height="55.034485"
       x="4"
       y="3.9655163"
       rx="16.500004"
       ry="16.510349"
       id="rect1" />
    <rect
       style="fill:url(#linearGradient9);stroke-width:0.965215"
       width="55"
       height="55.034485"
       x="4"
       y="3"
       rx="16.500004"
       ry="16.510349"
       id="rect2" />
    <path
       style="opacity:0.1;stroke-width:0.965215"
       d="m 45.70606,11.478447 -1.554791,2.255384 c 3.239542,2.514045 5.322099,6.444725 5.322099,10.877156 0,4.393096 -2.046966,8.294512 -5.237287,10.811148 l 1.62075,2.206356 c 3.871157,-3.024419 6.36616,-7.734884 6.36616,-13.017504 0,-5.350397 -2.560487,-10.113361 -6.516931,-13.13254 z M 42.210141,16.125 40.653463,18.382274 c 1.84063,1.377097 3.032313,3.569621 3.032313,6.058993 0,2.58001 -1.277662,4.847293 -3.233959,6.211747 l 1.618863,2.206357 c 2.635913,-1.872616 4.364721,-4.950037 4.364721,-8.418104 0,-3.407019 -1.667481,-6.435171 -4.22526,-8.316267 z m -24.938834,0.599677 c -3.956434,3.01917 -6.516923,7.782142 -6.516923,13.132539 0,5.282612 2.496892,9.993087 6.368039,13.017505 l 1.618872,-2.206356 c -3.190327,-2.516636 -5.237288,-6.418052 -5.237288,-10.811149 0,-4.432431 2.084436,-8.364999 5.323979,-10.879037 z m 3.497806,4.646547 c -2.557778,1.881103 -4.225258,4.909254 -4.225258,8.316271 0,3.46807 1.728806,6.543601 4.36472,8.416217 l 1.618871,-2.206357 c -1.956305,-1.364454 -3.233968,-3.629849 -3.233968,-6.20986 0,-2.489372 1.191684,-4.681904 3.032314,-6.059001 z m 15.376402,0.939115 c -1.024827,0.0032 -2.113243,0.286875 -3.096386,0.807115 -1.741285,0.92501 -2.906166,2.45806 -2.983308,3.926183 -0.03808,-0.0217 -0.07639,-0.04305 -0.114965,-0.06416 -2.466238,-1.305194 -5.283687,-0.995324 -6.292658,0.692086 -1.009588,1.686811 0.170818,4.112424 2.636548,5.41783 1.207556,0.637967 2.563166,0.914153 3.757877,0.765631 v 17.009691 c 0,0.759867 0.648008,1.376617 1.447371,1.376617 0.79936,0 1.447369,-0.61675 1.447369,-1.376617 V 31.133876 29.994869 c 1.195047,0.147849 2.550647,-0.129023 3.757878,-0.767516 2.465729,-1.305399 3.646134,-3.73101 2.636547,-5.417829 -0.567971,-0.949705 -1.749231,-1.503771 -3.196273,-1.499193 z"
       id="path2"
       sodipodi:nodetypes="ccsccscccsccsccsccscccsccscccccccccsssccccc" />
    <path
       style="fill:#243042;stroke-width:0.965215;fill-opacity:1"
       d="m 31.499994,26.630549 c -0.799363,0 -1.447371,0.615995 -1.447371,1.375862 V 49.89999 c 0,0.759867 0.648008,1.375861 1.447371,1.375861 0.79936,0 1.447369,-0.615994 1.447369,-1.375861 V 28.006411 c 0,-0.759867 -0.648009,-1.375862 -1.447369,-1.375862 z"
       id="path3"
       sodipodi:nodetypes="sssssss" />
    <ellipse
       style="fill:#243042;stroke-width:0.965202;fill-opacity:1"
       cx="39.109463"
       cy="12.556161"
       rx="5.0520053"
       ry="3.5592728"
       transform="matrix(0.88386718,0.46773797,-0.51330744,0.8582048,0,0)"
       id="ellipse3" />
    <ellipse
       style="fill:#243042;stroke-width:0.965202;fill-opacity:1"
       cx="-17.016512"
       cy="38.646091"
       rx="5.0520053"
       ry="3.5592728"
       transform="matrix(-0.88386718,0.46773797,0.51330744,0.8582048,0,0)"
       id="ellipse4" />
    <path
       style="fill:#ff9955;stroke-width:0.965215;fill-opacity:1"
       d="m 20.768222,20.405187 c -2.557788,1.881104 -4.224367,4.909964 -4.224367,8.316981 0,3.468069 1.728099,6.543785 4.364011,8.4164 l 1.619388,-2.206214 c -1.956305,-1.364455 -3.233401,-3.630183 -3.233401,-6.210186 0,-2.489371 1.191356,-4.682612 3.031986,-6.059708 z"
       id="path4"
       sodipodi:nodetypes="csccscc" />
    <path
       style="fill:#ff9955;stroke-width:0.965215"
       d="m 17.272205,15.758968 c -3.956442,3.019178 -6.517821,7.782101 -6.517821,13.132491 0,5.28262 2.496279,9.99252 6.367429,13.016947 l 1.619386,-2.206222 c -3.190321,-2.516635 -5.236817,-6.417629 -5.236817,-10.810725 0,-4.432431 2.083219,-8.363861 5.322751,-10.877906 z"
       id="path5"
       sodipodi:nodetypes="csccscc" />
    <path
       style="fill:#ff9955;stroke-width:0.965215;fill-opacity:1"
       d="m 42.210515,15.159715 -1.557619,2.257272 c 1.84063,1.377097 3.031987,3.570337 3.031987,6.059701 0,2.580013 -1.277098,4.845739 -3.233402,6.210194 l 1.619388,2.206213 c 2.635913,-1.872614 4.36401,-4.948336 4.36401,-8.416407 0,-3.407018 -1.666578,-6.43587 -4.224364,-8.316973 z"
       id="path6"
       sodipodi:nodetypes="ccsccsc" />
    <path
       style="fill:#ff9955;stroke-width:0.965215;fill-opacity:1"
       d="m 45.705889,10.513495 -1.554933,2.254586 c 3.239534,2.514045 5.322752,6.445474 5.322752,10.877906 0,4.393095 -2.046489,8.294089 -5.236817,10.810724 l 1.619389,2.206223 c 3.871156,-3.024428 6.367427,-7.734327 6.367427,-13.016947 0,-5.350399 -2.56138,-10.113313 -6.517818,-13.132492 z"
       id="path7"
       sodipodi:nodetypes="ccsccsc" />
    <path
       style="opacity:0.27714286;fill:#ffffff;stroke-width:0.965215"
       d="M 20.49962,3 C 11.358618,3 4,10.363232 4,19.509965 v 0.965518 C 4,11.328751 11.358618,3.9655174 20.49962,3.9655174 h 22.000747 c 9.141001,0 16.499619,7.3632336 16.499619,16.5099656 V 19.509965 C 58.999986,10.363232 51.641368,3 42.500367,3 Z"
       id="path8"
       sodipodi:nodetypes="sscsscsss" />
  </g>
</svg>
