<?xml version="1.0" encoding="UTF-8" standalone="no"?>
<svg
   width="62"
   height="62"
   version="1.1"
   id="svg10"
   sodipodi:docname="popcorn-time.svg"
   inkscape:version="1.4 (e7c3feb100, 2024-10-09)"
   xmlns:inkscape="http://www.inkscape.org/namespaces/inkscape"
   xmlns:sodipodi="http://sodipodi.sourceforge.net/DTD/sodipodi-0.dtd"
   xmlns="http://www.w3.org/2000/svg"
   xmlns:svg="http://www.w3.org/2000/svg">
  <defs
     id="defs10" />
  <sodipodi:namedview
     id="namedview10"
     pagecolor="#ffffff"
     bordercolor="#000000"
     borderopacity="0.25"
     inkscape:showpageshadow="2"
     inkscape:pageopacity="0.0"
     inkscape:pagecheckerboard="0"
     inkscape:deskcolor="#d1d1d1"
     inkscape:zoom="12.109375"
     inkscape:cx="32"
     inkscape:cy="32"
     inkscape:window-width="1920"
     inkscape:window-height="998"
     inkscape:window-x="0"
     inkscape:window-y="0"
     inkscape:window-maximized="1"
     inkscape:current-layer="svg10" />
  <g
     id="g10"
     transform="matrix(0.97916667,0,0,0.98245614,-0.33333344,-0.92982455)">
    <path
       style="opacity:0.2"
       d="m 16,37 c -2.216,0 -4,1.888022 -4,4.234376 V 58 c 0,1.662 1.115,3 2.5,3 h 5.5 8 8 8 5.5 C 50.885,61 52,59.662 52,58 V 41.234376 C 52,38.888024 50.216,37 48,37 c -2.216,0 -4,1.888024 -4,4.234376 v 2.964842 C 44,41.872418 42.216,40 40,40 c -2.216,0 -4,1.872418 -4,4.199218 v 1.085938 C 36,42.91087 34.216,41 32,41 c -2.216,0 -4,1.91087 -4,4.285156 V 44.199218 C 28,41.872418 26.216,40 24,40 c -2.216,0 -4,1.872418 -4,4.199218 V 41.234376 C 20,38.888024 18.216,37 16,37 Z"
       id="path1" />
    <path
       style="opacity:0.2"
       d="M 38,5 A 16,16 0 0 0 23.203124,14.929688 8,8 0 0 0 18,13 8,8 0 0 0 10,21 8,8 0 0 0 11.652344,25.859376 7,7 0 0 0 8,32 a 7,7 0 0 0 7,7 7,7 0 0 0 1,-0.07812 V 41 c 0,3.324 2.676,6 6,6 h 20 c 3.324,0 6,-2.676 6,-6 V 40.91796 A 7,7 0 0 0 49,41 7,7 0 0 0 56,34 7,7 0 0 0 52.417968,27.894532 16,16 0 0 0 54,21 16,16 0 0 0 38,5 Z"
       id="path2" />
    <path
       style="fill:#e6c59a"
       d="M 38,4 A 16,16 0 0 0 23.203124,13.929688 8,8 0 0 0 18,12 8,8 0 0 0 10,20 8,8 0 0 0 11.652344,24.859376 7,7 0 0 0 8,31 a 7,7 0 0 0 7,7 7,7 0 0 0 1,-0.07812 V 40 c 0,3.324 2.676,6 6,6 h 20 c 3.324,0 6,-2.676 6,-6 V 39.91796 A 7,7 0 0 0 49,40 7,7 0 0 0 56,33 7,7 0 0 0 52.417968,26.894532 16,16 0 0 0 54,20 16,16 0 0 0 38,4 Z"
       id="path3" />
    <path
       style="fill:#a81a1a"
       d="m 38,30 c 0,3.313708 -2.686292,6 -6,6 -3.313708,0 -6,-2.686292 -6,-6 z"
       id="path4" />
    <circle
       style="fill:#3f3f3f"
       cx="21"
       cy="26"
       r="4"
       id="circle4" />
    <circle
       style="fill:#ffffff"
       cx="22.5"
       cy="24.5"
       r="1.5"
       id="circle5" />
    <path
       style="fill:#e54b3f"
       d="m 48,36 c -2.216,0 -4,1.888942 -4,4.235294 V 60 h 5.5 C 50.885,60 52,58.662 52,57 V 40.235294 C 52,37.888942 50.216,36 48,36 Z"
       id="path5" />
    <path
       style="fill:#e54b3f"
       d="m 32,40 c -2.216,0 -4,1.911428 -4,4.285714 V 60 h 8 V 44.285714 C 36,41.911428 34.216,40 32,40 Z"
       id="path6" />
    <path
       style="fill:#ffffff"
       d="m 40,39 c -2.216,0 -4,1.8732 -4,4.2 V 60 h 8 V 43.2 C 44,40.8732 42.216,39 40,39 Z"
       id="path7" />
    <path
       style="fill:#e54b3f"
       d="m 16,36 c 2.216,0 4,1.888942 4,4.235294 V 60 H 14.5 C 13.115,60 12,58.662 12,57 V 40.235294 C 12,37.888942 13.784,36 16,36 Z"
       id="path8" />
    <path
       style="fill:#ffffff"
       d="m 24,39 c 2.216,0 4,1.8732 4,4.2 V 60 H 20 V 43.2 C 20,40.8732 21.784,39 24,39 Z"
       id="path9" />
    <circle
       style="fill:#3f3f3f"
       cx="43"
       cy="26"
       r="4"
       id="circle9" />
    <circle
       style="fill:#ffffff"
       cx="44.5"
       cy="24.5"
       r="1.5"
       id="circle10" />
    <path
       style="opacity:0.2;fill:#ffffff"
       d="M 38,4 A 16,16 0 0 0 23.203125,13.929688 8,8 0 0 0 18,12 8,8 0 0 0 10,20 8,8 0 0 0 10.021484,20.417969 8,8 0 0 1 18,13 8,8 0 0 1 23.203125,14.929688 16,16 0 0 1 38,5 16,16 0 0 1 53.982422,20.652344 16,16 0 0 0 54,20 16,16 0 0 0 38,4 Z M 11.177734,25.148438 A 7,7 0 0 0 8,31 a 7,7 0 0 0 0.023437,0.457031 7,7 0 0 1 3.628906,-5.597656 8,8 0 0 1 -0.474609,-0.710937 z m 41.576172,1.947265 a 16,16 0 0 1 -0.335937,0.798828 7,7 0 0 1 3.558593,5.646485 A 7,7 0 0 0 56,33 7,7 0 0 0 52.753906,27.095703 Z"
       id="path10" />
  </g>
</svg>
