<?xml version="1.0" encoding="UTF-8" standalone="no"?>
<svg
   width="62"
   height="62"
   version="1.1"
   id="svg5"
   sodipodi:docname="portproton.svg"
   inkscape:version="1.4 (e7c3feb100, 2024-10-09)"
   xmlns:inkscape="http://www.inkscape.org/namespaces/inkscape"
   xmlns:sodipodi="http://sodipodi.sourceforge.net/DTD/sodipodi-0.dtd"
   xmlns:xlink="http://www.w3.org/1999/xlink"
   xmlns="http://www.w3.org/2000/svg"
   xmlns:svg="http://www.w3.org/2000/svg">
  <defs
     id="defs5">
    <linearGradient
       id="linearGradient8"
       inkscape:collect="always">
      <stop
         style="stop-color:#2d3d53;stop-opacity:1;"
         offset="0"
         id="stop8" />
      <stop
         style="stop-color:#354864;stop-opacity:1;"
         offset="1"
         id="stop10" />
    </linearGradient>
    <linearGradient
       id="linearGradient4217">
      <stop
         style="stop-color:#000000;stop-opacity:1;"
         offset="0"
         id="stop2" />
      <stop
         style="stop-color:#000000;stop-opacity:0;"
         offset="1"
         id="stop4" />
    </linearGradient>
    <linearGradient
       id="linearGradient4161">
      <stop
         style="stop-color:#334545;stop-opacity:1;"
         offset="0"
         id="stop7" />
      <stop
         style="stop-color:#4d6868;stop-opacity:1"
         offset="1"
         id="stop9" />
    </linearGradient>
    <linearGradient
       id="a-1-2"
       y1="510.79999"
       y2="527.14001"
       gradientUnits="userSpaceOnUse"
       x2="0">
      <stop
         stop-color="#7cbaf8"
         id="stop2-2-7" />
      <stop
         offset="1"
         stop-color="#f4fcff"
         id="stop4-70-0" />
    </linearGradient>
    <linearGradient
       id="c"
       y1="503.79999"
       x1="400.57001"
       y2="519.79999"
       x2="416.57001"
       gradientUnits="userSpaceOnUse">
      <stop
         stop-color="#292c2f"
         id="stop12" />
      <stop
         offset="1"
         stop-opacity="0"
         id="stop14" />
    </linearGradient>
    <linearGradient
       id="b"
       y1="542.79999"
       x1="408.57001"
       y2="521.79999"
       x2="387.57001"
       gradientUnits="userSpaceOnUse"
       gradientTransform="translate(-384.57,-499.8)">
      <stop
         stop-color="#197cf1"
         id="stop7-8" />
      <stop
         offset="1"
         stop-color="#20bcfa"
         id="stop9-7" />
    </linearGradient>
    <linearGradient
       xlink:href="#linearGradient1389"
       id="linearGradient4503-5-6"
       y1="37"
       y2="4"
       x2="0"
       gradientUnits="userSpaceOnUse"
       gradientTransform="matrix(1.0218446,0,0,0.99999999,21.748946,8.2587777)" />
    <linearGradient
       id="linearGradient1389">
      <stop
         style="stop-color:#ffaaaa;stop-opacity:1"
         id="stop1385"
         offset="0" />
      <stop
         offset="1"
         style="stop-color:#ff5555;stop-opacity:1"
         id="stop1387" />
    </linearGradient>
    <linearGradient
       id="paint543_linear_890_11"
       x1="978.5"
       y1="298"
       x2="978.5"
       y2="304"
       gradientUnits="userSpaceOnUse"
       gradientTransform="matrix(0.75000004,0,0,0.75000004,-717.38333,-173.49123)">
      <stop
         offset="0.189495"
         stop-color="#EFF2F6"
         id="stop1829" />
      <stop
         offset="0.850463"
         stop-color="#B7C6CD"
         id="stop1830" />
    </linearGradient>
    <linearGradient
       inkscape:collect="always"
       xlink:href="#linearGradient8"
       id="linearGradient10"
       x1="31.5"
       y1="59.017544"
       x2="31.5"
       y2="4.9824562"
       gradientUnits="userSpaceOnUse" />
    <linearGradient
       id="linearGradient4144">
      <stop
         style="stop-color:#c83771;stop-opacity:1"
         offset="0"
         id="stop1141" />
      <stop
         style="stop-color:#de87aa;stop-opacity:1"
         offset="1"
         id="stop1143" />
    </linearGradient>
    <linearGradient
       id="c-0"
       gradientUnits="userSpaceOnUse"
       x1="10"
       x2="24"
       y1="10"
       y2="24"
       gradientTransform="translate(59.728813,26.237288)">
      <stop
         offset="0"
         stop-color="#292c2f"
         id="stop12-2" />
      <stop
         offset="1"
         stop-opacity="0"
         id="stop14-3" />
    </linearGradient>
    <linearGradient
       id="d"
       gradientUnits="userSpaceOnUse"
       x1="24"
       x2="24"
       y1="25"
       y2="7"
       gradientTransform="translate(59.728813,26.237288)">
      <stop
         offset="0"
         stop-color="#bb9d71"
         id="stop2-7" />
      <stop
         offset="1"
         stop-color="#f9f2e7"
         id="stop4-5" />
    </linearGradient>
  </defs>
  <sodipodi:namedview
     id="namedview5"
     pagecolor="#ffffff"
     bordercolor="#000000"
     borderopacity="0.25"
     inkscape:showpageshadow="2"
     inkscape:pageopacity="0.0"
     inkscape:pagecheckerboard="0"
     inkscape:deskcolor="#d1d1d1"
     inkscape:zoom="8.2643105"
     inkscape:cx="25.349967"
     inkscape:cy="37.389689"
     inkscape:window-width="1920"
     inkscape:window-height="994"
     inkscape:window-x="0"
     inkscape:window-y="0"
     inkscape:window-maximized="1"
     inkscape:current-layer="svg5" />
  <rect
     style="opacity:0.2;stroke-width:0.9823"
     width="55"
     height="55.017544"
     x="4"
     y="4.9824562"
     rx="8.25"
     ry="8.2526312"
     id="rect1" />
  <rect
     style="fill:url(#linearGradient10);stroke-width:0.9823"
     width="55"
     height="55.017544"
     x="4"
     y="4"
     rx="8.25"
     ry="8.2526312"
     id="rect2" />
  <path
     style="opacity:0.1;fill:#ffffff;stroke-width:0.9823"
     d="M 12.248466,4 C 7.6779652,4 4,7.6791384 4,12.251097 v 0.982456 C 4,8.6615945 7.6779652,4.9824561 12.248466,4.9824561 H 50.751534 C 55.322034,4.9824561 59,8.6615945 59,13.233553 V 12.251097 C 59,7.6791384 55.322034,4 50.751534,4 Z"
     id="path4" />
  <path
     d="m 31.763784,10 c -0.553247,0.0078 -1.084492,0.137498 -1.585709,0.380561 -0.590568,0.302508 -1.127522,0.6996 -1.586416,1.173519 -0.585411,0.599971 -1.096863,1.26295 -1.528708,1.966611 -0.389603,0.63639 -0.737544,1.288069 -1.053327,1.96094 0.895084,0.37004 1.770298,0.802889 2.613136,1.278167 1.075108,0.599163 2.129027,1.245484 3.141024,1.949963 1.011633,-0.704479 2.06732,-1.3508 3.146109,-1.949963 0.843597,-0.475278 1.714068,-0.908127 2.609191,-1.278167 C 37.2085,14.80876 36.856025,14.157081 36.465097,13.520691 36.032985,12.81703 35.522131,12.154051 34.937049,11.55408 34.478227,11.080161 33.941432,10.684122 33.350642,10.380561 32.855128,10.134891 32.318283,10.005681 31.763784,10 Z m -12.427255,5.32605 c -0.648562,-0.022 -1.301394,0.0807 -1.923193,0.286364 -0.511484,0.178212 -0.980542,0.458455 -1.370877,0.830255 -0.373784,0.385062 -0.658465,0.849237 -0.837352,1.354721 -0.202024,0.615772 -0.305437,1.26177 -0.288879,1.90388 0,0.61057 0.06545,1.209221 0.166029,1.808768 0.132115,0.689402 0.305441,1.372644 0.527422,2.035473 0.08943,0.25886 0.185472,0.520008 0.286664,0.782059 0.921217,-0.350168 1.860362,-0.657249 2.808919,-0.923739 1.169938,-0.3256 2.355897,-0.594401 3.556863,-0.808241 0.215649,-1.18375 0.490915,-2.362911 0.81751,-3.520111 0.26202,-0.93881 0.580116,-1.866441 0.931893,-2.780148 -0.262389,-0.102668 -0.525729,-0.19066 -0.796067,-0.28306 -0.663097,-0.218902 -1.352686,-0.391522 -2.05461,-0.52052 -0.600249,-0.108905 -1.20741,-0.163875 -1.823626,-0.163875 z m 24.854913,0 c -0.611537,0 -1.21687,0.0631 -1.822997,0.163875 -0.69633,0.128704 -1.386512,0.300304 -2.056381,0.520921 -0.261656,0.0968 -0.53122,0.1848 -0.795992,0.282704 0.35954,0.913584 0.670577,1.841143 0.933471,2.780504 0.333407,1.157134 0.606097,2.336071 0.822079,3.520189 1.196585,0.2112 2.387796,0.484146 3.557451,0.807762 0.948753,0.267668 1.882684,0.573838 2.809873,0.923671 0.09615,-0.260702 0.194304,-0.521766 0.282993,-0.782063 0.221539,-0.662897 0.400681,-1.34581 0.527711,-2.035545 0.110834,-0.599025 0.16603,-1.197943 0.16603,-1.808774 0.01843,-0.642104 -0.08346,-1.288061 -0.288147,-1.903841 -0.172952,-0.50553 -0.458228,-0.969506 -0.832236,-1.354769 -0.395523,-0.371537 -0.859381,-0.653137 -1.376345,-0.830091 -0.621817,-0.200566 -1.269505,-0.30067 -1.92377,-0.28527 z M 25.42396,16.884491 c -0.328628,0.849239 -0.616953,1.720879 -0.863768,2.59703 -0.270488,0.94424 -0.496549,1.887678 -0.696303,2.842149 1.227687,-0.17747 2.461518,-0.32047 3.694498,-0.401909 0.690514,-0.598439 1.401639,-1.173402 2.129222,-1.72539 0.241405,-0.192492 0.485207,-0.369962 0.73264,-0.553732 -0.821513,-0.563161 -1.681464,-1.079133 -2.550818,-1.563988 -0.790465,-0.448385 -1.602316,-0.850985 -2.445471,-1.19416 z m 12.681238,0 c -0.837903,0.34247 -1.655479,0.745763 -2.446352,1.19416 -0.868889,0.484855 -1.723156,1.000827 -2.546226,1.563988 0.247297,0.185162 0.49728,0.3652 0.738205,0.553732 0.721826,0.551988 1.434719,1.121387 2.120271,1.720879 1.237946,0.088 2.465634,0.2332 3.693912,0.40642 C 39.466289,21.369199 39.23717,20.425761 38.973714,19.481521 38.72937,18.60537 38.43673,17.73373 38.105198,16.884491 Z m -6.341414,3.651159 c -0.384594,0.286364 -0.76374,0.567711 -1.142822,0.858668 -0.158626,0.1232 -0.333408,0.254092 -0.495515,0.387412 0.542616,-0.022 1.090681,-0.0367 1.638337,-0.0293 0.548721,-0.0078 1.097085,0.0078 1.644558,0.03303 -0.158263,-0.135664 -0.331563,-0.266565 -0.500776,-0.391486 -0.37841,-0.288945 -0.757896,-0.572557 -1.143782,-0.859697 z m 0,2.743071 c -1.190288,-0.0078 -2.381737,0.0367 -3.573137,0.108178 -0.922201,0.777555 -1.807505,1.595989 -2.655743,2.446289 -0.859723,0.839778 -1.686989,1.715671 -2.472038,2.6268 -0.07507,1.1792 -0.113335,2.358364 -0.113335,3.537453 0,1.183747 0.03683,2.361702 0.118126,3.540645 0.780095,0.912488 1.60725,1.783502 2.466973,2.628302 0.848347,0.844798 1.727943,1.663238 2.655933,2.435146 1.18606,0.08321 2.377707,0.1232 3.573044,0.115877 1.196891,0.0078 2.388518,-0.0367 3.57381,-0.109624 0.9221,-0.772125 1.807528,-1.590563 2.661044,-2.441448 0.853748,-0.844763 1.682055,-1.720512 2.467873,-2.633363 0.07468,-1.173263 0.122917,-2.351762 0.111508,-3.535549 0.0026,-1.179125 -0.03683,-2.362912 -0.117759,-3.537048 -0.780133,-0.911389 -1.607803,-1.787175 -2.462078,-2.62724 -0.853067,-0.849715 -1.733647,-1.663349 -2.655601,-2.440098 -1.190846,-0.08321 -2.382284,-0.11587 -3.579349,-0.112239 z m -6.160801,0.353838 c -0.674498,0.07001 -1.344002,0.163854 -2.012846,0.28087 -0.111156,0.656692 -0.201298,1.324022 -0.282993,1.99158 0.374151,-0.385518 0.753218,-0.766219 1.133145,-1.146819 0.379736,-0.37488 0.769156,-0.750239 1.159239,-1.121484 z m 12.328478,0 c 0.389161,0.37488 0.774354,0.746279 1.152513,1.12141 0.385217,0.379942 0.760207,0.761233 1.13384,1.14635 -0.06954,-0.66719 -0.16516,-1.33408 -0.275999,-1.99115 -0.668734,-0.110376 -1.338452,-0.20093 -2.012332,-0.28086 z m -15.944813,0.552562 c -0.964494,0.1958 -1.921844,0.42328 -2.872096,0.68405 -0.885179,0.242378 -1.764594,0.530751 -2.623797,0.854819 0.347388,0.835299 0.753991,1.636864 1.207776,2.419449 0.489876,0.86167 1.011003,1.705212 1.580085,2.519763 0.187302,-0.2442 0.369138,-0.484724 0.559506,-0.724892 0.558248,-0.719951 1.13716,-1.425271 1.744131,-2.10218 0.0891,-1.219491 0.226329,-2.44009 0.404395,-3.651009 z m 19.55309,0 c 0.187314,1.210919 0.324952,2.431518 0.412161,3.65669 0.605148,0.676759 1.186137,1.382118 1.744035,2.101228 0.18731,0.241632 0.373768,0.4796 0.553838,0.725811 0.568965,-0.814516 1.090601,-1.658611 1.580626,-2.525411 0.45306,-0.782585 0.865369,-1.58415 1.212979,-2.419449 -0.864631,-0.32634 -1.738807,-0.609511 -2.630761,-0.854819 -0.94875,-0.2596 -1.908118,-0.490333 -2.872878,-0.68405 z m -26.467514,2.11772 c -0.679874,0.314968 -1.3383,0.656998 -1.980095,1.048008 -0.71286,0.42299 -1.381591,0.93427 -1.987429,1.507 -0.484324,0.454041 -0.879589,0.98692 -1.191437,1.56963 -0.243976,0.496092 -0.368027,1.029082 -0.378814,1.570399 0.0078,0.547432 0.136895,1.078613 0.378814,1.570761 0.312072,0.582735 0.707113,1.115612 1.191437,1.57359 0.605838,0.57361 1.274569,1.08489 1.987429,1.507 0.641795,0.386357 1.300221,0.735602 1.980095,1.04236 0.375249,-0.88558 0.813064,-1.746031 1.29168,-2.58016 0.607161,-1.069239 1.260327,-2.106508 1.971634,-3.113551 -0.711307,-1.000928 -1.364473,-2.038308 -1.971634,-3.107584 -0.478616,-0.834855 -0.916431,-1.696225 -1.29168,-2.587453 z m 33.382435,0 c -0.368372,0.891228 -0.805528,1.752598 -1.291289,2.587465 -0.604992,1.069264 -1.258437,2.106644 -1.969834,3.112484 0.711397,0.99645 1.364842,2.0394 1.969834,3.108639 0.485761,0.834129 0.923088,1.69458 1.291289,2.58016 0.680277,-0.30654 1.345584,-0.656003 1.98767,-1.04236 0.710428,-0.42211 1.376316,-0.93339 1.981644,-1.507 0.484391,-0.457978 0.884704,-0.990855 1.191253,-1.57359 C 53.859938,33.076491 53.988883,32.54531 54,31.997878 c -0.01475,-0.541317 -0.145728,-1.074307 -0.384774,-1.570399 -0.305816,-0.58271 -0.706862,-1.115589 -1.191253,-1.56963 -0.605328,-0.57273 -1.271216,-1.08401 -1.981644,-1.507 -0.642086,-0.39101 -1.307393,-0.73421 -1.98767,-1.048008 z m -16.690875,1.903368 c 1.022785,0 1.993019,0.402522 2.714443,1.105681 0.710567,0.714749 1.117321,1.679379 1.117321,2.685988 0,1.011961 -0.406754,1.975561 -1.117321,2.686373 -0.721424,0.708778 -1.691658,1.110788 -2.714443,1.110788 -1.017257,0 -1.991025,-0.40201 -2.713231,-1.110788 -0.712741,-0.710812 -1.117281,-1.674412 -1.117281,-2.686373 0,-1.006609 0.40454,-1.971239 1.117281,-2.685988 0.722206,-0.703159 1.695974,-1.105681 2.713231,-1.105681 z m 0,1.518222 c -0.611577,0 -1.19512,0.2442 -1.623032,0.667408 -0.431694,0.4224 -0.674827,1.001362 -0.674827,1.606039 0,0.610681 0.243614,1.183851 0.674827,1.611603 0.427912,0.42152 1.011455,0.667558 1.623032,0.667558 0.616701,0 1.197027,-0.243108 1.62851,-0.667558 0.427468,-0.427752 0.674584,-1.000922 0.674584,-1.611603 0,-0.604677 -0.244354,-1.183639 -0.674584,-1.606039 -0.431483,-0.422768 -1.011809,-0.667408 -1.62851,-0.667408 z m -10.323914,0.65164 c -0.13248,0.156658 -0.262375,0.328898 -0.390511,0.495368 -0.291092,0.3696 -0.579307,0.751921 -0.870069,1.126439 0.289248,0.380522 0.575254,0.761161 0.870069,1.131828 0.124749,0.16387 0.254647,0.3322 0.390511,0.496094 -0.02208,-0.543614 -0.03306,-1.086171 -0.03306,-1.627922 0,-0.541317 0.01101,-1.079988 0.03306,-1.621807 z m 20.649634,0 c 0.02572,0.536288 0.03313,1.08049 0.03313,1.621807 0,0.541751 0,1.084308 -0.03313,1.627922 0.130215,-0.15769 0.26201,-0.33 0.395596,-0.496094 0.289249,-0.370667 0.578423,-0.751306 0.863028,-1.131828 C 43.061467,31.62336 42.77468,31.241039 42.4851,30.871439 42.35262,30.70829 42.220509,30.537769 42.089504,30.376071 Z M 8,31.9934 v 0.022 z m 11.278616,1.339586 c -0.569082,0.812744 -1.090209,1.658095 -1.580085,2.519253 -0.453785,0.786971 -0.859946,1.590199 -1.207776,2.419961 0.859203,0.327438 1.738618,0.615198 2.623797,0.860311 0.954188,0.2596 1.907602,0.490528 2.872096,0.68244 -0.185108,-1.214801 -0.322369,-2.43012 -0.408962,-3.654901 -0.608119,-0.678544 -1.181316,-1.382219 -1.739564,-2.096639 -0.19357,-0.242 -0.375147,-0.485972 -0.559506,-0.730425 z m 24.971156,0 c -0.180323,0.242 -0.368405,0.490374 -0.553838,0.730425 -0.563599,0.719628 -1.138887,1.418095 -1.744035,2.101228 -0.08943,1.220192 -0.235521,2.435511 -0.406446,3.650312 0.964556,-0.1958 1.918413,-0.421481 2.867163,-0.68244 0.891955,-0.243102 1.766131,-0.532361 2.630761,-0.860311 -0.346655,-0.829762 -0.759919,-1.63299 -1.212979,-2.419961 -0.490025,-0.861158 -1.011661,-1.706509 -1.580626,-2.519253 z m -20.938727,4.766773 c 0.06954,0.66719 0.16603,1.329563 0.276,1.99115 0.669097,0.10924 1.344191,0.199092 2.012964,0.273892 C 25.215816,39.9948 24.825733,39.62491 24.446725,39.250359 24.066332,38.868071 23.687109,38.487878 23.313286,38.102146 Z m 16.906769,0 c -0.373633,0.385111 -0.748623,0.766402 -1.13384,1.148147 -0.378159,0.375133 -0.768903,0.744733 -1.152513,1.119613 0.668079,-0.07407 1.343752,-0.163875 2.012449,-0.28087 0.109301,-0.6622 0.198721,-1.324038 0.276,-1.99158 z M 15.895518,39.67507 c -0.105605,0.25886 -0.196512,0.519969 -0.285575,0.781981 -0.220801,0.661988 -0.395523,1.345787 -0.527232,2.03383 -0.108539,0.599358 -0.166023,1.199629 -0.166023,1.80488 -0.02208,0.645998 0.08351,1.293678 0.28814,1.903841 0.18032,0.509409 0.463826,0.973837 0.837525,1.360408 0.389828,0.37004 0.859427,0.65164 1.370948,0.82343 0.621663,0.20644 1.274573,0.30798 1.922842,0.289308 0.616691,0 1.223232,-0.06506 1.823472,-0.163868 0.702039,-0.130522 1.391376,-0.30653 2.055246,-0.525905 0.270483,-0.08984 0.532531,-0.1848 0.795987,-0.281969 -0.35217,-0.917031 -0.66883,-1.839522 -0.931699,-2.779769 -0.328617,-1.157125 -0.6009,-2.336143 -0.817693,-3.519192 -1.200928,-0.2112 -2.387401,-0.485943 -3.557121,-0.814401 -0.948272,-0.25887 -1.887399,-0.567199 -2.808952,-0.91711 z m 31.743428,0 c -0.927189,0.34906 -1.86112,0.656369 -2.809873,0.916331 -1.169655,0.32927 -2.360866,0.601881 -3.557451,0.814557 -0.214176,1.182868 -0.489404,2.361881 -0.822079,3.519081 -0.261647,0.940971 -0.57422,1.862882 -0.933471,2.780547 0.263484,0.09755 0.533011,0.192494 0.795992,0.281964 0.669869,0.218892 1.360051,0.395368 2.056381,0.526094 0.606127,0.108131 1.21146,0.163884 1.822997,0.163884 0.65449,0.0222 1.301796,-0.0806 1.923463,-0.288944 0.517114,-0.170893 0.981539,-0.453569 1.377066,-0.82357 0.37374,-0.386248 0.658454,-0.850703 0.832002,-1.360262 0.201662,-0.610348 0.304328,-1.25796 0.289249,-1.904065 0,-0.604851 -0.0621,-1.205415 -0.166036,-1.804732 -0.12465,-0.687829 -0.305433,-1.371511 -0.527297,-2.033711 -0.08908,-0.260703 -0.186942,-0.521918 -0.282986,-0.782135 z m -23.775057,1.997372 c 0.198721,0.960119 0.426105,1.903304 0.696303,2.842149 0.244708,0.881248 0.536945,1.751679 0.863768,2.601648 0.843155,-0.343568 1.655006,-0.750389 2.445471,-1.19313 0.869354,-0.486615 1.723598,-1.002147 2.545115,-1.565308 -0.245452,-0.185162 -0.489988,-0.365562 -0.736652,-0.552523 -0.723492,-0.552239 -1.434586,-1.126918 -2.119507,-1.726449 -1.23298,-0.08944 -2.466811,-0.22587 -3.694498,-0.406387 z m 15.801119,0 c -1.228278,0.1848 -2.455966,0.319368 -3.689758,0.406387 -0.689706,0.599531 -1.402599,1.17421 -2.124425,1.726449 -0.243614,0.190668 -0.489657,0.37004 -0.738205,0.552523 0.82307,0.563161 1.677337,1.078693 2.546226,1.565308 0.790873,0.442741 1.608449,0.849237 2.446352,1.19313 0.331934,-0.849969 0.622255,-1.7204 0.868516,-2.601648 0.262384,-0.938845 0.495477,-1.88203 0.691294,-2.842149 z m -9.545262,0.541944 c 0.166036,0.137509 0.335979,0.261424 0.501216,0.391296 0.379082,0.2882 0.758228,0.573184 1.142822,0.854784 0.385886,-0.283068 0.765372,-0.563175 1.143782,-0.854784 0.166036,-0.128698 0.33598,-0.252256 0.500776,-0.391296 -0.547473,0.0293 -1.095837,0.0367 -1.644558,0.0367 -0.547656,0 -1.095721,-0.0078 -1.644038,-0.0367 z m 1.644038,3.076655 c -1.011997,0.703677 -2.065916,1.351318 -3.141024,1.95096 -0.842838,0.473479 -1.718052,0.908049 -2.613136,1.272451 0.316856,0.672918 0.663724,1.329768 1.053327,1.966678 0.431845,0.70366 0.943297,1.36521 1.528708,1.96478 0.458894,0.47527 0.995848,0.87164 1.586416,1.17347 0.501217,0.242 1.032462,0.37103 1.585709,0.38062 0.554499,-0.0111 1.091344,-0.14302 1.586858,-0.38062 0.59079,-0.30059 1.127585,-0.6982 1.586407,-1.17347 0.585082,-0.59957 1.095936,-1.26112 1.528048,-1.96478 0.390928,-0.63695 0.743945,-1.29376 1.053987,-1.966678 -0.895123,-0.364466 -1.765594,-0.798972 -2.609191,-1.272451 -1.078789,-0.599642 -2.134476,-1.247283 -3.146109,-1.95096 z"
     fill-rule="evenodd"
     id="path1-3"
     style="isolation:isolate;fill:#ccaaff;fill-opacity:1;stroke-width:0.448642" />
</svg>
