<?xml version="1.0" encoding="UTF-8" standalone="no"?>
<svg
   width="62"
   height="62"
   version="1"
   id="svg7"
   sodipodi:docname="postman.svg"
   inkscape:version="1.4 (e7c3feb100, 2024-10-09)"
   xmlns:inkscape="http://www.inkscape.org/namespaces/inkscape"
   xmlns:sodipodi="http://sodipodi.sourceforge.net/DTD/sodipodi-0.dtd"
   xmlns:xlink="http://www.w3.org/1999/xlink"
   xmlns="http://www.w3.org/2000/svg"
   xmlns:svg="http://www.w3.org/2000/svg">
  <defs
     id="defs7">
    <linearGradient
       id="linearGradient7"
       inkscape:collect="always">
      <stop
         style="stop-color:#384850;stop-opacity:1;"
         offset="0"
         id="stop8" />
      <stop
         style="stop-color:#384850;stop-opacity:1;"
         offset="0.59162253"
         id="stop10" />
      <stop
         style="stop-color:#eff2f6;stop-opacity:1;"
         offset="0.92173076"
         id="stop11" />
      <stop
         style="stop-color:#eff2f6;stop-opacity:1;"
         offset="1"
         id="stop9" />
    </linearGradient>
    <linearGradient
       id="linearGradient1"
       inkscape:collect="always">
      <stop
         style="stop-color:#fd7e14;stop-opacity:1"
         offset="0"
         id="stop5" />
      <stop
         style="stop-color:#fd933a;stop-opacity:1"
         offset="0.28848785"
         id="stop7" />
      <stop
         style="stop-color:#fea75f;stop-opacity:1"
         offset="1"
         id="stop6" />
    </linearGradient>
    <linearGradient
       id="c-3"
       gradientUnits="userSpaceOnUse"
       x1="24.072048"
       x2="23.959682"
       y1="0.75082099"
       y2="46.056854">
      <stop
         offset="0"
         stop-color="#fff"
         id="stop3" />
      <stop
         offset="1"
         stop-color="#d9d9d9"
         id="stop4" />
    </linearGradient>
    <linearGradient
       id="b-6"
       gradientUnits="userSpaceOnUse"
       x1="29.203026"
       x2="34.121048"
       xlink:href="#a-7"
       y1="24.827356"
       y2="29.224836" />
    <linearGradient
       id="a-7">
      <stop
         offset="0"
         id="stop1" />
      <stop
         offset="1"
         stop-opacity="0"
         id="stop2" />
    </linearGradient>
    <linearGradient
       id="d"
       gradientUnits="userSpaceOnUse"
       x1="15.948756"
       x2="25.031786"
       xlink:href="#a-7"
       y1="23.618279"
       y2="33.69899" />
    <linearGradient
       id="e"
       gradientUnits="userSpaceOnUse"
       x1="21.990562"
       x2="29.320522"
       xlink:href="#a-7"
       y1="33.780373"
       y2="41.931858" />
    <linearGradient
       id="paint154_linear_890_11"
       x1="778"
       y1="812.29199"
       x2="788"
       y2="812.29199"
       gradientUnits="userSpaceOnUse"
       gradientTransform="translate(-751,-696)">
      <stop
         stop-color="#EFF2F6"
         id="stop1050" />
      <stop
         offset="0.600785"
         stop-color="#B7C6CD"
         id="stop1051" />
    </linearGradient>
    <linearGradient
       id="paint155_linear_890_11"
       x1="783"
       y1="813"
       x2="783"
       y2="817"
       gradientUnits="userSpaceOnUse"
       gradientTransform="translate(-751,-696)">
      <stop
         stop-color="#EFF2F6"
         id="stop1052" />
      <stop
         offset="0.734138"
         stop-color="#B7C6CD"
         id="stop1053" />
    </linearGradient>
    <radialGradient
       id="paint156_radial_890_11"
       cx="0"
       cy="0"
       r="1"
       gradientUnits="userSpaceOnUse"
       gradientTransform="matrix(27.999986,27.999976,-27.999986,27.999976,32.302392,33.999998)">
      <stop
         offset="0.60067803"
         stop-color="#B7C6CD"
         id="stop1054"
         style="stop-color:#384850;stop-opacity:1;" />
      <stop
         offset="0.876735"
         stop-color="#EFF2F6"
         id="stop1055" />
    </radialGradient>
    <linearGradient
       id="paint157_linear_890_11"
       x1="796.84485"
       y1="799.43359"
       x2="768.90088"
       y2="770.81476"
       gradientUnits="userSpaceOnUse"
       gradientTransform="matrix(1.1666666,0,0,1.1666668,-881.19764,-881.8333)">
      <stop
         offset="0.00000057"
         stop-color="#2E2E41"
         id="stop1056"
         style="stop-color:#495361;stop-opacity:1;" />
      <stop
         offset="0.711139"
         stop-color="#566C80"
         id="stop1057" />
    </linearGradient>
    <linearGradient
       id="paint158_linear_890_11"
       x1="792"
       y1="794"
       x2="774"
       y2="776"
       gradientUnits="userSpaceOnUse"
       gradientTransform="translate(-751,-696)">
      <stop
         offset="0.304478"
         stop-color="#2E2E41"
         id="stop1058" />
      <stop
         offset="1"
         stop-color="#566C80"
         id="stop1059" />
    </linearGradient>
    <linearGradient
       id="paint159_linear_890_11"
       x1="788"
       y1="790"
       x2="778"
       y2="780"
       gradientUnits="userSpaceOnUse"
       gradientTransform="translate(-751,-696)">
      <stop
         offset="0.391394"
         stop-color="#5200FF"
         id="stop1060" />
      <stop
         offset="1"
         stop-color="#0085FF"
         id="stop1061" />
    </linearGradient>
    <linearGradient
       id="paint160_linear_890_11"
       x1="784"
       y1="798"
       x2="782"
       y2="796"
       gradientUnits="userSpaceOnUse"
       gradientTransform="translate(-751,-696)">
      <stop
         stop-color="#FF7E07"
         id="stop1062" />
      <stop
         offset="1"
         stop-color="#FFE607"
         id="stop1063" />
    </linearGradient>
    <linearGradient
       inkscape:collect="always"
       xlink:href="#linearGradient1"
       id="linearGradient6"
       x1="17.408081"
       y1="16.037786"
       x2="49.155514"
       y2="50.137749"
       gradientUnits="userSpaceOnUse" />
    <radialGradient
       inkscape:collect="always"
       xlink:href="#linearGradient7"
       id="radialGradient9"
       cx="32.302387"
       cy="34"
       fx="32.302387"
       fy="34"
       r="28"
       gradientUnits="userSpaceOnUse"
       gradientTransform="matrix(0.99999999,1,-1,0.99999999,34,-32.302387)" />
  </defs>
  <sodipodi:namedview
     id="namedview7"
     pagecolor="#ffffff"
     bordercolor="#000000"
     borderopacity="0.25"
     inkscape:showpageshadow="2"
     inkscape:pageopacity="0.0"
     inkscape:pagecheckerboard="0"
     inkscape:deskcolor="#d1d1d1"
     inkscape:zoom="8.3306018"
     inkscape:cx="35.171529"
     inkscape:cy="40.45326"
     inkscape:window-width="1920"
     inkscape:window-height="998"
     inkscape:window-x="0"
     inkscape:window-y="0"
     inkscape:window-maximized="1"
     inkscape:current-layer="svg7" />
  <g
     id="g1"
     transform="translate(-1.3023872,-3)">
    <path
       d="m 60.302387,34 c 0,15.46415 -12.535828,28 -28.000002,28 C 16.838222,62 4.3023873,49.46415 4.3023873,34 4.3023873,18.535835 16.838222,6 32.302385,6 47.766559,6 60.302387,18.535835 60.302387,34 Z"
       id="path154"
       style="fill:url(#radialGradient9)" />
    <path
       d="m 55.63572,34 c 0,12.88701 -10.446332,23.33332 -23.333335,23.33332 C 19.415386,57.33332 8.9690543,46.88701 8.9690543,34 c 0,-12.886994 10.4463317,-23.333332 23.3333307,-23.333332 12.887003,0 23.333335,10.446338 23.333335,23.333332 z"
       id="path155"
       style="fill:url(#linearGradient6)" />
  </g>
  <g
     id="g2"
     transform="translate(4.787507e-7,0.42948713)">
    <path
       style="opacity:0.2"
       d="m 42.879542,15.074097 c -0.940714,0.04011 -1.868508,0.416159 -2.597312,1.121851 -1.600202,1.555735 -1.662148,4.123697 -0.12532,5.743585 l -0.0172,-0.03234 c 1.204112,1.251002 3.07433,1.570816 4.627002,0.80097 l -2.757034,-2.773536 c -0.09506,-0.11226 -0.09506,-0.273294 0,-0.38556 l 3.548266,-3.576999 C 44.773688,15.330535 43.820258,15.034 42.879542,15.074097 Z m 3.059274,1.266125 -3.373802,3.417791 2.646458,2.676528 c 0.221812,-0.14434 0.411904,-0.318586 0.602026,-0.495008 1.53683,-1.539698 1.58293,-4.0115 0.12532,-5.599311 z m -0.18182,2.057143 c 0.08432,-3.2e-4 0.16426,0.03928 0.213784,0.10946 0.285182,0.545308 0.20688,1.201492 -0.1892,1.666608 -0.04752,0.06416 -0.14438,0.11194 -0.22361,0.11194 -0.06338,0.016 -0.14302,0.016 -0.20641,0 l -0.0146,-0.0148 c -0.11092,-0.11226 -0.09616,-0.305626 0.0146,-0.417896 0.237656,-0.272652 0.271468,-0.671734 0.11304,-0.992504 0,-0.016 -0.0172,-0.0164 -0.0172,-0.03234 -0.06336,-0.14434 0.0172,-0.321406 0.15972,-0.38556 0.04752,-0.03006 0.09932,-0.04458 0.14988,-0.04478 z m -7.917256,2.805872 c -1.701452,-0.13908 -4.496404,1.740458 -11.72108,9.041976 l 2.091118,2.119332 9.79214,-9.912594 c 0.34856,-0.352846 0.808732,-0.546136 1.299884,-0.562168 -0.44758,-0.368886 -0.894912,-0.640184 -1.462062,-0.686546 z m 1.49155,1.30095 c -0.34856,0 -0.69636,0.13086 -0.965698,0.39551 l -9.760196,9.815582 1.31463,1.395474 10.315532,-9.20615 c 0.285184,-0.256616 0.443666,-0.60758 0.459506,-0.992504 0.0158,-0.368882 -0.12628,-0.739748 -0.395618,-1.012402 -0.26934,-0.264634 -0.619598,-0.39551 -0.968156,-0.39551 z m 1.521036,2.482504 c -0.07922,0.11226 -0.17278,0.208348 -0.26784,0.288546 l -10.31553,9.188738 1.83802,1.860632 c 4.261924,-4.12189 8.412634,-8.35476 8.74535,-11.337916 z m -15.11454,5.57941 -2.582568,2.614336 -0.04668,0.06468 c -0.04754,0.04812 -0.06254,0.09752 -0.04668,0.16168 0.0158,0.09624 0.1089,0.1603 0.203952,0.14426 l 4.42059,-0.962652 z m 2.503938,2.614336 -1.47435,1.492486 c -0.0317,0.04812 -0.0317,0.11356 0,0.16168 0.04754,0.03208 0.095,0.03208 0.14252,0 l 2.425304,-0.626846 z m 1.552982,1.524822 -4.007774,0.865642 -8.271101,8.38777 2.693143,2.80836 c 0.07922,0.08022 0.221924,0.08022 0.316986,0 0.09504,-0.06416 0.15946,-0.19258 0.12778,-0.320884 l -0.444764,-1.925306 c -0.04752,-0.22454 0.06434,-0.449902 0.2703,-0.56217 h 0.0146 v -0.03234 c 4.024272,-1.940658 7.795126,-4.393918 11.217342,-7.280844 z m -12.706444,9.653896 -2.076376,2.11933 c -0.01584,0.04812 -0.01584,0.10998 0,0.17414 0.01584,0.04812 0.07915,0.0984 0.14252,0.11442 l 4.626994,0.303464 z"
       id="path2" />
    <path
       style="fill:#ffffff"
       d="m 42.879542,14.074097 c -0.940714,0.04011 -1.868508,0.416159 -2.597312,1.121851 -1.600202,1.555734 -1.662148,4.123697 -0.12532,5.743585 l -0.0172,-0.03234 c 1.204112,1.251002 3.07433,1.570816 4.627002,0.80097 l -2.757034,-2.773536 c -0.09506,-0.11226 -0.09506,-0.273294 0,-0.38556 l 3.548266,-3.576999 C 44.773688,14.330535 43.820258,14.034 42.879542,14.074097 Z m 3.059274,1.266125 -3.373802,3.417791 2.646458,2.676528 c 0.221812,-0.14434 0.411904,-0.318586 0.602026,-0.495008 1.53683,-1.539698 1.58293,-4.0115 0.12532,-5.599311 z m -0.18182,2.057143 c 0.08432,-3.2e-4 0.16426,0.03928 0.213784,0.10946 0.285182,0.545308 0.20688,1.201492 -0.1892,1.666608 -0.04752,0.06416 -0.14438,0.11194 -0.22361,0.11194 -0.06338,0.016 -0.14302,0.016 -0.20641,0 l -0.0146,-0.0148 c -0.11092,-0.11226 -0.09616,-0.305626 0.0146,-0.417896 0.237656,-0.272652 0.271468,-0.671734 0.11304,-0.992504 0,-0.016 -0.0172,-0.0164 -0.0172,-0.03234 -0.06336,-0.14434 0.0172,-0.321406 0.15972,-0.38556 0.04752,-0.03006 0.09932,-0.04458 0.14988,-0.04478 z m -7.917256,2.805872 c -1.701452,-0.13908 -4.496404,1.740458 -11.72108,9.041976 l 2.091118,2.119332 9.79214,-9.912594 c 0.34856,-0.352846 0.808732,-0.546136 1.299884,-0.562168 -0.44758,-0.368886 -0.894912,-0.640184 -1.462062,-0.686546 z m 1.49155,1.30095 c -0.34856,0 -0.69636,0.13086 -0.965698,0.39551 l -9.760196,9.815582 1.31463,1.395474 10.315532,-9.20615 c 0.285184,-0.256616 0.443666,-0.60758 0.459506,-0.992504 0.0158,-0.368882 -0.12628,-0.739748 -0.395618,-1.012402 -0.26934,-0.264634 -0.619598,-0.39551 -0.968156,-0.39551 z m 1.521036,2.482504 c -0.07922,0.11226 -0.17278,0.208348 -0.26784,0.288546 l -10.31553,9.188738 1.83802,1.860632 c 4.261924,-4.12189 8.412634,-8.35476 8.74535,-11.337916 z m -15.11454,5.57941 -2.582568,2.614336 -0.04668,0.06468 c -0.04754,0.04812 -0.06254,0.09752 -0.04668,0.16168 0.0158,0.09624 0.1089,0.1603 0.203952,0.14426 l 4.42059,-0.962652 z m 2.503938,2.614336 -1.47435,1.492486 c -0.0317,0.04812 -0.0317,0.11356 0,0.16168 0.04754,0.03208 0.095,0.03208 0.14252,0 l 2.425304,-0.626846 z m 1.552982,1.524822 -4.007774,0.865642 -8.271101,8.38777 2.693143,2.80836 c 0.07922,0.08022 0.221924,0.08022 0.316986,0 0.09504,-0.06416 0.15946,-0.19258 0.12778,-0.320884 l -0.444764,-1.925306 c -0.04752,-0.22454 0.06434,-0.449902 0.2703,-0.56217 h 0.0146 v -0.03234 c 4.024272,-1.940658 7.795126,-4.393918 11.217342,-7.280844 z m -12.706444,9.653896 -2.076376,2.11933 c -0.01584,0.04812 -0.01584,0.10998 0,0.17414 0.01584,0.04812 0.07915,0.0984 0.14252,0.11442 l 4.626994,0.303464 z"
       id="path3-6" />
  </g>
</svg>
