<?xml version="1.0" encoding="UTF-8" standalone="no"?>
<svg
   width="62"
   height="62"
   version="1"
   id="svg5"
   sodipodi:docname="preferences-system-brightness-lock.svg"
   inkscape:version="1.4 (e7c3feb100, 2024-10-09)"
   xmlns:inkscape="http://www.inkscape.org/namespaces/inkscape"
   xmlns:sodipodi="http://sodipodi.sourceforge.net/DTD/sodipodi-0.dtd"
   xmlns:xlink="http://www.w3.org/1999/xlink"
   xmlns="http://www.w3.org/2000/svg"
   xmlns:svg="http://www.w3.org/2000/svg">
  <defs
     id="defs5">
    <linearGradient
       id="linearGradient5"
       inkscape:collect="always">
      <stop
         style="stop-color:#3485fd;stop-opacity:1"
         offset="0"
         id="stop5" />
      <stop
         style="stop-color:#9d7ed5;stop-opacity:1"
         offset="1"
         id="stop6" />
    </linearGradient>
    <linearGradient
       inkscape:collect="always"
       xlink:href="#linearGradient5"
       id="linearGradient6"
       x1="31.886063"
       y1="58.050846"
       x2="32.462898"
       y2="3"
       gradientUnits="userSpaceOnUse" />
  </defs>
  <sodipodi:namedview
     id="namedview5"
     pagecolor="#ffffff"
     bordercolor="#000000"
     borderopacity="0.25"
     inkscape:showpageshadow="2"
     inkscape:pageopacity="0.0"
     inkscape:pagecheckerboard="0"
     inkscape:deskcolor="#d1d1d1"
     inkscape:zoom="8.3085047"
     inkscape:cx="45.495551"
     inkscape:cy="42.727303"
     inkscape:window-width="1920"
     inkscape:window-height="998"
     inkscape:window-x="0"
     inkscape:window-y="0"
     inkscape:window-maximized="1"
     inkscape:current-layer="svg5" />
  <g
     id="g5">
    <path
       style="opacity:0.2;stroke-width:0.948713"
       d="m 30.499987,3.9491532 c -1.054996,0 -2.109206,0.4045539 -2.917603,1.2140179 L 22.549767,10.58159 h -8.657173 c -2.35263,0 -4.2471137,1.896996 -4.2471137,4.252731 v 8.668593 l -5.4112265,5.039269 c -1.6743033,1.559222 -1.6167909,4.223988 0,5.842918 l 5.4112265,5.039272 v 8.668683 c 0,2.355733 1.8944837,4.252731 4.2471137,4.252731 h 8.657173 l 5.032617,5.418329 c 1.557169,1.67651 4.218415,1.618929 5.835218,0 l 5.032621,-5.418329 h 8.656894 c 2.35263,0 4.247116,-1.896998 4.247116,-4.252731 v -8.668683 l 5.411498,-5.039272 c 1.67434,-1.559176 1.616791,-4.223989 0,-5.842918 l -5.411498,-5.039269 v -8.668593 c 0,-2.355735 -1.894486,-4.252731 -4.247116,-4.252731 H 38.450223 L 33.417602,5.1631711 C 32.639016,4.3249094 31.554996,3.9491532 30.499987,3.9491532 Z"
       id="path1" />
    <path
       style="fill:url(#linearGradient6);stroke-width:0.948713"
       d="m 30.499987,3 c -1.054996,0 -2.109206,0.4045539 -2.917603,1.2140179 l -5.032617,5.4184264 h -8.657173 c -2.35263,0 -4.2471137,1.8969907 -4.2471137,4.2527257 v 8.668593 l -5.4112265,5.039269 c -1.6743033,1.559222 -1.6167909,4.223988 0,5.842918 l 5.4112265,5.039272 v 8.668683 c 0,2.355733 1.8944837,4.252716 4.2471137,4.252716 h 8.657173 l 5.032617,5.418344 c 1.557169,1.676507 4.218415,1.618929 5.835218,0 l 5.032621,-5.418344 h 8.656894 c 2.35263,0 4.247116,-1.896983 4.247116,-4.252716 v -8.668683 l 5.411498,-5.039272 c 1.67434,-1.559177 1.616791,-4.223989 0,-5.842918 L 51.354233,22.553763 V 13.88517 c 0,-2.355735 -1.894486,-4.2527257 -4.247116,-4.2527257 H 38.450223 L 33.417602,4.2140179 C 32.639016,3.3757562 31.554996,3 30.499987,3 Z"
       id="path2" />
    <path
       style="opacity:0.2;stroke-width:0.948713"
       d="m 30.499995,17.237283 c -8.059358,0 -14.224137,6.170448 -14.224137,14.237257 0,8.06681 6.164779,14.237328 14.224137,14.237328 z"
       id="path3" />
    <path
       style="fill:#ffffff;stroke-width:0.948713"
       d="m 30.499995,16.288132 c -8.059358,0 -14.224137,6.170448 -14.224137,14.237257 0,8.06681 6.164779,14.237328 14.224137,14.237328 z"
       id="path4" />
    <path
       style="opacity:0.1;fill:#ffffff;stroke-width:0.948713"
       d="M 30.499995,3 C 29.444998,3 28.391333,3.4047839 27.582934,4.2142479 L 22.54893,9.6329457 h -8.656716 c -2.35263,0 -4.2468741,1.8969033 -4.2468741,4.2526433 v 0.949166 c 0,-2.355755 1.8942441,-4.252649 4.2468741,-4.252649 h 8.656716 l 5.034004,-5.4187053 c 0.808399,-0.809464 1.862064,-1.2142479 2.917061,-1.2142479 1.055009,0 2.138485,0.3759862 2.917072,1.2142479 l 5.034005,5.4187053 h 8.656719 c 2.35263,0 4.246878,1.896894 4.246878,4.252649 v -0.949166 c 0,-2.35574 -1.894248,-4.2526432 -4.246878,-4.2526433 H 38.451072 L 33.417067,4.2142479 C 32.63848,3.3759862 31.555004,3 30.499995,3 Z M 9.6453399,22.554023 4.2334996,27.592686 c -0.9547379,0.889121 -1.3267094,2.136957 -1.1871979,3.346134 0.104249,-0.887024 0.4828845,-1.741082 1.1871979,-2.396969 l 5.4118403,-5.038677 z m 41.7093291,0 v 0.949151 l 5.411839,5.038677 c 0.694847,0.695758 1.082045,1.585746 1.187195,2.497075 0.143563,-1.221619 -0.250537,-2.508319 -1.187195,-3.44624 z"
       id="path5" />
  </g>
</svg>
