<?xml version="1.0" encoding="UTF-8" standalone="no"?>
<!-- Created with Inkscape (http://www.inkscape.org/) -->

<svg
   width="62"
   height="62"
   viewBox="0 0 62 62"
   version="1.1"
   id="svg1"
   inkscape:version="1.4 (e7c3feb100, 2024-10-09)"
   sodipodi:docname="preferences-system-hotcorners.svg"
   xmlns:inkscape="http://www.inkscape.org/namespaces/inkscape"
   xmlns:sodipodi="http://sodipodi.sourceforge.net/DTD/sodipodi-0.dtd"
   xmlns:xlink="http://www.w3.org/1999/xlink"
   xmlns="http://www.w3.org/2000/svg"
   xmlns:svg="http://www.w3.org/2000/svg">
  <sodipodi:namedview
     id="namedview1"
     pagecolor="#ffffff"
     bordercolor="#000000"
     borderopacity="0.25"
     inkscape:showpageshadow="2"
     inkscape:pageopacity="0.0"
     inkscape:pagecheckerboard="0"
     inkscape:deskcolor="#d1d1d1"
     inkscape:document-units="px"
     inkscape:zoom="7.5994534"
     inkscape:cx="37.502697"
     inkscape:cy="39.476524"
     inkscape:window-width="1920"
     inkscape:window-height="998"
     inkscape:window-x="0"
     inkscape:window-y="0"
     inkscape:window-maximized="1"
     inkscape:current-layer="layer1"
     showgrid="false"
     showguides="false">
    <inkscape:grid
       id="grid1"
       units="px"
       originx="0"
       originy="0"
       spacingx="1"
       spacingy="1"
       empcolor="#0099e5"
       empopacity="0.30196078"
       color="#0099e5"
       opacity="0.14901961"
       empspacing="5"
       enabled="true"
       visible="false" />
  </sodipodi:namedview>
  <defs
     id="defs1">
    <linearGradient
       id="linearGradient4"
       inkscape:collect="always">
      <stop
         style="stop-color:#b89be3;stop-opacity:1;"
         offset="0"
         id="stop5" />
      <stop
         style="stop-color:#eeaaff;stop-opacity:1"
         offset="0.21004465"
         id="stop7" />
      <stop
         style="stop-color:#fff7d8;stop-opacity:1;"
         offset="0.52648342"
         id="stop8" />
      <stop
         style="stop-color:#80b3ff;stop-opacity:1"
         offset="0.80633134"
         id="stop9" />
      <stop
         style="stop-color:#aa87de;stop-opacity:1"
         offset="1"
         id="stop6" />
    </linearGradient>
    <radialGradient
       id="paint664_radial_890_11"
       cx="0"
       cy="0"
       r="1"
       gradientUnits="userSpaceOnUse"
       gradientTransform="matrix(-16.000099,-9.999913,9.999913,-16.000099,583,171)">
      <stop
         offset="0.42141"
         stop-color="#B7C6CD"
         id="stop2071" />
      <stop
         offset="1"
         stop-color="#EFF2F6"
         id="stop2072" />
    </radialGradient>
    <linearGradient
       id="paint665_linear_890_11"
       x1="605"
       y1="180"
       x2="601.466"
       y2="162.72301"
       gradientUnits="userSpaceOnUse">
      <stop
         stop-color="#5200FF"
         id="stop2073" />
      <stop
         offset="1"
         stop-color="#0085FF"
         id="stop2074" />
    </linearGradient>
    <linearGradient
       id="paint666_linear_890_11"
       x1="567"
       y1="181"
       x2="562.11798"
       y2="174.183"
       gradientUnits="userSpaceOnUse">
      <stop
         stop-color="#5200FF"
         id="stop2075" />
      <stop
         offset="0.670391"
         stop-color="#0085FF"
         id="stop2076" />
    </linearGradient>
    <linearGradient
       id="paint667_linear_890_11"
       x1="605"
       y1="180"
       x2="597.32001"
       y2="174.24001"
       gradientUnits="userSpaceOnUse">
      <stop
         stop-color="#5200FF"
         id="stop2077" />
      <stop
         offset="1"
         stop-color="#0085FF"
         id="stop2078" />
    </linearGradient>
    <linearGradient
       id="paint668_linear_890_11"
       x1="567"
       y1="180"
       x2="561.23999"
       y2="172.32001"
       gradientUnits="userSpaceOnUse">
      <stop
         stop-color="#5200FF"
         id="stop2079" />
      <stop
         offset="1"
         stop-color="#0085FF"
         id="stop2080" />
    </linearGradient>
    <linearGradient
       id="paint669_linear_890_11"
       x1="607"
       y1="179"
       x2="602.50598"
       y2="171.80901"
       gradientUnits="userSpaceOnUse">
      <stop
         stop-color="#5200FF"
         id="stop2081" />
      <stop
         offset="1"
         stop-color="#0085FF"
         id="stop2082" />
    </linearGradient>
    <linearGradient
       id="paint670_linear_890_11"
       x1="607"
       y1="217"
       x2="568.82599"
       y2="170.01601"
       gradientUnits="userSpaceOnUse">
      <stop
         stop-color="#5200FF"
         id="stop2083" />
      <stop
         offset="1"
         stop-color="#0085FF"
         id="stop2084" />
    </linearGradient>
    <radialGradient
       id="paint671_radial_890_11"
       cx="0"
       cy="0"
       r="1"
       gradientUnits="userSpaceOnUse"
       gradientTransform="matrix(0,20,-16,0,583,187)">
      <stop
         offset="0.869716"
         stop-color="#EFF2F6"
         id="stop2085" />
      <stop
         offset="1"
         stop-color="#B7C6CD"
         id="stop2086" />
    </radialGradient>
    <linearGradient
       id="paint497_linear_890_11"
       x1="497"
       y1="413"
       x2="447.457"
       y2="376.79599"
       gradientUnits="userSpaceOnUse"
       gradientTransform="translate(-452,-358)">
      <stop
         offset="0.636456"
         stop-color="#71706E"
         id="stop1737" />
      <stop
         offset="1"
         stop-color="#B9AA99"
         id="stop1738" />
    </linearGradient>
    <linearGradient
       id="paint498_linear_890_11"
       x1="507"
       y1="413"
       x2="457.457"
       y2="376.79599"
       gradientUnits="userSpaceOnUse"
       gradientTransform="translate(-452,-358)">
      <stop
         offset="0.544933"
         stop-color="#FF7E07"
         id="stop1739" />
      <stop
         offset="1"
         stop-color="#FFE607"
         id="stop1740" />
    </linearGradient>
    <linearGradient
       id="paint499_linear_890_11"
       x1="473"
       y1="365"
       x2="486.28699"
       y2="389.91299"
       gradientUnits="userSpaceOnUse"
       gradientTransform="translate(-452,-358)">
      <stop
         stop-color="white"
         id="stop1741" />
      <stop
         offset="0.705"
         stop-color="#EAEFEF"
         id="stop1742" />
    </linearGradient>
    <linearGradient
       id="paint500_linear_890_11"
       x1="480"
       y1="371.5"
       x2="480"
       y2="368.5"
       gradientUnits="userSpaceOnUse"
       gradientTransform="translate(-452,-358)">
      <stop
         offset="0.155999"
         stop-color="#71706E"
         id="stop1743" />
      <stop
         offset="0.796276"
         stop-color="#B9AA99"
         id="stop1744" />
    </linearGradient>
    <linearGradient
       id="paint501_linear_890_11"
       x1="479"
       y1="375.5"
       x2="479"
       y2="372.5"
       gradientUnits="userSpaceOnUse"
       gradientTransform="translate(-452,-358)">
      <stop
         offset="0.155999"
         stop-color="#71706E"
         id="stop1745" />
      <stop
         offset="0.796276"
         stop-color="#B9AA99"
         id="stop1746" />
    </linearGradient>
    <linearGradient
       id="paint502_linear_890_11"
       x1="511"
       y1="417"
       x2="455.64352"
       y2="380.82346"
       gradientUnits="userSpaceOnUse"
       gradientTransform="translate(-452,-358)">
      <stop
         offset="0.18397722"
         stop-color="#2E2E41"
         id="stop1747"
         style="stop-color:#33424d;stop-opacity:1;" />
      <stop
         offset="1"
         stop-color="#566C80"
         id="stop1748" />
    </linearGradient>
    <linearGradient
       id="paint745_linear_890_11"
       x1="172"
       y1="61"
       x2="195.978"
       y2="83.979202"
       gradientUnits="userSpaceOnUse">
      <stop
         stop-color="#EFF2F6"
         id="stop2233" />
      <stop
         offset="1"
         stop-color="#ACD1CF"
         id="stop2234" />
    </linearGradient>
    <linearGradient
       id="paint746_linear_890_11"
       x1="176"
       y1="84"
       x2="175.47501"
       y2="78.479202"
       gradientUnits="userSpaceOnUse">
      <stop
         offset="0.404925"
         stop-color="#2E2E41"
         id="stop2235" />
      <stop
         offset="1"
         stop-color="#566C80"
         id="stop2236" />
    </linearGradient>
    <linearGradient
       id="paint747_linear_890_11"
       x1="202"
       y1="84"
       x2="201.47501"
       y2="78.479202"
       gradientUnits="userSpaceOnUse">
      <stop
         offset="0.404925"
         stop-color="#2E2E41"
         id="stop2237" />
      <stop
         offset="1"
         stop-color="#566C80"
         id="stop2238" />
    </linearGradient>
    <linearGradient
       id="paint748_linear_890_11"
       x1="155"
       y1="82"
       x2="186.461"
       y2="132.33701"
       gradientUnits="userSpaceOnUse">
      <stop
         offset="0.205721"
         stop-color="#EFF2F6"
         id="stop2239" />
      <stop
         offset="1"
         stop-color="#B7C6CD"
         id="stop2240" />
    </linearGradient>
    <radialGradient
       id="paint750_radial_890_11"
       cx="0"
       cy="0"
       r="1"
       gradientUnits="userSpaceOnUse"
       gradientTransform="matrix(5.6470608,5.6470608,-5.6470608,5.6470608,172,96)">
      <stop
         offset="0.340843"
         stop-color="#2E2E41"
         id="stop2243" />
      <stop
         offset="1"
         stop-color="#566C80"
         id="stop2244" />
    </radialGradient>
    <linearGradient
       id="paint751_linear_890_11"
       x1="166"
       y1="90"
       x2="178"
       y2="102"
       gradientUnits="userSpaceOnUse">
      <stop
         stop-color="white"
         id="stop2245" />
      <stop
         offset="0.705"
         stop-color="#EAEFEF"
         id="stop2246" />
    </linearGradient>
    <linearGradient
       id="paint752_linear_890_11"
       x1="193"
       y1="88"
       x2="199"
       y2="94"
       gradientUnits="userSpaceOnUse">
      <stop
         stop-color="#FFE607"
         id="stop2247" />
      <stop
         offset="0.802569"
         stop-color="#FF7E07"
         id="stop2248" />
    </linearGradient>
    <linearGradient
       id="paint753_linear_890_11"
       x1="199"
       y1="104"
       x2="193"
       y2="98"
       gradientUnits="userSpaceOnUse">
      <stop
         offset="0.253846"
         stop-color="#089953"
         id="stop2249" />
      <stop
         offset="1"
         stop-color="#16D96F"
         id="stop2250" />
    </linearGradient>
    <linearGradient
       id="paint754_linear_890_11"
       x1="198"
       y1="93"
       x2="204"
       y2="99"
       gradientUnits="userSpaceOnUse">
      <stop
         offset="0.30755"
         stop-color="#F15700"
         id="stop2251" />
      <stop
         offset="0.832479"
         stop-color="#FF0000"
         id="stop2252" />
    </linearGradient>
    <linearGradient
       id="paint755_linear_890_11"
       x1="194"
       y1="99"
       x2="188"
       y2="93"
       gradientUnits="userSpaceOnUse">
      <stop
         offset="0.320751"
         stop-color="#5200FF"
         id="stop2253" />
      <stop
         offset="1"
         stop-color="#0085FF"
         id="stop2254" />
    </linearGradient>
    <linearGradient
       id="paint711_linear_890_11"
       x1="785.19843"
       y1="61.085037"
       x2="785.21344"
       y2="116.9138"
       gradientUnits="userSpaceOnUse"
       gradientTransform="matrix(0.35714286,0,0,0.35714286,-293.53986,16.980161)">
      <stop
         offset="0.0001"
         stop-color="#EFF2F6"
         id="stop2165"
         style="stop-color:#547097;stop-opacity:1;" />
      <stop
         offset="0.61014605"
         stop-color="#EFF2F6"
         id="stop1"
         style="stop-color:#9955ff;stop-opacity:1" />
      <stop
         offset="1"
         stop-color="#B7C6CD"
         id="stop2166"
         style="stop-color:#475b63;stop-opacity:1;" />
    </linearGradient>
    <radialGradient
       id="paint712_radial_890_11"
       cx="0"
       cy="0"
       r="1"
       gradientUnits="userSpaceOnUse"
       gradientTransform="matrix(22.216699,21.999996,-21.99894,22.215633,30.867,31)">
      <stop
         offset="0.420978"
         stop-color="#F15700"
         id="stop2167" />
      <stop
         offset="0.792773"
         stop-color="#FF0000"
         id="stop2168" />
    </radialGradient>
    <radialGradient
       id="paint713_radial_890_11"
       cx="0"
       cy="0"
       r="1"
       gradientUnits="userSpaceOnUse"
       gradientTransform="matrix(-16.688097,16.851418,-13.741875,-13.608691,50.791,10.8957)">
      <stop
         stop-color="#FFE607"
         id="stop2169" />
      <stop
         offset="0.903378"
         stop-color="#FF7E07"
         id="stop2170" />
    </radialGradient>
    <radialGradient
       id="paint714_radial_890_11"
       cx="0"
       cy="0"
       r="1"
       gradientUnits="userSpaceOnUse"
       gradientTransform="matrix(-22.961171,-7.4640815,7.4454397,-22.903825,31.961,30.8155)">
      <stop
         offset="0.440692"
         stop-color="#001AFF"
         id="stop2171" />
      <stop
         offset="1"
         stop-color="#0085FF"
         id="stop2172" />
    </radialGradient>
    <linearGradient
       id="a"
       x1="3.9389999"
       x2="7.4949999"
       y1="19.903999"
       y2="29.028"
       gradientUnits="userSpaceOnUse"
       gradientTransform="matrix(1.5769232,0,0,1.5769232,6.5427079,5.7692283)">
      <stop
         stop-color="#F25565"
         id="stop12-3" />
      <stop
         offset=".5"
         stop-color="#DA4453"
         id="stop13-6" />
      <stop
         offset="1"
         stop-color="#832932"
         id="stop14-7" />
    </linearGradient>
    <linearGradient
       id="b"
       x1="12"
       x2="19.5"
       y1="6.5"
       y2="20"
       gradientUnits="userSpaceOnUse"
       gradientTransform="matrix(1.5769232,0,0,1.5769232,6.5427079,5.7692283)">
      <stop
         stop-color="#C5CACD"
         id="stop15" />
      <stop
         offset="0.53799999"
         stop-color="#ACB6BC"
         id="stop16"
         style="stop-color:#c9d0d3;stop-opacity:1;" />
      <stop
         offset="0.87300003"
         stop-color="#9BA3A8"
         id="stop17-5"
         style="stop-color:#cdd2d4;stop-opacity:1;" />
      <stop
         offset="1"
         stop-color="#A0AAB0"
         id="stop18-3"
         style="stop-color:#d3d8db;stop-opacity:1;" />
    </linearGradient>
    <linearGradient
       id="c"
       x1="20"
       x2="20"
       y1="3"
       y2="9.5"
       gradientUnits="userSpaceOnUse"
       gradientTransform="matrix(1.5769232,0,0,1.5769232,6.5427079,5.7692283)">
      <stop
         stop-color="#fff"
         id="stop19-5" />
      <stop
         offset="1"
         stop-color="#fff"
         stop-opacity="0"
         id="stop20-6" />
    </linearGradient>
    <linearGradient
       id="e"
       x1="22"
       x2="14"
       y1="20.5"
       y2="3.5"
       gradientUnits="userSpaceOnUse">
      <stop
         stop-color="#C9D1D9"
         id="stop23" />
      <stop
         offset=".435"
         stop-color="#2D3B49"
         id="stop24" />
      <stop
         offset=".6"
         stop-color="#6D7E91"
         id="stop25" />
      <stop
         offset="1"
         stop-color="#A4A9AF"
         id="stop26" />
    </linearGradient>
    <linearGradient
       id="g"
       x1="20"
       x2="23"
       y1="16"
       y2="19"
       gradientUnits="userSpaceOnUse"
       gradientTransform="matrix(1.5769232,0,0,1.5769232,6.5427079,5.7692283)">
      <stop
         offset=".5"
         stop-color="#222E3C"
         stop-opacity="0"
         id="stop31" />
      <stop
         offset="1"
         stop-color="#222E3C"
         id="stop32" />
    </linearGradient>
    <radialGradient
       id="h"
       cx="0"
       cy="0"
       r="1"
       gradientTransform="matrix(4.7307691,4.7307691,-3.4124135,3.4124135,50.696527,18.384601)"
       gradientUnits="userSpaceOnUse">
      <stop
         stop-color="#fff"
         id="stop33" />
      <stop
         offset="1"
         stop-color="#fff"
         stop-opacity="0"
         id="stop34" />
    </radialGradient>
    <filter
       id="filter30427-0-36"
       x="-0.1339518"
       y="-0.3388412"
       width="1.2679036"
       height="1.6776824"
       color-interpolation-filters="sRGB">
      <feGaussianBlur
         stdDeviation="0.48299559"
         id="feGaussianBlur37-2-7" />
    </filter>
    <linearGradient
       id="paint512_linear_890_11"
       x1="309"
       y1="411"
       x2="263.34399"
       y2="359.388"
       gradientUnits="userSpaceOnUse"
       gradientTransform="matrix(1.1062109,0,0,1.1145845,-282.08382,-405.32307)">
      <stop
         offset="0.28592601"
         stop-color="#2E2E41"
         id="stop1767"
         style="stop-color:#424a55;stop-opacity:1;" />
      <stop
         offset="1"
         stop-color="#566C80"
         id="stop1768"
         style="stop-color:#6f7c91;stop-opacity:1" />
    </linearGradient>
    <linearGradient
       id="paint513_linear_890_11"
       x1="260.58133"
       y1="369.25473"
       x2="307.9393"
       y2="407"
       gradientUnits="userSpaceOnUse"
       gradientTransform="matrix(0.39285964,0,0,0.39583333,-100.17928,-142.97917)">
      <stop
         offset="1"
         stop-color="#EFF2F6"
         id="stop1769"
         style="stop-color:#44aa00;stop-opacity:1" />
      <stop
         offset="0.1727107"
         stop-color="#EFF2F6"
         id="stop3"
         style="stop-color:#f4f8ed;stop-opacity:0.91372549;" />
      <stop
         offset="0.17957145"
         stop-color="#EFF2F6"
         id="stop4"
         style="stop-color:#dbdfd5;stop-opacity:0.81960784;" />
      <stop
         offset="0.24173911"
         stop-color="#EFF2F6"
         id="stop2"
         style="stop-color:#000000;stop-opacity:0;" />
      <stop
         offset="1"
         stop-color="#B7C6CD"
         id="stop1770" />
    </linearGradient>
    <linearGradient
       id="paint514_linear_890_11"
       x1="279"
       y1="381"
       x2="273"
       y2="375"
       gradientUnits="userSpaceOnUse"
       gradientTransform="matrix(0.39285964,0,0,0.39583333,-128.12504,-141.26852)">
      <stop
         offset="0.178269"
         stop-color="#5200FF"
         id="stop1771" />
      <stop
         offset="0.732905"
         stop-color="#0085FF"
         id="stop1772" />
    </linearGradient>
    <linearGradient
       id="paint515_linear_890_11"
       x1="279"
       y1="389"
       x2="273"
       y2="383"
       gradientUnits="userSpaceOnUse"
       gradientTransform="matrix(0.39285964,0,0,0.39583333,-128.12504,-141.26852)">
      <stop
         offset="0.158885"
         stop-color="#FF7E07"
         id="stop1773" />
      <stop
         offset="0.804651"
         stop-color="#FFC807"
         id="stop1774" />
    </linearGradient>
    <linearGradient
       id="paint516_linear_890_11"
       x1="265"
       y1="375"
       x2="271"
       y2="381"
       gradientUnits="userSpaceOnUse"
       gradientTransform="matrix(0.39285964,0,0,0.39583333,-128.12504,-141.26852)">
      <stop
         offset="0.243963"
         stop-color="#F15700"
         id="stop1775" />
      <stop
         offset="0.831224"
         stop-color="#FF0000"
         id="stop1776" />
    </linearGradient>
    <linearGradient
       id="paint517_linear_890_11"
       x1="271"
       y1="389"
       x2="265"
       y2="383"
       gradientUnits="userSpaceOnUse"
       gradientTransform="matrix(0.39285964,0,0,0.39583333,-128.12504,-141.26852)">
      <stop
         stop-color="#089953"
         id="stop1777" />
      <stop
         offset="1"
         stop-color="#16D96F"
         id="stop1778" />
    </linearGradient>
    <linearGradient
       id="paint518_linear_890_11"
       x1="284"
       y1="369"
       x2="282"
       y2="367"
       gradientUnits="userSpaceOnUse"
       gradientTransform="matrix(0.39285964,0,0,0.39583333,-128.12504,-141.26852)">
      <stop
         stop-color="#71706E"
         id="stop1779" />
      <stop
         offset="1"
         stop-color="#B9AA99"
         id="stop1780" />
    </linearGradient>
    <linearGradient
       id="paint519_linear_890_11"
       x1="292.52399"
       y1="413.5"
       x2="292.52399"
       y2="407"
       gradientUnits="userSpaceOnUse"
       gradientTransform="matrix(1.1062109,0,0,1.1145845,-282.08382,-405.32307)">
      <stop
         offset="0.298086"
         stop-color="#2E2E41"
         id="stop1781"
         style="stop-color:#535d6c;stop-opacity:1" />
      <stop
         offset="1"
         stop-color="#566C80"
         id="stop1782"
         style="stop-color:#6f7c91;stop-opacity:1" />
    </linearGradient>
    <linearGradient
       id="paint520_linear_890_11"
       x1="288"
       y1="409"
       x2="287.23099"
       y2="405.15399"
       gradientUnits="userSpaceOnUse"
       gradientTransform="matrix(0.39285964,0,0,0.39583333,-100.17928,-142.97917)">
      <stop
         offset="0.384873"
         stop-color="#2E2E41"
         id="stop1783" />
      <stop
         offset="1"
         stop-color="#566C80"
         id="stop1784" />
    </linearGradient>
    <filter
       id="filter30427-0-36-3"
       x="-0.1339518"
       y="-0.3388412"
       width="1.2679036"
       height="1.6776824"
       color-interpolation-filters="sRGB">
      <feGaussianBlur
         stdDeviation="0.48299559"
         id="feGaussianBlur37-2-7-8" />
    </filter>
    <linearGradient
       inkscape:collect="always"
       xlink:href="#linearGradient4"
       id="linearGradient6"
       x1="3.3768961"
       y1="3.8749955"
       x2="19.64291"
       y2="16.169184"
       gradientUnits="userSpaceOnUse"
       gradientTransform="matrix(2.8157903,0,0,2.8157903,3.6297001e-6,-2.7236764)" />
  </defs>
  <g
     inkscape:label="Layer 1"
     inkscape:groupmode="layer"
     id="layer1">
    <g
       id="g1"
       transform="translate(0.02631173,2.7500048)">
      <path
         d="m 2.2122227,8.1874955 c 0,-3.6937292 2.9712797,-6.6875001 6.6372605,-6.6875001 H 53.097885 c 3.665997,0 6.637267,2.9937709 6.637267,6.6875001 V 46.083333 c 0,3.69374 -2.97127,6.687509 -6.637267,6.687509 H 8.8494832 c -3.6659808,0 -6.6372605,-2.993769 -6.6372605,-6.687509 z"
         id="path502"
         style="fill:url(#paint512_linear_890_11);stroke-width:1.11047" />
      <path
         d="m 6.6370634,9.2363206 c 0,-0.5795836 0.4358463,-1.0488251 0.973464,-1.0488251 H 54.336839 c 0.537636,0 0.973473,0.4692415 0.973473,1.0488251 V 42.80535 c 0,0.579575 -0.435837,1.048824 -0.973473,1.048824 H 7.6105274 c -0.5376177,0 -0.973464,-0.469249 -0.973464,-1.048824 z"
         id="path503"
         style="fill:url(#linearGradient6);fill-opacity:1;stroke-width:1.11047" />
      <path
         d="M 0.01307594,49.422633 C -0.08869536,48.815172 0.41794878,48.312506 1.0307886,48.312506 H 60.916588 c 0.612845,0 1.119489,0.502666 1.017711,1.110127 -0.525458,3.165414 -3.263319,5.577362 -6.56204,5.577362 H 6.5751157 c -3.2987195,0 -6.03658994,-2.411948 -6.56203976,-5.577362 z"
         id="path508"
         style="fill:url(#paint519_linear_890_11);stroke-width:1.11047" />
      <path
         d="m 25.442645,48.312506 h 11.062087 c 0,1.231618 -0.990042,2.229159 -2.212409,2.229159 h -6.637271 c -1.222365,0 -2.212407,-0.997541 -2.212407,-2.229159 z"
         id="path509"
         style="fill:#f1f1f1;fill-opacity:1;stroke-width:1.11047" />
      <path
         id="path20-3-3-6-3"
         style="color:#d1d5e9;fill:#b49ddf;fill-opacity:0.60000002;stroke-width:1.167"
         d="m 23.934225,12.244325 c -0.97194,0 -1.759861,0.779449 -1.759861,1.740956 0,0.961511 0.787921,1.740973 1.759861,1.740973 0.971942,0 1.759874,-0.779462 1.759874,-1.740973 0,-0.961507 -0.787932,-1.740956 -1.759874,-1.740956 z m 12.319062,0 c -2.144878,-1.177716 -4.688273,1.316546 -3.519728,3.481929 l 5.279596,5.222919 -5.279596,5.22289 c -1.449843,2.39553 1.41881,4.692583 3.519728,3.481914 l 8.79935,-8.704804 z M 19.827851,22.690116 c -1.619915,0 -2.933114,1.299084 -2.933114,2.901625 0,1.602504 1.313199,2.901584 2.933114,2.901584 1.619907,0 2.933135,-1.29908 2.933135,-2.901584 0,-1.602541 -1.313228,-2.901625 -2.933135,-2.901625 z m 7.626112,10.445805 c -1.943895,0 -3.519738,1.558887 -3.519738,3.481951 0,1.923013 1.575843,3.481903 3.519738,3.481903 1.943871,0 3.519736,-1.55889 3.519736,-3.481903 0,-1.923064 -1.575865,-3.481951 -3.519736,-3.481951 z"
         class="  ColorScheme-Text"
         sodipodi:nodetypes="ssssscccccccssssssssss" />
    </g>
    <g
       transform="matrix(-1.0713383,0,0,-1.0421552,69.809221,58.839139)"
       stroke-width="5.721"
       id="g16">
      <path
         d="M 40.238863,46 H 56.9902 c 0.0696,0 0.138369,-0.003 0.206106,-0.0098 0.06774,-0.0068 0.134669,-0.01797 0.200216,-0.03125 0.06555,-0.01328 0.129343,-0.02941 0.192367,-0.04883 0.06301,-0.01942 0.124348,-0.04117 0.184508,-0.06641 0.06016,-0.02523 0.119695,-0.05327 0.176658,-0.08398 0.05697,-0.03072 0.111435,-0.06374 0.164881,-0.09961 0.05345,-0.03587 0.105474,-0.07454 0.155071,-0.11523 0.0496,-0.04069 0.09788,-0.08372 0.143293,-0.12891 0.04542,-0.04519 0.08865,-0.09323 0.129555,-0.14258 0.04089,-0.04935 0.07976,-0.10111 0.115806,-0.1543 0.03605,-0.05318 0.06923,-0.10738 0.100108,-0.16406 0.03087,-0.05669 0.05904,-0.11592 0.0844,-0.17578 0.02536,-0.05986 0.04721,-0.12089 0.06674,-0.18359 0.01952,-0.0627 0.03573,-0.12619 0.04907,-0.19141 0.01335,-0.06522 0.02457,-0.13182 0.03141,-0.19922 0.0068,-0.06736 0.0098,-0.13579 0.0098,-0.20504 V 26.809 A 24.338081,24.217 0 0 0 40.238867,46 Z"
         opacity="0.15"
         style="stroke-width:5.73528;paint-order:markers stroke fill"
         id="path14" />
      <path
         d="m 48.092,46 h 8.9082 c 0.06925,0 0.13768,-0.003 0.20508,-0.0098 0.0674,-0.0068 0.134,-0.01797 0.19922,-0.03125 0.06522,-0.01328 0.1287,-0.02941 0.19141,-0.04883 0.0627,-0.01942 0.12373,-0.04117 0.18359,-0.06641 0.05986,-0.02523 0.1191,-0.05327 0.17578,-0.08398 0.05669,-0.03072 0.11088,-0.06374 0.16406,-0.09961 0.05318,-0.03587 0.10495,-0.07454 0.1543,-0.11523 0.04935,-0.04069 0.09739,-0.08372 0.14258,-0.12891 0.04519,-0.04519 0.08821,-0.09323 0.12891,-0.14258 0.04069,-0.04935 0.07936,-0.10111 0.11523,-0.1543 0.03587,-0.05318 0.06889,-0.10738 0.09961,-0.16406 0.03072,-0.05669 0.05875,-0.11592 0.08398,-0.17578 0.02523,-0.05986 0.04698,-0.12089 0.06641,-0.18359 0.01942,-0.0627 0.03555,-0.12619 0.04883,-0.19141 0.01328,-0.06522 0.02445,-0.13182 0.03125,-0.19922 0.0068,-0.06736 0.0098,-0.13579 0.0098,-0.20504 v -9.3633 a 16.649,16.649 0 0 0 -10.908,11.363 z"
         opacity="0.15"
         style="paint-order:markers stroke fill"
         id="path15" />
      <path
         d="m 56.236,46 h 0.76367 c 0.03462,0 0.06933,-2.32e-4 0.10352,-0.002 0.03418,-0.0017 0.06786,-0.0044 0.10156,-0.0078 0.0337,-0.0034 0.06644,-0.0086 0.09961,-0.01367 0.03317,-0.005 0.067,-0.01094 0.09961,-0.01758 0.03261,-0.0066 0.0637,-0.01329 0.0957,-0.02148 0.032,-0.0082 0.06435,-0.01763 0.0957,-0.02734 0.03135,-0.0097 0.06309,-0.02007 0.09375,-0.03125 0.03066,-0.01118 0.05991,-0.02254 0.08984,-0.03516 0.02993,-0.01262 0.06069,-0.02701 0.08984,-0.04102 0.02916,-0.01401 0.05759,-0.02761 0.08594,-0.04297 0.02834,-0.01536 0.0565,-0.03216 0.08398,-0.04883 0.02749,-0.01667 0.05349,-0.03285 0.08008,-0.05078 0.02659,-0.01794 0.05247,-0.03748 0.07813,-0.05664 0.02565,-0.01916 0.0515,-0.03825 0.07617,-0.05859 0.02468,-0.02035 0.04861,-0.04101 0.07227,-0.0625 0.02365,-0.02149 0.04772,-0.04381 0.07031,-0.06641 0.02259,-0.02259 0.04492,-0.04666 0.06641,-0.07031 0.02149,-0.02365 0.04215,-0.04759 0.0625,-0.07227 0.02035,-0.02468 0.03943,-0.05052 0.05859,-0.07617 0.01916,-0.02566 0.03871,-0.05153 0.05664,-0.07813 0.01794,-0.02659 0.03411,-0.05259 0.05078,-0.08008 0.01667,-0.02749 0.03347,-0.05564 0.04883,-0.08398 0.01536,-0.02834 0.02896,-0.05678 0.04297,-0.08594 0.01401,-0.02916 0.0284,-0.05991 0.04102,-0.08984 0.01262,-0.02993 0.02397,-0.05918 0.03516,-0.08984 0.01118,-0.03066 0.02154,-0.0624 0.03125,-0.09375 0.0097,-0.03135 0.01915,-0.0637 0.02734,-0.0957 0.0082,-0.032 0.01485,-0.0631 0.02148,-0.0957 0.0066,-0.03261 0.01254,-0.06644 0.01758,-0.09961 0.005,-0.03317 0.01027,-0.06591 0.01367,-0.09961 0.0034,-0.0337 0.0061,-0.06738 0.0078,-0.10156 0.0017,-0.03415 0.002,-0.06886 0.002,-0.10349 V 42.9902 A 9.0792,9.0792 0 0 0 56.235972,46 Z"
         opacity="0.15"
         style="paint-order:markers stroke fill"
         id="path16" />
    </g>
    <g
       stroke-width="5.721"
       id="g13"
       transform="matrix(1.0713446,0,0,1.042153,-7.9094711,-1.3390381)">
      <path
         d="M 40.332,46 H 57 c 0.06925,0 0.13768,-0.003 0.20508,-0.0098 0.0674,-0.0068 0.134,-0.01797 0.19922,-0.03125 0.06522,-0.01328 0.1287,-0.02941 0.19141,-0.04883 0.06271,-0.01942 0.12373,-0.04117 0.18359,-0.06641 0.05986,-0.02523 0.1191,-0.05327 0.17578,-0.08398 0.05669,-0.03072 0.11088,-0.06374 0.16406,-0.09961 0.05318,-0.03587 0.10495,-0.07454 0.1543,-0.11523 0.04935,-0.04069 0.09739,-0.08372 0.14258,-0.12891 0.04519,-0.04519 0.08821,-0.09323 0.12891,-0.14258 0.04069,-0.04935 0.07936,-0.10111 0.11523,-0.1543 0.03587,-0.05318 0.06889,-0.10738 0.09961,-0.16406 0.03072,-0.05669 0.05875,-0.11592 0.08398,-0.17578 0.02523,-0.05986 0.04699,-0.12089 0.06641,-0.18359 0.01942,-0.0627 0.03555,-0.12619 0.04883,-0.19141 0.01328,-0.06522 0.02445,-0.13182 0.03125,-0.19922 0.0068,-0.0674 0.0098,-0.13583 0.0098,-0.20508 v -17.191 a 24.217,24.217 0 0 0 -18.668,19.191 z"
         opacity="0.15"
         style="paint-order:markers stroke fill"
         id="path11" />
      <path
         d="m 48.092,46 h 8.9082 c 0.06925,0 0.13768,-0.003 0.20508,-0.0098 0.0674,-0.0068 0.134,-0.01797 0.19922,-0.03125 0.06522,-0.01328 0.1287,-0.02941 0.19141,-0.04883 0.06271,-0.01942 0.12373,-0.04117 0.18359,-0.06641 0.05986,-0.02523 0.1191,-0.05327 0.17578,-0.08398 0.05669,-0.03072 0.11088,-0.06374 0.16406,-0.09961 0.05318,-0.03587 0.10495,-0.07454 0.1543,-0.11523 0.04935,-0.04069 0.09739,-0.08372 0.14258,-0.12891 0.04519,-0.04519 0.08821,-0.09323 0.12891,-0.14258 0.04069,-0.04935 0.07936,-0.10111 0.11523,-0.1543 0.03587,-0.05318 0.06889,-0.10738 0.09961,-0.16406 0.03072,-0.05669 0.05875,-0.11592 0.08398,-0.17578 0.02523,-0.05986 0.04699,-0.12089 0.06641,-0.18359 0.01942,-0.0627 0.03555,-0.12619 0.04883,-0.19141 0.01328,-0.06522 0.02445,-0.13182 0.03125,-0.19922 0.0068,-0.0674 0.0098,-0.13583 0.0098,-0.20508 v -9.3633 a 16.649,16.649 0 0 0 -10.908,11.363 z"
         opacity="0.15"
         style="paint-order:markers stroke fill"
         id="path12" />
      <path
         d="m 56.236,46 h 0.76367 c 0.03462,0 0.06933,-2.32e-4 0.10352,-0.002 0.03418,-0.0017 0.06786,-0.0044 0.10156,-0.0078 0.0337,-0.0034 0.06644,-0.0086 0.09961,-0.01367 0.03317,-0.005 0.067,-0.01094 0.09961,-0.01758 0.03261,-0.0066 0.0637,-0.01329 0.0957,-0.02148 0.032,-0.0082 0.06435,-0.01763 0.0957,-0.02734 0.03135,-0.0097 0.06309,-0.02007 0.09375,-0.03125 0.03066,-0.01118 0.05991,-0.02254 0.08984,-0.03516 0.02993,-0.01262 0.06069,-0.02701 0.08984,-0.04102 0.02916,-0.01401 0.05759,-0.02761 0.08594,-0.04297 0.02834,-0.01536 0.0565,-0.03216 0.08398,-0.04883 0.02749,-0.01667 0.05349,-0.03285 0.08008,-0.05078 0.02659,-0.01794 0.05247,-0.03748 0.07813,-0.05664 0.02565,-0.01916 0.0515,-0.03825 0.07617,-0.05859 0.02467,-0.02035 0.04861,-0.04101 0.07226,-0.0625 0.02366,-0.02149 0.04772,-0.04381 0.07031,-0.06641 0.02259,-0.02259 0.04491,-0.04666 0.06641,-0.07031 0.02149,-0.02365 0.04215,-0.04759 0.0625,-0.07227 0.02035,-0.02468 0.03943,-0.05052 0.05859,-0.07617 0.01916,-0.02566 0.03871,-0.05153 0.05664,-0.07813 0.01794,-0.02659 0.03411,-0.05259 0.05078,-0.08008 0.01667,-0.02749 0.03347,-0.05564 0.04883,-0.08398 0.01536,-0.02834 0.02896,-0.05678 0.04297,-0.08594 0.01401,-0.02916 0.0284,-0.05991 0.04102,-0.08984 0.01262,-0.02993 0.02397,-0.05918 0.03516,-0.08984 0.01119,-0.03066 0.02154,-0.0624 0.03125,-0.09375 0.0097,-0.03135 0.01915,-0.0637 0.02734,-0.0957 0.0082,-0.032 0.01485,-0.0631 0.02148,-0.0957 0.0066,-0.03261 0.01254,-0.06644 0.01758,-0.09961 0.005,-0.03317 0.01027,-0.06591 0.01367,-0.09961 0.0034,-0.0337 0.0061,-0.06738 0.0078,-0.10156 0.0017,-0.03418 0.002,-0.06889 0.002,-0.10352 v -1.0098 a 9.0792,9.0792 0 0 0 -2.7637,3.0098 z"
         opacity="0.15"
         style="paint-order:markers stroke fill"
         id="path13" />
    </g>
  </g>
</svg>
