<?xml version="1.0" encoding="UTF-8" standalone="no"?>
<svg
   width="62"
   height="62"
   viewBox="0 0 16.404165 16.404165"
   version="1.1"
   id="svg1114"
   inkscape:version="1.4 (e7c3feb100, 2024-10-09)"
   sodipodi:docname="preferences-system-windows.svg"
   xmlns:inkscape="http://www.inkscape.org/namespaces/inkscape"
   xmlns:sodipodi="http://sodipodi.sourceforge.net/DTD/sodipodi-0.dtd"
   xmlns="http://www.w3.org/2000/svg"
   xmlns:svg="http://www.w3.org/2000/svg"
   xmlns:rdf="http://www.w3.org/1999/02/22-rdf-syntax-ns#"
   xmlns:cc="http://creativecommons.org/ns#"
   xmlns:dc="http://purl.org/dc/elements/1.1/">
  <style
     type="text/css"
     id="current-color-scheme">.ColorScheme-Highlight { color:#5599ff; }
</style>
  <defs
     id="defs1108">
    <linearGradient
       id="linearGradient1167"
       x1="40.751999"
       x2="40.751999"
       y1="28.507999"
       y2="17.205999"
       gradientUnits="userSpaceOnUse">
      <stop
         style="stop-color:#84fb6e;stop-opacity:1"
         stop-color="#0ab816"
         offset="0"
         id="stop1163" />
      <stop
         style="stop-color:#0dd41a;stop-opacity:1"
         stop-color="#0cf36c"
         offset="1"
         id="stop1165" />
    </linearGradient>
    <linearGradient
       id="paint2_linear_77:3-7"
       x1="79.398094"
       y1="-197.84389"
       x2="82.901054"
       y2="-199.97827"
       gradientUnits="userSpaceOnUse"
       gradientTransform="matrix(1.9248511,0,0,1.7314595,-40.88733,399.61741)">
      <stop
         stop-color="#EBFAFF"
         stop-opacity="0.1"
         id="stop29-5-7"
         offset="0"
         style="stop-color:#c3c3c3;stop-opacity:1;" />
      <stop
         offset="1"
         stop-color="#70A9FF"
         stop-opacity="0.5"
         id="stop30-0-1"
         style="stop-color:#05c7ff;stop-opacity:0.80000001;" />
    </linearGradient>
    <linearGradient
       id="paint451_linear_890_11"
       x1="55"
       y1="461"
       x2="111"
       y2="517"
       gradientUnits="userSpaceOnUse"
       gradientTransform="matrix(0.09449404,0,0,0.09449404,-4.9325889,-43.297169)">
      <stop
         offset="0.303571"
         stop-color="#EFF2F6"
         id="stop1644"
         style="stop-color:#5599ff;stop-opacity:1" />
      <stop
         offset="1"
         stop-color="#B7C6CD"
         id="stop1645"
         style="stop-color:#b380ff;stop-opacity:1" />
    </linearGradient>
    <linearGradient
       id="paint452_linear_890_11"
       x1="107"
       y1="513"
       x2="67.655701"
       y2="465.78699"
       gradientUnits="userSpaceOnUse"
       gradientTransform="matrix(0.09449404,0,0,0.09449404,-4.9325889,-43.297169)">
      <stop
         stop-color="#2E2E41"
         id="stop1646" />
      <stop
         offset="1"
         stop-color="#566C80"
         id="stop1647" />
    </linearGradient>
    <linearGradient
       id="paint453_linear_890_11"
       x1="61"
       y1="465"
       x2="65"
       y2="469"
       gradientUnits="userSpaceOnUse"
       gradientTransform="matrix(0.1322916,0,0,0.1322916,-5.0081808,-60.949989)">
      <stop
         offset="0.236371"
         stop-color="#F15700"
         id="stop1648" />
      <stop
         offset="0.855848"
         stop-color="#FF0000"
         id="stop1649" />
    </linearGradient>
    <linearGradient
       id="paint454_linear_890_11"
       x1="71"
       y1="469"
       x2="67"
       y2="465"
       gradientUnits="userSpaceOnUse"
       gradientTransform="matrix(0.1322916,0,0,0.1322916,-5.0081808,-60.949989)">
      <stop
         stop-color="#FF7E07"
         id="stop1650" />
      <stop
         offset="1"
         stop-color="#FFE607"
         id="stop1651" />
    </linearGradient>
    <linearGradient
       id="paint455_linear_890_11"
       x1="77"
       y1="469"
       x2="73"
       y2="465"
       gradientUnits="userSpaceOnUse"
       gradientTransform="matrix(0.1322916,0,0,0.1322916,-5.0081808,-60.949989)">
      <stop
         stop-color="#089953"
         id="stop1652" />
      <stop
         offset="1"
         stop-color="#16D96F"
         id="stop1653" />
    </linearGradient>
    <linearGradient
       id="paint456_linear_890_11"
       x1="80"
       y1="486"
       x2="80"
       y2="492"
       gradientUnits="userSpaceOnUse"
       gradientTransform="matrix(0.09449404,0,0,0.09449404,-4.9325889,-43.297169)">
      <stop
         offset="0.189495"
         stop-color="#EFF2F6"
         id="stop1654" />
      <stop
         offset="0.850463"
         stop-color="#B7C6CD"
         id="stop1655" />
    </linearGradient>
    <linearGradient
       id="paint457_linear_890_11"
       x1="82"
       y1="494"
       x2="82"
       y2="500"
       gradientUnits="userSpaceOnUse">
      <stop
         offset="0.189495"
         stop-color="#EFF2F6"
         id="stop1656" />
      <stop
         offset="0.850463"
         stop-color="#B7C6CD"
         id="stop1657" />
    </linearGradient>
  </defs>
  <sodipodi:namedview
     id="base"
     pagecolor="#e2e2e2"
     bordercolor="#666666"
     borderopacity="1.0"
     inkscape:pageopacity="0"
     inkscape:pageshadow="2"
     inkscape:zoom="9.7248728"
     inkscape:cx="26.478495"
     inkscape:cy="29.511954"
     inkscape:document-units="px"
     inkscape:current-layer="layer1"
     inkscape:document-rotation="0"
     showgrid="false"
     units="px"
     inkscape:window-width="1920"
     inkscape:window-height="994"
     inkscape:window-x="0"
     inkscape:window-y="0"
     inkscape:window-maximized="1"
     inkscape:object-paths="true"
     inkscape:snap-grids="true"
     inkscape:snap-intersection-paths="true"
     inkscape:snap-smooth-nodes="true"
     inkscape:snap-midpoints="true"
     inkscape:showpageshadow="2"
     inkscape:pagecheckerboard="0"
     inkscape:deskcolor="#d1d1d1">
    <inkscape:grid
       id="grid2"
       units="px"
       originx="0"
       originy="0"
       spacingx="0.26458333"
       spacingy="0.26458333"
       empcolor="#0099e5"
       empopacity="0.30196078"
       color="#0099e5"
       opacity="0.14902"
       empspacing="5"
       dotted="false"
       gridanglex="30"
       gridanglez="30"
       visible="false" />
  </sodipodi:namedview>
  <metadata
     id="metadata1111">
    <rdf:RDF>
      <cc:Work
         rdf:about="">
        <dc:format>image/svg+xml</dc:format>
        <dc:type
           rdf:resource="http://purl.org/dc/dcmitype/StillImage" />
      </cc:Work>
    </rdf:RDF>
  </metadata>
  <g
     inkscape:label="Layer 1"
     inkscape:groupmode="layer"
     id="layer1">
    <g
       id="g2"
       transform="matrix(2.7999999,0,0,2.7999999,0.05291687,0.0529164)">
      <path
         d="m 0.2645833,0.83154768 c 0,-0.31315325 0.25383934,-0.56696424 0.56696424,-0.56696424 H 4.9892853 c 0.3131532,0 0.5669642,0.25381099 0.5669642,0.56696424 V 4.9892854 c 0,0.3131533 -0.253811,0.5669643 -0.5669642,0.5669643 H 0.83154754 c -0.3131249,0 -0.56696424,-0.253811 -0.56696424,-0.5669643 z"
         id="path441"
         style="fill:url(#paint451_linear_890_11);stroke-width:0.094494" />
      <path
         d="m 0.64255946,1.5875 c 0,-0.1044159 0.08461,-0.1889881 0.18898808,-0.1889881 H 4.9892853 c 0.1044159,0 0.1889881,0.084572 0.1889881,0.1889881 v 3.2127974 c 0,0.2087373 -0.1692388,0.3779761 -0.3779762,0.3779761 H 1.0205356 c -0.20874676,0 -0.37797614,-0.1692388 -0.37797614,-0.3779761 z"
         id="path442"
         style="fill:url(#paint452_linear_890_11);stroke-width:0.094494" />
      <path
         d="m 3.5907745,0.83018998 c 0,0.14618218 -0.118454,0.26458362 -0.2645836,0.26458362 -0.1461292,0 -0.2645831,-0.11840144 -0.2645831,-0.26458362 0,-0.14618203 0.118454,-0.26458302 0.2645831,-0.26458302 0.1461296,0 0.2645836,0.11840104 0.2645836,0.26458302 z"
         id="path443"
         style="fill:#ffffff;fill-opacity:1;stroke-width:0.13229" />
      <path
         d="m 4.3845237,0.83018998 c 0,0.14618218 -0.1184537,0.26458362 -0.2645829,0.26458362 -0.1461297,0 -0.2645835,-0.11840144 -0.2645835,-0.26458362 0,-0.14618203 0.118454,-0.26458302 0.2645835,-0.26458302 0.1461292,0 0.2645829,0.11840104 0.2645829,0.26458302 z"
         id="path444"
         style="fill:#ffffff;fill-opacity:1;stroke-width:0.13229" />
      <path
         d="m 5.1782734,0.83018998 c 0,0.14618218 -0.1184539,0.26458362 -0.264583,0.26458362 -0.1461295,0 -0.2645834,-0.11840144 -0.2645834,-0.26458362 0,-0.14618203 0.1184539,-0.26458302 0.2645834,-0.26458302 0.1461291,0 0.264583,0.11840104 0.264583,0.26458302 z"
         id="path445"
         style="fill:#ffffff;fill-opacity:1;stroke-width:0.13229" />
      <g
         id="g1"
         transform="translate(3e-8,-0.0678147)">
        <path
           style="opacity:0.248547;fill:#e6e6e6;fill-opacity:1;stroke-width:0.197063"
           d="m 2.5601482,2.0950266 -0.030022,0.357012 A 1.1008418,1.0671521 0 0 0 2.2078794,2.632483 L 1.8716221,2.4792017 1.521354,3.0690463 1.8255872,3.272775 a 1.1008418,1.0671521 0 0 0 -0.016015,0.1804463 1.1008418,1.0671521 0 0 0 0.016015,0.1804458 L 1.521354,3.837396 1.8716221,4.4272406 2.2058778,4.2739576 a 1.1008418,1.0671521 0 0 0 0.3242478,0.1785068 l 0.030019,0.3589512 h 0.7005389 l 0.030023,-0.357012 A 1.1008418,1.0671521 0 0 0 3.6129542,4.2739576 L 3.9492107,4.4272406 4.2994788,3.837396 3.995246,3.6336671 A 1.1008418,1.0671521 0 0 0 4.011258,3.4532213 1.1008418,1.0671521 0 0 0 3.995246,3.272775 L 4.2994788,3.0690463 3.9492107,2.4792017 3.6149551,2.632483 A 1.1008418,1.0671521 0 0 0 3.290707,2.4539779 L 3.2606843,2.0950266 Z M 2.9104164,3.0651661 A 0.40030619,0.38805539 0 0 1 3.3107222,3.4532213 0.40030619,0.38805539 0 0 1 2.9104164,3.8412762 0.40030619,0.38805539 0 0 1 2.5101105,3.4532213 0.40030619,0.38805539 0 0 1 2.9104164,3.0651661 Z"
           id="path7" />
        <path
           style="fill:#e6e6e6;fill-opacity:1;stroke-width:0.197063"
           d="M 2.5601482,1.9009992 2.5301255,2.2580096 A 1.1008418,1.0671521 0 0 0 2.2078796,2.4384554 L 1.8716221,2.2851742 1.521354,2.8750188 1.8255872,3.0787476 a 1.1008418,1.0671521 0 0 0 -0.016017,0.1804462 1.1008418,1.0671521 0 0 0 0.016017,0.1804458 L 1.521354,3.6433686 1.8716221,4.2332131 2.2058778,4.0799301 a 1.1008418,1.0671521 0 0 0 0.3242478,0.1785065 l 0.030019,0.3589514 h 0.700539 L 3.2907068,4.2603759 A 1.1008418,1.0671521 0 0 0 3.6129547,4.0799301 L 3.9492107,4.2332131 4.2994788,3.6433686 3.995246,3.4396396 A 1.1008418,1.0671521 0 0 0 4.0112579,3.2591938 1.1008418,1.0671521 0 0 0 3.995246,3.0787476 L 4.2994788,2.8750188 3.9492107,2.2851742 3.6149551,2.4384554 A 1.1008418,1.0671521 0 0 0 3.290707,2.2599504 L 3.2606843,1.9009992 Z M 2.9104164,2.8711386 A 0.40030619,0.38805539 0 0 1 3.3107222,3.2591938 0.40030619,0.38805539 0 0 1 2.9104164,3.6472487 0.40030619,0.38805539 0 0 1 2.5101105,3.2591938 0.40030619,0.38805539 0 0 1 2.9104164,2.8711386 Z"
           id="path8" />
      </g>
    </g>
  </g>
</svg>
