<?xml version="1.0" encoding="UTF-8" standalone="no"?>
<svg
   width="62"
   height="62"
   version="1"
   id="svg7"
   sodipodi:docname="projectM.svg"
   inkscape:version="1.4 (e7c3feb100, 2024-10-09)"
   xmlns:inkscape="http://www.inkscape.org/namespaces/inkscape"
   xmlns:sodipodi="http://sodipodi.sourceforge.net/DTD/sodipodi-0.dtd"
   xmlns:xlink="http://www.w3.org/1999/xlink"
   xmlns="http://www.w3.org/2000/svg"
   xmlns:svg="http://www.w3.org/2000/svg">
  <defs
     id="defs7">
    <linearGradient
       id="linearGradient2"
       inkscape:collect="always">
      <stop
         style="stop-color:#eff2f6;stop-opacity:1;"
         offset="0"
         id="stop13" />
      <stop
         style="stop-color:#0066ff;stop-opacity:1"
         offset="1"
         id="stop14" />
    </linearGradient>
    <linearGradient
       id="linearGradient7"
       inkscape:collect="always">
      <stop
         style="stop-color:#384850;stop-opacity:1;"
         offset="0"
         id="stop8" />
      <stop
         style="stop-color:#384850;stop-opacity:1;"
         offset="0.58519185"
         id="stop10" />
      <stop
         style="stop-color:#eff2f6;stop-opacity:1;"
         offset="0.86599815"
         id="stop11" />
      <stop
         style="stop-color:#eff2f6;stop-opacity:1;"
         offset="1"
         id="stop9" />
    </linearGradient>
    <linearGradient
       id="linearGradient1"
       inkscape:collect="always">
      <stop
         style="stop-color:#303c47;stop-opacity:1;"
         offset="0"
         id="stop5" />
      <stop
         style="stop-color:#363e48;stop-opacity:1;"
         offset="0.25046653"
         id="stop7" />
      <stop
         style="stop-color:#303c47;stop-opacity:1;"
         offset="0.91934216"
         id="stop12" />
      <stop
         style="stop-color:#303c47;stop-opacity:1;"
         offset="1"
         id="stop6" />
    </linearGradient>
    <linearGradient
       id="c-3"
       gradientUnits="userSpaceOnUse"
       x1="24.072048"
       x2="23.959682"
       y1="0.75082099"
       y2="46.056854">
      <stop
         offset="0"
         stop-color="#fff"
         id="stop3" />
      <stop
         offset="1"
         stop-color="#d9d9d9"
         id="stop4" />
    </linearGradient>
    <linearGradient
       id="b-6"
       gradientUnits="userSpaceOnUse"
       x1="29.203026"
       x2="34.121048"
       xlink:href="#a-7"
       y1="24.827356"
       y2="29.224836" />
    <linearGradient
       id="a-7">
      <stop
         offset="0"
         id="stop1" />
      <stop
         offset="1"
         stop-opacity="0"
         id="stop2" />
    </linearGradient>
    <linearGradient
       id="d"
       gradientUnits="userSpaceOnUse"
       x1="15.948756"
       x2="25.031786"
       xlink:href="#a-7"
       y1="23.618279"
       y2="33.69899" />
    <linearGradient
       id="e"
       gradientUnits="userSpaceOnUse"
       x1="21.990562"
       x2="29.320522"
       xlink:href="#a-7"
       y1="33.780373"
       y2="41.931858" />
    <linearGradient
       id="paint154_linear_890_11"
       x1="778"
       y1="812.29199"
       x2="788"
       y2="812.29199"
       gradientUnits="userSpaceOnUse"
       gradientTransform="translate(-751,-696)">
      <stop
         stop-color="#EFF2F6"
         id="stop1050" />
      <stop
         offset="0.600785"
         stop-color="#B7C6CD"
         id="stop1051" />
    </linearGradient>
    <linearGradient
       id="paint155_linear_890_11"
       x1="783"
       y1="813"
       x2="783"
       y2="817"
       gradientUnits="userSpaceOnUse"
       gradientTransform="translate(-751,-696)">
      <stop
         stop-color="#EFF2F6"
         id="stop1052" />
      <stop
         offset="0.734138"
         stop-color="#B7C6CD"
         id="stop1053" />
    </linearGradient>
    <radialGradient
       id="paint156_radial_890_11"
       cx="0"
       cy="0"
       r="1"
       gradientUnits="userSpaceOnUse"
       gradientTransform="matrix(27.999986,27.999976,-27.999986,27.999976,32.302392,33.999998)">
      <stop
         offset="0.60067803"
         stop-color="#B7C6CD"
         id="stop1054"
         style="stop-color:#424b58;stop-opacity:1;" />
      <stop
         offset="0.876735"
         stop-color="#EFF2F6"
         id="stop1055" />
    </radialGradient>
    <linearGradient
       id="paint157_linear_890_11"
       x1="796.84485"
       y1="799.43359"
       x2="768.90088"
       y2="770.81476"
       gradientUnits="userSpaceOnUse"
       gradientTransform="matrix(1.1666666,0,0,1.1666668,-881.19764,-881.8333)">
      <stop
         offset="0.00000057"
         stop-color="#2E2E41"
         id="stop1056"
         style="stop-color:#424b58;stop-opacity:1;" />
      <stop
         offset="0.71113902"
         stop-color="#566C80"
         id="stop1057"
         style="stop-color:#303c47;stop-opacity:1;" />
    </linearGradient>
    <linearGradient
       id="paint158_linear_890_11"
       x1="792"
       y1="794"
       x2="774"
       y2="776"
       gradientUnits="userSpaceOnUse"
       gradientTransform="translate(-751,-696)">
      <stop
         offset="0.304478"
         stop-color="#2E2E41"
         id="stop1058" />
      <stop
         offset="1"
         stop-color="#566C80"
         id="stop1059" />
    </linearGradient>
    <linearGradient
       id="paint159_linear_890_11"
       x1="788"
       y1="790"
       x2="778"
       y2="780"
       gradientUnits="userSpaceOnUse"
       gradientTransform="translate(-751,-696)">
      <stop
         offset="0.391394"
         stop-color="#5200FF"
         id="stop1060" />
      <stop
         offset="1"
         stop-color="#0085FF"
         id="stop1061" />
    </linearGradient>
    <linearGradient
       id="paint160_linear_890_11"
       x1="784"
       y1="798"
       x2="782"
       y2="796"
       gradientUnits="userSpaceOnUse"
       gradientTransform="translate(-751,-696)">
      <stop
         stop-color="#FF7E07"
         id="stop1062" />
      <stop
         offset="1"
         stop-color="#FFE607"
         id="stop1063" />
    </linearGradient>
    <linearGradient
       id="c-3-6"
       gradientUnits="userSpaceOnUse"
       x1="24.072048"
       x2="23.959682"
       y1="0.75082099"
       y2="46.056854"
       gradientTransform="matrix(0.91471346,0,0,0.90068147,9.0468769,9.3836444)">
      <stop
         offset="0"
         stop-color="#fff"
         id="stop3-2" />
      <stop
         offset="1"
         stop-color="#d9d9d9"
         id="stop4-9" />
    </linearGradient>
    <linearGradient
       id="b-6-1"
       gradientUnits="userSpaceOnUse"
       x1="29.203026"
       x2="34.121048"
       xlink:href="#a-7"
       y1="24.827356"
       y2="29.224836"
       gradientTransform="matrix(1.1104534,0,0,1.0934187,4.3491158,4.7861435)" />
    <linearGradient
       id="d-0"
       gradientUnits="userSpaceOnUse"
       x1="15.948756"
       x2="25.031786"
       xlink:href="#a-7"
       y1="23.618279"
       y2="33.69899"
       gradientTransform="matrix(1.1104534,0,0,1.0934187,4.3491158,4.7861435)" />
    <linearGradient
       id="e-9"
       gradientUnits="userSpaceOnUse"
       x1="21.990562"
       x2="29.320522"
       xlink:href="#a-7"
       y1="33.780373"
       y2="41.931858"
       gradientTransform="matrix(1.1104534,0,0,1.0934187,4.3491158,4.7861435)" />
    <linearGradient
       inkscape:collect="always"
       xlink:href="#linearGradient1"
       id="linearGradient6"
       x1="15.60323"
       y1="17.703012"
       x2="48.302387"
       y2="50"
       gradientUnits="userSpaceOnUse" />
    <radialGradient
       inkscape:collect="always"
       xlink:href="#linearGradient7"
       id="radialGradient9"
       cx="32.302387"
       cy="34"
       fx="32.302387"
       fy="34"
       r="28"
       gradientUnits="userSpaceOnUse"
       gradientTransform="matrix(0.99999999,1,-1,0.99999999,34,-32.302387)" />
    <linearGradient
       inkscape:collect="always"
       xlink:href="#linearGradient2"
       id="linearGradient14"
       x1="21.65402"
       y1="-10.482335"
       x2="47.315632"
       y2="29.727884"
       gradientUnits="userSpaceOnUse" />
  </defs>
  <sodipodi:namedview
     id="namedview7"
     pagecolor="#ffffff"
     bordercolor="#000000"
     borderopacity="0.25"
     inkscape:showpageshadow="2"
     inkscape:pageopacity="0.0"
     inkscape:pagecheckerboard="0"
     inkscape:deskcolor="#d1d1d1"
     inkscape:zoom="8.3306018"
     inkscape:cx="40.273201"
     inkscape:cy="40.45326"
     inkscape:window-width="1920"
     inkscape:window-height="994"
     inkscape:window-x="0"
     inkscape:window-y="0"
     inkscape:window-maximized="1"
     inkscape:current-layer="svg7"
     showguides="false" />
  <g
     id="g1"
     transform="translate(-1.3023872,-3)">
    <path
       d="m 60.302387,34 c 0,15.46415 -12.535828,28 -28.000002,28 C 16.838222,62 4.3023873,49.46415 4.3023873,34 4.3023873,18.535835 16.838222,6 32.302385,6 47.766559,6 60.302387,18.535835 60.302387,34 Z"
       id="path154"
       style="fill:url(#radialGradient9)" />
    <path
       d="m 55.63572,34 c 0,12.88701 -10.446332,23.33332 -23.333335,23.33332 C 19.415386,57.33332 8.9690543,46.88701 8.9690543,34 c 0,-12.886994 10.4463317,-23.333332 23.3333307,-23.333332 12.887003,0 23.333335,10.446338 23.333335,23.333332 z"
       id="path155"
       style="fill:url(#linearGradient6)" />
  </g>
  <g
     id="g4">
    <path
       style="opacity:0.2;stroke-width:2.19517"
       d="M 24.021652,5.7589273 C 23.33623,5.7973337 22.743059,6.2576146 22.524628,6.9206765 L 9.1387137,47.38415 c -0.3654391,1.10645 0.4423034,2.252026 1.5881873,2.252344 h 6.798621 c 0.747803,9.4e-5 1.405228,-0.504433 1.611429,-1.236826 l 5.123215,-18.167064 3.680492,9.49614 c 0.232134,0.689839 0.868561,1.148276 1.584272,1.148773 h 3.065786 c 0.715725,-4.87e-4 1.352142,-0.458934 1.584286,-1.148773 l 3.661091,-9.434892 4.975842,18.095963 c 0.202982,0.737672 0.86336,1.247343 1.615309,1.246679 h 6.562061 c 0.594117,0.0982 1.194393,-0.135413 1.57264,-0.61246 0.0042,-0.0027 0.0083,-0.0064 0.01292,-0.01518 0.0045,-0.0047 0.0095,-0.01368 0.01529,-0.02082 0.01513,-0.01827 0.03026,-0.03948 0.04461,-0.05887 0.02376,-0.03415 0.04647,-0.06918 0.06788,-0.104444 0.0016,-0.002 0.0038,-0.0047 0.0047,-0.0064 0.0016,-0.002 0.0039,-0.0047 0.0047,-0.0064 0.300944,-0.514131 0.315655,-1.15139 0.03888,-1.679382 L 39.345711,6.9189241 C 38.828071,5.3646646 36.666388,5.376751 36.165518,6.9359396 L 31.017159,23.00392 25.700028,6.9212781 c -0.220496,-0.6682188 -0.821327,-1.1297107 -1.512526,-1.161746 -0.05549,-0.00292 -0.111244,-0.00292 -0.166778,0 z"
       id="path1" />
    <path
       style="fill:url(#linearGradient14);stroke-width:2.19517"
       d="M 24.021652,4.6614021 C 23.33623,4.6998321 22.743059,5.160093 22.524628,5.8231518 L 9.1387137,46.286611 c -0.3654391,1.106539 0.4423034,2.252042 1.5881873,2.252334 h 6.798621 c 0.747803,1.85e-4 1.405228,-0.50444 1.611429,-1.236826 l 5.123215,-18.167039 3.680492,9.49614 c 0.232134,0.689814 0.868561,1.14826 1.584272,1.148758 h 3.065786 c 0.715725,-4.88e-4 1.352142,-0.458944 1.584286,-1.148758 l 3.661091,-9.434893 4.975842,18.095924 c 0.202982,0.737724 0.86336,1.247358 1.615309,1.246694 h 6.562061 c 0.594117,0.09829 1.194393,-0.135413 1.57264,-0.61246 0.0042,-0.0037 0.0083,-0.0064 0.01292,-0.01527 0.0045,-0.0047 0.0095,-0.01294 0.01529,-0.02102 0.01513,-0.01837 0.03026,-0.03948 0.04461,-0.05877 0.02376,-0.03415 0.04647,-0.0689 0.06788,-0.104417 0.0016,-0.0027 0.0038,-0.0047 0.0047,-0.0064 0.0016,-0.0027 0.0039,-0.0047 0.0047,-0.0064 0.300944,-0.514122 0.315655,-1.15135 0.03888,-1.679373 L 39.346612,5.8192423 C 38.828967,4.2649839 36.667288,4.2770731 36.166423,5.8362581 L 31.017993,21.905158 25.700868,5.8225003 C 25.480373,5.1542774 24.879532,4.6928035 24.188333,4.6607721 c -0.05549,-0.00292 -0.111245,-0.00292 -0.166787,0 z"
       id="path2" />
    <path
       style="opacity:0.1;fill:#ffffff;stroke-width:2.19517"
       d="M 37.751129,4.6592993 C 37.083396,4.6631493 36.41741,5.0561869 36.16697,5.8361652 L 31.017942,21.904905 25.701711,5.8233008 c -0.2205,-0.6682181 -0.822212,-1.1298165 -1.513406,-1.1618499 -0.05549,-0.00292 -0.111666,-0.00292 -0.167208,0 -0.68542,0.038418 -1.277823,0.4987994 -1.496265,1.1618499 L 9.1377922,46.286712 c -0.1225256,0.371101 -0.1034811,0.743017 0.00665,1.078172 L 22.524896,6.9208487 c 0.218448,-0.6630515 0.810845,-1.1234933 1.496265,-1.1618576 0.05549,-0.00292 0.111669,-0.00292 0.1672,0 0.691199,0.03195 1.292915,0.493633 1.513414,1.1618576 L 31.018002,23.002447 36.167029,6.9337131 c 0.500875,-1.5599593 2.661383,-1.5714098 3.179025,-0.016482 L 52.754503,47.123377 c 0.04417,0.08448 0.06713,0.17489 0.09642,0.263567 0.150932,-0.444562 0.125883,-0.937211 -0.09642,-1.361138 L 39.345934,5.8191769 C 39.087109,5.0420409 38.418796,4.6557263 37.751063,4.6594613 Z"
       id="path3-6" />
  </g>
</svg>
