<?xml version="1.0" encoding="UTF-8" standalone="no"?>
<svg
   width="62"
   height="62"
   version="1.1"
   id="svg1"
   sodipodi:docname="protonplus.svg"
   inkscape:version="1.4 (unknown)"
   xmlns:inkscape="http://www.inkscape.org/namespaces/inkscape"
   xmlns:sodipodi="http://sodipodi.sourceforge.net/DTD/sodipodi-0.dtd"
   xmlns:xlink="http://www.w3.org/1999/xlink"
   xmlns="http://www.w3.org/2000/svg"
   xmlns:svg="http://www.w3.org/2000/svg">
  <defs
     id="defs1">
    <linearGradient
       id="linearGradient1"
       inkscape:collect="always">
      <stop
         style="stop-color:#b3b3b3;stop-opacity:1"
         offset="0"
         id="stop1" />
      <stop
         style="stop-color:#ececec;stop-opacity:1"
         offset="1"
         id="stop2" />
    </linearGradient>
    <linearGradient
       inkscape:collect="always"
       xlink:href="#linearGradient1"
       id="linearGradient2"
       x1="32"
       y1="58"
       x2="32"
       y2="6"
       gradientUnits="userSpaceOnUse"
       gradientTransform="matrix(1.0769236,0,0,1.0769236,-3.4615425,-3.4615425)" />
  </defs>
  <sodipodi:namedview
     id="namedview1"
     pagecolor="#ffffff"
     bordercolor="#000000"
     borderopacity="0.25"
     inkscape:showpageshadow="2"
     inkscape:pageopacity="0.0"
     inkscape:pagecheckerboard="0"
     inkscape:deskcolor="#d1d1d1"
     inkscape:zoom="6.0546875"
     inkscape:cx="37.491613"
     inkscape:cy="43.354839"
     inkscape:window-width="1920"
     inkscape:window-height="998"
     inkscape:window-x="0"
     inkscape:window-y="0"
     inkscape:window-maximized="1"
     inkscape:current-layer="svg1" />
  <rect
     width="56"
     height="56"
     x="3"
     y="3"
     fill-rule="evenodd"
     rx="8.6153917"
     ry="8.6153917"
     style="fill:url(#linearGradient2);stroke-width:1.07683;paint-order:stroke fill markers"
     id="rect1" />
  <path
     d="m 17,13.001178 v 2.769406 a 2.7906972,2.7599766 0 0 1 2.79904,2.769428 v 9.691761 H 17 v 2.769404 a 2.7906972,2.7599766 0 0 1 2.79904,2.768228 v 1.384709 h 4.200354 L 19.79904,39.30823 v 4.154124 A 2.7906972,2.7599766 0 0 1 17,46.231774 V 49 h 13.999999 v -2.768226 a 2.7906972,2.7599766 0 0 1 -2.800255,-2.76942 v -8.30942 h 4.200354 c 6.201547,0 11.198578,-4.941992 11.198578,-11.075276 C 43.598676,17.944375 38.601645,13 32.400098,13 Z m 11.198553,6.92352 h 2.801446 c 2.323191,0 4.199161,1.85532 4.199161,4.15296 0,2.297625 -1.87597,4.154115 -4.199161,4.154115 h -2.800255 z m 8.400731,16.614134 v 4.154115 h -4.200377 v 4.154117 h 4.200377 V 49 h 4.200354 V 44.848244 H 45 v -4.154117 h -4.201555 v -4.154114 z"
     id="path1"
     style="fill:#2d3d53;fill-opacity:1;stroke-width:1.18596" />
</svg>
