<?xml version="1.0" encoding="UTF-8" standalone="no"?>
<svg
   clip-rule="evenodd"
   fill-rule="evenodd"
   stroke-linejoin="round"
   stroke-miterlimit="2"
   viewBox="0 0 62 62"
   version="1.1"
   id="svg8"
   sodipodi:docname="protoncalendar.svg"
   width="62"
   height="62"
   inkscape:version="1.4 (e7c3feb100, 2024-10-09)"
   xmlns:inkscape="http://www.inkscape.org/namespaces/inkscape"
   xmlns:sodipodi="http://sodipodi.sourceforge.net/DTD/sodipodi-0.dtd"
   xmlns:xlink="http://www.w3.org/1999/xlink"
   xmlns="http://www.w3.org/2000/svg"
   xmlns:svg="http://www.w3.org/2000/svg">
  <defs
     id="defs8">
    <linearGradient
       id="linearGradient12"
       inkscape:collect="always">
      <stop
         style="stop-color:#773aff;stop-opacity:1;"
         offset="0"
         id="stop12" />
      <stop
         style="stop-color:#a780ff;stop-opacity:1;"
         offset="1"
         id="stop13" />
    </linearGradient>
    <linearGradient
       id="linearGradient10"
       inkscape:collect="always">
      <stop
         style="stop-color:#2c00e5;stop-opacity:1;"
         offset="0"
         id="stop10" />
      <stop
         style="stop-color:#6946ff;stop-opacity:1;"
         offset="1"
         id="stop11" />
    </linearGradient>
    <linearGradient
       id="linearGradient8"
       inkscape:collect="always">
      <stop
         style="stop-color:#33414c;stop-opacity:1;"
         offset="0"
         id="stop8" />
      <stop
         style="stop-color:#566c80;stop-opacity:1;"
         offset="1"
         id="stop9" />
    </linearGradient>
    <linearGradient
       inkscape:collect="always"
       xlink:href="#linearGradient8"
       id="linearGradient9"
       x1="32.62077"
       y1="58.332001"
       x2="32.791893"
       y2="2.332"
       gradientUnits="userSpaceOnUse"
       gradientTransform="translate(0.668,0.668)" />
    <linearGradient
       id="b-6"
       x2="1"
       gradientTransform="matrix(28.381969,30.152136,-30.228511,28.31026,-263.48677,282.38479)"
       gradientUnits="userSpaceOnUse">
      <stop
         stop-color="#855dff"
         offset="0"
         id="stop3-5" />
      <stop
         stop-color="#cd7eff"
         offset="1"
         id="stop4-6" />
    </linearGradient>
    <linearGradient
       id="c-3"
       x2="1"
       gradientTransform="matrix(-8.4625551,22.797117,-22.854862,-8.4411737,-319.8614,-106.56649)"
       gradientUnits="userSpaceOnUse"
       xlink:href="#linearGradient10">
      <stop
         stop-color="#5229ff"
         offset="0"
         id="stop5-9" />
      <stop
         stop-color="#d660ef"
         offset="1"
         id="stop6-4" />
    </linearGradient>
    <linearGradient
       inkscape:collect="always"
       xlink:href="#linearGradient10"
       id="linearGradient14"
       x1="19.752314"
       y1="21.759356"
       x2="32.622017"
       y2="42.935825"
       gradientUnits="userSpaceOnUse" />
    <linearGradient
       inkscape:collect="always"
       xlink:href="#linearGradient12"
       id="linearGradient16"
       x1="22.74964"
       y1="16.204779"
       x2="54.645363"
       y2="28.637936"
       gradientUnits="userSpaceOnUse" />
    <clipPath
       id="b-2">
      <path
         d="m 39.003,14.966 c 0,-0.957 -0.381,-1.876 -1.058,-2.553 -0.677,-0.678 -1.596,-1.058 -2.554,-1.058 H 11.84 c -0.958,0 -1.877,0.38 -2.554,1.058 -0.677,0.677 -1.058,1.596 -1.058,2.553 v 18.036 c 0,0.958 0.381,1.877 1.058,2.554 0.677,0.677 1.596,1.058 2.554,1.058 h 23.551 c 0.958,0 1.877,-0.381 2.554,-1.058 0.677,-0.677 1.058,-1.596 1.058,-2.554 z"
         clip-rule="evenodd"
         id="path2" />
    </clipPath>
    <clipPath
       id="c-9">
      <path
         d="m 8.228,15.032 v 17.97 c 0,0.958 0.381,1.877 1.058,2.554 0.677,0.677 1.596,1.058 2.554,1.058 h 20.553 v -17.97 c 0,-0.958 -0.381,-1.877 -1.058,-2.554 -0.677,-0.677 -1.596,-1.058 -2.554,-1.058 z"
         clip-rule="evenodd"
         id="path3" />
    </clipPath>
  </defs>
  <sodipodi:namedview
     id="namedview8"
     pagecolor="#ffffff"
     bordercolor="#000000"
     borderopacity="0.25"
     inkscape:showpageshadow="2"
     inkscape:pageopacity="0.0"
     inkscape:pagecheckerboard="0"
     inkscape:deskcolor="#d1d1d1"
     inkscape:zoom="5.5095404"
     inkscape:cx="5.8988587"
     inkscape:cy="41.382762"
     inkscape:window-width="1920"
     inkscape:window-height="994"
     inkscape:window-x="0"
     inkscape:window-y="0"
     inkscape:window-maximized="1"
     inkscape:current-layer="svg8"
     showgrid="false">
    <inkscape:grid
       id="grid1"
       units="px"
       originx="0"
       originy="0"
       spacingx="1"
       spacingy="1"
       empcolor="#0099e5"
       empopacity="0.30196078"
       color="#0099e5"
       opacity="0.14901961"
       empspacing="5"
       enabled="true"
       visible="false" />
  </sodipodi:namedview>
  <linearGradient
     id="a"
     x2="1"
     gradientTransform="matrix(0,-56.000001,56.000001,0,30.332001,58.332001)"
     gradientUnits="userSpaceOnUse">
    <stop
       stop-color="#d6d6d6"
       offset="0"
       id="stop1" />
    <stop
       stop-color="#ffffff"
       offset="1"
       id="stop2" />
  </linearGradient>
  <linearGradient
     id="b"
     x2="1"
     gradientTransform="matrix(-3.1226178,29.144398,-29.144398,-3.1226178,-301.95802,-16.878006)"
     gradientUnits="userSpaceOnUse">
    <stop
       stop-color="#8d59ff"
       offset="0"
       id="stop3"
       style="stop-color:#8b57ff;stop-opacity:1;" />
    <stop
       stop-color="#a48eff"
       offset="1"
       id="stop4" />
  </linearGradient>
  <linearGradient
     id="c"
     x2="1"
     gradientTransform="matrix(7.4942774,20.298837,-20.298837,7.4942774,15.800507,26.326869)"
     gradientUnits="userSpaceOnUse">
    <stop
       stop-color="#3e10ff"
       offset="0"
       id="stop5" />
    <stop
       stop-color="#6946ff"
       offset="1"
       id="stop6" />
  </linearGradient>
  <path
     d="M 50.952003,59 H 11.047997 C 6.6053166,59 3,55.394683 3,50.952003 V 11.047997 C 3,6.6053166 6.6053166,3 11.047997,3 H 50.952003 C 55.394683,3 59,6.6053166 59,11.047997 V 50.952003 C 59,55.394683 55.394683,59 50.952003,59 Z"
     id="path6"
     style="fill:url(#linearGradient9)" />
  <g
     id="g3"
     transform="translate(2.1046532e-8,-0.00447265)">
    <g
       id="g2">
      <g
         id="g1"
         transform="matrix(0.99732516,0,0,0.99732516,-4.1033684,2.4769891)">
        <path
           d="m 54.74964,16.204779 c 0.0052,-1.230803 -0.658402,-3.273402 -4,-3.567 -10.469552,0.02246 -20.935759,-0.18341 -31.405319,1.6e-4 -2.040653,0.04122 -3.698959,1.6537 -3.698959,3.689612 v 24.620777 c 0,2.03591 1.65789,3.68961 3.698959,3.68961 h 31.602083 c 2.041069,0 3.690378,-1.653718 3.698958,-3.68961 z"
           id="path7-8"
           style="fill:url(#linearGradient16)"
           sodipodi:nodetypes="sssssssss" />
        <path
           d="m 15.645362,20.204779 v 20.743545 c 0,2.03591 1.65789,3.68961 3.698959,3.68961 H 46.354638 V 23.716965 c 0,-1.895769 -1.541673,-3.427856 -3.442229,-3.434805 -9.089028,-0.04137 -18.178011,-0.0669 -27.267047,-0.07738 z"
           id="path8-1"
           style="fill:url(#linearGradient14)"
           sodipodi:nodetypes="csscssc" />
      </g>
      <path
         d="m 37.313802,33.993081 c 0,0 -6.06532,7.406565 -7.737411,9.448365 -0.274277,0.333558 -0.427208,0.750499 -0.434777,1.181347 -0.01641,0.897079 0.02789,2.38168 0.02789,2.38168 h 12.87626 V 34.01331 Z"
         fill="#bfd8ff"
         id="path5"
         style="fill:#b380ff;fill-opacity:1;stroke-width:1.2637" />
      <path
         d="m 50.399949,36.412669 c 0,-1.93945 -1.574783,-3.512495 -3.513563,-3.512495 h -7.027133 c -1.938779,0 -3.5123,1.573045 -3.5123,3.512495 v 7.079309 c 0,1.938189 1.573521,3.512495 3.5123,3.512495 h 7.027133 c 1.93878,0 3.513563,-1.574306 3.513563,-3.512495 z"
         fill="#ffffff"
         id="path6-9"
         style="stroke-width:1.2637" />
      <text
         xml:space="preserve"
         style="font-weight:bold;font-size:13.2976px;font-family:'Noto Sans';-inkscape-font-specification:'Noto Sans Bold';text-align:start;writing-mode:lr-tb;direction:ltr;text-anchor:start;opacity:1;fill:#6600ff;fill-opacity:1;stroke:#374148;stroke-width:0;stroke-linecap:round;stroke-linejoin:round;stroke-dasharray:none;paint-order:fill markers stroke"
         x="35.640854"
         y="44.699589"
         id="text1"><tspan
           sodipodi:role="line"
           id="tspan1"
           x="35.640854"
           y="44.699589"
           style="font-size:13.2976px;fill:#6600ff;stroke-width:0">13</tspan></text>
    </g>
  </g>
</svg>
