<?xml version="1.0" encoding="UTF-8" standalone="no"?>
<svg
   width="62"
   height="62"
   version="1.1"
   id="svg5"
   sodipodi:docname="psensor.svg"
   inkscape:version="1.4 (e7c3feb100, 2024-10-09)"
   xmlns:inkscape="http://www.inkscape.org/namespaces/inkscape"
   xmlns:sodipodi="http://sodipodi.sourceforge.net/DTD/sodipodi-0.dtd"
   xmlns:xlink="http://www.w3.org/1999/xlink"
   xmlns="http://www.w3.org/2000/svg"
   xmlns:svg="http://www.w3.org/2000/svg">
  <defs
     id="defs5">
    <linearGradient
       id="linearGradient8"
       inkscape:collect="always">
      <stop
         style="stop-color:#2d3d53;stop-opacity:1;"
         offset="0"
         id="stop8" />
      <stop
         style="stop-color:#354864;stop-opacity:1;"
         offset="1"
         id="stop10" />
    </linearGradient>
    <linearGradient
       id="linearGradient4217">
      <stop
         style="stop-color:#000000;stop-opacity:1;"
         offset="0"
         id="stop2" />
      <stop
         style="stop-color:#000000;stop-opacity:0;"
         offset="1"
         id="stop4" />
    </linearGradient>
    <linearGradient
       id="linearGradient4161">
      <stop
         style="stop-color:#334545;stop-opacity:1;"
         offset="0"
         id="stop7" />
      <stop
         style="stop-color:#4d6868;stop-opacity:1"
         offset="1"
         id="stop9" />
    </linearGradient>
    <linearGradient
       id="a-1-2"
       y1="510.79999"
       y2="527.14001"
       gradientUnits="userSpaceOnUse"
       x2="0">
      <stop
         stop-color="#7cbaf8"
         id="stop2-2-7" />
      <stop
         offset="1"
         stop-color="#f4fcff"
         id="stop4-70-0" />
    </linearGradient>
    <linearGradient
       id="c"
       y1="503.79999"
       x1="400.57001"
       y2="519.79999"
       x2="416.57001"
       gradientUnits="userSpaceOnUse">
      <stop
         stop-color="#292c2f"
         id="stop12" />
      <stop
         offset="1"
         stop-opacity="0"
         id="stop14" />
    </linearGradient>
    <linearGradient
       id="b"
       y1="542.79999"
       x1="408.57001"
       y2="521.79999"
       x2="387.57001"
       gradientUnits="userSpaceOnUse"
       gradientTransform="translate(-384.57,-499.8)">
      <stop
         stop-color="#197cf1"
         id="stop7-8" />
      <stop
         offset="1"
         stop-color="#20bcfa"
         id="stop9-7" />
    </linearGradient>
    <linearGradient
       xlink:href="#linearGradient1389"
       id="linearGradient4503-5-6"
       y1="37"
       y2="4"
       x2="0"
       gradientUnits="userSpaceOnUse"
       gradientTransform="matrix(1.0218446,0,0,0.99999999,21.748946,8.2587777)" />
    <linearGradient
       id="linearGradient1389">
      <stop
         style="stop-color:#ffaaaa;stop-opacity:1"
         id="stop1385"
         offset="0" />
      <stop
         offset="1"
         style="stop-color:#ff5555;stop-opacity:1"
         id="stop1387" />
    </linearGradient>
    <linearGradient
       id="paint543_linear_890_11"
       x1="978.5"
       y1="298"
       x2="978.5"
       y2="304"
       gradientUnits="userSpaceOnUse"
       gradientTransform="matrix(0.75000004,0,0,0.75000004,-717.38333,-173.49123)">
      <stop
         offset="0.189495"
         stop-color="#EFF2F6"
         id="stop1829" />
      <stop
         offset="0.850463"
         stop-color="#B7C6CD"
         id="stop1830" />
    </linearGradient>
    <linearGradient
       inkscape:collect="always"
       xlink:href="#linearGradient8"
       id="linearGradient10"
       x1="31.5"
       y1="59.017544"
       x2="31.5"
       y2="4.9824562"
       gradientUnits="userSpaceOnUse" />
    <linearGradient
       id="linearGradient4144">
      <stop
         style="stop-color:#c83771;stop-opacity:1"
         offset="0"
         id="stop1141" />
      <stop
         style="stop-color:#de87aa;stop-opacity:1"
         offset="1"
         id="stop1143" />
    </linearGradient>
    <linearGradient
       id="c-0"
       gradientUnits="userSpaceOnUse"
       x1="10"
       x2="24"
       y1="10"
       y2="24"
       gradientTransform="translate(59.728813,26.237288)">
      <stop
         offset="0"
         stop-color="#292c2f"
         id="stop12-2" />
      <stop
         offset="1"
         stop-opacity="0"
         id="stop14-3" />
    </linearGradient>
    <linearGradient
       id="d"
       gradientUnits="userSpaceOnUse"
       x1="24"
       x2="24"
       y1="25"
       y2="7"
       gradientTransform="translate(59.728813,26.237288)">
      <stop
         offset="0"
         stop-color="#bb9d71"
         id="stop2-7" />
      <stop
         offset="1"
         stop-color="#f9f2e7"
         id="stop4-5" />
    </linearGradient>
  </defs>
  <sodipodi:namedview
     id="namedview5"
     pagecolor="#ffffff"
     bordercolor="#000000"
     borderopacity="0.25"
     inkscape:showpageshadow="2"
     inkscape:pageopacity="0.0"
     inkscape:pagecheckerboard="0"
     inkscape:deskcolor="#d1d1d1"
     inkscape:zoom="8.2643105"
     inkscape:cx="25.349967"
     inkscape:cy="37.389689"
     inkscape:window-width="1920"
     inkscape:window-height="994"
     inkscape:window-x="0"
     inkscape:window-y="0"
     inkscape:window-maximized="1"
     inkscape:current-layer="svg5" />
  <rect
     style="opacity:0.2;stroke-width:0.9823"
     width="55"
     height="55.017544"
     x="4"
     y="4.9824562"
     rx="8.25"
     ry="8.2526312"
     id="rect1" />
  <rect
     style="fill:url(#linearGradient10);stroke-width:0.9823"
     width="55"
     height="55.017544"
     x="4"
     y="4"
     rx="8.25"
     ry="8.2526312"
     id="rect2" />
  <path
     style="opacity:0.1;fill:#ffffff;stroke-width:0.9823"
     d="M 12.248466,4 C 7.6779652,4 4,7.6791384 4,12.251097 v 0.982456 C 4,8.6615945 7.6779652,4.9824561 12.248466,4.9824561 H 50.751534 C 55.322034,4.9824561 59,8.6615945 59,13.233553 V 12.251097 C 59,7.6791384 55.322034,4 50.751534,4 Z"
     id="path4" />
  <g
     id="g1"
     transform="translate(-0.38374927,-1.5880174)">
    <path
       d="m 28.896709,13.588031 a 5.248238,5.2516402 0 0 0 -5.260165,5.263578 v 15.110404 a 10.520329,10.527149 0 0 0 -5.260163,9.102842 10.520329,10.527149 0 0 0 10.520328,10.52316 10.520329,10.527149 0 0 0 10.516342,-10.52316 10.520329,10.527149 0 0 0 -5.256168,-9.110802 V 18.85161 a 5.248238,5.2516402 0 0 0 -5.260174,-5.263579 z m 0,3.158949 C 30.11734,16.74698 31,17.630208 31,18.855579 v 16.92461 l 1.578441,0.915063 c 2.278213,1.312906 3.677744,3.735804 3.68172,6.369604 a 7.315725,7.3204677 0 0 1 -7.363452,7.36824 7.315725,7.3204677 0 0 1 -7.363426,-7.36426 c 0,-2.637781 1.403514,-5.052716 3.681717,-6.369612 l 1.574474,-0.915057 V 18.85161 c 0,-1.221402 0.886638,-2.10463 2.107235,-2.10463 z"
       opacity="0.5"
       id="path1"
       style="fill:#ffffff;fill-opacity:1;stroke-width:5.39939" />
    <path
       d="m 26.789474,26.219812 v 9.568339 L 25.215,36.699224 c -2.278203,1.312911 -3.677729,3.731831 -3.681717,6.365631 a 7.315725,7.3204677 0 0 0 7.363426,7.36824 7.315725,7.3204677 0 0 0 7.363452,-7.36824 7.3554853,7.3602539 0 0 0 -3.68172,-6.373586 L 31,35.780188 v -9.560377 z"
       fill="#ff5555"
       id="path2"
       style="fill:#ff0000;fill-opacity:1;stroke-width:5.39939" />
    <path
       d="m 40.466737,15.712567 h 8.417008 v 2.104618 h -8.417008 z m 0,4.21324 h 8.417008 v 2.10464 h -8.417008 z m 0,4.209261 h 8.417008 v 2.104652 h -8.417008 z m 0,4.209267 h 8.417008 v 2.104643 h -8.417008 z m 0,4.213256 h 8.417008 v 2.104635 h -8.417008 z"
       opacity="0.8"
       paint-order="stroke fill markers"
       id="path3"
       style="fill:#ffffff;fill-opacity:1;stroke-width:5.39939;opacity:0.74256145" />
    <ellipse
       cx="15.987026"
       cy="17.955673"
       opacity="0.5"
       paint-order="stroke fill markers"
       id="circle3"
       style="fill:#ffffff;fill-opacity:1;stroke-width:5.39939"
       rx="2.1032727"
       ry="2.1046336" />
    <ellipse
       cx="15.987026"
       cy="17.955673"
       paint-order="stroke fill markers"
       id="circle4"
       style="fill:#ffffff;fill-opacity:1;stroke-width:5.39939"
       rx="1.0536231"
       ry="1.0543066" />
  </g>
</svg>
