<?xml version="1.0" encoding="UTF-8" standalone="no"?>
<svg
   width="62"
   height="62"
   version="1"
   id="svg5"
   sodipodi:docname="purism-chatty.svg"
   inkscape:version="1.4 (unknown)"
   xmlns:inkscape="http://www.inkscape.org/namespaces/inkscape"
   xmlns:sodipodi="http://sodipodi.sourceforge.net/DTD/sodipodi-0.dtd"
   xmlns:xlink="http://www.w3.org/1999/xlink"
   xmlns="http://www.w3.org/2000/svg"
   xmlns:svg="http://www.w3.org/2000/svg">
  <defs
     id="defs5">
    <linearGradient
       id="linearGradient3"
       inkscape:collect="always">
      <stop
         style="stop-color:#c7c7c7;stop-opacity:1;"
         offset="0"
         id="stop1" />
      <stop
         style="stop-color:#ffffff;stop-opacity:1;"
         offset="1"
         id="stop2" />
    </linearGradient>
    <linearGradient
       id="linearGradient11"
       inkscape:collect="always">
      <stop
         style="stop-color:#ffd42a;stop-opacity:1"
         offset="0"
         id="stop11" />
      <stop
         style="stop-color:#aa87de;stop-opacity:1"
         offset="1"
         id="stop12" />
    </linearGradient>
    <linearGradient
       id="linearGradient5"
       inkscape:collect="always">
      <stop
         style="stop-color:#566c80;stop-opacity:1;"
         offset="0"
         id="stop5" />
      <stop
         style="stop-color:#313f49;stop-opacity:1;"
         offset="1"
         id="stop6" />
    </linearGradient>
    <linearGradient
       id="paint378_linear_890_11"
       x1="797"
       y1="501"
       x2="757.04797"
       y2="459.04999"
       gradientUnits="userSpaceOnUse">
      <stop
         offset="0.255437"
         stop-color="#2E2E41"
         id="stop1498" />
      <stop
         offset="0.880102"
         stop-color="#566C80"
         id="stop1499" />
    </linearGradient>
    <linearGradient
       id="paint379_linear_890_11"
       x1="769.5"
       y1="476"
       x2="769.5"
       y2="470"
       gradientUnits="userSpaceOnUse">
      <stop
         offset="0.155999"
         stop-color="#71706E"
         id="stop1500" />
      <stop
         offset="0.796276"
         stop-color="#B9AA99"
         id="stop1501" />
    </linearGradient>
    <linearGradient
       id="paint380_linear_890_11"
       x1="768"
       y1="484"
       x2="768"
       y2="478"
       gradientUnits="userSpaceOnUse">
      <stop
         offset="0.155999"
         stop-color="#71706E"
         id="stop1502" />
      <stop
         offset="0.796276"
         stop-color="#B9AA99"
         id="stop1503" />
    </linearGradient>
    <linearGradient
       id="paint382_linear_890_11"
       x1="811"
       y1="517.49799"
       x2="770.52899"
       y2="475.526"
       gradientUnits="userSpaceOnUse">
      <stop
         offset="0.352596"
         stop-color="#089953"
         id="stop1506" />
      <stop
         offset="1"
         stop-color="#16D96F"
         id="stop1507" />
    </linearGradient>
    <linearGradient
       id="paint383_linear_890_11"
       x1="785.125"
       y1="487"
       x2="785.125"
       y2="491"
       gradientUnits="userSpaceOnUse">
      <stop
         stop-color="white"
         id="stop1508" />
      <stop
         offset="0.705"
         stop-color="#E6E6E6"
         id="stop1509" />
    </linearGradient>
    <linearGradient
       id="paint384_linear_890_11"
       x1="783.25"
       y1="495"
       x2="783.25"
       y2="499"
       gradientUnits="userSpaceOnUse">
      <stop
         stop-color="white"
         id="stop1510" />
      <stop
         offset="0.705"
         stop-color="#E6E6E6"
         id="stop1511" />
    </linearGradient>
    <linearGradient
       inkscape:collect="always"
       xlink:href="#paint380_linear_890_11"
       id="linearGradient2"
       gradientUnits="userSpaceOnUse"
       x1="768"
       y1="484"
       x2="768"
       y2="478"
       gradientTransform="matrix(0.99999799,0,0,0.99999799,-751.99843,-457.99908)" />
    <linearGradient
       inkscape:collect="always"
       xlink:href="#linearGradient5"
       id="linearGradient6"
       x1="760.25"
       y1="464.55002"
       x2="798.92499"
       y2="495.87509"
       gradientUnits="userSpaceOnUse"
       gradientTransform="matrix(0.99999799,0,0,0.99999799,-751.99843,-457.99908)" />
    <linearGradient
       inkscape:collect="always"
       xlink:href="#linearGradient3"
       id="linearGradient8"
       x1="778.92499"
       y1="475"
       x2="778.67499"
       y2="471"
       gradientUnits="userSpaceOnUse"
       gradientTransform="matrix(0.99999799,0,0,0.99999799,-751.99843,-457.99908)" />
    <linearGradient
       inkscape:collect="always"
       xlink:href="#linearGradient3"
       id="linearGradient10"
       x1="768"
       y1="483"
       x2="768"
       y2="479"
       gradientUnits="userSpaceOnUse"
       gradientTransform="matrix(0.99999799,0,0,0.99999799,-751.99843,-457.99908)" />
    <linearGradient
       inkscape:collect="always"
       xlink:href="#linearGradient11"
       id="linearGradient12"
       x1="771"
       y1="479"
       x2="796.80487"
       y2="498.28848"
       gradientUnits="userSpaceOnUse"
       gradientTransform="matrix(0.99999799,0,0,0.99999799,-751.99843,-457.99908)" />
    <linearGradient
       id="paint1_linear_126_140"
       x1="12"
       y1="18.2582"
       x2="12"
       y2="7"
       gradientUnits="userSpaceOnUse"
       gradientTransform="matrix(1.6428551,0,0,1.598851,18.285698,15.925031)">
      <stop
         stop-color="#02AA93"
         id="stop4" />
      <stop
         offset="1"
         stop-color="#67FF80"
         id="stop5-7" />
    </linearGradient>
  </defs>
  <sodipodi:namedview
     id="namedview5"
     pagecolor="#ffffff"
     bordercolor="#000000"
     borderopacity="0.25"
     inkscape:showpageshadow="2"
     inkscape:pageopacity="0.0"
     inkscape:pagecheckerboard="0"
     inkscape:deskcolor="#d1d1d1"
     inkscape:zoom="8"
     inkscape:cx="29.3125"
     inkscape:cy="29.3125"
     inkscape:window-width="1920"
     inkscape:window-height="998"
     inkscape:window-x="0"
     inkscape:window-y="0"
     inkscape:window-maximized="1"
     inkscape:current-layer="svg5" />
  <path
     d="m 8.0000453,3.0000002 c -2.7609943,0 -4.99999,2.2389957 -4.99999,4.99999 V 29.999946 c 0,2.760996 2.2389957,4.999991 4.99999,4.999991 h 3.6499927 l -3.537993,6.616988 c -0.4499989,0.842996 0.5419991,1.719995 1.4169972,1.252997 L 24.257013,34.999937 h 15.742969 c 2.760993,0 4.999991,-2.238995 4.999991,-4.999991 V 7.9999902 c 0,-2.7609943 -2.238998,-4.99999 -4.999991,-4.99999 z"
     id="path368"
     style="fill:url(#linearGradient6);stroke-width:0.999998" />
  <path
     d="m 11.000039,14.999977 c 0,-1.104998 0.894999,-1.999996 1.999997,-1.999996 h 21.999955 c 1.104998,0 1.999996,0.894998 1.999996,1.999996 0,1.104998 -0.894998,1.999996 -1.999996,1.999996 H 13.000036 c -1.104998,0 -1.999997,-0.894998 -1.999997,-1.999996 z"
     id="path369"
     style="fill:url(#linearGradient8);stroke-width:0.999998" />
  <path
     d="m 13.000036,20.999965 c -1.104998,0 -1.999997,0.894998 -1.999997,1.999996 0,1.104997 0.894999,1.999996 1.999997,1.999996 h 5.999988 c 1.104998,0 1.999996,-0.894999 1.999996,-1.999996 0,-1.104998 -0.894998,-1.999996 -1.999996,-1.999996 z"
     id="path370"
     style="fill:url(#linearGradient10);stroke-width:0.999998" />
  <path
     d="m 25.000012,20.999965 c -1.104998,0 -1.999996,0.894998 -1.999996,1.999996 0,1.104997 0.894998,1.999996 1.999996,1.999996 h 3.999991 c 1.104997,0 1.999998,-0.894999 1.999998,-1.999996 0,-1.104998 -0.895001,-1.999996 -1.999998,-1.999996 z"
     fill="url(#paint381_linear_890_11)"
     id="path371"
     style="fill:url(#linearGradient2);stroke-width:0.999998" />
  <path
     d="m 52.999957,18.999969 c 3.313993,0 5.999988,2.685994 5.999988,5.999988 v 19.999959 c 0,3.313993 -2.685995,5.999988 -5.999988,5.999988 h -2.649996 l 3.537993,6.616988 c 0.45,0.842999 -0.541998,1.719995 -1.416996,1.252997 L 37.742986,50.999904 h -14.74297 c -3.313994,0 -5.999988,-2.685995 -5.999988,-5.999988 V 24.999957 c 0,-3.313994 2.685994,-5.999988 5.999988,-5.999988 z"
     id="path372"
     style="fill:url(#linearGradient12);stroke-width:0.999998" />
  <path
     fill-rule="evenodd"
     clip-rule="evenodd"
     d="m 30.498532,32.959348 c 1.657806,0 3.001631,-1.307765 3.001631,-2.921148 0,-1.613389 -1.343825,-2.921216 -3.001631,-2.921216 -1.657739,0 -3.00161,1.307827 -3.00161,2.921216 0,1.613383 1.343871,2.921148 3.00161,2.921148 z m 18.999761,5.789277 v -0.0051 l 4.98e-4,-0.0049 z m 4.98e-4,-0.01094 0.0012,-0.03728 c 0,0.0083 -1.66e-4,0.01691 -6.6e-4,0.02556 z m -0.23789,0.655209 v 0 l -1.63e-4,4.77e-4 c -0.06881,0.139937 -0.135502,0.276121 -0.174635,0.397162 l -0.02117,0.03072 c -1.29408,1.716053 -2.961411,3.089785 -4.865645,4.008636 -1.90423,0.918701 -3.991314,1.356626 -6.090058,1.277484 h -0.09199 l -0.292092,0.0034 c -2.042069,6.46e-4 -4.05899,-0.465583 -5.907523,-1.365734 -1.848396,-0.900154 -3.48291,-2.211852 -4.787005,-3.842042 l -0.0032,-0.0017 c -0.153788,-0.12954 -0.279739,-0.291011 -0.369671,-0.474239 -0.08995,-0.182908 -0.141917,-0.383724 -0.152454,-0.588853 v 0.0034 c -0.01336,-0.12261 -0.0014,-0.246545 0.03448,-0.36422 0.03582,-0.117485 0.0948,-0.225916 0.173341,-0.318495 0.07847,-0.09237 0.174764,-0.166914 0.282617,-0.218722 0.107795,-0.05167 0.224906,-0.07948 0.343701,-0.08152 h 0.0048 c 0.188834,0.02435 0.368246,0.09955 0.520524,0.218083 l -0.02939,-0.02448 c 2.887363,2.395876 6.469938,3.710134 10.167199,3.729638 h -0.01501 l 0.285692,0.0033 c 3.603932,0.0069 7.095658,-1.299386 9.865177,-3.691586 0.143942,-0.136419 0.33071,-0.213768 0.525548,-0.217925 h 0.01194 c 0.108077,-3.2e-4 0.215218,0.02159 0.314937,0.06429 0.10005,0.04286 0.190735,0.10587 0.267127,0.185149 0.07635,0.07932 0.137165,0.173314 0.178415,0.277081 0.04122,0.103791 0.0624,0.214725 0.06209,0.326803 v 0.01372 c -0.01499,0.197137 -0.128443,0.428653 -0.237389,0.650252 z m -3.754253,-6.434058 c 1.657807,0 3.001498,-1.307766 3.001498,-2.921145 0,-1.613386 -1.343691,-2.921216 -3.001498,-2.921216 -1.657802,0 -3.001656,1.30783 -3.001656,2.921216 0,1.613379 1.343854,2.921145 3.001656,2.921145 z"
     id="path2"
     style="fill:#f2f2f2;fill-opacity:1" />
</svg>
