<?xml version="1.0" encoding="UTF-8" standalone="no"?>
<svg
   width="62"
   height="62"
   version="1"
   id="svg6"
   sodipodi:docname="pushbullet-indicator.svg"
   inkscape:version="1.4 (e7c3feb100, 2024-10-09)"
   xmlns:inkscape="http://www.inkscape.org/namespaces/inkscape"
   xmlns:sodipodi="http://sodipodi.sourceforge.net/DTD/sodipodi-0.dtd"
   xmlns="http://www.w3.org/2000/svg"
   xmlns:svg="http://www.w3.org/2000/svg">
  <defs
     id="defs6" />
  <sodipodi:namedview
     id="namedview6"
     pagecolor="#ffffff"
     bordercolor="#000000"
     borderopacity="0.25"
     inkscape:showpageshadow="2"
     inkscape:pageopacity="0.0"
     inkscape:pagecheckerboard="0"
     inkscape:deskcolor="#d1d1d1"
     inkscape:zoom="11.75"
     inkscape:cx="32"
     inkscape:cy="32"
     inkscape:window-width="1920"
     inkscape:window-height="998"
     inkscape:window-x="0"
     inkscape:window-y="0"
     inkscape:window-maximized="1"
     inkscape:current-layer="svg6" />
  <g
     id="g6"
     transform="matrix(0.98214286,0,0,0.98245614,-0.42857152,-0.92982455)">
    <rect
       style="fill:#20c997"
       width="56"
       height="56"
       x="4"
       y="4"
       rx="28"
       ry="28"
       id="rect1" />
    <g
       style="opacity:0.2"
       transform="matrix(2.0001353,0,0,1.9998182,1.9975929,1.0031797)"
       id="g2">
      <path
         d="m 7.6667,11 h 2.6667 c 0.368,0 0.667,0.272 0.667,0.609 v 9.7799 c 0,0.3368 -0.29933,0.61124 -0.66667,0.61124 h -2.6667 c -0.367,0 -0.6663,-0.274 -0.6663,-0.611 v -9.78 c 0,-0.337 0.2993,-0.609 0.6667,-0.609"
         id="path1" />
      <path
         d="M 12.629,11 C 12.281,11 12,11.272 12,11.609 v 9.7778 c 0,0.33672 0.28111,0.61111 0.62918,0.61111 1.8951,0 3.789,0.0025 5.6854,0.0025 3.139,-10e-4 5.685,-2.464 5.685,-5.501 0,-3.037 -2.546,-5.5 -5.685,-5.5 h -5.6854 z"
         id="path2" />
    </g>
    <g
       style="fill:#f9f9f9"
       transform="matrix(2.0001353,0,0,1.9998182,1.9975929,0.0031817)"
       id="g4">
      <path
         d="m 7.6667,11 h 2.6667 c 0.368,0 0.667,0.272 0.667,0.609 v 9.7799 c 0,0.3368 -0.29933,0.61124 -0.66667,0.61124 h -2.6667 c -0.367,0 -0.6663,-0.274 -0.6663,-0.611 v -9.78 c 0,-0.337 0.2993,-0.609 0.6667,-0.609"
         id="path3" />
      <path
         d="M 12.629,11 C 12.281,11 12,11.272 12,11.609 v 9.7778 c 0,0.33672 0.28111,0.61111 0.62918,0.61111 1.8951,0 3.789,0.0025 5.6854,0.0025 3.139,-10e-4 5.685,-2.464 5.685,-5.501 0,-3.037 -2.546,-5.5 -5.685,-5.5 h -5.6854 z"
         id="path4" />
    </g>
    <path
       style="opacity:0.2;fill:#ffffff"
       d="M 32,4 C 16.488222,4 4,16.488222 4,32 4,32.113554 4.011285,32.224034 4.017578,32.335938 4.3691162,17.134398 16.710946,5 32,5 47.289055,5 59.630884,17.134398 59.982422,32.335938 59.988797,32.224034 60,32.113554 60,32 60,16.488222 47.511779,4 32,4 Z"
       id="path5" />
    <path
       style="opacity:0.2"
       d="M 4.0175781,32.664062 C 4.0112845,32.775966 4,32.886446 4,33 4,48.511778 16.488,61 32,61 47.512001,61 60,48.511778 60,33 60,32.886446 59.988797,32.775966 59.982422,32.664062 59.630879,47.865602 47.289273,60 32,60 16.710728,60 4.3691213,47.865602 4.0175781,32.664062 Z"
       id="path6" />
  </g>
</svg>
