<?xml version="1.0" encoding="UTF-8" standalone="no"?>
<svg
   clip-rule="evenodd"
   fill-rule="evenodd"
   stroke-linejoin="round"
   stroke-miterlimit="2"
   viewBox="0 0 62 62"
   version="1.1"
   id="svg7"
   sodipodi:docname="pyrenamer.svg"
   width="62"
   height="62"
   inkscape:version="1.4 (e7c3feb100, 2024-10-09)"
   xmlns:inkscape="http://www.inkscape.org/namespaces/inkscape"
   xmlns:sodipodi="http://sodipodi.sourceforge.net/DTD/sodipodi-0.dtd"
   xmlns:xlink="http://www.w3.org/1999/xlink"
   xmlns="http://www.w3.org/2000/svg"
   xmlns:svg="http://www.w3.org/2000/svg">
  <defs
     id="defs7">
    <linearGradient
       id="linearGradient9"
       inkscape:collect="always">
      <stop
         style="stop-color:#3485fd;stop-opacity:1"
         offset="0"
         id="stop9" />
      <stop
         style="stop-color:#9d7ed5;stop-opacity:1"
         offset="1"
         id="stop10" />
    </linearGradient>
    <linearGradient
       id="linearGradient7"
       inkscape:collect="always">
      <stop
         style="stop-color:#fea75f;stop-opacity:1"
         offset="0"
         id="stop7" />
      <stop
         style="stop-color:#975cf6;stop-opacity:1"
         offset="1"
         id="stop8" />
    </linearGradient>
    <linearGradient
       inkscape:collect="always"
       xlink:href="#linearGradient7"
       id="linearGradient8"
       x1="30.535999"
       y1="2.2130001"
       x2="30.535999"
       y2="32.715"
       gradientUnits="userSpaceOnUse" />
    <linearGradient
       inkscape:collect="always"
       xlink:href="#linearGradient9"
       id="linearGradient10"
       x1="17.5825"
       y1="45.668499"
       x2="16.800617"
       y2="25.907417"
       gradientUnits="userSpaceOnUse" />
  </defs>
  <sodipodi:namedview
     id="namedview7"
     pagecolor="#ffffff"
     bordercolor="#000000"
     borderopacity="0.25"
     inkscape:showpageshadow="2"
     inkscape:pageopacity="0.0"
     inkscape:pagecheckerboard="0"
     inkscape:deskcolor="#d1d1d1"
     inkscape:zoom="7.8333333"
     inkscape:cx="23.234043"
     inkscape:cy="25.659575"
     inkscape:window-width="1920"
     inkscape:window-height="998"
     inkscape:window-x="0"
     inkscape:window-y="0"
     inkscape:window-maximized="1"
     inkscape:current-layer="svg7" />
  <linearGradient
     id="a"
     x2="1"
     gradientTransform="matrix(0,-30.5012,30.5012,0,17.5825,45.668)"
     gradientUnits="userSpaceOnUse">
    <stop
       stop-color="#0d5bcd"
       offset="0"
       id="stop1" />
    <stop
       stop-color="#2297fd"
       offset="1"
       id="stop2" />
  </linearGradient>
  <linearGradient
     id="b"
     x2="1"
     gradientTransform="matrix(0,-30.1093,30.1093,0,31.1743,32.3226)"
     gradientUnits="userSpaceOnUse">
    <stop
       stop-color="#ff8700"
       offset="0"
       id="stop3" />
    <stop
       stop-color="#f3af3f"
       offset="1"
       id="stop4" />
  </linearGradient>
  <g
     id="g7"
     transform="matrix(1.2886746,0,0,1.2886746,-0.00454437,0.14816357)">
    <path
       d="m 32.8335,21.8175 c 0,-3.671 -2.98,-6.651 -6.651,-6.651 h -17.2 c -3.671,0 -6.651,2.98 -6.651,6.651 v 17.2 c 0,3.67 2.98,6.651 6.651,6.651 h 17.2 c 3.671,0 6.651,-2.981 6.651,-6.651 z"
       id="path4"
       style="fill:url(#linearGradient10)" />
    <path
       d="M 20.314797,36.075223 H 13.287529 L 12.177502,39.25062 H 7.66005 l 6.456459,-17.42928 h 5.357325 l 6.456459,17.42928 H 21.412841 Z M 14.40736,32.842092 h 4.775623 l -2.382365,-6.934675 z"
       fill-rule="nonzero"
       id="path5"
       style="stroke-width:1.08933;fill:#ffffff;fill-opacity:1" />
    <path
       d="m 45.787,8.864 c 0,-3.671 -2.98,-6.651 -6.651,-6.651 h -17.2 c -3.671,0 -6.651,2.98 -6.651,6.651 v 17.2 c 0,3.67 2.98,6.651 6.651,6.651 h 17.2 c 3.671,0 6.651,-2.981 6.651,-6.651 z"
       id="path6"
       style="fill:url(#linearGradient8)" />
    <path
       d="m 30.981516,15.49669 c 0.708064,0 1.245104,-0.155774 1.611119,-0.467323 0.366015,-0.310459 0.549022,-0.770156 0.549022,-1.376913 0,-0.599131 -0.183007,-1.054471 -0.549022,-1.366019 -0.366015,-0.319174 -0.903055,-0.479306 -1.611119,-0.479306 h -2.48694 v 3.689561 z m 0.151417,7.623131 c 0.903054,0 1.580618,-0.190632 2.0316,-0.571898 0.459698,-0.381265 0.688457,-0.957521 0.688457,-1.727677 0,-0.754906 -0.225491,-1.319179 -0.676474,-1.692819 -0.450983,-0.381266 -1.131814,-0.571898 -2.042494,-0.571898 h -2.638357 v 4.564292 h 2.638357 z m 4.179759,-6.269094 c 0.965146,0.279958 1.712427,0.798479 2.240752,1.553385 0.529414,0.754905 0.794121,1.680836 0.794121,2.777791 0,1.680836 -0.56863,2.934655 -1.704801,3.759278 -1.136171,0.824623 -2.863849,1.237479 -5.183032,1.237479 H 24.001089 V 8.74938 h 6.74731 c 2.420492,0 4.171045,0.3660149 5.25275,1.0969553 1.08933,0.7320297 1.635084,1.9030597 1.635084,3.5141787 0,0.848588 -0.199347,1.571903 -0.595864,2.171035 -0.396516,0.591506 -0.972771,1.031595 -1.727677,1.319178 z"
       fill-rule="nonzero"
       id="path7"
       style="stroke-width:1.08933;fill:#ffffff;fill-opacity:1" />
  </g>
</svg>
