<?xml version="1.0" encoding="UTF-8" standalone="no"?>
<svg
   width="64"
   height="64"
   version="1"
   id="svg10"
   sodipodi:docname="python.svg"
   inkscape:version="1.4 (e7c3feb100, 2024-10-09)"
   xmlns:inkscape="http://www.inkscape.org/namespaces/inkscape"
   xmlns:sodipodi="http://sodipodi.sourceforge.net/DTD/sodipodi-0.dtd"
   xmlns="http://www.w3.org/2000/svg"
   xmlns:svg="http://www.w3.org/2000/svg">
  <defs
     id="defs10" />
  <sodipodi:namedview
     id="namedview10"
     pagecolor="#ffffff"
     bordercolor="#000000"
     borderopacity="0.25"
     inkscape:showpageshadow="2"
     inkscape:pageopacity="0.0"
     inkscape:pagecheckerboard="0"
     inkscape:deskcolor="#d1d1d1"
     inkscape:zoom="11.78125"
     inkscape:cx="31.95756"
     inkscape:cy="32"
     inkscape:window-width="1920"
     inkscape:window-height="994"
     inkscape:window-x="0"
     inkscape:window-y="0"
     inkscape:window-maximized="1"
     inkscape:current-layer="svg10" />
  <g
     id="g10"
     transform="matrix(0.98214286,0,0,0.98245614,0.57142848,0.07017545)">
    <path
       style="opacity:0.2"
       d="m 46,19 v 7 c 0,3.878 -3.122,7 -7,7 H 25 c 0,0 -7,0 -7,7 V 52.25 C 18,57.0968 23.4628,61 30.25,61 h 3.5 C 40.5372,61 46,57.0968 46,52.25 V 50 H 32 V 47 H 51.25 C 56.0968,47 60,41.5372 60,34.75 v -3.5 C 60,24.4628 56.0968,19 51.25,19 Z"
       id="path1" />
    <path
       style="fill:#ffa923"
       d="m 46,18 v 7 c 0,3.878 -3.122,7 -7,7 H 25 c 0,0 -7,0 -7,7 V 51.25 C 18,56.0968 23.4628,60 30.25,60 h 3.5 C 40.5372,60 46,56.0968 46,51.25 V 49 H 32 V 46 H 51.25 C 56.0968,46 60,40.5372 60,33.75 v -3.5 C 60,23.4628 56.0968,18 51.25,18 Z"
       id="path2" />
    <path
       style="opacity:0.2"
       d="M 39.5,55 A 1.5,1.5 0 0 1 41,56.5 1.5,1.5 0 0 1 39.5,58 1.5,1.5 0 0 1 38,56.5 1.5,1.5 0 0 1 39.5,55 Z"
       id="path3" />
    <path
       style="fill:#ffffff"
       d="M 39.5,54 A 1.5,1.5 0 0 1 41,55.5 1.5,1.5 0 0 1 39.5,57 1.5,1.5 0 0 1 38,55.5 1.5,1.5 0 0 1 39.5,54 Z"
       id="path4" />
    <path
       style="opacity:0.2"
       d="M 30.25,5 C 23.4628,5 18,8.9025 18,13.75 V 16 h 14 v 3 H 12.75 C 7.9025,19 4,24.4628 4,31.25 v 3.5 C 4,41.5372 7.9025,47 12.75,47 H 18 v -7 c 0,-3.878 3.122,-7 7,-7 h 14 c 0,0 7,0 7,-7 V 13.75 C 46,8.9025 40.5372,5 33.75,5 Z"
       id="path5" />
    <path
       style="fill:#3084e0"
       d="M 30.25,4 C 23.4628,4 18,7.9025 18,12.75 V 15 h 14 v 3 H 12.75 C 7.9025,18 4,23.4628 4,30.25 v 3.5 C 4,40.5372 7.9025,46 12.75,46 H 18 v -7 c 0,-3.878 3.122,-7 7,-7 h 14 c 0,0 7,0 7,-7 V 12.75 C 46,7.9025 40.5372,4 33.75,4 Z"
       id="path6" />
    <path
       style="opacity:0.2"
       d="M 25.5,8 A 1.5,1.5 0 0 1 27,9.5 1.5,1.5 0 0 1 25.5,11 1.5,1.5 0 0 1 24,9.5 1.5,1.5 0 0 1 25.5,8 Z"
       id="path7" />
    <path
       style="fill:#ffffff"
       d="M 25.5,7 A 1.5,1.5 0 0 1 27,8.5 1.5,1.5 0 0 1 25.5,10 1.5,1.5 0 0 1 24,8.5 1.5,1.5 0 0 1 25.5,7 Z"
       id="path8" />
    <path
       style="opacity:0.2;fill:#ffffff"
       d="m 46,18 v 1 h 5.25 C 56.0968,19 60,24.4628 60,31.25 v -1 C 60,23.4628 56.0968,18 51.25,18 Z M 32,49 v 1 h 14 v -1 z"
       id="path9" />
    <path
       style="opacity:0.2;fill:#ffffff"
       d="M 30.25,4 C 23.4628,4 18,7.9025 18,12.75 v 1 C 18,8.9025 23.4628,5 30.25,5 h 3.5 C 40.5372,5 46,8.9025 46,13.75 v -1 C 46,7.9025 40.5372,4 33.75,4 Z M 12.75,18 C 7.9025,18 4,23.4628 4,30.25 v 1 C 4,24.4628 7.9025,19 12.75,19 H 32 v -1 z"
       id="path10" />
  </g>
</svg>
