<?xml version="1.0" encoding="UTF-8" standalone="no"?>
<svg
   width="62"
   height="62"
   version="1"
   id="svg6"
   sodipodi:docname="qbittorrent.svg"
   inkscape:version="1.4 (e7c3feb100, 2024-10-09)"
   xmlns:inkscape="http://www.inkscape.org/namespaces/inkscape"
   xmlns:sodipodi="http://sodipodi.sourceforge.net/DTD/sodipodi-0.dtd"
   xmlns="http://www.w3.org/2000/svg"
   xmlns:svg="http://www.w3.org/2000/svg">
  <defs
     id="defs6" />
  <sodipodi:namedview
     id="namedview6"
     pagecolor="#ffffff"
     bordercolor="#000000"
     borderopacity="0.25"
     inkscape:showpageshadow="2"
     inkscape:pageopacity="0.0"
     inkscape:pagecheckerboard="0"
     inkscape:deskcolor="#d1d1d1"
     inkscape:zoom="11.6875"
     inkscape:cx="31.957219"
     inkscape:cy="32"
     inkscape:window-width="1920"
     inkscape:window-height="994"
     inkscape:window-x="0"
     inkscape:window-y="0"
     inkscape:window-maximized="1"
     inkscape:current-layer="svg6" />
  <g
     id="g6"
     transform="translate(-0.5,-1)">
    <circle
       style="opacity:0.2;stroke-width:0.982147"
       cx="31.499998"
       cy="32.482151"
       r="27.499998"
       id="circle1" />
    <circle
       style="fill:#2f67ba;stroke-width:0.982147"
       cx="31.499998"
       cy="31.499998"
       r="27.499998"
       id="circle2" />
    <path
       style="opacity:0.2;stroke-width:0.982147"
       d="m 18.732143,22.660714 c -5.96665,0 -10.8035716,4.836924 -10.8035716,10.803572 0,5.966647 4.8369216,10.803571 10.8035716,10.803571 1.708148,-0.0037 3.391087,-0.413081 4.910714,-1.193151 v 8.068151 a 2.9464286,2.9464286 0 0 0 2.946431,2.946429 2.9464286,2.9464286 0 0 0 2.946426,-2.946429 V 33.464286 22.660714 h -5.892857 v 1.181643 c -1.52047,-0.776665 -3.203369,-1.181048 -4.910714,-1.181643 z m 0,5.892857 c 2.712111,0 4.910714,2.198601 4.910714,4.910715 0,2.712113 -2.198603,4.910714 -4.910714,4.910714 -2.712111,0 -4.910714,-2.198601 -4.910714,-4.910714 0,-2.712114 2.198603,-4.910715 4.910714,-4.910715 z"
       id="path2" />
    <path
       style="fill:#64d4f9;stroke-width:0.982147"
       d="m 18.732143,21.678573 c -5.96665,0 -10.8035716,4.836922 -10.8035716,10.80357 0,5.966647 4.8369216,10.803571 10.8035716,10.803571 1.708148,-0.0037 3.391087,-0.413083 4.910714,-1.193149 v 8.068151 a 2.9464286,2.9464286 0 0 0 2.946431,2.946427 2.9464286,2.9464286 0 0 0 2.946426,-2.946427 V 32.482143 21.678573 h -5.892857 v 1.181639 c -1.52047,-0.776663 -3.203369,-1.181042 -4.910714,-1.181639 z m 0,5.892856 c 2.712111,0 4.910714,2.198601 4.910714,4.910714 0,2.712113 -2.198603,4.910714 -4.910714,4.910714 -2.712111,0 -4.910714,-2.198601 -4.910714,-4.910714 0,-2.712113 2.198603,-4.910714 4.910714,-4.910714 z"
       id="path3" />
    <path
       style="opacity:0.2;stroke-width:0.982147"
       d="m 36.410714,12.839284 a 2.9464286,2.9464286 0 0 0 -2.946428,2.946428 v 17.678574 10.803571 h 5.892857 v -1.18164 c 1.52047,0.776642 3.203367,1.181043 4.910714,1.18164 5.966648,0 10.803573,-4.837087 10.803574,-10.803571 0,-5.966483 -4.836926,-10.803572 -10.803574,-10.803572 -1.708146,0.0037 -3.391085,0.411187 -4.910714,1.191233 v -8.066235 a 2.9464286,2.9464286 0 0 0 -2.946429,-2.946428 z m 7.857143,15.714287 c 2.712113,0 4.910714,2.198677 4.910714,4.910715 0,2.712039 -2.198601,4.910714 -4.910714,4.910714 -2.712111,0 -4.910714,-2.198675 -4.910714,-4.910714 0,-2.712038 2.198603,-4.910715 4.910714,-4.910715 z"
       id="path4" />
    <path
       style="fill:#ffffff;stroke-width:0.982147"
       d="m 36.410714,11.857145 a 2.9464286,2.9464286 0 0 0 -2.946428,2.946428 v 17.67857 10.803571 h 5.892857 v -1.18164 c 1.52047,0.77664 3.203367,1.181045 4.910714,1.18164 5.966648,0 10.803573,-4.837086 10.803574,-10.803571 0,-5.966485 -4.836926,-10.80357 -10.803574,-10.80357 -1.708146,0.0037 -3.391085,0.411183 -4.910714,1.191232 v -8.066232 a 2.9464286,2.9464286 0 0 0 -2.946429,-2.946428 z m 7.857143,15.714284 c 2.712113,0 4.910714,2.198677 4.910714,4.910714 0,2.712037 -2.198601,4.910714 -4.910714,4.910714 -2.712111,0 -4.910714,-2.198677 -4.910714,-4.910714 0,-2.712037 2.198603,-4.910714 4.910714,-4.910714 z"
       id="path5" />
    <path
       style="opacity:0.1;fill:#ffffff;stroke-width:0.982147"
       d="M 31.5,4 A 27.500492,27.507541 0 0 0 4,31.507541 27.500492,27.507541 0 0 0 4.0172646,31.991071 27.500492,27.507541 0 0 1 31.5,4.982412 27.500492,27.507541 0 0 1 58.975063,31.991071 27.500492,27.507541 0 0 0 59,31.507541 27.500492,27.507541 0 0 0 31.5,4 Z"
       id="path6" />
  </g>
</svg>
