<?xml version="1.0" encoding="UTF-8" standalone="no"?>
<svg
   clip-rule="evenodd"
   fill-rule="evenodd"
   stroke-linejoin="round"
   stroke-miterlimit="2"
   viewBox="0 0 62 62"
   version="1.1"
   id="svg3"
   sodipodi:docname="qelectrotech.svg"
   width="62"
   height="62"
   inkscape:version="1.4 (e7c3feb100, 2024-10-09)"
   xmlns:inkscape="http://www.inkscape.org/namespaces/inkscape"
   xmlns:sodipodi="http://sodipodi.sourceforge.net/DTD/sodipodi-0.dtd"
   xmlns:xlink="http://www.w3.org/1999/xlink"
   xmlns="http://www.w3.org/2000/svg"
   xmlns:svg="http://www.w3.org/2000/svg">
  <defs
     id="defs3">
    <linearGradient
       id="linearGradient5"
       inkscape:collect="always">
      <stop
         style="stop-color:#ffffff;stop-opacity:1;"
         offset="0"
         id="stop5" />
      <stop
         style="stop-color:#ffffff;stop-opacity:1;"
         offset="1"
         id="stop6" />
    </linearGradient>
    <linearGradient
       id="linearGradient3"
       inkscape:collect="always">
      <stop
         style="stop-color:#2a7fff;stop-opacity:1"
         offset="0"
         id="stop3" />
      <stop
         style="stop-color:#ccaaff;stop-opacity:1"
         offset="1"
         id="stop4" />
    </linearGradient>
    <linearGradient
       inkscape:collect="always"
       xlink:href="#linearGradient3"
       id="linearGradient4"
       x1="30.332001"
       y1="58.332001"
       x2="30.332001"
       y2="2.332"
       gradientUnits="userSpaceOnUse" />
    <linearGradient
       inkscape:collect="always"
       xlink:href="#linearGradient5"
       id="linearGradient6"
       x1="8.2710807"
       y1="30.332"
       x2="50.63032"
       y2="30.332"
       gradientUnits="userSpaceOnUse" />
  </defs>
  <sodipodi:namedview
     id="namedview3"
     pagecolor="#ffffff"
     bordercolor="#000000"
     borderopacity="0.25"
     inkscape:showpageshadow="2"
     inkscape:pageopacity="0.0"
     inkscape:pagecheckerboard="0"
     inkscape:deskcolor="#d1d1d1"
     inkscape:zoom="7.7916667"
     inkscape:cx="23.165775"
     inkscape:cy="32.727273"
     inkscape:window-width="1920"
     inkscape:window-height="994"
     inkscape:window-x="0"
     inkscape:window-y="0"
     inkscape:window-maximized="1"
     inkscape:current-layer="svg3" />
  <linearGradient
     id="a"
     x2="1"
     gradientTransform="matrix(0,-56.001681,56.001681,0,260.2194,58.332906)"
     gradientUnits="userSpaceOnUse">
    <stop
       stop-color="#6c85d5"
       offset="0"
       id="stop1" />
    <stop
       stop-color="#8eaedf"
       offset="1"
       id="stop2" />
  </linearGradient>
  <g
     id="g3"
     transform="translate(0.668,0.668)">
    <path
       d="M 58.332,10.379997 C 58.332,5.9373166 54.726683,2.332 50.284003,2.332 H 10.379997 C 5.9373166,2.332 2.332,5.9373166 2.332,10.379997 v 39.904006 c 0,4.44268 3.6053166,8.047997 8.047997,8.047997 h 39.904006 c 4.44268,0 8.047997,-3.605317 8.047997,-8.047997 z"
       id="path2"
       style="fill:url(#linearGradient4)" />
    <path
       d="m 23.984575,13.934917 c -2.411298,0 -4.411667,1.778106 -4.739893,4.098948 h -0.04264 -0.93945 -5.892561 -1.365885 v 10.93225 H 8.2710807 V 30.332 h 6.8320103 v -1.365885 h -2.733063 v -9.565073 h 6.874654 c 0.328226,2.320842 2.328595,4.098948 4.739893,4.098948 2.41259,0 4.411667,-1.778106 4.739893,-4.098948 h 5.508769 v 2.73177 h 12.298135 v -2.73177 h 2.733063 v 21.861916 h -4.142884 c -0.328226,-2.320842 -2.327303,-4.098948 -4.739893,-4.098948 -2.411297,0 -4.411666,1.778106 -4.739892,4.098948 h -4.269522 c -0.279122,-0.801181 -1.026029,-1.365885 -1.921544,-1.365885 -1.131991,0 -2.049473,0.917482 -2.049473,2.049474 0,1.131992 0.917482,2.049474 2.049473,2.049474 0.895515,0 1.642422,-0.564704 1.921544,-1.365886 h 4.269522 c 0.328226,2.320842 2.328595,4.098948 4.739892,4.098948 2.41259,0 4.411667,-1.778106 4.739893,-4.098948 H 50.63032 V 18.033865 H 46.531372 V 15.300802 H 34.233237 v 2.733063 h -5.038398 -0.427727 -0.04264 c -0.328226,-2.320842 -2.327303,-4.098948 -4.739893,-4.098948 z m 0,1.365885 c 0.687466,0 1.342625,0.205464 1.8789,0.555658 l -1.8789,1.8789 -1.8789,-1.8789 c 0.536275,-0.350194 1.191435,-0.555658 1.8789,-0.555658 z m -2.860993,1.537751 1.8789,1.8789 -1.8789,1.8789 c -0.348902,-0.536275 -0.554366,-1.191434 -0.554366,-1.8789 0,-0.687465 0.205464,-1.342625 0.554366,-1.8789 z m 5.721986,0 c 0.350194,0.536275 0.555659,1.191435 0.555659,1.8789 0,0.687466 -0.205465,1.342625 -0.555659,1.8789 l -1.878899,-1.8789 z m -2.860993,2.860994 1.8789,1.878899 c -0.536275,0.348902 -1.191434,0.554366 -1.8789,0.554366 -0.687465,0 -1.342625,-0.205464 -1.8789,-0.554366 z M 9.6369658,31.697885 v 1.367178 h 1.3671772 v 9.565072 h 5.594056 c 0.277829,0.801182 1.024737,1.365886 1.921543,1.365886 1.131992,0 2.049474,-0.917482 2.049474,-2.049474 0,-0.140853 -0.01551,-0.293336 -0.04264,-0.426435 l 7.258445,-4.185528 -0.682296,-1.195311 -7.302382,4.228171 c -0.352778,-0.286875 -0.792135,-0.470371 -1.280598,-0.470371 -0.896806,0 -1.643714,0.564704 -1.921543,1.365885 h -4.228171 v -8.197895 h 1.367178 v -1.367178 z m 30.7446922,6.833303 c 1.886654,0 3.416652,1.528706 3.416652,3.415359 0,1.886653 -1.529998,3.416651 -3.416652,3.416651 -1.886653,0 -3.415359,-1.529998 -3.415359,-3.416651 0,-1.886653 1.528706,-3.415359 3.415359,-3.415359 z m -21.861916,2.73177 c 0.377331,0 0.682297,0.306258 0.682297,0.683589 0,0.37733 -0.304966,0.683588 -0.682297,0.683588 -0.37733,0 -0.683588,-0.306258 -0.683588,-0.683588 0,-0.377331 0.306258,-0.683589 0.683588,-0.683589 z m 10.930958,0 c 0.377331,0 0.683589,0.306258 0.683589,0.683589 0,0.37733 -0.306258,0.683588 -0.683589,0.683588 -0.37733,0 -0.683588,-0.306258 -0.683588,-0.683588 0,-0.377331 0.306258,-0.683589 0.683588,-0.683589 z"
       fill="#ffffff"
       fill-opacity="0.85"
       id="path3"
       style="stroke-width:1.092;stroke:url(#linearGradient6);stroke-dasharray:none;fill:#ffffff;fill-opacity:1" />
  </g>
</svg>
