<?xml version="1.0" encoding="UTF-8" standalone="no"?>
<svg
   width="62"
   height="62"
   version="1.1"
   id="svg6"
   sodipodi:docname="qemu.svg"
   inkscape:version="1.4 (e7c3feb100, 2024-10-09)"
   xmlns:inkscape="http://www.inkscape.org/namespaces/inkscape"
   xmlns:sodipodi="http://sodipodi.sourceforge.net/DTD/sodipodi-0.dtd"
   xmlns="http://www.w3.org/2000/svg"
   xmlns:svg="http://www.w3.org/2000/svg">
  <defs
     id="defs6" />
  <sodipodi:namedview
     id="namedview6"
     pagecolor="#ffffff"
     bordercolor="#000000"
     borderopacity="0.25"
     inkscape:showpageshadow="2"
     inkscape:pageopacity="0.0"
     inkscape:pagecheckerboard="0"
     inkscape:deskcolor="#d1d1d1"
     inkscape:zoom="11.6875"
     inkscape:cx="31.957219"
     inkscape:cy="33.540107"
     inkscape:window-width="1920"
     inkscape:window-height="994"
     inkscape:window-x="0"
     inkscape:window-y="0"
     inkscape:window-maximized="1"
     inkscape:current-layer="svg6" />
  <g
     id="g6"
     transform="translate(-1.0000409,-1)">
    <path
       style="opacity:0.2;stroke-width:0.98246"
       d="M 31.50877,4.982456 A 27.50877,27.50877 0 0 0 4,32.49123 27.50877,27.50877 0 0 0 31.50877,60 27.50877,27.50877 0 0 0 44.167486,56.902956 l 0.744522,1.815246 A 2.063364,2.063364 0 0 0 46.821268,60 h 11.115963 a 2.063364,2.063364 0 0 0 1.915018,-2.828396 L 55.417768,46.057564 A 27.50877,27.50877 0 0 0 59.01754,32.49123 27.50877,27.50877 0 0 0 31.50877,4.982456 Z"
       id="path1" />
    <circle
       style="fill:#2d3d53;stroke-width:0.98246;fill-opacity:1"
       cx="31.508774"
       cy="31.508774"
       id="circle1"
       r="27.508774" />
    <path
       style="opacity:0.2;stroke-width:0.98246"
       d="m 23.499456,8.9621102 c -0.02822,1.0819378 -1.913684,0.1446863 -1.99562,1.3815788 -2.091224,-0.9310374 0.159319,1.416718 -0.04988,1.634873 h -0.01152 l -0.157346,-0.01533 c -0.10094,-0.03609 -0.247648,-0.09676 -0.464366,-0.230265 -0.440772,0.351172 -0.752386,0.816197 -1.01316,1.331688 -1.743267,2.711919 -2.592931,4.975517 -3.166116,7.832787 -0.731932,3.648582 -0.910357,7.911929 -0.836623,11.509323 0.07853,1.014207 0.332134,1.972695 1.162824,2.613487 2.340462,1.922478 4.286491,4.352374 6.251651,6.666116 3.8687,5.24492 7.258021,9.719199 9.467649,14.422147 -0.243254,-1.580505 -0.558788,-4.093859 -0.709977,-6.036729 -1.341688,-6.84636 -4.08374,-10.466564 -4.398022,-18.11404 -0.07372,-1.891744 1.966159,-5.714905 4.248349,-7.721485 3.443796,-3.027884 5.933079,-2.265533 10.327309,-1.615681 0.02374,0.004 0.05689,0.01142 0.08063,0.01533 0.14583,0.02446 0.304265,0.05227 0.449011,0.08063 1.174051,0.10463 3.533202,0.560954 3.956689,-0.249456 -1.620094,-1.379484 -3.949396,-1.556923 -5.921606,-2.099241 -0.312208,-0.05679 -0.702045,-0.121654 -1.086079,-0.157346 L 37.702868,19.780655 37.21932,19.654009 v 0.01533 l -6.911748,-1.347044 c -0.109974,-0.100131 -0.231073,-0.200483 -0.34156,-0.276311 l 6.742871,0.836623 v -0.03456 c 0.237702,0.05297 0.475316,0.0987 0.713822,0.126637 v 0.01532 l 4.766443,0.878842 c 0.822374,0.306719 1.69876,0.539634 2.521386,0.591002 1.357864,0.197583 3.081402,2.224497 3.526864,2.321822 -0.218318,-2.132371 -2.346392,-3.089044 -4.11404,-3.71491 -2.065142,-1.00407 -5.153397,-0.968955 -5.480265,-3.74561 -0.0869,-0.193469 -0.17063,-0.386129 -0.27631,-0.571822 l -0.805923,-1.066887 0.03072,-0.01533 C 36.493785,12.371489 34.950462,11.425626 33.308656,11.065179 31.679096,10.502691 29.847338,9.9455844 28.123903,9.7219738 27.539038,11.444051 26.886111,8.3573545 25.479711,9.2729655 24.246949,9.4189585 24.417294,9.743154 23.499456,8.9621102 Z m 8.517812,3.8818508 c 0.435157,-0.01433 0.933524,0.08413 1.433394,0.299348 1.332954,0.573886 2.199655,1.784711 1.943796,2.707509 -0.255852,0.922796 -1.547249,1.195596 -2.8802,0.621712 -1.332965,-0.573894 -2.199651,-1.767441 -1.943806,-2.690241 0.159907,-0.576745 0.721558,-0.914458 1.446816,-0.938328 z"
       id="path2" />
    <path
       style="fill:#ff7111;stroke-width:0.98246"
       d="m 23.499456,7.9797152 c -0.02822,1.0819379 -1.913684,0.1446863 -1.99562,1.381579 -2.091224,-0.9310386 0.159319,1.4167148 -0.04988,1.6348698 h -0.01152 l -0.157346,-0.01533 c -0.10094,-0.03602 -0.247648,-0.09676 -0.464366,-0.230265 -0.440772,0.351172 -0.752386,0.816197 -1.01316,1.331688 -1.743267,2.711929 -2.592931,4.975527 -3.166116,7.832787 -0.731932,3.648582 -0.910357,7.911929 -0.836623,11.509323 0.07853,1.014207 0.332134,1.972695 1.162824,2.613487 2.340462,1.922478 4.286491,4.352374 6.251651,6.666116 3.8687,5.24492 7.258021,9.719204 9.467649,14.422147 -0.243254,-1.580498 -0.558788,-4.093862 -0.709977,-6.036732 -1.341688,-6.84636 -4.08374,-10.466554 -4.398022,-18.11403 -0.07372,-1.891754 1.966159,-5.714915 4.248349,-7.721495 3.443796,-3.027884 5.933079,-2.265523 10.327309,-1.615681 0.02374,0.004 0.05689,0.01142 0.08063,0.01533 0.14583,0.02446 0.304265,0.05227 0.449011,0.08063 1.174051,0.10463 3.533202,0.560954 3.956689,-0.249456 C 45.02085,20.105217 42.69155,19.927778 40.71934,19.38545 40.407132,19.32866 40.017295,19.263796 39.633261,19.228104 L 37.702868,18.798267 37.21932,18.671621 v 0.01533 L 30.307576,17.33992 c -0.109974,-0.100132 -0.231073,-0.200484 -0.34156,-0.276322 l 6.742871,0.836623 v -0.03456 c 0.237702,0.05297 0.475313,0.0987 0.713822,0.126647 v 0.01532 l 4.766443,0.878842 c 0.822374,0.306719 1.69876,0.539634 2.521386,0.591012 1.357864,0.197576 3.081402,2.224487 3.526864,2.321817 -0.21832,-2.132376 -2.346392,-3.089039 -4.11404,-3.714915 -2.065142,-1.00407 -5.153397,-0.968945 -5.480265,-3.74561 -0.0869,-0.193469 -0.17063,-0.386129 -0.27631,-0.571822 l -0.805923,-1.066887 0.03072,-0.01533 C 36.49379,11.389096 34.950467,10.443233 33.308661,10.082786 31.679101,9.5203012 29.847343,8.963194 28.123908,8.7395838 27.539038,10.461653 26.886111,7.3749595 25.479711,8.2905705 24.246949,8.4365635 24.417294,8.760758 23.499456,7.9797152 Z m 8.517812,3.8818478 c 0.435157,-0.01433 0.933524,0.08413 1.433394,0.299348 1.332954,0.573886 2.199655,1.784711 1.943796,2.707509 -0.255852,0.922796 -1.547249,1.195596 -2.8802,0.621712 -1.332965,-0.573884 -2.199651,-1.767441 -1.943806,-2.690241 0.159907,-0.576745 0.721558,-0.914458 1.446816,-0.938328 z"
       id="path3" />
    <path
       style="fill:#2d3d53;stroke-width:0.98246;fill-opacity:1"
       d="m 40.056753,38.38596 a 2.063364,2.063364 0 0 0 -1.91003,2.844902 l 6.764357,16.50527 a 2.063364,2.063364 0 0 0 1.910041,1.281408 h 11.116332 a 2.063364,2.063364 0 0 0 1.91541,-2.828778 L 53.265795,39.683492 A 2.063364,2.063364 0 0 0 51.350397,38.38596 Z"
       id="path4" />
    <path
       style="opacity:0.1;fill:#ffffff;stroke-width:0.98246"
       d="M 31.50877,4 A 27.50877,27.50877 0 0 0 4,31.50877 27.50877,27.50877 0 0 0 4.0211074,31.915572 27.50877,27.50877 0 0 1 31.50877,4.982456 27.50877,27.50877 0 0 1 59.000272,32.145838 27.50877,27.50877 0 0 0 59.01754,31.50877 27.50877,27.50877 0 0 0 31.50877,4 Z m 24.127744,41.623908 a 27.50877,27.50877 0 0 1 -0.218746,0.433656 l 4.434481,11.11404 a 2.063364,2.063364 0 0 1 0.08639,0.274397 2.063364,2.063364 0 0 0 -0.08639,-1.256857 z"
       id="path5" />
    <path
       style="opacity:0.2;fill:#ffffff;stroke-width:0.98246"
       d="m 23.499456,7.9797152 c -0.02822,1.081938 -1.913684,0.1446863 -1.99562,1.381579 -1.343684,-0.5982281 -0.891841,0.1507162 -0.45477,0.8251108 0.126493,0.03381 0.254873,0.06837 0.45477,0.157346 0.0819,-1.2368932 1.9674,-0.299641 1.99562,-1.3815798 0.917838,0.7810439 0.747493,0.4568483 1.980255,0.3108553 1.4064,-0.915611 2.059327,2.1710865 2.644197,0.4490133 1.723435,0.223611 3.555193,0.7807182 5.184753,1.3432002 1.641806,0.360453 3.185129,1.306323 4.282895,2.601974 l -0.03069,0.01533 0.805923,1.066887 c 0.10568,0.185693 0.18937,0.378353 0.27631,0.571812 0.326868,2.776665 3.415123,2.74155 5.480265,3.74562 1.372399,0.485923 2.95127,1.179808 3.695728,2.459976 0.177769,0.143374 0.329362,0.253043 0.418312,0.272475 -0.218317,-2.132372 -2.346392,-3.089035 -4.11404,-3.714911 -2.065142,-1.00407 -5.153397,-0.968946 -5.480265,-3.74561 -0.0869,-0.19347 -0.17063,-0.386129 -0.27631,-0.571822 l -0.805923,-1.066887 0.03069,-0.01533 C 36.49379,11.389096 34.950467,10.443233 33.308661,10.082786 31.679101,9.5203014 29.847343,8.963194 28.123908,8.7395838 27.539038,10.461653 26.886111,7.3749595 25.479711,8.2905705 24.246949,8.4365635 24.417294,8.7607581 23.499456,7.9797152 Z m -2.699837,2.7919428 c -0.428413,0.348877 -0.735934,0.804279 -0.992055,1.310574 -1.743267,2.711929 -2.592931,4.975527 -3.166116,7.832787 -0.611073,3.046106 -0.823716,6.499798 -0.838546,9.657628 0.05446,-2.879004 0.291516,-5.94829 0.838546,-8.675168 0.573185,-2.85727 1.422849,-5.120868 3.166116,-7.832787 0.260774,-0.515491 0.572388,-0.980516 1.01316,-1.331688 0.216718,0.133535 0.363426,0.194215 0.464366,0.230265 l 0.157346,0.01533 h 0.01152 C 21.55569,11.872527 21.079102,11.262966 20.79963,10.771643 Z m 9.83032,2.89172 c -0.01703,0.04168 -0.04718,0.07448 -0.05945,0.118973 -0.255845,0.9228 0.610841,2.116348 1.943806,2.690241 1.33295,0.573884 2.624348,0.301084 2.8802,-0.621712 0.07466,-0.269156 0.04443,-0.562532 -0.05564,-0.857737 -0.33824,0.815609 -1.557519,1.042499 -2.82456,0.496989 -0.940157,-0.404766 -1.638342,-1.117882 -1.884322,-1.826754 z m -0.663931,4.382677 c 0.110487,0.07579 0.231586,0.17618 0.341556,0.27631 l 6.911736,1.347044 v -0.01533 l 0.483548,0.126651 1.930373,0.42983 c 0.384034,0.03573 0.773871,0.100564 1.086079,0.157346 1.660747,0.456672 3.569855,0.662178 5.100326,1.537003 0.373308,-0.05734 0.670782,-0.171979 0.804,-0.397207 -0.26175,-0.209809 -0.533437,-0.416054 -0.811672,-0.589089 -0.164937,-0.09393 -0.329736,-0.187253 -0.502739,-0.266719 -0.05306,-0.02438 -0.109434,-0.04209 -0.163106,-0.06521 -0.147243,-0.05587 -0.294393,-0.106105 -0.435579,-0.126646 -0.822626,-0.05139 -1.699012,-0.284283 -2.521386,-0.591007 l -4.766443,-0.878863 v -0.01532 c -0.238506,-0.02792 -0.47612,-0.0737 -0.713822,-0.126647 v 0.03456 z m -2.352522,13.495338 c -0.01289,0.139821 -0.03938,0.292162 -0.03456,0.416388 0.314282,7.647476 3.056334,11.26768 4.398022,18.11404 0.115957,1.4901 0.325144,3.210504 0.52769,4.693534 0.0584,0.12062 0.125483,0.239827 0.182287,0.360737 C 32.443683,53.545595 32.128149,51.032231 31.97696,49.089361 30.66944,42.417343 28.037827,38.798828 27.613476,31.541393 Z"
       id="path6" />
  </g>
</svg>
