<?xml version="1.0" encoding="UTF-8" standalone="no"?>
<svg
   width="62"
   height="62"
   version="1.1"
   id="svg4"
   sodipodi:docname="qgo.svg"
   inkscape:version="1.4 (e7c3feb100, 2024-10-09)"
   xmlns:inkscape="http://www.inkscape.org/namespaces/inkscape"
   xmlns:sodipodi="http://sodipodi.sourceforge.net/DTD/sodipodi-0.dtd"
   xmlns:xlink="http://www.w3.org/1999/xlink"
   xmlns="http://www.w3.org/2000/svg"
   xmlns:svg="http://www.w3.org/2000/svg">
  <defs
     id="defs4">
    <linearGradient
       id="linearGradient1"
       inkscape:collect="always">
      <stop
         style="stop-color:#3485fd;stop-opacity:1"
         offset="0"
         id="stop1" />
      <stop
         style="stop-color:#9d7ed5;stop-opacity:1"
         offset="1"
         id="stop2" />
    </linearGradient>
    <linearGradient
       inkscape:collect="always"
       xlink:href="#linearGradient1"
       id="linearGradient2"
       x1="31"
       y1="58.017544"
       x2="31"
       y2="3.9824567"
       gradientUnits="userSpaceOnUse" />
  </defs>
  <sodipodi:namedview
     id="namedview4"
     pagecolor="#ffffff"
     bordercolor="#000000"
     borderopacity="0.25"
     inkscape:showpageshadow="2"
     inkscape:pageopacity="0.0"
     inkscape:pagecheckerboard="0"
     inkscape:deskcolor="#d1d1d1"
     inkscape:zoom="11.75"
     inkscape:cx="32"
     inkscape:cy="32.085106"
     inkscape:window-width="1920"
     inkscape:window-height="998"
     inkscape:window-x="0"
     inkscape:window-y="0"
     inkscape:window-maximized="1"
     inkscape:current-layer="svg4" />
  <rect
     x="3.5"
     y="3.9824567"
     width="55"
     height="55.017544"
     ry="14.736842"
     style="opacity:0.2;stroke-width:0.982303"
     id="rect1" />
  <rect
     x="3.5"
     y="2.9999995"
     width="55"
     height="55.017544"
     ry="14.736842"
     style="fill:url(#linearGradient2);stroke-width:0.982303;fill-opacity:1"
     id="rect2" />
  <path
     d="M 18.232143,2.9999995 C 10.070534,2.9999995 3.5,9.5726295 3.5,17.736843 v 0.982455 C 3.5,10.555089 10.070534,3.9824555 18.232143,3.9824555 H 43.767858 C 51.929464,3.9824555 58.5,10.555089 58.5,18.719298 V 17.736843 C 58.5,9.5726295 51.929464,2.9999995 43.767858,2.9999995 Z"
     style="opacity:0.2;fill:#ffffff;stroke-width:0.982303"
     id="path4" />
  <g
     id="g8"
     transform="matrix(0.89795918,0,0,0.89795918,2.2653062,1.8163267)">
    <path
       style="opacity:0.2"
       d="M 30,19 A 10,10 0 0 1 20,29 10,10 0 0 1 10,19 10,10 0 0 1 20,9 10,10 0 0 1 30,19 Z"
       id="path1-5" />
    <path
       style="fill:#ffffff"
       d="M 30,18 A 10,10 0 0 1 20,28 10,10 0 0 1 10,18 10,10 0 0 1 20,8 10,10 0 0 1 30,18 Z"
       id="path2-6" />
    <path
       style="fill:#27313a;fill-opacity:1"
       d="M 30,46 A 10,10 0 0 1 20,56 10,10 0 0 1 10,46 10,10 0 0 1 20,36 10,10 0 0 1 30,46 Z"
       id="path3-2" />
    <path
       style="opacity:0.2"
       d="M 54,47 A 10,10 0 0 0 44,37 10,10 0 0 0 34,47 10,10 0 0 0 44,57 10,10 0 0 0 54,47 Z"
       id="path6-9" />
    <path
       style="fill:#ffffff"
       d="M 54,46 A 10,10 0 0 0 44,36 10,10 0 0 0 34,46 10,10 0 0 0 44,56 10,10 0 0 0 54,46 Z"
       id="path7-1" />
    <path
       style="fill:#27313a;fill-opacity:1"
       d="M 54,18 A 10,10 0 0 0 44,8 10,10 0 0 0 34,18 10,10 0 0 0 44,28 10,10 0 0 0 54,18 Z"
       id="path8-2" />
  </g>
</svg>
