<?xml version="1.0" encoding="UTF-8" standalone="no"?>
<svg
   clip-rule="evenodd"
   fill-rule="evenodd"
   stroke-linejoin="round"
   stroke-miterlimit="2"
   viewBox="0 0 62 62"
   version="1.1"
   id="svg3"
   sodipodi:docname="qtcreator.svg"
   width="62"
   height="62"
   inkscape:version="1.4 (e7c3feb100, 2024-10-09)"
   xmlns:inkscape="http://www.inkscape.org/namespaces/inkscape"
   xmlns:sodipodi="http://sodipodi.sourceforge.net/DTD/sodipodi-0.dtd"
   xmlns="http://www.w3.org/2000/svg"
   xmlns:svg="http://www.w3.org/2000/svg">
  <defs
     id="defs3" />
  <sodipodi:namedview
     id="namedview3"
     pagecolor="#ffffff"
     bordercolor="#000000"
     borderopacity="0.25"
     inkscape:showpageshadow="2"
     inkscape:pageopacity="0.0"
     inkscape:pagecheckerboard="0"
     inkscape:deskcolor="#d1d1d1"
     inkscape:zoom="5.5537345"
     inkscape:cx="22.417348"
     inkscape:cy="59.419477"
     inkscape:window-width="1920"
     inkscape:window-height="994"
     inkscape:window-x="0"
     inkscape:window-y="0"
     inkscape:window-maximized="1"
     inkscape:current-layer="svg3" />
  <linearGradient
     id="a"
     x2="1"
     gradientTransform="matrix(2.2317427,-55.16561,55.16561,2.2317427,28.831336,57.49761)"
     gradientUnits="userSpaceOnUse">
    <stop
       stop-color="#397f09"
       offset="0"
       id="stop1" />
    <stop
       stop-color="#86d651"
       offset="1"
       id="stop2" />
  </linearGradient>
  <g
     id="g3"
     transform="translate(0.668,0.668)">
    <path
       d="M 58.332,10.379997 C 58.332,5.9373166 54.726683,2.332 50.284003,2.332 H 10.379997 C 5.9373166,2.332 2.332,5.9373166 2.332,10.379997 v 39.904006 c 0,4.44268 3.6053166,8.047997 8.047997,8.047997 h 39.904006 c 4.44268,0 8.047997,-3.605317 8.047997,-8.047997 z"
       fill="url(#a)"
       id="path2"
       style="fill:url(#a);stroke-width:1.29223" />
    <path
       d="m 22.818985,13.50202 c -3.388222,0.0168 -5.913236,1.314196 -7.564703,3.888315 -1.650176,2.559904 -2.460403,6.2518 -2.437143,11.080856 0.02455,4.929851 0.86967,8.686358 2.54569,11.259184 1.172051,1.800074 2.733062,2.96308 4.683035,3.494185 0,0 0.395422,-0.02197 0.430312,0.399299 0.696511,5.445449 4.101532,5.440281 7.983385,5.420897 0,0 0.501385,-0.0026 0.4988,-0.502677 l -0.01551,-3.005722 c -0.0026,-0.501385 -0.503969,-0.4988 -0.503969,-0.4988 -1.938343,0.009 -2.441019,0.13956 -2.969541,-1.801366 0.656452,-0.166698 1.265092,-0.390253 1.829795,-0.682297 1.27543,-0.673251 2.324719,-1.647591 3.150453,-2.928189 0.825734,-1.29352 1.434373,-2.880377 1.825918,-4.76703 0.407052,-1.887945 0.607347,-4.048551 0.595717,-6.484401 -0.02455,-4.887207 -0.886468,-8.58944 -2.592209,-11.104116 -1.707034,-2.528891 -4.194573,-3.783644 -7.460034,-3.768138 z M 36.967592,37.981991 C 36.955962,35.47636 36.92624,27.511066 36.92624,27.511066 l -2.045597,0.01034 -0.02714,-3.557504 c 3.008308,-0.01422 2.005538,0.07366 3.481263,-5.945542 l 3.880561,-0.01809 0.02843,5.92745 4.140299,-0.01938 0.02714,3.556212 -4.140299,0.02068 0.0336,8.966772 c 0.0052,0.932988 0.201588,1.63596 0.591841,2.107624 0.390252,0.471663 0.900683,0.705556 1.532582,0.702972 0.805058,0.07366 2.028798,-0.325642 2.028798,-0.325642 l 0.0168,3.507108 c -0.100793,0.07236 -4.933727,1.570057 -7.520768,0.03618 C 36.440367,40.990307 36.967596,37.982 36.967596,37.982 Z M 22.799602,15.944332 c 0.709433,-0.0026 1.254754,0.244231 1.71091,0.75983 0.268784,0.292043 0.506554,0.67842 0.726232,1.138453 0.125346,0.339856 0.2494,0.700387 0.350194,1.110024 0.271368,1.106147 0.467787,2.446188 0.584087,4.036921 0.115009,1.586856 0.173159,3.395975 0.182204,5.415728 0.01034,2.033967 -0.02972,3.86247 -0.130515,5.480339 -0.0995,1.604948 -0.282998,2.968249 -0.544028,4.104117 -0.09692,0.422559 -0.213217,0.806351 -0.338563,1.160421 -0.02068,0.04523 -0.04135,0.09692 -0.06203,0.140853 -0.197711,0.410928 -0.413513,0.757246 -0.652576,1.036367 -0.452279,0.547905 -0.9976,0.803766 -1.704449,0.807643 -0.706848,0.0026 -1.253461,-0.246816 -1.71091,-0.790844 -0.448403,-0.551782 -0.81798,-1.359424 -1.093225,-2.437142 -0.276537,-1.09581 -0.466494,-2.435851 -0.584087,-4.020122 -0.117593,-1.602363 -0.188665,-3.42182 -0.197711,-5.448034 -0.01034,-2.010707 0.04394,-3.796567 0.146022,-5.370501 0.102086,-1.570057 0.279121,-2.894591 0.544028,-3.963263 0.264907,-1.066089 0.630607,-1.859517 1.069965,-2.385454 0.450988,-0.518183 0.993723,-0.77146 1.704449,-0.775336 z"
       fill="#ffffff"
       fill-opacity="0.85"
       fill-rule="nonzero"
       id="path3"
       style="stroke-width:1.29223" />
  </g>
  <circle
     cx="46.243011"
     cy="46.612"
     r="9"
     fill="#37474f"
     id="circle2" />
  <path
     d="m 41.242999,40.612003 h 6 v 1 h -6 z"
     fill="#78909c"
     id="path3-3" />
  <path
     d="m 49.242999,40.612003 h 2 v 1 h -2 z"
     fill="#ff7043"
     id="path4" />
  <path
     d="m 43.242999,42.612003 h 6 v 1 h -6 z"
     fill="#26c6da"
     id="path5" />
  <path
     d="m 41.242999,44.612003 h 7 v 1 h -7 z"
     fill="#78909c"
     id="path6" />
  <path
     d="m 43.242999,46.612003 h 7 v 1 h -7 z m 1,2 h 8 v 1 h -8 z"
     fill="#9ccc65"
     id="path7" />
  <path
     d="m 43.242999,50.612003 h 6 v 1 h -6 z"
     fill="#26c6da"
     id="path8" />
  <path
     d="m 45.242999,52.612003 h 4 v 1 h -4 z"
     fill="#ff7043"
     id="path9" />
</svg>
