<?xml version="1.0" encoding="UTF-8" standalone="no"?>
<svg
   clip-rule="evenodd"
   fill-rule="evenodd"
   stroke-linejoin="round"
   stroke-miterlimit="2"
   viewBox="0 0 62 62"
   version="1.1"
   id="svg3"
   sodipodi:docname="qtdbusviewer.svg"
   width="62"
   height="62"
   inkscape:version="1.4 (e7c3feb100, 2024-10-09)"
   xmlns:inkscape="http://www.inkscape.org/namespaces/inkscape"
   xmlns:sodipodi="http://sodipodi.sourceforge.net/DTD/sodipodi-0.dtd"
   xmlns="http://www.w3.org/2000/svg"
   xmlns:svg="http://www.w3.org/2000/svg">
  <defs
     id="defs3" />
  <sodipodi:namedview
     id="namedview3"
     pagecolor="#ffffff"
     bordercolor="#000000"
     borderopacity="0.25"
     inkscape:showpageshadow="2"
     inkscape:pageopacity="0.0"
     inkscape:pagecheckerboard="0"
     inkscape:deskcolor="#d1d1d1"
     inkscape:zoom="7.8541667"
     inkscape:cx="22.599469"
     inkscape:cy="38.578249"
     inkscape:window-width="1920"
     inkscape:window-height="994"
     inkscape:window-x="0"
     inkscape:window-y="0"
     inkscape:window-maximized="1"
     inkscape:current-layer="svg3" />
  <g
     fill-rule="nonzero"
     id="g3"
     transform="matrix(1.2922282,0,0,1.2922282,-0.0134768,-0.0134768)">
    <path
       d="M 2.443,40.615 C 2.37,40.234 2.332,39.842 2.332,39.44 V 12.875 L 13.547,2.332 H 39.44 c 3.438,0 6.228,2.79 6.228,6.228 v 30.717 l -1.837,0.305 c -0.374,0.396 -2.291,1.416 -2.833,1.416 L 4.169,39.582 c 0,0 -0.748,0.482 -1.726,1.033 z"
       fill="#4cdb5d"
       id="path1" />
    <path
       d="m 2.332,14.368 43.336,19.373 v 5.699 c 0,3.438 -2.79,6.228 -6.228,6.228 H 8.56 c -3.438,0 -6.228,-2.79 -6.228,-6.228 z"
       fill="#31ae3e"
       id="path2" />
    <path
       d="m 10,15 v 18 h 7.5 c 3.601,0 6.5,-2.899 6.5,-6.5 v -5 C 24,17.899 21.101,15 17.5,15 Z m 13.744,0 5.684,18 h 3.144 L 38.256,15 H 35.111 L 31,28.021 26.889,15 Z M 13,18 h 4.5 c 1.991,0 3.5,1.509 3.5,3.5 v 5 C 21,28.491 19.491,30 17.5,30 H 13 Z"
       fill="#ffffff"
       id="path3" />
  </g>
</svg>
