<?xml version="1.0" encoding="UTF-8" standalone="no"?>
<svg
   clip-rule="evenodd"
   fill-rule="evenodd"
   stroke-linejoin="round"
   stroke-miterlimit="2"
   viewBox="0 0 62 62"
   version="1.1"
   id="svg3"
   sodipodi:docname="qtdesigner.svg"
   width="62"
   height="62"
   inkscape:version="1.4 (e7c3feb100, 2024-10-09)"
   xmlns:inkscape="http://www.inkscape.org/namespaces/inkscape"
   xmlns:sodipodi="http://sodipodi.sourceforge.net/DTD/sodipodi-0.dtd"
   xmlns="http://www.w3.org/2000/svg"
   xmlns:svg="http://www.w3.org/2000/svg">
  <defs
     id="defs3" />
  <sodipodi:namedview
     id="namedview3"
     pagecolor="#ffffff"
     bordercolor="#000000"
     borderopacity="0.25"
     inkscape:showpageshadow="2"
     inkscape:pageopacity="0.0"
     inkscape:pagecheckerboard="0"
     inkscape:deskcolor="#d1d1d1"
     inkscape:zoom="11.107469"
     inkscape:cx="31.195225"
     inkscape:cy="27.63906"
     inkscape:window-width="1920"
     inkscape:window-height="994"
     inkscape:window-x="0"
     inkscape:window-y="0"
     inkscape:window-maximized="1"
     inkscape:current-layer="svg3" />
  <g
     id="g3"
     transform="matrix(1.2922282,0,0,1.2922282,-0.01347616,-0.01347616)">
    <path
       d="M 10.729,2.332 H 39.44 c 3.438,0 6.228,2.79 6.228,6.228 v 27.53 c 0,0.492 -0.143,0.965 -0.399,1.321 l -6.824,1.486 c -0.272,0.378 -1.669,1.353 -2.063,1.354 L 9.555,38.897 c 0,0 -3.55,3.002 -4.376,2.454 C 4.353,40.804 7.1,28.282 6.579,26.493 L 2.332,11.91 c 0,-0.492 0.143,-0.965 0.399,-1.321 L 9.685,2.926 C 9.957,2.547 10.334,2.333 10.729,2.332 Z"
       fill="#4cdb5d"
       id="path1" />
    <path
       d="M 36.696,45.668 H 8.56 c -3.438,0 -6.228,-2.79 -6.228,-6.228 V 11.911 c 0,-0.183 0.026,-0.362 0.063,-0.535 l 43.188,25.34 c -0.067,0.256 -0.169,0.494 -0.313,0.694 l -7.53,7.663 c -0.272,0.378 -0.65,0.594 -1.044,0.595 z"
       fill="#31ae3e"
       id="path2" />
    <path
       d="M 15.43335,12.98571 V 35.01447 H 24.612 c 4.406976,0 7.95483,-3.547854 7.95483,-7.95483 v -6.1191 c 0,-4.406976 -3.547854,-7.95483 -7.95483,-7.95483 z m 3.67146,3.67146 H 24.612 c 2.436626,0 4.28337,1.846744 4.28337,4.28337 v 6.1191 c 0,2.436626 -1.846744,4.28337 -4.28337,4.28337 h -5.50719 z"
       fill="#ffffff"
       fill-rule="nonzero"
       id="path3"
       style="stroke-width:1.22382" />
  </g>
</svg>
