<?xml version="1.0" encoding="UTF-8" standalone="no"?>
<svg
   width="62"
   height="62"
   version="1"
   id="svg4"
   sodipodi:docname="quassel.svg"
   inkscape:version="1.4 (e7c3feb100, 2024-10-09)"
   xmlns:inkscape="http://www.inkscape.org/namespaces/inkscape"
   xmlns:sodipodi="http://sodipodi.sourceforge.net/DTD/sodipodi-0.dtd"
   xmlns="http://www.w3.org/2000/svg"
   xmlns:svg="http://www.w3.org/2000/svg">
  <defs
     id="defs4" />
  <sodipodi:namedview
     id="namedview4"
     pagecolor="#ffffff"
     bordercolor="#000000"
     borderopacity="0.25"
     inkscape:showpageshadow="2"
     inkscape:pageopacity="0.0"
     inkscape:pagecheckerboard="0"
     inkscape:deskcolor="#d1d1d1"
     inkscape:zoom="11.6875"
     inkscape:cx="31.957219"
     inkscape:cy="32"
     inkscape:window-width="1920"
     inkscape:window-height="994"
     inkscape:window-x="0"
     inkscape:window-y="0"
     inkscape:window-maximized="1"
     inkscape:current-layer="svg4" />
  <g
     id="g5"
     transform="matrix(0.98214286,0,0,0.98245614,-0.42857152,-0.92982455)">
    <g
       id="g4">
      <rect
         style="fill:#0286c2"
         width="56"
         height="56"
         x="4"
         y="4"
         rx="28"
         ry="28"
         id="rect1" />
      <path
         style="opacity:0.2"
         d="M 4.0175781,32.664062 C 4.0112845,32.775966 4,32.886446 4,33 4,48.511778 16.488,61 32,61 47.512001,61 60,48.511778 60,33 60,32.886446 59.988797,32.775966 59.982422,32.664062 59.630879,47.865602 47.289273,60 32,60 16.710728,60 4.3691213,47.865602 4.0175781,32.664062 Z"
         id="path1" />
      <path
         style="opacity:0.2;fill:#ffffff"
         d="M 32,4 C 16.488222,4 4,16.488222 4,32 4,32.113554 4.011285,32.224034 4.017578,32.335938 4.3691162,17.134398 16.710946,5 32,5 47.289055,5 59.630884,17.134398 59.982422,32.335938 59.988797,32.224034 60,32.113554 60,32 60,16.488222 47.511779,4 32,4 Z"
         id="path2" />
      <path
         style="opacity:0.2"
         d="M 31.999599,17.000457 A 15.999771,15.999771 0 0 0 15.999828,33.000229 15.999771,15.999771 0 0 0 31.999599,49 a 15.999771,15.999771 0 0 0 10.066257,-3.570349 8.9998713,8.9998713 0 0 1 -5.065928,1.569977 8.9998713,8.9998713 0 0 1 -8.999871,-8.999871 8.9998713,8.9998713 0 0 1 8.999871,-8.999871 8.9998713,8.9998713 0 0 1 8.999871,8.999871 8.9998713,8.9998713 0 0 1 -1.491978,4.953929 15.999771,15.999771 0 0 0 3.49195,-9.953857 15.999771,15.999771 0 0 0 -15.999772,-15.999772 z"
         id="path3" />
      <path
         style="fill:#ffffff"
         d="M 31.999599,16.000658 A 15.999771,15.999771 0 0 0 15.999828,32.000429 15.999771,15.999771 0 0 0 31.999599,48.0002 a 15.999771,15.999771 0 0 0 10.066257,-3.570349 8.9998713,8.9998713 0 0 1 -5.065928,1.569978 8.9998713,8.9998713 0 0 1 -8.999871,-8.999871 8.9998713,8.9998713 0 0 1 8.999871,-8.999872 8.9998713,8.9998713 0 0 1 8.999871,8.999872 8.9998713,8.9998713 0 0 1 -1.491978,4.953929 15.999771,15.999771 0 0 0 3.49195,-9.953858 15.999771,15.999771 0 0 0 -15.999772,-15.999771 z"
         id="path4" />
    </g>
  </g>
</svg>
