<?xml version="1.0" encoding="UTF-8" standalone="no"?>
<svg
   width="62"
   height="62"
   version="1.1"
   id="svg5"
   sodipodi:docname="quickDocs.svg"
   inkscape:version="1.4 (unknown)"
   xmlns:inkscape="http://www.inkscape.org/namespaces/inkscape"
   xmlns:sodipodi="http://sodipodi.sourceforge.net/DTD/sodipodi-0.dtd"
   xmlns:xlink="http://www.w3.org/1999/xlink"
   xmlns="http://www.w3.org/2000/svg"
   xmlns:svg="http://www.w3.org/2000/svg">
  <defs
     id="defs5">
    <linearGradient
       id="linearGradient8"
       inkscape:collect="always">
      <stop
         style="stop-color:#2d3d53;stop-opacity:1;"
         offset="0"
         id="stop8" />
      <stop
         style="stop-color:#004f4f;stop-opacity:1;"
         offset="1"
         id="stop10" />
    </linearGradient>
    <linearGradient
       id="linearGradient4217">
      <stop
         style="stop-color:#000000;stop-opacity:1;"
         offset="0"
         id="stop2" />
      <stop
         style="stop-color:#000000;stop-opacity:0;"
         offset="1"
         id="stop4" />
    </linearGradient>
    <linearGradient
       id="linearGradient4161">
      <stop
         style="stop-color:#334545;stop-opacity:1;"
         offset="0"
         id="stop7" />
      <stop
         style="stop-color:#4d6868;stop-opacity:1"
         offset="1"
         id="stop9" />
    </linearGradient>
    <linearGradient
       id="a-1-2"
       y1="510.79999"
       y2="527.14001"
       gradientUnits="userSpaceOnUse"
       x2="0">
      <stop
         stop-color="#7cbaf8"
         id="stop2-2-7" />
      <stop
         offset="1"
         stop-color="#f4fcff"
         id="stop4-70-0" />
    </linearGradient>
    <linearGradient
       id="c"
       y1="503.79999"
       x1="400.57001"
       y2="519.79999"
       x2="416.57001"
       gradientUnits="userSpaceOnUse">
      <stop
         stop-color="#292c2f"
         id="stop12" />
      <stop
         offset="1"
         stop-opacity="0"
         id="stop14" />
    </linearGradient>
    <linearGradient
       id="b"
       y1="542.79999"
       x1="408.57001"
       y2="521.79999"
       x2="387.57001"
       gradientUnits="userSpaceOnUse"
       gradientTransform="translate(-384.57,-499.8)">
      <stop
         stop-color="#197cf1"
         id="stop7-8" />
      <stop
         offset="1"
         stop-color="#20bcfa"
         id="stop9-7" />
    </linearGradient>
    <linearGradient
       xlink:href="#linearGradient1389"
       id="linearGradient4503-5-6"
       y1="37"
       y2="4"
       x2="0"
       gradientUnits="userSpaceOnUse"
       gradientTransform="matrix(1.0218446,0,0,0.99999999,21.748946,8.2587777)" />
    <linearGradient
       id="linearGradient1389">
      <stop
         style="stop-color:#ffaaaa;stop-opacity:1"
         id="stop1385"
         offset="0" />
      <stop
         offset="1"
         style="stop-color:#ff5555;stop-opacity:1"
         id="stop1387" />
    </linearGradient>
    <linearGradient
       id="paint543_linear_890_11"
       x1="978.5"
       y1="298"
       x2="978.5"
       y2="304"
       gradientUnits="userSpaceOnUse"
       gradientTransform="matrix(0.75000004,0,0,0.75000004,-717.38333,-173.49123)">
      <stop
         offset="0.189495"
         stop-color="#EFF2F6"
         id="stop1829" />
      <stop
         offset="0.850463"
         stop-color="#B7C6CD"
         id="stop1830" />
    </linearGradient>
    <linearGradient
       inkscape:collect="always"
       xlink:href="#linearGradient8"
       id="linearGradient10"
       x1="31.5"
       y1="59.017544"
       x2="31.5"
       y2="19.018715"
       gradientUnits="userSpaceOnUse"
       gradientTransform="translate(-0.5,-1)" />
    <linearGradient
       id="linearGradient4144">
      <stop
         style="stop-color:#c83771;stop-opacity:1"
         offset="0"
         id="stop1141" />
      <stop
         style="stop-color:#de87aa;stop-opacity:1"
         offset="1"
         id="stop1143" />
    </linearGradient>
    <linearGradient
       id="c-0"
       gradientUnits="userSpaceOnUse"
       x1="10"
       x2="24"
       y1="10"
       y2="24"
       gradientTransform="translate(59.728813,26.237288)">
      <stop
         offset="0"
         stop-color="#292c2f"
         id="stop12-2" />
      <stop
         offset="1"
         stop-opacity="0"
         id="stop14-3" />
    </linearGradient>
    <linearGradient
       id="d"
       gradientUnits="userSpaceOnUse"
       x1="24"
       x2="24"
       y1="25"
       y2="7"
       gradientTransform="translate(59.728813,26.237288)">
      <stop
         offset="0"
         stop-color="#bb9d71"
         id="stop2-7" />
      <stop
         offset="1"
         stop-color="#f9f2e7"
         id="stop4-5" />
    </linearGradient>
    <filter
       id="c-3"
       width="1.15552"
       height="41.735525"
       x="-0.07776"
       y="-20.367763"
       color-interpolation-filters="sRGB">
      <feGaussianBlur
         stdDeviation=".972"
         id="feGaussianBlur5" />
    </filter>
    <clipPath
       id="e">
      <rect
         width="37.042"
         height="37.042"
         x="13.479"
         y="11.479"
         fill="url(#b)"
         stroke-width="2.5"
         rx="8.6000004"
         ry="8.6000004"
         id="rect5"
         style="fill:url(#b-6)" />
    </clipPath>
    <linearGradient
       xlink:href="#a"
       id="b-6"
       x1="8.8149996"
       x2="8.783"
       y1="24.070999"
       y2="-4.8499999"
       gradientTransform="matrix(2.5,0,0,2.5,10.833,8.854)"
       gradientUnits="userSpaceOnUse" />
    <linearGradient
       id="a"
       x1="8.8149996"
       x2="8.783"
       y1="24.070999"
       y2="-4.8499999"
       gradientTransform="matrix(3.5899,0,0,3.5899,1.607,1.605)"
       gradientUnits="userSpaceOnUse">
      <stop
         offset="0"
         stop-color="#00161c"
         id="stop1" />
      <stop
         offset="1"
         stop-color="#206a7c"
         id="stop2-75" />
    </linearGradient>
    <filter
       id="f"
       color-interpolation-filters="sRGB"
       x="-0.017490799"
       y="-0.0352769"
       width="1.0349816"
       height="1.065507">
      <feFlood
         flood-color="#000"
         flood-opacity=".3"
         result="flood"
         id="feFlood3" />
      <feComposite
         in="flood"
         in2="SourceGraphic"
         operator="out"
         result="composite1"
         id="feComposite4" />
      <feGaussianBlur
         in="composite1"
         result="blur"
         stdDeviation=".2"
         id="feGaussianBlur4" />
      <feOffset
         dy="-.15"
         result="offset"
         id="feOffset4" />
      <feComposite
         in="offset"
         in2="SourceGraphic"
         operator="atop"
         result="composite2"
         id="feComposite5" />
    </filter>
    <filter
       id="g"
       width="1.7949203"
       height="1.91471"
       x="-0.39746014"
       y="-0.39748001"
       color-interpolation-filters="sRGB">
      <feFlood
         flood-color="#000"
         flood-opacity=".811"
         result="flood"
         id="feFlood2" />
      <feComposite
         in="flood"
         in2="SourceGraphic"
         operator="in"
         result="composite1"
         id="feComposite2" />
      <feGaussianBlur
         in="composite1"
         result="blur"
         stdDeviation="2.479"
         id="feGaussianBlur2" />
      <feOffset
         dy="2.395"
         result="offset"
         id="feOffset2" />
      <feComposite
         in="SourceGraphic"
         in2="offset"
         result="composite2"
         id="feComposite3" />
    </filter>
  </defs>
  <sodipodi:namedview
     id="namedview5"
     pagecolor="#ffffff"
     bordercolor="#000000"
     borderopacity="0.25"
     inkscape:showpageshadow="2"
     inkscape:pageopacity="0.0"
     inkscape:pagecheckerboard="0"
     inkscape:deskcolor="#d1d1d1"
     inkscape:zoom="8.2643105"
     inkscape:cx="25.228965"
     inkscape:cy="28.496025"
     inkscape:window-width="1920"
     inkscape:window-height="998"
     inkscape:window-x="0"
     inkscape:window-y="0"
     inkscape:window-maximized="1"
     inkscape:current-layer="svg5" />
  <rect
     style="opacity:0.2;stroke-width:0.9823"
     width="55"
     height="55.017544"
     x="3.5"
     y="3.9824562"
     rx="8.25"
     ry="8.2526312"
     id="rect1" />
  <rect
     style="fill:url(#linearGradient10);stroke-width:0.9823"
     width="55"
     height="55.017544"
     x="3.5"
     y="3"
     rx="8.25"
     ry="8.2526312"
     id="rect2" />
  <path
     style="opacity:0.1;fill:#ffffff;stroke-width:0.9823"
     d="M 11.748466,3 C 7.1779652,3 3.5,6.6791384 3.5,11.251097 v 0.982456 c 0,-4.5719585 3.6779652,-8.2510969 8.248466,-8.2510969 h 38.503068 c 4.5705,0 8.248466,3.6791384 8.248466,8.2510969 V 11.251097 C 58.5,6.6791384 54.822034,3 50.251534,3 Z"
     id="path4" />
  <g
     id="g11"
     transform="translate(-0.99999933,-0.99999933)">
    <path
       filter="url(#c)"
       opacity="0.15"
       style="isolation:isolate;paint-order:stroke fill markers;filter:url(#c-3)"
       id="circle5"
       sodipodi:type="arc"
       sodipodi:cx="32"
       sodipodi:cy="32"
       sodipodi:rx="30"
       sodipodi:ry="31"
       sodipodi:start="0"
       sodipodi:end="0.0036946515"
       sodipodi:arc-type="slice"
       d="m 62,32 a 30,31 0 0 1 -2.05e-4,0.114534 L 32,32 Z" />
    <g
       fill="none"
       stroke-width="0.837"
       clip-path="url(#e)"
       filter="url(#f)"
       transform="matrix(1.4735,0,0,1.4735,-14.999,-10.359)"
       id="g9">
      <path
         stroke="#657b83"
         d="m 18.889,13.865 h 2.58 m 0.368,0 h 2.396 m 0.385,0 h 2.138 m 0.351,0 h 0.922 m 0.368,0 h 2.064 m 0.405,0 h 5.418 m 0.369,0 h 4.127 m 0.369,0 h 1.253 m -23.513,2.548 h 4 m 0.465,0 h 1.911 m 0.354,0 h 0.943 m 0.384,0 h 1.76 m 0.369,0 h 1.805 m 0.341,0 h 2.835 m 0.369,0 h 3.74 M 18.89,18.949 h 3.386 m 0.355,0 h 5.576 m 0.342,0 h 2.704 m 0.347,0 h 2.53 m 0.362,0 h 2.155 m 0.347,0 3.389,0.023 M 18.89,21.508 h 4.707 m 0.37,0 h 5.088 m 0.351,0 h 2 m 0.368,0 h 4.759 m 0.32,0 h 3.261 m 0.369,0 h 1.29 m 0.37,0 h 0.713 m -23.967,2.547 h 1.758 m 0.54,0 h 6.505 m -8.803,11.04 h 4 m 0.466,0 h 1.911 m 0.353,0 h 0.944 m 0.383,0 h 1.761 m 0.369,0 h 1.805 m 0.341,0 h 2.835 m -15.168,3.363 h 3.386 m 0.355,0 h 5.576 m 0.342,0 h 2.704 m 9.556,0.069 h 5.523 m -27.442,-5.98 h 4.707 m 0.37,0 h 5.088 m 0.351,0 h 2 m 0.368,0 h 4.759 M 18.889,27.452 h 2.58 m 0.368,0 h 2.396 m 0.385,0 h 2.138 m 0.351,0 h 0.921 m 0.369,0 h 2.064 m 0.405,0 h 5.418 m 0.368,0 H 40.78 M 18.888,30 h 4.344 m 0.342,0 h 4.614 m 0.351,0 h 1.804 m 0.34,0 h 4.341 m 0.348,0 h 4.74 M 18.888,41.04 h 4.06 m 0.436,0 h 1.79 m 0.42,0 h 0.892 m 0.284,0 h 1.763 m 0.234,0 h 9.33 m 0.439,0 h 2.49 m 0.336,0 h 0.629 m -18.477,2.547 h 1.324 m -5.95,0 h 4.238 m 2.05,0 h 3.082 m 0.326,0 h 4.523 m 0.352,0 h 3.068 m 0.31,0 h 0.632 m 0.345,0 h 3.897 m 0.398,0 h 2.04"
         id="path6" />
      <path
         stroke="#268bd2"
         d="m 28.397,13.865 h 2.064 m 3.964,2.548 h 3.74 m -6.944,18.683 h 2.835 m 2.596,-7.643 h 4.128"
         id="path7" />
      <path
         stroke="#859900"
         d="m 18.889,13.865 h 2.58 m 10.304,7.643 h 4.758 m -9.585,13.587 h 1.76 m 3.067,-2.548 h 4.759 M 18.889,27.452 h 2.58 m 0.368,0 h 2.395"
         id="path8" />
      <path
         stroke="#d33682"
         d="m 18.889,18.949 h 3.386 m 19.867,2.559 h 0.714 M 18.889,35.095 h 4 m -4,-7.643 h 2.58 M 28.54,30 h 1.804 m -1.76,13.587 h 4.524"
         id="path9" />
    </g>
    <g
       fill="none"
       stroke="#ffffff"
       stroke-width="4"
       color="#000000"
       filter="url(#g)"
       transform="matrix(1.2194,0,0,1.2194,-4.774,-2.865)"
       id="g10">
      <path
         d="m 31.974,38.279 h 0.947 c 4.432,0 8.027,-3.568 8.027,-8 v -4 c 0,-4.432 -3.595,-8 -8.027,-8 h -0.947 m -4.025,0 h -7.002 v 20 h 6.998"
         style="isolation:auto;mix-blend-mode:normal"
         id="path10" />
    </g>
  </g>
</svg>
