<?xml version="1.0" encoding="UTF-8" standalone="no"?>
<svg
   width="62"
   height="62"
   version="1"
   id="svg5"
   sodipodi:docname="qupzilla.svg"
   inkscape:version="1.4 (e7c3feb100, 2024-10-09)"
   xmlns:inkscape="http://www.inkscape.org/namespaces/inkscape"
   xmlns:sodipodi="http://sodipodi.sourceforge.net/DTD/sodipodi-0.dtd"
   xmlns="http://www.w3.org/2000/svg"
   xmlns:svg="http://www.w3.org/2000/svg">
  <defs
     id="defs5" />
  <sodipodi:namedview
     id="namedview5"
     pagecolor="#ffffff"
     bordercolor="#000000"
     borderopacity="0.25"
     inkscape:showpageshadow="2"
     inkscape:pageopacity="0.0"
     inkscape:pagecheckerboard="0"
     inkscape:deskcolor="#d1d1d1"
     inkscape:zoom="11.6875"
     inkscape:cx="31.957219"
     inkscape:cy="32.941176"
     inkscape:window-width="1920"
     inkscape:window-height="994"
     inkscape:window-x="0"
     inkscape:window-y="0"
     inkscape:window-maximized="1"
     inkscape:current-layer="svg5" />
  <g
     id="g5"
     transform="matrix(1.0003078,0,0,1,-0.500923,-1)">
    <rect
       style="fill:#0286c2;stroke-width:0.98246"
       width="55.017548"
       height="55.017548"
       x="-59.017548"
       y="-58.017548"
       rx="27.508774"
       ry="27.508774"
       transform="matrix(0,-1,-1,0,0,0)"
       id="rect1" />
    <path
       style="opacity:0.2;stroke-width:0.98246"
       d="M 3.0172701,32.161182 C 3.0110865,32.271128 3,32.379664 3,32.49123 3,47.73109 15.26891,60 30.50877,60 45.74863,60 58.01754,47.73109 58.01754,32.49123 c 0,-0.111566 -0.011,-0.220102 -0.01728,-0.330048 C 57.65489,47.096239 45.529803,59.01754 30.508761,59.01754 15.48772,59.01754 3.3626363,47.096239 3.0172611,32.161182 Z"
       id="path1" />
    <path
       style="opacity:0.2;stroke-width:0.98246"
       d="m 20.746404,16.77193 c -3.432562,0 -6.561244,0.225963 -9.809014,1.960502 -4.8978365,8.178831 -4.4742828,20.402962 0,27.44705 C 22.796686,32.71494 35.138184,27.5547 48.211641,27.5547 c 1.796072,0 4.063085,0.805946 5.885405,0.980256 C 48.270496,25.974537 33.031213,16.77193 20.746404,16.77193 Z m 11.770819,17.644535 c -5.988009,0.414492 -11.068882,4.442113 -15.694429,8.822268 5.543866,-2.194987 10.430711,-2.747252 14.774733,-1.370823 0.750778,0.237886 2.990375,1.239782 4.981213,2.2285 5.049283,2.50788 7.547053,3.373049 11.058089,3.821413 4.194332,0.425436 8.219957,-0.63324 12.345631,-1.738959 L 55.242737,44.498708 C 53.031794,43.553742 50.350001,42.120612 46.52645,39.911129 41.349254,37.119369 37.521778,34.068831 32.517223,34.415837 Z"
       id="path2" />
    <path
       style="fill:#ffffff;stroke-width:0.98246"
       d="m 10.844723,45.26316 c -4.4813804,-7.05993 -4.9056044,-19.31116 0,-27.50877 3.25291,-1.73836 6.38655,-1.96492 9.82456,-1.96492 12.30506,0 27.56772,9.22252 33.40351,11.78948 -1.82531,-0.1747 -4.09586,-0.98246 -5.89474,-0.98246 -13.09477,0 -25.45544,5.17185 -37.33333,18.66667 z"
       id="path3" />
    <path
       style="fill:#7ed1f3;stroke-width:0.98246"
       d="M 55.23523,43.57923 C 53.02077,42.63411 50.3367,41.19775 46.50709,38.9833 41.32168,36.18526 37.48618,33.12589 32.47368,33.47368 c -5.9975,0.41543 -11.08642,4.4521 -15.71929,8.84211 5.55264,-2.19992 10.44567,-2.75441 14.79677,-1.37507 0.75197,0.23843 2.99728,1.24411 4.99127,2.23509 5.05729,2.51352 7.55685,3.37867 11.07326,3.82804 4.2002,0.42714 8.23377,-0.63175 12.36677,-1.74079 z"
       id="path4" />
    <path
       style="opacity:0.2;fill:#ffffff;stroke-width:0.98246"
       d="M 30.50877,4 C 15.269132,4 3,16.269132 3,31.50877 3,31.620334 3.011085,31.728874 3.017268,31.838818 3.3626403,16.903968 15.487946,4.982456 30.50877,4.982456 c 15.020824,0 27.146134,11.921512 27.491502,26.856362 0.0064,-0.109944 0.01728,-0.218484 0.01728,-0.330048 C 58.01754,16.269132 45.748418,4 30.50877,4 Z"
       id="path5" />
  </g>
</svg>
