<?xml version="1.0" encoding="UTF-8" standalone="no"?>
<!-- Created with Inkscape (http://www.inkscape.org/) -->

<svg
   width="62"
   height="62"
   viewBox="0 0 62 62"
   version="1.1"
   id="svg1"
   inkscape:version="1.4 (e7c3feb100, 2024-10-09)"
   sodipodi:docname="radeon-profile.svg"
   xmlns:inkscape="http://www.inkscape.org/namespaces/inkscape"
   xmlns:sodipodi="http://sodipodi.sourceforge.net/DTD/sodipodi-0.dtd"
   xmlns:xlink="http://www.w3.org/1999/xlink"
   xmlns="http://www.w3.org/2000/svg"
   xmlns:svg="http://www.w3.org/2000/svg">
  <sodipodi:namedview
     id="namedview1"
     pagecolor="#ffffff"
     bordercolor="#000000"
     borderopacity="0.25"
     inkscape:showpageshadow="2"
     inkscape:pageopacity="0.0"
     inkscape:pagecheckerboard="0"
     inkscape:deskcolor="#d1d1d1"
     inkscape:document-units="px"
     inkscape:zoom="10.74725"
     inkscape:cx="29.868106"
     inkscape:cy="46.709623"
     inkscape:window-width="1920"
     inkscape:window-height="998"
     inkscape:window-x="0"
     inkscape:window-y="0"
     inkscape:window-maximized="1"
     inkscape:current-layer="layer1" />
  <defs
     id="defs1">
    <linearGradient
       id="linearGradient1"
       inkscape:collect="always">
      <stop
         style="stop-color:#ff8080;stop-opacity:1"
         offset="0"
         id="stop1" />
      <stop
         style="stop-color:#c83771;stop-opacity:1"
         offset="1"
         id="stop2" />
    </linearGradient>
    <radialGradient
       id="paint664_radial_890_11"
       cx="0"
       cy="0"
       r="1"
       gradientUnits="userSpaceOnUse"
       gradientTransform="matrix(-16.000099,-9.999913,9.999913,-16.000099,583,171)">
      <stop
         offset="0.42141"
         stop-color="#B7C6CD"
         id="stop2071" />
      <stop
         offset="1"
         stop-color="#EFF2F6"
         id="stop2072" />
    </radialGradient>
    <linearGradient
       id="paint665_linear_890_11"
       x1="605"
       y1="180"
       x2="601.466"
       y2="162.72301"
       gradientUnits="userSpaceOnUse">
      <stop
         stop-color="#5200FF"
         id="stop2073" />
      <stop
         offset="1"
         stop-color="#0085FF"
         id="stop2074" />
    </linearGradient>
    <linearGradient
       id="paint666_linear_890_11"
       x1="567"
       y1="181"
       x2="562.11798"
       y2="174.183"
       gradientUnits="userSpaceOnUse">
      <stop
         stop-color="#5200FF"
         id="stop2075" />
      <stop
         offset="0.670391"
         stop-color="#0085FF"
         id="stop2076" />
    </linearGradient>
    <linearGradient
       id="paint667_linear_890_11"
       x1="605"
       y1="180"
       x2="597.32001"
       y2="174.24001"
       gradientUnits="userSpaceOnUse">
      <stop
         stop-color="#5200FF"
         id="stop2077" />
      <stop
         offset="1"
         stop-color="#0085FF"
         id="stop2078" />
    </linearGradient>
    <linearGradient
       id="paint668_linear_890_11"
       x1="567"
       y1="180"
       x2="561.23999"
       y2="172.32001"
       gradientUnits="userSpaceOnUse">
      <stop
         stop-color="#5200FF"
         id="stop2079" />
      <stop
         offset="1"
         stop-color="#0085FF"
         id="stop2080" />
    </linearGradient>
    <linearGradient
       id="paint669_linear_890_11"
       x1="607"
       y1="179"
       x2="602.50598"
       y2="171.80901"
       gradientUnits="userSpaceOnUse">
      <stop
         stop-color="#5200FF"
         id="stop2081" />
      <stop
         offset="1"
         stop-color="#0085FF"
         id="stop2082" />
    </linearGradient>
    <linearGradient
       id="paint670_linear_890_11"
       x1="607"
       y1="217"
       x2="568.82599"
       y2="170.01601"
       gradientUnits="userSpaceOnUse">
      <stop
         stop-color="#5200FF"
         id="stop2083" />
      <stop
         offset="1"
         stop-color="#0085FF"
         id="stop2084" />
    </linearGradient>
    <radialGradient
       id="paint671_radial_890_11"
       cx="0"
       cy="0"
       r="1"
       gradientUnits="userSpaceOnUse"
       gradientTransform="matrix(0,20,-16,0,583,187)">
      <stop
         offset="0.869716"
         stop-color="#EFF2F6"
         id="stop2085" />
      <stop
         offset="1"
         stop-color="#B7C6CD"
         id="stop2086" />
    </radialGradient>
    <linearGradient
       id="paint451_linear_890_11"
       x1="55"
       y1="461"
       x2="111"
       y2="517"
       gradientUnits="userSpaceOnUse"
       gradientTransform="translate(-53,-457)">
      <stop
         offset="0.303571"
         stop-color="#EFF2F6"
         id="stop1644" />
      <stop
         offset="1"
         stop-color="#B7C6CD"
         id="stop1645" />
    </linearGradient>
    <linearGradient
       id="paint452_linear_890_11"
       x1="107"
       y1="513"
       x2="67.655701"
       y2="465.78699"
       gradientUnits="userSpaceOnUse"
       gradientTransform="matrix(1,0,0,1.2,-53,-559.6)">
      <stop
         stop-color="#2E2E41"
         id="stop1646" />
      <stop
         offset="1"
         stop-color="#566C80"
         id="stop1647" />
    </linearGradient>
    <linearGradient
       id="paint453_linear_890_11"
       x1="61"
       y1="465"
       x2="65"
       y2="469"
       gradientUnits="userSpaceOnUse"
       gradientTransform="translate(-53,-457)">
      <stop
         offset="0.236371"
         stop-color="#F15700"
         id="stop1648" />
      <stop
         offset="0.855848"
         stop-color="#FF0000"
         id="stop1649" />
    </linearGradient>
    <linearGradient
       id="paint454_linear_890_11"
       x1="71"
       y1="469"
       x2="67"
       y2="465"
       gradientUnits="userSpaceOnUse"
       gradientTransform="translate(-53,-457)">
      <stop
         stop-color="#FF7E07"
         id="stop1650" />
      <stop
         offset="1"
         stop-color="#FFE607"
         id="stop1651" />
    </linearGradient>
    <linearGradient
       id="paint455_linear_890_11"
       x1="77"
       y1="469"
       x2="73"
       y2="465"
       gradientUnits="userSpaceOnUse"
       gradientTransform="translate(-53,-457)">
      <stop
         stop-color="#089953"
         id="stop1652" />
      <stop
         offset="1"
         stop-color="#16D96F"
         id="stop1653" />
    </linearGradient>
    <linearGradient
       id="paint456_linear_890_11"
       x1="80"
       y1="486"
       x2="80"
       y2="492"
       gradientUnits="userSpaceOnUse"
       gradientTransform="translate(-53,-457)">
      <stop
         offset="0.189495"
         stop-color="#EFF2F6"
         id="stop1654" />
      <stop
         offset="0.850463"
         stop-color="#B7C6CD"
         id="stop1655" />
    </linearGradient>
    <linearGradient
       id="paint457_linear_890_11"
       x1="82"
       y1="494"
       x2="82"
       y2="500"
       gradientUnits="userSpaceOnUse">
      <stop
         offset="0.189495"
         stop-color="#EFF2F6"
         id="stop1656" />
      <stop
         offset="0.850463"
         stop-color="#B7C6CD"
         id="stop1657" />
    </linearGradient>
    <linearGradient
       inkscape:collect="always"
       xlink:href="#linearGradient1"
       id="linearGradient2"
       x1="13.302659"
       y1="48.025913"
       x2="47.927174"
       y2="14.003395"
       gradientUnits="userSpaceOnUse" />
  </defs>
  <g
     inkscape:label="Layer 1"
     inkscape:groupmode="layer"
     id="layer1">
    <path
       d="M 2,10 C 2,6.686 4.6863,4 8,4 h 44 c 3.314,0 6,2.686 6,6 v 44 c 0,3.314 -2.686,6 -6,6 H 8 C 4.6863,60 2,57.314 2,54 Z"
       id="path441"
       style="fill:#6f7c91;fill-opacity:1" />
    <path
       d="M 6,10.4 C 6,9.074 6.8954,8 8,8 h 44 c 1.105,0 2,1.074 2,2.4 V 51.2 C 54,53.8508 52.209,56 50,56 H 10 C 7.7909,56 6,53.8508 6,51.2 Z"
       id="path442"
       style="fill:url(#paint452_linear_890_11);stroke-width:1.09545" />
    <path
       style="opacity:0.2;stroke-width:1.00068"
       d="m 12.18722,14.003596 9.792551,9.908127 h 15.967633 v 15.991712 l 9.979771,9.971342 V 14.003395 Z M 21.979771,26.231573 12,36.014677 V 50 H 26.720162 L 36.574187,39.966047 H 21.979771 Z"
       id="path3" />
    <path
       style="fill:url(#linearGradient2);stroke-width:1.00068"
       d="m 12.18722,13.000202 9.792551,9.908126 H 37.947404 V 38.90004 l 9.979771,9.971342 V 13 Z M 21.979771,25.228177 12,35.011282 V 48.996605 H 26.720162 L 36.574187,38.962652 H 21.979771 Z"
       id="path4" />
    <ellipse
       style="fill:#8561c5;stroke-width:0.815341"
       cx="40"
       cy="42.090908"
       id="circle4"
       rx="12.999998"
       ry="13.090908" />
    <path
       style="fill:#ffffff;stroke-width:0.815341"
       d="m 38.375001,35.54546 -0.143331,1.724064 a 5.1072119,5.142927 0 0 0 -1.492593,0.869334 l -1.556078,-0.737834 -1.625007,2.834353 1.412792,0.988028 a 5.1072119,5.142927 0 0 0 -0.07801,0.867484 5.1072119,5.142927 0 0 0 0.0742,0.871159 l -1.40918,0.984368 1.624995,2.834342 1.552461,-0.736004 a 5.1072119,5.142927 0 0 0 1.496221,0.863841 l 0.14332,1.727671 h 3.250003 l 0.143336,-1.724067 a 5.1072119,5.142927 0 0 0 1.492636,-0.869344 l 1.556063,0.737844 1.625002,-2.83435 -1.412808,-0.98803 a 5.1072119,5.142927 0 0 0 0.07801,-0.867498 5.1072119,5.142927 0 0 0 -0.07421,-0.871145 l 1.409179,-0.984369 -1.624994,-2.834348 -1.552462,0.736001 A 5.1072119,5.142927 0 0 0 41.767919,37.272961 L 41.624925,35.54496 H 38.374923 Z M 40,40.220869 A 1.8572122,1.8701998 0 0 1 41.857378,42.091236 1.8572122,1.8701998 0 0 1 40,43.961603 1.8572122,1.8701998 0 0 1 38.142622,42.091236 1.8572122,1.8701998 0 0 1 40,40.220869 Z"
       id="path5" />
    <path
       style="opacity:0.2;fill-rule:evenodd;stroke-width:0.815341"
       d="m 27.020631,42.501598 a 13,13.090909 0 0 0 -0.02063,0.407494 13,13.090909 0 0 0 13,13.09091 13,13.090909 0 0 0 12.999992,-13.09091 13,13.090909 0 0 0 -0.01427,-0.402703 A 13,13.090909 0 0 1 40,55.181814 13,13.090909 0 0 1 27.020631,42.501598 Z"
       id="path6" />
  </g>
</svg>
