<?xml version="1.0" encoding="UTF-8" standalone="no"?>
<svg
   clip-rule="evenodd"
   fill-rule="evenodd"
   stroke-linejoin="round"
   stroke-miterlimit="2"
   viewBox="0 0 62 62"
   version="1.1"
   id="svg3"
   sodipodi:docname="razercommander.svg"
   width="62"
   height="62"
   inkscape:version="1.4 (e7c3feb100, 2024-10-09)"
   xmlns:inkscape="http://www.inkscape.org/namespaces/inkscape"
   xmlns:sodipodi="http://sodipodi.sourceforge.net/DTD/sodipodi-0.dtd"
   xmlns:xlink="http://www.w3.org/1999/xlink"
   xmlns="http://www.w3.org/2000/svg"
   xmlns:svg="http://www.w3.org/2000/svg">
  <defs
     id="defs3">
    <linearGradient
       id="linearGradient6">
      <stop
         offset="0"
         style="stop-color:#dbdbdb;stop-opacity:0;"
         id="stop5" />
      <stop
         offset="1"
         style="stop-color:#000000;stop-opacity:1;"
         id="stop6" />
    </linearGradient>
    <linearGradient
       id="linearGradient3"
       inkscape:collect="always">
      <stop
         style="stop-color:#354964;stop-opacity:1;"
         offset="0"
         id="stop3" />
      <stop
         style="stop-color:#263448;stop-opacity:1;"
         offset="1"
         id="stop4" />
    </linearGradient>
    <filter
       id="b-3-36"
       width="1.2393739"
       height="1.1966286"
       x="-0.11968695"
       y="-0.098314282"
       color-interpolation-filters="sRGB">
      <feGaussianBlur
         stdDeviation="1.147"
         id="feGaussianBlur7-6" />
    </filter>
    <filter
       id="b-3-36-6"
       width="1.2393739"
       height="1.1966286"
       x="-0.11968695"
       y="-0.098314282"
       color-interpolation-filters="sRGB">
      <feGaussianBlur
         stdDeviation="1.147"
         id="feGaussianBlur7-6-7" />
    </filter>
    <linearGradient
       inkscape:collect="always"
       xlink:href="#linearGradient3"
       id="linearGradient4"
       x1="31.996025"
       y1="5.0983038"
       x2="32.182014"
       y2="58.017544"
       gradientUnits="userSpaceOnUse" />
    <linearGradient
       id="linearGradient4306">
      <stop
         offset="0"
         style="stop-color:#000000;stop-opacity:0;"
         id="stop12" />
      <stop
         offset="1"
         style="stop-color:#000000;stop-opacity:1;"
         id="stop14" />
    </linearGradient>
    <radialGradient
       xlink:href="#linearGradient4324"
       id="radialGradient4340-3"
       cx="-12"
       cy="12"
       fx="-12"
       fy="12"
       r="4"
       gradientUnits="userSpaceOnUse"
       gradientTransform="matrix(1.235291,0,0,1.235291,-1.3530054,1.3530246)" />
    <linearGradient
       id="linearGradient4324">
      <stop
         style="stop-color:#eff1f1;stop-opacity:1"
         offset="0"
         id="stop7" />
      <stop
         style="stop-color:#ececec;stop-opacity:1;"
         offset="1"
         id="stop9" />
    </linearGradient>
    <linearGradient
       id="linearGradient4167">
      <stop
         style="stop-color:#ffffff;stop-opacity:0"
         offset="0"
         id="stop2-3" />
      <stop
         style="stop-color:#ffffff;stop-opacity:1"
         offset="1"
         id="stop4-6" />
    </linearGradient>
    <radialGradient
       xlink:href="#linearGradient4324"
       id="radialGradient4188-1"
       gradientUnits="userSpaceOnUse"
       cx="-12"
       cy="12"
       fx="-12"
       fy="12"
       r="4"
       gradientTransform="matrix(1.235291,0,0,1.235291,-16.176495,16.176515)" />
    <radialGradient
       xlink:href="#linearGradient4324"
       id="radialGradient4202-2"
       gradientUnits="userSpaceOnUse"
       cx="-12"
       cy="12"
       fx="-12"
       fy="12"
       r="4"
       gradientTransform="matrix(1.235291,0,0,1.235291,-30.999989,31.000009)" />
    <linearGradient
       xlink:href="#linearGradient4816"
       id="linearGradient4503-0-3"
       y1="37"
       y2="4"
       x2="0"
       gradientUnits="userSpaceOnUse"
       gradientTransform="matrix(1.0499998,0,0,1.0499998,9.2502391,54.800003)" />
    <linearGradient
       id="linearGradient4816">
      <stop
         style="stop-color:#da4453"
         id="stop1439" />
      <stop
         offset="1"
         style="stop-color:#ff7336"
         id="stop1441" />
    </linearGradient>
    <linearGradient
       id="linearGradient4279">
      <stop
         id="stop1432" />
      <stop
         offset="1"
         style="stop-opacity:0"
         id="stop1434" />
    </linearGradient>
    <linearGradient
       id="c"
       y1="513.38"
       x1="399.98999"
       y2="537.38"
       x2="424.98999"
       gradientUnits="userSpaceOnUse"
       gradientTransform="translate(-464.04842,-560.44526)">
      <stop
         stop-color="#292c2f"
         id="stop12-3" />
      <stop
         offset="1"
         stop-opacity="0"
         id="stop14-6" />
    </linearGradient>
    <linearGradient
       id="b"
       y1="35"
       x1="42"
       y2="12"
       x2="22"
       gradientUnits="userSpaceOnUse"
       gradientTransform="translate(-75.064419,-59.059262)">
      <stop
         stop-color="#197cf1"
         id="stop7-7" />
      <stop
         offset="1"
         stop-color="#20bcfa"
         id="stop9-5" />
    </linearGradient>
    <linearGradient
       id="a-3"
       y1="35"
       x1="23"
       y2="13"
       x2="5"
       gradientUnits="userSpaceOnUse"
       gradientTransform="translate(-79.064419,-59.059262)">
      <stop
         stop-color="#c61423"
         id="stop2-5" />
      <stop
         offset="1"
         stop-color="#dc2b41"
         id="stop4-62" />
    </linearGradient>
  </defs>
  <sodipodi:namedview
     id="namedview3"
     pagecolor="#ffffff"
     bordercolor="#000000"
     borderopacity="0.25"
     inkscape:showpageshadow="2"
     inkscape:pageopacity="0.0"
     inkscape:pagecheckerboard="0"
     inkscape:deskcolor="#d1d1d1"
     inkscape:zoom="5.5095405"
     inkscape:cx="0.36300668"
     inkscape:cy="63.707672"
     inkscape:window-width="1920"
     inkscape:window-height="998"
     inkscape:window-x="0"
     inkscape:window-y="0"
     inkscape:window-maximized="1"
     inkscape:current-layer="svg3" />
  <linearGradient
     id="a"
     x2="1"
     gradientTransform="matrix(0,-43.53155,43.53155,0,1192.407,51.589413)"
     gradientUnits="userSpaceOnUse">
    <stop
       stop-color="#161616"
       offset="0"
       id="stop1" />
    <stop
       stop-color="#343434"
       offset="1"
       id="stop2" />
  </linearGradient>
  <g
     id="g3"
     transform="translate(3.487626,-1.843205)" />
  <rect
     style="opacity:0.2;stroke-width:0.9823"
     width="55"
     height="55.017544"
     x="3.5"
     y="3.9824562"
     rx="8.25"
     ry="8.2526312"
     id="rect1-3" />
  <rect
     style="fill:url(#linearGradient4);stroke-width:0.9823"
     width="55"
     height="55.017544"
     x="3.5"
     y="3"
     rx="8.25"
     ry="8.2526312"
     id="rect2-5" />
  <path
     style="opacity:0.1;fill:#ffffff;stroke-width:0.9823"
     d="M 11.748466,3 C 7.1779651,3 3.4999999,6.6791384 3.4999999,11.251097 v 0.982456 c 0,-4.5719585 3.6779652,-8.2510968 8.2484661,-8.2510968 h 38.503068 c 4.5705,0 8.248466,3.6791383 8.248466,8.2510968 V 11.251097 C 58.5,6.6791384 54.822034,3 50.251534,3 Z"
     id="path4-6" />
  <path
     d="m 51.348876,10.000759 c -0.07704,-8.264e-4 -0.229954,0.0051 -0.393524,0.01444 -0.21809,0.01301 -0.409958,0.02345 -0.426375,0.02345 -0.01664,0 -0.09628,0.09471 -0.177576,0.210639 -0.08122,0.115842 -0.165821,0.220295 -0.188002,0.232116 -0.02201,0.01185 -0.162233,0.06655 -0.311168,0.121732 -0.250706,0.09282 -0.277943,0.0984 -0.366338,0.0763 -0.120548,-0.03035 -0.297424,-0.0205 -1.825383,0.09975 l -0.709233,0.05596 -0.35154,0.332888 c -0.193337,0.183081 -0.363397,0.347114 -0.377954,0.364547 -0.01487,0.01736 -0.123596,0.06351 -0.242259,0.102347 -0.42797,0.140056 -0.78205,0.345104 -1.031756,0.597484 -0.176211,0.178077 -0.234393,0.272562 -0.376917,0.612075 -0.05933,0.141279 -0.1122,0.261191 -0.11753,0.266505 -0.0055,0.0058 -0.09358,-0.04443 -0.196011,-0.110692 -0.554496,-0.358201 -1.093208,-0.524244 -1.701507,-0.524392 -0.854113,-2.02e-4 -1.617306,0.229808 -2.193335,0.661012 -0.558183,0.417823 -1.015254,0.93912 -1.275419,1.454725 -0.09868,0.19558 -0.20189,0.600518 -0.251133,0.985549 -0.05131,0.400747 -0.0357,1.064291 0.03242,1.377748 0.115726,0.532985 0.558893,1.513355 1.054768,2.333523 0.587463,0.971656 1.067882,1.584994 2.229874,2.846899 0.449806,0.488477 0.546858,0.589931 1.483801,1.551097 0.731009,0.749891 0.969457,1.029522 1.274989,1.495195 0.664568,1.012899 1.010653,1.979386 0.908339,2.536724 -0.05321,0.28998 -0.246485,0.583679 -0.517466,0.786489 -0.182417,0.136518 -0.591851,0.341614 -0.831691,0.416647 -0.202432,0.06337 -0.453774,0.113177 -0.473186,0.09395 -0.007,-0.0076 0.02379,-0.159758 0.06895,-0.339234 0.146594,-0.584442 0.201495,-1.107219 0.169452,-1.612811 -0.05519,-0.871522 -0.402123,-1.746082 -0.911472,-2.297819 -0.401471,-0.434888 -1.127585,-0.919612 -1.659208,-1.107613 -0.30868,-0.109162 -0.478086,-0.133751 -0.83282,-0.120749 -0.383904,0.01419 -0.591553,0.06115 -0.867444,0.19706 -0.353742,0.17422 -0.526407,0.413759 -0.52478,0.728165 7.42e-4,0.141365 0.01085,0.185471 0.06609,0.287858 0.08283,0.153462 0.229487,0.300987 0.353416,0.355492 0.05307,0.02346 0.195317,0.05254 0.316183,0.065 0.30507,0.03117 0.538236,0.0951 0.798884,0.219376 0.256043,0.122013 0.433399,0.249217 0.663725,0.476118 0.280359,0.276155 0.434992,0.552176 0.521167,0.93024 0.04928,0.215697 0.04919,0.68405 0,0.882906 -0.0494,0.199671 -0.162211,0.486702 -0.219853,0.55962 l -0.0467,0.05901 -0.427413,-0.417177 c -0.564678,-0.551154 -1.33844,-1.275966 -1.556978,-1.458428 -0.780868,-0.651999 -1.579167,-1.111072 -2.219694,-1.276553 -0.1039,-0.02681 -0.200091,-0.05973 -0.213833,-0.07305 -0.01417,-0.01333 -0.03704,-0.103873 -0.05197,-0.201346 -0.123223,-0.810675 -0.482197,-1.743912 -0.923384,-2.400727 -0.260363,-0.387648 -0.484684,-0.651397 -0.936472,-1.100995 -0.661781,-0.658579 -1.285675,-1.122183 -1.940194,-1.441717 l -0.335482,-0.163795 -0.06337,-0.22681 c -0.191439,-0.685491 -0.55705,-1.423762 -0.989731,-1.998349 -0.203692,-0.270502 -0.636082,-0.71584 -0.893114,-0.919853 -0.683531,-0.542539 -1.431448,-0.858148 -2.370744,-1.00043 -0.387434,-0.0587 -1.176081,-0.07976 -1.564193,-0.04178 -0.786295,0.07695 -1.450375,0.307552 -1.938487,0.673296 -0.980409,0.734591 -1.86602,1.992947 -2.263158,3.215733 -0.317197,0.976681 -1.402421,5.375286 -1.960634,7.946912 -0.07167,0.330173 -0.139727,0.47929 -0.356835,0.781742 -0.21063,0.29337 -0.39546,0.485777 -0.56467,0.58779 -0.112932,0.06813 -0.141749,0.07563 -0.28452,0.07433 -0.191925,-0.0022 -0.378971,-0.07671 -0.454498,-0.182187 -0.13399,-0.187158 -0.192947,-0.534168 -0.173414,-1.021456 0.01334,-0.336094 0.04031,-0.519657 0.183793,-1.253079 0.154562,-0.79058 0.01499,-1.369543 -0.444339,-1.845515 -0.224801,-0.232847 -0.576063,-0.437569 -0.905119,-0.527477 -0.208746,-0.05703 -0.621401,-0.05246 -0.851791,0.01 -0.626425,0.168413 -1.129384,0.546528 -1.464044,1.10065 -0.05888,0.09754 -0.129765,0.232074 -0.157559,0.299075 -0.08517,0.205084 -0.08779,0.204914 -0.233962,-0.01484 -0.07144,-0.1075 -0.200668,-0.2653 -0.287113,-0.350661 -0.157036,-0.155012 -0.157557,-0.155346 -0.457893,-0.252243 -0.165406,-0.05326 -0.376356,-0.13464 -0.468838,-0.180625 -0.228085,-0.113463 -0.411506,-0.170535 -0.641239,-0.199398 -0.106092,-0.01334 -0.429043,-0.06299 -0.717634,-0.110394 -0.500744,-0.08232 -0.535556,-0.09137 -0.762061,-0.196581 -0.261775,-0.121569 -0.237141,-0.09643 -0.506543,-0.515921 -0.169889,-0.264517 -0.295368,-0.375381 -0.473676,-0.418263 -0.33895,-0.0816 -0.75659,0.236013 -0.789821,0.60052 -0.011,0.120109 -0.01902,0.137488 -0.07722,0.167401 -0.114716,0.05902 -0.246064,0.194026 -0.299479,0.307876 -0.1436163,0.306146 0.0011,0.726935 0.294751,0.856086 0.07521,0.03314 0.655706,0.129797 0.779054,0.129797 0.0158,0 0.127244,0.073 0.247568,0.16209 0.214589,0.158971 0.222373,0.167997 0.407573,0.470794 0.103877,0.169779 0.240745,0.369627 0.304245,0.444124 0.06351,0.07442 0.136047,0.17563 0.161221,0.22472 0.07804,0.152454 0.306703,0.436577 0.436729,0.543053 0.06841,0.05597 0.167298,0.159967 0.220034,0.231255 0.267844,0.361873 0.584398,0.516768 1.192205,0.583337 l 0.253661,0.02762 0.180672,0.129737 c 0.251697,0.180752 0.583305,0.340278 0.848899,0.408443 0.300252,0.07713 0.626868,0.06656 0.95281,-0.03035 0.119778,-0.03563 0.221772,-0.05846 0.226593,-0.05065 0.0051,0.0084 0.01977,0.132838 0.03354,0.277836 0.08869,0.947951 0.481772,1.721741 1.18371,2.330199 0.617008,0.534802 1.091942,0.753354 1.924489,0.885574 0.296017,0.04706 0.876982,0.05246 1.135954,0.0108 0.474622,-0.07667 1.0577,-0.340839 1.525126,-0.69116 0.551385,-0.413262 1.075331,-1.129557 1.627018,-2.224308 0.578341,-1.147669 0.884691,-2.070274 1.291123,-3.888161 0.20499,-0.916869 0.402988,-1.944712 0.523776,-2.719005 0.04308,-0.275912 0.108922,-0.625537 0.146371,-0.776972 0.197092,-0.796858 0.547029,-1.522106 1.033727,-2.142441 0.181023,-0.230734 0.550885,-0.581993 0.693342,-0.658408 0.324155,-0.173886 0.781566,-0.167415 1.185854,0.01664 0.154738,0.0704 0.917332,0.631796 0.910469,0.67019 -0.0027,0.01539 -0.130377,0.07836 -0.283492,0.139561 -0.659586,0.263305 -1.208547,0.615405 -1.635103,1.048771 -0.479401,0.487046 -0.856343,1.08935 -1.057214,1.689253 -0.113284,0.338377 -0.139789,0.52432 -0.139394,0.977504 3.27e-4,0.540719 0.06744,0.944249 0.223539,1.346897 0.217216,0.560277 0.683566,1.025364 1.211464,1.208132 0.313766,0.108592 0.534509,0.07496 0.72481,-0.110252 0.169271,-0.164833 0.248423,-0.378483 0.217117,-0.586141 -0.0089,-0.05574 -0.06372,-0.182375 -0.128517,-0.294573 -0.216399,-0.374513 -0.32698,-0.713906 -0.346637,-1.064195 -0.01902,-0.341502 0.08018,-0.843945 0.226819,-1.147256 0.09064,-0.187636 0.314447,-0.438975 0.543437,-0.610551 0.286817,-0.214857 0.722611,-0.400759 1.021536,-0.435697 l 0.125123,-0.01478 -0.01539,0.206966 c -0.01622,0.213168 -0.02741,0.282188 -0.19977,1.240017 -0.05604,0.310738 -0.116553,0.679596 -0.134676,0.819737 -0.145369,1.123588 -0.07709,2.227009 0.179126,2.890935 0.0065,0.01581 -0.05411,0.07331 -0.140928,0.134059 -0.814932,0.571153 -1.545436,1.425342 -1.988739,2.325408 -0.51244,1.04043 -0.824557,2.253195 -0.824557,3.203783 v 0.279637 l -0.172558,0.141451 c -0.241936,0.198357 -0.586582,0.547358 -0.79476,0.804801 -0.821164,1.015564 -1.227973,2.178691 -1.185973,3.390985 0.01906,0.552321 0.08985,0.92037 0.289161,1.506522 0.365544,1.074633 0.91313,1.89917 1.607951,2.421283 0.207559,0.155964 0.885092,0.486643 1.255548,0.612857 0.780005,0.265695 1.584219,0.387652 2.366906,0.358914 0.364969,-0.01334 0.410189,-0.02131 3.006927,-0.513443 1.450014,-0.27495 3.292921,-0.624203 4.095331,-0.776212 0.802396,-0.152017 1.559144,-0.297927 1.68165,-0.324217 0.552632,-0.11867 1.1839,0.0148 1.541662,0.326199 0.18057,0.157114 0.280824,0.412103 0.242295,0.616306 -0.03105,0.164064 -0.317627,0.407891 -0.667554,0.567765 -0.32116,0.146759 -0.624784,0.232731 -1.250054,0.354163 -0.480693,0.09342 -0.566795,0.119527 -0.812982,0.247153 -0.488089,0.253048 -0.882383,0.709093 -1.005315,1.162709 -0.06166,0.227708 -0.06935,0.704411 -0.01485,0.906125 0.166236,0.611711 0.615875,1.113841 1.242567,1.38774 0.343569,0.150162 0.826083,0.238362 1.139482,0.208232 0.08386,-0.0084 0.153865,-0.0057 0.161041,0.0065 0.0069,0.01098 -0.03633,0.10167 -0.09628,0.200876 -0.05992,0.09921 -0.141759,0.257479 -0.181803,0.351751 -0.08566,0.201486 -0.08782,0.242462 -0.04827,0.92466 0.02741,0.471045 0.06473,0.68943 0.159936,0.933695 0.02454,0.06267 0.05553,0.202272 0.06912,0.310145 0.04298,0.341214 0.08153,0.526457 0.13894,0.667897 l 0.05573,0.13731 -0.0267,0.350963 -0.0267,0.350963 -0.181583,0.286098 c -0.196802,0.310101 -0.250088,0.431444 -0.250088,0.568803 0,0.160379 0.04645,0.263721 0.177321,0.39451 0.207302,0.207244 0.461856,0.297003 0.688739,0.242825 0.104151,-0.02476 0.119334,-0.02292 0.193081,0.02207 0.04408,0.02695 0.121928,0.06225 0.173095,0.07808 v 0 c 0.170974,0.0531 0.3221,0.03994 0.494544,-0.0428 0.190483,-0.09141 0.311132,-0.205814 0.38391,-0.363951 0.07976,-0.173273 0.06306,-0.357084 -0.06182,-0.68026 l -0.09412,-0.24372 0.06299,-0.409871 c 0.06208,-0.403839 0.06421,-0.411135 0.143407,-0.498465 0.121081,-0.133543 0.173095,-0.215713 0.242765,-0.383731 0.035,-0.08406 0.128392,-0.237633 0.207952,-0.341352 0.166753,-0.217348 0.330214,-0.528478 0.397396,-0.756282 0.02562,-0.08687 0.102208,-0.301357 0.170064,-0.476411 l 0.123342,-0.318306 -0.01191,-0.214009 c -0.009,-0.166545 -0.03069,-0.269783 -0.09596,-0.465729 l -0.08413,-0.251652 0.03759,-0.312602 c 0.04319,-0.359582 0.04606,-0.526325 0.01368,-0.789467 -0.04909,-0.397412 -0.173708,-0.697514 -0.409197,-0.985299 -0.07977,-0.09751 -0.145143,-0.192186 -0.145143,-0.210433 -8e-5,-0.01886 0.08608,-0.08087 0.200662,-0.144052 0.406551,-0.224256 0.856895,-0.607961 1.148564,-0.978611 0.441043,-0.560552 0.734223,-1.629505 0.657248,-2.396332 -0.06613,-0.658714 -0.262895,-1.254533 -0.56645,-1.714977 -0.334003,-0.506614 -0.859897,-0.956845 -1.475016,-1.262738 -0.493289,-0.245283 -0.982717,-0.365288 -1.89325,-0.464212 -0.357565,-0.03888 -1.746691,-0.03893 -2.14939,0 -1.237272,0.119314 -2.783032,0.426828 -4.421297,0.879622 -0.281767,0.07779 -0.648962,0.171719 -0.815987,0.208554 -0.337537,0.07442 -2.19897,0.316609 -2.419024,0.314657 -0.151024,-0.0014 -0.626723,-0.073 -0.841003,-0.126583 C 29.2768,38.426731 28.898222,38.2533 28.732534,38.08411 c -0.120253,-0.122757 -0.289638,-0.442106 -0.340076,-0.641095 -0.01729,-0.06788 -0.03845,-0.199766 -0.04732,-0.293197 -0.01485,-0.159856 -0.0088,-0.200555 0.114137,-0.69086 0.07161,-0.28656 0.139085,-0.520992 0.149985,-0.520992 0.01082,0 0.106293,0.08162 0.212062,0.181224 0.862842,0.795695 1.951908,1.151683 2.850325,1.22866 1.211002,0.03623 2.774064,-0.511601 3.288338,-1.455229 0.326645,-0.629045 0.331584,-1.261233 0.01227,-1.558406 C 34.845803,34.216571 34.697307,34.1656 34.48115,34.1656 c -0.256764,0 -0.440372,0.09853 -0.571547,0.306833 -0.152421,0.242 -0.197416,0.30048 -0.338589,0.439724 -0.248536,0.245138 -0.648533,0.457065 -1.060343,0.561879 -0.261742,0.06657 -0.643447,0.07176 -0.857529,0.011 -0.20112,-0.05661 -0.534898,-0.214764 -0.698869,-0.331149 -0.230568,-0.163634 -0.592636,-0.582401 -0.601469,-0.695631 -0.003,-0.03997 0.618011,-0.233374 1.442164,-0.448941 0.839161,-0.219478 1.387351,-0.417164 2.0011,-0.721501 0.588188,-0.291678 0.952057,-0.539956 1.333711,-0.910026 0.129706,-0.125766 0.246517,-0.228661 0.259611,-0.228661 0.01332,0 0.08784,0.02846 0.166184,0.06361 0.383453,0.171141 1.04615,0.365953 1.510027,0.443917 0.62187,0.104521 1.115265,0.111441 1.716407,0.02411 1.10888,-0.161116 2.038384,-0.460494 2.812426,-0.905794 0.108155,-0.06219 0.210549,-0.113112 0.227501,-0.113112 0.01703,0 0.179085,0.04888 0.360202,0.108854 0.589396,0.194874 1.089565,0.283992 1.710279,0.304669 0.88959,0.0296 1.694151,-0.136705 2.434465,-0.503251 0.53989,-0.2673 0.874648,-0.51043 1.290343,-0.937254 0.748371,-0.76849 1.286136,-1.650596 1.499543,-2.459671 0.09983,-0.37844 0.120823,-0.613365 0.09064,-1.014304 -0.09832,-1.306165 -0.577868,-2.542591 -1.41078,-3.637738 -0.710041,-0.93358 -2.351623,-2.822362 -4.315063,-4.964799 -0.707368,-0.771857 -0.690038,-0.752333 -0.956797,-1.075982 -0.34263,-0.415668 -0.474405,-0.718986 -0.537479,-1.236856 -0.05023,-0.412559 0.08544,-0.714352 0.370988,-0.825224 0.32928,-0.127823 1.007969,0.277495 1.601042,0.956159 0.463881,0.530823 0.674873,0.712947 1.024584,0.884295 0.615046,0.301334 1.214955,0.285787 1.809111,-0.04694 0.262065,-0.146756 0.550767,-0.441091 0.670993,-0.684115 0.138961,-0.280889 0.205642,-0.566828 0.219605,-0.941582 0.02018,-0.538984 -0.08817,-0.958644 -0.375432,-1.455637 -0.04013,-0.06947 -0.06776,-0.131647 -0.06127,-0.138056 0.0065,-0.0069 0.211559,-0.02279 0.455781,-0.03604 0.427086,-0.02339 0.449128,-0.02715 0.577679,-0.0916 0.07349,-0.03697 0.188756,-0.105812 0.256152,-0.152821 0.06736,-0.04713 0.217725,-0.149432 0.334109,-0.22754 0.237056,-0.159115 0.433617,-0.341298 0.642089,-0.595165 0.105119,-0.127961 0.174939,-0.189404 0.276458,-0.243225 0.178374,-0.09452 0.325565,-0.240995 0.40736,-0.405235 l 0.0662,-0.132928 0.233892,-0.08171 c 0.2222,-0.07751 0.24846,-0.08172 0.52595,-0.08303 0.445404,-0.0023 0.639531,-0.05448 0.801586,-0.215668 0.139618,-0.138857 0.175833,-0.23615 0.175833,-0.472603 6.6e-5,-0.239838 -0.0378,-0.343819 -0.186854,-0.513155 -0.07049,-0.0801 -0.08717,-0.118287 -0.100008,-0.22886 -0.0267,-0.229046 -0.180056,-0.478173 -0.31532,-0.511944 -0.0062,-0.0021 -0.02345,-0.0023 -0.04929,-0.0029 z M 32.692181,21.593523 c 0.01934,-0.0036 0.05504,0.0186 0.132344,0.07776 0.388148,0.297844 0.783558,0.700727 1.09497,1.115608 0.64249,0.855922 0.976878,1.835624 0.934574,2.738109 -0.02131,0.451636 -0.133944,0.776384 -0.358096,1.031288 -0.186249,0.211728 -0.403434,0.282624 -0.677222,0.221105 -0.520344,-0.116908 -0.899341,-0.517896 -1.081967,-1.144734 -0.177324,-0.608696 -0.22652,-1.86925 -0.11572,-2.96563 0.01883,-0.188855 0.03508,-0.497937 0.03508,-0.686803 2.37e-4,-0.188863 0.0099,-0.35769 0.02052,-0.375162 0.0042,-0.0065 0.0093,-0.01054 0.01506,-0.01141 z m 4.03251,6.083751 c 0.299517,0.0031 0.628972,0.08656 0.976121,0.25166 0.351838,0.167246 1.179628,0.741969 1.838053,1.276117 0.562194,0.456074 1.046693,0.871782 1.039849,0.892214 -0.01703,0.04996 -0.540382,0.182933 -0.9779,0.248241 -0.219494,0.03279 -1.10195,0.06007 -1.29861,0.03999 -0.25608,-0.026 -0.71166,-0.108405 -0.919355,-0.166406 -0.579263,-0.161802 -1.242252,-0.574826 -1.530988,-0.953815 -0.183248,-0.240488 -0.32315,-0.587756 -0.322509,-0.800345 3.39e-4,-0.106957 0.09227,-0.279479 0.213985,-0.401332 0.26052,-0.260832 0.596216,-0.390228 0.981334,-0.386372 z m -4.068959,1.044481 c 0.02807,9.2e-5 0.05592,0.0014 0.08329,0.0036 0.320291,0.02565 0.575438,0.116062 0.699909,0.248427 0.121625,0.129361 0.165274,0.461002 0.09579,0.728511 -0.224935,0.866689 -1.320828,1.689735 -3.206503,2.40813 -0.325719,0.124099 -0.856477,0.28283 -0.94568,0.28283 -0.02016,0 -0.0237,-0.02243 -0.01311,-0.08038 0.05907,-0.313198 0.257745,-0.835975 0.48193,-1.268293 0.540862,-1.042892 1.302599,-1.814333 2.137827,-2.165029 0.256183,-0.107527 0.469771,-0.15829 0.666415,-0.157623 z"
     id="path8"
     style="fill:#f2f2f2;fill-opacity:1" />
</svg>
