<?xml version="1.0" encoding="UTF-8" standalone="no"?>
<svg
   width="62"
   height="62"
   version="1.1"
   id="svg7"
   sodipodi:docname="regextester.svg"
   inkscape:version="1.4 (e7c3feb100, 2024-10-09)"
   xmlns:inkscape="http://www.inkscape.org/namespaces/inkscape"
   xmlns:sodipodi="http://sodipodi.sourceforge.net/DTD/sodipodi-0.dtd"
   xmlns:xlink="http://www.w3.org/1999/xlink"
   xmlns="http://www.w3.org/2000/svg"
   xmlns:svg="http://www.w3.org/2000/svg">
  <defs
     id="defs7">
    <linearGradient
       inkscape:collect="always"
       xlink:href="#linearGradient8"
       id="linearGradient10"
       x1="31.5"
       y1="59.017544"
       x2="31.5"
       y2="4.9824562"
       gradientUnits="userSpaceOnUse"
       gradientTransform="translate(-0.5,-1)" />
    <linearGradient
       id="linearGradient8"
       inkscape:collect="always">
      <stop
         style="stop-color:#2d3d53;stop-opacity:1;"
         offset="0"
         id="stop8" />
      <stop
         style="stop-color:#354864;stop-opacity:1;"
         offset="1"
         id="stop10" />
    </linearGradient>
    <linearGradient
       id="paint3_linear_332_93"
       x1="37.304401"
       y1="24.2272"
       x2="23.255199"
       y2="12.9039"
       gradientUnits="userSpaceOnUse"
       gradientTransform="matrix(1,0,0,1.0089403,-0.9999998,-0.28624446)">
      <stop
         stop-color="#731FFF"
         id="stop9" />
      <stop
         offset="0.905415"
         stop-color="#EB1AFF"
         id="stop10-5" />
    </linearGradient>
    <linearGradient
       id="paint1_linear_332_93"
       x1="2"
       y1="61.696899"
       x2="14.6751"
       y2="28.2421"
       gradientUnits="userSpaceOnUse"
       gradientTransform="matrix(0.91578336,0,0,1,1.7216248,-7.2011443)">
      <stop
         stop-color="#731FFF"
         id="stop5" />
      <stop
         offset="0.905415"
         stop-color="#EB1AFF"
         id="stop6" />
    </linearGradient>
    <linearGradient
       id="paint2_linear_332_93"
       x1="54.645401"
       y1="46.748501"
       x2="26.243099"
       y2="10.4978"
       gradientUnits="userSpaceOnUse"
       gradientTransform="matrix(0.91578336,0,0,1,1.7216248,-7.2011443)">
      <stop
         offset="0.118093"
         stop-color="#731FFF"
         id="stop7" />
      <stop
         offset="0.905415"
         stop-color="#EB1AFF"
         id="stop8-3" />
    </linearGradient>
    <linearGradient
       id="linearGradient4"
       x1="16"
       x2="47"
       y1="16"
       y2="48"
       gradientUnits="userSpaceOnUse"
       gradientTransform="matrix(1.1935485,0,0,1.1875,-6.5967725,-6.999994)">
      <stop
         stop-color="#ffffff"
         offset="0"
         id="stop1" />
      <stop
         stop-color="#ffffff"
         offset=".45161"
         id="stop2" />
      <stop
         stop-color="#fef0cb"
         offset=".59375"
         id="stop3" />
      <stop
         stop-color="#ffbcc3"
         offset="1"
         id="stop4" />
    </linearGradient>
    <linearGradient
       id="paint0_linear_19_69"
       x1="13.5381"
       y1="7.6556602"
       x2="19.187599"
       y2="7.6556602"
       gradientUnits="userSpaceOnUse"
       gradientTransform="matrix(1.818183,0,0,1.818183,11.458092,11.928816)">
      <stop
         stop-color="#02AA93"
         id="stop3-5" />
      <stop
         offset="1"
         stop-color="#67FF80"
         id="stop4-3" />
    </linearGradient>
    <linearGradient
       id="paint1_linear_19_69"
       x1="13.5426"
       y1="5.74156"
       x2="23"
       y2="5.74156"
       gradientUnits="userSpaceOnUse"
       gradientTransform="matrix(1.818183,0,0,1.818183,11.458092,11.928816)">
      <stop
         stop-color="#02AA93"
         id="stop5-5" />
      <stop
         offset="1"
         stop-color="#67FF80"
         id="stop6-6" />
    </linearGradient>
    <linearGradient
       id="paint2_linear_19_69"
       x1="1"
       y1="12.425"
       x2="22.2339"
       y2="12.425"
       gradientUnits="userSpaceOnUse"
       gradientTransform="matrix(1.818183,0,0,1.818183,11.458092,11.928816)">
      <stop
         stop-color="#02AA93"
         id="stop7-2" />
      <stop
         offset="1"
         stop-color="#67FF80"
         id="stop8-9" />
    </linearGradient>
    <linearGradient
       id="d"
       x1="43"
       x2="85"
       y1="39"
       y2="39"
       gradientUnits="userSpaceOnUse"
       gradientTransform="matrix(0.40384613,0,0,0.40384613,18.450538,67.032213)">
      <stop
         offset="0"
         stop-color="#26a269"
         id="stop18" />
      <stop
         offset=".093"
         stop-color="#84e3b7"
         id="stop19" />
      <stop
         offset=".331"
         stop-color="#26a269"
         id="stop20" />
      <stop
         offset=".687"
         stop-color="#26a269"
         id="stop21" />
      <stop
         offset=".897"
         stop-color="#175e3c"
         id="stop22" />
      <stop
         offset="1"
         stop-color="#26a269"
         id="stop23" />
    </linearGradient>
    <linearGradient
       xlink:href="#a"
       id="e"
       x1="-1710.2"
       x2="-1774.5"
       y1="-1202.4"
       y2="-1202.4"
       gradientTransform="matrix(0.03278825,-0.01893229,0.02789771,0.04832018,142.44342,118.349)" />
    <linearGradient
       id="a"
       gradientUnits="userSpaceOnUse">
      <stop
         offset="0"
         stop-color="#c0bfbc"
         id="stop12" />
      <stop
         offset=".155"
         stop-color="#fff"
         id="stop13" />
      <stop
         offset=".434"
         stop-color="#bdbbb5"
         id="stop14" />
      <stop
         offset=".65"
         stop-color="#c1c0ba"
         id="stop15" />
      <stop
         offset=".825"
         stop-color="#fff"
         id="stop16" />
      <stop
         offset="1"
         stop-color="#c0bfbc"
         id="stop17" />
    </linearGradient>
    <linearGradient
       xlink:href="#a"
       id="f"
       x1="-1710.2"
       x2="-1774.5"
       y1="-1202.4"
       y2="-1202.4"
       gradientTransform="matrix(-0.03278825,-0.01893229,-0.02789771,0.04832018,-53.127151,118.349)" />
    <linearGradient
       id="g"
       x1="14"
       x2="56"
       y1="95"
       y2="95"
       gradientUnits="userSpaceOnUse"
       gradientTransform="matrix(0.40384613,0,0,0.40384613,18.450538,67.032213)">
      <stop
         offset="0"
         stop-color="#813d9c"
         id="stop7-6" />
      <stop
         offset=".109"
         stop-color="#b378ca"
         id="stop8-2" />
      <stop
         offset=".242"
         stop-color="#813d9c"
         id="stop9-9" />
      <stop
         offset=".732"
         stop-color="#813d9c"
         id="stop10-1" />
      <stop
         offset=".872"
         stop-color="#4d255d"
         id="stop11" />
      <stop
         offset="1"
         stop-color="#813d9c"
         id="stop24" />
    </linearGradient>
    <linearGradient
       id="h"
       x1="72"
       x2="114"
       y1="95"
       y2="95"
       gradientUnits="userSpaceOnUse"
       gradientTransform="matrix(0.40384613,0,0,0.40384613,18.450538,67.032213)">
      <stop
         offset="0"
         stop-color="#e66100"
         id="stop25" />
      <stop
         offset=".068"
         stop-color="#ff903e"
         id="stop26" />
      <stop
         offset=".169"
         stop-color="#e66100"
         id="stop27" />
      <stop
         offset=".887"
         stop-color="#e66100"
         id="stop28" />
      <stop
         offset="1"
         stop-color="#9d4200"
         id="stop29" />
    </linearGradient>
  </defs>
  <sodipodi:namedview
     id="namedview7"
     pagecolor="#ffffff"
     bordercolor="#000000"
     borderopacity="0.25"
     inkscape:showpageshadow="2"
     inkscape:pageopacity="0.0"
     inkscape:pagecheckerboard="0"
     inkscape:deskcolor="#d1d1d1"
     inkscape:zoom="8.3085046"
     inkscape:cx="44.352145"
     inkscape:cy="50.370075"
     inkscape:window-width="1920"
     inkscape:window-height="998"
     inkscape:window-x="0"
     inkscape:window-y="0"
     inkscape:window-maximized="1"
     inkscape:current-layer="svg7"
     showgrid="false">
    <inkscape:grid
       id="grid1"
       units="px"
       originx="0"
       originy="0"
       spacingx="1"
       spacingy="1"
       empcolor="#0099e5"
       empopacity="0.30196078"
       color="#0099e5"
       opacity="0.14901961"
       empspacing="5"
       enabled="true"
       visible="false" />
  </sodipodi:namedview>
  <rect
     style="opacity:0.2;stroke-width:0.9823"
     width="55"
     height="55.017544"
     x="3.5"
     y="3.9824562"
     rx="8.25"
     ry="8.2526312"
     id="rect1" />
  <rect
     style="fill:url(#linearGradient10);stroke-width:0.9823"
     width="55"
     height="55.017544"
     x="3.5"
     y="3"
     rx="8.25"
     ry="8.2526312"
     id="rect2" />
  <path
     style="opacity:0.1;fill:#ffffff;stroke-width:0.9823"
     d="M 11.748466,3 C 7.1779652,3 3.5,6.679138 3.5,11.251097 v 0.982456 c 0,-4.571959 3.6779652,-8.251097 8.248466,-8.251097 h 38.503068 c 4.5705,0 8.248466,3.679138 8.248466,8.251097 V 11.251097 C 58.5,6.679138 54.822034,3 50.251534,3 Z"
     id="path4-3" />
  <g
     id="g1"
     transform="translate(-7.9699005,-55.78408)">
    <path
       style="opacity:0.2;stroke-width:1.21739"
       d="m 21.301083,74.492697 -6.070312,20.695652 h 2.508492 L 23.75251,74.492697 Z m 2.451427,0 6.013247,20.695652 h 2.508492 L 26.203937,74.492697 Z m 23.113791,0 -6.070313,20.695652 h 2.508492 l 6.013248,-20.695652 z m 13.358016,4.869566 c -0.03879,0.0659 -0.07774,0.741897 -0.116505,1.438519 -0.03876,0.696623 -0.05945,1.187011 -0.05945,1.469429 h -0.03091 c -0.445891,-0.913144 -1.078243,-1.614759 -1.902174,-2.10428 -0.814238,-0.498934 -1.778952,-0.746603 -2.893682,-0.746603 -1.987129,0 -3.469681,0.645765 -4.44871,1.935462 -0.969346,1.280281 -1.455164,3.998635 -1.455164,6.700407 0,2.664111 0.451444,4.111991 1.352921,5.354619 0.911171,1.242626 2.331902,1.861753 4.260869,1.861753 1.153504,0 2.161751,-0.242815 3.024457,-0.732336 0.862704,-0.498933 1.53859,-1.236995 2.032948,-2.216033 h 0.02854 v 2.456181 c 0,2.965358 -1.301467,4.073031 -3.908967,4.073031 -0.96933,2e-6 -1.755335,-0.189441 -2.356318,-0.575408 -0.591293,-0.376554 -0.973958,-0.92032 -1.148437,-1.626358 l -2.632134,0.368546 c 0.290798,1.204969 0.946198,2.619809 1.963995,3.269358 1.017786,0.65897 2.385844,0.98676 4.101559,0.98676 4.391067,0 6.671875,-2.260282 6.671875,-6.552993 V 82.733865 79.362263 Z m -4.964674,2.434782 c 0.734863,0 1.388504,0.21763 1.963995,0.653872 0.584347,0.427687 1.036562,1.05248 1.355299,1.873642 0.318742,0.812606 0.477921,2.423214 0.477921,3.55231 0,1.103435 -0.159178,1.597443 -0.477921,2.401494 -0.318737,0.795501 -0.770952,1.405532 -1.355299,1.83322 -0.584349,0.427689 -1.251849,0.641984 -2.004416,0.641984 -1.266086,0 -2.159693,-0.413829 -2.682065,-1.243546 -0.52237,-0.829715 -0.784647,-1.734213 -0.784647,-3.633152 0,-1.916044 0.279172,-3.940481 0.836957,-4.795856 0.557791,-0.855376 1.448361,-1.283968 2.670176,-1.283968 z m -20.550611,9.739131 v 3.652173 h 3.652174 v -3.652173 z"
       id="path2" />
    <path
       style="fill:#70ae39;stroke-width:1.21739;fill-opacity:1"
       d="m 21.299983,73.275306 -6.069212,20.695652 h 2.509316 L 23.75251,73.275306 Z"
       id="path3" />
    <path
       style="fill:#ffffff;stroke-width:1.21739"
       d="m 34.709032,93.970958 v -3.652174 h 3.652174 v 3.652174 z"
       id="path4" />
    <path
       style="fill:#70ae39;stroke-width:1.21739;fill-opacity:1"
       d="m 46.8652,73.275306 -6.069212,20.695652 h 2.509317 l 6.012423,-20.695652 z"
       id="path5" />
    <path
       style="fill:#70ae39;stroke-width:1.21739;fill-opacity:1"
       d="m 60.224317,78.144871 c -0.03879,0.0659 -0.07774,0.741898 -0.116505,1.43852 -0.03876,0.696623 -0.05945,1.187011 -0.05945,1.469429 h -0.03091 c -0.445891,-0.913145 -1.078243,-1.614759 -1.902174,-2.104281 -0.814238,-0.498933 -1.778952,-0.746603 -2.893682,-0.746603 -1.987129,0 -3.469682,0.645766 -4.44871,1.935463 -0.969345,1.28028 -1.455164,3.998635 -1.455164,6.700407 0,2.664111 0.451444,4.111991 1.352921,5.354619 0.911171,1.242625 2.331902,1.861753 4.260869,1.861753 1.153504,0 2.161751,-0.242815 3.024457,-0.732337 0.862704,-0.498933 1.53859,-1.236994 2.032948,-2.216033 h 0.02854 v 2.456182 c 0,2.965357 -1.301467,4.073583 -3.908967,4.073583 -0.96933,1e-6 -1.755335,-0.189251 -2.356318,-0.575218 -0.591293,-0.376554 -0.973958,-0.920321 -1.148437,-1.626359 l -2.632134,0.368547 c 0.290798,1.204969 0.946198,2.619066 1.963995,3.268619 1.01779,0.658969 2.385844,0.986748 4.101559,0.986748 4.391067,0 6.671875,-2.260273 6.671875,-6.552984 V 81.516474 78.144871 Z m -4.964674,2.434783 c 0.734863,0 1.388504,0.217629 1.963995,0.653872 0.584347,0.427686 1.036562,1.052479 1.355299,1.873642 0.318742,0.812606 0.477921,2.423213 0.477921,3.55231 0,1.103435 -0.159178,1.597442 -0.477921,2.401494 -0.318737,0.795501 -0.770952,1.405532 -1.355299,1.83322 -0.584349,0.427689 -1.251849,0.641984 -2.004416,0.641984 -1.266086,0 -2.159693,-0.413829 -2.682065,-1.243546 -0.52237,-0.829716 -0.784647,-1.734213 -0.784647,-3.633152 0,-1.916044 0.279172,-3.940482 0.836957,-4.795856 0.557791,-0.855376 1.448361,-1.283968 2.670176,-1.283968 z"
       id="path6" />
    <path
       style="fill:#ffffff;stroke-width:1.21739"
       d="m 26.205037,73.275306 6.069212,20.695652 H 29.764933 L 23.75251,73.275306 Z"
       id="path7" />
  </g>
</svg>
