<?xml version="1.0" encoding="UTF-8" standalone="no"?>
<svg
   clip-rule="evenodd"
   fill-rule="evenodd"
   stroke-linejoin="round"
   stroke-miterlimit="2"
   viewBox="0 0 62 62"
   version="1.1"
   id="svg4"
   sodipodi:docname="retroarch.svg"
   width="62"
   height="62"
   inkscape:version="1.4 (e7c3feb100, 2024-10-09)"
   xmlns:inkscape="http://www.inkscape.org/namespaces/inkscape"
   xmlns:sodipodi="http://sodipodi.sourceforge.net/DTD/sodipodi-0.dtd"
   xmlns:xlink="http://www.w3.org/1999/xlink"
   xmlns="http://www.w3.org/2000/svg"
   xmlns:svg="http://www.w3.org/2000/svg">
  <defs
     id="defs4">
    <linearGradient
       id="linearGradient9"
       inkscape:collect="always">
      <stop
         style="stop-color:#29343d;stop-opacity:1;"
         offset="0"
         id="stop9" />
      <stop
         style="stop-color:#5c7589;stop-opacity:1;"
         offset="1"
         id="stop10" />
    </linearGradient>
    <linearGradient
       id="linearGradient7"
       inkscape:collect="always">
      <stop
         style="stop-color:#b7c6cd;stop-opacity:1;"
         offset="0"
         id="stop7" />
      <stop
         style="stop-color:#eff2f6;stop-opacity:1;"
         offset="1"
         id="stop8" />
    </linearGradient>
    <linearGradient
       id="linearGradient5"
       inkscape:collect="always">
      <stop
         style="stop-color:#33424c;stop-opacity:1;"
         offset="0"
         id="stop5" />
      <stop
         style="stop-color:#566c80;stop-opacity:1;"
         offset="1"
         id="stop6" />
    </linearGradient>
    <linearGradient
       inkscape:collect="always"
       xlink:href="#linearGradient5"
       id="linearGradient6"
       x1="30.332001"
       y1="58.332001"
       x2="30.332001"
       y2="2.332"
       gradientUnits="userSpaceOnUse"
       gradientTransform="translate(0.668,0.668)" />
    <linearGradient
       inkscape:collect="always"
       xlink:href="#linearGradient7"
       id="linearGradient8"
       x1="34"
       y1="29"
       x2="17"
       y2="19"
       gradientUnits="userSpaceOnUse" />
    <linearGradient
       inkscape:collect="always"
       xlink:href="#linearGradient9"
       id="linearGradient10"
       x1="18"
       y1="25"
       x2="18"
       y2="21"
       gradientUnits="userSpaceOnUse" />
  </defs>
  <sodipodi:namedview
     id="namedview4"
     pagecolor="#ffffff"
     bordercolor="#000000"
     borderopacity="0.25"
     inkscape:showpageshadow="2"
     inkscape:pageopacity="0.0"
     inkscape:pagecheckerboard="0"
     inkscape:deskcolor="#d1d1d1"
     inkscape:zoom="7.7916667"
     inkscape:cx="24.320856"
     inkscape:cy="23.871658"
     inkscape:window-width="1920"
     inkscape:window-height="994"
     inkscape:window-x="0"
     inkscape:window-y="0"
     inkscape:window-maximized="1"
     inkscape:current-layer="svg4" />
  <linearGradient
     id="a"
     x2="1"
     gradientTransform="matrix(0,-43.53155,43.53155,0,1192.407,51.589413)"
     gradientUnits="userSpaceOnUse">
    <stop
       stop-color="#d8dfe2"
       offset="0"
       id="stop1" />
    <stop
       stop-color="#fff"
       offset="1"
       id="stop2" />
  </linearGradient>
  <path
     d="M 50.952003,59 H 11.047997 C 6.6053166,59 3,55.394683 3,50.952003 V 11.047997 C 3,6.6053166 6.6053166,3 11.047997,3 H 50.952003 C 55.394683,3 59,6.6053166 59,11.047997 V 50.952003 C 59,55.394683 55.394683,59 50.952003,59 Z"
     id="path2"
     style="fill:url(#linearGradient6)" />
  <g
     fill-rule="nonzero"
     id="g4"
     transform="matrix(1.4117647,0,0,1.4444444,-2.8823528,-3.6666656)">
    <path
       d="m 17,15 3,4 h -6 l -0.623,3 H 10 l 1,-4 H 9 l -2,8 h 5.623 L 12,29 h 4 l -3,4 h 4 l 3,-4 h 8 l 3,4 h 4 l -3,-4 h 4 L 35.377,26 H 41 l -2,-8 h -2 l 1,4 H 34.623 L 34,19 h -6 l 3,-4 h -2 l -3,4 h -4 l -3,-4 z"
       id="path3"
       style="fill:url(#linearGradient8)" />
    <path
       d="m 16,21 v 4 h 4 v -4 z m 12,0 v 4 h 4 v -4 z"
       id="path4"
       style="fill:url(#linearGradient10)" />
  </g>
</svg>
