<?xml version="1.0" encoding="UTF-8" standalone="no"?>
<svg
   width="62"
   height="62"
   version="1.1"
   id="svg33"
   sodipodi:docname="rider.svg"
   inkscape:version="1.4 (e7c3feb100, 2024-10-09)"
   xmlns:inkscape="http://www.inkscape.org/namespaces/inkscape"
   xmlns:sodipodi="http://sodipodi.sourceforge.net/DTD/sodipodi-0.dtd"
   xmlns:xlink="http://www.w3.org/1999/xlink"
   xmlns="http://www.w3.org/2000/svg"
   xmlns:svg="http://www.w3.org/2000/svg">
  <sodipodi:namedview
     id="namedview35"
     pagecolor="#ffffff"
     bordercolor="#666666"
     borderopacity="1.0"
     inkscape:showpageshadow="2"
     inkscape:pageopacity="0.0"
     inkscape:pagecheckerboard="0"
     inkscape:deskcolor="#d1d1d1"
     showgrid="false"
     inkscape:zoom="4.9166667"
     inkscape:cx="-7.6271186"
     inkscape:cy="51.050847"
     inkscape:window-width="1920"
     inkscape:window-height="994"
     inkscape:window-x="0"
     inkscape:window-y="0"
     inkscape:window-maximized="1"
     inkscape:current-layer="svg33" />
  <defs
     id="defs21">
    <linearGradient
       id="linearGradient4184">
      <stop
         style="stop-color:#000000;stop-opacity:1;"
         offset="0"
         id="stop2" />
      <stop
         style="stop-color:#000000;stop-opacity:0;"
         offset="1"
         id="stop4" />
    </linearGradient>
    <linearGradient
       id="linearGradient4168">
      <stop
         style="stop-color:#fcfcfc;stop-opacity:1;"
         offset="0"
         id="stop7" />
      <stop
         style="stop-color:#f58273;stop-opacity:1"
         offset="1"
         id="stop9" />
    </linearGradient>
    <linearGradient
       id="linearGradient4160">
      <stop
         style="stop-color:#c61423;stop-opacity:1;"
         offset="0"
         id="stop12" />
      <stop
         style="stop-color:#f58273;stop-opacity:1"
         offset="1"
         id="stop14" />
    </linearGradient>
    <linearGradient
       xlink:href="#linearGradient4160"
       id="linearGradient4166"
       x1="32.249001"
       y1="42.036999"
       x2="16.546"
       y2="4.902"
       gradientUnits="userSpaceOnUse"
       gradientTransform="matrix(1.0500003,0,0,1.0500003,-45.606761,25.579659)" />
    <linearGradient
       xlink:href="#linearGradient4168"
       id="linearGradient4174"
       x1="15.316"
       y1="13.523"
       x2="29.427"
       y2="37.964001"
       gradientUnits="userSpaceOnUse"
       gradientTransform="matrix(1.0500003,0,0,1.0500003,-45.606761,25.579659)" />
    <linearGradient
       xlink:href="#linearGradient4184"
       id="linearGradient4190"
       x1="12.237"
       y1="25.115999"
       x2="17.74"
       y2="28.292999"
       gradientUnits="userSpaceOnUse"
       gradientTransform="matrix(1.0500003,0,0,1.0500003,-45.606761,25.579659)" />
    <linearGradient
       xlink:href="#linearGradient4184"
       id="linearGradient4192"
       x1="23.905001"
       y1="21.094999"
       x2="35.875999"
       y2="33.064999"
       gradientUnits="userSpaceOnUse"
       gradientTransform="matrix(1.0500003,0,0,1.0500003,-45.606761,25.579659)" />
    <linearGradient
       id="c"
       y1="521.15002"
       x1="394.22"
       y2="533.40997"
       gradientUnits="userSpaceOnUse"
       x2="416.85001"
       gradientTransform="translate(-12.764,-10.07)">
      <stop
         stop-color="#292c2f"
         id="stop225" />
      <stop
         offset="1"
         stop-opacity="0"
         id="stop227" />
    </linearGradient>
    <linearGradient
       inkscape:collect="always"
       xlink:href="#linearGradient4160"
       id="linearGradient841"
       gradientUnits="userSpaceOnUse"
       gradientTransform="matrix(1.0500003,0,0,1.0500003,-73.67458,3.3250445)"
       x1="32.249001"
       y1="42.036999"
       x2="16.546"
       y2="4.902" />
  </defs>
  <g
     id="g1"
     transform="matrix(1.3571423,0,0,1.3333333,96.786912,-7.0333955)">
    <rect
       style="fill:url(#linearGradient841);fill-opacity:1;stroke-width:1.05"
       rx="21"
       y="7.5250473"
       x="-69.474579"
       height="42"
       width="42"
       id="rect23-6" />
    <path
       style="fill:#2c2e31;fill-opacity:0.235294;stroke-width:1.05"
       d="m -69.462315,28 c -0.0042,0.17486 -0.01228,0.34906 -0.01228,0.525 0,11.634004 9.366001,21.000004 21.000002,21.000004 11.634003,0 21.000003,-9.366 21.000003,-21.000004 0,-0.17594 -0.0081,-0.35014 -0.0123,-0.525 -0.277904,11.388432 -9.52997,20.475005 -20.987697,20.475005 -11.457728,0 -20.709793,-9.086573 -20.987697,-20.475004 z"
       id="path25-2" />
    <rect
       width="30"
       height="30"
       x="-63.474579"
       y="13.525047"
       fill="#303030"
       rx="5.0004115"
       ry="5.0004115"
       style="stroke-width:3.77959;paint-order:markers stroke fill;fill:#373e48;fill-opacity:1"
       id="rect1" />
    <path
       d="m -61.388152,37.919661 h 11.739961 v 2.347235 h -11.739961 z m 2.347238,-21.136456 v 12.915472 h 2.347239 v -4.694485 h 1.878536 l 2.819706,4.694485 h 2.343472 l -2.929328,-4.891031 c 1.814292,-0.430888 2.936884,-1.617726 2.936884,-3.855358 v -0.05669 c 0,-2.615602 -1.273783,-4.108601 -4.312724,-4.108601 z m 10.564446,0 v 12.915472 h 3.522756 l 1.825621,-0.01897 c 2.275427,-0.0264 5.21608,-2.305649 5.21608,-6.4067 v -0.06434 c 0,-4.059466 -2.445518,-6.425603 -5.480669,-6.425603 z m -8.217207,2.351025 h 2.35101 c 1.409867,0 2.343468,0.457339 2.343468,1.731117 v 0.06053 c 0,1.058335 -0.933601,1.731124 -2.343468,1.731124 h -2.35101 z m 10.568233,0 h 2.343449 c 1.417409,0 3.526527,1.194394 3.526527,4.078354 v 0.06053 c 0,2.92555 -2.109118,4.078374 -3.522741,4.078374 h -2.347235 z"
       id="path2"
       style="fill:#ffd5d5;stroke-width:3.77959" />
  </g>
</svg>
