<?xml version="1.0" encoding="UTF-8" standalone="no"?>
<!-- Created with Inkscape (http://www.inkscape.org/) -->

<svg
   width="62"
   height="62"
   viewBox="0 0 62 62"
   version="1.1"
   id="svg1"
   inkscape:version="1.4 (unknown)"
   sodipodi:docname="rnote.svg"
   xmlns:inkscape="http://www.inkscape.org/namespaces/inkscape"
   xmlns:sodipodi="http://sodipodi.sourceforge.net/DTD/sodipodi-0.dtd"
   xmlns:xlink="http://www.w3.org/1999/xlink"
   xmlns="http://www.w3.org/2000/svg"
   xmlns:svg="http://www.w3.org/2000/svg">
  <sodipodi:namedview
     id="namedview1"
     pagecolor="#ffffff"
     bordercolor="#000000"
     borderopacity="0.25"
     inkscape:showpageshadow="2"
     inkscape:pageopacity="0.0"
     inkscape:pagecheckerboard="0"
     inkscape:deskcolor="#d1d1d1"
     inkscape:document-units="px"
     inkscape:zoom="7.5994534"
     inkscape:cx="23.356943"
     inkscape:cy="15.198462"
     inkscape:window-width="1920"
     inkscape:window-height="998"
     inkscape:window-x="0"
     inkscape:window-y="0"
     inkscape:window-maximized="1"
     inkscape:current-layer="layer1" />
  <defs
     id="defs1">
    <linearGradient
       id="linearGradient3"
       inkscape:collect="always">
      <stop
         style="stop-color:#beffff;stop-opacity:1;"
         offset="0"
         id="stop4" />
      <stop
         style="stop-color:#b380ff;stop-opacity:1"
         offset="1"
         id="stop5" />
    </linearGradient>
    <linearGradient
       id="linearGradient1"
       inkscape:collect="always">
      <stop
         style="stop-color:#566c80;stop-opacity:1;"
         offset="0"
         id="stop1" />
      <stop
         style="stop-color:#1f232e;stop-opacity:1;"
         offset="0.81818175"
         id="stop3" />
      <stop
         style="stop-color:#1f232e;stop-opacity:1;"
         offset="1"
         id="stop2" />
    </linearGradient>
    <radialGradient
       id="paint664_radial_890_11"
       cx="0"
       cy="0"
       r="1"
       gradientUnits="userSpaceOnUse"
       gradientTransform="matrix(-16.000099,-9.999913,9.999913,-16.000099,583,171)">
      <stop
         offset="0.42141"
         stop-color="#B7C6CD"
         id="stop2071" />
      <stop
         offset="1"
         stop-color="#EFF2F6"
         id="stop2072" />
    </radialGradient>
    <linearGradient
       id="paint665_linear_890_11"
       x1="605"
       y1="180"
       x2="601.466"
       y2="162.72301"
       gradientUnits="userSpaceOnUse">
      <stop
         stop-color="#5200FF"
         id="stop2073" />
      <stop
         offset="1"
         stop-color="#0085FF"
         id="stop2074" />
    </linearGradient>
    <linearGradient
       id="paint666_linear_890_11"
       x1="567"
       y1="181"
       x2="562.11798"
       y2="174.183"
       gradientUnits="userSpaceOnUse">
      <stop
         stop-color="#5200FF"
         id="stop2075" />
      <stop
         offset="0.670391"
         stop-color="#0085FF"
         id="stop2076" />
    </linearGradient>
    <linearGradient
       id="paint667_linear_890_11"
       x1="605"
       y1="180"
       x2="597.32001"
       y2="174.24001"
       gradientUnits="userSpaceOnUse">
      <stop
         stop-color="#5200FF"
         id="stop2077" />
      <stop
         offset="1"
         stop-color="#0085FF"
         id="stop2078" />
    </linearGradient>
    <linearGradient
       id="paint668_linear_890_11"
       x1="567"
       y1="180"
       x2="561.23999"
       y2="172.32001"
       gradientUnits="userSpaceOnUse">
      <stop
         stop-color="#5200FF"
         id="stop2079" />
      <stop
         offset="1"
         stop-color="#0085FF"
         id="stop2080" />
    </linearGradient>
    <linearGradient
       id="paint669_linear_890_11"
       x1="607"
       y1="179"
       x2="602.50598"
       y2="171.80901"
       gradientUnits="userSpaceOnUse">
      <stop
         stop-color="#5200FF"
         id="stop2081" />
      <stop
         offset="1"
         stop-color="#0085FF"
         id="stop2082" />
    </linearGradient>
    <linearGradient
       id="paint670_linear_890_11"
       x1="607"
       y1="217"
       x2="568.82599"
       y2="170.01601"
       gradientUnits="userSpaceOnUse">
      <stop
         stop-color="#5200FF"
         id="stop2083" />
      <stop
         offset="1"
         stop-color="#0085FF"
         id="stop2084" />
    </linearGradient>
    <radialGradient
       id="paint671_radial_890_11"
       cx="0"
       cy="0"
       r="1"
       gradientUnits="userSpaceOnUse"
       gradientTransform="matrix(0,20,-16,0,583,187)">
      <stop
         offset="0.869716"
         stop-color="#EFF2F6"
         id="stop2085" />
      <stop
         offset="1"
         stop-color="#B7C6CD"
         id="stop2086" />
    </radialGradient>
    <linearGradient
       id="paint451_linear_890_11"
       x1="55"
       y1="461"
       x2="111"
       y2="517"
       gradientUnits="userSpaceOnUse"
       gradientTransform="translate(-53,-457)">
      <stop
         offset="0.303571"
         stop-color="#EFF2F6"
         id="stop1644" />
      <stop
         offset="1"
         stop-color="#B7C6CD"
         id="stop1645" />
    </linearGradient>
    <linearGradient
       id="paint452_linear_890_11"
       x1="107"
       y1="513"
       x2="67.655701"
       y2="465.78699"
       gradientUnits="userSpaceOnUse"
       gradientTransform="matrix(1,0,0,1.2,-53,-559.6)">
      <stop
         stop-color="#2E2E41"
         id="stop1646" />
      <stop
         offset="1"
         stop-color="#566C80"
         id="stop1647" />
    </linearGradient>
    <linearGradient
       id="paint453_linear_890_11"
       x1="61"
       y1="465"
       x2="65"
       y2="469"
       gradientUnits="userSpaceOnUse"
       gradientTransform="translate(-53,-457)">
      <stop
         offset="0.236371"
         stop-color="#F15700"
         id="stop1648" />
      <stop
         offset="0.855848"
         stop-color="#FF0000"
         id="stop1649" />
    </linearGradient>
    <linearGradient
       id="paint454_linear_890_11"
       x1="71"
       y1="469"
       x2="67"
       y2="465"
       gradientUnits="userSpaceOnUse"
       gradientTransform="translate(-53,-457)">
      <stop
         stop-color="#FF7E07"
         id="stop1650" />
      <stop
         offset="1"
         stop-color="#FFE607"
         id="stop1651" />
    </linearGradient>
    <linearGradient
       id="paint455_linear_890_11"
       x1="77"
       y1="469"
       x2="73"
       y2="465"
       gradientUnits="userSpaceOnUse"
       gradientTransform="translate(-53,-457)">
      <stop
         stop-color="#089953"
         id="stop1652" />
      <stop
         offset="1"
         stop-color="#16D96F"
         id="stop1653" />
    </linearGradient>
    <linearGradient
       id="paint456_linear_890_11"
       x1="80"
       y1="486"
       x2="80"
       y2="492"
       gradientUnits="userSpaceOnUse"
       gradientTransform="translate(-53,-457)">
      <stop
         offset="0.189495"
         stop-color="#EFF2F6"
         id="stop1654" />
      <stop
         offset="0.850463"
         stop-color="#B7C6CD"
         id="stop1655" />
    </linearGradient>
    <linearGradient
       id="paint457_linear_890_11"
       x1="82"
       y1="494"
       x2="82"
       y2="500"
       gradientUnits="userSpaceOnUse">
      <stop
         offset="0.189495"
         stop-color="#EFF2F6"
         id="stop1656" />
      <stop
         offset="0.850463"
         stop-color="#B7C6CD"
         id="stop1657" />
    </linearGradient>
    <linearGradient
       id="paint400_linear_890_11"
       x1="568.5"
       y1="490.5"
       x2="559"
       y2="490.5"
       gradientUnits="userSpaceOnUse"
       gradientTransform="translate(-551.88344,-457.27914)">
      <stop
         offset="0.152115"
         stop-color="#2E2E41"
         id="stop1542" />
      <stop
         offset="1"
         stop-color="#566C80"
         id="stop1543" />
    </linearGradient>
    <linearGradient
       id="paint401_linear_890_11"
       x1="568"
       y1="461"
       x2="620.52502"
       y2="497.57999"
       gradientUnits="userSpaceOnUse"
       gradientTransform="translate(-551.88344,-457.27914)">
      <stop
         offset="0.179449"
         stop-color="#F15700"
         id="stop1544"
         style="stop-color:#2a7fff;stop-opacity:1" />
      <stop
         offset="0.879484"
         stop-color="#FF0000"
         id="stop1545"
         style="stop-color:#2a7fff;stop-opacity:1" />
    </linearGradient>
    <linearGradient
       id="paint402_linear_890_11"
       x1="585.5"
       y1="481"
       x2="585.5"
       y2="485"
       gradientUnits="userSpaceOnUse"
       gradientTransform="translate(-553,-457)">
      <stop
         stop-color="white"
         id="stop1546" />
      <stop
         offset="0.705"
         stop-color="#E6E6E6"
         id="stop1547" />
    </linearGradient>
    <linearGradient
       id="paint403_linear_890_11"
       x1="582"
       y1="489"
       x2="582"
       y2="493"
       gradientUnits="userSpaceOnUse"
       gradientTransform="translate(-553,-457)">
      <stop
         stop-color="white"
         id="stop1548" />
      <stop
         offset="0.705"
         stop-color="#E6E6E6"
         id="stop1549" />
    </linearGradient>
    <linearGradient
       inkscape:collect="always"
       xlink:href="#linearGradient1"
       id="linearGradient2"
       x1="7.1165647"
       y1="31.720859"
       x2="18.116565"
       y2="31.720859"
       gradientUnits="userSpaceOnUse" />
    <linearGradient
       inkscape:collect="always"
       xlink:href="#linearGradient3"
       id="linearGradient5"
       x1="34.933708"
       y1="3.7208588"
       x2="55.116566"
       y2="59.72086"
       gradientUnits="userSpaceOnUse" />
    <linearGradient
       inkscape:collect="always"
       xlink:href="#linearGradient1"
       id="linearGradient7"
       x1="21.739122"
       y1="32.249401"
       x2="44.91011"
       y2="32.249401"
       gradientUnits="userSpaceOnUse" />
    <linearGradient
       id="_lgradient_2"
       x1="0.27560765"
       y1="0.99509495"
       x2="1.0070789"
       y2="0.011775378"
       gradientTransform="matrix(0.99923544,0,0,56.001597,16,2.9999999)"
       gradientUnits="userSpaceOnUse">
      <stop
         offset="0%"
         stop-opacity="1"
         style="stop-color:rgb(252,73,136)"
         id="stop1-0" />
      <stop
         offset="98.26086956521739%"
         stop-opacity="1"
         style="stop-color:rgb(234,51,62)"
         id="stop2-9" />
    </linearGradient>
  </defs>
  <g
     inkscape:label="Layer 1"
     inkscape:groupmode="layer"
     id="layer1">
    <g
       id="g1"
       transform="translate(-0.11656485,-0.7208589)">
      <path
         d="m 7.1165647,9.7208588 c 0,-3.314 2.686,-6 6.0000003,-6 h 5 V 59.720859 h -5 c -3.3140003,0 -6.0000003,-2.686 -6.0000003,-6 z"
         id="path390"
         style="fill:url(#linearGradient2)" />
      <path
         d="m 16.116565,3.7208588 h 33 c 3.314,0 6,2.686 6,6 V 53.720859 c 0,3.314 -2.686,6 -6,6 h -33 z"
         id="path391"
         style="fill:url(#linearGradient5)" />
    </g>
    <path
       id="rect943-3"
       style="fill:#737373;fill-opacity:0.64947248;stroke-width:14.8674;stroke-linecap:square;stroke-linejoin:round"
       d="M 20.397028,25.39028 C 19.623221,25.39028 19,25.949931 19,26.644546 c 0,0.694664 0.623117,1.252676 1.397028,1.252676 h 17.059677 c 0.773718,0 1.395271,-0.558219 1.395271,-1.252676 0,-0.694676 -0.621917,-1.254266 -1.395271,-1.254266 z m 0,5.872897 C 19.623221,31.263177 19,31.822822 19,32.517417 c 0,0.694667 0.623117,1.254293 1.397028,1.254293 h 11.709446 c 0.773777,0 1.397043,-0.559643 1.397043,-1.254293 0,-0.694682 -0.623044,-1.25424 -1.397043,-1.25424 z m 17.591749,0 c -0.773819,0 -1.397015,0.559645 -1.397015,1.25424 0,0.694667 0.62305,1.254293 1.397015,1.254293 h 8.019941 c 0.773807,0 1.395343,-0.559643 1.395343,-1.254293 0,-0.694682 -0.621855,-1.25424 -1.395343,-1.25424 z M 20.397028,37.136036 C 19.623221,37.136036 19,37.695679 19,38.390263 c 0,0.694685 0.623117,1.254229 1.397028,1.254229 h 15.024735 c 0.773885,0 1.395371,-0.559643 1.395371,-1.254229 0,-0.694675 -0.621918,-1.254227 -1.395371,-1.254227 z m 0,5.872857 C 19.623221,43.008893 19,43.568523 19,44.263137 c 0,0.694694 0.623117,1.254294 1.397028,1.254294 h 20.927025 c 0.773841,0 1.397034,-0.559632 1.397034,-1.254294 0,-0.69467 -0.623064,-1.254244 -1.397034,-1.254244 z m 26.320153,0 c -0.773826,0 -1.395326,0.55963 -1.395326,1.254244 0,0.694694 0.621901,1.254294 1.395326,1.254294 h 3.77536 c 0.773808,0 1.397047,-0.559632 1.397047,-1.254294 0,-0.69467 -0.623096,-1.254244 -1.397047,-1.254244 z M 20.397028,48.881774 C 19.623221,48.881774 19,49.441425 19,50.136039 c 0,0.694695 0.623117,1.254241 1.397028,1.254241 h 15.024735 c 0.773885,0 1.395371,-0.559644 1.395371,-1.254241 0,-0.694695 -0.621918,-1.254265 -1.395371,-1.254265 z m 19.74317,0 c -0.773777,0 -1.39702,0.559651 -1.39702,1.254265 8e-6,0.694695 0.623091,1.254241 1.39702,1.254241 H 50.602965 C 51.376711,51.39028 52,50.830636 52,50.136039 52,49.441344 51.376948,48.881774 50.602965,48.881774 Z" />
    <path
       d="M 16,46.311477 V 2.9999999 h 1 V 46.311477 56.448886 59 h -1 v -2.551114 z"
       id="path2"
       style="fill:#d35f8d" />
    <path
       d="m 42.975152,23.108099 c -0.06289,-0.522278 0.329691,-1.348754 0.277109,-2.473936 -0.05423,-1.127014 -0.589739,-2.697498 -2.787222,-3.837349 -0.03911,-0.02112 -0.07822,-0.04032 -0.118956,-0.06046 -1.429305,-0.71102 -3.512914,-1.220465 -5.943235,-0.97124 -1.88817,0.194345 -3.849427,0.837472 -5.698508,1.971817 -1.663833,1.017047 -3.19681,2.40979 -4.440857,4.132377 -0.730805,1.08303 -1.36812,2.309001 -1.823594,3.632094 -0.197289,0.571754 -0.360295,1.163666 -0.482663,1.768407 -0.15807,0.786161 -0.244724,1.645621 -0.210803,2.552731 0.09,1.43855 0.487771,3.01087 1.376618,4.42561 0.419779,0.67071 0.941528,1.27911 1.544865,1.78673 0.599926,0.50761 1.286546,0.91811 2.036032,1.18747 1.201567,0.42334 2.382724,0.42334 3.359957,0.26398 0.518354,-0.084 0.994222,-0.21452 1.414008,-0.35921 0.518354,-0.17781 0.994215,-0.38299 1.369813,-0.55711 0.819172,-0.38666 1.587359,-0.85029 2.199187,-1.22413 0.611824,-0.37383 1.211759,-0.7495 1.787901,-1.05369 0.343302,-0.17596 0.751185,-0.37203 1.153973,-0.52048 0.107035,-0.0386 0.214224,-0.0752 0.321221,-0.10614 0.401087,-0.11918 0.797078,-0.1722 1.14888,-0.13367 0.300828,0.0313 0.555746,0.1373 0.727392,0.26761 0.0731,0.0494 0.135981,0.11918 0.188659,0.19234 0.04599,0.0678 0.07644,0.13198 0.09334,0.16671 0.02031,0.044 0.02946,0.13365 -0.0032,0.26394 -0.03093,0.13198 -0.09681,0.28411 -0.19885,0.43616 -0.105402,0.15579 -0.251522,0.31706 -0.448673,0.48379 -0.193814,0.16132 -0.424881,0.31884 -0.693404,0.47097 -0.589737,0.30602 -1.176065,0.51125 -2.00034,0.84295 -0.747791,0.30057 -1.640041,0.68904 -2.476209,1.30479 -0.438477,0.33351 -0.876947,0.74949 -1.254244,1.25344 -0.375597,0.50395 -0.70191,1.11234 -0.883751,1.82521 -0.163096,0.71284 -0.171748,1.50451 0.04748,2.26504 0.110369,0.38666 0.280478,0.75317 0.497958,1.07939 0.22101,0.32982 0.497964,0.62857 0.825974,0.86676 0.582931,0.41784 1.22535,0.57173 1.7811,0.58822 h 0.188657 c 0.470774,-0.0119 0.919447,-0.11697 1.329026,-0.26562 0.428281,-0.14131 0.815779,-0.3317 1.148882,-0.50029 0.339913,-0.17425 0.601633,-0.31513 0.875249,-0.43247 0.249793,-0.11932 0.467377,-0.19598 0.664519,-0.22914 0.186853,-0.0312 0.339908,-0.0204 0.450379,0.019 0.04933,0.0128 0.09334,0.0389 0.129121,0.0628 0.03393,0.0241 0.05773,0.0457 0.0697,0.0568 0.02031,0.004 0.03578,0.0241 0.04748,0.0281 0.01244,0 0.02616,0.003 0.04252,10e-4 0.01439,-10e-4 0,0.0551 -0.06114,0.13211 -0.0714,0.0898 -0.175095,0.17977 -0.334805,0.31335 -0.154709,0.12624 -0.3654,0.29327 -0.557437,0.49847 -0.212398,0.22537 -0.419793,0.51129 -0.547257,0.86495 -0.127336,0.35735 -0.14799,0.72387 -0.09519,1.04641 0.06114,0.37565 0.222602,0.68351 0.409584,0.9016 0.251546,0.29696 0.543845,0.42332 0.759684,0.45815 0.05266,0.003 0.101992,0.004 0.147988,0.003 0.384091,-0.0118 0.538745,-0.33165 0.606733,-0.42513 -0.09519,-0.0965 -0.192029,-0.34635 -0.268487,-0.55891 -0.0082,-0.0254 -0.01809,-0.0457 -0.02443,-0.0694 -0.03093,-0.0932 -0.05781,-0.19596 -0.05089,-0.28773 0.0032,-0.0661 0.02031,-0.13561 0.04755,-0.17975 0.02443,-0.0391 0.05773,-0.0728 0.08844,-0.0865 0.03093,-0.0119 0.08164,-0.0595 0.173288,-0.11955 0.113776,-0.0728 0.193833,-0.11509 0.395992,-0.23264 0.158071,-0.0899 0.392588,-0.22916 0.616921,-0.4178 0.224412,-0.18891 0.482664,-0.46366 0.666213,-0.84667 0.163098,-0.34268 0.24292,-0.72201 0.24292,-1.09587 0.0017,-0.37382 -0.07644,-0.73666 -0.212392,-1.06105 -0.142671,-0.32614 -0.339915,-0.60472 -0.564245,-0.8338 -0.225958,-0.23099 -0.482671,-0.41417 -0.751192,-0.55161 -0.538748,-0.27304 -1.106386,-0.35 -1.604352,-0.32984 -0.51495,0.0209 -0.987423,0.14482 -1.376609,0.2768 -0.384098,0.1391 -0.781783,0.32251 -1.063902,0.4453 -0.324605,0.14114 -0.574449,0.23822 -0.810668,0.29693 -0.222605,0.0424 -0.390891,0.0388 -0.513271,0.004 -0.01439,-0.002 -0.0307,-0.003 -0.04599,-0.0119 -0.123999,-0.0424 -0.19201,-0.1152 -0.17329,-0.15232 0.0094,-0.0128 0.01128,-0.0331 0.01439,-0.0642 0.0032,-0.0297 0.0062,-0.0627 0.02132,-0.0916 0.02132,-0.0627 0.05422,-0.17067 0.124051,-0.27123 0.05089,-0.11188 0.135977,-0.23826 0.275274,-0.38114 0.142673,-0.14667 0.329696,-0.29503 0.554056,-0.42701 0.452075,-0.29326 0.990816,-0.51129 1.689315,-0.7477 0.645816,-0.21973 1.53127,-0.48926 2.345363,-0.85395 0.438462,-0.18681 0.893932,-0.41599 1.335805,-0.70552 0.452081,-0.29501 0.899054,-0.65789 1.306944,-1.10686 0.423186,-0.46911 0.790276,-1.02256 1.0605,-1.64197 0.277113,-0.6377 0.45717,-1.36155 0.474173,-2.13675 0.01809,-0.76437 -0.127553,-1.48642 -0.368789,-2.12415 -0.248161,-0.6619 -0.610136,-1.25563 -1.04181,-1.75225 -0.914347,-1.05189 -2.071711,-1.62364 -3.111829,-1.87104 -1.204966,-0.28771 -2.335145,-0.18147 -3.203608,0.0153 -0.241364,0.0569 -0.469066,0.11914 -0.681505,0.18692 -0.802178,0.25474 -1.468384,0.59741 -1.935757,0.86312 -0.759696,0.42332 -1.515975,0.93826 -2.030931,1.27728 -0.59823,0.39399 -1.133586,0.73486 -1.67063,0.9969 -0.239557,0.11918 -0.501373,0.22536 -0.773292,0.29864 -0.217597,0.0568 -0.429984,0.0952 -0.639025,0.10614 -0.399394,0.0233 -0.7359,-0.0551 -0.963628,-0.19595 -0.132585,-0.077 -0.268486,-0.18874 -0.392589,-0.33537 -0.124051,-0.14843 -0.229342,-0.3207 -0.300831,-0.50397 -0.163093,-0.40681 -0.214241,-0.89975 -0.142672,-1.36705 0.02031,-0.29136 0.07822,-0.58458 0.171748,-0.87594 0.0731,-0.2254 0.173288,-0.45448 0.300835,-0.68538 0.299021,-0.54243 0.73249,-1.055539 1.240654,-1.497183 0.790271,-0.786162 1.714818,-1.354253 2.652959,-1.722591 1.043506,-0.410489 2.042826,-0.551601 2.919776,-0.558923 1.121691,-0.0065 2.126112,0.199605 2.91298,0.298623 0.0232,0.0018 0.04415,0.0058 0.06622,0.0065 1.244058,0.14845 2.197485,-0.164945 3.043847,-0.601071 0.820872,-0.421491 1.555075,-0.991403 2.013935,-0.99507 z m 0,0"
       id="path5"
       style="fill:url(#linearGradient7)" />
  </g>
</svg>
