<?xml version="1.0" encoding="UTF-8" standalone="no"?>
<svg
   width="62"
   height="62"
   viewBox="0 0 62 62"
   version="1.1"
   id="svg2667"
   sodipodi:docname="rubymine.svg"
   inkscape:version="1.4 (e7c3feb100, 2024-10-09)"
   xmlns:inkscape="http://www.inkscape.org/namespaces/inkscape"
   xmlns:sodipodi="http://sodipodi.sourceforge.net/DTD/sodipodi-0.dtd"
   xmlns:xlink="http://www.w3.org/1999/xlink"
   xmlns="http://www.w3.org/2000/svg"
   xmlns:svg="http://www.w3.org/2000/svg">
  <defs
     id="defs2671">
    <linearGradient
       gradientTransform="translate(-384.57145,504.5642)"
       gradientUnits="userSpaceOnUse"
       y2="503.798"
       x2="409.57101"
       y1="543.79797"
       x1="409.57101"
       id="linearGradient4165-3"
       xlink:href="#linearGradient4626" />
    <linearGradient
       id="linearGradient4626">
      <stop
         style="stop-color:#ff2323;stop-opacity:1"
         offset="0"
         id="stop13" />
      <stop
         style="stop-color:#ff5149;stop-opacity:1"
         offset="1"
         id="stop15" />
    </linearGradient>
    <linearGradient
       gradientTransform="translate(-46)"
       gradientUnits="userSpaceOnUse"
       y2="1042.3621"
       x2="86"
       y1="1012.362"
       x1="56"
       id="linearGradient4358-5"
       xlink:href="#linearGradient4662" />
    <linearGradient
       id="linearGradient4662">
      <stop
         offset="0"
         style="stop-color:#940700;stop-opacity:1"
         id="stop8" />
      <stop
         offset="1"
         style="stop-color:#000000;stop-opacity:0;"
         id="stop10" />
    </linearGradient>
    <linearGradient
       gradientUnits="userSpaceOnUse"
       y2="817.90802"
       x2="-95.411003"
       y1="1010.086"
       x1="-95.411003"
       id="linearGradient4226-6"
       xlink:href="#linearGradient4220" />
    <linearGradient
       id="linearGradient4220">
      <stop
         offset="0"
         style="stop-color:#ffd5d3;stop-opacity:1"
         id="stop2" />
      <stop
         offset="1"
         style="stop-color:#ffffff;stop-opacity:1"
         id="stop4" />
    </linearGradient>
  </defs>
  <sodipodi:namedview
     id="namedview2669"
     pagecolor="#ffffff"
     bordercolor="#000000"
     borderopacity="0.25"
     inkscape:showpageshadow="2"
     inkscape:pageopacity="0.0"
     inkscape:pagecheckerboard="0"
     inkscape:deskcolor="#d1d1d1"
     showgrid="false"
     inkscape:zoom="9.8333334"
     inkscape:cx="27.610169"
     inkscape:cy="30.915254"
     inkscape:window-width="1920"
     inkscape:window-height="994"
     inkscape:window-x="0"
     inkscape:window-y="0"
     inkscape:window-maximized="1"
     inkscape:current-layer="svg2667" />
  <g
     id="g1"
     transform="translate(71.771186,3.564574)">
    <path
       style="fill:#e25563;fill-opacity:1;fill-rule:nonzero;stroke:none;stroke-width:1.29415"
       d="m -40.771186,-0.564574 c 15.739266,0 28.5,12.536864 28.5,28 0,15.463136 -12.760734,28 -28.5,28 -15.739266,0 -28.5,-12.536864 -28.5,-28 0,-15.463136 12.760734,-28 28.5,-28 z m 0,0"
       id="path2662-6" />
    <rect
       x="-61.128326"
       y="7.4354262"
       width="40.714302"
       height="40"
       rx="6.7857623"
       ry="6.6667151"
       fill="#303030"
       style="stroke-width:5.08427;paint-order:markers stroke fill;fill:#373e48;fill-opacity:1"
       id="rect1" />
    <path
       d="m -40.771434,11.782998 h 3.186276 l 4.779454,7.826339 4.779451,-7.826339 h 3.186287 v 17.217441 h -3.186287 v -10.95637 l -4.779451,7.826348 -4.779454,-7.826348 v 10.95637 h -3.186276 m -9.559319,-17.217441 c 3.186281,0 6.372351,2.437508 6.372351,5.478443 0,2.347845 -1.500785,3.772309 -3.514418,4.893604 l 3.514418,6.84514 h -3.186285 l -3.186287,-6.26056 h -3.186283 v 6.26056 h -3.186275 V 11.782751 Z m 0,7.826339 c 2.485692,0 3.186281,-1.115036 3.230546,-2.347847 -0.04427,-1.092121 -0.704173,-2.347856 -3.230546,-2.347856 h -3.186282 v 4.695601 z"
       stroke-width="1.34514"
       id="path2"
       style="fill:#ffaaaa" />
    <path
       d="m -58.296337,39.956306 h 15.93167 v 3.130437 h -15.93167 z"
       stroke-width="1.34514"
       id="path3"
       style="fill:#ffaaaa" />
  </g>
</svg>
