<?xml version="1.0" encoding="UTF-8" standalone="no"?>
<svg
   width="62"
   height="62"
   viewBox="0 0 62 62"
   version="1.1"
   id="svg2667"
   sodipodi:docname="rustrover.svg"
   inkscape:version="1.4 (e7c3feb100, 2024-10-09)"
   xmlns:inkscape="http://www.inkscape.org/namespaces/inkscape"
   xmlns:sodipodi="http://sodipodi.sourceforge.net/DTD/sodipodi-0.dtd"
   xmlns:xlink="http://www.w3.org/1999/xlink"
   xmlns="http://www.w3.org/2000/svg"
   xmlns:svg="http://www.w3.org/2000/svg">
  <defs
     id="defs2671">
    <linearGradient
       id="linearGradient1"
       inkscape:collect="always">
      <stop
         style="stop-color:#e25563;stop-opacity:1;"
         offset="0"
         id="stop1" />
      <stop
         style="stop-color:#6f42c1;stop-opacity:1"
         offset="1"
         id="stop3" />
    </linearGradient>
    <linearGradient
       gradientTransform="translate(-384.57145,504.5642)"
       gradientUnits="userSpaceOnUse"
       y2="503.798"
       x2="409.57101"
       y1="543.79797"
       x1="409.57101"
       id="linearGradient4165-3"
       xlink:href="#linearGradient4626" />
    <linearGradient
       id="linearGradient4626">
      <stop
         style="stop-color:#ff2323;stop-opacity:1"
         offset="0"
         id="stop13" />
      <stop
         style="stop-color:#ff5149;stop-opacity:1"
         offset="1"
         id="stop15" />
    </linearGradient>
    <linearGradient
       gradientTransform="translate(-46)"
       gradientUnits="userSpaceOnUse"
       y2="1042.3621"
       x2="86"
       y1="1012.362"
       x1="56"
       id="linearGradient4358-5"
       xlink:href="#linearGradient4662" />
    <linearGradient
       id="linearGradient4662">
      <stop
         offset="0"
         style="stop-color:#940700;stop-opacity:1"
         id="stop8" />
      <stop
         offset="1"
         style="stop-color:#000000;stop-opacity:0;"
         id="stop10" />
    </linearGradient>
    <linearGradient
       gradientUnits="userSpaceOnUse"
       y2="817.90802"
       x2="-95.411003"
       y1="1010.086"
       x1="-95.411003"
       id="linearGradient4226-6"
       xlink:href="#linearGradient4220" />
    <linearGradient
       id="linearGradient4220">
      <stop
         offset="0"
         style="stop-color:#ffd5d3;stop-opacity:1"
         id="stop2" />
      <stop
         offset="1"
         style="stop-color:#ffffff;stop-opacity:1"
         id="stop4" />
    </linearGradient>
    <linearGradient
       inkscape:collect="always"
       xlink:href="#linearGradient1"
       id="linearGradient3"
       x1="33.629402"
       y1="3.1175985"
       x2="34.853474"
       y2="58.746189"
       gradientUnits="userSpaceOnUse" />
  </defs>
  <sodipodi:namedview
     id="namedview2669"
     pagecolor="#ffffff"
     bordercolor="#000000"
     borderopacity="0.25"
     inkscape:showpageshadow="2"
     inkscape:pageopacity="0.0"
     inkscape:pagecheckerboard="0"
     inkscape:deskcolor="#d1d1d1"
     showgrid="false"
     inkscape:zoom="9.8333334"
     inkscape:cx="10.983051"
     inkscape:cy="30.915254"
     inkscape:window-width="1920"
     inkscape:window-height="998"
     inkscape:window-x="0"
     inkscape:window-y="0"
     inkscape:window-maximized="1"
     inkscape:current-layer="svg2667" />
  <path
     style="fill:url(#linearGradient3);fill-opacity:1;fill-rule:nonzero;stroke:none;stroke-width:1.29415"
     d="M 31,3 C 46.739266,3 59.5,15.536864 59.5,31 59.5,46.463136 46.739266,59 31,59 15.260734,59 2.5,46.463136 2.5,31 2.5,15.536864 15.260734,3 31,3 Z m 0,0"
     id="path2662-6" />
  <rect
     x="10.642859"
     y="11"
     width="40.714302"
     height="40"
     rx="6.7857623"
     ry="6.6667151"
     fill="#303030"
     style="fill:#373e48;fill-opacity:1;stroke-width:5.08427;paint-order:markers stroke fill"
     id="rect1" />
  <g
     id="g1"
     transform="matrix(1.0001838,0,0,0.99761177,-2.0060654,0.99254211)">
    <path
       style="opacity:0.2;fill:none;stroke:#000000;stroke-width:4;stroke-linecap:round"
       d="M 21,44.616215 H 37"
       id="path5" />
    <path
       style="fill:none;stroke:#ffffff;stroke-width:4;stroke-linecap:round"
       d="M 21,43.616215 H 37"
       id="path6" />
    <path
       style="opacity:0.2;fill:none;stroke:#000000;stroke-width:4;stroke-linecap:round"
       d="m 29,32.616215 -4,-6 m -4,-2 c 0,0 8,0.929 8,-4 0,-4.929 -8,-4 -8,-4 m 0,16 v -16"
       id="path7" />
    <path
       style="fill:none;stroke:#ffffff;stroke-width:4;stroke-linecap:round"
       d="m 29,31.616215 -4,-6 m -4,-2 c 0,0 8,0.929 8,-4 0,-4.929 -8,-4 -8,-4 m 0,16 v -16"
       id="path8" />
    <path
       style="opacity:0.2;fill:none;stroke:#000000;stroke-width:4;stroke-linecap:round"
       d="m 45,32.616215 -4,-6 m -4,-2 c 0,0 8,0.929 8,-4 0,-4.929 -8,-4 -8,-4 m 0,16 v -16"
       id="path10" />
    <path
       style="fill:none;stroke:#ffffff;stroke-width:4;stroke-linecap:round"
       d="m 45,31.616215 -4,-6 m -4,-2 c 0,0 8,0.929 8,-4 0,-4.929 -8,-4 -8,-4 m 0,16 v -16"
       id="path11" />
  </g>
</svg>
