<?xml version="1.0" encoding="UTF-8" standalone="no"?>
<svg
   width="62"
   height="62"
   version="1.1"
   id="svg5"
   sodipodi:docname="rustdesk.svg"
   inkscape:version="1.4 (unknown)"
   xmlns:inkscape="http://www.inkscape.org/namespaces/inkscape"
   xmlns:sodipodi="http://sodipodi.sourceforge.net/DTD/sodipodi-0.dtd"
   xmlns:xlink="http://www.w3.org/1999/xlink"
   xmlns="http://www.w3.org/2000/svg"
   xmlns:svg="http://www.w3.org/2000/svg">
  <defs
     id="defs5">
    <linearGradient
       id="linearGradient8"
       inkscape:collect="always">
      <stop
         style="stop-color:#2d3d53;stop-opacity:1;"
         offset="0"
         id="stop8" />
      <stop
         style="stop-color:#354864;stop-opacity:1;"
         offset="1"
         id="stop10" />
    </linearGradient>
    <linearGradient
       id="linearGradient4217">
      <stop
         style="stop-color:#000000;stop-opacity:1;"
         offset="0"
         id="stop2" />
      <stop
         style="stop-color:#000000;stop-opacity:0;"
         offset="1"
         id="stop4" />
    </linearGradient>
    <linearGradient
       id="linearGradient4161">
      <stop
         style="stop-color:#334545;stop-opacity:1;"
         offset="0"
         id="stop7" />
      <stop
         style="stop-color:#4d6868;stop-opacity:1"
         offset="1"
         id="stop9" />
    </linearGradient>
    <linearGradient
       id="a-1-2"
       y1="510.79999"
       y2="527.14001"
       gradientUnits="userSpaceOnUse"
       x2="0">
      <stop
         stop-color="#7cbaf8"
         id="stop2-2-7" />
      <stop
         offset="1"
         stop-color="#f4fcff"
         id="stop4-70-0" />
    </linearGradient>
    <linearGradient
       id="c"
       y1="503.79999"
       x1="400.57001"
       y2="519.79999"
       x2="416.57001"
       gradientUnits="userSpaceOnUse">
      <stop
         stop-color="#292c2f"
         id="stop12" />
      <stop
         offset="1"
         stop-opacity="0"
         id="stop14" />
    </linearGradient>
    <linearGradient
       id="b"
       y1="542.79999"
       x1="408.57001"
       y2="521.79999"
       x2="387.57001"
       gradientUnits="userSpaceOnUse"
       gradientTransform="translate(-384.57,-499.8)">
      <stop
         stop-color="#197cf1"
         id="stop7-8" />
      <stop
         offset="1"
         stop-color="#20bcfa"
         id="stop9-7" />
    </linearGradient>
    <linearGradient
       xlink:href="#linearGradient1389"
       id="linearGradient4503-5-6"
       y1="37"
       y2="4"
       x2="0"
       gradientUnits="userSpaceOnUse"
       gradientTransform="matrix(1.0218446,0,0,0.99999999,21.748946,8.2587777)" />
    <linearGradient
       id="linearGradient1389">
      <stop
         style="stop-color:#ffaaaa;stop-opacity:1"
         id="stop1385"
         offset="0" />
      <stop
         offset="1"
         style="stop-color:#ff5555;stop-opacity:1"
         id="stop1387" />
    </linearGradient>
    <linearGradient
       id="paint543_linear_890_11"
       x1="978.5"
       y1="298"
       x2="978.5"
       y2="304"
       gradientUnits="userSpaceOnUse"
       gradientTransform="matrix(0.75000004,0,0,0.75000004,-717.38333,-173.49123)">
      <stop
         offset="0.189495"
         stop-color="#EFF2F6"
         id="stop1829" />
      <stop
         offset="0.850463"
         stop-color="#B7C6CD"
         id="stop1830" />
    </linearGradient>
    <linearGradient
       inkscape:collect="always"
       xlink:href="#linearGradient8"
       id="linearGradient10"
       x1="31.5"
       y1="59.017544"
       x2="31.5"
       y2="4.9824562"
       gradientUnits="userSpaceOnUse"
       gradientTransform="translate(-0.5,-1)" />
    <linearGradient
       id="linearGradient4144">
      <stop
         style="stop-color:#c83771;stop-opacity:1"
         offset="0"
         id="stop1141" />
      <stop
         style="stop-color:#de87aa;stop-opacity:1"
         offset="1"
         id="stop1143" />
    </linearGradient>
    <linearGradient
       id="c-0"
       gradientUnits="userSpaceOnUse"
       x1="10"
       x2="24"
       y1="10"
       y2="24"
       gradientTransform="translate(59.728813,26.237288)">
      <stop
         offset="0"
         stop-color="#292c2f"
         id="stop12-2" />
      <stop
         offset="1"
         stop-opacity="0"
         id="stop14-3" />
    </linearGradient>
    <linearGradient
       id="d"
       gradientUnits="userSpaceOnUse"
       x1="24"
       x2="24"
       y1="25"
       y2="7"
       gradientTransform="translate(59.728813,26.237288)">
      <stop
         offset="0"
         stop-color="#bb9d71"
         id="stop2-7" />
      <stop
         offset="1"
         stop-color="#f9f2e7"
         id="stop4-5" />
    </linearGradient>
    <filter
       id="c-3"
       width="1.1245312"
       height="1.1156488"
       x="-0.062265594"
       y="-0.057824417"
       color-interpolation-filters="sRGB">
      <feGaussianBlur
         stdDeviation=".665"
         id="feGaussianBlur1" />
    </filter>
  </defs>
  <sodipodi:namedview
     id="namedview5"
     pagecolor="#ffffff"
     bordercolor="#000000"
     borderopacity="0.25"
     inkscape:showpageshadow="2"
     inkscape:pageopacity="0.0"
     inkscape:pagecheckerboard="0"
     inkscape:deskcolor="#d1d1d1"
     inkscape:zoom="8.2643105"
     inkscape:cx="25.349967"
     inkscape:cy="50.034422"
     inkscape:window-width="1920"
     inkscape:window-height="998"
     inkscape:window-x="0"
     inkscape:window-y="0"
     inkscape:window-maximized="1"
     inkscape:current-layer="svg5" />
  <g
     id="g1">
    <rect
       style="opacity:0.2;stroke-width:0.9823"
       width="55"
       height="55.017544"
       x="3.5"
       y="3.9824562"
       rx="8.25"
       ry="8.2526312"
       id="rect1" />
    <rect
       style="fill:url(#linearGradient10);stroke-width:0.9823"
       width="55"
       height="55.017544"
       x="3.5"
       y="3"
       rx="8.25"
       ry="8.2526312"
       id="rect2" />
    <path
       style="opacity:0.1;fill:#ffffff;stroke-width:0.9823"
       d="M 11.748466,3 C 7.1779652,3 3.5,6.6791384 3.5,11.251097 v 0.982456 c 0,-4.5719585 3.6779652,-8.2510969 8.248466,-8.2510969 h 38.503068 c 4.5705,0 8.248466,3.6791384 8.248466,8.2510969 V 11.251097 C 58.5,6.6791384 54.822034,3 50.251534,3 Z"
       id="path4" />
  </g>
  <g
     id="g2"
     transform="translate(-0.500017,6.4646202e-5)">
    <path
       style="opacity:0.2;stroke-width:1.02471"
       d="m 28.368941,11.516072 c -0.05473,0.0015 -0.112297,0.0062 -0.172161,0.01202 0,0 -0.953871,0.220718 -1.485446,0.336124 -8.176227,2.12653 -14.62124,9.091899 -15.667289,18.747092 -0.02799,0.471983 -0.03932,0.934498 -0.04403,1.392529 0.0046,0.458023 0.01611,0.920538 0.04403,1.392526 1.046049,9.655193 7.491062,16.620546 15.667282,18.747091 0.531575,0.115407 1.485446,0.336125 1.485446,0.336125 0.11972,0.0113 0.228955,0.0152 0.328319,0.0078 0.695522,-0.05077 0.911166,-0.558827 0.924903,-1.512559 v -5.093928 c 0,0 0.02097,-0.660808 -1.077052,-0.95236 -5.934635,-1.425989 -10.196127,-6.739475 -10.201947,-12.924888 0.0057,-6.185416 4.267312,-11.498899 10.201946,-12.92489 1.097949,-0.291551 1.077052,-0.952358 1.077052,-0.952358 v -5.093928 c -0.0137,-0.953734 -0.229381,-1.461766 -0.924903,-1.51257 -0.04969,-0.0035 -0.101429,-0.0054 -0.15615,-0.0039 z m 6.26211,0 c -0.05471,-0.0015 -0.10648,3.75e-4 -0.156151,0.0039 -0.695524,0.0508 -0.91117,0.558842 -0.924906,1.512576 v 5.093939 c 0,0 -0.02089,0.660806 1.077051,0.95236 5.934638,1.425989 10.196209,6.739473 10.20195,12.924891 -0.0056,6.185411 -4.267312,11.498896 -10.20195,12.924885 -1.098018,0.291553 -1.077051,0.952363 -1.077051,0.952363 v 5.093926 c 0.0137,0.95373 0.229382,1.46178 0.924902,1.51257 0.0994,0.007 0.208604,0.0032 0.328319,-0.0078 0,0 0.953871,-0.220719 1.485452,-0.336127 8.176219,-2.126544 14.621232,-9.091899 15.667282,-18.747091 0.0279,-0.472 0.0393,-0.934515 0.04407,-1.392536 -0.0046,-0.458031 -0.0161,-0.920547 -0.04407,-1.39253 -1.046051,-9.65524 -7.491066,-16.620608 -15.667282,-18.747139 -0.531581,-0.115402 -1.485452,-0.336124 -1.485452,-0.336124 -0.05984,-0.0055 -0.117431,-0.01049 -0.172164,-0.01202 z"
       id="path2-9" />
    <path
       style="fill:#5599ff;stroke-width:1.02471"
       d="m 28.368941,10.491684 c -0.05473,0.0015 -0.112297,0.0062 -0.172161,0.01202 0,0 -0.953871,0.220719 -1.485446,0.336124 -8.176227,2.126527 -14.62124,9.091898 -15.667289,18.747091 -0.02799,0.471984 -0.03932,0.934499 -0.04403,1.39253 0.0046,0.458022 0.01611,0.920537 0.04403,1.392525 1.046049,9.655193 7.491062,16.620547 15.667282,18.747092 0.531575,0.115408 1.485446,0.336125 1.485446,0.336125 0.11972,0.0113 0.228955,0.0152 0.328319,0.0078 0.695522,-0.05077 0.911166,-0.558828 0.924903,-1.512558 v -5.09391 c 0,0 0.02097,-0.660809 -1.077052,-0.952362 -5.934635,-1.42597 -10.196127,-6.739456 -10.201947,-12.92487 0.0057,-6.185414 4.267312,-11.498897 10.201946,-12.924889 1.097949,-0.291553 1.077052,-0.952359 1.077052,-0.952359 V 12.00817 c -0.0137,-0.953734 -0.229381,-1.461764 -0.924903,-1.512568 -0.04969,-0.0035 -0.101429,-0.0054 -0.15615,-0.0039 z m 6.26211,0 c -0.05471,-0.0015 -0.10648,3.76e-4 -0.156151,0.0039 -0.695524,0.0508 -0.91117,0.558841 -0.924906,1.512575 v 5.093928 c 0,0 -0.02089,0.660805 1.077051,0.952359 5.934638,1.425992 10.196209,6.739475 10.20195,12.924891 -0.0056,6.185413 -4.267312,11.498898 -10.20195,12.924887 -1.098018,0.291553 -1.077051,0.952364 -1.077051,0.952364 v 5.093925 c 0.0137,0.95373 0.229382,1.46178 0.924902,1.512569 0.0994,0.007 0.208604,0.0032 0.328319,-0.0078 0,0 0.953871,-0.220717 1.485452,-0.336126 8.176219,-2.126544 14.621232,-9.091899 15.667282,-18.747091 0.0279,-0.472 0.0393,-0.934513 0.04407,-1.392537 -0.0046,-0.458031 -0.0161,-0.920545 -0.04407,-1.392529 -1.046051,-9.65524 -7.491066,-16.620608 -15.667282,-18.747138 -0.531581,-0.115404 -1.485452,-0.336124 -1.485452,-0.336124 -0.05984,-0.0055 -0.117431,-0.01053 -0.172164,-0.01202 z"
       id="path3-1" />
  </g>
</svg>
