<?xml version="1.0" encoding="UTF-8" standalone="no"?>
<svg
   width="62"
   height="62"
   version="1.1"
   id="svg5"
   sodipodi:docname="sagebackend.svg"
   inkscape:version="1.4 (e7c3feb100, 2024-10-09)"
   xmlns:inkscape="http://www.inkscape.org/namespaces/inkscape"
   xmlns:sodipodi="http://sodipodi.sourceforge.net/DTD/sodipodi-0.dtd"
   xmlns:xlink="http://www.w3.org/1999/xlink"
   xmlns="http://www.w3.org/2000/svg"
   xmlns:svg="http://www.w3.org/2000/svg">
  <defs
     id="defs5">
    <linearGradient
       id="linearGradient1"
       inkscape:collect="always">
      <stop
         style="stop-color:#2f2fe4;stop-opacity:1;"
         offset="0"
         id="stop1" />
      <stop
         style="stop-color:#8585ef;stop-opacity:1;"
         offset="1"
         id="stop3" />
    </linearGradient>
    <linearGradient
       id="linearGradient8"
       inkscape:collect="always">
      <stop
         style="stop-color:#2d3d53;stop-opacity:1;"
         offset="0"
         id="stop8" />
      <stop
         style="stop-color:#354864;stop-opacity:1;"
         offset="1"
         id="stop10" />
    </linearGradient>
    <linearGradient
       id="linearGradient4217">
      <stop
         style="stop-color:#000000;stop-opacity:1;"
         offset="0"
         id="stop2" />
      <stop
         style="stop-color:#000000;stop-opacity:0;"
         offset="1"
         id="stop4" />
    </linearGradient>
    <linearGradient
       id="linearGradient4161">
      <stop
         style="stop-color:#334545;stop-opacity:1;"
         offset="0"
         id="stop7" />
      <stop
         style="stop-color:#4d6868;stop-opacity:1"
         offset="1"
         id="stop9" />
    </linearGradient>
    <linearGradient
       id="a-1-2"
       y1="510.79999"
       y2="527.14001"
       gradientUnits="userSpaceOnUse"
       x2="0">
      <stop
         stop-color="#7cbaf8"
         id="stop2-2-7" />
      <stop
         offset="1"
         stop-color="#f4fcff"
         id="stop4-70-0" />
    </linearGradient>
    <linearGradient
       id="c"
       y1="503.79999"
       x1="400.57001"
       y2="519.79999"
       x2="416.57001"
       gradientUnits="userSpaceOnUse">
      <stop
         stop-color="#292c2f"
         id="stop12" />
      <stop
         offset="1"
         stop-opacity="0"
         id="stop14" />
    </linearGradient>
    <linearGradient
       id="b"
       y1="542.79999"
       x1="408.57001"
       y2="521.79999"
       x2="387.57001"
       gradientUnits="userSpaceOnUse"
       gradientTransform="translate(-384.57,-499.8)">
      <stop
         stop-color="#197cf1"
         id="stop7-8" />
      <stop
         offset="1"
         stop-color="#20bcfa"
         id="stop9-7" />
    </linearGradient>
    <linearGradient
       xlink:href="#linearGradient1389"
       id="linearGradient4503-5-6"
       y1="37"
       y2="4"
       x2="0"
       gradientUnits="userSpaceOnUse"
       gradientTransform="matrix(1.0218446,0,0,0.99999999,21.748946,8.2587777)" />
    <linearGradient
       id="linearGradient1389">
      <stop
         style="stop-color:#ffaaaa;stop-opacity:1"
         id="stop1385"
         offset="0" />
      <stop
         offset="1"
         style="stop-color:#ff5555;stop-opacity:1"
         id="stop1387" />
    </linearGradient>
    <linearGradient
       id="paint543_linear_890_11"
       x1="978.5"
       y1="298"
       x2="978.5"
       y2="304"
       gradientUnits="userSpaceOnUse"
       gradientTransform="matrix(0.75000004,0,0,0.75000004,-717.38333,-173.49123)">
      <stop
         offset="0.189495"
         stop-color="#EFF2F6"
         id="stop1829" />
      <stop
         offset="0.850463"
         stop-color="#B7C6CD"
         id="stop1830" />
    </linearGradient>
    <linearGradient
       inkscape:collect="always"
       xlink:href="#linearGradient8"
       id="linearGradient10"
       x1="31.5"
       y1="59.017544"
       x2="31.5"
       y2="4.9824562"
       gradientUnits="userSpaceOnUse" />
    <linearGradient
       id="linearGradient4144">
      <stop
         style="stop-color:#c83771;stop-opacity:1"
         offset="0"
         id="stop1141" />
      <stop
         style="stop-color:#de87aa;stop-opacity:1"
         offset="1"
         id="stop1143" />
    </linearGradient>
    <linearGradient
       id="c-0"
       gradientUnits="userSpaceOnUse"
       x1="10"
       x2="24"
       y1="10"
       y2="24"
       gradientTransform="translate(59.728813,26.237288)">
      <stop
         offset="0"
         stop-color="#292c2f"
         id="stop12-2" />
      <stop
         offset="1"
         stop-opacity="0"
         id="stop14-3" />
    </linearGradient>
    <linearGradient
       id="d"
       gradientUnits="userSpaceOnUse"
       x1="24"
       x2="24"
       y1="25"
       y2="7"
       gradientTransform="translate(59.728813,26.237288)">
      <stop
         offset="0"
         stop-color="#bb9d71"
         id="stop2-7" />
      <stop
         offset="1"
         stop-color="#f9f2e7"
         id="stop4-5" />
    </linearGradient>
    <linearGradient
       inkscape:collect="always"
       xlink:href="#linearGradient1"
       id="linearGradient3"
       x1="32.433418"
       y1="52.491222"
       x2="31.292597"
       y2="12.491233"
       gradientUnits="userSpaceOnUse" />
  </defs>
  <sodipodi:namedview
     id="namedview5"
     pagecolor="#ffffff"
     bordercolor="#000000"
     borderopacity="0.25"
     inkscape:showpageshadow="2"
     inkscape:pageopacity="0.0"
     inkscape:pagecheckerboard="0"
     inkscape:deskcolor="#d1d1d1"
     inkscape:zoom="8.2643105"
     inkscape:cx="37.208186"
     inkscape:cy="37.389689"
     inkscape:window-width="1920"
     inkscape:window-height="994"
     inkscape:window-x="0"
     inkscape:window-y="0"
     inkscape:window-maximized="1"
     inkscape:current-layer="svg5" />
  <rect
     style="opacity:0.2;stroke-width:0.9823"
     width="55"
     height="55.017544"
     x="4"
     y="4.9824562"
     rx="8.25"
     ry="8.2526312"
     id="rect1" />
  <rect
     style="fill:url(#linearGradient10);stroke-width:0.9823"
     width="55"
     height="55.017544"
     x="4"
     y="4"
     rx="8.25"
     ry="8.2526312"
     id="rect2" />
  <path
     style="opacity:0.1;fill:#ffffff;stroke-width:0.9823"
     d="M 12.248466,4 C 7.6779652,4 4,7.6791384 4,12.251097 v 0.982456 C 4,8.6615945 7.6779652,4.9824561 12.248466,4.9824561 H 50.751534 C 55.322034,4.9824561 59,8.6615945 59,13.233553 V 12.251097 C 59,7.6791384 55.322034,4 50.751534,4 Z"
     id="path4" />
  <path
     style="opacity:0.99;fill:url(#linearGradient3);fill-opacity:1;stroke:none;stroke-width:1.53846"
     d="m 24.967329,12.491233 c -0.833692,0 -1.507539,0.670139 -1.507539,1.497584 0,0.325508 0.123839,0.623848 0.301508,0.86957 l -3.768863,4.299525 c -0.150616,-0.03969 -0.289046,-0.09661 -0.452248,-0.09661 -1.013845,0 -1.859307,0.829477 -1.859307,1.835738 0,0.03815 0.048,0.05922 0.0503,0.09662 l -3.316564,2.173908 c -0.244476,-0.169198 -0.533662,-0.289845 -0.854277,-0.289845 -0.833677,0 -1.507539,0.670124 -1.507539,1.497585 0,0.504431 0.268308,0.936201 0.653262,1.207723 L 12.103048,36.79075 c -0.36737,0.199308 -0.603016,0.617969 -0.603016,1.0628 0,0.648646 0.552523,1.159432 1.206031,1.159432 0.03461,0 0.06677,0.0031 0.100454,0 l 8.241218,8.357481 c -7.38e-4,0.0169 0,0.0312 0,0.0483 0,0.64864 0.502263,1.20772 1.155771,1.20772 0.23183,0 0.470722,-0.0789 0.653261,-0.19325 l 4.522632,2.36716 c -0.0092,0.0674 -0.0503,0.12338 -0.0503,0.19324 0,0.82747 0.673862,1.49759 1.507539,1.49759 0.780523,0 1.378616,-0.59857 1.457278,-1.35268 l 12.060312,-3.52655 c 0.273922,0.3789 0.750569,0.62801 1.256277,0.62801 0.833662,0 1.507539,-0.6701 1.507539,-1.49758 0,-0.34983 -0.149231,-0.66289 -0.351739,-0.91788 l 5.226124,-11.449265 c 0.833647,0 1.50754,-0.670123 1.50754,-1.497586 0,-0.726031 -0.51531,-1.3118 -1.206032,-1.449277 l -1.658309,-5.458941 c 0.260154,-0.21543 0.452278,-0.506969 0.452278,-0.869569 0,-0.648616 -0.552554,-1.159416 -1.206032,-1.159416 -0.05569,0 -0.09707,0.04092 -0.150769,0.04831 l -7.587941,-9.178741 c 0.0107,-0.06261 0.05015,-0.127839 0.05015,-0.193231 0,-0.648647 -0.55254,-1.159431 -1.206032,-1.159431 -0.389169,0 -0.688861,0.195277 -0.904522,0.483092 L 26.374221,13.505726 C 26.168374,12.921311 25.62622,12.491233 24.96719,12.491233 Z m 1.407031,2.028985 11.507542,0.43477 c 0.07569,0.262354 0.232386,0.475508 0.452263,0.628031 l -0.301508,1.304355 c -0.538509,0.124923 -0.966047,0.485738 -1.206031,0.966185 l -12.864329,1.545877 0.854278,-3.96134 c 0.05661,0.0062 0.09231,0.04831 0.150769,0.04831 0.642139,0 1.188909,-0.405169 1.407032,-0.966199 z m 13.11559,1.159416 7.386926,8.937203 c -0.07739,0.156154 -0.15077,0.297247 -0.15077,0.483078 0,0.324338 0.137539,0.608722 0.351769,0.821277 l -0.603016,1.690816 -6.432156,-8.115942 c 0.141231,-0.258184 0.251262,-0.555108 0.251262,-0.869569 0,-0.787647 -0.50103,-1.436477 -1.206031,-1.690815 l 0.251247,-1.207724 c 0.05184,-0.01678 0.102461,-0.02476 0.150769,-0.04831 z m -15.276406,0.241553 -0.804016,3.526572 -2.462309,0.289862 c -0.01377,-0.01785 -0.03491,-0.03108 -0.05015,-0.04831 l 3.316572,-3.768126 z m 12.663343,4.009663 -3.718601,14.39613 c -0.116454,0.02631 -0.242785,0.05338 -0.351754,0.09662 l -9.547758,-10.772942 4.472372,-0.483077 c 0.200814,0.364615 0.60709,0.628015 1.055276,0.628015 0.653492,0 1.155785,-0.559092 1.155785,-1.207738 0,-0.08954 -0.03108,-0.157601 -0.0503,-0.241555 l 6.432172,-2.367123 0.552754,-0.04831 z m -2.763831,0.289847 -4.472372,1.642523 c -0.217032,-0.25823 -0.48897,-0.434784 -0.854263,-0.434784 -0.653508,0 -1.206031,0.510784 -1.206031,1.1594 0,0.016 -5.99e-4,0.03276 0,0.04831 l -4.422109,0.531415 0.351754,-1.739139 10.60302,-1.207738 z m 4.773877,0.24154 6.984926,8.888894 -1.457293,4.057972 -8.74371,2.029 C 35.541786,35.202164 35.369809,35.03441 35.168332,34.85838 Z m -15.979912,1.0628 -0.301508,1.400984 -1.105539,-1.256046 1.407047,-0.144923 z m -4.77388,0.483108 c 0.08923,0.107385 0.190123,0.205245 0.301523,0.289861 l -0.251262,1.400954 -3.165831,0.386478 c -0.0031,-0.016 0.0031,-0.03262 0,-0.04831 z m 1.306538,0.676323 c 0.03415,0.0015 0.06585,0 0.100455,0 0.03461,0 0.06646,0.0015 0.100454,0 l 0.703525,0.772939 -1.055293,0.144923 0.150768,-0.917877 z m 1.356787,1.256047 1.306538,1.44926 -0.60303,2.657002 c -0.628662,0.02784 -1.105524,0.5286 -1.105524,1.159432 0,0.365953 0.187924,0.654169 0.452262,0.869568 l -3.969847,5.990342 2.311554,-11.932373 z m -2.71357,0.289861 -2.512555,12.995159 c -0.445493,0.08862 -0.795185,0.388169 -1.005046,0.772938 L 13.861801,37.85355 c 0,-0.486476 -0.278831,-0.932815 -0.703522,-1.111108 l 0.602999,-10.917881 c 0.6676,-0.09108 1.164493,-0.5934 1.256294,-1.256031 l 3.065324,-0.338169 z m 4.422124,1.690816 8.944725,9.999988 c -0.01723,0.06246 -0.03846,0.128762 -0.05031,0.193231 l -14.472373,1.545908 c -0.09338,-0.09278 -0.186169,-0.175555 -0.301508,-0.241555 l 4.623125,-7.101448 c 0.09908,0.02677 0.193876,0.04831 0.301508,0.04831 0.653492,0 1.206031,-0.510769 1.206031,-1.159415 0,-0.463769 -0.310277,-0.871923 -0.703524,-1.062815 l 0.452263,-2.222202 z m 25.025132,0.289847 c 0.03139,0.0092 0.06815,-0.0078 0.100454,0 l 1.3568,4.637678 -2.110571,-2.753632 0.653262,-1.884046 z m -1.30654,3.623185 2.110557,2.657 -3.316586,0.772954 z m 2.26131,4.154586 -4.773879,10.386483 0.100454,-6.473435 c 0.504506,-0.102462 0.904524,-0.53174 0.904524,-1.062801 0,-0.430584 -0.289939,-0.785938 -0.653262,-0.96617 l 0.351754,-0.917892 4.070356,-0.966185 z m -4.623124,1.111123 -0.251247,0.628016 c -0.611492,0 -1.105539,0.5042 -1.105539,1.111108 0,0.506954 0.333739,0.93597 0.804016,1.062801 l -0.150769,7.391315 c -0.368709,0.11276 -0.665893,0.39841 -0.854263,0.72464 l -6.582909,-1.44929 c 0,-0.64862 -0.552554,-1.15942 -1.206047,-1.15942 -0.6362,0 -1.179,0.48626 -1.206032,1.11113 l -1.608046,0.38646 2.010047,-6.086958 c 1.099584,-0.02431 2.020123,-0.841492 2.211061,-1.884062 l 7.939695,-1.83574 z m -12.211051,2.512062 c 0.137993,0.252078 0.332938,0.49337 0.552753,0.676339 l -2.311554,7.053139 -4.824124,1.20773 -7.788957,-7.294684 c 0.0107,-0.02939 0.04062,-0.06631 0.0503,-0.09661 l 14.32162,-1.545893 z m -17.437192,1.256048 0.201001,0.04831 c 0.0092,0.05955 -0.01631,0.136308 0,0.193231 L 14.213555,38.86803 Z m 1.206017,1.207738 c 0.14293,0.04445 0.294538,0.09661 0.452277,0.09661 0.0337,0 0.06724,0.0015 0.100454,0 l 6.58291,6.135262 c -0.103546,-0.0294 -0.238647,-0.0483 -0.351754,-0.0483 -0.23183,0 -0.420462,0.0789 -0.603001,0.19326 l -6.180926,-6.376832 z m 17.98996,4.927522 c 0.169277,0.44319 0.599708,0.72465 1.105538,0.72465 0.490124,0 0.925894,-0.2548 1.105525,-0.67634 l 5.728648,1.25605 -11.155789,3.23671 1.356785,-4.10628 z m -3.668324,0.91788 -1.206047,3.62319 c -0.06646,0.0123 -0.137993,0.0265 -0.201,0.0483 l -2.864325,-2.657 z m -6.030172,1.44928 0.75377,0.72464 -1.055278,-0.57972 c 0.0015,-0.0306 0,-0.0654 0,-0.0966 z"
     id="path14-3" />
</svg>
