<?xml version="1.0" encoding="UTF-8" standalone="no"?>
<svg
   width="62"
   height="62"
   version="1"
   id="svg11"
   sodipodi:docname="seahorse.svg"
   inkscape:version="1.4 (e7c3feb100, 2024-10-09)"
   xmlns:inkscape="http://www.inkscape.org/namespaces/inkscape"
   xmlns:sodipodi="http://sodipodi.sourceforge.net/DTD/sodipodi-0.dtd"
   xmlns="http://www.w3.org/2000/svg"
   xmlns:svg="http://www.w3.org/2000/svg">
  <defs
     id="defs11" />
  <sodipodi:namedview
     id="namedview11"
     pagecolor="#ffffff"
     bordercolor="#000000"
     borderopacity="0.25"
     inkscape:showpageshadow="2"
     inkscape:pageopacity="0.0"
     inkscape:pagecheckerboard="0"
     inkscape:deskcolor="#d1d1d1"
     inkscape:zoom="11.78125"
     inkscape:cx="31.95756"
     inkscape:cy="32.084881"
     inkscape:window-width="1920"
     inkscape:window-height="994"
     inkscape:window-x="0"
     inkscape:window-y="0"
     inkscape:window-maximized="1"
     inkscape:current-layer="svg11" />
  <g
     id="g11"
     transform="matrix(0.98333333,0,0,0.98245614,-0.46666656,-0.92982455)">
    <path
       style="opacity:0.2"
       d="M 6.2853338,9 C 3.9110482,9 2,10.866292 2,13.183019 v 4.069922 H 62 V 13.183019 C 62,10.866292 60.088952,9 57.714666,9 Z M 2,26.5 V 50.81698 C 2,53.133708 3.9110482,55 6.2853338,55 H 57.714666 C 60.088952,55 62,53.133708 62,50.81698 V 26.5 Z"
       id="path1" />
    <path
       style="fill:#27a56b;fill-opacity:1"
       d="M 6.2853338,8 C 3.9110482,8 2,9.8662918 2,12.183019 v 4.069922 H 62 V 12.183019 C 62,9.8662918 60.088952,8 57.714666,8 Z M 2,25.5 V 49.81698 C 2,52.133708 3.9110482,54 6.2853338,54 H 57.714666 C 60.088952,54 62,52.133708 62,49.81698 V 25.5 Z"
       id="path2" />
    <path
       style="opacity:0.2;fill:#ffffff"
       d="M 6.2851562,8 C 3.9108706,8 2,9.866866 2,12.183594 v 1 C 2,10.866866 3.9108706,9 6.2851562,9 H 57.714844 C 60.08913,9 62,10.866866 62,13.183594 v -1 C 62,9.866866 60.08913,8 57.714844,8 Z"
       id="path3" />
    <rect
       style="opacity:0.1"
       width="60"
       height="1"
       x="2"
       y="26"
       id="rect3" />
    <path
       style="opacity:0.2"
       d="m 12,30 -4,4 4,4 z m 1.033203,0 v 8 H 14 V 30 Z M 15,30 v 8 h 3 v -8 z m 4,0 v 8 h 2 v -8 z m 3,0 v 8 h 1 v -8 z m 2,0 v 8 h 1 v -8 z m 2,0 v 8 h 2 v -8 z m 3,0 v 8 h 3 v -8 z m 4,0 v 8 h 2 v -8 z m 3,0 v 8 h 1 v -8 z m 2,0 v 8 h 1 v -8 z m 2,0 v 8 h 1 v -8 z m 2,0 v 8 h 1 v -8 z m 2,0 v 8 h 3 v -8 z m 4,0 v 8 h 1 v -8 z m 2,0 v 8 h 3 v -8 z m 4,0 v 8 h 2 v -8 z"
       id="path4" />
    <path
       style="opacity:0.2"
       d="M 8.7015624,43 9.303125,45.535156 7.3460938,43.894532 6.615625,45.191406 9.13125,46.019532 6.6,46.8125 7.31875,48.136718 9.3070312,46.484376 8.7015624,49 h 1.7148436 l -0.554687,-2.480468 1.925781,1.660156 0.742188,-1.308594 -2.5,-0.84375 L 12.6,45.3125 11.869531,44.003906 9.842188,45.542968 10.416406,43 Z m 8.9999996,0 0.601563,2.535156 -1.957031,-1.640624 -0.730469,1.296874 2.515625,0.828126 L 15.6,46.8125 16.31875,48.136718 18.307031,46.484376 17.701562,49 h 1.714844 l -0.554687,-2.480468 1.925781,1.660156 0.742188,-1.308594 -2.5,-0.84375 L 21.6,45.3125 20.869532,44.003906 18.842188,45.542968 19.416406,43 Z m 9,0 0.601562,2.535156 -1.95703,-1.640624 -0.73047,1.296874 2.515626,0.828126 L 24.6,46.8125 25.31875,48.136718 27.307032,46.484376 26.701562,49 h 1.714844 l -0.554688,-2.480468 1.925782,1.660156 0.742188,-1.308594 -2.5,-0.84375 L 30.6,45.3125 29.869532,44.003906 27.842188,45.542968 28.416406,43 Z m 9,0 0.601562,2.535156 -1.95703,-1.640624 -0.73047,1.296874 2.515626,0.828126 L 33.6,46.8125 34.31875,48.136718 36.307032,46.484376 35.701562,49 h 1.714844 l -0.554688,-2.480468 1.925782,1.660156 0.742188,-1.308594 -2.5,-0.84375 L 39.6,45.3125 38.869532,44.003906 36.842188,45.542968 37.416406,43 Z m 9,0 0.601562,2.535156 -1.95703,-1.640624 -0.73047,1.296874 2.515626,0.828126 L 42.6,46.8125 43.31875,48.136718 45.307032,46.484376 44.701562,49 h 1.714844 l -0.554688,-2.480468 1.925782,1.660156 0.742188,-1.308594 -2.5,-0.84375 L 48.6,45.3125 47.869532,44.003906 45.842188,45.542968 46.416406,43 Z m 9,0 0.601562,2.535156 -1.95703,-1.640624 -0.73047,1.296874 2.515626,0.828126 L 51.6,46.8125 52.31875,48.136718 54.307032,46.484376 53.701562,49 h 1.714844 l -0.554688,-2.480468 1.925782,1.660156 0.742188,-1.308594 -2.5,-0.84375 L 57.6,45.3125 56.869532,44.003906 54.842188,45.542968 55.416406,43 Z"
       id="path5" />
    <path
       style="fill:#b2f5c0"
       d="M 8.7015624,42 9.303125,44.535156 7.3460938,42.894532 6.615625,44.191406 9.13125,45.019532 6.6,45.8125 7.31875,47.136718 9.3070312,45.484376 8.7015624,48 h 1.7148436 l -0.554687,-2.480468 1.925781,1.660156 0.742188,-1.308594 -2.5,-0.84375 L 12.6,44.3125 11.869531,43.003906 9.842188,44.542968 10.416406,42 Z m 8.9999996,0 0.601563,2.535156 -1.957031,-1.640624 -0.730469,1.296874 2.515625,0.828126 L 15.6,45.8125 16.31875,47.136718 18.307031,45.484376 17.701562,48 h 1.714844 l -0.554687,-2.480468 1.925781,1.660156 0.742188,-1.308594 -2.5,-0.84375 L 21.6,44.3125 20.869532,43.003906 18.842188,44.542968 19.416406,42 Z m 9,0 0.601562,2.535156 -1.95703,-1.640624 -0.73047,1.296874 2.515626,0.828126 L 24.6,45.8125 25.31875,47.136718 27.307032,45.484376 26.701562,48 h 1.714844 l -0.554688,-2.480468 1.925782,1.660156 0.742188,-1.308594 -2.5,-0.84375 L 30.6,44.3125 29.869532,43.003906 27.842188,44.542968 28.416406,42 Z m 9,0 0.601562,2.535156 -1.95703,-1.640624 -0.73047,1.296874 2.515626,0.828126 L 33.6,45.8125 34.31875,47.136718 36.307032,45.484376 35.701562,48 h 1.714844 l -0.554688,-2.480468 1.925782,1.660156 0.742188,-1.308594 -2.5,-0.84375 L 39.6,44.3125 38.869532,43.003906 36.842188,44.542968 37.416406,42 Z m 9,0 0.601562,2.535156 -1.95703,-1.640624 -0.73047,1.296874 2.515626,0.828126 L 42.6,45.8125 43.31875,47.136718 45.307032,45.484376 44.701562,48 h 1.714844 l -0.554688,-2.480468 1.925782,1.660156 0.742188,-1.308594 -2.5,-0.84375 L 48.6,44.3125 47.869532,43.003906 45.842188,44.542968 46.416406,42 Z m 9,0 0.601562,2.535156 -1.95703,-1.640624 -0.73047,1.296874 2.515626,0.828126 L 51.6,45.8125 52.31875,47.136718 54.307032,45.484376 53.701562,48 h 1.714844 l -0.554688,-2.480468 1.925782,1.660156 0.742188,-1.308594 -2.5,-0.84375 L 57.6,44.3125 56.869532,43.003906 54.842188,44.542968 55.416406,42 Z"
       id="path6" />
    <rect
       style="fill:#373e48;fill-opacity:1"
       width="60"
       height="10"
       x="2"
       y="16"
       id="rect6" />
    <path
       style="opacity:0.2"
       d="M 22,5 C 13.163443,5 6,12.163444 6,21 6,27.712474 10.139505,33.449184 16,35.824218 V 59.394532 L 17.363281,61 h 3.750001 L 26,56.179688 24.976562,55.105468 26,54.035156 23.441406,51.894532 26,49.75 24.976562,48.679688 26,47.605468 24.464844,46 26,44.394532 V 42.785156 L 24.976562,41.714844 26,40.644532 V 39 h 2 V 35.824218 C 33.860494,33.449184 38,27.712474 38,21 38,12.163444 30.836554,5 22,5 Z m 0,4 c 2.209096,0 3.99994,1.790844 4,4 -6e-5,2.209157 -1.790904,4 -4,4 -2.209094,0 -3.999939,-1.790843 -4,-4 6.1e-5,-2.209156 1.790906,-4 4,-4 z"
       id="path7" />
    <path
       style="fill:#e4e4e4"
       d="M 16,29.99999 28,30 v 8 h -1.999886 v 1.64284 l -1.022728,1.07143 1.022728,1.07143 v 1.607144 l -1.53409,1.607142 1.53409,1.607142 -1.022728,1.07143 1.022724,1.071426 -2.560224,2.142856 2.560228,2.142858 -1.022728,1.071428 1.022728,1.071428 -4.886476,4.82143 -3.749872,6e-6 L 16,58.392836 Z"
       id="path8" />
    <path
       style="opacity:0.2"
       d="m 18.44033,36.270854 c 0.952361,-0.58328 2.577563,-0.16134 2.559331,0.664382 L 20.999998,59.999994 18.000139,60 V 36.935236 c -0.0055,-0.248876 0.153207,-0.488546 0.440191,-0.664382 z"
       id="path9" />
    <path
       style="fill:#e4e4e4"
       d="M 22,4 C 13.163443,4 6,11.163444 6,20 6,28.836556 13.163443,36 22,36 30.836554,36 38,28.836556 38,20 38,11.163444 30.836554,4 22,4 Z m 0,4 c 2.209096,2e-7 3.99994,1.7908436 4,4 -6e-5,2.209157 -1.790904,4 -4,4 -2.209094,0 -3.999939,-1.790843 -4,-4 6.1e-5,-2.2091564 1.790906,-3.9999998 4,-4 z"
       id="path10" />
    <path
       style="opacity:0.2;fill:#ffffff"
       d="M 22,4 C 13.163443,4 6,11.163444 6,20 6,20.167408 6.01539,20.331093 6.02539,20.496094 6.293777,11.89472 13.33348,5 22,5 30.666517,5 37.706223,11.89472 37.974609,20.496094 37.984612,20.331093 38,20.167408 38,20 38,11.163444 30.836554,4 22,4 Z m -3.859375,9 C 18.057305,13.321516 18.00001,13.652429 18,14 c 4e-6,0.155812 0.02954,0.30391 0.04687,0.455078 C 18.0712,14.301111 18.10196,14.149195 18.14062,14 c 0.446261,1.722038 1.997841,3 3.859375,3 1.861534,0 3.413109,-1.277962 3.859375,-3 0.03866,0.149195 0.06942,0.301111 0.09375,0.455078 C 25.970464,14.30391 25.999996,14.155812 26,14 25.99999,13.652429 25.942695,13.321516 25.859375,13 25.413109,14.722038 23.861534,16 22,16 20.138466,16 18.586886,14.722038 18.140625,13 Z"
       id="path11" />
  </g>
</svg>
