<?xml version="1.0" encoding="UTF-8" standalone="no"?>
<svg
   width="62"
   height="62"
   version="1.1"
   id="svg4"
   sodipodi:docname="signal-desktop.svg"
   inkscape:version="1.4 (e7c3feb100, 2024-10-09)"
   xmlns:inkscape="http://www.inkscape.org/namespaces/inkscape"
   xmlns:sodipodi="http://sodipodi.sourceforge.net/DTD/sodipodi-0.dtd"
   xmlns:xlink="http://www.w3.org/1999/xlink"
   xmlns="http://www.w3.org/2000/svg"
   xmlns:svg="http://www.w3.org/2000/svg">
  <defs
     id="defs4">
    <linearGradient
       id="linearGradient4"
       inkscape:collect="always">
      <stop
         style="stop-color:#2097d4;stop-opacity:1;"
         offset="0"
         id="stop4" />
      <stop
         style="stop-color:#9d7ed5;stop-opacity:1"
         offset="1"
         id="stop5" />
    </linearGradient>
    <linearGradient
       inkscape:collect="always"
       xlink:href="#linearGradient4"
       id="linearGradient5"
       x1="30.212767"
       y1="59.017544"
       x2="31.5"
       y2="4.9824572"
       gradientUnits="userSpaceOnUse"
       gradientTransform="translate(-0.5,-1.0000005)" />
  </defs>
  <sodipodi:namedview
     id="namedview4"
     pagecolor="#ffffff"
     bordercolor="#000000"
     borderopacity="0.25"
     inkscape:showpageshadow="2"
     inkscape:pageopacity="0.0"
     inkscape:pagecheckerboard="0"
     inkscape:deskcolor="#d1d1d1"
     inkscape:zoom="11.75"
     inkscape:cx="32"
     inkscape:cy="27.787234"
     inkscape:window-width="1920"
     inkscape:window-height="998"
     inkscape:window-x="0"
     inkscape:window-y="0"
     inkscape:window-maximized="1"
     inkscape:current-layer="svg4" />
  <rect
     x="3.5"
     y="3.9824567"
     width="55"
     height="55.017544"
     ry="14.736842"
     style="opacity:0.2;stroke-width:0.982303"
     id="rect1" />
  <rect
     x="3.5"
     y="2.9999995"
     width="55"
     height="55.017544"
     ry="14.736842"
     style="fill:url(#linearGradient5);stroke-width:0.982303"
     id="rect2" />
  <path
     d="M 18.232143,2.9999995 C 10.070534,2.9999995 3.5,9.5726295 3.5,17.736843 v 0.982455 C 3.5,10.555089 10.070534,3.9824555 18.232143,3.9824555 H 43.767858 C 51.929464,3.9824555 58.5,10.555089 58.5,18.719298 V 17.736843 C 58.5,9.5726295 51.929464,2.9999995 43.767858,2.9999995 Z"
     style="opacity:0.2;fill:#ffffff;stroke-width:0.982303"
     id="path4" />
  <g
     id="g2"
     transform="matrix(0.05278205,0,0,0.05278205,3.9755904,3.4843618)">
	<path
   class="st1"
   d="m 430.1,180.9 7.7,31 c -30.2,7.4 -59.1,19.4 -85.7,35.4 L 335.7,220 c 29.3,-17.7 61.2,-30.9 94.4,-39.1 z m 163.8,0 -7.7,31 c 30.2,7.4 59.1,19.4 85.7,35.4 l 16.5,-27.4 C 659,202.3 627.2,189.1 593.9,180.9 Z M 220,335.7 c -17.7,29.3 -30.9,61.2 -39.1,94.4 l 31,7.7 c 7.4,-30.2 19.4,-59.1 35.4,-85.7 z M 202.9,512 c 0,-15.5 1.1,-31 3.5,-46.3 l -31.6,-4.8 c -5.1,33.9 -5.1,68.3 0,102.2 l 31.6,-4.8 C 204.1,543 202.9,527.5 202.9,512 Z m 485.4,292 -16.4,-27.4 c -26.6,16.1 -55.4,28 -85.6,35.4 l 7.7,31 c 33.2,-8.2 65,-21.3 94.3,-39 z M 821.1,512 c 0,15.5 -1.1,31 -3.5,46.3 l 31.6,4.8 c 5.1,-33.9 5.1,-68.3 0,-102.2 l -31.6,4.8 c 2.3,15.3 3.5,30.8 3.5,46.3 z m 22,81.8 -31,-7.7 c -7.4,30.2 -19.4,59.1 -35.4,85.7 l 27.4,16.5 c 17.6,-29.3 30.8,-61.2 39,-94.5 z M 558.3,817.6 c -30.7,4.6 -61.9,4.6 -92.6,0 l -4.8,31.6 c 33.9,5.1 68.3,5.1 102.2,0 z M 760.8,695.3 c -18.4,25 -40.5,47 -65.5,65.4 l 19,25.7 c 27.6,-20.3 51.9,-44.5 72.3,-72 z M 695.3,263.2 c 25,18.4 47.1,40.5 65.5,65.5 l 25.7,-19.2 c -20.3,-27.5 -44.6,-51.8 -72,-72 z m -432.1,65.5 c 18.4,-25 40.5,-47.1 65.5,-65.5 l -19.2,-25.7 c -27.5,20.3 -51.8,44.6 -72,72 z m 540.8,7 -27.4,16.4 c 16.1,26.6 28,55.4 35.4,85.6 l 31,-7.7 c -8.1,-33.2 -21.3,-65 -39,-94.3 z M 465.7,206.4 c 30.7,-4.6 61.9,-4.6 92.6,0 l 4.8,-31.6 c -33.9,-5.1 -68.3,-5.1 -102.2,0 z M 279.6,795 l -66,15.4 15.4,-66 -31.1,-7.3 -15.4,66 c -2.5,10.8 0.7,22.1 8.5,29.9 7.8,7.8 19.1,11 29.9,8.5 l 66,-15.1 z m -75.1,-86.5 31.1,7.2 10.7,-45.8 C 230.8,643.8 219.2,615.5 211.9,586 l -31,7.7 c 7,28.3 17.5,55.5 31.4,81 z m 149.2,69.3 -45.7,10.7 7.2,31.1 33.7,-7.8 c 25.6,13.9 52.8,24.5 81.1,31.4 l 7.7,-31 c -29.4,-7.3 -57.6,-19 -83.7,-34.6 z M 512,234.9 C 411.2,235 318.3,289.8 269.6,378 c -48.7,88.2 -45.7,196 8,281.4 L 251,773.1 364.7,746.5 c 99.7,62.8 228.2,55.7 320.4,-17.7 C 777.3,655.4 812.9,531.7 774,420.5 734.8,309.2 629.8,234.8 512,234.9 Z"
   id="path2-0"
   style="fill:#f2f2f2;fill-opacity:1" />

</g>
</svg>
