<?xml version="1.0" encoding="UTF-8" standalone="no"?>
<svg
   width="64"
   height="64"
   version="1"
   id="svg6"
   sodipodi:docname="simplenote.svg"
   inkscape:version="1.4 (unknown)"
   xmlns:inkscape="http://www.inkscape.org/namespaces/inkscape"
   xmlns:sodipodi="http://sodipodi.sourceforge.net/DTD/sodipodi-0.dtd"
   xmlns:xlink="http://www.w3.org/1999/xlink"
   xmlns="http://www.w3.org/2000/svg"
   xmlns:svg="http://www.w3.org/2000/svg">
  <defs
     id="defs6">
    <linearGradient
       id="linearGradient6"
       inkscape:collect="always">
      <stop
         style="stop-color:#a4b4c1;stop-opacity:1;"
         offset="0"
         id="stop6" />
      <stop
         style="stop-color:#d2d9e0;stop-opacity:1;"
         offset="1"
         id="stop7" />
    </linearGradient>
    <linearGradient
       inkscape:collect="always"
       xlink:href="#linearGradient6"
       id="linearGradient7"
       x1="32"
       y1="60"
       x2="32"
       y2="5"
       gradientUnits="userSpaceOnUse" />
  </defs>
  <sodipodi:namedview
     id="namedview6"
     pagecolor="#ffffff"
     bordercolor="#000000"
     borderopacity="0.25"
     inkscape:showpageshadow="2"
     inkscape:pageopacity="0.0"
     inkscape:pagecheckerboard="0"
     inkscape:deskcolor="#d1d1d1"
     inkscape:zoom="12.109375"
     inkscape:cx="32"
     inkscape:cy="32"
     inkscape:window-width="1920"
     inkscape:window-height="998"
     inkscape:window-x="0"
     inkscape:window-y="0"
     inkscape:window-maximized="1"
     inkscape:current-layer="svg6" />
  <path
     style="opacity:0.2"
     d="m 4.050798,32.000828 c -0.0118,0.33399 -0.050799,0.661981 -0.050799,0.999971 C 3.9999994,48.512357 16.487643,61 31.9992,61 47.510757,61 59.998401,48.512357 59.998401,33.000799 c 0,-0.33767 -0.03904,-0.665261 -0.05078,-0.999971 -0.527985,15.041571 -12.775635,26.999229 -27.949202,26.999229 -15.173967,0 -27.4212171,-11.957658 -27.949202,-26.999229 z"
     id="path1" />
  <rect
     style="fill:url(#linearGradient7)"
     width="56"
     height="56"
     x="4"
     y="4"
     rx="27.999"
     ry="27.999"
     id="rect1" />
  <path
     style="opacity:0.1;fill:#ffffff"
     d="M 32 4.0019531 C 16.488443 4.0019531 4 16.488443 4 32 C 4 32.113553 4.0112846 32.224036 4.0175781 32.335938 C 4.3691113 17.134615 16.711164 5 32 5 C 47.288836 5 59.630889 17.134615 59.982422 32.335938 C 59.988693 32.224116 60 32.113445 60 32 C 60 16.488443 47.511557 4.0019531 32 4.0019531 z"
     id="path2" />
  <g
     style="opacity:0.2"
     transform="matrix(2.00001,0,0,2.1052637,-2.600005e-4,-1.736746)"
     id="g4">
    <path
       d="m 11.158,8 c -3.2147,1.7198 -5.1526,4.8252 -5.1579,8.2978 0.00678,4.7831 3.8025,8.9662 8.8421,9.6808 0.36133,0.03586 0.47082,0.01998 0.73684,0 2.4417,0 4.4211,-1.8575 4.4211,-4.1489 -0.0022,-1.5726 -0.94616,-2.9769 -2.3832,-3.6769 0,0 -1.5874,-0.68269 -2.2897,-1.0365 -1.0174,-0.47738 -1.837196,-0.89975 -2.903496,-1.5113 -0.53316,-0.30576 -1.0718,-0.66276 -1.5557,-1.2142 -0.48387,-0.55139 -0.88364,-1.3776 -0.88364,-2.2419 0,-1.6768 0.345906,-2.9547 1.173696,-4.1489 z"
       id="path3" />
    <path
       d="M 20.842,25 C 24.057,23.28 25.995,20.175 26,16.702 25.993,11.919 22.198,7.736 17.158,7.0213 c -0.36133,-0.03586 -0.47082,-0.01998 -0.73684,0 -2.4417,0 -4.4211,1.8575 -4.4211,4.1489 0.0022,1.5726 0.94616,2.9769 2.3832,3.6769 0,0 1.5874,0.68269 2.2897,1.0365 1.0174,0.47738 1.887096,0.89975 2.953396,1.5113 0.53316,0.30576 1.0718,0.66276 1.5557,1.2142 0.48387,0.55139 0.88364,1.3776 0.88364,2.2419 0,1.6768 -0.395806,2.9547 -1.223596,4.1489 z"
       id="path4" />
  </g>
  <g
     style="fill:#325fc9"
     transform="matrix(2.00001,0,0,2.1052637,-2.600005e-4,-2.7367458)"
     id="g6">
    <path
       d="m 11.158,8 c -3.2147,1.7198 -5.1526,4.8252 -5.1579,8.2978 0.00678,4.7831 3.8025,8.9662 8.8421,9.6808 0.36133,0.03586 0.47082,0.01998 0.73684,0 2.4417,0 4.4211,-1.8575 4.4211,-4.1489 -0.0022,-1.5726 -0.94616,-2.9769 -2.3832,-3.6769 0,0 -1.5874,-0.68269 -2.2897,-1.0365 -1.0174,-0.47738 -1.837196,-0.89975 -2.903496,-1.5113 -0.53316,-0.30576 -1.0718,-0.66276 -1.5557,-1.2142 -0.48387,-0.55139 -0.88364,-1.3776 -0.88364,-2.2419 0,-1.6768 0.345906,-2.9547 1.173696,-4.1489 z"
       id="path5"
       style="fill:#0055d4" />
    <path
       d="M 20.842,25 C 24.057,23.28 25.995,20.175 26,16.702 25.993,11.919 22.198,7.736 17.158,7.0213 c -0.36133,-0.03586 -0.47082,-0.01998 -0.73684,0 -2.4417,0 -4.4211,1.8575 -4.4211,4.1489 0.0022,1.5726 0.94616,2.9769 2.3832,3.6769 0,0 1.5874,0.68269 2.2897,1.0365 1.0174,0.47738 1.887096,0.89975 2.953396,1.5113 0.53316,0.30576 1.0718,0.66276 1.5557,1.2142 0.48387,0.55139 0.88364,1.3776 0.88364,2.2419 0,1.6768 -0.395806,2.9547 -1.223596,4.1489 z"
       id="path6"
       style="fill:#2a7fff" />
  </g>
</svg>
