<?xml version="1.0" encoding="UTF-8" standalone="no"?>
<svg
   width="62"
   height="62"
   version="1"
   id="svg7"
   sodipodi:docname="skanlite.svg"
   inkscape:version="1.4 (e7c3feb100, 2024-10-09)"
   xmlns:inkscape="http://www.inkscape.org/namespaces/inkscape"
   xmlns:sodipodi="http://sodipodi.sourceforge.net/DTD/sodipodi-0.dtd"
   xmlns:xlink="http://www.w3.org/1999/xlink"
   xmlns="http://www.w3.org/2000/svg"
   xmlns:svg="http://www.w3.org/2000/svg">
  <defs
     id="defs7">
    <linearGradient
       id="linearGradient9"
       inkscape:collect="always">
      <stop
         style="stop-color:#f34235;stop-opacity:1;"
         offset="0"
         id="stop9" />
      <stop
         style="stop-color:#e9afc6;stop-opacity:1"
         offset="1"
         id="stop10" />
    </linearGradient>
    <linearGradient
       id="linearGradient7"
       inkscape:collect="always">
      <stop
         style="stop-color:#535d6c;stop-opacity:1"
         offset="0"
         id="stop7" />
      <stop
         style="stop-color:#495360;stop-opacity:1;"
         offset="1"
         id="stop8" />
    </linearGradient>
    <linearGradient
       inkscape:collect="always"
       xlink:href="#linearGradient7"
       id="linearGradient8"
       x1="-57.798435"
       y1="-52.640152"
       x2="-4.9824557"
       y2="-11.657891"
       gradientUnits="userSpaceOnUse" />
    <linearGradient
       inkscape:collect="always"
       xlink:href="#linearGradient9"
       id="linearGradient10"
       x1="31"
       y1="26.596485"
       x2="31"
       y2="20.701748"
       gradientUnits="userSpaceOnUse" />
  </defs>
  <sodipodi:namedview
     id="namedview7"
     pagecolor="#ffffff"
     bordercolor="#000000"
     borderopacity="0.25"
     inkscape:showpageshadow="2"
     inkscape:pageopacity="0.0"
     inkscape:pagecheckerboard="0"
     inkscape:deskcolor="#d1d1d1"
     inkscape:zoom="11.78125"
     inkscape:cx="31.95756"
     inkscape:cy="32"
     inkscape:window-width="1920"
     inkscape:window-height="994"
     inkscape:window-x="0"
     inkscape:window-y="0"
     inkscape:window-maximized="1"
     inkscape:current-layer="svg7" />
  <g
     id="g7"
     transform="translate(0,-1)">
    <rect
       style="opacity:0.2;stroke-width:0.982459"
       width="55.017548"
       height="44.210514"
       x="-60"
       y="-53.105255"
       rx="2.7508764"
       ry="2.763649"
       transform="matrix(0,-1,-1,0,0,0)"
       id="rect1" />
    <rect
       style="fill:url(#linearGradient8);stroke-width:0.982459"
       width="55.017548"
       height="44.210514"
       x="-59.017548"
       y="-53.105255"
       rx="2.7508764"
       ry="2.763649"
       transform="matrix(0,-1,-1,0,0,0)"
       id="rect2" />
    <rect
       style="fill:#e4e4e4;stroke-width:0.982459"
       width="41.263149"
       height="30.456137"
       x="-52.140347"
       y="-46.228058"
       rx="0"
       ry="0"
       transform="matrix(0,-1,-1,0,0,0)"
       id="rect3" />
    <rect
       style="opacity:0.2;stroke-width:0.982459"
       width="56"
       height="5.8947368"
       x="3"
       y="21.684212"
       rx="1.3999995"
       ry="1.4736842"
       id="rect4" />
    <rect
       style="fill:url(#linearGradient10);stroke-width:0.982459"
       width="56"
       height="5.8947368"
       x="3"
       y="20.701748"
       rx="1.3999995"
       ry="1.4736842"
       id="rect5" />
    <rect
       style="opacity:0.2;stroke-width:0.982459"
       width="0.98245597"
       height="30.456137"
       x="-53.122803"
       y="-46.228058"
       rx="0"
       ry="0"
       transform="matrix(0,-1,-1,0,0,0)"
       id="rect6" />
    <rect
       style="opacity:0.2;fill:#ffffff;stroke-width:0.982459"
       width="0.98245597"
       height="30.456137"
       x="-11.859647"
       y="-46.228058"
       rx="0"
       ry="0"
       transform="matrix(0,-1,-1,0,0,0)"
       id="rect7" />
    <path
       style="opacity:0.1;fill:#ffffff;stroke-width:0.982459"
       d="M 11.657891,4 C 10.127104,4 8.8947361,5.2276589 8.8947361,6.7516441 v 0.9824565 c 0,-1.5239858 1.2323679,-2.7516447 2.7631549,-2.7516447 h 38.68421 c 1.530787,0 2.763155,1.2276589 2.763155,2.7516447 V 6.7516441 C 53.105256,5.2276589 51.872888,4 50.342101,4 Z"
       id="path7" />
  </g>
</svg>
