<?xml version="1.0" encoding="UTF-8" standalone="no"?>
<svg
   inkscape:version="1.4 (e7c3feb100, 2024-10-09)"
   sodipodi:docname="slack.svg"
   id="svg25"
   version="1.1"
   height="62"
   width="62"
   xmlns:inkscape="http://www.inkscape.org/namespaces/inkscape"
   xmlns:sodipodi="http://sodipodi.sourceforge.net/DTD/sodipodi-0.dtd"
   xmlns:xlink="http://www.w3.org/1999/xlink"
   xmlns="http://www.w3.org/2000/svg"
   xmlns:svg="http://www.w3.org/2000/svg"
   xmlns:rdf="http://www.w3.org/1999/02/22-rdf-syntax-ns#"
   xmlns:cc="http://creativecommons.org/ns#"
   xmlns:dc="http://purl.org/dc/elements/1.1/">
  <metadata
     id="metadata29">
    <rdf:RDF>
      <cc:Work
         rdf:about="">
        <dc:format>image/svg+xml</dc:format>
        <dc:type
           rdf:resource="http://purl.org/dc/dcmitype/StillImage" />
      </cc:Work>
    </rdf:RDF>
  </metadata>
  <sodipodi:namedview
     inkscape:current-layer="svg25"
     inkscape:window-maximized="1"
     inkscape:window-y="0"
     inkscape:window-x="0"
     inkscape:cy="26.338139"
     inkscape:cx="60.309305"
     inkscape:zoom="5.9609375"
     showgrid="false"
     id="namedview27"
     inkscape:window-height="994"
     inkscape:window-width="1920"
     inkscape:pageshadow="2"
     inkscape:pageopacity="0"
     guidetolerance="10"
     gridtolerance="10"
     objecttolerance="10"
     borderopacity="1"
     bordercolor="#666666"
     pagecolor="#ffffff"
     inkscape:showpageshadow="2"
     inkscape:pagecheckerboard="0"
     inkscape:deskcolor="#d1d1d1" />
  <defs
     id="defs7">
    <linearGradient
       id="linearGradient1"
       inkscape:collect="always">
      <stop
         style="stop-color:#d6285e;stop-opacity:1;"
         offset="0"
         id="stop1" />
      <stop
         style="stop-color:#ff8080;stop-opacity:1"
         offset="1"
         id="stop3" />
    </linearGradient>
    <linearGradient
       gradientUnits="userSpaceOnUse"
       gradientTransform="matrix(3.7796,0,0,3.7796,6.7206132,-10.665341)"
       y2="1.852"
       y1="15.081"
       x2="7.9373002"
       x1="7.9373002"
       id="linearGradient862">
      <stop
         id="stop2"
         offset="0"
         stop-color="#f1efeb" />
      <stop
         id="stop4"
         offset="1"
         stop-color="#fff" />
    </linearGradient>
    <linearGradient
       id="linearGradient863"
       x1="1"
       x2="47"
       y1="24"
       y2="24"
       gradientUnits="userSpaceOnUse">
      <stop
         style="stop-color:#4f324c"
         offset="0"
         id="stop854" />
      <stop
         style="stop-color:#5b3957"
         offset="1"
         id="stop856" />
    </linearGradient>
    <linearGradient
       inkscape:collect="always"
       xlink:href="#linearGradient1"
       id="linearGradient3"
       x1="24.174101"
       y1="41.130901"
       x2="30.6959"
       y2="41.1309"
       gradientUnits="userSpaceOnUse" />
  </defs>
  <g
     transform="matrix(1.6512355,0,0,1.6512355,-21.839536,-21.839536)"
     id="g23"
     stroke-width="1.3043">
    <path
       id="path15"
       d="m 36.565,15.043 a 3.2609,3.2609 0 0 0 -3.2609,3.2609 v 9.1304 a 3.2609,3.2609 0 0 0 3.2609,3.2609 3.2609,3.2609 0 0 0 3.2609,-3.2609 V 18.3039 A 3.2609,3.2609 0 0 0 36.565,15.043 Z m 9.1304,9.1304 a 3.2609,3.2609 0 0 0 -3.2609,3.2609 v 3.2609 h 3.2609 a 3.2609,3.2609 0 0 0 3.2609,-3.2609 3.2609,3.2609 0 0 0 -3.2609,-3.2609 z"
       style="fill:#2eb67d;fill-opacity:1" />
    <path
       id="path17"
       d="m 48.957,36.565 a 3.2609,3.2609 0 0 0 -3.2609,-3.2609 h -9.1304 a 3.2609,3.2609 0 0 0 -3.2609,3.2609 3.2609,3.2609 0 0 0 3.2609,3.2609 h 9.1304 A 3.2609,3.2609 0 0 0 48.957,36.565 Z m -9.1304,9.1304 a 3.2609,3.2609 0 0 0 -3.2609,-3.2609 h -3.2609 v 3.2609 a 3.2609,3.2609 0 0 0 3.2609,3.2609 3.2609,3.2609 0 0 0 3.2609,-3.2609 z"
       style="fill:#ecb22e;fill-opacity:1" />
    <path
       id="path19"
       d="m 27.435,48.957 a 3.2609,3.2609 0 0 0 3.2609,-3.2609 v -9.1304 a 3.2609,3.2609 0 0 0 -3.2609,-3.2609 3.2609,3.2609 0 0 0 -3.2609,3.2609 v 9.1304 a 3.2609,3.2609 0 0 0 3.2609,3.2609 z m -9.1304,-9.1304 a 3.2609,3.2609 0 0 0 3.2609,-3.2609 v -3.2609 h -3.2609 a 3.2609,3.2609 0 0 0 -3.2609,3.2609 3.2609,3.2609 0 0 0 3.2609,3.2609 z"
       style="fill:url(#linearGradient3)" />
    <path
       id="path21"
       d="m 15.043,27.435 a 3.2609,3.2609 0 0 0 3.2609,3.2609 h 9.1304 A 3.2609,3.2609 0 0 0 30.6952,27.435 3.2609,3.2609 0 0 0 27.4343,24.1741 H 18.3039 A 3.2609,3.2609 0 0 0 15.043,27.435 Z m 9.1304,-9.1304 a 3.2609,3.2609 0 0 0 3.2609,3.2609 h 3.2609 v -3.2609 a 3.2609,3.2609 0 0 0 -3.2609,-3.2609 3.2609,3.2609 0 0 0 -3.2609,3.2609 z"
       style="fill:#36c5f0;fill-opacity:1" />
  </g>
</svg>
