<?xml version="1.0" encoding="UTF-8" standalone="no"?>
<svg
   width="62"
   height="62"
   version="1.1"
   id="svg24"
   sodipodi:docname="smw.svg"
   inkscape:version="1.4 (e7c3feb100, 2024-10-09)"
   xmlns:inkscape="http://www.inkscape.org/namespaces/inkscape"
   xmlns:sodipodi="http://sodipodi.sourceforge.net/DTD/sodipodi-0.dtd"
   xmlns="http://www.w3.org/2000/svg"
   xmlns:svg="http://www.w3.org/2000/svg">
  <defs
     id="defs24" />
  <sodipodi:namedview
     id="namedview24"
     pagecolor="#ffffff"
     bordercolor="#000000"
     borderopacity="0.25"
     inkscape:showpageshadow="2"
     inkscape:pageopacity="0.0"
     inkscape:pagecheckerboard="0"
     inkscape:deskcolor="#d1d1d1"
     inkscape:zoom="11.6875"
     inkscape:cx="31.957219"
     inkscape:cy="32"
     inkscape:window-width="1920"
     inkscape:window-height="994"
     inkscape:window-x="0"
     inkscape:window-y="0"
     inkscape:window-maximized="1"
     inkscape:current-layer="svg24" />
  <g
     id="g24"
     transform="matrix(1.0105634,0,0,1,-0.0845796,0.03199995)">
    <ellipse
       style="opacity:0.2;stroke-width:0.948638"
       cx="-5.192399"
       cy="42.234367"
       rx="4.9386096"
       ry="7.8585176"
       transform="matrix(0.85217299,-0.52326015,0.42093332,0.90709158,0,0)"
       id="ellipse1" />
    <ellipse
       style="opacity:0.2;stroke-width:0.948638"
       cx="-61.374672"
       cy="9.8247433"
       rx="4.9386096"
       ry="7.8585176"
       transform="matrix(-0.85217299,-0.52326015,-0.42093332,0.90709158,0,0)"
       id="ellipse2" />
    <path
       style="opacity:0.2;stroke-width:0.948638"
       d="m 14.64047,25.422804 v 12.409567 c -1.005234,1.889739 -2.845914,4.462504 -2.845914,7.97612 0,7.267961 8.4942,13.159509 18.972401,13.159509 10.478202,0 18.97312,-5.891548 18.97312,-13.159509 0,-3.223262 -1.840768,-5.654869 -2.845914,-7.494591 V 25.422804 L 30.767316,19.337968 Z"
       id="path2" />
    <path
       style="fill:#ea2028;stroke-width:0.948638"
       d="m 52.585991,24.786675 c 0,12.050121 -9.768553,21.818674 -21.818674,21.818674 -12.050121,0 -21.8186754,-9.768553 -21.8186754,-21.818674 0,-12.050121 13.2113434,-21.8186749 21.8186754,-21.8186749 8.607333,0 21.818674,9.7685539 21.818674,21.8186749 z"
       id="path3" />
    <ellipse
       style="fill:#e5b493;stroke-width:0.948638"
       cx="-60.97245"
       cy="9.0108118"
       rx="4.9386096"
       ry="7.8585176"
       transform="matrix(-0.85217299,-0.52326015,-0.42093332,0.90709158,0,0)"
       id="ellipse3" />
    <path
       style="opacity:0.1;stroke-width:0.948638"
       d="m 50.279125,34.21168 c 0.919493,0.0016 1.725369,0.712549 1.970901,1.738567 -0.631804,-0.488321 -1.091474,-0.928438 -2.025629,-0.929433 -0.434722,4.38e-4 -1.296415,0.222779 -1.698431,0.340184 0.370069,-0.712363 1.035211,-1.148411 1.753159,-1.149318 z"
       id="path4" />
    <path
       style="opacity:0.1;stroke-width:0.948638"
       d="m 50.550477,39.207241 c 0.356998,0.847361 0.0165,1.866643 -0.832608,2.492753 0.203362,-0.772187 0.429442,-1.367074 0.06616,-2.227695 -0.169887,-0.400154 -0.71058,-1.106979 -0.975425,-1.43141 0.80027,0.06306 1.461131,0.505569 1.741871,1.166352 z"
       id="path5" />
    <path
       style="fill:#a84e37;stroke-width:0.948638"
       d="M 49.269293,26.792928 H 45.007658 V 43.14066 c 2.769552,-0.947407 4.49105,-2.372715 4.760878,-5.108792 0.126789,-1.544758 -0.842923,-3.354289 -0.926315,-5.131094 -0.132211,-2.817059 0.247735,-3.533103 0.427072,-6.107846 z"
       id="path6" />
    <ellipse
       style="fill:#e5b493;stroke-width:0.948638"
       cx="-4.7901764"
       cy="41.420437"
       rx="4.9386096"
       ry="7.8585176"
       transform="matrix(0.85217299,-0.52326015,0.42093332,0.90709158,0,0)"
       id="ellipse6" />
    <path
       style="opacity:0.1;stroke-width:0.948638"
       d="m 11.238794,34.21168 c -0.919493,0.0016 -1.7253686,0.712549 -1.9709002,1.738567 0.631803,-0.488321 1.0914752,-0.928438 2.0256272,-0.929433 0.434722,4.38e-4 1.296416,0.222779 1.698431,0.340184 -0.370068,-0.712363 -1.03521,-1.148411 -1.753158,-1.149318 z"
       id="path7" />
    <path
       style="opacity:0.1;stroke-width:0.948638"
       d="m 10.967441,39.207241 c -0.356996,0.847361 -0.0165,1.866643 0.832609,2.492753 -0.203362,-0.772187 -0.429442,-1.367074 -0.06617,-2.227695 0.169887,-0.400154 0.71058,-1.106979 0.975425,-1.43141 -0.80027,0.06306 -1.461131,0.505569 -1.741871,1.166352 z"
       id="path8" />
    <path
       style="fill:#a84e37;stroke-width:0.948638"
       d="m 12.411541,26.792928 h 4.261636 V 43.14066 c -2.769553,-0.947407 -4.608793,-2.372715 -4.878621,-5.108792 -0.12679,-1.544758 0.960665,-3.354289 1.044057,-5.131094 0.132211,-2.817059 -0.247735,-3.533103 -0.427072,-6.107846 z"
       id="path9" />
    <path
       style="fill:#f0c3a5;stroke-width:0.948638"
       d="m 14.64047,24.474165 v 12.409567 c -1.005234,1.889739 -2.845914,4.462504 -2.845914,7.97612 0,7.267961 8.4942,13.159509 18.972401,13.159509 10.478202,0 18.97312,-5.891548 18.97312,-13.159509 0,-3.223262 -1.840768,-5.654869 -2.845914,-7.494591 V 24.474165 L 30.767316,18.389329 Z"
       id="path10" />
    <path
       style="opacity:0.1;stroke-width:0.948638"
       d="m 24.963991,51.514973 a 7.0326136,3.2635004 0 0 0 6.088692,1.638154 7.0326136,3.2635004 0 0 0 5.548755,-1.265965 10.847692,3.2635004 0 0 1 -4.85942,0.348599 10.847692,3.2635004 0 0 1 -6.778027,-0.720788 z m 2.704922,2.175469 a 3.539289,1.3329791 0 0 0 -0.06291,0.246378 3.539289,1.3329791 0 0 0 3.538412,1.331492 3.539289,1.3329791 0 0 0 3.538414,-1.331492 3.539289,1.3329791 0 0 0 -0.04456,-0.207062 5.1020922,1.3329791 0 0 1 -3.402118,0.343356 5.1020922,1.3329791 0 0 1 -3.567244,-0.382672 z"
       id="path11" />
    <ellipse
       style="opacity:0.2;stroke-width:0.948638"
       cx="23.178211"
       cy="34.949432"
       rx="4.7431903"
       ry="5.4205179"
       id="ellipse11" />
    <path
       style="fill:#5b4b53;stroke-width:0.948638"
       d="m 44.47869,39.046602 c -3.150611,2.831156 -8.374354,4.524312 -13.95819,4.524226 -5.479986,-0.005 -10.616018,-1.641081 -13.779322,-4.389156 -0.683264,1.539693 -0.884501,2.960774 -1.15207,4.431951 -9.3e-5,1.587562 1.270626,2.874591 2.838183,2.874614 0.458041,-3.78e-4 0.909188,-0.113018 1.314911,-0.328316 -0.02526,0.15114 -0.03857,0.304084 -0.03976,0.457371 2.72e-4,1.587301 1.270883,2.873922 2.838182,2.873946 1.075785,-0.0013 2.058327,-0.618643 2.537503,-1.594111 -0.01787,0.130326 -0.02728,0.26166 -0.02821,0.393179 2.05e-4,1.705793 1.399701,3.088523 3.126039,3.08859 1.039343,-3.64e-4 2.010541,-0.511102 2.591357,-1.362751 0.580818,0.851649 1.552014,1.362386 2.591357,1.362751 1.726589,2.83e-4 3.126474,-1.38255 3.126679,-3.08859 -10e-4,-0.131751 -0.01076,-0.263307 -0.02885,-0.393847 0.478991,0.975727 1.461572,1.593262 2.537504,1.594779 1.567299,-2.4e-5 2.83791,-1.286645 2.838183,-2.873946 -0.0011,-0.153287 -0.01448,-0.306231 -0.03976,-0.457371 0.405724,0.215292 0.856871,0.327938 1.31491,0.328316 1.567558,-2.2e-5 2.838277,-1.287052 2.838185,-2.874614 -0.347401,-1.580638 -0.902619,-3.176401 -1.466856,-4.567021 z"
       id="path12" />
    <path
       style="fill:#5d4e55;stroke-width:0.948638"
       d="m 23.062882,22.236842 a 4.3580523,5.4369503 0 0 0 -4.357949,5.437481 4.3580523,5.4369503 0 0 0 0.04127,0.69675 5.0097234,5.4369503 0 0 1 4.561087,-3.199942 5.0097234,5.4369503 0 0 1 4.109104,2.337747 4.3580523,5.4369503 0 0 0 -4.353505,-5.272036 z"
       id="path13" />
    <ellipse
       style="fill:#ffffff;stroke-width:0.948638"
       cx="30.767317"
       cy="13.410607"
       rx="7.5891042"
       ry="5.6918283"
       id="ellipse13" />
    <path
       style="fill:#ed475f;stroke-width:0.948638"
       d="m 33.418068,9.020316 -2.727334,2.991669 -2.581579,-2.8508555 -3.048489,6.4947125 2.660023,0.814824 0.830669,-4.354924 2.136905,2.356773 2.317246,-2.542054 1.374576,4.14494 2.093883,-0.83953 z"
       id="path14" />
    <ellipse
       style="opacity:0.2;stroke-width:0.948638"
       cx="-38.356422"
       cy="34.949432"
       rx="4.7431903"
       ry="5.4205179"
       transform="scale(-1,1)"
       id="ellipse14" />
    <ellipse
       style="fill:#ffffff;stroke-width:0.948638"
       cx="23.178211"
       cy="34.000797"
       rx="4.7431903"
       ry="5.4205179"
       id="ellipse15" />
    <path
       style="fill:#2784cf;stroke-width:0.948638"
       d="m 25.637154,29.612014 a 3.1374376,4.2268259 0 0 0 -3.13654,4.227049 3.1374376,4.2268259 0 0 0 3.13654,4.227051 3.1374376,4.2268259 0 0 0 0.812587,-0.145578 4.7431895,5.4207881 0 0 0 1.47166,-3.920013 4.7431895,5.4207881 0 0 0 -1.934861,-4.359393 3.1374376,4.2268259 0 0 0 -0.349386,-0.02911 z"
       id="path15" />
    <ellipse
       style="fill:#3f3f3f;stroke-width:0.948638"
       cx="25.549807"
       cy="33.818657"
       rx="1.6942675"
       ry="2.3715951"
       id="ellipse16" />
    <path
       style="fill:#5d4e55;stroke-width:0.948638"
       d="m 38.502547,22.236842 a 4.3580523,5.4369503 0 0 1 4.357949,5.437481 4.3580523,5.4369503 0 0 1 -0.04127,0.69675 5.0097234,5.4369503 0 0 0 -4.561086,-3.199942 5.0097234,5.4369503 0 0 0 -4.109105,2.337747 4.3580523,5.4369503 0 0 1 4.353505,-5.272036 z"
       id="path16" />
    <ellipse
       style="fill:#ffffff;stroke-width:0.948638"
       cx="-38.356422"
       cy="34.000797"
       rx="4.7431903"
       ry="5.4205179"
       transform="scale(-1,1)"
       id="ellipse17" />
    <path
       style="fill:#2784cf;stroke-width:0.948638"
       d="m 35.897481,29.612014 a 3.1374379,4.2268263 0 0 1 3.136539,4.227049 3.1374379,4.2268263 0 0 1 -3.136539,4.227052 3.1374379,4.2268263 0 0 1 -0.81259,-0.145578 4.74319,5.4207884 0 0 1 -1.47166,-3.920013 4.74319,5.4207884 0 0 1 1.934862,-4.359395 3.1374379,4.2268263 0 0 1 0.349388,-0.02912 z"
       id="path17" />
    <ellipse
       style="fill:#3f3f3f;stroke-width:0.948638"
       cx="-35.984825"
       cy="33.818657"
       rx="1.6942675"
       ry="2.3715951"
       transform="scale(-1,1)"
       id="ellipse18" />
    <ellipse
       style="opacity:0.2;stroke-width:0.948638"
       cx="30.767317"
       cy="42.366833"
       rx="7.5891042"
       ry="6.1661472"
       id="ellipse19" />
    <ellipse
       style="fill:#ffd0ae;stroke-width:0.948638"
       cx="30.767317"
       cy="41.418198"
       rx="7.5891042"
       ry="6.1661472"
       id="ellipse20" />
    <path
       style="opacity:0.1;stroke-width:0.948638"
       d="m 30.767316,18.251078 c -7.466817,0.123607 -15.275039,1.746651 -18.429961,8.168239 -0.626941,1.276091 -0.921084,2.829674 0.301701,3.464751 1.123937,0.537836 1.619547,-0.133758 2.403111,-0.83641 4.674376,-4.05608 9.499227,-6.198968 15.725149,-6.198968 6.225923,0 11.050774,2.142888 15.72515,6.198968 0.783563,0.702652 1.279173,1.374246 2.403111,0.83641 1.222784,-0.635077 0.92864,-2.18866 0.301699,-3.464751 -3.15492,-6.421588 -10.963143,-8.044632 -18.42996,-8.168239 z"
       id="path20" />
    <path
       style="fill:#ff3137;stroke-width:0.948638"
       d="m 30.767316,17.302439 c -7.466817,0.123607 -15.275039,1.746651 -18.429961,8.168239 -0.626941,1.276091 -0.921084,2.829674 0.301701,3.464751 1.123937,0.537836 1.619547,-0.133758 2.403111,-0.83641 4.674376,-4.05608 9.499227,-6.198968 15.725149,-6.198968 6.225923,0 11.050774,2.142888 15.72515,6.198968 0.783563,0.702652 1.279173,1.374246 2.403111,0.83641 1.222784,-0.635077 0.92864,-2.18866 0.301699,-3.464751 -3.15492,-6.421588 -10.963143,-8.044632 -18.42996,-8.168239 z"
       id="path21" />
    <path
       style="opacity:0.2;fill:#ffffff;stroke-width:0.948638"
       d="m 30.767316,2.9687115 c -8.607332,0 -21.8186743,9.7685535 -21.8186743,21.8186745 0,0.185792 0.00836,0.369311 0.01297,0.55399 C 9.2465049,13.474065 22.25452,3.9173495 30.767316,3.9173495 c 8.512796,0 21.520812,9.5567155 21.805705,21.4240265 0.0046,-0.184679 0.01297,-0.368198 0.01297,-0.55399 0,-12.050121 -13.211342,-21.8186745 -21.818675,-21.8186745 z"
       id="path22" />
    <path
       style="opacity:0.2;fill:#ffffff;stroke-width:0.948638"
       d="m 30.767316,35.252049 a 7.5891042,6.1661472 0 0 0 -7.589104,6.166148 7.5891042,6.1661472 0 0 0 0.0278,0.494699 7.5891042,6.1661472 0 0 1 7.561309,-5.712209 7.5891042,6.1661472 0 0 1 7.561312,5.671448 7.5891042,6.1661472 0 0 0 0.02779,-0.453938 7.5891042,6.1661472 0 0 0 -7.589105,-6.166148 z"
       id="path23" />
    <path
       style="opacity:0.2;fill:#ffffff;stroke-width:0.948638"
       d="m 30.767316,17.302039 c -7.466817,0.123608 -15.274965,1.747446 -18.429887,8.169033 -0.390567,0.79497 -0.650589,1.696719 -0.496553,2.417916 0.08092,-0.487378 0.264675,-0.997307 0.496553,-1.469278 3.154922,-6.421587 10.96307,-8.045425 18.429887,-8.169033 7.466817,0.123608 15.274968,1.747446 18.429888,8.169033 0.231878,0.471971 0.415633,0.9819 0.496553,1.469278 0.154036,-0.721197 -0.105986,-1.622946 -0.496553,-2.417916 -3.15492,-6.421587 -10.963071,-8.045425 -18.429888,-8.169033 z"
       id="path24" />
  </g>
</svg>
