<?xml version="1.0" encoding="UTF-8" standalone="no"?>
<svg
   width="62"
   height="62"
   version="1.1"
   id="svg5"
   sodipodi:docname="whalebird.svg"
   inkscape:version="1.4 (unknown)"
   xmlns:inkscape="http://www.inkscape.org/namespaces/inkscape"
   xmlns:sodipodi="http://sodipodi.sourceforge.net/DTD/sodipodi-0.dtd"
   xmlns:xlink="http://www.w3.org/1999/xlink"
   xmlns="http://www.w3.org/2000/svg"
   xmlns:svg="http://www.w3.org/2000/svg">
  <defs
     id="defs5">
    <linearGradient
       id="linearGradient8"
       inkscape:collect="always">
      <stop
         style="stop-color:#2d3d53;stop-opacity:1;"
         offset="0"
         id="stop8" />
      <stop
         style="stop-color:#354864;stop-opacity:1;"
         offset="1"
         id="stop10" />
    </linearGradient>
    <linearGradient
       id="linearGradient4217">
      <stop
         style="stop-color:#000000;stop-opacity:1;"
         offset="0"
         id="stop2" />
      <stop
         style="stop-color:#000000;stop-opacity:0;"
         offset="1"
         id="stop4" />
    </linearGradient>
    <linearGradient
       id="linearGradient4161">
      <stop
         style="stop-color:#334545;stop-opacity:1;"
         offset="0"
         id="stop7" />
      <stop
         style="stop-color:#4d6868;stop-opacity:1"
         offset="1"
         id="stop9" />
    </linearGradient>
    <linearGradient
       id="a-1-2"
       y1="510.79999"
       y2="527.14001"
       gradientUnits="userSpaceOnUse"
       x2="0">
      <stop
         stop-color="#7cbaf8"
         id="stop2-2-7" />
      <stop
         offset="1"
         stop-color="#f4fcff"
         id="stop4-70-0" />
    </linearGradient>
    <linearGradient
       id="c"
       y1="503.79999"
       x1="400.57001"
       y2="519.79999"
       x2="416.57001"
       gradientUnits="userSpaceOnUse">
      <stop
         stop-color="#292c2f"
         id="stop12" />
      <stop
         offset="1"
         stop-opacity="0"
         id="stop14" />
    </linearGradient>
    <linearGradient
       id="b"
       y1="542.79999"
       x1="408.57001"
       y2="521.79999"
       x2="387.57001"
       gradientUnits="userSpaceOnUse"
       gradientTransform="translate(-384.57,-499.8)">
      <stop
         stop-color="#197cf1"
         id="stop7-8" />
      <stop
         offset="1"
         stop-color="#20bcfa"
         id="stop9-7" />
    </linearGradient>
    <linearGradient
       xlink:href="#linearGradient1389"
       id="linearGradient4503-5-6"
       y1="37"
       y2="4"
       x2="0"
       gradientUnits="userSpaceOnUse"
       gradientTransform="matrix(1.0218446,0,0,0.99999999,21.748946,8.2587777)" />
    <linearGradient
       id="linearGradient1389">
      <stop
         style="stop-color:#ffaaaa;stop-opacity:1"
         id="stop1385"
         offset="0" />
      <stop
         offset="1"
         style="stop-color:#ff5555;stop-opacity:1"
         id="stop1387" />
    </linearGradient>
    <linearGradient
       id="paint543_linear_890_11"
       x1="978.5"
       y1="298"
       x2="978.5"
       y2="304"
       gradientUnits="userSpaceOnUse"
       gradientTransform="matrix(0.75000004,0,0,0.75000004,-717.38333,-173.49123)">
      <stop
         offset="0.189495"
         stop-color="#EFF2F6"
         id="stop1829" />
      <stop
         offset="0.850463"
         stop-color="#B7C6CD"
         id="stop1830" />
    </linearGradient>
    <linearGradient
       inkscape:collect="always"
       xlink:href="#linearGradient8"
       id="linearGradient10"
       x1="31.5"
       y1="59.017544"
       x2="31.5"
       y2="4.9824562"
       gradientUnits="userSpaceOnUse"
       gradientTransform="translate(-0.5,-1)" />
    <linearGradient
       id="linearGradient4144">
      <stop
         style="stop-color:#c83771;stop-opacity:1"
         offset="0"
         id="stop1141" />
      <stop
         style="stop-color:#de87aa;stop-opacity:1"
         offset="1"
         id="stop1143" />
    </linearGradient>
    <linearGradient
       id="c-0"
       gradientUnits="userSpaceOnUse"
       x1="10"
       x2="24"
       y1="10"
       y2="24"
       gradientTransform="translate(59.728813,26.237288)">
      <stop
         offset="0"
         stop-color="#292c2f"
         id="stop12-2" />
      <stop
         offset="1"
         stop-opacity="0"
         id="stop14-3" />
    </linearGradient>
    <linearGradient
       id="d"
       gradientUnits="userSpaceOnUse"
       x1="24"
       x2="24"
       y1="25"
       y2="7"
       gradientTransform="translate(59.728813,26.237288)">
      <stop
         offset="0"
         stop-color="#bb9d71"
         id="stop2-7" />
      <stop
         offset="1"
         stop-color="#f9f2e7"
         id="stop4-5" />
    </linearGradient>
  </defs>
  <sodipodi:namedview
     id="namedview5"
     pagecolor="#ffffff"
     bordercolor="#000000"
     borderopacity="0.25"
     inkscape:showpageshadow="2"
     inkscape:pageopacity="0.0"
     inkscape:pagecheckerboard="0"
     inkscape:deskcolor="#d1d1d1"
     inkscape:zoom="8.2643105"
     inkscape:cx="25.349967"
     inkscape:cy="30.311059"
     inkscape:window-width="1920"
     inkscape:window-height="998"
     inkscape:window-x="0"
     inkscape:window-y="0"
     inkscape:window-maximized="1"
     inkscape:current-layer="svg5" />
  <rect
     style="opacity:0.2;stroke-width:0.9823"
     width="55"
     height="55.017544"
     x="3.5"
     y="3.9824562"
     rx="8.25"
     ry="8.2526312"
     id="rect1" />
  <rect
     style="fill:url(#linearGradient10);stroke-width:0.9823"
     width="55"
     height="55.017544"
     x="3.5"
     y="3"
     rx="8.25"
     ry="8.2526312"
     id="rect2" />
  <path
     style="opacity:0.1;fill:#ffffff;stroke-width:0.9823"
     d="M 11.748466,3 C 7.1779652,3 3.5,6.6791384 3.5,11.251097 v 0.982456 c 0,-4.5719585 3.6779652,-8.2510969 8.248466,-8.2510969 h 38.503068 c 4.5705,0 8.248466,3.6791384 8.248466,8.2510969 V 11.251097 C 58.5,6.6791384 54.822034,3 50.251534,3 Z"
     id="path4" />
  <g
     id="g1"
     transform="matrix(0.99929114,0,0,0.97297288,0.02197509,1.824327)"
     style="fill:#ffffff;fill-opacity:1">
    <path
       style="opacity:0.2;fill:#ffffff;fill-opacity:1"
       d="m 38.951264,48.316932 c -0.78875,-0.39223 -1.665882,-1.04502 -2.060096,-1.53319 -0.906514,-1.12257 -1.19571,-1.743682 -2.050262,-1.09505 -1.11402,0.8456 -2.637468,1.28857 -4.059188,1.42082 -1.908732,0.17754 -2.0616,-0.0154 -1.318522,-1.66303 1.266452,-2.808344 1.267426,-4.336484 0.0026,-7.140458 -0.863122,-1.913968 -1.321474,-2.21099 -3.398224,-2.20213 -1.039734,0.0044 -2.740238,0.1618 -3.45818,0.408618 -1.284378,0.441548 -3.310084,1.147744 -3.499708,1.6395 -0.07098,0.18408 0.19002,0.567506 0.634516,0.932118 1.380422,1.13235 1.86249,3.05067 1.176946,4.683468 -0.311236,0.741272 -0.92731,1.47575 -1.237854,1.47575 -0.09682,0 -0.347342,-0.446414 -0.55673,-0.99203 -0.209387,-0.545618 -0.636133,-1.767736 -0.948331,-2.01212 -1.727847,-1.352538 -4.677856,1.099836 -5.70758,3.910274 -0.26572,0.7254 -0.585329,1.28502 -0.710186,1.2436 -0.489681,-0.16244 -0.852035,-1.81854 -0.760435,-3.4756 0.141228,-2.554824 1.482085,-4.688156 3.713937,-5.908938 l 0.773908,-0.423316 0.252016,-2.534562 c 0.29237,-2.940392 0.720723,-4.557914 1.777546,-6.712232 1.725593,-3.517622 5.140379,-6.44646 8.565547,-8.077948 1.038104,-0.494478 2.13728,-1.022298 2.44261,-1.172936 0.407704,-0.20115 0.535924,-0.417594 0.482794,-0.815006 -0.10812,-0.808692 -1.065102,-2.808913 -1.70728,-3.568403 -0.711894,-0.841938 -0.48954,-1.163733 1.027858,-1.487576 2.2612,-0.482593 4.572202,-0.147166 6.619154,0.892051 1.280314,0.650004 3.181438,2.496062 4.022216,3.90572 0.622134,1.04308 0.931686,1.300028 2.606304,2.163406 7.978108,4.113254 11.302784,13.002962 8.4043,21.70167 -0.449284,1.348352 -1.098426,2.701228 -1.768732,3.6862 -1.685348,2.4767 -3.438114,3.4344 -6.285484,3.4344 -1.346242,0 -1.821348,-0.10904 -2.975622,-0.68307 z"
       id="path2" />
    <path
       style="fill:#25dac3;fill-opacity:1"
       d="m 38.951264,47.316932 c -0.78875,-0.39223 -1.665882,-1.04502 -2.060096,-1.53319 -0.906514,-1.122572 -1.19571,-1.743682 -2.050262,-1.095048 -1.11402,0.845598 -2.637468,1.288568 -4.059188,1.420818 -1.908732,0.17754 -2.0616,-0.0154 -1.318522,-1.66303 1.266452,-2.808344 1.267426,-4.336484 0.0026,-7.140458 -0.863122,-1.913968 -1.321474,-2.21099 -3.398224,-2.20213 -1.039734,0.0044 -2.740238,0.1618 -3.45818,0.408618 -1.284378,0.441548 -3.310084,1.147744 -3.499708,1.6395 -0.07098,0.18408 0.19002,0.567506 0.634516,0.932118 1.380422,1.13235 1.86249,3.05067 1.176946,4.683468 -0.311236,0.741272 -0.92731,1.47575 -1.237854,1.47575 -0.09682,0 -0.347342,-0.446414 -0.55673,-0.99203 -0.209387,-0.545618 -0.636133,-1.767736 -0.948331,-2.01212 -1.727847,-1.352538 -4.677856,1.099836 -5.70758,3.910274 -0.26572,0.7254 -0.585329,1.28502 -0.710186,1.2436 -0.489681,-0.16244 -0.852035,-1.818544 -0.760435,-3.4756 0.141228,-2.554824 1.482085,-4.688156 3.713937,-5.908938 l 0.773908,-0.423316 0.252016,-2.534562 c 0.29237,-2.940392 0.720723,-4.557914 1.777546,-6.712232 1.725593,-3.517622 5.140379,-6.44646 8.565547,-8.077948 1.038104,-0.494478 2.13728,-1.022298 2.44261,-1.172936 0.407704,-0.201149 0.535924,-0.417595 0.482794,-0.815006 -0.10812,-0.808692 -1.065102,-2.808913 -1.70728,-3.568403 -0.711894,-0.841938 -0.48954,-1.163733 1.027858,-1.487576 2.2612,-0.482593 4.572202,-0.147166 6.619154,0.892051 1.280314,0.650004 3.181438,2.496062 4.022216,3.90572 0.622134,1.04308 0.931686,1.300028 2.606304,2.163406 7.978108,4.113254 11.302784,13.002962 8.4043,21.70167 -0.449284,1.348352 -1.098426,2.701228 -1.768732,3.686202 -1.685348,2.476698 -3.438114,3.434398 -6.285484,3.434398 -1.346242,0 -1.821348,-0.10904 -2.975622,-0.68307 z"
       id="path3-3" />
  </g>
</svg>
