<?xml version="1.0" encoding="UTF-8" standalone="no"?>
<!-- Created with Inkscape (http://www.inkscape.org/) -->

<svg
   width="62"
   height="62"
   viewBox="0 0 62 62"
   version="1.1"
   id="svg1"
   inkscape:version="1.4 (e7c3feb100, 2024-10-09)"
   sodipodi:docname="softwarecenter.svg"
   xmlns:inkscape="http://www.inkscape.org/namespaces/inkscape"
   xmlns:sodipodi="http://sodipodi.sourceforge.net/DTD/sodipodi-0.dtd"
   xmlns:xlink="http://www.w3.org/1999/xlink"
   xmlns="http://www.w3.org/2000/svg"
   xmlns:svg="http://www.w3.org/2000/svg">
  <sodipodi:namedview
     id="namedview1"
     pagecolor="#ffffff"
     bordercolor="#000000"
     borderopacity="0.25"
     inkscape:showpageshadow="2"
     inkscape:pageopacity="0.0"
     inkscape:pagecheckerboard="0"
     inkscape:deskcolor="#d1d1d1"
     inkscape:document-units="px"
     inkscape:zoom="7.5994534"
     inkscape:cx="30.19954"
     inkscape:cy="28.94945"
     inkscape:window-width="1920"
     inkscape:window-height="994"
     inkscape:window-x="0"
     inkscape:window-y="0"
     inkscape:window-maximized="1"
     inkscape:current-layer="layer1"
     showgrid="false"
     showguides="true">
    <inkscape:grid
       id="grid1"
       units="px"
       originx="0"
       originy="0"
       spacingx="1"
       spacingy="1"
       empcolor="#0099e5"
       empopacity="0.30196078"
       color="#0099e5"
       opacity="0.14901961"
       empspacing="5"
       enabled="true"
       visible="false" />
  </sodipodi:namedview>
  <defs
     id="defs1">
    <linearGradient
       id="linearGradient27"
       inkscape:collect="always">
      <stop
         style="stop-color:#b7c6cd;stop-opacity:1;"
         offset="0"
         id="stop24" />
      <stop
         style="stop-color:#eff2f6;stop-opacity:1;"
         offset="0.56700361"
         id="stop25" />
      <stop
         style="stop-color:#ff7f2a;stop-opacity:1;"
         offset="0.56700361"
         id="stop26" />
      <stop
         style="stop-color:#ff7f2a;stop-opacity:1"
         offset="1"
         id="stop27" />
    </linearGradient>
    <linearGradient
       id="linearGradient21"
       inkscape:collect="always">
      <stop
         style="stop-color:#b7c6cd;stop-opacity:1;"
         offset="0"
         id="stop20" />
      <stop
         style="stop-color:#eff2f6;stop-opacity:1;"
         offset="0.56700361"
         id="stop22" />
      <stop
         style="stop-color:#ff7f2a;stop-opacity:1;"
         offset="0.56700361"
         id="stop23" />
      <stop
         style="stop-color:#ff7f2a;stop-opacity:1"
         offset="1"
         id="stop21" />
    </linearGradient>
    <linearGradient
       id="linearGradient7"
       inkscape:collect="always">
      <stop
         style="stop-color:#eff2f6;stop-opacity:1;"
         offset="0"
         id="stop7" />
      <stop
         style="stop-color:#b7c6cd;stop-opacity:1;"
         offset="1"
         id="stop8" />
    </linearGradient>
    <linearGradient
       id="linearGradient15"
       inkscape:collect="always">
      <stop
         style="stop-color:#5a7286;stop-opacity:1;"
         offset="0"
         id="stop14" />
      <stop
         style="stop-color:#3e4d5b;stop-opacity:1;"
         offset="1"
         id="stop15" />
    </linearGradient>
    <linearGradient
       id="linearGradient3"
       inkscape:collect="always">
      <stop
         style="stop-color:#b7c6cd;stop-opacity:1;"
         offset="0"
         id="stop3" />
      <stop
         style="stop-color:#eff2f6;stop-opacity:1;"
         offset="1"
         id="stop4" />
    </linearGradient>
    <linearGradient
       id="linearGradient11"
       inkscape:collect="always">
      <stop
         style="stop-color:#2a7fff;stop-opacity:1"
         offset="0"
         id="stop11" />
      <stop
         style="stop-color:#9955ff;stop-opacity:1"
         offset="0.72235888"
         id="stop13" />
      <stop
         style="stop-color:#b380ff;stop-opacity:1"
         offset="1"
         id="stop12" />
    </linearGradient>
    <linearGradient
       id="linearGradient9"
       inkscape:collect="always">
      <stop
         style="stop-color:#ff8634;stop-opacity:1;"
         offset="0"
         id="stop9" />
      <stop
         style="stop-color:#ffcc00;stop-opacity:1"
         offset="1"
         id="stop10" />
    </linearGradient>
    <linearGradient
       id="linearGradient1"
       inkscape:collect="always">
      <stop
         style="stop-color:#566c80;stop-opacity:1;"
         offset="0"
         id="stop1" />
      <stop
         style="stop-color:#34414d;stop-opacity:1;"
         offset="1"
         id="stop2" />
    </linearGradient>
    <radialGradient
       id="paint664_radial_890_11"
       cx="0"
       cy="0"
       r="1"
       gradientUnits="userSpaceOnUse"
       gradientTransform="matrix(-16.000099,-9.999913,9.999913,-16.000099,583,171)">
      <stop
         offset="0.42141"
         stop-color="#B7C6CD"
         id="stop2071" />
      <stop
         offset="1"
         stop-color="#EFF2F6"
         id="stop2072" />
    </radialGradient>
    <linearGradient
       id="paint665_linear_890_11"
       x1="605"
       y1="180"
       x2="601.466"
       y2="162.72301"
       gradientUnits="userSpaceOnUse">
      <stop
         stop-color="#5200FF"
         id="stop2073" />
      <stop
         offset="1"
         stop-color="#0085FF"
         id="stop2074" />
    </linearGradient>
    <linearGradient
       id="paint666_linear_890_11"
       x1="567"
       y1="181"
       x2="562.11798"
       y2="174.183"
       gradientUnits="userSpaceOnUse">
      <stop
         stop-color="#5200FF"
         id="stop2075" />
      <stop
         offset="0.670391"
         stop-color="#0085FF"
         id="stop2076" />
    </linearGradient>
    <linearGradient
       id="paint667_linear_890_11"
       x1="605"
       y1="180"
       x2="597.32001"
       y2="174.24001"
       gradientUnits="userSpaceOnUse">
      <stop
         stop-color="#5200FF"
         id="stop2077" />
      <stop
         offset="1"
         stop-color="#0085FF"
         id="stop2078" />
    </linearGradient>
    <linearGradient
       id="paint668_linear_890_11"
       x1="567"
       y1="180"
       x2="561.23999"
       y2="172.32001"
       gradientUnits="userSpaceOnUse">
      <stop
         stop-color="#5200FF"
         id="stop2079" />
      <stop
         offset="1"
         stop-color="#0085FF"
         id="stop2080" />
    </linearGradient>
    <linearGradient
       id="paint669_linear_890_11"
       x1="607"
       y1="179"
       x2="602.50598"
       y2="171.80901"
       gradientUnits="userSpaceOnUse">
      <stop
         stop-color="#5200FF"
         id="stop2081" />
      <stop
         offset="1"
         stop-color="#0085FF"
         id="stop2082" />
    </linearGradient>
    <linearGradient
       id="paint670_linear_890_11"
       x1="607"
       y1="217"
       x2="568.82599"
       y2="170.01601"
       gradientUnits="userSpaceOnUse">
      <stop
         stop-color="#5200FF"
         id="stop2083" />
      <stop
         offset="1"
         stop-color="#0085FF"
         id="stop2084" />
    </linearGradient>
    <radialGradient
       id="paint671_radial_890_11"
       cx="0"
       cy="0"
       r="1"
       gradientUnits="userSpaceOnUse"
       gradientTransform="matrix(0,20,-16,0,583,187)">
      <stop
         offset="0.869716"
         stop-color="#EFF2F6"
         id="stop2085" />
      <stop
         offset="1"
         stop-color="#B7C6CD"
         id="stop2086" />
    </radialGradient>
    <linearGradient
       id="paint497_linear_890_11"
       x1="497"
       y1="413"
       x2="447.457"
       y2="376.79599"
       gradientUnits="userSpaceOnUse"
       gradientTransform="translate(-452,-358)">
      <stop
         offset="0.636456"
         stop-color="#71706E"
         id="stop1737" />
      <stop
         offset="1"
         stop-color="#B9AA99"
         id="stop1738" />
    </linearGradient>
    <linearGradient
       id="paint498_linear_890_11"
       x1="507"
       y1="413"
       x2="457.457"
       y2="376.79599"
       gradientUnits="userSpaceOnUse"
       gradientTransform="translate(-452,-358)">
      <stop
         offset="0.544933"
         stop-color="#FF7E07"
         id="stop1739" />
      <stop
         offset="1"
         stop-color="#FFE607"
         id="stop1740" />
    </linearGradient>
    <linearGradient
       id="paint499_linear_890_11"
       x1="473"
       y1="365"
       x2="486.28699"
       y2="389.91299"
       gradientUnits="userSpaceOnUse"
       gradientTransform="translate(-452,-358)">
      <stop
         stop-color="white"
         id="stop1741" />
      <stop
         offset="0.705"
         stop-color="#EAEFEF"
         id="stop1742" />
    </linearGradient>
    <linearGradient
       id="paint500_linear_890_11"
       x1="480"
       y1="371.5"
       x2="480"
       y2="368.5"
       gradientUnits="userSpaceOnUse"
       gradientTransform="translate(-452,-358)">
      <stop
         offset="0.155999"
         stop-color="#71706E"
         id="stop1743" />
      <stop
         offset="0.796276"
         stop-color="#B9AA99"
         id="stop1744" />
    </linearGradient>
    <linearGradient
       id="paint501_linear_890_11"
       x1="479"
       y1="375.5"
       x2="479"
       y2="372.5"
       gradientUnits="userSpaceOnUse"
       gradientTransform="translate(-452,-358)">
      <stop
         offset="0.155999"
         stop-color="#71706E"
         id="stop1745" />
      <stop
         offset="0.796276"
         stop-color="#B9AA99"
         id="stop1746" />
    </linearGradient>
    <linearGradient
       id="paint502_linear_890_11"
       x1="511"
       y1="417"
       x2="455.64352"
       y2="380.82346"
       gradientUnits="userSpaceOnUse"
       gradientTransform="translate(-452,-358)">
      <stop
         offset="0.18397722"
         stop-color="#2E2E41"
         id="stop1747"
         style="stop-color:#33424d;stop-opacity:1;" />
      <stop
         offset="1"
         stop-color="#566C80"
         id="stop1748" />
    </linearGradient>
    <linearGradient
       id="paint745_linear_890_11"
       x1="172"
       y1="61"
       x2="195.978"
       y2="83.979202"
       gradientUnits="userSpaceOnUse">
      <stop
         stop-color="#EFF2F6"
         id="stop2233" />
      <stop
         offset="1"
         stop-color="#ACD1CF"
         id="stop2234" />
    </linearGradient>
    <linearGradient
       id="paint746_linear_890_11"
       x1="176"
       y1="84"
       x2="175.47501"
       y2="78.479202"
       gradientUnits="userSpaceOnUse">
      <stop
         offset="0.404925"
         stop-color="#2E2E41"
         id="stop2235" />
      <stop
         offset="1"
         stop-color="#566C80"
         id="stop2236" />
    </linearGradient>
    <linearGradient
       id="paint747_linear_890_11"
       x1="202"
       y1="84"
       x2="201.47501"
       y2="78.479202"
       gradientUnits="userSpaceOnUse">
      <stop
         offset="0.404925"
         stop-color="#2E2E41"
         id="stop2237" />
      <stop
         offset="1"
         stop-color="#566C80"
         id="stop2238" />
    </linearGradient>
    <linearGradient
       id="paint748_linear_890_11"
       x1="155"
       y1="82"
       x2="186.461"
       y2="132.33701"
       gradientUnits="userSpaceOnUse">
      <stop
         offset="0.205721"
         stop-color="#EFF2F6"
         id="stop2239" />
      <stop
         offset="1"
         stop-color="#B7C6CD"
         id="stop2240" />
    </linearGradient>
    <radialGradient
       id="paint750_radial_890_11"
       cx="0"
       cy="0"
       r="1"
       gradientUnits="userSpaceOnUse"
       gradientTransform="matrix(5.6470608,5.6470608,-5.6470608,5.6470608,172,96)">
      <stop
         offset="0.340843"
         stop-color="#2E2E41"
         id="stop2243" />
      <stop
         offset="1"
         stop-color="#566C80"
         id="stop2244" />
    </radialGradient>
    <linearGradient
       id="paint751_linear_890_11"
       x1="166"
       y1="90"
       x2="178"
       y2="102"
       gradientUnits="userSpaceOnUse">
      <stop
         stop-color="white"
         id="stop2245" />
      <stop
         offset="0.705"
         stop-color="#EAEFEF"
         id="stop2246" />
    </linearGradient>
    <linearGradient
       id="paint752_linear_890_11"
       x1="193"
       y1="88"
       x2="199"
       y2="94"
       gradientUnits="userSpaceOnUse">
      <stop
         stop-color="#FFE607"
         id="stop2247" />
      <stop
         offset="0.802569"
         stop-color="#FF7E07"
         id="stop2248" />
    </linearGradient>
    <linearGradient
       id="paint753_linear_890_11"
       x1="199"
       y1="104"
       x2="193"
       y2="98"
       gradientUnits="userSpaceOnUse">
      <stop
         offset="0.253846"
         stop-color="#089953"
         id="stop2249" />
      <stop
         offset="1"
         stop-color="#16D96F"
         id="stop2250" />
    </linearGradient>
    <linearGradient
       id="paint754_linear_890_11"
       x1="198"
       y1="93"
       x2="204"
       y2="99"
       gradientUnits="userSpaceOnUse">
      <stop
         offset="0.30755"
         stop-color="#F15700"
         id="stop2251" />
      <stop
         offset="0.832479"
         stop-color="#FF0000"
         id="stop2252" />
    </linearGradient>
    <linearGradient
       id="paint755_linear_890_11"
       x1="194"
       y1="99"
       x2="188"
       y2="93"
       gradientUnits="userSpaceOnUse">
      <stop
         offset="0.320751"
         stop-color="#5200FF"
         id="stop2253" />
      <stop
         offset="1"
         stop-color="#0085FF"
         id="stop2254" />
    </linearGradient>
    <linearGradient
       id="paint715_linear_890_11"
       x1="709"
       y1="86"
       x2="654"
       y2="86"
       gradientUnits="userSpaceOnUse">
      <stop
         offset="0.755673"
         stop-color="#2E2E41"
         id="stop2173" />
      <stop
         offset="1"
         stop-color="#566C80"
         id="stop2174" />
    </linearGradient>
    <linearGradient
       id="paint716_linear_890_11"
       x1="701.5"
       y1="62"
       x2="716.95398"
       y2="78.880203"
       gradientUnits="userSpaceOnUse">
      <stop
         offset="0.211991"
         stop-color="#F15700"
         id="stop2175" />
      <stop
         offset="0.727675"
         stop-color="#FF0000"
         id="stop2176" />
    </linearGradient>
    <linearGradient
       id="paint717_linear_890_11"
       x1="695"
       y1="99"
       x2="673.17603"
       y2="92.108299"
       gradientUnits="userSpaceOnUse">
      <stop
         offset="0.435168"
         stop-color="#FF7E07"
         id="stop2177" />
      <stop
         offset="0.890828"
         stop-color="#FFE607"
         id="stop2178" />
    </linearGradient>
    <linearGradient
       id="paint718_linear_890_11"
       x1="711"
       y1="84"
       x2="660"
       y2="84"
       gradientUnits="userSpaceOnUse">
      <stop
         offset="0.246877"
         stop-color="#2E2E41"
         id="stop2179" />
      <stop
         offset="0.959876"
         stop-color="#566C80"
         id="stop2180" />
    </linearGradient>
    <linearGradient
       id="paint719_linear_890_11"
       x1="701"
       y1="117"
       x2="689"
       y2="105"
       gradientUnits="userSpaceOnUse">
      <stop
         offset="0.248126"
         stop-color="#2E2E41"
         id="stop2181" />
      <stop
         offset="0.840601"
         stop-color="#566C80"
         id="stop2182" />
    </linearGradient>
    <linearGradient
       id="paint720_linear_890_11"
       x1="693"
       y1="109"
       x2="697"
       y2="113"
       gradientUnits="userSpaceOnUse">
      <stop
         stop-color="#EFF2F6"
         id="stop2183" />
      <stop
         offset="1"
         stop-color="#B7C6CD"
         id="stop2184" />
    </linearGradient>
    <linearGradient
       id="paint721_linear_890_11"
       x1="673"
       y1="117"
       x2="661"
       y2="105"
       gradientUnits="userSpaceOnUse">
      <stop
         offset="0.261793"
         stop-color="#2E2E41"
         id="stop2185" />
      <stop
         offset="0.741099"
         stop-color="#566C80"
         id="stop2186" />
    </linearGradient>
    <linearGradient
       id="paint722_linear_890_11"
       x1="665"
       y1="109"
       x2="669"
       y2="113"
       gradientUnits="userSpaceOnUse">
      <stop
         stop-color="#EFF2F6"
         id="stop2187" />
      <stop
         offset="1"
         stop-color="#B7C6CD"
         id="stop2188" />
    </linearGradient>
    <linearGradient
       id="paint567_linear_890_11"
       x1="697"
       y1="273"
       x2="688.31"
       y2="252.724"
       gradientUnits="userSpaceOnUse">
      <stop
         offset="0.46731299"
         stop-color="#2E2E41"
         id="stop1877"
         style="stop-color:#8888aa;stop-opacity:1;" />
      <stop
         offset="1"
         stop-color="#566C80"
         id="stop1878"
         style="stop-color:#b3c0cc;stop-opacity:1;" />
    </linearGradient>
    <linearGradient
       id="paint568_linear_890_11"
       x1="668"
       y1="317"
       x2="664.79999"
       y2="310.60001"
       gradientUnits="userSpaceOnUse"
       gradientTransform="translate(-652,-258)">
      <stop
         stop-color="#2E2E41"
         id="stop1879"
         offset="0"
         style="stop-color:#e7e7f0;stop-opacity:1;" />
      <stop
         offset="1"
         stop-color="#566C80"
         id="stop1880"
         style="stop-color:#94a6b7;stop-opacity:1;" />
    </linearGradient>
    <linearGradient
       id="paint569_linear_890_11"
       x1="706"
       y1="317"
       x2="702.79999"
       y2="310.60001"
       gradientUnits="userSpaceOnUse"
       gradientTransform="translate(-652,-258)">
      <stop
         stop-color="#2E2E41"
         id="stop1881"
         offset="0"
         style="stop-color:#d4d4e1;stop-opacity:1;" />
      <stop
         offset="1"
         stop-color="#566C80"
         id="stop1882"
         style="stop-color:#95a7b7;stop-opacity:1;" />
    </linearGradient>
    <linearGradient
       id="paint570_linear_890_11"
       x1="683"
       y1="315"
       x2="683"
       y2="271"
       gradientUnits="userSpaceOnUse">
      <stop
         offset="0.29223099"
         stop-color="#2E2E41"
         id="stop1883"
         style="stop-color:#4a4a69;stop-opacity:1;" />
      <stop
         offset="0.88653302"
         stop-color="#566C80"
         id="stop1884"
         style="stop-color:#7990a5;stop-opacity:1;" />
    </linearGradient>
    <linearGradient
       id="paint571_linear_890_11"
       x1="687"
       y1="289"
       x2="695.49103"
       y2="304.28299"
       gradientUnits="userSpaceOnUse"
       gradientTransform="translate(-652,-258)">
      <stop
         stop-color="#EFF2F6"
         id="stop1885" />
      <stop
         offset="1"
         stop-color="#B7C6CD"
         id="stop1886" />
    </linearGradient>
    <linearGradient
       id="paint572_linear_890_11"
       x1="691.5"
       y1="293.5"
       x2="691.5"
       y2="290.5"
       gradientUnits="userSpaceOnUse"
       gradientTransform="translate(-652,-258)">
      <stop
         offset="0.155999"
         stop-color="#71706E"
         id="stop1887" />
      <stop
         offset="0.796276"
         stop-color="#B9AA99"
         id="stop1888" />
    </linearGradient>
    <linearGradient
       id="paint573_linear_890_11"
       x1="690.5"
       y1="297.5"
       x2="690.5"
       y2="294.5"
       gradientUnits="userSpaceOnUse"
       gradientTransform="translate(-652,-258)">
      <stop
         offset="0.155999"
         stop-color="#71706E"
         id="stop1889" />
      <stop
         offset="0.796276"
         stop-color="#B9AA99"
         id="stop1890" />
    </linearGradient>
    <linearGradient
       id="paint574_linear_890_11"
       x1="711"
       y1="309"
       x2="710.43103"
       y2="301.04099"
       gradientUnits="userSpaceOnUse">
      <stop
         stop-color="#2E2E41"
         id="stop1891"
         style="stop-color:#c83771;stop-opacity:1" />
      <stop
         offset="1"
         stop-color="#566C80"
         id="stop1892"
         style="stop-color:#e9afc6;stop-opacity:1" />
    </linearGradient>
    <linearGradient
       id="paint575_linear_890_11"
       x1="711"
       y1="281"
       x2="710.43103"
       y2="273.04099"
       gradientUnits="userSpaceOnUse">
      <stop
         stop-color="#2E2E41"
         id="stop1893"
         style="stop-color:#c83771;stop-opacity:1" />
      <stop
         offset="1"
         stop-color="#566C80"
         id="stop1894"
         style="stop-color:#ffaaaa;stop-opacity:1" />
    </linearGradient>
    <linearGradient
       inkscape:collect="always"
       xlink:href="#linearGradient15"
       id="linearGradient2"
       x1="661"
       y1="84"
       x2="711.33436"
       y2="84"
       gradientUnits="userSpaceOnUse" />
    <linearGradient
       inkscape:collect="always"
       xlink:href="#linearGradient1"
       id="linearGradient4"
       x1="655"
       y1="85"
       x2="706"
       y2="85"
       gradientUnits="userSpaceOnUse" />
    <linearGradient
       inkscape:collect="always"
       xlink:href="#linearGradient1"
       id="linearGradient6"
       x1="689"
       y1="111"
       x2="701"
       y2="111"
       gradientUnits="userSpaceOnUse" />
    <linearGradient
       inkscape:collect="always"
       xlink:href="#linearGradient1"
       id="linearGradient8"
       x1="661"
       y1="111"
       x2="673"
       y2="111"
       gradientUnits="userSpaceOnUse" />
    <linearGradient
       inkscape:collect="always"
       xlink:href="#linearGradient9"
       id="linearGradient10"
       x1="682"
       y1="89"
       x2="695"
       y2="91"
       gradientUnits="userSpaceOnUse" />
    <linearGradient
       inkscape:collect="always"
       xlink:href="#linearGradient11"
       id="linearGradient12"
       x1="695.56158"
       y1="72.285561"
       x2="714"
       y2="82.112442"
       gradientUnits="userSpaceOnUse" />
    <linearGradient
       inkscape:collect="always"
       xlink:href="#linearGradient3"
       id="linearGradient5"
       x1="665"
       y1="111"
       x2="669"
       y2="111"
       gradientUnits="userSpaceOnUse" />
    <linearGradient
       inkscape:collect="always"
       xlink:href="#linearGradient3"
       id="linearGradient13"
       x1="693"
       y1="111"
       x2="697"
       y2="111"
       gradientUnits="userSpaceOnUse" />
    <linearGradient
       id="paint305_linear_890_11"
       x1="894.65198"
       y1="587"
       x2="894.65198"
       y2="581"
       gradientUnits="userSpaceOnUse"
       gradientTransform="translate(-844,-566)">
      <stop
         offset="0.340681"
         stop-color="#2E2E41"
         id="stop1352" />
      <stop
         offset="1"
         stop-color="#566C80"
         id="stop1353" />
    </linearGradient>
    <linearGradient
       id="paint305_linear_890_11-0"
       x1="894.65198"
       y1="587"
       x2="894.65198"
       y2="581"
       gradientUnits="userSpaceOnUse"
       gradientTransform="translate(-839.05343,-558)">
      <stop
         offset="0.340681"
         stop-color="#2E2E41"
         id="stop1352-2" />
      <stop
         offset="1"
         stop-color="#566C80"
         id="stop1353-3" />
    </linearGradient>
    <linearGradient
       id="paint305_linear_890_11-8"
       x1="894.65198"
       y1="587"
       x2="894.65198"
       y2="581"
       gradientUnits="userSpaceOnUse"
       gradientTransform="translate(-844,-550)">
      <stop
         offset="0.340681"
         stop-color="#2E2E41"
         id="stop1352-9" />
      <stop
         offset="1"
         stop-color="#566C80"
         id="stop1353-7" />
    </linearGradient>
    <linearGradient
       inkscape:collect="always"
       xlink:href="#linearGradient7"
       id="linearGradient14"
       x1="17"
       y1="18"
       x2="23"
       y2="18"
       gradientUnits="userSpaceOnUse" />
    <linearGradient
       inkscape:collect="always"
       xlink:href="#linearGradient7"
       id="linearGradient17"
       x1="21.946573"
       y1="26"
       x2="27.946573"
       y2="26"
       gradientUnits="userSpaceOnUse" />
    <linearGradient
       inkscape:collect="always"
       xlink:href="#linearGradient7"
       id="linearGradient19"
       x1="17"
       y1="34"
       x2="23"
       y2="34"
       gradientUnits="userSpaceOnUse" />
    <linearGradient
       inkscape:collect="always"
       xlink:href="#linearGradient27"
       id="linearGradient20"
       gradientUnits="userSpaceOnUse"
       x1="17.053066"
       y1="34"
       x2="23"
       y2="34"
       gradientTransform="translate(9.9469331,-16)" />
    <linearGradient
       inkscape:collect="always"
       xlink:href="#linearGradient21"
       id="linearGradient23"
       gradientUnits="userSpaceOnUse"
       gradientTransform="translate(9.946933)"
       x1="17.053066"
       y1="34"
       x2="23"
       y2="34" />
  </defs>
  <g
     inkscape:label="Layer 1"
     inkscape:groupmode="layer"
     id="layer1">
    <g
       id="g1"
       transform="translate(-652,-58)">
      <g
         id="g2275">
        <path
           d="m 655,63 c 0,-1.1046 0.895,-2 2,-2 h 8 c 1.105,0 2,0.8954 2,2 v 40 h 36 c 1.657,0 3,1.343 3,3 0,1.657 -1.343,3 -3,3 h -37 c -2.761,0 -5,-2.239 -5,-5 V 67 h -4 c -1.105,0 -2,-0.8954 -2,-2 z"
           id="path695"
           style="fill:url(#linearGradient4)" />
        <path
           d="m 699,66.3301 c 1.381,-2.3914 4.439,-3.2108 6.83,-1.8301 l 1.732,1 c 2.392,1.3807 3.211,4.4387 1.83,6.8301 l -14,24.2487 c -1.38,2.3915 -4.438,3.2109 -6.83,1.8302 l -1.732,-1 c -2.391,-1.3808 -3.211,-4.4387 -1.83,-6.8302 z"
           id="path696"
           style="fill:url(#linearGradient12)" />
        <path
           d="m 683,66 c 0,-2.7614 2.239,-5 5,-5 h 2 c 2.761,0 5,2.2386 5,5 v 28 c 0,2.7614 -2.239,5 -5,5 h -2 c -2.761,0 -5,-2.2386 -5,-5 z"
           id="path697"
           style="fill:url(#linearGradient10)" />
        <path
           fill-rule="evenodd"
           clip-rule="evenodd"
           d="m 661,67 h 47.334 c 1.895,0 3.315,1.7359 2.94,3.5938 l -5.654,28 C 705.338,99.9935 704.108,101 702.68,101 H 661 Z m 8,8 c 0,-1.1046 0.895,-2 2,-2 h 2 c 1.105,0 2,0.8954 2,2 v 2 c 0,1.1046 -0.895,2 -2,2 h -2 c -1.105,0 -2,-0.8954 -2,-2 z m 2,14 c -1.105,0 -2,0.8954 -2,2 v 2 c 0,1.1046 0.895,2 2,2 h 2 c 1.105,0 2,-0.8954 2,-2 v -2 c 0,-1.1046 -0.895,-2 -2,-2 z m 3,-6 c 0,-1.1046 0.895,-2 2,-2 h 2 c 1.105,0 2,0.8954 2,2 v 2 c 0,1.1046 -0.895,2 -2,2 h -2 c -1.105,0 -2,-0.8954 -2,-2 z m 12,-2 c -1.105,0 -2,0.8954 -2,2 v 2 c 0,1.1046 0.895,2 2,2 h 2 c 1.105,0 2,-0.8954 2,-2 v -2 c 0,-1.1046 -0.895,-2 -2,-2 z m 8,2 c 0,-1.1046 0.895,-2 2,-2 h 2 c 1.105,0 2,0.8954 2,2 v 2 c 0,1.1046 -0.895,2 -2,2 h -2 c -1.105,0 -2,-0.8954 -2,-2 z M 681,73 c -1.105,0 -2,0.8954 -2,2 v 2 c 0,1.1046 0.895,2 2,2 h 2 c 1.105,0 2,-0.8954 2,-2 v -2 c 0,-1.1046 -0.895,-2 -2,-2 z m -2,18 c 0,-1.1046 0.895,-2 2,-2 h 2 c 1.105,0 2,0.8954 2,2 v 2 c 0,1.1046 -0.895,2 -2,2 h -2 c -1.105,0 -2,-0.8954 -2,-2 z m 12,-18 c -1.105,0 -2,0.8954 -2,2 v 2 c 0,1.1046 0.895,2 2,2 h 2 c 1.105,0 2,-0.8954 2,-2 v -2 c 0,-1.1046 -0.895,-2 -2,-2 z m -2,18 c 0,-1.1046 0.895,-2 2,-2 h 2 c 1.105,0 2,0.8954 2,2 v 2 c 0,1.1046 -0.895,2 -2,2 h -2 c -1.105,0 -2,-0.8954 -2,-2 z m 12,-18 c -1.105,0 -2,0.8954 -2,2 v 2 c 0,1.1046 0.895,2 2,2 h 2 c 1.105,0 2,-0.8954 2,-2 v -2 c 0,-1.1046 -0.895,-2 -2,-2 z"
           id="path698"
           style="fill:url(#linearGradient2)" />
        <path
           d="m 701,111 c 0,3.314 -2.686,6 -6,6 -3.314,0 -6,-2.686 -6,-6 0,-3.314 2.686,-6 6,-6 3.314,0 6,2.686 6,6 z"
           id="path699"
           style="fill:url(#linearGradient6)" />
        <path
           d="m 697,111 c 0,1.105 -0.895,2 -2,2 -1.105,0 -2,-0.895 -2,-2 0,-1.105 0.895,-2 2,-2 1.105,0 2,0.895 2,2 z"
           id="path700"
           style="fill:url(#linearGradient13)" />
        <path
           d="m 673,111 c 0,3.314 -2.686,6 -6,6 -3.314,0 -6,-2.686 -6,-6 0,-3.314 2.686,-6 6,-6 3.314,0 6,2.686 6,6 z"
           id="path701"
           style="fill:url(#linearGradient8)" />
        <path
           d="m 669,111 c 0,1.105 -0.895,2 -2,2 -1.105,0 -2,-0.895 -2,-2 0,-1.105 0.895,-2 2,-2 1.105,0 2,0.895 2,2 z"
           id="path702"
           style="fill:url(#linearGradient5)" />
      </g>
    </g>
    <path
       d="m 19,15 c -1.105,0 -2,0.895 -2,2 v 2 c 0,1.105 0.895,2 2,2 h 2 c 1.105,0 2,-0.895 2,-2 v -2 c 0,-1.105 -0.895,-2 -2,-2 z"
       id="path297"
       style="fill:url(#linearGradient14)" />
    <path
       d="m 23.946573,23 c -1.105,0 -2,0.895 -2,2 v 2 c 0,1.105 0.895,2 2,2 h 2 c 1.105,0 2,-0.895 2,-2 v -2 c 0,-1.105 -0.895,-2 -2,-2 z"
       id="path297-9"
       style="fill:url(#linearGradient17)" />
    <path
       d="m 19,31 c -1.105,0 -2,0.895 -2,2 v 2 c 0,1.105 0.895,2 2,2 h 2 c 1.105,0 2,-0.895 2,-2 v -2 c 0,-1.105 -0.895,-2 -2,-2 z"
       id="path297-1"
       style="fill:url(#linearGradient19)" />
    <path
       d="m 28.946933,15 c -1.105,0 -2,0.895 -2,2 v 2 c 0,1.105 0.895,2 2,2 h 2 c 1.105,0 2,-0.895 2,-2 v -2 c 0,-1.105 -0.895,-2 -2,-2 z"
       id="path297-1-7"
       style="fill:url(#linearGradient20)" />
    <path
       d="m 28.946933,31 c -1.105,0 -2,0.895 -2,2 v 2 c 0,1.105 0.895,2 2,2 h 2 c 1.105,0 2,-0.895 2,-2 v -2 c 0,-1.105 -0.895,-2 -2,-2 z"
       id="path297-1-7-6"
       style="fill:url(#linearGradient23)" />
  </g>
</svg>
