<?xml version="1.0" encoding="UTF-8" standalone="no"?>
<svg
   width="62"
   height="62"
   version="1"
   id="svg4"
   sodipodi:docname="solaar.svg"
   inkscape:version="1.4 (e7c3feb100, 2024-10-09)"
   xmlns:inkscape="http://www.inkscape.org/namespaces/inkscape"
   xmlns:sodipodi="http://sodipodi.sourceforge.net/DTD/sodipodi-0.dtd"
   xmlns="http://www.w3.org/2000/svg"
   xmlns:svg="http://www.w3.org/2000/svg">
  <defs
     id="defs4" />
  <sodipodi:namedview
     id="namedview4"
     pagecolor="#ffffff"
     bordercolor="#000000"
     borderopacity="0.25"
     inkscape:showpageshadow="2"
     inkscape:pageopacity="0.0"
     inkscape:pagecheckerboard="0"
     inkscape:deskcolor="#d1d1d1"
     inkscape:zoom="11.6875"
     inkscape:cx="31.957219"
     inkscape:cy="32"
     inkscape:window-width="1920"
     inkscape:window-height="994"
     inkscape:window-x="0"
     inkscape:window-y="0"
     inkscape:window-maximized="1"
     inkscape:current-layer="svg4" />
  <g
     id="g4"
     transform="translate(-0.5,-1.0000005)">
    <rect
       style="opacity:0.2;stroke-width:0.982303"
       width="55"
       height="55.017544"
       x="4"
       y="4.9824572"
       rx="16.499996"
       ry="16.50526"
       id="rect1" />
    <rect
       style="fill:#008080;stroke-width:0.982303"
       width="55"
       height="55.017544"
       x="4"
       y="4"
       rx="16.499996"
       ry="16.50526"
       id="rect2" />
    <path
       style="opacity:0.2;stroke-width:0.982303"
       d="m 24.229841,14.00079 -5.102539,2.94737 4.63065,8.020832 a 10.803573,10.807019 0 0 0 -2.641428,4.574561 h -9.25938 v 5.894737 h 9.251708 a 10.803573,10.807019 0 0 0 2.643345,4.584156 l -4.624895,8.011238 5.102539,2.947369 4.632568,-8.02467 A 10.803573,10.807019 0 0 0 31.5,43.29794 10.803573,10.807019 0 0 0 34.141429,42.96022 l 4.62873,8.020833 5.10254,-2.947369 -4.630652,-8.020834 a 10.803573,10.807019 0 0 0 2.641427,-4.57456 h 9.259383 v -5.894737 h -9.251709 a 10.803573,10.807019 0 0 0 -2.643347,-4.584156 l 4.624898,-8.011237 -5.10254,-2.94737 -4.632569,8.024671 A 10.803573,10.807019 0 0 0 31.5,21.683904 10.803573,10.807019 0 0 0 28.858572,22.021623 Z M 31.5,25.61373 A 6.8750002,6.8771932 0 0 1 38.374997,32.490921 6.8750002,6.8771932 0 0 1 31.5,39.368114 6.8750002,6.8771932 0 0 1 24.625,32.490921 6.8750002,6.8771932 0 0 1 31.5,25.61373 Z"
       id="path2" />
    <path
       style="fill:#ffffff;stroke-width:0.982303"
       d="m 24.229841,13.01864 -5.102539,2.947368 4.63065,8.020835 a 10.803573,10.807019 0 0 0 -2.641428,4.57456 h -9.25938 v 5.894739 h 9.251708 a 10.803573,10.807019 0 0 0 2.643345,4.584156 l -4.624895,8.011237 5.102539,2.947367 4.632568,-8.024668 A 10.803573,10.807019 0 0 0 31.5,42.315791 a 10.803573,10.807019 0 0 0 2.641429,-0.33772 l 4.62873,8.020831 5.10254,-2.947367 -4.630652,-8.020833 a 10.803573,10.807019 0 0 0 2.641427,-4.57456 h 9.259383 v -5.894739 h -9.251709 a 10.803573,10.807019 0 0 0 -2.643347,-4.584155 l 4.624898,-8.01124 -5.10254,-2.947368 -4.632569,8.024671 A 10.803573,10.807019 0 0 0 31.5,20.701754 10.803573,10.807019 0 0 0 28.858572,21.039474 Z M 31.5,24.631579 A 6.8750002,6.8771932 0 0 1 38.374997,31.508773 6.8750002,6.8771932 0 0 1 31.5,38.385962 6.8750002,6.8771932 0 0 1 24.625,31.508773 6.8750002,6.8771932 0 0 1 31.5,24.631579 Z"
       id="path3" />
    <path
       style="opacity:0.2;fill:#ffffff;stroke-width:0.982303"
       d="M 20.500766,4 C 11.359768,4 4,11.362116 4,20.50603 v 0.982457 C 4,12.344572 11.359768,4.982456 20.500766,4.982456 H 42.499232 C 51.640232,4.982456 59,12.344572 59,21.488487 V 20.50603 C 59,11.362116 51.640232,4 42.499232,4 Z"
       id="path4" />
  </g>
</svg>
