<?xml version="1.0" encoding="UTF-8" standalone="no"?>
<svg
   width="62"
   height="62"
   version="1.1"
   id="svg7"
   sodipodi:docname="sqlitebrowser.svg"
   inkscape:version="1.4 (unknown)"
   xmlns:inkscape="http://www.inkscape.org/namespaces/inkscape"
   xmlns:sodipodi="http://sodipodi.sourceforge.net/DTD/sodipodi-0.dtd"
   xmlns="http://www.w3.org/2000/svg"
   xmlns:svg="http://www.w3.org/2000/svg">
  <defs
     id="defs7" />
  <sodipodi:namedview
     id="namedview7"
     pagecolor="#ffffff"
     bordercolor="#000000"
     borderopacity="0.25"
     inkscape:showpageshadow="2"
     inkscape:pageopacity="0.0"
     inkscape:pagecheckerboard="0"
     inkscape:deskcolor="#d1d1d1"
     inkscape:zoom="6.0546875"
     inkscape:cx="43.932903"
     inkscape:cy="30.967742"
     inkscape:window-width="1920"
     inkscape:window-height="998"
     inkscape:window-x="0"
     inkscape:window-y="0"
     inkscape:window-maximized="1"
     inkscape:current-layer="svg7" />
  <g
     id="g7"
     transform="matrix(0.98214285,0,0,0.98245614,-0.4285711,-0.92982455)">
    <path
       style="opacity:0.2"
       d="M 32,33 A 28,14 0 0 0 3.9999998,47 28,14 0 0 0 32,61 28,14 0 0 0 60,47 28,14 0 0 0 32,33 Z"
       id="path1" />
    <path
       style="fill:#2d3d53;fill-opacity:1"
       d="M 32,32 A 28,14 0 0 0 3.9999998,46 28,14 0 0 0 32,60 28,14 0 0 0 60,46 28,14 0 0 0 32,32 Z"
       id="path2" />
    <path
       style="opacity:0.2"
       d="M 32,19 A 28,14 0 0 0 3.9999998,33 28,14 0 0 0 32,47 28,14 0 0 0 60,33 28,14 0 0 0 32,19 Z"
       id="path3" />
    <path
       style="fill:#55749e;fill-opacity:1"
       d="M 32,18 A 28,14 0 0 0 3.9999998,32 28,14 0 0 0 32,46 28,14 0 0 0 60,32 28,14 0 0 0 32,18 Z"
       id="path4" />
    <path
       style="opacity:0.2"
       d="M 32,5 A 28,14 0 0 0 3.9999998,19 28,14 0 0 0 32,33 28,14 0 0 0 60,19 28,14 0 0 0 32,5 Z"
       id="path5" />
    <path
       style="fill:#c6d1e0;fill-opacity:1"
       d="M 32,4 A 28,14 0 0 0 3.9999998,18 28,14 0 0 0 32,32 28,14 0 0 0 60,18 28,14 0 0 0 32,4 Z"
       id="path6" />
    <path
       style="opacity:0.2;fill:#ffffff"
       d="M 32,4 A 28,14 0 0 0 4,18 28,14 0 0 0 4.0410156,18.410156 28,14 0 0 1 32,5 28,14 0 0 1 59.953125,18.537109 28,14 0 0 0 60,18 28,14 0 0 0 32,4 Z"
       id="path7" />
  </g>
  <path
     id="path37"
     d="M 37.344668,5.5037241 C 22.783374,5.4877241 18.866194,22.073121 19.436158,31.5826 c 1.533687,1.28994 2.699467,2.843886 3.745246,4.255832 -1.04181,-1.253959 -2.467514,-2.209934 -3.875226,-3.251894 -0.111979,0.933977 -0.193962,1.803928 -0.243951,2.58589 2.0716,1.555949 4.051355,4.495837 4.051355,4.495837 0,0 -0.147971,-0.187998 -0.755844,-0.823954 -0.539879,-0.563992 -2.811457,-2.20793 -3.347329,-2.591899 -0.052,1.747952 0.09198,2.897896 0.419913,3.127885 0.633877,0.444027 1.381709,1.271949 2.113592,2.20192 1.649683,2.095903 3.217348,4.725637 3.217348,4.725637 1.365721,4.054001 2.711449,7.931872 5.818697,11.183464 l 1.113773,-0.249983 C 29.950089,55.295407 28.310422,52.591669 27.334717,49.363511 25.839016,44.429618 24.861195,38.256016 25.651056,31.59409 27.382718,21.444347 31.737727,12.78868 36.896884,8.1231395 32.349645,12.806822 27.778594,25.434472 26.930829,31.270178 c -0.887828,5.385933 -0.389941,9.92977 0.06802,14.555625 0.465911,-4.491679 6.406803,-7.371735 6.406803,-7.371735 0,0 2.15358,-3.193878 4.423268,-7.617788 -2.973412,0.991956 -5.80887,2.099909 -8.48445,3.557852 0,0 4.853009,-3.401868 9.370011,-5.341711 C 42.815725,20.522615 46.404835,8.7892188 37.34872,5.4911381"
     fill="#24abeb"
     stroke-width="1.99975"
     style="fill:#aa87de" />
</svg>
