<?xml version="1.0" encoding="UTF-8" standalone="no"?>
<svg
   width="62"
   height="62"
   version="1"
   id="svg6"
   sodipodi:docname="stacer.svg"
   inkscape:version="1.4 (e7c3feb100, 2024-10-09)"
   xmlns:inkscape="http://www.inkscape.org/namespaces/inkscape"
   xmlns:sodipodi="http://sodipodi.sourceforge.net/DTD/sodipodi-0.dtd"
   xmlns="http://www.w3.org/2000/svg"
   xmlns:svg="http://www.w3.org/2000/svg">
  <defs
     id="defs6" />
  <sodipodi:namedview
     id="namedview6"
     pagecolor="#ffffff"
     bordercolor="#000000"
     borderopacity="0.25"
     inkscape:showpageshadow="2"
     inkscape:pageopacity="0.0"
     inkscape:pagecheckerboard="0"
     inkscape:deskcolor="#d1d1d1"
     inkscape:zoom="11.6875"
     inkscape:cx="31.957219"
     inkscape:cy="31.743316"
     inkscape:window-width="1920"
     inkscape:window-height="994"
     inkscape:window-x="0"
     inkscape:window-y="0"
     inkscape:window-maximized="1"
     inkscape:current-layer="svg6" />
  <g
     id="g6"
     transform="translate(0.5,1.1253357e-4)">
    <rect
       style="opacity:0.2;stroke-width:0.948708"
       width="55.05061"
       height="55"
       x="-58.999775"
       y="-58"
       rx="27.525305"
       ry="27.5"
       transform="matrix(0,-1,-1,0,0,0)"
       id="rect1" />
    <rect
       style="fill:#3c5771;stroke-width:0.948708"
       width="55.05061"
       height="55"
       x="-58.05061"
       y="-58"
       rx="27.525305"
       ry="27.5"
       transform="matrix(0,-1,-1,0,0,0)"
       id="rect2" />
    <path
       style="opacity:0.2;stroke-width:0.948708"
       d="m 46.987352,35.896282 -15.39173,-1.180089 1.472592,-5.50084 z"
       id="path2" />
    <path
       style="opacity:0.2;stroke-width:0.948708"
       d="m 30.499985,7.744607 a 2.8448281,2.8474457 0 0 0 -2.844819,2.847449 2.8448281,2.8474457 0 0 0 2.844819,2.847441 2.8448281,2.8474457 0 0 0 2.844841,-2.847441 2.8448281,2.8474457 0 0 0 -2.844841,-2.847449 z M 19.05402,11.541204 a 2.8448281,2.8474457 0 0 0 -1.355744,0.378162 2.8448281,2.8474457 0 0 0 -1.040888,3.893007 2.8448281,2.8474457 0 0 0 3.885712,1.041826 2.8448281,2.8474457 0 0 0 1.040889,-3.889287 2.8448281,2.8474457 0 0 0 -2.529969,-1.423708 z m 22.891951,0 a 2.8448281,2.8474457 0 0 0 -2.52997,1.423708 2.8448281,2.8474457 0 0 0 1.040892,3.889287 2.8448281,2.8474457 0 0 0 3.885711,-1.041826 2.8448281,2.8474457 0 0 0 -1.040889,-3.893007 2.8448281,2.8474457 0 0 0 -1.355744,-0.378162 z m -30.341109,7.593171 a 2.8448281,2.8474457 0 0 0 -0.203736,0.0039 2.8448281,2.8474457 0 0 0 -2.3299385,1.420008 2.8448281,2.8474457 0 0 0 1.0445935,3.889288 2.8448281,2.8474457 0 0 0 3.885692,-1.041847 2.8448281,2.8474457 0 0 0 -1.040871,-3.889285 2.8448281,2.8474457 0 0 0 -1.35574,-0.381889 z m 37.790269,0 a 2.8448281,2.8474457 0 0 0 -1.355743,0.381905 2.8448281,2.8474457 0 0 0 -1.040871,3.889265 2.8448281,2.8474457 0 0 0 3.885691,1.041846 2.8448281,2.8474457 0 0 0 1.044587,-3.889286 2.8448281,2.8474457 0 0 0 -2.329932,-1.420012 2.8448281,2.8474457 0 0 0 -0.203732,-0.0039 z M 9.6379298,30.524168 a 2.8448281,2.8474457 0 0 0 -2.8448282,2.847446 2.8448281,2.8474457 0 0 0 2.8448282,2.847438 2.8448281,2.8474457 0 0 0 2.8448322,-2.847438 2.8448281,2.8474457 0 0 0 -2.8448322,-2.847446 z m 41.7241222,0 a 2.8448281,2.8474457 0 0 0 -2.84482,2.847446 2.8448281,2.8474457 0 0 0 2.84482,2.847438 2.8448281,2.8474457 0 0 0 2.844841,-2.847438 2.8448281,2.8474457 0 0 0 -2.844841,-2.847446 z m -37.997697,9.491469 a 2.8448281,2.8474457 0 0 0 -1.352026,0.381883 2.8448281,2.8474457 0 0 0 -1.044583,3.889287 2.8448281,2.8474457 0 0 0 3.889406,1.041849 2.8448281,2.8474457 0 0 0 1.040886,-3.889285 2.8448281,2.8474457 0 0 0 -2.533683,-1.423734 z m 34.067546,0 a 2.8448281,2.8474457 0 0 0 -2.329951,1.423734 2.8448281,2.8474457 0 0 0 1.040891,3.889285 2.8448281,2.8474457 0 0 0 3.889407,-1.041849 2.8448281,2.8474457 0 0 0 -1.044586,-3.889287 2.8448281,2.8474457 0 0 0 -1.352026,-0.381883 2.8448281,2.8474457 0 0 0 -0.203735,0 z"
       id="path3" />
    <path
       style="fill:#64dedc;stroke-width:0.948708"
       d="M 30.499985,6.7965918 A 2.8448281,2.8474457 0 0 0 27.655166,9.6440377 2.8448281,2.8474457 0 0 0 30.499985,12.491487 2.8448281,2.8474457 0 0 0 33.344826,9.6440377 2.8448281,2.8474457 0 0 0 30.499985,6.7965918 Z M 19.05402,10.593192 a 2.8448281,2.8474457 0 0 0 -1.355744,0.378162 2.8448281,2.8474457 0 0 0 -1.040888,3.893008 2.8448281,2.8474457 0 0 0 3.885712,1.041826 2.8448281,2.8474457 0 0 0 1.040889,-3.889288 2.8448281,2.8474457 0 0 0 -2.529969,-1.423708 z m 22.891951,0 a 2.8448281,2.8474457 0 0 0 -2.52997,1.423708 2.8448281,2.8474457 0 0 0 1.040892,3.889288 2.8448281,2.8474457 0 0 0 3.885711,-1.041826 2.8448281,2.8474457 0 0 0 -1.040889,-3.893008 2.8448281,2.8474457 0 0 0 -1.355744,-0.378162 z m -30.341109,7.593173 a 2.8448281,2.8474457 0 0 0 -0.203736,0.0039 2.8448281,2.8474457 0 0 0 -2.3299385,1.420017 2.8448281,2.8474457 0 0 0 1.0445935,3.889285 2.8448281,2.8474457 0 0 0 3.885692,-1.041847 2.8448281,2.8474457 0 0 0 -1.040871,-3.889285 2.8448281,2.8474457 0 0 0 -1.35574,-0.381883 z m 37.790269,0 a 2.8448281,2.8474457 0 0 0 -1.355743,0.381882 2.8448281,2.8474457 0 0 0 -1.040871,3.889288 2.8448281,2.8474457 0 0 0 3.885691,1.041845 2.8448281,2.8474457 0 0 0 1.044587,-3.889285 2.8448281,2.8474457 0 0 0 -2.329932,-1.420011 2.8448281,2.8474457 0 0 0 -0.203732,-0.0039 z M 9.6379298,29.576145 a 2.8448281,2.8474457 0 0 0 -2.8448282,2.847458 2.8448281,2.8474457 0 0 0 2.8448282,2.847439 2.8448281,2.8474457 0 0 0 2.8448322,-2.847439 2.8448281,2.8474457 0 0 0 -2.8448322,-2.847458 z m 41.7241222,0 a 2.8448281,2.8474457 0 0 0 -2.84482,2.847458 2.8448281,2.8474457 0 0 0 2.84482,2.847439 2.8448281,2.8474457 0 0 0 2.844841,-2.847439 2.8448281,2.8474457 0 0 0 -2.844841,-2.847458 z m -37.997697,9.491482 a 2.8448281,2.8474457 0 0 0 -1.352026,0.381882 2.8448281,2.8474457 0 0 0 -1.044583,3.88929 2.8448281,2.8474457 0 0 0 3.889406,1.041847 2.8448281,2.8474457 0 0 0 1.040886,-3.889288 2.8448281,2.8474457 0 0 0 -2.533683,-1.423731 z m 34.067546,0 a 2.8448281,2.8474457 0 0 0 -2.329951,1.423731 2.8448281,2.8474457 0 0 0 1.040891,3.889288 2.8448281,2.8474457 0 0 0 3.889407,-1.041847 2.8448281,2.8474457 0 0 0 -1.044586,-3.88929 2.8448281,2.8474457 0 0 0 -1.352026,-0.381882 2.8448281,2.8474457 0 0 0 -0.203735,0 z"
       id="path4" />
    <path
       style="fill:#f0f2f7;stroke-width:0.948708"
       d="m 46.987352,34.947132 -15.39173,-1.180086 1.472592,-5.50084 z"
       id="path5" />
    <ellipse
       style="opacity:0.2;stroke-width:0.948709"
       cx="22.499037"
       cy="-37.602081"
       transform="matrix(-0.25859703,0.96598529,-0.96586627,-0.25904122,0,0)"
       id="circle5"
       rx="4.7454534"
       ry="4.7416749" />
    <ellipse
       style="fill:#24303e;stroke-width:0.948709"
       cx="21.582201"
       cy="-37.356457"
       transform="matrix(-0.25859703,0.96598529,-0.96586627,-0.25904122,0,0)"
       id="circle6"
       rx="4.7454534"
       ry="4.7416749" />
    <path
       style="opacity:0.1;fill:#ffffff;stroke-width:0.948708"
       d="M 30.499985,3 C 15.264999,3 3,15.276284 3,30.52529 3,30.63053 3.010885,30.733053 3.016663,30.836733 3.3542952,15.88582 15.478816,3.9491487 30.499985,3.9491487 c 15.02119,0 27.145704,11.9366713 27.483341,26.8875843 0.0061,-0.10368 0.01666,-0.206203 0.01666,-0.311443 C 57.999989,15.276284 45.734993,3 30.499985,3 Z"
       id="path6" />
  </g>
</svg>
