<?xml version="1.0" encoding="UTF-8" standalone="no"?>
<svg
   width="62"
   height="62"
   version="1.1"
   id="svg4"
   sodipodi:docname="desktop-environment-kde.svg"
   inkscape:version="1.4 (e7c3feb100, 2024-10-09)"
   xmlns:inkscape="http://www.inkscape.org/namespaces/inkscape"
   xmlns:sodipodi="http://sodipodi.sourceforge.net/DTD/sodipodi-0.dtd"
   xmlns:xlink="http://www.w3.org/1999/xlink"
   xmlns="http://www.w3.org/2000/svg"
   xmlns:svg="http://www.w3.org/2000/svg">
  <defs
     id="defs4">
    <linearGradient
       id="linearGradient4"
       inkscape:collect="always">
      <stop
         style="stop-color:#2c9bff;stop-opacity:1;"
         offset="0"
         id="stop4" />
      <stop
         style="stop-color:#006bcc;stop-opacity:1;"
         offset="1"
         id="stop5" />
    </linearGradient>
    <linearGradient
       inkscape:collect="always"
       xlink:href="#linearGradient4"
       id="linearGradient5"
       x1="32.944298"
       y1="4"
       x2="33.432362"
       y2="60"
       gradientUnits="userSpaceOnUse" />
  </defs>
  <sodipodi:namedview
     id="namedview4"
     pagecolor="#ffffff"
     bordercolor="#000000"
     borderopacity="0.25"
     inkscape:showpageshadow="2"
     inkscape:pageopacity="0.0"
     inkscape:pagecheckerboard="0"
     inkscape:deskcolor="#d1d1d1"
     showgrid="false"
     inkscape:zoom="11.78125"
     inkscape:cx="31.95756"
     inkscape:cy="32"
     inkscape:window-width="1920"
     inkscape:window-height="994"
     inkscape:window-x="0"
     inkscape:window-y="0"
     inkscape:window-maximized="1"
     inkscape:current-layer="svg4">
    <inkscape:grid
       id="grid4"
       units="px"
       originx="0"
       originy="0"
       spacingx="1"
       spacingy="1"
       empcolor="#0099e5"
       empopacity="0.30196078"
       color="#0099e5"
       opacity="0.14901961"
       empspacing="5"
       enabled="true"
       visible="false" />
  </sodipodi:namedview>
  <g
     id="g4"
     transform="translate(-1,-1)">
    <rect
       style="fill:url(#linearGradient5)"
       width="56"
       height="56"
       x="4"
       y="4"
       rx="8"
       ry="8"
       id="rect2" />
    <path
       style="opacity:0.2"
       d="m 36,12.00001 -8,1.210938 v 28.9375 L 36,40.00001 V 28.820322 l 8,13.179688 8,-3 -10,-12 L 52.003906,14.003916 44.242188,12.00001 36,25.117198 Z m -16.289062,7.847656 c -0.189184,0 -0.378371,0.07368 -0.523438,0.21875 l -3.144531,3.144532 c -0.290135,0.290134 -0.220288,0.704614 0,1.05078 l 3.253906,5.109376 c -0.241085,0.500442 -0.449846,1.01582 -0.625,1.542968 -0.0077,0.02268 -0.01978,0.04368 -0.02734,0.0664 l -5.902344,1.3125 C 12.341647,32.381998 12,32.624856 12,33.035166 v 1.964844 1.964844 c 0,0.41031 0.341647,0.65318 0.742188,0.742188 l 5.902343,1.3125 c 0.01292,0.0388 0.03357,0.07462 0.04687,0.11328 0.17049,0.512084 0.372704,1.013054 0.605469,1.5 l -3.253906,5.10547 c -0.220288,0.346166 -0.290135,0.760646 0,1.05078 l 3.144532,3.144532 c 0.290135,0.290134 0.756735,0.290134 1.046876,0 l 5.101562,-3.25 c 0.501518,0.243898 1.01821,0.455272 1.546874,0.632812 0.0347,0.0122 0.06678,0.03108 0.10156,0.04296 l 1.308592,5.898436 C 28.29296,53.668124 28.62484,54 29.035148,54 h 4.441406 c 0.41031,0 0.65318,-0.341648 0.742188,-0.742188 l 1.308594,-6.078124 c 0.601208,-0.226026 1.184836,-0.496298 1.746094,-0.808594 l 4.980468,3.5625 c 0.290136,0.290134 0.756742,0.290134 1.046876,0 l 3.14453,-3.144532 c 0.290136,-0.290134 0.220288,-0.704614 0,-1.05078 l -1.89453,-2.875 -0.19922,0.07422 c -0.450502,0.16922 -0.95765,-0.0064 -1.20703,-0.417968 l -1.99218,-3.281242 C 39.492472,43.208682 35.572478,46.00001 31,46.00001 c -6.075132,0 -11,-4.924868 -11,-11 0,-4.66184 2.905598,-8.6367 7,-10.238282 v -2.191406 l -0.0156,0.07032 c -0.04416,0.015 -0.0849,0.03914 -0.1289,0.05468 -0.52165,0.17324 -1.03179,0.379376 -1.527344,0.617188 l -5.09378,-3.246094 c -0.145072,-0.145067 -0.334254,-0.21875 -0.523438,-0.21875 z"
       id="path2" />
    <path
       style="fill:#ffffff"
       d="m 36,11.00001 -8,1.210938 v 28.9375 L 36,39.00001 V 27.820322 l 8,13.179688 8,-3 -10,-12 L 52.003906,13.003916 44.242188,11.00001 36,24.117198 Z m -16.289062,7.847656 c -0.189184,0 -0.378371,0.07368 -0.523438,0.21875 l -3.144531,3.144532 c -0.290135,0.290134 -0.220288,0.704614 0,1.05078 l 3.253906,5.109376 c -0.241085,0.500442 -0.449846,1.01582 -0.625,1.542968 -0.0077,0.02268 -0.01978,0.04368 -0.02734,0.0664 l -5.902344,1.3125 C 12.341647,31.381998 12,31.624856 12,32.035166 v 1.964844 1.964844 c 0,0.41031 0.341647,0.65318 0.742188,0.742188 l 5.902343,1.3125 c 0.01292,0.0388 0.03357,0.07462 0.04687,0.11328 0.17049,0.512084 0.372704,1.013054 0.605469,1.5 l -3.253906,5.10547 c -0.220288,0.346166 -0.290135,0.760646 0,1.05078 l 3.144532,3.144532 c 0.290135,0.290134 0.756735,0.290134 1.046876,0 l 5.101562,-3.25 c 0.501518,0.243898 1.01821,0.455272 1.546874,0.632812 0.0347,0.0122 0.06678,0.03108 0.10156,0.04296 l 1.308592,5.898436 C 28.29296,52.668124 28.62484,53 29.035148,53 h 4.441406 c 0.41031,0 0.65318,-0.341648 0.742188,-0.742188 l 1.308594,-6.078124 c 0.601208,-0.226026 1.184836,-0.496298 1.746094,-0.808594 l 4.980468,3.5625 c 0.290136,0.290134 0.756742,0.290134 1.046876,0 l 3.14453,-3.144532 c 0.290136,-0.290134 0.220288,-0.704614 0,-1.05078 l -1.89453,-2.875 -0.19922,0.07422 c -0.450502,0.16922 -0.95765,-0.0064 -1.20703,-0.417968 l -1.99218,-3.281242 C 39.492472,42.208682 35.572478,45.00001 31,45.00001 c -6.075132,0 -11,-4.924868 -11,-11 0,-4.66184 2.905598,-8.6367 7,-10.238282 v -2.191406 l -0.0156,0.07032 c -0.04416,0.015 -0.0849,0.03914 -0.1289,0.05468 -0.52165,0.17324 -1.03179,0.379376 -1.527344,0.617188 l -5.09378,-3.246094 c -0.145072,-0.145067 -0.334254,-0.21875 -0.523438,-0.21875 z"
       id="path3" />
  </g>
</svg>
