<?xml version="1.0" encoding="UTF-8" standalone="no"?>
<svg
   width="62"
   height="62"
   version="1"
   id="svg4"
   sodipodi:docname="distributor-logo-debian.svg"
   inkscape:version="1.4 (e7c3feb100, 2024-10-09)"
   xmlns:inkscape="http://www.inkscape.org/namespaces/inkscape"
   xmlns:sodipodi="http://sodipodi.sourceforge.net/DTD/sodipodi-0.dtd"
   xmlns="http://www.w3.org/2000/svg"
   xmlns:svg="http://www.w3.org/2000/svg">
  <defs
     id="defs4" />
  <sodipodi:namedview
     id="namedview4"
     pagecolor="#ffffff"
     bordercolor="#000000"
     borderopacity="0.25"
     inkscape:showpageshadow="2"
     inkscape:pageopacity="0.0"
     inkscape:pagecheckerboard="0"
     inkscape:deskcolor="#d1d1d1"
     inkscape:zoom="11.6875"
     inkscape:cx="31.957219"
     inkscape:cy="32"
     inkscape:window-width="1920"
     inkscape:window-height="994"
     inkscape:window-x="0"
     inkscape:window-y="0"
     inkscape:window-maximized="1"
     inkscape:current-layer="svg4" />
  <ellipse
     style="opacity:0.2;stroke-width:0.982303"
     cx="31.5"
     cy="32.49123"
     id="circle1"
     rx="27.5"
     ry="27.50877" />
  <ellipse
     style="fill:#f8397d;stroke-width:0.982303;fill-opacity:1"
     cx="31.5"
     cy="31.50877"
     id="circle2"
     rx="27.5"
     ry="27.50877" />
  <path
     style="opacity:0.2;stroke-width:0.982303"
     d="m 15.862321,26.089537 c 0.207957,-0.64907 0.245203,-1.038453 0.324579,-1.414634 -0.573315,0.747074 -0.264274,0.906531 -0.324579,1.414634 m 1.059144,-4.50554 c 0.1033,0.972928 -0.718319,1.350976 0.181784,0.708681 0.483312,-1.108402 -0.188001,-0.305794 -0.181784,-0.708681 m 15.729013,-8.517892 c 0.447386,-0.166666 1.100488,-0.09172 1.576734,-0.201446 -0.619872,0.05289 -1.236716,0.08448 -1.845448,0.16351 l 0.268694,0.03792 m 14.394285,18.169539 -0.09715,0.249329 c -0.178236,1.290849 -0.564453,2.56814 -1.155095,3.752981 0.652694,-1.249781 1.07348,-2.617068 1.252232,-4.002329 m -18.215806,4.03396 c -0.231686,-0.259894 -0.366023,-0.57216 -0.519823,-0.884442 0.146321,0.546991 0.446068,1.017134 0.724076,1.495982 l -0.204286,-0.610102 m -1.029286,0.0403 -0.09327,0.47256 c 0.435872,0.602991 0.781722,1.256169 1.337284,1.72588 -0.399952,-0.794511 -0.696577,-1.122849 -1.243784,-2.198739 m 5.425358,-21.721116 -0.24874,0.05289 0.231905,-0.02167 0.0169,-0.03114 m -0.705178,-0.19945 c 0.353847,0.06417 0.764444,0.113839 0.705455,0.200089 0.388416,-0.08715 0.475769,-0.16577 -0.705455,-0.200089 m 7.379824,16.611367 c 0.0807,-1.215493 -0.234575,-0.83065 -0.340551,-0.367674 0.12328,0.06592 0.221259,0.857291 0.340551,0.367674 m -1.312151,3.47984 c 0.395963,-0.555128 0.683281,-1.162148 0.784817,-1.790032 -0.08913,0.447172 -0.326346,0.833354 -0.551594,1.241624 -1.238482,0.794516 -0.117072,-0.47154 -8.88e-4,-0.953492 -1.331096,1.708689 -0.183582,1.024409 -0.232355,1.501881 m -3.555357,0.901888 c -0.662452,0.009 0.124598,0.346883 0.989704,0.482853 0.239884,-0.190593 0.455384,-0.382113 0.64871,-0.569113 -0.537235,0.134593 -1.08527,0.137542 -1.638215,0.08646 M 15.86507,26.08986 c 0.207955,-0.64909 0.245202,-1.038458 0.324568,-1.414738 -0.573316,0.7471 -0.264265,0.90655 -0.324568,1.414738 m 1.058844,-4.50515 c 0.103315,0.972942 -0.718311,1.350972 0.181792,0.708702 0.483305,-1.108502 -0.188,-0.3058 -0.181792,-0.708702 m 15.728032,-8.519857 c 0.447388,-0.166679 1.100496,-0.09173 1.576736,-0.201459 -0.619872,0.05289 -1.236616,0.08447 -1.84545,0.163516 l 0.2687,0.03792 m 14.39526,18.171504 -0.09714,0.249334 c -0.178251,1.290949 -0.564449,2.568339 -1.155101,3.753079 0.652685,-1.249879 1.073487,-2.617062 1.25214,-4.002422 M 28.830314,35.269998 C 28.599746,35.00982 28.464061,34.69724 28.31065,34.38648 c 0.146322,0.547007 0.446058,1.017238 0.724078,1.495989 l -0.204405,-0.612501 m -1.029091,0.04068 -0.09353,0.472927 c 0.435861,0.603012 0.781712,1.256164 1.337291,1.72588 -0.39995,-0.794536 -0.696576,-1.122947 -1.24369,-2.198836 m 5.424768,-21.721117 -0.248749,0.05287 0.231895,-0.02167 0.01684,-0.03112 m 9.880356,16.917888 c 0.03651,1.020577 -0.286216,1.51642 -0.578126,2.39346 l -0.52494,0.271609 c -0.429134,0.867648 0.04257,0.550847 -0.264706,1.240648 -0.670685,0.619692 -2.032444,1.938482 -2.468323,2.059228 -0.318706,-0.0076 0.215581,-0.391157 0.285412,-0.541118 -0.896834,0.640382 -0.719813,0.961431 -2.09157,1.351269 l -0.03979,-0.09334 c -3.38191,1.65593 -8.080089,-1.62508 -8.018409,-6.100856 -0.03577,0.28387 -0.102716,0.212898 -0.177434,0.326961 -0.174586,-2.30268 1.022312,-4.615381 3.040711,-5.561093 1.974499,-1.01635 4.289018,-0.599829 5.702122,0.772603 -0.776244,-1.058599 -2.322764,-2.180858 -4.154067,-2.077109 -1.794867,0.03044 -3.474627,1.216969 -4.034642,2.505657 -0.919167,0.60195 -1.026341,2.32174 -1.426664,2.636712 -0.539567,4.122779 1.013766,5.903187 3.641786,7.998963 0.412481,0.289764 0.116112,0.334133 0.171326,0.554634 -0.872889,-0.424951 -1.671905,-1.067043 -2.329444,-1.853109 0.349147,0.53098 0.725488,1.0472 1.212259,1.45266 -0.823764,-0.289372 -1.923626,-2.07534 -2.243804,-2.148041 1.418901,2.643398 5.756143,4.636011 8.028428,3.647072 -1.051483,0.04056 -2.386804,0.02238 -3.56734,-0.431712 -0.497339,-0.265692 -1.170915,-0.81528 -1.050305,-0.917908 3.100232,1.204297 6.30182,0.911585 8.983663,-1.325134 0.682882,-0.553378 1.428226,-1.494119 1.643808,-1.506796 -0.32438,0.507736 0.0556,0.24416 -0.193658,0.692359 0.678819,-1.140929 -0.295978,-0.464662 0.702371,-1.970219 l 0.368635,0.52803 c -0.138027,-0.947911 1.130643,-2.097541 1.001591,-3.59559 0.291087,-0.457883 0.324384,0.49339 0.01569,1.546877 0.428314,-1.168828 0.113283,-1.35677 0.222889,-2.32174 0.118153,0.324406 0.275254,0.66868 0.355239,1.011242 -0.279321,-1.129922 0.28541,-1.902132 0.425881,-2.5591 -0.138837,-0.0634 -0.430751,0.499302 -0.498146,-0.834698 0.0104,-0.57957 0.155516,-0.303713 0.211102,-0.446483 -0.108819,-0.06544 -0.395844,-0.509857 -0.570019,-1.361881 0.12544,-0.200658 0.337781,0.519148 0.509933,0.548287 -0.110843,-0.677146 -0.301242,-1.193782 -0.309377,-1.713696 -0.503427,-1.094066 -0.178216,0.14617 -0.585846,-0.469735 -0.535899,-1.737863 0.444162,-0.403413 0.51073,-1.192502 0.811172,1.222861 1.273546,3.11969 1.486773,3.90467 -0.162389,-0.957599 -0.424271,-1.885627 -0.744603,-2.783297 0.247243,0.108564 -0.397454,-1.969822 0.32112,-0.593482 -0.769999,-2.933416 -3.282322,-5.674663 -5.594285,-6.960699 0.282859,0.26919 0.640356,0.60696 0.512677,0.66021 -1.151072,-0.71169 -0.948748,-0.76789 -1.113747,-1.068714 -0.936967,-0.396519 -0.997858,0.0326 -1.618572,9.83e-4 -1.76589,-0.975003 -2.105712,-0.871453 -3.730174,-1.481562 l 0.07395,0.359917 c -1.169635,-0.405518 -1.362917,0.152919 -2.62684,8.43e-4 -0.07669,-0.06207 0.405197,-0.226397 0.802234,-0.28597 -1.131131,0.15545 -1.078295,-0.232312 -2.185071,0.04263 0.27243,-0.198968 0.561493,-0.331188 0.852166,-0.500128 -0.921996,0.05831 -2.201962,0.558447 -1.807044,0.103069 -1.50415,0.698661 -4.176069,1.679111 -5.675409,3.141891 l -0.04715,-0.327804 c -0.686931,0.85792 -2.995733,2.562442 -3.179785,3.674775 l -0.183913,0.04434 c -0.356854,0.629817 -0.58868,1.343313 -0.872066,1.99085 -0.467285,0.829192 -0.685317,0.319359 -0.618729,0.449456 -0.919564,1.939761 -1.377062,3.56946 -1.771293,4.906775 0.280951,0.437196 0.0071,2.632588 0.112865,4.389418 -0.461194,8.678228 5.853572,17.103575 12.75607,19.047855 1.011706,0.377228 2.515857,0.363708 3.795588,0.40086 -1.50945,-0.44945 -1.704306,-0.23783 -3.175654,-0.771321 -1.060813,-0.520429 -1.293088,-1.113909 -2.044827,-1.792788 l 0.297595,0.547031 C 27.561553,49.58089 28.178204,49.45205 26.978847,49.057121 l 0.3179,-0.431279 c -0.475351,-0.03732 -1.263028,-0.837061 -1.479101,-1.281131 l -0.52291,0.02154 c -0.627654,-0.805155 -0.962584,-1.386846 -0.937834,-1.8375 l -0.168913,0.313445 C 23.996788,45.500457 21.8776,42.818589 22.976913,43.443038 22.772706,43.24957 22.501105,43.12749 22.206756,42.57034 l 0.223712,-0.265692 c -0.5282,-0.70839 -0.97356,-1.61614 -0.939441,-1.91864 0.282151,0.396202 0.47785,0.470579 0.671925,0.538581 -1.336112,-3.448618 -1.411241,-0.189671 -2.422555,-3.510312 l 0.213539,-0.01769 c -0.163626,-0.25811 -0.263882,-0.536479 -0.395431,-0.810622 l 0.09334,-0.965227 c -0.96112,-1.157335 -0.268512,-4.920143 -0.129246,-6.983296 0.09527,-0.839019 0.802606,-1.733056 1.33886,-3.134036 l -0.327234,-0.05832 c 0.626021,-1.135423 3.573432,-4.56174 4.939196,-4.38588 0.661357,-0.864269 -0.131548,-0.0034 -0.261051,-0.2205 1.45308,-1.564269 1.909774,-1.105069 2.89025,-1.386839 1.056784,-0.652622 -0.907382,0.255128 -0.406392,-0.248813 1.82816,-0.485357 1.295049,-1.104187 3.679499,-1.350487 0.251704,0.148688 -0.583413,0.2298 -0.792906,0.42285 1.522422,-0.77555 4.818789,-0.59857 6.960838,0.43002 2.483254,1.20852 5.275484,4.779258 5.385878,8.138865 l 0.12544,0.03508 c -0.06337,1.33565 0.196507,2.880361 -0.254555,4.298831 l 0.304908,-0.67206 M 32.520815,13.391789 c 0.353826,0.06416 0.764418,0.113829 0.705444,0.200098 0.388417,-0.08718 0.475769,-0.165769 -0.705444,-0.200098 M 39.9025,30.005117 c 0.08073,-1.215492 -0.234555,-0.830664 -0.340529,-0.367672 0.123269,0.06593 0.221258,0.857311 0.340529,0.367672 m -1.313811,3.479859 c 0.395949,-0.555133 0.683273,-1.162243 0.784809,-1.790032 -0.08911,0.447173 -0.326335,0.833379 -0.551592,1.241723 -1.238384,0.794536 -0.117051,-0.47157 -8.85e-4,-0.95352 -1.331102,1.708786 -0.183561,1.024407 -0.232335,1.501879 m -3.554766,0.902938 c -0.662439,0.0092 0.124592,0.346902 0.989704,0.482858 0.239876,-0.190617 0.455368,-0.382137 0.648695,-0.569138 -0.537842,0.134152 -1.085857,0.137319 -1.638316,0.08631"
     id="path2" />
  <path
     style="fill:#ffffff;stroke-width:0.982303"
     d="m 15.862321,25.107084 c 0.207957,-0.649069 0.245203,-1.038457 0.324579,-1.414637 -0.572589,0.746666 -0.263215,0.906806 -0.324106,1.414736 m 1.059143,-4.505545 c 0.103297,0.972928 -0.71832,1.350978 0.181782,0.708687 0.483314,-1.108408 -0.188,-0.305799 -0.181782,-0.708687 m 15.729012,-8.51789 c 0.447385,-0.166669 1.100488,-0.09172 1.576733,-0.201449 -0.619871,0.0529 -1.236714,0.08448 -1.845449,0.16351 l 0.268696,0.03792 m 14.395264,18.169538 -0.09727,0.249544 c -0.178242,1.290846 -0.564459,2.568142 -1.1551,3.752983 0.652693,-1.249783 1.073485,-2.617067 1.25223,-4.00233 m -18.216771,4.033968 c -0.231687,-0.2599 -0.366024,-0.572161 -0.519834,-0.884443 0.146325,0.546991 0.446075,1.017133 0.72408,1.495983 l -0.20428,-0.610102 m -1.02929,0.0403 -0.09327,0.47256 c 0.435878,0.602991 0.781729,1.25617 1.337284,1.725881 -0.399944,-0.794511 -0.696571,-1.12285 -1.243784,-2.198739 m 5.425357,-21.721116 -0.24848,0.05307 0.231785,-0.0216 0.01669,-0.0314 m -0.705176,-0.19944 c 0.353841,0.06417 0.764438,0.113839 0.705449,0.200089 0.388422,-0.08716 0.475775,-0.16577 -0.705449,-0.200089 m 7.379818,16.611366 c 0.08072,-1.215497 -0.234575,-0.830649 -0.34055,-0.367676 0.123279,0.06592 0.221258,0.857293 0.34055,0.367676 m -1.312143,3.479858 c 0.395963,-0.555127 0.683275,-1.162147 0.784811,-1.790037 -0.08913,0.447177 -0.326347,0.83336 -0.551592,1.24163 -1.23848,0.79451 -0.117073,-0.47154 -8.86e-4,-0.953493 -1.331095,1.708689 -0.183581,1.024409 -0.232354,1.501881 m -3.555356,0.901892 c -0.662457,0.009 0.124592,0.346888 0.989705,0.482859 0.239875,-0.190594 0.455382,-0.382114 0.648704,-0.569119 -0.53784,0.134167 -1.085855,0.137309 -1.638409,0.08632 M 15.865161,25.107572 c 0.207962,-0.649089 0.2452,-1.038459 0.324574,-1.414739 -0.573316,0.7471 -0.264265,0.90655 -0.324574,1.414739 m 1.058851,-4.505149 c 0.103309,0.972941 -0.718311,1.35097 0.181792,0.7087 0.483306,-1.108501 -0.188,-0.305799 -0.181792,-0.7087 m 15.728032,-8.519858 c 0.447386,-0.166674 1.100495,-0.09173 1.576734,-0.201453 -0.619871,0.05284 -1.236616,0.08447 -1.845449,0.16351 l 0.268695,0.03792 m 14.395265,18.171504 -0.09714,0.249339 c -0.178251,1.290944 -0.564449,2.568333 -1.1551,3.75308 0.652681,-1.24988 1.073485,-2.617068 1.252131,-4.002428 M 28.83041,34.28771 c -0.230567,-0.260177 -0.366251,-0.572751 -0.519662,-0.883511 0.146321,0.547001 0.446058,1.017232 0.724077,1.495982 L 28.83042,34.28768 m -1.02909,0.04068 -0.09353,0.472927 c 0.435859,0.603011 0.78171,1.256169 1.337285,1.72588 -0.399943,-0.79453 -0.69657,-1.122947 -1.243683,-2.198836 m 5.424767,-21.721116 -0.248748,0.05288 0.231893,-0.02167 0.01684,-0.03112 m 9.88036,16.917837 c 0.03651,1.020575 -0.286216,1.516422 -0.57813,2.393456 l -0.524934,0.27161 c -0.429137,0.867648 0.04257,0.550847 -0.264707,1.240648 -0.670685,0.619691 -2.032449,1.938481 -2.468321,2.059229 -0.318707,-0.0076 0.215579,-0.391158 0.285408,-0.541119 -0.896832,0.640386 -0.71981,0.961431 -2.09157,1.35127 l -0.03979,-0.09334 c -3.381911,1.65593 -8.080084,-1.625079 -8.018405,-6.100855 -0.03578,0.28387 -0.102714,0.212899 -0.177439,0.32696 -0.174585,-2.30268 1.022313,-4.61538 3.040717,-5.561092 1.974499,-1.01635 4.289017,-0.599828 5.702123,0.772603 -0.776246,-1.058594 -2.322769,-2.180854 -4.154068,-2.07711 -1.794868,0.03045 -3.474629,1.21697 -4.034643,2.505658 -0.919168,0.60195 -1.02634,2.32174 -1.426662,2.636716 -0.539569,4.122775 1.013766,5.903183 3.641786,7.99896 0.412479,0.289763 0.116106,0.334132 0.171325,0.554633 -0.872889,-0.42495 -1.671904,-1.067043 -2.329445,-1.853109 0.34915,0.530979 0.725489,1.0472 1.212255,1.45266 -0.823759,-0.289371 -1.923622,-2.07534 -2.243805,-2.148041 1.418907,2.643397 5.756143,4.636016 8.028429,3.647076 -1.051478,0.04056 -2.3868,0.02238 -3.567335,-0.431715 -0.497339,-0.265693 -1.170914,-0.81528 -1.050304,-0.917905 3.100231,1.204292 6.30182,0.911581 8.983656,-1.325137 0.682887,-0.553379 1.428233,-1.49412 1.643814,-1.506791 -0.324379,0.507731 0.0556,0.24416 -0.193659,0.692352 0.678822,-1.140922 -0.295976,-0.464661 0.702367,-1.970218 l 0.36864,0.528035 c -0.138026,-0.947915 1.130641,-2.097545 1.001591,-3.595595 0.291087,-0.457882 0.324379,0.49339 0.01569,1.546877 0.428313,-1.168827 0.113277,-1.356771 0.222889,-2.321739 0.118152,0.324408 0.275252,0.66868 0.355238,1.011242 -0.27932,-1.129922 0.285409,-1.902132 0.425877,-2.559101 -0.138837,-0.0634 -0.430745,0.499301 -0.498143,-0.834694 0.0104,-0.579574 0.155512,-0.303717 0.211102,-0.446487 -0.108824,-0.06544 -0.395844,-0.509857 -0.570018,-1.361881 0.125441,-0.200656 0.337782,0.51915 0.509929,0.54829 -0.110844,-0.677149 -0.301239,-1.193786 -0.309373,-1.713698 -0.503428,-1.094064 -0.178221,0.146169 -0.585846,-0.469732 -0.535897,-1.737867 0.444161,-0.403416 0.510731,-1.192506 0.81117,1.22286 1.273542,3.11969 1.486767,3.90467 -0.162385,-0.9576 -0.424268,-1.885624 -0.7446,-2.783294 0.247244,0.108562 -0.397457,-1.969826 0.321122,-0.593486 -0.770002,-2.933413 -3.282321,-5.674661 -5.594286,-6.960699 0.28286,0.269196 0.640358,0.60696 0.512677,0.66021 -1.15107,-0.71169 -0.948747,-0.767884 -1.113746,-1.068712 -0.936966,-0.396519 -0.997859,0.0326 -1.618572,9.82e-4 -1.765894,-0.97499 -2.105716,-0.87144 -3.730179,-1.481543 l 0.07395,0.359913 c -1.169636,-0.40552 -1.362922,0.152919 -2.626839,8.42e-4 -0.07669,-0.06207 0.40519,-0.226394 0.802233,-0.285971 -1.131131,0.155451 -1.078295,-0.23231 -2.185073,0.04263 0.272431,-0.198969 0.561491,-0.331189 0.852169,-0.50013 -0.921996,0.05832 -2.201968,0.558449 -1.807045,0.10307 -1.50415,0.698661 -4.17607,1.679111 -5.675409,3.14189 l -0.04715,-0.327802 c -0.68693,0.85792 -2.995733,2.562441 -3.179786,3.674778 l -0.183913,0.04434 c -0.356854,0.629817 -0.58868,1.343316 -0.872069,1.990849 -0.467281,0.829197 -0.685318,0.31936 -0.618726,0.449458 -0.919564,1.939761 -1.377068,3.569459 -1.771294,4.906778 0.280951,0.437192 0.0071,2.632589 0.112867,4.389413 -0.461194,8.678235 5.853571,17.103576 12.756069,19.047856 1.011705,0.377227 2.515855,0.363708 3.795588,0.400867 -1.509453,-0.449458 -1.704311,-0.237836 -3.175655,-0.771328 -1.060813,-0.520428 -1.293094,-1.113909 -2.044825,-1.792788 l 0.297599,0.547032 c -1.473691,-0.542826 -0.857041,-0.671664 -2.056396,-1.066594 l 0.317899,-0.431279 c -0.475351,-0.03733 -1.263029,-0.837062 -1.4791,-1.281132 l -0.522914,0.02154 c -0.627663,-0.805139 -0.962595,-1.38683 -0.937844,-1.837481 l -0.168913,0.313442 c -0.1912,-0.341734 -2.310392,-3.023604 -1.211075,-2.399154 -0.204212,-0.193463 -0.475809,-0.315543 -0.770162,-0.872693 l 0.223717,-0.265698 c -0.5282,-0.70839 -0.97356,-1.61614 -0.93944,-1.918639 0.28215,0.396208 0.477848,0.470579 0.671923,0.538582 -1.336109,-3.448614 -1.411246,-0.189672 -2.422554,-3.510313 l 0.213539,-0.0177 c -0.163625,-0.258104 -0.263882,-0.536474 -0.39543,-0.810616 l 0.09334,-0.965221 c -0.961123,-1.157337 -0.268516,-4.920145 -0.12925,-6.983298 0.09527,-0.839019 0.802606,-1.733057 1.338855,-3.134037 l -0.327227,-0.05832 c 0.626018,-1.135421 3.57343,-4.561739 4.939195,-4.385879 0.661356,-0.864264 -0.131548,-0.0034 -0.261058,-0.220501 1.453085,-1.564269 1.909781,-1.105069 2.890255,-1.386839 1.056785,-0.65262 -0.907386,0.25513 -0.40639,-0.248811 1.828159,-0.485358 1.295049,-1.104183 3.679498,-1.350489 0.2517,0.14869 -0.583412,0.2298 -0.792906,0.42285 1.522421,-0.77555 4.818788,-0.59857 6.960839,0.43002 2.483248,1.20852 5.275483,4.779259 5.385877,8.138866 l 0.125434,0.03508 c -0.06336,1.335649 0.196508,2.880366 -0.254549,4.298835 l 0.3049,-0.672058 M 32.520914,12.40947 c 0.353827,0.06419 0.764418,0.113829 0.705439,0.200099 0.388422,-0.08721 0.475774,-0.16577 -0.705439,-0.200099 M 39.9026,29.022797 c 0.08073,-1.215491 -0.234556,-0.830662 -0.340531,-0.367671 0.12327,0.06593 0.221259,0.857311 0.340531,0.367671 m -1.313812,3.47986 c 0.395947,-0.555133 0.683273,-1.162243 0.784809,-1.790031 -0.08911,0.447171 -0.326335,0.833378 -0.551591,1.241727 -1.238384,0.794531 -0.117054,-0.47157 -8.85e-4,-0.953526 -1.331102,1.708787 -0.183568,1.024408 -0.232336,1.50188 m -3.554772,0.902938 c -0.662432,0.0092 0.124598,0.346902 0.98971,0.482858 0.239877,-0.190618 0.455368,-0.382138 0.648694,-0.569138 -0.53784,0.134152 -1.08586,0.137319 -1.638314,0.08631"
     id="path3" />
  <path
     style="opacity:0.2;fill:#ffffff;stroke-width:0.982303"
     d="M 31.498034,4 A 27.499995,27.508766 0 0 0 4,31.508766 27.499995,27.508766 0 0 0 4.0172854,31.992134 27.499995,27.508766 0 0 1 31.497636,4.9824559 h 0.002 A 27.499995,27.508766 0 0 1 58.973082,31.999994 27.499995,27.508766 0 0 0 58.997641,31.508766 27.499995,27.508766 0 0 0 31.499604,4 h -0.002 z"
     id="path4" />
</svg>
