<?xml version="1.0" encoding="UTF-8" standalone="no"?>
<svg
   width="62"
   height="62"
   version="1"
   id="svg5"
   sodipodi:docname="preferences-desktop-user-password.svg"
   inkscape:version="1.4 (e7c3feb100, 2024-10-09)"
   xmlns:inkscape="http://www.inkscape.org/namespaces/inkscape"
   xmlns:sodipodi="http://sodipodi.sourceforge.net/DTD/sodipodi-0.dtd"
   xmlns="http://www.w3.org/2000/svg"
   xmlns:svg="http://www.w3.org/2000/svg">
  <defs
     id="defs5" />
  <sodipodi:namedview
     id="namedview5"
     pagecolor="#ffffff"
     bordercolor="#000000"
     borderopacity="0.25"
     inkscape:showpageshadow="2"
     inkscape:pageopacity="0.0"
     inkscape:pagecheckerboard="0"
     inkscape:deskcolor="#d1d1d1"
     inkscape:zoom="8.5681818"
     inkscape:cx="31.803713"
     inkscape:cy="37.814324"
     inkscape:window-width="1920"
     inkscape:window-height="994"
     inkscape:window-x="0"
     inkscape:window-y="0"
     inkscape:window-maximized="1"
     inkscape:current-layer="svg5" />
  <g
     id="g5"
     transform="translate(6.1499996,2)">
    <path
       fill="#d2d2d2"
       d="M 24.85,1 C 15.771325,1 8.4624999,8.3100488 8.4624999,17.390244 v 5.463415 H 13.925 v -5.463415 c 0,-6.053464 4.87255,-10.9268294 10.925,-10.9268294 6.05245,0 10.925,4.8733654 10.925,10.9268294 v 5.463415 h 5.462499 V 17.390244 C 41.237499,8.3100488 33.928675,1 24.85,1 Z"
       id="path1"
       style="stroke-width:2.73148" />
    <rect
       fill="#ffb437"
       width="32.780487"
       height="43.700001"
       x="-55.634148"
       y="-46.700001"
       rx="2.7317073"
       ry="2.73125"
       transform="matrix(0,-1,-1,0,0,0)"
       id="rect1"
       style="stroke-width:2.73148" />
    <path
       fill="#ffffff"
       opacity="0.2"
       d="M 24.85,1 C 15.771325,1 8.4624999,8.3100488 8.4624999,17.390244 v 1.365854 c 0,-9.0801956 7.3088251,-16.3902443 16.3875001,-16.3902443 9.078675,0 16.387499,7.3100487 16.387499,16.3902443 V 17.390244 C 41.237499,8.3100488 33.928675,1 24.85,1 Z"
       id="path2"
       style="stroke-width:2.73148" />
    <path
       fill="#ffffff"
       opacity="0.2"
       d="M 5.73125,22.853659 C 4.2181375,22.853659 3,24.072 3,25.585366 v 1.365854 c 0,-1.513366 1.2181375,-2.731708 2.73125,-2.731708 h 38.2375 c 1.513113,0 2.73125,1.218342 2.73125,2.731708 v -1.365854 c 0,-1.513366 -1.218137,-2.731707 -2.73125,-2.731707 z"
       id="path3"
       style="stroke-width:2.73148" />
    <path
       opacity="0.2"
       d="m 24.85,6.4634146 c -6.05245,0 -10.925,4.8733654 -10.925,10.9268294 v 1.365854 c 0,-6.053464 4.87255,-10.9268297 10.925,-10.9268297 6.05245,0 10.925,4.8733657 10.925,10.9268297 V 17.390244 C 35.775,11.33678 30.90245,6.4634146 24.85,6.4634146 Z"
       id="path4"
       style="stroke-width:2.73148" />
    <rect
       fill="#fed96a"
       width="43.700001"
       height="19.121952"
       x="3"
       y="28.317074"
       rx="0"
       ry="0"
       id="rect4"
       style="stroke-width:2.73148" />
    <path
       opacity="0.2"
       d="m 3,52.902439 v 1.365854 C 3,55.781659 4.2181375,57 5.73125,57 h 38.2375 C 45.481863,57 46.7,55.781659 46.7,54.268293 v -1.365854 c 0,1.513366 -1.218137,2.731707 -2.73125,2.731707 H 5.73125 C 4.2181375,55.634146 3,54.415805 3,52.902439 Z"
       id="path5"
       style="stroke-width:2.73148" />
  </g>
</svg>
