<?xml version="1.0" encoding="UTF-8" standalone="no"?>
<svg
   width="62"
   height="62"
   version="1"
   id="svg7"
   sodipodi:docname="stremio.svg"
   inkscape:version="1.4 (e7c3feb100, 2024-10-09)"
   xmlns:inkscape="http://www.inkscape.org/namespaces/inkscape"
   xmlns:sodipodi="http://sodipodi.sourceforge.net/DTD/sodipodi-0.dtd"
   xmlns="http://www.w3.org/2000/svg"
   xmlns:svg="http://www.w3.org/2000/svg">
  <defs
     id="defs7" />
  <sodipodi:namedview
     id="namedview7"
     pagecolor="#ffffff"
     bordercolor="#000000"
     borderopacity="0.25"
     inkscape:showpageshadow="2"
     inkscape:pageopacity="0.0"
     inkscape:pagecheckerboard="0"
     inkscape:deskcolor="#d1d1d1"
     inkscape:zoom="11.6875"
     inkscape:cx="31.957219"
     inkscape:cy="32"
     inkscape:window-width="1920"
     inkscape:window-height="994"
     inkscape:window-x="0"
     inkscape:window-y="0"
     inkscape:window-maximized="1"
     inkscape:current-layer="svg7" />
  <g
     id="g7"
     transform="translate(1.5e-6,-0.4999848)">
    <path
       style="opacity:0.2;stroke-width:0.965808"
       d="m 30.999996,3.9659782 c -1.466729,0 -2.935369,0.5464484 -4.031782,1.6435035 L 4.6425106,27.952456 C 3.5454448,29.05016 2.9985632,30.515556 3,31.98291 c 0.00149,1.465627 0.5504654,2.93216 1.6462818,4.028567 L 26.971978,58.352562 c 2.192846,2.194117 5.86697,2.197707 8.059807,0.0039 L 57.353716,36.013395 c 1.096414,-1.097055 1.646281,-2.56317 1.646281,-4.030452 0,-1.467281 -0.549867,-2.933394 -1.646281,-4.030454 L 35.031785,5.6094817 C 33.935371,4.5124268 32.466734,3.9659782 30.999996,3.9659782 Z"
       id="path1" />
    <path
       style="fill:#9658c0;stroke-width:0.965808;fill-opacity:1"
       d="m 30.999997,2.9999848 c -1.466729,0 -2.934831,0.5471672 -4.031244,1.6442233 L 4.6432327,26.985836 c -1.097067,1.097697 -1.6446663,2.563719 -1.6432295,4.031077 H 58.999997 c 0,-1.467275 -0.549416,-2.934021 -1.645835,-4.031077 L 35.031248,4.6442081 C 33.934835,3.5471522 32.466735,2.9999848 30.999997,2.9999848 Z m 28,28.0169282 c 0,0.733641 -0.137044,1.467725 -0.411463,2.154949 0.274108,-0.68736 0.411463,-1.421308 0.411463,-2.154949 z m -0.411463,2.154949 c -0.2744,0.687233 -0.686157,1.327608 -1.234372,1.876133 0.548215,-0.548525 0.960272,-1.188772 1.234372,-1.876133 z"
       id="path2" />
    <path
       style="fill:#42518a;stroke-width:0.965808;fill-opacity:1"
       d="m 3.0000032,31.016913 c 0.00149,1.465634 0.5500165,2.932072 1.645833,4.028474 L 26.971356,57.387015 c 2.192839,2.194117 5.867056,2.19663 8.059892,0.0028 l 22.322914,-22.34181 c 1.096419,-1.097047 1.645835,-2.5638 1.645835,-4.031082 z"
       id="path3" />
    <path
       style="opacity:0.2;stroke-width:0.965808"
       d="m 3,31.01693 c 3.164e-4,0.323271 0.031304,0.646733 0.08486,0.966106 h 55.830277 c 0.05351,-0.319622 0.08484,-0.64247 0.08484,-0.966106 z"
       id="path4" />
    <path
       style="opacity:0.2;stroke-width:1.19454"
       d="M 40.655173,31.983035 26.172416,42.610143 V 21.35592 Z"
       id="path5" />
    <path
       style="fill:#ffffff;stroke-width:1.19454"
       d="M 40.655173,31.01693 26.172416,41.644044 V 20.389821 Z"
       id="path6" />
    <path
       style="opacity:0.1;fill:#ffffff;stroke-width:0.965808"
       d="M 30.999996,3 C 29.533267,3 28.064627,3.5464483 26.968214,4.6435033 L 4.6425106,26.986476 C 3.5454448,28.08418 2.9985632,29.549572 3,31.01693 H 3.082967 C 3.2706465,29.887599 3.787419,28.808161 4.6425086,27.952583 L 26.968214,5.6114919 c 1.096413,-1.0970559 2.565053,-1.6453915 4.031782,-1.6453915 1.466738,0 2.935375,0.5483357 4.031789,1.6453915 L 57.353716,27.952583 c 0.854587,0.855077 1.372606,1.934887 1.561421,3.064347 h 0.08484 c 0,-1.467275 -0.549867,-2.933398 -1.646281,-4.030454 L 35.031785,4.6435033 C 33.935371,3.5464485 32.466734,3 30.999996,3 Z"
       id="path7" />
  </g>
</svg>
