<?xml version="1.0" encoding="UTF-8" standalone="no"?>
<svg
   width="62"
   height="62"
   version="1"
   id="svg5"
   sodipodi:docname="distributor-logo-opensuse.svg"
   inkscape:version="1.4 (e7c3feb100, 2024-10-09)"
   xmlns:inkscape="http://www.inkscape.org/namespaces/inkscape"
   xmlns:sodipodi="http://sodipodi.sourceforge.net/DTD/sodipodi-0.dtd"
   xmlns="http://www.w3.org/2000/svg"
   xmlns:svg="http://www.w3.org/2000/svg">
  <defs
     id="defs5" />
  <sodipodi:namedview
     id="namedview5"
     pagecolor="#ffffff"
     bordercolor="#000000"
     borderopacity="0.25"
     inkscape:showpageshadow="2"
     inkscape:pageopacity="0.0"
     inkscape:pagecheckerboard="0"
     inkscape:deskcolor="#d1d1d1"
     inkscape:zoom="11.6875"
     inkscape:cx="31.957219"
     inkscape:cy="32.085561"
     inkscape:window-width="1920"
     inkscape:window-height="994"
     inkscape:window-x="0"
     inkscape:window-y="0"
     inkscape:window-maximized="1"
     inkscape:current-layer="svg5" />
  <g
     id="g5"
     transform="translate(-0.5,-1)">
    <path
       style="fill:#008080;stroke-width:0.982303"
       d="M 31.49986,4.000275 C 16.31306,4.000275 4,16.315888 4,31.508912 4,46.701934 16.31306,59.01754 31.49986,59.01754 c 15.185429,0 27.49987,-12.315606 27.49987,-27.508628 0,-15.193024 -12.314441,-27.508637 -27.49987,-27.508637 z"
       id="path1" />
    <path
       style="opacity:0.2;stroke-width:0.982303"
       d="m 31.671443,11.273222 c -8.436685,0 -13.258234,3.455364 -16.403944,7.348934 2.410862,0.661474 4.095553,1.212248 4.638406,1.39196 0.0066,-0.364646 0.0648,-3.649572 0.0648,-3.649572 l 0.04737,-0.10476 0.122201,-0.03738 c 0.741811,0.10729 16.559595,2.447168 23.221706,6.331118 0.824807,0.485332 1.229904,0.991826 1.740635,1.514184 1.841141,1.90431 4.286951,9.83131 4.546006,11.470002 l -0.104747,0.169646 c -0.09501,0.03518 -0.32761,0.19707 -0.630931,0.404126 -1.55424,1.087284 -5.188679,3.631962 -9.847707,3.217964 -4.190154,-0.373708 -9.656853,-2.777826 -16.251866,-7.121984 0.29034,0.684956 1.661158,3.94088 1.890253,4.487756 l 0.09475,0.11225 c 0.955042,0.493508 10.117473,5.166404 14.663203,5.071494 3.668487,-0.07292 7.584738,-1.86371 9.151956,-2.803956 l 0.498741,-0.09478 c 0.139286,0.10937 0.117713,0.322242 0.07486,0.518874 -0.09635,0.449246 -0.311624,1.273542 -0.461336,1.656376 l -0.122181,0.319294 c -0.178334,0.473996 -0.352518,0.931418 -0.685792,1.204874 -0.924271,0.84116 -2.403845,1.5064 -4.713203,2.51949 -3.571683,1.561252 -9.359297,2.543315 -14.737996,2.512002 -1.923346,-0.04681 -3.788112,-0.258588 -5.424352,-0.445648 -3.414384,-0.387868 -6.188294,-0.701466 -7.845438,0.585938 4.030104,4.555426 9.917827,7.432832 16.477921,7.432832 12.149994,0 22.009789,-9.85222 22.009789,-22.006908 0,-12.153038 -9.859246,-22.006908 -22.009789,-22.006908 h -0.0026 z m 5.815396,11.64716 c -1.683981,0.02526 -3.26863,0.655034 -4.506129,1.816038 -1.325166,1.2279 -2.088286,2.907384 -2.152106,4.714706 -0.121021,3.72549 2.81048,6.870274 6.536164,7.009744 1.814711,0.05861 3.531535,-0.587634 4.852896,-1.825992 1.31744,-1.231862 2.078223,-2.899966 2.144632,-4.704806 0.127549,-3.730722 -2.803882,-6.875506 -6.536163,-7.009746 -0.113024,-0.0038 -0.226904,-0.0017 -0.339154,0 z m -0.179533,1.995638 c 0.15529,-0.0096 0.303815,-0.006 0.461339,0 2.60225,0.09122 4.648293,2.273504 4.561121,4.881956 -0.03907,1.255354 -0.573431,2.431926 -1.493767,3.295262 -0.922864,0.85684 -2.122489,1.298814 -3.386604,1.259754 -2.600965,-0.09644 -4.639507,-2.28745 -4.553704,-4.891854 0.04037,-1.260472 0.581099,-2.425876 1.496237,-3.285364 0.803,-0.753158 1.828253,-1.193622 2.915266,-1.259754 z m 1.240238,2.362168 c -1.159834,0 -2.097243,0.628438 -2.097243,1.401946 0,0.768288 0.937353,1.401954 2.097243,1.401954 1.15604,0 2.087271,-0.632342 2.087271,-1.401954 0,-0.77348 -0.931287,-1.401946 -2.087271,-1.401946 z"
       id="path2" />
    <path
       style="fill:#ffffff;stroke-width:0.982303"
       d="m 31.671033,10.289938 c -8.436685,0 -13.258233,3.455362 -16.403944,7.348932 2.410852,0.661476 4.095553,1.212248 4.638397,1.391962 0.0066,-0.364656 0.06481,-3.649572 0.06481,-3.649572 l 0.04742,-0.10477 0.122201,-0.0374 c 0.741801,0.10729 16.559585,2.447168 23.221706,6.33112 0.824807,0.485332 1.229904,0.991824 1.740635,1.514184 1.841141,1.904308 4.286951,9.83131 4.545996,11.470002 l -0.104756,0.16965 c -0.09501,0.03518 -0.3276,0.197072 -0.630931,0.404126 -1.55423,1.087276 -5.188669,3.631962 -9.8477,3.217964 -4.190151,-0.373708 -9.65685,-2.777826 -16.251863,-7.121993 0.29034,0.684965 1.661149,3.940889 1.890254,4.487767 l 0.09475,0.11225 c 0.955042,0.493506 10.117472,5.166392 14.663198,5.071494 3.668482,-0.07292 7.584743,-1.863712 9.151955,-2.803956 l 0.498737,-0.09478 c 0.139296,0.10937 0.117723,0.32224 0.07486,0.518874 -0.09635,0.449238 -0.311635,1.273538 -0.461337,1.656374 l -0.122183,0.319292 c -0.178334,0.473994 -0.352518,0.931409 -0.685792,1.204874 -0.924271,0.841158 -2.403845,1.5064 -4.713203,2.519488 -3.571683,1.561252 -9.359302,2.543308 -14.738006,2.512004 -1.923336,-0.0468 -3.788101,-0.25858 -5.424342,-0.445638 -3.414384,-0.387858 -6.188294,-0.701456 -7.845438,0.585946 4.030104,4.556258 9.917827,7.433654 16.478741,7.433654 12.149993,0 22.009799,-9.85221 22.009799,-22.006908 0,-12.15304 -9.859256,-22.006904 -22.009799,-22.006904 h -0.0026 z m 5.815396,11.647152 c -1.683981,0.02529 -3.26864,0.655042 -4.506129,1.816046 -1.325165,1.2279 -2.088288,2.907386 -2.152116,4.714696 -0.121021,3.725502 2.81049,6.870286 6.536174,7.009754 1.814711,0.05857 3.531526,-0.587642 4.852896,-1.825992 1.31744,-1.231872 2.078223,-2.899966 2.144632,-4.704806 0.12754,-3.73072 -2.803882,-6.875504 -6.536163,-7.009744 -0.113024,-0.0038 -0.226904,-0.0017 -0.339162,0 z m -0.179543,1.995648 c 0.155301,-0.0096 0.303825,-0.006 0.461339,0 2.60226,0.09122 4.648304,2.273504 4.561131,4.881954 -0.03907,1.255354 -0.573431,2.431926 -1.493767,3.295264 -0.922864,0.85684 -2.122489,1.298814 -3.386604,1.259754 -2.600965,-0.09644 -4.639507,-2.28745 -4.553704,-4.891856 0.04037,-1.260482 0.581099,-2.425886 1.496237,-3.285362 0.803,-0.75316 1.828243,-1.193622 2.915266,-1.259754 z m 1.240249,2.362168 c -1.159835,0 -2.097254,0.628426 -2.097254,1.401944 0,0.768288 0.937364,1.401956 2.097254,1.401956 1.156039,0 2.08727,-0.632344 2.08727,-1.401956 0,-0.77349 -0.931287,-1.401944 -2.08727,-1.401944 z"
       id="path3" />
    <path
       style="opacity:0.2;stroke-width:0.982303"
       d="M 4.0211007,31.923245 A 27.5,27.50877 0 0 0 4,32.49123 27.5,27.50877 0 0 0 31.5,60 27.5,27.50877 0 0 0 59,32.49123 27.5,27.50877 0 0 0 58.978903,32.09211 27.5,27.50877 0 0 1 31.5,59.01754 27.5,27.50877 0 0 1 4.0211007,31.923245 Z"
       id="path4" />
    <path
       style="opacity:0.2;fill:#ffffff;stroke-width:0.982303"
       d="M 31.5,4 A 27.50049,27.50877 0 0 0 4,31.50877 27.50049,27.50877 0 0 0 4.0211007,31.90789 27.50049,27.50877 0 0 1 31.5,4.982456 27.50049,27.50877 0 0 1 58.978903,32.076755 27.50049,27.50877 0 0 0 59,31.50877 27.50049,27.50877 0 0 0 31.5,4 Z"
       id="path5" />
  </g>
</svg>
