<?xml version="1.0" encoding="UTF-8" standalone="no"?>
<svg
   width="62"
   height="62"
   viewBox="0 0 16.403844 16.403844"
   version="1.1"
   id="svg3"
   sodipodi:docname="swell-foop.svg"
   inkscape:version="1.4 (unknown)"
   xmlns:inkscape="http://www.inkscape.org/namespaces/inkscape"
   xmlns:sodipodi="http://sodipodi.sourceforge.net/DTD/sodipodi-0.dtd"
   xmlns="http://www.w3.org/2000/svg"
   xmlns:svg="http://www.w3.org/2000/svg">
  <defs
     id="defs3" />
  <sodipodi:namedview
     id="namedview3"
     pagecolor="#ffffff"
     bordercolor="#000000"
     borderopacity="0.25"
     inkscape:showpageshadow="2"
     inkscape:pageopacity="0.0"
     inkscape:pagecheckerboard="0"
     inkscape:deskcolor="#d1d1d1"
     inkscape:zoom="7.0710678"
     inkscape:cx="31.819805"
     inkscape:cy="34.718943"
     inkscape:window-width="1920"
     inkscape:window-height="998"
     inkscape:window-x="0"
     inkscape:window-y="0"
     inkscape:window-maximized="1"
     inkscape:current-layer="svg3" />
  <g
     transform="matrix(1.1199912,0,0,1.1197365,-1.2804824,-314.87901)"
     stroke-width="0.962"
     id="g3">
    <rect
       x="1.852"
       y="281.92001"
       width="13.229"
       height="13.229"
       rx="2.0350001"
       ry="2.0350001"
       fill="#4d4d4d"
       paint-order="markers stroke fill"
       id="rect1"
       style="fill:#2d3d53;fill-opacity:1" />
    <path
       d="m 8.467,281.917 v 6.614 h 6.614 v -4.58 a 2.03,2.03 0 0 0 -2.035,-2.034 h -4.58 z m -6.615,6.615 v 4.579 a 2.03,2.03 0 0 0 2.035,2.035 h 4.58 v -6.614 z"
       id="path1"
       style="fill:#2a7fff" />
    <path
       d="m 5.16,283.29 0.55,1.173 1.23,0.188 -0.89,0.912 0.21,1.29 -1.1,-0.61 -1.101,0.61 0.21,-1.29 -0.89,-0.912 1.23,-0.188 z"
       fill="#ffffff"
       id="path2" />
    <circle
       cx="11.774"
       cy="285.23001"
       r="1.526"
       fill="#ffffff"
       id="circle2" />
    <path
       d="m 10.248,290.31 h 3.053 v 3.053 h -3.053 z"
       fill="#ffffff"
       id="path3" />
    <circle
       cx="5.1589999"
       cy="291.84"
       r="1.526"
       fill="#ffffff"
       id="circle3" />
  </g>
</svg>
