<?xml version="1.0" encoding="UTF-8" standalone="no"?>
<svg
   width="62"
   height="62"
   version="1"
   id="svg4"
   sodipodi:docname="system-switch-user.svg"
   inkscape:version="1.4 (e7c3feb100, 2024-10-09)"
   xmlns:inkscape="http://www.inkscape.org/namespaces/inkscape"
   xmlns:sodipodi="http://sodipodi.sourceforge.net/DTD/sodipodi-0.dtd"
   xmlns:xlink="http://www.w3.org/1999/xlink"
   xmlns="http://www.w3.org/2000/svg"
   xmlns:svg="http://www.w3.org/2000/svg">
  <defs
     id="defs4">
    <linearGradient
       id="linearGradient6"
       inkscape:collect="always">
      <stop
         style="stop-color:#eff2f6;stop-opacity:1;"
         offset="0"
         id="stop6" />
      <stop
         style="stop-color:#b7c6cd;stop-opacity:1;"
         offset="1"
         id="stop7" />
    </linearGradient>
    <linearGradient
       id="linearGradient4"
       inkscape:collect="always">
      <stop
         style="stop-color:#3f51b5;stop-opacity:1;"
         offset="0"
         id="stop4" />
      <stop
         style="stop-color:#b380ff;stop-opacity:1"
         offset="1"
         id="stop5" />
    </linearGradient>
    <linearGradient
       inkscape:collect="always"
       xlink:href="#linearGradient4"
       id="linearGradient5"
       x1="13.780748"
       y1="6.5682039"
       x2="52.509281"
       y2="53.857174"
       gradientUnits="userSpaceOnUse" />
    <linearGradient
       inkscape:collect="always"
       xlink:href="#linearGradient6"
       id="linearGradient7"
       x1="30.735758"
       y1="15.666366"
       x2="39.540379"
       y2="43.359646"
       gradientUnits="userSpaceOnUse" />
  </defs>
  <sodipodi:namedview
     id="namedview4"
     pagecolor="#ffffff"
     bordercolor="#000000"
     borderopacity="0.25"
     inkscape:showpageshadow="2"
     inkscape:pageopacity="0.0"
     inkscape:pagecheckerboard="0"
     inkscape:deskcolor="#d1d1d1"
     inkscape:zoom="11.6875"
     inkscape:cx="31.957219"
     inkscape:cy="27.465241"
     inkscape:window-width="1920"
     inkscape:window-height="994"
     inkscape:window-x="0"
     inkscape:window-y="0"
     inkscape:window-maximized="1"
     inkscape:current-layer="svg4" />
  <g
     id="g4"
     transform="translate(0.5)">
    <rect
       style="opacity:0.2;stroke-width:0.948712"
       width="55"
       height="55.050846"
       x="3"
       y="3.9491525"
       rx="16.500004"
       ry="16.515257"
       id="rect1" />
    <rect
       style="fill:url(#linearGradient5);stroke-width:0.948712"
       width="55"
       height="55.050846"
       x="3"
       y="3"
       rx="16.500004"
       ry="16.515257"
       id="rect2" />
    <path
       style="opacity:0.2;stroke-width:0.948712"
       d="m 21.017242,12.491529 -9.482754,12.338978 h 6.63792 v 22.835274 c -0.05189,3.721542 5.741474,3.721542 5.68966,0 V 24.830507 h 6.637925 z m 18.965509,0 c -1.435363,0 -2.870734,0.931062 -2.844825,2.791833 v 22.835275 h -6.637933 l 9.482758,12.338982 9.482761,-12.338982 H 42.827586 V 15.283362 c 0.02581,-1.860771 -1.409462,-2.791833 -2.844835,-2.791833 z"
       id="path2" />
    <path
       style="fill:url(#linearGradient7);stroke-width:0.948712"
       d="m 21.017242,11.542378 -9.482754,12.338976 h 6.63792 v 22.835275 c -0.05189,3.721543 5.741474,3.721543 5.68966,0 V 23.881354 h 6.637925 z m 18.965509,0 c -1.435363,0 -2.870734,0.931061 -2.844825,2.791832 v 22.835276 h -6.637933 l 9.482758,12.338982 9.482761,-12.338982 H 42.827586 V 14.33421 c 0.0258,-1.860771 -1.409462,-2.791832 -2.844835,-2.791832 z"
       id="path3" />
    <path
       style="opacity:0.1;fill:#ffffff;stroke-width:0.948712"
       d="M 19.498518,3 C 10.357511,3 3,10.364313 3,19.51377 v 0.949151 C 3,11.313473 10.357511,3.9491529 19.498518,3.9491529 h 22.002961 c 9.140995,0 16.498516,7.3643211 16.498516,16.5137681 V 19.51377 C 57.999995,10.364313 50.642474,3 41.501479,3 Z"
       id="path4" />
  </g>
</svg>
