<?xml version="1.0" encoding="UTF-8" standalone="no"?>
<svg
   width="62"
   height="62"
   version="1.1"
   id="svg4"
   sodipodi:docname="synapse.svg"
   inkscape:version="1.4 (e7c3feb100, 2024-10-09)"
   xmlns:inkscape="http://www.inkscape.org/namespaces/inkscape"
   xmlns:sodipodi="http://sodipodi.sourceforge.net/DTD/sodipodi-0.dtd"
   xmlns="http://www.w3.org/2000/svg"
   xmlns:svg="http://www.w3.org/2000/svg">
  <defs
     id="defs4" />
  <sodipodi:namedview
     id="namedview4"
     pagecolor="#ffffff"
     bordercolor="#000000"
     borderopacity="0.25"
     inkscape:showpageshadow="2"
     inkscape:pageopacity="0.0"
     inkscape:pagecheckerboard="0"
     inkscape:deskcolor="#d1d1d1"
     inkscape:zoom="11.6875"
     inkscape:cx="31.957219"
     inkscape:cy="32"
     inkscape:window-width="1920"
     inkscape:window-height="994"
     inkscape:window-x="0"
     inkscape:window-y="0"
     inkscape:window-maximized="1"
     inkscape:current-layer="svg4" />
  <rect
     style="opacity:0.2;stroke-width:0.965216"
     width="55.034481"
     height="55"
     x="-59"
     y="-58.5"
     rx="27.517241"
     ry="27.5"
     transform="matrix(0,-1,-1,0,0,0)"
     id="rect1" />
  <rect
     style="fill:#009999;fill-opacity:1;stroke-width:0.965216"
     width="55.034481"
     height="55"
     x="-58.034481"
     y="-58.5"
     rx="27.517241"
     ry="27.5"
     transform="matrix(0,-1,-1,0,0,0)"
     id="rect2" />
  <path
     style="opacity:0.2;stroke-width:1.10407"
     d="m 29.345737,11.035386 v 4.509568 A 15.991245,16.026319 0 0 0 15.25,28.719602 h 3.379619 a 12.682707,12.710527 0 0 1 12.370386,-9.947363 12.682707,12.710527 0 0 1 12.361763,9.947363 h 3.373151 A 15.991245,16.026319 0 0 0 32.654266,15.54927 v -4.513884 z m 1.654268,11.052639 a 9.3741773,9.3947384 0 0 0 -9.37418,9.394741 9.3741773,9.3947384 0 0 0 0.155082,1.657896 h 0.947767 2.438317 11.661712 a 6.0656441,6.0789478 0 0 1 -5.828698,4.421048 6.0656441,6.0789478 0 0 1 -4.67201,-2.21053 h -3.859958 a 9.3741773,9.3947384 0 0 0 8.531968,5.526322 9.3741773,9.3947384 0 0 0 9.37417,-9.394736 9.3741773,9.3947384 0 0 0 -0.155082,-1.657895 H 39.271338 36.833021 25.171296 a 6.0656441,6.0789478 0 0 1 5.828709,-4.421053 6.0656441,6.0789478 0 0 1 4.672014,2.210522 h 3.859948 a 9.3741773,9.3947384 0 0 0 -8.531962,-5.526315 z m -15.734919,12.1579 a 15.991245,16.026319 0 0 0 14.080651,13.170337 v 4.51387 h 3.308529 V 47.420577 A 15.991245,16.026319 0 0 0 46.75,34.245925 H 43.370382 A 12.682707,12.710527 0 0 1 31.000005,44.193288 12.682707,12.710527 0 0 1 18.63823,34.245925 Z"
     id="path2" />
  <path
     style="fill:#ffffff;stroke-width:1.10407"
     d="M 29.345737,9.9301325 V 14.439688 A 15.991245,16.026319 0 0 0 15.25,27.61434 h 3.379619 a 12.682707,12.710527 0 0 1 12.370386,-9.947363 12.682707,12.710527 0 0 1 12.361763,9.947363 h 3.373151 A 15.991245,16.026319 0 0 0 32.654266,14.444002 V 9.9301325 Z m 1.654268,11.0526305 a 9.3741773,9.3947384 0 0 0 -9.37418,9.394735 9.3741773,9.3947384 0 0 0 0.155082,1.657902 h 0.947767 2.438317 11.661712 a 6.0656441,6.0789478 0 0 1 -5.828698,4.421047 6.0656441,6.0789478 0 0 1 -4.67201,-2.210522 h -3.859958 a 9.3741773,9.3947384 0 0 0 8.531968,5.526314 9.3741773,9.3947384 0 0 0 9.37417,-9.394741 9.3741773,9.3947384 0 0 0 -0.155082,-1.657896 H 39.271338 36.833021 25.171296 a 6.0656441,6.0789478 0 0 1 5.828709,-4.421048 6.0656441,6.0789478 0 0 1 4.672014,2.210531 h 3.859948 A 9.3741773,9.3947384 0 0 0 31.000005,20.982763 Z M 15.265086,33.140662 a 15.991245,16.026319 0 0 0 14.080651,13.170334 v 4.513882 h 3.308529 V 46.315311 A 15.991245,16.026319 0 0 0 46.75,33.140662 H 43.370382 A 12.682707,12.710527 0 0 1 31.000005,43.088027 12.682707,12.710527 0 0 1 18.63823,33.140662 Z"
     id="path3" />
  <path
     style="opacity:0.2;fill:#ffffff;stroke-width:0.965216"
     d="M 30.999993,3 C 15.764993,3 3.5,15.272682 3.5,30.517234 c 0,0.161955 0.00855,0.321488 0.011308,0.482759 0.2567919,-15.01908 12.415538,-27.0344757 27.488685,-27.0344757 15.073148,0 27.231894,12.0153957 27.488685,27.0344757 0.0028,-0.161271 0.01131,-0.320804 0.01131,-0.482759 C 58.499988,15.272682 46.234993,3 30.999993,3 Z"
     id="path4" />
</svg>
