<?xml version="1.0" encoding="UTF-8" standalone="no"?>
<svg
   width="62"
   height="62"
   version="1"
   id="svg5"
   sodipodi:docname="synaptic.svg"
   inkscape:version="1.4 (e7c3feb100, 2024-10-09)"
   xmlns:inkscape="http://www.inkscape.org/namespaces/inkscape"
   xmlns:sodipodi="http://sodipodi.sourceforge.net/DTD/sodipodi-0.dtd"
   xmlns="http://www.w3.org/2000/svg"
   xmlns:svg="http://www.w3.org/2000/svg">
  <defs
     id="defs5" />
  <sodipodi:namedview
     id="namedview5"
     pagecolor="#ffffff"
     bordercolor="#000000"
     borderopacity="0.25"
     inkscape:showpageshadow="2"
     inkscape:pageopacity="0.0"
     inkscape:pagecheckerboard="0"
     inkscape:deskcolor="#d1d1d1"
     inkscape:zoom="11.6875"
     inkscape:cx="31.957219"
     inkscape:cy="32"
     inkscape:window-width="1920"
     inkscape:window-height="994"
     inkscape:window-x="0"
     inkscape:window-y="0"
     inkscape:window-maximized="1"
     inkscape:current-layer="svg5" />
  <ellipse
     style="opacity:0.2;stroke-width:0.948712"
     cx="30.5"
     cy="31.474585"
     id="circle1"
     rx="27.5"
     ry="27.525415" />
  <ellipse
     style="fill:#d35f8d;stroke-width:0.948712"
     cx="30.5"
     cy="30.525415"
     id="circle2"
     rx="27.5"
     ry="27.525415" />
  <path
     style="opacity:1;stroke-width:0.948712;fill:#a02c5a;fill-opacity:0.85000002"
     d="m 30.49999,10.593223 a 19.913797,19.932201 0 0 0 -19.913776,19.932182 19.913797,19.932201 0 0 0 0.230588,2.847472 h 1.333502 4.428377 27.856525 A 14.224133,14.237279 0 0 1 30.49999,44.762703 14.224133,14.237279 0 0 1 19.137366,39.067779 H 12.533695 A 19.913797,19.932201 0 0 0 30.49999,50.457606 19.913797,19.932201 0 0 0 50.413788,30.525405 19.913797,19.932201 0 0 0 50.183198,27.677954 H 47.710656 44.421319 16.564794 A 14.224133,14.237279 0 0 1 30.49999,16.288126 14.224133,14.237279 0 0 1 41.862637,21.983049 h 6.603668 A 19.913797,19.932201 0 0 0 30.49999,10.593223 Z"
     id="path2" />
  <path
     style="opacity:0.2;stroke-width:0.948712"
     d="m 26.706893,21.0339 v 10.440675 h -4.74137 L 30.49999,41.915241 39.034476,31.474575 H 34.293107 V 21.0339 Z"
     id="path3" />
  <rect
     style="fill:#f2f2f2;stroke-width:0.948712;fill-opacity:1"
     width="7.586206"
     height="13.288141"
     x="26.706882"
     y="20.084747"
     id="rect3" />
  <path
     style="fill:#f2f2f2;stroke-width:1.14858;fill-opacity:1"
     d="M 21.965523,30.525405 H 39.034476 L 30.49999,40.96608 Z"
     id="path4" />
  <path
     style="opacity:0.2;fill:#ffffff;stroke-width:0.948712"
     d="M 30.49999,3 A 27.49999,27.525405 0 0 0 3,30.525405 27.49999,27.525405 0 0 0 3.0166687,30.988871 27.49999,27.525405 0 0 1 30.49999,3.9491525 27.49999,27.525405 0 0 1 57.97592,30.994432 27.49999,27.525405 0 0 0 57.999999,30.525405 27.49999,27.525405 0 0 0 30.49999,3 Z"
     id="path5" />
</svg>
