<?xml version="1.0" encoding="UTF-8" standalone="no"?>
<svg
   width="62"
   height="62"
   version="1"
   id="svg10"
   sodipodi:docname="syncthing-gtk.svg"
   inkscape:version="1.4 (e7c3feb100, 2024-10-09)"
   xmlns:inkscape="http://www.inkscape.org/namespaces/inkscape"
   xmlns:sodipodi="http://sodipodi.sourceforge.net/DTD/sodipodi-0.dtd"
   xmlns="http://www.w3.org/2000/svg"
   xmlns:svg="http://www.w3.org/2000/svg">
  <defs
     id="defs10" />
  <sodipodi:namedview
     id="namedview10"
     pagecolor="#ffffff"
     bordercolor="#000000"
     borderopacity="0.25"
     inkscape:showpageshadow="2"
     inkscape:pageopacity="0.0"
     inkscape:pagecheckerboard="0"
     inkscape:deskcolor="#d1d1d1"
     inkscape:zoom="11.6875"
     inkscape:cx="31.957219"
     inkscape:cy="32"
     inkscape:window-width="1920"
     inkscape:window-height="994"
     inkscape:window-x="0"
     inkscape:window-y="0"
     inkscape:window-maximized="1"
     inkscape:current-layer="svg10" />
  <g
     id="g10"
     transform="matrix(0.98214286,0,0,0.98245614,-0.42857152,-0.92982455)">
    <circle
       style="opacity:0.2"
       cx="32"
       cy="33"
       r="28"
       id="circle1" />
    <circle
       style="fill:#3771c8"
       cx="32"
       cy="32"
       r="28"
       id="circle2" />
    <path
       style="opacity:0.2"
       d="m 32,13 c -11.046,0 -20,8.955 -20,20 0,11.046 8.954,20 20,20 11.045,0 20,-8.954 20,-20 -0.009,-2.33 -0.426,-4.641 -1.231,-6.827 l 0.042,-0.032 -0.104,-0.148 C 47.787,18.187 40.333,13.01 32,13 Z m 0,2 c 6.723,0.003 12.884,3.753 15.975,9.723 L 35.496,33.64 14.204,35.574 C 14.074,34.722 14.006,33.862 14,33 14,23.059 22.059,15 32,15 Z m 17.077,12.379 c 0.604,1.813 0.916,3.71 0.923,5.621 -0.005,4.74 -1.879,9.286 -5.215,12.652 l -6.867,-10.3 z m -13.781,9.089 7.347,11.02 C 39.56,49.762 35.831,50.992 32,51 24.12,50.991 17.162,45.858 14.828,38.332 Z"
       id="path2" />
    <path
       style="fill:#ffffff"
       d="m 32,12 c -11.046,0 -20,8.955 -20,20 0,11.046 8.954,20 20,20 11.045,0 20,-8.954 20,-20 -0.009,-2.33 -0.426,-4.641 -1.231,-6.827 l 0.042,-0.032 -0.104,-0.148 C 47.787,17.187 40.333,12.01 32,12 Z m 0,2 c 6.723,0.003 12.884,3.753 15.975,9.723 L 35.496,32.64 14.204,34.574 C 14.074,33.722 14.006,32.862 14,32 14,22.059 22.059,14 32,14 Z m 17.077,12.379 c 0.604,1.813 0.916,3.71 0.923,5.621 -0.005,4.74 -1.879,9.286 -5.215,12.652 l -6.867,-10.3 z m -13.781,9.089 7.347,11.02 C 39.56,48.762 35.831,49.992 32,50 24.12,49.991 17.162,44.858 14.828,37.332 Z"
       id="path3" />
    <circle
       style="opacity:0.2"
       cx="14"
       cy="37"
       r="4"
       id="circle3" />
    <circle
       style="fill:#ffffff"
       cx="14"
       cy="36"
       r="4"
       id="circle4" />
    <circle
       style="opacity:0.2"
       cx="44"
       cy="47"
       r="4"
       id="circle5" />
    <circle
       style="fill:#ffffff"
       cx="44"
       cy="46"
       r="4"
       id="circle6" />
    <circle
       style="opacity:0.2"
       cx="50"
       cy="25"
       r="4"
       id="circle7" />
    <circle
       style="fill:#ffffff"
       cx="50"
       cy="24"
       r="4"
       id="circle8" />
    <circle
       style="opacity:0.2"
       cx="36"
       cy="35"
       r="4"
       id="circle9" />
    <circle
       style="fill:#ffffff"
       cx="36"
       cy="34"
       r="4"
       id="circle10" />
    <path
       style="opacity:0.2;fill:#ffffff"
       d="M 32,4 A 28,28 0 0 0 4,32 28,28 0 0 0 4.0215,32.586 28,28 0 0 1 32,5 28,28 0 0 1 59.979,32.414 28,28 0 0 0 60,32 28,28 0 0 0 32,4 Z"
       id="path10" />
  </g>
</svg>
