<?xml version="1.0" encoding="UTF-8" standalone="no"?>
<svg
   width="62"
   height="62"
   version="1.1"
   id="svg5"
   sodipodi:docname="synergy-mod.svg"
   inkscape:version="1.4 (unknown)"
   xmlns:inkscape="http://www.inkscape.org/namespaces/inkscape"
   xmlns:sodipodi="http://sodipodi.sourceforge.net/DTD/sodipodi-0.dtd"
   xmlns="http://www.w3.org/2000/svg"
   xmlns:svg="http://www.w3.org/2000/svg">
  <defs
     id="defs5" />
  <sodipodi:namedview
     id="namedview5"
     pagecolor="#ffffff"
     bordercolor="#000000"
     borderopacity="0.25"
     inkscape:showpageshadow="2"
     inkscape:pageopacity="0.0"
     inkscape:pagecheckerboard="0"
     inkscape:deskcolor="#d1d1d1"
     inkscape:zoom="6.0546875"
     inkscape:cx="20.645161"
     inkscape:cy="38.895484"
     inkscape:window-width="1920"
     inkscape:window-height="998"
     inkscape:window-x="0"
     inkscape:window-y="0"
     inkscape:window-maximized="1"
     inkscape:current-layer="svg5" />
  <g
     id="g5"
     transform="matrix(0.98214286,0,0,0.98248043,-0.42857152,-0.93130633)">
    <path
       d="m 31.707327,4.0014094 -0.02344,0.01562 C 16.320461,4.1874249 4.00056,16.595923 4.00056,32.000349 c 0,15.511623 12.487697,27.99932 27.99932,27.99932 15.276829,0 27.593329,-12.119506 27.96332,-27.303337 0,0 0.0242,-0.478448 0.03516,-0.695303 V 10.001564 c 0,-3.3239192 -2.675935,-5.9998542 -5.999855,-5.9998542 H 31.99904 Z"
       style="fill:#2ca05a"
       id="path1" />
    <path
       d="m 31.707031,4.0019531 -0.02344,0.015625 C 16.320168,4.1879736 4,16.595574 4,32 4,32.112878 4.011179,32.222773 4.017578,32.333984 4.3677172,17.240427 16.542914,5.1855031 31.683594,5.0175781 L 31.707031,5.0019531 31.708984,5 H 54 c 3.32392,0 6,2.6760804 6,6 V 10 C 60,6.6760804 57.32392,4.0019531 54,4.0019531 H 31.708984 Z"
       style="opacity:0.2;fill:#ffffff"
       id="path2" />
    <path
       d="m 59.99864,31.000729 -0.036,0.695983 C 59.592649,46.880343 47.276949,59.000049 31.99932,59.000049 16.821489,59.000049 4.571986,47.034339 4.049999,31.988705 4.038799,32.326697 4,32.658689 4,33.00068 4.0000002,48.512303 16.487697,61 31.99932,61 47.276949,61 59.592649,48.880295 59.96264,33.696663 l 0.036,-0.695983 z"
       style="opacity:0.2"
       id="path3" />
    <path
       d="M 31.998047,13.002 A 20,20 0 0 0 23,15.144578 v 8.480469 a 13,13 0 0 1 9,-3.625 v 4 a 9,9 0 0 0 -8.472656,6 H 19 V 17.832078 A 20,20 0 0 0 11.998047,33.002 20,20 0 0 0 14.142578,42.000047 H 22.625 a 13,13 0 0 1 -3.625,-9 h 4 a 9,9 0 0 0 6,8.472656 v 4.527344 H 16.830078 A 20,20 0 0 0 31.998047,53.002 20,20 0 0 0 41,50.855516 v -8.480469 a 13,13 0 0 1 -9,3.625 v -4 a 9,9 0 0 0 8.472656,-6 H 45 V 48.168016 A 20,20 0 0 0 51.998047,33.002 20,20 0 0 0 49.853516,24.000047 H 41.375 a 13,13 0 0 1 3.625,9 H 41 A 9,9 0 0 0 35,24.527391 V 20.000047 H 47.166016 A 20,20 0 0 0 31.998047,13.002 Z m 0.002,13.998047 a 6,6 0 0 1 6,6 6,6 0 0 1 -6,6 6,6 0 0 1 -6,-6 6,6 0 0 1 6,-6 z"
       style="opacity:0.2"
       id="path4" />
    <path
       d="M 31.998047,12.001953 A 20,20 0 0 0 23,14.144531 V 22.625 A 13,13 0 0 1 32,19 v 4 a 9,9 0 0 0 -8.472656,6 H 19 V 16.832031 A 20,20 0 0 0 11.998047,32.001953 20,20 0 0 0 14.142578,41 H 22.625 A 13,13 0 0 1 19,32 h 4 a 9,9 0 0 0 6,8.472656 V 45 H 16.830078 A 20,20 0 0 0 31.998047,52.001953 20,20 0 0 0 41,49.855469 V 41.375 A 13,13 0 0 1 32,45 v -4 a 9,9 0 0 0 8.472656,-6 H 45 V 47.167969 A 20,20 0 0 0 51.998047,32.001953 20,20 0 0 0 49.853516,23 H 41.375 A 13,13 0 0 1 45,32 H 41 A 9,9 0 0 0 35,23.527344 V 19 H 47.166016 A 20,20 0 0 0 31.998047,12.001953 Z M 32,26 a 6,6 0 0 1 6,6 6,6 0 0 1 -6,6 6,6 0 0 1 -6,-6 6,6 0 0 1 6,-6 z"
       style="fill:#ffffff"
       id="path5" />
  </g>
</svg>
