<?xml version="1.0" encoding="UTF-8" standalone="no"?>
<svg
   width="62"
   height="62"
   version="1.1"
   id="svg16"
   sodipodi:docname="synfig_icon.svg"
   inkscape:version="1.4 (e7c3feb100, 2024-10-09)"
   xmlns:inkscape="http://www.inkscape.org/namespaces/inkscape"
   xmlns:sodipodi="http://sodipodi.sourceforge.net/DTD/sodipodi-0.dtd"
   xmlns:xlink="http://www.w3.org/1999/xlink"
   xmlns="http://www.w3.org/2000/svg"
   xmlns:svg="http://www.w3.org/2000/svg">
  <sodipodi:namedview
     id="namedview16"
     pagecolor="#ffffff"
     bordercolor="#000000"
     borderopacity="0.25"
     inkscape:showpageshadow="2"
     inkscape:pageopacity="0.0"
     inkscape:pagecheckerboard="0"
     inkscape:deskcolor="#d1d1d1"
     showguides="true"
     inkscape:zoom="5.84375"
     inkscape:cx="30.716578"
     inkscape:cy="26.352941"
     inkscape:window-width="1920"
     inkscape:window-height="994"
     inkscape:window-x="0"
     inkscape:window-y="0"
     inkscape:window-maximized="1"
     inkscape:current-layer="svg16" />
  <defs
     id="defs10">
    <linearGradient
       id="linearGradient16"
       inkscape:collect="always">
      <stop
         style="stop-color:#333f4d;stop-opacity:1;"
         offset="0"
         id="stop16" />
      <stop
         style="stop-color:#566c80;stop-opacity:1;"
         offset="1"
         id="stop17" />
    </linearGradient>
    <linearGradient
       id="c"
       x2="0"
       y1="543.79999"
       y2="503.79999"
       gradientTransform="translate(-817.14)"
       gradientUnits="userSpaceOnUse">
      <stop
         offset="0"
         stop-color="#18222a"
         id="stop1" />
      <stop
         offset="1"
         stop-color="#566069"
         id="stop2" />
    </linearGradient>
    <linearGradient
       id="e"
       x1="399.57001"
       x2="416.57001"
       y1="517.79999"
       y2="534.79999"
       gradientUnits="userSpaceOnUse">
      <stop
         offset="0"
         id="stop3" />
      <stop
         offset="1"
         stop-opacity="0"
         id="stop4" />
    </linearGradient>
    <linearGradient
       id="g"
       x2="0"
       y1="537.79999"
       y2="508.79999"
       gradientUnits="userSpaceOnUse"
       gradientTransform="matrix(1.5756624,0,0,1.5593839,-612.70677,-785.05872)">
      <stop
         offset="0"
         stop-color="#026ddc"
         id="stop5" />
      <stop
         offset="1"
         stop-color="#28b0fd"
         id="stop6" />
    </linearGradient>
    <linearGradient
       id="a"
       x1="408.64999"
       x2="416.64999"
       y1="525.28003"
       y2="533.28003"
       gradientTransform="translate(-0.081,-0.48)"
       gradientUnits="userSpaceOnUse">
      <stop
         offset="0"
         stop-opacity=".065"
         id="stop7" />
      <stop
         offset="1"
         stop-opacity="0"
         id="stop8" />
    </linearGradient>
    <linearGradient
       xlink:href="#a"
       id="i"
       x1="417.79001"
       x2="426.22"
       y1="517.96002"
       y2="525.90997"
       gradientTransform="matrix(-1,0,0,1,817.2,-0.48)"
       gradientUnits="userSpaceOnUse" />
    <linearGradient
       xlink:href="#a"
       id="h"
       x1="408.64999"
       x2="416.64999"
       y1="525.28003"
       y2="533.28003"
       gradientTransform="translate(-0.081,-0.48)"
       gradientUnits="userSpaceOnUse" />
    <filter
       id="f"
       width="1.1274042"
       height="1.1133021"
       x="-0.063702091"
       y="-0.056651067"
       color-interpolation-filters="sRGB">
      <feGaussianBlur
         stdDeviation=".804"
         id="feGaussianBlur8" />
    </filter>
    <filter
       id="d"
       width="1.1425945"
       height="1.1036125"
       x="-0.071297259"
       y="-0.051806268"
       color-interpolation-filters="sRGB">
      <feGaussianBlur
         stdDeviation=".627"
         id="feGaussianBlur9" />
    </filter>
    <filter
       id="b"
       width="1.072"
       height="1.072"
       x="-0.036000001"
       y="-0.036000001"
       color-interpolation-filters="sRGB">
      <feGaussianBlur
         stdDeviation=".6"
         id="feGaussianBlur10" />
    </filter>
    <linearGradient
       inkscape:collect="always"
       xlink:href="#linearGradient16"
       id="linearGradient17"
       x1="-410.27655"
       y1="543.72888"
       x2="-410.73453"
       y2="503.9147"
       gradientUnits="userSpaceOnUse"
       gradientTransform="matrix(1.4064323,0,0,1.3990046,543.67215,-701.79859)" />
  </defs>
  <rect
     width="40"
     height="40"
     x="-428.57001"
     y="503.79999"
     filter="url(#b)"
     opacity="0.25"
     rx="20"
     transform="matrix(-1.4064323,0,0,1.3990046,-543.67215,-701.79859)"
     id="rect10" />
  <rect
     width="56.257294"
     height="55.960182"
     x="-59.08255"
     y="3.0199103"
     rx="28.128647"
     transform="scale(-1,1)"
     id="rect11"
     style="fill:url(#linearGradient17);stroke-width:1.40271" />
  <path
     d="m 408.57,508.8 a 0.33,0.33 0 0 0 -0.248,0.101 56,56 0 0 0 -2.732,3.099 v 0.004 c -2.107,2.628 -3.709,5.328 -4.869,8.218 -1.081,2.693 -1.713,5.02 -2.288,8.416 a 55,55 0 0 0 -0.341,2.368 c -0.044,0.362 -0.078,0.68 -0.097,0.915 q -0.014,0.176 -0.017,0.292 v 0.112 c 0,0.02 0,0.042 0.014,0.079 0.01,0.037 0,0.111 0.149,0.202 0.08,0.049 0.09,0.039 0.11,0.044 a 1,1 0 0 0 0.156,0.024 c 0.078,0.008 0.174,0.016 0.276,0.022 0.808,0.044 1.999,0.25 2.789,0.481 0.533,0.156 0.884,0.285 1.405,0.516 l 0.413,0.18 0.032,0.013 10e-4,0.002 c 0,0.002 0.01,0.004 0.014,0.007 v -0.003 0.002 c 0.01,0.002 0.01,0.004 0.019,0.007 l 0.012,0.005 -0.013,-10e-4 0.087,0.048 0.341,0.19 c 1.275,0.716 2.228,1.455 3.75,2.914 0.201,0.192 0.387,0.366 0.529,0.495 q 0.107,0.097 0.176,0.157 a 1,1 0 0 0 0.102,0.08 l 0.039,0.022 c 0.02,0.009 0.039,0.028 0.13,0.033 0.109,0.005 0.131,-0.019 0.153,-0.029 0.022,-0.01 0.034,-0.017 0.043,-0.023 a 2,2 0 0 0 0.109,-0.084 32,32 0 0 0 0.77,-0.705 c 1.259,-1.194 1.869,-1.699 2.746,-2.281 1.915,-1.271 3.621,-1.834 6.24,-2.056 l 0.212,-0.018 a 0.33,0.33 0 0 0 0.302,-0.328 v -0.125 c 0,-0.26 -0.062,-0.798 -0.146,-1.464 -0.084,-0.666 -0.19,-1.424 -0.287,-2 -0.575,-3.424 -1.228,-5.836 -2.323,-8.562 -0.986,-2.457 -2.399,-4.938 -4.087,-7.184 0,-0.005 -0.01,-0.01 -0.012,-0.015 -1.136,-1.345 -2.235,-2.756 -3.434,-4.065 a 0.33,0.33 0 0 0 -0.233,-0.107 z"
     filter="url(#d)"
     opacity="0.15"
     id="path11"
     transform="matrix(1.5756623,0,0,1.559384,-612.70674,-785.0588)" />
  <path
     d="m 31.061596,8.3557292 a 0.51996862,0.5145967 0 0 0 -0.390757,0.157501 88.237088,87.325502 0 0 0 -4.304712,4.8325288 v 0.006 c -3.319922,4.09806 -5.844133,8.308402 -7.671902,12.815022 -1.703292,4.199416 -2.699111,7.828102 -3.605113,13.123771 a 86.661425,85.766112 0 0 0 -0.537299,3.692623 c -0.06936,0.5645 -0.122906,1.060385 -0.152847,1.42684 q -0.02201,0.274451 -0.02676,0.45534 v 0.174649 c 0,0.03117 0,0.06548 0.02201,0.123187 0.01572,0.05772 0,0.173097 0.234772,0.315002 0.126052,0.07638 0.141809,0.0608 0.173321,0.06864 a 1.5756623,1.559384 0 0 0 0.245803,0.03744 c 0.122904,0.01243 0.274167,0.02496 0.434886,0.03433 1.273135,0.06864 3.149749,0.38985 4.394522,0.75007 0.839828,0.243265 1.392886,0.444424 2.213807,0.804645 l 0.650747,0.280686 0.0504,0.02029 0.0014,0.0032 c 0,0.0032 0.01574,0.006 0.02201,0.01075 v -0.0046 0.0032 c 0.01572,0.0032 0.01572,0.006 0.02992,0.01075 l 0.01891,0.0078 -0.02048,-0.0014 0.137082,0.07486 0.5373,0.296284 c 2.008968,1.116518 3.510575,2.268903 5.908733,4.544041 0.31671,0.299403 0.609782,0.570738 0.833524,0.771898 q 0.168599,0.151261 0.277316,0.244822 a 1.5756623,1.559384 0 0 0 0.160719,0.124754 l 0.06142,0.03431 c 0.03149,0.01406 0.06144,0.04367 0.204838,0.05142 0.17175,0.0078 0.206414,-0.02963 0.241078,-0.04521 0.03468,-0.01557 0.05359,-0.02647 0.06775,-0.03587 a 3.1513251,3.1187676 0 0 0 0.171746,-0.130988 50.421192,49.900282 0 0 0 1.213257,-1.099366 c 1.983764,-1.861904 2.944919,-2.649393 4.326771,-3.556954 3.017393,-1.981979 5.705478,-2.859909 9.832133,-3.206095 l 0.334042,-0.02811 a 0.51996862,0.5145967 0 0 0 0.475851,-0.511469 v -0.194854 c 0,-0.40544 -0.09767,-1.244386 -0.230049,-2.282939 -0.132354,-1.038573 -0.299378,-2.220585 -0.452217,-3.118792 -0.906009,-5.339372 -1.934917,-9.100609 -3.660267,-13.351484 -1.553603,-3.831409 -3.780012,-7.700241 -6.439731,-11.202618 0,-0.0078 -0.01573,-0.01557 -0.01891,-0.0234 -1.789949,-2.097373 -3.521605,-4.297662 -5.410822,-6.3388968 a 0.51996862,0.5145967 0 0 0 -0.367117,-0.166777 z"
     id="path13"
     style="fill:url(#g);stroke-width:1.56753" />
  <g
     fill-rule="evenodd"
     stroke-width="0.667"
     id="g15"
     transform="matrix(1.5756623,0,0,1.559384,-612.70674,-785.0588)">
    <path
       d="m 415.83,519.04 -17.797,13.467 c 0.02,0.03 0.042,0.063 0.102,0.1 0.08,0.049 0.092,0.038 0.111,0.043 l 0.051,0.012 q 0.048,0.007 0.105,0.012 c 0.078,0.008 0.174,0.018 0.275,0.023 0.808,0.044 1.999,0.249 2.789,0.48 0.533,0.156 0.886,0.285 1.406,0.516 l 0.413,0.18 0.031,0.014 h 0.004 l 0.002,0.002 0.014,0.006 h 0.002 l 0.018,0.006 0.012,0.006 -0.012,-0.002 0.086,0.049 0.342,0.189 c 1.275,0.716 2.228,1.455 3.75,2.914 0.201,0.192 0.388,0.367 0.529,0.496 a 9,9 0 0 0 0.241,0.209 q 0.014,0.011 0.039,0.027 c 0.009,0.005 0.019,0.012 0.039,0.021 0.02,0.009 0.038,0.029 0.129,0.033 0.109,0.005 0.132,-0.019 0.154,-0.029 0.022,-0.01 0.033,-0.018 0.043,-0.023 a 1,1 0 0 0 0.109,-0.082 q 0.075,-0.065 0.191,-0.17 c 0.154,-0.139 0.358,-0.327 0.578,-0.535 1.259,-1.194 1.869,-1.699 2.746,-2.281 1.915,-1.271 3.621,-1.834 6.24,-2.055 l 0.211,-0.018 a 0.33,0.33 0 0 0 0.303,-0.33 v -0.123 c 0,-0.26 -0.063,-0.799 -0.146,-1.465 a 53,53 0 0 0 -0.287,-2 c -0.575,-3.424 -1.227,-5.836 -2.322,-8.563 -0.151,-0.376 -0.329,-0.752 -0.5,-1.129"
       id="path14"
       style="fill:url(#h)" />
    <path
       d="m 401.29,519.04 17.797,13.467 a 0.3,0.3 0 0 1 -0.102,0.1 c -0.08,0.049 -0.092,0.038 -0.111,0.043 l -0.051,0.012 q -0.048,0.007 -0.105,0.012 c -0.078,0.008 -0.174,0.018 -0.275,0.023 -0.808,0.044 -1.999,0.249 -2.789,0.48 a 10,10 0 0 0 -1.406,0.516 l -0.413,0.18 -0.031,0.014 H 413.8 l -0.002,0.002 -0.014,0.006 h -0.002 l -0.018,0.006 -0.012,0.006 0.012,-0.002 -0.086,0.049 -0.342,0.189 c -1.275,0.716 -2.228,1.455 -3.75,2.914 -0.201,0.192 -0.388,0.367 -0.529,0.496 a 9,9 0 0 1 -0.241,0.209 l -0.039,0.027 c -0.009,0.005 -0.019,0.012 -0.039,0.021 -0.02,0.009 -0.038,0.029 -0.129,0.033 -0.109,0.005 -0.132,-0.019 -0.154,-0.029 -0.022,-0.01 -0.033,-0.018 -0.043,-0.023 a 1,1 0 0 1 -0.109,-0.082 q -0.075,-0.065 -0.191,-0.17 a 35,35 0 0 1 -0.578,-0.535 c -1.259,-1.194 -1.869,-1.699 -2.746,-2.281 -1.915,-1.271 -3.621,-1.834 -6.24,-2.055 l -0.211,-0.018 a 0.33,0.33 0 0 1 -0.303,-0.33 v -0.123 c 0,-0.26 0.063,-0.799 0.146,-1.465 0.084,-0.666 0.19,-1.424 0.287,-2 0.575,-3.424 1.227,-5.836 2.322,-8.563 0.151,-0.376 0.329,-0.752 0.5,-1.129"
       id="path15"
       style="fill:url(#i)" />
  </g>
</svg>
