<?xml version="1.0" encoding="UTF-8" standalone="no"?>
<svg
   width="62"
   height="62"
   version="1"
   id="svg6"
   sodipodi:docname="system-users.svg"
   inkscape:version="1.4 (e7c3feb100, 2024-10-09)"
   xmlns:inkscape="http://www.inkscape.org/namespaces/inkscape"
   xmlns:sodipodi="http://sodipodi.sourceforge.net/DTD/sodipodi-0.dtd"
   xmlns="http://www.w3.org/2000/svg"
   xmlns:svg="http://www.w3.org/2000/svg">
  <defs
     id="defs6" />
  <sodipodi:namedview
     id="namedview6"
     pagecolor="#ffffff"
     bordercolor="#000000"
     borderopacity="0.25"
     inkscape:showpageshadow="2"
     inkscape:pageopacity="0.0"
     inkscape:pagecheckerboard="0"
     inkscape:deskcolor="#d1d1d1"
     inkscape:zoom="11.75"
     inkscape:cx="32"
     inkscape:cy="32"
     inkscape:window-width="1920"
     inkscape:window-height="998"
     inkscape:window-x="0"
     inkscape:window-y="0"
     inkscape:window-maximized="1"
     inkscape:current-layer="svg6" />
  <g
     id="g6"
     transform="translate(-0.5,-1)">
    <ellipse
       style="opacity:0.2;stroke-width:0.982303"
       cx="31.499998"
       cy="32.491234"
       id="circle1"
       rx="27.499998"
       ry="27.508766" />
    <ellipse
       style="fill:#009587;stroke-width:0.982303"
       cx="31.499998"
       cy="31.508766"
       id="circle2"
       rx="27.499998"
       ry="27.508766" />
    <g
       style="opacity:0.2"
       transform="matrix(0.98214286,0,0,0.982456,0.07142853,1.052632)"
       id="g3">
      <path
         d="m 32,14 c -3.8668,0 -7,3.1346 -7,7 0,3.8654 3.1332,7 7,7 3.8668,0 7,-3.1346 7,-7 0,-3.8654 -3.1332,-7 -7,-7 z"
         id="path2" />
      <path
         d="m 32,33.000002 c -13.9986,0.0084 -14,8.861538 -14,8.861538 v 3.6 c 0,0 2.584598,5.53846 14,5.53846 11.415402,0 14,-5.53846 14,-5.53846 v -3.6 c 0,0 0,-8.867076 -13.9972,-8.861538 z"
         id="path3" />
    </g>
    <g
       id="g5"
       transform="matrix(0.98214286,0,0,0.982456,0.07142853,0.07017596)">
      <path
         style="fill:#ffffff"
         d="m 32,14 c -3.8668,0 -7,3.1346 -7,7 0,3.8654 3.1332,7 7,7 3.8668,0 7,-3.1346 7,-7 0,-3.8654 -3.1332,-7 -7,-7 z"
         id="path4" />
      <path
         style="fill:#ffffff"
         d="m 32,33.000002 c -13.9986,0.0084 -14,8.861538 -14,8.861538 v 3.6 c 0,0 2.584598,5.53846 14,5.53846 11.415402,0 14,-5.53846 14,-5.53846 v -3.6 c 0,0 0,-8.867076 -13.9972,-8.861538 z"
         id="path5" />
    </g>
    <path
       style="opacity:0.2;fill:#ffffff;stroke-width:0.982303"
       d="M 31.5,4 A 27.5,27.508768 0 0 0 4,31.508768 27.5,27.508768 0 0 0 4.0172646,31.992322 27.5,27.508768 0 0 1 31.5,4.982456 27.5,27.508768 0 0 1 58.975063,31.992322 27.5,27.508768 0 0 0 59,31.508768 27.5,27.508768 0 0 0 31.5,4 Z"
       id="path6" />
  </g>
</svg>
