<?xml version="1.0" encoding="UTF-8" standalone="no"?>
<svg
   width="62"
   height="62"
   version="1.1"
   id="svg10"
   sodipodi:docname="tanglet.svg"
   inkscape:version="1.4 (e7c3feb100, 2024-10-09)"
   xmlns:inkscape="http://www.inkscape.org/namespaces/inkscape"
   xmlns:sodipodi="http://sodipodi.sourceforge.net/DTD/sodipodi-0.dtd"
   xmlns="http://www.w3.org/2000/svg"
   xmlns:svg="http://www.w3.org/2000/svg">
  <defs
     id="defs10" />
  <sodipodi:namedview
     id="namedview10"
     pagecolor="#ffffff"
     bordercolor="#000000"
     borderopacity="0.25"
     inkscape:showpageshadow="2"
     inkscape:pageopacity="0.0"
     inkscape:pagecheckerboard="0"
     inkscape:deskcolor="#d1d1d1"
     inkscape:zoom="11.75"
     inkscape:cx="32"
     inkscape:cy="32"
     inkscape:window-width="1920"
     inkscape:window-height="998"
     inkscape:window-x="0"
     inkscape:window-y="0"
     inkscape:window-maximized="1"
     inkscape:current-layer="svg10" />
  <g
     id="g10"
     transform="matrix(0.98214211,0,0,0.98245614,-0.42854729,-0.92982455)">
    <path
       style="opacity:0.2"
       d="m 32.156227,5.000078 c -0.98089,0.01066 -1.924654,0.067284 -2.768442,0.192388 -3.115874,0.5232288 -6.194554,1.7142243 -8.85036,3.0599528 C 12.594297,12.342953 3.840001,22.584567 4.0021986,30.303987 l 0.01496,-0.0134 c 0.00506,0.271408 0.055652,0.592708 0.149556,0.960275 0.2528908,0.989882 0.8185684,2.3105 1.6484339,3.870966 1.6597306,3.120936 4.3744295,7.198156 7.7519605,11.491828 5.169972,6.572305 10.392824,11.747601 13.317082,13.394137 l 0.0034,0.0017 c 2.053772,1.349736 3.835744,0.992234 4.46174,0.797744 2.068884,-0.375024 6.674344,-3.361394 12.313401,-8.173144 8.125484,-6.933387 15.343495,-15.052969 16.216801,-18.228699 l 0.03158,0.05308 C 61.266039,21.628117 46.714732,10.985897 44.850164,9.615715 41.413736,6.7345339 36.986765,5.000078 32.156227,5.000078 Z"
       id="path1" />
    <path
       style="fill:#0060d6"
       d="m 32.156227,4.0000011 c -0.98089,0.01066 -1.924654,0.067284 -2.768442,0.192388 -3.115874,0.5232288 -6.194554,1.7142243 -8.85036,3.0599528 C 12.594297,11.342876 3.840001,21.584491 4.0021986,29.303911 l 0.01496,-0.0134 c 0.00506,0.271408 0.055652,0.592708 0.149556,0.960276 0.2528908,0.989882 0.8185684,2.310499 1.6484339,3.870965 1.6597306,3.120936 4.3744295,7.198156 7.7519605,11.491828 5.169972,6.572305 10.392824,11.747601 13.317082,13.394137 l 0.0034,0.0017 c 2.053772,1.349736 3.835744,0.992234 4.46174,0.797744 2.068884,-0.375024 6.674344,-3.361394 12.313401,-8.173143 8.125484,-6.933388 15.343495,-15.05297 16.216801,-18.2287 l 0.03158,0.05308 C 61.266039,20.628041 46.714732,9.9858204 44.850164,8.6156381 41.413736,5.734457 36.986765,4.0000011 32.156227,4.0000011 Z"
       id="path2" />
    <path
       style="opacity:0.15;fill:#ffffff"
       d="M 4.8888788,28.275783 A 19.791032,3.4527074 51.519796 0 0 13.568406,45.614454 19.791032,3.4527074 51.519796 1 0 19.68564,42.218362 19.791032,3.4527074 51.519796 0 0 4.8888788,28.275783 Z"
       id="path3" />
    <path
       style="opacity:0.15;fill:#ffffff"
       d="M 59.079861,32.128518 A 3.2867602,20.080261 47.18196 0 0 30.238347,58.638283 3.2867602,20.080261 47.18196 1 0 59.900233,33.328908 3.2867602,20.080261 47.18196 0 0 59.079861,32.128518 Z"
       id="path4" />
    <path
       style="opacity:0.15;fill:#ffffff"
       d="m 32.582921,4.0084833 a 19.999999,19.940632 0 0 0 -20.58258,19.9307857 19.999999,19.940632 0 1 0 39.999273,0 A 19.999999,19.940632 0 0 0 32.582921,4.0084833 Z"
       id="path5" />
    <g
       style="font-size:6.73962px;line-height:125%;font-family:Monospace;letter-spacing:0px;word-spacing:0px;opacity:0.2"
       transform="matrix(0.93118039,1.0620891,-1.0341807,0.95630941,-2.2073583,0.44291346)"
       id="g6">
      <path
         d="m 21.291758,-14.698858 h 16.301451 v 3.447472 H 31.728952 V 2.9886901 H 27.167863 V -11.251386 h -5.876105 z"
         id="path6" />
    </g>
    <g
       style="font-size:6.73962px;line-height:125%;font-family:Monospace;letter-spacing:0px;word-spacing:0px;fill:#ffffff"
       transform="matrix(0.93118039,1.0620891,-1.0341807,0.95630941,-2.2073583,-0.55708384)"
       id="g7">
      <path
         style="fill:#ffffff"
         d="m 21.291758,-14.698858 h 16.301451 v 3.447472 H 31.728952 V 2.9886901 H 27.167863 V -11.251386 h -5.876105 z"
         id="path7" />
    </g>
    <g
       style="font-size:2.85385px;line-height:125%;font-family:Monospace;letter-spacing:0px;word-spacing:0px;fill:#ffffff"
       transform="matrix(2.0464633,2.5367927,-0.07420004,0.86577168,-1.6000233,-1.5999982)"
       id="g8">
      <path
         style="fill:#ffffff"
         d="m 6.6472733,20.51031 h 1.9313615 v 6.029861 h 3.3911702 v 1.459808 H 6.6472733 Z"
         id="path8" />
    </g>
    <g
       style="font-size:2.20785px;line-height:125%;font-family:Monospace;letter-spacing:0px;word-spacing:0px;fill:#ffffff"
       transform="matrix(2.6906527,-2.4567729,-0.26157325,0.96728431,-1.6000233,-1.5999982)"
       id="g9">
      <path
         style="fill:#ffffff"
         d="m 32.484429,126.84921 q -0.558862,0.27167 -1.160415,0.4075 -0.601553,0.13584 -1.241916,0.13584 -1.447608,0 -2.293664,-0.80725 -0.846055,-0.81112 -0.846055,-2.19664 0,-1.40103 0.861579,-2.2044 0.861579,-0.80336 2.359641,-0.80336 0.578267,0 1.106081,0.10867 0.531695,0.10866 1.001295,0.32212 v 1.19922 q -0.485124,-0.27555 -0.966366,-0.41138 -0.477362,-0.13584 -0.958604,-0.13584 -0.892627,0 -1.377751,0.50065 -0.481242,0.49677 -0.481242,1.42432 0,0.9198 0.465719,1.42044 0.465718,0.50065 1.323416,0.50065 0.232859,0 0.43079,-0.0272 0.201811,-0.031 0.360932,-0.0931 v -1.12549 h -0.912032 v -1.00129 h 2.328592 z"
         id="path9" />
    </g>
    <path
       style="opacity:0.1;fill:#ffffff"
       d="m 32.15625,4 c -0.98089,0.01066 -1.925743,0.066302 -2.769531,0.1914062 -3.115874,0.5232289 -6.19185,1.7167716 -8.847657,3.0625 C 12.595934,11.344441 3.8417086,21.585267 4.0039062,29.304688 l 0.011719,-0.01563 c 4.71e-4,0.02535 0.01016,0.0614 0.013672,0.08984 C 4.5346986,21.785888 12.909286,12.183072 20.539062,8.2539062 23.194869,6.9081777 26.270845,5.7146351 29.386719,5.1914062 30.230507,5.0663023 31.17536,5.01066 32.15625,5 36.986788,5 41.415135,6.7360064 44.851562,9.6171875 46.606037,10.906467 59.549445,20.410185 59.945312,32.216797 60.283033,19.949987 46.655344,9.9426993 44.851562,8.6171875 41.415135,5.7360064 36.986788,4 32.15625,4 Z"
       id="path10" />
  </g>
</svg>
