<?xml version="1.0" encoding="UTF-8" standalone="no"?>
<svg
   width="62"
   height="62"
   version="1.1"
   id="svg5"
   sodipodi:docname="tauonmb.svg"
   inkscape:version="1.4 (unknown)"
   xmlns:inkscape="http://www.inkscape.org/namespaces/inkscape"
   xmlns:sodipodi="http://sodipodi.sourceforge.net/DTD/sodipodi-0.dtd"
   xmlns="http://www.w3.org/2000/svg"
   xmlns:svg="http://www.w3.org/2000/svg">
  <defs
     id="defs5" />
  <sodipodi:namedview
     id="namedview5"
     pagecolor="#ffffff"
     bordercolor="#000000"
     borderopacity="0.25"
     inkscape:showpageshadow="2"
     inkscape:pageopacity="0.0"
     inkscape:pagecheckerboard="0"
     inkscape:deskcolor="#d1d1d1"
     inkscape:zoom="11.6875"
     inkscape:cx="32"
     inkscape:cy="32.941176"
     inkscape:window-width="1920"
     inkscape:window-height="998"
     inkscape:window-x="0"
     inkscape:window-y="0"
     inkscape:window-maximized="1"
     inkscape:current-layer="svg5" />
  <rect
     style="opacity:0.2;stroke-width:0.9823"
     width="55"
     height="55.017544"
     x="3.5"
     y="3.9824562"
     rx="8.25"
     ry="8.2526312"
     id="rect1" />
  <rect
     style="fill:#2c3d54;stroke-width:0.9823;fill-opacity:1"
     width="55"
     height="55.017544"
     x="3.5"
     y="3"
     rx="8.25"
     ry="8.2526312"
     id="rect2" />
  <g
     id="g1"
     transform="translate(-2.9999962,-3.9999962)">
    <circle
       cx="33.999996"
       cy="34.999996"
       r="20"
       stroke-width="1.33334"
       style="paint-order:normal;fill:#8660cb;fill-opacity:1"
       id="circle1" />
    <path
       d="M 26.282908,18.449089 A 18.262131,18.262131 0 0 0 15.738095,34.998896 h 7.826438 a 10.435249,10.435249 0 0 1 6.03023,-9.446754 z m 18.152135,16.549807 a 10.435249,10.435249 0 0 1 -6.030234,9.449193 l 3.311965,7.102843 A 18.262131,18.262131 0 0 0 52.261588,34.998896 Z"
       stroke-width="1.30438"
       style="paint-order:normal;fill:#f0b6d3;fill-opacity:1"
       id="path1" />
    <circle
       cx="33.999996"
       cy="34.999996"
       r="6.6669292"
       fill="#313131"
       stroke-width="1.33334"
       id="circle2"
       style="fill:#222f40;fill-opacity:1" />
    <circle
       cx="33.999996"
       cy="34.999996"
       r="2.2223468"
       fill="#f9f9f9"
       stroke-width="2.22243"
       style="paint-order:normal"
       id="circle3" />
  </g>
  <path
     style="opacity:0.1;fill:#ffffff;stroke-width:0.9823"
     d="M 11.748466,3 C 7.1779651,3 3.4999999,6.6791384 3.4999999,11.251097 v 0.982456 c 0,-4.5719585 3.6779652,-8.2510968 8.2484661,-8.2510968 h 38.503068 c 4.5705,0 8.248466,3.6791383 8.248466,8.2510968 V 11.251097 C 58.5,6.6791384 54.822034,3 50.251534,3 Z"
     id="path4" />
</svg>
