<?xml version="1.0" encoding="UTF-8" standalone="no"?>
<svg
   width="62"
   height="62"
   version="1"
   id="svg4"
   sodipodi:docname="teamviewer.svg"
   inkscape:version="1.4 (e7c3feb100, 2024-10-09)"
   xmlns:inkscape="http://www.inkscape.org/namespaces/inkscape"
   xmlns:sodipodi="http://sodipodi.sourceforge.net/DTD/sodipodi-0.dtd"
   xmlns="http://www.w3.org/2000/svg"
   xmlns:svg="http://www.w3.org/2000/svg">
  <defs
     id="defs4" />
  <sodipodi:namedview
     id="namedview4"
     pagecolor="#ffffff"
     bordercolor="#000000"
     borderopacity="0.25"
     inkscape:showpageshadow="2"
     inkscape:pageopacity="0.0"
     inkscape:pagecheckerboard="0"
     inkscape:deskcolor="#d1d1d1"
     inkscape:zoom="11.6875"
     inkscape:cx="31.957219"
     inkscape:cy="32"
     inkscape:window-width="1920"
     inkscape:window-height="994"
     inkscape:window-x="0"
     inkscape:window-y="0"
     inkscape:window-maximized="1"
     inkscape:current-layer="svg4" />
  <g
     id="g4"
     transform="translate(-0.5,-1.0000005)">
    <rect
       style="opacity:0.2;stroke-width:0.982303"
       width="55"
       height="55.017544"
       x="4"
       y="4.9824572"
       rx="16.499996"
       ry="16.50526"
       id="rect1" />
    <rect
       style="fill:#4e7ad9;stroke-width:0.982303"
       width="55"
       height="55.017544"
       x="4"
       y="4"
       rx="16.499996"
       ry="16.50526"
       id="rect2" />
    <path
       style="opacity:0.2;stroke-width:0.982303"
       d="m 31.5,11.85965 c -11.390873,0 -20.625003,9.237074 -20.625003,20.63158 0,11.394503 9.23413,20.631579 20.625003,20.631579 11.390873,0 20.624999,-9.237076 20.624999,-20.631579 0,-11.394506 -9.234126,-20.63158 -20.624999,-20.63158 z m -7.857142,12.771929 v 3.929824 H 39.357144 V 24.631579 L 50.160715,32.49123 39.357144,40.350878 V 36.421053 H 23.642858 v 3.929825 L 12.839285,32.49123 Z"
       id="path2" />
    <path
       style="fill:#ffffff;stroke-width:0.982303"
       d="m 31.5,10.87719 c -11.390873,0 -20.625003,9.237076 -20.625003,20.631583 0,11.394506 9.23413,20.631578 20.625003,20.631578 11.390873,0 20.624999,-9.237072 20.624999,-20.631578 C 52.124999,20.114266 42.890873,10.87719 31.5,10.87719 Z m -7.857142,12.771934 v 3.929823 h 15.714286 v -3.929823 l 10.803571,7.859649 -10.803571,7.85965 V 35.438597 H 23.642858 v 3.929826 l -10.803573,-7.85965 z"
       id="path3" />
    <path
       style="opacity:0.2;fill:#ffffff;stroke-width:0.982303"
       d="M 20.500766,4 C 11.359768,4 4,11.362116 4,20.50603 v 0.982457 C 4,12.344572 11.359768,4.982456 20.500766,4.982456 H 42.499232 C 51.640232,4.982456 59,12.344572 59,21.488487 V 20.50603 C 59,11.362116 51.640232,4 42.499232,4 Z"
       id="path4" />
  </g>
</svg>
