<?xml version="1.0" encoding="UTF-8" standalone="no"?>
<svg
   width="62"
   height="62"
   version="1.1"
   id="svg10"
   sodipodi:docname="teams-for-linux.svg"
   inkscape:version="1.4 (e7c3feb100, 2024-10-09)"
   xmlns:inkscape="http://www.inkscape.org/namespaces/inkscape"
   xmlns:sodipodi="http://sodipodi.sourceforge.net/DTD/sodipodi-0.dtd"
   xmlns="http://www.w3.org/2000/svg"
   xmlns:svg="http://www.w3.org/2000/svg">
  <defs
     id="defs10" />
  <sodipodi:namedview
     id="namedview10"
     pagecolor="#ffffff"
     bordercolor="#000000"
     borderopacity="0.25"
     inkscape:showpageshadow="2"
     inkscape:pageopacity="0.0"
     inkscape:pagecheckerboard="0"
     inkscape:deskcolor="#d1d1d1"
     inkscape:zoom="11.6875"
     inkscape:cx="31.957219"
     inkscape:cy="32"
     inkscape:window-width="1920"
     inkscape:window-height="994"
     inkscape:window-x="0"
     inkscape:window-y="0"
     inkscape:window-maximized="1"
     inkscape:current-layer="svg10" />
  <g
     id="g10"
     transform="translate(-0.49999237,-1.0000076)">
    <path
       style="opacity:0.2;stroke-width:0.982611"
       d="m 50.663769,10.87719 a 6.3879282,6.385965 0 0 0 -6.387923,6.38597 6.3879282,6.385965 0 0 0 6.387923,6.38596 6.3879282,6.385965 0 0 0 6.387932,-6.38596 6.3879282,6.385965 0 0 0 -6.387932,-6.38597 z m -7.336135,15.7193 c -1.10834,0 -2.000065,0.89145 -2.000065,1.999456 v 0.667758 11.887339 1.151315 h 0.01729 a 9.3362024,9.333333 0 0 0 9.318925,8.855532 9.3362024,9.333333 0 0 0 9.313174,-8.855532 H 60 V 41.151043 29.263704 28.595946 C 60,27.48794 59.108266,26.59649 57.999929,26.59649 Z"
       id="path1" />
    <path
       style="opacity:0.2;stroke-width:0.982611"
       d="m 32.974122,4.982456 a 9.3362024,9.333333 0 0 0 -9.3362,9.333334 9.3362024,9.333333 0 0 0 9.3362,9.33333 9.3362024,9.333333 0 0 0 9.336209,-9.33333 9.3362024,9.333333 0 0 0 -9.336209,-9.333334 z M 21.96224,26.59649 c -1.794203,0 -3.238108,1.44347 -3.238108,3.237122 v 3.239035 11.006575 1.675168 0.268638 h 0.0098 A 14.249989,14.24561 0 0 0 32.974122,60 14.249989,14.24561 0 0 0 47.210686,46.023028 h 0.01347 V 45.75439 44.079222 33.072647 29.833612 c 0,-1.793652 -1.443914,-3.237122 -3.238116,-3.237122 z"
       id="path2" />
    <path
       style="fill:#5059c9;stroke-width:0.982611"
       d="m 43.328188,25.614316 c -1.108346,0 -2.000619,0.891999 -2.000619,2.000005 v 0.666661 11.88736 1.151037 h 0.367299 17.937801 0.367309 v -1.151037 -11.88736 -0.666661 c 0,-1.108006 -0.892283,-2.000005 -2.00062,-2.000005 z"
       id="path3" />
    <ellipse
       style="fill:#5059c9;stroke-width:0.982611"
       cx="50.66378"
       cy="40.842117"
       id="circle3"
       rx="9.3362055"
       ry="9.3333359" />
    <ellipse
       style="fill:#5059c9;stroke-width:0.982611"
       cx="50.66378"
       cy="16.280693"
       id="circle4"
       rx="6.3879275"
       ry="6.3859644" />
    <ellipse
       style="fill:#7b83eb;stroke-width:0.982611"
       cx="32.974125"
       cy="13.333336"
       id="circle5"
       rx="9.3362055"
       ry="9.3333359" />
    <path
       style="fill:#7b83eb;stroke-width:0.982611"
       d="m 21.962764,25.614121 c -1.794203,0 -3.23863,1.443993 -3.23863,3.237645 v 3.237634 11.007976 1.942582 h 0.657842 c 0.59002,0.783502 1.519874,1.295062 2.580788,1.295062 h 22.022719 c 1.060914,0 1.990769,-0.51156 2.58079,-1.295062 h 0.65785 V 43.097376 32.0894 28.851766 c 0,-1.793652 -1.444437,-3.237645 -3.23864,-3.237645 z"
       id="path5" />
    <path
       style="opacity:0.2;fill:#ffffff;stroke-width:0.982611"
       d="m 32.974122,4 a 9.3362024,9.333333 0 0 0 -9.3362,9.33333 9.3362024,9.333333 0 0 0 0.01923,0.406802 9.3362024,9.333333 0 0 1 9.317002,-8.757676 9.3362024,9.333333 0 0 1 9.317013,8.926532 9.3362024,9.333333 0 0 0 0.0192,-0.575658 A 9.3362024,9.333333 0 0 0 32.974122,4 Z M 21.96224,25.61404 c -1.794203,0 -3.238108,1.44346 -3.238108,3.237112 v 0.98246 c 0,-1.793652 1.443905,-3.237122 3.238108,-3.237122 h 22.023765 c 1.794203,0 3.238116,1.44347 3.238116,3.237122 v -0.98246 c 0,-1.793652 -1.443913,-3.237112 -3.238116,-3.237112 z"
       id="path6" />
    <ellipse
       style="fill:#7b83eb;stroke-width:0.982611"
       cx="32.974125"
       cy="44.771927"
       id="circle6"
       rx="14.249996"
       ry="14.245617" />
    <rect
       style="opacity:0.1;stroke-width:0.982611"
       width="28.499992"
       height="28.491234"
       x="3"
       y="18.736843"
       rx="1.9429132"
       ry="1.9423161"
       id="rect6" />
    <rect
       style="fill:#5059c9;stroke-width:0.982611"
       width="28.499992"
       height="28.491234"
       x="3"
       y="17.754391"
       rx="1.9429132"
       ry="1.9423161"
       id="rect7" />
    <path
       style="opacity:0.2;stroke-width:0.982611"
       d="m 9.8793073,24.63158 v 4.91228 h 4.9137867 v 12.77193 h 4.913791 V 29.54386 h 4.9138 v -4.91228 z"
       id="path7" />
    <rect
       style="fill:#ffffff;stroke-width:0.982611"
       width="14.741373"
       height="4.912281"
       x="9.8793097"
       y="23.649124"
       id="rect8" />
    <rect
       style="fill:#ffffff;stroke-width:0.982611"
       width="12.77193"
       height="4.9137912"
       x="28.561405"
       y="-19.706882"
       transform="rotate(90)"
       id="rect9" />
    <path
       style="opacity:0.1;fill:#ffffff;stroke-width:0.982611"
       d="M 4.9424825,17.75439 C 3.8659605,17.75439 3,18.620083 3,19.696272 v 0.98246 C 3,19.602533 3.8659605,18.73684 4.9424825,18.73684 H 29.5575 c 1.07653,0 1.942489,0.865693 1.942489,1.941892 v -0.98246 c 0,-1.076189 -0.865959,-1.941882 -1.942489,-1.941882 z"
       id="path9" />
    <path
       style="opacity:0.1;fill:#ffffff;stroke-width:0.982611"
       d="m 50.663769,9.894737 a 6.3879282,6.385965 0 0 0 -6.387923,6.385963 6.3879282,6.385965 0 0 0 0.02305,0.462443 6.3879282,6.385965 0 0 1 6.364888,-5.865953 6.3879282,6.385965 0 0 1 6.364898,5.923527 6.3879282,6.385965 0 0 0 0.02305,-0.520017 6.3879282,6.385965 0 0 0 -6.387937,-6.385963 z M 43.327634,25.61404 c -1.10834,0 -2.000065,0.89145 -2.000065,1.999446 v 0.667768 0.314692 c 0,-1.108006 0.891725,-1.999456 2.000065,-1.999456 h 14.672273 c 1.108337,0 2.000071,0.89145 2.000071,1.999456 v -0.314692 -0.667768 c 0,-1.107996 -0.891734,-1.999446 -2.000071,-1.999446 z"
       id="path10" />
  </g>
</svg>
