<?xml version="1.0" encoding="UTF-8" standalone="no"?>
<svg
   width="62"
   height="62"
   version="1"
   id="svg5"
   sodipodi:docname="telepathy-kde.svg"
   inkscape:version="1.4 (e7c3feb100, 2024-10-09)"
   xmlns:inkscape="http://www.inkscape.org/namespaces/inkscape"
   xmlns:sodipodi="http://sodipodi.sourceforge.net/DTD/sodipodi-0.dtd"
   xmlns:xlink="http://www.w3.org/1999/xlink"
   xmlns="http://www.w3.org/2000/svg"
   xmlns:svg="http://www.w3.org/2000/svg">
  <defs
     id="defs5">
    <linearGradient
       id="linearGradient9"
       inkscape:collect="always">
      <stop
         style="stop-color:#5f8dd3;stop-opacity:1"
         offset="0"
         id="stop5" />
      <stop
         style="stop-color:#5f8dd3;stop-opacity:1"
         offset="0.18421648"
         id="stop6" />
      <stop
         style="stop-color:#c4d0d6;stop-opacity:1;"
         offset="0.75996989"
         id="stop7" />
      <stop
         style="stop-color:#b7c6cd;stop-opacity:1;"
         offset="1"
         id="stop8" />
    </linearGradient>
    <linearGradient
       id="linearGradient1"
       inkscape:collect="always">
      <stop
         style="stop-color:#eff2f6;stop-opacity:1;"
         offset="0"
         id="stop1" />
      <stop
         style="stop-color:#e4e9ee;stop-opacity:1;"
         offset="0.18421648"
         id="stop4" />
      <stop
         style="stop-color:#c4d0d6;stop-opacity:1;"
         offset="0.75996989"
         id="stop3" />
      <stop
         style="stop-color:#b7c6cd;stop-opacity:1;"
         offset="1"
         id="stop2" />
    </linearGradient>
    <linearGradient
       id="paint378_linear_890_11"
       x1="797"
       y1="501"
       x2="757.04797"
       y2="459.04999"
       gradientUnits="userSpaceOnUse">
      <stop
         offset="0.255437"
         stop-color="#2E2E41"
         id="stop1498" />
      <stop
         offset="0.880102"
         stop-color="#566C80"
         id="stop1499" />
    </linearGradient>
    <linearGradient
       id="paint379_linear_890_11"
       x1="769.5"
       y1="476"
       x2="769.5"
       y2="470"
       gradientUnits="userSpaceOnUse">
      <stop
         offset="0.155999"
         stop-color="#71706E"
         id="stop1500" />
      <stop
         offset="0.796276"
         stop-color="#B9AA99"
         id="stop1501" />
    </linearGradient>
    <linearGradient
       id="paint380_linear_890_11"
       x1="768"
       y1="484"
       x2="768"
       y2="478"
       gradientUnits="userSpaceOnUse">
      <stop
         offset="0.155999"
         stop-color="#71706E"
         id="stop1502" />
      <stop
         offset="0.796276"
         stop-color="#B9AA99"
         id="stop1503" />
    </linearGradient>
    <linearGradient
       id="paint382_linear_890_11"
       x1="811"
       y1="517.49799"
       x2="770.52899"
       y2="475.526"
       gradientUnits="userSpaceOnUse">
      <stop
         offset="0.352596"
         stop-color="#089953"
         id="stop1506" />
      <stop
         offset="1"
         stop-color="#16D96F"
         id="stop1507" />
    </linearGradient>
    <linearGradient
       id="paint383_linear_890_11"
       x1="785.125"
       y1="487"
       x2="785.125"
       y2="491"
       gradientUnits="userSpaceOnUse">
      <stop
         stop-color="white"
         id="stop1508" />
      <stop
         offset="0.705"
         stop-color="#E6E6E6"
         id="stop1509" />
    </linearGradient>
    <linearGradient
       id="paint384_linear_890_11"
       x1="783.25"
       y1="495"
       x2="783.25"
       y2="499"
       gradientUnits="userSpaceOnUse">
      <stop
         stop-color="white"
         id="stop1510" />
      <stop
         offset="0.705"
         stop-color="#E6E6E6"
         id="stop1511" />
    </linearGradient>
    <linearGradient
       id="paint373_linear_890_11"
       x1="855"
       y1="461"
       x2="904.96899"
       y2="516.67401"
       gradientUnits="userSpaceOnUse"
       gradientTransform="translate(-852,-456)">
      <stop
         offset="0.313692"
         stop-color="#EFF2F6"
         id="stop1488" />
      <stop
         offset="0.785658"
         stop-color="#B7C6CD"
         id="stop1489" />
    </linearGradient>
    <linearGradient
       id="paint374_linear_890_11"
       x1="878"
       y1="511"
       x2="884"
       y2="517"
       gradientUnits="userSpaceOnUse"
       gradientTransform="translate(-852,-458)">
      <stop
         stop-color="#EFF2F6"
         id="stop1490" />
      <stop
         offset="0.58769"
         stop-color="#B7C6CD"
         id="stop1491" />
    </linearGradient>
    <linearGradient
       id="paint375_linear_890_11"
       x1="873"
       y1="487"
       x2="865"
       y2="479"
       gradientUnits="userSpaceOnUse"
       gradientTransform="translate(-852,-456)">
      <stop
         offset="0.166852"
         stop-color="#5200FF"
         id="stop1492" />
      <stop
         offset="0.775314"
         stop-color="#0085FF"
         id="stop1493" />
    </linearGradient>
    <linearGradient
       id="paint376_linear_890_11"
       x1="887"
       y1="487"
       x2="879"
       y2="479"
       gradientUnits="userSpaceOnUse"
       gradientTransform="translate(-852,-458)">
      <stop
         offset="0.166852"
         stop-color="#5200FF"
         id="stop1494" />
      <stop
         offset="0.775314"
         stop-color="#0085FF"
         id="stop1495" />
    </linearGradient>
    <linearGradient
       id="paint377_linear_890_11"
       x1="901"
       y1="487"
       x2="893"
       y2="479"
       gradientUnits="userSpaceOnUse"
       gradientTransform="translate(-852,-458)">
      <stop
         offset="0.166852"
         stop-color="#5200FF"
         id="stop1496" />
      <stop
         offset="0.775314"
         stop-color="#0085FF"
         id="stop1497" />
    </linearGradient>
    <linearGradient
       inkscape:collect="always"
       xlink:href="#linearGradient9"
       id="linearGradient2"
       x1="3"
       y1="5"
       x2="56.392471"
       y2="47.949703"
       gradientUnits="userSpaceOnUse"
       gradientTransform="translate(-5.0000001e-8,-2)" />
    <linearGradient
       inkscape:collect="always"
       xlink:href="#linearGradient1"
       id="linearGradient6"
       x1="26"
       y1="56"
       x2="32"
       y2="56"
       gradientUnits="userSpaceOnUse" />
    <linearGradient
       id="b-1-1"
       y1="515.79999"
       y2="509.79999"
       x2="0"
       gradientUnits="userSpaceOnUse"
       gradientTransform="matrix(3.6666654,0,0,3.6666647,-1423.0386,-1863.1724)">
      <stop
         stop-color="#c61423"
         id="stop1738-2-2" />
      <stop
         offset="1"
         stop-color="#dc2b41"
         id="stop1740-7-7" />
    </linearGradient>
    <linearGradient
       inkscape:collect="always"
       xlink:href="#c"
       id="linearGradient964"
       gradientUnits="userSpaceOnUse"
       gradientTransform="matrix(3.6666654,0,0,3.6666647,-1514.7051,-1841.1725)"
       x1="422.85001"
       y1="504.87"
       x2="428.78"
       y2="510.79999" />
    <linearGradient
       id="c"
       y1="503.79999"
       x1="388.57001"
       y2="533.79999"
       x2="418.57001"
       gradientUnits="userSpaceOnUse"
       gradientTransform="translate(-359.57,-505.8)">
      <stop
         stop-color="#292c2f"
         id="stop1743" />
      <stop
         offset="1"
         stop-opacity="0"
         id="stop1745" />
    </linearGradient>
    <linearGradient
       id="d-0-0"
       y1="9"
       y2="5"
       x2="0"
       gradientUnits="userSpaceOnUse"
       gradientTransform="matrix(3.6666654,0,0,3.6666647,-104.61589,-8.5736315)">
      <stop
         stop-color="#f7aeb4"
         id="stop1748-9-9" />
      <stop
         offset="1"
         stop-color="#f8d4d9"
         id="stop1750-3-3" />
    </linearGradient>
    <linearGradient
       inkscape:collect="always"
       xlink:href="#linearGradient1"
       id="linearGradient8"
       x1="38.384083"
       y1="17.093039"
       x2="53.050713"
       y2="17.093039"
       gradientUnits="userSpaceOnUse" />
  </defs>
  <sodipodi:namedview
     id="namedview5"
     pagecolor="#ffffff"
     bordercolor="#000000"
     borderopacity="0.25"
     inkscape:showpageshadow="2"
     inkscape:pageopacity="0.0"
     inkscape:pagecheckerboard="0"
     inkscape:deskcolor="#d1d1d1"
     inkscape:zoom="5.6568543"
     inkscape:cx="31.908193"
     inkscape:cy="54.800775"
     inkscape:window-width="1920"
     inkscape:window-height="994"
     inkscape:window-x="0"
     inkscape:window-y="0"
     inkscape:window-maximized="1"
     inkscape:current-layer="svg5" />
  <path
     d="M 9,3 C 5.686,3 3,5.686 3,9 v 32 c 0,3.314 2.686,6 6,6 h 24.185 l -1.096,3.501 c -0.504,1.609 1.222,3.028 2.805,2.306 L 47.618,47 H 53 c 3.314,0 6,-2.686 6,-6 V 9 C 59,5.686 56.314,3 53,3 Z"
     id="path363"
     style="fill:url(#linearGradient2)" />
  <path
     d="m 32,56 c 0,1.657 -1.343,3 -3,3 -1.657,0 -3,-1.343 -3,-3 0,-1.657 1.343,-3 3,-3 1.657,0 3,1.343 3,3 z"
     id="path364"
     style="fill:url(#linearGradient6)" />
  <circle
     cx="45.717556"
     cy="17.092915"
     id="ellipse1762-0-2"
     r="11"
     style="fill:#ff5555" />
  <path
     opacity="0.2"
     fill="url(#e)"
     fill-rule="evenodd"
     d="m 53.050713,17.09302 -3.666632,1.210022 -7.333353,2.456656 -1.28333,1.705007 5.60634,5.606339 a 10.999992,10.999991 0 0 0 9.861352,-7.791661 z"
     id="path1764-6-0"
     style="fill:url(#linearGradient964);stroke-width:3.66681" />
  <path
     d="m 45.717418,9.759703 c -1.015676,0 -1.833356,0.817679 -1.833356,1.833357 v 1.074296 l -0.758987,-0.758994 c -0.718656,-0.718667 -1.873658,-0.718667 -2.592329,0 -0.718674,0.718658 -0.718674,1.873658 0,2.592332 l 0.758992,0.75899 h -1.074333 c -1.01568,0 -1.833322,0.817678 -1.833322,1.833336 0,1.015663 0.817642,1.833342 1.833322,1.833342 h 1.074333 l -0.758992,0.758984 c -0.718674,0.71866 -0.718674,1.873656 0,2.592331 0.718671,0.718678 1.873673,0.718678 2.592329,0 l 0.758987,-0.758992 v 1.074369 c 0,1.015644 0.81768,1.833322 1.833356,1.833322 1.015647,0 1.833324,-0.817678 1.833324,-1.833322 v -1.074369 l 0.759009,0.758992 c 0.718662,0.718678 1.87367,0.718678 2.592328,0 0.71867,-0.718675 0.71867,-1.873671 0,-2.592331 L 50.14307,18.926362 h 1.074337 c 1.015678,0 1.833306,-0.817679 1.833306,-1.833342 0,-1.015658 -0.817628,-1.833336 -1.833306,-1.833336 H 50.14307 l 0.759009,-0.75899 c 0.71867,-0.718674 0.71867,-1.873674 0,-2.592332 -0.718658,-0.718667 -1.873666,-0.718667 -2.592328,0 l -0.759009,0.758994 V 11.59306 c 0,-1.015678 -0.817677,-1.833357 -1.833324,-1.833357"
     id="path1766-2-2"
     style="fill:url(#linearGradient8)" />
</svg>
