<?xml version="1.0" encoding="UTF-8" standalone="no"?>
<svg
   width="61"
   height="61"
   version="1.1"
   id="svg4"
   sodipodi:docname="tenacity.svg"
   inkscape:version="1.4 (e7c3feb100, 2024-10-09)"
   xmlns:inkscape="http://www.inkscape.org/namespaces/inkscape"
   xmlns:sodipodi="http://sodipodi.sourceforge.net/DTD/sodipodi-0.dtd"
   xmlns="http://www.w3.org/2000/svg"
   xmlns:svg="http://www.w3.org/2000/svg">
  <defs
     id="defs4" />
  <sodipodi:namedview
     id="namedview4"
     pagecolor="#ffffff"
     bordercolor="#000000"
     borderopacity="0.25"
     inkscape:showpageshadow="2"
     inkscape:pageopacity="0.0"
     inkscape:pagecheckerboard="0"
     inkscape:deskcolor="#d1d1d1"
     inkscape:zoom="11.71875"
     inkscape:cx="32"
     inkscape:cy="17.408"
     inkscape:window-width="1920"
     inkscape:window-height="996"
     inkscape:window-x="0"
     inkscape:window-y="0"
     inkscape:window-maximized="1"
     inkscape:current-layer="svg4" />
  <g
     id="g4"
     transform="matrix(0.98214286,0,0,0.98245614,-0.42857152,-0.92982455)">
    <rect
       style="opacity:0.2"
       width="56"
       height="56"
       x="4"
       y="5"
       rx="7"
       ry="7"
       id="rect1" />
    <rect
       style="fill:#d9282b"
       width="56"
       height="56"
       x="4"
       y="4"
       rx="7"
       ry="7"
       id="rect2" />
    <path
       style="opacity:0.2"
       d="M 11.42739,9 C 9.4983398,9 8,10.49834 8,12.42739 V 29 H 18 V 19 h 7 v 7 h 7 V 13 h 7 v 10 h 7 v 6 H 56 V 12.42739 C 56,10.49834 54.50166,9 52.57261,9 Z M 8,36 V 53.57261 C 8,55.501658 9.4983398,57 11.42739,57 H 52.57261 C 54.50166,57 56,55.501663 56,53.57261 V 36 H 50.857537 46 v 7 H 39 V 53 H 32 V 40 h -7 v 7 H 18 V 36 Z"
       id="path2" />
    <path
       style="fill:#ffffff"
       d="M 11.42739,8 C 9.4983398,8 8,9.4983398 8,11.42739 V 28 H 18 V 18 h 7 v 7 h 7 V 12 h 7 v 10 h 7 v 6 H 56 V 11.42739 C 56,9.4983398 54.50166,8 52.57261,8 Z M 8,35 V 52.57261 C 8,54.501658 9.4983398,56 11.42739,56 H 52.57261 C 54.50166,56 56,54.501663 56,52.57261 V 35 H 50.857537 46 v 7 H 39 V 52 H 32 V 39 h -7 v 7 H 18 V 35 Z"
       id="path3" />
    <path
       style="opacity:0.2;fill:#ffffff"
       d="M 11,4 C 7.122,4 4,7.122 4,11 v 1 C 4,8.122 7.122,5 11,5 h 42 c 3.878,0 7,3.122 7,7 V 11 C 60,7.122 56.878,4 53,4 Z"
       id="path4" />
  </g>
</svg>
