<?xml version="1.0" encoding="UTF-8" standalone="no"?>
<!-- Created with Inkscape (http://www.inkscape.org/) -->

<svg
   width="62"
   height="62"
   viewBox="0 0 62 62"
   version="1.1"
   id="svg1"
   inkscape:version="1.4 (e7c3feb100, 2024-10-09)"
   sodipodi:docname="terminator-commands.svg"
   xmlns:inkscape="http://www.inkscape.org/namespaces/inkscape"
   xmlns:sodipodi="http://sodipodi.sourceforge.net/DTD/sodipodi-0.dtd"
   xmlns:xlink="http://www.w3.org/1999/xlink"
   xmlns="http://www.w3.org/2000/svg"
   xmlns:svg="http://www.w3.org/2000/svg">
  <sodipodi:namedview
     id="namedview1"
     pagecolor="#ffffff"
     bordercolor="#000000"
     borderopacity="0.25"
     inkscape:showpageshadow="2"
     inkscape:pageopacity="0.0"
     inkscape:pagecheckerboard="0"
     inkscape:deskcolor="#d1d1d1"
     inkscape:document-units="px"
     inkscape:zoom="10.74725"
     inkscape:cx="29.914629"
     inkscape:cy="24.378329"
     inkscape:window-width="1920"
     inkscape:window-height="994"
     inkscape:window-x="0"
     inkscape:window-y="0"
     inkscape:window-maximized="1"
     inkscape:current-layer="layer1" />
  <defs
     id="defs1">
    <linearGradient
       id="linearGradient1"
       inkscape:collect="always">
      <stop
         style="stop-color:#374248;stop-opacity:1;"
         offset="0"
         id="stop1" />
      <stop
         style="stop-color:#428eff;stop-opacity:1;"
         offset="1"
         id="stop2" />
    </linearGradient>
    <radialGradient
       id="paint664_radial_890_11"
       cx="0"
       cy="0"
       r="1"
       gradientUnits="userSpaceOnUse"
       gradientTransform="matrix(-16.000099,-9.999913,9.999913,-16.000099,583,171)">
      <stop
         offset="0.42141"
         stop-color="#B7C6CD"
         id="stop2071" />
      <stop
         offset="1"
         stop-color="#EFF2F6"
         id="stop2072" />
    </radialGradient>
    <linearGradient
       id="paint665_linear_890_11"
       x1="605"
       y1="180"
       x2="601.466"
       y2="162.72301"
       gradientUnits="userSpaceOnUse">
      <stop
         stop-color="#5200FF"
         id="stop2073" />
      <stop
         offset="1"
         stop-color="#0085FF"
         id="stop2074" />
    </linearGradient>
    <linearGradient
       id="paint666_linear_890_11"
       x1="567"
       y1="181"
       x2="562.11798"
       y2="174.183"
       gradientUnits="userSpaceOnUse">
      <stop
         stop-color="#5200FF"
         id="stop2075" />
      <stop
         offset="0.670391"
         stop-color="#0085FF"
         id="stop2076" />
    </linearGradient>
    <linearGradient
       id="paint667_linear_890_11"
       x1="605"
       y1="180"
       x2="597.32001"
       y2="174.24001"
       gradientUnits="userSpaceOnUse">
      <stop
         stop-color="#5200FF"
         id="stop2077" />
      <stop
         offset="1"
         stop-color="#0085FF"
         id="stop2078" />
    </linearGradient>
    <linearGradient
       id="paint668_linear_890_11"
       x1="567"
       y1="180"
       x2="561.23999"
       y2="172.32001"
       gradientUnits="userSpaceOnUse">
      <stop
         stop-color="#5200FF"
         id="stop2079" />
      <stop
         offset="1"
         stop-color="#0085FF"
         id="stop2080" />
    </linearGradient>
    <linearGradient
       id="paint669_linear_890_11"
       x1="607"
       y1="179"
       x2="602.50598"
       y2="171.80901"
       gradientUnits="userSpaceOnUse">
      <stop
         stop-color="#5200FF"
         id="stop2081" />
      <stop
         offset="1"
         stop-color="#0085FF"
         id="stop2082" />
    </linearGradient>
    <linearGradient
       id="paint670_linear_890_11"
       x1="607"
       y1="217"
       x2="568.82599"
       y2="170.01601"
       gradientUnits="userSpaceOnUse">
      <stop
         stop-color="#5200FF"
         id="stop2083" />
      <stop
         offset="1"
         stop-color="#0085FF"
         id="stop2084" />
    </linearGradient>
    <radialGradient
       id="paint671_radial_890_11"
       cx="0"
       cy="0"
       r="1"
       gradientUnits="userSpaceOnUse"
       gradientTransform="matrix(0,20,-16,0,583,187)">
      <stop
         offset="0.869716"
         stop-color="#EFF2F6"
         id="stop2085" />
      <stop
         offset="1"
         stop-color="#B7C6CD"
         id="stop2086" />
    </radialGradient>
    <linearGradient
       id="paint65_linear_890_11"
       x1="82.999992"
       y1="975"
       x2="82.999992"
       y2="1017"
       gradientUnits="userSpaceOnUse"
       gradientTransform="matrix(1.3181819,0,0,1.3333333,-78.409088,-1297)">
      <stop
         stop-color="#EFF2F6"
         id="stop872"
         offset="0"
         style="stop-color:#428eff;stop-opacity:1;" />
      <stop
         offset="1"
         stop-color="#B7C6CD"
         id="stop873"
         style="stop-color:#383c48;stop-opacity:1;" />
    </linearGradient>
    <linearGradient
       inkscape:collect="always"
       xlink:href="#linearGradient1"
       id="linearGradient2"
       x1="33.636002"
       y1="59"
       x2="33.853775"
       y2="3"
       gradientUnits="userSpaceOnUse" />
  </defs>
  <g
     inkscape:label="Layer 1"
     inkscape:groupmode="layer"
     id="layer1">
    <path
       d="M 2.0000002,13.666667 C 2.0000002,7.776 6.7213323,3 12.545454,3 H 49.454548 C 55.278275,3 60,7.776 60,13.666667 V 48.333333 C 60.000003,54.226667 55.278275,59 49.454548,59 H 12.545454 C 6.7213323,59 2.0000002,54.226667 2.0000002,48.333333 Z"
       id="path65"
       style="fill:url(#linearGradient2)" />
    <path
       d="m 27.960052,33.915277 c 0.0016,0.470636 -0.188067,0.922334 -0.525112,1.254803 L 13.156223,49.289742 C 10.194631,52.193491 5.7773102,47.825356 8.7138349,44.896782 L 19.820025,33.915277 8.7138349,22.933693 c -1.223399,-1.21448 -1.223399,-3.178515 0,-4.392914 v 0 c 1.2267094,-1.213196 3.2156991,-1.213196 4.4423881,0 L 27.43494,32.660336 c 0.336868,0.332597 0.525905,0.784194 0.525112,1.254941 z m -1.794087,0 z"
       id="path4-3-9-2-3-4-0"
       style="color:#d6dbf1;fill:#e0e5eb;fill-opacity:1;stroke-width:0.892437"
       sodipodi:nodetypes="ccccccsscccccccccccc"
       class="ColorScheme-Text" />
    <path
       d="m 31.667572,45.700987 h 19.372362 c 4.943351,0.01897 4.943351,5.910997 0,5.929896 H 31.667572 c -4.943376,-0.01901 -4.943376,-5.910984 0,-5.929896 z m 19.372362,1.185968 z"
       id="path8-6-7-36-2-9-3-6-5-3"
       style="color:#d6dbf1;fill:#e0e5eb;fill-opacity:1;stroke-width:0.664698"
       sodipodi:nodetypes="cccccccccc"
       class="ColorScheme-Text" />
    <path
       d="m 45.693473,21.29651 3.255,5.09e-4 c 1.797689,2.8e-4 3.2552,-1.456793 3.255532,-3.254494 1.99e-4,-1.79766 -1.456799,-3.255214 -3.254603,-3.255504 -1.797601,-2.8e-4 -3.25518,1.456791 -3.25539,3.254492 l -5.39e-4,3.255 -8.679488,-2.3e-5 -5.07e-4,-3.25496 c -2.79e-4,-1.797713 -1.457828,-3.254786 -3.255509,-3.254506 -1.797695,2.8e-4 -3.254766,1.457825 -3.254486,3.255506 2.8e-4,1.797658 1.457844,3.254782 3.255504,3.254492 l 3.254998,-5.32e-4 -5.07e-4,8.679992 h 8.679995 z"
       id="path1"
       style="fill:#d3dae3;fill-opacity:1;stroke-width:1.085" />
    <path
       d="m 45.693473,29.97647 3.255,5.54e-4 c 1.797689,-3.37e-4 3.2552,1.456818 3.255532,3.254446 1.99e-4,1.797745 -1.456799,3.255217 -3.254603,3.255551 -1.797601,2.17e-4 -3.25518,-1.456838 -3.25539,-3.254466 z"
       id="path2"
       style="fill:#d3dae3;fill-opacity:1;stroke-width:1.085" />
    <path
       d="m 33.758987,29.977024 3.254998,5.31e-4 -5.07e-4,3.255 c -2.79e-4,1.797628 -1.457828,3.25468 -3.255509,3.254463 -1.797695,-3.31e-4 -3.254766,-1.457806 -3.254486,-3.255548 2.8e-4,-1.797628 1.457844,-3.254783 3.255504,-3.254446 z"
       id="path3-3"
       style="fill:#d3dae3;fill-opacity:1;stroke-width:1.085" />
  </g>
</svg>
