<?xml version="1.0" encoding="UTF-8" standalone="no"?>
<!-- Created with Inkscape (http://www.inkscape.org/) -->

<svg
   width="62"
   height="62"
   viewBox="0 0 62 62"
   version="1.1"
   id="svg1"
   inkscape:version="1.4 (e7c3feb100, 2024-10-09)"
   sodipodi:docname="terminator-preferences.svg"
   xmlns:inkscape="http://www.inkscape.org/namespaces/inkscape"
   xmlns:sodipodi="http://sodipodi.sourceforge.net/DTD/sodipodi-0.dtd"
   xmlns:xlink="http://www.w3.org/1999/xlink"
   xmlns="http://www.w3.org/2000/svg"
   xmlns:svg="http://www.w3.org/2000/svg">
  <sodipodi:namedview
     id="namedview1"
     pagecolor="#ffffff"
     bordercolor="#000000"
     borderopacity="0.25"
     inkscape:showpageshadow="2"
     inkscape:pageopacity="0.0"
     inkscape:pagecheckerboard="0"
     inkscape:deskcolor="#d1d1d1"
     inkscape:document-units="px"
     inkscape:zoom="10.74725"
     inkscape:cx="29.914629"
     inkscape:cy="31.822094"
     inkscape:window-width="1920"
     inkscape:window-height="994"
     inkscape:window-x="0"
     inkscape:window-y="0"
     inkscape:window-maximized="1"
     inkscape:current-layer="layer1" />
  <defs
     id="defs1">
    <linearGradient
       id="linearGradient1"
       inkscape:collect="always">
      <stop
         style="stop-color:#374248;stop-opacity:1;"
         offset="0"
         id="stop1" />
      <stop
         style="stop-color:#428eff;stop-opacity:1;"
         offset="1"
         id="stop2" />
    </linearGradient>
    <radialGradient
       id="paint664_radial_890_11"
       cx="0"
       cy="0"
       r="1"
       gradientUnits="userSpaceOnUse"
       gradientTransform="matrix(-16.000099,-9.999913,9.999913,-16.000099,583,171)">
      <stop
         offset="0.42141"
         stop-color="#B7C6CD"
         id="stop2071" />
      <stop
         offset="1"
         stop-color="#EFF2F6"
         id="stop2072" />
    </radialGradient>
    <linearGradient
       id="paint665_linear_890_11"
       x1="605"
       y1="180"
       x2="601.466"
       y2="162.72301"
       gradientUnits="userSpaceOnUse">
      <stop
         stop-color="#5200FF"
         id="stop2073" />
      <stop
         offset="1"
         stop-color="#0085FF"
         id="stop2074" />
    </linearGradient>
    <linearGradient
       id="paint666_linear_890_11"
       x1="567"
       y1="181"
       x2="562.11798"
       y2="174.183"
       gradientUnits="userSpaceOnUse">
      <stop
         stop-color="#5200FF"
         id="stop2075" />
      <stop
         offset="0.670391"
         stop-color="#0085FF"
         id="stop2076" />
    </linearGradient>
    <linearGradient
       id="paint667_linear_890_11"
       x1="605"
       y1="180"
       x2="597.32001"
       y2="174.24001"
       gradientUnits="userSpaceOnUse">
      <stop
         stop-color="#5200FF"
         id="stop2077" />
      <stop
         offset="1"
         stop-color="#0085FF"
         id="stop2078" />
    </linearGradient>
    <linearGradient
       id="paint668_linear_890_11"
       x1="567"
       y1="180"
       x2="561.23999"
       y2="172.32001"
       gradientUnits="userSpaceOnUse">
      <stop
         stop-color="#5200FF"
         id="stop2079" />
      <stop
         offset="1"
         stop-color="#0085FF"
         id="stop2080" />
    </linearGradient>
    <linearGradient
       id="paint669_linear_890_11"
       x1="607"
       y1="179"
       x2="602.50598"
       y2="171.80901"
       gradientUnits="userSpaceOnUse">
      <stop
         stop-color="#5200FF"
         id="stop2081" />
      <stop
         offset="1"
         stop-color="#0085FF"
         id="stop2082" />
    </linearGradient>
    <linearGradient
       id="paint670_linear_890_11"
       x1="607"
       y1="217"
       x2="568.82599"
       y2="170.01601"
       gradientUnits="userSpaceOnUse">
      <stop
         stop-color="#5200FF"
         id="stop2083" />
      <stop
         offset="1"
         stop-color="#0085FF"
         id="stop2084" />
    </linearGradient>
    <radialGradient
       id="paint671_radial_890_11"
       cx="0"
       cy="0"
       r="1"
       gradientUnits="userSpaceOnUse"
       gradientTransform="matrix(0,20,-16,0,583,187)">
      <stop
         offset="0.869716"
         stop-color="#EFF2F6"
         id="stop2085" />
      <stop
         offset="1"
         stop-color="#B7C6CD"
         id="stop2086" />
    </radialGradient>
    <linearGradient
       id="paint65_linear_890_11"
       x1="82.999992"
       y1="975"
       x2="82.999992"
       y2="1017"
       gradientUnits="userSpaceOnUse"
       gradientTransform="matrix(1.3181819,0,0,1.3333333,-78.409088,-1297)">
      <stop
         stop-color="#EFF2F6"
         id="stop872"
         offset="0"
         style="stop-color:#428eff;stop-opacity:1;" />
      <stop
         offset="1"
         stop-color="#B7C6CD"
         id="stop873"
         style="stop-color:#383c48;stop-opacity:1;" />
    </linearGradient>
    <linearGradient
       inkscape:collect="always"
       xlink:href="#linearGradient1"
       id="linearGradient2"
       x1="33.636002"
       y1="59"
       x2="33.853775"
       y2="3"
       gradientUnits="userSpaceOnUse" />
  </defs>
  <g
     inkscape:label="Layer 1"
     inkscape:groupmode="layer"
     id="layer1">
    <path
       d="M 2.0000002,13.666667 C 2.0000002,7.776 6.7213323,3 12.545454,3 H 49.454548 C 55.278275,3 60,7.776 60,13.666667 V 48.333333 C 60.000003,54.226667 55.278275,59 49.454548,59 H 12.545454 C 6.7213323,59 2.0000002,54.226667 2.0000002,48.333333 Z"
       id="path65"
       style="fill:url(#linearGradient2)" />
    <path
       d="m 27.960052,33.915277 c 0.0016,0.470636 -0.188067,0.922334 -0.525112,1.254803 L 13.156223,49.289742 C 10.194631,52.193491 5.7773102,47.825356 8.7138349,44.896782 L 19.820025,33.915277 8.7138349,22.933693 c -1.223399,-1.21448 -1.223399,-3.178515 0,-4.392914 v 0 c 1.2267094,-1.213196 3.2156991,-1.213196 4.4423881,0 L 27.43494,32.660336 c 0.336868,0.332597 0.525905,0.784194 0.525112,1.254941 z m -1.794087,0 z"
       id="path4-3-9-2-3-4-0"
       style="color:#d6dbf1;fill:#e0e5eb;fill-opacity:1;stroke-width:0.892437"
       sodipodi:nodetypes="ccccccsscccccccccccc"
       class="ColorScheme-Text" />
    <path
       d="m 31.667572,45.700987 h 19.372362 c 4.943351,0.01897 4.943351,5.910997 0,5.929896 H 31.667572 c -4.943376,-0.01901 -4.943376,-5.910984 0,-5.929896 z m 19.372362,1.185968 z"
       id="path8-6-7-36-2-9-3-6-5-3"
       style="color:#d6dbf1;fill:#e0e5eb;fill-opacity:1;stroke-width:0.664698"
       sodipodi:nodetypes="cccccccccc"
       class="ColorScheme-Text" />
    <path
       fill-rule="evenodd"
       clip-rule="evenodd"
       d="M 43.723073,14.185184 C 43.313361,14.02 42.793799,14.02 41.754936,14.02 c -1.038906,0 -1.558359,0 -1.968063,0.16527 -0.546336,0.220253 -0.980384,0.642705 -1.206672,1.174409 -0.103286,0.242686 -0.143847,0.525006 -0.159694,0.93676 -0.02312,0.605108 -0.342253,1.165186 -0.880893,1.467941 -0.538822,0.302718 -1.196623,0.291493 -1.74665,0.008 -0.374292,-0.192415 -0.645687,-0.299462 -0.913334,-0.333836 -0.586278,-0.07518 -1.179216,0.07958 -1.64837,0.429844 -0.351841,0.262943 -0.61159,0.700596 -1.131046,1.576226 -0.519453,0.875631 -0.77915,1.313468 -0.837013,1.741393 -0.07708,0.57059 0.08151,1.147626 0.441658,1.604279 0.16449,0.208323 0.395257,0.383543 0.753652,0.602712 0.526871,0.322244 0.86592,0.871159 0.86588,1.476684 -3.7e-5,0.605549 -0.338929,1.154343 -0.86588,1.476471 -0.358474,0.219169 -0.589425,0.394506 -0.753742,0.602943 -0.359973,0.456567 -0.518875,1.033574 -0.441686,1.604164 0.05783,0.427923 0.317544,0.865832 0.837033,1.741428 0.519459,0.875594 0.779164,1.3135 1.131055,1.576193 0.469149,0.350454 1.062052,0.504958 1.648336,0.429877 0.26777,-0.03423 0.539026,-0.141421 0.91328,-0.333834 0.550106,-0.282817 1.207922,-0.294381 1.746789,0.008 0.538858,0.302713 0.857699,0.862896 0.880945,1.468109 0.01593,0.41165 0.05637,0.693968 0.159704,0.936686 0.226443,0.53165 0.660331,0.954148 1.206693,1.174404 0.409659,0.165925 0.929112,0.165925 1.968018,0.165925 1.038863,0 1.558425,0 1.968137,-0.165276 0.546326,-0.220254 0.980361,-0.642758 1.206559,-1.174408 0.103382,-0.24268 0.14383,-0.525044 0.159727,-0.936788 0.02321,-0.605122 0.341958,-1.1652 0.880808,-1.467996 0.53889,-0.302716 1.196669,-0.291517 1.74685,-0.008 0.374235,0.192403 0.645545,0.299458 0.913192,0.333805 0.586271,0.07521 1.179205,-0.0796 1.648317,-0.429755 0.351846,-0.262938 0.611635,-0.700597 1.131066,-1.576291 0.519427,-0.875593 0.779137,-1.313403 0.837095,-1.741331 0.07711,-0.570586 -0.0822,-1.147712 -0.441659,-1.60428 -0.164452,-0.208319 -0.395316,-0.383657 -0.753792,-0.602826 -0.526768,-0.322244 -0.865777,-0.871036 -0.865777,-1.476565 0,-0.605554 0.338962,-1.154221 0.865777,-1.476374 0.358476,-0.219169 0.589464,-0.394385 0.753865,-0.602923 0.359978,-0.456533 0.518822,-1.033613 0.441736,-1.604214 -0.05768,-0.427959 -0.317547,-0.865768 -0.837125,-1.741403 -0.519477,-0.875617 -0.779117,-1.31342 -1.131085,-1.576207 -0.469113,-0.350454 -1.062022,-0.504998 -1.648316,-0.429834 -0.267749,0.03423 -0.539059,0.141398 -0.913216,0.333816 -0.550146,0.282813 -1.208006,0.294401 -1.746811,-0.008 -0.538838,-0.302715 -0.857638,-0.862904 -0.88105,-1.468045 -0.0155,-0.411721 -0.05599,-0.693965 -0.159694,-0.936678 -0.226366,-0.531737 -0.660239,-0.954168 -1.206593,-1.174421 z m -1.968137,13.939831 c 1.847128,0 3.3445,-1.457279 3.3445,-3.255006 0,-1.797747 -1.497372,-3.255002 -3.3445,-3.255002 -1.847126,0 -3.344459,1.457255 -3.344459,3.255002 0,1.797727 1.497333,3.255006 3.344459,3.255006 z"
       id="path1"
       style="fill:#d3dae3;fill-opacity:1;stroke-width:0.678125" />
  </g>
</svg>
