<?xml version="1.0" encoding="UTF-8" standalone="no"?>
<svg
   width="64"
   height="64"
   version="1"
   id="svg6"
   sodipodi:docname="texmaker.svg"
   inkscape:version="1.4 (e7c3feb100, 2024-10-09)"
   xmlns:inkscape="http://www.inkscape.org/namespaces/inkscape"
   xmlns:sodipodi="http://sodipodi.sourceforge.net/DTD/sodipodi-0.dtd"
   xmlns:xlink="http://www.w3.org/1999/xlink"
   xmlns="http://www.w3.org/2000/svg"
   xmlns:svg="http://www.w3.org/2000/svg">
  <defs
     id="defs6">
    <linearGradient
       id="linearGradient6"
       inkscape:collect="always">
      <stop
         style="stop-color:#3cb1c3;stop-opacity:1"
         offset="0"
         id="stop6" />
      <stop
         style="stop-color:#7e36f4;stop-opacity:1"
         offset="1"
         id="stop7" />
    </linearGradient>
    <linearGradient
       inkscape:collect="always"
       xlink:href="#linearGradient6"
       id="linearGradient7"
       x1="33"
       y1="50"
       x2="33.426136"
       y2="13"
       gradientUnits="userSpaceOnUse" />
  </defs>
  <sodipodi:namedview
     id="namedview6"
     pagecolor="#ffffff"
     bordercolor="#000000"
     borderopacity="0.25"
     inkscape:showpageshadow="2"
     inkscape:pageopacity="0.0"
     inkscape:pagecheckerboard="0"
     inkscape:deskcolor="#d1d1d1"
     inkscape:zoom="11.75"
     inkscape:cx="32"
     inkscape:cy="32.085106"
     inkscape:window-width="1920"
     inkscape:window-height="998"
     inkscape:window-x="0"
     inkscape:window-y="0"
     inkscape:window-maximized="1"
     inkscape:current-layer="svg6" />
  <path
     style="opacity:0.2"
     d="m 9,14 a 5.0005,5.0005 0 0 0 -5,5 v 5 a 5.0005,5.0005 0 0 0 4,4.894531 V 40 a 5.0005,5.0005 0 0 0 5,5 h 6 a 5.0005,5.0005 0 0 0 2,-0.419922 V 46 a 5.0005,5.0005 0 0 0 5,5 h 14 a 5.0005,5.0005 0 0 0 5,-5 v -1 h 1.667969 A 5.0005,5.0005 0 0 0 49.003906,44.417969 5.0005,5.0005 0 0 0 51.332031,45 H 56 a 5.0005,5.0005 0 0 0 4.652344,-6.833984 l -3.449219,-8.744141 3.4375,-8.558594 A 5.0005,5.0005 0 0 0 56,14 H 51.332031 A 5.0005,5.0005 0 0 0 48.996094,14.582031 5.0005,5.0005 0 0 0 46.667969,14 H 42 a 5.0005,5.0005 0 0 0 -4.894531,6 H 28 v -1 a 5.0005,5.0005 0 0 0 -5,-5 z"
     id="path1" />
  <path
     style="fill:url(#linearGradient7)"
     d="m 9,13 a 5.0005,5.0005 0 0 0 -5,5 v 5 a 5.0005,5.0005 0 0 0 4,4.894531 V 39 a 5.0005,5.0005 0 0 0 5,5 h 6 a 5.0005,5.0005 0 0 0 2,-0.419922 V 45 a 5.0005,5.0005 0 0 0 5,5 h 14 a 5.0005,5.0005 0 0 0 5,-5 v -1 h 1.667969 A 5.0005,5.0005 0 0 0 49.003906,43.417969 5.0005,5.0005 0 0 0 51.332031,44 H 56 a 5.0005,5.0005 0 0 0 4.652344,-6.833984 l -3.449219,-8.744141 3.4375,-8.558594 A 5.0005,5.0005 0 0 0 56,13 H 51.332031 A 5.0005,5.0005 0 0 0 48.996094,13.582031 5.0005,5.0005 0 0 0 46.667969,13 H 42 a 5.0005,5.0005 0 0 0 -4.894531,6 H 28 v -1 a 5.0005,5.0005 0 0 0 -5,-5 z"
     id="path2" />
  <path
     style="opacity:0.2"
     d="m 9,19 v 5 h 4 v 16 h 6 V 24 h 4 V 19 Z M 42,19 46.177734,29.404297 42,40 h 4.667969 L 49,34.75 51.332031,40 H 56 L 51.822266,29.404297 56,19 H 51.332031 L 49,24.25 46.667969,19 Z m -16,6 v 21 h 14 v -5 h -9 v -3 h 9 v -5 h -9 v -3 h 9 v -5 z"
     id="path3" />
  <path
     style="fill:#d7eff3;fill-opacity:1"
     d="m 9,18 v 5 h 4 v 16 h 6 V 23 h 4 V 18 Z M 42,18 46.177734,28.404297 42,39 h 4.667969 L 49,33.75 51.332031,39 H 56 L 51.822266,28.404297 56,18 H 51.332031 L 49,23.25 46.667969,18 Z m -16,6 v 21 h 14 v -5 h -9 v -3 h 9 v -5 h -9 v -3 h 9 v -5 z"
     id="path4" />
  <path
     style="opacity:0.1;fill:#ffffff"
     d="M 9 13 A 5.0005 5.0005 0 0 0 4 18 L 4 19 A 5.0005 5.0005 0 0 1 9 14 L 23 14 A 5.0005 5.0005 0 0 1 28 19 L 28 18 A 5.0005 5.0005 0 0 0 23 13 L 9 13 z M 28 19 L 28 20 L 37.105469 20 A 5.0005 5.0005 0 0 1 37.011719 19 L 28 19 z M 42 13 A 5.0005 5.0005 0 0 0 37.035156 18.501953 A 5.0005 5.0005 0 0 1 42 14 L 46.667969 14 A 5.0005 5.0005 0 0 1 48.996094 14.582031 A 5.0005 5.0005 0 0 1 51.332031 14 L 56 14 A 5.0005 5.0005 0 0 1 60.970703 18.503906 A 5.0005 5.0005 0 0 0 56 13 L 51.332031 13 A 5.0005 5.0005 0 0 0 48.996094 13.582031 A 5.0005 5.0005 0 0 0 46.667969 13 L 42 13 z M 57.402344 28.925781 L 57.203125 29.421875 L 60.652344 38.166016 A 5.0005 5.0005 0 0 1 60.970703 39.5 A 5.0005 5.0005 0 0 0 60.652344 37.166016 L 57.402344 28.925781 z"
     id="path5" />
  <path
     style="fill:#ffffff;opacity:0.2"
     d="M 9 18 L 9 19 L 23 19 L 23 18 L 9 18 z M 42 18 L 42.402344 19 L 46.667969 19 L 49 24.25 L 51.332031 19 L 55.597656 19 L 56 18 L 51.332031 18 L 49 23.25 L 46.667969 18 L 42 18 z M 26 24 L 26 25 L 40 25 L 40 24 L 26 24 z M 45.978516 28.908203 L 42 39 L 42.394531 39 L 46.177734 29.404297 L 45.978516 28.908203 z M 52.021484 28.908203 L 51.822266 29.404297 L 55.605469 39 L 56 39 L 52.021484 28.908203 z M 31 32 L 31 33 L 40 33 L 40 32 L 31 32 z M 31 40 L 31 41 L 40 41 L 40 40 L 31 40 z"
     id="path6" />
</svg>
