<?xml version="1.0" encoding="UTF-8" standalone="no"?>
<svg
   width="62"
   height="62"
   version="1.1"
   id="svg10"
   sodipodi:docname="textpieces.svg"
   inkscape:version="1.4 (unknown)"
   xmlns:inkscape="http://www.inkscape.org/namespaces/inkscape"
   xmlns:sodipodi="http://sodipodi.sourceforge.net/DTD/sodipodi-0.dtd"
   xmlns="http://www.w3.org/2000/svg"
   xmlns:svg="http://www.w3.org/2000/svg">
  <defs
     id="defs10" />
  <sodipodi:namedview
     id="namedview10"
     pagecolor="#ffffff"
     bordercolor="#000000"
     borderopacity="0.25"
     inkscape:showpageshadow="2"
     inkscape:pageopacity="0.0"
     inkscape:pagecheckerboard="0"
     inkscape:deskcolor="#d1d1d1"
     inkscape:zoom="6.6160929"
     inkscape:cx="24.25903"
     inkscape:cy="35.595026"
     inkscape:window-width="1920"
     inkscape:window-height="998"
     inkscape:window-x="0"
     inkscape:window-y="0"
     inkscape:window-maximized="1"
     inkscape:current-layer="svg10" />
  <g
     id="g10"
     transform="matrix(2.7365931,0,0,2.7316014,-0.47318538,-2.3632028)">
    <path
       style="opacity:0.2"
       d="m 1.9999997,10.5 c 0.017111,2.240011 1.7599876,3.982859 4,4 l 4e-7,-3.000001 H 8.0000004 C 8.9999998,11.499999 8.9999998,12.5 8.9999998,12.5 9,12.499999 9,13.500001 8,13.5 l -1,-10e-7 -1e-7,1.000001 H 14 v -4 z"
       id="path1" />
    <path
       style="fill:#9e9e9e"
       d="m 1.9999997,10.000001 c 0.017111,2.240011 1.7599876,3.982859 4,4 L 6.0000001,11 h 2.0000003 c 0.9999994,0 0.9999994,1.000001 0.9999994,1.000001 C 9,12 9,13.000002 8,13.000001 L 7,13 l -1e-7,1.000001 H 14 v -4 z"
       id="path2" />
    <path
       style="opacity:0.2"
       d="M 16.638747,9.0000001 5.3804168,2.5 c -1.0207815,1.7664328 0.05765,5.8359235 2.6961523,7.330127 l 6.0621779,3.5 z"
       id="path3" />
    <path
       style="fill:#cccccc"
       d="M 16.638747,8.5000001 5.3804168,2 c -1.0207815,1.7664328 0.05765,5.8359235 2.6961523,7.330127 l 6.0621779,3.5 z"
       id="path4" />
    <path
       style="opacity:0.2;fill:#ffffff"
       d="M 5.3808594,2 C 5.0937646,2.4968092 4.9728466,3.1751043 5.0058594,3.9277344 5.0350359,3.3767658 5.1591495,2.8836626 5.3808594,2.5 L 16.421875,8.875 16.638672,8.5 Z"
       id="path5" />
    <rect
       style="opacity:0.2"
       width="5.9780002"
       height="18.73"
       x="17.16"
       y="-8.3000002"
       rx="2.9890001"
       transform="rotate(45)"
       id="rect5" />
    <rect
       style="fill:#c83771"
       width="5.9780002"
       height="18.73"
       x="16.809999"
       y="-8.6599998"
       rx="2.9890001"
       transform="rotate(45)"
       id="rect6" />
    <path
       style="opacity:0.2;fill:#ffffff"
       d="M 18.007812,7 C 17.243829,7 16.479935,7.2935026 15.894531,7.8789062 L 6.8789062,16.894531 C 6.2297874,17.54365 5.9410689,18.413023 6.0117188,19.257812 6.0688395,18.579458 6.3576531,17.915784 6.8789062,17.394531 L 15.894531,8.3789062 c 1.170808,-1.1708073 3.055755,-1.1708073 4.226563,0 0.521688,0.5216886 0.810407,1.1843348 0.867187,1.8632818 C 21.059462,9.3968636 20.770648,8.5284604 20.121094,7.8789062 19.53569,7.2935026 18.771796,7 18.007812,7 Z"
       id="path6" />
    <path
       style="fill:#757575"
       d="M 7.0669873,4 10.531089,6.0000002 A 0.49999997,0.49999997 0 0 1 9.8480763,6.1830129 L 7.25,4.6830126 A 0.49999995,0.49999995 0 0 1 7.0669873,4 Z"
       id="path7" />
    <rect
       style="fill:#f5f5f5"
       width="0.69999999"
       height="3.5999999"
       x="18.6"
       y="4.5599999"
       transform="rotate(45)"
       id="rect7" />
    <rect
       style="fill:#f5f5f5"
       width="0.69999999"
       height="3.5999999"
       x="20.299999"
       y="4.5599999"
       transform="rotate(45)"
       id="rect8" />
    <rect
       style="fill:#f5f5f5"
       width="3.5999999"
       height="0.69999999"
       x="18"
       y="5.1599998"
       transform="rotate(45)"
       id="rect9" />
    <rect
       style="fill:#f5f5f5"
       width="3.5999999"
       height="0.69999999"
       x="18"
       y="6.8600001"
       transform="rotate(45)"
       id="rect10" />
  </g>
</svg>
