<?xml version="1.0" encoding="UTF-8" standalone="no"?>
<svg
   width="62"
   height="62"
   version="1.1"
   id="svg4"
   sodipodi:docname="tiktok.svg"
   inkscape:version="1.4 (e7c3feb100, 2024-10-09)"
   xmlns:inkscape="http://www.inkscape.org/namespaces/inkscape"
   xmlns:sodipodi="http://sodipodi.sourceforge.net/DTD/sodipodi-0.dtd"
   xmlns:xlink="http://www.w3.org/1999/xlink"
   xmlns="http://www.w3.org/2000/svg"
   xmlns:svg="http://www.w3.org/2000/svg">
  <defs
     id="defs4">
    <linearGradient
       id="linearGradient5"
       inkscape:collect="always">
      <stop
         style="stop-color:#233243;stop-opacity:1;"
         offset="0"
         id="stop5" />
      <stop
         style="stop-color:#2d3f53;stop-opacity:1;"
         offset="1"
         id="stop6" />
    </linearGradient>
    <linearGradient
       inkscape:collect="always"
       xlink:href="#linearGradient5"
       id="linearGradient6"
       x1="32.835781"
       y1="60"
       x2="31.999996"
       y2="5.0000119"
       gradientUnits="userSpaceOnUse" />
  </defs>
  <sodipodi:namedview
     id="namedview4"
     pagecolor="#ffffff"
     bordercolor="#000000"
     borderopacity="0.25"
     inkscape:showpageshadow="2"
     inkscape:pageopacity="0.0"
     inkscape:pagecheckerboard="0"
     inkscape:deskcolor="#d1d1d1"
     inkscape:zoom="11.6875"
     inkscape:cx="31.957219"
     inkscape:cy="35.679144"
     inkscape:window-width="1920"
     inkscape:window-height="994"
     inkscape:window-x="0"
     inkscape:window-y="0"
     inkscape:window-maximized="1"
     inkscape:current-layer="svg4" />
  <g
     id="g5"
     transform="translate(-0.50000006,-0.99999998)">
    <ellipse
       style="opacity:0.2;stroke-width:0.982303"
       cx="31.499996"
       cy="32.491234"
       id="circle1"
       rx="27.499996"
       ry="27.508766" />
    <g
       id="g4"
       transform="matrix(0.98214286,0,0,0.98245603,0.07142854,0.07017584)">
      <circle
         style="fill:url(#linearGradient6)"
         cx="32"
         cy="32"
         r="28"
         id="circle2" />
      <path
         style="opacity:0.2"
         d="M 33,15 V 30.203124 40 c 0,2.761424 -2.238576,5 -5,5 -2.761424,0 -5,-2.238576 -5,-5 0,-2.761424 2.238576,-5 5,-5 0.335898,1.78e-4 0.670924,0.0342 1,0.10156 V 29.054688 C 28.66767,29.021286 28.33399,29.003038 28,29 c -6.075132,0 -11,4.924868 -11,11 0,6.075132 4.924868,11 11,11 6.075132,0 11,-4.924868 11,-11 V 27.222656 C 41.36824,28.838956 43.91931,30 47,30 V 24.933594 23.625 c -1.612274,9.7e-4 -2.886708,-0.454074 -4.253906,-1.308594 v 0.004 C 40.923764,21.18348 39.575784,19.376926 39,17.253906 L 38.6,15 Z"
         id="path2" />
      <path
         style="fill:#ffffff"
         d="M 33,14 V 29.203124 39 c 0,2.761424 -2.238576,5 -5,5 -2.761424,0 -5,-2.238576 -5,-5 0,-2.761424 2.238576,-5 5,-5 0.335898,1.78e-4 0.670924,0.0342 1,0.10156 V 28.054688 C 28.66767,28.021286 28.33399,28.003038 28,28 c -6.075132,0 -11,4.924868 -11,11 0,6.075132 4.924868,11 11,11 6.075132,0 11,-4.924868 11,-11 V 26.222656 C 41.36824,27.838956 43.91931,29 47,29 V 23.933594 22.625 c -1.612274,9.7e-4 -2.886708,-0.454074 -4.253906,-1.308594 v 0.004 C 40.923764,20.18348 39.575784,18.376927 39,16.253906 L 38.6,14 Z"
         id="path3" />
      <path
         style="opacity:0.1;fill:#ffffff"
         d="M 32,4 A 28,28 0 0 0 4,32 28,28 0 0 0 4.0175781,32.492188 28,28 0 0 1 32,5 28,28 0 0 1 59.974609,32.492188 28,28 0 0 0 60,32 28,28 0 0 0 32,4 Z"
         id="path4" />
    </g>
  </g>
</svg>
