<?xml version="1.0" encoding="UTF-8" standalone="no"?>
<svg
   width="62"
   height="62"
   version="1"
   id="svg4"
   sodipodi:docname="timeshift.svg"
   inkscape:version="1.4 (e7c3feb100, 2024-10-09)"
   xmlns:inkscape="http://www.inkscape.org/namespaces/inkscape"
   xmlns:sodipodi="http://sodipodi.sourceforge.net/DTD/sodipodi-0.dtd"
   xmlns="http://www.w3.org/2000/svg"
   xmlns:svg="http://www.w3.org/2000/svg">
  <defs
     id="defs4" />
  <sodipodi:namedview
     id="namedview4"
     pagecolor="#ffffff"
     bordercolor="#000000"
     borderopacity="0.25"
     inkscape:showpageshadow="2"
     inkscape:pageopacity="0.0"
     inkscape:pagecheckerboard="0"
     inkscape:deskcolor="#d1d1d1"
     inkscape:zoom="11.6875"
     inkscape:cx="31.957219"
     inkscape:cy="31.315508"
     inkscape:window-width="1920"
     inkscape:window-height="994"
     inkscape:window-x="0"
     inkscape:window-y="0"
     inkscape:window-maximized="1"
     inkscape:current-layer="svg4" />
  <g
     id="g4"
     transform="matrix(1,0,0,1.0003189,-0.5,-1.0012765)">
    <circle
       style="opacity:0.2;stroke-width:0.982147"
       cx="31.499998"
       cy="32.482151"
       r="27.499998"
       id="circle1" />
    <circle
       style="fill:#ff5555;stroke-width:0.982147"
       cx="31.499998"
       cy="31.499998"
       r="27.499998"
       id="circle2" />
    <path
       style="opacity:0.2;stroke-width:0.982147"
       d="m 32.881745,46.283651 c -3.849284,-1.388796 -5.866521,-1.083907 -7.448647,-1.03365 -1.680914,0.145206 -3.307609,0.579687 -4.955882,1.12133 -0.903256,0.263331 -0.904447,0.24965 -0.06048,-0.693975 2.597288,-2.272743 5.61346,-4.132127 8.624908,-4.740409 2.186351,0 3.632977,-1.750863 3.165503,-3.204648 -1.755643,-2.858504 -6.599985,-6.589945 -6.599985,-7.606836 0,-0.851153 1.486328,-3.012289 3.429237,-5.064138 0.859716,-0.907913 2.016416,-1.634062 1.748255,-1.881029 -0.558782,-0.5146 -5.917579,-1.501724 -8.421741,-1.501724 -2.000098,0 -3.763108,1.347441 -3.763108,2.668346 0,0.366458 0.245238,1.384174 1.025737,2.261591 l 1.419088,1.595306 c -0.938649,1.07048 -1.339639,2.230839 -2.954065,2.230839 -2.315475,0 -2.315475,-1.874636 -2.303229,-3.698075 0.326949,-4.465175 7.142616,-9.572696 13.589137,-8.931832 4.077484,0.406079 7.65162,0.635164 11.555072,0.927395 2.171693,0.10715 3.533142,-0.08142 5.569948,-0.852905 1.475999,-0.559055 0.534711,1.239581 -1.674918,3.200479 -2.657699,2.358531 -4.230161,2.9555 -8.487046,2.56314 -3.183987,-0.29347 -4.055129,0.32564 -4.784565,2.268672 -0.578857,1.54194 0.838207,3.011524 3.844981,6.149548 1.482683,1.547398 2.003214,2.546874 1.992932,3.524882 -0.0094,0.875219 -0.404099,1.733245 -1.554905,2.951377 -1.014654,1.074015 -2.380744,2.142381 -2.235624,2.374141 0.455309,0.727155 3.469869,2.374237 5.112899,2.374237 0.866016,0 3.285677,-0.543859 4.257763,-1.033356 1.644292,-0.827983 2.342233,-0.820515 2.342233,0.02509 0,0.669602 -5.960749,4.944585 -8.92071,4.936842 -0.538444,-0.0015 -2.119116,-0.427793 -3.512768,-0.930624 z"
       id="path2" />
    <path
       style="fill:#373e48;stroke-width:0.982147;fill-opacity:1"
       d="m 32.881745,45.301512 c -3.849284,-1.388799 -5.866521,-1.08391 -7.448647,-1.033655 -1.680914,0.14521 -3.307609,0.579691 -4.955882,1.121333 -0.903256,0.263331 -0.904447,0.249647 -0.06048,-0.693974 2.597288,-2.272742 5.61346,-4.132131 8.624908,-4.740409 2.186351,0 3.632977,-1.750864 3.165503,-3.204652 -1.755643,-2.858502 -6.599985,-6.589945 -6.599985,-7.606834 0,-0.851153 1.486328,-3.012289 3.429237,-5.064136 0.859716,-0.907914 2.016416,-1.634062 1.748255,-1.881029 -0.558786,-0.514602 -5.917583,-1.501729 -8.421745,-1.501729 -2.000098,0 -3.763108,1.347442 -3.763108,2.668351 0,0.366454 0.245238,1.384168 1.025737,2.261591 l 1.419088,1.595304 c -0.938649,1.07048 -1.339639,2.230839 -2.954065,2.230839 -2.315475,0 -2.315475,-1.874635 -2.303229,-3.698077 0.326949,-4.465176 7.142616,-9.57269 13.589137,-8.931832 4.077484,0.406085 7.65162,0.635166 11.555072,0.927397 2.171693,0.107148 3.533143,-0.08144 5.569948,-0.852905 1.475999,-0.559051 0.534711,1.239584 -1.674918,3.20048 -2.657699,2.358531 -4.230161,2.955501 -8.487046,2.563139 -3.183987,-0.293468 -4.055129,0.325642 -4.784565,2.268674 -0.578857,1.54194 0.838207,3.011522 3.844981,6.149546 1.482683,1.547398 2.003215,2.546873 1.992932,3.52488 -0.0094,0.875223 -0.404099,1.733247 -1.554905,2.951377 -1.014654,1.074015 -2.380744,2.142383 -2.235624,2.374143 0.455309,0.727156 3.469869,2.374237 5.112899,2.374237 0.866016,0 3.285677,-0.543861 4.257763,-1.033354 1.644292,-0.827983 2.342233,-0.820517 2.342233,0.02507 0,0.669602 -5.960749,4.944585 -8.92071,4.936842 -0.538444,-0.0015 -2.119116,-0.427793 -3.512768,-0.930622 z"
       id="path3" />
    <path
       style="opacity:0.2;fill:#ffffff;stroke-width:0.982147"
       d="M 31.5,4 A 27.5,27.5 0 0 0 4,31.5 27.5,27.5 0 0 0 4.0172646,31.9834 27.5,27.5 0 0 1 31.5,4.9821429 27.5,27.5 0 0 1 58.975063,31.9834 27.5,27.5 0 0 0 59,31.5 27.5,27.5 0 0 0 31.5,4 Z"
       id="path4" />
  </g>
</svg>
