<?xml version="1.0" encoding="UTF-8" standalone="no"?>
<svg
   width="64"
   height="64"
   version="1.1"
   id="svg9"
   sodipodi:docname="tokodon.svg"
   inkscape:version="1.4 (e7c3feb100, 2024-10-09)"
   xmlns:inkscape="http://www.inkscape.org/namespaces/inkscape"
   xmlns:sodipodi="http://sodipodi.sourceforge.net/DTD/sodipodi-0.dtd"
   xmlns:xlink="http://www.w3.org/1999/xlink"
   xmlns="http://www.w3.org/2000/svg"
   xmlns:svg="http://www.w3.org/2000/svg">
  <defs
     id="defs9">
    <linearGradient
       id="linearGradient9"
       inkscape:collect="always">
      <stop
         style="stop-color:#b380ff;stop-opacity:1;"
         offset="0"
         id="stop9" />
      <stop
         style="stop-color:#1a80e2;stop-opacity:1;"
         offset="1"
         id="stop10" />
    </linearGradient>
    <linearGradient
       inkscape:collect="always"
       xlink:href="#linearGradient9"
       id="linearGradient10"
       x1="33.35741"
       y1="60"
       x2="32"
       y2="5"
       gradientUnits="userSpaceOnUse" />
  </defs>
  <sodipodi:namedview
     id="namedview9"
     pagecolor="#ffffff"
     bordercolor="#000000"
     borderopacity="0.25"
     inkscape:showpageshadow="2"
     inkscape:pageopacity="0.0"
     inkscape:pagecheckerboard="0"
     inkscape:deskcolor="#d1d1d1"
     inkscape:zoom="11.6875"
     inkscape:cx="31.957219"
     inkscape:cy="36.620321"
     inkscape:window-width="1920"
     inkscape:window-height="994"
     inkscape:window-x="0"
     inkscape:window-y="0"
     inkscape:window-maximized="1"
     inkscape:current-layer="svg9" />
  <circle
     style="opacity:0.2"
     cx="32"
     cy="33"
     r="28"
     id="circle1" />
  <circle
     style="fill:url(#linearGradient10)"
     cx="32"
     cy="32"
     r="28"
     id="circle2" />
  <path
     style="fill:#ffffff;opacity:0.2"
     d="M 32,4 C 16.488,4 4,16.488 4,32 4,32.11345 4.01128,32.224113 4.01758,32.335938 4.369121,17.134181 16.710728,5 32,5 47.289272,5 59.630879,17.134181 59.982422,32.335938 59.98872,32.224113 60,32.11345 60,32 60,16.488 47.512,4 32,4 Z"
     id="path8" />
  <g
     id="g10"
     transform="translate(-1.5,-1)">
    <path
       style="opacity:0.2;stroke-width:1.09232"
       d="m 41.156248,27.999998 c 1.906408,8.144732 5.908439,11.079274 7.656249,12.000004 0.650779,0.343632 1.077343,0.418904 1.093746,0.545454 0.01751,0.127632 -0.371872,0.530184 -1.093746,0.545454 -1.737969,0.03822 -5.94672,-1.629816 -9.843752,-6.545456 -4.510625,-5.690182 -2.187496,-6.545456 -2.187496,-6.545456 z m -15.312496,0 c -1.95782,8.364004 -5.70828,11.137096 -7.656249,12.000004 -0.656256,0.290182 -1.078438,0.427638 -1.093756,0.545454 -0.01642,0.126542 0.363125,0.526904 1.093756,0.545454 1.784997,0.04584 5.929217,-1.608004 9.843744,-6.545456 4.510623,-5.690182 2.187502,-6.545456 2.187502,-6.545456 z"
       id="path2" />
    <path
       style="fill:#e5e5e5;fill-opacity:1;stroke-width:1.09232"
       d="m 41.156248,26.90909 c 1.906408,8.144726 5.908439,11.079276 7.656249,11.999998 0.650779,0.34364 1.077343,0.418912 1.093746,0.545462 0.01751,0.127632 -0.371872,0.530176 -1.093746,0.545452 -1.737969,0.03822 -5.94672,-1.629824 -9.843752,-6.545456 -4.510625,-5.69018 -2.187496,-6.545456 -2.187496,-6.545456 z m -15.312496,0 c -1.95782,8.363998 -5.70828,11.137088 -7.656249,11.999998 -0.656256,0.290182 -1.078438,0.427638 -1.093756,0.545462 -0.01642,0.12654 0.363125,0.526904 1.093756,0.545452 1.784997,0.04584 5.929217,-1.608002 9.843744,-6.545456 4.510623,-5.69018 2.187502,-6.545456 2.187502,-6.545456 z"
       id="path3" />
    <path
       style="opacity:0.2;stroke-width:1.09232"
       d="m 44.4375,17.090906 c 3.28125,0 6.5625,3.272728 6.5625,6.545456 v 4.363636 c 0,1.623272 -1.556407,3.272728 -3.28125,3.272728 H 40.0625 l -0.01093,5.558186 0.01093,5.350904 c 0.0032,1.370182 0.304059,2.34 0.304059,2.34 0.714222,1.584 1.959997,3.320734 4.113595,3.554184 1.082812,0.117816 2.772658,-0.373088 3.072342,-0.697088 0.171719,-0.185462 0.166254,-0.530184 0.166254,-0.833462 0,-0.545452 0,-1.090906 1.093747,-1.090906 0.145467,0 0.346722,0.03822 0.532657,0.06766 0.401406,0.06216 0.569846,0.176728 0.561089,0.477816 -0.01751,0.586916 -0.61906,1.551272 -0.846559,1.882916 C 50.36234,48.110932 51,48.138208 51,48.727295 c 0,0.616363 -0.313909,1.090907 -1.093757,1.090907 -0.53593,0 -0.615779,-0.39382 -1.431713,-0.134176 C 46.322028,50.369094 44.4375,52 37.874998,52 c -3.28125,0 -8.324533,-3.49091 -9.843751,-6.545456 -1.085,-2.180722 -1.051094,-5.354184 -1.066402,-8.601818 l -0.02737,-5.58 h -4.374994 c -3.281251,0 -6.55594,-3.272728 -6.558127,-6.592364 L 16,20.363634 c 0,-1.592724 1.74781,-3.272728 3.28125,-3.272728 z"
       id="path4" />
    <path
       style="fill:#383e5c;fill-opacity:1;stroke-width:1.09232"
       d="M 44.4375,16 C 47.71875,16 51,19.272728 51,22.545456 v 4.363634 c 0,1.623272 -1.556407,3.272728 -3.28125,3.272728 H 40.0625 l -0.01093,5.55818 0.01093,5.350912 c 0.0032,1.37018 0.304059,2.34 0.304059,2.34 0.714222,1.584 1.959997,3.320724 4.113595,3.554184 1.082812,0.117816 2.772658,-0.373096 3.072342,-0.697096 0.171719,-0.185454 0.166254,-0.530176 0.166254,-0.833454 0,-0.545454 0,-1.090906 1.093747,-1.090906 0.145467,0 0.346722,0.03822 0.532657,0.06766 0.401406,0.06216 0.569846,0.176728 0.561089,0.477816 -0.01751,0.586906 -0.61906,1.551272 -0.846559,1.882906 C 50.36234,47.020026 51,47.047292 51,47.636388 c 0,0.616364 -0.313909,1.090907 -1.093757,1.090907 -0.53593,0 -0.615779,-0.393819 -1.431713,-0.134184 -2.152502,0.685091 -4.03703,2.316005 -10.599532,2.316005 -3.28125,0 -8.324533,-3.490908 -9.843751,-6.545456 -1.085,-2.180732 -1.051094,-5.354186 -1.066402,-8.60182 l -0.02737,-5.58 h -4.374994 c -3.281251,0 -6.55594,-3.272728 -6.558127,-6.592362 L 16,19.272728 C 16,17.680002 17.74781,16 19.28125,16 Z"
       id="path5" />
    <ellipse
       style="opacity:0.1;stroke-width:1.09248"
       cx="-5.0064921"
       cy="46.568832"
       rx="2.4292564"
       ry="1.9087054"
       transform="matrix(0.56036877,-0.82824323,0.89704119,0.44194695,0,0)"
       id="ellipse5" />
    <ellipse
       style="fill:#e5e5e5;fill-opacity:1;stroke-width:1.09248"
       cx="-4.0184097"
       cy="45.95142"
       rx="2.4292529"
       ry="1.9087152"
       transform="matrix(0.56037125,-0.82824155,0.89704032,0.4419487,0,0)"
       id="ellipse6" />
    <ellipse
       style="opacity:0.1;stroke-width:1.09248"
       cx="-35.384892"
       cy="-10.362805"
       rx="2.4292564"
       ry="1.9087054"
       transform="matrix(-0.56036877,-0.82824323,-0.89704119,0.44194695,0,0)"
       id="ellipse7" />
    <ellipse
       style="fill:#e5e5e5;fill-opacity:1;stroke-width:1.09248"
       cx="-34.396759"
       cy="-10.980525"
       rx="2.4292529"
       ry="1.9087152"
       transform="matrix(-0.56037126,-0.82824154,-0.89704033,0.44194869,0,0)"
       id="ellipse8" />
    <path
       style="opacity:0.1;fill:#ffffff;stroke-width:1.09232"
       d="M 19.28125,16 C 17.74781,16 16,17.680002 16,19.272728 v 1.073456 c 0.01201,-1.587272 1.753284,-3.255278 3.28125,-3.255278 H 44.4375 c 3.28125,0 6.5625,3.272728 6.5625,6.545456 V 22.545456 C 51,19.272728 47.71875,16 44.4375,16 Z m 20.772495,20.275634 -0.0022,0.556368 0.01093,5.349814 c 0.0032,1.370182 0.302965,2.34 0.302965,2.34 0.71422,1.584 1.96109,3.319634 4.114687,3.553094 1.082812,0.117816 2.772658,-0.371998 3.072342,-0.695998 0.17172,-0.185462 0.166254,-0.530184 0.166254,-0.833462 0,-0.545452 0,-1.090906 1.093747,-1.090906 0.145468,0 0.345629,0.03928 0.531564,0.06766 0.156405,0.0251 0.267966,0.0611 0.356564,0.109091 0.110469,-0.257453 0.199058,-0.513815 0.205619,-0.722181 0.0086,-0.301088 -0.160777,-0.415636 -0.562183,-0.477816 -0.185935,-0.02838 -0.386096,-0.06766 -0.531564,-0.06766 -1.093747,0 -1.093747,0.545452 -1.093747,1.090906 0,0.303278 0.0054,0.648 -0.166254,0.833454 -0.299684,0.324 -1.98953,0.81382 -3.072342,0.696004 C 42.32653,46.750544 41.07966,45.01491 40.36544,43.43091 c 0,0 -0.299684,-0.96982 -0.302965,-2.34 z M 49.62625,46.888 c -0.194692,0.41236 -0.436406,0.80727 -0.56547,0.996002 0.900155,0.157088 1.475467,0.220364 1.748902,0.438544 C 50.937654,48.136002 51,47.901454 51,47.636366 51,47.145454 50.529687,47.040726 49.62625,46.888 Z"
       id="path9" />
  </g>
</svg>
