<?xml version="1.0" encoding="UTF-8" standalone="no"?>
<svg
   clip-rule="evenodd"
   fill-rule="evenodd"
   stroke-linejoin="round"
   stroke-miterlimit="2"
   viewBox="0 0 62 62"
   version="1.1"
   id="svg4"
   sodipodi:docname="touchpad-indicator.svg"
   width="62"
   height="62"
   inkscape:version="1.4 (e7c3feb100, 2024-10-09)"
   xmlns:inkscape="http://www.inkscape.org/namespaces/inkscape"
   xmlns:sodipodi="http://sodipodi.sourceforge.net/DTD/sodipodi-0.dtd"
   xmlns:xlink="http://www.w3.org/1999/xlink"
   xmlns="http://www.w3.org/2000/svg"
   xmlns:svg="http://www.w3.org/2000/svg">
  <defs
     id="defs4">
    <linearGradient
       id="linearGradient5"
       inkscape:collect="always">
      <stop
         style="stop-color:#3485fd;stop-opacity:1"
         offset="0"
         id="stop5" />
      <stop
         style="stop-color:#8660cb;stop-opacity:1"
         offset="1"
         id="stop6" />
    </linearGradient>
    <linearGradient
       inkscape:collect="always"
       xlink:href="#linearGradient5"
       id="linearGradient6"
       x1="25.625999"
       y1="45.483959"
       x2="25.113491"
       y2="1.2632493"
       gradientUnits="userSpaceOnUse" />
  </defs>
  <sodipodi:namedview
     id="namedview4"
     pagecolor="#ffffff"
     bordercolor="#000000"
     borderopacity="0.25"
     inkscape:showpageshadow="2"
     inkscape:pageopacity="0.0"
     inkscape:pagecheckerboard="0"
     inkscape:deskcolor="#d1d1d1"
     inkscape:zoom="7.8333333"
     inkscape:cx="29.106383"
     inkscape:cy="25.787234"
     inkscape:window-width="1920"
     inkscape:window-height="998"
     inkscape:window-x="0"
     inkscape:window-y="0"
     inkscape:window-maximized="1"
     inkscape:current-layer="svg4" />
  <linearGradient
     id="a"
     x2="1"
     gradientTransform="matrix(0,-44.3898,44.3898,0,24,45.6258)"
     gradientUnits="userSpaceOnUse">
    <stop
       stop-color="#ff9300"
       offset="0"
       id="stop1" />
    <stop
       stop-color="#ffd702"
       offset="1"
       id="stop2" />
  </linearGradient>
  <g
     id="g5"
     transform="matrix(1.2300123,0,0,1.2300123,1.4797048,1.4797048)">
    <circle
       cx="24"
       cy="24"
       r="22.764"
       id="circle2"
       style="fill:url(#linearGradient6)" />
    <g
       fill-opacity="0.84"
       fill-rule="nonzero"
       id="g4">
      <path
         d="m 28.286,28.092 -3.412,-0.005 v -4.133 c 0,-1.02 -0.692,-1.851 -1.612,-1.851 -0.921,0 -1.613,0.831 -1.613,1.851 v 6.258 c -0.387,-0.44 -0.799,-0.702 -1.317,-0.702 -0.286,0 -0.573,0.083 -0.825,0.24 -0.794,0.498 -1.081,1.588 -0.649,2.488 0.708,1.407 3.028,6.028 3.186,6.264 0.524,0.794 1.319,1.258 2.183,1.258 h 4.558 c 1.747,0 2.667,-0.918 2.667,-2.488 v -5.756 c 0,-0.029 0.04,-0.058 0.038,-0.087 0.002,-0.045 -0.002,-0.091 -0.002,-0.139 0,-1.763 -1.439,-3.198 -3.202,-3.198 z"
         id="path2"
         style="fill:#182030;fill-opacity:1" />
      <path
         d="m 26.293,26.732 h 2.043 c 0.308,0 0.609,0.02 0.9,0.078 0.663,-1.074 1.046,-2.343 1.046,-3.695 0,-3.883 -3.159,-7.045 -7.042,-7.045 -3.883,0 -7.042,3.158 -7.042,7.041 0,2.197 1.001,4.162 2.584,5.455 0.447,-0.274 0.933,-0.425 1.449,-0.438 v -2.612 c -0.516,-0.659 -0.84,-1.496 -0.84,-2.407 0,-2.116 1.727,-3.838 3.843,-3.838 2.117,0 3.809,1.722 3.809,3.838 0,0.833 -0.234,1.605 -0.75,2.234 z"
         id="path3"
         style="fill:#182030;fill-opacity:1" />
      <path
         d="m 36.335,23.109 c 0,-7.233 -5.873,-13.118 -13.106,-13.118 -7.233,0 -13.112,5.885 -13.112,13.118 0,5.705 3.664,10.57 8.759,12.372 l -1.271,-2.652 c -0.275,-0.573 -0.372,-1.195 -0.314,-1.794 -2.406,-1.811 -3.965,-4.69 -3.965,-7.926 0,-5.466 4.448,-9.914 9.914,-9.914 5.466,0 9.914,4.448 9.914,9.914 0,1.869 -0.52,3.618 -1.422,5.111 0.735,0.813 1.184,1.89 1.184,3.07 0,0.044 -0.023,0.087 -0.024,0.13 10e-4,0.028 -0.021,0.061 -0.021,0.096 v 0.441 c 2.193,-2.335 3.464,-5.442 3.464,-8.848 z"
         id="path4"
         style="fill:#182030;fill-opacity:1" />
    </g>
  </g>
</svg>
