<?xml version="1.0" encoding="UTF-8" standalone="no"?>
<svg
   width="62"
   height="62"
   version="1"
   id="svg19"
   sodipodi:docname="transmission-remote-gtk.svg"
   inkscape:version="1.4 (e7c3feb100, 2024-10-09)"
   xmlns:inkscape="http://www.inkscape.org/namespaces/inkscape"
   xmlns:sodipodi="http://sodipodi.sourceforge.net/DTD/sodipodi-0.dtd"
   xmlns="http://www.w3.org/2000/svg"
   xmlns:svg="http://www.w3.org/2000/svg">
  <defs
     id="defs19" />
  <sodipodi:namedview
     id="namedview19"
     pagecolor="#ffffff"
     bordercolor="#000000"
     borderopacity="0.25"
     inkscape:showpageshadow="2"
     inkscape:pageopacity="0.0"
     inkscape:pagecheckerboard="0"
     inkscape:deskcolor="#d1d1d1"
     inkscape:zoom="5.859375"
     inkscape:cx="25.429333"
     inkscape:cy="34.474667"
     inkscape:window-width="1920"
     inkscape:window-height="996"
     inkscape:window-x="0"
     inkscape:window-y="0"
     inkscape:window-maximized="1"
     inkscape:current-layer="svg19" />
  <g
     id="g19"
     transform="translate(1.5,-1.1993954)">
    <path
       style="opacity:0.2;stroke-width:0.949135"
       d="m 3.896211,9.6999109 h 5.6886344 c 1.0485346,0 1.8979146,0.7088221 1.8979146,1.5833181 v 6.333269 c 0,0.874497 -0.84938,1.583322 -1.8979146,1.583322 H 3.896211 C 2.84938,19.19982 2,18.490995 2,17.616498 V 11.283229 C 2,10.408733 2.84938,9.6999109 3.896211,9.6999109 Z m 0,0"
       id="path1" />
    <rect
       style="opacity:0.2;stroke-width:0.949135"
       width="47.413792"
       height="47.499523"
       x="6.7413793"
       y="10.6499"
       rx="2.6343112"
       ry="2.6390743"
       id="rect1" />
    <path
       style="fill:#e4e4e4;stroke-width:0.949135"
       d="m 3.896211,8.7499225 h 5.6886344 c 1.0485346,0 1.8979146,0.7088218 1.8979146,1.5833165 v 6.333269 c 0,0.874497 -0.84938,1.58332 -1.8979146,1.58332 H 3.896211 C 2.84938,18.249828 2,17.541005 2,16.666508 V 10.333239 C 2,9.4587443 2.84938,8.7499225 3.896211,8.7499225 Z m 0,0"
       id="path2" />
    <rect
       style="fill:#9f9f9f;stroke-width:0.949135"
       width="47.413792"
       height="47.499523"
       x="6.7413793"
       y="9.699913"
       rx="2.6343112"
       ry="2.6390743"
       id="rect2" />
    <path
       style="fill:#ffffff;stroke-width:0.949135"
       d="M 12.431032,17.978403 H 48.465514 V 51.499495 H 12.431032 Z m 0,0"
       id="path3" />
    <path
       style="opacity:0.1;stroke-width:0.949135"
       d="m 7.6895242,6.9457745 c 14.4019298,-2.4082702 29.4161648,-2.9024577 45.5175068,0 C 55.27309,7.3182051 57,8.7255662 57,10.935085 V 18.9155 c 0,2.209521 -1.717745,3.661647 -3.792969,3.989321 -16.15451,2.556878 -31.40523,2.760998 -45.5175068,0 -2.060561,-0.402875 -3.7929725,-1.7798 -3.7929725,-3.989321 v -7.980415 c 0,-2.2095188 1.7214118,-3.6437376 3.7929725,-3.9893105 z m 0,0"
       id="path4" />
    <path
       style="opacity:0.2;fill:#ffffff;stroke-width:0.949135"
       d="M 3.8965517,8.7499225 C 2.8497207,8.7499225 2,9.4581269 2,10.332622 v 0.949992 C 2,10.408116 2.8497207,9.6999126 3.8965517,9.6999126 h 5.6878034 c 1.0485329,0 1.8984049,0.7082034 1.8984049,1.5827014 v -0.949992 c 0,-0.8744951 -0.849872,-1.5826995 -1.8984049,-1.5826995 z"
       id="path5" />
    <path
       style="fill:#f64747;stroke-width:0.949135"
       d="m 7.6895242,5.9957861 c 14.4019298,-2.408271 29.4161648,-2.9024584 45.5175068,0 C 55.27309,6.3682164 57,7.7755767 57,9.9850987 v 7.9804143 c 0,2.20952 -1.717745,3.661644 -3.792969,3.989317 -16.15451,2.556883 -31.40523,2.761003 -45.5175068,0 C 5.6289632,21.551955 3.8965517,20.175033 3.8965517,17.965513 V 9.9850987 c 0,-2.209522 1.7214118,-3.6437405 3.7929725,-3.9893126 z m 0,0"
       id="path6" />
    <path
       style="opacity:0.1;stroke-width:0.949135"
       d="M 22.689654,31.549692 H 16.224139 L 30.448278,45.799548 44.672417,31.549692 h -6.465521 z"
       id="path7" />
    <path
       style="fill:#4a4a4a;stroke-width:0.949135"
       d="M 22.689654,30.599702 H 16.224139 L 30.448278,44.849561 44.672417,30.599702 h -6.465521 z"
       id="path8" />
    <rect
       style="fill:#636363;stroke-width:0.949135"
       width="15.172415"
       height="6.6499333"
       x="22.862068"
       y="23.949768"
       id="rect8" />
    <rect
       style="fill:#868686;stroke-width:0.949135"
       width="15.172415"
       height="6.6499333"
       x="22.862068"
       y="17.299837"
       id="rect9" />
    <rect
       style="fill:#bfbfbf;stroke-width:0.949135"
       width="15.172415"
       height="6.6499333"
       x="22.862068"
       y="10.6499"
       id="rect10" />
    <path
       style="fill:#ffffff;stroke-width:0.949135"
       d="m 29.840786,4.005165 c -2.348197,0.02013 -4.67153,0.1154576 -6.978717,0.2701538 V 10.649901 H 38.034483 V 4.223366 C 35.27314,4.0501664 32.54229,3.9820071 29.840786,4.005165 Z"
       id="path10" />
    <rect
       style="opacity:0.1;stroke-width:0.949135"
       width="15.172415"
       height="0.94999057"
       x="22.862068"
       y="23.949768"
       id="rect11" />
    <rect
       style="opacity:0.1;stroke-width:0.949135"
       width="15.172415"
       height="0.94999057"
       x="22.862068"
       y="17.299837"
       id="rect12" />
    <rect
       style="opacity:0.1;stroke-width:0.949135"
       width="15.172415"
       height="0.94999057"
       x="22.862068"
       y="10.6499"
       id="rect13" />
    <rect
       style="opacity:0.1;stroke-width:0.949135"
       width="15.172415"
       height="0.94999057"
       x="22.862068"
       y="30.599699"
       id="rect14" />
    <path
       style="opacity:0.2;fill:#ffffff;stroke-width:0.949135"
       d="M 29.81115,4.0036805 C 22.244687,4.0654542 14.890621,4.7922993 7.689655,5.9964344 5.6180945,6.3420072 3.8965517,7.7761314 3.8965517,9.9856527 v 0.9499903 c 0,-2.209521 1.7215428,-3.6436455 3.7931033,-3.9892186 14.40193,-2.4082703 29.415896,-2.9024576 45.517242,0 C 55.272961,7.3188554 57,8.726122 57,10.935643 V 9.9856527 C 57,7.7761315 55.272961,6.3688652 53.206897,5.9964344 45.156226,4.5452054 37.377621,3.9419071 29.81115,4.0036805 Z"
       id="path14" />
    <rect
       style="opacity:0.2;stroke-width:0.949135"
       width="36.034477"
       height="0.94999057"
       x="12.431034"
       y="51.499489"
       id="rect15" />
    <path
       style="opacity:0.2;stroke-width:0.949135"
       d="m 28.551723,56.724439 c 0,-14.249853 9.956898,-24.224752 24.181038,-24.224752 2.133619,0 4.267239,2.137479 4.267239,4.274956 v 19.949796 c 0,2.13748 -2.13362,4.274956 -4.267239,4.274956 H 32.818966 c -2.133623,0 -4.267243,-2.137476 -4.267243,-4.274956 z"
       id="path15" />
    <path
       style="fill:#426bcd;stroke-width:0.949135"
       d="m 28.551723,55.774452 c 0,-14.249857 9.956898,-24.224758 24.181038,-24.224758 2.133619,0 4.267239,2.137477 4.267239,4.274953 v 19.949805 c 0,2.137481 -2.13362,4.274958 -4.267239,4.274958 H 32.818966 c -2.133623,0 -4.267243,-2.137477 -4.267243,-4.274958 z"
       id="path16" />
    <path
       style="fill:#ffffff;stroke-width:0.949135"
       d="m 52.258624,36.299645 v 1.583319 c 0,0.871075 -0.716694,1.583316 -1.580463,1.583316 -7.855833,0 -14.224137,6.379823 -14.224137,14.24986 0,0.871076 -0.716689,1.583315 -1.580461,1.583315 H 33.293107 V 53.71614 c 0,-9.618656 7.783761,-17.416495 17.385054,-17.416495 z"
       id="path17" />
    <path
       style="fill:#ffffff;stroke-width:0.949135"
       d="m 52.258624,42.632915 v 1.583317 c 0,0.871076 -0.716694,1.583317 -1.580463,1.583317 -4.364276,0 -7.902297,3.54441 -7.902297,7.916591 0,0.871076 -0.71669,1.583315 -1.580461,1.583315 H 39.614946 V 53.71614 c 0,-6.121107 4.953158,-11.083225 11.063215,-11.083225 z"
       id="path18" />
    <path
       style="fill:#ffffff;stroke-width:0.949135"
       d="m 48.939659,48.649522 c 1.833056,0 3.318965,1.488641 3.318965,3.324964 0,1.836334 -1.485955,3.324969 -3.318965,3.324969 -1.833017,0 -3.318971,-1.488635 -3.318971,-3.324969 0,-1.836323 1.485907,-3.324964 3.318971,-3.324964 z"
       id="path19" />
  </g>
</svg>
