<?xml version="1.0" encoding="UTF-8" standalone="no"?>
<svg
   width="62"
   height="62"
   version="1"
   id="svg15"
   sodipodi:docname="transmission.svg"
   inkscape:version="1.4 (e7c3feb100, 2024-10-09)"
   xmlns:inkscape="http://www.inkscape.org/namespaces/inkscape"
   xmlns:sodipodi="http://sodipodi.sourceforge.net/DTD/sodipodi-0.dtd"
   xmlns="http://www.w3.org/2000/svg"
   xmlns:svg="http://www.w3.org/2000/svg">
  <defs
     id="defs15" />
  <sodipodi:namedview
     id="namedview15"
     pagecolor="#ffffff"
     bordercolor="#000000"
     borderopacity="0.25"
     inkscape:showpageshadow="2"
     inkscape:pageopacity="0.0"
     inkscape:pagecheckerboard="0"
     inkscape:deskcolor="#d1d1d1"
     inkscape:zoom="8.3085047"
     inkscape:cx="32.617181"
     inkscape:cy="35.505787"
     inkscape:window-width="1920"
     inkscape:window-height="998"
     inkscape:window-x="0"
     inkscape:window-y="0"
     inkscape:window-maximized="1"
     inkscape:current-layer="svg15" />
  <g
     id="g15"
     transform="matrix(1.0003185,0,0,1,0.49936214,-0.9993955)">
    <path
       style="opacity:0.2;stroke-width:0.982449"
       d="m 3.9645385,9.8946616 h 5.8936169 c 1.0863176,0 1.9663006,0.7330414 1.9663006,1.6374104 v 6.549636 c 0,0.904373 -0.879983,1.637411 -1.9663006,1.637411 H 3.9645385 C 2.8799865,19.719119 2,18.986081 2,18.081708 V 11.532072 C 2,10.627703 2.8799865,9.8946616 3.9645385,9.8946616 Z m 0,0"
       id="path1" />
    <rect
       style="opacity:0.2;stroke-width:0.982449"
       width="49.122284"
       height="49.122284"
       x="6.9122286"
       y="10.877111"
       rx="2.7292345"
       ry="2.7292345"
       id="rect1" />
    <path
       style="fill:#e4e4e4;stroke-width:0.982449"
       d="m 3.9645385,8.912218 h 5.8936169 c 1.0863176,0 1.9663006,0.7330381 1.9663006,1.637407 v 6.549637 c 0,0.904372 -0.879983,1.637411 -1.9663006,1.637411 H 3.9645385 C 2.8799865,18.736673 2,18.003634 2,17.099262 V 10.549625 C 2,9.6452561 2.8799865,8.912218 3.9645385,8.912218 Z m 0,0"
       id="path2" />
    <rect
       style="fill:#9f9f9f;stroke-width:0.982449"
       width="49.122284"
       height="49.122284"
       x="6.9122286"
       y="9.8946619"
       rx="2.7292345"
       ry="2.7292345"
       id="rect2" />
    <path
       style="fill:#ffffff;stroke-width:0.982449"
       d="M 12.806903,18.455978 H 50.13984 V 53.122277 H 12.806903 Z m 0,0"
       id="path3" />
    <path
       style="opacity:0.1;stroke-width:0.982449"
       d="m 7.8945384,7.046434 c 14.9208856,-2.4905461 30.4761296,-3.001617 47.1576666,0 2.140509,0.3851543 3.929648,1.8405956 3.929648,4.125604 v 8.253056 c 0,2.285005 -1.779642,3.786739 -3.929648,4.125605 -16.736615,2.644235 -32.536876,2.855328 -47.1576666,0 -2.1348101,-0.416636 -3.929647,-1.8406 -3.929647,-4.125605 v -8.253056 c 0,-2.2850084 1.7834405,-3.7682254 3.929647,-4.125604 z m 0,0"
       id="path4" />
    <path
       style="opacity:0.2;fill:#ffffff;stroke-width:0.982449"
       d="M 3.9648914,8.912218 C 2.8803397,8.912218 2,9.6446169 2,10.548987 v 0.982447 C 2,10.627065 2.8803397,9.8946635 3.9648914,9.8946635 h 5.8927557 c 1.0863169,0 1.9668089,0.7324015 1.9668089,1.6367705 v -0.982447 c 0,-0.9043701 -0.880492,-1.636769 -1.9668089,-1.636769 z"
       id="path5" />
    <path
       style="fill:#f64747;stroke-width:0.982449"
       d="m 7.8945384,6.0639897 c 14.9208856,-2.4905463 30.4761296,-3.0016164 47.1576666,0 2.140509,0.3851544 3.929648,1.8405958 3.929648,4.1256013 v 8.253055 c 0,2.285008 -1.779642,3.786739 -3.929648,4.125605 -16.736615,2.644235 -32.536876,2.855334 -47.1576666,0 -2.1348101,-0.416634 -3.929647,-1.840597 -3.929647,-4.125605 v -8.253055 c 0,-2.2850055 1.7834405,-3.7682226 3.929647,-4.1256013 z m 0,0"
       id="path6" />
    <path
       style="opacity:0.1;stroke-width:0.982449"
       d="M 23.43518,32.490912 H 16.736683 L 31.473371,47.227599 46.210054,32.490912 h -6.698492 z"
       id="path7" />
    <path
       style="fill:#4a4a4a;stroke-width:0.982449"
       d="M 23.43518,31.508471 H 16.736683 L 31.473371,46.245155 46.210054,31.508471 h -6.698492 z"
       id="path8" />
    <rect
       style="fill:#636363;stroke-width:0.982449"
       width="15.719132"
       height="6.8771205"
       x="23.613811"
       y="24.631353"
       id="rect8" />
    <rect
       style="fill:#868686;stroke-width:0.982449"
       width="15.719132"
       height="6.8771205"
       x="23.613811"
       y="17.754225"
       id="rect9" />
    <rect
       style="fill:#bfbfbf;stroke-width:0.982449"
       width="15.719132"
       height="6.8771205"
       x="23.613811"
       y="10.877111"
       id="rect10" />
    <path
       style="fill:#ffffff;stroke-width:0.982449"
       d="m 30.843992,4.0053617 c -2.432809,0.020819 -4.839868,0.1194021 -7.230185,0.2793831 V 10.877107 H 39.332936 V 4.2310178 C 36.472089,4.0519004 33.642839,3.9814128 30.843992,4.0053617 Z"
       id="path10" />
    <rect
       style="opacity:0.1;stroke-width:0.982449"
       width="15.719132"
       height="0.98244578"
       x="23.613811"
       y="24.631353"
       id="rect11" />
    <rect
       style="opacity:0.1;stroke-width:0.982449"
       width="15.719132"
       height="0.98244578"
       x="23.613811"
       y="17.754225"
       id="rect12" />
    <rect
       style="opacity:0.1;stroke-width:0.982449"
       width="15.719132"
       height="0.98244578"
       x="23.613811"
       y="10.877111"
       id="rect13" />
    <rect
       style="opacity:0.1;stroke-width:0.982449"
       width="15.719132"
       height="0.98244578"
       x="23.613811"
       y="31.508467"
       id="rect14" />
    <path
       style="opacity:0.2;fill:#ffffff;stroke-width:0.982449"
       d="M 30.813291,4.0038271 C 22.974176,4.067711 15.355117,4.8193873 7.8946742,6.0646603 5.7484677,6.4220394 3.9648914,7.9051585 3.9648914,10.190164 v 0.982449 c 0,-2.2850081 1.7835763,-3.7681279 3.9297828,-4.1255065 14.9208808,-2.4905462 30.4758628,-3.001617 47.1573938,0 2.14051,0.3851543 3.929785,1.8404984 3.929785,4.1255065 v -0.982449 c 0,-2.2850054 -1.789275,-3.7403488 -3.929785,-4.1255037 C 46.711298,4.5638517 38.652403,3.9399436 30.813291,4.0038271 Z"
       id="path14" />
    <rect
       style="opacity:0.2;stroke-width:0.982449"
       width="37.332939"
       height="0.98244578"
       x="12.806903"
       y="53.12228"
       id="rect15" />
  </g>
</svg>
