<?xml version="1.0" encoding="UTF-8" standalone="no"?>
<svg
   width="62"
   height="62"
   version="1"
   id="svg25"
   sodipodi:docname="transmageddon.svg"
   inkscape:version="1.4 (e7c3feb100, 2024-10-09)"
   xmlns:inkscape="http://www.inkscape.org/namespaces/inkscape"
   xmlns:sodipodi="http://sodipodi.sourceforge.net/DTD/sodipodi-0.dtd"
   xmlns="http://www.w3.org/2000/svg"
   xmlns:svg="http://www.w3.org/2000/svg">
  <defs
     id="defs25" />
  <sodipodi:namedview
     id="namedview25"
     pagecolor="#ffffff"
     bordercolor="#000000"
     borderopacity="0.25"
     inkscape:showpageshadow="2"
     inkscape:pageopacity="0.0"
     inkscape:pagecheckerboard="0"
     inkscape:deskcolor="#d1d1d1"
     inkscape:zoom="11.75"
     inkscape:cx="32"
     inkscape:cy="52.425532"
     inkscape:window-width="1920"
     inkscape:window-height="998"
     inkscape:window-x="0"
     inkscape:window-y="0"
     inkscape:window-maximized="1"
     inkscape:current-layer="svg25" />
  <g
     id="g25"
     transform="translate(-0.90425515,-0.50909)">
    <path
       style="opacity:0.2;stroke-width:1.02046"
       d="m 9.4042553,54.62182 v 2.03636 c 0,1.57818 1.2779767,2.85091 2.8643977,2.85091 h 39.272026 c 1.585197,0 2.863576,-1.27273 2.863576,-2.85091 v -2.03636 c 0,1.57818 -1.278379,2.85091 -2.863576,2.85091 H 12.268653 c -1.585607,0 -2.8635837,-1.27273 -2.8635837,-2.85091 z"
       id="path1" />
    <path
       style="fill:#3c4f77;stroke-width:1.02046;fill-opacity:1"
       d="M 54.403441,55.64 V 6.359999 c 0,-1.579404 -1.27634,-2.850909 -2.863584,-2.850909 H 12.267841 c -1.586422,0 -2.8635857,1.271505 -2.8635857,2.850909 V 55.64 c 0,1.58022 1.2771637,2.85091 2.8635857,2.85091 h 39.272016 c 1.586421,0 2.863584,-1.27151 2.863584,-2.85091 z"
       id="path2" />
    <rect
       style="opacity:1;stroke-width:1.02046;fill:#202b42;fill-opacity:1"
       width="24.54501"
       height="20.363636"
       x="19.631351"
       y="7.5818172"
       id="rect2" />
    <g
       style="opacity:0.2"
       transform="matrix(2.0454179,0,0,2.036364,-0.82283251,0.4545445)"
       id="g12">
      <rect
         width="3"
         height="3"
         x="6"
         y="4"
         id="rect3" />
      <rect
         width="3"
         height="3"
         x="6"
         y="9"
         id="rect4" />
      <rect
         width="3"
         height="3"
         x="6"
         y="14"
         id="rect5" />
      <rect
         width="3"
         height="3"
         x="6"
         y="19"
         id="rect6" />
      <rect
         width="3"
         height="3"
         x="6"
         y="24"
         id="rect7" />
      <rect
         width="3"
         height="3"
         x="23"
         y="4"
         id="rect8" />
      <rect
         width="3"
         height="3"
         x="23"
         y="9"
         id="rect9" />
      <rect
         width="3"
         height="3"
         x="23"
         y="14"
         id="rect10" />
      <rect
         width="3"
         height="3"
         x="23"
         y="19"
         id="rect11" />
      <rect
         width="3"
         height="3"
         x="23"
         y="24"
         id="rect12" />
    </g>
    <g
       style="fill:#ffffff"
       transform="matrix(2.0454179,0,0,2.036364,-0.82283251,-0.5636373)"
       id="g22">
      <rect
         width="3"
         height="3"
         x="6"
         y="4"
         id="rect13" />
      <rect
         width="3"
         height="3"
         x="6"
         y="9"
         id="rect14" />
      <rect
         width="3"
         height="3"
         x="6"
         y="14"
         id="rect15" />
      <rect
         width="3"
         height="3"
         x="6"
         y="19"
         id="rect16" />
      <rect
         width="3"
         height="3"
         x="6"
         y="24"
         id="rect17" />
      <rect
         width="3"
         height="3"
         x="23"
         y="4"
         id="rect18" />
      <rect
         width="3"
         height="3"
         x="23"
         y="9"
         id="rect19" />
      <rect
         width="3"
         height="3"
         x="23"
         y="14"
         id="rect20" />
      <rect
         width="3"
         height="3"
         x="23"
         y="19"
         id="rect21" />
      <rect
         width="3"
         height="3"
         x="23"
         y="24"
         id="rect22" />
    </g>
    <rect
       style="opacity:1;stroke-width:1.02046;fill:#202b42;fill-opacity:1"
       width="24.54501"
       height="20.363636"
       x="19.631351"
       y="34.054554"
       id="rect23" />
    <path
       style="opacity:0.1;fill:#ffffff;stroke-width:1.02046"
       d="m 12.268634,3.50909 c -1.586421,0 -2.8643787,1.2723012 -2.8643787,2.8517042 v 1.018182 c 0,-1.5794039 1.2779577,-2.8517042 2.8643787,-2.8517042 h 39.272419 c 1.585197,0 2.862388,1.2723003 2.862388,2.8517042 v -1.018182 c 0,-1.579403 -1.277191,-2.8517042 -2.862388,-2.8517042 z"
       id="path23" />
  </g>
  <path
     style="opacity:0.2;fill-rule:evenodd;stroke-width:0.730815"
     d="M 56.719153,48.525815 A 11.749999,11.636364 0 0 1 44.999996,59.545452 11.749999,11.636364 0 0 1 33.28084,48.746906 11.749999,11.636364 0 0 0 33.25,49.363633 11.749999,11.636364 0 0 0 44.999999,60.999997 11.749999,11.636364 0 0 0 56.749998,49.363633 11.749999,11.636364 0 0 0 56.718448,48.525568 Z"
     id="path24" />
  <ellipse
     style="fill:#8660cb;stroke-width:0.730815"
     cx="45"
     cy="48.636364"
     id="circle24"
     rx="11.749999"
     ry="11.636364" />
  <path
     style="fill:#ffffff;stroke-width:0.730815"
     d="m 44.999996,42.090906 a 6.6093744,6.5454548 0 0 0 -6.609375,6.545454 6.6093744,6.5454548 0 0 0 6.609375,6.545455 6.6093744,6.5454548 0 0 0 6.223542,-4.363636 h -2.412536 a 4.4062496,4.3636365 0 0 1 -3.811006,2.181818 4.4062496,4.3636365 0 0 1 -4.406248,-4.363637 4.4062496,4.3636365 0 0 1 4.406248,-4.363636 4.4062496,4.3636365 0 0 1 3.459595,1.664772 l -1.990844,1.971592 h 2.570312 0.304076 2.221772 0.04447 v -2.545455 -2.545455 l -1.586366,1.571023 a 6.6093744,6.5454548 0 0 0 -5.02301,-2.298295 z"
     id="path25" />
</svg>
