<?xml version="1.0" encoding="UTF-8" standalone="no"?>
<!-- Created with Inkscape (http://www.inkscape.org/) -->

<svg
   width="62"
   height="62"
   viewBox="0 0 62 62"
   version="1.1"
   id="svg1"
   inkscape:version="1.4 (e7c3feb100, 2024-10-09)"
   sodipodi:docname="tux.svg"
   xmlns:inkscape="http://www.inkscape.org/namespaces/inkscape"
   xmlns:sodipodi="http://sodipodi.sourceforge.net/DTD/sodipodi-0.dtd"
   xmlns:xlink="http://www.w3.org/1999/xlink"
   xmlns="http://www.w3.org/2000/svg"
   xmlns:svg="http://www.w3.org/2000/svg">
  <sodipodi:namedview
     id="namedview1"
     pagecolor="#ffffff"
     bordercolor="#000000"
     borderopacity="0.25"
     inkscape:showpageshadow="2"
     inkscape:pageopacity="0.0"
     inkscape:pagecheckerboard="0"
     inkscape:deskcolor="#d1d1d1"
     inkscape:document-units="px"
     inkscape:zoom="7.5994534"
     inkscape:cx="39.213347"
     inkscape:cy="33.94981"
     inkscape:window-width="1920"
     inkscape:window-height="998"
     inkscape:window-x="0"
     inkscape:window-y="0"
     inkscape:window-maximized="1"
     inkscape:current-layer="layer1"
     showgrid="false">
    <inkscape:grid
       id="grid1"
       units="px"
       originx="0"
       originy="0"
       spacingx="1"
       spacingy="1"
       empcolor="#0099e5"
       empopacity="0.30196078"
       color="#0099e5"
       opacity="0.14901961"
       empspacing="5"
       enabled="true"
       visible="false" />
  </sodipodi:namedview>
  <defs
     id="defs1">
    <linearGradient
       id="linearGradient1"
       inkscape:collect="always">
      <stop
         style="stop-color:#232f46;stop-opacity:1;"
         offset="0"
         id="stop2" />
      <stop
         style="stop-color:#334466;stop-opacity:1"
         offset="1"
         id="stop3" />
    </linearGradient>
    <radialGradient
       id="paint664_radial_890_11"
       cx="0"
       cy="0"
       r="1"
       gradientUnits="userSpaceOnUse"
       gradientTransform="matrix(-16.000099,-9.999913,9.999913,-16.000099,583,171)">
      <stop
         offset="0.42141"
         stop-color="#B7C6CD"
         id="stop2071" />
      <stop
         offset="1"
         stop-color="#EFF2F6"
         id="stop2072" />
    </radialGradient>
    <linearGradient
       id="paint665_linear_890_11"
       x1="605"
       y1="180"
       x2="601.466"
       y2="162.72301"
       gradientUnits="userSpaceOnUse">
      <stop
         stop-color="#5200FF"
         id="stop2073" />
      <stop
         offset="1"
         stop-color="#0085FF"
         id="stop2074" />
    </linearGradient>
    <linearGradient
       id="paint666_linear_890_11"
       x1="567"
       y1="181"
       x2="562.11798"
       y2="174.183"
       gradientUnits="userSpaceOnUse">
      <stop
         stop-color="#5200FF"
         id="stop2075" />
      <stop
         offset="0.670391"
         stop-color="#0085FF"
         id="stop2076" />
    </linearGradient>
    <linearGradient
       id="paint667_linear_890_11"
       x1="605"
       y1="180"
       x2="597.32001"
       y2="174.24001"
       gradientUnits="userSpaceOnUse">
      <stop
         stop-color="#5200FF"
         id="stop2077" />
      <stop
         offset="1"
         stop-color="#0085FF"
         id="stop2078" />
    </linearGradient>
    <linearGradient
       id="paint668_linear_890_11"
       x1="567"
       y1="180"
       x2="561.23999"
       y2="172.32001"
       gradientUnits="userSpaceOnUse">
      <stop
         stop-color="#5200FF"
         id="stop2079" />
      <stop
         offset="1"
         stop-color="#0085FF"
         id="stop2080" />
    </linearGradient>
    <linearGradient
       id="paint669_linear_890_11"
       x1="607"
       y1="179"
       x2="602.50598"
       y2="171.80901"
       gradientUnits="userSpaceOnUse">
      <stop
         stop-color="#5200FF"
         id="stop2081" />
      <stop
         offset="1"
         stop-color="#0085FF"
         id="stop2082" />
    </linearGradient>
    <linearGradient
       id="paint670_linear_890_11"
       x1="607"
       y1="217"
       x2="568.82599"
       y2="170.01601"
       gradientUnits="userSpaceOnUse">
      <stop
         stop-color="#5200FF"
         id="stop2083" />
      <stop
         offset="1"
         stop-color="#0085FF"
         id="stop2084" />
    </linearGradient>
    <radialGradient
       id="paint671_radial_890_11"
       cx="0"
       cy="0"
       r="1"
       gradientUnits="userSpaceOnUse"
       gradientTransform="matrix(0,20,-16,0,583,187)">
      <stop
         offset="0.869716"
         stop-color="#EFF2F6"
         id="stop2085" />
      <stop
         offset="1"
         stop-color="#B7C6CD"
         id="stop2086" />
    </radialGradient>
    <linearGradient
       id="paint497_linear_890_11"
       x1="497"
       y1="413"
       x2="447.457"
       y2="376.79599"
       gradientUnits="userSpaceOnUse"
       gradientTransform="translate(-452,-358)">
      <stop
         offset="0.636456"
         stop-color="#71706E"
         id="stop1737" />
      <stop
         offset="1"
         stop-color="#B9AA99"
         id="stop1738" />
    </linearGradient>
    <linearGradient
       id="paint498_linear_890_11"
       x1="507"
       y1="413"
       x2="457.457"
       y2="376.79599"
       gradientUnits="userSpaceOnUse"
       gradientTransform="translate(-452,-358)">
      <stop
         offset="0.544933"
         stop-color="#FF7E07"
         id="stop1739" />
      <stop
         offset="1"
         stop-color="#FFE607"
         id="stop1740" />
    </linearGradient>
    <linearGradient
       id="paint499_linear_890_11"
       x1="473"
       y1="365"
       x2="486.28699"
       y2="389.91299"
       gradientUnits="userSpaceOnUse"
       gradientTransform="translate(-452,-358)">
      <stop
         stop-color="white"
         id="stop1741" />
      <stop
         offset="0.705"
         stop-color="#EAEFEF"
         id="stop1742" />
    </linearGradient>
    <linearGradient
       id="paint500_linear_890_11"
       x1="480"
       y1="371.5"
       x2="480"
       y2="368.5"
       gradientUnits="userSpaceOnUse"
       gradientTransform="translate(-452,-358)">
      <stop
         offset="0.155999"
         stop-color="#71706E"
         id="stop1743" />
      <stop
         offset="0.796276"
         stop-color="#B9AA99"
         id="stop1744" />
    </linearGradient>
    <linearGradient
       id="paint501_linear_890_11"
       x1="479"
       y1="375.5"
       x2="479"
       y2="372.5"
       gradientUnits="userSpaceOnUse"
       gradientTransform="translate(-452,-358)">
      <stop
         offset="0.155999"
         stop-color="#71706E"
         id="stop1745" />
      <stop
         offset="0.796276"
         stop-color="#B9AA99"
         id="stop1746" />
    </linearGradient>
    <linearGradient
       id="paint502_linear_890_11"
       x1="511"
       y1="417"
       x2="455.64352"
       y2="380.82346"
       gradientUnits="userSpaceOnUse"
       gradientTransform="translate(-452,-358)">
      <stop
         offset="0.18397722"
         stop-color="#2E2E41"
         id="stop1747"
         style="stop-color:#33424d;stop-opacity:1;" />
      <stop
         offset="1"
         stop-color="#566C80"
         id="stop1748" />
    </linearGradient>
    <linearGradient
       id="paint745_linear_890_11"
       x1="172"
       y1="61"
       x2="195.978"
       y2="83.979202"
       gradientUnits="userSpaceOnUse">
      <stop
         stop-color="#EFF2F6"
         id="stop2233" />
      <stop
         offset="1"
         stop-color="#ACD1CF"
         id="stop2234" />
    </linearGradient>
    <linearGradient
       id="paint746_linear_890_11"
       x1="176"
       y1="84"
       x2="175.47501"
       y2="78.479202"
       gradientUnits="userSpaceOnUse">
      <stop
         offset="0.404925"
         stop-color="#2E2E41"
         id="stop2235" />
      <stop
         offset="1"
         stop-color="#566C80"
         id="stop2236" />
    </linearGradient>
    <linearGradient
       id="paint747_linear_890_11"
       x1="202"
       y1="84"
       x2="201.47501"
       y2="78.479202"
       gradientUnits="userSpaceOnUse">
      <stop
         offset="0.404925"
         stop-color="#2E2E41"
         id="stop2237" />
      <stop
         offset="1"
         stop-color="#566C80"
         id="stop2238" />
    </linearGradient>
    <linearGradient
       id="paint748_linear_890_11"
       x1="155"
       y1="82"
       x2="186.461"
       y2="132.33701"
       gradientUnits="userSpaceOnUse">
      <stop
         offset="0.205721"
         stop-color="#EFF2F6"
         id="stop2239" />
      <stop
         offset="1"
         stop-color="#B7C6CD"
         id="stop2240" />
    </linearGradient>
    <radialGradient
       id="paint750_radial_890_11"
       cx="0"
       cy="0"
       r="1"
       gradientUnits="userSpaceOnUse"
       gradientTransform="matrix(5.6470608,5.6470608,-5.6470608,5.6470608,172,96)">
      <stop
         offset="0.340843"
         stop-color="#2E2E41"
         id="stop2243" />
      <stop
         offset="1"
         stop-color="#566C80"
         id="stop2244" />
    </radialGradient>
    <linearGradient
       id="paint751_linear_890_11"
       x1="166"
       y1="90"
       x2="178"
       y2="102"
       gradientUnits="userSpaceOnUse">
      <stop
         stop-color="white"
         id="stop2245" />
      <stop
         offset="0.705"
         stop-color="#EAEFEF"
         id="stop2246" />
    </linearGradient>
    <linearGradient
       id="paint752_linear_890_11"
       x1="193"
       y1="88"
       x2="199"
       y2="94"
       gradientUnits="userSpaceOnUse">
      <stop
         stop-color="#FFE607"
         id="stop2247" />
      <stop
         offset="0.802569"
         stop-color="#FF7E07"
         id="stop2248" />
    </linearGradient>
    <linearGradient
       id="paint753_linear_890_11"
       x1="199"
       y1="104"
       x2="193"
       y2="98"
       gradientUnits="userSpaceOnUse">
      <stop
         offset="0.253846"
         stop-color="#089953"
         id="stop2249" />
      <stop
         offset="1"
         stop-color="#16D96F"
         id="stop2250" />
    </linearGradient>
    <linearGradient
       id="paint754_linear_890_11"
       x1="198"
       y1="93"
       x2="204"
       y2="99"
       gradientUnits="userSpaceOnUse">
      <stop
         offset="0.30755"
         stop-color="#F15700"
         id="stop2251" />
      <stop
         offset="0.832479"
         stop-color="#FF0000"
         id="stop2252" />
    </linearGradient>
    <linearGradient
       id="paint755_linear_890_11"
       x1="194"
       y1="99"
       x2="188"
       y2="93"
       gradientUnits="userSpaceOnUse">
      <stop
         offset="0.320751"
         stop-color="#5200FF"
         id="stop2253" />
      <stop
         offset="1"
         stop-color="#0085FF"
         id="stop2254" />
    </linearGradient>
    <linearGradient
       id="paint711_linear_890_11"
       x1="785.19843"
       y1="61.085037"
       x2="785.21344"
       y2="116.9138"
       gradientUnits="userSpaceOnUse"
       gradientTransform="matrix(0.35714286,0,0,0.35714286,-293.53986,16.980161)">
      <stop
         offset="0.0001"
         stop-color="#EFF2F6"
         id="stop2165"
         style="stop-color:#547097;stop-opacity:1;" />
      <stop
         offset="0.61014605"
         stop-color="#EFF2F6"
         id="stop1"
         style="stop-color:#9955ff;stop-opacity:1" />
      <stop
         offset="1"
         stop-color="#B7C6CD"
         id="stop2166"
         style="stop-color:#475b63;stop-opacity:1;" />
    </linearGradient>
    <radialGradient
       id="paint712_radial_890_11"
       cx="0"
       cy="0"
       r="1"
       gradientUnits="userSpaceOnUse"
       gradientTransform="matrix(22.216699,21.999996,-21.99894,22.215633,30.867,31)">
      <stop
         offset="0.420978"
         stop-color="#F15700"
         id="stop2167" />
      <stop
         offset="0.792773"
         stop-color="#FF0000"
         id="stop2168" />
    </radialGradient>
    <radialGradient
       id="paint713_radial_890_11"
       cx="0"
       cy="0"
       r="1"
       gradientUnits="userSpaceOnUse"
       gradientTransform="matrix(-16.688097,16.851418,-13.741875,-13.608691,50.791,10.8957)">
      <stop
         stop-color="#FFE607"
         id="stop2169" />
      <stop
         offset="0.903378"
         stop-color="#FF7E07"
         id="stop2170" />
    </radialGradient>
    <radialGradient
       id="paint714_radial_890_11"
       cx="0"
       cy="0"
       r="1"
       gradientUnits="userSpaceOnUse"
       gradientTransform="matrix(-22.961171,-7.4640815,7.4454397,-22.903825,31.961,30.8155)">
      <stop
         offset="0.440692"
         stop-color="#001AFF"
         id="stop2171" />
      <stop
         offset="1"
         stop-color="#0085FF"
         id="stop2172" />
    </radialGradient>
    <linearGradient
       id="a"
       x1="3.9389999"
       x2="7.4949999"
       y1="19.903999"
       y2="29.028"
       gradientUnits="userSpaceOnUse"
       gradientTransform="matrix(1.5769232,0,0,1.5769232,6.5427079,5.7692283)">
      <stop
         stop-color="#F25565"
         id="stop12-3" />
      <stop
         offset=".5"
         stop-color="#DA4453"
         id="stop13-6" />
      <stop
         offset="1"
         stop-color="#832932"
         id="stop14-7" />
    </linearGradient>
    <linearGradient
       id="b"
       x1="12"
       x2="19.5"
       y1="6.5"
       y2="20"
       gradientUnits="userSpaceOnUse"
       gradientTransform="matrix(1.5769232,0,0,1.5769232,6.5427079,5.7692283)">
      <stop
         stop-color="#C5CACD"
         id="stop15" />
      <stop
         offset="0.53799999"
         stop-color="#ACB6BC"
         id="stop16"
         style="stop-color:#c9d0d3;stop-opacity:1;" />
      <stop
         offset="0.87300003"
         stop-color="#9BA3A8"
         id="stop17-5"
         style="stop-color:#cdd2d4;stop-opacity:1;" />
      <stop
         offset="1"
         stop-color="#A0AAB0"
         id="stop18-3"
         style="stop-color:#d3d8db;stop-opacity:1;" />
    </linearGradient>
    <linearGradient
       id="c"
       x1="20"
       x2="20"
       y1="3"
       y2="9.5"
       gradientUnits="userSpaceOnUse"
       gradientTransform="matrix(1.5769232,0,0,1.5769232,6.5427079,5.7692283)">
      <stop
         stop-color="#fff"
         id="stop19-5" />
      <stop
         offset="1"
         stop-color="#fff"
         stop-opacity="0"
         id="stop20-6" />
    </linearGradient>
    <linearGradient
       id="e"
       x1="22"
       x2="14"
       y1="20.5"
       y2="3.5"
       gradientUnits="userSpaceOnUse">
      <stop
         stop-color="#C9D1D9"
         id="stop23" />
      <stop
         offset=".435"
         stop-color="#2D3B49"
         id="stop24" />
      <stop
         offset=".6"
         stop-color="#6D7E91"
         id="stop25" />
      <stop
         offset="1"
         stop-color="#A4A9AF"
         id="stop26" />
    </linearGradient>
    <linearGradient
       id="g"
       x1="20"
       x2="23"
       y1="16"
       y2="19"
       gradientUnits="userSpaceOnUse"
       gradientTransform="matrix(1.5769232,0,0,1.5769232,6.5427079,5.7692283)">
      <stop
         offset=".5"
         stop-color="#222E3C"
         stop-opacity="0"
         id="stop31" />
      <stop
         offset="1"
         stop-color="#222E3C"
         id="stop32" />
    </linearGradient>
    <radialGradient
       id="h"
       cx="0"
       cy="0"
       r="1"
       gradientTransform="matrix(4.7307691,4.7307691,-3.4124135,3.4124135,50.696527,18.384601)"
       gradientUnits="userSpaceOnUse">
      <stop
         stop-color="#fff"
         id="stop33" />
      <stop
         offset="1"
         stop-color="#fff"
         stop-opacity="0"
         id="stop34" />
    </radialGradient>
    <filter
       id="filter30427-0-36"
       x="-0.1339518"
       y="-0.3388412"
       width="1.2679036"
       height="1.6776824"
       color-interpolation-filters="sRGB">
      <feGaussianBlur
         stdDeviation="0.48299559"
         id="feGaussianBlur37-2-7" />
    </filter>
    <linearGradient
       id="paint512_linear_890_11"
       x1="309"
       y1="411"
       x2="263.34399"
       y2="359.388"
       gradientUnits="userSpaceOnUse"
       gradientTransform="matrix(1.1071499,0,0,1.1145834,-282.32342,-402.82293)">
      <stop
         offset="0.285926"
         stop-color="#2E2E41"
         id="stop1767"
         style="stop-color:#535d6c;stop-opacity:1" />
      <stop
         offset="1"
         stop-color="#566C80"
         id="stop1768"
         style="stop-color:#6f7c91;stop-opacity:1" />
    </linearGradient>
    <linearGradient
       id="paint513_linear_890_11"
       x1="261"
       y1="371"
       x2="291.44299"
       y2="412.85901"
       gradientUnits="userSpaceOnUse"
       gradientTransform="matrix(1.1071499,0,0,1.1145834,-282.32342,-402.82293)">
      <stop
         offset="0.554849"
         stop-color="#EFF2F6"
         id="stop1769" />
      <stop
         offset="1"
         stop-color="#B7C6CD"
         id="stop1770" />
    </linearGradient>
    <linearGradient
       id="paint514_linear_890_11"
       x1="279"
       y1="381"
       x2="273"
       y2="375"
       gradientUnits="userSpaceOnUse"
       gradientTransform="matrix(0.39285964,0,0,0.39583333,-128.12504,-141.26852)">
      <stop
         offset="0.178269"
         stop-color="#5200FF"
         id="stop1771" />
      <stop
         offset="0.732905"
         stop-color="#0085FF"
         id="stop1772" />
    </linearGradient>
    <linearGradient
       id="paint515_linear_890_11"
       x1="279"
       y1="389"
       x2="273"
       y2="383"
       gradientUnits="userSpaceOnUse"
       gradientTransform="matrix(0.39285964,0,0,0.39583333,-128.12504,-141.26852)">
      <stop
         offset="0.158885"
         stop-color="#FF7E07"
         id="stop1773" />
      <stop
         offset="0.804651"
         stop-color="#FFC807"
         id="stop1774" />
    </linearGradient>
    <linearGradient
       id="paint516_linear_890_11"
       x1="265"
       y1="375"
       x2="271"
       y2="381"
       gradientUnits="userSpaceOnUse"
       gradientTransform="matrix(0.39285964,0,0,0.39583333,-128.12504,-141.26852)">
      <stop
         offset="0.243963"
         stop-color="#F15700"
         id="stop1775" />
      <stop
         offset="0.831224"
         stop-color="#FF0000"
         id="stop1776" />
    </linearGradient>
    <linearGradient
       id="paint517_linear_890_11"
       x1="271"
       y1="389"
       x2="265"
       y2="383"
       gradientUnits="userSpaceOnUse"
       gradientTransform="matrix(0.39285964,0,0,0.39583333,-128.12504,-141.26852)">
      <stop
         stop-color="#089953"
         id="stop1777" />
      <stop
         offset="1"
         stop-color="#16D96F"
         id="stop1778" />
    </linearGradient>
    <linearGradient
       id="paint518_linear_890_11"
       x1="284"
       y1="369"
       x2="282"
       y2="367"
       gradientUnits="userSpaceOnUse"
       gradientTransform="matrix(0.39285964,0,0,0.39583333,-128.12504,-141.26852)">
      <stop
         stop-color="#71706E"
         id="stop1779" />
      <stop
         offset="1"
         stop-color="#B9AA99"
         id="stop1780" />
    </linearGradient>
    <linearGradient
       id="paint519_linear_890_11"
       x1="292.52399"
       y1="413.5"
       x2="292.52399"
       y2="407"
       gradientUnits="userSpaceOnUse"
       gradientTransform="matrix(1.1071499,0,0,1.1145834,-282.32342,-402.82293)">
      <stop
         offset="0.298086"
         stop-color="#2E2E41"
         id="stop1781"
         style="stop-color:#535d6c;stop-opacity:1" />
      <stop
         offset="1"
         stop-color="#566C80"
         id="stop1782"
         style="stop-color:#6f7c91;stop-opacity:1" />
    </linearGradient>
    <linearGradient
       id="paint520_linear_890_11"
       x1="288"
       y1="409"
       x2="287.23099"
       y2="405.15399"
       gradientUnits="userSpaceOnUse"
       gradientTransform="matrix(0.39285964,0,0,0.39583333,-100.17928,-142.97917)">
      <stop
         offset="0.384873"
         stop-color="#2E2E41"
         id="stop1783" />
      <stop
         offset="1"
         stop-color="#566C80"
         id="stop1784" />
    </linearGradient>
    <filter
       id="filter30427-0-36-3"
       x="-0.1339518"
       y="-0.3388412"
       width="1.2679036"
       height="1.6776824"
       color-interpolation-filters="sRGB">
      <feGaussianBlur
         stdDeviation="0.48299559"
         id="feGaussianBlur37-2-7-8" />
    </filter>
    <linearGradient
       id="f-9-3"
       gradientUnits="userSpaceOnUse"
       x1="9.1779842"
       x2="11.427132"
       y1="7.534945"
       y2="9.7840929"
       gradientTransform="matrix(1.5980876,0,0,1.613539,3.9228614,4.8784344)">
      <stop
         offset="0"
         id="stop2617-1-6" />
      <stop
         offset="1"
         stop-opacity="0"
         id="stop2619-2-0" />
    </linearGradient>
    <linearGradient
       inkscape:collect="always"
       xlink:href="#linearGradient1"
       id="linearGradient3"
       x1="28.471693"
       y1="44.017151"
       x2="28.532057"
       y2="11.131614"
       gradientUnits="userSpaceOnUse" />
  </defs>
  <g
     inkscape:label="Layer 1"
     inkscape:groupmode="layer"
     id="layer1">
    <g
       id="g1"
       transform="matrix(1.667742,0,0,1.6573207,-14.803218,-15.402247)">
      <path
         d="m 22.893293,21.302864 c 0.449291,-1.720854 0.01754,-3.550319 0.07859,-5.324269 0.137305,-3.873743 2.36134,-4.752276 4.64158,-4.866917 2.615935,-0.132742 5.712383,1.366067 5.899619,5.020172 0.08877,1.748616 -0.23111,3.555147 0.236074,5.247043 1.087051,3.946153 5.753547,6.795333 5.820969,10.876651 0.06233,3.878539 -1.784743,8.449844 -5.191969,10.496475 -1.759796,1.057186 -4.147369,-0.211296 -6.215409,-0.07603 -2.300185,0.152222 -4.858724,2.127554 -6.843158,0.989561 -3.60208,-2.067127 -4.595539,-7.367305 -4.325966,-11.409959 0.27459,-4.107868 4.857491,-6.960677 5.899637,-10.952684 z"
         stroke-width="1.03191"
         id="path2622-7-8"
         style="fill:url(#linearGradient3);fill-opacity:1" />
      <ellipse
         cx="29.123329"
         cy="17.623211"
         fill-opacity="0.941"
         rx="2.0252578"
         ry="2.7697577"
         stroke-width="1.18204"
         id="ellipse2624-0-7"
         fill="#fcfcfc" />
      <ellipse
         cx="24.816818"
         cy="17.569481"
         fill="#fcfcfc"
         fill-opacity="0.941"
         rx="1.4644763"
         ry="2.4747286"
         stroke-width="1.25248"
         id="ellipse2626-9-9" />
      <ellipse
         cx="28.2229"
         cy="18.062527"
         fill="#232629"
         rx="0.93655646"
         ry="1.443671"
         stroke-width="1.25304"
         id="ellipse2628-3-2" />
      <ellipse
         cx="24.711708"
         cy="18.216963"
         fill="#232629"
         rx="0.79003078"
         ry="1.5224549"
         stroke-width="1.56971"
         id="ellipse2630-6-0" />
      <path
         d="m 29.055006,20.464167 a 6.3252186,6.1159225 0 0 0 -0.680199,0.0048 c -1.535124,0.08689 -3.180082,0.66976 -4.011297,1.375721 -1.330442,1.130746 -0.541661,2.230116 -1.114526,3.818228 -0.572864,1.588112 -2.014384,3.666175 -2.446217,5.647695 -0.17473,0.800091 -0.396886,1.600181 -0.54915,2.40389 l 4.109893,4.856053 c 0.807502,0.95335 -1.29924,0.599766 -3.25871,-0.627522 1.39035,1.891013 4.148584,3.765131 6.871874,3.587736 2.900515,-0.188257 6.325216,-3.120716 7.421024,-5.518571 -1.063356,-0.173782 -2.096759,-1.720858 -1.245573,-2.873325 0.295792,-0.399441 0.931061,-0.434438 1.476467,-0.349964 -0.328244,-1.228495 -0.982231,-2.329072 -1.310475,-3.253459 -0.569118,-1.612248 -1.230596,-2.06358 -1.834662,-3.494813 -0.605313,-1.431232 0.0337,-4.078891 -1.669917,-5.109474 -0.47926,-0.289626 -1.092062,-0.434438 -1.758532,-0.467021 z"
         id="path2632-6-3"
         style="fill:#f9f9f9;stroke-width:1.03191" />
      <path
         d="m 18.161282,34.052433 c -0.076,0.003 -0.149546,0.01277 -0.223805,0.02935 -0.758827,0.170157 -1.042283,1.128518 -1.650093,1.599161 -0.787532,0.608212 -2.111182,0.683857 -2.560488,1.555146 -0.421847,0.820605 0.47112,1.851659 0.238979,2.739844 -0.08737,0.337897 -0.61547,0.529053 -0.591757,0.876604 0.05741,0.879737 0.98769,1.563494 1.771478,2.01362 0.98972,0.569599 2.272856,0.386601 3.383638,0.68588 0.762571,0.20515 1.44678,0.789403 2.238056,0.759234 1.302985,-0.04826 2.9918,-0.39863 3.58089,-1.522136 0.436825,-0.833889 -0.16416,-1.915582 -0.62969,-2.736187 C 23.27168,39.26734 22.31768,38.86382 21.753552,38.15303 20.907361,37.083829 20.741817,35.508347 19.667229,34.653951 19.255522,34.326614 18.69327,34.031672 18.161282,34.052431 Z m 15.7195,0.304426 c -0.250864,0.217219 -0.463548,0.491381 -0.61831,0.762902 -0.671459,1.179018 -0.218633,2.703036 -0.595551,3.997902 -0.25211,0.862842 -0.986487,1.580243 -1.100061,2.468428 -0.11857,0.929213 -0.258551,2.150112 0.466577,2.769186 0.978486,0.832674 2.679016,0.553211 3.907115,0.132036 0.747593,-0.255837 1.16017,-1.047732 1.790445,-1.511133 0.916085,-0.675792 2.177712,-0.962753 2.879127,-1.844903 0.555391,-0.699928 1.155774,-1.667605 0.872463,-2.505105 -0.112335,-0.330656 -0.669125,-0.322802 -0.880049,-0.605188 -0.555391,-0.742164 -0.125581,-2.011847 -0.830737,-2.622475 -0.52419,-0.452539 -1.296955,-0.402487 -2.040804,-0.421796 -0.359444,0.74458 -1.527884,1.250331 -2.332889,1.034319 -0.681446,-0.183435 -1.36007,-0.931319 -1.517326,-1.654178 z"
         id="path2634-2-7"
         style="fill:#d38d5f;stroke-width:1.03191" />
      <path
         d="m 30.847236,20.034556 4.159816,4.022172 -5.823493,2.87212 -5.616316,-5.430477"
         opacity="0.2"
         id="path2636-6-5"
         style="fill:url(#f-9-3);stroke-width:1.02876" />
      <path
         d="m 26.497637,18.615045 c 0.865633,-0.03989 1.661685,0.446851 2.443242,0.771743 0.755312,0.31577 2.045244,0.410367 2.15163,1.131961 0.122095,0.819609 -1.208485,1.302946 -1.986113,1.778301 -0.694895,0.425198 -1.469884,0.92334 -2.318482,0.916513 -0.857751,-0.0082 -1.617004,-0.541473 -2.318449,-0.970084 -0.57797,-0.353389 -1.488294,-0.679409 -1.510621,-1.293835 -0.02506,-0.656604 0.906371,-1.074965 1.510621,-1.472813 0.598994,-0.3944 1.276798,-0.827585 2.028172,-0.861786 z"
         stroke-width="1.0289"
         id="path2640-1-9"
         style="fill:#ffcc00" />
      <path
         d="m 18.161293,34.052426 c -0.07598,0.0037 -0.149475,0.01352 -0.223789,0.02886 -0.758819,0.170102 -1.042276,1.128509 -1.6501,1.599166 -0.787517,0.608185 -2.111167,0.683828 -2.560479,1.55511 -0.258087,0.502179 -0.0232,1.082705 0.144101,1.66151 0.542059,-0.671363 1.700071,-0.785558 2.416339,-1.338745 0.607818,-0.470631 0.891268,-1.428993 1.650091,-1.599151 0.07427,-0.01605 0.147836,-0.02422 0.22379,-0.02759 0.531985,-0.01718 1.094235,0.273948 1.505938,0.601523 1.074588,0.854395 1.240137,2.429874 2.086324,3.499077 0.564128,0.710793 1.518124,1.11431 1.964939,1.899909 0.178081,0.314268 0.375228,0.665107 0.527275,1.027003 0.03695,-0.05482 0.07157,-0.110041 0.10243,-0.16844 0.436856,-0.835391 -0.16409,-1.917066 -0.62966,-2.737716 -0.446825,-0.785617 -1.400827,-1.1891 -1.964957,-1.899921 -0.846179,-1.069183 -1.011732,-2.644685 -2.086318,-3.499066 -0.411707,-0.327338 -0.973957,-0.622298 -1.50594,-0.601526 z m 15.719465,0.304488 c -0.250939,0.217267 -0.463526,0.491387 -0.618289,0.762894 -0.671465,1.179041 -0.219062,2.703056 -0.595545,3.997911 -0.252222,0.862865 -0.986489,1.580238 -1.10005,2.468414 -0.07809,0.611716 -0.163397,1.349025 -0.0086,1.958616 0.0042,-0.02394 0.0053,-0.05536 0.0086,-0.08036 0.113812,-0.888142 0.847915,-1.60556 1.10005,-2.468392 0.376918,-1.294869 -0.0758,-2.818906 0.595545,-3.997922 0.154892,-0.271386 0.367629,-0.5457 0.618289,-0.76291 0.15754,0.722872 0.835903,1.470751 1.517322,1.654203 0.80505,0.21614 1.973462,-0.2899 2.332897,-1.034307 0.743875,0.01689 1.516664,-0.02889 2.04083,0.42176 0.705152,0.610621 0.275675,1.880331 0.830752,2.622486 0.131828,0.176859 0.397776,0.238103 0.606902,0.341147 0.283013,-0.525168 0.449065,-1.093831 0.273388,-1.613865 -0.112612,-0.330875 -0.669103,-0.322624 -0.880019,-0.605183 -0.555415,-0.742231 -0.125497,-2.011907 -0.830778,-2.622537 -0.524207,-0.452629 -1.297013,-0.402587 -2.040863,-0.421895 -0.359418,0.744596 -1.527861,1.250335 -2.332903,1.034324 -0.681416,-0.183336 -1.360043,-0.931291 -1.517294,-1.654147 z m -20.146267,5.949097 c -0.174817,0.17058 -0.375301,0.327918 -0.360406,0.54653 0.02675,0.410126 0.247134,0.77557 0.550042,1.096649 0.01712,-0.02875 0.03358,-0.06237 0.04171,-0.09529 0.128699,-0.492555 -0.08431,-1.027617 -0.231361,-1.547806 z"
         fill="#f9bf5b"
         stroke-width="1.03191"
         id="path2642-8-2" />
    </g>
  </g>
</svg>
