<?xml version="1.0" encoding="UTF-8" standalone="no"?>
<!-- Created with Inkscape (http://www.inkscape.org/) -->

<svg
   width="62"
   height="62"
   version="1.1"
   viewBox="0 0 62 62"
   id="svg4"
   sodipodi:docname="twitter-x.svg"
   inkscape:version="1.4 (e7c3feb100, 2024-10-09)"
   xmlns:inkscape="http://www.inkscape.org/namespaces/inkscape"
   xmlns:sodipodi="http://sodipodi.sourceforge.net/DTD/sodipodi-0.dtd"
   xmlns:xlink="http://www.w3.org/1999/xlink"
   xmlns="http://www.w3.org/2000/svg"
   xmlns:svg="http://www.w3.org/2000/svg">
  <defs
     id="defs4">
    <linearGradient
       id="linearGradient4"
       inkscape:collect="always">
      <stop
         style="stop-color:#33404c;stop-opacity:1;"
         offset="0"
         id="stop4" />
      <stop
         style="stop-color:#3a4856;stop-opacity:1;"
         offset="0.20090972"
         id="stop6" />
      <stop
         style="stop-color:#516679;stop-opacity:1;"
         offset="0.86932033"
         id="stop7" />
      <stop
         style="stop-color:#566c80;stop-opacity:1;"
         offset="1"
         id="stop5" />
    </linearGradient>
    <linearGradient
       inkscape:collect="always"
       xlink:href="#linearGradient4"
       id="linearGradient5"
       x1="55.809574"
       y1="57.489105"
       x2="13.310161"
       y2="4.9824572"
       gradientUnits="userSpaceOnUse" />
  </defs>
  <sodipodi:namedview
     id="namedview4"
     pagecolor="#ffffff"
     bordercolor="#000000"
     borderopacity="0.25"
     inkscape:showpageshadow="2"
     inkscape:pageopacity="0.0"
     inkscape:pagecheckerboard="0"
     inkscape:deskcolor="#d1d1d1"
     inkscape:zoom="8.2643105"
     inkscape:cx="29.343041"
     inkscape:cy="36.784678"
     inkscape:window-width="1920"
     inkscape:window-height="994"
     inkscape:window-x="0"
     inkscape:window-y="0"
     inkscape:window-maximized="1"
     inkscape:current-layer="svg4" />
  <g
     id="g7"
     transform="translate(-0.5,-1.0000005)">
    <rect
       x="4"
       y="4.9824572"
       width="55"
       height="55.017544"
       ry="7.8596497"
       style="opacity:0.2;stroke-width:0.982303"
       id="rect1" />
    <rect
       x="4"
       y="4"
       width="55"
       height="55.017544"
       ry="7.8596497"
       style="fill:url(#linearGradient5);stroke-width:0.982303"
       id="rect2" />
    <path
       d="M 12.839285,12.842105 28.492189,33.719299 12.839285,52.140352 h 3.928572 L 30.333705,36.17544 42.303573,52.140352 h 7.857142 L 34.507811,31.263159 50.160715,12.842105 H 46.232142 L 32.666295,28.807018 20.696428,12.842105 Z m 3.928572,1.964914 h 2.946429 l 26.517856,35.368422 h -2.946428 z"
       style="opacity:0.2;stroke-width:0.982303"
       id="path2" />
    <path
       d="M 12.339285,11.350877 27.992189,32.22807 12.339285,50.649123 h 3.928572 L 29.833705,34.684209 41.803573,50.649123 h 7.857142 L 34.007811,29.77193 49.660715,11.350877 H 45.732142 L 32.166295,27.31579 20.196428,11.350877 Z m 3.928572,1.96491 h 2.946429 L 45.732142,48.68421 h -2.946428 z"
       style="fill:#ffffff;stroke-width:0.982303"
       id="path3" />
    <path
       d="M 11.857144,4 C 7.5042942,4 4,7.505412 4,11.85965 v 0.982455 C 4,8.4878682 7.5042942,4.982456 11.857144,4.982456 H 51.142857 C 55.495707,4.982456 59,8.4878682 59,12.842105 V 11.85965 C 59,7.505412 55.495707,4 51.142857,4 Z"
       style="opacity:0.1;fill:#ffffff;stroke-width:0.982303"
       id="path4" />
  </g>
</svg>
