<?xml version="1.0" encoding="UTF-8" standalone="no"?>
<svg
   width="62"
   height="62"
   version="1.1"
   id="svg13"
   sodipodi:docname="ubiquity-kde.svg"
   inkscape:version="1.4 (e7c3feb100, 2024-10-09)"
   xmlns:inkscape="http://www.inkscape.org/namespaces/inkscape"
   xmlns:sodipodi="http://sodipodi.sourceforge.net/DTD/sodipodi-0.dtd"
   xmlns="http://www.w3.org/2000/svg"
   xmlns:svg="http://www.w3.org/2000/svg">
  <defs
     id="defs13" />
  <sodipodi:namedview
     id="namedview13"
     pagecolor="#ffffff"
     bordercolor="#000000"
     borderopacity="0.25"
     inkscape:showpageshadow="2"
     inkscape:pageopacity="0.0"
     inkscape:pagecheckerboard="0"
     inkscape:deskcolor="#d1d1d1"
     inkscape:zoom="11.6875"
     inkscape:cx="31.957219"
     inkscape:cy="32"
     inkscape:window-width="1920"
     inkscape:window-height="994"
     inkscape:window-x="0"
     inkscape:window-y="0"
     inkscape:window-maximized="1"
     inkscape:current-layer="svg13" />
  <g
     id="g13"
     transform="translate(-0.5,-1)">
    <rect
       style="opacity:0.2;stroke-width:0.982303"
       width="55"
       height="16.701752"
       x="4"
       y="43.298248"
       rx="2.7499995"
       ry="2.7508771"
       id="rect1" />
    <path
       style="fill:#d9d9d9;stroke-width:0.982303;fill-opacity:1"
       d="m 17.995534,4 h 27.008927 c 4.488885,0 8.102678,3.6395092 8.102678,8.129826 v 33.77193 c 0,4.490318 -3.613793,8.105264 -8.102678,8.105264 H 17.995534 c -4.488884,0 -8.1026773,-3.614946 -8.1026773,-8.105264 V 12.129826 C 9.8928567,7.6395092 13.50665,4 17.995534,4 Z"
       id="path1" />
    <path
       style="opacity:0.1;stroke-width:1.6624"
       d="m 20.20536,27.578954 h 11.294638 11.294641 l -5.647321,5.403508 -5.64732,5.403508 -5.647321,-5.403508 z"
       id="path2" />
    <path
       style="fill:#d38d5f;stroke-width:1.6624"
       d="m 20.20536,26.596492 h 11.294638 11.294641 l -5.647321,5.40351 -5.64732,5.40351 -5.647321,-5.40351 z"
       id="path3" />
    <rect
       style="opacity:1;fill:#d38d5f;stroke-width:0.982303"
       width="5.8928576"
       height="5.8947382"
       x="25.607138"
       y="8.912281"
       id="rect3" />
    <rect
       style="opacity:1;fill:#d38d5f;stroke-width:0.982303"
       width="5.8928576"
       height="5.8947382"
       x="31.5"
       y="8.912281"
       id="rect4" />
    <rect
       style="opacity:1;fill:#d38d5f;stroke-width:0.982303"
       width="5.8928576"
       height="5.8947382"
       x="25.607138"
       y="14.807016"
       id="rect5" />
    <rect
       style="opacity:1;fill:#d38d5f;stroke-width:0.982303"
       width="5.8928576"
       height="5.8947382"
       x="31.5"
       y="14.807016"
       id="rect6" />
    <rect
       style="fill:#d38d5f;stroke-width:0.982303"
       width="5.8928576"
       height="5.8947382"
       x="25.607138"
       y="20.701752"
       id="rect7" />
    <rect
       style="opacity:1;fill:#d38d5f;stroke-width:0.982303"
       width="5.8928576"
       height="5.8947382"
       x="31.5"
       y="20.701752"
       id="rect8" />
    <rect
       style="fill:#d38d5f;stroke-width:0.982303"
       width="55"
       height="16.701752"
       x="4"
       y="42.315796"
       rx="2.7499995"
       ry="2.7508771"
       id="rect9" />
    <rect
       style="opacity:0.2;stroke-width:0.982303"
       width="21.999996"
       height="0.98245621"
       x="12.249995"
       y="52.140358"
       id="rect10" />
    <path
       style="opacity:0.3;stroke-width:0.982303"
       d="m 50.651783,46.245616 a 4.4196426,4.421053 0 0 0 -4.156842,2.94737 H 31.89324 v 2.947368 h 14.601701 a 4.4196426,4.421053 0 0 0 4.156842,2.94737 4.4196426,4.421053 0 0 0 4.419643,-4.421054 4.4196426,4.421053 0 0 0 -4.419643,-4.421054 z"
       id="path10" />
    <ellipse
       style="opacity:0.2;stroke-width:0.982303"
       cx="12.348212"
       cy="51.649132"
       id="circle10"
       rx="4.4196434"
       ry="4.4210539" />
    <ellipse
       style="fill:#ffffff;stroke-width:0.982303"
       cx="12.348212"
       cy="50.666679"
       id="circle11"
       rx="4.4196434"
       ry="4.4210539" />
    <rect
       style="fill:#ffffff;stroke-width:0.982303"
       width="21.999996"
       height="2.9473691"
       x="12.249995"
       y="49.192993"
       id="rect11" />
    <ellipse
       style="opacity:0.2;stroke-width:0.982303"
       cx="31.008926"
       cy="51.649132"
       id="circle12"
       rx="4.4196434"
       ry="4.4210539" />
    <ellipse
       style="fill:#ffffff;stroke-width:0.982303"
       cx="31.008926"
       cy="50.666679"
       id="circle13"
       rx="4.4196434"
       ry="4.4210539" />
    <path
       style="opacity:0.2;fill:#ffffff;stroke-width:0.982303"
       d="M 17.995534,4 C 13.50665,4 9.8928567,7.6398928 9.8928567,12.130211 v 0.982454 c 0,-4.490316 3.6137933,-8.130209 8.1026773,-8.130209 h 27.008927 c 4.488885,0 8.102678,3.639893 8.102678,8.130209 V 12.130211 C 53.107139,7.6398928 49.493346,4 45.004461,4 Z"
       id="path13" />
  </g>
</svg>
