<?xml version="1.0" encoding="UTF-8" standalone="no"?>
<svg
   width="62"
   height="62"
   version="1.1"
   id="svg5"
   sodipodi:docname="ue4editor.svg"
   inkscape:version="1.4 (unknown)"
   xmlns:inkscape="http://www.inkscape.org/namespaces/inkscape"
   xmlns:sodipodi="http://sodipodi.sourceforge.net/DTD/sodipodi-0.dtd"
   xmlns:xlink="http://www.w3.org/1999/xlink"
   xmlns="http://www.w3.org/2000/svg"
   xmlns:svg="http://www.w3.org/2000/svg">
  <defs
     id="defs5">
    <linearGradient
       id="linearGradient5"
       inkscape:collect="always">
      <stop
         style="stop-color:#48596b;stop-opacity:1;"
         offset="0"
         id="stop5" />
      <stop
         style="stop-color:#243a85;stop-opacity:1;"
         offset="1"
         id="stop6" />
    </linearGradient>
    <linearGradient
       inkscape:collect="always"
       xlink:href="#linearGradient5"
       id="linearGradient6"
       x1="31.5"
       y1="60"
       x2="31.5"
       y2="4"
       gradientUnits="userSpaceOnUse" />
  </defs>
  <sodipodi:namedview
     id="namedview5"
     pagecolor="#ffffff"
     bordercolor="#000000"
     borderopacity="0.25"
     inkscape:showpageshadow="2"
     inkscape:pageopacity="0.0"
     inkscape:pagecheckerboard="0"
     inkscape:deskcolor="#d1d1d1"
     inkscape:zoom="5"
     inkscape:cx="28.9"
     inkscape:cy="35.9"
     inkscape:window-width="1920"
     inkscape:window-height="998"
     inkscape:window-x="0"
     inkscape:window-y="0"
     inkscape:window-maximized="1"
     inkscape:current-layer="svg5" />
  <g
     id="g5"
     transform="translate(-0.5,-1)">
    <path
       style="opacity:0.2;stroke-width:0.982303"
       d="M 31.5,4.982456 A 27.5,27.50877 0 0 0 4,32.49123 27.5,27.50877 0 0 0 31.5,60 27.5,27.50877 0 0 0 59,32.49123 27.5,27.50877 0 0 0 31.5,4.982456 Z"
       id="path1" />
    <path
       style="fill:url(#linearGradient6);stroke-width:0.982303"
       d="M 31.5,4 A 27.5,27.50877 0 0 0 4,31.50877 27.5,27.50877 0 0 0 31.5,59.01754 27.5,27.50877 0 0 0 59,31.50877 27.5,27.50877 0 0 0 31.5,4 Z"
       id="path2" />
    <path
       style="opacity:0.2;stroke-width:0.982303"
       d="m 31.391121,50.326886 c -4.557359,-0.594088 -8.917356,-1.936054 -11.540488,-4.19893 -0.743487,-0.641382 -2.230268,-2.197406 -2.100628,-2.2404 0.424693,0.08206 1.313366,0.47539 2.180321,0.498796 0.866953,0.02342 2.304852,-0.891576 2.730196,-1.590332 v -7.33219 c 0,-8.086166 0.185031,-7.94861 -0.386573,-8.447908 -0.694278,-0.606442 -3.72718,-0.417422 -5.110171,0.509136 -2.109557,1.413334 -4.62361,4.548346 -6.408713,7.806862 -0.317015,0.578674 -0.603218,1.07732 -0.636003,1.108112 -0.03278,0.03077 -0.03899,-0.59764 -0.01378,-1.396538 0.06957,-2.202966 0.478656,-3.743388 1.598274,-6.017634 1.021085,-2.074098 1.536216,-2.628504 3.715557,-5.00336 3.615635,-3.940013 7.18484,-6.662381 10.715794,-8.173367 0.834324,-0.357039 3.419727,-1.043062 3.597801,-1.043062 0.02867,0 -1.217938,0.727964 -1.509785,0.94119 -1.749392,1.278137 -2.354013,2.167348 -2.607964,3.724094 -0.187866,1.151585 0.464536,2.551611 0.971718,3.120193 0.262756,0.29457 0.359649,0.345368 0.725393,0.380334 0.50157,-0.05259 1.707341,-0.261788 2.223602,-0.305176 v 18.273526 c 0,1.37544 0.586529,1.462198 1.953288,1.462198 1.388707,0 2.566771,-1.04623 3.939573,-1.936786 V 25.073576 L 34.940535,23.31115 c -0.20116,-0.726518 -0.744489,-1.598058 -1.476283,-2.609364 1.406023,0.02608 2.305448,1.71016 3.535722,2.16141 3.584675,-2.839146 6.12148,-5.144379 10.214283,-6.09123 -1.783104,2.824618 -3.004564,4.030626 -4.910714,6.77895 V 39.99677 c 0.194268,0.23287 2.198826,0.527754 2.675414,0.570742 3.236072,-0.459126 4.015252,-2.280952 6.163873,-4.146426 0.06334,0.063 -1.668338,3.329776 -2.399175,4.425514 -2.226996,3.33893 -5.433305,5.424072 -8.397724,7.309514 -0.555935,0.353582 -0.562177,0.355258 -0.755657,0.203214 -1.399736,-0.637898 -2.197445,-0.98393 -3.827805,-2.219782 -1.590623,1.515358 -2.36457,2.622768 -4.025375,4.232384 -0.05264,-0.007 -0.208245,-0.0271 -0.345907,-0.04506 z"
       id="path3" />
    <path
       style="fill:#ffffff;stroke-width:0.982303"
       d="m 31.391121,49.3444 c -4.557359,-0.594088 -8.917356,-1.936064 -11.540488,-4.19894 -0.743487,-0.641382 -2.230268,-2.197396 -2.100628,-2.24039 0.424693,0.08206 1.313366,0.47539 2.180321,0.498786 0.866953,0.02342 2.304852,-0.891576 2.730196,-1.590322 v -7.3322 c 0,-8.086156 0.185031,-7.94861 -0.386573,-8.447898 -0.694278,-0.606442 -3.72718,-0.417432 -5.110171,0.509126 -2.109557,1.413344 -4.62361,4.548346 -6.408713,7.806872 -0.317015,0.578664 -0.603218,1.07732 -0.636003,1.108112 -0.03278,0.03081 -0.03899,-0.59765 -0.01378,-1.396538 0.06957,-2.202968 0.478656,-3.743398 1.598274,-6.017644 1.021085,-2.074098 1.536216,-2.628504 3.715557,-5.00336 3.615635,-3.940003 7.18484,-6.662381 10.715794,-8.173367 0.834324,-0.357029 3.419727,-1.043052 3.597801,-1.043052 0.02867,0 -1.217938,0.727954 -1.509785,0.94118 -1.749392,1.278147 -2.354013,2.167358 -2.607964,3.724094 -0.187866,1.151595 0.464536,2.551621 0.971718,3.120193 0.262756,0.29457 0.359649,0.345378 0.725393,0.380334 0.50157,-0.05259 1.707341,-0.261778 2.223602,-0.305176 v 18.273536 c 0,1.37544 0.586529,1.462198 1.953288,1.462198 1.388707,0 2.566771,-1.046232 3.939573,-1.936796 V 24.09108 l -0.488006,-1.762426 c -0.201156,-0.726508 -0.744485,-1.598048 -1.476279,-2.609354 1.406023,0.02608 2.305448,1.71015 3.535722,2.1614 3.584675,-2.839146 6.12148,-5.144369 10.214283,-6.09123 -1.783104,2.824618 -3.004564,4.030636 -4.910714,6.77895 v 16.44586 c 0.194268,0.232874 2.198826,0.527748 2.675414,0.570736 3.236072,-0.459126 4.015252,-2.280952 6.163872,-4.146416 0.06334,0.063 -1.668337,3.329776 -2.399174,4.425512 -2.226996,3.338932 -5.433305,5.424064 -8.397724,7.309506 -0.555935,0.353592 -0.562177,0.355268 -0.755657,0.203214 -1.399736,-0.637898 -2.197445,-0.98393 -3.827805,-2.219782 -1.590623,1.515358 -2.36457,2.622778 -4.025375,4.232384 -0.05264,-0.007 -0.208245,-0.0271 -0.345907,-0.04506 z"
       id="path4" />
    <path
       style="opacity:0.1;fill:#ffffff;stroke-width:0.982303"
       d="M 31.5,4 A 27.5,27.50877 0 0 0 4,31.50877 27.5,27.50877 0 0 0 4.0211007,31.90789 27.5,27.50877 0 0 1 31.5,4.982456 27.5,27.50877 0 0 1 58.978903,32.076755 27.5,27.50877 0 0 0 59,31.50877 27.5,27.50877 0 0 0 31.5,4 Z"
       id="path5" />
  </g>
</svg>
