<?xml version="1.0" encoding="UTF-8" standalone="no"?>
<svg
   width="62"
   height="62"
   viewBox="0 0 62 62"
   fill="none"
   version="1.1"
   id="svg8"
   sodipodi:docname="ukuu.svg"
   inkscape:version="1.4 (unknown)"
   xmlns:inkscape="http://www.inkscape.org/namespaces/inkscape"
   xmlns:sodipodi="http://sodipodi.sourceforge.net/DTD/sodipodi-0.dtd"
   xmlns:xlink="http://www.w3.org/1999/xlink"
   xmlns="http://www.w3.org/2000/svg"
   xmlns:svg="http://www.w3.org/2000/svg">
  <sodipodi:namedview
     id="namedview8"
     pagecolor="#ffffff"
     bordercolor="#000000"
     borderopacity="0.25"
     inkscape:showpageshadow="2"
     inkscape:pageopacity="0.0"
     inkscape:pagecheckerboard="0"
     inkscape:deskcolor="#d1d1d1"
     inkscape:zoom="12.109375"
     inkscape:cx="31.95871"
     inkscape:cy="32"
     inkscape:window-width="1920"
     inkscape:window-height="998"
     inkscape:window-x="0"
     inkscape:window-y="0"
     inkscape:window-maximized="1"
     inkscape:current-layer="svg8" />
  <g
     id="g8"
     transform="translate(1.7967587e-5,-2.7137997e-5)">
    <path
       opacity="0.4"
       fill-rule="evenodd"
       clip-rule="evenodd"
       d="m 24.404798,7.8601584 c 2.080973,-0.5443968 4.322423,-0.8787738 6.673351,-0.8593569 h 0.01169 c 4.825354,0.016712 9.917671,1.321443 14.212287,4.5272715 0.414013,0.309836 0.797129,0.659542 1.143556,1.042956 0.782353,0.86365 1.271009,1.931994 1.67575,3.033837 0.08989,0.244758 0.271401,0.445198 0.507086,0.556814 1.067091,0.505346 2.109845,1.071621 2.824526,2.02034 0.0011,0.0016 0.0024,0.0029 0.0037,0.0042 v 0 c 0.0014,0.0014 0.0026,0.0028 0.0037,0.0043 l 6.01372,8.028842 c 3.109537,4.160309 1.194439,9.879148 -3.289325,11.886262 -0.271206,0.121368 -0.485361,0.346236 -0.578441,0.628357 -2.387138,7.23509 -8.015411,13.341976 -16.011429,15.402773 -0.0505,0.01365 -0.101379,0.02538 -0.152742,0.03517 -0.385241,0.06759 -0.762469,0.148014 -1.155238,0.231821 -1.310779,0.279612 -2.795358,0.59631 -5.334089,0.59631 -0.0054,0 -0.01061,0 -0.01592,0 -0.0066,0 -0.01287,0 -0.01919,0 -0.24302,-0.0045 -0.06818,-0.0043 -0.01189,-0.0041 -4.829775,-0.01774 -9.919205,-1.329382 -14.208413,-4.53123 C 16.283471,50.154992 15.900453,49.805281 15.55393,49.42188 14.773026,48.559666 14.283608,47.492195 13.878372,46.39141 13.788382,46.146848 13.60707,45.946693 13.371574,45.835173 12.303526,45.329347 11.2598,44.76259 10.545034,43.812515 l -0.004,-0.004 -6.01546,-8.031055 C 1.4163094,31.617556 3.3315835,25.898706 7.814993,23.891307 8.0861487,23.769846 8.300261,23.545072 8.3933464,23.26295 10.780403,16.027859 16.408691,9.9209747 24.404798,7.8601584 Z m 16.966327,8.8721406 c -3.082794,-2.305552 -6.56647,-3.223472 -10.326763,-3.232451 -1.706652,-0.01631 -3.384615,0.227279 -4.99239,0.650079 -6.893983,1.777325 -11.577697,7.766325 -12.417978,14.430016 -0.06327,0.501779 -0.480348,0.892619 -0.986078,0.892619 H 9.933462 c -0.7949405,0 -1.2493025,0.906813 -0.7733993,1.543574 l 7.0667263,9.454522 c 0.386202,0.516642 1.160542,0.516642 1.546756,0 l 7.066794,-9.454522 c 0.475912,-0.636761 0.02152,-1.543574 -0.773378,-1.543574 h -2.486579 c -0.559719,0 -1.006558,-0.475322 -0.928442,-1.029524 0.243883,-1.730205 0.812283,-3.240851 1.923982,-4.43809 l 0.01247,-0.01346 0.01198,-0.01355 c 3.018395,-3.41329 8.991464,-4.839551 13.330875,-2.571458 0.09166,0.04791 0.173413,0.113159 0.246981,0.185959 1.443451,1.428 3.492468,1.20516 4.755265,0.379543 0.6999,-0.457461 1.331734,-1.193563 1.53024,-2.159562 0.210575,-1.025085 -0.120501,-2.046885 -0.87814,-2.884959 l -0.03487,-0.03851 c -0.0418,-0.04627 -0.08803,-0.08833 -0.138066,-0.125701 z m 10.69579,15.767548 c 0.794908,0 1.249283,-0.906814 0.773377,-1.543572 l -7.0668,-9.454524 c -0.38621,-0.51664 -1.160551,-0.51664 -1.546754,0 l -7.066706,9.454524 c -0.475901,0.636758 -0.02152,1.543572 0.773376,1.543572 H 40.42 c 0.559706,0 1.006545,0.475422 0.92844,1.029621 -0.243894,1.730106 -0.812293,3.240754 -1.92399,4.437992 l -0.01768,0.01906 -0.017,0.01957 c -3.251375,3.753636 -8.959593,4.868132 -13.32112,2.560639 -0.09078,-0.04793 -0.171857,-0.112763 -0.244757,-0.184983 -1.442863,-1.429357 -3.492271,-1.208834 -4.756031,-0.383993 -0.700098,0.456887 -1.332511,1.192609 -1.531213,2.158709 -0.210766,1.025079 0.120791,2.046796 0.878234,2.884475 l 0.03478,0.03851 c 0.0418,0.04627 0.08803,0.08842 0.138064,0.125803 l 0.04146,0.03101 c 3.083571,2.306035 6.568886,3.228294 10.332658,3.236312 l 0.61532,0.0013 c 0.0052,0 0.0098,-0.0021 0.01356,-0.0056 v 0 c 0.0034,-0.0035 0.0081,-0.0055 0.01287,-0.0057 1.482356,-0.04097 2.938069,-0.270345 4.344825,-0.640135 6.89397,-1.777324 11.57778,-7.766419 12.417976,-14.430114 0.06327,-0.501682 0.480342,-0.892616 0.986079,-0.892616 z"
       id="path1"
       style="fill:url(#linearGradient10);fill-opacity:1;opacity:1" />
    <path
       d="m 31.044362,13.499848 c 3.760293,0.0091 7.243969,0.926899 10.326763,3.232451 l 0.04165,0.031 c 0.04991,0.03734 0.09618,0.07948 0.138065,0.125701 l 0.03478,0.03851 c 0.757737,0.838076 1.088816,1.859877 0.878136,2.884968 -0.198416,0.966 -0.83034,1.702101 -1.53024,2.159562 -1.262711,0.825617 -3.311726,1.048458 -4.755265,-0.379542 -0.07349,-0.0728 -0.155259,-0.138064 -0.246979,-0.185959 -4.339418,-2.268086 -10.312486,-0.841829 -13.330883,2.571464 l -0.01198,0.01355 -0.01238,0.01346 c -1.111796,1.197239 -1.680196,2.707879 -1.924077,4.43809 -0.07811,0.554203 0.368722,1.029524 0.928441,1.029524 h 2.486579 c 0.794914,0 1.24929,0.906814 0.773378,1.543575 l -7.066792,9.454512 c -0.386116,0.516643 -1.160556,0.516643 -1.546658,0 L 9.1600843,31.016141 C 8.6841915,30.37938 9.1385423,29.472566 9.933455,29.472566 h 2.714454 c 0.50573,0 0.922838,-0.39093 0.986177,-0.892618 0.840182,-6.663691 5.523897,-12.652694 12.417879,-14.430016 1.607775,-0.4228 3.285836,-0.666399 4.99239,-0.65008 z"
       id="path2" />
    <path
       d="m 45.773492,21.501751 7.0668,9.454524 c 0.475906,0.636758 0.02152,1.543572 -0.773377,1.543572 H 49.35237 c -0.505641,0 -0.922839,0.390933 -0.98608,0.892622 -0.840099,6.66369 -5.524009,12.65278 -12.417882,14.430107 -1.406851,0.369787 -2.862467,0.599199 -4.344924,0.640133 -0.0049,9.5e-5 -0.0096,0.0022 -0.01287,0.0056 -0.0036,0.0036 -0.0085,0.0057 -0.01345,0.0057 l -0.615322,-0.0013 c -3.763774,-0.0081 -7.249088,-0.930292 -10.332753,-3.23633 l -0.04145,-0.03098 c -0.05001,-0.03734 -0.09618,-0.07958 -0.13807,-0.125803 l -0.03478,-0.03851 c -0.757438,-0.8377 -1.088996,-1.859402 -0.878229,-2.884494 0.198706,-0.96609 0.831114,-1.701818 1.531211,-2.158699 1.263761,-0.824841 3.313263,-1.04536 4.75613,0.383989 0.0729,0.07211 0.154,0.137007 0.244661,0.18499 4.361527,2.307492 10.069746,1.192994 13.321215,-2.560638 l 0.017,-0.0196 0.01758,-0.01908 c 1.111691,-1.197238 1.680189,-2.707892 1.923986,-4.438092 0.07811,-0.55411 -0.368736,-1.029531 -0.928345,-1.029531 h -2.486671 c -0.794911,0 -1.24918,-0.906806 -0.77328,-1.543564 l 7.066706,-9.454519 c 0.386105,-0.516654 1.160546,-0.516654 1.546658,0 z"
       id="path3" />
  </g>
  <defs
     id="defs8">
    <linearGradient
       id="linearGradient8"
       inkscape:collect="always">
      <stop
         style="stop-color:#8d5fd3;stop-opacity:1"
         offset="0"
         id="stop9" />
      <stop
         style="stop-color:#2a7fff;stop-opacity:1"
         offset="1"
         id="stop10" />
    </linearGradient>
    <linearGradient
       id="paint0_linear_54_1470"
       x1="32"
       y1="56.714298"
       x2="32"
       y2="7"
       gradientUnits="userSpaceOnUse"
       gradientTransform="matrix(0.96551543,0,0,0.96551543,0.10344993,0.24139157)">
      <stop
         stop-color="#00B59C"
         id="stop3" />
      <stop
         offset="1"
         stop-color="#9CFFAC"
         id="stop4" />
    </linearGradient>
    <linearGradient
       id="paint1_linear_54_1470"
       x1="32"
       y1="56.714298"
       x2="32"
       y2="7"
       gradientUnits="userSpaceOnUse"
       gradientTransform="matrix(0.96551543,0,0,0.96551543,0.10344993,0.24139157)">
      <stop
         stop-color="#00B59C"
         id="stop5" />
      <stop
         offset="1"
         stop-color="#9CFFAC"
         id="stop6" />
    </linearGradient>
    <linearGradient
       id="paint2_linear_54_1470"
       x1="32"
       y1="56.714298"
       x2="32"
       y2="7"
       gradientUnits="userSpaceOnUse"
       gradientTransform="matrix(0.96551543,0,0,0.96551543,0.10344993,0.24139157)">
      <stop
         stop-color="#00B59C"
         id="stop7" />
      <stop
         offset="1"
         stop-color="#9CFFAC"
         id="stop8" />
    </linearGradient>
    <linearGradient
       inkscape:collect="always"
       xlink:href="#linearGradient8"
       id="linearGradient10"
       x1="30.169022"
       y1="55.8568"
       x2="32.501339"
       y2="7.0426235"
       gradientUnits="userSpaceOnUse" />
  </defs>
</svg>
