<?xml version="1.0" encoding="UTF-8" standalone="no"?>
<svg
   width="62"
   height="62"
   version="1.1"
   id="svg11"
   sodipodi:docname="unciv.svg"
   inkscape:version="1.4 (unknown)"
   xmlns:inkscape="http://www.inkscape.org/namespaces/inkscape"
   xmlns:sodipodi="http://sodipodi.sourceforge.net/DTD/sodipodi-0.dtd"
   xmlns="http://www.w3.org/2000/svg"
   xmlns:svg="http://www.w3.org/2000/svg">
  <defs
     id="defs11" />
  <sodipodi:namedview
     id="namedview11"
     pagecolor="#ffffff"
     bordercolor="#000000"
     borderopacity="0.25"
     inkscape:showpageshadow="2"
     inkscape:pageopacity="0.0"
     inkscape:pagecheckerboard="0"
     inkscape:deskcolor="#d1d1d1"
     inkscape:zoom="8.5626212"
     inkscape:cx="27.561654"
     inkscape:cy="37.897274"
     inkscape:window-width="1920"
     inkscape:window-height="998"
     inkscape:window-x="0"
     inkscape:window-y="0"
     inkscape:window-maximized="1"
     inkscape:current-layer="svg11" />
  <g
     id="g2"
     transform="matrix(0.98687648,0,0,0.9929087,0.3091865,0.02127294)">
    <path
       d="M 61.478854,32.060465 A 6.9105769,6.9766004 0 0 0 60.556968,28.406827 L 48.817243,7.8786056 A 6.9105769,6.9766004 0 0 0 42.831896,4.39 H 19.350919 a 6.9105769,6.9766004 0 0 0 -5.98474,3.4882997 L 1.6258422,28.406521 a 6.9105769,6.9766004 0 0 0 0,6.976602 L 13.366179,55.911342 a 6.9105769,6.9766004 0 0 0 5.985348,3.488608 h 23.480977 a 6.9105769,6.9766004 0 0 0 5.985347,-3.488608 L 60.557576,35.383123 a 6.9105769,6.9766004 0 0 0 0.921886,-3.323576 z"
       style="opacity:0.2;stroke-width:1.09276"
       id="path1" />
    <path
       d="M 61.495861,30.670466 A 6.9105769,6.9766004 0 0 0 60.573974,27.016828 L 48.834245,6.4886065 A 6.9105769,6.9766004 0 0 0 42.848897,3.0000009 H 19.367919 A 6.9105769,6.9766004 0 0 0 13.38318,6.4883007 L 1.6428422,27.016522 a 6.9105769,6.9766004 0 0 0 0,6.976602 L 13.38318,54.521343 a 6.9105769,6.9766004 0 0 0 5.985348,3.488608 h 23.480977 a 6.9105769,6.9766004 0 0 0 5.985348,-3.488608 L 60.574582,33.993124 a 6.9105769,6.9766004 0 0 0 0.921886,-3.323576 z"
       style="fill:#2d3d53;fill-opacity:1;stroke-width:1.09276"
       id="path2" />
    <g
       id="g1"
       transform="matrix(0.9111052,0,0,0.90892647,3.0021072,3.2732198)">
      <path
         d="M 53.900476,21.703384 48.473612,12.901792 H 39.790628 L 34.363764,4.1001999 h -8.682983 l -5.426865,8.8015921 h -8.682983 l -5.4268645,8.801592 5.4268645,8.801592 -5.4268645,8.801592 5.4268645,8.801592 h 8.682983 l 5.426865,8.801592 h 8.682983 l 5.426864,-8.801592 h 8.682984 l 5.426864,-8.801592 -5.426864,-8.801592 z"
         style="opacity:0.2;stroke-width:1.09276"
         id="path4" />
      <path
         d="m 21.339289,30.504976 5.426865,8.801592 h 8.682983 l 5.426864,-8.801592 -5.426864,-8.801592 h -8.682983 z"
         style="fill:#f3f3f3;fill-opacity:1;stroke-width:1.09276"
         id="path5" />
      <path
         d="m 21.339289,48.10816 5.426865,8.801592 h 8.682983 l 5.426864,-8.801592 -5.426864,-8.801592 h -8.682983 z"
         style="fill:#ffb380;stroke-width:1.09276"
         id="path6" />
      <path
         d="m 21.339289,12.901792 5.426865,8.801592 h 8.682983 l 5.426864,-8.801592 -5.426864,-8.8015921 h -8.682983 z"
         style="fill:#00d4aa;stroke-width:1.09276"
         id="path7" />
      <path
         d="m 35.449137,21.703384 5.426864,8.801592 h 8.682983 l 5.426865,-8.801592 -5.426865,-8.801592 h -8.682983 z"
         style="fill:#c83771;stroke-width:1.09276"
         id="path8" />
      <path
         d="m 35.449137,39.306568 5.426864,8.801592 h 8.682983 l 5.426865,-8.801592 -5.426865,-8.801592 h -8.682983 z"
         style="fill:#5069fc;fill-opacity:1;stroke-width:1.09276"
         id="path9" />
      <path
         d="m 7.2294414,21.703384 5.4268646,8.801592 h 8.682983 l 5.426865,-8.801592 -5.426865,-8.801592 h -8.682983 z"
         style="fill:#ffdd55;stroke-width:1.09276"
         id="path10" />
      <path
         d="m 7.2294414,39.306568 5.4268646,8.801592 h 8.682983 l 5.426865,-8.801592 -5.426865,-8.801592 h -8.682983 z"
         style="fill:#9955ff;stroke-width:1.09276"
         id="path11" />
    </g>
  </g>
</svg>
