<?xml version="1.0" encoding="UTF-8" standalone="no"?>
<svg
   width="62"
   height="62"
   version="1"
   id="svg4"
   sodipodi:docname="urserver.svg"
   inkscape:version="1.4 (unknown)"
   xmlns:inkscape="http://www.inkscape.org/namespaces/inkscape"
   xmlns:sodipodi="http://sodipodi.sourceforge.net/DTD/sodipodi-0.dtd"
   xmlns="http://www.w3.org/2000/svg"
   xmlns:svg="http://www.w3.org/2000/svg">
  <defs
     id="defs4" />
  <sodipodi:namedview
     id="namedview4"
     pagecolor="#ffffff"
     bordercolor="#000000"
     borderopacity="0.25"
     inkscape:showpageshadow="2"
     inkscape:pageopacity="0.0"
     inkscape:pagecheckerboard="0"
     inkscape:deskcolor="#d1d1d1"
     inkscape:zoom="6.0546875"
     inkscape:cx="34.931613"
     inkscape:cy="22.709677"
     inkscape:window-width="1920"
     inkscape:window-height="998"
     inkscape:window-x="0"
     inkscape:window-y="0"
     inkscape:window-maximized="1"
     inkscape:current-layer="svg4" />
  <g
     id="g4"
     transform="matrix(0.98214286,0,0,0.98245614,-0.42857152,-0.92982455)">
    <rect
       style="opacity:0.2"
       width="56"
       height="56"
       x="4"
       y="5"
       rx="28"
       ry="28"
       id="rect1" />
    <rect
       style="fill:#00aa88"
       width="56"
       height="56"
       x="4"
       y="4"
       rx="28"
       ry="28"
       id="rect2" />
    <path
       style="opacity:0.2"
       d="m 18.999857,15 c -1.9948,0 -3,0.971 -3,3 0,2.112 0.898199,3 3,3 14.912,0 25,10.088 25,25 0,1.866 1.018,3 3,3 2.04,0 3,-1.192 3,-3 0,-18.226 -12.774,-31 -31,-31 z m 23,0 8,8 v -4 c 0,-2.216 -1.784,-4 -4,-4 z m -23,12 c -1.9372,0 -3,0.856 -3,3 0,2.054 0.8404,2.999999 3,2.999999 8.284,0 12.999999,4.716001 12.999999,13.000001 0,1.766 1.014001,3 3.000001,3 1.938,0 3,-1.076 3,-3 0,-11.598 -7.402,-19 -19,-19 z m 1,12 c -3.313801,0 -6,2.686 -6,6 0,3.314001 2.686199,6 6,6 3.314,0 6,-2.685999 6,-6 0,-3.314 -2.686,-6 -6,-6 z"
       id="path2" />
    <path
       style="fill:#ffffff"
       d="m 18.999857,14.000171 c -1.9948,0 -3,0.971001 -3,3.000001 0,2.111999 0.898199,3 3,3 14.912,0 25,10.087999 25,24.999999 0,1.866 1.018,2.999999 3,2.999999 2.04,0 3,-1.192 3,-2.999999 0,-18.226 -12.774,-31 -31,-31 z m 23,0 8,8 v -4 c 0,-2.216 -1.784,-4 -4,-4 z m -23,12 c -1.9372,0 -3,0.856001 -3,3 0,2.054 0.8404,3 3,3 8.284,0 12.999999,4.716 12.999999,13 0,1.766 1.014001,2.999999 3.000001,2.999999 1.938,0 3,-1.075999 3,-2.999999 0,-11.598 -7.402,-19 -19,-19 z m 1,12 c -3.313801,0 -6,2.686 -6,5.999999 0,3.314001 2.686199,6.000001 6,6.000001 3.314,0 6,-2.686 6,-6.000001 0,-3.313999 -2.686,-5.999999 -6,-5.999999 z"
       id="path3" />
    <path
       style="opacity:0.2;fill:#ffffff"
       d="M 32,4 C 16.488222,4 4,16.488222 4,32 4,32.113554 4.011285,32.224034 4.017578,32.335938 4.3691162,17.134398 16.710946,5 32,5 47.289055,5 59.630884,17.134398 59.982422,32.335938 59.988797,32.224034 60,32.113554 60,32 60,16.488222 47.511779,4 32,4 Z"
       id="path4" />
  </g>
</svg>
