<?xml version="1.0" encoding="UTF-8" standalone="no"?>
<svg
   width="62"
   height="62"
   version="1"
   id="svg5"
   sodipodi:docname="usb.svg"
   inkscape:version="1.4 (unknown)"
   xmlns:inkscape="http://www.inkscape.org/namespaces/inkscape"
   xmlns:sodipodi="http://sodipodi.sourceforge.net/DTD/sodipodi-0.dtd"
   xmlns:xlink="http://www.w3.org/1999/xlink"
   xmlns="http://www.w3.org/2000/svg"
   xmlns:svg="http://www.w3.org/2000/svg"
   xmlns:rdf="http://www.w3.org/1999/02/22-rdf-syntax-ns#"
   xmlns:cc="http://creativecommons.org/ns#"
   xmlns:dc="http://purl.org/dc/elements/1.1/">
  <sodipodi:namedview
     id="namedview5"
     pagecolor="#ffffff"
     bordercolor="#000000"
     borderopacity="0.25"
     inkscape:showpageshadow="2"
     inkscape:pageopacity="0.0"
     inkscape:pagecheckerboard="0"
     inkscape:deskcolor="#d1d1d1"
     inkscape:zoom="8.3306018"
     inkscape:cx="37.752375"
     inkscape:cy="51.196781"
     inkscape:window-width="1920"
     inkscape:window-height="998"
     inkscape:window-x="0"
     inkscape:window-y="0"
     inkscape:window-maximized="1"
     inkscape:current-layer="svg5" />
  <metadata
     id="metadata1">
    <rdf:RDF>
      <cc:Work
         rdf:about="">
        <dc:format>image/svg+xml</dc:format>
        <dc:type
           rdf:resource="http://purl.org/dc/dcmitype/StillImage" />
      </cc:Work>
    </rdf:RDF>
  </metadata>
  <defs
     id="defs2">
    <linearGradient
       id="linearGradient1"
       inkscape:collect="always">
      <stop
         style="stop-color:#2c313a;stop-opacity:1;"
         offset="0"
         id="stop3" />
      <stop
         style="stop-color:#6f7c91;stop-opacity:1"
         offset="1"
         id="stop4" />
    </linearGradient>
    <linearGradient
       id="linearGradient895"
       x1="30.610914"
       x2="30.610914"
       y1="6"
       y2="23"
       gradientUnits="userSpaceOnUse"
       gradientTransform="matrix(0.35087719,0,0,0.35087719,3.8949315,3.8947368)">
      <stop
         stop-color="#dbdbdb"
         offset="0"
         id="stop1"
         style="stop-color:#eff2f6;stop-opacity:1;" />
      <stop
         stop-color="#b2b2b2"
         offset="1"
         id="stop2"
         style="stop-color:#b7c6cd;stop-opacity:1;" />
    </linearGradient>
    <linearGradient
       inkscape:collect="always"
       xlink:href="#linearGradient1"
       id="linearGradient4"
       x1="18.456335"
       y1="10.561403"
       x2="18.456335"
       y2="8.8070173"
       gradientUnits="userSpaceOnUse" />
    <linearGradient
       inkscape:collect="always"
       xlink:href="#linearGradient1"
       id="linearGradient6"
       x1="11.789669"
       y1="10.561403"
       x2="11.789669"
       y2="8.8070173"
       gradientUnits="userSpaceOnUse" />
    <linearGradient
       inkscape:collect="always"
       xlink:href="#linearGradient1"
       id="linearGradient8"
       x1="16.83849"
       y1="24.736992"
       x2="9.0695095"
       y2="11.964912"
       gradientUnits="userSpaceOnUse" />
    <linearGradient
       inkscape:collect="always"
       xlink:href="#linearGradient895"
       id="linearGradient7"
       x1="27.210377"
       y1="71.370941"
       x2="27.210377"
       y2="116.57016"
       gradientUnits="userSpaceOnUse" />
  </defs>
  <g
     id="g5"
     transform="matrix(2.7403848,0,0,3.0692308,-10.443131,-15.415385)">
    <rect
       x="8.4563351"
       y="6"
       width="13.333333"
       height="8.4210529"
       rx="1.4035088"
       ry="1.4035088"
       stroke-linecap="round"
       stroke-linejoin="round"
       stroke-width="0.701754"
       style="fill:url(#linearGradient895);paint-order:markers stroke fill"
       id="rect2" />
    <rect
       x="6.0002999"
       y="11.964912"
       width="18.245613"
       height="12.280702"
       rx="2.1053684"
       ry="2.1053684"
       fill="#4d4d4d"
       stroke-width="0.366982"
       id="rect3"
       style="fill:url(#linearGradient8)" />
    <rect
       x="10.210721"
       y="8.8070173"
       width="3.1578948"
       height="1.7543859"
       rx="0.3508772"
       ry="0.3508772"
       opacity="0.8"
       stroke-linecap="round"
       stroke-linejoin="round"
       stroke-width="3.50877"
       id="rect4"
       style="fill:url(#linearGradient6)" />
    <rect
       x="16.877388"
       y="8.8070173"
       width="3.1578948"
       height="1.7543859"
       rx="0.3508772"
       ry="0.3508772"
       opacity="0.8"
       stroke-linecap="round"
       stroke-linejoin="round"
       stroke-width="3.50877"
       id="rect5"
       style="fill:url(#linearGradient4)" />
  </g>
  <g
     id="g2"
     transform="matrix(0.675,0,0,0.67797728,12.632996,-23.556051)">
    <g
       id="g1">
      <path
         style="opacity:0.2"
         d="m 27.210377,71.370938 -7,11.199219 h 4 v 14 h -8.199219 v -3.697266 a 6,6 0 0 0 3.199219,-5.302734 6,6 0 0 0 -6,-6 6,6 0 0 0 -5.9999999,6 6,6 0 0 0 3.1992189,5.302734 v 3.697266 c 0,5.600003 5.601562,6.000003 5.601562,6.000003 h 8.199219 v 3.8125 a 6,6 0 0 0 -3,5.1875 6,6 0 0 0 6,6 6,6 0 0 0 6,-6 6,6 0 0 0 -3,-5.18946 v -3.81054 h 8.199219 c 0,0 5.601562,-0.4 5.601562,-6.000003 v -3 h 0.699219 c 1.385,0 2.5,-1.115 2.5,-2.5 v -7 c 0,-1.385 -1.115,-2.5 -2.5,-2.5 h -7 c -1.385,0 -2.5,1.115 -2.5,2.5 v 7 c 0,1.385 1.115,2.5 2.5,2.5 h 0.699219 v 3 h -8.199219 v -14 h 4 z"
         id="path2" />
      <path
         style="fill:url(#linearGradient7)"
         d="m 27.210377,70.370938 -7,11.199219 h 4 v 14 h -8.199219 v -3.697266 a 6,6 0 0 0 3.199219,-5.302734 6,6 0 0 0 -6,-6 6,6 0 0 0 -5.9999999,6 6,6 0 0 0 3.1992189,5.302734 v 3.697266 c 0,5.600003 5.601562,6.000003 5.601562,6.000003 h 8.199219 v 3.8125 a 6,6 0 0 0 -3,5.1875 6,6 0 0 0 6,6 6,6 0 0 0 6,-6 6,6 0 0 0 -3,-5.18946 v -3.81054 h 8.199219 c 0,0 5.601562,-0.4 5.601562,-6.000003 v -3 h 0.699219 c 1.385,0 2.5,-1.115 2.5,-2.5 v -7 c 0,-1.385 -1.115,-2.5 -2.5,-2.5 h -7 c -1.385,0 -2.5,1.115 -2.5,2.5 v 7 c 0,1.385 1.115,2.5 2.5,2.5 h 0.699219 v 3 h -8.199219 v -14 h 4 z"
         id="path3" />
    </g>
  </g>
</svg>
