<?xml version="1.0" encoding="UTF-8" standalone="no"?>
<svg
   width="62"
   height="62"
   version="1.1"
   id="svg6"
   sodipodi:docname="usbguard-icon.svg"
   inkscape:version="1.4 (unknown)"
   xmlns:inkscape="http://www.inkscape.org/namespaces/inkscape"
   xmlns:sodipodi="http://sodipodi.sourceforge.net/DTD/sodipodi-0.dtd"
   xmlns="http://www.w3.org/2000/svg"
   xmlns:svg="http://www.w3.org/2000/svg">
  <defs
     id="defs6" />
  <sodipodi:namedview
     id="namedview6"
     pagecolor="#ffffff"
     bordercolor="#000000"
     borderopacity="0.25"
     inkscape:showpageshadow="2"
     inkscape:pageopacity="0.0"
     inkscape:pagecheckerboard="0"
     inkscape:deskcolor="#d1d1d1"
     inkscape:zoom="10"
     inkscape:cx="30.2"
     inkscape:cy="36.75"
     inkscape:window-width="1920"
     inkscape:window-height="998"
     inkscape:window-x="0"
     inkscape:window-y="0"
     inkscape:window-maximized="1"
     inkscape:current-layer="svg6" />
  <g
     id="g6"
     transform="matrix(0.99909341,0,0,1,0.50274713,0.00100129)">
    <path
       style="opacity:0.2;stroke-width:0.949135"
       d="m 24.391897,3.9537047 c -0.737229,0.00741 -1.489189,0.024727 -2.24948,0.054917 -3.041813,0.120794 -6.218362,0.4543288 -9.135048,1.2500449 C 10.090676,6.0543812 7.3466703,7.3365471 5.4058128,9.6063606 4.1015052,11.131731 3.2894717,13.096449 3.0627137,15.344009 h -0.031642 c 4.305e-4,0.105478 0.00308,0.210948 0.00396,0.316433 -0.062281,0.830546 -0.041821,1.69767 0.063291,2.596851 0.3231612,8.019825 1.896006,15.961096 5.6026052,22.920526 4.1551291,7.801576 11.1253971,14.262437 21.3450091,17.64183 a 3.5127723,3.4834878 0 0 0 2.55272,-0.12684 C 50.439886,50.728596 57.485904,35.622112 57.957402,18.873161 a 2.3680331,2.3482914 0 0 0 0.02634,-0.227514 c 0.09764,-1.067152 0.08316,-2.080138 -0.01708,-3.042736 -0.0024,-0.100866 -0.0014,-0.201101 -0.004,-0.302053 l -0.03564,0.0014 C 57.622254,12.895399 56.725308,10.8422 55.325531,9.2716242 53.314307,7.0149776 50.533302,5.8013707 47.621136,5.093912 41.797445,3.6791478 35.044978,4.141544 30.467865,4.036082 h -0.0026 C 28.683574,3.9943335 26.603567,3.9315203 24.391867,3.953704 Z"
       id="path1" />
    <path
       style="fill:#0095e5;stroke-width:0.949135;fill-opacity:1"
       d="m 24.391897,3.004565 c -0.737229,0.0074 -1.489189,0.024727 -2.24948,0.054917 C 19.100604,3.180276 15.924055,3.5138108 13.007369,4.3095268 10.090676,5.1052415 7.3466703,6.3874073 5.4058128,8.6572211 4.1015052,10.182592 3.2894717,12.147311 3.0627137,14.39487 h -0.031642 c 4.305e-4,0.105477 0.00308,0.210948 0.00396,0.316433 -0.062281,0.830547 -0.041821,1.69767 0.063291,2.59685 0.3231585,8.019826 1.8960031,15.961097 5.6026023,22.92052 4.155129,7.80158 11.125397,14.262444 21.345009,17.641836 a 3.5127723,3.4834878 0 0 0 2.552719,-0.12684 C 50.439889,49.77945 57.485907,34.672973 57.957405,17.924022 a 2.3680331,2.3482914 0 0 0 0.02634,-0.227521 c 0.09764,-1.067145 0.08316,-2.080131 -0.01708,-3.042729 -0.0024,-0.100865 -0.0014,-0.2011 -0.004,-0.302053 l -0.03564,0.0014 C 57.622268,11.946258 56.725322,9.8930591 55.325543,8.3224825 53.314307,6.0658378 50.533302,4.852231 47.621136,4.1447723 41.797445,2.730008 35.044978,3.1924045 30.467865,3.0869423 h -0.0026 C 28.683668,3.0451931 26.603661,2.9823806 24.391961,3.0045638 Z"
       id="path2" />
    <path
       style="opacity:0.1;stroke-width:0.949135"
       d="m 17.711606,7.7456258 c -0.788731,0 -1.423702,0.5911572 -1.423702,1.3273082 V 19.135263 H 16.043206 9.8812298 C 10.228177,26.052782 11.689742,33.29979 14.712185,38.751985 17.987587,44.660486 22.6001,49.277374 30.524948,52.117759 38.449802,49.277374 43.06231,44.660486 46.337711,38.751985 49.36016,33.29979 50.821723,26.052782 51.168669,19.135263 H 45.006696 44.761998 V 9.072934 c 0,-0.7361512 -0.634972,-1.3273082 -1.423707,-1.3273082 z m 5.053409,1.8982724 h 4.130231 c 0.432226,-4.307e-4 0.782726,0.3500689 0.782294,0.7822968 v 4.130228 c 4.32e-4,0.432228 -0.350068,0.782727 -0.782294,0.782297 h -4.130231 c -0.43223,4.3e-4 -0.782727,-0.350069 -0.782295,-0.782297 v -4.130228 c -4.32e-4,-0.4322279 0.350065,-0.7827275 0.782295,-0.7822968 z m 11.389642,0 h 4.130225 c 0.432226,-4.307e-4 0.782733,0.3500689 0.782294,0.7822968 v 4.130228 c 4.39e-4,0.432228 -0.350068,0.782727 -0.782294,0.782297 h -4.130225 c -0.432232,4.3e-4 -0.782734,-0.350069 -0.782294,-0.782297 v -4.130228 c -4.4e-4,-0.4322279 0.350062,-0.7827275 0.782294,-0.7822968 z M 30.372943,21.033534 h 0.0038 c 5.037157,-2e-6 9.783378,3.746249 11.308071,8.09362 0.09028,0.258555 -0.09326,0.533539 -0.359634,0.533885 h -4.882868 c -0.123181,-9.2e-5 -0.239092,-0.064 -0.311435,-0.166837 -1.326266,-1.89413 -3.341479,-2.999422 -5.850538,-2.999422 -4.232181,0 -6.592047,2.74544 -6.592047,6.89236 0,4.193128 2.633527,7.119411 6.84045,6.999887 4.473522,-0.127107 5.861662,-2.287566 5.861662,-2.287566 H 29.987441 C 29.77592,38.09872 29.60628,37.924686 29.605562,37.706453 v -4.87544 c 6e-6,-0.218759 0.169841,-0.395968 0.381879,-0.396712 h 12.494478 c 0.212042,7.18e-4 0.381875,0.177941 0.381883,0.396712 v 0.52647 c 6.45e-4,0.01332 6.45e-4,0.02746 0,0.0408 2.7e-4,0.03228 -0.0038,0.06496 -0.0112,0.09639 -0.05293,6.45353 -5.30517,12.216433 -12.086675,12.216433 -7.076648,0 -12.579767,-5.428541 -12.579767,-12.38697 0,-6.8357 5.433408,-12.290579 12.186768,-12.290579 z"
       id="path3" />
    <path
       style="fill:#2d3d53;stroke-width:0.949135;fill-opacity:1"
       d="M 9.8812298,18.186126 C 10.228177,25.10364 11.689742,32.350655 14.712185,37.802849 17.987587,43.711351 22.6001,48.328238 30.524948,51.168624 38.449802,48.328238 43.06231,43.711351 46.337711,37.802849 49.36016,32.350655 50.821723,25.10364 51.168669,18.186126 H 45.006696 30.524948 16.043206 Z m 20.4917132,1.898272 h 0.0038 c 5.037157,-2e-6 9.783378,3.74625 11.308071,8.093613 0.09028,0.25856 -0.09326,0.533545 -0.359634,0.533891 h -4.882868 c -0.123181,-9.2e-5 -0.239092,-0.064 -0.311435,-0.166839 -1.326266,-1.894133 -3.341479,-2.99942 -5.850538,-2.99942 -4.232181,0 -6.592047,2.745441 -6.592047,6.892362 0,4.193128 2.633527,7.11941 6.84045,6.999887 4.473522,-0.127109 5.861662,-2.287573 5.861662,-2.287573 h -6.402963 c -0.211521,-7.34e-4 -0.381161,-0.17477 -0.381879,-0.393001 v -4.875447 c 6e-6,-0.218752 0.169841,-0.395962 0.381879,-0.396707 h 12.494478 c 0.212042,7.19e-4 0.381875,0.177943 0.381883,0.396707 v 0.526475 c 6.45e-4,0.01332 6.45e-4,0.02746 0,0.0408 2.7e-4,0.03228 -0.0038,0.06496 -0.0112,0.0964 -0.05293,6.453529 -5.30517,12.216433 -12.086675,12.216433 -7.076648,0 -12.579767,-5.428542 -12.579767,-12.386972 0,-6.835705 5.433408,-12.29058 12.186768,-12.29058 z"
       id="path4" />
    <path
       style="fill:#2d3d53;stroke-width:0.949135;fill-opacity:1"
       d="m 17.711606,6.7964894 c -0.788731,0 -1.423702,0.5911573 -1.423702,1.3273082 V 18.757096 c 0,0.736147 0.634971,1.327302 1.423702,1.327302 h 25.626685 c 0.788735,0 1.423707,-0.591155 1.423707,-1.327302 V 8.1237976 c 0,-0.7361509 -0.634972,-1.3273082 -1.423707,-1.3273082 z m 5.053409,1.8982729 h 4.130231 c 0.432226,-4.315e-4 0.782726,0.3500675 0.782294,0.782296 v 4.1302297 c 4.32e-4,0.432228 -0.350068,0.782726 -0.782294,0.782295 h -4.130231 c -0.43223,4.31e-4 -0.782727,-0.350067 -0.782295,-0.782295 V 9.4770583 c -4.32e-4,-0.4322285 0.350065,-0.7827275 0.782295,-0.782296 z m 11.389642,0 h 4.130225 c 0.432226,-4.315e-4 0.782733,0.3500675 0.782294,0.782296 v 4.1302297 c 4.39e-4,0.432228 -0.350068,0.782726 -0.782294,0.782295 h -4.130225 c -0.432232,4.31e-4 -0.782734,-0.350067 -0.782294,-0.782295 V 9.4770583 c -4.4e-4,-0.4322285 0.350062,-0.7827275 0.782294,-0.782296 z"
       id="path5" />
    <path
       style="opacity:0.2;fill:#ffffff;stroke-width:0.949135"
       d="m 24.392646,3.0036567 c -0.737236,0.0074 -1.490197,0.025426 -2.250489,0.055616 -3.04182,0.1207928 -6.218755,0.4537318 -9.135441,1.2494476 C 10.090023,5.1044338 7.3470658,6.3878775 5.4062082,8.6576922 4.1019008,10.183061 3.2897852,12.145736 3.0630273,14.393294 h -0.033367 c 4.309e-4,0.105478 0.00282,0.21336 0.00369,0.318852 -0.032222,0.429773 -0.028788,0.873883 -0.012978,1.323599 0.00442,-0.124782 0.00374,-0.251594 0.012978,-0.374462 -8.73e-4,-0.105492 -0.00325,-0.213376 -0.00369,-0.318853 h 0.033365 C 3.2897848,13.094871 4.1019004,11.132197 5.4062079,9.6068285 7.3470653,7.3370139 10.090023,6.0535702 13.006716,5.2578554 c 2.916686,-0.795716 6.093621,-1.1286549 9.135441,-1.2494489 0.760292,-0.030192 1.513253,-0.048231 2.250489,-0.055616 2.211694,-0.022181 4.291368,0.039818 6.072987,0.081564 h 0.0037 c 4.577104,0.1054629 11.327495,-0.3544 17.151186,1.0603634 2.912166,0.7074586 5.693085,1.9217808 7.704324,4.1784254 1.399776,1.5705777 2.297798,3.6216947 2.602708,6.0284987 h 0.03337 c 0.0026,0.100951 0.0052,0.199447 0.0076,0.300313 0.03216,0.308916 0.04335,0.629808 0.05373,0.950991 0.01685,-0.65212 0.0096,-1.29194 -0.05373,-1.900126 -0.0024,-0.100866 -0.0048,-0.199362 -0.0076,-0.300314 h -0.03337 C 57.622656,11.945708 56.72463,9.894586 55.324855,8.3240108 53.313615,6.0673672 50.532698,4.8530448 47.620532,4.1455862 41.796841,2.7308228 35.04645,3.1906856 30.469345,3.0852229 h -0.0037 c -1.781617,-0.041748 -3.861291,-0.10375 -6.072985,-0.081566 z"
       id="path6" />
  </g>
</svg>
