<?xml version="1.0" encoding="UTF-8" standalone="no"?>
<svg
   width="62"
   height="62"
   version="1.1"
   id="svg10"
   sodipodi:docname="utools.svg"
   inkscape:version="1.4 (unknown)"
   xmlns:inkscape="http://www.inkscape.org/namespaces/inkscape"
   xmlns:sodipodi="http://sodipodi.sourceforge.net/DTD/sodipodi-0.dtd"
   xmlns:xlink="http://www.w3.org/1999/xlink"
   xmlns="http://www.w3.org/2000/svg"
   xmlns:svg="http://www.w3.org/2000/svg">
  <defs
     id="defs10">
    <linearGradient
       id="linearGradient11"
       inkscape:collect="always">
      <stop
         style="stop-color:#2c3842;stop-opacity:1;"
         offset="0"
         id="stop11" />
      <stop
         style="stop-color:#4a5e6f;stop-opacity:1;"
         offset="1"
         id="stop12" />
    </linearGradient>
    <linearGradient
       inkscape:collect="always"
       xlink:href="#linearGradient11"
       id="linearGradient12"
       x1="30.978724"
       y1="60"
       x2="32"
       y2="4"
       gradientUnits="userSpaceOnUse"
       gradientTransform="matrix(1,0,0,0.98245614,-1,-0.92982455)" />
  </defs>
  <sodipodi:namedview
     id="namedview10"
     pagecolor="#ffffff"
     bordercolor="#000000"
     borderopacity="0.25"
     inkscape:showpageshadow="2"
     inkscape:pageopacity="0.0"
     inkscape:pagecheckerboard="0"
     inkscape:deskcolor="#d1d1d1"
     inkscape:zoom="5.875"
     inkscape:cx="71.574468"
     inkscape:cy="54.893617"
     inkscape:window-width="1920"
     inkscape:window-height="998"
     inkscape:window-x="0"
     inkscape:window-y="0"
     inkscape:window-maximized="1"
     inkscape:current-layer="svg10" />
  <rect
     style="opacity:0.2;stroke-width:0.991189"
     width="56"
     height="55.017544"
     x="3"
     y="3.9824562"
     rx="16.799999"
     ry="16.505262"
     id="rect1" />
  <rect
     style="fill:url(#linearGradient12);stroke-width:0.991189"
     width="56"
     height="55.017544"
     x="3"
     y="3"
     rx="16.799999"
     ry="16.505262"
     id="rect2" />
  <path
     style="opacity:0.1;fill:#ffffff;stroke-width:0.991189"
     d="M 19.800781,3 C 10.493582,3 3,10.362116 3,19.50603 v 0.982457 C 3,11.344572 10.493582,3.9824562 19.800781,3.9824562 H 42.199219 C 51.506418,3.9824562 59,11.344572 59,20.488487 V 19.50603 C 59,10.362116 51.506418,3 42.199219,3 Z"
     id="path9" />
  <g
     id="g1"
     transform="matrix(0.99642052,0,0,1.0016466,-68.484016,-9.0118042)">
    <path
       style="opacity:0.2"
       d="m 87.435469,20.49444 c -1.521565,0.02766 -2.822775,0.636558 -3.957031,1.660157 -0.940606,0.829944 -1.105255,1.437607 0.222656,2.101562 2.24085,1.134257 4.399776,2.463081 6.640624,3.625001 2.351512,1.217254 4.561858,0.913152 6.63672,-0.691408 C 98.30635,26.166154 98.36489,25.417814 96.705,24.615534 94.657804,23.647265 92.69296,22.46041 90.701094,21.353816 89.677496,20.772858 88.597392,20.439111 87.435469,20.49444 Z m 24.042971,1.261719 c -1.19996,-0.08991 -2.46961,0.206495 -3.74219,0.925781 -3.5411,1.991868 -7.0533,4.065766 -10.539062,6.140626 -0.663954,0.387308 -1.796554,0.528788 -1.824218,1.414062 -0.02766,1.078928 1.104936,1.493578 1.824218,2.046876 1.991868,1.051262 3.982072,0.993326 5.863282,-0.11328 3.87308,-2.213186 7.71645,-4.537138 11.61719,-6.722656 1.46623,-0.80228 1.10919,-1.439268 0.11328,-2.296876 -0.98212,-0.829931 -2.11254,-1.304621 -3.3125,-1.394531 z m 8.4375,8.718751 c -0.28919,-0.02594 -0.66776,0.10148 -1.16797,0.402342 -2.23282,1.355576 -4.58193,2.515838 -6.84375,3.843752 -2.34881,1.355574 -3.24476,3.430756 -2.92578,6.031248 0.20299,1.65989 0.83707,2.101724 2.46094,1.078126 2.00084,-1.27258 4.08795,-2.350116 6.17578,-3.484374 1.07291,-0.580962 1.94348,-1.328288 2.52343,-2.32422 0.78294,-1.355578 0.9306,-2.76391 0.64063,-4.257812 -0.14498,-0.778074 -0.38131,-1.245836 -0.86328,-1.289062 z m -40.246096,0.292968 c -0.482784,0.0913 -0.67027,0.640474 -0.808594,1.453126 -0.442637,2.545162 0.661867,4.869702 3.207032,6.335936 3.513431,2.019534 7.107018,3.957994 10.67578,5.894532 0.69162,0.387306 1.385544,1.298104 2.160156,0.855468 0.91294,-0.525632 0.690122,-1.71206 0.800782,-2.625 C 95.59434,40.413426 94.54356,38.753056 92.634688,37.674128 88.73395,35.460942 84.7812,33.387634 80.908125,31.146784 80.358288,30.82518 79.959514,30.713088 79.669844,30.767878 Z m 26.886716,7.65625 c -0.68471,0.0132 -1.36542,0.52096 -1.98437,0.792968 -1.89813,1.227536 -2.83611,2.98742 -2.8086,5.191408 0.0275,4.491658 0.19546,9.00778 0.16796,13.527342 0,1.70181 0.74273,1.67294 1.95313,1.226564 2.3933,-0.920652 3.8514,-3.012058 3.87891,-5.941406 0,-4.10108 -0.0814,-8.1997 -0.1914,-12.300782 -0.0275,-0.78116 0.41071,-1.87003 -0.33204,-2.316406 -0.22695,-0.13251 -0.45535,-0.184048 -0.68359,-0.179688 z m -15.703122,7.011718 c -0.818932,-0.0911 -1.175164,0.39907 -1.07422,1.71875 0.1615,2.153502 0.13282,4.334776 0.13282,6.488282 0,1.129276 0.244138,2.152214 0.86328,3.097656 0.780654,1.26059 1.912706,2.02337 3.3125,2.496094 1.15753,0.39393 1.748728,0.23457 1.66797,-1.183594 -0.1346,-2.389862 -0.07942,-4.80154 -0.16016,-7.191406 -0.08076,-2.521172 -1.427564,-4.202998 -3.769532,-5.148438 -0.376868,-0.151 -0.699672,-0.246978 -0.972658,-0.277344 z"
       id="path2" />
    <path
       style="fill:#aa87de"
       d="m 87.435469,19.49444 c -1.521565,0.02766 -2.822775,0.636558 -3.957031,1.660157 -0.940606,0.829944 -1.105255,1.437607 0.222656,2.101562 2.24085,1.134258 4.399776,2.463081 6.640624,3.625001 2.351512,1.217254 4.561858,0.913152 6.63672,-0.691408 C 98.30635,25.166153 98.36489,24.417814 96.705,23.615534 94.657804,22.647265 92.69296,21.46041 90.701094,20.353816 89.677496,19.772858 88.597392,19.439111 87.435469,19.49444 Z m 24.042971,1.261719 c -1.19996,-0.08991 -2.46961,0.206495 -3.74219,0.925781 -3.5411,1.991869 -7.0533,4.065766 -10.539062,6.140626 -0.663954,0.387308 -1.796554,0.528788 -1.824218,1.414062 -0.02766,1.078928 1.104936,1.493578 1.824218,2.046876 1.991868,1.051262 3.982072,0.993326 5.863282,-0.11328 3.87308,-2.213186 7.71645,-4.537138 11.61719,-6.722656 1.46623,-0.80228 1.10919,-1.439268 0.11328,-2.296876 -0.98212,-0.829931 -2.11254,-1.304621 -3.3125,-1.394531 z m 8.4375,8.718751 c -0.28919,-0.02594 -0.66776,0.10148 -1.16797,0.402342 -2.23282,1.355576 -4.58193,2.515838 -6.84375,3.843752 -2.34881,1.355574 -3.24476,3.430756 -2.92578,6.031248 0.20299,1.65989 0.83707,2.101724 2.46094,1.078126 2.00084,-1.27258 4.08795,-2.350116 6.17578,-3.484374 1.07291,-0.580962 1.94348,-1.328288 2.52343,-2.32422 0.78294,-1.355578 0.9306,-2.76391 0.64063,-4.257812 -0.14498,-0.778074 -0.38131,-1.245836 -0.86328,-1.289062 z m -40.246096,0.292968 c -0.482784,0.0913 -0.67027,0.640474 -0.808594,1.453126 -0.442637,2.545162 0.661867,4.869702 3.207032,6.335936 3.513431,2.019534 7.107018,3.957994 10.67578,5.894532 0.69162,0.387306 1.385544,1.298104 2.160156,0.855468 0.91294,-0.525632 0.690122,-1.71206 0.800782,-2.625 C 95.59434,39.413426 94.54356,37.753056 92.634688,36.674128 88.73395,34.460942 84.7812,32.387634 80.908125,30.146784 80.358288,29.82518 79.959514,29.713088 79.669844,29.767878 Z m 26.886716,7.65625 c -0.68471,0.0132 -1.36542,0.52096 -1.98437,0.792968 -1.89813,1.227536 -2.83611,2.98742 -2.8086,5.191408 0.0275,4.491658 0.19546,9.00778 0.16796,13.527342 0,1.70181 0.74273,1.67294 1.95313,1.226564 2.3933,-0.920652 3.8514,-3.012058 3.87891,-5.941406 0,-4.10108 -0.0814,-8.1997 -0.1914,-12.300782 -0.0275,-0.78116 0.41071,-1.87003 -0.33204,-2.316406 -0.22695,-0.13251 -0.45535,-0.184048 -0.68359,-0.179688 z m -15.703122,7.011718 c -0.818932,-0.0911 -1.175164,0.39907 -1.07422,1.71875 0.1615,2.153502 0.13282,4.334776 0.13282,6.488282 0,1.129276 0.244138,2.152214 0.86328,3.097656 0.780654,1.26059 1.912706,2.02337 3.3125,2.496094 1.15753,0.39393 1.748728,0.23457 1.66797,-1.183594 -0.1346,-2.389862 -0.07942,-4.80154 -0.16016,-7.191406 -0.08076,-2.521172 -1.427564,-4.202998 -3.769532,-5.148438 -0.376868,-0.151 -0.699672,-0.246978 -0.972658,-0.277344 z"
       id="path3-5" />
  </g>
</svg>
