<?xml version="1.0" encoding="UTF-8" standalone="no"?>
<svg
   width="62"
   height="62"
   version="1.1"
   id="svg7"
   sodipodi:docname="qtox.svg"
   inkscape:version="1.4 (e7c3feb100, 2024-10-09)"
   xmlns:inkscape="http://www.inkscape.org/namespaces/inkscape"
   xmlns:sodipodi="http://sodipodi.sourceforge.net/DTD/sodipodi-0.dtd"
   xmlns:xlink="http://www.w3.org/1999/xlink"
   xmlns="http://www.w3.org/2000/svg"
   xmlns:svg="http://www.w3.org/2000/svg">
  <defs
     id="defs7">
    <linearGradient
       inkscape:collect="always"
       xlink:href="#linearGradient8"
       id="linearGradient10"
       x1="31.5"
       y1="59.017544"
       x2="31.5"
       y2="4.9824562"
       gradientUnits="userSpaceOnUse"
       gradientTransform="translate(-0.5,-0.5087719)" />
    <linearGradient
       id="linearGradient8"
       inkscape:collect="always">
      <stop
         style="stop-color:#0e6571;stop-opacity:1;"
         offset="0"
         id="stop8" />
      <stop
         style="stop-color:#3bb1c4;stop-opacity:1;"
         offset="1"
         id="stop10" />
    </linearGradient>
  </defs>
  <sodipodi:namedview
     id="namedview7"
     pagecolor="#ffffff"
     bordercolor="#000000"
     borderopacity="0.25"
     inkscape:showpageshadow="2"
     inkscape:pageopacity="0.0"
     inkscape:pagecheckerboard="0"
     inkscape:deskcolor="#d1d1d1"
     inkscape:zoom="5.875"
     inkscape:cx="82.212766"
     inkscape:cy="57.446809"
     inkscape:window-width="1920"
     inkscape:window-height="998"
     inkscape:window-x="0"
     inkscape:window-y="0"
     inkscape:window-maximized="1"
     inkscape:current-layer="svg7" />
  <g
     id="g7"
     transform="translate(0,-0.4912281)">
    <rect
       style="opacity:0.2;stroke-width:0.9823"
       width="55"
       height="55.017544"
       x="3.5"
       y="4.4736843"
       rx="8.25"
       ry="8.2526312"
       id="rect1" />
    <rect
       style="fill:url(#linearGradient10);stroke-width:0.9823"
       width="55"
       height="55.017544"
       x="3.5"
       y="3.4912281"
       rx="8.25"
       ry="8.2526312"
       id="rect2" />
    <path
       style="opacity:0.1;fill:#ffffff;stroke-width:0.9823"
       d="M 11.748466,3.4912281 C 7.1779652,3.4912281 3.5,7.1703661 3.5,11.742325 v 0.982456 c 0,-4.5719589 3.6779652,-8.2510969 8.248466,-8.2510969 h 38.503068 c 4.5705,0 8.248466,3.679138 8.248466,8.2510969 v -0.982456 c 0,-4.5719589 -3.677966,-8.2510969 -8.248466,-8.2510969 z"
       id="path4-3" />
  </g>
  <g
     transform="matrix(1.0714209,0,0,1.0439704,-3.2266478,-2.2590697)"
     stroke-width="1.4"
     id="g2">
    <path
       d="m 20.745,50.058 c -1.4,0 -2.8,-1.4 -2.8,-2.8 v -18.2 c 0,-1.4 1.4,-2.8 2.8,-2.8 h 2.8 v -5.5999 c 0,-4.1997 4.1997,-6.9989 8.4001,-6.9996 4.1997,-4.27e-4 8.4001,2.7993 8.4001,6.9996 v 5.5999 h 2.8 c 1.4,0 2.8,1.4 2.8,2.8 v 18.2 c 0,1.4 -1.4,2.8 -2.8,2.8 h -22.4 z"
       id="path1"
       style="fill:#2d3d53;fill-opacity:1" />
    <path
       d="m 31.945,16.459 c -3.0927,0 -5.5999,2.1938 -5.5999,4.9 0,2.7062 2.5072,4.9 5.5999,4.9 h 1.4 c 0,0 0,1.4 -1.4,2.8 4.2,-1.4 5.5999,-4.2 5.5999,-7.6999 0,-2.7472 -2.5072,-4.9 -5.5999,-4.9 z m 0,14 c -2.3205,0 -4.2,1.8175 -4.2,4.0605 0,1.6542 1.0263,3.0695 2.4937,3.7023 -1.6545,0.65349 -3.8936,2.069 -3.8936,4.8371 v 1.4 c 0,1.0234 0.61879,1.4 1.4,1.4 h 8.3999 c 0.77139,0 1.4,-0.5446 1.4,-1.4 v -1.4 c 0,-2.7681 -2.2391,-4.1836 -3.8936,-4.8371 1.4675,-0.63283 2.4937,-2.048 2.4937,-3.7023 0,-2.2431 -1.8795,-4.0605 -4.2,-4.0605 z"
       fill="#ffffff"
       id="path2" />
  </g>
</svg>
