<?xml version="1.0" encoding="UTF-8" standalone="no"?>
<svg
   width="62"
   height="62"
   version="1.1"
   id="svg10"
   sodipodi:docname="vacuum.svg"
   inkscape:version="1.4 (unknown)"
   xmlns:inkscape="http://www.inkscape.org/namespaces/inkscape"
   xmlns:sodipodi="http://sodipodi.sourceforge.net/DTD/sodipodi-0.dtd"
   xmlns:xlink="http://www.w3.org/1999/xlink"
   xmlns="http://www.w3.org/2000/svg"
   xmlns:svg="http://www.w3.org/2000/svg">
  <defs
     id="defs10">
    <linearGradient
       id="linearGradient11"
       inkscape:collect="always">
      <stop
         style="stop-color:#2c3842;stop-opacity:1;"
         offset="0"
         id="stop11" />
      <stop
         style="stop-color:#4a5e6f;stop-opacity:1;"
         offset="1"
         id="stop12" />
    </linearGradient>
    <linearGradient
       inkscape:collect="always"
       xlink:href="#linearGradient11"
       id="linearGradient12"
       x1="30.978724"
       y1="60"
       x2="30.553192"
       y2="5.9255319"
       gradientUnits="userSpaceOnUse"
       gradientTransform="matrix(1,0,0,0.98245614,-1,-0.92982455)" />
  </defs>
  <sodipodi:namedview
     id="namedview10"
     pagecolor="#ffffff"
     bordercolor="#000000"
     borderopacity="0.25"
     inkscape:showpageshadow="2"
     inkscape:pageopacity="0.0"
     inkscape:pagecheckerboard="0"
     inkscape:deskcolor="#d1d1d1"
     inkscape:zoom="5.875"
     inkscape:cx="71.574468"
     inkscape:cy="54.893617"
     inkscape:window-width="1920"
     inkscape:window-height="998"
     inkscape:window-x="0"
     inkscape:window-y="0"
     inkscape:window-maximized="1"
     inkscape:current-layer="svg10" />
  <rect
     style="opacity:0.2;stroke-width:0.991189"
     width="56"
     height="55.017544"
     x="3"
     y="3.9824562"
     rx="16.799999"
     ry="16.505262"
     id="rect1" />
  <rect
     style="fill:url(#linearGradient12);stroke-width:0.991189"
     width="56"
     height="55.017544"
     x="3"
     y="3"
     rx="16.799999"
     ry="16.505262"
     id="rect2" />
  <path
     style="opacity:0.1;fill:#ffffff;stroke-width:0.991189"
     d="M 19.800781,3 C 10.493582,3 3,10.362116 3,19.50603 v 0.982457 C 3,11.344572 10.493582,3.9824562 19.800781,3.9824562 H 42.199219 C 51.506418,3.9824562 59,11.344572 59,20.488487 V 19.50603 C 59,10.362116 51.506418,3 42.199219,3 Z"
     id="path9" />
  <g
     id="g1"
     transform="translate(-1.2946595e-7,-0.35106476)">
    <path
       style="opacity:0.2;stroke-width:1.00328"
       d="m 20.167925,14.864069 c -0.194619,0.02423 -0.385055,0.08754 -0.566135,0.191427 l -7.847252,4.500501 c -0.724306,0.415549 -0.96859,1.327356 -0.550408,2.047104 l 1.509693,2.597946 c 0.418184,0.71974 1.335781,0.966389 2.060099,0.550843 l 1.328844,-0.761805 c 1.023131,2.020818 2.716495,5.115356 6.062355,11.177028 4.875904,8.833585 7.192009,12.905926 7.572049,13.306171 1.346061,1.417998 3.265307,1.768259 5.059826,0.925885 0.47183,-0.221505 1.003382,-0.619597 1.344571,-1.00402 0.668311,-0.752984 14.491326,-25.695644 14.715564,-26.55374 0.235027,-0.899319 0.174743,-2.178542 -0.141529,-3.062841 -0.393426,-1.099923 -1.477112,-2.226486 -2.547605,-2.648733 -0.480504,-0.189501 -1.04291,-0.281741 -1.607978,-0.281282 -0.726523,5.51e-4 -1.463418,0.15573 -2.052237,0.457082 -0.860465,0.44037 -1.727003,1.373452 -2.111212,2.273691 -0.408298,0.956707 -0.465862,2.642958 -0.121881,3.539459 0.145493,0.379102 0.396994,1.028446 0.558267,1.445473 0.36422,0.941805 0.494335,3.016624 0.263412,4.180154 -0.260008,1.310105 -1.065981,2.82255 -2.01292,3.773856 -2.841645,2.854319 -7.140078,2.905652 -9.962395,0.117193 -0.973892,-0.962247 -1.111674,-1.192561 -5.508016,-9.16899 -1.018936,-1.850112 -1.823256,-3.226476 -2.410003,-4.176247 -0.0145,-0.0292 -0.0149,-0.06123 -0.03147,-0.08985 l -1.509688,-2.597945 c -0.313628,-0.539807 -0.910095,-0.811054 -1.493954,-0.73836 z"
       id="path3" />
    <path
       style="fill:#ffffff;stroke-width:1.00328"
       d="m 20.167925,13.862677 c -0.194619,0.02424 -0.385055,0.08754 -0.566135,0.191428 l -7.847252,4.500501 c -0.724306,0.415548 -0.96859,1.327356 -0.550408,2.047103 l 1.509693,2.597946 c 0.418184,0.71974 1.335781,0.966389 2.060099,0.550843 l 1.328844,-0.761804 c 1.023131,2.020817 2.716495,5.115356 6.062355,11.177027 4.875904,8.833585 7.192009,12.905926 7.572049,13.306171 1.346061,1.417999 3.265307,1.76826 5.059826,0.925885 0.47183,-0.221504 1.003382,-0.619597 1.344571,-1.00402 0.668311,-0.752984 14.491326,-25.695644 14.715564,-26.553739 0.235027,-0.89932 0.174743,-2.178543 -0.141529,-3.062842 -0.393432,-1.099923 -1.477118,-2.226485 -2.547611,-2.648732 -0.480504,-0.189502 -1.04291,-0.281742 -1.607978,-0.281282 -0.726523,5.5e-4 -1.463418,0.155729 -2.052237,0.457082 -0.860465,0.44037 -1.727003,1.373451 -2.111212,2.273692 -0.408298,0.956706 -0.465862,2.642957 -0.121881,3.539457 0.145493,0.379102 0.396994,1.028446 0.558267,1.445473 0.36422,0.941805 0.494335,3.016624 0.263412,4.180154 -0.260008,1.310106 -1.065981,2.82255 -2.012921,3.773857 -2.841644,2.854318 -7.140077,2.905651 -9.962394,0.117192 -0.973892,-0.962247 -1.111674,-1.192561 -5.508016,-9.168989 -1.018936,-1.850112 -1.823256,-3.226475 -2.410003,-4.176247 -0.0145,-0.02919 -0.0149,-0.06123 -0.03147,-0.08985 l -1.509689,-2.597945 c -0.313622,-0.539806 -0.910089,-0.811052 -1.493948,-0.73836 z"
       id="path4-5" />
  </g>
</svg>
