<?xml version="1.0" encoding="UTF-8" standalone="no"?>
<svg
   width="62"
   height="62"
   version="1.1"
   id="svg4"
   sodipodi:docname="VCVRack.svg"
   inkscape:version="1.4 (unknown)"
   xmlns:inkscape="http://www.inkscape.org/namespaces/inkscape"
   xmlns:sodipodi="http://sodipodi.sourceforge.net/DTD/sodipodi-0.dtd"
   xmlns="http://www.w3.org/2000/svg"
   xmlns:svg="http://www.w3.org/2000/svg">
  <defs
     id="defs4" />
  <sodipodi:namedview
     id="namedview4"
     pagecolor="#ffffff"
     bordercolor="#000000"
     borderopacity="0.25"
     inkscape:showpageshadow="2"
     inkscape:pageopacity="0.0"
     inkscape:pagecheckerboard="0"
     inkscape:deskcolor="#d1d1d1"
     inkscape:zoom="12.109375"
     inkscape:cx="32"
     inkscape:cy="32"
     inkscape:window-width="1920"
     inkscape:window-height="998"
     inkscape:window-x="0"
     inkscape:window-y="0"
     inkscape:window-maximized="1"
     inkscape:current-layer="svg4" />
  <g
     id="g4"
     transform="matrix(0.98214286,0,0,0.98245614,-0.42857152,-0.92982455)">
    <circle
       style="opacity:0.2"
       cx="32"
       cy="33"
       r="28"
       id="circle1" />
    <circle
       style="fill:#2d3d53;fill-opacity:1"
       cx="32"
       cy="32"
       r="28"
       id="circle2" />
    <path
       style="opacity:0.2;fill:none;stroke:#000000;stroke-width:7.99965;stroke-linecap:round;stroke-linejoin:round"
       d="M 39.002672,45.133335 A 14.010949,14.010342 0 0 1 21.269429,42.011939 14.010949,14.010342 0 0 1 21.253717,24.006843 14.010949,14.010342 0 0 1 38.981484,20.854503"
       id="path2" />
    <path
       style="fill:none;stroke:#ffffff;stroke-width:7.99965;stroke-linecap:round;stroke-linejoin:round"
       d="M 39.002672,44.134113 A 14.010949,14.010342 0 0 1 21.269429,41.012717 14.010949,14.010342 0 0 1 21.253717,23.007621 14.010949,14.010342 0 0 1 38.981484,19.855281"
       id="path3" />
    <circle
       style="opacity:0.2"
       cx="32"
       cy="33"
       r="6"
       id="circle3" />
    <circle
       style="fill:#ffffff"
       cx="32"
       cy="32"
       r="6"
       id="circle4" />
    <path
       style="opacity:0.1;fill:#ffffff"
       d="M 32,4 A 28,28 0 0 0 4,32 28,28 0 0 0 4.0175781,32.492188 28,28 0 0 1 32,5 28,28 0 0 1 59.974609,32.492188 28,28 0 0 0 60,32 28,28 0 0 0 32,4 Z"
       id="path4" />
  </g>
</svg>
