<?xml version="1.0" encoding="UTF-8" standalone="no"?>
<svg
   width="62"
   height="62"
   version="1.1"
   id="svg6"
   sodipodi:docname="vectr.svg"
   inkscape:version="1.4 (unknown)"
   xmlns:inkscape="http://www.inkscape.org/namespaces/inkscape"
   xmlns:sodipodi="http://sodipodi.sourceforge.net/DTD/sodipodi-0.dtd"
   xmlns="http://www.w3.org/2000/svg"
   xmlns:svg="http://www.w3.org/2000/svg">
  <defs
     id="defs6" />
  <sodipodi:namedview
     id="namedview6"
     pagecolor="#ffffff"
     bordercolor="#000000"
     borderopacity="0.25"
     inkscape:showpageshadow="2"
     inkscape:pageopacity="0.0"
     inkscape:pagecheckerboard="0"
     inkscape:deskcolor="#d1d1d1"
     inkscape:zoom="6.0546875"
     inkscape:cx="21.140645"
     inkscape:cy="33.775484"
     inkscape:window-width="1920"
     inkscape:window-height="998"
     inkscape:window-x="0"
     inkscape:window-y="0"
     inkscape:window-maximized="1"
     inkscape:current-layer="svg6" />
  <g
     id="g6"
     transform="translate(-1,-1.5)">
    <path
       style="opacity:0.2"
       d="M 4.043,31.828 A 28,28 0 0 0 4,33 28,28 0 0 0 32,61 28,28 0 0 0 60,33 28,28 0 0 0 59.958,32.172 28,28 0 0 1 32,59 28,28 0 0 1 4.044,31.828 Z"
       id="path1" />
    <path
       style="fill:#2d3d53;fill-opacity:1"
       d="M 32,4 A 28,28 0 0 0 4,32 28,28 0 0 0 32,60 28,28 0 0 0 60,32 28,28 0 0 0 32,4 Z"
       id="path2" />
    <path
       style="opacity:0.1;fill:#ffffff"
       d="M 31.998047,4 A 28,28 0 0 0 4,32 28,28 0 0 0 4.0214844,32.40625 28,28 0 0 1 31.998047,5 H 32 A 28,28 0 0 1 59.976562,32.585938 28,28 0 0 0 59.998047,32 28,28 0 0 0 32,4 Z"
       id="path3" />
    <path
       style="opacity:0.2"
       d="m 22.445312,18.985295 c -0.449836,-7.51e-4 -0.924472,0.01562 -1.433594,0.01562 -2.570779,-0.05377 -5.143769,0.03276 -7.714843,0 -1.782383,-0.01408 -1.371347,2.170666 -0.855469,3.089844 5.703791,10.162776 12.443974,21.545792 18.726562,32.273438 1.20714,1.7809 2.479822,-0.637414 3.15625,-1.671876 1.709564,-2.614404 3.117674,-5.353876 4.5625,-8.09375 0.61025,-1.841472 -1.0958,-3.258888 -1.703124,-4.820312 -3.70588,-6.581346 -7.602364,-13.03914 -11.386718,-19.5625 -0.905638,-1.086246 -2.002056,-1.228213 -3.351564,-1.230464 z m 18.63672,0.01562 c -1.91791,0 -0.69922,2.160156 -0.69922,2.160156 0,0 2.87487,5.450474 4.53125,8.433594 1.656382,2.983128 2.550008,0.41578 2.964844,-0.410156 1.492534,-2.971682 2.789798,-6.067674 3.835938,-8.125 1.046136,-2.057326 -1.132812,-2.058594 -1.132812,-2.058594 z"
       id="path4" />
    <path
       style="fill:#e4e4e4"
       d="M 22.445312,17.984375 C 21.995476,17.983624 21.52084,18 21.011718,18 c -2.570779,-0.05377 -5.143769,0.03276 -7.714843,0 -1.782383,-0.01408 -1.371347,2.170666 -0.855469,3.089844 5.703791,10.162776 12.443974,21.545792 18.726562,32.273438 1.20714,1.7809 2.479822,-0.637414 3.15625,-1.671876 1.709564,-2.614404 3.117674,-5.353876 4.5625,-8.09375 0.61025,-1.841472 -1.0958,-3.258888 -1.703124,-4.820312 -3.70588,-6.581346 -7.602364,-13.03914 -11.386718,-19.5625 -0.905638,-1.086251 -2.002056,-1.228217 -3.351564,-1.230469 z M 41.082032,18 c -1.91791,0 -0.69922,2.160156 -0.69922,2.160156 0,0 2.87487,5.450474 4.53125,8.433594 1.656382,2.983128 2.550008,0.41578 2.964844,-0.410156 1.492534,-2.971682 2.789798,-6.067674 3.835938,-8.125 C 52.76098,18.001267 50.582032,18 50.582032,18 Z"
       id="path5" />
    <path
       style="opacity:0.2;fill:#ffffff"
       d="M 22.445312,17.984375 C 21.995476,17.983624 21.520841,18 21.011719,18 18.44094,17.94623 15.867949,18.03276 13.296875,18 12.07568,17.9904 11.894184,19.010684 12.060547,19.951172 12.178272,19.41156 12.52274,18.993885 13.296875,19 c 2.571074,0.03276 5.144065,-0.05377 7.714844,0 0.509122,0 0.983757,-0.01638 1.433593,-0.01563 1.349508,0.0023 2.445925,0.144218 3.351563,1.230469 3.784354,6.52336 7.680839,12.981154 11.386719,19.5625 0.451107,1.159793 1.503591,2.242877 1.767578,3.476562 0.307045,-1.67515 -1.199084,-3.01497 -1.767578,-4.476562 -3.70588,-6.581346 -7.602365,-13.03914 -11.386719,-19.5625 C 24.891237,18.128588 23.79482,17.986622 22.445312,17.98437 Z M 41.082031,18 c -1.205549,0 -1.171846,0.852312 -0.980469,1.486328 C 40.227484,19.208981 40.499714,19 41.082031,19 h 9.5 c 0,0 0.957927,0.0159 1.291016,0.630859 C 52.40034,18.021573 50.582031,18 50.582031,18 Z"
       id="path6" />
  </g>
</svg>
