<?xml version="1.0" encoding="UTF-8" standalone="no"?>
<svg
   width="62"
   height="62"
   version="1.1"
   id="svg9"
   sodipodi:docname="vesktop.svg"
   inkscape:version="1.4 (unknown)"
   xmlns:inkscape="http://www.inkscape.org/namespaces/inkscape"
   xmlns:sodipodi="http://sodipodi.sourceforge.net/DTD/sodipodi-0.dtd"
   xmlns="http://www.w3.org/2000/svg"
   xmlns:svg="http://www.w3.org/2000/svg">
  <defs
     id="defs9" />
  <sodipodi:namedview
     id="namedview9"
     pagecolor="#ffffff"
     bordercolor="#000000"
     borderopacity="0.25"
     inkscape:showpageshadow="2"
     inkscape:pageopacity="0.0"
     inkscape:pagecheckerboard="0"
     inkscape:deskcolor="#d1d1d1"
     inkscape:zoom="12.109375"
     inkscape:cx="32"
     inkscape:cy="32"
     inkscape:window-width="1920"
     inkscape:window-height="998"
     inkscape:window-x="0"
     inkscape:window-y="0"
     inkscape:window-maximized="1"
     inkscape:current-layer="svg9" />
  <g
     id="g9"
     transform="translate(-0.99600047,-1)">
    <ellipse
       cx="31.996"
       cy="32"
       fill="#fafafa"
       color="#5294e2"
       id="circle1"
       rx="27.996"
       ry="28"
       style="stroke-width:0.999929" />
    <g
       stroke-width="0"
       id="g6"
       transform="matrix(0.99985716,0,0,1,5.7134695e-4,0)">
      <path
         fill="#ed945e"
         d="m 164.95,12 a 28,28 0 0 0 -6.582,10 h 52.223 a 28,28 0 0 0 -6.557,-10 z"
         style="paint-order:stroke fill markers"
         transform="translate(-152.44)"
         id="path1" />
      <path
         fill="#e0c269"
         d="m 158.37,22 a 28,28 0 0 0 -1.922,10 h 56 a 28,28 0 0 0 -1.855,-10 z"
         style="paint-order:stroke fill markers"
         transform="translate(-152.44)"
         id="path2" />
      <path
         fill="#7fbf92"
         d="m 156.44,32 a 28,28 0 0 0 1.922,10 h 52.156 a 28,28 0 0 0 1.922,-10 z"
         style="paint-order:stroke fill markers"
         transform="translate(-152.44)"
         id="path3" />
      <path
         fill="#729ad6"
         d="m 158.37,42 a 28,28 0 0 0 6.582,10 h 38.992 a 28,28 0 0 0 6.582,-10 z"
         style="paint-order:stroke fill markers"
         transform="translate(-152.44)"
         id="path4" />
      <path
         fill="#a85cd1"
         d="m 164.95,52 a 28,28 0 0 0 19.496,8 28,28 0 0 0 19.496,-8 z"
         style="paint-order:stroke fill markers"
         transform="translate(-152.44)"
         id="path5" />
      <path
         fill="#db606e"
         d="m 184.44,4 a 28,28 0 0 0 -19.496,8 h 39.084 A 28,28 0 0 0 184.44,4"
         style="paint-order:stroke fill markers"
         transform="translate(-152.44)"
         id="path6" />
    </g>
    <path
       fill="#eeb9c4"
       d="m 31.214112,27.182 h 12.798172 l 0.781888,2.418 2.417655,0.782 v 3.2 h -6.399086 v -3.2 h -6.399086 v 12.8 h 6.399086 v -3.2 h 6.399086 v 3.2 h -3.199543 v 3.2 H 31.214112 v -3.2 h -3.199543 v -12.8 h 3.199543 z"
       style="stroke-width:0.999929;paint-order:stroke fill markers"
       id="path7" />
    <path
       fill="#fafafa"
       d="m 16.816169,17.582 h 3.199543 v 11.2 H 20.7976 l 3.199543,3.218 1.599772,-0.018 3.199543,-3.2 0.817883,-11.2 h 3.199543 V 26.4 L 31.214112,27.182 30.396229,29.6 H 28.796458 L 28.014569,30.382 27.196686,36 26.414798,36.782 h -3.199543 l -6.399086,-6.4 z m 17.597486,6.827 0.390944,-0.427 0.390944,-0.782 0.817884,-0.391 1.208827,-0.427 0.390944,-0.39 0.390944,-0.392 h 0.390944 l 0.426939,0.782 h 1.599772 V 21.6 l 0.781888,-0.818 h 0.390944 l 0.426939,1.6 h 0.390944 l 0.390945,0.427 0.817883,2.773 v 1.21 l -0.426939,0.39 H 37.222254 L 36.61734,26.792 H 34.805599 L 34.415655,26.4 Z"
       style="stroke-width:0.999929;paint-order:stroke fill markers"
       id="path8" />
    <path
       d="M 31.214112,46.791 V 46.382 H 30.396229 V 44 h -2.38166 v -0.818 h -0.817883 v -6.4 H 26.414798 V 37.6 H 23.215255 V 36.782 H 22.397372 V 36 H 21.615484 V 35.182 H 20.7976 V 34.4 H 20.015712 V 33.582 H 19.197829 V 32.8 H 18.415941 V 31.982 H 17.598057 V 31.2 h -0.781888 v -0.818 h -0.817883 v -12.8 h 0.817883 V 16.8 h 3.199543 v 0.782 H 20.7976 v 11.2 h 0.817884 V 29.6 h 0.781888 v 0.782 h 0.817883 V 31.2 h 0.781888 v 0.782 h 1.599772 V 31.2 h 0.817883 v -0.818 h 0.781888 V 29.6 h 0.817883 v -0.818 h 0.781889 v -11.2 h 0.817883 V 16.8 h 3.199543 v 0.782 h 0.781888 V 26.4 h 0.426939 v -1.991 h 0.390944 v -0.427 h 0.390944 V 23.2 h 0.390944 v -0.391 h 0.817884 v -0.427 h 1.208827 v -0.391 h 0.390944 V 21.6 h 0.390944 v -0.391 h 0.390944 v 0.39 h 0.426939 v 0.392 h 1.172833 V 21.6 h 0.426939 v -0.391 h 0.390944 v -0.427 h 0.390944 v -0.391 h 0.390944 v 0.391 h 0.426939 v 1.21 h 0.390944 v 0.39 h 0.390945 v 0.427 h 0.390944 v 1.173 h 0.426939 v 1.209 h 0.390944 v 1.991 h 0.781888 V 29.6 h 2.417655 v 0.782 h 0.781888 v 3.2 H 47.211827 V 34.4 H 40.812741 V 33.582 H 39.994858 V 31.2 h -4.799315 v 11.2 h 4.799315 v -2.418 h 0.817883 V 39.2 h 6.399086 v 0.782 h 0.781888 v 3.2 H 47.211827 V 44 h -2.417655 v 2.382 H 44.012284 V 47.2 H 31.214112 Z m 12.798172,-2.009 v -1.6 h 3.199543 v -3.2 h -6.399086 v 3.2 h -6.399086 v -12.8 h 6.399086 v 3.2 h 6.399086 v -3.2 h -3.199543 v -3.2 H 43.62134 v 0.427 h -2.808599 v -0.427 h -0.817883 v 0.427 H 36.795315 V 27.182 H 31.214112 V 26.4 h 1.599772 v -8.818 h -3.199543 v 11.2 H 28.796458 V 29.6 h 1.599771 v -2.418 h 0.817883 v 3.2 h -3.199543 v 12.8 h 3.199543 v 3.2 H 44.012284 Z M 26.414798,36.391 V 36 h 0.781888 v -4.8 h -0.781888 v 0.782 H 25.596915 V 32.8 H 23.997143 V 31.982 H 23.215255 V 31.2 H 22.397372 V 30.382 H 21.615484 V 29.6 H 20.7976 v -0.818 h -0.781888 v -11.2 h -3.199543 v 12.8 h 0.781888 V 31.2 h 0.817884 v 0.782 h 0.781888 V 32.8 h 0.817883 v 0.782 H 20.7976 V 34.4 h 0.817884 v 0.782 h 0.781888 V 36 h 0.817883 v 0.782 h 3.199543 z M 39.603914,26.987 V 26.791 H 38.004142 V 26.4 h 2.417655 v -0.391 h 0.389944 v 0.39 h 0.391944 v 0.783 h 0.817883 V 26.4 h 0.389945 v -0.391 h 0.391944 v -0.427 h 0.390944 V 26.4 h -0.390944 v 0.391 h -0.390945 v 0.391 h 0.781889 V 26.791 H 43.62134 V 25.582 H 43.194401 V 24.41 h -0.390944 v 1.173 H 42.412512 V 24.8 h -0.390944 v -0.391 h 0.389945 v -1.21 h 0.391944 v -0.39 h -0.390945 v -0.427 h -0.390944 v 0.427 h -0.426939 v -2.027 h -0.390944 v 0.427 h -0.390944 v 0.39 h -0.390944 v 0.783 H 39.994858 V 23.2 H 39.21297 v -0.391 h 0.390944 V 22.382 H 39.21297 v 0.427 H 38.822025 V 22.382 H 38.395086 V 21.6 h -0.390944 v 0.391 h -0.390944 v 0.391 H 37.222254 V 23.2 h -0.426939 v -0.391 h -0.781888 v 0.39 h -0.817884 v 0.783 h -0.390944 v 0.427 h -0.390944 v 1.99 h 0.390944 v 0.392 h 2.417655 v 0.391 h 2.38166 z M 37.613198,26.204 V 26.009 H 37.222254 V 25.582 H 36.795315 V 24.8 h -0.390944 v -1.6 h 0.390944 v 1.6 h 0.426939 v 0.782 h 0.389944 v 0.427 h 0.391944 v 0.39 h -0.390944 z m 3.590487,0 v -0.195 h 0.817883 v -0.427 h 0.389945 v 0.427 h -0.389945 v 0.39 H 41.203685 Z M 39.603914,25.795 V 25.582 H 38.395086 V 25.191 H 37.613198 V 24.8 h 0.781888 v 0.391 h 1.208828 v 0.391 h 0.390944 v 0.427 h -0.390944 z m 1.208827,-0.408 v -0.196 h 0.390944 V 24.8 h 0.817883 v 0.391 h -0.817883 v 0.391 h -0.390944 z m 1.208827,-2.383 v -0.195 h 0.389945 v 0.39 h -0.389945 z m -4.017426,-3.2 v -0.195 h 0.817883 v -0.427 h 0.389945 v -0.39 H 38.005142 V 18.4 h 1.989716 v 0.391 h -0.390944 v 0.391 H 39.21297 v 0.427 h 0.781888 v 0.39 h -1.989716 z m -3.981431,-0.408 v -0.214 h 0.389944 v -0.39 h 0.391944 V 18.4 h 0.390944 v -0.391 h -0.390944 v -0.427 h 0.390944 v 0.427 h 0.42694 v -0.427 h 0.389944 v -0.39 H 34.022711 V 16.8 h 2.772604 v 0.391 h -0.390944 v 0.391 h -0.390944 v 0.427 H 35.622483 V 18.4 h 0.389944 v 0.391 H 35.622483 V 18.4 h -0.42694 v 0.391 h -0.390944 v 0.391 h 1.990716 v 0.427 h -2.772604 z"
       id="path9"
       style="stroke-width:0.999929" />
  </g>
</svg>
