<?xml version="1.0" encoding="UTF-8" standalone="no"?>
<svg
   width="62"
   height="62"
   version="1.1"
   id="svg12"
   sodipodi:docname="via.svg"
   inkscape:version="1.4 (unknown)"
   xmlns:inkscape="http://www.inkscape.org/namespaces/inkscape"
   xmlns:sodipodi="http://sodipodi.sourceforge.net/DTD/sodipodi-0.dtd"
   xmlns="http://www.w3.org/2000/svg"
   xmlns:svg="http://www.w3.org/2000/svg">
  <defs
     id="defs12" />
  <sodipodi:namedview
     id="namedview12"
     pagecolor="#ffffff"
     bordercolor="#000000"
     borderopacity="0.25"
     inkscape:showpageshadow="2"
     inkscape:pageopacity="0.0"
     inkscape:pagecheckerboard="0"
     inkscape:deskcolor="#d1d1d1"
     inkscape:zoom="12.109375"
     inkscape:cx="32"
     inkscape:cy="32"
     inkscape:window-width="1920"
     inkscape:window-height="998"
     inkscape:window-x="0"
     inkscape:window-y="0"
     inkscape:window-maximized="1"
     inkscape:current-layer="svg12" />
  <g
     transform="matrix(1.267518,0,0,1.4302698,-10.824105,-14.935923)"
     id="g12">
    <rect
       width="1.526"
       height="8.3929996"
       x="13.427"
       y="35.140999"
       fill="#d9d9d9"
       rx="0.76300001"
       transform="rotate(-20.21,13.427,35.141)"
       id="rect1" />
    <path
       d="m 9.076,26.917 2.03,6.864 a 0.1,0.1 0 0 0 0.104,0.072 l 40.204,-3.432 a 1,1 0 0 0 0.261,-0.059 l 2.288,-0.843 a 0.25,0.25 0 0 0 0.148,-0.32 l -2.316,-6.414 a 0.4,0.4 0 0 0 -0.246,-0.24 L 38.651,16.335 A 1,1 0 0 0 37.885,16.292 L 9.39,26.304 a 0.5,0.5 0 0 0 -0.314,0.613"
       color="#000000"
       style="-inkscape-stroke:none;fill:#476183;fill-opacity:1"
       id="path1" />
    <path
       d="M 37.719,15.82 9.225,25.832 c -0.498,0.175 -0.777,0.72 -0.627,1.227 l 2.03,6.863 c 0.08,0.271 0.345,0.452 0.626,0.428 l -0.002,0.002 40.205,-3.434 q 0.202,-0.017 0.39,-0.086 l 2.288,-0.844 a 0.76,0.76 0 0 0 0.447,-0.959 l -2.316,-6.414 a 0.9,0.9 0 0 0 -0.56,-0.545 l 0.06,0.024 -12.898,-6.211 A 1.5,1.5 0 0 0 37.719,15.82 m 0.332,0.943 a 0.5,0.5 0 0 1 0.383,0.022 l 12.906,6.213 2.217,6.136 -2.055,0.758 a 0.5,0.5 0 0 1 -0.13,0.03 l -39.88,3.404 -1.935,-6.55 z"
       style="-inkscape-stroke:none;fill:#405777;fill-opacity:1"
       id="path2" />
    <path
       d="m 11.052,34.424 c -0.718,-0.43 -0.625,-1.5 0.158,-1.796 9.886,-3.743 23.022,-8.964 27.742,-10.847 a 4,4 0 0 1 3.456,0.237 l 11.275,6.389 a 1,1 0 0 1 -0.116,1.796 L 25.873,41.454 a 4,4 0 0 1 -3.564,-0.276 z"
       id="path3"
       style="fill:#2d3d53;fill-opacity:1" />
    <path
       d="m 9.007,27.552 a 1.001,1.001 0 0 1 0.179,-1.783 c 9.85,-3.729 22.959,-8.938 27.739,-10.845 a 4,4 0 0 1 3.546,0.285 l 11.327,6.796 a 1,1 0 0 1 -0.139,1.784 L 23.962,35.041 a 4,4 0 0 1 -3.645,-0.326 z"
       id="path4"
       style="fill:#6b88af;fill-opacity:1" />
    <path
       d="m 17.67,35.971 c 0.915,-0.864 1.42,-1.94 1.436,-3.054 0.015,-1.114 -0.462,-2.199 -1.354,-3.076 C 16.861,28.963 15.609,28.344 14.2,28.085 A 8.16,8.16 0 0 0 10,28.417 l 2.164,3.545 c 0.267,-0.096 0.568,-0.12 0.854,-0.067 0.286,0.053 0.54,0.178 0.722,0.356 0.182,0.178 0.278,0.4 0.275,0.625 a 0.87,0.87 0 0 1 -0.292,0.621 z"
       id="path5"
       style="fill:#526f97;fill-opacity:1" />
    <path
       d="m 30.63,28.404 a 0.5,0.5 0 0 1 0.07,-0.89 l 5.38,-2.193 a 1,1 0 0 1 0.895,0.07 l 1.752,1.06 a 0.5,0.5 0 0 1 -0.07,0.891 l -5.38,2.192 a 1,1 0 0 1 -0.896,-0.07 z"
       id="path6"
       style="fill:#aa87de" />
    <path
       fill="#b7b6b6"
       d="m 40.878,24.032 c -0.164,-0.194 -0.266,-0.41 -0.301,-0.638 -0.035,-0.228 -0.003,-0.46 0.095,-0.687 0.098,-0.226 0.26,-0.44 0.477,-0.632 0.217,-0.19 0.484,-0.353 0.786,-0.48 a 3.83,3.83 0 0 1 1.993,-0.248 c 0.33,0.048 0.637,0.14 0.904,0.27 0.267,0.132 0.489,0.299 0.652,0.492 z"
       id="path7" />
    <path
       fill="#b7b6b6"
       d="m 40.878,24.032 c -0.164,-0.194 -0.266,-0.41 -0.301,-0.638 -0.035,-0.228 -0.003,-0.46 0.095,-0.687 0.098,-0.226 0.26,-0.44 0.477,-0.632 0.217,-0.19 0.484,-0.353 0.786,-0.48 a 3.83,3.83 0 0 1 1.993,-0.248 c 0.33,0.048 0.637,0.14 0.904,0.27 0.267,0.132 0.489,0.299 0.652,0.492 z"
       id="path8" />
    <ellipse
       cx="23.858"
       cy="29.952"
       fill="#b7b6b6"
       rx="2.6259999"
       ry="1.75"
       transform="rotate(-5.665,23.858,29.952)"
       id="ellipse8" />
    <ellipse
       cx="23.858"
       cy="29.952"
       fill="#b7b6b6"
       rx="2.6259999"
       ry="1.75"
       transform="rotate(-5.665,23.858,29.952)"
       id="ellipse9" />
    <path
       fill="#d9d9d9"
       d="m 38.235,34.067 1.87,4.835 a 1,1 0 0 1 -0.558,1.288 l -1.838,0.743 a 1,1 0 0 1 -1.312,-0.58 l -1.663,-4.478 a 1.74,1.74 0 0 0 -0.674,-0.847 0.87,0.87 0 0 1 0.152,-1.531 l 1.724,-0.699 a 1.58,1.58 0 0 1 1.755,0.395 c 0.235,0.255 0.42,0.551 0.544,0.874 m 7.525,-3.056 1.87,4.835 a 1,1 0 0 1 -0.558,1.288 l -1.838,0.742 a 1,1 0 0 1 -1.312,-0.579 l -1.663,-4.478 a 1.74,1.74 0 0 0 -0.674,-0.847 0.869,0.869 0 0 1 0.152,-1.532 l 1.724,-0.698 a 1.58,1.58 0 0 1 1.755,0.395 c 0.235,0.255 0.42,0.551 0.544,0.874 m -14.998,6.072 1.87,4.835 a 1,1 0 0 1 -0.558,1.288 l -1.838,0.742 a 1,1 0 0 1 -1.312,-0.579 l -1.663,-4.478 a 1.74,1.74 0 0 0 -0.674,-0.847 0.87,0.87 0 0 1 0.152,-1.532 l 1.724,-0.698 a 1.58,1.58 0 0 1 1.755,0.395 c 0.235,0.255 0.42,0.551 0.544,0.874 m 22.642,-9.16 1.87,4.835 a 1,1 0 0 1 -0.558,1.288 l -1.838,0.743 a 1,1 0 0 1 -1.312,-0.58 l -1.663,-4.478 a 1.74,1.74 0 0 0 -0.674,-0.847 0.87,0.87 0 0 1 0.152,-1.532 l 1.724,-0.698 a 1.58,1.58 0 0 1 1.755,0.395 c 0.235,0.255 0.42,0.551 0.544,0.874"
       id="path9" />
    <rect
       width="1.526"
       height="8.3929996"
       x="28.375"
       y="41.936001"
       fill="#d9d9d9"
       rx="0.76300001"
       transform="rotate(-20.21,28.375,41.936)"
       id="rect9" />
    <rect
       width="1.526"
       height="8.3929996"
       x="37.143002"
       y="38.412998"
       fill="#d9d9d9"
       rx="0.76300001"
       transform="rotate(-20.21,37.143,38.413)"
       id="rect10" />
    <rect
       width="1.526"
       height="8.3929996"
       x="44.652"
       y="35.351002"
       fill="#d9d9d9"
       rx="0.76300001"
       transform="rotate(-20.21,44.652,35.351)"
       id="rect11" />
    <rect
       width="1.526"
       height="8.3929996"
       x="53.286999"
       y="31.857"
       fill="#d9d9d9"
       rx="0.76300001"
       transform="rotate(-20.64,53.287,31.857)"
       id="rect12" />
  </g>
</svg>
