<?xml version="1.0" encoding="UTF-8" standalone="no"?>
<svg
   width="62"
   height="62"
   version="1"
   id="svg6"
   sodipodi:docname="org.vim.Vim.svg"
   inkscape:version="1.4 (e7c3feb100, 2024-10-09)"
   xmlns:inkscape="http://www.inkscape.org/namespaces/inkscape"
   xmlns:sodipodi="http://sodipodi.sourceforge.net/DTD/sodipodi-0.dtd"
   xmlns:xlink="http://www.w3.org/1999/xlink"
   xmlns="http://www.w3.org/2000/svg"
   xmlns:svg="http://www.w3.org/2000/svg">
  <defs
     id="defs6">
    <linearGradient
       id="linearGradient2"
       inkscape:collect="always">
      <stop
         style="stop-color:#bb90da;stop-opacity:1;"
         offset="0"
         id="stop2" />
      <stop
         style="stop-color:#924cc4;stop-opacity:1;"
         offset="1"
         id="stop3" />
    </linearGradient>
    <linearGradient
       id="paint373_linear_890_11"
       x1="855"
       y1="461"
       x2="904.96899"
       y2="516.67401"
       gradientUnits="userSpaceOnUse"
       gradientTransform="translate(-852,-455)">
      <stop
         offset="0.313692"
         stop-color="#EFF2F6"
         id="stop1488" />
      <stop
         offset="0.785658"
         stop-color="#B7C6CD"
         id="stop1489" />
    </linearGradient>
    <linearGradient
       id="paint374_linear_890_11"
       x1="878"
       y1="511"
       x2="884"
       y2="517"
       gradientUnits="userSpaceOnUse"
       gradientTransform="translate(-852,-455)">
      <stop
         stop-color="#EFF2F6"
         id="stop1490" />
      <stop
         offset="0.58769"
         stop-color="#B7C6CD"
         id="stop1491" />
    </linearGradient>
    <linearGradient
       id="paint375_linear_890_11"
       x1="873"
       y1="487"
       x2="865"
       y2="479"
       gradientUnits="userSpaceOnUse"
       gradientTransform="translate(-852,-455)">
      <stop
         offset="0.166852"
         stop-color="#5200FF"
         id="stop1492" />
      <stop
         offset="0.775314"
         stop-color="#0085FF"
         id="stop1493" />
    </linearGradient>
    <linearGradient
       id="paint376_linear_890_11"
       x1="887"
       y1="487"
       x2="879"
       y2="479"
       gradientUnits="userSpaceOnUse"
       gradientTransform="translate(-852,-455)">
      <stop
         offset="0.166852"
         stop-color="#5200FF"
         id="stop1494" />
      <stop
         offset="0.775314"
         stop-color="#0085FF"
         id="stop1495" />
    </linearGradient>
    <linearGradient
       id="paint377_linear_890_11"
       x1="901"
       y1="487"
       x2="893"
       y2="479"
       gradientUnits="userSpaceOnUse"
       gradientTransform="translate(-852,-455)">
      <stop
         offset="0.166852"
         stop-color="#5200FF"
         id="stop1496" />
      <stop
         offset="0.775314"
         stop-color="#0085FF"
         id="stop1497" />
    </linearGradient>
    <linearGradient
       inkscape:collect="always"
       xlink:href="#linearGradient2"
       id="linearGradient3"
       x1="10.187166"
       y1="12.005467"
       x2="59"
       y2="56.00024"
       gradientUnits="userSpaceOnUse" />
  </defs>
  <sodipodi:namedview
     id="namedview6"
     pagecolor="#ffffff"
     bordercolor="#000000"
     borderopacity="0.25"
     inkscape:showpageshadow="2"
     inkscape:pageopacity="0.0"
     inkscape:pagecheckerboard="0"
     inkscape:deskcolor="#d1d1d1"
     inkscape:zoom="5.84375"
     inkscape:cx="24.042781"
     inkscape:cy="61.433155"
     inkscape:window-width="1920"
     inkscape:window-height="994"
     inkscape:window-x="0"
     inkscape:window-y="0"
     inkscape:window-maximized="1"
     inkscape:current-layer="svg6" />
  <g
     id="g2"
     transform="translate(0,3)">
    <path
       d="M 9,6 C 5.686,6 3,8.686 3,12 v 32 c 0,3.314 2.686,6 6,6 h 24.185 l -1.096,3.501 c -0.504,1.609 1.222,3.028 2.805,2.306 L 47.618,50 H 53 c 3.314,0 6,-2.686 6,-6 V 12 C 59,8.686 56.314,6 53,6 Z"
       id="path363"
       style="fill:url(#linearGradient3)" />
    <g
       id="g1"
       transform="translate(-1.0000002,-0.68449198)">
      <path
         style="fill:#ffffff"
         d="m 24.477464,16.816441 c -0.0023,-0.0026 -0.0049,-0.0046 -0.0097,-0.0097 -0.0023,-0.0025 -0.0127,-0.0127 -0.01284,-0.01284 l -0.02248,-0.01608 -0.06747,-0.03533 0.112437,0.07389 z"
         id="path3" />
      <path
         style="fill:#ffffff"
         d="m 19.012683,18.516929 c -0.0048,0.0071 -0.007,0.03023 -0.01284,0.04498 -0.0046,0.0056 -0.0051,0.01052 -0.0097,0.01608 0.0056,-0.02239 0.01311,-0.04544 0.01284,-0.04498 -6.18e-4,0.0011 0.01748,-0.02782 0.0097,-0.01608 z"
         id="path4" />
      <path
         style="opacity:0.2"
         d="m 35.244226,13.48663 0.004,0.004 c -0.676297,0 -1.239709,0.540805 -1.246155,1.195371 -0.004,0.65755 0.557253,1.207609 1.238343,1.210997 2.93938,0.02208 5.3563,0.953261 7.305046,2.785294 1.92584,1.815037 2.931578,4.328159 2.957177,7.609751 v 0.004 c 0.0068,0.652796 0.567994,1.191377 1.246062,1.191377 7e-5,0 0.011,-0.0038 0.0118,-0.004 0.679588,-0.0062 1.243848,-0.554025 1.238343,-1.210997 -0.0154,-1.915143 -0.32552,-3.675371 -0.933722,-5.22282 -0.615898,-1.563809 -1.553322,-2.946896 -2.773574,-4.097858 -2.411631,-2.267474 -5.490329,-3.439993 -9.035602,-3.465015 z m -13.828807,4.027542 c -0.473456,-0.07952 -0.984277,0.0118 -1.496168,0.257825 h -0.04296 l -0.05468,0.03126 c -0.950948,0.54058 -1.84462,1.263122 -2.679825,2.17198 l -0.0664,0.07422 v 0.0625 c -0.577729,0.720194 -0.959112,1.445819 -1.046926,2.171981 -0.02804,0.123066 -0.02734,0.236744 -0.02734,0.355488 0,0.330372 0.05048,0.66296 0.152347,0.992237 l 0.02734,0.09374 0.05468,0.03516 c 0.329865,1.131406 1.08102,2.889532 2.718884,5.871383 1.090926,1.97635 2.205541,3.628863 3.312661,5.019777 0.583181,0.731014 1.241228,1.491276 2.007913,2.257926 0.009,0.0092 0.04296,0.04252 0.07812,0.07422 0.0122,0.0122 0.02844,0.03622 0.07032,0.07812 l 0.07812,0.07812 h 0.004 c 0.02698,0.02698 0.04674,0.04538 0.05078,0.05078 l 0.0118,0.0156 0.0156,0.0156 c 0.766723,0.758119 1.522587,1.420862 2.261829,2.000099 1.389191,1.1068 3.039264,2.231672 5.015873,3.324381 2.986091,1.646844 4.765303,2.390786 5.890914,2.714978 l 0.03906,0.05078 0.07032,0.02344 c 0.318906,0.106285 0.648076,0.153387 0.97661,0.148447 0.133266,0.0072 0.250738,-0.0019 0.363298,-0.02734 0.77098,-0.09013 1.537914,-0.452678 2.293083,-1.085992 l 0.0078,-0.0118 0.0078,-0.004 c 0.0118,-0.0116 0.0056,-0.0078 0.0118,-0.0156 0.0068,-0.006 0.0086,-0.0134 0.0156,-0.0196 0.893902,-0.815586 1.613539,-1.70263 2.156356,-2.652475 l 0.03516,-0.0586 v -0.0586 c 0.49858,-1.037901 0.302043,-2.098041 -0.507837,-2.773574 -0.0198,-0.017 -0.40788,-0.341007 -0.89067,-0.73441 -0.493724,-0.4022 -1.081293,-0.874118 -1.476635,-1.164122 -0.748005,-0.553169 -1.903554,-1.270212 -2.562626,-1.636798 -1.265768,-0.708645 -2.590064,-0.296447 -3.17203,0.457054 l -1.019583,1.277407 c -0.411498,0.518326 -1.236036,0.470045 -1.257873,0.468773 -6.920623,-1.779928 -8.780117,-8.740023 -8.793402,-8.789497 -0.0012,-0.02178 -0.04998,-0.843602 0.468771,-1.26178 l 1.269595,-1.015676 c 0.755375,-0.578152 1.181146,-1.902875 0.468613,-3.171717 -0.37171,-0.655993 -1.091556,-1.820736 -1.636799,-2.562627 -0.294642,-0.396771 -0.765541,-0.982452 -1.168027,-1.476634 -0.20028,-0.246996 -0.386677,-0.475424 -0.519556,-0.636752 -0.0674,-0.08066 -0.117746,-0.145787 -0.156267,-0.191409 -0.0192,-0.0228 -0.03564,-0.03768 -0.04688,-0.05078 -0.0056,-0.0066 -0.0106,-0.0102 -0.0156,-0.0156 -0.351561,-0.417504 -0.799567,-0.673098 -1.293047,-0.757857 z m 13.903029,1.578202 c -0.667039,-0.04704 -1.263929,0.450266 -1.312565,1.093804 -0.04868,0.644252 0.470489,1.218726 1.136774,1.265688 1.647689,0.116446 2.75842,0.600786 3.593929,1.484447 v 0.004 c 0.852848,0.900063 1.243503,1.927561 1.210996,3.332197 v 0.0078 c -0.0144,0.646386 0.525637,1.192927 1.19537,1.207092 h 0.03126 c 0.659955,0 1.208032,-0.521988 1.222716,-1.160214 0.04514,-1.930845 -0.58061,-3.652796 -1.847747,-4.988527 -1.276063,-1.342281 -3.08085,-2.093385 -5.230725,-2.246205 z"
         id="path5" />
      <path
         style="fill:#ffffff"
         d="m 35.244226,12.486631 0.004,0.004 c -0.676297,0 -1.239709,0.540805 -1.246155,1.195371 -0.004,0.65755 0.557253,1.207609 1.238343,1.210997 2.93938,0.02208 5.3563,0.953261 7.305046,2.785294 1.92584,1.815037 2.931578,4.328159 2.957177,7.609751 v 0.004 c 0.0068,0.652796 0.567994,1.191377 1.246062,1.191377 7e-5,0 0.011,-0.0038 0.0118,-0.004 0.679588,-0.0062 1.243848,-0.554025 1.238343,-1.210997 -0.0154,-1.915143 -0.32552,-3.675371 -0.933722,-5.22282 -0.615898,-1.563809 -1.553322,-2.946896 -2.773574,-4.097858 -2.411631,-2.267474 -5.490329,-3.439993 -9.035602,-3.465015 z m -13.828807,4.027542 c -0.473456,-0.07952 -0.984277,0.0118 -1.496168,0.257825 h -0.04296 l -0.05468,0.03126 c -0.950948,0.54058 -1.84462,1.263122 -2.679825,2.17198 l -0.0664,0.07422 v 0.0625 c -0.577729,0.720194 -0.959112,1.445819 -1.046926,2.171981 -0.02804,0.123066 -0.02734,0.236744 -0.02734,0.355488 0,0.330372 0.05048,0.66296 0.152347,0.992237 l 0.02734,0.09374 0.05468,0.03516 c 0.329865,1.131406 1.08102,2.889532 2.718884,5.871383 1.090926,1.97635 2.205541,3.628863 3.312661,5.019777 0.583181,0.731014 1.241228,1.491276 2.007913,2.257926 0.009,0.0092 0.04296,0.04252 0.07812,0.07422 0.0122,0.0122 0.02844,0.03622 0.07032,0.07812 l 0.07812,0.07812 h 0.004 c 0.02698,0.02698 0.04674,0.04538 0.05078,0.05078 l 0.0118,0.0156 0.0156,0.0156 c 0.766723,0.758119 1.522587,1.420862 2.261829,2.000099 1.389191,1.1068 3.039264,2.231672 5.015873,3.324381 2.986091,1.646844 4.765303,2.390786 5.890914,2.714978 l 0.03906,0.05078 0.07032,0.02344 c 0.318906,0.106285 0.648076,0.153387 0.97661,0.148447 0.133266,0.0072 0.250738,-0.0019 0.363298,-0.02734 0.77098,-0.09013 1.537914,-0.452678 2.293083,-1.085992 l 0.0078,-0.0118 0.0078,-0.004 c 0.0118,-0.0116 0.0056,-0.0078 0.0118,-0.0156 0.0068,-0.006 0.0086,-0.0134 0.0156,-0.0196 0.893902,-0.815586 1.613539,-1.70263 2.156356,-2.652475 l 0.03516,-0.0586 v -0.0586 c 0.49858,-1.037901 0.302043,-2.098041 -0.507837,-2.773574 -0.0198,-0.017 -0.40788,-0.341007 -0.89067,-0.73441 -0.493724,-0.4022 -1.081293,-0.874118 -1.476635,-1.164122 -0.748005,-0.553169 -1.903554,-1.270212 -2.562626,-1.636798 -1.265768,-0.708645 -2.590064,-0.296447 -3.17203,0.457054 l -1.019583,1.277407 c -0.411498,0.518326 -1.236036,0.470045 -1.257873,0.468773 -6.920623,-1.779928 -8.780117,-8.740023 -8.793402,-8.789497 -0.0012,-0.02178 -0.04998,-0.843602 0.468771,-1.26178 l 1.269595,-1.015676 c 0.755375,-0.578152 1.181146,-1.902875 0.468613,-3.171717 -0.37171,-0.655993 -1.091556,-1.820736 -1.636799,-2.562627 -0.294642,-0.396771 -0.765541,-0.982452 -1.168027,-1.476634 -0.20028,-0.246996 -0.386677,-0.475424 -0.519556,-0.636752 -0.0674,-0.08066 -0.117746,-0.145787 -0.156267,-0.191409 -0.0192,-0.0228 -0.03564,-0.03768 -0.04688,-0.05078 -0.0056,-0.0066 -0.0106,-0.0102 -0.0156,-0.0156 -0.351561,-0.417504 -0.799567,-0.673098 -1.293047,-0.757857 z m 13.903029,1.578202 c -0.667039,-0.04704 -1.263929,0.450266 -1.312565,1.093804 -0.04868,0.644252 0.470489,1.218726 1.136774,1.265688 1.647689,0.116446 2.75842,0.600786 3.593929,1.484447 v 0.004 c 0.852848,0.900063 1.243503,1.927561 1.210996,3.332197 v 0.0078 c -0.0144,0.646386 0.525637,1.192927 1.19537,1.207092 h 0.03126 c 0.659955,0 1.208032,-0.521988 1.222716,-1.160214 0.04514,-1.930845 -0.58061,-3.652796 -1.847747,-4.988527 -1.276063,-1.342281 -3.08085,-2.093385 -5.230725,-2.246205 z"
         id="path6" />
    </g>
  </g>
</svg>
