<?xml version="1.0" encoding="UTF-8" standalone="no"?>
<svg
   width="62"
   height="62"
   version="1"
   id="svg9"
   sodipodi:docname="vscode-insiders.svg"
   inkscape:version="1.4 (e7c3feb100, 2024-10-09)"
   xmlns:inkscape="http://www.inkscape.org/namespaces/inkscape"
   xmlns:sodipodi="http://sodipodi.sourceforge.net/DTD/sodipodi-0.dtd"
   xmlns="http://www.w3.org/2000/svg"
   xmlns:svg="http://www.w3.org/2000/svg">
  <defs
     id="defs9" />
  <sodipodi:namedview
     id="namedview9"
     pagecolor="#ffffff"
     bordercolor="#000000"
     borderopacity="0.25"
     inkscape:showpageshadow="2"
     inkscape:pageopacity="0.0"
     inkscape:pagecheckerboard="0"
     inkscape:deskcolor="#d1d1d1"
     inkscape:zoom="11.6875"
     inkscape:cx="31.957219"
     inkscape:cy="32"
     inkscape:window-width="1920"
     inkscape:window-height="994"
     inkscape:window-x="0"
     inkscape:window-y="0"
     inkscape:window-maximized="1"
     inkscape:current-layer="svg9" />
  <g
     id="g10"
     transform="translate(-0.49999987,-0.99859667)">
    <path
       style="fill:#007c64;stroke-width:0.982283"
       d="M 57.05471,9.8281816 45.729332,4.3419428 C 44.41851,3.7069081 42.851767,3.9747811 41.82287,5.0098629 L 4.7474978,38.410126 c -0.9972339,0.91485 -0.9960869,2.494377 0.00242,3.407708 l 3.0284433,2.769802 c 0.8163762,0.746791 2.0458359,0.801657 2.9248109,0.130939 L 55.350535,11.251444 c 1.497832,-1.143218 3.649242,-0.06834 3.649242,1.823167 v -0.13231 c 0,-1.327767 -0.756002,-2.538151 -1.945074,-3.1141335 z"
       id="path3" />
    <path
       style="opacity:0.1;fill:#ffffff;stroke-width:0.982283"
       d="M 43.926407,4.0134064 C 43.149342,4.0864251 42.402769,4.427037 41.824014,5.009271 L 4.7481164,38.408123 C 4.1211012,38.983335 3.899487,39.820048 4.0633025,40.589806 4.1602454,40.145314 4.3853314,39.723361 4.7481164,39.390554 L 41.824014,5.9917026 c 0.771668,-0.7763121 1.843163,-1.1226416 2.885039,-0.9785945 0.347291,0.048019 0.692807,0.1520891 1.020509,0.3108476 L 57.0549,10.811757 c 0.02601,0.01255 0.04927,0.02902 0.07477,0.04227 1.009234,0.182444 1.870294,1.026065 1.870294,2.221984 v -0.134318 c 0,-1.327768 -0.756028,-2.536324 -1.945099,-3.1123159 L 45.729562,4.3415243 C 45.40186,4.1827657 45.056344,4.0786915 44.709053,4.0306766 c -0.260466,-0.036012 -0.523618,-0.04161 -0.782646,-0.01727 z"
       id="path4" />
    <g
       id="g9"
       transform="matrix(0.98214285,0,0,0.98243195,0.07142857,0.07024749)">
      <path
         style="opacity:0.2"
         d="m 46.488697,60.653288 c -1.335083,0.645788 -2.930318,0.372916 -3.977924,-0.68076 1.290705,1.298184 3.497844,0.378641 3.497844,-1.457378 V 7.4851571 c 0,-1.8360194 -2.207139,-2.7555204 -3.497844,-1.4572518 1.047606,-1.053676 2.642841,-1.3267305 3.977924,-0.6809139 L 58.018033,10.923664 C 59.229599,11.509644 60,12.742113 60,14.094212 v 37.812149 c 0,1.352057 -0.770401,2.584498 -1.981967,3.170478 z"
         id="path1" />
      <path
         style="opacity:0.2"
         d="M 58.019345,10.932414 46.488043,5.3480692 C 45.153394,4.7016788 43.558159,4.9743413 42.510555,6.0279333 L 4.7610888,40.025468 c -1.0153655,0.931205 -1.0141981,2.538984 0.00252,3.468649 l 3.083497,2.819332 c 0.8312193,0.76014 2.0830327,0.815985 2.9779782,0.133279 L 56.284195,12.381126 c 1.52506,-1.16366 3.715585,-0.06958 3.715585,1.855773 V 14.10222 c 0,-1.351511 -0.769743,-2.583532 -1.980435,-3.16982 z"
         id="path2" />
      <path
         style="opacity:0.2"
         d="m 9.3127866,17.015873 c -0.528724,0.02364 -1.0492258,0.229358 -1.4648355,0.609372 l -3.0859199,2.820296 c -1.0167181,0.929637 -1.0153655,2.537596 0,3.46873 L 42.511817,59.972662 c 0.159259,0.160139 0.349528,0.267054 0.531247,0.390623 0.0012,5.9e-4 0.0028,-5.9e-4 0.004,0 1.285253,0.654085 2.960919,-0.247254 2.960919,-1.847647 V 45.453212 L 10.824497,17.492433 C 10.377024,17.15101 9.8415107,16.992236 9.3127866,17.015873 Z"
         id="path5" />
      <path
         style="fill:#00a388"
         d="m 58.019345,54.068061 -11.531302,5.584358 c -1.334649,0.646236 -2.929884,0.373574 -3.977488,-0.679878 L 4.7610888,22.912841 c -1.0153655,-0.931135 -1.0141981,-2.538984 0.00252,-3.46862 l 3.083497,-2.819445 C 8.678325,15.864748 9.9301384,15.808791 10.825084,16.491637 l 45.459111,36.127614 c 1.52506,1.163617 3.715585,0.06972 3.715585,-1.855802 v 0.13482 c 0,1.351398 -0.769743,2.583405 -1.980435,3.169834 z"
         id="path6" />
      <path
         style="opacity:0.1;fill:#ffffff"
         d="M 9.3125,16.015625 C 8.783776,16.039265 8.2632659,16.244986 7.8476562,16.625 l -3.0859374,2.820312 c -0.6398203,0.585019 -0.8643505,1.435031 -0.6972657,2.21875 0.09887,-0.451503 0.3275397,-0.880691 0.6972657,-1.21875 L 7.8476562,17.625 C 8.2632659,17.244986 8.783776,17.039265 9.3125,17.015625 c 0.5287241,-0.02364 1.064246,0.135139 1.511719,0.476563 l 45.460937,36.128906 c 0.54193,0.41349 1.166333,0.530735 1.748047,0.4375 C 59.235658,53.469435 60,52.244511 60,50.898438 v -0.136719 c 0,1.925521 -2.189784,3.022992 -3.714844,1.859375 L 10.824219,16.492188 C 10.376746,16.150764 9.8412241,15.991988 9.3125,16.015625 Z"
         id="path7" />
    </g>
    <path
       style="fill:#24bfa5;stroke-width:0.982283"
       d="m 45.729975,58.675554 c -1.311244,0.634443 -2.877994,0.366371 -3.906895,-0.668799 1.267653,1.275382 3.435385,0.371989 3.435385,-1.431775 V 6.4414866 c 0,-1.8037643 -2.167732,-2.7071111 -3.435385,-1.4316507 1.028901,-1.0351648 2.595651,-1.3034231 3.906895,-0.6689521 l 11.323449,5.4787013 c 1.189935,0.5756899 1.946575,1.7865049 1.946575,3.1148499 v 37.147858 c 0,1.328304 -0.75664,2.539093 -1.946575,3.114779 z"
       id="path8" />
    <path
       style="opacity:0.2;fill:#ffffff;stroke-width:0.982283"
       d="m 44.089457,4.0095695 c -0.615851,0.03954 -1.213648,0.2586042 -1.739845,0.615939 0.782843,-0.3985573 1.694356,-0.1943476 2.280798,0.385681 0.02635,0.00299 0.05227,-0.00168 0.07865,0.00187 0.347358,0.047898 0.692691,0.1522297 1.020509,0.3108473 L 57.054902,10.800211 C 58.244827,11.3759 59,12.588014 59,13.91636 V 12.933932 C 59,11.605588 58.244827,10.393461 57.054901,9.8177755 L 45.729562,4.3415243 C 45.401743,4.1829058 45.056411,4.0785749 44.709053,4.0306766 44.501599,4.0020681 44.294743,3.9963912 44.089457,4.0095695 Z m -1.739845,0.615939 c -0.18586,0.094618 -0.362919,0.2200749 -0.525598,0.3837625 0.157153,-0.1581125 0.34617,-0.2619185 0.525598,-0.3837625 z m 2.90806,51.9499265 c 0,1.572281 -1.645764,2.45779 -2.90806,1.815198 0.707983,0.480759 1.546308,0.652047 2.376707,0.529589 0.319747,-0.34664 0.531353,-0.808487 0.531353,-1.362351 z m -2.90806,1.815198 c -0.17942,-0.121843 -0.368451,-0.225648 -0.525598,-0.383766 0.162673,0.163676 0.339746,0.289156 0.525598,0.383766 z"
       id="path9" />
  </g>
</svg>
