<?xml version="1.0" encoding="UTF-8" standalone="no"?>
<svg
   width="62"
   height="62"
   viewBox="0 0 62 62"
   fill="none"
   version="1.1"
   id="svg32"
   sodipodi:docname="visualvm.svg"
   inkscape:version="1.4 (unknown)"
   xmlns:inkscape="http://www.inkscape.org/namespaces/inkscape"
   xmlns:sodipodi="http://sodipodi.sourceforge.net/DTD/sodipodi-0.dtd"
   xmlns:xlink="http://www.w3.org/1999/xlink"
   xmlns="http://www.w3.org/2000/svg"
   xmlns:svg="http://www.w3.org/2000/svg">
  <sodipodi:namedview
     id="namedview32"
     pagecolor="#ffffff"
     bordercolor="#000000"
     borderopacity="0.25"
     inkscape:showpageshadow="2"
     inkscape:pageopacity="0.0"
     inkscape:pagecheckerboard="0"
     inkscape:deskcolor="#d1d1d1"
     inkscape:zoom="8.0729167"
     inkscape:cx="28.056774"
     inkscape:cy="31.277419"
     inkscape:window-width="1920"
     inkscape:window-height="998"
     inkscape:window-x="0"
     inkscape:window-y="0"
     inkscape:window-maximized="1"
     inkscape:current-layer="svg32" />
  <g
     id="g32"
     transform="matrix(1.2727244,0,0,1.2727244,-0.1817478,1.7272752)">
    <path
       opacity="0.5"
       d="M 13.6036,5.99951 9.94971,6.95992 c 0,0 2.08719,3.80578 2.87989,7.20418 1.2301,5.2737 1.2,9.5819 1.2,9.5819 l 3.8703,-1.8459 c 0,0 -2.3123,-2.6958 -3.6158,-8.1154 -0.7576,-3.1502 -0.6805,-7.78519 -0.6805,-7.78519 z"
       id="path1"
       style="fill:url(#linearGradient59)" />
    <path
       opacity="0.5"
       d="m 30.9823,15.0117 c 0,0 -1.5135,3.9461 -3.3109,5.5971 -1.7522,1.6094 -5.707,3.3323 -5.707,3.3323 l 3.0419,2.8046 c 0,0 1.0716,-2.7101 3.2706,-4.5616 2.0907,-1.7604 6.4285,-3.3462 6.4285,-3.3462 z"
       id="path2"
       style="fill:url(#linearGradient43);opacity:1" />
    <path
       opacity="0.5"
       d="m 20.207,17.25 c 0,0 0.4969,1.144 0.1096,2.4577 -0.3617,1.2268 -1.8532,2.8516 -1.8532,2.8516 l 3.1642,0.5266 c 0,0 -0.2981,-1.613 0.0831,-2.8243 0.4186,-1.3305 1.5924,-2.1444 1.5924,-2.1444 z"
       id="path3"
       style="fill:url(#linearGradient61)" />
    <path
       opacity="0.5"
       d="m 20.6917,37.2744 -3.8797,0.3848 c 0,0 1.789,1.1141 1.9735,2.2095 0.1451,0.8621 0.2265,1.9317 0.2265,1.9317 l 1.8363,-0.4529 c 0,0 -0.5444,-0.9828 -0.8515,-1.7106 -0.4628,-1.0967 0.6949,-2.3625 0.6949,-2.3625 z"
       id="path4"
       style="fill:url(#linearGradient57)" />
    <path
       d="m 17.9001,38.3998 c 4.8601,0 8.8,-3.9399 8.8,-8.8 0,-4.8601 -3.9399,-8.8 -8.8,-8.8 -4.8601,0 -8.8,3.9399 -8.8,8.8 0,4.8601 3.9399,8.8 8.8,8.8 z"
       id="path5"
       style="fill:url(#linearGradient48)" />
    <path
       d="m 35.5,19.7002 c 3.0376,0 5.5,-2.4624 5.5,-5.5 0,-3.0376 -2.4624,-5.5 -5.5,-5.5 -3.0376,0 -5.5,2.4624 -5.5,5.5 0,3.0376 2.4624,5.5 5.5,5.5 z"
       id="path6"
       style="fill:url(#linearGradient41)" />
    <path
       d="m 11.3,7.6 c 1.8225,0 3.3,-1.47746 3.3,-3.3 C 14.6,2.47746 13.1225,1 11.3,1 9.47746,1 8,2.47746 8,4.3 8,6.12254 9.47746,7.6 11.3,7.6 Z"
       id="path7"
       style="fill:url(#linearGradient34)" />
    <path
       d="m 22.3,18.6 c 1.8225,0 3.3,-1.4775 3.3,-3.3 0,-1.8225 -1.4775,-3.3 -3.3,-3.3 -1.8225,0 -3.3,1.4775 -3.3,3.3 0,1.8225 1.4775,3.3 3.3,3.3 z"
       id="path8"
       style="fill:url(#linearGradient36)" />
    <path
       d="m 20.0999,45.0001 c 1.215,0 2.2,-0.985 2.2,-2.2 0,-1.215 -0.985,-2.2 -2.2,-2.2 -1.215,0 -2.2,0.985 -2.2,2.2 0,1.215 0.985,2.2 2.2,2.2 z"
       id="path9"
       style="fill:url(#linearGradient51)" />
    <path
       d="m 32.2,39.5001 c 1.215,0 2.2,-0.985 2.2,-2.2 0,-1.215 -0.985,-2.2 -2.2,-2.2 -1.215,0 -2.2,0.985 -2.2,2.2 0,1.215 0.985,2.2 2.2,2.2 z"
       id="path10"
       style="fill:url(#linearGradient53)" />
    <path
       d="m 29.4498,32.9001 c 0.9113,0 1.65,-0.7387 1.65,-1.65 0,-0.9113 -0.7387,-1.65 -1.65,-1.65 -0.9113,0 -1.65,0.7387 -1.65,1.65 0,0.9113 0.7387,1.65 1.65,1.65 z"
       id="path11"
       style="fill:url(#linearGradient55)" />
  </g>
  <defs
     id="defs32">
    <linearGradient
       id="linearGradient49"
       inkscape:collect="always">
      <stop
         style="stop-color:#632faf;stop-opacity:1;"
         offset="0"
         id="stop48" />
      <stop
         style="stop-color:#b394e1;stop-opacity:1;"
         offset="1"
         id="stop49" />
    </linearGradient>
    <linearGradient
       id="linearGradient46"
       inkscape:collect="always">
      <stop
         style="stop-color:#8c5cd3;stop-opacity:1;"
         offset="0"
         id="stop45" />
      <stop
         style="stop-color:#d7c6ef;stop-opacity:1;"
         offset="1"
         id="stop46" />
    </linearGradient>
    <linearGradient
       id="linearGradient44"
       inkscape:collect="always">
      <stop
         style="stop-color:#7137c8;stop-opacity:0.28136882;"
         offset="0"
         id="stop43" />
      <stop
         style="stop-color:#ab88de;stop-opacity:1;"
         offset="1"
         id="stop44" />
    </linearGradient>
    <linearGradient
       id="linearGradient39"
       inkscape:collect="always">
      <stop
         style="stop-color:#8d5fd3;stop-opacity:1"
         offset="0"
         id="stop38" />
      <stop
         style="stop-color:#e3d7f4;stop-opacity:1;"
         offset="1"
         id="stop39" />
    </linearGradient>
    <linearGradient
       id="linearGradient32"
       inkscape:collect="always">
      <stop
         style="stop-color:#8d5fd3;stop-opacity:1"
         offset="0"
         id="stop33" />
      <stop
         style="stop-color:#7137c8;stop-opacity:0;"
         offset="1"
         id="stop34" />
    </linearGradient>
    <linearGradient
       id="paint0_linear_695_76"
       x1="17.3134"
       y1="2.2815001"
       x2="5.0276899"
       y2="8.1872997"
       gradientUnits="userSpaceOnUse">
      <stop
         stop-color="#FE7970"
         id="stop11" />
      <stop
         offset="1"
         stop-color="#D92B1A"
         id="stop12" />
    </linearGradient>
    <linearGradient
       id="paint1_linear_695_76"
       x1="33.765499"
       y1="12.5534"
       x2="23.483999"
       y2="24.5327"
       gradientUnits="userSpaceOnUse">
      <stop
         stop-color="#FE7970"
         id="stop13" />
      <stop
         offset="1"
         stop-color="#D92B1A"
         id="stop14" />
    </linearGradient>
    <linearGradient
       id="paint2_linear_695_76"
       x1="22.9461"
       y1="16.0273"
       x2="17.8078"
       y2="20.5998"
       gradientUnits="userSpaceOnUse">
      <stop
         stop-color="#FE7970"
         id="stop15" />
      <stop
         offset="1"
         stop-color="#D92B1A"
         id="stop16" />
    </linearGradient>
    <linearGradient
       id="paint3_linear_695_76"
       x1="20.5506"
       y1="36.326199"
       x2="16.542299"
       y2="40.1619"
       gradientUnits="userSpaceOnUse">
      <stop
         stop-color="#FE7970"
         id="stop17" />
      <stop
         offset="1"
         stop-color="#D92B1A"
         id="stop18" />
    </linearGradient>
    <linearGradient
       id="paint4_linear_695_76"
       x1="17.900101"
       y1="38.399799"
       x2="17.900101"
       y2="20.799801"
       gradientUnits="userSpaceOnUse">
      <stop
         stop-color="#FF2424"
         id="stop19" />
      <stop
         offset="1"
         stop-color="#FF8D8D"
         id="stop20" />
    </linearGradient>
    <linearGradient
       id="paint5_linear_695_76"
       x1="35.5"
       y1="19.700199"
       x2="35.5"
       y2="8.7002001"
       gradientUnits="userSpaceOnUse">
      <stop
         stop-color="#FF2424"
         id="stop21" />
      <stop
         offset="1"
         stop-color="#FF8D8D"
         id="stop22" />
    </linearGradient>
    <linearGradient
       id="paint6_linear_695_76"
       x1="11.3"
       y1="7.5999999"
       x2="11.3"
       y2="1"
       gradientUnits="userSpaceOnUse">
      <stop
         stop-color="#FF2424"
         id="stop23" />
      <stop
         offset="1"
         stop-color="#FF8D8D"
         id="stop24" />
    </linearGradient>
    <linearGradient
       id="paint7_linear_695_76"
       x1="22.299999"
       y1="18.6"
       x2="22.299999"
       y2="12"
       gradientUnits="userSpaceOnUse"
       xlink:href="#linearGradient32">
      <stop
         stop-color="#FF2424"
         id="stop25" />
      <stop
         offset="1"
         stop-color="#FF8D8D"
         id="stop26" />
    </linearGradient>
    <linearGradient
       id="paint8_linear_695_76"
       x1="20.099899"
       y1="45.000099"
       x2="20.099899"
       y2="40.600101"
       gradientUnits="userSpaceOnUse">
      <stop
         stop-color="#FF2424"
         id="stop27" />
      <stop
         offset="1"
         stop-color="#FF8D8D"
         id="stop28"
         style="stop-color:#ff8f8f;stop-opacity:1;" />
    </linearGradient>
    <linearGradient
       id="paint9_linear_695_76"
       x1="32.200001"
       y1="39.500099"
       x2="32.200001"
       y2="35.100101"
       gradientUnits="userSpaceOnUse"
       xlink:href="#linearGradient49">
      <stop
         stop-color="#FF2424"
         id="stop29" />
      <stop
         offset="1"
         stop-color="#FF8D8D"
         id="stop30" />
    </linearGradient>
    <linearGradient
       id="paint10_linear_695_76"
       x1="29.4498"
       y1="32.900101"
       x2="29.4498"
       y2="29.6001"
       gradientUnits="userSpaceOnUse"
       xlink:href="#linearGradient49">
      <stop
         stop-color="#FF2424"
         id="stop31" />
      <stop
         offset="1"
         stop-color="#FF8D8D"
         id="stop32" />
    </linearGradient>
    <linearGradient
       inkscape:collect="always"
       xlink:href="#linearGradient39"
       id="linearGradient34"
       x1="11.3"
       y1="7.5999999"
       x2="11.3"
       y2="1"
       gradientUnits="userSpaceOnUse" />
    <linearGradient
       inkscape:collect="always"
       xlink:href="#linearGradient39"
       id="linearGradient36"
       x1="22.299999"
       y1="18.6"
       x2="22.299999"
       y2="12"
       gradientUnits="userSpaceOnUse" />
    <linearGradient
       inkscape:collect="always"
       xlink:href="#linearGradient46"
       id="linearGradient41"
       x1="31.954473"
       y1="18.405048"
       x2="35.5"
       y2="8.7002001"
       gradientUnits="userSpaceOnUse" />
    <linearGradient
       inkscape:collect="always"
       xlink:href="#linearGradient44"
       id="linearGradient43"
       x1="21.964399"
       y1="26.745701"
       x2="31.84729"
       y2="18.312202"
       gradientUnits="userSpaceOnUse" />
    <linearGradient
       inkscape:collect="always"
       xlink:href="#linearGradient49"
       id="linearGradient48"
       x1="17.900101"
       y1="38.399799"
       x2="19.497871"
       y2="20.799801"
       gradientUnits="userSpaceOnUse" />
    <linearGradient
       inkscape:collect="always"
       xlink:href="#linearGradient39"
       id="linearGradient51"
       x1="20.099899"
       y1="45.000099"
       x2="20.099899"
       y2="40.600101"
       gradientUnits="userSpaceOnUse" />
    <linearGradient
       inkscape:collect="always"
       xlink:href="#linearGradient49"
       id="linearGradient53"
       x1="30"
       y1="37.300098"
       x2="34.400002"
       y2="37.300098"
       gradientUnits="userSpaceOnUse" />
    <linearGradient
       inkscape:collect="always"
       xlink:href="#linearGradient49"
       id="linearGradient55"
       x1="27.799801"
       y1="31.250099"
       x2="31.0998"
       y2="31.250099"
       gradientUnits="userSpaceOnUse" />
    <linearGradient
       inkscape:collect="always"
       xlink:href="#linearGradient44"
       id="linearGradient57"
       x1="16.812"
       y1="39.537399"
       x2="20.848301"
       y2="39.537399"
       gradientUnits="userSpaceOnUse" />
    <linearGradient
       inkscape:collect="always"
       xlink:href="#linearGradient44"
       id="linearGradient59"
       x1="9.9497099"
       y1="14.872755"
       x2="17.8999"
       y2="14.872755"
       gradientUnits="userSpaceOnUse" />
    <linearGradient
       inkscape:collect="always"
       xlink:href="#linearGradient49"
       id="linearGradient61"
       x1="18.4634"
       y1="20.16795"
       x2="23.303101"
       y2="20.16795"
       gradientUnits="userSpaceOnUse" />
  </defs>
</svg>
