<?xml version="1.0" encoding="UTF-8" standalone="no"?>
<svg
   width="62"
   height="62"
   version="1.1"
   id="svg4"
   sodipodi:docname="vitomu.svg"
   inkscape:version="1.4 (unknown)"
   xmlns:inkscape="http://www.inkscape.org/namespaces/inkscape"
   xmlns:sodipodi="http://sodipodi.sourceforge.net/DTD/sodipodi-0.dtd"
   xmlns="http://www.w3.org/2000/svg"
   xmlns:svg="http://www.w3.org/2000/svg">
  <defs
     id="defs4" />
  <sodipodi:namedview
     id="namedview4"
     pagecolor="#ffffff"
     bordercolor="#000000"
     borderopacity="0.25"
     inkscape:showpageshadow="2"
     inkscape:pageopacity="0.0"
     inkscape:pagecheckerboard="0"
     inkscape:deskcolor="#d1d1d1"
     inkscape:zoom="12.109375"
     inkscape:cx="32"
     inkscape:cy="32"
     inkscape:window-width="1920"
     inkscape:window-height="998"
     inkscape:window-x="0"
     inkscape:window-y="0"
     inkscape:window-maximized="1"
     inkscape:current-layer="svg4" />
  <g
     id="g4"
     transform="matrix(0.98214286,0,0,0.98245614,-0.42857152,-0.92982455)">
    <circle
       style="opacity:0.2"
       cx="32"
       cy="33"
       r="28"
       id="circle1" />
    <circle
       style="fill:#c83771"
       cx="32"
       cy="32"
       r="28"
       id="circle2" />
    <path
       style="opacity:0.2;fill:#ffffff"
       d="M 32,4 A 28,28 0 0 0 4,32 28,28 0 0 0 4.0215,32.586 28,28 0 0 1 32,5 28,28 0 0 1 59.979,32.414 28,28 0 0 0 60,32 28,28 0 0 0 32,4 Z"
       id="path2" />
    <path
       style="opacity:0.2"
       d="m 32,12 v 5 c 0,0 -16,0.6 -16,16 0,4 2,7 2,7 v -7 c 0,-7 8.4,-11 14,-11 h 10 z m 14,14 v 7 c 0,7 -8.4,11 -14,11 H 22 l 10,10 v -5 c 0,0 16,-0.6 16,-16 0,-4 -2,-7 -2,-7 z m -17,1 v 12 l 9,-6 z"
       id="path3" />
    <path
       style="fill:#f9f9f9"
       d="m 32,11 v 5 c 0,0 -16,0.6 -16,16 0,4 2,7 2,7 v -7 c 0,-7 8.4,-11 14,-11 h 10 z m 14,14 v 7 c 0,7 -8.4,11 -14,11 H 22 l 10,10 v -5 c 0,0 16,-0.6 16,-16 0,-4 -2,-7 -2,-7 z m -17,1 v 12 l 9,-6 z"
       id="path4" />
  </g>
</svg>
