<?xml version="1.0" encoding="UTF-8" standalone="no"?>
<svg
   width="62"
   height="62"
   version="1.1"
   id="svg10"
   sodipodi:docname="x2goclient.svg"
   inkscape:version="1.4 (unknown)"
   xmlns:inkscape="http://www.inkscape.org/namespaces/inkscape"
   xmlns:sodipodi="http://sodipodi.sourceforge.net/DTD/sodipodi-0.dtd"
   xmlns:xlink="http://www.w3.org/1999/xlink"
   xmlns="http://www.w3.org/2000/svg"
   xmlns:svg="http://www.w3.org/2000/svg">
  <defs
     id="defs10">
    <linearGradient
       id="linearGradient11"
       inkscape:collect="always">
      <stop
         style="stop-color:#002969;stop-opacity:1;"
         offset="0"
         id="stop11" />
      <stop
         style="stop-color:#5599ff;stop-opacity:1"
         offset="1"
         id="stop12" />
    </linearGradient>
    <linearGradient
       inkscape:collect="always"
       xlink:href="#linearGradient11"
       id="linearGradient12"
       x1="30.978724"
       y1="60"
       x2="30.553192"
       y2="5.9255319"
       gradientUnits="userSpaceOnUse"
       gradientTransform="matrix(1,0,0,0.98245614,-1,-0.92982455)" />
    <linearGradient
       id="paint1_linear_69_124"
       x1="3.99999"
       y1="59.111801"
       x2="71.222702"
       y2="29.3402"
       gradientUnits="userSpaceOnUse">
      <stop
         stop-color="#0357D1"
         id="stop5" />
      <stop
         offset="1"
         stop-color="#27CDFC"
         id="stop6" />
    </linearGradient>
  </defs>
  <sodipodi:namedview
     id="namedview10"
     pagecolor="#ffffff"
     bordercolor="#000000"
     borderopacity="0.25"
     inkscape:showpageshadow="2"
     inkscape:pageopacity="0.0"
     inkscape:pagecheckerboard="0"
     inkscape:deskcolor="#d1d1d1"
     inkscape:zoom="11.75"
     inkscape:cx="32.042553"
     inkscape:cy="32.042553"
     inkscape:window-width="1920"
     inkscape:window-height="998"
     inkscape:window-x="0"
     inkscape:window-y="0"
     inkscape:window-maximized="1"
     inkscape:current-layer="svg10" />
  <rect
     style="opacity:0.2;stroke-width:0.991189"
     width="56"
     height="55.017544"
     x="3"
     y="3.9824562"
     rx="16.799999"
     ry="16.505262"
     id="rect1" />
  <rect
     style="fill:url(#linearGradient12);stroke-width:0.991189"
     width="56"
     height="55.017544"
     x="3"
     y="3"
     rx="16.799999"
     ry="16.505262"
     id="rect2" />
  <path
     style="opacity:0.1;fill:#ffffff;stroke-width:0.991189"
     d="M 19.800781,3 C 10.493582,3 3,10.362116 3,19.50603 v 0.982457 C 3,11.344572 10.493582,3.9824562 19.800781,3.9824562 H 42.199219 C 51.506418,3.9824562 59,11.344572 59,20.488487 V 19.50603 C 59,10.362116 51.506418,3 42.199219,3 Z"
     id="path9" />
  <g
     id="g3"
     transform="matrix(0.98618344,0,0,0.99312279,1.4572658,-0.33902876)">
    <path
       d="m 36.843464,17.086369 c 1.5837,-1.8815 4.1561,-2.8978 6.6261,-2.5953 2.5842,0.26 4.9203,1.9513 6.0312,4.2479 0.8033,1.7185 0.7597,3.5929 0.7165,5.4539 -0.017,0.731105 -0.034,1.460105 5e-4,2.176795 -0.0145,0.27521 -0.0063,0.56641 0.002,0.86241 0.0278,0.99299 0.0571,2.0398 -0.7623,2.71819 -1.1976,1.15211 -3.4667,0.38021 -3.6794,-1.253 -0.0653,-1.19959 -0.0545,-2.4024 -0.0437,-3.605 0.01,-1.118995 0.0201,-2.238295 -0.0312,-3.354595 -0.0866,-1.5362 -1.4812,-2.8746 -3.053,-2.8668 -1.3985,-0.0465 -2.6394,0.9427 -3.0688,2.2229 -0.1336,1.3792 -0.1164,2.7655 -0.0991,4.152295 0.0143,1.14861 0.0286,2.29761 -0.0428,3.4434 -0.1812,1.28021 -1.6545,2.1375 -2.8875,1.70691 -1.2409,-0.3414 -1.7058,-1.69911 -1.5561,-2.85131 0.061,-0.91279 0.0325,-1.8505 0.0039,-2.79159 -0.0692,-2.278605 -0.1391,-4.577405 1.0597,-6.592505 0.2482,-0.3685 0.5083,-0.7254 0.784,-1.0746 z"
       fill="url(#paint1_linear_69_124)"
       id="path1"
       style="fill:#ffffff;fill-opacity:1" />
    <path
       fill-rule="evenodd"
       clip-rule="evenodd"
       d="m 30.871364,15.499769 c 0.9139,-1.6526 3.6479,-1.2298 4.1206,0.5664 0.067,0.5819 -0.0118,1.1676 -0.2167,1.7146 -0.8431,2.5174 -1.6824,5.0347 -2.5216,7.552095 l -0.0469,0.14071 c -0.9415,2.83189 -1.8869,5.6637 -2.8324,8.4918 -0.8548,2.572 -1.7136,5.1401 -2.5724,7.70819 -0.251,0.6798 -0.4685,1.37231 -0.6859,2.06461 -0.3695,1.17649 -0.7388,2.35229 -1.272,3.4635 -1.233,2.09869 -4.7942,1.831 -5.6688,-0.4384 -1.2028,-3.6096 -2.3497,-7.2375 -3.4962,-10.8646 -0.6784,-2.1458 -1.3568,-4.292 -2.0465,-6.4333 -0.7876,-2.4649 -1.5721,-4.9283 -2.3564,-7.391105 -0.4711,-1.4792 -0.942,-2.9581 -1.4135999,-4.437 -0.189,-0.5198 -0.2324,-1.0746 -0.1378,-1.6177 0.5159999,-1.9203 3.5532999,-2.1181 4.2426999,-0.2289 1.4567,4.4617 2.8745,8.936205 4.2918,13.409105 l 4e-4,10e-4 8e-4,0.003 c 0.4949,1.5618 0.9897,3.1234 1.4861,4.6842 0.4294,1.3204 0.8509,2.644 1.2723,3.9674 0.3673,1.1535 0.7346,2.3069 1.107,3.4577 0.2901,-0.6299 0.5006,-1.2905 0.7111,-1.951 0.1239,-0.3889 0.2478,-0.7778 0.388,-1.1603 0.3256,-0.9738 0.6506,-1.9487 0.9757,-2.9239 l 0.0013,-0.004 c 0.5241,-1.572 1.0485,-3.1448 1.5758,-4.7146 0.4991,-1.5052 1.0016,-3.0094 1.5038,-4.5131 l 4e-4,-0.001 c 0.4528,-1.3556 0.9057,-2.711605 1.3557,-4.066705 0.296,-0.8281 0.5656,-1.6665 0.8354,-2.5051 0.4302,-1.3379 0.8607,-2.6762 1.3983,-3.9734 z"
       fill="url(#paint2_linear_69_124)"
       id="path2"
       style="fill:#ffffff;fill-opacity:1" />
    <path
       d="m 38.218364,35.028274 c 2.1457,-1.5227 4.7405,-1.4398 7.2915,-1.35841 0.9196,0.0294 1.8334,0.0585 2.7185,0.0123 2.1942,0.10471 2.7221,3.4332 0.6854,4.2052 -1.1412,0.3112 -2.3557,0.2555 -3.5696,0.1998 -1.5854,-0.0728 -3.1699,-0.1455 -4.5888,0.5993 -1.9067,1.33841 -1.5167,4.601 0.7484,5.33031 1.3221,0.30589 2.6821,0.26989 4.0439,0.2338 1.0038,-0.0266 2.0085,-0.0532 2.9998,0.0571 1.6072,0.3298 2.2375,2.5293 1.0754,3.6582 -0.6661,0.7492 -1.6521,0.7213 -2.5941,0.6946 -0.2726,-0.008 -0.5414,-0.0153 -0.7977,-0.004 -0.6092,-0.0272 -1.2268,-0.0131 -1.8456,9e-4 -1.5057,0.0341 -3.0182,0.0684 -4.4338,-0.4897 -2.6906,-0.966 -4.7115,-3.5264 -4.9321,-6.3466 -0.2639,-2.62251 1.0321,-5.2721 3.1988,-6.7928 z"
       fill="url(#paint3_linear_69_124)"
       id="path3"
       style="fill:#ffffff;fill-opacity:1" />
  </g>
</svg>
