<?xml version="1.0" encoding="UTF-8" standalone="no"?>
<svg
   width="62"
   height="62"
   version="1.1"
   id="svg5"
   sodipodi:docname="vnote.svg"
   inkscape:version="1.4 (unknown)"
   xmlns:inkscape="http://www.inkscape.org/namespaces/inkscape"
   xmlns:sodipodi="http://sodipodi.sourceforge.net/DTD/sodipodi-0.dtd"
   xmlns:xlink="http://www.w3.org/1999/xlink"
   xmlns="http://www.w3.org/2000/svg"
   xmlns:svg="http://www.w3.org/2000/svg">
  <defs
     id="defs5">
    <linearGradient
       id="linearGradient8"
       inkscape:collect="always">
      <stop
         style="stop-color:#2d3d53;stop-opacity:1;"
         offset="0"
         id="stop8" />
      <stop
         style="stop-color:#354864;stop-opacity:1;"
         offset="1"
         id="stop10" />
    </linearGradient>
    <linearGradient
       id="linearGradient4217">
      <stop
         style="stop-color:#000000;stop-opacity:1;"
         offset="0"
         id="stop2" />
      <stop
         style="stop-color:#000000;stop-opacity:0;"
         offset="1"
         id="stop4" />
    </linearGradient>
    <linearGradient
       id="linearGradient4161">
      <stop
         style="stop-color:#334545;stop-opacity:1;"
         offset="0"
         id="stop7" />
      <stop
         style="stop-color:#4d6868;stop-opacity:1"
         offset="1"
         id="stop9" />
    </linearGradient>
    <linearGradient
       id="a-1-2"
       y1="510.79999"
       y2="527.14001"
       gradientUnits="userSpaceOnUse"
       x2="0">
      <stop
         stop-color="#7cbaf8"
         id="stop2-2-7" />
      <stop
         offset="1"
         stop-color="#f4fcff"
         id="stop4-70-0" />
    </linearGradient>
    <linearGradient
       id="c"
       y1="503.79999"
       x1="400.57001"
       y2="519.79999"
       x2="416.57001"
       gradientUnits="userSpaceOnUse">
      <stop
         stop-color="#292c2f"
         id="stop12" />
      <stop
         offset="1"
         stop-opacity="0"
         id="stop14" />
    </linearGradient>
    <linearGradient
       id="b"
       y1="542.79999"
       x1="408.57001"
       y2="521.79999"
       x2="387.57001"
       gradientUnits="userSpaceOnUse"
       gradientTransform="translate(-384.57,-499.8)">
      <stop
         stop-color="#197cf1"
         id="stop7-8" />
      <stop
         offset="1"
         stop-color="#20bcfa"
         id="stop9-7" />
    </linearGradient>
    <linearGradient
       xlink:href="#linearGradient1389"
       id="linearGradient4503-5-6"
       y1="37"
       y2="4"
       x2="0"
       gradientUnits="userSpaceOnUse"
       gradientTransform="matrix(1.0218446,0,0,0.99999999,21.748946,8.2587777)" />
    <linearGradient
       id="linearGradient1389">
      <stop
         style="stop-color:#ffaaaa;stop-opacity:1"
         id="stop1385"
         offset="0" />
      <stop
         offset="1"
         style="stop-color:#ff5555;stop-opacity:1"
         id="stop1387" />
    </linearGradient>
    <linearGradient
       id="paint543_linear_890_11"
       x1="978.5"
       y1="298"
       x2="978.5"
       y2="304"
       gradientUnits="userSpaceOnUse"
       gradientTransform="matrix(0.75000004,0,0,0.75000004,-717.38333,-173.49123)">
      <stop
         offset="0.189495"
         stop-color="#EFF2F6"
         id="stop1829" />
      <stop
         offset="0.850463"
         stop-color="#B7C6CD"
         id="stop1830" />
    </linearGradient>
    <linearGradient
       inkscape:collect="always"
       xlink:href="#linearGradient8"
       id="linearGradient10"
       x1="31.5"
       y1="59.017544"
       x2="31.5"
       y2="4.9824562"
       gradientUnits="userSpaceOnUse"
       gradientTransform="translate(-0.5,-1)" />
    <linearGradient
       id="linearGradient4144">
      <stop
         style="stop-color:#c83771;stop-opacity:1"
         offset="0"
         id="stop1141" />
      <stop
         style="stop-color:#de87aa;stop-opacity:1"
         offset="1"
         id="stop1143" />
    </linearGradient>
    <linearGradient
       id="c-0"
       gradientUnits="userSpaceOnUse"
       x1="10"
       x2="24"
       y1="10"
       y2="24"
       gradientTransform="translate(59.728813,26.237288)">
      <stop
         offset="0"
         stop-color="#292c2f"
         id="stop12-2" />
      <stop
         offset="1"
         stop-opacity="0"
         id="stop14-3" />
    </linearGradient>
    <linearGradient
       id="d"
       gradientUnits="userSpaceOnUse"
       x1="24"
       x2="24"
       y1="25"
       y2="7"
       gradientTransform="translate(59.728813,26.237288)">
      <stop
         offset="0"
         stop-color="#bb9d71"
         id="stop2-7" />
      <stop
         offset="1"
         stop-color="#f9f2e7"
         id="stop4-5" />
    </linearGradient>
  </defs>
  <sodipodi:namedview
     id="namedview5"
     pagecolor="#ffffff"
     bordercolor="#000000"
     borderopacity="0.25"
     inkscape:showpageshadow="2"
     inkscape:pageopacity="0.0"
     inkscape:pagecheckerboard="0"
     inkscape:deskcolor="#d1d1d1"
     inkscape:zoom="8.2643105"
     inkscape:cx="25.349967"
     inkscape:cy="27.64901"
     inkscape:window-width="1920"
     inkscape:window-height="998"
     inkscape:window-x="0"
     inkscape:window-y="0"
     inkscape:window-maximized="1"
     inkscape:current-layer="svg5" />
  <rect
     style="opacity:0.2;stroke-width:0.9823"
     width="55"
     height="55.017544"
     x="3.5"
     y="3.9824562"
     rx="8.25"
     ry="8.2526312"
     id="rect1" />
  <rect
     style="fill:url(#linearGradient10);stroke-width:0.9823"
     width="55"
     height="55.017544"
     x="3.5"
     y="3"
     rx="8.25"
     ry="8.2526312"
     id="rect2" />
  <path
     style="opacity:0.1;fill:#ffffff;stroke-width:0.9823"
     d="M 11.748466,3 C 7.1779652,3 3.5,6.6791384 3.5,11.251097 v 0.982456 c 0,-4.5719585 3.6779652,-8.2510969 8.248466,-8.2510969 h 38.503068 c 4.5705,0 8.248466,3.6791384 8.248466,8.2510969 V 11.251097 C 58.5,6.6791384 54.822034,3 50.251534,3 Z"
     id="path4" />
  <g
     id="g1"
     transform="matrix(0.89599673,0,0,0.89552213,6.8226301,4.0752377)">
    <path
       style="opacity:0.2;stroke-width:0.919604"
       d="M 52.095469,24.107386 C 43.597447,35.163392 34.193093,47.043409 29.873277,53.515928 25.801279,50.137944 26.210971,45.799599 25.269729,41.750734 L 45.215842,15.807183 c 2.945315,1.136468 4.871127,4.82169 6.879627,8.300203 z"
       id="path3" />
    <path
       style="fill:#00a4a4;stroke-width:0.919604;fill-opacity:1"
       d="M 52.095469,23.187807 C 43.597447,34.243813 34.193093,46.123831 29.873277,52.596349 25.801279,49.21836 26.210971,44.880021 25.269729,40.831155 L 45.215842,14.887596 c 2.945315,1.136477 4.871127,4.821698 6.879627,8.300211 z"
       id="path4-67" />
    <path
       style="opacity:0.2;stroke-width:0.919604"
       d="m 13.009556,13.053899 -11.1374846,1.8e-4 13.9141936,37.912274 c 0.246168,0.708042 1.133636,2.502337 2.247844,2.534823 L 29.873277,53.516 C 25.148666,40.635731 20.424071,27.755543 15.699453,14.875363 15.356373,14.136654 14.268085,13.053879 13.009556,13.053879 Z"
       id="path5-5" />
    <path
       style="fill:#008080;stroke-width:0.919604"
       d="M 13.009556,12.134321 1.8720714,12.134493 15.786265,50.046774 c 0.246168,0.708035 1.133636,2.502339 2.247844,2.534817 l 11.839168,0.01482 C 25.148666,39.716153 20.424071,26.835965 15.699453,13.955785 15.356373,13.217076 14.268085,12.1343 13.009556,12.1343 Z"
       id="path6-3" />
    <path
       style="opacity:0.2;stroke-width:0.919604"
       d="M 52.089788,9.8101955 C 52.117469,8.7422993 51.350916,7.5445194 49.946656,7.537417 L 37.35156,7.5363032 C 40.284756,11.430514 45.953369,17.59355 52.095469,24.107483 Z"
       id="path7-5" />
    <path
       style="fill:#008585;stroke-width:0.919604;fill-opacity:1"
       d="M 52.089788,8.8906178 C 52.117461,7.8227186 51.350916,6.6249387 49.946656,6.617838 L 37.35156,6.6167169 c 2.933196,3.8942171 8.601809,10.0572471 14.743909,16.5711791 z"
       id="path8" />
    <path
       style="opacity:0.2;fill:#ffffff;stroke-width:0.919604"
       d="m 1.872751,12.133623 0.3376677,0.919611 H 13.00861 c 1.258529,0 2.347482,1.082537 2.690565,1.821246 4.612164,12.573618 9.224999,25.148128 13.837198,37.721822 h 0.337671 C 25.149428,39.716046 20.423787,26.835055 15.699175,13.954877 15.356092,13.216165 14.267139,12.133623 13.00861,12.133623 Z"
       id="path9" />
    <path
       style="opacity:0.2;fill:#ffffff;stroke-width:0.919604"
       d="m 37.353031,6.6159865 c 0.203331,0.2699542 0.484961,0.6050504 0.74179,0.9196061 h 11.852503 c 1.404266,0.00706 2.172236,1.2059723 2.144555,2.2738705 V 8.8898568 C 52.11956,7.8219581 51.35159,6.6230878 49.947324,6.6159865 Z"
       id="path10" />
  </g>
</svg>
