<?xml version="1.0" encoding="UTF-8" standalone="no"?>
<svg
   width="62"
   height="62"
   version="1.1"
   id="svg6"
   sodipodi:docname="vorta.svg"
   inkscape:version="1.4 (unknown)"
   xmlns:inkscape="http://www.inkscape.org/namespaces/inkscape"
   xmlns:sodipodi="http://sodipodi.sourceforge.net/DTD/sodipodi-0.dtd"
   xmlns="http://www.w3.org/2000/svg"
   xmlns:svg="http://www.w3.org/2000/svg">
  <defs
     id="defs6" />
  <sodipodi:namedview
     id="namedview6"
     pagecolor="#ffffff"
     bordercolor="#000000"
     borderopacity="0.25"
     inkscape:showpageshadow="2"
     inkscape:pageopacity="0.0"
     inkscape:pagecheckerboard="0"
     inkscape:deskcolor="#d1d1d1"
     inkscape:zoom="12.109375"
     inkscape:cx="32"
     inkscape:cy="32"
     inkscape:window-width="1920"
     inkscape:window-height="998"
     inkscape:window-x="0"
     inkscape:window-y="0"
     inkscape:window-maximized="1"
     inkscape:current-layer="svg6" />
  <g
     id="g6"
     transform="matrix(0.99978157,0,0,1.0013201,-0.99203395,-4.0462035)">
    <path
       d="m 18,17 c -1.379517,5.9e-5 -2.661665,0.710887 -3.392578,1.880859 l -10,16 C 2.9438582,37.545123 4.8590213,40.999473 8.0000001,41 H 56 c 3.140979,-5.27e-4 5.056142,-3.454877 3.392578,-6.119141 l -10,-16 C 48.661665,17.710887 47.379517,17.000059 46,17 Z"
       style="fill:#2d3d53;fill-opacity:1"
       id="path1" />
    <path
       d="m 18,17 c -1.379517,5.9e-5 -2.661665,0.710887 -3.392578,1.880859 l -10,16 c -0.5183058,0.830088 -0.6873511,1.736673 -0.5820313,2.591797 0.0673,-0.555744 0.251161,-1.113851 0.5800782,-1.640625 l 10.0000001,-16 c 0.730913,-1.169972 2.013061,-1.8808 3.392578,-1.880859 h 28 c 1.379517,5.9e-5 2.661665,0.710887 3.392578,1.880859 l 10,16 c 0.332405,0.532361 0.516624,1.09661 0.582031,1.658203 0.109863,-0.860279 -0.05821,-1.773583 -0.580078,-2.609375 l -10,-16 C 48.661665,17.710887 47.379517,17.000059 46,17 Z"
       style="opacity:0.1;fill:#ffffff"
       id="path2" />
    <rect
       x="4"
       y="35"
       width="55.998436"
       height="18.951221"
       rx="3"
       ry="2.9512215"
       style="opacity:0.2"
       id="rect2" />
    <rect
       x="4.0015635"
       y="34.048779"
       width="55.998436"
       height="18.951221"
       rx="3"
       ry="2.9512215"
       style="fill:#2d3d53;fill-opacity:1"
       id="rect3" />
    <circle
       cx="38.998436"
       cy="44.951221"
       r="4"
       style="opacity:0.2"
       id="circle3" />
    <circle
       cx="39"
       cy="44"
       r="4"
       style="fill:#8d5fd3"
       id="circle4" />
    <circle
       cx="49.998436"
       cy="44.951221"
       r="4"
       style="opacity:0.2"
       id="circle5" />
    <circle
       cx="50"
       cy="44"
       r="4"
       style="fill:#c83771"
       id="circle6" />
    <path
       d="m 7.0019531,34.048828 c -1.662,0 -3,1.316195 -3,2.951172 v 0.931641 C 4.0128566,36.305982 5.3448104,35 7,35 h 49.998047 c 1.662,0 3,1.316195 3,2.951172 v 12.117187 c 4.5e-5,-0.0067 0.002,-0.01283 0.002,-0.01953 V 37 c 0,-1.634977 -1.338,-2.951172 -3,-2.951172 z"
       style="opacity:0.2;fill:#ffffff"
       id="path6" />
  </g>
</svg>
