<?xml version="1.0" encoding="UTF-8" standalone="no"?>
<svg
   width="62"
   height="62"
   version="1"
   id="svg9"
   sodipodi:docname="vprerex.svg"
   inkscape:version="1.4 (unknown)"
   xmlns:inkscape="http://www.inkscape.org/namespaces/inkscape"
   xmlns:sodipodi="http://sodipodi.sourceforge.net/DTD/sodipodi-0.dtd"
   xmlns="http://www.w3.org/2000/svg"
   xmlns:svg="http://www.w3.org/2000/svg">
  <defs
     id="defs9" />
  <sodipodi:namedview
     id="namedview9"
     pagecolor="#ffffff"
     bordercolor="#000000"
     borderopacity="0.25"
     inkscape:showpageshadow="2"
     inkscape:pageopacity="0.0"
     inkscape:pagecheckerboard="0"
     inkscape:deskcolor="#d1d1d1"
     inkscape:zoom="6.0546875"
     inkscape:cx="24.691613"
     inkscape:cy="19.901935"
     inkscape:window-width="1920"
     inkscape:window-height="998"
     inkscape:window-x="0"
     inkscape:window-y="0"
     inkscape:window-maximized="1"
     inkscape:current-layer="svg9" />
  <g
     id="g1"
     transform="translate(-2,-2.164227)">
    <rect
       style="opacity:0.2;stroke-width:1.03267"
       width="41.183865"
       height="57.999981"
       x="-54.415749"
       y="-61.999981"
       rx="3.4316432"
       ry="3.6249988"
       transform="matrix(0,-1,-1,0,0,0)"
       id="rect1" />
    <rect
       style="fill:#ffd48c;fill-opacity:1;stroke-width:1.03267"
       width="41.183865"
       height="57.999981"
       x="-53.38615"
       y="-61.999981"
       rx="3.4316432"
       ry="3.6249988"
       transform="matrix(0,-1,-1,0,0,0)"
       id="rect2" />
    <path
       style="opacity:0.2;fill:#ffffff;stroke-width:1.03267"
       d="m 7.625,12.202315 c -2.0082501,0 -3.625,1.531343 -3.625,3.43266 v 1.029589 c 0,-1.901317 1.6167499,-3.432648 3.625,-3.432648 h 50.749999 c 2.00825,0 3.625001,1.531331 3.625001,3.432648 v -1.029589 c 0,-1.901317 -1.616751,-3.43266 -3.625001,-3.43266 z"
       id="path2" />
    <path
       style="fill:none;stroke:#5a79a5;stroke-width:3.92656;stroke-linecap:round;stroke-linejoin:round;stroke-opacity:1"
       d="m 20.275847,7.1454885 5.513501,9.1348645"
       id="path3" />
    <path
       style="opacity:0.1;stroke-width:0.654422"
       d="m 20.84905,16.288299 a 1.1734288,1.1208808 0 0 0 -0.0011,1.941883 l 3.421046,1.886231 3.421047,1.886245 a 1.1734288,1.1208808 0 0 0 1.759672,-0.970459 l 4.18e-4,-3.773158 4.18e-4,-3.773153 a 1.1734288,1.1208808 0 0 0 -1.761148,-0.96996 l -3.420148,1.886185 z"
       id="path4" />
    <path
       style="opacity:0.1;fill:#2d3d53;fill-opacity:1;stroke-width:0.654422"
       d="m 20.349789,5.1661406 a 1.9693002,1.9576679 0 0 0 -2.028085,2.2862681 1.9693002,1.9576679 0 0 1 2.028085,-1.6337769 1.9693002,1.9576679 0 0 1 1.613999,0.9723608 l 5.513746,9.1348754 a 1.9693002,1.9576679 0 0 1 0.274342,0.713669 1.9693002,1.9576679 0 0 0 -0.274342,-1.366159 L 21.963788,6.1385028 A 1.9693002,1.9576679 0 0 0 20.349789,5.1661406 Z"
       id="path5" />
    <path
       style="fill:#5a79a5;fill-opacity:1;stroke-width:0.654422"
       d="m 20.84905,15.635813 a 1.1734288,1.1208808 0 0 0 -0.0011,1.941881 l 3.421046,1.886227 3.421047,1.886234 a 1.1734288,1.1208808 0 0 0 1.759668,-0.970457 l 4.18e-4,-3.773145 4.18e-4,-3.773152 A 1.1734288,1.1208808 0 0 0 27.6894,11.863441 l -3.420148,1.886186 z"
       id="path6" />
    <path
       style="fill:none;stroke:#5a79a5;stroke-width:3.90827;stroke-linecap:round;stroke-linejoin:round;stroke-opacity:1"
       d="m 40.433827,46.227185 5.487762,9.092237"
       id="path7" />
    <path
       style="opacity:0.1;stroke-width:0.651376"
       d="m 41.00435,55.32733 a 1.1679527,1.1156485 0 0 0 -0.0011,1.932811 l 3.405071,1.877434 3.405085,1.877437 a 1.1679527,1.1156485 0 0 0 1.751469,-0.965928 l 4.15e-4,-3.755553 4.16e-4,-3.755537 a 1.1679527,1.1156485 0 0 0 -1.752948,-0.965435 l -3.404174,1.877391 z"
       id="path8" />
    <path
       style="fill:#5a79a5;fill-opacity:1;stroke-width:0.651376"
       d="m 41.00435,54.677882 a 1.1679527,1.1156485 0 0 0 -0.0011,1.93282 l 3.405071,1.877425 3.405085,1.877436 a 1.1679527,1.1156485 0 0 0 1.751461,-0.965929 l 4.15e-4,-3.755539 4.15e-4,-3.75555 A 1.1679527,1.1156485 0 0 0 47.812759,50.92311 l -3.404177,1.877392 z"
       id="path9" />
    <text
       xml:space="preserve"
       style="font-size:14.8388px;font-family:'Blush Asliring';-inkscape-font-specification:'Blush Asliring';text-align:start;writing-mode:lr-tb;direction:ltr;text-anchor:start;fill:#7137c8;stroke:#2d3d53;stroke-width:0;stroke-linecap:round;stroke-linejoin:round;paint-order:fill markers stroke"
       x="3.988431"
       y="37.455872"
       id="text9"
       transform="scale(1.0029666,0.99704219)"><tspan
         sodipodi:role="line"
         id="tspan9"
         x="3.988431"
         y="37.455872"
         style="stroke-width:0">Vprerex</tspan></text>
  </g>
</svg>
