<?xml version="1.0" encoding="UTF-8" standalone="no"?>
<svg
   width="62"
   height="62"
   version="1"
   id="svg9"
   sodipodi:docname="vscode.svg"
   inkscape:version="1.4 (e7c3feb100, 2024-10-09)"
   xmlns:inkscape="http://www.inkscape.org/namespaces/inkscape"
   xmlns:sodipodi="http://sodipodi.sourceforge.net/DTD/sodipodi-0.dtd"
   xmlns="http://www.w3.org/2000/svg"
   xmlns:svg="http://www.w3.org/2000/svg">
  <defs
     id="defs9" />
  <sodipodi:namedview
     id="namedview9"
     pagecolor="#ffffff"
     bordercolor="#000000"
     borderopacity="0.25"
     inkscape:showpageshadow="2"
     inkscape:pageopacity="0.0"
     inkscape:pagecheckerboard="0"
     inkscape:deskcolor="#d1d1d1"
     inkscape:zoom="11.6875"
     inkscape:cx="31.957219"
     inkscape:cy="32"
     inkscape:window-width="1920"
     inkscape:window-height="994"
     inkscape:window-x="0"
     inkscape:window-y="0"
     inkscape:window-maximized="1"
     inkscape:current-layer="svg9" />
  <g
     id="g9"
     transform="matrix(0.98214285,0,0,0.98243195,-0.42857108,-0.92834906)">
    <path
       style="opacity:0.2"
       d="m 46.488697,60.653288 c -1.335083,0.645788 -2.930318,0.372916 -3.977924,-0.68076 1.290705,1.298184 3.497844,0.378641 3.497844,-1.457378 V 7.4851571 c 0,-1.8360194 -2.207139,-2.7555204 -3.497844,-1.4572518 1.047606,-1.053676 2.642841,-1.3267305 3.977924,-0.6809139 L 58.018033,10.923664 C 59.229599,11.509644 60,12.742113 60,14.094212 v 37.812149 c 0,1.352057 -0.770401,2.584498 -1.981967,3.170478 z"
       id="path1" />
    <path
       style="opacity:0.2"
       d="M 58.019345,10.932414 46.488043,5.3480692 C 45.153394,4.7016788 43.558159,4.9743413 42.510555,6.0279333 L 4.7610888,40.025468 c -1.0153655,0.931205 -1.0141981,2.538984 0.00252,3.468649 l 3.083497,2.819332 c 0.8312193,0.76014 2.0830327,0.815985 2.9779782,0.133279 L 56.284195,12.381126 c 1.52506,-1.16366 3.715585,-0.06958 3.715585,1.855773 V 14.10222 c 0,-1.351511 -0.769743,-2.583532 -1.980435,-3.16982 z"
       id="path2" />
    <path
       style="fill:#0072b0"
       d="M 58.019345,9.9324272 46.488043,4.3480828 C 45.153394,3.7016924 43.558159,3.9743549 42.510555,5.0279469 L 4.7610888,39.025482 c -1.0153655,0.931204 -1.0141981,2.538983 0.00252,3.468648 l 3.083497,2.819332 c 0.8312193,0.76014 2.0830327,0.815985 2.9779782,0.133279 L 56.284195,11.381139 c 1.52506,-1.163659 3.715585,-0.06958 3.715585,1.855774 v -0.13468 c 0,-1.35151 -0.769743,-2.583531 -1.980435,-3.1698198 z"
       id="path3" />
    <path
       style="opacity:0.1;fill:#ffffff"
       d="M 44.652344,4.0136719 C 43.861148,4.088001 43.100997,4.4346982 42.511719,5.0273438 L 4.7617188,39.023438 c -0.6384155,0.585498 -0.86406,1.437175 -0.6972657,2.220703 0.098708,-0.452447 0.3278842,-0.88194 0.6972657,-1.220703 L 42.511719,6.0273438 c 0.785704,-0.7901941 1.87668,-1.142717 2.9375,-0.9960938 0.353608,0.048874 0.705399,0.1548088 1.039062,0.3164062 l 11.53125,5.5859378 c 0.02644,0.01281 0.05015,0.02956 0.07617,0.04297 C 59.123283,11.162268 60,12.02098 60,13.238281 v -0.136719 c 0,-1.351511 -0.769777,-2.58168 -1.980469,-3.1679682 L 46.488281,4.3476562 C 46.154618,4.1860587 45.802827,4.0801241 45.449219,4.03125 45.184014,3.9945942 44.916076,3.9888955 44.652344,4.0136719 Z"
       id="path4" />
    <path
       style="opacity:0.2"
       d="m 9.3127866,17.015873 c -0.528724,0.02364 -1.0492258,0.229358 -1.4648355,0.609372 l -3.0859199,2.820296 c -1.0167181,0.929637 -1.0153655,2.537596 0,3.46873 L 42.511817,59.972662 c 0.159259,0.160139 0.349528,0.267054 0.531247,0.390623 0.0012,5.9e-4 0.0028,-5.9e-4 0.004,0 1.285253,0.654085 2.960919,-0.247254 2.960919,-1.847647 V 45.453212 L 10.824497,17.492433 C 10.377024,17.15101 9.8415107,16.992236 9.3127866,17.015873 Z"
       id="path5" />
    <path
       style="fill:#008eda"
       d="m 58.019345,54.068061 -11.531302,5.584358 c -1.334649,0.646236 -2.929884,0.373574 -3.977488,-0.679878 L 4.7610888,22.912841 c -1.0153655,-0.931135 -1.0141981,-2.538984 0.00252,-3.46862 l 3.083497,-2.819445 C 8.678325,15.864748 9.9301384,15.808791 10.825084,16.491637 l 45.459111,36.127614 c 1.52506,1.163617 3.715585,0.06972 3.715585,-1.855802 v 0.13482 c 0,1.351398 -0.769743,2.583405 -1.980435,3.169834 z"
       id="path6" />
    <path
       style="opacity:0.1;fill:#ffffff"
       d="M 9.3125,16.015625 C 8.783776,16.039265 8.2632659,16.244986 7.8476562,16.625 l -3.0859374,2.820312 c -0.6398203,0.585019 -0.8643505,1.435031 -0.6972657,2.21875 0.09887,-0.451503 0.3275397,-0.880691 0.6972657,-1.21875 L 7.8476562,17.625 C 8.2632659,17.244986 8.783776,17.039265 9.3125,17.015625 c 0.5287241,-0.02364 1.064246,0.135139 1.511719,0.476563 l 45.460937,36.128906 c 0.54193,0.41349 1.166333,0.530735 1.748047,0.4375 C 59.235658,53.469435 60,52.244511 60,50.898438 v -0.136719 c 0,1.925521 -2.189784,3.022992 -3.714844,1.859375 L 10.824219,16.492188 C 10.376746,16.150764 9.8412241,15.991988 9.3125,16.015625 Z"
       id="path7" />
    <path
       style="fill:#1eacf8"
       d="m 46.488697,59.653301 c -1.335083,0.645788 -2.930318,0.372916 -3.977924,-0.68076 1.290705,1.298185 3.497844,0.378642 3.497844,-1.457378 V 6.4851707 c 0,-1.8360194 -2.207139,-2.7555204 -3.497844,-1.4572518 1.047606,-1.053676 2.642841,-1.3267305 3.977924,-0.6809139 L 58.018033,9.9236775 C 59.229599,10.509658 60,11.742127 60,13.094225 v 37.81215 c 0,1.352056 -0.770401,2.584497 -1.981967,3.170478 z"
       id="path8" />
    <path
       style="opacity:0.2;fill:#ffffff"
       d="m 44.818359,4.0097656 c -0.627046,0.040243 -1.23572,0.2632286 -1.771484,0.6269532 0.797077,-0.4056845 1.725166,-0.1978222 2.322266,0.3925781 0.0268,0.00299 0.05327,-0.00174 0.08008,0.00195 0.353668,0.048755 0.705289,0.1549522 1.039062,0.3164062 l 11.53125,5.5742189 C 59.231097,11.507856 60,12.741652 60,14.09375 v -1 C 60,11.741652 59.231097,10.507856 58.019531,9.921875 L 46.488281,4.3476562 C 46.154508,4.1862021 45.802887,4.0800053 45.449219,4.03125 45.237988,4.00213 45.027375,3.996351 44.818359,4.0097656 Z m -1.771484,0.6269532 c -0.189239,0.096311 -0.369511,0.2240102 -0.535156,0.390625 0.160019,-0.1609392 0.352469,-0.2666022 0.535156,-0.390625 z m 2.960937,52.8789062 c 0,1.600393 -1.675684,2.50174 -2.960937,1.847656 0.720862,0.489356 1.57442,0.663708 2.419922,0.539063 0.325562,-0.352838 0.541015,-0.822949 0.541015,-1.386719 z m -2.960937,1.847656 c -0.182679,-0.12402 -0.375143,-0.229686 -0.535156,-0.390625 0.165639,0.166599 0.345925,0.294321 0.535156,0.390625 z"
       id="path9" />
  </g>
</svg>
