<?xml version="1.0" encoding="UTF-8" standalone="no"?>
<svg
   width="62"
   height="62"
   version="1"
   id="svg9"
   sodipodi:docname="vscode-exploration.svg"
   inkscape:version="1.4 (e7c3feb100, 2024-10-09)"
   xmlns:inkscape="http://www.inkscape.org/namespaces/inkscape"
   xmlns:sodipodi="http://sodipodi.sourceforge.net/DTD/sodipodi-0.dtd"
   xmlns="http://www.w3.org/2000/svg"
   xmlns:svg="http://www.w3.org/2000/svg">
  <defs
     id="defs9" />
  <sodipodi:namedview
     id="namedview9"
     pagecolor="#ffffff"
     bordercolor="#000000"
     borderopacity="0.25"
     inkscape:showpageshadow="2"
     inkscape:pageopacity="0.0"
     inkscape:pagecheckerboard="0"
     inkscape:deskcolor="#d1d1d1"
     inkscape:zoom="11.6875"
     inkscape:cx="31.957219"
     inkscape:cy="32"
     inkscape:window-width="1920"
     inkscape:window-height="994"
     inkscape:window-x="0"
     inkscape:window-y="0"
     inkscape:window-maximized="1"
     inkscape:current-layer="svg9" />
  <g
     id="g9"
     transform="translate(-0.49999976,-0.99859639)">
    <path
       style="opacity:0.2;stroke-width:0.98229"
       d="m 45.729944,59.657975 c -1.311244,0.634443 -2.877988,0.366365 -3.906885,-0.668796 1.267657,1.275374 3.435375,0.371984 3.435375,-1.43178 V 7.4239053 c 0,-1.8037643 -2.167718,-2.7071116 -3.435375,-1.431651 1.028897,-1.035165 2.595641,-1.3034226 3.906885,-0.6689513 l 11.32345,5.4787 c 1.189927,0.575686 1.946574,1.786505 1.946574,3.11485 v 37.147859 c 0,1.328306 -0.756647,2.539095 -1.946574,3.114781 z"
       id="path1" />
    <path
       style="opacity:0.2;stroke-width:0.98229"
       d="M 57.054685,10.810603 45.7293,5.3243619 C 44.41849,4.6893274 42.851736,4.9571993 41.822842,5.9922815 L 4.7474976,39.39255 c -0.9972334,0.914844 -0.9960873,2.494373 0.00252,3.407706 l 3.0284281,2.769803 c 0.8163759,0.746789 2.0458348,0.801652 2.9247943,0.130935 L 55.350525,12.23386 c 1.497823,-1.143212 3.64923,-0.06838 3.64923,1.823175 v -0.132314 c 0,-1.327768 -0.755994,-2.538148 -1.945066,-3.114132 z"
       id="path2" />
    <path
       style="fill:#e87d1b;stroke-width:0.98229"
       d="M 57.054342,9.8281549 45.729257,4.3419603 C 44.418103,3.7069163 42.851586,3.9748246 41.823282,5.0098168 L 4.7475088,38.409657 c -0.9972679,0.915626 -0.9960892,2.49439 0.0025,3.408056 l 3.0284356,2.769471 c 0.8163566,0.747632 2.0458023,0.80167 2.9247246,0.131647 L 55.350327,11.251307 c 1.49777,-1.14355 3.649641,-0.0678 3.649641,1.823395 v -0.132628 c 0,-1.327265 -0.756248,-2.537624 -1.945626,-3.1139191 z"
       id="path3" />
    <path
       style="opacity:0.1;fill:#ffffff;stroke-width:0.98229"
       d="m 43.926387,4.0134074 c -0.777067,0.073026 -1.523648,0.413629 -2.102401,0.995863 L 4.7481164,38.408117 C 4.1211015,38.98333 3.899486,39.820046 4.0633019,40.589812 4.1602486,40.145309 4.385331,39.723366 4.7481164,39.390552 L 41.823986,5.9917028 c 0.771676,-0.7763117 1.843169,-1.1226418 2.885045,-0.9785942 0.347295,0.048013 0.692798,0.152089 1.020506,0.3108473 l 11.325326,5.4878071 c 0.02593,0.01261 0.04924,0.02906 0.07485,0.04217 C 58.138939,11.036376 59,11.880002 59,13.075915 V 12.941607 C 59,11.613839 58.243967,10.405281 57.054895,9.8292959 L 45.729537,4.3415237 C 45.401829,4.1827651 45.056326,4.0786921 44.709031,4.0306762 44.448561,3.9946642 44.185407,3.9890653 43.926387,4.0134074 Z"
       id="path4" />
    <path
       style="opacity:0.2;stroke-width:0.98229"
       d="M 9.2179125,16.787184 C 8.69863,16.810424 8.1874237,17.012515 7.7792356,17.385851 l -3.0308128,2.770746 c -0.9985617,0.913312 -0.9972335,2.493021 0,3.407795 L 41.824083,58.989306 c 0.156418,0.157325 0.343288,0.262365 0.52176,0.383762 0.0012,5.8e-4 0.0028,-5.8e-4 0.004,0 1.262299,0.642598 2.908045,-0.242909 2.908045,-1.81519 V 44.724933 L 10.702623,17.255372 C 10.263148,16.919946 9.7371946,16.763966 9.2179125,16.787184 Z"
       id="path5" />
    <path
       style="fill:#ff910c;stroke-width:0.98229"
       d="m 57.054342,53.188378 -11.325085,5.485901 c -1.311154,0.635634 -2.877671,0.367431 -3.905975,-0.667072 L 4.7475088,22.580714 C 3.7502409,21.666067 3.7514196,20.086317 4.749988,19.172651 l 3.0284281,-2.769472 c 0.8163536,-0.74665 2.0457992,-0.801662 2.9247199,-0.130665 l 44.647199,35.49232 c 1.49777,1.143551 3.649641,0.0688 3.649641,-1.823395 v 0.132627 c 0,1.32825 -0.756248,2.538607 -1.945625,3.114312 z"
       id="path6" />
    <path
       style="opacity:0.1;fill:#ffffff;stroke-width:0.98229"
       d="m 9.2176312,15.804509 c -0.5192827,0.02324 -1.0304973,0.225335 -1.4386853,0.59867 l -3.0308295,2.770764 c -0.6283951,0.574743 -0.8489151,1.409824 -0.6848145,2.179774 0.097108,-0.443572 0.3216907,-0.86522 0.6848145,-1.197341 l 3.0308295,-2.770762 c 0.408188,-0.373342 0.9194026,-0.575449 1.4386853,-0.598669 0.5192818,-0.02324 1.0452408,0.132763 1.4847228,0.46819 l 44.649109,35.494188 c 0.532249,0.406229 1.145505,0.521412 1.716829,0.429818 1.180984,-0.578813 1.931676,-1.782217 1.931676,-3.104638 v -0.134324 c 0,1.891695 -2.150683,2.969887 -3.648505,1.82671 L 10.702354,16.272701 C 10.262872,15.937275 9.736913,15.781285 9.2176312,15.804509 Z"
       id="path7" />
    <path
       style="fill:#ffab44;stroke-width:0.98229"
       d="m 45.730245,58.67526 c -1.311161,0.634653 -2.878659,0.36645 -3.906963,-0.668053 1.26696,1.275198 3.435534,0.371361 3.435534,-1.432385 V 6.4415149 c 0,-1.8037449 -2.168574,-2.7070913 -3.435534,-1.4316981 1.028304,-1.0351882 2.595802,-1.3033925 3.906963,-0.6689374 l 11.323118,5.4787279 c 1.190357,0.5760027 1.946605,1.7863537 1.946605,3.1146067 v 37.147712 c 0,1.328248 -0.756248,2.539588 -1.946605,3.115292 z"
       id="path8" />
    <path
       style="opacity:0.2;fill:#ffffff;stroke-width:0.98229"
       d="m 44.089439,4.0095693 c -0.615849,0.039532 -1.21366,0.2586042 -1.739856,0.6159388 0.782846,-0.3985575 1.694363,-0.1943464 2.280797,0.3856814 0.02629,0.00289 0.05235,-0.00174 0.07865,0.00195 0.347348,0.047896 0.692696,0.1522298 1.020506,0.3108475 l 11.325326,5.476285 c 1.189932,0.575689 1.945103,1.787815 1.945103,3.116159 v -0.982438 c 0,-1.328345 -0.755171,-2.540464 -1.945105,-3.1161512 L 45.729537,4.3415237 C 45.401727,4.1829064 45.056379,4.0785753 44.709031,4.0306762 44.501568,4.002068 44.294721,3.9963904 44.089439,4.0095693 Z m -1.739856,0.6159388 c -0.18586,0.094618 -0.362906,0.2200747 -0.525597,0.3837623 0.157165,-0.1581112 0.346177,-0.2619185 0.525597,-0.3837623 z M 45.25765,56.575437 c 0,1.572275 -1.64576,2.457788 -2.908067,1.815193 0.707994,0.480762 1.546306,0.65205 2.376712,0.529597 0.319749,-0.34664 0.531355,-0.808495 0.531355,-1.362362 z m -2.908067,1.815193 c -0.179412,-0.121838 -0.368438,-0.22565 -0.525597,-0.383758 0.162685,0.163667 0.339745,0.289146 0.525597,0.383758 z"
       id="path9" />
  </g>
</svg>
