<?xml version="1.0" encoding="UTF-8" standalone="no"?>
<svg
   width="62"
   height="62"
   version="1.1"
   id="svg12"
   sodipodi:docname="wallpapoz.svg"
   inkscape:version="1.4 (unknown)"
   xmlns:inkscape="http://www.inkscape.org/namespaces/inkscape"
   xmlns:sodipodi="http://sodipodi.sourceforge.net/DTD/sodipodi-0.dtd"
   xmlns="http://www.w3.org/2000/svg"
   xmlns:svg="http://www.w3.org/2000/svg">
  <defs
     id="defs12" />
  <sodipodi:namedview
     id="namedview12"
     pagecolor="#ffffff"
     bordercolor="#000000"
     borderopacity="0.25"
     inkscape:showpageshadow="2"
     inkscape:pageopacity="0.0"
     inkscape:pagecheckerboard="0"
     inkscape:deskcolor="#d1d1d1"
     inkscape:zoom="8.5626212"
     inkscape:cx="29.95578"
     inkscape:cy="40.116221"
     inkscape:window-width="1920"
     inkscape:window-height="998"
     inkscape:window-x="0"
     inkscape:window-y="0"
     inkscape:window-maximized="1"
     inkscape:current-layer="svg12" />
  <g
     id="g12">
    <path
       style="opacity:0.2;stroke-width:0.991182"
       d="M 31.15042,3.9850679 A 6.3412168,6.2552164 0 0 0 27.82953,4.8195268 L 9.170886,15.445925 A 6.3412168,6.2552164 0 0 0 6,20.863655 V 42.11783 a 6.3412168,6.2552164 0 0 0 3.170608,5.41718 l 18.658644,10.62695 a 6.3412168,6.2552164 0 0 0 6.341218,0 L 52.829114,47.53501 A 6.3412168,6.2552164 0 0 0 56,42.117279 V 20.863105 a 6.3412168,6.2552164 0 0 0 -3.170886,-5.41773 L 34.17047,4.8189766 A 6.3412168,6.2552164 0 0 0 31.149586,3.9845177 Z"
       id="path1" />
    <path
       style="fill:#2d3d53;fill-opacity:1;stroke-width:0.991182"
       d="M 31.15042,3.0026248 A 6.3412168,6.2552164 0 0 0 27.82953,3.8370837 L 9.170886,14.463483 A 6.3412168,6.2552164 0 0 0 6,19.881213 v 21.254174 a 6.3412168,6.2552164 0 0 0 3.170608,5.417181 l 18.658644,10.626949 a 6.3412168,6.2552164 0 0 0 6.341218,0 L 52.829114,46.552568 A 6.3412168,6.2552164 0 0 0 56,41.134837 V 19.880663 a 6.3412168,6.2552164 0 0 0 -3.170886,-5.41773 L 34.17047,3.8365335 A 6.3412168,6.2552164 0 0 0 31.149586,3.0020746 Z"
       id="path2" />
    <path
       style="opacity:0.2;stroke-width:0.991182"
       d="m 31.113282,9.876829 v 0.00383 a 4.8193248,4.9149957 0 0 0 -0.0156,0 4.8193248,4.9149957 0 0 0 -2.507812,0.652403 L 14.410156,18.883828 A 4.8193248,4.9149957 0 0 0 12.589844,20.798824 4.8193248,4.9149957 0 0 0 12,23.139799 v 16.701517 a 4.8193248,4.9149957 0 0 0 0.542969,2.256548 4.8193248,4.9149957 0 0 0 1.867187,1.999424 l 14.179688,8.350758 a 4.8193248,4.9149957 0 0 0 2.3125,0.65624 4.8193248,4.9149957 0 0 0 2.507812,-0.65624 L 47.589844,44.097288 A 4.8193248,4.9149957 0 0 0 49.410156,42.182292 4.8193248,4.9149957 0 0 0 50,39.841316 V 23.139799 A 4.8193248,4.9149957 0 0 0 49.457032,20.883251 4.8193248,4.9149957 0 0 0 47.589844,18.883828 L 33.410156,10.53307 A 4.8193248,4.9149957 0 0 0 31.113282,9.876829 Z"
       id="path3" />
    <path
       style="fill:#f05353;stroke-width:0.991182"
       d="M 49.456612,19.903239 30.901924,30.56539 49.408902,41.201152 A 4.8193248,4.9149957 0 0 0 50,38.858173 V 22.159151 a 4.8193248,4.9149957 0 0 0 -0.543388,-2.255912 z"
       id="path4" />
    <path
       style="fill:#5fcad6;stroke-width:0.991182"
       d="M 30.901924,30.56539 12.543388,41.116721 a 4.8193248,4.9149957 0 0 0 1.86607,1.999977 l 14.181084,8.348193 a 4.8193248,4.9149957 0 0 0 2.311382,0.656984 z"
       id="path5" />
    <path
       style="fill:#5c6cd9;stroke-width:0.991182"
       d="m 30.901924,30.56539 v 21.556485 a 4.8193248,4.9149957 0 0 0 2.507536,-0.656984 l 14.18108,-8.348193 a 4.8193248,4.9149957 0 0 0 1.818362,-1.915546 z"
       id="path6" />
    <path
       style="fill:#7c9446;stroke-width:0.991182"
       d="M 12.588449,19.818808 A 4.8193248,4.9149957 0 0 0 12,22.159151 v 16.699022 a 4.8193248,4.9149957 0 0 0 0.543388,2.258548 L 31.098074,30.454572 Z"
       id="path7" />
    <path
       style="fill:#bb53e2;stroke-width:0.991182"
       d="m 31.113978,8.8954488 v 0.00275 a 4.8193248,4.9149957 0 0 0 -0.0158,0 V 30.454684 L 49.456714,19.903353 A 4.8193248,4.9149957 0 0 0 47.590538,17.900622 L 33.40946,9.5524335 A 4.8193248,4.9149957 0 0 0 31.113978,8.8954488 Z"
       id="path8" />
    <path
       style="fill:#ffc540;stroke-width:0.991182"
       d="M 31.098074,8.8980887 A 4.8193248,4.9149957 0 0 0 28.590542,9.5524335 L 14.409458,17.903264 a 4.8193248,4.9149957 0 0 0 -1.821009,1.915544 l 18.509625,10.635764 z"
       id="path9" />
    <path
       style="opacity:0.1;fill:#ffffff;stroke-width:0.991182"
       d="M 31.148438,3.001731 A 6.3412168,6.2552164 0 0 0 27.828125,3.8383419 L 9.171875,14.464836 A 6.3412168,6.2552164 0 0 0 6,19.883619 v 0.982442 A 6.3412168,6.2552164 0 0 1 9.171875,15.447278 L 27.828125,4.8207841 a 6.3412168,6.2552164 0 0 1 3.320313,-0.8366109 h 0.0039 a 6.3412168,6.2552164 0 0 1 3.019531,0.8366109 L 52.828125,15.447278 A 6.3412168,6.2552164 0 0 1 56,20.862224 V 19.879782 A 6.3412168,6.2552164 0 0 0 52.828125,14.464836 L 34.171875,3.8383419 A 6.3412168,6.2552164 0 0 0 31.152344,3.001731 Z"
       id="path11" />
    <path
       style="opacity:0.2;fill:#ffffff;stroke-width:0.991182"
       d="m 31.113281,8.8963841 v 0.00383 a 4.8193248,4.9149957 0 0 0 -0.01563,0 4.8193248,4.9149957 0 0 0 -2.507812,0.6524036 L 14.410151,17.903378 A 4.8193248,4.9149957 0 0 0 12.589844,19.818379 4.8193248,4.9149957 0 0 0 12,22.159354 v 0.982442 a 4.8193248,4.9149957 0 0 1 0.589844,-2.340975 4.8193248,4.9149957 0 0 1 1.820312,-1.914995 l 14.179688,-8.350759 a 4.8193248,4.9149957 0 0 1 2.507812,-0.6524033 4.8193248,4.9149957 0 0 1 0.01563,0 v -0.00383 a 4.8193248,4.9149957 0 0 1 2.296875,0.6562403 l 14.179688,8.350759 A 4.8193248,4.9149957 0 0 1 49.457031,20.885249 4.8193248,4.9149957 0 0 1 50,23.141796 V 22.159354 A 4.8193248,4.9149957 0 0 0 49.457031,19.902807 4.8193248,4.9149957 0 0 0 47.589844,17.903384 L 33.410156,9.5526251 a 4.8193248,4.9149957 0 0 0 -2.296875,-0.656241 z"
       id="path12" />
    <text
       xml:space="preserve"
       style="font-size:31.9387px;font-family:'Blush Asliring';-inkscape-font-specification:'Blush Asliring';text-align:start;writing-mode:lr-tb;direction:ltr;text-anchor:start;fill:#2d3d53;fill-opacity:1;stroke:#2d3d53;stroke-width:0;stroke-linecap:round;stroke-linejoin:round;stroke-opacity:1;paint-order:fill markers stroke"
       x="14.8565"
       y="42.252399"
       id="text12"
       transform="scale(0.99892237,1.0010788)"><tspan
         sodipodi:role="line"
         id="tspan12"
         x="14.8565"
         y="42.252399"
         style="stroke:#2d3d53;stroke-width:0;stroke-opacity:1">W</tspan></text>
  </g>
</svg>
