<?xml version="1.0" encoding="UTF-8" standalone="no"?>
<svg
   width="62"
   height="62"
   version="1.1"
   id="svg7"
   sodipodi:docname="wallstreet-control.svg"
   inkscape:version="1.4 (e7c3feb100, 2024-10-09)"
   xmlns:inkscape="http://www.inkscape.org/namespaces/inkscape"
   xmlns:sodipodi="http://sodipodi.sourceforge.net/DTD/sodipodi-0.dtd"
   xmlns:xlink="http://www.w3.org/1999/xlink"
   xmlns="http://www.w3.org/2000/svg"
   xmlns:svg="http://www.w3.org/2000/svg">
  <defs
     id="defs7">
    <linearGradient
       inkscape:collect="always"
       xlink:href="#linearGradient8"
       id="linearGradient10"
       x1="33.666454"
       y1="60"
       x2="31.5"
       y2="4.9824562"
       gradientUnits="userSpaceOnUse"
       gradientTransform="translate(-0.5,-1)" />
    <linearGradient
       id="linearGradient8"
       inkscape:collect="always">
      <stop
         style="stop-color:#2d3d53;stop-opacity:1;"
         offset="0"
         id="stop8" />
      <stop
         style="stop-color:#cd18cd;stop-opacity:1;"
         offset="1"
         id="stop10" />
    </linearGradient>
    <linearGradient
       id="paint3_linear_332_93"
       x1="37.304401"
       y1="24.2272"
       x2="23.255199"
       y2="12.9039"
       gradientUnits="userSpaceOnUse"
       gradientTransform="matrix(1,0,0,1.0089403,-0.9999998,-0.28624446)">
      <stop
         stop-color="#731FFF"
         id="stop9" />
      <stop
         offset="0.905415"
         stop-color="#EB1AFF"
         id="stop10-5" />
    </linearGradient>
    <linearGradient
       id="paint1_linear_332_93"
       x1="2"
       y1="61.696899"
       x2="14.6751"
       y2="28.2421"
       gradientUnits="userSpaceOnUse"
       gradientTransform="matrix(0.91578336,0,0,1,1.7216248,-7.2011443)">
      <stop
         stop-color="#731FFF"
         id="stop5" />
      <stop
         offset="0.905415"
         stop-color="#EB1AFF"
         id="stop6" />
    </linearGradient>
    <linearGradient
       id="paint2_linear_332_93"
       x1="54.645401"
       y1="46.748501"
       x2="26.243099"
       y2="10.4978"
       gradientUnits="userSpaceOnUse"
       gradientTransform="matrix(0.91578336,0,0,1,1.7216248,-7.2011443)">
      <stop
         offset="0.118093"
         stop-color="#731FFF"
         id="stop7" />
      <stop
         offset="0.905415"
         stop-color="#EB1AFF"
         id="stop8-3" />
    </linearGradient>
    <linearGradient
       id="linearGradient4"
       x1="16"
       x2="47"
       y1="16"
       y2="48"
       gradientUnits="userSpaceOnUse"
       gradientTransform="matrix(1.1935485,0,0,1.1875,-6.5967725,-6.999994)">
      <stop
         stop-color="#ffffff"
         offset="0"
         id="stop1" />
      <stop
         stop-color="#ffffff"
         offset=".45161"
         id="stop2" />
      <stop
         stop-color="#fef0cb"
         offset=".59375"
         id="stop3" />
      <stop
         stop-color="#ffbcc3"
         offset="1"
         id="stop4" />
    </linearGradient>
    <linearGradient
       id="paint0_linear_19_69"
       x1="13.5381"
       y1="7.6556602"
       x2="19.187599"
       y2="7.6556602"
       gradientUnits="userSpaceOnUse"
       gradientTransform="matrix(1.818183,0,0,1.818183,11.458092,11.928816)">
      <stop
         stop-color="#02AA93"
         id="stop3-5" />
      <stop
         offset="1"
         stop-color="#67FF80"
         id="stop4-3" />
    </linearGradient>
    <linearGradient
       id="paint1_linear_19_69"
       x1="13.5426"
       y1="5.74156"
       x2="23"
       y2="5.74156"
       gradientUnits="userSpaceOnUse"
       gradientTransform="matrix(1.818183,0,0,1.818183,11.458092,11.928816)">
      <stop
         stop-color="#02AA93"
         id="stop5-5" />
      <stop
         offset="1"
         stop-color="#67FF80"
         id="stop6-6" />
    </linearGradient>
    <linearGradient
       id="paint2_linear_19_69"
       x1="1"
       y1="12.425"
       x2="22.2339"
       y2="12.425"
       gradientUnits="userSpaceOnUse"
       gradientTransform="matrix(1.818183,0,0,1.818183,11.458092,11.928816)">
      <stop
         stop-color="#02AA93"
         id="stop7-2" />
      <stop
         offset="1"
         stop-color="#67FF80"
         id="stop8-9" />
    </linearGradient>
    <linearGradient
       id="d"
       x1="43"
       x2="85"
       y1="39"
       y2="39"
       gradientUnits="userSpaceOnUse"
       gradientTransform="matrix(0.40384613,0,0,0.40384613,18.450538,67.032213)">
      <stop
         offset="0"
         stop-color="#26a269"
         id="stop18" />
      <stop
         offset=".093"
         stop-color="#84e3b7"
         id="stop19" />
      <stop
         offset=".331"
         stop-color="#26a269"
         id="stop20" />
      <stop
         offset=".687"
         stop-color="#26a269"
         id="stop21" />
      <stop
         offset=".897"
         stop-color="#175e3c"
         id="stop22" />
      <stop
         offset="1"
         stop-color="#26a269"
         id="stop23" />
    </linearGradient>
    <linearGradient
       xlink:href="#a"
       id="e"
       x1="-1710.2"
       x2="-1774.5"
       y1="-1202.4"
       y2="-1202.4"
       gradientTransform="matrix(0.03278825,-0.01893229,0.02789771,0.04832018,142.44342,118.349)" />
    <linearGradient
       id="a"
       gradientUnits="userSpaceOnUse">
      <stop
         offset="0"
         stop-color="#c0bfbc"
         id="stop12" />
      <stop
         offset=".155"
         stop-color="#fff"
         id="stop13" />
      <stop
         offset=".434"
         stop-color="#bdbbb5"
         id="stop14" />
      <stop
         offset=".65"
         stop-color="#c1c0ba"
         id="stop15" />
      <stop
         offset=".825"
         stop-color="#fff"
         id="stop16" />
      <stop
         offset="1"
         stop-color="#c0bfbc"
         id="stop17" />
    </linearGradient>
    <linearGradient
       xlink:href="#a"
       id="f"
       x1="-1710.2"
       x2="-1774.5"
       y1="-1202.4"
       y2="-1202.4"
       gradientTransform="matrix(-0.03278825,-0.01893229,-0.02789771,0.04832018,-53.127151,118.349)" />
    <linearGradient
       id="g"
       x1="14"
       x2="56"
       y1="95"
       y2="95"
       gradientUnits="userSpaceOnUse"
       gradientTransform="matrix(0.40384613,0,0,0.40384613,18.450538,67.032213)">
      <stop
         offset="0"
         stop-color="#813d9c"
         id="stop7-6" />
      <stop
         offset=".109"
         stop-color="#b378ca"
         id="stop8-2" />
      <stop
         offset=".242"
         stop-color="#813d9c"
         id="stop9-9" />
      <stop
         offset=".732"
         stop-color="#813d9c"
         id="stop10-1" />
      <stop
         offset=".872"
         stop-color="#4d255d"
         id="stop11" />
      <stop
         offset="1"
         stop-color="#813d9c"
         id="stop24" />
    </linearGradient>
    <linearGradient
       id="h"
       x1="72"
       x2="114"
       y1="95"
       y2="95"
       gradientUnits="userSpaceOnUse"
       gradientTransform="matrix(0.40384613,0,0,0.40384613,18.450538,67.032213)">
      <stop
         offset="0"
         stop-color="#e66100"
         id="stop25" />
      <stop
         offset=".068"
         stop-color="#ff903e"
         id="stop26" />
      <stop
         offset=".169"
         stop-color="#e66100"
         id="stop27" />
      <stop
         offset=".887"
         stop-color="#e66100"
         id="stop28" />
      <stop
         offset="1"
         stop-color="#9d4200"
         id="stop29" />
    </linearGradient>
  </defs>
  <sodipodi:namedview
     id="namedview7"
     pagecolor="#ffffff"
     bordercolor="#000000"
     borderopacity="0.25"
     inkscape:showpageshadow="2"
     inkscape:pageopacity="0.0"
     inkscape:pagecheckerboard="0"
     inkscape:deskcolor="#d1d1d1"
     inkscape:zoom="8.3085046"
     inkscape:cx="44.352145"
     inkscape:cy="40.741387"
     inkscape:window-width="1920"
     inkscape:window-height="998"
     inkscape:window-x="0"
     inkscape:window-y="0"
     inkscape:window-maximized="1"
     inkscape:current-layer="svg7"
     showgrid="false">
    <inkscape:grid
       id="grid1"
       units="px"
       originx="0"
       originy="0"
       spacingx="1"
       spacingy="1"
       empcolor="#0099e5"
       empopacity="0.30196078"
       color="#0099e5"
       opacity="0.14901961"
       empspacing="5"
       enabled="true"
       visible="false" />
  </sodipodi:namedview>
  <rect
     style="opacity:0.2;stroke-width:0.9823"
     width="55"
     height="55.017544"
     x="3.5"
     y="3.9824562"
     rx="8.25"
     ry="8.2526312"
     id="rect1" />
  <rect
     style="fill:url(#linearGradient10);stroke-width:0.9823"
     width="55"
     height="55.017544"
     x="3.5"
     y="3"
     rx="8.25"
     ry="8.2526312"
     id="rect2" />
  <path
     style="opacity:0.1;fill:#ffffff;stroke-width:0.9823"
     d="M 11.748466,3 C 7.1779652,3 3.5,6.679138 3.5,11.251097 v 0.982456 c 0,-4.571959 3.6779652,-8.251097 8.248466,-8.251097 h 38.503068 c 4.5705,0 8.248466,3.679138 8.248466,8.251097 V 11.251097 C 58.5,6.679138 54.822034,3 50.251534,3 Z"
     id="path4-3" />
  <g
     id="g1"
     transform="translate(-13.244141,-19.991228)">
    <path
       style="opacity:0.2"
       d="m 57.453125,27 -17.332031,5.203125 2.679688,8.923828 a 10.000135,10.000135 0 0 1 10.634765,5.972656 L 62.65625,44.332031 Z M 37.332032,33.041016 20,38.244141 l 5.203125,17.332031 9.22461,-2.769531 a 10.000135,10.000135 0 0 1 0.693359,-5.890625 l 3.658203,2.173828 a 5.7944254,5.7944254 0 0 0 -0.277344,2.49414 l 4.033204,-1.210937 -1.292969,-4.306641 a 5.7944254,5.7944254 0 0 0 -0.976563,0.730469 l -3.693359,-2.195313 a 10.000135,10.000135 0 0 1 3.439453,-2.634765 z m 6.693359,12.167968 1.298828,4.326172 4.035156,-1.210937 a 5.7944254,5.7944254 0 0 0 -5.333984,-3.115235 z m 19.259766,1.214844 -9.208985,2.763672 a 10.000135,10.000135 0 0 1 -5.591797,10.867188 l 2.671875,8.904296 17.332032,-5.203125 z M 50.007813,50.410156 45.953125,51.626953 47.25,55.949219 a 5.7944254,5.7944254 0 0 0 2.757813,-5.539063 z m -6.84375,2.054688 -4.035156,1.210937 a 5.7944254,5.7944254 0 0 0 5.333984,3.113281 z m -8.113281,2.435547 -9.21875,2.767578 L 31.035157,75 48.367188,69.796875 45.6875,60.871094 A 10.000135,10.000135 0 0 1 35.050782,54.900391 Z"
       id="path3" />
    <path
       style="fill:#ffffff"
       d="m 57.453125,26 -17.332031,5.203125 2.679688,8.923828 a 10.000135,10.000135 0 0 1 10.634765,5.972656 L 62.65625,43.332031 Z M 37.332032,32.041016 20,37.244141 l 5.203125,17.332031 9.22461,-2.769531 a 10.000135,10.000135 0 0 1 0.693359,-5.890625 l 3.658203,2.173828 a 5.7944254,5.7944254 0 0 0 -0.277344,2.49414 l 4.033204,-1.210937 -1.292969,-4.306641 a 5.7944254,5.7944254 0 0 0 -0.976563,0.730469 l -3.693359,-2.195313 a 10.000135,10.000135 0 0 1 3.439453,-2.634765 z m 6.693359,12.167968 1.298828,4.326172 4.035156,-1.210937 a 5.7944254,5.7944254 0 0 0 -5.333984,-3.115235 z m 19.259766,1.214844 -9.208985,2.763672 a 10.000135,10.000135 0 0 1 -5.591797,10.867188 l 2.671875,8.904296 17.332032,-5.203125 z M 50.007813,49.410156 45.953125,50.626953 47.25,54.949219 a 5.7944254,5.7944254 0 0 0 2.757813,-5.539063 z m -6.84375,2.054688 -4.035156,1.210937 a 5.7944254,5.7944254 0 0 0 5.333984,3.113281 z m -8.113281,2.435547 -9.21875,2.767578 L 31.035157,74 48.367188,68.796875 45.6875,59.871094 A 10.000135,10.000135 0 0 1 35.050782,53.900391 Z"
       id="path4" />
  </g>
</svg>
