<?xml version="1.0" encoding="UTF-8" standalone="no"?>
<svg
   width="62"
   height="62"
   version="1"
   id="svg13"
   sodipodi:docname="waterfox.svg"
   inkscape:version="1.4 (e7c3feb100, 2024-10-09)"
   xmlns:inkscape="http://www.inkscape.org/namespaces/inkscape"
   xmlns:sodipodi="http://sodipodi.sourceforge.net/DTD/sodipodi-0.dtd"
   xmlns="http://www.w3.org/2000/svg"
   xmlns:svg="http://www.w3.org/2000/svg">
  <defs
     id="defs13" />
  <sodipodi:namedview
     id="namedview13"
     pagecolor="#ffffff"
     bordercolor="#000000"
     borderopacity="0.25"
     inkscape:showpageshadow="2"
     inkscape:pageopacity="0.0"
     inkscape:pagecheckerboard="0"
     inkscape:deskcolor="#d1d1d1"
     inkscape:zoom="11.6875"
     inkscape:cx="31.957219"
     inkscape:cy="33.283422"
     inkscape:window-width="1920"
     inkscape:window-height="994"
     inkscape:window-x="0"
     inkscape:window-y="0"
     inkscape:window-maximized="1"
     inkscape:current-layer="svg13" />
  <g
     id="g13"
     transform="translate(-1.000835,-1.5)">
    <path
       style="opacity:0.2;stroke-width:1.00001"
       d="m 55.247575,20.996622 a 6.8099552,6.8097245 0 0 0 -6.304813,4.101505 l -5.398547,11.988115 -0.0078,-0.0156 0.0196,-0.03516 c -1.113636,-1.984757 -2.312866,-4.296549 -3.632885,-6.589753 -0.622407,1.040496 -1.233428,2.054308 -1.898476,3.117145 l -0.226566,0.347651 -5.80871,10.331889 5.964961,10.60532 a 6.8099552,6.8097245 0 0 0 3.961017,3.742136 6.8099552,6.8097245 0 0 0 1.738317,0.382807 c 0.03906,0.0034 0.0781,0.0011 0.117183,0.004 a 6.8099552,6.8097245 0 0 0 0.648448,0.0118 c 0.103182,-0.0024 0.205631,-0.0048 0.308601,-0.0118 a 6.8099552,6.8097245 0 0 0 0.347663,-0.03906 c 2.237027,-0.26197 4.356225,-1.590856 5.418077,-3.976506 l 3.875078,-8.722535 c -0.0036,0.0022 -0.008,0.0018 -0.0118,0.004 L 61.36099,30.687892 a 6.8099552,6.8097245 0 0 0 -6.113404,-9.691271 z m -46.6962459,0.0039 a 6.8099552,6.8097245 0 0 0 -5.9102742,9.687365 l 7.0118588,15.574001 c 1.9169493,1.106687 3.9338123,1.707523 5.7383963,-0.218746 l 5.050882,-8.972532 -0.02344,-0.03516 c 0.0026,-0.0046 0.0052,-0.011 0.0078,-0.0156 L 15.059271,25.098127 A 6.8099552,6.8097245 0 0 0 8.5513291,21.000528 Z m 17.5628519,33.687031 -0.476574,0.843739 c -1.189679,2.112978 -3.200878,3.245515 -5.285261,3.437452 a 6.8099552,6.8097245 0 0 0 5.761835,-4.281191 z m -5.871211,4.289003 c -0.214143,0.0164 -0.429981,0.0152 -0.644545,0.0118 a 6.8099552,6.8097245 0 0 0 0.644545,-0.0118 z"
       id="path1" />
    <path
       style="opacity:0.2;stroke-width:1.00001"
       d="m 45.001276,6.9999974 a 3.0000599,2.9999583 0 0 0 -3.00006,2.9999586 3.0000599,2.9999583 0 0 0 3.00006,2.999958 3.0000599,2.9999583 0 0 0 3.00006,-2.999958 3.0000599,2.9999583 0 0 0 -3.00006,-2.9999586 z m -11.22288,1.9999722 c -0.876921,0.00108 -1.807092,0.2636894 -2.746149,0.7890514 -3.504878,1.960851 -5.230054,5.354885 -5.011818,9.855331 0.05508,1.137341 0.225672,2.35677 0.378913,2.710901 0.153244,0.354133 0.40727,0.644523 0.566418,0.644523 0.159143,0 0.836164,-0.617672 1.503935,-1.371075 0.908134,-1.024598 1.693557,-1.62159 3.121157,-2.367155 3.815223,-1.992489 4.166138,-2.215664 5.082133,-3.296829 1.727429,-2.038919 1.770496,-4.046126 0.125003,-5.687421 C 35.945141,9.426649 34.905885,8.998568 33.778396,8.9999696 Z M 19.344513,16.999858 c -0.210142,-0.0059 -0.423228,0.0097 -0.632825,0.05078 -1.664997,0.328945 -2.967199,2.821794 -2.668021,5.101493 0.185491,1.413512 1.45111,3.573864 2.5313,4.324157 0.468958,0.325732 1.079048,0.560425 1.355495,0.519525 0.43297,-0.0641 0.527136,-0.329319 0.679703,-1.910129 0.09738,-1.009332 0.457753,-2.524799 0.800796,-3.367141 0.748619,-1.838189 0.77084,-2.435677 0.140622,-3.503859 -0.428258,-0.725872 -1.296477,-1.186764 -2.20707,-1.214827 z"
       id="path2" />
    <path
       style="fill:none;stroke:#0099e5;stroke-width:13.6183;stroke-linecap:round;stroke-linejoin:round;stroke-opacity:1"
       d="M 8.8494837,26.90046 19.744322,51.102305"
       id="path3" />
    <path
       style="fill:none;stroke:#5b50e2;stroke-width:13.6183;stroke-linecap:round;stroke-linejoin:round;stroke-opacity:1"
       d="M 44.25771,51.102305 55.152549,26.90046 v 0 0"
       id="path4" />
    <path
       style="opacity:0.1;fill:#ffffff;stroke-width:1.00001"
       d="m 55.245944,20.003906 a 6.8099555,6.8097248 0 0 0 -6.302948,4.101563 l -10.8949,24.201172 a 6.8099555,6.8097248 0 0 0 -0.615255,3.410156 6.8099555,6.8097248 0 0 1 0.615255,-2.410156 l 10.8949,-24.201172 a 6.8099555,6.8097248 0 0 1 6.302948,-4.101563 6.8099555,6.8097248 0 0 1 6.730697,6.283203 6.8099555,6.8097248 0 0 0 -6.730697,-7.283203 z m -46.6949409,0.0039 a 6.8099555,6.8097248 0 0 0 -6.5256117,7.335938 6.8099555,6.8097248 0 0 1 6.5256117,-6.335938 6.8099555,6.8097248 0 0 1 6.5080329,4.097657 l 10.894901,24.201172 a 6.8099555,6.8097248 0 0 1 0.615255,2.351562 6.8099555,6.8097248 0 0 0 -0.615255,-3.351562 L 15.059036,24.105469 A 6.8099555,6.8097248 0 0 0 8.5510031,20.007812 Z"
       id="path5" />
    <path
       style="fill:#00aeda;stroke-width:1.00001"
       d="m 31.404568,24.642791 c 9.753189,9.431653 1.048709,-1.335312 2.884844,-0.713782 4.454047,1.473033 0.416131,-1.71228 2.426893,0.559724 2.747932,3.592998 4.895238,8.077978 6.841189,11.546118 l -0.02128,0.03458 5.048439,8.974107 c 1.819192,1.941861 3.854412,1.320666 5.785223,0.196818 l -3.875435,8.718768 c -2.276461,5.114497 -9.409026,5.450045 -12.155619,0.571854 l -12.16094,-21.618712 -0.22343,-0.348433 c -2.430945,-3.88499 4.370322,-0.841185 1.104693,-3.796039 -0.365313,-0.323188 0.764422,-0.720724 0.990351,-1.273957 0.916233,-2.243607 0.787183,1.129425 2.716296,0.725938 0.402014,-0.05536 -0.440482,0.0072 0,0 z"
       id="path6" />
    <path
       style="opacity:0.2;fill:#ffffff;stroke-width:1.00001"
       d="m 36.114437,23.650391 c -0.01967,0.03296 0.106922,0.224999 0.353527,0.53125 0.09228,-0.221893 -0.31248,-0.600027 -0.353527,-0.53125 z m 0.353527,0.53125 c -0.0844,0.202945 -0.58203,0.275799 -2.177808,-0.251953 -0.425352,-0.143982 -0.277104,0.333876 0.06836,1.019531 1.527262,0.496596 2.026597,0.431633 2.109446,0.232422 -0.761215,-0.945328 0.136503,-0.328225 0,0 0.08183,0.101611 0.122819,0.165133 0.248056,0.30664 2.747932,3.592998 4.896077,8.078735 6.842029,11.546875 l -0.02148,0.03516 5.048999,8.972657 c 1.635781,1.746082 3.445294,1.416198 5.197442,0.515625 l 0.585958,-1.31836 c -1.93081,1.123848 -3.964209,1.744596 -5.7834,-0.197265 l -5.048999,-8.972657 0.02148,-0.03516 c -1.945952,-3.46814 -4.094097,-7.953877 -6.842029,-11.546875 -0.125237,-0.141507 -0.166234,-0.205029 -0.248056,-0.30664 z m -5.062671,0.460937 -0.634787,3.558594 c 0.09583,-0.0062 0.181164,-0.006 -0.0039,0.01953 -1.929112,0.403487 -1.800654,-2.970169 -2.716889,-0.726562 -0.225929,0.553233 -1.35558,0.950249 -0.990267,1.273437 0.153884,0.139239 0.263817,0.253236 0.375012,0.367188 0.244578,-0.189727 0.516081,-0.397777 0.615255,-0.640625 0.916235,-2.243607 0.787777,1.130049 2.716889,0.726562 -0.237701,0.0039 -0.108435,-0.01228 0.0039,-0.01953 l 0.634787,-3.558594 c 5.037868,4.871783 5.133543,4.336544 4.318506,2.783203 -0.576531,-0.315312 -1.857594,-1.40342 -4.318506,-3.783203 z m -0.634787,4.558594 -0.0039,0.01953 c 0.185071,-0.02548 0.09975,-0.02572 0.0039,-0.01953 z m -0.0039,-0.980469 0.0039,-0.01953 c -0.112342,0.0072 -0.241608,0.02342 -0.0039,0.01953 z m -3.230578,2.013672 c -0.841262,0.161754 -2.568516,-0.04228 -1.982489,1.529297 0.656935,-0.87083 3.459353,0.05419 1.982489,-1.529297 z"
       id="path7" />
    <path
       style="fill:#20ebff;stroke-width:1.00001"
       d="m 36.45907,18.360578 c -4.454048,1.473034 -7.187078,3.76467 -9.197841,6.036674 -2.747934,3.592998 -4.895239,8.077978 -6.841192,11.546118 l 0.02129,0.03458 -5.048442,8.974108 c -1.819191,1.941861 -3.854411,1.320665 -5.7852217,0.196817 l 3.8754347,8.718768 c 2.276462,5.114497 9.409025,5.450044 12.155619,0.571854 L 37.799646,32.820783 38.023074,32.47235 c 2.430948,-3.88499 4.312584,-7.739652 7.578214,-10.694507 2.987832,-3.015075 -6.026836,-4.28853 -9.142218,-3.417265 z"
       id="path8" />
    <ellipse
       style="fill:#00e9ff;stroke-width:1.00001;fill-opacity:1"
       cx="45.001457"
       cy="9.0010004"
       id="circle8"
       rx="3.0001016"
       ry="3" />
    <path
       style="fill:#00e9ff;stroke-width:1.00001;fill-opacity:1"
       d="m 33.779938,8.0007256 c -0.876922,0.00108 -1.807705,0.2621028 -2.74676,0.7874647 -3.504879,1.9608507 -5.232128,5.3562367 -5.013891,9.8566837 0.05508,1.13734 0.225744,2.357755 0.378986,2.711887 0.153243,0.354133 0.409034,0.643767 0.568181,0.643767 0.159143,0 0.835468,-0.616428 1.503239,-1.369831 0.908134,-1.024598 1.695361,-1.620953 3.122962,-2.366518 3.815222,-1.992489 4.163443,-2.218912 5.079437,-3.300077 1.72743,-2.038919 1.772256,-4.044172 0.126762,-5.6854678 C 35.946007,8.4279879 34.907436,7.999324 33.779948,8.0007256 Z"
       id="path9" />
    <path
       style="fill:#00e9ff;stroke-width:1.00001;fill-opacity:1"
       d="m 19.344976,16.001766 c -0.210141,-0.0059 -0.422444,0.01042 -0.63204,0.05151 -1.664997,0.328945 -2.968461,2.818024 -2.669283,5.09772 0.185491,1.413513 1.450847,3.576725 2.531038,4.327018 0.468958,0.325732 1.078586,0.558693 1.355033,0.517793 0.43297,-0.0641 0.52712,-0.328839 0.679686,-1.909649 0.09738,-1.009332 0.45792,-2.524425 0.800963,-3.366768 0.748619,-1.838188 0.773154,-2.436635 0.142942,-3.504816 -0.428264,-0.725872 -1.297756,-1.184714 -2.208347,-1.212776 z"
       id="path10" />
    <path
       style="opacity:0.2;stroke-width:1.00001"
       d="m 36.45907,19.452029 c -4.454048,1.473034 -7.187078,3.764672 -9.197841,6.036676 -2.747934,3.592998 -4.895239,8.077978 -6.841192,11.546118 l 0.02129,0.03458 -5.048442,8.974108 c -1.819191,1.941861 -3.854411,1.320665 -5.7852217,0.196817 l 3.8754347,8.718768 c 2.276462,5.114496 9.409025,5.450044 12.155619,0.571854 l 12.160938,-21.618714 0.223428,-0.348433 c 2.430948,-3.88499 4.312584,-7.739652 7.578214,-10.694507 2.987832,-3.015076 -6.026836,-4.288532 -9.142218,-3.417267 z"
       id="path11" />
    <path
       style="fill:#00e9ff;stroke-width:1.00001;fill-opacity:1"
       d="m 36.45907,18.452058 c -4.454048,1.473034 -7.187078,3.764671 -9.197841,6.036675 -2.747934,3.592998 -4.895239,8.077978 -6.841192,11.546118 l 0.02129,0.03458 -5.048442,8.974107 c -1.819191,1.941861 -3.854411,1.320666 -5.7852217,0.196818 l 3.8754347,8.718767 c 2.276462,5.114497 9.409025,5.450045 12.155619,0.571854 l 12.160938,-21.618713 0.223428,-0.348433 c 2.430948,-3.88499 4.312584,-7.739653 7.578214,-10.694508 2.987832,-3.015075 -6.026836,-4.28853 -9.142218,-3.417265 z"
       id="path12" />
    <path
       style="opacity:0.2;fill:#ffffff;stroke-width:1.00001"
       d="M 45.001457,6 A 3.0000599,2.9999583 0 0 0 42.001355,9 3.0000599,2.9999583 0 0 0 42.044325,9.4863281 3.0000599,2.9999583 0 0 1 45.001457,7 3.0000599,2.9999583 0 0 1 47.958588,9.5136719 3.0000599,2.9999583 0 0 0 48.001558,9 3.0000599,2.9999583 0 0 0 45.001457,6 Z M 33.780373,8 c -0.87692,0.00108 -1.809084,0.2637006 -2.74814,0.7890625 -3.504878,1.9608505 -5.232078,5.3550215 -5.013842,9.8554685 9.99e-4,0.02087 0.0048,0.03963 0.0059,0.06055 0.05605,-4.028076 1.754872,-7.096021 5.007981,-8.9160155 C 31.971289,9.2637006 32.903453,9.00108 33.780373,9 c 1.12749,-0.0014 2.164834,0.4286507 3.017681,1.279297 0.651553,0.649891 1.028102,1.358034 1.15043,2.101562 0.158158,-1.110541 -0.212768,-2.166292 -1.15043,-3.1015621 C 35.945207,8.4286506 34.907863,7.9985984 33.780373,8 Z m -14.436036,8.001953 c -0.210141,-0.0059 -0.421283,0.0097 -0.63088,0.05078 -1.629059,0.321845 -2.901435,2.710969 -2.675873,4.949219 0.168748,-1.901279 1.289508,-3.675322 2.675873,-3.949219 0.209597,-0.04108 0.420739,-0.05668 0.63088,-0.05078 0.910591,0.02806 1.780795,0.487019 2.209059,1.212891 0.195446,0.331271 0.321206,0.618373 0.388685,0.910156 0.146657,-0.738956 0.01216,-1.230742 -0.388685,-1.910156 -0.428264,-0.725872 -1.298468,-1.184829 -2.209059,-1.212891 z m 20.278031,2.193359 c -1.236541,-0.04397 -2.385323,0.03804 -3.16417,0.25586 -4.454046,1.473034 -7.186814,3.765105 -9.197577,6.037109 -2.747934,3.592998 -4.894122,8.078735 -6.840075,11.546875 l 0.02148,0.03516 -5.048998,8.972657 c -1.819192,1.941861 -3.854542,1.321113 -5.7853524,0.197265 l 0.5859564,1.316407 c 1.752805,0.901296 3.562979,1.233089 5.199396,-0.513672 l 5.048998,-8.972657 -0.02148,-0.03516 c 1.945953,-3.46814 4.092141,-7.953877 6.840075,-11.546875 2.010763,-2.272004 4.743531,-4.564075 9.197577,-6.037109 0.778847,-0.21782 1.927629,-0.29983 3.16417,-0.25586 2.686805,0.09555 5.780245,0.796326 6.437718,2.033204 0.878164,-1.859947 -3.096358,-2.914374 -6.437718,-3.033204 z"
       id="path13" />
  </g>
</svg>
