<?xml version="1.0" encoding="UTF-8" standalone="no"?>
<svg
   width="62"
   height="62"
   version="1.1"
   id="svg6"
   sodipodi:docname="wavebox.svg"
   inkscape:version="1.4 (e7c3feb100, 2024-10-09)"
   xmlns:inkscape="http://www.inkscape.org/namespaces/inkscape"
   xmlns:sodipodi="http://sodipodi.sourceforge.net/DTD/sodipodi-0.dtd"
   xmlns:xlink="http://www.w3.org/1999/xlink"
   xmlns="http://www.w3.org/2000/svg"
   xmlns:svg="http://www.w3.org/2000/svg">
  <defs
     id="defs6">
    <linearGradient
       id="linearGradient6"
       inkscape:collect="always">
      <stop
         style="stop-color:#2964d7;stop-opacity:1;"
         offset="0"
         id="stop6" />
      <stop
         style="stop-color:#8660cb;stop-opacity:1"
         offset="1"
         id="stop7" />
    </linearGradient>
    <linearGradient
       inkscape:collect="always"
       xlink:href="#linearGradient6"
       id="linearGradient7"
       x1="29.996132"
       y1="60"
       x2="30.36441"
       y2="5"
       gradientUnits="userSpaceOnUse"
       gradientTransform="matrix(0.98214286,0,0,0.98245614,-0.42857152,-0.92982455)" />
  </defs>
  <sodipodi:namedview
     id="namedview6"
     pagecolor="#ffffff"
     bordercolor="#000000"
     borderopacity="0.25"
     inkscape:showpageshadow="2"
     inkscape:pageopacity="0.0"
     inkscape:pagecheckerboard="0"
     inkscape:deskcolor="#d1d1d1"
     inkscape:zoom="11.75"
     inkscape:cx="32"
     inkscape:cy="32.085106"
     inkscape:window-width="1920"
     inkscape:window-height="998"
     inkscape:window-x="0"
     inkscape:window-y="0"
     inkscape:window-maximized="1"
     inkscape:current-layer="svg6" />
  <rect
     style="opacity:0.2;stroke-width:0.9823"
     width="55"
     height="55.017544"
     x="3.5"
     y="3.9824562"
     rx="16.5"
     ry="16.505262"
     id="rect1" />
  <rect
     style="fill:url(#linearGradient7);stroke-width:0.9823"
     width="55"
     height="55.017544"
     x="3.5"
     y="3"
     rx="16.5"
     ry="16.505262"
     id="rect2" />
  <path
     style="opacity:0.2;fill:#ffffff;stroke-width:0.9823"
     d="m 20.000767,3 c -9.141,0 -16.5007671,7.362115 -16.5007671,16.50603 v 0.982457 c 0,-9.143916 7.3597671,-16.5060308 16.5007671,-16.5060308 h 21.998466 c 9.141,0 16.500767,7.3621148 16.500767,16.5060308 V 19.50603 C 58.5,10.362115 51.140233,3 41.999233,3 Z"
     id="path6" />
  <g
     id="g1"
     transform="matrix(1.0164361,0,0,1,-2.2275101,-0.720703)">
    <path
       style="opacity:0.2;stroke-width:1.01117"
       d="m 30.667894,12.731862 -1.204697,0.379184 -14.973835,4.676605 v 9.005628 l 7.919426,4.953097 -7.919426,3.961686 v 8.934534 l 14.559101,6.367137 1.619431,0.71097 v -8.827888 l -6.647576,-2.911027 6.647576,-3.325766 v -9.290016 l -6.572528,-4.107828 6.572528,-2.053916 z m 4.044634,0 v 8.4724 l 6.572527,2.053916 -6.572527,4.107828 v 9.290016 l 6.647576,3.325766 -6.647576,2.911027 v 8.827888 l 1.61943,-0.71097 14.559101,-6.367137 v -8.934534 l -7.919421,-3.961686 7.919421,-4.953097 v -9.005628 l -14.97383,-4.676605 z"
       id="path2-3" />
    <path
       style="fill:#ffffff;stroke-width:1.01117"
       d="m 30.667894,11.720703 -1.204697,0.379185 -14.973835,4.676605 v 9.005631 l 7.919426,4.953094 -7.919426,3.961689 v 8.934531 l 14.559101,6.367136 1.619431,0.71097 v -8.827887 l -6.647576,-2.911029 6.647576,-3.325764 v -9.290016 l -6.572528,-4.107828 6.572528,-2.053917 z m 4.044634,0 v 8.4724 l 6.572527,2.053917 -6.572527,4.107828 v 9.290016 l 6.647576,3.325764 -6.647576,2.911029 v 8.827887 l 1.61943,-0.71097 14.559101,-6.367136 v -8.934531 l -7.919421,-3.961689 7.919421,-4.953094 v -9.005631 l -14.97383,-4.676605 z"
       id="path3-6" />
  </g>
</svg>
