<?xml version="1.0" encoding="UTF-8" standalone="no"?>
<svg
   width="62"
   height="62"
   version="1.1"
   id="svg9"
   sodipodi:docname="waydroid.svg"
   inkscape:version="1.4 (unknown)"
   xmlns:inkscape="http://www.inkscape.org/namespaces/inkscape"
   xmlns:sodipodi="http://sodipodi.sourceforge.net/DTD/sodipodi-0.dtd"
   xmlns="http://www.w3.org/2000/svg"
   xmlns:svg="http://www.w3.org/2000/svg">
  <defs
     id="defs9" />
  <sodipodi:namedview
     id="namedview9"
     pagecolor="#ffffff"
     bordercolor="#000000"
     borderopacity="0.25"
     inkscape:showpageshadow="2"
     inkscape:pageopacity="0.0"
     inkscape:pagecheckerboard="0"
     inkscape:deskcolor="#d1d1d1"
     inkscape:zoom="12.109375"
     inkscape:cx="32"
     inkscape:cy="32"
     inkscape:window-width="1920"
     inkscape:window-height="998"
     inkscape:window-x="0"
     inkscape:window-y="0"
     inkscape:window-maximized="1"
     inkscape:current-layer="svg9" />
  <g
     id="g10"
     transform="translate(0,0.50067714)">
    <g
       id="g9">
      <path
         style="opacity:0.2;stroke-width:0.96381"
         d="m 12.607,2.9703996 a 2.8845835,2.8982425 0 0 0 -1.581268,0.5547407 2.8845835,2.8982425 0 0 0 -0.623491,4.0530118 l 4.91657,6.7436959 c -4.700384,3.809534 -8.0041049,9.294514 -9.0030614,15.551643 -0.011843,0.0742 -0.00705,0.150876 -0.011266,0.22643 -0.1726343,1.248791 -0.293296,2.681193 -0.3042315,3.781299 0,13.872335 11.1927539,25.118103 24.9997289,25.118103 13.806958,0 24.999726,-11.245768 24.999726,-25.118103 -0.0015,-1.119842 -0.118914,-2.561012 -0.289217,-3.834146 0,0 0,-0.004 0,-0.004 -0.0014,-0.0092 -0.0024,-0.0176 -0.004,-0.02634 -0.05761,-0.427062 -0.120319,-0.833475 -0.187802,-1.203829 -0.0092,0.002 -0.01751,0.0058 -0.02622,0.0078 C 54.308363,23.004617 51.120222,17.92368 46.688627,14.329463 l 4.92034,-6.7513012 A 2.8845835,2.8982425 0 0 0 50.985478,3.5251403 2.8845835,2.8982425 0 0 0 46.955325,4.1515837 L 41.798376,11.223597 C 38.529299,9.647845 34.868042,8.7631106 30.999982,8.7631106 c -3.865184,0 -7.523667,0.8831764 -10.790898,2.4567204 L 15.059651,4.1515837 A 2.8845835,2.8982425 0 0 0 13.170398,3.0005891 2.8845835,2.8982425 0 0 0 12.607,2.9703996 Z"
         id="path1" />
      <path
         style="fill:#00ff66;stroke-width:0.96381"
         d="m 54.070146,32.997002 c 0,13.872345 -8.728988,22.338822 -22.535953,22.338822 -13.806974,0 -24.3962833,-8.361192 -24.3962833,-22.233549 0,-1.364535 -1.0293655,-2.89079 -0.8209403,-4.196304 C 8.2274673,16.939258 18.551111,7.7970391 30.999982,7.7970391 c 12.509803,0 22.873525,9.2319409 24.71045,21.2848899 0.190482,1.249787 -1.640286,2.611766 -1.640286,3.915073 z"
         id="path2" />
      <path
         style="fill:#8d5fd3;stroke-width:0.96381"
         d="m 55.518934,27.845443 c -9.258521,2.013383 -19.335603,3.168168 -24.518952,3.168168 -5.408896,0 -15.577125,-1.034491 -24.5189695,-2.984849 -0.260956,1.420984 -0.4664011,3.441481 -0.4807631,4.886387 0,13.872339 11.1927556,25.118103 24.9997326,25.118103 13.806958,0 24.999724,-11.245764 24.999724,-25.118103 -0.002,-1.506005 -0.210869,-3.588318 -0.480772,-5.069706 z"
         id="path3" />
      <path
         style="fill:none;stroke:#00ff66;stroke-width:5.78279;stroke-linecap:round;stroke-linejoin:round;stroke-opacity:1"
         d="M 12.730938,4.8987967 20.625593,15.729078"
         id="path4" />
      <path
         style="opacity:0.2;stroke-width:0.96381"
         d="m 52.193718,29.505961 c -2.80837,0.538683 -5.614176,0.984894 -8.29812,1.355567 l -2.436237,9.975581 -6.977203,-8.991822 c -1.297506,0.0808 -2.500894,0.134265 -3.482176,0.134265 -0.990989,0 -2.186846,-0.04754 -3.464194,-0.116177 l -6.992624,8.816236 -2.341149,-9.691564 C 15.394823,30.629866 12.473593,30.183734 9.5903618,29.637645 l 6.9026802,21.13118 c 0.978812,2.001863 2.241377,1.632367 3.592679,0.511252 L 31.1079,39.670029 41.765177,50.941831 c 1.283058,1.747515 3.068186,1.881157 3.962746,-1.257456 z"
         id="path5" />
      <path
         style="fill:#ffffff;stroke-width:0.96381"
         d="m 52.193718,28.540002 c -2.80837,0.538687 -5.614176,0.9849 -8.29812,1.355578 l -2.436237,9.975583 -6.977203,-8.991826 c -1.297506,0.0808 -2.500894,0.134276 -3.482176,0.134276 -0.990989,0 -2.186846,-0.04754 -3.464194,-0.116189 l -6.992624,8.816228 -2.341149,-9.691553 C 15.394823,29.663916 12.473593,29.217781 9.5903618,28.671686 l 6.9026802,21.131201 c 0.978812,2.001863 2.241377,1.632356 3.592679,0.511242 L 31.1079,38.704081 l 10.657277,11.2718 c 1.283058,1.747519 3.068186,1.88116 3.962746,-1.257456 z"
         id="path6" />
      <path
         style="fill:none;stroke:#00ff66;stroke-width:5.78279;stroke-linecap:round;stroke-linejoin:round;stroke-opacity:1"
         d="M 49.28249,4.8987967 41.387842,15.729078"
         id="path7" />
      <path
         style="opacity:0.2;fill:#ffffff;stroke-width:0.96381"
         d="m 55.519186,27.844785 c -9.258521,2.013386 -19.335855,3.1681 -24.519204,3.1681 -5.408896,0 -15.577358,-1.032827 -24.5192134,-2.983179 C 6.2198119,29.450693 6.014364,31.469975 6,32.914872 c 0,0.197466 0.010504,0.392351 0.015028,0.588708 0.040649,-1.406859 0.2257674,-3.202924 0.4657444,-4.509675 8.9418586,1.950348 19.1103106,2.985069 24.5192096,2.985069 5.183349,0 15.260684,-1.154715 24.5192,-3.1681 0.246083,1.350681 0.433597,3.182387 0.467618,4.63988 C 55.990697,33.271927 56,33.094611 56,32.914872 55.998,31.408866 55.789136,29.326173 55.519237,27.844785 Z"
         id="path8" />
      <path
         style="opacity:0.2;fill:#ffffff;stroke-width:0.96381"
         d="m 49.408159,2.0018632 a 2.8845834,2.8982424 0 0 0 -0.565277,0.03208 2.8845834,2.8982424 0 0 0 -1.887393,1.1528918 l -5.155115,7.072074 C 38.530707,8.6824877 34.868938,7.7965206 30.999982,7.7965206 c -3.864616,0 -7.524152,0.8836344 -10.79101,2.4567304 L 15.057606,3.1868335 a 2.8845834,2.8982424 0 0 0 -4.030194,-0.626448 2.8845834,2.8982424 0 0 0 -1.1098942,2.760527 2.8845834,2.8982424 0 0 1 1.1098942,-1.7944366 2.8845834,2.8982424 0 0 1 4.030194,0.6264487 l 5.151366,7.0664234 c 3.266858,-1.5731032 6.926394,-2.4567375 10.79101,-2.4567375 3.868956,0 7.530725,0.8859681 10.800392,2.4624075 l 5.155115,-7.0720934 a 2.8845834,2.8982424 0 0 1 1.887393,-1.1528924 2.8845834,2.8982424 0 0 1 0.565277,-0.032083 2.8845834,2.8982424 0 0 1 1.5794,0.5585224 2.8845834,2.8982424 0 0 1 1.132437,1.8567052 2.8845834,2.8982424 0 0 0 -1.132437,-2.8227949 2.8845834,2.8982424 0 0 0 -1.5794,-0.5585187 z M 14.884836,13.72514 c -4.46764,3.790831 -7.5997535,9.118735 -8.5674534,15.180085 -0.044187,0.276784 -0.024802,0.565527 0.020663,0.858526 C 7.3578576,23.55062 10.645945,18.108989 15.320536,14.3214 Z m 32.237787,0.0078 -0.43381,0.596261 c 4.652186,3.773351 7.927939,9.188446 8.959944,15.36876 0.05862,-0.207104 0.09281,-0.413169 0.06196,-0.615131 C 54.77649,22.952836 51.628744,17.560039 47.122609,13.732913 Z"
         id="path9" />
    </g>
  </g>
</svg>
