<?xml version="1.0" encoding="UTF-8" standalone="no"?>
<svg
   width="62"
   height="62"
   version="1.1"
   id="svg5"
   sodipodi:docname="wayland.svg"
   inkscape:version="1.4 (e7c3feb100, 2024-10-09)"
   xmlns:inkscape="http://www.inkscape.org/namespaces/inkscape"
   xmlns:sodipodi="http://sodipodi.sourceforge.net/DTD/sodipodi-0.dtd"
   xmlns:xlink="http://www.w3.org/1999/xlink"
   xmlns="http://www.w3.org/2000/svg"
   xmlns:svg="http://www.w3.org/2000/svg">
  <defs
     id="defs5">
    <linearGradient
       id="linearGradient7"
       inkscape:collect="always">
      <stop
         style="stop-color:#b7c6cd;stop-opacity:1;"
         offset="0"
         id="stop7" />
      <stop
         style="stop-color:#eff2f6;stop-opacity:1;"
         offset="1"
         id="stop8" />
    </linearGradient>
    <linearGradient
       id="linearGradient5"
       inkscape:collect="always">
      <stop
         style="stop-color:#ff782e;stop-opacity:1;"
         offset="0"
         id="stop5" />
      <stop
         style="stop-color:#ffde00;stop-opacity:1;"
         offset="1"
         id="stop6" />
    </linearGradient>
    <linearGradient
       inkscape:collect="always"
       xlink:href="#linearGradient5"
       id="linearGradient6"
       x1="33.909542"
       y1="59.934811"
       x2="33.997204"
       y2="5.072629"
       gradientUnits="userSpaceOnUse" />
    <linearGradient
       inkscape:collect="always"
       xlink:href="#linearGradient7"
       id="linearGradient8"
       x1="32"
       y1="60"
       x2="33.325447"
       y2="5.0322566"
       gradientUnits="userSpaceOnUse" />
  </defs>
  <sodipodi:namedview
     id="namedview5"
     pagecolor="#ffffff"
     bordercolor="#000000"
     borderopacity="0.25"
     inkscape:showpageshadow="2"
     inkscape:pageopacity="0.0"
     inkscape:pagecheckerboard="0"
     inkscape:deskcolor="#d1d1d1"
     inkscape:zoom="11.6875"
     inkscape:cx="31.957219"
     inkscape:cy="32"
     inkscape:window-width="1920"
     inkscape:window-height="994"
     inkscape:window-x="0"
     inkscape:window-y="0"
     inkscape:window-maximized="1"
     inkscape:current-layer="svg5" />
  <g
     id="g5"
     transform="matrix(0.98214286,0,0,0.98245614,-0.42857152,-0.92982455)">
    <path
       style="opacity:0.2"
       d="M 32,5 A 28,28 0 0 0 4,33 28,28 0 0 0 32,61 28,28 0 0 0 60,33 28,28 0 0 0 32,5 Z"
       id="path1" />
    <path
       style="fill:url(#linearGradient6)"
       d="M 32,4 A 28,28 0 0 0 4,32 28,28 0 0 0 32,60 28,28 0 0 0 60,32 28,28 0 0 0 32,4 Z"
       id="path2" />
    <path
       style="opacity:0.2"
       d="m 53.347196,5 c 0.98584,5.72e-5 1.53678,0.7765034 1.652804,2.3293678 l -1.245214,7.3131042 h 0.304466 l 0.652416,-0.541716 h 0.17398 v 0.162516 c -0.898942,0.686218 -1.768842,2.56414 -2.609698,5.633796 -0.319,2.636368 -0.855444,5.074066 -1.60932,7.313118 -0.666952,2.311326 -1.00042,4.44205 -1.000378,6.3922 l -1.261358,3.846148 c -2.8e-5,0.325044 0.478412,0.650076 1.435332,0.975076 -0.174,0.758418 -0.434982,1.137618 -0.782904,1.137604 V 39.7779 h 0.304466 v 0.1625 c -4.2e-5,0.397276 -0.492976,0.595906 -1.47883,0.59589 l 0.17398,0.216686 v 0.75839 h -0.304464 c 0.202948,0.758418 0.63789,1.137606 1.304854,1.137606 v 0.379186 h -1.304854 v 0.216688 c 0.434914,1.4e-5 0.652398,0.325044 0.652426,0.97509 l -1.826778,0.75839 0.17396,0.216686 v 0.16252 c -2.6e-5,0.252802 -0.217512,0.3792 -0.652426,0.3792 v 0.216672 c 0.550898,1.4e-5 0.826374,0.12638 0.826402,0.379204 -0.782932,0.325028 -1.812312,1.932108 -3.088136,4.821236 C 42.53305,53.71795 41.402182,55 40.44533,55 h -0.347962 c -0.724942,-0.577832 -1.319378,-2.491882 -1.783296,-5.742154 -1.85581,-4.947624 -2.783698,-7.854808 -2.783672,-8.721554 -2.6e-5,-2.239054 -0.594464,-4.223 -1.783296,-6.750998 -0.318988,-1.119518 -0.536458,-3.077196 -0.652428,-4.774588 h -0.782904 c -1.971794,3.719772 -3.001172,6.559918 -3.088152,8.654514 -0.55094,1.227894 -0.985896,2.70857 -1.304842,4.442036 1.188844,0.397274 1.783282,0.77646 1.783296,1.13759 v 0.216688 c -0.927918,-0.14444 -1.580332,-0.415304 -1.957282,-0.812562 -0.405956,0.97509 -0.9424,3.083668 -1.60931,7.525686 C 25.613532,52.233166 24.961104,53 24.178212,53 c -2.203756,-0.902848 -4.045043,-2.121108 -5.52386,-4.179618 -0.231979,1.6e-5 -0.608944,-1.029246 -1.130867,-3.087756 -0.318974,1.4e-5 -0.536445,-1.029248 -0.652428,-3.087758 -1.101879,-2.925228 -1.855782,-5.665806 -2.261736,-9.421682 v -5.633812 h -0.173988 l -0.782906,0.216688 v -0.216688 c 0,-0.252756 0.260969,-0.37916 0.782906,-0.379188 L 14.261357,23.959914 V 21.413862 L 13,13.288194 V 10.221136 C 13.550939,8.0543402 14.507832,6.9709212 15.870665,6.970864 L 16.39263,7.512581 15.870693,7.350065 c 2.116751,2.88917 3.363614,4.926968 3.740565,6.913205 h 1.47883 v 0.379201 h -1.130866 v 0.433374 c 0.434942,1.66128 0.753901,2.491912 0.956893,2.49187 h 0.347963 l 0.782904,-0.216687 0.17398,0.216687 0.17398,-0.216687 0.17398,0.216687 v 0.162514 c -0.579946,0.433403 -0.97139,1.02929 -1.174368,1.787651 h -0.13046 v 0.379188 h 0.304466 c 0.40594,6.031098 1.159856,11.400282 2.261736,14.50608 L 24.482722,35 h 0.347948 c 0.434946,3e-5 1.348342,-2.368286 2.74019,-6.59366 0.898888,-1.914008 1.551304,-3.315518 1.95727,-4.760112 L 29.35415,23.05034 C 30.253024,21.641918 31.180914,21.000044 32.13782,21 h 0.304468 c 0.608918,4.4e-5 1.04386,0.334948 1.304856,1.129436 0.811878,1.191792 1.464308,2.701646 1.957268,5.08514 l 2.435724,5.03352 c 0.318934,0.397286 0.478412,0.848704 0.47844,1.35429 C 39.51745,35.733126 40.329344,38.313838 41.0543,39 h 0.521936 c 0.608904,1.4e-5 1.420798,-3.808578 2.43571,-9.081258 0.17396,2.8e-5 0.6524,-1.40842 1.435332,-4.225348 v -0.216686 l -0.827494,-0.379202 -0.652428,0.216686 H 43.140954 V 24.88082 l 1.652804,-0.16252 h 1.305948 c 1.24683,-4.658674 2.392192,-8.27009 3.436106,-10.834231 0.347924,-5.2726096 0.826376,-7.908936 1.435334,-7.908979 L 53.347242,5"
       id="path3" />
    <path
       style="fill:url(#linearGradient8)"
       d="m 53.347196,4 c 0.98584,5.72e-5 1.53678,0.7765034 1.652804,2.3293678 l -1.245214,7.3131042 h 0.304466 l 0.652416,-0.541716 h 0.17398 v 0.162516 c -0.898942,0.686218 -1.768842,2.56414 -2.609698,5.633795 -0.319,2.636369 -0.855444,5.074067 -1.60932,7.313119 -0.666952,2.311326 -1.00042,4.44205 -1.000378,6.3922 l -1.261358,3.846148 c -2.8e-5,0.325044 0.478412,0.650076 1.435332,0.975076 -0.174,0.758418 -0.434982,1.137618 -0.782904,1.137604 V 38.7779 h 0.304466 v 0.1625 c -4.2e-5,0.397276 -0.492976,0.595906 -1.47883,0.59589 l 0.17398,0.216686 v 0.75839 h -0.304464 c 0.202948,0.758418 0.63789,1.137606 1.304854,1.137606 v 0.379186 h -1.304854 v 0.216688 c 0.434914,1.4e-5 0.652398,0.325044 0.652426,0.97509 l -1.826778,0.75839 0.17396,0.216686 v 0.16252 c -2.6e-5,0.252802 -0.217512,0.3792 -0.652426,0.3792 v 0.216672 c 0.550898,1.4e-5 0.826374,0.12638 0.826402,0.379204 -0.782932,0.325028 -1.812312,1.932108 -3.088136,4.821236 C 42.53305,52.71795 41.402182,54 40.44533,54 h -0.347962 c -0.724942,-0.577832 -1.319378,-2.491882 -1.783296,-5.742154 -1.85581,-4.947624 -2.783698,-7.854808 -2.783672,-8.721554 -2.6e-5,-2.239054 -0.594464,-4.223 -1.783296,-6.750998 -0.318988,-1.119518 -0.536458,-3.077196 -0.652428,-4.774588 h -0.782904 c -1.971794,3.719772 -3.001172,6.559918 -3.088152,8.654514 -0.55094,1.227894 -0.985896,2.70857 -1.304842,4.442036 1.188844,0.397274 1.783282,0.77646 1.783296,1.13759 v 0.216688 c -0.927918,-0.14444 -1.580332,-0.415304 -1.957282,-0.812562 -0.405956,0.97509 -0.9424,3.083668 -1.60931,7.525686 C 25.613532,51.233166 24.961104,52 24.178212,52 c -2.203756,-0.902848 -4.045043,-2.121108 -5.52386,-4.179618 -0.231979,1.6e-5 -0.608944,-1.029246 -1.130867,-3.087756 -0.318974,1.4e-5 -0.536445,-1.029248 -0.652428,-3.087758 -1.101879,-2.925228 -1.855782,-5.665806 -2.261736,-9.421682 v -5.633812 h -0.173988 l -0.782906,0.216688 v -0.216688 c 0,-0.252756 0.260969,-0.37916 0.782906,-0.379188 L 14.261357,22.959914 V 20.413862 L 13,12.288194 V 9.2211362 c 0.550939,-2.166796 1.507832,-3.250215 2.870665,-3.2502722 L 16.39263,6.512581 15.870693,6.350065 c 2.116751,2.8891704 3.363614,4.926968 3.740565,6.913205 h 1.47883 v 0.379201 h -1.130866 v 0.433374 c 0.434942,1.66128 0.753901,2.491912 0.956893,2.49187 h 0.347963 l 0.782904,-0.216687 0.17398,0.216687 0.17398,-0.216687 0.17398,0.216687 v 0.162514 c -0.579946,0.433403 -0.97139,1.02929 -1.174368,1.787652 h -0.13046 v 0.379187 h 0.304466 c 0.40594,6.031098 1.159856,11.400282 2.261736,14.50608 L 24.482722,34 h 0.347948 c 0.434946,3e-5 1.348342,-2.368286 2.74019,-6.59366 0.898888,-1.914008 1.551304,-3.315518 1.95727,-4.760112 L 29.35415,22.05034 C 30.253024,20.641918 31.180914,20.000044 32.13782,20 h 0.304468 c 0.608918,4.4e-5 1.04386,0.334948 1.304856,1.129436 0.811878,1.191792 1.464308,2.701646 1.957268,5.08514 l 2.435724,5.03352 c 0.318934,0.397286 0.478412,0.848704 0.47844,1.35429 C 39.51745,34.733126 40.329344,37.313838 41.0543,38 h 0.521936 c 0.608904,1.4e-5 1.420798,-3.808578 2.43571,-9.081258 0.17396,2.8e-5 0.6524,-1.40842 1.435332,-4.225348 v -0.216686 l -0.827494,-0.379202 -0.652428,0.216686 H 43.140954 V 23.88082 l 1.652804,-0.16252 h 1.305948 c 1.24683,-4.658674 2.392192,-8.27009 3.436106,-10.834231 0.347924,-5.2726096 0.826376,-7.908936 1.435334,-7.908979 L 53.347242,4"
       id="path4" />
    <path
       style="opacity:0.2;fill:#ffffff"
       d="M 32,4 A 28,28 0 0 0 4,32 28,28 0 0 0 4.0214844,32.40625 28,28 0 0 1 32,5 28,28 0 0 1 59.978516,32.578125 28,28 0 0 0 60,32 28,28 0 0 0 32,4 Z"
       id="path5" />
  </g>
</svg>
