<?xml version="1.0" encoding="UTF-8" standalone="no"?>
<svg
   width="62"
   height="62"
   version="1.1"
   id="svg7"
   sodipodi:docname="web-lounge.svg"
   inkscape:version="1.4 (unknown)"
   xmlns:inkscape="http://www.inkscape.org/namespaces/inkscape"
   xmlns:sodipodi="http://sodipodi.sourceforge.net/DTD/sodipodi-0.dtd"
   xmlns="http://www.w3.org/2000/svg"
   xmlns:svg="http://www.w3.org/2000/svg">
  <defs
     id="defs7" />
  <sodipodi:namedview
     id="namedview7"
     pagecolor="#ffffff"
     bordercolor="#000000"
     borderopacity="0.25"
     inkscape:showpageshadow="2"
     inkscape:pageopacity="0.0"
     inkscape:pagecheckerboard="0"
     inkscape:deskcolor="#d1d1d1"
     inkscape:zoom="12.109375"
     inkscape:cx="40.588387"
     inkscape:cy="33.156129"
     inkscape:window-width="1920"
     inkscape:window-height="998"
     inkscape:window-x="0"
     inkscape:window-y="0"
     inkscape:window-maximized="1"
     inkscape:current-layer="svg7" />
  <ellipse
     style="opacity:0.2;stroke-width:0.9823"
     cx="31"
     cy="31.491228"
     id="circle1"
     rx="27.5"
     ry="27.508772" />
  <ellipse
     style="fill:#2d3d53;fill-opacity:1;stroke-width:0.9823"
     cx="31"
     cy="30.508772"
     id="circle2"
     rx="27.5"
     ry="27.508772" />
  <path
     style="opacity:0.1;fill:#ffffff;stroke-width:0.9823"
     d="M 31,3 A 27.5,27.508772 0 0 0 3.4999999,30.508772 27.5,27.508772 0 0 0 3.5326101,30.98273 27.5,27.508772 0 0 1 31,3.9824562 27.5,27.508772 0 0 1 58.482736,30.746711 27.5,27.508772 0 0 0 58.5,30.508772 27.5,27.508772 0 0 0 31,3 Z"
     id="path7" />
  <g
     id="g1"
     transform="translate(-4.0785075,-3.2222069)">
    <path
       style="opacity:0.2;stroke-width:0.968968"
       class="st0"
       d="m 27.257099,22.185728 c -0.249869,0 -0.502602,0.06244 -0.731226,0.186194 l -10.229889,5.544557 c -0.444212,0.247525 -0.717919,0.692824 -0.717919,1.175489 v 11.213256 c 0,0.482665 0.273707,0.940347 0.717919,1.175482 l 10.243207,5.555858 c 0.444235,0.247524 0.99378,0.247524 1.451069,0 l 4.741706,-2.572918 c 0.156774,-0.08656 0.156774,-0.310213 0,-0.396841 l -2.376557,-1.286464 c -0.07828,-0.03703 -0.170801,-0.03703 -0.236128,0 l -2.730763,1.483929 c -0.07829,0.03706 -0.168911,0.03706 -0.23423,0 l -8.597906,-4.66435 c -0.09141,-0.02475 -0.315199,-0.1862 -0.224694,-0.1862 v -9.418979 c 0,-0.08656 0.146047,-0.160339 0.211375,-0.197471 l 8.597898,-4.666233 c 0.07832,-0.03703 0.168885,-0.03703 0.234221,0 l 8.774995,4.703856 c 0.07828,0.03703 0.07438,0.110877 0.07438,0.197471 v 8.267944 c 0,0.08656 0.09649,0.160361 0.161883,0.197471 l 2.226128,1.286458 c 0.156777,0.08656 0.365612,-0.02413 0.365612,-0.197473 V 29.129591 c 0,-0.482666 -0.273701,-0.942226 -0.71791,-1.177367 L 27.976981,22.371922 c -0.222108,-0.123761 -0.469942,-0.186194 -0.719844,-0.186194 z m 15.645716,0 c -0.249734,0 -0.500827,0.06251 -0.729341,0.186194 l -4.739796,2.572921 c -0.156711,0.08651 -0.156711,0.308369 0,0.39496 l 2.376559,1.286464 c 0.07827,0.03704 0.168922,0.03704 0.234225,0 l 2.728857,-1.483952 c 0.07827,-0.03703 0.170839,-0.03703 0.23613,0 l 8.592189,4.662476 c 0.09136,0.03705 0.222806,0.199374 0.22281,0.199374 v 9.41333 c 0,0.08651 -0.146106,0.160384 -0.211377,0.19747 l -8.592195,4.664359 c -0.07828,0.03704 -0.168935,0.03704 -0.23423,0 l -8.630268,-4.701955 c -0.07832,-0.03705 -0.224601,-0.110898 -0.224696,-0.197493 l -0.01101,-8.262292 c -8.8e-5,-0.08649 -0.05095,-0.162255 -0.116187,-0.199372 l -2.260378,-1.286463 c -0.156696,-0.08651 -0.365638,0.02621 -0.365638,0.199371 v 10.451525 c 0,0.482446 0.273943,0.940461 0.71793,1.175493 l 10.277472,5.578426 c 0.443979,0.247391 0.992139,0.247391 1.449177,0 L 53.86049,41.482588 c 0.443967,-0.247389 0.717916,-0.69305 0.717916,-1.175493 V 29.101359 c 0,-0.482413 -0.273949,-0.940446 -0.71792,-1.17548 L 43.622721,22.371922 C 43.400677,22.248218 43.152585,22.185728 42.902839,22.185728 Z M 22.890561,33.741272 a 1.4624993,1.4444433 0 0 0 -1.462493,1.444456 1.4624993,1.4444433 0 0 0 1.462493,1.444428 1.4624993,1.4444433 0 0 0 1.462506,-1.444428 1.4624993,1.4444433 0 0 0 -1.462506,-1.444456 z m 4.875004,0 a 1.4624993,1.4444433 0 0 0 -1.462499,1.444456 1.4624993,1.4444433 0 0 0 1.462499,1.444428 1.4624993,1.4444433 0 0 0 1.462496,-1.444428 1.4624993,1.4444433 0 0 0 -1.462496,-1.444456 z m 14.624995,0 a 1.4624993,1.4444433 0 0 0 -1.462502,1.444456 1.4624993,1.4444433 0 0 0 1.462502,1.444428 1.4624993,1.4444433 0 0 0 1.462502,-1.444428 1.4624993,1.4444433 0 0 0 -1.462502,-1.444456 z m 4.875002,0 a 1.4624993,1.4444433 0 0 0 -1.4625,1.444456 1.4624993,1.4444433 0 0 0 1.4625,1.444428 1.4624993,1.4444433 0 0 0 1.462497,-1.444428 1.4624993,1.4444433 0 0 0 -1.462497,-1.444456 z"
       id="path2-2" />
    <path
       style="fill:#ff9e30;stroke-width:0.968968"
       class="st0"
       d="m 51.825013,29.040101 2e-6,9.413625 c 0,0.08651 -0.145943,0.160802 -0.211218,0.197912 l -8.592186,4.663526 c -0.07827,0.03706 -0.169748,0.03706 -0.235041,0 l -8.63076,-4.700638 c -0.07828,-0.03706 -0.224797,-0.111323 -0.224888,-0.197922 l -0.0088,-8.263195 c -1.11e-4,-0.08649 -0.05216,-0.160825 -0.117496,-0.19795 L 31.5448,28.668979 c -0.156681,-0.08651 -0.365621,0.02485 -0.365621,0.197943 v 10.452696 c 0,0.482447 0.274219,0.940126 0.718191,1.175161 l 10.276635,5.578902 c 0.443971,0.24741 0.992409,0.24741 1.449443,0 l 10.237395,-5.554165 c 0.443888,-0.247392 0.718107,-0.692713 0.718107,-1.175155 V 28.137087 c 0,-0.482442 -0.274219,-0.940128 -0.718191,-1.17516 L 43.623196,21.407765 c -0.443975,-0.247408 -0.992411,-0.247408 -1.449441,0 l -4.740072,2.572977 c -0.156701,0.08651 -0.156701,0.309243 0,0.395831 l 2.376561,1.286489 c 0.07827,0.03701 0.169753,0.03701 0.235038,0 l 2.729138,-1.484408 c 0.07825,-0.03703 0.169757,-0.03703 0.235049,0 l 8.592187,4.66351 c 0.09138,0.03702 0.224274,0.197937 0.224279,0.197937 z"
       id="path3-7" />
    <ellipse
       style="fill:#ffffff;stroke-width:0.968968"
       class="st1"
       cx="47.265594"
       cy="34.222198"
       id="circle3"
       rx="1.4625002"
       ry="1.4444432" />
    <ellipse
       style="fill:#ffffff;stroke-width:0.968968"
       class="st1"
       cx="42.390583"
       cy="34.222198"
       id="circle4"
       rx="1.4625002"
       ry="1.4444432" />
    <path
       style="fill:#ffffff;stroke-width:0.968968"
       class="st1"
       d="m 18.33101,38.449864 -3e-6,-9.418276 c 0,-0.08656 0.147573,-0.160902 0.212896,-0.198033 l 8.596969,-4.665816 c 0.07833,-0.03703 0.169842,-0.03703 0.235186,0 l 8.77415,4.702945 c 0.0783,0.03706 0.07499,0.111422 0.07499,0.198027 v 8.267295 c 0,0.08656 0.0949,0.160895 0.160244,0.198024 l 2.226846,1.287114 c 0.156777,0.08655 0.365822,-0.02464 0.365822,-0.198021 V 28.165251 c 0,-0.482665 -0.274359,-0.940598 -0.718591,-1.175739 L 27.977076,21.407849 c -0.444195,-0.247523 -0.992957,-0.247523 -1.450225,0 l -10.230155,5.544536 c -0.444233,0.24752 -0.718599,0.69307 -0.718599,1.175732 v 11.212822 c 0,0.482685 0.274366,0.940607 0.718598,1.175741 l 10.243213,5.556907 c 0.444204,0.247524 0.992965,0.247524 1.450256,0 l 4.742703,-2.574247 c 0.156774,-0.08655 0.156774,-0.309405 0,-0.396024 l -2.37791,-1.287135 c -0.0783,-0.03706 -0.169835,-0.03706 -0.235154,0 l -2.730671,1.485161 c -0.07828,0.03703 -0.169834,0.03703 -0.235164,0 l -8.596996,-4.665838 c -0.09134,-0.02473 -0.316447,-0.185658 -0.225951,-0.185658 z"
       id="path4-0" />
    <ellipse
       style="fill:#ff9e30;stroke-width:0.968968"
       class="st0"
       cx="22.890572"
       cy="34.222198"
       id="circle5"
       rx="1.4625002"
       ry="1.4444432" />
    <ellipse
       style="fill:#ff9e30;stroke-width:0.968968"
       class="st0"
       cx="27.765556"
       cy="34.222198"
       id="circle6"
       rx="1.4625002"
       ry="1.4444432" />
  </g>
</svg>
