<?xml version="1.0" encoding="UTF-8" standalone="no"?>
<svg
   width="62"
   height="62"
   version="1.1"
   id="svg7"
   sodipodi:docname="tidal-hifi.svg"
   inkscape:version="1.4 (e7c3feb100, 2024-10-09)"
   xmlns:inkscape="http://www.inkscape.org/namespaces/inkscape"
   xmlns:sodipodi="http://sodipodi.sourceforge.net/DTD/sodipodi-0.dtd"
   xmlns="http://www.w3.org/2000/svg"
   xmlns:svg="http://www.w3.org/2000/svg">
  <defs
     id="defs7" />
  <sodipodi:namedview
     id="namedview7"
     pagecolor="#ffffff"
     bordercolor="#000000"
     borderopacity="0.25"
     inkscape:showpageshadow="2"
     inkscape:pageopacity="0.0"
     inkscape:pagecheckerboard="0"
     inkscape:deskcolor="#d1d1d1"
     inkscape:zoom="12.109375"
     inkscape:cx="31.95871"
     inkscape:cy="32"
     inkscape:window-width="1920"
     inkscape:window-height="998"
     inkscape:window-x="0"
     inkscape:window-y="0"
     inkscape:window-maximized="1"
     inkscape:current-layer="svg7" />
  <g
     id="g7"
     transform="matrix(0.98214286,0,0,0.98245614,-0.42857152,-0.92982455)">
    <circle
       style="opacity:0.2"
       cx="32"
       cy="33"
       r="28"
       id="circle1" />
    <circle
       style="fill:#2d3d53;fill-opacity:1"
       cx="32"
       cy="32"
       r="28"
       id="circle2" />
    <path
       style="opacity:0.2"
       d="m 20,23.5 -6,6 6,6 6,-6 z m 6,6 6,6 6,-6 -6,-6 z m 12,0 6,6 6,-6 -6,-6 z m -6,6 -6,6 6,6 6,-6 z"
       id="path2" />
    <path
       style="fill:#ffffff"
       d="m 32,22.5 6,6 -6,6 -6,-6 z"
       id="path3" />
    <path
       style="fill:#ffffff"
       d="m 44,22.5 6,6 -6,6 -6,-6 z"
       id="path4" />
    <path
       style="fill:#ffffff"
       d="m 20,22.5 6,6 -6,6 -6,-6 z"
       id="path5" />
    <path
       style="fill:#ffffff"
       d="m 32,34.5 6,6 -6,6 -6,-6 z"
       id="path6" />
    <path
       style="opacity:0.1;fill:#ffffff"
       d="M 32,4 A 28,28 0 0 0 4,32 28,28 0 0 0 4.0332031,32.482422 28,28 0 0 1 32,5 28,28 0 0 1 59.982422,32.242188 28,28 0 0 0 60,32 28,28 0 0 0 32,4 Z"
       id="path7" />
  </g>
</svg>
