<?xml version="1.0" encoding="UTF-8" standalone="no"?>
<svg
   clip-rule="evenodd"
   fill-rule="evenodd"
   stroke-linejoin="round"
   stroke-miterlimit="2"
   viewBox="0 0 62 62"
   version="1.1"
   id="svg4"
   sodipodi:docname="webamp-desktop.svg"
   width="62"
   height="62"
   inkscape:version="1.4 (unknown)"
   xmlns:inkscape="http://www.inkscape.org/namespaces/inkscape"
   xmlns:sodipodi="http://sodipodi.sourceforge.net/DTD/sodipodi-0.dtd"
   xmlns:xlink="http://www.w3.org/1999/xlink"
   xmlns="http://www.w3.org/2000/svg"
   xmlns:svg="http://www.w3.org/2000/svg">
  <defs
     id="defs4">
    <linearGradient
       id="linearGradient4"
       inkscape:collect="always">
      <stop
         style="stop-color:#008080;stop-opacity:1"
         offset="0"
         id="stop4" />
      <stop
         style="stop-color:#00b2b2;stop-opacity:1;"
         offset="1"
         id="stop5" />
    </linearGradient>
    <linearGradient
       inkscape:collect="always"
       xlink:href="#linearGradient4"
       id="linearGradient5"
       x1="23.896704"
       y1="46.428875"
       x2="25.095669"
       y2="1.571"
       gradientUnits="userSpaceOnUse" />
  </defs>
  <sodipodi:namedview
     id="namedview4"
     pagecolor="#ffffff"
     bordercolor="#000000"
     borderopacity="0.25"
     inkscape:showpageshadow="2"
     inkscape:pageopacity="0.0"
     inkscape:pagecheckerboard="0"
     inkscape:deskcolor="#d1d1d1"
     inkscape:zoom="8.0729167"
     inkscape:cx="35.303226"
     inkscape:cy="23.349677"
     inkscape:window-width="1920"
     inkscape:window-height="998"
     inkscape:window-x="0"
     inkscape:window-y="0"
     inkscape:window-maximized="1"
     inkscape:current-layer="svg4" />
  <linearGradient
     id="a"
     x2="1"
     gradientTransform="matrix(0,-44.8576,44.8576,0,24,46.4287)"
     gradientUnits="userSpaceOnUse">
    <stop
       stop-color="#1c686f"
       offset="0"
       id="stop1"
       style="stop-color:#008080;stop-opacity:1" />
    <stop
       stop-color="#347f85"
       offset="1"
       id="stop2" />
  </linearGradient>
  <g
     fill-rule="nonzero"
     id="g4"
     transform="matrix(1.2483872,0,0,1.2483872,1.0386296,1.0387848)">
    <path
       d="m 23.999,1.571 c -1.175,0 -2.35,0.438 -3.229,1.316 L 2.887,20.772 C 1.131,22.529 1.133,25.469 2.89,27.225 L 20.773,45.11 c 1.756,1.757 4.699,1.759 6.456,0.003 L 45.112,27.228 c 1.756,-1.757 1.756,-4.699 0,-6.456 L 27.229,2.887 C 26.35,2.009 25.174,1.571 23.999,1.571 Z"
       id="path2"
       style="fill:url(#linearGradient5)" />
    <path
       d="M 38.921,4.775 C 38.73,4.781 38.545,4.838 38.383,4.94 L 9.546,23.097 C 9.236,23.292 9.048,23.633 9.047,24 v 4.272 c 0,0.643 0.564,1.14 1.202,1.06 l 5.455,-0.682 -7.412,7.411 c -0.2,0.201 -0.313,0.472 -0.313,0.755 v 5.341 c 0.001,0.838 0.923,1.348 1.634,0.905 L 35.246,27.041 c 0.312,-0.195 0.502,-0.537 0.502,-0.905 v -4.272 c 0,-0.405 -0.228,-0.775 -0.59,-0.955 l -2.947,-1.473 7.497,-7.497 c 0.2,-0.201 0.313,-0.472 0.313,-0.755 V 5.843 c 0,-0.602 -0.498,-1.085 -1.1,-1.068 z"
       id="path3"
       style="fill:#fdd14e;fill-opacity:1" />
    <path
       d="m 28.272,17.592 3.939,1.844 7.497,-7.497 c 0.2,-0.201 0.313,-0.472 0.313,-0.755 V 6.911 c 0,0 -9.349,8.286 -11.749,10.681 z m 7.066,3.442 -27.359,15.782 v 5.341 c 0.001,0.838 0.923,1.348 1.634,0.905 L 35.246,27.041 c 0.312,-0.195 0.502,-0.537 0.502,-0.905 v -4.272 c 0,-0.33 -0.158,-0.63 -0.41,-0.83 z M 20.796,22.932 9.047,24 v 4.272 c 0,0.643 0.564,1.14 1.202,1.06 l 5.449,-0.682 z"
       fill="#800000"
       fill-opacity="0.1"
       id="path4" />
  </g>
</svg>
