<?xml version="1.0" encoding="UTF-8" standalone="no"?>
<!-- Created with Inkscape (http://www.inkscape.org/) -->

<svg
   width="62"
   height="62"
   viewBox="0 0 62 62"
   version="1.1"
   id="svg1"
   inkscape:version="1.4 (e7c3feb100, 2024-10-09)"
   sodipodi:docname="spectacle.svg"
   xmlns:inkscape="http://www.inkscape.org/namespaces/inkscape"
   xmlns:sodipodi="http://sodipodi.sourceforge.net/DTD/sodipodi-0.dtd"
   xmlns:xlink="http://www.w3.org/1999/xlink"
   xmlns="http://www.w3.org/2000/svg"
   xmlns:svg="http://www.w3.org/2000/svg">
  <sodipodi:namedview
     id="namedview1"
     pagecolor="#ffffff"
     bordercolor="#000000"
     borderopacity="0.25"
     inkscape:showpageshadow="2"
     inkscape:pageopacity="0.0"
     inkscape:pagecheckerboard="0"
     inkscape:deskcolor="#d1d1d1"
     inkscape:document-units="px"
     inkscape:zoom="10.74725"
     inkscape:cx="29.914629"
     inkscape:cy="31.356859"
     inkscape:window-width="1920"
     inkscape:window-height="994"
     inkscape:window-x="0"
     inkscape:window-y="0"
     inkscape:window-maximized="1"
     inkscape:current-layer="layer1" />
  <defs
     id="defs1">
    <radialGradient
       id="paint664_radial_890_11"
       cx="0"
       cy="0"
       r="1"
       gradientUnits="userSpaceOnUse"
       gradientTransform="matrix(-16.000099,-9.999913,9.999913,-16.000099,583,171)">
      <stop
         offset="0.42141"
         stop-color="#B7C6CD"
         id="stop2071" />
      <stop
         offset="1"
         stop-color="#EFF2F6"
         id="stop2072" />
    </radialGradient>
    <linearGradient
       id="paint665_linear_890_11"
       x1="605"
       y1="180"
       x2="601.466"
       y2="162.72301"
       gradientUnits="userSpaceOnUse">
      <stop
         stop-color="#5200FF"
         id="stop2073" />
      <stop
         offset="1"
         stop-color="#0085FF"
         id="stop2074" />
    </linearGradient>
    <linearGradient
       id="paint666_linear_890_11"
       x1="567"
       y1="181"
       x2="562.11798"
       y2="174.183"
       gradientUnits="userSpaceOnUse">
      <stop
         stop-color="#5200FF"
         id="stop2075" />
      <stop
         offset="0.670391"
         stop-color="#0085FF"
         id="stop2076" />
    </linearGradient>
    <linearGradient
       id="paint667_linear_890_11"
       x1="605"
       y1="180"
       x2="597.32001"
       y2="174.24001"
       gradientUnits="userSpaceOnUse">
      <stop
         stop-color="#5200FF"
         id="stop2077" />
      <stop
         offset="1"
         stop-color="#0085FF"
         id="stop2078" />
    </linearGradient>
    <linearGradient
       id="paint668_linear_890_11"
       x1="567"
       y1="180"
       x2="561.23999"
       y2="172.32001"
       gradientUnits="userSpaceOnUse">
      <stop
         stop-color="#5200FF"
         id="stop2079" />
      <stop
         offset="1"
         stop-color="#0085FF"
         id="stop2080" />
    </linearGradient>
    <linearGradient
       id="paint669_linear_890_11"
       x1="607"
       y1="179"
       x2="602.50598"
       y2="171.80901"
       gradientUnits="userSpaceOnUse">
      <stop
         stop-color="#5200FF"
         id="stop2081" />
      <stop
         offset="1"
         stop-color="#0085FF"
         id="stop2082" />
    </linearGradient>
    <linearGradient
       id="paint670_linear_890_11"
       x1="607"
       y1="217"
       x2="568.82599"
       y2="170.01601"
       gradientUnits="userSpaceOnUse">
      <stop
         stop-color="#5200FF"
         id="stop2083" />
      <stop
         offset="1"
         stop-color="#0085FF"
         id="stop2084" />
    </linearGradient>
    <radialGradient
       id="paint671_radial_890_11"
       cx="0"
       cy="0"
       r="1"
       gradientUnits="userSpaceOnUse"
       gradientTransform="matrix(0,20,-16,0,583,187)">
      <stop
         offset="0.869716"
         stop-color="#EFF2F6"
         id="stop2085" />
      <stop
         offset="1"
         stop-color="#B7C6CD"
         id="stop2086" />
    </radialGradient>
    <linearGradient
       id="paint65_linear_890_11"
       x1="83"
       y1="975"
       x2="83"
       y2="1017"
       gradientUnits="userSpaceOnUse"
       gradientTransform="matrix(1.3181819,0,0,1.3333333,-78.409088,-1297)">
      <stop
         stop-color="#EFF2F6"
         id="stop872"
         offset="0"
         style="stop-color:#dae2ec;stop-opacity:1;" />
      <stop
         offset="1"
         stop-color="#B7C6CD"
         id="stop873"
         style="stop-color:#92a8b3;stop-opacity:1;" />
    </linearGradient>
    <linearGradient
       id="paint154_linear_890_11"
       x1="778"
       y1="812.29199"
       x2="788"
       y2="812.29199"
       gradientUnits="userSpaceOnUse">
      <stop
         stop-color="#EFF2F6"
         id="stop1050" />
      <stop
         offset="0.600785"
         stop-color="#B7C6CD"
         id="stop1051" />
    </linearGradient>
    <linearGradient
       id="paint155_linear_890_11"
       x1="783"
       y1="813"
       x2="783"
       y2="817"
       gradientUnits="userSpaceOnUse">
      <stop
         stop-color="#EFF2F6"
         id="stop1052" />
      <stop
         offset="0.734138"
         stop-color="#B7C6CD"
         id="stop1053" />
    </linearGradient>
    <radialGradient
       id="paint156_radial_890_11"
       cx="0"
       cy="0"
       r="1"
       gradientUnits="userSpaceOnUse"
       gradientTransform="matrix(23.999982,23.999982,-23.999982,23.999982,783,785)">
      <stop
         offset="0.600678"
         stop-color="#B7C6CD"
         id="stop1054" />
      <stop
         offset="0.876735"
         stop-color="#EFF2F6"
         id="stop1055" />
    </radialGradient>
    <linearGradient
       id="paint157_linear_890_11"
       x1="803"
       y1="805"
       x2="763"
       y2="765"
       gradientUnits="userSpaceOnUse">
      <stop
         offset="0.314714"
         stop-color="#2E2E41"
         id="stop1056" />
      <stop
         offset="0.711139"
         stop-color="#566C80"
         id="stop1057" />
    </linearGradient>
    <linearGradient
       id="paint158_linear_890_11"
       x1="792"
       y1="794"
       x2="774"
       y2="776"
       gradientUnits="userSpaceOnUse"
       xlink:href="#paint160_linear_890_11">
      <stop
         offset="0.304478"
         stop-color="#2E2E41"
         id="stop1058"
         style="stop-color:#ffcc00;stop-opacity:1" />
      <stop
         offset="1"
         stop-color="#566C80"
         id="stop1059"
         style="stop-color:#ffb380;stop-opacity:1" />
    </linearGradient>
    <linearGradient
       id="paint159_linear_890_11"
       x1="788"
       y1="790"
       x2="778"
       y2="780"
       gradientUnits="userSpaceOnUse">
      <stop
         offset="0.39139399"
         stop-color="#5200FF"
         id="stop1060"
         style="stop-color:#854cff;stop-opacity:1;" />
      <stop
         offset="1"
         stop-color="#0085FF"
         id="stop1061"
         style="stop-color:#40a4ff;stop-opacity:1;" />
    </linearGradient>
    <linearGradient
       id="paint160_linear_890_11"
       x1="784"
       y1="798"
       x2="782"
       y2="796"
       gradientUnits="userSpaceOnUse">
      <stop
         stop-color="#FF7E07"
         id="stop1062" />
      <stop
         offset="1"
         stop-color="#FFE607"
         id="stop1063" />
    </linearGradient>
  </defs>
  <g
     inkscape:label="Layer 1"
     inkscape:groupmode="layer"
     id="layer1">
    <g
       id="g2272"
       transform="translate(-752,-758)">
      <path
         d="m 778,805 h 10 v 10 h -10 z"
         id="path152"
         style="fill:url(#paint154_linear_890_11)" />
      <path
         d="m 768,815 c 0,-1.105 0.895,-2 2,-2 h 26 c 1.105,0 2,0.895 2,2 0,1.105 -0.895,2 -2,2 h -26 c -1.105,0 -2,-0.895 -2,-2 z"
         id="path153"
         style="fill:url(#paint155_linear_890_11)" />
      <path
         d="m 807,785 c 0,13.255 -10.745,24 -24,24 -13.255,0 -24,-10.745 -24,-24 0,-13.255 10.745,-24 24,-24 13.255,0 24,10.745 24,24 z"
         id="path154"
         style="fill:url(#paint156_radial_890_11)" />
      <path
         d="m 803,785 c 0,11.046 -8.954,20 -20,20 -11.046,0 -20,-8.954 -20,-20 0,-11.046 8.954,-20 20,-20 11.046,0 20,8.954 20,20 z"
         id="path155"
         style="fill:url(#paint157_linear_890_11)" />
      <path
         d="m 792,785 c 0,4.971 -4.029,9 -9,9 -4.971,0 -9,-4.029 -9,-9 0,-4.971 4.029,-9 9,-9 4.971,0 9,4.029 9,9 z"
         id="path156"
         style="fill:url(#paint158_linear_890_11)" />
      <path
         d="m 788,785 c 0,2.761 -2.239,5 -5,5 -2.761,0 -5,-2.239 -5,-5 0,-2.761 2.239,-5 5,-5 2.761,0 5,2.239 5,5 z"
         id="path157"
         style="fill:url(#paint159_linear_890_11)" />
      <path
         d="m 784,797 c 0,0.552 -0.448,1 -1,1 -0.552,0 -1,-0.448 -1,-1 0,-0.552 0.448,-1 1,-1 0.552,0 1,0.448 1,1 z"
         id="path158"
         style="fill:url(#paint160_linear_890_11)" />
    </g>
  </g>
</svg>
