<?xml version="1.0" encoding="UTF-8" standalone="no"?>
<svg
   width="62"
   height="62"
   version="1.1"
   id="svg30"
   sodipodi:docname="discord.svg"
   inkscape:version="1.4 (e7c3feb100, 2024-10-09)"
   xmlns:inkscape="http://www.inkscape.org/namespaces/inkscape"
   xmlns:sodipodi="http://sodipodi.sourceforge.net/DTD/sodipodi-0.dtd"
   xmlns:xlink="http://www.w3.org/1999/xlink"
   xmlns="http://www.w3.org/2000/svg"
   xmlns:svg="http://www.w3.org/2000/svg">
  <sodipodi:namedview
     id="namedview32"
     pagecolor="#ffffff"
     bordercolor="#666666"
     borderopacity="1.0"
     inkscape:showpageshadow="2"
     inkscape:pageopacity="0.0"
     inkscape:pagecheckerboard="0"
     inkscape:deskcolor="#d1d1d1"
     showgrid="false"
     inkscape:zoom="9.8333334"
     inkscape:cx="32.491525"
     inkscape:cy="34.169491"
     inkscape:window-width="1920"
     inkscape:window-height="994"
     inkscape:window-x="0"
     inkscape:window-y="0"
     inkscape:window-maximized="1"
     inkscape:current-layer="svg30" />
  <defs
     id="defs20">
    <linearGradient
       id="linearGradient4179">
      <stop
         style="stop-color:#000000;stop-opacity:1;"
         offset="0"
         id="stop2" />
      <stop
         style="stop-color:#000000;stop-opacity:0;"
         offset="1"
         id="stop4" />
    </linearGradient>
    <linearGradient
       id="linearGradient4165">
      <stop
         style="stop-color:#ffffff;stop-opacity:1;"
         offset="0"
         id="stop7" />
      <stop
         style="stop-color:#7cafec;stop-opacity:1"
         offset="1"
         id="stop9" />
    </linearGradient>
    <linearGradient
       gradientTransform="matrix(1.0499996,0,0,1.049334,-338.35571,-505.78784)"
       xlink:href="#1"
       id="0"
       x1="417.634"
       y1="540.79901"
       x2="399.646"
       y2="500.89301"
       gradientUnits="userSpaceOnUse" />
    <linearGradient
       id="1">
      <stop
         stop-color="#105be2"
         style="stop-color:#2579b0;stop-opacity:1"
         id="stop13" />
      <stop
         offset="1"
         stop-color="#26dbfc"
         style="stop-color:#7cbfec;stop-opacity:1"
         id="stop15" />
    </linearGradient>
    <linearGradient
       xlink:href="#linearGradient4165"
       id="linearGradient4171"
       x1="19"
       y1="12"
       x2="29"
       y2="36"
       gradientUnits="userSpaceOnUse"
       gradientTransform="matrix(1.0499996,0,0,1.049334,65.444068,18.667082)" />
    <linearGradient
       xlink:href="#linearGradient4179"
       id="linearGradient4185"
       x1="20"
       y1="16"
       x2="36"
       y2="32"
       gradientUnits="userSpaceOnUse"
       gradientTransform="matrix(1.0499996,0,0,1.049334,65.444068,18.667082)" />
    <linearGradient
       id="b-7"
       x1="32"
       x2="32"
       y1="2"
       y2="62"
       gradientTransform="matrix(0.66666652,0,0,0.66666652,6.665018,-49.333275)"
       gradientUnits="userSpaceOnUse">
      <stop
         stop-color="#58baff"
         offset="0"
         id="stop221"
         style="stop-color:#002743;stop-opacity:1;" />
      <stop
         stop-color="#50b7ff"
         offset="0.22539"
         id="stop223"
         style="stop-color:#0069b2;stop-opacity:1;" />
      <stop
         stop-color="#4592e5"
         offset=".22539"
         id="stop225" />
      <stop
         stop-color="#3b8de4"
         offset=".46111"
         id="stop227" />
      <stop
         stop-color="#376dc4"
         offset=".46111"
         id="stop229" />
      <stop
         stop-color="#3366b7"
         offset=".75362"
         id="stop231" />
      <stop
         stop-color="#294a96"
         offset=".75362"
         id="stop233" />
      <stop
         stop-color="#27468e"
         offset="1"
         id="stop235" />
    </linearGradient>
    <linearGradient
       id="linearGradient1468"
       inkscape:collect="always">
      <stop
         id="stop1464"
         offset="0"
         style="stop-color:#afbceb;stop-opacity:1" />
      <stop
         style="stop-color:#cdd5e3;stop-opacity:1"
         offset="0.47191679"
         id="stop1474" />
      <stop
         style="stop-color:#f6f7fe;stop-opacity:1"
         offset="0.85509378"
         id="stop1472" />
      <stop
         id="stop1466"
         offset="1"
         style="stop-color:#c5cef4;stop-opacity:1" />
    </linearGradient>
    <linearGradient
       id="linearGradient1482"
       inkscape:collect="always">
      <stop
         id="stop1478"
         offset="0"
         style="stop-color:#728cdb;stop-opacity:1;" />
      <stop
         id="stop1480"
         offset="1"
         style="stop-color:#728cdb;stop-opacity:0;" />
    </linearGradient>
    <radialGradient
       gradientUnits="userSpaceOnUse"
       gradientTransform="matrix(1.9252296,0,0,1.9926297,1.3733845,1.0810225)"
       r="2.7728343"
       fy="16.885899"
       fx="20.297014"
       cy="16.885899"
       cx="20.297014"
       id="radialGradient1484-6-1"
       xlink:href="#linearGradient1482"
       inkscape:collect="always" />
    <radialGradient
       r="2.7728343"
       fy="16.885899"
       fx="20.297014"
       cy="16.885899"
       cx="20.297014"
       gradientTransform="matrix(1.9252296,0,0,2.0154862,-11.630584,0.69507065)"
       gradientUnits="userSpaceOnUse"
       id="radialGradient1488-1-9"
       xlink:href="#linearGradient1482"
       inkscape:collect="always" />
    <linearGradient
       inkscape:collect="always"
       xlink:href="#1"
       id="linearGradient2214"
       gradientUnits="userSpaceOnUse"
       gradientTransform="matrix(1.9252296,0,0,1.9252296,1.3697019,2.4736063)"
       x1="17.821186"
       y1="29.110353"
       x2="17.821186"
       y2="4.0044317" />
    <linearGradient
       inkscape:collect="always"
       xlink:href="#linearGradient1468"
       id="linearGradient2216"
       gradientUnits="userSpaceOnUse"
       gradientTransform="matrix(2.1462878,0,0,2.1462878,-5.5942366,-1.8689226)"
       x1="18.101976"
       y1="27.187649"
       x2="18.101976"
       y2="8.15242" />
  </defs>
  <g
     id="g1"
     transform="translate(-2.9830508,-4.3224545)">
    <rect
       ry="27.999998"
       rx="27.999998"
       y="7.3224545"
       x="5.9830508"
       height="56"
       width="56"
       id="rect849-2-2"
       style="fill:url(#linearGradient2214);fill-opacity:1;stroke-width:5.17503;stroke-linecap:round;stroke-linejoin:round;stroke-miterlimit:4;stroke-dasharray:none" />
    <path
       id="path34-3-2-7-0"
       d="m 42.045682,47.957742 c 2.67788,-0.840707 4.988706,-2.144361 6.784453,-4.465976 -9.829507,5.680429 -19.553085,5.506509 -29.364039,0.03935 0.80046,1.14211 1.764358,2.009806 2.889474,2.661094 1.121704,0.649428 2.312301,1.180002 3.512893,1.783095 -0.517708,0.64648 -1.132091,1.322413 -1.638127,2.071347 -0.481689,0.7136 -1.027865,0.963573 -1.908222,0.861213 -3.317204,-0.385493 -6.29933,-1.48944 -8.77209,-3.79848 -0.07168,-0.06707 -0.13906,-0.138787 -0.211792,-0.20436 -1.009516,-0.909201 -1.430957,-1.924023 -1.344098,-3.391972 0.410738,-6.948749 2.144464,-13.523371 5.179792,-19.768128 0.148785,-0.306113 0.402886,-0.600744 0.680928,-0.798015 2.424672,-1.721069 5.083802,-2.909894 8.024912,-3.423782 0.561473,-0.09815 1.131117,-0.171654 1.69967,-0.196876 0.231118,-0.01027 0.469423,0.138482 0.699278,0.304837 -3.495228,1.168412 -6.816746,2.576108 -9.737928,4.928243 10.037944,-4.781612 20.017309,-5.018242 30.024749,-0.121187 -2.675133,-2.16184 -5.767693,-3.501512 -9.003027,-4.560203 0.241534,-0.496906 0.578667,-0.5925 1.095294,-0.54441 3.501226,0.32535 6.627826,1.612322 9.481773,3.61428 0.26784,0.187845 0.517907,0.463932 0.66208,0.755421 2.214453,4.483161 3.707053,9.200287 4.55316,14.127452 0.392973,2.290111 0.595307,4.59612 0.635467,6.915475 0.0053,0.326037 -0.132934,0.714593 -0.333694,0.975168 -1.864746,2.419457 -4.35036,3.913817 -7.277026,4.661284 -1.130547,0.288653 -2.309454,0.391413 -3.470307,0.551093 -0.179787,0.02467 -0.451853,-0.03947 -0.559627,-0.166173 -0.773173,-0.906174 -1.514573,-1.838934 -2.303946,-2.809787 z M 26.541063,41.76167 c 1.283148,-0.0032 2.043963,-0.274904 2.711637,-0.829521 1.091382,-0.907252 1.498582,-2.102458 1.582595,-3.489927 0.09387,-1.551573 -0.508587,-2.705653 -1.797636,-3.492975 -1.32996,-0.812148 -2.71968,-0.879278 -4.065732,-0.03453 -2.160561,1.355871 -2.566392,4.581007 -0.847288,6.524569 0.752268,0.850328 1.686712,1.313372 2.416424,1.3224 z m 14.162459,0.05985 c 0.441106,-0.101213 0.902853,-0.149301 1.319986,-0.3123 2.574347,-1.004413 3.39404,-4.460972 1.613987,-6.739312 -1.387107,-1.775236 -3.97164,-1.935218 -5.552053,-0.327309 -1.045334,1.063396 -1.371387,2.364405 -1.19324,3.820284 0.236026,1.929629 1.925013,3.490324 3.81132,3.558637 z"
       inkscape:connector-curvature="0"
       style="fill:url(#linearGradient2216);fill-opacity:1;stroke-width:0.0981449" />
    <ellipse
       ry="8.637619"
       rx="5.3383427"
       cy="34.892517"
       cx="40.733948"
       id="path1476-0-2"
       style="opacity:0.424028;fill:url(#radialGradient1484-6-1);fill-opacity:1;stroke:none;stroke-width:0.764076;stroke-linejoin:round;stroke-dashoffset:1;stroke-opacity:0.162864" />
    <ellipse
       style="opacity:0.424028;fill:url(#radialGradient1488-1-9);fill-opacity:1;stroke:none;stroke-width:0.764076;stroke-linejoin:round;stroke-dashoffset:1;stroke-opacity:0.162864"
       id="ellipse1486-9-3"
       cx="27.72999"
       cy="34.892517"
       rx="5.3383427"
       ry="8.637619" />
  </g>
</svg>
