<?xml version="1.0" encoding="UTF-8" standalone="no"?>
<svg
   clip-rule="evenodd"
   fill-rule="evenodd"
   stroke-linejoin="bevel"
   viewBox="0 0 48 48"
   version="1.1"
   id="svg8"
   sodipodi:docname="webplotdigitizer.svg"
   inkscape:version="1.4 (unknown)"
   xmlns:inkscape="http://www.inkscape.org/namespaces/inkscape"
   xmlns:sodipodi="http://sodipodi.sourceforge.net/DTD/sodipodi-0.dtd"
   xmlns:xlink="http://www.w3.org/1999/xlink"
   xmlns="http://www.w3.org/2000/svg"
   xmlns:svg="http://www.w3.org/2000/svg">
  <defs
     id="defs8">
    <linearGradient
       id="linearGradient8"
       inkscape:collect="always">
      <stop
         style="stop-color:#2ca05a;stop-opacity:1;"
         offset="0"
         id="stop8" />
      <stop
         style="stop-color:#1a6036;stop-opacity:1;"
         offset="1"
         id="stop9" />
    </linearGradient>
    <linearGradient
       inkscape:collect="always"
       xlink:href="#linearGradient8"
       id="linearGradient9"
       x1="22.151356"
       y1="45.667999"
       x2="22.566063"
       y2="7.9660001"
       gradientUnits="userSpaceOnUse" />
  </defs>
  <sodipodi:namedview
     id="namedview8"
     pagecolor="#ffffff"
     bordercolor="#000000"
     borderopacity="0.25"
     inkscape:showpageshadow="2"
     inkscape:pageopacity="0.0"
     inkscape:pagecheckerboard="0"
     inkscape:deskcolor="#d1d1d1"
     inkscape:zoom="16.145833"
     inkscape:cx="24"
     inkscape:cy="24"
     inkscape:window-width="1920"
     inkscape:window-height="998"
     inkscape:window-x="0"
     inkscape:window-y="0"
     inkscape:window-maximized="1"
     inkscape:current-layer="svg8" />
  <linearGradient
     id="a"
     x2="1"
     gradientTransform="matrix(0 -43.336 43.336 0 -149.344 45.668)"
     gradientUnits="userSpaceOnUse">
    <stop
       stop-color="#207e35"
       offset="0"
       id="stop1" />
    <stop
       stop-color="#1d6434"
       offset="1"
       id="stop2" />
  </linearGradient>
  <linearGradient
     id="b"
     x2="1"
     gradientTransform="matrix(16.8289 35.001 -35.001 16.8289 -361.973 214.829)"
     gradientUnits="userSpaceOnUse">
    <stop
       stop-color="#02b200"
       offset="0"
       id="stop3" />
    <stop
       stop-color="#2e9f52"
       offset="1"
       id="stop4" />
  </linearGradient>
  <path
     d="m45.668 8.56c0-3.438-2.79-6.228-6.228-6.228h-30.88c-3.438 0-6.228 2.79-6.228 6.228v30.88c0 3.438 2.79 6.228 6.228 6.228h30.88c3.438 0 6.228-2.79 6.228-6.228z"
     fill="url(#a)"
     id="path4" />
  <g
     fill-rule="nonzero"
     id="g7">
    <path
       d="m13.94 11.618h9.286v-9.286h2.322v9.286h8.512v-9.286h2.322v9.286h9.286v2.322h-9.286v8.512h9.286v2.322h-9.286v20.894h-2.322v-20.894h-8.512v20.894h-2.322v-20.894h-9.286v20.894h-2.322v-20.894h-9.286v-2.322h9.286v-8.512h-9.286v-2.322h9.286v-9.286h2.322zm9.286 10.834v-8.512h-9.286v8.512zm10.834 0v-8.512h-8.512v8.512z"
       fill="#fff"
       fill-opacity=".4"
       id="path5" />
    <path
       d="m36.459 7.966c1.585 0 4.353 1.623 6.494 3.445 1.126.958 2.049 1.873 2.715 2.568v25.461c0 3.438-2.79 6.228-6.228 6.228h-30.88c-3.438 0-6.228-2.79-6.228-6.228v-9.368c.163.175.303.342.474.518 2.031 2.09 4.526 4.461 7.651 4.461 3.381 0 6.174-2.083 8.538-4.789 2.365-2.706 4.433-6.158 6.434-9.554 2-3.395 3.934-6.736 5.84-9.121 1.905-2.386 3.659-3.621 5.19-3.621z"
       fill="url(#b)"
       id="path6"
       style="fill:url(#linearGradient9)" />
    <path
       d="m36.382 6.975c-3.19 0-5.725 2.064-7.815 4.696-2.089 2.632-3.892 5.973-5.725 9.251-1.832 3.279-3.693 6.493-5.692 8.784-1.998 2.29-3.989 3.58-6.306 3.58-2.045 0-4.297-1.447-5.997-3.057-1.405-1.331-2.218-2.448-2.515-2.869v4.732c.128.128.252.255.387.383 1.976 1.871 4.754 3.907 8.125 3.907 3.487 0 6.334-1.999 8.64-4.642s4.217-6.007 6.061-9.306c1.843-3.298 3.619-6.536 5.447-8.837s3.549-3.526 5.39-3.526c2.045 0 4.777 1.505 6.882 3.152.972.763 1.786 1.508 2.404 2.106v-4.125c-.173-.141-.316-.275-.498-.417-2.344-1.835-5.417-3.812-8.788-3.812z"
       fill="#e4e4e4"
       id="path7" />
  </g>
  <circle
     cx="10.844"
     cy="34.834"
     r="3.869"
     fill="#fff"
     id="circle7" />
  <circle
     cx="36.382"
     cy="8.523"
     r="3.869"
     fill="#fff"
     id="circle8" />
  <path
     d="m41.025 23.226h-10.524l6.19 8.126-6.19 8.125h10.524"
     fill="none"
     stroke="#fff"
     stroke-width="3.1"
     id="path8" />
</svg>
