<?xml version="1.0" encoding="UTF-8" standalone="no"?>
<svg
   width="62"
   height="62"
   viewBox="0 0 62 62"
   version="1.1"
   id="svg30"
   sodipodi:docname="webstorm.svg"
   inkscape:version="1.4 (e7c3feb100, 2024-10-09)"
   xmlns:inkscape="http://www.inkscape.org/namespaces/inkscape"
   xmlns:sodipodi="http://sodipodi.sourceforge.net/DTD/sodipodi-0.dtd"
   xmlns:xlink="http://www.w3.org/1999/xlink"
   xmlns="http://www.w3.org/2000/svg"
   xmlns:svg="http://www.w3.org/2000/svg">
  <sodipodi:namedview
     id="namedview32"
     pagecolor="#ffffff"
     bordercolor="#666666"
     borderopacity="1.0"
     inkscape:showpageshadow="2"
     inkscape:pageopacity="0.0"
     inkscape:pagecheckerboard="0"
     inkscape:deskcolor="#d1d1d1"
     showgrid="false"
     inkscape:zoom="6.9532167"
     inkscape:cx="46.237592"
     inkscape:cy="39.837677"
     inkscape:window-width="1920"
     inkscape:window-height="994"
     inkscape:window-x="0"
     inkscape:window-y="0"
     inkscape:window-maximized="1"
     inkscape:current-layer="svg30" />
  <defs
     id="defs18">
    <linearGradient
       id="linearGradient1"
       inkscape:collect="always">
      <stop
         style="stop-color:#00d4aa;stop-opacity:1"
         offset="0"
         id="stop1" />
      <stop
         style="stop-color:#5599ff;stop-opacity:1"
         offset="1"
         id="stop3" />
    </linearGradient>
    <linearGradient
       id="linearGradient4146">
      <stop
         style="stop-color:#e4f2f6;stop-opacity:1;"
         offset="0"
         id="stop2" />
      <stop
         style="stop-color:#b1caee;stop-opacity:1"
         offset="1"
         id="stop4" />
    </linearGradient>
    <linearGradient
       id="a"
       y1="543.79999"
       y2="503.79999"
       x2="0"
       gradientUnits="userSpaceOnUse"
       gradientTransform="translate(-384.5705,504.5622)">
      <stop
         stop-color="#2f74c8"
         id="stop7" />
      <stop
         offset="1"
         stop-color="#4699d7"
         id="stop9" />
    </linearGradient>
    <linearGradient
       id="b"
       y1="15.968"
       x1="18.437"
       y2="33.629002"
       x2="36.098"
       gradientUnits="userSpaceOnUse"
       gradientTransform="translate(-5.0357628e-4,1004.3622)">
      <stop
         stop-color="#292c2f"
         style="stop-color:#000000;stop-opacity:1"
         id="stop12" />
      <stop
         offset="1"
         stop-opacity="0"
         id="stop14" />
    </linearGradient>
    <linearGradient
       xlink:href="#linearGradient4146"
       id="linearGradient4152"
       x1="21.051001"
       y1="1016.939"
       x2="28.563999"
       y2="1040.1071"
       gradientUnits="userSpaceOnUse" />
    <linearGradient
       xlink:href="#linearGradient4298"
       id="linearGradient4304-3"
       x1="26.929001"
       y1="5.9949999"
       x2="47.120998"
       y2="37.126999"
       gradientUnits="userSpaceOnUse"
       gradientTransform="matrix(0.9,0,0,0.9,6.4000038,6.4000032)" />
    <linearGradient
       id="linearGradient4298">
      <stop
         style="stop-color:#000000;stop-opacity:1;"
         offset="0"
         id="stop4300" />
      <stop
         style="stop-color:#000000;stop-opacity:0;"
         offset="1"
         id="stop4302" />
    </linearGradient>
    <linearGradient
       id="a-3"
       y1="543.79999"
       y2="503.79999"
       x2="0"
       gradientUnits="userSpaceOnUse"
       gradientTransform="matrix(1.0499931,0,0,1.0499931,-400.99647,-521.98467)">
      <stop
         stop-color="#2f74c8"
         id="stop7-6" />
      <stop
         offset="1"
         stop-color="#4699d7"
         id="stop9-7" />
    </linearGradient>
    <linearGradient
       xlink:href="#linearGradient4146"
       id="linearGradient4152-5"
       x1="21.051001"
       y1="1016.939"
       x2="28.563999"
       y2="1040.1071"
       gradientUnits="userSpaceOnUse"
       gradientTransform="matrix(1.0499931,0,0,1.0499931,2.7999052,-1051.7715)" />
    <linearGradient
       inkscape:collect="always"
       xlink:href="#linearGradient1"
       id="linearGradient3"
       x1="15.388495"
       y1="11.184228"
       x2="42.423779"
       y2="43.288078"
       gradientUnits="userSpaceOnUse"
       gradientTransform="matrix(1.3571518,0,0,1.3333421,75.601675,5.8023568)" />
  </defs>
  <g
     id="g1"
     transform="translate(-82.60157,-12.13512)">
    <rect
       style="fill:url(#linearGradient3);fill-opacity:1;stroke-width:1.41244"
       height="56"
       rx="28.5"
       y="15.13512"
       x="85.10157"
       width="57"
       id="rect20-1"
       ry="28" />
    <rect
       width="40.714558"
       height="40.000263"
       x="93.244652"
       y="23.134989"
       fill="#303030"
       rx="6.7863193"
       ry="6.6672606"
       style="stroke-width:5.0843;paint-order:markers stroke fill;fill:#373e48;fill-opacity:1"
       id="rect1" />
    <path
       d="m 119.97557,39.640075 c 1.53377,1.224658 2.86238,1.930208 4.78093,1.930208 1.53377,0 3.18042,-0.70555 3.18042,-1.738699 v -0.100747 c 0,-0.937394 -1.07724,-1.62279 -3.94987,-2.373714 -3.45236,-0.851719 -5.67859,-2.786972 -5.67859,-4.969162 v -0.09575 c 0,-3.109505 2.99571,-4.812934 6.44804,-4.812934 2.49299,0 4.01145,0.816434 5.82732,1.894935 l -1.77485,2.373711 c -1.53892,-1.033143 -2.61616,-1.133937 -4.05247,-1.133937 -1.43633,0 -3.19072,0.69044 -3.19072,1.537111 V 32.4434 c 0,1.128896 1.10808,1.658062 3.9858,2.408988 3.4523,0.94243 5.50932,2.020928 5.50932,4.601269 v 0.09575 c 0,2.912955 -2.66745,5.150595 -6.30956,5.150595 -2.58535,-0.09575 -4.8424,-1.058343 -6.85839,-2.842402 m -2.69825,-14.378326 -3.18551,10.961391 -3.18557,-10.961391 h -3.18556 l -3.19071,10.961385 -3.180414,-10.961395 h -3.190684 l 4.780888,17.220726 h 3.18042 l 3.19071,-10.956354 3.18556,10.956356 h 3.18558 L 118.38022,27.47925 M 96.076252,55.65631 h 15.932938 v 3.129662 H 96.076252 Z"
       id="path2"
       style="fill:#aaeeff;stroke-width:5.0843" />
  </g>
</svg>
