<?xml version="1.0" encoding="UTF-8" standalone="no"?>
<!-- Created with Inkscape (http://www.inkscape.org/) -->

<svg
   width="62"
   height="62"
   viewBox="0 0 62 62"
   version="1.1"
   id="svg1"
   inkscape:version="1.4 (unknown)"
   sodipodi:docname="welcome-screen.svg"
   xmlns:inkscape="http://www.inkscape.org/namespaces/inkscape"
   xmlns:sodipodi="http://sodipodi.sourceforge.net/DTD/sodipodi-0.dtd"
   xmlns:xlink="http://www.w3.org/1999/xlink"
   xmlns="http://www.w3.org/2000/svg"
   xmlns:svg="http://www.w3.org/2000/svg">
  <sodipodi:namedview
     id="namedview1"
     pagecolor="#ffffff"
     bordercolor="#000000"
     borderopacity="0.25"
     inkscape:showpageshadow="2"
     inkscape:pageopacity="0.0"
     inkscape:pagecheckerboard="0"
     inkscape:deskcolor="#d1d1d1"
     inkscape:document-units="px"
     inkscape:zoom="10.74725"
     inkscape:cx="26.146223"
     inkscape:cy="16.422806"
     inkscape:window-width="1920"
     inkscape:window-height="998"
     inkscape:window-x="0"
     inkscape:window-y="0"
     inkscape:window-maximized="1"
     inkscape:current-layer="layer1" />
  <defs
     id="defs1">
    <linearGradient
       id="linearGradient25"
       inkscape:collect="always">
      <stop
         style="stop-color:#566c80;stop-opacity:1;"
         offset="0"
         id="stop25" />
      <stop
         style="stop-color:#29343d;stop-opacity:1;"
         offset="1"
         id="stop26" />
    </linearGradient>
    <linearGradient
       id="linearGradient5"
       inkscape:collect="always">
      <stop
         style="stop-color:#c8beb7;stop-opacity:1"
         offset="0"
         id="stop17" />
      <stop
         style="stop-color:#71706e;stop-opacity:1;"
         offset="1"
         id="stop18" />
    </linearGradient>
    <radialGradient
       id="paint664_radial_890_11"
       cx="0"
       cy="0"
       r="1"
       gradientUnits="userSpaceOnUse"
       gradientTransform="matrix(-16.000099,-9.999913,9.999913,-16.000099,583,171)">
      <stop
         offset="0.42141"
         stop-color="#B7C6CD"
         id="stop2071" />
      <stop
         offset="1"
         stop-color="#EFF2F6"
         id="stop2072" />
    </radialGradient>
    <linearGradient
       id="paint665_linear_890_11"
       x1="605"
       y1="180"
       x2="601.466"
       y2="162.72301"
       gradientUnits="userSpaceOnUse">
      <stop
         stop-color="#5200FF"
         id="stop2073" />
      <stop
         offset="1"
         stop-color="#0085FF"
         id="stop2074" />
    </linearGradient>
    <linearGradient
       id="paint666_linear_890_11"
       x1="567"
       y1="181"
       x2="562.11798"
       y2="174.183"
       gradientUnits="userSpaceOnUse">
      <stop
         stop-color="#5200FF"
         id="stop2075" />
      <stop
         offset="0.670391"
         stop-color="#0085FF"
         id="stop2076" />
    </linearGradient>
    <linearGradient
       id="paint667_linear_890_11"
       x1="605"
       y1="180"
       x2="597.32001"
       y2="174.24001"
       gradientUnits="userSpaceOnUse">
      <stop
         stop-color="#5200FF"
         id="stop2077" />
      <stop
         offset="1"
         stop-color="#0085FF"
         id="stop2078" />
    </linearGradient>
    <linearGradient
       id="paint668_linear_890_11"
       x1="567"
       y1="180"
       x2="561.23999"
       y2="172.32001"
       gradientUnits="userSpaceOnUse">
      <stop
         stop-color="#5200FF"
         id="stop2079" />
      <stop
         offset="1"
         stop-color="#0085FF"
         id="stop2080" />
    </linearGradient>
    <linearGradient
       id="paint669_linear_890_11"
       x1="607"
       y1="179"
       x2="602.50598"
       y2="171.80901"
       gradientUnits="userSpaceOnUse">
      <stop
         stop-color="#5200FF"
         id="stop2081" />
      <stop
         offset="1"
         stop-color="#0085FF"
         id="stop2082" />
    </linearGradient>
    <linearGradient
       id="paint670_linear_890_11"
       x1="607"
       y1="217"
       x2="568.82599"
       y2="170.01601"
       gradientUnits="userSpaceOnUse">
      <stop
         stop-color="#5200FF"
         id="stop2083" />
      <stop
         offset="1"
         stop-color="#0085FF"
         id="stop2084" />
    </linearGradient>
    <radialGradient
       id="paint671_radial_890_11"
       cx="0"
       cy="0"
       r="1"
       gradientUnits="userSpaceOnUse"
       gradientTransform="matrix(0,20,-16,0,583,187)">
      <stop
         offset="0.869716"
         stop-color="#EFF2F6"
         id="stop2085" />
      <stop
         offset="1"
         stop-color="#B7C6CD"
         id="stop2086" />
    </radialGradient>
    <linearGradient
       id="paint431_linear_890_11"
       x1="213"
       y1="517"
       x2="157"
       y2="461"
       gradientUnits="userSpaceOnUse"
       gradientTransform="matrix(0.85714286,0,0,0.85714286,-127.57143,-388.14286)">
      <stop
         offset="0.405339"
         stop-color="#5200FF"
         id="stop1604" />
      <stop
         offset="1"
         stop-color="#0085FF"
         id="stop1605" />
    </linearGradient>
    <linearGradient
       id="paint432_linear_890_11"
       x1="175"
       y1="489"
       x2="177"
       y2="489"
       gradientUnits="userSpaceOnUse">
      <stop
         stop-color="#EFF2F6"
         id="stop1606" />
      <stop
         offset="1"
         stop-color="#B7C6CD"
         id="stop1607" />
    </linearGradient>
    <linearGradient
       id="paint434_linear_890_11"
       x1="181"
       y1="489"
       x2="183"
       y2="489"
       gradientUnits="userSpaceOnUse">
      <stop
         stop-color="#EFF2F6"
         id="stop1610" />
      <stop
         offset="1"
         stop-color="#B7C6CD"
         id="stop1611" />
    </linearGradient>
    <linearGradient
       id="paint436_linear_890_11"
       x1="187"
       y1="489"
       x2="189"
       y2="489"
       gradientUnits="userSpaceOnUse">
      <stop
         stop-color="#EFF2F6"
         id="stop1614" />
      <stop
         offset="1"
         stop-color="#B7C6CD"
         id="stop1615" />
    </linearGradient>
    <linearGradient
       id="paint438_linear_890_11"
       x1="193"
       y1="489"
       x2="195"
       y2="489"
       gradientUnits="userSpaceOnUse">
      <stop
         stop-color="#EFF2F6"
         id="stop1618" />
      <stop
         offset="1"
         stop-color="#B7C6CD"
         id="stop1619" />
    </linearGradient>
    <linearGradient
       id="paint440_linear_890_11"
       x1="185"
       y1="479"
       x2="185"
       y2="481"
       gradientUnits="userSpaceOnUse">
      <stop
         stop-color="#EFF2F6"
         id="stop1622" />
      <stop
         offset="1"
         stop-color="#B7C6CD"
         id="stop1623" />
    </linearGradient>
    <linearGradient
       id="paint442_linear_890_11"
       x1="185"
       y1="485"
       x2="185"
       y2="487"
       gradientUnits="userSpaceOnUse">
      <stop
         stop-color="#EFF2F6"
         id="stop1626" />
      <stop
         offset="1"
         stop-color="#B7C6CD"
         id="stop1627" />
    </linearGradient>
    <linearGradient
       id="paint444_linear_890_11"
       x1="185"
       y1="491"
       x2="185"
       y2="493"
       gradientUnits="userSpaceOnUse">
      <stop
         stop-color="#EFF2F6"
         id="stop1630" />
      <stop
         offset="1"
         stop-color="#B7C6CD"
         id="stop1631" />
    </linearGradient>
    <linearGradient
       id="paint446_linear_890_11"
       x1="185"
       y1="497"
       x2="185"
       y2="499"
       gradientUnits="userSpaceOnUse">
      <stop
         stop-color="#EFF2F6"
         id="stop1634" />
      <stop
         offset="1"
         stop-color="#B7C6CD"
         id="stop1635" />
    </linearGradient>
    <linearGradient
       id="paint448_linear_890_11"
       x1="167"
       y1="471"
       x2="203"
       y2="507"
       gradientUnits="userSpaceOnUse"
       gradientTransform="matrix(0.85714286,0,0,0.85714286,-127.57143,-388.14286)">
      <stop
         stop-color="#EFF2F6"
         id="stop1638" />
      <stop
         offset="0.493056"
         stop-color="#B7C6CD"
         id="stop1639" />
    </linearGradient>
    <linearGradient
       id="paint449_linear_890_11"
       x1="201"
       y1="505"
       x2="169"
       y2="473"
       gradientUnits="userSpaceOnUse"
       gradientTransform="matrix(0.85714286,0,0,0.85714286,-127.57143,-388.14286)">
      <stop
         offset="0.389454"
         stop-color="#2E2E41"
         id="stop1640" />
      <stop
         offset="1"
         stop-color="#566C80"
         id="stop1641" />
    </linearGradient>
    <linearGradient
       id="paint450_linear_890_11"
       x1="177"
       y1="481"
       x2="193"
       y2="497"
       gradientUnits="userSpaceOnUse"
       gradientTransform="matrix(0.85714286,0,0,0.85714286,-127.57143,-388.14286)">
      <stop
         offset="0.18393"
         stop-color="#566C80"
         id="stop1642" />
      <stop
         offset="0.912398"
         stop-color="#2E2E41"
         id="stop1643" />
    </linearGradient>
    <linearGradient
       id="linearGradient1059"
       x1="163.41"
       x2="186"
       y1="-10.41"
       y2="-29.162001"
       gradientTransform="matrix(0.9001,0,0,0.7133,-124.38,-36.514)"
       gradientUnits="userSpaceOnUse">
      <stop
         stop-color="#9b39c5"
         offset="0"
         id="stop1" />
      <stop
         stop-color="#df86f4"
         offset="1"
         id="stop2" />
    </linearGradient>
    <linearGradient
       id="linearGradient1061"
       x1="153.34"
       x2="162.86"
       y1="-23.452999"
       y2="-3.5996001"
       gradientTransform="matrix(0.9001,0,0,0.7133,-124.38,-36.514)"
       gradientUnits="userSpaceOnUse">
      <stop
         stop-color="#6a21b4"
         offset="0"
         id="stop3" />
      <stop
         stop-color="#3b0c92"
         offset="1"
         id="stop4" />
    </linearGradient>
    <linearGradient
       id="linearGradient1063"
       x1="152.28999"
       x2="165.24001"
       y1="-19.549"
       y2="-1.3358999"
       gradientTransform="matrix(0.9001,0,0,0.7133,-124.38,-36.514)"
       gradientUnits="userSpaceOnUse">
      <stop
         stop-color="#441381"
         offset="0"
         id="stop5" />
      <stop
         stop-color="#280779"
         offset="1"
         id="stop6" />
    </linearGradient>
    <linearGradient
       id="linearGradient1065"
       x1="159.08"
       x2="163.25999"
       y1="-36.709"
       y2="-9.7538996"
       gradientTransform="matrix(0.9001,0,0,0.7133,-124.38,-36.514)"
       gradientUnits="userSpaceOnUse">
      <stop
         stop-color="#b244d9"
         offset="0"
         id="stop7" />
      <stop
         stop-color="#7520bb"
         offset="1"
         id="stop8" />
    </linearGradient>
    <linearGradient
       id="linearGradient1067"
       x1="194.86"
       x2="194.94"
       y1="7.0853"
       y2="-9.9609003"
       gradientTransform="matrix(0.9001,0,0,0.7133,-124.38,-36.514)"
       gradientUnits="userSpaceOnUse">
      <stop
         stop-color="#22bfed"
         offset="0"
         id="stop9" />
      <stop
         stop-color="#209be5"
         offset="1"
         id="stop10" />
    </linearGradient>
    <linearGradient
       id="linearGradient1069"
       x1="175.82001"
       x2="189.42999"
       y1="-17.188"
       y2="3.7852001"
       gradientTransform="matrix(0.9001,0,0,0.7133,-124.38,-36.514)"
       gradientUnits="userSpaceOnUse">
      <stop
         stop-color="#1b5fca"
         offset="0"
         id="stop11" />
      <stop
         stop-color="#1b9aed"
         offset="1"
         id="stop12" />
    </linearGradient>
    <linearGradient
       id="linearGradient1071"
       x1="147.14"
       x2="170.53"
       y1="6.6777"
       y2="36.178001"
       gradientTransform="matrix(0.9001,0,0,0.7133,-124.38,-36.514)"
       gradientUnits="userSpaceOnUse">
      <stop
         stop-color="#f7c43e"
         offset="0"
         id="stop13" />
      <stop
         stop-color="#f8995d"
         offset="1"
         id="stop14" />
    </linearGradient>
    <linearGradient
       id="linearGradient1073"
       x1="155.58"
       x2="170.53"
       y1="1.4211"
       y2="36.178001"
       gradientTransform="matrix(0.9001,0,0,0.7133,-124.38,-36.514)"
       gradientUnits="userSpaceOnUse">
      <stop
         stop-color="#fce57d"
         offset="0"
         id="stop15" />
      <stop
         stop-color="#feb076"
         offset="1"
         id="stop16" />
    </linearGradient>
    <filter
       id="filter850"
       x="-0.016937609"
       y="-0.0092912613"
       width="1.0338752"
       height="1.0185825"
       color-interpolation-filters="sRGB">
      <feGaussianBlur
         stdDeviation="0.15549739"
         id="feGaussianBlur1" />
    </filter>
    <linearGradient
       id="linearGradient2959">
      <stop
         style="stop-color:#ffffff;stop-opacity:1;"
         offset="0"
         id="stop2961" />
      <stop
         style="stop-color:#000000;stop-opacity:0;"
         offset="1"
         id="stop2963" />
    </linearGradient>
    <linearGradient
       id="paint711_linear_890_11"
       x1="785.49377"
       y1="61.109535"
       x2="784.86401"
       y2="117"
       gradientUnits="userSpaceOnUse"
       gradientTransform="translate(-752,-58)">
      <stop
         offset="0.29169372"
         stop-color="#EFF2F6"
         id="stop2165"
         style="stop-color:#afbed2;stop-opacity:1;" />
      <stop
         offset="1"
         stop-color="#B7C6CD"
         id="stop2166"
         style="stop-color:#526b77;stop-opacity:1;" />
    </linearGradient>
    <radialGradient
       id="paint712_radial_890_11"
       cx="0"
       cy="0"
       r="1"
       gradientUnits="userSpaceOnUse"
       gradientTransform="matrix(22.216699,21.999996,-21.99894,22.215633,30.867,31)">
      <stop
         offset="0.420978"
         stop-color="#F15700"
         id="stop2167" />
      <stop
         offset="0.792773"
         stop-color="#FF0000"
         id="stop2168" />
    </radialGradient>
    <radialGradient
       id="paint713_radial_890_11"
       cx="0"
       cy="0"
       r="1"
       gradientUnits="userSpaceOnUse"
       gradientTransform="matrix(-16.688097,16.851418,-13.741875,-13.608691,50.791,10.8957)">
      <stop
         stop-color="#FFE607"
         id="stop2169" />
      <stop
         offset="0.903378"
         stop-color="#FF7E07"
         id="stop2170" />
    </radialGradient>
    <radialGradient
       id="paint714_radial_890_11"
       cx="0"
       cy="0"
       r="1"
       gradientUnits="userSpaceOnUse"
       gradientTransform="matrix(-22.961171,-7.4640815,7.4454397,-22.903825,31.961,30.8155)">
      <stop
         offset="0.440692"
         stop-color="#001AFF"
         id="stop2171" />
      <stop
         offset="1"
         stop-color="#0085FF"
         id="stop2172" />
    </radialGradient>
    <linearGradient
       id="paint99_linear_890_11"
       x1="569.59998"
       y1="895.15997"
       x2="564.40002"
       y2="895.15997"
       gradientUnits="userSpaceOnUse">
      <stop
         offset="0.138168"
         stop-color="#2E2E41"
         id="stop940" />
      <stop
         offset="1"
         stop-color="#566C80"
         id="stop941" />
    </linearGradient>
    <linearGradient
       id="paint100_linear_890_11"
       x1="602.59998"
       y1="895.15997"
       x2="597.40002"
       y2="895.15997"
       gradientUnits="userSpaceOnUse">
      <stop
         offset="0.138168"
         stop-color="#2E2E41"
         id="stop942" />
      <stop
         offset="1"
         stop-color="#566C80"
         id="stop943" />
    </linearGradient>
    <linearGradient
       id="paint101_linear_890_11"
       x1="611"
       y1="901"
       x2="578.24902"
       y2="850.05402"
       gradientUnits="userSpaceOnUse">
      <stop
         stop-color="#71706E"
         id="stop944" />
      <stop
         offset="1"
         stop-color="#B9AA99"
         id="stop945" />
    </linearGradient>
    <linearGradient
       id="paint102_linear_890_11"
       x1="603"
       y1="881"
       x2="593.164"
       y2="869.19702"
       gradientUnits="userSpaceOnUse">
      <stop
         stop-color="#FF7E07"
         id="stop946" />
      <stop
         offset="1"
         stop-color="#FFE607"
         id="stop947" />
    </linearGradient>
    <linearGradient
       id="paint103_linear_890_11"
       x1="572.5"
       y1="880"
       x2="572.5"
       y2="886"
       gradientUnits="userSpaceOnUse">
      <stop
         offset="0.189495"
         stop-color="#EFF2F6"
         id="stop948" />
      <stop
         offset="0.850463"
         stop-color="#B7C6CD"
         id="stop949" />
    </linearGradient>
    <linearGradient
       id="paint104_linear_890_11"
       x1="577"
       y1="888"
       x2="577"
       y2="894"
       gradientUnits="userSpaceOnUse">
      <stop
         offset="0.189495"
         stop-color="#EFF2F6"
         id="stop950" />
      <stop
         offset="0.850463"
         stop-color="#B7C6CD"
         id="stop951" />
    </linearGradient>
    <linearGradient
       inkscape:collect="always"
       xlink:href="#linearGradient5"
       id="linearGradient18"
       x1="574.72595"
       y1="843.73413"
       x2="608.58075"
       y2="901"
       gradientUnits="userSpaceOnUse"
       gradientTransform="translate(-552,-858)" />
    <linearGradient
       inkscape:collect="always"
       xlink:href="#linearGradient25"
       id="linearGradient26"
       x1="597"
       y1="889"
       x2="603"
       y2="889"
       gradientUnits="userSpaceOnUse"
       gradientTransform="translate(-552,-858)" />
    <linearGradient
       inkscape:collect="always"
       xlink:href="#linearGradient25"
       id="linearGradient28"
       x1="564"
       y1="889"
       x2="570"
       y2="889"
       gradientUnits="userSpaceOnUse"
       gradientTransform="translate(-552,-858)" />
  </defs>
  <g
     inkscape:label="Layer 1"
     inkscape:groupmode="layer"
     id="layer1">
    <path
       d="m 12,5 c 0,-1.105 0.895,-2 2,-2 h 2 c 1.105,0 2,0.895 2,2 v 52 c 0,1.105 -0.895,2 -2,2 h -2 c -1.105,0 -2,-0.895 -2,-2 z"
       id="path97"
       style="fill:url(#linearGradient28)" />
    <path
       d="m 45,5 c 0,-1.105 0.895,-2 2,-2 h 2 c 1.105,0 2,0.895 2,2 v 52 c 0,1.105 -0.895,2 -2,2 h -2 c -1.105,0 -2,-0.895 -2,-2 z"
       id="path98"
       style="fill:url(#linearGradient26)" />
    <path
       d="M 3,13 C 3,9.686 5.686,7 9,7 h 44 c 3.314,0 6,2.686 6,6 v 24 c 0,3.314 -2.686,6 -6,6 H 9 C 5.686,43 3,40.314 3,37 Z"
       id="path99"
       style="fill:url(#linearGradient18)" />
    <g
       id="g1"
       transform="translate(0.49897648,3.5)">
      <g
         style="opacity:0.2"
         id="g9"
         transform="translate(-0.99897648,-7)">
        <path
           d="M 13.526,32.893 H 12.654 L 11.123,27.69 q -0.109,-0.346 -0.244,-0.872 -0.135,-0.527 -0.14,-0.632 -0.114,0.701 -0.363,1.536 L 8.8912,32.893 H 8.0192 L 6,25.123 h 0.9343 l 1.1989,4.799 q 0.2492,1.011 0.3634,1.829 0.1402,-0.972 0.4154,-1.904 l 1.36,-4.724 h 0.934 l 1.428,4.768 q 0.249,0.824 0.42,1.86 0.098,-0.754 0.375,-1.839 l 1.193,-4.789 h 0.933 z"
           id="path3" />
        <path
           d="m 20.975,32.893 h -4.23 v -7.77 h 4.23 v 0.803 h -3.348 v 2.503 h 3.146 v 0.797 h -3.146 v 2.86 h 3.348 z"
           id="path4" />
        <path
           d="m 22.662,32.893 v -7.77 h 0.883 v 6.953 h 3.348 v 0.817 z"
           id="path5" />
        <path
           d="m 31.434,25.819 q -1.25,0 -1.977,0.855 -0.721,0.85 -0.721,2.334 0,1.526 0.695,2.361 0.701,0.828 1.994,0.828 0.793,0 1.811,-0.292 v 0.792 Q 32.447,33 31.289,33 q -1.676,0 -2.59,-1.042 -0.908,-1.041 -0.908,-2.961 0,-1.201 0.436,-2.105 0.44,-0.903 1.267,-1.393 0.83,-0.488 1.951,-0.488 1.193,0 2.087,0.446 l -0.374,0.776 q -0.862,-0.414 -1.724,-0.414 z"
           id="path6" />
        <path
           d="m 41.479,28.997 q 0,1.866 -0.924,2.935 Q 39.637,33 37.996,33 q -1.677,0 -2.591,-1.048 -0.908,-1.051 -0.908,-2.966 0,-1.897 0.913,-2.938 Q 36.324,25 38.007,25 q 1.635,0 2.554,1.064 0.918,1.062 0.918,2.933 z m -6.047,0 q 0,1.579 0.654,2.398 0.658,0.813 1.91,0.813 1.261,0 1.905,-0.813 0.644,-0.814 0.644,-2.398 0,-1.567 -0.644,-2.376 -0.639,-0.813 -1.894,-0.813 -1.263,0 -1.921,0.819 -0.654,0.813 -0.654,2.37 z"
           id="path7" />
        <path
           d="M 46.534,32.893 43.96,26.004 h -0.042 q 0.073,0.819 0.073,1.947 v 4.942 h -0.814 v -7.77 h 1.328 l 2.403,6.41 h 0.041 l 2.425,-6.41 h 1.319 v 7.77 H 49.81 v -5.007 q 0,-0.861 0.073,-1.871 h -0.041 l -2.597,6.878 z"
           id="path8" />
        <path
           d="m 57,32.893 h -4.232 v -7.77 H 57 v 0.803 h -3.349 v 2.503 h 3.145 v 0.797 h -3.145 v 2.86 H 57 Z"
           id="path9" />
      </g>
      <g
         id="g16"
         transform="translate(-0.99897648,-7)">
        <path
           style="fill:#ffffff"
           d="M 13.526,31.893 H 12.654 L 11.123,26.69 q -0.109,-0.346 -0.244,-0.872 -0.135,-0.527 -0.14,-0.632 -0.114,0.701 -0.363,1.536 L 8.8912,31.893 H 8.0192 L 6,24.123 h 0.9343 l 1.1989,4.799 q 0.2492,1.011 0.3634,1.829 0.1402,-0.972 0.4154,-1.904 l 1.36,-4.724 h 0.934 l 1.428,4.768 q 0.249,0.824 0.42,1.86 0.098,-0.754 0.375,-1.839 l 1.193,-4.789 h 0.933 z"
           id="path10" />
        <path
           style="fill:#ffffff"
           d="m 20.975,31.893 h -4.23 v -7.77 h 4.23 v 0.803 h -3.348 v 2.503 h 3.146 v 0.797 h -3.146 v 2.86 h 3.348 z"
           id="path11" />
        <path
           style="fill:#ffffff"
           d="m 22.662,31.893 v -7.77 h 0.883 v 6.953 h 3.348 v 0.817 z"
           id="path12" />
        <path
           style="fill:#ffffff"
           d="m 31.434,24.819 q -1.25,0 -1.977,0.855 -0.721,0.85 -0.721,2.334 0,1.526 0.695,2.361 0.701,0.828 1.994,0.828 0.793,0 1.811,-0.292 v 0.792 Q 32.447,32 31.289,32 q -1.676,0 -2.59,-1.042 -0.908,-1.041 -0.908,-2.961 0,-1.201 0.436,-2.105 0.44,-0.903 1.267,-1.393 0.83,-0.488 1.951,-0.488 1.193,0 2.087,0.446 l -0.374,0.776 q -0.862,-0.414 -1.724,-0.414 z"
           id="path13" />
        <path
           style="fill:#ffffff"
           d="m 41.479,27.997 q 0,1.866 -0.924,2.935 Q 39.637,32 37.996,32 q -1.677,0 -2.591,-1.048 -0.908,-1.051 -0.908,-2.966 0,-1.897 0.913,-2.938 Q 36.324,24 38.007,24 q 1.635,0 2.554,1.064 0.918,1.062 0.918,2.933 z m -6.047,0 q 0,1.579 0.654,2.398 0.658,0.813 1.91,0.813 1.261,0 1.905,-0.813 0.644,-0.814 0.644,-2.398 0,-1.567 -0.644,-2.376 -0.639,-0.813 -1.894,-0.813 -1.263,0 -1.921,0.819 -0.654,0.813 -0.654,2.37 z"
           id="path14-5" />
        <path
           style="fill:#ffffff"
           d="M 46.534,31.893 43.96,25.004 h -0.042 q 0.073,0.819 0.073,1.947 v 4.942 h -0.814 v -7.77 h 1.328 l 2.403,6.41 h 0.041 l 2.425,-6.41 h 1.319 v 7.77 H 49.81 v -5.007 q 0,-0.861 0.073,-1.871 h -0.041 l -2.597,6.878 z"
           id="path15-3" />
        <path
           style="fill:#ffffff"
           d="m 57,31.893 h -4.232 v -7.77 H 57 v 0.803 h -3.349 v 2.503 h 3.145 v 0.797 h -3.145 v 2.86 H 57 Z"
           id="path16" />
      </g>
    </g>
  </g>
</svg>
