<?xml version="1.0" encoding="UTF-8" standalone="no"?>
<svg
   width="62"
   height="62"
   version="1.1"
   id="svg6"
   sodipodi:docname="wemeet.svg"
   inkscape:version="1.4 (e7c3feb100, 2024-10-09)"
   xmlns:inkscape="http://www.inkscape.org/namespaces/inkscape"
   xmlns:sodipodi="http://sodipodi.sourceforge.net/DTD/sodipodi-0.dtd"
   xmlns:xlink="http://www.w3.org/1999/xlink"
   xmlns="http://www.w3.org/2000/svg"
   xmlns:svg="http://www.w3.org/2000/svg">
  <defs
     id="defs6">
    <linearGradient
       id="linearGradient6"
       inkscape:collect="always">
      <stop
         style="stop-color:#2964d7;stop-opacity:1;"
         offset="0"
         id="stop6" />
      <stop
         style="stop-color:#8660cb;stop-opacity:1"
         offset="1"
         id="stop7" />
    </linearGradient>
    <linearGradient
       inkscape:collect="always"
       xlink:href="#linearGradient6"
       id="linearGradient7"
       x1="29.996132"
       y1="60"
       x2="30.36441"
       y2="5"
       gradientUnits="userSpaceOnUse" />
  </defs>
  <sodipodi:namedview
     id="namedview6"
     pagecolor="#ffffff"
     bordercolor="#000000"
     borderopacity="0.25"
     inkscape:showpageshadow="2"
     inkscape:pageopacity="0.0"
     inkscape:pagecheckerboard="0"
     inkscape:deskcolor="#d1d1d1"
     inkscape:zoom="11.75"
     inkscape:cx="32"
     inkscape:cy="32"
     inkscape:window-width="1920"
     inkscape:window-height="998"
     inkscape:window-x="0"
     inkscape:window-y="0"
     inkscape:window-maximized="1"
     inkscape:current-layer="svg6" />
  <g
     id="g6"
     transform="matrix(0.98214286,0,0,0.98245614,-0.42857152,-0.92982455)">
    <rect
       style="opacity:0.2"
       width="56"
       height="56"
       x="4"
       y="5"
       rx="16.799999"
       ry="16.799999"
       id="rect1" />
    <rect
       style="fill:url(#linearGradient7)"
       width="56"
       height="56"
       x="4"
       y="4"
       rx="16.799999"
       ry="16.799999"
       id="rect2" />
    <path
       style="opacity:0.2"
       d="m 24.867188,21 -7.167969,7.34375 -4.664063,4.734374 c -1.378266,1.416628 -1.378266,3.708374 0,5.125 l 4.664063,4.777344 7.167969,-7.324218 7.148436,7.34375 7.156252,-7.316406 7.128906,7.304688 4.667968,-4.777344 c 1.377532,-1.414304 1.377532,-3.702884 0,-5.117188 L 46.300782,28.355468 39.171876,21 32.019532,28.324218 Z"
       id="path2" />
    <path
       fill-opacity="0.9"
       style="fill:#ffffff"
       d="M 17.697885,27.342432 13.0337,32.078164 c -1.378267,1.416626 -1.378267,3.708064 0,5.12469 l 4.664185,4.776674 7.169517,-7.32196 L 29.411652,27.3902 24.867402,20 Z"
       id="path3" />
    <path
       style="fill:#8dafff"
       d="M 24.867402,34.657568 33.269598,35.28536 32.023596,27.328786 24.867402,20 Z"
       id="path4" />
    <path
       style="fill:#ffffff"
       d="M 24.867402,34.657568 32.016932,42 l 7.156192,-7.315136 7.12954,7.301488 4.664186,-4.776676 c 1.377532,-1.414304 1.377532,-3.70356 0,-5.117864 L 46.302664,27.35608 39.173124,20 Z"
       id="path5" />
    <path
       style="opacity:0.2;fill:#ffffff"
       d="M 20.800781,4 C 11.493581,4 4,11.493581 4,20.800781 v 1 C 4,12.493581 11.493581,5 20.800781,5 H 43.199219 C 52.506419,5 60,12.493581 60,21.800781 v -1 C 60,11.493581 52.506419,4 43.199219,4 Z"
       id="path6" />
  </g>
</svg>
