<?xml version="1.0" encoding="UTF-8" standalone="no"?>
<svg
   width="62"
   height="62"
   version="1"
   id="svg13"
   sodipodi:docname="wesnoth.svg"
   inkscape:version="1.4 (unknown)"
   xmlns:inkscape="http://www.inkscape.org/namespaces/inkscape"
   xmlns:sodipodi="http://sodipodi.sourceforge.net/DTD/sodipodi-0.dtd"
   xmlns="http://www.w3.org/2000/svg"
   xmlns:svg="http://www.w3.org/2000/svg">
  <defs
     id="defs13" />
  <sodipodi:namedview
     id="namedview13"
     pagecolor="#ffffff"
     bordercolor="#000000"
     borderopacity="0.25"
     inkscape:showpageshadow="2"
     inkscape:pageopacity="0.0"
     inkscape:pagecheckerboard="0"
     inkscape:deskcolor="#d1d1d1"
     inkscape:zoom="6.0546875"
     inkscape:cx="35.261935"
     inkscape:cy="32.123871"
     inkscape:window-width="1920"
     inkscape:window-height="998"
     inkscape:window-x="0"
     inkscape:window-y="0"
     inkscape:window-maximized="1"
     inkscape:current-layer="svg13" />
  <g
     id="g13"
     transform="translate(-1.0000006)">
    <g
       style="opacity:0.2"
       transform="matrix(0.14521477,0,0,0.14486376,6.3945335,8.8976446)"
       id="g1">
      <path
         d="m 25.232,41.855 c -0.11807,0.4269 -0.40348,0.78706 -0.40348,1.2451 0,52.278 13.832,112.71 37.954,165.8 19.566,43.069 54.756,100.51 111.25,129.62 0.719,0.37 1.5004,0.55631 2.2864,0.55631 0.786,0 1.5674,-0.18631 2.2864,-0.55631 56.496,-29.106 91.686,-86.55 111.25,-129.62 24.121,-53.094 37.954,-113.53 37.954,-165.8 0,-0.458 -0.28541,-0.81816 -0.40348,-1.2451 -1.9514,49.319 -15.291,104.49 -37.55,153.49 -19.567,43.069 -54.757,100.51 -111.25,129.62 -0.719,0.37 -1.5004,0.55631 -2.2864,0.55631 -0.786,0 -1.5674,-0.18631 -2.2864,-0.55631 -56.49,-29.11 -91.681,-86.55 -111.25,-129.62 -22.257,-48.99 -35.596,-104.17 -37.548,-153.48 z"
         id="path1" />
    </g>
    <g
       style="fill:#4f4f4f"
       transform="matrix(0.14521477,0,0,0.14486376,6.3945335,5.9500799)"
       id="g2">
      <path
         style="fill:#2d3d53;fill-opacity:1"
         d="M 324.48,51.943 177.99,0.285 c -1.076,-0.38 -2.25,-0.38 -3.326,0 L 28.174,51.943 c -1.999,0.705 -3.337,2.595 -3.337,4.715 0,52.278 13.834,112.71 37.956,165.8 19.566,43.069 54.751,100.52 111.25,129.62 0.719,0.37 1.504,0.555 2.29,0.555 0.786,0 1.571,-0.185 2.29,-0.555 56.496,-29.106 91.68,-86.556 111.25,-129.62 24.121,-53.094 37.955,-113.53 37.955,-165.8 0,-2.12 -1.338,-4.01 -3.337,-4.715 z"
         id="path2" />
    </g>
    <g
       style="opacity:0.2"
       transform="matrix(0.07920808,0,0,0.07800315,18.032745,18.721322)"
       id="g3">
      <path
         d="M 324.48,51.943 177.99,0.285 c -1.076,-0.38 -2.25,-0.38 -3.326,0 L 28.174,51.943 c -1.999,0.705 -3.337,2.595 -3.337,4.715 0,52.278 13.834,112.71 37.956,165.8 19.566,43.069 54.751,100.52 111.25,129.62 0.719,0.37 1.504,0.555 2.29,0.555 0.786,0 1.571,-0.185 2.29,-0.555 56.496,-29.106 91.68,-86.556 111.25,-129.62 24.121,-53.094 37.955,-113.53 37.955,-165.8 0,-2.12 -1.338,-4.01 -3.337,-4.715 z"
         id="path3" />
    </g>
    <g
       style="fill:#ffb706"
       transform="matrix(0.07920808,0,0,0.07800315,18.032745,17.738962)"
       id="g4">
      <path
         style="fill:#ffcc00"
         d="M 324.48,51.943 177.99,0.285 c -1.076,-0.38 -2.25,-0.38 -3.326,0 L 28.174,51.943 c -1.999,0.705 -3.337,2.595 -3.337,4.715 0,52.278 13.834,112.71 37.956,165.8 19.566,43.069 54.751,100.52 111.25,129.62 0.719,0.37 1.504,0.555 2.29,0.555 0.786,0 1.571,-0.185 2.29,-0.555 56.496,-29.106 91.68,-86.556 111.25,-129.62 24.121,-53.094 37.955,-113.53 37.955,-165.8 0,-2.12 -1.338,-4.01 -3.337,-4.715 z"
         id="path4" />
    </g>
    <path
       style="opacity:0.1;fill:#ffffff;stroke-width:0.991193"
       d="m 31.99999,5.9512062 c -0.08207,0 -0.164187,0.012787 -0.242188,0.040296 L 10.484374,13.475056 C 10.194392,13.577223 10,13.851072 10,14.158172 c 0,0.267211 0.01719,0.543112 0.0273,0.815508 0.05668,-0.234709 0.221927,-0.433339 0.457031,-0.516171 L 31.7578,6.9739579 c 0.156001,-0.055017 0.328385,-0.055017 0.484385,0 l 21.271473,7.4835511 c 0.235111,0.08281 0.400349,0.281462 0.45703,0.516171 0.0102,-0.272396 0.0273,-0.548297 0.0273,-0.815508 0,-0.3071 -0.194391,-0.580949 -0.484373,-0.683116 L 32.242187,5.9915019 c -0.07799,-0.027508 -0.16019,-0.040296 -0.242197,-0.040296 z"
       id="path5" />
    <path
       style="opacity:0.2;stroke-width:0.991193"
       d="M 21.825688,18.542965 26.42093,15.936439 47.645455,52.053451 48.664166,59 43.050212,54.659976 Z"
       id="path6" />
    <path
       style="fill:#ffffff;stroke-width:0.991193"
       d="M 21.825688,17.560505 26.42093,14.953989 47.645455,51.071 l 1.018711,6.94654 -5.613954,-4.340024 z"
       id="path7" />
    <path
       style="opacity:0.2;stroke-width:0.991193"
       d="m 18.495153,3.9926058 c -0.166032,0.020438 -0.330012,0.075285 -0.484495,0.162907 l -2.365475,1.338897 c -0.617926,0.3505012 -0.828302,1.121261 -0.471547,1.728347 l 4.000329,6.8039322 -3.482148,1.975256 c -0.617927,0.350501 -0.8283,1.121264 -0.471536,1.728351 l 1.365392,2.323978 c 0.356758,0.607086 1.141285,0.813772 1.759215,0.463272 l 11.555338,-6.554489 c 0.61793,-0.3505 0.828303,-1.121264 0.471546,-1.728351 L 29.00637,9.9107312 C 28.649611,9.3036462 27.865093,9.0969618 27.247167,9.4474634 L 23.767605,11.420173 19.769872,4.6162366 C 19.502298,4.1609214 18.993255,3.9312916 18.495153,3.9926058 Z"
       id="path8" />
    <path
       style="fill:#4c678d;fill-opacity:1;stroke-width:0.991193"
       d="M 18.495153,3.009769 C 18.329121,3.030208 18.165141,3.085052 18.010658,3.1726756 L 15.645183,4.511573 c -0.617926,0.3505012 -0.828302,1.121261 -0.471547,1.7283468 l 4.000329,6.8039372 -3.482148,1.97525 c -0.617927,0.350501 -0.8283,1.121264 -0.471536,1.728351 l 1.365392,2.323978 c 0.356758,0.607086 1.141285,0.813772 1.759215,0.463272 l 11.555338,-6.554489 c 0.61793,-0.3505 0.828303,-1.121264 0.471546,-1.72835 L 29.00637,8.9278947 C 28.649611,8.3208085 27.865093,8.1141248 27.247167,8.4646262 L 23.767605,10.437335 19.769872,3.6333988 C 19.502298,3.1780846 18.993255,2.9484538 18.495153,3.009769 Z"
       id="path9" />
    <path
       style="opacity:0.2;stroke-width:0.991193"
       d="M 42.13848,18.542965 37.543228,15.936439 16.318716,52.053451 15.300001,59 20.913956,54.659976 Z"
       id="path10" />
    <path
       style="fill:#ffffff;stroke-width:0.991193"
       d="M 42.13848,17.560505 37.543228,14.953989 16.318716,51.071 l -1.018715,6.94654 5.613955,-4.340024 z"
       id="path11" />
    <path
       style="opacity:0.2;stroke-width:0.991193"
       d="m 45.469008,3.9926058 c 0.166029,0.020438 0.330016,0.075285 0.484495,0.162907 l 2.365478,1.338897 c 0.617925,0.3505012 0.828296,1.121261 0.471538,1.728347 l -4.000328,6.8039322 3.482148,1.975256 c 0.617931,0.350501 0.828303,1.121264 0.471545,1.728351 l -1.365392,2.323978 c -0.356766,0.607086 -1.141284,0.813772 -1.75921,0.463272 L 34.063933,13.963057 c -0.617919,-0.3505 -0.828293,-1.121264 -0.471538,-1.728351 L 34.957788,9.9107312 C 35.314547,9.3036462 36.099075,9.0969618 36.717,9.4474634 l 3.479553,1.9727096 3.997741,-6.8039364 c 0.267565,-0.4553152 0.776608,-0.684945 1.274714,-0.6236308 z"
       id="path12" />
    <path
       style="fill:#526f97;fill-opacity:1;stroke-width:0.991193"
       d="m 45.469008,3.009769 c 0.166029,0.020439 0.330016,0.075283 0.484495,0.1629066 l 2.365478,1.3388974 c 0.617925,0.3505012 0.828296,1.121261 0.471538,1.7283468 l -4.000328,6.8039372 3.482148,1.97525 c 0.617931,0.350501 0.828303,1.121264 0.471545,1.728351 l -1.365392,2.323978 c -0.356766,0.607086 -1.141284,0.813772 -1.75921,0.463272 L 34.063933,12.980219 c -0.617919,-0.3505 -0.828293,-1.121264 -0.471538,-1.72835 L 34.957788,8.9278947 C 35.314547,8.3208085 36.099075,8.1141248 36.717,8.4646262 l 3.479553,1.9727088 3.997741,-6.8039362 c 0.267565,-0.4553142 0.776608,-0.684945 1.274714,-0.6236298 z"
       id="path13" />
  </g>
</svg>
