<?xml version="1.0" encoding="UTF-8" standalone="no"?>
<svg
   width="62"
   height="62"
   version="1.1"
   id="svg4"
   sodipodi:docname="wicd.svg"
   inkscape:version="1.4 (e7c3feb100, 2024-10-09)"
   xmlns:inkscape="http://www.inkscape.org/namespaces/inkscape"
   xmlns:sodipodi="http://sodipodi.sourceforge.net/DTD/sodipodi-0.dtd"
   xmlns:xlink="http://www.w3.org/1999/xlink"
   xmlns="http://www.w3.org/2000/svg"
   xmlns:svg="http://www.w3.org/2000/svg">
  <defs
     id="defs4">
    <linearGradient
       id="linearGradient6"
       inkscape:collect="always">
      <stop
         style="stop-color:#efeaf8;stop-opacity:1;"
         offset="0"
         id="stop11" />
      <stop
         style="stop-color:#d3c6ec;stop-opacity:1;"
         offset="1"
         id="stop12" />
    </linearGradient>
    <linearGradient
       id="linearGradient4"
       inkscape:collect="always">
      <stop
         style="stop-color:#4c4cff;stop-opacity:1;"
         offset="0"
         id="stop4" />
      <stop
         style="stop-color:#8660cb;stop-opacity:1"
         offset="1"
         id="stop5" />
    </linearGradient>
    <linearGradient
       inkscape:collect="always"
       xlink:href="#linearGradient4"
       id="linearGradient5"
       x1="32"
       y1="60"
       x2="32"
       y2="5"
       gradientUnits="userSpaceOnUse"
       gradientTransform="translate(-1,-1.5)" />
    <linearGradient
       id="paint0_linear_216_361"
       x1="8.1785803"
       y1="12.0527"
       x2="31.672199"
       y2="54.314999"
       gradientUnits="userSpaceOnUse"
       gradientTransform="matrix(0.87931031,0,0,0.87357078,-0.68123071,1.9643898)">
      <stop
         stop-color="#F9D423"
         stop-opacity="0"
         id="stop3" />
      <stop
         offset="0.169488"
         stop-color="#FAB82C"
         id="stop4-5" />
      <stop
         offset="0.515624"
         stop-color="#FF4E50"
         id="stop5-6" />
      <stop
         offset="0.991304"
         stop-color="#8A2387"
         id="stop6" />
    </linearGradient>
    <linearGradient
       id="paint1_linear_216_361"
       x1="8.1785698"
       y1="12.0527"
       x2="31.672199"
       y2="54.314999"
       gradientUnits="userSpaceOnUse">
      <stop
         stop-color="#F9D423"
         stop-opacity="0"
         id="stop7" />
      <stop
         offset="0.169488"
         stop-color="#FAB82C"
         id="stop8" />
      <stop
         offset="0.515624"
         stop-color="#FF4E50"
         id="stop9" />
      <stop
         offset="0.991304"
         stop-color="#8A2387"
         id="stop10" />
    </linearGradient>
    <linearGradient
       inkscape:collect="always"
       xlink:href="#linearGradient6"
       id="linearGradient12"
       x1="26.469877"
       y1="28.463465"
       x2="26.318405"
       y2="10.700077"
       gradientUnits="userSpaceOnUse" />
    <linearGradient
       inkscape:collect="always"
       xlink:href="#linearGradient6"
       id="linearGradient15"
       x1="30.995955"
       y1="40.344753"
       x2="30.995955"
       y2="32.744686"
       gradientUnits="userSpaceOnUse" />
    <linearGradient
       inkscape:collect="always"
       xlink:href="#linearGradient6"
       id="linearGradient17"
       x1="31.042114"
       y1="51.444679"
       x2="31.042114"
       y2="42.744682"
       gradientUnits="userSpaceOnUse" />
  </defs>
  <sodipodi:namedview
     id="namedview4"
     pagecolor="#ffffff"
     bordercolor="#000000"
     borderopacity="0.25"
     inkscape:showpageshadow="2"
     inkscape:pageopacity="0.0"
     inkscape:pagecheckerboard="0"
     inkscape:deskcolor="#d1d1d1"
     inkscape:zoom="11.75"
     inkscape:cx="29.531915"
     inkscape:cy="43.489362"
     inkscape:window-width="1920"
     inkscape:window-height="998"
     inkscape:window-x="0"
     inkscape:window-y="0"
     inkscape:window-maximized="1"
     inkscape:current-layer="svg4" />
  <rect
     style="opacity:0.2"
     width="56"
     height="56"
     x="3"
     y="3.5"
     rx="11.2"
     ry="11.2"
     id="rect1" />
  <rect
     style="fill:url(#linearGradient5)"
     width="56"
     height="56"
     x="3"
     y="2.5"
     rx="11.2"
     ry="11.2"
     id="rect2" />
  <path
     style="opacity:0.1;fill:#ffffff"
     d="M 14.199219,2.5 C 7.9944186,2.5 3,7.4944186 3,13.699219 v 1 C 3,8.4944185 7.9944186,3.5 14.199219,3.5 H 47.800781 C 54.005581,3.5 59,8.4944185 59,14.699219 v -1 C 59,7.4944186 54.005581,2.5 47.800781,2.5 Z"
     id="path4" />
  <g
     id="g4"
     transform="translate(3.5432961,0.79992258)">
    <g
       id="g2">
      <path
         d="m 27.494767,20.833516 c 6.688643,0 12.749917,2.697929 17.128262,7.050249 0.37583,0.347932 0.677237,0.767418 0.886258,1.233573 0.20909,0.466131 0.321486,0.969311 0.330537,1.479557 0.0096,0.510152 -0.08549,1.017021 -0.27778,1.490213 -0.192395,0.47313 -0.478682,0.902927 -0.841943,1.263815 -0.363236,0.360866 -0.795857,0.645286 -1.272093,0.836423 -0.476332,0.191137 -0.986408,0.284959 -1.500005,0.275967 -0.513628,-0.0096 -1.020085,-0.120625 -1.489306,-0.32838 -0.46919,-0.207725 -0.891433,-0.507092 -1.241658,-0.880472 -1.537387,-1.531809 -3.364598,-2.746316 -5.376455,-3.573673 -2.011789,-0.827369 -4.168459,-1.251301 -6.345817,-1.247296 -2.17708,-0.0036 -4.333405,0.421158 -6.344745,1.248936 -2.011348,0.827807 -3.838113,2.042684 -5.374969,3.574584 -0.717259,0.712833 -1.690112,1.113453 -2.704674,1.113711 -1.014531,2.54e-4 -1.987573,-0.399931 -2.705086,-1.11251 -0.7176142,-0.712482 -1.1208679,-1.678984 -1.1211301,-2.686925 -1.796e-4,-1.007908 0.4026336,-1.974601 1.1197991,-2.687523 2.247417,-2.238017 4.917712,-4.012934 7.857507,-5.222827 2.939816,-1.209798 6.091242,-1.830922 9.273298,-1.827422 z m 0,-10.133418 c 9.503775,0 18.117652,3.832959 24.342123,10.016894 0.355167,0.352915 0.63679,0.771959 0.828927,1.23304 0.192139,0.461145 0.290956,0.955339 0.290887,1.454393 -9.1e-5,0.499077 -0.0992,0.993272 -0.291491,1.454256 -0.192393,0.461052 -0.474236,0.87994 -0.829561,1.232759 -0.35533,0.352757 -0.777033,0.632663 -1.241237,0.823521 -0.464081,0.190884 -0.961609,0.289082 -1.463949,0.288896 -0.502359,-9.4e-5 -0.999704,-0.09854 -1.463785,-0.28959 -0.46411,-0.191137 -0.885744,-0.471111 -1.240791,-0.82412 -2.48301,-2.473964 -5.433789,-4.435824 -8.682755,-5.772743 -3.248873,-1.336823 -6.731814,-2.022471 -10.248368,-2.017236 -7.394984,0 -14.083565,2.974151 -18.9336561,7.789979 -0.3511955,0.369091 -0.7733618,0.664518 -1.2414722,0.868679 -0.4681008,0.204225 -0.9726646,0.313179 -1.4838692,0.320338 -0.5112048,0.0074 -1.0186727,-0.08754 -1.492411,-0.27849 C 3.8696294,26.809695 3.4392422,26.526222 3.0776444,26.167189 2.716055,25.808157 2.4305782,25.380723 2.2381059,24.910119 2.0456337,24.439609 1.9500688,23.93548 1.9570617,23.427599 c 0.00692,-0.507816 0.1163849,-1.00917 0.3217288,-1.474349 0.2053565,-0.465164 0.5024751,-0.884666 0.8738146,-1.233735 3.1932768,-3.180487 6.9875689,-5.702924 11.1649159,-7.422368 4.17741,-1.719382 8.655583,-2.601984 13.177246,-2.597049 z"
         id="path1"
         style="fill:url(#linearGradient12)" />
      <g
         opacity="0.4"
         id="g3"
         transform="matrix(0.8793103,0,0,0.87357078,-0.68123067,1.9643902)">
        <path
           id="path2-2"
           style="fill:#ffffff;fill-opacity:1;opacity:1" />
      </g>
    </g>
  </g>
  <path
     d="m 34.118015,44.018781 c -0.8158,-0.8157 -1.9222,-1.2741 -3.0759,-1.2741 -1.1537,0 -2.2601,0.4584 -3.0759,1.2741 -0.8158,0.8158 -1.2741,1.9222 -1.2741,3.0759 0,1.1537 0.4583,2.2601 1.2741,3.0759 0.8158,0.8158 1.9222,1.2741 3.0759,1.2741 1.1537,0 2.2601,-0.4583 3.0759,-1.2741 0.8158,-0.8158 1.2741,-1.9222 1.2741,-3.0759 0,-1.1537 -0.4583,-2.2601 -1.2741,-3.0759 z"
     id="path2"
     style="fill:url(#linearGradient17);fill-opacity:1" />
  <path
     id="path3-9-1"
     style="fill:url(#linearGradient15);fill-opacity:1;stroke-width:0.876436"
     d="m 36.363528,33.802319 c -1.70173,-0.699818 -3.525771,-1.059292 -5.367574,-1.057632 -1.841979,-0.0016 -3.666197,0.358076 -5.367926,1.058418 -1.701817,0.700342 -3.247645,1.727574 -4.548936,3.022817 -0.717253,0.712834 -1.120065,1.679615 -1.119801,2.687453 2.63e-4,1.007926 0.403515,1.974445 1.121032,2.687017 0.717605,0.712571 1.69065,1.112667 2.705198,1.112492 1.014549,-2.62e-4 1.987417,-0.400882 2.704583,-1.113715 l 0.357,-0.33187 c 1.1169,-0.952541 2.56275,-1.522546 4.14885,-1.522546 0.837455,-0.0018 1.667084,0.161086 2.440789,0.479328 0.773793,0.318329 1.476538,0.785602 2.067611,1.375088 l 0.290699,0.260848 c 0.760516,0.617614 1.731011,0.920831 2.710387,0.846927 0.979375,-0.0739 1.892627,-0.519338 2.550439,-1.243878 0.6579,-0.724627 1.010064,-1.6728 0.983421,-2.648317 -0.02664,-0.975429 -0.429983,-1.903249 -1.126397,-2.59136 -1.301731,-1.294545 -2.847646,-2.321165 -4.549375,-3.02107 z" />
</svg>
