<?xml version="1.0" encoding="UTF-8" standalone="no"?>
<svg
   width="62"
   height="62"
   version="1"
   id="svg7"
   sodipodi:docname="wikipedia.svg"
   inkscape:version="1.4 (e7c3feb100, 2024-10-09)"
   xmlns:inkscape="http://www.inkscape.org/namespaces/inkscape"
   xmlns:sodipodi="http://sodipodi.sourceforge.net/DTD/sodipodi-0.dtd"
   xmlns:xlink="http://www.w3.org/1999/xlink"
   xmlns="http://www.w3.org/2000/svg"
   xmlns:svg="http://www.w3.org/2000/svg">
  <defs
     id="defs7">
    <linearGradient
       id="linearGradient7"
       inkscape:collect="always">
      <stop
         style="stop-color:#384850;stop-opacity:1;"
         offset="0"
         id="stop8" />
      <stop
         style="stop-color:#384850;stop-opacity:1;"
         offset="0.59162253"
         id="stop10" />
      <stop
         style="stop-color:#eff2f6;stop-opacity:1;"
         offset="0.92173076"
         id="stop11" />
      <stop
         style="stop-color:#eff2f6;stop-opacity:1;"
         offset="1"
         id="stop9" />
    </linearGradient>
    <linearGradient
       id="c-3"
       gradientUnits="userSpaceOnUse"
       x1="24.072048"
       x2="23.959682"
       y1="0.75082099"
       y2="46.056854">
      <stop
         offset="0"
         stop-color="#fff"
         id="stop3" />
      <stop
         offset="1"
         stop-color="#d9d9d9"
         id="stop4" />
    </linearGradient>
    <linearGradient
       id="b-6"
       gradientUnits="userSpaceOnUse"
       x1="29.203026"
       x2="34.121048"
       xlink:href="#a-7"
       y1="24.827356"
       y2="29.224836" />
    <linearGradient
       id="a-7">
      <stop
         offset="0"
         id="stop1" />
      <stop
         offset="1"
         stop-opacity="0"
         id="stop2" />
    </linearGradient>
    <linearGradient
       id="d"
       gradientUnits="userSpaceOnUse"
       x1="15.948756"
       x2="25.031786"
       xlink:href="#a-7"
       y1="23.618279"
       y2="33.69899" />
    <linearGradient
       id="e"
       gradientUnits="userSpaceOnUse"
       x1="21.990562"
       x2="29.320522"
       xlink:href="#a-7"
       y1="33.780373"
       y2="41.931858" />
    <linearGradient
       id="paint154_linear_890_11"
       x1="778"
       y1="812.29199"
       x2="788"
       y2="812.29199"
       gradientUnits="userSpaceOnUse"
       gradientTransform="translate(-751,-696)">
      <stop
         stop-color="#EFF2F6"
         id="stop1050" />
      <stop
         offset="0.600785"
         stop-color="#B7C6CD"
         id="stop1051" />
    </linearGradient>
    <linearGradient
       id="paint155_linear_890_11"
       x1="783"
       y1="813"
       x2="783"
       y2="817"
       gradientUnits="userSpaceOnUse"
       gradientTransform="translate(-751,-696)">
      <stop
         stop-color="#EFF2F6"
         id="stop1052" />
      <stop
         offset="0.734138"
         stop-color="#B7C6CD"
         id="stop1053" />
    </linearGradient>
    <radialGradient
       id="paint156_radial_890_11"
       cx="0"
       cy="0"
       r="1"
       gradientUnits="userSpaceOnUse"
       gradientTransform="matrix(27.999986,27.999976,-27.999986,27.999976,32.302392,33.999998)">
      <stop
         offset="0.60067803"
         stop-color="#B7C6CD"
         id="stop1054"
         style="stop-color:#384850;stop-opacity:1;" />
      <stop
         offset="0.876735"
         stop-color="#EFF2F6"
         id="stop1055" />
    </radialGradient>
    <linearGradient
       id="paint157_linear_890_11"
       x1="796.84485"
       y1="799.43359"
       x2="768.90088"
       y2="770.81476"
       gradientUnits="userSpaceOnUse"
       gradientTransform="matrix(1.1666666,0,0,1.1666668,-881.19764,-881.8333)">
      <stop
         offset="0.00000057"
         stop-color="#2E2E41"
         id="stop1056"
         style="stop-color:#495361;stop-opacity:1;" />
      <stop
         offset="0.711139"
         stop-color="#566C80"
         id="stop1057" />
    </linearGradient>
    <linearGradient
       id="paint158_linear_890_11"
       x1="792"
       y1="794"
       x2="774"
       y2="776"
       gradientUnits="userSpaceOnUse"
       gradientTransform="translate(-751,-696)">
      <stop
         offset="0.304478"
         stop-color="#2E2E41"
         id="stop1058" />
      <stop
         offset="1"
         stop-color="#566C80"
         id="stop1059" />
    </linearGradient>
    <linearGradient
       id="paint159_linear_890_11"
       x1="788"
       y1="790"
       x2="778"
       y2="780"
       gradientUnits="userSpaceOnUse"
       gradientTransform="translate(-751,-696)">
      <stop
         offset="0.391394"
         stop-color="#5200FF"
         id="stop1060" />
      <stop
         offset="1"
         stop-color="#0085FF"
         id="stop1061" />
    </linearGradient>
    <linearGradient
       id="paint160_linear_890_11"
       x1="784"
       y1="798"
       x2="782"
       y2="796"
       gradientUnits="userSpaceOnUse"
       gradientTransform="translate(-751,-696)">
      <stop
         stop-color="#FF7E07"
         id="stop1062" />
      <stop
         offset="1"
         stop-color="#FFE607"
         id="stop1063" />
    </linearGradient>
    <radialGradient
       inkscape:collect="always"
       xlink:href="#linearGradient7"
       id="radialGradient9"
       cx="32.302387"
       cy="34"
       fx="32.302387"
       fy="34"
       r="28"
       gradientUnits="userSpaceOnUse"
       gradientTransform="matrix(0.99999999,1,-1,0.99999999,34,-32.302387)" />
    <linearGradient
       inkscape:collect="always"
       xlink:href="#linearGradient933"
       id="linearGradient935"
       x1="63.855331"
       y1="122.63078"
       x2="63.855331"
       y2="15.286823"
       gradientUnits="userSpaceOnUse"
       gradientTransform="matrix(0.39895775,0,0,0.39895809,11.857905,45.742507)" />
    <linearGradient
       inkscape:collect="always"
       id="linearGradient933">
      <stop
         style="stop-color:#393f4a;stop-opacity:1;"
         offset="0"
         id="stop929" />
      <stop
         style="stop-color:#6f7c91;stop-opacity:1"
         offset="1"
         id="stop931" />
    </linearGradient>
    <linearGradient
       id="paint0_linear_54_1196"
       x1="64"
       y1="120"
       x2="64"
       y2="8"
       gradientUnits="userSpaceOnUse"
       gradientTransform="matrix(0.28571429,0,0,0.28571429,12.714302,12.714286)">
      <stop
         stop-color="#5570FF"
         id="stop2-6" />
      <stop
         offset="1"
         stop-color="#4DD3FF"
         id="stop3-8" />
    </linearGradient>
  </defs>
  <sodipodi:namedview
     id="namedview7"
     pagecolor="#ffffff"
     bordercolor="#000000"
     borderopacity="0.25"
     inkscape:showpageshadow="2"
     inkscape:pageopacity="0.0"
     inkscape:pagecheckerboard="0"
     inkscape:deskcolor="#d1d1d1"
     inkscape:zoom="8.3306018"
     inkscape:cx="32.050506"
     inkscape:cy="32.890781"
     inkscape:window-width="1920"
     inkscape:window-height="998"
     inkscape:window-x="0"
     inkscape:window-y="0"
     inkscape:window-maximized="1"
     inkscape:current-layer="svg7" />
  <g
     id="g1"
     transform="translate(-1.3023872,-3)">
    <path
       d="m 60.302387,34 c 0,15.46415 -12.535828,28 -28.000002,28 C 16.838222,62 4.3023873,49.46415 4.3023873,34 4.3023873,18.535835 16.838222,6 32.302385,6 47.766559,6 60.302387,18.535835 60.302387,34 Z"
       id="path154"
       style="fill:url(#radialGradient9)" />
  </g>
  <g
     id="g2"
     transform="translate(-6.3334846,-40.333549)">
    <circle
       style="fill:url(#linearGradient935);fill-opacity:1;stroke:none;stroke-width:0.604378;stroke-linecap:round;stroke-miterlimit:4;stroke-dasharray:none;stroke-opacity:1"
       id="path1096"
       cx="37.333485"
       cy="71.333549"
       r="23.3335" />
    <g
       id="g1009"
       transform="matrix(1.0617363,0,0,1.0617371,26.342866,223.78528)" />
  </g>
  <path
     style="fill:#ffffff;fill-opacity:1"
     d="m 37.22788,19.182107 c -1.42158,-0.0012 -3.1054,0.0044 -4.1406,0.0118 l -0.1022,0.0699 v 0.745461 c 0,0.09096 0.038,0.154511 0.1134,0.209669 0.077,0.05818 0.154,0.0932 0.23822,0.0932 l 0.32898,0.03498 c 0.84656,0.03578 1.24516,0.264546 1.36132,0.407678 0.20184,0.253467 0.2965,0.534872 -0.1928,1.630714 l -2.9268,5.987083 -2.6432,-5.556106 c -0.86834,-1.775706 -1.07998,-2.330077 0.22688,-2.434471 l 0.52184,-0.0699 c 0.25122,0 0.37436,-0.09048 0.37436,-0.267906 V 19.26381 l -0.1928,-0.0699 c 0,0 -4.924,0.0086 -7.1356,0.0118 l -0.102,0.0699 v 0.780419 c 0,0.174451 0.1792,0.221668 0.52182,0.267906 1.2241,0.165491 1.19398,0.296044 2.405,2.760654 0.1816,0.36976 0.7147,1.479301 0.7147,1.479301 l 2.7566,5.567706 c 0,0 0.59578,1.352249 0.80544,1.828719 l -4.0046,8.20017 -0.22688,-0.0582 c 0,0 -6.2198,-13.468687 -8.0204,-17.972849 -0.1874,-0.466655 -0.27226,-0.811817 -0.27226,-1.025025 0,-0.457716 0.39804,-0.699543 1.20248,-0.733822 l 0.94158,-0.04662 c 0.2483,0 0.37436,-0.09859 0.37436,-0.302864 v -0.733821 l -0.0908,-0.08152 c 0,0 -7.4456,-0.009 -8.9846,0 l -0.0794,0.08396 v 0.767959 c 0,0.140153 0.1634,0.229128 0.5105,0.267906 0.94528,0.0522 1.57268,0.207989 1.8718,0.465915 0.29768,0.260926 0.61414,0.917952 1.03234,1.945217 2.2608,5.576105 7.0652,15.532174 9.4044,21.198874 0.67376,1.5476 1.51306,1.78875 2.5412,-0.0466 1.10838,-2.11088 3.047,-6.18667 4.6172,-9.51649 0.0226,-0.32303 0.0226,0.29924 0.3063,0.10485 1.4661,3.31563 3.2358,7.30682 4.22,9.38831 0.76234,1.61469 1.62568,1.77012 2.5072,0.0466 2.303,-5.25712 9.0414,-21.070888 9.0414,-21.070888 0.29186,-0.776779 0.69256,-1.371568 1.21384,-1.805425 0.51984,-0.430877 1.32174,-0.672964 2.405,-0.722162 0.22072,0 0.32898,-0.101574 0.32898,-0.302843 v -0.745461 l -0.0794,-0.08156 h -8.27 l -0.1022,0.08156 v 0.745461 c 0,0.08798 0.038,0.154491 0.1134,0.209668 0.077,0.05818 0.154,0.09319 0.23822,0.09319 l 0.69202,0.03498 c 0.848,0.03578 1.07852,0.208629 1.40668,0.500853 0.32672,0.299664 0.36756,0.807237 0.1134,1.525879 l -7.317,17.833058 -0.2836,-0.0815 -4.6512,-9.74929 c 0.004,-0.009 0.1134,-0.232964 0.1134,-0.232964 l 3.8004,-7.303213 c 0.4429,-0.77082 0.8727,-1.461583 1.08906,-1.782146 0.39642,-0.585929 0.6184,-0.693283 1.70164,-0.745461 0.22072,0 0.329,-0.09859 0.329,-0.302863 v -0.733822 l -0.0794,-0.08153 c 0,0 -1.16492,-0.0098 -2.5864,-0.0118 z"
     id="path3" />
</svg>
