<?xml version="1.0" encoding="UTF-8" standalone="no"?>
<svg
   width="62"
   height="62"
   version="1.1"
   id="svg9"
   sodipodi:docname="windscribe.svg"
   inkscape:version="1.4 (unknown)"
   xmlns:inkscape="http://www.inkscape.org/namespaces/inkscape"
   xmlns:sodipodi="http://sodipodi.sourceforge.net/DTD/sodipodi-0.dtd"
   xmlns="http://www.w3.org/2000/svg"
   xmlns:svg="http://www.w3.org/2000/svg">
  <defs
     id="defs9" />
  <sodipodi:namedview
     id="namedview9"
     pagecolor="#ffffff"
     bordercolor="#000000"
     borderopacity="0.25"
     inkscape:showpageshadow="2"
     inkscape:pageopacity="0.0"
     inkscape:pagecheckerboard="0"
     inkscape:deskcolor="#d1d1d1"
     inkscape:zoom="5"
     inkscape:cx="22.3"
     inkscape:cy="72.7"
     inkscape:window-width="1920"
     inkscape:window-height="998"
     inkscape:window-x="0"
     inkscape:window-y="0"
     inkscape:window-maximized="1"
     inkscape:current-layer="svg9" />
  <g
     id="g9"
     transform="translate(-0.49999949,-0.49912982)">
    <path
       style="opacity:0.2;stroke-width:0.982295"
       d="M 30.778728,4.9806276 A 2.3792488,2.3790025 0 0 0 29.873315,5.1840234 L 12.2945,13.005175 a 2.3792488,2.3790025 0 0 0 -1.254533,1.320157 L 4.1381134,32.285578 a 2.3792488,2.3790025 0 0 0 -0.034525,0.203399 2.3792488,2.3790025 0 0 0 0.084401,1.615656 l 7.8149386,17.57648 a 2.3792488,2.3790025 0 0 0 1.323594,1.254916 l 17.958622,6.90395 a 2.3792488,2.3790025 0 0 0 1.822334,-0.04608 l 17.578817,-7.821144 a 2.3792488,2.3790025 0 0 0 1.254535,-1.320156 l 6.901853,-17.960243 a 2.3792488,2.3790025 0 0 0 0.06519,-0.203396 2.3792488,2.3790025 0 0 0 -0.111257,-1.615657 L 50.974034,13.292999 A 2.3792488,2.3790025 0 0 0 49.654281,12.041921 L 31.69565,5.1379719 A 2.3792488,2.3790025 0 0 0 30.778728,4.9806276 Z"
       id="path1" />
    <path
       style="fill:#3f3f3f;stroke-width:0.982295"
       d="M 30.785873,4.6892003 A 2.3197075,2.3194673 0 0 0 29.903166,4.8882494 L 12.765071,12.51235 a 2.3197075,2.3194673 0 0 0 -1.223216,1.288577 L 4.8128659,31.309376 a 2.3197075,2.3194673 0 0 0 -0.034049,0.199054 2.3197075,2.3194673 0 0 0 0.081199,1.576677 l 7.6221701,17.136544 a 2.3197075,2.3194673 0 0 0 1.288695,1.223104 l 17.510041,6.728373 a 2.3197075,2.3194673 0 0 0 1.775886,-0.04452 l 17.140718,-7.62409 a 2.3197075,2.3194673 0 0 0 1.220595,-1.288581 L 58.14711,31.707486 a 2.3197075,2.3194673 0 0 0 0.06547,-0.199051 2.3197075,2.3194673 0 0 0 -0.110001,-1.576684 L 50.477784,12.7926 A 2.3197075,2.3194673 0 0 0 49.189092,11.572104 L 31.679058,4.8437253 a 2.3197075,2.3194673 0 0 0 -0.893185,-0.154525 z"
       id="path2" />
    <path
       style="fill:#2d3d53;stroke-width:0.982295;fill-opacity:1"
       d="m 4.1033443,31.508382 a 2.3792488,2.3790025 0 0 0 0.083283,1.617145 l 7.8178137,17.576399 a 2.3792488,2.3790025 0 0 0 1.321775,1.254499 l 17.959475,6.901081 a 2.3792488,2.3790025 0 0 0 1.821473,-0.04568 l 17.580683,-7.81979 a 2.3792488,2.3790025 0 0 0 1.251924,-1.321655 L 58.841475,31.71254 a 2.3792488,2.3790025 0 0 0 0.06716,-0.204163 z"
       id="path3" />
    <path
       style="fill:#c6afe9;stroke-width:0.982295"
       d="M 30.777938,4.0007682 A 2.3792488,2.3790025 0 0 0 29.872579,4.2049257 L 12.294588,12.02472 a 2.3792488,2.3790025 0 0 0 -1.254612,1.321655 L 4.1382689,31.304223 a 2.3792488,2.3790025 0 0 0 -0.034928,0.204159 H 58.90864 A 2.3792488,2.3790025 0 0 0 58.795811,29.891236 L 50.975306,12.312152 A 2.3792488,2.3790025 0 0 0 49.653531,11.06034 L 31.69405,4.1592595 A 2.3792488,2.3790025 0 0 0 30.777938,4.0007682 Z"
       id="path4" />
    <path
       style="opacity:0.2;stroke-width:0.982295"
       d="m 17.750001,20.701506 v 22.349561 1.229013 h 5.303954 0.196038 v -0.04316 c 0.421865,-0.09808 1.587722,-0.423519 2.304196,-1.185839 l 5.945799,-6.326374 5.945802,6.326378 c 0.716475,0.76232 1.882332,1.087769 2.304198,1.185841 v 0.04316 h 0.196037 5.303951 V 43.051067 20.701506 h -5.892845 v 16.104472 l -7.857137,-8.775767 -7.857146,8.775767 V 20.701506 Z"
       id="path5" />
    <path
       style="fill:#ffffff;stroke-width:0.982295"
       d="m 17.750001,19.719063 v 22.349566 1.229012 h 5.303954 0.196038 v -0.04316 c 0.421865,-0.09806 1.587722,-0.42352 2.304196,-1.185835 l 5.945799,-6.326374 5.945802,6.326378 c 0.716475,0.762314 1.882332,1.087764 2.304198,1.185837 v 0.04316 h 0.196037 5.303951 V 42.068629 19.719063 h -5.892845 v 16.104474 l -7.857137,-8.775769 -7.857146,8.775769 V 19.719063 Z"
       id="path6" />
    <g
       transform="matrix(1.9807753,0,0,1.9813772,-0.18213326,-0.19345602)"
       id="g8">
      <path
         style="fill:#2d3d53;fill-opacity:1"
         d="m 15.683016,4.1003315 a 1.0295392,1.0291201 0 0 0 -0.392527,0.088865 L 7.6847613,7.5715277 A 1.0295392,1.0291201 0 0 0 7.1417885,8.1429974 L 4.1547523,15.911149 a 1.0295392,1.0291201 0 0 0 -0.015045,0.08887 h 1.3950444 a 0.90841683,0.908047 0 0 1 0.013676,-0.07793 L 8.182601,9.0671912 A 0.90841683,0.908047 0 0 1 8.6626605,8.5627125 L 15.373918,5.5782218 a 0.90841683,0.908047 0 0 1 0.344658,-0.077928 0.90841683,0.908047 0 0 1 0.350129,0.060154 l 6.857601,2.6344994 a 0.90841683,0.908047 0 0 1 0.504677,0.478503 l 2.985668,6.7099768 a 0.90841683,0.908047 0 0 1 0.0424,0.616586 h 1.396413 a 1.0295392,1.0291201 0 0 0 -0.04923,-0.699981 L 24.422558,7.6959388 A 1.0295392,1.0291201 0 0 0 23.849496,7.1545468 L 16.078279,4.168689 a 1.0295392,1.0291201 0 0 0 -0.395263,-0.068357 z"
         id="path7" />
      <path
         style="fill:#aa87de"
         d="m 4.1397077,16.000014 a 1.0295392,1.0291201 0 0 0 0.03556,0.699982 l 3.3836666,7.602726 a 1.0295392,1.0291201 0 0 0 0.5716944,0.54276 l 7.7712183,2.985857 a 1.0295392,1.0291201 0 0 0 0.78779,-0.02051 l 7.608462,-3.382332 a 1.0295392,1.0291201 0 0 0 0.541605,-0.571469 l 2.985668,-7.76815 a 1.0295392,1.0291201 0 0 0 0.03009,-0.08886 h -1.396413 a 0.90841683,0.908047 0 0 1 -0.02462,0.07793 l -2.63554,6.854895 a 0.90841683,0.908047 0 0 1 -0.47732,0.504479 l -6.712626,2.98449 a 0.90841683,0.908047 0 0 1 -0.696154,0.01777 L 9.0565553,23.80508 A 0.90841683,0.908047 0 0 1 8.5518776,23.326577 L 5.566209,16.617966 A 0.90841683,0.908047 0 0 1 5.534752,16.000014 Z"
         id="path8" />
    </g>
    <path
       style="opacity:0.1;fill:#ffffff;stroke-width:0.982295"
       d="M 30.778739,3.999985 A 2.3792488,2.3790025 0 0 0 29.873325,4.203381 L 12.294503,12.024534 A 2.3792488,2.3790025 0 0 0 11.03997,13.344693 L 4.1381138,31.304945 a 2.3792488,2.3790025 0 0 0 -0.034526,0.203397 2.3792488,2.3790025 0 0 0 -0.021098,1.157057 2.3792488,2.3790025 0 0 1 0.021098,-0.174614 2.3792488,2.3790025 0 0 1 0.034526,-0.203396 L 11.03997,14.327129 a 2.3792488,2.3790025 0 0 1 1.254533,-1.320151 L 29.873325,5.1858218 a 2.3792488,2.3790025 0 0 1 0.905414,-0.203396 2.3792488,2.3790025 0 0 1 0.916922,0.1573446 l 17.958635,6.9039536 a 2.3792488,2.3790025 0 0 1 1.319755,1.251079 l 7.822615,17.580326 a 2.3792488,2.3790025 0 0 1 0.151541,0.47011 2.3792488,2.3790025 0 0 0 -0.151541,-1.452553 L 50.974051,12.312359 A 2.3792488,2.3790025 0 0 0 49.654296,11.06128 L 31.695661,4.1573288 A 2.3792488,2.3790025 0 0 0 30.778739,3.999985 Z"
       id="path9" />
  </g>
</svg>
