<?xml version="1.0" encoding="UTF-8" standalone="no"?>
<svg
   width="62"
   height="62"
   version="1.1"
   id="svg7"
   sodipodi:docname="wolfram-player.svg"
   inkscape:version="1.4 (unknown)"
   xmlns:inkscape="http://www.inkscape.org/namespaces/inkscape"
   xmlns:sodipodi="http://sodipodi.sourceforge.net/DTD/sodipodi-0.dtd"
   xmlns:xlink="http://www.w3.org/1999/xlink"
   xmlns="http://www.w3.org/2000/svg"
   xmlns:svg="http://www.w3.org/2000/svg">
  <defs
     id="defs7">
    <linearGradient
       inkscape:collect="always"
       xlink:href="#linearGradient8"
       id="linearGradient10"
       x1="31.5"
       y1="59.017544"
       x2="31.5"
       y2="4.9824562"
       gradientUnits="userSpaceOnUse"
       gradientTransform="translate(-0.5,-1)" />
    <linearGradient
       id="linearGradient8"
       inkscape:collect="always">
      <stop
         style="stop-color:#2d3d53;stop-opacity:1;"
         offset="0"
         id="stop8" />
      <stop
         style="stop-color:#354864;stop-opacity:1;"
         offset="1"
         id="stop10" />
    </linearGradient>
    <linearGradient
       id="paint3_linear_332_93"
       x1="37.304401"
       y1="24.2272"
       x2="23.255199"
       y2="12.9039"
       gradientUnits="userSpaceOnUse"
       gradientTransform="matrix(1,0,0,1.0089403,-0.9999998,-0.28624446)">
      <stop
         stop-color="#731FFF"
         id="stop9" />
      <stop
         offset="0.905415"
         stop-color="#EB1AFF"
         id="stop10-5" />
    </linearGradient>
    <linearGradient
       id="paint1_linear_332_93"
       x1="2"
       y1="61.696899"
       x2="14.6751"
       y2="28.2421"
       gradientUnits="userSpaceOnUse"
       gradientTransform="matrix(0.91578336,0,0,1,1.7216248,-7.2011443)">
      <stop
         stop-color="#731FFF"
         id="stop5" />
      <stop
         offset="0.905415"
         stop-color="#EB1AFF"
         id="stop6" />
    </linearGradient>
    <linearGradient
       id="paint2_linear_332_93"
       x1="54.645401"
       y1="46.748501"
       x2="26.243099"
       y2="10.4978"
       gradientUnits="userSpaceOnUse"
       gradientTransform="matrix(0.91578336,0,0,1,1.7216248,-7.2011443)">
      <stop
         offset="0.118093"
         stop-color="#731FFF"
         id="stop7" />
      <stop
         offset="0.905415"
         stop-color="#EB1AFF"
         id="stop8-3" />
    </linearGradient>
    <linearGradient
       id="linearGradient4"
       x1="16"
       x2="47"
       y1="16"
       y2="48"
       gradientUnits="userSpaceOnUse"
       gradientTransform="matrix(1.1935485,0,0,1.1875,-6.5967725,-6.999994)">
      <stop
         stop-color="#ffffff"
         offset="0"
         id="stop1" />
      <stop
         stop-color="#ffffff"
         offset=".45161"
         id="stop2" />
      <stop
         stop-color="#fef0cb"
         offset=".59375"
         id="stop3" />
      <stop
         stop-color="#ffbcc3"
         offset="1"
         id="stop4" />
    </linearGradient>
    <linearGradient
       id="paint0_linear_19_69"
       x1="13.5381"
       y1="7.6556602"
       x2="19.187599"
       y2="7.6556602"
       gradientUnits="userSpaceOnUse"
       gradientTransform="matrix(1.818183,0,0,1.818183,11.458092,11.928816)">
      <stop
         stop-color="#02AA93"
         id="stop3-5" />
      <stop
         offset="1"
         stop-color="#67FF80"
         id="stop4-3" />
    </linearGradient>
    <linearGradient
       id="paint1_linear_19_69"
       x1="13.5426"
       y1="5.74156"
       x2="23"
       y2="5.74156"
       gradientUnits="userSpaceOnUse"
       gradientTransform="matrix(1.818183,0,0,1.818183,11.458092,11.928816)">
      <stop
         stop-color="#02AA93"
         id="stop5-5" />
      <stop
         offset="1"
         stop-color="#67FF80"
         id="stop6-6" />
    </linearGradient>
    <linearGradient
       id="paint2_linear_19_69"
       x1="1"
       y1="12.425"
       x2="22.2339"
       y2="12.425"
       gradientUnits="userSpaceOnUse"
       gradientTransform="matrix(1.818183,0,0,1.818183,11.458092,11.928816)">
      <stop
         stop-color="#02AA93"
         id="stop7-2" />
      <stop
         offset="1"
         stop-color="#67FF80"
         id="stop8-9" />
    </linearGradient>
  </defs>
  <sodipodi:namedview
     id="namedview7"
     pagecolor="#ffffff"
     bordercolor="#000000"
     borderopacity="0.25"
     inkscape:showpageshadow="2"
     inkscape:pageopacity="0.0"
     inkscape:pagecheckerboard="0"
     inkscape:deskcolor="#d1d1d1"
     inkscape:zoom="8.3085046"
     inkscape:cx="34.242022"
     inkscape:cy="38.093498"
     inkscape:window-width="1920"
     inkscape:window-height="998"
     inkscape:window-x="0"
     inkscape:window-y="0"
     inkscape:window-maximized="1"
     inkscape:current-layer="svg7"
     showgrid="false">
    <inkscape:grid
       id="grid1"
       units="px"
       originx="0"
       originy="0"
       spacingx="1"
       spacingy="1"
       empcolor="#0099e5"
       empopacity="0.30196078"
       color="#0099e5"
       opacity="0.14901961"
       empspacing="5"
       enabled="true"
       visible="false" />
  </sodipodi:namedview>
  <rect
     style="opacity:0.2;stroke-width:0.9823"
     width="55"
     height="55.017544"
     x="3.5"
     y="3.9824562"
     rx="8.25"
     ry="8.2526312"
     id="rect1" />
  <rect
     style="fill:url(#linearGradient10);stroke-width:0.9823"
     width="55"
     height="55.017544"
     x="3.5"
     y="3"
     rx="8.25"
     ry="8.2526312"
     id="rect2" />
  <path
     style="opacity:0.1;fill:#ffffff;stroke-width:0.9823"
     d="M 11.748466,3 C 7.1779652,3 3.5,6.679138 3.5,11.251097 v 0.982456 c 0,-4.571959 3.6779652,-8.251097 8.248466,-8.251097 h 38.503068 c 4.5705,0 8.248466,3.679138 8.248466,8.251097 V 11.251097 C 58.5,6.679138 54.822034,3 50.251534,3 Z"
     id="path4-3" />
  <g
     id="g1"
     transform="matrix(1.5192308,0,0,1.5172056,-14.989505,-95.973867)">
    <path
       style="opacity:0.2;fill-rule:evenodd"
       d="m 30.179454,70.359913 a 0.77886426,0.80008594 0 0 0 -0.705015,0.395837 l -2.332302,4.102113 -4.234651,-1.909649 a 0.77886426,0.80008594 0 0 0 -1.087817,0.812245 l 0.460376,4.727379 -4.518583,1.011986 a 0.77886426,0.80008594 0 0 0 -0.415505,1.314073 l 3.077372,3.54664 -3.076865,3.547162 a 0.77886426,0.80008594 0 0 0 0.415758,1.313812 l 4.518838,1.010945 -0.459363,4.727379 a 0.77886426,0.80008594 0 0 0 1.08807,0.811985 l 4.234397,-1.910432 2.333317,4.101593 a 0.77886426,0.80008594 0 0 0 1.344877,-2.66e-4 l 2.332556,-4.102114 4.234398,1.909389 a 0.77886426,0.80008594 0 0 0 1.08807,-0.812246 l -0.460378,-4.726857 4.518584,-1.012248 a 0.77886426,0.80008594 0 0 0 0.415506,-1.314072 l -3.077373,-3.546373 3.076865,-3.547422 A 0.77886426,0.80008594 0 0 0 42.534828,79.49696 l -4.51909,-1.010945 0.459362,-4.727378 a 0.77886426,0.80008594 0 0 0 -1.08807,-0.811986 l -4.234144,1.910691 -2.333571,-4.101853 a 0.77886426,0.80008594 0 0 0 -0.639861,-0.395576 z"
       id="path1-6" />
    <path
       style="fill:#c83771;fill-rule:evenodd"
       d="m 30.179454,69.359913 a 0.77886426,0.80008594 0 0 0 -0.705015,0.395837 l -2.332302,4.102113 -4.234651,-1.909649 a 0.77886426,0.80008594 0 0 0 -1.087817,0.812245 l 0.460376,4.727379 -4.518583,1.011986 a 0.77886426,0.80008594 0 0 0 -0.415505,1.314073 l 3.077372,3.54664 -3.076865,3.547162 a 0.77886426,0.80008594 0 0 0 0.415758,1.313812 l 4.518838,1.010945 -0.459363,4.727379 a 0.77886426,0.80008594 0 0 0 1.08807,0.811985 l 4.234397,-1.910432 2.333317,4.101593 a 0.77886426,0.80008594 0 0 0 1.344877,-2.66e-4 l 2.332556,-4.102114 4.234398,1.909389 a 0.77886426,0.80008594 0 0 0 1.08807,-0.812246 l -0.460378,-4.726857 4.518584,-1.012248 a 0.77886426,0.80008594 0 0 0 0.415506,-1.314072 l -3.077373,-3.546373 3.076865,-3.547422 A 0.77886426,0.80008594 0 0 0 42.534828,78.49696 l -4.51909,-1.010945 0.459362,-4.727379 a 0.77886426,0.80008594 0 0 0 -1.08807,-0.811985 l -4.234144,1.910691 -2.333571,-4.101853 a 0.77886426,0.80008594 0 0 0 -0.639861,-0.395576 z"
       id="path2-7" />
    <path
       style="opacity:0.2;fill:#ffffff;fill-rule:evenodd"
       d="m 30.179775,69.359217 a 0.77886426,0.80008594 0 0 0 -0.705078,0.396484 l -2.332031,4.101563 -4.234375,-1.908203 A 0.77886426,0.80008594 0 0 0 21.8204,72.759608 l 0.05859,0.607422 a 0.77886426,0.80008594 0 0 1 1.029297,-0.417969 l 4.234375,1.908203 2.332031,-4.101563 a 0.77886426,0.80008594 0 0 1 0.705078,-0.396484 0.77886426,0.80008594 0 0 1 0.638672,0.396484 l 2.333984,4.101563 4.234375,-1.910156 a 0.77886426,0.80008594 0 0 1 1.029297,0.416015 l 0.05859,-0.603515 a 0.77886426,0.80008594 0 0 0 -1.087891,-0.8125 l -4.234367,1.910156 -2.333984,-4.101563 a 0.77886426,0.80008594 0 0 0 -0.638672,-0.396484 z m 7.931641,8.148438 -0.0957,0.978515 4.519531,1.011719 a 0.77886426,0.80008594 0 0 1 0.441406,0.28125 0.77886426,0.80008594 0 0 0 -0.441406,-1.28125 z m -15.927735,0.002 -4.421875,0.990234 a 0.77886426,0.80008594 0 0 0 -0.441406,1.28125 0.77886426,0.80008594 0 0 1 0.441406,-0.28125 l 4.517578,-1.011719 z m 18.123047,6.347656 -0.433594,0.5 3.078125,3.546875 a 0.77886426,0.80008594 0 0 1 0.02539,0.0332 0.77886426,0.80008594 0 0 0 -0.02539,-1.033203 z m -20.316406,0.0039 -2.644531,3.046875 a 0.77886426,0.80008594 0 0 0 -0.02539,1.03125 0.77886426,0.80008594 0 0 1 0.02539,-0.03125 l 3.078125,-3.546875 z m 18.123047,6.347656 -0.0957,0.02148 0.40039,4.121094 a 0.77886426,0.80008594 0 0 0 0.05859,-0.394532 z m -15.927735,0.002 -0.363281,3.75 a 0.77886426,0.80008594 0 0 0 0.05859,0.394532 l 0.400391,-4.123047 z"
       id="path3" />
    <path
       style="opacity:0.2"
       d="m 29.138759,77.359217 c -3.369444,-3.9e-5 -5.990338,2.836537 -5.990234,6.171875 4.8e-5,3.335228 2.366991,5.828165 5.736328,5.828125 4.24755,-0.275136 5.09163,-6.386296 1.386719,-5.669922 -0.0447,0.145175 1.03998,0.564994 1.117187,1.326172 0.151752,1.496105 -1.032741,2.397306 -2.509765,2.113281 -1.079142,-0.207513 -2.381769,-1.120205 -2.634766,-2.029297 -0.233922,-0.840551 -0.11755,-1.849592 0.130859,-2.519531 1.17278,-3.16288 5.313848,-4.000599 6.773438,-3.960937 -1.141928,-0.859893 -2.397716,-1.258117 -4.009766,-1.259766 z m 2.273438,3 c -4.247551,0.275136 -5.091631,6.386296 -1.386719,5.669922 0.0447,-0.145175 -1.03998,-0.564994 -1.117187,-1.326172 -0.151752,-1.496105 1.032741,-2.397306 2.509765,-2.113281 1.079142,0.207513 2.381769,1.120205 2.634766,2.029297 0.233922,0.840551 0.117549,1.849592 -0.130859,2.519531 -1.172779,3.16288 -5.313847,4.000599 -6.773438,3.960937 1.141929,0.859892 2.397716,1.258117 4.009766,1.259766 3.369444,3.9e-5 5.990338,-2.836537 5.990234,-6.171875 -4.8e-5,-3.335228 -2.366991,-5.828165 -5.736328,-5.828125 z"
       id="path4" />
    <path
       style="fill:#ffffff"
       d="m 29.138759,76.359217 c -3.369444,-3.9e-5 -5.990338,2.836537 -5.990234,6.171875 4.8e-5,3.335228 2.366991,5.828165 5.736328,5.828125 4.24755,-0.275136 5.09163,-6.386296 1.386719,-5.669922 -0.0447,0.145175 1.03998,0.564994 1.117187,1.326172 0.151752,1.496105 -1.032741,2.397306 -2.509765,2.113281 -1.079142,-0.207513 -2.381769,-1.120205 -2.634766,-2.029297 -0.233922,-0.840551 -0.11755,-1.849592 0.130859,-2.519531 1.17278,-3.16288 5.313848,-4.000599 6.773438,-3.960937 -1.141928,-0.859893 -2.397716,-1.258117 -4.009766,-1.259766 z m 2.273438,3 c -4.247551,0.275136 -5.091631,6.386296 -1.386719,5.669922 0.0447,-0.145175 -1.03998,-0.564994 -1.117187,-1.326172 -0.151752,-1.496105 1.032741,-2.397306 2.509765,-2.113281 1.079142,0.207513 2.381769,1.120205 2.634766,2.029297 0.233922,0.840551 0.117549,1.849592 -0.130859,2.519531 -1.172779,3.16288 -5.313847,4.000599 -6.773438,3.960937 1.141929,0.859892 2.397716,1.258117 4.009766,1.259766 3.369444,3.9e-5 5.990338,-2.836537 5.990234,-6.171875 -4.8e-5,-3.335228 -2.366991,-5.828165 -5.736328,-5.828125 z"
       id="path5" />
  </g>
</svg>
