<?xml version="1.0" encoding="UTF-8" standalone="no"?>
<svg
   clip-rule="evenodd"
   fill-rule="evenodd"
   stroke-linejoin="round"
   stroke-miterlimit="2"
   viewBox="0 0 62 62"
   version="1.1"
   id="svg10"
   sodipodi:docname="Worker.svg"
   width="62"
   height="62"
   inkscape:version="1.4 (e7c3feb100, 2024-10-09)"
   xmlns:inkscape="http://www.inkscape.org/namespaces/inkscape"
   xmlns:sodipodi="http://sodipodi.sourceforge.net/DTD/sodipodi-0.dtd"
   xmlns="http://www.w3.org/2000/svg"
   xmlns:svg="http://www.w3.org/2000/svg">
  <defs
     id="defs10" />
  <sodipodi:namedview
     id="namedview10"
     pagecolor="#ffffff"
     bordercolor="#000000"
     borderopacity="0.25"
     inkscape:showpageshadow="2"
     inkscape:pageopacity="0.0"
     inkscape:pagecheckerboard="0"
     inkscape:deskcolor="#d1d1d1"
     inkscape:zoom="7.7180575"
     inkscape:cx="34.205498"
     inkscape:cy="32.39157"
     inkscape:window-width="1920"
     inkscape:window-height="998"
     inkscape:window-x="0"
     inkscape:window-y="0"
     inkscape:window-maximized="1"
     inkscape:current-layer="svg10" />
  <linearGradient
     id="a"
     x2="1"
     gradientTransform="matrix(0,-46.799983,46.799983,0,632.48571,54.413883)"
     gradientUnits="userSpaceOnUse">
    <stop
       stop-color="#566069"
       offset="0"
       id="stop1" />
    <stop
       stop-color="#6c7884"
       offset="1"
       id="stop2" />
  </linearGradient>
  <path
     d="M 50.952003,3 C 55.394683,3 59,6.6053166 59,11.047997 V 50.952003 C 59,55.394683 55.394683,59 50.952003,59 H 11.047997 C 6.6053166,59 3,55.394683 3,50.952003 V 11.047997 C 3,6.6053166 6.6053166,3 11.047997,3 Z"
     id="path2"
     style="fill:#476085;fill-opacity:1" />
  <path
     d="M 3,12.376408 V 11.047997 C 3,6.6053166 6.6053166,3 11.047997,3 H 50.952003 C 55.394683,3 59,6.6053166 59,11.047997 v 1.328411 z"
     fill-opacity="1"
     id="path3"
     style="stroke-width:1.29223;fill:#975cf6;fill-opacity:1" />
  <path
     d="m 54.575592,7.887999 c 0,1.381249 -1.11925,2.500001 -2.499999,2.500001 -1.380751,0 -2.5,-1.118752 -2.5,-2.500001 0,-1.381249 1.119249,-2.499999 2.5,-2.499999 1.380749,0 2.499999,1.11875 2.499999,2.499999 z"
     id="path445"
     style="fill:#ffffff;fill-opacity:1;stroke-width:1.24999" />
  <path
     style="opacity:0.1"
     d="m 6,15.013683 v 31 h 25 25 v -31 H 31 Z m 0,34 v 3 h 17 v -3 z m 20,0 v 3 h 8 v -3 z m 11,0 v 3 h 8 v -3 z m 11,0 v 3 h 8 v -3 z m -42,5 v 3 h 17 v -3 z m 20,0 v 3 h 8 v -3 z m 11,0 v 3 h 8 v -3 z m 11,0 v 3 h 8 v -3 z"
     id="path3-7" />
  <rect
     style="fill:#ffffff"
     width="50"
     height="31"
     x="6"
     y="14.013683"
     id="rect5" />
  <rect
     style="fill:#e6e6e6"
     width="25"
     height="31"
     x="31"
     y="14.013683"
     id="rect6" />
  <rect
     style="fill:#e6e6e6"
     width="17"
     height="3"
     x="6"
     y="48.013683"
     id="rect7" />
  <rect
     style="fill:#e6e6e6"
     width="8"
     height="3"
     x="26"
     y="48.013683"
     id="rect8" />
  <rect
     style="fill:#eb3f3f"
     width="8"
     height="3"
     x="37"
     y="48.013683"
     id="rect9" />
  <rect
     style="fill:#e6e6e6"
     width="8"
     height="3"
     x="48"
     y="48.013683"
     id="rect10" />
  <rect
     style="fill:#bf46e4"
     width="17"
     height="3"
     x="6"
     y="53.013683"
     id="rect11" />
  <rect
     style="fill:#e6e6e6"
     width="8"
     height="3"
     x="26"
     y="53.013683"
     id="rect12" />
  <rect
     style="fill:#e6e6e6"
     width="8"
     height="3"
     x="37"
     y="53.013683"
     id="rect13" />
  <rect
     style="fill:#157ae9"
     width="8"
     height="3"
     x="48"
     y="53.013683"
     id="rect14" />
</svg>
