<?xml version="1.0" encoding="UTF-8" standalone="no"?>
<svg
   width="62"
   height="62"
   version="1"
   id="svg9"
   sodipodi:docname="world-of-tanks.svg"
   inkscape:version="1.4 (e7c3feb100, 2024-10-09)"
   xmlns:inkscape="http://www.inkscape.org/namespaces/inkscape"
   xmlns:sodipodi="http://sodipodi.sourceforge.net/DTD/sodipodi-0.dtd"
   xmlns:xlink="http://www.w3.org/1999/xlink"
   xmlns="http://www.w3.org/2000/svg"
   xmlns:svg="http://www.w3.org/2000/svg">
  <defs
     id="defs9">
    <linearGradient
       id="linearGradient9"
       inkscape:collect="always">
      <stop
         style="stop-color:#233243;stop-opacity:1;"
         offset="0"
         id="stop9" />
      <stop
         style="stop-color:#3f5473;stop-opacity:1;"
         offset="1"
         id="stop10" />
    </linearGradient>
    <linearGradient
       inkscape:collect="always"
       xlink:href="#linearGradient9"
       id="linearGradient10"
       x1="31.446808"
       y1="60"
       x2="31.978724"
       y2="5.0000005"
       gradientUnits="userSpaceOnUse" />
  </defs>
  <sodipodi:namedview
     id="namedview9"
     pagecolor="#ffffff"
     bordercolor="#000000"
     borderopacity="0.25"
     inkscape:showpageshadow="2"
     inkscape:pageopacity="0.0"
     inkscape:pagecheckerboard="0"
     inkscape:deskcolor="#d1d1d1"
     inkscape:zoom="11.75"
     inkscape:cx="32"
     inkscape:cy="32"
     inkscape:window-width="1920"
     inkscape:window-height="998"
     inkscape:window-x="0"
     inkscape:window-y="0"
     inkscape:window-maximized="1"
     inkscape:current-layer="svg9" />
  <g
     id="g9"
     transform="matrix(1,0,0,0.98245615,-0.5,-0.92982463)">
    <path
       style="opacity:0.2"
       d="m 24.333333,5.0000007 c -1.520474,2.858e-4 -2.978579,0.5904334 -4.053647,1.6406564 l -8.599998,8.4001599 c -0.940531,0.920912 -1.508081,2.115515 -1.643187,3.370321 L 10,21.800322 v 18.53942 c 2.93e-4,1.485144 0.604479,2.909364 1.679688,3.95945 l 5.559766,5.430574 5.906899,5.430574 4.3,4.20008 c 2.239039,2.186106 5.868255,2.186106 8.107292,0 l 4.3,-4.20008 5.906902,-5.430574 5.559764,-5.430574 C 52.39552,43.249106 52.999707,41.824886 53,40.339742 v -18.53942 l -0.0078,-2.957324 c -0.0395,-1.410136 -0.624148,-2.775967 -1.671964,-3.802181 l -8.6,-8.4001599 C 41.645246,5.5904341 40.187141,5.0002865 38.666667,5.0000007 Z"
       id="path1" />
    <path
       style="fill:url(#linearGradient10)"
       d="m 24.333333,4.0000002 c -1.520474,2.858e-4 -2.978579,0.5904334 -4.053647,1.6406564 l -8.599998,8.4001604 c -0.940531,0.920912 -1.508081,2.115515 -1.643187,3.370321 L 10,20.800322 v 18.53942 c 2.93e-4,1.485144 0.604479,2.909364 1.679688,3.95945 l 5.559766,5.430574 5.906899,5.430574 4.3,4.20008 c 2.239039,2.186106 5.868255,2.186106 8.107292,0 l 4.3,-4.20008 5.906902,-5.430574 5.559764,-5.430574 C 52.39552,42.249106 52.999707,40.824886 53,39.339742 V 20.800322 L 52.9922,17.842998 C 52.9527,16.432862 52.368052,15.06703 51.320236,14.040817 l -8.6,-8.4001604 C 41.645246,4.5904336 40.187141,4.000286 38.666667,4.0000002 Z"
       id="path2" />
    <path
       style="opacity:0.2"
       d="M 24.955078,11 16.5,19 H 28 V 50.777344 L 32,55 36,50.777344 V 19 H 47.5 L 39.044922,11 Z M 17,22 v 19.1875 l 5.207031,5.076172 5.585938,-5.728516 L 25,37.8125 V 22 Z m 22,0 v 15.8125 l -2.792969,2.722656 5.585938,5.728516 L 47,41.1875 V 22 Z"
       id="path3" />
    <path
       style="fill:#bfc1be;fill-opacity:1"
       d="m 28,16 h 8 V 49.777778 L 32,54 28,49.777778 Z"
       id="path4" />
    <path
       style="fill:none;stroke:#bfc1be;stroke-width:8;stroke-opacity:1"
       d="m 21,21 v 17.5 l 4,3.9"
       id="path5" />
    <path
       style="fill:none;stroke:#bfc1be;stroke-width:8;stroke-opacity:1"
       d="m 43,21 v 17.5 l -4,3.9"
       id="path6" />
    <path
       style="fill:#bfc1be;fill-opacity:1"
       d="M 39.045455,10 47.5,18 h -31 l 8.454545,-8 z"
       id="path7" />
    <path
       style="opacity:0.2;fill:#ffffff"
       d="M 24.955078,10 16.5,18 h 1.056641 l 7.398437,-7 h 14.089844 l 7.398437,7 H 47.5 L 39.044922,10 Z M 17,21 v 1 h 8 v -1 z m 22,0 v 1 h 8 V 21 Z M 25,36.8125 v 1 l 2.292969,2.234375 0.5,-0.511719 z m 14,0 -2.792969,2.722656 0.5,0.511719 L 39,37.8125 Z"
       id="path8" />
    <path
       style="opacity:0.1;fill:#ffffff"
       d="m 24.333984,4 c -1.520474,2.858e-4 -2.979619,0.590402 -4.054687,1.640625 l -8.599609,8.400391 c -0.940532,0.920912 -1.507473,2.116287 -1.642579,3.371093 L 10,20.800781 v 1 l 0.03711,-3.388672 c 0.135106,-1.254806 0.702047,-2.450181 1.642579,-3.371093 L 20.279297,6.640625 C 21.354365,5.590402 22.81351,5.0002858 24.333984,5 h 14.332032 c 1.520474,2.858e-4 2.979697,0.590402 4.054687,1.640625 l 8.599609,8.400391 c 1.047817,1.026214 1.632376,2.392598 1.671876,3.802734 L 53,21.800781 v -1 L 52.9922,17.84375 C 52.9527,16.433614 52.368141,15.067229 51.320324,14.041016 L 42.720703,5.640625 C 41.645713,4.590402 40.18649,4.0002858 38.666016,4 Z"
       id="path9" />
  </g>
</svg>
