<?xml version="1.0" encoding="UTF-8" standalone="no"?>
<svg
   width="62"
   height="62"
   version="1.1"
   id="svg7"
   sodipodi:docname="x2-the-threat.svg"
   inkscape:version="1.4 (unknown)"
   xmlns:inkscape="http://www.inkscape.org/namespaces/inkscape"
   xmlns:sodipodi="http://sodipodi.sourceforge.net/DTD/sodipodi-0.dtd"
   xmlns:xlink="http://www.w3.org/1999/xlink"
   xmlns="http://www.w3.org/2000/svg"
   xmlns:svg="http://www.w3.org/2000/svg">
  <defs
     id="defs7">
    <linearGradient
       inkscape:collect="always"
       xlink:href="#linearGradient8"
       id="linearGradient10"
       x1="31.5"
       y1="59.017544"
       x2="31.5"
       y2="4.9824562"
       gradientUnits="userSpaceOnUse"
       gradientTransform="translate(-0.5,-1)" />
    <linearGradient
       id="linearGradient8"
       inkscape:collect="always">
      <stop
         style="stop-color:#2d3d53;stop-opacity:1;"
         offset="0"
         id="stop8" />
      <stop
         style="stop-color:#354864;stop-opacity:1;"
         offset="1"
         id="stop10" />
    </linearGradient>
    <linearGradient
       id="paint3_linear_332_93"
       x1="37.304401"
       y1="24.2272"
       x2="23.255199"
       y2="12.9039"
       gradientUnits="userSpaceOnUse"
       gradientTransform="matrix(1,0,0,1.0089403,-0.9999998,-0.28624446)">
      <stop
         stop-color="#731FFF"
         id="stop9" />
      <stop
         offset="0.905415"
         stop-color="#EB1AFF"
         id="stop10-5" />
    </linearGradient>
    <linearGradient
       id="paint1_linear_332_93"
       x1="2"
       y1="61.696899"
       x2="14.6751"
       y2="28.2421"
       gradientUnits="userSpaceOnUse"
       gradientTransform="matrix(0.91578336,0,0,1,1.7216248,-7.2011443)">
      <stop
         stop-color="#731FFF"
         id="stop5" />
      <stop
         offset="0.905415"
         stop-color="#EB1AFF"
         id="stop6" />
    </linearGradient>
    <linearGradient
       id="paint2_linear_332_93"
       x1="54.645401"
       y1="46.748501"
       x2="26.243099"
       y2="10.4978"
       gradientUnits="userSpaceOnUse"
       gradientTransform="matrix(0.91578336,0,0,1,1.7216248,-7.2011443)">
      <stop
         offset="0.118093"
         stop-color="#731FFF"
         id="stop7" />
      <stop
         offset="0.905415"
         stop-color="#EB1AFF"
         id="stop8-3" />
    </linearGradient>
    <linearGradient
       id="linearGradient4"
       x1="16"
       x2="47"
       y1="16"
       y2="48"
       gradientUnits="userSpaceOnUse"
       gradientTransform="matrix(1.1935485,0,0,1.1875,-6.5967725,-6.999994)">
      <stop
         stop-color="#ffffff"
         offset="0"
         id="stop1" />
      <stop
         stop-color="#ffffff"
         offset=".45161"
         id="stop2" />
      <stop
         stop-color="#fef0cb"
         offset=".59375"
         id="stop3" />
      <stop
         stop-color="#ffbcc3"
         offset="1"
         id="stop4" />
    </linearGradient>
    <linearGradient
       id="paint0_linear_19_69"
       x1="13.5381"
       y1="7.6556602"
       x2="19.187599"
       y2="7.6556602"
       gradientUnits="userSpaceOnUse"
       gradientTransform="matrix(1.818183,0,0,1.818183,11.458092,11.928816)">
      <stop
         stop-color="#02AA93"
         id="stop3-5" />
      <stop
         offset="1"
         stop-color="#67FF80"
         id="stop4-3" />
    </linearGradient>
    <linearGradient
       id="paint1_linear_19_69"
       x1="13.5426"
       y1="5.74156"
       x2="23"
       y2="5.74156"
       gradientUnits="userSpaceOnUse"
       gradientTransform="matrix(1.818183,0,0,1.818183,11.458092,11.928816)">
      <stop
         stop-color="#02AA93"
         id="stop5-5" />
      <stop
         offset="1"
         stop-color="#67FF80"
         id="stop6-6" />
    </linearGradient>
    <linearGradient
       id="paint2_linear_19_69"
       x1="1"
       y1="12.425"
       x2="22.2339"
       y2="12.425"
       gradientUnits="userSpaceOnUse"
       gradientTransform="matrix(1.818183,0,0,1.818183,11.458092,11.928816)">
      <stop
         stop-color="#02AA93"
         id="stop7-2" />
      <stop
         offset="1"
         stop-color="#67FF80"
         id="stop8-9" />
    </linearGradient>
  </defs>
  <sodipodi:namedview
     id="namedview7"
     pagecolor="#ffffff"
     bordercolor="#000000"
     borderopacity="0.25"
     inkscape:showpageshadow="2"
     inkscape:pageopacity="0.0"
     inkscape:pagecheckerboard="0"
     inkscape:deskcolor="#d1d1d1"
     inkscape:zoom="8.3085046"
     inkscape:cx="34.181843"
     inkscape:cy="57.591591"
     inkscape:window-width="1920"
     inkscape:window-height="998"
     inkscape:window-x="0"
     inkscape:window-y="0"
     inkscape:window-maximized="1"
     inkscape:current-layer="svg7"
     showgrid="false">
    <inkscape:grid
       id="grid1"
       units="px"
       originx="0"
       originy="0"
       spacingx="1"
       spacingy="1"
       empcolor="#0099e5"
       empopacity="0.30196078"
       color="#0099e5"
       opacity="0.14901961"
       empspacing="5"
       enabled="true"
       visible="false" />
  </sodipodi:namedview>
  <rect
     style="opacity:0.2;stroke-width:0.9823"
     width="55"
     height="55.017544"
     x="3.5"
     y="3.9824562"
     rx="8.25"
     ry="8.2526312"
     id="rect1" />
  <rect
     style="fill:url(#linearGradient10);stroke-width:0.9823"
     width="55"
     height="55.017544"
     x="3.5"
     y="3"
     rx="8.25"
     ry="8.2526312"
     id="rect2" />
  <path
     style="opacity:0.1;fill:#ffffff;stroke-width:0.9823"
     d="M 11.748466,3 C 7.1779652,3 3.5,6.679138 3.5,11.251097 v 0.982456 c 0,-4.571959 3.6779652,-8.251097 8.248466,-8.251097 h 38.503068 c 4.5705,0 8.248466,3.679138 8.248466,8.251097 V 11.251097 C 58.5,6.679138 54.822034,3 50.251534,3 Z"
     id="path4-3" />
  <g
     id="g1"
     transform="translate(0.85344865,3.8076886)">
    <path
       d="m 13.931034,10.337382 h 14.508631 l 4.267238,6.76923 5.974157,-6.76923 H 54.043103 L 38.68106,28.106616 48.922433,45.875851 h -16.21553 l -4.267238,-6.769234 -5.120693,6.769234 H 6.2499997 L 22.465522,27.260462 Z"
       style="opacity:0.2;stroke-width:0.849792"
       id="path1" />
    <path
       d="M 13.931034,9.4912281 H 28.439665 L 32.706903,16.26046 38.68106,9.4912281 H 54.043103 L 38.68106,27.260462 48.922433,45.029698 h -16.21553 l -4.267238,-6.769233 -5.120693,6.769233 H 6.2499997 L 22.465522,26.414309 Z"
       style="fill:#db4eff;stroke-width:0.849792;fill-opacity:1"
       id="path2" />
    <path
       d="m 13.931034,9.4912281 0.426727,0.8461539 h 14.081904 l 4.267238,6.76923 5.974157,-6.76923 H 53.311325 L 54.043103,9.4912281 H 38.68106 L 32.706903,16.26046 28.439665,9.4912281 Z M 22.195483,26.725006 6.2499997,45.029698 H 6.9867622 L 22.465522,27.260462 Z m 16.778926,1.042818 -0.293349,0.338792 9.752968,16.923082 h 0.488405 z"
       style="opacity:0.1;fill:#ffffff;stroke-width:0.849792"
       id="path3-3" />
  </g>
  <g
     id="g2"
     transform="translate(0.21770115,0.9937841)">
    <ellipse
       cx="45.154167"
       cy="45.482555"
       style="opacity:0.2;stroke-width:0.713158"
       id="circle3"
       rx="10.75"
       ry="10.645176" />
    <ellipse
       cx="45.154167"
       cy="44.772907"
       style="fill:#aa87de;stroke-width:0.713158;fill-opacity:1"
       id="circle4"
       rx="10.75"
       ry="10.645176" />
  </g>
  <path
     d="m 45.371872,40.266763 c 0,0 -0.74249,-0.01505 -1.516182,0.391334 -0.745075,0.391097 -1.556431,1.36997 -1.615926,2.751507 h 2.103933 c 0.101295,-0.931155 1.028175,-0.942232 1.028175,-0.942232 0,0 1.048107,-0.0016 1.048107,1.098759 0,0.580569 -0.147266,0.905555 -0.426597,1.27218 -0.279359,0.366733 -0.72535,0.73538 -1.249153,1.147872 -0.523814,0.412494 -1.124914,0.868442 -1.631284,1.533051 -0.506345,0.664499 -0.883913,1.577761 -0.883913,2.647164 v 1.100294 h 6.285673 v -2.357135 h -3.822661 c 0.03273,-0.0484 0.02052,0.03417 0.05832,-0.01533 0.279334,-0.366733 0.725351,-0.733849 1.249153,-1.146343 0.523799,-0.412494 1.124898,-0.869974 1.631257,-1.534583 0.506368,-0.664497 0.883931,-1.577764 0.883931,-2.647166 0,-1.466604 -0.852996,-2.501921 -1.626676,-2.908034 -0.773679,-0.406223 -1.516157,-0.391334 -1.516157,-0.391336 z"
     style="fill:#ffffff;fill-rule:evenodd;stroke-width:0.785704"
     id="path4-6" />
</svg>
