<?xml version="1.0" encoding="UTF-8" standalone="no"?>
<svg
   width="62"
   height="62"
   version="1.1"
   id="svg10"
   sodipodi:docname="x2goclient.svg"
   inkscape:version="1.4 (unknown)"
   xmlns:inkscape="http://www.inkscape.org/namespaces/inkscape"
   xmlns:sodipodi="http://sodipodi.sourceforge.net/DTD/sodipodi-0.dtd"
   xmlns:xlink="http://www.w3.org/1999/xlink"
   xmlns="http://www.w3.org/2000/svg"
   xmlns:svg="http://www.w3.org/2000/svg">
  <defs
     id="defs10">
    <linearGradient
       id="linearGradient11"
       inkscape:collect="always">
      <stop
         style="stop-color:#002969;stop-opacity:1;"
         offset="0"
         id="stop11" />
      <stop
         style="stop-color:#5599ff;stop-opacity:1"
         offset="1"
         id="stop12" />
    </linearGradient>
    <linearGradient
       inkscape:collect="always"
       xlink:href="#linearGradient11"
       id="linearGradient12"
       x1="30.978724"
       y1="60"
       x2="30.553192"
       y2="5.9255319"
       gradientUnits="userSpaceOnUse"
       gradientTransform="matrix(1,0,0,0.98245614,-1,-0.92982455)" />
  </defs>
  <sodipodi:namedview
     id="namedview10"
     pagecolor="#ffffff"
     bordercolor="#000000"
     borderopacity="0.25"
     inkscape:showpageshadow="2"
     inkscape:pageopacity="0.0"
     inkscape:pagecheckerboard="0"
     inkscape:deskcolor="#d1d1d1"
     inkscape:zoom="11.75"
     inkscape:cx="32.042553"
     inkscape:cy="32.042553"
     inkscape:window-width="1920"
     inkscape:window-height="998"
     inkscape:window-x="0"
     inkscape:window-y="0"
     inkscape:window-maximized="1"
     inkscape:current-layer="svg10" />
  <rect
     style="opacity:0.2;stroke-width:0.991189"
     width="56"
     height="55.017544"
     x="3"
     y="3.9824562"
     rx="16.799999"
     ry="16.505262"
     id="rect1" />
  <rect
     style="fill:url(#linearGradient12);stroke-width:0.991189"
     width="56"
     height="55.017544"
     x="3"
     y="3"
     rx="16.799999"
     ry="16.505262"
     id="rect2" />
  <path
     style="opacity:0.1;fill:#ffffff;stroke-width:0.991189"
     d="M 19.800781,3 C 10.493582,3 3,10.362116 3,19.50603 v 0.982457 C 3,11.344572 10.493582,3.9824562 19.800781,3.9824562 H 42.199219 C 51.506418,3.9824562 59,11.344572 59,20.488487 V 19.50603 C 59,10.362116 51.506418,3 42.199219,3 Z"
     id="path9" />
  <g
     id="g1"
     transform="translate(-1.35e-5,0.052203)">
    <path
       style="opacity:0.1;stroke-width:0.878961"
       d="m 26.242061,13.825847 -15.741475,0.43674 15.741475,0.43674 z m 1.700171,0 v 0.857465 c 1.041236,0 1.849261,0.257905 2.421936,0.777449 0.546657,0.519525 1.118955,1.481254 1.743714,2.935968 l 5.959756,13.534304 -6.690694,13.198162 c -0.520624,1.117011 -1.067284,1.867847 -1.587907,2.309457 -0.520605,0.441601 -1.143963,0.676827 -1.846805,0.676827 v 0.832318 h 7.210824 v -0.832318 c -1.561853,0 -2.341734,-0.519546 -2.341734,-1.584598 0,-0.545522 0.259254,-1.273034 0.753841,-2.156259 l 5.361725,-10.467983 4.685782,10.467983 c 0.468552,1.14299 0.72864,1.922717 0.72864,2.364339 0,0.467584 -0.180893,0.832573 -0.545334,1.040394 -0.364435,0.233783 -0.962592,0.336126 -1.82162,0.336124 v 0.832318 h 9.52509 v -0.832318 c -0.702839,0 -1.326197,-0.285331 -1.846821,-0.804875 -0.520622,-0.545522 -1.119593,-1.53321 -1.796402,-2.935982 l -6.66321,-14.988565 5.283832,-10.259905 c 1.041231,-2.026215 1.795086,-3.273272 2.341735,-3.740858 0.546657,-0.467585 1.328638,-0.701982 2.421944,-0.701982 v -0.857465 h -7.992177 v 0.857465 c 0.88506,0 1.512163,0.131244 1.876604,0.39101 0.338403,0.2338 0.517849,0.648081 0.517849,1.193591 0,0.337701 -0.154252,0.986384 -0.49265,1.895585 l -4.816383,9.299548 -4.087731,-9.299548 c -0.312388,-0.675405 -0.467445,-1.299762 -0.467445,-1.845269 0,-1.091048 0.806555,-1.634917 2.394452,-1.634917 v -0.857465 z m -1.700171,2.160827 -15.741475,0.409297 18.653762,0.514485 v -0.02515 l -0.05261,-0.02514 -0.02519,-0.02515 -0.05264,-0.02737 -0.0504,-0.02514 -0.05263,-0.02515 -0.0504,-0.02514 -0.07786,-0.02737 -0.07787,-0.02514 -0.07559,-0.02514 -0.103105,-0.02515 h -0.103269 l -0.103101,-0.02739 h -0.103164 -0.128307 l -1.856013,-0.02515 z m 3.68446,2.030475 -19.425935,0.539634 19.96669,0.539634 -0.05039,-0.07771 -0.103108,-0.230942 -0.103105,-0.230953 -0.103109,-0.205788 -0.103122,-0.205787 z m 0.953201,2.108235 -20.379136,0.564783 20.894684,0.567078 z m 0.927994,2.133385 -21.30713,0.567078 21.822684,0.589933 z m 0.927983,2.108236 -22.235113,0.617376 22.775868,0.617379 z m 0.925699,2.108236 -23.160812,0.642526 23.729066,0.64482 z m 0.927996,2.135658 -24.088808,0.642545 24.682268,0.66768 z m 0.927982,2.108238 -25.01679,0.66768 25.479641,0.695131 0.07786,-0.180651 z m 0.07787,2.108234 -25.094687,0.692829 24.39813,0.669967 z m -1.108957,2.183686 -23.985704,0.64482 23.341826,0.642524 z m -1.106732,2.160827 -22.878972,0.617376 22.260313,0.617379 z m -1.083788,2.18598 -21.795183,0.589933 21.178806,0.567076 z m -1.106714,2.158537 -20.688469,0.567073 20.147716,0.539634 z m -1.081505,2.185976 -19.606964,0.51448 19.066206,0.539637 0.07559,-0.128049 0.07785,-0.180636 0.103099,-0.180639 z m -1.315244,2.160812 -18.29172,0.514484 15.741475,0.409295 V 46.27478 l 1.778077,-0.02738 h 0.0504 0.05261 l 0.0504,-0.02514 h 0.02744 0.0504 l 0.05262,-0.02514 h 0.02519 l 0.0504,-0.02514 0.02744,-0.02738 0.0504,-0.02514 h 0.05264 l 0.02519,-0.02514 0.0504,-0.02514 0.02519,-0.05251 0.05261,-0.02514 0.0504,-0.0525 0.05264,-0.02514 z m -2.550245,2.211128 -15.741475,0.43674 15.741475,0.43674 z"
       id="path2-6" />
    <path
       style="fill:#ffffff;stroke-width:0.878961"
       d="m 26.242061,12.947797 -15.741475,0.43674 15.741475,0.43674 z m 1.700171,0 v 0.857468 c 1.041236,0 1.849261,0.257902 2.421936,0.777446 0.546657,0.519528 1.118955,1.481257 1.743714,2.935968 l 5.959756,13.534304 -6.690694,13.198165 c -0.520624,1.11701 -1.067284,1.867847 -1.587907,2.309454 -0.520605,0.441604 -1.143963,0.676827 -1.846805,0.676827 v 0.832318 h 7.210824 v -0.832318 c -1.561853,0 -2.341734,-0.519546 -2.341734,-1.584595 0,-0.545525 0.259254,-1.273036 0.753841,-2.156262 l 5.361725,-10.467983 4.685782,10.467983 c 0.468552,1.14299 0.72864,1.922717 0.72864,2.364342 0,0.467581 -0.180893,0.832573 -0.545334,1.040394 -0.364435,0.23378 -0.962592,0.336123 -1.82162,0.336121 v 0.832318 h 9.52509 v -0.832318 c -0.702839,0 -1.326197,-0.285328 -1.846821,-0.804872 -0.520622,-0.545525 -1.119593,-1.533213 -1.796402,-2.935985 l -6.66321,-14.988565 5.283832,-10.259904 c 1.041231,-2.026216 1.795086,-3.273272 2.341735,-3.740859 0.546657,-0.467584 1.328638,-0.701979 2.421944,-0.701979 v -0.857468 h -7.992177 v 0.857468 c 0.88506,0 1.512163,0.131243 1.876604,0.391007 0.338403,0.2338 0.517849,0.648084 0.517849,1.193591 0,0.337703 -0.154252,0.986394 -0.49265,1.895588 l -4.816383,9.299545 -4.087731,-9.299545 c -0.312388,-0.675408 -0.467445,-1.299765 -0.467445,-1.845272 0,-1.091048 0.806555,-1.634914 2.394452,-1.634914 v -0.857468 z m -1.700171,2.160828 -15.741475,0.409296 18.653762,0.514485 v -0.02515 l -0.05261,-0.02514 -0.02519,-0.02515 -0.05264,-0.02737 -0.0504,-0.02514 -0.05263,-0.02515 -0.0504,-0.02514 -0.07786,-0.02737 -0.07787,-0.02514 -0.07559,-0.02514 -0.103105,-0.02515 h -0.103289 l -0.103101,-0.02743 h -0.1031 -0.128308 l -1.856014,-0.02515 z m 3.68446,2.030474 -19.425935,0.539638 19.96669,0.53964 -0.05039,-0.07775 -0.103108,-0.230936 -0.103105,-0.230948 -0.103109,-0.205793 -0.103122,-0.205787 z m 0.953201,2.108235 -20.379136,0.564786 20.894684,0.567075 z m 0.927994,2.133385 -21.30713,0.567078 21.822684,0.589933 z m 0.927983,2.108236 -22.235113,0.617379 22.775868,0.617376 z m 0.925699,2.108238 -23.160812,0.642524 23.729066,0.64482 z m 0.927996,2.135656 -24.088808,0.642545 24.682268,0.66768 z m 0.927982,2.108238 -25.01679,0.66769 25.479641,0.695124 0.07786,-0.180654 z m 0.07787,2.108234 -25.094692,0.692829 24.39813,0.66997 z m -1.10897,2.183686 -23.985702,0.64482 23.341824,0.642526 z m -1.106732,2.160827 -22.878973,0.617379 22.260314,0.617376 z m -1.08379,2.18598 -21.795181,0.589933 21.178806,0.567076 z m -1.106712,2.158537 -20.688469,0.567076 20.147716,0.539632 z m -1.081506,2.185976 -19.606963,0.514485 19.066206,0.539632 0.07559,-0.128049 0.07785,-0.180636 0.103099,-0.180638 z m -1.315239,2.160812 -18.29172,0.514485 15.741475,0.409296 v -0.51219 l 1.778077,-0.02738 h 0.0504 0.05261 l 0.0504,-0.02514 h 0.02744 0.0504 l 0.05262,-0.02514 h 0.02519 l 0.0504,-0.02514 0.02744,-0.02738 0.0504,-0.02514 h 0.05263 l 0.02519,-0.02514 0.0504,-0.02514 0.02519,-0.0525 0.05261,-0.02514 0.0504,-0.0525 0.05264,-0.02514 z m -2.550245,2.211128 -15.741475,0.43674 15.741475,0.43674 z"
       id="path3-7" />
    <path
       style="opacity:0.7;stroke-width:0.878961;fill:#aa87de"
       d="m 10.500013,30.508777 25.480214,0.694542 0.0774,-0.180072 -0.235435,-0.51447 z m 27.329333,0 0.238859,0.543626 -6.691843,13.198179 c -0.520613,1.11701 -1.067267,1.868411 -1.587891,2.310018 -0.520618,0.441604 -1.142831,0.677396 -1.845673,0.677396 v 0.831751 h 7.210839 v -0.831751 c -1.561867,0 -2.342315,-0.51953 -2.342315,-1.584599 0,-0.545522 0.259821,-1.27418 0.75441,-2.15739 l 5.361738,-10.467981 4.684631,10.467981 c 0.468555,1.142993 0.728641,1.923281 0.728641,2.364906 0,0.467581 -0.180324,0.833138 -0.544765,1.040959 -0.364435,0.2338 -0.962593,0.336126 -1.821621,0.336124 v 0.831751 h 9.525658 v -0.831751 c -0.702842,0 -1.326764,-0.286477 -1.847388,-0.806021 C 49.132004,45.88647 48.5336,44.898762 47.85679,43.496007 L 42.082624,30.508777 Z M 35.595283,31.949322 10.500013,32.64215 34.8993,33.3127 Z m -1.108429,2.183119 -23.986841,0.644822 23.342396,0.64309 z m -1.106713,2.160816 -22.880128,0.617391 22.261471,0.617378 z m -1.084372,2.186556 -21.795756,0.589934 21.178811,0.567643 z m -1.106712,2.1591 -20.689044,0.565931 20.147708,0.540216 z m -1.080942,2.184834 -19.608102,0.514481 19.066781,0.540216 0.07559,-0.128625 0.07736,-0.180072 0.103114,-0.180072 z m -1.316372,2.160827 -18.29173,0.514483 15.741468,0.409863 v -0.512757 l 1.778656,-0.02738 h 0.0498 0.05325 l 0.0498,-0.02396 h 0.02743 0.0516 l 0.05161,-0.02574 h 0.02579 l 0.0498,-0.02574 0.02743,-0.02737 0.05161,-0.02396 h 0.05161 l 0.02579,-0.02574 0.0498,-0.02574 0.02579,-0.0515 0.05325,-0.02574 0.0498,-0.05314 0.05325,-0.02396 z m -2.550262,2.212273 -15.741468,0.435594 15.741468,0.437306 z"
       id="path5" />
  </g>
</svg>
