<?xml version="1.0" encoding="UTF-8" standalone="no"?>
<svg
   width="62"
   height="62"
   version="1.1"
   id="svg7"
   sodipodi:docname="xampp.svg"
   inkscape:version="1.4 (e7c3feb100, 2024-10-09)"
   xmlns:inkscape="http://www.inkscape.org/namespaces/inkscape"
   xmlns:sodipodi="http://sodipodi.sourceforge.net/DTD/sodipodi-0.dtd"
   xmlns:xlink="http://www.w3.org/1999/xlink"
   xmlns="http://www.w3.org/2000/svg"
   xmlns:svg="http://www.w3.org/2000/svg">
  <defs
     id="defs7">
    <linearGradient
       inkscape:collect="always"
       xlink:href="#linearGradient8"
       id="linearGradient10"
       x1="31.5"
       y1="59.017544"
       x2="31.5"
       y2="4.9824562"
       gradientUnits="userSpaceOnUse"
       gradientTransform="translate(-0.5,-0.5087719)" />
    <linearGradient
       id="linearGradient8"
       inkscape:collect="always">
      <stop
         style="stop-color:#fd933a;stop-opacity:1"
         offset="0"
         id="stop8" />
      <stop
         style="stop-color:#febc85;stop-opacity:1"
         offset="1"
         id="stop10" />
    </linearGradient>
  </defs>
  <sodipodi:namedview
     id="namedview7"
     pagecolor="#ffffff"
     bordercolor="#000000"
     borderopacity="0.25"
     inkscape:showpageshadow="2"
     inkscape:pageopacity="0.0"
     inkscape:pagecheckerboard="0"
     inkscape:deskcolor="#d1d1d1"
     inkscape:zoom="5.875"
     inkscape:cx="66.212766"
     inkscape:cy="57.361702"
     inkscape:window-width="1920"
     inkscape:window-height="998"
     inkscape:window-x="0"
     inkscape:window-y="0"
     inkscape:window-maximized="1"
     inkscape:current-layer="svg7" />
  <g
     id="g7"
     transform="translate(0,-0.4912281)">
    <rect
       style="opacity:0.2;stroke-width:0.9823"
       width="55"
       height="55.017544"
       x="3.5"
       y="4.4736843"
       rx="8.25"
       ry="8.2526312"
       id="rect1" />
    <rect
       style="fill:url(#linearGradient10);stroke-width:0.9823"
       width="55"
       height="55.017544"
       x="3.5"
       y="3.4912281"
       rx="8.25"
       ry="8.2526312"
       id="rect2" />
    <path
       style="opacity:0.1;fill:#ffffff;stroke-width:0.9823"
       d="M 11.748466,3.4912281 C 7.1779652,3.4912281 3.5,7.1703661 3.5,11.742325 v 0.982456 c 0,-4.5719589 3.6779652,-8.2510969 8.248466,-8.2510969 h 38.503068 c 4.5705,0 8.248466,3.679138 8.248466,8.2510969 v -0.982456 c 0,-4.5719589 -3.677966,-8.2510969 -8.248466,-8.2510969 z"
       id="path4-3" />
  </g>
  <g
     id="g1"
     transform="matrix(0.92499993,0,0,0.92682927,-60.594676,-12.353918)">
    <path
       style="opacity:0.2"
       d="m 89.021417,27.276196 a 10.00014,10 0 0 0 -10.00014,10 10.00014,10 0 0 0 10.00014,10 10.00014,10 0 0 0 -10.00014,10 10.00014,10 0 0 0 10.00014,10 10.00014,10 0 0 0 10.00014,-10 10.00014,10 0 0 0 -0.03516,-0.6836 10.00014,10 0 0 0 0.03516,0.004 10.00014,10 0 0 0 0.02344,0 10.00014,10 0 0 0 -0.024,0.68 10.00014,10 0 0 0 10.000143,10 10.00014,10 0 0 0 10.00014,-10 10.00014,10 0 0 0 -10.00014,-10 10.00014,10 0 0 0 -0.0352,0.004 10.00014,10 0 0 0 0,-0.004 10.00014,10 0 0 0 0.0352,0 10.00014,10 0 0 0 10.00014,-10 10.00014,10 0 0 0 -10.00014,-10 10.00014,10 0 0 0 -9.976743,9.3204 10.00014,10 0 0 0 -0.02344,0 10.00014,10 0 0 0 -0.03516,0 10.00014,10 0 0 0 -9.96414,-9.32 z m 19.980683,5.9492 a 4.000456,4.0004 0 0 1 3.69545,5.625 c -1.17202,2.734 -2.18603,5.512 -4.20806,8.024 -2.02003,2.51 -5.48408,4.402 -9.468133,4.402 -2.390833,0 -2.366233,0.1075 -3.011842,0.86718 -0.645429,0.75968 -1.713604,3.0522 -3.324247,6.7344 a 4.000456,4.0004 0 1 1 -7.328102,-3.204 c 1.564422,-3.576 2.494035,-6.284 4.554063,-8.71 2.062029,-2.426 5.500077,-3.688 9.110128,-3.688 2.016223,0 2.356433,-0.3222 3.238243,-1.41796 0.88195,-1.09576 1.86895,-3.3166 3.08605,-6.1562 a 4.000456,4.0004 0 0 1 3.65605,-2.4768 z m -19.980283,0.0508 a 4.000056,4 0 0 1 4.000056,4 4.000056,4 0 0 1 -4.000056,4 4.000056,4 0 0 1 -4.000056,-4 4.000056,4 0 0 1 4.000056,-4 z m 20.000283,20 a 4.000056,4 0 0 1 4.00005,4 4.000056,4 0 0 1 -4.00005,4 4.000056,4 0 0 1 -4.00006,-4 4.000056,4 0 0 1 4.00006,-4 z"
       id="path1" />
    <path
       style="fill:#ffffff"
       d="m 89.021417,26.276596 a 10.00014,10 0 0 0 -10.00014,10 10.00014,10 0 0 0 10.00014,10 10.00014,10 0 0 0 -10.00014,10 10.00014,10 0 0 0 10.00014,10 10.00014,10 0 0 0 10.00014,-10 10.00014,10 0 0 0 -0.03516,-0.6836 10.00014,10 0 0 0 0.03516,0.004 10.00014,10 0 0 0 0.02344,0 10.00014,10 0 0 0 -0.024,0.68 10.00014,10 0 0 0 10.000143,10 10.00014,10 0 0 0 10.00014,-10 10.00014,10 0 0 0 -10.00014,-10 10.00014,10 0 0 0 -0.0352,0.004 10.00014,10 0 0 0 0,-0.004 10.00014,10 0 0 0 0.0352,0 10.00014,10 0 0 0 10.00014,-10 10.00014,10 0 0 0 -10.00014,-10 10.00014,10 0 0 0 -9.976743,9.3204 10.00014,10 0 0 0 -0.02344,0 10.00014,10 0 0 0 -0.03516,0 10.00014,10 0 0 0 -9.96414,-9.32 z m 19.980683,5.9492 a 4.000456,4.0004 0 0 1 3.69545,5.625 c -1.17202,2.734 -2.18603,5.512 -4.20806,8.024 -2.02003,2.51 -5.48408,4.402 -9.468133,4.402 -2.390833,0 -2.366233,0.1075 -3.011842,0.86718 -0.645429,0.75968 -1.713604,3.0522 -3.324247,6.7344 a 4.000456,4.0004 0 1 1 -7.328102,-3.204 c 1.564422,-3.576 2.494035,-6.284 4.554063,-8.71 2.062029,-2.426 5.500077,-3.688 9.110128,-3.688 2.016223,0 2.356433,-0.3222 3.238243,-1.41796 0.88195,-1.09576 1.86895,-3.3166 3.08605,-6.1562 a 4.000456,4.0004 0 0 1 3.65605,-2.4768 z m -19.980283,0.0508 a 4.000056,4 0 0 1 4.000056,4 4.000056,4 0 0 1 -4.000056,4 4.000056,4 0 0 1 -4.000056,-4 4.000056,4 0 0 1 4.000056,-4 z m 20.000283,20 a 4.000056,4 0 0 1 4.00005,4 4.000056,4 0 0 1 -4.00005,4 4.000056,4 0 0 1 -4.00006,-4 4.000056,4 0 0 1 4.00006,-4 z"
       id="path4" />
  </g>
</svg>
