<?xml version="1.0" encoding="UTF-8" standalone="no"?>
<svg
   width="62"
   height="62"
   version="1.1"
   id="svg4"
   sodipodi:docname="wicd.svg"
   inkscape:version="1.4 (e7c3feb100, 2024-10-09)"
   xmlns:inkscape="http://www.inkscape.org/namespaces/inkscape"
   xmlns:sodipodi="http://sodipodi.sourceforge.net/DTD/sodipodi-0.dtd"
   xmlns:xlink="http://www.w3.org/1999/xlink"
   xmlns="http://www.w3.org/2000/svg"
   xmlns:svg="http://www.w3.org/2000/svg">
  <defs
     id="defs4">
    <linearGradient
       id="linearGradient1"
       inkscape:collect="always">
      <stop
         style="stop-color:#f7d4e7;stop-opacity:1;"
         offset="0"
         id="stop1" />
      <stop
         style="stop-color:#cce0ff;stop-opacity:1;"
         offset="1"
         id="stop2" />
    </linearGradient>
    <linearGradient
       id="linearGradient4"
       inkscape:collect="always">
      <stop
         style="stop-color:#4c4cff;stop-opacity:1;"
         offset="0"
         id="stop4" />
      <stop
         style="stop-color:#8660cb;stop-opacity:1"
         offset="1"
         id="stop5" />
    </linearGradient>
    <linearGradient
       inkscape:collect="always"
       xlink:href="#linearGradient4"
       id="linearGradient5"
       x1="32"
       y1="60"
       x2="32"
       y2="5"
       gradientUnits="userSpaceOnUse"
       gradientTransform="translate(-1,-1.5)" />
    <linearGradient
       id="paint0_linear_216_361"
       x1="8.1785803"
       y1="12.0527"
       x2="31.672199"
       y2="54.314999"
       gradientUnits="userSpaceOnUse"
       gradientTransform="matrix(0.87931031,0,0,0.87357078,-0.68123071,1.9643898)">
      <stop
         stop-color="#F9D423"
         stop-opacity="0"
         id="stop3" />
      <stop
         offset="0.169488"
         stop-color="#FAB82C"
         id="stop4-5" />
      <stop
         offset="0.515624"
         stop-color="#FF4E50"
         id="stop5-6" />
      <stop
         offset="0.991304"
         stop-color="#8A2387"
         id="stop6" />
    </linearGradient>
    <linearGradient
       id="paint1_linear_216_361"
       x1="8.1785698"
       y1="12.0527"
       x2="31.672199"
       y2="54.314999"
       gradientUnits="userSpaceOnUse">
      <stop
         stop-color="#F9D423"
         stop-opacity="0"
         id="stop7" />
      <stop
         offset="0.169488"
         stop-color="#FAB82C"
         id="stop8" />
      <stop
         offset="0.515624"
         stop-color="#FF4E50"
         id="stop9" />
      <stop
         offset="0.991304"
         stop-color="#8A2387"
         id="stop10" />
    </linearGradient>
    <linearGradient
       inkscape:collect="always"
       xlink:href="#linearGradient1"
       id="linearGradient2"
       x1="33.341812"
       y1="50.730293"
       x2="32.428768"
       y2="10.556382"
       gradientUnits="userSpaceOnUse" />
  </defs>
  <sodipodi:namedview
     id="namedview4"
     pagecolor="#ffffff"
     bordercolor="#000000"
     borderopacity="0.25"
     inkscape:showpageshadow="2"
     inkscape:pageopacity="0.0"
     inkscape:pagecheckerboard="0"
     inkscape:deskcolor="#d1d1d1"
     inkscape:zoom="11.75"
     inkscape:cx="29.531915"
     inkscape:cy="29.957447"
     inkscape:window-width="1920"
     inkscape:window-height="998"
     inkscape:window-x="0"
     inkscape:window-y="0"
     inkscape:window-maximized="1"
     inkscape:current-layer="svg4"
     showgrid="true">
    <inkscape:grid
       id="grid1"
       units="px"
       originx="0"
       originy="0"
       spacingx="1"
       spacingy="1"
       empcolor="#0099e5"
       empopacity="0.30196078"
       color="#0099e5"
       opacity="0.14901961"
       empspacing="5"
       enabled="true"
       visible="true" />
  </sodipodi:namedview>
  <rect
     style="opacity:0.2"
     width="56"
     height="56"
     x="3"
     y="3.5"
     rx="11.2"
     ry="11.2"
     id="rect1" />
  <rect
     style="fill:url(#linearGradient5)"
     width="56"
     height="56"
     x="3"
     y="2.5"
     rx="11.2"
     ry="11.2"
     id="rect2" />
  <path
     style="opacity:0.1;fill:#ffffff"
     d="M 14.199219,2.5 C 7.9944186,2.5 3,7.4944186 3,13.699219 v 1 C 3,8.4944185 7.9944186,3.5 14.199219,3.5 H 47.800781 C 54.005581,3.5 59,8.4944185 59,14.699219 v -1 C 59,7.4944186 54.005581,2.5 47.800781,2.5 Z"
     id="path4" />
  <g
     id="g1"
     transform="matrix(1.0952381,0,0,1.0952381,-2.517224,-3.5617521)">
    <path
       style="opacity:0.371941;fill:#070044;fill-opacity:0.134191;fill-rule:evenodd;stroke-width:0.929632"
       d="m 31.463845,11.379131 a 3.2537157,3.2537157 0 0 0 -3.253712,3.253717 3.2537157,3.2537157 0 0 0 1.859263,2.93597 v 1.895581 l -3.409863,-2.273244 a 1.394589,1.394589 0 1 0 -1.546967,2.320451 l 4.95683,3.304555 v 6.135213 L 24.75669,25.882857 24.37358,19.938291 a 1.3946257,1.3946257 0 1 0 -2.783453,0.179754 l 0.263271,4.088933 -1.641383,-0.94779 a 3.2537157,3.2537157 0 0 0 -1.612333,-3.077593 3.2537157,3.2537157 0 0 0 -4.444808,1.191091 3.2537157,3.2537157 0 0 0 1.191091,4.444809 3.2537157,3.2537157 0 0 0 3.471601,-0.141638 l 1.641384,0.947793 -3.673142,1.815688 a 1.3946254,1.3946254 0 1 0 1.236484,2.500203 l 5.339945,-2.640011 5.310893,3.0667 -5.301814,3.06125 -5.339945,-2.64001 a 1.3946264,1.3946264 0 1 0 -1.236487,2.500206 l 3.674957,1.815688 -1.652275,0.953236 a 3.2537157,3.2537157 0 0 0 -3.471601,-0.141637 3.2537157,3.2537157 0 0 0 -1.191091,4.444808 3.2537157,3.2537157 0 0 0 4.444808,1.191091 3.2537157,3.2537157 0 0 0 1.612333,-3.077596 l 1.652276,-0.953236 -0.265099,4.088933 a 1.3946248,1.3946248 0 1 0 2.78345,0.179754 l 0.383112,-5.944567 5.303628,-3.06307 v 6.124321 l -4.956831,3.304554 a 1.394589,1.394589 0 1 0 1.546967,2.320452 l 3.409864,-2.273243 v 1.906476 a 3.2537157,3.2537157 0 0 0 -1.859265,2.93597 3.2537157,3.2537157 0 0 0 3.253715,3.253713 3.2537157,3.2537157 0 0 0 3.253716,-3.253713 3.2537157,3.2537157 0 0 0 -1.859266,-2.93597 v -1.906476 l 3.409866,2.273243 a 1.394589,1.394589 0 1 0 1.546967,-2.320452 l -4.95682,-3.304537 v -6.124321 l 5.30363,3.06307 0.38311,5.944567 a 1.3946257,1.3946257 0 1 0 2.783453,-0.179754 l -0.263271,-4.088933 1.650463,0.953236 a 3.2537157,3.2537157 0 0 0 1.614146,3.077596 3.2537157,3.2537157 0 0 0 4.442995,-1.191091 3.2537157,3.2537157 0 0 0 -1.189279,-4.444808 3.2537157,3.2537157 0 0 0 -3.473413,0.141637 l -1.650462,-0.953236 3.673139,-1.815688 a 1.3946256,1.3946256 0 1 0 -1.236483,-2.500206 l -5.339945,2.640011 -5.301814,-3.06125 5.310893,-3.0667 5.341757,2.640012 a 1.394589,1.394589 0 1 0 1.234671,-2.500203 l -3.673139,-1.815688 1.641383,-0.947795 a 3.2537157,3.2537157 0 0 0 3.473413,0.141638 3.2537157,3.2537157 0 0 0 1.189279,-4.444807 3.2537157,3.2537157 0 0 0 -4.442995,-1.191091 3.2537157,3.2537157 0 0 0 -1.614146,3.077591 l -1.641384,0.94779 0.263271,-4.088931 A 1.394589,1.394589 0 1 0 38.555931,19.93831 l -0.384927,5.944566 -5.312709,3.068515 v -6.135212 l 4.956835,-3.304554 a 1.394589,1.394589 0 1 0 -1.546967,-2.320453 l -3.409868,2.273244 v -1.89558 a 3.2537157,3.2537157 0 0 0 1.859267,-2.935971 3.2537157,3.2537157 0 0 0 -3.253717,-3.253717 z"
       id="path3522" />
    <path
       style="opacity:0.371941;fill:#070044;fill-opacity:0.134191;fill-rule:evenodd;stroke-width:0.929632"
       d="m 31.875195,12.074169 a 3.2537157,3.2537157 0 0 0 -3.253713,3.253717 3.2537157,3.2537157 0 0 0 1.859263,2.93597 v 1.89558 l -3.409863,-2.273243 a 1.394589,1.394589 0 1 0 -1.546967,2.320451 l 4.95683,3.304554 v 6.135214 l -5.312706,-3.068517 -0.38311,-5.944567 a 1.3946257,1.3946257 0 1 0 -2.783453,0.179755 l 0.263272,4.088932 -1.641384,-0.947789 a 3.2537157,3.2537157 0 0 0 -1.612333,-3.077593 3.2537157,3.2537157 0 0 0 -4.444808,1.191091 3.2537157,3.2537157 0 0 0 1.191091,4.444809 3.2537157,3.2537157 0 0 0 3.471602,-0.141638 l 1.641383,0.947793 -3.673141,1.815688 a 1.3946254,1.3946254 0 1 0 1.236483,2.500203 l 5.339945,-2.640012 5.310894,3.0667 -5.301815,3.06125 -5.339945,-2.64001 a 1.3946268,1.3946268 0 1 0 -1.236487,2.500207 l 3.674958,1.815688 -1.652275,0.953236 A 3.2537157,3.2537157 0 0 0 15.757314,37.61 3.2537157,3.2537157 0 0 0 14.566223,42.054809 3.2537157,3.2537157 0 0 0 19.011031,43.2459 3.2537157,3.2537157 0 0 0 20.623364,40.168303 L 22.27564,39.215067 22.010542,43.304 a 1.3946248,1.3946248 0 1 0 2.783449,0.179754 l 0.383112,-5.944566 5.303628,-3.063071 v 6.124321 L 25.5239,43.904993 a 1.394589,1.394589 0 1 0 1.546967,2.320452 l 3.409864,-2.273243 v 1.906476 a 3.2537157,3.2537157 0 0 0 -1.859264,2.93597 3.2537157,3.2537157 0 0 0 3.253714,3.253713 3.2537157,3.2537157 0 0 0 3.253716,-3.253713 3.2537157,3.2537157 0 0 0 -1.859266,-2.93597 v -1.906476 l 3.409866,2.273243 a 1.394589,1.394589 0 1 0 1.546967,-2.320452 l -4.95682,-3.304538 v -6.124321 l 5.30363,3.063071 0.38311,5.944566 a 1.3946257,1.3946257 0 1 0 2.783453,-0.179754 l -0.263271,-4.088933 1.650463,0.953236 a 3.2537157,3.2537157 0 0 0 1.614146,3.077597 3.2537157,3.2537157 0 0 0 4.442995,-1.191091 3.2537157,3.2537157 0 0 0 -1.189279,-4.444809 3.2537157,3.2537157 0 0 0 -3.473412,0.141638 l -1.650463,-0.953236 3.673139,-1.815688 a 1.3946259,1.3946259 0 1 0 -1.236483,-2.500207 l -5.339944,2.640012 -5.301815,-3.06125 5.310894,-3.0667 5.341756,2.640012 a 1.394589,1.394589 0 1 0 1.234671,-2.500203 l -3.673139,-1.815689 1.641384,-0.947794 a 3.2537157,3.2537157 0 0 0 3.473412,0.141638 3.2537157,3.2537157 0 0 0 1.189279,-4.444808 3.2537157,3.2537157 0 0 0 -4.442995,-1.19109 3.2537157,3.2537157 0 0 0 -1.614146,3.077591 l -1.641384,0.947789 0.263271,-4.088931 A 1.394589,1.394589 0 1 0 38.96728,20.633347 l -0.384927,5.944567 -5.312709,3.068515 v -6.135212 l 4.956835,-3.304555 a 1.394589,1.394589 0 1 0 -1.546967,-2.320451 l -3.409868,2.273242 v -1.895579 a 3.2537157,3.2537157 0 0 0 1.859267,-2.93597 3.2537157,3.2537157 0 0 0 -3.253716,-3.253717 z"
       id="path3722" />
    <path
       style="opacity:0.371941;fill:#070044;fill-opacity:0.134191;fill-rule:evenodd;stroke-width:0.929632"
       d="m 32.612786,13.038712 a 3.2537157,3.2537157 0 0 0 -3.253713,3.253717 3.2537157,3.2537157 0 0 0 1.859264,2.935971 v 1.895579 l -3.409863,-2.273243 a 1.394589,1.394589 0 1 0 -1.546967,2.320451 l 4.95683,3.304555 v 6.135213 l -5.312706,-3.068517 -0.38311,-5.944566 a 1.3946257,1.3946257 0 1 0 -2.783453,0.179754 l 0.263271,4.088933 -1.641383,-0.94779 a 3.2537157,3.2537157 0 0 0 -1.612333,-3.077593 3.2537157,3.2537157 0 0 0 -4.444808,1.191091 3.2537157,3.2537157 0 0 0 1.191091,4.444809 3.2537157,3.2537157 0 0 0 3.471602,-0.141638 l 1.641383,0.947793 -3.673142,1.815688 a 1.3946254,1.3946254 0 1 0 1.236484,2.500203 l 5.339945,-2.640011 5.310893,3.0667 -5.301814,3.06125 -5.339945,-2.64001 a 1.3946266,1.3946266 0 1 0 -1.236487,2.500206 l 3.674957,1.815688 -1.652274,0.953236 a 3.2537157,3.2537157 0 0 0 -3.471602,-0.141638 3.2537157,3.2537157 0 0 0 -1.191091,4.444809 3.2537157,3.2537157 0 0 0 4.444808,1.191091 3.2537157,3.2537157 0 0 0 1.612333,-3.077596 l 1.652276,-0.953236 -0.265099,4.088932 a 1.3946248,1.3946248 0 1 0 2.78345,0.179755 l 0.383112,-5.944567 5.303628,-3.06307 v 6.12432 l -4.956831,3.304555 a 1.394589,1.394589 0 1 0 1.546967,2.320452 l 3.409864,-2.273243 v 1.906476 a 3.2537157,3.2537157 0 0 0 -1.859265,2.93597 3.2537157,3.2537157 0 0 0 3.253715,3.253713 3.2537157,3.2537157 0 0 0 3.253716,-3.253713 3.2537157,3.2537157 0 0 0 -1.859266,-2.93597 v -1.906476 l 3.409866,2.273243 a 1.394589,1.394589 0 1 0 1.546966,-2.320452 l -4.956819,-3.304538 v -6.12432 l 5.30363,3.06307 0.38311,5.944567 a 1.3946257,1.3946257 0 1 0 2.783453,-0.179755 l -0.263271,-4.088932 1.650462,0.953236 a 3.2537157,3.2537157 0 0 0 1.614147,3.077596 3.2537157,3.2537157 0 0 0 4.442995,-1.191091 3.2537157,3.2537157 0 0 0 -1.189279,-4.444809 3.2537157,3.2537157 0 0 0 -3.473413,0.141638 l -1.650463,-0.953236 3.67314,-1.815688 a 1.3946256,1.3946256 0 1 0 -1.236483,-2.500206 l -5.339945,2.640011 -5.301814,-3.06125 5.310893,-3.0667 5.341757,2.640012 a 1.394589,1.394589 0 1 0 1.234671,-2.500203 L 43.617687,28.28325 45.25907,27.335455 a 3.2537157,3.2537157 0 0 0 3.473413,0.141638 3.2537157,3.2537157 0 0 0 1.189279,-4.444807 3.2537157,3.2537157 0 0 0 -4.442995,-1.191091 3.2537157,3.2537157 0 0 0 -1.614147,3.077591 l -1.641383,0.94779 0.263271,-4.088931 A 1.394589,1.394589 0 1 0 39.704872,21.59789 l -0.384927,5.944567 -5.312709,3.068515 V 24.47576 l 4.956835,-3.304554 a 1.394589,1.394589 0 1 0 -1.546967,-2.320453 l -3.409868,2.273243 v -1.895579 a 3.2537157,3.2537157 0 0 0 1.859267,-2.935971 3.2537157,3.2537157 0 0 0 -3.253717,-3.253716 z"
       id="path3724" />
    <path
       d="m 30.999771,11.012904 a 3.2537157,3.2537157 0 0 0 -3.253713,3.253717 3.2537157,3.2537157 0 0 0 1.859263,2.93597 v 1.89558 l -3.409862,-2.273243 a 1.394589,1.394589 0 1 0 -1.546967,2.320451 l 4.956829,3.304555 v 6.135213 l -5.312705,-3.068517 -0.38311,-5.944566 a 1.3946261,1.3946261 0 1 0 -2.783454,0.179754 l 0.263272,4.088933 -1.641384,-0.94779 a 3.2537157,3.2537157 0 0 0 -1.612333,-3.077593 3.2537157,3.2537157 0 0 0 -4.444807,1.191091 3.2537157,3.2537157 0 0 0 1.191091,4.444809 3.2537157,3.2537157 0 0 0 3.471601,-0.141638 l 1.641384,0.947793 -3.673142,1.815688 a 1.3946254,1.3946254 0 1 0 1.236483,2.500203 l 5.339945,-2.640012 5.310894,3.0667 -5.301815,3.061251 -5.339945,-2.640011 a 1.3946265,1.3946265 0 1 0 -1.236486,2.500207 l 3.674957,1.815688 -1.652275,0.953236 a 3.2537157,3.2537157 0 0 0 -3.471601,-0.141638 3.2537157,3.2537157 0 0 0 -1.191091,4.444809 3.2537157,3.2537157 0 0 0 4.444807,1.191091 3.2537157,3.2537157 0 0 0 1.612333,-3.077596 l 1.652277,-0.953236 -0.265099,4.088932 a 1.3946248,1.3946248 0 1 0 2.78345,0.179755 l 0.383111,-5.944567 5.303629,-3.063071 v 6.124321 l -4.956832,3.304555 a 1.394589,1.394589 0 1 0 1.546967,2.320452 l 3.409865,-2.273243 v 1.906476 a 3.2537157,3.2537157 0 0 0 -1.859265,2.93597 3.2537157,3.2537157 0 0 0 3.253714,3.253713 3.2537157,3.2537157 0 0 0 3.253717,-3.253713 3.2537157,3.2537157 0 0 0 -1.859267,-2.93597 v -1.906476 l 3.409866,2.273243 A 1.394589,1.394589 0 1 0 37.35104,42.843728 L 32.394221,39.53919 v -6.124321 l 5.303629,3.063071 0.38311,5.944567 a 1.3946261,1.3946261 0 1 0 2.783454,-0.179755 l -0.263272,-4.088933 1.650463,0.953237 a 3.2537157,3.2537157 0 0 0 1.614146,3.077596 3.2537157,3.2537157 0 0 0 4.442995,-1.191091 3.2537157,3.2537157 0 0 0 -1.189278,-4.444809 3.2537157,3.2537157 0 0 0 -3.473414,0.141638 l -1.650462,-0.953236 3.673139,-1.815688 a 1.3946259,1.3946259 0 1 0 -1.236483,-2.500207 l -5.339944,2.640012 -5.301815,-3.06125 5.310894,-3.0667 5.341756,2.640012 A 1.394589,1.394589 0 1 0 45.67781,28.07313 l -3.673139,-1.815688 1.641383,-0.947795 a 3.2537157,3.2537157 0 0 0 3.473414,0.141638 3.2537157,3.2537157 0 0 0 1.189278,-4.444807 3.2537157,3.2537157 0 0 0 -4.442995,-1.191091 3.2537157,3.2537157 0 0 0 -1.614146,3.077591 l -1.641384,0.947789 0.263272,-4.08893 a 1.394589,1.394589 0 1 0 -2.781637,-0.179755 l -0.384926,5.944567 -5.312709,3.068515 v -6.135212 l 4.956834,-3.304554 a 1.394589,1.394589 0 1 0 -1.546967,-2.320453 l -3.409867,2.273243 v -1.895579 a 3.2537157,3.2537157 0 0 0 1.859266,-2.935971 3.2537157,3.2537157 0 0 0 -3.253716,-3.253716 z"
       id="path8"
       style="fill:url(#linearGradient2)" />
  </g>
</svg>
