<?xml version="1.0" encoding="UTF-8" standalone="no"?>
<svg
   width="62"
   height="62"
   version="1.1"
   id="svg7"
   sodipodi:docname="xclicker.svg"
   inkscape:version="1.4 (e7c3feb100, 2024-10-09)"
   xmlns:inkscape="http://www.inkscape.org/namespaces/inkscape"
   xmlns:sodipodi="http://sodipodi.sourceforge.net/DTD/sodipodi-0.dtd"
   xmlns:xlink="http://www.w3.org/1999/xlink"
   xmlns="http://www.w3.org/2000/svg"
   xmlns:svg="http://www.w3.org/2000/svg">
  <defs
     id="defs7">
    <linearGradient
       inkscape:collect="always"
       xlink:href="#linearGradient8"
       id="linearGradient10"
       x1="31.5"
       y1="59.017544"
       x2="31.5"
       y2="4.9824562"
       gradientUnits="userSpaceOnUse"
       gradientTransform="translate(-0.5,-0.5087719)" />
    <linearGradient
       id="linearGradient8"
       inkscape:collect="always">
      <stop
         style="stop-color:#2d3d53;stop-opacity:1;"
         offset="0"
         id="stop8" />
      <stop
         style="stop-color:#354864;stop-opacity:1;"
         offset="1"
         id="stop10" />
    </linearGradient>
  </defs>
  <sodipodi:namedview
     id="namedview7"
     pagecolor="#ffffff"
     bordercolor="#000000"
     borderopacity="0.25"
     inkscape:showpageshadow="2"
     inkscape:pageopacity="0.0"
     inkscape:pagecheckerboard="0"
     inkscape:deskcolor="#d1d1d1"
     inkscape:zoom="5.875"
     inkscape:cx="66.212766"
     inkscape:cy="57.361702"
     inkscape:window-width="1920"
     inkscape:window-height="998"
     inkscape:window-x="0"
     inkscape:window-y="0"
     inkscape:window-maximized="1"
     inkscape:current-layer="svg7" />
  <g
     id="g7"
     transform="translate(0,-0.4912281)">
    <rect
       style="opacity:0.2;stroke-width:0.9823"
       width="55"
       height="55.017544"
       x="3.5"
       y="4.4736843"
       rx="8.25"
       ry="8.2526312"
       id="rect1" />
    <rect
       style="fill:url(#linearGradient10);stroke-width:0.9823"
       width="55"
       height="55.017544"
       x="3.5"
       y="3.4912281"
       rx="8.25"
       ry="8.2526312"
       id="rect2" />
    <path
       style="opacity:0.1;fill:#ffffff;stroke-width:0.9823"
       d="M 11.748466,3.4912281 C 7.1779652,3.4912281 3.5,7.1703661 3.5,11.742325 v 0.982456 c 0,-4.5719589 3.6779652,-8.2510969 8.248466,-8.2510969 h 38.503068 c 4.5705,0 8.248466,3.679138 8.248466,8.2510969 v -0.982456 c 0,-4.5719589 -3.677966,-8.2510969 -8.248466,-8.2510969 z"
       id="path4-3" />
  </g>
  <g
     id="g8"
     transform="translate(0,-0.4912281)">
    <path
       style="opacity:0.2"
       d="m 38.866627,15.286352 5.38316,15.250016 c 0.33362,0.944831 0.33362,1.982046 0,2.926875 L 38.866627,48.71326 C 38.275976,50.387089 36.742367,51.5 35.026807,51.5 h -8.05324 c -1.71593,0 -3.249553,-1.112911 -3.840583,-2.78674 L 17.750213,33.463243 c -0.33362,-0.944829 -0.33362,-1.982044 0,-2.926873 L 23.132984,15.286352 C 23.724014,13.612521 25.257637,12.5 26.973567,12.5 h 8.05324 c 1.71556,0 3.24917,1.112521 3.83982,2.786352"
       id="path3-9" />
    <path
       style="fill:#8660cb"
       d="m 38.866627,14.286352 5.38316,15.250016 c 0.33362,0.944831 0.33362,1.982046 0,2.926875 L 38.866627,47.71326 C 38.275976,49.387089 36.742367,50.5 35.026807,50.5 h -8.05324 c -1.71593,0 -3.249553,-1.112911 -3.840583,-2.78674 L 17.750213,32.463243 c -0.33362,-0.944829 -0.33362,-1.982044 0,-2.926873 L 23.132984,14.286352 C 23.724014,12.612521 25.257637,11.5 26.973567,11.5 h 8.05324 c 1.71556,0 3.24917,1.112521 3.83982,2.786352"
       id="path4-1" />
    <path
       style="opacity:0.2;fill:#ffffff"
       d="m 26.972657,11.5 c -1.71593,0 -3.248823,1.113278 -3.839853,2.787109 l -5.38281,15.25 c -0.22306,0.631731 -0.29397,1.303787 -0.21875,1.962891 0.0373,-0.326665 0.1082,-0.649793 0.21875,-0.962891 l 5.38281,-15.25 C 23.723834,13.613278 25.256727,12.5 26.972657,12.5 h 8.05469 c 1.715549,0 3.24918,1.113278 3.83984,2.787109 l 5.38281,15.25 c 0.11056,0.313099 0.18147,0.636226 0.21875,0.962891 0.0752,-0.659104 0.004,-1.331158 -0.21875,-1.962891 l -5.38281,-15.25 C 38.276527,12.613278 36.742896,11.5 35.027347,11.5 Z"
       id="path6-2" />
    <path
       style="fill:#e6e6e6;fill-opacity:1"
       d="m 32.499997,22.5 h -3 v -12 h 3 z"
       id="path7-7" />
  </g>
</svg>
