<?xml version="1.0" encoding="UTF-8" standalone="no"?>
<svg
   width="62"
   height="62"
   version="1.1"
   id="svg6"
   sodipodi:docname="xcom-2.svg"
   inkscape:version="1.4 (e7c3feb100, 2024-10-09)"
   xmlns:inkscape="http://www.inkscape.org/namespaces/inkscape"
   xmlns:sodipodi="http://sodipodi.sourceforge.net/DTD/sodipodi-0.dtd"
   xmlns="http://www.w3.org/2000/svg"
   xmlns:svg="http://www.w3.org/2000/svg">
  <defs
     id="defs6" />
  <sodipodi:namedview
     id="namedview6"
     pagecolor="#ffffff"
     bordercolor="#000000"
     borderopacity="0.25"
     inkscape:showpageshadow="2"
     inkscape:pageopacity="0.0"
     inkscape:pagecheckerboard="0"
     inkscape:deskcolor="#d1d1d1"
     inkscape:zoom="11.75"
     inkscape:cx="32"
     inkscape:cy="32"
     inkscape:window-width="1920"
     inkscape:window-height="998"
     inkscape:window-x="0"
     inkscape:window-y="0"
     inkscape:window-maximized="1"
     inkscape:current-layer="svg6" />
  <g
     id="g6"
     transform="translate(-0.99994811,-1.0000001)">
    <path
       style="opacity:0.2;stroke-width:0.99119"
       d="m 17.999979,4.9822642 c -1.305001,9.82e-5 -2.460001,0.8285088 -2.856996,2.0494122 L 7.1427,31.593383 c -0.3214996,0.987374 -0.091596,2.067098 0.605398,2.845203 l 21.999853,24.561515 c 1.194992,1.333199 3.308995,1.333199 4.503989,0 L 56.251895,34.438586 c 0.696996,-0.778105 0.926993,-1.857829 0.604996,-2.845203 L 48.856908,7.0316764 C 48.459912,5.810773 47.304912,4.9823624 45.999916,4.9822642 Z"
       id="path1" />
    <path
       style="fill:#3485fd;stroke-width:0.99119"
       d="m 17.999979,4 c -1.305001,9.8e-5 -2.460001,0.8285087 -2.856996,2.0493142 L 7.1427,30.610919 c -0.3214996,0.987375 -0.091598,2.06808 0.605398,2.845211 l 21.999853,24.56151 c 1.194992,1.333196 3.308995,1.333196 4.503989,0 L 56.251895,33.45613 c 0.696996,-0.777131 0.926993,-1.857836 0.604996,-2.845211 L 48.856908,6.0493142 C 48.459912,4.8285087 47.304912,4.000098 45.999916,4 Z"
       id="path2" />
    <path
       style="fill:#81b4fe;stroke-width:0.99119"
       d="M 31.999945,27.579051 A 26.999939,15.719369 0 0 0 9.1210957,34.987787 L 29.747951,58.01764 c 0.596998,0.66709 1.424997,1.000145 2.251994,1.000145 0.826997,0 1.654997,-0.333055 2.251995,-1.000145 L 54.888898,34.977959 A 26.999939,15.719369 0 0 0 31.999945,27.579051 Z"
       id="path3" />
    <path
       style="opacity:0.1;stroke-width:0.99119"
       d="m 31.999945,8.9123019 c 0,0 -2.999995,0 -5.169991,0.7316382 -2.636989,1.2696309 -5.829988,4.1806639 -5.829988,9.0929659 h 6.999991 c 0,-3.929839 3.999988,-3.929839 3.999988,-3.929839 0,0 3.999988,0.491224 3.999988,3.929839 0,1.814607 -0.927993,2.829483 -1.87999,3.976018 -0.952999,1.146533 -2.333997,2.59468 -4.119992,3.883667 -1.785999,1.288986 -3.975995,2.420781 -5.701993,4.498686 -1.725996,2.076922 -3.121987,4.443664 -3.297992,7.782068 v 3.438612 H 42.999924 V 36.421194 H 29.999951 c 0.111995,-0.1513 0.06694,-0.382181 0.194999,-0.537403 0.952999,-1.146535 1.804995,-2.409979 3.945991,-4.077216 1.735994,-1.352847 3.832989,-2.717483 5.558987,-4.795387 1.725996,-2.076924 3.299996,-4.930967 3.299996,-8.274282 0,-4.585141 -3.194996,-7.823335 -5.831992,-9.0929659 C 34.99994,8.9123019 31.999945,8.9123019 31.999945,8.9123019 Z"
       id="path4" />
    <path
       style="fill:#333333;stroke-width:0.99119"
       d="m 31.999945,7.9298416 c 0,0 -2.999995,0 -5.169991,0.7316381 -2.636989,1.2696341 -5.829988,4.1806603 -5.829988,9.0929623 h 6.999991 c 0,-3.929838 3.999988,-3.929838 3.999988,-3.929838 0,0 3.999988,0.491232 3.999988,3.929838 0,1.814608 -0.927993,2.829492 -1.87999,3.976018 -0.952999,1.146534 -2.333997,2.594681 -4.119992,3.883667 -1.785999,1.288991 -3.975995,2.420786 -5.701993,4.49869 -1.725996,2.076919 -3.121987,4.443668 -3.297992,7.782065 v 3.438614 H 42.999924 V 35.438731 H 29.999951 c 0.111995,-0.151296 0.06694,-0.382173 0.194999,-0.537403 0.952999,-1.146535 1.804995,-2.409975 3.945991,-4.077209 1.735994,-1.35285 3.832989,-2.717491 5.558987,-4.795391 1.725996,-2.07692 3.299996,-4.930971 3.299996,-8.274286 0,-4.585141 -3.194996,-7.8233282 -5.831992,-9.0929623 C 34.99994,7.9298416 31.999945,7.9298416 31.999945,7.9298416 Z"
       id="path5" />
    <path
       style="opacity:0.2;fill:#ffffff;stroke-width:0.99119"
       d="m 17.999979,4 c -1.305001,9.8e-5 -2.460001,0.8285087 -2.856996,2.0493142 L 7.1427,30.610919 C 6.9987998,31.053031 6.9815004,31.510853 7.050897,31.953945 7.0737,31.833104 7.103997,31.712263 7.1427,31.593383 L 15.142983,7.0317746 c 0.396995,-1.2208055 1.551995,-2.0492162 2.856996,-2.0493142 h 27.999937 c 1.304996,9.8e-5 2.459996,0.8285087 2.856992,2.0493142 l 7.999983,24.5616084 c 0.039,0.11888 0.06903,0.239721 0.09198,0.360562 0.07003,-0.443092 0.05198,-0.900914 -0.09198,-1.343026 L 48.856908,6.0493142 C 48.459912,4.8285087 47.304912,4.000098 45.999916,4 Z"
       id="path6" />
  </g>
</svg>
