<?xml version="1.0" encoding="UTF-8" standalone="no"?>
<svg
   width="62"
   height="62"
   version="1.1"
   id="svg7"
   sodipodi:docname="xcom-enemy-unknown.svg"
   inkscape:version="1.4 (e7c3feb100, 2024-10-09)"
   xmlns:inkscape="http://www.inkscape.org/namespaces/inkscape"
   xmlns:sodipodi="http://sodipodi.sourceforge.net/DTD/sodipodi-0.dtd"
   xmlns="http://www.w3.org/2000/svg"
   xmlns:svg="http://www.w3.org/2000/svg">
  <defs
     id="defs7" />
  <sodipodi:namedview
     id="namedview7"
     pagecolor="#ffffff"
     bordercolor="#000000"
     borderopacity="0.25"
     inkscape:showpageshadow="2"
     inkscape:pageopacity="0.0"
     inkscape:pagecheckerboard="0"
     inkscape:deskcolor="#d1d1d1"
     inkscape:zoom="11.75"
     inkscape:cx="32"
     inkscape:cy="32.085106"
     inkscape:window-width="1920"
     inkscape:window-height="998"
     inkscape:window-x="0"
     inkscape:window-y="0"
     inkscape:window-maximized="1"
     inkscape:current-layer="svg7" />
  <g
     id="g7"
     transform="matrix(0.99999778,0,0,0.98246045,-0.99993193,-0.92984182)">
    <path
       style="opacity:0.2"
       d="m 18,4.9998 c -1.305,1e-4 -2.46,0.8433 -2.857,2.086 L 7.1427,32.086 c -0.3215,1.005 -0.0916,2.104 0.6054,2.896 l 21.9999,25 c 1.195,1.357 3.309,1.357 4.504,0 l 22,-25 c 0.697,-0.792 0.927,-1.891 0.605,-2.896 l -8,-25.0002 C 48.46,5.8431 47.305,4.9999 46,4.9998 Z"
       id="path1" />
    <path
       style="fill:#05285b"
       d="m 18,4 c -1.305,10e-5 -2.46,0.8433 -2.857,2.0859 L 7.1427,31.086 c -0.3215,1.005 -0.0916,2.105 0.6054,2.896 l 21.9999,25 c 1.195,1.357 3.309,1.357 4.504,0 l 22,-25 c 0.697,-0.791 0.927,-1.891 0.605,-2.896 l -8,-25.0001 C 48.46,4.8433 47.305,4.0001 46,4 Z"
       id="path2" />
    <path
       style="fill:#0b5cd5"
       d="M 32,28 A 27,16 0 0 0 9.1211,35.541 L 29.748,58.982 C 30.345,59.661 31.173,60 32,60 c 0.827,0 1.655,-0.339 2.252,-1.018 L 54.889,35.531 A 27,16 0 0 0 32,28 Z"
       id="path3" />
    <path
       style="opacity:0.1;fill:#ffffff"
       d="m 18,4 c -1.305,10e-5 -2.46,0.8433 -2.857,2.0859 L 7.1427,31.086 C 6.9988,31.536 6.9815,32.002 7.0509,32.453 7.0738,32.33 7.104,32.207 7.1427,32.086 L 15.143,7.0859 C 15.54,5.8433 16.695,5.0001 18,5 h 28 c 1.305,10e-5 2.46,0.8433 2.857,2.0859 l 8,25.0001 c 0.039,0.121 0.069,0.244 0.092,0.367 0.07,-0.451 0.052,-0.917 -0.092,-1.367 l -8,-25.0001 C 48.46,4.8433 47.305,4.0001 46,4 Z"
       id="path4" />
    <path
       style="opacity:0.2"
       d="m 18,5.0005 c -1.305,1e-4 -2.46,0.8433 -2.857,2.0859 L 13.037,13.668 26.5,33 17.445,46.002 23.586,52.979 32,40.897 40.414,52.979 46.555,46.002 37.5,33 50.963,13.668 48.857,7.0864 C 48.46,5.8438 47.305,5.0006 46,5.0005 L 32,25.104 Z"
       id="path5" />
    <path
       style="fill:#3485fd"
       d="m 18,4 c -1.305,10e-5 -2.46,0.8433 -2.857,2.0859 L 13.037,12.668 26.5,32 17.445,45.002 23.586,51.979 32,39.896 40.414,51.979 46.555,45.002 37.5,32 50.963,12.668 48.857,6.0859 C 48.46,4.8433 47.305,4.0001 46,4 L 32,24.104 Z"
       id="path6" />
    <path
       style="opacity:0.2;fill:#ffffff"
       d="m 18,4 c -1.305,10e-5 -2.46,0.8433 -2.857,2.0859 l -2.106,6.5821 0.219,0.314 1.887,-5.8961 C 15.54,5.8433 16.695,5.0001 18,5 L 32,25.104 46,5 c 1.305,10e-5 2.46,0.8433 2.857,2.0859 l 1.887,5.8961 0.219,-0.314 -2.106,-6.5821 C 48.46,4.8433 47.305,4.0001 46,4 L 32,24.104 Z m 8.152,28.5 -8.707,12.502 0.389,0.441 L 26.5,33 Z m 11.696,0 -0.348,0.5 8.666,12.443 0.389,-0.441 z"
       id="path7" />
  </g>
</svg>
