<?xml version="1.0" encoding="UTF-8" standalone="no"?>
<svg
   width="62"
   height="62"
   version="1.1"
   id="svg11"
   sodipodi:docname="xdman.svg"
   inkscape:version="1.4 (unknown)"
   xmlns:inkscape="http://www.inkscape.org/namespaces/inkscape"
   xmlns:sodipodi="http://sodipodi.sourceforge.net/DTD/sodipodi-0.dtd"
   xmlns:xlink="http://www.w3.org/1999/xlink"
   xmlns="http://www.w3.org/2000/svg"
   xmlns:svg="http://www.w3.org/2000/svg">
  <sodipodi:namedview
     id="namedview11"
     pagecolor="#ffffff"
     bordercolor="#000000"
     borderopacity="0.25"
     inkscape:showpageshadow="2"
     inkscape:pageopacity="0.0"
     inkscape:pagecheckerboard="0"
     inkscape:deskcolor="#d1d1d1"
     inkscape:zoom="6.0546875"
     inkscape:cx="21.058065"
     inkscape:cy="40.877419"
     inkscape:window-width="1920"
     inkscape:window-height="998"
     inkscape:window-x="0"
     inkscape:window-y="0"
     inkscape:window-maximized="1"
     inkscape:current-layer="svg11" />
  <defs
     id="defs8">
    <linearGradient
       id="linearGradient11"
       inkscape:collect="always">
      <stop
         style="stop-color:#2d3d53;stop-opacity:1;"
         offset="0"
         id="stop11" />
      <stop
         style="stop-color:#3a4f6b;stop-opacity:1;"
         offset="1"
         id="stop12" />
    </linearGradient>
    <linearGradient
       id="b"
       x1="408.57999"
       x2="408.42999"
       y1="543.13"
       y2="506.31"
       gradientTransform="matrix(1.3992537,0,0,1.3992537,-601.54815,-703.08915)"
       gradientUnits="userSpaceOnUse">
      <stop
         offset="0"
         stop-color="#18222a"
         id="stop1" />
      <stop
         offset="1"
         stop-color="#566069"
         id="stop2" />
    </linearGradient>
    <linearGradient
       id="d"
       x1="50"
       x2="50"
       y1="37"
       y2="63"
       gradientTransform="matrix(1.5,0,0,1.5,-583.36874,-756.64)"
       gradientUnits="userSpaceOnUse">
      <stop
         offset="0"
         stop-color="#026ddc"
         id="stop3" />
      <stop
         offset="1"
         stop-color="#28b0fd"
         id="stop4" />
    </linearGradient>
    <linearGradient
       id="f"
       x1="50"
       x2="50"
       y1="43"
       y2="59"
       gradientUnits="userSpaceOnUse"
       gradientTransform="translate(-2.5287448,-2.9399997)">
      <stop
         offset="0"
         stop-color="#fff"
         id="stop5" />
      <stop
         offset="1"
         stop-color="#dafbff"
         id="stop6" />
    </linearGradient>
    <filter
       id="a"
       width="1.072"
       height="1.072"
       x="-0.036000001"
       y="-0.036000001"
       color-interpolation-filters="sRGB">
      <feGaussianBlur
         stdDeviation=".6"
         id="feGaussianBlur6" />
    </filter>
    <filter
       id="c"
       width="1.12"
       height="1.12"
       x="-0.059999998"
       y="-0.059999998"
       color-interpolation-filters="sRGB">
      <feGaussianBlur
         stdDeviation=".65"
         id="feGaussianBlur7" />
    </filter>
    <filter
       id="e"
       width="1.1285714"
       height="1.1125"
       x="-0.064285714"
       y="-0.05625"
       color-interpolation-filters="sRGB">
      <feGaussianBlur
         stdDeviation=".375"
         id="feGaussianBlur8" />
    </filter>
    <linearGradient
       inkscape:collect="always"
       xlink:href="#linearGradient11"
       id="linearGradient12"
       x1="-29.854954"
       y1="57.824986"
       x2="-29.855005"
       y2="1.8549231"
       gradientUnits="userSpaceOnUse" />
  </defs>
  <g
     id="g11"
     transform="translate(1.1450462,1.1600885)">
    <rect
       width="40"
       height="40"
       x="-428.57001"
       y="503.79999"
       filter="url(#a)"
       opacity="0.25"
       rx="20"
       transform="matrix(-1.3992537,0,0,1.3992537,-541.83814,-703.08916)"
       id="rect8" />
    <rect
       width="55.970142"
       height="55.970142"
       x="-57.840076"
       y="1.8549231"
       rx="27.985071"
       transform="scale(-1,1)"
       id="rect9"
       style="fill:url(#linearGradient12);fill-opacity:1" />
    <path
       d="m 24.118065,3.3129455 c -0.170716,0.00748 -0.214559,0.074631 -0.597016,0.074631 -0.614745,0 -0.789183,0.1837687 -0.614745,0.2583956 0.174439,0.074631 -0.341416,0.2593284 -0.170704,0.4757462 0.169775,0.2154851 0.170704,0 0.170704,0 0,0 0.783584,-0.4925372 0.974815,-0.3264928 0.191235,0.1660451 -0.0084,-0.2985073 0.626869,-0.1492534 0.634325,0.1492534 0.932834,-0.088615 0.152985,-0.2583956 -0.292913,-0.064369 -0.440297,-0.08022 -0.542908,-0.074631 m 10.989731,1.319963 a 0.74626873,0.74626873 0 0 0 -0.173501,0.024255 c -0.485078,0.1203354 -0.102611,0.3404848 0.486938,0.6231339 0.589549,0.2817166 0.492536,0.2947761 0.949624,0.2985075 0.459893,0 -0.03734,-0.2985075 -0.351678,-0.4738805 C 35.743066,4.9528718 35.491193,4.6291778 35.107796,4.6338421 Z M 30.05183,5.3642517 c -0.534514,0.018658 -1.134328,0.1763062 -1.473885,0.2602613 -0.452423,0.1119402 -0.783581,0.3610074 -0.6763,0.4319031 0.108203,0.074631 0.26119,0.1613804 -0.398325,0.2276117 -0.655785,0.066236 -0.459886,0.4729483 -0.231342,0.6436573 0.232278,0.1697755 0.332094,0 0.447764,0.1707086 0.116598,0.1697763 0.593281,0.3563433 0.253729,0.5102612 -0.335818,0.153918 -1.258397,0.082088 -1.445895,0.082088 -0.186564,0 0.436566,-0.2985077 -0.654853,0 -1.091419,0.2985079 -1.221083,-0.00369 -0.847948,-0.186567 0.377801,-0.181903 0.134332,-0.4104479 -0.143655,-0.2397389 -0.277986,0.1697762 0.0094,0.6632466 -0.269591,0.7210824 -0.277987,0.058768 -0.553173,-0.2779851 -0.860069,0.058768 -0.306909,0.3358208 -0.841422,-0.161381 -0.753735,0.191231 0.08767,0.3526123 -0.547578,0.3227615 -0.273324,-0.2499998 C 22.997725,7.412757 22.3494,7.1357051 23.162839,7.5051079 23.976269,7.8698467 24.487463,7.8745107 24.118065,7.1599585 23.748655,6.44634 23.328882,6.699139 23.162839,6.44634 22.993065,6.1935416 23.590079,5.9146237 22.510782,5.9146237 c -1.082086,0 -1.281709,0.025186 -2.127794,0.3656717 -0.847019,0.3404855 -1.90952,1.2248136 -2.461754,1.2248136 -0.552241,0 -1.207096,0.3815298 -1.497204,0.7341415 -0.291045,0.3526121 -0.569034,1.0158584 -0.142721,0.8115676 0.428167,-0.2024255 1.069026,-0.360075 0.794772,0.088615 -0.274255,0.4477648 -0.792907,0.9123129 -0.223884,0.9123129 0.569034,0 0.949634,-0.5764917 1.286383,-0.746268 0.331156,-0.1669776 0.492538,-0.262127 0.571828,-0.7145525 0.07835,-0.4570896 1.277984,-0.8451491 1.67258,-1.0858211 0.394585,-0.2406717 1.291042,-0.3619404 0.399249,0.1856343 -0.892724,0.547575 -1.304101,0.8376869 -1.383393,1.1408587 -0.07466,0.3022385 -0.144589,0.3917909 0.477612,0.304104 0.622202,-0.087687 0.921643,0.1679108 0.265859,0.2639938 -0.655784,0.096083 -0.597014,0.2667903 -0.909513,0.4570876 -0.315304,0.1912362 -0.328362,-0.2574629 -0.680971,0 -0.352618,0.2574642 -0.492537,0.6315342 -1.040116,0.7108272 -0.547571,0.07932 -0.780784,0.190293 -1.087685,0 -0.303175,-0.191237 -0.955224,-0.24254 -0.548509,-0.412315 0.406715,-0.169777 0.411383,0.249997 0.548509,-0.4972058 0.137123,-0.746268 -0.402982,-0.298506 -0.626863,0 -0.223883,0.2985097 -0.128736,0.6399298 -0.85448,0.8059728 -0.72668,0.165114 -1.365673,0.479478 -1.819027,0.682835 -0.451497,0.203358 -0.592352,0.295709 -0.870341,0.204296 -0.277987,-0.09143 0,0.0942 -0.539176,0.0942 -0.539184,0 0.349814,0.95149 -0.186568,1.428165 -0.534512,0.477611 -0.602614,0.47855 -1.316237,0.205224 -0.7136128,-0.273317 -0.8880549,0.704291 -1.2901073,1.152992 -0.402985,0.447754 -0.1623133,0.48414 -0.3404849,0.695894 -0.1791046,0.210816 -0.2742538,0.141791 0,0.349813 0.2733209,0.207091 0.112873,0.451487 0.6772387,0.260259 0.5643672,-0.191229 0.6753749,-0.0047 1.0569035,-0.460821 0.382458,-0.457088 0.985073,-0.820898 1.395521,-1.190296 0.410449,-0.373135 0.498138,-0.29478 0.821827,-0.29478 0.323698,0 0.987878,-0.369401 0.987878,0.211754 0,0.581161 0.386189,1.16511 0.386189,1.393661 0,0.228546 -0.0345,0.410442 -0.320894,0.50933 -0.286381,0.104474 -1.003729,-0.255598 -0.646458,0.200552 0.361014,0.457098 0.330228,0.137133 0.575562,-0.07461 0.249069,-0.211753 0.47855,0.107274 0.544776,-0.39832 0.06528,-0.511195 0.140856,-0.477612 0.281722,-0.236942 0.141783,0.236004 0.133388,0.0047 -0.07467,-0.410446 -0.208019,-0.415119 -0.447763,-1.423512 0.07467,-1.565305 0.522385,-0.13992 -0.02056,0.324626 0.19869,0.668849 0.220154,0.345143 0.667908,0.833016 0.393654,1.190296 -0.273317,0.356342 -0.09888,0.764925 -0.18563,0.99254 -0.0868,0.227607 -0.01214,0.472941 0.08764,0.406715 0.09981,-0.06625 0.265859,-0.48508 0.431901,-0.319033 0.166043,0.166048 0.139929,0.06528 0.139929,-0.444963 0,-0.510258 0.100745,-0.406715 0.278915,-0.340479 0.178172,0.06625 -0.02984,-0.35262 0.347946,-0.09143 0.377797,0.261197 1.037314,-0.04479 0.805036,-0.197758 -0.232276,-0.153922 -0.11567,-0.543847 0.477613,-0.9459 0.593281,-0.406714 0.895527,-0.649254 1.056906,-0.40858 0.166042,0.24067 0,-0.02521 0,0.24067 0,0.265861 0.133391,0.569032 0.32369,0.337687 q 0.193097,-0.231339 0,-0.500004 0.136194,-0.07372 0.41605,-0.07278 c 0.277979,0 1.168844,-0.323698 0.43843,0.240671 -0.730412,0.564363 -0.207092,0.269586 0,0.95802 0.20802,0.689365 -0.198697,0.783583 -0.568095,0.783583 -0.369408,0 -0.505602,-0.510265 -0.994407,-0.510265 -0.489739,0 -0.834882,-0.01308 -1.02612,0.07835 -0.191229,0.09143 -0.427239,0.192158 -0.929103,0.263053 -0.501869,0.07088 -0.05042,1.625935 0.376869,1.361011 0.427238,-0.264922 0.10448,0.07467 0.429105,0.165115 0.322762,0.09143 1.035446,-0.460821 0.799436,0.07462 -0.236002,0.53545 -0.460822,0.477612 -0.676307,0.863812 -0.215484,0.386189 -0.165105,0.96268 -0.82556,0.734136 -0.659516,-0.227613 -0.585815,0 -0.946829,0 -0.361004,0 0.04663,-0.16138 -0.542909,-0.405784 -0.589549,-0.245334 -0.220148,-0.769588 -0.821825,-0.424437 -0.601679,0.345152 -0.564367,0.839554 -0.821828,0.694026 -0.257461,-0.145517 -0.50187,-1.124061 -0.746274,-1.124061 -0.245335,0 -0.738802,-0.158585 -0.306898,-0.685641 0.4319,-0.527046 0.07465,-0.582088 0.393657,-0.739738 0.323688,-0.161379 -0.111946,-0.162308 -0.464556,-0.162308 -0.35261,0 -1.274251,-0.305042 -1.821829,-0.07278 C 9.5060835,16.065679 9.5238039,16.29609 9.1376119,16.063811 8.7523551,15.827818 8.963176,15.487327 8.5891087,15.90151 c -0.3731343,0.415108 -1.2444031,0.921642 -1.4682835,1.419771 -0.2238808,0.498134 -0.6930975,0.81903 -1.4029851,1.275187 -0.7089553,0.457089 -1.3572764,1.916979 -1.8964558,3.140859 -0.5391788,1.224815 -1.1110073,2.061565 -0.6343285,3.775186 0.477612,1.71362 1.0783587,2.594221 1.2360076,2.536382 0.1576497,-0.0578 0.7639928,-0.634329 1.0708957,-0.319026 0.3078361,0.319964 1.3404856,-0.819031 1.6268661,-0.453364 0.2863806,0.364738 0.1277987,1.171648 0.800373,0.768658 0.6716421,-0.402053 0.2583955,1.828359 0.2583955,2.177245 0,0.348875 0.932836,1.785446 1.1660448,3.010255 0.083023,0.435632 0.2723868,0.846081 0.2929102,1.361008 0.041976,0.937505 -0.085843,1.978551 0.3078371,2.439366 0.6100722,0.718282 1.5596982,2.676309 1.9337672,3.232274 0.373134,0.555975 1.589554,2.067168 1.776121,2.341422 0.182834,0.273317 0.585816,-0.133399 1.104476,-0.208019 0.518662,-0.07088 1.045708,-0.73881 0.938435,-1.601683 -0.108213,-0.862876 -0.348885,-1.352608 0,-1.789179 0.347947,-0.435635 -0.761192,-1.693097 -0.154852,-2.468285 0.60541,-0.776121 0.780785,-1.464551 0.258392,-3.306904 -0.522385,-1.837687 -0.603545,-1.81903 0.625006,-3.66604 1.228541,-1.842356 3.150183,-4.049442 1.577426,-3.576497 -1.576497,0.472947 -1.058776,0.02615 -1.386198,-0.485072 -0.327422,-0.510265 -0.216414,-0.376866 -0.565299,-2.033586 -0.347947,-1.651119 -0.0942,-2.789175 -0.168839,-3.568097 -0.07468,-0.77612 0.07835,-0.328359 0.405778,0.236012 0.32836,0.564363 0.444967,2.068095 0.444967,2.835815 0,0.767729 -0.108212,2.76306 0.2444,2.529856 0.352616,-0.232277 2.357282,-1.228549 2.763997,-1.489738 0.406715,-0.261198 1.971084,-1.539183 1.506529,-1.913251 -0.464555,-0.373133 -0.315303,-0.788246 -0.315303,-1.020521 0,-0.236005 -0.382458,0.169775 -0.789172,0.406714 -0.406723,0.240674 -0.572768,0.14459 -0.743472,-0.506525 -0.169777,-0.652056 -0.302244,-1.34888 0.162308,-1.527053 0.464553,-0.17817 0.250008,0.498138 0.578359,0.83769 0.326493,0.335816 0.472948,0.56436 0.788254,0.332083 0.315291,-0.233205 -0.145529,0.536382 0.600738,0.648327 0.747202,0.111934 1.3153,-0.208029 1.634328,0.214546 0.316233,0.428171 1.303173,1.308773 1.303173,1.487872 0,0.177243 -0.385255,1.912315 0.14179,3.488814 0.527058,1.576487 0.962692,-0.04292 1.111945,-0.727618 0.14925,-0.684704 -0.01214,-0.741605 0.593281,-1.305969 0.606349,-0.564367 2.144592,-1.431904 2.522387,-1.613801 0.376868,-0.182842 0.154852,0.111935 0.378736,0.655783 0.22388,0.542909 -0.04945,1.708949 0.626861,1.38992 q 0.678176,-0.317159 0.434708,0.373133 c -0.169777,1.128736 -0.137132,1.870341 0.09514,2.238812 0.352612,0.548508 1.049443,2.815299 1.211754,1.948691 0.157654,-0.867537 -0.202422,-1.419777 -0.617534,-1.702427 -0.419782,-0.277981 -0.722018,-0.98694 -0.240671,-1.735076 0.481345,-0.75 0.47201,0.294781 0.858205,0.618472 0.386198,0.323696 0.489737,0.780783 0.697766,0.431904 0.208021,-0.34888 1.306898,-0.593286 0.610074,-2.049442 -0.696832,-1.46082 -0.494403,-0.971078 -0.16791,-1.494401 a 1.212687,1.212687 0 0 1 0.221078,-0.240674 c 0.06528,0.04198 0.133397,0.04198 0.258395,0.01308 0.162315,-0.03735 0.3778,-0.04292 0.33209,0.03638 -0.04662,0.07463 -0.02984,0.244398 0.06528,0.315293 0.09516,0.07467 0.111946,-0.05042 0.08395,-0.149252 -0.0289,-0.09982 0.133401,-0.17351 0.34049,-0.202427 0.203359,-0.0289 0.256526,-0.03735 0.335818,-0.139926 0.07835,-0.104472 0.103544,-0.04661 0.190302,0 0.08764,0.04481 0.137123,-0.04661 0.315293,-0.149254 0.179109,-0.104476 0.265859,0.07835 0.377805,0 0.111938,-0.07932 -0.04566,-0.221078 0.174438,-0.282648 0.220149,-0.06253 0.169774,-0.176307 0.361004,-0.317162 0.128736,-0.09609 0.326497,-0.132461 0.438438,-0.273323 0.05042,-0.06625 0.04662,-0.223876 0.08111,-0.302238 0.04104,-0.108206 0.14459,-0.121269 0.207091,-0.19123 0.07931,-0.08764 0.116609,-0.22948 0.17911,-0.387128 0.111936,-0.281712 0.227606,-0.385263 0,-0.447763 -0.228544,-0.06251 -0.223884,-0.141787 0,-0.20802 0.22388,-0.06528 0.180967,-0.118466 0.06906,-0.205226 -0.111946,-0.08764 -0.133399,-0.137122 0,-0.137122 0.132461,0 0.158577,-0.01402 0.03734,-0.167914 -0.119402,-0.152986 -0.170706,-0.609139 -0.333022,-0.736938 -0.16138,-0.128736 -0.127798,-0.04661 -0.04851,-0.182841 0.07835,-0.137125 0.394595,-0.373132 0.709892,-0.447755 0.3153,-0.07467 -0.03356,-0.163247 -0.141796,-0.205226 -0.108204,-0.04104 -0.141785,-0.127798 -0.265851,0 -0.125003,0.129666 -0.347954,0.124997 -0.302245,0 0.04104,-0.127798 0.04104,-0.152055 -0.162309,-0.242538 -0.203359,-0.09609 -0.133396,-0.266788 0,-0.266788 0.133394,0 0.107274,0 0.464554,-0.223882 0.356342,-0.223883 0.310631,-0.406715 0.464546,-0.361012 0.211754,0.12127 -0.01495,0.250005 -0.160443,0.51959 -0.145526,0.273321 0.139928,0.197764 0.305969,0.06528 0.166044,-0.132467 0.329291,-0.170713 0.45709,-0.252802 l 0.04661,-0.02615 c 0.177241,0.162311 0.217353,0.312499 0.09982,0.447756 -0.211753,0.24161 -0.104479,0.16605 0.139927,0.240671 0.245336,0.07468 0,0.537318 0,0.752803 0,0.21548 0.718284,0.384326 0.80224,-0.183768 0.07835,-0.569035 -0.708024,-0.895526 -0.180975,-1.287316 0.510264,-0.376868 0.309704,-0.462689 0.54851,-0.671639 0.01867,0.0067 0.04661,-0.01023 0.09982,-0.05599 0.01676,-0.01402 0.02796,-0.02796 0.04198,-0.04198 0.233209,-0.124062 0.447756,-0.06719 0.611004,0 0.190298,0.07835 1.194031,-0.955222 1.550373,-1.701491 0.352616,-0.751867 0.601683,-1.955224 0,-1.685636 -0.601678,0.269591 -0.995335,-0.195891 -0.456151,-0.552234 0.539177,-0.356347 1.100743,-1.160448 1.656712,-1.160448 0.555973,0 1.126864,-0.09516 1.284519,0 0.157648,0.09514 0.457088,0.130593 0.722948,0.114733 0.265858,-0.02051 -0.158585,-0.314365 0.30597,-0.559703 0.465483,-0.244396 1.041975,-0.331154 0.971076,-0.09049 -0.06994,0.240673 0.16232,0.190301 0.402991,0 0.240672,-0.19123 0.743471,-0.598881 0.369401,-0.112873 -0.368471,0.485078 -0.811564,0.710822 -1.139924,1.080226 -0.328361,0.3694 -0.541043,0.356343 -0.382468,1.497201 0.157655,1.141793 0.280785,0.693094 0.468288,0.240669 0.186568,-0.452426 0.293842,-0.04104 0.389926,-0.522385 0.09609,-0.481348 0.294777,0.137126 0.294777,-0.363809 0,-0.503728 0.361936,-0.147386 0.233208,-0.425373 -0.128729,-0.277981 -0.327424,-0.438431 -0.166045,-0.646451 0.166045,-0.208026 0.152985,-0.373135 0.601678,-0.481346 0.447763,-0.108211 0.572761,-0.274255 0.833956,-0.07465 0.261195,0.199631 0.418843,-0.291975 0.903914,-0.470147 0.485078,-0.17817 0.862876,-0.03544 0.705226,-0.413245 -0.157635,-0.377783 -0.683752,-0.453343 -0.114726,-0.519571 A 0.37313435,0.37313435 0 0 0 49.610559,9.98446 27.985073,27.985073 0 0 0 47.978098,8.4900579 c -0.231347,0.00654 -0.278918,0.033581 -0.278918,0.2042913 0,0.249067 -0.580223,-0.2080225 -1.036381,-0.1035451 C 46.2057,8.6934587 46.038722,8.8315185 45.74488,8.4826378 45.446392,8.134727 44.88203,8.4080478 44.334458,8.2392045 43.786879,8.0684957 43.766355,7.7821151 43.252365,7.6906969 c -0.514927,-0.091422 -1.26306,0.012129 -1.26306,0.1819031 0,0.1697761 0.05874,0.3535448 -0.555967,0.1744403 -0.609145,-0.1735075 -0.660452,-0.1902985 -0.801311,0 -0.140829,0.1912359 -0.572732,0.166982 -0.464524,-0.285443 0.10353,-0.4524209 -0.347968,-0.5391747 -0.721101,-0.4943987 -0.373131,0.046641 -0.178171,0.3610078 -0.659512,0.2406715 -0.48134,-0.1203356 -0.611006,-0.2397386 -1.249998,-0.2397386 -0.638993,0 -1.552241,0.074631 -0.386196,-0.4067163 1.166044,-0.4813436 0.340485,-0.8880598 -0.111941,-0.8050376 -0.451488,0.083026 -0.249067,-0.4906714 -0.937495,-0.2042907 -0.6931,0.2863805 -0.958958,0.3451486 -1.747201,0.3451486 -0.789183,0 -1.011199,0.5970154 -1.538255,0.5317165 -0.527046,-0.062501 -1.149248,-0.2248132 -0.837684,0.1977614 0.310638,0.4235078 0.215483,1.1287316 0,0.9458957 C 31.762654,7.6898117 32.369925,7.5368263 31.855933,7.26817 31.345677,6.9976476 31.167503,7.0983937 30.972535,7.0983937 c -0.195891,0 -0.258392,-0.3283585 -0.490672,0.1697763 -0.219209,0.4664176 -0.01214,0.4300373 0.211755,0.7304101 a 0.32649259,0.32649259 0 0 0 -0.315295,-0.0093 c -0.406714,0.1912313 -0.201491,0.4972015 -0.758395,0.6016791 -0.555975,0.102612 0.258392,0 0.38713,-0.6016791 0.128727,-0.6016835 0.118463,-0.776124 0.471074,-1.0625045 0.353546,-0.2863852 -0.223873,-0.3768704 -0.779849,-0.065302 -0.555967,0.311567 -0.587682,0.5932833 -0.480408,0.7462687 0.103542,0.1539179 0.103542,0.4981343 -0.09143,0.3815299 -0.190292,-0.116618 -0.618461,-0.6632595 -0.999989,-0.6632595 -0.381529,0 -0.489743,-0.6231344 -0.286385,-0.8768658 0.20336,-0.2518778 -0.10914,-0.3349001 0.998142,-0.5298628 1.10727,-0.1949626 2.320894,-0.386194 1.714547,-0.5186565 a 2.0522387,2.0522387 0 0 0 -0.500929,-0.037314 z m 12.615675,1.2164179 a 6.5298513,6.5298513 0 0 0 -0.470157,0.035448 c -0.808767,0.082088 -0.369399,0.3199631 0.07835,0.4104481 0.447762,0.087687 0.666045,0.2863807 0.587679,-0.1119409 -0.0205,-0.1016789 0.01402,-0.1436564 0.08301,-0.1511192 q -0.02984,-0.018658 -0.002,-0.051305 c 0.06528,-0.074631 0.06719,-0.1399254 -0.277048,-0.1305967 z m 0.472011,0.2145523 c 0.235072,0.071825 0.552243,0.2360077 0.697762,0.2360077 0.257463,0 0.161379,-0.2201495 -0.252796,-0.2238808 A 9.3283587,9.3283587 0 0 1 43.139516,6.7961551 Z M 14.349407,8.3344011 c -0.07467,0 -0.494404,0.09888 -0.805045,0.3600747 -0.31156,0.2611942 -0.493465,0.7639914 -0.244397,0.8507488 0.240671,0.091438 0,0.4570884 -0.307837,0.4570884 -0.31157,0 -0.123135,0.169776 -0.338623,0.305971 -0.220149,0.137123 -0.387127,0.07647 -0.200562,0.171641 0.1903,0.09515 0.370339,0.139928 -0.186565,0.261189 -0.555969,0.119403 -0.149252,0.194033 0.124073,0.136194 0.273317,-0.0578 0.672573,0.162319 0.909514,0.0578 0.236939,-0.102613 0.121268,-0.197759 0.357271,-0.36381 0.236012,-0.170705 0.214558,-0.26585 0.06159,-0.26585 -0.152985,0 -0.169776,0 0,-0.137132 0.170706,-0.140857 0.264923,-0.6977605 0.214549,-0.9347011 -0.04945,-0.2360072 -0.185637,-0.143657 0.100746,-0.2350747 0.286384,-0.091421 0.643655,-0.2537311 0.315304,-0.3078354 -0.328362,-0.054106 -0.09049,0 0.09609,-0.178172 0.186561,-0.1790931 -0.02147,-0.1790931 -0.09609,-0.1790931 z m -1.708958,0.9048512 c -0.09516,0 -0.1903,0.1865688 -0.389927,0.2313435 -0.199626,0.049459 0,-0.1166055 -0.23321,0.078361 -0.23321,0.1949629 0.180034,0.2332133 -0.338616,0.5783582 -0.518661,0.343286 0.517721,0.140865 0.779848,-0.111936 0.262126,-0.2528018 0.251863,-0.2574648 0.434705,-0.3899261 0.182834,-0.1324618 0.07088,-0.2695907 -0.0868,-0.2695907 -0.158576,0 -0.07088,-0.1166043 -0.166043,-0.1166043 M 42.28127,13.438885 c 0.0037,0.157647 -0.03734,0.231348 -0.116606,0.231348 -0.121268,0 -0.05874,-0.05505 -0.08764,0.54291 -0.02796,0.597015 -0.214548,1.694024 0.08764,1.694024 0.303173,0 0.116606,-0.257462 0.116606,-0.514917 0,-0.257465 0.04566,-0.328362 0.178172,-0.328362 0.132463,0 0.108205,-0.152985 0,-0.539183 -0.107281,-0.386192 -0.03734,-0.629661 -0.07088,-0.783584 a 1.8656715,1.8656715 0 0 0 -0.107277,-0.302239 m 10.314365,0.0597 a 5.5970153,5.5970153 0 0 1 -0.663247,0.27145 4.7201497,4.7201497 0 0 1 -3.078356,0 q 1.044777,0.528923 2.650187,0.261198 c 0.496269,-0.08395 0.881529,-0.221088 1.203355,-0.375938 z m -10.616606,2.779852 c -0.02054,0.0094 -0.03081,0.04388 -0.03081,0.119403 0,0.303165 -0.157655,0.354475 -0.332093,0.458955 -0.174438,0.104477 -0.155781,0.101674 -0.11474,0.736934 0.04198,0.634329 -0.514927,1.119408 -0.863804,1.347015 -0.347947,0.228546 -0.851683,0.357279 -1.038249,0.357279 -0.186568,0 -0.45615,0.318098 -0.646452,0.384326 q -0.19403,0.06434 0.06719,0.8181 c 0.116602,-0.02426 0.18563,-0.05691 0.218283,-0.0942 0.07465,-0.108211 0.07182,-0.312498 0.07182,-0.441234 0,-0.311561 0.29385,0.08301 0.422578,0 0.128728,-0.08301 0.191228,-0.145519 0.336755,-0.28265 0.145519,-0.136195 0.277981,0.13806 0.569025,-0.09795 0.289178,-0.236941 0.51866,-0.08764 0.746273,-0.179111 0.223877,-0.09049 0.116603,-0.643653 0.357274,-1.103545 0.240673,-0.459884 0.211753,-0.834884 -0.0578,-1.087686 -0.270525,-0.249068 0.47108,-0.05505 0.861008,-0.249997 0.389926,-0.194962 0.113806,-0.309703 -0.156714,-0.413244 -0.201494,-0.07741 -0.348884,-0.295716 -0.410448,-0.271459 z m -4.785436,5.74907 c -0.05874,0 -0.04198,0.141789 0,0.116601 0.04104,-0.02521 0.05689,-0.116601 0,-0.116601 m 0.239735,0 c -0.05042,0 -0.04661,0.08764 0,0.05874 0.04945,-0.02521 0.05411,-0.05874 0,-0.05874 m 0.08026,0.08764 a 0.37313435,0.37313435 0 0 1 -0.162316,0.08395 l -0.04198,0.01214 c -0.244399,0.07462 -0.339552,0.152984 -0.361004,0.3638 l 0.08206,0.0094 c 0.02055,-0.169779 0.08861,-0.228549 0.304105,-0.294779 a 0.18656715,0.18656715 0 0 1 0.03735,-0.01214 0.46641795,0.46641795 0 0 0 0.194961,-0.09702 z m -0.880607,0.10355 c -0.09887,0 -0.186566,0.09143 -0.265859,0.265858 -0.03264,0.06625 -0.07742,0.145521 -0.126862,0.23694 q -0.07648,0.136194 0.126862,0.497201 c 0.07088,-0.152986 0.162318,-0.352612 0.265859,-0.597016 0.158584,-0.365668 0.14926,-0.398319 0,-0.402983 m 0.04945,1.020521 q -0.174443,0.26866 -0.431907,0.606352 l 0.06813,0.04945 q 0.261194,-0.335819 0.434703,-0.610074 z m -1.52985,0.107277 c -0.05042,0 -0.04661,0.08764 0,0.05874 0.04945,-0.02521 0.05315,-0.05874 0,-0.05874 m -0.08395,0.125939 c -0.05042,0 -0.04662,0.08764 0,0.0578 0.04945,-0.02426 0.05411,-0.0578 0,-0.0578 m 0.249066,0.08205 c -0.04945,0 -0.04566,0.08674 0,0.0578 0.05042,-0.02426 0.05411,-0.0578 0,-0.0578 m -1.646453,0.181905 c -0.233216,0 -0.354483,0.100745 -0.382466,0.100745 -0.02984,0 -0.153915,0.03354 -0.09143,0.291046 0.06253,0.257459 0.311568,0.114733 0.357279,0.05599 0.04566,-0.0578 0.116607,-0.177234 0.191227,-0.272388 0.07467,-0.09609 0.157654,-0.175367 -0.07462,-0.175367 m 2.770519,0.539176 c -0.151114,-0.02984 -0.32089,0.363812 -0.402048,0.628732 q -0.105408,0.356344 0.210823,0.929112 l 0.984144,0.345143 a 13.992537,13.992537 0 0 0 -0.730409,-0.656714 c -0.514926,-0.435635 0.248131,-0.556904 0.07835,-1.054104 -0.04292,-0.125002 -0.08955,-0.181904 -0.139922,-0.192166 z m -0.617544,0.19683 c -0.07461,0.199626 -0.111938,0.444031 -0.128728,0.746268 l 0.08395,0.0047 c 0.01582,-0.29477 0.05315,-0.53078 0.123135,-0.72201 l -0.07835,-0.02796 z m -1.916041,0.162312 c -0.05041,0 -0.04661,0.08586 0,0.05599 0.04945,-0.02425 0.05316,-0.05599 0,-0.05599 m 0.165114,0.04008 c -0.04945,0 -0.04566,0.08764 0,0.0578 0.05041,-0.02426 0.05411,-0.0578 0,-0.0578 m -0.207091,0.166043 c -0.05042,0 -0.04661,0.08675 0,0.0578 0.04945,-0.02427 0.05316,-0.0578 0,-0.0578 m -0.59422,0.0345 v 0.529849 c 0,0.01676 0.0027,0.04198 0.0077,0.08764 0,0.0084 0.0057,0.01676 0.0057,0.0289 0,0.01676 0.0037,0.02426 0.0037,0.03264 q 0.0037,0.03916 0.0094,0.07088 l 0.08116,-0.0094 -0.0077,-0.07465 c 0,-0.0077 -0.0047,-0.01582 -0.0047,-0.03267 -0.0047,-0.01214 -0.0037,-0.01676 -0.0037,-0.02521 v -0.0037 q -0.0084,-0.05599 -0.0094,-0.07465 v -0.52985 z m 1.422574,0.04945 c -0.04945,0 -0.04566,0.08677 0,0.0578 0.05042,-0.02521 0.05411,-0.0578 0,-0.0578 m -0.581152,0.04104 c -0.04945,0 -0.04566,0.08764 0,0.05874 0.05042,-0.02521 0.05411,-0.05874 0,-0.05874 m -0.331157,0.08206 c -0.05042,0 -0.04662,0.08764 0,0.05874 0.04945,-0.02521 0.05411,-0.05874 0,-0.05874 m 0.705218,0.08395 c -0.05042,0 -0.0466,0.08764 0,0.05874 0.04945,-0.02521 0.05411,-0.05874 0,-0.05874 m 1.191236,0.829293 c -0.0047,0.0578 -0.0094,0.0989 -0.0094,0.136194 -0.02425,0.124994 -0.111942,0.319957 -0.24067,0.539175 l 0.07182,0.04198 c 0.132433,-0.227607 0.223854,-0.427234 0.249041,-0.568089 q 0.0077,-0.0578 0.01308,-0.145526 z m -2.390857,0.395517 a 1.212687,1.212687 0 0 1 -0.161379,0.405783 2.7985073,2.7985073 0 0 0 -0.156719,0.250001 l 0.06902,0.04007 c 0.04566,-0.08395 0.09702,-0.161379 0.154851,-0.244405 q 0.129666,-0.186568 0.178172,-0.435636 z m 1.780784,0.06159 c -0.05042,0 -0.04661,0.08764 0,0.05874 0.04945,-0.02521 0.05411,-0.05874 0,-0.05874 m -0.581163,0.166041 c -0.05042,0 -0.0466,0.08764 0,0.0578 0.04945,-0.02426 0.05316,-0.0578 0,-0.0578 m 0.705228,0.04198 c -0.05042,0 -0.04662,0.08678 0,0.0578 0.04945,-0.02426 0.05316,-0.0578 0,-0.0578 m 0.165114,0 c -0.04945,0 -0.04566,0.08678 0,0.0578 0.05042,-0.02426 0.05411,-0.0578 0,-0.0578 m -1.118472,0.124067 c -0.04945,0 -0.04566,0.08678 0,0.0578 0.04945,-0.02521 0.05411,-0.0578 0,-0.0578 m -8.544779,0.03268 c 0,0.102613 -0.06159,0.290109 -0.181904,0.552236 -0.182833,0.398325 0.180975,0.970155 0.409519,0.555036 q 0.224803,-0.416971 -0.227623,-1.107265 m 8.79291,0.09325 c -0.05042,0 -0.04661,0.08489 0,0.05599 0.04945,-0.02521 0.05316,-0.05599 0,-0.05599 m -0.539176,0.289181 c -0.05042,0 -0.0466,0.08764 0,0.0578 0.04945,-0.02426 0.05316,-0.0578 0,-0.0578 m 0.373134,0 c -0.04945,0 -0.04566,0.08764 0,0.0578 0.04945,-0.02426 0.05411,-0.0578 0,-0.0578 m 0.581154,0 c -0.04945,0 -0.04566,0.08764 0,0.0578 0.04945,-0.02426 0.05411,-0.0578 0,-0.0578 m 2.374072,0.0345 a 0.65298513,0.65298513 0 0 0 -0.332093,0.07278 c -0.742532,0.332085 -0.44403,0.416041 0,0.295709 q 0.443101,-0.118474 0.06994,0.321825 0.385254,0.387126 0.460817,0.145526 c 0.06065,-0.192168 0.163244,-0.794775 -0.19869,-0.835823 m -3.578358,0.0077 c -0.04945,0 -0.04566,0.0868 0,0.0578 0.04945,-0.02425 0.05411,-0.0578 0,-0.0578 m 1.300368,0.03269 a 0.93283587,0.93283587 0 0 1 -0.08675,0.09515 c -0.116608,0.124072 -0.187504,0.233212 -0.354476,0.514926 l 0.07182,0.04198 c 0.157647,-0.273317 0.226678,-0.382459 0.338623,-0.499066 0.0289,-0.0289 0.06434,-0.06065 0.09323,-0.09796 z m -0.551292,0.216402 c -0.05042,0 -0.04662,0.08586 0,0.05599 0.04945,-0.02424 0.05316,-0.05599 0,-0.05599 m -0.789181,0.164182 c -0.04945,0 -0.04566,0.08764 0,0.05874 0.04945,-0.02521 0.05411,-0.05874 0,-0.05874 m 0.581161,0 c -0.04945,0 -0.04566,0.08764 0,0.05874 0.04945,-0.02521 0.05411,-0.05874 0,-0.05874 m -1.120339,0.04198 c -0.05042,0 -0.04661,0.08764 0,0.05874 0.04945,-0.02521 0.05411,-0.05874 0,-0.05874 m -0.38619,0.07088 a 0.88619411,0.88619411 0 0 0 0.07088,0.382461 c 0.04945,0.104477 0.114731,0.220148 0.189362,0.33209 l 0.06719,-0.04566 a 1.8656715,1.8656715 0 0 1 -0.181904,-0.320895 0.78358215,0.78358215 0 0 1 -0.06159,-0.34422 z m 1.214547,0.302238 c -0.04945,0 -0.04478,0.08764 0,0.05874 0.05042,-0.02521 0.05411,-0.05874 0,-0.05874 m 1.208025,0.02236 c -0.130594,0.002 -0.277988,0.114737 -0.344215,0.251867 -0.13246,0.273317 -1.111941,0.760262 -1.539181,1.05037 -0.42724,0.286385 -0.539176,0.500931 -0.186566,1.011197 0.348884,0.514925 0.954294,0.785449 1.368467,0.785449 0.414182,0 0.872209,-0.792917 0.831159,-1.294778 -0.04104,-0.502799 0.114742,-0.776123 0.114742,-1.389929 0,-0.307834 -0.113812,-0.41604 -0.244406,-0.414176 m -5.609138,0.06902 c 0,0.233214 0.152045,0.498137 0.45522,0.805043 0.457087,0.465484 0.833956,1.934698 1.282647,2.341412 0.447765,0.406723 0.818102,0.522395 0.818102,0.750939 0,0.228544 0.861936,0.344213 1.559696,0.497199 0.696833,0.14925 2.138065,0.217353 2.639926,0.217353 0.501869,0 1.260264,-0.437501 0.70896,-0.08026 -0.552242,0.356342 0.06253,0.490669 0.638993,0.08026 0.576491,-0.410448 0,-0.419774 0,-0.431902 0,-0.01214 -0.937504,0.01119 -1.493472,0.214549 -0.555972,0.203357 -2.083019,-0.293841 -2.888063,-0.497199 -0.805035,-0.203358 -0.862873,-0.227615 -1.020522,-0.227615 -0.157647,0 -0.216415,-0.103542 -0.145518,-0.522385 0.06994,-0.419781 -0.145528,-0.491607 -0.32836,-0.786386 -0.182834,-0.294771 -0.476683,-0.882462 -0.942168,-1.2472 Q 30.367128,28.87363 29.546239,28.127357 m 4.361002,0.116606 c -0.04945,0 -0.04478,0.08764 0,0.05874 0.05041,-0.02521 0.05411,-0.05874 0,-0.05874 m 0.248139,0.227615 c -0.04945,0.06252 -0.09982,0.130595 -0.149255,0.187496 -0.128733,0.153924 -0.261193,0.210826 -0.402988,0.186568 l -0.01214,0.08395 c 0.169775,0.02796 0.332092,-0.04292 0.476681,-0.217345 q 0.08026,-0.09515 0.152986,-0.189371 z m 3.013057,1.047576 c -0.256527,-0.0057 -0.977615,0.0522 -1.154848,0.177234 -0.236012,0.16605 -0.372205,0.436573 -0.487874,0.876869 -0.07932,0.289178 -0.002,0.63339 0.235072,1.023318 0.09143,0 0.178171,-0.14552 0.252802,-0.435634 0.111936,-0.439363 0.176304,0.150187 0.483204,0.531714 0.306906,0.382467 0.23601,-0.311559 0,-0.726677 -0.23694,-0.415114 -0.352611,-0.2444 0,-0.481339 0.352617,-0.23601 -9.29e-4,-0.326493 -0.59048,-0.422576 -0.589555,-0.09143 1.112873,-0.448692 1.328359,-0.514927 0.05411,-0.01676 0.01961,-0.02521 -0.06528,-0.02796 z m 1.891792,0.541043 a 0.34514924,0.34514924 0 0 0 -0.261197,0.09702 c -0.32276,0.294778 -9.3e-4,0.535451 0.131532,0.805043 0.133398,0.270521 0.822763,0.232276 1.561566,0.54291 0.738806,0.311567 0,0.834881 0.373138,0.834881 0.369402,0 1.009324,0.472952 1.204285,0.132471 0.195901,-0.335826 0.423514,-0.245342 0.942168,0.182834 0.51866,0.427238 1.1278,0.2985 0.920712,0.158584 a 2.7985073,2.7985073 0 0 1 -0.920709,-1.201496 c -0.257462,-0.647387 -1.930973,-0.920706 -2.350746,-1.04944 -0.418844,-0.127798 -0.728547,0.524249 -0.902985,0.130594 -0.130595,-0.296636 -0.423506,-0.615665 -0.69776,-0.633392 m 2.804095,3.371244 c -0.187497,-0.01494 -0.267718,0.382468 -0.267718,0.858213 0,0.759325 0.06159,1.208955 -0.685641,0.706157 -0.746265,-0.501868 -1.140853,-0.551306 -0.730404,-1.016788 0.410448,-0.464555 -1.025193,-0.655783 -1.435638,-0.174447 -0.410443,0.481346 -0.214552,0.643664 -0.542913,0.643664 -0.327422,0 -0.290107,-0.306907 -0.883389,0.186566 -0.59329,0.494402 -0.872208,1.169773 -1.4487,1.43097 -0.57649,0.261189 -0.10914,-0.165114 -1.054102,0.486008 -0.955224,0.655782 0.25373,1.58115 0.61847,3.333022 0.365675,1.750926 1.356346,0.3069 1.888056,0.149252 0.530788,-0.158583 0.879665,-0.958957 2.360079,-0.340489 1.482278,0.61754 1.079291,0.612877 1.36194,0.902986 0.28172,0.291046 1.277985,1.029854 1.80504,0.922579 0.527049,-0.111944 0.983207,-0.200561 1.140855,-0.769595 0.157651,-0.568095 1.194966,-1.704288 0.684702,-2.877793 C 44.164706,36.696382 42.840076,34.99675 42.321424,33.97996 42.12646,33.597504 41.976273,33.439845 41.864328,33.43145 m -23.680042,0.70523 c -0.102612,0.0057 -0.105408,0.749063 -0.242538,1.041975 -0.215478,0.468288 -0.360068,0.415111 -0.638056,0.415111 -0.277987,0 -0.0578,0.413251 0.10821,0.833025 0.166045,0.418844 0.127799,1.224816 0.529846,1.905786 0.402052,0.680971 0.586758,1.089551 0.586758,-0.366605 0,-1.456157 0.494403,-0.695894 0,-2.787317 -0.185635,-0.784511 -0.282647,-1.04571 -0.345148,-1.041975 z m 31.326496,6.303175 q -0.08207,0.01496 0.08586,0.361004 0.385262,0.499066 0.16138,0.879666 c -0.223877,0.382457 -0.09981,0.261195 0.06253,0.410447 0.16138,0.145519 0.06994,0.21735 0,0.304104 -0.07088,0.08675 -0.06528,0.423507 0.265859,0 0.332093,-0.423507 0.17817,-0.524253 0.35728,-0.524253 0.178169,0 0.397383,-0.514925 0.172571,-0.435634 -0.219218,0.07835 -0.464553,0.07554 -0.464553,-0.08586 0,-0.162317 -0.0067,-0.407652 -0.06905,-0.204295 -0.06251,0.203358 -0.08395,0.07465 -0.17444,-0.132461 -0.09143,-0.208021 -0.08764,-0.41511 -0.315294,-0.542909 q -0.05599,-0.03353 -0.08206,-0.02984 m -0.166045,1.851681 c -0.0345,-0.01118 -0.105409,0.02615 -0.251864,0.189363 -0.385262,0.439366 0.164177,0.05042 -0.384331,0.440297 -0.547574,0.39086 -1.186566,0.901118 -0.867538,1.058764 0.319964,0.158586 0.606347,0.157657 0.867538,-0.236938 0.255597,-0.384325 0.526125,-0.477613 0.615672,-0.482274 -0.0401,-0.01214 -0.09702,-0.07648 0.07373,-0.342348 0.269588,-0.415112 0.06159,-0.626864 0,-0.522394 -0.03915,0.06625 0.0037,-0.08675 -0.05316,-0.10447 m -6.466421,0.0037 c -0.406714,0 -0.298502,0.107274 0,0.522391 0.298513,0.415112 0.223884,0.369401 0.447763,0.104473 0.224815,-0.265854 -0.04104,-0.626864 -0.447763,-0.626864 m -3.169774,8.013061 -8.005597,0.72668 -1.685636,1.774253 -0.384326,-0.900188 -3.166042,-0.357274 -1.095152,0.739739 -2.594214,1.625933 -5.042915,1.17071 a 27.985073,27.985073 0 0 0 12.120338,2.736939 c 6.511194,0 12.484142,-2.208024 17.228549,-5.910448 l -0.49258,-0.36285 -3.322764,-0.518658 z"
       opacity="0.35"
       id="path9"
       style="stroke-width:0.932833"
       fill="#ffffff" />
  </g>
  <circle
     cx="47.471256"
     cy="47.060001"
     r="13"
     filter="url(#c)"
     opacity="0.25"
     style="paint-order:stroke markers fill"
     id="circle9" />
  <circle
     cx="47.471256"
     cy="47.060001"
     r="13"
     id="circle10"
     style="fill:#8d5fd3" />
  <path
     d="m 44.471255,40.06 v 8 h -4 l 7,8 7,-8 h -4 v -8 z"
     filter="url(#e)"
     opacity="0.15"
     id="path10" />
  <path
     d="m 44.471255,40.06 v 8 h -4 l 7,8 7,-8 h -4 v -8 z"
     id="path11"
     style="fill:#d5c4ef;fill-opacity:1" />
</svg>
