<?xml version="1.0" encoding="UTF-8" standalone="no"?>
<svg
   width="62"
   height="62"
   version="1"
   id="svg8"
   sodipodi:docname="xenia.svg"
   inkscape:version="1.4 (unknown)"
   xmlns:inkscape="http://www.inkscape.org/namespaces/inkscape"
   xmlns:sodipodi="http://sodipodi.sourceforge.net/DTD/sodipodi-0.dtd"
   xmlns:xlink="http://www.w3.org/1999/xlink"
   xmlns="http://www.w3.org/2000/svg"
   xmlns:svg="http://www.w3.org/2000/svg">
  <defs
     id="defs8">
    <linearGradient
       id="linearGradient8"
       inkscape:collect="always">
      <stop
         style="stop-color:#2d3d53;stop-opacity:1;"
         offset="0"
         id="stop8" />
      <stop
         style="stop-color:#394d69;stop-opacity:1;"
         offset="1"
         id="stop9" />
    </linearGradient>
    <linearGradient
       inkscape:collect="always"
       xlink:href="#linearGradient8"
       id="linearGradient9"
       x1="31.562063"
       y1="53"
       x2="32"
       y2="9"
       gradientUnits="userSpaceOnUse" />
  </defs>
  <sodipodi:namedview
     id="namedview8"
     pagecolor="#ffffff"
     bordercolor="#000000"
     borderopacity="0.25"
     inkscape:showpageshadow="2"
     inkscape:pageopacity="0.0"
     inkscape:pagecheckerboard="0"
     inkscape:deskcolor="#d1d1d1"
     inkscape:zoom="11.313709"
     inkscape:cx="31.245281"
     inkscape:cy="34.250485"
     inkscape:window-width="1920"
     inkscape:window-height="998"
     inkscape:window-x="0"
     inkscape:window-y="0"
     inkscape:window-maximized="1"
     inkscape:current-layer="svg8" />
  <g
     id="g8"
     transform="matrix(0.96551724,0,0,1,0.10344832,-0.5)">
    <path
       style="opacity:0.2"
       d="M 7.5,26 A 1.5,1.5 0 0 0 6,27.5 V 38 H 4.5 A 1.5,1.5 0 0 0 3,39.5 1.5,1.5 0 0 0 4.5,41 h 3 A 1.50015,1.50015 0 0 0 9,39.5 v -12 A 1.5,1.5 0 0 0 7.5,26 Z m 49,0 A 1.5,1.5 0 0 0 55,27.5 v 12 a 1.50015,1.50015 0 0 0 1.5,1.5 h 3 A 1.5,1.5 0 0 0 61,39.5 1.5,1.5 0 0 0 59.5,38 H 58 V 27.5 A 1.5,1.5 0 0 0 56.5,26 Z m -43,4 A 1.5,1.5 0 0 0 12,31.5 V 42 H 10.5 A 1.5,1.5 0 0 0 9,43.5 1.5,1.5 0 0 0 10.5,45 h 3 A 1.50015,1.50015 0 0 0 15,43.5 v -12 A 1.5,1.5 0 0 0 13.5,30 Z m 37,0 A 1.5,1.5 0 0 0 49,31.5 v 12 a 1.50015,1.50015 0 0 0 1.5,1.5 h 3 A 1.5,1.5 0 0 0 55,43.5 1.5,1.5 0 0 0 53.5,42 H 52 V 31.5 A 1.5,1.5 0 0 0 50.5,30 Z m -31,5 A 1.5,1.5 0 0 0 18,36.5 V 47 H 16.5 A 1.5,1.5 0 0 0 15,48.5 1.5,1.5 0 0 0 16.5,50 h 3 A 1.50015,1.50015 0 0 0 21,48.5 v -12 A 1.5,1.5 0 0 0 19.5,35 Z m 25,0 A 1.5,1.5 0 0 0 43,36.5 v 12 a 1.50015,1.50015 0 0 0 1.5,1.5 h 3 A 1.5,1.5 0 0 0 49,48.5 1.5,1.5 0 0 0 47.5,47 H 46 V 36.5 A 1.5,1.5 0 0 0 44.5,35 Z m -19,4 A 1.5,1.5 0 0 0 24,40.5 V 51 H 22.5 A 1.5,1.5 0 0 0 21,52.5 1.5,1.5 0 0 0 22.5,54 h 3 A 1.50015,1.50015 0 0 0 27,52.5 v -12 A 1.5,1.5 0 0 0 25.5,39 Z m 13,0 A 1.5,1.5 0 0 0 37,40.5 v 12 a 1.50015,1.50015 0 0 0 1.5,1.5 h 3 A 1.5,1.5 0 0 0 43,52.5 1.5,1.5 0 0 0 41.5,51 H 40 V 40.5 A 1.5,1.5 0 0 0 38.5,39 Z"
       id="path1" />
    <path
       style="fill:#b2b2b2;fill-opacity:1"
       d="M 7.5,25 A 1.5,1.5 0 0 0 6,26.5 V 37 H 4.5 A 1.5,1.5 0 0 0 3,38.5 1.5,1.5 0 0 0 4.5,40 h 3 A 1.50015,1.50015 0 0 0 9,38.5 v -12 A 1.5,1.5 0 0 0 7.5,25 Z m 49,0 A 1.5,1.5 0 0 0 55,26.5 v 12 a 1.50015,1.50015 0 0 0 1.5,1.5 h 3 A 1.5,1.5 0 0 0 61,38.5 1.5,1.5 0 0 0 59.5,37 H 58 V 26.5 A 1.5,1.5 0 0 0 56.5,25 Z m -43,4 A 1.5,1.5 0 0 0 12,30.5 V 41 H 10.5 A 1.5,1.5 0 0 0 9,42.5 1.5,1.5 0 0 0 10.5,44 h 3 A 1.50015,1.50015 0 0 0 15,42.5 v -12 A 1.5,1.5 0 0 0 13.5,29 Z m 37,0 A 1.5,1.5 0 0 0 49,30.5 v 12 a 1.50015,1.50015 0 0 0 1.5,1.5 h 3 A 1.5,1.5 0 0 0 55,42.5 1.5,1.5 0 0 0 53.5,41 H 52 V 30.5 A 1.5,1.5 0 0 0 50.5,29 Z m -31,5 A 1.5,1.5 0 0 0 18,35.5 V 46 H 16.5 A 1.5,1.5 0 0 0 15,47.5 1.5,1.5 0 0 0 16.5,49 h 3 A 1.50015,1.50015 0 0 0 21,47.5 v -12 A 1.5,1.5 0 0 0 19.5,34 Z m 25,0 A 1.5,1.5 0 0 0 43,35.5 v 12 a 1.50015,1.50015 0 0 0 1.5,1.5 h 3 A 1.5,1.5 0 0 0 49,47.5 1.5,1.5 0 0 0 47.5,46 H 46 V 35.5 A 1.5,1.5 0 0 0 44.5,34 Z m -19,4 A 1.5,1.5 0 0 0 24,39.5 V 50 H 22.5 A 1.5,1.5 0 0 0 21,51.5 1.5,1.5 0 0 0 22.5,53 h 3 A 1.50015,1.50015 0 0 0 27,51.5 v -12 A 1.5,1.5 0 0 0 25.5,38 Z m 13,0 A 1.5,1.5 0 0 0 37,39.5 v 12 a 1.50015,1.50015 0 0 0 1.5,1.5 h 3 A 1.5,1.5 0 0 0 43,51.5 1.5,1.5 0 0 0 41.5,50 H 40 V 39.5 A 1.5,1.5 0 0 0 38.5,38 Z"
       id="path2" />
    <path
       style="opacity:0.2"
       d="m 31.999147,10.000003 c -1.519114,0 -3.039243,0.40026 -4.174819,1.202975 L 4.7017417,27.550097 c -2.2711518,1.605432 -2.2679299,4.292136 0.00332,5.897567 l 23.1225803,16.34712 c 2.271151,1.605433 6.075236,1.607709 8.34639,0.0023 L 59.296637,33.450002 c 2.27115,-1.605432 2.271151,-4.294437 0,-5.899867 L 36.17397,11.203005 c -1.135575,-0.802716 -2.655707,-1.202976 -4.174823,-1.202974 z"
       id="path3" />
    <path
       style="fill:url(#linearGradient9)"
       d="m 31.999147,9.0000025 c -1.519114,0 -3.039243,0.40026 -4.174819,1.2029755 L 4.7017417,26.550097 c -2.2711518,1.605432 -2.2679299,4.292136 0.00332,5.897567 l 23.1225803,16.34712 c 2.271151,1.605433 6.075236,1.607709 8.34639,0.0023 L 59.296637,32.450002 c 2.27115,-1.605432 2.271151,-4.294437 0,-5.899867 L 36.17397,10.203005 C 35.038395,9.4002886 33.518263,9.0000292 31.999147,9.0000306 Z"
       id="path4" />
    <path
       style="opacity:0.2"
       d="m 26.673372,22.000062 -9.889181,-1e-6 c 4.012753,2.217723 8.006207,4.509789 11.830867,7.048425 0.251124,0.253872 0.39139,0.03875 0.580588,-0.146575 0.82578,-0.857258 1.77422,-1.596344 2.546922,-2.502875 C 31.114235,25.57301 30.11794,24.937586 29.332576,24.203142 28.454157,23.45879 26.673372,22.00006 26.673372,22.00006 Z m 12.017091,0.0016 c -4.597768,3.471786 -8.87493,7.367347 -12.775691,11.621043 -1.651406,1.759854 -3.22414,3.599058 -4.855585,5.377279 h 2.116958 l 1.136531,-1.026972 C 29.775577,33.230719 35.492935,28.733214 41.779634,25.148926 43.578837,24.087017 45.417391,23.060903 47.215809,22 h -8.525345 z m -2.974147,8.083889 c -0.953883,0.653977 -1.91978,1.29266 -2.856388,1.971879 2.926887,2.223262 5.783956,4.547591 8.574641,6.94257 h 2.385344 c -2.748811,-3.134189 -5.61501,-6.340249 -8.103597,-8.914452 z"
       id="path5" />
    <path
       style="fill:#8d5fd3"
       d="m 26.673372,21.000062 -9.889181,-1e-6 c 4.012753,2.217723 8.006207,4.509789 11.830867,7.048425 0.251124,0.253872 0.39139,0.03875 0.580588,-0.146575 0.82578,-0.857258 1.77422,-1.596344 2.546922,-2.502875 C 31.114235,24.57301 30.11794,23.937586 29.332576,23.203142 28.454157,22.45879 26.673372,21.00006 26.673372,21.00006 Z m 12.017091,0.0016 c -4.597768,3.471786 -8.87493,7.367347 -12.775691,11.621043 -1.651406,1.759854 -3.22414,3.599058 -4.855585,5.377279 h 2.116958 l 1.136531,-1.026972 C 29.775577,32.230719 35.492935,27.733214 41.779634,24.148926 43.578837,23.087017 45.417391,22.060903 47.215809,21 h -8.525345 z m -2.974147,8.083889 c -0.953883,0.653977 -1.91978,1.29266 -2.856388,1.971879 2.926887,2.223262 5.783956,4.547591 8.574641,6.94257 h 2.385344 c -2.748811,-3.134189 -5.61501,-6.340249 -8.103597,-8.914452 z"
       id="path6" />
    <path
       style="opacity:0.1;fill:#ffffff"
       d="m 32,9 c -1.519114,0 -3.040205,0.4004095 -4.175781,1.203125 L 4.7011719,26.550781 C 3.3902023,27.47748 2.8434645,28.762818 3.046875,29.994141 3.1969027,29.095778 3.7444681,28.227056 4.7011719,27.550781 L 27.824219,11.203125 C 28.959795,10.400409 30.480886,10 32,10 c 1.519116,-10e-7 3.038253,0.400408 4.173828,1.203125 l 23.123047,16.347656 c 0.958844,0.677788 1.507024,1.548238 1.65625,2.449219 0.204236,-1.233114 -0.343943,-2.521576 -1.65625,-3.449219 L 36.173828,10.203125 C 35.038253,9.4004086 33.519116,8.9999986 32,9 Z"
       id="path7" />
    <path
       style="opacity:0.2;fill:#ffffff"
       d="m 16.785156,21 c 0.597222,0.330066 1.191236,0.666073 1.78711,1 h 8.101562 c 0,0 1.779784,1.458773 2.658203,2.203125 0.616435,0.576467 1.356721,1.094944 1.953125,1.689453 0.156128,-0.160879 0.311392,-0.323277 0.457032,-0.49414 C 31.113855,24.572412 30.117395,23.937569 29.332031,23.203125 28.453612,22.458773 26.673828,21 26.673828,21 Z m 21.90625,0 v 0.002 C 34.093638,24.473739 29.814824,28.369351 25.914062,32.623047 24.262656,34.382901 22.690039,36.221779 21.058594,38 h 0.898437 c 1.314927,-1.462861 2.611956,-2.943546 3.957031,-4.376953 3.900762,-4.253696 8.179576,-8.149308 12.777344,-11.621094 V 22 h 6.796875 c 0.576795,-0.332224 1.155319,-0.663018 1.726563,-1 z m -2.974609,8.085938 c -0.953883,0.653977 -1.920814,1.291484 -2.857422,1.970703 0.228697,0.173717 0.449889,0.358265 0.677734,0.533203 0.723379,-0.505919 1.451953,-1.004976 2.179688,-1.503906 2.222086,2.298534 4.743019,5.108972 7.214844,7.914062 h 0.888671 c -2.748811,-3.134189 -5.614928,-6.33986 -8.103515,-8.914062 z"
       id="path8" />
  </g>
</svg>
