<?xml version="1.0" encoding="UTF-8" standalone="no"?>
<svg
   width="62"
   height="62"
   version="1"
   id="svg7"
   sodipodi:docname="xfce4-sample-plugin.svg"
   inkscape:version="1.4 (unknown)"
   xmlns:inkscape="http://www.inkscape.org/namespaces/inkscape"
   xmlns:sodipodi="http://sodipodi.sourceforge.net/DTD/sodipodi-0.dtd"
   xmlns:xlink="http://www.w3.org/1999/xlink"
   xmlns="http://www.w3.org/2000/svg"
   xmlns:svg="http://www.w3.org/2000/svg">
  <defs
     id="defs7">
    <linearGradient
       id="linearGradient7"
       inkscape:collect="always">
      <stop
         style="stop-color:#ffd42a;stop-opacity:1"
         offset="0"
         id="stop7" />
      <stop
         style="stop-color:#ffccaa;stop-opacity:1"
         offset="1"
         id="stop8" />
    </linearGradient>
    <linearGradient
       inkscape:collect="always"
       xlink:href="#linearGradient7"
       id="linearGradient8"
       x1="32"
       y1="60"
       x2="32"
       y2="5"
       gradientUnits="userSpaceOnUse" />
  </defs>
  <sodipodi:namedview
     id="namedview7"
     pagecolor="#ffffff"
     bordercolor="#000000"
     borderopacity="0.25"
     inkscape:showpageshadow="2"
     inkscape:pageopacity="0.0"
     inkscape:pagecheckerboard="0"
     inkscape:deskcolor="#d1d1d1"
     inkscape:zoom="10"
     inkscape:cx="32.65"
     inkscape:cy="30.95"
     inkscape:window-width="1920"
     inkscape:window-height="998"
     inkscape:window-x="0"
     inkscape:window-y="0"
     inkscape:window-maximized="1"
     inkscape:current-layer="svg7" />
  <g
     id="g7"
     transform="matrix(0.98214286,0,0,0.98245614,-0.42857152,-0.92982455)">
    <path
       style="opacity:0.2"
       d="M 32,5 C 16.488,5 4,17.488 4,33 4,48.512 16.488,61 32,61 47.512,61 60,48.512 60,33 60,17.488 47.512,5 32,5 Z"
       id="path1" />
    <path
       style="fill:url(#linearGradient8)"
       d="M 32,4 C 16.488,4 4,16.488 4,32 4,47.512 16.488,60 32,60 47.512,60 60,47.512 60,32 60,16.488 47.512,4 32,4 Z"
       id="path2" />
    <path
       style="opacity:0.1"
       d="m 22,23.046876 c -2.209139,-2e-6 -4,1.790858 -4,4 0,2.20914 1.790861,0 4,0 2.20914,0 4,2.20914 4,0 0,-2.209142 -1.79086,-4 -4,-4 z m 20,0 c -2.20914,-2e-6 -4,1.790858 -4,4 0,2.20914 1.79086,0 4,0 2.20914,0 4,2.20914 4,0 0,-2.209142 -1.79086,-4 -4,-4 z m 2.40625,17.910156 A 1.50015,1.50015 0 0 0 43.230468,41.5625 C 43.230468,41.5625 39.804762,46 32,46 24.195238,46 20.769532,41.5625 20.769532,41.5625 a 1.50015,1.50015 0 0 0 -1.16797,-0.578124 1.50015,1.50015 0 0 0 -1.171874,2.453124 c 0,0 4.575074,5.5625 13.570312,5.5625 8.995238,0 13.570312,-5.5625 13.570312,-5.5625 A 1.50015,1.50015 0 0 0 44.40625,40.957032 Z"
       id="path3" />
    <path
       style="fill:#3f3f3f"
       d="m 26,26.04816 c 0,2.20914 -1.79086,0 -4,0 -2.209139,0 -4,2.20914 -4,0 0,-2.20914 1.790861,-4 4,-4 2.20914,0 4,1.79086 4,4 z"
       id="path4" />
    <path
       style="fill:#3f3f3f"
       d="m 46,26.04816 c 0,2.20914 -1.79086,0 -4,0 -2.20914,0 -4,2.20914 -4,0 0,-2.20914 1.79086,-4 4,-4 2.20914,0 4,1.79086 4,4 z"
       id="path5" />
    <path
       style="fill:none;stroke:#3f3f3f;stroke-width:3;stroke-linecap:round;stroke-linejoin:round"
       d="m 19.6,41.5 c 0,0 4,5 12.4,5 8.4,0 12.4,-5 12.4,-5 v 0 0"
       id="path6" />
    <path
       style="opacity:0.2;fill:#ffffff"
       d="M 32,4 C 16.488,4 4,16.488 4,32 4,32.11345 4.01128,32.224113 4.017578,32.335938 4.3691213,17.134181 16.710728,5 32,5 47.289272,5 59.630879,17.134181 59.982422,32.335938 59.98872,32.224113 60,32.11345 60,32 60,16.488 47.512,4 32,4 Z"
       id="path7" />
  </g>
</svg>
