<?xml version="1.0" encoding="UTF-8" standalone="no"?>
<svg
   width="62"
   height="62"
   version="1"
   id="svg19"
   sodipodi:docname="xfce4-cpugraph-plugin.svg"
   inkscape:version="1.4 (unknown)"
   xmlns:inkscape="http://www.inkscape.org/namespaces/inkscape"
   xmlns:sodipodi="http://sodipodi.sourceforge.net/DTD/sodipodi-0.dtd"
   xmlns="http://www.w3.org/2000/svg"
   xmlns:svg="http://www.w3.org/2000/svg">
  <defs
     id="defs19" />
  <sodipodi:namedview
     id="namedview19"
     pagecolor="#ffffff"
     bordercolor="#000000"
     borderopacity="0.25"
     inkscape:showpageshadow="2"
     inkscape:pageopacity="0.0"
     inkscape:pagecheckerboard="0"
     inkscape:deskcolor="#d1d1d1"
     inkscape:zoom="5"
     inkscape:cx="33.7"
     inkscape:cy="21.3"
     inkscape:window-width="1920"
     inkscape:window-height="998"
     inkscape:window-x="0"
     inkscape:window-y="0"
     inkscape:window-maximized="1"
     inkscape:current-layer="svg19" />
  <g
     id="g19"
     transform="translate(1.0000005,0.5000105)">
    <g
       style="fill:#8e8e8e"
       transform="matrix(1.865725,0,0,1.8846154,0.14840724,0.34615569)"
       id="g8">
      <rect
         width="1"
         height="26"
         x="20"
         y="-29"
         transform="rotate(90)"
         id="rect1" />
      <rect
         width="1"
         height="26"
         x="23"
         y="-29"
         transform="rotate(90)"
         id="rect2" />
      <rect
         width="1"
         height="26"
         x="26"
         y="-29"
         transform="rotate(90)"
         id="rect3" />
      <rect
         width="1"
         height="26"
         x="11"
         y="-29"
         transform="rotate(90)"
         id="rect4" />
      <rect
         width="1"
         height="26"
         x="14"
         y="-29"
         transform="rotate(90)"
         id="rect5" />
      <rect
         width="1"
         height="26"
         x="17"
         y="-29"
         transform="rotate(90)"
         id="rect6" />
      <rect
         width="1"
         height="26"
         x="8"
         y="-29"
         transform="rotate(90)"
         id="rect7" />
      <rect
         width="1"
         height="26"
         x="5"
         y="-29"
         transform="rotate(90)"
         id="rect8" />
    </g>
    <g
       style="fill:#8e8e8e"
       transform="matrix(0,1.8846154,-1.865725,0,59.851598,0.34615575)"
       id="g16">
      <rect
         width="1"
         height="26"
         x="20"
         y="-29"
         transform="rotate(90)"
         id="rect9" />
      <rect
         width="1"
         height="26"
         x="23"
         y="-29"
         transform="rotate(90)"
         id="rect10" />
      <rect
         width="1"
         height="26"
         x="26"
         y="-29"
         transform="rotate(90)"
         id="rect11" />
      <rect
         width="1"
         height="26"
         x="11"
         y="-29"
         transform="rotate(90)"
         id="rect12" />
      <rect
         width="1"
         height="26"
         x="14"
         y="-29"
         transform="rotate(90)"
         id="rect13" />
      <rect
         width="1"
         height="26"
         x="17"
         y="-29"
         transform="rotate(90)"
         id="rect14" />
      <rect
         width="1"
         height="26"
         x="8"
         y="-29"
         transform="rotate(90)"
         id="rect15" />
      <rect
         width="1"
         height="26"
         x="5"
         y="-29"
         transform="rotate(90)"
         id="rect16" />
    </g>
    <path
       style="opacity:0.2;stroke-width:0.937562"
       d="m 7.6113052,49.913408 v 1.88462 c 0,1.253265 1.2481697,2.259648 2.7985868,2.259648 h 39.180214 c 1.550419,0 2.798588,-1.006383 2.798588,-2.259648 v -1.88462 c 0,1.253264 -1.248169,2.259649 -2.798588,2.259649 H 10.409892 c -1.5504171,0 -2.7985868,-1.006385 -2.7985868,-2.259649 z"
       id="path16" />
    <rect
       style="fill:#b7b7b7;stroke-width:0.937562"
       width="45.230751"
       height="44.777386"
       x="-53.115391"
       y="-52.388683"
       rx="2.2615387"
       ry="2.7985866"
       transform="matrix(0,-1,-1,0,0,0)"
       id="rect17" />
    <path
       style="opacity:0.2;fill:#ffffff;stroke-width:0.937562"
       d="m 10.409892,7.8846154 c -1.5504171,0 -2.7985868,1.0071733 -2.7985868,2.2600596 v 0.942324 c 0,-1.2529038 1.2481697,-2.2600769 2.7985868,-2.2600769 h 39.180214 c 1.550419,0 2.798588,1.007174 2.798588,2.2600769 v -0.942324 c 0,-1.2528863 -1.248169,-2.2600596 -2.798588,-2.2600596 z"
       id="path17" />
    <path
       style="opacity:0.1;fill:none;stroke:#000000;stroke-width:5.62544;stroke-linecap:round;stroke-linejoin:round"
       d="M 4.8127183,31.442947 H 21.604237 l 5.842711,-13.19231 5.106103,26.384617 5.84271,-13.192307 h 16.79152"
       id="path18" />
    <path
       style="fill:none;stroke:#7f4acd;stroke-width:5.62544;stroke-linecap:round;stroke-linejoin:round;stroke-opacity:1"
       d="M 4.8127183,30.499996 H 21.604237 l 5.842711,-13.192306 5.106103,26.384599 5.84271,-13.192293 h 16.79152"
       id="path19" />
  </g>
</svg>
