<?xml version="1.0" encoding="UTF-8" standalone="no"?>
<svg
   style="enable-background:new"
   width="62"
   height="62"
   version="1.0"
   id="svg10"
   sodipodi:docname="xfwm4.svg"
   inkscape:version="1.4 (e7c3feb100, 2024-10-09)"
   xmlns:inkscape="http://www.inkscape.org/namespaces/inkscape"
   xmlns:sodipodi="http://sodipodi.sourceforge.net/DTD/sodipodi-0.dtd"
   xmlns="http://www.w3.org/2000/svg"
   xmlns:svg="http://www.w3.org/2000/svg">
  <defs
     id="defs10" />
  <sodipodi:namedview
     id="namedview10"
     pagecolor="#ffffff"
     bordercolor="#000000"
     borderopacity="0.25"
     inkscape:showpageshadow="2"
     inkscape:pageopacity="0.0"
     inkscape:pagecheckerboard="0"
     inkscape:deskcolor="#d1d1d1"
     inkscape:zoom="11.75"
     inkscape:cx="32"
     inkscape:cy="32"
     inkscape:window-width="1920"
     inkscape:window-height="998"
     inkscape:window-x="0"
     inkscape:window-y="0"
     inkscape:window-maximized="1"
     inkscape:current-layer="svg10" />
  <g
     id="g10"
     transform="matrix(0.93333333,0,0,0.94117647,1.1333334,1.3529412)">
    <rect
       style="opacity:0.2"
       width="44"
       height="34"
       x="18"
       y="7"
       rx="3.385"
       ry="2.72"
       id="rect1" />
    <rect
       style="opacity:0.2"
       width="44"
       height="34"
       x="10"
       y="15"
       rx="3.385"
       ry="2.72"
       id="rect2" />
    <rect
       style="opacity:0.2"
       width="44"
       height="34"
       x="2"
       y="23"
       rx="3.385"
       ry="2.72"
       id="rect3" />
    <rect
       style="fill:#7e36f4"
       width="44"
       height="34"
       x="18"
       y="6"
       rx="3.385"
       ry="2.72"
       id="rect4" />
    <rect
       style="fill:#af83f8"
       width="44"
       height="34"
       x="10"
       y="14"
       rx="3.385"
       ry="2.72"
       id="rect5" />
    <rect
       style="fill:#d3c5ec;fill-opacity:1"
       width="44"
       height="34"
       x="2"
       y="22"
       rx="3.385"
       ry="2.72"
       id="rect6" />
    <path
       style="opacity:0.1;fill-rule:evenodd"
       d="M 31.878972,35.14341 26.989412,39.88005 32,44.842242 28.804842,47.842112 23.987898,42.631812 19.19516,48 16,44.977574 21.273918,40.05502 16.40269,35.217684 20.003978,32 l 4.388328,5.057884 4.243096,-4.897262 z"
       id="path6" />
    <path
       style="fill:#7e36f4;fill-rule:evenodd"
       d="M 31.878972,34.14341 26.989412,38.88005 32,43.842242 28.804842,46.842112 23.987898,41.631812 19.19516,47 16,43.977574 21.273918,39.05502 16.40269,34.217684 20.003978,31 l 4.388328,5.057884 4.243096,-4.897262 z"
       id="path7" />
    <path
       style="opacity:0.1;fill:#ffffff"
       d="M 21.382812,6 C 19.507737,6 18,7.21187 18,8.71875 v 1 C 18,8.21187 19.507737,7 21.382812,7 H 58.617188 C 60.492263,7 62,8.21187 62,9.71875 v -1 C 62,7.21187 60.492263,6 58.617188,6 Z"
       id="path8" />
    <path
       style="opacity:0.2;fill:#ffffff"
       d="M 13.382812,14 C 11.507737,14 10,15.21187 10,16.71875 v 1 C 10,16.21187 11.507737,15 13.382812,15 H 50.617188 C 52.492263,15 54,16.21187 54,17.71875 v -1 C 54,15.21187 52.492263,14 50.617188,14 Z"
       id="path9" />
    <path
       style="opacity:0.2;fill:#ffffff"
       d="M 5.3828125,22 C 3.5077357,22 2,23.21187 2,24.71875 v 1 C 2,24.21187 3.5077357,23 5.3828125,23 H 42.617188 C 44.492263,23 46,24.21187 46,25.71875 v -1 C 46,23.21187 44.492263,22 42.617188,22 Z"
       id="path10" />
  </g>
</svg>
