<?xml version="1.0" encoding="UTF-8" standalone="no"?>
<svg
   width="62"
   height="62"
   version="1.1"
   id="svg33"
   sodipodi:docname="xmind.svg"
   inkscape:version="1.4 (e7c3feb100, 2024-10-09)"
   xmlns:inkscape="http://www.inkscape.org/namespaces/inkscape"
   xmlns:sodipodi="http://sodipodi.sourceforge.net/DTD/sodipodi-0.dtd"
   xmlns:xlink="http://www.w3.org/1999/xlink"
   xmlns="http://www.w3.org/2000/svg"
   xmlns:svg="http://www.w3.org/2000/svg">
  <sodipodi:namedview
     id="namedview35"
     pagecolor="#ffffff"
     bordercolor="#666666"
     borderopacity="1.0"
     inkscape:showpageshadow="2"
     inkscape:pageopacity="0.0"
     inkscape:pagecheckerboard="0"
     inkscape:deskcolor="#d1d1d1"
     showgrid="false"
     inkscape:zoom="4.9166667"
     inkscape:cx="70.067796"
     inkscape:cy="35.18644"
     inkscape:window-width="1920"
     inkscape:window-height="994"
     inkscape:window-x="0"
     inkscape:window-y="0"
     inkscape:window-maximized="1"
     inkscape:current-layer="svg33" />
  <defs
     id="defs21">
    <linearGradient
       id="linearGradient4173">
      <stop
         style="stop-color:#000000;stop-opacity:1;"
         offset="0"
         id="stop2" />
      <stop
         style="stop-color:#000000;stop-opacity:0;"
         offset="1"
         id="stop4" />
    </linearGradient>
    <linearGradient
       id="linearGradient4168">
      <stop
         style="stop-color:#fcfcfc;stop-opacity:1;"
         offset="0"
         id="stop7" />
      <stop
         style="stop-color:#fbc2bb;stop-opacity:1"
         offset="1"
         id="stop9" />
    </linearGradient>
    <linearGradient
       id="linearGradient4160">
      <stop
         style="stop-color:#c61423;stop-opacity:1;"
         offset="0"
         id="stop12" />
      <stop
         style="stop-color:#f58273;stop-opacity:1"
         offset="1"
         id="stop14" />
    </linearGradient>
    <linearGradient
       xlink:href="#linearGradient4160"
       id="linearGradient4166"
       x1="32.249001"
       y1="42.036999"
       x2="16.546"
       y2="4.902"
       gradientUnits="userSpaceOnUse"
       gradientTransform="matrix(1.0499987,0,0,1.0499987,61.986461,9.5118688)" />
    <linearGradient
       xlink:href="#linearGradient4168"
       id="linearGradient4162"
       x1="17.197001"
       y1="11.627"
       x2="27.308001"
       y2="31.452999"
       gradientUnits="userSpaceOnUse"
       gradientTransform="matrix(1.0499987,0,0,1.0499987,61.986461,9.5118688)" />
    <linearGradient
       xlink:href="#linearGradient4173"
       id="linearGradient4179"
       x1="22.136999"
       y1="1.975"
       x2="29.966999"
       y2="1.975"
       gradientUnits="userSpaceOnUse"
       gradientTransform="matrix(0.74246135,0.74246135,-0.74246135,0.74246135,61.986461,9.5118688)" />
    <linearGradient
       xlink:href="#linearGradient4173"
       id="linearGradient4181"
       x1="19.732"
       y1="23.413"
       x2="33.160999"
       y2="36.841999"
       gradientUnits="userSpaceOnUse"
       gradientTransform="matrix(1.0499987,0,0,1.0499987,61.986461,9.5118688)" />
    <linearGradient
       gradientTransform="matrix(1.049963,0,0,1.0499041,-514.54414,-492.65155)"
       gradientUnits="userSpaceOnUse"
       x2="426.69501"
       y2="499.92099"
       y1="547.67499"
       id="a-6"
       x1="389.32001">
      <stop
         stop-color="#18222a"
         style="stop-color:#1e2b35;stop-opacity:1"
         id="stop216" />
      <stop
         stop-color="#566069"
         offset="1"
         style="stop-color:#6d7983;stop-opacity:1"
         id="stop218" />
    </linearGradient>
    <linearGradient
       xlink:href="#linearGradient4174"
       id="linearGradient4181-3"
       x1="417.39099"
       y1="534.987"
       x2="402.98599"
       y2="504.664"
       gradientUnits="userSpaceOnUse" />
    <linearGradient
       id="linearGradient4174">
      <stop
         style="stop-color:#df2323;stop-opacity:1"
         offset="0"
         id="stop209" />
      <stop
         style="stop-color:#e76f6f;stop-opacity:1"
         offset="1"
         id="stop211" />
    </linearGradient>
    <linearGradient
       inkscape:collect="always"
       xlink:href="#linearGradient4160"
       id="linearGradient796"
       gradientUnits="userSpaceOnUse"
       gradientTransform="matrix(1.3999981,0,0,1.3999981,102.48479,-10.396575)"
       x1="32.249001"
       y1="42.036999"
       x2="16.546"
       y2="4.902" />
    <linearGradient
       inkscape:collect="always"
       xlink:href="#linearGradient4173"
       id="linearGradient798"
       gradientUnits="userSpaceOnUse"
       gradientTransform="matrix(1.3999981,0,0,1.3999981,102.48479,-10.396575)"
       x1="19.732"
       y1="23.413"
       x2="33.160999"
       y2="36.841999" />
    <linearGradient
       inkscape:collect="always"
       xlink:href="#linearGradient4173"
       id="linearGradient800"
       gradientUnits="userSpaceOnUse"
       gradientTransform="matrix(0.98994837,0.98994837,-0.98994837,0.98994837,102.48479,-10.396575)"
       x1="22.136999"
       y1="1.975"
       x2="29.966999"
       y2="1.975" />
    <linearGradient
       inkscape:collect="always"
       xlink:href="#linearGradient4168"
       id="linearGradient802"
       gradientUnits="userSpaceOnUse"
       gradientTransform="matrix(1.3999981,0,0,1.3999981,102.48479,-10.396575)"
       x1="17.197001"
       y1="11.627"
       x2="27.308001"
       y2="31.452999" />
  </defs>
  <g
     id="g1"
     transform="translate(-105.08472,7.7965811)">
    <rect
       style="fill:url(#linearGradient796);fill-opacity:1;stroke-width:1.4"
       rx="27.99996"
       y="-4.7965813"
       x="108.08478"
       height="55.99992"
       width="55.99992"
       id="rect23-2" />
    <path
       style="fill:#2c2e31;fill-opacity:0.235294;stroke-width:1.4"
       d="m 108.10114,22.503322 c -0.005,0.233147 -0.0164,0.465414 -0.0164,0.7 0,15.511984 12.48799,27.999971 27.99997,27.999971 15.51199,0 27.99997,-12.487987 27.99997,-27.999971 0,-0.234586 -0.0107,-0.466853 -0.0164,-0.7 -0.37054,15.184559 -12.70661,27.299972 -27.98357,27.299972 -15.27694,0 -27.61302,-12.115413 -27.98356,-27.299972 z"
       id="path25-9" />
    <path
       style="opacity:0.2;fill:url(#linearGradient798);fill-opacity:1;stroke:none;stroke-width:2.8;stroke-linecap:round;stroke-linejoin:round;stroke-miterlimit:4;stroke-dasharray:none;stroke-opacity:1"
       d="m 150.53044,11.008094 -7.041,6.606243 -19.99919,11.979279 -5.05859,6.19882 15.30701,15.307009 c 0.77385,0.06361 1.55525,0.103974 2.34609,0.103974 15.0667,0 27.27836,-11.783313 27.96715,-26.673804 z"
       id="path27-1" />
    <path
       style="opacity:0.2;fill:url(#linearGradient800);fill-opacity:1;stroke:none;stroke-width:2.8;stroke-linecap:round;stroke-linejoin:round;stroke-miterlimit:4;stroke-dasharray:none;stroke-opacity:1"
       d="m 124.21115,13.956576 3.80646,-3.228729 28.77909,28.779105 -8.31871,8.318711 -30.18613,-30.186127 1.96241,-1.977277 z"
       id="path29-2" />
    <path
       style="fill:url(#linearGradient802);fill-opacity:1;stroke-width:1.43097;enable-background:new"
       d="m 127.58669,10.604143 c -0.0924,0.0013 -0.19659,0.0084 -0.31627,0.01668 -0.45356,0.02891 -9.01248,1.631476 -9.55719,1.789568 -0.57589,0.167028 -1.06769,0.519908 -1.18768,0.854692 -0.20461,0.568924 0.38838,2.417904 1.17118,3.659372 3.12288,3.708421 6.59009,4.65069 9.98804,6.648995 0.38998,0.457151 0.544,0.677824 -2.44751,2.002357 -4.67548,2.070303 -6.1888,3.831176 -7.08427,6.436209 -0.26444,0.769749 -0.38732,2.805284 -0.20086,3.317515 0.24198,0.663988 0.38785,0.797658 4.9053,-0.05933 4.53796,-0.860864 4.1627,-0.911248 4.54115,-1.269792 0.30825,-0.292046 0.32588,-0.362486 0.46051,-1.744241 0.0776,-0.79179 0.23773,-2.337885 0.35524,-2.747465 0.27246,-0.951176 0.95778,-1.94449 1.70414,-2.46983 2.83055,-1.992127 8.15805,-0.99872 11.04099,2.05821 1.0863,1.151825 1.76844,2.795923 2.31282,4.582318 0.31412,1.030746 0.63311,1.478264 1.12848,1.576808 0.45572,0.09048 0.46694,-0.05195 6.24099,-1.148344 3.21188,-0.609854 4.54856,-0.906445 4.73753,-1.053504 0.406,-0.316218 0.40759,-1.09003 0.003,-2.368661 -0.69409,-2.196962 -1.89828,-3.657415 -4.12877,-5.347154 -1.10347,-0.835936 -2.49682,-1.62623 -4.85596,-2.755886 -2.24391,-1.074484 -3.31259,-1.365186 -3.31259,-1.698866 0,-0.275921 0.88128,-0.398849 2.66121,-0.931414 3.90016,-1.167189 5.77955,-2.804501 5.77955,-5.836172 0,-1.330432 -0.25108,-2.404042 -0.64155,-2.752392 -0.51926,-0.463318 -1.4311,-0.477993 -3.6115,-0.08367 -6.98928,1.263833 -6.50798,1.214562 -6.83311,1.74073 -0.17201,0.278254 -0.16453,0.34355 0.15172,1.60818 0.18111,0.725012 0.32696,1.631999 0.32588,1.842411 -0.003,0.447509 -0.5842,1.195092 -0.86856,1.46166 -0.69581,0.651874 -2.27307,1.095374 -3.88868,1.095374 -1.95409,0 -3.4264,-0.671724 -4.88884,-2.229113 -1.05673,-1.125323 -1.59621,-2.214307 -2.31613,-4.218048 -0.63219,-1.75985 -0.71889,-1.989238 -1.36863,-1.97795 z"
       id="path31-7" />
  </g>
</svg>
