<?xml version="1.0" encoding="UTF-8" standalone="no"?>
<svg
   width="64"
   height="64"
   version="1.1"
   id="svg11"
   sodipodi:docname="xmoto.svg"
   inkscape:version="1.4 (unknown)"
   xmlns:inkscape="http://www.inkscape.org/namespaces/inkscape"
   xmlns:sodipodi="http://sodipodi.sourceforge.net/DTD/sodipodi-0.dtd"
   xmlns:xlink="http://www.w3.org/1999/xlink"
   xmlns="http://www.w3.org/2000/svg"
   xmlns:svg="http://www.w3.org/2000/svg">
  <defs
     id="defs11">
    <linearGradient
       id="linearGradient1"
       inkscape:collect="always">
      <stop
         style="stop-color:#7137c8;stop-opacity:1"
         offset="0"
         id="stop1" />
      <stop
         style="stop-color:#ddade9;stop-opacity:1;"
         offset="1"
         id="stop2" />
    </linearGradient>
    <linearGradient
       id="b"
       x2="1"
       gradientTransform="matrix(0.90223363,-34.474555,35.186874,0.8839689,33.535985,48.965071)"
       gradientUnits="userSpaceOnUse">
      <stop
         stop-color="#ff7bf0"
         offset="0"
         id="stop3" />
      <stop
         stop-color="#00fff0"
         offset="1"
         id="stop4" />
    </linearGradient>
    <linearGradient
       id="c"
       x1="337.80704"
       x2="337.99731"
       y1="551.86993"
       y2="547.47272"
       gradientUnits="userSpaceOnUse"
       gradientTransform="matrix(7.4113956,0,0,7.2684625,-2472.1515,-3964.1292)">
      <stop
         stop-color="#ff9300"
         offset="0"
         id="stop5" />
      <stop
         stop-color="#ffd702"
         offset="1"
         id="stop6" />
    </linearGradient>
    <linearGradient
       inkscape:collect="always"
       xlink:href="#linearGradient1"
       id="linearGradient2"
       x1="15"
       y1="51.682926"
       x2="49"
       y2="13.682926"
       gradientUnits="userSpaceOnUse"
       gradientTransform="matrix(0.85294127,0,0,0.84210532,4.7058841,4.4775365)" />
  </defs>
  <sodipodi:namedview
     id="namedview11"
     pagecolor="#ffffff"
     bordercolor="#000000"
     borderopacity="0.25"
     inkscape:showpageshadow="2"
     inkscape:pageopacity="0.0"
     inkscape:pagecheckerboard="0"
     inkscape:deskcolor="#d1d1d1"
     inkscape:zoom="8.0729167"
     inkscape:cx="35.860645"
     inkscape:cy="52.211613"
     inkscape:window-width="1920"
     inkscape:window-height="998"
     inkscape:window-x="0"
     inkscape:window-y="0"
     inkscape:window-maximized="1"
     inkscape:current-layer="svg11" />
  <path
     style="opacity:0.2;stroke-width:1.37042"
     d="m 32.000004,5.3658528 c -15.173551,0 -27.5000041,12.2444522 -27.5000041,27.3170722 0,15.072621 12.3264531,27.31708 27.5000041,27.317076 15.173545,0 27.50001,-12.244455 27.499996,-27.317076 C 59.5,17.610305 47.173549,5.3658528 32.000004,5.3658528 Z"
     id="path1" />
  <path
     style="fill:#2d3d53;fill-opacity:1;stroke-width:1.37042"
     d="m 32.000004,3.9999991 c -15.173551,0 -27.5000041,12.2444519 -27.5000041,27.3170729 0,15.07262 12.3264531,27.317079 27.5000041,27.317075 15.173545,0 27.50001,-12.244455 27.499996,-27.317075 C 59.5,16.244451 47.173549,3.9999991 32.000004,3.9999991 Z"
     id="path2" />
  <path
     style="opacity:0.1;fill:#ffffff;stroke-width:1.37042"
     d="m 32,3.9999991 c -15.173551,0 -27.4999999,12.2444539 -27.4999999,27.3170739 0,0.229234 0.01045,0.455034 0.016114,0.682927 C 4.8831891,17.243475 17.057218,5.3658528 32,5.3658528 46.942775,5.3658528 59.116811,17.243475 59.483886,32 59.489556,31.772107 59.5,31.546307 59.5,31.317073 59.5,16.244453 47.173544,3.9999991 32,3.9999991 Z"
     id="path5" />
  <path
     d="m 23.742799,17.262388 c -2.180913,-3.213427 -7.728004,0.321341 -4.741103,3.764293 2.892082,3.259338 5.784164,6.794106 8.771048,10.420684 l -9.529623,11.706047 c -2.702448,3.121613 2.655023,6.885922 5.072985,3.534777 l 8.58142,-11.063369 8.723645,10.833829 c 2.5602,3.397056 7.775425,0.09188 5.167813,-3.351137 L 36.117122,31.447365 c 2.844658,-3.626578 5.831564,-7.161346 8.676229,-10.420684 2.702429,-2.983888 -2.086089,-6.97772 -4.551476,-3.856109 l -8.249528,10.00753 z"
     id="path9"
     style="fill:url(#linearGradient2);stroke-width:0.847506" />
</svg>
