<?xml version="1.0" encoding="UTF-8" standalone="no"?>
<svg
   width="62"
   height="62"
   viewBox="0 0 16.404166 16.404167"
   version="1.1"
   id="svg1829"
   inkscape:version="1.4 (e7c3feb100, 2024-10-09)"
   sodipodi:docname="xnconvert.svg"
   xmlns:inkscape="http://www.inkscape.org/namespaces/inkscape"
   xmlns:sodipodi="http://sodipodi.sourceforge.net/DTD/sodipodi-0.dtd"
   xmlns:xlink="http://www.w3.org/1999/xlink"
   xmlns="http://www.w3.org/2000/svg"
   xmlns:svg="http://www.w3.org/2000/svg"
   xmlns:rdf="http://www.w3.org/1999/02/22-rdf-syntax-ns#"
   xmlns:cc="http://creativecommons.org/ns#"
   xmlns:dc="http://purl.org/dc/elements/1.1/">
  <defs
     id="defs1823">
    <linearGradient
       id="linearGradient1"
       inkscape:collect="always">
      <stop
         style="stop-color:#3485fd;stop-opacity:1"
         offset="0"
         id="stop1" />
      <stop
         style="stop-color:#fea75f;stop-opacity:1"
         offset="1"
         id="stop2" />
    </linearGradient>
    <linearGradient
       inkscape:collect="always"
       xlink:href="#linearGradient1"
       id="linearGradient2"
       x1="8.2020836"
       y1="15.226075"
       x2="8.2020836"
       y2="1.1780913"
       gradientUnits="userSpaceOnUse" />
  </defs>
  <sodipodi:namedview
     id="base"
     pagecolor="#ffffff"
     bordercolor="#666666"
     borderopacity="1.0"
     inkscape:pageopacity="0.0"
     inkscape:pageshadow="2"
     inkscape:zoom="11.2"
     inkscape:cx="27.678571"
     inkscape:cy="38.839286"
     inkscape:document-units="px"
     inkscape:current-layer="layer1"
     inkscape:document-rotation="0"
     showgrid="false"
     units="px"
     inkscape:window-width="1920"
     inkscape:window-height="998"
     inkscape:window-x="0"
     inkscape:window-y="0"
     inkscape:window-maximized="1"
     inkscape:pagecheckerboard="0"
     inkscape:showpageshadow="2"
     inkscape:deskcolor="#d1d1d1" />
  <metadata
     id="metadata1826">
    <rdf:RDF>
      <cc:Work
         rdf:about="">
        <dc:format>image/svg+xml</dc:format>
        <dc:type
           rdf:resource="http://purl.org/dc/dcmitype/StillImage" />
      </cc:Work>
    </rdf:RDF>
  </metadata>
  <g
     inkscape:label="Capa 1"
     inkscape:groupmode="layer"
     id="layer1">
    <rect
       style="opacity:0.296765;fill:none;fill-opacity:1;stroke:#000000;stroke-width:0.0471237;stroke-linecap:round;stroke-linejoin:round;stroke-miterlimit:4;stroke-dasharray:none;stroke-opacity:0.02"
       id="rect1634"
       width="14.047983"
       height="14.047983"
       x="1.1780915"
       y="1.1780913"
       rx="3.1148088"
       ry="3.1148088" />
    <rect
       ry="3.1148088"
       rx="3.1148088"
       y="1.1780913"
       x="1.1780915"
       height="14.047983"
       width="14.047983"
       id="rect1638"
       style="opacity:0.296765;fill:none;fill-opacity:1;stroke:#000000;stroke-width:0.0942473;stroke-linecap:round;stroke-linejoin:round;stroke-miterlimit:4;stroke-dasharray:none;stroke-opacity:0.02" />
    <rect
       style="opacity:0.296765;fill:none;fill-opacity:1;stroke:#000000;stroke-width:0.141371;stroke-linecap:round;stroke-linejoin:round;stroke-miterlimit:4;stroke-dasharray:none;stroke-opacity:0.02"
       id="rect1640"
       width="14.047983"
       height="14.047983"
       x="1.1780915"
       y="1.1780913"
       rx="3.1148088"
       ry="3.1148088" />
    <rect
       ry="3.1148088"
       rx="3.1148088"
       y="1.1780913"
       x="1.1780915"
       height="14.047983"
       width="14.047983"
       id="rect1642"
       style="opacity:0.296765;fill:none;fill-opacity:1;stroke:#000000;stroke-width:0.188495;stroke-linecap:round;stroke-linejoin:round;stroke-miterlimit:4;stroke-dasharray:none;stroke-opacity:0.02" />
    <rect
       style="opacity:0.296765;fill:none;fill-opacity:1;stroke:#000000;stroke-width:0.235618;stroke-linecap:round;stroke-linejoin:round;stroke-miterlimit:4;stroke-dasharray:none;stroke-opacity:0.02"
       id="rect1644"
       width="14.047983"
       height="14.047983"
       x="1.1780915"
       y="1.1780913"
       rx="3.1148088"
       ry="3.1148088" />
    <rect
       ry="3.1148088"
       rx="3.1148088"
       y="1.1780913"
       x="1.1780915"
       height="14.047983"
       width="14.047983"
       id="rect1646"
       style="opacity:0.296765;fill:none;fill-opacity:1;stroke:#000000;stroke-width:0.282742;stroke-linecap:round;stroke-linejoin:round;stroke-miterlimit:4;stroke-dasharray:none;stroke-opacity:0.02" />
    <rect
       style="opacity:0.296765;fill:none;fill-opacity:1;stroke:#000000;stroke-width:0.329866;stroke-linecap:round;stroke-linejoin:round;stroke-miterlimit:4;stroke-dasharray:none;stroke-opacity:0.02"
       id="rect1648"
       width="14.047983"
       height="14.047983"
       x="1.1780915"
       y="1.1780913"
       rx="3.1148088"
       ry="3.1148088" />
    <rect
       ry="3.1148088"
       rx="3.1148088"
       y="1.1780913"
       x="1.1780915"
       height="14.047983"
       width="14.047983"
       id="rect1650"
       style="opacity:0.296765;fill:none;fill-opacity:1;stroke:#000000;stroke-width:0.376989;stroke-linecap:round;stroke-linejoin:round;stroke-miterlimit:4;stroke-dasharray:none;stroke-opacity:0.02" />
    <rect
       style="opacity:0.296765;fill:none;fill-opacity:1;stroke:#000000;stroke-width:0.471237;stroke-linecap:round;stroke-linejoin:round;stroke-miterlimit:4;stroke-dasharray:none;stroke-opacity:0.02"
       id="rect1652"
       width="14.047983"
       height="14.047983"
       x="1.1780915"
       y="1.1780913"
       rx="3.1148088"
       ry="3.1148088" />
    <rect
       ry="3.1148088"
       rx="3.1148088"
       y="1.1780913"
       x="1.1780915"
       height="14.047983"
       width="14.047983"
       id="rect1654"
       style="opacity:0.296765;fill:none;fill-opacity:1;stroke:#000000;stroke-width:0.565484;stroke-linecap:round;stroke-linejoin:round;stroke-miterlimit:4;stroke-dasharray:none;stroke-opacity:0.02" />
    <rect
       style="opacity:0.296765;fill:none;fill-opacity:1;stroke:#000000;stroke-width:0.659731;stroke-linecap:round;stroke-linejoin:round;stroke-miterlimit:4;stroke-dasharray:none;stroke-opacity:0.02"
       id="rect1656"
       width="14.047983"
       height="14.047983"
       x="1.1780915"
       y="1.1780913"
       rx="3.1148088"
       ry="3.1148088" />
    <rect
       ry="3.1148088"
       rx="3.1148088"
       y="1.1780913"
       x="1.1780915"
       height="14.047983"
       width="14.047983"
       id="rect1658"
       style="opacity:0.296765;fill:none;fill-opacity:1;stroke:#000000;stroke-width:0.753979;stroke-linecap:round;stroke-linejoin:round;stroke-miterlimit:4;stroke-dasharray:none;stroke-opacity:0.02" />
    <rect
       style="opacity:0.296765;fill:none;fill-opacity:1;stroke:#000000;stroke-width:0.848226;stroke-linecap:round;stroke-linejoin:round;stroke-miterlimit:4;stroke-dasharray:none;stroke-opacity:0.02"
       id="rect1660"
       width="14.047983"
       height="14.047983"
       x="1.1780915"
       y="1.1780913"
       rx="3.1148088"
       ry="3.1148088" />
    <rect
       ry="3.1148088"
       rx="3.1148088"
       y="1.1780913"
       x="1.1780915"
       height="14.047983"
       width="14.047983"
       id="rect1662"
       style="opacity:0.296765;fill:none;fill-opacity:1;stroke:#000000;stroke-width:0.942473;stroke-linecap:round;stroke-linejoin:round;stroke-miterlimit:4;stroke-dasharray:none;stroke-opacity:0.02" />
    <rect
       style="opacity:0.296765;fill:none;fill-opacity:1;stroke:#000000;stroke-width:1.03672;stroke-linecap:round;stroke-linejoin:round;stroke-miterlimit:4;stroke-dasharray:none;stroke-opacity:0.02"
       id="rect1664"
       width="14.047983"
       height="14.047983"
       x="1.1780915"
       y="1.1780913"
       rx="3.1148088"
       ry="3.1148088" />
    <rect
       ry="3.1148088"
       rx="3.1148088"
       y="1.1780913"
       x="1.1780915"
       height="14.047983"
       width="14.047983"
       id="rect1666"
       style="opacity:0.296765;fill:none;fill-opacity:1;stroke:#000000;stroke-width:1.22522;stroke-linecap:round;stroke-linejoin:round;stroke-miterlimit:4;stroke-dasharray:none;stroke-opacity:0.02" />
    <rect
       style="opacity:0.296765;fill:none;fill-opacity:1;stroke:#000000;stroke-width:1.41371;stroke-linecap:round;stroke-linejoin:round;stroke-miterlimit:4;stroke-dasharray:none;stroke-opacity:0.02"
       id="rect1668"
       width="14.047983"
       height="14.047983"
       x="1.1780915"
       y="1.1780913"
       rx="3.1148088"
       ry="3.1148088" />
    <rect
       ry="3.1148088"
       rx="3.1148088"
       y="1.1780913"
       x="1.1780915"
       height="14.047983"
       width="14.047983"
       id="rect1670"
       style="opacity:0.296765;fill:none;fill-opacity:1;stroke:#000000;stroke-width:1.6022;stroke-linecap:round;stroke-linejoin:round;stroke-miterlimit:4;stroke-dasharray:none;stroke-opacity:0.02" />
    <rect
       style="opacity:0.296765;fill:none;fill-opacity:1;stroke:#000000;stroke-width:1.7907;stroke-linecap:round;stroke-linejoin:round;stroke-miterlimit:4;stroke-dasharray:none;stroke-opacity:0.02"
       id="rect1672"
       width="14.047983"
       height="14.047983"
       x="1.1780915"
       y="1.1780913"
       rx="3.1148088"
       ry="3.1148088" />
    <rect
       ry="3.1148088"
       rx="3.1148088"
       y="1.1780913"
       x="1.1780915"
       height="14.047983"
       width="14.047983"
       id="rect1674"
       style="opacity:0.296765;fill:none;fill-opacity:1;stroke:#000000;stroke-width:1.97919;stroke-linecap:round;stroke-linejoin:round;stroke-miterlimit:4;stroke-dasharray:none;stroke-opacity:0.02" />
    <rect
       style="opacity:0.296765;fill:none;fill-opacity:1;stroke:#000000;stroke-width:2.16769;stroke-linecap:round;stroke-linejoin:round;stroke-miterlimit:4;stroke-dasharray:none;stroke-opacity:0.02"
       id="rect1676"
       width="14.047983"
       height="14.047983"
       x="1.1780915"
       y="1.1780913"
       rx="3.1148088"
       ry="3.1148088" />
    <rect
       ry="3.1148088"
       rx="3.1148088"
       y="1.1780913"
       x="1.1780915"
       height="14.047983"
       width="14.047983"
       id="rect1678"
       style="opacity:0.296765;fill:none;fill-opacity:1;stroke:#000000;stroke-width:2.35618;stroke-linecap:round;stroke-linejoin:round;stroke-miterlimit:4;stroke-dasharray:none;stroke-opacity:0.02" />
    <rect
       id="rect849-5"
       width="14.047984"
       height="14.047984"
       x="1.1780916"
       y="1.1780936"
       rx="3.1148088"
       ry="3.1148088"
       style="fill:url(#linearGradient2)" />
    <path
       d="M 13.255395,7.8816725 C 13.147054,7.7300458 13.028961,7.5892494 12.908701,7.4484541 12.266234,6.6957369 11.528425,6.0253317 10.720194,5.539044 10.204487,5.2271275 9.6508604,4.9758604 9.0788153,4.8567255 A 4.3304251,4.3289342 0 0 0 8.2012461,4.7625024 c -0.2903563,0 -0.5817959,0.032491 -0.8732356,0.09314 C 6.7548819,4.9769434 6.2045052,5.2271275 5.6877144,5.5379609 4.8794839,6.0253317 4.1405922,6.6968199 3.4948746,7.4484541 3.3756985,7.5881664 3.2608561,7.7300458 3.1525142,7.8816725 a 0.52004105,0.51986201 0 0 0 0,0.6389964 c 0.3282759,0.4613782 0.7204736,0.869686 1.1159215,1.2455031 0.8580677,0.80362 1.8407285,1.477275 2.923064,1.750202 a 4.1256589,4.1242385 0 0 0 2.0184093,0 c 1.082336,-0.272927 2.06608,-0.946582 2.925231,-1.751285 a 8.5405907,8.5376503 0 0 0 1.118089,-1.2433371 0.52762497,0.52744332 0 0 0 0,-0.6400794 m 0,0"
       id="path1"
       style="fill:#e7e7e4;fill-opacity:1;stroke-width:1.08323" />
    <g
       id="g1"
       transform="matrix(1.0391566,0,0,1.0222222,-0.32117051,-0.28368994)">
      <path
         style="fill:#278cd7;stroke-width:0.186034"
         d="M 8.2505957,5.3247397 A 2.9765627,2.9765627 0 0 0 5.274033,8.3013027 2.9765627,2.9765627 0 0 0 8.2505957,11.277865 2.9765627,2.9765627 0 0 0 11.128688,9.0454457 H 9.7483244 a 1.6743165,1.6743165 0 0 1 -1.4977287,0.930172 1.6743165,1.6743165 0 0 1 -1.6743168,-1.674315 1.6743165,1.6743165 0 0 1 1.6743168,-1.674317 1.6743165,1.6743165 0 0 1 1.4991819,0.930174 h 1.3803664 a 2.9765627,2.9765627 0 0 0 -2.8795483,-2.23242 z"
         id="path4-6" />
      <path
         style="opacity:0.1;stroke-width:0.186034"
         d="m 8.2505957,5.3247397 a 2.9765627,2.9765627 0 0 0 -2.9765627,2.976563 2.9765627,2.9765627 0 0 0 0.00399,0.07812 2.9765627,2.9765627 0 0 1 2.9725661,-2.868651 2.9765627,2.9765627 0 0 1 2.8214129,2.046388 h 0.05813 a 2.9765627,2.9765627 0 0 0 -2.8795423,-2.23242 z m -1.6703198,3.083749 a 1.6743165,1.6743165 0 0 0 -0.00399,0.07884 A 1.6743165,1.6743165 0 0 0 8.2506024,10.16165 1.6743165,1.6743165 0 0 0 9.748333,9.2314737 h 1.321863 a 2.9765627,2.9765627 0 0 0 0.0585,-0.186034 H 9.7483244 A 1.6743165,1.6743165 0 0 1 8.2505957,9.9756177 1.6743165,1.6743165 0 0 1 6.5802759,8.4084887 Z"
         id="path5" />
    </g>
  </g>
</svg>
