<?xml version="1.0" encoding="UTF-8" standalone="no"?>
<svg
   width="62"
   height="62"
   version="1.1"
   id="svg7"
   sodipodi:docname="xneur.svg"
   inkscape:version="1.4 (e7c3feb100, 2024-10-09)"
   xmlns:inkscape="http://www.inkscape.org/namespaces/inkscape"
   xmlns:sodipodi="http://sodipodi.sourceforge.net/DTD/sodipodi-0.dtd"
   xmlns:xlink="http://www.w3.org/1999/xlink"
   xmlns="http://www.w3.org/2000/svg"
   xmlns:svg="http://www.w3.org/2000/svg">
  <defs
     id="defs7">
    <linearGradient
       inkscape:collect="always"
       xlink:href="#linearGradient8"
       id="linearGradient10"
       x1="31.5"
       y1="59.017544"
       x2="31.5"
       y2="4.9824562"
       gradientUnits="userSpaceOnUse"
       gradientTransform="translate(-0.5,-0.5087719)" />
    <linearGradient
       id="linearGradient8"
       inkscape:collect="always">
      <stop
         style="stop-color:#fe9e4d;stop-opacity:1;"
         offset="0"
         id="stop8" />
      <stop
         style="stop-color:#febe00;stop-opacity:1;"
         offset="1"
         id="stop10" />
    </linearGradient>
  </defs>
  <sodipodi:namedview
     id="namedview7"
     pagecolor="#ffffff"
     bordercolor="#000000"
     borderopacity="0.25"
     inkscape:showpageshadow="2"
     inkscape:pageopacity="0.0"
     inkscape:pagecheckerboard="0"
     inkscape:deskcolor="#d1d1d1"
     inkscape:zoom="5.875"
     inkscape:cx="66.212766"
     inkscape:cy="43.914894"
     inkscape:window-width="1920"
     inkscape:window-height="998"
     inkscape:window-x="0"
     inkscape:window-y="0"
     inkscape:window-maximized="1"
     inkscape:current-layer="svg7" />
  <g
     id="g7"
     transform="translate(0,-0.4912281)">
    <rect
       style="opacity:0.2;stroke-width:0.9823"
       width="55"
       height="55.017544"
       x="3.5"
       y="4.4736843"
       rx="8.25"
       ry="8.2526312"
       id="rect1" />
    <rect
       style="fill:url(#linearGradient10);stroke-width:0.9823"
       width="55"
       height="55.017544"
       x="3.5"
       y="3.4912281"
       rx="8.25"
       ry="8.2526312"
       id="rect2" />
    <path
       style="opacity:0.1;fill:#ffffff;stroke-width:0.9823"
       d="M 11.748466,3.4912281 C 7.1779652,3.4912281 3.5,7.1703661 3.5,11.742325 v 0.982456 c 0,-4.5719589 3.6779652,-8.2510969 8.248466,-8.2510969 h 38.503068 c 4.5705,0 8.248466,3.679138 8.248466,8.2510969 v -0.982456 c 0,-4.5719589 -3.677966,-8.2510969 -8.248466,-8.2510969 z"
       id="path4-3" />
  </g>
  <g
     id="g1"
     transform="matrix(0.91666666,0,0,0.91891892,-29.5,-46.157421)">
    <path
       style="opacity:0.2;fill-rule:evenodd;image-rendering:optimizeQuality;shape-rendering:geometricPrecision"
       d="m 74.107404,67 -7.054884,8.525763 c -3.880667,4.68747 -7.057885,8.618761 -7.057885,8.732758 0,0.113996 3.321228,4.376878 7.377306,9.473736 L 74.744448,103 h 7.72533 c 6.148822,0 7.684927,-0.0555 7.518316,-0.27599 -0.418529,-0.55349 -14.063165,-17.73551 -14.370787,-18.0955 -0.286519,-0.33599 0.331523,-1.157968 6.504247,-8.61276 3.754258,-4.533874 6.960478,-8.417367 7.124489,-8.628761 C 89.528062,67.020999 89.140036,67 81.827534,67 Z m -30.108067,0 c 0,0 13.047896,17.243521 12.783878,17.185123 0.03,0.084 -2.991206,3.977889 -6.714261,8.654759 -3.723256,4.67547 -7.064685,8.875358 -7.42151,9.329738 L 42,102.9996 h 15.474662 l 3.619649,-4.537474 c 2.511172,-3.148312 3.558244,-4.616872 3.418634,-4.802867 -0.111007,-0.145495 -1.834586,-2.326335 -3.832663,-4.841865 l -3.632249,-4.571873 3.802261,-4.585873 c 2.092543,-2.52153 3.78326,-4.601872 3.759258,-4.625871 z"
       id="path3" />
    <path
       style="fill:#ffffff;fill-rule:evenodd;image-rendering:optimizeQuality;shape-rendering:geometricPrecision"
       d="m 74.107404,66 -7.054884,8.525763 c -3.880667,4.68747 -7.057885,8.618761 -7.057885,8.732758 0,0.113996 3.321228,4.376878 7.377306,9.473736 L 74.744448,102 h 7.72533 c 6.148822,0 7.684927,-0.0555 7.518316,-0.27599 -0.418529,-0.55349 -14.063165,-17.73551 -14.370787,-18.0955 -0.286519,-0.33599 0.331523,-1.157968 6.504247,-8.61276 3.754258,-4.533874 6.960478,-8.417367 7.124489,-8.628761 C 89.528062,66.020999 89.140036,66 81.827534,66 Z m -30.108067,0 c 0,0 13.047896,17.243521 12.783878,17.185123 0.03,0.084 -2.991206,3.977889 -6.714261,8.654759 -3.723256,4.67547 -7.064685,8.875358 -7.42151,9.329738 L 42,101.9996 h 15.474662 l 3.619649,-4.537474 c 2.511172,-3.148312 3.558244,-4.616872 3.418634,-4.802867 -0.111007,-0.145495 -1.834586,-2.326335 -3.832663,-4.841865 l -3.632249,-4.571873 3.802261,-4.585873 c 2.092543,-2.52153 3.78326,-4.601872 3.759258,-4.625871 z"
       id="path4" />
  </g>
</svg>
