<?xml version="1.0" encoding="UTF-8" standalone="no"?>
<svg
   width="62"
   height="62"
   version="1.1"
   id="svg11"
   sodipodi:docname="xnsketch.svg"
   inkscape:version="1.4 (e7c3feb100, 2024-10-09)"
   xmlns:inkscape="http://www.inkscape.org/namespaces/inkscape"
   xmlns:sodipodi="http://sodipodi.sourceforge.net/DTD/sodipodi-0.dtd"
   xmlns:xlink="http://www.w3.org/1999/xlink"
   xmlns="http://www.w3.org/2000/svg"
   xmlns:svg="http://www.w3.org/2000/svg">
  <defs
     id="defs11">
    <linearGradient
       id="linearGradient11"
       inkscape:collect="always">
      <stop
         style="stop-color:#2d3d53;stop-opacity:1;"
         offset="0"
         id="stop11" />
      <stop
         style="stop-color:#fea75f;stop-opacity:1"
         offset="1"
         id="stop12" />
    </linearGradient>
    <linearGradient
       inkscape:collect="always"
       xlink:href="#linearGradient11"
       id="linearGradient12"
       x1="33.3675"
       y1="60"
       x2="32"
       y2="5"
       gradientUnits="userSpaceOnUse" />
    <linearGradient
       inkscape:collect="always"
       xlink:href="#linearGradient18"
       id="linearGradient20-9"
       x1="63.824364"
       y1="58.552788"
       x2="72.811554"
       y2="63.414581"
       gradientUnits="userSpaceOnUse"
       gradientTransform="matrix(0.5101656,-0.45167725,0.45167725,0.5101656,-49.337824,9.0522319)" />
    <linearGradient
       id="linearGradient18"
       inkscape:collect="always">
      <stop
         style="stop-color:#550000;stop-opacity:1"
         offset="0"
         id="stop18" />
      <stop
         style="stop-color:#ffb0b0;stop-opacity:1;"
         offset="1"
         id="stop19" />
    </linearGradient>
    <linearGradient
       inkscape:collect="always"
       xlink:href="#linearGradient3"
       id="linearGradient16-6"
       x1="64.213181"
       y1="88"
       x2="70.213181"
       y2="88"
       gradientUnits="userSpaceOnUse"
       gradientTransform="matrix(0.5101656,-0.45167725,0.45167725,0.5101656,-49.337824,9.0522319)" />
    <linearGradient
       id="linearGradient3"
       inkscape:collect="always">
      <stop
         style="stop-color:#5d37a2;stop-opacity:1"
         offset="0"
         id="stop13" />
      <stop
         style="stop-color:#febc85;stop-opacity:1"
         offset="1"
         id="stop14" />
    </linearGradient>
  </defs>
  <sodipodi:namedview
     id="namedview11"
     pagecolor="#ffffff"
     bordercolor="#000000"
     borderopacity="0.25"
     inkscape:showpageshadow="2"
     inkscape:pageopacity="0.0"
     inkscape:pagecheckerboard="0"
     inkscape:deskcolor="#d1d1d1"
     inkscape:zoom="8.3085047"
     inkscape:cx="35.866863"
     inkscape:cy="35.144711"
     inkscape:window-width="1920"
     inkscape:window-height="998"
     inkscape:window-x="0"
     inkscape:window-y="0"
     inkscape:window-maximized="1"
     inkscape:current-layer="svg11" />
  <g
     id="g12"
     transform="matrix(0.98214286,0,0,0.98245614,-0.42857152,-0.92982455)">
    <rect
       style="opacity:0.2"
       width="56"
       height="56"
       x="4"
       y="5"
       rx="16.799999"
       ry="16.799999"
       id="rect1" />
    <rect
       style="fill:url(#linearGradient12)"
       width="56"
       height="56"
       x="4"
       y="4"
       rx="16.799999"
       ry="16.799999"
       id="rect2" />
    <path
       style="opacity:0.2;fill:#ffffff"
       d="M 20.800781,4 C 11.493582,4 4,11.493582 4,20.800781 v 1 C 4,12.493582 11.493582,5 20.800781,5 H 43.199219 C 52.506418,5 60,12.493582 60,21.800781 v -1 C 60,11.493582 52.506418,4 43.199219,4 Z"
       id="path2" />
    <circle
       style="opacity:0.2"
       cx="32"
       cy="33"
       r="20"
       id="circle2" />
    <path
       style="fill:#bdc9db;fill-opacity:1"
       d="M 42.748047,15.160156 C 41.654994,15.363811 40.563395,15.59961 40,15.59961 c -4.617582,0 -9.991489,1.943644 -13.175782,5.843748 -2.718985,3.330198 -3.589735,8.317157 -3.78711,12.210939 0.196215,-1.932098 2.77873,-2.316786 4.101563,-3.402344 C 28.577797,29.070961 29.84173,24.800781 32,24.800781 c 0.270701,-5e-5 0.541233,0.01357 0.810547,0.04101 0.008,4.04e-4 0.01549,0.0014 0.02344,0.002 8.446454,0.436293 14.66601,6.601148 14.66601,15.156205 0,1.714482 -0.277997,3.361801 -0.777344,4.910156 0.140271,0.06235 0.273339,0.110486 0.40625,0.15625 a 20.000001,20.000001 0 0 0 0.0079,-0.0099 c 0.282137,-0.326719 0.539745,-0.66932 0.798828,-1.011719 a 20.000001,20.000001 0 0 0 0.373047,-0.490234 c 0.219018,-0.308768 0.418628,-0.629578 0.619141,-0.949218 a 20.000001,20.000001 0 0 0 0.404297,-0.660157 c 0.17516,-0.304834 0.337511,-0.616603 0.496093,-0.929688 a 20.000001,20.000001 0 0 0 0.363282,-0.751953 c 0.143875,-0.316159 0.279094,-0.635941 0.40625,-0.958984 a 20.000001,20.000001 0 0 0 0.296875,-0.808595 c 0.107472,-0.31183 0.212717,-0.624454 0.304687,-0.941405 a 20.000001,20.000001 0 0 0 0.240235,-0.947266 c 0.06782,-0.285122 0.140014,-0.569148 0.195312,-0.857422 a 20.000001,20.000001 0 0 0 0.169921,-1.123047 c 0.03342,-0.250411 0.07761,-0.497924 0.101561,-0.75 A 20.000001,20.000001 0 0 0 52.000001,32 c -0.0017,-0.42029 -0.01671,-0.84042 -0.04492,-1.259765 -1.26e-4,-0.0018 1.29e-4,-0.0039 0,-0.0058 -0.0079,-0.118828 -0.02144,-0.236981 -0.03125,-0.35547 -0.04389,-0.555947 -0.111,-1.109815 -0.201171,-1.660156 -0.02078,-0.123772 -0.0468,-0.246059 -0.07032,-0.36914 a 20.000001,20.000001 0 0 0 -0.0039,-0.02149 c -0.08536,-0.452569 -0.186338,-0.902057 -0.302736,-1.347657 -3.62e-4,-0.0014 -0.0015,-0.0024 -0.002,-0.0039 -0.05989,-0.229186 -0.123514,-0.456976 -0.191406,-0.683593 -0.112743,-0.3753 -0.236497,-0.747205 -0.371094,-1.115233 -0.1045,-0.286389 -0.214641,-0.570429 -0.332031,-0.851564 -0.134186,-0.322692 -0.276821,-0.641813 -0.427735,-0.957029 -0.111857,-0.232762 -0.223159,-0.466838 -0.34375,-0.695313 a 20.000001,20.000001 0 0 0 -0.0058,-0.01372 l -0.002,-0.002 c -0.185738,-0.348127 -0.381834,-0.690771 -0.587891,-1.027343 -0.0037,-0.006 -0.0082,-0.01157 -0.01171,-0.01758 -0.160964,-0.263881 -0.326675,-0.524743 -0.5,-0.78125 l -0.0039,-0.0058 a 20.000001,20.000001 0 0 0 -0.0039,-0.0079 c -0.202317,-0.29865 -0.414448,-0.592926 -0.632983,-0.880876 -0.202627,-0.26698 -0.41246,-0.527987 -0.628908,-0.785155 a 20.000001,20.000001 0 0 0 -0.0079,-0.0099 c -0.07158,-0.08261 -0.143861,-0.164657 -0.216798,-0.246095 -0.403366,-0.463058 -0.825609,-0.910798 -1.273439,-1.33789 -0.0057,-0.0054 -0.01186,-0.01029 -0.01758,-0.01563 a 20.000001,20.000001 0 0 0 -0.09756,-0.09165 c -0.240046,-0.225347 -0.484109,-0.447774 -0.73633,-0.662108 0.0049,-0.0049 0.0068,-0.0087 0.01171,-0.01371 a 20.000001,20.000001 0 0 0 -2.214845,-1.615235 z m 3.757812,30.015626 c -0.09711,0.109143 -0.195433,0.217226 -0.294921,0.324218 0.09949,-0.107 0.1978,-0.215071 0.294921,-0.324218 z m -1.134765,1.173827 c -0.1235,0.118128 -0.248511,0.23468 -0.375,0.34961 -0.0071,0.0153 -0.01243,0.0316 -0.01953,0.04687 0.133357,-0.130314 0.264877,-0.262496 0.394531,-0.396483 z"
       id="path3" />
    <path
       style="fill:#ffffff"
       d="m 32.818358,24.041015 c 4.03405,0.409681 5.880861,3.916457 5.880861,8.058593 5e-5,0.270703 -0.01357,0.541234 -0.04101,0.810548 -4.04e-4,0.008 -0.0014,0.01549 -0.002,0.02344 -0.436293,8.446457 -6.101148,14.66601 -14.656205,14.66601 -1.714482,0 -4.205552,-1.29948 -5.753906,-1.798827 0.05072,0.04322 -0.0207,0.255233 -0.144533,0.55078 A 20.000001,20.000001 0 0 0 32,52.000001 c 0.42029,-0.0017 0.840419,-0.01671 1.259765,-0.04492 0.0018,-1.25e-4 0.0039,1.29e-4 0.0058,0 0.118828,-0.0079 0.236981,-0.02144 0.355468,-0.03125 0.555949,-0.04389 1.109817,-0.111 1.660157,-0.201171 0.123772,-0.02078 0.24606,-0.0468 0.36914,-0.07032 a 20.000001,20.000001 0 0 0 0.02149,-0.0039 c 0.45257,-0.08536 0.902057,-0.186337 1.347657,-0.302736 0.0014,-3.61e-4 0.0024,-0.0015 0.0039,-0.002 0.229185,-0.05989 0.456977,-0.123514 0.683592,-0.191406 0.375301,-0.112743 0.747207,-0.236497 1.115235,-0.371094 0.286389,-0.1045 0.570429,-0.214641 0.851564,-0.332031 0.322692,-0.134186 0.641812,-0.27682 0.957029,-0.427734 0.232761,-0.111857 0.466837,-0.22316 0.695313,-0.34375 a 20.000001,20.000001 0 0 0 0.01372,-0.0058 l 0.002,-0.002 c 0.348172,-0.185786 0.690771,-0.381835 1.027343,-0.587892 0.006,-0.0037 0.01157,-0.0082 0.01758,-0.01171 0.263879,-0.160964 0.524743,-0.326675 0.78125,-0.5 l 0.0058,-0.0039 a 20.000001,20.000001 0 0 0 0.0079,-0.0039 c 0.298632,-0.202132 0.59291,-0.414276 0.880858,-0.632812 0.266981,-0.202625 0.527989,-0.41246 0.785158,-0.628907 a 20.000001,20.000001 0 0 0 0.0099,-0.0079 c 0.08261,-0.07158 0.164657,-0.14386 0.246093,-0.216797 0.463059,-0.403366 0.9108,-0.825609 1.33789,-1.273439 0.0054,-0.0057 0.01029,-0.01186 0.01563,-0.01758 a 20.000001,20.000001 0 0 0 0.0918,-0.09765 c 0.225347,-0.240045 0.447775,-0.48411 0.662108,-0.736328 0.507366,-1.560043 0.788878,-3.221779 0.788878,-4.951176 0,-8.560414 -6.727724,-15.530454 -15.181642,-15.958985 z M 17.253905,45.076172 c 0.130314,0.133357 0.262491,0.264875 0.396484,0.394532 -0.118128,-0.1235 -0.23468,-0.248512 -0.349609,-0.375 -0.0153,-0.0071 -0.0316,-0.01243 -0.04687,-0.01953 z"
       id="path4" />
    <path
       style="fill:#bdcadb;fill-opacity:1"
       d="m 18.923828,17.253906 c -0.133357,0.130314 -0.264876,0.26249 -0.394532,0.396483 0.1235,-0.118128 0.248512,-0.234679 0.375,-0.349608 0.0071,-0.0153 0.01243,-0.0316 0.01953,-0.04687 z M 17.689452,18.5 c -0.09949,0.106985 -0.197802,0.215071 -0.294922,0.324218 0.09711,-0.109143 0.195434,-0.217226 0.294922,-0.324218 z m -0.648437,0.251953 A 20.000001,20.000001 0 0 0 11.999999,32 a 20.000001,20.000001 0 0 0 0.04492,1.259765 c 0.0079,0.120786 0.02128,0.240903 0.03125,0.361329 a 20.000001,20.000001 0 0 0 0.201172,1.660156 c 0.02199,0.130957 0.04965,0.26029 0.07421,0.390625 a 20.000001,20.000001 0 0 0 0.302735,1.347657 c 0.0602,0.230591 0.125057,0.459515 0.193359,0.6875 a 20.000001,20.000001 0 0 0 0.371093,1.115234 c 0.1045,0.286388 0.214642,0.570428 0.332032,0.851563 a 20.000001,20.000001 0 0 0 0.427734,0.957029 c 0.114,0.23722 0.226301,0.476378 0.349609,0.708986 4.09e-4,7.71e-4 0.0015,0.0012 0.002,0.002 a 20.000001,20.000001 0 0 0 0.587892,1.027345 c 0.164376,0.27005 0.334447,0.536479 0.511719,0.798827 0.204829,0.303131 0.418907,0.60239 0.640625,0.894531 0.205143,0.2703 0.417407,0.534657 0.636719,0.794922 a 20.000001,20.000001 0 0 0 0.216798,0.246095 c 0.403364,0.463058 0.825607,0.910798 1.273436,1.337889 a 20.000001,20.000001 0 0 0 0.115229,0.107429 c 0.240044,0.225348 0.484108,0.447775 0.736328,0.66211 C 20.60891,47.718533 22.270611,48 24.000009,48 c 8.560414,0 15.530454,-6.727722 15.958984,-15.181642 -0.40968,4.03405 -3.816848,6.88086 -7.958984,6.88086 -0.270702,5e-5 -0.541234,-0.01357 -0.810548,-0.04101 -0.008,-4.04e-4 -0.01549,-0.0014 -0.02344,-0.002 C 22.719551,39.21986 16.400389,32.555057 16.400389,24 c 0,-1.714482 0.277997,-3.361801 0.777344,-4.910157 -0.04539,-0.125171 -0.09121,-0.220025 -0.136714,-0.33789 z"
       id="path5" />
    <path
       style="fill:#ffffff"
       d="M 31.181641,39.958985 C 30.117084,39.850871 35.788174,38.606661 34.929647,38.122642 32.534851,36.772511 24.4,35.049056 24.4,32 c -5e-5,-0.270701 -0.38636,-0.541233 -0.358981,-0.810547 4.04e-4,-0.008 0.0014,-0.01549 0.002,-0.02344 C 24.479409,22.719549 31.444943,15.999999 40,15.999999 c 1.714481,0 3.361801,0.277997 4.910156,0.777344 C 41.307637,13.707427 36.733108,12.014643 32,11.999999 26.142071,12.008571 20.582411,14.584984 16.789061,19.048828 16.281466,20.608901 15.999999,22.270603 15.999999,24 c 0,8.560414 6.727723,15.530454 15.181642,15.958985 z M 46.746094,18.523438 c -0.130314,-0.133357 -0.262491,-0.264877 -0.396485,-0.394532 0.118128,0.1235 0.234679,0.248511 0.34961,0.375 0.0153,0.0071 0.0316,0.01243 0.04687,0.01953 z M 45.5,17.289061 c -0.107,-0.09949 -0.215071,-0.1978 -0.324219,-0.29492 0.109143,0.09711 0.217227,0.195433 0.324219,0.29492 z"
       id="path6" />
    <circle
       style="fill:#2d3d53;fill-opacity:1"
       cx="32"
       cy="32"
       r="9"
       id="circle6" />
    <path
       d="M 10.522167,10.658535 C 9.7737378,9.8131905 9.8522877,8.5214355 10.697632,7.7730063 11.542976,7.0245771 12.834731,7.103127 13.583161,7.9484714 l 2.258386,2.5508276 -3.060994,2.710064 z"
       id="path250-3"
       style="fill:url(#linearGradient20-9);stroke-width:0.681382" />
    <path
       d="m 11.877199,12.189032 19.447415,21.96569 c 0.280492,0.316813 0.630893,0.563541 1.023341,0.722078 l 3.643603,1.46548 -1.013189,-3.794328 C 34.868552,32.139186 34.6661,31.761471 34.385608,31.444658 L 14.938192,9.4789682 Z"
       id="path254-1"
       style="fill:url(#linearGradient16-6);stroke-width:0.681382" />
  </g>
</svg>
