<?xml version="1.0" encoding="UTF-8" standalone="no"?>
<svg
   width="62"
   height="62"
   version="1.1"
   id="svg7"
   sodipodi:docname="XRCed.svg"
   inkscape:version="1.4 (e7c3feb100, 2024-10-09)"
   xmlns:inkscape="http://www.inkscape.org/namespaces/inkscape"
   xmlns:sodipodi="http://sodipodi.sourceforge.net/DTD/sodipodi-0.dtd"
   xmlns:xlink="http://www.w3.org/1999/xlink"
   xmlns="http://www.w3.org/2000/svg"
   xmlns:svg="http://www.w3.org/2000/svg">
  <defs
     id="defs7">
    <linearGradient
       inkscape:collect="always"
       xlink:href="#linearGradient8"
       id="linearGradient10"
       x1="31.5"
       y1="59.017544"
       x2="31.5"
       y2="4.9824562"
       gradientUnits="userSpaceOnUse"
       gradientTransform="translate(-0.5,-0.5087719)" />
    <linearGradient
       id="linearGradient8"
       inkscape:collect="always">
      <stop
         style="stop-color:#273649;stop-opacity:1;"
         offset="0"
         id="stop8" />
      <stop
         style="stop-color:#476084;stop-opacity:1;"
         offset="1"
         id="stop10" />
    </linearGradient>
  </defs>
  <sodipodi:namedview
     id="namedview7"
     pagecolor="#ffffff"
     bordercolor="#000000"
     borderopacity="0.25"
     inkscape:showpageshadow="2"
     inkscape:pageopacity="0.0"
     inkscape:pagecheckerboard="0"
     inkscape:deskcolor="#d1d1d1"
     inkscape:zoom="5.875"
     inkscape:cx="61.106383"
     inkscape:cy="57.361702"
     inkscape:window-width="1920"
     inkscape:window-height="998"
     inkscape:window-x="0"
     inkscape:window-y="0"
     inkscape:window-maximized="1"
     inkscape:current-layer="svg7" />
  <g
     id="g7"
     transform="translate(0,-0.4912281)">
    <rect
       style="opacity:0.2;stroke-width:0.9823"
       width="55"
       height="55.017544"
       x="3.5"
       y="4.4736843"
       rx="8.25"
       ry="8.2526312"
       id="rect1" />
    <rect
       style="fill:url(#linearGradient10);stroke-width:0.9823"
       width="55"
       height="55.017544"
       x="3.5"
       y="3.4912281"
       rx="8.25"
       ry="8.2526312"
       id="rect2" />
    <path
       style="opacity:0.1;fill:#ffffff;stroke-width:0.9823"
       d="M 11.748466,3.4912281 C 7.1779652,3.4912281 3.5,7.1703661 3.5,11.742325 v 0.982456 c 0,-4.5719589 3.6779652,-8.2510969 8.248466,-8.2510969 h 38.503068 c 4.5705,0 8.248466,3.679138 8.248466,8.2510969 v -0.982456 c 0,-4.5719589 -3.677966,-8.2510969 -8.248466,-8.2510969 z"
       id="path4-3" />
  </g>
  <g
     id="g1"
     transform="matrix(0.54839186,0,0,0.54705271,-33.357961,-3.7120092)">
    <path
       style="opacity:0.1;stroke-width:1.7811"
       d="m 79.683041,30.502302 9.128168,14.669775 -9.747379,15.609037 h 6.66175 l 6.828742,-11.448484 6.825249,11.448484 h 7.113989 L 96.582683,45.512994 105.79086,30.502302 H 99.090842 L 92.881323,41.397663 86.550039,30.502302 Z m 28.591629,0 v 30.278812 h 7.12442 V 48.313363 h 3.0265 l 7.43402,12.467751 h 7.35055 l -9.18384,-14.196677 c 3.75797,-0.257159 5.80089,-3.465184 5.6738,-8.014979 0.12711,-5.543139 -4.20754,-8.067156 -12.32859,-8.067156 z m 38.75646,0 c -2.97026,0 -5.48616,0.645103 -7.54884,1.93765 -2.03517,1.292557 -3.59237,3.081589 -4.66497,5.364189 -1.07258,2.282604 -1.60716,4.905702 -1.60716,7.875833 0,3.025137 0.46684,5.683676 1.40192,7.966272 0.93508,2.255101 2.37834,4.012166 4.33101,5.277223 1.98017,1.237557 4.48183,1.857645 7.50709,1.857645 1.56763,0 2.98937,-0.121247 4.25448,-0.368769 1.26511,-0.247521 2.53745,-0.635882 3.83007,-1.158421 V 54.01497 c -4.44206,1.394566 -8.66547,3.060903 -12.51645,-0.991439 -1.4316,-1.506463 -1.7324,-4.163217 -1.7324,-7.298358 -0.13126,-5.924194 5.13244,-11.191034 10.00481,-9.448214 1.1276,0.38499 2.23948,0.83766 3.33957,1.360176 l 2.02114,-5.068494 c -1.34762,-0.632505 -2.76239,-1.131354 -4.24752,-1.48887 -1.45763,-0.385056 -2.91513,-0.577449 -4.37275,-0.577449 z m -31.63204,5.343318 h 1.73588 c 1.85964,0 3.21568,0.26914 4.07012,0.810542 0.87955,0.516798 1.31843,1.402666 1.31843,2.657745 0,1.205859 -0.41259,2.119045 -1.24191,2.734281 -0.80416,0.615212 -2.15055,0.921857 -4.03531,0.921857 h -1.84721 z m 19.56782,32.059915 v 6.021672 c 0,0.838888 0.0505,1.664171 0.15307,2.476849 0.10239,0.786463 0.19453,1.38949 0.27137,1.808931 h -0.19132 c -0.56345,-0.891315 -1.68801,-1.637341 -2.66122,-2.240296 -0.97321,-0.60296 -2.21469,-0.904464 -3.72571,-0.904464 -2.40741,0 -4.35536,0.944168 -5.84078,2.831683 -1.48542,1.887503 -2.22987,5.527578 -2.22987,9.197745 0,3.643944 0.73179,6.40577 2.1916,8.293273 1.48542,1.861301 3.38845,2.793412 5.71902,2.793412 1.51103,0 2.73985,-0.305008 3.68745,-0.907945 0.94759,-0.629148 1.70469,-1.383761 2.26812,-2.275087 h 0.23305 l 1.11319,3.183032 h 4.37971 V 67.905535 Z m -29.10996,5.343318 c -1.99946,0 -3.75025,0.469002 -5.25635,1.408887 -1.506085,0.939852 -2.687901,2.350417 -3.544811,4.230127 -0.830948,1.850332 -1.248866,4.183109 -1.248866,7.002663 0,2.760832 0.467116,5.052994 1.401926,6.873963 0.934817,1.820965 2.218499,3.190934 3.854421,4.101415 1.63593,0.88111 3.52015,1.318432 5.64945,1.318432 1.63593,0 3.02496,-0.144605 4.16751,-0.438305 1.16852,-0.26434 2.27306,-0.692761 3.31175,-1.280167 v -5.065036 c -1.19449,0.646178 -2.34823,1.127554 -3.46482,1.450628 -1.11657,0.293707 -2.36684,0.441804 -3.7431,0.441804 -1.63592,0 -2.91961,-0.528979 -3.85442,-1.586298 -0.90885,-1.057342 -1.38825,-2.358916 -1.44019,-4.209252 h 13.70964 v -3.325659 c 0,-3.495088 -0.85347,-6.180499 -2.56729,-8.060206 -1.71383,-1.909081 -4.04056,-2.862988 -6.97485,-2.862996 z m 0.0384,5.343323 c 1.37626,0 2.38775,0.511948 3.03692,1.534114 0.64915,0.99123 0.98981,2.26041 1.01579,3.809204 h -8.14369 c 0.12987,-1.827575 0.56001,-3.178432 1.28713,-4.045758 0.75305,-0.867318 1.68728,-1.29756 2.80385,-1.29756 z m 24.43803,1.781102 c 1.7811,0 2.99803,0.536319 3.6457,1.607168 0.67466,1.070846 1.01232,2.62526 1.01232,4.664969 v 0.608754 c -0.0268,1.861236 -0.37591,3.265889 -1.05057,4.209256 -0.67466,0.917873 -1.85079,1.377573 -3.52395,1.377573 -1.37631,0 -2.44132,-0.510803 -3.19695,-1.53064 -0.75562,-1.045353 -1.13406,-2.586989 -1.13406,-4.626698 0,-2.039712 0.37846,-3.594126 1.13406,-4.664969 0.75563,-1.096346 1.79112,-1.64544 3.11346,-1.64544 z"
       id="path4" />
    <path
       d="M 79.683041,28.721198 88.811209,43.390975 79.06383,59 h 6.66175 L 92.554322,47.551524 99.379571,59 h 7.113989 L 96.582683,43.731888 105.79086,28.721198 H 99.090842 L 92.881323,39.616561 86.550039,28.721198 Z m 28.591629,0 V 59 h 7.12442 V 46.532261 h 3.0265 L 125.85961,59 h 7.35055 l -9.18384,-14.196669 c 3.75797,-0.257159 5.80089,-3.46518 5.6738,-8.014976 0.12711,-5.543138 -4.20754,-8.067157 -12.32859,-8.067157 z m 38.75646,0 c -2.97026,0 -5.48616,0.645102 -7.54884,1.937644 -2.03517,1.292561 -3.59237,3.081589 -4.66497,5.364193 -1.07258,2.2826 -1.60716,4.905698 -1.60716,7.875829 0,3.025134 0.46684,5.683676 1.40192,7.96628 0.93508,2.255101 2.37834,4.012165 4.33101,5.277222 C 140.92326,58.37992 143.42492,59 146.45018,59 c 1.56763,0 2.98937,-0.121247 4.25448,-0.368768 1.26511,-0.247522 2.53745,-0.635879 3.83007,-1.15841 v -5.238959 c -4.44206,1.394571 -8.66547,3.060896 -12.51645,-0.991434 -1.4316,-1.506463 -1.7324,-4.163221 -1.7324,-7.298366 -0.13126,-5.924187 5.13244,-11.191034 10.00481,-9.448207 1.1276,0.384987 2.23948,0.837649 3.33957,1.360177 l 2.02114,-5.068498 c -1.34762,-0.63251 -2.76239,-1.131379 -4.24752,-1.488889 -1.45763,-0.385055 -2.91513,-0.577448 -4.37275,-0.577448 z m -31.63204,5.34332 h 1.73588 c 1.85964,0 3.21568,0.26914 4.07012,0.810542 0.87955,0.516794 1.31843,1.402666 1.31843,2.657745 0,1.205854 -0.41259,2.119041 -1.24191,2.734269 -0.80416,0.615216 -2.15055,0.921865 -4.03531,0.921865 h -1.84721 z"
       id="path6"
       style="fill:#ffffff;fill-opacity:1" />
    <path
       d="m 134.25377,66.124432 v 6.021661 c 0,0.838896 0.0505,1.664175 0.15307,2.476857 0.10239,0.786463 0.19453,1.389494 0.27137,1.808934 h -0.19132 c -0.56345,-0.891314 -1.68801,-1.63734 -2.66122,-2.240296 -0.97321,-0.602963 -2.21469,-0.904471 -3.72571,-0.904471 -2.40741,0 -4.35536,0.944175 -5.84078,2.831679 -1.48542,1.887515 -2.22987,5.527589 -2.22987,9.197749 0,3.643944 0.73179,6.405766 2.1916,8.293281 1.48542,1.861293 3.38845,2.793411 5.71902,2.793411 1.51103,0 2.73985,-0.305008 3.68745,-0.907944 0.94759,-0.629148 1.70469,-1.383765 2.26812,-2.275087 h 0.23305 l 1.11319,3.183031 h 4.37971 V 66.124432 Z m -29.10996,5.343319 c -1.99946,0 -3.75025,0.469001 -5.25635,1.408879 -1.506085,0.939859 -2.687902,2.35042 -3.544811,4.230131 -0.830948,1.850335 -1.248866,4.183105 -1.248866,7.002667 0,2.76082 0.467116,5.052986 1.401925,6.873955 0.934817,1.820961 2.2185,3.190934 3.854422,4.101423 1.63593,0.88111 3.52015,1.318431 5.64945,1.318431 1.63593,0 3.02496,-0.144605 4.16751,-0.438304 1.16852,-0.26434 2.27306,-0.692765 3.31175,-1.280171 v -5.065021 c -1.19449,0.646114 -2.34823,1.127554 -3.46482,1.450624 -1.11657,0.293707 -2.36684,0.441804 -3.7431,0.441804 -1.63592,4e-6 -2.91961,-0.528982 -3.85442,-1.586294 -0.90885,-1.057342 -1.38825,-2.358916 -1.44019,-4.209256 h 13.70964 v -3.325682 c 0,-3.49508 -0.85347,-6.180495 -2.56729,-8.060198 -1.71383,-1.909081 -4.04056,-2.862988 -6.97485,-2.862988 z m 0.0384,5.343318 c 1.37626,0 2.38775,0.511949 3.03692,1.534118 0.64915,0.991223 0.98981,2.260411 1.01579,3.809201 h -8.14369 c 0.12987,-1.827572 0.56001,-3.178439 1.28713,-4.045754 0.75305,-0.867318 1.68728,-1.297565 2.80385,-1.297565 z m 24.43803,1.781107 c 1.7811,0 2.99803,0.536314 3.6457,1.607168 0.67466,1.070846 1.01232,2.625256 1.01232,4.664969 v 0.60875 c -0.0268,1.861239 -0.37591,3.265889 -1.05057,4.209248 -0.67467,0.917881 -1.85079,1.377577 -3.52395,1.377577 -1.37631,0 -2.44132,-0.510803 -3.19695,-1.530636 -0.75563,-1.045357 -1.13406,-2.586985 -1.13406,-4.626705 0,-2.039709 0.37846,-3.594116 1.13406,-4.664969 0.75563,-1.096343 1.79112,-1.645433 3.11346,-1.645433 z"
       id="path8"
       style="fill:#975cf6" />
  </g>
</svg>
