<?xml version="1.0" encoding="UTF-8" standalone="no"?>
<svg
   clip-rule="evenodd"
   fill-rule="evenodd"
   stroke-linejoin="round"
   stroke-miterlimit="2"
   viewBox="0 0 62 62"
   version="1.1"
   id="svg8"
   sodipodi:docname="y-cutter.svg"
   width="62"
   height="62"
   inkscape:version="1.4 (e7c3feb100, 2024-10-09)"
   xmlns:inkscape="http://www.inkscape.org/namespaces/inkscape"
   xmlns:sodipodi="http://sodipodi.sourceforge.net/DTD/sodipodi-0.dtd"
   xmlns:xlink="http://www.w3.org/1999/xlink"
   xmlns="http://www.w3.org/2000/svg"
   xmlns:svg="http://www.w3.org/2000/svg">
  <defs
     id="defs8">
    <linearGradient
       id="linearGradient9"
       inkscape:collect="always">
      <stop
         style="stop-color:#b92d3a;stop-opacity:1"
         offset="0"
         id="stop9" />
      <stop
         style="stop-color:#e25563;stop-opacity:1"
         offset="1"
         id="stop10" />
    </linearGradient>
    <linearGradient
       inkscape:collect="always"
       xlink:href="#linearGradient9"
       id="linearGradient10"
       x1="44.75473"
       y1="71.792999"
       x2="73.577339"
       y2="9.1124315"
       gradientUnits="userSpaceOnUse" />
  </defs>
  <sodipodi:namedview
     id="namedview8"
     pagecolor="#ffffff"
     bordercolor="#000000"
     borderopacity="0.25"
     inkscape:showpageshadow="2"
     inkscape:pageopacity="0.0"
     inkscape:pagecheckerboard="0"
     inkscape:deskcolor="#d1d1d1"
     inkscape:zoom="5.875"
     inkscape:cx="64"
     inkscape:cy="64"
     inkscape:window-width="1920"
     inkscape:window-height="998"
     inkscape:window-x="0"
     inkscape:window-y="0"
     inkscape:window-maximized="1"
     inkscape:current-layer="svg8" />
  <linearGradient
     id="a"
     x2="1"
     gradientTransform="matrix(0,62.793,-62.793,0,62.633,9)"
     gradientUnits="userSpaceOnUse">
    <stop
       stop-color="#bf171d"
       offset="0"
       id="stop1" />
    <stop
       stop-color="#960500"
       offset="1"
       id="stop2" />
  </linearGradient>
  <g
     id="g9"
     transform="translate(-3.0212757,-2.5324078)">
    <path
       d="m 34.197775,37.618021 c -0.06131,-10e-4 -1.367143,-2.445287 -9.005212,-16.852216 -0.357629,-0.673702 -0.675066,-1.252688 -0.705474,-1.285787 -0.04688,-0.05194 -0.07628,-0.03921 -0.195818,0.08351 -0.520475,0.534684 -1.221821,1.990043 -1.434136,2.976407 -0.104608,0.485289 -0.100492,3.213704 0.0051,3.631776 0.123162,0.486817 0.874496,1.97171 3.708757,7.331279 3.911791,7.394932 4.693014,8.892047 4.719809,9.045832 0.506043,-0.09828 3.124381,-1.017936 3.124381,-1.017936 l -0.21746,-3.913376 z"
       fill-rule="nonzero"
       id="path2"
       style="stroke-width:0.512262;fill:#c4c4c4;fill-opacity:1" />
    <path
       d="m 56.562127,13.188062 c 0,0 -0.45039,-3.133247 -1.828355,-4.5127323 C 52.986321,6.8640247 51.022441,6.8553687 50.1263,6.7484317 43.686351,6.2901311 34.030296,6.2901311 34.030296,6.2901311 h -0.01804 c 0,0 -9.65554,0 -16.096004,0.4583006 -0.896141,0.106937 -2.859507,0.115593 -4.606955,1.926898 -1.378482,1.3794853 -1.828872,4.5127323 -1.828872,4.5127323 0,0 -0.459148,3.676079 -0.459148,7.356231 v 3.449475 c 0,3.680152 0.459148,7.356231 0.459148,7.356231 0,0 0.45039,3.133247 1.828872,4.512731 1.751571,1.811305 4.048866,1.753254 5.070741,1.944722 3.679898,0.34729 15.641498,0.4583 15.641498,0.4583 0,0 9.664815,-0.01324 16.104764,-0.476123 0.900778,-0.106937 2.860021,-0.115594 4.607472,-1.926899 1.377965,-1.379484 1.828355,-4.512731 1.828355,-4.512731 0,0 0.459148,-3.680662 0.459148,-7.356231 v -3.449475 c 0,-3.680152 -0.459148,-7.356231 -0.459148,-7.356231 z M 29.269773,28.172449 V 15.400125 l 12.430536,6.408059 z"
       fill="none"
       id="path3"
       style="stroke-width:0.512262" />
    <g
       fill-rule="nonzero"
       id="g8"
       transform="matrix(0.51531953,0,0,0.5092227,1.7455249,0.94940337)">
      <path
         d="m 106.374,22.546 c 0,0 -0.874,-6.152 -3.548,-8.862 C 99.435,10.127 95.624,10.11 93.885,9.9 81.388,9 62.65,9 62.65,9 h -0.035 c 0,0 -18.737,0 -31.235,0.9 -1.739,0.21 -5.549,0.227 -8.94,3.784 -2.675,2.71 -3.549,8.862 -3.549,8.862 0,0 -0.891,7.219 -0.891,14.447 v 6.773 c 0,7.227 0.891,14.446 0.891,14.446 0,0 0.874,6.153 3.549,8.862 3.399,3.557 7.857,3.444 9.84,3.819 7.141,0.682 30.353,0.9 30.353,0.9 0,0 18.755,-0.026 31.252,-0.935 1.748,-0.209 5.55,-0.227 8.941,-3.784 2.674,-2.709 3.548,-8.862 3.548,-8.862 0,0 0.891,-7.227 0.891,-14.446 v -6.773 c 0,-7.228 -0.891,-14.447 -0.891,-14.447 z M 53.412,51.972 V 26.89 l 24.122,12.585 z"
         id="path4"
         style="fill:url(#linearGradient10)" />
      <path
         d="M 53.413,51.972 77.534,39.475 53.412,26.89 v 25.082 z"
         id="path5"
         style="fill:#ffffff;fill-opacity:1" />
      <path
         d="m 85.146,41.402 c -0.575,-1.795 -1.697,-4.011 -2.32,-4.587 -0.166,-0.153 -0.173,-0.15 -0.374,0.164 -0.295,0.462 -2.895,5.123 -5.767,10.345 -9.149,16.631 -13.219,23.995 -13.565,24.54 -0.051,0.08 -0.117,0.145 -0.145,0.144 l -5.641,9.684 c 0.982,-0.193 6.063,-1.999 6.063,-1.999 l 0.336,0.182 4.753,1.861 c 0.003,-0.078 0.016,-0.15 0.044,-0.217 0.06,-0.142 0.73,-1.405 1.49,-2.806 1.556,-2.874 1.771,-3.267 5.124,-9.358 4.691,-8.519 8.894,-16.209 9.461,-17.311 0.784,-1.526 1.138,-3.385 1.161,-6.102 0.017,-1.999 -0.113,-2.957 -0.62,-4.54 z"
         id="path6"
         style="fill:#cccccc;fill-opacity:1" />
      <path
         d="M 94.606,103.561 C 92.934,98.47 88.23,95.063 83.123,95.245 c -2.778,0.1 -4.573,0.706 -6.938,2.342 -0.667,0.462 -1.229,0.825 -1.244,0.807 -0.017,-0.017 -0.179,-0.616 -0.361,-1.331 -0.407,-1.599 -1.767,-5.84 -2.402,-7.494 -0.596,-1.551 -1.707,-3.874 -2.685,-5.612 -0.779,-1.384 -1.02,-1.891 -1.007,-2.221 -4.756,-4.491 -8.373,-1.105 -11.152,-0.044 10e-4,0.006 0.011,0.028 0.011,0.032 -0.002,0.191 -0.276,0.711 -1.023,1.936 -1.009,1.659 -2.463,4.66 -3.28,6.772 -0.855,2.208 -2.402,6.996 -2.406,7.448 -0.003,0.325 -0.123,0.316 -0.642,-0.049 -0.269,-0.189 -0.782,-0.551 -1.142,-0.805 -3.498,-2.461 -7.996,-2.893 -11.772,-1.129 -2.561,1.196 -4.501,3.106 -5.754,5.661 -0.882,1.799 -1.127,3.096 -1.085,5.742 0.023,1.454 0.051,1.722 0.241,2.382 0.741,2.572 2.619,5.324 4.522,6.627 1.361,0.932 2.995,1.631 4.704,2.015 1.149,0.258 3.009,0.295 4.219,0.082 3.922,-0.688 6.798,-2.822 8.904,-6.602 0.81,-1.453 0.964,-2.014 1.72,-6.283 1.038,-5.862 2.049,-9.885 2.997,-11.918 0.807,-1.73 2.582,-3.759 4.306,-4.922 0.444,-0.299 0.566,-0.342 0.97,-0.338 0.423,0.004 0.518,0.044 1.127,0.473 0.875,0.615 2.365,2.141 3.024,3.095 0.652,0.945 1.24,2.164 1.622,3.376 0.675,2.131 1.449,5.863 2.241,10.822 0.59,3.693 0.819,4.571 1.552,5.964 1.297,2.462 2.815,4.106 4.884,5.29 3.572,2.044 7.694,2.144 11.392,0.277 3.296,-1.663 5.737,-4.94 6.237,-8.372 0.173,-1.191 0.201,-3.397 0.054,-4.286 -0.064,-0.388 -0.222,-1.027 -0.351,-1.421 z m -4.847,1.62 c 1.086,3.603 -0.954,7.405 -4.557,8.492 -3.603,1.087 -7.405,-0.953 -8.492,-4.557 -1.087,-3.603 0.953,-7.405 4.557,-8.492 3.603,-1.086 7.405,0.954 8.492,4.557 z m -41.251,-0.499 c 1.087,3.604 -0.953,7.406 -4.556,8.492 -3.604,1.087 -7.406,-0.953 -8.492,-4.556 -1.087,-3.603 0.953,-7.405 4.556,-8.492 3.603,-1.087 7.405,0.953 8.492,4.556 z"
         id="path7"
         style="fill:#6610f2" />
      <path
         d="m 60.957,80.757 c 0.395,1.31 1.777,2.051 3.087,1.656 1.31,-0.395 2.052,-1.777 1.657,-3.087 -0.395,-1.31 -1.777,-2.051 -3.087,-1.656 -1.31,0.395 -2.052,1.777 -1.657,3.087 z"
         fill="#4c4c4c"
         id="path8" />
    </g>
  </g>
</svg>
