<?xml version="1.0" encoding="UTF-8" standalone="no"?>
<svg
   width="62"
   height="62"
   version="1.1"
   id="svg5"
   sodipodi:docname="yahoo-mail.svg"
   inkscape:version="1.4 (e7c3feb100, 2024-10-09)"
   xmlns:inkscape="http://www.inkscape.org/namespaces/inkscape"
   xmlns:sodipodi="http://sodipodi.sourceforge.net/DTD/sodipodi-0.dtd"
   xmlns:xlink="http://www.w3.org/1999/xlink"
   xmlns="http://www.w3.org/2000/svg"
   xmlns:svg="http://www.w3.org/2000/svg">
  <defs
     id="defs5">
    <linearGradient
       id="linearGradient8"
       inkscape:collect="always">
      <stop
         style="stop-color:#450ba5;stop-opacity:1"
         offset="0"
         id="stop8" />
      <stop
         style="stop-color:#975cf6;stop-opacity:1"
         offset="1"
         id="stop10" />
    </linearGradient>
    <linearGradient
       id="linearGradient4217">
      <stop
         style="stop-color:#000000;stop-opacity:1;"
         offset="0"
         id="stop2" />
      <stop
         style="stop-color:#000000;stop-opacity:0;"
         offset="1"
         id="stop4" />
    </linearGradient>
    <linearGradient
       id="linearGradient4161">
      <stop
         style="stop-color:#334545;stop-opacity:1;"
         offset="0"
         id="stop7" />
      <stop
         style="stop-color:#4d6868;stop-opacity:1"
         offset="1"
         id="stop9" />
    </linearGradient>
    <linearGradient
       id="a-1-2"
       y1="510.79999"
       y2="527.14001"
       gradientUnits="userSpaceOnUse"
       x2="0">
      <stop
         stop-color="#7cbaf8"
         id="stop2-2-7" />
      <stop
         offset="1"
         stop-color="#f4fcff"
         id="stop4-70-0" />
    </linearGradient>
    <linearGradient
       id="c"
       y1="503.79999"
       x1="400.57001"
       y2="519.79999"
       x2="416.57001"
       gradientUnits="userSpaceOnUse">
      <stop
         stop-color="#292c2f"
         id="stop12" />
      <stop
         offset="1"
         stop-opacity="0"
         id="stop14" />
    </linearGradient>
    <linearGradient
       id="b"
       y1="542.79999"
       x1="408.57001"
       y2="521.79999"
       x2="387.57001"
       gradientUnits="userSpaceOnUse"
       gradientTransform="translate(-384.57,-499.8)">
      <stop
         stop-color="#197cf1"
         id="stop7-8" />
      <stop
         offset="1"
         stop-color="#20bcfa"
         id="stop9-7" />
    </linearGradient>
    <linearGradient
       xlink:href="#linearGradient1389"
       id="linearGradient4503-5-6"
       y1="37"
       y2="4"
       x2="0"
       gradientUnits="userSpaceOnUse"
       gradientTransform="matrix(1.0218446,0,0,0.99999999,21.748946,8.2587777)" />
    <linearGradient
       id="linearGradient1389">
      <stop
         style="stop-color:#ffaaaa;stop-opacity:1"
         id="stop1385"
         offset="0" />
      <stop
         offset="1"
         style="stop-color:#ff5555;stop-opacity:1"
         id="stop1387" />
    </linearGradient>
    <linearGradient
       id="paint543_linear_890_11"
       x1="978.5"
       y1="298"
       x2="978.5"
       y2="304"
       gradientUnits="userSpaceOnUse"
       gradientTransform="matrix(0.75000004,0,0,0.75000004,-717.38333,-173.49123)">
      <stop
         offset="0.189495"
         stop-color="#EFF2F6"
         id="stop1829" />
      <stop
         offset="0.850463"
         stop-color="#B7C6CD"
         id="stop1830" />
    </linearGradient>
    <linearGradient
       inkscape:collect="always"
       xlink:href="#linearGradient8"
       id="linearGradient10"
       x1="31.5"
       y1="59.017544"
       x2="31.5"
       y2="4.9824562"
       gradientUnits="userSpaceOnUse" />
    <linearGradient
       id="linearGradient4144">
      <stop
         style="stop-color:#c83771;stop-opacity:1"
         offset="0"
         id="stop1141" />
      <stop
         style="stop-color:#de87aa;stop-opacity:1"
         offset="1"
         id="stop1143" />
    </linearGradient>
    <linearGradient
       id="c-0"
       gradientUnits="userSpaceOnUse"
       x1="10"
       x2="24"
       y1="10"
       y2="24"
       gradientTransform="translate(59.728813,26.237288)">
      <stop
         offset="0"
         stop-color="#292c2f"
         id="stop12-2" />
      <stop
         offset="1"
         stop-opacity="0"
         id="stop14-3" />
    </linearGradient>
    <linearGradient
       id="d"
       gradientUnits="userSpaceOnUse"
       x1="24"
       x2="24"
       y1="25"
       y2="7"
       gradientTransform="translate(59.728813,26.237288)">
      <stop
         offset="0"
         stop-color="#bb9d71"
         id="stop2-7" />
      <stop
         offset="1"
         stop-color="#f9f2e7"
         id="stop4-5" />
    </linearGradient>
  </defs>
  <sodipodi:namedview
     id="namedview5"
     pagecolor="#ffffff"
     bordercolor="#000000"
     borderopacity="0.25"
     inkscape:showpageshadow="2"
     inkscape:pageopacity="0.0"
     inkscape:pagecheckerboard="0"
     inkscape:deskcolor="#d1d1d1"
     inkscape:zoom="8.2643105"
     inkscape:cx="25.289466"
     inkscape:cy="27.709511"
     inkscape:window-width="1920"
     inkscape:window-height="998"
     inkscape:window-x="0"
     inkscape:window-y="0"
     inkscape:window-maximized="1"
     inkscape:current-layer="svg5" />
  <rect
     style="opacity:0.2;stroke-width:0.9823"
     width="55"
     height="55.017544"
     x="4"
     y="4.9824562"
     rx="8.25"
     ry="8.2526312"
     id="rect1" />
  <rect
     style="fill:url(#linearGradient10);stroke-width:0.9823"
     width="55"
     height="55.017544"
     x="4"
     y="4"
     rx="8.25"
     ry="8.2526312"
     id="rect2" />
  <path
     style="opacity:0.1;fill:#ffffff;stroke-width:0.9823"
     d="M 12.248466,4 C 7.6779652,4 4,7.6791384 4,12.251097 v 0.982456 C 4,8.6615945 7.6779652,4.9824561 12.248466,4.9824561 H 50.751534 C 55.322034,4.9824561 59,8.6615945 59,13.233553 V 12.251097 C 59,7.6791384 55.322034,4 50.751534,4 Z"
     id="path4" />
  <g
     id="g1"
     transform="translate(0,1.4925412)">
    <path
       d="m 48.910442,10.999989 c 0,-0.823875 -0.668661,-1.4925351 -1.492541,-1.4925351 H 14.58208 c -0.823879,0 -1.492528,0.6686601 -1.492528,1.4925351 v 20.895522 c 0,0.823881 0.668649,1.492546 1.492528,1.492546 h 32.835821 c 0.82388,0 1.492541,-0.668665 1.492541,-1.492546 z"
       id="path3"
       style="stroke-width:1.49255;fill:#e5e5e5;fill-opacity:1" />
    <g
       fill-rule="nonzero"
       id="g5"
       transform="matrix(1.4925374,0,0,1.4925374,-4.8208976,-8.4029874)">
      <path
         d="m 14,14 h 20 v 3 L 24,22 14,17 Z"
         fill="#a766fa"
         id="path4-3" />
      <path
         d="m 13.523,31.8 v 10e-4 c 0,0 -10e-4,-10e-4 -10e-4,-10e-4 v 10e-4 c -0.262,0.489 -1.226,2.064 -1.84,3.073 -0.623,-1.031 -1.36,-2.222 -1.84,-3.074 L 9.838,31.801 9.841,31.8 C 9.459,31.882 9.3,31.887 8.92,31.8 l 0.002,0.003 C 8.921,31.802 8.92,31.801 8.919,31.8 c 0.754,1.137 1.964,3.303 2.375,4.014 l -0.055,2.964 0.003,-10e-4 -0.002,10e-4 c 0,0 0.265,-0.044 0.443,-0.044 0.196,0 0.441,0.044 0.441,0.044 h -0.001 0.002 L 12.07,35.814 12.067,35.813 c 0.767,-1.345 2.032,-3.538 2.381,-4.011 L 14.45,31.8 c -0.331,0.075 -0.629,0.078 -0.925,10e-4 z m 25.076,0.073 c -0.221,0 -0.44,0.129 -0.44,0.461 -0.131,1.662 -0.268,3.329 -0.492,4.916 l -0.001,10e-4 h 0.001 L 37.67,37.25 c 0.135,-0.022 0.239,0.013 0.341,0.054 L 38.01,37.303 c 0.255,-1.611 0.861,-4.025 1.016,-4.708 0.022,-0.096 0.055,-0.21 0.055,-0.29 0,-0.244 -0.154,-0.386 -0.386,-0.424 -0.232,-0.038 -0.057,-0.008 -0.096,-0.008 z m -5.002,0.257 c -1.945,0 -3.432,1.104 -3.432,3.157 0,1.692 0.989,3.181 3.448,3.181 2.082,0 3.441,-1.145 3.441,-3.151 0,-1.892 -1.268,-3.187 -3.457,-3.187 z m -6.743,0.332 c -1.953,0 -2.977,1.238 -2.977,2.844 0,1.757 1.118,2.828 2.975,2.828 2.006,0 2.986,-1.207 2.986,-2.81 0,-1.787 -1.17,-2.862 -2.983,-2.862 z m 6.745,0.011 c 1.461,0 2.537,0.887 2.537,2.844 0,2.127 -1.302,2.817 -2.535,2.817 -1.317,0 -2.516,-0.773 -2.516,-2.859 0,-2.162 1.33,-2.802 2.514,-2.802 z m -18.118,0.061 c -0.741,1.861 -1.595,3.961 -2.364,5.526 v 10e-4 L 13.12,38.06 c 0,0 0,0 -0.002,0 l 0.006,-0.002 -0.003,0.002 c 0.351,-0.087 0.686,-0.06 0.908,0 -10e-4,-0.001 -0.002,-0.002 -0.003,-0.002 l 0.003,10e-4 c 0.196,-0.495 0.418,-1.055 0.642,-1.62 l 0.001,10e-4 c 0.754,-0.021 1.508,-0.024 2.263,0 0.214,0.54 0.429,1.081 0.639,1.621 10e-4,0 10e-4,0 10e-4,-10e-4 v 10e-4 c 0.337,-0.088 0.671,-0.064 0.919,-0.002 h -0.001 0.001 C 17.94,37.026 16.829,34.322 16.123,32.535 l -0.005,0.002 0.004,-0.002 c -0.229,0.08 -0.416,0.075 -0.641,0 z m 3.345,0.003 c 0.08,1.844 0.073,3.685 0,5.523 0.299,-0.072 0.605,-0.075 0.919,10e-4 l -0.002,-0.002 0.003,0.002 c -0.045,-0.858 -0.068,-1.714 -0.071,-2.569 1.029,-0.015 2.058,-0.015 3.086,-0.002 -0.003,0.856 -0.025,1.713 -0.071,2.571 l 0.003,-10e-4 -0.002,10e-4 c 0.314,-0.076 0.621,-0.072 0.919,0 h 0.001 c -0.073,-1.839 -0.08,-3.68 0,-5.524 -0.313,0.075 -0.619,0.072 -0.921,0 h 10e-4 -10e-4 c 0.045,0.858 0.068,1.718 0.071,2.578 -1.03,0.024 -2.059,0.026 -3.086,0 0.003,-0.86 0.026,-1.72 0.071,-2.578 h -10e-4 c -0.301,0.072 -0.608,0.075 -0.92,0 z m 7.981,0.26 h 0.051 c 1.194,0 2.071,0.813 2.071,2.513 0,1.698 -0.876,2.511 -2.069,2.511 -1.302,0 -2.067,-0.933 -2.067,-2.506 0,-1.78 0.943,-2.496 2.014,-2.518 z m -11.006,0.692 c 0.305,0.85 0.641,1.707 0.982,2.566 h -0.001 c -0.653,0.022 -1.305,0.023 -1.958,0 h -10e-4 c 0.399,-1.012 0.779,-1.99 0.979,-2.566 z m 21.837,4.429 c -0.289,0 -0.434,0.221 -0.434,0.458 0,0.28 0.224,0.424 0.501,0.424 0.2,0 0.418,-0.122 0.418,-0.452 0,-0.264 -0.208,-0.43 -0.485,-0.43 z"
         id="path5"
         style="fill:#ffffff;fill-opacity:1" />
    </g>
  </g>
</svg>
