<?xml version="1.0" encoding="UTF-8" standalone="no"?>
<svg
   width="62"
   height="62"
   x="0"
   y="0"
   version="1.1"
   xml:space="preserve"
   id="svg5"
   sodipodi:docname="yakyak.svg"
   inkscape:version="1.4 (e7c3feb100, 2024-10-09)"
   xmlns:inkscape="http://www.inkscape.org/namespaces/inkscape"
   xmlns:sodipodi="http://sodipodi.sourceforge.net/DTD/sodipodi-0.dtd"
   xmlns="http://www.w3.org/2000/svg"
   xmlns:svg="http://www.w3.org/2000/svg"><defs
   id="defs5" /><sodipodi:namedview
   id="namedview5"
   pagecolor="#ffffff"
   bordercolor="#000000"
   borderopacity="0.25"
   inkscape:showpageshadow="2"
   inkscape:pageopacity="0.0"
   inkscape:pagecheckerboard="0"
   inkscape:deskcolor="#d1d1d1"
   inkscape:zoom="11.75"
   inkscape:cx="32"
   inkscape:cy="32"
   inkscape:window-width="1920"
   inkscape:window-height="998"
   inkscape:window-x="0"
   inkscape:window-y="0"
   inkscape:window-maximized="1"
   inkscape:current-layer="svg5" />
 
 
 
 
 <g
   id="g5"
   transform="matrix(1.0076736,0,0,1,-0.80359057,-1)"><path
     style="opacity:0.2;stroke-width:0.98246"
     d="m 31.561278,4.982258 c -13.56489,0 -24.561402,10.468683 -24.561402,23.38246 0.00816,12.78952 9.825618,23.59221 23.258858,23.75873 0.24422,0.0118 0.326896,0.08022 0.325144,0.34386 -0.013,2.40303 -0.0062,4.828372 -0.0054,7.231812 3.18e-4,0.09324 0.008,0.18488 0.0134,0.30088 0.08096,-0.03166 0.13236,-0.05042 0.18123,-0.07252 4.698182,-2.12052 9.993186,-4.79999 13.83909,-8.15881 0.765258,-0.668176 1.497134,-1.368882 2.20136,-2.098086 0.301564,-0.31181 0.601286,-0.628728 0.903466,-0.940242 0.4668,-0.479526 0.871172,-1.015492 1.311216,-1.520496 0.508194,-0.582374 0.965116,-1.20107 1.41516,-1.82407 0.99492,-1.37695 1.883638,-2.812964 2.630436,-4.330484 0.377792,-0.767134 0.73702,-1.540372 1.055368,-2.331796 0.0108,-0.0149 0.02518,-0.02682 0.03196,-0.04296 0.867636,-2.166866 1.423018,-4.410214 1.718988,-6.710634 0.04982,-0.386362 0.06972,-0.775128 0.10394,-1.163214 0.0098,-0.1065 0.0185,-0.21307 0.02662,-0.319682 0.02432,-0.310302 0.06628,-0.619036 0.08258,-0.929494 0.0193,-0.37098 0.02364,-0.742172 0.02402,-1.11217 0.0018,-0.02684 0.0036,-0.0537 0.0052,-0.08062 l -0.0028,-0.04032 c -0.002,-0.454782 -0.0171,-0.908998 -0.04794,-1.362008 -4.98e-4,-0.0072 -0.0022,-0.01436 -0.0028,-0.02148 -0.0187,-0.228646 -0.04092,-0.457014 -0.06662,-0.685036 -0.03833,-0.378573 -0.08531,-0.756629 -0.143887,-1.133653 C 54.161342,13.58356 43.79997,4.9950134 31.561278,4.982258 Z"
     id="path1" /><path
     style="fill:#975cf6;stroke-width:0.98246"
     d="M 31.561278,4 C 17.996388,4 6.999876,14.468683 6.999876,27.38246 c 0.00816,12.78952 9.825618,23.59221 23.258858,23.75873 0.24422,0.0118 0.326896,0.08022 0.325144,0.34386 -0.013,2.40303 -0.0062,4.828372 -0.0054,7.231812 3.18e-4,0.09324 0.008,0.18488 0.0134,0.30088 0.08096,-0.03166 0.13236,-0.05042 0.18123,-0.07252 4.698182,-2.12052 9.993186,-4.79999 13.83909,-8.15881 0.765258,-0.668176 1.497134,-1.368882 2.20136,-2.098086 0.301564,-0.31181 0.601286,-0.628728 0.903466,-0.940242 0.4668,-0.479526 0.871172,-1.015492 1.311216,-1.520496 0.508194,-0.582374 0.965116,-1.20107 1.41516,-1.82407 0.99492,-1.37695 1.883638,-2.812964 2.630436,-4.330484 0.377792,-0.767134 0.73702,-1.540366 1.055368,-2.331796 0.0108,-0.0149 0.02518,-0.02682 0.03196,-0.04296 0.867636,-2.16687 1.423018,-4.410218 1.718988,-6.710638 0.04982,-0.386362 0.06972,-0.775128 0.10394,-1.163214 0.0098,-0.1065 0.0185,-0.21307 0.02662,-0.319682 0.02432,-0.310302 0.06628,-0.619036 0.08258,-0.929494 0.0193,-0.37098 0.02364,-0.742172 0.02402,-1.11217 0.0018,-0.02684 0.0036,-0.05368 0.0052,-0.08062 l -0.0028,-0.04032 c -0.002,-0.454782 -0.0171,-0.908998 -0.04794,-1.362008 -4.98e-4,-0.0072 -0.0022,-0.01435 -0.0028,-0.02148 -0.0187,-0.228646 -0.04092,-0.457014 -0.06662,-0.685036 -0.03834,-0.378574 -0.08534,-0.75662 -0.143899,-1.133654 C 54.161342,12.601309 43.79997,4.0127554 31.561278,4 Z"
     id="path2" /><path
     style="opacity:0.2;fill:#ffffff;stroke-width:0.98246"
     d="M 31.5614,4 C 17.99651,4 6.999998,14.469453 6.999998,27.383221 7.0000724,27.501577 7.01121,27.617429 7.017266,27.734373 7.3697587,15.113328 18.218944,4.982456 31.5614,4.982456 c 12.238682,0.012753 22.599449,8.601683 24.296599,20.140354 0.05862,0.377024 0.107427,0.753548 0.145837,1.132124 0.0257,0.228022 0.04661,0.458313 0.06521,0.686948 5.9e-4,0.0074 0.0034,0.01213 0.0039,0.01923 0.02266,0.331796 0.02837,0.664867 0.03456,0.997805 0.0039,-0.1651 0.01135,-0.330484 0.01152,-0.495067 0.0018,-0.02684 0.0023,-0.05371 0.0039,-0.08063 l -0.0039,-0.04217 c -0.002,-0.454781 -0.01509,-0.909385 -0.04607,-1.362398 -4.98e-4,-0.0072 -0.0033,-0.01193 -0.0039,-0.01918 -0.0187,-0.228645 -0.03951,-0.458936 -0.06521,-0.686958 -0.03841,-0.378584 -0.08725,-0.755098 -0.145847,-1.132132 C 54.160849,12.601689 43.800082,4.0127554 31.5614,4 Z"
     id="path3" /><path
     style="opacity:0.2;stroke-width:0.98246"
     d="m 19.77193,14.80702 8.82136,15.7193 V 44.2807 h 5.880918 V 30.52632 l 8.876668,-15.7193 h -6.947418 l -4.842058,8.8421 -4.842048,-8.8421 z"
     id="path4" /><path
     style="fill:#ffffff;stroke-width:0.98246"
     d="m 19.77193,13.82456 8.82136,15.7193 v 13.75439 h 5.880918 V 29.54386 l 8.876668,-15.7193 H 36.403458 L 31.5614,22.66667 26.719352,13.82456 Z"
     id="path5" /></g>
</svg>
