<?xml version="1.0" encoding="UTF-8" standalone="no"?>
<svg
   width="62"
   height="62"
   viewBox="0 0 62 62"
   fill="none"
   version="1.1"
   id="svg3"
   sodipodi:docname="yandex-disk.svg"
   inkscape:version="1.4 (unknown)"
   xmlns:inkscape="http://www.inkscape.org/namespaces/inkscape"
   xmlns:sodipodi="http://sodipodi.sourceforge.net/DTD/sodipodi-0.dtd"
   xmlns:xlink="http://www.w3.org/1999/xlink"
   xmlns="http://www.w3.org/2000/svg"
   xmlns:svg="http://www.w3.org/2000/svg">
  <sodipodi:namedview
     id="namedview3"
     pagecolor="#ffffff"
     bordercolor="#000000"
     borderopacity="0.25"
     inkscape:showpageshadow="2"
     inkscape:pageopacity="0.0"
     inkscape:pagecheckerboard="0"
     inkscape:deskcolor="#d1d1d1"
     inkscape:zoom="8.3085047"
     inkscape:cx="33.58005"
     inkscape:cy="38.033318"
     inkscape:window-width="1920"
     inkscape:window-height="998"
     inkscape:window-x="0"
     inkscape:window-y="0"
     inkscape:window-maximized="1"
     inkscape:current-layer="svg3" />
  <g
     id="g3"
     transform="matrix(1,0,0,1.1015439,-0.20282081,-0.95293905)">
    <path
       opacity="0.4"
       fill-rule="evenodd"
       clip-rule="evenodd"
       d="m 36.212057,8.7513386 c -2.44591,-0.803473 -5.1054,-0.69327 -7.633168,-0.426627 -6.075791,0.675511 -11.646854,4.2520644 -15.113204,9.2364884 -0.964845,1.380647 -1.688192,2.895441 -2.411352,4.409969 -0.742412,1.554525 -1.4846106,3.108783 -2.4877456,4.517187 -0.657193,0.993776 -1.454187,1.875828 -2.251501,2.758148 -0.785661,0.86952 -1.571669,1.739307 -2.224543,2.716818 -1.699391,2.495771 -3.299244,5.20139 -3.761415,8.233913 -0.0081,0.07813 -0.01643,0.156785 -0.02485,0.235978 -0.121323,1.140696 -0.252031,2.36965 0.369699,3.390356 l 0.05687,-0.419428 c 0.117322,-1.308413 0.383965,-2.61656 1.02036,-3.779121 1.532313,-2.94373 3.789866,-5.439502 6.203885,-7.686496 5.1173716,-4.639309 11.0110986,-8.349903 17.1782416,-11.431727 0,0.0066 2.66e-4,0.0132 5.33e-4,0.01971 5.084334,-2.47932 10.541435,-4.449913 16.014267,-5.847545 4.688371,-1.215489 9.540194,-2.155936 14.395483,-1.668994 1.575056,0.168118 3.016524,0.828697 4.451593,1.486317 0.50022,0.229339 0.999908,0.458305 1.504129,0.665913 l 0.297839,0.126361 c -0.623943,-1.335397 -1.988618,-2.033147 -3.222105,-2.663862 -0.03013,-0.01533 -0.06,-0.03064 -0.08986,-0.04592 -4.358001,-1.914332 -9.202357,-2.033281 -13.86913,-1.906892 -2.62136,0.09276 -5.103,-0.7610774 -7.556109,-1.6050004 -0.288773,-0.09943 -0.577547,-0.198702 -0.865787,-0.296266 0.0059,-0.0064 0.012,-0.01285 0.01787,-0.01928 z"
       id="path1"
       style="stroke-width:0.266642;fill:#3485fd;fill-opacity:1" />
    <path
       fill-rule="evenodd"
       clip-rule="evenodd"
       d="m 52.009544,14.249716 c -8.148587,0.423081 -16.030532,2.993513 -23.425322,6.310543 -7.746838,3.56938 -15.22706,8.070301 -21.1713956,14.259868 -2.147377,2.321654 -4.319605,4.980877 -4.717808,8.230447 -0.273735,2.087009 1.183891,3.900176 2.922399,4.849422 1.183892,0.565282 2.424685,1.002575 3.708114,1.279883 5.6706006,1.31188 11.5900586,0.622343 17.2074116,-0.632742 11.760523,-2.705619 22.753384,-9.019708 30.745453,-18.09621 2.805076,-3.327696 5.340044,-7.46945 4.867287,-12.002395 -0.284507,-1.002575 -0.817791,-2.033601 -1.823833,-2.470894 -2.00515,-0.885252 -4.174018,-1.35105 -6.33542,-1.653262 -0.07546,-0.0045 -0.150919,-0.009 -0.226379,-0.01355 -0.585013,-0.03536 -1.167627,-0.07055 -1.750507,-0.06112 z M 25.857271,26.55795 c 7.508646,-3.903643 15.59324,-6.950458 24.037,-7.945913 2.712552,-0.337756 5.506963,-0.06391 8.045397,0.970658 l 0.06053,0.380392 c -0.298639,3.029056 -2.143804,5.606686 -4.03883,7.874746 -6.363684,7.217206 -14.828776,12.439928 -23.940742,15.422588 -5.990652,1.795569 -12.35095,3.007725 -18.604618,2.083276 -1.5180736,-0.273575 -3.0148166,-0.718068 -4.3551476,-1.496663 -0.271468,-1.357476 0.575334,-2.557899 1.336011,-3.635934 0.09605,-0.136254 0.190729,-0.270375 0.281628,-0.402896 C 13.232749,34.073795 19.500628,30.027765 25.857273,26.55795 Z m 9.887095,-1.063103 c 2.510171,-0.899384 5.17286,-1.546525 7.853682,-1.564124 1.649449,0.032 3.974569,0.636209 3.978302,2.680555 -0.80366,2.239795 -2.417645,4.070828 -4.284141,5.50003 -4.902751,3.82525 -10.615829,6.666057 -16.705938,7.995535 -2.207798,0.54395 -4.525906,0.799927 -6.765701,0.277308 -0.895918,-0.390898 -1.763412,-1.230021 -1.59276,-2.300056 0.362633,-2.126206 1.998057,-3.736725 3.583672,-5.066203 4.106317,-3.35276 8.817086,-6.072511 13.932884,-7.523045 z"
       id="path2"
       style="fill:url(#linearGradient5)" />
  </g>
  <defs
     id="defs3">
    <linearGradient
       id="linearGradient3"
       inkscape:collect="always">
      <stop
         style="stop-color:#3485fd;stop-opacity:1"
         offset="0"
         id="stop4" />
      <stop
         style="stop-color:#d5bdfb;stop-opacity:1;"
         offset="1"
         id="stop5" />
    </linearGradient>
    <linearGradient
       id="paint0_linear_54_1339"
       x1="132.87199"
       y1="206.612"
       x2="132.87199"
       y2="72.954102"
       gradientUnits="userSpaceOnUse"
       gradientTransform="matrix(0.26664226,0,0,0.26664226,-2.9968876,-5.2044774)">
      <stop
         stop-color="#5570FF"
         id="stop2" />
      <stop
         offset="1"
         stop-color="#4DD3FF"
         id="stop3" />
    </linearGradient>
    <linearGradient
       inkscape:collect="always"
       xlink:href="#linearGradient3"
       id="linearGradient5"
       x1="35.038269"
       y1="49.887199"
       x2="34.949326"
       y2="17.964371"
       gradientUnits="userSpaceOnUse" />
  </defs>
</svg>
