<?xml version="1.0" encoding="UTF-8" standalone="no"?>
<svg
   width="62"
   height="62"
   version="1"
   id="svg5"
   sodipodi:docname="yaourtgui.svg"
   inkscape:version="1.4 (e7c3feb100, 2024-10-09)"
   xmlns:inkscape="http://www.inkscape.org/namespaces/inkscape"
   xmlns:sodipodi="http://sodipodi.sourceforge.net/DTD/sodipodi-0.dtd"
   xmlns="http://www.w3.org/2000/svg"
   xmlns:svg="http://www.w3.org/2000/svg">
  <defs
     id="defs5" />
  <sodipodi:namedview
     id="namedview5"
     pagecolor="#ffffff"
     bordercolor="#000000"
     borderopacity="0.25"
     inkscape:showpageshadow="2"
     inkscape:pageopacity="0.0"
     inkscape:pagecheckerboard="0"
     inkscape:deskcolor="#d1d1d1"
     inkscape:zoom="11.75"
     inkscape:cx="32"
     inkscape:cy="32"
     inkscape:window-width="1920"
     inkscape:window-height="998"
     inkscape:window-x="0"
     inkscape:window-y="0"
     inkscape:window-maximized="1"
     inkscape:current-layer="svg5" />
  <g
     id="g5"
     transform="matrix(0.98214286,0,0,0.98245614,-0.42857152,-0.92982455)">
    <rect
       style="opacity:0.2"
       width="56"
       height="56"
       x="4"
       y="5"
       rx="28"
       ry="28"
       id="rect1" />
    <rect
       style="fill:#3485fd"
       width="56"
       height="56"
       x="4"
       y="4"
       rx="28"
       ry="28"
       id="rect2" />
    <path
       style="opacity:0.2"
       d="m 16.958984,16.958688 a 4.0004,4.0004 0 0 0 -2.787109,6.869141 L 28,37.655954 v 14.34375 a 4.0004,4.0004 0 0 0 0.01367,0.400391 4.0004,4.0004 0 0 0 0.279297,1.162109 4.0004,4.0004 0 0 0 0.611328,1.027344 4.0004,4.0004 0 0 0 0.886719,0.802734 4.0004,4.0004 0 0 0 0.34375,0.203125 4.0004,4.0004 0 0 0 0.740234,0.300781 4.0004,4.0004 0 0 0 0.785156,0.146485 4.0004,4.0004 0 0 0 1.19336,-0.07813 4.0004,4.0004 0 0 0 1.117187,-0.427735 4.0004,4.0004 0 0 0 0.337891,-0.21289 4.0004,4.0004 0 0 0 0.314453,-0.248047 4.0004,4.0004 0 0 0 0.775391,-0.908203 4.0004,4.0004 0 0 0 0.193359,-0.351563 A 4.0004,4.0004 0 0 0 35.75,53.448923 4.0004,4.0004 0 0 0 35.871094,53.068063 4.0004,4.0004 0 0 0 36,51.999704 V 37.655954 L 49.828125,23.827829 a 4.0004,4.0004 0 1 0 -5.65625,-5.65625 L 32,30.343454 19.828125,18.171579 a 4.0004,4.0004 0 0 0 -2.869141,-1.212891 z"
       id="path2" />
    <path
       style="fill:none;stroke:#23dca5;stroke-width:8;stroke-linecap:round;stroke-linejoin:round;stroke-opacity:1"
       d="M 47,20 32,35 V 51 M 17,20 32,35 v 16"
       id="path3" />
    <path
       style="opacity:0.2;fill:#ffffff"
       d="M 32,4 C 16.488,4 4,16.488 4,32 4,32.11345 4.01128,32.224113 4.017578,32.335938 4.3691213,17.134181 16.710728,5 32,5 47.289272,5 59.630879,17.134181 59.982422,32.335938 59.98872,32.224113 60,32.11345 60,32 60,16.488 47.512,4 32,4 Z"
       id="path4" />
    <path
       style="opacity:0.2;fill:#ffffff"
       d="m 46.962891,15.943359 a 4.0004,4.0004 0 0 0 -2.791016,1.228516 L 32,29.34375 19.828125,17.171875 a 4.0004,4.0004 0 0 0 -2.869141,-1.212891 4.0004,4.0004 0 0 0 -3.966796,4.521485 4.0004,4.0004 0 0 1 3.966796,-3.521485 4.0004,4.0004 0 0 1 2.869141,1.212891 L 32,30.34375 44.171875,18.171875 a 4.0004,4.0004 0 0 1 6.851563,2.271484 4.0004,4.0004 0 0 0 -4.060547,-4.5 z"
       id="path5" />
  </g>
</svg>
