<?xml version="1.0" encoding="UTF-8" standalone="no"?>
<svg
   width="62"
   height="62"
   version="1.1"
   id="svg6"
   sodipodi:docname="preferences-system-network-server-nis.svg"
   inkscape:version="1.4 (e7c3feb100, 2024-10-09)"
   xmlns:inkscape="http://www.inkscape.org/namespaces/inkscape"
   xmlns:sodipodi="http://sodipodi.sourceforge.net/DTD/sodipodi-0.dtd"
   xmlns="http://www.w3.org/2000/svg"
   xmlns:svg="http://www.w3.org/2000/svg">
  <defs
     id="defs6" />
  <sodipodi:namedview
     id="namedview6"
     pagecolor="#ffffff"
     bordercolor="#000000"
     borderopacity="0.25"
     inkscape:showpageshadow="2"
     inkscape:pageopacity="0.0"
     inkscape:pagecheckerboard="0"
     inkscape:deskcolor="#d1d1d1"
     inkscape:zoom="8.3306018"
     inkscape:cx="31.150211"
     inkscape:cy="73.824198"
     inkscape:window-width="1920"
     inkscape:window-height="994"
     inkscape:window-x="0"
     inkscape:window-y="0"
     inkscape:window-maximized="1"
     inkscape:current-layer="svg6"
     showgrid="false">
    <inkscape:grid
       id="grid1"
       units="px"
       originx="0"
       originy="0"
       spacingx="1"
       spacingy="1"
       empcolor="#0099e5"
       empopacity="0.30196078"
       color="#0099e5"
       opacity="0.14901961"
       empspacing="5"
       enabled="true"
       visible="false" />
  </sodipodi:namedview>
  <g
     id="g6"
     transform="translate(-3,-3)">
    <rect
       x="6"
       y="6"
       width="56"
       height="56"
       rx="5"
       ry="5"
       style="fill:#434a56;fill-opacity:1;stroke-width:1.07686;paint-order:stroke markers fill"
       id="rect1" />
    <path
       d="M 12.461534,15.692318 H 38.307702 V 17.84616 H 12.461534 Z"
       id="path1"
       style="fill:#ffffff;fill-opacity:1" />
    <circle
       cx="45.846199"
       cy="16.769222"
       r="2.1538472"
       id="circle1"
       style="stroke-width:1.07686;fill:#72d406;fill-opacity:1" />
    <circle
       cx="54.461586"
       cy="16.769222"
       r="2.1538472"
       id="circle2"
       style="stroke-width:1.07686;fill:#72d406;fill-opacity:1" />
    <path
       d="m 12.461534,32.92309 h 25.846168 v 2.153844 H 12.461534 Z"
       id="path2"
       style="stroke-width:1.07686;fill:#ffffff;fill-opacity:1" />
    <circle
       cx="45.846199"
       cy="34"
       r="2.1538472"
       id="circle3"
       style="stroke-width:1.07686;fill:#72d406;fill-opacity:1" />
    <circle
       cx="54.461586"
       cy="34"
       r="2.1538472"
       id="circle4"
       style="stroke-width:1.07686;fill:#72d406;fill-opacity:1" />
    <path
       d="m 12.461534,50.153864 h 27.846 v 2.320493 h -27.846 z"
       id="path4"
       style="fill:#ffffff;fill-opacity:1;stroke-width:1.16021" />
    <rect
       x="6"
       y="23.230778"
       width="56"
       height="3.2307711"
       rx="0"
       ry="0"
       fill-rule="evenodd"
       opacity="0.5"
       style="stroke-width:1.07686;paint-order:fill markers stroke;fill:#000000;fill-opacity:1"
       id="rect4" />
    <rect
       x="6"
       y="40.461555"
       width="56"
       height="3.2307711"
       rx="0"
       ry="0"
       fill-rule="evenodd"
       opacity="0.5"
       style="stroke-width:1.07686;paint-order:fill markers stroke;fill:#000000;fill-opacity:1"
       id="rect5" />
    <circle
       cx="45.846199"
       cy="51.230782"
       r="2.1538472"
       id="circle5"
       style="stroke-width:1.07686;fill:#72d406;fill-opacity:1" />
    <circle
       cx="54.461586"
       cy="51.230782"
       r="2.1538472"
       id="circle6"
       style="stroke-width:1.07686;fill:#72d406;fill-opacity:1" />
  </g>
  <circle
     cx="46.75"
     cy="46.75"
     r="11.25"
     style="fill:#8d5fd3;fill-rule:evenodd;stroke-width:0.999999;paint-order:fill markers stroke"
     id="circle24-7" />
  <path
     d="m 50.500023,46.749991 c -1.03875,0 -1.874993,0.83625 -1.874993,1.875001 v 1.874993 h -1.249984 v 3.750006 h 6.249974 v -3.750006 h -1.249999 v -1.874993 c 0,-1.038751 -0.836251,-1.875001 -1.874998,-1.875001 z m 0,1.249995 c 0.346281,0 0.624998,0.278741 0.624998,0.625006 v 1.874993 h -1.249999 v -1.874993 c 0,-0.346243 0.27874,-0.625006 0.625001,-0.625006 z m -4.374984,0 a 6.2500008,5.6249988 0 0 0 -6.250017,5.625004 6.2500008,5.6249988 0 0 0 0.04112,0.625001 h 6.208759 V 52.999992 H 41.181082 A 4.9999987,4.3749986 0 0 1 46.12486,49.24999 Z m 0,-8.749985 a 3.7500015,3.7500015 0 0 0 -3.750014,3.749991 3.7500015,3.7500015 0 0 0 3.750014,3.749999 3.7500015,3.7500015 0 0 0 3.749983,-3.749999 3.7500015,3.7500015 0 0 0 -3.749983,-3.749991 z m 0,1.25 a 2.5000005,2.5000005 0 0 1 2.499991,2.499991 2.5000005,2.5000005 0 0 1 -2.499991,2.499995 2.5000005,2.5000005 0 0 1 -2.499999,-2.499995 2.5000005,2.5000005 0 0 1 2.499999,-2.499991 z"
     fill="#ffffff"
     id="path28-5"
     style="stroke-width:0.999999" />
</svg>
