<?xml version="1.0" encoding="UTF-8" standalone="no"?>
<svg
   width="62"
   height="62"
   version="1.1"
   id="svg13"
   sodipodi:docname="yast-installation.svg"
   inkscape:version="1.4 (e7c3feb100, 2024-10-09)"
   xmlns:inkscape="http://www.inkscape.org/namespaces/inkscape"
   xmlns:sodipodi="http://sodipodi.sourceforge.net/DTD/sodipodi-0.dtd"
   xmlns:xlink="http://www.w3.org/1999/xlink"
   xmlns="http://www.w3.org/2000/svg"
   xmlns:svg="http://www.w3.org/2000/svg">
  <defs
     id="defs13">
    <linearGradient
       id="linearGradient3"
       inkscape:collect="always">
      <stop
         style="stop-color:#b8c6d7;stop-opacity:1;"
         offset="0"
         id="stop3" />
      <stop
         style="stop-color:#eff2f6;stop-opacity:1;"
         offset="1"
         id="stop4" />
    </linearGradient>
    <linearGradient
       id="linearGradient1"
       inkscape:collect="always">
      <stop
         style="stop-color:#b7c6cd;stop-opacity:1;"
         offset="0"
         id="stop1" />
      <stop
         style="stop-color:#eff2f6;stop-opacity:1;"
         offset="1"
         id="stop2" />
    </linearGradient>
    <linearGradient
       inkscape:collect="always"
       xlink:href="#linearGradient1"
       id="linearGradient2"
       x1="31"
       y1="42.298248"
       x2="30.999998"
       y2="3"
       gradientUnits="userSpaceOnUse" />
    <linearGradient
       inkscape:collect="always"
       xlink:href="#linearGradient3"
       id="linearGradient4"
       x1="-8.870326"
       y1="49.581116"
       x2="33.749991"
       y2="49.666678"
       gradientUnits="userSpaceOnUse" />
    <linearGradient
       inkscape:collect="always"
       xlink:href="#linearGradient1"
       id="linearGradient6"
       x1="7.4285688"
       y1="49.666679"
       x2="16.267857"
       y2="49.666679"
       gradientUnits="userSpaceOnUse" />
    <linearGradient
       inkscape:collect="always"
       xlink:href="#linearGradient3"
       id="linearGradient9"
       x1="26.089283"
       y1="49.666679"
       x2="34.92857"
       y2="49.666679"
       gradientUnits="userSpaceOnUse" />
  </defs>
  <sodipodi:namedview
     id="namedview13"
     pagecolor="#ffffff"
     bordercolor="#000000"
     borderopacity="0.25"
     inkscape:showpageshadow="2"
     inkscape:pageopacity="0.0"
     inkscape:pagecheckerboard="0"
     inkscape:deskcolor="#d1d1d1"
     inkscape:zoom="11.6875"
     inkscape:cx="31.957219"
     inkscape:cy="32"
     inkscape:window-width="1920"
     inkscape:window-height="994"
     inkscape:window-x="0"
     inkscape:window-y="0"
     inkscape:window-maximized="1"
     inkscape:current-layer="svg13" />
  <rect
     style="opacity:0.2;stroke-width:0.982303"
     width="55"
     height="16.701752"
     x="3.5"
     y="42.298248"
     rx="2.7499995"
     ry="2.7508771"
     id="rect1" />
  <path
     style="fill:url(#linearGradient2);fill-opacity:1;stroke-width:0.982303"
     d="m 17.495534,3 h 27.008927 c 4.488885,0 8.102678,3.6395092 8.102678,8.129826 v 33.77193 c 0,4.490318 -3.613793,8.105264 -8.102678,8.105264 H 17.495534 c -4.488884,0 -8.1026773,-3.614946 -8.1026773,-8.105264 V 11.129826 C 9.3928567,6.6395092 13.00665,3 17.495534,3 Z"
     id="path1" />
  <path
     style="opacity:0.1;stroke-width:1.6624"
     d="m 19.70536,26.578954 h 11.294638 11.294641 l -5.647321,5.403508 -5.64732,5.403508 -5.647321,-5.403508 z"
     id="path2" />
  <path
     style="fill:#008080;stroke-width:1.6624"
     d="m 19.70536,25.596492 h 11.294638 11.294641 l -5.647321,5.40351 -5.64732,5.40351 -5.647321,-5.40351 z"
     id="path3" />
  <rect
     style="fill:#008080;stroke-width:0.982303"
     width="5.8928576"
     height="5.8947382"
     x="25.107138"
     y="7.912281"
     id="rect3" />
  <rect
     style="fill:#008080;stroke-width:0.982303"
     width="5.8928576"
     height="5.8947382"
     x="31"
     y="7.912281"
     id="rect4" />
  <rect
     style="fill:#008080;stroke-width:0.982303"
     width="5.8928576"
     height="5.8947382"
     x="25.107138"
     y="13.807016"
     id="rect5" />
  <rect
     style="fill:#008080;stroke-width:0.982303"
     width="5.8928576"
     height="5.8947382"
     x="31"
     y="13.807016"
     id="rect6" />
  <rect
     style="fill:#008080;stroke-width:0.982303"
     width="5.8928576"
     height="5.8947382"
     x="25.107138"
     y="19.701752"
     id="rect7" />
  <rect
     style="fill:#008080;stroke-width:0.982303"
     width="5.8928576"
     height="5.8947382"
     x="31"
     y="19.701752"
     id="rect8" />
  <rect
     style="fill:#008080;stroke-width:0.982303"
     width="55"
     height="16.701752"
     x="3.5"
     y="41.315796"
     rx="2.7499995"
     ry="2.7508771"
     id="rect9" />
  <rect
     style="opacity:0.2;stroke-width:0.982303"
     width="21.999996"
     height="0.98245621"
     x="11.749995"
     y="51.140358"
     id="rect10" />
  <path
     style="opacity:0.5;stroke-width:0.982303"
     d="m 50.151783,45.245616 a 4.4196426,4.421053 0 0 0 -4.156842,2.94737 H 31.39324 v 2.947368 h 14.601701 a 4.4196426,4.421053 0 0 0 4.156842,2.94737 4.4196426,4.421053 0 0 0 4.419643,-4.421054 4.4196426,4.421053 0 0 0 -4.419643,-4.421054 z"
     id="path10" />
  <ellipse
     style="opacity:0.2;stroke-width:0.982303"
     cx="11.848212"
     cy="50.649132"
     id="circle10"
     rx="4.4196434"
     ry="4.4210539" />
  <ellipse
     style="fill:url(#linearGradient6);stroke-width:0.982303"
     cx="11.848212"
     cy="49.666679"
     id="circle11"
     rx="4.4196434"
     ry="4.4210539" />
  <rect
     style="fill:url(#linearGradient4);stroke-width:0.982303"
     width="21.999996"
     height="2.9473691"
     x="11.749995"
     y="48.192993"
     id="rect11" />
  <ellipse
     style="opacity:0.2;stroke-width:0.982303"
     cx="30.508926"
     cy="50.649132"
     id="circle12"
     rx="4.4196434"
     ry="4.4210539" />
  <ellipse
     style="fill:url(#linearGradient9);stroke-width:0.982303"
     cx="30.508926"
     cy="49.666679"
     id="circle13"
     rx="4.4196434"
     ry="4.4210539" />
  <path
     style="opacity:0.2;fill:#ffffff;stroke-width:0.982303"
     d="M 17.495534,3 C 13.00665,3 9.3928567,6.6398928 9.3928567,11.130211 v 0.982454 c 0,-4.490316 3.6137933,-8.130209 8.1026773,-8.130209 h 27.008927 c 4.488885,0 8.102678,3.639893 8.102678,8.130209 V 11.130211 C 52.607139,6.6398928 48.993346,3 44.504461,3 Z"
     id="path13" />
</svg>
