<?xml version="1.0" encoding="UTF-8" standalone="no"?>
<svg
   clip-rule="evenodd"
   fill-rule="evenodd"
   stroke-linejoin="round"
   stroke-miterlimit="2"
   viewBox="0 0 62 62"
   version="1.1"
   id="svg2"
   sodipodi:docname="yast-lan.svg"
   width="62"
   height="62"
   inkscape:version="1.4 (e7c3feb100, 2024-10-09)"
   xmlns:inkscape="http://www.inkscape.org/namespaces/inkscape"
   xmlns:sodipodi="http://sodipodi.sourceforge.net/DTD/sodipodi-0.dtd"
   xmlns="http://www.w3.org/2000/svg"
   xmlns:svg="http://www.w3.org/2000/svg">
  <defs
     id="defs2">
    <linearGradient
       id="b"
       x2="1"
       gradientTransform="matrix(32.999997,0,0,32.666663,14.499998,413.65728)"
       gradientUnits="userSpaceOnUse">
      <stop
         stop-color="#dce2ff"
         offset="0"
         id="stop3" />
      <stop
         stop-color="#f8feff"
         offset="1"
         id="stop4" />
    </linearGradient>
  </defs>
  <sodipodi:namedview
     id="namedview2"
     pagecolor="#ffffff"
     bordercolor="#000000"
     borderopacity="0.25"
     inkscape:showpageshadow="2"
     inkscape:pageopacity="0.0"
     inkscape:pagecheckerboard="0"
     inkscape:deskcolor="#d1d1d1"
     inkscape:zoom="7.8541667"
     inkscape:cx="36.859416"
     inkscape:cy="27.246684"
     inkscape:window-width="1920"
     inkscape:window-height="994"
     inkscape:window-x="0"
     inkscape:window-y="0"
     inkscape:window-maximized="1"
     inkscape:current-layer="svg2" />
  <linearGradient
     id="a"
     x2="1"
     gradientTransform="matrix(0,-43.9677,43.9677,0,185.166,45.7586)"
     gradientUnits="userSpaceOnUse">
    <stop
       stop-color="#028353"
       offset="0"
       id="stop1" />
    <stop
       stop-color="#4bd694"
       offset="1"
       id="stop2" />
  </linearGradient>
  <g
     id="g3"
     transform="matrix(1.2281779,0,0,1.2281779,1.4733747,1.4819719)">
    <g
       id="g2">
      <circle
         cx="24.041"
         cy="24.034"
         r="22.798"
         fill="url(#a)"
         id="circle2"
         style="fill:url(#a)" />
    </g>
  </g>
  <path
     d="m 46.984963,36.177668 c -0.344145,-0.340668 -0.761359,-0.511 -1.25282,-0.511 h -1.76668 v -3.5 c 0,-0.631173 -0.234533,-1.178336 -0.70007,-1.640336 -0.466714,-0.462 -1.019463,-0.693 -1.658252,-0.693 h -9.428572 v -3.5 h 1.76786 c 0.491458,0 0.908672,-0.170332 1.252819,-0.509837 0.342966,-0.340661 0.515038,-0.753661 0.515038,-1.240163 V 18.75 c 0,-0.485332 -0.172072,-0.899505 -0.515038,-1.239 C 34.855101,17.170332 34.437887,17 33.946429,17 h -5.892858 c -0.491465,0 -0.908679,0.170332 -1.251641,0.511 -0.344144,0.339495 -0.516216,0.753668 -0.516216,1.239 v 5.833332 c 0,0.486502 0.172072,0.899502 0.516216,1.240163 0.342962,0.339505 0.760176,0.509837 1.251641,0.509837 h 1.76786 v 3.5 h -9.428576 c -0.638785,0 -1.190355,0.231 -1.657069,0.693 -0.466716,0.462 -0.700073,1.009163 -0.700073,1.640336 v 3.5 h -1.767856 c -0.491468,0 -0.908682,0.170332 -1.25282,0.511 C 14.672069,36.517166 14.5,36.931332 14.5,37.416668 V 43.25 c 0,0.486505 0.172069,0.899505 0.515037,1.240166 C 15.359175,44.829668 15.776389,45 16.267857,45 h 5.892854 c 0.49147,0 0.908683,-0.170332 1.251644,-0.509834 C 23.7565,44.149505 23.928568,43.736505 23.928568,43.25 v -5.833332 c 0,-0.485336 -0.172068,-0.898336 -0.516213,-1.239 -0.342961,-0.340668 -0.760174,-0.511 -1.251644,-0.511 h -1.767856 v -3.5 h 9.428576 v 3.5 h -1.76786 c -0.491465,0 -0.908679,0.170332 -1.252816,0.511 -0.342969,0.339498 -0.515041,0.753664 -0.515041,1.239 V 43.25 c 0,0.486505 0.172072,0.899505 0.515041,1.240166 C 27.144892,44.829668 27.562106,45 28.053571,45 h 5.892858 c 0.491458,0 0.908672,-0.170332 1.252819,-0.509834 0.342966,-0.340661 0.515038,-0.753661 0.515038,-1.240166 v -5.833332 c 0,-0.485336 -0.172072,-0.898336 -0.515038,-1.239 -0.344147,-0.340668 -0.761361,-0.511 -1.252819,-0.511 h -1.76786 v -3.5 h 9.428572 v 3.5 h -1.767856 c -0.490286,0 -0.908679,0.170332 -1.251644,0.511 -0.344141,0.340664 -0.516213,0.753664 -0.516213,1.239 V 43.25 c 0,0.486505 0.172072,0.899505 0.516213,1.240166 C 38.930606,44.829668 39.348999,45 39.839285,45 h 5.892858 c 0.491461,0 0.908675,-0.170332 1.25282,-0.509834 C 47.327927,44.149505 47.5,43.736505 47.5,43.25 v -5.833332 c 0,-0.485336 -0.172073,-0.899502 -0.515037,-1.239 z"
     fill-rule="nonzero"
     id="path4"
     style="fill:#f2f2f2;fill-opacity:1" />
</svg>
