<?xml version="1.0" encoding="UTF-8" standalone="no"?>
<svg
   clip-rule="evenodd"
   fill-rule="evenodd"
   stroke-linejoin="round"
   stroke-miterlimit="2"
   viewBox="0 0 62 62"
   version="1.1"
   id="svg2"
   sodipodi:docname="yast.svg"
   width="62"
   height="62"
   inkscape:version="1.4 (e7c3feb100, 2024-10-09)"
   xmlns:inkscape="http://www.inkscape.org/namespaces/inkscape"
   xmlns:sodipodi="http://sodipodi.sourceforge.net/DTD/sodipodi-0.dtd"
   xmlns="http://www.w3.org/2000/svg"
   xmlns:svg="http://www.w3.org/2000/svg">
  <defs
     id="defs2" />
  <sodipodi:namedview
     id="namedview2"
     pagecolor="#ffffff"
     bordercolor="#000000"
     borderopacity="0.25"
     inkscape:showpageshadow="2"
     inkscape:pageopacity="0.0"
     inkscape:pagecheckerboard="0"
     inkscape:deskcolor="#d1d1d1"
     inkscape:zoom="7.8541667"
     inkscape:cx="36.859416"
     inkscape:cy="16.933687"
     inkscape:window-width="1920"
     inkscape:window-height="994"
     inkscape:window-x="0"
     inkscape:window-y="0"
     inkscape:window-maximized="1"
     inkscape:current-layer="svg2" />
  <linearGradient
     id="a"
     x2="1"
     gradientTransform="matrix(0,-43.9677,43.9677,0,185.166,45.7586)"
     gradientUnits="userSpaceOnUse">
    <stop
       stop-color="#028353"
       offset="0"
       id="stop1" />
    <stop
       stop-color="#4bd694"
       offset="1"
       id="stop2" />
  </linearGradient>
  <g
     id="g3"
     transform="matrix(1.2281779,0,0,1.2281779,1.4733747,1.4819719)">
    <g
       id="g2">
      <circle
         cx="24.041"
         cy="24.034"
         r="22.798"
         fill="url(#a)"
         id="circle2"
         style="fill:url(#a)" />
      <path
         d="m 14.565,11.001 1.193,2.802 2.918,3.332 c -0.946,0.149 -1.788,0.403 -2.581,0.707 -0.448,0.216 -0.876,0.448 -1.115,0.921 l -0.727,1.288 c -0.234,0.473 -0.73,0.551 -1.217,0.935 l -1.991,1.555 c 0.396,0.192 0.752,0.444 1.079,0.743 -0.352,-0.194 -0.694,-0.398 -1.104,-0.506 -0.286,-0.045 -0.568,-0.042 -0.828,0.166 -0.234,0.194 -0.208,0.523 -0.16,0.83 0.09,0.474 0.487,0.896 0.938,1.214 0.42,0.188 0.807,0.092 1.178,-0.127 0.322,-0.299 0.454,-0.823 0.414,-1.54 0.232,-0.044 0.181,1.339 0.222,1.181 0.022,-0.084 3.414,-2.08 4.312,-2.291 0.916,-0.236 2.345,-0.012 3.379,-0.334 0.642,-0.206 1.112,-0.394 1.51,-1.006 l -0.32,0.68 c -0.24,0.387 -0.615,0.671 -1.053,0.797 l -0.575,6.127 -0.012,5.925 -1.002,1.494 0.682,-0.024 0.727,-0.961 -0.535,1.15 c 0,0 3.497,-0.234 3.497,-0.209 0,0.025 -1.079,-7.086 -1.079,-7.086 0,0 1.169,-1.306 1.193,-1.324 0.025,-0.02 4.274,1.433 4.274,1.433 l -0.654,-0.771 -0.538,-0.297 0.652,0.215 c 0,0 1.516,1.836 1.522,1.862 0.007,0.025 0.271,-0.33 0.271,-0.33 l -1.587,6.439 2.108,0.719 -0.066,-0.984 0.504,1.221 0.775,0.052 -0.524,-1.273 0.912,1.109 0.502,-0.1 -0.903,-1.3 1.054,-6.273 -1.215,-0.959 -0.941,-1.261 0.891,0.907 -0.966,-1.375 -0.076,-1.818 0.338,1.565 0.366,-1.286 -0.19,1.502 0.702,1.54 1.404,1.046 -0.026,0.24 1.105,-0.405 0.714,-1.613 0.061,-0.999 0.103,1.013 c 0,0 -0.614,1.487 -0.614,1.538 0,0.05 0.802,-0.758 0.802,-0.758 l -0.88,1.035 1.406,2.536 0.476,2.765 0.35,-0.251 -0.075,0.1 -1.128,1.474 0.74,-0.161 0.287,-0.455 -0.126,0.554 0.264,0.014 -0.061,0.605 0.551,-0.493 0.411,0.128 0.128,-0.735 v 0.747 l 0.387,-0.077 0.187,0.631 0.276,-0.795 L 38,35.636 c -0.514,-3.903 -1.195,-7.307 -1.377,-11.21 -0.02,-0.743 -0.644,-2.058 -1.317,-2.917 -0.785,-0.905 -2.388,-2.838 -4.663,-3.381 -1.241,-0.148 -2.506,0.053 -3.883,0.503 -1.219,0.357 -2.477,0.291 -3.844,0.947 0.322,0.528 0.748,1.046 1.475,1.66 0.228,0.222 0.638,0.283 1.041,0.252 -0.279,0.099 -0.566,0.182 -0.866,0.025 -0.49,-0.332 -0.893,-0.747 -1.278,-1.185 -0.235,-0.291 -0.432,-0.609 -0.589,-0.948 -0.233,-0.528 0.041,-1.198 0.489,-1.918 0.407,-0.5 0.855,-0.988 1.766,-1.338 0.82,-0.327 1.643,-0.654 2.421,-1.085 0.88,-0.571 2.284,-2.39 3.031,-3.661 -2.035,0.746 -4.068,1.344 -6.091,2.535 -0.757,0.52 -1.499,1.325 -2.255,2.158 -0.322,0.365 -0.671,0.707 -1.129,0.949 -0.629,0.337 -1.062,0.017 -1.353,-0.24 -0.45,-0.488 -0.848,-1.02 -1.189,-1.589 -0.449,-0.614 -0.918,-1.229 -1.605,-1.843 -0.79,-0.734 -1.502,-1.58 -2.219,-2.349 z m 12.872,2.013 -1.793,2.176 1.217,-0.422 -2.448,1.2 z m -8.502,4.543 c 0.157,-0.004 0.315,0 0.468,0.016 -0.991,0.077 -1.444,0.247 -2.304,0.689 0.315,-0.241 0.493,-0.42 1.061,-0.614 0.248,-0.055 0.512,-0.086 0.775,-0.091 z m 0.275,1.367 c 0.49,0.008 0.822,0.224 0.822,0.224 -1.086,-0.292 -1.682,-0.05 -2.146,0.661 -0.055,-0.045 0.308,-0.662 0.79,-0.809 0.192,-0.058 0.371,-0.079 0.534,-0.076 z m -0.083,0.365 c 0.103,-0.004 0.206,0.004 0.307,0.025 0.203,0.071 0.295,0.223 0.395,0.365 -0.211,-0.186 -0.428,-0.332 -0.692,-0.264 0.299,0.034 0.41,0.221 0.453,0.467 0.037,0.33 -0.247,0.524 -0.436,0.552 -0.19,0.029 -0.432,-0.02 -0.571,-0.224 -0.04,-0.083 -0.146,-0.388 0.023,-0.605 -0.185,0.075 -0.355,0.183 -0.501,0.318 0.128,-0.186 0.284,-0.332 0.519,-0.488 0.154,-0.089 0.326,-0.139 0.503,-0.147 z m -8.009,4.01 c 0.254,0.3 0.501,0.589 0.622,0.987 0.017,0.369 -0.146,0.361 -0.305,0.359 -0.133,-0.002 -0.385,-0.153 -0.304,-0.276 0.079,-0.159 0.112,-0.337 0.096,-0.514 z m -0.93,0.091 c 0.2,0.209 0.395,0.349 0.432,0.641 0.015,0.07 0.028,0.242 -0.11,0.216 -0.401,-0.38 -0.159,-0.339 -0.32,-0.857 z"
         fill="#ffffff"
         fill-rule="nonzero"
         id="path2" />
    </g>
  </g>
</svg>
