<?xml version="1.0" encoding="UTF-8" standalone="no"?>
<!-- Created with Inkscape (http://www.inkscape.org/) -->

<svg
   width="62"
   height="62"
   viewBox="0 0 62 62"
   version="1.1"
   id="svg1"
   inkscape:version="1.4 (e7c3feb100, 2024-10-09)"
   sodipodi:docname="yast-autoyast.svg"
   xmlns:inkscape="http://www.inkscape.org/namespaces/inkscape"
   xmlns:sodipodi="http://sodipodi.sourceforge.net/DTD/sodipodi-0.dtd"
   xmlns:xlink="http://www.w3.org/1999/xlink"
   xmlns="http://www.w3.org/2000/svg"
   xmlns:svg="http://www.w3.org/2000/svg">
  <sodipodi:namedview
     id="namedview1"
     pagecolor="#ffffff"
     bordercolor="#000000"
     borderopacity="0.25"
     inkscape:showpageshadow="2"
     inkscape:pageopacity="0.0"
     inkscape:pagecheckerboard="0"
     inkscape:deskcolor="#d1d1d1"
     inkscape:document-units="px"
     inkscape:zoom="10.74725"
     inkscape:cx="29.868106"
     inkscape:cy="46.709623"
     inkscape:window-width="1920"
     inkscape:window-height="998"
     inkscape:window-x="0"
     inkscape:window-y="0"
     inkscape:window-maximized="1"
     inkscape:current-layer="layer1" />
  <defs
     id="defs1">
    <radialGradient
       id="radialGradient13"
       cx="0"
       cy="0"
       r="1"
       gradientUnits="userSpaceOnUse"
       gradientTransform="matrix(0,20,-16,0,583,187)">
      <stop
         offset="0.45226613"
         stop-color="#EFF2F6"
         id="stop10" />
      <stop
         offset="1"
         stop-color="#B7C6CD"
         id="stop13" />
    </radialGradient>
    <linearGradient
       id="linearGradient8"
       inkscape:collect="always">
      <stop
         style="stop-color:#00e2e2;stop-opacity:1;"
         offset="0"
         id="stop5" />
      <stop
         style="stop-color:#00a7a7;stop-opacity:1;"
         offset="1"
         id="stop8" />
    </linearGradient>
    <linearGradient
       id="linearGradient12"
       inkscape:collect="always">
      <stop
         style="stop-color:#008686;stop-opacity:1;"
         offset="0"
         id="stop11" />
      <stop
         style="stop-color:#008080;stop-opacity:1"
         offset="1"
         id="stop12" />
    </linearGradient>
    <linearGradient
       id="linearGradient7"
       inkscape:collect="always">
      <stop
         style="stop-color:#00e2e2;stop-opacity:1;"
         offset="0"
         id="stop6" />
      <stop
         style="stop-color:#005f5f;stop-opacity:1;"
         offset="1"
         id="stop7" />
    </linearGradient>
    <linearGradient
       id="linearGradient1"
       inkscape:collect="always">
      <stop
         style="stop-color:#00c5c5;stop-opacity:1;"
         offset="0"
         id="stop1" />
      <stop
         style="stop-color:#008080;stop-opacity:1"
         offset="1"
         id="stop4" />
    </linearGradient>
    <radialGradient
       id="radialGradient3"
       cx="0"
       cy="0"
       r="1"
       gradientUnits="userSpaceOnUse"
       gradientTransform="matrix(0,20,-16,0,583,187)">
      <stop
         offset="0.19535755"
         stop-color="#EFF2F6"
         id="stop2" />
      <stop
         offset="1"
         stop-color="#B7C6CD"
         id="stop3" />
    </radialGradient>
    <radialGradient
       id="paint664_radial_890_11"
       cx="0"
       cy="0"
       r="1"
       gradientUnits="userSpaceOnUse"
       gradientTransform="matrix(-16.000099,-9.999913,9.999913,-16.000099,583,171)">
      <stop
         offset="0.42141"
         stop-color="#B7C6CD"
         id="stop2071" />
      <stop
         offset="1"
         stop-color="#EFF2F6"
         id="stop2072" />
    </radialGradient>
    <linearGradient
       id="paint665_linear_890_11"
       x1="605"
       y1="180"
       x2="601.466"
       y2="162.72301"
       gradientUnits="userSpaceOnUse">
      <stop
         stop-color="#5200FF"
         id="stop2073" />
      <stop
         offset="1"
         stop-color="#0085FF"
         id="stop2074" />
    </linearGradient>
    <linearGradient
       id="paint666_linear_890_11"
       x1="567"
       y1="181"
       x2="562.11798"
       y2="174.183"
       gradientUnits="userSpaceOnUse">
      <stop
         stop-color="#5200FF"
         id="stop2075" />
      <stop
         offset="0.670391"
         stop-color="#0085FF"
         id="stop2076" />
    </linearGradient>
    <linearGradient
       id="paint667_linear_890_11"
       x1="605"
       y1="180"
       x2="597.32001"
       y2="174.24001"
       gradientUnits="userSpaceOnUse">
      <stop
         stop-color="#5200FF"
         id="stop2077" />
      <stop
         offset="1"
         stop-color="#0085FF"
         id="stop2078" />
    </linearGradient>
    <linearGradient
       id="paint668_linear_890_11"
       x1="567"
       y1="180"
       x2="561.23999"
       y2="172.32001"
       gradientUnits="userSpaceOnUse">
      <stop
         stop-color="#5200FF"
         id="stop2079" />
      <stop
         offset="1"
         stop-color="#0085FF"
         id="stop2080" />
    </linearGradient>
    <linearGradient
       id="paint669_linear_890_11"
       x1="607"
       y1="179"
       x2="602.50598"
       y2="171.80901"
       gradientUnits="userSpaceOnUse">
      <stop
         stop-color="#5200FF"
         id="stop2081" />
      <stop
         offset="1"
         stop-color="#0085FF"
         id="stop2082" />
    </linearGradient>
    <linearGradient
       id="paint670_linear_890_11"
       x1="607"
       y1="217"
       x2="568.82599"
       y2="170.01601"
       gradientUnits="userSpaceOnUse">
      <stop
         stop-color="#5200FF"
         id="stop2083" />
      <stop
         offset="1"
         stop-color="#0085FF"
         id="stop2084" />
    </linearGradient>
    <radialGradient
       id="paint671_radial_890_11"
       cx="0"
       cy="0"
       r="1"
       gradientUnits="userSpaceOnUse"
       gradientTransform="matrix(0,20,-16,0,583,187)">
      <stop
         offset="0.869716"
         stop-color="#EFF2F6"
         id="stop2085" />
      <stop
         offset="1"
         stop-color="#B7C6CD"
         id="stop2086" />
    </radialGradient>
    <linearGradient
       inkscape:collect="always"
       xlink:href="#linearGradient1"
       id="linearGradient4"
       x1="574.72498"
       y1="171"
       x2="607"
       y2="217"
       gradientUnits="userSpaceOnUse" />
    <linearGradient
       inkscape:collect="always"
       xlink:href="#linearGradient8"
       id="linearGradient6"
       x1="599"
       y1="164.70654"
       x2="607"
       y2="178"
       gradientUnits="userSpaceOnUse" />
    <linearGradient
       inkscape:collect="always"
       xlink:href="#linearGradient7"
       id="linearGradient9"
       x1="599"
       y1="176.5"
       x2="607"
       y2="176.5"
       gradientUnits="userSpaceOnUse" />
    <linearGradient
       inkscape:collect="always"
       xlink:href="#linearGradient12"
       id="linearGradient11"
       x1="599"
       y1="176"
       x2="605"
       y2="176"
       gradientUnits="userSpaceOnUse" />
    <linearGradient
       inkscape:collect="always"
       xlink:href="#linearGradient12"
       id="linearGradient14"
       x1="561"
       y1="176.5"
       x2="567"
       y2="176.5"
       gradientUnits="userSpaceOnUse" />
    <linearGradient
       inkscape:collect="always"
       xlink:href="#linearGradient7"
       id="linearGradient16"
       x1="559"
       y1="177"
       x2="567"
       y2="177"
       gradientUnits="userSpaceOnUse" />
    <linearGradient
       inkscape:collect="always"
       xlink:href="#radialGradient13"
       id="linearGradient10"
       x1="31"
       y1="22"
       x2="31"
       y2="41.899788"
       gradientUnits="userSpaceOnUse" />
  </defs>
  <g
     inkscape:label="Layer 1"
     inkscape:groupmode="layer"
     id="layer1">
    <g
       id="g2272"
       transform="translate(-552,-158)">
      <path
         d="m 597,181 c 1.105,0 2,-0.895 2,-2 v -2 c 0,-8.837 -7.163,-16 -16,-16 -8.837,0 -16,7.163 -16,16 v 2 c 0,1.105 0.895,2 2,2 1.105,0 2,-0.895 2,-2 v -2 c 0,-6.627 5.373,-12 12,-12 6.627,0 12,5.373 12,12 v 2 c 0,1.105 0.895,2 2,2 z"
         id="path647"
         style="fill:url(#paint664_radial_890_11)" />
      <path
         d="m 561,172 c 0,-0.552 0.448,-1 1,-1 h 42 c 0.552,0 1,0.448 1,1 v 7 c 0,0.552 -0.448,1 -1,1 h -42 c -0.552,0 -1,-0.448 -1,-1 z"
         id="path648"
         style="fill:url(#linearGradient6)" />
      <path
         d="m 561,181 v -9 l 5.144,0.75 c 0.492,0.072 0.856,0.493 0.856,0.99 V 181 Z"
         id="path649"
         style="fill:url(#linearGradient14)" />
      <path
         d="m 605,180 v -8 l -5.132,0.684 c -0.497,0.067 -0.868,0.49 -0.868,0.992 V 180 Z"
         id="path650"
         style="fill:url(#linearGradient11)" />
      <path
         d="M 559.649,176.757 567,174 v 6 h -8 v -2.307 c 0,-0.417 0.259,-0.79 0.649,-0.936 z"
         id="path651"
         style="fill:url(#linearGradient16)" />
      <path
         d="M 606.351,176.757 599,174 v 5 h 8 v -1.307 c 0,-0.417 -0.259,-0.79 -0.649,-0.936 z"
         id="path652"
         style="fill:url(#linearGradient9)" />
      <path
         d="m 559,178 h 48 v 33 c 0,3.314 -2.686,6 -6,6 h -36 c -3.314,0 -6,-2.686 -6,-6 z"
         id="path653"
         style="fill:url(#linearGradient4)" />
      <path
         d="m 597,187 c 1.105,0 2,0.895 2,2 v 2 c 0,8.837 -7.163,16 -16,16 -8.837,0 -16,-7.163 -16,-16 v -2 c 0,-1.105 0.895,-2 2,-2 1.105,0 2,0.895 2,2 v 2 c 0,6.627 5.373,12 12,12 6.627,0 12,-5.373 12,-12 v -2 c 0,-1.105 0.895,-2 2,-2 z"
         id="path654"
         style="fill:url(#paint671_radial_890_11)" />
    </g>
    <path
       d="m 29.333332,21.899788 v 1.836668 A 8.3333332,8.3333332 0 0 0 26.41,24.95312 l -1.301668,-1.301664 -2.356664,2.356664 1.301664,1.301668 A 8.3333332,8.3333332 0 0 0 22.841668,30.23312 H 21 v 3.333336 h 1.836668 a 8.3333332,8.3333332 0 0 0 1.216664,2.923332 L 22.751668,37.791456 25.108332,40.14812 26.41,38.846456 a 8.3333332,8.3333332 0 0 0 2.923332,1.211664 v 1.841668 h 3.333336 V 40.06312 A 8.3333332,8.3333332 0 0 0 35.59,38.846456 l 1.301668,1.301664 2.356664,-2.356664 -1.301664,-1.301668 a 8.3333332,8.3333332 0 0 0 1.211664,-2.923332 H 41 V 30.23312 H 39.163332 A 8.3333332,8.3333332 0 0 0 37.946668,27.309788 L 39.248332,26.00812 36.891668,23.651456 35.59,24.95312 A 8.3333332,8.3333332 0 0 0 32.666668,23.741456 V 21.899788 Z M 31,25.23312 a 6.6666668,6.6666668 0 0 1 4.783332,2.021668 6.6666668,6.6666668 0 0 1 1.883336,4.645 A 6.6666668,6.6666668 0 0 1 35.645,36.68312 6.6666668,6.6666668 0 0 1 31,38.566456 6.6666668,6.6666668 0 0 1 26.216668,36.544788 6.6666668,6.6666668 0 0 1 24.333332,31.899788 6.6666668,6.6666668 0 0 1 26.355,27.116456 6.6666668,6.6666668 0 0 1 31,25.23312 Z m -1.666668,3.333336 v 6.666664 l 5,-3.333332 z"
       fill="#ffffff"
       id="path4"
       style="stroke-width:0.833332;fill:url(#linearGradient10)" />
  </g>
</svg>
