<?xml version="1.0" encoding="UTF-8" standalone="no"?>
<svg
   width="62"
   height="62"
   version="1.1"
   id="svg10"
   sodipodi:docname="preferences-virtualization-container.svg"
   inkscape:version="1.4 (e7c3feb100, 2024-10-09)"
   xmlns:inkscape="http://www.inkscape.org/namespaces/inkscape"
   xmlns:sodipodi="http://sodipodi.sourceforge.net/DTD/sodipodi-0.dtd"
   xmlns="http://www.w3.org/2000/svg"
   xmlns:svg="http://www.w3.org/2000/svg">
  <defs
     id="defs10" />
  <sodipodi:namedview
     id="namedview10"
     pagecolor="#ffffff"
     bordercolor="#000000"
     borderopacity="0.25"
     inkscape:showpageshadow="2"
     inkscape:pageopacity="0.0"
     inkscape:pagecheckerboard="0"
     inkscape:deskcolor="#d1d1d1"
     inkscape:zoom="11.78125"
     inkscape:cx="31.95756"
     inkscape:cy="29.793103"
     inkscape:window-width="1920"
     inkscape:window-height="994"
     inkscape:window-x="0"
     inkscape:window-y="0"
     inkscape:window-maximized="1"
     inkscape:current-layer="svg10" />
  <g
     id="g3"
     transform="matrix(1.0384539,0,0,1.0384539,-2.2303795,-2.2307222)">
    <path
       d="m 9.7143,58 h 44.571 V 54.2857 H 9.7143 Z m 0,-52 h 44.571 V 9.7143 H 9.7143 Z"
       id="path1"
       style="fill:#80b3ff" />
    <path
       d="M 7.857,6 A 1.8571,1.8571 0 0 0 7.67128,6.0112 1.8571,1.8571 0 0 0 7.48556,6.0372 1.8571,1.8571 0 0 0 7.30914,6.08364 1.8571,1.8571 0 0 0 7.13456,6.14492 1.8571,1.8571 0 0 0 6.96742,6.2285 1.8571,1.8571 0 0 0 6.80956,6.32136 1.8571,1.8571 0 0 0 6.66098,6.43464 1.8571,1.8571 0 0 0 6.5254,6.56278 1.8571,1.8571 0 0 0 6.40282,6.70392 1.8571,1.8571 0 0 0 6.29324,6.8525 1.8571,1.8571 0 0 0 6.20224,7.01592 1.8571,1.8571 0 0 0 6.12796,7.18306 1.8571,1.8571 0 0 0 6.06854,7.35948 1.8571,1.8571 0 0 0 6.02582,7.54148 1.8571,1.8571 0 0 0 6.00354,7.7272 a 1.8571,1.8571 0 0 0 -0.0038,0.13 v 48.286 a 1.8571,1.8571 0 0 0 0.0038,0.13 1.8571,1.8571 0 0 0 0.02228,0.18572 1.8571,1.8571 0 0 0 0.04272,0.182 1.8571,1.8571 0 0 0 0.05756,0.17642 1.8571,1.8571 0 0 0 0.07614,0.16714 1.8571,1.8571 0 0 0 0.09286,0.16342 1.8571,1.8571 0 0 0 0.10772,0.14858 1.8571,1.8571 0 0 0 0.12258,0.14114 1.8571,1.8571 0 0 0 0.13372,0.12814 1.8571,1.8571 0 0 0 0.14858,0.11142 1.8571,1.8571 0 0 0 0.15972,0.09472 1.8571,1.8571 0 0 0 0.16714,0.08358 1.8571,1.8571 0 0 0 0.17458,0.06128 1.8571,1.8571 0 0 0 0.17828,0.04642 1.8571,1.8571 0 0 0 0.18572,0.026 1.8571,1.8571 0 0 0 0.18386,0.0112 h 1.8571 a 1.8571,1.8571 0 0 0 0.18572,-0.0112 1.8571,1.8571 0 0 0 0.18572,-0.026 1.8571,1.8571 0 0 0 0.17642,-0.04642 1.8571,1.8571 0 0 0 0.17458,-0.06128 1.8571,1.8571 0 0 0 0.16714,-0.08358 1.8571,1.8571 0 0 0 0.15786,-0.09286 1.8571,1.8571 0 0 0 0.14858,-0.11328 1.8571,1.8571 0 0 0 0.13558,-0.12814 1.8571,1.8571 0 0 0 0.12258,-0.14114 1.8571,1.8571 0 0 0 0.10956,-0.14858 1.8571,1.8571 0 0 0 0.091,-0.16342 1.8571,1.8571 0 0 0 0.07428,-0.16714 1.8571,1.8571 0 0 0 0.05942,-0.17642 1.8571,1.8571 0 0 0 0.04272,-0.182 1.8571,1.8571 0 0 0 0.02228,-0.18572 1.8571,1.8571 0 0 0 0.0038,-0.13 v -1.8571 h 40.857 v 1.8571 a 1.8571,1.8571 0 0 0 0.0038,0.13 1.8571,1.8571 0 0 0 0.02228,0.18572 1.8571,1.8571 0 0 0 0.04272,0.182 1.8571,1.8571 0 0 0 0.05758,0.17642 1.8571,1.8571 0 0 0 0.07614,0.16714 1.8571,1.8571 0 0 0 0.09286,0.16342 1.8571,1.8571 0 0 0 0.10772,0.14858 1.8571,1.8571 0 0 0 0.12258,0.14114 1.8571,1.8571 0 0 0 0.13372,0.12814 1.8571,1.8571 0 0 0 0.14858,0.11142 1.8571,1.8571 0 0 0 0.15972,0.09472 1.8571,1.8571 0 0 0 0.16714,0.08358 1.8571,1.8571 0 0 0 0.17458,0.06128 1.8571,1.8571 0 0 0 0.17828,0.04642 1.8571,1.8571 0 0 0 0.18572,0.026 1.8571,1.8571 0 0 0 0.18386,0.0112 h 1.8571 a 1.8571,1.8571 0 0 0 0.18572,-0.0112 1.8571,1.8571 0 0 0 0.18572,-0.026 1.8571,1.8571 0 0 0 0.17644,-0.04642 1.8571,1.8571 0 0 0 0.17458,-0.06128 1.8571,1.8571 0 0 0 0.16714,-0.08358 1.8571,1.8571 0 0 0 0.15786,-0.09286 1.8571,1.8571 0 0 0 0.14858,-0.11328 1.8571,1.8571 0 0 0 0.13556,-0.12814 1.8571,1.8571 0 0 0 0.12258,-0.14114 1.8571,1.8571 0 0 0 0.10958,-0.14858 1.8571,1.8571 0 0 0 0.091,-0.16342 1.8571,1.8571 0 0 0 0.07428,-0.16714 1.8571,1.8571 0 0 0 0.05942,-0.17642 1.8571,1.8571 0 0 0 0.04272,-0.182 1.8571,1.8571 0 0 0 0.02228,-0.18572 1.8571,1.8571 0 0 0 0.0038,-0.13 V 7.8572 A 1.8571,1.8571 0 0 0 57.99618,7.7272 1.8571,1.8571 0 0 0 57.9739,7.54148 1.8571,1.8571 0 0 0 57.93118,7.35948 1.8571,1.8571 0 0 0 57.87362,7.18306 1.8571,1.8571 0 0 0 57.79748,7.01592 1.8571,1.8571 0 0 0 57.70462,6.8525 1.8571,1.8571 0 0 0 57.5969,6.70392 1.8571,1.8571 0 0 0 57.47432,6.56278 1.8571,1.8571 0 0 0 57.3406,6.43464 1.8571,1.8571 0 0 0 57.19202,6.32322 1.8571,1.8571 0 0 0 57.0323,6.2285 1.8571,1.8571 0 0 0 56.86516,6.14492 1.8571,1.8571 0 0 0 56.69058,6.08364 1.8571,1.8571 0 0 0 56.5123,6.0372 1.8571,1.8571 0 0 0 56.32658,6.0112 1.8571,1.8571 0 0 0 56.14272,6 h -1.8571 A 1.8571,1.8571 0 0 0 54.0999,6.0112 1.8571,1.8571 0 0 0 53.91418,6.0372 1.8571,1.8571 0 0 0 53.73776,6.08364 1.8571,1.8571 0 0 0 53.56318,6.14492 1.8571,1.8571 0 0 0 53.39604,6.2285 1.8571,1.8571 0 0 0 53.23818,6.32136 1.8571,1.8571 0 0 0 53.0896,6.43464 1.8571,1.8571 0 0 0 52.95402,6.56278 1.8571,1.8571 0 0 0 52.83144,6.70392 1.8571,1.8571 0 0 0 52.72186,6.8525 a 1.8571,1.8571 0 0 0 -0.091,0.16342 1.8571,1.8571 0 0 0 -0.07428,0.16714 1.8571,1.8571 0 0 0 -0.05944,0.17642 1.8571,1.8571 0 0 0 -0.04272,0.182 1.8571,1.8571 0 0 0 -0.02228,0.18572 1.8571,1.8571 0 0 0 -0.0038,0.13 v 1.8571 h -40.857 V 7.8572 A 1.8571,1.8571 0 0 0 11.56754,7.7272 1.8571,1.8571 0 0 0 11.54526,7.54148 1.8571,1.8571 0 0 0 11.50254,7.35948 1.8571,1.8571 0 0 0 11.44496,7.18306 1.8571,1.8571 0 0 0 11.36882,7.01592 1.8571,1.8571 0 0 0 11.27596,6.8525 1.8571,1.8571 0 0 0 11.16824,6.70392 1.8571,1.8571 0 0 0 11.04566,6.56278 1.8571,1.8571 0 0 0 10.91194,6.43464 1.8571,1.8571 0 0 0 10.76336,6.32322 1.8571,1.8571 0 0 0 10.60364,6.2285 1.8571,1.8571 0 0 0 10.4365,6.14492 1.8571,1.8571 0 0 0 10.26192,6.08364 1.8571,1.8571 0 0 0 10.08364,6.0372 1.8571,1.8571 0 0 0 9.89792,6.0112 1.8571,1.8571 0 0 0 9.71406,6 Z"
       id="path2"
       style="fill:#2a7fff" />
    <path
       d="M 9.8462,11 C 8.8266,11 8,11.7835 8,12.75 v 38.5 c 6e-7,0.9665 0.82655,1.75 1.8462,1.75 h 44.308 c 1.0196,0 1.8462,-0.7835 1.8462,-1.75 V 12.75 C 56.000399,11.7835 55.17385,11 54.1542,11 Z M 11,14 H 30 V 50 H 11 Z m 23,0 H 53 V 50 H 34 Z"
       fill="#323940"
       opacity="0.8"
       id="path3" />
  </g>
  <g
     fill="#39719b"
     id="g9"
     transform="matrix(1.0384539,0,0,1.0384539,-2.2303795,-2.2307222)"
     style="fill:#6099c4;fill-opacity:1">
    <path
       d="m 36,38 h 15 v 4 H 36 Z"
       id="path4"
       style="fill:#6099c4;fill-opacity:1" />
    <path
       d="m 13,38 h 15 v 4 H 13 Z"
       id="path5"
       style="fill:#6099c4;fill-opacity:1" />
    <path
       d="m 13,22 h 15 v 4 H 13 Z"
       id="path6"
       style="fill:#6099c4;fill-opacity:1" />
    <path
       d="m 36,22 h 15 v 4 H 36 Z"
       id="path7"
       style="fill:#6099c4;fill-opacity:1" />
    <path
       d="m 36,30 h 15 v 4 H 36 Z"
       id="path8"
       style="fill:#6099c4;fill-opacity:1;opacity:1" />
    <path
       d="m 13,30 h 15 v 4 H 13 Z"
       id="path9"
       style="fill:#6099c4;fill-opacity:1" />
  </g>
  <path
     d="m 17.500235,9.1922654 a 1.0384539,0.90864688 0 0 0 -1.038451,0.9086486 v 41.79775 a 1.0384539,0.90864688 0 0 0 2.0769,0 V 10.100914 A 1.0384539,0.90864688 0 0 0 17.500235,9.1922654 Z m 6.230727,0 a 1.0384539,0.90864688 0 0 0 -1.038454,0.9086486 v 41.79775 a 1.0384551,0.90864777 0 0 0 2.076908,0 V 10.100914 A 1.0384539,0.90864688 0 0 0 23.730962,9.1922654 Z m 14.538351,0 A 1.0384539,0.90864688 0 0 0 37.23086,10.100914 v 41.79775 a 1.0384539,0.90864688 0 0 0 2.076905,0 V 10.100914 A 1.0384539,0.90864688 0 0 0 38.269313,9.1922654 Z m 6.230719,0 a 1.0384539,0.90864688 0 0 0 -1.038454,0.9086486 v 41.79775 a 1.0384542,0.90864701 0 0 0 2.076907,0 V 10.100914 A 1.0384539,0.90864688 0 0 0 44.500032,9.1922654 Z"
     id="path10"
     style="stroke-width:1.03843;fill:#ffffff;fill-opacity:1" />
</svg>
