<?xml version="1.0" encoding="UTF-8" standalone="no"?>
<svg
   clip-rule="evenodd"
   fill-rule="evenodd"
   stroke-linejoin="round"
   stroke-miterlimit="2"
   viewBox="0 0 62 62"
   version="1.1"
   id="svg10"
   sodipodi:docname="yast-vm-group.svg"
   width="62"
   height="62"
   inkscape:version="1.4 (e7c3feb100, 2024-10-09)"
   xmlns:inkscape="http://www.inkscape.org/namespaces/inkscape"
   xmlns:sodipodi="http://sodipodi.sourceforge.net/DTD/sodipodi-0.dtd"
   xmlns:xlink="http://www.w3.org/1999/xlink"
   xmlns="http://www.w3.org/2000/svg"
   xmlns:svg="http://www.w3.org/2000/svg">
  <defs
     id="defs10">
    <linearGradient
       id="linearGradient10"
       inkscape:collect="always">
      <stop
         style="stop-color:#6c7884;stop-opacity:1;"
         offset="0"
         id="stop10" />
      <stop
         style="stop-color:#515862;stop-opacity:1;"
         offset="1"
         id="stop11" />
    </linearGradient>
    <linearGradient
       inkscape:collect="always"
       xlink:href="#linearGradient10"
       id="linearGradient11"
       x1="31"
       y1="59"
       x2="31"
       y2="3"
       gradientUnits="userSpaceOnUse" />
  </defs>
  <sodipodi:namedview
     id="namedview10"
     pagecolor="#ffffff"
     bordercolor="#000000"
     borderopacity="0.25"
     inkscape:showpageshadow="2"
     inkscape:pageopacity="0.0"
     inkscape:pagecheckerboard="0"
     inkscape:deskcolor="#d1d1d1"
     inkscape:zoom="7.8541667"
     inkscape:cx="12.732095"
     inkscape:cy="21.644562"
     inkscape:window-width="1920"
     inkscape:window-height="998"
     inkscape:window-x="0"
     inkscape:window-y="0"
     inkscape:window-maximized="1"
     inkscape:current-layer="svg10" />
  <linearGradient
     id="a"
     x2="1"
     gradientTransform="matrix(0,-46.799983,46.799983,0,632.48571,54.413883)"
     gradientUnits="userSpaceOnUse">
    <stop
       stop-color="#566069"
       offset="0"
       id="stop1" />
    <stop
       stop-color="#6c7884"
       offset="1"
       id="stop2" />
  </linearGradient>
  <path
     d="M 50.952003,3 C 55.394683,3 59,6.6053166 59,11.047997 V 50.952003 C 59,55.394683 55.394683,59 50.952003,59 H 11.047997 C 6.6053166,59 3,55.394683 3,50.952003 V 11.047997 C 3,6.6053166 6.6053166,3 11.047997,3 Z"
     id="path2"
     style="fill:url(#linearGradient11);fill-opacity:0.5" />
  <path
     d="M 3,12.376408 V 11.047997 C 3,6.6053166 6.6053166,3 11.047997,3 H 50.952003 C 55.394683,3 59,6.6053166 59,11.047997 v 1.328411 z"
     fill-opacity="0.1"
     id="path3"
     style="stroke-width:1.29223;fill:#e5e5e5;fill-opacity:0.1" />
  <path
     d="m 22.438,29.897729 v 22.968064 c 0,1.119069 0.899391,2.01846 2.01846,2.01846 h 32.0072 V 31.91619 c 0,-1.11907 -0.903267,-2.018461 -2.021045,-2.018461 z"
     fill-opacity="0.85"
     fill-rule="nonzero"
     id="path9"
     style="fill:#ffffff;fill-opacity:0.60000002;stroke-width:1.29223" />
  <path
     d="m 22.438,29.899022 v 4.769614 h 34.024368 v -2.753738 c 0,-0.138269 -0.01422,-0.275245 -0.04006,-0.40576 v -0.0026 c -0.05427,-0.262322 -0.158944,-0.505261 -0.303674,-0.719771 0,0 0.0013,-0.0013 0,-0.0026 -0.144729,-0.21451 -0.329518,-0.398006 -0.544028,-0.542736 -0.189957,-0.127931 -0.40576,-0.217094 -0.634484,-0.275245 -0.02972,-0.0078 -0.05686,-0.02068 -0.08787,-0.02714 h -0.0026 c -0.131807,-0.02714 -0.266199,-0.04006 -0.40576,-0.04006 z"
     fill-opacity="0.85"
     fill-rule="nonzero"
     id="path10"
     style="fill:#2b383f;fill-opacity:1;stroke-width:1.29223" />
  <path
     d="m 37.978038,7.6882027 c 0,1.3812495 -1.11925,2.5000013 -2.500001,2.5000013 -1.380749,0 -2.499999,-1.1187518 -2.499999,-2.5000013 0,-1.3812487 1.11925,-2.4999987 2.499999,-2.4999987 1.380751,0 2.500001,1.11875 2.500001,2.4999987 z"
     id="path443"
     style="fill:#ffffff;fill-opacity:0.60000002;stroke-width:1.24999" />
  <path
     d="m 45.478034,7.6882027 c 0,1.3812495 -1.119247,2.5000013 -2.499997,2.5000013 -1.380753,0 -2.500003,-1.1187518 -2.500003,-2.5000013 0,-1.3812487 1.119253,-2.4999987 2.500003,-2.4999987 1.38075,0 2.499997,1.11875 2.499997,2.4999987 z"
     id="path444"
     style="fill:#ffffff;fill-opacity:0.60000002;stroke-width:1.24999" />
  <path
     d="m 52.978033,7.6882027 c 0,1.3812495 -1.11925,2.5000013 -2.499999,2.5000013 -1.380751,0 -2.5,-1.1187518 -2.5,-2.5000013 0,-1.3812487 1.119249,-2.4999987 2.5,-2.4999987 1.380749,0 2.499999,1.11875 2.499999,2.4999987 z"
     id="path445"
     style="fill:#ffffff;fill-opacity:0.60000002;stroke-width:1.24999" />
  <rect
     style="opacity:0.2"
     width="6"
     height="6"
     x="12.028"
     y="45.269001"
     rx="0.75"
     ry="0.75"
     id="rect10" />
  <rect
     style="opacity:0.2"
     width="6"
     height="6"
     x="12.028"
     y="37.269001"
     rx="0.75"
     ry="0.75"
     id="rect15" />
  <rect
     style="fill:#ffffff"
     width="6"
     height="6"
     x="12.028"
     y="36.269001"
     rx="0.75"
     ry="0.75"
     id="rect16" />
  <rect
     style="fill:#ffffff"
     width="6"
     height="6"
     x="12.028"
     y="44.269001"
     rx="0.75"
     ry="0.75"
     id="rect17" />
</svg>
