<?xml version="1.0" encoding="UTF-8" standalone="no"?>
<svg
   width="62"
   height="62"
   version="1"
   id="svg6"
   sodipodi:docname="yed.svg"
   inkscape:version="1.4 (unknown)"
   xmlns:inkscape="http://www.inkscape.org/namespaces/inkscape"
   xmlns:sodipodi="http://sodipodi.sourceforge.net/DTD/sodipodi-0.dtd"
   xmlns:xlink="http://www.w3.org/1999/xlink"
   xmlns="http://www.w3.org/2000/svg"
   xmlns:svg="http://www.w3.org/2000/svg">
  <defs
     id="defs6">
    <linearGradient
       id="linearGradient6"
       inkscape:collect="always">
      <stop
         style="stop-color:#323168;stop-opacity:1;"
         offset="0"
         id="stop6" />
      <stop
         style="stop-color:#8888c3;stop-opacity:1;"
         offset="1"
         id="stop7" />
    </linearGradient>
    <linearGradient
       inkscape:collect="always"
       xlink:href="#linearGradient6"
       id="linearGradient7"
       x1="33.05011"
       y1="60.951839"
       x2="33.259693"
       y2="4.0374446"
       gradientUnits="userSpaceOnUse" />
  </defs>
  <sodipodi:namedview
     id="namedview6"
     pagecolor="#ffffff"
     bordercolor="#000000"
     borderopacity="0.25"
     inkscape:showpageshadow="2"
     inkscape:pageopacity="0.0"
     inkscape:pagecheckerboard="0"
     inkscape:deskcolor="#d1d1d1"
     inkscape:zoom="11.75"
     inkscape:cx="32"
     inkscape:cy="32.085106"
     inkscape:window-width="1920"
     inkscape:window-height="998"
     inkscape:window-x="0"
     inkscape:window-y="0"
     inkscape:window-maximized="1"
     inkscape:current-layer="svg6" />
  <g
     id="g6"
     transform="matrix(0.94642862,0,0,0.94915245,0.71428286,0.15254834)">
    <path
       style="opacity:0.2"
       d="M 32.189302,4.000013 C 31.676396,3.9995978 31.14942,4.022091 30.593258,4.063523 26.780913,4.3474808 24.906733,5.1439261 16.427422,10.083554 9.3546385,14.203808 6.7875254,16.591838 5.1880885,20.538386 4.2903048,22.753632 4.185445,23.813546 4.0476938,32.069539 3.9225459,39.570413 4.0213658,41.59166 4.613647,43.621582 c 0.8996127,3.08327 2.8081247,6.067516 5.2030533,8.135899 2.3916957,2.065592 14.9412967,9.078843 17.5479867,9.806369 2.831301,0.790214 8.511997,0.463794 11.030604,-0.633424 3.732808,-1.626179 14.709413,-8.270963 16.379595,-9.915837 4.184051,-4.120657 5.225111,-7.675813 5.225111,-17.836976 0,-8.354233 -0.39864,-10.856437 -2.294366,-14.398272 C 55.847484,15.307717 53.337288,13.27725 45.621185,9.0030583 38.654175,5.1438171 35.779676,4.0029096 32.189302,4.000013 Z"
       id="path1" />
    <path
       style="fill:url(#linearGradient7)"
       d="M 32.189302,3.0000125 C 31.676396,2.9995974 31.14942,3.0220901 30.593258,3.0635225 26.780913,3.3474803 24.906733,4.1439256 16.427422,9.0835535 9.3546385,13.203808 6.7875254,15.591838 5.1880885,19.538387 4.2903048,21.753632 4.185445,22.813546 4.0476938,31.069539 c -0.1251479,7.500874 -0.026328,9.522122 0.5659532,11.552043 0.8996127,3.08327 2.8081247,6.067516 5.2030533,8.1359 2.3916957,2.065591 14.9412967,9.078843 17.5479867,9.806369 2.831301,0.790213 8.511997,0.463793 11.030604,-0.633424 3.732808,-1.62618 14.709413,-8.270964 16.379595,-9.915837 4.184051,-4.120658 5.225111,-7.675814 5.225111,-17.836977 0,-8.354233 -0.39864,-10.856437 -2.294366,-14.398272 C 55.847484,14.307716 53.337288,12.27725 45.621185,8.0030574 38.654175,4.1438166 35.779676,3.0029091 32.189302,3.0000125 Z"
       id="path2" />
    <path
       style="opacity:0.2"
       d="m 32.066406,14.009103 c -0.547588,0.03275 -1.116096,0.1941 -1.675782,0.515625 -0.496448,0.285198 -1.561206,1.49072 -2.36328,2.679687 -2.146507,3.181897 -4.211853,4.331119 -8.445312,4.687499 -2.769724,0.233156 -3.684484,0.485238 -4.539061,1.253908 -1.423833,1.280692 -1.389788,3.155314 0.105468,5.910156 0.924993,1.704209 1.175781,2.739865 1.175781,4.863279 0,2.123422 -0.250788,3.155166 -1.175781,4.859376 -0.247212,0.455462 -0.439086,0.873314 -0.605469,1.273437 -0.192344,0.280498 -0.34446,0.585564 -0.4375,0.910156 -0.10376,0.361962 -0.122778,0.74517 -0.08203,1.128906 -0.03757,0.959698 0.297894,1.738596 1.015625,2.42578 1.429896,1.133016 2.769858,0.89251 4.304687,1.07422 3.909547,0.233674 5.865041,1.364096 8.374998,4.843749 3.442264,4.772154 5.430922,4.756796 8.707032,-0.0664 2.161457,-3.182181 4.140143,-4.945831 7.999999,-5.210937 3.612639,-0.248126 4.966929,-0.95994 5.445311,-2.851562 0.453098,-1.791592 -0.300968,-3.119307 -2.16797,-3.800781 -1.845093,-0.673466 -3.433355,0.22121 -5.171873,2.914061 -1.644534,2.547282 -3.424266,4.60675 -5.527343,5.144532 -2.103258,0.537826 -8.817614,0.439848 -10.363281,-0.15234 -2.153722,-0.825176 -4.229886,-2.585806 -5.398434,-4.574228 -0.78264,-1.002114 -1.295766,-2.155411 -1.78125,-3.175781 -2.217772,-4.11935 -1.955114,-6.503826 1.277344,-11.601561 2.974792,-4.691378 5.756138,-6.41797 10.343749,-6.41797 1.812038,0 3.897036,-0.914424 4.285156,-1.882812 1.032982,-2.577364 -0.927904,-4.891918 -3.300782,-4.749999 z m 12.863281,7.992187 a 2.9999997,2.9999997 0 0 0 -1.429688,0.402344 2.9999997,2.9999997 0 0 0 -1.097656,4.097656 2.9999997,2.9999997 0 0 0 4.097656,1.097656 2.9999997,2.9999997 0 0 0 1.097655,-4.097656 2.9999997,2.9999997 0 0 0 -2.667967,-1.5 z"
       id="path3" />
    <path
       style="fill:#6dc381"
       d="m 32.066834,13.006197 c -0.547588,0.03275 -1.117598,0.195614 -1.677284,0.51714 -0.496448,0.285198 -1.560218,1.491774 -2.362292,2.680742 -2.146507,3.181896 -4.212157,4.328629 -8.445615,4.685008 -2.769724,0.233155 -3.683955,0.486443 -4.538533,1.255113 -1.423832,1.280692 -1.390948,3.157326 0.104308,5.912168 0.924994,1.70421 1.175508,2.737702 1.175508,4.861115 0,2.123422 -0.250514,3.156906 -1.175508,4.861116 -0.247212,0.455462 -0.436875,0.87176 -0.603259,1.271884 -0.192344,0.280498 -0.343898,0.586696 -0.436939,0.911288 -0.10376,0.361962 -0.12531,0.74279 -0.08456,1.126525 -0.03757,0.959698 0.297097,1.739178 1.014828,2.426364 1.429897,1.133016 2.772548,0.8945 4.307377,1.07621 3.909548,0.233674 5.862366,1.364692 8.372323,4.844346 3.442264,4.772153 5.43167,4.756121 8.70778,-0.06708 2.161457,-3.182182 4.141007,-4.948332 8.000863,-5.213438 3.612639,-0.248126 4.967855,-0.959638 5.446237,-2.85126 0.453098,-1.791591 -0.3036,-3.117407 -2.170602,-3.798881 -1.845093,-0.673466 -3.431461,0.219904 -5.169979,2.912756 -1.644534,2.547281 -3.422736,4.608569 -5.525813,5.146351 -2.103258,0.537826 -8.819664,0.438452 -10.365329,-0.15374 -2.153726,-0.825166 -4.22977,-2.584772 -5.398318,-4.573193 -0.78264,-1.002114 -1.2961,-2.157954 -1.781584,-3.178324 -2.217772,-4.11935 -1.955466,-6.50018 1.276992,-11.597915 2.974792,-4.691378 5.757986,-6.418125 10.345597,-6.418125 1.812038,0 3.896706,-0.915679 4.284826,-1.884066 1.032982,-2.577364 -0.92813,-4.894016 -3.301008,-4.752097 z"
       id="path4" />
    <circle
       style="fill:#6dc381"
       cx="43.285"
       cy="-26.971001"
       r="3"
       transform="rotate(60)"
       id="circle4" />
    <path
       style="opacity:0.1;fill:#ffffff"
       d="M 32.1875,3 C 31.674594,2.9995849 31.149912,3.021068 30.59375,3.0625 26.781405,3.3464578 24.905091,4.1424033 16.425781,9.0820312 9.3529972,13.202286 6.7869369,15.592514 5.1875,19.539062 4.2897163,21.754307 4.1846262,22.814319 4.046875,31.070312 4.008943,33.343851 4.000995,35.002349 4.011719,36.421875 4.014969,35.910586 4.02412,35.288424 4.029297,34.746094 4.034687,33.869836 4.027907,33.207082 4.046875,32.070312 4.1846262,23.81432 4.2897163,22.754307 5.1875,20.539062 6.7869369,16.592513 9.3529972,14.202286 16.425781,10.082031 24.905091,5.1424033 26.781405,4.3464578 30.59375,4.0625 31.149912,4.021068 31.674594,3.9995849 32.1875,4 c 3.590374,0.0029 6.466584,1.1446654 13.433594,5.0039062 7.716103,4.2741918 10.227794,6.3057188 12.085937,9.7773438 1.841078,3.439735 2.263979,5.941322 2.28711,13.732422 C 59.995957,32.401899 60,32.297859 60,32.175781 60,23.821548 59.602757,21.323085 57.707031,17.78125 55.848888,14.309625 53.337197,12.278098 45.621094,8.0039062 38.654084,4.1446654 35.777874,3.0028966 32.1875,3 Z"
       id="path5" />
    <path
       style="opacity:0.2;fill:#ffffff"
       d="m 32.066406,13.005859 c -0.547588,0.03275 -1.118048,0.196052 -1.677734,0.517579 -0.496448,0.285197 -1.559254,1.490719 -2.361328,2.679687 -2.146507,3.181896 -4.211855,4.329168 -8.445313,4.685547 -2.769724,0.233155 -3.684484,0.487189 -4.539062,1.255859 -0.812272,0.730613 -1.132829,1.663082 -0.996094,2.833985 0.105204,-0.715711 0.429763,-1.324588 0.996094,-1.833985 0.854578,-0.76867 1.769338,-1.022704 4.539062,-1.255859 4.233458,-0.356379 6.298806,-1.503651 8.445313,-4.685547 0.802074,-1.188968 1.86488,-2.39449 2.361328,-2.679687 0.559686,-0.321527 1.130146,-0.484829 1.677734,-0.517579 1.760464,-0.105291 3.290415,1.143981 3.542969,2.847657 0.31459,-2.188593 -1.45243,-3.972689 -3.542969,-3.847657 z M 44.929688,21 A 2.9999998,2.9999998 0 0 0 43.5,21.402344 2.9999998,2.9999998 0 0 0 42.044922,24.503906 2.9999998,2.9999998 0 0 1 43.5,22.402344 2.9999998,2.9999998 0 0 1 44.929688,22 2.9999998,2.9999998 0 0 1 47.597656,23.5 2.9999998,2.9999998 0 0 1 47.955078,24.496094 2.9999998,2.9999998 0 0 0 47.597656,22.5 2.9999998,2.9999998 0 0 0 44.929688,21 Z M 16.302734,33.417969 c -0.04338,1.77305 -0.312916,2.807569 -1.15625,4.361328 -0.247212,0.455462 -0.435178,0.87136 -0.601562,1.271484 -0.192344,0.280498 -0.344459,0.585563 -0.4375,0.910157 -0.10376,0.361961 -0.124736,0.743218 -0.08398,1.126953 -0.0037,0.09337 0.01224,0.177513 0.01562,0.267578 0.01691,-0.132867 0.03146,-0.26579 0.06836,-0.394531 0.09304,-0.324594 0.245156,-0.629659 0.4375,-0.910157 0.166384,-0.400124 0.35435,-0.816022 0.601562,-1.271484 0.924994,-1.70421 1.175782,-2.737906 1.175782,-4.861328 0,-0.187459 -0.01533,-0.328316 -0.01953,-0.5 z m 1.736328,0.09375 c -0.111548,1.640439 0.373756,3.199679 1.421876,5.146484 0.485482,1.02037 0.998608,2.175621 1.78125,3.177735 1.168547,1.988419 3.244711,3.749052 5.398437,4.574218 1.545665,0.592192 8.261976,0.692123 10.365234,0.154297 2.103077,-0.537782 3.880857,-2.599203 5.525391,-5.146484 1.738518,-2.692852 3.324829,-3.587529 5.169922,-2.914063 1.320616,0.482038 2.073896,1.291865 2.248047,2.355469 0.226569,-1.565046 -0.540188,-2.732083 -2.248047,-3.355469 -1.845093,-0.673466 -3.431404,0.221211 -5.169922,2.914063 -1.644534,2.547281 -3.422314,4.608702 -5.525391,5.146484 -2.103258,0.537826 -8.819569,0.437895 -10.365234,-0.154297 -2.153726,-0.825166 -4.22989,-2.585799 -5.398437,-4.574218 -0.782641,-1.002114 -1.295767,-2.157365 -1.78125,-3.177735 -0.834175,-1.549417 -1.315579,-2.851939 -1.421876,-4.146484 z"
       id="path6" />
  </g>
</svg>
