<?xml version="1.0" encoding="UTF-8" standalone="no"?>
<svg
   width="62"
   height="62"
   version="1"
   id="svg4"
   sodipodi:docname="youtube-music-desktop-app.svg"
   inkscape:version="1.4 (e7c3feb100, 2024-10-09)"
   xmlns:inkscape="http://www.inkscape.org/namespaces/inkscape"
   xmlns:sodipodi="http://sodipodi.sourceforge.net/DTD/sodipodi-0.dtd"
   xmlns="http://www.w3.org/2000/svg"
   xmlns:svg="http://www.w3.org/2000/svg">
  <defs
     id="defs4" />
  <sodipodi:namedview
     id="namedview4"
     pagecolor="#ffffff"
     bordercolor="#000000"
     borderopacity="0.25"
     inkscape:showpageshadow="2"
     inkscape:pageopacity="0.0"
     inkscape:pagecheckerboard="0"
     inkscape:deskcolor="#d1d1d1"
     inkscape:zoom="11.78125"
     inkscape:cx="31.95756"
     inkscape:cy="32"
     inkscape:window-width="1920"
     inkscape:window-height="994"
     inkscape:window-x="0"
     inkscape:window-y="0"
     inkscape:window-maximized="1"
     inkscape:current-layer="svg4" />
  <g
     id="g4"
     transform="translate(-0.5,-1)">
    <ellipse
       style="opacity:0.2;stroke-width:0.982303"
       cx="31.499998"
       cy="32.491234"
       id="circle1"
       rx="27.499998"
       ry="27.508766" />
    <ellipse
       style="fill:#fa2235;stroke-width:0.982303"
       cx="31.499998"
       cy="31.508766"
       id="circle2"
       rx="27.499998"
       ry="27.508766" />
    <path
       style="opacity:0.2;stroke-width:1.36818"
       d="M 47.214284,32.491224 35.42857,39.368416 23.642856,46.245607 V 32.491224 18.736841 l 11.785714,6.877191 z"
       id="path2" />
    <path
       style="fill:#ffffff;stroke-width:1.36818"
       d="M 47.214284,31.508768 35.42857,38.38596 23.642856,45.263153 V 31.508768 17.754385 l 11.785714,6.877191 z"
       id="path3" />
    <path
       style="opacity:0.2;fill:#ffffff;stroke-width:0.982303"
       d="M 31.5,4 A 27.5,27.508768 0 0 0 4,31.508768 27.5,27.508768 0 0 0 4.0172646,31.992322 27.5,27.508768 0 0 1 31.5,4.982456 27.5,27.508768 0 0 1 58.975063,31.992322 27.5,27.508768 0 0 0 59,31.508768 27.5,27.508768 0 0 0 31.5,4 Z"
       id="path4" />
  </g>
</svg>
