<?xml version="1.0" encoding="UTF-8" standalone="no"?>
<svg
   clip-rule="evenodd"
   fill-rule="evenodd"
   stroke-linejoin="round"
   stroke-miterlimit="2"
   viewBox="0 0 62 62"
   version="1.1"
   id="svg6"
   sodipodi:docname="youtrack.svg"
   width="62"
   height="62"
   inkscape:version="1.4 (e7c3feb100, 2024-10-09)"
   xmlns:inkscape="http://www.inkscape.org/namespaces/inkscape"
   xmlns:sodipodi="http://sodipodi.sourceforge.net/DTD/sodipodi-0.dtd"
   xmlns="http://www.w3.org/2000/svg"
   xmlns:svg="http://www.w3.org/2000/svg">
  <defs
     id="defs6" />
  <sodipodi:namedview
     id="namedview6"
     pagecolor="#ffffff"
     bordercolor="#000000"
     borderopacity="0.25"
     inkscape:showpageshadow="2"
     inkscape:pageopacity="0.0"
     inkscape:pagecheckerboard="0"
     inkscape:deskcolor="#d1d1d1"
     inkscape:zoom="7.8333333"
     inkscape:cx="53.617021"
     inkscape:cy="23.489362"
     inkscape:window-width="1920"
     inkscape:window-height="998"
     inkscape:window-x="0"
     inkscape:window-y="0"
     inkscape:window-maximized="1"
     inkscape:current-layer="svg6" />
  <g
     id="g6"
     transform="translate(0.668,0.668)">
    <g
       transform="matrix(1.4,0,0,1.4,-3.268,-3.268)"
       id="g4">
      <path
         d="M 4,24 V 9.749 C 4,6.575 6.575,4 9.749,4 H 24 v 20 z"
         fill="#cf4f8c"
         id="path1" />
      <path
         d="M 24,4 H 38.251 C 41.425,4 44,6.575 44,9.749 V 24 H 24 Z"
         fill="#2086e7"
         id="path2" />
      <path
         d="M 24,44 H 9.749 C 6.575,44 4,41.425 4,38.251 V 24 h 20 z"
         fill="#2086e7"
         id="path3" />
      <path
         d="M 44,24 V 38.251 C 44,41.425 41.425,44 38.251,44 H 24 V 24 Z"
         fill="#6655e4"
         id="path4" />
    </g>
    <path
       d="m 10.732,10.732 h 39.2 v 39.2 h -39.2 z"
       fill="#242424"
       stroke-width="1.4"
       id="path5" />
    <path
       d="m 19.132,42.932 c -0.7728,0 -1.4,-0.6272 -1.4,-1.4 0,-0.7728 0.6272,-1.4 1.4,-1.4 h 11.2 c 0.7728,0 1.4,0.6272 1.4,1.4 0,0.7728 -0.6272,1.4 -1.4,1.4 z m 4.2,-20.5338 3.08,-4.1062 c 0.463399,-0.6188 1.3412,-0.743399 1.96,-0.28 0.6188,0.463399 0.743399,1.3412 0.28,1.96 l -3.92,5.227601 V 30.332 c 0,0.7728 -0.6272,1.4 -1.4,1.4 -0.7728,0 -1.4,-0.6272 -1.4,-1.4 V 25.199601 L 18.012,19.972 c -0.463399,-0.6188 -0.3388,-1.496601 0.28,-1.96 0.6188,-0.463399 1.496601,-0.3388 1.96,0.28 z m 15.4,-4.6662 c 0.7728,0 1.4,0.6272 1.4,1.4 0,0.7728 -0.6272,1.4 -1.4,1.4 h -1.4 v 9.8 c 0,0.7728 -0.6272,1.4 -1.4,1.4 -0.7728,0 -1.4,-0.6272 -1.4,-1.4 v -9.8 h -1.4 c -0.7728,0 -1.4,-0.6272 -1.4,-1.4 0,-0.7728 0.6272,-1.4 1.4,-1.4 z"
       fill="#ffffff"
       id="path6"
       style="stroke-width:1.4" />
  </g>
</svg>
