<?xml version="1.0" encoding="UTF-8" standalone="no"?>
<svg
   width="62"
   height="62"
   version="1.1"
   id="svg8"
   sodipodi:docname="yubioath.svg"
   inkscape:version="1.4 (e7c3feb100, 2024-10-09)"
   xmlns:inkscape="http://www.inkscape.org/namespaces/inkscape"
   xmlns:sodipodi="http://sodipodi.sourceforge.net/DTD/sodipodi-0.dtd"
   xmlns="http://www.w3.org/2000/svg"
   xmlns:svg="http://www.w3.org/2000/svg">
  <defs
     id="defs8" />
  <sodipodi:namedview
     id="namedview8"
     pagecolor="#ffffff"
     bordercolor="#000000"
     borderopacity="0.25"
     inkscape:showpageshadow="2"
     inkscape:pageopacity="0.0"
     inkscape:pagecheckerboard="0"
     inkscape:deskcolor="#d1d1d1"
     inkscape:zoom="4.1432038"
     inkscape:cx="18.826011"
     inkscape:cy="42.961922"
     inkscape:window-width="1920"
     inkscape:window-height="996"
     inkscape:window-x="0"
     inkscape:window-y="0"
     inkscape:window-maximized="1"
     inkscape:current-layer="svg8" />
  <path
     style="opacity:0.2;stroke-width:0.982299"
     d="M 31,3.982456 A 27.499998,27.508772 0 0 0 3.500002,31.491228 27.499998,27.508772 0 0 0 31,59 27.499998,27.508772 0 0 0 58.499998,31.491228 27.499998,27.508772 0 0 0 31,3.982456 Z"
     id="path1" />
  <path
     style="fill:#9aca3c;stroke-width:0.982299"
     d="M 31,3 A 27.499998,27.508772 0 0 0 3.500002,30.508772 27.499998,27.508772 0 0 0 31,58.017544 27.499998,27.508772 0 0 0 58.499998,30.508772 27.499998,27.508772 0 0 0 31,3 Z"
     id="path2" />
  <path
     style="opacity:0.2;fill:#ffffff;stroke-width:0.982299"
     d="M 31,3 A 27.499998,27.508772 0 0 0 3.500002,30.508772 27.499998,27.508772 0 0 0 3.521102,30.907895 27.499998,27.508772 0 0 1 30.999999,3.982456 27.499998,27.508772 0 0 1 58.478896,31.076754 27.499998,27.508772 0 0 0 58.499996,30.508772 27.499998,27.508772 0 0 0 30.999998,3 Z"
     id="path7" />
  <path
     d="M 31.232758,30.139785 36.586208,15 H 44.5 L 31.232758,47 H 22.969829 L 26.810346,38.168457 17.5,15 h 8.030171 z"
     fill="#98c93c"
     id="path1-3-6"
     style="fill:#ffffff;fill-opacity:1;stroke-width:0.115535;stroke:#ffffff;stroke-opacity:1" />
  <g
     id="g1"
     transform="translate(32,-49.999996)">
    <ellipse
       style="opacity:0.2;stroke-width:0.846117"
       cx="16.5"
       cy="98.424255"
       id="circle7-3"
       rx="13.5"
       ry="13.575741" />
    <ellipse
       style="fill:#2b3955;stroke-width:0.846117;fill-opacity:1"
       cx="16.5"
       cy="97.575737"
       id="circle8-6"
       rx="13.5"
       ry="13.575741" />
    <path
       style="fill:#ffffff;stroke-width:0.846117"
       d="M 12.703129,91.636351 A 6.3281247,6.3636282 0 0 0 6.375,97.999984 a 6.3281247,6.3636282 0 0 0 6.328129,6.363606 6.3281247,6.3636282 0 0 0 6.32812,-6.363606 6.3281247,6.3636282 0 0 0 -6.32812,-6.363633 z m 0,2.545455 a 3.7968747,3.8181768 0 0 1 3.796869,3.818178 3.7968747,3.8181768 0 0 1 -3.796869,3.818146 3.7968747,3.8181768 0 0 1 -3.7968787,-3.818146 3.7968747,3.8181768 0 0 1 3.7968787,-3.818178 z"
       id="path8-7" />
    <rect
       style="fill:#ffffff;stroke-width:0.846117"
       width="10.125"
       height="2.5454514"
       x="16.5"
       y="96.727242"
       id="rect8" />
    <rect
       style="fill:#ffffff;stroke-width:0.846117"
       width="2.5454514"
       height="2.53125"
       x="99.272675"
       y="-24.9375"
       transform="rotate(90)"
       id="rect9" />
  </g>
</svg>
