<?xml version="1.0" encoding="UTF-8" standalone="no"?>
<svg
   width="62"
   height="62"
   version="1.1"
   id="svg6"
   sodipodi:docname="yuzu-ea.svg"
   inkscape:version="1.4 (unknown)"
   xmlns:inkscape="http://www.inkscape.org/namespaces/inkscape"
   xmlns:sodipodi="http://sodipodi.sourceforge.net/DTD/sodipodi-0.dtd"
   xmlns="http://www.w3.org/2000/svg"
   xmlns:svg="http://www.w3.org/2000/svg">
  <defs
     id="defs6" />
  <sodipodi:namedview
     id="namedview6"
     pagecolor="#ffffff"
     bordercolor="#000000"
     borderopacity="0.25"
     inkscape:showpageshadow="2"
     inkscape:pageopacity="0.0"
     inkscape:pagecheckerboard="0"
     inkscape:deskcolor="#d1d1d1"
     inkscape:zoom="8.5"
     inkscape:cx="33.941177"
     inkscape:cy="31.529412"
     inkscape:window-width="1920"
     inkscape:window-height="998"
     inkscape:window-x="0"
     inkscape:window-y="0"
     inkscape:window-maximized="1"
     inkscape:current-layer="svg6" />
  <g
     id="g6"
     transform="matrix(0.98214286,0,0,0.98214286,-0.42857152,-0.91964295)">
    <circle
       style="opacity:0.2"
       cx="32"
       cy="33"
       r="28"
       id="circle1" />
    <circle
       style="fill:#354864;fill-opacity:1"
       cx="32"
       cy="32"
       r="28"
       id="circle2" />
    <path
       style="opacity:0.2"
       d="M 38,21 A 16,16 0 0 1 54,37 16,16 0 0 1 38,53 H 34 V 52.46875 48.300782 25.703124 21.519532 21 Z m 0,4 V 49 A 12,12 0 0 0 50,37 12,12 0 0 0 38,25 Z"
       id="path2" />
    <path
       style="fill:#e5e5e5;fill-opacity:1"
       d="M 38,20 A 16,16 0 0 1 54,36 16,16 0 0 1 38,52 H 34 V 51.46875 47.300782 24.703124 20.519532 20 Z m 0,4 V 48 A 12,12 0 0 0 50,36 12,12 0 0 0 38,24 Z"
       id="path3" />
    <path
       style="opacity:0.2"
       d="M 26,13 A 16,16 0 0 0 10,29 16,16 0 0 0 26,45 h 4 V 44.46875 40.300782 17.703124 13.519532 13 Z m 0,4 V 41 A 12,12 0 0 1 14,29 12,12 0 0 1 26,17 Z"
       id="path4" />
    <path
       style="fill:#ffe11a;fill-opacity:1"
       d="M 26,12 A 16,16 0 0 0 10,28 16,16 0 0 0 26,44 h 4 V 43.46875 39.300782 16.703124 12.519532 12 Z m 0,4 V 40 A 12,12 0 0 1 14,28 12,12 0 0 1 26,16 Z"
       id="path5" />
    <path
       style="opacity:0.1;fill:#ffffff"
       d="M 32,4 A 28,28 0 0 0 4,32 28,28 0 0 0 4.0175781,32.492188 28,28 0 0 1 32,5 28,28 0 0 1 59.974609,32.492188 28,28 0 0 0 60,32 28,28 0 0 0 32,4 Z"
       id="path6" />
  </g>
</svg>
