<?xml version="1.0" encoding="UTF-8" standalone="no"?>
<svg
   width="62"
   height="62"
   version="1.1"
   id="svg8"
   sodipodi:docname="zenbooru.svg"
   inkscape:version="1.4 (unknown)"
   xmlns:inkscape="http://www.inkscape.org/namespaces/inkscape"
   xmlns:sodipodi="http://sodipodi.sourceforge.net/DTD/sodipodi-0.dtd"
   xmlns="http://www.w3.org/2000/svg"
   xmlns:svg="http://www.w3.org/2000/svg">
  <defs
     id="defs8" />
  <sodipodi:namedview
     id="namedview8"
     pagecolor="#ffffff"
     bordercolor="#000000"
     borderopacity="0.25"
     inkscape:showpageshadow="2"
     inkscape:pageopacity="0.0"
     inkscape:pagecheckerboard="0"
     inkscape:deskcolor="#d1d1d1"
     inkscape:zoom="7.0710678"
     inkscape:cx="25.102291"
     inkscape:cy="40.65864"
     inkscape:window-width="1920"
     inkscape:window-height="998"
     inkscape:window-x="0"
     inkscape:window-y="0"
     inkscape:window-maximized="1"
     inkscape:current-layer="svg8" />
  <path
     style="opacity:0.2"
     d="M 25.396374,7.5 C 16.803036,7.5 11.298333,9.400998 7.9178591,11.283203 6.2276219,12.224305 5.072165,13.183888 4.3280153,13.929688 3.5838656,14.675487 3.1991091,15.296875 3.1991091,15.296875 2.964679,15.688498 2.9362619,16.170403 3.1209841,16.587891 l 5.5976562,12.626953 c 0.1025694,0.22969 0.2521727,0.391339 0.416016,0.523437 -0.079717,1.6572 -0.134766,3.238719 -0.134766,4.517578 0,6.126024 2.6325387,12.422945 4.0742187,15.419922 a 1.4068197,1.4996206 0 0 0 -0.681641,-0.1875 1.4068197,1.4996206 0 0 0 -0.980469,2.574219 c 0,0 0.392046,0.380525 0.980469,0.722656 0.588422,0.34213 1.475106,0.755473 2.791016,1.15625 2.631821,0.801552 6.97634,1.558594 14.103515,1.558594 6.434254,0 11.113998,-0.764255 14.210938,-1.541016 3.096939,-0.776761 4.705078,-1.615234 4.705078,-1.615234 a 1.4068426,1.4996451 0 0 0 -0.289063,-2.796875 c 1.440932,-1.718498 4.080079,-6.094935 4.080079,-15.291016 0,-5.175273 -0.540748,-11.287015 -0.826172,-14.160156 3.57284,0.836876 6.064453,1.486328 6.064453,1.486328 1.383661,0.370415 2.36292,-1.333325 1.349609,-2.347656 l -1.425781,-1.429687 1.0625,-0.53125 c 1.073405,-0.536716 1.019753,-2.089198 -0.08789,-2.550782 0,0 -16.912172,-7.222656 -32.734376,-7.222656 z"
     id="path1" />
  <path
     style="fill:#2d3d53;fill-opacity:1"
     d="m 25.397005,6.5 c -8.593338,0 -14.098134,1.9006763 -17.4786076,3.782881 -1.6902371,0.941102 -2.8456223,1.901122 -3.589772,2.646921 -0.7441497,0.745799 -1.1291515,1.367301 -1.1291515,1.367301 -0.23443,0.391623 -0.2640092,0.873092 -0.079287,1.29058 l 5.5992787,12.626304 c 0.6482237,1.451608 2.8255504,0.873124 2.6711394,-0.709681 0,0 -0.289064,-3.141623 1.260385,-6.24739 1.549449,-3.105768 4.735936,-6.239171 12.746015,-6.239171 10.822704,0 31.834961,5.56511 31.834961,5.56511 1.383661,0.370415 2.363917,-1.33392 1.350606,-2.348251 l -1.427159,-1.430324 1.063535,-0.531577 c 1.073405,-0.536716 1.020154,-2.089433 -0.08749,-2.551017 0,0 -16.912252,-7.221686 -32.734455,-7.221686 z"
     id="path2" />
  <path
     style="fill:#d9d9d9;fill-opacity:1"
     d="m 9.9989883,16.420668 c 0,0 5.5992787,-4.008351 19.5974757,-4.008351 13.998196,0 21.397243,5.010439 21.397243,5.010439 0,0 0.999871,8.818371 0.999871,15.832985 0,12.626305 -4.999356,16.233821 -4.999356,16.233821 l -15.997939,3.006263 -16.99781,-2.004176 c 0,0 -4.9993556,-8.818371 -4.9993556,-17.235908 0,-5.631142 0.9998709,-16.835073 0.9998709,-16.835073 z"
     id="path3" />
  <path
     style="fill:#3f5574;fill-opacity:1"
     d="m 12.39231,48.487474 a 1.4068197,1.4996206 0 0 0 -0.980828,2.574286 c 0,0 0.392405,0.381247 0.980828,0.723378 0.588422,0.34213 1.475468,0.756042 2.791378,1.156819 C 17.815509,53.743509 22.159021,54.5 29.286196,54.5 c 6.434254,0 11.115463,-0.763711 14.212403,-1.540472 3.096939,-0.776761 4.703583,-1.616617 4.703583,-1.616617 a 1.4068426,1.4996451 0 1 0 -1.258319,-2.682645 c 0,0 -1.206715,0.659613 -4.088162,1.382324 -2.881445,0.722709 -7.343649,1.458468 -13.569505,1.458468 -6.939616,0 -11.03618,-0.742979 -13.327734,-1.440898 -1.145778,-0.348959 -1.841246,-0.684781 -2.219915,-0.904953 -0.37867,-0.220171 -0.337935,-0.21379 -0.337935,-0.21379 A 1.4068197,1.4996206 0 0 0 12.39231,48.487474 Z"
     id="path4" />
  <ellipse
     style="opacity:0.1"
     cx="31.09589"
     cy="32.452"
     rx="12.998"
     ry="17.035"
     id="ellipse4" />
  <ellipse
     style="fill:#37c871"
     cx="31.09589"
     cy="31.452"
     rx="12.998"
     ry="17.035"
     id="ellipse5" />
  <ellipse
     style="fill:#2d3d53;fill-opacity:1"
     cx="30.99589"
     cy="31.452"
     rx="6.9990001"
     ry="10.021"
     id="ellipse6" />
  <path
     style="opacity:0.1;fill:#ffffff"
     d="m 25.396374,6.5 c -8.593338,0 -14.098041,1.9009985 -17.4785149,3.783203 -1.6902372,0.941102 -2.8456941,1.900686 -3.5898438,2.646485 -0.7441497,0.745797 -1.1289063,1.367187 -1.1289062,1.367187 -0.22198,0.370825 -0.2531039,0.821275 -0.099609,1.222656 0.028863,-0.07574 0.057255,-0.151902 0.099609,-0.222656 -10e-8,0 0.3847565,-0.621389 1.1289062,-1.367187 C 5.072165,13.183889 6.2276219,12.224305 7.9178591,11.283203 11.298333,9.400998 16.803036,7.5 25.396374,7.5 c 15.822203,0 32.734375,7.222656 32.734375,7.222656 0.384795,0.160354 0.634393,0.455673 0.761719,0.791016 0.246393,-0.660847 -0.0074,-1.476672 -0.761719,-1.791016 0,0 -16.912172,-7.222656 -32.734375,-7.222656 z m 32.425782,10.972656 -0.666016,0.332032 1.425781,1.429687 c 0.146919,0.147066 0.240609,0.310887 0.308594,0.478516 0.180806,-0.473927 0.131042,-1.038437 -0.308594,-1.478516 z M 11.390515,27.527344 c -0.0026,0.114971 -0.01998,0.285752 -0.01953,0.380859 0.02056,-0.11974 0.03077,-0.245526 0.01953,-0.380859 z m 1.001953,20.960937 a 1.4068197,1.4996206 0 0 0 -1.324219,2 1.4068197,1.4996206 0 0 1 1.324219,-1 1.4068197,1.4996206 0 0 1 1.007813,0.453125 c 0,0 -0.04078,-0.0073 0.33789,0.212891 0.378669,0.220172 1.074925,0.557291 2.220703,0.90625 2.291554,0.697919 6.388509,1.441406 13.328125,1.441406 6.225856,0 10.686915,-0.736275 13.56836,-1.458984 2.881447,-0.722711 4.08789,-1.382813 4.08789,-1.382813 a 1.4075638,1.5004139 0 0 1 1.955079,0.84375 1.4075638,1.5004139 0 0 0 -1.955079,-1.84375 c 0,0 -1.206443,0.660102 -4.08789,1.382813 -2.881445,0.722709 -7.342504,1.458984 -13.56836,1.458984 -6.939616,0 -11.036571,-0.743487 -13.328125,-1.441406 -1.145778,-0.348959 -1.842034,-0.686078 -2.220703,-0.90625 -0.37867,-0.220171 -0.33789,-0.212891 -0.33789,-0.212891 a 1.4068197,1.4996206 0 0 0 -1.007813,-0.453125 z"
     id="path8" />
  <text
     xml:space="preserve"
     style="font-size:18.6338px;font-family:'Blush Asliring';-inkscape-font-specification:'Blush Asliring';text-align:start;writing-mode:lr-tb;direction:ltr;text-anchor:start;fill:#ffffff;stroke:#ffffff;stroke-width:0;stroke-linecap:round;stroke-linejoin:round;paint-order:fill markers stroke"
     x="24.695044"
     y="37.919949"
     id="text8"
     transform="scale(1.0248644,0.97573884)"><tspan
       sodipodi:role="line"
       id="tspan8"
       x="24.695044"
       y="37.919949"
       style="stroke-width:0">Z</tspan></text>
</svg>
