<?xml version="1.0" encoding="UTF-8" standalone="no"?>
<svg
   width="62"
   height="62"
   version="1.1"
   id="svg5"
   sodipodi:docname="zenmap.svg"
   inkscape:version="1.4 (e7c3feb100, 2024-10-09)"
   xmlns:inkscape="http://www.inkscape.org/namespaces/inkscape"
   xmlns:sodipodi="http://sodipodi.sourceforge.net/DTD/sodipodi-0.dtd"
   xmlns="http://www.w3.org/2000/svg"
   xmlns:svg="http://www.w3.org/2000/svg">
  <defs
     id="defs5" />
  <sodipodi:namedview
     id="namedview5"
     pagecolor="#ffffff"
     bordercolor="#000000"
     borderopacity="0.25"
     inkscape:showpageshadow="2"
     inkscape:pageopacity="0.0"
     inkscape:pagecheckerboard="0"
     inkscape:deskcolor="#d1d1d1"
     inkscape:zoom="11.6875"
     inkscape:cx="31.914439"
     inkscape:cy="34.481283"
     inkscape:window-width="1920"
     inkscape:window-height="998"
     inkscape:window-x="0"
     inkscape:window-y="0"
     inkscape:window-maximized="1"
     inkscape:current-layer="svg5" />
  <ellipse
     style="opacity:0.2;stroke-width:0.9823"
     cx="31"
     cy="31.491228"
     id="circle1"
     rx="27.5"
     ry="27.508772" />
  <ellipse
     style="fill:#00a3a3;fill-opacity:1;stroke-width:0.9823"
     cx="31"
     cy="30.508772"
     id="circle2"
     rx="27.5"
     ry="27.508772" />
  <path
     style="opacity:0.2;fill:#ffffff;stroke-width:0.9823"
     d="M 31,3 A 27.5,27.508772 0 0 0 3.4999999,30.508772 27.5,27.508772 0 0 0 3.5057547,30.990405 27.5,27.508772 0 0 1 31,3.9824562 27.5,27.508772 0 0 1 58.494246,30.988487 27.5,27.508772 0 0 0 58.5,30.508772 27.5,27.508772 0 0 0 31,3 Z"
     id="path5" />
  <g
     id="g1"
     transform="translate(0.78012007,-2.5729366)">
    <path
       d="m 28.719281,24.827028 c 4.740445,-0.581492 9.063725,2.7914 9.644072,7.531845 0.583795,4.741586 -2.792549,9.062571 -7.531847,9.645218 -4.741584,0.583789 -9.061423,-2.791407 -9.645216,-7.534147 -0.579191,-4.739291 2.795996,-9.057974 7.532991,-9.642916 z"
       id="path2-3"
       style="stroke-width:1.14917;stroke:#e6f4fe;stroke-opacity:1;fill:#cee1ff;fill-opacity:1" />
    <path
       d="m 49.445058,35.984581 c 0,0 -6.640063,-10.793264 -19.138737,-11.020805 C 17.806499,24.736235 11.0021,35.984581 11.0021,35.984581"
       stroke-width="3.79235"
       id="path3-6"
       style="fill:none;stroke:#e7f4fe;stroke-opacity:1" />
    <path
       d="m 45.512504,37.265936 c 0,0 -6.551575,6.890589 -15.738261,7.031941 -9.322291,0.1425 -15.734814,-7.165248 -15.734814,-7.165248"
       stroke-width="1.52843"
       id="path4-7"
       style="fill:none;stroke:#e6f4fe;stroke-opacity:1" />
  </g>
</svg>
