<?xml version="1.0" encoding="UTF-8" standalone="no"?>
<svg
   width="62"
   height="62"
   version="1.1"
   id="svg5"
   sodipodi:docname="zerotier-gui.svg"
   inkscape:version="1.4 (unknown)"
   xmlns:inkscape="http://www.inkscape.org/namespaces/inkscape"
   xmlns:sodipodi="http://sodipodi.sourceforge.net/DTD/sodipodi-0.dtd"
   xmlns:xlink="http://www.w3.org/1999/xlink"
   xmlns="http://www.w3.org/2000/svg"
   xmlns:svg="http://www.w3.org/2000/svg">
  <defs
     id="defs5">
    <linearGradient
       id="linearGradient5"
       inkscape:collect="always">
      <stop
         style="stop-color:#fd933a;stop-opacity:1"
         offset="0"
         id="stop5" />
      <stop
         style="stop-color:#ffdf80;stop-opacity:1;"
         offset="1"
         id="stop6" />
    </linearGradient>
    <linearGradient
       inkscape:collect="always"
       xlink:href="#linearGradient5"
       id="linearGradient6"
       x1="31.5"
       y1="58.034485"
       x2="31.5"
       y2="3.9655163"
       gradientUnits="userSpaceOnUse" />
  </defs>
  <sodipodi:namedview
     id="namedview5"
     pagecolor="#ffffff"
     bordercolor="#000000"
     borderopacity="0.25"
     inkscape:showpageshadow="2"
     inkscape:pageopacity="0.0"
     inkscape:pagecheckerboard="0"
     inkscape:deskcolor="#d1d1d1"
     inkscape:zoom="11.75"
     inkscape:cx="32"
     inkscape:cy="32"
     inkscape:window-width="1920"
     inkscape:window-height="998"
     inkscape:window-x="0"
     inkscape:window-y="0"
     inkscape:window-maximized="1"
     inkscape:current-layer="svg5" />
  <g
     id="g5"
     transform="translate(-0.5)">
    <rect
       style="opacity:0.2;stroke-width:0.965215"
       width="55"
       height="55.034485"
       x="4"
       y="3.9655163"
       rx="6.875"
       ry="6.8793106"
       id="rect1" />
    <rect
       style="fill:url(#linearGradient6);stroke-width:0.965215"
       width="55"
       height="55.034485"
       x="4"
       y="3"
       rx="6.875"
       ry="6.8793106"
       id="rect2" />
    <path
       style="opacity:0.1;stroke-width:0.965215"
       d="m 10.754384,10.724137 v 2.896546 h 19.298239 v 4.93131 A 14.956139,14.965516 0 0 0 16.543855,33.413789 14.956139,14.965516 0 0 0 30.052623,48.275585 v 4.931302 h 2.89474 V 48.275585 A 14.956139,14.965516 0 0 0 46.456131,33.413789 14.956139,14.965516 0 0 0 32.947363,18.518045 V 13.620683 H 52.245602 V 10.724137 Z M 32.947363,21.435343 A 12.061399,12.068961 0 0 1 43.561392,33.413789 12.061399,12.068961 0 0 1 32.947363,45.367714 Z m -2.89474,0.02455 V 45.367714 A 12.061399,12.068961 0 0 1 19.438595,33.413789 12.061399,12.068961 0 0 1 30.052623,21.459856 Z"
       id="path2" />
    <rect
       style="fill:#3e3e3e;stroke-width:0.965215"
       width="2.8947356"
       height="41.517227"
       x="30.05262"
       y="10.724137"
       id="rect3" />
    <rect
       style="fill:#3e3e3e;stroke-width:0.965215"
       width="2.8965507"
       height="41.491211"
       x="9.7586203"
       y="-52.24559"
       transform="rotate(90)"
       id="rect4" />
    <path
       style="fill:#3e3e3e;stroke-width:0.965215"
       d="M 31.499994,17.482756 A 14.956139,14.965516 0 0 0 16.543855,32.448271 14.956139,14.965516 0 0 0 31.499994,47.413786 14.956139,14.965516 0 0 0 46.456131,32.448271 14.956139,14.965516 0 0 0 31.499994,17.482756 Z m 0,2.896555 A 12.061399,12.068961 0 0 1 43.561392,32.448271 12.061399,12.068961 0 0 1 31.499994,44.517232 12.061399,12.068961 0 0 1 19.438595,32.448271 12.061399,12.068961 0 0 1 31.499994,20.379311 Z"
       id="path4" />
    <path
       style="opacity:0.2;fill:#ffffff;stroke-width:0.965215"
       d="M 10.875002,3 C 7.0662491,3 4,6.0681715 4,9.8793126 V 10.844823 C 4,7.0336889 7.0662491,3.9655174 10.875002,3.9655174 h 41.24999 c 3.808746,0 6.874994,3.0681715 6.874994,6.8793056 V 9.8793126 C 58.999986,6.0681715 55.933738,3 52.124992,3 Z"
       id="path5" />
  </g>
</svg>
