<?xml version="1.0" encoding="UTF-8" standalone="no"?>
<svg
   width="62"
   height="62"
   version="1.1"
   id="svg7"
   sodipodi:docname="ZeroNet.svg"
   inkscape:version="1.4 (unknown)"
   xmlns:inkscape="http://www.inkscape.org/namespaces/inkscape"
   xmlns:sodipodi="http://sodipodi.sourceforge.net/DTD/sodipodi-0.dtd"
   xmlns="http://www.w3.org/2000/svg"
   xmlns:svg="http://www.w3.org/2000/svg">
  <defs
     id="defs7" />
  <sodipodi:namedview
     id="namedview7"
     pagecolor="#ffffff"
     bordercolor="#000000"
     borderopacity="0.25"
     inkscape:showpageshadow="2"
     inkscape:pageopacity="0.0"
     inkscape:pagecheckerboard="0"
     inkscape:deskcolor="#d1d1d1"
     inkscape:zoom="11.75"
     inkscape:cx="32"
     inkscape:cy="32"
     inkscape:window-width="1920"
     inkscape:window-height="998"
     inkscape:window-x="0"
     inkscape:window-y="0"
     inkscape:window-maximized="1"
     inkscape:current-layer="svg7" />
  <g
     id="g7"
     transform="matrix(1,0,0,0.98244447,-1,-0.92911229)">
    <path
       style="opacity:0.2;fill-rule:evenodd"
       d="M 12,37.886 V 18.659835 c 0,-2.744474 0.724628,-2.816385 2.928123,-4.088525 L 30.151364,5.7825082 c 1.964554,-1.0161378 1.915194,-1.0354726 3.548134,-0.099786 L 52,16.16905 47.166368,25.05368 32.00827,15.759872 22,21.788436 V 32.18702 Z"
       id="path1" />
    <path
       style="opacity:0.2;fill-rule:evenodd"
       d="m 51.984838,27.803207 v 19.405776 c 0.0152,2.841946 -0.576664,2.83122 -2.79821,4.114008 l -15.69027,9.060038 c -1.553896,0.855362 -1.64704,0.791978 -3.044318,-0.0086 L 12.015162,49.810941 18.062852,42.205951 31.987594,50.209207 42,44.175129 V 33.642607 Z"
       id="path2" />
    <path
       style="fill:#9978d3;fill-rule:evenodd;fill-opacity:1"
       d="M 12,36.886 V 17.659836 c 0,-2.744475 0.724628,-2.816386 2.928123,-4.088525 L 30.151364,4.7825088 C 32.115918,3.766371 32.066558,3.7470362 33.699498,4.6827228 L 52,15.169051 47.166368,24.05368 32.00827,14.759873 22,20.788436 V 31.18702 Z"
       id="path3" />
    <path
       style="fill:#7e36f4;fill-rule:evenodd"
       d="m 51.984838,26.8032 v 19.405776 c 0.0152,2.841946 -0.576664,2.83122 -2.79821,4.114008 l -15.69027,9.060038 c -1.553896,0.855362 -1.64704,0.791978 -3.044318,-0.0086 L 12.015162,48.810934 18.062852,41.205944 31.987594,49.2092 42,43.175122 V 32.6426 Z"
       id="path4" />
    <path
       style="opacity:0.2;fill-rule:evenodd"
       d="M 12,49.800007 52,26.435345 V 16.200006 L 12,39.276207 Z"
       id="path5" />
    <path
       style="opacity:0.2;fill:#ffffff;fill-rule:evenodd"
       d="M 32.050781,4 C 31.613433,4.01489 31.13462,4.2731812 30.152344,4.78125 L 14.929688,13.570312 C 12.726191,14.842453 12,14.915682 12,17.660156 v 1 c 0,-2.744474 0.726191,-2.817704 2.929688,-4.089844 L 30.152344,5.78125 C 31.13462,5.2731812 31.613433,5.01489 32.050781,5 32.488127,4.98511 32.882749,5.2157503 33.699219,5.6835938 L 51.585938,15.929688 52,15.167969 33.699219,4.6835938 C 32.882749,4.2157504 32.488127,3.9851098 32.050781,4 Z"
       id="path6" />
    <path
       style="fill:#a551ff;fill-rule:evenodd"
       d="M 12,48.8 52,25.435338 V 15.199999 L 12,38.2762 Z"
       id="path7" />
  </g>
</svg>
