<?xml version="1.0" encoding="UTF-8" standalone="no"?>
<svg
   width="62"
   height="62"
   viewBox="0 0 16.404166 16.404167"
   version="1.1"
   id="svg1829"
   inkscape:version="1.4 (e7c3feb100, 2024-10-09)"
   sodipodi:docname="zettlr.svg"
   xmlns:inkscape="http://www.inkscape.org/namespaces/inkscape"
   xmlns:sodipodi="http://sodipodi.sourceforge.net/DTD/sodipodi-0.dtd"
   xmlns:xlink="http://www.w3.org/1999/xlink"
   xmlns="http://www.w3.org/2000/svg"
   xmlns:svg="http://www.w3.org/2000/svg"
   xmlns:rdf="http://www.w3.org/1999/02/22-rdf-syntax-ns#"
   xmlns:cc="http://creativecommons.org/ns#"
   xmlns:dc="http://purl.org/dc/elements/1.1/">
  <defs
     id="defs1823">
    <linearGradient
       id="linearGradient3"
       inkscape:collect="always">
      <stop
         style="stop-color:#008080;stop-opacity:1"
         offset="0"
         id="stop3" />
      <stop
         style="stop-color:#b380ff;stop-opacity:1"
         offset="1"
         id="stop4" />
    </linearGradient>
    <linearGradient
       id="linearGradient1"
       inkscape:collect="always">
      <stop
         style="stop-color:#eff2f6;stop-opacity:1;"
         offset="0"
         id="stop1" />
      <stop
         style="stop-color:#b7c6cd;stop-opacity:1;"
         offset="1"
         id="stop2" />
    </linearGradient>
    <linearGradient
       inkscape:collect="always"
       xlink:href="#linearGradient1"
       id="linearGradient2"
       x1="9.4492111"
       y1="2.5786898"
       x2="12.377561"
       y2="10.061911"
       gradientUnits="userSpaceOnUse" />
    <linearGradient
       inkscape:collect="always"
       xlink:href="#linearGradient3"
       id="linearGradient4"
       x1="8.3206625"
       y1="15.316063"
       x2="8.3206625"
       y2="1.2680786"
       gradientUnits="userSpaceOnUse" />
  </defs>
  <sodipodi:namedview
     id="base"
     pagecolor="#ffffff"
     bordercolor="#666666"
     borderopacity="1.0"
     inkscape:pageopacity="0.0"
     inkscape:pageshadow="2"
     inkscape:zoom="5.6"
     inkscape:cx="13.125"
     inkscape:cy="28.571429"
     inkscape:document-units="px"
     inkscape:current-layer="layer1"
     inkscape:document-rotation="0"
     showgrid="false"
     units="px"
     inkscape:window-width="1920"
     inkscape:window-height="994"
     inkscape:window-x="0"
     inkscape:window-y="0"
     inkscape:window-maximized="1"
     inkscape:pagecheckerboard="0"
     inkscape:showpageshadow="2"
     inkscape:deskcolor="#d1d1d1" />
  <metadata
     id="metadata1826">
    <rdf:RDF>
      <cc:Work
         rdf:about="">
        <dc:format>image/svg+xml</dc:format>
        <dc:type
           rdf:resource="http://purl.org/dc/dcmitype/StillImage" />
      </cc:Work>
    </rdf:RDF>
  </metadata>
  <g
     inkscape:label="Capa 1"
     inkscape:groupmode="layer"
     id="layer1">
    <g
       id="g1"
       transform="translate(-0.11857446,-0.08998787)">
      <rect
         style="opacity:0.296765;fill:none;fill-opacity:1;stroke:#000000;stroke-width:0.0471237;stroke-linecap:round;stroke-linejoin:round;stroke-miterlimit:4;stroke-dasharray:none;stroke-opacity:0.02"
         id="rect1634"
         width="14.047983"
         height="14.047983"
         x="1.2966678"
         y="1.2680779"
         rx="3.1148088"
         ry="3.1148088" />
      <rect
         ry="3.1148088"
         rx="3.1148088"
         y="1.2680779"
         x="1.2966678"
         height="14.047983"
         width="14.047983"
         id="rect1638"
         style="opacity:0.296765;fill:none;fill-opacity:1;stroke:#000000;stroke-width:0.0942473;stroke-linecap:round;stroke-linejoin:round;stroke-miterlimit:4;stroke-dasharray:none;stroke-opacity:0.02" />
      <rect
         style="opacity:0.296765;fill:none;fill-opacity:1;stroke:#000000;stroke-width:0.141371;stroke-linecap:round;stroke-linejoin:round;stroke-miterlimit:4;stroke-dasharray:none;stroke-opacity:0.02"
         id="rect1640"
         width="14.047983"
         height="14.047983"
         x="1.2966678"
         y="1.2680779"
         rx="3.1148088"
         ry="3.1148088" />
      <rect
         ry="3.1148088"
         rx="3.1148088"
         y="1.2680779"
         x="1.2966678"
         height="14.047983"
         width="14.047983"
         id="rect1642"
         style="opacity:0.296765;fill:none;fill-opacity:1;stroke:#000000;stroke-width:0.188495;stroke-linecap:round;stroke-linejoin:round;stroke-miterlimit:4;stroke-dasharray:none;stroke-opacity:0.02" />
      <rect
         style="opacity:0.296765;fill:none;fill-opacity:1;stroke:#000000;stroke-width:0.235618;stroke-linecap:round;stroke-linejoin:round;stroke-miterlimit:4;stroke-dasharray:none;stroke-opacity:0.02"
         id="rect1644"
         width="14.047983"
         height="14.047983"
         x="1.2966678"
         y="1.2680779"
         rx="3.1148088"
         ry="3.1148088" />
      <rect
         ry="3.1148088"
         rx="3.1148088"
         y="1.2680779"
         x="1.2966678"
         height="14.047983"
         width="14.047983"
         id="rect1646"
         style="opacity:0.296765;fill:none;fill-opacity:1;stroke:#000000;stroke-width:0.282742;stroke-linecap:round;stroke-linejoin:round;stroke-miterlimit:4;stroke-dasharray:none;stroke-opacity:0.02" />
      <rect
         style="opacity:0.296765;fill:none;fill-opacity:1;stroke:#000000;stroke-width:0.329866;stroke-linecap:round;stroke-linejoin:round;stroke-miterlimit:4;stroke-dasharray:none;stroke-opacity:0.02"
         id="rect1648"
         width="14.047983"
         height="14.047983"
         x="1.2966678"
         y="1.2680779"
         rx="3.1148088"
         ry="3.1148088" />
      <rect
         ry="3.1148088"
         rx="3.1148088"
         y="1.2680779"
         x="1.2966678"
         height="14.047983"
         width="14.047983"
         id="rect1650"
         style="opacity:0.296765;fill:none;fill-opacity:1;stroke:#000000;stroke-width:0.376989;stroke-linecap:round;stroke-linejoin:round;stroke-miterlimit:4;stroke-dasharray:none;stroke-opacity:0.02" />
      <rect
         style="opacity:0.296765;fill:none;fill-opacity:1;stroke:#000000;stroke-width:0.471237;stroke-linecap:round;stroke-linejoin:round;stroke-miterlimit:4;stroke-dasharray:none;stroke-opacity:0.02"
         id="rect1652"
         width="14.047983"
         height="14.047983"
         x="1.2966678"
         y="1.2680779"
         rx="3.1148088"
         ry="3.1148088" />
      <rect
         ry="3.1148088"
         rx="3.1148088"
         y="1.2680779"
         x="1.2966678"
         height="14.047983"
         width="14.047983"
         id="rect1654"
         style="opacity:0.296765;fill:none;fill-opacity:1;stroke:#000000;stroke-width:0.565484;stroke-linecap:round;stroke-linejoin:round;stroke-miterlimit:4;stroke-dasharray:none;stroke-opacity:0.02" />
      <rect
         style="opacity:0.296765;fill:none;fill-opacity:1;stroke:#000000;stroke-width:0.659731;stroke-linecap:round;stroke-linejoin:round;stroke-miterlimit:4;stroke-dasharray:none;stroke-opacity:0.02"
         id="rect1656"
         width="14.047983"
         height="14.047983"
         x="1.2966678"
         y="1.2680779"
         rx="3.1148088"
         ry="3.1148088" />
      <rect
         ry="3.1148088"
         rx="3.1148088"
         y="1.2680779"
         x="1.2966678"
         height="14.047983"
         width="14.047983"
         id="rect1658"
         style="opacity:0.296765;fill:none;fill-opacity:1;stroke:#000000;stroke-width:0.753979;stroke-linecap:round;stroke-linejoin:round;stroke-miterlimit:4;stroke-dasharray:none;stroke-opacity:0.02" />
      <rect
         style="opacity:0.296765;fill:none;fill-opacity:1;stroke:#000000;stroke-width:0.848226;stroke-linecap:round;stroke-linejoin:round;stroke-miterlimit:4;stroke-dasharray:none;stroke-opacity:0.02"
         id="rect1660"
         width="14.047983"
         height="14.047983"
         x="1.2966678"
         y="1.2680779"
         rx="3.1148088"
         ry="3.1148088" />
      <rect
         ry="3.1148088"
         rx="3.1148088"
         y="1.2680779"
         x="1.2966678"
         height="14.047983"
         width="14.047983"
         id="rect1662"
         style="opacity:0.296765;fill:none;fill-opacity:1;stroke:#000000;stroke-width:0.942473;stroke-linecap:round;stroke-linejoin:round;stroke-miterlimit:4;stroke-dasharray:none;stroke-opacity:0.02" />
      <rect
         style="opacity:0.296765;fill:none;fill-opacity:1;stroke:#000000;stroke-width:1.03672;stroke-linecap:round;stroke-linejoin:round;stroke-miterlimit:4;stroke-dasharray:none;stroke-opacity:0.02"
         id="rect1664"
         width="14.047983"
         height="14.047983"
         x="1.2966678"
         y="1.2680779"
         rx="3.1148088"
         ry="3.1148088" />
      <rect
         ry="3.1148088"
         rx="3.1148088"
         y="1.2680779"
         x="1.2966678"
         height="14.047983"
         width="14.047983"
         id="rect1666"
         style="opacity:0.296765;fill:none;fill-opacity:1;stroke:#000000;stroke-width:1.22522;stroke-linecap:round;stroke-linejoin:round;stroke-miterlimit:4;stroke-dasharray:none;stroke-opacity:0.02" />
      <rect
         style="opacity:0.296765;fill:none;fill-opacity:1;stroke:#000000;stroke-width:1.41371;stroke-linecap:round;stroke-linejoin:round;stroke-miterlimit:4;stroke-dasharray:none;stroke-opacity:0.02"
         id="rect1668"
         width="14.047983"
         height="14.047983"
         x="1.2966678"
         y="1.2680779"
         rx="3.1148088"
         ry="3.1148088" />
      <rect
         ry="3.1148088"
         rx="3.1148088"
         y="1.2680779"
         x="1.2966678"
         height="14.047983"
         width="14.047983"
         id="rect1670"
         style="opacity:0.296765;fill:none;fill-opacity:1;stroke:#000000;stroke-width:1.6022;stroke-linecap:round;stroke-linejoin:round;stroke-miterlimit:4;stroke-dasharray:none;stroke-opacity:0.02" />
      <rect
         style="opacity:0.296765;fill:none;fill-opacity:1;stroke:#000000;stroke-width:1.7907;stroke-linecap:round;stroke-linejoin:round;stroke-miterlimit:4;stroke-dasharray:none;stroke-opacity:0.02"
         id="rect1672"
         width="14.047983"
         height="14.047983"
         x="1.2966678"
         y="1.2680779"
         rx="3.1148088"
         ry="3.1148088" />
      <rect
         ry="3.1148088"
         rx="3.1148088"
         y="1.2680779"
         x="1.2966678"
         height="14.047983"
         width="14.047983"
         id="rect1674"
         style="opacity:0.296765;fill:none;fill-opacity:1;stroke:#000000;stroke-width:1.97919;stroke-linecap:round;stroke-linejoin:round;stroke-miterlimit:4;stroke-dasharray:none;stroke-opacity:0.02" />
      <rect
         style="opacity:0.296765;fill:none;fill-opacity:1;stroke:#000000;stroke-width:2.16769;stroke-linecap:round;stroke-linejoin:round;stroke-miterlimit:4;stroke-dasharray:none;stroke-opacity:0.02"
         id="rect1676"
         width="14.047983"
         height="14.047983"
         x="1.2966678"
         y="1.2680779"
         rx="3.1148088"
         ry="3.1148088" />
      <rect
         ry="3.1148088"
         rx="3.1148088"
         y="1.2680779"
         x="1.2966678"
         height="14.047983"
         width="14.047983"
         id="rect1678"
         style="opacity:0.296765;fill:none;fill-opacity:1;stroke:#000000;stroke-width:2.35618;stroke-linecap:round;stroke-linejoin:round;stroke-miterlimit:4;stroke-dasharray:none;stroke-opacity:0.02" />
      <rect
         id="rect849-5"
         width="14.047984"
         height="14.047984"
         x="1.2966708"
         y="1.2680786"
         rx="3.1148088"
         ry="3.1148088"
         style="fill:url(#linearGradient4)" />
      <path
         style="fill:#000e3c;fill-opacity:0.028941;stroke:none;stroke-width:0.251938"
         d="M 8.9135452,13.55819 C 9.0702212,13.223623 9.4302763,12.939964 9.5374619,12.566878 9.6691797,12.220498 9.626836,11.803038 9.2757827,11.600477 9.15102,11.494507 8.9611449,11.564444 8.8075168,11.536451 8.0304065,11.509391 7.1698312,11.551278 6.540488,11.014776 5.9027736,10.452796 5.8447493,9.4724057 5.9721137,8.6884414 6.2421616,7.3407855 7.1964528,6.2587744 8.2189206,5.3898458 8.3630065,5.2606843 8.8241769,4.7119281 8.3792817,4.751166 7.7038392,4.7210874 6.1691863,4.7295392 6.1691863,4.7295392 V 3.7325994 H 10.956011 V 4.7295401 C 9.8013718,5.4598823 8.6470794,6.4591368 8.0162491,7.6967987 7.7153925,8.2828019 7.5827967,8.9124421 7.8539939,9.5320359 c 0.179252,0.3638821 0.6992416,0.5171551 1.0862675,0.5040571 0.4643714,0.05188 0.959455,-0.037023 1.3996836,0.144449 0.608925,0.262313 0.925896,0.955869 0.859262,1.593363 -0.02627,0.592855 -0.333288,1.338167 -0.711116,1.78428 z"
         id="path3390" />
      <path
         style="fill:#000e3c;fill-opacity:0.028941;stroke:none;stroke-width:0.251938"
         d="M 8.9950804,13.782832 C 9.1517565,13.448264 9.5118116,13.164606 9.6189971,12.79152 9.7507149,12.44514 9.7083712,12.027679 9.3573179,11.825119 9.2325552,11.719149 9.0426801,11.789085 8.889052,11.761093 8.1119418,11.734033 7.2513664,11.775919 6.6220232,11.239417 5.9843089,10.677438 5.9262845,9.6970474 6.0536489,8.913083 6.3236968,7.5654272 7.277988,6.483416 8.3004558,5.6144875 8.4445417,5.4853259 8.9057121,4.9365699 8.4608169,4.9758077 7.7853744,4.9457291 6.2507215,4.9541809 6.2507215,4.9541809 V 3.957241 H 11.037547 V 4.9541819 C 9.882907,5.684524 8.7286146,6.6837785 8.0977844,7.9214404 7.7969277,8.5074435 7.6643319,9.1370838 7.9355292,9.7566776 8.1147811,10.12056 8.6347708,10.273833 9.0217966,10.260735 c 0.4643714,0.05188 0.959455,-0.03702 1.3996834,0.144449 0.608925,0.262313 0.925897,0.955869 0.859262,1.593362 -0.02627,0.592856 -0.333288,1.338167 -0.711116,1.784281 z"
         id="path3518" />
      <path
         style="fill:#000e3c;fill-opacity:0.028941;stroke:none;stroke-width:0.251938"
         d="M 9.0595378,14.010679 C 9.2162138,13.676112 9.5762689,13.392453 9.6834545,13.019367 9.8151723,12.672988 9.7728286,12.255527 9.4217753,12.052966 9.2970126,11.946996 9.1071375,12.016933 8.9535094,11.98894 8.1763991,11.96188 7.3158238,12.003767 6.6864806,11.467265 6.0487662,10.905286 5.9907419,9.9248949 6.1181063,9.1409306 6.3881542,7.7932747 7.3424454,6.7112636 8.3649132,5.842335 8.5089991,5.7131735 8.9701695,5.1644174 8.5252743,5.2036552 7.8498318,5.1735767 6.3151789,5.1820284 6.3151789,5.1820284 v -0.99694 h 4.7868251 v 0.996941 C 9.9473644,5.9123715 8.793072,6.911626 8.1622417,8.1492879 7.8613851,8.7352911 7.7287893,9.3649313 7.9999865,9.9845251 8.1792385,10.348407 8.6992281,10.50168 9.086254,10.488583 c 0.4643714,0.05188 0.959455,-0.03702 1.399683,0.144449 0.608926,0.262312 0.925897,0.955869 0.859263,1.593362 -0.02627,0.592856 -0.333288,1.338167 -0.711117,1.784281 z"
         id="path3520" />
      <path
         style="fill:#000e3c;fill-opacity:0.028941;stroke:none;stroke-width:0.251938"
         d="M 9.1249108,14.400764 C 9.2815869,14.066196 9.641642,13.782538 9.7488275,13.409452 9.8805454,13.063072 9.8382016,12.645611 9.4871484,12.443051 9.3623856,12.337081 9.1725106,12.407017 9.0188824,12.379025 8.2417722,12.351965 7.3811969,12.393851 6.7518536,11.857349 6.1141393,11.29537 6.0561149,10.314979 6.1834794,9.5310149 6.4535272,8.1833591 7.4078184,7.101348 8.4302863,6.2324194 8.5743722,6.1032579 9.0355425,5.5545018 8.5906473,5.5937396 7.9152049,5.5636611 6.3805519,5.5721128 6.3805519,5.5721128 V 4.5751726 H 11.167377 V 5.5721138 C 10.012737,6.3024559 8.8584451,7.3017104 8.2276148,8.5393723 7.9267582,9.1253755 7.7941623,9.7550157 8.0653596,10.37461 c 0.1792519,0.363882 0.6992416,0.517155 1.0862674,0.504057 0.4643714,0.05188 0.959455,-0.03702 1.399683,0.144449 0.608926,0.262313 0.925897,0.955869 0.859263,1.593362 -0.02627,0.592856 -0.333288,1.338167 -0.711116,1.784281 z"
         id="path3522" />
      <path
         d="M 8.76024,13.44103 C 8.9169161,13.106463 9.2769712,12.822804 9.3841568,12.449718 9.5158746,12.103338 9.4735308,11.685877 9.1224776,11.483317 8.9977148,11.377347 8.8078398,11.447284 8.6542116,11.419291 7.8771014,11.392231 7.0165261,11.434118 6.3871829,10.897616 5.7494685,10.335636 5.6914442,9.3552455 5.8188086,8.5712812 6.0888564,7.2236254 7.0431477,6.1416142 8.0656155,5.2726857 8.2097014,5.1435241 8.6708717,4.5947683 8.2259765,4.6340059 7.5505341,4.6039254 6.0158812,4.6123811 6.0158812,4.6123811 V 3.6154395 H 10.802706 V 4.6123803 C 9.6480667,5.3427222 8.4937743,6.3419767 7.862944,7.5796386 7.5620874,8.1656417 7.4294915,8.795282 7.7006888,9.4148758 c 0.1792519,0.363882 0.6992416,0.5171552 1.0862674,0.5040574 0.4643714,0.051876 0.959455,-0.037024 1.3996838,0.1444488 0.608925,0.262313 0.925896,0.955869 0.859262,1.593362 -0.02627,0.592856 -0.333288,1.338168 -0.711116,1.784281 z"
         id="path8"
         style="fill:url(#linearGradient2)" />
    </g>
  </g>
</svg>
