<?xml version="1.0" encoding="UTF-8" standalone="no"?>
<svg
   width="62"
   height="62"
   viewBox="0 0 62 62"
   fill="none"
   version="1.1"
   id="svg5"
   sodipodi:docname="ziggurat.svg"
   inkscape:version="1.4 (unknown)"
   xmlns:inkscape="http://www.inkscape.org/namespaces/inkscape"
   xmlns:sodipodi="http://sodipodi.sourceforge.net/DTD/sodipodi-0.dtd"
   xmlns:xlink="http://www.w3.org/1999/xlink"
   xmlns="http://www.w3.org/2000/svg"
   xmlns:svg="http://www.w3.org/2000/svg">
  <sodipodi:namedview
     id="namedview5"
     pagecolor="#ffffff"
     bordercolor="#000000"
     borderopacity="0.25"
     inkscape:showpageshadow="2"
     inkscape:pageopacity="0.0"
     inkscape:pagecheckerboard="0"
     inkscape:deskcolor="#d1d1d1"
     inkscape:zoom="8.5"
     inkscape:cx="24.470588"
     inkscape:cy="32.588235"
     inkscape:window-width="1920"
     inkscape:window-height="998"
     inkscape:window-x="0"
     inkscape:window-y="0"
     inkscape:window-maximized="1"
     inkscape:current-layer="svg5" />
  <g
     id="g8"
     transform="translate(0.63199163,-0.73310004)">
    <g
       id="g7">
      <g
         id="g6">
        <g
           id="g5"
           transform="matrix(1.0100167,0,0,1,-0.27383894,2.73199)">
          <path
             opacity="0.4"
             d="m 21.861859,4.0902158 c -0.620775,0.072183 -0.988604,0.7310869 -0.72439,1.2974248 l 3.664092,7.8515004 c 0.190373,0.407956 0.648992,0.61711 1.081867,0.493431 l 10.481437,-2.99467 c 1.033953,-0.295454 1.787476,1.331881 0.905602,1.947342 -9.947329,6.941757 -28.9193464,22.204608 -30.1965704,38.393033 -0.057552,0.729429 0.7602567,1.159098 1.371009,0.75618 C 32.493085,35.967871 46.505225,30.905204 50.098775,29.761406 50.60375,29.600624 50.884271,29.057629 50.716709,28.554853 L 48.737578,22.617457 C 48.573314,22.12485 48.032976,21.867049 47.546782,22.04936 L 30.963685,28.26801 C 30.083185,28.598186 29.38005,27.589336 30.017773,26.898293 34.21808,22.347105 43.580548,13.008641 53.044707,9.0034888 53.389724,8.8574932 53.618392,8.5202538 53.604283,8.1459017 53.351613,1.4322443 49.012419,1.0262305 48.488571,1.001678 c -0.03536,-0.00166 -0.06926,4.581e-4 -0.104348,0.00454 z"
             id="path1"
             style="fill:url(#linearGradient11);opacity:0.5" />
          <path
             d="m 21.861859,9.1020194 c -0.620775,0.072183 -0.988604,0.7311053 -0.72439,1.2974616 l 3.664092,7.851482 c 0.190373,0.407956 0.648992,0.61711 1.081867,0.493431 l 10.481437,-2.99467 c 1.033953,-0.295454 1.787476,1.331881 0.905602,1.94725 -9.947329,6.941849 -28.9193464,22.2047 -30.1965704,38.393125 -0.057552,0.729429 0.7602567,1.159097 1.371009,0.75618 C 32.493085,40.979602 46.505225,35.917026 50.098775,34.773137 c 0.504975,-0.160691 0.785496,-0.703686 0.617934,-1.206462 l -1.979131,-5.937396 c -0.164264,-0.492607 -0.704602,-0.750408 -1.190796,-0.568097 l -16.583097,6.21865 c -0.8805,0.330176 -1.583635,-0.678674 -0.945912,-1.369717 4.200307,-4.551188 13.562775,-13.889744 23.026934,-17.894823 0.345017,-0.146032 0.573685,-0.483262 0.559576,-0.857596 -0.25267,-6.713648 -4.591864,-7.1196619 -5.115712,-7.1442144 -0.03536,-0.00166 -0.06926,4.673e-4 -0.104348,0.00454 z"
             id="path2"
             style="fill:url(#linearGradient9)" />
        </g>
      </g>
    </g>
  </g>
  <defs
     id="defs5">
    <linearGradient
       id="linearGradient8"
       inkscape:collect="always">
      <stop
         style="stop-color:#fd933a;stop-opacity:1"
         offset="0"
         id="stop8" />
      <stop
         style="stop-color:#ffdf80;stop-opacity:1;"
         offset="1"
         id="stop9" />
    </linearGradient>
    <linearGradient
       id="paint0_linear_231_114"
       x1="32.438202"
       y1="57.5294"
       x2="32.438202"
       y2="1"
       gradientUnits="userSpaceOnUse"
       gradientTransform="matrix(0.91613753,0,0,0.91613753,0.59299316,0.08395557)">
      <stop
         stop-color="#FD5900"
         id="stop2" />
      <stop
         offset="1"
         stop-color="#FFDE00"
         id="stop3" />
    </linearGradient>
    <linearGradient
       id="paint1_linear_231_114"
       x1="32.438202"
       y1="63"
       x2="32.438202"
       y2="6.4705801"
       gradientUnits="userSpaceOnUse"
       gradientTransform="matrix(0.91613753,0,0,0.91613753,0.59299316,0.08395557)">
      <stop
         stop-color="#FD5900"
         id="stop4" />
      <stop
         offset="1"
         stop-color="#FFDE00"
         id="stop5" />
    </linearGradient>
    <linearGradient
       inkscape:collect="always"
       xlink:href="#linearGradient8"
       id="linearGradient9"
       x1="31.881325"
       y1="57.00111"
       x2="32.405483"
       y2="6.0129147"
       gradientUnits="userSpaceOnUse" />
    <linearGradient
       inkscape:collect="always"
       xlink:href="#linearGradient8"
       id="linearGradient11"
       x1="30.949482"
       y1="51.989288"
       x2="31.240681"
       y2="1.0011101"
       gradientUnits="userSpaceOnUse" />
  </defs>
</svg>
