<?xml version="1.0" encoding="UTF-8" standalone="no"?>
<svg
   width="62"
   height="62"
   version="1.1"
   id="svg6"
   sodipodi:docname="zombie-panic-source.svg"
   inkscape:version="1.4 (unknown)"
   xmlns:inkscape="http://www.inkscape.org/namespaces/inkscape"
   xmlns:sodipodi="http://sodipodi.sourceforge.net/DTD/sodipodi-0.dtd"
   xmlns:xlink="http://www.w3.org/1999/xlink"
   xmlns="http://www.w3.org/2000/svg"
   xmlns:svg="http://www.w3.org/2000/svg">
  <defs
     id="defs6">
    <linearGradient
       id="linearGradient6"
       inkscape:collect="always">
      <stop
         style="stop-color:#cc5e02;stop-opacity:1;"
         offset="0"
         id="stop6" />
      <stop
         style="stop-color:#fe9d4e;stop-opacity:1;"
         offset="1"
         id="stop7" />
    </linearGradient>
    <linearGradient
       inkscape:collect="always"
       xlink:href="#linearGradient6"
       id="linearGradient7"
       x1="31.029863"
       y1="59.983189"
       x2="32"
       y2="5"
       gradientUnits="userSpaceOnUse" />
  </defs>
  <sodipodi:namedview
     id="namedview6"
     pagecolor="#ffffff"
     bordercolor="#000000"
     borderopacity="0.25"
     inkscape:showpageshadow="2"
     inkscape:pageopacity="0.0"
     inkscape:pagecheckerboard="0"
     inkscape:deskcolor="#d1d1d1"
     inkscape:zoom="11.75"
     inkscape:cx="32"
     inkscape:cy="32.085106"
     inkscape:window-width="1920"
     inkscape:window-height="998"
     inkscape:window-x="0"
     inkscape:window-y="0"
     inkscape:window-maximized="1"
     inkscape:current-layer="svg6" />
  <g
     id="g6"
     transform="matrix(0.98214286,0,0,0.98245614,-0.42857152,-0.92982455)">
    <circle
       cx="32"
       cy="33"
       r="28"
       style="opacity:0.2"
       id="circle1" />
    <circle
       cx="32"
       cy="32"
       r="28"
       style="fill:url(#linearGradient7)"
       id="circle2" />
    <path
       d="M 32,4 A 28,28 0 0 0 4,32 28,28 0 0 0 4.0215,32.586 28,28 0 0 1 32,5 28,28 0 0 1 59.979,32.414 28,28 0 0 0 60,32 28,28 0 0 0 32,4 Z"
       style="opacity:0.2;fill:#ffffff"
       id="path2" />
    <path
       d="M 32,23 A 10,10 0 0 0 22,33 10,10 0 0 0 32,43 10,10 0 0 0 42,33 10,10 0 0 0 32,23 Z m 0,2.857144 A 7.1428572,7.1428572 0 0 1 39.142858,33 7.1428572,7.1428572 0 0 1 32,40.142858 7.1428572,7.1428572 0 0 1 24.857144,33 7.1428572,7.1428572 0 0 1 32,25.857144 Z"
       style="opacity:0.2"
       id="path3" />
    <path
       d="M 32,22 A 10,10 0 0 0 22,32 10,10 0 0 0 32,42 10,10 0 0 0 42,32 10,10 0 0 0 32,22 Z m 0,2.857144 A 7.1428572,7.1428572 0 0 1 39.142858,32 7.1428572,7.1428572 0 0 1 32,39.142858 7.1428572,7.1428572 0 0 1 24.857144,32 7.1428572,7.1428572 0 0 1 32,24.857144 Z"
       style="fill:#ffffff"
       id="path4" />
    <path
       d="M 31.399928,12.867273 C 24.56475,13.18951 19.185385,18.806748 19.147272,25.64185 c -1.221005,0.605134 -2.374164,1.391722 -3.39111,2.408664 -4.775102,4.786642 -5.028954,12.452792 -0.580536,17.544464 -2.781397,-3.409318 -2.53038,-8.370766 0.580536,-11.48233 3.348381,-3.348382 8.775884,-3.348378 12.124266,0 3.348382,3.348384 3.348382,8.775886 0,12.124268 C 24.698142,49.418522 19.5987,49.599222 16.199937,46.64999 20.64392,50.693822 27.181408,51.061086 32,47.83618 c 4.81859,3.224906 11.356078,2.857642 15.800062,-1.18619 -3.398766,2.949232 -8.498208,2.768534 -11.680492,-0.413074 -3.34838,-3.348382 -3.34838,-8.775884 0,-12.124268 3.348382,-3.348378 8.775886,-3.348382 12.124266,0 3.110916,3.111564 3.361934,8.073012 0.580536,11.48233 4.44842,-5.091672 4.194568,-12.757822 -0.580536,-17.544464 -1.01373,-1.01373 -2.163276,-1.798564 -3.379944,-2.403082 -0.03862,-6.73461 -5.266946,-12.304312 -11.993088,-12.757831 4.377494,0.444006 7.70839,4.129455 7.708846,8.529411 0,4.735324 -3.838742,8.574066 -8.57407,8.574066 -4.735324,0 -8.574066,-3.838742 -8.574066,-8.574066 4.78e-4,-4.499953 3.479702,-8.233872 7.968414,-8.551739 z m 0.605652,18.554817 2.143518,2.143516 -2.143518,2.143516 -2.143516,-2.143516 z"
       style="opacity:0.2"
       id="path5" />
    <path
       d="M 31.399928,11.867273 C 24.56475,12.18951 19.185385,17.806747 19.147272,24.64185 c -1.221005,0.605134 -2.374164,1.391722 -3.39111,2.408664 -4.775102,4.786642 -5.028954,12.452792 -0.580536,17.544464 -2.781397,-3.409318 -2.53038,-8.370766 0.580536,-11.48233 3.348381,-3.348382 8.775884,-3.348378 12.124266,0 3.348382,3.348384 3.348382,8.775886 0,12.124268 C 24.698142,48.418522 19.5987,48.599222 16.199937,45.64999 20.64392,49.693822 27.181408,50.061086 32,46.83618 c 4.81859,3.224906 11.356078,2.857642 15.800062,-1.18619 -3.398766,2.949232 -8.498208,2.768534 -11.680492,-0.413074 -3.34838,-3.348382 -3.34838,-8.775884 0,-12.124268 3.348382,-3.348378 8.775886,-3.348382 12.124266,0 3.110916,3.111564 3.361934,8.073012 0.580536,11.48233 4.44842,-5.091672 4.194568,-12.757822 -0.580536,-17.544464 -1.01373,-1.01373 -2.163276,-1.798564 -3.379944,-2.403082 -0.03862,-6.734611 -5.266946,-12.304312 -11.993088,-12.757831 4.377494,0.444006 7.70839,4.129455 7.708846,8.529411 0,4.735324 -3.838742,8.574066 -8.57407,8.574066 -4.735324,0 -8.574066,-3.838742 -8.574066,-8.574066 4.78e-4,-4.499953 3.479702,-8.233872 7.968414,-8.551739 z m 0.605652,18.554817 2.143518,2.143516 -2.143518,2.143516 -2.143516,-2.143516 z"
       style="fill:#ffffff"
       id="path6" />
  </g>
</svg>
