<?xml version="1.0" encoding="UTF-8" standalone="no"?>
<svg
   width="62"
   height="62"
   version="1.1"
   id="svg4"
   sodipodi:docname="zrythm.svg"
   inkscape:version="1.4 (unknown)"
   xmlns:inkscape="http://www.inkscape.org/namespaces/inkscape"
   xmlns:sodipodi="http://sodipodi.sourceforge.net/DTD/sodipodi-0.dtd"
   xmlns:xlink="http://www.w3.org/1999/xlink"
   xmlns="http://www.w3.org/2000/svg"
   xmlns:svg="http://www.w3.org/2000/svg">
  <defs
     id="defs4">
    <linearGradient
       id="linearGradient4"
       inkscape:collect="always">
      <stop
         style="stop-color:#354864;stop-opacity:1;"
         offset="0"
         id="stop4" />
      <stop
         style="stop-color:#f15d41;stop-opacity:1;"
         offset="1"
         id="stop5" />
    </linearGradient>
    <linearGradient
       inkscape:collect="always"
       xlink:href="#linearGradient4"
       id="linearGradient5"
       x1="32"
       y1="60"
       x2="32"
       y2="5"
       gradientUnits="userSpaceOnUse" />
  </defs>
  <sodipodi:namedview
     id="namedview4"
     pagecolor="#ffffff"
     bordercolor="#000000"
     borderopacity="0.25"
     inkscape:showpageshadow="2"
     inkscape:pageopacity="0.0"
     inkscape:pagecheckerboard="0"
     inkscape:deskcolor="#d1d1d1"
     inkscape:zoom="8.5"
     inkscape:cx="31.470588"
     inkscape:cy="27.058824"
     inkscape:window-width="1920"
     inkscape:window-height="998"
     inkscape:window-x="0"
     inkscape:window-y="0"
     inkscape:window-maximized="1"
     inkscape:current-layer="svg4" />
  <g
     id="g4"
     transform="matrix(0.98214286,0,0,0.98245614,-0.42857152,-0.92982455)">
    <rect
       x="4"
       y="5"
       width="56"
       height="56"
       rx="8"
       ry="8"
       style="opacity:0.2"
       id="rect1" />
    <rect
       x="4"
       y="4"
       width="56"
       height="56"
       rx="8"
       ry="8"
       style="fill:url(#linearGradient5)"
       id="rect2" />
    <path
       d="M 15,16 V 50 H 49 V 16 Z m 5,5 h 24 v 5 l -10,10 4,4 6,-6 V 45 H 20 v -6 l 10,-10 -4,-4 -6,6 z"
       style="opacity:0.2"
       id="path2" />
    <path
       d="m 15,15 v 20 5 9 H 49 V 28 23 15 Z m 5,5 h 24 v 5 l -10,10 4,4 6,-6 V 44 H 20 v -6 l 10,-10 -4,-4 -6,6 z"
       style="fill:#ffffff"
       id="path3" />
    <path
       d="M 12,4 C 7.568,4 4,7.568 4,12 v 1 C 4,8.568 7.568,5 12,5 h 40 c 4.432,0 8,3.568 8,8 V 12 C 60,7.568 56.432,4 52,4 Z"
       style="opacity:0.2;fill:#ffffff"
       id="path4" />
  </g>
</svg>
