<?xml version="1.0" encoding="UTF-8" standalone="no"?>
<svg
   width="62"
   height="62"
   version="1.1"
   viewBox="0 0 16.403844 16.403844"
   id="svg20"
   sodipodi:docname="applications-internet.svg"
   inkscape:version="1.4 (e7c3feb100, 2024-10-09)"
   xmlns:inkscape="http://www.inkscape.org/namespaces/inkscape"
   xmlns:sodipodi="http://sodipodi.sourceforge.net/DTD/sodipodi-0.dtd"
   xmlns:xlink="http://www.w3.org/1999/xlink"
   xmlns="http://www.w3.org/2000/svg"
   xmlns:svg="http://www.w3.org/2000/svg"
   xmlns:rdf="http://www.w3.org/1999/02/22-rdf-syntax-ns#"
   xmlns:cc="http://creativecommons.org/ns#"
   xmlns:dc="http://purl.org/dc/elements/1.1/">
  <metadata
     id="metadata26">
    <rdf:RDF>
      <cc:Work
         rdf:about="">
        <dc:format>image/svg+xml</dc:format>
        <dc:type
           rdf:resource="http://purl.org/dc/dcmitype/StillImage" />
      </cc:Work>
    </rdf:RDF>
  </metadata>
  <defs
     id="defs24">
    <linearGradient
       id="linearGradient3"
       inkscape:collect="always">
      <stop
         style="stop-color:#d5e5ff;stop-opacity:1"
         offset="0"
         id="stop3" />
      <stop
         style="stop-color:#80b3ff;stop-opacity:1"
         offset="1"
         id="stop4" />
    </linearGradient>
    <linearGradient
       id="linearGradient1"
       inkscape:collect="always">
      <stop
         style="stop-color:#005fef;stop-opacity:1;"
         offset="0"
         id="stop1" />
      <stop
         style="stop-color:#729bd8;stop-opacity:1;"
         offset="1"
         id="stop2" />
    </linearGradient>
    <linearGradient
       inkscape:collect="always"
       xlink:href="#linearGradient861"
       id="linearGradient863"
       x1="167.8353"
       y1="216.04416"
       x2="243.31377"
       y2="169.18932"
       gradientUnits="userSpaceOnUse"
       gradientTransform="matrix(0.06909498,0,0,0.06818586,-10.743654,-9.1486925)" />
    <linearGradient
       inkscape:collect="always"
       id="linearGradient861">
      <stop
         style="stop-color:#bdbdef;stop-opacity:1"
         offset="0"
         id="stop857" />
      <stop
         style="stop-color:#9996e6;stop-opacity:1"
         offset="0.05650956"
         id="stop871" />
      <stop
         style="stop-color:#766eed;stop-opacity:1"
         offset="0.17447889"
         id="stop873" />
      <stop
         style="stop-color:#7786ef;stop-opacity:1"
         offset="0.27897188"
         id="stop869" />
      <stop
         style="stop-color:#5773f4;stop-opacity:1"
         offset="0.54486555"
         id="stop865" />
      <stop
         style="stop-color:#6aa6e5;stop-opacity:1"
         offset="0.77966058"
         id="stop867" />
      <stop
         style="stop-color:#8ee0f2;stop-opacity:1"
         offset="1"
         id="stop859" />
    </linearGradient>
    <linearGradient
       inkscape:collect="always"
       xlink:href="#linearGradient1"
       id="linearGradient2"
       x1="1.6776315"
       y1="1.7682793"
       x2="5.8116884"
       y2="6.138844"
       gradientUnits="userSpaceOnUse" />
    <linearGradient
       inkscape:collect="always"
       xlink:href="#linearGradient3"
       id="linearGradient4"
       x1="1.8133748"
       y1="1.668934"
       x2="5.0591965"
       y2="5.8742166"
       gradientUnits="userSpaceOnUse" />
  </defs>
  <sodipodi:namedview
     pagecolor="#ffffff"
     bordercolor="#666666"
     borderopacity="1"
     objecttolerance="10"
     gridtolerance="10"
     guidetolerance="10"
     inkscape:pageopacity="0"
     inkscape:pageshadow="2"
     inkscape:window-width="1920"
     inkscape:window-height="994"
     id="namedview22"
     showgrid="false"
     inkscape:zoom="7.0937497"
     inkscape:cx="39.96476"
     inkscape:cy="32.704847"
     inkscape:window-x="0"
     inkscape:window-y="0"
     inkscape:window-maximized="1"
     inkscape:current-layer="svg20"
     inkscape:document-rotation="0"
     inkscape:showpageshadow="2"
     inkscape:pagecheckerboard="0"
     inkscape:deskcolor="#d1d1d1" />
  <circle
     cx="-330.35001"
     cy="-328.38"
     r="0"
     fill="#5e4aa6"
     stroke-width="0.26458"
     id="circle2" />
  <circle
     cx="-65.740997"
     cy="5.3371"
     r="0"
     fill="#5e4aa6"
     fill-rule="evenodd"
     stroke-width="0.40965"
     id="circle4" />
  <g
     id="g1"
     transform="matrix(2.7954546,0,0,2.8,-1.780444,-2.5575225)">
    <ellipse
       id="path837"
       cx="3.3416255"
       cy="3.8426588"
       rx="2.6810572"
       ry="2.6457813"
       style="fill:url(#linearGradient4);fill-opacity:1" />
    <path
       id="path875"
       d="M 3.2656232,1.1979793 A 2.6810576,2.6457815 0 0 0 0.66133589,3.7857125 c 0.0176523,-0.00214 0.0353422,-0.00511 0.053036,-0.00959 C 0.8412876,3.9306882 1.0971206,3.2864956 1.265512,3.6753105 1.4114884,3.9182785 1.325345,4.1829282 1.4343359,4.4288172 1.6328749,4.6102776 2.0296515,4.5003832 2.1305487,4.8294093 2.2606194,5.1599148 2.6322517,4.6463281 2.6525399,5.0129254 2.6714249,5.318107 2.4466638,5.6815402 2.7905951,5.8857578 3.0038851,6.0527837 3.2531832,6.1966785 3.5318812,6.2117714 3.7391876,6.2433044 4.1987003,6.3370865 4.1831556,6.0278561 4.2577727,5.7062689 4.1626088,5.3667707 3.9303922,5.1267897 3.7340662,4.9340593 3.4959574,4.7881279 3.2281066,4.7164762 3.0747489,4.6033323 2.9157399,4.3193461 2.7256831,4.5497405 2.4589144,4.507743 2.3575575,3.8508722 2.7108388,3.9239486 2.92517,3.8470634 3.1300311,3.6690206 3.3379565,3.8995778 3.6188381,3.904324 3.8321376,3.5800273 3.8414595,3.3279885 3.8969005,3.1101201 4.0027941,2.9703528 4.2561638,2.9580268 4.3940063,2.8937725 4.0887429,2.9244657 4.104479,2.7987488 3.8890719,2.6689297 3.5790504,3.1520184 3.4324225,2.7645229 3.2865894,2.5243041 3.7629611,2.4795898 3.5260786,2.2098466 3.4831534,1.8938147 3.7723789,1.8243148 4.0086636,1.794073 4.0779045,1.6060955 3.7154873,1.596825 3.7656167,1.3909508 3.6208834,1.2738715 3.4472883,1.2220271 3.2656232,1.1979793 Z M 5.6380636,2.8008796 C 5.373029,2.8530261 5.5207603,3.1415362 5.4453536,3.291498 5.546706,3.5834453 5.1490517,3.5924472 5.0527809,3.7941028 c -0.1831348,0.1566082 -0.280362,0.5565016 0.00662,0.6929121 0.1703017,0.1911098 0.5315032,0.2137613 0.5580234,0.501805 0.018553,0.036467 0.038729,0.092159 0.061132,0.1507545 A 2.6810576,2.6457815 0 0 0 6.0226741,3.8427118 2.6810576,2.6457815 0 0 0 5.8350925,2.8705301 c -0.027337,-0.01826 -0.054693,-0.036462 -0.083399,-0.052871 l -0.05776,-0.015581 z"
       style="fill:url(#linearGradient2)" />
    <path
       id="path839"
       style="fill:url(#linearGradient863);fill-opacity:1;stroke-width:0.0613927;stroke-linecap:round;stroke-linejoin:round;stroke-opacity:0.992157"
       d="M 5.2295673,1.9649693 C 5.3805943,2.112861 5.512992,2.2789066 5.625109,2.4586513 5.7428545,2.4817433 5.8252531,2.5286013 5.8693707,2.5975534 6.1048819,2.9662023 5.474532,3.9184774 3.9804468,4.7586729 2.3893454,5.6534248 1.2913903,5.672992 1.0557985,5.3043451 1.0299556,5.2638524 1.0174439,5.2159792 1.0184175,5.1613153 0.94197964,5.0304581 0.87615357,4.8930117 0.82300779,4.7492701 0.66436089,5.1733117 0.68333989,5.5484986 0.87739316,5.8243956 1.3070926,6.4116844 2.9550184,6.1570633 4.4605878,5.2214388 5.9661065,4.2858429 6.854377,3.1824407 6.3295534,2.4362775 6.1260103,2.1469587 5.7404304,1.9817505 5.2295673,1.9649693 Z"
       sodipodi:nodetypes="cccsccccscc" />
  </g>
</svg>
