<?xml version="1.0" encoding="UTF-8" standalone="no"?>
<svg
   width="128"
   height="128"
   version="1.1"
   viewBox="0 0 128 128"
   xml:space="preserve"
   id="svg1"
   sodipodi:docname="distributor-logo-Slowroll.svg"
   inkscape:version="1.4 (e7c3feb100, 2024-10-09)"
   xmlns:inkscape="http://www.inkscape.org/namespaces/inkscape"
   xmlns:sodipodi="http://sodipodi.sourceforge.net/DTD/sodipodi-0.dtd"
   xmlns="http://www.w3.org/2000/svg"
   xmlns:svg="http://www.w3.org/2000/svg"
   xmlns:rdf="http://www.w3.org/1999/02/22-rdf-syntax-ns#"
   xmlns:cc="http://creativecommons.org/ns#"
   xmlns:dc="http://purl.org/dc/elements/1.1/"><defs
     id="defs1" /><sodipodi:namedview
     id="namedview1"
     pagecolor="#ffffff"
     bordercolor="#000000"
     borderopacity="0.25"
     inkscape:showpageshadow="2"
     inkscape:pageopacity="0.0"
     inkscape:pagecheckerboard="0"
     inkscape:deskcolor="#d1d1d1"
     inkscape:zoom="5.84375"
     inkscape:cx="64.085561"
     inkscape:cy="64"
     inkscape:window-width="1920"
     inkscape:window-height="994"
     inkscape:window-x="0"
     inkscape:window-y="0"
     inkscape:window-maximized="1"
     inkscape:current-layer="svg1" /><metadata
     id="metadata1"><rdf:RDF><cc:Work
         rdf:about=""><dc:format>image/svg+xml</dc:format><dc:type
           rdf:resource="http://purl.org/dc/dcmitype/StillImage" /></cc:Work></rdf:RDF></metadata><path
     d="m64 16c-26.474 0-48 21.526-48 48 0 0.62022 0.0156 1.2389 0.0468 1.8515 0.975 25.619 22.099 46.148 47.953 46.148 26.474 0 48-21.526 48-48 0-26.474-21.526-48-48-48zm0 6c23.231 0 42 18.769 42 42 0 23.231-18.769 42-42 42-9.6366 0-18.502-3.2341-25.582-8.6718 4.1954 1.717 8.7768 2.6719 13.582 2.6719 19.847 0 36-16.153 36-36 0-13.219-10.781-24-24-24-13.219 0-24 10.781-24 24 0 9.9054 8.0946 18 18 18 1.6568 0 3-1.3432 3-3s-1.3432-3-3-3c-6.663 0-12-5.3371-12-12 0-9.9768 8.0232-18 18-18 9.9768 0 18 8.0232 18 18 0 16.604-13.396 30-30 30-16.041 0-29.087-12.505-29.953-28.324-0.0216-0.55578-0.0468-1.1146-0.0468-1.6758 0-23.231 18.769-42 42-42z"
     stroke-width="6"
     id="path1"
     style="fill:#008080" /></svg>
