<?xml version="1.0" encoding="UTF-8" standalone="no"?>
<svg
   width="62"
   height="62"
   version="1.1"
   id="svg6"
   sodipodi:docname="freedownloadmanager.svg"
   inkscape:version="1.4 (e7c3feb100, 2024-10-09)"
   xmlns:inkscape="http://www.inkscape.org/namespaces/inkscape"
   xmlns:sodipodi="http://sodipodi.sourceforge.net/DTD/sodipodi-0.dtd"
   xmlns="http://www.w3.org/2000/svg"
   xmlns:svg="http://www.w3.org/2000/svg">
  <defs
     id="defs6" />
  <sodipodi:namedview
     id="namedview6"
     pagecolor="#ffffff"
     bordercolor="#000000"
     borderopacity="0.25"
     inkscape:showpageshadow="2"
     inkscape:pageopacity="0.0"
     inkscape:pagecheckerboard="0"
     inkscape:deskcolor="#d1d1d1"
     inkscape:zoom="11.6875"
     inkscape:cx="31.957219"
     inkscape:cy="32"
     inkscape:window-width="1920"
     inkscape:window-height="994"
     inkscape:window-x="0"
     inkscape:window-y="0"
     inkscape:window-maximized="1"
     inkscape:current-layer="svg6" />
  <g
     id="g6"
     transform="translate(-1.4999065,-2)">
    <path
       style="opacity:0.2;stroke-width:1.01837"
       d="m 7.0448922,6.018182 c -1.1329033,0 -2.0449862,0.9131984 -2.0449862,2.0482958 v 8.9488632 8.244887 8.248862 c 0,2.294958 0.696118,4.421514 1.889822,6.180682 2.6325922,3.91337 6.328024,8.705058 10.495469,12.77102 2.176029,2.446954 4.927669,4.564398 7.734346,6.081256 0.299572,0.17162 0.602277,0.313086 0.903133,0.469318 C 27.814827,60.261744 29.991923,61 32.352587,61 h 0.08757 8.207795 0.103443 0.648513 7.543373 9.003504 c 0.480265,0 0.900331,-0.18696 1.24927,-0.461364 0.03305,-0.0173 0.06722,-0.02816 0.09949,-0.04772 0,0 0.004,-0.004 0.004,-0.004 0.01361,-0.012 0.0185,-0.03146 0.03187,-0.04376 0.142676,-0.132208 0.24958,-0.29331 0.350114,-0.461364 0.0426,-0.07062 0.101342,-0.12699 0.135274,-0.202848 0.09957,-0.223396 0.148829,-0.470158 0.163134,-0.727836 0.0019,-0.0348 0.01976,-0.06416 0.01997,-0.09946 v -0.012 -0.346024 -8.59091 -0.02384 -0.03186 -8.189201 -0.04376 -0.0597 -8.14545 -0.0597 -0.08754 c 0,-0.54642 -0.05143,-1.078082 -0.127311,-1.602838 -0.296154,-2.048372 -1.137308,-3.91692 -2.391127,-5.436934 -0.0036,-0.0042 -0.0082,-0.0074 -0.012,-0.012 C 56.3545,24.626797 55.138682,23.001981 53.817,21.501675 51.511532,18.593205 48.899021,15.632695 46.062769,13.077829 43.291408,10.646852 40.395151,8.6021044 37.612268,7.3505568 35.908233,6.6103922 34.196612,6.1245814 32.499806,6.018171 h -8.251557 -8.247581 z"
       id="path1" />
    <path
       style="fill:#125072;stroke-width:1.01837"
       d="m 7.0435995,5.0000008 c -1.1329036,0 -2.0436935,0.9132982 -2.0436935,2.0483946 v 8.9479656 8.247279 8.24727 c 0,2.294958 0.6969134,4.42091 1.8906175,6.180088 5.5918195,8.312284 15.8906015,20.701334 25.6092745,21.310822 h 8.249964 0.649898 l 1.275639,-0.27652 h 8.249964 7.58126 c 0.281202,0 0.547003,-0.08632 0.789556,-0.233566 0.0015,-0.0013 0.0038,-0.0013 0.0052,-0.0026 0.426129,-0.37486 0.698317,-0.91995 0.698317,-1.53566 V 48.985492 40.73822 32.49095 c 0,-2.294956 -0.696913,-4.42092 -1.890617,-6.180086 C 55.151902,21.914966 50.872434,16.39165 46.064443,12.060651 43.293091,9.6296738 40.395942,7.583139 37.613059,6.3315914 35.909025,5.5914268 34.196604,5.1064112 32.499798,5.0000008 h -8.249965 -8.249975 z"
       id="path2" />
    <path
       style="fill:#ffffff;stroke-width:1.01837"
       d="m 15.19617,13.145451 c -1.135374,0 -2.048153,0.915293 -2.048153,2.052859 v 8.96747 8.265236 10.883106 c 1.270816,8.29964 12.202342,16.028432 19.291867,16.667698 h 7.560109 l 0.433308,-0.13723 h 8.267946 9.250297 c 1.135365,0 2.029577,-1.13068 2.048145,-2.2681 v -8.614998 -8.265246 -8.265238 c 0,-2.299956 -0.698434,-4.43055 -1.894743,-6.19355 C 53.92196,19.64746 48.243888,13.477361 40.707822,13.145451 h -8.267938 -8.267936 z"
       id="path3" />
    <path
       style="fill:#00cae5;stroke-width:1.01837"
       d="m 23.350639,21.29091 c -1.138898,0 -2.054501,0.918124 -2.054501,2.059232 v 8.99531 1.163638 H 35.555335 V 26.818182 L 53.888603,38.6 35.555335,50.30909 V 43.69091 H 21.296138 v 5.236368 c 0,6.124216 4.931937,11.054542 11.058154,11.054542 h 8.293617 8.293627 9.003642 c 1.138895,0 2.054511,-0.918134 2.054511,-2.05923 V 48.927278 40.63636 32.345452 c 0,-6.124216 -4.931937,-11.054542 -11.058153,-11.054542 h -8.293627 -8.293617 z"
       id="path4" />
    <path
       style="opacity:0.1;fill:#ffffff;stroke-width:1.01837"
       d="M 7.0449874,5 C 5.912085,5 5.0000021,5.9131984 5.0000021,7.0482958 v 1.018182 c 0,-1.1350975 0.9120829,-2.0482958 2.0449853,-2.0482958 h 8.9557666 8.247581 8.251557 c 1.696806,0.1064104 3.408436,0.5922212 5.11247,1.3323858 2.782873,1.2515476 5.679142,3.2962952 8.450486,5.7272762 4.807999,4.330998 9.089939,9.854706 12.047109,14.250564 1.193704,1.759175 1.889826,3.885726 1.889826,6.180682 v -1.01818 c 0,-2.294956 -0.696122,-4.421517 -1.889826,-6.180682 C 55.152787,21.91437 50.870847,16.390652 46.062848,12.059664 43.291504,9.6286781 40.395235,7.5839344 37.612362,6.3323868 35.908328,5.5922212 34.196698,5.1064104 32.499892,5 h -8.251557 -8.247581 z"
       id="path5" />
    <path
       style="opacity:0.2;stroke-width:1.01837"
       d="M 53.094971,39.107107 35.555439,50.30909 v 1.01818 L 53.888697,39.61818 Z M 21.296232,43.69091 v 1.01818 h 14.259207 v -1.01818 z"
       id="path6" />
  </g>
</svg>
