<?xml version="1.0" encoding="UTF-8" standalone="no"?>
<!-- Created with Inkscape (http://www.inkscape.org/) -->

<svg
   width="62"
   height="62"
   viewBox="0 0 62 62"
   version="1.1"
   id="svg1"
   inkscape:version="1.4 (e7c3feb100, 2024-10-09)"
   sodipodi:docname="kvantum.svg"
   xmlns:inkscape="http://www.inkscape.org/namespaces/inkscape"
   xmlns:sodipodi="http://sodipodi.sourceforge.net/DTD/sodipodi-0.dtd"
   xmlns:xlink="http://www.w3.org/1999/xlink"
   xmlns="http://www.w3.org/2000/svg"
   xmlns:svg="http://www.w3.org/2000/svg">
  <sodipodi:namedview
     id="namedview1"
     pagecolor="#ffffff"
     bordercolor="#000000"
     borderopacity="0.25"
     inkscape:showpageshadow="2"
     inkscape:pageopacity="0.0"
     inkscape:pagecheckerboard="0"
     inkscape:deskcolor="#d1d1d1"
     inkscape:document-units="px"
     inkscape:zoom="7.5994534"
     inkscape:cx="30.002158"
     inkscape:cy="45.134825"
     inkscape:window-width="1920"
     inkscape:window-height="994"
     inkscape:window-x="0"
     inkscape:window-y="0"
     inkscape:window-maximized="1"
     inkscape:current-layer="layer1" />
  <defs
     id="defs1">
    <linearGradient
       id="linearGradient5"
       inkscape:collect="always">
      <stop
         style="stop-color:#ac9d93;stop-opacity:1"
         offset="0"
         id="stop5" />
      <stop
         style="stop-color:#71706e;stop-opacity:1;"
         offset="1"
         id="stop6" />
    </linearGradient>
    <linearGradient
       id="linearGradient3"
       inkscape:collect="always">
      <stop
         style="stop-color:#566c80;stop-opacity:1;"
         offset="0"
         id="stop3" />
      <stop
         style="stop-color:#3b4c59;stop-opacity:1;"
         offset="1"
         id="stop4" />
    </linearGradient>
    <linearGradient
       id="linearGradient1"
       inkscape:collect="always">
      <stop
         style="stop-color:#566c80;stop-opacity:1;"
         offset="0"
         id="stop1" />
      <stop
         style="stop-color:#33424c;stop-opacity:1;"
         offset="1"
         id="stop2" />
    </linearGradient>
    <radialGradient
       id="paint664_radial_890_11"
       cx="0"
       cy="0"
       r="1"
       gradientUnits="userSpaceOnUse"
       gradientTransform="matrix(-16.000099,-9.999913,9.999913,-16.000099,583,171)">
      <stop
         offset="0.42141"
         stop-color="#B7C6CD"
         id="stop2071" />
      <stop
         offset="1"
         stop-color="#EFF2F6"
         id="stop2072" />
    </radialGradient>
    <linearGradient
       id="paint665_linear_890_11"
       x1="605"
       y1="180"
       x2="601.466"
       y2="162.72301"
       gradientUnits="userSpaceOnUse">
      <stop
         stop-color="#5200FF"
         id="stop2073" />
      <stop
         offset="1"
         stop-color="#0085FF"
         id="stop2074" />
    </linearGradient>
    <linearGradient
       id="paint666_linear_890_11"
       x1="567"
       y1="181"
       x2="562.11798"
       y2="174.183"
       gradientUnits="userSpaceOnUse">
      <stop
         stop-color="#5200FF"
         id="stop2075" />
      <stop
         offset="0.670391"
         stop-color="#0085FF"
         id="stop2076" />
    </linearGradient>
    <linearGradient
       id="paint667_linear_890_11"
       x1="605"
       y1="180"
       x2="597.32001"
       y2="174.24001"
       gradientUnits="userSpaceOnUse">
      <stop
         stop-color="#5200FF"
         id="stop2077" />
      <stop
         offset="1"
         stop-color="#0085FF"
         id="stop2078" />
    </linearGradient>
    <linearGradient
       id="paint668_linear_890_11"
       x1="567"
       y1="180"
       x2="561.23999"
       y2="172.32001"
       gradientUnits="userSpaceOnUse">
      <stop
         stop-color="#5200FF"
         id="stop2079" />
      <stop
         offset="1"
         stop-color="#0085FF"
         id="stop2080" />
    </linearGradient>
    <linearGradient
       id="paint669_linear_890_11"
       x1="607"
       y1="179"
       x2="602.50598"
       y2="171.80901"
       gradientUnits="userSpaceOnUse">
      <stop
         stop-color="#5200FF"
         id="stop2081" />
      <stop
         offset="1"
         stop-color="#0085FF"
         id="stop2082" />
    </linearGradient>
    <linearGradient
       id="paint670_linear_890_11"
       x1="607"
       y1="217"
       x2="568.82599"
       y2="170.01601"
       gradientUnits="userSpaceOnUse">
      <stop
         stop-color="#5200FF"
         id="stop2083" />
      <stop
         offset="1"
         stop-color="#0085FF"
         id="stop2084" />
    </linearGradient>
    <radialGradient
       id="paint671_radial_890_11"
       cx="0"
       cy="0"
       r="1"
       gradientUnits="userSpaceOnUse"
       gradientTransform="matrix(0,20,-16,0,583,187)">
      <stop
         offset="0.869716"
         stop-color="#EFF2F6"
         id="stop2085" />
      <stop
         offset="1"
         stop-color="#B7C6CD"
         id="stop2086" />
    </radialGradient>
    <linearGradient
       id="paint451_linear_890_11"
       x1="55"
       y1="461"
       x2="111"
       y2="517"
       gradientUnits="userSpaceOnUse"
       gradientTransform="translate(-53,-457)">
      <stop
         offset="0.303571"
         stop-color="#EFF2F6"
         id="stop1644" />
      <stop
         offset="1"
         stop-color="#B7C6CD"
         id="stop1645" />
    </linearGradient>
    <linearGradient
       id="paint452_linear_890_11"
       x1="107"
       y1="513"
       x2="67.655701"
       y2="465.78699"
       gradientUnits="userSpaceOnUse"
       gradientTransform="matrix(1,0,0,1.2,-53,-559.6)">
      <stop
         stop-color="#2E2E41"
         id="stop1646" />
      <stop
         offset="1"
         stop-color="#566C80"
         id="stop1647" />
    </linearGradient>
    <linearGradient
       id="paint453_linear_890_11"
       x1="61"
       y1="465"
       x2="65"
       y2="469"
       gradientUnits="userSpaceOnUse"
       gradientTransform="translate(-53,-457)">
      <stop
         offset="0.236371"
         stop-color="#F15700"
         id="stop1648" />
      <stop
         offset="0.855848"
         stop-color="#FF0000"
         id="stop1649" />
    </linearGradient>
    <linearGradient
       id="paint454_linear_890_11"
       x1="71"
       y1="469"
       x2="67"
       y2="465"
       gradientUnits="userSpaceOnUse"
       gradientTransform="translate(-53,-457)">
      <stop
         stop-color="#FF7E07"
         id="stop1650" />
      <stop
         offset="1"
         stop-color="#FFE607"
         id="stop1651" />
    </linearGradient>
    <linearGradient
       id="paint455_linear_890_11"
       x1="77"
       y1="469"
       x2="73"
       y2="465"
       gradientUnits="userSpaceOnUse"
       gradientTransform="translate(-53,-457)">
      <stop
         stop-color="#089953"
         id="stop1652" />
      <stop
         offset="1"
         stop-color="#16D96F"
         id="stop1653" />
    </linearGradient>
    <linearGradient
       id="paint456_linear_890_11"
       x1="80"
       y1="486"
       x2="80"
       y2="492"
       gradientUnits="userSpaceOnUse"
       gradientTransform="translate(-53,-457)">
      <stop
         offset="0.189495"
         stop-color="#EFF2F6"
         id="stop1654" />
      <stop
         offset="0.850463"
         stop-color="#B7C6CD"
         id="stop1655" />
    </linearGradient>
    <linearGradient
       id="paint457_linear_890_11"
       x1="82"
       y1="494"
       x2="82"
       y2="500"
       gradientUnits="userSpaceOnUse">
      <stop
         offset="0.189495"
         stop-color="#EFF2F6"
         id="stop1656" />
      <stop
         offset="0.850463"
         stop-color="#B7C6CD"
         id="stop1657" />
    </linearGradient>
    <linearGradient
       id="paint486_linear_890_11"
       x1="707"
       y1="391"
       x2="699.474"
       y2="365.19501"
       gradientUnits="userSpaceOnUse"
       gradientTransform="translate(-652,-358)">
      <stop
         stop-color="#2E2E41"
         id="stop1715" />
      <stop
         offset="1"
         stop-color="#566C80"
         id="stop1716" />
    </linearGradient>
    <linearGradient
       id="paint487_linear_890_11"
       x1="701"
       y1="411"
       x2="652.21997"
       y2="371.97601"
       gradientUnits="userSpaceOnUse"
       gradientTransform="translate(-652,-358)">
      <stop
         stop-color="#5200FF"
         id="stop1717" />
      <stop
         offset="0.906064"
         stop-color="#0085FF"
         id="stop1718" />
    </linearGradient>
    <linearGradient
       id="paint488_linear_890_11"
       x1="705"
       y1="411"
       x2="661.87097"
       y2="375.71301"
       gradientUnits="userSpaceOnUse"
       gradientTransform="translate(-652,-358)">
      <stop
         offset="0.377885"
         stop-color="#FF7E07"
         id="stop1719" />
      <stop
         offset="1"
         stop-color="#FFE607"
         id="stop1720" />
    </linearGradient>
    <linearGradient
       id="paint489_linear_890_11"
       x1="703"
       y1="411"
       x2="665.04999"
       y2="371.05301"
       gradientUnits="userSpaceOnUse"
       gradientTransform="matrix(1,0,0,1.0526316,-651.984,-379.72464)">
      <stop
         offset="0.295664"
         stop-color="#71706E"
         id="stop1721" />
      <stop
         offset="1"
         stop-color="#B9AA99"
         id="stop1722" />
    </linearGradient>
    <linearGradient
       id="paint490_linear_890_11"
       x1="672.75"
       y1="379"
       x2="672.75"
       y2="381"
       gradientUnits="userSpaceOnUse"
       gradientTransform="translate(-652,-358)">
      <stop
         stop-color="white"
         id="stop1723" />
      <stop
         offset="0.705"
         stop-color="#E6E6E6"
         id="stop1724" />
    </linearGradient>
    <linearGradient
       id="paint491_linear_890_11"
       x1="671.5"
       y1="383"
       x2="671.5"
       y2="385"
       gradientUnits="userSpaceOnUse"
       gradientTransform="translate(-652,-358)">
      <stop
         stop-color="white"
         id="stop1725" />
      <stop
         offset="0.705"
         stop-color="#E6E6E6"
         id="stop1726" />
    </linearGradient>
    <linearGradient
       id="paint492_linear_890_11"
       x1="707"
       y1="417"
       x2="682.62701"
       y2="375.21799"
       gradientUnits="userSpaceOnUse"
       gradientTransform="translate(-652,-358)">
      <stop
         offset="0.126759"
         stop-color="#2E2E41"
         id="stop1727" />
      <stop
         offset="0.877369"
         stop-color="#566C80"
         id="stop1728" />
    </linearGradient>
    <linearGradient
       id="paint493_linear_890_11"
       x1="691.69598"
       y1="403"
       x2="691.69598"
       y2="399"
       gradientUnits="userSpaceOnUse"
       gradientTransform="translate(-696.75564,-361.34969)">
      <stop
         offset="0.340681"
         stop-color="#2E2E41"
         id="stop1729" />
      <stop
         offset="1"
         stop-color="#566C80"
         id="stop1730" />
    </linearGradient>
    <linearGradient
       inkscape:collect="always"
       xlink:href="#linearGradient1"
       id="linearGradient2"
       x1="20.712671"
       y1="17.593781"
       x2="55"
       y2="59"
       gradientUnits="userSpaceOnUse" />
    <linearGradient
       inkscape:collect="always"
       xlink:href="#linearGradient3"
       id="linearGradient4"
       x1="43.769562"
       y1="6.6808619"
       x2="57.571426"
       y2="29.594257"
       gradientUnits="userSpaceOnUse" />
    <linearGradient
       inkscape:collect="always"
       xlink:href="#linearGradient5"
       id="linearGradient6"
       x1="15.076442"
       y1="19"
       x2="51.015999"
       y2="52.906952"
       gradientUnits="userSpaceOnUse" />
  </defs>
  <g
     inkscape:label="Layer 1"
     inkscape:groupmode="layer"
     id="layer1">
    <g
       id="g1"
       transform="matrix(1.1666667,0,0,1.1715433,-5.1666677,-11.121054)">
      <path
         d="m 7,25 c 0,-3.314 2.686,-6 6,-6 h 36 c 3.314,0 6,2.686 6,6 v 8 H 7 Z"
         id="path476"
         style="fill:url(#linearGradient4)" />
      <path
         d="m 11.016,17.117479 c 0,-2.325263 1.791,-4.210526 4,-4.210526 h 32 c 2.209,0 4,1.885263 4,4.210526 v 31.578948 c 0,2.325263 -1.791,4.210526 -4,4.210526 h -32 c -2.209,0 -4,-1.885263 -4,-4.210526 z"
         id="path479"
         style="fill:url(#linearGradient6)" />
      <path
         d="m 7,33 c 0,-1.105 0.895,-2 2,-2 h 44 c 1.105,0 2,0.895 2,2 v 20 c 0,3.314 -2.686,6 -6,6 H 13 C 9.686,59 7,56.314 7,53 Z"
         id="path482"
         style="fill:url(#linearGradient2)" />
      <path
         style="opacity:0.2;stroke-width:1.15783"
         d="m 19.42095,35.203904 2.09e-4,2.25408 1.730971,0.146233 0.310504,0.438615 -3.086936,15.175957 -0.474917,0.457018 -1.953369,0.147147 v 2.222918 l 8.105073,1.4e-4 2.62e-4,-2.222812 -1.456683,-0.128228 -0.328775,-0.475237 1.260369,-6.427731 h 1.936106 l 2.7764,5.848677 c 1.134749,2.332298 1.930783,3.332162 4.383783,3.363106 0.70532,0.0083 0.989067,0.06096 2.891847,0 6.562831,-5.482665 9.912739,-10.124103 10.442017,-12.013558 0.32055,-1.14439 -0.188373,-1.846248 -1.278892,-1.846248 -0.53196,0 -1.140992,0.22417 -1.82623,0.676596 l -0.493177,4.391757 c -1.343153,1.756458 -3.133722,3.66979 -5.315325,5.665848 l 1.906017,-8.011735 c 0.299441,-1.543736 0.398168,-2.367397 -0.602874,-2.686826 l -4.474925,0.987148 -0.23716,0.840599 2.063725,0.329189 c 0.143461,0.532206 -0.478511,2.152514 -0.791822,3.935849 l -1.004624,5.53782 c -0.01582,0.05699 -0.02587,0.119452 -0.03666,0.182776 -0.65141,-0.350227 -1.062055,-0.973847 -1.534334,-1.919014 l -3.92711,-7.8592 7.17837,-6.464017 2.364602,-0.237585 -2.94e-4,-2.309006 -8.105276,7.7e-5 3.19e-4,2.309111 2.416239,0.146018 0.182653,0.493525 -7.574099,6.31206 h -0.913275 l 1.400322,-6.42168 0.401855,-0.438613 1.770467,-0.146182 -1.8e-4,-2.254311 z"
         id="path9" />
      <path
         style="fill:#ffffff;stroke-width:1.15783"
         d="m 19.42095,34.046012 2.09e-4,2.25408 1.730971,0.146214 0.310504,0.438635 -3.086936,15.175956 -0.474917,0.457018 -1.953369,0.147148 v 2.222918 l 8.105073,1.39e-4 2.62e-4,-2.222812 -1.456683,-0.128227 -0.328775,-0.475237 1.260369,-6.427732 h 1.936106 l 2.7764,5.848677 c 1.134749,2.332279 1.930783,3.332162 4.383783,3.363106 0.70532,0.0083 0.989067,0.06096 2.891847,0 6.562831,-5.482664 9.912739,-10.124103 10.442017,-12.013558 0.32055,-1.144389 -0.188373,-1.846247 -1.278892,-1.846247 -0.53196,0 -1.140992,0.224169 -1.82623,0.676596 l -0.493177,4.391756 c -1.343153,1.756458 -3.133722,3.669791 -5.315325,5.665849 l 1.906017,-8.011736 c 0.299441,-1.543736 0.398168,-2.367397 -0.602874,-2.686825 l -4.474925,0.987147 -0.23716,0.840599 2.063725,0.32919 c 0.143461,0.532205 -0.478511,2.152513 -0.791822,3.935848 l -1.004624,5.53782 c -0.01582,0.05699 -0.02587,0.119453 -0.03666,0.182776 -0.651402,-0.350226 -1.062047,-0.973866 -1.534324,-1.919014 l -3.927115,-7.8592 7.178369,-6.464017 2.364602,-0.237585 -2.94e-4,-2.309006 -8.105274,7.7e-5 3.18e-4,2.309111 2.416239,0.146018 0.182652,0.493525 -7.574097,6.31206 h -0.913281 l 1.400322,-6.421679 0.401855,-0.438614 1.770467,-0.146181 -1.8e-4,-2.254312 z"
         id="path10" />
      <path
         d="m 50.981994,24.995636 -8.049043,5.998228 h 8.043975 v -5.998228 z"
         fill="#ff6e4c"
         style="stroke-width:4.37693;paint-order:stroke markers fill"
         id="path3" />
      <path
         d="m 41.1452,21.771635 c -1.277506,0 -2.555011,0.491349 -3.537708,1.470266 l -7.751963,7.751963 h 14.14327 l 0.680329,-0.680328 a 4.9890746,4.9890746 0 0 0 0,-7.071635 4.9815154,4.9815154 0 0 0 -3.533928,-1.474045 z"
         fill="#85ffbc"
         style="stroke-width:3.7796;paint-order:stroke markers fill"
         id="path4" />
      <path
         d="m 39.073978,14.7 c -1.277506,0 -2.555011,0.491348 -3.533928,1.470265 L 20.712671,30.993864 h 14.143271 l 7.751964,-7.751963 a 4.9890746,4.9890746 0 0 0 0,-7.071636 A 4.9815154,4.9815154 0 0 0 39.073978,14.7 Z"
         fill="#70adff"
         style="stroke-width:3.7796;paint-order:stroke markers fill"
         id="path5" />
      <path
         d="m 25.28599,19.704193 c -1.277506,0 -2.555011,0.491348 -3.533928,1.470265 l -8.821591,8.817812 v 1.001594 h 13.141676 l 2.75155,-2.74777 a 4.9890746,4.9890746 0 0 0 0,-7.071636 4.9815154,4.9815154 0 0 0 -3.537707,-1.470265 z"
         fill="#ff633d"
         style="stroke-width:3.7796;paint-order:stroke markers fill"
         id="path6" />
      <path
         d="m 13.342375,21.006581 c -0.800074,0 -1.587842,0.194944 -2.326375,0.54422 v 9.44262 h 5.34615 l 0.820594,-0.812268 a 5.4159021,5.3609716 0 0 0 0,-7.59471 5.4076962,5.3528489 0 0 0 -3.840369,-1.579862 z"
         style="stroke-width:4.08211;paint-order:stroke markers fill"
         id="path7"
         fill="#fff066" />
    </g>
  </g>
</svg>
