<?xml version="1.0" encoding="UTF-8" standalone="no"?>
<svg
   width="62"
   height="62"
   version="1.1"
   viewBox="0 0 16.403844 16.403844"
   id="svg2"
   sodipodi:docname="distributor-logo-ubuntu-budgie.svg"
   inkscape:version="1.4 (e7c3feb100, 2024-10-09)"
   xmlns:inkscape="http://www.inkscape.org/namespaces/inkscape"
   xmlns:sodipodi="http://sodipodi.sourceforge.net/DTD/sodipodi-0.dtd"
   xmlns:xlink="http://www.w3.org/1999/xlink"
   xmlns="http://www.w3.org/2000/svg"
   xmlns:svg="http://www.w3.org/2000/svg">
  <defs
     id="defs2">
    <linearGradient
       id="linearGradient4"
       inkscape:collect="always">
      <stop
         style="stop-color:#434b58;stop-opacity:1;"
         offset="0"
         id="stop4" />
      <stop
         style="stop-color:#6f7c91;stop-opacity:1"
         offset="1"
         id="stop5" />
    </linearGradient>
    <linearGradient
       inkscape:collect="always"
       xlink:href="#linearGradient4"
       id="linearGradient5"
       x1="8.7548895"
       y1="15.130039"
       x2="8.829299"
       y2="1.5931748"
       gradientUnits="userSpaceOnUse" />
  </defs>
  <sodipodi:namedview
     id="namedview2"
     pagecolor="#ffffff"
     bordercolor="#000000"
     borderopacity="0.25"
     inkscape:showpageshadow="2"
     inkscape:pageopacity="0.0"
     inkscape:pagecheckerboard="0"
     inkscape:deskcolor="#d1d1d1"
     inkscape:zoom="11.6875"
     inkscape:cx="32"
     inkscape:cy="34.31016"
     inkscape:window-width="1920"
     inkscape:window-height="994"
     inkscape:window-x="0"
     inkscape:window-y="0"
     inkscape:window-maximized="1"
     inkscape:current-layer="svg2" />
  <g
     transform="matrix(1.076928,0,0,1.076928,-1.0057459,-0.91588891)"
     stroke-width="0.92729"
     id="g1">
    <path
       d="m 8.467,1.588 a 6.879,6.879 0 1 1 0,13.757 6.879,6.879 0 0 1 0,-13.757 z"
       id="path1"
       style="fill:url(#linearGradient5)" />
  </g>
  <path
     d="M 8.2025137,3.1749376 A 5.0263877,5.0263877 0 0 0 3.1749373,8.202514 5.0263877,5.0263877 0 0 0 8.2025137,13.228906 5.0263877,5.0263877 0 0 0 13.228907,8.202514 5.0263877,5.0263877 0 0 0 8.2025137,3.1749376 Z m 1.3441699,1.1755555 c 0.142492,-0.0024 0.260047,0.01425 0.400165,0.036811 0.5129744,0.083127 1.0069444,0.4120383 1.3204274,0.9558812 0.423904,0.7338309 0.324164,1.6624011 -0.149625,2.1729958 -0.257665,0.237486 -0.312294,0.255298 -0.471414,0.363353 0.109263,-0.1709904 0.12825,-0.2042382 0.154379,-0.3621662 -0.0057,-0.087864 -0.0034,-0.1246799 -0.04987,-0.2434217 a 0.63646213,0.63646213 0 0 0 -0.284999,-0.3075466 1.0283138,1.0283138 0 0 0 -0.442906,-0.08787 c -0.08908,0 -0.1436784,-0.0024 -0.2636114,0.015443 C 9.2082665,7.0459573 8.5908029,6.8345951 8.3010696,6.331126 7.9543412,5.7302859 8.2060745,4.9335212 8.8282882,4.5749175 A 1.4842861,1.4842861 0 0 1 9.3946926,4.362367 c 0.05463,-0.00714 0.104495,-0.00936 0.151991,-0.011874 z m -3.6560943,1.637465 c 0.089052,0.0024 0.1757381,0.014245 0.2612327,0.034444 C 6.4854906,6.125708 6.5282384,6.163706 6.7016022,6.2480119 6.4997397,6.2397606 6.4605548,6.2386232 6.3109379,6.2955094 6.2373135,6.3441912 6.204068,6.3608216 6.1256996,6.4605628 A 0.63646213,0.63646213 0 0 0 6.0010201,6.8607199 1.0283138,1.0283138 0 0 0 6.145886,7.2881954 C 6.19101,7.3653734 6.215939,7.4140618 6.2919393,7.5078696 6.6992284,7.9104077 6.8239085,8.5504309 6.5329878,9.0527136 6.1862581,9.6547384 5.369307,9.8328544 4.7482811,9.4742504 A 1.4842861,1.4842861 0 0 1 4.281621,9.0895235 1.7906431,1.7906431 0 0 1 4.0263238,8.5979268 C 3.8410849,8.113456 3.8790825,7.5209289 4.1925647,6.9770867 4.5642291,6.3346863 5.2648136,5.9642096 5.8894003,5.9867715 Z m 3.8828963,3.2357444 c 0.6946524,0 1.2574884,0.6174649 1.2574884,1.3358525 0,0.211364 -0.02011,0.410849 -0.09971,0.596099 -0.08672,0.20186 -0.178106,0.318223 -0.296854,0.465473 -0.327725,0.403717 -0.8608854,0.666141 -1.4890379,0.666141 -0.846637,0 -1.6030296,-0.550967 -1.8060802,-1.217114 -0.077178,-0.340791 -0.065313,-0.396602 -0.078363,-0.588961 0.093806,0.180482 0.1116182,0.213726 0.235111,0.313479 0.079552,0.04041 0.110432,0.05942 0.2362986,0.07954 a 0.6412119,0.6412119 0 0 0 0.4084711,-0.0939 1.0247517,1.0247517 0 0 0 0.2980449,-0.338405 c 0.043943,-0.07713 0.074817,-0.123486 0.1187452,-0.236295 C 8.7000696,9.6523144 9.1940398,9.2248377 9.7746946,9.2248377 Z"
     fill="#ffffff"
     id="path2"
     style="stroke-width:1.18733" />
</svg>
