<?xml version="1.0" encoding="UTF-8" standalone="no"?>
<!-- Created with Inkscape (http://www.inkscape.org/) -->

<svg
   width="62"
   height="62"
   viewBox="0 0 62 62"
   version="1.1"
   id="svg1"
   inkscape:version="1.4 (e7c3feb100, 2024-10-09)"
   sodipodi:docname="pattern-documentation.svg"
   xmlns:inkscape="http://www.inkscape.org/namespaces/inkscape"
   xmlns:sodipodi="http://sodipodi.sourceforge.net/DTD/sodipodi-0.dtd"
   xmlns:xlink="http://www.w3.org/1999/xlink"
   xmlns="http://www.w3.org/2000/svg"
   xmlns:svg="http://www.w3.org/2000/svg">
  <sodipodi:namedview
     id="namedview1"
     pagecolor="#ffffff"
     bordercolor="#000000"
     borderopacity="0.25"
     inkscape:showpageshadow="2"
     inkscape:pageopacity="0.0"
     inkscape:pagecheckerboard="0"
     inkscape:deskcolor="#d1d1d1"
     inkscape:document-units="px"
     inkscape:zoom="10.74725"
     inkscape:cx="29.868106"
     inkscape:cy="31.822094"
     inkscape:window-width="1920"
     inkscape:window-height="994"
     inkscape:window-x="0"
     inkscape:window-y="0"
     inkscape:window-maximized="1"
     inkscape:current-layer="layer1" />
  <defs
     id="defs1">
    <linearGradient
       id="linearGradient3"
       inkscape:collect="always">
      <stop
         style="stop-color:#2ca05a;stop-opacity:1;"
         offset="0"
         id="stop6" />
      <stop
         style="stop-color:#008080;stop-opacity:1"
         offset="1"
         id="stop7" />
    </linearGradient>
    <linearGradient
       id="linearGradient5"
       inkscape:collect="always">
      <stop
         style="stop-color:#b7c6cd;stop-opacity:1;"
         offset="0"
         id="stop4" />
      <stop
         style="stop-color:#f0f2f5;stop-opacity:1;"
         offset="1"
         id="stop5" />
    </linearGradient>
    <linearGradient
       id="linearGradient1"
       inkscape:collect="always">
      <stop
         style="stop-color:#52627a;stop-opacity:1;"
         offset="0"
         id="stop1" />
      <stop
         style="stop-color:#33404d;stop-opacity:1;"
         offset="0.80163628"
         id="stop3" />
      <stop
         style="stop-color:#2f3b46;stop-opacity:1;"
         offset="1"
         id="stop2" />
    </linearGradient>
    <radialGradient
       id="paint664_radial_890_11"
       cx="0"
       cy="0"
       r="1"
       gradientUnits="userSpaceOnUse"
       gradientTransform="matrix(-16.000099,-9.999913,9.999913,-16.000099,583,171)">
      <stop
         offset="0.42141"
         stop-color="#B7C6CD"
         id="stop2071" />
      <stop
         offset="1"
         stop-color="#EFF2F6"
         id="stop2072" />
    </radialGradient>
    <linearGradient
       id="paint665_linear_890_11"
       x1="605"
       y1="180"
       x2="601.466"
       y2="162.72301"
       gradientUnits="userSpaceOnUse">
      <stop
         stop-color="#5200FF"
         id="stop2073" />
      <stop
         offset="1"
         stop-color="#0085FF"
         id="stop2074" />
    </linearGradient>
    <linearGradient
       id="paint666_linear_890_11"
       x1="567"
       y1="181"
       x2="562.11798"
       y2="174.183"
       gradientUnits="userSpaceOnUse">
      <stop
         stop-color="#5200FF"
         id="stop2075" />
      <stop
         offset="0.670391"
         stop-color="#0085FF"
         id="stop2076" />
    </linearGradient>
    <linearGradient
       id="paint667_linear_890_11"
       x1="605"
       y1="180"
       x2="597.32001"
       y2="174.24001"
       gradientUnits="userSpaceOnUse">
      <stop
         stop-color="#5200FF"
         id="stop2077" />
      <stop
         offset="1"
         stop-color="#0085FF"
         id="stop2078" />
    </linearGradient>
    <linearGradient
       id="paint668_linear_890_11"
       x1="567"
       y1="180"
       x2="561.23999"
       y2="172.32001"
       gradientUnits="userSpaceOnUse">
      <stop
         stop-color="#5200FF"
         id="stop2079" />
      <stop
         offset="1"
         stop-color="#0085FF"
         id="stop2080" />
    </linearGradient>
    <linearGradient
       id="paint669_linear_890_11"
       x1="607"
       y1="179"
       x2="602.50598"
       y2="171.80901"
       gradientUnits="userSpaceOnUse">
      <stop
         stop-color="#5200FF"
         id="stop2081" />
      <stop
         offset="1"
         stop-color="#0085FF"
         id="stop2082" />
    </linearGradient>
    <linearGradient
       id="paint670_linear_890_11"
       x1="607"
       y1="217"
       x2="568.82599"
       y2="170.01601"
       gradientUnits="userSpaceOnUse">
      <stop
         stop-color="#5200FF"
         id="stop2083" />
      <stop
         offset="1"
         stop-color="#0085FF"
         id="stop2084" />
    </linearGradient>
    <radialGradient
       id="paint671_radial_890_11"
       cx="0"
       cy="0"
       r="1"
       gradientUnits="userSpaceOnUse"
       gradientTransform="matrix(0,20,-16,0,583,187)">
      <stop
         offset="0.869716"
         stop-color="#EFF2F6"
         id="stop2085" />
      <stop
         offset="1"
         stop-color="#B7C6CD"
         id="stop2086" />
    </radialGradient>
    <linearGradient
       id="paint451_linear_890_11"
       x1="55"
       y1="461"
       x2="111"
       y2="517"
       gradientUnits="userSpaceOnUse"
       gradientTransform="translate(-53,-457)">
      <stop
         offset="0.303571"
         stop-color="#EFF2F6"
         id="stop1644" />
      <stop
         offset="1"
         stop-color="#B7C6CD"
         id="stop1645" />
    </linearGradient>
    <linearGradient
       id="paint452_linear_890_11"
       x1="107"
       y1="513"
       x2="67.655701"
       y2="465.78699"
       gradientUnits="userSpaceOnUse"
       gradientTransform="matrix(1,0,0,1.2,-53,-559.6)">
      <stop
         stop-color="#2E2E41"
         id="stop1646" />
      <stop
         offset="1"
         stop-color="#566C80"
         id="stop1647" />
    </linearGradient>
    <linearGradient
       id="paint453_linear_890_11"
       x1="61"
       y1="465"
       x2="65"
       y2="469"
       gradientUnits="userSpaceOnUse"
       gradientTransform="translate(-53,-457)">
      <stop
         offset="0.236371"
         stop-color="#F15700"
         id="stop1648" />
      <stop
         offset="0.855848"
         stop-color="#FF0000"
         id="stop1649" />
    </linearGradient>
    <linearGradient
       id="paint454_linear_890_11"
       x1="71"
       y1="469"
       x2="67"
       y2="465"
       gradientUnits="userSpaceOnUse"
       gradientTransform="translate(-53,-457)">
      <stop
         stop-color="#FF7E07"
         id="stop1650" />
      <stop
         offset="1"
         stop-color="#FFE607"
         id="stop1651" />
    </linearGradient>
    <linearGradient
       id="paint455_linear_890_11"
       x1="77"
       y1="469"
       x2="73"
       y2="465"
       gradientUnits="userSpaceOnUse"
       gradientTransform="translate(-53,-457)">
      <stop
         stop-color="#089953"
         id="stop1652" />
      <stop
         offset="1"
         stop-color="#16D96F"
         id="stop1653" />
    </linearGradient>
    <linearGradient
       id="paint456_linear_890_11"
       x1="80"
       y1="486"
       x2="80"
       y2="492"
       gradientUnits="userSpaceOnUse"
       gradientTransform="translate(-53,-457)">
      <stop
         offset="0.189495"
         stop-color="#EFF2F6"
         id="stop1654" />
      <stop
         offset="0.850463"
         stop-color="#B7C6CD"
         id="stop1655" />
    </linearGradient>
    <linearGradient
       id="paint457_linear_890_11"
       x1="82"
       y1="494"
       x2="82"
       y2="500"
       gradientUnits="userSpaceOnUse">
      <stop
         offset="0.189495"
         stop-color="#EFF2F6"
         id="stop1656" />
      <stop
         offset="0.850463"
         stop-color="#B7C6CD"
         id="stop1657" />
    </linearGradient>
    <linearGradient
       id="paint400_linear_890_11"
       x1="568.5"
       y1="490.5"
       x2="559"
       y2="490.5"
       gradientUnits="userSpaceOnUse"
       gradientTransform="translate(-551.88344,-457.27914)">
      <stop
         offset="0.152115"
         stop-color="#2E2E41"
         id="stop1542"
         style="stop-color:#2f3b46;stop-opacity:1;" />
      <stop
         offset="1"
         stop-color="#566C80"
         id="stop1543" />
    </linearGradient>
    <linearGradient
       id="paint401_linear_890_11"
       x1="568"
       y1="461"
       x2="619.68762"
       y2="498.23132"
       gradientUnits="userSpaceOnUse"
       gradientTransform="translate(-551.88344,-457.27914)">
      <stop
         offset="0.179449"
         stop-color="#F15700"
         id="stop1544"
         style="stop-color:#2ca05a;stop-opacity:1" />
      <stop
         offset="0.879484"
         stop-color="#FF0000"
         id="stop1545"
         style="stop-color:#008080;stop-opacity:1" />
    </linearGradient>
    <linearGradient
       id="paint402_linear_890_11"
       x1="585.5"
       y1="481"
       x2="585.5"
       y2="485"
       gradientUnits="userSpaceOnUse"
       gradientTransform="translate(-553,-457)">
      <stop
         stop-color="white"
         id="stop1546" />
      <stop
         offset="0.705"
         stop-color="#E6E6E6"
         id="stop1547" />
    </linearGradient>
    <linearGradient
       id="paint403_linear_890_11"
       x1="582"
       y1="489"
       x2="582"
       y2="493"
       gradientUnits="userSpaceOnUse"
       gradientTransform="translate(-553,-457)">
      <stop
         stop-color="white"
         id="stop1548" />
      <stop
         offset="0.705"
         stop-color="#E6E6E6"
         id="stop1549" />
    </linearGradient>
    <linearGradient
       inkscape:collect="always"
       xlink:href="#linearGradient1"
       id="linearGradient2"
       x1="7.1165647"
       y1="31.720859"
       x2="18.116565"
       y2="31.720859"
       gradientUnits="userSpaceOnUse" />
    <linearGradient
       inkscape:collect="always"
       xlink:href="#linearGradient5"
       id="linearGradient19"
       x1="18.5"
       y1="30.479174"
       x2="18.5"
       y2="26.479174"
       gradientUnits="userSpaceOnUse"
       gradientTransform="translate(8.5000001,16.050473)" />
    <linearGradient
       id="linearGradient2-8"
       inkscape:collect="always">
      <stop
         style="stop-color:#b7c6cd;stop-opacity:1;"
         offset="0"
         id="stop11" />
      <stop
         style="stop-color:#f0f2f5;stop-opacity:1;"
         offset="1"
         id="stop12" />
    </linearGradient>
    <linearGradient
       inkscape:collect="always"
       xlink:href="#linearGradient2-8"
       id="linearGradient17"
       x1="27"
       y1="38.479176"
       x2="27"
       y2="34.479176"
       gradientUnits="userSpaceOnUse"
       gradientTransform="translate(8.5000001,16.050473)" />
    <linearGradient
       inkscape:collect="always"
       xlink:href="#linearGradient5"
       id="linearGradient7"
       x1="39.692577"
       y1="32.324345"
       x2="39.211235"
       y2="10.028909"
       gradientUnits="userSpaceOnUse" />
    <linearGradient
       inkscape:collect="always"
       xlink:href="#linearGradient3"
       id="linearGradient8"
       x1="18.116566"
       y1="4.6441655"
       x2="66.003075"
       y2="36.466259"
       gradientUnits="userSpaceOnUse" />
  </defs>
  <g
     inkscape:label="Layer 1"
     inkscape:groupmode="layer"
     id="layer1">
    <g
       id="g1"
       transform="translate(-0.11656485,-0.7208589)">
      <path
         d="m 7.1165647,9.7208588 c 0,-3.314 2.686,-6 6.0000003,-6 h 5 V 59.720859 h -5 c -3.3140003,0 -6.0000003,-2.686 -6.0000003,-6 z"
         id="path390"
         style="fill:url(#linearGradient2)" />
      <path
         d="m 16.116565,3.7208588 h 33 c 3.314,0 6,2.686 6,6 V 53.720859 c 0,3.314 -2.686,6 -6,6 h -33 z"
         id="path391"
         style="fill:url(#linearGradient8)" />
    </g>
    <path
       d="m 35.009317,9.2726256 c -6.627057,0 -12,5.3724004 -12,12.0000004 0,6.6276 5.372943,12 12,12 6.627033,0 12.000001,-5.3724 12.000001,-12 0,-6.6276 -5.372968,-12.0000004 -12.000001,-12.0000004 z m 0.0592,1.6620004 c 5.709876,0 10.342404,4.62888 10.342404,10.338 0,5.710124 -4.633178,10.338 -10.342405,10.338 -3.08328,0 -5.849823,-1.3512 -7.74384,-3.491717 0.778977,-0.604426 2.08176,-0.456784 3.686244,-0.273883 0.769053,0.0864 1.645633,0.18624 2.550396,0.20736 2.527597,0.024 5.247226,-0.446859 6.925932,-1.180036 1.085286,-0.476008 1.779939,-0.789316 2.214246,-1.184836 0.15672,-0.12984 0.23904,-0.34307 0.322849,-0.565462 l 0.05804,-0.15096 c 0.06872,-0.17976 0.17256,-0.566924 0.21672,-0.777906 0.024,-0.09076 0.0312,-0.19152 -0.03578,-0.243338 l -0.234245,0.04254 c -0.736449,0.441708 -2.57662,1.282877 -4.300467,1.317142 -2.136238,0.04276 -6.441598,-2.150488 -6.890709,-2.38235 l -0.04257,-0.054 c -0.107632,-0.256907 -0.752006,-1.78656 -0.888379,-2.108356 3.098913,2.040764 5.668353,3.170334 7.637413,3.345862 2.189468,0.19512 3.897333,-1.0008 4.627717,-1.511542 0.1416,-0.09862 0.25139,-0.17448 0.296182,-0.1896 l 0.04917,-0.08072 c -0.122189,-0.769546 -1.269788,-4.493496 -2.13477,-5.387866 -0.239758,-0.24539 -0.430516,-0.483972 -0.817697,-0.711536 -3.131013,-1.824916 -10.56466,-2.923854 -10.912723,-2.974756 l -0.0584,0.024 -0.024,0.04918 c 0,0 -0.0296,1.54355 -0.03154,1.714866 -0.254922,-0.08378 -1.04609,-0.343462 -2.179002,-0.654088 1.47822,-1.828996 3.743674,-3.45192 7.708362,-3.45192 z m 2.731416,5.47187 c 0.05403,-8.52e-4 0.107342,-0.0015 0.157982,0 1.753817,0.06152 3.131823,1.540232 3.071845,3.292842 -0.03183,0.847506 -0.388675,1.631216 -1.007784,2.20992 -0.621142,0.581368 -1.427948,0.884662 -2.280643,0.857368 -1.750975,-0.06502 -3.128904,-1.542786 -3.071785,-3.2928 0.0312,-0.849316 0.38928,-1.637432 1.012104,-2.214632 0.581557,-0.545368 1.325826,-0.840874 2.117226,-0.852698 z m -0.084,0.936676 c -0.51078,0.03186 -0.992961,0.2388 -1.370161,0.592254 -0.429997,0.403746 -0.683819,0.9504 -0.702934,1.542786 -0.0392,1.223606 0.916975,2.253228 2.139398,2.29813 0.594004,0.024 1.157489,-0.18912 1.591169,-0.591948 0.432552,-0.405558 0.684511,-0.957338 0.702668,-1.547346 0.0404,-1.224938 -0.92064,-2.25107 -2.143697,-2.293876 -0.07597,-0.0044 -0.143294,-0.0066 -0.216481,0 z m 0.583419,1.10965 c 0.543146,0 0.9813,0.2952 0.98127,0.658604 0,0.361636 -0.438124,0.658254 -0.98127,0.658254 -0.54504,0 -0.985719,-0.297622 -0.985719,-0.658254 0,-0.363404 0.440679,-0.658604 0.985719,-0.658604 z"
       id="path2445"
       inkscape:connector-curvature="0"
       style="fill:url(#linearGradient7)" />
    <path
       d="m 19.5,44.529647 c 0,-1.105 0.895,-2 2,-2 h 11 c 1.105,0 2,0.895 2,2 0,1.105 -0.895,2 -2,2 h -11 c -1.105,0 -2,-0.895 -2,-2 z"
       id="path527"
       style="fill:url(#linearGradient19)" />
    <path
       d="m 19.5,52.529647 c 0,-1.105 0.895,-2 2,-2 h 28 c 1.105,0 2,0.895 2,2 0,1.105 -0.895,2 -2,2 h -28 c -1.105,0 -2,-0.895 -2,-2 z"
       id="path528"
       style="fill:url(#linearGradient17)" />
  </g>
</svg>
