<?xml version="1.0" encoding="UTF-8" standalone="no"?>
<svg
   width="62"
   height="62"
   version="1"
   id="svg5"
   sodipodi:docname="distributor-logo-deepin.svg"
   inkscape:version="1.4 (e7c3feb100, 2024-10-09)"
   xmlns:inkscape="http://www.inkscape.org/namespaces/inkscape"
   xmlns:sodipodi="http://sodipodi.sourceforge.net/DTD/sodipodi-0.dtd"
   xmlns="http://www.w3.org/2000/svg"
   xmlns:svg="http://www.w3.org/2000/svg">
  <defs
     id="defs5" />
  <sodipodi:namedview
     id="namedview5"
     pagecolor="#ffffff"
     bordercolor="#000000"
     borderopacity="0.25"
     inkscape:showpageshadow="2"
     inkscape:pageopacity="0.0"
     inkscape:pagecheckerboard="0"
     inkscape:deskcolor="#d1d1d1"
     inkscape:zoom="11.6875"
     inkscape:cx="31.957219"
     inkscape:cy="32"
     inkscape:window-width="1920"
     inkscape:window-height="994"
     inkscape:window-x="0"
     inkscape:window-y="0"
     inkscape:window-maximized="1"
     inkscape:current-layer="svg5" />
  <g
     id="g5"
     transform="translate(-0.5,-1)">
    <path
       style="opacity:0.2;stroke-width:0.982303"
       d="M 59,32.49123 A 27.5,27.50877 0 0 1 31.5,60 27.5,27.50877 0 0 1 4,32.49123 27.5,27.50877 0 0 1 31.5,4.982456 27.5,27.50877 0 0 1 59,32.49123 Z"
       id="path1" />
    <path
       style="fill:#00b7ff;stroke-width:0.982303;fill-opacity:1"
       d="M 59,31.50877 A 27.5,27.50877 0 0 1 31.5,59.01754 27.5,27.50877 0 0 1 4,31.50877 27.5,27.50877 0 0 1 31.5,4 27.5,27.50877 0 0 1 59,31.50877 Z"
       id="path2" />
    <path
       style="opacity:0.2;fill-rule:evenodd;stroke-width:0.982303"
       d="m 24.076757,52.791331 c -1.330297,-0.486562 -2.572949,-1.105488 -3.74342,-1.812106 5.816223,0.447002 13.406167,-0.894022 18.524572,-5.685618 0,0 9.757287,-7.79858 2.698424,-20.596788 0,0 1.137801,5.157798 -0.31281,9.400944 0,0 -1.383589,5.966111 -7.533234,7.642399 -9.057747,2.468858 -19.378781,-4.069771 -23.692821,-7.142089 -0.3248362,-3.158296 -0.036069,-6.421462 1.120625,-9.605538 1.715296,-4.717658 5.23435,-8.398605 9.173705,-10.870905 -0.984837,6.892535 -0.206252,13.238339 0.912649,15.896315 1.502183,3.56404 3.818246,7.917479 8.91087,8.450451 5.092624,0.53469 7.901027,-4.429093 7.901027,-4.429093 2.61249,-3.9715 3.021552,-9.674296 2.982021,-9.811832 -0.03959,-0.13926 -0.696095,-0.51578 -0.696095,-0.51578 -1.758265,7.117748 -4.657774,9.495488 -4.657774,9.495488 -4.571848,4.415074 -8.202949,1.255002 -8.202949,1.255002 -3.480448,-3.739396 -1.043265,-9.816994 -1.043265,-9.816994 1.362953,-4.139997 5.727956,-10.100626 10.229326,-13.181545 0.749381,0.185678 1.503903,0.300876 2.244669,0.5708 2.724205,0.99373 5.109822,2.491211 7.127614,4.330823 -3.291382,1.201767 -8.605713,3.742844 -8.605713,3.742844 -8.423548,3.548562 -8.992448,8.916106 -8.992448,8.916106 -0.87141,5.532588 3.516534,3.190954 3.516534,3.190954 4.516852,-2.200652 6.735736,-9.058806 6.735736,-9.058806 -1.409356,-0.268208 -2.519662,0.15989 -2.519662,0.15989 -1.802963,4.451172 -5.481056,6.282187 -5.481056,6.282187 -1.447185,0.766793 -1.784049,-0.587991 -1.784049,-0.587991 -0.244061,-1.014358 1.046704,-1.188004 1.046704,-1.188004 2.004049,-0.778824 3.286232,-2.884922 3.576695,-3.746276 0.288742,-0.863072 0.826709,-0.930122 0.826709,-0.930122 2.746544,-0.876832 5.250751,-1.26913 5.250751,-1.26913 3.409983,-0.419502 8.629788,1.206926 8.629788,1.206926 1.170459,0.471077 2.292791,0.823522 3.289663,1.105488 1.912954,4.781276 2.215451,10.422486 0.319678,15.642172 -4.087159,11.252588 -16.51364,17.056828 -27.752464,12.959824 z"
       id="path3" />
    <path
       style="fill:#ffffff;fill-rule:evenodd;stroke-width:0.982303"
       d="m 24.076757,51.808872 c -1.330297,-0.486552 -2.572949,-1.105488 -3.74342,-1.812106 5.816223,0.447012 13.406167,-0.894022 18.524572,-5.685608 0,0 9.757287,-7.79858 2.698424,-20.596788 0,0 1.137801,5.157788 -0.31281,9.400934 0,0 -1.383589,5.966121 -7.533234,7.642399 -9.057747,2.468868 -19.378781,-4.069761 -23.692821,-7.142089 -0.3248362,-3.158286 -0.036069,-6.421452 1.120625,-9.605528 1.715296,-4.717668 5.23435,-8.398615 9.173705,-10.870915 -0.984837,6.892535 -0.206252,13.238339 0.912649,15.896325 1.502183,3.56403 3.818246,7.917469 8.91087,8.450451 5.092624,0.53469 7.901027,-4.429093 7.901027,-4.429093 2.61249,-3.9715 3.021552,-9.674306 2.982021,-9.811842 -0.03959,-0.13925 -0.696095,-0.51578 -0.696095,-0.51578 -1.758265,7.117758 -4.657774,9.495498 -4.657774,9.495498 -4.571848,4.415074 -8.202949,1.255002 -8.202949,1.255002 -3.480448,-3.739406 -1.043265,-9.817004 -1.043265,-9.817004 1.362953,-4.139987 5.727956,-10.100616 10.229326,-13.181545 0.749381,0.185686 1.503903,0.300876 2.244669,0.5708 2.724205,0.99374 5.109822,2.491221 7.127614,4.330833 -3.291382,1.201767 -8.605713,3.742834 -8.605713,3.742834 -8.423548,3.548562 -8.992448,8.916106 -8.992448,8.916106 -0.87141,5.532598 3.516534,3.190954 3.516534,3.190954 4.516852,-2.200652 6.735736,-9.058796 6.735736,-9.058796 -1.409356,-0.268208 -2.519662,0.15988 -2.519662,0.15988 -1.802963,4.451182 -5.481056,6.282196 -5.481056,6.282196 -1.447185,0.766794 -1.784049,-0.58799 -1.784049,-0.58799 -0.244061,-1.014368 1.046704,-1.188014 1.046704,-1.188014 2.004049,-0.778824 3.286232,-2.884922 3.576695,-3.746276 0.288742,-0.863072 0.826709,-0.930122 0.826709,-0.930122 2.746544,-0.876822 5.250751,-1.26913 5.250751,-1.26913 3.409983,-0.419502 8.629788,1.206926 8.629788,1.206926 1.170459,0.47108 2.292791,0.823532 3.289663,1.105488 1.912954,4.781276 2.215451,10.422486 0.319678,15.642182 -4.087159,11.252588 -16.51364,17.056818 -27.752464,12.959814 z"
       id="path4" />
    <path
       style="opacity:0.2;fill:#ffffff;stroke-width:0.982303"
       d="M 31.5,4 A 27.5,27.50877 0 0 0 4,31.50877 27.5,27.50877 0 0 0 4.0172646,31.992328 27.5,27.50877 0 0 1 31.5,4.982456 27.5,27.50877 0 0 1 58.975067,31.992328 27.5,27.50877 0 0 0 59,31.50877 27.5,27.50877 0 0 0 31.5,4 Z"
       id="path5" />
  </g>
</svg>
