<?xml version="1.0" encoding="UTF-8" standalone="no"?>
<svg
   clip-rule="evenodd"
   fill-rule="evenodd"
   stroke-linejoin="round"
   stroke-miterlimit="2"
   viewBox="0 0 62 62"
   version="1.1"
   id="svg10"
   sodipodi:docname="pattern-basis.svg"
   width="62"
   height="62"
   inkscape:version="1.4 (e7c3feb100, 2024-10-09)"
   xmlns:inkscape="http://www.inkscape.org/namespaces/inkscape"
   xmlns:sodipodi="http://sodipodi.sourceforge.net/DTD/sodipodi-0.dtd"
   xmlns:xlink="http://www.w3.org/1999/xlink"
   xmlns="http://www.w3.org/2000/svg"
   xmlns:svg="http://www.w3.org/2000/svg">
  <defs
     id="defs10">
    <linearGradient
       id="linearGradient10"
       inkscape:collect="always">
      <stop
         style="stop-color:#6c7884;stop-opacity:1;"
         offset="0"
         id="stop10" />
      <stop
         style="stop-color:#515862;stop-opacity:1;"
         offset="1"
         id="stop11" />
    </linearGradient>
    <linearGradient
       inkscape:collect="always"
       xlink:href="#linearGradient10"
       id="linearGradient11"
       x1="31"
       y1="59"
       x2="31"
       y2="3"
       gradientUnits="userSpaceOnUse" />
  </defs>
  <sodipodi:namedview
     id="namedview10"
     pagecolor="#ffffff"
     bordercolor="#000000"
     borderopacity="0.25"
     inkscape:showpageshadow="2"
     inkscape:pageopacity="0.0"
     inkscape:pagecheckerboard="0"
     inkscape:deskcolor="#d1d1d1"
     inkscape:zoom="7.8541667"
     inkscape:cx="7.9575596"
     inkscape:cy="42.397878"
     inkscape:window-width="1920"
     inkscape:window-height="994"
     inkscape:window-x="0"
     inkscape:window-y="0"
     inkscape:window-maximized="1"
     inkscape:current-layer="svg10" />
  <linearGradient
     id="a"
     x2="1"
     gradientTransform="matrix(0,-46.799983,46.799983,0,632.48571,54.413883)"
     gradientUnits="userSpaceOnUse">
    <stop
       stop-color="#566069"
       offset="0"
       id="stop1" />
    <stop
       stop-color="#6c7884"
       offset="1"
       id="stop2" />
  </linearGradient>
  <path
     d="M 50.952003,3 C 55.394683,3 59,6.6053166 59,11.047997 V 50.952003 C 59,55.394683 55.394683,59 50.952003,59 H 11.047997 C 6.6053166,59 3,55.394683 3,50.952003 V 11.047997 C 3,6.6053166 6.6053166,3 11.047997,3 Z"
     id="path2"
     style="fill:url(#linearGradient11);fill-opacity:0.5" />
  <path
     d="M 3,12.376408 V 11.047997 C 3,6.6053166 6.6053166,3 11.047997,3 H 50.952003 C 55.394683,3 59,6.6053166 59,11.047997 v 1.328411 z"
     fill-opacity="0.1"
     id="path3"
     style="stroke-width:1.29223;fill:#e5e5e5;fill-opacity:0.1" />
  <path
     d="m 13.286797,12.376408 c -1.353365,0 -2.443296,1.086014 -2.443296,2.434512 v 7.301546 c 0,1.348498 1.089931,2.434508 2.443296,2.434508 h 14.453016 c 1.353366,0 2.443297,-1.08601 2.443297,-2.434508 V 14.81092 c 0,-1.348498 -1.089931,-2.434512 -2.443297,-2.434512 z m 21.375356,0 c -1.353365,0 -2.443295,1.086014 -2.443295,2.434512 v 7.301546 c 0,1.348498 1.08993,2.434508 2.443295,2.434508 h 14.452994 c 1.353362,0 2.443294,-1.08601 2.443294,-2.434508 V 14.81092 c 0,-1.348498 -1.089932,-2.434512 -2.443294,-2.434512 z M 22.447664,26.575403 c -1.353365,0 -2.443296,1.086009 -2.443296,2.434508 v 7.301543 c 0,1.348498 1.089931,2.434507 2.443296,2.434507 h 14.452993 c 1.353366,0 2.443306,-1.086009 2.443306,-2.434507 v -7.301543 c 0,-1.348499 -1.08994,-2.434508 -2.443306,-2.434508 z m 21.375335,0 c -1.353362,0 -2.443295,1.086009 -2.443295,2.434508 v 7.301543 c 0,1.348498 1.089933,2.434507 2.443295,2.434507 h 7.735442 V 26.575403 Z M 13.286797,40.774392 c -1.353365,0 -2.443296,1.08601 -2.443296,2.434508 v 7.301545 c 0,1.348494 1.089931,2.434507 2.443296,2.434507 h 14.453016 c 1.353366,0 2.443297,-1.086013 2.443297,-2.434507 V 43.2089 c 0,-1.348498 -1.089931,-2.434508 -2.443297,-2.434508 z m 21.375356,0 c -1.353365,0 -2.443295,1.08601 -2.443295,2.434508 v 7.301545 c 0,1.348494 1.08993,2.434507 2.443295,2.434507 h 14.452994 c 1.353362,0 2.443294,-1.086013 2.443294,-2.434507 V 43.2089 c 0,-1.348498 -1.089932,-2.434508 -2.443294,-2.434508 z"
     id="path2-6"
     style="fill:#c83771;fill-opacity:1;stroke-width:0.999999" />
  <path
     d="m 28.147362,12.418007 v 8.072113 c 0,1.123747 -0.907944,2.028428 -2.035749,2.028428 H 10.88525 c 0.194083,1.152608 1.188042,2.028426 2.401547,2.028426 h 14.453016 c 1.353366,0 2.443297,-1.08601 2.443297,-2.434508 V 14.81092 c 0,-1.209141 -0.878981,-2.19953 -2.035748,-2.392913 z m 21.375331,0 v 8.072113 c 0,1.123747 -0.907937,2.028428 -2.035741,2.028428 H 32.260607 c 0.194082,1.152608 1.188043,2.028426 2.401546,2.028426 h 14.452994 c 1.353362,0 2.443294,-1.08601 2.443294,-2.434508 V 14.81092 c 0,-1.209141 -0.878974,-2.19953 -2.035748,-2.392913 z M 37.308208,26.617002 v 8.072112 c 0,1.123748 -0.907934,2.028424 -2.035733,2.028424 H 20.046118 c 0.194079,1.152612 1.188042,2.028423 2.401546,2.028423 h 14.452993 c 1.353366,0 2.443306,-1.086009 2.443306,-2.434507 v -7.301543 c 0,-1.209142 -0.878982,-2.19953 -2.035755,-2.392909 z m 4.113245,10.100536 c 0.194078,1.152612 1.188045,2.028423 2.401546,2.028423 h 7.735442 V 36.717538 Z M 28.147362,40.81599 v 8.072108 c 0,1.123748 -0.907944,2.028431 -2.035749,2.028431 H 10.88525 c 0.194083,1.152608 1.188042,2.028423 2.401547,2.028423 h 14.453016 c 1.353366,0 2.443297,-1.086013 2.443297,-2.434507 V 43.2089 c 0,-1.209139 -0.878981,-2.199527 -2.035748,-2.39291 z m 21.375331,0 v 8.072108 c 0,1.123748 -0.907937,2.028431 -2.035741,2.028431 H 32.260607 c 0.194082,1.152608 1.188043,2.028423 2.401546,2.028423 h 14.452994 c 1.353362,0 2.443294,-1.086013 2.443294,-2.434507 V 43.2089 c 0,-1.209139 -0.878974,-2.199527 -2.035748,-2.39291 z"
     fill="#101010"
     opacity="0.23"
     id="path3-7"
     style="opacity:0.439825;fill:#a5a5a5;fill-opacity:1;stroke-width:0.999999" />
</svg>
