<?xml version="1.0" encoding="UTF-8" standalone="no"?>
<svg
   width="62"
   height="62"
   version="1"
   id="svg11"
   sodipodi:docname="pulseeffects.svg"
   inkscape:version="1.4 (e7c3feb100, 2024-10-09)"
   xmlns:inkscape="http://www.inkscape.org/namespaces/inkscape"
   xmlns:sodipodi="http://sodipodi.sourceforge.net/DTD/sodipodi-0.dtd"
   xmlns:xlink="http://www.w3.org/1999/xlink"
   xmlns="http://www.w3.org/2000/svg"
   xmlns:svg="http://www.w3.org/2000/svg">
  <defs
     id="defs11">
    <linearGradient
       id="linearGradient11"
       inkscape:collect="always">
      <stop
         style="stop-color:#0074cc;stop-opacity:1;"
         offset="0"
         id="stop11" />
      <stop
         style="stop-color:#9955ff;stop-opacity:1"
         offset="1"
         id="stop12" />
    </linearGradient>
    <linearGradient
       inkscape:collect="always"
       xlink:href="#linearGradient11"
       id="linearGradient12"
       x1="47.587959"
       y1="52.834305"
       x2="17.707512"
       y2="7.6775479"
       gradientUnits="userSpaceOnUse" />
  </defs>
  <sodipodi:namedview
     id="namedview11"
     pagecolor="#ffffff"
     bordercolor="#000000"
     borderopacity="0.25"
     inkscape:showpageshadow="2"
     inkscape:pageopacity="0.0"
     inkscape:pagecheckerboard="0"
     inkscape:deskcolor="#d1d1d1"
     inkscape:zoom="11.6875"
     inkscape:cx="31.957219"
     inkscape:cy="32"
     inkscape:window-width="1920"
     inkscape:window-height="994"
     inkscape:window-x="0"
     inkscape:window-y="0"
     inkscape:window-maximized="1"
     inkscape:current-layer="svg11" />
  <g
     id="g11"
     transform="translate(-0.499996)">
    <ellipse
       style="opacity:0.2;stroke-width:0.965213"
       cx="31.500002"
       cy="31.482761"
       id="circle1"
       rx="27.499998"
       ry="27.517239" />
    <ellipse
       style="fill:url(#linearGradient12);stroke-width:0.965213"
       cx="31.500002"
       cy="30.517239"
       id="circle2"
       rx="27.499998"
       ry="27.517239" />
    <path
       style="opacity:0.2;stroke-width:0.965213"
       d="m 17.991227,28.465512 c -1.336404,0 -2.412286,1.184206 -2.412286,2.655171 v 14.60345 c 0,1.470962 1.075882,2.655171 2.412286,2.655171 1.336403,0 2.412281,-1.184209 2.412281,-2.655171 v -14.60345 c 0,-1.470965 -1.075878,-2.655171 -2.412281,-2.655171 z m 27.017536,3.271819 c -1.336404,0 -2.412286,1.184212 -2.412286,2.655174 v 11.331628 c 0,1.470962 1.075882,2.655171 2.412286,2.655171 1.336403,0 2.412284,-1.184209 2.412284,-2.655171 V 34.392505 c 0,-1.470962 -1.075881,-2.655174 -2.412284,-2.655174 z m -13.508767,7.348868 c -1.336406,0 -2.412284,1.184209 -2.412284,2.655173 v 3.982761 c 0,1.470962 1.075878,2.655171 2.412284,2.655171 1.336401,0 2.412279,-1.184209 2.412279,-2.655171 v -3.982761 c 0,-1.470964 -1.075878,-2.655173 -2.412279,-2.655173 z"
       id="path2" />
    <path
       style="opacity:0.3389392;stroke-width:0.965213"
       d="m 17.991227,15.551721 c -1.336404,0 -2.412286,1.184208 -2.412286,2.655175 v 26.551717 c 0,1.470961 1.075882,2.655174 2.412286,2.655174 1.336403,0 2.412281,-1.184213 2.412281,-2.655174 V 18.206896 c 0,-1.470967 -1.075878,-2.655175 -2.412281,-2.655175 z m 13.508769,0 c -1.336406,0 -2.412284,1.184208 -2.412284,2.655175 v 26.551717 c 0,1.470961 1.075878,2.655174 2.412284,2.655174 1.336401,0 2.412279,-1.184213 2.412279,-2.655174 V 18.206896 c 0,-1.470967 -1.075878,-2.655175 -2.412279,-2.655175 z m 13.508767,0 c -1.336404,0 -2.412286,1.184208 -2.412286,2.655175 v 26.551717 c 0,1.470961 1.075882,2.655174 2.412286,2.655174 1.336403,0 2.412284,-1.184213 2.412284,-2.655174 V 18.206896 c 0,-1.470967 -1.075881,-2.655175 -2.412284,-2.655175 z"
       id="path3" />
    <path
       style="fill:#a970ff;stroke-width:0.965213;fill-opacity:1"
       d="m 17.991227,27.499995 c -1.336404,0 -2.412286,1.184204 -2.412286,2.655174 v 14.603444 c 0,1.470961 1.075882,2.655174 2.412286,2.655174 1.336403,0 2.412281,-1.184213 2.412281,-2.655174 V 30.155169 c 0,-1.47097 -1.075878,-2.655174 -2.412281,-2.655174 z m 27.017536,3.271819 c -1.336404,0 -2.412286,1.184209 -2.412286,2.655171 v 11.331628 c 0,1.470961 1.075882,2.655174 2.412286,2.655174 1.336403,0 2.412284,-1.184213 2.412284,-2.655174 V 33.426985 c 0,-1.470962 -1.075881,-2.655171 -2.412284,-2.655171 z m -13.508767,7.348869 c -1.336406,0 -2.412284,1.184209 -2.412284,2.65517 v 3.98276 c 0,1.470961 1.075878,2.655174 2.412284,2.655174 1.336401,0 2.412279,-1.184213 2.412279,-2.655174 v -3.98276 c 0,-1.470961 -1.075878,-2.65517 -2.412279,-2.65517 z"
       id="path4" />
    <path
       style="opacity:0.2;stroke-width:0.965213"
       d="m 23.298239,26.65517 a 5.3070163,5.3103436 0 0 1 -5.307012,5.310344 5.3070163,5.3103436 0 0 1 -5.307019,-5.310344 5.3070163,5.3103436 0 0 1 5.307019,-5.310348 5.3070163,5.3103436 0 0 1 5.307012,5.310348 z"
       id="path5" />
    <path
       style="fill:#ffffff;stroke-width:0.965213"
       d="m 23.298239,25.689655 a 5.3070163,5.3103436 0 0 1 -5.307012,5.310339 5.3070163,5.3103436 0 0 1 -5.307019,-5.310339 5.3070163,5.3103436 0 0 1 5.307019,-5.310347 5.3070163,5.3103436 0 0 1 5.307012,5.310347 z"
       id="path6" />
    <path
       style="opacity:0.2;stroke-width:0.965213"
       d="m 36.807011,37.275853 a 5.3070163,5.3103436 0 0 1 -5.307015,5.310347 5.3070163,5.3103436 0 0 1 -5.307016,-5.310347 5.3070163,5.3103436 0 0 1 5.307016,-5.310339 5.3070163,5.3103436 0 0 1 5.307015,5.310339 z"
       id="path7" />
    <path
       style="fill:#ffffff;stroke-width:0.965213"
       d="m 36.807011,36.310338 a 5.3070163,5.3103436 0 0 1 -5.307015,5.310338 5.3070163,5.3103436 0 0 1 -5.307016,-5.310338 5.3070163,5.3103436 0 0 1 5.307016,-5.310344 5.3070163,5.3103436 0 0 1 5.307015,5.310344 z"
       id="path8" />
    <path
       style="opacity:0.2;stroke-width:0.965213"
       d="m 50.315778,29.551718 a 5.3070163,5.3103436 0 0 1 -5.307015,5.310344 5.3070163,5.3103436 0 0 1 -5.307014,-5.310344 5.3070163,5.3103436 0 0 1 5.307014,-5.310343 5.3070163,5.3103436 0 0 1 5.307015,5.310343 z"
       id="path9" />
    <path
       style="fill:#ffffff;stroke-width:0.965213"
       d="m 50.315778,28.586199 a 5.3070163,5.3103436 0 0 1 -5.307015,5.31035 5.3070163,5.3103436 0 0 1 -5.307014,-5.31035 5.3070163,5.3103436 0 0 1 5.307014,-5.310342 5.3070163,5.3103436 0 0 1 5.307015,5.310342 z"
       id="path10" />
    <path
       style="opacity:0.2;fill:#ffffff;stroke-width:0.965213"
       d="M 31.499996,3 A 27.499996,27.517237 0 0 0 4,30.517237 27.499996,27.517237 0 0 0 4.0056539,30.999994 27.499996,27.517237 0 0 1 31.499996,3.9655173 27.499996,27.517237 0 0 1 58.994334,30.999994 27.499996,27.517237 0 0 0 58.999988,30.517237 27.499996,27.517237 0 0 0 31.499996,3 Z"
       id="path11" />
  </g>
</svg>
