<?xml version="1.0" encoding="UTF-8" standalone="no"?>
<svg
   width="62"
   height="62"
   version="1"
   id="svg7"
   sodipodi:docname="help.svg"
   inkscape:version="1.4 (e7c3feb100, 2024-10-09)"
   xmlns:inkscape="http://www.inkscape.org/namespaces/inkscape"
   xmlns:sodipodi="http://sodipodi.sourceforge.net/DTD/sodipodi-0.dtd"
   xmlns:xlink="http://www.w3.org/1999/xlink"
   xmlns="http://www.w3.org/2000/svg"
   xmlns:svg="http://www.w3.org/2000/svg">
  <defs
     id="defs7">
    <linearGradient
       id="linearGradient20"
       inkscape:collect="always">
      <stop
         style="stop-color:#ffff00;stop-opacity:1"
         offset="0"
         id="stop20" />
      <stop
         style="stop-color:#ff7e07;stop-opacity:1;"
         offset="1"
         id="stop21" />
    </linearGradient>
    <linearGradient
       id="linearGradient14"
       inkscape:collect="always">
      <stop
         style="stop-color:#f0f3f4;stop-opacity:1;"
         offset="0"
         id="stop14" />
      <stop
         style="stop-color:#b7c6cd;stop-opacity:1;"
         offset="1"
         id="stop15" />
    </linearGradient>
    <linearGradient
       id="linearGradient12"
       inkscape:collect="always">
      <stop
         style="stop-color:#29343d;stop-opacity:1;"
         offset="0"
         id="stop12" />
      <stop
         style="stop-color:#566c80;stop-opacity:1;"
         offset="1"
         id="stop13" />
    </linearGradient>
    <linearGradient
       id="linearGradient8"
       inkscape:collect="always">
      <stop
         style="stop-color:#28323c;stop-opacity:1;"
         offset="0"
         id="stop8" />
      <stop
         style="stop-color:#566c80;stop-opacity:1;"
         offset="1"
         id="stop9" />
    </linearGradient>
    <linearGradient
       id="linearGradient3"
       inkscape:collect="always">
      <stop
         style="stop-color:#f15700;stop-opacity:1;"
         offset="0"
         id="stop5" />
      <stop
         style="stop-color:#ff0000;stop-opacity:1"
         offset="1"
         id="stop6" />
    </linearGradient>
    <linearGradient
       id="c-3"
       gradientUnits="userSpaceOnUse"
       x1="24.072048"
       x2="23.959682"
       y1="0.75082099"
       y2="46.056854">
      <stop
         offset="0"
         stop-color="#fff"
         id="stop3" />
      <stop
         offset="1"
         stop-color="#d9d9d9"
         id="stop4" />
    </linearGradient>
    <linearGradient
       id="b-6"
       gradientUnits="userSpaceOnUse"
       x1="29.203026"
       x2="34.121048"
       xlink:href="#a-7"
       y1="24.827356"
       y2="29.224836" />
    <linearGradient
       id="a-7">
      <stop
         offset="0"
         id="stop1" />
      <stop
         offset="1"
         stop-opacity="0"
         id="stop2" />
    </linearGradient>
    <linearGradient
       id="d"
       gradientUnits="userSpaceOnUse"
       x1="15.948756"
       x2="25.031786"
       xlink:href="#a-7"
       y1="23.618279"
       y2="33.69899" />
    <linearGradient
       id="e"
       gradientUnits="userSpaceOnUse"
       x1="21.990562"
       x2="29.320522"
       xlink:href="#a-7"
       y1="33.780373"
       y2="41.931858" />
    <linearGradient
       id="paint154_linear_890_11"
       x1="778"
       y1="812.29199"
       x2="788"
       y2="812.29199"
       gradientUnits="userSpaceOnUse"
       gradientTransform="translate(-751,-696)">
      <stop
         stop-color="#EFF2F6"
         id="stop1050" />
      <stop
         offset="0.600785"
         stop-color="#B7C6CD"
         id="stop1051" />
    </linearGradient>
    <linearGradient
       id="paint155_linear_890_11"
       x1="783"
       y1="813"
       x2="783"
       y2="817"
       gradientUnits="userSpaceOnUse"
       gradientTransform="translate(-751,-696)">
      <stop
         stop-color="#EFF2F6"
         id="stop1052" />
      <stop
         offset="0.734138"
         stop-color="#B7C6CD"
         id="stop1053" />
    </linearGradient>
    <radialGradient
       id="paint156_radial_890_11"
       cx="0"
       cy="0"
       r="1"
       gradientUnits="userSpaceOnUse"
       gradientTransform="matrix(27.999986,27.999976,-27.999986,27.999976,32.302392,33.999998)">
      <stop
         offset="0.60067803"
         stop-color="#B7C6CD"
         id="stop1054"
         style="stop-color:#384850;stop-opacity:1;" />
      <stop
         offset="0.876735"
         stop-color="#EFF2F6"
         id="stop1055" />
    </radialGradient>
    <linearGradient
       id="paint157_linear_890_11"
       x1="796.84485"
       y1="799.43359"
       x2="768.90088"
       y2="770.81476"
       gradientUnits="userSpaceOnUse"
       gradientTransform="matrix(1.1666666,0,0,1.1666668,-881.19764,-881.8333)">
      <stop
         offset="0.00000057"
         stop-color="#2E2E41"
         id="stop1056"
         style="stop-color:#495361;stop-opacity:1;" />
      <stop
         offset="0.711139"
         stop-color="#566C80"
         id="stop1057" />
    </linearGradient>
    <linearGradient
       id="paint158_linear_890_11"
       x1="792"
       y1="794"
       x2="774"
       y2="776"
       gradientUnits="userSpaceOnUse"
       gradientTransform="translate(-751,-696)">
      <stop
         offset="0.304478"
         stop-color="#2E2E41"
         id="stop1058" />
      <stop
         offset="1"
         stop-color="#566C80"
         id="stop1059" />
    </linearGradient>
    <linearGradient
       id="paint159_linear_890_11"
       x1="788"
       y1="790"
       x2="778"
       y2="780"
       gradientUnits="userSpaceOnUse"
       gradientTransform="translate(-751,-696)">
      <stop
         offset="0.391394"
         stop-color="#5200FF"
         id="stop1060" />
      <stop
         offset="1"
         stop-color="#0085FF"
         id="stop1061" />
    </linearGradient>
    <linearGradient
       id="paint160_linear_890_11"
       x1="784"
       y1="798"
       x2="782"
       y2="796"
       gradientUnits="userSpaceOnUse"
       gradientTransform="translate(-751,-696)">
      <stop
         stop-color="#FF7E07"
         id="stop1062" />
      <stop
         offset="1"
         stop-color="#FFE607"
         id="stop1063" />
    </linearGradient>
    <linearGradient
       id="paint208_linear_890_11"
       x1="64"
       y1="764"
       x2="79.609802"
       y2="783.51202"
       gradientUnits="userSpaceOnUse">
      <stop
         stop-color="#EFF2F6"
         id="stop1158"
         offset="0"
         style="stop-color:#eff2f6;stop-opacity:1;" />
      <stop
         offset="1"
         stop-color="#B7C6CD"
         id="stop1159" />
    </linearGradient>
    <linearGradient
       id="paint209_linear_890_11"
       x1="82"
       y1="764"
       x2="97.609802"
       y2="783.51202"
       gradientUnits="userSpaceOnUse">
      <stop
         stop-color="#EFF2F6"
         id="stop1160" />
      <stop
         offset="1"
         stop-color="#B7C6CD"
         id="stop1161"
         style="stop-color:#000000;stop-opacity:1" />
    </linearGradient>
    <linearGradient
       id="paint210_linear_890_11"
       x1="55"
       y1="773"
       x2="97.750801"
       y2="827.40997"
       gradientUnits="userSpaceOnUse">
      <stop
         offset="0.210356"
         stop-color="#F15700"
         id="stop1162" />
      <stop
         offset="0.785574"
         stop-color="#FF0000"
         id="stop1163" />
    </linearGradient>
    <linearGradient
       id="paint211_linear_890_11"
       x1="87"
       y1="769"
       x2="79"
       y2="761"
       gradientUnits="userSpaceOnUse">
      <stop
         offset="0.326202"
         stop-color="#2E2E41"
         id="stop1164" />
      <stop
         offset="1"
         stop-color="#566C80"
         id="stop1165" />
    </linearGradient>
    <linearGradient
       id="paint212_linear_890_11"
       x1="59"
       y1="777"
       x2="83.3731"
       y2="818.78198"
       gradientUnits="userSpaceOnUse">
      <stop
         stop-color="white"
         id="stop1166" />
      <stop
         offset="0.705"
         stop-color="#EAEFEF"
         id="stop1167" />
    </linearGradient>
    <linearGradient
       id="paint213_linear_890_11"
       x1="90.826103"
       y1="797"
       x2="90.826103"
       y2="793"
       gradientUnits="userSpaceOnUse"
       gradientTransform="translate(12.8)">
      <stop
         offset="0.340681"
         stop-color="#2E2E41"
         id="stop1168" />
      <stop
         offset="1"
         stop-color="#566C80"
         id="stop1169" />
    </linearGradient>
    <linearGradient
       id="paint214_linear_890_11"
       x1="86.826103"
       y1="789"
       x2="86.826103"
       y2="785"
       gradientUnits="userSpaceOnUse"
       gradientTransform="translate(9.3)">
      <stop
         offset="0.340681"
         stop-color="#2E2E41"
         id="stop1170" />
      <stop
         offset="1"
         stop-color="#566C80"
         id="stop1171" />
    </linearGradient>
    <linearGradient
       id="paint215_linear_890_11"
       x1="83"
       y1="809"
       x2="83"
       y2="813"
       gradientUnits="userSpaceOnUse">
      <stop
         stop-color="white"
         id="stop1172" />
      <stop
         offset="0.705"
         stop-color="#E6E6E6"
         id="stop1173" />
    </linearGradient>
    <linearGradient
       id="paint217_linear_890_11"
       x1="85"
       y1="767"
       x2="81"
       y2="763"
       gradientUnits="userSpaceOnUse">
      <stop
         offset="0.314843"
         stop-color="#FF7E07"
         id="stop1176" />
      <stop
         offset="1"
         stop-color="#FFE607"
         id="stop1177" />
    </linearGradient>
    <linearGradient
       inkscape:collect="always"
       xlink:href="#paint215_linear_890_11"
       id="linearGradient1"
       gradientUnits="userSpaceOnUse"
       x1="83"
       y1="809"
       x2="83"
       y2="813" />
    <linearGradient
       inkscape:collect="always"
       xlink:href="#paint215_linear_890_11"
       id="linearGradient2"
       gradientUnits="userSpaceOnUse"
       x1="83"
       y1="809"
       x2="83"
       y2="813" />
    <linearGradient
       inkscape:collect="always"
       xlink:href="#linearGradient3"
       id="linearGradient6"
       x1="57.861004"
       y1="773.88556"
       x2="88.072487"
       y2="827.89081"
       gradientUnits="userSpaceOnUse" />
    <linearGradient
       inkscape:collect="always"
       xlink:href="#linearGradient8"
       id="linearGradient9"
       x1="95.800003"
       y1="797"
       x2="95.800003"
       y2="793"
       gradientUnits="userSpaceOnUse" />
    <linearGradient
       inkscape:collect="always"
       xlink:href="#linearGradient8"
       id="linearGradient11"
       x1="92.300003"
       y1="789"
       x2="92.300003"
       y2="785"
       gradientUnits="userSpaceOnUse" />
    <linearGradient
       inkscape:collect="always"
       xlink:href="#linearGradient12"
       id="linearGradient13"
       x1="9"
       y1="33"
       x2="25.250017"
       y2="33"
       gradientUnits="userSpaceOnUse" />
    <linearGradient
       inkscape:collect="always"
       xlink:href="#linearGradient14"
       id="linearGradient15"
       x1="83"
       y1="763"
       x2="93.597084"
       y2="779.99982"
       gradientUnits="userSpaceOnUse" />
    <linearGradient
       inkscape:collect="always"
       xlink:href="#linearGradient14"
       id="linearGradient17"
       x1="79"
       y1="765"
       x2="67.490349"
       y2="780.22736"
       gradientUnits="userSpaceOnUse" />
    <linearGradient
       inkscape:collect="always"
       xlink:href="#linearGradient12"
       id="linearGradient19"
       x1="79"
       y1="765"
       x2="87"
       y2="765"
       gradientUnits="userSpaceOnUse" />
    <linearGradient
       inkscape:collect="always"
       xlink:href="#linearGradient20"
       id="linearGradient21"
       x1="81"
       y1="765"
       x2="85"
       y2="765"
       gradientUnits="userSpaceOnUse" />
  </defs>
  <sodipodi:namedview
     id="namedview7"
     pagecolor="#ffffff"
     bordercolor="#000000"
     borderopacity="0.25"
     inkscape:showpageshadow="2"
     inkscape:pageopacity="0.0"
     inkscape:pagecheckerboard="0"
     inkscape:deskcolor="#d1d1d1"
     inkscape:zoom="8.3306018"
     inkscape:cx="35.171529"
     inkscape:cy="30.850112"
     inkscape:window-width="1920"
     inkscape:window-height="998"
     inkscape:window-x="0"
     inkscape:window-y="0"
     inkscape:window-maximized="1"
     inkscape:current-layer="svg7" />
  <g
     id="g2272"
     transform="translate(-52,-758)">
    <path
       fill-rule="evenodd"
       clip-rule="evenodd"
       d="m 83.7894,764.386 c -0.3391,-0.436 -0.9673,-0.514 -1.4033,-0.175 l -18,14 c -0.4359,0.339 -0.5145,0.967 -0.1754,1.403 0.3391,0.436 0.9673,0.514 1.4033,0.175 l 18,-14 c 0.4359,-0.339 0.5145,-0.967 0.1754,-1.403 z"
       id="path206"
       style="fill:url(#linearGradient17)" />
    <path
       fill-rule="evenodd"
       clip-rule="evenodd"
       d="m 82.2107,764.386 c 0.3391,-0.436 0.9673,-0.514 1.4033,-0.175 l 18,14 c 0.436,0.339 0.514,0.967 0.175,1.403 -0.339,0.436 -0.967,0.514 -1.403,0.175 l -17.9999,-14 c -0.4359,-0.339 -0.5145,-0.967 -0.1754,-1.403 z"
       id="path207"
       style="fill:url(#linearGradient15)" />
    <path
       d="m 55,779 c 0,-3.314 2.6863,-6 6,-6 h 44 c 3.314,0 6,2.686 6,6 v 32 c 0,3.314 -2.686,6 -6,6 H 61 c -3.3137,0 -6,-2.686 -6,-6 z"
       id="path208"
       style="fill:url(#linearGradient6)" />
    <circle
       cx="83"
       cy="765"
       r="4"
       id="circle208"
       style="fill:url(#linearGradient19)" />
    <path
       d="m 59,779 c 0,-1.105 0.9768,-2 2.1818,-2 h 43.6362 c 1.205,0 2.182,0.895 2.182,2 v 24 c 0,1.105 -0.977,2 -2.182,2 H 61.1818 C 59.9768,805 59,804.105 59,803 Z"
       fill="url(#paint212_linear_890_11)"
       id="path209"
       style="fill:url(#paint212_linear_890_11)" />
    <path
       d="m 87.8,795 c 0,-1.105 0.8954,-2 2,-2 h 12 c 1.1046,0 2,0.895 2,2 0,1.105 -0.8954,2 -2,2 h -12 c -1.1046,0 -2,-0.895 -2,-2 z"
       id="path210"
       style="fill:url(#linearGradient9)" />
    <path
       d="m 80.3,787 c 0,-1.105 0.8954,-2 2,-2 h 20 c 1.1046,0 2,0.895 2,2 0,1.105 -0.8954,2 -2,2 h -20 c -1.1046,0 -2,-0.895 -2,-2 z"
       id="path211"
       style="fill:url(#linearGradient11)" />
    <path
       d="m 85,809 c 1.1046,0 2,0.895 2,2 0,1.105 -0.8954,2 -2,2 H 75 c -1.1046,0 -2,-0.895 -2,-2 0,-1.105 0.8954,-2 2,-2 z"
       id="path212"
       style="fill:url(#linearGradient1)" />
    <path
       d="m 91,809 c 1.1046,0 2,0.895 2,2 0,1.105 -0.8954,2 -2,2 -1.1046,0 -2,-0.895 -2,-2 0,-1.105 0.8954,-2 2,-2 z"
       id="path213"
       style="fill:url(#linearGradient2)" />
    <circle
       cx="83"
       cy="765"
       r="2"
       id="circle213"
       style="fill:url(#linearGradient21)" />
  </g>
  <path
     d="m 18.049797,38.158507 c -0.06555,-2.357272 0.471714,-4.638754 2.738614,-6.265852 2.38265,-1.83949 4.684455,-4.12958 4.444324,-6.831402 -0.05105,-2.610751 -3.136175,-4.656071 -6.464423,-4.950736 -3.740986,-0.509103 -8.268196,0.747489 -9.5261572,3.629112 -0.637786,1.395323 -0.04133,3.908582 2.0943792,3.908582 1.240485,0 1.821377,-0.797285 1.91088,-1.518782 0.07446,-0.550344 -0.157243,-1.042176 -0.290407,-1.494974 -0.157246,-0.517838 0.495676,-1.518824 1.216371,-1.930457 0.60504,-0.335845 1.225235,-0.459345 1.31697,-0.476649 2.151067,-0.509189 4.295702,0.615296 5.188842,1.986767 0.902007,1.362823 -0.09163,3.440595 -1.498124,5.459914 -1.42397,2.019262 -2.937353,4.31158 -2.937353,6.749036 0,0.927291 -0.08302,1.239283 -0.02458,1.609774 0.05106,0.303345 1.059183,0.270845 1.830037,0.123465 z m -0.976183,3.178444 c -2.061623,-0.106302 -3.483285,2.188299 -2.251536,3.652941 1.109375,1.609779 4.203981,1.21547 4.734624,-0.615339 0.545934,-1.421283 -0.777526,-3.063602 -2.483088,-3.037602 z"
     id="path1159-3-6-3-3"
     style="fill:url(#linearGradient13)" />
</svg>
