<?xml version="1.0" encoding="UTF-8" standalone="no"?>
<!-- Created with Inkscape (http://www.inkscape.org/) -->

<svg
   width="62"
   height="62"
   viewBox="0 0 62 62"
   version="1.1"
   id="svg1"
   inkscape:version="1.4 (e7c3feb100, 2024-10-09)"
   sodipodi:docname="yast-software.svg"
   xmlns:inkscape="http://www.inkscape.org/namespaces/inkscape"
   xmlns:sodipodi="http://sodipodi.sourceforge.net/DTD/sodipodi-0.dtd"
   xmlns:xlink="http://www.w3.org/1999/xlink"
   xmlns="http://www.w3.org/2000/svg"
   xmlns:svg="http://www.w3.org/2000/svg">
  <sodipodi:namedview
     id="namedview1"
     pagecolor="#ffffff"
     bordercolor="#000000"
     borderopacity="0.25"
     inkscape:showpageshadow="2"
     inkscape:pageopacity="0.0"
     inkscape:pagecheckerboard="0"
     inkscape:deskcolor="#d1d1d1"
     inkscape:document-units="mm"
     inkscape:zoom="10.74725"
     inkscape:cx="29.868106"
     inkscape:cy="31.822094"
     inkscape:window-width="1920"
     inkscape:window-height="996"
     inkscape:window-x="0"
     inkscape:window-y="0"
     inkscape:window-maximized="1"
     inkscape:current-layer="layer1" />
  <defs
     id="defs1">
    <linearGradient
       id="linearGradient11"
       inkscape:collect="always">
      <stop
         style="stop-color:#b7c6cd;stop-opacity:1;"
         offset="0"
         id="stop16" />
      <stop
         style="stop-color:#f0f3f4;stop-opacity:1;"
         offset="1"
         id="stop17" />
    </linearGradient>
    <linearGradient
       id="linearGradient2"
       inkscape:collect="always">
      <stop
         style="stop-color:#b7c6cd;stop-opacity:1;"
         offset="0"
         id="stop7" />
      <stop
         style="stop-color:#e7ebee;stop-opacity:1;"
         offset="1"
         id="stop8" />
    </linearGradient>
    <linearGradient
       id="linearGradient14"
       inkscape:collect="always">
      <stop
         style="stop-color:#9955ff;stop-opacity:1;"
         offset="0"
         id="stop14" />
      <stop
         style="stop-color:#008080;stop-opacity:1"
         offset="1"
         id="stop15" />
    </linearGradient>
    <linearGradient
       id="linearGradient10"
       inkscape:collect="always">
      <stop
         style="stop-color:#7f2aff;stop-opacity:1;"
         offset="0"
         id="stop10" />
      <stop
         style="stop-color:#008080;stop-opacity:1"
         offset="1"
         id="stop13" />
    </linearGradient>
    <linearGradient
       id="linearGradient3"
       inkscape:collect="always">
      <stop
         style="stop-color:#b380ff;stop-opacity:1;"
         offset="0"
         id="stop3" />
      <stop
         style="stop-color:#008080;stop-opacity:1"
         offset="1"
         id="stop6" />
    </linearGradient>
    <linearGradient
       id="linearGradient1"
       inkscape:collect="always">
      <stop
         style="stop-color:#c7d2d8;stop-opacity:1;"
         offset="0"
         id="stop1" />
      <stop
         style="stop-color:#dee5e8;stop-opacity:1;"
         offset="1"
         id="stop2" />
    </linearGradient>
    <radialGradient
       id="radialGradient5"
       cx="0"
       cy="0"
       r="1"
       gradientUnits="userSpaceOnUse"
       gradientTransform="matrix(0,20,-16,0,583,181.33103)">
      <stop
         offset="0.67985004"
         stop-color="#EFF2F6"
         id="stop4" />
      <stop
         offset="1"
         stop-color="#B7C6CD"
         id="stop5" />
    </radialGradient>
    <radialGradient
       id="paint664_radial_890_11"
       cx="0"
       cy="0"
       r="1"
       gradientUnits="userSpaceOnUse"
       gradientTransform="matrix(-16.000099,-9.999913,9.999913,-16.000099,583,171)">
      <stop
         offset="0.42141"
         stop-color="#B7C6CD"
         id="stop2071" />
      <stop
         offset="1"
         stop-color="#EFF2F6"
         id="stop2072" />
    </radialGradient>
    <linearGradient
       id="paint665_linear_890_11"
       x1="603"
       y1="179"
       x2="601.466"
       y2="162.72301"
       gradientUnits="userSpaceOnUse"
       spreadMethod="pad">
      <stop
         stop-color="#5200FF"
         id="stop2073"
         style="stop-color:#008080;stop-opacity:1" />
      <stop
         offset="1"
         stop-color="#0085FF"
         id="stop2074"
         style="stop-color:#7f2aff;stop-opacity:1" />
    </linearGradient>
    <linearGradient
       id="paint666_linear_890_11"
       x1="567"
       y1="181"
       x2="562.11798"
       y2="174.183"
       gradientUnits="userSpaceOnUse">
      <stop
         stop-color="#5200FF"
         id="stop2075" />
      <stop
         offset="0.670391"
         stop-color="#0085FF"
         id="stop2076" />
    </linearGradient>
    <linearGradient
       id="paint667_linear_890_11"
       x1="605"
       y1="180"
       x2="597.32001"
       y2="174.24001"
       gradientUnits="userSpaceOnUse">
      <stop
         stop-color="#5200FF"
         id="stop2077" />
      <stop
         offset="1"
         stop-color="#0085FF"
         id="stop2078" />
    </linearGradient>
    <linearGradient
       id="paint668_linear_890_11"
       x1="567"
       y1="180"
       x2="561.23999"
       y2="172.32001"
       gradientUnits="userSpaceOnUse">
      <stop
         stop-color="#5200FF"
         id="stop2079"
         style="stop-color:#008080;stop-opacity:1" />
      <stop
         offset="1"
         stop-color="#0085FF"
         id="stop2080"
         style="stop-color:#9955ff;stop-opacity:1" />
    </linearGradient>
    <linearGradient
       id="paint669_linear_890_11"
       x1="607"
       y1="179"
       x2="602.50598"
       y2="171.80901"
       gradientUnits="userSpaceOnUse"
       xlink:href="#paint665_linear_890_11">
      <stop
         stop-color="#5200FF"
         id="stop2081" />
      <stop
         offset="1"
         stop-color="#0085FF"
         id="stop2082" />
    </linearGradient>
    <linearGradient
       id="paint670_linear_890_11"
       x1="607"
       y1="217"
       x2="568.82599"
       y2="170.01601"
       gradientUnits="userSpaceOnUse">
      <stop
         stop-color="#5200FF"
         id="stop2083"
         style="stop-color:#008080;stop-opacity:1" />
      <stop
         offset="1"
         stop-color="#0085FF"
         id="stop2084"
         style="stop-color:#b380ff;stop-opacity:1" />
    </linearGradient>
    <radialGradient
       id="paint671_radial_890_11"
       cx="0"
       cy="0"
       r="1"
       gradientUnits="userSpaceOnUse"
       gradientTransform="matrix(0,20,-16,0,583,181.33103)">
      <stop
         offset="0.869716"
         stop-color="#EFF2F6"
         id="stop2085" />
      <stop
         offset="1"
         stop-color="#B7C6CD"
         id="stop2086"
         style="stop-color:#b7c6cd;stop-opacity:1;" />
    </radialGradient>
    <linearGradient
       id="j"
       x2="1"
       gradientTransform="matrix(0,-15.847192,15.847192,0,484.51873,76.847194)"
       gradientUnits="userSpaceOnUse">
      <stop
         stop-color="#309e69"
         offset="0"
         id="stop11" />
      <stop
         stop-color="#30ba78"
         offset="1"
         id="stop12" />
    </linearGradient>
    <radialGradient
       inkscape:collect="always"
       xlink:href="#linearGradient1"
       id="radialGradient2"
       cx="583"
       cy="171"
       fx="583"
       fy="171"
       r="16"
       gradientTransform="matrix(0.52999895,0.8479983,-0.99999987,0.62499993,445.01059,-430.258)"
       gradientUnits="userSpaceOnUse" />
    <linearGradient
       inkscape:collect="always"
       xlink:href="#linearGradient3"
       id="linearGradient9"
       x1="606.51324"
       y1="213.3714"
       x2="572.1861"
       y2="171.79208"
       gradientUnits="userSpaceOnUse" />
    <linearGradient
       inkscape:collect="always"
       xlink:href="#linearGradient10"
       id="linearGradient13"
       x1="602.49896"
       y1="166.38139"
       x2="603.41821"
       y2="182.57158"
       gradientUnits="userSpaceOnUse" />
    <linearGradient
       inkscape:collect="always"
       xlink:href="#linearGradient14"
       id="linearGradient15"
       x1="562.95233"
       y1="174"
       x2="566.06952"
       y2="181"
       gradientUnits="userSpaceOnUse" />
    <linearGradient
       inkscape:collect="always"
       xlink:href="#linearGradient14"
       id="linearGradient17"
       x1="604.30371"
       y1="174"
       x2="600.95197"
       y2="180"
       gradientUnits="userSpaceOnUse" />
    <linearGradient
       inkscape:collect="always"
       xlink:href="#linearGradient2"
       id="linearGradient8"
       x1="30.621567"
       y1="57.826771"
       x2="30.874392"
       y2="46.48819"
       gradientUnits="userSpaceOnUse" />
    <linearGradient
       inkscape:collect="always"
       xlink:href="#linearGradient11"
       id="linearGradient18"
       x1="584.02759"
       y1="201.33102"
       x2="583.83331"
       y2="181.33102"
       gradientUnits="userSpaceOnUse" />
  </defs>
  <g
     inkscape:label="Layer 1"
     inkscape:groupmode="layer"
     id="layer1">
    <g
       id="g2272"
       transform="translate(-552,-158)">
      <path
         d="m 597,181 c 1.105,0 2,-0.895 2,-2 v -2 c 0,-8.837 -7.163,-16 -16,-16 -8.837,0 -16,7.163 -16,16 v 2 c 0,1.105 0.895,2 2,2 1.105,0 2,-0.895 2,-2 v -2 c 0,-6.627 5.373,-12 12,-12 6.627,0 12,5.373 12,12 v 2 c 0,1.105 0.895,2 2,2 z"
         style="fill:url(#radialGradient2)"
         id="path1" />
      <path
         d="m 561,172 c 0,-0.552 0.448,-1 1,-1 h 42 c 0.552,0 1,0.448 1,1 v 7 c 0,0.552 -0.448,1 -1,1 h -42 c -0.552,0 -1,-0.448 -1,-1 z"
         style="fill:url(#linearGradient13)"
         id="path2" />
      <path
         d="m 561,181 v -9 l 5.144,0.75 c 0.492,0.072 0.856,0.493 0.856,0.99 V 181 Z"
         style="fill:#00b8b8;fill-opacity:1"
         id="path3" />
      <path
         d="m 605,180 v -8 l -5.132,0.684 c -0.497,0.067 -0.868,0.49 -0.868,0.992 V 180 Z"
         style="fill:#00b9b9;fill-opacity:1"
         id="path4" />
      <path
         d="M 559.649,176.757 567,174 v 6 h -8 v -2.307 c 0,-0.417 0.259,-0.79 0.649,-0.936 z"
         style="fill:url(#linearGradient15)"
         id="path5" />
      <path
         d="M 606.351,176.757 599,174 v 5 h 8 v -1.307 c 0,-0.417 -0.259,-0.79 -0.649,-0.936 z"
         style="fill:url(#linearGradient17)"
         id="path6" />
      <path
         d="m 559,178 h 48 v 33 c 0,3.314 -2.686,6 -6,6 h -36 c -3.314,0 -6,-2.686 -6,-6 z"
         style="stroke:none;fill:url(#linearGradient9);fill-opacity:1;stroke-width:1.0015748;stroke-dasharray:none"
         id="path7" />
      <path
         d="m 597,181.33103 c 1.105,0 2,0.895 2,2 v 2 c 0,8.837 -7.163,16 -16,16 -8.837,0 -16,-7.163 -16,-16 v -2 c 0,-1.105 0.895,-2 2,-2 1.105,0 2,0.895 2,2 v 2 c 0,6.627 5.373,12 12,12 6.627,0 12,-5.373 12,-12 v -2 c 0,-1.105 0.895,-2 2,-2 z"
         id="path654"
         style="fill:url(#linearGradient18)" />
    </g>
    <path
       d="m 40.353178,49.938981 c -0.143026,-0.145168 -0.378695,-0.145168 -0.521397,0 -0.159282,0.158084 -0.143026,0.433545 0.05849,0.564512 0.120268,0.08066 0.282802,0.08066 0.406002,0 0.198288,-0.132268 0.217789,-0.405802 0.05852,-0.564512 M 39.878261,48.69513 c -0.984936,-0.22903 -1.870074,0.649668 -1.638632,1.626428 0.117023,0.49741 0.515545,0.892569 1.017438,1.009018 0.984938,0.229072 1.870402,-0.649345 1.638632,-1.626754 -0.117023,-0.497732 -0.516197,-0.892563 -1.017438,-1.008692 m -6.503588,5.50308 c -0.641997,-0.235473 -0.890019,-0.187121 -1.710795,-0.177364 -0.568855,0.0071 -0.589343,-0.01214 -1.238486,-0.01214 -0.201556,0 -0.273028,0.954175 0.451187,1.152235 0.318559,0.08706 0.660851,0.141918 0.899767,0.383873 0.107288,0.106468 0.165746,0.26775 -0.07801,0.26775 h -1.801469 c -0.31531,0 -0.612748,0.0071 -0.853608,-0.196781 -0.363756,-0.306442 -0.533757,-0.72483 -0.715795,-1.141271 -0.188565,-0.433222 -0.39267,-0.859669 -0.631917,-1.267726 -0.475884,-0.811275 -1.104884,-1.545458 -1.948735,-1.994166 -1.053519,-0.560959 -2.841684,-0.838692 -4.257422,0.238732 -1.492033,1.136761 -1.172493,3.266371 0.133288,4.30823 0.515216,0.411607 1.187116,0.583864 1.847644,0.545149 1.290814,-0.07417 2.242592,-1.018048 2.006271,-2.179964 -0.07803,-0.388701 -0.308802,-0.757091 -0.651743,-0.957732 -0.243777,-0.141915 -0.53505,-0.193534 -0.818503,-0.193534 -0.305561,-0.0014 -0.628996,0.06127 -0.848412,0.270937 -0.260035,0.248383 -0.302303,0.689354 -0.09429,0.982576 0.11373,0.161338 0.302301,0.299995 0.269812,0.511273 -0.02151,0.141913 -0.139742,0.248382 -0.282802,0.280642 -0.240546,0.05486 -0.463862,-0.0839 -0.627375,-0.251619 -0.419319,-0.428715 -0.550641,-1.110952 -0.318556,-1.663212 0.302311,-0.723208 1.140964,-1.12062 1.929236,-1.094817 1.016146,0.03547 1.973773,0.699023 2.390173,1.619005 0.416731,0.920635 0.292555,2.0503 -0.282804,2.883193 -1.275857,1.850285 -4.426314,1.631909 -5.890156,0.07099 -0.918303,-0.979015 -1.416944,-1.929002 -1.347057,-3.698008 0.04874,-1.249984 0.775923,-2.48158 1.702667,-3.347629 1.509581,-1.411919 3.497884,-2.377385 5.521154,-2.793509 1.228736,-0.251624 2.49712,-0.309674 3.744508,-0.187131 1.100011,0.10981 2.193195,0.309812 3.250287,0.633355 0.524968,0.161326 1.041167,0.355133 1.540462,0.582544 0.440455,0.20002 1.017438,0.419348 1.360375,0.765802 0,-0.627413 -0.02461,-1.317082 -0.02461,-1.797074 0,-0.183884 0.195043,-0.306449 0.36017,-0.229027 0.715429,0.329513 2.410295,1.123693 3.540174,1.636598 1.514783,0.686758 1.622055,2.307058 1.674713,3.743517 0.0015,0.03216 0.0023,0.06451 -0.01168,0.09357 -0.04879,0.09996 -0.302307,0.07099 -0.396573,0.07417 -0.182028,0.0015 -0.454435,5.76e-4 -0.63582,0.009 -0.361469,0.01513 -0.713508,0.009 -1.0753,-0.009 -0.66865,-0.03214 -1.315197,-0.328059 -1.747853,-0.687411 -0.04224,-0.03547 -0.18203,-0.07417 -0.247046,-0.0071 -0.06825,0.071 -0.0455,0.180636 -0.0078,0.216151 0.247041,0.248091 0.517492,0.409066 0.830527,0.569383 0.397874,0.203211 0.831506,0.254851 1.271316,0.280634 0.471009,0.02768 0.945274,0.02067 1.415313,-0.02708 0.392347,-0.0387 0.493769,-0.06776 0.107267,0.21934 -0.340015,0.251626 -0.73464,0.431291 -1.13479,0.564833 -0.574056,0.19354 -1.179971,0.290326 -1.785234,0.306446 -0.366994,0.0095 -0.733661,-0.0088 -1.097731,-0.05486 -0.188533,-0.02336 -0.375119,-0.05809 -0.564305,-0.07743 -0.152781,-0.01514 -0.312059,-0.04519 -0.464837,-0.01147 -0.13978,0.03004 -0.266548,0.103216 -0.354313,0.216152 -0.120269,0.154813 -0.162529,0.580628 -0.09104,0.765147 0.133292,0.357436 0.427149,0.565173 0.737256,0.74872 0.335786,0.196785 0.777871,0.264528 0.864011,0.64515 0.01774,0.08066 -0.696606,0.08066 -0.777546,0.08066 h -0.950514 c 0,0 -0.516521,0.01193 -0.717735,-0.06127 -0.0064,-0.0015 -0.01168,-0.0041 -0.01827,-0.0084 -0.110535,-0.0581 -0.156023,-0.203201 -0.195038,-0.312907 -0.05203,-0.154813 -0.146288,-0.309668 -0.260047,-0.470631 -0.214543,-0.303224 -0.544801,-0.637091 -0.88774,-0.763215 m 7.198293,-4.185811 c 0,0.553218 -0.451184,1.000628 -1.008338,1.000628 -0.55683,0 -1.008015,-0.447735 -1.008015,-1.000628 0,-0.552248 0.451185,-0.999986 1.008015,-0.999986 0.557154,0 1.008338,0.447738 1.008338,0.999986"
       fill-rule="nonzero"
       id="path20"
       style="fill:url(#linearGradient8)" />
  </g>
</svg>
