<?xml version="1.0" encoding="UTF-8" standalone="no"?>
<!-- Created with Inkscape (http://www.inkscape.org/) -->

<svg
   width="32"
   version="1.1"
   height="32"
   id="svg32"
   inkscape:version="1.4 (e7c3feb100, 2024-10-09)"
   sodipodi:docname="application-x-rpm.svg"
   xmlns:inkscape="http://www.inkscape.org/namespaces/inkscape"
   xmlns:sodipodi="http://sodipodi.sourceforge.net/DTD/sodipodi-0.dtd"
   xmlns:xlink="http://www.w3.org/1999/xlink"
   xmlns="http://www.w3.org/2000/svg"
   xmlns:svg="http://www.w3.org/2000/svg"
   xmlns:rdf="http://www.w3.org/1999/02/22-rdf-syntax-ns#"
   xmlns:cc="http://creativecommons.org/ns#"
   xmlns:dc="http://purl.org/dc/elements/1.1/">
  <sodipodi:namedview
     pagecolor="#ffffff"
     bordercolor="#666666"
     borderopacity="1"
     objecttolerance="10"
     gridtolerance="10"
     guidetolerance="10"
     inkscape:pageopacity="0"
     inkscape:pageshadow="2"
     inkscape:window-width="1920"
     inkscape:window-height="994"
     id="namedview60"
     showgrid="false"
     inkscape:zoom="7.890625"
     inkscape:cx="3.1683168"
     inkscape:cy="16.09505"
     inkscape:window-x="0"
     inkscape:window-y="0"
     inkscape:window-maximized="1"
     inkscape:current-layer="layer1"
     inkscape:showpageshadow="2"
     inkscape:pagecheckerboard="0"
     inkscape:deskcolor="#d1d1d1" />
  <defs
     id="defs5455">
    <linearGradient
       inkscape:collect="always"
       id="linearGradient6251">
      <stop
         style="stop-color:#ffffff;stop-opacity:0"
         offset="0"
         id="stop6253" />
      <stop
         style="stop-color:#ffffff;stop-opacity:0.2"
         offset="1"
         id="stop6255" />
    </linearGradient>
    <linearGradient
       inkscape:collect="always"
       xlink:href="#linearGradient6251"
       id="linearGradient5849-3"
       gradientUnits="userSpaceOnUse"
       gradientTransform="matrix(0.48,0,0,0.40601922,362.65137,385.60561)"
       y1="394.54437"
       x2="0"
       y2="335.43387" />
  </defs>
  <metadata
     id="metadata5458">
    <rdf:RDF>
      <cc:Work
         rdf:about="">
        <dc:format>image/svg+xml</dc:format>
        <dc:type
           rdf:resource="http://purl.org/dc/dcmitype/StillImage" />
      </cc:Work>
    </rdf:RDF>
  </metadata>
  <g
     inkscape:label="Capa 1"
     inkscape:groupmode="layer"
     id="layer1"
     transform="matrix(1 0 0 1 -384.57143 -515.798)">
    <rect
       width="0"
       x="375.89221"
       y="526.79797"
       height="10.999983"
       style="fill:#ffffff"
       id="rect4035" />
    <rect
       width="0"
       x="375.57144"
       y="525.79797"
       height="10.999983"
       style="fill:#ffffff"
       id="rect4035-4" />
    <rect
       width="0"
       x="374.03558"
       y="525.68414"
       height="11.1139"
       style="fill:#fbd2bf"
       id="rect4035-3" />
    <rect
       width="0"
       x="375.57144"
       y="525.79797"
       height="10.999983"
       style="fill:#fbd2bf"
       id="rect4035-1" />
    <rect
       width="0"
       x="375.57144"
       y="525.79797"
       height="10.999983"
       style="fill:#fbfbfb"
       id="rect4035-5" />
    <rect
       width="0"
       x="375.89221"
       y="526.79797"
       height="10.999983"
       style="fill:#ffffff"
       id="rect4035-53" />
    <rect
       width="0"
       x="375.57144"
       y="525.79797"
       height="10.999983"
       style="fill:#ffffff"
       id="rect4035-4-5" />
    <rect
       y="521.79797"
       x="388.57144"
       height="23.999989"
       width="23.999989"
       id="rect5837-5"
       mix-blend-mode="normal"
       isolation="auto"
       ry="2.5980198"
       style="color:#000000;isolation:auto;mix-blend-mode:normal;color-interpolation:sRGB;color-interpolation-filters:linearRGB;solid-color:#000000;solid-opacity:1;fill:#d81c17;fill-opacity:1;color-rendering:auto;image-rendering:auto;shape-rendering:auto" />
    <rect
       id="rect5847-5"
       width="24"
       height="24"
       x="388.57144"
       y="521.79797"
       mix-blend-mode="normal"
       isolation="auto"
       style="color:#000000;isolation:auto;mix-blend-mode:normal;color-interpolation:sRGB;color-interpolation-filters:linearRGB;solid-color:#000000;solid-opacity:1;fill:url(#linearGradient5849-3);color-rendering:auto;image-rendering:auto;shape-rendering:auto"
       ry="2.5504603" />
    <path
       style="color:#000000;opacity:0.5;isolation:auto;mix-blend-mode:normal;color-interpolation:sRGB;color-interpolation-filters:linearRGB;solid-color:#000000;solid-opacity:1;fill:#ffffff;color-rendering:auto;image-rendering:auto;shape-rendering:auto"
       d="m 391.16908,521.79806 c -1.43931,0 -2.59766,1.15835 -2.59766,2.59766 v 0.82421 c 0,-1.4393 1.15835,-2.59765 2.59766,-2.59765 h 18.80468 c 1.43931,0 2.59766,1.15835 2.59766,2.59765 v -0.82421 c 0,-1.43931 -1.15835,-2.59766 -2.59766,-2.59766 z"
       id="path850"
       inkscape:connector-curvature="0" />
    <path
       style="color:#000000;opacity:0.3;isolation:auto;mix-blend-mode:normal;color-interpolation:sRGB;color-interpolation-filters:linearRGB;solid-color:#000000;solid-opacity:1;fill:#000000;fill-opacity:1;color-rendering:auto;image-rendering:auto;shape-rendering:auto"
       d="m 388.57142,542.37243 v 0.82227 c 0,1.4393 1.15835,2.59961 2.59766,2.59961 h 18.80468 c 1.43931,0 2.59766,-1.16031 2.59766,-2.59961 v -0.82227 c 0,1.43931 -1.15835,2.59766 -2.59766,2.59766 h -18.80468 c -1.43931,0 -2.59766,-1.15835 -2.59766,-2.59766 z"
       id="rect5837-3"
       inkscape:connector-curvature="0" />
    <path
       inkscape:label="Capa 1"
       inkscape:connector-curvature="0"
       style="fill:#fcbcbe"
       id="path4139"
       d="m 396.67143,531.798 a 6,6.0000086 0 0 0 -6,6 6,6.0000086 0 0 0 6,6 6,6.0000086 0 0 0 6,-6 6,6.0000086 0 0 0 -6,-6 z m 0,1 a 5.0000014,5.0000086 0 0 1 5,5 5.0000014,5.0000086 0 0 1 -5,5 5.0000014,5.0000086 0 0 1 -5,-5 5.0000014,5.0000086 0 0 1 5,-5 z m 0,1 a 4,4 0 0 0 -2.55859,0.92773 l 0.64062,0.76954 a 3,3 0 0 1 1.91797,-0.69727 3,3 0 0 1 3,3 l 1,0 a 4,4 0 0 0 -4,-4 z m 1,2 -1.60156,3.20312 a 1,1 0 0 0 -0.39844,0.79688 1,1 0 0 0 1,1 1,1 0 0 0 1,-1 1,1 0 0 0 -0.25195,-0.66016 l 0.25195,-3.33984 z m -4.46875,0.0176 a 4,4 0 0 0 -0.53125,1.98242 l 1,0 a 3,3 0 0 1 0.39844,-1.48633 l -0.86719,-0.49609 z" />
    <rect
       style="opacity:0.2;stroke-width:0.343447"
       width="3.4650321"
       height="9.191453"
       x="405.9754"
       y="522.677"
       id="rect3" />
    <rect
       style="fill:#ffffff;stroke-width:0.343447"
       width="1.0395099"
       height="1.0212731"
       x="407.70786"
       y="522.677"
       id="rect4" />
    <rect
       style="fill:#ffffff;stroke-width:0.343447"
       width="1.0395099"
       height="1.0212731"
       x="406.6684"
       y="529.82593"
       id="rect5" />
    <path
       style="fill:#4b4b4b;stroke-width:0.343447"
       d="m 407.70787,529.82596 c 1.29942,0 1.29942,1.90631 1.73251,1.90631 v 2.38302 c 0,0.26402 -0.19315,0.47657 -0.43309,0.47657 h -2.59882 c -0.23995,0 -0.43308,-0.21255 -0.43308,-0.47657 v -2.38302 c 0.43308,0 0.43308,-1.90631 1.73248,-1.90631 z"
       id="path5" />
    <path
       style="opacity:0.2;stroke-width:0.343447"
       d="m 407.59284,532.2089 c -0.89581,0 -1.61745,0.71581 -1.61745,1.60371 v 3.26062 c 0,0.88787 0.72164,1.60376 1.61745,1.60376 h 0.23008 c 0.89581,0 1.61746,-0.71589 1.61746,-1.60376 v -3.26062 c 0,-0.8879 -0.72165,-1.60371 -1.61746,-1.60371 z m 0.11503,3.40427 c 0.76554,1e-5 1.38606,0.61028 1.38606,1.36231 0,0.75202 -0.62052,1.36103 -1.38606,1.36103 -0.76539,0 -1.38604,-0.60901 -1.38604,-1.36103 0,-0.75203 0.62065,-1.3623 1.38604,-1.36231 z"
       id="path6" />
    <path
       style="fill:#ffffff;stroke-width:0.343447"
       d="m 407.59284,531.86846 c -0.89581,0 -1.61745,0.71585 -1.61745,1.60375 v 3.26061 c 0,0.88791 0.72164,1.60369 1.61745,1.60369 h 0.23008 c 0.89581,0 1.61746,-0.71578 1.61746,-1.60369 v -3.26061 c 0,-0.8879 -0.72165,-1.60375 -1.61746,-1.60375 z m 0.11503,3.40425 c 0.76554,0 1.38606,0.61033 1.38606,1.36237 0,0.75202 -0.62052,1.36105 -1.38606,1.36105 -0.76539,0 -1.38604,-0.60903 -1.38604,-1.36105 0,-0.75204 0.62065,-1.36237 1.38604,-1.36237 z"
       id="path7" />
    <path
       style="fill:#909090;stroke-width:0.343447"
       d="m 407.70251,530.50679 a 0.34653782,0.3392692 0 0 0 -0.34108,0.34386 v 2.03542 a 0.34653782,0.3392692 0 1 0 0.69303,0 v -2.03542 a 0.34653782,0.3392692 0 0 0 -0.35195,-0.34386 z"
       id="path8" />
    <rect
       style="fill:#ffffff;stroke-width:0.343447"
       width="1.0395099"
       height="1.0212731"
       x="406.6684"
       y="523.698"
       id="rect8" />
    <rect
       style="fill:#ffffff;stroke-width:0.343447"
       width="1.0395099"
       height="1.0212731"
       x="407.70786"
       y="524.71973"
       id="rect9" />
    <rect
       style="fill:#ffffff;stroke-width:0.343447"
       width="1.0395099"
       height="1.0212731"
       x="406.6684"
       y="525.74066"
       id="rect10" />
    <rect
       style="fill:#ffffff;stroke-width:0.343447"
       width="1.0395099"
       height="1.0212731"
       x="407.70786"
       y="526.76233"
       id="rect11" />
    <rect
       style="fill:#ffffff;stroke-width:0.343447"
       width="1.0395099"
       height="1.0212731"
       x="406.6684"
       y="527.78326"
       id="rect12" />
    <rect
       style="fill:#ffffff;stroke-width:0.343447"
       width="1.0395099"
       height="1.0212731"
       x="407.70786"
       y="528.80469"
       id="rect13" />
  </g>
</svg>
