<?xml version="1.0" encoding="UTF-8" standalone="no"?>
<svg
   width="32"
   version="1.1"
   height="32"
   id="svg16"
   sodipodi:docname="application-x-lzma-compressed-tar.svg"
   inkscape:version="1.4 (e7c3feb100, 2024-10-09)"
   xmlns:inkscape="http://www.inkscape.org/namespaces/inkscape"
   xmlns:sodipodi="http://sodipodi.sourceforge.net/DTD/sodipodi-0.dtd"
   xmlns:xlink="http://www.w3.org/1999/xlink"
   xmlns="http://www.w3.org/2000/svg"
   xmlns:svg="http://www.w3.org/2000/svg"
   xmlns:rdf="http://www.w3.org/1999/02/22-rdf-syntax-ns#"
   xmlns:cc="http://creativecommons.org/ns#"
   xmlns:dc="http://purl.org/dc/elements/1.1/">
  <metadata
     id="metadata20">
    <rdf:RDF>
      <cc:Work
         rdf:about="">
        <dc:format>image/svg+xml</dc:format>
        <dc:type
           rdf:resource="http://purl.org/dc/dcmitype/StillImage" />
      </cc:Work>
    </rdf:RDF>
  </metadata>
  <sodipodi:namedview
     pagecolor="#ffffff"
     bordercolor="#666666"
     borderopacity="1"
     objecttolerance="10"
     gridtolerance="10"
     guidetolerance="10"
     inkscape:pageopacity="0"
     inkscape:pageshadow="2"
     inkscape:window-width="1920"
     inkscape:window-height="994"
     id="namedview18"
     showgrid="false"
     inkscape:zoom="15.40625"
     inkscape:cx="16.194726"
     inkscape:cy="13.630832"
     inkscape:window-x="0"
     inkscape:window-y="0"
     inkscape:window-maximized="1"
     inkscape:current-layer="layer1"
     inkscape:showpageshadow="2"
     inkscape:pagecheckerboard="0"
     inkscape:deskcolor="#d1d1d1" />
  <defs
     id="defs5455">
    <linearGradient
       id="linearGradient4300-3">
      <stop
         id="stop4302-0"
         stop-color="#f39c12" />
      <stop
         offset="1"
         id="stop4304-0"
         stop-color="#f9a11f" />
    </linearGradient>
    <linearGradient
       id="linearGradient6251"
       inkscape:collect="always">
      <stop
         id="stop6253"
         stop-color="#ffffff"
         stop-opacity="0" />
      <stop
         id="stop6255"
         offset="1"
         stop-color="#ffffff"
         stop-opacity="0.2" />
    </linearGradient>
    <linearGradient
       inkscape:collect="always"
       xlink:href="#linearGradient6251"
       id="linearGradient5849-3"
       gradientUnits="userSpaceOnUse"
       gradientTransform="matrix(0.48,0,0,0.40601922,362.65137,385.60561)"
       y1="394.54437"
       x2="0"
       y2="335.43387" />
  </defs>
  <g
     inkscape:label="Capa 1"
     inkscape:groupmode="layer"
     id="layer1"
     transform="matrix(1 0 0 1 -384.57143 -515.798)">
    <rect
       style="color:#000000;isolation:auto;mix-blend-mode:normal;color-interpolation:sRGB;color-interpolation-filters:linearRGB;solid-color:#000000;solid-opacity:1;fill:#f0a83c;fill-opacity:1;color-rendering:auto;image-rendering:auto;shape-rendering:auto"
       ry="2.5980198"
       isolation="auto"
       mix-blend-mode="normal"
       id="rect5837-5"
       width="23.999989"
       height="23.999989"
       x="388.57144"
       y="521.79797" />
    <rect
       ry="2.5504603"
       style="color:#000000;isolation:auto;mix-blend-mode:normal;color-interpolation:sRGB;color-interpolation-filters:linearRGB;solid-color:#000000;solid-opacity:1;fill:url(#linearGradient5849-3);color-rendering:auto;image-rendering:auto;shape-rendering:auto"
       isolation="auto"
       mix-blend-mode="normal"
       y="521.79797"
       x="388.57144"
       height="24"
       width="24"
       id="rect5847-5" />
    <path
       inkscape:connector-curvature="0"
       id="path850"
       d="m 391.16908,521.79806 c -1.43931,0 -2.59766,1.15835 -2.59766,2.59766 v 0.82421 c 0,-1.4393 1.15835,-2.59765 2.59766,-2.59765 h 18.80468 c 1.43931,0 2.59766,1.15835 2.59766,2.59765 v -0.82421 c 0,-1.43931 -1.15835,-2.59766 -2.59766,-2.59766 z"
       style="color:#000000;opacity:0.5;isolation:auto;mix-blend-mode:normal;color-interpolation:sRGB;color-interpolation-filters:linearRGB;solid-color:#000000;solid-opacity:1;fill:#ffffff;color-rendering:auto;image-rendering:auto;shape-rendering:auto" />
    <path
       inkscape:connector-curvature="0"
       id="rect5837-3"
       d="m 388.57142,542.37243 v 0.82227 c 0,1.4393 1.15835,2.59961 2.59766,2.59961 h 18.80468 c 1.43931,0 2.59766,-1.16031 2.59766,-2.59961 v -0.82227 c 0,1.43931 -1.15835,2.59766 -2.59766,2.59766 h -18.80468 c -1.43931,0 -2.59766,-1.15835 -2.59766,-2.59766 z"
       style="color:#000000;opacity:0.3;isolation:auto;mix-blend-mode:normal;color-interpolation:sRGB;color-interpolation-filters:linearRGB;solid-color:#000000;solid-opacity:1;fill:#000000;fill-opacity:1;color-rendering:auto;image-rendering:auto;shape-rendering:auto" />
    <rect
       style="opacity:0.2;stroke-width:0.343447"
       width="3.4650321"
       height="9.191453"
       x="398.83893"
       y="522.77161"
       id="rect3" />
    <rect
       style="fill:#ffffff;stroke-width:0.343447"
       width="1.0395099"
       height="1.0212731"
       x="400.57138"
       y="522.77161"
       id="rect4" />
    <rect
       style="fill:#ffffff;stroke-width:0.343447"
       width="1.0395099"
       height="1.0212731"
       x="399.53192"
       y="529.92053"
       id="rect5" />
    <path
       style="fill:#4b4b4b;stroke-width:0.343447"
       d="m 400.57139,529.92061 c 1.29942,0 1.29942,1.90631 1.73251,1.90631 v 2.38302 c 0,0.26402 -0.19315,0.47657 -0.43309,0.47657 h -2.59882 c -0.23995,0 -0.43308,-0.21255 -0.43308,-0.47657 v -2.38302 c 0.43308,0 0.43308,-1.90631 1.73248,-1.90631 z"
       id="path5" />
    <path
       style="opacity:0.2;stroke-width:0.343447"
       d="m 400.45636,532.30355 c -0.89581,0 -1.61745,0.71581 -1.61745,1.60371 v 3.26062 c 0,0.88787 0.72164,1.60376 1.61745,1.60376 h 0.23008 c 0.89581,0 1.61746,-0.71589 1.61746,-1.60376 v -3.26062 c 0,-0.8879 -0.72165,-1.60371 -1.61746,-1.60371 z m 0.11503,3.40427 c 0.76554,10e-6 1.38606,0.61028 1.38606,1.36231 0,0.75202 -0.62052,1.36103 -1.38606,1.36103 -0.76539,0 -1.38604,-0.60901 -1.38604,-1.36103 0,-0.75203 0.62065,-1.3623 1.38604,-1.36231 z"
       id="path6" />
    <path
       style="fill:#ffffff;stroke-width:0.343447"
       d="m 400.45636,531.96311 c -0.89581,0 -1.61745,0.71585 -1.61745,1.60375 v 3.26061 c 0,0.88791 0.72164,1.60369 1.61745,1.60369 h 0.23008 c 0.89581,0 1.61746,-0.71578 1.61746,-1.60369 v -3.26061 c 0,-0.8879 -0.72165,-1.60375 -1.61746,-1.60375 z m 0.11503,3.40425 c 0.76554,0 1.38606,0.61033 1.38606,1.36237 0,0.75202 -0.62052,1.36105 -1.38606,1.36105 -0.76539,0 -1.38604,-0.60903 -1.38604,-1.36105 0,-0.75204 0.62065,-1.36237 1.38604,-1.36237 z"
       id="path7" />
    <path
       style="fill:#909090;stroke-width:0.343447"
       d="m 400.56603,530.60144 a 0.34653782,0.3392692 0 0 0 -0.34108,0.34386 v 2.03542 a 0.34653782,0.3392692 0 1 0 0.69303,0 v -2.03542 a 0.34653782,0.3392692 0 0 0 -0.35195,-0.34386 z"
       id="path8" />
    <rect
       style="fill:#ffffff;stroke-width:0.343447"
       width="1.0395099"
       height="1.0212731"
       x="399.53192"
       y="523.7926"
       id="rect8" />
    <rect
       style="fill:#ffffff;stroke-width:0.343447"
       width="1.0395099"
       height="1.0212731"
       x="400.57138"
       y="524.81433"
       id="rect9" />
    <rect
       style="fill:#ffffff;stroke-width:0.343447"
       width="1.0395099"
       height="1.0212731"
       x="399.53192"
       y="525.83527"
       id="rect10" />
    <rect
       style="fill:#ffffff;stroke-width:0.343447"
       width="1.0395099"
       height="1.0212731"
       x="400.57138"
       y="526.85693"
       id="rect11" />
    <rect
       style="fill:#ffffff;stroke-width:0.343447"
       width="1.0395099"
       height="1.0212731"
       x="399.53192"
       y="527.87787"
       id="rect12" />
    <rect
       style="fill:#ffffff;stroke-width:0.343447"
       width="1.0395099"
       height="1.0212731"
       x="400.57138"
       y="528.89929"
       id="rect13" />
  </g>
</svg>
