<?xml version="1.0" encoding="UTF-8" standalone="no"?>
<svg
   width="32"
   version="1.1"
   height="32"
   id="svg13"
   sodipodi:docname="package-x-generic.svg"
   inkscape:version="1.4 (e7c3feb100, 2024-10-09)"
   xmlns:inkscape="http://www.inkscape.org/namespaces/inkscape"
   xmlns:sodipodi="http://sodipodi.sourceforge.net/DTD/sodipodi-0.dtd"
   xmlns="http://www.w3.org/2000/svg"
   xmlns:svg="http://www.w3.org/2000/svg"
   xmlns:rdf="http://www.w3.org/1999/02/22-rdf-syntax-ns#"
   xmlns:cc="http://creativecommons.org/ns#"
   xmlns:dc="http://purl.org/dc/elements/1.1/">
  <metadata
     id="metadata17">
    <rdf:RDF>
      <cc:Work
         rdf:about="">
        <dc:format>image/svg+xml</dc:format>
        <dc:type
           rdf:resource="http://purl.org/dc/dcmitype/StillImage" />
      </cc:Work>
    </rdf:RDF>
  </metadata>
  <sodipodi:namedview
     pagecolor="#ffffff"
     bordercolor="#666666"
     borderopacity="1"
     objecttolerance="10"
     gridtolerance="10"
     guidetolerance="10"
     inkscape:pageopacity="0"
     inkscape:pageshadow="2"
     inkscape:window-width="1920"
     inkscape:window-height="994"
     id="namedview15"
     showgrid="false"
     inkscape:zoom="22.318058"
     inkscape:cx="16.152839"
     inkscape:cy="18.908455"
     inkscape:window-x="0"
     inkscape:window-y="0"
     inkscape:window-maximized="1"
     inkscape:current-layer="layer1"
     inkscape:showpageshadow="2"
     inkscape:pagecheckerboard="0"
     inkscape:deskcolor="#d1d1d1" />
  <defs
     id="defs5455" />
  <g
     inkscape:label="Capa 1"
     inkscape:groupmode="layer"
     id="layer1"
     transform="matrix(1 0 0 1 -384.57143 -515.798)">
    <rect
       style="opacity:0.2;stroke-width:0.424797"
       width="24"
       height="23.578947"
       x="388.57144"
       y="522.21906"
       rx="2.4000001"
       ry="2.3578947"
       id="rect1" />
    <rect
       style="fill:#008080;fill-opacity:1;stroke-width:0.424797"
       width="24"
       height="23.578947"
       x="388.57144"
       y="521.79797"
       rx="2.4000001"
       ry="2.3578947"
       id="rect2" />
    <path
       style="opacity:0.2;fill:#ffffff;stroke-width:0.424797"
       d="m 390.97127,521.798 c -1.3296,0 -2.39984,1.05145 -2.39984,2.35773 v 0.42105 c 0,-1.30628 1.07024,-2.35773 2.39984,-2.35773 h 19.20033 c 1.3296,0 2.39983,1.05145 2.39983,2.35773 v -0.42105 c 0,-1.30628 -1.07023,-2.35773 -2.39983,-2.35773 z"
       id="path13" />
    <rect
       style="opacity:0.2;stroke-width:0.343447"
       width="3.4650321"
       height="9.191453"
       x="398.83899"
       y="522.23999"
       id="rect3" />
    <rect
       style="fill:#ffffff;stroke-width:0.343447"
       width="1.0395099"
       height="1.0212731"
       x="400.57144"
       y="522.23999"
       id="rect4" />
    <rect
       style="fill:#ffffff;stroke-width:0.343447"
       width="1.0395099"
       height="1.0212731"
       x="399.53198"
       y="529.38892"
       id="rect5" />
    <path
       style="fill:#4b4b4b;stroke-width:0.343447"
       d="m 400.57145,529.38907 c 1.29942,0 1.29942,1.90631 1.73251,1.90631 v 2.38302 c 0,0.26402 -0.19315,0.47657 -0.43309,0.47657 h -2.59882 c -0.23995,0 -0.43308,-0.21255 -0.43308,-0.47657 v -2.38302 c 0.43308,0 0.43308,-1.90631 1.73248,-1.90631 z"
       id="path5" />
    <path
       style="opacity:0.2;stroke-width:0.343447"
       d="m 400.45642,531.77201 c -0.89581,0 -1.61745,0.71581 -1.61745,1.60371 v 3.26062 c 0,0.88787 0.72164,1.60376 1.61745,1.60376 h 0.23008 c 0.89581,0 1.61746,-0.71589 1.61746,-1.60376 v -3.26062 c 0,-0.8879 -0.72165,-1.60371 -1.61746,-1.60371 z m 0.11503,3.40427 c 0.76554,10e-6 1.38606,0.61028 1.38606,1.36231 0,0.75202 -0.62052,1.36103 -1.38606,1.36103 -0.76539,0 -1.38604,-0.60901 -1.38604,-1.36103 0,-0.75203 0.62065,-1.3623 1.38604,-1.36231 z"
       id="path6" />
    <path
       style="fill:#ffffff;stroke-width:0.343447"
       d="m 400.45642,531.43157 c -0.89581,0 -1.61745,0.71585 -1.61745,1.60375 v 3.26061 c 0,0.88791 0.72164,1.60369 1.61745,1.60369 h 0.23008 c 0.89581,0 1.61746,-0.71578 1.61746,-1.60369 v -3.26061 c 0,-0.8879 -0.72165,-1.60375 -1.61746,-1.60375 z m 0.11503,3.40425 c 0.76554,0 1.38606,0.61033 1.38606,1.36237 0,0.75202 -0.62052,1.36105 -1.38606,1.36105 -0.76539,0 -1.38604,-0.60903 -1.38604,-1.36105 0,-0.75204 0.62065,-1.36237 1.38604,-1.36237 z"
       id="path7" />
    <path
       style="fill:#909090;stroke-width:0.343447"
       d="m 400.56609,530.0699 a 0.34653782,0.3392692 0 0 0 -0.34108,0.34386 v 2.03542 a 0.34653782,0.3392692 0 1 0 0.69303,0 v -2.03542 a 0.34653782,0.3392692 0 0 0 -0.35195,-0.34386 z"
       id="path8" />
    <rect
       style="fill:#ffffff;stroke-width:0.343447"
       width="1.0395099"
       height="1.0212731"
       x="399.53198"
       y="523.26099"
       id="rect8" />
    <rect
       style="fill:#ffffff;stroke-width:0.343447"
       width="1.0395099"
       height="1.0212731"
       x="400.57144"
       y="524.28271"
       id="rect9" />
    <rect
       style="fill:#ffffff;stroke-width:0.343447"
       width="1.0395099"
       height="1.0212731"
       x="399.53198"
       y="525.30365"
       id="rect10" />
    <rect
       style="fill:#ffffff;stroke-width:0.343447"
       width="1.0395099"
       height="1.0212731"
       x="400.57144"
       y="526.32532"
       id="rect11" />
    <rect
       style="fill:#ffffff;stroke-width:0.343447"
       width="1.0395099"
       height="1.0212731"
       x="399.53198"
       y="527.34625"
       id="rect12" />
    <rect
       style="fill:#ffffff;stroke-width:0.343447"
       width="1.0395099"
       height="1.0212731"
       x="400.57144"
       y="528.36768"
       id="rect13" />
  </g>
</svg>
