<?xml version="1.0" encoding="UTF-8" standalone="no"?>
<svg
   viewBox="0 0 22 22"
   version="1.1"
   id="svg1"
   sodipodi:docname="computer.svg"
   inkscape:version="1.4 (unknown)"
   xmlns:inkscape="http://www.inkscape.org/namespaces/inkscape"
   xmlns:sodipodi="http://sodipodi.sourceforge.net/DTD/sodipodi-0.dtd"
   xmlns:xlink="http://www.w3.org/1999/xlink"
   xmlns="http://www.w3.org/2000/svg"
   xmlns:svg="http://www.w3.org/2000/svg">
  <sodipodi:namedview
     id="namedview1"
     pagecolor="#ffffff"
     bordercolor="#000000"
     borderopacity="0.25"
     inkscape:showpageshadow="2"
     inkscape:pageopacity="0.0"
     inkscape:pagecheckerboard="0"
     inkscape:deskcolor="#d1d1d1"
     inkscape:zoom="8"
     inkscape:cx="35.1875"
     inkscape:cy="14.3125"
     inkscape:window-width="1920"
     inkscape:window-height="1000"
     inkscape:window-x="0"
     inkscape:window-y="0"
     inkscape:window-maximized="1"
     inkscape:current-layer="svg1" />
  <defs
     id="defs3051">
    <linearGradient
       id="linearGradient5"
       inkscape:collect="always">
      <stop
         style="stop-color:#d1d8e0;stop-opacity:1;"
         offset="0"
         id="stop4" />
      <stop
         style="stop-color:#c4ccd6;stop-opacity:1;"
         offset="1"
         id="stop5" />
    </linearGradient>
    <linearGradient
       id="linearGradient3"
       inkscape:collect="always">
      <stop
         style="stop-color:#cbd4dc;stop-opacity:1;"
         offset="0"
         id="stop2" />
      <stop
         style="stop-color:#c9d0da;stop-opacity:1;"
         offset="1"
         id="stop3" />
    </linearGradient>
    <style
       type="text/css"
       id="current-color-scheme">
      .ColorScheme-Text {
        color:#eff0f1;
      }
      </style>
    <linearGradient
       inkscape:collect="always"
       xlink:href="#linearGradient3"
       id="linearGradient8"
       x1="27.258694"
       y1="39.08588"
       x2="41.905926"
       y2="60.611446"
       gradientUnits="userSpaceOnUse"
       gradientTransform="matrix(0.35714286,0,0,0.35714286,0.285714,0.75322379)" />
    <linearGradient
       inkscape:collect="always"
       xlink:href="#linearGradient5"
       id="linearGradient6"
       x1="16.146835"
       y1="3.0858829"
       x2="59"
       y2="45.08588"
       gradientUnits="userSpaceOnUse"
       gradientTransform="matrix(0.35714286,0,0,0.35714286,0.285714,0.75322379)" />
    <linearGradient
       inkscape:collect="always"
       xlink:href="#linearGradient9"
       id="linearGradient10"
       x1="10.349694"
       y1="7.0858822"
       x2="49.294712"
       y2="39.08588"
       gradientUnits="userSpaceOnUse"
       gradientTransform="matrix(0.35714286,0,0,0.35714286,0.285714,0.75322379)" />
    <linearGradient
       id="linearGradient9"
       inkscape:collect="always">
      <stop
         style="stop-color:#2db990;stop-opacity:1;"
         offset="0"
         id="stop9" />
      <stop
         style="stop-color:#8762cc;stop-opacity:1;"
         offset="0.47664323"
         id="stop1" />
      <stop
         style="stop-color:#67a4fe;stop-opacity:1;"
         offset="1"
         id="stop10" />
    </linearGradient>
  </defs>
  <g
     id="g1"
     transform="translate(-0.357143,-0.8553249)">
    <path
       d="m 9.928572,16.498182 h 2.857142 v 3.928571 h 2.704072 c 0.676286,0 1.2245,0.548215 1.2245,1.224643 0,0.1125 -0.09136,0.203929 -0.204072,0.203929 H 6.204072 C 6.091357,21.855325 6,21.763896 6,21.651396 6,20.974968 6.548214,20.426753 7.2245,20.426753 h 2.704072 z"
       id="path517"
       style="fill:url(#linearGradient8);stroke-width:0.357143" />
    <path
       d="m 1.357143,3.2188958 c 0,-0.753214 0.617536,-1.363571 1.379321,-1.363571 h 17.241393 c 0.761786,0 1.379286,0.610357 1.379286,1.363571 V 15.491753 c 0,0.753215 -0.6175,1.363572 -1.379286,1.363572 H 2.736464 c -0.761785,0 -1.379321,-0.610357 -1.379321,-1.363572 z"
       id="path518"
       style="fill:url(#linearGradient6);stroke-width:0.357143" />
    <path
       d="m 2.785714,3.6199678 c 0,-0.185714 0.1535,-0.336072 0.342858,-0.336072 h 16.457142 c 0.189286,0 0.342858,0.150358 0.342858,0.336072 V 14.376396 c 0,0.185714 -0.153572,0.336072 -0.342858,0.336072 H 3.128572 c -0.189358,0 -0.342858,-0.150358 -0.342858,-0.336072 z"
       id="path519"
       style="fill:url(#linearGradient10);stroke-width:0.357143" />
    <path
       d="m 11.714286,15.783896 c 0,0.197143 -0.159893,0.357143 -0.357143,0.357143 -0.19725,0 -0.357143,-0.16 -0.357143,-0.357143 0,-0.197143 0.159893,-0.357143 0.357143,-0.357143 0.19725,0 0.357143,0.16 0.357143,0.357143 z"
       id="path520"
       style="fill:#00ff00;stroke-width:0.357143" />
  </g>
</svg>
