<?xml version="1.0" encoding="UTF-8" standalone="no"?>
<!-- Created with Inkscape (http://www.inkscape.org/) -->

<svg
   width="22"
   height="22"
   viewBox="0 0 22 22"
   version="1.1"
   id="svg1"
   inkscape:version="1.4 (e7c3feb100, 2024-10-09)"
   sodipodi:docname="preferences-system-linux.svg"
   xmlns:inkscape="http://www.inkscape.org/namespaces/inkscape"
   xmlns:sodipodi="http://sodipodi.sourceforge.net/DTD/sodipodi-0.dtd"
   xmlns="http://www.w3.org/2000/svg"
   xmlns:svg="http://www.w3.org/2000/svg">
  <sodipodi:namedview
     id="namedview1"
     pagecolor="#ffffff"
     bordercolor="#000000"
     borderopacity="0.25"
     inkscape:showpageshadow="2"
     inkscape:pageopacity="0.0"
     inkscape:pagecheckerboard="0"
     inkscape:deskcolor="#d1d1d1"
     inkscape:document-units="px"
     inkscape:zoom="30.397813"
     inkscape:cx="12.517348"
     inkscape:cy="14.047063"
     inkscape:window-width="1920"
     inkscape:window-height="994"
     inkscape:window-x="0"
     inkscape:window-y="0"
     inkscape:window-maximized="1"
     inkscape:current-layer="layer1"
     showgrid="false">
    <inkscape:grid
       id="grid1"
       units="px"
       originx="0"
       originy="0"
       spacingx="1"
       spacingy="1"
       empcolor="#0099e5"
       empopacity="0.30196078"
       color="#0099e5"
       opacity="0.14901961"
       empspacing="5"
       enabled="true"
       visible="false" />
  </sodipodi:namedview>
  <defs
     id="defs1">
    <radialGradient
       id="paint664_radial_890_11"
       cx="0"
       cy="0"
       r="1"
       gradientUnits="userSpaceOnUse"
       gradientTransform="matrix(-16.000099,-9.999913,9.999913,-16.000099,583,171)">
      <stop
         offset="0.42141"
         stop-color="#B7C6CD"
         id="stop2071" />
      <stop
         offset="1"
         stop-color="#EFF2F6"
         id="stop2072" />
    </radialGradient>
    <linearGradient
       id="paint665_linear_890_11"
       x1="605"
       y1="180"
       x2="601.466"
       y2="162.72301"
       gradientUnits="userSpaceOnUse">
      <stop
         stop-color="#5200FF"
         id="stop2073" />
      <stop
         offset="1"
         stop-color="#0085FF"
         id="stop2074" />
    </linearGradient>
    <linearGradient
       id="paint666_linear_890_11"
       x1="567"
       y1="181"
       x2="562.11798"
       y2="174.183"
       gradientUnits="userSpaceOnUse">
      <stop
         stop-color="#5200FF"
         id="stop2075" />
      <stop
         offset="0.670391"
         stop-color="#0085FF"
         id="stop2076" />
    </linearGradient>
    <linearGradient
       id="paint667_linear_890_11"
       x1="605"
       y1="180"
       x2="597.32001"
       y2="174.24001"
       gradientUnits="userSpaceOnUse">
      <stop
         stop-color="#5200FF"
         id="stop2077" />
      <stop
         offset="1"
         stop-color="#0085FF"
         id="stop2078" />
    </linearGradient>
    <linearGradient
       id="paint668_linear_890_11"
       x1="567"
       y1="180"
       x2="561.23999"
       y2="172.32001"
       gradientUnits="userSpaceOnUse">
      <stop
         stop-color="#5200FF"
         id="stop2079" />
      <stop
         offset="1"
         stop-color="#0085FF"
         id="stop2080" />
    </linearGradient>
    <linearGradient
       id="paint669_linear_890_11"
       x1="607"
       y1="179"
       x2="602.50598"
       y2="171.80901"
       gradientUnits="userSpaceOnUse">
      <stop
         stop-color="#5200FF"
         id="stop2081" />
      <stop
         offset="1"
         stop-color="#0085FF"
         id="stop2082" />
    </linearGradient>
    <linearGradient
       id="paint670_linear_890_11"
       x1="607"
       y1="217"
       x2="568.82599"
       y2="170.01601"
       gradientUnits="userSpaceOnUse">
      <stop
         stop-color="#5200FF"
         id="stop2083" />
      <stop
         offset="1"
         stop-color="#0085FF"
         id="stop2084" />
    </linearGradient>
    <radialGradient
       id="paint671_radial_890_11"
       cx="0"
       cy="0"
       r="1"
       gradientUnits="userSpaceOnUse"
       gradientTransform="matrix(0,20,-16,0,583,187)">
      <stop
         offset="0.869716"
         stop-color="#EFF2F6"
         id="stop2085" />
      <stop
         offset="1"
         stop-color="#B7C6CD"
         id="stop2086" />
    </radialGradient>
    <linearGradient
       id="paint497_linear_890_11"
       x1="497"
       y1="413"
       x2="447.457"
       y2="376.79599"
       gradientUnits="userSpaceOnUse"
       gradientTransform="translate(-452,-358)">
      <stop
         offset="0.636456"
         stop-color="#71706E"
         id="stop1737" />
      <stop
         offset="1"
         stop-color="#B9AA99"
         id="stop1738" />
    </linearGradient>
    <linearGradient
       id="paint498_linear_890_11"
       x1="507"
       y1="413"
       x2="457.457"
       y2="376.79599"
       gradientUnits="userSpaceOnUse"
       gradientTransform="translate(-452,-358)">
      <stop
         offset="0.544933"
         stop-color="#FF7E07"
         id="stop1739" />
      <stop
         offset="1"
         stop-color="#FFE607"
         id="stop1740" />
    </linearGradient>
    <linearGradient
       id="paint499_linear_890_11"
       x1="473"
       y1="365"
       x2="486.28699"
       y2="389.91299"
       gradientUnits="userSpaceOnUse"
       gradientTransform="translate(-452,-358)">
      <stop
         stop-color="white"
         id="stop1741" />
      <stop
         offset="0.705"
         stop-color="#EAEFEF"
         id="stop1742" />
    </linearGradient>
    <linearGradient
       id="paint500_linear_890_11"
       x1="480"
       y1="371.5"
       x2="480"
       y2="368.5"
       gradientUnits="userSpaceOnUse"
       gradientTransform="translate(-452,-358)">
      <stop
         offset="0.155999"
         stop-color="#71706E"
         id="stop1743" />
      <stop
         offset="0.796276"
         stop-color="#B9AA99"
         id="stop1744" />
    </linearGradient>
    <linearGradient
       id="paint501_linear_890_11"
       x1="479"
       y1="375.5"
       x2="479"
       y2="372.5"
       gradientUnits="userSpaceOnUse"
       gradientTransform="translate(-452,-358)">
      <stop
         offset="0.155999"
         stop-color="#71706E"
         id="stop1745" />
      <stop
         offset="0.796276"
         stop-color="#B9AA99"
         id="stop1746" />
    </linearGradient>
    <linearGradient
       id="paint502_linear_890_11"
       x1="511"
       y1="417"
       x2="455.64352"
       y2="380.82346"
       gradientUnits="userSpaceOnUse"
       gradientTransform="translate(-452,-358)">
      <stop
         offset="0.18397722"
         stop-color="#2E2E41"
         id="stop1747"
         style="stop-color:#33424d;stop-opacity:1;" />
      <stop
         offset="1"
         stop-color="#566C80"
         id="stop1748" />
    </linearGradient>
    <linearGradient
       id="paint745_linear_890_11"
       x1="172"
       y1="61"
       x2="195.978"
       y2="83.979202"
       gradientUnits="userSpaceOnUse">
      <stop
         stop-color="#EFF2F6"
         id="stop2233" />
      <stop
         offset="1"
         stop-color="#ACD1CF"
         id="stop2234" />
    </linearGradient>
    <linearGradient
       id="paint746_linear_890_11"
       x1="176"
       y1="84"
       x2="175.47501"
       y2="78.479202"
       gradientUnits="userSpaceOnUse">
      <stop
         offset="0.404925"
         stop-color="#2E2E41"
         id="stop2235" />
      <stop
         offset="1"
         stop-color="#566C80"
         id="stop2236" />
    </linearGradient>
    <linearGradient
       id="paint747_linear_890_11"
       x1="202"
       y1="84"
       x2="201.47501"
       y2="78.479202"
       gradientUnits="userSpaceOnUse">
      <stop
         offset="0.404925"
         stop-color="#2E2E41"
         id="stop2237" />
      <stop
         offset="1"
         stop-color="#566C80"
         id="stop2238" />
    </linearGradient>
    <linearGradient
       id="paint748_linear_890_11"
       x1="155"
       y1="82"
       x2="186.461"
       y2="132.33701"
       gradientUnits="userSpaceOnUse">
      <stop
         offset="0.205721"
         stop-color="#EFF2F6"
         id="stop2239" />
      <stop
         offset="1"
         stop-color="#B7C6CD"
         id="stop2240" />
    </linearGradient>
    <radialGradient
       id="paint750_radial_890_11"
       cx="0"
       cy="0"
       r="1"
       gradientUnits="userSpaceOnUse"
       gradientTransform="matrix(5.6470608,5.6470608,-5.6470608,5.6470608,172,96)">
      <stop
         offset="0.340843"
         stop-color="#2E2E41"
         id="stop2243" />
      <stop
         offset="1"
         stop-color="#566C80"
         id="stop2244" />
    </radialGradient>
    <linearGradient
       id="paint751_linear_890_11"
       x1="166"
       y1="90"
       x2="178"
       y2="102"
       gradientUnits="userSpaceOnUse">
      <stop
         stop-color="white"
         id="stop2245" />
      <stop
         offset="0.705"
         stop-color="#EAEFEF"
         id="stop2246" />
    </linearGradient>
    <linearGradient
       id="paint752_linear_890_11"
       x1="193"
       y1="88"
       x2="199"
       y2="94"
       gradientUnits="userSpaceOnUse">
      <stop
         stop-color="#FFE607"
         id="stop2247" />
      <stop
         offset="0.802569"
         stop-color="#FF7E07"
         id="stop2248" />
    </linearGradient>
    <linearGradient
       id="paint753_linear_890_11"
       x1="199"
       y1="104"
       x2="193"
       y2="98"
       gradientUnits="userSpaceOnUse">
      <stop
         offset="0.253846"
         stop-color="#089953"
         id="stop2249" />
      <stop
         offset="1"
         stop-color="#16D96F"
         id="stop2250" />
    </linearGradient>
    <linearGradient
       id="paint754_linear_890_11"
       x1="198"
       y1="93"
       x2="204"
       y2="99"
       gradientUnits="userSpaceOnUse">
      <stop
         offset="0.30755"
         stop-color="#F15700"
         id="stop2251" />
      <stop
         offset="0.832479"
         stop-color="#FF0000"
         id="stop2252" />
    </linearGradient>
    <linearGradient
       id="paint755_linear_890_11"
       x1="194"
       y1="99"
       x2="188"
       y2="93"
       gradientUnits="userSpaceOnUse">
      <stop
         offset="0.320751"
         stop-color="#5200FF"
         id="stop2253" />
      <stop
         offset="1"
         stop-color="#0085FF"
         id="stop2254" />
    </linearGradient>
    <linearGradient
       id="paint711_linear_890_11"
       x1="785.19843"
       y1="61.085037"
       x2="785.21344"
       y2="116.9138"
       gradientUnits="userSpaceOnUse"
       gradientTransform="matrix(0.35714286,0,0,0.35714286,-293.53986,16.980161)">
      <stop
         offset="0.0001"
         stop-color="#EFF2F6"
         id="stop2165"
         style="stop-color:#547097;stop-opacity:1;" />
      <stop
         offset="0.61014605"
         stop-color="#EFF2F6"
         id="stop1"
         style="stop-color:#9955ff;stop-opacity:1" />
      <stop
         offset="1"
         stop-color="#B7C6CD"
         id="stop2166"
         style="stop-color:#475b63;stop-opacity:1;" />
    </linearGradient>
    <radialGradient
       id="paint712_radial_890_11"
       cx="0"
       cy="0"
       r="1"
       gradientUnits="userSpaceOnUse"
       gradientTransform="matrix(22.216699,21.999996,-21.99894,22.215633,30.867,31)">
      <stop
         offset="0.420978"
         stop-color="#F15700"
         id="stop2167" />
      <stop
         offset="0.792773"
         stop-color="#FF0000"
         id="stop2168" />
    </radialGradient>
    <radialGradient
       id="paint713_radial_890_11"
       cx="0"
       cy="0"
       r="1"
       gradientUnits="userSpaceOnUse"
       gradientTransform="matrix(-16.688097,16.851418,-13.741875,-13.608691,50.791,10.8957)">
      <stop
         stop-color="#FFE607"
         id="stop2169" />
      <stop
         offset="0.903378"
         stop-color="#FF7E07"
         id="stop2170" />
    </radialGradient>
    <radialGradient
       id="paint714_radial_890_11"
       cx="0"
       cy="0"
       r="1"
       gradientUnits="userSpaceOnUse"
       gradientTransform="matrix(-22.961171,-7.4640815,7.4454397,-22.903825,31.961,30.8155)">
      <stop
         offset="0.440692"
         stop-color="#001AFF"
         id="stop2171" />
      <stop
         offset="1"
         stop-color="#0085FF"
         id="stop2172" />
    </radialGradient>
    <linearGradient
       id="a"
       x1="3.9389999"
       x2="7.4949999"
       y1="19.903999"
       y2="29.028"
       gradientUnits="userSpaceOnUse"
       gradientTransform="matrix(1.5769232,0,0,1.5769232,6.5427079,5.7692283)">
      <stop
         stop-color="#F25565"
         id="stop12-3" />
      <stop
         offset=".5"
         stop-color="#DA4453"
         id="stop13-6" />
      <stop
         offset="1"
         stop-color="#832932"
         id="stop14-7" />
    </linearGradient>
    <linearGradient
       id="b"
       x1="12"
       x2="19.5"
       y1="6.5"
       y2="20"
       gradientUnits="userSpaceOnUse"
       gradientTransform="matrix(1.5769232,0,0,1.5769232,6.5427079,5.7692283)">
      <stop
         stop-color="#C5CACD"
         id="stop15" />
      <stop
         offset="0.53799999"
         stop-color="#ACB6BC"
         id="stop16"
         style="stop-color:#c9d0d3;stop-opacity:1;" />
      <stop
         offset="0.87300003"
         stop-color="#9BA3A8"
         id="stop17-5"
         style="stop-color:#cdd2d4;stop-opacity:1;" />
      <stop
         offset="1"
         stop-color="#A0AAB0"
         id="stop18-3"
         style="stop-color:#d3d8db;stop-opacity:1;" />
    </linearGradient>
    <linearGradient
       id="c"
       x1="20"
       x2="20"
       y1="3"
       y2="9.5"
       gradientUnits="userSpaceOnUse"
       gradientTransform="matrix(1.5769232,0,0,1.5769232,6.5427079,5.7692283)">
      <stop
         stop-color="#fff"
         id="stop19-5" />
      <stop
         offset="1"
         stop-color="#fff"
         stop-opacity="0"
         id="stop20-6" />
    </linearGradient>
    <linearGradient
       id="e"
       x1="22"
       x2="14"
       y1="20.5"
       y2="3.5"
       gradientUnits="userSpaceOnUse">
      <stop
         stop-color="#C9D1D9"
         id="stop23" />
      <stop
         offset=".435"
         stop-color="#2D3B49"
         id="stop24" />
      <stop
         offset=".6"
         stop-color="#6D7E91"
         id="stop25" />
      <stop
         offset="1"
         stop-color="#A4A9AF"
         id="stop26" />
    </linearGradient>
    <linearGradient
       id="g"
       x1="20"
       x2="23"
       y1="16"
       y2="19"
       gradientUnits="userSpaceOnUse"
       gradientTransform="matrix(1.5769232,0,0,1.5769232,6.5427079,5.7692283)">
      <stop
         offset=".5"
         stop-color="#222E3C"
         stop-opacity="0"
         id="stop31" />
      <stop
         offset="1"
         stop-color="#222E3C"
         id="stop32" />
    </linearGradient>
    <radialGradient
       id="h"
       cx="0"
       cy="0"
       r="1"
       gradientTransform="matrix(4.7307691,4.7307691,-3.4124135,3.4124135,50.696527,18.384601)"
       gradientUnits="userSpaceOnUse">
      <stop
         stop-color="#fff"
         id="stop33" />
      <stop
         offset="1"
         stop-color="#fff"
         stop-opacity="0"
         id="stop34" />
    </radialGradient>
    <filter
       id="filter30427-0-36"
       x="-0.1339518"
       y="-0.3388412"
       width="1.2679036"
       height="1.6776824"
       color-interpolation-filters="sRGB">
      <feGaussianBlur
         stdDeviation="0.48299559"
         id="feGaussianBlur37-2-7" />
    </filter>
    <linearGradient
       id="paint512_linear_890_11"
       x1="309"
       y1="411"
       x2="263.34399"
       y2="359.388"
       gradientUnits="userSpaceOnUse"
       gradientTransform="matrix(0.39285964,0,0,0.39583333,-100.17928,-142.97917)">
      <stop
         offset="0.285926"
         stop-color="#2E2E41"
         id="stop1767"
         style="stop-color:#535d6c;stop-opacity:1" />
      <stop
         offset="1"
         stop-color="#566C80"
         id="stop1768"
         style="stop-color:#6f7c91;stop-opacity:1" />
    </linearGradient>
    <linearGradient
       id="paint513_linear_890_11"
       x1="261"
       y1="371"
       x2="291.44299"
       y2="412.85901"
       gradientUnits="userSpaceOnUse"
       gradientTransform="matrix(0.39285964,0,0,0.39583333,-100.17928,-142.97917)">
      <stop
         offset="0.554849"
         stop-color="#EFF2F6"
         id="stop1769" />
      <stop
         offset="1"
         stop-color="#B7C6CD"
         id="stop1770" />
    </linearGradient>
    <linearGradient
       id="paint514_linear_890_11"
       x1="279"
       y1="381"
       x2="273"
       y2="375"
       gradientUnits="userSpaceOnUse"
       gradientTransform="matrix(0.39285964,0,0,0.39583333,-128.12504,-141.26852)">
      <stop
         offset="0.178269"
         stop-color="#5200FF"
         id="stop1771" />
      <stop
         offset="0.732905"
         stop-color="#0085FF"
         id="stop1772" />
    </linearGradient>
    <linearGradient
       id="paint515_linear_890_11"
       x1="279"
       y1="389"
       x2="273"
       y2="383"
       gradientUnits="userSpaceOnUse"
       gradientTransform="matrix(0.39285964,0,0,0.39583333,-128.12504,-141.26852)">
      <stop
         offset="0.158885"
         stop-color="#FF7E07"
         id="stop1773" />
      <stop
         offset="0.804651"
         stop-color="#FFC807"
         id="stop1774" />
    </linearGradient>
    <linearGradient
       id="paint516_linear_890_11"
       x1="265"
       y1="375"
       x2="271"
       y2="381"
       gradientUnits="userSpaceOnUse"
       gradientTransform="matrix(0.39285964,0,0,0.39583333,-128.12504,-141.26852)">
      <stop
         offset="0.243963"
         stop-color="#F15700"
         id="stop1775" />
      <stop
         offset="0.831224"
         stop-color="#FF0000"
         id="stop1776" />
    </linearGradient>
    <linearGradient
       id="paint517_linear_890_11"
       x1="271"
       y1="389"
       x2="265"
       y2="383"
       gradientUnits="userSpaceOnUse"
       gradientTransform="matrix(0.39285964,0,0,0.39583333,-128.12504,-141.26852)">
      <stop
         stop-color="#089953"
         id="stop1777" />
      <stop
         offset="1"
         stop-color="#16D96F"
         id="stop1778" />
    </linearGradient>
    <linearGradient
       id="paint518_linear_890_11"
       x1="284"
       y1="369"
       x2="282"
       y2="367"
       gradientUnits="userSpaceOnUse"
       gradientTransform="matrix(0.39285964,0,0,0.39583333,-128.12504,-141.26852)">
      <stop
         stop-color="#71706E"
         id="stop1779" />
      <stop
         offset="1"
         stop-color="#B9AA99"
         id="stop1780" />
    </linearGradient>
    <linearGradient
       id="paint519_linear_890_11"
       x1="292.52399"
       y1="413.5"
       x2="292.52399"
       y2="407"
       gradientUnits="userSpaceOnUse"
       gradientTransform="matrix(0.39285964,0,0,0.39583333,-100.17928,-142.97917)">
      <stop
         offset="0.298086"
         stop-color="#2E2E41"
         id="stop1781"
         style="stop-color:#535d6c;stop-opacity:1" />
      <stop
         offset="1"
         stop-color="#566C80"
         id="stop1782"
         style="stop-color:#6f7c91;stop-opacity:1" />
    </linearGradient>
    <linearGradient
       id="paint520_linear_890_11"
       x1="288"
       y1="409"
       x2="287.23099"
       y2="405.15399"
       gradientUnits="userSpaceOnUse"
       gradientTransform="matrix(0.39285964,0,0,0.39583333,-100.17928,-142.97917)">
      <stop
         offset="0.384873"
         stop-color="#2E2E41"
         id="stop1783" />
      <stop
         offset="1"
         stop-color="#566C80"
         id="stop1784" />
    </linearGradient>
    <filter
       id="filter30427-0-36-3"
       x="-0.1339518"
       y="-0.3388412"
       width="1.2679036"
       height="1.6776824"
       color-interpolation-filters="sRGB">
      <feGaussianBlur
         stdDeviation="0.48299559"
         id="feGaussianBlur37-2-7-8" />
    </filter>
    <linearGradient
       id="f-9-3"
       gradientUnits="userSpaceOnUse"
       x1="9.1779842"
       x2="11.427132"
       y1="7.534945"
       y2="9.7840929"
       gradientTransform="matrix(0.82283289,0,0,0.85921943,-0.93663235,-1.3146308)">
      <stop
         offset="0"
         id="stop2617-1-6" />
      <stop
         offset="1"
         stop-opacity="0"
         id="stop2619-2-0" />
    </linearGradient>
  </defs>
  <g
     inkscape:label="Layer 1"
     inkscape:groupmode="layer"
     id="layer1">
    <path
       d="m 0.78564748,3.8749954 c 0,-1.3117916 1.05522102,-2.375 2.35715782,-2.375 H 18.857191 c 1.301937,0 2.357158,1.0632084 2.357158,2.375 V 17.333329 c 0,1.311791 -1.055221,2.375 -2.357158,2.375 H 3.1428053 c -1.3019368,0 -2.35715782,-1.063209 -2.35715782,-2.375 z"
       id="path502"
       style="fill:url(#paint512_linear_890_11);stroke-width:0.394344" />
    <path
       d="m 2.357086,4.2474746 c 0,-0.2058333 0.1547867,-0.3724792 0.3457165,-0.3724792 H 19.297194 c 0.19093,0 0.345716,0.1666459 0.345716,0.3724792 V 16.169183 c 0,0.205833 -0.154786,0.372479 -0.345716,0.372479 H 2.7028025 c -0.1909298,0 -0.3457165,-0.166646 -0.3457165,-0.372479 z"
       id="path503"
       style="fill:url(#paint513_linear_890_11);stroke-width:0.394344" />
    <path
       d="m 0.00464252,18.519245 c -0.03614309,-0.215729 0.14378662,-0.39425 0.36143086,-0.39425 H 21.633923 c 0.217644,0 0.397574,0.178521 0.361431,0.39425 -0.186609,1.124167 -1.158936,1.98075 -2.330444,1.98075 H 2.3350859 c -1.1715074,0 -2.14383506,-0.856583 -2.33044338,-1.98075 z"
       id="path508"
       style="fill:url(#paint519_linear_890_11);stroke-width:0.394344" />
    <path
       d="m 9.0356999,18.124995 h 3.9285961 c 0,0.437396 -0.351609,0.791667 -0.785719,0.791667 H 9.8214192 c -0.4341099,0 -0.7857193,-0.354271 -0.7857193,-0.791667 z"
       id="path509"
       style="fill:#f1f1f1;stroke-width:0.394344;fill-opacity:1" />
    <g
       id="g1"
       transform="matrix(0.98958349,0,0,1,1.1231304,0.22576348)">
      <path
         d="m 8.3418221,7.5964004 c 0.161104,-0.6111444 0.00629,-1.2608609 0.028182,-1.890862 0.049234,-1.3757218 0.8467148,-1.6877239 1.6643489,-1.7284377 0.938006,-0.047142 2.048311,0.4851454 2.115449,1.7828648 0.03183,0.6210037 -0.08287,1.2625755 0.08465,1.8634358 0.389788,1.4014374 2.063071,2.4132957 2.087247,3.8627357 0.02235,1.377425 -0.639962,3.000879 -1.861704,3.72772 -0.631017,0.375449 -1.487138,-0.07504 -2.228683,-0.027 -0.8247861,0.05406 -1.7422111,0.75558 -2.4537774,0.351433 C 6.4859232,14.80417 6.1296948,12.921864 6.2263566,11.486155 6.3248174,10.027286 7.9681255,9.014139 8.3418118,7.596417 Z"
         stroke-width="0.368239"
         id="path2622-7-8"
         style="fill:#1a1a1a" />
      <ellipse
         cx="10.57575"
         cy="6.2896075"
         fill-opacity="0.941"
         rx="0.72620445"
         ry="0.98365223"
         stroke-width="0.421815"
         id="ellipse2624-0-7"
         fill="#fcfcfc" />
      <ellipse
         cx="9.0315466"
         cy="6.2705255"
         fill="#fcfcfc"
         fill-opacity="0.941"
         rx="0.52512288"
         ry="0.87887549"
         stroke-width="0.44695"
         id="ellipse2626-9-9" />
      <ellipse
         cx="10.252878"
         cy="6.4456258"
         fill="#232629"
         rx="0.33582461"
         ry="0.51270556"
         stroke-width="0.447151"
         id="ellipse2628-3-2" />
      <ellipse
         cx="8.9938583"
         cy="6.5004725"
         fill="#232629"
         rx="0.28328434"
         ry="0.54068488"
         stroke-width="0.560154"
         id="ellipse2630-6-0" />
      <g
         stroke-width="0.540331"
         id="g2638-0-2"
         transform="matrix(0.69641401,0,0,0.6669222,2.1918056,2.6401818)">
        <path
           d="m 12.003557,6.9848678 a 3.2567663,3.2567663 0 0 0 -0.350225,0.00257 C 10.862918,7.0337065 10.015952,7.3440889 9.5879715,7.7200179 8.9029456,8.322147 9.3090775,8.9075681 9.0141175,9.7532477 8.7191581,10.598927 7.9769393,11.705508 7.7545949,12.76068 c -0.089966,0.426053 -0.2043511,0.852106 -0.28275,1.280086 l 2.1161266,2.585878 c 0.4157715,0.507665 -0.6689605,0.319379 -1.6778641,-0.334159 0.7158717,1.006976 2.1360476,2.004955 3.5382316,1.910491 1.493434,-0.100248 3.256765,-1.6618 3.820981,-2.938673 -0.547507,-0.09254 -1.079592,-0.916367 -0.641328,-1.530063 0.152299,-0.212705 0.47939,-0.231341 0.760212,-0.186358 C 15.219196,12.893701 14.882467,12.307637 14.713459,11.815395 14.420428,10.956863 14.079842,10.716526 13.768817,9.9543858 13.45715,9.1922459 13.786167,7.7823514 12.909,7.2335593 12.662236,7.079332 12.346713,7.0022184 12.003557,6.9848678 Z"
           id="path2632-6-3"
           style="fill:#f9f9f9;stroke-width:0.540331" />
        <path
           d="m 6.3945312,14.220703 c -0.03913,0.0016 -0.076999,0.0068 -0.1152343,0.01563 -0.3907091,0.09061 -0.5366566,0.600943 -0.8496094,0.851563 -0.4054893,0.323877 -1.0870184,0.364158 -1.3183594,0.828125 -0.2172034,0.436977 0.2425731,0.98602 0.1230469,1.458984 -0.044983,0.179932 -0.3168972,0.281724 -0.3046875,0.466797 0.02956,0.468465 0.508548,0.83257 0.9121094,1.072265 0.5095927,0.303315 1.1702613,0.205867 1.7421875,0.365235 0.392637,0.109244 0.7449266,0.420362 1.1523437,0.404297 0.6708888,-0.0257 1.540436,-0.212273 1.84375,-0.810547 C 9.8049931,18.429001 9.4955544,17.852993 9.2558594,17.416016 9.0258034,16.997674 8.534602,16.782797 8.2441406,16.404297 7.8084485,15.834941 7.7232124,14.995987 7.1699219,14.541016 6.9579397,14.366707 6.6684441,14.209649 6.3945312,14.220703 Z m 8.0937498,0.162109 c -0.129166,0.11567 -0.238674,0.261663 -0.318359,0.40625 -0.345725,0.627834 -0.112571,1.439383 -0.306641,2.128907 -0.129808,0.459469 -0.507928,0.841489 -0.566406,1.314453 -0.06105,0.494812 -0.133124,1.144948 0.240234,1.474609 0.503809,0.443404 1.379388,0.294588 2.011719,0.07031 0.384925,-0.136235 0.597355,-0.557924 0.921875,-0.804688 0.471679,-0.359863 1.121273,-0.512672 1.482422,-0.982422 0.285963,-0.372716 0.595092,-0.88801 0.449219,-1.333984 -0.05784,-0.176076 -0.344523,-0.171894 -0.453125,-0.322266 -0.285963,-0.395207 -0.06466,-1.071321 -0.427735,-1.396484 -0.269898,-0.24098 -0.667784,-0.214327 -1.050781,-0.224609 -0.185073,0.396493 -0.786686,0.665809 -1.201172,0.550781 -0.350867,-0.09768 -0.700281,-0.495933 -0.78125,-0.88086 z"
           id="path2634-2-7"
           style="fill:#d38d5f;stroke-width:0.540331" />
        <path
           d="M 12.926351,6.7560973 15.068182,8.8979289 12.069747,10.42735 9.1779845,7.5355878"
           opacity="0.2"
           id="path2636-6-5"
           style="fill:url(#f-9-3);stroke-width:0.538683" />
      </g>
      <path
         d="m 9.6342454,6.6418479 c 0.3103934,-0.014167 0.5958366,0.1586947 0.8760826,0.2740768 0.270835,0.1121427 0.733371,0.145738 0.771518,0.4020048 0.04378,0.2910763 -0.433331,0.4627286 -0.712168,0.6315462 C 10.320507,8.1004805 10.042616,8.2773908 9.7383312,8.2749664 9.430764,8.2720673 9.1585158,8.0826674 8.9069961,7.9304504 8.6997509,7.8049479 8.3733328,7.6891649 8.3653268,7.4709575 8.3563398,7.2377713 8.6903278,7.0891943 8.9069961,6.9479026 9.1217796,6.8078353 9.3648222,6.6539941 9.6342454,6.6418479 Z"
         stroke-width="0.367165"
         id="path2640-1-9"
         style="fill:#ffcc00" />
      <path
         d="m 6.6450508,12.124282 c -0.027243,0.0013 -0.053598,0.0048 -0.080245,0.01025 -0.2720925,0.06041 -0.3737328,0.400779 -0.5916825,0.567928 -0.282383,0.215991 -0.7570094,0.242855 -0.918121,0.552282 -0.092543,0.178344 -0.00832,0.384512 0.051671,0.590069 0.1943683,-0.238428 0.6096008,-0.278983 0.8664359,-0.475442 0.2179476,-0.16714 0.3195855,-0.507493 0.5916795,-0.567923 0.026632,-0.0057 0.05301,-0.0086 0.080245,-0.0098 0.1907559,-0.0061 0.392364,0.09729 0.5399901,0.213625 0.3853191,0.30343 0.4446807,0.862946 0.7481012,1.242663 0.2022813,0.252431 0.5443593,0.395736 0.7045756,0.674734 0.063855,0.111609 0.1345469,0.236206 0.1890668,0.36473 0.01325,-0.01947 0.025663,-0.03908 0.036729,-0.05982 C 9.0201415,14.930897 8.8046579,14.546751 8.6377168,14.255305 8.4774969,13.976301 8.1354169,13.833008 7.9331347,13.580567 7.629717,13.200857 7.570354,12.641333 7.1850356,12.337908 7.0374084,12.221657 6.8358,12.116905 6.6450451,12.124282 Z m 5.6365882,0.108136 c -0.08998,0.07716 -0.166208,0.174511 -0.221702,0.270934 -0.24077,0.418725 -0.07855,0.959964 -0.213547,1.419819 -0.09044,0.306438 -0.353729,0.561206 -0.394449,0.876633 -0.028,0.217245 -0.05859,0.479093 -0.0031,0.695583 0.0015,-0.0085 0.0019,-0.01966 0.0031,-0.02854 0.04081,-0.315415 0.30404,-0.570199 0.394449,-0.876625 0.135153,-0.45986 -0.02718,-1.001107 0.213547,-1.419823 0.05554,-0.09638 0.131822,-0.1938 0.221702,-0.27094 0.05649,0.256721 0.299733,0.522323 0.544072,0.587474 0.28867,0.07676 0.707632,-0.102955 0.836516,-0.367324 0.266734,0.006 0.543836,-0.01026 0.731788,0.149784 0.252849,0.216856 0.09885,0.667781 0.297886,0.93135 0.04727,0.06281 0.142632,0.08456 0.217619,0.121155 0.101481,-0.186508 0.161023,-0.388463 0.09803,-0.573148 -0.04038,-0.117507 -0.239923,-0.114577 -0.315552,-0.214925 -0.199157,-0.263596 -0.045,-0.714509 -0.297895,-0.931368 -0.187967,-0.160747 -0.465075,-0.142975 -0.7318,-0.149832 -0.128878,0.264436 -0.547851,0.444044 -0.836518,0.36733 -0.244338,-0.06511 -0.487676,-0.330739 -0.544062,-0.587454 z m -7.2239234,2.112763 c -0.062685,0.06058 -0.1345734,0.116457 -0.1292324,0.194095 0.00959,0.145652 0.088616,0.275436 0.1972308,0.389464 0.00614,-0.01021 0.012041,-0.02215 0.014958,-0.03384 0.046148,-0.174926 -0.030231,-0.364948 -0.08296,-0.549688 z"
         fill="#f9bf5b"
         stroke-width="0.368239"
         id="path2642-8-2" />
    </g>
  </g>
</svg>
