<?xml version="1.0" encoding="UTF-8" standalone="no"?>
<svg
   width="22"
   height="22"
   viewBox="0 0 22 22"
   fill="none"
   version="1.1"
   id="svg5"
   sodipodi:docname="preferences-desktop-filter.svg"
   inkscape:version="1.4 (e7c3feb100, 2024-10-09)"
   xmlns:inkscape="http://www.inkscape.org/namespaces/inkscape"
   xmlns:sodipodi="http://sodipodi.sourceforge.net/DTD/sodipodi-0.dtd"
   xmlns:xlink="http://www.w3.org/1999/xlink"
   xmlns="http://www.w3.org/2000/svg"
   xmlns:svg="http://www.w3.org/2000/svg">
  <sodipodi:namedview
     id="namedview5"
     pagecolor="#ffffff"
     bordercolor="#000000"
     borderopacity="0.25"
     inkscape:showpageshadow="2"
     inkscape:pageopacity="0.0"
     inkscape:pagecheckerboard="0"
     inkscape:deskcolor="#d1d1d1"
     inkscape:zoom="31.416667"
     inkscape:cx="12.015915"
     inkscape:cy="12"
     inkscape:window-width="1920"
     inkscape:window-height="994"
     inkscape:window-x="0"
     inkscape:window-y="0"
     inkscape:window-maximized="1"
     inkscape:current-layer="svg5" />
  <g
     id="g5"
     transform="translate(0,-0.23607415)">
    <path
       d="M 13.8572,13.007274 20.3629,6.4806743 C 20.7699,6.0714343 21,5.5124843 21,4.9291443 v -1.91419 c 0,-1.20108 -0.9529,-1.77888 -2.1284,-1.77888 H 3.1284 c -1.17545,0 -2.1284,0.5778 -2.1284,1.77888 v 1.94857 c 0,0.55229 0.20513,1.08463 0.57524,1.48831 l 5.9771,6.5210397 c 0.11288,0.1232 0.27026,0.193 0.43632,0.1941 l 5.44634,0.0156 c 0.1574,0.0011 0.3093,-0.061 0.4222,-0.1753"
       id="path1"
       style="fill:url(#linearGradient7)" />
    <path
       opacity="0.4"
       d="m 7.72926,13.109074 v 7.3385 c 0,0.2673 0.13459,0.519 0.35492,0.6632 0.1259,0.0832 0.27134,0.1253 0.41678,0.1253 0.10962,0 0.21924,-0.0233 0.32126,-0.0699 l 4.40658,-2.0539 c 0.2757,-0.1275 0.4526,-0.4081 0.4526,-0.7175 v -5.2857 z"
       id="path2"
       style="fill:#80b3ff;fill-opacity:1" />
  </g>
  <defs
     id="defs5">
    <linearGradient
       id="linearGradient5"
       inkscape:collect="always">
      <stop
         style="stop-color:#5599ff;stop-opacity:0.596"
         offset="0"
         id="stop6" />
      <stop
         style="stop-color:#b380ff;stop-opacity:1"
         offset="1"
         id="stop7" />
    </linearGradient>
    <linearGradient
       id="paint0_linear_19_69"
       x1="12"
       y1="13.9465"
       x2="12"
       y2="2"
       gradientUnits="userSpaceOnUse"
       gradientTransform="translate(-1,-0.76392573)">
      <stop
         stop-color="#5570FF"
         id="stop2" />
      <stop
         offset="1"
         stop-color="#4DD3FF"
         id="stop3" />
    </linearGradient>
    <linearGradient
       id="paint1_linear_19_69"
       x1="11.7053"
       y1="22"
       x2="11.7053"
       y2="13.873"
       gradientUnits="userSpaceOnUse"
       gradientTransform="translate(-1,-0.76392573)">
      <stop
         stop-color="#5570FF"
         id="stop4" />
      <stop
         offset="1"
         stop-color="#4DD3FF"
         id="stop5" />
    </linearGradient>
    <linearGradient
       inkscape:collect="always"
       xlink:href="#linearGradient5"
       id="linearGradient7"
       x1="4.4376659"
       y1="1.2360743"
       x2="17.594164"
       y2="10.615167"
       gradientUnits="userSpaceOnUse" />
  </defs>
</svg>
