<?xml version="1.0" encoding="UTF-8" standalone="no"?>
<!-- Created with Inkscape (http://www.inkscape.org/) -->

<svg
   width="22"
   height="22"
   viewBox="0 0 22 22"
   version="1.1"
   id="svg1"
   inkscape:version="1.4 (e7c3feb100, 2024-10-09)"
   sodipodi:docname="preferences-system-session-services.svg"
   xmlns:inkscape="http://www.inkscape.org/namespaces/inkscape"
   xmlns:sodipodi="http://sodipodi.sourceforge.net/DTD/sodipodi-0.dtd"
   xmlns:xlink="http://www.w3.org/1999/xlink"
   xmlns="http://www.w3.org/2000/svg"
   xmlns:svg="http://www.w3.org/2000/svg">
  <sodipodi:namedview
     id="namedview1"
     pagecolor="#ffffff"
     bordercolor="#000000"
     borderopacity="0.25"
     inkscape:showpageshadow="2"
     inkscape:pageopacity="0.0"
     inkscape:pagecheckerboard="0"
     inkscape:deskcolor="#d1d1d1"
     inkscape:document-units="px"
     inkscape:zoom="30.397813"
     inkscape:cx="15.593227"
     inkscape:cy="11.711369"
     inkscape:window-width="1920"
     inkscape:window-height="994"
     inkscape:window-x="0"
     inkscape:window-y="0"
     inkscape:window-maximized="1"
     inkscape:current-layer="layer1"
     showgrid="false">
    <inkscape:grid
       id="grid1"
       units="px"
       originx="0"
       originy="0"
       spacingx="1"
       spacingy="1"
       empcolor="#0099e5"
       empopacity="0.30196078"
       color="#0099e5"
       opacity="0.14901961"
       empspacing="5"
       enabled="true"
       visible="false" />
  </sodipodi:namedview>
  <defs
     id="defs1">
    <linearGradient
       id="linearGradient1"
       inkscape:collect="always">
      <stop
         style="stop-color:#80b3ff;stop-opacity:1"
         offset="0"
         id="stop1" />
      <stop
         style="stop-color:#9955ff;stop-opacity:1"
         offset="1"
         id="stop2" />
    </linearGradient>
    <radialGradient
       id="paint664_radial_890_11"
       cx="0"
       cy="0"
       r="1"
       gradientUnits="userSpaceOnUse"
       gradientTransform="matrix(-16.000099,-9.999913,9.999913,-16.000099,583,171)">
      <stop
         offset="0.42141"
         stop-color="#B7C6CD"
         id="stop2071" />
      <stop
         offset="1"
         stop-color="#EFF2F6"
         id="stop2072" />
    </radialGradient>
    <linearGradient
       id="paint665_linear_890_11"
       x1="605"
       y1="180"
       x2="601.466"
       y2="162.72301"
       gradientUnits="userSpaceOnUse">
      <stop
         stop-color="#5200FF"
         id="stop2073" />
      <stop
         offset="1"
         stop-color="#0085FF"
         id="stop2074" />
    </linearGradient>
    <linearGradient
       id="paint666_linear_890_11"
       x1="567"
       y1="181"
       x2="562.11798"
       y2="174.183"
       gradientUnits="userSpaceOnUse">
      <stop
         stop-color="#5200FF"
         id="stop2075" />
      <stop
         offset="0.670391"
         stop-color="#0085FF"
         id="stop2076" />
    </linearGradient>
    <linearGradient
       id="paint667_linear_890_11"
       x1="605"
       y1="180"
       x2="597.32001"
       y2="174.24001"
       gradientUnits="userSpaceOnUse">
      <stop
         stop-color="#5200FF"
         id="stop2077" />
      <stop
         offset="1"
         stop-color="#0085FF"
         id="stop2078" />
    </linearGradient>
    <linearGradient
       id="paint668_linear_890_11"
       x1="567"
       y1="180"
       x2="561.23999"
       y2="172.32001"
       gradientUnits="userSpaceOnUse">
      <stop
         stop-color="#5200FF"
         id="stop2079" />
      <stop
         offset="1"
         stop-color="#0085FF"
         id="stop2080" />
    </linearGradient>
    <linearGradient
       id="paint669_linear_890_11"
       x1="607"
       y1="179"
       x2="602.50598"
       y2="171.80901"
       gradientUnits="userSpaceOnUse">
      <stop
         stop-color="#5200FF"
         id="stop2081" />
      <stop
         offset="1"
         stop-color="#0085FF"
         id="stop2082" />
    </linearGradient>
    <linearGradient
       id="paint670_linear_890_11"
       x1="607"
       y1="217"
       x2="568.82599"
       y2="170.01601"
       gradientUnits="userSpaceOnUse">
      <stop
         stop-color="#5200FF"
         id="stop2083" />
      <stop
         offset="1"
         stop-color="#0085FF"
         id="stop2084" />
    </linearGradient>
    <radialGradient
       id="paint671_radial_890_11"
       cx="0"
       cy="0"
       r="1"
       gradientUnits="userSpaceOnUse"
       gradientTransform="matrix(0,20,-16,0,583,187)">
      <stop
         offset="0.869716"
         stop-color="#EFF2F6"
         id="stop2085" />
      <stop
         offset="1"
         stop-color="#B7C6CD"
         id="stop2086" />
    </radialGradient>
    <linearGradient
       id="paint497_linear_890_11"
       x1="497"
       y1="413"
       x2="447.457"
       y2="376.79599"
       gradientUnits="userSpaceOnUse"
       gradientTransform="translate(-452,-358)">
      <stop
         offset="0.636456"
         stop-color="#71706E"
         id="stop1737" />
      <stop
         offset="1"
         stop-color="#B9AA99"
         id="stop1738" />
    </linearGradient>
    <linearGradient
       id="paint498_linear_890_11"
       x1="507"
       y1="413"
       x2="457.457"
       y2="376.79599"
       gradientUnits="userSpaceOnUse"
       gradientTransform="translate(-452,-358)">
      <stop
         offset="0.544933"
         stop-color="#FF7E07"
         id="stop1739" />
      <stop
         offset="1"
         stop-color="#FFE607"
         id="stop1740" />
    </linearGradient>
    <linearGradient
       id="paint499_linear_890_11"
       x1="473"
       y1="365"
       x2="486.28699"
       y2="389.91299"
       gradientUnits="userSpaceOnUse"
       gradientTransform="translate(-452,-358)">
      <stop
         stop-color="white"
         id="stop1741" />
      <stop
         offset="0.705"
         stop-color="#EAEFEF"
         id="stop1742" />
    </linearGradient>
    <linearGradient
       id="paint500_linear_890_11"
       x1="480"
       y1="371.5"
       x2="480"
       y2="368.5"
       gradientUnits="userSpaceOnUse"
       gradientTransform="translate(-452,-358)">
      <stop
         offset="0.155999"
         stop-color="#71706E"
         id="stop1743" />
      <stop
         offset="0.796276"
         stop-color="#B9AA99"
         id="stop1744" />
    </linearGradient>
    <linearGradient
       id="paint501_linear_890_11"
       x1="479"
       y1="375.5"
       x2="479"
       y2="372.5"
       gradientUnits="userSpaceOnUse"
       gradientTransform="translate(-452,-358)">
      <stop
         offset="0.155999"
         stop-color="#71706E"
         id="stop1745" />
      <stop
         offset="0.796276"
         stop-color="#B9AA99"
         id="stop1746" />
    </linearGradient>
    <linearGradient
       id="paint502_linear_890_11"
       x1="511"
       y1="417"
       x2="455.64352"
       y2="380.82346"
       gradientUnits="userSpaceOnUse"
       gradientTransform="translate(-452,-358)">
      <stop
         offset="0.18397722"
         stop-color="#2E2E41"
         id="stop1747"
         style="stop-color:#33424d;stop-opacity:1;" />
      <stop
         offset="1"
         stop-color="#566C80"
         id="stop1748" />
    </linearGradient>
    <linearGradient
       id="paint745_linear_890_11"
       x1="172"
       y1="61"
       x2="195.978"
       y2="83.979202"
       gradientUnits="userSpaceOnUse">
      <stop
         stop-color="#EFF2F6"
         id="stop2233" />
      <stop
         offset="1"
         stop-color="#ACD1CF"
         id="stop2234" />
    </linearGradient>
    <linearGradient
       id="paint746_linear_890_11"
       x1="176"
       y1="84"
       x2="175.47501"
       y2="78.479202"
       gradientUnits="userSpaceOnUse">
      <stop
         offset="0.404925"
         stop-color="#2E2E41"
         id="stop2235" />
      <stop
         offset="1"
         stop-color="#566C80"
         id="stop2236" />
    </linearGradient>
    <linearGradient
       id="paint747_linear_890_11"
       x1="202"
       y1="84"
       x2="201.47501"
       y2="78.479202"
       gradientUnits="userSpaceOnUse">
      <stop
         offset="0.404925"
         stop-color="#2E2E41"
         id="stop2237" />
      <stop
         offset="1"
         stop-color="#566C80"
         id="stop2238" />
    </linearGradient>
    <linearGradient
       id="paint748_linear_890_11"
       x1="155"
       y1="82"
       x2="186.461"
       y2="132.33701"
       gradientUnits="userSpaceOnUse">
      <stop
         offset="0.205721"
         stop-color="#EFF2F6"
         id="stop2239" />
      <stop
         offset="1"
         stop-color="#B7C6CD"
         id="stop2240" />
    </linearGradient>
    <radialGradient
       id="paint750_radial_890_11"
       cx="0"
       cy="0"
       r="1"
       gradientUnits="userSpaceOnUse"
       gradientTransform="matrix(5.6470608,5.6470608,-5.6470608,5.6470608,172,96)">
      <stop
         offset="0.340843"
         stop-color="#2E2E41"
         id="stop2243" />
      <stop
         offset="1"
         stop-color="#566C80"
         id="stop2244" />
    </radialGradient>
    <linearGradient
       id="paint751_linear_890_11"
       x1="166"
       y1="90"
       x2="178"
       y2="102"
       gradientUnits="userSpaceOnUse">
      <stop
         stop-color="white"
         id="stop2245" />
      <stop
         offset="0.705"
         stop-color="#EAEFEF"
         id="stop2246" />
    </linearGradient>
    <linearGradient
       id="paint752_linear_890_11"
       x1="193"
       y1="88"
       x2="199"
       y2="94"
       gradientUnits="userSpaceOnUse">
      <stop
         stop-color="#FFE607"
         id="stop2247" />
      <stop
         offset="0.802569"
         stop-color="#FF7E07"
         id="stop2248" />
    </linearGradient>
    <linearGradient
       id="paint753_linear_890_11"
       x1="199"
       y1="104"
       x2="193"
       y2="98"
       gradientUnits="userSpaceOnUse">
      <stop
         offset="0.253846"
         stop-color="#089953"
         id="stop2249" />
      <stop
         offset="1"
         stop-color="#16D96F"
         id="stop2250" />
    </linearGradient>
    <linearGradient
       id="paint754_linear_890_11"
       x1="198"
       y1="93"
       x2="204"
       y2="99"
       gradientUnits="userSpaceOnUse">
      <stop
         offset="0.30755"
         stop-color="#F15700"
         id="stop2251" />
      <stop
         offset="0.832479"
         stop-color="#FF0000"
         id="stop2252" />
    </linearGradient>
    <linearGradient
       id="paint755_linear_890_11"
       x1="194"
       y1="99"
       x2="188"
       y2="93"
       gradientUnits="userSpaceOnUse">
      <stop
         offset="0.320751"
         stop-color="#5200FF"
         id="stop2253" />
      <stop
         offset="1"
         stop-color="#0085FF"
         id="stop2254" />
    </linearGradient>
    <linearGradient
       id="paint723_linear_890_11"
       x1="555"
       y1="61"
       x2="610.99902"
       y2="117.38"
       gradientUnits="userSpaceOnUse">
      <stop
         offset="0.186267"
         stop-color="#EFF2F6"
         id="stop2189" />
      <stop
         offset="0.774054"
         stop-color="#B7C6CD"
         id="stop2190" />
    </linearGradient>
    <linearGradient
       id="paint724_linear_890_11"
       x1="568"
       y1="71"
       x2="577.836"
       y2="79.196701"
       gradientUnits="userSpaceOnUse">
      <stop
         offset="0.268133"
         stop-color="#F15700"
         id="stop2191" />
      <stop
         offset="0.700195"
         stop-color="#FF0000"
         id="stop2192" />
    </linearGradient>
    <linearGradient
       id="paint725_linear_890_11"
       x1="583"
       y1="108"
       x2="573"
       y2="98"
       gradientUnits="userSpaceOnUse">
      <stop
         offset="0.29783"
         stop-color="#FF7E07"
         id="stop2193" />
      <stop
         offset="0.909465"
         stop-color="#FFE607"
         id="stop2194" />
    </linearGradient>
    <linearGradient
       id="paint726_linear_890_11"
       x1="597"
       y1="80"
       x2="587"
       y2="70"
       gradientUnits="userSpaceOnUse">
      <stop
         offset="0.334156"
         stop-color="#089953"
         id="stop2195" />
      <stop
         offset="0.842157"
         stop-color="#16D96F"
         id="stop2196" />
    </linearGradient>
    <linearGradient
       id="paint727_linear_890_11"
       x1="572"
       y1="97"
       x2="562"
       y2="87"
       gradientUnits="userSpaceOnUse">
      <stop
         offset="0.314502"
         stop-color="#5200FF"
         id="stop2197" />
      <stop
         offset="0.885503"
         stop-color="#0085FF"
         id="stop2198" />
    </linearGradient>
    <linearGradient
       id="paint728_linear_890_11"
       x1="598.578"
       y1="100.584"
       x2="594.58398"
       y2="104.578"
       gradientUnits="userSpaceOnUse">
      <stop
         stop-color="#2E2E41"
         id="stop2199"
         style="stop-color:#550000;stop-opacity:1" />
      <stop
         offset="1"
         stop-color="#566C80"
         id="stop2200"
         style="stop-color:#ff5555;stop-opacity:1" />
    </linearGradient>
    <linearGradient
       id="paint729_linear_890_11"
       x1="575"
       y1="81"
       x2="589.55603"
       y2="95.556396"
       gradientUnits="userSpaceOnUse">
      <stop
         stop-color="white"
         id="stop2201"
         offset="0"
         style="stop-color:#797979;stop-opacity:1;" />
      <stop
         offset="0.70499998"
         stop-color="#EAEFEF"
         id="stop2202"
         style="stop-color:#5c7a7a;stop-opacity:1;" />
    </linearGradient>
    <linearGradient
       id="paint730_linear_890_11"
       x1="583.40698"
       y1="90.527802"
       x2="577.06799"
       y2="84.189201"
       gradientUnits="userSpaceOnUse">
      <stop
         offset="0.388464"
         stop-color="#71706E"
         id="stop2203" />
      <stop
         offset="1"
         stop-color="#B9AA99"
         id="stop2204" />
    </linearGradient>
    <linearGradient
       id="paint521_linear_890_11"
       x1="176"
       y1="417"
       x2="172.8"
       y2="410.60001"
       gradientUnits="userSpaceOnUse"
       gradientTransform="translate(-152,-358)">
      <stop
         stop-color="#2E2E41"
         id="stop1785" />
      <stop
         offset="1"
         stop-color="#566C80"
         id="stop1786" />
    </linearGradient>
    <linearGradient
       id="paint522_linear_890_11"
       x1="198"
       y1="417"
       x2="194.8"
       y2="410.60001"
       gradientUnits="userSpaceOnUse"
       gradientTransform="translate(-152,-358)">
      <stop
         stop-color="#2E2E41"
         id="stop1787" />
      <stop
         offset="1"
         stop-color="#566C80"
         id="stop1788" />
    </linearGradient>
    <linearGradient
       id="paint523_linear_890_11"
       x1="183"
       y1="415"
       x2="183"
       y2="361"
       gradientUnits="userSpaceOnUse"
       gradientTransform="translate(-152,-358)">
      <stop
         offset="0.221007"
         stop-color="#2E2E41"
         id="stop1789"
         style="stop-color:#555577;stop-opacity:1;" />
      <stop
         offset="1"
         stop-color="#566C80"
         id="stop1790"
         style="stop-color:#7a91a6;stop-opacity:1;" />
    </linearGradient>
    <linearGradient
       id="paint524_linear_890_11"
       x1="183"
       y1="389"
       x2="183"
       y2="363"
       gradientUnits="userSpaceOnUse"
       gradientTransform="translate(-152,-358)">
      <stop
         offset="0.16552401"
         stop-color="#2E2E41"
         id="stop1791"
         style="stop-color:#191924;stop-opacity:1;" />
      <stop
         offset="0.784914"
         stop-color="#566C80"
         id="stop1792" />
    </linearGradient>
    <linearGradient
       id="paint525_linear_890_11"
       x1="183"
       y1="367"
       x2="183"
       y2="373"
       gradientUnits="userSpaceOnUse"
       gradientTransform="translate(-152,-358)">
      <stop
         stop-color="#EFF2F6"
         id="stop1793" />
      <stop
         offset="0.600628"
         stop-color="#B7C6CD"
         id="stop1794" />
    </linearGradient>
    <linearGradient
       id="paint526_linear_890_11"
       x1="179"
       y1="399"
       x2="187"
       y2="407"
       gradientUnits="userSpaceOnUse"
       gradientTransform="translate(-152,-357)">
      <stop
         offset="0.313567"
         stop-color="#EFF2F6"
         id="stop1795" />
      <stop
         offset="0.581564"
         stop-color="#B7C6CD"
         id="stop1796" />
    </linearGradient>
    <linearGradient
       id="paint527_linear_890_11"
       x1="181"
       y1="401"
       x2="185"
       y2="405"
       gradientUnits="userSpaceOnUse"
       gradientTransform="translate(-152,-357)">
      <stop
         stop-color="#F15700"
         id="stop1797" />
      <stop
         offset="0.717503"
         stop-color="#FF0000"
         id="stop1798" />
    </linearGradient>
    <linearGradient
       id="paint528_linear_890_11"
       x1="182"
       y1="385"
       x2="180"
       y2="383"
       gradientUnits="userSpaceOnUse"
       gradientTransform="matrix(3.0499996,0,0,3.0499996,-526.64998,-1149.2349)">
      <stop
         stop-color="#FF7E07"
         id="stop1799" />
      <stop
         offset="1"
         stop-color="#FFE607"
         id="stop1800" />
    </linearGradient>
    <linearGradient
       id="paint529_linear_890_11"
       x1="186"
       y1="385"
       x2="184"
       y2="383"
       gradientUnits="userSpaceOnUse"
       gradientTransform="matrix(3.0499996,0,0,3.0499996,-526.64998,-1149.2349)">
      <stop
         stop-color="#089953"
         id="stop1801" />
      <stop
         offset="1"
         stop-color="#16D96F"
         id="stop1802" />
    </linearGradient>
    <linearGradient
       inkscape:collect="always"
       xlink:href="#linearGradient1"
       id="linearGradient2"
       x1="33.984764"
       y1="6.1096659"
       x2="34.435711"
       y2="59.697464"
       gradientUnits="userSpaceOnUse" />
  </defs>
  <g
     inkscape:label="Layer 1"
     inkscape:groupmode="layer"
     id="layer1">
    <g
       id="g1"
       transform="matrix(0.35714261,0,0,0.35087561,-0.07146144,-0.29730693)">
      <path
         style="opacity:0.726744;fill:#ccaaff;fill-opacity:1"
         d="M 36.980849,4.8942834 C 33.94101,4.0797612 30.836501,5.8721508 30.021978,8.9119892 29.593243,10.51205 28.577557,11.198448 26.272862,11.969564 c -2.842268,0.95098 -4.718493,1.239996 -6.318146,-0.359651 -2.225314,-2.2253168 -5.80879,-2.2238378 -8.034107,0.0015 l -2.0096061,2.00638 c -2.2253164,2.225318 -2.223837,5.808791 0.0015,8.034107 1.1138811,1.11388 1.0101481,3.187779 0.5105031,5.532227 -0.6369471,2.988696 -0.8235681,3.896832 -3.208222,4.535797 -3.0398384,0.814522 -4.8328566,3.917162 -4.0183349,6.957001 l 0.7371784,2.742384 c 0.8145217,3.039838 3.9171637,4.832856 6.9570015,4.018336 2.086905,-0.559184 3.183657,0.516046 4.880898,2.131586 2.2827,2.172821 3.023714,3.241606 2.488644,5.238514 -0.814521,3.03984 0.977869,6.144349 4.017705,6.958869 l 1.370752,0.367293 1.370751,0.367292 c 3.039837,0.814522 6.144348,-0.977868 6.958871,-4.017705 0.535068,-1.99691 1.711199,-2.551997 4.774487,-3.292365 2.277623,-0.55048 3.765051,-0.933279 5.292773,0.59444 2.225316,2.225316 5.808792,2.223839 8.034107,-0.0015 l 2.009608,-2.006384 c 2.225317,-2.225316 2.223838,-5.808792 -0.0015,-8.034106 -1.745687,-1.745688 -1.453239,-2.625466 -0.510503,-5.532228 0.739518,-2.280173 1.686633,-4.128087 3.208222,-4.535797 3.039839,-0.814521 4.832857,-3.917162 4.018334,-6.957 L 58.0666,23.976174 C 57.252079,20.936335 54.149436,19.143316 51.109598,19.957839 48.924438,20.54335 47.444086,19.35494 45.458101,17.110233 43.847732,15.29008 43.311322,14.187798 43.740057,12.587737 44.554578,9.5478982 42.762189,6.4433892 39.722352,5.6288669 L 38.3516,5.2615752 Z"
         id="path1" />
      <path
         style="fill:url(#linearGradient2)"
         d="M 36.980849,3.8941492 C 33.94101,3.079627 30.836501,4.8720166 30.021978,7.9118547 29.593243,9.5119152 28.577557,10.198314 26.272862,10.96943 c -2.842268,0.95098 -4.718493,1.239996 -6.318146,-0.359651 -2.225314,-2.2253167 -5.80879,-2.2238381 -8.034107,0.0015 l -2.0096061,2.00638 c -2.2253164,2.225318 -2.223837,5.808791 0.0015,8.034107 1.1138811,1.11388 1.0101481,3.187779 0.5105031,5.532227 -0.6369471,2.988696 -0.8235681,3.896832 -3.208222,4.535797 -3.0398384,0.814522 -4.8328566,3.917162 -4.0183349,6.957001 l 0.7371784,2.742384 c 0.8145217,3.039838 3.9171637,4.832856 6.9570015,4.018336 2.086905,-0.559184 3.183657,0.516046 4.880898,2.131586 2.2827,2.172821 3.023714,3.241606 2.488644,5.238514 -0.814521,3.03984 0.977869,6.144349 4.017705,6.958869 l 1.370752,0.367293 1.370751,0.367292 c 3.039837,0.814522 6.144348,-0.977868 6.958871,-4.017705 0.535068,-1.99691 1.711199,-2.551997 4.774487,-3.292365 2.277623,-0.55048 3.765051,-0.933279 5.292773,0.59444 2.225316,2.225316 5.808792,2.223839 8.034107,-0.0015 l 2.009608,-2.006384 c 2.225317,-2.225316 2.223838,-5.808792 -0.0015,-8.034106 -1.745687,-1.745688 -1.453239,-2.625466 -0.510503,-5.532228 0.739518,-2.280173 1.686633,-4.128087 3.208222,-4.535797 3.039839,-0.814521 4.832857,-3.917162 4.018334,-6.957 L 58.0666,22.97604 C 57.252079,19.936201 54.149436,18.143182 51.109598,18.957705 48.924438,19.543216 47.444086,18.354806 45.458101,16.110099 43.847732,14.289946 43.311322,13.187664 43.740057,11.587603 44.554578,8.5477642 42.762189,5.443255 39.722352,4.6287327 L 38.3516,4.261441 Z"
         id="path2" />
      <path
         style="opacity:0.2"
         d="m 31.000078,21.697733 c 6.075163,0 11,4.924838 11,11 0,6.075163 -4.924837,11 -11,11 -6.075163,0 -11,-4.924837 -11,-11 0,-6.075162 4.924837,-11 11,-11 z"
         id="path3" />
      <path
         fill="#ffffff"
         d="m 31.000078,20.697599 c 6.075163,0 11,4.924838 11,11 0,6.075163 -4.924837,11 -11,11 -6.075163,0 -11,-4.924837 -11,-11 0,-6.075162 4.924837,-11 11,-11 z"
         id="path4" />
      <path
         style="opacity:0.4375;fill:#ffffff"
         d="m 35.279375,3.7015051 c -2.422314,0.093662 -4.596013,1.7410691 -5.257813,4.2109376 -0.428735,1.6000605 -1.443351,2.2855243 -3.748046,3.0566403 -2.842269,0.95098 -4.718707,1.240272 -6.31836,-0.359375 -2.225314,-2.2253163 -5.809839,-2.2233846 -8.035156,0.002 l -2.0097661,2.00586 c -1.2407364,1.24069 -1.78581,2.903188 -1.6425779,4.517531 0.1126577,-1.281678 0.6575405,-2.53254 1.6425779,-3.517578 L 11.92,11.611661 c 2.225317,-2.2253378 5.809842,-2.2272688 8.035156,-0.002 1.599653,1.599647 3.476091,1.310355 6.31836,0.359375 2.304695,-0.771116 3.319311,-1.456579 3.748046,-3.0566408 0.814523,-3.0398376 3.919146,-4.8320999 6.958985,-4.0175777 l 1.371093,0.3671875 1.371094,0.3671875 c 2.37623,0.6367091 3.983176,2.6737904 4.185547,4.9843755 C 44.151528,7.9106338 42.437417,5.356637 39.722734,4.6292395 L 38.35164,4.262052 36.980547,3.8948645 C 36.410577,3.7421416 35.83837,3.6798909 35.279375,3.7015051 Z m 8.367187,9.3574219 c -0.207635,1.357524 0.36602,2.415867 1.8125,4.050781 1.985985,2.244707 3.465231,3.433168 5.650391,2.847657 3.039838,-0.814523 6.14251,0.979692 6.957031,4.019531 l 0.736328,2.742187 c 0.0873,0.325821 0.140856,0.652194 0.169922,0.976563 0.05698,-0.646038 0.0082,-1.311961 -0.169922,-1.976563 l -0.736328,-2.742187 c -0.814521,-3.039839 -3.917193,-4.834054 -6.957031,-4.019531 -2.18516,0.585511 -3.664406,-0.60295 -5.650391,-2.847657 -1.076289,-1.216498 -1.66318,-2.112688 -1.8125,-3.050781 z M 10.761797,23.859708 c -0.04289,0.723536 -0.163358,1.505271 -0.337891,2.324219 -0.6369471,2.988696 -0.8243301,3.896191 -3.2089843,4.535156 -2.7142023,0.727268 -4.4299003,3.280294 -4.1875,5.982422 0.2029011,-2.309691 1.8115976,-4.345801 4.1875,-4.982422 2.3846542,-0.638965 2.5720372,-1.54646 3.2089843,-4.535156 0.258751,-1.214116 0.405621,-2.350976 0.337891,-3.324219 z m 40.111328,16.876953 c -0.175347,1.143209 0.110765,1.903734 1.214844,3.007813 0.989604,0.989594 1.536704,2.24727 1.646484,3.535156 0.147983,-1.619856 -0.401221,-3.29186 -1.646484,-4.537109 -0.750838,-0.750838 -1.107666,-1.345217 -1.214844,-2.00586 z M 18.377031,51.219083 c -0.02774,0.189334 -0.06172,0.380872 -0.117187,0.587891 -0.177813,0.663608 -0.224485,1.329334 -0.167969,1.974609 0.02914,-0.323752 0.08084,-0.649455 0.167969,-0.974609 0.159438,-0.595031 0.191382,-1.10391 0.117187,-1.587891 z"
         id="path5" />
    </g>
  </g>
</svg>
