<?xml version="1.0" encoding="UTF-8" standalone="no"?>
<svg
   width="22"
   height="22"
   version="1"
   id="svg8"
   sodipodi:docname="preferences-system-network-ethernet.svg"
   inkscape:version="1.4 (e7c3feb100, 2024-10-09)"
   xmlns:inkscape="http://www.inkscape.org/namespaces/inkscape"
   xmlns:sodipodi="http://sodipodi.sourceforge.net/DTD/sodipodi-0.dtd"
   xmlns="http://www.w3.org/2000/svg"
   xmlns:svg="http://www.w3.org/2000/svg">
  <defs
     id="defs8" />
  <sodipodi:namedview
     id="namedview8"
     pagecolor="#ffffff"
     bordercolor="#000000"
     borderopacity="0.25"
     inkscape:showpageshadow="2"
     inkscape:pageopacity="0.0"
     inkscape:pagecheckerboard="0"
     inkscape:deskcolor="#d1d1d1"
     inkscape:zoom="34.272727"
     inkscape:cx="10.985411"
     inkscape:cy="11"
     inkscape:window-width="1920"
     inkscape:window-height="994"
     inkscape:window-x="0"
     inkscape:window-y="0"
     inkscape:window-maximized="1"
     inkscape:current-layer="svg8" />
  <path
     style="opacity:0.2"
     d="M 7,20.5 5,18.5 H 2.5 C 1.669,18.5 1,17.831 1,17 V 5 C 1,4.169 1.669,3.5 2.5,3.5 H 19.5 C 20.331,3.5 21,4.169 21,5 V 17 C 21,17.831 20.331,18.5 19.5,18.5 H 17 L 15,20.5 Z"
     id="path1" />
  <path
     style="fill:#c2cbd6;fill-opacity:1"
     d="M 7,20 5,18 H 2.5 C 1.669,18 1,17.331 1,16.5 V 4.5 C 1,3.669 1.669,3 2.5,3 H 19.5 C 20.331,3 21,3.669 21,4.5 V 16.5 C 21,17.331 20.331,18 19.5,18 H 17 L 15,20 Z"
     id="path2" />
  <path
     style="opacity:1;fill:#374552;fill-opacity:1"
     d="M 9,17 6.75,15 H 4 V 6 H 18 V 15 H 15 L 13,17 Z"
     id="path3" />
  <g
     style="fill:#f8c44e"
     transform="scale(1,-1)"
     id="g7">
    <rect
       width="1"
       height="2"
       x="7"
       y="-8"
       id="rect3" />
    <rect
       width="1"
       height="2"
       x="9"
       y="-8"
       id="rect4" />
    <rect
       width="1"
       height="2"
       x="11"
       y="-8"
       id="rect5" />
    <rect
       width="1"
       height="2"
       x="13"
       y="-8"
       id="rect6" />
    <rect
       width="1"
       height="2"
       x="15"
       y="-8"
       id="rect7" />
  </g>
  <path
     style="opacity:0.2;fill:#ffffff"
     d="M 2.5,3 C 1.669,3 1,3.669 1,4.5 V 5 C 1,4.169 1.669,3.5 2.5,3.5 H 19.5 C 20.331,3.5 21,4.169 21,5 V 4.5 C 21,3.669 20.331,3 19.5,3 Z"
     id="path7" />
  <path
     style="opacity:0.2;fill:#ffffff"
     d="M 4,15 V 15.5 H 6.75 L 9,17.5 H 13 L 15,15.5 H 18 V 15 H 15 L 13,17 H 9 L 6.75,15 Z"
     id="path8" />
</svg>
