<?xml version="1.0" encoding="UTF-8" standalone="no"?>
<svg
   width="62"
   height="62"
   version="1.1"
   id="svg5"
   sodipodi:docname="homerun.svg"
   inkscape:version="1.4 (e7c3feb100, 2024-10-09)"
   xmlns:inkscape="http://www.inkscape.org/namespaces/inkscape"
   xmlns:sodipodi="http://sodipodi.sourceforge.net/DTD/sodipodi-0.dtd"
   xmlns="http://www.w3.org/2000/svg"
   xmlns:svg="http://www.w3.org/2000/svg">
  <defs
     id="defs5">
    <linearGradient
       id="paint0_linear_348_188"
       x1="9.2385302"
       y1="31.105"
       x2="-0.52826601"
       y2="12.4514"
       gradientUnits="userSpaceOnUse">
      <stop
         offset="0.106984"
         stop-color="#E02767"
         id="stop3" />
      <stop
         offset="0.871403"
         stop-color="#FA5D51"
         id="stop4" />
    </linearGradient>
    <linearGradient
       id="paint1_linear_348_188"
       x1="29.986401"
       y1="1.85748"
       x2="18.285101"
       y2="31.239401"
       gradientUnits="userSpaceOnUse"
       gradientTransform="matrix(1.4999997,0,0,1.4999997,7.4999925,8.4912071)">
      <stop
         stop-color="#FE0F7C"
         id="stop5" />
      <stop
         offset="1"
         stop-color="#DF0066"
         id="stop6" />
    </linearGradient>
  </defs>
  <sodipodi:namedview
     id="namedview5"
     pagecolor="#ffffff"
     bordercolor="#000000"
     borderopacity="0.25"
     inkscape:showpageshadow="2"
     inkscape:pageopacity="0.0"
     inkscape:pagecheckerboard="0"
     inkscape:deskcolor="#d1d1d1"
     inkscape:zoom="8.2643105"
     inkscape:cx="39.023219"
     inkscape:cy="44.770825"
     inkscape:window-width="1920"
     inkscape:window-height="994"
     inkscape:window-x="0"
     inkscape:window-y="0"
     inkscape:window-maximized="1"
     inkscape:current-layer="svg5" />
  <rect
     style="opacity:0.2;stroke-width:0.9823"
     width="55"
     height="55.017544"
     x="4"
     y="4.9824562"
     rx="8.25"
     ry="8.2526312"
     id="rect1" />
  <rect
     style="fill:#2c3e54;stroke-width:0.9823;fill-opacity:1"
     width="55"
     height="55.017544"
     x="4"
     y="4"
     rx="8.25"
     ry="8.2526312"
     id="rect2" />
  <path
     style="opacity:0.1;fill:#ffffff;stroke-width:0.9823"
     d="M 12.248466,4 C 7.6779652,4 4,7.6791384 4,12.251097 v 0.982456 C 4,8.6615945 7.6779652,4.9824561 12.248466,4.9824561 H 50.751534 C 55.322034,4.9824561 59,8.6615945 59,13.233553 V 12.251097 C 59,7.6791384 55.322034,4 50.751534,4 Z"
     id="path4" />
  <path
     opacity="0.4"
     d="m 39.000002,11.491228 c -2.493013,0 -4.500003,2.007018 -4.500003,4.499987 v 9.000015 c 0,2.493016 2.00699,4.500003 4.500003,4.500003 h 9.000014 c 2.492973,0 4.499987,-2.006987 4.499987,-4.500003 v -9.000015 c 0,-2.492969 -2.007015,-4.499987 -4.499987,-4.499987 z M 14.999984,35.49123 c -2.492969,0 -4.499987,2.00699 -4.499987,4.500003 v 9.000039 c 0,2.492938 2.007018,4.499956 4.499987,4.499956 h 9.000015 c 2.493016,0 4.500003,-2.007018 4.500003,-4.499956 v -9.000039 c 0,-2.493013 -2.006987,-4.500003 -4.500003,-4.500003 z"
     id="path1"
     style="fill:#b3d1ff;fill-opacity:1" />
  <path
     fill-rule="evenodd"
     clip-rule="evenodd"
     d="m 14.999984,11.491228 c -2.492969,0 -4.499987,2.007018 -4.499987,4.499987 v 9.000015 c 0,2.493016 2.007018,4.500003 4.499987,4.500003 h 9.000015 c 2.493016,0 4.500003,-2.006987 4.500003,-4.500003 v -9.000015 c 0,-2.492969 -2.006987,-4.499987 -4.500003,-4.499987 z M 39.000002,35.49123 c -2.493013,0 -4.500003,2.00699 -4.500003,4.500003 v 9.000039 c 0,2.492938 2.00699,4.499956 4.500003,4.499956 h 9.000014 c 2.492973,0 4.499987,-2.007018 4.499987,-4.499956 v -9.000039 c 0,-2.493013 -2.007015,-4.500003 -4.499987,-4.500003 z"
     fill="url(#paint1_linear_348_188)"
     id="path2"
     style="fill:url(#paint1_linear_348_188);stroke-width:1.49998" />
  <path
     fill-rule="evenodd"
     clip-rule="evenodd"
     d="m 14.999984,11.491228 c -2.492969,0 -4.499987,2.007018 -4.499987,4.499987 v 9.000015 c 0,2.493016 2.007018,4.500003 4.499987,4.500003 h 9.000015 c 2.493016,0 4.500003,-2.006987 4.500003,-4.500003 v -9.000015 c 0,-2.492969 -2.006987,-4.499987 -4.500003,-4.499987 z M 39.000002,35.49123 c -2.493013,0 -4.500003,2.00699 -4.500003,4.500003 v 9.000039 c 0,2.492938 2.00699,4.499956 4.500003,4.499956 h 9.000014 c 2.492973,0 4.499987,-2.007018 4.499987,-4.499956 v -9.000039 c 0,-2.493013 -2.007015,-4.500003 -4.499987,-4.500003 z"
     id="path3"
     style="fill:#cce0ff;fill-opacity:1" />
</svg>
