<?xml version="1.0" encoding="UTF-8" standalone="no"?>
<!-- Created with Inkscape (http://www.inkscape.org/) -->

<svg
   width="62"
   height="62"
   viewBox="0 0 62 62"
   version="1.1"
   id="svg1"
   inkscape:version="1.4 (e7c3feb100, 2024-10-09)"
   sodipodi:docname="org.kde.dolphin_su.svg"
   xmlns:inkscape="http://www.inkscape.org/namespaces/inkscape"
   xmlns:sodipodi="http://sodipodi.sourceforge.net/DTD/sodipodi-0.dtd"
   xmlns:xlink="http://www.w3.org/1999/xlink"
   xmlns="http://www.w3.org/2000/svg"
   xmlns:svg="http://www.w3.org/2000/svg">
  <sodipodi:namedview
     id="namedview1"
     pagecolor="#ffffff"
     bordercolor="#000000"
     borderopacity="0.25"
     inkscape:showpageshadow="2"
     inkscape:pageopacity="0.0"
     inkscape:pagecheckerboard="0"
     inkscape:deskcolor="#d1d1d1"
     inkscape:document-units="px"
     inkscape:zoom="10.74725"
     inkscape:cx="30.891623"
     inkscape:cy="29.775059"
     inkscape:window-width="1920"
     inkscape:window-height="998"
     inkscape:window-x="0"
     inkscape:window-y="0"
     inkscape:window-maximized="1"
     inkscape:current-layer="layer1"
     showgrid="true">
    <inkscape:grid
       id="grid1"
       units="px"
       originx="0"
       originy="0"
       spacingx="1"
       spacingy="1"
       empcolor="#0099e5"
       empopacity="0.30196078"
       color="#0099e5"
       opacity="0.14901961"
       empspacing="5"
       enabled="true"
       visible="true" />
  </sodipodi:namedview>
  <defs
     id="defs1">
    <linearGradient
       id="linearGradient5"
       inkscape:collect="always">
      <stop
         style="stop-color:#566c80;stop-opacity:1;"
         offset="0"
         id="stop5" />
      <stop
         style="stop-color:#394956;stop-opacity:1;"
         offset="0.80768204"
         id="stop7" />
      <stop
         style="stop-color:#33414c;stop-opacity:1;"
         offset="1"
         id="stop6" />
    </linearGradient>
    <linearGradient
       id="linearGradient3"
       inkscape:collect="always">
      <stop
         style="stop-color:#ff9999;stop-opacity:1;"
         offset="0"
         id="stop3" />
      <stop
         style="stop-color:#b20000;stop-opacity:1;"
         offset="1"
         id="stop4" />
    </linearGradient>
    <linearGradient
       id="linearGradient1"
       inkscape:collect="always">
      <stop
         style="stop-color:#ff8080;stop-opacity:1;"
         offset="0"
         id="stop1" />
      <stop
         style="stop-color:#c83771;stop-opacity:1;"
         offset="1"
         id="stop2" />
    </linearGradient>
    <radialGradient
       id="paint664_radial_890_11"
       cx="0"
       cy="0"
       r="1"
       gradientUnits="userSpaceOnUse"
       gradientTransform="matrix(-16.000099,-9.999913,9.999913,-16.000099,583,171)">
      <stop
         offset="0.42141"
         stop-color="#B7C6CD"
         id="stop2071" />
      <stop
         offset="1"
         stop-color="#EFF2F6"
         id="stop2072" />
    </radialGradient>
    <linearGradient
       id="paint665_linear_890_11"
       x1="605"
       y1="180"
       x2="601.466"
       y2="162.72301"
       gradientUnits="userSpaceOnUse">
      <stop
         stop-color="#5200FF"
         id="stop2073" />
      <stop
         offset="1"
         stop-color="#0085FF"
         id="stop2074" />
    </linearGradient>
    <linearGradient
       id="paint666_linear_890_11"
       x1="567"
       y1="181"
       x2="562.11798"
       y2="174.183"
       gradientUnits="userSpaceOnUse">
      <stop
         stop-color="#5200FF"
         id="stop2075" />
      <stop
         offset="0.670391"
         stop-color="#0085FF"
         id="stop2076" />
    </linearGradient>
    <linearGradient
       id="paint667_linear_890_11"
       x1="605"
       y1="180"
       x2="597.32001"
       y2="174.24001"
       gradientUnits="userSpaceOnUse">
      <stop
         stop-color="#5200FF"
         id="stop2077" />
      <stop
         offset="1"
         stop-color="#0085FF"
         id="stop2078" />
    </linearGradient>
    <linearGradient
       id="paint668_linear_890_11"
       x1="567"
       y1="180"
       x2="561.23999"
       y2="172.32001"
       gradientUnits="userSpaceOnUse">
      <stop
         stop-color="#5200FF"
         id="stop2079" />
      <stop
         offset="1"
         stop-color="#0085FF"
         id="stop2080" />
    </linearGradient>
    <linearGradient
       id="paint669_linear_890_11"
       x1="607"
       y1="179"
       x2="602.50598"
       y2="171.80901"
       gradientUnits="userSpaceOnUse">
      <stop
         stop-color="#5200FF"
         id="stop2081" />
      <stop
         offset="1"
         stop-color="#0085FF"
         id="stop2082" />
    </linearGradient>
    <linearGradient
       id="paint670_linear_890_11"
       x1="607"
       y1="217"
       x2="568.82599"
       y2="170.01601"
       gradientUnits="userSpaceOnUse">
      <stop
         stop-color="#5200FF"
         id="stop2083" />
      <stop
         offset="1"
         stop-color="#0085FF"
         id="stop2084" />
    </linearGradient>
    <radialGradient
       id="paint671_radial_890_11"
       cx="0"
       cy="0"
       r="1"
       gradientUnits="userSpaceOnUse"
       gradientTransform="matrix(0,20,-16,0,583,187)">
      <stop
         offset="0.869716"
         stop-color="#EFF2F6"
         id="stop2085" />
      <stop
         offset="1"
         stop-color="#B7C6CD"
         id="stop2086" />
    </radialGradient>
    <linearGradient
       id="paint497_linear_890_11"
       x1="497"
       y1="413"
       x2="447.457"
       y2="376.79599"
       gradientUnits="userSpaceOnUse"
       gradientTransform="translate(-452,-358)">
      <stop
         offset="0.636456"
         stop-color="#71706E"
         id="stop1737" />
      <stop
         offset="1"
         stop-color="#B9AA99"
         id="stop1738" />
    </linearGradient>
    <linearGradient
       id="paint498_linear_890_11"
       x1="507"
       y1="413"
       x2="457.457"
       y2="376.79599"
       gradientUnits="userSpaceOnUse"
       gradientTransform="translate(-452,-358)">
      <stop
         offset="0.544933"
         stop-color="#FF7E07"
         id="stop1739" />
      <stop
         offset="1"
         stop-color="#FFE607"
         id="stop1740" />
    </linearGradient>
    <linearGradient
       id="paint499_linear_890_11"
       x1="473"
       y1="365"
       x2="486.28699"
       y2="389.91299"
       gradientUnits="userSpaceOnUse"
       gradientTransform="translate(-452,-358)">
      <stop
         stop-color="white"
         id="stop1741" />
      <stop
         offset="0.705"
         stop-color="#EAEFEF"
         id="stop1742" />
    </linearGradient>
    <linearGradient
       id="paint500_linear_890_11"
       x1="480"
       y1="371.5"
       x2="480"
       y2="368.5"
       gradientUnits="userSpaceOnUse"
       gradientTransform="translate(-452,-358)">
      <stop
         offset="0.155999"
         stop-color="#71706E"
         id="stop1743" />
      <stop
         offset="0.796276"
         stop-color="#B9AA99"
         id="stop1744" />
    </linearGradient>
    <linearGradient
       id="paint501_linear_890_11"
       x1="479"
       y1="375.5"
       x2="479"
       y2="372.5"
       gradientUnits="userSpaceOnUse"
       gradientTransform="translate(-452,-358)">
      <stop
         offset="0.155999"
         stop-color="#71706E"
         id="stop1745" />
      <stop
         offset="0.796276"
         stop-color="#B9AA99"
         id="stop1746" />
    </linearGradient>
    <linearGradient
       id="paint502_linear_890_11"
       x1="511"
       y1="417"
       x2="455.64352"
       y2="380.82346"
       gradientUnits="userSpaceOnUse"
       gradientTransform="translate(-452,-358)">
      <stop
         offset="0.18397722"
         stop-color="#2E2E41"
         id="stop1747"
         style="stop-color:#33424d;stop-opacity:1;" />
      <stop
         offset="1"
         stop-color="#566C80"
         id="stop1748" />
    </linearGradient>
    <linearGradient
       inkscape:collect="always"
       xlink:href="#linearGradient1"
       id="linearGradient2"
       x1="20"
       y1="12.359998"
       x2="53.065121"
       y2="41.5009"
       gradientUnits="userSpaceOnUse"
       gradientTransform="matrix(1,0,0,0.76923091,0,10.492308)" />
    <linearGradient
       inkscape:collect="always"
       xlink:href="#linearGradient3"
       id="linearGradient4"
       x1="12"
       y1="3"
       x2="17"
       y2="29"
       gradientUnits="userSpaceOnUse" />
    <linearGradient
       inkscape:collect="always"
       xlink:href="#linearGradient5"
       id="linearGradient6"
       x1="5"
       y1="23"
       x2="58"
       y2="57"
       gradientUnits="userSpaceOnUse" />
  </defs>
  <g
     inkscape:label="Layer 1"
     inkscape:groupmode="layer"
     id="layer1">
    <path
       d="M 7,8 C 7,5.239 9.239,3 12,3 h 28 c 2.761,0 5,2.239 5,5 v 42 c 0,2.761 -2.239,5 -5,5 H 12 C 9.239,55 7,52.761 7,50 Z"
       id="path487"
       style="fill:url(#linearGradient4)" />
    <path
       d="m 17,18 c 0,-3 2,-5.2 5,-5.2 h 28 c 3,0 5,2.2 5,5.2 V 48.953845 C 55,51.077687 52.761,52.8 50,52.8 H 22 c -2.761,0 -5,-1.722313 -5,-3.846155 z"
       id="path488"
       style="fill:url(#linearGradient2);fill-opacity:1;stroke-width:0.877058"
       sodipodi:nodetypes="sssssssss" />
    <path
       d="M 3,55 V 25 c 0,-2.209 1.791,-4 4,-4 h 9 c 0.657,0 1.303,0.162 1.882,0.47 l 39,21.795 C 58.186,43.961 59,45.318 59,46.795 V 55 c 0,2.209 -1.791,4 -4,4 H 7 C 4.791,59 3,57.209 3,55 Z"
       id="path492"
       style="fill:url(#linearGradient6)" />
    <path
       d="m 32.790618,38.28863 c 0.04986,-1.173736 -1.051345,-2.384684 -1.499324,-2.821667 -2.475933,-7.125254 -11.365721,-4.634832 -13.101522,-4.068843 -4.522755,-3.268624 -8.006461,0.214019 -8.037637,0.248443 -0.167751,0.167564 -0.242391,0.432268 -0.192791,0.684844 0.0498,0.245725 0.217958,0.445387 0.435555,0.516535 1.393634,0.452986 2.444953,1.988827 2.886478,2.730955 -3.24731,4.322501 -3.365487,10.482193 -3.334433,12.066899 -4.0499757,3.81256 -2.7683641,7.738938 -2.7062897,7.909554 0.086985,0.245812 0.2862731,0.425828 0.5227112,0.44465 0.017098,0 0.037645,0 0.055632,0 0.2116683,0 0.4169631,-0.128095 0.5289128,-0.337915 0.7403337,-1.357557 1.6673537,-2.176773 2.7496977,-2.440002 1.934649,-0.46503 3.813455,0.957234 3.832102,0.969946 0.142939,0.112586 0.323463,0.154679 0.497587,0.09393 0.168161,-0.03792 0.317202,-0.176871 0.398098,-0.355247 0.976634,-2.043879 -0.535061,-4.648043 -1.095031,-5.502337 0.715292,-3.454669 2.46976,-5.456612 3.844483,-6.538559 l -0.279755,0.531143 c -0.08704,0.176806 -0.111908,0.379452 -0.0563,0.573497 0.0497,0.198431 0.174315,0.353442 0.336107,0.437877 0.609507,0.301693 1.461819,0.332152 2.544456,0.06934 0.902194,-0.223031 1.773056,-0.750713 2.519615,-1.535678 0.976599,-1.018809 2.065441,-1.096635 2.065441,-1.096635 h 6.183894 c 0.1431,0 0.27372,-0.04706 0.385688,-0.147505 0.528903,-0.473865 0.678034,-0.989411 0.715263,-1.343188 0.05012,-0.469246 -0.08023,-0.864855 -0.198367,-1.118675 z M 28.41726,37.524134 h -0.342238 c -0.342228,0 -0.62226,-0.315971 -0.62226,-0.707795 0,-0.391152 0.279953,-0.70687 0.62226,-0.70687 h 0.342238 c 0.348372,0 0.622197,0.314979 0.622197,0.70687 0,0.390181 -0.273675,0.707795 -0.622197,0.707795 z"
       id="path49-5-3-5-5-2-6-3-3-3-2"
       style="fill:#d5e5ff;fill-opacity:1;stroke-width:0.0651549"
       class=" " />
  </g>
</svg>
